<?xml version="1.0" encoding="UTF-8"?>
<!DOCTYPE svg PUBLIC "-//W3C//DTD SVG 1.1//EN" "http://www.w3.org/Graphics/SVG/1.1/DTD/svg11.dtd">
<svg version="1.1" xmlns="http://www.w3.org/2000/svg" xmlns:xlink="http://www.w3.org/1999/xlink" width="34" height="34"  xml:space="preserve" id="surgeKnob_34x34">
    <!-- Generated by PaintCode - http://www.paintcodeapp.com -->
    <defs>
        <linearGradient id="surgeKnob_34x34-gradient5-oval3" x1="17" y1="0.25" x2="17" y2="33.75" gradientUnits="userSpaceOnUse" >
            <stop offset="0" stop-color="rgb(18, 51, 99)" stop-opacity="1" />
            <stop offset="1" stop-color="rgb(11, 29, 55)" stop-opacity="1" />
        </linearGradient>
        <linearGradient id="surgeKnob_34x34-gradient2-oval2" x1="17" y1="6.5" x2="17" y2="27.5" gradientUnits="userSpaceOnUse" >
            <stop offset="0" stop-color="rgb(255, 175, 95)" stop-opacity="1" />
            <stop offset="0.49" stop-color="rgb(255, 146, 19)" stop-opacity="1" />
            <stop offset="1" stop-color="rgb(207, 123, 0)" stop-opacity="1" />
        </linearGradient>
    </defs>
    <g id="surgeKnob_34x34-group">
        <g id="surgeKnob_34x34-group2">
            <circle id="surgeKnob_34x34-oval3" stroke="rgb(255, 255, 255)" stroke-width="1" stroke-miterlimit="10" fill="url(#surgeKnob_34x34-gradient5-oval3)" cx="17" cy="17" r="16.75" />
            <path id="surgeKnob_34x34-bezier" stroke="none" fill="rgb(255, 144, 0)" d="M 25.66,5.66 C 25.56,5.9 25.5,6.17 25.5,6.46 25.5,7.59 26.42,8.51 27.55,8.51 27.83,8.51 28.11,8.45 28.35,8.34 29.81,10.26 30.8,12.56 31.12,15.07 30.68,15.09 30.28,15.26 29.95,15.52 29.49,15.89 29.19,16.47 29.19,17.11 29.19,18.19 30.01,19.07 31.06,19.16 30.71,21.38 29.84,23.43 28.57,25.18 28.27,25 27.92,24.9 27.55,24.9 27.39,24.9 27.23,24.92 27.08,24.96 26.17,25.17 25.5,25.98 25.5,26.95 25.5,27.35 25.62,27.73 25.81,28.04 23.87,29.57 21.51,30.6 18.93,30.93 18.88,30.02 18.24,29.28 17.39,29.06 17.23,29.02 17.06,29 16.89,29 15.82,29 14.94,29.82 14.84,30.87 12.54,30.51 10.42,29.58 8.63,28.25 8.92,27.89 9.1,27.44 9.1,26.95 9.1,26.23 8.73,25.6 8.17,25.24 7.85,25.03 7.46,24.9 7.05,24.9 6.55,24.9 6.1,25.07 5.75,25.36 4.4,23.55 3.47,21.41 3.11,19.08 3.96,18.83 4.58,18.05 4.58,17.11 4.58,16.39 4.21,15.75 3.63,15.38 3.46,15.27 3.26,15.19 3.06,15.13 3.38,12.53 4.41,10.15 5.95,8.19 6.27,8.39 6.64,8.51 7.05,8.51 8.18,8.51 9.1,7.59 9.1,6.46 9.1,6.08 9,5.73 8.82,5.43 9.07,5.25 9.33,5.08 9.59,4.92 9.84,4.76 10.1,4.61 10.36,4.47 11.76,3.71 13.29,3.18 14.92,2.93 15.17,3.78 15.96,4.41 16.89,4.41 17.53,4.41 18.1,4.11 18.48,3.65 18.66,3.43 18.8,3.16 18.87,2.88 21.4,3.19 23.73,4.18 25.66,5.66 Z M 25.66,5.66" />
            <circle id="surgeKnob_34x34-oval2" stroke="rgb(30, 55, 91)" stroke-width="0.5" stroke-miterlimit="10" fill="url(#surgeKnob_34x34-gradient2-oval2)" cx="17" cy="17" r="10.5" />
        </g>
        <rect id="surgeKnob_34x34-rectangle" stroke="none" fill="rgb(255, 255, 255)" x="15.4" y="1.25" width="3" height="17.25" rx="1.5" />
    </g>
</svg>
