<?xml version="1.0" encoding="utf-8"?>
<svg viewBox="0 0 175 100" xmlns="http://www.w3.org/2000/svg">
  <rect x="3.791" y="2.7" width="167.704" height="94.072" style="fill: rgb(239, 193, 234);"/>
  <rect x="8.59" y="7.068" width="158.059" height="85.349" style="fill: rgb(189, 243, 212); stroke: rgb(18, 19, 17);"/>
  <path d="M 26.903072101855898 21.59814627297576 C 24.059380590299984 24.804241693491964 18.02445520168405 33.613645815965754 20.467918395996094 38.500572204589844 C 21.73766358149332 41.040062575584294 27.58456823506266 41.33699878884956 29.87852668762207 41.62297821044922 C 32.133798736962504 41.90413473946161 35.380802845103815 42.36739652606557 37.584476470947266 41.66496658325195 C 38.985581763765296 41.21835856509168 41.39539291935515 40.58824749451943 42.484317779541016 39.49565505981445 C 45.230336474561696 36.74038758320828 40.775341721902016 33.40873614016134 38.05612564086914 33.856849670410156 C 36.69831268942262 34.08061061362257 35.43895721435547 38.383512129878376 35.43895721435547 39.52084732055664 C 35.43895721435547 45.16769198298902 38.06549973182363 48.92432845990208 43.52418899536133 51.31629943847656 C 51.867218436840645 54.9721741977732 64.4078280566499 47.36189191545744 67.52375793457031 39.40328598022461 C 68.28311384237597 37.463764016768344 65.08094403260647 36.24382449833224 63.66798400878906 37.08842086791992 C 56.865322658036504 41.154709357000755 65.84998662077349 48.910925588638776 69.5041275024414 50.74667739868164 C 72.23771066357246 52.119963322364605 77.55555859029921 54.04620950859146 80.66278076171875 52.76203918457031 C 87.1117140130746 50.09678763636801 95.19763744770137 33.32978557666484 102.76875305175781 45.93500900268555 C 109.23233062028457 56.69628166626011 102.96926305391452 61.161571025579704 92.92288208007812 63.92348861694336 C 92.00918728487393 64.17467854638998 86.25979400502648 67.16188030559367 85.22673034667969 66.72819519042969 C 80.7229178652349 64.83747294992602 80.22828264268527 54.017495491248326 84.3506088256836 51.614402770996094 C 87.31979251538854 49.88352961999476 92.12833483501828 53.61502744700725 94.258056640625 55.15667724609375 C 100.19093602659078 59.451333144014136 108.31436095247564 66.71606302949048 116.54317474365234 63.965476989746094 C 122.7745314015452 61.88256649172917 134.97953960010625 50.674878234661485 126.09233856201172 44.545249938964844 C 122.19529914669833 41.85740671732983 115.04028582307066 44.408894122602064 117.44588470458984 50.048301696777344 C 119.95521119098113 55.93087626153479 128.54382095624877 58.625150958618605 134.1467742919922 59.70943069458008 C 135.18070041790224 59.909515378429525 138.88675787515837 60.734703402667435 139.80657958984375 59.78080749511719 C 144.82137318878605 54.58024415238673 148.4825003912667 42.326553570963355 146.9401092529297 35.01008224487305 C 146.2313338164695 31.647942105057822 141.53999992310492 30.553078427089723 138.72891235351562 30.350963592529297 C 135.24733155997293 30.100640858471444 131.25941090018807 29.982858169581593 127.84737396240234 30.808618545532227 C 124.08394138789812 31.719421550966345 120.7324313104044 34.442689917574285 116.5375747680664 32.203975677490234 C 113.28932495536291 30.470447239114442 111.2747294044727 27.60797479031904 109.97925567626953 24.261499404907227 C 109.65823407653413 23.432234512604 109.63586176172551 19.641093184581038 108.96178436279297 19.567392349243164 C 101.74034831416168 18.77783039394544 95.41137545023088 19.66368623376474 89.01392364501953 23.05788230895996 C 88.05758988645576 23.565269373173507 83.77981522918812 25.494645664659746 84.56333923339844 27.173973083496094 C 86.81430345113193 31.998465899729798 99.98676588263635 33.17911271137989 96.5813217163086 41.28848648071289 C 95.89659921246997 42.919014083192636 93.48893712950613 44.344981102841444 92.07195281982422 45.21283721923828 C 87.65940547870856 47.915376811746185 79.47870116198105 55.06724934337803 74.24722290039062 55.44918441772461 C 68.69739953661148 55.8543609458616 61.41381555599371 52.90771386425822 56.21115493774414 54.294551849365234 C 54.83462008252128 54.661485417615 53.95251044220687 57.676783508171894 53.53660583496094 58.82210922241211 C 51.963651452259995 63.15373977049336 54.255338940637785 72.85492732838105 49.05802917480469 74.93099212646484 C 44.2185594923855 76.86411774370497 35.91782157785898 70.47209470907929 32.19898986816406 67.57632446289062 C 25.082908908958807 62.03519296790648 33.76911668254472 55.705628074581256 38.36822509765625 53.10492706298828 C 47.34893348501072 48.02652158094488 59.73556226863161 48.20606954071832 65.56158447265625 38.26404571533203 C 67.1048862512596 35.630423234106985 67.29369480362485 32.377273551089615 67.74348449707031 29.4328556060791 C 68.3312905555582 25.584953504232747 68.35737461589628 21.181676384447563 65.71833038330078 18.083864212036133 C 64.0332673075236 16.10587201207603 60.476398742323205 15.412436201963738 58.041770935058594 15.041231155395508 C 52.32612094371973 14.1697722347047 39.40632851379691 12.913585172064186 33.9344367980957 15.629044532775879 C 31.397631392947723 16.887949558974913 29.0033872744205 22.28392791748047 26.264875411987305 22.28392791748047" style="stroke: rgb(0, 0, 0); fill: rgb(216, 216, 216);"/>
</svg>