<?xml version="1.0" encoding="UTF-8"?>
<svg width="37px" height="12px" viewBox="0 0 37 12" version="1.1" xmlns="http://www.w3.org/2000/svg" xmlns:xlink="http://www.w3.org/1999/xlink">
    <g id="bmp00159" stroke="none" stroke-width="1" fill="none" fill-rule="evenodd">
        <rect id="Rectangle" stroke="#979797" fill="#E3E3E3" x="0.5" y="0.5" width="36" height="11" rx="5"></rect>
        <path d="M8.248,6.606 L7.2355,3.9825 C7.20549985,3.90449961 7.17400017,3.81375052 7.141,3.71025 C7.10799984,3.60674948 7.07650015,3.49650058 7.0465,3.3795 C6.98349968,3.62250121 6.91900033,3.82499919 6.853,3.987 L5.8405,6.606 L8.248,6.606 Z M10.066,9 L9.391,9 C9.31299961,9 9.25000024,8.98050019 9.202,8.9415 C9.15399976,8.9024998 9.11800012,8.8530003 9.094,8.793 L8.491,7.236 L5.5975,7.236 L4.9945,8.793 C4.97649991,8.84700027 4.94200025,8.89499979 4.891,8.937 C4.83999975,8.97900021 4.77700038,9 4.702,9 L4.027,9 L6.6055,2.5515 L7.4875,2.5515 L10.066,9 Z M12.285,7.902 C12.4320007,8.10000099 12.5932491,8.23949959 12.76875,8.3205 C12.9442509,8.4015004 13.1369989,8.442 13.347,8.442 C13.7760021,8.442 14.1044988,8.29050151 14.3325,7.9875 C14.5605011,7.68449848 14.6745,7.233003 14.6745,6.633 C14.6745,6.07499721 14.573251,5.66475131 14.37075,5.40225 C14.168249,5.13974869 13.8795019,5.0085 13.5045,5.0085 C13.2434987,5.0085 13.0162509,5.0684994 12.82275,5.1885 C12.629249,5.3085006 12.4500008,5.4779989 12.285,5.697 L12.285,7.902 Z M12.285,5.0985 C12.4770009,4.87649889 12.6937488,4.69950066 12.93525,4.5675 C13.1767512,4.43549934 13.4549984,4.3695 13.77,4.3695 C14.0370013,4.3695 14.2777489,4.42049949 14.49225,4.5225 C14.7067511,4.62450051 14.8889992,4.77224903 15.039,4.96575 C15.1890007,5.15925097 15.3037496,5.39399862 15.38325,5.67 C15.4627504,5.94600138 15.5025,6.25649828 15.5025,6.6015 C15.5025,6.97050184 15.4575004,7.30649848 15.3675,7.6095 C15.2774995,7.91250151 15.1477508,8.17124893 14.97825,8.38575 C14.8087491,8.60025107 14.6025012,8.76674941 14.3595,8.88525 C14.1164988,9.00375059 13.8435015,9.063 13.5405,9.063 C13.2404985,9.063 12.987751,9.00675056 12.78225,8.89425 C12.576749,8.78174944 12.3975007,8.62200104 12.2445,8.415 L12.204,8.829 C12.1799999,8.94300057 12.1110006,9 11.997,9 L11.4795,9 L11.4795,2.3715 L12.285,2.3715 L12.285,5.0985 Z M19.211,4.3695 C19.5440016,4.3695 19.8439986,4.42499944 20.111,4.536 C20.3780013,4.64700055 20.605999,4.80449898 20.795,5.0085 C20.9840009,5.21250102 21.1287495,5.45924855 21.22925,5.74875 C21.3297505,6.03825145 21.38,6.36149821 21.38,6.7185 C21.38,7.0785018 21.3297505,7.40249856 21.22925,7.6905 C21.1287495,7.97850144 20.9840009,8.22449898 20.795,8.4285 C20.605999,8.63250102 20.3780013,8.78924945 20.111,8.89875 C19.8439986,9.00825055 19.5440016,9.063 19.211,9.063 C18.8749983,9.063 18.5727513,9.00825055 18.30425,8.89875 C18.0357486,8.78924945 17.8070009,8.63250102 17.618,8.4285 C17.428999,8.22449898 17.2842505,7.97850144 17.18375,7.6905 C17.0832495,7.40249856 17.033,7.0785018 17.033,6.7185 C17.033,6.36149821 17.0832495,6.03825145 17.18375,5.74875 C17.2842505,5.45924855 17.428999,5.21250102 17.618,5.0085 C17.8070009,4.80449898 18.0357486,4.64700055 18.30425,4.536 C18.5727513,4.42499944 18.8749983,4.3695 19.211,4.3695 Z M19.211,8.4375 C19.6610022,8.4375 19.9969989,8.28675151 20.219,7.98525 C20.4410011,7.68374849 20.552,7.2630027 20.552,6.723 C20.552,6.17999729 20.4410011,5.75700152 20.219,5.454 C19.9969989,5.15099848 19.6610022,4.9995 19.211,4.9995 C18.9829988,4.9995 18.7842508,5.03849961 18.61475,5.1165 C18.4452491,5.19450039 18.3042505,5.30699926 18.19175,5.454 C18.0792494,5.60100073 17.9952502,5.78174893 17.93975,5.99625 C17.8842497,6.21075107 17.8565,6.45299865 17.8565,6.723 C17.8565,7.2630027 17.9682488,7.68374849 18.19175,7.98525 C18.4152511,8.28675151 18.7549977,8.4375 19.211,8.4375 Z M26.9109999,4.4415 L26.9109999,9 L26.4339999,9 C26.3199994,9 26.2480001,8.94450055 26.2179999,8.8335 L26.1549999,8.343 C25.956999,8.56200109 25.7350012,8.73824933 25.4889999,8.87175 C25.2429987,9.00525067 24.9610015,9.072 24.6429999,9.072 C24.3939987,9.072 24.1742509,9.03075041 23.9837499,8.94825 C23.793249,8.86574959 23.6335006,8.74950075 23.5044999,8.5995 C23.3754993,8.44949925 23.2787503,8.26800106 23.2142499,8.055 C23.1497496,7.84199893 23.1174999,7.60650129 23.1174999,7.3485 L23.1174999,4.4415 L23.9184999,4.4415 L23.9184999,7.3485 C23.9184999,7.69350172 23.9972492,7.96049905 24.1547499,8.1495 C24.3122507,8.33850094 24.5529983,8.433 24.8769999,8.433 C25.1140011,8.433 25.3352489,8.37675056 25.5407499,8.26425 C25.746251,8.15174944 25.9359991,7.99650099 26.1099999,7.7985 L26.1099999,4.4415 L26.9109999,4.4415 Z M30.3494999,9.072 C29.9894981,9.072 29.7127509,8.97150101 29.5192499,8.7705 C29.325749,8.569499 29.2289999,8.28000189 29.2289999,7.902 L29.2289999,5.112 L28.6799999,5.112 C28.6319997,5.112 28.5915001,5.09775014 28.5584999,5.06925 C28.5254998,5.04074986 28.5089999,4.9965003 28.5089999,4.9365 L28.5089999,4.617 L29.2559999,4.5225 L29.4404999,3.114 C29.4495,3.06899977 29.4697498,3.03225014 29.5012499,3.00375 C29.5327501,2.97524986 29.5739997,2.961 29.6249999,2.961 L30.0299999,2.961 L30.0299999,4.5315 L31.3484999,4.5315 L31.3484999,5.112 L30.0299999,5.112 L30.0299999,7.848 C30.0299999,8.04000096 30.0764995,8.18249953 30.1694999,8.2755 C30.2625004,8.36850047 30.3824992,8.415 30.5294999,8.415 C30.6135003,8.415 30.6862496,8.40375011 30.7477499,8.38125 C30.8092502,8.35874989 30.8624997,8.33400014 30.9074999,8.307 C30.9525001,8.27999987 30.9907498,8.25525011 31.0222499,8.23275 C31.0537501,8.21024989 31.0814998,8.199 31.1054999,8.199 C31.1475001,8.199 31.1849998,8.22449974 31.2179999,8.2755 L31.4519999,8.658 C31.3139992,8.78700064 31.1475009,8.88824963 30.9524999,8.96175 C30.7574989,9.03525037 30.556501,9.072 30.3494999,9.072 Z" id="About" fill="#252525" fill-rule="nonzero"></path>
    </g>
</svg>