<?xml version="1.0" encoding="UTF-8"?>
<svg width="450px" height="182px" viewBox="0 0 450 182" version="1.1" xmlns="http://www.w3.org/2000/svg" xmlns:xlink="http://www.w3.org/1999/xlink">
    <defs>
        <linearGradient x1="50%" y1="0%" x2="50%" y2="100%" id="linearGradient-1">
            <stop stop-color="#F6F6F6" offset="0%"></stop>
            <stop stop-color="#D2D2D2" offset="100%"></stop>
        </linearGradient>
    </defs>
    <g id="bmp00163" stroke="none" stroke-width="1" fill="none" fill-rule="evenodd">
        <rect id="Rectangle" stroke="#888CA3" stroke-width="2" fill="#CACBD6" x="10" y="5" width="432" height="164" rx="5"></rect>
        <rect id="Rectangle" stroke="#9C9C9C" fill="#EBEBEB" x="96.5" y="31.5" width="339" height="20"></rect>
        <rect id="Rectangle" stroke="#9C9C9C" fill="#EBEBEB" x="96.5" y="58.5" width="339" height="20"></rect>
        <rect id="Rectangle" stroke="#9C9C9C" fill="#EBEBEB" x="96.5" y="85.5" width="339" height="20"></rect>
        <rect id="Rectangle" stroke="#9C9C9C" fill="#EBEBEB" x="96.5" y="112.5" width="339" height="20"></rect>
        <rect id="Rectangle" stroke="#979797" fill="url(#linearGradient-1)" x="305.5" y="139.5" width="61" height="24" rx="5"></rect>
        <rect id="Rectangle" stroke="#979797" fill="url(#linearGradient-1)" x="373.5" y="139.5" width="61" height="24" rx="5"></rect>
        <path d="M63.064,37.402 L63.064,46 L62.482,46 C62.3899995,46 62.3130003,45.9840002 62.251,45.952 C62.1889997,45.9199998 62.1280003,45.8660004 62.068,45.79 L57.094,39.31 C57.102,39.4100005 57.108,39.5079995 57.112,39.604 C57.116,39.7000005 57.118,39.7899996 57.118,39.874 L57.118,46 L56.098,46 L56.098,37.402 L56.698,37.402 C56.7500003,37.402 56.7939998,37.405 56.83,37.411 C56.8660002,37.417 56.8979999,37.4269999 56.926,37.441 C56.9540001,37.4550001 56.9819999,37.4749999 57.01,37.501 C57.0380001,37.5270001 57.0679998,37.5599998 57.1,37.6 L62.074,44.074 C62.066,43.9699995 62.059,43.8690005 62.053,43.771 C62.047,43.6729995 62.044,43.5800004 62.044,43.492 L62.044,37.402 L63.064,37.402 Z M68.072,43.264 C67.5799975,43.2800001 67.1610017,43.3189997 66.815,43.381 C66.4689983,43.4430003 66.1870011,43.5239995 65.969,43.624 C65.7509989,43.7240005 65.5930005,43.8419993 65.495,43.978 C65.3969995,44.1140007 65.348,44.2659992 65.348,44.434 C65.348,44.5940008 65.3739997,44.7319994 65.426,44.848 C65.4780003,44.9640006 65.5489995,45.0589996 65.639,45.133 C65.7290004,45.2070004 65.8349994,45.2609998 65.957,45.295 C66.0790006,45.3290002 66.2099993,45.346 66.35,45.346 C66.5380009,45.346 66.7099992,45.3270002 66.866,45.289 C67.0220008,45.2509998 67.1689993,45.1960004 67.307,45.124 C67.4450007,45.0519996 67.5769994,44.9660005 67.703,44.866 C67.8290006,44.7659995 67.9519994,44.6520006 68.072,44.524 L68.072,43.264 Z M64.622,40.78 C64.9580017,40.4559984 65.3199981,40.2140008 65.708,40.054 C66.0960019,39.8939992 66.5259976,39.814 66.998,39.814 C67.3380017,39.814 67.6399987,39.8699994 67.904,39.982 C68.1680013,40.0940006 68.3899991,40.249999 68.57,40.45 C68.7500009,40.650001 68.8859995,40.8919986 68.978,41.176 C69.0700005,41.4600014 69.116,41.7719983 69.116,42.112 L69.116,46 L68.642,46 C68.5379995,46 68.4580003,45.9830002 68.402,45.949 C68.3459997,45.9149998 68.3020002,45.8480005 68.27,45.748 L68.15,45.172 C67.9899992,45.3200007 67.8340008,45.4509994 67.682,45.565 C67.5299992,45.6790006 67.3700008,45.7749996 67.202,45.853 C67.0339992,45.9310004 66.8550009,45.9909998 66.665,46.033 C66.474999,46.0750002 66.2640012,46.096 66.032,46.096 C65.7959988,46.096 65.574001,46.0630003 65.366,45.997 C65.157999,45.9309997 64.9770008,45.8320007 64.823,45.7 C64.6689992,45.5679993 64.5470004,45.401001 64.457,45.199 C64.3669995,44.996999 64.322,44.7580014 64.322,44.482 C64.322,44.2419988 64.3879993,44.0110011 64.52,43.789 C64.6520007,43.5669989 64.8659985,43.3700009 65.162,43.198 C65.4580015,43.0259991 65.8439976,42.8850006 66.32,42.775 C66.7960024,42.6649994 67.3799965,42.6020001 68.072,42.586 L68.072,42.112 C68.072,41.6399976 67.970001,41.2830012 67.766,41.041 C67.561999,40.7989988 67.264002,40.678 66.872,40.678 C66.6079987,40.678 66.3870009,40.7109997 66.209,40.777 C66.0309991,40.8430003 65.8770006,40.9169996 65.747,40.999 C65.6169993,41.0810004 65.5050005,41.1549997 65.411,41.221 C65.3169995,41.2870003 65.2240005,41.32 65.132,41.32 C65.0599996,41.32 64.9980003,41.3010002 64.946,41.263 C64.8939997,41.2249998 64.8500002,41.1780003 64.814,41.122 L64.622,40.78 Z M70.692,46 L70.692,39.922 L71.334,39.922 C71.4860008,39.922 71.5799998,39.9959993 71.616,40.144 L71.694,40.768 C71.9180011,40.4919986 72.1699986,40.2660009 72.45,40.09 C72.7300014,39.9139991 73.0539982,39.826 73.422,39.826 C73.830002,39.826 74.1609987,39.9399989 74.415,40.168 C74.6690013,40.3960011 74.8519994,40.7039981 74.964,41.092 C75.0520004,40.8719989 75.1649993,40.6820008 75.303,40.522 C75.4410007,40.3619992 75.5959991,40.2300005 75.768,40.126 C75.9400009,40.0219995 76.122999,39.9460002 76.317,39.898 C76.511001,39.8499998 76.707999,39.826 76.908,39.826 C77.2280016,39.826 77.5129987,39.8769995 77.763,39.979 C78.0130012,40.0810005 78.2249991,40.229999 78.399,40.426 C78.5730009,40.622001 78.7059995,40.8629986 78.798,41.149 C78.8900005,41.4350014 78.936,41.7619982 78.936,42.13 L78.936,46 L77.862,46 L77.862,42.13 C77.862,41.6539976 77.758001,41.2930012 77.55,41.047 C77.341999,40.8009988 77.042002,40.678 76.65,40.678 C76.4739991,40.678 76.3070008,40.7089997 76.149,40.771 C75.9909992,40.8330003 75.8520006,40.9239994 75.732,41.044 C75.6119994,41.1640006 75.5170003,41.3149991 75.447,41.497 C75.3769996,41.6790009 75.342,41.8899988 75.342,42.13 L75.342,46 L74.268,46 L74.268,42.13 C74.268,41.6419976 74.170001,41.2780012 73.974,41.038 C73.777999,40.7979988 73.4920019,40.678 73.116,40.678 C72.8519987,40.678 72.6080011,40.7489993 72.384,40.891 C72.1599989,41.0330007 71.9540009,41.2259988 71.766,41.47 L71.766,46 L70.692,46 Z M84.58,42.298 C84.58,42.0499988 84.5450003,41.823001 84.475,41.617 C84.4049996,41.410999 84.3030007,41.2330008 84.169,41.083 C84.0349993,40.9329993 83.872001,40.8170004 83.68,40.735 C83.487999,40.6529996 83.2700012,40.612 83.026,40.612 C82.5139974,40.612 82.1090015,40.7609985 81.811,41.059 C81.5129985,41.3570015 81.3280004,41.7699974 81.256,42.298 L84.58,42.298 Z M85.444,45.148 C85.3119993,45.3080008 85.1540009,45.4469994 84.97,45.565 C84.7859991,45.6830006 84.589001,45.7799996 84.379,45.856 C84.1689989,45.9320004 83.9520011,45.9889998 83.728,46.027 C83.5039989,46.0650002 83.2820011,46.084 83.062,46.084 C82.6419979,46.084 82.2550018,46.0130007 81.901,45.871 C81.5469982,45.7289993 81.2410013,45.5210014 80.983,45.247 C80.7249987,44.9729986 80.5240007,44.634002 80.38,44.23 C80.2359993,43.825998 80.164,43.3620026 80.164,42.838 C80.164,42.4139979 80.2289993,42.0180018 80.359,41.65 C80.4890006,41.2819982 80.6759988,40.9630013 80.92,40.693 C81.1640012,40.4229986 81.4619982,40.2110008 81.814,40.057 C82.1660018,39.9029992 82.5619978,39.826 83.002,39.826 C83.3660018,39.826 83.7029984,39.8869994 84.013,40.009 C84.3230015,40.1310006 84.5909989,40.3069988 84.817,40.537 C85.0430011,40.7670011 85.2199994,41.0509983 85.348,41.389 C85.4760006,41.7270017 85.54,42.1119978 85.54,42.544 C85.54,42.7120008 85.5220002,42.8239997 85.486,42.88 C85.4499998,42.9360003 85.3820005,42.964 85.282,42.964 L81.22,42.964 C81.2320001,43.3480019 81.2849995,43.6819986 81.379,43.966 C81.4730005,44.2500014 81.6039992,44.4869991 81.772,44.677 C81.9400008,44.8670009 82.1399988,45.0089995 82.372,45.103 C82.6040012,45.1970005 82.8639986,45.244 83.152,45.244 C83.4200013,45.244 83.650999,45.2130003 83.845,45.151 C84.039001,45.0889997 84.2059993,45.0220004 84.346,44.95 C84.4860007,44.8779996 84.6029995,44.8110003 84.697,44.749 C84.7910005,44.6869997 84.8719997,44.656 84.94,44.656 C85.0280004,44.656 85.0959998,44.6899997 85.144,44.758 L85.444,45.148 Z" id="Name" fill="#000000" fill-rule="nonzero"></path>
        <path d="M46.522,70.224 C46.5860003,70.224 46.6419998,70.2499997 46.69,70.302 L47.152,70.8 C46.7999982,71.208002 46.3730025,71.5259989 45.871,71.754 C45.3689975,71.9820011 44.7620036,72.096 44.05,72.096 C43.4339969,72.096 42.8740025,71.9890011 42.37,71.775 C41.8659975,71.5609989 41.4360018,71.2610019 41.08,70.875 C40.7239982,70.4889981 40.448001,70.0260027 40.252,69.486 C40.055999,68.9459973 39.958,68.3520032 39.958,67.704 C39.958,67.0559968 40.059999,66.4620027 40.264,65.922 C40.468001,65.3819973 40.7549982,64.9180019 41.125,64.53 C41.4950019,64.1419981 41.9379974,63.8410011 42.454,63.627 C42.9700026,63.4129989 43.5399969,63.306 44.164,63.306 C44.7760031,63.306 45.3159977,63.403999 45.784,63.6 C46.2520023,63.796001 46.6639982,64.0619983 47.02,64.398 L46.636,64.932 C46.6119999,64.9720002 46.5810002,65.0049999 46.543,65.031 C46.5049998,65.0570001 46.4540003,65.07 46.39,65.07 C46.3179996,65.07 46.2300005,65.0310004 46.126,64.953 C46.0219995,64.8749996 45.8860008,64.7880005 45.718,64.692 C45.5499992,64.5959995 45.3400013,64.5090004 45.088,64.431 C44.8359987,64.3529996 44.5260018,64.314 44.158,64.314 C43.7139978,64.314 43.3080018,64.3909992 42.94,64.545 C42.5719982,64.6990008 42.2550013,64.9219985 41.989,65.214 C41.7229987,65.5060015 41.5160007,65.8619979 41.368,66.282 C41.2199993,66.7020021 41.146,67.1759974 41.146,67.704 C41.146,68.2400027 41.2229992,68.7179979 41.377,69.138 C41.5310008,69.5580021 41.7409987,69.9129985 42.007,70.203 C42.2730013,70.4930015 42.5869982,70.7139992 42.949,70.866 C43.3110018,71.0180008 43.7019979,71.094 44.122,71.094 C44.3780013,71.094 44.608999,71.0790001 44.815,71.049 C45.021001,71.0189999 45.2109991,70.9720003 45.385,70.908 C45.5590009,70.8439997 45.7209993,70.7630005 45.871,70.665 C46.0210008,70.5669995 46.1699993,70.4500007 46.318,70.314 C46.3860003,70.2539997 46.4539997,70.224 46.522,70.224 Z M51.494,69.264 C51.0019975,69.2800001 50.5830017,69.3189997 50.237,69.381 C49.8909983,69.4430003 49.6090011,69.5239995 49.391,69.624 C49.1729989,69.7240005 49.0150005,69.8419993 48.917,69.978 C48.8189995,70.1140007 48.77,70.2659992 48.77,70.434 C48.77,70.5940008 48.7959997,70.7319994 48.848,70.848 C48.9000003,70.9640006 48.9709996,71.0589996 49.061,71.133 C49.1510005,71.2070004 49.2569994,71.2609998 49.379,71.295 C49.5010006,71.3290002 49.6319993,71.346 49.772,71.346 C49.9600009,71.346 50.1319992,71.3270002 50.288,71.289 C50.4440008,71.2509998 50.5909993,71.1960004 50.729,71.124 C50.8670007,71.0519996 50.9989994,70.9660005 51.125,70.866 C51.2510006,70.7659995 51.3739994,70.6520006 51.494,70.524 L51.494,69.264 Z M48.044,66.78 C48.3800017,66.4559984 48.7419981,66.2140008 49.13,66.054 C49.5180019,65.8939992 49.9479976,65.814 50.42,65.814 C50.7600017,65.814 51.0619987,65.8699994 51.326,65.982 C51.5900013,66.0940006 51.8119991,66.249999 51.992,66.45 C52.1720009,66.650001 52.3079995,66.8919986 52.4,67.176 C52.4920005,67.4600014 52.538,67.7719983 52.538,68.112 L52.538,72 L52.064,72 C51.9599995,72 51.8800003,71.9830002 51.824,71.949 C51.7679997,71.9149998 51.7240002,71.8480005 51.692,71.748 L51.572,71.172 C51.4119992,71.3200007 51.2560008,71.4509994 51.104,71.565 C50.9519992,71.6790006 50.7920008,71.7749996 50.624,71.853 C50.4559992,71.9310004 50.277001,71.9909998 50.087,72.033 C49.8969991,72.0750002 49.6860012,72.096 49.454,72.096 C49.2179988,72.096 48.996001,72.0630003 48.788,71.997 C48.579999,71.9309997 48.3990008,71.8320007 48.245,71.7 C48.0909992,71.5679993 47.9690005,71.401001 47.879,71.199 C47.7889996,70.996999 47.744,70.7580014 47.744,70.482 C47.744,70.2419988 47.8099993,70.0110011 47.942,69.789 C48.0740007,69.5669989 48.2879985,69.3700009 48.584,69.198 C48.8800015,69.0259991 49.2659976,68.8850006 49.742,68.775 C50.2180024,68.6649994 50.8019965,68.6020001 51.494,68.586 L51.494,68.112 C51.494,67.6399976 51.392001,67.2830012 51.188,67.041 C50.983999,66.7989988 50.686002,66.678 50.294,66.678 C50.0299987,66.678 49.8090009,66.7109997 49.631,66.777 C49.4529991,66.8430003 49.2990007,66.9169996 49.169,66.999 C49.0389994,67.0810004 48.9270005,67.1549997 48.833,67.221 C48.7389995,67.2870003 48.6460005,67.32 48.554,67.32 C48.4819996,67.32 48.4200003,67.3010002 48.368,67.263 C48.3159997,67.2249998 48.2720002,67.1780003 48.236,67.122 L48.044,66.78 Z M55.902,72.096 C55.4219976,72.096 55.0530013,71.9620013 54.795,71.694 C54.5369987,71.4259987 54.408,71.0400025 54.408,70.536 L54.408,66.816 L53.676,66.816 C53.6119997,66.816 53.5580002,66.7970002 53.514,66.759 C53.4699998,66.7209998 53.448,66.6620004 53.448,66.582 L53.448,66.156 L54.444,66.03 L54.69,64.152 C54.7020001,64.0919997 54.7289998,64.0430002 54.771,64.005 C54.8130002,63.9669998 54.8679997,63.948 54.936,63.948 L55.476,63.948 L55.476,66.042 L57.234,66.042 L57.234,66.816 L55.476,66.816 L55.476,70.464 C55.476,70.7200013 55.5379994,70.9099994 55.662,71.034 C55.7860006,71.1580006 55.945999,71.22 56.142,71.22 C56.2540006,71.22 56.3509996,71.2050002 56.433,71.175 C56.5150004,71.1449999 56.5859997,71.1120002 56.646,71.076 C56.7060003,71.0399998 56.7569998,71.0070001 56.799,70.977 C56.8410002,70.9469998 56.8779998,70.932 56.91,70.932 C56.9660003,70.932 57.0159998,70.9659997 57.06,71.034 L57.372,71.544 C57.1879991,71.7160009 56.9660013,71.8509995 56.706,71.949 C56.4459987,72.0470005 56.1780014,72.096 55.902,72.096 Z M62.326,68.298 C62.326,68.0499988 62.2910004,67.823001 62.221,67.617 C62.1509997,67.410999 62.0490007,67.2330008 61.915,67.083 C61.7809993,66.9329992 61.618001,66.8170004 61.426,66.735 C61.233999,66.6529996 61.0160012,66.612 60.772,66.612 C60.2599974,66.612 59.8550015,66.7609985 59.557,67.059 C59.2589985,67.3570015 59.0740004,67.7699974 59.002,68.298 L62.326,68.298 Z M63.19,71.148 C63.0579993,71.3080008 62.9000009,71.4469994 62.716,71.565 C62.5319991,71.6830006 62.3350011,71.7799996 62.125,71.856 C61.914999,71.9320004 61.6980011,71.9889998 61.474,72.027 C61.2499989,72.0650002 61.0280011,72.084 60.808,72.084 C60.3879979,72.084 60.0010018,72.0130007 59.647,71.871 C59.2929982,71.7289993 58.9870013,71.5210014 58.729,71.247 C58.4709987,70.9729986 58.2700007,70.634002 58.126,70.23 C57.9819993,69.825998 57.91,69.3620026 57.91,68.838 C57.91,68.4139979 57.9749994,68.0180018 58.105,67.65 C58.2350007,67.2819982 58.4219988,66.9630013 58.666,66.693 C58.9100012,66.4229986 59.2079982,66.2110008 59.56,66.057 C59.9120018,65.9029992 60.3079978,65.826 60.748,65.826 C61.1120018,65.826 61.4489985,65.8869994 61.759,66.009 C62.0690016,66.1310006 62.3369989,66.3069988 62.563,66.537 C62.7890011,66.7670011 62.9659994,67.0509983 63.094,67.389 C63.2220006,67.7270017 63.286,68.1119978 63.286,68.544 C63.286,68.7120008 63.2680002,68.8239997 63.232,68.88 C63.1959998,68.9360003 63.1280005,68.964 63.028,68.964 L58.966,68.964 C58.9780001,69.3480019 59.0309995,69.6819986 59.125,69.966 C59.2190005,70.2500014 59.3499992,70.4869991 59.518,70.677 C59.6860008,70.867001 59.8859988,71.0089995 60.118,71.103 C60.3500012,71.1970005 60.6099986,71.244 60.898,71.244 C61.1660013,71.244 61.396999,71.2130003 61.591,71.151 C61.785001,71.0889997 61.9519993,71.0220004 62.092,70.95 C62.2320007,70.8779996 62.3489995,70.8110003 62.443,70.749 C62.5370005,70.6869997 62.6179997,70.656 62.686,70.656 C62.7740004,70.656 62.8419998,70.6899997 62.89,70.758 L63.19,71.148 Z M66.662,69.03 C66.8780011,69.03 67.0679992,69.0000003 67.232,68.94 C67.3960008,68.8799997 67.5339994,68.7960005 67.646,68.688 C67.7580006,68.5799995 67.8419997,68.4510007 67.898,68.301 C67.9540003,68.1509992 67.982,67.9860009 67.982,67.806 C67.982,67.4339981 67.8690011,67.1380011 67.643,66.918 C67.4169989,66.6979989 67.0900021,66.588 66.662,66.588 C66.2299978,66.588 65.9010011,66.6979989 65.675,66.918 C65.4489989,67.1380011 65.336,67.4339981 65.336,67.806 C65.336,67.9860009 65.3649997,68.1509992 65.423,68.301 C65.4810003,68.4510007 65.5659994,68.5799995 65.678,68.688 C65.7900006,68.7960005 65.9279992,68.8799997 66.092,68.94 C66.2560008,69.0000003 66.4459989,69.03 66.662,69.03 Z M68.588,72.33 C68.588,72.1819993 68.5460004,72.0620005 68.462,71.97 C68.3779996,71.8779995 68.2650007,71.8060003 68.123,71.754 C67.9809993,71.7019997 67.8160009,71.6650001 67.628,71.643 C67.4399991,71.6209999 67.2410011,71.6040001 67.031,71.592 C66.820999,71.5799999 66.6080011,71.5680001 66.392,71.556 C66.1759989,71.5439999 65.968001,71.5240001 65.768,71.496 C65.5439989,71.6000005 65.3610007,71.7309992 65.219,71.889 C65.0769993,72.0470008 65.006,72.2319989 65.006,72.444 C65.006,72.5800007 65.0409997,72.7069994 65.111,72.825 C65.1810004,72.9430006 65.2879993,73.0449996 65.432,73.131 C65.5760007,73.2170004 65.7569989,73.2849997 65.975,73.335 C66.1930011,73.3850003 66.4499985,73.41 66.746,73.41 C67.0340014,73.41 67.2919989,73.3840003 67.52,73.332 C67.7480011,73.2799997 67.9409992,73.2060005 68.099,73.11 C68.2570008,73.0139995 68.3779996,72.9000007 68.462,72.768 C68.5460004,72.6359993 68.588,72.4900008 68.588,72.33 Z M69.674,66.162 L69.674,66.558 C69.674,66.6900007 69.5900008,66.7739998 69.422,66.81 L68.732,66.9 C68.8680007,67.1640013 68.936,67.4559984 68.936,67.776 C68.936,68.0720015 68.8790006,68.3409988 68.765,68.583 C68.6509994,68.8250012 68.494001,69.0319991 68.294,69.204 C68.093999,69.3760009 67.8540014,69.5079995 67.574,69.6 C67.2939986,69.6920005 66.9900016,69.738 66.662,69.738 C66.3779986,69.738 66.1100013,69.7040003 65.858,69.636 C65.7299994,69.7160004 65.6320003,69.8009996 65.564,69.891 C65.4959997,69.9810004 65.462,70.0719995 65.462,70.164 C65.462,70.3080007 65.5209994,70.4169996 65.639,70.491 C65.7570006,70.5650004 65.911999,70.6179998 66.104,70.65 C66.296001,70.6820002 66.5149988,70.702 66.761,70.71 C67.0070012,70.718 67.2589987,70.7309999 67.517,70.749 C67.7750013,70.7670001 68.0269988,70.7979998 68.273,70.842 C68.5190012,70.8860002 68.737999,70.9579995 68.93,71.058 C69.122001,71.1580005 69.2769994,71.2959991 69.395,71.472 C69.5130006,71.6480009 69.572,71.8759986 69.572,72.156 C69.572,72.4160013 69.5070007,72.6679988 69.377,72.912 C69.2469994,73.1560012 69.0600012,73.3729991 68.816,73.563 C68.5719988,73.753001 68.2730018,73.9049994 67.919,74.019 C67.5649982,74.1330006 67.1660022,74.19 66.722,74.19 C66.2779978,74.19 65.8900017,74.1460004 65.558,74.058 C65.2259983,73.9699996 64.9500011,73.8520007 64.73,73.704 C64.5099989,73.5559993 64.3450006,73.385001 64.235,73.191 C64.1249995,72.996999 64.07,72.7940011 64.07,72.582 C64.07,72.2819985 64.1639991,72.028001 64.352,71.82 C64.5400009,71.611999 64.7979984,71.4460006 65.126,71.322 C64.9459991,71.2419996 64.8030005,71.1350007 64.697,71.001 C64.5909995,70.8669993 64.538,70.6860011 64.538,70.458 C64.538,70.3699996 64.5539998,70.2790005 64.586,70.185 C64.6180002,70.0909995 64.6669997,69.9970005 64.733,69.903 C64.7990003,69.8089995 64.8799995,69.7200004 64.976,69.636 C65.0720005,69.5519996 65.1839994,69.4780003 65.312,69.414 C65.0119985,69.2459992 64.7780008,69.0230014 64.61,68.745 C64.4419992,68.4669986 64.358,68.1440018 64.358,67.776 C64.358,67.4799985 64.4149994,67.2110012 64.529,66.969 C64.6430006,66.7269988 64.801999,66.5210009 65.006,66.351 C65.210001,66.1809991 65.4529986,66.0500005 65.735,65.958 C66.0170014,65.8659995 66.3259983,65.82 66.662,65.82 C66.9260013,65.82 67.1719989,65.8489997 67.4,65.907 C67.6280011,65.9650003 67.8359991,66.0499994 68.024,66.162 L69.674,66.162 Z M73.2,65.826 C73.6440022,65.826 74.0439982,65.8999993 74.4,66.048 C74.7560018,66.1960007 75.0599987,66.4059986 75.312,66.678 C75.5640013,66.9500014 75.7569993,67.2789981 75.891,67.665 C76.0250007,68.0510019 76.092,68.4819976 76.092,68.958 C76.092,69.4380024 76.0250007,69.8699981 75.891,70.254 C75.7569993,70.6380019 75.5640013,70.9659986 75.312,71.238 C75.0599987,71.5100014 74.7560018,71.7189993 74.4,71.865 C74.0439982,72.0110007 73.6440022,72.084 73.2,72.084 C72.7519978,72.084 72.3490018,72.0110007 71.991,71.865 C71.6329982,71.7189993 71.3280013,71.5100014 71.076,71.238 C70.8239987,70.9659986 70.6310007,70.6380019 70.497,70.254 C70.3629993,69.8699981 70.296,69.4380024 70.296,68.958 C70.296,68.4819976 70.3629993,68.0510019 70.497,67.665 C70.6310007,67.2789981 70.8239987,66.9500014 71.076,66.678 C71.3280013,66.4059986 71.6329982,66.1960007 71.991,66.048 C72.3490018,65.8999993 72.7519978,65.826 73.2,65.826 Z M73.2,71.25 C73.800003,71.25 74.2479985,71.049002 74.544,70.647 C74.8400015,70.244998 74.988,69.6840036 74.988,68.964 C74.988,68.2399964 74.8400015,67.676002 74.544,67.272 C74.2479985,66.867998 73.800003,66.666 73.2,66.666 C72.8959985,66.666 72.6310011,66.7179995 72.405,66.822 C72.1789989,66.9260005 71.9910008,67.075999 71.841,67.272 C71.6909993,67.468001 71.5790004,67.7089986 71.505,67.995 C71.4309996,68.2810014 71.394,68.6039982 71.394,68.964 C71.394,69.6840036 71.5429985,70.244998 71.841,70.647 C72.1390015,71.049002 72.591997,71.25 73.2,71.25 Z M78.406,67.14 C78.598001,66.7239979 78.8339986,66.3990012 79.114,66.165 C79.3940014,65.9309988 79.735998,65.814 80.14,65.814 C80.2680006,65.814 80.3909994,65.8279999 80.509,65.856 C80.6270006,65.8840001 80.7319995,65.9279997 80.824,65.988 L80.746,66.786 C80.7219999,66.8860005 80.6620005,66.936 80.566,66.936 C80.5099997,66.936 80.4280005,66.9240001 80.32,66.9 C80.2119995,66.8759999 80.0900007,66.864 79.954,66.864 C79.761999,66.864 79.5910008,66.8919997 79.441,66.948 C79.2909993,67.0040003 79.1570006,67.0869995 79.039,67.197 C78.9209994,67.3070005 78.8150005,67.4429992 78.721,67.605 C78.6269995,67.7670008 78.5420004,67.951999 78.466,68.16 L78.466,72 L77.392,72 L77.392,65.922 L78.004,65.922 C78.1200006,65.922 78.1999998,65.9439998 78.244,65.988 C78.2880002,66.0320002 78.3179999,66.1079995 78.334,66.216 L78.406,67.14 Z M86.954,65.922 L83.564,73.794 C83.5279998,73.8740004 83.4830003,73.9379998 83.429,73.986 C83.3749997,74.0340002 83.2920006,74.058 83.18,74.058 L82.388,74.058 L83.498,71.646 L80.99,65.922 L81.914,65.922 C82.0060005,65.922 82.0789997,65.9449998 82.133,65.991 C82.1870003,66.0370002 82.2239999,66.0879997 82.244,66.144 L83.87,69.972 C83.9340003,70.1400008 83.9879998,70.3159991 84.032,70.5 C84.0880003,70.3119991 84.1479997,70.1340008 84.212,69.966 L85.79,66.144 C85.8140001,66.0799997 85.8549997,66.0270002 85.913,65.985 C85.9710003,65.9429998 86.0359996,65.922 86.108,65.922 L86.954,65.922 Z" id="Category" fill="#000000" fill-rule="nonzero"></path>
        <path d="M54.716,98.224 C54.7800003,98.224 54.8359998,98.2499997 54.884,98.302 L55.346,98.8 C54.9939982,99.208002 54.5670025,99.5259989 54.065,99.754 C53.5629975,99.9820011 52.9560036,100.096 52.244,100.096 C51.6279969,100.096 51.0680025,99.9890011 50.564,99.775 C50.0599975,99.5609989 49.6300018,99.2610019 49.274,98.875 C48.9179982,98.4889981 48.642001,98.0260027 48.446,97.486 C48.249999,96.9459973 48.152,96.3520032 48.152,95.704 C48.152,95.0559968 48.253999,94.4620027 48.458,93.922 C48.662001,93.3819973 48.9489982,92.9180019 49.319,92.53 C49.6890019,92.1419981 50.1319974,91.8410011 50.648,91.627 C51.1640026,91.4129989 51.7339969,91.306 52.358,91.306 C52.9700031,91.306 53.5099977,91.403999 53.978,91.6 C54.4460023,91.796001 54.8579982,92.0619983 55.214,92.398 L54.83,92.932 C54.8059999,92.9720002 54.7750002,93.0049999 54.737,93.031 C54.6989998,93.0570001 54.6480003,93.07 54.584,93.07 C54.5119996,93.07 54.4240005,93.0310004 54.32,92.953 C54.2159995,92.8749996 54.0800008,92.7880005 53.912,92.692 C53.7439992,92.5959995 53.5340013,92.5090004 53.282,92.431 C53.0299987,92.3529996 52.7200018,92.314 52.352,92.314 C51.9079978,92.314 51.5020018,92.3909992 51.134,92.545 C50.7659982,92.6990008 50.4490013,92.9219985 50.183,93.214 C49.9169987,93.5060015 49.7100007,93.8619979 49.562,94.282 C49.4139993,94.7020021 49.34,95.1759974 49.34,95.704 C49.34,96.2400027 49.4169992,96.7179979 49.571,97.138 C49.7250008,97.5580021 49.9349987,97.9129985 50.201,98.203 C50.4670013,98.4930014 50.7809982,98.7139992 51.143,98.866 C51.5050018,99.0180008 51.8959979,99.094 52.316,99.094 C52.5720013,99.094 52.802999,99.0790001 53.009,99.049 C53.215001,99.0189998 53.4049991,98.9720003 53.579,98.908 C53.7530009,98.8439997 53.9149993,98.7630005 54.065,98.665 C54.2150008,98.5669995 54.3639993,98.4500007 54.512,98.314 C54.5800003,98.2539997 54.6479997,98.224 54.716,98.224 Z M57.372,95.14 C57.564001,94.7239979 57.7999986,94.3990012 58.08,94.165 C58.3600014,93.9309988 58.701998,93.814 59.106,93.814 C59.2340006,93.814 59.3569994,93.8279999 59.475,93.856 C59.5930006,93.8840001 59.6979995,93.9279997 59.79,93.988 L59.712,94.786 C59.6879999,94.8860005 59.6280005,94.936 59.532,94.936 C59.4759997,94.936 59.3940005,94.9240001 59.286,94.9 C59.1779995,94.8759999 59.0560007,94.864 58.92,94.864 C58.727999,94.864 58.5570008,94.8919997 58.407,94.948 C58.2569993,95.0040003 58.1230006,95.0869994 58.005,95.197 C57.8869994,95.3070005 57.7810005,95.4429992 57.687,95.605 C57.5929995,95.7670008 57.5080004,95.951999 57.432,96.16 L57.432,100 L56.358,100 L56.358,93.922 L56.97,93.922 C57.0860006,93.922 57.1659998,93.9439998 57.21,93.988 C57.2540002,94.0320002 57.2839999,94.1079995 57.3,94.216 L57.372,95.14 Z M64.498,96.298 C64.498,96.0499988 64.4630004,95.823001 64.393,95.617 C64.3229997,95.410999 64.2210007,95.2330007 64.087,95.083 C63.9529993,94.9329992 63.790001,94.8170004 63.598,94.735 C63.405999,94.6529996 63.1880012,94.612 62.944,94.612 C62.4319974,94.612 62.0270015,94.7609985 61.729,95.059 C61.4309985,95.3570015 61.2460004,95.7699974 61.174,96.298 L64.498,96.298 Z M65.362,99.148 C65.2299993,99.3080008 65.0720009,99.4469994 64.888,99.565 C64.7039991,99.6830006 64.5070011,99.7799996 64.297,99.856 C64.086999,99.9320004 63.8700011,99.9889998 63.646,100.027 C63.4219989,100.065 63.2000011,100.084 62.98,100.084 C62.5599979,100.084 62.1730018,100.013001 61.819,99.871 C61.4649982,99.7289993 61.1590013,99.5210014 60.901,99.247 C60.6429987,98.9729986 60.4420007,98.634002 60.298,98.23 C60.1539993,97.825998 60.082,97.3620026 60.082,96.838 C60.082,96.4139979 60.1469994,96.0180018 60.277,95.65 C60.4070007,95.2819982 60.5939988,94.9630013 60.838,94.693 C61.0820012,94.4229986 61.3799982,94.2110008 61.732,94.057 C62.0840018,93.9029992 62.4799978,93.826 62.92,93.826 C63.2840018,93.826 63.6209985,93.8869994 63.931,94.009 C64.2410016,94.1310006 64.5089989,94.3069988 64.735,94.537 C64.9610011,94.7670011 65.1379994,95.0509983 65.266,95.389 C65.3940006,95.7270017 65.458,96.1119978 65.458,96.544 C65.458,96.7120008 65.4400002,96.8239997 65.404,96.88 C65.3679998,96.9360003 65.3000005,96.964 65.2,96.964 L61.138,96.964 C61.1500001,97.3480019 61.2029995,97.6819986 61.297,97.966 C61.3910005,98.2500014 61.5219992,98.486999 61.69,98.677 C61.8580008,98.8670009 62.0579988,99.0089995 62.29,99.103 C62.5220012,99.1970005 62.7819986,99.244 63.07,99.244 C63.3380013,99.244 63.568999,99.2130003 63.763,99.151 C63.957001,99.0889997 64.1239993,99.0220004 64.264,98.95 C64.4040007,98.8779996 64.5209995,98.8110003 64.615,98.749 C64.7090005,98.6869997 64.7899997,98.656 64.858,98.656 C64.9460004,98.656 65.0139998,98.6899997 65.062,98.758 L65.362,99.148 Z M70.01,97.264 C69.5179975,97.2800001 69.0990017,97.3189997 68.753,97.381 C68.4069983,97.4430003 68.1250011,97.5239995 67.907,97.624 C67.6889989,97.7240005 67.5310005,97.8419993 67.433,97.978 C67.3349995,98.1140007 67.286,98.2659992 67.286,98.434 C67.286,98.5940008 67.3119997,98.7319994 67.364,98.848 C67.4160003,98.9640006 67.4869996,99.0589996 67.577,99.133 C67.6670005,99.2070004 67.7729994,99.2609998 67.895,99.295 C68.0170006,99.3290002 68.1479993,99.346 68.288,99.346 C68.4760009,99.346 68.6479992,99.3270002 68.804,99.289 C68.9600008,99.2509998 69.1069993,99.1960004 69.245,99.124 C69.3830007,99.0519996 69.5149994,98.9660005 69.641,98.866 C69.7670006,98.7659995 69.8899994,98.6520006 70.01,98.524 L70.01,97.264 Z M66.56,94.78 C66.8960017,94.4559984 67.2579981,94.2140008 67.646,94.054 C68.0340019,93.8939992 68.4639976,93.814 68.936,93.814 C69.2760017,93.814 69.5779987,93.8699994 69.842,93.982 C70.1060013,94.0940006 70.3279991,94.249999 70.508,94.45 C70.6880009,94.650001 70.8239995,94.8919986 70.916,95.176 C71.0080005,95.4600014 71.054,95.7719983 71.054,96.112 L71.054,100 L70.58,100 C70.4759995,100 70.3960003,99.9830002 70.34,99.949 C70.2839997,99.9149998 70.2400002,99.8480005 70.208,99.748 L70.088,99.172 C69.9279992,99.3200007 69.7720008,99.4509994 69.62,99.565 C69.4679992,99.6790006 69.3080008,99.7749996 69.14,99.853 C68.9719992,99.9310004 68.793001,99.9909998 68.603,100.033 C68.4129991,100.075 68.2020012,100.096 67.97,100.096 C67.7339988,100.096 67.512001,100.063 67.304,99.997 C67.095999,99.9309997 66.9150008,99.8320007 66.761,99.7 C66.6069992,99.5679993 66.4850005,99.401001 66.395,99.199 C66.3049996,98.996999 66.26,98.7580014 66.26,98.482 C66.26,98.2419988 66.3259993,98.0110011 66.458,97.789 C66.5900007,97.5669989 66.8039985,97.3700009 67.1,97.198 C67.3960015,97.0259991 67.7819976,96.8850005 68.258,96.775 C68.7340024,96.6649994 69.3179965,96.6020001 70.01,96.586 L70.01,96.112 C70.01,95.6399976 69.908001,95.2830012 69.704,95.041 C69.499999,94.7989988 69.202002,94.678 68.81,94.678 C68.5459987,94.678 68.3250009,94.7109997 68.147,94.777 C67.9689991,94.8430003 67.8150007,94.9169996 67.685,94.999 C67.5549994,95.0810004 67.4430005,95.1549997 67.349,95.221 C67.2549995,95.2870003 67.1620005,95.32 67.07,95.32 C66.9979996,95.32 66.9360003,95.3010002 66.884,95.263 C66.8319997,95.2249998 66.7880002,95.1780003 66.752,95.122 L66.56,94.78 Z M74.418,100.096 C73.9379976,100.096 73.5690013,99.9620013 73.311,99.694 C73.0529987,99.4259987 72.924,99.0400025 72.924,98.536 L72.924,94.816 L72.192,94.816 C72.1279997,94.816 72.0740002,94.7970002 72.03,94.759 C71.9859998,94.7209998 71.964,94.6620004 71.964,94.582 L71.964,94.156 L72.96,94.03 L73.206,92.152 C73.2180001,92.0919997 73.2449998,92.0430002 73.287,92.005 C73.3290002,91.9669998 73.3839997,91.948 73.452,91.948 L73.992,91.948 L73.992,94.042 L75.75,94.042 L75.75,94.816 L73.992,94.816 L73.992,98.464 C73.992,98.7200013 74.0539994,98.9099994 74.178,99.034 C74.3020006,99.1580006 74.461999,99.22 74.658,99.22 C74.7700006,99.22 74.8669996,99.2050001 74.949,99.175 C75.0310004,99.1449998 75.1019997,99.1120002 75.162,99.076 C75.2220003,99.0399998 75.2729998,99.0070001 75.315,98.977 C75.3570002,98.9469998 75.3939998,98.932 75.426,98.932 C75.4820003,98.932 75.5319998,98.9659997 75.576,99.034 L75.888,99.544 C75.7039991,99.7160009 75.4820013,99.8509995 75.222,99.949 C74.9619987,100.047 74.6940014,100.096 74.418,100.096 Z M79.336,93.826 C79.7800022,93.826 80.1799982,93.8999993 80.536,94.048 C80.8920018,94.1960007 81.1959987,94.4059986 81.448,94.678 C81.7000013,94.9500014 81.8929993,95.2789981 82.027,95.665 C82.1610007,96.0510019 82.228,96.4819976 82.228,96.958 C82.228,97.4380024 82.1610007,97.8699981 82.027,98.254 C81.8929993,98.6380019 81.7000013,98.9659986 81.448,99.238 C81.1959987,99.5100014 80.8920018,99.7189993 80.536,99.865 C80.1799982,100.011001 79.7800022,100.084 79.336,100.084 C78.8879978,100.084 78.4850018,100.011001 78.127,99.865 C77.7689982,99.7189993 77.4640013,99.5100014 77.212,99.238 C76.9599987,98.9659986 76.7670007,98.6380019 76.633,98.254 C76.4989993,97.8699981 76.432,97.4380024 76.432,96.958 C76.432,96.4819976 76.4989993,96.0510019 76.633,95.665 C76.7670007,95.2789981 76.9599987,94.9500014 77.212,94.678 C77.4640013,94.4059986 77.7689982,94.1960007 78.127,94.048 C78.4850018,93.8999993 78.8879978,93.826 79.336,93.826 Z M79.336,99.25 C79.936003,99.25 80.3839985,99.049002 80.68,98.647 C80.9760015,98.244998 81.124,97.6840036 81.124,96.964 C81.124,96.2399964 80.9760015,95.676002 80.68,95.272 C80.3839985,94.867998 79.936003,94.666 79.336,94.666 C79.0319985,94.666 78.7670011,94.7179995 78.541,94.822 C78.3149989,94.9260005 78.1270008,95.075999 77.977,95.272 C77.8269993,95.468001 77.7150004,95.7089986 77.641,95.995 C77.5669996,96.2810014 77.53,96.6039982 77.53,96.964 C77.53,97.6840036 77.6789985,98.244998 77.977,98.647 C78.2750015,99.049002 78.727997,99.25 79.336,99.25 Z M84.542,95.14 C84.734001,94.7239979 84.9699986,94.3990012 85.25,94.165 C85.5300014,93.9309988 85.871998,93.814 86.276,93.814 C86.4040006,93.814 86.5269994,93.8279999 86.645,93.856 C86.7630006,93.8840001 86.8679995,93.9279997 86.96,93.988 L86.882,94.786 C86.8579999,94.8860005 86.7980005,94.936 86.702,94.936 C86.6459997,94.936 86.5640005,94.9240001 86.456,94.9 C86.3479995,94.8759999 86.2260007,94.864 86.09,94.864 C85.897999,94.864 85.7270008,94.8919997 85.577,94.948 C85.4269993,95.0040003 85.2930006,95.0869994 85.175,95.197 C85.0569994,95.3070005 84.9510005,95.4429992 84.857,95.605 C84.7629995,95.7670008 84.6780004,95.951999 84.602,96.16 L84.602,100 L83.528,100 L83.528,93.922 L84.14,93.922 C84.2560006,93.922 84.3359998,93.9439998 84.38,93.988 C84.4240002,94.0320002 84.4539999,94.1079995 84.47,94.216 L84.542,95.14 Z" id="Creator" fill="#000000" fill-rule="nonzero"></path>
        <path d="M42.794,124.224 C42.8580003,124.224 42.9139998,124.25 42.962,124.302 L43.424,124.8 C43.0719982,125.208002 42.6450025,125.525999 42.143,125.754 C41.6409975,125.982001 41.0340036,126.096 40.322,126.096 C39.7059969,126.096 39.1460025,125.989001 38.642,125.775 C38.1379975,125.560999 37.7080018,125.261002 37.352,124.875 C36.9959982,124.488998 36.720001,124.026003 36.524,123.486 C36.327999,122.945997 36.23,122.352003 36.23,121.704 C36.23,121.055997 36.331999,120.462003 36.536,119.922 C36.740001,119.381997 37.0269982,118.918002 37.397,118.53 C37.7670019,118.141998 38.2099974,117.841001 38.726,117.627 C39.2420026,117.412999 39.8119969,117.306 40.436,117.306 C41.0480031,117.306 41.5879977,117.403999 42.056,117.6 C42.5240023,117.796001 42.9359982,118.061998 43.292,118.398 L42.908,118.932 C42.8839999,118.972 42.8530002,119.005 42.815,119.031 C42.7769998,119.057 42.7260003,119.07 42.662,119.07 C42.5899996,119.07 42.5020005,119.031 42.398,118.953 C42.2939995,118.875 42.1580008,118.788 41.99,118.692 C41.8219992,118.596 41.6120013,118.509 41.36,118.431 C41.1079987,118.353 40.7980018,118.314 40.43,118.314 C39.9859978,118.314 39.5800018,118.390999 39.212,118.545 C38.8439982,118.699001 38.5270013,118.921999 38.261,119.214 C37.9949987,119.506001 37.7880007,119.861998 37.64,120.282 C37.4919993,120.702002 37.418,121.175997 37.418,121.704 C37.418,122.240003 37.4949992,122.717998 37.649,123.138 C37.8030008,123.558002 38.0129987,123.912999 38.279,124.203 C38.5450013,124.493001 38.8589982,124.713999 39.221,124.866 C39.5830018,125.018001 39.9739979,125.094 40.394,125.094 C40.6500013,125.094 40.880999,125.079 41.087,125.049 C41.293001,125.019 41.4829991,124.972 41.657,124.908 C41.8310009,124.844 41.9929993,124.763 42.143,124.665 C42.2930008,124.567 42.4419993,124.450001 42.59,124.314 C42.6580003,124.254 42.7259997,124.224 42.794,124.224 Z M46.914,119.826 C47.3580022,119.826 47.7579982,119.899999 48.114,120.048 C48.4700018,120.196001 48.7739987,120.405999 49.026,120.678 C49.2780013,120.950001 49.4709993,121.278998 49.605,121.665 C49.7390007,122.051002 49.806,122.481998 49.806,122.958 C49.806,123.438002 49.7390007,123.869998 49.605,124.254 C49.4709993,124.638002 49.2780013,124.965999 49.026,125.238 C48.7739987,125.510001 48.4700018,125.718999 48.114,125.865 C47.7579982,126.011001 47.3580022,126.084 46.914,126.084 C46.4659978,126.084 46.0630018,126.011001 45.705,125.865 C45.3469982,125.718999 45.0420013,125.510001 44.79,125.238 C44.5379987,124.965999 44.3450007,124.638002 44.211,124.254 C44.0769993,123.869998 44.01,123.438002 44.01,122.958 C44.01,122.481998 44.0769993,122.051002 44.211,121.665 C44.3450007,121.278998 44.5379987,120.950001 44.79,120.678 C45.0420013,120.405999 45.3469982,120.196001 45.705,120.048 C46.0630018,119.899999 46.4659978,119.826 46.914,119.826 Z M46.914,125.25 C47.514003,125.25 47.9619985,125.049002 48.258,124.647 C48.5540015,124.244998 48.702,123.684004 48.702,122.964 C48.702,122.239996 48.5540015,121.676002 48.258,121.272 C47.9619985,120.867998 47.514003,120.666 46.914,120.666 C46.6099985,120.666 46.3450011,120.717999 46.119,120.822 C45.8929989,120.926001 45.7050008,121.075999 45.555,121.272 C45.4049993,121.468001 45.2930004,121.708999 45.219,121.995 C45.1449996,122.281001 45.108,122.603998 45.108,122.964 C45.108,123.684004 45.2569985,124.244998 45.555,124.647 C45.8530015,125.049002 46.305997,125.25 46.914,125.25 Z M51.106,126 L51.106,119.922 L51.748,119.922 C51.9000008,119.922 51.9939998,119.995999 52.03,120.144 L52.108,120.768 C52.3320011,120.491999 52.5839986,120.266001 52.864,120.09 C53.1440014,119.913999 53.4679982,119.826 53.836,119.826 C54.244002,119.826 54.5749987,119.939999 54.829,120.168 C55.0830013,120.396001 55.2659994,120.703998 55.378,121.092 C55.4660004,120.871999 55.5789993,120.682001 55.717,120.522 C55.8550007,120.361999 56.0099991,120.230001 56.182,120.126 C56.3540009,120.021999 56.536999,119.946 56.731,119.898 C56.925001,119.85 57.121999,119.826 57.322,119.826 C57.6420016,119.826 57.9269988,119.876999 58.177,119.979 C58.4270013,120.081001 58.6389991,120.229999 58.813,120.426 C58.9870009,120.622001 59.1199995,120.862999 59.212,121.149 C59.3040005,121.435001 59.35,121.761998 59.35,122.13 L59.35,126 L58.276,126 L58.276,122.13 C58.276,121.653998 58.172001,121.293001 57.964,121.047 C57.755999,120.800999 57.456002,120.678 57.064,120.678 C56.8879991,120.678 56.7210008,120.709 56.563,120.771 C56.4049992,120.833 56.2660006,120.923999 56.146,121.044 C56.0259994,121.164001 55.9310004,121.314999 55.861,121.497 C55.7909997,121.679001 55.756,121.889999 55.756,122.13 L55.756,126 L54.682,126 L54.682,122.13 C54.682,121.641998 54.584001,121.278001 54.388,121.038 C54.191999,120.797999 53.9060019,120.678 53.53,120.678 C53.2659987,120.678 53.0220011,120.748999 52.798,120.891 C52.5739989,121.033001 52.3680009,121.225999 52.18,121.47 L52.18,126 L51.106,126 Z M60.926,126 L60.926,119.922 L61.568,119.922 C61.7200008,119.922 61.8139998,119.995999 61.85,120.144 L61.928,120.768 C62.1520011,120.491999 62.4039986,120.266001 62.684,120.09 C62.9640014,119.913999 63.2879982,119.826 63.656,119.826 C64.064002,119.826 64.3949987,119.939999 64.649,120.168 C64.9030013,120.396001 65.0859994,120.703998 65.198,121.092 C65.2860004,120.871999 65.3989993,120.682001 65.537,120.522 C65.6750007,120.361999 65.8299991,120.230001 66.002,120.126 C66.1740009,120.021999 66.356999,119.946 66.551,119.898 C66.745001,119.85 66.941999,119.826 67.142,119.826 C67.4620016,119.826 67.7469988,119.876999 67.997,119.979 C68.2470013,120.081001 68.4589991,120.229999 68.633,120.426 C68.8070009,120.622001 68.9399995,120.862999 69.032,121.149 C69.1240005,121.435001 69.17,121.761998 69.17,122.13 L69.17,126 L68.096,126 L68.096,122.13 C68.096,121.653998 67.992001,121.293001 67.784,121.047 C67.575999,120.800999 67.276002,120.678 66.884,120.678 C66.7079991,120.678 66.5410008,120.709 66.383,120.771 C66.2249992,120.833 66.0860006,120.923999 65.966,121.044 C65.8459994,121.164001 65.7510004,121.314999 65.681,121.497 C65.6109997,121.679001 65.576,121.889999 65.576,122.13 L65.576,126 L64.502,126 L64.502,122.13 C64.502,121.641998 64.404001,121.278001 64.208,121.038 C64.011999,120.797999 63.7260019,120.678 63.35,120.678 C63.0859987,120.678 62.8420011,120.748999 62.618,120.891 C62.3939989,121.033001 62.1880009,121.225999 62,121.47 L62,126 L60.926,126 Z M74.814,122.298 C74.814,122.049999 74.7790004,121.823001 74.709,121.617 C74.6389997,121.410999 74.5370007,121.233001 74.403,121.083 C74.2689993,120.932999 74.106001,120.817 73.914,120.735 C73.721999,120.653 73.5040012,120.612 73.26,120.612 C72.7479974,120.612 72.3430015,120.760999 72.045,121.059 C71.7469985,121.357001 71.5620004,121.769997 71.49,122.298 L74.814,122.298 Z M75.678,125.148 C75.5459993,125.308001 75.3880009,125.446999 75.204,125.565 C75.0199991,125.683001 74.8230011,125.78 74.613,125.856 C74.402999,125.932 74.1860011,125.989 73.962,126.027 C73.7379989,126.065 73.5160011,126.084 73.296,126.084 C72.8759979,126.084 72.4890018,126.013001 72.135,125.871 C71.7809982,125.728999 71.4750013,125.521001 71.217,125.247 C70.9589987,124.972999 70.7580007,124.634002 70.614,124.23 C70.4699993,123.825998 70.398,123.362003 70.398,122.838 C70.398,122.413998 70.4629994,122.018002 70.593,121.65 C70.7230007,121.281998 70.9099988,120.963001 71.154,120.693 C71.3980012,120.422999 71.6959982,120.211001 72.048,120.057 C72.4000018,119.902999 72.7959978,119.826 73.236,119.826 C73.6000018,119.826 73.9369985,119.886999 74.247,120.009 C74.5570016,120.131001 74.8249989,120.306999 75.051,120.537 C75.2770011,120.767001 75.4539994,121.050998 75.582,121.389 C75.7100006,121.727002 75.774,122.111998 75.774,122.544 C75.774,122.712001 75.7560002,122.824 75.72,122.88 C75.6839998,122.936 75.6160005,122.964 75.516,122.964 L71.454,122.964 C71.4660001,123.348002 71.5189995,123.681999 71.613,123.966 C71.7070005,124.250001 71.8379992,124.486999 72.006,124.677 C72.1740008,124.867001 72.3739988,125.009 72.606,125.103 C72.8380012,125.197 73.0979986,125.244 73.386,125.244 C73.6540013,125.244 73.884999,125.213 74.079,125.151 C74.273001,125.089 74.4399993,125.022 74.58,124.95 C74.7200007,124.878 74.8369995,124.811 74.931,124.749 C75.0250005,124.687 75.1059997,124.656 75.174,124.656 C75.2620004,124.656 75.3299998,124.69 75.378,124.758 L75.678,125.148 Z M78.04,120.804 C78.1720007,120.655999 78.3119993,120.522001 78.46,120.402 C78.6080007,120.281999 78.7649992,120.179 78.931,120.093 C79.0970008,120.007 79.2729991,119.941 79.459,119.895 C79.6450009,119.849 79.8459989,119.826 80.062,119.826 C80.3940017,119.826 80.6869987,119.880999 80.941,119.991 C81.1950013,120.101001 81.4069992,120.256999 81.577,120.459 C81.7470009,120.661001 81.8759996,120.903999 81.964,121.188 C82.0520004,121.472001 82.096,121.785998 82.096,122.13 L82.096,126 L81.022,126 L81.022,122.13 C81.022,121.669998 80.9170011,121.313001 80.707,121.059 C80.496999,120.804999 80.1780021,120.678 79.75,120.678 C79.4339984,120.678 79.1390014,120.753999 78.865,120.906 C78.5909986,121.058001 78.3380012,121.263999 78.106,121.524 L78.106,126 L77.032,126 L77.032,119.922 L77.674,119.922 C77.8260008,119.922 77.9199998,119.995999 77.956,120.144 L78.04,120.804 Z M85.46,126.096 C84.9799976,126.096 84.6110013,125.962001 84.353,125.694 C84.0949987,125.425999 83.966,125.040003 83.966,124.536 L83.966,120.816 L83.234,120.816 C83.1699997,120.816 83.1160002,120.797 83.072,120.759 C83.0279998,120.721 83.006,120.662 83.006,120.582 L83.006,120.156 L84.002,120.03 L84.248,118.152 C84.2600001,118.092 84.2869998,118.043 84.329,118.005 C84.3710002,117.967 84.4259997,117.948 84.494,117.948 L85.034,117.948 L85.034,120.042 L86.792,120.042 L86.792,120.816 L85.034,120.816 L85.034,124.464 C85.034,124.720001 85.0959994,124.909999 85.22,125.034 C85.3440006,125.158001 85.503999,125.22 85.7,125.22 C85.8120006,125.22 85.9089996,125.205 85.991,125.175 C86.0730004,125.145 86.1439997,125.112 86.204,125.076 C86.2640003,125.04 86.3149998,125.007 86.357,124.977 C86.3990002,124.947 86.4359998,124.932 86.468,124.932 C86.5240003,124.932 86.5739998,124.966 86.618,125.034 L86.93,125.544 C86.7459991,125.716001 86.5240013,125.851 86.264,125.949 C86.0039987,126.047 85.7360014,126.096 85.46,126.096 Z" id="Comment" fill="#000000" fill-rule="nonzero"></path>
        <path d="M326.968,154.224 C327.032,154.224 327.088,154.25 327.136,154.302 L327.598,154.8 C327.245998,155.208002 326.819003,155.525999 326.317,155.754 C325.814997,155.982001 325.208004,156.096 324.496,156.096 C323.879997,156.096 323.320003,155.989001 322.816,155.775 C322.311997,155.560999 321.882002,155.261002 321.526,154.875 C321.169998,154.488998 320.894001,154.026003 320.698,153.486 C320.501999,152.945997 320.404,152.352003 320.404,151.704 C320.404,151.055997 320.505999,150.462003 320.71,149.922 C320.914001,149.381997 321.200998,148.918002 321.571,148.53 C321.941002,148.141998 322.383997,147.841001 322.9,147.627 C323.416003,147.412999 323.985997,147.306 324.61,147.306 C325.222003,147.306 325.761998,147.403999 326.23,147.6 C326.698002,147.796001 327.109998,148.061998 327.466,148.398 L327.082,148.932 C327.058,148.972 327.027,149.005 326.989,149.031 C326.951,149.057 326.9,149.07 326.836,149.07 C326.764,149.07 326.676001,149.031 326.572,148.953 C326.467999,148.875 326.332001,148.788 326.164,148.692 C325.995999,148.596 325.786001,148.509 325.534,148.431 C325.281999,148.353 324.972002,148.314 324.604,148.314 C324.159998,148.314 323.754002,148.390999 323.386,148.545 C323.017998,148.699001 322.701001,148.921999 322.435,149.214 C322.168999,149.506001 321.962001,149.861998 321.814,150.282 C321.665999,150.702002 321.592,151.175997 321.592,151.704 C321.592,152.240003 321.668999,152.717998 321.823,153.138 C321.977001,153.558002 322.186999,153.912999 322.453,154.203 C322.719001,154.493001 323.032998,154.713999 323.395,154.866 C323.757002,155.018001 324.147998,155.094 324.568,155.094 C324.824001,155.094 325.054999,155.079 325.261,155.049 C325.467001,155.019 325.656999,154.972 325.831,154.908 C326.005001,154.844 326.166999,154.763 326.317,154.665 C326.467001,154.567 326.615999,154.450001 326.764,154.314 C326.832,154.254 326.9,154.224 326.968,154.224 Z M331.94,153.264 C331.447998,153.28 331.029002,153.319 330.683,153.381 C330.336998,153.443 330.055001,153.524 329.837,153.624 C329.618999,153.724001 329.461,153.841999 329.363,153.978 C329.265,154.114001 329.216,154.265999 329.216,154.434 C329.216,154.594001 329.242,154.731999 329.294,154.848 C329.346,154.964001 329.417,155.059 329.507,155.133 C329.597,155.207 329.702999,155.261 329.825,155.295 C329.947001,155.329 330.077999,155.346 330.218,155.346 C330.406001,155.346 330.577999,155.327 330.734,155.289 C330.890001,155.251 331.036999,155.196 331.175,155.124 C331.313001,155.052 331.444999,154.966001 331.571,154.866 C331.697001,154.766 331.819999,154.652001 331.94,154.524 L331.94,153.264 Z M328.49,150.78 C328.826002,150.455998 329.187998,150.214001 329.576,150.054 C329.964002,149.893999 330.393998,149.814 330.866,149.814 C331.206002,149.814 331.507999,149.869999 331.772,149.982 C332.036001,150.094001 332.257999,150.249999 332.438,150.45 C332.618001,150.650001 332.754,150.891999 332.846,151.176 C332.938,151.460001 332.984,151.771998 332.984,152.112 L332.984,156 L332.51,156 C332.405999,156 332.326,155.983 332.27,155.949 C332.214,155.915 332.17,155.848001 332.138,155.748 L332.018,155.172 C331.857999,155.320001 331.702001,155.450999 331.55,155.565 C331.397999,155.679001 331.238001,155.775 331.07,155.853 C330.901999,155.931 330.723001,155.991 330.533,156.033 C330.342999,156.075 330.132001,156.096 329.9,156.096 C329.663999,156.096 329.442001,156.063 329.234,155.997 C329.025999,155.931 328.845001,155.832001 328.691,155.7 C328.536999,155.567999 328.415,155.401001 328.325,155.199 C328.235,154.996999 328.19,154.758001 328.19,154.482 C328.19,154.241999 328.255999,154.011001 328.388,153.789 C328.520001,153.566999 328.733999,153.370001 329.03,153.198 C329.326001,153.025999 329.711998,152.885001 330.188,152.775 C330.664002,152.664999 331.247997,152.602 331.94,152.586 L331.94,152.112 C331.94,151.639998 331.838001,151.283001 331.634,151.041 C331.429999,150.798999 331.132002,150.678 330.74,150.678 C330.475999,150.678 330.255001,150.711 330.077,150.777 C329.898999,150.843 329.745001,150.917 329.615,150.999 C329.484999,151.081 329.373,151.155 329.279,151.221 C329.185,151.287 329.092,151.32 329,151.32 C328.928,151.32 328.866,151.301 328.814,151.263 C328.762,151.225 328.718,151.178 328.682,151.122 L328.49,150.78 Z M335.568,150.804 C335.700001,150.655999 335.839999,150.522001 335.988,150.402 C336.136001,150.281999 336.292999,150.179 336.459,150.093 C336.625001,150.007 336.800999,149.941 336.987,149.895 C337.173001,149.849 337.373999,149.826 337.59,149.826 C337.922002,149.826 338.214999,149.880999 338.469,149.991 C338.723001,150.101001 338.934999,150.256999 339.105,150.459 C339.275001,150.661001 339.404,150.903999 339.492,151.188 C339.58,151.472001 339.624,151.785998 339.624,152.13 L339.624,156 L338.55,156 L338.55,152.13 C338.55,151.669998 338.445001,151.313001 338.235,151.059 C338.024999,150.804999 337.706002,150.678 337.278,150.678 C336.961998,150.678 336.667001,150.753999 336.393,150.906 C336.118999,151.058001 335.866001,151.263999 335.634,151.524 L335.634,156 L334.56,156 L334.56,149.922 L335.202,149.922 C335.354001,149.922 335.448,149.995999 335.484,150.144 L335.568,150.804 Z M345.436,151.002 C345.404,151.046 345.372,151.08 345.34,151.104 C345.308,151.128 345.264,151.14 345.208,151.14 C345.148,151.14 345.082,151.115 345.01,151.065 C344.938,151.015 344.849001,150.96 344.743,150.9 C344.636999,150.84 344.507001,150.785 344.353,150.735 C344.198999,150.685 344.010001,150.66 343.786,150.66 C343.485999,150.66 343.222001,150.712999 342.994,150.819 C342.765999,150.925001 342.575001,151.077999 342.421,151.278 C342.266999,151.478001 342.151,151.719999 342.073,152.004 C341.995,152.288001 341.956,152.605998 341.956,152.958 C341.956,153.326002 341.998,153.652999 342.082,153.939 C342.166,154.225001 342.284999,154.464999 342.439,154.659 C342.593001,154.853001 342.778999,155.000999 342.997,155.103 C343.215001,155.205001 343.459999,155.256 343.732,155.256 C343.992001,155.256 344.205999,155.225 344.374,155.163 C344.542001,155.101 344.680999,155.032 344.791,154.956 C344.901001,154.88 344.993,154.811 345.067,154.749 C345.141,154.687 345.214,154.656 345.286,154.656 C345.374,154.656 345.442,154.69 345.49,154.758 L345.79,155.148 C345.657999,155.312001 345.508001,155.451999 345.34,155.568 C345.171999,155.684001 344.991001,155.781 344.797,155.859 C344.602999,155.937 344.400001,155.994 344.188,156.03 C343.975999,156.066 343.760001,156.084 343.54,156.084 C343.159998,156.084 342.807002,156.014001 342.481,155.874 C342.154998,155.733999 341.872001,155.531001 341.632,155.265 C341.391999,154.998999 341.204001,154.672002 341.068,154.284 C340.931999,153.895998 340.864,153.454002 340.864,152.958 C340.864,152.505998 340.926999,152.088002 341.053,151.704 C341.179001,151.319998 341.362999,150.989001 341.605,150.711 C341.847001,150.432999 342.144998,150.216001 342.499,150.06 C342.853002,149.903999 343.259998,149.826 343.72,149.826 C344.148002,149.826 344.524998,149.894999 344.851,150.033 C345.177002,150.171001 345.465999,150.365999 345.718,150.618 L345.436,151.002 Z M350.846,152.298 C350.846,152.049999 350.811,151.823001 350.741,151.617 C350.671,151.410999 350.569001,151.233001 350.435,151.083 C350.300999,150.932999 350.138001,150.817 349.946,150.735 C349.753999,150.653 349.536001,150.612 349.292,150.612 C348.779997,150.612 348.375001,150.760999 348.077,151.059 C347.778999,151.357001 347.594,151.769997 347.522,152.298 L350.846,152.298 Z M351.71,155.148 C351.577999,155.308001 351.420001,155.446999 351.236,155.565 C351.051999,155.683001 350.855001,155.78 350.645,155.856 C350.434999,155.932 350.218001,155.989 349.994,156.027 C349.769999,156.065 349.548001,156.084 349.328,156.084 C348.907998,156.084 348.521002,156.013001 348.167,155.871 C347.812998,155.728999 347.507001,155.521001 347.249,155.247 C346.990999,154.972999 346.790001,154.634002 346.646,154.23 C346.501999,153.825998 346.43,153.362003 346.43,152.838 C346.43,152.413998 346.494999,152.018002 346.625,151.65 C346.755001,151.281998 346.941999,150.963001 347.186,150.693 C347.430001,150.422999 347.727998,150.211001 348.08,150.057 C348.432002,149.902999 348.827998,149.826 349.268,149.826 C349.632002,149.826 349.968998,149.886999 350.279,150.009 C350.589002,150.131001 350.856999,150.306999 351.083,150.537 C351.309001,150.767001 351.485999,151.050998 351.614,151.389 C351.742001,151.727002 351.806,152.111998 351.806,152.544 C351.806,152.712001 351.788,152.824 351.752,152.88 C351.716,152.936 351.648001,152.964 351.548,152.964 L347.486,152.964 C347.498,153.348002 347.551,153.681999 347.645,153.966 C347.739,154.250001 347.869999,154.486999 348.038,154.677 C348.206001,154.867001 348.405999,155.009 348.638,155.103 C348.870001,155.197 349.129999,155.244 349.418,155.244 C349.686001,155.244 349.916999,155.213 350.111,155.151 C350.305001,155.089 350.471999,155.022 350.612,154.95 C350.752001,154.878 350.869,154.811 350.963,154.749 C351.057,154.687 351.138,154.656 351.206,154.656 C351.294,154.656 351.362,154.69 351.41,154.758 L351.71,155.148 Z M354.168,147.162 L354.168,156 L353.1,156 L353.1,147.162 L354.168,147.162 Z" id="Cancel" fill="#000000" fill-rule="nonzero"></path>
        <path d="M404.586,151.704 C404.586,152.348003 404.484001,152.938997 404.28,153.477 C404.075999,154.015003 403.788002,154.477998 403.416,154.866 C403.043998,155.254002 402.597003,155.554999 402.075,155.769 C401.552997,155.983001 400.976003,156.09 400.344,156.09 C399.711997,156.09 399.136003,155.983001 398.616,155.769 C398.095997,155.554999 397.650002,155.254002 397.278,154.866 C396.905998,154.477998 396.618001,154.015003 396.414,153.477 C396.209999,152.938997 396.108,152.348003 396.108,151.704 C396.108,151.059997 396.209999,150.469003 396.414,149.931 C396.618001,149.392997 396.905998,148.929002 397.278,148.539 C397.650002,148.148998 398.095997,147.846001 398.616,147.63 C399.136003,147.413999 399.711997,147.306 400.344,147.306 C400.976003,147.306 401.552997,147.413999 402.075,147.63 C402.597003,147.846001 403.043998,148.148998 403.416,148.539 C403.788002,148.929002 404.075999,149.392997 404.28,149.931 C404.484001,150.469003 404.586,151.059997 404.586,151.704 Z M403.392,151.704 C403.392,151.175997 403.320001,150.702002 403.176,150.282 C403.031999,149.861998 402.828001,149.507001 402.564,149.217 C402.299999,148.926999 401.980002,148.704001 401.604,148.548 C401.227998,148.391999 400.808002,148.314 400.344,148.314 C399.883998,148.314 399.466002,148.391999 399.09,148.548 C398.713998,148.704001 398.393001,148.926999 398.127,149.217 C397.860999,149.507001 397.656001,149.861998 397.512,150.282 C397.367999,150.702002 397.296,151.175997 397.296,151.704 C397.296,152.232003 397.367999,152.704998 397.512,153.123 C397.656001,153.541002 397.860999,153.894999 398.127,154.185 C398.393001,154.475001 398.713998,154.696999 399.09,154.851 C399.466002,155.005001 399.883998,155.082 400.344,155.082 C400.808002,155.082 401.227998,155.005001 401.604,154.851 C401.980002,154.696999 402.299999,154.475001 402.564,154.185 C402.828001,153.894999 403.031999,153.541002 403.176,153.123 C403.320001,152.704998 403.392,152.232003 403.392,151.704 Z M407.356,151.17 L407.794,151.17 C407.946001,151.17 408.068,151.151 408.16,151.113 C408.252,151.075 408.336,151.01 408.412,150.918 L411.274,147.678 C411.354,147.573999 411.438,147.502 411.526,147.462 C411.614,147.422 411.721999,147.402 411.85,147.402 L412.834,147.402 L409.558,151.104 C409.478,151.2 409.401,151.279 409.327,151.341 C409.253,151.403 409.174,151.454 409.09,151.494 C409.198001,151.53 409.296,151.583 409.384,151.653 C409.472,151.723 409.558,151.813999 409.642,151.926 L413.062,156 L412.054,156 C411.978,156 411.913,155.995 411.859,155.985 C411.805,155.975 411.758,155.959 411.718,155.937 C411.678,155.915 411.643,155.889 411.613,155.859 C411.583,155.829 411.554,155.794 411.526,155.754 L408.562,152.34 C408.482,152.24 408.396,152.169 408.304,152.127 C408.212,152.085 408.072001,152.064 407.884,152.064 L407.356,152.064 L407.356,156 L406.198,156 L406.198,147.402 L407.356,147.402 L407.356,151.17 Z" id="OK" fill="#000000" fill-rule="nonzero"></path>
        <path d="M194.412,13.537 C194.37,13.6070003 194.3245,13.6594998 194.2755,13.6945 C194.2265,13.7295002 194.167,13.747 194.097,13.747 C194.017666,13.747 193.924334,13.7073337 193.817,13.628 C193.709666,13.5486663 193.575501,13.4611671 193.4145,13.3655 C193.253499,13.2698329 193.059834,13.1823337 192.8335,13.103 C192.607166,13.0236663 192.333002,12.984 192.011,12.984 C191.707665,12.984 191.440501,13.0248329 191.2095,13.1065 C190.978499,13.1881671 190.784834,13.2989993 190.6285,13.439 C190.472166,13.5790007 190.354334,13.7434991 190.275,13.9325 C190.195666,14.1215009 190.156,14.3256656 190.156,14.545 C190.156,14.8250014 190.224833,15.0571657 190.3625,15.2415 C190.500167,15.4258343 190.682166,15.5833327 190.9085,15.714 C191.134834,15.8446673 191.391499,15.9578329 191.6785,16.0535 C191.965501,16.1491671 192.259498,16.2483328 192.5605,16.351 C192.861502,16.4536672 193.155499,16.569166 193.4425,16.6975 C193.729501,16.825834 193.986166,16.987999 194.2125,17.184 C194.438834,17.380001 194.620833,17.6203319 194.7585,17.905 C194.896167,18.1896681 194.965,18.5396646 194.965,18.955 C194.965,19.3936689 194.890334,19.8054981 194.741,20.1905 C194.591666,20.5755019 194.373501,20.9103319 194.0865,21.195 C193.799499,21.4796681 193.447169,21.7036659 193.0295,21.867 C192.611831,22.0303342 192.137003,22.112 191.605,22.112 C190.951663,22.112 190.359003,21.9941678 189.827,21.7585 C189.294997,21.5228322 188.840002,21.2043353 188.462,20.803 L188.854,20.159 C188.891334,20.1076664 188.936833,20.0645002 188.9905,20.0295 C189.044167,19.9944998 189.103666,19.977 189.169,19.977 C189.229667,19.977 189.2985,20.0014998 189.3755,20.0505 C189.4525,20.0995002 189.54,20.161333 189.638,20.236 C189.736,20.310667 189.847999,20.3923329 189.974,20.481 C190.100001,20.5696671 190.243499,20.651333 190.4045,20.726 C190.565501,20.800667 190.748666,20.8624998 190.954,20.9115 C191.159334,20.9605002 191.390332,20.985 191.647,20.985 C191.969002,20.985 192.255999,20.9406671 192.508,20.852 C192.760001,20.7633329 192.973499,20.6385008 193.1485,20.4775 C193.323501,20.3164992 193.457666,20.1240011 193.551,19.9 C193.644334,19.6759989 193.691,19.4263347 193.691,19.151 C193.691,18.8476651 193.622167,18.5991676 193.4845,18.4055 C193.346833,18.2118324 193.166001,18.0496673 192.942,17.919 C192.717999,17.7883327 192.461335,17.6775005 192.172,17.5865 C191.882665,17.4954995 191.588668,17.4021671 191.29,17.3065 C190.991332,17.2108329 190.697335,17.1000006 190.408,16.974 C190.118665,16.8479994 189.862001,16.6846677 189.638,16.484 C189.413999,16.2833323 189.233167,16.0325015 189.0955,15.7315 C188.957833,15.4304985 188.889,15.0583356 188.889,14.615 C188.889,14.2603316 188.957833,13.917335 189.0955,13.586 C189.233167,13.254665 189.433832,12.960668 189.6975,12.704 C189.961168,12.447332 190.285498,12.2420008 190.6705,12.088 C191.055502,11.9339992 191.497664,11.857 191.997,11.857 C192.557003,11.857 193.066831,11.9456658 193.5265,12.123 C193.986169,12.3003342 194.390998,12.5569983 194.741,12.893 L194.412,13.537 Z M198.784,22.112 C198.223997,22.112 197.793502,21.9556682 197.4925,21.643 C197.191498,21.3303318 197.041,20.8800029 197.041,20.292 L197.041,15.952 L196.187,15.952 C196.112333,15.952 196.049334,15.9298336 195.998,15.8855 C195.946666,15.8411664 195.921,15.7723338 195.921,15.679 L195.921,15.182 L197.083,15.035 L197.37,12.844 C197.384,12.7739996 197.4155,12.7168336 197.4645,12.6725 C197.5135,12.6281664 197.577666,12.606 197.657,12.606 L198.287,12.606 L198.287,15.049 L200.338,15.049 L200.338,15.952 L198.287,15.952 L198.287,20.208 C198.287,20.5066682 198.359333,20.7283326 198.504,20.873 C198.648667,21.0176674 198.835332,21.09 199.064,21.09 C199.194667,21.09 199.307833,21.0725002 199.4035,21.0375 C199.499167,21.0024998 199.582,20.9640002 199.652,20.922 C199.722,20.8799998 199.7815,20.8415002 199.8305,20.8065 C199.8795,20.7714998 199.922666,20.754 199.96,20.754 C200.025334,20.754 200.083666,20.7936663 200.135,20.873 L200.499,21.468 C200.284332,21.6686677 200.025335,21.8261661 199.722,21.9405 C199.418665,22.0548339 199.106002,22.112 198.784,22.112 Z M204.92,14.797 C205.438003,14.797 205.904665,14.8833325 206.32,15.056 C206.735335,15.2286675 207.089999,15.4736651 207.384,15.791 C207.678001,16.1083349 207.903166,16.4921644 208.0595,16.9425 C208.215834,17.3928356 208.294,17.8956639 208.294,18.451 C208.294,19.0110028 208.215834,19.5149978 208.0595,19.963 C207.903166,20.4110022 207.678001,20.7936651 207.384,21.111 C207.089999,21.4283349 206.735335,21.6721658 206.32,21.8425 C205.904665,22.0128342 205.438003,22.098 204.92,22.098 C204.397331,22.098 203.927169,22.0128342 203.5095,21.8425 C203.091831,21.6721658 202.736001,21.4283349 202.442,21.111 C202.147999,20.7936651 201.922834,20.4110022 201.7665,19.963 C201.610166,19.5149978 201.532,19.0110028 201.532,18.451 C201.532,17.8956639 201.610166,17.3928356 201.7665,16.9425 C201.922834,16.4921644 202.147999,16.1083349 202.442,15.791 C202.736001,15.4736651 203.091831,15.2286675 203.5095,15.056 C203.927169,14.8833325 204.397331,14.797 204.92,14.797 Z M204.92,21.125 C205.620004,21.125 206.142665,20.8905023 206.488,20.4215 C206.833335,19.9524977 207.006,19.2980042 207.006,18.458 C207.006,17.6133291 206.833335,16.9553357 206.488,16.484 C206.142665,16.0126643 205.620004,15.777 204.92,15.777 C204.565332,15.777 204.256168,15.8376661 203.9925,15.959 C203.728832,16.0803339 203.509501,16.2553322 203.3345,16.484 C203.159499,16.7126678 203.028834,16.9938317 202.9425,17.3275 C202.856166,17.6611683 202.813,18.0379979 202.813,18.458 C202.813,19.2980042 202.986832,19.9524977 203.3345,20.4215 C203.682168,20.8905023 204.210663,21.125 204.92,21.125 Z M211.392,16.33 C211.616001,15.8446642 211.891332,15.4655014 212.218,15.1925 C212.544668,14.9194986 212.943664,14.783 213.415,14.783 C213.564334,14.783 213.707833,14.7993332 213.8455,14.832 C213.983167,14.8646668 214.105666,14.9159996 214.213,14.986 L214.122,15.917 C214.094,16.0336673 214.024001,16.092 213.912,16.092 C213.846666,16.092 213.751001,16.0780001 213.625,16.05 C213.498999,16.0219999 213.356667,16.008 213.198,16.008 C212.973999,16.008 212.774501,16.0406663 212.5995,16.106 C212.424499,16.1713337 212.268167,16.268166 212.1305,16.3965 C211.992833,16.524834 211.869167,16.6834991 211.7595,16.8725 C211.649833,17.0615009 211.550667,17.2773321 211.462,17.52 L211.462,22 L210.209,22 L210.209,14.909 L210.923,14.909 C211.058334,14.909 211.151666,14.9346664 211.203,14.986 C211.254334,15.0373336 211.289333,15.1259994 211.308,15.252 L211.392,16.33 Z M220.104,17.681 C220.104,17.3916652 220.063167,17.1268345 219.9815,16.8865 C219.899833,16.6461655 219.780834,16.4385009 219.6245,16.2635 C219.468166,16.0884991 219.278001,15.9531671 219.054,15.8575 C218.829999,15.7618329 218.575668,15.714 218.291,15.714 C217.693664,15.714 217.221168,15.8878316 216.8735,16.2355 C216.525832,16.5831684 216.31,17.0649969 216.226,17.681 L220.104,17.681 Z M221.112,21.006 C220.957999,21.1926676 220.773668,21.3548326 220.559,21.4925 C220.344332,21.6301674 220.114501,21.7433329 219.8695,21.832 C219.624499,21.9206671 219.371335,21.9871664 219.11,22.0315 C218.848665,22.0758336 218.589668,22.098 218.333,22.098 C217.842998,22.098 217.391502,22.0151675 216.9785,21.8495 C216.565498,21.6838325 216.208502,21.4411683 215.9075,21.1215 C215.606499,20.8018317 215.372001,20.4063357 215.204,19.935 C215.035999,19.4636643 214.952,18.9223364 214.952,18.311 C214.952,17.8163309 215.027833,17.3543355 215.1795,16.925 C215.331167,16.4956645 215.549332,16.1235016 215.834,15.8085 C216.118668,15.4934984 216.466331,15.2461676 216.877,15.0665 C217.287669,14.8868324 217.749664,14.797 218.263,14.797 C218.687669,14.797 219.080832,14.868166 219.4425,15.0105 C219.804168,15.152834 220.116832,15.3581653 220.3805,15.6265 C220.644168,15.8948347 220.850666,16.2261647 221,16.6205 C221.149334,17.0148353 221.224,17.4639975 221.224,17.968 C221.224,18.164001 221.203,18.2946663 221.161,18.36 C221.119,18.4253337 221.039667,18.458 220.923,18.458 L216.184,18.458 C216.198,18.9060022 216.259833,19.295665 216.3695,19.627 C216.479167,19.958335 216.631999,20.2348322 216.828,20.4565 C217.024001,20.6781678 217.257332,20.8438328 217.528,20.9535 C217.798668,21.0631672 218.101998,21.118 218.438,21.118 C218.750668,21.118 219.020166,21.0818337 219.2465,21.0095 C219.472834,20.9371663 219.667666,20.8590004 219.831,20.775 C219.994334,20.6909996 220.130833,20.6128337 220.2405,20.5405 C220.350167,20.4681663 220.444666,20.432 220.524,20.432 C220.626667,20.432 220.706,20.4716663 220.762,20.551 L221.112,21.006 Z M230.269,17.17 C230.656335,17.17 230.998165,17.1186672 231.2945,17.016 C231.590835,16.9133328 231.840499,16.7698343 232.0435,16.5855 C232.246501,16.4011657 232.399333,16.180668 232.502,15.924 C232.604667,15.667332 232.656,15.3850015 232.656,15.077 C232.656,14.4376635 232.458835,13.9383351 232.0645,13.579 C231.670165,13.2196649 231.071671,13.04 230.269,13.04 L228.659,13.04 L228.659,17.17 L230.269,17.17 Z M230.269,11.969 C230.90367,11.969 231.455498,12.0424993 231.9245,12.1895 C232.393502,12.3365007 232.781998,12.545332 233.09,12.816 C233.398002,13.086668 233.627833,13.4133314 233.7795,13.796 C233.931167,14.1786686 234.007,14.6056643 234.007,15.077 C234.007,15.543669 233.925334,15.9706647 233.762,16.358 C233.598666,16.7453353 233.359502,17.0789986 233.0445,17.359 C232.729498,17.6390014 232.339836,17.8571659 231.8755,18.0135 C231.411164,18.1698341 230.87567,18.248 230.269,18.248 L228.659,18.248 L228.659,22 L227.308,22 L227.308,11.969 L230.269,11.969 Z M239.38,18.808 C238.805997,18.8266668 238.317169,18.8721663 237.9135,18.9445 C237.509831,19.0168337 237.180835,19.1113327 236.9265,19.228 C236.672165,19.3446673 236.487834,19.4823325 236.3735,19.641 C236.259166,19.7996675 236.202,19.976999 236.202,20.173 C236.202,20.3596676 236.232333,20.520666 236.293,20.656 C236.353667,20.791334 236.4365,20.9021662 236.5415,20.9885 C236.646501,21.0748338 236.770166,21.1378331 236.9125,21.1775 C237.054834,21.2171669 237.207666,21.237 237.371,21.237 C237.590334,21.237 237.790999,21.2148336 237.973,21.1705 C238.155001,21.1261664 238.326499,21.0620004 238.4875,20.978 C238.648501,20.8939996 238.802499,20.7936673 238.9495,20.677 C239.096501,20.5603328 239.239999,20.4273341 239.38,20.278 L239.38,18.808 Z M235.355,15.91 C235.747002,15.5319981 236.169331,15.2496676 236.622,15.063 C237.074669,14.8763324 237.576331,14.783 238.127,14.783 C238.523669,14.783 238.875998,14.8483327 239.184,14.979 C239.492002,15.1096673 239.750999,15.2916655 239.961,15.525 C240.171001,15.7583345 240.329666,16.040665 240.437,16.372 C240.544334,16.703335 240.598,17.0673313 240.598,17.464 L240.598,22 L240.045,22 C239.923666,22 239.830334,21.9801669 239.765,21.9405 C239.699666,21.9008331 239.648334,21.8226673 239.611,21.706 L239.471,21.034 C239.284332,21.2066675 239.102334,21.3594993 238.925,21.4925 C238.747666,21.6255007 238.561001,21.7374995 238.365,21.8285 C238.168999,21.9195005 237.960168,21.9894998 237.7385,22.0385 C237.516832,22.0875002 237.270668,22.112 237,22.112 C236.724665,22.112 236.465668,22.0735004 236.223,21.9965 C235.980332,21.9194996 235.769168,21.8040008 235.5895,21.65 C235.409832,21.4959992 235.267501,21.3011678 235.1625,21.0655 C235.0575,20.8298322 235.005,20.5510016 235.005,20.229 C235.005,19.9489986 235.081999,19.6795013 235.236,19.4205 C235.390001,19.1614987 235.639665,18.9316677 235.985,18.731 C236.330335,18.5303323 236.780664,18.365834 237.336,18.2375 C237.891336,18.109166 238.572663,18.0356668 239.38,18.017 L239.38,17.464 C239.38,16.9133306 239.261001,16.4968347 239.023,16.2145 C238.784999,15.9321653 238.437336,15.791 237.98,15.791 C237.671998,15.791 237.414168,15.8294996 237.2065,15.9065 C236.998832,15.9835004 236.819167,16.0698329 236.6675,16.1655 C236.515833,16.2611671 236.385167,16.3474996 236.2755,16.4245 C236.165833,16.5015004 236.057334,16.54 235.95,16.54 C235.866,16.54 235.793667,16.5178336 235.733,16.4735 C235.672333,16.4291664 235.621,16.3743337 235.579,16.309 L235.355,15.91 Z M244.921,22.112 C244.360997,22.112 243.930502,21.9556682 243.6295,21.643 C243.328499,21.3303318 243.178,20.8800029 243.178,20.292 L243.178,15.952 L242.324,15.952 C242.249333,15.952 242.186334,15.9298336 242.135,15.8855 C242.083666,15.8411664 242.058,15.7723338 242.058,15.679 L242.058,15.182 L243.22,15.035 L243.507,12.844 C243.521,12.7739996 243.5525,12.7168336 243.6015,12.6725 C243.6505,12.6281664 243.714666,12.606 243.794,12.606 L244.424,12.606 L244.424,15.049 L246.475,15.049 L246.475,15.952 L244.424,15.952 L244.424,20.208 C244.424,20.5066682 244.496333,20.7283326 244.641,20.873 C244.785667,21.0176674 244.972332,21.09 245.201,21.09 C245.331667,21.09 245.444833,21.0725002 245.5405,21.0375 C245.636167,21.0024998 245.719,20.9640002 245.789,20.922 C245.859,20.8799998 245.9185,20.8415002 245.9675,20.8065 C246.0165,20.7714998 246.059667,20.754 246.097,20.754 C246.162334,20.754 246.220666,20.7936663 246.272,20.873 L246.636,21.468 C246.421332,21.6686677 246.162335,21.8261661 245.859,21.9405 C245.555665,22.0548339 245.243002,22.112 244.921,22.112 Z M253.003,16.169 C252.965667,16.2203336 252.928334,16.2599999 252.891,16.288 C252.853667,16.3160001 252.802334,16.33 252.737,16.33 C252.667,16.33 252.59,16.3008336 252.506,16.2425 C252.422,16.1841664 252.318167,16.1200004 252.1945,16.05 C252.070833,15.9799996 251.919168,15.9158336 251.7395,15.8575 C251.559832,15.7991664 251.339335,15.77 251.078,15.77 C250.727998,15.77 250.420001,15.8318327 250.154,15.9555 C249.887999,16.0791673 249.665168,16.2576655 249.4855,16.491 C249.305832,16.7243345 249.1705,17.006665 249.0795,17.338 C248.9885,17.669335 248.943,18.0403313 248.943,18.451 C248.943,18.8803355 248.992,19.2618317 249.09,19.5955 C249.188001,19.9291683 249.326832,20.2091655 249.5065,20.4355 C249.686168,20.6618345 249.903165,20.8344994 250.1575,20.9535 C250.411835,21.0725006 250.697665,21.132 251.015,21.132 C251.318335,21.132 251.567999,21.0958337 251.764,21.0235 C251.960001,20.9511663 252.122166,20.8706671 252.2505,20.782 C252.378834,20.6933329 252.486166,20.6128337 252.5725,20.5405 C252.658834,20.4681663 252.744,20.432 252.828,20.432 C252.930667,20.432 253.01,20.4716663 253.066,20.551 L253.416,21.006 C253.261999,21.1973343 253.087001,21.360666 252.891,21.496 C252.694999,21.631334 252.483834,21.7444995 252.2575,21.8355 C252.031166,21.9265005 251.794335,21.9929998 251.547,22.035 C251.299665,22.0770002 251.047668,22.098 250.791,22.098 C250.347664,22.098 249.935835,22.0163341 249.5555,21.853 C249.175165,21.6896659 248.845001,21.4528349 248.565,21.1425 C248.284999,20.8321651 248.065667,20.4506689 247.907,19.998 C247.748333,19.5453311 247.669,19.0296696 247.669,18.451 C247.669,17.923664 247.742499,17.4360022 247.8895,16.988 C248.036501,16.5399978 248.251165,16.153835 248.5335,15.8295 C248.815835,15.505165 249.163498,15.2520009 249.5765,15.07 C249.989502,14.8879991 250.464331,14.797 251.001,14.797 C251.500336,14.797 251.940165,14.8774992 252.3205,15.0385 C252.700835,15.1995008 253.037999,15.4269985 253.332,15.721 L253.003,16.169 Z M256.346,15.854 C256.649335,15.5319984 256.985332,15.2753343 257.354,15.084 C257.722669,14.8926657 258.147331,14.797 258.628,14.797 C259.015335,14.797 259.357165,14.861166 259.6535,14.9895 C259.949835,15.117834 260.197166,15.2998322 260.3955,15.5355 C260.593834,15.7711678 260.744333,16.054665 260.847,16.386 C260.949667,16.717335 261.001,17.0836647 261.001,17.485 L261.001,22 L259.748,22 L259.748,17.485 C259.748,16.9483307 259.625501,16.5318348 259.3805,16.2355 C259.135499,15.9391652 258.763336,15.791 258.264,15.791 C257.895332,15.791 257.551168,15.8796658 257.2315,16.057 C256.911832,16.2343342 256.616668,16.4746651 256.346,16.778 L256.346,22 L255.093,22 L255.093,11.689 L256.346,11.689 L256.346,15.854 Z" id="StorePatch" fill="#000000" fill-rule="nonzero"></path>
    </g>
</svg>