<?xml version="1.0" encoding="UTF-8"?>
<svg width="56px" height="48px" viewBox="0 0 56 48" version="1.1" xmlns="http://www.w3.org/2000/svg" xmlns:xlink="http://www.w3.org/1999/xlink">
    <defs>
        <linearGradient x1="49.9993125%" y1="0%" x2="49.9993125%" y2="100%" id="linearGradient-1">
            <stop stop-color="#D4D4D4" offset="0%"></stop>
            <stop stop-color="#A5A5A5" offset="28.7558066%"></stop>
            <stop stop-color="#A6A6A6" offset="72.9914485%"></stop>
            <stop stop-color="#5F5F5F" offset="100%"></stop>
        </linearGradient>
        <linearGradient x1="49.9993125%" y1="3.02513626%" x2="49.9993125%" y2="100%" id="linearGradient-2">
            <stop stop-color="#D0D8F1" offset="0%"></stop>
            <stop stop-color="#8E9FCE" offset="18.75%"></stop>
            <stop stop-color="#8D9ECD" offset="77.8296839%"></stop>
            <stop stop-color="#545E7D" offset="100%"></stop>
        </linearGradient>
    </defs>
    <g id="bmp00153" stroke="none" stroke-width="1" fill="none" fill-rule="evenodd">
        <rect id="Rectangle" fill-opacity="0.1" fill="#000000" x="3" y="3" width="19" height="14" rx="5"></rect>
        <rect id="Rectangle" fill-opacity="0.1" fill="#000000" x="31" y="3" width="19" height="14" rx="5"></rect>
        <rect id="Rectangle" fill-opacity="0.1" fill="#000000" x="3" y="27" width="19" height="14" rx="5"></rect>
        <rect id="Rectangle" fill-opacity="0.1" fill="#000000" x="31" y="27" width="19" height="14" rx="5"></rect>
        <rect id="Rectangle" fill="url(#linearGradient-1)" x="2" y="2" width="19" height="14" rx="5"></rect>
        <rect id="Rectangle" fill="url(#linearGradient-1)" x="2" y="26" width="19" height="14" rx="5"></rect>
        <rect id="Rectangle" fill="url(#linearGradient-2)" x="30" y="2" width="19" height="14" rx="5"></rect>
        <rect id="Rectangle" fill="url(#linearGradient-2)" x="30" y="26" width="19" height="14" rx="5"></rect>
        <rect id="Rectangle" fill-opacity="0.1" fill="#FFFFFF" x="10" y="5" width="1" height="8"></rect>
        <path d="M19,5 C13.0130615,5 9.35292562,5 8.01959229,5 C6.01959229,5 5.01959229,7 5.01959229,8 C5.01959229,8.66666667 5.01959229,10.6666667 5.01959229,14" id="Path-12" stroke-opacity="0.05" stroke="#000000" stroke-width="2" transform="translate(12.009796, 9.500000) rotate(-180.000000) translate(-12.009796, -9.500000) "></path>
        <path d="M17.9908447,4 C12.2299398,4 8.56632487,4 7,4 C4.6505127,4 4,5.37121582 4,7 C4,8 4,11.9437866 4,13" id="Path-12" stroke-opacity="0.15" stroke="#FFFFFF" stroke-width="2"></path>
        <rect id="Rectangle" fill="#5D6266" x="11" y="4" width="1" height="10"></rect>
        <rect id="Rectangle" fill-opacity="0.1" fill="#FFFFFF" x="10" y="29" width="1" height="8"></rect>
        <path d="M19,29 C13.0130615,29 9.35292562,29 8.01959229,29 C6.01959229,29 5.01959229,31 5.01959229,32 C5.01959229,32.6666667 5.01959229,34.6666667 5.01959229,38" id="Path-12" stroke-opacity="0.05" stroke="#000000" stroke-width="2" transform="translate(12.009796, 33.500000) rotate(-180.000000) translate(-12.009796, -33.500000) "></path>
        <path d="M17.9908447,28 C12.2299398,28 8.56632487,28 7,28 C4.6505127,28 4,29.3712158 4,31 C4,32 4,35.9437866 4,37" id="Path-12" stroke-opacity="0.15" stroke="#FFFFFF" stroke-width="2"></path>
        <rect id="Rectangle" fill="#5D6266" x="11" y="28" width="1" height="10"></rect>
        <rect id="Rectangle" fill-opacity="0.1" fill="#FFFFFF" x="38" y="5" width="1" height="8"></rect>
        <path d="M47,5 C41.0130615,5 37.3529256,5 36.0195923,5 C34.0195923,5 33.0195923,7 33.0195923,8 C33.0195923,8.66666667 33.0195923,10.6666667 33.0195923,14" id="Path-12" stroke-opacity="0.05" stroke="#000000" stroke-width="2" transform="translate(40.009796, 9.500000) rotate(-180.000000) translate(-40.009796, -9.500000) "></path>
        <path d="M45.9908447,4 C40.2299398,4 36.5663249,4 35,4 C32.6505127,4 32,5.37121582 32,7 C32,8 32,11.9437866 32,13" id="Path-12" stroke-opacity="0.15" stroke="#FFFFFF" stroke-width="2"></path>
        <rect id="Rectangle" fill-opacity="0.1" fill="#FFFFFF" x="38" y="29" width="1" height="8"></rect>
        <path d="M47,29 C41.0130615,29 37.3529256,29 36.0195923,29 C34.0195923,29 33.0195923,31 33.0195923,32 C33.0195923,32.6666667 33.0195923,34.6666667 33.0195923,38" id="Path-12" stroke-opacity="0.05" stroke="#000000" stroke-width="2" transform="translate(40.009796, 33.500000) rotate(-180.000000) translate(-40.009796, -33.500000) "></path>
        <path d="M45.9908447,28 C40.2299398,28 36.5663249,28 35,28 C32.6505127,28 32,29.3712158 32,31 C32,32 32,35.9437866 32,37" id="Path-12" stroke-opacity="0.15" stroke="#FFFFFF" stroke-width="2"></path>
        <rect id="Rectangle" stroke="#262626" x="2.5" y="2.5" width="18" height="13" rx="5"></rect>
        <rect id="Rectangle" stroke="#262626" x="30.5" y="2.5" width="18" height="13" rx="5"></rect>
        <rect id="Rectangle" stroke="#262626" x="2.5" y="26.5" width="18" height="13" rx="5"></rect>
        <rect id="Rectangle" stroke="#262626" x="30.5" y="26.5" width="18" height="13" rx="5"></rect>
        <rect id="Rectangle" fill="#394F8A" x="39" y="28" width="1" height="10"></rect>
        <rect id="Rectangle" fill="#394F8A" x="39" y="4" width="1" height="10"></rect>
    </g>
</svg>