<?xml version="1.0" encoding="UTF-8"?>
<svg width="37px" height="24px" viewBox="0 0 37 24" version="1.1" xmlns="http://www.w3.org/2000/svg" xmlns:xlink="http://www.w3.org/1999/xlink">
    <g id="bmp00149" stroke="none" stroke-width="1" fill="none" fill-rule="evenodd">
        <rect id="Rectangle" stroke="#979797" fill="#E3E3E3" x="0.5" y="12.5" width="36" height="11" rx="5"></rect>
        <rect id="Rectangle" fill="#000000" x="7" y="17" width="6" height="2"></rect>
        <rect id="Rectangle" fill="#A1A4B7" x="18" y="15" width="1" height="6"></rect>
        <polygon id="Path" fill="#000000" points="28 17 30 17 30 19 28 19 28 21 26 21 26 19 24 19 24 17 26 17 26 15 28 15"></polygon>
        <rect id="Rectangle" stroke="#979797" fill="#E3E3E3" x="0.5" y="0.5" width="36" height="11" rx="5"></rect>
        <rect id="Rectangle" fill="#000000" x="7" y="5" width="6" height="2"></rect>
        <rect id="Rectangle" fill="#A1A4B7" x="18" y="3" width="1" height="6"></rect>
        <polygon id="Path" fill="#000000" points="28 5 30 5 30 7 28 7 28 9 26 9 26 7 24 7 24 5 26 5 26 3 28 3"></polygon>
    </g>
</svg>