<?xml version="1.0" encoding="UTF-8"?>
<svg width="134px" height="208px" version="1.1" viewBox="0 0 134 208" xmlns="http://www.w3.org/2000/svg" xmlns:cc="http://creativecommons.org/ns#" xmlns:dc="http://purl.org/dc/elements/1.1/" xmlns:rdf="http://www.w3.org/1999/02/22-rdf-syntax-ns#">
 <metadata>
  <rdf:RDF>
   <cc:Work rdf:about="">
    <dc:format>image/svg+xml</dc:format>
    <dc:type rdf:resource="http://purl.org/dc/dcmitype/StillImage"/>
    <dc:title>bmp00151</dc:title>
   </cc:Work>
  </rdf:RDF>
 </metadata>
 <title>bmp00151</title>
 <desc>Created with Sketch.</desc>
 <g fill="none" fill-rule="evenodd">
  <g id="Stacked-Group" transform="translate(10 10)">
   <g transform="translate(1 21)">
    <g transform="translate(32)"></g>
   </g>
   <g id="Group" transform="translate(4)"></g>
  </g>
  <g transform="translate(1 6)">
   <rect id="Rectangle" y="39" width="32" height="7" fill="#FF9915"/>
   <g fill="#2F1C04">
    <rect x="33" y="39" width="32" height="7"/>
    <rect x="66" y="39" width="32" height="7"/>
    <rect x="99" y="39" width="32" height="7"/>
   </g>
   <path d="m1-2v3h119v8h7v2l4-2.5-4-2.5v2h-6v-10h-1z" fill="#ff9915"/>
   <g stroke="#ff9915">
    <rect x="9.5" y="20.5" width="12" height="10"/>
    <rect x="99.5" y="20.5" width="12" height="10" opacity=".5"/>
    <rect x="69.5" y="20.5" width="12" height="10"/>
    <rect x="39.5" y="20.5" width="12" height="10"/>
   </g>
   <g transform="translate(26 11)" opacity=".4997">
    <circle id="Oval" cx="4.5" cy="2.5" r="4" stroke="#ff9e4c"/>
    <g fill="#fff">
     <path id="Combined-Shape" d="M 3,2.5 1.5,1 3,-0.5 4.5,1 6,-0.5 7.5,1 6,2.5 7.5,4 6,5.5 4.5,4 3,5.5 1.5,4 Z"/>
     <path d="M 33,2.5 31.5,1 33,-0.5 34.5,1 36,-0.5 37.5,1 36,2.5 37.5,4 36,5.5 34.5,4 33,5.5 31.5,4 Z"/>
     <path d="M 3,54.5 1.5,53 3,51.5 4.5,53 6,51.5 7.5,53 6,54.5 7.5,56 6,57.5 4.5,56 3,57.5 1.5,56 Z"/>
     <path d="m33 54.5-1.5-1.5 1.5-1.5 1.5 1.5 1.5-1.5 1.5 1.5-1.5 1.5 1.5 1.5-1.5 1.5-1.5-1.5-1.5 1.5-1.5-1.5z"/>
     <path d="m3 106.5-1.5-1.5 1.5-1.5 1.5 1.5 1.5-1.5 1.5 1.5-1.5 1.5 1.5 1.5-1.5 1.5-1.5-1.5-1.5 1.5-1.5-1.5z"/>
     <path d="m33 106.5-1.5-1.5 1.5-1.5 1.5 1.5 1.5-1.5 1.5 1.5-1.5 1.5 1.5 1.5-1.5 1.5-1.5-1.5-1.5 1.5-1.5-1.5z"/>
     <path d="m3 158.5-1.5-1.5 1.5-1.5 1.5 1.5 1.5-1.5 1.5 1.5-1.5 1.5 1.5 1.5-1.5 1.5-1.5-1.5-1.5 1.5-1.5-1.5z"/>
     <path d="m33 158.5-1.5-1.5 1.5-1.5 1.5 1.5 1.5-1.5 1.5 1.5-1.5 1.5 1.5 1.5-1.5 1.5-1.5-1.5-1.5 1.5-1.5-1.5z"/>
    </g>
   </g>
   <circle cx="60.5" cy="13.5" r="4" opacity=".49912" stroke="#ff9e4c"/>
   <g transform="translate(0 156)">
    <g fill="#2F1C04">
     <rect y="39" width="32" height="7"/>
     <rect x="33" y="39" width="32" height="7"/>
     <rect x="66" y="39" width="32" height="7"/>
    </g>
    <rect x="99" y="39" width="32" height="7" fill="#FF9915"/>
    <path d="m1-2v3h119v8h7v2l4-2.5-4-2.5v2h-6v-10h-1z" fill="#ff9915"/>
    <g stroke="#ff9915">
     <rect x="9.5" y="20.5" width="12" height="10"/>
     <rect x="99.5" y="20.5" width="12" height="10" opacity=".5"/>
     <rect x="69.5" y="20.5" width="12" height="10"/>
     <rect x="39.5" y="20.5" width="12" height="10"/>
    </g>
   </g>
   <g transform="translate(0,104)">
    <rect y="39" width="32" height="7" fill="#2f1c04"/>
    <rect x="33" y="39" width="32" height="7" fill="#2f1c04"/>
    <rect x="66" y="39" width="32" height="7" fill="#ff9915"/>
    <rect x="99" y="39" width="32" height="7" fill="#2f1c04"/>
    <path d="m1-2v3h119v8h7v2l4-2.5-4-2.5v2h-6v-10h-1z" fill="#ff9915"/>
    <g transform="translate(13,4)">
     <circle cx="17.5" cy="9.5" r="4" opacity=".5" stroke="#ff9e4c"/>
     <circle cx="47.5" cy="9.5" r="4" opacity=".49912" stroke="#ff9e4c"/>
     <g fill="#ff9915">
      <path d="m2 2h-2l2.5-4 2.5 4h-2v15h-1z"/>
      <path d="m32 2h-2l2.5-4 2.5 4h-2v15h-1z"/>
      <path d="m17 2h-2l2.5-4 2.5 4h-2v2h-1z" opacity=".5"/>
      <path d="m47 2h-2l2.5-4 2.5 4h-2v2h-1z" opacity=".5"/>
      <path d="m9 9v-2l4 2.5-4 2.5v-2h-6v-1z" opacity=".5"/>
      <path d="m26 10v2l-4-2.5 4-2.5v2h6v1z" opacity=".5"/>
      <path d="m39 9v-2l4 2.5-4 2.5v-2h-6v-1z" opacity=".5"/>
      <path d="m56 10v2l-4-2.5 4-2.5v2h6v1z" opacity=".5"/>
      <path d="m62 2h-2l2.5-4 2.5 4h-2v15h-1z"/>
      <path d="m92 2h-2l2.5-4 2.5 4h-2v14h-1z"/>
     </g>
    </g>
    <g stroke="#ff9915">
     <rect x="9.5" y="20.5" width="12" height="10"/>
     <rect x="99.5" y="20.5" width="12" height="10" opacity=".5"/>
     <rect x="69.5" y="20.5" width="12" height="10"/>
     <rect x="39.5" y="20.5" width="12" height="10"/>
    </g>
   </g>
   <g transform="translate(0 52)">
    <rect y="39" width="32" height="7" fill="#2F1C04"/>
    <rect x="33" y="39" width="32" height="7" fill="#FF9915"/>
    <rect x="66" y="39" width="32" height="7" fill="#2F1C04"/>
    <rect x="99" y="39" width="32" height="7" fill="#2F1C04"/>
    <path d="m1-2v3h119v8h7v2l4-2.5-4-2.5v2h-6v-10h-1z" fill="#ff9915"/>
    <rect x="9.5" y="20.5" width="12" height="10" stroke="#ff9915"/>
    <g fill="#ff9915">
     <rect x="30" y="129.99" width="1" height="7.8633"/>
     <rect x="30" y="137.84" width="46" height="1.162"/>
     <rect x="75" y="136" width="1" height="1.8849"/>
    </g>
    <g stroke="#ff9915">
     <rect x="99.5" y="20.5" width="12" height="10" opacity=".5"/>
     <rect x="69.5" y="20.5" width="12" height="10"/>
     <rect x="39.5" y="20.5" width="12" height="10"/>
    </g>
   </g>
  </g>
  <g id="Font-Layer" transform="translate(6 30)">
   <g fill="#FF9915">
    <polygon id="Triangle" transform="translate(45.5 18.5) rotate(90) translate(-45.5 -18.5)" points="45.5 17 48 20 43 20"/>
    <polygon transform="translate(72.5 18.5) rotate(90) translate(-72.5 -18.5)" points="72.5 17 75 20 70 20"/>
    <polygon transform="translate(83.5 18.5) rotate(90) translate(-83.5 -18.5)" points="83.5 17 86 20 81 20"/>
    <polygon transform="translate(105.5 18.5) rotate(90) translate(-105.5 -18.5)" points="105.5 17 108 20 103 20"/>
   </g>
   <polygon transform="translate(45.5 70.5) rotate(90) translate(-45.5 -70.5)" points="45.5 69 48 72 43 72" fill="#1E1E1E"/>
   <g fill="#FF9915">
    <polygon transform="translate(72.5 70.5) rotate(90) translate(-72.5 -70.5)" points="72.5 69 75 72 70 72"/>
    <polygon transform="translate(83.5 70.5) rotate(90) translate(-83.5 -70.5)" points="83.5 69 86 72 81 72"/>
    <polygon transform="translate(105.5 70.5) rotate(90) translate(-105.5 -70.5)" points="105.5 69 108 72 103 72"/>
    <polygon transform="translate(114.5 18.5) scale(-1 1) rotate(90) translate(-114.5 -18.5)" points="114.5 17 117 20 112 20"/>
    <polygon transform="translate(114.5 70.5) scale(-1 1) rotate(90) translate(-114.5 -70.5)" points="114.5 69 117 72 112 72"/>
    <polygon transform="translate(45.5 122.5) rotate(90) translate(-45.5 -122.5)" points="45.5 121 48 124 43 124"/>
   </g>
   <polygon transform="translate(72.5 122.5) rotate(90) translate(-72.5 -122.5)" points="72.5 121 75 124 70 124" fill="#1E1E1E"/>
   <polygon transform="translate(83.5 122.5) rotate(90) translate(-83.5 -122.5)" points="83.5 121 86 124 81 124" fill="#1E1E1E"/>
   <g fill="#FF9915">
    <polygon transform="translate(105.5 122.5) rotate(90) translate(-105.5 -122.5)" points="105.5 121 108 124 103 124"/>
    <polygon transform="translate(114.5 122.5) scale(-1 1) rotate(90) translate(-114.5 -122.5)" points="114.5 121 117 124 112 124"/>
    <polygon transform="translate(45.5 174.5) rotate(90) translate(-45.5 -174.5)" points="45.5 173 48 176 43 176"/>
    <polygon transform="translate(72.5 174.5) rotate(90) translate(-72.5 -174.5)" points="72.5 173 75 176 70 176"/>
    <polygon transform="translate(83.5 174.5) rotate(90) translate(-83.5 -174.5)" points="83.5 173 86 176 81 176"/>
   </g>
   <polygon transform="translate(105.5 174.5) rotate(90) translate(-105.5 -174.5)" points="105.5 173 108 176 103 176" fill="#1E1E1E"/>
   <polygon transform="translate(114.5 174.5) scale(-1 1) rotate(90) translate(-114.5 -174.5)" points="114.5 173 117 176 112 176" fill="#1E1E1E"/>
   <g fill="#fff" fill-rule="nonzero">
    <path d="m10.902 1.459c0 0.44334-0.04783 0.82833-0.1435 1.155s-0.2275 0.59675-0.3955 0.81025-0.36692 0.37217-0.59675 0.476c-0.22983 0.10383-0.47775 0.15575-0.74375 0.15575-0.266 0-0.51333-0.051916-0.742-0.15575-0.22867-0.10383-0.42583-0.2625-0.5915-0.476s-0.29575-0.48358-0.39025-0.81025-0.14175-0.71166-0.14175-1.155c0-0.44334 0.04725-0.82775 0.14175-1.1532 0.094501-0.3255 0.22458-0.595 0.39025-0.8085s0.36283-0.37217 0.5915-0.476 0.476-0.15575 0.742-0.15575c0.266 0 0.51392 0.051916 0.74375 0.15575 0.22983 0.10383 0.42875 0.2625 0.59675 0.476s0.29983 0.483 0.3955 0.8085c0.09567 0.3255 0.1435 0.70991 0.1435 1.1532zm-0.9975 0c0-0.35934-0.025083-0.65567-0.07525-0.889s-0.11608-0.41767-0.19775-0.553-0.17558-0.22983-0.28175-0.2835-0.21525-0.0805-0.32725-0.0805c-0.112 0-0.21992 0.026833-0.32375 0.0805-0.10383 0.053667-0.196 0.14817-0.2765 0.2835-0.0805 0.13533-0.14525 0.31967-0.19425 0.553-0.049 0.23333-0.0735 0.52966-0.0735 0.889 0 0.36167 0.0245 0.65917 0.0735 0.8925s0.11375 0.41767 0.19425 0.553c0.0805 0.13533 0.17267 0.22983 0.2765 0.2835 0.10383 0.053667 0.21175 0.0805 0.32375 0.0805 0.112 0 0.22108-0.026833 0.32725-0.0805s0.20008-0.14817 0.28175-0.2835c0.08167-0.13533 0.14758-0.31967 0.19775-0.553s0.07525-0.53083 0.07525-0.8925zm4.802 1.8305v0.7105h-2.849v-0.7105h1.008v-2.779c0-0.060667 0.0012-0.1225 0.0035-0.1855 0.0023-0.063 0.0058-0.12717 0.0105-0.1925l-0.665 0.553c-0.04667 0.035-0.09217 0.057167-0.1365 0.0665-0.04433 0.00933-0.08633 0.00992-0.126 0.00175s-0.07467-0.022167-0.105-0.042-0.05367-0.04025-0.07-0.06125l-0.3045-0.4095 1.561-1.323h0.7945v4.3715z"/>
    <path d="m39.902 1.403c0 0.44334-0.04783 0.82833-0.1435 1.155s-0.2275 0.59675-0.3955 0.81025-0.36692 0.37217-0.59675 0.476c-0.22984 0.10383-0.47775 0.15575-0.74375 0.15575s-0.51333-0.051916-0.742-0.15575c-0.22867-0.10383-0.42583-0.2625-0.5915-0.476-0.16567-0.2135-0.29575-0.48358-0.39025-0.81025s-0.14175-0.71166-0.14175-1.155c0-0.44334 0.04725-0.82775 0.14175-1.1532s0.22458-0.595 0.39025-0.8085c0.16567-0.2135 0.36283-0.37217 0.5915-0.476s0.476-0.15575 0.742-0.15575 0.51392 0.051916 0.74375 0.15575c0.22983 0.10383 0.42875 0.2625 0.59675 0.476s0.29983 0.483 0.3955 0.8085c0.09567 0.3255 0.1435 0.70991 0.1435 1.1532zm-0.9975 0c0-0.35934-0.02508-0.65567-0.07525-0.889-0.050167-0.23333-0.11608-0.41767-0.19775-0.553s-0.17558-0.22983-0.28175-0.2835-0.21525-0.0805-0.32725-0.0805-0.21992 0.026833-0.32375 0.0805-0.196 0.14817-0.2765 0.2835-0.14525 0.31967-0.19425 0.553-0.0735 0.52966-0.0735 0.889c0 0.36167 0.0245 0.65917 0.0735 0.8925s0.11375 0.41767 0.19425 0.553 0.17267 0.22983 0.2765 0.2835c0.10383 0.053667 0.21175 0.0805 0.32375 0.0805s0.22108-0.026833 0.32725-0.0805 0.20008-0.14817 0.28175-0.2835c0.08167-0.13533 0.14758-0.31967 0.19775-0.553s0.07525-0.53083 0.07525-0.8925zm5.6815 1.6555c0.105 0 0.18725 0.029166 0.24675 0.0875s0.08925 0.13533 0.08925 0.231v0.567h-3.521v-0.315c0-0.060667 0.01283-0.12658 0.0385-0.19775s0.06883-0.13592 0.1295-0.19425l1.505-1.5085c0.12833-0.12833 0.2415-0.25142 0.3395-0.36925 0.098-0.11783 0.17967-0.23333 0.245-0.3465 0.06533-0.11317 0.11433-0.22808 0.147-0.34475 0.03267-0.11667 0.049-0.23917 0.049-0.3675 0-0.22633-0.05833-0.39842-0.175-0.51625-0.11667-0.11783-0.28117-0.17675-0.4935-0.17675-0.09333 0-0.17908 0.013416-0.25725 0.04025-0.07817 0.026833-0.14817 0.063583-0.21 0.11025-0.06183 0.046667-0.11492 0.1015-0.15925 0.1645-0.04433 0.063-0.077 0.13183-0.098 0.2065-0.042 0.11667-0.09858 0.19425-0.16975 0.23275-0.07117 0.0385-0.17208 0.04725-0.30275 0.02625l-0.511-0.091c0.03733-0.24733 0.10733-0.46433 0.21-0.651s0.231-0.34183 0.385-0.4655 0.33017-0.21642 0.5285-0.27825c0.19833-0.061834 0.41183-0.09275 0.6405-0.09275 0.24034 0 0.45908 0.035583 0.65625 0.10675s0.36575 0.17033 0.50575 0.2975 0.2485 0.28058 0.3255 0.46025 0.1155 0.378 0.1155 0.595c0 0.18667-0.02683 0.35933-0.0805 0.518s-0.12658 0.30975-0.21875 0.45325-0.19892 0.28292-0.32025 0.41825-0.24967 0.27183-0.385 0.4095l-1.078 1.1025c0.119-0.035 0.23683-0.062417 0.3535-0.08225s0.22633-0.02975 0.329-0.02975z"/>
    <path d="m69.902 1.403c0 0.44334-0.04783 0.82833-0.1435 1.155s-0.2275 0.59675-0.3955 0.81025-0.36692 0.37217-0.59675 0.476c-0.22983 0.10383-0.47775 0.15575-0.74375 0.15575s-0.51333-0.051916-0.742-0.15575c-0.22867-0.10383-0.42583-0.2625-0.5915-0.476-0.16567-0.2135-0.29575-0.48358-0.39025-0.81025s-0.14175-0.71166-0.14175-1.155c0-0.44334 0.04725-0.82775 0.14175-1.1532s0.22458-0.595 0.39025-0.8085c0.16567-0.2135 0.36283-0.37217 0.5915-0.476s0.476-0.15575 0.742-0.15575 0.51392 0.051916 0.74375 0.15575c0.22983 0.10383 0.42875 0.2625 0.59675 0.476s0.29983 0.483 0.3955 0.8085c0.09567 0.3255 0.1435 0.70991 0.1435 1.1532zm-0.9975 0c0-0.35934-0.02508-0.65567-0.07525-0.889s-0.11608-0.41767-0.19775-0.553c-0.08167-0.13533-0.17558-0.22983-0.28175-0.2835s-0.21525-0.0805-0.32725-0.0805-0.21992 0.026833-0.32375 0.0805-0.196 0.14817-0.2765 0.2835-0.14525 0.31967-0.19425 0.553-0.0735 0.52966-0.0735 0.889c0 0.36167 0.0245 0.65917 0.0735 0.8925s0.11375 0.41767 0.19425 0.553 0.17267 0.22983 0.2765 0.2835c0.10383 0.053667 0.21175 0.0805 0.32375 0.0805s0.22108-0.026833 0.32725-0.0805 0.20008-0.14817 0.28175-0.2835c0.08167-0.13533 0.14758-0.31967 0.19775-0.553 0.05017-0.23333 0.07525-0.53083 0.07525-0.8925zm2.6015-1.106c0.03733-0.24733 0.10733-0.46433 0.21-0.651s0.231-0.34183 0.385-0.4655 0.32958-0.21642 0.52675-0.27825c0.19717-0.061834 0.41008-0.09275 0.63875-0.09275 0.24267 0 0.46025 0.034416 0.65275 0.10325s0.35525 0.16275 0.48825 0.28175 0.23508 0.25783 0.30625 0.4165c0.07117 0.15867 0.10675 0.329 0.10675 0.511 0 0.161-0.01692 0.30275-0.05075 0.42525s-0.084 0.22925-0.1505 0.32025c-0.0665 0.091-0.14817 0.168-0.245 0.231-0.09683 0.063-0.20825 0.1155-0.33425 0.1575 0.58334 0.19133 0.875 0.57983 0.875 1.1655 0 0.259-0.04783 0.48708-0.1435 0.68425s-0.224 0.36225-0.385 0.49525-0.34825 0.23275-0.56175 0.29925c-0.2135 0.0665-0.43692 0.09975-0.67025 0.09975-0.24734 0-0.4655-0.028-0.6545-0.084s-0.35525-0.14-0.49875-0.252-0.26658-0.25258-0.36925-0.42175-0.1925-0.36692-0.2695-0.59325l0.427-0.175c0.112-0.046667 0.21642-0.0595 0.31325-0.0385 0.09683 0.021 0.16625 0.072333 0.20825 0.154 0.04667 0.088667 0.09625 0.17033 0.14875 0.245s0.11142 0.13942 0.17675 0.19425c0.06533 0.054834 0.13942 0.097417 0.22225 0.12775 0.08283 0.030333 0.17792 0.0455 0.28525 0.0455 0.13533 0 0.25317-0.022166 0.3535-0.0665s0.18433-0.10208 0.252-0.17325c0.06767-0.071167 0.11842-0.15167 0.15225-0.2415 0.03383-0.089834 0.05075-0.17908 0.05075-0.26775 0-0.11667-0.0105-0.22225-0.0315-0.31675-0.021-0.0945-0.06942-0.175-0.14525-0.2415-0.07583-0.0665-0.18783-0.11783-0.336-0.154-0.14817-0.036167-0.34942-0.05425-0.60375-0.05425v-0.679c0.21233 0 0.38617-0.0175 0.5215-0.0525s0.2415-0.084 0.3185-0.147 0.13008-0.13883 0.15925-0.2275c0.02917-0.088667 0.04375-0.1855 0.04375-0.2905 0-0.22167-0.05775-0.39083-0.17325-0.5075-0.1155-0.11667-0.27942-0.175-0.49175-0.175-0.09333 0-0.17908 0.013416-0.25725 0.04025-0.07817 0.026833-0.14817 0.063583-0.21 0.11025-0.06183 0.046667-0.11492 0.1015-0.15925 0.1645-0.04433 0.063-0.077 0.13183-0.098 0.2065-0.04433 0.11667-0.1015 0.19425-0.1715 0.23275-0.07 0.0385-0.1715 0.04725-0.3045 0.02625z"/>
    <path id="N" d="m102.88-1.0785v5.0785h-0.5425c-0.0817 0-0.1505-0.013416-0.2065-0.04025-0.056-0.026833-0.11083-0.072916-0.1645-0.13825l-2.5305-3.22c7e-3 0.081667 0.0122 0.16217 0.0157 0.2415 4e-3 0.079334 5e-3 0.15283 5e-3 0.2205v2.9365h-0.9272v-5.0785h0.553c0.0443 0 0.0823 0.00175 0.11375 0.00525 0.0315 0.0035 0.0601 0.011667 0.0857 0.0245 0.0257 0.012833 0.0502 0.02975 0.0735 0.05075s0.049 0.049 0.077 0.084l2.548 3.234c-9e-3 -0.088667-0.0163-0.17442-0.021-0.25725-5e-3 -0.082834-7e-3 -0.16158-7e-3 -0.23625v-2.905z"/>
   </g>
   <g fill="#FF9915" fill-rule="nonzero">
    <path d="m41.426 20.114c0.105 0 0.18725 0.029166 0.24675 0.0875s0.08925 0.13533 0.08925 0.231v0.567h-3.521v-0.315c0-0.060667 0.012833-0.12658 0.0385-0.19775s0.068833-0.13592 0.1295-0.19425l1.505-1.5085c0.12833-0.12833 0.2415-0.25142 0.3395-0.36925s0.17967-0.23333 0.245-0.3465 0.11433-0.22808 0.147-0.34475c0.032667-0.11667 0.049-0.23917 0.049-0.3675 0-0.22633-0.058333-0.39842-0.175-0.51625-0.11667-0.11783-0.28117-0.17675-0.4935-0.17675-0.093334 0-0.17908 0.013416-0.25725 0.04025s-0.14817 0.063583-0.21 0.11025-0.11492 0.1015-0.15925 0.1645-0.077 0.13183-0.098 0.2065c-0.042 0.11667-0.098583 0.19425-0.16975 0.23275s-0.17208 0.04725-0.30275 0.02625l-0.511-0.091c0.037334-0.24733 0.10733-0.46433 0.21-0.651s0.231-0.34183 0.385-0.4655 0.33017-0.21642 0.5285-0.27825 0.41183-0.09275 0.6405-0.09275c0.24033 0 0.45908 0.035583 0.65625 0.10675s0.36575 0.17033 0.50575 0.2975 0.2485 0.28058 0.3255 0.46025 0.1155 0.378 0.1155 0.595c0 0.18667-0.026833 0.35933-0.0805 0.518s-0.12658 0.30975-0.21875 0.45325-0.19892 0.28292-0.32025 0.41825-0.24967 0.27183-0.385 0.4095l-1.078 1.1025c0.119-0.035 0.23683-0.062417 0.3535-0.08225 0.11667-0.019833 0.22633-0.02975 0.329-0.02975h1.141z"/>
    <path d="m79.426 20.114c0.105 0 0.18725 0.029166 0.24675 0.0875s0.08925 0.13533 0.08925 0.231v0.567h-3.521v-0.315c0-0.060667 0.012833-0.12658 0.0385-0.19775s0.068833-0.13592 0.1295-0.19425l1.505-1.5085c0.12833-0.12833 0.2415-0.25142 0.3395-0.36925s0.17967-0.23333 0.245-0.3465 0.11433-0.22808 0.147-0.34475c0.032667-0.11667 0.049-0.23917 0.049-0.3675 0-0.22633-0.058333-0.39842-0.175-0.51625-0.11667-0.11783-0.28117-0.17675-0.4935-0.17675-0.093334 0-0.17908 0.013416-0.25725 0.04025s-0.14817 0.063583-0.21 0.11025-0.11492 0.1015-0.15925 0.1645-0.077 0.13183-0.098 0.2065c-0.042 0.11667-0.098583 0.19425-0.16975 0.23275s-0.17208 0.04725-0.30275 0.02625l-0.511-0.091c0.037334-0.24733 0.10733-0.46433 0.21-0.651s0.231-0.34183 0.385-0.4655 0.33017-0.21642 0.5285-0.27825 0.41183-0.09275 0.6405-0.09275c0.24033 0 0.45908 0.035583 0.65625 0.10675s0.36575 0.17033 0.50575 0.2975 0.2485 0.28058 0.3255 0.46025 0.1155 0.378 0.1155 0.595c0 0.18667-0.026833 0.35933-0.0805 0.518s-0.12658 0.30975-0.21875 0.45325-0.19892 0.28292-0.32025 0.41825-0.24967 0.27183-0.385 0.4095l-1.078 1.1025c0.119-0.035 0.23683-0.062417 0.3535-0.08225 0.11667-0.019833 0.22633-0.02975 0.329-0.02975h1.141z"/>
    <path d="m101.43 20.114c0.105 0 0.18725 0.029166 0.24675 0.0875s0.08925 0.13533 0.08925 0.231v0.567h-3.521v-0.315c0-0.060667 0.012833-0.12658 0.0385-0.19775s0.068833-0.13592 0.1295-0.19425l1.505-1.5085c0.12833-0.12833 0.2415-0.25142 0.3395-0.36925s0.17967-0.23333 0.245-0.3465 0.11433-0.22808 0.147-0.34475c0.032667-0.11667 0.049-0.23917 0.049-0.3675 0-0.22633-0.058333-0.39842-0.175-0.51625s-0.28117-0.17675-0.4935-0.17675c-0.093334 0-0.17908 0.013416-0.25725 0.04025s-0.14817 0.063583-0.21 0.11025-0.11492 0.1015-0.15925 0.1645-0.077 0.13183-0.098 0.2065c-0.042 0.11667-0.098583 0.19425-0.16975 0.23275s-0.17208 0.04725-0.30275 0.02625l-0.511-0.091c0.037334-0.24733 0.10733-0.46433 0.21-0.651s0.231-0.34183 0.385-0.4655 0.33017-0.21642 0.5285-0.27825 0.41183-0.09275 0.6405-0.09275c0.24034 0 0.45908 0.035583 0.65625 0.10675s0.36575 0.17033 0.50575 0.2975 0.2485 0.28058 0.3255 0.46025 0.1155 0.378 0.1155 0.595c0 0.18667-0.026833 0.35933-0.0805 0.518s-0.12658 0.30975-0.21875 0.45325-0.19892 0.28292-0.32025 0.41825-0.24967 0.27183-0.385 0.4095l-1.078 1.1025c0.119-0.035 0.23683-0.062417 0.3535-0.08225 0.11667-0.019833 0.22633-0.02975 0.329-0.02975h1.141z"/>
    <path d="m65.346 17.353c0.037334-0.24733 0.10733-0.46433 0.21-0.651s0.231-0.34183 0.385-0.4655 0.32958-0.21642 0.52675-0.27825 0.41008-0.09275 0.63875-0.09275c0.24267 0 0.46025 0.034416 0.65275 0.10325s0.35525 0.16275 0.48825 0.28175 0.23508 0.25783 0.30625 0.4165 0.10675 0.329 0.10675 0.511c0 0.161-0.016916 0.30275-0.05075 0.42525s-0.084 0.22925-0.1505 0.32025-0.14817 0.168-0.245 0.231-0.20825 0.1155-0.33425 0.1575c0.58334 0.19133 0.875 0.57983 0.875 1.1655 0 0.259-0.047833 0.48708-0.1435 0.68425s-0.224 0.36225-0.385 0.49525-0.34825 0.23275-0.56175 0.29925-0.43692 0.09975-0.67025 0.09975c-0.24733 0-0.4655-0.028-0.6545-0.084s-0.35525-0.14-0.49875-0.252-0.26658-0.25258-0.36925-0.42175-0.1925-0.36692-0.2695-0.59325l0.427-0.175c0.112-0.046667 0.21642-0.0595 0.31325-0.0385s0.16625 0.072333 0.20825 0.154c0.046667 0.088667 0.09625 0.17033 0.14875 0.245s0.11142 0.13942 0.17675 0.19425 0.13942 0.097416 0.22225 0.12775 0.17792 0.0455 0.28525 0.0455c0.13533 0 0.25317-0.022166 0.3535-0.0665s0.18433-0.10208 0.252-0.17325 0.11842-0.15167 0.15225-0.2415 0.05075-0.17908 0.05075-0.26775c0-0.11667-0.0105-0.22225-0.0315-0.31675s-0.069416-0.175-0.14525-0.2415-0.18783-0.11783-0.336-0.154-0.34942-0.05425-0.60375-0.05425v-0.679c0.21233 0 0.38617-0.0175 0.5215-0.0525s0.2415-0.084 0.3185-0.147 0.13008-0.13883 0.15925-0.2275 0.04375-0.1855 0.04375-0.2905c0-0.22167-0.057749-0.39083-0.17325-0.5075-0.1155-0.11667-0.27942-0.175-0.49175-0.175-0.093334 0-0.17908 0.013416-0.25725 0.04025s-0.14817 0.063583-0.21 0.11025-0.11492 0.1015-0.15925 0.1645-0.077 0.13183-0.098 0.2065c-0.044334 0.11667-0.1015 0.19425-0.1715 0.23275-0.07 0.0385-0.1715 0.04725-0.3045 0.02625l-0.5075-0.091z"/>
    <path d="m118.35 17.353c0.037334-0.24733 0.10733-0.46433 0.21-0.651s0.231-0.34183 0.385-0.4655 0.32958-0.21642 0.52675-0.27825 0.41008-0.09275 0.63875-0.09275c0.24267 0 0.46025 0.034416 0.65275 0.10325s0.35525 0.16275 0.48825 0.28175 0.23508 0.25783 0.30625 0.4165 0.10675 0.329 0.10675 0.511c0 0.161-0.016916 0.30275-0.05075 0.42525s-0.084 0.22925-0.1505 0.32025-0.14817 0.168-0.245 0.231-0.20825 0.1155-0.33425 0.1575c0.58334 0.19133 0.875 0.57983 0.875 1.1655 0 0.259-0.047833 0.48708-0.1435 0.68425s-0.224 0.36225-0.385 0.49525-0.34825 0.23275-0.56175 0.29925-0.43692 0.09975-0.67025 0.09975c-0.24734 0-0.4655-0.028-0.6545-0.084s-0.35525-0.14-0.49875-0.252-0.26658-0.25258-0.36925-0.42175-0.1925-0.36692-0.2695-0.59325l0.427-0.175c0.112-0.046667 0.21642-0.0595 0.31325-0.0385s0.16625 0.072333 0.20825 0.154c0.046667 0.088667 0.09625 0.17033 0.14875 0.245s0.11142 0.13942 0.17675 0.19425 0.13942 0.097416 0.22225 0.12775 0.17792 0.0455 0.28525 0.0455c0.13533 0 0.25317-0.022166 0.3535-0.0665s0.18433-0.10208 0.252-0.17325 0.11842-0.15167 0.15225-0.2415 0.05075-0.17908 0.05075-0.26775c0-0.11667-0.0105-0.22225-0.0315-0.31675s-0.069416-0.175-0.14525-0.2415-0.18783-0.11783-0.336-0.154-0.34942-0.05425-0.60375-0.05425v-0.679c0.21233 0 0.38617-0.0175 0.5215-0.0525s0.2415-0.084 0.3185-0.147 0.13008-0.13883 0.15925-0.2275 0.04375-0.1855 0.04375-0.2905c0-0.22167-0.057749-0.39083-0.17325-0.5075-0.1155-0.11667-0.27942-0.175-0.49175-0.175-0.093334 0-0.17908 0.013416-0.25725 0.04025s-0.14817 0.063583-0.21 0.11025-0.11492 0.1015-0.15925 0.1645-0.077 0.13183-0.098 0.2065c-0.044334 0.11667-0.1015 0.19425-0.1715 0.23275s-0.1715 0.04725-0.3045 0.02625l-0.5075-0.091z"/>
    <path d="m52.647 20.29v0.7105h-2.849v-0.7105h1.008v-2.779c0-0.060667 0.0011667-0.1225 0.0035-0.1855s0.0058333-0.12717 0.0105-0.1925l-0.665 0.553c-0.046667 0.035-0.092166 0.057167-0.1365 0.0665s-0.086333 0.0099167-0.126 0.00175-0.074666-0.022167-0.105-0.042-0.053667-0.04025-0.07-0.06125l-0.3045-0.4095 1.561-1.323h0.7945v4.3715h0.8785z"/>
    <path d="m89.647 20.29v0.7105h-2.849v-0.7105h1.008v-2.779c0-0.060667 0.0011667-0.1225 0.0035-0.1855s0.0058333-0.12717 0.0105-0.1925l-0.665 0.553c-0.046667 0.035-0.092166 0.057167-0.1365 0.0665s-0.086333 0.0099167-0.126 0.00175-0.074666-0.022167-0.105-0.042-0.053667-0.04025-0.07-0.06125l-0.3045-0.4095 1.561-1.323h0.7945v4.3715h0.8785z"/>
    <path d="m111.65 20.29v0.7105h-2.849v-0.7105h1.008v-2.779c0-0.060667 0.001167-0.1225 0.0035-0.1855s0.005833-0.12717 0.0105-0.1925l-0.665 0.553c-0.046667 0.035-0.092166 0.057167-0.1365 0.0665s-0.086333 0.0099167-0.126 0.00175-0.074667-0.022167-0.105-0.042-0.053667-0.04025-0.07-0.06125l-0.3045-0.4095 1.561-1.323h0.7945v4.3715h0.8785z"/>
   </g>
   <g transform="translate(0 15)" fill="#1E1E1E" fill-rule="nonzero">
    <path id="NOFM" d="m4.8825 0.9215v5.0785h-0.5425c-0.081667 0-0.1505-0.013417-0.2065-0.04025s-0.11083-0.072916-0.1645-0.13825l-2.5305-3.22c7e-3 0.081667 0.01225 0.16217 0.01575 0.2415s0.00525 0.15283 0.00525 0.2205v2.9365h-0.9275v-5.0785h0.553c0.044334 0 0.08225 0.00175 0.11375 0.00525 0.0315 0.0035 0.060083 0.011667 0.08575 0.0245 0.025667 0.012833 0.050167 0.02975 0.0735 0.05075 0.023333 0.021 0.049 0.049 0.077 0.084l2.548 3.234c-0.0093334-0.088667-0.016333-0.17442-0.021-0.25725s-7e-3 -0.16158-7e-3 -0.23625v-2.905h0.9275zm5.971 2.5375c0 0.371-0.062416 0.71517-0.18725 1.0325s-0.301 0.5915-0.5285 0.8225c-0.2275 0.231-0.50108 0.41242-0.82075 0.54425-0.31967 0.13183-0.67433 0.19775-1.064 0.19775-0.38967 0-0.74433-0.065916-1.064-0.19775-0.31967-0.13183-0.59383-0.31325-0.8225-0.54425-0.22867-0.231-0.40542-0.50517-0.53025-0.8225s-0.18725-0.6615-0.18725-1.0325c0-0.371 0.062416-0.71458 0.18725-1.0308s0.30158-0.58975 0.53025-0.82075c0.22867-0.231 0.50283-0.41242 0.8225-0.54425 0.31967-0.13183 0.67433-0.19775 1.064-0.19775 0.38967 0 0.74433 0.065916 1.064 0.19775 0.31967 0.13183 0.59325 0.31383 0.82075 0.546 0.2275 0.23217 0.40367 0.50633 0.5285 0.8225s0.18725 0.65858 0.18725 1.0272zm-1.0745 0c0-0.266-0.035-0.50458-0.105-0.71575s-0.17092-0.39083-0.30275-0.539-0.29167-0.26133-0.4795-0.3395-0.40075-0.11725-0.63875-0.11725-0.4515 0.039083-0.6405 0.11725c-0.189 0.078167-0.34942 0.19133-0.48125 0.3395s-0.23275 0.32783-0.30275 0.539-0.105 0.44975-0.105 0.71575c0 0.26833 0.035 0.50808 0.105 0.71925s0.17092 0.39025 0.30275 0.53725c0.13183 0.147 0.29225 0.25958 0.48125 0.33775 0.189 0.078167 0.4025 0.11725 0.6405 0.11725s0.45092-0.039083 0.63875-0.11725 0.34767-0.19075 0.4795-0.33775c0.13183-0.147 0.23275-0.32608 0.30275-0.53725s0.105-0.45092 0.105-0.71925zm4.564-1.715v1.4035h1.827v0.826h-1.827v2.0265h-1.057v-5.0785h3.234v0.8225h-2.177zm8.505-0.8225v5.0785h-0.9275v-3.1185c0-0.065334 0.00175-0.13533 0.00525-0.21s0.0099166-0.1505 0.01925-0.2275l-1.4525 2.7545c-0.079334 0.15167-0.20183 0.2275-0.3675 0.2275h-0.147c-0.081667 0-0.154-0.01925-0.217-0.05775s-0.11317-0.095083-0.1505-0.16975l-1.4595-2.765c7e-3 0.081667 0.012833 0.16042 0.0175 0.23625s7e-3 0.14642 7e-3 0.21175v3.1185h-0.9275v-5.0785h0.798c0.044334 0 0.084 0.0011667 0.119 0.0035s0.065916 0.0087499 0.09275 0.01925c0.026834 0.0105 0.051333 0.026833 0.0735 0.049 0.022167 0.022167 0.04375 0.053083 0.06475 0.09275l1.421 2.709c0.044334 0.081667 0.08575 0.16567 0.12425 0.252 0.0385 0.086334 0.07525 0.175 0.11025 0.266 0.035-0.093334 0.07175-0.18433 0.11025-0.273s0.079916-0.17383 0.12425-0.2555l1.4105-2.6985c0.021-0.039667 0.043167-0.070583 0.0665-0.09275 0.023334-0.022167 0.048416-0.0385 0.07525-0.049 0.026834-0.0105 0.057166-0.016917 0.091-0.01925s0.074083-0.0035 0.12075-0.0035h0.798z"/>
   </g>
  </g>
  <g fill-rule="nonzero">
   <g transform="translate(6 82)">
    <g fill="#fff">
     <path d="m10.902 1.459c0 0.44334-0.04783 0.82833-0.1435 1.155s-0.2275 0.59675-0.3955 0.81025-0.36692 0.37217-0.59675 0.476c-0.22983 0.10383-0.47775 0.15575-0.74375 0.15575s-0.51333-0.051916-0.742-0.15575c-0.22867-0.10383-0.42583-0.2625-0.5915-0.476s-0.29575-0.48358-0.39025-0.81025-0.14175-0.71166-0.14175-1.155c0-0.44334 0.04725-0.82775 0.14175-1.1532 0.094501-0.3255 0.22458-0.595 0.39025-0.8085s0.36283-0.37217 0.5915-0.476c0.22867-0.10383 0.476-0.15575 0.742-0.15575s0.51392 0.051916 0.74375 0.15575c0.22983 0.10383 0.42875 0.2625 0.59675 0.476s0.29983 0.483 0.3955 0.8085c0.09567 0.3255 0.1435 0.70991 0.1435 1.1532zm-0.9975 0c0-0.35934-0.025083-0.65567-0.07525-0.889s-0.11608-0.41767-0.19775-0.553c-0.081667-0.13533-0.17558-0.22983-0.28175-0.2835-0.10617-0.053667-0.21525-0.0805-0.32725-0.0805s-0.21992 0.026833-0.32375 0.0805c-0.10383 0.053667-0.196 0.14817-0.2765 0.2835-0.0805 0.13533-0.14525 0.31967-0.19425 0.553-0.049 0.23333-0.0735 0.52966-0.0735 0.889 0 0.36167 0.0245 0.65917 0.0735 0.8925s0.11375 0.41767 0.19425 0.553c0.0805 0.13533 0.17267 0.22983 0.2765 0.2835 0.10383 0.053667 0.21175 0.0805 0.32375 0.0805s0.22108-0.026833 0.32725-0.0805c0.10617-0.053667 0.20008-0.14817 0.28175-0.2835s0.14758-0.31967 0.19775-0.553 0.07525-0.53083 0.07525-0.8925zm4.802 1.8305v0.7105h-2.849v-0.7105h1.008v-2.779c0-0.060667 0.0012-0.1225 0.0035-0.1855 0.0023-0.063 0.0058-0.12717 0.0105-0.1925l-0.665 0.553c-0.04667 0.035-0.09217 0.057167-0.1365 0.0665-0.04433 0.00933-0.08633 0.00992-0.126 0.00175s-0.07467-0.022167-0.105-0.042-0.05367-0.04025-0.07-0.06125l-0.3045-0.4095 1.561-1.323h0.7945v4.3715z"/>
     <path d="m39.902 1.403c0 0.44334-0.04783 0.82833-0.1435 1.155s-0.2275 0.59675-0.3955 0.81025-0.36692 0.37217-0.59675 0.476c-0.22984 0.10383-0.47775 0.15575-0.74375 0.15575s-0.51333-0.051916-0.742-0.15575c-0.22867-0.10383-0.42583-0.2625-0.5915-0.476-0.16567-0.2135-0.29575-0.48358-0.39025-0.81025s-0.14175-0.71166-0.14175-1.155c0-0.44334 0.04725-0.82775 0.14175-1.1532 0.0945-0.3255 0.22458-0.595 0.39025-0.8085 0.16567-0.2135 0.36283-0.37217 0.5915-0.476 0.22867-0.10383 0.476-0.15575 0.742-0.15575s0.51392 0.051916 0.74375 0.15575c0.22983 0.10383 0.42875 0.2625 0.59675 0.476s0.29983 0.483 0.3955 0.8085c0.09567 0.3255 0.1435 0.70991 0.1435 1.1532zm-0.9975 0c0-0.35934-0.02508-0.65567-0.07525-0.889-0.050167-0.23333-0.11608-0.41767-0.19775-0.553-0.081667-0.13533-0.17558-0.22983-0.28175-0.2835-0.10617-0.053667-0.21525-0.0805-0.32725-0.0805s-0.21992 0.026833-0.32375 0.0805-0.196 0.14817-0.2765 0.2835c-0.0805 0.13533-0.14525 0.31967-0.19425 0.553s-0.0735 0.52966-0.0735 0.889c0 0.36167 0.0245 0.65917 0.0735 0.8925s0.11375 0.41767 0.19425 0.553 0.17267 0.22983 0.2765 0.2835c0.10383 0.053667 0.21175 0.0805 0.32375 0.0805s0.22108-0.026833 0.32725-0.0805 0.20008-0.14817 0.28175-0.2835c0.08167-0.13533 0.14758-0.31967 0.19775-0.553s0.07525-0.53083 0.07525-0.8925zm5.6815 1.6555c0.105 0 0.18725 0.029166 0.24675 0.0875s0.08925 0.13533 0.08925 0.231v0.567h-3.521v-0.315c0-0.060667 0.01283-0.12658 0.0385-0.19775s0.06883-0.13592 0.1295-0.19425l1.505-1.5085c0.12833-0.12833 0.2415-0.25142 0.3395-0.36925 0.098-0.11783 0.17967-0.23333 0.245-0.3465 0.06533-0.11317 0.11433-0.22808 0.147-0.34475 0.03267-0.11667 0.049-0.23917 0.049-0.3675 0-0.22633-0.05833-0.39842-0.175-0.51625-0.11667-0.11783-0.28117-0.17675-0.4935-0.17675-0.09333 0-0.17908 0.013416-0.25725 0.04025-0.07817 0.026834-0.14817 0.063583-0.21 0.11025-0.06183 0.046667-0.11492 0.1015-0.15925 0.1645-0.04433 0.063-0.077 0.13183-0.098 0.2065-0.042 0.11667-0.09858 0.19425-0.16975 0.23275-0.07117 0.0385-0.17208 0.04725-0.30275 0.02625l-0.511-0.091c0.03733-0.24733 0.10733-0.46433 0.21-0.651s0.231-0.34183 0.385-0.4655c0.154-0.12367 0.33017-0.21642 0.5285-0.27825 0.19833-0.061834 0.41183-0.09275 0.6405-0.09275 0.24034 0 0.45908 0.035583 0.65625 0.10675s0.36575 0.17033 0.50575 0.2975 0.2485 0.28058 0.3255 0.46025c0.077 0.17967 0.1155 0.378 0.1155 0.595 0 0.18667-0.02683 0.35933-0.0805 0.518s-0.12658 0.30975-0.21875 0.45325-0.19892 0.28292-0.32025 0.41825-0.24967 0.27183-0.385 0.4095l-1.078 1.1025c0.119-0.035 0.23683-0.062417 0.3535-0.08225s0.22633-0.02975 0.329-0.02975z"/>
     <path d="m69.902 1.403c0 0.44334-0.04783 0.82833-0.1435 1.155s-0.2275 0.59675-0.3955 0.81025-0.36692 0.37217-0.59675 0.476c-0.22983 0.10383-0.47775 0.15575-0.74375 0.15575s-0.51333-0.051916-0.742-0.15575c-0.22867-0.10383-0.42583-0.2625-0.5915-0.476-0.16567-0.2135-0.29575-0.48358-0.39025-0.81025s-0.14175-0.71166-0.14175-1.155c0-0.44334 0.04725-0.82775 0.14175-1.1532 0.0945-0.3255 0.22458-0.595 0.39025-0.8085 0.16567-0.2135 0.36283-0.37217 0.5915-0.476 0.22867-0.10383 0.476-0.15575 0.742-0.15575s0.51392 0.051916 0.74375 0.15575c0.22983 0.10383 0.42875 0.2625 0.59675 0.476s0.29983 0.483 0.3955 0.8085c0.09567 0.3255 0.1435 0.70991 0.1435 1.1532zm-0.9975 0c0-0.35934-0.02508-0.65567-0.07525-0.889s-0.11608-0.41767-0.19775-0.553c-0.08167-0.13533-0.17558-0.22983-0.28175-0.2835-0.10617-0.053667-0.21525-0.0805-0.32725-0.0805s-0.21992 0.026833-0.32375 0.0805-0.196 0.14817-0.2765 0.2835c-0.0805 0.13533-0.14525 0.31967-0.19425 0.553s-0.0735 0.52966-0.0735 0.889c0 0.36167 0.0245 0.65917 0.0735 0.8925s0.11375 0.41767 0.19425 0.553 0.17267 0.22983 0.2765 0.2835c0.10383 0.053667 0.21175 0.0805 0.32375 0.0805s0.22108-0.026833 0.32725-0.0805 0.20008-0.14817 0.28175-0.2835c0.08167-0.13533 0.14758-0.31967 0.19775-0.553 0.05017-0.23333 0.07525-0.53083 0.07525-0.8925zm2.6015-1.106c0.03733-0.24733 0.10733-0.46433 0.21-0.651s0.231-0.34183 0.385-0.4655c0.154-0.12367 0.32958-0.21642 0.52675-0.27825 0.19717-0.061834 0.41008-0.09275 0.63875-0.09275 0.24267 0 0.46025 0.034416 0.65275 0.10325s0.35525 0.16275 0.48825 0.28175c0.133 0.119 0.23508 0.25783 0.30625 0.4165 0.07117 0.15867 0.10675 0.329 0.10675 0.511 0 0.161-0.01692 0.30275-0.05075 0.42525s-0.084 0.22925-0.1505 0.32025c-0.0665 0.091001-0.14817 0.168-0.245 0.231-0.09683 0.063-0.20825 0.1155-0.33425 0.1575 0.58334 0.19133 0.875 0.57983 0.875 1.1655 0 0.259-0.04783 0.48708-0.1435 0.68425s-0.224 0.36225-0.385 0.49525-0.34825 0.23275-0.56175 0.29925c-0.2135 0.0665-0.43692 0.09975-0.67025 0.09975-0.24734 0-0.4655-0.028-0.6545-0.084s-0.35525-0.14-0.49875-0.252-0.26658-0.25258-0.36925-0.42175-0.1925-0.36692-0.2695-0.59325l0.427-0.175c0.112-0.046667 0.21642-0.0595 0.31325-0.0385 0.09683 0.021 0.16625 0.072333 0.20825 0.154 0.04667 0.088667 0.09625 0.17033 0.14875 0.245s0.11142 0.13942 0.17675 0.19425c0.06533 0.054834 0.13942 0.097417 0.22225 0.12775 0.08283 0.030333 0.17792 0.0455 0.28525 0.0455 0.13533 0 0.25317-0.022166 0.3535-0.0665s0.18433-0.10208 0.252-0.17325c0.06767-0.071167 0.11842-0.15167 0.15225-0.2415 0.03383-0.089834 0.05075-0.17908 0.05075-0.26775 0-0.11667-0.0105-0.22225-0.0315-0.31675-0.021-0.094501-0.06942-0.175-0.14525-0.2415-0.07583-0.0665-0.18783-0.11783-0.336-0.154-0.14817-0.036167-0.34942-0.05425-0.60375-0.05425v-0.679c0.21233 0 0.38617-0.0175 0.5215-0.0525s0.2415-0.084 0.3185-0.147 0.13008-0.13883 0.15925-0.2275c0.02917-0.088667 0.04375-0.1855 0.04375-0.2905 0-0.22167-0.05775-0.39083-0.17325-0.5075-0.1155-0.11667-0.27942-0.175-0.49175-0.175-0.09333 0-0.17908 0.013416-0.25725 0.04025-0.07817 0.026834-0.14817 0.063583-0.21 0.11025-0.06183 0.046667-0.11492 0.1015-0.15925 0.1645-0.04433 0.063-0.077 0.13183-0.098 0.2065-0.04433 0.11667-0.1015 0.19425-0.1715 0.23275-0.07 0.0385-0.1715 0.04725-0.3045 0.02625z"/>
     <path d="m102.88-1.0785v5.0785h-0.5425c-0.0817 0-0.1505-0.013416-0.2065-0.04025-0.056-0.026833-0.11083-0.072916-0.1645-0.13825l-2.5305-3.22c7e-3 0.081667 0.01225 0.16217 0.01575 0.2415 0.0035 0.079334 0.0053 0.15283 0.0053 0.2205v2.9365h-0.92755v-5.0785h0.553c0.04433 0 0.08225 0.00175 0.11375 0.00525s0.06008 0.011667 0.08575 0.0245 0.05017 0.02975 0.0735 0.05075c0.02333 0.021 0.049 0.049 0.077 0.084l2.548 3.234c-9e-3 -0.088667-0.0163-0.17442-0.021-0.25725-5e-3 -0.082834-7e-3 -0.16158-7e-3 -0.23625v-2.905z"/>
    </g>
    <path d="m41.434 20.195c0.093334 0 0.16742 0.02625 0.22225 0.07875s0.08225 0.12192 0.08225 0.20825v0.518h-3.472v-0.287c0-0.058334 0.01225-0.11958 0.03675-0.18375s0.063583-0.12192 0.11725-0.17325l1.5365-1.54c0.12833-0.13067 0.24325-0.2555 0.34475-0.3745s0.18608-0.23683 0.25375-0.3535c0.067667-0.11667 0.11958-0.23508 0.15575-0.35525s0.05425-0.24675 0.05425-0.37975c0-0.12133-0.0175-0.22808-0.0525-0.32025s-0.084583-0.16975-0.14875-0.23275-0.14117-0.11025-0.231-0.14175-0.19075-0.04725-0.30275-0.04725c-0.10267 0-0.19775 0.014583-0.28525 0.04375s-0.16508 0.07-0.23275 0.1225-0.12483 0.11375-0.1715 0.18375c-0.046667 0.07-0.081666 0.147-0.105 0.231-0.039667 0.10733-0.091 0.1785-0.154 0.2135s-0.154 0.043167-0.273 0.0245l-0.455-0.0805c0.035-0.24267 0.10267-0.45558 0.203-0.63875s0.22575-0.336 0.37625-0.4585 0.32317-0.21467 0.518-0.2765 0.40425-0.09275 0.62825-0.09275c0.23333 0 0.44683 0.034416 0.6405 0.10325s0.35933 0.16625 0.497 0.29225 0.245 0.27767 0.322 0.455 0.1155 0.3745 0.1155 0.5915c0 0.18667-0.027416 0.35933-0.08225 0.518s-0.12833 0.31033-0.2205 0.455-0.20008 0.28467-0.32375 0.42-0.25317 0.273-0.3885 0.413l-1.141 1.1655c0.10967-0.032667 0.21875-0.05775 0.32725-0.07525s0.21175-0.02625 0.30975-0.02625h1.2985z" fill="#1E1E1E"/>
    <g fill="#FF9915">
     <path d="m79.434 20.195c0.093334 0 0.16742 0.02625 0.22225 0.07875s0.08225 0.12192 0.08225 0.20825v0.518h-3.472v-0.287c0-0.058334 0.01225-0.11958 0.03675-0.18375s0.063583-0.12192 0.11725-0.17325l1.5365-1.54c0.12833-0.13067 0.24325-0.2555 0.34475-0.3745s0.18608-0.23683 0.25375-0.3535c0.067667-0.11667 0.11958-0.23508 0.15575-0.35525s0.05425-0.24675 0.05425-0.37975c0-0.12133-0.0175-0.22808-0.0525-0.32025s-0.084583-0.16975-0.14875-0.23275-0.14117-0.11025-0.231-0.14175-0.19075-0.04725-0.30275-0.04725c-0.10267 0-0.19775 0.014583-0.28525 0.04375s-0.16508 0.07-0.23275 0.1225-0.12483 0.11375-0.1715 0.18375c-0.046667 0.07-0.081666 0.147-0.105 0.231-0.039667 0.10733-0.091 0.1785-0.154 0.2135s-0.154 0.043167-0.273 0.0245l-0.455-0.0805c0.035-0.24267 0.10267-0.45558 0.203-0.63875s0.22575-0.336 0.37625-0.4585 0.32317-0.21467 0.518-0.2765 0.40425-0.09275 0.62825-0.09275c0.23333 0 0.44683 0.034416 0.6405 0.10325s0.35933 0.16625 0.497 0.29225 0.245 0.27767 0.322 0.455 0.1155 0.3745 0.1155 0.5915c0 0.18667-0.027416 0.35933-0.08225 0.518s-0.12833 0.31033-0.2205 0.455-0.20008 0.28467-0.32375 0.42-0.25317 0.273-0.3885 0.413l-1.141 1.1655c0.10967-0.032667 0.21875-0.05775 0.32725-0.07525s0.21175-0.02625 0.30975-0.02625h1.2985z"/>
     <path d="m101.43 20.195c0.093334 0 0.16742 0.02625 0.22225 0.07875s0.08225 0.12192 0.08225 0.20825v0.518h-3.472v-0.287c0-0.058334 0.01225-0.11958 0.03675-0.18375s0.063583-0.12192 0.11725-0.17325l1.5365-1.54c0.12833-0.13067 0.24325-0.2555 0.34475-0.3745s0.18608-0.23683 0.25375-0.3535c0.067667-0.11667 0.11958-0.23508 0.15575-0.35525s0.05425-0.24675 0.05425-0.37975c0-0.12133-0.0175-0.22808-0.0525-0.32025s-0.084583-0.16975-0.14875-0.23275-0.14117-0.11025-0.231-0.14175-0.19075-0.04725-0.30275-0.04725c-0.10267 0-0.19775 0.014583-0.28525 0.04375s-0.16508 0.07-0.23275 0.1225-0.12483 0.11375-0.1715 0.18375c-0.046667 0.07-0.081666 0.147-0.105 0.231-0.039667 0.10733-0.091 0.1785-0.154 0.2135s-0.154 0.043167-0.273 0.0245l-0.455-0.0805c0.035-0.24267 0.10267-0.45558 0.203-0.63875s0.22575-0.336 0.37625-0.4585 0.32317-0.21467 0.518-0.2765 0.40425-0.09275 0.62825-0.09275c0.23334 0 0.44683 0.034416 0.6405 0.10325s0.35933 0.16625 0.497 0.29225 0.245 0.27767 0.322 0.455 0.1155 0.3745 0.1155 0.5915c0 0.18667-0.027416 0.35933-0.08225 0.518s-0.12833 0.31033-0.2205 0.455-0.20008 0.28467-0.32375 0.42-0.25317 0.273-0.3885 0.413l-1.141 1.1655c0.10967-0.032667 0.21875-0.05775 0.32725-0.07525s0.21175-0.02625 0.30975-0.02625h1.2985z"/>
     <path d="m65.378 17.35c0.035-0.24267 0.10267-0.45558 0.203-0.63875s0.22575-0.336 0.37625-0.4585 0.32317-0.21467 0.518-0.2765 0.40425-0.09275 0.62825-0.09275c0.23333 0 0.44392 0.03325 0.63175 0.09975s0.34825 0.15867 0.48125 0.2765 0.23508 0.25608 0.30625 0.41475 0.10675 0.33017 0.10675 0.5145c0 0.161-0.018083 0.30275-0.05425 0.42525s-0.088083 0.22925-0.15575 0.32025-0.15167 0.168-0.252 0.231-0.2135 0.1155-0.3395 0.1575c0.30333 0.095667 0.52967 0.2415 0.679 0.4375s0.224 0.44217 0.224 0.7385c0 0.252-0.046666 0.47483-0.14 0.6685s-0.21933 0.35642-0.378 0.48825-0.34242 0.23158-0.55125 0.29925-0.42992 0.1015-0.66325 0.1015c-0.25433 0-0.476-0.029166-0.665-0.0875s-0.3535-0.14467-0.4935-0.259-0.259-0.25433-0.357-0.42-0.182-0.357-0.252-0.574l0.3815-0.1575c0.10033-0.042 0.19425-0.053083 0.28175-0.03325s0.15108 0.067083 0.19075 0.14175c0.042 0.081667 0.088083 0.16217 0.13825 0.2415s0.11025 0.14992 0.18025 0.21175c0.07 0.061834 0.15225 0.112 0.24675 0.1505s0.20708 0.05775 0.33775 0.05775c0.147 0 0.27533-0.023916 0.385-0.07175s0.20125-0.11025 0.27475-0.18725 0.12833-0.16275 0.1645-0.25725 0.05425-0.18958 0.05425-0.28525c0-0.12133-0.012833-0.23158-0.0385-0.33075s-0.079333-0.18375-0.161-0.25375c-0.081667-0.07-0.19892-0.12483-0.35175-0.1645s-0.35758-0.0595-0.61425-0.0595v-0.616c0.21233-0.0023333 0.3885-0.022166 0.5285-0.0595s0.25142-0.08925 0.33425-0.15575 0.14058-0.14642 0.17325-0.23975 0.049-0.196 0.049-0.308c0-0.238-0.066499-0.41883-0.1995-0.5425s-0.31033-0.1855-0.532-0.1855c-0.10267 0-0.19717 0.014583-0.2835 0.04375s-0.16392 0.07-0.23275 0.1225-0.12658 0.11375-0.17325 0.18375c-0.046667 0.07-0.081667 0.147-0.105 0.231-0.039667 0.10733-0.091583 0.1785-0.15575 0.2135s-0.15458 0.043167-0.27125 0.0245l-0.455-0.0805z"/>
     <path d="m118.38 17.35c0.035-0.24267 0.10267-0.45558 0.203-0.63875s0.22575-0.336 0.37625-0.4585 0.32317-0.21467 0.518-0.2765 0.40425-0.09275 0.62825-0.09275c0.23333 0 0.44392 0.03325 0.63175 0.09975s0.34825 0.15867 0.48125 0.2765 0.23508 0.25608 0.30625 0.41475 0.10675 0.33017 0.10675 0.5145c0 0.161-0.018083 0.30275-0.05425 0.42525s-0.088083 0.22925-0.15575 0.32025-0.15167 0.168-0.252 0.231-0.2135 0.1155-0.3395 0.1575c0.30334 0.095667 0.52967 0.2415 0.679 0.4375s0.224 0.44217 0.224 0.7385c0 0.252-0.046666 0.47483-0.14 0.6685s-0.21933 0.35642-0.378 0.48825-0.34242 0.23158-0.55125 0.29925-0.42992 0.1015-0.66325 0.1015c-0.25434 0-0.476-0.029166-0.665-0.0875s-0.3535-0.14467-0.4935-0.259-0.259-0.25433-0.357-0.42-0.182-0.357-0.252-0.574l0.3815-0.1575c0.10033-0.042 0.19425-0.053083 0.28175-0.03325s0.15108 0.067083 0.19075 0.14175c0.042 0.081667 0.088083 0.16217 0.13825 0.2415s0.11025 0.14992 0.18025 0.21175 0.15225 0.112 0.24675 0.1505 0.20708 0.05775 0.33775 0.05775c0.147 0 0.27533-0.023916 0.385-0.07175s0.20125-0.11025 0.27475-0.18725 0.12833-0.16275 0.1645-0.25725 0.05425-0.18958 0.05425-0.28525c0-0.12133-0.012833-0.23158-0.0385-0.33075s-0.079333-0.18375-0.161-0.25375c-0.081667-0.07-0.19892-0.12483-0.35175-0.1645s-0.35758-0.0595-0.61425-0.0595v-0.616c0.21233-0.0023333 0.3885-0.022166 0.5285-0.0595s0.25142-0.08925 0.33425-0.15575 0.14058-0.14642 0.17325-0.23975 0.049-0.196 0.049-0.308c0-0.238-0.066499-0.41883-0.1995-0.5425s-0.31033-0.1855-0.532-0.1855c-0.10267 0-0.19717 0.014583-0.2835 0.04375s-0.16392 0.07-0.23275 0.1225-0.12658 0.11375-0.17325 0.18375c-0.046667 0.07-0.081667 0.147-0.105 0.231-0.039667 0.10733-0.091583 0.1785-0.15575 0.2135s-0.15458 0.043167-0.27125 0.0245l-0.455-0.0805z"/>
    </g>
    <path d="m52.622 20.352v0.6475h-2.8v-0.6475h1.0255v-2.9505c0-0.11667 0.0035-0.23683 0.0105-0.3605l-0.728 0.609c-0.042 0.032667-0.083416 0.053083-0.12425 0.06125s-0.079333 0.00875-0.1155 0.00175-0.06825-0.01925-0.09625-0.03675-0.049-0.03675-0.063-0.05775l-0.273-0.3745 1.5435-1.3125h0.7105v4.4205h0.91z" fill="#1E1E1E"/>
    <g fill="#FF9915">
     <path d="m89.622 20.352v0.6475h-2.8v-0.6475h1.0255v-2.9505c0-0.11667 0.0035-0.23683 0.0105-0.3605l-0.728 0.609c-0.042 0.032667-0.083416 0.053083-0.12425 0.06125s-0.079333 0.00875-0.1155 0.00175-0.06825-0.01925-0.09625-0.03675-0.049-0.03675-0.063-0.05775l-0.273-0.3745 1.5435-1.3125h0.7105v4.4205h0.91z"/>
     <path d="m111.62 20.352v0.6475h-2.8v-0.6475h1.0255v-2.9505c0-0.11667 0.0035-0.23683 0.0105-0.3605l-0.728 0.609c-0.042 0.032667-0.083416 0.053083-0.12425 0.06125s-0.079333 0.00875-0.1155 0.00175-0.06825-0.01925-0.09625-0.03675-0.049-0.03675-0.063-0.05775l-0.273-0.3745 1.5435-1.3125h0.7105v4.4205h0.91z"/>
     <g transform="translate(0 15)">
      <path d="m4.8825 0.9215v5.0785h-0.5425c-0.081667 0-0.1505-0.013417-0.2065-0.04025s-0.11083-0.072916-0.1645-0.13825l-2.5305-3.22c7e-3 0.081667 0.01225 0.16217 0.01575 0.2415s0.00525 0.15283 0.00525 0.2205v2.9365h-0.9275v-5.0785h0.553c0.044334 0 0.08225 0.00175 0.11375 0.00525 0.0315 0.0035 0.060083 0.011667 0.08575 0.0245 0.025667 0.012833 0.050167 0.02975 0.0735 0.05075 0.023333 0.021 0.049 0.049 0.077 0.084l2.548 3.234c-0.0093334-0.088667-0.016333-0.17442-0.021-0.25725s-7e-3 -0.16158-7e-3 -0.23625v-2.905h0.9275zm5.971 2.5375c0 0.371-0.062416 0.71517-0.18725 1.0325s-0.301 0.5915-0.5285 0.8225c-0.2275 0.231-0.50108 0.41242-0.82075 0.54425-0.31967 0.13183-0.67433 0.19775-1.064 0.19775-0.38967 0-0.74433-0.065916-1.064-0.19775-0.31967-0.13183-0.59383-0.31325-0.8225-0.54425-0.22867-0.231-0.40542-0.50517-0.53025-0.8225s-0.18725-0.6615-0.18725-1.0325c0-0.371 0.062416-0.71458 0.18725-1.0308s0.30158-0.58975 0.53025-0.82075c0.22867-0.231 0.50283-0.41242 0.8225-0.54425 0.31967-0.13183 0.67433-0.19775 1.064-0.19775 0.38967 0 0.74433 0.065916 1.064 0.19775 0.31967 0.13183 0.59325 0.31383 0.82075 0.546 0.2275 0.23217 0.40367 0.50633 0.5285 0.8225s0.18725 0.65858 0.18725 1.0272zm-1.0745 0c0-0.266-0.035-0.50458-0.105-0.71575s-0.17092-0.39083-0.30275-0.539-0.29167-0.26133-0.4795-0.3395-0.40075-0.11725-0.63875-0.11725-0.4515 0.039083-0.6405 0.11725c-0.189 0.078167-0.34942 0.19133-0.48125 0.3395s-0.23275 0.32783-0.30275 0.539-0.105 0.44975-0.105 0.71575c0 0.26833 0.035 0.50808 0.105 0.71925s0.17092 0.39025 0.30275 0.53725c0.13183 0.147 0.29225 0.25958 0.48125 0.33775 0.189 0.078167 0.4025 0.11725 0.6405 0.11725s0.45092-0.039083 0.63875-0.11725 0.34767-0.19075 0.4795-0.33775c0.13183-0.147 0.23275-0.32608 0.30275-0.53725s0.105-0.45092 0.105-0.71925zm4.564-1.715v1.4035h1.827v0.826h-1.827v2.0265h-1.057v-5.0785h3.234v0.8225h-2.177zm8.505-0.8225v5.0785h-0.9275v-3.1185c0-0.065334 0.00175-0.13533 0.00525-0.21s0.0099166-0.1505 0.01925-0.2275l-1.4525 2.7545c-0.079334 0.15167-0.20183 0.2275-0.3675 0.2275h-0.147c-0.081667 0-0.154-0.01925-0.217-0.05775s-0.11317-0.095083-0.1505-0.16975l-1.4595-2.765c7e-3 0.081667 0.012833 0.16042 0.0175 0.23625s7e-3 0.14642 7e-3 0.21175v3.1185h-0.9275v-5.0785h0.798c0.044334 0 0.084 0.0011667 0.119 0.0035s0.065916 0.0087499 0.09275 0.01925c0.026834 0.0105 0.051333 0.026833 0.0735 0.049 0.022167 0.022167 0.04375 0.053083 0.06475 0.09275l1.421 2.709c0.044334 0.081667 0.08575 0.16567 0.12425 0.252 0.0385 0.086334 0.07525 0.175 0.11025 0.266 0.035-0.093334 0.07175-0.18433 0.11025-0.273s0.079916-0.17383 0.12425-0.2555l1.4105-2.6985c0.021-0.039667 0.043167-0.070583 0.0665-0.09275 0.023334-0.022167 0.048416-0.0385 0.07525-0.049 0.026834-0.0105 0.057166-0.016917 0.091-0.01925s0.074083-0.0035 0.12075-0.0035h0.798z"/>
     </g>
    </g>
   </g>
   <g transform="translate(6 134)">
    <g fill="#fff">
     <path d="m10.902 1.459c0 0.44334-0.04783 0.82833-0.1435 1.155s-0.2275 0.59675-0.3955 0.81025-0.36692 0.37217-0.59675 0.476c-0.22983 0.10383-0.47775 0.15575-0.74375 0.15575s-0.51333-0.051916-0.742-0.15575c-0.22867-0.10383-0.42583-0.2625-0.5915-0.476s-0.29575-0.48358-0.39025-0.81025-0.14175-0.71166-0.14175-1.155c0-0.44334 0.04725-0.82775 0.14175-1.1532 0.094501-0.3255 0.22458-0.595 0.39025-0.8085s0.36283-0.37217 0.5915-0.476c0.22867-0.10383 0.476-0.15575 0.742-0.15575s0.51392 0.051916 0.74375 0.15575c0.22983 0.10383 0.42875 0.2625 0.59675 0.476s0.29983 0.483 0.3955 0.8085c0.09567 0.3255 0.1435 0.70991 0.1435 1.1532zm-0.9975 0c0-0.35934-0.025083-0.65567-0.07525-0.889s-0.11608-0.41767-0.19775-0.553c-0.081667-0.13533-0.17558-0.22983-0.28175-0.2835-0.10617-0.053667-0.21525-0.0805-0.32725-0.0805s-0.21992 0.026833-0.32375 0.0805c-0.10383 0.053667-0.196 0.14817-0.2765 0.2835-0.0805 0.13533-0.14525 0.31967-0.19425 0.553-0.049 0.23333-0.0735 0.52966-0.0735 0.889 0 0.36167 0.0245 0.65917 0.0735 0.8925s0.11375 0.41767 0.19425 0.553c0.0805 0.13533 0.17267 0.22983 0.2765 0.2835 0.10383 0.053667 0.21175 0.0805 0.32375 0.0805s0.22108-0.026833 0.32725-0.0805c0.10617-0.053667 0.20008-0.14817 0.28175-0.2835s0.14758-0.31967 0.19775-0.553 0.07525-0.53083 0.07525-0.8925zm4.802 1.8305v0.7105h-2.849v-0.7105h1.008v-2.779c0-0.060667 0.0012-0.1225 0.0035-0.1855 0.0023-0.063 0.0058-0.12717 0.0105-0.1925l-0.665 0.553c-0.04667 0.035-0.09217 0.057167-0.1365 0.0665-0.04433 0.00933-0.08633 0.00992-0.126 0.00175s-0.07467-0.022167-0.105-0.042-0.05367-0.04025-0.07-0.06125l-0.3045-0.4095 1.561-1.323h0.7945v4.3715z"/>
     <path d="m39.902 1.403c0 0.44334-0.04783 0.82833-0.1435 1.155s-0.2275 0.59675-0.3955 0.81025-0.36692 0.37217-0.59675 0.476c-0.22984 0.10383-0.47775 0.15575-0.74375 0.15575s-0.51333-0.051916-0.742-0.15575c-0.22867-0.10383-0.42583-0.2625-0.5915-0.476-0.16567-0.2135-0.29575-0.48358-0.39025-0.81025s-0.14175-0.71166-0.14175-1.155c0-0.44334 0.04725-0.82775 0.14175-1.1532 0.0945-0.3255 0.22458-0.595 0.39025-0.8085 0.16567-0.2135 0.36283-0.37217 0.5915-0.476 0.22867-0.10383 0.476-0.15575 0.742-0.15575s0.51392 0.051916 0.74375 0.15575c0.22983 0.10383 0.42875 0.2625 0.59675 0.476s0.29983 0.483 0.3955 0.8085c0.09567 0.3255 0.1435 0.70991 0.1435 1.1532zm-0.9975 0c0-0.35934-0.02508-0.65567-0.07525-0.889s-0.11608-0.41767-0.19775-0.553c-0.08167-0.13533-0.17558-0.22983-0.28175-0.2835-0.10617-0.053667-0.21525-0.0805-0.32725-0.0805s-0.21992 0.026833-0.32375 0.0805-0.196 0.14817-0.2765 0.2835c-0.0805 0.13533-0.14525 0.31967-0.19425 0.553s-0.0735 0.52966-0.0735 0.889c0 0.36167 0.0245 0.65917 0.0735 0.8925s0.11375 0.41767 0.19425 0.553 0.17267 0.22983 0.2765 0.2835c0.10383 0.053667 0.21175 0.0805 0.32375 0.0805s0.22108-0.026833 0.32725-0.0805 0.20008-0.14817 0.28175-0.2835c0.08167-0.13533 0.14758-0.31967 0.19775-0.553 0.05017-0.23333 0.07525-0.53083 0.07525-0.8925zm5.6815 1.6555c0.105 0 0.18725 0.029166 0.24675 0.0875s0.08925 0.13533 0.08925 0.231v0.567h-3.521v-0.315c0-0.060667 0.01283-0.12658 0.0385-0.19775s0.06883-0.13592 0.1295-0.19425l1.505-1.5085c0.12833-0.12833 0.2415-0.25142 0.3395-0.36925 0.098-0.11783 0.17967-0.23333 0.245-0.3465 0.06533-0.11317 0.11433-0.22808 0.147-0.34475 0.03267-0.11667 0.049-0.23917 0.049-0.3675 0-0.22633-0.05833-0.39842-0.175-0.51625-0.11667-0.11783-0.28117-0.17675-0.4935-0.17675-0.09333 0-0.17908 0.013416-0.25725 0.04025-0.07817 0.026834-0.14817 0.063583-0.21 0.11025-0.06183 0.046667-0.11492 0.1015-0.15925 0.1645-0.04433 0.063-0.077 0.13183-0.098 0.2065-0.042 0.11667-0.09858 0.19425-0.16975 0.23275-0.07117 0.0385-0.17208 0.04725-0.30275 0.02625l-0.511-0.091c0.03733-0.24733 0.10733-0.46433 0.21-0.651s0.231-0.34183 0.385-0.4655c0.154-0.12367 0.33017-0.21642 0.5285-0.27825 0.19833-0.061834 0.41183-0.09275 0.6405-0.09275 0.24034 0 0.45908 0.035583 0.65625 0.10675s0.36575 0.17033 0.50575 0.2975 0.2485 0.28058 0.3255 0.46025c0.077 0.17967 0.1155 0.378 0.1155 0.595 0 0.18667-0.02683 0.35933-0.0805 0.518s-0.12658 0.30975-0.21875 0.45325c-0.09217 0.1435-0.19892 0.28292-0.32025 0.41825s-0.24967 0.27183-0.385 0.4095l-1.078 1.1025c0.119-0.035 0.23683-0.062417 0.3535-0.08225s0.22633-0.02975 0.329-0.02975z"/>
     <path d="m69.902 1.403c0 0.44334-0.04783 0.82833-0.1435 1.155s-0.2275 0.59675-0.3955 0.81025-0.36692 0.37217-0.59675 0.476c-0.22983 0.10383-0.47775 0.15575-0.74375 0.15575s-0.51333-0.051916-0.742-0.15575c-0.22867-0.10383-0.42583-0.2625-0.5915-0.476-0.16567-0.2135-0.29575-0.48358-0.39025-0.81025s-0.14175-0.71166-0.14175-1.155c0-0.44334 0.04725-0.82775 0.14175-1.1532 0.0945-0.3255 0.22458-0.595 0.39025-0.8085 0.16567-0.2135 0.36283-0.37217 0.5915-0.476 0.22867-0.10383 0.476-0.15575 0.742-0.15575s0.51392 0.051916 0.74375 0.15575c0.22983 0.10383 0.42875 0.2625 0.59675 0.476s0.29983 0.483 0.3955 0.8085c0.09567 0.3255 0.1435 0.70991 0.1435 1.1532zm-0.9975 0c0-0.35934-0.02508-0.65567-0.07525-0.889s-0.11608-0.41767-0.19775-0.553c-0.08167-0.13533-0.17558-0.22983-0.28175-0.2835-0.10617-0.053667-0.21525-0.0805-0.32725-0.0805s-0.21992 0.026833-0.32375 0.0805-0.196 0.14817-0.2765 0.2835c-0.0805 0.13533-0.14525 0.31967-0.19425 0.553s-0.0735 0.52966-0.0735 0.889c0 0.36167 0.0245 0.65917 0.0735 0.8925s0.11375 0.41767 0.19425 0.553 0.17267 0.22983 0.2765 0.2835c0.10383 0.053667 0.21175 0.0805 0.32375 0.0805s0.22108-0.026833 0.32725-0.0805 0.20008-0.14817 0.28175-0.2835c0.08167-0.13533 0.14758-0.31967 0.19775-0.553 0.05017-0.23333 0.07525-0.53083 0.07525-0.8925zm2.6015-1.106c0.03733-0.24733 0.10733-0.46433 0.21-0.651s0.231-0.34183 0.385-0.4655c0.154-0.12367 0.32958-0.21642 0.52675-0.27825 0.19717-0.061834 0.41008-0.09275 0.63875-0.09275 0.24267 0 0.46025 0.034416 0.65275 0.10325s0.35525 0.16275 0.48825 0.28175c0.133 0.119 0.23508 0.25783 0.30625 0.4165 0.07117 0.15867 0.10675 0.329 0.10675 0.511 0 0.161-0.01692 0.30275-0.05075 0.42525s-0.084 0.22925-0.1505 0.32025c-0.0665 0.091001-0.14817 0.168-0.245 0.231-0.09683 0.063-0.20825 0.1155-0.33425 0.1575 0.58334 0.19133 0.875 0.57983 0.875 1.1655 0 0.259-0.04783 0.48708-0.1435 0.68425s-0.224 0.36225-0.385 0.49525-0.34825 0.23275-0.56175 0.29925c-0.2135 0.0665-0.43692 0.09975-0.67025 0.09975-0.24734 0-0.4655-0.028-0.6545-0.084s-0.35525-0.14-0.49875-0.252-0.26658-0.25258-0.36925-0.42175-0.1925-0.36692-0.2695-0.59325l0.427-0.175c0.112-0.046667 0.21642-0.0595 0.31325-0.0385 0.09683 0.021 0.16625 0.072333 0.20825 0.154 0.04667 0.088667 0.09625 0.17033 0.14875 0.245s0.11142 0.13942 0.17675 0.19425c0.06533 0.054834 0.13942 0.097417 0.22225 0.12775 0.08283 0.030333 0.17792 0.0455 0.28525 0.0455 0.13533 0 0.25317-0.022166 0.3535-0.0665s0.18433-0.10208 0.252-0.17325c0.06767-0.071167 0.11842-0.15167 0.15225-0.2415 0.03383-0.089834 0.05075-0.17908 0.05075-0.26775 0-0.11667-0.0105-0.22225-0.0315-0.31675-0.021-0.094501-0.06942-0.175-0.14525-0.2415-0.07583-0.0665-0.18783-0.11783-0.336-0.154-0.14817-0.036167-0.34942-0.05425-0.60375-0.05425v-0.679c0.21233 0 0.38617-0.0175 0.5215-0.0525s0.2415-0.084 0.3185-0.147 0.13008-0.13883 0.15925-0.2275c0.02917-0.088667 0.04375-0.1855 0.04375-0.2905 0-0.22167-0.05775-0.39083-0.17325-0.5075-0.1155-0.11667-0.27942-0.175-0.49175-0.175-0.09333 0-0.17908 0.013416-0.25725 0.04025-0.07817 0.026834-0.14817 0.063583-0.21 0.11025-0.06183 0.046667-0.11492 0.1015-0.15925 0.1645-0.04433 0.063-0.077 0.13183-0.098 0.2065-0.04433 0.11667-0.1015 0.19425-0.1715 0.23275-0.07 0.0385-0.1715 0.04725-0.3045 0.02625z"/>
     <path d="m102.88-1.0785v5.0785h-0.5425c-0.0817 0-0.1505-0.013416-0.2065-0.04025-0.056-0.026833-0.11083-0.072916-0.1645-0.13825l-2.5305-3.22c7e-3 0.081667 0.01225 0.16217 0.01575 0.2415 0.0035 0.079334 0.0053 0.15283 0.0053 0.2205v2.9365h-0.92755v-5.0785h0.553c0.04433 0 0.08225 0.00175 0.11375 0.00525s0.06008 0.011667 0.08575 0.0245 0.05017 0.02975 0.0735 0.05075c0.02333 0.021 0.049 0.049 0.077 0.084l2.548 3.234c-9e-3 -0.088667-0.0163-0.17442-0.021-0.25725-5e-3 -0.082834-7e-3 -0.16158-7e-3 -0.23625v-2.905z"/>
    </g>
    <path d="m41.426 20.114c0.105 0 0.18725 0.029166 0.24675 0.0875s0.08925 0.13533 0.08925 0.231v0.567h-3.521v-0.315c0-0.060667 0.012833-0.12658 0.0385-0.19775s0.068833-0.13592 0.1295-0.19425l1.505-1.5085c0.12833-0.12833 0.2415-0.25142 0.3395-0.36925s0.17967-0.23333 0.245-0.3465 0.11433-0.22808 0.147-0.34475c0.032667-0.11667 0.049-0.23917 0.049-0.3675 0-0.22633-0.058333-0.39842-0.175-0.51625-0.11667-0.11783-0.28117-0.17675-0.4935-0.17675-0.093334 0-0.17908 0.013416-0.25725 0.04025s-0.14817 0.063583-0.21 0.11025-0.11492 0.1015-0.15925 0.1645-0.077 0.13183-0.098 0.2065c-0.042 0.11667-0.098583 0.19425-0.16975 0.23275s-0.17208 0.04725-0.30275 0.02625l-0.511-0.091c0.037334-0.24733 0.10733-0.46433 0.21-0.651s0.231-0.34183 0.385-0.4655 0.33017-0.21642 0.5285-0.27825 0.41183-0.09275 0.6405-0.09275c0.24033 0 0.45908 0.035583 0.65625 0.10675s0.36575 0.17033 0.50575 0.2975 0.2485 0.28058 0.3255 0.46025 0.1155 0.378 0.1155 0.595c0 0.18667-0.026833 0.35933-0.0805 0.518s-0.12658 0.30975-0.21875 0.45325-0.19892 0.28292-0.32025 0.41825-0.24967 0.27183-0.385 0.4095l-1.078 1.1025c0.119-0.035 0.23683-0.062417 0.3535-0.08225 0.11667-0.019833 0.22633-0.02975 0.329-0.02975h1.141z" fill="#FF9915"/>
    <path d="m79.426 20.114c0.105 0 0.18725 0.029166 0.24675 0.0875s0.08925 0.13533 0.08925 0.231v0.567h-3.521v-0.315c0-0.060667 0.012833-0.12658 0.0385-0.19775s0.068833-0.13592 0.1295-0.19425l1.505-1.5085c0.12833-0.12833 0.2415-0.25142 0.3395-0.36925s0.17967-0.23333 0.245-0.3465 0.11433-0.22808 0.147-0.34475c0.032667-0.11667 0.049-0.23917 0.049-0.3675 0-0.22633-0.058333-0.39842-0.175-0.51625-0.11667-0.11783-0.28117-0.17675-0.4935-0.17675-0.093334 0-0.17908 0.013416-0.25725 0.04025s-0.14817 0.063583-0.21 0.11025-0.11492 0.1015-0.15925 0.1645-0.077 0.13183-0.098 0.2065c-0.042 0.11667-0.098583 0.19425-0.16975 0.23275s-0.17208 0.04725-0.30275 0.02625l-0.511-0.091c0.037334-0.24733 0.10733-0.46433 0.21-0.651s0.231-0.34183 0.385-0.4655 0.33017-0.21642 0.5285-0.27825 0.41183-0.09275 0.6405-0.09275c0.24033 0 0.45908 0.035583 0.65625 0.10675s0.36575 0.17033 0.50575 0.2975 0.2485 0.28058 0.3255 0.46025 0.1155 0.378 0.1155 0.595c0 0.18667-0.026833 0.35933-0.0805 0.518s-0.12658 0.30975-0.21875 0.45325-0.19892 0.28292-0.32025 0.41825-0.24967 0.27183-0.385 0.4095l-1.078 1.1025c0.119-0.035 0.23683-0.062417 0.3535-0.08225 0.11667-0.019833 0.22633-0.02975 0.329-0.02975h1.141z" fill="#1E1E1E"/>
    <path d="m101.43 20.114c0.105 0 0.18725 0.029166 0.24675 0.0875s0.08925 0.13533 0.08925 0.231v0.567h-3.521v-0.315c0-0.060667 0.012833-0.12658 0.0385-0.19775s0.068833-0.13592 0.1295-0.19425l1.505-1.5085c0.12833-0.12833 0.2415-0.25142 0.3395-0.36925s0.17967-0.23333 0.245-0.3465 0.11433-0.22808 0.147-0.34475c0.032667-0.11667 0.049-0.23917 0.049-0.3675 0-0.22633-0.058333-0.39842-0.175-0.51625s-0.28117-0.17675-0.4935-0.17675c-0.093334 0-0.17908 0.013416-0.25725 0.04025s-0.14817 0.063583-0.21 0.11025-0.11492 0.1015-0.15925 0.1645-0.077 0.13183-0.098 0.2065c-0.042 0.11667-0.098583 0.19425-0.16975 0.23275s-0.17208 0.04725-0.30275 0.02625l-0.511-0.091c0.037334-0.24733 0.10733-0.46433 0.21-0.651s0.231-0.34183 0.385-0.4655 0.33017-0.21642 0.5285-0.27825 0.41183-0.09275 0.6405-0.09275c0.24034 0 0.45908 0.035583 0.65625 0.10675s0.36575 0.17033 0.50575 0.2975 0.2485 0.28058 0.3255 0.46025 0.1155 0.378 0.1155 0.595c0 0.18667-0.026833 0.35933-0.0805 0.518s-0.12658 0.30975-0.21875 0.45325-0.19892 0.28292-0.32025 0.41825-0.24967 0.27183-0.385 0.4095l-1.078 1.1025c0.119-0.035 0.23683-0.062417 0.3535-0.08225 0.11667-0.019833 0.22633-0.02975 0.329-0.02975h1.141z" fill="#FF9915"/>
    <path d="m65.346 17.353c0.037334-0.24733 0.10733-0.46433 0.21-0.651s0.231-0.34183 0.385-0.4655 0.32958-0.21642 0.52675-0.27825 0.41008-0.09275 0.63875-0.09275c0.24267 0 0.46025 0.034416 0.65275 0.10325s0.35525 0.16275 0.48825 0.28175 0.23508 0.25783 0.30625 0.4165 0.10675 0.329 0.10675 0.511c0 0.161-0.016916 0.30275-0.05075 0.42525s-0.084 0.22925-0.1505 0.32025-0.14817 0.168-0.245 0.231-0.20825 0.1155-0.33425 0.1575c0.58334 0.19133 0.875 0.57983 0.875 1.1655 0 0.259-0.047833 0.48708-0.1435 0.68425s-0.224 0.36225-0.385 0.49525-0.34825 0.23275-0.56175 0.29925-0.43692 0.09975-0.67025 0.09975c-0.24733 0-0.4655-0.028-0.6545-0.084s-0.35525-0.14-0.49875-0.252-0.26658-0.25258-0.36925-0.42175-0.1925-0.36692-0.2695-0.59325l0.427-0.175c0.112-0.046667 0.21642-0.0595 0.31325-0.0385s0.16625 0.072333 0.20825 0.154c0.046667 0.088667 0.09625 0.17033 0.14875 0.245s0.11142 0.13942 0.17675 0.19425 0.13942 0.097416 0.22225 0.12775 0.17792 0.0455 0.28525 0.0455c0.13533 0 0.25317-0.022166 0.3535-0.0665s0.18433-0.10208 0.252-0.17325 0.11842-0.15167 0.15225-0.2415 0.05075-0.17908 0.05075-0.26775c0-0.11667-0.0105-0.22225-0.0315-0.31675s-0.069416-0.175-0.14525-0.2415-0.18783-0.11783-0.336-0.154-0.34942-0.05425-0.60375-0.05425v-0.679c0.21233 0 0.38617-0.0175 0.5215-0.0525s0.2415-0.084 0.3185-0.147 0.13008-0.13883 0.15925-0.2275 0.04375-0.1855 0.04375-0.2905c0-0.22167-0.057749-0.39083-0.17325-0.5075-0.1155-0.11667-0.27942-0.175-0.49175-0.175-0.093334 0-0.17908 0.013416-0.25725 0.04025s-0.14817 0.063583-0.21 0.11025-0.11492 0.1015-0.15925 0.1645-0.077 0.13183-0.098 0.2065c-0.044334 0.11667-0.1015 0.19425-0.1715 0.23275-0.07 0.0385-0.1715 0.04725-0.3045 0.02625l-0.5075-0.091z" fill="#1E1E1E"/>
    <path d="m118.35 17.353c0.037334-0.24733 0.10733-0.46433 0.21-0.651s0.231-0.34183 0.385-0.4655 0.32958-0.21642 0.52675-0.27825 0.41008-0.09275 0.63875-0.09275c0.24267 0 0.46025 0.034416 0.65275 0.10325s0.35525 0.16275 0.48825 0.28175 0.23508 0.25783 0.30625 0.4165 0.10675 0.329 0.10675 0.511c0 0.161-0.016916 0.30275-0.05075 0.42525s-0.084 0.22925-0.1505 0.32025-0.14817 0.168-0.245 0.231-0.20825 0.1155-0.33425 0.1575c0.58334 0.19133 0.875 0.57983 0.875 1.1655 0 0.259-0.047833 0.48708-0.1435 0.68425s-0.224 0.36225-0.385 0.49525-0.34825 0.23275-0.56175 0.29925-0.43692 0.09975-0.67025 0.09975c-0.24734 0-0.4655-0.028-0.6545-0.084s-0.35525-0.14-0.49875-0.252-0.26658-0.25258-0.36925-0.42175-0.1925-0.36692-0.2695-0.59325l0.427-0.175c0.112-0.046667 0.21642-0.0595 0.31325-0.0385s0.16625 0.072333 0.20825 0.154c0.046667 0.088667 0.09625 0.17033 0.14875 0.245s0.11142 0.13942 0.17675 0.19425 0.13942 0.097416 0.22225 0.12775 0.17792 0.0455 0.28525 0.0455c0.13533 0 0.25317-0.022166 0.3535-0.0665s0.18433-0.10208 0.252-0.17325 0.11842-0.15167 0.15225-0.2415 0.05075-0.17908 0.05075-0.26775c0-0.11667-0.0105-0.22225-0.0315-0.31675s-0.069416-0.175-0.14525-0.2415-0.18783-0.11783-0.336-0.154-0.34942-0.05425-0.60375-0.05425v-0.679c0.21233 0 0.38617-0.0175 0.5215-0.0525s0.2415-0.084 0.3185-0.147 0.13008-0.13883 0.15925-0.2275 0.04375-0.1855 0.04375-0.2905c0-0.22167-0.057749-0.39083-0.17325-0.5075-0.1155-0.11667-0.27942-0.175-0.49175-0.175-0.093334 0-0.17908 0.013416-0.25725 0.04025s-0.14817 0.063583-0.21 0.11025-0.11492 0.1015-0.15925 0.1645-0.077 0.13183-0.098 0.2065c-0.044334 0.11667-0.1015 0.19425-0.1715 0.23275s-0.1715 0.04725-0.3045 0.02625l-0.5075-0.091z" fill="#FF9915"/>
    <path d="m52.647 20.29v0.7105h-2.849v-0.7105h1.008v-2.779c0-0.060667 0.0011667-0.1225 0.0035-0.1855s0.0058333-0.12717 0.0105-0.1925l-0.665 0.553c-0.046667 0.035-0.092166 0.057167-0.1365 0.0665s-0.086333 0.0099167-0.126 0.00175-0.074666-0.022167-0.105-0.042-0.053667-0.04025-0.07-0.06125l-0.3045-0.4095 1.561-1.323h0.7945v4.3715h0.8785z" fill="#FF9915"/>
    <path d="m89.647 20.29v0.7105h-2.849v-0.7105h1.008v-2.779c0-0.060667 0.0011667-0.1225 0.0035-0.1855s0.0058333-0.12717 0.0105-0.1925l-0.665 0.553c-0.046667 0.035-0.092166 0.057167-0.1365 0.0665s-0.086333 0.0099167-0.126 0.00175-0.074666-0.022167-0.105-0.042-0.053667-0.04025-0.07-0.06125l-0.3045-0.4095 1.561-1.323h0.7945v4.3715h0.8785z" fill="#1E1E1E"/>
    <path d="m111.65 20.29v0.7105h-2.849v-0.7105h1.008v-2.779c0-0.060667 0.001167-0.1225 0.0035-0.1855s0.005833-0.12717 0.0105-0.1925l-0.665 0.553c-0.046667 0.035-0.092166 0.057167-0.1365 0.0665s-0.086333 0.0099167-0.126 0.00175-0.074667-0.022167-0.105-0.042-0.053667-0.04025-0.07-0.06125l-0.3045-0.4095 1.561-1.323h0.7945v4.3715h0.8785z" fill="#FF9915"/>
    <g transform="translate(0 15)" fill="#FF9915">
     <path d="m4.8825 0.9215v5.0785h-0.5425c-0.081667 0-0.1505-0.013417-0.2065-0.04025s-0.11083-0.072916-0.1645-0.13825l-2.5305-3.22c7e-3 0.081667 0.01225 0.16217 0.01575 0.2415s0.00525 0.15283 0.00525 0.2205v2.9365h-0.9275v-5.0785h0.553c0.044334 0 0.08225 0.00175 0.11375 0.00525 0.0315 0.0035 0.060083 0.011667 0.08575 0.0245 0.025667 0.012833 0.050167 0.02975 0.0735 0.05075 0.023333 0.021 0.049 0.049 0.077 0.084l2.548 3.234c-0.0093334-0.088667-0.016333-0.17442-0.021-0.25725s-7e-3 -0.16158-7e-3 -0.23625v-2.905h0.9275zm5.971 2.5375c0 0.371-0.062416 0.71517-0.18725 1.0325s-0.301 0.5915-0.5285 0.8225c-0.2275 0.231-0.50108 0.41242-0.82075 0.54425-0.31967 0.13183-0.67433 0.19775-1.064 0.19775-0.38967 0-0.74433-0.065916-1.064-0.19775-0.31967-0.13183-0.59383-0.31325-0.8225-0.54425-0.22867-0.231-0.40542-0.50517-0.53025-0.8225s-0.18725-0.6615-0.18725-1.0325c0-0.371 0.062416-0.71458 0.18725-1.0308s0.30158-0.58975 0.53025-0.82075c0.22867-0.231 0.50283-0.41242 0.8225-0.54425 0.31967-0.13183 0.67433-0.19775 1.064-0.19775 0.38967 0 0.74433 0.065916 1.064 0.19775 0.31967 0.13183 0.59325 0.31383 0.82075 0.546 0.2275 0.23217 0.40367 0.50633 0.5285 0.8225s0.18725 0.65858 0.18725 1.0272zm-1.0745 0c0-0.266-0.035-0.50458-0.105-0.71575s-0.17092-0.39083-0.30275-0.539-0.29167-0.26133-0.4795-0.3395-0.40075-0.11725-0.63875-0.11725-0.4515 0.039083-0.6405 0.11725c-0.189 0.078167-0.34942 0.19133-0.48125 0.3395s-0.23275 0.32783-0.30275 0.539-0.105 0.44975-0.105 0.71575c0 0.26833 0.035 0.50808 0.105 0.71925s0.17092 0.39025 0.30275 0.53725c0.13183 0.147 0.29225 0.25958 0.48125 0.33775 0.189 0.078167 0.4025 0.11725 0.6405 0.11725s0.45092-0.039083 0.63875-0.11725 0.34767-0.19075 0.4795-0.33775c0.13183-0.147 0.23275-0.32608 0.30275-0.53725s0.105-0.45092 0.105-0.71925zm4.564-1.715v1.4035h1.827v0.826h-1.827v2.0265h-1.057v-5.0785h3.234v0.8225h-2.177zm8.505-0.8225v5.0785h-0.9275v-3.1185c0-0.065334 0.00175-0.13533 0.00525-0.21s0.0099166-0.1505 0.01925-0.2275l-1.4525 2.7545c-0.079334 0.15167-0.20183 0.2275-0.3675 0.2275h-0.147c-0.081667 0-0.154-0.01925-0.217-0.05775s-0.11317-0.095083-0.1505-0.16975l-1.4595-2.765c7e-3 0.081667 0.012833 0.16042 0.0175 0.23625s7e-3 0.14642 7e-3 0.21175v3.1185h-0.9275v-5.0785h0.798c0.044334 0 0.084 0.0011667 0.119 0.0035s0.065916 0.0087499 0.09275 0.01925c0.026834 0.0105 0.051333 0.026833 0.0735 0.049 0.022167 0.022167 0.04375 0.053083 0.06475 0.09275l1.421 2.709c0.044334 0.081667 0.08575 0.16567 0.12425 0.252 0.0385 0.086334 0.07525 0.175 0.11025 0.266 0.035-0.093334 0.07175-0.18433 0.11025-0.273s0.079916-0.17383 0.12425-0.2555l1.4105-2.6985c0.021-0.039667 0.043167-0.070583 0.0665-0.09275 0.023334-0.022167 0.048416-0.0385 0.07525-0.049 0.026834-0.0105 0.057166-0.016917 0.091-0.01925s0.074083-0.0035 0.12075-0.0035h0.798z"/>
    </g>
   </g>
   <g transform="translate(6 186)">
    <g fill="#fff">
     <path d="m10.902 1.4533c0 0.44334-0.04783 0.82833-0.1435 1.155-0.09567 0.32667-0.2275 0.59675-0.3955 0.81025s-0.36692 0.37217-0.59675 0.476c-0.22983 0.10383-0.47775 0.15575-0.74375 0.15575s-0.51333-0.051916-0.742-0.15575c-0.22867-0.10383-0.42583-0.2625-0.5915-0.476-0.16567-0.2135-0.29575-0.48358-0.39025-0.81025-0.0945-0.32667-0.14175-0.71166-0.14175-1.155 0-0.44334 0.04725-0.82775 0.14175-1.1533 0.094501-0.3255 0.22458-0.595 0.39025-0.8085s0.36283-0.37217 0.5915-0.476c0.22867-0.10383 0.476-0.15575 0.742-0.15575s0.51392 0.051916 0.74375 0.15575c0.22983 0.10383 0.42875 0.2625 0.59675 0.476s0.29983 0.483 0.3955 0.8085c0.09567 0.3255 0.1435 0.70991 0.1435 1.1533zm-0.9975 0c0-0.35934-0.025083-0.65567-0.07525-0.889-0.050167-0.23333-0.11608-0.41767-0.19775-0.553-0.081667-0.13533-0.17558-0.22983-0.28175-0.2835-0.10617-0.053667-0.21525-0.0805-0.32725-0.0805s-0.21992 0.026833-0.32375 0.0805c-0.10383 0.053667-0.196 0.14817-0.2765 0.2835-0.0805 0.13533-0.14525 0.31967-0.19425 0.553-0.049 0.23334-0.0735 0.52967-0.0735 0.889 0 0.36167 0.0245 0.65917 0.0735 0.8925 0.049 0.23333 0.11375 0.41767 0.19425 0.553 0.0805 0.13533 0.17267 0.22983 0.2765 0.2835 0.10383 0.053667 0.21175 0.0805 0.32375 0.0805s0.22108-0.026833 0.32725-0.0805c0.10617-0.053668 0.20008-0.14817 0.28175-0.2835 0.081667-0.13533 0.14758-0.31967 0.19775-0.553 0.050167-0.23333 0.07525-0.53083 0.07525-0.8925zm4.802 1.8305v0.7105h-2.849v-0.7105h1.008v-2.779c0-0.060667 0.0012-0.1225 0.0035-0.1855 0.0023-0.063 0.0058-0.12717 0.0105-0.1925l-0.665 0.553c-0.04667 0.035-0.09217 0.057167-0.1365 0.0665-0.04433 0.00933-0.08633 0.00992-0.126 0.00175s-0.07467-0.022167-0.105-0.042c-0.03033-0.019834-0.05367-0.04025-0.07-0.06125l-0.3045-0.4095 1.561-1.323h0.7945v4.3715z"/>
     <path d="m39.902 1.403c0 0.44334-0.04783 0.82833-0.1435 1.155-0.09567 0.32667-0.2275 0.59675-0.3955 0.81025-0.168 0.2135-0.36692 0.37217-0.59675 0.476-0.22984 0.10383-0.47775 0.15575-0.74375 0.15575s-0.51333-0.05192-0.742-0.15575c-0.22867-0.10383-0.42583-0.2625-0.5915-0.476-0.16567-0.2135-0.29575-0.48358-0.39025-0.81025-0.0945-0.32667-0.14175-0.71166-0.14175-1.155 0-0.44334 0.04725-0.82775 0.14175-1.1532 0.0945-0.3255 0.22458-0.595 0.39025-0.8085 0.16567-0.2135 0.36283-0.37217 0.5915-0.476 0.22867-0.10383 0.476-0.15575 0.742-0.15575s0.51392 0.051916 0.74375 0.15575c0.22983 0.10383 0.42875 0.2625 0.59675 0.476s0.29983 0.483 0.3955 0.8085c0.09567 0.3255 0.1435 0.70991 0.1435 1.1532zm-0.9975 0c0-0.35934-0.02508-0.65566-0.07525-0.889s-0.11608-0.41767-0.19775-0.553c-0.08167-0.13533-0.17558-0.22983-0.28175-0.2835-0.10617-0.053667-0.21525-0.0805-0.32725-0.0805s-0.21992 0.026833-0.32375 0.0805-0.196 0.14817-0.2765 0.2835c-0.0805 0.13533-0.14525 0.31966-0.19425 0.553-0.049 0.23334-0.0735 0.52967-0.0735 0.889 0 0.36167 0.0245 0.65917 0.0735 0.8925 0.049 0.23334 0.11375 0.41767 0.19425 0.553s0.17267 0.22983 0.2765 0.2835c0.10383 0.05367 0.21175 0.0805 0.32375 0.0805s0.22108-0.02683 0.32725-0.0805 0.20008-0.14816 0.28175-0.2835c0.08167-0.13533 0.14758-0.31966 0.19775-0.553 0.05017-0.23334 0.07525-0.53083 0.07525-0.8925zm5.6815 1.6555c0.105 0 0.18725 0.02917 0.24675 0.0875s0.08925 0.13533 0.08925 0.231v0.567h-3.521v-0.315c0-0.06067 0.01283-0.12658 0.0385-0.19775 0.02567-0.07117 0.06883-0.13592 0.1295-0.19425l1.505-1.5085c0.12833-0.12833 0.2415-0.25142 0.3395-0.36925 0.098-0.11783 0.17967-0.23333 0.245-0.3465 0.06533-0.11317 0.11433-0.22808 0.147-0.34475 0.03267-0.11667 0.049-0.23917 0.049-0.3675 0-0.22633-0.05833-0.39842-0.175-0.51625-0.11667-0.11783-0.28117-0.17675-0.4935-0.17675-0.09333 0-0.17908 0.013416-0.25725 0.04025-0.07817 0.026834-0.14817 0.063583-0.21 0.11025-0.06183 0.046667-0.11492 0.1015-0.15925 0.1645-0.04433 0.063-0.077 0.13183-0.098 0.2065-0.042 0.11667-0.09858 0.19425-0.16975 0.23275s-0.17208 0.04725-0.30275 0.02625l-0.511-0.091c0.03733-0.24734 0.10733-0.46433 0.21-0.651s0.231-0.34183 0.385-0.4655 0.33017-0.21642 0.5285-0.27825c0.19833-0.061834 0.41183-0.09275 0.6405-0.09275 0.24034 0 0.45908 0.035583 0.65625 0.10675s0.36575 0.17033 0.50575 0.2975 0.2485 0.28058 0.3255 0.46025 0.1155 0.378 0.1155 0.595c0 0.18667-0.02683 0.35933-0.0805 0.518-0.05367 0.15867-0.12658 0.30975-0.21875 0.45325-0.09217 0.1435-0.19892 0.28292-0.32025 0.41825-0.12133 0.13533-0.24967 0.27183-0.385 0.4095l-1.078 1.1025c0.119-0.035 0.23683-0.06242 0.3535-0.08225s0.22633-0.02975 0.329-0.02975z"/>
     <path d="m69.902 1.403c0 0.44334-0.04783 0.82833-0.1435 1.155-0.09567 0.32667-0.2275 0.59675-0.3955 0.81025-0.168 0.2135-0.36692 0.37217-0.59675 0.476-0.22983 0.10383-0.47775 0.15575-0.74375 0.15575s-0.51333-0.051916-0.742-0.15575c-0.22867-0.10383-0.42583-0.2625-0.5915-0.476-0.16567-0.2135-0.29575-0.48358-0.39025-0.81025-0.0945-0.32667-0.14175-0.71166-0.14175-1.155 0-0.44334 0.04725-0.82775 0.14175-1.1533 0.0945-0.3255 0.22458-0.595 0.39025-0.8085 0.16567-0.2135 0.36283-0.37217 0.5915-0.476 0.22867-0.10383 0.476-0.15575 0.742-0.15575s0.51392 0.051916 0.74375 0.15575c0.22983 0.10383 0.42875 0.2625 0.59675 0.476s0.29983 0.483 0.3955 0.8085c0.09567 0.3255 0.1435 0.70991 0.1435 1.1533zm-0.9975 0c0-0.35934-0.02508-0.65567-0.07525-0.889-0.05017-0.23333-0.11608-0.41767-0.19775-0.553-0.08167-0.13533-0.17558-0.22983-0.28175-0.2835-0.10617-0.053667-0.21525-0.0805-0.32725-0.0805s-0.21992 0.026833-0.32375 0.0805-0.196 0.14817-0.2765 0.2835c-0.0805 0.13533-0.14525 0.31967-0.19425 0.553-0.049 0.23334-0.0735 0.52967-0.0735 0.889 0 0.36167 0.0245 0.65917 0.0735 0.8925 0.049 0.23333 0.11375 0.41767 0.19425 0.553 0.0805 0.13533 0.17267 0.22983 0.2765 0.2835 0.10383 0.053667 0.21175 0.0805 0.32375 0.0805s0.22108-0.026833 0.32725-0.0805c0.10617-0.053667 0.20008-0.14816 0.28175-0.2835 0.08167-0.13533 0.14758-0.31967 0.19775-0.553 0.05017-0.23334 0.07525-0.53083 0.07525-0.8925zm2.6015-1.106c0.03733-0.24733 0.10733-0.46433 0.21-0.651s0.231-0.34183 0.385-0.4655c0.154-0.12367 0.32958-0.21642 0.52675-0.27825 0.19717-0.061834 0.41008-0.09275 0.63875-0.09275 0.24267 0 0.46025 0.034416 0.65275 0.10325s0.35525 0.16275 0.48825 0.28175c0.133 0.119 0.23508 0.25783 0.30625 0.4165 0.07117 0.15867 0.10675 0.329 0.10675 0.511 0 0.161-0.01692 0.30275-0.05075 0.42525-0.03383 0.1225-0.084 0.22925-0.1505 0.32025-0.0665 0.091-0.14817 0.168-0.245 0.231-0.09683 0.063-0.20825 0.1155-0.33425 0.1575 0.58334 0.19133 0.875 0.57983 0.875 1.1655 0 0.259-0.04783 0.48708-0.1435 0.68425-0.09567 0.19717-0.224 0.36225-0.385 0.49525-0.161 0.133-0.34825 0.23275-0.56175 0.29925-0.2135 0.0665-0.43692 0.09975-0.67025 0.09975-0.24734 0-0.4655-0.028-0.6545-0.084s-0.35525-0.14-0.49875-0.252c-0.1435-0.112-0.26658-0.25258-0.36925-0.42175-0.10267-0.16917-0.1925-0.36692-0.2695-0.59325l0.427-0.175c0.112-0.046667 0.21642-0.0595 0.31325-0.0385 0.09683 0.021 0.16625 0.072333 0.20825 0.154 0.04667 0.088667 0.09625 0.17033 0.14875 0.245 0.0525 0.074667 0.11142 0.13942 0.17675 0.19425 0.06533 0.054834 0.13942 0.097416 0.22225 0.12775 0.08283 0.030333 0.17792 0.0455 0.28525 0.0455 0.13533 0 0.25317-0.022166 0.3535-0.0665s0.18433-0.10208 0.252-0.17325c0.06767-0.071167 0.11842-0.15167 0.15225-0.2415 0.03383-0.089834 0.05075-0.17908 0.05075-0.26775 0-0.11667-0.0105-0.22225-0.0315-0.31675-0.021-0.094501-0.06942-0.175-0.14525-0.2415-0.07583-0.0665-0.18783-0.11783-0.336-0.154-0.14817-0.036167-0.34942-0.05425-0.60375-0.05425v-0.679c0.21233 0 0.38617-0.0175 0.5215-0.0525s0.2415-0.084 0.3185-0.147c0.077-0.063 0.13008-0.13883 0.15925-0.2275 0.02917-0.088667 0.04375-0.1855 0.04375-0.2905 0-0.22167-0.05775-0.39083-0.17325-0.5075-0.1155-0.11667-0.27942-0.175-0.49175-0.175-0.09333 0-0.17908 0.013416-0.25725 0.04025-0.07817 0.026834-0.14817 0.063583-0.21 0.11025-0.06183 0.046667-0.11492 0.1015-0.15925 0.1645-0.04433 0.063-0.077 0.13183-0.098 0.2065-0.04433 0.11667-0.1015 0.19425-0.1715 0.23275-0.07 0.0385-0.1715 0.04725-0.3045 0.02625z"/>
     <path d="m102.88-1.0785v5.0785h-0.5425c-0.0817 0-0.1505-0.013417-0.2065-0.04025-0.056-0.026834-0.11083-0.072916-0.1645-0.13825l-2.5305-3.22c7e-3 0.081667 0.01225 0.16217 0.01575 0.2415 0.0035 0.079334 0.0053 0.15283 0.0053 0.2205v2.9365h-0.92755v-5.0785h0.553c0.04433 0 0.08225 0.00175 0.11375 0.00525s0.06008 0.011667 0.08575 0.0245 0.05017 0.02975 0.0735 0.05075c0.02333 0.021 0.049 0.049 0.077 0.084l2.548 3.234c-9e-3 -0.088667-0.0163-0.17442-0.021-0.25725-5e-3 -0.082834-7e-3 -0.16158-7e-3 -0.23625v-2.905z"/>
    </g>
    <path d="m41.426 20.114c0.105 0 0.18725 0.029166 0.24675 0.0875s0.08925 0.13533 0.08925 0.231v0.567h-3.521v-0.315c0-0.060667 0.012833-0.12658 0.0385-0.19775s0.068833-0.13592 0.1295-0.19425l1.505-1.5085c0.12833-0.12833 0.2415-0.25142 0.3395-0.36925s0.17967-0.23333 0.245-0.3465 0.11433-0.22808 0.147-0.34475c0.032667-0.11667 0.049-0.23917 0.049-0.3675 0-0.22633-0.058333-0.39842-0.175-0.51625-0.11667-0.11783-0.28117-0.17675-0.4935-0.17675-0.093334 0-0.17908 0.013416-0.25725 0.04025s-0.14817 0.063583-0.21 0.11025-0.11492 0.1015-0.15925 0.1645-0.077 0.13183-0.098 0.2065c-0.042 0.11667-0.098583 0.19425-0.16975 0.23275s-0.17208 0.04725-0.30275 0.02625l-0.511-0.091c0.037334-0.24733 0.10733-0.46433 0.21-0.651s0.231-0.34183 0.385-0.4655 0.33017-0.21642 0.5285-0.27825 0.41183-0.09275 0.6405-0.09275c0.24033 0 0.45908 0.035583 0.65625 0.10675s0.36575 0.17033 0.50575 0.2975 0.2485 0.28058 0.3255 0.46025 0.1155 0.378 0.1155 0.595c0 0.18667-0.026833 0.35933-0.0805 0.518s-0.12658 0.30975-0.21875 0.45325-0.19892 0.28292-0.32025 0.41825-0.24967 0.27183-0.385 0.4095l-1.078 1.1025c0.119-0.035 0.23683-0.062417 0.3535-0.08225 0.11667-0.019833 0.22633-0.02975 0.329-0.02975h1.141z" fill="#FF9915"/>
    <path d="m79.426 20.114c0.105 0 0.18725 0.029166 0.24675 0.0875s0.08925 0.13533 0.08925 0.231v0.567h-3.521v-0.315c0-0.060667 0.012833-0.12658 0.0385-0.19775s0.068833-0.13592 0.1295-0.19425l1.505-1.5085c0.12833-0.12833 0.2415-0.25142 0.3395-0.36925s0.17967-0.23333 0.245-0.3465 0.11433-0.22808 0.147-0.34475c0.032667-0.11667 0.049-0.23917 0.049-0.3675 0-0.22633-0.058333-0.39842-0.175-0.51625-0.11667-0.11783-0.28117-0.17675-0.4935-0.17675-0.093334 0-0.17908 0.013416-0.25725 0.04025s-0.14817 0.063583-0.21 0.11025-0.11492 0.1015-0.15925 0.1645-0.077 0.13183-0.098 0.2065c-0.042 0.11667-0.098583 0.19425-0.16975 0.23275s-0.17208 0.04725-0.30275 0.02625l-0.511-0.091c0.037334-0.24733 0.10733-0.46433 0.21-0.651s0.231-0.34183 0.385-0.4655 0.33017-0.21642 0.5285-0.27825 0.41183-0.09275 0.6405-0.09275c0.24033 0 0.45908 0.035583 0.65625 0.10675s0.36575 0.17033 0.50575 0.2975 0.2485 0.28058 0.3255 0.46025 0.1155 0.378 0.1155 0.595c0 0.18667-0.026833 0.35933-0.0805 0.518s-0.12658 0.30975-0.21875 0.45325-0.19892 0.28292-0.32025 0.41825-0.24967 0.27183-0.385 0.4095l-1.078 1.1025c0.119-0.035 0.23683-0.062417 0.3535-0.08225 0.11667-0.019833 0.22633-0.02975 0.329-0.02975h1.141z" fill="#FF9915"/>
    <path d="m101.43 20.114c0.105 0 0.18725 0.029166 0.24675 0.0875s0.08925 0.13533 0.08925 0.231v0.567h-3.521v-0.315c0-0.060667 0.012833-0.12658 0.0385-0.19775s0.068833-0.13592 0.1295-0.19425l1.505-1.5085c0.12833-0.12833 0.2415-0.25142 0.3395-0.36925s0.17967-0.23333 0.245-0.3465 0.11433-0.22808 0.147-0.34475c0.032667-0.11667 0.049-0.23917 0.049-0.3675 0-0.22633-0.058333-0.39842-0.175-0.51625s-0.28117-0.17675-0.4935-0.17675c-0.093334 0-0.17908 0.013416-0.25725 0.04025s-0.14817 0.063583-0.21 0.11025-0.11492 0.1015-0.15925 0.1645-0.077 0.13183-0.098 0.2065c-0.042 0.11667-0.098583 0.19425-0.16975 0.23275s-0.17208 0.04725-0.30275 0.02625l-0.511-0.091c0.037334-0.24733 0.10733-0.46433 0.21-0.651s0.231-0.34183 0.385-0.4655 0.33017-0.21642 0.5285-0.27825 0.41183-0.09275 0.6405-0.09275c0.24034 0 0.45908 0.035583 0.65625 0.10675s0.36575 0.17033 0.50575 0.2975 0.2485 0.28058 0.3255 0.46025 0.1155 0.378 0.1155 0.595c0 0.18667-0.026833 0.35933-0.0805 0.518s-0.12658 0.30975-0.21875 0.45325-0.19892 0.28292-0.32025 0.41825-0.24967 0.27183-0.385 0.4095l-1.078 1.1025c0.119-0.035 0.23683-0.062417 0.3535-0.08225 0.11667-0.019833 0.22633-0.02975 0.329-0.02975h1.141z" fill="#1E1E1E"/>
    <path d="m65.346 17.353c0.037334-0.24733 0.10733-0.46433 0.21-0.651s0.231-0.34183 0.385-0.4655 0.32958-0.21642 0.52675-0.27825 0.41008-0.09275 0.63875-0.09275c0.24267 0 0.46025 0.034416 0.65275 0.10325s0.35525 0.16275 0.48825 0.28175 0.23508 0.25783 0.30625 0.4165 0.10675 0.329 0.10675 0.511c0 0.161-0.016916 0.30275-0.05075 0.42525s-0.084 0.22925-0.1505 0.32025-0.14817 0.168-0.245 0.231-0.20825 0.1155-0.33425 0.1575c0.58334 0.19133 0.875 0.57983 0.875 1.1655 0 0.259-0.047833 0.48708-0.1435 0.68425s-0.224 0.36225-0.385 0.49525-0.34825 0.23275-0.56175 0.29925-0.43692 0.09975-0.67025 0.09975c-0.24733 0-0.4655-0.028-0.6545-0.084s-0.35525-0.14-0.49875-0.252-0.26658-0.25258-0.36925-0.42175-0.1925-0.36692-0.2695-0.59325l0.427-0.175c0.112-0.046667 0.21642-0.0595 0.31325-0.0385s0.16625 0.072333 0.20825 0.154c0.046667 0.088667 0.09625 0.17033 0.14875 0.245s0.11142 0.13942 0.17675 0.19425 0.13942 0.097416 0.22225 0.12775 0.17792 0.0455 0.28525 0.0455c0.13533 0 0.25317-0.022166 0.3535-0.0665s0.18433-0.10208 0.252-0.17325 0.11842-0.15167 0.15225-0.2415 0.05075-0.17908 0.05075-0.26775c0-0.11667-0.0105-0.22225-0.0315-0.31675s-0.069416-0.175-0.14525-0.2415-0.18783-0.11783-0.336-0.154-0.34942-0.05425-0.60375-0.05425v-0.679c0.21233 0 0.38617-0.0175 0.5215-0.0525s0.2415-0.084 0.3185-0.147 0.13008-0.13883 0.15925-0.2275 0.04375-0.1855 0.04375-0.2905c0-0.22167-0.057749-0.39083-0.17325-0.5075-0.1155-0.11667-0.27942-0.175-0.49175-0.175-0.093334 0-0.17908 0.013416-0.25725 0.04025s-0.14817 0.063583-0.21 0.11025-0.11492 0.1015-0.15925 0.1645-0.077 0.13183-0.098 0.2065c-0.044334 0.11667-0.1015 0.19425-0.1715 0.23275-0.07 0.0385-0.1715 0.04725-0.3045 0.02625l-0.5075-0.091z" fill="#FF9915"/>
    <path d="m118.35 17.353c0.037334-0.24733 0.10733-0.46433 0.21-0.651s0.231-0.34183 0.385-0.4655 0.32958-0.21642 0.52675-0.27825 0.41008-0.09275 0.63875-0.09275c0.24267 0 0.46025 0.034416 0.65275 0.10325s0.35525 0.16275 0.48825 0.28175 0.23508 0.25783 0.30625 0.4165 0.10675 0.329 0.10675 0.511c0 0.161-0.016916 0.30275-0.05075 0.42525s-0.084 0.22925-0.1505 0.32025-0.14817 0.168-0.245 0.231-0.20825 0.1155-0.33425 0.1575c0.58334 0.19133 0.875 0.57983 0.875 1.1655 0 0.259-0.047833 0.48708-0.1435 0.68425s-0.224 0.36225-0.385 0.49525-0.34825 0.23275-0.56175 0.29925-0.43692 0.09975-0.67025 0.09975c-0.24734 0-0.4655-0.028-0.6545-0.084s-0.35525-0.14-0.49875-0.252-0.26658-0.25258-0.36925-0.42175-0.1925-0.36692-0.2695-0.59325l0.427-0.175c0.112-0.046667 0.21642-0.0595 0.31325-0.0385s0.16625 0.072333 0.20825 0.154c0.046667 0.088667 0.09625 0.17033 0.14875 0.245s0.11142 0.13942 0.17675 0.19425 0.13942 0.097416 0.22225 0.12775 0.17792 0.0455 0.28525 0.0455c0.13533 0 0.25317-0.022166 0.3535-0.0665s0.18433-0.10208 0.252-0.17325 0.11842-0.15167 0.15225-0.2415 0.05075-0.17908 0.05075-0.26775c0-0.11667-0.0105-0.22225-0.0315-0.31675s-0.069416-0.175-0.14525-0.2415-0.18783-0.11783-0.336-0.154-0.34942-0.05425-0.60375-0.05425v-0.679c0.21233 0 0.38617-0.0175 0.5215-0.0525s0.2415-0.084 0.3185-0.147 0.13008-0.13883 0.15925-0.2275 0.04375-0.1855 0.04375-0.2905c0-0.22167-0.057749-0.39083-0.17325-0.5075-0.1155-0.11667-0.27942-0.175-0.49175-0.175-0.093334 0-0.17908 0.013416-0.25725 0.04025s-0.14817 0.063583-0.21 0.11025-0.11492 0.1015-0.15925 0.1645-0.077 0.13183-0.098 0.2065c-0.044334 0.11667-0.1015 0.19425-0.1715 0.23275s-0.1715 0.04725-0.3045 0.02625l-0.5075-0.091z" fill="#1E1E1E"/>
    <path d="m52.647 20.29v0.7105h-2.849v-0.7105h1.008v-2.779c0-0.060667 0.0011667-0.1225 0.0035-0.1855s0.0058333-0.12717 0.0105-0.1925l-0.665 0.553c-0.046667 0.035-0.092166 0.057167-0.1365 0.0665s-0.086333 0.0099167-0.126 0.00175-0.074666-0.022167-0.105-0.042-0.053667-0.04025-0.07-0.06125l-0.3045-0.4095 1.561-1.323h0.7945v4.3715h0.8785z" fill="#FF9915"/>
    <path d="m89.647 20.29v0.7105h-2.849v-0.7105h1.008v-2.779c0-0.060667 0.0011667-0.1225 0.0035-0.1855s0.0058333-0.12717 0.0105-0.1925l-0.665 0.553c-0.046667 0.035-0.092166 0.057167-0.1365 0.0665s-0.086333 0.0099167-0.126 0.00175-0.074666-0.022167-0.105-0.042-0.053667-0.04025-0.07-0.06125l-0.3045-0.4095 1.561-1.323h0.7945v4.3715h0.8785z" fill="#FF9915"/>
    <path d="m111.65 20.29v0.7105h-2.849v-0.7105h1.008v-2.779c0-0.060667 0.001167-0.1225 0.0035-0.1855s0.005833-0.12717 0.0105-0.1925l-0.665 0.553c-0.046667 0.035-0.092166 0.057167-0.1365 0.0665s-0.086333 0.0099167-0.126 0.00175-0.074667-0.022167-0.105-0.042-0.053667-0.04025-0.07-0.06125l-0.3045-0.4095 1.561-1.323h0.7945v4.3715h0.8785z" fill="#1E1E1E"/>
    <g transform="translate(0 15)" fill="#FF9915">
     <path d="m4.8825 0.9215v5.0785h-0.5425c-0.081667 0-0.1505-0.013417-0.2065-0.04025s-0.11083-0.072916-0.1645-0.13825l-2.5305-3.22c7e-3 0.081667 0.01225 0.16217 0.01575 0.2415s0.00525 0.15283 0.00525 0.2205v2.9365h-0.9275v-5.0785h0.553c0.044334 0 0.08225 0.00175 0.11375 0.00525 0.0315 0.0035 0.060083 0.011667 0.08575 0.0245 0.025667 0.012833 0.050167 0.02975 0.0735 0.05075 0.023333 0.021 0.049 0.049 0.077 0.084l2.548 3.234c-0.0093334-0.088667-0.016333-0.17442-0.021-0.25725s-7e-3 -0.16158-7e-3 -0.23625v-2.905h0.9275zm5.971 2.5375c0 0.371-0.062416 0.71517-0.18725 1.0325s-0.301 0.5915-0.5285 0.8225c-0.2275 0.231-0.50108 0.41242-0.82075 0.54425-0.31967 0.13183-0.67433 0.19775-1.064 0.19775-0.38967 0-0.74433-0.065916-1.064-0.19775-0.31967-0.13183-0.59383-0.31325-0.8225-0.54425-0.22867-0.231-0.40542-0.50517-0.53025-0.8225s-0.18725-0.6615-0.18725-1.0325c0-0.371 0.062416-0.71458 0.18725-1.0308s0.30158-0.58975 0.53025-0.82075c0.22867-0.231 0.50283-0.41242 0.8225-0.54425 0.31967-0.13183 0.67433-0.19775 1.064-0.19775 0.38967 0 0.74433 0.065916 1.064 0.19775 0.31967 0.13183 0.59325 0.31383 0.82075 0.546 0.2275 0.23217 0.40367 0.50633 0.5285 0.8225s0.18725 0.65858 0.18725 1.0272zm-1.0745 0c0-0.266-0.035-0.50458-0.105-0.71575s-0.17092-0.39083-0.30275-0.539-0.29167-0.26133-0.4795-0.3395-0.40075-0.11725-0.63875-0.11725-0.4515 0.039083-0.6405 0.11725c-0.189 0.078167-0.34942 0.19133-0.48125 0.3395s-0.23275 0.32783-0.30275 0.539-0.105 0.44975-0.105 0.71575c0 0.26833 0.035 0.50808 0.105 0.71925s0.17092 0.39025 0.30275 0.53725c0.13183 0.147 0.29225 0.25958 0.48125 0.33775 0.189 0.078167 0.4025 0.11725 0.6405 0.11725s0.45092-0.039083 0.63875-0.11725 0.34767-0.19075 0.4795-0.33775c0.13183-0.147 0.23275-0.32608 0.30275-0.53725s0.105-0.45092 0.105-0.71925zm4.564-1.715v1.4035h1.827v0.826h-1.827v2.0265h-1.057v-5.0785h3.234v0.8225h-2.177zm8.505-0.8225v5.0785h-0.9275v-3.1185c0-0.065334 0.00175-0.13533 0.00525-0.21s0.0099166-0.1505 0.01925-0.2275l-1.4525 2.7545c-0.079334 0.15167-0.20183 0.2275-0.3675 0.2275h-0.147c-0.081667 0-0.154-0.01925-0.217-0.05775s-0.11317-0.095083-0.1505-0.16975l-1.4595-2.765c7e-3 0.081667 0.012833 0.16042 0.0175 0.23625s7e-3 0.14642 7e-3 0.21175v3.1185h-0.9275v-5.0785h0.798c0.044334 0 0.084 0.0011667 0.119 0.0035s0.065916 0.0087499 0.09275 0.01925c0.026834 0.0105 0.051333 0.026833 0.0735 0.049 0.022167 0.022167 0.04375 0.053083 0.06475 0.09275l1.421 2.709c0.044334 0.081667 0.08575 0.16567 0.12425 0.252 0.0385 0.086334 0.07525 0.175 0.11025 0.266 0.035-0.093334 0.07175-0.18433 0.11025-0.273s0.079916-0.17383 0.12425-0.2555l1.4105-2.6985c0.021-0.039667 0.043167-0.070583 0.0665-0.09275 0.023334-0.022167 0.048416-0.0385 0.07525-0.049 0.026834-0.0105 0.057166-0.016917 0.091-0.01925s0.074083-0.0035 0.12075-0.0035h0.798z"/>
    </g>
   </g>
  </g>
  <g fill="#ff9915">
   <path d="m16 12h-2l2.5-4 2.5 4h-2v15h-1z"/>
   <path d="m46 12h-2l2.5-4 2.5 4h-2v15h-1z"/>
   <path d="m31 12h-2l2.5-4 2.5 4h-2v2h-1z" opacity=".5"/>
   <path d="m61 12h-2l2.5-4 2.5 4h-2v2h-1z" opacity=".5"/>
   <path d="m23 19v-2l4 2.5-4 2.5v-2h-6v-1z" opacity=".5"/>
   <path d="m40 20v2l-4-2.5 4-2.5v2h6v1z" opacity=".5"/>
   <path d="m53 19v-2l4 2.5-4 2.5v-2h-6v-1z" opacity=".5"/>
   <path d="m70 20v2l-4-2.5 4-2.5v2h6v1z" opacity=".5"/>
   <path d="m76 12h-2l2.5-4 2.5 4h-2v15h-1z"/>
   <path d="m106 12h-2l2.5-4 2.5 4h-2v14h-1z"/>
  </g>
  <circle cx="31.5" cy="71.5" r="4" opacity=".5" stroke="#ff9e4c"/>
  <circle cx="61.5" cy="71.5" r="4" opacity=".49912" stroke="#ff9e4c"/>
  <g fill="#ff9915">
   <path d="m16 64h-2l2.5-4 2.5 4h-2v15h-1z"/>
   <path d="m46 64h-2l2.5-4 2.5 4h-2v15h-1z"/>
   <path d="m31 64h-2l2.5-4 2.5 4h-2v2h-1z" opacity=".5"/>
   <path d="m61 64h-2l2.5-4 2.5 4h-2v2h-1z" opacity=".5"/>
   <path d="m23 71v-2l4 2.5-4 2.5v-2h-6v-1z" opacity=".5"/>
   <path d="m40 72v2l-4-2.5 4-2.5v2h6v1z" opacity=".5"/>
   <path d="m28 84v2l-4-2.5 4-2.5v2h11v1z"/>
   <path d="m28 136v2l-4-2.5 4-2.5v2h11v1z"/>
   <path d="m58 136v2l-4-2.5 4-2.5v2h11v1z"/>
   <path d="m28 188v2l-4-2.5 4-2.5v2h11v1z"/>
   <path d="m53 71v-2l4 2.5-4 2.5v-2h-6v-1z" opacity=".5"/>
   <path d="m70 72v2l-4-2.5 4-2.5v2h6v1z" opacity=".5"/>
   <path d="m76 64h-2l2.5-4 2.5 4h-2v15h-1z"/>
   <path d="m106 64h-2l2.5-4 2.5 4h-2v14h-1z"/>
  </g>
  <circle cx="31.5" cy="175.5" r="4" opacity=".5" stroke="#ff9e4c"/>
  <circle cx="61.5" cy="175.5" r="4" opacity=".49912" stroke="#ff9e4c"/>
  <g fill="#ff9915">
   <path d="m16 168h-2l2.5-4 2.5 4h-2v15h-1z"/>
   <path d="m46 168h-2l2.5-4 2.5 4h-2v15h-1z"/>
   <path d="m31 168h-2l2.5-4 2.5 4h-2v2h-1z" opacity=".5"/>
   <path d="m61 168h-2l2.5-4 2.5 4h-2v2h-1z" opacity=".5"/>
   <path d="m23 175v-2l4 2.5-4 2.5v-2h-6v-1z" opacity=".5"/>
   <path d="m40 176v2l-4-2.5 4-2.5v2h6v1z" opacity=".5"/>
   <path d="m53 175v-2l4 2.5-4 2.5v-2h-6v-1z" opacity=".5"/>
   <path d="m70 176v2l-4-2.5 4-2.5v2h6v1z" opacity=".5"/>
   <path d="m76 168h-2l2.5-4 2.5 4h-2v15h-1z"/>
   <path d="m106 168h-2l2.5-4 2.5 4h-2v14h-1z"/>
  </g>
 </g>
</svg>
