<?xml version="1.0" encoding="UTF-8"?>
<svg width="119px" height="51px" version="1.1" viewBox="0 0 119 51" xmlns="http://www.w3.org/2000/svg" xmlns:cc="http://creativecommons.org/ns#" xmlns:dc="http://purl.org/dc/elements/1.1/" xmlns:rdf="http://www.w3.org/1999/02/22-rdf-syntax-ns#">
 <metadata>
  <rdf:RDF>
   <cc:Work rdf:about="">
    <dc:format>image/svg+xml</dc:format>
    <dc:type rdf:resource="http://purl.org/dc/dcmitype/StillImage"/>
    <dc:title/>
   </cc:Work>
  </rdf:RDF>
 </metadata>
 <g fill="none" fill-rule="evenodd">
  <circle id="Oval" cx="75.5" cy="25.5" r="4" fill="#7F7F7F" stroke="#000"/>
  <g fill="#fff">
   <polygon id="Path" points="76 25 77 25 77 26 76 26 76 27 75 27 75 26 74 26 74 25 75 25 75 24 76 24"/>
   <g stroke="#000">
    <rect id="Rectangle" x="17.5" y=".5" width="18" height="10"/>
    <rect x="43.5" y=".5" width="18" height="10"/>
    <rect x="17.5" y="20.5" width="18" height="10"/>
    <rect x="43.5" y="20.5" width="18" height="10"/>
    <rect x="88.5" y="10.5" width="18" height="10"/>
    <rect x="88.5" y="30.5" width="18" height="10"/>
   </g>
  </g>
  <g fill="#000">
   <rect x="61" y="5" width="5" height="1"/>
   <rect x="65" y="5" width="1" height="41"/>
   <rect x="19" y="13" width="46.488" height="1" stroke-width="1.0164"/>
  </g>
  <g stroke="#000">
   <rect x="17.5" y="40.5" width="18" height="10" fill="#fff"/>
   <rect x="43.5" y="40.5" width="18" height="10" fill="#fff"/>
   <rect x=".5" y=".5" width="9" height="10" fill="#7F7F7F"/>
   <rect x=".5" y="40.5" width="9" height="10" fill="#7F7F7F"/>
  </g>
  <g fill="#000">
   <rect x="20" y="37" width="45.559" height="1" stroke-width="1.0176"/>
   <rect x="61" y="45" width="5" height="1"/>
   <rect x="80" y="25" width="3" height="1"/>
   <rect x="82" y="15" width="1" height="11"/>
   <rect x="82" y="15" width="7" height="1"/>
   <rect x="106" y="15" width="4" height="1"/>
   <rect x="109" y="16" width="1" height="10"/>
   <rect x="85" y="25" width="25" height="1"/>
   <rect x="85" y="25" width="1" height="11"/>
   <rect x="85" y="35" width="4" height="1"/>
   <rect x="106" y="35" width="7" height="1"/>
   <rect x="112" y="25" width="1" height="11"/>
  </g>
  <path id="A" d="m5.713 6.0715-0.5495-1.554c-0.032667-0.081667-0.067083-0.17733-0.10325-0.287-0.036167-0.10967-0.070583-0.22867-0.10325-0.357-0.032667 0.13067-0.067083 0.25142-0.10325 0.36225s-0.070583 0.20708-0.10325 0.28875l-0.546 1.547h1.5085zm1.764 1.9285h-0.8155c-0.091 0-0.16508-0.021583-0.22225-0.06475s-0.09975-0.098583-0.12775-0.16625l-0.343-0.9695h-2.023l-0.343 0.9695c-0.023333 0.058334-0.064166 0.11142-0.1225 0.15925s-0.13183 0.07175-0.2205 0.07175h-0.8225l1.9845-5.0785h1.0745l1.981 5.0785z" fill="#fff" fill-rule="nonzero"/>
  <path id="B" d="m4.9815 47.195c0.168 0 0.30625-0.020416 0.41475-0.06125s0.19542-0.095083 0.26075-0.16275 0.11083-0.14525 0.1365-0.23275 0.0385-0.17792 0.0385-0.27125c0-0.10267-0.015167-0.19483-0.0455-0.2765-0.030333-0.081667-0.079333-0.15108-0.147-0.20825-0.067667-0.057167-0.15575-0.10092-0.26425-0.13125s-0.24208-0.0455-0.40075-0.0455h-0.8925v1.3895h0.8995zm-0.8995-3.4755v1.372h0.6895c0.147 0 0.27767-0.01225 0.392-0.03675 0.11433-0.0245 0.21-0.063583 0.287-0.11725 0.077-0.053667 0.13592-0.12425 0.17675-0.21175s0.06125-0.19308 0.06125-0.31675c0-0.126-0.016916-0.23333-0.05075-0.322s-0.08575-0.15983-0.15575-0.2135-0.15867-0.09275-0.266-0.11725-0.2345-0.03675-0.3815-0.03675h-0.7525zm0.7525-0.798c0.34067 0 0.63175 0.032083 0.87325 0.09625s0.43867 0.15517 0.5915 0.273 0.26425 0.26075 0.33425 0.42875 0.105 0.35583 0.105 0.5635c0 0.11667-0.016916 0.22867-0.05075 0.336s-0.086333 0.20825-0.1575 0.30275-0.16275 0.18025-0.27475 0.25725-0.245 0.14233-0.399 0.196c0.34534 0.081667 0.60083 0.21467 0.7665 0.399 0.16567 0.18433 0.2485 0.4235 0.2485 0.7175 0 0.21467-0.041416 0.41417-0.12425 0.5985s-0.20358 0.34417-0.36225 0.4795-0.35408 0.24092-0.58625 0.31675-0.49875 0.11375-0.79975 0.11375h-1.967v-5.0785h1.8025z" fill="#fff" fill-rule="nonzero"/>
  <g fill="#000">
   <polygon points="12 5 12 3 16 5.5 12 8 12 6 10 6 10 5"/>
   <polygon points="20 15 22 15 19.5 19 17 15 19 15 19 13 20 13"/>
   <polygon points="46 15 48 15 45.5 19 43 15 45 15 45 13 46 13"/>
   <polygon points="67 25 67 23 70 25.5 67 28 67 26 62 26 62 25"/>
   <polygon points="39 25 39 23 42 25.5 39 28 39 26 36 26 36 25"/>
   <polygon points="19 36 17 36 19.5 32 22 36 20 36 20 38 19 38"/>
   <polygon points="45 36 43 36 45.5 32 48 36 46 36 46 37 45 37"/>
   <polygon points="38 5 38 3 42 5.5 38 8 38 6 36 6 36 5"/>
   <polygon points="12 45 12 43 16 45.5 12 48 12 46 10 46 10 45"/>
   <polygon points="38 45 38 43 42 45.5 38 48 38 46 36 46 36 45"/>
   <polygon points="114 25 114 23 118 25.5 114 28 114 26 112 26 112 25"/>
  </g>
 </g>
</svg>
