<?xml version="1.0" encoding="UTF-8"?>
<svg width="41px" height="144px" viewBox="0 0 41 144" version="1.1" xmlns="http://www.w3.org/2000/svg" xmlns:xlink="http://www.w3.org/1999/xlink">
    <defs>
        <linearGradient x1="50%" y1="0%" x2="50%" y2="96.5285991%" id="linearGradient-1">
            <stop stop-color="#323232" offset="0%"></stop>
            <stop stop-color="#333333" offset="23.4374627%"></stop>
            <stop stop-color="#151515" offset="24.6402943%"></stop>
            <stop stop-color="#232323" offset="100%"></stop>
        </linearGradient>
    </defs>
    <g id="bmp00119" stroke="none" stroke-width="1" fill="none" fill-rule="evenodd">
        <rect id="Rectangle" fill="url(#linearGradient-1)" x="1" y="19" width="39" height="13"></rect>
        <rect id="Rectangle" fill="url(#linearGradient-1)" x="1" y="1" width="39" height="13"></rect>
        <rect id="Rectangle" fill="url(#linearGradient-1)" x="1" y="127" width="39" height="13"></rect>
        <rect id="Rectangle" fill="url(#linearGradient-1)" x="1" y="109" width="39" height="13"></rect>
        <rect id="Rectangle" fill="url(#linearGradient-1)" x="1" y="91" width="39" height="13"></rect>
        <rect id="Rectangle" fill="url(#linearGradient-1)" x="1" y="73" width="39" height="13"></rect>
        <rect id="Rectangle" fill="url(#linearGradient-1)" x="1" y="55" width="39" height="13"></rect>
        <rect id="Rectangle" fill="url(#linearGradient-1)" x="1" y="37" width="39" height="13"></rect>
        <polygon id="Triangle" fill="#FF9A10" transform="translate(36.500000, 7.500000) rotate(-180.000000) translate(-36.500000, -7.500000) " points="36.5 6 39 9 34 9"></polygon>
        <polygon id="Triangle" fill="#FF9A10" transform="translate(36.500000, 25.500000) rotate(-180.000000) translate(-36.500000, -25.500000) " points="36.5 24 39 27 34 27"></polygon>
        <polygon id="Triangle" fill="#FF9A10" transform="translate(36.500000, 43.500000) rotate(-180.000000) translate(-36.500000, -43.500000) " points="36.5 42 39 45 34 45"></polygon>
        <polygon id="Triangle" fill="#FF9A10" transform="translate(36.500000, 61.500000) rotate(-180.000000) translate(-36.500000, -61.500000) " points="36.5 60 39 63 34 63"></polygon>
        <polygon id="Triangle" fill="#FF9A10" transform="translate(36.500000, 79.500000) rotate(-180.000000) translate(-36.500000, -79.500000) " points="36.5 78 39 81 34 81"></polygon>
        <polygon id="Triangle" fill="#FF9A10" transform="translate(36.500000, 97.500000) rotate(-180.000000) translate(-36.500000, -97.500000) " points="36.5 96 39 99 34 99"></polygon>
        <polygon id="Triangle" fill="#FF9A10" transform="translate(36.500000, 115.500000) rotate(-180.000000) translate(-36.500000, -115.500000) " points="36.5 114 39 117 34 117"></polygon>
        <polygon id="Triangle" fill="#FF9A10" transform="translate(36.500000, 133.500000) rotate(-180.000000) translate(-36.500000, -133.500000) " points="36.5 132 39 135 34 135"></polygon>
        <path d="M7.039,8.8065 C7.09033359,8.8065 7.13583314,8.82633313 7.1755,8.866 L7.5465,9.2685 C7.34116564,9.5228346 7.08858483,9.71766599 6.78875,9.853 C6.48891517,9.98833401 6.1290021,10.056 5.709,10.056 C5.33333145,10.056 4.99558483,9.99183398 4.69575,9.8635 C4.39591517,9.73516602 4.1398344,9.55666781 3.9275,9.328 C3.71516561,9.09933219 3.55241723,8.82633492 3.43925,8.509 C3.32608277,8.19166508 3.2695,7.84516854 3.2695,7.4695 C3.2695,7.08916476 3.33016606,6.74091825 3.4515,6.42475 C3.57283394,6.10858175 3.7437489,5.83616781 3.96425,5.6075 C4.1847511,5.37883219 4.4478318,5.2009173 4.7535,5.07375 C5.05916819,4.9465827 5.39749815,4.883 5.7685,4.883 C6.13716851,4.883 6.46441524,4.94366606 6.75025,5.065 C7.03608476,5.18633394 7.27933233,5.34499902 7.48,5.541 L7.165,5.9785 C7.14633324,6.00650014 7.12241681,6.03099989 7.09325,6.052 C7.06408319,6.07300011 7.02383359,6.0835 6.9725,6.0835 C6.93749982,6.0835 6.90133352,6.07358343 6.864,6.05375 C6.82666648,6.03391657 6.78583355,6.00941681 6.7415,5.98025 C6.69716645,5.95108319 6.64583362,5.91900017 6.5875,5.884 C6.52916637,5.84899982 6.46150038,5.81691681 6.3845,5.78775 C6.30749962,5.75858319 6.21825051,5.73408343 6.11675,5.71425 C6.01524949,5.69441657 5.89800066,5.6845 5.765,5.6845 C5.53866553,5.6845 5.33158427,5.7247496 5.14375,5.80525 C4.95591573,5.8857504 4.79433401,6.0024159 4.659,6.15525 C4.52366599,6.3080841 4.41866704,6.4947489 4.344,6.71525 C4.26933296,6.9357511 4.232,7.18716526 4.232,7.4695 C4.232,7.75416809 4.2722496,8.00733223 4.35275,8.229 C4.4332504,8.45066777 4.54233265,8.63733258 4.68,8.789 C4.81766736,8.94066743 4.9798324,9.0567496 5.1665,9.13725 C5.3531676,9.2177504 5.55383226,9.258 5.7685,9.258 C5.89683397,9.258 6.01291615,9.25100007 6.11675,9.237 C6.22058385,9.22299993 6.31624956,9.20083349 6.40375,9.1705 C6.49125044,9.14016652 6.57408294,9.10108357 6.65225,9.05325 C6.73041706,9.00541643 6.80799961,8.94650035 6.885,8.8765 C6.90833345,8.85549989 6.9328332,8.8385834 6.9585,8.82575 C6.9841668,8.8129166 7.01099986,8.8065 7.039,8.8065 Z M11.4785,9.223 L11.4785,10 L8.51399999,10 L8.51399999,4.939 L9.45549999,4.939 L9.45549999,9.223 L11.4785,9.223 Z M15.1445,8.089 L14.5285,6.4055 C14.4981665,6.33083296 14.4666668,6.24216718 14.434,6.1395 C14.4013332,6.03683282 14.3686668,5.92600059 14.336,5.807 C14.3056665,5.92600059 14.2741668,6.03741615 14.2415,6.14125 C14.2088332,6.24508385 14.1773335,6.33549961 14.147,6.4125 L13.5345,8.089 L15.1445,8.089 Z M16.807,10 L16.079,10 C15.9973329,10 15.9308336,9.97958354 15.8795,9.93875 C15.8281664,9.89791646 15.7896668,9.84716697 15.764,9.7865 L15.386,8.754 L13.2895,8.754 L12.9115,9.7865 C12.8928332,9.84016693 12.8566669,9.88916645 12.803,9.9335 C12.7493331,9.97783356 12.6828337,10 12.6035,10 L11.8685,10 L13.86,4.939 L14.819,4.939 L16.807,10 Z M20.347,5.8595 C20.3189998,5.90850024 20.2892501,5.94408322 20.25775,5.96625 C20.2262498,5.98841678 20.1871669,5.9995 20.1405,5.9995 C20.0914997,5.9995 20.0384169,5.98141685 19.98125,5.94525 C19.924083,5.90908315 19.8558337,5.86883356 19.7765,5.8245 C19.6971662,5.78016644 19.6044172,5.73991685 19.49825,5.70375 C19.3920828,5.66758315 19.2666674,5.6495 19.122,5.6495 C18.9913327,5.6495 18.8770005,5.66524984 18.779,5.69675 C18.6809995,5.72825016 18.5987503,5.77199972 18.53225,5.828 C18.4657496,5.88400028 18.4161668,5.95108294 18.3835,6.02925 C18.3508331,6.10741706 18.3345,6.1931662 18.3345,6.2865 C18.3345,6.4055006 18.3677496,6.50466627 18.43425,6.584 C18.5007503,6.66333373 18.5888328,6.73099972 18.6985,6.787 C18.8081672,6.84300028 18.9329993,6.89316645 19.073,6.9375 C19.2130007,6.98183355 19.3564992,7.02908308 19.5035,7.07925 C19.6505007,7.12941692 19.7939993,7.18774967 19.934,7.25425 C20.0740007,7.32075033 20.1988328,7.40474949 20.3085,7.50625 C20.4181672,7.60775051 20.5062496,7.73199926 20.57275,7.879 C20.6392503,8.02600074 20.6725,8.20449895 20.6725,8.4145 C20.6725,8.64316781 20.633417,8.857249 20.55525,9.05675 C20.4770829,9.256251 20.3627507,9.43008259 20.21225,9.57825 C20.0617492,9.72641741 19.8780011,9.84308291 19.661,9.92825 C19.4439989,10.0134171 19.1955014,10.056 18.9155,10.056 C18.7544992,10.056 18.5958341,10.0402502 18.4395,10.00875 C18.2831659,9.97724984 18.1332507,9.93233363 17.98975,9.874 C17.8462493,9.81566637 17.7115006,9.74566708 17.5855,9.664 C17.4594993,9.58233292 17.3475005,9.49133383 17.2495,9.391 L17.526,8.9395 C17.5493334,8.90683317 17.5796665,8.87941678 17.617,8.85725 C17.6543335,8.83508322 17.6939998,8.824 17.736,8.824 C17.7943336,8.824 17.857333,8.84791643 17.925,8.89575 C17.992667,8.94358357 18.0731662,8.99666638 18.1665,9.055 C18.2598338,9.11333362 18.368916,9.16641643 18.49375,9.21425 C18.6185839,9.26208357 18.7684991,9.286 18.9435,9.286 C19.2118347,9.286 19.4194992,9.2224173 19.5665,9.09525 C19.7135007,8.9680827 19.787,8.78550119 19.787,8.5475 C19.787,8.41449934 19.7537503,8.30600042 19.68725,8.222 C19.6207496,8.13799958 19.5326672,8.06741695 19.423,8.01025 C19.3133328,7.95308305 19.1885007,7.90466687 19.0485,7.865 C18.9084993,7.82533314 18.7661674,7.7821669 18.6215,7.7355 C18.4768326,7.6888331 18.3345007,7.63283366 18.1945,7.5675 C18.0544993,7.50216634 17.9296672,7.41700052 17.82,7.312 C17.7103328,7.20699947 17.6222503,7.07575079 17.55575,6.91825 C17.4892496,6.76074921 17.456,6.56650116 17.456,6.3355 C17.456,6.15116574 17.4927496,5.97150087 17.56625,5.7965 C17.6397503,5.62149912 17.7464993,5.46633401 17.8865,5.331 C18.0265007,5.19566599 18.1991656,5.08716707 18.4045,5.0055 C18.6098343,4.92383293 18.8454986,4.883 19.1115,4.883 C19.4101681,4.883 19.6854987,4.9296662 19.9375,5.023 C20.1895012,5.1163338 20.4041658,5.24699916 20.5815,5.415 L20.347,5.8595 Z M24.5065,5.8595 C24.4784998,5.90850024 24.4487501,5.94408322 24.41725,5.96625 C24.3857498,5.98841678 24.3466669,5.9995 24.3,5.9995 C24.2509997,5.9995 24.1979169,5.98141685 24.14075,5.94525 C24.083583,5.90908315 24.0153337,5.86883356 23.936,5.8245 C23.8566662,5.78016644 23.7639172,5.73991685 23.65775,5.70375 C23.5515828,5.66758315 23.4261674,5.6495 23.2815,5.6495 C23.1508327,5.6495 23.0365005,5.66524984 22.9385,5.69675 C22.8404995,5.72825016 22.7582503,5.77199972 22.69175,5.828 C22.6252496,5.88400028 22.5756668,5.95108294 22.543,6.02925 C22.5103331,6.10741706 22.494,6.1931662 22.494,6.2865 C22.494,6.4055006 22.5272496,6.50466627 22.59375,6.584 C22.6602503,6.66333373 22.7483328,6.73099972 22.858,6.787 C22.9676672,6.84300028 23.0924993,6.89316645 23.2325,6.9375 C23.3725007,6.98183355 23.5159992,7.02908308 23.663,7.07925 C23.8100007,7.12941692 23.9534993,7.18774967 24.0935,7.25425 C24.2335007,7.32075033 24.3583328,7.40474949 24.468,7.50625 C24.5776672,7.60775051 24.6657496,7.73199926 24.73225,7.879 C24.7987503,8.02600074 24.832,8.20449895 24.832,8.4145 C24.832,8.64316781 24.792917,8.857249 24.71475,9.05675 C24.6365829,9.256251 24.5222507,9.43008259 24.37175,9.57825 C24.2212492,9.72641741 24.0375011,9.84308291 23.8205,9.92825 C23.6034989,10.0134171 23.3550014,10.056 23.075,10.056 C22.9139992,10.056 22.7553341,10.0402502 22.599,10.00875 C22.4426659,9.97724984 22.2927507,9.93233363 22.14925,9.874 C22.0057493,9.81566637 21.8710006,9.74566708 21.745,9.664 C21.6189993,9.58233292 21.5070005,9.49133383 21.409,9.391 L21.6855,8.9395 C21.7088334,8.90683317 21.7391665,8.87941678 21.7765,8.85725 C21.8138335,8.83508322 21.8534998,8.824 21.8955,8.824 C21.9538336,8.824 22.016833,8.84791643 22.0845,8.89575 C22.152167,8.94358357 22.2326662,8.99666638 22.326,9.055 C22.4193338,9.11333362 22.528416,9.16641643 22.65325,9.21425 C22.7780839,9.26208357 22.9279991,9.286 23.103,9.286 C23.3713346,9.286 23.5789992,9.2224173 23.726,9.09525 C23.8730007,8.9680827 23.9465,8.78550119 23.9465,8.5475 C23.9465,8.41449934 23.9132503,8.30600042 23.84675,8.222 C23.7802496,8.13799958 23.6921672,8.06741695 23.5825,8.01025 C23.4728328,7.95308305 23.3480007,7.90466687 23.208,7.865 C23.0679993,7.82533314 22.9256674,7.7821669 22.781,7.7355 C22.6363326,7.6888331 22.4940007,7.63283366 22.354,7.5675 C22.2139993,7.50216634 22.0891672,7.41700052 21.9795,7.312 C21.8698328,7.20699947 21.7817503,7.07575079 21.71525,6.91825 C21.6487496,6.76074921 21.6155,6.56650116 21.6155,6.3355 C21.6155,6.15116574 21.6522496,5.97150087 21.72575,5.7965 C21.7992503,5.62149912 21.9059993,5.46633401 22.046,5.331 C22.1860007,5.19566599 22.3586656,5.08716707 22.564,5.0055 C22.7693343,4.92383293 23.0049986,4.883 23.271,4.883 C23.5696681,4.883 23.8449987,4.9296662 24.097,5.023 C24.3490012,5.1163338 24.5636658,5.24699916 24.741,5.415 L24.5065,5.8595 Z M26.916,10 L25.971,10 L25.971,4.939 L26.916,4.939 L26.916,10 Z M31.842,8.8065 C31.8933335,8.8065 31.9388331,8.82633313 31.9785,8.866 L32.3495,9.2685 C32.1441656,9.5228346 31.8915848,9.71766599 31.59175,9.853 C31.2919151,9.98833401 30.9320021,10.056 30.512,10.056 C30.1363314,10.056 29.7985848,9.99183398 29.49875,9.8635 C29.1989151,9.73516602 28.9428344,9.55666781 28.7305,9.328 C28.5181656,9.09933219 28.3554172,8.82633492 28.24225,8.509 C28.1290827,8.19166508 28.0725,7.84516854 28.0725,7.4695 C28.0725,7.08916476 28.133166,6.74091825 28.2545,6.42475 C28.3758339,6.10858175 28.5467489,5.83616781 28.76725,5.6075 C28.9877511,5.37883219 29.2508318,5.2009173 29.5565,5.07375 C29.8621682,4.9465827 30.2004981,4.883 30.5715,4.883 C30.9401685,4.883 31.2674152,4.94366606 31.55325,5.065 C31.8390847,5.18633394 32.0823323,5.34499902 32.283,5.541 L31.968,5.9785 C31.9493332,6.00650014 31.9254168,6.03099989 31.89625,6.052 C31.8670831,6.07300011 31.8268335,6.0835 31.7755,6.0835 C31.7404998,6.0835 31.7043335,6.07358343 31.667,6.05375 C31.6296664,6.03391657 31.5888335,6.00941681 31.5445,5.98025 C31.5001664,5.95108319 31.4488336,5.91900017 31.3905,5.884 C31.3321663,5.84899982 31.2645003,5.81691681 31.1875,5.78775 C31.1104996,5.75858319 31.0212505,5.73408343 30.91975,5.71425 C30.8182494,5.69441657 30.7010006,5.6845 30.568,5.6845 C30.3416655,5.6845 30.1345842,5.7247496 29.94675,5.80525 C29.7589157,5.8857504 29.597334,6.0024159 29.462,6.15525 C29.3266659,6.3080841 29.221667,6.4947489 29.147,6.71525 C29.0723329,6.9357511 29.035,7.18716526 29.035,7.4695 C29.035,7.75416809 29.0752496,8.00733223 29.15575,8.229 C29.2362504,8.45066777 29.3453326,8.63733258 29.483,8.789 C29.6206673,8.94066743 29.7828324,9.0567496 29.9695,9.13725 C30.1561676,9.2177504 30.3568322,9.258 30.5715,9.258 C30.6998339,9.258 30.8159161,9.25100007 30.91975,9.237 C31.0235838,9.22299993 31.1192495,9.20083349 31.20675,9.1705 C31.2942504,9.14016652 31.3770829,9.10108357 31.45525,9.05325 C31.533417,9.00541643 31.6109996,8.94650035 31.688,8.8765 C31.7113334,8.85549989 31.7358332,8.8385834 31.7615,8.82575 C31.7871668,8.8129166 31.8139998,8.8065 31.842,8.8065 Z" id="CLASSIC" fill="#FF9A10" fill-rule="nonzero"></path>
        <path d="M13.2585,23.8595 C13.2304999,23.9085002 13.2007502,23.9440832 13.16925,23.96625 C13.1377498,23.9884168 13.0986669,23.9995 13.052,23.9995 C13.0029998,23.9995 12.949917,23.9814168 12.89275,23.94525 C12.835583,23.9090832 12.7673337,23.8688336 12.688,23.8245 C12.6086663,23.7801664 12.5159172,23.7399168 12.40975,23.70375 C12.3035828,23.6675832 12.1781674,23.6495 12.0335,23.6495 C11.9028327,23.6495 11.7885005,23.6652498 11.6905,23.69675 C11.5924995,23.7282502 11.5102503,23.7719997 11.44375,23.828 C11.3772497,23.8840003 11.3276668,23.9510829 11.295,24.02925 C11.2623332,24.1074171 11.246,24.1931662 11.246,24.2865 C11.246,24.4055006 11.2792497,24.5046663 11.34575,24.584 C11.4122503,24.6633337 11.5003328,24.7309997 11.61,24.787 C11.7196672,24.8430003 11.8444993,24.8931664 11.9845,24.9375 C12.1245007,24.9818336 12.2679993,25.0290831 12.415,25.07925 C12.5620007,25.1294169 12.7054993,25.1877497 12.8455,25.25425 C12.9855007,25.3207503 13.1103328,25.4047495 13.22,25.50625 C13.3296672,25.6077505 13.4177497,25.7319993 13.48425,25.879 C13.5507503,26.0260007 13.584,26.204499 13.584,26.4145 C13.584,26.6431678 13.5449171,26.857249 13.46675,27.05675 C13.3885829,27.256251 13.2742508,27.4300826 13.12375,27.57825 C12.9732492,27.7264174 12.7895011,27.8430829 12.5725,27.92825 C12.3554989,28.0134171 12.1070014,28.056 11.827,28.056 C11.6659992,28.056 11.5073341,28.0402502 11.351,28.00875 C11.1946659,27.9772498 11.0447507,27.9323336 10.90125,27.874 C10.7577493,27.8156664 10.6230006,27.7456671 10.497,27.664 C10.3709994,27.5823329 10.2590005,27.4913338 10.161,27.391 L10.4375,26.9395 C10.4608335,26.9068332 10.4911665,26.8794168 10.5285,26.85725 C10.5658335,26.8350832 10.6054998,26.824 10.6475,26.824 C10.7058336,26.824 10.768833,26.8479164 10.8365,26.89575 C10.904167,26.9435836 10.9846662,26.9966664 11.078,27.055 C11.1713338,27.1133336 11.280416,27.1664164 11.40525,27.21425 C11.530084,27.2620836 11.6799991,27.286 11.855,27.286 C12.1233347,27.286 12.3309993,27.2224173 12.478,27.09525 C12.6250007,26.9680827 12.6985,26.7855012 12.6985,26.5475 C12.6985,26.4144993 12.6652503,26.3060004 12.59875,26.222 C12.5322497,26.1379996 12.4441672,26.067417 12.3345,26.01025 C12.2248328,25.953083 12.1000007,25.9046669 11.96,25.865 C11.8199993,25.8253331 11.6776674,25.7821669 11.533,25.7355 C11.3883326,25.6888331 11.2460007,25.6328337 11.106,25.5675 C10.9659993,25.5021663 10.8411672,25.4170005 10.7315,25.312 C10.6218328,25.2069995 10.5337503,25.0757508 10.46725,24.91825 C10.4007497,24.7607492 10.3675,24.5665012 10.3675,24.3355 C10.3675,24.1511657 10.4042496,23.9715009 10.47775,23.7965 C10.5512504,23.6214991 10.6579993,23.466334 10.798,23.331 C10.9380007,23.195666 11.1106656,23.0871671 11.316,23.0055 C11.5213344,22.9238329 11.7569987,22.883 12.023,22.883 C12.3216682,22.883 12.5969987,22.9296662 12.849,23.023 C13.1010013,23.1163338 13.3156658,23.2469992 13.493,23.415 L13.2585,23.8595 Z M15.668,28 L14.723,28 L14.723,22.939 L15.668,22.939 L15.668,28 Z M21.385,22.939 L21.385,28 L20.902,28 C20.8273329,28 20.7649169,27.9877501 20.71475,27.96325 C20.6645831,27.9387499 20.6161669,27.8973336 20.5695,27.839 L17.927,24.465 C17.9410001,24.6190008 17.948,24.7613327 17.948,24.892 L17.948,28 L17.1185,28 L17.1185,22.939 L17.612,22.939 C17.6516669,22.939 17.6860832,22.94075 17.71525,22.94425 C17.7444168,22.94775 17.7700832,22.9547499 17.79225,22.96525 C17.8144168,22.9757501 17.8359999,22.9909166 17.857,23.01075 C17.8780001,23.0305834 17.9013332,23.0568332 17.927,23.0895 L20.58,26.4775 C20.573,26.3958329 20.5671667,26.3153337 20.5625,26.236 C20.5578333,26.1566663 20.5555,26.083167 20.5555,26.0155 L20.5555,22.939 L21.385,22.939 Z M23.777,23.688 L23.777,25.0915 L25.548,25.0915 L25.548,25.816 L23.777,25.816 L23.777,27.2475 L26.024,27.2475 L26.024,28 L22.832,28 L22.832,22.939 L26.024,22.939 L26.024,23.688 L23.777,23.688 Z" id="SINE" fill="#FF9A10" fill-rule="nonzero"></path>
        <path d="M9.2975,40.939 L7.726,46 L6.8755,46 L5.7695,42.542 C5.73916652,42.4579996 5.7111668,42.3553339 5.6855,42.234 C5.67149993,42.2923336 5.65750007,42.3471664 5.6435,42.3985 C5.62949993,42.4498336 5.61433342,42.4976664 5.598,42.542 L4.4815,46 L3.6275,46 L2.0595,40.939 L2.847,40.939 C2.92866707,40.939 2.99691639,40.9582498 3.05175,40.99675 C3.10658361,41.0352502 3.14333324,41.0871663 3.162,41.1525 L4.023,44.18 C4.04166676,44.254667 4.05974991,44.3357496 4.07725,44.42325 C4.09475009,44.5107504 4.11283324,44.6023329 4.1315,44.698 C4.15016676,44.5999995 4.17058322,44.5078338 4.19275,44.4215 C4.21491678,44.3351662 4.23883321,44.254667 4.2645,44.18 L5.2585,41.1525 C5.27716676,41.0988331 5.31391639,41.0498336 5.36875,41.0055 C5.42358361,40.9611664 5.49066627,40.939 5.57,40.939 L5.8465,40.939 C5.92816707,40.939 5.99466641,40.9588331 6.046,40.9985 C6.09733359,41.0381669 6.13583321,41.0894997 6.1615,41.1525 L7.152,44.18 C7.20100025,44.3246674 7.24533314,44.4914991 7.285,44.6805 C7.31533349,44.4961657 7.34916648,44.3293341 7.3865,44.18 L8.2475,41.1525 C8.26150007,41.0941664 8.29708305,41.0440002 8.35425,41.002 C8.41141695,40.9599998 8.47966627,40.939 8.559,40.939 L9.2975,40.939 Z M9.8465,43.5255 L11.6595,43.5255 L11.6595,44.2465 L9.8465,44.2465 L9.8465,43.5255 Z M15.95,41.7125 L14.424,41.7125 L14.424,46 L13.4825,46 L13.4825,41.7125 L11.9565,41.7125 L11.9565,40.939 L15.95,40.939 L15.95,41.7125 Z M19.0155,44.089 L18.3995,42.4055 C18.3691665,42.330833 18.3376668,42.2421672 18.305,42.1395 C18.2723332,42.0368328 18.2396668,41.9260006 18.207,41.807 C18.1766665,41.9260006 18.1451668,42.0374161 18.1125,42.14125 C18.0798332,42.2450839 18.0483335,42.3354996 18.018,42.4125 L17.4055,44.089 L19.0155,44.089 Z M20.678,46 L19.95,46 C19.8683329,46 19.8018336,45.9795835 19.7505,45.93875 C19.6991664,45.8979165 19.6606668,45.847167 19.635,45.7865 L19.257,44.754 L17.1605,44.754 L16.7825,45.7865 C16.7638332,45.8401669 16.7276669,45.8891664 16.674,45.9335 C16.6203331,45.9778336 16.5538337,46 16.4745,46 L15.7395,46 L17.731,40.939 L18.69,40.939 L20.678,46 Z M23.3165,45.265 C23.4915009,45.265 23.6384994,45.2440002 23.7575,45.202 C23.8765006,45.1599998 23.971583,45.1040003 24.04275,45.034 C24.113917,44.9639996 24.1652498,44.8823338 24.19675,44.789 C24.2282502,44.6956662 24.244,44.5965005 24.244,44.4915 C24.244,44.3818328 24.2265002,44.2832504 24.1915,44.19575 C24.1564998,44.1082496 24.101667,44.0335836 24.027,43.97175 C23.952333,43.9099164 23.8560839,43.8626668 23.73825,43.83 C23.6204161,43.7973332 23.4786675,43.781 23.313,43.781 L22.3645,43.781 L22.3645,45.265 L23.3165,45.265 Z M22.3645,41.667 L22.3645,43.13 L23.1135,43.13 C23.4355016,43.13 23.6787492,43.0716672 23.84325,42.955 C24.0077508,42.8383327 24.09,42.6528346 24.09,42.3985 C24.09,42.134832 24.0153341,41.9470006 23.866,41.835 C23.7166659,41.7229994 23.4833349,41.667 23.166,41.667 L22.3645,41.667 Z M23.166,40.939 C23.497335,40.939 23.7808322,40.9704997 24.0165,41.0335 C24.2521678,41.0965003 24.4452492,41.1863327 24.59575,41.303 C24.7462507,41.4196673 24.8564996,41.5608325 24.9265,41.7265 C24.9965003,41.8921675 25.0315,42.0788323 25.0315,42.2865 C25.0315,42.4055006 25.0140002,42.5192495 24.979,42.62775 C24.9439998,42.7362505 24.8897504,42.8377495 24.81625,42.93225 C24.7427496,43.0267505 24.6494172,43.1124996 24.53625,43.1895 C24.4230828,43.2665004 24.2883341,43.3318331 24.132,43.3855 C24.8273368,43.5418341 25.175,43.917497 25.175,44.5125 C25.175,44.7271677 25.1341671,44.9254991 25.0525,45.1075 C24.9708329,45.2895009 24.8518341,45.446416 24.6955,45.57825 C24.5391659,45.710084 24.3466678,45.813333 24.118,45.888 C23.8893322,45.962667 23.6280015,46 23.334,46 L21.423,46 L21.423,40.939 L23.166,40.939 Z M29.217,45.223 L29.217,46 L26.2525,46 L26.2525,40.939 L27.194,40.939 L27.194,45.223 L29.217,45.223 Z M31.054,41.688 L31.054,43.0915 L32.825,43.0915 L32.825,43.816 L31.054,43.816 L31.054,45.2475 L33.301,45.2475 L33.301,46 L30.109,46 L30.109,40.939 L33.301,40.939 L33.301,41.688 L31.054,41.688 Z" id="W-TABLE" fill="#FF9A10" fill-rule="nonzero"></path>
        <path d="M5.2585,59.8595 C5.23049986,59.9085002 5.20075016,59.9440832 5.16925,59.96625 C5.13774984,59.9884168 5.0986669,59.9995 5.052,59.9995 C5.00299976,59.9995 4.94991695,59.9814168 4.89275,59.94525 C4.83558305,59.9090832 4.76733373,59.8688336 4.688,59.8245 C4.60866627,59.7801664 4.5159172,59.7399168 4.40975,59.70375 C4.3035828,59.6675832 4.17816739,59.6495 4.0335,59.6495 C3.90283268,59.6495 3.78850049,59.6652498 3.6905,59.69675 C3.59249951,59.7282502 3.51025033,59.7719997 3.44375,59.828 C3.37724967,59.8840003 3.32766683,59.9510829 3.295,60.02925 C3.26233317,60.1074171 3.246,60.1931662 3.246,60.2865 C3.246,60.4055006 3.27924967,60.5046663 3.34575,60.584 C3.41225033,60.6633337 3.50033279,60.7309997 3.61,60.787 C3.71966722,60.8430003 3.8444993,60.8931664 3.9845,60.9375 C4.1245007,60.9818336 4.26799927,61.0290831 4.415,61.07925 C4.56200073,61.1294169 4.7054993,61.1877497 4.8455,61.25425 C4.9855007,61.3207503 5.11033279,61.4047495 5.22,61.50625 C5.32966722,61.6077505 5.41774967,61.7319993 5.48425,61.879 C5.55075033,62.0260007 5.584,62.204499 5.584,62.4145 C5.584,62.6431678 5.54491706,62.857249 5.46675,63.05675 C5.38858294,63.256251 5.27425075,63.4300826 5.12375,63.57825 C4.97324925,63.7264174 4.78950109,63.8430829 4.5725,63.92825 C4.35549892,64.0134171 4.1070014,64.056 3.827,64.056 C3.6659992,64.056 3.50733411,64.0402502 3.351,64.00875 C3.19466589,63.9772498 3.04475072,63.9323336 2.90125,63.874 C2.75774928,63.8156664 2.62300063,63.7456671 2.497,63.664 C2.37099937,63.5823329 2.25900049,63.4913338 2.161,63.391 L2.4375,62.9395 C2.46083345,62.9068332 2.49116648,62.8794168 2.5285,62.85725 C2.56583352,62.8350832 2.60549979,62.824 2.6475,62.824 C2.70583362,62.824 2.76883299,62.8479164 2.8365,62.89575 C2.90416701,62.9435836 2.9846662,62.9966664 3.078,63.055 C3.1713338,63.1133336 3.28041604,63.1664164 3.40525,63.21425 C3.53008396,63.2620836 3.67999913,63.286 3.855,63.286 C4.12333467,63.286 4.33099926,63.2224173 4.478,63.09525 C4.62500074,62.9680827 4.6985,62.7855012 4.6985,62.5475 C4.6985,62.4144993 4.66525033,62.3060004 4.59875,62.222 C4.53224967,62.1379996 4.44416722,62.067417 4.3345,62.01025 C4.22483279,61.953083 4.1000007,61.9046669 3.96,61.865 C3.8199993,61.8253331 3.67766739,61.7821669 3.533,61.7355 C3.38833261,61.6888331 3.2460007,61.6328337 3.106,61.5675 C2.9659993,61.5021663 2.84116722,61.4170005 2.7315,61.312 C2.62183279,61.2069995 2.53375033,61.0757508 2.46725,60.91825 C2.40074967,60.7607492 2.3675,60.5665012 2.3675,60.3355 C2.3675,60.1511657 2.40424963,59.9715009 2.47775,59.7965 C2.55125037,59.6214991 2.6579993,59.466334 2.798,59.331 C2.9380007,59.195666 3.11066564,59.0871671 3.316,59.0055 C3.52133436,58.9238329 3.75699867,58.883 4.023,58.883 C4.32166816,58.883 4.59699874,58.9296662 4.849,59.023 C5.10100126,59.1163338 5.31566578,59.2469992 5.493,59.415 L5.2585,59.8595 Z M10.4895,58.939 L10.4895,64 L9.54449999,64 L9.54449999,61.788 L7.16799999,61.788 L7.16799999,64 L6.22299999,64 L6.22299999,58.939 L7.16799999,58.939 L7.16799999,61.116 L9.54449999,61.116 L9.54449999,58.939 L10.4895,58.939 Z M11.272,61.5255 L13.085,61.5255 L13.085,62.2465 L11.272,62.2465 L11.272,61.5255 Z M18.134,58.939 L18.134,64 L17.651,64 C17.5763329,64 17.5139169,63.9877501 17.46375,63.96325 C17.4135831,63.9387499 17.3651669,63.8973336 17.3185,63.839 L14.676,60.465 C14.69,60.6190008 14.697,60.7613327 14.697,60.892 L14.697,64 L13.8675,64 L13.8675,58.939 L14.361,58.939 C14.4006668,58.939 14.4350832,58.94075 14.46425,58.94425 C14.4934168,58.94775 14.5190832,58.9547499 14.54125,58.96525 C14.5634168,58.9757501 14.5849999,58.9909166 14.606,59.01075 C14.6270001,59.0305834 14.6503332,59.0568332 14.676,59.0895 L17.329,62.4775 C17.3219999,62.3958329 17.3161667,62.3153337 17.3115,62.236 C17.3068333,62.1566663 17.3045,62.083167 17.3045,62.0155 L17.3045,58.939 L18.134,58.939 Z M23.9075,61.4695 C23.9075,61.8405019 23.8462506,62.1840818 23.72375,62.50025 C23.6012494,62.8164182 23.4280011,63.0899988 23.204,63.321 C22.9799989,63.5520012 22.7105015,63.7322494 22.3955,63.86175 C22.0804984,63.9912506 21.7305019,64.056 21.3455,64.056 C20.9628314,64.056 20.6140015,63.9912506 20.299,63.86175 C19.9839984,63.7322494 19.7139178,63.5520012 19.48875,63.321 C19.2635822,63.0899988 19.0891673,62.8164182 18.9655,62.50025 C18.8418327,62.1840818 18.78,61.8405019 18.78,61.4695 C18.78,61.0984981 18.8418327,60.7549182 18.9655,60.43875 C19.0891673,60.1225818 19.2635822,59.8490012 19.48875,59.618 C19.7139178,59.3869988 19.9839984,59.2067506 20.299,59.07725 C20.6140015,58.9477494 20.9628314,58.883 21.3455,58.883 C21.6021679,58.883 21.8436655,58.9127497 22.07,58.97225 C22.2963344,59.0317503 22.503999,59.1157495 22.693,59.22425 C22.8820009,59.3327505 23.0517492,59.4645826 23.20225,59.61975 C23.3527507,59.7749174 23.4804994,59.9481657 23.5855,60.1395 C23.6905005,60.3308343 23.7704164,60.5384989 23.82525,60.7625 C23.8800836,60.9865011 23.9075,61.2221654 23.9075,61.4695 Z M22.945,61.4695 C22.945,61.1918319 22.907667,60.9427511 22.833,60.72225 C22.7583329,60.5017489 22.6521673,60.3145008 22.5145,60.1605 C22.3768326,60.0064992 22.2094176,59.8886671 22.01225,59.807 C21.8150823,59.7253329 21.5928345,59.6845 21.3455,59.6845 C21.0981654,59.6845 20.8759176,59.7253329 20.67875,59.807 C20.4815823,59.8886671 20.313584,60.0064992 20.17475,60.1605 C20.0359159,60.3145008 19.929167,60.5017489 19.8545,60.72225 C19.7798329,60.9427511 19.7425,61.1918319 19.7425,61.4695 C19.7425,61.7471681 19.7798329,61.9962489 19.8545,62.21675 C19.929167,62.4372511 20.0359159,62.6239159 20.17475,62.77675 C20.313584,62.9295841 20.4815823,63.0468329 20.67875,63.1285 C20.8759176,63.2101671 21.0981654,63.251 21.3455,63.251 C21.5928345,63.251 21.8150823,63.2101671 22.01225,63.1285 C22.2094176,63.0468329 22.3768326,62.9295841 22.5145,62.77675 C22.6521673,62.6239159 22.7583329,62.4372511 22.833,62.21675 C22.907667,61.9962489 22.945,61.7471681 22.945,61.4695 Z M25.502,64 L24.557,64 L24.557,58.939 L25.502,58.939 L25.502,64 Z M29.1475,59.8595 C29.1194998,59.9085002 29.0897501,59.9440832 29.05825,59.96625 C29.0267498,59.9884168 28.9876669,59.9995 28.941,59.9995 C28.8919997,59.9995 28.8389169,59.9814168 28.78175,59.94525 C28.724583,59.9090832 28.6563337,59.8688336 28.577,59.8245 C28.4976662,59.7801664 28.4049172,59.7399168 28.29875,59.70375 C28.1925828,59.6675832 28.0671673,59.6495 27.9225,59.6495 C27.7918326,59.6495 27.6775004,59.6652498 27.5795,59.69675 C27.4814995,59.7282502 27.3992503,59.7719997 27.33275,59.828 C27.2662496,59.8840003 27.2166668,59.9510829 27.184,60.02925 C27.1513331,60.1074171 27.135,60.1931662 27.135,60.2865 C27.135,60.4055006 27.1682496,60.5046663 27.23475,60.584 C27.3012503,60.6633337 27.3893327,60.7309997 27.499,60.787 C27.6086672,60.8430003 27.7334993,60.8931664 27.8735,60.9375 C28.0135007,60.9818336 28.1569992,61.0290831 28.304,61.07925 C28.4510007,61.1294169 28.5944993,61.1877497 28.7345,61.25425 C28.8745007,61.3207503 28.9993327,61.4047495 29.109,61.50625 C29.2186672,61.6077505 29.3067496,61.7319993 29.37325,61.879 C29.4397503,62.0260007 29.473,62.204499 29.473,62.4145 C29.473,62.6431678 29.433917,62.857249 29.35575,63.05675 C29.2775829,63.256251 29.1632507,63.4300826 29.01275,63.57825 C28.8622492,63.7264174 28.678501,63.8430829 28.4615,63.92825 C28.2444989,64.0134171 27.9960014,64.056 27.716,64.056 C27.5549992,64.056 27.3963341,64.0402502 27.24,64.00875 C27.0836658,63.9772498 26.9337507,63.9323336 26.79025,63.874 C26.6467492,63.8156664 26.5120006,63.7456671 26.386,63.664 C26.2599993,63.5823329 26.1480004,63.4913338 26.05,63.391 L26.3265,62.9395 C26.3498334,62.9068332 26.3801664,62.8794168 26.4175,62.85725 C26.4548335,62.8350832 26.4944997,62.824 26.5365,62.824 C26.5948336,62.824 26.657833,62.8479164 26.7255,62.89575 C26.793167,62.9435836 26.8736662,62.9966664 26.967,63.055 C27.0603338,63.1133336 27.169416,63.1664164 27.29425,63.21425 C27.4190839,63.2620836 27.5689991,63.286 27.744,63.286 C28.0123346,63.286 28.2199992,63.2224173 28.367,63.09525 C28.5140007,62.9680827 28.5875,62.7855012 28.5875,62.5475 C28.5875,62.4144993 28.5542503,62.3060004 28.48775,62.222 C28.4212496,62.1379996 28.3331672,62.067417 28.2235,62.01025 C28.1138327,61.953083 27.9890007,61.9046669 27.849,61.865 C27.7089993,61.8253331 27.5666673,61.7821669 27.422,61.7355 C27.2773326,61.6888331 27.1350007,61.6328337 26.995,61.5675 C26.8549993,61.5021663 26.7301672,61.4170005 26.6205,61.312 C26.5108327,61.2069995 26.4227503,61.0757508 26.35625,60.91825 C26.2897496,60.7607492 26.2565,60.5665012 26.2565,60.3355 C26.2565,60.1511657 26.2932496,59.9715009 26.36675,59.7965 C26.4402503,59.6214991 26.5469993,59.466334 26.687,59.331 C26.8270007,59.195666 26.9996656,59.0871671 27.205,59.0055 C27.4103343,58.9238329 27.6459986,58.883 27.912,58.883 C28.2106681,58.883 28.4859987,58.9296662 28.738,59.023 C28.9900012,59.1163338 29.2046657,59.2469992 29.382,59.415 L29.1475,59.8595 Z M31.0569999,59.688 L31.0569999,61.0915 L32.8279999,61.0915 L32.8279999,61.816 L31.0569999,61.816 L31.0569999,63.2475 L33.3039999,63.2475 L33.3039999,64 L30.1119999,64 L30.1119999,58.939 L33.3039999,58.939 L33.3039999,59.688 L31.0569999,59.688 Z" id="SH-NOISE" fill="#FF9A10" fill-rule="nonzero"></path>
        <path d="M11.5085,95.688 L11.5085,97.186 L13.4055,97.186 L13.4055,97.9385 L11.5085,97.9385 L11.5085,100 L10.5635,100 L10.5635,94.939 L13.7555,94.939 L13.7555,95.688 L11.5085,95.688 Z M20.7335,94.939 L20.7335,100 L19.904,100 L19.904,96.731 C19.904,96.6003327 19.911,96.4591674 19.925,96.3075 L18.3955,99.181 C18.3231663,99.3186674 18.2123341,99.3875 18.063,99.3875 L17.93,99.3875 C17.7806659,99.3875 17.6698337,99.3186674 17.5975,99.181 L16.0505,96.297 C16.0575001,96.3740004 16.0633333,96.449833 16.068,96.5245 C16.0726667,96.599167 16.075,96.6679997 16.075,96.731 L16.075,100 L15.2455,100 L15.2455,94.939 L15.956,94.939 C15.9980002,94.939 16.0341665,94.9401667 16.0645,94.9425 C16.0948335,94.9448333 16.1222499,94.9506666 16.14675,94.96 C16.1712502,94.9693334 16.1934166,94.9844999 16.21325,95.0055 C16.2330835,95.0265001 16.2523333,95.0544998 16.271,95.0895 L17.7865,97.9 C17.8261669,97.974667 17.8629165,98.0516663 17.89675,98.131 C17.9305835,98.2103337 17.9638332,98.2919996 17.9965,98.376 C18.0291669,98.2896662 18.0629999,98.2062504 18.098,98.12575 C18.1330002,98.0452496 18.1703332,97.967667 18.21,97.893 L19.7045,95.0895 C19.7231668,95.0544998 19.7429999,95.0265001 19.764,95.0055 C19.7850001,94.9844999 19.8077499,94.9693334 19.83225,94.96 C19.8567502,94.9506666 19.8841665,94.9448333 19.9145,94.9425 C19.9448335,94.9401667 19.9809998,94.939 20.023,94.939 L20.7335,94.939 Z M22.3950001,96.3495 C22.4300002,96.1068321 22.4976662,95.8939176 22.5980001,95.71075 C22.6983339,95.5275824 22.8237493,95.3747506 22.9742501,95.25225 C23.1247508,95.1297494 23.2974157,95.0375836 23.4922501,94.97575 C23.6870844,94.9139164 23.8964989,94.883 24.1205001,94.883 C24.3538346,94.883 24.5644158,94.9162497 24.7522501,94.98275 C24.9400843,95.0492503 25.1004994,95.1414161 25.2335001,95.25925 C25.3665007,95.3770839 25.468583,95.5153325 25.5397501,95.674 C25.6109171,95.8326675 25.6465001,96.0041657 25.6465001,96.1885 C25.6465001,96.3495008 25.6284169,96.4912494 25.5922501,96.61375 C25.5560832,96.7362506 25.5041671,96.8429995 25.4365001,96.934 C25.3688331,97.0250005 25.2848339,97.1019997 25.1845001,97.165 C25.0841662,97.2280003 24.9710007,97.2804998 24.8450001,97.3225 C25.1483349,97.4181671 25.374666,97.563999 25.5240001,97.76 C25.6733341,97.956001 25.7480001,98.2021652 25.7480001,98.4985 C25.7480001,98.7505013 25.7013339,98.9733324 25.6080001,99.167 C25.5146663,99.3606676 25.3886675,99.523416 25.2300001,99.65525 C25.0713326,99.787084 24.8875844,99.886833 24.6787501,99.9545 C24.4699157,100.022167 24.2488346,100.056 24.0155001,100.056 C23.7611655,100.056 23.539501,100.026834 23.3505001,99.9685 C23.1614991,99.9101664 22.9970008,99.8238339 22.8570001,99.7095 C22.7169994,99.5951661 22.5980005,99.4551675 22.5000001,99.2895 C22.4019996,99.1238325 22.3180004,98.9325011 22.2480001,98.7155 L22.6295001,98.558 C22.7298339,98.5159998 22.8237496,98.5049166 22.9112501,98.52475 C22.9987505,98.5445834 23.0623332,98.591833 23.1020001,98.6665 C23.1440003,98.7481671 23.1900831,98.8286663 23.2402501,98.908 C23.290417,98.9873337 23.3504997,99.0579164 23.4205001,99.11975 C23.4905004,99.1815836 23.5727496,99.2317498 23.6672501,99.27025 C23.7617505,99.3087502 23.8743327,99.328 24.0050001,99.328 C24.1520008,99.328 24.2803328,99.3040836 24.3900001,99.25625 C24.4996673,99.2084164 24.5912497,99.1460004 24.6647501,99.069 C24.7382504,98.9919996 24.7930832,98.9062505 24.8292501,98.81175 C24.8654169,98.7172495 24.8835001,98.6221671 24.8835001,98.5265 C24.8835001,98.4051661 24.8706669,98.2949172 24.8450001,98.19575 C24.8193333,98.0965828 24.7656671,98.0120003 24.6840001,97.942 C24.602333,97.8719996 24.4850842,97.8171669 24.3322501,97.7775 C24.179416,97.7378331 23.974668,97.718 23.7180001,97.718 L23.7180001,97.102 C23.9303345,97.0996667 24.1064994,97.0798335 24.2465001,97.0425 C24.3865008,97.0051665 24.4979163,96.9532503 24.5807501,96.88675 C24.6635838,96.8202497 24.7213332,96.7403338 24.7540001,96.647 C24.7866669,96.5536662 24.8030001,96.4510006 24.8030001,96.339 C24.8030001,96.1009988 24.7365007,95.9201673 24.6035001,95.7965 C24.4704994,95.6728327 24.2931678,95.611 24.0715001,95.611 C23.9688329,95.611 23.8743338,95.6255832 23.7880001,95.65475 C23.7016663,95.6839168 23.6240837,95.7247497 23.5552501,95.77725 C23.4864164,95.8297503 23.428667,95.8909996 23.3820001,95.961 C23.3353332,96.0310003 23.3003335,96.1079996 23.2770001,96.192 C23.2373332,96.2993339 23.185417,96.3704998 23.1212501,96.4055 C23.0570831,96.4405002 22.9666673,96.4486668 22.8500001,96.43 L22.3950001,96.3495 Z" id="FM3" fill="#FF9A10" fill-rule="nonzero"></path>
        <path d="M9.2975,130.939 L7.726,136 L6.8755,136 L5.7695,132.542 C5.73916652,132.458 5.7111668,132.355334 5.6855,132.234 C5.67149993,132.292334 5.65750007,132.347166 5.6435,132.3985 C5.62949993,132.449834 5.61433342,132.497666 5.598,132.542 L4.4815,136 L3.6275,136 L2.0595,130.939 L2.847,130.939 C2.92866707,130.939 2.99691639,130.95825 3.05175,130.99675 C3.10658361,131.03525 3.14333324,131.087166 3.162,131.1525 L4.023,134.18 C4.04166676,134.254667 4.05974991,134.33575 4.07725,134.42325 C4.09475009,134.51075 4.11283324,134.602333 4.1315,134.698 C4.15016676,134.6 4.17058322,134.507834 4.19275,134.4215 C4.21491678,134.335166 4.23883321,134.254667 4.2645,134.18 L5.2585,131.1525 C5.27716676,131.098833 5.31391639,131.049834 5.36875,131.0055 C5.42358361,130.961166 5.49066627,130.939 5.57,130.939 L5.8465,130.939 C5.92816707,130.939 5.99466641,130.958833 6.046,130.9985 C6.09733359,131.038167 6.13583321,131.0895 6.1615,131.1525 L7.152,134.18 C7.20100025,134.324667 7.24533314,134.491499 7.285,134.6805 C7.31533349,134.496166 7.34916648,134.329334 7.3865,134.18 L8.2475,131.1525 C8.26150007,131.094166 8.29708305,131.044 8.35425,131.002 C8.41141695,130.96 8.47966627,130.939 8.559,130.939 L9.2975,130.939 Z M10.4855,136 L9.5405,136 L9.5405,130.939 L10.4855,130.939 L10.4855,136 Z M15.5025,130.939 L15.5025,136 L15.0195,136 C14.944833,136 14.8824169,135.98775 14.83225,135.96325 C14.7820831,135.93875 14.7336669,135.897334 14.687,135.839 L12.0445,132.465 C12.0585001,132.619001 12.0655,132.761333 12.0655,132.892 L12.0655,136 L11.236,136 L11.236,130.939 L11.7295,130.939 C11.7691669,130.939 11.8035832,130.94075 11.83275,130.94425 C11.8619168,130.94775 11.8875832,130.95475 11.90975,130.96525 C11.9319168,130.97575 11.9534999,130.990917 11.9745,131.01075 C11.9955001,131.030583 12.0188332,131.056833 12.0445,131.0895 L14.6975,134.4775 C14.6905,134.395833 14.6846667,134.315334 14.68,134.236 C14.6753333,134.156666 14.673,134.083167 14.673,134.0155 L14.673,130.939 L15.5025,130.939 Z M20.7435,133.4695 C20.7435,133.840502 20.6816673,134.181165 20.558,134.4915 C20.4343327,134.801835 20.2605011,135.068999 20.0365,135.293 C19.8124989,135.517001 19.5430016,135.690833 19.228,135.8145 C18.9129984,135.938167 18.5630019,136 18.178,136 L16.2495,136 L16.2495,130.939 L18.178,130.939 C18.5630019,130.939 18.9129984,131.001416 19.228,131.12625 C19.5430016,131.251084 19.8124989,131.424916 20.0365,131.64775 C20.2605011,131.870584 20.4343327,132.137165 20.558,132.4475 C20.6816673,132.757835 20.7435,133.098498 20.7435,133.4695 Z M19.7775,133.4695 C19.7775,133.191832 19.7407504,132.942751 19.66725,132.72225 C19.5937496,132.501749 19.487584,132.315084 19.34875,132.16225 C19.209916,132.009416 19.0419177,131.892167 18.84475,131.8105 C18.6475824,131.728833 18.4253346,131.688 18.178,131.688 L17.1945,131.688 L17.1945,135.251 L18.178,135.251 C18.4253346,135.251 18.6475824,135.210167 18.84475,135.1285 C19.0419177,135.046833 19.209916,134.929584 19.34875,134.77675 C19.487584,134.623916 19.5937496,134.437251 19.66725,134.21675 C19.7407504,133.996249 19.7775,133.747168 19.7775,133.4695 Z M26.0195,133.4695 C26.0195,133.840502 25.9582506,134.184082 25.83575,134.50025 C25.7132494,134.816418 25.5400011,135.089999 25.316,135.321 C25.0919989,135.552001 24.8225016,135.732249 24.5075,135.86175 C24.1924984,135.991251 23.8425019,136.056 23.4575,136.056 C23.0748314,136.056 22.7260016,135.991251 22.411,135.86175 C22.0959984,135.732249 21.8259178,135.552001 21.60075,135.321 C21.3755822,135.089999 21.2011673,134.816418 21.0775,134.50025 C20.9538327,134.184082 20.892,133.840502 20.892,133.4695 C20.892,133.098498 20.9538327,132.754918 21.0775,132.43875 C21.2011673,132.122582 21.3755822,131.849001 21.60075,131.618 C21.8259178,131.386999 22.0959984,131.206751 22.411,131.07725 C22.7260016,130.947749 23.0748314,130.883 23.4575,130.883 C23.714168,130.883 23.9556656,130.91275 24.182,130.97225 C24.4083345,131.03175 24.6159991,131.115749 24.805,131.22425 C24.994001,131.332751 25.1637493,131.464583 25.31425,131.61975 C25.4647508,131.774917 25.5924995,131.948166 25.6975,132.1395 C25.8025005,132.330834 25.8824164,132.538499 25.93725,132.7625 C25.9920836,132.986501 26.0195,133.222165 26.0195,133.4695 Z M25.057,133.4695 C25.057,133.191832 25.0196671,132.942751 24.945,132.72225 C24.870333,132.501749 24.7641674,132.314501 24.6265,132.1605 C24.4888327,132.006499 24.3214177,131.888667 24.12425,131.807 C23.9270824,131.725333 23.7048346,131.6845 23.4575,131.6845 C23.2101654,131.6845 22.9879177,131.725333 22.79075,131.807 C22.5935824,131.888667 22.425584,132.006499 22.28675,132.1605 C22.147916,132.314501 22.0411671,132.501749 21.9665,132.72225 C21.891833,132.942751 21.8545,133.191832 21.8545,133.4695 C21.8545,133.747168 21.891833,133.996249 21.9665,134.21675 C22.0411671,134.437251 22.147916,134.623916 22.28675,134.77675 C22.425584,134.929584 22.5935824,135.046833 22.79075,135.1285 C22.9879177,135.210167 23.2101654,135.251 23.4575,135.251 C23.7048346,135.251 23.9270824,135.210167 24.12425,135.1285 C24.3214177,135.046833 24.4888327,134.929584 24.6265,134.77675 C24.7641674,134.623916 24.870333,134.437251 24.945,134.21675 C25.0196671,133.996249 25.057,133.747168 25.057,133.4695 Z M33.203,130.939 L31.6315,136 L30.781,136 L29.675,132.542 C29.6446665,132.458 29.6166668,132.355334 29.591,132.234 C29.577,132.292334 29.5630001,132.347166 29.549,132.3985 C29.535,132.449834 29.5198334,132.497666 29.5035,132.542 L28.387,136 L27.533,136 L25.965,130.939 L26.7525,130.939 C26.8341671,130.939 26.9024164,130.95825 26.95725,130.99675 C27.0120836,131.03525 27.0488333,131.087166 27.0675,131.1525 L27.9285,134.18 C27.9471668,134.254667 27.9652499,134.33575 27.98275,134.42325 C28.0002501,134.51075 28.0183333,134.602333 28.037,134.698 C28.0556668,134.6 28.0760832,134.507834 28.09825,134.4215 C28.1204168,134.335166 28.1443332,134.254667 28.17,134.18 L29.164,131.1525 C29.1826668,131.098833 29.2194164,131.049834 29.27425,131.0055 C29.3290836,130.961166 29.3961663,130.939 29.4755,130.939 L29.752,130.939 C29.8336671,130.939 29.9001664,130.958833 29.9515,130.9985 C30.0028336,131.038167 30.0413332,131.0895 30.067,131.1525 L31.0575,134.18 C31.1065003,134.324667 31.1508332,134.491499 31.1905,134.6805 C31.2208335,134.496166 31.2546665,134.329334 31.292,134.18 L32.153,131.1525 C32.1670001,131.094166 32.2025831,131.044 32.25975,131.002 C32.316917,130.96 32.3851663,130.939 32.4645,130.939 L33.203,130.939 Z" id="WINDOW" fill="#FF9A10" fill-rule="nonzero"></path>
        <path d="M5.2375,80.089 L4.6215,78.4055 C4.59116651,78.330833 4.55966683,78.2421672 4.527,78.1395 C4.49433317,78.0368328 4.46166683,77.9260006 4.429,77.807 C4.39866652,77.9260006 4.36716683,78.0374161 4.3345,78.14125 C4.30183317,78.2450839 4.27033349,78.3354996 4.24,78.4125 L3.6275,80.089 L5.2375,80.089 Z M6.9,82 L6.172,82 C6.09033293,82 6.02383359,81.9795835 5.9725,81.93875 C5.92116641,81.8979165 5.8826668,81.847167 5.857,81.7865 L5.479,80.754 L3.3825,80.754 L3.0045,81.7865 C2.98583324,81.8401669 2.94966693,81.8891664 2.896,81.9335 C2.84233307,81.9778336 2.77583373,82 2.6965,82 L1.9615,82 L3.953,76.939 L4.912,76.939 L6.9,82 Z M9.256,81.2405 C9.43800091,81.2405 9.60074928,81.210167 9.74425,81.1495 C9.88775072,81.088833 10.0084995,81.0036672 10.1065,80.894 C10.2045005,80.7843328 10.2797497,80.6513341 10.33225,80.495 C10.3847503,80.3386659 10.411,80.1636676 10.411,79.97 L10.411,76.939 L11.3525,76.939 L11.3525,79.97 C11.3525,80.2710015 11.3040838,80.5492487 11.20725,80.80475 C11.1104162,81.0602513 10.9715842,81.2807491 10.79075,81.46625 C10.6099158,81.6517509 10.3900013,81.7964161 10.131,81.90025 C9.87199871,82.0040839 9.58033496,82.056 9.256,82.056 C8.9293317,82.056 8.6365013,82.0040839 8.3775,81.90025 C8.11849871,81.7964161 7.89858424,81.6517509 7.71775,81.46625 C7.53691576,81.2807491 7.39808382,81.0602513 7.30125,80.80475 C7.20441618,80.5492487 7.156,80.2710015 7.156,79.97 L7.156,76.939 L8.0975,76.939 L8.0975,79.9665 C8.0975,80.1601676 8.12374974,80.3351659 8.17625,80.4915 C8.22875026,80.6478341 8.30458284,80.7814161 8.40375,80.89225 C8.50291716,81.0030839 8.62424928,81.088833 8.76775,81.1495 C8.91125072,81.210167 9.07399909,81.2405 9.256,81.2405 Z M16.8305,79.4695 C16.8305,79.8405019 16.7686673,80.1811651 16.645,80.4915 C16.5213327,80.8018349 16.3475011,81.0689989 16.1235,81.293 C15.8994989,81.5170011 15.6300016,81.6908327 15.315,81.8145 C14.9999984,81.9381673 14.6500019,82 14.265,82 L12.3365,82 L12.3365,76.939 L14.265,76.939 C14.6500019,76.939 14.9999984,77.001416 15.315,77.12625 C15.6300016,77.251084 15.8994989,77.4249156 16.1235,77.64775 C16.3475011,77.8705844 16.5213327,78.1371651 16.645,78.4475 C16.7686673,78.7578349 16.8305,79.0984981 16.8305,79.4695 Z M15.8645,79.4695 C15.8645,79.1918319 15.8277504,78.9427511 15.75425,78.72225 C15.6807496,78.5017489 15.574584,78.3150841 15.43575,78.16225 C15.296916,78.0094159 15.1289177,77.8921671 14.93175,77.8105 C14.7345824,77.7288329 14.5123346,77.688 14.265,77.688 L13.2815,77.688 L13.2815,81.251 L14.265,81.251 C14.5123346,81.251 14.7345824,81.2101671 14.93175,81.1285 C15.1289177,81.0468329 15.296916,80.9295841 15.43575,80.77675 C15.574584,80.6239159 15.6807496,80.4372511 15.75425,80.21675 C15.8277504,79.9962489 15.8645,79.7471681 15.8645,79.4695 Z M18.525,82 L17.58,82 L17.58,76.939 L18.525,76.939 L18.525,82 Z M24.402,79.4695 C24.402,79.8405019 24.3407506,80.1840818 24.21825,80.50025 C24.0957494,80.8164182 23.9225011,81.0899988 23.6985,81.321 C23.4744989,81.5520012 23.2050016,81.7322494 22.89,81.86175 C22.5749984,81.9912506 22.2250019,82.056 21.84,82.056 C21.4573314,82.056 21.1085016,81.9912506 20.7935,81.86175 C20.4784984,81.7322494 20.2084178,81.5520012 19.98325,81.321 C19.7580822,81.0899988 19.5836673,80.8164182 19.46,80.50025 C19.3363327,80.1840818 19.2745,79.8405019 19.2745,79.4695 C19.2745,79.0984981 19.3363327,78.7549182 19.46,78.43875 C19.5836673,78.1225818 19.7580822,77.8490012 19.98325,77.618 C20.2084178,77.3869988 20.4784984,77.2067506 20.7935,77.07725 C21.1085016,76.9477494 21.4573314,76.883 21.84,76.883 C22.096668,76.883 22.3381655,76.9127497 22.5645,76.97225 C22.7908345,77.0317503 22.9984991,77.1157495 23.1875,77.22425 C23.376501,77.3327505 23.5462493,77.4645826 23.69675,77.61975 C23.8472508,77.7749174 23.9749995,77.9481657 24.08,78.1395 C24.1850005,78.3308343 24.2649164,78.5384989 24.31975,78.7625 C24.3745836,78.9865011 24.402,79.2221654 24.402,79.4695 Z M23.4395,79.4695 C23.4395,79.1918319 23.402167,78.9427511 23.3275,78.72225 C23.252833,78.5017489 23.1466674,78.3145008 23.009,78.1605 C22.8713327,78.0064992 22.7039177,77.8886671 22.50675,77.807 C22.3095824,77.7253329 22.0873346,77.6845 21.84,77.6845 C21.5926654,77.6845 21.3704177,77.7253329 21.17325,77.807 C20.9760824,77.8886671 20.808084,78.0064992 20.66925,78.1605 C20.530416,78.3145008 20.423667,78.5017489 20.349,78.72225 C20.274333,78.9427511 20.237,79.1918319 20.237,79.4695 C20.237,79.7471681 20.274333,79.9962489 20.349,80.21675 C20.423667,80.4372511 20.530416,80.6239159 20.66925,80.77675 C20.808084,80.9295841 20.9760824,81.0468329 21.17325,81.1285 C21.3704177,81.2101671 21.5926654,81.251 21.84,81.251 C22.0873346,81.251 22.3095824,81.2101671 22.50675,81.1285 C22.7039177,81.0468329 22.8713327,80.9295841 23.009,80.77675 C23.1466674,80.6239159 23.252833,80.4372511 23.3275,80.21675 C23.402167,79.9962489 23.4395,79.7471681 23.4395,79.4695 Z M27.7175,82 L26.7725,82 L26.7725,76.939 L27.7175,76.939 L27.7175,82 Z M33.0345,76.939 L33.0345,82 L32.5515,82 C32.476833,82 32.4144169,81.9877501 32.36425,81.96325 C32.3140831,81.9387499 32.2656669,81.8973336 32.219,81.839 L29.5765,78.465 C29.5905001,78.6190008 29.5975,78.7613327 29.5975,78.892 L29.5975,82 L28.768,82 L28.768,76.939 L29.2615,76.939 C29.3011669,76.939 29.3355832,76.94075 29.36475,76.94425 C29.3939168,76.94775 29.4195832,76.9547499 29.44175,76.96525 C29.4639168,76.9757501 29.4854999,76.9909166 29.5065,77.01075 C29.5275001,77.0305834 29.5508332,77.0568332 29.5765,77.0895 L32.2295,80.4775 C32.2225,80.3958329 32.2166667,80.3153337 32.212,80.236 C32.2073333,80.1566663 32.205,80.083167 32.205,80.0155 L32.205,76.939 L33.0345,76.939 Z" id="AUDIOIN" fill="#FF9A10" fill-rule="nonzero"></path>
        <path d="M13.703,112.939 L13.703,113.688 L11.4595,113.688 L11.4595,115.186 L13.353,115.186 L13.353,115.9385 L11.4595,115.9385 L11.4595,118 L10.511,118 L10.511,112.939 L13.703,112.939 Z M17.7025,115.9 C17.7421669,115.974667 17.7789165,116.05225 17.81275,116.13275 C17.8465835,116.21325 17.8798332,116.294333 17.9125,116.376 C17.9451669,116.292 17.9789999,116.209167 18.014,116.1275 C18.0490002,116.045833 18.0863332,115.967667 18.126,115.893 L19.624,113.0895 C19.6426668,113.0545 19.6619166,113.0265 19.68175,113.0055 C19.7015835,112.9845 19.7237499,112.969333 19.74825,112.96 C19.7727502,112.950667 19.8001665,112.944833 19.8305,112.9425 C19.8608335,112.940167 19.8969998,112.939 19.939,112.939 L20.6495,112.939 L20.6495,118 L19.82,118 L19.82,114.731 C19.82,114.670333 19.82175,114.603834 19.82525,114.5315 C19.82875,114.459166 19.834,114.385667 19.841,114.311 L18.3115,117.181 C18.2764999,117.246334 18.2310003,117.297083 18.175,117.33325 C18.1189997,117.369417 18.0536671,117.3875 17.979,117.3875 L17.8495,117.3875 C17.774833,117.3875 17.7095003,117.369417 17.6535,117.33325 C17.5974997,117.297083 17.5520002,117.246334 17.517,117.181 L15.9665,114.3005 C15.9758334,114.3775 15.98225,114.45275 15.98575,114.52625 C15.98925,114.59975 15.991,114.668 15.991,114.731 L15.991,118 L15.1615,118 L15.1615,112.939 L15.872,112.939 C15.9140002,112.939 15.9501665,112.940167 15.9805,112.9425 C16.0108335,112.944833 16.0382499,112.950667 16.06275,112.96 C16.0872502,112.969333 16.1099999,112.9845 16.131,113.0055 C16.1520001,113.0265 16.1718333,113.0545 16.1905,113.0895 L17.7025,115.9 Z M23.9875001,112.883 C24.2208346,112.883 24.4343324,112.917416 24.6280001,112.98625 C24.8216677,113.055084 24.9873327,113.152499 25.1250001,113.2785 C25.2626674,113.404501 25.3699997,113.556166 25.4470001,113.7335 C25.5240004,113.910834 25.5625001,114.107999 25.5625001,114.325 C25.5625001,114.511668 25.5350837,114.684333 25.4802501,114.843 C25.4254164,115.001667 25.3519172,115.153333 25.2597501,115.298 C25.1675829,115.442667 25.0596673,115.582666 24.9360001,115.718 C24.8123328,115.853334 24.6828341,115.990999 24.5475001,116.131 L23.4065001,117.2965 C23.5185006,117.263833 23.6281662,117.23875 23.7355001,117.22125 C23.8428339,117.20375 23.9454996,117.195 24.0435001,117.195 L25.3420001,117.195 C25.4353339,117.195 25.5094164,117.22125 25.5642501,117.27375 C25.6190837,117.32625 25.6465001,117.395666 25.6465001,117.482 L25.6465001,118 L22.1745001,118 L22.1745001,117.713 C22.1745001,117.654666 22.1867499,117.594 22.2112501,117.531 C22.2357502,117.468 22.2748331,117.409667 22.3285001,117.356 L23.8650001,115.816 C23.993334,115.685333 24.1082495,115.560501 24.2097501,115.4415 C24.3112506,115.322499 24.3964164,115.204667 24.4652501,115.088 C24.5340837,114.971333 24.5865832,114.852917 24.6227501,114.73275 C24.6589169,114.612583 24.6770001,114.486001 24.6770001,114.353 C24.6770001,114.231666 24.6595002,114.124917 24.6245001,114.03275 C24.5894999,113.940583 24.5393337,113.863 24.4740001,113.8 C24.4086664,113.737 24.3310838,113.68975 24.2412501,113.65825 C24.1514163,113.62675 24.0505006,113.611 23.9385001,113.611 C23.7308324,113.611 23.5599174,113.663499 23.4257501,113.7685 C23.2915827,113.873501 23.197667,114.014666 23.1440001,114.192 C23.1183333,114.280667 23.0798336,114.34425 23.0285001,114.38275 C22.9771665,114.42125 22.9118338,114.4405 22.8325001,114.4405 C22.7974999,114.4405 22.7590003,114.437 22.7170001,114.43 L22.2620001,114.3495 C22.2970002,114.106832 22.3646662,113.893918 22.4650001,113.71075 C22.5653339,113.527582 22.6907493,113.374751 22.8412501,113.25225 C22.9917508,113.129749 23.1644157,113.037584 23.3592501,112.97575 C23.5540844,112.913916 23.7634989,112.883 23.9875001,112.883 Z" id="FM2" fill="#FF9A10" fill-rule="nonzero"></path>
    </g>
</svg>