<?xml version="1.0" encoding="UTF-8"?>
<svg width="36px" height="81px" viewBox="0 0 36 81" version="1.1" xmlns="http://www.w3.org/2000/svg" xmlns:xlink="http://www.w3.org/1999/xlink">
    <g id="bmp00114" stroke="none" stroke-width="1" fill="none" fill-rule="evenodd">
        <rect id="Rectangle" stroke="#979797" fill="#E3E3E3" x="0.5" y="0.5" width="35" height="26" rx="5"></rect>
        <rect id="Rectangle" fill="#A2A5B8" x="2" y="9" width="32" height="1"></rect>
        <rect id="Rectangle" fill="#A2A5B8" x="2" y="17" width="32" height="1"></rect>
        <rect id="Rectangle" fill="#A2A5B8" x="2" y="9" width="32" height="1"></rect>
        <rect id="Rectangle" fill="#A2A5B8" x="2" y="17" width="32" height="1"></rect>
        <rect id="Rectangle" stroke="#979797" fill="#E3E3E3" x="0.5" y="27.5" width="35" height="26" rx="5"></rect>
        <rect id="Rectangle" fill="#A2A5B8" x="2" y="36" width="32" height="1"></rect>
        <rect id="Rectangle" fill="#A2A5B8" x="2" y="44" width="32" height="1"></rect>
        <rect id="Rectangle" stroke="#979797" fill="#E3E3E3" x="0.5" y="54.5" width="35" height="26" rx="5"></rect>
        <rect id="Rectangle" fill="#A2A5B8" x="2" y="63" width="32" height="1"></rect>
        <rect id="Rectangle" fill="#A2A5B8" x="2" y="71" width="32" height="1"></rect>
        <path d="M5,2 L31,2 C32.1045695,2 33,2.8954305 33,4 L33,9 L3,9 L3,4 C3,2.8954305 3.8954305,2 5,2 Z" id="Rectangle" fill="#FF9A10"></path>
        <rect id="Rectangle" fill="#FF9A10" x="3" y="37" width="30" height="7" rx="2"></rect>
        <path d="M5,72 L31,72 C32.1045695,72 33,72.8954305 33,74 L33,79 L3,79 L3,74 C3,72.8954305 3.8954305,72 5,72 Z" id="Rectangle" fill="#FF9A10" transform="translate(18.000000, 75.500000) scale(1, -1) translate(-18.000000, -75.500000) "></path>
        <path d="M7.311,3.9365 C7.27599982,3.99250028 7.23925019,4.03449986 7.20075,4.0625 C7.16224981,4.09050014 7.11266697,4.1045 7.052,4.1045 C6.99833307,4.1045 6.94058364,4.0875835 6.87875,4.05375 C6.81691636,4.0199165 6.74691706,3.98200021 6.66875,3.94 C6.59058294,3.89799979 6.50133384,3.8600835 6.401,3.82625 C6.30066616,3.7924165 6.18633398,3.7755 6.058,3.7755 C5.83633222,3.7755 5.67125054,3.82274953 5.56275,3.91725 C5.45424946,4.01175047 5.4,4.13949919 5.4,4.3005 C5.4,4.40316718 5.43266634,4.48833299 5.498,4.556 C5.56333366,4.623667 5.6490828,4.68199975 5.75525,4.731 C5.8614172,4.78000025 5.98274932,4.82491646 6.11925,4.86575 C6.25575068,4.90658354 6.39516595,4.95208308 6.5375,5.00225 C6.67983404,5.05241692 6.81924932,5.11133299 6.95575,5.179 C7.09225068,5.246667 7.2135828,5.33299948 7.31975,5.438 C7.4259172,5.54300053 7.51166634,5.67074925 7.577,5.82125 C7.64233366,5.97175075 7.675,6.1531656 7.675,6.3655 C7.675,6.60116784 7.63416708,6.82166564 7.5525,7.027 C7.47083292,7.23233436 7.35241744,7.4114159 7.19725,7.56425 C7.04208256,7.7170841 6.85075114,7.83724956 6.62325,7.92475 C6.39574886,8.01225044 6.13733478,8.056 5.848,8.056 C5.68933254,8.056 5.52775082,8.03966683 5.36325,8.007 C5.19874918,7.97433317 5.03950077,7.9282503 4.8855,7.86875 C4.73149923,7.8092497 4.58683401,7.73866708 4.4515,7.657 C4.31616599,7.57533292 4.19833383,7.48433384 4.098,7.384 L4.448,6.831 C4.47600014,6.79133314 4.51274977,6.75808347 4.55825,6.73125 C4.60375023,6.70441653 4.65333306,6.691 4.707,6.691 C4.77700035,6.691 4.84758298,6.71316644 4.91875,6.7575 C4.98991702,6.80183355 5.07041622,6.85083306 5.16025,6.9045 C5.25008378,6.95816693 5.35333275,7.00716644 5.47,7.0515 C5.58666725,7.09583356 5.72433254,7.118 5.883,7.118 C6.09766774,7.118 6.26449941,7.07075047 6.3835,6.97625 C6.50250059,6.88174953 6.562,6.73183436 6.562,6.5265 C6.562,6.4074994 6.52933366,6.31066704 6.464,6.236 C6.39866634,6.16133296 6.3129172,6.09950024 6.20675,6.0505 C6.1005828,6.00149976 5.97983401,5.95833352 5.8445,5.921 C5.70916599,5.88366648 5.57033405,5.84225023 5.428,5.79675 C5.28566595,5.75124977 5.14683401,5.69525033 5.0115,5.62875 C4.87616599,5.56224967 4.7554172,5.47475054 4.64925,5.36625 C4.5430828,5.25774946 4.45733366,5.12241748 4.392,4.96025 C4.32666634,4.79808252 4.294,4.59800119 4.294,4.36 C4.294,4.16866571 4.33249961,3.98200091 4.4095,3.8 C4.48650039,3.61799909 4.59966592,3.45583405 4.749,3.3135 C4.89833408,3.17116595 5.08149892,3.05741709 5.2985,2.97225 C5.51550109,2.88708291 5.7639986,2.8445 6.044,2.8445 C6.20033412,2.8445 6.35258259,2.85674988 6.50075,2.88125 C6.64891741,2.90575012 6.78949934,2.94191643 6.9225,2.98975 C7.05550067,3.03758357 7.17974942,3.09474967 7.29525,3.16125 C7.41075058,3.22775033 7.51399954,3.30299958 7.605,3.387 L7.311,3.9365 Z M10.1603889,8 L8.9703889,8 L8.9703889,2.9005 L10.1603889,2.9005 L10.1603889,8 Z M16.1982778,2.9005 L16.1982778,8 L15.5822778,8 C15.4912773,8 15.4148614,7.98541681 15.3530278,7.95625 C15.2911942,7.92708319 15.2299448,7.87633369 15.1692778,7.804 L12.7647778,4.7625 C12.7741112,4.85350045 12.7805278,4.94158291 12.7840278,5.02675 C12.7875278,5.11191709 12.7892778,5.19183296 12.7892778,5.2665 L12.7892778,8 L11.7462778,8 L11.7462778,2.9005 L12.3692778,2.9005 C12.4206114,2.9005 12.4637776,2.90283331 12.4987778,2.9075 C12.533778,2.91216669 12.5652777,2.9209166 12.5932778,2.93375 C12.6212779,2.9465834 12.648111,2.96466655 12.6737778,2.988 C12.6994446,3.01133345 12.728611,3.04283313 12.7612778,3.0825 L15.1867778,6.145 C15.1751111,6.04699951 15.1669445,5.95191713 15.1622778,5.85975 C15.1576111,5.76758287 15.1552778,5.68066707 15.1552778,5.599 L15.1552778,2.9005 L16.1982778,2.9005 Z M20.2341667,5.3575 L22.0471667,5.3575 L22.0471667,7.51 C21.7858321,7.70133429 21.5075848,7.84016623 21.2124167,7.9265 C20.9172486,8.01283376 20.6086683,8.056 20.2866667,8.056 C19.8666646,8.056 19.4845851,7.99008399 19.1404167,7.85825 C18.7962483,7.72641601 18.5016679,7.54441783 18.2566667,7.31225 C18.0116655,7.08008217 17.8226674,6.80475159 17.6896667,6.48625 C17.556666,6.16774841 17.4901667,5.8218352 17.4901667,5.4485 C17.4901667,5.06816477 17.5531661,4.71875159 17.6791667,4.40025 C17.8051673,4.08174841 17.9854155,3.80700116 18.2199167,3.576 C18.4544179,3.34499885 18.737915,3.16533398 19.0704167,3.037 C19.4029184,2.90866602 19.774498,2.8445 20.1851667,2.8445 C20.3975011,2.8445 20.5969991,2.86199982 20.7836667,2.897 C20.9703343,2.93200017 21.1424159,2.97983303 21.2999167,3.0405 C21.4574175,3.10116697 21.6014994,3.17349958 21.7321667,3.2575 C21.862834,3.34150042 21.9794995,3.43249951 22.0821667,3.5305 L21.7391667,4.052 C21.6854998,4.13366707 21.6160838,4.18383324 21.5309167,4.2025 C21.4457496,4.22116676 21.3541672,4.20016697 21.2561667,4.1395 C21.1628329,4.08349972 21.0747504,4.03508354 20.9919167,3.99425 C20.909083,3.95341646 20.8245005,3.9201668 20.7381667,3.8945 C20.6518329,3.8688332 20.5608338,3.85016672 20.4651667,3.8385 C20.3694996,3.82683328 20.2621673,3.821 20.1431667,3.821 C19.9214989,3.821 19.7220009,3.86008294 19.5446667,3.93825 C19.3673325,4.01641706 19.2162507,4.12666595 19.0914167,4.269 C18.9665827,4.41133405 18.8703337,4.582249 18.8026667,4.78175 C18.7349997,4.981251 18.7011667,5.20349877 18.7011667,5.4485 C18.7011667,5.71916802 18.7384997,5.95949895 18.8131667,6.1695 C18.8878337,6.37950105 18.993416,6.55683261 19.1299167,6.7015 C19.2664174,6.84616739 19.4297491,6.95641629 19.6199167,7.03225 C19.8100843,7.10808371 20.0206655,7.146 20.2516667,7.146 C20.3940007,7.146 20.5229161,7.13200014 20.6384167,7.104 C20.7539173,7.07599986 20.8664995,7.0386669 20.9761667,6.992 L20.9761667,6.2185 L20.4721667,6.2185 C20.3974997,6.2185 20.3391669,6.19866686 20.2971667,6.159 C20.2551665,6.11933313 20.2341667,6.06916697 20.2341667,6.0085 L20.2341667,5.3575 Z M26.5135556,7.055 L26.5135556,8 L23.4405556,8 L23.4405556,2.9005 L24.6235556,2.9005 L24.6235556,7.055 L26.5135556,7.055 Z M28.9044445,3.8105 L28.9044445,5.0005 L30.5074445,5.0005 L30.5074445,5.8755 L28.9044445,5.8755 L28.9044445,7.09 L30.9974445,7.09 L30.9974445,8 L27.7144445,8 L27.7144445,2.9005 L30.9974445,2.9005 L30.9974445,3.8105 L28.9044445,3.8105 Z" id="SINGLE" fill="#252525" fill-rule="nonzero"></path>
        <path d="M10.311,11.9365 C10.2759998,11.9925003 10.2392502,12.0344999 10.20075,12.0625 C10.1622498,12.0905001 10.112667,12.1045 10.052,12.1045 C9.99833307,12.1045 9.94058364,12.0875835 9.87875,12.05375 C9.81691636,12.0199165 9.74691706,11.9820002 9.66875,11.94 C9.59058294,11.8979998 9.50133384,11.8600835 9.401,11.82625 C9.30066616,11.7924165 9.18633398,11.7755 9.058,11.7755 C8.83633222,11.7755 8.67125054,11.8227495 8.56275,11.91725 C8.45424946,12.0117505 8.4,12.1394992 8.4,12.3005 C8.4,12.4031672 8.43266634,12.488333 8.498,12.556 C8.56333366,12.623667 8.6490828,12.6819998 8.75525,12.731 C8.8614172,12.7800002 8.98274932,12.8249165 9.11925,12.86575 C9.25575068,12.9065835 9.39516595,12.9520831 9.5375,13.00225 C9.67983404,13.0524169 9.81924932,13.111333 9.95575,13.179 C10.0922507,13.246667 10.2135828,13.3329995 10.31975,13.438 C10.4259172,13.5430005 10.5116663,13.6707492 10.577,13.82125 C10.6423337,13.9717508 10.675,14.1531656 10.675,14.3655 C10.675,14.6011678 10.6341671,14.8216656 10.5525,15.027 C10.4708329,15.2323344 10.3524174,15.4114159 10.19725,15.56425 C10.0420826,15.7170841 9.85075114,15.8372496 9.62325,15.92475 C9.39574886,16.0122504 9.13733478,16.056 8.848,16.056 C8.68933254,16.056 8.52775082,16.0396668 8.36325,16.007 C8.19874918,15.9743332 8.03950077,15.9282503 7.8855,15.86875 C7.73149923,15.8092497 7.58683401,15.7386671 7.4515,15.657 C7.31616599,15.5753329 7.19833383,15.4843338 7.098,15.384 L7.448,14.831 C7.47600014,14.7913331 7.51274977,14.7580835 7.55825,14.73125 C7.60375023,14.7044165 7.65333306,14.691 7.707,14.691 C7.77700035,14.691 7.84758298,14.7131664 7.91875,14.7575 C7.98991702,14.8018336 8.07041622,14.8508331 8.16025,14.9045 C8.25008378,14.9581669 8.35333275,15.0071664 8.47,15.0515 C8.58666725,15.0958336 8.72433254,15.118 8.883,15.118 C9.09766774,15.118 9.26449941,15.0707505 9.3835,14.97625 C9.5025006,14.8817495 9.562,14.7318344 9.562,14.5265 C9.562,14.4074994 9.52933366,14.310667 9.464,14.236 C9.39866634,14.161333 9.3129172,14.0995002 9.20675,14.0505 C9.1005828,14.0014998 8.97983401,13.9583335 8.8445,13.921 C8.70916599,13.8836665 8.57033404,13.8422502 8.428,13.79675 C8.28566596,13.7512498 8.14683401,13.6952503 8.0115,13.62875 C7.87616599,13.5622497 7.7554172,13.4747505 7.64925,13.36625 C7.5430828,13.2577495 7.45733366,13.1224175 7.392,12.96025 C7.32666634,12.7980825 7.294,12.5980012 7.294,12.36 C7.294,12.1686657 7.33249961,11.9820009 7.4095,11.8 C7.48650039,11.6179991 7.59966592,11.455834 7.749,11.3135 C7.89833408,11.171166 8.08149892,11.0574171 8.2985,10.97225 C8.51550109,10.8870829 8.7639986,10.8445 9.044,10.8445 C9.20033412,10.8445 9.35258259,10.8567499 9.50075,10.88125 C9.64891741,10.9057501 9.78949934,10.9419164 9.9225,10.98975 C10.0555007,11.0375836 10.1797494,11.0947497 10.29525,11.16125 C10.4107506,11.2277503 10.5139995,11.3029996 10.605,11.387 L10.311,11.9365 Z M13.7693889,13.403 C14.0773904,13.403 14.2990549,13.3295007 14.4343889,13.1825 C14.5697229,13.0354993 14.6373889,12.830168 14.6373889,12.5665 C14.6373889,12.4498327 14.6198891,12.3436671 14.5848889,12.248 C14.5498887,12.1523329 14.4968059,12.0700837 14.4256389,12.00125 C14.3544719,11.9324163 14.2646394,11.8793335 14.1561389,11.842 C14.0476384,11.8046665 13.918723,11.786 13.7693889,11.786 L13.1533889,11.786 L13.1533889,13.403 L13.7693889,13.403 Z M13.7693889,10.9005 C14.128724,10.9005 14.4373043,10.9430829 14.6951389,11.02825 C14.9529735,11.1134171 15.1653047,11.2306659 15.3321389,11.38 C15.4989731,11.5293341 15.6220552,11.705499 15.7013889,11.9085 C15.7807226,12.111501 15.8203889,12.3308322 15.8203889,12.5665 C15.8203889,12.8208346 15.779556,13.0541656 15.6978889,13.2665 C15.6162218,13.4788344 15.4913897,13.6608326 15.3233889,13.8125 C15.1553881,13.9641674 14.9424735,14.0825829 14.6846389,14.16775 C14.4268043,14.2529171 14.121724,14.2955 13.7693889,14.2955 L13.1533889,14.2955 L13.1533889,16 L11.9703889,16 L11.9703889,10.9005 L13.7693889,10.9005 Z M20.0942778,15.055 L20.0942778,16 L17.0212778,16 L17.0212778,10.9005 L18.2042778,10.9005 L18.2042778,15.055 L20.0942778,15.055 Z M22.4851667,16 L21.2951667,16 L21.2951667,10.9005 L22.4851667,10.9005 L22.4851667,16 Z M27.7355556,11.8385 L26.3005556,11.8385 L26.3005556,16 L25.1175556,16 L25.1175556,11.8385 L23.6825556,11.8385 L23.6825556,10.9005 L27.7355556,10.9005 L27.7355556,11.8385 Z" id="SPLIT" fill="#252525" fill-rule="nonzero"></path>
        <path d="M12.1205,21.4485 C12.1205,21.8171685 12.0569173,22.1572484 11.92975,22.46875 C11.8025827,22.7802516 11.6235012,23.0497489 11.3925,23.27725 C11.1614988,23.5047511 10.8832516,23.6820827 10.55775,23.80925 C10.2322484,23.9364173 9.87116865,24 9.4745,24 L7.4935,24 L7.4935,18.9005 L9.4745,18.9005 C9.87116865,18.9005 10.2322484,18.964666 10.55775,19.093 C10.8832516,19.221334 11.1614988,19.3986655 11.3925,19.625 C11.6235012,19.8513345 11.8025827,20.1202484 11.92975,20.43175 C12.0569173,20.7432516 12.1205,21.0821648 12.1205,21.4485 Z M10.9095,21.4485 C10.9095,21.1964987 10.8768337,20.969001 10.8115,20.766 C10.7461663,20.562999 10.6522506,20.3909174 10.52975,20.24975 C10.4072494,20.1085826 10.2573342,20.0000837 10.08,19.92425 C9.90266578,19.8484163 9.70083446,19.8105 9.4745,19.8105 L8.6835,19.8105 L8.6835,23.09 L9.4745,23.09 C9.70083446,23.09 9.90266578,23.0520837 10.08,22.97625 C10.2573342,22.9004163 10.4072494,22.7919174 10.52975,22.65075 C10.6522506,22.5095826 10.7461663,22.337501 10.8115,22.1345 C10.8768337,21.931499 10.9095,21.7028346 10.9095,21.4485 Z M15.5473889,23.0655 C15.7060564,23.0655 15.8478049,23.0392503 15.9726389,22.98675 C16.0974729,22.9342497 16.2030551,22.8590005 16.2893889,22.761 C16.3757227,22.6629995 16.4416387,22.5434174 16.4871389,22.40225 C16.5326391,22.2610826 16.5553889,22.1006676 16.5553889,21.921 L16.5553889,18.9005 L17.7383889,18.9005 L17.7383889,21.921 C17.7383889,22.2336682 17.6876394,22.5206654 17.5861389,22.782 C17.4846384,23.0433346 17.3393898,23.2684991 17.1503889,23.4575 C16.961388,23.6465009 16.7315569,23.7934995 16.4608889,23.8985 C16.1902209,24.0035005 15.8857239,24.056 15.5473889,24.056 C15.2067205,24.056 14.9010569,24.0035005 14.6303889,23.8985 C14.3597209,23.7934995 14.1298898,23.6465009 13.9408889,23.4575 C13.751888,23.2684991 13.6072227,23.0433346 13.5068889,22.782 C13.4065551,22.5206654 13.3563889,22.2336682 13.3563889,21.921 L13.3563889,18.9005 L14.5393889,18.9005 L14.5393889,21.9175 C14.5393889,22.0971676 14.5621387,22.2575826 14.6076389,22.39875 C14.6531391,22.5399174 14.7190551,22.6600828 14.8053889,22.75925 C14.8917227,22.8584172 14.9973049,22.9342497 15.1221389,22.98675 C15.2469729,23.0392503 15.3887214,23.0655 15.5473889,23.0655 Z M21.8232778,22.0505 L21.3507778,20.654 C21.3157776,20.5653329 21.2784447,20.4609173 21.2387778,20.34075 C21.1991109,20.2205827 21.1594447,20.0905007 21.1197778,19.9505 C21.0847776,20.092834 21.0474447,20.2246661 21.0077778,20.346 C20.9681109,20.4673339 20.930778,20.5723329 20.8957778,20.661 L20.4267778,22.0505 L21.8232778,22.0505 Z M23.7027778,24 L22.7857778,24 C22.6831106,24 22.6002781,23.9760836 22.5372778,23.92825 C22.4742775,23.8804164 22.4264446,23.819167 22.3937778,23.7445 L22.0927778,22.8555 L20.1537778,22.8555 L19.8527778,23.7445 C19.827111,23.8098337 19.7810281,23.8687497 19.7145278,23.92125 C19.6480275,23.9737503 19.5657783,24 19.4677778,24 L18.5437778,24 L20.5177778,18.9005 L21.7287778,18.9005 L23.7027778,24 Z M27.7771667,23.055 L27.7771667,24 L24.7041667,24 L24.7041667,18.9005 L25.8871667,18.9005 L25.8871667,23.055 L27.7771667,23.055 Z" id="DUAL" fill="#252525" fill-rule="nonzero"></path>
        <path d="M7.311,30.9365 C7.27599982,30.9925003 7.23925019,31.0344999 7.20075,31.0625 C7.16224981,31.0905001 7.11266697,31.1045 7.052,31.1045 C6.99833307,31.1045 6.94058364,31.0875835 6.87875,31.05375 C6.81691636,31.0199165 6.74691706,30.9820002 6.66875,30.94 C6.59058294,30.8979998 6.50133384,30.8600835 6.401,30.82625 C6.30066616,30.7924165 6.18633398,30.7755 6.058,30.7755 C5.83633222,30.7755 5.67125054,30.8227495 5.56275,30.91725 C5.45424946,31.0117505 5.4,31.1394992 5.4,31.3005 C5.4,31.4031672 5.43266634,31.488333 5.498,31.556 C5.56333366,31.623667 5.6490828,31.6819998 5.75525,31.731 C5.8614172,31.7800002 5.98274932,31.8249165 6.11925,31.86575 C6.25575068,31.9065835 6.39516595,31.9520831 6.5375,32.00225 C6.67983404,32.0524169 6.81924932,32.111333 6.95575,32.179 C7.09225068,32.246667 7.2135828,32.3329995 7.31975,32.438 C7.4259172,32.5430005 7.51166634,32.6707492 7.577,32.82125 C7.64233366,32.9717508 7.675,33.1531656 7.675,33.3655 C7.675,33.6011678 7.63416708,33.8216656 7.5525,34.027 C7.47083292,34.2323344 7.35241744,34.4114159 7.19725,34.56425 C7.04208256,34.7170841 6.85075114,34.8372496 6.62325,34.92475 C6.39574886,35.0122504 6.13733478,35.056 5.848,35.056 C5.68933254,35.056 5.52775082,35.0396668 5.36325,35.007 C5.19874918,34.9743332 5.03950077,34.9282503 4.8855,34.86875 C4.73149923,34.8092497 4.58683401,34.7386671 4.4515,34.657 C4.31616599,34.5753329 4.19833383,34.4843338 4.098,34.384 L4.448,33.831 C4.47600014,33.7913331 4.51274977,33.7580835 4.55825,33.73125 C4.60375023,33.7044165 4.65333306,33.691 4.707,33.691 C4.77700035,33.691 4.84758298,33.7131664 4.91875,33.7575 C4.98991702,33.8018336 5.07041622,33.8508331 5.16025,33.9045 C5.25008378,33.9581669 5.35333275,34.0071664 5.47,34.0515 C5.58666725,34.0958336 5.72433254,34.118 5.883,34.118 C6.09766774,34.118 6.26449941,34.0707505 6.3835,33.97625 C6.50250059,33.8817495 6.562,33.7318344 6.562,33.5265 C6.562,33.4074994 6.52933366,33.310667 6.464,33.236 C6.39866634,33.161333 6.3129172,33.0995002 6.20675,33.0505 C6.1005828,33.0014998 5.97983401,32.9583335 5.8445,32.921 C5.70916599,32.8836665 5.57033405,32.8422502 5.428,32.79675 C5.28566595,32.7512498 5.14683401,32.6952503 5.0115,32.62875 C4.87616599,32.5622497 4.7554172,32.4747505 4.64925,32.36625 C4.5430828,32.2577495 4.45733366,32.1224175 4.392,31.96025 C4.32666634,31.7980825 4.294,31.5980012 4.294,31.36 C4.294,31.1686657 4.33249961,30.9820009 4.4095,30.8 C4.48650039,30.6179991 4.59966592,30.455834 4.749,30.3135 C4.89833408,30.171166 5.08149892,30.0574171 5.2985,29.97225 C5.51550109,29.8870829 5.7639986,29.8445 6.044,29.8445 C6.20033412,29.8445 6.35258259,29.8567499 6.50075,29.88125 C6.64891741,29.9057501 6.78949934,29.9419164 6.9225,29.98975 C7.05550067,30.0375836 7.17974942,30.0947497 7.29525,30.16125 C7.41075058,30.2277503 7.51399954,30.3029996 7.605,30.387 L7.311,30.9365 Z M10.1603889,35 L8.9703889,35 L8.9703889,29.9005 L10.1603889,29.9005 L10.1603889,35 Z M16.1982778,29.9005 L16.1982778,35 L15.5822778,35 C15.4912773,35 15.4148614,34.9854168 15.3530278,34.95625 C15.2911942,34.9270832 15.2299448,34.8763337 15.1692778,34.804 L12.7647778,31.7625 C12.7741112,31.8535005 12.7805278,31.9415829 12.7840278,32.02675 C12.7875278,32.1119171 12.7892778,32.191833 12.7892778,32.2665 L12.7892778,35 L11.7462778,35 L11.7462778,29.9005 L12.3692778,29.9005 C12.4206114,29.9005 12.4637776,29.9028333 12.4987778,29.9075 C12.533778,29.9121667 12.5652777,29.9209166 12.5932778,29.93375 C12.6212779,29.9465834 12.648111,29.9646666 12.6737778,29.988 C12.6994446,30.0113335 12.728611,30.0428331 12.7612778,30.0825 L15.1867778,33.145 C15.1751111,33.0469995 15.1669445,32.9519171 15.1622778,32.85975 C15.1576111,32.7675829 15.1552778,32.6806671 15.1552778,32.599 L15.1552778,29.9005 L16.1982778,29.9005 Z M20.2341667,32.3575 L22.0471667,32.3575 L22.0471667,34.51 C21.7858321,34.7013343 21.5075848,34.8401662 21.2124167,34.9265 C20.9172486,35.0128338 20.6086683,35.056 20.2866667,35.056 C19.8666646,35.056 19.4845851,34.990084 19.1404167,34.85825 C18.7962483,34.726416 18.5016679,34.5444178 18.2566667,34.31225 C18.0116655,34.0800822 17.8226674,33.8047516 17.6896667,33.48625 C17.556666,33.1677484 17.4901667,32.8218352 17.4901667,32.4485 C17.4901667,32.0681648 17.5531661,31.7187516 17.6791667,31.40025 C17.8051673,31.0817484 17.9854155,30.8070012 18.2199167,30.576 C18.4544179,30.3449988 18.737915,30.165334 19.0704167,30.037 C19.4029184,29.908666 19.774498,29.8445 20.1851667,29.8445 C20.3975011,29.8445 20.5969991,29.8619998 20.7836667,29.897 C20.9703343,29.9320002 21.1424159,29.979833 21.2999167,30.0405 C21.4574175,30.101167 21.6014994,30.1734996 21.7321667,30.2575 C21.862834,30.3415004 21.9794995,30.4324995 22.0821667,30.5305 L21.7391667,31.052 C21.6854998,31.1336671 21.6160838,31.1838332 21.5309167,31.2025 C21.4457496,31.2211668 21.3541672,31.200167 21.2561667,31.1395 C21.1628329,31.0834997 21.0747504,31.0350835 20.9919167,30.99425 C20.909083,30.9534165 20.8245005,30.9201668 20.7381667,30.8945 C20.6518329,30.8688332 20.5608338,30.8501667 20.4651667,30.8385 C20.3694996,30.8268333 20.2621673,30.821 20.1431667,30.821 C19.9214989,30.821 19.7220009,30.8600829 19.5446667,30.93825 C19.3673325,31.0164171 19.2162507,31.126666 19.0914167,31.269 C18.9665827,31.411334 18.8703337,31.582249 18.8026667,31.78175 C18.7349997,31.981251 18.7011667,32.2034988 18.7011667,32.4485 C18.7011667,32.719168 18.7384997,32.9594989 18.8131667,33.1695 C18.8878337,33.3795011 18.993416,33.5568326 19.1299167,33.7015 C19.2664174,33.8461674 19.4297491,33.9564163 19.6199167,34.03225 C19.8100843,34.1080837 20.0206655,34.146 20.2516667,34.146 C20.3940007,34.146 20.5229161,34.1320001 20.6384167,34.104 C20.7539173,34.0759999 20.8664995,34.0386669 20.9761667,33.992 L20.9761667,33.2185 L20.4721667,33.2185 C20.3974997,33.2185 20.3391669,33.1986669 20.2971667,33.159 C20.2551665,33.1193331 20.2341667,33.069167 20.2341667,33.0085 L20.2341667,32.3575 Z M26.5135556,34.055 L26.5135556,35 L23.4405556,35 L23.4405556,29.9005 L24.6235556,29.9005 L24.6235556,34.055 L26.5135556,34.055 Z M28.9044445,30.8105 L28.9044445,32.0005 L30.5074445,32.0005 L30.5074445,32.8755 L28.9044445,32.8755 L28.9044445,34.09 L30.9974445,34.09 L30.9974445,35 L27.7144445,35 L27.7144445,29.9005 L30.9974445,29.9005 L30.9974445,30.8105 L28.9044445,30.8105 Z" id="SINGLE" fill="#252525" fill-rule="nonzero"></path>
        <path d="M10.311,38.9365 C10.2759998,38.9925003 10.2392502,39.0344999 10.20075,39.0625 C10.1622498,39.0905001 10.112667,39.1045 10.052,39.1045 C9.99833307,39.1045 9.94058364,39.0875835 9.87875,39.05375 C9.81691636,39.0199165 9.74691706,38.9820002 9.66875,38.94 C9.59058294,38.8979998 9.50133384,38.8600835 9.401,38.82625 C9.30066616,38.7924165 9.18633398,38.7755 9.058,38.7755 C8.83633222,38.7755 8.67125054,38.8227495 8.56275,38.91725 C8.45424946,39.0117505 8.4,39.1394992 8.4,39.3005 C8.4,39.4031672 8.43266634,39.488333 8.498,39.556 C8.56333366,39.623667 8.6490828,39.6819998 8.75525,39.731 C8.8614172,39.7800002 8.98274932,39.8249165 9.11925,39.86575 C9.25575068,39.9065835 9.39516595,39.9520831 9.5375,40.00225 C9.67983404,40.0524169 9.81924932,40.111333 9.95575,40.179 C10.0922507,40.246667 10.2135828,40.3329995 10.31975,40.438 C10.4259172,40.5430005 10.5116663,40.6707492 10.577,40.82125 C10.6423337,40.9717508 10.675,41.1531656 10.675,41.3655 C10.675,41.6011678 10.6341671,41.8216656 10.5525,42.027 C10.4708329,42.2323344 10.3524174,42.4114159 10.19725,42.56425 C10.0420826,42.7170841 9.85075114,42.8372496 9.62325,42.92475 C9.39574886,43.0122504 9.13733478,43.056 8.848,43.056 C8.68933254,43.056 8.52775082,43.0396668 8.36325,43.007 C8.19874918,42.9743332 8.03950077,42.9282503 7.8855,42.86875 C7.73149923,42.8092497 7.58683401,42.7386671 7.4515,42.657 C7.31616599,42.5753329 7.19833383,42.4843338 7.098,42.384 L7.448,41.831 C7.47600014,41.7913331 7.51274977,41.7580835 7.55825,41.73125 C7.60375023,41.7044165 7.65333306,41.691 7.707,41.691 C7.77700035,41.691 7.84758298,41.7131664 7.91875,41.7575 C7.98991702,41.8018336 8.07041622,41.8508331 8.16025,41.9045 C8.25008378,41.9581669 8.35333275,42.0071664 8.47,42.0515 C8.58666725,42.0958336 8.72433254,42.118 8.883,42.118 C9.09766774,42.118 9.26449941,42.0707505 9.3835,41.97625 C9.5025006,41.8817495 9.562,41.7318344 9.562,41.5265 C9.562,41.4074994 9.52933366,41.310667 9.464,41.236 C9.39866634,41.161333 9.3129172,41.0995002 9.20675,41.0505 C9.1005828,41.0014998 8.97983401,40.9583335 8.8445,40.921 C8.70916599,40.8836665 8.57033404,40.8422502 8.428,40.79675 C8.28566596,40.7512498 8.14683401,40.6952503 8.0115,40.62875 C7.87616599,40.5622497 7.7554172,40.4747505 7.64925,40.36625 C7.5430828,40.2577495 7.45733366,40.1224175 7.392,39.96025 C7.32666634,39.7980825 7.294,39.5980012 7.294,39.36 C7.294,39.1686657 7.33249961,38.9820009 7.4095,38.8 C7.48650039,38.6179991 7.59966592,38.455834 7.749,38.3135 C7.89833408,38.171166 8.08149892,38.0574171 8.2985,37.97225 C8.51550109,37.8870829 8.7639986,37.8445 9.044,37.8445 C9.20033412,37.8445 9.35258259,37.8567499 9.50075,37.88125 C9.64891741,37.9057501 9.78949934,37.9419164 9.9225,37.98975 C10.0555007,38.0375836 10.1797494,38.0947497 10.29525,38.16125 C10.4107506,38.2277503 10.5139995,38.3029996 10.605,38.387 L10.311,38.9365 Z M13.7693889,40.403 C14.0773904,40.403 14.2990549,40.3295007 14.4343889,40.1825 C14.5697229,40.0354993 14.6373889,39.830168 14.6373889,39.5665 C14.6373889,39.4498327 14.6198891,39.3436671 14.5848889,39.248 C14.5498887,39.1523329 14.4968059,39.0700837 14.4256389,39.00125 C14.3544719,38.9324163 14.2646394,38.8793335 14.1561389,38.842 C14.0476384,38.8046665 13.918723,38.786 13.7693889,38.786 L13.1533889,38.786 L13.1533889,40.403 L13.7693889,40.403 Z M13.7693889,37.9005 C14.128724,37.9005 14.4373043,37.9430829 14.6951389,38.02825 C14.9529735,38.1134171 15.1653047,38.2306659 15.3321389,38.38 C15.4989731,38.5293341 15.6220552,38.705499 15.7013889,38.9085 C15.7807226,39.111501 15.8203889,39.3308322 15.8203889,39.5665 C15.8203889,39.8208346 15.779556,40.0541656 15.6978889,40.2665 C15.6162218,40.4788344 15.4913897,40.6608326 15.3233889,40.8125 C15.1553881,40.9641674 14.9424735,41.0825829 14.6846389,41.16775 C14.4268043,41.2529171 14.121724,41.2955 13.7693889,41.2955 L13.1533889,41.2955 L13.1533889,43 L11.9703889,43 L11.9703889,37.9005 L13.7693889,37.9005 Z M20.0942778,42.055 L20.0942778,43 L17.0212778,43 L17.0212778,37.9005 L18.2042778,37.9005 L18.2042778,42.055 L20.0942778,42.055 Z M22.4851667,43 L21.2951667,43 L21.2951667,37.9005 L22.4851667,37.9005 L22.4851667,43 Z M27.7355556,38.8385 L26.3005556,38.8385 L26.3005556,43 L25.1175556,43 L25.1175556,38.8385 L23.6825556,38.8385 L23.6825556,37.9005 L27.7355556,37.9005 L27.7355556,38.8385 Z" id="SPLIT" fill="#252525" fill-rule="nonzero"></path>
        <path d="M12.1205,48.4485 C12.1205,48.8171685 12.0569173,49.1572484 11.92975,49.46875 C11.8025827,49.7802516 11.6235012,50.0497489 11.3925,50.27725 C11.1614988,50.5047511 10.8832516,50.6820827 10.55775,50.80925 C10.2322484,50.9364173 9.87116865,51 9.4745,51 L7.4935,51 L7.4935,45.9005 L9.4745,45.9005 C9.87116865,45.9005 10.2322484,45.964666 10.55775,46.093 C10.8832516,46.221334 11.1614988,46.3986655 11.3925,46.625 C11.6235012,46.8513345 11.8025827,47.1202484 11.92975,47.43175 C12.0569173,47.7432516 12.1205,48.0821648 12.1205,48.4485 Z M10.9095,48.4485 C10.9095,48.1964987 10.8768337,47.969001 10.8115,47.766 C10.7461663,47.562999 10.6522506,47.3909174 10.52975,47.24975 C10.4072494,47.1085826 10.2573342,47.0000837 10.08,46.92425 C9.90266578,46.8484163 9.70083446,46.8105 9.4745,46.8105 L8.6835,46.8105 L8.6835,50.09 L9.4745,50.09 C9.70083446,50.09 9.90266578,50.0520837 10.08,49.97625 C10.2573342,49.9004163 10.4072494,49.7919174 10.52975,49.65075 C10.6522506,49.5095826 10.7461663,49.337501 10.8115,49.1345 C10.8768337,48.931499 10.9095,48.7028346 10.9095,48.4485 Z M15.5473889,50.0655 C15.7060564,50.0655 15.8478049,50.0392503 15.9726389,49.98675 C16.0974729,49.9342497 16.2030551,49.8590005 16.2893889,49.761 C16.3757227,49.6629995 16.4416387,49.5434174 16.4871389,49.40225 C16.5326391,49.2610826 16.5553889,49.1006676 16.5553889,48.921 L16.5553889,45.9005 L17.7383889,45.9005 L17.7383889,48.921 C17.7383889,49.2336682 17.6876394,49.5206654 17.5861389,49.782 C17.4846384,50.0433346 17.3393898,50.2684991 17.1503889,50.4575 C16.961388,50.6465009 16.7315569,50.7934995 16.4608889,50.8985 C16.1902209,51.0035005 15.8857239,51.056 15.5473889,51.056 C15.2067205,51.056 14.9010569,51.0035005 14.6303889,50.8985 C14.3597209,50.7934995 14.1298898,50.6465009 13.9408889,50.4575 C13.751888,50.2684991 13.6072227,50.0433346 13.5068889,49.782 C13.4065551,49.5206654 13.3563889,49.2336682 13.3563889,48.921 L13.3563889,45.9005 L14.5393889,45.9005 L14.5393889,48.9175 C14.5393889,49.0971676 14.5621387,49.2575826 14.6076389,49.39875 C14.6531391,49.5399174 14.7190551,49.6600828 14.8053889,49.75925 C14.8917227,49.8584172 14.9973049,49.9342497 15.1221389,49.98675 C15.2469729,50.0392503 15.3887214,50.0655 15.5473889,50.0655 Z M21.8232778,49.0505 L21.3507778,47.654 C21.3157776,47.5653329 21.2784447,47.4609173 21.2387778,47.34075 C21.1991109,47.2205827 21.1594447,47.0905007 21.1197778,46.9505 C21.0847776,47.092834 21.0474447,47.2246661 21.0077778,47.346 C20.9681109,47.4673339 20.930778,47.5723329 20.8957778,47.661 L20.4267778,49.0505 L21.8232778,49.0505 Z M23.7027778,51 L22.7857778,51 C22.6831106,51 22.6002781,50.9760836 22.5372778,50.92825 C22.4742775,50.8804164 22.4264446,50.819167 22.3937778,50.7445 L22.0927778,49.8555 L20.1537778,49.8555 L19.8527778,50.7445 C19.827111,50.8098337 19.7810281,50.8687497 19.7145278,50.92125 C19.6480275,50.9737503 19.5657783,51 19.4677778,51 L18.5437778,51 L20.5177778,45.9005 L21.7287778,45.9005 L23.7027778,51 Z M27.7771667,50.055 L27.7771667,51 L24.7041667,51 L24.7041667,45.9005 L25.8871667,45.9005 L25.8871667,50.055 L27.7771667,50.055 Z" id="DUAL" fill="#252525" fill-rule="nonzero"></path>
        <path d="M7.311,57.9365 C7.27599982,57.9925003 7.23925019,58.0344999 7.20075,58.0625 C7.16224981,58.0905001 7.11266697,58.1045 7.052,58.1045 C6.99833307,58.1045 6.94058364,58.0875835 6.87875,58.05375 C6.81691636,58.0199165 6.74691706,57.9820002 6.66875,57.94 C6.59058294,57.8979998 6.50133384,57.8600835 6.401,57.82625 C6.30066616,57.7924165 6.18633398,57.7755 6.058,57.7755 C5.83633222,57.7755 5.67125054,57.8227495 5.56275,57.91725 C5.45424946,58.0117505 5.4,58.1394992 5.4,58.3005 C5.4,58.4031672 5.43266634,58.488333 5.498,58.556 C5.56333366,58.623667 5.6490828,58.6819998 5.75525,58.731 C5.8614172,58.7800002 5.98274932,58.8249165 6.11925,58.86575 C6.25575068,58.9065835 6.39516595,58.9520831 6.5375,59.00225 C6.67983404,59.0524169 6.81924932,59.111333 6.95575,59.179 C7.09225068,59.246667 7.2135828,59.3329995 7.31975,59.438 C7.4259172,59.5430005 7.51166634,59.6707492 7.577,59.82125 C7.64233366,59.9717508 7.675,60.1531656 7.675,60.3655 C7.675,60.6011678 7.63416708,60.8216656 7.5525,61.027 C7.47083292,61.2323344 7.35241744,61.4114159 7.19725,61.56425 C7.04208256,61.7170841 6.85075114,61.8372496 6.62325,61.92475 C6.39574886,62.0122504 6.13733478,62.056 5.848,62.056 C5.68933254,62.056 5.52775082,62.0396668 5.36325,62.007 C5.19874918,61.9743332 5.03950077,61.9282503 4.8855,61.86875 C4.73149923,61.8092497 4.58683401,61.7386671 4.4515,61.657 C4.31616599,61.5753329 4.19833383,61.4843338 4.098,61.384 L4.448,60.831 C4.47600014,60.7913331 4.51274977,60.7580835 4.55825,60.73125 C4.60375023,60.7044165 4.65333306,60.691 4.707,60.691 C4.77700035,60.691 4.84758298,60.7131664 4.91875,60.7575 C4.98991702,60.8018336 5.07041622,60.8508331 5.16025,60.9045 C5.25008378,60.9581669 5.35333275,61.0071664 5.47,61.0515 C5.58666725,61.0958336 5.72433254,61.118 5.883,61.118 C6.09766774,61.118 6.26449941,61.0707505 6.3835,60.97625 C6.50250059,60.8817495 6.562,60.7318344 6.562,60.5265 C6.562,60.4074994 6.52933366,60.310667 6.464,60.236 C6.39866634,60.161333 6.3129172,60.0995002 6.20675,60.0505 C6.1005828,60.0014998 5.97983401,59.9583335 5.8445,59.921 C5.70916599,59.8836665 5.57033405,59.8422502 5.428,59.79675 C5.28566595,59.7512498 5.14683401,59.6952503 5.0115,59.62875 C4.87616599,59.5622497 4.7554172,59.4747505 4.64925,59.36625 C4.5430828,59.2577495 4.45733366,59.1224175 4.392,58.96025 C4.32666634,58.7980825 4.294,58.5980012 4.294,58.36 C4.294,58.1686657 4.33249961,57.9820009 4.4095,57.8 C4.48650039,57.6179991 4.59966592,57.455834 4.749,57.3135 C4.89833408,57.171166 5.08149892,57.0574171 5.2985,56.97225 C5.51550109,56.8870829 5.7639986,56.8445 6.044,56.8445 C6.20033412,56.8445 6.35258259,56.8567499 6.50075,56.88125 C6.64891741,56.9057501 6.78949934,56.9419164 6.9225,56.98975 C7.05550067,57.0375836 7.17974942,57.0947497 7.29525,57.16125 C7.41075058,57.2277503 7.51399954,57.3029996 7.605,57.387 L7.311,57.9365 Z M10.1603889,62 L8.9703889,62 L8.9703889,56.9005 L10.1603889,56.9005 L10.1603889,62 Z M16.1982778,56.9005 L16.1982778,62 L15.5822778,62 C15.4912773,62 15.4148614,61.9854168 15.3530278,61.95625 C15.2911942,61.9270832 15.2299448,61.8763337 15.1692778,61.804 L12.7647778,58.7625 C12.7741112,58.8535005 12.7805278,58.9415829 12.7840278,59.02675 C12.7875278,59.1119171 12.7892778,59.191833 12.7892778,59.2665 L12.7892778,62 L11.7462778,62 L11.7462778,56.9005 L12.3692778,56.9005 C12.4206114,56.9005 12.4637776,56.9028333 12.4987778,56.9075 C12.533778,56.9121667 12.5652777,56.9209166 12.5932778,56.93375 C12.6212779,56.9465834 12.648111,56.9646666 12.6737778,56.988 C12.6994446,57.0113335 12.728611,57.0428331 12.7612778,57.0825 L15.1867778,60.145 C15.1751111,60.0469995 15.1669445,59.9519171 15.1622778,59.85975 C15.1576111,59.7675829 15.1552778,59.6806671 15.1552778,59.599 L15.1552778,56.9005 L16.1982778,56.9005 Z M20.2341667,59.3575 L22.0471667,59.3575 L22.0471667,61.51 C21.7858321,61.7013343 21.5075848,61.8401662 21.2124167,61.9265 C20.9172486,62.0128338 20.6086683,62.056 20.2866667,62.056 C19.8666646,62.056 19.4845851,61.990084 19.1404167,61.85825 C18.7962483,61.726416 18.5016679,61.5444178 18.2566667,61.31225 C18.0116655,61.0800822 17.8226674,60.8047516 17.6896667,60.48625 C17.556666,60.1677484 17.4901667,59.8218352 17.4901667,59.4485 C17.4901667,59.0681648 17.5531661,58.7187516 17.6791667,58.40025 C17.8051673,58.0817484 17.9854155,57.8070012 18.2199167,57.576 C18.4544179,57.3449988 18.737915,57.165334 19.0704167,57.037 C19.4029184,56.908666 19.774498,56.8445 20.1851667,56.8445 C20.3975011,56.8445 20.5969991,56.8619998 20.7836667,56.897 C20.9703343,56.9320002 21.1424159,56.979833 21.2999167,57.0405 C21.4574175,57.101167 21.6014994,57.1734996 21.7321667,57.2575 C21.862834,57.3415004 21.9794995,57.4324995 22.0821667,57.5305 L21.7391667,58.052 C21.6854998,58.1336671 21.6160838,58.1838332 21.5309167,58.2025 C21.4457496,58.2211668 21.3541672,58.200167 21.2561667,58.1395 C21.1628329,58.0834997 21.0747504,58.0350835 20.9919167,57.99425 C20.909083,57.9534165 20.8245005,57.9201668 20.7381667,57.8945 C20.6518329,57.8688332 20.5608338,57.8501667 20.4651667,57.8385 C20.3694996,57.8268333 20.2621673,57.821 20.1431667,57.821 C19.9214989,57.821 19.7220009,57.8600829 19.5446667,57.93825 C19.3673325,58.0164171 19.2162507,58.126666 19.0914167,58.269 C18.9665827,58.411334 18.8703337,58.582249 18.8026667,58.78175 C18.7349997,58.981251 18.7011667,59.2034988 18.7011667,59.4485 C18.7011667,59.719168 18.7384997,59.9594989 18.8131667,60.1695 C18.8878337,60.3795011 18.993416,60.5568326 19.1299167,60.7015 C19.2664174,60.8461674 19.4297491,60.9564163 19.6199167,61.03225 C19.8100843,61.1080837 20.0206655,61.146 20.2516667,61.146 C20.3940007,61.146 20.5229161,61.1320001 20.6384167,61.104 C20.7539173,61.0759999 20.8664995,61.0386669 20.9761667,60.992 L20.9761667,60.2185 L20.4721667,60.2185 C20.3974997,60.2185 20.3391669,60.1986669 20.2971667,60.159 C20.2551665,60.1193331 20.2341667,60.069167 20.2341667,60.0085 L20.2341667,59.3575 Z M26.5135556,61.055 L26.5135556,62 L23.4405556,62 L23.4405556,56.9005 L24.6235556,56.9005 L24.6235556,61.055 L26.5135556,61.055 Z M28.9044445,57.8105 L28.9044445,59.0005 L30.5074445,59.0005 L30.5074445,59.8755 L28.9044445,59.8755 L28.9044445,61.09 L30.9974445,61.09 L30.9974445,62 L27.7144445,62 L27.7144445,56.9005 L30.9974445,56.9005 L30.9974445,57.8105 L28.9044445,57.8105 Z" id="SINGLE" fill="#252525" fill-rule="nonzero"></path>
        <path d="M10.311,65.9365 C10.2759998,65.9925003 10.2392502,66.0344999 10.20075,66.0625 C10.1622498,66.0905001 10.112667,66.1045 10.052,66.1045 C9.99833307,66.1045 9.94058364,66.0875835 9.87875,66.05375 C9.81691636,66.0199165 9.74691706,65.9820002 9.66875,65.94 C9.59058294,65.8979998 9.50133384,65.8600835 9.401,65.82625 C9.30066616,65.7924165 9.18633398,65.7755 9.058,65.7755 C8.83633222,65.7755 8.67125054,65.8227495 8.56275,65.91725 C8.45424946,66.0117505 8.4,66.1394992 8.4,66.3005 C8.4,66.4031672 8.43266634,66.488333 8.498,66.556 C8.56333366,66.623667 8.6490828,66.6819998 8.75525,66.731 C8.8614172,66.7800002 8.98274932,66.8249165 9.11925,66.86575 C9.25575068,66.9065835 9.39516595,66.9520831 9.5375,67.00225 C9.67983404,67.0524169 9.81924932,67.111333 9.95575,67.179 C10.0922507,67.246667 10.2135828,67.3329995 10.31975,67.438 C10.4259172,67.5430005 10.5116663,67.6707492 10.577,67.82125 C10.6423337,67.9717508 10.675,68.1531656 10.675,68.3655 C10.675,68.6011678 10.6341671,68.8216656 10.5525,69.027 C10.4708329,69.2323344 10.3524174,69.4114159 10.19725,69.56425 C10.0420826,69.7170841 9.85075114,69.8372496 9.62325,69.92475 C9.39574886,70.0122504 9.13733478,70.056 8.848,70.056 C8.68933254,70.056 8.52775082,70.0396668 8.36325,70.007 C8.19874918,69.9743332 8.03950077,69.9282503 7.8855,69.86875 C7.73149923,69.8092497 7.58683401,69.7386671 7.4515,69.657 C7.31616599,69.5753329 7.19833383,69.4843338 7.098,69.384 L7.448,68.831 C7.47600014,68.7913331 7.51274977,68.7580835 7.55825,68.73125 C7.60375023,68.7044165 7.65333306,68.691 7.707,68.691 C7.77700035,68.691 7.84758298,68.7131664 7.91875,68.7575 C7.98991702,68.8018336 8.07041622,68.8508331 8.16025,68.9045 C8.25008378,68.9581669 8.35333275,69.0071664 8.47,69.0515 C8.58666725,69.0958336 8.72433254,69.118 8.883,69.118 C9.09766774,69.118 9.26449941,69.0707505 9.3835,68.97625 C9.5025006,68.8817495 9.562,68.7318344 9.562,68.5265 C9.562,68.4074994 9.52933366,68.310667 9.464,68.236 C9.39866634,68.161333 9.3129172,68.0995002 9.20675,68.0505 C9.1005828,68.0014998 8.97983401,67.9583335 8.8445,67.921 C8.70916599,67.8836665 8.57033404,67.8422502 8.428,67.79675 C8.28566596,67.7512498 8.14683401,67.6952503 8.0115,67.62875 C7.87616599,67.5622497 7.7554172,67.4747505 7.64925,67.36625 C7.5430828,67.2577495 7.45733366,67.1224175 7.392,66.96025 C7.32666634,66.7980825 7.294,66.5980012 7.294,66.36 C7.294,66.1686657 7.33249961,65.9820009 7.4095,65.8 C7.48650039,65.6179991 7.59966592,65.455834 7.749,65.3135 C7.89833408,65.171166 8.08149892,65.0574171 8.2985,64.97225 C8.51550109,64.8870829 8.7639986,64.8445 9.044,64.8445 C9.20033412,64.8445 9.35258259,64.8567499 9.50075,64.88125 C9.64891741,64.9057501 9.78949934,64.9419164 9.9225,64.98975 C10.0555007,65.0375836 10.1797494,65.0947497 10.29525,65.16125 C10.4107506,65.2277503 10.5139995,65.3029996 10.605,65.387 L10.311,65.9365 Z M13.7693889,67.403 C14.0773904,67.403 14.2990549,67.3295007 14.4343889,67.1825 C14.5697229,67.0354993 14.6373889,66.830168 14.6373889,66.5665 C14.6373889,66.4498327 14.6198891,66.3436671 14.5848889,66.248 C14.5498887,66.1523329 14.4968059,66.0700837 14.4256389,66.00125 C14.3544719,65.9324163 14.2646394,65.8793335 14.1561389,65.842 C14.0476384,65.8046665 13.918723,65.786 13.7693889,65.786 L13.1533889,65.786 L13.1533889,67.403 L13.7693889,67.403 Z M13.7693889,64.9005 C14.128724,64.9005 14.4373043,64.9430829 14.6951389,65.02825 C14.9529735,65.1134171 15.1653047,65.2306659 15.3321389,65.38 C15.4989731,65.5293341 15.6220552,65.705499 15.7013889,65.9085 C15.7807226,66.111501 15.8203889,66.3308322 15.8203889,66.5665 C15.8203889,66.8208346 15.779556,67.0541656 15.6978889,67.2665 C15.6162218,67.4788344 15.4913897,67.6608326 15.3233889,67.8125 C15.1553881,67.9641674 14.9424735,68.0825829 14.6846389,68.16775 C14.4268043,68.2529171 14.121724,68.2955 13.7693889,68.2955 L13.1533889,68.2955 L13.1533889,70 L11.9703889,70 L11.9703889,64.9005 L13.7693889,64.9005 Z M20.0942778,69.055 L20.0942778,70 L17.0212778,70 L17.0212778,64.9005 L18.2042778,64.9005 L18.2042778,69.055 L20.0942778,69.055 Z M22.4851667,70 L21.2951667,70 L21.2951667,64.9005 L22.4851667,64.9005 L22.4851667,70 Z M27.7355556,65.8385 L26.3005556,65.8385 L26.3005556,70 L25.1175556,70 L25.1175556,65.8385 L23.6825556,65.8385 L23.6825556,64.9005 L27.7355556,64.9005 L27.7355556,65.8385 Z" id="SPLIT" fill="#252525" fill-rule="nonzero"></path>
        <path d="M12.1205,75.4485 C12.1205,75.8171685 12.0569173,76.1572484 11.92975,76.46875 C11.8025827,76.7802516 11.6235012,77.0497489 11.3925,77.27725 C11.1614988,77.5047511 10.8832516,77.6820827 10.55775,77.80925 C10.2322484,77.9364173 9.87116865,78 9.4745,78 L7.4935,78 L7.4935,72.9005 L9.4745,72.9005 C9.87116865,72.9005 10.2322484,72.964666 10.55775,73.093 C10.8832516,73.221334 11.1614988,73.3986655 11.3925,73.625 C11.6235012,73.8513345 11.8025827,74.1202484 11.92975,74.43175 C12.0569173,74.7432516 12.1205,75.0821648 12.1205,75.4485 Z M10.9095,75.4485 C10.9095,75.1964987 10.8768337,74.969001 10.8115,74.766 C10.7461663,74.562999 10.6522506,74.3909174 10.52975,74.24975 C10.4072494,74.1085826 10.2573342,74.0000837 10.08,73.92425 C9.90266578,73.8484163 9.70083446,73.8105 9.4745,73.8105 L8.6835,73.8105 L8.6835,77.09 L9.4745,77.09 C9.70083446,77.09 9.90266578,77.0520837 10.08,76.97625 C10.2573342,76.9004163 10.4072494,76.7919174 10.52975,76.65075 C10.6522506,76.5095826 10.7461663,76.337501 10.8115,76.1345 C10.8768337,75.931499 10.9095,75.7028346 10.9095,75.4485 Z M15.5473889,77.0655 C15.7060564,77.0655 15.8478049,77.0392503 15.9726389,76.98675 C16.0974729,76.9342497 16.2030551,76.8590005 16.2893889,76.761 C16.3757227,76.6629995 16.4416387,76.5434174 16.4871389,76.40225 C16.5326391,76.2610826 16.5553889,76.1006676 16.5553889,75.921 L16.5553889,72.9005 L17.7383889,72.9005 L17.7383889,75.921 C17.7383889,76.2336682 17.6876394,76.5206654 17.5861389,76.782 C17.4846384,77.0433346 17.3393898,77.2684991 17.1503889,77.4575 C16.961388,77.6465009 16.7315569,77.7934995 16.4608889,77.8985 C16.1902209,78.0035005 15.8857239,78.056 15.5473889,78.056 C15.2067205,78.056 14.9010569,78.0035005 14.6303889,77.8985 C14.3597209,77.7934995 14.1298898,77.6465009 13.9408889,77.4575 C13.751888,77.2684991 13.6072227,77.0433346 13.5068889,76.782 C13.4065551,76.5206654 13.3563889,76.2336682 13.3563889,75.921 L13.3563889,72.9005 L14.5393889,72.9005 L14.5393889,75.9175 C14.5393889,76.0971676 14.5621387,76.2575826 14.6076389,76.39875 C14.6531391,76.5399174 14.7190551,76.6600828 14.8053889,76.75925 C14.8917227,76.8584172 14.9973049,76.9342497 15.1221389,76.98675 C15.2469729,77.0392503 15.3887214,77.0655 15.5473889,77.0655 Z M21.8232778,76.0505 L21.3507778,74.654 C21.3157776,74.5653329 21.2784447,74.4609173 21.2387778,74.34075 C21.1991109,74.2205827 21.1594447,74.0905007 21.1197778,73.9505 C21.0847776,74.092834 21.0474447,74.2246661 21.0077778,74.346 C20.9681109,74.4673339 20.930778,74.5723329 20.8957778,74.661 L20.4267778,76.0505 L21.8232778,76.0505 Z M23.7027778,78 L22.7857778,78 C22.6831106,78 22.6002781,77.9760836 22.5372778,77.92825 C22.4742775,77.8804164 22.4264446,77.819167 22.3937778,77.7445 L22.0927778,76.8555 L20.1537778,76.8555 L19.8527778,77.7445 C19.827111,77.8098337 19.7810281,77.8687497 19.7145278,77.92125 C19.6480275,77.9737503 19.5657783,78 19.4677778,78 L18.5437778,78 L20.5177778,72.9005 L21.7287778,72.9005 L23.7027778,78 Z M27.7771667,77.055 L27.7771667,78 L24.7041667,78 L24.7041667,72.9005 L25.8871667,72.9005 L25.8871667,77.055 L27.7771667,77.055 Z" id="DUAL" fill="#252525" fill-rule="nonzero"></path>
    </g>
</svg>