<?xml version="1.0" encoding="UTF-8"?>
<svg width="36px" height="132px" version="1.1" viewBox="0 0 36 132" xmlns="http://www.w3.org/2000/svg" xmlns:cc="http://creativecommons.org/ns#" xmlns:dc="http://purl.org/dc/elements/1.1/" xmlns:rdf="http://www.w3.org/1999/02/22-rdf-syntax-ns#" xmlns:xlink="http://www.w3.org/1999/xlink">
 <metadata>
  <rdf:RDF>
   <cc:Work rdf:about="">
    <dc:format>image/svg+xml</dc:format>
    <dc:type rdf:resource="http://purl.org/dc/dcmitype/StillImage"/>
    <dc:title>bmp00114</dc:title>
   </cc:Work>
  </rdf:RDF>
 </metadata>
 <!-- Generator: Sketch 57.1 (83088) - https://sketch.com -->
 <title>bmp00114</title>
 <desc>Created with Sketch.</desc>
 <defs>
  <rect id="path-1" width="36" height="33" rx="5"/>
  <filter id="filter-2" x="-6.9%" y="-7.6%" width="113.9%" height="115.2%">
   <feGaussianBlur in="SourceAlpha" result="shadowBlurInner1" stdDeviation="2.5"/>
   <feOffset dx="0" dy="0" in="shadowBlurInner1" result="shadowOffsetInner1"/>
   <feComposite in="shadowOffsetInner1" in2="SourceAlpha" k2="-1" k3="1" operator="arithmetic" result="shadowInnerInner1"/>
   <feColorMatrix in="shadowInnerInner1" values="0 0 0 0 0   0 0 0 0 0   0 0 0 0 0  0 0 0 0.225515172 0"/>
  </filter>
  <rect id="path-3" width="36" height="33" rx="5"/>
  <filter id="filter-4" x="-6.9%" y="-7.6%" width="113.9%" height="115.2%">
   <feGaussianBlur in="SourceAlpha" result="shadowBlurInner1" stdDeviation="2.5"/>
   <feOffset dx="0" dy="0" in="shadowBlurInner1" result="shadowOffsetInner1"/>
   <feComposite in="shadowOffsetInner1" in2="SourceAlpha" k2="-1" k3="1" operator="arithmetic" result="shadowInnerInner1"/>
   <feColorMatrix in="shadowInnerInner1" values="0 0 0 0 0   0 0 0 0 0   0 0 0 0 0  0 0 0 0.225515172 0"/>
  </filter>
  <rect id="path-5" width="36" height="33" rx="5"/>
  <filter id="filter-6" x="-6.9%" y="-7.6%" width="113.9%" height="115.2%">
   <feGaussianBlur in="SourceAlpha" result="shadowBlurInner1" stdDeviation="2.5"/>
   <feOffset dx="0" dy="0" in="shadowBlurInner1" result="shadowOffsetInner1"/>
   <feComposite in="shadowOffsetInner1" in2="SourceAlpha" k2="-1" k3="1" operator="arithmetic" result="shadowInnerInner1"/>
   <feColorMatrix in="shadowInnerInner1" values="0 0 0 0 0   0 0 0 0 0   0 0 0 0 0  0 0 0 0.225515172 0"/>
  </filter>
  <rect id="path-7" width="36" height="33" rx="5"/>
  <filter id="filter-8" x="-6.9%" y="-7.6%" width="113.9%" height="115.2%">
   <feGaussianBlur in="SourceAlpha" result="shadowBlurInner1" stdDeviation="2.5"/>
   <feOffset dx="0" dy="0" in="shadowBlurInner1" result="shadowOffsetInner1"/>
   <feComposite in="shadowOffsetInner1" in2="SourceAlpha" k2="-1" k3="1" operator="arithmetic" result="shadowInnerInner1"/>
   <feColorMatrix in="shadowInnerInner1" values="0 0 0 0 0   0 0 0 0 0   0 0 0 0 0  0 0 0 0.225515172 0"/>
  </filter>
 </defs>
 <g fill="none" fill-rule="evenodd">
  <g id="Single">
   <g id="Rectangle">
    <use fill="#E3E3E3" fill-rule="evenodd" xlink:href="#path-1"/>
    <use fill="black" filter="url(#filter-2)" xlink:href="#path-1"/>
    <rect x=".5" y=".5" width="35" height="32" rx="5" stroke="#979797" stroke-linejoin="square"/>
   </g>
   <g fill="#A2A5B8">
    <rect x="2" y="8" width="32" height="1"/>
    <rect x="2" y="16" width="32" height="1"/>
    <rect x="2" y="24" width="32" height="1"/>
   </g>
   <path d="m5 1h26c2.2091 0 4 1.7909 4 4v3h-34v-3c0-2.2091 1.7909-4 4-4z" fill="#FF9A10"/>
   <g fill="#252525" fill-rule="nonzero">
    <path id="SINGLE" d="m9.6922 2.9365c-0.035 0.056-0.07175 0.098-0.11025 0.126s-0.088083 0.042-0.14875 0.042c-0.053667 0-0.11142-0.016916-0.17325-0.05075s-0.13183-0.07175-0.21-0.11375-0.16742-0.079916-0.26775-0.11375c-0.10033-0.033834-0.21467-0.05075-0.343-0.05075-0.22167 0-0.38675 0.04725-0.49525 0.14175s-0.16275 0.22225-0.16275 0.38325c0 0.10267 0.032666 0.18783 0.098 0.2555 0.065334 0.067667 0.15108 0.126 0.25725 0.175s0.2275 0.093916 0.364 0.13475 0.27592 0.086333 0.41825 0.1365c0.14233 0.050167 0.28175 0.10908 0.41825 0.17675 0.1365 0.067667 0.25783 0.154 0.364 0.259 0.10617 0.105 0.19192 0.23275 0.25725 0.38325 0.065334 0.1505 0.098 0.33192 0.098 0.54425 0 0.23567-0.040833 0.45617-0.1225 0.6615-0.081667 0.20533-0.20008 0.38442-0.35525 0.53725s-0.3465 0.273-0.574 0.3605-0.48592 0.13125-0.77525 0.13125c-0.15867 0-0.32025-0.016333-0.48475-0.049s-0.32375-0.07875-0.47775-0.13825-0.29867-0.13008-0.434-0.21175-0.25317-0.17267-0.3535-0.273l0.35-0.553c0.028-0.039667 0.06475-0.072917 0.11025-0.09975s0.095083-0.04025 0.14875-0.04025c0.07 0 0.14058 0.022166 0.21175 0.0665s0.15167 0.093333 0.2415 0.147c0.089834 0.053667 0.19308 0.10267 0.30975 0.147s0.25433 0.0665 0.413 0.0665c0.21467 0 0.3815-0.04725 0.5005-0.14175s0.1785-0.24442 0.1785-0.44975c0-0.119-0.032666-0.21583-0.098-0.2905s-0.15108-0.1365-0.25725-0.1855-0.22692-0.092166-0.36225-0.1295-0.27417-0.07875-0.4165-0.12425-0.28117-0.1015-0.4165-0.168-0.25608-0.154-0.36225-0.2625-0.19192-0.24383-0.25725-0.406-0.098-0.36225-0.098-0.60025c0-0.19133 0.0385-0.378 0.1155-0.56 0.077-0.182 0.19017-0.34417 0.3395-0.4865s0.3325-0.25608 0.5495-0.34125 0.4655-0.12775 0.7455-0.12775c0.15633 0 0.30858 0.01225 0.45675 0.03675s0.28875 0.060666 0.42175 0.1085 0.25725 0.105 0.37275 0.1715 0.21875 0.14175 0.30975 0.22575l-0.294 0.5495zm2.2505 4.0635h-1.19v-5.0995h1.19v5.0995zm5.439-5.0995v5.0995h-0.616c-0.091 0-0.16742-0.014583-0.22925-0.04375s-0.12308-0.079916-0.18375-0.15225l-2.4045-3.0415c0.0093334 0.091 0.01575 0.17908 0.01925 0.26425s0.00525 0.16508 0.00525 0.23975v2.7335h-1.043v-5.0995h0.623c0.051334 0 0.0945 0.0023333 0.1295 7e-3s0.0665 0.013417 0.0945 0.02625 0.054833 0.030917 0.0805 0.05425 0.054833 0.054833 0.0875 0.0945l2.4255 3.0625c-0.011667-0.098-0.019833-0.19308-0.0245-0.28525s-7e-3 -0.17908-7e-3 -0.26075v-2.6985h1.043zm3.437 2.457h1.813v2.1525c-0.26133 0.19133-0.53958 0.33017-0.83475 0.4165-0.29517 0.086334-0.60375 0.1295-0.92575 0.1295-0.42 0-0.80208-0.065916-1.1462-0.19775s-0.63875-0.31383-0.88375-0.546-0.434-0.5075-0.567-0.826-0.1995-0.66441-0.1995-1.0378c0-0.38034 0.062999-0.72975 0.189-1.0482s0.30625-0.59325 0.54075-0.82425c0.2345-0.231 0.518-0.41067 0.8505-0.539s0.70408-0.1925 1.1148-0.1925c0.21233 0 0.41183 0.0175 0.5985 0.0525 0.18667 0.035 0.35875 0.082833 0.51625 0.1435s0.30158 0.133 0.43225 0.217 0.24733 0.175 0.35 0.273l-0.343 0.5215c-0.053667 0.081667-0.12308 0.13183-0.20825 0.1505s-0.17675-0.002333-0.27475-0.063c-0.093334-0.056-0.18142-0.10442-0.26425-0.14525s-0.16742-0.074083-0.25375-0.09975-0.17733-0.044333-0.273-0.056-0.203-0.0175-0.322-0.0175c-0.22167 0-0.42117 0.039083-0.5985 0.11725s-0.32842 0.18842-0.45325 0.33075-0.22108 0.31325-0.28875 0.51275-0.1015 0.42175-0.1015 0.66675c0 0.27067 0.037333 0.511 0.112 0.721s0.18025 0.38733 0.31675 0.532 0.29983 0.25492 0.49 0.33075 0.40075 0.11375 0.63175 0.11375c0.14233 0 0.27125-0.014 0.38675-0.042s0.22808-0.065333 0.33775-0.112v-0.7735h-0.504c-0.074667 0-0.133-0.019833-0.175-0.0595-0.042-0.039667-0.063-0.089833-0.063-0.1505v-0.651zm5.6805 1.6975v0.945h-3.073v-5.0995h1.183v4.1545h1.89zm1.792-3.2445v1.19h1.603v0.875h-1.603v1.2145h2.093v0.91h-3.283v-5.0995h3.283v0.91h-2.093z"/>
    <path id="KEYSPLIT" d="m2.6765 11.966h0.189c0.175 0 0.301-0.054833 0.378-0.1645l1.148-1.666c0.067667-0.088667 0.14058-0.14992 0.21875-0.18375s0.17558-0.05075 0.29225-0.05075h1.029l-1.512 2.0615c-0.10733 0.14233-0.22283 0.245-0.3465 0.308 0.088667 0.032667 0.16917 0.078166 0.2415 0.1365 0.072334 0.058334 0.14 0.13417 0.203 0.2275l1.54 2.366h-1.057c-0.067667 0-0.12542-0.0046666-0.17325-0.014s-0.08925-0.023333-0.12425-0.042c-0.035-0.018667-0.065333-0.041416-0.091-0.06825s-0.050167-0.05775-0.0735-0.09275l-1.155-1.7745c-0.042-0.065334-0.095083-0.11142-0.15925-0.13825s-0.15108-0.04025-0.26075-0.04025h-0.287v2.17h-1.183v-5.0995h1.183v2.065zm4.9514-1.155v1.19h1.603v0.875h-1.603v1.2145h2.093v0.91h-3.283v-5.0995h3.283v0.91h-2.093zm5.2629 2.2505v1.939h-1.183v-1.939l-1.848-3.1605h1.043c0.10267 0 0.18375 0.023916 0.24325 0.07175 0.0595 0.047834 0.10908 0.10908 0.14875 0.18375l0.721 1.484c0.060667 0.11667 0.1155 0.22575 0.1645 0.32725s0.092166 0.20125 0.1295 0.29925c0.035-0.10033 0.07525-0.20125 0.12075-0.30275s0.098583-0.20942 0.15925-0.32375l0.714-1.484c0.016333-0.030334 0.036167-0.060666 0.0595-0.091 0.023334-0.030334 0.05075-0.05775 0.08225-0.08225 0.0315-0.0245 0.067666-0.044333 0.1085-0.0595s0.08575-0.02275 0.13475-0.02275h1.05l-1.848 3.1605zm6.3818-2.1245c-0.035 0.056-0.07175 0.098-0.11025 0.126s-0.088083 0.042-0.14875 0.042c-0.053667 0-0.11142-0.016916-0.17325-0.05075s-0.13183-0.07175-0.21-0.11375-0.16742-0.079916-0.26775-0.11375-0.21467-0.05075-0.343-0.05075c-0.22167 0-0.38675 0.04725-0.49525 0.14175s-0.16275 0.22225-0.16275 0.38325c0 0.10267 0.032666 0.18783 0.098 0.2555s0.15108 0.126 0.25725 0.175 0.2275 0.093916 0.364 0.13475 0.27592 0.086333 0.41825 0.1365 0.28175 0.10908 0.41825 0.17675 0.25783 0.154 0.364 0.259 0.19192 0.23275 0.25725 0.38325 0.098 0.33192 0.098 0.54425c0 0.23567-0.040833 0.45617-0.1225 0.6615s-0.20008 0.38442-0.35525 0.53725-0.3465 0.273-0.574 0.3605-0.48592 0.13125-0.77525 0.13125c-0.15867 0-0.32025-0.016333-0.48475-0.049s-0.32375-0.07875-0.47775-0.13825-0.29867-0.13008-0.434-0.21175-0.25317-0.17267-0.3535-0.273l0.35-0.553c0.028-0.039667 0.06475-0.072916 0.11025-0.09975s0.095083-0.04025 0.14875-0.04025c0.07 0 0.14058 0.022166 0.21175 0.0665s0.15167 0.093333 0.2415 0.147 0.19308 0.10267 0.30975 0.147c0.11667 0.044334 0.25433 0.0665 0.413 0.0665 0.21467 0 0.3815-0.04725 0.5005-0.14175s0.1785-0.24442 0.1785-0.44975c0-0.119-0.032666-0.21583-0.098-0.2905s-0.15108-0.1365-0.25725-0.1855-0.22692-0.092166-0.36225-0.1295-0.27417-0.07875-0.4165-0.12425-0.28117-0.1015-0.4165-0.168-0.25608-0.154-0.36225-0.2625-0.19192-0.24383-0.25725-0.406-0.098-0.36225-0.098-0.60025c0-0.19133 0.0385-0.378 0.1155-0.56s0.19017-0.34417 0.3395-0.4865 0.3325-0.25608 0.5495-0.34125c0.217-0.085167 0.4655-0.12775 0.7455-0.12775 0.15633 0 0.30858 0.01225 0.45675 0.03675s0.28875 0.060666 0.42175 0.1085c0.133 0.047834 0.25725 0.105 0.37275 0.1715s0.21875 0.14175 0.30975 0.22575l-0.294 0.5495zm2.8584 1.4665c0.308 0 0.52967-0.073499 0.665-0.2205s0.203-0.35233 0.203-0.616c0-0.11667-0.0175-0.22283-0.0525-0.3185s-0.088083-0.17792-0.15925-0.24675-0.161-0.12192-0.2695-0.15925-0.23742-0.056-0.38675-0.056h-0.616v1.617h0.616zm0-2.5025c0.35934 0 0.66792 0.042583 0.92575 0.12775 0.25783 0.085167 0.47017 0.20242 0.637 0.35175s0.28992 0.3255 0.36925 0.5285 0.119 0.42233 0.119 0.658c0 0.25433-0.040833 0.48767-0.1225 0.7s-0.2065 0.39433-0.3745 0.546-0.38092 0.27008-0.63875 0.35525-0.56291 0.12775-0.91525 0.12775h-0.616v1.7045h-1.183v-5.0995h1.799zm5.7249 4.1545v0.945h-3.073v-5.0995h1.183v4.1545h1.89zm1.7909 0.945h-1.19v-5.0995h1.19v5.0995zm4.6504-4.1615h-1.435v4.1615h-1.183v-4.1615h-1.435v-0.938h4.053v0.938z"/>
    <path id="CHSPLIT" d="m6.9305 21.68c0.028 0 0.056 0.0052499 0.084 0.01575s0.054833 0.028583 0.0805 0.05425l0.469 0.4935c-0.20533 0.26833-0.46258 0.47075-0.77175 0.60725s-0.67491 0.20475-1.0972 0.20475c-0.38734 0-0.73442-0.065916-1.0412-0.19775s-0.567-0.31383-0.7805-0.546-0.37742-0.5075-0.49175-0.826-0.1715-0.66441-0.1715-1.0378c0-0.38034 0.061833-0.72975 0.1855-1.0482 0.12367-0.3185 0.2975-0.59325 0.5215-0.82425s0.49233-0.41067 0.805-0.539 0.65683-0.1925 1.0325-0.1925c0.19133 0 0.37158 0.016916 0.54075 0.05075s0.32725 0.0805 0.47425 0.14c0.147 0.0595 0.28233 0.13125 0.406 0.21525 0.12367 0.084 0.23333 0.175 0.329 0.273l-0.399 0.5355c-0.025667 0.032667-0.056 0.062416-0.091 0.08925-0.035 0.026834-0.084 0.04025-0.147 0.04025-0.042 0-0.081666-0.0093332-0.119-0.028s-0.077-0.041416-0.119-0.06825-0.088083-0.056-0.13825-0.0875-0.10967-0.060666-0.1785-0.0875-0.14933-0.049583-0.2415-0.06825-0.20008-0.028-0.32375-0.028c-0.196 0-0.37508 0.036166-0.53725 0.1085s-0.30217 0.17792-0.42 0.31675-0.20883 0.30917-0.273 0.511-0.09625 0.43225-0.09625 0.69125c0 0.26133 0.035583 0.4935 0.10675 0.6965s0.168 0.37392 0.2905 0.51275 0.26542 0.24442 0.42875 0.31675 0.33833 0.1085 0.525 0.1085c0.10733 0 0.20533-0.0052499 0.294-0.01575s0.1715-0.028 0.2485-0.0525 0.14933-0.057166 0.217-0.098c0.067667-0.040834 0.1365-0.09275 0.2065-0.15575 0.028-0.023333 0.058333-0.042583 0.091-0.05775s0.0665-0.02275 0.1015-0.02275zm5.6024-3.78v5.0995h-1.19v-2.156h-2.072v2.156h-1.19v-5.0995h1.19v2.1315h2.072v-2.1315h1.19zm5.4193 1.036c-0.035 0.056-0.07175 0.098-0.11025 0.126s-0.088083 0.042-0.14875 0.042c-0.053667 0-0.11142-0.016916-0.17325-0.05075s-0.13183-0.07175-0.21-0.11375-0.16742-0.079916-0.26775-0.11375-0.21467-0.05075-0.343-0.05075c-0.22167 0-0.38675 0.04725-0.49525 0.14175s-0.16275 0.22225-0.16275 0.38325c0 0.10267 0.032666 0.18783 0.098 0.2555s0.15108 0.126 0.25725 0.175 0.2275 0.093916 0.364 0.13475 0.27592 0.086333 0.41825 0.1365 0.28175 0.10908 0.41825 0.17675 0.25783 0.154 0.364 0.259 0.19192 0.23275 0.25725 0.38325 0.098 0.33192 0.098 0.54425c0 0.23567-0.040833 0.45617-0.1225 0.6615s-0.20008 0.38442-0.35525 0.53725-0.3465 0.273-0.574 0.3605-0.48592 0.13125-0.77525 0.13125c-0.15867 0-0.32025-0.016333-0.48475-0.049s-0.32375-0.07875-0.47775-0.13825-0.29867-0.13008-0.434-0.21175-0.25317-0.17267-0.3535-0.273l0.35-0.553c0.028-0.039667 0.06475-0.072916 0.11025-0.09975s0.095083-0.04025 0.14875-0.04025c0.07 0 0.14058 0.022166 0.21175 0.0665s0.15167 0.093333 0.2415 0.147 0.19308 0.10267 0.30975 0.147 0.25433 0.0665 0.413 0.0665c0.21467 0 0.3815-0.04725 0.5005-0.14175s0.1785-0.24442 0.1785-0.44975c0-0.119-0.032666-0.21583-0.098-0.2905s-0.15108-0.1365-0.25725-0.1855-0.22692-0.092166-0.36225-0.1295-0.27417-0.07875-0.4165-0.12425-0.28117-0.1015-0.4165-0.168-0.25608-0.154-0.36225-0.2625-0.19192-0.24383-0.25725-0.406-0.098-0.36225-0.098-0.60025c0-0.19133 0.0385-0.378 0.1155-0.56s0.19017-0.34417 0.3395-0.4865 0.3325-0.25608 0.5495-0.34125 0.4655-0.12775 0.7455-0.12775c0.15633 0 0.30858 0.01225 0.45675 0.03675s0.28875 0.060666 0.42175 0.1085 0.25725 0.105 0.37275 0.1715 0.21875 0.14175 0.30975 0.22575l-0.294 0.5495zm2.8584 1.4665c0.308 0 0.52967-0.073499 0.665-0.2205s0.203-0.35233 0.203-0.616c0-0.11667-0.0175-0.22283-0.0525-0.3185s-0.088083-0.17792-0.15925-0.24675-0.161-0.12192-0.2695-0.15925-0.23742-0.056-0.38675-0.056h-0.616v1.617h0.616zm0-2.5025c0.35934 0 0.66792 0.042583 0.92575 0.12775s0.47017 0.20242 0.637 0.35175 0.28992 0.3255 0.36925 0.5285 0.119 0.42233 0.119 0.658c0 0.25433-0.040833 0.48767-0.1225 0.7s-0.2065 0.39433-0.3745 0.546-0.38092 0.27008-0.63875 0.35525-0.56291 0.12775-0.91525 0.12775h-0.616v1.7045h-1.183v-5.0995h1.799zm5.7249 4.1545v0.945h-3.073v-5.0995h1.183v4.1545h1.89zm1.7909 0.945h-1.19v-5.0995h1.19v5.0995zm4.6504-4.1615h-1.435v4.1615h-1.183v-4.1615h-1.435v-0.938h4.053v0.938z"/>
    <path id="DUAL" d="m13.51 28.448c0 0.36867-0.063583 0.70875-0.19075 1.0202s-0.30625 0.581-0.53725 0.8085-0.50925 0.40483-0.83475 0.532-0.68658 0.19075-1.0832 0.19075h-1.981v-5.0995h1.981c0.39667 0 0.75775 0.064166 1.0832 0.1925s0.60375 0.30567 0.83475 0.532 0.41008 0.49525 0.53725 0.80675 0.19075 0.65041 0.19075 1.0168zm-1.211 0c0-0.252-0.032666-0.4795-0.098-0.6825s-0.15925-0.37508-0.28175-0.51625-0.27242-0.24967-0.44975-0.3255-0.37917-0.11375-0.6055-0.11375h-0.791v3.2795h0.791c0.22633 0 0.42817-0.037916 0.6055-0.11375s0.32725-0.18433 0.44975-0.3255 0.21642-0.31325 0.28175-0.51625 0.098-0.43167 0.098-0.686zm4.039 1.617c0.15867 0 0.30042-0.02625 0.42525-0.07875s0.23042-0.12775 0.31675-0.22575 0.15225-0.21758 0.19775-0.35875 0.06825-0.30158 0.06825-0.48125v-3.0205h1.183v3.0205c0 0.31267-0.05075 0.59967-0.15225 0.861s-0.24675 0.4865-0.43575 0.6755-0.41883 0.336-0.6895 0.441-0.57516 0.1575-0.9135 0.1575c-0.34067 0-0.64633-0.0525-0.917-0.1575s-0.5005-0.252-0.6895-0.441-0.33367-0.41417-0.434-0.6755-0.1505-0.54833-0.1505-0.861v-3.0205h1.183v3.017c0 0.17967 0.02275 0.34008 0.06825 0.48125s0.11142 0.26133 0.19775 0.3605 0.19192 0.175 0.31675 0.2275 0.26658 0.07875 0.42525 0.07875zm5.81-1.015-0.4725-1.3965c-0.035-0.088667-0.072333-0.19308-0.112-0.31325s-0.079333-0.25025-0.119-0.39025c-0.035 0.14233-0.072333 0.27417-0.112 0.3955s-0.077 0.22633-0.112 0.315l-0.469 1.3895h1.3965zm1.8795 1.9495h-0.917c-0.10267 0-0.1855-0.023916-0.2485-0.07175s-0.11083-0.10908-0.1435-0.18375l-0.301-0.889h-1.939l-0.301 0.889c-0.025667 0.065334-0.07175 0.12425-0.13825 0.17675s-0.14875 0.07875-0.24675 0.07875h-0.924l1.974-5.0995h1.211l1.974 5.0995zm3.4755-0.945v0.945h-3.073v-5.0995h1.183v4.1545h1.89z"/>
   </g>
  </g>
  <g id="Key-Split" transform="translate(0 33)">
   <use fill="#E3E3E3" fill-rule="evenodd" xlink:href="#path-3"/>
   <use fill="black" filter="url(#filter-4)" xlink:href="#path-3"/>
   <rect x=".5" y=".5" width="35" height="32" rx="5" stroke="#979797" stroke-linejoin="square"/>
   <rect x="1" y="9" width="34" height="7" fill="#FF9A10"/>
   <g fill="#A2A5B8">
    <rect x="2" y="8" width="32" height="1"/>
    <rect x="2" y="16" width="32" height="1"/>
    <rect x="2" y="24" width="32" height="1"/>
   </g>
   <g fill="#252525" fill-rule="nonzero">
    <path d="m9.6922 2.9365c-0.035 0.056-0.07175 0.098-0.11025 0.126s-0.088083 0.042-0.14875 0.042c-0.053667 0-0.11142-0.016916-0.17325-0.05075s-0.13183-0.07175-0.21-0.11375-0.16742-0.079916-0.26775-0.11375c-0.10033-0.033834-0.21467-0.05075-0.343-0.05075-0.22167 0-0.38675 0.04725-0.49525 0.14175s-0.16275 0.22225-0.16275 0.38325c0 0.10267 0.032666 0.18783 0.098 0.2555 0.065334 0.067667 0.15108 0.126 0.25725 0.175s0.2275 0.093916 0.364 0.13475 0.27592 0.086333 0.41825 0.1365c0.14233 0.050167 0.28175 0.10908 0.41825 0.17675 0.1365 0.067667 0.25783 0.154 0.364 0.259 0.10617 0.105 0.19192 0.23275 0.25725 0.38325 0.065334 0.1505 0.098 0.33192 0.098 0.54425 0 0.23567-0.040833 0.45617-0.1225 0.6615-0.081667 0.20533-0.20008 0.38442-0.35525 0.53725s-0.3465 0.273-0.574 0.3605-0.48592 0.13125-0.77525 0.13125c-0.15867 0-0.32025-0.016333-0.48475-0.049s-0.32375-0.07875-0.47775-0.13825-0.29867-0.13008-0.434-0.21175-0.25317-0.17267-0.3535-0.273l0.35-0.553c0.028-0.039667 0.06475-0.072917 0.11025-0.09975s0.095083-0.04025 0.14875-0.04025c0.07 0 0.14058 0.022166 0.21175 0.0665s0.15167 0.093333 0.2415 0.147c0.089834 0.053667 0.19308 0.10267 0.30975 0.147s0.25433 0.0665 0.413 0.0665c0.21467 0 0.3815-0.04725 0.5005-0.14175s0.1785-0.24442 0.1785-0.44975c0-0.119-0.032666-0.21583-0.098-0.2905s-0.15108-0.1365-0.25725-0.1855-0.22692-0.092166-0.36225-0.1295-0.27417-0.07875-0.4165-0.12425-0.28117-0.1015-0.4165-0.168-0.25608-0.154-0.36225-0.2625-0.19192-0.24383-0.25725-0.406-0.098-0.36225-0.098-0.60025c0-0.19133 0.0385-0.378 0.1155-0.56 0.077-0.182 0.19017-0.34417 0.3395-0.4865s0.3325-0.25608 0.5495-0.34125 0.4655-0.12775 0.7455-0.12775c0.15633 0 0.30858 0.01225 0.45675 0.03675s0.28875 0.060666 0.42175 0.1085 0.25725 0.105 0.37275 0.1715 0.21875 0.14175 0.30975 0.22575l-0.294 0.5495zm2.2505 4.0635h-1.19v-5.0995h1.19v5.0995zm5.439-5.0995v5.0995h-0.616c-0.091 0-0.16742-0.014583-0.22925-0.04375s-0.12308-0.079916-0.18375-0.15225l-2.4045-3.0415c0.0093334 0.091 0.01575 0.17908 0.01925 0.26425s0.00525 0.16508 0.00525 0.23975v2.7335h-1.043v-5.0995h0.623c0.051334 0 0.0945 0.0023333 0.1295 7e-3s0.0665 0.013417 0.0945 0.02625 0.054833 0.030917 0.0805 0.05425 0.054833 0.054833 0.0875 0.0945l2.4255 3.0625c-0.011667-0.098-0.019833-0.19308-0.0245-0.28525s-7e-3 -0.17908-7e-3 -0.26075v-2.6985h1.043zm3.437 2.457h1.813v2.1525c-0.26133 0.19133-0.53958 0.33017-0.83475 0.4165-0.29517 0.086334-0.60375 0.1295-0.92575 0.1295-0.42 0-0.80208-0.065916-1.1462-0.19775s-0.63875-0.31383-0.88375-0.546-0.434-0.5075-0.567-0.826-0.1995-0.66441-0.1995-1.0378c0-0.38034 0.062999-0.72975 0.189-1.0482s0.30625-0.59325 0.54075-0.82425c0.2345-0.231 0.518-0.41067 0.8505-0.539s0.70408-0.1925 1.1148-0.1925c0.21233 0 0.41183 0.0175 0.5985 0.0525 0.18667 0.035 0.35875 0.082833 0.51625 0.1435s0.30158 0.133 0.43225 0.217 0.24733 0.175 0.35 0.273l-0.343 0.5215c-0.053667 0.081667-0.12308 0.13183-0.20825 0.1505s-0.17675-0.002333-0.27475-0.063c-0.093334-0.056-0.18142-0.10442-0.26425-0.14525s-0.16742-0.074083-0.25375-0.09975-0.17733-0.044333-0.273-0.056-0.203-0.0175-0.322-0.0175c-0.22167 0-0.42117 0.039083-0.5985 0.11725s-0.32842 0.18842-0.45325 0.33075-0.22108 0.31325-0.28875 0.51275-0.1015 0.42175-0.1015 0.66675c0 0.27067 0.037333 0.511 0.112 0.721s0.18025 0.38733 0.31675 0.532 0.29983 0.25492 0.49 0.33075 0.40075 0.11375 0.63175 0.11375c0.14233 0 0.27125-0.014 0.38675-0.042s0.22808-0.065333 0.33775-0.112v-0.7735h-0.504c-0.074667 0-0.133-0.019833-0.175-0.0595-0.042-0.039667-0.063-0.089833-0.063-0.1505v-0.651zm5.6805 1.6975v0.945h-3.073v-5.0995h1.183v4.1545h1.89zm1.792-3.2445v1.19h1.603v0.875h-1.603v1.2145h2.093v0.91h-3.283v-5.0995h3.283v0.91h-2.093z"/>
    <path d="m2.6765 11.966h0.189c0.175 0 0.301-0.054833 0.378-0.1645l1.148-1.666c0.067667-0.088667 0.14058-0.14992 0.21875-0.18375s0.17558-0.05075 0.29225-0.05075h1.029l-1.512 2.0615c-0.10733 0.14233-0.22283 0.245-0.3465 0.308 0.088667 0.032667 0.16917 0.078166 0.2415 0.1365 0.072334 0.058334 0.14 0.13417 0.203 0.2275l1.54 2.366h-1.057c-0.067667 0-0.12542-0.0046666-0.17325-0.014s-0.08925-0.023333-0.12425-0.042c-0.035-0.018667-0.065333-0.041416-0.091-0.06825s-0.050167-0.05775-0.0735-0.09275l-1.155-1.7745c-0.042-0.065334-0.095083-0.11142-0.15925-0.13825s-0.15108-0.04025-0.26075-0.04025h-0.287v2.17h-1.183v-5.0995h1.183v2.065zm4.9514-1.155v1.19h1.603v0.875h-1.603v1.2145h2.093v0.91h-3.283v-5.0995h3.283v0.91h-2.093zm5.2629 2.2505v1.939h-1.183v-1.939l-1.848-3.1605h1.043c0.10267 0 0.18375 0.023916 0.24325 0.07175 0.0595 0.047834 0.10908 0.10908 0.14875 0.18375l0.721 1.484c0.060667 0.11667 0.1155 0.22575 0.1645 0.32725s0.092166 0.20125 0.1295 0.29925c0.035-0.10033 0.07525-0.20125 0.12075-0.30275s0.098583-0.20942 0.15925-0.32375l0.714-1.484c0.016333-0.030334 0.036167-0.060666 0.0595-0.091 0.023334-0.030334 0.05075-0.05775 0.08225-0.08225 0.0315-0.0245 0.067666-0.044333 0.1085-0.0595s0.08575-0.02275 0.13475-0.02275h1.05l-1.848 3.1605zm6.3818-2.1245c-0.035 0.056-0.07175 0.098-0.11025 0.126s-0.088083 0.042-0.14875 0.042c-0.053667 0-0.11142-0.016916-0.17325-0.05075s-0.13183-0.07175-0.21-0.11375-0.16742-0.079916-0.26775-0.11375-0.21467-0.05075-0.343-0.05075c-0.22167 0-0.38675 0.04725-0.49525 0.14175s-0.16275 0.22225-0.16275 0.38325c0 0.10267 0.032666 0.18783 0.098 0.2555s0.15108 0.126 0.25725 0.175 0.2275 0.093916 0.364 0.13475 0.27592 0.086333 0.41825 0.1365 0.28175 0.10908 0.41825 0.17675 0.25783 0.154 0.364 0.259 0.19192 0.23275 0.25725 0.38325 0.098 0.33192 0.098 0.54425c0 0.23567-0.040833 0.45617-0.1225 0.6615s-0.20008 0.38442-0.35525 0.53725-0.3465 0.273-0.574 0.3605-0.48592 0.13125-0.77525 0.13125c-0.15867 0-0.32025-0.016333-0.48475-0.049s-0.32375-0.07875-0.47775-0.13825-0.29867-0.13008-0.434-0.21175-0.25317-0.17267-0.3535-0.273l0.35-0.553c0.028-0.039667 0.06475-0.072916 0.11025-0.09975s0.095083-0.04025 0.14875-0.04025c0.07 0 0.14058 0.022166 0.21175 0.0665s0.15167 0.093333 0.2415 0.147 0.19308 0.10267 0.30975 0.147c0.11667 0.044334 0.25433 0.0665 0.413 0.0665 0.21467 0 0.3815-0.04725 0.5005-0.14175s0.1785-0.24442 0.1785-0.44975c0-0.119-0.032666-0.21583-0.098-0.2905s-0.15108-0.1365-0.25725-0.1855-0.22692-0.092166-0.36225-0.1295-0.27417-0.07875-0.4165-0.12425-0.28117-0.1015-0.4165-0.168-0.25608-0.154-0.36225-0.2625-0.19192-0.24383-0.25725-0.406-0.098-0.36225-0.098-0.60025c0-0.19133 0.0385-0.378 0.1155-0.56s0.19017-0.34417 0.3395-0.4865 0.3325-0.25608 0.5495-0.34125c0.217-0.085167 0.4655-0.12775 0.7455-0.12775 0.15633 0 0.30858 0.01225 0.45675 0.03675s0.28875 0.060666 0.42175 0.1085c0.133 0.047834 0.25725 0.105 0.37275 0.1715s0.21875 0.14175 0.30975 0.22575l-0.294 0.5495zm2.8584 1.4665c0.308 0 0.52967-0.073499 0.665-0.2205s0.203-0.35233 0.203-0.616c0-0.11667-0.0175-0.22283-0.0525-0.3185s-0.088083-0.17792-0.15925-0.24675-0.161-0.12192-0.2695-0.15925-0.23742-0.056-0.38675-0.056h-0.616v1.617h0.616zm0-2.5025c0.35934 0 0.66792 0.042583 0.92575 0.12775 0.25783 0.085167 0.47017 0.20242 0.637 0.35175s0.28992 0.3255 0.36925 0.5285 0.119 0.42233 0.119 0.658c0 0.25433-0.040833 0.48767-0.1225 0.7s-0.2065 0.39433-0.3745 0.546-0.38092 0.27008-0.63875 0.35525-0.56291 0.12775-0.91525 0.12775h-0.616v1.7045h-1.183v-5.0995h1.799zm5.7249 4.1545v0.945h-3.073v-5.0995h1.183v4.1545h1.89zm1.7909 0.945h-1.19v-5.0995h1.19v5.0995zm4.6504-4.1615h-1.435v4.1615h-1.183v-4.1615h-1.435v-0.938h4.053v0.938z"/>
    <path d="m6.9305 21.68c0.028 0 0.056 0.0052499 0.084 0.01575s0.054833 0.028583 0.0805 0.05425l0.469 0.4935c-0.20533 0.26833-0.46258 0.47075-0.77175 0.60725s-0.67491 0.20475-1.0972 0.20475c-0.38734 0-0.73442-0.065916-1.0412-0.19775s-0.567-0.31383-0.7805-0.546-0.37742-0.5075-0.49175-0.826-0.1715-0.66441-0.1715-1.0378c0-0.38034 0.061833-0.72975 0.1855-1.0482 0.12367-0.3185 0.2975-0.59325 0.5215-0.82425s0.49233-0.41067 0.805-0.539 0.65683-0.1925 1.0325-0.1925c0.19133 0 0.37158 0.016916 0.54075 0.05075s0.32725 0.0805 0.47425 0.14c0.147 0.0595 0.28233 0.13125 0.406 0.21525 0.12367 0.084 0.23333 0.175 0.329 0.273l-0.399 0.5355c-0.025667 0.032667-0.056 0.062416-0.091 0.08925-0.035 0.026834-0.084 0.04025-0.147 0.04025-0.042 0-0.081666-0.0093332-0.119-0.028s-0.077-0.041416-0.119-0.06825-0.088083-0.056-0.13825-0.0875-0.10967-0.060666-0.1785-0.0875-0.14933-0.049583-0.2415-0.06825-0.20008-0.028-0.32375-0.028c-0.196 0-0.37508 0.036166-0.53725 0.1085s-0.30217 0.17792-0.42 0.31675-0.20883 0.30917-0.273 0.511-0.09625 0.43225-0.09625 0.69125c0 0.26133 0.035583 0.4935 0.10675 0.6965s0.168 0.37392 0.2905 0.51275 0.26542 0.24442 0.42875 0.31675 0.33833 0.1085 0.525 0.1085c0.10733 0 0.20533-0.0052499 0.294-0.01575s0.1715-0.028 0.2485-0.0525 0.14933-0.057166 0.217-0.098c0.067667-0.040834 0.1365-0.09275 0.2065-0.15575 0.028-0.023333 0.058333-0.042583 0.091-0.05775s0.0665-0.02275 0.1015-0.02275zm5.6024-3.78v5.0995h-1.19v-2.156h-2.072v2.156h-1.19v-5.0995h1.19v2.1315h2.072v-2.1315h1.19zm5.4193 1.036c-0.035 0.056-0.07175 0.098-0.11025 0.126s-0.088083 0.042-0.14875 0.042c-0.053667 0-0.11142-0.016916-0.17325-0.05075s-0.13183-0.07175-0.21-0.11375-0.16742-0.079916-0.26775-0.11375-0.21467-0.05075-0.343-0.05075c-0.22167 0-0.38675 0.04725-0.49525 0.14175s-0.16275 0.22225-0.16275 0.38325c0 0.10267 0.032666 0.18783 0.098 0.2555s0.15108 0.126 0.25725 0.175 0.2275 0.093916 0.364 0.13475 0.27592 0.086333 0.41825 0.1365 0.28175 0.10908 0.41825 0.17675 0.25783 0.154 0.364 0.259 0.19192 0.23275 0.25725 0.38325 0.098 0.33192 0.098 0.54425c0 0.23567-0.040833 0.45617-0.1225 0.6615s-0.20008 0.38442-0.35525 0.53725-0.3465 0.273-0.574 0.3605-0.48592 0.13125-0.77525 0.13125c-0.15867 0-0.32025-0.016333-0.48475-0.049s-0.32375-0.07875-0.47775-0.13825-0.29867-0.13008-0.434-0.21175-0.25317-0.17267-0.3535-0.273l0.35-0.553c0.028-0.039667 0.06475-0.072916 0.11025-0.09975s0.095083-0.04025 0.14875-0.04025c0.07 0 0.14058 0.022166 0.21175 0.0665s0.15167 0.093333 0.2415 0.147 0.19308 0.10267 0.30975 0.147 0.25433 0.0665 0.413 0.0665c0.21467 0 0.3815-0.04725 0.5005-0.14175s0.1785-0.24442 0.1785-0.44975c0-0.119-0.032666-0.21583-0.098-0.2905s-0.15108-0.1365-0.25725-0.1855-0.22692-0.092166-0.36225-0.1295-0.27417-0.07875-0.4165-0.12425-0.28117-0.1015-0.4165-0.168-0.25608-0.154-0.36225-0.2625-0.19192-0.24383-0.25725-0.406-0.098-0.36225-0.098-0.60025c0-0.19133 0.0385-0.378 0.1155-0.56s0.19017-0.34417 0.3395-0.4865 0.3325-0.25608 0.5495-0.34125 0.4655-0.12775 0.7455-0.12775c0.15633 0 0.30858 0.01225 0.45675 0.03675s0.28875 0.060666 0.42175 0.1085 0.25725 0.105 0.37275 0.1715 0.21875 0.14175 0.30975 0.22575l-0.294 0.5495zm2.8584 1.4665c0.308 0 0.52967-0.073499 0.665-0.2205s0.203-0.35233 0.203-0.616c0-0.11667-0.0175-0.22283-0.0525-0.3185s-0.088083-0.17792-0.15925-0.24675-0.161-0.12192-0.2695-0.15925-0.23742-0.056-0.38675-0.056h-0.616v1.617h0.616zm0-2.5025c0.35934 0 0.66792 0.042583 0.92575 0.12775s0.47017 0.20242 0.637 0.35175 0.28992 0.3255 0.36925 0.5285 0.119 0.42233 0.119 0.658c0 0.25433-0.040833 0.48767-0.1225 0.7s-0.2065 0.39433-0.3745 0.546-0.38092 0.27008-0.63875 0.35525-0.56291 0.12775-0.91525 0.12775h-0.616v1.7045h-1.183v-5.0995h1.799zm5.7249 4.1545v0.945h-3.073v-5.0995h1.183v4.1545h1.89zm1.7909 0.945h-1.19v-5.0995h1.19v5.0995zm4.6504-4.1615h-1.435v4.1615h-1.183v-4.1615h-1.435v-0.938h4.053v0.938z"/>
    <path d="m13.51 28.448c0 0.36867-0.063583 0.70875-0.19075 1.0202s-0.30625 0.581-0.53725 0.8085-0.50925 0.40483-0.83475 0.532-0.68658 0.19075-1.0832 0.19075h-1.981v-5.0995h1.981c0.39667 0 0.75775 0.064166 1.0832 0.1925s0.60375 0.30567 0.83475 0.532 0.41008 0.49525 0.53725 0.80675 0.19075 0.65041 0.19075 1.0168zm-1.211 0c0-0.252-0.032666-0.4795-0.098-0.6825s-0.15925-0.37508-0.28175-0.51625-0.27242-0.24967-0.44975-0.3255-0.37917-0.11375-0.6055-0.11375h-0.791v3.2795h0.791c0.22633 0 0.42817-0.037916 0.6055-0.11375s0.32725-0.18433 0.44975-0.3255 0.21642-0.31325 0.28175-0.51625 0.098-0.43167 0.098-0.686zm4.039 1.617c0.15867 0 0.30042-0.02625 0.42525-0.07875s0.23042-0.12775 0.31675-0.22575 0.15225-0.21758 0.19775-0.35875 0.06825-0.30158 0.06825-0.48125v-3.0205h1.183v3.0205c0 0.31267-0.05075 0.59967-0.15225 0.861s-0.24675 0.4865-0.43575 0.6755-0.41883 0.336-0.6895 0.441-0.57516 0.1575-0.9135 0.1575c-0.34067 0-0.64633-0.0525-0.917-0.1575s-0.5005-0.252-0.6895-0.441-0.33367-0.41417-0.434-0.6755-0.1505-0.54833-0.1505-0.861v-3.0205h1.183v3.017c0 0.17967 0.02275 0.34008 0.06825 0.48125s0.11142 0.26133 0.19775 0.3605 0.19192 0.175 0.31675 0.2275 0.26658 0.07875 0.42525 0.07875zm5.81-1.015-0.4725-1.3965c-0.035-0.088667-0.072333-0.19308-0.112-0.31325s-0.079333-0.25025-0.119-0.39025c-0.035 0.14233-0.072333 0.27417-0.112 0.3955s-0.077 0.22633-0.112 0.315l-0.469 1.3895h1.3965zm1.8795 1.9495h-0.917c-0.10267 0-0.1855-0.023916-0.2485-0.07175s-0.11083-0.10908-0.1435-0.18375l-0.301-0.889h-1.939l-0.301 0.889c-0.025667 0.065334-0.07175 0.12425-0.13825 0.17675s-0.14875 0.07875-0.24675 0.07875h-0.924l1.974-5.0995h1.211l1.974 5.0995zm3.4755-0.945v0.945h-3.073v-5.0995h1.183v4.1545h1.89z"/>
   </g>
  </g>
  <g id="Ch-Split" transform="translate(0 66)">
   <use fill="#E3E3E3" fill-rule="evenodd" xlink:href="#path-5"/>
   <use fill="black" filter="url(#filter-6)" xlink:href="#path-5"/>
   <rect x=".5" y=".5" width="35" height="32" rx="5" stroke="#979797" stroke-linejoin="square"/>
   <rect x="1" y="17" width="34" height="7" fill="#FF9A10"/>
   <g fill="#A2A5B8">
    <rect x="2" y="8" width="32" height="1"/>
    <rect x="2" y="16" width="32" height="1"/>
    <rect x="2" y="24" width="32" height="1"/>
   </g>
   <g fill="#252525" fill-rule="nonzero">
    <path d="m9.6922 2.9365c-0.035 0.056-0.07175 0.098-0.11025 0.126s-0.088083 0.042-0.14875 0.042c-0.053667 0-0.11142-0.016916-0.17325-0.05075s-0.13183-0.07175-0.21-0.11375-0.16742-0.079916-0.26775-0.11375c-0.10033-0.033834-0.21467-0.05075-0.343-0.05075-0.22167 0-0.38675 0.04725-0.49525 0.14175s-0.16275 0.22225-0.16275 0.38325c0 0.10267 0.032666 0.18783 0.098 0.2555 0.065334 0.067667 0.15108 0.126 0.25725 0.175s0.2275 0.093916 0.364 0.13475 0.27592 0.086333 0.41825 0.1365c0.14233 0.050167 0.28175 0.10908 0.41825 0.17675 0.1365 0.067667 0.25783 0.154 0.364 0.259 0.10617 0.105 0.19192 0.23275 0.25725 0.38325 0.065334 0.1505 0.098 0.33192 0.098 0.54425 0 0.23567-0.040833 0.45617-0.1225 0.6615-0.081667 0.20533-0.20008 0.38442-0.35525 0.53725s-0.3465 0.273-0.574 0.3605-0.48592 0.13125-0.77525 0.13125c-0.15867 0-0.32025-0.016333-0.48475-0.049s-0.32375-0.07875-0.47775-0.13825-0.29867-0.13008-0.434-0.21175-0.25317-0.17267-0.3535-0.273l0.35-0.553c0.028-0.039667 0.06475-0.072917 0.11025-0.09975s0.095083-0.04025 0.14875-0.04025c0.07 0 0.14058 0.022166 0.21175 0.0665s0.15167 0.093333 0.2415 0.147c0.089834 0.053667 0.19308 0.10267 0.30975 0.147s0.25433 0.0665 0.413 0.0665c0.21467 0 0.3815-0.04725 0.5005-0.14175s0.1785-0.24442 0.1785-0.44975c0-0.119-0.032666-0.21583-0.098-0.2905s-0.15108-0.1365-0.25725-0.1855-0.22692-0.092166-0.36225-0.1295-0.27417-0.07875-0.4165-0.12425-0.28117-0.1015-0.4165-0.168-0.25608-0.154-0.36225-0.2625-0.19192-0.24383-0.25725-0.406-0.098-0.36225-0.098-0.60025c0-0.19133 0.0385-0.378 0.1155-0.56 0.077-0.182 0.19017-0.34417 0.3395-0.4865s0.3325-0.25608 0.5495-0.34125 0.4655-0.12775 0.7455-0.12775c0.15633 0 0.30858 0.01225 0.45675 0.03675s0.28875 0.060666 0.42175 0.1085 0.25725 0.105 0.37275 0.1715 0.21875 0.14175 0.30975 0.22575l-0.294 0.5495zm2.2505 4.0635h-1.19v-5.0995h1.19v5.0995zm5.439-5.0995v5.0995h-0.616c-0.091 0-0.16742-0.014583-0.22925-0.04375s-0.12308-0.079916-0.18375-0.15225l-2.4045-3.0415c0.0093334 0.091 0.01575 0.17908 0.01925 0.26425s0.00525 0.16508 0.00525 0.23975v2.7335h-1.043v-5.0995h0.623c0.051334 0 0.0945 0.0023333 0.1295 7e-3s0.0665 0.013417 0.0945 0.02625 0.054833 0.030917 0.0805 0.05425 0.054833 0.054833 0.0875 0.0945l2.4255 3.0625c-0.011667-0.098-0.019833-0.19308-0.0245-0.28525s-7e-3 -0.17908-7e-3 -0.26075v-2.6985h1.043zm3.437 2.457h1.813v2.1525c-0.26133 0.19133-0.53958 0.33017-0.83475 0.4165-0.29517 0.086334-0.60375 0.1295-0.92575 0.1295-0.42 0-0.80208-0.065916-1.1462-0.19775s-0.63875-0.31383-0.88375-0.546-0.434-0.5075-0.567-0.826-0.1995-0.66441-0.1995-1.0378c0-0.38034 0.062999-0.72975 0.189-1.0482s0.30625-0.59325 0.54075-0.82425c0.2345-0.231 0.518-0.41067 0.8505-0.539s0.70408-0.1925 1.1148-0.1925c0.21233 0 0.41183 0.0175 0.5985 0.0525 0.18667 0.035 0.35875 0.082833 0.51625 0.1435s0.30158 0.133 0.43225 0.217 0.24733 0.175 0.35 0.273l-0.343 0.5215c-0.053667 0.081667-0.12308 0.13183-0.20825 0.1505s-0.17675-0.002333-0.27475-0.063c-0.093334-0.056-0.18142-0.10442-0.26425-0.14525s-0.16742-0.074083-0.25375-0.09975-0.17733-0.044333-0.273-0.056-0.203-0.0175-0.322-0.0175c-0.22167 0-0.42117 0.039083-0.5985 0.11725s-0.32842 0.18842-0.45325 0.33075-0.22108 0.31325-0.28875 0.51275-0.1015 0.42175-0.1015 0.66675c0 0.27067 0.037333 0.511 0.112 0.721s0.18025 0.38733 0.31675 0.532 0.29983 0.25492 0.49 0.33075 0.40075 0.11375 0.63175 0.11375c0.14233 0 0.27125-0.014 0.38675-0.042s0.22808-0.065333 0.33775-0.112v-0.7735h-0.504c-0.074667 0-0.133-0.019833-0.175-0.0595-0.042-0.039667-0.063-0.089833-0.063-0.1505v-0.651zm5.6805 1.6975v0.945h-3.073v-5.0995h1.183v4.1545h1.89zm1.792-3.2445v1.19h1.603v0.875h-1.603v1.2145h2.093v0.91h-3.283v-5.0995h3.283v0.91h-2.093z"/>
    <path d="m2.6765 11.966h0.189c0.175 0 0.301-0.054833 0.378-0.1645l1.148-1.666c0.067667-0.088667 0.14058-0.14992 0.21875-0.18375s0.17558-0.05075 0.29225-0.05075h1.029l-1.512 2.0615c-0.10733 0.14233-0.22283 0.245-0.3465 0.308 0.088667 0.032667 0.16917 0.078166 0.2415 0.1365 0.072334 0.058334 0.14 0.13417 0.203 0.2275l1.54 2.366h-1.057c-0.067667 0-0.12542-0.0046666-0.17325-0.014s-0.08925-0.023333-0.12425-0.042c-0.035-0.018667-0.065333-0.041416-0.091-0.06825s-0.050167-0.05775-0.0735-0.09275l-1.155-1.7745c-0.042-0.065334-0.095083-0.11142-0.15925-0.13825s-0.15108-0.04025-0.26075-0.04025h-0.287v2.17h-1.183v-5.0995h1.183v2.065zm4.9514-1.155v1.19h1.603v0.875h-1.603v1.2145h2.093v0.91h-3.283v-5.0995h3.283v0.91h-2.093zm5.2629 2.2505v1.939h-1.183v-1.939l-1.848-3.1605h1.043c0.10267 0 0.18375 0.023916 0.24325 0.07175 0.0595 0.047834 0.10908 0.10908 0.14875 0.18375l0.721 1.484c0.060667 0.11667 0.1155 0.22575 0.1645 0.32725s0.092166 0.20125 0.1295 0.29925c0.035-0.10033 0.07525-0.20125 0.12075-0.30275s0.098583-0.20942 0.15925-0.32375l0.714-1.484c0.016333-0.030334 0.036167-0.060666 0.0595-0.091 0.023334-0.030334 0.05075-0.05775 0.08225-0.08225 0.0315-0.0245 0.067666-0.044333 0.1085-0.0595s0.08575-0.02275 0.13475-0.02275h1.05l-1.848 3.1605zm6.3818-2.1245c-0.035 0.056-0.07175 0.098-0.11025 0.126s-0.088083 0.042-0.14875 0.042c-0.053667 0-0.11142-0.016916-0.17325-0.05075s-0.13183-0.07175-0.21-0.11375-0.16742-0.079916-0.26775-0.11375-0.21467-0.05075-0.343-0.05075c-0.22167 0-0.38675 0.04725-0.49525 0.14175s-0.16275 0.22225-0.16275 0.38325c0 0.10267 0.032666 0.18783 0.098 0.2555s0.15108 0.126 0.25725 0.175 0.2275 0.093916 0.364 0.13475 0.27592 0.086333 0.41825 0.1365 0.28175 0.10908 0.41825 0.17675 0.25783 0.154 0.364 0.259 0.19192 0.23275 0.25725 0.38325 0.098 0.33192 0.098 0.54425c0 0.23567-0.040833 0.45617-0.1225 0.6615s-0.20008 0.38442-0.35525 0.53725-0.3465 0.273-0.574 0.3605-0.48592 0.13125-0.77525 0.13125c-0.15867 0-0.32025-0.016333-0.48475-0.049s-0.32375-0.07875-0.47775-0.13825-0.29867-0.13008-0.434-0.21175-0.25317-0.17267-0.3535-0.273l0.35-0.553c0.028-0.039667 0.06475-0.072916 0.11025-0.09975s0.095083-0.04025 0.14875-0.04025c0.07 0 0.14058 0.022166 0.21175 0.0665s0.15167 0.093333 0.2415 0.147 0.19308 0.10267 0.30975 0.147c0.11667 0.044334 0.25433 0.0665 0.413 0.0665 0.21467 0 0.3815-0.04725 0.5005-0.14175s0.1785-0.24442 0.1785-0.44975c0-0.119-0.032666-0.21583-0.098-0.2905s-0.15108-0.1365-0.25725-0.1855-0.22692-0.092166-0.36225-0.1295-0.27417-0.07875-0.4165-0.12425-0.28117-0.1015-0.4165-0.168-0.25608-0.154-0.36225-0.2625-0.19192-0.24383-0.25725-0.406-0.098-0.36225-0.098-0.60025c0-0.19133 0.0385-0.378 0.1155-0.56s0.19017-0.34417 0.3395-0.4865 0.3325-0.25608 0.5495-0.34125c0.217-0.085167 0.4655-0.12775 0.7455-0.12775 0.15633 0 0.30858 0.01225 0.45675 0.03675s0.28875 0.060666 0.42175 0.1085c0.133 0.047834 0.25725 0.105 0.37275 0.1715s0.21875 0.14175 0.30975 0.22575l-0.294 0.5495zm2.8584 1.4665c0.308 0 0.52967-0.073499 0.665-0.2205s0.203-0.35233 0.203-0.616c0-0.11667-0.0175-0.22283-0.0525-0.3185s-0.088083-0.17792-0.15925-0.24675-0.161-0.12192-0.2695-0.15925-0.23742-0.056-0.38675-0.056h-0.616v1.617h0.616zm0-2.5025c0.35934 0 0.66792 0.042583 0.92575 0.12775 0.25783 0.085167 0.47017 0.20242 0.637 0.35175s0.28992 0.3255 0.36925 0.5285 0.119 0.42233 0.119 0.658c0 0.25433-0.040833 0.48767-0.1225 0.7s-0.2065 0.39433-0.3745 0.546-0.38092 0.27008-0.63875 0.35525-0.56291 0.12775-0.91525 0.12775h-0.616v1.7045h-1.183v-5.0995h1.799zm5.7249 4.1545v0.945h-3.073v-5.0995h1.183v4.1545h1.89zm1.7909 0.945h-1.19v-5.0995h1.19v5.0995zm4.6504-4.1615h-1.435v4.1615h-1.183v-4.1615h-1.435v-0.938h4.053v0.938z"/>
    <path d="m6.9305 21.68c0.028 0 0.056 0.0052499 0.084 0.01575s0.054833 0.028583 0.0805 0.05425l0.469 0.4935c-0.20533 0.26833-0.46258 0.47075-0.77175 0.60725s-0.67491 0.20475-1.0972 0.20475c-0.38734 0-0.73442-0.065916-1.0412-0.19775s-0.567-0.31383-0.7805-0.546-0.37742-0.5075-0.49175-0.826-0.1715-0.66441-0.1715-1.0378c0-0.38034 0.061833-0.72975 0.1855-1.0482 0.12367-0.3185 0.2975-0.59325 0.5215-0.82425s0.49233-0.41067 0.805-0.539 0.65683-0.1925 1.0325-0.1925c0.19133 0 0.37158 0.016916 0.54075 0.05075s0.32725 0.0805 0.47425 0.14c0.147 0.0595 0.28233 0.13125 0.406 0.21525 0.12367 0.084 0.23333 0.175 0.329 0.273l-0.399 0.5355c-0.025667 0.032667-0.056 0.062416-0.091 0.08925-0.035 0.026834-0.084 0.04025-0.147 0.04025-0.042 0-0.081666-0.0093332-0.119-0.028s-0.077-0.041416-0.119-0.06825-0.088083-0.056-0.13825-0.0875-0.10967-0.060666-0.1785-0.0875-0.14933-0.049583-0.2415-0.06825-0.20008-0.028-0.32375-0.028c-0.196 0-0.37508 0.036166-0.53725 0.1085s-0.30217 0.17792-0.42 0.31675-0.20883 0.30917-0.273 0.511-0.09625 0.43225-0.09625 0.69125c0 0.26133 0.035583 0.4935 0.10675 0.6965s0.168 0.37392 0.2905 0.51275 0.26542 0.24442 0.42875 0.31675 0.33833 0.1085 0.525 0.1085c0.10733 0 0.20533-0.0052499 0.294-0.01575s0.1715-0.028 0.2485-0.0525 0.14933-0.057166 0.217-0.098c0.067667-0.040834 0.1365-0.09275 0.2065-0.15575 0.028-0.023333 0.058333-0.042583 0.091-0.05775s0.0665-0.02275 0.1015-0.02275zm5.6024-3.78v5.0995h-1.19v-2.156h-2.072v2.156h-1.19v-5.0995h1.19v2.1315h2.072v-2.1315h1.19zm5.4193 1.036c-0.035 0.056-0.07175 0.098-0.11025 0.126s-0.088083 0.042-0.14875 0.042c-0.053667 0-0.11142-0.016916-0.17325-0.05075s-0.13183-0.07175-0.21-0.11375-0.16742-0.079916-0.26775-0.11375-0.21467-0.05075-0.343-0.05075c-0.22167 0-0.38675 0.04725-0.49525 0.14175s-0.16275 0.22225-0.16275 0.38325c0 0.10267 0.032666 0.18783 0.098 0.2555s0.15108 0.126 0.25725 0.175 0.2275 0.093916 0.364 0.13475 0.27592 0.086333 0.41825 0.1365 0.28175 0.10908 0.41825 0.17675 0.25783 0.154 0.364 0.259 0.19192 0.23275 0.25725 0.38325 0.098 0.33192 0.098 0.54425c0 0.23567-0.040833 0.45617-0.1225 0.6615s-0.20008 0.38442-0.35525 0.53725-0.3465 0.273-0.574 0.3605-0.48592 0.13125-0.77525 0.13125c-0.15867 0-0.32025-0.016333-0.48475-0.049s-0.32375-0.07875-0.47775-0.13825-0.29867-0.13008-0.434-0.21175-0.25317-0.17267-0.3535-0.273l0.35-0.553c0.028-0.039667 0.06475-0.072916 0.11025-0.09975s0.095083-0.04025 0.14875-0.04025c0.07 0 0.14058 0.022166 0.21175 0.0665s0.15167 0.093333 0.2415 0.147 0.19308 0.10267 0.30975 0.147 0.25433 0.0665 0.413 0.0665c0.21467 0 0.3815-0.04725 0.5005-0.14175s0.1785-0.24442 0.1785-0.44975c0-0.119-0.032666-0.21583-0.098-0.2905s-0.15108-0.1365-0.25725-0.1855-0.22692-0.092166-0.36225-0.1295-0.27417-0.07875-0.4165-0.12425-0.28117-0.1015-0.4165-0.168-0.25608-0.154-0.36225-0.2625-0.19192-0.24383-0.25725-0.406-0.098-0.36225-0.098-0.60025c0-0.19133 0.0385-0.378 0.1155-0.56s0.19017-0.34417 0.3395-0.4865 0.3325-0.25608 0.5495-0.34125 0.4655-0.12775 0.7455-0.12775c0.15633 0 0.30858 0.01225 0.45675 0.03675s0.28875 0.060666 0.42175 0.1085 0.25725 0.105 0.37275 0.1715 0.21875 0.14175 0.30975 0.22575l-0.294 0.5495zm2.8584 1.4665c0.308 0 0.52967-0.073499 0.665-0.2205s0.203-0.35233 0.203-0.616c0-0.11667-0.0175-0.22283-0.0525-0.3185s-0.088083-0.17792-0.15925-0.24675-0.161-0.12192-0.2695-0.15925-0.23742-0.056-0.38675-0.056h-0.616v1.617h0.616zm0-2.5025c0.35934 0 0.66792 0.042583 0.92575 0.12775s0.47017 0.20242 0.637 0.35175 0.28992 0.3255 0.36925 0.5285 0.119 0.42233 0.119 0.658c0 0.25433-0.040833 0.48767-0.1225 0.7s-0.2065 0.39433-0.3745 0.546-0.38092 0.27008-0.63875 0.35525-0.56291 0.12775-0.91525 0.12775h-0.616v1.7045h-1.183v-5.0995h1.799zm5.7249 4.1545v0.945h-3.073v-5.0995h1.183v4.1545h1.89zm1.7909 0.945h-1.19v-5.0995h1.19v5.0995zm4.6504-4.1615h-1.435v4.1615h-1.183v-4.1615h-1.435v-0.938h4.053v0.938z"/>
    <path d="m13.51 28.448c0 0.36867-0.063583 0.70875-0.19075 1.0202s-0.30625 0.581-0.53725 0.8085-0.50925 0.40483-0.83475 0.532-0.68658 0.19075-1.0832 0.19075h-1.981v-5.0995h1.981c0.39667 0 0.75775 0.064166 1.0832 0.1925s0.60375 0.30567 0.83475 0.532 0.41008 0.49525 0.53725 0.80675 0.19075 0.65041 0.19075 1.0168zm-1.211 0c0-0.252-0.032666-0.4795-0.098-0.6825s-0.15925-0.37508-0.28175-0.51625-0.27242-0.24967-0.44975-0.3255-0.37917-0.11375-0.6055-0.11375h-0.791v3.2795h0.791c0.22633 0 0.42817-0.037916 0.6055-0.11375s0.32725-0.18433 0.44975-0.3255 0.21642-0.31325 0.28175-0.51625 0.098-0.43167 0.098-0.686zm4.039 1.617c0.15867 0 0.30042-0.02625 0.42525-0.07875s0.23042-0.12775 0.31675-0.22575 0.15225-0.21758 0.19775-0.35875 0.06825-0.30158 0.06825-0.48125v-3.0205h1.183v3.0205c0 0.31267-0.05075 0.59967-0.15225 0.861s-0.24675 0.4865-0.43575 0.6755-0.41883 0.336-0.6895 0.441-0.57516 0.1575-0.9135 0.1575c-0.34067 0-0.64633-0.0525-0.917-0.1575s-0.5005-0.252-0.6895-0.441-0.33367-0.41417-0.434-0.6755-0.1505-0.54833-0.1505-0.861v-3.0205h1.183v3.017c0 0.17967 0.02275 0.34008 0.06825 0.48125s0.11142 0.26133 0.19775 0.3605 0.19192 0.175 0.31675 0.2275 0.26658 0.07875 0.42525 0.07875zm5.81-1.015-0.4725-1.3965c-0.035-0.088667-0.072333-0.19308-0.112-0.31325s-0.079333-0.25025-0.119-0.39025c-0.035 0.14233-0.072333 0.27417-0.112 0.3955s-0.077 0.22633-0.112 0.315l-0.469 1.3895h1.3965zm1.8795 1.9495h-0.917c-0.10267 0-0.1855-0.023916-0.2485-0.07175s-0.11083-0.10908-0.1435-0.18375l-0.301-0.889h-1.939l-0.301 0.889c-0.025667 0.065334-0.07175 0.12425-0.13825 0.17675s-0.14875 0.07875-0.24675 0.07875h-0.924l1.974-5.0995h1.211l1.974 5.0995zm3.4755-0.945v0.945h-3.073v-5.0995h1.183v4.1545h1.89z"/>
   </g>
  </g>
  <g transform="translate(0 99)">
   <use fill="#E3E3E3" fill-rule="evenodd" xlink:href="#path-7"/>
   <use fill="black" filter="url(#filter-8)" xlink:href="#path-7"/>
   <rect x=".5" y=".5" width="35" height="32" rx="5" stroke="#979797" stroke-linejoin="square"/>
   <path transform="translate(18 28.5) rotate(180) translate(-18 -28.5)" d="m5 25h26c2.2091 0 4 1.7909 4 4v3h-34v-3c0-2.2091 1.7909-4 4-4z" fill="#FF9A10"/>
   <g fill="#A2A5B8">
    <rect x="2" y="8" width="32" height="1"/>
    <rect x="2" y="16" width="32" height="1"/>
    <rect x="2" y="24" width="32" height="1"/>
   </g>
   <g fill="#252525" fill-rule="nonzero">
    <path d="m9.6922 2.9365c-0.035 0.056-0.07175 0.098-0.11025 0.126s-0.088083 0.042-0.14875 0.042c-0.053667 0-0.11142-0.016916-0.17325-0.05075s-0.13183-0.07175-0.21-0.11375-0.16742-0.079916-0.26775-0.11375c-0.10033-0.033834-0.21467-0.05075-0.343-0.05075-0.22167 0-0.38675 0.04725-0.49525 0.14175s-0.16275 0.22225-0.16275 0.38325c0 0.10267 0.032666 0.18783 0.098 0.2555 0.065334 0.067667 0.15108 0.126 0.25725 0.175s0.2275 0.093916 0.364 0.13475 0.27592 0.086333 0.41825 0.1365c0.14233 0.050167 0.28175 0.10908 0.41825 0.17675 0.1365 0.067667 0.25783 0.154 0.364 0.259 0.10617 0.105 0.19192 0.23275 0.25725 0.38325 0.065334 0.1505 0.098 0.33192 0.098 0.54425 0 0.23567-0.040833 0.45617-0.1225 0.6615-0.081667 0.20533-0.20008 0.38442-0.35525 0.53725s-0.3465 0.273-0.574 0.3605-0.48592 0.13125-0.77525 0.13125c-0.15867 0-0.32025-0.016333-0.48475-0.049s-0.32375-0.07875-0.47775-0.13825-0.29867-0.13008-0.434-0.21175-0.25317-0.17267-0.3535-0.273l0.35-0.553c0.028-0.039667 0.06475-0.072917 0.11025-0.09975s0.095083-0.04025 0.14875-0.04025c0.07 0 0.14058 0.022166 0.21175 0.0665s0.15167 0.093333 0.2415 0.147c0.089834 0.053667 0.19308 0.10267 0.30975 0.147s0.25433 0.0665 0.413 0.0665c0.21467 0 0.3815-0.04725 0.5005-0.14175s0.1785-0.24442 0.1785-0.44975c0-0.119-0.032666-0.21583-0.098-0.2905s-0.15108-0.1365-0.25725-0.1855-0.22692-0.092166-0.36225-0.1295-0.27417-0.07875-0.4165-0.12425-0.28117-0.1015-0.4165-0.168-0.25608-0.154-0.36225-0.2625-0.19192-0.24383-0.25725-0.406-0.098-0.36225-0.098-0.60025c0-0.19133 0.0385-0.378 0.1155-0.56 0.077-0.182 0.19017-0.34417 0.3395-0.4865s0.3325-0.25608 0.5495-0.34125 0.4655-0.12775 0.7455-0.12775c0.15633 0 0.30858 0.01225 0.45675 0.03675s0.28875 0.060666 0.42175 0.1085 0.25725 0.105 0.37275 0.1715 0.21875 0.14175 0.30975 0.22575l-0.294 0.5495zm2.2505 4.0635h-1.19v-5.0995h1.19v5.0995zm5.439-5.0995v5.0995h-0.616c-0.091 0-0.16742-0.014583-0.22925-0.04375s-0.12308-0.079916-0.18375-0.15225l-2.4045-3.0415c0.0093334 0.091 0.01575 0.17908 0.01925 0.26425s0.00525 0.16508 0.00525 0.23975v2.7335h-1.043v-5.0995h0.623c0.051334 0 0.0945 0.0023333 0.1295 7e-3s0.0665 0.013417 0.0945 0.02625 0.054833 0.030917 0.0805 0.05425 0.054833 0.054833 0.0875 0.0945l2.4255 3.0625c-0.011667-0.098-0.019833-0.19308-0.0245-0.28525s-7e-3 -0.17908-7e-3 -0.26075v-2.6985h1.043zm3.437 2.457h1.813v2.1525c-0.26133 0.19133-0.53958 0.33017-0.83475 0.4165-0.29517 0.086334-0.60375 0.1295-0.92575 0.1295-0.42 0-0.80208-0.065916-1.1462-0.19775s-0.63875-0.31383-0.88375-0.546-0.434-0.5075-0.567-0.826-0.1995-0.66441-0.1995-1.0378c0-0.38034 0.062999-0.72975 0.189-1.0482s0.30625-0.59325 0.54075-0.82425c0.2345-0.231 0.518-0.41067 0.8505-0.539s0.70408-0.1925 1.1148-0.1925c0.21233 0 0.41183 0.0175 0.5985 0.0525 0.18667 0.035 0.35875 0.082833 0.51625 0.1435s0.30158 0.133 0.43225 0.217 0.24733 0.175 0.35 0.273l-0.343 0.5215c-0.053667 0.081667-0.12308 0.13183-0.20825 0.1505s-0.17675-0.002333-0.27475-0.063c-0.093334-0.056-0.18142-0.10442-0.26425-0.14525s-0.16742-0.074083-0.25375-0.09975-0.17733-0.044333-0.273-0.056-0.203-0.0175-0.322-0.0175c-0.22167 0-0.42117 0.039083-0.5985 0.11725s-0.32842 0.18842-0.45325 0.33075-0.22108 0.31325-0.28875 0.51275-0.1015 0.42175-0.1015 0.66675c0 0.27067 0.037333 0.511 0.112 0.721s0.18025 0.38733 0.31675 0.532 0.29983 0.25492 0.49 0.33075 0.40075 0.11375 0.63175 0.11375c0.14233 0 0.27125-0.014 0.38675-0.042s0.22808-0.065333 0.33775-0.112v-0.7735h-0.504c-0.074667 0-0.133-0.019833-0.175-0.0595-0.042-0.039667-0.063-0.089833-0.063-0.1505v-0.651zm5.6805 1.6975v0.945h-3.073v-5.0995h1.183v4.1545h1.89zm1.792-3.2445v1.19h1.603v0.875h-1.603v1.2145h2.093v0.91h-3.283v-5.0995h3.283v0.91h-2.093z"/>
    <path d="m2.6765 11.966h0.189c0.175 0 0.301-0.054833 0.378-0.1645l1.148-1.666c0.067667-0.088667 0.14058-0.14992 0.21875-0.18375s0.17558-0.05075 0.29225-0.05075h1.029l-1.512 2.0615c-0.10733 0.14233-0.22283 0.245-0.3465 0.308 0.088667 0.032667 0.16917 0.078166 0.2415 0.1365 0.072334 0.058334 0.14 0.13417 0.203 0.2275l1.54 2.366h-1.057c-0.067667 0-0.12542-0.0046666-0.17325-0.014s-0.08925-0.023333-0.12425-0.042c-0.035-0.018667-0.065333-0.041416-0.091-0.06825s-0.050167-0.05775-0.0735-0.09275l-1.155-1.7745c-0.042-0.065334-0.095083-0.11142-0.15925-0.13825s-0.15108-0.04025-0.26075-0.04025h-0.287v2.17h-1.183v-5.0995h1.183v2.065zm4.9514-1.155v1.19h1.603v0.875h-1.603v1.2145h2.093v0.91h-3.283v-5.0995h3.283v0.91h-2.093zm5.2629 2.2505v1.939h-1.183v-1.939l-1.848-3.1605h1.043c0.10267 0 0.18375 0.023916 0.24325 0.07175 0.0595 0.047834 0.10908 0.10908 0.14875 0.18375l0.721 1.484c0.060667 0.11667 0.1155 0.22575 0.1645 0.32725s0.092166 0.20125 0.1295 0.29925c0.035-0.10033 0.07525-0.20125 0.12075-0.30275s0.098583-0.20942 0.15925-0.32375l0.714-1.484c0.016333-0.030334 0.036167-0.060666 0.0595-0.091 0.023334-0.030334 0.05075-0.05775 0.08225-0.08225 0.0315-0.0245 0.067666-0.044333 0.1085-0.0595s0.08575-0.02275 0.13475-0.02275h1.05l-1.848 3.1605zm6.3818-2.1245c-0.035 0.056-0.07175 0.098-0.11025 0.126s-0.088083 0.042-0.14875 0.042c-0.053667 0-0.11142-0.016916-0.17325-0.05075s-0.13183-0.07175-0.21-0.11375-0.16742-0.079916-0.26775-0.11375-0.21467-0.05075-0.343-0.05075c-0.22167 0-0.38675 0.04725-0.49525 0.14175s-0.16275 0.22225-0.16275 0.38325c0 0.10267 0.032666 0.18783 0.098 0.2555s0.15108 0.126 0.25725 0.175 0.2275 0.093916 0.364 0.13475 0.27592 0.086333 0.41825 0.1365 0.28175 0.10908 0.41825 0.17675 0.25783 0.154 0.364 0.259 0.19192 0.23275 0.25725 0.38325 0.098 0.33192 0.098 0.54425c0 0.23567-0.040833 0.45617-0.1225 0.6615s-0.20008 0.38442-0.35525 0.53725-0.3465 0.273-0.574 0.3605-0.48592 0.13125-0.77525 0.13125c-0.15867 0-0.32025-0.016333-0.48475-0.049s-0.32375-0.07875-0.47775-0.13825-0.29867-0.13008-0.434-0.21175-0.25317-0.17267-0.3535-0.273l0.35-0.553c0.028-0.039667 0.06475-0.072916 0.11025-0.09975s0.095083-0.04025 0.14875-0.04025c0.07 0 0.14058 0.022166 0.21175 0.0665s0.15167 0.093333 0.2415 0.147 0.19308 0.10267 0.30975 0.147c0.11667 0.044334 0.25433 0.0665 0.413 0.0665 0.21467 0 0.3815-0.04725 0.5005-0.14175s0.1785-0.24442 0.1785-0.44975c0-0.119-0.032666-0.21583-0.098-0.2905s-0.15108-0.1365-0.25725-0.1855-0.22692-0.092166-0.36225-0.1295-0.27417-0.07875-0.4165-0.12425-0.28117-0.1015-0.4165-0.168-0.25608-0.154-0.36225-0.2625-0.19192-0.24383-0.25725-0.406-0.098-0.36225-0.098-0.60025c0-0.19133 0.0385-0.378 0.1155-0.56s0.19017-0.34417 0.3395-0.4865 0.3325-0.25608 0.5495-0.34125c0.217-0.085167 0.4655-0.12775 0.7455-0.12775 0.15633 0 0.30858 0.01225 0.45675 0.03675s0.28875 0.060666 0.42175 0.1085c0.133 0.047834 0.25725 0.105 0.37275 0.1715s0.21875 0.14175 0.30975 0.22575l-0.294 0.5495zm2.8584 1.4665c0.308 0 0.52967-0.073499 0.665-0.2205s0.203-0.35233 0.203-0.616c0-0.11667-0.0175-0.22283-0.0525-0.3185s-0.088083-0.17792-0.15925-0.24675-0.161-0.12192-0.2695-0.15925-0.23742-0.056-0.38675-0.056h-0.616v1.617h0.616zm0-2.5025c0.35934 0 0.66792 0.042583 0.92575 0.12775 0.25783 0.085167 0.47017 0.20242 0.637 0.35175s0.28992 0.3255 0.36925 0.5285 0.119 0.42233 0.119 0.658c0 0.25433-0.040833 0.48767-0.1225 0.7s-0.2065 0.39433-0.3745 0.546-0.38092 0.27008-0.63875 0.35525-0.56291 0.12775-0.91525 0.12775h-0.616v1.7045h-1.183v-5.0995h1.799zm5.7249 4.1545v0.945h-3.073v-5.0995h1.183v4.1545h1.89zm1.7909 0.945h-1.19v-5.0995h1.19v5.0995zm4.6504-4.1615h-1.435v4.1615h-1.183v-4.1615h-1.435v-0.938h4.053v0.938z"/>
    <path d="m6.9305 21.68c0.028 0 0.056 0.0052499 0.084 0.01575s0.054833 0.028583 0.0805 0.05425l0.469 0.4935c-0.20533 0.26833-0.46258 0.47075-0.77175 0.60725s-0.67491 0.20475-1.0972 0.20475c-0.38734 0-0.73442-0.065916-1.0412-0.19775s-0.567-0.31383-0.7805-0.546-0.37742-0.5075-0.49175-0.826-0.1715-0.66441-0.1715-1.0378c0-0.38034 0.061833-0.72975 0.1855-1.0482 0.12367-0.3185 0.2975-0.59325 0.5215-0.82425s0.49233-0.41067 0.805-0.539 0.65683-0.1925 1.0325-0.1925c0.19133 0 0.37158 0.016916 0.54075 0.05075s0.32725 0.0805 0.47425 0.14c0.147 0.0595 0.28233 0.13125 0.406 0.21525 0.12367 0.084 0.23333 0.175 0.329 0.273l-0.399 0.5355c-0.025667 0.032667-0.056 0.062416-0.091 0.08925-0.035 0.026834-0.084 0.04025-0.147 0.04025-0.042 0-0.081666-0.0093332-0.119-0.028s-0.077-0.041416-0.119-0.06825-0.088083-0.056-0.13825-0.0875-0.10967-0.060666-0.1785-0.0875-0.14933-0.049583-0.2415-0.06825-0.20008-0.028-0.32375-0.028c-0.196 0-0.37508 0.036166-0.53725 0.1085s-0.30217 0.17792-0.42 0.31675-0.20883 0.30917-0.273 0.511-0.09625 0.43225-0.09625 0.69125c0 0.26133 0.035583 0.4935 0.10675 0.6965s0.168 0.37392 0.2905 0.51275 0.26542 0.24442 0.42875 0.31675 0.33833 0.1085 0.525 0.1085c0.10733 0 0.20533-0.0052499 0.294-0.01575s0.1715-0.028 0.2485-0.0525 0.14933-0.057166 0.217-0.098c0.067667-0.040834 0.1365-0.09275 0.2065-0.15575 0.028-0.023333 0.058333-0.042583 0.091-0.05775s0.0665-0.02275 0.1015-0.02275zm5.6024-3.78v5.0995h-1.19v-2.156h-2.072v2.156h-1.19v-5.0995h1.19v2.1315h2.072v-2.1315h1.19zm5.4193 1.036c-0.035 0.056-0.07175 0.098-0.11025 0.126s-0.088083 0.042-0.14875 0.042c-0.053667 0-0.11142-0.016916-0.17325-0.05075s-0.13183-0.07175-0.21-0.11375-0.16742-0.079916-0.26775-0.11375-0.21467-0.05075-0.343-0.05075c-0.22167 0-0.38675 0.04725-0.49525 0.14175s-0.16275 0.22225-0.16275 0.38325c0 0.10267 0.032666 0.18783 0.098 0.2555s0.15108 0.126 0.25725 0.175 0.2275 0.093916 0.364 0.13475 0.27592 0.086333 0.41825 0.1365 0.28175 0.10908 0.41825 0.17675 0.25783 0.154 0.364 0.259 0.19192 0.23275 0.25725 0.38325 0.098 0.33192 0.098 0.54425c0 0.23567-0.040833 0.45617-0.1225 0.6615s-0.20008 0.38442-0.35525 0.53725-0.3465 0.273-0.574 0.3605-0.48592 0.13125-0.77525 0.13125c-0.15867 0-0.32025-0.016333-0.48475-0.049s-0.32375-0.07875-0.47775-0.13825-0.29867-0.13008-0.434-0.21175-0.25317-0.17267-0.3535-0.273l0.35-0.553c0.028-0.039667 0.06475-0.072916 0.11025-0.09975s0.095083-0.04025 0.14875-0.04025c0.07 0 0.14058 0.022166 0.21175 0.0665s0.15167 0.093333 0.2415 0.147 0.19308 0.10267 0.30975 0.147 0.25433 0.0665 0.413 0.0665c0.21467 0 0.3815-0.04725 0.5005-0.14175s0.1785-0.24442 0.1785-0.44975c0-0.119-0.032666-0.21583-0.098-0.2905s-0.15108-0.1365-0.25725-0.1855-0.22692-0.092166-0.36225-0.1295-0.27417-0.07875-0.4165-0.12425-0.28117-0.1015-0.4165-0.168-0.25608-0.154-0.36225-0.2625-0.19192-0.24383-0.25725-0.406-0.098-0.36225-0.098-0.60025c0-0.19133 0.0385-0.378 0.1155-0.56s0.19017-0.34417 0.3395-0.4865 0.3325-0.25608 0.5495-0.34125 0.4655-0.12775 0.7455-0.12775c0.15633 0 0.30858 0.01225 0.45675 0.03675s0.28875 0.060666 0.42175 0.1085 0.25725 0.105 0.37275 0.1715 0.21875 0.14175 0.30975 0.22575l-0.294 0.5495zm2.8584 1.4665c0.308 0 0.52967-0.073499 0.665-0.2205s0.203-0.35233 0.203-0.616c0-0.11667-0.0175-0.22283-0.0525-0.3185s-0.088083-0.17792-0.15925-0.24675-0.161-0.12192-0.2695-0.15925-0.23742-0.056-0.38675-0.056h-0.616v1.617h0.616zm0-2.5025c0.35934 0 0.66792 0.042583 0.92575 0.12775s0.47017 0.20242 0.637 0.35175 0.28992 0.3255 0.36925 0.5285 0.119 0.42233 0.119 0.658c0 0.25433-0.040833 0.48767-0.1225 0.7s-0.2065 0.39433-0.3745 0.546-0.38092 0.27008-0.63875 0.35525-0.56291 0.12775-0.91525 0.12775h-0.616v1.7045h-1.183v-5.0995h1.799zm5.7249 4.1545v0.945h-3.073v-5.0995h1.183v4.1545h1.89zm1.7909 0.945h-1.19v-5.0995h1.19v5.0995zm4.6504-4.1615h-1.435v4.1615h-1.183v-4.1615h-1.435v-0.938h4.053v0.938z"/>
    <path d="m13.51 28.448c0 0.36867-0.063583 0.70875-0.19075 1.0202s-0.30625 0.581-0.53725 0.8085-0.50925 0.40483-0.83475 0.532-0.68658 0.19075-1.0832 0.19075h-1.981v-5.0995h1.981c0.39667 0 0.75775 0.064166 1.0832 0.1925s0.60375 0.30567 0.83475 0.532 0.41008 0.49525 0.53725 0.80675 0.19075 0.65041 0.19075 1.0168zm-1.211 0c0-0.252-0.032666-0.4795-0.098-0.6825s-0.15925-0.37508-0.28175-0.51625-0.27242-0.24967-0.44975-0.3255-0.37917-0.11375-0.6055-0.11375h-0.791v3.2795h0.791c0.22633 0 0.42817-0.037916 0.6055-0.11375s0.32725-0.18433 0.44975-0.3255 0.21642-0.31325 0.28175-0.51625 0.098-0.43167 0.098-0.686zm4.039 1.617c0.15867 0 0.30042-0.02625 0.42525-0.07875s0.23042-0.12775 0.31675-0.22575 0.15225-0.21758 0.19775-0.35875 0.06825-0.30158 0.06825-0.48125v-3.0205h1.183v3.0205c0 0.31267-0.05075 0.59967-0.15225 0.861s-0.24675 0.4865-0.43575 0.6755-0.41883 0.336-0.6895 0.441-0.57516 0.1575-0.9135 0.1575c-0.34067 0-0.64633-0.0525-0.917-0.1575s-0.5005-0.252-0.6895-0.441-0.33367-0.41417-0.434-0.6755-0.1505-0.54833-0.1505-0.861v-3.0205h1.183v3.017c0 0.17967 0.02275 0.34008 0.06825 0.48125s0.11142 0.26133 0.19775 0.3605 0.19192 0.175 0.31675 0.2275 0.26658 0.07875 0.42525 0.07875zm5.81-1.015-0.4725-1.3965c-0.035-0.088667-0.072333-0.19308-0.112-0.31325s-0.079333-0.25025-0.119-0.39025c-0.035 0.14233-0.072333 0.27417-0.112 0.3955s-0.077 0.22633-0.112 0.315l-0.469 1.3895h1.3965zm1.8795 1.9495h-0.917c-0.10267 0-0.1855-0.023916-0.2485-0.07175s-0.11083-0.10908-0.1435-0.18375l-0.301-0.889h-1.939l-0.301 0.889c-0.025667 0.065334-0.07175 0.12425-0.13825 0.17675s-0.14875 0.07875-0.24675 0.07875h-0.924l1.974-5.0995h1.211l1.974 5.0995zm3.4755-0.945v0.945h-3.073v-5.0995h1.183v4.1545h1.89z"/>
   </g>
  </g>
 </g>
 <g fill="#e3e3e3">
  <path d="m4.6811 31.902c-1.6423-0.29855-2.9652-1.5009-3.4891-3.1711l-0.1364-0.43488-0.013168-10.147-0.013168-10.147h0.94093v0.98875h32.036v-0.98875h0.99083l-0.01449 10.073-0.01449 10.073-0.1102 0.41122c-0.4361 1.6273-1.6211 2.8249-3.2494 3.284l-0.3955 0.1115-13.076 0.0082c-10.991 0.0069-13.137-0.0027-13.455-0.06065zm12.071-0.85819c0.90914-0.15002 1.553-0.73748 1.7342-1.5824l0.05379-0.25083h0.49028c0.26965 0 0.49028 0.0105 0.49028 0.02334s-0.1446 0.39589-0.32134 0.85122c-0.17674 0.45533-0.32134 0.85836-0.32134 0.89562 0 0.05428 0.1079 0.06442 0.54256 0.05102 0.66697-0.02057 0.70273-0.04769 0.92001-0.69766l0.15248-0.45613h1.9114l0.15248 0.45613c0.21727 0.64998 0.25303 0.6771 0.92001 0.69766 0.43089 0.01329 0.54256 3e-3 0.54256-0.05003 0-0.03672-0.13044-0.4002-0.28986-0.80774-0.15942-0.40753-0.30553-0.79102-0.32468-0.8522-0.0346-0.11053-0.03152-0.11123 0.48761-0.11123h0.52243v1.8292h3.1146v-0.98875h-1.8786v-0.82725l1.5696-0.02894c0.8633-0.01591 1.7587-0.05261 1.9899-0.08154 1.1588-0.14506 2.1086-0.81035 2.4716-1.7312 0.0548-0.13903 0.14131-0.33512 0.19223-0.43574 0.06508-0.12858 0.11642-0.42815 0.17279-1.008 0.04411-0.4538 0.0802-0.84868 0.0802-0.87752 0-0.0351 0.31044-0.05242 0.93931-0.05242h0.93931v-1.0382h-1.8786v-5.0882l0.86516-0.02856 0.0283-0.96403h-0.89346v-0.83527l-0.25955-0.01816c-0.14275-0.01 0.27994-0.02227 0.93931-0.0273l1.1989-0.0091v-0.9888h-32.036v0.98875l1.1989 0.0091c0.65937 5e-3 1.0821 0.01732 0.93931 0.0273l-0.25955 0.01816v0.77881c0 0.76012-0.00306 0.7829-0.1275 0.94909-0.34698 0.46339-0.51373 1.0081-0.51373 1.6781 0 0.66475 0.18333 1.2624 0.52465 1.7103 0.11168 0.14655 0.11658 0.18756 0.11658 0.9753v0.82232l-1.8539 0.0269-0.028178 1.0135h1.8612l0.085636 0.90224c0.080704 0.85027 0.095939 0.92359 0.2645 1.273 0.2821 0.5848 0.65165 1.1306 0.82604 1.22 0.085122 0.04363 0.24673 0.14223 0.35913 0.21911 0.52781 0.36101 1.2411 0.51102 2.7202 0.57206l0.75634 0.03121 0.013444 0.89454 0.013445 0.89454 1.2112-0.0018c0.77864-0.0011 1.3066-0.02361 1.4784-0.06291 0.74438-0.17033 1.3608-0.65252 1.6941-1.3253l0.20538-0.41447h0.33704c0.3275 0 0.33788 0.0038 0.36682 0.13595 0.20376 0.93016 0.73529 1.4758 1.6266 1.6699 0.36386 0.07922 0.60926 0.08617 0.96567 0.02736zm15.375-15.552v-0.46966h0.74156v-4.1528h1.4337v-0.98875h-2.1753v-0.84044h-28.282l0.00603 0.91459 0.00603 0.91459-0.33067 0.48882c-0.32806 0.48498-0.45987 0.59881-0.69333 0.59881h-0.12127v-2.0764h-1.2359v5.1415h1.2359v-2.1753h0.2158c0.28107 0 0.4066 0.1023 0.69673 0.56779l0.2317 0.37175-0.00528 1.0875-0.00528 1.0875h28.282z" stroke-width=".049438"/>
  <path d="m5.8511 31.928c-1.3482-0.033939-1.4553-0.049763-2.0843-0.30784-0.67029-0.27502-1.4385-0.88877-1.8713-1.495-0.26341-0.36901-0.57113-0.97883-0.72345-1.4337l-0.11589-0.34606-0.01437-10.172-0.01437-10.172h0.9428v0.98875h32.036v-0.98875h0.99558l-0.03622 20.195-0.13586 0.44494c-0.48379 1.5844-1.6125 2.7138-3.1965 3.1984l-0.37078 0.11345-12.063 0.0032c-6.6345 0.001827-12.641-0.011277-13.348-0.029074zm11.003-0.90939c0.70582-0.14962 1.1655-0.49592 1.4666-1.1047l0.18618-0.37654 0.0303-3.6391h-1.1841l-0.01946 1.6685c-0.02004 1.718-0.03362 1.8401-0.23573 2.1206-0.28605 0.397-0.99284 0.4629-1.389 0.12951-0.32902-0.27685-0.33898-0.34205-0.34019-2.2254l-0.0011-1.6932h-1.2359v1.6705c0 1.8156 0.02264 2.0155 0.28242 2.4928 0.2515 0.46209 0.77078 0.82406 1.3689 0.95418 0.39575 0.0861 0.6751 0.08685 1.0712 0.0029zm-5.2452-0.0781c1.2727-0.31384 2.0934-1.5741 1.8886-2.9001-0.15792-1.0226-0.86788-1.8069-1.8726-2.0685-0.21426-0.05581-0.58512-0.07362-1.5329-0.07362h-1.2503v2.5378c0 1.3958 0.016685 2.5553 0.037078 2.5767 0.053689 0.05629 2.4679-0.0075 2.73-0.07218zm8.4815-0.06111c0.06325-0.07353 0.17677-0.32338 0.25227-0.55521l0.13727-0.42152h1.9367l0.13727 0.42152c0.0755 0.23184 0.18902 0.48168 0.25227 0.55521 0.10989 0.12775 0.13939 0.13453 0.66392 0.15248 0.43195 0.01478 0.54892 0.0048 0.54892-0.04666 0-0.03599-0.43695-1.1953-0.971-2.5762l-0.971-2.5108h-1.2583l-0.35915 0.92695c-1.2847 3.3157-1.582 4.0971-1.582 4.1575 0 0.0547 0.10708 0.06429 0.54892 0.04917 0.52453-0.01795 0.55403-0.02473 0.66392-0.15248zm7.4387-0.33404v-0.49437h-1.8786v-4.1528h-1.2359v5.1415h3.1146zm6.4763-6.0562v-0.51916l-32.011 0.02486-0.028178 1.0135h32.039zm-27.679-1.4801c0.1803-0.03822 0.4425-0.1276 0.58267-0.19862 0.28052-0.14215 0.64679-0.44944 0.64679-0.54263 0-0.09109-0.51254-0.62123-0.60061-0.62123-0.042747 0-0.16425 0.05892-0.27001 0.13093-0.30922 0.21055-0.48793 0.26464-0.87047 0.26349-0.44622-0.0013-0.68124-0.10085-0.963-0.40772-0.5463-0.595-0.53468-1.8849 0.021778-2.4181 0.29021-0.27805 0.48304-0.35597 0.88509-0.35764 0.31303-0.0013 0.3957 0.02005 0.72503 0.18721 0.24116 0.12241 0.40633 0.17769 0.47026 0.1574 0.11125-0.03531 0.51317-0.54392 0.52201-0.66058 0.0086-0.11349-0.42208-0.41935-0.77319-0.5491-0.38627-0.14275-1.1536-0.19437-1.5616-0.10505-0.92107 0.20166-1.6423 0.91362-1.8597 1.8357-0.09495 0.40281-0.095717 1.0679-0.00169 1.4667 0.3224 1.3674 1.5945 2.1271 3.0466 1.8193zm11.034-0.11568c0.42784-0.2009 0.59892-0.36245 0.78581-0.74209 0.14719-0.29898 0.16223-0.37106 0.16191-0.77559-6.58e-4 -0.82516-0.26936-1.1003-1.4758-1.5111-0.61292-0.2087-0.79914-0.36286-0.75641-0.62618 0.0377-0.23229 0.16331-0.35582 0.42063-0.41363 0.25064-0.05631 0.56843 0.0073 0.88919 0.17809 0.39292 0.20916 0.46589 0.17585 0.73864-0.33719l0.15232-0.28652-0.19941-0.14446c-0.38902-0.28181-0.69457-0.36498-1.3508-0.36769-0.5534-0.0023-0.61417 0.0072-0.90473 0.14137-0.72282 0.33376-1.0635 1.1007-0.8315 1.8717 0.15221 0.50574 0.45593 0.73995 1.3028 1.0046 0.79958 0.2499 1.0063 0.46862 0.8335 0.88209-0.16362 0.3916-0.68787 0.42597-1.3588 0.08909-0.52174-0.26198-0.57794-0.24602-0.87906 0.24968l-0.1812 0.29828 0.14432 0.11737c0.20555 0.16717 0.70217 0.39804 1.041 0.48395 0.45523 0.11542 1.0859 0.06736 1.4675-0.11182zm-8.0743-0.95018v-1.0876h2.0269v2.1753h1.2359v-5.1415h-1.2359v2.1258h-2.0269v-2.1258h-1.2359v5.1415h1.2359zm10.926 0.22247v-0.86516h0.53343c0.87879 0 1.4517-0.21304 1.7995-0.66919 0.48952-0.64194 0.42197-1.7538-0.13633-2.2439-0.47639-0.41828-0.84181-0.49806-2.2812-0.49806h-1.1514v5.1415h1.2359zm6.328 0.37078v-0.49438h-1.8786v-4.1528h-1.2359v5.1415h3.1146zm1.8173-2.0887 0.01281-2.5584h-1.2368v5.1445l1.2112-0.02776zm3.2254 0.50809v-2.075l1.409-0.02744 0.0283-0.96403h-4.1069v0.98875h1.4337v4.1528h1.2359zm2.4224-4.4507v-0.49438h-32.036v0.98875h32.036zm-15.51-1.5371c0.75447-0.25416 1.1481-0.81306 1.1457-1.6269-9.25e-4 -0.31397-0.02287-0.41058-0.14322-0.63054-0.21318-0.38963-0.45813-0.55362-1.1664-0.78085-0.72979-0.23415-0.9373-0.37864-0.9373-0.65269 0-0.12001 0.04142-0.20963 0.14451-0.31273 0.12928-0.12928 0.17748-0.14451 0.4573-0.14447 0.24484 3.1e-5 0.38087 0.03225 0.62621 0.14831 0.39165 0.18528 0.51723 0.18769 0.64079 0.01232 0.1625-0.23064 0.3146-0.56249 0.28872-0.62993-0.03845-0.10021-0.69181-0.40696-1.0055-0.47208-0.71508-0.14845-1.4971 0.04721-1.8893 0.47272-0.29854 0.32388-0.36578 0.49047-0.38969 0.96557-0.04352 0.86444 0.30332 1.261 1.3839 1.5821 0.67845 0.20164 0.83065 0.32343 0.83065 0.66471 0 0.35508-0.20926 0.51909-0.66229 0.51909-0.22034 0-0.34394-0.03738-0.65384-0.19775-0.51163-0.26476-0.61492-0.26015-0.83156 0.03708-0.28482 0.39079-0.30385 0.44208-0.20464 0.55169 0.13337 0.14738 0.72768 0.44154 1.0494 0.51942 0.4392 0.10632 0.95555 0.09646 1.3165-0.02515zm-15.784-1.0336v-1.0876h0.201c0.11055 0 0.24556 0.02385 0.30002 0.05299 0.054462 0.02915 0.39487 0.50409 0.75647 1.0554 0.47393 0.72262 0.69033 1.0112 0.77524 1.034 0.13318 0.03564 1.329 0.04504 1.329 0.01045 0-0.02114-0.50265-0.79899-1.312-2.0304-0.19702-0.29974-0.41669-0.57627-0.48817-0.61452l-0.12996-0.069551 0.14686-0.15175c0.17552-0.18136 1.6329-2.1609 1.6341-2.2196 4.45e-4 -0.0225-0.29776-0.033623-0.66273-0.024719-0.60982 0.014878-0.67323 0.025273-0.78277 0.12831-0.065556 0.06167-0.36205 0.47025-0.65888 0.90796-0.58591 0.864-0.74246 1.0316-0.9637 1.0316h-0.14452v-2.0764h-1.2359v5.1415h1.2359zm7.0201 0.61797v-0.46966h-2.0764v-1.1865h1.582v-0.93931h-1.582v-1.1371h2.0764v-0.93931h-3.3123v5.1415h3.3123zm3.164-0.49218v-0.96184l1.8679-3.1931-0.59866-0.013967c-0.51889-0.012106-0.61496-0.0018-0.72101 0.077385-0.07733 0.057738-0.30531 0.47626-0.61955 1.1374-0.27346 0.57532-0.50832 1.0457-0.52192 1.0452-0.01359-4.35e-4 -0.23606-0.44667-0.49438-0.99163-0.25831-0.54496-0.52864-1.0557-0.60073-1.135l-0.13107-0.14415h-0.62459c-0.57983 0-0.62122 0.0062-0.57751 0.086516 0.025893 0.047584 0.44937 0.77548 0.94105 1.6175l0.89397 1.531v1.9064h1.1865zm8.6516 0.13136v-0.83048l0.65505-0.05516c0.36028-0.03034 0.73322-0.07891 0.82876-0.10794 0.32899-0.09996 0.71043-0.36798 0.87617-0.61565 0.2144-0.32039 0.28189-0.57284 0.27977-1.0465-0.0033-0.74404-0.3663-1.2501-1.0872-1.5157-0.26417-0.097348-0.41057-0.10951-1.5402-0.12793l-1.2483-0.020356v5.1502h1.2359zm6.328 0.3361v-0.49438h-1.8786v-4.1528h-1.2359v5.1415h3.1146zm1.7798-2.0764v-2.5708h-1.2359v5.1415h1.2359zm3.2134 0.49438v-2.0764h1.4337v-0.98875h-4.1069l0.0283 0.96403 1.409 0.02744v4.15h1.2359z" stroke-width=".049438"/>
  <g stroke-width=".069915">
   <path d="m1.035 39.825c0.02575-2.1269 0.028057-2.1557 0.21599-2.6937 0.40374-1.1559 1.2573-2.1297 2.3029-2.6274 1.0475-0.49854-0.014959-0.4644 14.457-0.4644 12.276 0 13.138 0.0078 13.564 0.12262 1.0897 0.29401 2.0157 0.95987 2.6464 1.9029 0.65112 0.9735 0.77805 1.666 0.77888 4.2494l5.31e-4 1.6605h-0.97881v-0.97881h-2.3072v-0.21624c0-0.40044-0.28768-1.6322-0.46371-1.9854-0.20946-0.42029-0.73045-0.97444-1.0919-1.1614-0.23633-0.12223-0.26218-0.16304-0.26218-0.41384v-0.27824h-1.6081v-1.1186h2.0975v-0.97881h-3.286v2.3771h-2.447v-2.3771h-1.2585v2.3771h-2.0275c-2.3167 0-2.1804 0.04711-1.8353-0.63418 0.36762-0.72578 1.1895-0.9291 2.1014-0.51986 0.23542 0.10565 0.47337 0.1747 0.52878 0.15343 0.05541-0.02126 0.20312-0.18746 0.32824-0.36932l0.2275-0.33066-0.16845-0.13871c-0.09265-0.07629-0.34149-0.22064-0.55298-0.32079-0.3478-0.16468-0.46469-0.18208-1.2235-0.18208-0.76237 0-0.87522 0.01699-1.2358 0.186-0.77336 0.36254-1.3266 1.0734-1.4316 1.8394l-0.04341 0.31673h-0.60534l-0.02266 0.71663c-0.01246 0.39415-0.02929-0.1407-0.0374-1.1886l-0.01474-1.9052h-1.0487v2.3771l-0.6642-2.1e-4 -0.90439-1.1487c-0.49741-0.6318-0.96934-1.1662-1.0487-1.1875-0.07939-0.02132-0.29379-0.0392-0.47644-0.03972l-0.3321-9.54e-4v2.3771h-0.90552l-0.03834-2.3422-1.2235-0.0404v2.3918l-0.68167-0.02735c-0.57383-0.023023-0.78468-0.06692-1.3328-0.27748-0.71782-0.27574-0.92195-0.41898-0.92195-0.64696 0-0.42143 0.64988-0.59078 1.1967-0.31184 0.42979 0.21926 0.62293 0.16453 0.83088-0.23545l0.17479-0.33619-0.19341-0.16833c-0.44057-0.38343-1.6183-0.50929-2.2187-0.2371-0.39333 0.17832-0.60372 0.37226-0.78286 0.72168-0.18731 0.36534-0.18821 0.99412-0.00197 1.3705l0.13805 0.27902-0.21845 0.0017c-0.31848 0.0024-0.94968 0.28268-1.4299 0.63491-0.32822 0.24072-0.45143 0.38524-0.56879 0.66717-0.15354 0.36886-0.41945 1.6978-0.42112 2.1046l-9.299e-4 0.22722h-2.3072v0.97881h-0.99095z"/>
   <path d="m4.6218 64.873c-0.93466-0.2102-1.6008-0.56866-2.2565-1.2142-0.50196-0.49422-0.85249-1.0597-1.1118-1.7935l-0.19742-0.55865-0.040016-12.27h0.98387v0.97881h2.3072v1.1857l-0.31462 0.29001c-0.18031 0.1662-0.41163 0.48702-0.54184 0.75148-0.21324 0.43307-0.22712 0.50673-0.22554 1.1971 0.00217 0.95023 0.16711 1.403 0.70822 1.9441l0.37378 0.37378v1.1794h27.407v-2.5111c0-1.9435-0.01975-2.5191-0.08739-2.5464-0.04807-0.0194 0.23509-0.03775 0.62924-0.04078l0.71663-0.0055v-0.97881h-1.2585v-0.83898h2.3072v-0.97881h0.98592l-0.02395 6.0651c-0.02667 6.7532 0.0011 6.3562-0.51951 7.4285-0.47856 0.98566-1.5601 1.8837-2.7497 2.283-0.3679 0.12348-0.95322 0.12961-13.529 0.14162-10.812 0.010325-13.218-0.004181-13.564-0.08179zm12.545-0.92133c0.73568-0.2376 1.28-0.94542 1.3754-1.7886l0.04549-0.40201h0.55029c0.30266 0 0.55029 0.01264 0.55029 0.02809 0 0.02138-0.52 1.3682-0.81924 2.1218-0.02614 0.06582 0.11343 0.08739 0.56545 0.08739 0.68989 0 0.70666-0.013 0.92414-0.71663l0.12426-0.40201h1.9207l0.15484 0.47193c0.08516 0.25956 0.18596 0.51126 0.22401 0.55932 0.07353 0.09291 1.2406 0.12948 1.2406 0.03888 0-0.04213-0.18797-0.5361-0.70654-1.8567l-0.13041-0.3321h1.1865v2.2373h3.1462v-0.97881h-1.8877v-1.2468l1.5556-0.03558c0.85559-0.01957 1.763-0.0648 2.0165-0.10052 0.94471-0.1331 1.6909-0.64337 2.0297-1.3881 0.18809-0.41336 0.48076-1.638 0.48076-2.0117v-0.18129h-27.407l9.299e-4 0.19227c0.00183 0.3784 0.27409 1.7165 0.42112 2.0697 0.11632 0.27943 0.24068 0.42652 0.55631 0.65798 0.76461 0.56071 1.1742 0.67275 2.7796 0.76029l0.78655 0.04289v2.2197h1.2807c1.4368 0 1.7712-0.06287 2.3281-0.43762 0.53354-0.35904 0.88716-0.90716 1.037-1.6074 0.03627-0.16949 0.07315-0.19227 0.31141-0.19227h0.27027l0.04896 0.40201c0.11282 0.92634 0.64543 1.5773 1.5053 1.8398 0.31864 0.09728 1.1609 0.06913 1.5336-0.05125zm16.854-6.4554v-0.48941h-32.021v0.97881h32.021z"/>
   <path d="m5.8103 64.909c-0.73061-0.027547-1.4542-0.089583-1.6081-0.13786-1.3179-0.41363-2.4445-1.5408-2.9896-2.9912-0.15083-0.4013-0.1519-0.44162-0.17561-6.5738l-0.023851-6.17h0.98677v0.97881h32.021v-0.97881h0.98148l-0.01268 4.9465c-0.01602 6.2484-0.05132 7.2979-0.26723 7.9461-0.43708 1.3121-1.89 2.6416-3.1836 2.9131-0.4109 0.08625-23.616 0.14684-25.729 0.06718zm11.612-1.0686c0.41423-0.21313 0.75733-0.57841 0.96513-1.0275 0.13538-0.2926 0.14904-0.46289 0.16992-2.1185l0.0227-1.8003h-1.2689l-0.0015 1.6605c-0.0014 1.4799-0.01598 1.6923-0.13434 1.953-0.30127 0.66357-1.2696 0.70165-1.655 0.06508-0.11798-0.19482-0.13417-0.39999-0.15378-1.9482l-0.02191-1.7304h-1.2496v1.5697c0 1.5495 0.05767 2.1164 0.25451 2.502 0.23693 0.46408 0.72054 0.85614 1.2836 1.0406 0.09613 0.0315 0.45794 0.04825 0.80402 0.03722 0.51653-0.01646 0.69298-0.05285 0.98511-0.20316zm-5.2686-0.10762c0.53342-0.26275 0.89174-0.63338 1.1631-1.2031 0.15978-0.33542 0.18318-0.47384 0.18318-1.0837 0-0.60875-0.02378-0.74996-0.18386-1.0921-0.25834-0.55208-0.62834-0.93161-1.1669-1.197l-0.46256-0.2279-2.8353-0.04526v5.1266l2.835-0.04738zm7.8848 0.19484c0.07742-0.04143 0.19597-0.271 0.28883-0.55932l0.15751-0.48904h1.9187l0.15158 0.45551c0.21024 0.63176 0.25346 0.66314 0.91354 0.66314 0.30488 0 0.55367-0.0236 0.55287-0.05244s-0.43369-1.1693-0.96196-2.5344l-0.9605-2.482h-1.3037l-0.97305 2.5168c-0.53518 1.3842-0.97305 2.5247-0.97305 2.5344 0 0.05399 1.0793 0.0062 1.1892-0.05267zm7.4802-0.41913v-0.48941h-1.8877v-4.125h-1.2585v5.1038h3.1462zm6.5021-6.0127v-0.48941h-32.021v0.97881h32.021zm-27.756-1.4683c0.45994-0.08723 0.91495-0.31061 1.1656-0.57225l0.19189-0.20029-0.32574-0.32574c-0.35808-0.35808-0.27472-0.35662-0.89239-0.01573-0.29477 0.16268-0.75039 0.17416-1.1009 0.02773-0.58911-0.24614-0.81643-0.66393-0.81643-1.5005 0-0.8875 0.29679-1.3654 0.95873-1.5436 0.34482-0.09285 0.66844-0.03762 1.1198 0.1911l0.34377 0.1742 0.30681-0.32946c0.16874-0.1812 0.30681-0.35376 0.30681-0.38345 0-0.11535-0.43617-0.41232-0.82041-0.55858-0.55346-0.21068-1.3696-0.21139-1.9204-0.0017-0.55167 0.21004-1.0477 0.67579-1.3296 1.2485-0.2163 0.43937-0.22915 0.50778-0.22565 1.2015 0.00297 0.59018 0.034531 0.81362 0.15964 1.1304 0.44159 1.1181 1.5935 1.7015 2.8784 1.4579zm11.058-0.09107c0.75944-0.31821 1.1851-1.1909 0.96468-1.978-0.13001-0.46434-0.52072-0.77183-1.3665-1.0754-0.53797-0.19311-0.7127-0.2889-0.79524-0.43596-0.09762-0.17392-0.09455-0.20357 0.03964-0.38394 0.19619-0.2637 0.64613-0.29859 1.1355-0.08806 0.19139 0.08234 0.40556 0.13865 0.47593 0.12514 0.13432-0.02578 0.52748-0.67608 0.46746-0.77319-0.08207-0.13278-0.74231-0.4031-1.1416-0.46741-1.2533-0.20184-2.171 0.45298-2.1681 1.5471 0.0021 0.80325 0.34756 1.181 1.3635 1.4909 0.6221 0.18975 0.87266 0.38609 0.87266 0.6838 0 0.52018-0.64081 0.63547-1.4225 0.25591-0.22478-0.10915-0.45398-0.18108-0.50932-0.15985-0.14355 0.05508-0.53362 0.64215-0.49446 0.74419 0.04926 0.12837 0.73578 0.48187 1.1328 0.5833 0.40792 0.10422 1.1131 0.07081 1.4455-0.06847zm-8.0525-0.99253v-1.0837h2.0275v2.1674h1.2585v-5.1737h-1.2585v2.1674h-2.0275v-2.1674h-1.1886v5.1737h1.1886zm10.977 0.25517v-0.82851l0.61176-0.04356c0.33647-0.02396 0.76569-0.09608 0.95382-0.16027 1.3038-0.44484 1.4657-2.41 0.25-3.0336-0.38633-0.19818-0.98808-0.27922-2.0731-0.27922h-1.0009v5.1737h1.2585zm6.2924 0.33911v-0.48941h-1.8877v-4.1949h-1.1886v5.1737h3.0763zm1.8178-2.0975v-2.5869h-1.2585v5.1737h1.2585zm3.2325 0.50688 0.01852-2.08 1.3633-0.04002v-0.97375h-4.0551v1.0487h1.3983v4.125h1.2564z"/>
   <path d="m1.0361 76.81 0.020008-6.1351 0.1866-0.52436c0.28461-0.7998 0.52155-1.1719 1.1372-1.7861 0.61858-0.61712 1.2195-0.97725 1.9972-1.1968 0.43354-0.1224 1.0607-0.12831 13.633-0.12831h13.179l0.52436 0.16301c1.5329 0.47655 2.6846 1.6532 3.1252 3.1929 0.1084 0.37881 0.12236 1.0076 0.14399 6.4846l0.02395 6.0651h-0.98592v-0.97881h-1.8178v-0.90124l0.6642-0.04262 0.01852-2.08 0.01852-2.08h1.3962v-0.97881h-2.0975v-0.83898h-28.323l0.011321 0.87824 0.011321 0.87824-0.37739 0.53754c-0.32159 0.45807-0.41061 0.54078-0.60208 0.55946l-0.22469 0.02191v-2.0364h-1.2602l0.01834 2.5694 0.01834 2.5694 1.2235 0.0404v-2.1728h0.27753c0.26718 0 0.29 0.01891 0.61176 0.50689l0.33423 0.50688-0.038696 2.0625h-1.884v0.97881h-0.98387zm32.971-2.3218 0.02054-0.49233h-1.8746l-0.04943-0.61176c-0.06947-0.85976-0.22042-1.5183-0.44087-1.9233-0.24456-0.44933-0.98778-1.1292-1.4057-1.2859-0.17907-0.06713-0.34332-0.14752-0.365-0.17863-0.02168-0.03112-0.39104-0.06419-0.82078-0.07351l-0.78136-0.01693-7.21e-4 -0.54184-7.23e-4 -0.54184h2.0975v-0.97881h-3.286v1.9576h-2.447v-1.9576h-1.2585v1.9576h-3.9956l0.16343-0.29626c0.35437-0.6424 1.2117-0.82385 2.0708-0.43829 0.23542 0.10565 0.47337 0.1747 0.52878 0.15343 0.05541-0.02126 0.20312-0.18746 0.32824-0.36932l0.2275-0.33066-0.16845-0.13871c-0.09265-0.07629-0.34149-0.22064-0.55298-0.32079-0.3478-0.16468-0.46469-0.18208-1.2235-0.18208-0.76237 0-0.87522 0.01699-1.2358 0.186-0.21823 0.1023-0.53498 0.3134-0.7039 0.4691-0.2946 0.27156-0.68216 0.92962-0.68216 1.1583 0 0.08439-0.07891 0.10927-0.34651 0.10927h-0.34651l-0.02413 0.50689c-0.01327 0.27879-0.03038-0.16168-0.03802-0.97881l-0.01389-1.4857h-1.0487v1.9462l-0.9695 0.04644-0.75104-0.95639c-0.41307-0.52602-0.81631-0.97392-0.89608-0.99535-0.07977-0.02142-0.29448-0.03938-0.47713-0.0399l-0.3321-9.55e-4v1.9576h-0.90495l-0.01945-0.96134-0.01945-0.96133-1.2235-0.0404v1.9564l-1.1292 0.02082c-0.80807 0.0149-1.1902-0.0049-1.3438-0.06968-0.47482-0.20024-0.58517-0.47007-0.31143-0.76146 0.19916-0.21199 0.68491-0.22024 1.0622-0.01803 0.4106 0.22007 0.60599 0.16355 0.81334-0.23527l0.17478-0.33619-0.19341-0.16833c-0.44057-0.38343-1.6183-0.50929-2.2187-0.2371-0.17304 0.07845-0.3884 0.21147-0.47857 0.2956-0.34536 0.32223-0.52061 0.88278-0.43033 1.3765 0.047052 0.25731 0.038795 0.27966-0.10332 0.27966-0.27536 0-0.96395 0.27528-1.3968 0.55844-0.4022 0.26307-0.61115 0.51782-0.90906 1.1083-0.15304 0.30334-0.38739 1.517-0.38739 2.0063v0.38206h-1.8877v1.0138l31.986-0.0291z"/>
   <path d="m4.6218 97.873c-0.93466-0.2102-1.6008-0.56866-2.2565-1.2142-0.50387-0.49611-0.85432-1.0627-1.1093-1.7935-0.19412-0.55631-0.19504-0.56767-0.22096-2.7085l-0.026028-2.1499h0.99095v0.97881h32.021v-0.97881h0.99514l-0.03448 2.08c-0.02695 1.6262-0.05947 2.1715-0.14904 2.4995-0.41377 1.515-1.5637 2.7048-3.1188 3.2268-0.36789 0.1235-0.95321 0.12963-13.529 0.14164-10.812 0.010325-13.218-0.004181-13.564-0.08179zm12.545-0.92133c0.73568-0.2376 1.28-0.94542 1.3754-1.7886l0.04549-0.40201h0.55029c0.30266 0 0.55029 0.01264 0.55029 0.02809 0 0.02138-0.52 1.3682-0.81924 2.1218-0.02614 0.06582 0.11343 0.08739 0.56545 0.08739 0.68989 0 0.70666-0.013 0.92414-0.71663l0.12426-0.40201h1.9207l0.15484 0.47193c0.08516 0.25956 0.18596 0.51126 0.22401 0.55932 0.07353 0.09291 1.2406 0.12948 1.2406 0.03888 0-0.04214-0.18797-0.5361-0.70654-1.8567l-0.13041-0.3321h1.1865v2.2373h3.1462v-0.97881h-1.8877v-1.2468l1.5556-0.03558c0.85559-0.01957 1.763-0.0648 2.0165-0.10052 0.94471-0.1331 1.6909-0.64337 2.0297-1.3881 0.18809-0.41336 0.48076-1.638 0.48076-2.0117v-0.18129h-27.407l9.299e-4 0.19227c0.00183 0.3784 0.27409 1.7165 0.42112 2.0697 0.11632 0.27944 0.24068 0.42652 0.55631 0.65798 0.76461 0.56071 1.1742 0.67275 2.7796 0.76029l0.78655 0.04289v2.2197h1.2807c1.4368 0 1.7712-0.06287 2.3281-0.43762 0.53354-0.35904 0.88716-0.90716 1.037-1.6074 0.03627-0.16949 0.07315-0.19227 0.31141-0.19227h0.27027l0.04896 0.40201c0.11282 0.92634 0.64543 1.5773 1.5053 1.8398 0.31864 0.09728 1.1609 0.06913 1.5336-0.05125z"/>
   <path d="m1.0346 76.775 0.021458-6.17 0.22672-0.56232c0.30602-0.75901 0.53793-1.1064 1.1211-1.6796 0.55133-0.54184 1.0469-0.86728 1.6633-1.0923 0.39753-0.14512 0.57436-0.15399 4.2601-0.2138 2.1149-0.03432 8.1399-0.04608 13.389-0.02614 10.53 0.04 9.7916 7e-3 10.732 0.47973 0.89247 0.44863 1.6073 1.1659 2.0556 2.0626 0.44992 0.9 0.43363 0.65052 0.47697 7.3066l0.03949 6.0651h-0.99893v-0.97881h-32.021v0.97881h-0.98677zm1.6645 3.1986v-1.0837h0.56355l0.66234 1.0156c0.44861 0.68788 0.72013 1.0376 0.84142 1.0837 0.22997 0.08743 1.2886 0.08908 1.2886 2e-3 0-0.09427-1.4498-2.3094-1.6555-2.5294l-0.17148-0.18341 0.84285-1.145c0.46357-0.62974 0.84318-1.1686 0.84358-1.1974 3.977e-4 -0.02884-0.29228-0.05244-0.65039-0.05244-0.768 0-0.72594-0.03074-1.4827 1.0837-0.61901 0.91152-0.64927 0.94386-0.88333 0.94386h-0.19891v-2.0275h-1.2585v2.5403c0 1.3971 0.020975 2.5612 0.04661 2.5869 0.025636 0.02563 0.30879 0.04661 0.62924 0.04661h0.58263zm7.0614 0.59428v-0.48941h-2.0975v-1.1886h1.6081v-0.9089h-1.6081v-1.1186h2.0975v-0.97881h-3.3559v5.1737h3.3559zm3.1462-0.493v-0.9824l0.8696-1.4821c0.47828-0.81516 0.89065-1.5372 0.91638-1.6045 0.0424-0.1109-0.01182-0.12235-0.57911-0.12235-0.50802 0-0.64637 0.02304-0.73467 0.12235-0.05983 0.06729-0.32628 0.58298-0.59209 1.146l-0.4833 1.0236-0.5121-1.0755c-0.28166-0.59154-0.55178-1.1085-0.60026-1.1487-0.05144-0.04269-0.35265-0.06475-0.7231-0.05297l-0.63494 0.0202 1.8151 3.1088v0.9684c0 0.53262 0.02097 0.98937 0.04661 1.015 0.02563 0.02563 0.30879 0.04661 0.62924 0.04661h0.58263zm5.6756 0.87439c0.64887-0.22109 1.0604-0.83248 1.0633-1.5797 0.0031-0.79545-0.33383-1.1366-1.5017-1.5207-0.72194-0.23743-0.91608-0.50178-0.62893-0.85639 0.18329-0.22635 0.69097-0.22771 1.1186-3e-3 0.40404 0.21231 0.55875 0.16164 0.78872-0.25837 0.17749-0.32415 0.18134-0.35002 0.06736-0.45316-0.38129-0.34506-1.4378-0.55809-2.0046-0.40417-0.78983 0.21453-1.2482 0.78567-1.2411 1.5463 0.0074 0.78733 0.43164 1.226 1.4531 1.5025 0.74931 0.20283 1.0085 0.60701 0.63123 0.98428-0.24887 0.24887-0.6717 0.23342-1.1907-0.04352-0.2482-0.13245-0.46023-0.20047-0.55168-0.177-0.12526 0.03215-0.53308 0.56234-0.53308 0.69304 0 0.09538 0.50099 0.41294 0.84894 0.53811 0.46229 0.1663 1.2423 0.18105 1.6805 0.03177zm2.9786-0.7834 0.01963-0.85646h0.54448c0.66804 0 1.1505-0.13661 1.4983-0.42425 0.4891-0.40451 0.68187-1.0226 0.53722-1.7225-0.069-0.33387-0.14073-0.46224-0.40762-0.72951-0.46931-0.46996-0.79666-0.5496-2.2592-0.5496h-1.1759v5.1792l1.2235-0.0404zm6.3077 0.36706v-0.52436h-1.8877v-4.125h-1.2585v2.5403c0 1.3971 0.02097 2.5612 0.04661 2.5869 0.02563 0.02563 0.73353 0.04661 1.5731 0.04661h1.5265zm1.8178-2.0625v-2.5869h-1.2585v5.1737h1.2585zm3.1997 0.47193 0.01852-2.08h1.3962v-0.97881h-4.0551v0.97881h1.3983v4.2004l1.2235-0.0404zm-12.096-3.9676 13.231-9.6e-5v-0.97881h-32.021v1.0715l2.7791-0.04623c1.5285-0.02542 8.7333-0.04627 16.011-0.04632zm-11.895-1.9911c1.0724-0.31848 1.5623-1.6849 0.89042-2.4835-0.2115-0.25135-0.5059-0.41022-1.1567-0.62416-0.80125-0.26342-1.0018-0.53415-0.65368-0.88231 0.21968-0.21968 0.61728-0.2281 1.0414-0.02204 0.42053 0.20431 0.61105 0.14457 0.8216-0.25761l0.1677-0.32033-0.19341-0.16798c-0.44118-0.38316-1.6186-0.5088-2.2187-0.23676-0.64435 0.29212-0.90904 0.71221-0.90864 1.4421 4.335e-4 0.78562 0.31454 1.1315 1.3231 1.4568 0.57865 0.18665 0.91393 0.41346 0.91393 0.61825 0 0.25443-0.14155 0.4519-0.38044 0.53074-0.30106 0.09936-0.60454 0.04439-0.99536-0.18029-0.43821-0.25192-0.60636-0.22414-0.85813 0.1418-0.11721 0.17036-0.2131 0.34295-0.2131 0.38354 0 0.11994 0.51837 0.42751 0.95644 0.56749 0.49818 0.15918 1.003 0.171 1.4635 0.03424zm12.789-0.0052c0.22919-0.05968 0.5512-0.18732 0.7156-0.28364l0.2989-0.17513-0.01923-1.0972-0.01923-1.0972-1.8528-0.03902v0.40754c0 0.47771 0.07356 0.57533 0.43348 0.57533h0.26568v0.35131c0 0.31277-0.01967 0.35879-0.17934 0.41949-0.40854 0.15533-1.0562 0.04922-1.4467-0.23702-0.53875-0.39491-0.71676-1.4828-0.35982-2.199 0.36283-0.7281 1.2113-0.94177 2.1202-0.53389 0.23098 0.10366 0.4653 0.17107 0.52071 0.14981 0.05541-0.02126 0.20312-0.18746 0.32824-0.36932l0.2275-0.33066-0.16845-0.13871c-0.09265-0.07629-0.34149-0.22064-0.55298-0.32079-0.34789-0.16473-0.46459-0.18208-1.2247-0.18208-0.80852 0-0.85783 0.0087-1.3072 0.22979-1.0217 0.5027-1.5363 1.5386-1.3708 2.7591 0.21529 1.587 1.8694 2.5596 3.5909 2.1113zm-9.7027-2.5308-0.01834-2.5694-1.2235-0.0404v5.1792h1.2602zm2.0442 1.0216v-1.5478l1.1252 1.4254c0.61887 0.78399 1.1887 1.4805 1.2662 1.5478 0.09993 0.08671 0.26094 0.12235 0.55275 0.12235h0.41175v-5.1737h-1.0461l-0.03758 3.1593-1.1403-1.438c-0.62717-0.79091-1.2213-1.5017-1.3203-1.5796-0.12998-0.10224-0.28432-0.14162-0.55514-0.14162h-0.37511v5.1737h1.1186zm12.515 1.0584v-0.48941h-1.8877v-4.1949h-1.2585v5.1737h3.1462zm3.8453 0v-0.48942h-2.1165l0.04446-0.32438c0.02445-0.17841 0.04446-0.4301 0.04446-0.55932v-0.23494h1.5381v-0.97881h-1.608v-1.1186h2.0975v-0.97881h-3.286v5.1737h3.286z"/>
   <path d="m5.8103 97.905c-1.4323-0.049187-1.6303-0.088604-2.3771-0.4732-0.62304-0.32087-1.5222-1.2028-1.8319-1.7967-0.49952-0.95815-0.52379-1.1079-0.56375-3.4783l-0.036243-2.1499h0.99859v0.97881h32.021v-0.97881h1.0012l-0.04767 2.045c-0.02622 1.1248-0.07867 2.2023-0.11656 2.3946-0.09717 0.49309-0.54837 1.3975-0.92959 1.8633-0.4254 0.51982-1.1452 1.0538-1.7951 1.3316l-0.52436 0.2242-2.6568 0.04914c-3.2725 0.06052-21.317 0.05288-23.142-0.0098zm11.612-1.0641c0.41423-0.21313 0.75733-0.57841 0.96513-1.0275 0.13538-0.2926 0.14904-0.46289 0.16992-2.1185l0.0227-1.8003h-1.2689l-0.0015 1.6605c-0.0014 1.4799-0.01598 1.6923-0.13434 1.953-0.30127 0.66357-1.2696 0.70165-1.655 0.06508-0.11794-0.19482-0.13413-0.39998-0.15374-1.9482l-0.021947-1.7304h-1.2496v1.5697c0 1.5495 0.05767 2.1164 0.25451 2.502 0.23693 0.46408 0.72054 0.85614 1.2836 1.0406 0.09613 0.0315 0.45794 0.04825 0.80403 0.03722 0.51653-0.01646 0.69298-0.05285 0.98511-0.20316zm-5.2686-0.10762c0.53342-0.26275 0.89174-0.63338 1.1631-1.2031 0.15978-0.33542 0.18318-0.47384 0.18318-1.0837 0-0.60875-0.02378-0.74996-0.18386-1.0921-0.25834-0.55208-0.62834-0.93161-1.1669-1.197l-0.46256-0.2279-2.8353-0.04526v5.1265l2.835-0.04738zm7.8848 0.19484c0.07742-0.04143 0.19597-0.271 0.28883-0.55932l0.15751-0.48904h1.9187l0.15158 0.45551c0.21024 0.63176 0.25346 0.66314 0.91354 0.66314 0.30488 0 0.55367-0.0236 0.55287-0.05244s-0.43369-1.1693-0.96196-2.5344l-0.9605-2.482h-1.3037l-0.97305 2.5168c-0.53518 1.3842-0.97305 2.5247-0.97305 2.5344 0 0.05399 1.0793 0.0062 1.1892-0.05267zm7.4802-0.41913v-0.48941h-1.8877v-4.125h-1.2585v5.1038h3.1462z"/>
   <path d="m1.0372 113.83 0.018846-10.155 0.19737-0.55932c0.51963-1.4726 1.6387-2.5287 3.1236-2.948 0.43354-0.1224 1.0607-0.1283 13.633-0.1283h13.179l0.52436 0.16366c0.82619 0.25787 1.3087 0.54917 1.9277 1.1638 0.42366 0.42066 0.62822 0.69109 0.82045 1.0847 0.53992 1.1054 0.49801 0.1848 0.52118 11.449l0.02074 10.085h-0.98288v-0.97881h-32.021v0.97881h-0.98155zm31.725 6.5922v-2.5142l-1.2235-0.0466 1.4333-0.0288v-0.48941c0-0.38842-0.02164-0.4894-0.10487-0.4894-0.08157 0-0.10487-0.0932-0.10487-0.4195v-0.41949h1.2585v-1.0487h-1.2585v-0.45032c0-0.24768 0.03146-0.46977 0.06992-0.49353 0.04405-0.0272 0.06991-0.80475 0.06991-2.1016v-2.0584h1.3983v-0.97881h-1.5381v-0.83899h-29.571l-0.018927 1.4158-0.018926 1.4158-0.45445 0.0438v-2.0364h-1.2602l0.01834 2.5694 0.01834 2.5694 1.2235 0.0404v-2.1728h0.48941v3.0763h-1.1886v1.0487h1.1886l0.00304 1.4507c0.00167 0.79791 7.362e-4 2.3553-0.00208 3.4608l-0.00511 2.0101h29.578zm1.2441-12.935 0.02054-0.49188h-0.62482c-0.71695 0-0.7097 6e-3 -0.7097-0.62724 0-0.49081-0.17352-1.4433-0.34529-1.8954-0.22029-0.57976-0.68363-1.159-1.2036-1.5047-0.59004-0.39226-1.2201-0.58591-2.1011-0.64583l-0.67864-0.0461-0.02506 0.34957c-0.01709 0.23839-0.02918 0.16611-0.038-0.22722l-0.01293-0.5768h2.0975v-0.97882h-3.286v1.3983h-2.447v-1.3983h-1.2585v1.3983h-1.1883l0.51594-0.71815-0.17069-0.14052c-0.09388-0.0773-0.34373-0.22245-0.55522-0.3226-0.3478-0.16468-0.46469-0.18208-1.2235-0.18208-0.75763 0-0.87658 0.0176-1.2267 0.18186-0.46049 0.21599-0.85921 0.55129-1.0897 0.91635-0.16312 0.25839-0.17794 0.26514-0.58293 0.26514h-0.41555l-0.02413 0.50688c-0.01327 0.27879-0.03038-0.0358-0.03802-0.69915l-0.01389-1.206h-1.0487v1.3983h-1.4453l-0.51192-0.65893c-0.28156-0.36241-0.57774-0.6766-0.65819-0.6982s-0.29572-0.0397-0.47837-0.0402l-0.3321-9.6e-4v1.3983h-0.90384l-0.02001-0.68168-0.02001-0.68167-1.2235-0.0404v1.4038h-1.4682c-0.80752 0-1.4682-0.0216-1.4682-0.0479 0-0.0264 0.068408-0.12075 0.15202-0.20975 0.19779-0.21053 0.66694-0.21783 1.0821-0.0168 0.43108 0.20868 0.58593 0.16253 0.79338-0.23647l0.17479-0.33619-0.19341-0.16833c-0.44057-0.38343-1.6183-0.50929-2.2187-0.2371-0.17304 0.0785-0.38847 0.21147-0.47873 0.2956-0.21069 0.19639-0.43017 0.62432-0.43017 0.83875 0 0.1506-0.058197 0.18236-0.59313 0.32367-0.32622 0.0862-0.74975 0.23474-0.94117 0.33013-0.41136 0.20499-1.0369 0.80931-1.2968 1.2528-0.24493 0.41793-0.52378 1.5198-0.58245 2.3016l-0.047225 0.62924-1.2235 0.0404v1.0083l31.986-0.03z"/>
   <path d="m1.0365 113.8 0.019632-10.19 0.23198-0.57596c0.3061-0.75998 0.68698-1.3174 1.2573-1.84 0.54478-0.49919 1.3647-0.92267 2.0414-1.0544 0.35638-0.0694 3.2833-0.0886 13.564-0.0893l13.109-9.2e-4 0.55865 0.19485c0.74666 0.26042 1.2479 0.576 1.8138 1.1419 0.52531 0.52532 0.94859 1.1913 1.1245 1.7693 0.18076 0.59393 0.2345 3.4401 0.23925 12.672l0.0042 8.1626h-0.97881v-0.97881h-32.021v0.97881h-0.98312zm5.2288 8.2324c0.45994-0.0872 0.91495-0.31061 1.1656-0.57225l0.19189-0.20029-0.32574-0.32573c-0.35808-0.35808-0.27472-0.35662-0.89239-0.0157-0.29477 0.16269-0.75039 0.17416-1.1009 0.0277-0.58911-0.24614-0.81643-0.66393-0.81643-1.5005 0-0.8875 0.29679-1.3654 0.95873-1.5436 0.34482-0.0928 0.66844-0.0376 1.1198 0.1911l0.34377 0.1742 0.30681-0.32946c0.16874-0.1812 0.30681-0.35376 0.30681-0.38345 0-0.11535-0.43617-0.41232-0.82041-0.55859-0.56196-0.21391-1.3688-0.21164-1.9395 5e-3 -0.55692 0.21187-1.0763 0.70648-1.339 1.2752-0.18287 0.39591-0.20092 0.50421-0.20062 1.2041 2.936e-4 0.68393 0.020688 0.81257 0.18424 1.162 0.51857 1.1079 1.5915 1.6298 2.8572 1.3898zm11.058-0.0911c0.75944-0.31821 1.1851-1.1909 0.96468-1.978-0.13001-0.46434-0.52072-0.77183-1.3665-1.0754-0.53797-0.19311-0.7127-0.2889-0.79524-0.43596-0.09762-0.17391-0.09455-0.20357 0.03964-0.38394 0.19619-0.2637 0.64613-0.2986 1.1355-0.0881 0.19139 0.0823 0.40556 0.13865 0.47593 0.12514 0.13432-0.0258 0.52748-0.67608 0.46746-0.77319-0.08207-0.13279-0.74231-0.40311-1.1416-0.46742-1.2533-0.20184-2.171 0.45298-2.1681 1.5471 0.0021 0.80325 0.34756 1.181 1.3635 1.4909 0.6221 0.18975 0.87266 0.38608 0.87266 0.6838 0 0.52018-0.64081 0.63547-1.4225 0.25591-0.22478-0.10916-0.45398-0.18109-0.50932-0.15985-0.14355 0.0551-0.53362 0.64215-0.49446 0.74419 0.04926 0.12836 0.73578 0.48186 1.1328 0.5833 0.40792 0.10421 1.1131 0.0708 1.4455-0.0685zm-8.0525-0.99252v-1.0837h2.0275v2.1674h1.2585v-5.1737h-1.2585v2.1674h-2.0275v-2.1674h-1.1886v5.1737h1.1886zm10.977 0.25517v-0.82851l0.61176-0.0436c0.33647-0.024 0.76569-0.0961 0.95382-0.16027 1.3038-0.44484 1.4657-2.41 0.25-3.0336-0.38633-0.19818-0.98808-0.27922-2.0731-0.27922h-1.0009v5.1737h1.2585zm6.2924 0.33911v-0.48941h-1.8877v-4.1949h-1.1886v5.1737h3.0763zm1.8178-2.0974v-2.5869h-1.2585v5.1737h1.2585zm3.2161 0.53387v-2.053l0.32438-0.0445c0.17841-0.0245 0.49303-0.0445 0.69915-0.0445h0.37478v-0.97881h-4.0551v1.0487h1.3983v4.125h1.2585zm2.447-4.4841v-0.52437h-32.021v1.0487h32.021zm-31.322-2.517v-1.0837h0.56355l0.66234 1.0156c0.44861 0.68788 0.72013 1.0376 0.84142 1.0837 0.22997 0.0874 1.2886 0.0891 1.2886 2e-3 0-0.0943-1.4498-2.3094-1.6555-2.5294l-0.17148-0.18341 0.84285-1.145c0.46357-0.62974 0.84318-1.1686 0.84358-1.1974 3.985e-4 -0.0288-0.29268-0.0524-0.65128-0.0524-0.7729 0-0.68835-0.0637-1.5431 1.1627-0.51079 0.73294-0.60417 0.8324-0.79967 0.85175l-0.22135 0.0219v-2.0364h-1.2585v2.5402c0 1.3971 0.020975 2.5612 0.04661 2.5869 0.025636 0.0256 0.30879 0.0466 0.62924 0.0466h0.58263zm7.0614 0.59428v-0.48941h-2.0975v-1.1886h1.6081v-0.9089h-1.6081v-1.1186h2.0975v-0.97881h-3.3559v5.1737h3.3559zm3.1462-0.493v-0.98241l0.8696-1.4821c0.47828-0.81516 0.89065-1.5372 0.91638-1.6045 0.0424-0.1109-0.01182-0.12235-0.57911-0.12235-0.50802 0-0.64637 0.023-0.73467 0.12235-0.05983 0.0673-0.32628 0.58298-0.59209 1.146l-0.4833 1.0236-0.5121-1.0755c-0.28166-0.59153-0.55178-1.1084-0.60026-1.1487-0.05144-0.0427-0.35265-0.0647-0.7231-0.053l-0.63494 0.0202 1.8151 3.1088v0.9684c0 0.53262 0.02097 0.98937 0.04661 1.015 0.02563 0.0256 0.30879 0.0466 0.62924 0.0466h0.58263zm5.6756 0.87439c0.64887-0.2211 1.0604-0.83249 1.0633-1.5797 0.0031-0.79545-0.33383-1.1366-1.5017-1.5207-0.72194-0.23743-0.91608-0.50178-0.62893-0.85639 0.18329-0.22635 0.69097-0.22771 1.1186-3e-3 0.40404 0.21231 0.55875 0.16163 0.78872-0.25837 0.17749-0.32415 0.18134-0.35002 0.06736-0.45316-0.38129-0.34507-1.4378-0.5581-2.0046-0.40417-0.78983 0.21453-1.2482 0.78567-1.2411 1.5463 0.0074 0.78734 0.43164 1.226 1.4531 1.5025 0.74931 0.20283 1.0085 0.60701 0.63123 0.98428-0.24887 0.24887-0.6717 0.23342-1.1907-0.0435-0.2482-0.13245-0.46023-0.20048-0.55168-0.177-0.12526 0.0322-0.53308 0.56234-0.53308 0.69304 0 0.0954 0.50099 0.41294 0.84894 0.53811 0.46229 0.1663 1.2423 0.18105 1.6805 0.0318zm2.9786-0.7834 0.01963-0.85647h0.54448c0.66804 0 1.1505-0.1366 1.4983-0.42424 0.4891-0.40451 0.68187-1.0226 0.53722-1.7225-0.069-0.33388-0.14073-0.46224-0.40762-0.72951-0.46931-0.46997-0.79666-0.5496-2.2592-0.5496h-1.1759v5.1792l1.2235-0.0404zm6.3077 0.36705v-0.52436h-1.8877v-4.125h-1.2585v2.5402c0 1.3971 0.02097 2.5612 0.04661 2.5869 0.02563 0.0256 0.73353 0.0466 1.5731 0.0466h1.5265zm1.8178-2.0625v-2.5869h-1.2585v5.1737h1.2585zm3.1997 0.47193 0.01852-2.08h1.3962v-0.97881h-4.0551v0.97881h1.3983v4.2004l1.2235-0.0404zm-12.096-3.9676 13.231-9e-5v-0.97881h-32.021v1.0714l2.7791-0.0462c1.5285-0.0254 8.7333-0.0463 16.011-0.0463zm-11.895-1.9911c1.0724-0.31848 1.5623-1.6849 0.89042-2.4834-0.2115-0.25135-0.5059-0.41022-1.1567-0.62416-0.80518-0.26471-1.0389-0.59609-0.64107-0.90902 0.23715-0.18654 0.61231-0.18675 1.0332-5.7e-4 0.45392 0.20079 0.58748 0.16178 0.8029-0.23448l0.18203-0.33484-0.19341-0.16967c-0.26653-0.23382-0.82157-0.38445-1.4098-0.38262-1.0709 3e-3 -1.7449 0.61409-1.7384 1.5753 5e-3 0.74047 0.36643 1.1598 1.2334 1.4308 0.88698 0.27733 1.0769 0.44046 0.98729 0.84826-0.095476 0.43469-0.73313 0.51044-1.3385 0.15899-0.43723-0.25383-0.60603-0.22626-0.85813 0.14016-0.11721 0.17035-0.2131 0.34295-0.2131 0.38354 0 0.11995 0.51837 0.42751 0.95644 0.56749 0.49818 0.15918 1.003 0.17099 1.4635 0.0342zm12.789-5e-3c0.22919-0.0597 0.5512-0.18732 0.7156-0.28364l0.2989-0.17513-0.03846-2.1944-1.8528-0.039v0.40754c0 0.4777 0.07356 0.57533 0.43348 0.57533h0.26568v0.35131c0 0.31277-0.01967 0.35878-0.17934 0.41949-0.09864 0.0375-0.31418 0.0682-0.47897 0.0682-0.93153 0-1.5091-0.62879-1.5091-1.643 0-0.66744 0.22947-1.1472 0.673-1.4072 0.43539-0.25516 1.073-0.25167 1.6054 9e-3 0.2081 0.10181 0.43129 0.17492 0.49599 0.16246 0.0647-0.0125 0.22803-0.17636 0.36297-0.36421l0.24534-0.34156-0.17068-0.14052c-0.09387-0.0773-0.34372-0.22244-0.55521-0.32259-0.3478-0.16468-0.46469-0.18208-1.2235-0.18208-0.76237 0-0.87522 0.017-1.2358 0.186-1.0781 0.50541-1.614 1.5459-1.4435 2.8029 0.21529 1.587 1.8694 2.5596 3.5909 2.1113zm-9.7027-2.5308-0.01834-2.5694-1.2235-0.0404v5.1792h1.2602zm2.0442 1.0216v-1.5478l1.1252 1.4254c0.61887 0.78399 1.1887 1.4805 1.2662 1.5478 0.09993 0.0867 0.26094 0.12235 0.55275 0.12235h0.41175v-5.1737h-1.0461l-0.03758 3.1546-1.1407-1.436c-0.62737-0.78979-1.2215-1.4996-1.3203-1.5773-0.12959-0.10194-0.28421-0.14133-0.55477-0.14133h-0.37511v5.1737h1.1186zm12.515 1.0584v-0.48941h-1.8877v-4.1949h-1.2585v5.1737h3.1462zm3.8453 0v-0.48941h-2.1165l0.04446-0.32438c0.02445-0.17841 0.04446-0.4301 0.04446-0.55932v-0.23495h1.5381v-0.97881h-0.76091c-0.87297 0-0.84442 0.0242-0.84618-0.71663l-9.55e-4 -0.40201h2.0975v-0.97882h-3.286v5.1737h3.286z"/>
  </g>
  <path d="m1.024 40.634c0.046502-2.7314 0.057952-2.9506 0.17367-3.3247 0.23002-0.74365 0.66144-1.4446 1.2323-2.0022 0.59238-0.57864 1.3989-1.0202 2.0768-1.1368 0.17733-0.03053 1.407-0.07498 2.7438-0.0992 2.8856-0.05228 17.006-0.05514 21.209-0.0043l2.9663 0.03588 0.38528 0.13294c1.5656 0.54022 2.7029 1.7845 3.0317 3.317 0.08536 0.39782 0.1624 2.0071 0.16526 3.4522l0.0019 0.97639h-0.98872v-0.98875h-32.036v0.98875h-0.98435zm8.1001-0.74526c0.51617-0.23631 0.8138-0.63007 0.92237-1.2203 0.10838-0.58919-0.093329-1.1145-0.54192-1.4114-0.10664-0.070568-0.4414-0.21549-0.74393-0.32206-0.84866-0.29893-0.94157-0.36548-0.94157-0.67436 0-0.448 0.62631-0.59508 1.2304-0.28894 0.43206 0.21894 0.57821 0.16098 0.82572-0.32744l0.13147-0.25945-0.1658-0.13842c-0.21436-0.17896-0.60416-0.32309-1.0552-0.39017-0.9341-0.13893-1.7942 0.28604-2.0328 1.0044-0.060105 0.18096-0.076885 0.36022-0.061378 0.65567 0.038341 0.73049 0.3206 1.0355 1.2331 1.3325 0.85032 0.27675 0.98199 0.37092 0.98199 0.70234 0 0.276-0.14944 0.4527-0.43741 0.5172-0.29702 0.06653-0.51438 0.01731-0.95017-0.21515-0.48383-0.25809-0.57371-0.23978-0.83912 0.17086-0.10766 0.16656-0.19574 0.32858-0.19574 0.36004 0 0.11305 0.54051 0.4336 0.96403 0.57172 0.49628 0.16184 1.241 0.13205 1.6758-0.06704zm12.77 0.02135c0.16852-0.05691 0.40767-0.16465 0.53145-0.23942l0.22506-0.13594v-2.2029l-1.8539 0.0269 4.45e-4 0.34606c6.58e-4 0.51036 0.0077 0.51909 0.41822 0.51909h0.34761v0.372c0 0.3587-0.0049 0.3741-0.13595 0.43044-0.07477 0.03214-0.3473 0.0594-0.60561 0.06057-0.43028 2e-3 -0.49185-0.01016-0.73442-0.14452-0.51505-0.28528-0.75679-0.74862-0.76182-1.4602-0.0037-0.52814 0.10015-0.85567 0.36786-1.1598 0.31877-0.36214 0.52255-0.4465 1.0789-0.44666 0.42405-1.23e-4 0.50326 0.01528 0.81572 0.15861 0.5543 0.25427 0.59755 0.24592 0.88651-0.17111l0.23122-0.3337-0.15411-0.12979c-0.45368-0.38207-0.9685-0.53762-1.7793-0.53762-0.93852 0-1.412 0.17706-1.9813 0.7409-1.1409 1.13-0.93322 3.1391 0.41456 4.011 0.71363 0.46164 1.8334 0.58494 2.6888 0.29606zm-9.922-2.4772v-2.5708h-1.2359v5.1415h1.2359zm2.0386 1.0178 0.01305-1.5529 1.1371 1.4409c0.62538 0.79252 1.1904 1.4913 1.2555 1.5529 0.10472 0.099 0.16919 0.11198 0.55617 0.11198h0.43772v-5.1415h-1.0876v3.1792l-1.1779-1.4804c-0.64786-0.81422-1.2404-1.5295-1.3168-1.5896-0.11647-0.09162-0.20143-0.1092-0.52766-0.1092h-0.38883v5.1415h1.0862zm12.496 1.0586v-0.49438h-1.8786v-4.1528h-1.2359v5.1415h3.1146zm3.9056 0.02472v-0.46966h-2.0764v-1.1865h1.582v-0.88743l-1.6067-0.02716-0.01397-0.55518-0.01397-0.55518 2.1043-0.0267 0.0283-0.96403h-3.3159v5.1415h3.3123z" stroke-width=".049438"/>
 </g>
</svg>
