<?xml version="1.0" encoding="utf-8"?>
<svg width="320px" height="320px" viewBox="0 0 320 320" version="1.1" xmlns:xlink="http://www.w3.org/1999/xlink" xmlns="http://www.w3.org/2000/svg">
  <defs>
    <rect width="320" height="320" id="artboard_1" />
    <clipPath id="clip_1">
      <use xlink:href="#artboard_1" clip-rule="evenodd" />
    </clipPath>
  </defs>
  <g id="surge_fx_logo" clip-path="url(#clip_1)">
    <use xlink:href="#artboard_1" stroke="none" fill="#FF9000" />
    <path d="M210.5 81.6783L272 113.677L272 49.3L66.5 49.3C56.8 49.3 49 55.2284 49 62.601L49 186.642L91.1 195.686C93.3 196.143 95.5 195.154 96.2 193.558L106.7 164.676C107.4 162.624 110.6 161.712 113 162.928L213.7 215.6C217.5 217.576 214.7 222.136 210.3 221.148L132.7 204.655C130.5 204.199 128.2 205.187 127.7 206.859L117.4 235.741C116.7 237.794 113.4 238.706 111.1 237.489L49 204.807L49 272.3L253.1 272.3C263.5 272.3 271.9 265.84 271.9 258.011L271.9 132.222L230.3 123.405C228.1 122.949 225.9 123.937 225.3 125.533L214.5 154.492C213.7 156.544 210.6 157.38 208.2 156.24L107.4 103.492C103.6 101.516 106.4 96.9554 110.8 97.9435L188.4 114.437C190.6 114.893 192.8 113.905 193.4 112.308L204.2 83.3504C205 81.3743 208.1 80.4622 210.5 81.6783L210.5 81.6783L210.5 81.6783Z" id="Logo" fill="black" stroke="none" />
  </g>
</svg>