<?xml version="1.0" encoding="utf-8"?>
<svg width="11px" height="22px" viewBox="0 0 11 22" version="1.1" xmlns:xlink="http://www.w3.org/1999/xlink" xmlns="http://www.w3.org/2000/svg">
  <desc>Created with Lunacy</desc>
  <defs>
    <rect width="11" height="22" id="artboard_1" />
    <clipPath id="clip_1">
      <use xlink:href="#artboard_1" clip-rule="evenodd" />
    </clipPath>
  </defs>
  <g id="bmp00177" clip-path="url(#clip_1)">
    <g id="MSEG-Edit-Off" transform="translate(0.5001221 0.5)">
      <path d="M1.999 0L8.001 0Q8.09921 0 8.19694 0.00962573Q8.29467 0.0192515 8.39098 0.0384102Q8.4873 0.057569 8.58128 0.0860763Q8.67525 0.114584 8.76598 0.152165Q8.85671 0.189746 8.94332 0.236039Q9.02993 0.282333 9.11158 0.336892Q9.19324 0.391452 9.26915 0.453752Q9.34507 0.516052 9.41451 0.585494Q9.48395 0.654935 9.54625 0.730848Q9.60855 0.806761 9.66311 0.888415Q9.71767 0.970069 9.76396 1.05668Q9.81025 1.14329 9.84783 1.23402Q9.88542 1.32474 9.91392 1.41872Q9.94243 1.5127 9.96159 1.60901Q9.98075 1.70533 9.99037 1.80306Q10 1.9008 10 1.999L10 8.001Q10 8.09921 9.99037 8.19694Q9.98075 8.29467 9.96159 8.39098Q9.94243 8.4873 9.91392 8.58128Q9.88542 8.67525 9.84783 8.76598Q9.81025 8.85671 9.76396 8.94332Q9.71767 9.02993 9.66311 9.11158Q9.60855 9.19324 9.54625 9.26915Q9.48395 9.34507 9.41451 9.41451Q9.34507 9.48395 9.26915 9.54625Q9.19324 9.60855 9.11158 9.66311Q9.02993 9.71767 8.94332 9.76396Q8.85671 9.81025 8.76598 9.84783Q8.67525 9.88542 8.58128 9.91392Q8.4873 9.94243 8.39098 9.96159Q8.29467 9.98075 8.19694 9.99037Q8.09921 10 8.001 10L1.999 10Q1.9008 10 1.80306 9.99037Q1.70533 9.98075 1.60901 9.96159Q1.5127 9.94243 1.41872 9.91392Q1.32474 9.88542 1.23402 9.84783Q1.14329 9.81025 1.05668 9.76396Q0.970069 9.71767 0.888415 9.66311Q0.806761 9.60855 0.730848 9.54625Q0.654935 9.48395 0.585494 9.41451Q0.516052 9.34507 0.453752 9.26915Q0.391452 9.19324 0.336892 9.11158Q0.282333 9.02993 0.236039 8.94332Q0.189746 8.85671 0.152165 8.76598Q0.114584 8.67525 0.0860763 8.58128Q0.057569 8.4873 0.0384102 8.39098Q0.0192515 8.29467 0.00962573 8.19694Q0 8.09921 0 8.001L0 1.999Q0 1.9008 0.00962573 1.80306Q0.0192515 1.70533 0.0384102 1.60901Q0.057569 1.5127 0.0860763 1.41872Q0.114584 1.32474 0.152165 1.23402Q0.189746 1.14329 0.236039 1.05668Q0.282333 0.970069 0.336892 0.888415Q0.391452 0.806761 0.453752 0.730848Q0.516052 0.654935 0.585494 0.585494Q0.654935 0.516052 0.730848 0.453752Q0.806761 0.391452 0.888415 0.336892Q0.970069 0.282333 1.05668 0.236039Q1.14329 0.189746 1.23402 0.152165Q1.32474 0.114584 1.41872 0.0860763Q1.5127 0.057569 1.60901 0.0384102Q1.70533 0.0192515 1.80306 0.00962573Q1.9008 0 1.999 0L1.999 0Z" id="BG" fill="#E3E3E3" fill-rule="evenodd" stroke="#979797" stroke-width="1" />
      <path d="M4.09127 2.86102e-06L0.5 3.5412L2.65476 5.66591L6.24603 2.12472L4.09127 2.86102e-06ZM2.03155 6.21478L0 4.21143L0 6.21478L2.03155 6.21478Z" transform="translate(2 1.7850037)" id="Pencil-Icon" fill="#000000" fill-rule="evenodd" stroke="none" />
    </g>
    <g id="MSEG-Edit-On" transform="translate(0.5001221 11.5)">
      <path d="M1.999 0L8.001 0Q8.09921 0 8.19694 0.00962573Q8.29467 0.0192515 8.39098 0.0384102Q8.4873 0.057569 8.58128 0.0860763Q8.67525 0.114584 8.76598 0.152165Q8.85671 0.189746 8.94332 0.236039Q9.02993 0.282333 9.11158 0.336892Q9.19324 0.391452 9.26915 0.453752Q9.34507 0.516052 9.41451 0.585494Q9.48395 0.654935 9.54625 0.730848Q9.60855 0.806761 9.66311 0.888415Q9.71767 0.970069 9.76396 1.05668Q9.81025 1.14329 9.84783 1.23402Q9.88542 1.32474 9.91392 1.41872Q9.94243 1.5127 9.96159 1.60901Q9.98075 1.70533 9.99037 1.80306Q10 1.9008 10 1.999L10 8.001Q10 8.09921 9.99037 8.19694Q9.98075 8.29467 9.96159 8.39098Q9.94243 8.4873 9.91392 8.58128Q9.88542 8.67525 9.84783 8.76598Q9.81025 8.85671 9.76396 8.94332Q9.71767 9.02993 9.66311 9.11158Q9.60855 9.19324 9.54625 9.26915Q9.48395 9.34507 9.41451 9.41451Q9.34507 9.48395 9.26915 9.54625Q9.19324 9.60855 9.11158 9.66311Q9.02993 9.71767 8.94332 9.76396Q8.85671 9.81025 8.76598 9.84783Q8.67525 9.88542 8.58128 9.91392Q8.4873 9.94243 8.39098 9.96159Q8.29467 9.98075 8.19694 9.99037Q8.09921 10 8.001 10L1.999 10Q1.9008 10 1.80306 9.99037Q1.70533 9.98075 1.60901 9.96159Q1.5127 9.94243 1.41872 9.91392Q1.32474 9.88542 1.23402 9.84783Q1.14329 9.81025 1.05668 9.76396Q0.970069 9.71767 0.888415 9.66311Q0.806761 9.60855 0.730848 9.54625Q0.654935 9.48395 0.585494 9.41451Q0.516052 9.34507 0.453752 9.26915Q0.391452 9.19324 0.336892 9.11158Q0.282333 9.02993 0.236039 8.94332Q0.189746 8.85671 0.152165 8.76598Q0.114584 8.67525 0.0860763 8.58128Q0.057569 8.4873 0.0384102 8.39098Q0.0192515 8.29467 0.00962573 8.19694Q0 8.09921 0 8.001L0 1.999Q0 1.9008 0.00962573 1.80306Q0.0192515 1.70533 0.0384102 1.60901Q0.057569 1.5127 0.0860763 1.41872Q0.114584 1.32474 0.152165 1.23402Q0.189746 1.14329 0.236039 1.05668Q0.282333 0.970069 0.336892 0.888415Q0.391452 0.806761 0.453752 0.730848Q0.516052 0.654935 0.585494 0.585494Q0.654935 0.516052 0.730848 0.453752Q0.806761 0.391452 0.888415 0.336892Q0.970069 0.282333 1.05668 0.236039Q1.14329 0.189746 1.23402 0.152165Q1.32474 0.114584 1.41872 0.0860763Q1.5127 0.057569 1.60901 0.0384102Q1.70533 0.0192515 1.80306 0.00962573Q1.9008 0 1.999 0L1.999 0Z" id="BG" fill="#E3E3E3" fill-rule="evenodd" stroke="#979797" stroke-width="1" />
      <path d="M0.999 0L6.001 0Q6.09939 0 6.19589 0.0191955Q6.2924 0.038391 6.3833 0.0760443Q6.4742 0.113698 6.55601 0.168362Q6.63782 0.223026 6.7074 0.2926Q6.77697 0.362175 6.83164 0.443985Q6.8863 0.525796 6.92395 0.616699Q6.96161 0.707602 6.9808 0.804105Q7 0.900607 7 0.999L7 6.001Q7 6.09939 6.9808 6.19589Q6.96161 6.2924 6.92395 6.3833Q6.8863 6.4742 6.83164 6.55601Q6.77697 6.63782 6.7074 6.7074Q6.63782 6.77697 6.55601 6.83164Q6.4742 6.8863 6.3833 6.92395Q6.2924 6.96161 6.19589 6.9808Q6.09939 7 6.001 7L0.999 7Q0.900607 7 0.804105 6.9808Q0.707602 6.96161 0.616699 6.92395Q0.525796 6.8863 0.443985 6.83164Q0.362175 6.77697 0.2926 6.7074Q0.223026 6.63782 0.168362 6.55601Q0.113698 6.4742 0.0760443 6.3833Q0.038391 6.2924 0.0191955 6.19589Q0 6.09939 0 6.001L0 0.999Q0 0.900607 0.0191955 0.804105Q0.038391 0.707602 0.0760443 0.616699Q0.113698 0.525796 0.168362 0.443985Q0.223026 0.362175 0.2926 0.2926Q0.362175 0.223026 0.443985 0.168362Q0.525796 0.113698 0.616699 0.0760443Q0.707602 0.038391 0.804105 0.0191955Q0.900607 0 0.999 0L0.999 0Z" transform="translate(1.4998779 1.5)" id="Fill" fill="#FF9000" fill-rule="evenodd" stroke="none" />
      <path d="M4.09127 2.86102e-06L0.5 3.5412L2.65476 5.66591L6.24603 2.12472L4.09127 2.86102e-06ZM2.03155 6.21478L0 4.21143L0 6.21478L2.03155 6.21478Z" transform="translate(2 1.7850037)" id="Pencil-Icon" fill="#000000" fill-rule="evenodd" stroke="none" />
    </g>
  </g>
</svg>