<svg width="399" height="84" viewBox="0 0 399 84" fill="none" xmlns="http://www.w3.org/2000/svg">
<path d="M144 -8.74228e-08L143 0L143 14L144 14L144 -8.74228e-08Z" fill="#2B3E80"/>
<path d="M256 -8.74228e-08L255 0L255 14L256 14L256 -8.74228e-08Z" fill="#2B3E80"/>
<path d="M138 7H261" stroke="#2B3E80" stroke-width="2"/>
<path opacity="0.4" d="M144 6H255V0L144 6Z" fill="#2B3E80"/>
<path d="M144 14H143V28H144V14Z" fill="#2B3E80"/>
<path d="M256 14H255V28H256V14Z" fill="#2B3E80"/>
<path d="M138 21L261 21" stroke="#2B3E80" stroke-width="2"/>
<g opacity="0.4">
<path d="M194 20L255 20L255 14L194 20Z" fill="#2B3E80"/>
<path d="M205 22L144 22L144 28L205 22Z" fill="#2B3E80"/>
</g>
<path d="M138 35H261" stroke="#2B3E80" stroke-width="2"/>
<g opacity="0.4">
<path d="M194 34.2856L255 34.2856L255 29.9999L194 34.2856Z" fill="#2B3E80"/>
<path d="M205 35.7144L144 35.7144L144 40.0001L205 35.7144Z" fill="#2B3E80"/>
</g>
<path d="M144 36H143V40H144V36Z" fill="#2B3E80"/>
<path d="M152 36H151V39.5H152V36Z" fill="#2B3E80"/>
<path d="M160 36H159V39H160V36Z" fill="#2B3E80"/>
<path d="M168 36H167V38.5H168V36Z" fill="#2B3E80"/>
<path d="M176 36H175V38H176V36Z" fill="#2B3E80"/>
<path d="M184 36H183V37H184V36Z" fill="#2B3E80"/>
<path d="M192 36H191V36.5H192V36Z" fill="#2B3E80"/>
<path d="M255 34L256 34L256 30L255 30L255 34Z" fill="#2B3E80"/>
<path d="M247 34L248 34L248 30.5L247 30.5L247 34Z" fill="#2B3E80"/>
<path d="M239 34L240 34L240 31L239 31L239 34Z" fill="#2B3E80"/>
<path d="M231 34L232 34L232 31.5L231 31.5L231 34Z" fill="#2B3E80"/>
<path d="M223 34L224 34L224 32L223 32L223 34Z" fill="#2B3E80"/>
<path d="M215 34L216 34L216 33L215 33L215 34Z" fill="#2B3E80"/>
<path d="M207 34L208 34L208 33.5L207 33.5L207 34Z" fill="#2B3E80"/>
<path d="M201.024 28H198V42H201.024V28Z" fill="#2B3E80"/>
<path d="M277 -8.74228e-08L276 0L276 14L277 14L277 -8.74228e-08Z" fill="#62A4FE"/>
<path d="M389 -8.74228e-08L388 0L388 14L389 14L389 -8.74228e-08Z" fill="#62A4FE"/>
<path d="M271 7H394" stroke="#62A4FE" stroke-width="2"/>
<path opacity="0.4" d="M277 6H388V0L277 6Z" fill="#62A4FE"/>
<path d="M277 14H276V28H277V14Z" fill="#62A4FE"/>
<path d="M389 14H388V28H389V14Z" fill="#62A4FE"/>
<path d="M271 21L394 21" stroke="#62A4FE" stroke-width="2"/>
<g opacity="0.4">
<path d="M327 20L388 20L388 14L327 20Z" fill="#62A4FE"/>
<path d="M338 22L277 22L277 28L338 22Z" fill="#62A4FE"/>
</g>
<path d="M271 35H394" stroke="#62A4FE" stroke-width="2"/>
<g opacity="0.4">
<path d="M327 34.2856L388 34.2856L388 29.9999L327 34.2856Z" fill="#62A4FE"/>
<path d="M338 35.7144L277 35.7144L277 40.0001L338 35.7144Z" fill="#62A4FE"/>
</g>
<path d="M277 36H276V40H277V36Z" fill="#62A4FE"/>
<path d="M285 36H284V39.5H285V36Z" fill="#62A4FE"/>
<path d="M293 36H292V39H293V36Z" fill="#62A4FE"/>
<path d="M301 36H300V38.5H301V36Z" fill="#62A4FE"/>
<path d="M309 36H308V38H309V36Z" fill="#62A4FE"/>
<path d="M317 36H316V37H317V36Z" fill="#62A4FE"/>
<path d="M325 36H324V36.5H325V36Z" fill="#62A4FE"/>
<path d="M388 34L389 34L389 30L388 30L388 34Z" fill="#62A4FE"/>
<path d="M380 34L381 34L381 30.5L380 30.5L380 34Z" fill="#62A4FE"/>
<path d="M372 34L373 34L373 31L372 31L372 34Z" fill="#62A4FE"/>
<path d="M364 34L365 34L365 31.5L364 31.5L364 34Z" fill="#62A4FE"/>
<path d="M356 34L357 34L357 32L356 32L356 34Z" fill="#62A4FE"/>
<path d="M348 34L349 34L349 33L348 33L348 34Z" fill="#62A4FE"/>
<path d="M340 34L341 34L341 33.5L340 33.5L340 34Z" fill="#62A4FE"/>
<path d="M334.024 28H331V42H334.024V28Z" fill="#62A4FE"/>
<path d="M11 42L10 42L10 56L11 56L11 42Z" fill="white"/>
<path d="M123 42L122 42L122 56L123 56L123 42Z" fill="white"/>
<path d="M5 49H128" stroke="white" stroke-width="2"/>
<path opacity="0.4" d="M11 48H122V42L11 48Z" fill="white"/>
<path d="M11 56H10V70H11V56Z" fill="white"/>
<path d="M123 56H122V70H123V56Z" fill="white"/>
<path d="M5 63L128 63" stroke="white" stroke-width="2"/>
<g opacity="0.4">
<path d="M61 62L122 62L122 56L61 62Z" fill="white"/>
<path d="M72 64L11 64L11 70L72 64Z" fill="white"/>
</g>
<path d="M5 77H128" stroke="white" stroke-width="2"/>
<g opacity="0.4">
<path d="M61 76.2856L122 76.2856L122 71.9999L61 76.2856Z" fill="white"/>
<path d="M72 77.7144L11 77.7144L11 82.0001L72 77.7144Z" fill="white"/>
</g>
<path d="M11 78H10V82H11V78Z" fill="white"/>
<path d="M19 78H18V81.5H19V78Z" fill="white"/>
<path d="M27 78H26V81H27V78Z" fill="white"/>
<path d="M35 78H34V80.5H35V78Z" fill="white"/>
<path d="M43 78H42V80H43V78Z" fill="white"/>
<path d="M51 78H50V79H51V78Z" fill="white"/>
<path d="M59 78H58V78.5H59V78Z" fill="white"/>
<path d="M122 76L123 76L123 72L122 72L122 76Z" fill="white"/>
<path d="M114 76L115 76L115 72.5L114 72.5L114 76Z" fill="white"/>
<path d="M106 76L107 76L107 73L106 73L106 76Z" fill="white"/>
<path d="M98 76L99 76L99 73.5L98 73.5L98 76Z" fill="white"/>
<path d="M90 76L91 76L91 74L90 74L90 76Z" fill="white"/>
<path d="M82 76L83 76L83 75L82 75L82 76Z" fill="white"/>
<path d="M74 76L75 76L75 75.5L74 75.5L74 76Z" fill="white"/>
<path d="M68.0244 70H65V84H68.0244V70Z" fill="white"/>
<path d="M145 42L144 42L144 56L145 56L145 42Z" fill="#5E72BA"/>
<path d="M257 42L256 42L256 56L257 56L257 42Z" fill="#5E72BA"/>
<path d="M139 49H262" stroke="#5E72BA" stroke-width="2"/>
<path opacity="0.4" d="M145 48H256V42L145 48Z" fill="#5E72BA"/>
<path d="M145 56H144V70H145V56Z" fill="#5E72BA"/>
<path d="M257 56H256V70H257V56Z" fill="#5E72BA"/>
<path d="M139 63L262 63" stroke="#5E72BA" stroke-width="2"/>
<g opacity="0.4">
<path d="M195 62L256 62L256 56L195 62Z" fill="#5E72BA"/>
<path d="M206 64L145 64L145 70L206 64Z" fill="#5E72BA"/>
</g>
<path d="M139 77H262" stroke="#5E72BA" stroke-width="2"/>
<g opacity="0.4">
<path d="M195 76.2856L256 76.2856L256 71.9999L195 76.2856Z" fill="#5E72BA"/>
<path d="M206 77.7144L145 77.7144L145 82.0001L206 77.7144Z" fill="#5E72BA"/>
</g>
<path d="M145 78H144V82H145V78Z" fill="#5E72BA"/>
<path d="M153 78H152V81.5H153V78Z" fill="#5E72BA"/>
<path d="M161 78H160V81H161V78Z" fill="#5E72BA"/>
<path d="M169 78H168V80.5H169V78Z" fill="#5E72BA"/>
<path d="M177 78H176V80H177V78Z" fill="#5E72BA"/>
<path d="M185 78H184V79H185V78Z" fill="#5E72BA"/>
<path d="M193 78H192V78.5H193V78Z" fill="#5E72BA"/>
<path d="M256 76L257 76L257 72L256 72L256 76Z" fill="#5E72BA"/>
<path d="M248 76L249 76L249 72.5L248 72.5L248 76Z" fill="#5E72BA"/>
<path d="M240 76L241 76L241 73L240 73L240 76Z" fill="#5E72BA"/>
<path d="M232 76L233 76L233 73.5L232 73.5L232 76Z" fill="#5E72BA"/>
<path d="M224 76L225 76L225 74L224 74L224 76Z" fill="#5E72BA"/>
<path d="M216 76L217 76L217 75L216 75L216 76Z" fill="#5E72BA"/>
<path d="M208 76L209 76L209 75.5L208 75.5L208 76Z" fill="#5E72BA"/>
<path d="M202.024 70H199V84H202.024V70Z" fill="#5E72BA"/>
<path d="M278 42L277 42L277 56L278 56L278 42Z" fill="#1438B8"/>
<path d="M390 42L389 42L389 56L390 56L390 42Z" fill="#1438B8"/>
<path d="M272 49H395" stroke="#1438B8" stroke-width="2"/>
<path opacity="0.4" d="M278 48H389V42L278 48Z" fill="#1438B8"/>
<path d="M278 56H277V70H278V56Z" fill="#1438B8"/>
<path d="M390 56H389V70H390V56Z" fill="#1438B8"/>
<path d="M272 63L395 63" stroke="#1438B8" stroke-width="2"/>
<g opacity="0.4">
<path d="M328 62L389 62L389 56L328 62Z" fill="#1438B8"/>
<path d="M339 64L278 64L278 70L339 64Z" fill="#1438B8"/>
</g>
<path d="M272 77H395" stroke="#1438B8" stroke-width="2"/>
<g opacity="0.4">
<path d="M328 76.2856L389 76.2856L389 71.9999L328 76.2856Z" fill="#1438B8"/>
<path d="M339 77.7144L278 77.7144L278 82.0001L339 77.7144Z" fill="#1438B8"/>
</g>
<path d="M278 78H277V82H278V78Z" fill="#1438B8"/>
<path d="M286 78H285V81.5H286V78Z" fill="#1438B8"/>
<path d="M294 78H293V81H294V78Z" fill="#1438B8"/>
<path d="M302 78H301V80.5H302V78Z" fill="#1438B8"/>
<path d="M310 78H309V80H310V78Z" fill="#1438B8"/>
<path d="M318 78H317V79H318V78Z" fill="#1438B8"/>
<path d="M326 78H325V78.5H326V78Z" fill="#1438B8"/>
<path d="M389 76L390 76L390 72L389 72L389 76Z" fill="#1438B8"/>
<path d="M381 76L382 76L382 72.5L381 72.5L381 76Z" fill="#1438B8"/>
<path d="M373 76L374 76L374 73L373 73L373 76Z" fill="#1438B8"/>
<path d="M365 76L366 76L366 73.5L365 73.5L365 76Z" fill="#1438B8"/>
<path d="M357 76L358 76L358 74L357 74L357 76Z" fill="#1438B8"/>
<path d="M349 76L350 76L350 75L349 75L349 76Z" fill="#1438B8"/>
<path d="M341 76L342 76L342 75.5L341 75.5L341 76Z" fill="#1438B8"/>
<path d="M335.024 70H332V84H335.024V70Z" fill="#1438B8"/>
<path d="M11 -8.74228e-08L10 0L10 14L11 14L11 -8.74228e-08Z" fill="black"/>
<path d="M123 -8.74228e-08L122 0L122 14L123 14L123 -8.74228e-08Z" fill="black"/>
<path d="M5 7H128" stroke="black" stroke-width="2"/>
<path opacity="0.4" d="M11 6H122V0L11 6Z" fill="black"/>
<path d="M11 14H10V28H11V14Z" fill="black"/>
<path d="M123 14H122V28H123V14Z" fill="black"/>
<path d="M5 21L128 21" stroke="black" stroke-width="2"/>
<g opacity="0.4">
<path d="M61 20L122 20L122 14L61 20Z" fill="black"/>
<path d="M72 22L11 22L11 28L72 22Z" fill="black"/>
</g>
<path d="M5 35H128" stroke="black" stroke-width="2"/>
<g opacity="0.4">
<path d="M61 34.2856L122 34.2856L122 29.9999L61 34.2856Z" fill="black"/>
<path d="M72 35.7144L11 35.7144L11 40.0001L72 35.7144Z" fill="black"/>
</g>
<path d="M11 36H10V40H11V36Z" fill="black"/>
<path d="M19 36H18V39.5H19V36Z" fill="black"/>
<path d="M27 36H26V39H27V36Z" fill="black"/>
<path d="M35 36H34V38.5H35V36Z" fill="black"/>
<path d="M43 36H42V38H43V36Z" fill="black"/>
<path d="M51 36H50V37H51V36Z" fill="black"/>
<path d="M59 36H58V36.5H59V36Z" fill="black"/>
<path d="M122 34L123 34L123 30L122 30L122 34Z" fill="black"/>
<path d="M114 34L115 34L115 30.5L114 30.5L114 34Z" fill="black"/>
<path d="M106 34L107 34L107 31L106 31L106 34Z" fill="black"/>
<path d="M98 34L99 34L99 31.5L98 31.5L98 34Z" fill="black"/>
<path d="M90 34L91 34L91 32L90 32L90 34Z" fill="black"/>
<path d="M82 34L83 34L83 33L82 33L82 34Z" fill="black"/>
<path d="M74 34L75 34L75 33.5L74 33.5L74 34Z" fill="black"/>
<path d="M68.0244 28H65V42H68.0244V28Z" fill="black"/>
</svg>
