<svg width="49" height="30" viewBox="0 0 49 30" fill="none" xmlns="http://www.w3.org/2000/svg">
<path d="M0.5 3.5C0.5 1.84315 1.84315 0.5 3.5 0.5H45.5C47.1569 0.5 48.5 1.84315 48.5 3.5V11.5C48.5 13.1569 47.1569 14.5 45.5 14.5H3.5C1.84315 14.5 0.5 13.1569 0.5 11.5V3.5Z" fill="#E3E3E3"/>
<path d="M16.4828 5.216L14.1468 11H13.1748L10.8388 5.216H11.7028C11.7961 5.216 11.8721 5.23867 11.9308 5.284C11.9895 5.32933 12.0335 5.388 12.0628 5.46L13.4268 8.988C13.4721 9.10267 13.5148 9.22933 13.5548 9.368C13.5975 9.504 13.6375 9.64667 13.6748 9.796C13.7068 9.64667 13.7415 9.504 13.7788 9.368C13.8161 9.22933 13.8575 9.10267 13.9028 8.988L15.2588 5.46C15.2801 5.39867 15.3215 5.34267 15.3828 5.292C15.4468 5.24133 15.5241 5.216 15.6148 5.216H16.4828ZM18.9367 8.476C18.9367 8.348 18.918 8.228 18.8807 8.116C18.846 8.00133 18.7927 7.90133 18.7207 7.816C18.6487 7.73067 18.5567 7.664 18.4447 7.616C18.3354 7.56533 18.2074 7.54 18.0607 7.54C17.7754 7.54 17.55 7.62133 17.3847 7.784C17.222 7.94667 17.118 8.17733 17.0727 8.476H18.9367ZM17.0527 9.072C17.0687 9.28267 17.106 9.46533 17.1647 9.62C17.2234 9.772 17.3007 9.89867 17.3967 10C17.4927 10.0987 17.606 10.1733 17.7367 10.224C17.87 10.272 18.0167 10.296 18.1767 10.296C18.3367 10.296 18.474 10.2773 18.5887 10.24C18.706 10.2027 18.8074 10.1613 18.8927 10.116C18.9807 10.0707 19.0567 10.0293 19.1207 9.992C19.1874 9.95467 19.2514 9.936 19.3127 9.936C19.3954 9.936 19.4567 9.96667 19.4967 10.028L19.7807 10.388C19.6714 10.516 19.5487 10.624 19.4127 10.712C19.2767 10.7973 19.134 10.8667 18.9847 10.92C18.838 10.9707 18.6874 11.0067 18.5327 11.028C18.3807 11.0493 18.2327 11.06 18.0887 11.06C17.8034 11.06 17.538 11.0133 17.2927 10.92C17.0474 10.824 16.834 10.684 16.6527 10.5C16.4714 10.3133 16.3287 10.084 16.2247 9.812C16.1207 9.53733 16.0687 9.22 16.0687 8.86C16.0687 8.58 16.114 8.31733 16.2047 8.072C16.2954 7.824 16.4247 7.60933 16.5927 7.428C16.7634 7.244 16.97 7.09867 17.2127 6.992C17.458 6.88533 17.734 6.832 18.0407 6.832C18.2994 6.832 18.538 6.87333 18.7567 6.956C18.9754 7.03867 19.1634 7.16 19.3207 7.32C19.478 7.47733 19.6007 7.672 19.6887 7.904C19.7794 8.13333 19.8247 8.396 19.8247 8.692C19.8247 8.84133 19.8087 8.94267 19.7767 8.996C19.7447 9.04667 19.6834 9.072 19.5927 9.072H17.0527ZM21.4981 7.608C21.6261 7.36267 21.7781 7.17067 21.9541 7.032C22.1301 6.89067 22.3381 6.82 22.5781 6.82C22.7675 6.82 22.9195 6.86133 23.0341 6.944L22.9701 7.684C22.9568 7.732 22.9368 7.76667 22.9101 7.788C22.8861 7.80667 22.8528 7.816 22.8101 7.816C22.7701 7.816 22.7101 7.80933 22.6301 7.796C22.5528 7.78267 22.4768 7.776 22.4021 7.776C22.2928 7.776 22.1955 7.792 22.1101 7.824C22.0248 7.856 21.9475 7.90267 21.8781 7.964C21.8115 8.02267 21.7515 8.09467 21.6981 8.18C21.6475 8.26533 21.5995 8.36267 21.5541 8.472V11H20.5661V6.896H21.1461C21.2475 6.896 21.3181 6.91467 21.3581 6.952C21.3981 6.98667 21.4248 7.05067 21.4381 7.144L21.4981 7.608ZM27.6905 11H26.7025V7.636H24.7985V9.86C24.7985 9.988 24.8292 10.088 24.8905 10.16C24.9545 10.232 25.0412 10.268 25.1505 10.268C25.2118 10.268 25.2625 10.2613 25.3025 10.248C25.3452 10.232 25.3812 10.216 25.4105 10.2C25.4425 10.184 25.4705 10.1693 25.4945 10.156C25.5185 10.14 25.5425 10.132 25.5665 10.132C25.5958 10.132 25.6198 10.14 25.6385 10.156C25.6572 10.1693 25.6772 10.1907 25.6985 10.22L25.9945 10.7C25.8505 10.82 25.6852 10.9107 25.4985 10.972C25.3118 11.0333 25.1185 11.064 24.9185 11.064C24.5612 11.064 24.2865 10.964 24.0945 10.764C23.9052 10.5613 23.8105 10.2827 23.8105 9.928V7.636H23.3905C23.3372 7.636 23.2918 7.61867 23.2545 7.584C23.2172 7.54933 23.1985 7.49733 23.1985 7.428V7.036L23.8585 6.924L24.0665 5.808C24.0798 5.75467 24.1052 5.71333 24.1425 5.684C24.1798 5.65467 24.2278 5.64 24.2865 5.64H24.7985V6.932H27.6905V11ZM27.8625 5.684C27.8625 5.76933 27.8452 5.85067 27.8105 5.928C27.7758 6.00267 27.7292 6.068 27.6705 6.124C27.6145 6.18 27.5465 6.22533 27.4665 6.26C27.3892 6.292 27.3065 6.308 27.2185 6.308C27.1332 6.308 27.0532 6.292 26.9785 6.26C26.9038 6.22533 26.8385 6.18 26.7825 6.124C26.7265 6.068 26.6812 6.00267 26.6465 5.928C26.6145 5.85067 26.5985 5.76933 26.5985 5.684C26.5985 5.596 26.6145 5.51467 26.6465 5.44C26.6812 5.36267 26.7265 5.296 26.7825 5.24C26.8385 5.18133 26.9038 5.136 26.9785 5.104C27.0532 5.06933 27.1332 5.052 27.2185 5.052C27.3065 5.052 27.3892 5.06933 27.4665 5.104C27.5465 5.136 27.6145 5.18133 27.6705 5.24C27.7292 5.296 27.7758 5.36267 27.8105 5.44C27.8452 5.51467 27.8625 5.596 27.8625 5.684ZM31.6389 7.764C31.6096 7.80133 31.5803 7.83067 31.5509 7.852C31.5243 7.87333 31.4843 7.884 31.4309 7.884C31.3803 7.884 31.3309 7.86933 31.2829 7.84C31.2349 7.808 31.1776 7.77333 31.1109 7.736C31.0443 7.696 30.9643 7.66133 30.8709 7.632C30.7803 7.6 30.6669 7.584 30.5309 7.584C30.3576 7.584 30.2056 7.616 30.0749 7.68C29.9443 7.74133 29.8349 7.83067 29.7469 7.948C29.6616 8.06533 29.5976 8.208 29.5549 8.376C29.5123 8.54133 29.4909 8.72933 29.4909 8.94C29.4909 9.15867 29.5136 9.35333 29.5589 9.524C29.6069 9.69467 29.6749 9.83867 29.7629 9.956C29.8509 10.0707 29.9576 10.1587 30.0829 10.22C30.2083 10.2787 30.3496 10.308 30.5069 10.308C30.6643 10.308 30.7909 10.2893 30.8869 10.252C30.9856 10.212 31.0683 10.1693 31.1349 10.124C31.2016 10.076 31.2589 10.0333 31.3069 9.996C31.3576 9.956 31.4136 9.936 31.4749 9.936C31.5549 9.936 31.6149 9.96667 31.6549 10.028L31.9389 10.388C31.8296 10.516 31.7109 10.624 31.5829 10.712C31.4549 10.7973 31.3216 10.8667 31.1829 10.92C31.0469 10.9707 30.9056 11.0067 30.7589 11.028C30.6149 11.0493 30.4709 11.06 30.3269 11.06C30.0736 11.06 29.8349 11.0133 29.6109 10.92C29.3869 10.824 29.1909 10.6853 29.0229 10.504C28.8549 10.3227 28.7216 10.1013 28.6229 9.84C28.5269 9.576 28.4789 9.276 28.4789 8.94C28.4789 8.63867 28.5216 8.36 28.6069 8.104C28.6949 7.84533 28.8229 7.62267 28.9909 7.436C29.1589 7.24667 29.3669 7.09867 29.6149 6.992C29.8629 6.88533 30.1483 6.832 30.4709 6.832C30.7776 6.832 31.0456 6.88133 31.2749 6.98C31.5069 7.07867 31.7149 7.22 31.8989 7.404L31.6389 7.764ZM34.7263 9.248C34.441 9.26133 34.201 9.28667 34.0063 9.324C33.8116 9.35867 33.6556 9.404 33.5383 9.46C33.421 9.516 33.337 9.58133 33.2863 9.656C33.2356 9.73067 33.2103 9.812 33.2103 9.9C33.2103 10.0733 33.261 10.1973 33.3623 10.272C33.4663 10.3467 33.601 10.384 33.7663 10.384C33.969 10.384 34.1436 10.348 34.2903 10.276C34.4396 10.2013 34.585 10.0893 34.7263 9.94V9.248ZM32.4623 7.468C32.9343 7.036 33.5023 6.82 34.1663 6.82C34.4063 6.82 34.621 6.86 34.8103 6.94C34.9996 7.01733 35.1596 7.12667 35.2903 7.268C35.421 7.40667 35.5196 7.57333 35.5863 7.768C35.6556 7.96267 35.6903 8.176 35.6903 8.408V11H35.2423C35.149 11 35.077 10.9867 35.0263 10.96C34.9756 10.9307 34.9356 10.8733 34.9063 10.788L34.8183 10.492C34.7143 10.5853 34.613 10.668 34.5143 10.74C34.4156 10.8093 34.313 10.868 34.2063 10.916C34.0996 10.964 33.985 11 33.8623 11.024C33.7423 11.0507 33.609 11.064 33.4623 11.064C33.289 11.064 33.129 11.0413 32.9823 10.996C32.8356 10.948 32.709 10.8773 32.6023 10.784C32.4956 10.6907 32.413 10.5747 32.3543 10.436C32.2956 10.2973 32.2663 10.136 32.2663 9.952C32.2663 9.848 32.2836 9.74533 32.3183 9.644C32.353 9.54 32.409 9.44133 32.4863 9.348C32.5663 9.25467 32.669 9.16667 32.7943 9.084C32.9196 9.00133 33.073 8.92933 33.2543 8.868C33.4383 8.80667 33.6516 8.75733 33.8943 8.72C34.137 8.68 34.4143 8.656 34.7263 8.648V8.408C34.7263 8.13333 34.6676 7.93067 34.5503 7.8C34.433 7.66667 34.2636 7.6 34.0423 7.6C33.8823 7.6 33.749 7.61867 33.6423 7.656C33.5383 7.69333 33.4463 7.736 33.3663 7.784C33.2863 7.82933 33.213 7.87067 33.1463 7.908C33.0823 7.94533 33.0103 7.964 32.9303 7.964C32.861 7.964 32.8023 7.94667 32.7543 7.912C32.7063 7.87467 32.6676 7.832 32.6383 7.784L32.4623 7.468ZM37.6208 5.056V11H36.6328V5.056H37.6208Z" fill="black"/>
<path d="M3.5 1H45.5V0H3.5V1ZM48 3.5V11.5H49V3.5H48ZM45.5 14H3.5V15H45.5V14ZM1 11.5V3.5H0V11.5H1ZM3.5 14C2.11929 14 1 12.8807 1 11.5H0C0 13.433 1.567 15 3.5 15V14ZM48 11.5C48 12.8807 46.8807 14 45.5 14V15C47.433 15 49 13.433 49 11.5H48ZM45.5 1C46.8807 1 48 2.11929 48 3.5H49C49 1.567 47.433 0 45.5 0V1ZM3.5 0C1.567 0 0 1.567 0 3.5H1C1 2.11929 2.11929 1 3.5 1V0Z" fill="#979797"/>
<path d="M0.5 18.5C0.5 16.8431 1.84315 15.5 3.5 15.5H45.5C47.1569 15.5 48.5 16.8431 48.5 18.5V26.5C48.5 28.1569 47.1569 29.5 45.5 29.5H3.5C1.84315 29.5 0.5 28.1569 0.5 26.5V18.5Z" fill="#E3E3E3"/>
<path d="M2 19C2 17.8954 2.89543 17 4 17H45C46.1046 17 47 17.8954 47 19V26C47 27.1046 46.1046 28 45 28H4C2.89543 28 2 27.1046 2 26V19Z" fill="#FF9300"/>
<path d="M16.4828 20.216L14.1468 26H13.1748L10.8388 20.216H11.7028C11.7961 20.216 11.8721 20.2387 11.9308 20.284C11.9895 20.3293 12.0335 20.388 12.0628 20.46L13.4268 23.988C13.4721 24.1027 13.5148 24.2293 13.5548 24.368C13.5975 24.504 13.6375 24.6467 13.6748 24.796C13.7068 24.6467 13.7415 24.504 13.7788 24.368C13.8161 24.2293 13.8575 24.1027 13.9028 23.988L15.2588 20.46C15.2801 20.3987 15.3215 20.3427 15.3828 20.292C15.4468 20.2413 15.5241 20.216 15.6148 20.216H16.4828ZM18.9367 23.476C18.9367 23.348 18.918 23.228 18.8807 23.116C18.846 23.0013 18.7927 22.9013 18.7207 22.816C18.6487 22.7307 18.5567 22.664 18.4447 22.616C18.3354 22.5653 18.2074 22.54 18.0607 22.54C17.7754 22.54 17.55 22.6213 17.3847 22.784C17.222 22.9467 17.118 23.1773 17.0727 23.476H18.9367ZM17.0527 24.072C17.0687 24.2827 17.106 24.4653 17.1647 24.62C17.2234 24.772 17.3007 24.8987 17.3967 25C17.4927 25.0987 17.606 25.1733 17.7367 25.224C17.87 25.272 18.0167 25.296 18.1767 25.296C18.3367 25.296 18.474 25.2773 18.5887 25.24C18.706 25.2027 18.8074 25.1613 18.8927 25.116C18.9807 25.0707 19.0567 25.0293 19.1207 24.992C19.1874 24.9547 19.2514 24.936 19.3127 24.936C19.3954 24.936 19.4567 24.9667 19.4967 25.028L19.7807 25.388C19.6714 25.516 19.5487 25.624 19.4127 25.712C19.2767 25.7973 19.134 25.8667 18.9847 25.92C18.838 25.9707 18.6874 26.0067 18.5327 26.028C18.3807 26.0493 18.2327 26.06 18.0887 26.06C17.8034 26.06 17.538 26.0133 17.2927 25.92C17.0474 25.824 16.834 25.684 16.6527 25.5C16.4714 25.3133 16.3287 25.084 16.2247 24.812C16.1207 24.5373 16.0687 24.22 16.0687 23.86C16.0687 23.58 16.114 23.3173 16.2047 23.072C16.2954 22.824 16.4247 22.6093 16.5927 22.428C16.7634 22.244 16.97 22.0987 17.2127 21.992C17.458 21.8853 17.734 21.832 18.0407 21.832C18.2994 21.832 18.538 21.8733 18.7567 21.956C18.9754 22.0387 19.1634 22.16 19.3207 22.32C19.478 22.4773 19.6007 22.672 19.6887 22.904C19.7794 23.1333 19.8247 23.396 19.8247 23.692C19.8247 23.8413 19.8087 23.9427 19.7767 23.996C19.7447 24.0467 19.6834 24.072 19.5927 24.072H17.0527ZM21.4981 22.608C21.6261 22.3627 21.7781 22.1707 21.9541 22.032C22.1301 21.8907 22.3381 21.82 22.5781 21.82C22.7675 21.82 22.9195 21.8613 23.0341 21.944L22.9701 22.684C22.9568 22.732 22.9368 22.7667 22.9101 22.788C22.8861 22.8067 22.8528 22.816 22.8101 22.816C22.7701 22.816 22.7101 22.8093 22.6301 22.796C22.5528 22.7827 22.4768 22.776 22.4021 22.776C22.2928 22.776 22.1955 22.792 22.1101 22.824C22.0248 22.856 21.9475 22.9027 21.8781 22.964C21.8115 23.0227 21.7515 23.0947 21.6981 23.18C21.6475 23.2653 21.5995 23.3627 21.5541 23.472V26H20.5661V21.896H21.1461C21.2475 21.896 21.3181 21.9147 21.3581 21.952C21.3981 21.9867 21.4248 22.0507 21.4381 22.144L21.4981 22.608ZM27.6905 26H26.7025V22.636H24.7985V24.86C24.7985 24.988 24.8292 25.088 24.8905 25.16C24.9545 25.232 25.0412 25.268 25.1505 25.268C25.2118 25.268 25.2625 25.2613 25.3025 25.248C25.3452 25.232 25.3812 25.216 25.4105 25.2C25.4425 25.184 25.4705 25.1693 25.4945 25.156C25.5185 25.14 25.5425 25.132 25.5665 25.132C25.5958 25.132 25.6198 25.14 25.6385 25.156C25.6572 25.1693 25.6772 25.1907 25.6985 25.22L25.9945 25.7C25.8505 25.82 25.6852 25.9107 25.4985 25.972C25.3118 26.0333 25.1185 26.064 24.9185 26.064C24.5612 26.064 24.2865 25.964 24.0945 25.764C23.9052 25.5613 23.8105 25.2827 23.8105 24.928V22.636H23.3905C23.3372 22.636 23.2918 22.6187 23.2545 22.584C23.2172 22.5493 23.1985 22.4973 23.1985 22.428V22.036L23.8585 21.924L24.0665 20.808C24.0798 20.7547 24.1052 20.7133 24.1425 20.684C24.1798 20.6547 24.2278 20.64 24.2865 20.64H24.7985V21.932H27.6905V26ZM27.8625 20.684C27.8625 20.7693 27.8452 20.8507 27.8105 20.928C27.7758 21.0027 27.7292 21.068 27.6705 21.124C27.6145 21.18 27.5465 21.2253 27.4665 21.26C27.3892 21.292 27.3065 21.308 27.2185 21.308C27.1332 21.308 27.0532 21.292 26.9785 21.26C26.9038 21.2253 26.8385 21.18 26.7825 21.124C26.7265 21.068 26.6812 21.0027 26.6465 20.928C26.6145 20.8507 26.5985 20.7693 26.5985 20.684C26.5985 20.596 26.6145 20.5147 26.6465 20.44C26.6812 20.3627 26.7265 20.296 26.7825 20.24C26.8385 20.1813 26.9038 20.136 26.9785 20.104C27.0532 20.0693 27.1332 20.052 27.2185 20.052C27.3065 20.052 27.3892 20.0693 27.4665 20.104C27.5465 20.136 27.6145 20.1813 27.6705 20.24C27.7292 20.296 27.7758 20.3627 27.8105 20.44C27.8452 20.5147 27.8625 20.596 27.8625 20.684ZM31.6389 22.764C31.6096 22.8013 31.5803 22.8307 31.5509 22.852C31.5243 22.8733 31.4843 22.884 31.4309 22.884C31.3803 22.884 31.3309 22.8693 31.2829 22.84C31.2349 22.808 31.1776 22.7733 31.1109 22.736C31.0443 22.696 30.9643 22.6613 30.8709 22.632C30.7803 22.6 30.6669 22.584 30.5309 22.584C30.3576 22.584 30.2056 22.616 30.0749 22.68C29.9443 22.7413 29.8349 22.8307 29.7469 22.948C29.6616 23.0653 29.5976 23.208 29.5549 23.376C29.5123 23.5413 29.4909 23.7293 29.4909 23.94C29.4909 24.1587 29.5136 24.3533 29.5589 24.524C29.6069 24.6947 29.6749 24.8387 29.7629 24.956C29.8509 25.0707 29.9576 25.1587 30.0829 25.22C30.2083 25.2787 30.3496 25.308 30.5069 25.308C30.6643 25.308 30.7909 25.2893 30.8869 25.252C30.9856 25.212 31.0683 25.1693 31.1349 25.124C31.2016 25.076 31.2589 25.0333 31.3069 24.996C31.3576 24.956 31.4136 24.936 31.4749 24.936C31.5549 24.936 31.6149 24.9667 31.6549 25.028L31.9389 25.388C31.8296 25.516 31.7109 25.624 31.5829 25.712C31.4549 25.7973 31.3216 25.8667 31.1829 25.92C31.0469 25.9707 30.9056 26.0067 30.7589 26.028C30.6149 26.0493 30.4709 26.06 30.3269 26.06C30.0736 26.06 29.8349 26.0133 29.6109 25.92C29.3869 25.824 29.1909 25.6853 29.0229 25.504C28.8549 25.3227 28.7216 25.1013 28.6229 24.84C28.5269 24.576 28.4789 24.276 28.4789 23.94C28.4789 23.6387 28.5216 23.36 28.6069 23.104C28.6949 22.8453 28.8229 22.6227 28.9909 22.436C29.1589 22.2467 29.3669 22.0987 29.6149 21.992C29.8629 21.8853 30.1483 21.832 30.4709 21.832C30.7776 21.832 31.0456 21.8813 31.2749 21.98C31.5069 22.0787 31.7149 22.22 31.8989 22.404L31.6389 22.764ZM34.7263 24.248C34.441 24.2613 34.201 24.2867 34.0063 24.324C33.8116 24.3587 33.6556 24.404 33.5383 24.46C33.421 24.516 33.337 24.5813 33.2863 24.656C33.2356 24.7307 33.2103 24.812 33.2103 24.9C33.2103 25.0733 33.261 25.1973 33.3623 25.272C33.4663 25.3467 33.601 25.384 33.7663 25.384C33.969 25.384 34.1436 25.348 34.2903 25.276C34.4396 25.2013 34.585 25.0893 34.7263 24.94V24.248ZM32.4623 22.468C32.9343 22.036 33.5023 21.82 34.1663 21.82C34.4063 21.82 34.621 21.86 34.8103 21.94C34.9996 22.0173 35.1596 22.1267 35.2903 22.268C35.421 22.4067 35.5196 22.5733 35.5863 22.768C35.6556 22.9627 35.6903 23.176 35.6903 23.408V26H35.2423C35.149 26 35.077 25.9867 35.0263 25.96C34.9756 25.9307 34.9356 25.8733 34.9063 25.788L34.8183 25.492C34.7143 25.5853 34.613 25.668 34.5143 25.74C34.4156 25.8093 34.313 25.868 34.2063 25.916C34.0996 25.964 33.985 26 33.8623 26.024C33.7423 26.0507 33.609 26.064 33.4623 26.064C33.289 26.064 33.129 26.0413 32.9823 25.996C32.8356 25.948 32.709 25.8773 32.6023 25.784C32.4956 25.6907 32.413 25.5747 32.3543 25.436C32.2956 25.2973 32.2663 25.136 32.2663 24.952C32.2663 24.848 32.2836 24.7453 32.3183 24.644C32.353 24.54 32.409 24.4413 32.4863 24.348C32.5663 24.2547 32.669 24.1667 32.7943 24.084C32.9196 24.0013 33.073 23.9293 33.2543 23.868C33.4383 23.8067 33.6516 23.7573 33.8943 23.72C34.137 23.68 34.4143 23.656 34.7263 23.648V23.408C34.7263 23.1333 34.6676 22.9307 34.5503 22.8C34.433 22.6667 34.2636 22.6 34.0423 22.6C33.8823 22.6 33.749 22.6187 33.6423 22.656C33.5383 22.6933 33.4463 22.736 33.3663 22.784C33.2863 22.8293 33.213 22.8707 33.1463 22.908C33.0823 22.9453 33.0103 22.964 32.9303 22.964C32.861 22.964 32.8023 22.9467 32.7543 22.912C32.7063 22.8747 32.6676 22.832 32.6383 22.784L32.4623 22.468ZM37.6208 20.056V26H36.6328V20.056H37.6208Z" fill="black"/>
<path d="M3.5 16H45.5V15H3.5V16ZM48 18.5V26.5H49V18.5H48ZM45.5 29H3.5V30H45.5V29ZM1 26.5V18.5H0V26.5H1ZM3.5 29C2.11929 29 1 27.8807 1 26.5H0C0 28.433 1.567 30 3.5 30V29ZM48 26.5C48 27.8807 46.8807 29 45.5 29V30C47.433 30 49 28.433 49 26.5H48ZM45.5 16C46.8807 16 48 17.1193 48 18.5H49C49 16.567 47.433 15 45.5 15V16ZM3.5 15C1.567 15 0 16.567 0 18.5H1C1 17.1193 2.11929 16 3.5 16V15Z" fill="#979797"/>
</svg>
