<svg width="51" height="117" viewBox="0 0 51 117" fill="none" xmlns="http://www.w3.org/2000/svg">
<path d="M0.5 3.5C0.5 1.84315 1.84315 0.5 3.5 0.5H47.5C49.1569 0.5 50.5 1.84315 50.5 3.5V35.5C50.5 37.1569 49.1569 38.5 47.5 38.5H3.5C1.84315 38.5 0.5 37.1569 0.5 35.5V3.5Z" fill="#E3E3E3"/>
<path d="M2.5 2.5H48.5V11H2.5V2.5Z" fill="#FF9A10"/>
<path d="M2.5 3.5C2.5 2.94772 2.94772 2.5 3.5 2.5H47.5C48.0523 2.5 48.5 2.94772 48.5 3.5V11H2.5V3.5Z" fill="#FF9A10"/>
<path d="M2.5 3.5C2.5 2.94772 2.94772 2.5 3.5 2.5H47.5C48.0523 2.5 48.5 2.94772 48.5 3.5V11H2.5V3.5Z" stroke="#FF9A10"/>
<path d="M13.7637 5.072V6.784H15.9317V7.644H13.7637V10H12.6837V4.216H16.3317V5.072H13.7637ZM17.5506 6.608C17.6786 6.36267 17.8306 6.17067 18.0066 6.032C18.1826 5.89067 18.3906 5.82 18.6306 5.82C18.82 5.82 18.972 5.86133 19.0866 5.944L19.0226 6.684C19.0093 6.732 18.9893 6.76667 18.9626 6.788C18.9386 6.80667 18.9053 6.816 18.8626 6.816C18.8226 6.816 18.7626 6.80933 18.6826 6.796C18.6053 6.78267 18.5293 6.776 18.4546 6.776C18.3453 6.776 18.248 6.792 18.1626 6.824C18.0773 6.856 18 6.90267 17.9306 6.964C17.864 7.02267 17.804 7.09467 17.7506 7.18C17.7 7.26533 17.652 7.36267 17.6066 7.472V10H16.6186V5.896H17.1986C17.3 5.896 17.3706 5.91467 17.4106 5.952C17.4506 5.98667 17.4773 6.05067 17.4906 6.144L17.5506 6.608ZM22.0098 7.476C22.0098 7.348 21.9911 7.228 21.9538 7.116C21.9191 7.00133 21.8658 6.90133 21.7938 6.816C21.7218 6.73067 21.6298 6.664 21.5178 6.616C21.4085 6.56533 21.2805 6.54 21.1338 6.54C20.8485 6.54 20.6231 6.62133 20.4578 6.784C20.2951 6.94667 20.1911 7.17733 20.1458 7.476H22.0098ZM20.1258 8.072C20.1418 8.28267 20.1791 8.46533 20.2378 8.62C20.2965 8.772 20.3738 8.89867 20.4698 9C20.5658 9.09867 20.6791 9.17333 20.8098 9.224C20.9431 9.272 21.0898 9.296 21.2498 9.296C21.4098 9.296 21.5471 9.27733 21.6618 9.24C21.7791 9.20267 21.8805 9.16133 21.9658 9.116C22.0538 9.07067 22.1298 9.02933 22.1938 8.992C22.2605 8.95467 22.3245 8.936 22.3858 8.936C22.4685 8.936 22.5298 8.96667 22.5698 9.028L22.8538 9.388C22.7445 9.516 22.6218 9.624 22.4858 9.712C22.3498 9.79733 22.2071 9.86667 22.0578 9.92C21.9111 9.97067 21.7605 10.0067 21.6058 10.028C21.4538 10.0493 21.3058 10.06 21.1618 10.06C20.8765 10.06 20.6111 10.0133 20.3658 9.92C20.1205 9.824 19.9071 9.684 19.7258 9.5C19.5445 9.31333 19.4018 9.084 19.2978 8.812C19.1938 8.53733 19.1418 8.22 19.1418 7.86C19.1418 7.58 19.1871 7.31733 19.2778 7.072C19.3685 6.824 19.4978 6.60933 19.6658 6.428C19.8365 6.244 20.0431 6.09867 20.2858 5.992C20.5311 5.88533 20.8071 5.832 21.1138 5.832C21.3725 5.832 21.6111 5.87333 21.8298 5.956C22.0485 6.03867 22.2365 6.16 22.3938 6.32C22.5511 6.47733 22.6738 6.672 22.7618 6.904C22.8525 7.13333 22.8978 7.396 22.8978 7.692C22.8978 7.84133 22.8818 7.94267 22.8498 7.996C22.8178 8.04667 22.7565 8.072 22.6658 8.072H20.1258ZM26.1633 7.476C26.1633 7.348 26.1446 7.228 26.1073 7.116C26.0726 7.00133 26.0193 6.90133 25.9473 6.816C25.8753 6.73067 25.7833 6.664 25.6713 6.616C25.5619 6.56533 25.4339 6.54 25.2873 6.54C25.0019 6.54 24.7766 6.62133 24.6113 6.784C24.4486 6.94667 24.3446 7.17733 24.2993 7.476H26.1633ZM24.2793 8.072C24.2953 8.28267 24.3326 8.46533 24.3913 8.62C24.4499 8.772 24.5273 8.89867 24.6233 9C24.7193 9.09867 24.8326 9.17333 24.9633 9.224C25.0966 9.272 25.2433 9.296 25.4033 9.296C25.5633 9.296 25.7006 9.27733 25.8153 9.24C25.9326 9.20267 26.0339 9.16133 26.1193 9.116C26.2073 9.07067 26.2833 9.02933 26.3473 8.992C26.4139 8.95467 26.4779 8.936 26.5393 8.936C26.6219 8.936 26.6833 8.96667 26.7233 9.028L27.0073 9.388C26.8979 9.516 26.7753 9.624 26.6393 9.712C26.5033 9.79733 26.3606 9.86667 26.2113 9.92C26.0646 9.97067 25.9139 10.0067 25.7593 10.028C25.6073 10.0493 25.4593 10.06 25.3153 10.06C25.0299 10.06 24.7646 10.0133 24.5193 9.92C24.2739 9.824 24.0606 9.684 23.8793 9.5C23.6979 9.31333 23.5553 9.084 23.4513 8.812C23.3473 8.53733 23.2952 8.22 23.2952 7.86C23.2952 7.58 23.3406 7.31733 23.4313 7.072C23.5219 6.824 23.6513 6.60933 23.8193 6.428C23.9899 6.244 24.1966 6.09867 24.4393 5.992C24.6846 5.88533 24.9606 5.832 25.2673 5.832C25.5259 5.832 25.7646 5.87333 25.9833 5.956C26.2019 6.03867 26.3899 6.16 26.5473 6.32C26.7046 6.47733 26.8273 6.672 26.9153 6.904C27.0059 7.13333 27.0512 7.396 27.0512 7.692C27.0512 7.84133 27.0353 7.94267 27.0033 7.996C26.9713 8.04667 26.9099 8.072 26.8193 8.072H24.2793ZM28.6047 6.608C28.7327 6.36267 28.8847 6.17067 29.0607 6.032C29.2367 5.89067 29.4447 5.82 29.6847 5.82C29.874 5.82 30.026 5.86133 30.1407 5.944L30.0767 6.684C30.0634 6.732 30.0434 6.76667 30.0167 6.788C29.9927 6.80667 29.9594 6.816 29.9167 6.816C29.8767 6.816 29.8167 6.80933 29.7367 6.796C29.6594 6.78267 29.5834 6.776 29.5087 6.776C29.3994 6.776 29.302 6.792 29.2167 6.824C29.1314 6.856 29.054 6.90267 28.9847 6.964C28.918 7.02267 28.858 7.09467 28.8047 7.18C28.754 7.26533 28.706 7.36267 28.6607 7.472V10H27.6727V5.896H28.2527C28.354 5.896 28.4247 5.91467 28.4647 5.952C28.5047 5.98667 28.5314 6.05067 28.5447 6.144L28.6047 6.608ZM34.0731 5.896V10H33.4691C33.3384 10 33.2557 9.94 33.2211 9.82L33.1531 9.492C32.9851 9.66267 32.7997 9.80133 32.5971 9.908C32.3944 10.012 32.1557 10.064 31.8811 10.064C31.6571 10.064 31.4584 10.0267 31.2851 9.952C31.1144 9.87467 30.9704 9.76667 30.8531 9.628C30.7357 9.48933 30.6464 9.32533 30.5851 9.136C30.5264 8.944 30.4971 8.73333 30.4971 8.504V5.896H31.4851V8.504C31.4851 8.75467 31.5424 8.94933 31.6571 9.088C31.7744 9.224 31.9491 9.292 32.1811 9.292C32.3517 9.292 32.5117 9.25467 32.6611 9.18C32.8104 9.10267 32.9517 8.99733 33.0851 8.864V5.896H34.0731ZM35.8567 6.4C35.9394 6.31733 36.026 6.24133 36.1167 6.172C36.21 6.1 36.3074 6.04 36.4087 5.992C36.5127 5.94133 36.6234 5.90267 36.7407 5.876C36.858 5.84667 36.986 5.832 37.1247 5.832C37.3487 5.832 37.5474 5.87067 37.7207 5.948C37.894 6.02267 38.038 6.12933 38.1527 6.268C38.27 6.404 38.358 6.568 38.4167 6.76C38.478 6.94933 38.5087 7.15867 38.5087 7.388V10H37.5207V7.388C37.5207 7.13733 37.4634 6.944 37.3487 6.808C37.234 6.66933 37.0594 6.6 36.8247 6.6C36.654 6.6 36.494 6.63867 36.3447 6.716C36.1954 6.79333 36.054 6.89867 35.9207 7.032V10H34.9327V5.896H35.5367C35.6647 5.896 35.7487 5.956 35.7887 6.076L35.8567 6.4Z" fill="black"/>
<g opacity="0.75">
<rect x="2.5" y="13.5" width="1" height="46" transform="rotate(-90 2.5 13.5)" fill="#979797"/>
</g>
<path d="M9.16625 19.14H9.41825C9.51958 19.14 9.60358 19.1267 9.67025 19.1C9.73692 19.0707 9.79425 19.0253 9.84225 18.964L11.4383 16.944C11.5049 16.8587 11.5743 16.8 11.6463 16.768C11.7209 16.7333 11.8143 16.716 11.9263 16.716H12.8543L10.9063 19.12C10.7916 19.2667 10.6729 19.3707 10.5503 19.432C10.6383 19.464 10.7169 19.5093 10.7863 19.568C10.8583 19.624 10.9263 19.6987 10.9903 19.792L12.9983 22.5H12.0503C11.9223 22.5 11.8263 22.4827 11.7623 22.448C11.7009 22.4107 11.6489 22.3573 11.6063 22.288L9.97025 20.152C9.91958 20.08 9.86092 20.0293 9.79425 20C9.72758 19.9707 9.63158 19.956 9.50625 19.956H9.16625V22.5H8.09025V16.716H9.16625V19.14ZM15.6458 19.976C15.6458 19.848 15.6271 19.728 15.5898 19.616C15.5551 19.5013 15.5018 19.4013 15.4298 19.316C15.3578 19.2307 15.2658 19.164 15.1538 19.116C15.0444 19.0653 14.9164 19.04 14.7698 19.04C14.4844 19.04 14.2591 19.1213 14.0938 19.284C13.9311 19.4467 13.8271 19.6773 13.7818 19.976H15.6458ZM13.7618 20.572C13.7778 20.7827 13.8151 20.9653 13.8738 21.12C13.9324 21.272 14.0098 21.3987 14.1058 21.5C14.2018 21.5987 14.3151 21.6733 14.4458 21.724C14.5791 21.772 14.7258 21.796 14.8858 21.796C15.0458 21.796 15.1831 21.7773 15.2978 21.74C15.4151 21.7027 15.5164 21.6613 15.6018 21.616C15.6898 21.5707 15.7658 21.5293 15.8298 21.492C15.8964 21.4547 15.9604 21.436 16.0218 21.436C16.1044 21.436 16.1658 21.4667 16.2058 21.528L16.4898 21.888C16.3804 22.016 16.2578 22.124 16.1218 22.212C15.9858 22.2973 15.8431 22.3667 15.6938 22.42C15.5471 22.4707 15.3964 22.5067 15.2418 22.528C15.0898 22.5493 14.9418 22.56 14.7978 22.56C14.5124 22.56 14.2471 22.5133 14.0018 22.42C13.7564 22.324 13.5431 22.184 13.3618 22C13.1804 21.8133 13.0378 21.584 12.9338 21.312C12.8298 21.0373 12.7778 20.72 12.7778 20.36C12.7778 20.08 12.8231 19.8173 12.9138 19.572C13.0044 19.324 13.1338 19.1093 13.3018 18.928C13.4724 18.744 13.6791 18.5987 13.9218 18.492C14.1671 18.3853 14.4431 18.332 14.7498 18.332C15.0084 18.332 15.2471 18.3733 15.4658 18.456C15.6844 18.5387 15.8724 18.66 16.0298 18.82C16.1871 18.9773 16.3098 19.172 16.3978 19.404C16.4884 19.6333 16.5338 19.896 16.5338 20.192C16.5338 20.3413 16.5178 20.4427 16.4858 20.496C16.4538 20.5467 16.3924 20.572 16.3018 20.572H13.7618ZM20.766 18.396L18.53 23.628C18.5007 23.6973 18.462 23.7493 18.414 23.784C18.3687 23.8213 18.298 23.84 18.202 23.84H17.466L18.234 22.192L16.574 18.396H17.442C17.5193 18.396 17.5793 18.4147 17.622 18.452C17.6673 18.4893 17.7007 18.532 17.722 18.58L18.594 20.708C18.6233 20.78 18.6473 20.852 18.666 20.924C18.6873 20.996 18.7073 21.0693 18.726 21.144C18.75 21.0693 18.774 20.996 18.798 20.924C18.822 20.8493 18.8487 20.776 18.878 20.704L19.702 18.58C19.7233 18.5267 19.758 18.4827 19.806 18.448C19.8567 18.4133 19.9127 18.396 19.974 18.396H20.766ZM22.5048 22.564C22.1474 22.564 21.8728 22.464 21.6808 22.264C21.4914 22.0613 21.3968 21.7827 21.3968 21.428V19.136H20.9768C20.9234 19.136 20.8781 19.1187 20.8408 19.084C20.8034 19.0493 20.7848 18.9973 20.7848 18.928V18.536L21.4448 18.428L21.6528 17.308C21.6661 17.2547 21.6914 17.2133 21.7288 17.184C21.7661 17.1547 21.8141 17.14 21.8728 17.14H22.3848V18.432H23.4808V19.136H22.3848V21.36C22.3848 21.488 22.4154 21.588 22.4768 21.66C22.5408 21.732 22.6274 21.768 22.7368 21.768C22.7981 21.768 22.8488 21.7613 22.8888 21.748C22.9314 21.732 22.9674 21.716 22.9968 21.7C23.0288 21.684 23.0568 21.6693 23.0808 21.656C23.1048 21.64 23.1288 21.632 23.1528 21.632C23.1821 21.632 23.2061 21.64 23.2248 21.656C23.2434 21.6693 23.2634 21.6907 23.2848 21.72L23.5808 22.2C23.4368 22.32 23.2714 22.4107 23.0848 22.472C22.8981 22.5333 22.7048 22.564 22.5048 22.564ZM24.9253 19.108C25.0533 18.8627 25.2053 18.6707 25.3813 18.532C25.5573 18.3907 25.7653 18.32 26.0053 18.32C26.1946 18.32 26.3466 18.3613 26.4613 18.444L26.3973 19.184C26.384 19.232 26.364 19.2667 26.3373 19.288C26.3133 19.3067 26.28 19.316 26.2373 19.316C26.1973 19.316 26.1373 19.3093 26.0573 19.296C25.98 19.2827 25.904 19.276 25.8293 19.276C25.72 19.276 25.6226 19.292 25.5373 19.324C25.452 19.356 25.3746 19.4027 25.3053 19.464C25.2386 19.5227 25.1786 19.5947 25.1253 19.68C25.0746 19.7653 25.0266 19.8627 24.9813 19.972V22.5H23.9933V18.396H24.5733C24.6746 18.396 24.7453 18.4147 24.7853 18.452C24.8253 18.4867 24.852 18.5507 24.8653 18.644L24.9253 19.108ZM27.8817 18.396V22.5H26.8897V18.396H27.8817ZM28.0177 17.2C28.0177 17.2853 28.0004 17.3653 27.9657 17.44C27.931 17.5147 27.8844 17.58 27.8257 17.636C27.7697 17.692 27.703 17.7373 27.6257 17.772C27.5484 17.804 27.4657 17.82 27.3777 17.82C27.2924 17.82 27.211 17.804 27.1337 17.772C27.059 17.7373 26.9937 17.692 26.9377 17.636C26.8817 17.58 26.8364 17.5147 26.8017 17.44C26.7697 17.3653 26.7537 17.2853 26.7537 17.2C26.7537 17.112 26.7697 17.0293 26.8017 16.952C26.8364 16.8747 26.8817 16.808 26.9377 16.752C26.9937 16.696 27.059 16.652 27.1337 16.62C27.211 16.5853 27.2924 16.568 27.3777 16.568C27.4657 16.568 27.5484 16.5853 27.6257 16.62C27.703 16.652 27.7697 16.696 27.8257 16.752C27.8844 16.808 27.931 16.8747 27.9657 16.952C28.0004 17.0293 28.0177 17.112 28.0177 17.2ZM30.2689 20.348C30.3916 20.348 30.4983 20.332 30.5889 20.3C30.6796 20.2653 30.7543 20.2187 30.8129 20.16C30.8743 20.1013 30.9196 20.0307 30.9489 19.948C30.9809 19.8653 30.9969 19.7747 30.9969 19.676C30.9969 19.4733 30.9356 19.3133 30.8129 19.196C30.6929 19.076 30.5116 19.016 30.2689 19.016C30.0263 19.016 29.8436 19.076 29.7209 19.196C29.6009 19.3133 29.5409 19.4733 29.5409 19.676C29.5409 19.772 29.5556 19.8613 29.5849 19.944C29.6169 20.0267 29.6623 20.0987 29.7209 20.16C29.7823 20.2187 29.8583 20.2653 29.9489 20.3C30.0423 20.332 30.1489 20.348 30.2689 20.348ZM31.3849 22.684C31.3849 22.604 31.3609 22.5387 31.3129 22.488C31.2649 22.4373 31.1996 22.3987 31.1169 22.372C31.0343 22.3427 30.9369 22.3213 30.8249 22.308C30.7156 22.2947 30.5983 22.2853 30.4729 22.28C30.3503 22.272 30.2223 22.2653 30.0889 22.26C29.9583 22.2547 29.8303 22.244 29.7049 22.228C29.5956 22.2893 29.5063 22.3613 29.4369 22.444C29.3703 22.5267 29.3369 22.6227 29.3369 22.732C29.3369 22.804 29.3543 22.8707 29.3889 22.932C29.4263 22.996 29.4836 23.0507 29.5609 23.096C29.6409 23.1413 29.7436 23.176 29.8689 23.2C29.9943 23.2267 30.1476 23.24 30.3289 23.24C30.5129 23.24 30.6716 23.2253 30.8049 23.196C30.9383 23.1693 31.0476 23.1307 31.1329 23.08C31.2209 23.032 31.2849 22.9733 31.3249 22.904C31.3649 22.8373 31.3849 22.764 31.3849 22.684ZM32.3689 18.536V18.904C32.3689 19.0213 32.2983 19.0933 32.1569 19.12L31.7889 19.188C31.8449 19.3293 31.8729 19.484 31.8729 19.652C31.8729 19.8547 31.8316 20.0387 31.7489 20.204C31.6689 20.3667 31.5569 20.5053 31.4129 20.62C31.2689 20.7347 31.0983 20.824 30.9009 20.888C30.7063 20.9493 30.4956 20.98 30.2689 20.98C30.1889 20.98 30.1116 20.976 30.0369 20.968C29.9623 20.96 29.8889 20.9493 29.8169 20.936C29.6889 21.0133 29.6249 21.1 29.6249 21.196C29.6249 21.2787 29.6623 21.34 29.7369 21.38C29.8143 21.4173 29.9156 21.444 30.0409 21.46C30.1663 21.476 30.3089 21.4867 30.4689 21.492C30.6289 21.4947 30.7929 21.5027 30.9609 21.516C31.1289 21.5293 31.2929 21.5533 31.4529 21.588C31.6129 21.62 31.7556 21.672 31.8809 21.744C32.0063 21.816 32.1063 21.9147 32.1809 22.04C32.2583 22.1627 32.2969 22.3213 32.2969 22.516C32.2969 22.6973 32.2516 22.8733 32.1609 23.044C32.0729 23.2147 31.9436 23.3667 31.7729 23.5C31.6049 23.6333 31.3969 23.74 31.1489 23.82C30.9036 23.9027 30.6236 23.944 30.3089 23.944C29.9996 23.944 29.7303 23.9133 29.5009 23.852C29.2716 23.7933 29.0809 23.7133 28.9289 23.612C28.7769 23.5133 28.6636 23.3987 28.5889 23.268C28.5143 23.1373 28.4769 23.0013 28.4769 22.86C28.4769 22.668 28.5343 22.508 28.6489 22.38C28.7663 22.2493 28.9263 22.1453 29.1289 22.068C29.0196 22.012 28.9329 21.9373 28.8689 21.844C28.8049 21.7507 28.7729 21.628 28.7729 21.476C28.7729 21.4147 28.7836 21.352 28.8049 21.288C28.8289 21.2213 28.8623 21.156 28.9049 21.092C28.9503 21.028 29.0063 20.968 29.0729 20.912C29.1396 20.8533 29.2183 20.8013 29.3089 20.756C29.1009 20.644 28.9369 20.4947 28.8169 20.308C28.6996 20.1213 28.6409 19.9027 28.6409 19.652C28.6409 19.4493 28.6809 19.2667 28.7609 19.104C28.8436 18.9387 28.9569 18.7987 29.1009 18.684C29.2476 18.5667 29.4196 18.4773 29.6169 18.416C29.8169 18.3547 30.0343 18.324 30.2689 18.324C30.4449 18.324 30.6103 18.3427 30.7649 18.38C30.9196 18.4147 31.0609 18.4667 31.1889 18.536H32.3689ZM34.3677 20.348C34.4904 20.348 34.597 20.332 34.6877 20.3C34.7784 20.2653 34.853 20.2187 34.9117 20.16C34.973 20.1013 35.0184 20.0307 35.0477 19.948C35.0797 19.8653 35.0957 19.7747 35.0957 19.676C35.0957 19.4733 35.0344 19.3133 34.9117 19.196C34.7917 19.076 34.6104 19.016 34.3677 19.016C34.125 19.016 33.9424 19.076 33.8197 19.196C33.6997 19.3133 33.6397 19.4733 33.6397 19.676C33.6397 19.772 33.6544 19.8613 33.6837 19.944C33.7157 20.0267 33.761 20.0987 33.8197 20.16C33.881 20.2187 33.957 20.2653 34.0477 20.3C34.141 20.332 34.2477 20.348 34.3677 20.348ZM35.4837 22.684C35.4837 22.604 35.4597 22.5387 35.4117 22.488C35.3637 22.4373 35.2984 22.3987 35.2157 22.372C35.133 22.3427 35.0357 22.3213 34.9237 22.308C34.8144 22.2947 34.697 22.2853 34.5717 22.28C34.449 22.272 34.321 22.2653 34.1877 22.26C34.057 22.2547 33.929 22.244 33.8037 22.228C33.6944 22.2893 33.605 22.3613 33.5357 22.444C33.469 22.5267 33.4357 22.6227 33.4357 22.732C33.4357 22.804 33.453 22.8707 33.4877 22.932C33.525 22.996 33.5824 23.0507 33.6597 23.096C33.7397 23.1413 33.8424 23.176 33.9677 23.2C34.093 23.2267 34.2464 23.24 34.4277 23.24C34.6117 23.24 34.7704 23.2253 34.9037 23.196C35.037 23.1693 35.1464 23.1307 35.2317 23.08C35.3197 23.032 35.3837 22.9733 35.4237 22.904C35.4637 22.8373 35.4837 22.764 35.4837 22.684ZM36.4677 18.536V18.904C36.4677 19.0213 36.397 19.0933 36.2557 19.12L35.8877 19.188C35.9437 19.3293 35.9717 19.484 35.9717 19.652C35.9717 19.8547 35.9304 20.0387 35.8477 20.204C35.7677 20.3667 35.6557 20.5053 35.5117 20.62C35.3677 20.7347 35.197 20.824 34.9997 20.888C34.805 20.9493 34.5944 20.98 34.3677 20.98C34.2877 20.98 34.2104 20.976 34.1357 20.968C34.061 20.96 33.9877 20.9493 33.9157 20.936C33.7877 21.0133 33.7237 21.1 33.7237 21.196C33.7237 21.2787 33.761 21.34 33.8357 21.38C33.913 21.4173 34.0144 21.444 34.1397 21.46C34.265 21.476 34.4077 21.4867 34.5677 21.492C34.7277 21.4947 34.8917 21.5027 35.0597 21.516C35.2277 21.5293 35.3917 21.5533 35.5517 21.588C35.7117 21.62 35.8544 21.672 35.9797 21.744C36.105 21.816 36.205 21.9147 36.2797 22.04C36.357 22.1627 36.3957 22.3213 36.3957 22.516C36.3957 22.6973 36.3504 22.8733 36.2597 23.044C36.1717 23.2147 36.0424 23.3667 35.8717 23.5C35.7037 23.6333 35.4957 23.74 35.2477 23.82C35.0024 23.9027 34.7224 23.944 34.4077 23.944C34.0984 23.944 33.829 23.9133 33.5997 23.852C33.3704 23.7933 33.1797 23.7133 33.0277 23.612C32.8757 23.5133 32.7624 23.3987 32.6877 23.268C32.613 23.1373 32.5757 23.0013 32.5757 22.86C32.5757 22.668 32.633 22.508 32.7477 22.38C32.865 22.2493 33.025 22.1453 33.2277 22.068C33.1184 22.012 33.0317 21.9373 32.9677 21.844C32.9037 21.7507 32.8717 21.628 32.8717 21.476C32.8717 21.4147 32.8824 21.352 32.9037 21.288C32.9277 21.2213 32.961 21.156 33.0037 21.092C33.049 21.028 33.105 20.968 33.1717 20.912C33.2384 20.8533 33.317 20.8013 33.4077 20.756C33.1997 20.644 33.0357 20.4947 32.9157 20.308C32.7984 20.1213 32.7397 19.9027 32.7397 19.652C32.7397 19.4493 32.7797 19.2667 32.8597 19.104C32.9424 18.9387 33.0557 18.7987 33.1997 18.684C33.3464 18.5667 33.5184 18.4773 33.7157 18.416C33.9157 18.3547 34.133 18.324 34.3677 18.324C34.5437 18.324 34.709 18.3427 34.8637 18.38C35.0184 18.4147 35.1597 18.4667 35.2877 18.536H36.4677ZM39.5479 19.976C39.5479 19.848 39.5293 19.728 39.4919 19.616C39.4573 19.5013 39.4039 19.4013 39.3319 19.316C39.2599 19.2307 39.1679 19.164 39.0559 19.116C38.9466 19.0653 38.8186 19.04 38.6719 19.04C38.3866 19.04 38.1613 19.1213 37.9959 19.284C37.8333 19.4467 37.7293 19.6773 37.6839 19.976H39.5479ZM37.6639 20.572C37.6799 20.7827 37.7173 20.9653 37.7759 21.12C37.8346 21.272 37.9119 21.3987 38.0079 21.5C38.1039 21.5987 38.2173 21.6733 38.3479 21.724C38.4813 21.772 38.6279 21.796 38.7879 21.796C38.9479 21.796 39.0853 21.7773 39.1999 21.74C39.3173 21.7027 39.4186 21.6613 39.5039 21.616C39.5919 21.5707 39.6679 21.5293 39.7319 21.492C39.7986 21.4547 39.8626 21.436 39.9239 21.436C40.0066 21.436 40.0679 21.4667 40.1079 21.528L40.3919 21.888C40.2826 22.016 40.1599 22.124 40.0239 22.212C39.8879 22.2973 39.7453 22.3667 39.5959 22.42C39.4493 22.4707 39.2986 22.5067 39.1439 22.528C38.9919 22.5493 38.8439 22.56 38.6999 22.56C38.4146 22.56 38.1493 22.5133 37.9039 22.42C37.6586 22.324 37.4453 22.184 37.2639 22C37.0826 21.8133 36.9399 21.584 36.8359 21.312C36.7319 21.0373 36.6799 20.72 36.6799 20.36C36.6799 20.08 36.7253 19.8173 36.8159 19.572C36.9066 19.324 37.0359 19.1093 37.2039 18.928C37.3746 18.744 37.5813 18.5987 37.8239 18.492C38.0693 18.3853 38.3453 18.332 38.6519 18.332C38.9106 18.332 39.1493 18.3733 39.3679 18.456C39.5866 18.5387 39.7746 18.66 39.9319 18.82C40.0893 18.9773 40.2119 19.172 40.2999 19.404C40.3906 19.6333 40.4359 19.896 40.4359 20.192C40.4359 20.3413 40.4199 20.4427 40.3879 20.496C40.3559 20.5467 40.2946 20.572 40.2039 20.572H37.6639ZM41.9894 19.108C42.1174 18.8627 42.2694 18.6707 42.4454 18.532C42.6214 18.3907 42.8294 18.32 43.0694 18.32C43.2587 18.32 43.4107 18.3613 43.5254 18.444L43.4614 19.184C43.448 19.232 43.428 19.2667 43.4014 19.288C43.3774 19.3067 43.344 19.316 43.3014 19.316C43.2614 19.316 43.2014 19.3093 43.1214 19.296C43.044 19.2827 42.968 19.276 42.8934 19.276C42.784 19.276 42.6867 19.292 42.6014 19.324C42.516 19.356 42.4387 19.4027 42.3694 19.464C42.3027 19.5227 42.2427 19.5947 42.1894 19.68C42.1387 19.7653 42.0907 19.8627 42.0454 19.972V22.5H41.0574V18.396H41.6374C41.7387 18.396 41.8094 18.4147 41.8494 18.452C41.8894 18.4867 41.916 18.5507 41.9294 18.644L41.9894 19.108Z" fill="black"/>
<g opacity="0.75">
<rect x="2.5" y="26.5" width="1" height="46" transform="rotate(-90 2.5 26.5)" fill="#979797"/>
</g>
<path d="M13.4459 32.468C13.6486 32.468 13.8246 32.4427 13.9739 32.392C14.1259 32.3413 14.2499 32.272 14.3459 32.184C14.4446 32.0933 14.5179 31.9867 14.5659 31.864C14.6139 31.7413 14.6379 31.6067 14.6379 31.46C14.6379 31.1667 14.5406 30.9413 14.3459 30.784C14.1539 30.6267 13.8592 30.548 13.4619 30.548H12.7739V32.468H13.4459ZM16.2139 35.5H15.2419C15.0579 35.5 14.9246 35.428 14.8419 35.284L13.6259 33.432C13.5806 33.3627 13.5299 33.3133 13.4739 33.284C13.4206 33.2547 13.3406 33.24 13.2339 33.24H12.7739V35.5H11.6979V29.716H13.4619C13.8539 29.716 14.1899 29.7573 14.4699 29.84C14.7526 29.92 14.9832 30.0333 15.1619 30.18C15.3432 30.3267 15.4766 30.5027 15.5619 30.708C15.6472 30.9107 15.6899 31.1347 15.6899 31.38C15.6899 31.5747 15.6606 31.7587 15.6019 31.932C15.5459 32.1053 15.4632 32.2627 15.3539 32.404C15.2472 32.5453 15.1139 32.6693 14.9539 32.776C14.7966 32.8827 14.6166 32.9667 14.4139 33.028C14.4832 33.068 14.5472 33.116 14.6059 33.172C14.6646 33.2253 14.7179 33.2893 14.7659 33.364L16.2139 35.5ZM18.668 33.748C18.3827 33.7613 18.1427 33.7867 17.948 33.824C17.7534 33.8587 17.5974 33.904 17.48 33.96C17.3627 34.016 17.2787 34.0813 17.228 34.156C17.1774 34.2307 17.152 34.312 17.152 34.4C17.152 34.5733 17.2027 34.6973 17.304 34.772C17.408 34.8467 17.5427 34.884 17.708 34.884C17.9107 34.884 18.0854 34.848 18.232 34.776C18.3814 34.7013 18.5267 34.5893 18.668 34.44V33.748ZM16.404 31.968C16.876 31.536 17.444 31.32 18.108 31.32C18.348 31.32 18.5627 31.36 18.752 31.44C18.9414 31.5173 19.1014 31.6267 19.232 31.768C19.3627 31.9067 19.4614 32.0733 19.528 32.268C19.5974 32.4627 19.632 32.676 19.632 32.908V35.5H19.184C19.0907 35.5 19.0187 35.4867 18.968 35.46C18.9174 35.4307 18.8774 35.3733 18.848 35.288L18.76 34.992C18.656 35.0853 18.5547 35.168 18.456 35.24C18.3574 35.3093 18.2547 35.368 18.148 35.416C18.0414 35.464 17.9267 35.5 17.804 35.524C17.684 35.5507 17.5507 35.564 17.404 35.564C17.2307 35.564 17.0707 35.5413 16.924 35.496C16.7774 35.448 16.6507 35.3773 16.544 35.284C16.4374 35.1907 16.3547 35.0747 16.296 34.936C16.2374 34.7973 16.208 34.636 16.208 34.452C16.208 34.348 16.2254 34.2453 16.26 34.144C16.2947 34.04 16.3507 33.9413 16.428 33.848C16.508 33.7547 16.6107 33.6667 16.736 33.584C16.8614 33.5013 17.0147 33.4293 17.196 33.368C17.38 33.3067 17.5934 33.2573 17.836 33.22C18.0787 33.18 18.356 33.156 18.668 33.148V32.908C18.668 32.6333 18.6094 32.4307 18.492 32.3C18.3747 32.1667 18.2054 32.1 17.984 32.1C17.824 32.1 17.6907 32.1187 17.584 32.156C17.48 32.1933 17.388 32.236 17.308 32.284C17.228 32.3293 17.1547 32.3707 17.088 32.408C17.024 32.4453 16.952 32.464 16.872 32.464C16.8027 32.464 16.744 32.4467 16.696 32.412C16.648 32.3747 16.6094 32.332 16.58 32.284L16.404 31.968ZM21.3665 31.9C21.4492 31.8173 21.5359 31.7413 21.6265 31.672C21.7199 31.6 21.8172 31.54 21.9185 31.492C22.0225 31.4413 22.1332 31.4027 22.2505 31.376C22.3679 31.3467 22.4959 31.332 22.6345 31.332C22.8585 31.332 23.0572 31.3707 23.2305 31.448C23.4039 31.5227 23.5479 31.6293 23.6625 31.768C23.7799 31.904 23.8679 32.068 23.9265 32.26C23.9879 32.4493 24.0185 32.6587 24.0185 32.888V35.5H23.0305V32.888C23.0305 32.6373 22.9732 32.444 22.8585 32.308C22.7439 32.1693 22.5692 32.1 22.3345 32.1C22.1639 32.1 22.0039 32.1387 21.8545 32.216C21.7052 32.2933 21.5639 32.3987 21.4305 32.532V35.5H20.4425V31.396H21.0465C21.1745 31.396 21.2585 31.456 21.2985 31.576L21.3665 31.9ZM27.4142 32.444C27.3022 32.308 27.1795 32.212 27.0462 32.156C26.9155 32.1 26.7742 32.072 26.6222 32.072C26.4728 32.072 26.3382 32.1 26.2182 32.156C26.0982 32.212 25.9955 32.2973 25.9102 32.412C25.8248 32.524 25.7595 32.668 25.7142 32.844C25.6688 33.0173 25.6462 33.2227 25.6462 33.46C25.6462 33.7 25.6648 33.904 25.7022 34.072C25.7422 34.2373 25.7982 34.3733 25.8702 34.48C25.9422 34.584 26.0302 34.66 26.1342 34.708C26.2382 34.7533 26.3542 34.776 26.4822 34.776C26.6875 34.776 26.8622 34.7333 27.0062 34.648C27.1502 34.5627 27.2862 34.4413 27.4142 34.284V32.444ZM28.4022 29.556V35.5H27.7982C27.6675 35.5 27.5848 35.44 27.5502 35.32L27.4662 34.924C27.3008 35.1133 27.1102 35.2667 26.8942 35.384C26.6808 35.5013 26.4315 35.56 26.1462 35.56C25.9222 35.56 25.7168 35.5133 25.5302 35.42C25.3435 35.3267 25.1822 35.192 25.0462 35.016C24.9128 34.8373 24.8088 34.6173 24.7342 34.356C24.6622 34.0947 24.6262 33.796 24.6262 33.46C24.6262 33.156 24.6675 32.8733 24.7502 32.612C24.8328 32.3507 24.9515 32.124 25.1062 31.932C25.2608 31.74 25.4462 31.5907 25.6622 31.484C25.8782 31.3747 26.1208 31.32 26.3902 31.32C26.6195 31.32 26.8155 31.356 26.9782 31.428C27.1408 31.5 27.2862 31.5973 27.4142 31.72V29.556H28.4022ZM31.0732 31.332C31.3772 31.332 31.6532 31.3813 31.9012 31.48C32.1519 31.5787 32.3652 31.7187 32.5412 31.9C32.7199 32.0813 32.8572 32.3027 32.9532 32.564C33.0492 32.8253 33.0972 33.1173 33.0972 33.44C33.0972 33.7653 33.0492 34.0587 32.9532 34.32C32.8572 34.5813 32.7199 34.804 32.5412 34.988C32.3652 35.172 32.1519 35.3133 31.9012 35.412C31.6532 35.5107 31.3772 35.56 31.0732 35.56C30.7666 35.56 30.4879 35.5107 30.2372 35.412C29.9866 35.3133 29.7719 35.172 29.5932 34.988C29.4172 34.804 29.2799 34.5813 29.1812 34.32C29.0852 34.0587 29.0372 33.7653 29.0372 33.44C29.0372 33.1173 29.0852 32.8253 29.1812 32.564C29.2799 32.3027 29.4172 32.0813 29.5932 31.9C29.7719 31.7187 29.9866 31.5787 30.2372 31.48C30.4879 31.3813 30.7666 31.332 31.0732 31.332ZM31.0732 34.8C31.4146 34.8 31.6666 34.6853 31.8292 34.456C31.9946 34.2267 32.0772 33.8907 32.0772 33.448C32.0772 33.0053 31.9946 32.668 31.8292 32.436C31.6666 32.204 31.4146 32.088 31.0732 32.088C30.7266 32.088 30.4692 32.2053 30.3012 32.44C30.1359 32.672 30.0532 33.008 30.0532 33.448C30.0532 33.888 30.1359 34.224 30.3012 34.456C30.4692 34.6853 30.7266 34.8 31.0732 34.8ZM33.731 35.5V31.396H34.335C34.463 31.396 34.547 31.456 34.587 31.576L34.651 31.88C34.723 31.8 34.7976 31.7267 34.875 31.66C34.955 31.5933 35.039 31.536 35.127 31.488C35.2176 31.44 35.3136 31.4027 35.415 31.376C35.519 31.3467 35.6323 31.332 35.755 31.332C36.0136 31.332 36.2256 31.4027 36.391 31.544C36.559 31.6827 36.6843 31.868 36.767 32.1C36.831 31.964 36.911 31.848 37.007 31.752C37.103 31.6533 37.2083 31.5733 37.323 31.512C37.4376 31.4507 37.559 31.4053 37.687 31.376C37.8176 31.3467 37.9483 31.332 38.079 31.332C38.3056 31.332 38.507 31.3667 38.683 31.436C38.859 31.5053 39.007 31.6067 39.127 31.74C39.247 31.8733 39.3376 32.036 39.399 32.228C39.463 32.42 39.495 32.64 39.495 32.888V35.5H38.507V32.888C38.507 32.6267 38.4496 32.4307 38.335 32.3C38.2203 32.1667 38.0523 32.1 37.831 32.1C37.7296 32.1 37.635 32.1173 37.547 32.152C37.4616 32.1867 37.3856 32.2373 37.319 32.304C37.255 32.368 37.2043 32.4493 37.167 32.548C37.1296 32.6467 37.111 32.76 37.111 32.888V35.5H36.119V32.888C36.119 32.6133 36.063 32.4133 35.951 32.288C35.8416 32.1627 35.6803 32.1 35.467 32.1C35.323 32.1 35.1883 32.136 35.063 32.208C34.9403 32.2773 34.8256 32.3733 34.719 32.496V35.5H33.731Z" fill="black"/>
<path d="M3.5 1H47.5V0H3.5V1ZM50 3.5V35.5H51V3.5H50ZM47.5 38H3.5V39H47.5V38ZM1 35.5V3.5H0V35.5H1ZM3.5 38C2.11929 38 1 36.8807 1 35.5H0C0 37.433 1.567 39 3.5 39V38ZM50 35.5C50 36.8807 48.8807 38 47.5 38V39C49.433 39 51 37.433 51 35.5H50ZM47.5 1C48.8807 1 50 2.11929 50 3.5H51C51 1.567 49.433 0 47.5 0V1ZM3.5 0C1.567 0 0 1.567 0 3.5H1C1 2.11929 2.11929 1 3.5 1V0Z" fill="#979797"/>
<path d="M0.5 42.5C0.5 40.8431 1.84315 39.5 3.5 39.5H47.5C49.1569 39.5 50.5 40.8431 50.5 42.5V74.5C50.5 76.1569 49.1569 77.5 47.5 77.5H3.5C1.84315 77.5 0.5 76.1569 0.5 74.5V42.5Z" fill="#E3E3E3"/>
<path d="M13.7637 44.072V45.784H15.9317V46.644H13.7637V49H12.6837V43.216H16.3317V44.072H13.7637ZM17.5506 45.608C17.6786 45.3627 17.8306 45.1707 18.0066 45.032C18.1826 44.8907 18.3906 44.82 18.6306 44.82C18.82 44.82 18.972 44.8613 19.0866 44.944L19.0226 45.684C19.0093 45.732 18.9893 45.7667 18.9626 45.788C18.9386 45.8067 18.9053 45.816 18.8626 45.816C18.8226 45.816 18.7626 45.8093 18.6826 45.796C18.6053 45.7827 18.5293 45.776 18.4546 45.776C18.3453 45.776 18.248 45.792 18.1626 45.824C18.0773 45.856 18 45.9027 17.9306 45.964C17.864 46.0227 17.804 46.0947 17.7506 46.18C17.7 46.2653 17.652 46.3627 17.6066 46.472V49H16.6186V44.896H17.1986C17.3 44.896 17.3706 44.9147 17.4106 44.952C17.4506 44.9867 17.4773 45.0507 17.4906 45.144L17.5506 45.608ZM22.0098 46.476C22.0098 46.348 21.9911 46.228 21.9538 46.116C21.9191 46.0013 21.8658 45.9013 21.7938 45.816C21.7218 45.7307 21.6298 45.664 21.5178 45.616C21.4085 45.5653 21.2805 45.54 21.1338 45.54C20.8485 45.54 20.6231 45.6213 20.4578 45.784C20.2951 45.9467 20.1911 46.1773 20.1458 46.476H22.0098ZM20.1258 47.072C20.1418 47.2827 20.1791 47.4653 20.2378 47.62C20.2965 47.772 20.3738 47.8987 20.4698 48C20.5658 48.0987 20.6791 48.1733 20.8098 48.224C20.9431 48.272 21.0898 48.296 21.2498 48.296C21.4098 48.296 21.5471 48.2773 21.6618 48.24C21.7791 48.2027 21.8805 48.1613 21.9658 48.116C22.0538 48.0707 22.1298 48.0293 22.1938 47.992C22.2605 47.9547 22.3245 47.936 22.3858 47.936C22.4685 47.936 22.5298 47.9667 22.5698 48.028L22.8538 48.388C22.7445 48.516 22.6218 48.624 22.4858 48.712C22.3498 48.7973 22.2071 48.8667 22.0578 48.92C21.9111 48.9707 21.7605 49.0067 21.6058 49.028C21.4538 49.0493 21.3058 49.06 21.1618 49.06C20.8765 49.06 20.6111 49.0133 20.3658 48.92C20.1205 48.824 19.9071 48.684 19.7258 48.5C19.5445 48.3133 19.4018 48.084 19.2978 47.812C19.1938 47.5373 19.1418 47.22 19.1418 46.86C19.1418 46.58 19.1871 46.3173 19.2778 46.072C19.3685 45.824 19.4978 45.6093 19.6658 45.428C19.8365 45.244 20.0431 45.0987 20.2858 44.992C20.5311 44.8853 20.8071 44.832 21.1138 44.832C21.3725 44.832 21.6111 44.8733 21.8298 44.956C22.0485 45.0387 22.2365 45.16 22.3938 45.32C22.5511 45.4773 22.6738 45.672 22.7618 45.904C22.8525 46.1333 22.8978 46.396 22.8978 46.692C22.8978 46.8413 22.8818 46.9427 22.8498 46.996C22.8178 47.0467 22.7565 47.072 22.6658 47.072H20.1258ZM26.1633 46.476C26.1633 46.348 26.1446 46.228 26.1073 46.116C26.0726 46.0013 26.0193 45.9013 25.9473 45.816C25.8753 45.7307 25.7833 45.664 25.6713 45.616C25.5619 45.5653 25.4339 45.54 25.2873 45.54C25.0019 45.54 24.7766 45.6213 24.6113 45.784C24.4486 45.9467 24.3446 46.1773 24.2993 46.476H26.1633ZM24.2793 47.072C24.2953 47.2827 24.3326 47.4653 24.3913 47.62C24.4499 47.772 24.5273 47.8987 24.6233 48C24.7193 48.0987 24.8326 48.1733 24.9633 48.224C25.0966 48.272 25.2433 48.296 25.4033 48.296C25.5633 48.296 25.7006 48.2773 25.8153 48.24C25.9326 48.2027 26.0339 48.1613 26.1193 48.116C26.2073 48.0707 26.2833 48.0293 26.3473 47.992C26.4139 47.9547 26.4779 47.936 26.5393 47.936C26.6219 47.936 26.6833 47.9667 26.7233 48.028L27.0073 48.388C26.8979 48.516 26.7753 48.624 26.6393 48.712C26.5033 48.7973 26.3606 48.8667 26.2113 48.92C26.0646 48.9707 25.9139 49.0067 25.7593 49.028C25.6073 49.0493 25.4593 49.06 25.3153 49.06C25.0299 49.06 24.7646 49.0133 24.5193 48.92C24.2739 48.824 24.0606 48.684 23.8793 48.5C23.6979 48.3133 23.5553 48.084 23.4513 47.812C23.3473 47.5373 23.2952 47.22 23.2952 46.86C23.2952 46.58 23.3406 46.3173 23.4313 46.072C23.5219 45.824 23.6513 45.6093 23.8193 45.428C23.9899 45.244 24.1966 45.0987 24.4393 44.992C24.6846 44.8853 24.9606 44.832 25.2673 44.832C25.5259 44.832 25.7646 44.8733 25.9833 44.956C26.2019 45.0387 26.3899 45.16 26.5473 45.32C26.7046 45.4773 26.8273 45.672 26.9153 45.904C27.0059 46.1333 27.0512 46.396 27.0512 46.692C27.0512 46.8413 27.0353 46.9427 27.0033 46.996C26.9713 47.0467 26.9099 47.072 26.8193 47.072H24.2793ZM28.6047 45.608C28.7327 45.3627 28.8847 45.1707 29.0607 45.032C29.2367 44.8907 29.4447 44.82 29.6847 44.82C29.874 44.82 30.026 44.8613 30.1407 44.944L30.0767 45.684C30.0634 45.732 30.0434 45.7667 30.0167 45.788C29.9927 45.8067 29.9594 45.816 29.9167 45.816C29.8767 45.816 29.8167 45.8093 29.7367 45.796C29.6594 45.7827 29.5834 45.776 29.5087 45.776C29.3994 45.776 29.302 45.792 29.2167 45.824C29.1314 45.856 29.054 45.9027 28.9847 45.964C28.918 46.0227 28.858 46.0947 28.8047 46.18C28.754 46.2653 28.706 46.3627 28.6607 46.472V49H27.6727V44.896H28.2527C28.354 44.896 28.4247 44.9147 28.4647 44.952C28.5047 44.9867 28.5314 45.0507 28.5447 45.144L28.6047 45.608ZM34.0731 44.896V49H33.4691C33.3384 49 33.2557 48.94 33.2211 48.82L33.1531 48.492C32.9851 48.6627 32.7997 48.8013 32.5971 48.908C32.3944 49.012 32.1557 49.064 31.8811 49.064C31.6571 49.064 31.4584 49.0267 31.2851 48.952C31.1144 48.8747 30.9704 48.7667 30.8531 48.628C30.7357 48.4893 30.6464 48.3253 30.5851 48.136C30.5264 47.944 30.4971 47.7333 30.4971 47.504V44.896H31.4851V47.504C31.4851 47.7547 31.5424 47.9493 31.6571 48.088C31.7744 48.224 31.9491 48.292 32.1811 48.292C32.3517 48.292 32.5117 48.2547 32.6611 48.18C32.8104 48.1027 32.9517 47.9973 33.0851 47.864V44.896H34.0731ZM35.8567 45.4C35.9394 45.3173 36.026 45.2413 36.1167 45.172C36.21 45.1 36.3074 45.04 36.4087 44.992C36.5127 44.9413 36.6234 44.9027 36.7407 44.876C36.858 44.8467 36.986 44.832 37.1247 44.832C37.3487 44.832 37.5474 44.8707 37.7207 44.948C37.894 45.0227 38.038 45.1293 38.1527 45.268C38.27 45.404 38.358 45.568 38.4167 45.76C38.478 45.9493 38.5087 46.1587 38.5087 46.388V49H37.5207V46.388C37.5207 46.1373 37.4634 45.944 37.3487 45.808C37.234 45.6693 37.0594 45.6 36.8247 45.6C36.654 45.6 36.494 45.6387 36.3447 45.716C36.1954 45.7933 36.054 45.8987 35.9207 46.032V49H34.9327V44.896H35.5367C35.6647 44.896 35.7487 44.956 35.7887 45.076L35.8567 45.4Z" fill="black"/>
<g opacity="0.75">
<rect x="2.5" y="52.5" width="1" height="46" transform="rotate(-90 2.5 52.5)" fill="#979797"/>
</g>
<path d="M2.5 55C2.5 54.4477 2.94772 54 3.5 54H47.5C48.0523 54 48.5 54.4477 48.5 55V62C48.5 62.5523 48.0523 63 47.5 63H3.5C2.94772 63 2.5 62.5523 2.5 62V55Z" fill="#FF9A10"/>
<rect x="2.5" y="54" width="46" height="9" fill="#FF9A10"/>
<rect x="2.5" y="54" width="46" height="9" stroke="#FF9A10"/>
<path d="M9.16625 58.14H9.41825C9.51958 58.14 9.60358 58.1267 9.67025 58.1C9.73692 58.0707 9.79425 58.0253 9.84225 57.964L11.4383 55.944C11.5049 55.8587 11.5743 55.8 11.6463 55.768C11.7209 55.7333 11.8143 55.716 11.9263 55.716H12.8543L10.9063 58.12C10.7916 58.2667 10.6729 58.3707 10.5503 58.432C10.6383 58.464 10.7169 58.5093 10.7863 58.568C10.8583 58.624 10.9263 58.6987 10.9903 58.792L12.9983 61.5H12.0503C11.9223 61.5 11.8263 61.4827 11.7623 61.448C11.7009 61.4107 11.6489 61.3573 11.6063 61.288L9.97025 59.152C9.91958 59.08 9.86092 59.0293 9.79425 59C9.72758 58.9707 9.63158 58.956 9.50625 58.956H9.16625V61.5H8.09025V55.716H9.16625V58.14ZM15.6458 58.976C15.6458 58.848 15.6271 58.728 15.5898 58.616C15.5551 58.5013 15.5018 58.4013 15.4298 58.316C15.3578 58.2307 15.2658 58.164 15.1538 58.116C15.0444 58.0653 14.9164 58.04 14.7698 58.04C14.4844 58.04 14.2591 58.1213 14.0938 58.284C13.9311 58.4467 13.8271 58.6773 13.7818 58.976H15.6458ZM13.7618 59.572C13.7778 59.7827 13.8151 59.9653 13.8738 60.12C13.9324 60.272 14.0098 60.3987 14.1058 60.5C14.2018 60.5987 14.3151 60.6733 14.4458 60.724C14.5791 60.772 14.7258 60.796 14.8858 60.796C15.0458 60.796 15.1831 60.7773 15.2978 60.74C15.4151 60.7027 15.5164 60.6613 15.6018 60.616C15.6898 60.5707 15.7658 60.5293 15.8298 60.492C15.8964 60.4547 15.9604 60.436 16.0218 60.436C16.1044 60.436 16.1658 60.4667 16.2058 60.528L16.4898 60.888C16.3804 61.016 16.2578 61.124 16.1218 61.212C15.9858 61.2973 15.8431 61.3667 15.6938 61.42C15.5471 61.4707 15.3964 61.5067 15.2418 61.528C15.0898 61.5493 14.9418 61.56 14.7978 61.56C14.5124 61.56 14.2471 61.5133 14.0018 61.42C13.7564 61.324 13.5431 61.184 13.3618 61C13.1804 60.8133 13.0378 60.584 12.9338 60.312C12.8298 60.0373 12.7778 59.72 12.7778 59.36C12.7778 59.08 12.8231 58.8173 12.9138 58.572C13.0044 58.324 13.1338 58.1093 13.3018 57.928C13.4724 57.744 13.6791 57.5987 13.9218 57.492C14.1671 57.3853 14.4431 57.332 14.7498 57.332C15.0084 57.332 15.2471 57.3733 15.4658 57.456C15.6844 57.5387 15.8724 57.66 16.0298 57.82C16.1871 57.9773 16.3098 58.172 16.3978 58.404C16.4884 58.6333 16.5338 58.896 16.5338 59.192C16.5338 59.3413 16.5178 59.4427 16.4858 59.496C16.4538 59.5467 16.3924 59.572 16.3018 59.572H13.7618ZM20.766 57.396L18.53 62.628C18.5007 62.6973 18.462 62.7493 18.414 62.784C18.3687 62.8213 18.298 62.84 18.202 62.84H17.466L18.234 61.192L16.574 57.396H17.442C17.5193 57.396 17.5793 57.4147 17.622 57.452C17.6673 57.4893 17.7007 57.532 17.722 57.58L18.594 59.708C18.6233 59.78 18.6473 59.852 18.666 59.924C18.6873 59.996 18.7073 60.0693 18.726 60.144C18.75 60.0693 18.774 59.996 18.798 59.924C18.822 59.8493 18.8487 59.776 18.878 59.704L19.702 57.58C19.7233 57.5267 19.758 57.4827 19.806 57.448C19.8567 57.4133 19.9127 57.396 19.974 57.396H20.766ZM22.5048 61.564C22.1474 61.564 21.8728 61.464 21.6808 61.264C21.4914 61.0613 21.3968 60.7827 21.3968 60.428V58.136H20.9768C20.9234 58.136 20.8781 58.1187 20.8408 58.084C20.8034 58.0493 20.7848 57.9973 20.7848 57.928V57.536L21.4448 57.428L21.6528 56.308C21.6661 56.2547 21.6914 56.2133 21.7288 56.184C21.7661 56.1547 21.8141 56.14 21.8728 56.14H22.3848V57.432H23.4808V58.136H22.3848V60.36C22.3848 60.488 22.4154 60.588 22.4768 60.66C22.5408 60.732 22.6274 60.768 22.7368 60.768C22.7981 60.768 22.8488 60.7613 22.8888 60.748C22.9314 60.732 22.9674 60.716 22.9968 60.7C23.0288 60.684 23.0568 60.6693 23.0808 60.656C23.1048 60.64 23.1288 60.632 23.1528 60.632C23.1821 60.632 23.2061 60.64 23.2248 60.656C23.2434 60.6693 23.2634 60.6907 23.2848 60.72L23.5808 61.2C23.4368 61.32 23.2714 61.4107 23.0848 61.472C22.8981 61.5333 22.7048 61.564 22.5048 61.564ZM24.9253 58.108C25.0533 57.8627 25.2053 57.6707 25.3813 57.532C25.5573 57.3907 25.7653 57.32 26.0053 57.32C26.1946 57.32 26.3466 57.3613 26.4613 57.444L26.3973 58.184C26.384 58.232 26.364 58.2667 26.3373 58.288C26.3133 58.3067 26.28 58.316 26.2373 58.316C26.1973 58.316 26.1373 58.3093 26.0573 58.296C25.98 58.2827 25.904 58.276 25.8293 58.276C25.72 58.276 25.6226 58.292 25.5373 58.324C25.452 58.356 25.3746 58.4027 25.3053 58.464C25.2386 58.5227 25.1786 58.5947 25.1253 58.68C25.0746 58.7653 25.0266 58.8627 24.9813 58.972V61.5H23.9933V57.396H24.5733C24.6746 57.396 24.7453 57.4147 24.7853 57.452C24.8253 57.4867 24.852 57.5507 24.8653 57.644L24.9253 58.108ZM27.8817 57.396V61.5H26.8897V57.396H27.8817ZM28.0177 56.2C28.0177 56.2853 28.0004 56.3653 27.9657 56.44C27.931 56.5147 27.8844 56.58 27.8257 56.636C27.7697 56.692 27.703 56.7373 27.6257 56.772C27.5484 56.804 27.4657 56.82 27.3777 56.82C27.2924 56.82 27.211 56.804 27.1337 56.772C27.059 56.7373 26.9937 56.692 26.9377 56.636C26.8817 56.58 26.8364 56.5147 26.8017 56.44C26.7697 56.3653 26.7537 56.2853 26.7537 56.2C26.7537 56.112 26.7697 56.0293 26.8017 55.952C26.8364 55.8747 26.8817 55.808 26.9377 55.752C26.9937 55.696 27.059 55.652 27.1337 55.62C27.211 55.5853 27.2924 55.568 27.3777 55.568C27.4657 55.568 27.5484 55.5853 27.6257 55.62C27.703 55.652 27.7697 55.696 27.8257 55.752C27.8844 55.808 27.931 55.8747 27.9657 55.952C28.0004 56.0293 28.0177 56.112 28.0177 56.2ZM30.2689 59.348C30.3916 59.348 30.4983 59.332 30.5889 59.3C30.6796 59.2653 30.7543 59.2187 30.8129 59.16C30.8743 59.1013 30.9196 59.0307 30.9489 58.948C30.9809 58.8653 30.9969 58.7747 30.9969 58.676C30.9969 58.4733 30.9356 58.3133 30.8129 58.196C30.6929 58.076 30.5116 58.016 30.2689 58.016C30.0263 58.016 29.8436 58.076 29.7209 58.196C29.6009 58.3133 29.5409 58.4733 29.5409 58.676C29.5409 58.772 29.5556 58.8613 29.5849 58.944C29.6169 59.0267 29.6623 59.0987 29.7209 59.16C29.7823 59.2187 29.8583 59.2653 29.9489 59.3C30.0423 59.332 30.1489 59.348 30.2689 59.348ZM31.3849 61.684C31.3849 61.604 31.3609 61.5387 31.3129 61.488C31.2649 61.4373 31.1996 61.3987 31.1169 61.372C31.0343 61.3427 30.9369 61.3213 30.8249 61.308C30.7156 61.2947 30.5983 61.2853 30.4729 61.28C30.3503 61.272 30.2223 61.2653 30.0889 61.26C29.9583 61.2547 29.8303 61.244 29.7049 61.228C29.5956 61.2893 29.5063 61.3613 29.4369 61.444C29.3703 61.5267 29.3369 61.6227 29.3369 61.732C29.3369 61.804 29.3543 61.8707 29.3889 61.932C29.4263 61.996 29.4836 62.0507 29.5609 62.096C29.6409 62.1413 29.7436 62.176 29.8689 62.2C29.9943 62.2267 30.1476 62.24 30.3289 62.24C30.5129 62.24 30.6716 62.2253 30.8049 62.196C30.9383 62.1693 31.0476 62.1307 31.1329 62.08C31.2209 62.032 31.2849 61.9733 31.3249 61.904C31.3649 61.8373 31.3849 61.764 31.3849 61.684ZM32.3689 57.536V57.904C32.3689 58.0213 32.2983 58.0933 32.1569 58.12L31.7889 58.188C31.8449 58.3293 31.8729 58.484 31.8729 58.652C31.8729 58.8547 31.8316 59.0387 31.7489 59.204C31.6689 59.3667 31.5569 59.5053 31.4129 59.62C31.2689 59.7347 31.0983 59.824 30.9009 59.888C30.7063 59.9493 30.4956 59.98 30.2689 59.98C30.1889 59.98 30.1116 59.976 30.0369 59.968C29.9623 59.96 29.8889 59.9493 29.8169 59.936C29.6889 60.0133 29.6249 60.1 29.6249 60.196C29.6249 60.2787 29.6623 60.34 29.7369 60.38C29.8143 60.4173 29.9156 60.444 30.0409 60.46C30.1663 60.476 30.3089 60.4867 30.4689 60.492C30.6289 60.4947 30.7929 60.5027 30.9609 60.516C31.1289 60.5293 31.2929 60.5533 31.4529 60.588C31.6129 60.62 31.7556 60.672 31.8809 60.744C32.0063 60.816 32.1063 60.9147 32.1809 61.04C32.2583 61.1627 32.2969 61.3213 32.2969 61.516C32.2969 61.6973 32.2516 61.8733 32.1609 62.044C32.0729 62.2147 31.9436 62.3667 31.7729 62.5C31.6049 62.6333 31.3969 62.74 31.1489 62.82C30.9036 62.9027 30.6236 62.944 30.3089 62.944C29.9996 62.944 29.7303 62.9133 29.5009 62.852C29.2716 62.7933 29.0809 62.7133 28.9289 62.612C28.7769 62.5133 28.6636 62.3987 28.5889 62.268C28.5143 62.1373 28.4769 62.0013 28.4769 61.86C28.4769 61.668 28.5343 61.508 28.6489 61.38C28.7663 61.2493 28.9263 61.1453 29.1289 61.068C29.0196 61.012 28.9329 60.9373 28.8689 60.844C28.8049 60.7507 28.7729 60.628 28.7729 60.476C28.7729 60.4147 28.7836 60.352 28.8049 60.288C28.8289 60.2213 28.8623 60.156 28.9049 60.092C28.9503 60.028 29.0063 59.968 29.0729 59.912C29.1396 59.8533 29.2183 59.8013 29.3089 59.756C29.1009 59.644 28.9369 59.4947 28.8169 59.308C28.6996 59.1213 28.6409 58.9027 28.6409 58.652C28.6409 58.4493 28.6809 58.2667 28.7609 58.104C28.8436 57.9387 28.9569 57.7987 29.1009 57.684C29.2476 57.5667 29.4196 57.4773 29.6169 57.416C29.8169 57.3547 30.0343 57.324 30.2689 57.324C30.4449 57.324 30.6103 57.3427 30.7649 57.38C30.9196 57.4147 31.0609 57.4667 31.1889 57.536H32.3689ZM34.3677 59.348C34.4904 59.348 34.597 59.332 34.6877 59.3C34.7784 59.2653 34.853 59.2187 34.9117 59.16C34.973 59.1013 35.0184 59.0307 35.0477 58.948C35.0797 58.8653 35.0957 58.7747 35.0957 58.676C35.0957 58.4733 35.0344 58.3133 34.9117 58.196C34.7917 58.076 34.6104 58.016 34.3677 58.016C34.125 58.016 33.9424 58.076 33.8197 58.196C33.6997 58.3133 33.6397 58.4733 33.6397 58.676C33.6397 58.772 33.6544 58.8613 33.6837 58.944C33.7157 59.0267 33.761 59.0987 33.8197 59.16C33.881 59.2187 33.957 59.2653 34.0477 59.3C34.141 59.332 34.2477 59.348 34.3677 59.348ZM35.4837 61.684C35.4837 61.604 35.4597 61.5387 35.4117 61.488C35.3637 61.4373 35.2984 61.3987 35.2157 61.372C35.133 61.3427 35.0357 61.3213 34.9237 61.308C34.8144 61.2947 34.697 61.2853 34.5717 61.28C34.449 61.272 34.321 61.2653 34.1877 61.26C34.057 61.2547 33.929 61.244 33.8037 61.228C33.6944 61.2893 33.605 61.3613 33.5357 61.444C33.469 61.5267 33.4357 61.6227 33.4357 61.732C33.4357 61.804 33.453 61.8707 33.4877 61.932C33.525 61.996 33.5824 62.0507 33.6597 62.096C33.7397 62.1413 33.8424 62.176 33.9677 62.2C34.093 62.2267 34.2464 62.24 34.4277 62.24C34.6117 62.24 34.7704 62.2253 34.9037 62.196C35.037 62.1693 35.1464 62.1307 35.2317 62.08C35.3197 62.032 35.3837 61.9733 35.4237 61.904C35.4637 61.8373 35.4837 61.764 35.4837 61.684ZM36.4677 57.536V57.904C36.4677 58.0213 36.397 58.0933 36.2557 58.12L35.8877 58.188C35.9437 58.3293 35.9717 58.484 35.9717 58.652C35.9717 58.8547 35.9304 59.0387 35.8477 59.204C35.7677 59.3667 35.6557 59.5053 35.5117 59.62C35.3677 59.7347 35.197 59.824 34.9997 59.888C34.805 59.9493 34.5944 59.98 34.3677 59.98C34.2877 59.98 34.2104 59.976 34.1357 59.968C34.061 59.96 33.9877 59.9493 33.9157 59.936C33.7877 60.0133 33.7237 60.1 33.7237 60.196C33.7237 60.2787 33.761 60.34 33.8357 60.38C33.913 60.4173 34.0144 60.444 34.1397 60.46C34.265 60.476 34.4077 60.4867 34.5677 60.492C34.7277 60.4947 34.8917 60.5027 35.0597 60.516C35.2277 60.5293 35.3917 60.5533 35.5517 60.588C35.7117 60.62 35.8544 60.672 35.9797 60.744C36.105 60.816 36.205 60.9147 36.2797 61.04C36.357 61.1627 36.3957 61.3213 36.3957 61.516C36.3957 61.6973 36.3504 61.8733 36.2597 62.044C36.1717 62.2147 36.0424 62.3667 35.8717 62.5C35.7037 62.6333 35.4957 62.74 35.2477 62.82C35.0024 62.9027 34.7224 62.944 34.4077 62.944C34.0984 62.944 33.829 62.9133 33.5997 62.852C33.3704 62.7933 33.1797 62.7133 33.0277 62.612C32.8757 62.5133 32.7624 62.3987 32.6877 62.268C32.613 62.1373 32.5757 62.0013 32.5757 61.86C32.5757 61.668 32.633 61.508 32.7477 61.38C32.865 61.2493 33.025 61.1453 33.2277 61.068C33.1184 61.012 33.0317 60.9373 32.9677 60.844C32.9037 60.7507 32.8717 60.628 32.8717 60.476C32.8717 60.4147 32.8824 60.352 32.9037 60.288C32.9277 60.2213 32.961 60.156 33.0037 60.092C33.049 60.028 33.105 59.968 33.1717 59.912C33.2384 59.8533 33.317 59.8013 33.4077 59.756C33.1997 59.644 33.0357 59.4947 32.9157 59.308C32.7984 59.1213 32.7397 58.9027 32.7397 58.652C32.7397 58.4493 32.7797 58.2667 32.8597 58.104C32.9424 57.9387 33.0557 57.7987 33.1997 57.684C33.3464 57.5667 33.5184 57.4773 33.7157 57.416C33.9157 57.3547 34.133 57.324 34.3677 57.324C34.5437 57.324 34.709 57.3427 34.8637 57.38C35.0184 57.4147 35.1597 57.4667 35.2877 57.536H36.4677ZM39.5479 58.976C39.5479 58.848 39.5293 58.728 39.4919 58.616C39.4573 58.5013 39.4039 58.4013 39.3319 58.316C39.2599 58.2307 39.1679 58.164 39.0559 58.116C38.9466 58.0653 38.8186 58.04 38.6719 58.04C38.3866 58.04 38.1613 58.1213 37.9959 58.284C37.8333 58.4467 37.7293 58.6773 37.6839 58.976H39.5479ZM37.6639 59.572C37.6799 59.7827 37.7173 59.9653 37.7759 60.12C37.8346 60.272 37.9119 60.3987 38.0079 60.5C38.1039 60.5987 38.2173 60.6733 38.3479 60.724C38.4813 60.772 38.6279 60.796 38.7879 60.796C38.9479 60.796 39.0853 60.7773 39.1999 60.74C39.3173 60.7027 39.4186 60.6613 39.5039 60.616C39.5919 60.5707 39.6679 60.5293 39.7319 60.492C39.7986 60.4547 39.8626 60.436 39.9239 60.436C40.0066 60.436 40.0679 60.4667 40.1079 60.528L40.3919 60.888C40.2826 61.016 40.1599 61.124 40.0239 61.212C39.8879 61.2973 39.7453 61.3667 39.5959 61.42C39.4493 61.4707 39.2986 61.5067 39.1439 61.528C38.9919 61.5493 38.8439 61.56 38.6999 61.56C38.4146 61.56 38.1493 61.5133 37.9039 61.42C37.6586 61.324 37.4453 61.184 37.2639 61C37.0826 60.8133 36.9399 60.584 36.8359 60.312C36.7319 60.0373 36.6799 59.72 36.6799 59.36C36.6799 59.08 36.7253 58.8173 36.8159 58.572C36.9066 58.324 37.0359 58.1093 37.2039 57.928C37.3746 57.744 37.5813 57.5987 37.8239 57.492C38.0693 57.3853 38.3453 57.332 38.6519 57.332C38.9106 57.332 39.1493 57.3733 39.3679 57.456C39.5866 57.5387 39.7746 57.66 39.9319 57.82C40.0893 57.9773 40.2119 58.172 40.2999 58.404C40.3906 58.6333 40.4359 58.896 40.4359 59.192C40.4359 59.3413 40.4199 59.4427 40.3879 59.496C40.3559 59.5467 40.2946 59.572 40.2039 59.572H37.6639ZM41.9894 58.108C42.1174 57.8627 42.2694 57.6707 42.4454 57.532C42.6214 57.3907 42.8294 57.32 43.0694 57.32C43.2587 57.32 43.4107 57.3613 43.5254 57.444L43.4614 58.184C43.448 58.232 43.428 58.2667 43.4014 58.288C43.3774 58.3067 43.344 58.316 43.3014 58.316C43.2614 58.316 43.2014 58.3093 43.1214 58.296C43.044 58.2827 42.968 58.276 42.8934 58.276C42.784 58.276 42.6867 58.292 42.6014 58.324C42.516 58.356 42.4387 58.4027 42.3694 58.464C42.3027 58.5227 42.2427 58.5947 42.1894 58.68C42.1387 58.7653 42.0907 58.8627 42.0454 58.972V61.5H41.0574V57.396H41.6374C41.7387 57.396 41.8094 57.4147 41.8494 57.452C41.8894 57.4867 41.916 57.5507 41.9294 57.644L41.9894 58.108Z" fill="black"/>
<g opacity="0.75">
<rect x="2.5" y="65.5" width="1" height="46" transform="rotate(-90 2.5 65.5)" fill="#979797"/>
</g>
<path d="M13.4459 71.468C13.6486 71.468 13.8246 71.4427 13.9739 71.392C14.1259 71.3413 14.2499 71.272 14.3459 71.184C14.4446 71.0933 14.5179 70.9867 14.5659 70.864C14.6139 70.7413 14.6379 70.6067 14.6379 70.46C14.6379 70.1667 14.5406 69.9413 14.3459 69.784C14.1539 69.6267 13.8592 69.548 13.4619 69.548H12.7739V71.468H13.4459ZM16.2139 74.5H15.2419C15.0579 74.5 14.9246 74.428 14.8419 74.284L13.6259 72.432C13.5806 72.3627 13.5299 72.3133 13.4739 72.284C13.4206 72.2547 13.3406 72.24 13.2339 72.24H12.7739V74.5H11.6979V68.716H13.4619C13.8539 68.716 14.1899 68.7573 14.4699 68.84C14.7526 68.92 14.9832 69.0333 15.1619 69.18C15.3432 69.3267 15.4766 69.5027 15.5619 69.708C15.6472 69.9107 15.6899 70.1347 15.6899 70.38C15.6899 70.5747 15.6606 70.7587 15.6019 70.932C15.5459 71.1053 15.4632 71.2627 15.3539 71.404C15.2472 71.5453 15.1139 71.6693 14.9539 71.776C14.7966 71.8827 14.6166 71.9667 14.4139 72.028C14.4832 72.068 14.5472 72.116 14.6059 72.172C14.6646 72.2253 14.7179 72.2893 14.7659 72.364L16.2139 74.5ZM18.668 72.748C18.3827 72.7613 18.1427 72.7867 17.948 72.824C17.7534 72.8587 17.5974 72.904 17.48 72.96C17.3627 73.016 17.2787 73.0813 17.228 73.156C17.1774 73.2307 17.152 73.312 17.152 73.4C17.152 73.5733 17.2027 73.6973 17.304 73.772C17.408 73.8467 17.5427 73.884 17.708 73.884C17.9107 73.884 18.0854 73.848 18.232 73.776C18.3814 73.7013 18.5267 73.5893 18.668 73.44V72.748ZM16.404 70.968C16.876 70.536 17.444 70.32 18.108 70.32C18.348 70.32 18.5627 70.36 18.752 70.44C18.9414 70.5173 19.1014 70.6267 19.232 70.768C19.3627 70.9067 19.4614 71.0733 19.528 71.268C19.5974 71.4627 19.632 71.676 19.632 71.908V74.5H19.184C19.0907 74.5 19.0187 74.4867 18.968 74.46C18.9174 74.4307 18.8774 74.3733 18.848 74.288L18.76 73.992C18.656 74.0853 18.5547 74.168 18.456 74.24C18.3574 74.3093 18.2547 74.368 18.148 74.416C18.0414 74.464 17.9267 74.5 17.804 74.524C17.684 74.5507 17.5507 74.564 17.404 74.564C17.2307 74.564 17.0707 74.5413 16.924 74.496C16.7774 74.448 16.6507 74.3773 16.544 74.284C16.4374 74.1907 16.3547 74.0747 16.296 73.936C16.2374 73.7973 16.208 73.636 16.208 73.452C16.208 73.348 16.2254 73.2453 16.26 73.144C16.2947 73.04 16.3507 72.9413 16.428 72.848C16.508 72.7547 16.6107 72.6667 16.736 72.584C16.8614 72.5013 17.0147 72.4293 17.196 72.368C17.38 72.3067 17.5934 72.2573 17.836 72.22C18.0787 72.18 18.356 72.156 18.668 72.148V71.908C18.668 71.6333 18.6094 71.4307 18.492 71.3C18.3747 71.1667 18.2054 71.1 17.984 71.1C17.824 71.1 17.6907 71.1187 17.584 71.156C17.48 71.1933 17.388 71.236 17.308 71.284C17.228 71.3293 17.1547 71.3707 17.088 71.408C17.024 71.4453 16.952 71.464 16.872 71.464C16.8027 71.464 16.744 71.4467 16.696 71.412C16.648 71.3747 16.6094 71.332 16.58 71.284L16.404 70.968ZM21.3665 70.9C21.4492 70.8173 21.5359 70.7413 21.6265 70.672C21.7199 70.6 21.8172 70.54 21.9185 70.492C22.0225 70.4413 22.1332 70.4027 22.2505 70.376C22.3679 70.3467 22.4959 70.332 22.6345 70.332C22.8585 70.332 23.0572 70.3707 23.2305 70.448C23.4039 70.5227 23.5479 70.6293 23.6625 70.768C23.7799 70.904 23.8679 71.068 23.9265 71.26C23.9879 71.4493 24.0185 71.6587 24.0185 71.888V74.5H23.0305V71.888C23.0305 71.6373 22.9732 71.444 22.8585 71.308C22.7439 71.1693 22.5692 71.1 22.3345 71.1C22.1639 71.1 22.0039 71.1387 21.8545 71.216C21.7052 71.2933 21.5639 71.3987 21.4305 71.532V74.5H20.4425V70.396H21.0465C21.1745 70.396 21.2585 70.456 21.2985 70.576L21.3665 70.9ZM27.4142 71.444C27.3022 71.308 27.1795 71.212 27.0462 71.156C26.9155 71.1 26.7742 71.072 26.6222 71.072C26.4728 71.072 26.3382 71.1 26.2182 71.156C26.0982 71.212 25.9955 71.2973 25.9102 71.412C25.8248 71.524 25.7595 71.668 25.7142 71.844C25.6688 72.0173 25.6462 72.2227 25.6462 72.46C25.6462 72.7 25.6648 72.904 25.7022 73.072C25.7422 73.2373 25.7982 73.3733 25.8702 73.48C25.9422 73.584 26.0302 73.66 26.1342 73.708C26.2382 73.7533 26.3542 73.776 26.4822 73.776C26.6875 73.776 26.8622 73.7333 27.0062 73.648C27.1502 73.5627 27.2862 73.4413 27.4142 73.284V71.444ZM28.4022 68.556V74.5H27.7982C27.6675 74.5 27.5848 74.44 27.5502 74.32L27.4662 73.924C27.3008 74.1133 27.1102 74.2667 26.8942 74.384C26.6808 74.5013 26.4315 74.56 26.1462 74.56C25.9222 74.56 25.7168 74.5133 25.5302 74.42C25.3435 74.3267 25.1822 74.192 25.0462 74.016C24.9128 73.8373 24.8088 73.6173 24.7342 73.356C24.6622 73.0947 24.6262 72.796 24.6262 72.46C24.6262 72.156 24.6675 71.8733 24.7502 71.612C24.8328 71.3507 24.9515 71.124 25.1062 70.932C25.2608 70.74 25.4462 70.5907 25.6622 70.484C25.8782 70.3747 26.1208 70.32 26.3902 70.32C26.6195 70.32 26.8155 70.356 26.9782 70.428C27.1408 70.5 27.2862 70.5973 27.4142 70.72V68.556H28.4022ZM31.0732 70.332C31.3772 70.332 31.6532 70.3813 31.9012 70.48C32.1519 70.5787 32.3652 70.7187 32.5412 70.9C32.7199 71.0813 32.8572 71.3027 32.9532 71.564C33.0492 71.8253 33.0972 72.1173 33.0972 72.44C33.0972 72.7653 33.0492 73.0587 32.9532 73.32C32.8572 73.5813 32.7199 73.804 32.5412 73.988C32.3652 74.172 32.1519 74.3133 31.9012 74.412C31.6532 74.5107 31.3772 74.56 31.0732 74.56C30.7666 74.56 30.4879 74.5107 30.2372 74.412C29.9866 74.3133 29.7719 74.172 29.5932 73.988C29.4172 73.804 29.2799 73.5813 29.1812 73.32C29.0852 73.0587 29.0372 72.7653 29.0372 72.44C29.0372 72.1173 29.0852 71.8253 29.1812 71.564C29.2799 71.3027 29.4172 71.0813 29.5932 70.9C29.7719 70.7187 29.9866 70.5787 30.2372 70.48C30.4879 70.3813 30.7666 70.332 31.0732 70.332ZM31.0732 73.8C31.4146 73.8 31.6666 73.6853 31.8292 73.456C31.9946 73.2267 32.0772 72.8907 32.0772 72.448C32.0772 72.0053 31.9946 71.668 31.8292 71.436C31.6666 71.204 31.4146 71.088 31.0732 71.088C30.7266 71.088 30.4692 71.2053 30.3012 71.44C30.1359 71.672 30.0532 72.008 30.0532 72.448C30.0532 72.888 30.1359 73.224 30.3012 73.456C30.4692 73.6853 30.7266 73.8 31.0732 73.8ZM33.731 74.5V70.396H34.335C34.463 70.396 34.547 70.456 34.587 70.576L34.651 70.88C34.723 70.8 34.7976 70.7267 34.875 70.66C34.955 70.5933 35.039 70.536 35.127 70.488C35.2176 70.44 35.3136 70.4027 35.415 70.376C35.519 70.3467 35.6323 70.332 35.755 70.332C36.0136 70.332 36.2256 70.4027 36.391 70.544C36.559 70.6827 36.6843 70.868 36.767 71.1C36.831 70.964 36.911 70.848 37.007 70.752C37.103 70.6533 37.2083 70.5733 37.323 70.512C37.4376 70.4507 37.559 70.4053 37.687 70.376C37.8176 70.3467 37.9483 70.332 38.079 70.332C38.3056 70.332 38.507 70.3667 38.683 70.436C38.859 70.5053 39.007 70.6067 39.127 70.74C39.247 70.8733 39.3376 71.036 39.399 71.228C39.463 71.42 39.495 71.64 39.495 71.888V74.5H38.507V71.888C38.507 71.6267 38.4496 71.4307 38.335 71.3C38.2203 71.1667 38.0523 71.1 37.831 71.1C37.7296 71.1 37.635 71.1173 37.547 71.152C37.4616 71.1867 37.3856 71.2373 37.319 71.304C37.255 71.368 37.2043 71.4493 37.167 71.548C37.1296 71.6467 37.111 71.76 37.111 71.888V74.5H36.119V71.888C36.119 71.6133 36.063 71.4133 35.951 71.288C35.8416 71.1627 35.6803 71.1 35.467 71.1C35.323 71.1 35.1883 71.136 35.063 71.208C34.9403 71.2773 34.8256 71.3733 34.719 71.496V74.5H33.731Z" fill="black"/>
<path d="M3.5 40H47.5V39H3.5V40ZM50 42.5V74.5H51V42.5H50ZM47.5 77H3.5V78H47.5V77ZM1 74.5V42.5H0V74.5H1ZM3.5 77C2.11929 77 1 75.8807 1 74.5H0C0 76.433 1.567 78 3.5 78V77ZM50 74.5C50 75.8807 48.8807 77 47.5 77V78C49.433 78 51 76.433 51 74.5H50ZM47.5 40C48.8807 40 50 41.1193 50 42.5H51C51 40.567 49.433 39 47.5 39V40ZM3.5 39C1.567 39 0 40.567 0 42.5H1C1 41.1193 2.11929 40 3.5 40V39Z" fill="#979797"/>
<path d="M0.5 81.5C0.5 79.8432 1.84315 78.5 3.5 78.5H47.5C49.1569 78.5 50.5 79.8432 50.5 81.5V113.5C50.5 115.157 49.1569 116.5 47.5 116.5H3.5C1.84315 116.5 0.5 115.157 0.5 113.5V81.5Z" fill="#E3E3E3"/>
<path d="M13.7637 83.072V84.784H15.9317V85.644H13.7637V88H12.6837V82.216H16.3317V83.072H13.7637ZM17.5506 84.608C17.6786 84.3627 17.8306 84.1707 18.0066 84.032C18.1826 83.8907 18.3906 83.82 18.6306 83.82C18.82 83.82 18.972 83.8613 19.0866 83.944L19.0226 84.684C19.0093 84.732 18.9893 84.7667 18.9626 84.788C18.9386 84.8067 18.9053 84.816 18.8626 84.816C18.8226 84.816 18.7626 84.8093 18.6826 84.796C18.6053 84.7827 18.5293 84.776 18.4546 84.776C18.3453 84.776 18.248 84.792 18.1626 84.824C18.0773 84.856 18 84.9027 17.9306 84.964C17.864 85.0227 17.804 85.0947 17.7506 85.18C17.7 85.2653 17.652 85.3627 17.6066 85.472V88H16.6186V83.896H17.1986C17.3 83.896 17.3706 83.9147 17.4106 83.952C17.4506 83.9867 17.4773 84.0507 17.4906 84.144L17.5506 84.608ZM22.0098 85.476C22.0098 85.348 21.9911 85.228 21.9538 85.116C21.9191 85.0013 21.8658 84.9013 21.7938 84.816C21.7218 84.7307 21.6298 84.664 21.5178 84.616C21.4085 84.5653 21.2805 84.54 21.1338 84.54C20.8485 84.54 20.6231 84.6213 20.4578 84.784C20.2951 84.9467 20.1911 85.1773 20.1458 85.476H22.0098ZM20.1258 86.072C20.1418 86.2827 20.1791 86.4653 20.2378 86.62C20.2965 86.772 20.3738 86.8987 20.4698 87C20.5658 87.0987 20.6791 87.1733 20.8098 87.224C20.9431 87.272 21.0898 87.296 21.2498 87.296C21.4098 87.296 21.5471 87.2773 21.6618 87.24C21.7791 87.2027 21.8805 87.1613 21.9658 87.116C22.0538 87.0707 22.1298 87.0293 22.1938 86.992C22.2605 86.9547 22.3245 86.936 22.3858 86.936C22.4685 86.936 22.5298 86.9667 22.5698 87.028L22.8538 87.388C22.7445 87.516 22.6218 87.624 22.4858 87.712C22.3498 87.7973 22.2071 87.8667 22.0578 87.92C21.9111 87.9707 21.7605 88.0067 21.6058 88.028C21.4538 88.0493 21.3058 88.06 21.1618 88.06C20.8765 88.06 20.6111 88.0133 20.3658 87.92C20.1205 87.824 19.9071 87.684 19.7258 87.5C19.5445 87.3133 19.4018 87.084 19.2978 86.812C19.1938 86.5373 19.1418 86.22 19.1418 85.86C19.1418 85.58 19.1871 85.3173 19.2778 85.072C19.3685 84.824 19.4978 84.6093 19.6658 84.428C19.8365 84.244 20.0431 84.0987 20.2858 83.992C20.5311 83.8853 20.8071 83.832 21.1138 83.832C21.3725 83.832 21.6111 83.8733 21.8298 83.956C22.0485 84.0387 22.2365 84.16 22.3938 84.32C22.5511 84.4773 22.6738 84.672 22.7618 84.904C22.8525 85.1333 22.8978 85.396 22.8978 85.692C22.8978 85.8413 22.8818 85.9427 22.8498 85.996C22.8178 86.0467 22.7565 86.072 22.6658 86.072H20.1258ZM26.1633 85.476C26.1633 85.348 26.1446 85.228 26.1073 85.116C26.0726 85.0013 26.0193 84.9013 25.9473 84.816C25.8753 84.7307 25.7833 84.664 25.6713 84.616C25.5619 84.5653 25.4339 84.54 25.2873 84.54C25.0019 84.54 24.7766 84.6213 24.6113 84.784C24.4486 84.9467 24.3446 85.1773 24.2993 85.476H26.1633ZM24.2793 86.072C24.2953 86.2827 24.3326 86.4653 24.3913 86.62C24.4499 86.772 24.5273 86.8987 24.6233 87C24.7193 87.0987 24.8326 87.1733 24.9633 87.224C25.0966 87.272 25.2433 87.296 25.4033 87.296C25.5633 87.296 25.7006 87.2773 25.8153 87.24C25.9326 87.2027 26.0339 87.1613 26.1193 87.116C26.2073 87.0707 26.2833 87.0293 26.3473 86.992C26.4139 86.9547 26.4779 86.936 26.5393 86.936C26.6219 86.936 26.6833 86.9667 26.7233 87.028L27.0073 87.388C26.8979 87.516 26.7753 87.624 26.6393 87.712C26.5033 87.7973 26.3606 87.8667 26.2113 87.92C26.0646 87.9707 25.9139 88.0067 25.7593 88.028C25.6073 88.0493 25.4593 88.06 25.3153 88.06C25.0299 88.06 24.7646 88.0133 24.5193 87.92C24.2739 87.824 24.0606 87.684 23.8793 87.5C23.6979 87.3133 23.5553 87.084 23.4513 86.812C23.3473 86.5373 23.2952 86.22 23.2952 85.86C23.2952 85.58 23.3406 85.3173 23.4313 85.072C23.5219 84.824 23.6513 84.6093 23.8193 84.428C23.9899 84.244 24.1966 84.0987 24.4393 83.992C24.6846 83.8853 24.9606 83.832 25.2673 83.832C25.5259 83.832 25.7646 83.8733 25.9833 83.956C26.2019 84.0387 26.3899 84.16 26.5473 84.32C26.7046 84.4773 26.8273 84.672 26.9153 84.904C27.0059 85.1333 27.0512 85.396 27.0512 85.692C27.0512 85.8413 27.0353 85.9427 27.0033 85.996C26.9713 86.0467 26.9099 86.072 26.8193 86.072H24.2793ZM28.6047 84.608C28.7327 84.3627 28.8847 84.1707 29.0607 84.032C29.2367 83.8907 29.4447 83.82 29.6847 83.82C29.874 83.82 30.026 83.8613 30.1407 83.944L30.0767 84.684C30.0634 84.732 30.0434 84.7667 30.0167 84.788C29.9927 84.8067 29.9594 84.816 29.9167 84.816C29.8767 84.816 29.8167 84.8093 29.7367 84.796C29.6594 84.7827 29.5834 84.776 29.5087 84.776C29.3994 84.776 29.302 84.792 29.2167 84.824C29.1314 84.856 29.054 84.9027 28.9847 84.964C28.918 85.0227 28.858 85.0947 28.8047 85.18C28.754 85.2653 28.706 85.3627 28.6607 85.472V88H27.6727V83.896H28.2527C28.354 83.896 28.4247 83.9147 28.4647 83.952C28.5047 83.9867 28.5314 84.0507 28.5447 84.144L28.6047 84.608ZM34.0731 83.896V88H33.4691C33.3384 88 33.2557 87.94 33.2211 87.82L33.1531 87.492C32.9851 87.6627 32.7997 87.8013 32.5971 87.908C32.3944 88.012 32.1557 88.064 31.8811 88.064C31.6571 88.064 31.4584 88.0267 31.2851 87.952C31.1144 87.8747 30.9704 87.7667 30.8531 87.628C30.7357 87.4893 30.6464 87.3253 30.5851 87.136C30.5264 86.944 30.4971 86.7333 30.4971 86.504V83.896H31.4851V86.504C31.4851 86.7547 31.5424 86.9493 31.6571 87.088C31.7744 87.224 31.9491 87.292 32.1811 87.292C32.3517 87.292 32.5117 87.2547 32.6611 87.18C32.8104 87.1027 32.9517 86.9973 33.0851 86.864V83.896H34.0731ZM35.8567 84.4C35.9394 84.3173 36.026 84.2413 36.1167 84.172C36.21 84.1 36.3074 84.04 36.4087 83.992C36.5127 83.9413 36.6234 83.9027 36.7407 83.876C36.858 83.8467 36.986 83.832 37.1247 83.832C37.3487 83.832 37.5474 83.8707 37.7207 83.948C37.894 84.0227 38.038 84.1293 38.1527 84.268C38.27 84.404 38.358 84.568 38.4167 84.76C38.478 84.9493 38.5087 85.1587 38.5087 85.388V88H37.5207V85.388C37.5207 85.1373 37.4634 84.944 37.3487 84.808C37.234 84.6693 37.0594 84.6 36.8247 84.6C36.654 84.6 36.494 84.6387 36.3447 84.716C36.1954 84.7933 36.054 84.8987 35.9207 85.032V88H34.9327V83.896H35.5367C35.6647 83.896 35.7487 83.956 35.7887 84.076L35.8567 84.4Z" fill="black"/>
<g opacity="0.75">
<rect x="2.5" y="91.5" width="1" height="46" transform="rotate(-90 2.5 91.5)" fill="#979797"/>
</g>
<path d="M9.16625 97.14H9.41825C9.51958 97.14 9.60358 97.1267 9.67025 97.1C9.73692 97.0707 9.79425 97.0253 9.84225 96.964L11.4383 94.944C11.5049 94.8587 11.5743 94.8 11.6463 94.768C11.7209 94.7333 11.8143 94.716 11.9263 94.716H12.8543L10.9063 97.12C10.7916 97.2667 10.6729 97.3707 10.5503 97.432C10.6383 97.464 10.7169 97.5093 10.7863 97.568C10.8583 97.624 10.9263 97.6987 10.9903 97.792L12.9983 100.5H12.0503C11.9223 100.5 11.8263 100.483 11.7623 100.448C11.7009 100.411 11.6489 100.357 11.6063 100.288L9.97025 98.152C9.91958 98.08 9.86092 98.0293 9.79425 98C9.72758 97.9707 9.63158 97.956 9.50625 97.956H9.16625V100.5H8.09025V94.716H9.16625V97.14ZM15.6458 97.976C15.6458 97.848 15.6271 97.728 15.5898 97.616C15.5551 97.5013 15.5018 97.4013 15.4298 97.316C15.3578 97.2307 15.2658 97.164 15.1538 97.116C15.0444 97.0653 14.9164 97.04 14.7698 97.04C14.4844 97.04 14.2591 97.1213 14.0938 97.284C13.9311 97.4467 13.8271 97.6773 13.7818 97.976H15.6458ZM13.7618 98.572C13.7778 98.7827 13.8151 98.9653 13.8738 99.12C13.9324 99.272 14.0098 99.3987 14.1058 99.5C14.2018 99.5987 14.3151 99.6733 14.4458 99.724C14.5791 99.772 14.7258 99.796 14.8858 99.796C15.0458 99.796 15.1831 99.7773 15.2978 99.74C15.4151 99.7027 15.5164 99.6613 15.6018 99.616C15.6898 99.5707 15.7658 99.5293 15.8298 99.492C15.8964 99.4547 15.9604 99.436 16.0218 99.436C16.1044 99.436 16.1658 99.4667 16.2058 99.528L16.4898 99.888C16.3804 100.016 16.2578 100.124 16.1218 100.212C15.9858 100.297 15.8431 100.367 15.6938 100.42C15.5471 100.471 15.3964 100.507 15.2418 100.528C15.0898 100.549 14.9418 100.56 14.7978 100.56C14.5124 100.56 14.2471 100.513 14.0018 100.42C13.7564 100.324 13.5431 100.184 13.3618 100C13.1804 99.8133 13.0378 99.584 12.9338 99.312C12.8298 99.0373 12.7778 98.72 12.7778 98.36C12.7778 98.08 12.8231 97.8173 12.9138 97.572C13.0044 97.324 13.1338 97.1093 13.3018 96.928C13.4724 96.744 13.6791 96.5987 13.9218 96.492C14.1671 96.3853 14.4431 96.332 14.7498 96.332C15.0084 96.332 15.2471 96.3733 15.4658 96.456C15.6844 96.5387 15.8724 96.66 16.0298 96.82C16.1871 96.9773 16.3098 97.172 16.3978 97.404C16.4884 97.6333 16.5338 97.896 16.5338 98.192C16.5338 98.3413 16.5178 98.4427 16.4858 98.496C16.4538 98.5467 16.3924 98.572 16.3018 98.572H13.7618ZM20.766 96.396L18.53 101.628C18.5007 101.697 18.462 101.749 18.414 101.784C18.3687 101.821 18.298 101.84 18.202 101.84H17.466L18.234 100.192L16.574 96.396H17.442C17.5193 96.396 17.5793 96.4147 17.622 96.452C17.6673 96.4893 17.7007 96.532 17.722 96.58L18.594 98.708C18.6233 98.78 18.6473 98.852 18.666 98.924C18.6873 98.996 18.7073 99.0693 18.726 99.144C18.75 99.0693 18.774 98.996 18.798 98.924C18.822 98.8493 18.8487 98.776 18.878 98.704L19.702 96.58C19.7233 96.5267 19.758 96.4827 19.806 96.448C19.8567 96.4133 19.9127 96.396 19.974 96.396H20.766ZM22.5048 100.564C22.1474 100.564 21.8728 100.464 21.6808 100.264C21.4914 100.061 21.3968 99.7827 21.3968 99.428V97.136H20.9768C20.9234 97.136 20.8781 97.1187 20.8408 97.084C20.8034 97.0493 20.7848 96.9973 20.7848 96.928V96.536L21.4448 96.428L21.6528 95.308C21.6661 95.2547 21.6914 95.2133 21.7288 95.184C21.7661 95.1547 21.8141 95.14 21.8728 95.14H22.3848V96.432H23.4808V97.136H22.3848V99.36C22.3848 99.488 22.4154 99.588 22.4768 99.66C22.5408 99.732 22.6274 99.768 22.7368 99.768C22.7981 99.768 22.8488 99.7613 22.8888 99.748C22.9314 99.732 22.9674 99.716 22.9968 99.7C23.0288 99.684 23.0568 99.6693 23.0808 99.656C23.1048 99.64 23.1288 99.632 23.1528 99.632C23.1821 99.632 23.2061 99.64 23.2248 99.656C23.2434 99.6693 23.2634 99.6907 23.2848 99.72L23.5808 100.2C23.4368 100.32 23.2714 100.411 23.0848 100.472C22.8981 100.533 22.7048 100.564 22.5048 100.564ZM24.9253 97.108C25.0533 96.8627 25.2053 96.6707 25.3813 96.532C25.5573 96.3907 25.7653 96.32 26.0053 96.32C26.1946 96.32 26.3466 96.3613 26.4613 96.444L26.3973 97.184C26.384 97.232 26.364 97.2667 26.3373 97.288C26.3133 97.3067 26.28 97.316 26.2373 97.316C26.1973 97.316 26.1373 97.3093 26.0573 97.296C25.98 97.2827 25.904 97.276 25.8293 97.276C25.72 97.276 25.6226 97.292 25.5373 97.324C25.452 97.356 25.3746 97.4027 25.3053 97.464C25.2386 97.5227 25.1786 97.5947 25.1253 97.68C25.0746 97.7653 25.0266 97.8627 24.9813 97.972V100.5H23.9933V96.396H24.5733C24.6746 96.396 24.7453 96.4147 24.7853 96.452C24.8253 96.4867 24.852 96.5507 24.8653 96.644L24.9253 97.108ZM27.8817 96.396V100.5H26.8897V96.396H27.8817ZM28.0177 95.2C28.0177 95.2853 28.0004 95.3653 27.9657 95.44C27.931 95.5147 27.8844 95.58 27.8257 95.636C27.7697 95.692 27.703 95.7373 27.6257 95.772C27.5484 95.804 27.4657 95.82 27.3777 95.82C27.2924 95.82 27.211 95.804 27.1337 95.772C27.059 95.7373 26.9937 95.692 26.9377 95.636C26.8817 95.58 26.8364 95.5147 26.8017 95.44C26.7697 95.3653 26.7537 95.2853 26.7537 95.2C26.7537 95.112 26.7697 95.0293 26.8017 94.952C26.8364 94.8747 26.8817 94.808 26.9377 94.752C26.9937 94.696 27.059 94.652 27.1337 94.62C27.211 94.5853 27.2924 94.568 27.3777 94.568C27.4657 94.568 27.5484 94.5853 27.6257 94.62C27.703 94.652 27.7697 94.696 27.8257 94.752C27.8844 94.808 27.931 94.8747 27.9657 94.952C28.0004 95.0293 28.0177 95.112 28.0177 95.2ZM30.2689 98.348C30.3916 98.348 30.4983 98.332 30.5889 98.3C30.6796 98.2653 30.7543 98.2187 30.8129 98.16C30.8743 98.1013 30.9196 98.0307 30.9489 97.948C30.9809 97.8653 30.9969 97.7747 30.9969 97.676C30.9969 97.4733 30.9356 97.3133 30.8129 97.196C30.6929 97.076 30.5116 97.016 30.2689 97.016C30.0263 97.016 29.8436 97.076 29.7209 97.196C29.6009 97.3133 29.5409 97.4733 29.5409 97.676C29.5409 97.772 29.5556 97.8613 29.5849 97.944C29.6169 98.0267 29.6623 98.0987 29.7209 98.16C29.7823 98.2187 29.8583 98.2653 29.9489 98.3C30.0423 98.332 30.1489 98.348 30.2689 98.348ZM31.3849 100.684C31.3849 100.604 31.3609 100.539 31.3129 100.488C31.2649 100.437 31.1996 100.399 31.1169 100.372C31.0343 100.343 30.9369 100.321 30.8249 100.308C30.7156 100.295 30.5983 100.285 30.4729 100.28C30.3503 100.272 30.2223 100.265 30.0889 100.26C29.9583 100.255 29.8303 100.244 29.7049 100.228C29.5956 100.289 29.5063 100.361 29.4369 100.444C29.3703 100.527 29.3369 100.623 29.3369 100.732C29.3369 100.804 29.3543 100.871 29.3889 100.932C29.4263 100.996 29.4836 101.051 29.5609 101.096C29.6409 101.141 29.7436 101.176 29.8689 101.2C29.9943 101.227 30.1476 101.24 30.3289 101.24C30.5129 101.24 30.6716 101.225 30.8049 101.196C30.9383 101.169 31.0476 101.131 31.1329 101.08C31.2209 101.032 31.2849 100.973 31.3249 100.904C31.3649 100.837 31.3849 100.764 31.3849 100.684ZM32.3689 96.536V96.904C32.3689 97.0213 32.2983 97.0933 32.1569 97.12L31.7889 97.188C31.8449 97.3293 31.8729 97.484 31.8729 97.652C31.8729 97.8547 31.8316 98.0387 31.7489 98.204C31.6689 98.3667 31.5569 98.5053 31.4129 98.62C31.2689 98.7347 31.0983 98.824 30.9009 98.888C30.7063 98.9493 30.4956 98.98 30.2689 98.98C30.1889 98.98 30.1116 98.976 30.0369 98.968C29.9623 98.96 29.8889 98.9493 29.8169 98.936C29.6889 99.0133 29.6249 99.1 29.6249 99.196C29.6249 99.2787 29.6623 99.34 29.7369 99.38C29.8143 99.4173 29.9156 99.444 30.0409 99.46C30.1663 99.476 30.3089 99.4867 30.4689 99.492C30.6289 99.4947 30.7929 99.5027 30.9609 99.516C31.1289 99.5293 31.2929 99.5533 31.4529 99.588C31.6129 99.62 31.7556 99.672 31.8809 99.744C32.0063 99.816 32.1063 99.9147 32.1809 100.04C32.2583 100.163 32.2969 100.321 32.2969 100.516C32.2969 100.697 32.2516 100.873 32.1609 101.044C32.0729 101.215 31.9436 101.367 31.7729 101.5C31.6049 101.633 31.3969 101.74 31.1489 101.82C30.9036 101.903 30.6236 101.944 30.3089 101.944C29.9996 101.944 29.7303 101.913 29.5009 101.852C29.2716 101.793 29.0809 101.713 28.9289 101.612C28.7769 101.513 28.6636 101.399 28.5889 101.268C28.5143 101.137 28.4769 101.001 28.4769 100.86C28.4769 100.668 28.5343 100.508 28.6489 100.38C28.7663 100.249 28.9263 100.145 29.1289 100.068C29.0196 100.012 28.9329 99.9373 28.8689 99.844C28.8049 99.7507 28.7729 99.628 28.7729 99.476C28.7729 99.4147 28.7836 99.352 28.8049 99.288C28.8289 99.2213 28.8623 99.156 28.9049 99.092C28.9503 99.028 29.0063 98.968 29.0729 98.912C29.1396 98.8533 29.2183 98.8013 29.3089 98.756C29.1009 98.644 28.9369 98.4947 28.8169 98.308C28.6996 98.1213 28.6409 97.9027 28.6409 97.652C28.6409 97.4493 28.6809 97.2667 28.7609 97.104C28.8436 96.9387 28.9569 96.7987 29.1009 96.684C29.2476 96.5667 29.4196 96.4773 29.6169 96.416C29.8169 96.3547 30.0343 96.324 30.2689 96.324C30.4449 96.324 30.6103 96.3427 30.7649 96.38C30.9196 96.4147 31.0609 96.4667 31.1889 96.536H32.3689ZM34.3677 98.348C34.4904 98.348 34.597 98.332 34.6877 98.3C34.7784 98.2653 34.853 98.2187 34.9117 98.16C34.973 98.1013 35.0184 98.0307 35.0477 97.948C35.0797 97.8653 35.0957 97.7747 35.0957 97.676C35.0957 97.4733 35.0344 97.3133 34.9117 97.196C34.7917 97.076 34.6104 97.016 34.3677 97.016C34.125 97.016 33.9424 97.076 33.8197 97.196C33.6997 97.3133 33.6397 97.4733 33.6397 97.676C33.6397 97.772 33.6544 97.8613 33.6837 97.944C33.7157 98.0267 33.761 98.0987 33.8197 98.16C33.881 98.2187 33.957 98.2653 34.0477 98.3C34.141 98.332 34.2477 98.348 34.3677 98.348ZM35.4837 100.684C35.4837 100.604 35.4597 100.539 35.4117 100.488C35.3637 100.437 35.2984 100.399 35.2157 100.372C35.133 100.343 35.0357 100.321 34.9237 100.308C34.8144 100.295 34.697 100.285 34.5717 100.28C34.449 100.272 34.321 100.265 34.1877 100.26C34.057 100.255 33.929 100.244 33.8037 100.228C33.6944 100.289 33.605 100.361 33.5357 100.444C33.469 100.527 33.4357 100.623 33.4357 100.732C33.4357 100.804 33.453 100.871 33.4877 100.932C33.525 100.996 33.5824 101.051 33.6597 101.096C33.7397 101.141 33.8424 101.176 33.9677 101.2C34.093 101.227 34.2464 101.24 34.4277 101.24C34.6117 101.24 34.7704 101.225 34.9037 101.196C35.037 101.169 35.1464 101.131 35.2317 101.08C35.3197 101.032 35.3837 100.973 35.4237 100.904C35.4637 100.837 35.4837 100.764 35.4837 100.684ZM36.4677 96.536V96.904C36.4677 97.0213 36.397 97.0933 36.2557 97.12L35.8877 97.188C35.9437 97.3293 35.9717 97.484 35.9717 97.652C35.9717 97.8547 35.9304 98.0387 35.8477 98.204C35.7677 98.3667 35.6557 98.5053 35.5117 98.62C35.3677 98.7347 35.197 98.824 34.9997 98.888C34.805 98.9493 34.5944 98.98 34.3677 98.98C34.2877 98.98 34.2104 98.976 34.1357 98.968C34.061 98.96 33.9877 98.9493 33.9157 98.936C33.7877 99.0133 33.7237 99.1 33.7237 99.196C33.7237 99.2787 33.761 99.34 33.8357 99.38C33.913 99.4173 34.0144 99.444 34.1397 99.46C34.265 99.476 34.4077 99.4867 34.5677 99.492C34.7277 99.4947 34.8917 99.5027 35.0597 99.516C35.2277 99.5293 35.3917 99.5533 35.5517 99.588C35.7117 99.62 35.8544 99.672 35.9797 99.744C36.105 99.816 36.205 99.9147 36.2797 100.04C36.357 100.163 36.3957 100.321 36.3957 100.516C36.3957 100.697 36.3504 100.873 36.2597 101.044C36.1717 101.215 36.0424 101.367 35.8717 101.5C35.7037 101.633 35.4957 101.74 35.2477 101.82C35.0024 101.903 34.7224 101.944 34.4077 101.944C34.0984 101.944 33.829 101.913 33.5997 101.852C33.3704 101.793 33.1797 101.713 33.0277 101.612C32.8757 101.513 32.7624 101.399 32.6877 101.268C32.613 101.137 32.5757 101.001 32.5757 100.86C32.5757 100.668 32.633 100.508 32.7477 100.38C32.865 100.249 33.025 100.145 33.2277 100.068C33.1184 100.012 33.0317 99.9373 32.9677 99.844C32.9037 99.7507 32.8717 99.628 32.8717 99.476C32.8717 99.4147 32.8824 99.352 32.9037 99.288C32.9277 99.2213 32.961 99.156 33.0037 99.092C33.049 99.028 33.105 98.968 33.1717 98.912C33.2384 98.8533 33.317 98.8013 33.4077 98.756C33.1997 98.644 33.0357 98.4947 32.9157 98.308C32.7984 98.1213 32.7397 97.9027 32.7397 97.652C32.7397 97.4493 32.7797 97.2667 32.8597 97.104C32.9424 96.9387 33.0557 96.7987 33.1997 96.684C33.3464 96.5667 33.5184 96.4773 33.7157 96.416C33.9157 96.3547 34.133 96.324 34.3677 96.324C34.5437 96.324 34.709 96.3427 34.8637 96.38C35.0184 96.4147 35.1597 96.4667 35.2877 96.536H36.4677ZM39.5479 97.976C39.5479 97.848 39.5293 97.728 39.4919 97.616C39.4573 97.5013 39.4039 97.4013 39.3319 97.316C39.2599 97.2307 39.1679 97.164 39.0559 97.116C38.9466 97.0653 38.8186 97.04 38.6719 97.04C38.3866 97.04 38.1613 97.1213 37.9959 97.284C37.8333 97.4467 37.7293 97.6773 37.6839 97.976H39.5479ZM37.6639 98.572C37.6799 98.7827 37.7173 98.9653 37.7759 99.12C37.8346 99.272 37.9119 99.3987 38.0079 99.5C38.1039 99.5987 38.2173 99.6733 38.3479 99.724C38.4813 99.772 38.6279 99.796 38.7879 99.796C38.9479 99.796 39.0853 99.7773 39.1999 99.74C39.3173 99.7027 39.4186 99.6613 39.5039 99.616C39.5919 99.5707 39.6679 99.5293 39.7319 99.492C39.7986 99.4547 39.8626 99.436 39.9239 99.436C40.0066 99.436 40.0679 99.4667 40.1079 99.528L40.3919 99.888C40.2826 100.016 40.1599 100.124 40.0239 100.212C39.8879 100.297 39.7453 100.367 39.5959 100.42C39.4493 100.471 39.2986 100.507 39.1439 100.528C38.9919 100.549 38.8439 100.56 38.6999 100.56C38.4146 100.56 38.1493 100.513 37.9039 100.42C37.6586 100.324 37.4453 100.184 37.2639 100C37.0826 99.8133 36.9399 99.584 36.8359 99.312C36.7319 99.0373 36.6799 98.72 36.6799 98.36C36.6799 98.08 36.7253 97.8173 36.8159 97.572C36.9066 97.324 37.0359 97.1093 37.2039 96.928C37.3746 96.744 37.5813 96.5987 37.8239 96.492C38.0693 96.3853 38.3453 96.332 38.6519 96.332C38.9106 96.332 39.1493 96.3733 39.3679 96.456C39.5866 96.5387 39.7746 96.66 39.9319 96.82C40.0893 96.9773 40.2119 97.172 40.2999 97.404C40.3906 97.6333 40.4359 97.896 40.4359 98.192C40.4359 98.3413 40.4199 98.4427 40.3879 98.496C40.3559 98.5467 40.2946 98.572 40.2039 98.572H37.6639ZM41.9894 97.108C42.1174 96.8627 42.2694 96.6707 42.4454 96.532C42.6214 96.3907 42.8294 96.32 43.0694 96.32C43.2587 96.32 43.4107 96.3613 43.5254 96.444L43.4614 97.184C43.448 97.232 43.428 97.2667 43.4014 97.288C43.3774 97.3067 43.344 97.316 43.3014 97.316C43.2614 97.316 43.2014 97.3093 43.1214 97.296C43.044 97.2827 42.968 97.276 42.8934 97.276C42.784 97.276 42.6867 97.292 42.6014 97.324C42.516 97.356 42.4387 97.4027 42.3694 97.464C42.3027 97.5227 42.2427 97.5947 42.1894 97.68C42.1387 97.7653 42.0907 97.8627 42.0454 97.972V100.5H41.0574V96.396H41.6374C41.7387 96.396 41.8094 96.4147 41.8494 96.452C41.8894 96.4867 41.916 96.5507 41.9294 96.644L41.9894 97.108Z" fill="black"/>
<g opacity="0.75">
<rect x="2.5" y="104.5" width="1" height="46" transform="rotate(-90 2.5 104.5)" fill="#979797"/>
</g>
<path d="M2.5 107C2.5 106.448 2.94772 106 3.5 106H47.5C48.0523 106 48.5 106.448 48.5 107V113.5C48.5 114.052 48.0523 114.5 47.5 114.5H3.5C2.94772 114.5 2.5 114.052 2.5 113.5V107Z" fill="#FF9A10"/>
<path d="M2.5 106H48.5V113.5C48.5 114.052 48.0523 114.5 47.5 114.5H3.5C2.94772 114.5 2.5 114.052 2.5 113.5V106Z" fill="#FF9A10"/>
<path d="M2.5 106H48.5V113.5C48.5 114.052 48.0523 114.5 47.5 114.5H3.5C2.94772 114.5 2.5 114.052 2.5 113.5V106Z" stroke="#FF9A10"/>
<path d="M13.4459 110.468C13.6486 110.468 13.8246 110.443 13.9739 110.392C14.1259 110.341 14.2499 110.272 14.3459 110.184C14.4446 110.093 14.5179 109.987 14.5659 109.864C14.6139 109.741 14.6379 109.607 14.6379 109.46C14.6379 109.167 14.5406 108.941 14.3459 108.784C14.1539 108.627 13.8592 108.548 13.4619 108.548H12.7739V110.468H13.4459ZM16.2139 113.5H15.2419C15.0579 113.5 14.9246 113.428 14.8419 113.284L13.6259 111.432C13.5806 111.363 13.5299 111.313 13.4739 111.284C13.4206 111.255 13.3406 111.24 13.2339 111.24H12.7739V113.5H11.6979V107.716H13.4619C13.8539 107.716 14.1899 107.757 14.4699 107.84C14.7526 107.92 14.9832 108.033 15.1619 108.18C15.3432 108.327 15.4766 108.503 15.5619 108.708C15.6472 108.911 15.6899 109.135 15.6899 109.38C15.6899 109.575 15.6606 109.759 15.6019 109.932C15.5459 110.105 15.4632 110.263 15.3539 110.404C15.2472 110.545 15.1139 110.669 14.9539 110.776C14.7966 110.883 14.6166 110.967 14.4139 111.028C14.4832 111.068 14.5472 111.116 14.6059 111.172C14.6646 111.225 14.7179 111.289 14.7659 111.364L16.2139 113.5ZM18.668 111.748C18.3827 111.761 18.1427 111.787 17.948 111.824C17.7534 111.859 17.5974 111.904 17.48 111.96C17.3627 112.016 17.2787 112.081 17.228 112.156C17.1774 112.231 17.152 112.312 17.152 112.4C17.152 112.573 17.2027 112.697 17.304 112.772C17.408 112.847 17.5427 112.884 17.708 112.884C17.9107 112.884 18.0854 112.848 18.232 112.776C18.3814 112.701 18.5267 112.589 18.668 112.44V111.748ZM16.404 109.968C16.876 109.536 17.444 109.32 18.108 109.32C18.348 109.32 18.5627 109.36 18.752 109.44C18.9414 109.517 19.1014 109.627 19.232 109.768C19.3627 109.907 19.4614 110.073 19.528 110.268C19.5974 110.463 19.632 110.676 19.632 110.908V113.5H19.184C19.0907 113.5 19.0187 113.487 18.968 113.46C18.9174 113.431 18.8774 113.373 18.848 113.288L18.76 112.992C18.656 113.085 18.5547 113.168 18.456 113.24C18.3574 113.309 18.2547 113.368 18.148 113.416C18.0414 113.464 17.9267 113.5 17.804 113.524C17.684 113.551 17.5507 113.564 17.404 113.564C17.2307 113.564 17.0707 113.541 16.924 113.496C16.7774 113.448 16.6507 113.377 16.544 113.284C16.4374 113.191 16.3547 113.075 16.296 112.936C16.2374 112.797 16.208 112.636 16.208 112.452C16.208 112.348 16.2254 112.245 16.26 112.144C16.2947 112.04 16.3507 111.941 16.428 111.848C16.508 111.755 16.6107 111.667 16.736 111.584C16.8614 111.501 17.0147 111.429 17.196 111.368C17.38 111.307 17.5934 111.257 17.836 111.22C18.0787 111.18 18.356 111.156 18.668 111.148V110.908C18.668 110.633 18.6094 110.431 18.492 110.3C18.3747 110.167 18.2054 110.1 17.984 110.1C17.824 110.1 17.6907 110.119 17.584 110.156C17.48 110.193 17.388 110.236 17.308 110.284C17.228 110.329 17.1547 110.371 17.088 110.408C17.024 110.445 16.952 110.464 16.872 110.464C16.8027 110.464 16.744 110.447 16.696 110.412C16.648 110.375 16.6094 110.332 16.58 110.284L16.404 109.968ZM21.3665 109.9C21.4492 109.817 21.5359 109.741 21.6265 109.672C21.7199 109.6 21.8172 109.54 21.9185 109.492C22.0225 109.441 22.1332 109.403 22.2505 109.376C22.3679 109.347 22.4959 109.332 22.6345 109.332C22.8585 109.332 23.0572 109.371 23.2305 109.448C23.4039 109.523 23.5479 109.629 23.6625 109.768C23.7799 109.904 23.8679 110.068 23.9265 110.26C23.9879 110.449 24.0185 110.659 24.0185 110.888V113.5H23.0305V110.888C23.0305 110.637 22.9732 110.444 22.8585 110.308C22.7439 110.169 22.5692 110.1 22.3345 110.1C22.1639 110.1 22.0039 110.139 21.8545 110.216C21.7052 110.293 21.5639 110.399 21.4305 110.532V113.5H20.4425V109.396H21.0465C21.1745 109.396 21.2585 109.456 21.2985 109.576L21.3665 109.9ZM27.4142 110.444C27.3022 110.308 27.1795 110.212 27.0462 110.156C26.9155 110.1 26.7742 110.072 26.6222 110.072C26.4728 110.072 26.3382 110.1 26.2182 110.156C26.0982 110.212 25.9955 110.297 25.9102 110.412C25.8248 110.524 25.7595 110.668 25.7142 110.844C25.6688 111.017 25.6462 111.223 25.6462 111.46C25.6462 111.7 25.6648 111.904 25.7022 112.072C25.7422 112.237 25.7982 112.373 25.8702 112.48C25.9422 112.584 26.0302 112.66 26.1342 112.708C26.2382 112.753 26.3542 112.776 26.4822 112.776C26.6875 112.776 26.8622 112.733 27.0062 112.648C27.1502 112.563 27.2862 112.441 27.4142 112.284V110.444ZM28.4022 107.556V113.5H27.7982C27.6675 113.5 27.5848 113.44 27.5502 113.32L27.4662 112.924C27.3008 113.113 27.1102 113.267 26.8942 113.384C26.6808 113.501 26.4315 113.56 26.1462 113.56C25.9222 113.56 25.7168 113.513 25.5302 113.42C25.3435 113.327 25.1822 113.192 25.0462 113.016C24.9128 112.837 24.8088 112.617 24.7342 112.356C24.6622 112.095 24.6262 111.796 24.6262 111.46C24.6262 111.156 24.6675 110.873 24.7502 110.612C24.8328 110.351 24.9515 110.124 25.1062 109.932C25.2608 109.74 25.4462 109.591 25.6622 109.484C25.8782 109.375 26.1208 109.32 26.3902 109.32C26.6195 109.32 26.8155 109.356 26.9782 109.428C27.1408 109.5 27.2862 109.597 27.4142 109.72V107.556H28.4022ZM31.0732 109.332C31.3772 109.332 31.6532 109.381 31.9012 109.48C32.1519 109.579 32.3652 109.719 32.5412 109.9C32.7199 110.081 32.8572 110.303 32.9532 110.564C33.0492 110.825 33.0972 111.117 33.0972 111.44C33.0972 111.765 33.0492 112.059 32.9532 112.32C32.8572 112.581 32.7199 112.804 32.5412 112.988C32.3652 113.172 32.1519 113.313 31.9012 113.412C31.6532 113.511 31.3772 113.56 31.0732 113.56C30.7666 113.56 30.4879 113.511 30.2372 113.412C29.9866 113.313 29.7719 113.172 29.5932 112.988C29.4172 112.804 29.2799 112.581 29.1812 112.32C29.0852 112.059 29.0372 111.765 29.0372 111.44C29.0372 111.117 29.0852 110.825 29.1812 110.564C29.2799 110.303 29.4172 110.081 29.5932 109.9C29.7719 109.719 29.9866 109.579 30.2372 109.48C30.4879 109.381 30.7666 109.332 31.0732 109.332ZM31.0732 112.8C31.4146 112.8 31.6666 112.685 31.8292 112.456C31.9946 112.227 32.0772 111.891 32.0772 111.448C32.0772 111.005 31.9946 110.668 31.8292 110.436C31.6666 110.204 31.4146 110.088 31.0732 110.088C30.7266 110.088 30.4692 110.205 30.3012 110.44C30.1359 110.672 30.0532 111.008 30.0532 111.448C30.0532 111.888 30.1359 112.224 30.3012 112.456C30.4692 112.685 30.7266 112.8 31.0732 112.8ZM33.731 113.5V109.396H34.335C34.463 109.396 34.547 109.456 34.587 109.576L34.651 109.88C34.723 109.8 34.7976 109.727 34.875 109.66C34.955 109.593 35.039 109.536 35.127 109.488C35.2176 109.44 35.3136 109.403 35.415 109.376C35.519 109.347 35.6323 109.332 35.755 109.332C36.0136 109.332 36.2256 109.403 36.391 109.544C36.559 109.683 36.6843 109.868 36.767 110.1C36.831 109.964 36.911 109.848 37.007 109.752C37.103 109.653 37.2083 109.573 37.323 109.512C37.4376 109.451 37.559 109.405 37.687 109.376C37.8176 109.347 37.9483 109.332 38.079 109.332C38.3056 109.332 38.507 109.367 38.683 109.436C38.859 109.505 39.007 109.607 39.127 109.74C39.247 109.873 39.3376 110.036 39.399 110.228C39.463 110.42 39.495 110.64 39.495 110.888V113.5H38.507V110.888C38.507 110.627 38.4496 110.431 38.335 110.3C38.2203 110.167 38.0523 110.1 37.831 110.1C37.7296 110.1 37.635 110.117 37.547 110.152C37.4616 110.187 37.3856 110.237 37.319 110.304C37.255 110.368 37.2043 110.449 37.167 110.548C37.1296 110.647 37.111 110.76 37.111 110.888V113.5H36.119V110.888C36.119 110.613 36.063 110.413 35.951 110.288C35.8416 110.163 35.6803 110.1 35.467 110.1C35.323 110.1 35.1883 110.136 35.063 110.208C34.9403 110.277 34.8256 110.373 34.719 110.496V113.5H33.731Z" fill="black"/>
<path d="M3.5 79H47.5V78H3.5V79ZM50 81.5V113.5H51V81.5H50ZM47.5 116H3.5V117H47.5V116ZM1 113.5V81.5H0V113.5H1ZM3.5 116C2.11929 116 1 114.881 1 113.5H0C0 115.433 1.567 117 3.5 117V116ZM50 113.5C50 114.881 48.8807 116 47.5 116V117C49.433 117 51 115.433 51 113.5H50ZM47.5 79C48.8807 79 50 80.1193 50 81.5H51C51 79.567 49.433 78 47.5 78V79ZM3.5 78C1.567 78 0 79.567 0 81.5H1C1 80.1193 2.11929 79 3.5 79V78Z" fill="#979797"/>
</svg>
