<svg width="134" height="208" viewBox="0 0 134 208" fill="none" xmlns="http://www.w3.org/2000/svg">
<rect x="3.5" y="200" width="30" height="6" fill="#2F1C04"/>
<rect x="3.5" y="200" width="30" height="6" stroke="#2F1C04"/>
<path d="M11.8745 200.439V205.5H11.3915C11.3168 205.5 11.2538 205.488 11.2025 205.465C11.1535 205.439 11.1056 205.397 11.059 205.339L8.41647 201.965C8.43047 202.119 8.43747 202.261 8.43747 202.392V205.5H7.60797V200.439H8.10147C8.14114 200.439 8.17497 200.441 8.20297 200.446C8.23331 200.448 8.25897 200.455 8.27997 200.467C8.30331 200.476 8.32547 200.491 8.34647 200.512C8.36747 200.531 8.39081 200.557 8.41647 200.589L11.0695 203.977C11.0625 203.896 11.0566 203.815 11.052 203.736C11.0473 203.657 11.045 203.583 11.045 203.515V200.439H11.8745ZM17.723 202.969C17.723 203.34 17.6612 203.685 17.5375 204.002C17.4162 204.317 17.2435 204.59 17.0195 204.821C16.7955 205.052 16.526 205.233 16.211 205.363C15.896 205.492 15.546 205.556 15.161 205.556C14.7784 205.556 14.4295 205.492 14.1145 205.363C13.7995 205.233 13.5289 205.052 13.3025 204.821C13.0785 204.59 12.9047 204.317 12.781 204.002C12.6574 203.685 12.5955 203.34 12.5955 202.969C12.5955 202.598 12.6574 202.255 12.781 201.94C12.9047 201.623 13.0785 201.349 13.3025 201.118C13.5289 200.887 13.7995 200.707 14.1145 200.579C14.4295 200.448 14.7784 200.383 15.161 200.383C15.4177 200.383 15.6592 200.413 15.8855 200.474C16.1119 200.532 16.3195 200.616 16.5085 200.726C16.6975 200.833 16.8667 200.965 17.016 201.121C17.1677 201.275 17.296 201.448 17.401 201.639C17.506 201.831 17.5854 202.038 17.639 202.262C17.695 202.486 17.723 202.722 17.723 202.969ZM16.7605 202.969C16.7605 202.692 16.7232 202.443 16.6485 202.224C16.5739 202.002 16.4677 201.814 16.33 201.66C16.1924 201.506 16.0244 201.389 15.826 201.307C15.63 201.225 15.4084 201.184 15.161 201.184C14.9137 201.184 14.6909 201.225 14.4925 201.307C14.2965 201.389 14.1285 201.506 13.9885 201.66C13.8509 201.814 13.7447 202.002 13.67 202.224C13.5954 202.443 13.558 202.692 13.558 202.969C13.558 203.247 13.5954 203.497 13.67 203.718C13.7447 203.938 13.8509 204.124 13.9885 204.278C14.1285 204.43 14.2965 204.547 14.4925 204.628C14.6909 204.71 14.9137 204.751 15.161 204.751C15.4084 204.751 15.63 204.71 15.826 204.628C16.0244 204.547 16.1924 204.43 16.33 204.278C16.4677 204.124 16.5739 203.938 16.6485 203.718C16.7232 203.497 16.7605 203.247 16.7605 202.969ZM20.987 201.188V202.686H22.884V203.438H20.987V205.5H20.042V200.439H23.234V201.188H20.987ZM29.3898 200.439V205.5H28.5603V202.231C28.5603 202.1 28.5673 201.959 28.5813 201.807L27.0518 204.681C26.9795 204.819 26.8687 204.887 26.7193 204.887H26.5863C26.437 204.887 26.3262 204.819 26.2538 204.681L24.7068 201.797C24.7138 201.874 24.7197 201.95 24.7243 202.024C24.729 202.099 24.7313 202.168 24.7313 202.231V205.5H23.9018V200.439H24.6123C24.6543 200.439 24.6905 200.44 24.7208 200.442C24.7512 200.445 24.778 200.451 24.8013 200.46C24.827 200.469 24.8492 200.484 24.8678 200.505C24.8888 200.526 24.9087 200.554 24.9273 200.589L26.4428 203.4C26.4825 203.475 26.5187 203.552 26.5513 203.631C26.5863 203.71 26.6202 203.792 26.6528 203.876C26.6855 203.79 26.7193 203.707 26.7543 203.627C26.7893 203.546 26.8267 203.468 26.8663 203.393L28.3608 200.589C28.3795 200.554 28.3993 200.526 28.4203 200.505C28.4413 200.484 28.4635 200.469 28.4868 200.46C28.5125 200.451 28.5405 200.445 28.5708 200.442C28.6012 200.44 28.6373 200.439 28.6793 200.439H29.3898Z" fill="#FF9000"/>
<rect x="35.5115" y="200" width="30" height="6" fill="#2F1C04"/>
<rect x="35.5115" y="200" width="30" height="6" stroke="#2F1C04"/>
<path d="M47.5412 204.695C47.6345 204.695 47.708 204.722 47.7617 204.775C47.8177 204.827 47.8457 204.896 47.8457 204.982V205.5H44.3737V205.213C44.3737 205.155 44.3854 205.094 44.4087 205.031C44.4344 204.966 44.474 204.907 44.5277 204.856L46.0642 203.316C46.1925 203.185 46.3069 203.06 46.4072 202.941C46.5099 202.822 46.595 202.705 46.6627 202.588C46.7304 202.471 46.7817 202.353 46.8167 202.234C46.854 202.113 46.8727 201.986 46.8727 201.853C46.8727 201.732 46.8552 201.625 46.8202 201.534C46.7852 201.441 46.735 201.363 46.6697 201.3C46.6067 201.237 46.5297 201.19 46.4387 201.16C46.35 201.127 46.2497 201.111 46.1377 201.111C46.035 201.111 45.9394 201.126 45.8507 201.156C45.7644 201.184 45.6874 201.225 45.6197 201.279C45.552 201.33 45.4949 201.391 45.4482 201.461C45.4015 201.531 45.3665 201.608 45.3432 201.692C45.3035 201.799 45.2522 201.87 45.1892 201.905C45.1262 201.94 45.0352 201.949 44.9162 201.93L44.4612 201.849C44.4962 201.607 44.5639 201.394 44.6642 201.212C44.7645 201.028 44.8894 200.875 45.0387 200.754C45.1904 200.63 45.363 200.538 45.5567 200.477C45.7527 200.414 45.9627 200.383 46.1867 200.383C46.42 200.383 46.6335 200.418 46.8272 200.488C47.0209 200.556 47.1865 200.652 47.3242 200.778C47.4619 200.904 47.5692 201.056 47.6462 201.233C47.7232 201.411 47.7617 201.608 47.7617 201.825C47.7617 202.012 47.7337 202.184 47.6777 202.343C47.624 202.502 47.5505 202.653 47.4572 202.798C47.3662 202.943 47.2589 203.083 47.1352 203.218C47.0115 203.353 46.882 203.491 46.7467 203.631L45.6057 204.796C45.7154 204.764 45.8239 204.739 45.9312 204.723C46.0409 204.704 46.1447 204.695 46.2427 204.695H47.5412ZM56.4772 204.852V205.5H53.6772V204.852H54.7027V201.902C54.7027 201.785 54.7062 201.665 54.7132 201.541L53.9852 202.15C53.9432 202.183 53.9012 202.204 53.8592 202.213C53.8195 202.22 53.781 202.22 53.7437 202.213C53.7087 202.206 53.6772 202.195 53.6492 202.178C53.6212 202.16 53.6002 202.14 53.5862 202.119L53.3132 201.744L54.8567 200.432H55.5672V204.852H56.4772Z" fill="#FF9000"/>
<path d="M52.3865 203L49.574 205.143L49.574 200.857L52.3865 203Z" fill="#FF9000"/>
<rect x="67.5115" y="200" width="30" height="6" fill="#2F1C04"/>
<rect x="67.5115" y="200" width="30" height="6" stroke="#2F1C04"/>
<path d="M70.5151 201.849C70.5501 201.607 70.6177 201.394 70.7181 201.212C70.8184 201.028 70.9432 200.875 71.0926 200.754C71.2442 200.63 71.4169 200.538 71.6106 200.477C71.8066 200.414 72.0166 200.383 72.2406 200.383C72.4739 200.383 72.6839 200.417 72.8706 200.484C73.0596 200.55 73.2206 200.642 73.3536 200.761C73.4866 200.878 73.5881 201.015 73.6581 201.174C73.7304 201.333 73.7666 201.504 73.7666 201.688C73.7666 201.849 73.7479 201.992 73.7106 202.115C73.6756 202.237 73.6242 202.343 73.5566 202.434C73.4889 202.525 73.4049 202.602 73.3046 202.665C73.2042 202.728 73.0911 202.78 72.9651 202.822C73.2684 202.918 73.4947 203.064 73.6441 203.26C73.7934 203.456 73.8681 203.702 73.8681 203.998C73.8681 204.25 73.8214 204.473 73.7281 204.667C73.6347 204.861 73.5087 205.024 73.3501 205.157C73.1914 205.288 73.0071 205.387 72.7971 205.454C72.5894 205.522 72.3689 205.556 72.1356 205.556C71.8812 205.556 71.6596 205.527 71.4706 205.468C71.2816 205.41 71.1171 205.324 70.9771 205.209C70.8371 205.095 70.7181 204.955 70.6201 204.789C70.5221 204.624 70.4381 204.432 70.3681 204.215L70.7496 204.058C70.8499 204.016 70.9432 204.005 71.0296 204.026C71.1182 204.045 71.1824 204.092 71.2221 204.166C71.2641 204.248 71.3096 204.329 71.3586 204.408C71.4099 204.487 71.4706 204.558 71.5406 204.621C71.6106 204.682 71.6922 204.732 71.7856 204.772C71.8812 204.809 71.9944 204.828 72.1251 204.828C72.2721 204.828 72.4004 204.805 72.5101 204.758C72.6197 204.709 72.7107 204.646 72.7831 204.569C72.8577 204.492 72.9126 204.407 72.9476 204.313C72.9849 204.218 73.0036 204.122 73.0036 204.026C73.0036 203.905 72.9907 203.795 72.9651 203.697C72.9394 203.597 72.8857 203.512 72.8041 203.442C72.7224 203.372 72.6046 203.317 72.4506 203.277C72.2989 203.238 72.0947 203.218 71.8381 203.218V202.602C72.0504 202.6 72.2266 202.58 72.3666 202.542C72.5066 202.505 72.6174 202.454 72.6991 202.388C72.7831 202.321 72.8414 202.24 72.8741 202.147C72.9067 202.054 72.9231 201.951 72.9231 201.839C72.9231 201.601 72.8566 201.42 72.7236 201.296C72.5906 201.173 72.4132 201.111 72.1916 201.111C72.0889 201.111 71.9944 201.126 71.9081 201.156C71.8217 201.184 71.7436 201.225 71.6736 201.279C71.6059 201.33 71.5487 201.391 71.5021 201.461C71.4554 201.531 71.4204 201.608 71.3971 201.692C71.3574 201.799 71.3049 201.87 71.2396 201.905C71.1766 201.94 71.0867 201.949 70.9701 201.93L70.5151 201.849ZM83.9147 204.695C84.008 204.695 84.0815 204.722 84.1352 204.775C84.1912 204.827 84.2192 204.896 84.2192 204.982V205.5H80.7472V205.213C80.7472 205.155 80.7589 205.094 80.7822 205.031C80.8079 204.966 80.8475 204.907 80.9012 204.856L82.4377 203.316C82.566 203.185 82.6804 203.06 82.7807 202.941C82.8834 202.822 82.9685 202.705 83.0362 202.588C83.1039 202.471 83.1552 202.353 83.1902 202.234C83.2275 202.113 83.2462 201.986 83.2462 201.853C83.2462 201.732 83.2287 201.625 83.1937 201.534C83.1587 201.441 83.1085 201.363 83.0432 201.3C82.9802 201.237 82.9032 201.19 82.8122 201.16C82.7235 201.127 82.6232 201.111 82.5112 201.111C82.4085 201.111 82.3129 201.126 82.2242 201.156C82.1379 201.184 82.0609 201.225 81.9932 201.279C81.9255 201.33 81.8684 201.391 81.8217 201.461C81.775 201.531 81.74 201.608 81.7167 201.692C81.677 201.799 81.6257 201.87 81.5627 201.905C81.4997 201.94 81.4087 201.949 81.2897 201.93L80.8347 201.849C80.8697 201.607 80.9374 201.394 81.0377 201.212C81.138 201.028 81.2629 200.875 81.4122 200.754C81.5639 200.63 81.7365 200.538 81.9302 200.477C82.1262 200.414 82.3362 200.383 82.5602 200.383C82.7935 200.383 83.007 200.418 83.2007 200.488C83.3944 200.556 83.56 200.652 83.6977 200.778C83.8354 200.904 83.9427 201.056 84.0197 201.233C84.0967 201.411 84.1352 201.608 84.1352 201.825C84.1352 202.012 84.1072 202.184 84.0512 202.343C83.9975 202.502 83.924 202.653 83.8307 202.798C83.7397 202.943 83.6324 203.083 83.5087 203.218C83.385 203.353 83.2555 203.491 83.1202 203.631L81.9792 204.796C82.0889 204.764 82.1974 204.739 82.3047 204.723C82.4144 204.704 82.5182 204.695 82.6162 204.695H83.9147ZM94.4478 204.852V205.5H91.6478V204.852H92.6733V201.902C92.6733 201.785 92.6768 201.665 92.6838 201.541L91.9558 202.15C91.9138 202.183 91.8718 202.204 91.8298 202.213C91.7902 202.22 91.7517 202.22 91.7143 202.213C91.6793 202.206 91.6478 202.195 91.6198 202.178C91.5918 202.16 91.5708 202.14 91.5568 202.119L91.2838 201.744L92.8273 200.432H93.5378V204.852H94.4478Z" fill="#FF9000"/>
<path d="M78.7615 203L75.949 205.143L75.949 200.857L78.7615 203Z" fill="#FF9000"/>
<path d="M89.074 203L86.2615 205.143L86.2615 200.857L89.074 203Z" fill="#FF9000"/>
<rect x="99.5115" y="200" width="30" height="6" fill="#FF9300"/>
<rect x="99.5115" y="200" width="30" height="6" stroke="#FF9300"/>
<path d="M105.571 204.695C105.664 204.695 105.737 204.722 105.791 204.775C105.847 204.827 105.875 204.896 105.875 204.982V205.5H102.403V205.213C102.403 205.155 102.415 205.094 102.438 205.031C102.464 204.966 102.503 204.907 102.557 204.856L104.094 203.316C104.222 203.185 104.336 203.06 104.437 202.941C104.539 202.822 104.624 202.705 104.692 202.588C104.76 202.471 104.811 202.353 104.846 202.234C104.883 202.113 104.902 201.986 104.902 201.853C104.902 201.732 104.885 201.625 104.85 201.534C104.815 201.441 104.764 201.363 104.699 201.3C104.636 201.237 104.559 201.19 104.468 201.16C104.379 201.127 104.279 201.111 104.167 201.111C104.064 201.111 103.969 201.126 103.88 201.156C103.794 201.184 103.717 201.225 103.649 201.279C103.581 201.33 103.524 201.391 103.478 201.461C103.431 201.531 103.396 201.608 103.373 201.692C103.333 201.799 103.282 201.87 103.219 201.905C103.156 201.94 103.065 201.949 102.946 201.93L102.491 201.849C102.526 201.607 102.593 201.394 102.694 201.212C102.794 201.028 102.919 200.875 103.068 200.754C103.22 200.63 103.392 200.538 103.586 200.477C103.782 200.414 103.992 200.383 104.216 200.383C104.449 200.383 104.663 200.418 104.857 200.488C105.05 200.556 105.216 200.652 105.354 200.778C105.491 200.904 105.599 201.056 105.676 201.233C105.753 201.411 105.791 201.608 105.791 201.825C105.791 202.012 105.763 202.184 105.707 202.343C105.653 202.502 105.58 202.653 105.487 202.798C105.396 202.943 105.288 203.083 105.165 203.218C105.041 203.353 104.911 203.491 104.776 203.631L103.635 204.796C103.745 204.764 103.853 204.739 103.961 204.723C104.07 204.704 104.174 204.695 104.272 204.695H105.571ZM116.104 204.852V205.5H113.304V204.852H114.329V201.902C114.329 201.785 114.333 201.665 114.34 201.541L113.612 202.15C113.57 202.183 113.528 202.204 113.486 202.213C113.446 202.22 113.408 202.22 113.37 202.213C113.335 202.206 113.304 202.195 113.276 202.178C113.248 202.16 113.227 202.14 113.213 202.119L112.94 201.744L114.483 200.432H115.194V204.852H116.104ZM123.203 201.849C123.238 201.607 123.306 201.394 123.406 201.212C123.507 201.028 123.632 200.875 123.781 200.754C123.933 200.63 124.105 200.538 124.299 200.477C124.495 200.414 124.705 200.383 124.929 200.383C125.162 200.383 125.372 200.417 125.559 200.484C125.748 200.55 125.909 200.642 126.042 200.761C126.175 200.878 126.276 201.015 126.346 201.174C126.419 201.333 126.455 201.504 126.455 201.688C126.455 201.849 126.436 201.992 126.399 202.115C126.364 202.237 126.313 202.343 126.245 202.434C126.177 202.525 126.093 202.602 125.993 202.665C125.893 202.728 125.779 202.78 125.653 202.822C125.957 202.918 126.183 203.064 126.332 203.26C126.482 203.456 126.556 203.702 126.556 203.998C126.556 204.25 126.51 204.473 126.416 204.667C126.323 204.861 126.197 205.024 126.038 205.157C125.88 205.288 125.695 205.387 125.485 205.454C125.278 205.522 125.057 205.556 124.824 205.556C124.57 205.556 124.348 205.527 124.159 205.468C123.97 205.41 123.805 205.324 123.665 205.209C123.525 205.095 123.406 204.955 123.308 204.789C123.21 204.624 123.126 204.432 123.056 204.215L123.438 204.058C123.538 204.016 123.632 204.005 123.718 204.026C123.807 204.045 123.871 204.092 123.91 204.166C123.952 204.248 123.998 204.329 124.047 204.408C124.098 204.487 124.159 204.558 124.229 204.621C124.299 204.682 124.381 204.732 124.474 204.772C124.57 204.809 124.683 204.828 124.813 204.828C124.96 204.828 125.089 204.805 125.198 204.758C125.308 204.709 125.399 204.646 125.471 204.569C125.546 204.492 125.601 204.407 125.636 204.313C125.673 204.218 125.692 204.122 125.692 204.026C125.692 203.905 125.679 203.795 125.653 203.697C125.628 203.597 125.574 203.512 125.492 203.442C125.411 203.372 125.293 203.317 125.139 203.277C124.987 203.238 124.783 203.218 124.526 203.218V202.602C124.739 202.6 124.915 202.58 125.055 202.542C125.195 202.505 125.306 202.454 125.387 202.388C125.471 202.321 125.53 202.24 125.562 202.147C125.595 202.054 125.611 201.951 125.611 201.839C125.611 201.601 125.545 201.42 125.412 201.296C125.279 201.173 125.102 201.111 124.88 201.111C124.777 201.111 124.683 201.126 124.596 201.156C124.51 201.184 124.432 201.225 124.362 201.279C124.294 201.33 124.237 201.391 124.19 201.461C124.144 201.531 124.109 201.608 124.085 201.692C124.046 201.799 123.993 201.87 123.928 201.905C123.865 201.94 123.775 201.949 123.658 201.93L123.203 201.849Z" fill="black"/>
<path d="M110.761 203L107.949 205.143L107.949 200.857L110.761 203Z" fill="black"/>
<path d="M118.261 203L121.074 200.857L121.074 205.143L118.261 203Z" fill="black"/>
<path fill-rule="evenodd" clip-rule="evenodd" d="M1 160V163H121V171H128V173L132 170.5L128 168V170H123V160H1Z" fill="#FF9000"/>
<rect x="13.5" y="182.5" width="10" height="10" stroke="#FF9000"/>
<rect x="45.5" y="182.5" width="10" height="10" stroke="#FF9000"/>
<rect x="77.5" y="182.5" width="10" height="10" stroke="#FF9000"/>
<path opacity="0.5" d="M119 182.5H109V192.5H119V182.5Z" stroke="#FF9000"/>
<path d="M38 188H37V197.012H83V193H82V196H38V188Z" fill="#FF9000"/>
<path d="M20.0922 189.352V190H17.2922V189.352H18.3177V186.402C18.3177 186.285 18.3212 186.165 18.3282 186.041L17.6002 186.65C17.5582 186.683 17.5162 186.704 17.4742 186.713C17.4346 186.72 17.3961 186.72 17.3587 186.713C17.3237 186.706 17.2922 186.695 17.2642 186.678C17.2362 186.66 17.2152 186.64 17.2012 186.619L16.9282 186.244L18.4717 184.932H19.1822V189.352H20.0922Z" fill="white"/>
<path d="M51.9032 189.195C51.9966 189.195 52.0701 189.222 52.1237 189.275C52.1797 189.327 52.2077 189.396 52.2077 189.482V190H48.7357V189.713C48.7357 189.655 48.7474 189.594 48.7707 189.531C48.7964 189.466 48.8361 189.407 48.8897 189.356L50.4262 187.816C50.5546 187.685 50.6689 187.56 50.7692 187.441C50.8719 187.322 50.9571 187.205 51.0247 187.088C51.0924 186.971 51.1437 186.853 51.1787 186.734C51.2161 186.613 51.2347 186.486 51.2347 186.353C51.2347 186.232 51.2172 186.125 51.1822 186.034C51.1472 185.941 51.0971 185.863 51.0317 185.8C50.9687 185.737 50.8917 185.69 50.8007 185.66C50.7121 185.627 50.6117 185.611 50.4997 185.611C50.3971 185.611 50.3014 185.626 50.2127 185.656C50.1264 185.684 50.0494 185.725 49.9817 185.779C49.9141 185.83 49.8569 185.891 49.8102 185.961C49.7636 186.031 49.7286 186.108 49.7052 186.192C49.6656 186.299 49.6142 186.37 49.5512 186.405C49.4882 186.44 49.3972 186.449 49.2782 186.43L48.8232 186.349C48.8582 186.107 48.9259 185.894 49.0262 185.712C49.1266 185.528 49.2514 185.375 49.4007 185.254C49.5524 185.13 49.7251 185.038 49.9187 184.977C50.1147 184.914 50.3247 184.883 50.5487 184.883C50.7821 184.883 50.9956 184.918 51.1892 184.988C51.3829 185.056 51.5486 185.152 51.6862 185.278C51.8239 185.404 51.9312 185.556 52.0082 185.733C52.0852 185.911 52.1237 186.108 52.1237 186.325C52.1237 186.512 52.0957 186.684 52.0397 186.843C51.9861 187.002 51.9126 187.153 51.8192 187.298C51.7282 187.443 51.6209 187.583 51.4972 187.718C51.3736 187.853 51.2441 187.991 51.1087 188.131L49.9677 189.296C50.0774 189.264 50.1859 189.239 50.2932 189.223C50.4029 189.204 50.5067 189.195 50.6047 189.195H51.9032Z" fill="white"/>
<path d="M80.8477 186.349C80.8827 186.107 80.9504 185.894 81.0507 185.712C81.1511 185.528 81.2759 185.375 81.4252 185.254C81.5769 185.13 81.7496 185.038 81.9432 184.977C82.1392 184.914 82.3492 184.883 82.5732 184.883C82.8066 184.883 83.0166 184.917 83.2032 184.984C83.3922 185.05 83.5532 185.142 83.6862 185.261C83.8192 185.378 83.9207 185.515 83.9907 185.674C84.0631 185.833 84.0992 186.004 84.0992 186.188C84.0992 186.349 84.0806 186.492 84.0432 186.615C84.0082 186.737 83.9569 186.843 83.8892 186.934C83.8216 187.025 83.7376 187.102 83.6372 187.165C83.5369 187.228 83.4237 187.28 83.2977 187.322C83.6011 187.418 83.8274 187.564 83.9767 187.76C84.1261 187.956 84.2007 188.202 84.2007 188.498C84.2007 188.75 84.1541 188.973 84.0607 189.167C83.9674 189.361 83.8414 189.524 83.6827 189.657C83.5241 189.788 83.3397 189.887 83.1297 189.954C82.9221 190.022 82.7016 190.056 82.4682 190.056C82.2139 190.056 81.9922 190.027 81.8032 189.968C81.6142 189.91 81.4497 189.824 81.3097 189.709C81.1697 189.595 81.0507 189.455 80.9527 189.289C80.8547 189.124 80.7707 188.932 80.7007 188.715L81.0822 188.558C81.1826 188.516 81.2759 188.505 81.3622 188.526C81.4509 188.545 81.5151 188.592 81.5547 188.666C81.5967 188.748 81.6422 188.829 81.6912 188.908C81.7426 188.987 81.8032 189.058 81.8732 189.121C81.9432 189.182 82.0249 189.232 82.1182 189.272C82.2139 189.309 82.3271 189.328 82.4577 189.328C82.6047 189.328 82.7331 189.305 82.8427 189.258C82.9524 189.209 83.0434 189.146 83.1157 189.069C83.1904 188.992 83.2452 188.907 83.2802 188.813C83.3176 188.718 83.3362 188.622 83.3362 188.526C83.3362 188.405 83.3234 188.295 83.2977 188.197C83.2721 188.097 83.2184 188.012 83.1367 187.942C83.0551 187.872 82.9372 187.817 82.7832 187.777C82.6316 187.738 82.4274 187.718 82.1707 187.718V187.102C82.3831 187.1 82.5592 187.08 82.6992 187.042C82.8392 187.005 82.9501 186.954 83.0317 186.888C83.1157 186.821 83.1741 186.74 83.2067 186.647C83.2394 186.554 83.2557 186.451 83.2557 186.339C83.2557 186.101 83.1892 185.92 83.0562 185.796C82.9232 185.673 82.7459 185.611 82.5242 185.611C82.4216 185.611 82.3271 185.626 82.2407 185.656C82.1544 185.684 82.0762 185.725 82.0062 185.779C81.9386 185.83 81.8814 185.891 81.8347 185.961C81.7881 186.031 81.7531 186.108 81.7297 186.192C81.6901 186.299 81.6376 186.37 81.5722 186.405C81.5092 186.44 81.4194 186.449 81.3027 186.43L80.8477 186.349Z" fill="white"/>
<path d="M116.133 184.939V190H115.65C115.576 190 115.513 189.988 115.461 189.965C115.412 189.939 115.364 189.897 115.318 189.839L112.675 186.465C112.689 186.619 112.696 186.761 112.696 186.892V190H111.867V184.939H112.36C112.4 184.939 112.434 184.941 112.462 184.946C112.492 184.948 112.518 184.955 112.539 184.967C112.562 184.976 112.584 184.991 112.605 185.012C112.626 185.031 112.65 185.057 112.675 185.089L115.328 188.477C115.321 188.396 115.315 188.315 115.311 188.236C115.306 188.157 115.304 188.083 115.304 188.015V184.939H116.133Z" fill="white"/>
<g opacity="0.5">
<path fill-rule="evenodd" clip-rule="evenodd" d="M31.4532 173.547L32.4689 172.531L34.502 174.564L36.5306 172.532L37.5434 173.544L35.5141 175.576L37.5478 177.61L36.532 178.625L34.499 176.592L32.469 178.625L31.4562 177.614L33.487 175.58L31.4532 173.547Z" fill="#EEEEEE"/>
<path d="M34.5 180.5C37.2614 180.5 39.5 178.261 39.5 175.5C39.5 172.739 37.2614 170.5 34.5 170.5C31.7386 170.5 29.5 172.739 29.5 175.5C29.5 178.261 31.7386 180.5 34.5 180.5Z" stroke="#FF9000"/>
</g>
<g opacity="0.5">
<path fill-rule="evenodd" clip-rule="evenodd" d="M63.4532 173.547L64.4689 172.531L66.502 174.564L68.5306 172.532L69.5434 173.544L67.5141 175.576L69.5478 177.61L68.532 178.625L66.499 176.592L64.469 178.625L63.4562 177.614L65.487 175.58L63.4532 173.547Z" fill="#EEEEEE"/>
<path d="M66.5 180.5C69.2614 180.5 71.5 178.261 71.5 175.5C71.5 172.739 69.2614 170.5 66.5 170.5C63.7386 170.5 61.5 172.739 61.5 175.5C61.5 178.261 63.7386 180.5 66.5 180.5Z" stroke="#FF9000"/>
</g>
<path fill-rule="evenodd" clip-rule="evenodd" d="M82 168L80 168L82.5 164L85 168L83 168L82 168Z" fill="#FF9000"/>
<path d="M82 182L82 167.5L83 167.5L83 182L82 182Z" fill="#FF9000"/>
<g opacity="0.5">
<path fill-rule="evenodd" clip-rule="evenodd" d="M113.5 168L111.5 168L114 164L116.5 168L114.5 168L113.5 168Z" fill="#FF9000"/>
<path d="M113.5 182L113.5 167.5L114.5 167.5L114.5 182L113.5 182Z" fill="#FF9000"/>
</g>
<path fill-rule="evenodd" clip-rule="evenodd" d="M50 168L48 168L50.5 164L53 168L51 168L50 168Z" fill="#FF9000"/>
<path d="M50 182L50 167.5L51 167.5L51 182L50 182Z" fill="#FF9000"/>
<path fill-rule="evenodd" clip-rule="evenodd" d="M18 168L16 168L18.5 164L21 168L19 168L18 168Z" fill="#FF9000"/>
<path d="M18 182L18 167.5L19 167.5L19 182L18 182Z" fill="#FF9000"/>
<g opacity="0.5">
<path fill-rule="evenodd" clip-rule="evenodd" d="M34 168L32 168L34.5 164L37 168L35 168L34 168Z" fill="#FF9000"/>
<path d="M34 170L34 167.5L35 167.5L35 170L34 170Z" fill="#FF9000"/>
</g>
<g opacity="0.5">
<path fill-rule="evenodd" clip-rule="evenodd" d="M66 168L64 168L66.5 164L69 168L67 168L66 168Z" fill="#FF9000"/>
<path d="M66 170L66 167.5L67 167.5L67 170L66 170Z" fill="#FF9000"/>
</g>
<g opacity="0.5">
<path fill-rule="evenodd" clip-rule="evenodd" d="M45 176L45 178L41 175.5L45 173L45 175L45 176Z" fill="#FF9000"/>
<path d="M50 176L44.5 176L44.5 175L50 175L50 176Z" fill="#FF9000"/>
</g>
<g opacity="0.5">
<path fill-rule="evenodd" clip-rule="evenodd" d="M77 176L77 178L73 175.5L77 173L77 175L77 176Z" fill="#FF9000"/>
<path d="M82 176L76.5 176L76.5 175L82 175L82 176Z" fill="#FF9000"/>
</g>
<path fill-rule="evenodd" clip-rule="evenodd" d="M29 188L29 190L25 187.5L29 185L29 187L29 188Z" fill="#FF9000"/>
<path d="M45 188L28.5 188L28.5 187L45 187L45 188Z" fill="#FF9000"/>
<g opacity="0.5">
<path fill-rule="evenodd" clip-rule="evenodd" d="M24 175L24 173L28 175.5L24 178L24 176L24 175Z" fill="#FF9000"/>
<path d="M19 175L24.5 175L24.5 176L19 176L19 175Z" fill="#FF9000"/>
</g>
<g opacity="0.5">
<path fill-rule="evenodd" clip-rule="evenodd" d="M56 175L56 173L60 175.5L56 178L56 176L56 175Z" fill="#FF9000"/>
<path d="M51 175L56.5 175L56.5 176L51 176L51 175Z" fill="#FF9000"/>
</g>
<rect x="3.5" y="148" width="30" height="6" fill="#2F1C04"/>
<rect x="3.5" y="148" width="30" height="6" stroke="#2F1C04"/>
<path d="M11.8745 148.439V153.5H11.3915C11.3168 153.5 11.2538 153.488 11.2025 153.465C11.1535 153.439 11.1056 153.397 11.059 153.339L8.41647 149.965C8.43047 150.119 8.43747 150.261 8.43747 150.392V153.5H7.60797V148.439H8.10147C8.14114 148.439 8.17497 148.441 8.20297 148.446C8.23331 148.448 8.25897 148.455 8.27997 148.467C8.30331 148.476 8.32547 148.491 8.34647 148.512C8.36747 148.531 8.39081 148.557 8.41647 148.589L11.0695 151.977C11.0625 151.896 11.0566 151.815 11.052 151.736C11.0473 151.657 11.045 151.583 11.045 151.515V148.439H11.8745ZM17.723 150.969C17.723 151.34 17.6612 151.685 17.5375 152.002C17.4162 152.317 17.2435 152.59 17.0195 152.821C16.7955 153.052 16.526 153.233 16.211 153.363C15.896 153.492 15.546 153.556 15.161 153.556C14.7784 153.556 14.4295 153.492 14.1145 153.363C13.7995 153.233 13.5289 153.052 13.3025 152.821C13.0785 152.59 12.9047 152.317 12.781 152.002C12.6574 151.685 12.5955 151.34 12.5955 150.969C12.5955 150.598 12.6574 150.255 12.781 149.94C12.9047 149.623 13.0785 149.349 13.3025 149.118C13.5289 148.887 13.7995 148.707 14.1145 148.579C14.4295 148.448 14.7784 148.383 15.161 148.383C15.4177 148.383 15.6592 148.413 15.8855 148.474C16.1119 148.532 16.3195 148.616 16.5085 148.726C16.6975 148.833 16.8667 148.965 17.016 149.121C17.1677 149.275 17.296 149.448 17.401 149.639C17.506 149.831 17.5854 150.038 17.639 150.262C17.695 150.486 17.723 150.722 17.723 150.969ZM16.7605 150.969C16.7605 150.692 16.7232 150.443 16.6485 150.224C16.5739 150.002 16.4677 149.814 16.33 149.66C16.1924 149.506 16.0244 149.389 15.826 149.307C15.63 149.225 15.4084 149.184 15.161 149.184C14.9137 149.184 14.6909 149.225 14.4925 149.307C14.2965 149.389 14.1285 149.506 13.9885 149.66C13.8509 149.814 13.7447 150.002 13.67 150.224C13.5954 150.443 13.558 150.692 13.558 150.969C13.558 151.247 13.5954 151.497 13.67 151.718C13.7447 151.938 13.8509 152.124 13.9885 152.278C14.1285 152.43 14.2965 152.547 14.4925 152.628C14.6909 152.71 14.9137 152.751 15.161 152.751C15.4084 152.751 15.63 152.71 15.826 152.628C16.0244 152.547 16.1924 152.43 16.33 152.278C16.4677 152.124 16.5739 151.938 16.6485 151.718C16.7232 151.497 16.7605 151.247 16.7605 150.969ZM20.987 149.188V150.686H22.884V151.438H20.987V153.5H20.042V148.439H23.234V149.188H20.987ZM29.3898 148.439V153.5H28.5603V150.231C28.5603 150.1 28.5673 149.959 28.5813 149.807L27.0518 152.681C26.9795 152.819 26.8687 152.887 26.7193 152.887H26.5863C26.437 152.887 26.3262 152.819 26.2538 152.681L24.7068 149.797C24.7138 149.874 24.7197 149.95 24.7243 150.024C24.729 150.099 24.7313 150.168 24.7313 150.231V153.5H23.9018V148.439H24.6123C24.6543 148.439 24.6905 148.44 24.7208 148.442C24.7512 148.445 24.778 148.451 24.8013 148.46C24.827 148.469 24.8492 148.484 24.8678 148.505C24.8888 148.526 24.9087 148.554 24.9273 148.589L26.4428 151.4C26.4825 151.475 26.5187 151.552 26.5513 151.631C26.5863 151.71 26.6202 151.792 26.6528 151.876C26.6855 151.79 26.7193 151.707 26.7543 151.627C26.7893 151.546 26.8267 151.468 26.8663 151.393L28.3608 148.589C28.3795 148.554 28.3993 148.526 28.4203 148.505C28.4413 148.484 28.4635 148.469 28.4868 148.46C28.5125 148.451 28.5405 148.445 28.5708 148.442C28.6012 148.44 28.6373 148.439 28.6793 148.439H29.3898Z" fill="#FF9000"/>
<rect x="35.5115" y="148" width="30" height="6" fill="#2F1C04"/>
<rect x="35.5115" y="148" width="30" height="6" stroke="#2F1C04"/>
<path d="M47.5412 152.695C47.6345 152.695 47.708 152.722 47.7617 152.775C47.8177 152.827 47.8457 152.896 47.8457 152.982V153.5H44.3737V153.213C44.3737 153.155 44.3854 153.094 44.4087 153.031C44.4344 152.966 44.474 152.907 44.5277 152.856L46.0642 151.316C46.1925 151.185 46.3069 151.06 46.4072 150.941C46.5099 150.822 46.595 150.705 46.6627 150.588C46.7304 150.471 46.7817 150.353 46.8167 150.234C46.854 150.113 46.8727 149.986 46.8727 149.853C46.8727 149.732 46.8552 149.625 46.8202 149.534C46.7852 149.441 46.735 149.363 46.6697 149.3C46.6067 149.237 46.5297 149.19 46.4387 149.16C46.35 149.127 46.2497 149.111 46.1377 149.111C46.035 149.111 45.9394 149.126 45.8507 149.156C45.7644 149.184 45.6874 149.225 45.6197 149.279C45.552 149.33 45.4949 149.391 45.4482 149.461C45.4015 149.531 45.3665 149.608 45.3432 149.692C45.3035 149.799 45.2522 149.87 45.1892 149.905C45.1262 149.94 45.0352 149.949 44.9162 149.93L44.4612 149.849C44.4962 149.607 44.5639 149.394 44.6642 149.212C44.7645 149.028 44.8894 148.875 45.0387 148.754C45.1904 148.63 45.363 148.538 45.5567 148.477C45.7527 148.414 45.9627 148.383 46.1867 148.383C46.42 148.383 46.6335 148.418 46.8272 148.488C47.0209 148.556 47.1865 148.652 47.3242 148.778C47.4619 148.904 47.5692 149.056 47.6462 149.233C47.7232 149.411 47.7617 149.608 47.7617 149.825C47.7617 150.012 47.7337 150.184 47.6777 150.343C47.624 150.502 47.5505 150.653 47.4572 150.798C47.3662 150.943 47.2589 151.083 47.1352 151.218C47.0115 151.353 46.882 151.491 46.7467 151.631L45.6057 152.796C45.7154 152.764 45.8239 152.739 45.9312 152.723C46.0409 152.704 46.1447 152.695 46.2427 152.695H47.5412ZM56.4772 152.852V153.5H53.6772V152.852H54.7027V149.902C54.7027 149.785 54.7062 149.665 54.7132 149.541L53.9852 150.15C53.9432 150.183 53.9012 150.204 53.8592 150.213C53.8195 150.22 53.781 150.22 53.7437 150.213C53.7087 150.206 53.6772 150.195 53.6492 150.178C53.6212 150.16 53.6002 150.14 53.5862 150.119L53.3132 149.744L54.8567 148.432H55.5672V152.852H56.4772Z" fill="#FF9000"/>
<path d="M52.3865 151L49.574 153.143L49.574 148.857L52.3865 151Z" fill="#FF9000"/>
<rect x="67.5115" y="148" width="30" height="6" fill="#FF9300"/>
<rect x="67.5115" y="148" width="30" height="6" stroke="#FF9300"/>
<path d="M70.5151 149.849C70.5501 149.607 70.6177 149.394 70.7181 149.212C70.8184 149.028 70.9432 148.875 71.0926 148.754C71.2442 148.63 71.4169 148.538 71.6106 148.477C71.8066 148.414 72.0166 148.383 72.2406 148.383C72.4739 148.383 72.6839 148.417 72.8706 148.484C73.0596 148.55 73.2206 148.642 73.3536 148.761C73.4866 148.878 73.5881 149.015 73.6581 149.174C73.7304 149.333 73.7666 149.504 73.7666 149.688C73.7666 149.849 73.7479 149.992 73.7106 150.115C73.6756 150.237 73.6242 150.343 73.5566 150.434C73.4889 150.525 73.4049 150.602 73.3046 150.665C73.2042 150.728 73.0911 150.78 72.9651 150.822C73.2684 150.918 73.4947 151.064 73.6441 151.26C73.7934 151.456 73.8681 151.702 73.8681 151.998C73.8681 152.25 73.8214 152.473 73.7281 152.667C73.6347 152.861 73.5087 153.024 73.3501 153.157C73.1914 153.288 73.0071 153.387 72.7971 153.454C72.5894 153.522 72.3689 153.556 72.1356 153.556C71.8812 153.556 71.6596 153.527 71.4706 153.468C71.2816 153.41 71.1171 153.324 70.9771 153.209C70.8371 153.095 70.7181 152.955 70.6201 152.789C70.5221 152.624 70.4381 152.432 70.3681 152.215L70.7496 152.058C70.8499 152.016 70.9432 152.005 71.0296 152.026C71.1182 152.045 71.1824 152.092 71.2221 152.166C71.2641 152.248 71.3096 152.329 71.3586 152.408C71.4099 152.487 71.4706 152.558 71.5406 152.621C71.6106 152.682 71.6922 152.732 71.7856 152.772C71.8812 152.809 71.9944 152.828 72.1251 152.828C72.2721 152.828 72.4004 152.805 72.5101 152.758C72.6197 152.709 72.7107 152.646 72.7831 152.569C72.8577 152.492 72.9126 152.407 72.9476 152.313C72.9849 152.218 73.0036 152.122 73.0036 152.026C73.0036 151.905 72.9907 151.795 72.9651 151.697C72.9394 151.597 72.8857 151.512 72.8041 151.442C72.7224 151.372 72.6046 151.317 72.4506 151.277C72.2989 151.238 72.0947 151.218 71.8381 151.218V150.602C72.0504 150.6 72.2266 150.58 72.3666 150.542C72.5066 150.505 72.6174 150.454 72.6991 150.388C72.7831 150.321 72.8414 150.24 72.8741 150.147C72.9067 150.054 72.9231 149.951 72.9231 149.839C72.9231 149.601 72.8566 149.42 72.7236 149.296C72.5906 149.173 72.4132 149.111 72.1916 149.111C72.0889 149.111 71.9944 149.126 71.9081 149.156C71.8217 149.184 71.7436 149.225 71.6736 149.279C71.6059 149.33 71.5487 149.391 71.5021 149.461C71.4554 149.531 71.4204 149.608 71.3971 149.692C71.3574 149.799 71.3049 149.87 71.2396 149.905C71.1766 149.94 71.0867 149.949 70.9701 149.93L70.5151 149.849ZM83.9147 152.695C84.008 152.695 84.0815 152.722 84.1352 152.775C84.1912 152.827 84.2192 152.896 84.2192 152.982V153.5H80.7472V153.213C80.7472 153.155 80.7589 153.094 80.7822 153.031C80.8079 152.966 80.8475 152.907 80.9012 152.856L82.4377 151.316C82.566 151.185 82.6804 151.06 82.7807 150.941C82.8834 150.822 82.9685 150.705 83.0362 150.588C83.1039 150.471 83.1552 150.353 83.1902 150.234C83.2275 150.113 83.2462 149.986 83.2462 149.853C83.2462 149.732 83.2287 149.625 83.1937 149.534C83.1587 149.441 83.1085 149.363 83.0432 149.3C82.9802 149.237 82.9032 149.19 82.8122 149.16C82.7235 149.127 82.6232 149.111 82.5112 149.111C82.4085 149.111 82.3129 149.126 82.2242 149.156C82.1379 149.184 82.0609 149.225 81.9932 149.279C81.9255 149.33 81.8684 149.391 81.8217 149.461C81.775 149.531 81.74 149.608 81.7167 149.692C81.677 149.799 81.6257 149.87 81.5627 149.905C81.4997 149.94 81.4087 149.949 81.2897 149.93L80.8347 149.849C80.8697 149.607 80.9374 149.394 81.0377 149.212C81.138 149.028 81.2629 148.875 81.4122 148.754C81.5639 148.63 81.7365 148.538 81.9302 148.477C82.1262 148.414 82.3362 148.383 82.5602 148.383C82.7935 148.383 83.007 148.418 83.2007 148.488C83.3944 148.556 83.56 148.652 83.6977 148.778C83.8354 148.904 83.9427 149.056 84.0197 149.233C84.0967 149.411 84.1352 149.608 84.1352 149.825C84.1352 150.012 84.1072 150.184 84.0512 150.343C83.9975 150.502 83.924 150.653 83.8307 150.798C83.7397 150.943 83.6324 151.083 83.5087 151.218C83.385 151.353 83.2555 151.491 83.1202 151.631L81.9792 152.796C82.0889 152.764 82.1974 152.739 82.3047 152.723C82.4144 152.704 82.5182 152.695 82.6162 152.695H83.9147ZM94.4478 152.852V153.5H91.6478V152.852H92.6733V149.902C92.6733 149.785 92.6768 149.665 92.6838 149.541L91.9558 150.15C91.9138 150.183 91.8718 150.204 91.8298 150.213C91.7902 150.22 91.7517 150.22 91.7143 150.213C91.6793 150.206 91.6478 150.195 91.6198 150.178C91.5918 150.16 91.5708 150.14 91.5568 150.119L91.2838 149.744L92.8273 148.432H93.5378V152.852H94.4478Z" fill="black"/>
<path d="M78.7615 151L75.949 153.143L75.949 148.857L78.7615 151Z" fill="black"/>
<path d="M89.074 151L86.2615 153.143L86.2615 148.857L89.074 151Z" fill="black"/>
<rect x="99.5115" y="148" width="30" height="6" fill="#2F1C04"/>
<rect x="99.5115" y="148" width="30" height="6" stroke="#2F1C04"/>
<path d="M105.571 152.695C105.664 152.695 105.737 152.722 105.791 152.775C105.847 152.827 105.875 152.896 105.875 152.982V153.5H102.403V153.213C102.403 153.155 102.415 153.094 102.438 153.031C102.464 152.966 102.503 152.907 102.557 152.856L104.094 151.316C104.222 151.185 104.336 151.06 104.437 150.941C104.539 150.822 104.624 150.705 104.692 150.588C104.76 150.471 104.811 150.353 104.846 150.234C104.883 150.113 104.902 149.986 104.902 149.853C104.902 149.732 104.885 149.625 104.85 149.534C104.815 149.441 104.764 149.363 104.699 149.3C104.636 149.237 104.559 149.19 104.468 149.16C104.379 149.127 104.279 149.111 104.167 149.111C104.064 149.111 103.969 149.126 103.88 149.156C103.794 149.184 103.717 149.225 103.649 149.279C103.581 149.33 103.524 149.391 103.478 149.461C103.431 149.531 103.396 149.608 103.373 149.692C103.333 149.799 103.282 149.87 103.219 149.905C103.156 149.94 103.065 149.949 102.946 149.93L102.491 149.849C102.526 149.607 102.593 149.394 102.694 149.212C102.794 149.028 102.919 148.875 103.068 148.754C103.22 148.63 103.392 148.538 103.586 148.477C103.782 148.414 103.992 148.383 104.216 148.383C104.449 148.383 104.663 148.418 104.857 148.488C105.05 148.556 105.216 148.652 105.354 148.778C105.491 148.904 105.599 149.056 105.676 149.233C105.753 149.411 105.791 149.608 105.791 149.825C105.791 150.012 105.763 150.184 105.707 150.343C105.653 150.502 105.58 150.653 105.487 150.798C105.396 150.943 105.288 151.083 105.165 151.218C105.041 151.353 104.911 151.491 104.776 151.631L103.635 152.796C103.745 152.764 103.853 152.739 103.961 152.723C104.07 152.704 104.174 152.695 104.272 152.695H105.571ZM116.104 152.852V153.5H113.304V152.852H114.329V149.902C114.329 149.785 114.333 149.665 114.34 149.541L113.612 150.15C113.57 150.183 113.528 150.204 113.486 150.213C113.446 150.22 113.408 150.22 113.37 150.213C113.335 150.206 113.304 150.195 113.276 150.178C113.248 150.16 113.227 150.14 113.213 150.119L112.94 149.744L114.483 148.432H115.194V152.852H116.104ZM123.203 149.849C123.238 149.607 123.306 149.394 123.406 149.212C123.507 149.028 123.632 148.875 123.781 148.754C123.933 148.63 124.105 148.538 124.299 148.477C124.495 148.414 124.705 148.383 124.929 148.383C125.162 148.383 125.372 148.417 125.559 148.484C125.748 148.55 125.909 148.642 126.042 148.761C126.175 148.878 126.276 149.015 126.346 149.174C126.419 149.333 126.455 149.504 126.455 149.688C126.455 149.849 126.436 149.992 126.399 150.115C126.364 150.237 126.313 150.343 126.245 150.434C126.177 150.525 126.093 150.602 125.993 150.665C125.893 150.728 125.779 150.78 125.653 150.822C125.957 150.918 126.183 151.064 126.332 151.26C126.482 151.456 126.556 151.702 126.556 151.998C126.556 152.25 126.51 152.473 126.416 152.667C126.323 152.861 126.197 153.024 126.038 153.157C125.88 153.288 125.695 153.387 125.485 153.454C125.278 153.522 125.057 153.556 124.824 153.556C124.57 153.556 124.348 153.527 124.159 153.468C123.97 153.41 123.805 153.324 123.665 153.209C123.525 153.095 123.406 152.955 123.308 152.789C123.21 152.624 123.126 152.432 123.056 152.215L123.438 152.058C123.538 152.016 123.632 152.005 123.718 152.026C123.807 152.045 123.871 152.092 123.91 152.166C123.952 152.248 123.998 152.329 124.047 152.408C124.098 152.487 124.159 152.558 124.229 152.621C124.299 152.682 124.381 152.732 124.474 152.772C124.57 152.809 124.683 152.828 124.813 152.828C124.96 152.828 125.089 152.805 125.198 152.758C125.308 152.709 125.399 152.646 125.471 152.569C125.546 152.492 125.601 152.407 125.636 152.313C125.673 152.218 125.692 152.122 125.692 152.026C125.692 151.905 125.679 151.795 125.653 151.697C125.628 151.597 125.574 151.512 125.492 151.442C125.411 151.372 125.293 151.317 125.139 151.277C124.987 151.238 124.783 151.218 124.526 151.218V150.602C124.739 150.6 124.915 150.58 125.055 150.542C125.195 150.505 125.306 150.454 125.387 150.388C125.471 150.321 125.53 150.24 125.562 150.147C125.595 150.054 125.611 149.951 125.611 149.839C125.611 149.601 125.545 149.42 125.412 149.296C125.279 149.173 125.102 149.111 124.88 149.111C124.777 149.111 124.683 149.126 124.596 149.156C124.51 149.184 124.432 149.225 124.362 149.279C124.294 149.33 124.237 149.391 124.19 149.461C124.144 149.531 124.109 149.608 124.085 149.692C124.046 149.799 123.993 149.87 123.928 149.905C123.865 149.94 123.775 149.949 123.658 149.93L123.203 149.849Z" fill="#FF9000"/>
<path d="M110.761 151L107.949 153.143L107.949 148.857L110.761 151Z" fill="#FF9000"/>
<path d="M118.261 151L121.074 148.857L121.074 153.143L118.261 151Z" fill="#FF9000"/>
<path fill-rule="evenodd" clip-rule="evenodd" d="M1 108V111H121V119H128V121L132 118.5L128 116V118H123V108H1Z" fill="#FF9000"/>
<rect x="13.5" y="130.5" width="10" height="10" stroke="#FF9000"/>
<rect x="45.5" y="130.5" width="10" height="10" stroke="#FF9000"/>
<rect x="77.5" y="130.5" width="10" height="10" stroke="#FF9000"/>
<path opacity="0.5" d="M119 130.5H109V140.5H119V130.5Z" stroke="#FF9000"/>
<path d="M20.0922 137.352V138H17.2922V137.352H18.3177V134.402C18.3177 134.285 18.3212 134.165 18.3282 134.041L17.6002 134.65C17.5582 134.683 17.5162 134.704 17.4742 134.713C17.4346 134.72 17.3961 134.72 17.3587 134.713C17.3237 134.706 17.2922 134.695 17.2642 134.678C17.2362 134.66 17.2152 134.64 17.2012 134.619L16.9282 134.244L18.4717 132.932H19.1822V137.352H20.0922Z" fill="white"/>
<path d="M51.9032 137.195C51.9966 137.195 52.0701 137.222 52.1237 137.275C52.1797 137.327 52.2077 137.396 52.2077 137.482V138H48.7357V137.713C48.7357 137.655 48.7474 137.594 48.7707 137.531C48.7964 137.466 48.8361 137.407 48.8897 137.356L50.4262 135.816C50.5546 135.685 50.6689 135.56 50.7692 135.441C50.8719 135.322 50.9571 135.205 51.0247 135.088C51.0924 134.971 51.1437 134.853 51.1787 134.734C51.2161 134.613 51.2347 134.486 51.2347 134.353C51.2347 134.232 51.2172 134.125 51.1822 134.034C51.1472 133.941 51.0971 133.863 51.0317 133.8C50.9687 133.737 50.8917 133.69 50.8007 133.66C50.7121 133.627 50.6117 133.611 50.4997 133.611C50.3971 133.611 50.3014 133.626 50.2127 133.656C50.1264 133.684 50.0494 133.725 49.9817 133.779C49.9141 133.83 49.8569 133.891 49.8102 133.961C49.7636 134.031 49.7286 134.108 49.7052 134.192C49.6656 134.299 49.6142 134.37 49.5512 134.405C49.4882 134.44 49.3972 134.449 49.2782 134.43L48.8232 134.349C48.8582 134.107 48.9259 133.894 49.0262 133.712C49.1266 133.528 49.2514 133.375 49.4007 133.254C49.5524 133.13 49.7251 133.038 49.9187 132.977C50.1147 132.914 50.3247 132.883 50.5487 132.883C50.7821 132.883 50.9956 132.918 51.1892 132.988C51.3829 133.056 51.5486 133.152 51.6862 133.278C51.8239 133.404 51.9312 133.556 52.0082 133.733C52.0852 133.911 52.1237 134.108 52.1237 134.325C52.1237 134.512 52.0957 134.684 52.0397 134.843C51.9861 135.002 51.9126 135.153 51.8192 135.298C51.7282 135.443 51.6209 135.583 51.4972 135.718C51.3736 135.853 51.2441 135.991 51.1087 136.131L49.9677 137.296C50.0774 137.264 50.1859 137.239 50.2932 137.223C50.4029 137.204 50.5067 137.195 50.6047 137.195H51.9032Z" fill="white"/>
<path d="M80.8477 134.349C80.8827 134.107 80.9504 133.894 81.0507 133.712C81.1511 133.528 81.2759 133.375 81.4252 133.254C81.5769 133.13 81.7496 133.038 81.9432 132.977C82.1392 132.914 82.3492 132.883 82.5732 132.883C82.8066 132.883 83.0166 132.917 83.2032 132.984C83.3922 133.05 83.5532 133.142 83.6862 133.261C83.8192 133.378 83.9207 133.515 83.9907 133.674C84.0631 133.833 84.0992 134.004 84.0992 134.188C84.0992 134.349 84.0806 134.492 84.0432 134.615C84.0082 134.737 83.9569 134.843 83.8892 134.934C83.8216 135.025 83.7376 135.102 83.6372 135.165C83.5369 135.228 83.4237 135.28 83.2977 135.322C83.6011 135.418 83.8274 135.564 83.9767 135.76C84.1261 135.956 84.2007 136.202 84.2007 136.498C84.2007 136.75 84.1541 136.973 84.0607 137.167C83.9674 137.361 83.8414 137.524 83.6827 137.657C83.5241 137.788 83.3397 137.887 83.1297 137.954C82.9221 138.022 82.7016 138.056 82.4682 138.056C82.2139 138.056 81.9922 138.027 81.8032 137.968C81.6142 137.91 81.4497 137.824 81.3097 137.709C81.1697 137.595 81.0507 137.455 80.9527 137.289C80.8547 137.124 80.7707 136.932 80.7007 136.715L81.0822 136.558C81.1826 136.516 81.2759 136.505 81.3622 136.526C81.4509 136.545 81.5151 136.592 81.5547 136.666C81.5967 136.748 81.6422 136.829 81.6912 136.908C81.7426 136.987 81.8032 137.058 81.8732 137.121C81.9432 137.182 82.0249 137.232 82.1182 137.272C82.2139 137.309 82.3271 137.328 82.4577 137.328C82.6047 137.328 82.7331 137.305 82.8427 137.258C82.9524 137.209 83.0434 137.146 83.1157 137.069C83.1904 136.992 83.2452 136.907 83.2802 136.813C83.3176 136.718 83.3362 136.622 83.3362 136.526C83.3362 136.405 83.3234 136.295 83.2977 136.197C83.2721 136.097 83.2184 136.012 83.1367 135.942C83.0551 135.872 82.9372 135.817 82.7832 135.777C82.6316 135.738 82.4274 135.718 82.1707 135.718V135.102C82.3831 135.1 82.5592 135.08 82.6992 135.042C82.8392 135.005 82.9501 134.954 83.0317 134.888C83.1157 134.821 83.1741 134.74 83.2067 134.647C83.2394 134.554 83.2557 134.451 83.2557 134.339C83.2557 134.101 83.1892 133.92 83.0562 133.796C82.9232 133.673 82.7459 133.611 82.5242 133.611C82.4216 133.611 82.3271 133.626 82.2407 133.656C82.1544 133.684 82.0762 133.725 82.0062 133.779C81.9386 133.83 81.8814 133.891 81.8347 133.961C81.7881 134.031 81.7531 134.108 81.7297 134.192C81.6901 134.299 81.6376 134.37 81.5722 134.405C81.5092 134.44 81.4194 134.449 81.3027 134.43L80.8477 134.349Z" fill="white"/>
<path d="M116.133 132.939V138H115.65C115.576 138 115.513 137.988 115.461 137.965C115.412 137.939 115.364 137.897 115.318 137.839L112.675 134.465C112.689 134.619 112.696 134.761 112.696 134.892V138H111.867V132.939H112.36C112.4 132.939 112.434 132.941 112.462 132.946C112.492 132.948 112.518 132.955 112.539 132.967C112.562 132.976 112.584 132.991 112.605 133.012C112.626 133.031 112.65 133.057 112.675 133.089L115.328 136.477C115.321 136.396 115.315 136.315 115.311 136.236C115.306 136.157 115.304 136.083 115.304 136.015V132.939H116.133Z" fill="white"/>
<g opacity="0.5">
<path fill-rule="evenodd" clip-rule="evenodd" d="M31.4532 121.547L32.4689 120.531L34.502 122.564L36.5306 120.532L37.5434 121.544L35.5141 123.576L37.5478 125.61L36.532 126.625L34.499 124.592L32.469 126.625L31.4562 125.614L33.487 123.58L31.4532 121.547Z" fill="#EEEEEE"/>
<path d="M34.5 128.5C37.2614 128.5 39.5 126.261 39.5 123.5C39.5 120.739 37.2614 118.5 34.5 118.5C31.7386 118.5 29.5 120.739 29.5 123.5C29.5 126.261 31.7386 128.5 34.5 128.5Z" stroke="#FF9000"/>
</g>
<g opacity="0.5">
<path fill-rule="evenodd" clip-rule="evenodd" d="M63.4532 121.547L64.4689 120.531L66.502 122.564L68.5306 120.532L69.5434 121.544L67.5141 123.576L69.5478 125.61L68.532 126.625L66.499 124.592L64.469 126.625L63.4562 125.614L65.487 123.58L63.4532 121.547Z" fill="#EEEEEE"/>
<path d="M66.5 128.5C69.2614 128.5 71.5 126.261 71.5 123.5C71.5 120.739 69.2614 118.5 66.5 118.5C63.7386 118.5 61.5 120.739 61.5 123.5C61.5 126.261 63.7386 128.5 66.5 128.5Z" stroke="#FF9000"/>
</g>
<path fill-rule="evenodd" clip-rule="evenodd" d="M82 116L80 116L82.5 112L85 116L83 116L82 116Z" fill="#FF9000"/>
<path d="M82 130L82 115.5L83 115.5L83 130L82 130Z" fill="#FF9000"/>
<g opacity="0.5">
<path fill-rule="evenodd" clip-rule="evenodd" d="M113.5 116L111.5 116L114 112L116.5 116L114.5 116L113.5 116Z" fill="#FF9000"/>
<path d="M113.5 130L113.5 115.5L114.5 115.5L114.5 130L113.5 130Z" fill="#FF9000"/>
</g>
<path fill-rule="evenodd" clip-rule="evenodd" d="M50 116L48 116L50.5 112L53 116L51 116L50 116Z" fill="#FF9000"/>
<path d="M50 130L50 115.5L51 115.5L51 130L50 130Z" fill="#FF9000"/>
<path fill-rule="evenodd" clip-rule="evenodd" d="M18 116L16 116L18.5 112L21 116L19 116L18 116Z" fill="#FF9000"/>
<path d="M18 130L18 115.5L19 115.5L19 130L18 130Z" fill="#FF9000"/>
<g opacity="0.5">
<path fill-rule="evenodd" clip-rule="evenodd" d="M34 116L32 116L34.5 112L37 116L35 116L34 116Z" fill="#FF9000"/>
<path d="M34 118L34 115.5L35 115.5L35 118L34 118Z" fill="#FF9000"/>
</g>
<g opacity="0.5">
<path fill-rule="evenodd" clip-rule="evenodd" d="M66 116L64 116L66.5 112L69 116L67 116L66 116Z" fill="#FF9000"/>
<path d="M66 118L66 115.5L67 115.5L67 118L66 118Z" fill="#FF9000"/>
</g>
<g opacity="0.5">
<path fill-rule="evenodd" clip-rule="evenodd" d="M45 124L45 126L41 123.5L45 121L45 123L45 124Z" fill="#FF9000"/>
<path d="M50 124L44.5 124L44.5 123L50 123L50 124Z" fill="#FF9000"/>
</g>
<g opacity="0.5">
<path fill-rule="evenodd" clip-rule="evenodd" d="M77 124L77 126L73 123.5L77 121L77 123L77 124Z" fill="#FF9000"/>
<path d="M82 124L76.5 124L76.5 123L82 123L82 124Z" fill="#FF9000"/>
</g>
<path fill-rule="evenodd" clip-rule="evenodd" d="M61 136L61 138L57 135.5L61 133L61 135L61 136Z" fill="#FF9000"/>
<path d="M77 136L60.5 136L60.5 135L77 135L77 136Z" fill="#FF9000"/>
<path fill-rule="evenodd" clip-rule="evenodd" d="M29 136L29 138L25 135.5L29 133L29 135L29 136Z" fill="#FF9000"/>
<path d="M45 136L28.5 136L28.5 135L45 135L45 136Z" fill="#FF9000"/>
<g opacity="0.5">
<path fill-rule="evenodd" clip-rule="evenodd" d="M24 123L24 121L28 123.5L24 126L24 124L24 123Z" fill="#FF9000"/>
<path d="M19 123L24.5 123L24.5 124L19 124L19 123Z" fill="#FF9000"/>
</g>
<g opacity="0.5">
<path fill-rule="evenodd" clip-rule="evenodd" d="M56 123L56 121L60 123.5L56 126L56 124L56 123Z" fill="#FF9000"/>
<path d="M51 123L56.5 123L56.5 124L51 124L51 123Z" fill="#FF9000"/>
</g>
<rect x="3.5" y="96" width="30" height="6" fill="#2F1C04"/>
<rect x="3.5" y="96" width="30" height="6" stroke="#2F1C04"/>
<path d="M11.8745 96.439V101.5H11.3915C11.3168 101.5 11.2538 101.488 11.2025 101.465C11.1535 101.439 11.1056 101.397 11.059 101.339L8.41647 97.965C8.43047 98.119 8.43747 98.2613 8.43747 98.392V101.5H7.60797V96.439H8.10147C8.14114 96.439 8.17497 96.4413 8.20297 96.446C8.23331 96.4483 8.25897 96.4553 8.27997 96.467C8.30331 96.4763 8.32547 96.4915 8.34647 96.5125C8.36747 96.5312 8.39081 96.5568 8.41647 96.5895L11.0695 99.9775C11.0625 99.8958 11.0566 99.8153 11.052 99.736C11.0473 99.6567 11.045 99.5832 11.045 99.5155V96.439H11.8745ZM17.723 98.9695C17.723 99.3405 17.6612 99.6847 17.5375 100.002C17.4162 100.317 17.2435 100.59 17.0195 100.821C16.7955 101.052 16.526 101.233 16.211 101.363C15.896 101.492 15.546 101.556 15.161 101.556C14.7784 101.556 14.4295 101.492 14.1145 101.363C13.7995 101.233 13.5289 101.052 13.3025 100.821C13.0785 100.59 12.9047 100.317 12.781 100.002C12.6574 99.6847 12.5955 99.3405 12.5955 98.9695C12.5955 98.5985 12.6574 98.2555 12.781 97.9405C12.9047 97.6232 13.0785 97.349 13.3025 97.118C13.5289 96.887 13.7995 96.7073 14.1145 96.579C14.4295 96.4483 14.7784 96.383 15.161 96.383C15.4177 96.383 15.6592 96.4133 15.8855 96.474C16.1119 96.5323 16.3195 96.6163 16.5085 96.726C16.6975 96.8333 16.8667 96.9652 17.016 97.1215C17.1677 97.2755 17.296 97.4482 17.401 97.6395C17.506 97.8308 17.5854 98.0385 17.639 98.2625C17.695 98.4865 17.723 98.7222 17.723 98.9695ZM16.7605 98.9695C16.7605 98.6918 16.7232 98.4433 16.6485 98.224C16.5739 98.0023 16.4677 97.8145 16.33 97.6605C16.1924 97.5065 16.0244 97.3887 15.826 97.307C15.63 97.2253 15.4084 97.1845 15.161 97.1845C14.9137 97.1845 14.6909 97.2253 14.4925 97.307C14.2965 97.3887 14.1285 97.5065 13.9885 97.6605C13.8509 97.8145 13.7447 98.0023 13.67 98.224C13.5954 98.4433 13.558 98.6918 13.558 98.9695C13.558 99.2472 13.5954 99.4968 13.67 99.7185C13.7447 99.9378 13.8509 100.124 13.9885 100.278C14.1285 100.43 14.2965 100.547 14.4925 100.628C14.6909 100.71 14.9137 100.751 15.161 100.751C15.4084 100.751 15.63 100.71 15.826 100.628C16.0244 100.547 16.1924 100.43 16.33 100.278C16.4677 100.124 16.5739 99.9378 16.6485 99.7185C16.7232 99.4968 16.7605 99.2472 16.7605 98.9695ZM20.987 97.188V98.686H22.884V99.4385H20.987V101.5H20.042V96.439H23.234V97.188H20.987ZM29.3898 96.439V101.5H28.5603V98.231C28.5603 98.1003 28.5673 97.9592 28.5813 97.8075L27.0518 100.681C26.9795 100.819 26.8687 100.887 26.7193 100.887H26.5863C26.437 100.887 26.3262 100.819 26.2538 100.681L24.7068 97.797C24.7138 97.874 24.7197 97.9498 24.7243 98.0245C24.729 98.0992 24.7313 98.168 24.7313 98.231V101.5H23.9018V96.439H24.6123C24.6543 96.439 24.6905 96.4402 24.7208 96.4425C24.7512 96.4448 24.778 96.4507 24.8013 96.46C24.827 96.4693 24.8492 96.4845 24.8678 96.5055C24.8888 96.5265 24.9087 96.5545 24.9273 96.5895L26.4428 99.4C26.4825 99.4747 26.5187 99.5517 26.5513 99.631C26.5863 99.7103 26.6202 99.792 26.6528 99.876C26.6855 99.7897 26.7193 99.7068 26.7543 99.6275C26.7893 99.5458 26.8267 99.4677 26.8663 99.393L28.3608 96.5895C28.3795 96.5545 28.3993 96.5265 28.4203 96.5055C28.4413 96.4845 28.4635 96.4693 28.4868 96.46C28.5125 96.4507 28.5405 96.4448 28.5708 96.4425C28.6012 96.4402 28.6373 96.439 28.6793 96.439H29.3898Z" fill="#FF9000"/>
<rect x="35.5115" y="96" width="30" height="6" fill="#FF9300"/>
<rect x="35.5115" y="96" width="30" height="6" stroke="#FF9300"/>
<path d="M47.5412 100.695C47.6345 100.695 47.708 100.722 47.7617 100.775C47.8177 100.827 47.8457 100.896 47.8457 100.982V101.5H44.3737V101.213C44.3737 101.155 44.3854 101.094 44.4087 101.031C44.4344 100.966 44.474 100.907 44.5277 100.856L46.0642 99.316C46.1925 99.1853 46.3069 99.0605 46.4072 98.9415C46.5099 98.8225 46.595 98.7047 46.6627 98.588C46.7304 98.4713 46.7817 98.3535 46.8167 98.2345C46.854 98.1132 46.8727 97.986 46.8727 97.853C46.8727 97.7317 46.8552 97.6255 46.8202 97.5345C46.7852 97.4412 46.735 97.363 46.6697 97.3C46.6067 97.237 46.5297 97.1903 46.4387 97.16C46.35 97.1273 46.2497 97.111 46.1377 97.111C46.035 97.111 45.9394 97.1262 45.8507 97.1565C45.7644 97.1845 45.6874 97.2253 45.6197 97.279C45.552 97.3303 45.4949 97.391 45.4482 97.461C45.4015 97.531 45.3665 97.608 45.3432 97.692C45.3035 97.7993 45.2522 97.8705 45.1892 97.9055C45.1262 97.9405 45.0352 97.9487 44.9162 97.93L44.4612 97.8495C44.4962 97.6068 44.5639 97.3945 44.6642 97.2125C44.7645 97.0282 44.8894 96.8753 45.0387 96.754C45.1904 96.6303 45.363 96.5382 45.5567 96.4775C45.7527 96.4145 45.9627 96.383 46.1867 96.383C46.42 96.383 46.6335 96.418 46.8272 96.488C47.0209 96.5557 47.1865 96.6525 47.3242 96.7785C47.4619 96.9045 47.5692 97.0562 47.6462 97.2335C47.7232 97.4108 47.7617 97.608 47.7617 97.825C47.7617 98.0117 47.7337 98.1843 47.6777 98.343C47.624 98.5017 47.5505 98.6533 47.4572 98.798C47.3662 98.9427 47.2589 99.0827 47.1352 99.218C47.0115 99.3533 46.882 99.491 46.7467 99.631L45.6057 100.796C45.7154 100.764 45.8239 100.739 45.9312 100.723C46.0409 100.704 46.1447 100.695 46.2427 100.695H47.5412ZM56.4772 100.852V101.5H53.6772V100.852H54.7027V97.902C54.7027 97.7853 54.7062 97.6652 54.7132 97.5415L53.9852 98.1505C53.9432 98.1832 53.9012 98.2042 53.8592 98.2135C53.8195 98.2205 53.781 98.2205 53.7437 98.2135C53.7087 98.2065 53.6772 98.1948 53.6492 98.1785C53.6212 98.1598 53.6002 98.14 53.5862 98.119L53.3132 97.7445L54.8567 96.432H55.5672V100.852H56.4772Z" fill="black"/>
<path d="M52.3865 99L49.574 101.143L49.574 96.8571L52.3865 99Z" fill="black"/>
<rect x="67.5115" y="96" width="30" height="6" fill="#2F1C04"/>
<rect x="67.5115" y="96" width="30" height="6" stroke="#2F1C04"/>
<path d="M70.5151 97.8495C70.5501 97.6068 70.6177 97.3945 70.7181 97.2125C70.8184 97.0282 70.9432 96.8753 71.0926 96.754C71.2442 96.6303 71.4169 96.5382 71.6106 96.4775C71.8066 96.4145 72.0166 96.383 72.2406 96.383C72.4739 96.383 72.6839 96.4168 72.8706 96.4845C73.0596 96.5498 73.2206 96.642 73.3536 96.761C73.4866 96.8777 73.5881 97.0153 73.6581 97.174C73.7304 97.3327 73.7666 97.5042 73.7666 97.6885C73.7666 97.8495 73.7479 97.9918 73.7106 98.1155C73.6756 98.2368 73.6242 98.343 73.5566 98.434C73.4889 98.525 73.4049 98.602 73.3046 98.665C73.2042 98.728 73.0911 98.7805 72.9651 98.8225C73.2684 98.9182 73.4947 99.064 73.6441 99.26C73.7934 99.456 73.8681 99.7022 73.8681 99.9985C73.8681 100.25 73.8214 100.473 73.7281 100.667C73.6347 100.861 73.5087 101.024 73.3501 101.157C73.1914 101.288 73.0071 101.387 72.7971 101.454C72.5894 101.522 72.3689 101.556 72.1356 101.556C71.8812 101.556 71.6596 101.527 71.4706 101.468C71.2816 101.41 71.1171 101.324 70.9771 101.209C70.8371 101.095 70.7181 100.955 70.6201 100.789C70.5221 100.624 70.4381 100.432 70.3681 100.215L70.7496 100.058C70.8499 100.016 70.9432 100.005 71.0296 100.026C71.1182 100.045 71.1824 100.092 71.2221 100.166C71.2641 100.248 71.3096 100.329 71.3586 100.408C71.4099 100.487 71.4706 100.558 71.5406 100.621C71.6106 100.682 71.6922 100.732 71.7856 100.772C71.8812 100.809 71.9944 100.828 72.1251 100.828C72.2721 100.828 72.4004 100.805 72.5101 100.758C72.6197 100.709 72.7107 100.646 72.7831 100.569C72.8577 100.492 72.9126 100.407 72.9476 100.313C72.9849 100.218 73.0036 100.122 73.0036 100.026C73.0036 99.9052 72.9907 99.7955 72.9651 99.6975C72.9394 99.5972 72.8857 99.512 72.8041 99.442C72.7224 99.372 72.6046 99.3172 72.4506 99.2775C72.2989 99.2378 72.0947 99.218 71.8381 99.218V98.602C72.0504 98.5997 72.2266 98.5798 72.3666 98.5425C72.5066 98.5052 72.6174 98.4538 72.6991 98.3885C72.7831 98.3208 72.8414 98.2403 72.8741 98.147C72.9067 98.0537 72.9231 97.951 72.9231 97.839C72.9231 97.601 72.8566 97.4202 72.7236 97.2965C72.5906 97.1728 72.4132 97.111 72.1916 97.111C72.0889 97.111 71.9944 97.1262 71.9081 97.1565C71.8217 97.1845 71.7436 97.2253 71.6736 97.279C71.6059 97.3303 71.5487 97.391 71.5021 97.461C71.4554 97.531 71.4204 97.608 71.3971 97.692C71.3574 97.7993 71.3049 97.8705 71.2396 97.9055C71.1766 97.9405 71.0867 97.9487 70.9701 97.93L70.5151 97.8495ZM83.9147 100.695C84.008 100.695 84.0815 100.722 84.1352 100.775C84.1912 100.827 84.2192 100.896 84.2192 100.982V101.5H80.7472V101.213C80.7472 101.155 80.7589 101.094 80.7822 101.031C80.8079 100.966 80.8475 100.907 80.9012 100.856L82.4377 99.316C82.566 99.1853 82.6804 99.0605 82.7807 98.9415C82.8834 98.8225 82.9685 98.7047 83.0362 98.588C83.1039 98.4713 83.1552 98.3535 83.1902 98.2345C83.2275 98.1132 83.2462 97.986 83.2462 97.853C83.2462 97.7317 83.2287 97.6255 83.1937 97.5345C83.1587 97.4412 83.1085 97.363 83.0432 97.3C82.9802 97.237 82.9032 97.1903 82.8122 97.16C82.7235 97.1273 82.6232 97.111 82.5112 97.111C82.4085 97.111 82.3129 97.1262 82.2242 97.1565C82.1379 97.1845 82.0609 97.2253 81.9932 97.279C81.9255 97.3303 81.8684 97.391 81.8217 97.461C81.775 97.531 81.74 97.608 81.7167 97.692C81.677 97.7993 81.6257 97.8705 81.5627 97.9055C81.4997 97.9405 81.4087 97.9487 81.2897 97.93L80.8347 97.8495C80.8697 97.6068 80.9374 97.3945 81.0377 97.2125C81.138 97.0282 81.2629 96.8753 81.4122 96.754C81.5639 96.6303 81.7365 96.5382 81.9302 96.4775C82.1262 96.4145 82.3362 96.383 82.5602 96.383C82.7935 96.383 83.007 96.418 83.2007 96.488C83.3944 96.5557 83.56 96.6525 83.6977 96.7785C83.8354 96.9045 83.9427 97.0562 84.0197 97.2335C84.0967 97.4108 84.1352 97.608 84.1352 97.825C84.1352 98.0117 84.1072 98.1843 84.0512 98.343C83.9975 98.5017 83.924 98.6533 83.8307 98.798C83.7397 98.9427 83.6324 99.0827 83.5087 99.218C83.385 99.3533 83.2555 99.491 83.1202 99.631L81.9792 100.796C82.0889 100.764 82.1974 100.739 82.3047 100.723C82.4144 100.704 82.5182 100.695 82.6162 100.695H83.9147ZM94.4478 100.852V101.5H91.6478V100.852H92.6733V97.902C92.6733 97.7853 92.6768 97.6652 92.6838 97.5415L91.9558 98.1505C91.9138 98.1832 91.8718 98.2042 91.8298 98.2135C91.7902 98.2205 91.7517 98.2205 91.7143 98.2135C91.6793 98.2065 91.6478 98.1948 91.6198 98.1785C91.5918 98.1598 91.5708 98.14 91.5568 98.119L91.2838 97.7445L92.8273 96.432H93.5378V100.852H94.4478Z" fill="#FF9000"/>
<path d="M78.7615 99L75.949 101.143L75.949 96.8571L78.7615 99Z" fill="#FF9000"/>
<path d="M89.074 99L86.2615 101.143L86.2615 96.8571L89.074 99Z" fill="#FF9000"/>
<rect x="99.5115" y="96" width="30" height="6" fill="#2F1C04"/>
<rect x="99.5115" y="96" width="30" height="6" stroke="#2F1C04"/>
<path d="M105.571 100.695C105.664 100.695 105.737 100.722 105.791 100.775C105.847 100.827 105.875 100.896 105.875 100.982V101.5H102.403V101.213C102.403 101.155 102.415 101.094 102.438 101.031C102.464 100.966 102.503 100.907 102.557 100.856L104.094 99.316C104.222 99.1853 104.336 99.0605 104.437 98.9415C104.539 98.8225 104.624 98.7047 104.692 98.588C104.76 98.4713 104.811 98.3535 104.846 98.2345C104.883 98.1132 104.902 97.986 104.902 97.853C104.902 97.7317 104.885 97.6255 104.85 97.5345C104.815 97.4412 104.764 97.363 104.699 97.3C104.636 97.237 104.559 97.1903 104.468 97.16C104.379 97.1273 104.279 97.111 104.167 97.111C104.064 97.111 103.969 97.1262 103.88 97.1565C103.794 97.1845 103.717 97.2253 103.649 97.279C103.581 97.3303 103.524 97.391 103.478 97.461C103.431 97.531 103.396 97.608 103.373 97.692C103.333 97.7993 103.282 97.8705 103.219 97.9055C103.156 97.9405 103.065 97.9487 102.946 97.93L102.491 97.8495C102.526 97.6068 102.593 97.3945 102.694 97.2125C102.794 97.0282 102.919 96.8753 103.068 96.754C103.22 96.6303 103.392 96.5382 103.586 96.4775C103.782 96.4145 103.992 96.383 104.216 96.383C104.449 96.383 104.663 96.418 104.857 96.488C105.05 96.5557 105.216 96.6525 105.354 96.7785C105.491 96.9045 105.599 97.0562 105.676 97.2335C105.753 97.4108 105.791 97.608 105.791 97.825C105.791 98.0117 105.763 98.1843 105.707 98.343C105.653 98.5017 105.58 98.6533 105.487 98.798C105.396 98.9427 105.288 99.0827 105.165 99.218C105.041 99.3533 104.911 99.491 104.776 99.631L103.635 100.796C103.745 100.764 103.853 100.739 103.961 100.723C104.07 100.704 104.174 100.695 104.272 100.695H105.571ZM116.104 100.852V101.5H113.304V100.852H114.329V97.902C114.329 97.7853 114.333 97.6652 114.34 97.5415L113.612 98.1505C113.57 98.1832 113.528 98.2042 113.486 98.2135C113.446 98.2205 113.408 98.2205 113.37 98.2135C113.335 98.2065 113.304 98.1948 113.276 98.1785C113.248 98.1598 113.227 98.14 113.213 98.119L112.94 97.7445L114.483 96.432H115.194V100.852H116.104ZM123.203 97.8495C123.238 97.6068 123.306 97.3945 123.406 97.2125C123.507 97.0282 123.632 96.8753 123.781 96.754C123.933 96.6303 124.105 96.5382 124.299 96.4775C124.495 96.4145 124.705 96.383 124.929 96.383C125.162 96.383 125.372 96.4168 125.559 96.4845C125.748 96.5498 125.909 96.642 126.042 96.761C126.175 96.8777 126.276 97.0153 126.346 97.174C126.419 97.3327 126.455 97.5042 126.455 97.6885C126.455 97.8495 126.436 97.9918 126.399 98.1155C126.364 98.2368 126.313 98.343 126.245 98.434C126.177 98.525 126.093 98.602 125.993 98.665C125.893 98.728 125.779 98.7805 125.653 98.8225C125.957 98.9182 126.183 99.064 126.332 99.26C126.482 99.456 126.556 99.7022 126.556 99.9985C126.556 100.25 126.51 100.473 126.416 100.667C126.323 100.861 126.197 101.024 126.038 101.157C125.88 101.288 125.695 101.387 125.485 101.454C125.278 101.522 125.057 101.556 124.824 101.556C124.57 101.556 124.348 101.527 124.159 101.468C123.97 101.41 123.805 101.324 123.665 101.209C123.525 101.095 123.406 100.955 123.308 100.789C123.21 100.624 123.126 100.432 123.056 100.215L123.438 100.058C123.538 100.016 123.632 100.005 123.718 100.026C123.807 100.045 123.871 100.092 123.91 100.166C123.952 100.248 123.998 100.329 124.047 100.408C124.098 100.487 124.159 100.558 124.229 100.621C124.299 100.682 124.381 100.732 124.474 100.772C124.57 100.809 124.683 100.828 124.813 100.828C124.96 100.828 125.089 100.805 125.198 100.758C125.308 100.709 125.399 100.646 125.471 100.569C125.546 100.492 125.601 100.407 125.636 100.313C125.673 100.218 125.692 100.122 125.692 100.026C125.692 99.9052 125.679 99.7955 125.653 99.6975C125.628 99.5972 125.574 99.512 125.492 99.442C125.411 99.372 125.293 99.3172 125.139 99.2775C124.987 99.2378 124.783 99.218 124.526 99.218V98.602C124.739 98.5997 124.915 98.5798 125.055 98.5425C125.195 98.5052 125.306 98.4538 125.387 98.3885C125.471 98.3208 125.53 98.2403 125.562 98.147C125.595 98.0537 125.611 97.951 125.611 97.839C125.611 97.601 125.545 97.4202 125.412 97.2965C125.279 97.1728 125.102 97.111 124.88 97.111C124.777 97.111 124.683 97.1262 124.596 97.1565C124.51 97.1845 124.432 97.2253 124.362 97.279C124.294 97.3303 124.237 97.391 124.19 97.461C124.144 97.531 124.109 97.608 124.085 97.692C124.046 97.7993 123.993 97.8705 123.928 97.9055C123.865 97.9405 123.775 97.9487 123.658 97.93L123.203 97.8495Z" fill="#FF9000"/>
<path d="M110.761 99L107.949 101.143L107.949 96.8571L110.761 99Z" fill="#FF9000"/>
<path d="M118.261 99L121.074 96.8572L121.074 101.143L118.261 99Z" fill="#FF9000"/>
<path fill-rule="evenodd" clip-rule="evenodd" d="M1 56V59H121V67H128V69L132 66.5L128 64V66H123V56H1Z" fill="#FF9000"/>
<rect x="13.5" y="78.5" width="10" height="10" stroke="#FF9000"/>
<rect x="45.5" y="78.5" width="10" height="10" stroke="#FF9000"/>
<rect x="77.5" y="78.5" width="10" height="10" stroke="#FF9000"/>
<path opacity="0.5" d="M119 78.5H109V88.5H119V78.5Z" stroke="#FF9000"/>
<path d="M20.0922 85.3525V86H17.2922V85.3525H18.3177V82.402C18.3177 82.2853 18.3212 82.1652 18.3282 82.0415L17.6002 82.6505C17.5582 82.6832 17.5162 82.7042 17.4742 82.7135C17.4346 82.7205 17.3961 82.7205 17.3587 82.7135C17.3237 82.7065 17.2922 82.6948 17.2642 82.6785C17.2362 82.6598 17.2152 82.64 17.2012 82.619L16.9282 82.2445L18.4717 80.932H19.1822V85.3525H20.0922Z" fill="white"/>
<path d="M51.9032 85.195C51.9966 85.195 52.0701 85.2218 52.1237 85.2755C52.1797 85.3268 52.2077 85.3957 52.2077 85.482V86H48.7357V85.713C48.7357 85.6547 48.7474 85.594 48.7707 85.531C48.7964 85.4657 48.8361 85.4073 48.8897 85.356L50.4262 83.816C50.5546 83.6853 50.6689 83.5605 50.7692 83.4415C50.8719 83.3225 50.9571 83.2047 51.0247 83.088C51.0924 82.9713 51.1437 82.8535 51.1787 82.7345C51.2161 82.6132 51.2347 82.486 51.2347 82.353C51.2347 82.2317 51.2172 82.1255 51.1822 82.0345C51.1472 81.9412 51.0971 81.863 51.0317 81.8C50.9687 81.737 50.8917 81.6903 50.8007 81.66C50.7121 81.6273 50.6117 81.611 50.4997 81.611C50.3971 81.611 50.3014 81.6262 50.2127 81.6565C50.1264 81.6845 50.0494 81.7253 49.9817 81.779C49.9141 81.8303 49.8569 81.891 49.8102 81.961C49.7636 82.031 49.7286 82.108 49.7052 82.192C49.6656 82.2993 49.6142 82.3705 49.5512 82.4055C49.4882 82.4405 49.3972 82.4487 49.2782 82.43L48.8232 82.3495C48.8582 82.1068 48.9259 81.8945 49.0262 81.7125C49.1266 81.5282 49.2514 81.3753 49.4007 81.254C49.5524 81.1303 49.7251 81.0382 49.9187 80.9775C50.1147 80.9145 50.3247 80.883 50.5487 80.883C50.7821 80.883 50.9956 80.918 51.1892 80.988C51.3829 81.0557 51.5486 81.1525 51.6862 81.2785C51.8239 81.4045 51.9312 81.5562 52.0082 81.7335C52.0852 81.9108 52.1237 82.108 52.1237 82.325C52.1237 82.5117 52.0957 82.6843 52.0397 82.843C51.9861 83.0017 51.9126 83.1533 51.8192 83.298C51.7282 83.4427 51.6209 83.5827 51.4972 83.718C51.3736 83.8533 51.2441 83.991 51.1087 84.131L49.9677 85.2965C50.0774 85.2638 50.1859 85.2393 50.2932 85.223C50.4029 85.2043 50.5067 85.195 50.6047 85.195H51.9032Z" fill="white"/>
<path d="M80.8477 82.3495C80.8827 82.1068 80.9504 81.8945 81.0507 81.7125C81.1511 81.5282 81.2759 81.3753 81.4252 81.254C81.5769 81.1303 81.7496 81.0382 81.9432 80.9775C82.1392 80.9145 82.3492 80.883 82.5732 80.883C82.8066 80.883 83.0166 80.9168 83.2032 80.9845C83.3922 81.0498 83.5532 81.142 83.6862 81.261C83.8192 81.3777 83.9207 81.5153 83.9907 81.674C84.0631 81.8327 84.0992 82.0042 84.0992 82.1885C84.0992 82.3495 84.0806 82.4918 84.0432 82.6155C84.0082 82.7368 83.9569 82.843 83.8892 82.934C83.8216 83.025 83.7376 83.102 83.6372 83.165C83.5369 83.228 83.4237 83.2805 83.2977 83.3225C83.6011 83.4182 83.8274 83.564 83.9767 83.76C84.1261 83.956 84.2007 84.2022 84.2007 84.4985C84.2007 84.7505 84.1541 84.9733 84.0607 85.167C83.9674 85.3607 83.8414 85.524 83.6827 85.657C83.5241 85.7877 83.3397 85.8868 83.1297 85.9545C82.9221 86.0222 82.7016 86.056 82.4682 86.056C82.2139 86.056 81.9922 86.0268 81.8032 85.9685C81.6142 85.9102 81.4497 85.8238 81.3097 85.7095C81.1697 85.5952 81.0507 85.4552 80.9527 85.2895C80.8547 85.1238 80.7707 84.9325 80.7007 84.7155L81.0822 84.558C81.1826 84.516 81.2759 84.5055 81.3622 84.5265C81.4509 84.5452 81.5151 84.5918 81.5547 84.6665C81.5967 84.7482 81.6422 84.8287 81.6912 84.908C81.7426 84.9873 81.8032 85.0585 81.8732 85.1215C81.9432 85.1822 82.0249 85.2323 82.1182 85.272C82.2139 85.3093 82.3271 85.328 82.4577 85.328C82.6047 85.328 82.7331 85.3047 82.8427 85.258C82.9524 85.209 83.0434 85.146 83.1157 85.069C83.1904 84.992 83.2452 84.9068 83.2802 84.8135C83.3176 84.7178 83.3362 84.6222 83.3362 84.5265C83.3362 84.4052 83.3234 84.2955 83.2977 84.1975C83.2721 84.0972 83.2184 84.012 83.1367 83.942C83.0551 83.872 82.9372 83.8172 82.7832 83.7775C82.6316 83.7378 82.4274 83.718 82.1707 83.718V83.102C82.3831 83.0997 82.5592 83.0798 82.6992 83.0425C82.8392 83.0052 82.9501 82.9538 83.0317 82.8885C83.1157 82.8208 83.1741 82.7403 83.2067 82.647C83.2394 82.5537 83.2557 82.451 83.2557 82.339C83.2557 82.101 83.1892 81.9202 83.0562 81.7965C82.9232 81.6728 82.7459 81.611 82.5242 81.611C82.4216 81.611 82.3271 81.6262 82.2407 81.6565C82.1544 81.6845 82.0762 81.7253 82.0062 81.779C81.9386 81.8303 81.8814 81.891 81.8347 81.961C81.7881 82.031 81.7531 82.108 81.7297 82.192C81.6901 82.2993 81.6376 82.3705 81.5722 82.4055C81.5092 82.4405 81.4194 82.4487 81.3027 82.43L80.8477 82.3495Z" fill="white"/>
<path d="M116.133 80.939V86H115.65C115.576 86 115.513 85.9883 115.461 85.965C115.412 85.9393 115.364 85.8973 115.318 85.839L112.675 82.465C112.689 82.619 112.696 82.7613 112.696 82.892V86H111.867V80.939H112.36C112.4 80.939 112.434 80.9413 112.462 80.946C112.492 80.9483 112.518 80.9553 112.539 80.967C112.562 80.9763 112.584 80.9915 112.605 81.0125C112.626 81.0312 112.65 81.0568 112.675 81.0895L115.328 84.4775C115.321 84.3958 115.315 84.3153 115.311 84.236C115.306 84.1567 115.304 84.0832 115.304 84.0155V80.939H116.133Z" fill="white"/>
<g opacity="0.5">
<path fill-rule="evenodd" clip-rule="evenodd" d="M31.4532 69.5466L32.4689 68.5308L34.502 70.5639L36.5306 68.5323L37.5434 69.5437L35.5141 71.576L37.5478 73.6097L36.532 74.6254L34.499 72.5925L32.469 74.6255L31.4562 73.6142L33.487 71.5804L31.4532 69.5466Z" fill="#EEEEEE"/>
<path d="M34.5 76.5C37.2614 76.5 39.5 74.2614 39.5 71.5C39.5 68.7386 37.2614 66.5 34.5 66.5C31.7386 66.5 29.5 68.7386 29.5 71.5C29.5 74.2614 31.7386 76.5 34.5 76.5Z" stroke="#FF9000"/>
</g>
<g opacity="0.5">
<path fill-rule="evenodd" clip-rule="evenodd" d="M63.4532 69.5466L64.4689 68.5308L66.502 70.5639L68.5306 68.5323L69.5434 69.5437L67.5141 71.576L69.5478 73.6097L68.532 74.6254L66.499 72.5925L64.469 74.6255L63.4562 73.6142L65.487 71.5804L63.4532 69.5466Z" fill="#EEEEEE"/>
<path d="M66.5 76.5C69.2614 76.5 71.5 74.2614 71.5 71.5C71.5 68.7386 69.2614 66.5 66.5 66.5C63.7386 66.5 61.5 68.7386 61.5 71.5C61.5 74.2614 63.7386 76.5 66.5 76.5Z" stroke="#FF9000"/>
</g>
<path fill-rule="evenodd" clip-rule="evenodd" d="M82 64L80 64L82.5 60L85 64L83 64L82 64Z" fill="#FF9000"/>
<path d="M82 78L82 63.5L83 63.5L83 78L82 78Z" fill="#FF9000"/>
<g opacity="0.5">
<path fill-rule="evenodd" clip-rule="evenodd" d="M113.5 64L111.5 64L114 60L116.5 64L114.5 64L113.5 64Z" fill="#FF9000"/>
<path d="M113.5 78L113.5 63.5L114.5 63.5L114.5 78L113.5 78Z" fill="#FF9000"/>
</g>
<path fill-rule="evenodd" clip-rule="evenodd" d="M50 64L48 64L50.5 60L53 64L51 64L50 64Z" fill="#FF9000"/>
<path d="M50 78L50 63.5L51 63.5L51 78L50 78Z" fill="#FF9000"/>
<path fill-rule="evenodd" clip-rule="evenodd" d="M18 64L16 64L18.5 60L21 64L19 64L18 64Z" fill="#FF9000"/>
<path d="M18 78L18 63.5L19 63.5L19 78L18 78Z" fill="#FF9000"/>
<g opacity="0.5">
<path fill-rule="evenodd" clip-rule="evenodd" d="M34 64L32 64L34.5 60L37 64L35 64L34 64Z" fill="#FF9000"/>
<path d="M34 66L34 63.5L35 63.5L35 66L34 66Z" fill="#FF9000"/>
</g>
<g opacity="0.5">
<path fill-rule="evenodd" clip-rule="evenodd" d="M66 64L64 64L66.5 60L69 64L67 64L66 64Z" fill="#FF9000"/>
<path d="M66 66L66 63.5L67 63.5L67 66L66 66Z" fill="#FF9000"/>
</g>
<g opacity="0.5">
<path fill-rule="evenodd" clip-rule="evenodd" d="M45 72L45 74L41 71.5L45 69L45 71L45 72Z" fill="#FF9000"/>
<path d="M50 72L44.5 72L44.5 71L50 71L50 72Z" fill="#FF9000"/>
</g>
<g opacity="0.5">
<path fill-rule="evenodd" clip-rule="evenodd" d="M77 72L77 74L73 71.5L77 69L77 71L77 72Z" fill="#FF9000"/>
<path d="M82 72L76.5 72L76.5 71L82 71L82 72Z" fill="#FF9000"/>
</g>
<path fill-rule="evenodd" clip-rule="evenodd" d="M29 84L29 86L25 83.5L29 81L29 83L29 84Z" fill="#FF9000"/>
<path d="M45 84L28.5 84L28.5 83L45 83L45 84Z" fill="#FF9000"/>
<g opacity="0.5">
<path fill-rule="evenodd" clip-rule="evenodd" d="M24 71L24 69L28 71.5L24 74L24 72L24 71Z" fill="#FF9000"/>
<path d="M19 71L24.5 71L24.5 72L19 72L19 71Z" fill="#FF9000"/>
</g>
<g opacity="0.5">
<path fill-rule="evenodd" clip-rule="evenodd" d="M56 71L56 69L60 71.5L56 74L56 72L56 71Z" fill="#FF9000"/>
<path d="M51 71L56.5 71L56.5 72L51 72L51 71Z" fill="#FF9000"/>
</g>
<rect x="3.5" y="44" width="30" height="6" fill="#FF9300"/>
<rect x="3.5" y="44" width="30" height="6" stroke="#FF9300"/>
<path d="M11.8745 44.439V49.5H11.3915C11.3168 49.5 11.2538 49.4883 11.2025 49.465C11.1535 49.4393 11.1056 49.3973 11.059 49.339L8.41647 45.965C8.43047 46.119 8.43747 46.2613 8.43747 46.392V49.5H7.60797V44.439H8.10147C8.14114 44.439 8.17497 44.4413 8.20297 44.446C8.23331 44.4483 8.25897 44.4553 8.27997 44.467C8.30331 44.4763 8.32547 44.4915 8.34647 44.5125C8.36747 44.5312 8.39081 44.5568 8.41647 44.5895L11.0695 47.9775C11.0625 47.8958 11.0566 47.8153 11.052 47.736C11.0473 47.6567 11.045 47.5832 11.045 47.5155V44.439H11.8745ZM17.723 46.9695C17.723 47.3405 17.6612 47.6847 17.5375 48.002C17.4162 48.317 17.2435 48.59 17.0195 48.821C16.7955 49.052 16.526 49.2328 16.211 49.3635C15.896 49.4918 15.546 49.556 15.161 49.556C14.7784 49.556 14.4295 49.4918 14.1145 49.3635C13.7995 49.2328 13.5289 49.052 13.3025 48.821C13.0785 48.59 12.9047 48.317 12.781 48.002C12.6574 47.6847 12.5955 47.3405 12.5955 46.9695C12.5955 46.5985 12.6574 46.2555 12.781 45.9405C12.9047 45.6232 13.0785 45.349 13.3025 45.118C13.5289 44.887 13.7995 44.7073 14.1145 44.579C14.4295 44.4483 14.7784 44.383 15.161 44.383C15.4177 44.383 15.6592 44.4133 15.8855 44.474C16.1119 44.5323 16.3195 44.6163 16.5085 44.726C16.6975 44.8333 16.8667 44.9652 17.016 45.1215C17.1677 45.2755 17.296 45.4482 17.401 45.6395C17.506 45.8308 17.5854 46.0385 17.639 46.2625C17.695 46.4865 17.723 46.7222 17.723 46.9695ZM16.7605 46.9695C16.7605 46.6918 16.7232 46.4433 16.6485 46.224C16.5739 46.0023 16.4677 45.8145 16.33 45.6605C16.1924 45.5065 16.0244 45.3887 15.826 45.307C15.63 45.2253 15.4084 45.1845 15.161 45.1845C14.9137 45.1845 14.6909 45.2253 14.4925 45.307C14.2965 45.3887 14.1285 45.5065 13.9885 45.6605C13.8509 45.8145 13.7447 46.0023 13.67 46.224C13.5954 46.4433 13.558 46.6918 13.558 46.9695C13.558 47.2472 13.5954 47.4968 13.67 47.7185C13.7447 47.9378 13.8509 48.1245 13.9885 48.2785C14.1285 48.4302 14.2965 48.5468 14.4925 48.6285C14.6909 48.7102 14.9137 48.751 15.161 48.751C15.4084 48.751 15.63 48.7102 15.826 48.6285C16.0244 48.5468 16.1924 48.4302 16.33 48.2785C16.4677 48.1245 16.5739 47.9378 16.6485 47.7185C16.7232 47.4968 16.7605 47.2472 16.7605 46.9695ZM20.987 45.188V46.686H22.884V47.4385H20.987V49.5H20.042V44.439H23.234V45.188H20.987ZM29.3898 44.439V49.5H28.5603V46.231C28.5603 46.1003 28.5673 45.9592 28.5813 45.8075L27.0518 48.681C26.9795 48.8187 26.8687 48.8875 26.7193 48.8875H26.5863C26.437 48.8875 26.3262 48.8187 26.2538 48.681L24.7068 45.797C24.7138 45.874 24.7197 45.9498 24.7243 46.0245C24.729 46.0992 24.7313 46.168 24.7313 46.231V49.5H23.9018V44.439H24.6123C24.6543 44.439 24.6905 44.4402 24.7208 44.4425C24.7512 44.4448 24.778 44.4507 24.8013 44.46C24.827 44.4693 24.8492 44.4845 24.8678 44.5055C24.8888 44.5265 24.9087 44.5545 24.9273 44.5895L26.4428 47.4C26.4825 47.4747 26.5187 47.5517 26.5513 47.631C26.5863 47.7103 26.6202 47.792 26.6528 47.876C26.6855 47.7897 26.7193 47.7068 26.7543 47.6275C26.7893 47.5458 26.8267 47.4677 26.8663 47.393L28.3608 44.5895C28.3795 44.5545 28.3993 44.5265 28.4203 44.5055C28.4413 44.4845 28.4635 44.4693 28.4868 44.46C28.5125 44.4507 28.5405 44.4448 28.5708 44.4425C28.6012 44.4402 28.6373 44.439 28.6793 44.439H29.3898Z" fill="black"/>
<rect x="35.5115" y="44" width="30" height="6" fill="#2F1C04"/>
<rect x="35.5115" y="44" width="30" height="6" stroke="#2F1C04"/>
<path d="M47.5412 48.695C47.6345 48.695 47.708 48.7218 47.7617 48.7755C47.8177 48.8268 47.8457 48.8957 47.8457 48.982V49.5H44.3737V49.213C44.3737 49.1547 44.3854 49.094 44.4087 49.031C44.4344 48.9657 44.474 48.9073 44.5277 48.856L46.0642 47.316C46.1925 47.1853 46.3069 47.0605 46.4072 46.9415C46.5099 46.8225 46.595 46.7047 46.6627 46.588C46.7304 46.4713 46.7817 46.3535 46.8167 46.2345C46.854 46.1132 46.8727 45.986 46.8727 45.853C46.8727 45.7317 46.8552 45.6255 46.8202 45.5345C46.7852 45.4412 46.735 45.363 46.6697 45.3C46.6067 45.237 46.5297 45.1903 46.4387 45.16C46.35 45.1273 46.2497 45.111 46.1377 45.111C46.035 45.111 45.9394 45.1262 45.8507 45.1565C45.7644 45.1845 45.6874 45.2253 45.6197 45.279C45.552 45.3303 45.4949 45.391 45.4482 45.461C45.4015 45.531 45.3665 45.608 45.3432 45.692C45.3035 45.7993 45.2522 45.8705 45.1892 45.9055C45.1262 45.9405 45.0352 45.9487 44.9162 45.93L44.4612 45.8495C44.4962 45.6068 44.5639 45.3945 44.6642 45.2125C44.7645 45.0282 44.8894 44.8753 45.0387 44.754C45.1904 44.6303 45.363 44.5382 45.5567 44.4775C45.7527 44.4145 45.9627 44.383 46.1867 44.383C46.42 44.383 46.6335 44.418 46.8272 44.488C47.0209 44.5557 47.1865 44.6525 47.3242 44.7785C47.4619 44.9045 47.5692 45.0562 47.6462 45.2335C47.7232 45.4108 47.7617 45.608 47.7617 45.825C47.7617 46.0117 47.7337 46.1843 47.6777 46.343C47.624 46.5017 47.5505 46.6533 47.4572 46.798C47.3662 46.9427 47.2589 47.0827 47.1352 47.218C47.0115 47.3533 46.882 47.491 46.7467 47.631L45.6057 48.7965C45.7154 48.7638 45.8239 48.7393 45.9312 48.723C46.0409 48.7043 46.1447 48.695 46.2427 48.695H47.5412ZM56.4772 48.8525V49.5H53.6772V48.8525H54.7027V45.902C54.7027 45.7853 54.7062 45.6652 54.7132 45.5415L53.9852 46.1505C53.9432 46.1832 53.9012 46.2042 53.8592 46.2135C53.8195 46.2205 53.781 46.2205 53.7437 46.2135C53.7087 46.2065 53.6772 46.1948 53.6492 46.1785C53.6212 46.1598 53.6002 46.14 53.5862 46.119L53.3132 45.7445L54.8567 44.432H55.5672V48.8525H56.4772Z" fill="#FF9000"/>
<path d="M52.3865 47L49.574 49.1428L49.574 44.8571L52.3865 47Z" fill="#FF9000"/>
<rect x="67.5115" y="44" width="30" height="6" fill="#2F1C04"/>
<rect x="67.5115" y="44" width="30" height="6" stroke="#2F1C04"/>
<path d="M70.5151 45.8495C70.5501 45.6068 70.6177 45.3945 70.7181 45.2125C70.8184 45.0282 70.9432 44.8753 71.0926 44.754C71.2442 44.6303 71.4169 44.5382 71.6106 44.4775C71.8066 44.4145 72.0166 44.383 72.2406 44.383C72.4739 44.383 72.6839 44.4168 72.8706 44.4845C73.0596 44.5498 73.2206 44.642 73.3536 44.761C73.4866 44.8777 73.5881 45.0153 73.6581 45.174C73.7304 45.3327 73.7666 45.5042 73.7666 45.6885C73.7666 45.8495 73.7479 45.9918 73.7106 46.1155C73.6756 46.2368 73.6242 46.343 73.5566 46.434C73.4889 46.525 73.4049 46.602 73.3046 46.665C73.2042 46.728 73.0911 46.7805 72.9651 46.8225C73.2684 46.9182 73.4947 47.064 73.6441 47.26C73.7934 47.456 73.8681 47.7022 73.8681 47.9985C73.8681 48.2505 73.8214 48.4733 73.7281 48.667C73.6347 48.8607 73.5087 49.024 73.3501 49.157C73.1914 49.2877 73.0071 49.3868 72.7971 49.4545C72.5894 49.5222 72.3689 49.556 72.1356 49.556C71.8812 49.556 71.6596 49.5268 71.4706 49.4685C71.2816 49.4102 71.1171 49.3238 70.9771 49.2095C70.8371 49.0952 70.7181 48.9552 70.6201 48.7895C70.5221 48.6238 70.4381 48.4325 70.3681 48.2155L70.7496 48.058C70.8499 48.016 70.9432 48.0055 71.0296 48.0265C71.1182 48.0452 71.1824 48.0918 71.2221 48.1665C71.2641 48.2482 71.3096 48.3287 71.3586 48.408C71.4099 48.4873 71.4706 48.5585 71.5406 48.6215C71.6106 48.6822 71.6922 48.7323 71.7856 48.772C71.8812 48.8093 71.9944 48.828 72.1251 48.828C72.2721 48.828 72.4004 48.8047 72.5101 48.758C72.6197 48.709 72.7107 48.646 72.7831 48.569C72.8577 48.492 72.9126 48.4068 72.9476 48.3135C72.9849 48.2178 73.0036 48.1222 73.0036 48.0265C73.0036 47.9052 72.9907 47.7955 72.9651 47.6975C72.9394 47.5972 72.8857 47.512 72.8041 47.442C72.7224 47.372 72.6046 47.3172 72.4506 47.2775C72.2989 47.2378 72.0947 47.218 71.8381 47.218V46.602C72.0504 46.5997 72.2266 46.5798 72.3666 46.5425C72.5066 46.5052 72.6174 46.4538 72.6991 46.3885C72.7831 46.3208 72.8414 46.2403 72.8741 46.147C72.9067 46.0537 72.9231 45.951 72.9231 45.839C72.9231 45.601 72.8566 45.4202 72.7236 45.2965C72.5906 45.1728 72.4132 45.111 72.1916 45.111C72.0889 45.111 71.9944 45.1262 71.9081 45.1565C71.8217 45.1845 71.7436 45.2253 71.6736 45.279C71.6059 45.3303 71.5487 45.391 71.5021 45.461C71.4554 45.531 71.4204 45.608 71.3971 45.692C71.3574 45.7993 71.3049 45.8705 71.2396 45.9055C71.1766 45.9405 71.0867 45.9487 70.9701 45.93L70.5151 45.8495ZM83.9147 48.695C84.008 48.695 84.0815 48.7218 84.1352 48.7755C84.1912 48.8268 84.2192 48.8957 84.2192 48.982V49.5H80.7472V49.213C80.7472 49.1547 80.7589 49.094 80.7822 49.031C80.8079 48.9657 80.8475 48.9073 80.9012 48.856L82.4377 47.316C82.566 47.1853 82.6804 47.0605 82.7807 46.9415C82.8834 46.8225 82.9685 46.7047 83.0362 46.588C83.1039 46.4713 83.1552 46.3535 83.1902 46.2345C83.2275 46.1132 83.2462 45.986 83.2462 45.853C83.2462 45.7317 83.2287 45.6255 83.1937 45.5345C83.1587 45.4412 83.1085 45.363 83.0432 45.3C82.9802 45.237 82.9032 45.1903 82.8122 45.16C82.7235 45.1273 82.6232 45.111 82.5112 45.111C82.4085 45.111 82.3129 45.1262 82.2242 45.1565C82.1379 45.1845 82.0609 45.2253 81.9932 45.279C81.9255 45.3303 81.8684 45.391 81.8217 45.461C81.775 45.531 81.74 45.608 81.7167 45.692C81.677 45.7993 81.6257 45.8705 81.5627 45.9055C81.4997 45.9405 81.4087 45.9487 81.2897 45.93L80.8347 45.8495C80.8697 45.6068 80.9374 45.3945 81.0377 45.2125C81.138 45.0282 81.2629 44.8753 81.4122 44.754C81.5639 44.6303 81.7365 44.5382 81.9302 44.4775C82.1262 44.4145 82.3362 44.383 82.5602 44.383C82.7935 44.383 83.007 44.418 83.2007 44.488C83.3944 44.5557 83.56 44.6525 83.6977 44.7785C83.8354 44.9045 83.9427 45.0562 84.0197 45.2335C84.0967 45.4108 84.1352 45.608 84.1352 45.825C84.1352 46.0117 84.1072 46.1843 84.0512 46.343C83.9975 46.5017 83.924 46.6533 83.8307 46.798C83.7397 46.9427 83.6324 47.0827 83.5087 47.218C83.385 47.3533 83.2555 47.491 83.1202 47.631L81.9792 48.7965C82.0889 48.7638 82.1974 48.7393 82.3047 48.723C82.4144 48.7043 82.5182 48.695 82.6162 48.695H83.9147ZM94.4478 48.8525V49.5H91.6478V48.8525H92.6733V45.902C92.6733 45.7853 92.6768 45.6652 92.6838 45.5415L91.9558 46.1505C91.9138 46.1832 91.8718 46.2042 91.8298 46.2135C91.7902 46.2205 91.7517 46.2205 91.7143 46.2135C91.6793 46.2065 91.6478 46.1948 91.6198 46.1785C91.5918 46.1598 91.5708 46.14 91.5568 46.119L91.2838 45.7445L92.8273 44.432H93.5378V48.8525H94.4478Z" fill="#FF9000"/>
<path d="M78.7615 47L75.949 49.1428L75.949 44.8571L78.7615 47Z" fill="#FF9000"/>
<path d="M89.074 47L86.2615 49.1428L86.2615 44.8571L89.074 47Z" fill="#FF9000"/>
<rect x="99.5115" y="44" width="30" height="6" fill="#2F1C04"/>
<rect x="99.5115" y="44" width="30" height="6" stroke="#2F1C04"/>
<path d="M105.571 48.695C105.664 48.695 105.737 48.7218 105.791 48.7755C105.847 48.8268 105.875 48.8957 105.875 48.982V49.5H102.403V49.213C102.403 49.1547 102.415 49.094 102.438 49.031C102.464 48.9657 102.503 48.9073 102.557 48.856L104.094 47.316C104.222 47.1853 104.336 47.0605 104.437 46.9415C104.539 46.8225 104.624 46.7047 104.692 46.588C104.76 46.4713 104.811 46.3535 104.846 46.2345C104.883 46.1132 104.902 45.986 104.902 45.853C104.902 45.7317 104.885 45.6255 104.85 45.5345C104.815 45.4412 104.764 45.363 104.699 45.3C104.636 45.237 104.559 45.1903 104.468 45.16C104.379 45.1273 104.279 45.111 104.167 45.111C104.064 45.111 103.969 45.1262 103.88 45.1565C103.794 45.1845 103.717 45.2253 103.649 45.279C103.581 45.3303 103.524 45.391 103.478 45.461C103.431 45.531 103.396 45.608 103.373 45.692C103.333 45.7993 103.282 45.8705 103.219 45.9055C103.156 45.9405 103.065 45.9487 102.946 45.93L102.491 45.8495C102.526 45.6068 102.593 45.3945 102.694 45.2125C102.794 45.0282 102.919 44.8753 103.068 44.754C103.22 44.6303 103.392 44.5382 103.586 44.4775C103.782 44.4145 103.992 44.383 104.216 44.383C104.449 44.383 104.663 44.418 104.857 44.488C105.05 44.5557 105.216 44.6525 105.354 44.7785C105.491 44.9045 105.599 45.0562 105.676 45.2335C105.753 45.4108 105.791 45.608 105.791 45.825C105.791 46.0117 105.763 46.1843 105.707 46.343C105.653 46.5017 105.58 46.6533 105.487 46.798C105.396 46.9427 105.288 47.0827 105.165 47.218C105.041 47.3533 104.911 47.491 104.776 47.631L103.635 48.7965C103.745 48.7638 103.853 48.7393 103.961 48.723C104.07 48.7043 104.174 48.695 104.272 48.695H105.571ZM116.104 48.8525V49.5H113.304V48.8525H114.329V45.902C114.329 45.7853 114.333 45.6652 114.34 45.5415L113.612 46.1505C113.57 46.1832 113.528 46.2042 113.486 46.2135C113.446 46.2205 113.408 46.2205 113.37 46.2135C113.335 46.2065 113.304 46.1948 113.276 46.1785C113.248 46.1598 113.227 46.14 113.213 46.119L112.94 45.7445L114.483 44.432H115.194V48.8525H116.104ZM123.203 45.8495C123.238 45.6068 123.306 45.3945 123.406 45.2125C123.507 45.0282 123.632 44.8753 123.781 44.754C123.933 44.6303 124.105 44.5382 124.299 44.4775C124.495 44.4145 124.705 44.383 124.929 44.383C125.162 44.383 125.372 44.4168 125.559 44.4845C125.748 44.5498 125.909 44.642 126.042 44.761C126.175 44.8777 126.276 45.0153 126.346 45.174C126.419 45.3327 126.455 45.5042 126.455 45.6885C126.455 45.8495 126.436 45.9918 126.399 46.1155C126.364 46.2368 126.313 46.343 126.245 46.434C126.177 46.525 126.093 46.602 125.993 46.665C125.893 46.728 125.779 46.7805 125.653 46.8225C125.957 46.9182 126.183 47.064 126.332 47.26C126.482 47.456 126.556 47.7022 126.556 47.9985C126.556 48.2505 126.51 48.4733 126.416 48.667C126.323 48.8607 126.197 49.024 126.038 49.157C125.88 49.2877 125.695 49.3868 125.485 49.4545C125.278 49.5222 125.057 49.556 124.824 49.556C124.57 49.556 124.348 49.5268 124.159 49.4685C123.97 49.4102 123.805 49.3238 123.665 49.2095C123.525 49.0952 123.406 48.9552 123.308 48.7895C123.21 48.6238 123.126 48.4325 123.056 48.2155L123.438 48.058C123.538 48.016 123.632 48.0055 123.718 48.0265C123.807 48.0452 123.871 48.0918 123.91 48.1665C123.952 48.2482 123.998 48.3287 124.047 48.408C124.098 48.4873 124.159 48.5585 124.229 48.6215C124.299 48.6822 124.381 48.7323 124.474 48.772C124.57 48.8093 124.683 48.828 124.813 48.828C124.96 48.828 125.089 48.8047 125.198 48.758C125.308 48.709 125.399 48.646 125.471 48.569C125.546 48.492 125.601 48.4068 125.636 48.3135C125.673 48.2178 125.692 48.1222 125.692 48.0265C125.692 47.9052 125.679 47.7955 125.653 47.6975C125.628 47.5972 125.574 47.512 125.492 47.442C125.411 47.372 125.293 47.3172 125.139 47.2775C124.987 47.2378 124.783 47.218 124.526 47.218V46.602C124.739 46.5997 124.915 46.5798 125.055 46.5425C125.195 46.5052 125.306 46.4538 125.387 46.3885C125.471 46.3208 125.53 46.2403 125.562 46.147C125.595 46.0537 125.611 45.951 125.611 45.839C125.611 45.601 125.545 45.4202 125.412 45.2965C125.279 45.1728 125.102 45.111 124.88 45.111C124.777 45.111 124.683 45.1262 124.596 45.1565C124.51 45.1845 124.432 45.2253 124.362 45.279C124.294 45.3303 124.237 45.391 124.19 45.461C124.144 45.531 124.109 45.608 124.085 45.692C124.046 45.7993 123.993 45.8705 123.928 45.9055C123.865 45.9405 123.775 45.9487 123.658 45.93L123.203 45.8495Z" fill="#FF9000"/>
<path d="M110.761 47L107.949 49.1428L107.949 44.8571L110.761 47Z" fill="#FF9000"/>
<path d="M118.261 47L121.074 44.8572L121.074 49.1429L118.261 47Z" fill="#FF9000"/>
<path fill-rule="evenodd" clip-rule="evenodd" d="M1 4V7H121V15H128V17L132 14.5L128 12V14H123V4H1Z" fill="#FF9000"/>
<rect x="13.5" y="26.5" width="10" height="10" stroke="#FF9000"/>
<rect x="45.5" y="26.5" width="10" height="10" stroke="#FF9000"/>
<rect x="77.5" y="26.5" width="10" height="10" stroke="#FF9000"/>
<path opacity="0.5" d="M119 26.5H109V36.5H119V26.5Z" stroke="#FF9000"/>
<path d="M20.0922 33.3525V34H17.2922V33.3525H18.3177V30.402C18.3177 30.2853 18.3212 30.1652 18.3282 30.0415L17.6002 30.6505C17.5582 30.6832 17.5162 30.7042 17.4742 30.7135C17.4346 30.7205 17.3961 30.7205 17.3587 30.7135C17.3237 30.7065 17.2922 30.6948 17.2642 30.6785C17.2362 30.6598 17.2152 30.64 17.2012 30.619L16.9282 30.2445L18.4717 28.932H19.1822V33.3525H20.0922Z" fill="white"/>
<path d="M51.9032 33.195C51.9966 33.195 52.0701 33.2218 52.1237 33.2755C52.1797 33.3268 52.2077 33.3957 52.2077 33.482V34H48.7357V33.713C48.7357 33.6547 48.7474 33.594 48.7707 33.531C48.7964 33.4657 48.8361 33.4073 48.8897 33.356L50.4262 31.816C50.5546 31.6853 50.6689 31.5605 50.7692 31.4415C50.8719 31.3225 50.9571 31.2047 51.0247 31.088C51.0924 30.9713 51.1437 30.8535 51.1787 30.7345C51.2161 30.6132 51.2347 30.486 51.2347 30.353C51.2347 30.2317 51.2172 30.1255 51.1822 30.0345C51.1472 29.9412 51.0971 29.863 51.0317 29.8C50.9687 29.737 50.8917 29.6903 50.8007 29.66C50.7121 29.6273 50.6117 29.611 50.4997 29.611C50.3971 29.611 50.3014 29.6262 50.2127 29.6565C50.1264 29.6845 50.0494 29.7253 49.9817 29.779C49.9141 29.8303 49.8569 29.891 49.8102 29.961C49.7636 30.031 49.7286 30.108 49.7052 30.192C49.6656 30.2993 49.6142 30.3705 49.5512 30.4055C49.4882 30.4405 49.3972 30.4487 49.2782 30.43L48.8232 30.3495C48.8582 30.1068 48.9259 29.8945 49.0262 29.7125C49.1266 29.5282 49.2514 29.3753 49.4007 29.254C49.5524 29.1303 49.7251 29.0382 49.9187 28.9775C50.1147 28.9145 50.3247 28.883 50.5487 28.883C50.7821 28.883 50.9956 28.918 51.1892 28.988C51.3829 29.0557 51.5486 29.1525 51.6862 29.2785C51.8239 29.4045 51.9312 29.5562 52.0082 29.7335C52.0852 29.9108 52.1237 30.108 52.1237 30.325C52.1237 30.5117 52.0957 30.6843 52.0397 30.843C51.9861 31.0017 51.9126 31.1533 51.8192 31.298C51.7282 31.4427 51.6209 31.5827 51.4972 31.718C51.3736 31.8533 51.2441 31.991 51.1087 32.131L49.9677 33.2965C50.0774 33.2638 50.1859 33.2393 50.2932 33.223C50.4029 33.2043 50.5067 33.195 50.6047 33.195H51.9032Z" fill="white"/>
<path d="M80.8477 30.3495C80.8827 30.1068 80.9504 29.8945 81.0507 29.7125C81.1511 29.5282 81.2759 29.3753 81.4252 29.254C81.5769 29.1303 81.7496 29.0382 81.9432 28.9775C82.1392 28.9145 82.3492 28.883 82.5732 28.883C82.8066 28.883 83.0166 28.9168 83.2032 28.9845C83.3922 29.0498 83.5532 29.142 83.6862 29.261C83.8192 29.3777 83.9207 29.5153 83.9907 29.674C84.0631 29.8327 84.0992 30.0042 84.0992 30.1885C84.0992 30.3495 84.0806 30.4918 84.0432 30.6155C84.0082 30.7368 83.9569 30.843 83.8892 30.934C83.8216 31.025 83.7376 31.102 83.6372 31.165C83.5369 31.228 83.4237 31.2805 83.2977 31.3225C83.6011 31.4182 83.8274 31.564 83.9767 31.76C84.1261 31.956 84.2007 32.2022 84.2007 32.4985C84.2007 32.7505 84.1541 32.9733 84.0607 33.167C83.9674 33.3607 83.8414 33.524 83.6827 33.657C83.5241 33.7877 83.3397 33.8868 83.1297 33.9545C82.9221 34.0222 82.7016 34.056 82.4682 34.056C82.2139 34.056 81.9922 34.0268 81.8032 33.9685C81.6142 33.9102 81.4497 33.8238 81.3097 33.7095C81.1697 33.5952 81.0507 33.4552 80.9527 33.2895C80.8547 33.1238 80.7707 32.9325 80.7007 32.7155L81.0822 32.558C81.1826 32.516 81.2759 32.5055 81.3622 32.5265C81.4509 32.5452 81.5151 32.5918 81.5547 32.6665C81.5967 32.7482 81.6422 32.8287 81.6912 32.908C81.7426 32.9873 81.8032 33.0585 81.8732 33.1215C81.9432 33.1822 82.0249 33.2323 82.1182 33.272C82.2139 33.3093 82.3271 33.328 82.4577 33.328C82.6047 33.328 82.7331 33.3047 82.8427 33.258C82.9524 33.209 83.0434 33.146 83.1157 33.069C83.1904 32.992 83.2452 32.9068 83.2802 32.8135C83.3176 32.7178 83.3362 32.6222 83.3362 32.5265C83.3362 32.4052 83.3234 32.2955 83.2977 32.1975C83.2721 32.0972 83.2184 32.012 83.1367 31.942C83.0551 31.872 82.9372 31.8172 82.7832 31.7775C82.6316 31.7378 82.4274 31.718 82.1707 31.718V31.102C82.3831 31.0997 82.5592 31.0798 82.6992 31.0425C82.8392 31.0052 82.9501 30.9538 83.0317 30.8885C83.1157 30.8208 83.1741 30.7403 83.2067 30.647C83.2394 30.5537 83.2557 30.451 83.2557 30.339C83.2557 30.101 83.1892 29.9202 83.0562 29.7965C82.9232 29.6728 82.7459 29.611 82.5242 29.611C82.4216 29.611 82.3271 29.6262 82.2407 29.6565C82.1544 29.6845 82.0762 29.7253 82.0062 29.779C81.9386 29.8303 81.8814 29.891 81.8347 29.961C81.7881 30.031 81.7531 30.108 81.7297 30.192C81.6901 30.2993 81.6376 30.3705 81.5722 30.4055C81.5092 30.4405 81.4194 30.4487 81.3027 30.43L80.8477 30.3495Z" fill="white"/>
<path d="M116.133 28.939V34H115.65C115.576 34 115.513 33.9883 115.461 33.965C115.412 33.9393 115.364 33.8973 115.318 33.839L112.675 30.465C112.689 30.619 112.696 30.7613 112.696 30.892V34H111.867V28.939H112.36C112.4 28.939 112.434 28.9413 112.462 28.946C112.492 28.9483 112.518 28.9553 112.539 28.967C112.562 28.9763 112.584 28.9915 112.605 29.0125C112.626 29.0312 112.65 29.0568 112.675 29.0895L115.328 32.4775C115.321 32.3958 115.315 32.3153 115.311 32.236C115.306 32.1567 115.304 32.0832 115.304 32.0155V28.939H116.133Z" fill="white"/>
<g opacity="0.5">
<path fill-rule="evenodd" clip-rule="evenodd" d="M31.4532 17.5466L32.4689 16.5308L34.502 18.5639L36.5306 16.5323L37.5434 17.5437L35.5141 19.576L37.5478 21.6097L36.532 22.6254L34.499 20.5925L32.469 22.6255L31.4562 21.6142L33.487 19.5804L31.4532 17.5466Z" fill="#EEEEEE"/>
<path d="M34.5 24.5C37.2614 24.5 39.5 22.2614 39.5 19.5C39.5 16.7386 37.2614 14.5 34.5 14.5C31.7386 14.5 29.5 16.7386 29.5 19.5C29.5 22.2614 31.7386 24.5 34.5 24.5Z" stroke="#FF9000"/>
</g>
<g opacity="0.5">
<path fill-rule="evenodd" clip-rule="evenodd" d="M63.4532 17.5466L64.4689 16.5308L66.502 18.5639L68.5306 16.5323L69.5434 17.5437L67.5141 19.576L69.5478 21.6097L68.532 22.6254L66.499 20.5925L64.469 22.6255L63.4562 21.6142L65.487 19.5804L63.4532 17.5466Z" fill="#EEEEEE"/>
<path d="M66.5 24.5C69.2614 24.5 71.5 22.2614 71.5 19.5C71.5 16.7386 69.2614 14.5 66.5 14.5C63.7386 14.5 61.5 16.7386 61.5 19.5C61.5 22.2614 63.7386 24.5 66.5 24.5Z" stroke="#FF9000"/>
</g>
<path fill-rule="evenodd" clip-rule="evenodd" d="M82 12L80 12L82.5 8L85 12L83 12L82 12Z" fill="#FF9000"/>
<path d="M82 26L82 11.5L83 11.5L83 26L82 26Z" fill="#FF9000"/>
<g opacity="0.5">
<path fill-rule="evenodd" clip-rule="evenodd" d="M113.5 12L111.5 12L114 8L116.5 12L114.5 12L113.5 12Z" fill="#FF9000"/>
<path d="M113.5 26L113.5 11.5L114.5 11.5L114.5 26L113.5 26Z" fill="#FF9000"/>
</g>
<path fill-rule="evenodd" clip-rule="evenodd" d="M50 12L48 12L50.5 8L53 12L51 12L50 12Z" fill="#FF9000"/>
<path d="M50 26L50 11.5L51 11.5L51 26L50 26Z" fill="#FF9000"/>
<path fill-rule="evenodd" clip-rule="evenodd" d="M18 12L16 12L18.5 8L21 12L19 12L18 12Z" fill="#FF9000"/>
<path d="M18 26L18 11.5L19 11.5L19 26L18 26Z" fill="#FF9000"/>
<g opacity="0.5">
<path fill-rule="evenodd" clip-rule="evenodd" d="M34 12L32 12L34.5 8L37 12L35 12L34 12Z" fill="#FF9000"/>
<path d="M34 14L34 11.5L35 11.5L35 14L34 14Z" fill="#FF9000"/>
</g>
<g opacity="0.5">
<path fill-rule="evenodd" clip-rule="evenodd" d="M66 12L64 12L66.5 8L69 12L67 12L66 12Z" fill="#FF9000"/>
<path d="M66 14L66 11.5L67 11.5L67 14L66 14Z" fill="#FF9000"/>
</g>
<g opacity="0.5">
<path fill-rule="evenodd" clip-rule="evenodd" d="M45 20L45 22L41 19.5L45 17L45 19L45 20Z" fill="#FF9000"/>
<path d="M50 20L44.5 20L44.5 19L50 19L50 20Z" fill="#FF9000"/>
</g>
<g opacity="0.5">
<path fill-rule="evenodd" clip-rule="evenodd" d="M77 20L77 22L73 19.5L77 17L77 19L77 20Z" fill="#FF9000"/>
<path d="M82 20L76.5 20L76.5 19L82 19L82 20Z" fill="#FF9000"/>
</g>
<g opacity="0.5">
<path fill-rule="evenodd" clip-rule="evenodd" d="M24 19L24 17L28 19.5L24 22L24 20L24 19Z" fill="#FF9000"/>
<path d="M19 19L24.5 19L24.5 20L19 20L19 19Z" fill="#FF9000"/>
</g>
<g opacity="0.5">
<path fill-rule="evenodd" clip-rule="evenodd" d="M56 19L56 17L60 19.5L56 22L56 20L56 19Z" fill="#FF9000"/>
<path d="M51 19L56.5 19L56.5 20L51 20L51 19Z" fill="#FF9000"/>
</g>
</svg>
