<svg width="120" height="52" viewBox="0 0 120 52" fill="none" xmlns="http://www.w3.org/2000/svg">
<rect width="18" height="10" transform="translate(17.5 0.5)" fill="#EEEEEE"/>
<rect x="17.5" y="0.5" width="18" height="10" stroke="black"/>
<rect width="9" height="10" transform="translate(0.5 0.5)" fill="#EEEEEE"/>
<rect x="0.5" y="0.5" width="9" height="10" stroke="black"/>
<rect width="9" height="10" transform="translate(0.5 40.5)" fill="#EEEEEE"/>
<rect x="0.5" y="40.5" width="9" height="10" stroke="black"/>
<rect width="18" height="10" transform="translate(17.5 20.5)" fill="#EEEEEE"/>
<rect x="17.5" y="20.5" width="18" height="10" stroke="black"/>
<rect width="18" height="10" transform="translate(17.5 40.5)" fill="#EEEEEE"/>
<rect x="17.5" y="40.5" width="18" height="10" stroke="black"/>
<rect width="18" height="10" transform="translate(43.5 0.5)" fill="#EEEEEE"/>
<rect x="43.5" y="0.5" width="18" height="10" stroke="black"/>
<rect width="18" height="10" transform="translate(43.5 20.5)" fill="#EEEEEE"/>
<rect x="43.5" y="20.5" width="18" height="10" stroke="black"/>
<rect width="18" height="10" transform="translate(88.5 10.5)" fill="#EEEEEE"/>
<rect x="88.5" y="10.5" width="18" height="10" stroke="black"/>
<rect width="18" height="10" transform="translate(88.5 30.5)" fill="#EEEEEE"/>
<rect x="88.5" y="30.5" width="18" height="10" stroke="black"/>
<rect width="18" height="10" transform="translate(43.5 40.5)" fill="#EEEEEE"/>
<rect x="43.5" y="40.5" width="18" height="10" stroke="black"/>
<path fill-rule="evenodd" clip-rule="evenodd" d="M12 3L16 5.5L12 8V6H10V5H12V3Z" fill="black"/>
<path fill-rule="evenodd" clip-rule="evenodd" d="M12 43L16 45.5L12 48V46H10V45H12V43Z" fill="black"/>
<path fill-rule="evenodd" clip-rule="evenodd" d="M38 3L42 5.5L38 8V6H36V5H38V3Z" fill="black"/>
<path fill-rule="evenodd" clip-rule="evenodd" d="M66.5 23L70.5 25.5L66.5 28V26H64.5V25H66.5V23Z" fill="black"/>
<path fill-rule="evenodd" clip-rule="evenodd" d="M29 15.5L26.5 19.5L24 15.5L26 15.5L26 13.5L27 13.5L27 15.5L29 15.5Z" fill="black"/>
<path fill-rule="evenodd" clip-rule="evenodd" d="M24 35.5L26.5 31.5L29 35.5L27 35.5L27 37.5L26 37.5L26 35.5L24 35.5Z" fill="black"/>
<path fill-rule="evenodd" clip-rule="evenodd" d="M55 15.5L52.5 19.5L50 15.5L52 15.5L52 13.5L53 13.5L53 15.5L55 15.5Z" fill="black"/>
<path fill-rule="evenodd" clip-rule="evenodd" d="M78 15.5L75.5 19.5L73 15.5L75 15.5L75 13.5L76 13.5L76 15.5L78 15.5Z" fill="black"/>
<path fill-rule="evenodd" clip-rule="evenodd" d="M100 23L97.5 27L95 23L97 23L97 21L98 21L98 23L100 23Z" fill="black"/>
<path fill-rule="evenodd" clip-rule="evenodd" d="M50 35.5L52.5 31.5L55 35.5L53 35.5L53 37.5L52 37.5L52 35.5L50 35.5Z" fill="black"/>
<path fill-rule="evenodd" clip-rule="evenodd" d="M73 35.5L75.5 31.5L78 35.5L76 35.5L76 37.5L75 37.5L75 35.5L73 35.5Z" fill="black"/>
<path fill-rule="evenodd" clip-rule="evenodd" d="M38 43L42 45.5L38 48V46H36V45H38V43Z" fill="black"/>
<path fill-rule="evenodd" clip-rule="evenodd" d="M115 23L119 25.5L115 28V26H113V25H115V23Z" fill="black"/>
<path d="M62 5.5H75.5V13.5M67.5 6V13.5H26M26 37.5H67.5V45M62 45.5H75.5V37.5M80 25.5H83.5V15.5H88" stroke="black"/>
<circle cx="75.5" cy="25.5" r="4" stroke="black"/>
<rect x="37" y="25" width="1" height="1" fill="black"/>
<rect x="39" y="25" width="1" height="1" fill="black"/>
<rect x="41" y="25" width="2" height="1" fill="black"/>
<rect x="63" y="25" width="1" height="1" fill="black"/>
<path fill-rule="evenodd" clip-rule="evenodd" d="M76 24H75V25H74V26H75V27H76V26H77V25H76V24Z" fill="#EEEEEE"/>
<path d="M107 35.5H111.5V25.5H113" stroke="black"/>
<path d="M5.80732 6.589L5.19132 4.9055C5.16099 4.83083 5.12949 4.74217 5.09682 4.6395C5.06416 4.53683 5.03149 4.426 4.99882 4.307C4.96849 4.426 4.93699 4.538 4.90432 4.643C4.87166 4.74567 4.84016 4.8355 4.80982 4.9125L4.19732 6.589H5.80732ZM7.46982 8.5H6.74182C6.66016 8.5 6.59366 8.48017 6.54232 8.4405C6.49099 8.3985 6.45249 8.34717 6.42682 8.2865L6.04882 7.254H3.95232L3.57432 8.2865C3.55566 8.34017 3.51949 8.38917 3.46582 8.4335C3.41216 8.47783 3.34566 8.5 3.26632 8.5H2.53132L4.52282 3.439H5.48182L7.46982 8.5Z" fill="black"/>
<path d="M5.15329 47.765C5.32829 47.765 5.47529 47.744 5.59429 47.702C5.71329 47.66 5.80779 47.604 5.87779 47.534C5.95012 47.464 6.00146 47.3823 6.03179 47.289C6.06446 47.1957 6.08079 47.0965 6.08079 46.9915C6.08079 46.8818 6.06329 46.7838 6.02829 46.6975C5.99329 46.6088 5.93846 46.5342 5.86379 46.4735C5.78912 46.4105 5.69229 46.3627 5.57329 46.33C5.45662 46.2973 5.31546 46.281 5.14979 46.281H4.20129V47.765H5.15329ZM4.20129 44.167V45.63H4.95029C5.27229 45.63 5.51496 45.5717 5.67829 45.455C5.84396 45.3383 5.92679 45.1528 5.92679 44.8985C5.92679 44.6348 5.85212 44.447 5.70279 44.335C5.55346 44.223 5.32012 44.167 5.00279 44.167H4.20129ZM5.00279 43.439C5.33412 43.439 5.61762 43.4705 5.85329 43.5335C6.08896 43.5965 6.28146 43.6863 6.43079 43.803C6.58246 43.9197 6.69329 44.0608 6.76329 44.2265C6.83329 44.3922 6.86829 44.5788 6.86829 44.7865C6.86829 44.9055 6.85079 45.0198 6.81579 45.1295C6.78079 45.2368 6.72596 45.3383 6.65129 45.434C6.57896 45.5273 6.48562 45.6125 6.37129 45.6895C6.25929 45.7665 6.12512 45.8318 5.96879 45.8855C6.66412 46.0418 7.01179 46.4175 7.01179 47.0125C7.01179 47.2272 6.97096 47.4255 6.88929 47.6075C6.80762 47.7895 6.68862 47.947 6.53229 48.08C6.37596 48.2107 6.18346 48.3133 5.95479 48.388C5.72612 48.4627 5.46479 48.5 5.17079 48.5H3.25979V43.439H5.00279Z" fill="black"/>
</svg>
