<svg width="49" height="144" viewBox="0 0 49 144" fill="none" xmlns="http://www.w3.org/2000/svg">
<rect x="0.5" y="2" width="48" height="11" fill="#2F1C04"/>
<rect x="0.5" y="2" width="48" height="11" stroke="#2F1C04"/>
<path d="M11.9462 9.136C12.0048 9.136 12.0568 9.15867 12.1022 9.204L12.5262 9.664C12.2915 9.95467 12.0022 10.1773 11.6582 10.332C11.3168 10.4867 10.9062 10.564 10.4262 10.564C9.99682 10.564 9.61016 10.4907 9.26616 10.344C8.92482 10.1973 8.63282 9.99333 8.39016 9.732C8.14749 9.47067 7.96082 9.15867 7.83016 8.796C7.70216 8.43333 7.63816 8.03733 7.63816 7.608C7.63816 7.17333 7.70749 6.776 7.84616 6.416C7.98482 6.05333 8.17949 5.74133 8.43016 5.48C8.68349 5.21867 8.98482 5.016 9.33416 4.872C9.68349 4.72533 10.0702 4.652 10.4942 4.652C10.9155 4.652 11.2888 4.72133 11.6142 4.86C11.9422 4.99867 12.2208 5.18 12.4502 5.404L12.0902 5.904C12.0688 5.936 12.0408 5.964 12.0062 5.988C11.9742 6.012 11.9288 6.024 11.8702 6.024C11.8302 6.024 11.7888 6.01333 11.7462 5.992C11.7035 5.968 11.6568 5.94 11.6062 5.908C11.5555 5.87333 11.4968 5.836 11.4302 5.796C11.3635 5.756 11.2862 5.72 11.1982 5.688C11.1102 5.65333 11.0075 5.62533 10.8902 5.604C10.7755 5.58 10.6422 5.568 10.4902 5.568C10.2315 5.568 9.99416 5.61467 9.77816 5.708C9.56482 5.79867 9.38082 5.932 9.22616 6.108C9.07149 6.28133 8.95149 6.49467 8.86616 6.748C8.78082 6.99867 8.73816 7.28533 8.73816 7.608C8.73816 7.93333 8.78349 8.22267 8.87416 8.476C8.96749 8.72933 9.09282 8.94267 9.25016 9.116C9.40749 9.28933 9.59282 9.42267 9.80616 9.516C10.0195 9.60667 10.2488 9.652 10.4942 9.652C10.6408 9.652 10.7728 9.644 10.8902 9.628C11.0102 9.612 11.1195 9.58667 11.2182 9.552C11.3195 9.51733 11.4142 9.47333 11.5022 9.42C11.5928 9.364 11.6822 9.296 11.7702 9.216C11.7968 9.192 11.8248 9.17333 11.8542 9.16C11.8835 9.144 11.9142 9.136 11.9462 9.136ZM16.5312 9.612V10.5H13.1432V4.716H14.2192V9.612H16.5312ZM20.2355 8.316L19.5315 6.392C19.4968 6.30667 19.4608 6.20533 19.4235 6.088C19.3861 5.97067 19.3488 5.844 19.3115 5.708C19.2768 5.844 19.2408 5.972 19.2035 6.092C19.1661 6.20933 19.1301 6.312 19.0955 6.4L18.3955 8.316H20.2355ZM22.1355 10.5H21.3035C21.2101 10.5 21.1341 10.4773 21.0755 10.432C21.0168 10.384 20.9728 10.3253 20.9435 10.256L20.5115 9.076H18.1155L17.6835 10.256C17.6621 10.3173 17.6208 10.3733 17.5595 10.424C17.4981 10.4747 17.4221 10.5 17.3315 10.5H16.4915L18.7675 4.716H19.8635L22.1355 10.5ZM25.6942 5.768C25.6622 5.824 25.6275 5.86533 25.5902 5.892C25.5555 5.916 25.5115 5.928 25.4582 5.928C25.4022 5.928 25.3408 5.908 25.2742 5.868C25.2102 5.82533 25.1328 5.77867 25.0422 5.728C24.9515 5.67733 24.8448 5.632 24.7222 5.592C24.6022 5.54933 24.4595 5.528 24.2942 5.528C24.1448 5.528 24.0142 5.54667 23.9022 5.584C23.7902 5.61867 23.6955 5.668 23.6182 5.732C23.5435 5.796 23.4875 5.87333 23.4502 5.964C23.4128 6.052 23.3942 6.14933 23.3942 6.256C23.3942 6.392 23.4315 6.50533 23.5062 6.596C23.5835 6.68667 23.6848 6.764 23.8102 6.828C23.9355 6.892 24.0782 6.94933 24.2382 7C24.3982 7.05067 24.5622 7.10533 24.7302 7.164C24.8982 7.22 25.0622 7.28667 25.2222 7.364C25.3822 7.43867 25.5248 7.53467 25.6502 7.652C25.7755 7.76667 25.8755 7.908 25.9502 8.076C26.0275 8.244 26.0662 8.448 26.0662 8.688C26.0662 8.94933 26.0208 9.19467 25.9302 9.424C25.8422 9.65067 25.7115 9.84933 25.5382 10.02C25.3675 10.188 25.1582 10.3213 24.9102 10.42C24.6622 10.516 24.3782 10.564 24.0582 10.564C23.8742 10.564 23.6928 10.5453 23.5142 10.508C23.3355 10.4733 23.1635 10.4227 22.9982 10.356C22.8355 10.2893 22.6822 10.2093 22.5382 10.116C22.3942 10.0227 22.2662 9.91867 22.1542 9.804L22.4702 9.288C22.4968 9.25067 22.5315 9.22 22.5742 9.196C22.6168 9.16933 22.6622 9.156 22.7102 9.156C22.7768 9.156 22.8488 9.184 22.9262 9.24C23.0035 9.29333 23.0955 9.35333 23.2022 9.42C23.3088 9.48667 23.4328 9.548 23.5742 9.604C23.7182 9.65733 23.8902 9.684 24.0902 9.684C24.3968 9.684 24.6342 9.612 24.8022 9.468C24.9702 9.32133 25.0542 9.112 25.0542 8.84C25.0542 8.688 25.0155 8.564 24.9382 8.468C24.8635 8.372 24.7635 8.292 24.6382 8.228C24.5128 8.16133 24.3702 8.10533 24.2102 8.06C24.0502 8.01467 23.8875 7.96533 23.7222 7.912C23.5568 7.85867 23.3942 7.79467 23.2342 7.72C23.0742 7.64533 22.9315 7.548 22.8062 7.428C22.6808 7.308 22.5795 7.15867 22.5022 6.98C22.4275 6.79867 22.3902 6.576 22.3902 6.312C22.3902 6.10133 22.4315 5.896 22.5142 5.696C22.5995 5.496 22.7222 5.31867 22.8822 5.164C23.0422 5.00933 23.2395 4.88533 23.4742 4.792C23.7088 4.69867 23.9782 4.652 24.2822 4.652C24.6235 4.652 24.9382 4.70533 25.2262 4.812C25.5142 4.91867 25.7595 5.068 25.9622 5.26L25.6942 5.768ZM29.9648 5.768C29.9328 5.824 29.8981 5.86533 29.8608 5.892C29.8261 5.916 29.7821 5.928 29.7288 5.928C29.6728 5.928 29.6114 5.908 29.5448 5.868C29.4808 5.82533 29.4034 5.77867 29.3128 5.728C29.2221 5.67733 29.1154 5.632 28.9928 5.592C28.8728 5.54933 28.7301 5.528 28.5648 5.528C28.4154 5.528 28.2848 5.54667 28.1728 5.584C28.0608 5.61867 27.9661 5.668 27.8888 5.732C27.8141 5.796 27.7581 5.87333 27.7208 5.964C27.6834 6.052 27.6648 6.14933 27.6648 6.256C27.6648 6.392 27.7021 6.50533 27.7768 6.596C27.8541 6.68667 27.9554 6.764 28.0808 6.828C28.2061 6.892 28.3488 6.94933 28.5088 7C28.6688 7.05067 28.8328 7.10533 29.0008 7.164C29.1688 7.22 29.3328 7.28667 29.4928 7.364C29.6528 7.43867 29.7954 7.53467 29.9208 7.652C30.0461 7.76667 30.1461 7.908 30.2208 8.076C30.2981 8.244 30.3368 8.448 30.3368 8.688C30.3368 8.94933 30.2914 9.19467 30.2008 9.424C30.1128 9.65067 29.9821 9.84933 29.8088 10.02C29.6381 10.188 29.4288 10.3213 29.1808 10.42C28.9328 10.516 28.6488 10.564 28.3288 10.564C28.1448 10.564 27.9634 10.5453 27.7848 10.508C27.6061 10.4733 27.4341 10.4227 27.2688 10.356C27.1061 10.2893 26.9528 10.2093 26.8088 10.116C26.6648 10.0227 26.5368 9.91867 26.4248 9.804L26.7408 9.288C26.7674 9.25067 26.8021 9.22 26.8448 9.196C26.8874 9.16933 26.9328 9.156 26.9808 9.156C27.0474 9.156 27.1194 9.184 27.1968 9.24C27.2741 9.29333 27.3661 9.35333 27.4728 9.42C27.5794 9.48667 27.7034 9.548 27.8448 9.604C27.9888 9.65733 28.1608 9.684 28.3608 9.684C28.6674 9.684 28.9048 9.612 29.0728 9.468C29.2408 9.32133 29.3248 9.112 29.3248 8.84C29.3248 8.688 29.2861 8.564 29.2088 8.468C29.1341 8.372 29.0341 8.292 28.9088 8.228C28.7834 8.16133 28.6408 8.10533 28.4808 8.06C28.3208 8.01467 28.1581 7.96533 27.9928 7.912C27.8274 7.85867 27.6648 7.79467 27.5048 7.72C27.3448 7.64533 27.2021 7.548 27.0768 7.428C26.9514 7.308 26.8501 7.15867 26.7728 6.98C26.6981 6.79867 26.6608 6.576 26.6608 6.312C26.6608 6.10133 26.7021 5.896 26.7848 5.696C26.8701 5.496 26.9928 5.31867 27.1528 5.164C27.3128 5.00933 27.5101 4.88533 27.7448 4.792C27.9794 4.69867 28.2488 4.652 28.5528 4.652C28.8941 4.652 29.2088 4.70533 29.4968 4.812C29.7848 4.91867 30.0301 5.068 30.2328 5.26L29.9648 5.768ZM32.2354 10.5H31.1554V4.716H32.2354V10.5ZM37.3824 9.136C37.4411 9.136 37.4931 9.15867 37.5384 9.204L37.9624 9.664C37.7277 9.95467 37.4384 10.1773 37.0944 10.332C36.7531 10.4867 36.3424 10.564 35.8624 10.564C35.4331 10.564 35.0464 10.4907 34.7024 10.344C34.3611 10.1973 34.0691 9.99333 33.8264 9.732C33.5837 9.47067 33.3971 9.15867 33.2664 8.796C33.1384 8.43333 33.0744 8.03733 33.0744 7.608C33.0744 7.17333 33.1437 6.776 33.2824 6.416C33.4211 6.05333 33.6157 5.74133 33.8664 5.48C34.1197 5.21867 34.4211 5.016 34.7704 4.872C35.1197 4.72533 35.5064 4.652 35.9304 4.652C36.3517 4.652 36.7251 4.72133 37.0504 4.86C37.3784 4.99867 37.6571 5.18 37.8864 5.404L37.5264 5.904C37.5051 5.936 37.4771 5.964 37.4424 5.988C37.4104 6.012 37.3651 6.024 37.3064 6.024C37.2664 6.024 37.2251 6.01333 37.1824 5.992C37.1397 5.968 37.0931 5.94 37.0424 5.908C36.9917 5.87333 36.9331 5.836 36.8664 5.796C36.7997 5.756 36.7224 5.72 36.6344 5.688C36.5464 5.65333 36.4437 5.62533 36.3264 5.604C36.2117 5.58 36.0784 5.568 35.9264 5.568C35.6677 5.568 35.4304 5.61467 35.2144 5.708C35.0011 5.79867 34.8171 5.932 34.6624 6.108C34.5077 6.28133 34.3877 6.49467 34.3024 6.748C34.2171 6.99867 34.1744 7.28533 34.1744 7.608C34.1744 7.93333 34.2197 8.22267 34.3104 8.476C34.4037 8.72933 34.5291 8.94267 34.6864 9.116C34.8437 9.28933 35.0291 9.42267 35.2424 9.516C35.4557 9.60667 35.6851 9.652 35.9304 9.652C36.0771 9.652 36.2091 9.644 36.3264 9.628C36.4464 9.612 36.5557 9.58667 36.6544 9.552C36.7557 9.51733 36.8504 9.47333 36.9384 9.42C37.0291 9.364 37.1184 9.296 37.2064 9.216C37.2331 9.192 37.2611 9.17333 37.2904 9.16C37.3197 9.144 37.3504 9.136 37.3824 9.136Z" fill="#FF9000"/>
<path d="M45.5 9.5L43 6.5L48 6.5L45.5 9.5Z" fill="#FF9000"/>
<rect x="0.5" y="20" width="48" height="11" fill="#2F1C04"/>
<rect x="0.5" y="20" width="48" height="11" stroke="#2F1C04"/>
<path d="M17.8312 23.768C17.7992 23.824 17.7645 23.8653 17.7272 23.892C17.6925 23.916 17.6485 23.928 17.5952 23.928C17.5392 23.928 17.4779 23.908 17.4112 23.868C17.3472 23.8253 17.2699 23.7787 17.1792 23.728C17.0885 23.6773 16.9819 23.632 16.8592 23.592C16.7392 23.5493 16.5965 23.528 16.4312 23.528C16.2819 23.528 16.1512 23.5467 16.0392 23.584C15.9272 23.6187 15.8325 23.668 15.7552 23.732C15.6805 23.796 15.6245 23.8733 15.5872 23.964C15.5499 24.052 15.5312 24.1493 15.5312 24.256C15.5312 24.392 15.5685 24.5053 15.6432 24.596C15.7205 24.6867 15.8219 24.764 15.9472 24.828C16.0725 24.892 16.2152 24.9493 16.3752 25C16.5352 25.0507 16.6992 25.1053 16.8672 25.164C17.0352 25.22 17.1992 25.2867 17.3592 25.364C17.5192 25.4387 17.6619 25.5347 17.7872 25.652C17.9125 25.7667 18.0125 25.908 18.0872 26.076C18.1645 26.244 18.2032 26.448 18.2032 26.688C18.2032 26.9493 18.1579 27.1947 18.0672 27.424C17.9792 27.6507 17.8485 27.8493 17.6752 28.02C17.5045 28.188 17.2952 28.3213 17.0472 28.42C16.7992 28.516 16.5152 28.564 16.1952 28.564C16.0112 28.564 15.8299 28.5453 15.6512 28.508C15.4725 28.4733 15.3005 28.4227 15.1352 28.356C14.9725 28.2893 14.8192 28.2093 14.6752 28.116C14.5312 28.0227 14.4032 27.9187 14.2912 27.804L14.6072 27.288C14.6339 27.2507 14.6685 27.22 14.7112 27.196C14.7539 27.1693 14.7992 27.156 14.8472 27.156C14.9139 27.156 14.9859 27.184 15.0632 27.24C15.1405 27.2933 15.2325 27.3533 15.3392 27.42C15.4459 27.4867 15.5699 27.548 15.7112 27.604C15.8552 27.6573 16.0272 27.684 16.2272 27.684C16.5339 27.684 16.7712 27.612 16.9392 27.468C17.1072 27.3213 17.1912 27.112 17.1912 26.84C17.1912 26.688 17.1525 26.564 17.0752 26.468C17.0005 26.372 16.9005 26.292 16.7752 26.228C16.6499 26.1613 16.5072 26.1053 16.3472 26.06C16.1872 26.0147 16.0245 25.9653 15.8592 25.912C15.6939 25.8587 15.5312 25.7947 15.3712 25.72C15.2112 25.6453 15.0685 25.548 14.9432 25.428C14.8179 25.308 14.7165 25.1587 14.6392 24.98C14.5645 24.7987 14.5272 24.576 14.5272 24.312C14.5272 24.1013 14.5685 23.896 14.6512 23.696C14.7365 23.496 14.8592 23.3187 15.0192 23.164C15.1792 23.0093 15.3765 22.8853 15.6112 22.792C15.8459 22.6987 16.1152 22.652 16.4192 22.652C16.7605 22.652 17.0752 22.7053 17.3632 22.812C17.6512 22.9187 17.8965 23.068 18.0992 23.26L17.8312 23.768ZM20.1018 28.5H19.0218V22.716H20.1018V28.5ZM26.1528 22.716V28.5H25.6008C25.5155 28.5 25.4435 28.4867 25.3848 28.46C25.3288 28.4307 25.2741 28.3827 25.2208 28.316L22.2008 24.46C22.2168 24.636 22.2248 24.7987 22.2248 24.948V28.5H21.2768V22.716H21.8408C21.8861 22.716 21.9248 22.7187 21.9568 22.724C21.9915 22.7267 22.0208 22.7347 22.0448 22.748C22.0715 22.7587 22.0968 22.776 22.1208 22.8C22.1448 22.8213 22.1715 22.8507 22.2008 22.888L25.2328 26.76C25.2248 26.6667 25.2181 26.5747 25.2128 26.484C25.2075 26.3933 25.2048 26.3093 25.2048 26.232V22.716H26.1528ZM28.4009 23.572V25.176H30.4249V26.004H28.4009V27.64H30.9689V28.5H27.3209V22.716H30.9689V23.572H28.4009Z" fill="#FF9000"/>
<path d="M45.5 27.5L43 24.5L48 24.5L45.5 27.5Z" fill="#FF9000"/>
<rect x="0.5" y="38" width="48" height="11" fill="#2F1C04"/>
<rect x="0.5" y="38" width="48" height="11" stroke="#2F1C04"/>
<path d="M24.4913 40.716L22.6953 46.5H21.7232L20.4592 42.548C20.4246 42.452 20.3926 42.3347 20.3633 42.196C20.3473 42.2627 20.3313 42.3253 20.3152 42.384C20.2993 42.4427 20.2819 42.4973 20.2632 42.548L18.9873 46.5H18.0113L16.2192 40.716H17.1192C17.2126 40.716 17.2899 40.7387 17.3512 40.784C17.4152 40.8267 17.4579 40.8853 17.4792 40.96L18.4632 44.42C18.4846 44.5053 18.5046 44.5987 18.5233 44.7C18.5446 44.7987 18.5659 44.9027 18.5872 45.012C18.6086 44.9 18.6313 44.7947 18.6553 44.696C18.6819 44.5973 18.7099 44.5053 18.7392 44.42L19.8753 40.96C19.8966 40.8987 19.9379 40.8427 19.9993 40.792C20.0633 40.7413 20.1406 40.716 20.2313 40.716H20.5473C20.6406 40.716 20.7166 40.7387 20.7752 40.784C20.8339 40.8293 20.8779 40.888 20.9072 40.96L22.0393 44.42C22.0953 44.5853 22.1459 44.776 22.1913 44.992C22.2259 44.7813 22.2646 44.5907 22.3073 44.42L23.2913 40.96C23.3073 40.8933 23.3473 40.836 23.4113 40.788C23.4779 40.74 23.5566 40.716 23.6473 40.716H24.4913ZM29.1215 41.6H27.3775V46.5H26.3015V41.6H24.5575V40.716H29.1215V41.6Z" fill="#FF9000"/>
<path d="M45.5 45.5L43 42.5L48 42.5L45.5 45.5Z" fill="#FF9000"/>
<rect x="0.5" y="56" width="48" height="11" fill="#2F1C04"/>
<rect x="0.5" y="56" width="48" height="11" stroke="#2F1C04"/>
<path d="M5.75619 59.768C5.72419 59.824 5.68952 59.8653 5.65219 59.892C5.61752 59.916 5.57352 59.928 5.52019 59.928C5.46419 59.928 5.40286 59.908 5.33619 59.868C5.27219 59.8253 5.19486 59.7787 5.10419 59.728C5.01352 59.6773 4.90686 59.632 4.78419 59.592C4.66419 59.5493 4.52152 59.528 4.35619 59.528C4.20686 59.528 4.07619 59.5467 3.96419 59.584C3.85219 59.6187 3.75752 59.668 3.68019 59.732C3.60552 59.796 3.54952 59.8733 3.51219 59.964C3.47486 60.052 3.45619 60.1493 3.45619 60.256C3.45619 60.392 3.49352 60.5053 3.56819 60.596C3.64552 60.6867 3.74686 60.764 3.87219 60.828C3.99752 60.892 4.14019 60.9493 4.30019 61C4.46019 61.0507 4.62419 61.1053 4.79219 61.164C4.96019 61.22 5.12419 61.2867 5.28419 61.364C5.44419 61.4387 5.58686 61.5347 5.71219 61.652C5.83752 61.7667 5.93752 61.908 6.01219 62.076C6.08952 62.244 6.12819 62.448 6.12819 62.688C6.12819 62.9493 6.08286 63.1947 5.99219 63.424C5.90419 63.6507 5.77352 63.8493 5.60019 64.02C5.42952 64.188 5.22019 64.3213 4.97219 64.42C4.72419 64.516 4.44019 64.564 4.12019 64.564C3.93619 64.564 3.75486 64.5453 3.57619 64.508C3.39752 64.4733 3.22552 64.4227 3.06019 64.356C2.89752 64.2893 2.74419 64.2093 2.60019 64.116C2.45619 64.0227 2.32819 63.9187 2.21619 63.804L2.53219 63.288C2.55886 63.2507 2.59352 63.22 2.63619 63.196C2.67886 63.1693 2.72419 63.156 2.77219 63.156C2.83886 63.156 2.91086 63.184 2.98819 63.24C3.06552 63.2933 3.15752 63.3533 3.26419 63.42C3.37086 63.4867 3.49486 63.548 3.63619 63.604C3.78019 63.6573 3.95219 63.684 4.15219 63.684C4.45886 63.684 4.69619 63.612 4.86419 63.468C5.03219 63.3213 5.11619 63.112 5.11619 62.84C5.11619 62.688 5.07752 62.564 5.00019 62.468C4.92552 62.372 4.82552 62.292 4.70019 62.228C4.57486 62.1613 4.43219 62.1053 4.27219 62.06C4.11219 62.0147 3.94952 61.9653 3.78419 61.912C3.61886 61.8587 3.45619 61.7947 3.29619 61.72C3.13619 61.6453 2.99352 61.548 2.86819 61.428C2.74286 61.308 2.64152 61.1587 2.56419 60.98C2.48952 60.7987 2.45219 60.576 2.45219 60.312C2.45219 60.1013 2.49352 59.896 2.57619 59.696C2.66152 59.496 2.78419 59.3187 2.94419 59.164C3.10419 59.0093 3.30152 58.8853 3.53619 58.792C3.77086 58.6987 4.04019 58.652 4.34419 58.652C4.68552 58.652 5.00019 58.7053 5.28819 58.812C5.57619 58.9187 5.82152 59.068 6.02419 59.26L5.75619 59.768ZM8.21481 61.796C8.00148 61.9347 7.84548 62.092 7.74681 62.268C7.65081 62.4413 7.60281 62.628 7.60281 62.828C7.60281 62.9747 7.62815 63.1067 7.67881 63.224C7.72948 63.3413 7.79748 63.4413 7.88281 63.524C7.97081 63.604 8.07215 63.6667 8.18681 63.712C8.30415 63.7547 8.42815 63.776 8.55881 63.776C8.79348 63.776 9.00815 63.74 9.20281 63.668C9.39748 63.5933 9.57348 63.4907 9.73081 63.36L8.21481 61.796ZM12.0668 64.5H11.0988C10.9975 64.5 10.9148 64.488 10.8508 64.464C10.7895 64.44 10.7241 64.3893 10.6548 64.312L10.2548 63.9C10.0015 64.108 9.71748 64.2707 9.40281 64.388C9.08815 64.5053 8.74815 64.564 8.38281 64.564C8.16148 64.564 7.94281 64.5267 7.72681 64.452C7.51348 64.3747 7.32281 64.264 7.15481 64.12C6.98681 63.976 6.85081 63.8027 6.74681 63.6C6.64548 63.3947 6.59481 63.164 6.59481 62.908C6.59481 62.7267 6.62415 62.556 6.68281 62.396C6.74148 62.2333 6.82281 62.0827 6.92681 61.944C7.03081 61.8053 7.15481 61.6813 7.29881 61.572C7.44281 61.46 7.60015 61.364 7.77081 61.284C7.62681 61.084 7.52281 60.8893 7.45881 60.7C7.39481 60.508 7.36281 60.3173 7.36281 60.128C7.36281 59.928 7.39881 59.7387 7.47081 59.56C7.54548 59.3787 7.65215 59.2213 7.79081 59.088C7.92948 58.9547 8.10015 58.8493 8.30281 58.772C8.50548 58.692 8.73481 58.652 8.99081 58.652C9.22548 58.652 9.43481 58.688 9.61881 58.76C9.80548 58.832 9.96415 58.928 10.0948 59.048C10.2281 59.168 10.3321 59.3053 10.4068 59.46C10.4841 59.6147 10.5295 59.7747 10.5428 59.94L9.91481 60.072C9.79748 60.096 9.71215 60.0453 9.65881 59.92C9.63481 59.8507 9.60281 59.7853 9.56281 59.724C9.52548 59.66 9.48015 59.6053 9.42681 59.56C9.37348 59.512 9.31081 59.4747 9.23881 59.448C9.16681 59.4187 9.08415 59.404 8.99081 59.404C8.87881 59.404 8.77881 59.424 8.69081 59.464C8.60281 59.5013 8.52815 59.5533 8.46681 59.62C8.40815 59.684 8.36281 59.76 8.33081 59.848C8.29881 59.9333 8.28281 60.024 8.28281 60.12C8.28281 60.2 8.29081 60.2773 8.30681 60.352C8.32281 60.4267 8.34948 60.5013 8.38681 60.576C8.42415 60.6507 8.47215 60.728 8.53081 60.808C8.59215 60.8853 8.66681 60.9693 8.75481 61.06L10.2908 62.656C10.3788 62.488 10.4495 62.3107 10.5028 62.124C10.5561 61.9373 10.5908 61.748 10.6068 61.556C10.6148 61.4947 10.6361 61.4453 10.6708 61.408C10.7055 61.3707 10.7535 61.352 10.8148 61.352H11.4308C11.4281 61.704 11.3775 62.04 11.2788 62.36C11.1801 62.68 11.0388 62.9747 10.8548 63.244L12.0668 64.5ZM17.4919 58.716V64.5H16.4119V61.972H13.6959V64.5H12.6159V58.716H13.6959V61.204H16.4119V58.716H17.4919ZM25.3613 58.716V64.5H24.8093C24.7239 64.5 24.6519 64.4867 24.5933 64.46C24.5373 64.4307 24.4826 64.3827 24.4293 64.316L21.4093 60.46C21.4253 60.636 21.4333 60.7987 21.4333 60.948V64.5H20.4853V58.716H21.0493C21.0946 58.716 21.1333 58.7187 21.1653 58.724C21.1999 58.7267 21.2293 58.7347 21.2533 58.748C21.2799 58.7587 21.3053 58.776 21.3293 58.8C21.3533 58.8213 21.3799 58.8507 21.4093 58.888L24.4413 62.76C24.4333 62.6667 24.4266 62.5747 24.4213 62.484C24.4159 62.3933 24.4133 62.3093 24.4133 62.232V58.716H25.3613ZM32.0453 61.608C32.0453 62.032 31.9746 62.4253 31.8333 62.788C31.6946 63.148 31.4973 63.46 31.2413 63.724C30.9853 63.988 30.6773 64.1947 30.3173 64.344C29.9573 64.4907 29.5573 64.564 29.1173 64.564C28.68 64.564 28.2813 64.4907 27.9213 64.344C27.5613 64.1947 27.252 63.988 26.9933 63.724C26.7373 63.46 26.5386 63.148 26.3973 62.788C26.256 62.4253 26.1853 62.032 26.1853 61.608C26.1853 61.184 26.256 60.792 26.3973 60.432C26.5386 60.0693 26.7373 59.756 26.9933 59.492C27.252 59.228 27.5613 59.0227 27.9213 58.876C28.2813 58.7267 28.68 58.652 29.1173 58.652C29.4106 58.652 29.6866 58.6867 29.9453 58.756C30.204 58.8227 30.4413 58.9187 30.6573 59.044C30.8733 59.1667 31.0666 59.3173 31.2373 59.496C31.4106 59.672 31.5573 59.8693 31.6773 60.088C31.7973 60.3067 31.888 60.544 31.9493 60.8C32.0133 61.056 32.0453 61.3253 32.0453 61.608ZM30.9453 61.608C30.9453 61.2907 30.9026 61.0067 30.8173 60.756C30.732 60.5027 30.6106 60.288 30.4533 60.112C30.296 59.936 30.104 59.8013 29.8773 59.708C29.6533 59.6147 29.4 59.568 29.1173 59.568C28.8346 59.568 28.58 59.6147 28.3533 59.708C28.1293 59.8013 27.9373 59.936 27.7773 60.112C27.62 60.288 27.4986 60.5027 27.4133 60.756C27.328 61.0067 27.2853 61.2907 27.2853 61.608C27.2853 61.9253 27.328 62.2107 27.4133 62.464C27.4986 62.7147 27.62 62.928 27.7773 63.104C27.9373 63.2773 28.1293 63.4107 28.3533 63.504C28.58 63.5973 28.8346 63.644 29.1173 63.644C29.4 63.644 29.6533 63.5973 29.8773 63.504C30.104 63.4107 30.296 63.2773 30.4533 63.104C30.6106 62.928 30.732 62.7147 30.8173 62.464C30.9026 62.2107 30.9453 61.9253 30.9453 61.608ZM33.9503 64.5H32.8703V58.716H33.9503V64.5ZM38.2053 59.768C38.1733 59.824 38.1386 59.8653 38.1013 59.892C38.0666 59.916 38.0226 59.928 37.9693 59.928C37.9133 59.928 37.8519 59.908 37.7853 59.868C37.7213 59.8253 37.6439 59.7787 37.5533 59.728C37.4626 59.6773 37.3559 59.632 37.2333 59.592C37.1133 59.5493 36.9706 59.528 36.8053 59.528C36.6559 59.528 36.5253 59.5467 36.4133 59.584C36.3013 59.6187 36.2066 59.668 36.1293 59.732C36.0546 59.796 35.9986 59.8733 35.9613 59.964C35.9239 60.052 35.9053 60.1493 35.9053 60.256C35.9053 60.392 35.9426 60.5053 36.0173 60.596C36.0946 60.6867 36.1959 60.764 36.3213 60.828C36.4466 60.892 36.5893 60.9493 36.7493 61C36.9093 61.0507 37.0733 61.1053 37.2413 61.164C37.4093 61.22 37.5733 61.2867 37.7333 61.364C37.8933 61.4387 38.0359 61.5347 38.1613 61.652C38.2866 61.7667 38.3866 61.908 38.4613 62.076C38.5386 62.244 38.5773 62.448 38.5773 62.688C38.5773 62.9493 38.5319 63.1947 38.4413 63.424C38.3533 63.6507 38.2226 63.8493 38.0493 64.02C37.8786 64.188 37.6693 64.3213 37.4213 64.42C37.1733 64.516 36.8893 64.564 36.5693 64.564C36.3853 64.564 36.2039 64.5453 36.0253 64.508C35.8466 64.4733 35.6746 64.4227 35.5093 64.356C35.3466 64.2893 35.1933 64.2093 35.0493 64.116C34.9053 64.0227 34.7773 63.9187 34.6653 63.804L34.9813 63.288C35.0079 63.2507 35.0426 63.22 35.0853 63.196C35.1279 63.1693 35.1733 63.156 35.2213 63.156C35.2879 63.156 35.3599 63.184 35.4373 63.24C35.5146 63.2933 35.6066 63.3533 35.7133 63.42C35.8199 63.4867 35.9439 63.548 36.0853 63.604C36.2293 63.6573 36.4013 63.684 36.6013 63.684C36.9079 63.684 37.1453 63.612 37.3133 63.468C37.4813 63.3213 37.5653 63.112 37.5653 62.84C37.5653 62.688 37.5266 62.564 37.4493 62.468C37.3746 62.372 37.2746 62.292 37.1493 62.228C37.0239 62.1613 36.8813 62.1053 36.7213 62.06C36.5613 62.0147 36.3986 61.9653 36.2333 61.912C36.0679 61.8587 35.9053 61.7947 35.7453 61.72C35.5853 61.6453 35.4426 61.548 35.3173 61.428C35.1919 61.308 35.0906 61.1587 35.0133 60.98C34.9386 60.7987 34.9013 60.576 34.9013 60.312C34.9013 60.1013 34.9426 59.896 35.0253 59.696C35.1106 59.496 35.2333 59.3187 35.3933 59.164C35.5533 59.0093 35.7506 58.8853 35.9853 58.792C36.2199 58.6987 36.4893 58.652 36.7933 58.652C37.1346 58.652 37.4493 58.7053 37.7373 58.812C38.0253 58.9187 38.2706 59.068 38.4733 59.26L38.2053 59.768ZM40.4759 59.572V61.176H42.4999V62.004H40.4759V63.64H43.0439V64.5H39.3959V58.716H43.0439V59.572H40.4759Z" fill="#FF9000"/>
<path d="M45.5 63.5L43 60.5L48 60.5L45.5 63.5Z" fill="#FF9000"/>
<rect x="0.5" y="74" width="48" height="11" fill="#2F1C04"/>
<rect x="0.5" y="74" width="48" height="11" stroke="#2F1C04"/>
<path d="M8.43391 80.316L7.72991 78.392C7.69524 78.3067 7.65924 78.2053 7.62191 78.088C7.58457 77.9707 7.54724 77.844 7.50991 77.708C7.47524 77.844 7.43924 77.972 7.40191 78.092C7.36457 78.2093 7.32857 78.312 7.29391 78.4L6.59391 80.316H8.43391ZM10.3339 82.5H9.50191C9.40857 82.5 9.33257 82.4773 9.27391 82.432C9.21524 82.384 9.17124 82.3253 9.14191 82.256L8.70991 81.076H6.31391L5.88191 82.256C5.86057 82.3173 5.81924 82.3733 5.75791 82.424C5.69657 82.4747 5.62057 82.5 5.52991 82.5H4.68991L6.96591 76.716H8.06191L10.3339 82.5ZM13 81.632C13.208 81.632 13.3933 81.5973 13.556 81.528C13.7213 81.4587 13.86 81.3613 13.972 81.236C14.084 81.1107 14.1693 80.9587 14.228 80.78C14.2893 80.6013 14.32 80.4013 14.32 80.18V76.716H15.396V80.18C15.396 80.524 15.34 80.8427 15.228 81.136C15.1186 81.4267 14.96 81.6787 14.752 81.892C14.5466 82.1027 14.296 82.268 14 82.388C13.704 82.5053 13.3706 82.564 13 82.564C12.6266 82.564 12.292 82.5053 11.996 82.388C11.7 82.268 11.448 82.1027 11.24 81.892C11.0346 81.6787 10.876 81.4267 10.764 81.136C10.6546 80.8427 10.6 80.524 10.6 80.18V76.716H11.676V80.176C11.676 80.3973 11.7053 80.5973 11.764 80.776C11.8253 80.9547 11.912 81.108 12.024 81.236C12.1386 81.3613 12.2773 81.4587 12.44 81.528C12.6053 81.5973 12.792 81.632 13 81.632ZM21.6255 79.608C21.6255 80.032 21.5548 80.4213 21.4135 80.776C21.2721 81.1307 21.0735 81.436 20.8175 81.692C20.5615 81.948 20.2535 82.1467 19.8935 82.288C19.5335 82.4293 19.1335 82.5 18.6935 82.5H16.4895V76.716H18.6935C19.1335 76.716 19.5335 76.788 19.8935 76.932C20.2535 77.0733 20.5615 77.272 20.8175 77.528C21.0735 77.7813 21.2721 78.0853 21.4135 78.44C21.5548 78.7947 21.6255 79.184 21.6255 79.608ZM20.5215 79.608C20.5215 79.2907 20.4788 79.0067 20.3935 78.756C20.3108 78.5027 20.1895 78.2893 20.0295 78.116C19.8721 77.94 19.6801 77.8053 19.4535 77.712C19.2295 77.6187 18.9761 77.572 18.6935 77.572H17.5695V81.644H18.6935C18.9761 81.644 19.2295 81.5973 19.4535 81.504C19.6801 81.4107 19.8721 81.2773 20.0295 81.104C20.1895 80.928 20.3108 80.7147 20.3935 80.464C20.4788 80.2107 20.5215 79.9253 20.5215 79.608ZM23.5354 82.5H22.4554V76.716H23.5354V82.5ZM30.2264 79.608C30.2264 80.032 30.1557 80.4253 30.0144 80.788C29.8757 81.148 29.6784 81.46 29.4224 81.724C29.1664 81.988 28.8584 82.1947 28.4984 82.344C28.1384 82.4907 27.7384 82.564 27.2984 82.564C26.8611 82.564 26.4624 82.4907 26.1024 82.344C25.7424 82.1947 25.4331 81.988 25.1744 81.724C24.9184 81.46 24.7197 81.148 24.5784 80.788C24.4371 80.4253 24.3664 80.032 24.3664 79.608C24.3664 79.184 24.4371 78.792 24.5784 78.432C24.7197 78.0693 24.9184 77.756 25.1744 77.492C25.4331 77.228 25.7424 77.0227 26.1024 76.876C26.4624 76.7267 26.8611 76.652 27.2984 76.652C27.5917 76.652 27.8677 76.6867 28.1264 76.756C28.3851 76.8227 28.6224 76.9187 28.8384 77.044C29.0544 77.1667 29.2477 77.3173 29.4184 77.496C29.5917 77.672 29.7384 77.8693 29.8584 78.088C29.9784 78.3067 30.0691 78.544 30.1304 78.8C30.1944 79.056 30.2264 79.3253 30.2264 79.608ZM29.1264 79.608C29.1264 79.2907 29.0837 79.0067 28.9984 78.756C28.9131 78.5027 28.7917 78.288 28.6344 78.112C28.4771 77.936 28.2851 77.8013 28.0584 77.708C27.8344 77.6147 27.5811 77.568 27.2984 77.568C27.0157 77.568 26.7611 77.6147 26.5344 77.708C26.3104 77.8013 26.1184 77.936 25.9584 78.112C25.8011 78.288 25.6797 78.5027 25.5944 78.756C25.5091 79.0067 25.4664 79.2907 25.4664 79.608C25.4664 79.9253 25.5091 80.2107 25.5944 80.464C25.6797 80.7147 25.8011 80.928 25.9584 81.104C26.1184 81.2773 26.3104 81.4107 26.5344 81.504C26.7611 81.5973 27.0157 81.644 27.2984 81.644C27.5811 81.644 27.8344 81.5973 28.0584 81.504C28.2851 81.4107 28.4771 81.2773 28.6344 81.104C28.7917 80.928 28.9131 80.7147 28.9984 80.464C29.0837 80.2107 29.1264 79.9253 29.1264 79.608ZM33.9567 82.5H32.8767V76.716H33.9567V82.5ZM40.0077 76.716V82.5H39.4557C39.3703 82.5 39.2983 82.4867 39.2397 82.46C39.1837 82.4307 39.129 82.3827 39.0757 82.316L36.0557 78.46C36.0717 78.636 36.0797 78.7987 36.0797 78.948V82.5H35.1317V76.716H35.6957C35.741 76.716 35.7797 76.7187 35.8117 76.724C35.8463 76.7267 35.8757 76.7347 35.8997 76.748C35.9263 76.7587 35.9517 76.776 35.9757 76.8C35.9997 76.8213 36.0263 76.8507 36.0557 76.888L39.0877 80.76C39.0797 80.6667 39.073 80.5747 39.0677 80.484C39.0623 80.3933 39.0597 80.3093 39.0597 80.232V76.716H40.0077Z" fill="#FF9000"/>
<path d="M45.5 81.5L43 78.5L48 78.5L45.5 81.5Z" fill="#FF9000"/>
<rect x="0.5" y="92" width="48" height="11" fill="#2F1C04"/>
<rect x="0.5" y="92" width="48" height="11" stroke="#2F1C04"/>
<path d="M16.1696 95.572V97.284H18.3376V98.144H16.1696V100.5H15.0896V94.716H18.7376V95.572H16.1696ZM25.7729 94.716V100.5H24.8249V96.764C24.8249 96.6147 24.8329 96.4533 24.8489 96.28L23.1009 99.564C23.0182 99.7213 22.8915 99.8 22.7209 99.8H22.5689C22.3982 99.8 22.2715 99.7213 22.1889 99.564L20.4209 96.268C20.4289 96.356 20.4355 96.4427 20.4409 96.528C20.4462 96.6133 20.4489 96.692 20.4489 96.764V100.5H19.5009V94.716H20.3129C20.3609 94.716 20.4022 94.7173 20.4369 94.72C20.4715 94.7227 20.5022 94.7293 20.5289 94.74C20.5582 94.7507 20.5835 94.768 20.6049 94.792C20.6289 94.816 20.6515 94.848 20.6729 94.888L22.4049 98.1C22.4502 98.1853 22.4915 98.2733 22.5289 98.364C22.5689 98.4547 22.6075 98.548 22.6449 98.644C22.6822 98.5453 22.7209 98.4507 22.7609 98.36C22.8009 98.2667 22.8435 98.1773 22.8889 98.092L24.5969 94.888C24.6182 94.848 24.6409 94.816 24.6649 94.792C24.6889 94.768 24.7142 94.7507 24.7409 94.74C24.7702 94.7293 24.8022 94.7227 24.8369 94.72C24.8715 94.7173 24.9129 94.716 24.9609 94.716H25.7729ZM26.7314 96.328C26.7714 96.0507 26.8487 95.808 26.9634 95.6C27.078 95.3893 27.2207 95.2147 27.3914 95.076C27.5647 94.9347 27.762 94.8293 27.9834 94.76C28.2074 94.688 28.4474 94.652 28.7034 94.652C28.97 94.652 29.21 94.6907 29.4234 94.768C29.6394 94.8427 29.8234 94.948 29.9754 95.084C30.1274 95.2173 30.2434 95.3747 30.3234 95.556C30.406 95.7373 30.4474 95.9333 30.4474 96.144C30.4474 96.328 30.426 96.4907 30.3834 96.632C30.3434 96.7707 30.2847 96.892 30.2074 96.996C30.13 97.1 30.034 97.188 29.9194 97.26C29.8047 97.332 29.6754 97.392 29.5314 97.44C29.878 97.5493 30.1367 97.716 30.3074 97.94C30.478 98.164 30.5634 98.4453 30.5634 98.784C30.5634 99.072 30.51 99.3267 30.4034 99.548C30.2967 99.7693 30.1527 99.956 29.9714 100.108C29.79 100.257 29.5794 100.371 29.3394 100.448C29.102 100.525 28.85 100.564 28.5834 100.564C28.2927 100.564 28.0394 100.531 27.8234 100.464C27.6074 100.397 27.4194 100.299 27.2594 100.168C27.0994 100.037 26.9634 99.8773 26.8514 99.688C26.7394 99.4987 26.6434 99.28 26.5634 99.032L26.9994 98.852C27.114 98.804 27.2207 98.792 27.3194 98.816C27.4207 98.8373 27.494 98.8907 27.5394 98.976C27.5874 99.0693 27.6394 99.1613 27.6954 99.252C27.754 99.3427 27.8234 99.424 27.9034 99.496C27.9834 99.5653 28.0767 99.6227 28.1834 99.668C28.2927 99.7107 28.422 99.732 28.5714 99.732C28.7394 99.732 28.886 99.7053 29.0114 99.652C29.1367 99.596 29.2407 99.524 29.3234 99.436C29.4087 99.348 29.4714 99.2507 29.5114 99.144C29.554 99.0347 29.5754 98.9253 29.5754 98.816C29.5754 98.6773 29.5607 98.552 29.5314 98.44C29.502 98.3253 29.4407 98.228 29.3474 98.148C29.254 98.068 29.1194 98.0053 28.9434 97.96C28.77 97.9147 28.5367 97.892 28.2434 97.892V97.188C28.486 97.1853 28.6874 97.1627 28.8474 97.12C29.0074 97.0773 29.134 97.0187 29.2274 96.944C29.3234 96.8667 29.39 96.7747 29.4274 96.668C29.4647 96.5613 29.4834 96.444 29.4834 96.316C29.4834 96.044 29.4074 95.8373 29.2554 95.696C29.1034 95.5547 28.9007 95.484 28.6474 95.484C28.53 95.484 28.422 95.5013 28.3234 95.536C28.2247 95.568 28.1354 95.6147 28.0554 95.676C27.978 95.7347 27.9127 95.804 27.8594 95.884C27.806 95.964 27.766 96.052 27.7394 96.148C27.694 96.2707 27.634 96.352 27.5594 96.392C27.4874 96.432 27.3847 96.4413 27.2514 96.42L26.7314 96.328Z" fill="#FF9000"/>
<path d="M45.5 99.5L43 96.5L48 96.5L45.5 99.5Z" fill="#FF9000"/>
<rect x="0.5" y="110" width="48" height="11" fill="#2F1C04"/>
<rect x="0.5" y="110" width="48" height="11" stroke="#2F1C04"/>
<path d="M16.1696 113.572V115.284H18.3376V116.144H16.1696V118.5H15.0896V112.716H18.7376V113.572H16.1696ZM25.7729 112.716V118.5H24.8249V114.764C24.8249 114.615 24.8329 114.453 24.8489 114.28L23.1009 117.564C23.0182 117.721 22.8915 117.8 22.7209 117.8H22.5689C22.3982 117.8 22.2715 117.721 22.1889 117.564L20.4209 114.268C20.4289 114.356 20.4355 114.443 20.4409 114.528C20.4462 114.613 20.4489 114.692 20.4489 114.764V118.5H19.5009V112.716H20.3129C20.3609 112.716 20.4022 112.717 20.4369 112.72C20.4715 112.723 20.5022 112.729 20.5289 112.74C20.5582 112.751 20.5835 112.768 20.6049 112.792C20.6289 112.816 20.6515 112.848 20.6729 112.888L22.4049 116.1C22.4502 116.185 22.4915 116.273 22.5289 116.364C22.5689 116.455 22.6075 116.548 22.6449 116.644C22.6822 116.545 22.7209 116.451 22.7609 116.36C22.8009 116.267 22.8435 116.177 22.8889 116.092L24.5969 112.888C24.6182 112.848 24.6409 112.816 24.6649 112.792C24.6889 112.768 24.7142 112.751 24.7409 112.74C24.7702 112.729 24.8022 112.723 24.8369 112.72C24.8715 112.717 24.9129 112.716 24.9609 112.716H25.7729ZM30.2234 117.58C30.33 117.58 30.414 117.611 30.4754 117.672C30.5394 117.731 30.5714 117.809 30.5714 117.908V118.5H26.6034V118.172C26.6034 118.105 26.6167 118.036 26.6434 117.964C26.6727 117.889 26.718 117.823 26.7794 117.764L28.5354 116.004C28.682 115.855 28.8127 115.712 28.9274 115.576C29.0447 115.44 29.142 115.305 29.2194 115.172C29.2967 115.039 29.3554 114.904 29.3954 114.768C29.438 114.629 29.4594 114.484 29.4594 114.332C29.4594 114.193 29.4394 114.072 29.3994 113.968C29.3594 113.861 29.302 113.772 29.2274 113.7C29.1554 113.628 29.0674 113.575 28.9634 113.54C28.862 113.503 28.7474 113.484 28.6194 113.484C28.502 113.484 28.3927 113.501 28.2914 113.536C28.1927 113.568 28.1047 113.615 28.0274 113.676C27.95 113.735 27.8847 113.804 27.8314 113.884C27.778 113.964 27.738 114.052 27.7114 114.148C27.666 114.271 27.6074 114.352 27.5354 114.392C27.4634 114.432 27.3594 114.441 27.2234 114.42L26.7034 114.328C26.7434 114.051 26.8207 113.808 26.9354 113.6C27.05 113.389 27.1927 113.215 27.3634 113.076C27.5367 112.935 27.734 112.829 27.9554 112.76C28.1794 112.688 28.4194 112.652 28.6754 112.652C28.942 112.652 29.186 112.692 29.4074 112.772C29.6287 112.849 29.818 112.96 29.9754 113.104C30.1327 113.248 30.2554 113.421 30.3434 113.624C30.4314 113.827 30.4754 114.052 30.4754 114.3C30.4754 114.513 30.4434 114.711 30.3794 114.892C30.318 115.073 30.234 115.247 30.1274 115.412C30.0234 115.577 29.9007 115.737 29.7594 115.892C29.618 116.047 29.47 116.204 29.3154 116.364L28.0114 117.696C28.1367 117.659 28.2607 117.631 28.3834 117.612C28.5087 117.591 28.6274 117.58 28.7394 117.58H30.2234Z" fill="#FF9000"/>
<path d="M45.5 117.5L43 114.5L48 114.5L45.5 117.5Z" fill="#FF9000"/>
<rect x="0.5" y="128" width="48" height="11" fill="#2F1C04"/>
<rect x="0.5" y="128" width="48" height="11" stroke="#2F1C04"/>
<path d="M12.4422 130.716L10.6462 136.5H9.67419L8.41019 132.548C8.37552 132.452 8.34352 132.335 8.31419 132.196C8.29819 132.263 8.28219 132.325 8.26619 132.384C8.25019 132.443 8.23286 132.497 8.21419 132.548L6.93819 136.5H5.96219L4.17019 130.716H5.07019C5.16352 130.716 5.24085 130.739 5.30219 130.784C5.36619 130.827 5.40885 130.885 5.43019 130.96L6.41419 134.42C6.43552 134.505 6.45552 134.599 6.47419 134.7C6.49552 134.799 6.51685 134.903 6.53819 135.012C6.55952 134.9 6.58219 134.795 6.60619 134.696C6.63285 134.597 6.66085 134.505 6.69019 134.42L7.82619 130.96C7.84752 130.899 7.88886 130.843 7.95019 130.792C8.01419 130.741 8.09152 130.716 8.18219 130.716H8.49819C8.59152 130.716 8.66752 130.739 8.72619 130.784C8.78486 130.829 8.82886 130.888 8.85819 130.96L9.99019 134.42C10.0462 134.585 10.0969 134.776 10.1422 134.992C10.1769 134.781 10.2155 134.591 10.2582 134.42L11.2422 130.96C11.2582 130.893 11.2982 130.836 11.3622 130.788C11.4289 130.74 11.5075 130.716 11.5982 130.716H12.4422ZM14.1124 136.5H13.0324V130.716H14.1124V136.5ZM20.1634 130.716V136.5H19.6114C19.5261 136.5 19.4541 136.487 19.3954 136.46C19.3394 136.431 19.2848 136.383 19.2314 136.316L16.2114 132.46C16.2274 132.636 16.2354 132.799 16.2354 132.948V136.5H15.2874V130.716H15.8514C15.8968 130.716 15.9354 130.719 15.9674 130.724C16.0021 130.727 16.0314 130.735 16.0554 130.748C16.0821 130.759 16.1074 130.776 16.1314 130.8C16.1554 130.821 16.1821 130.851 16.2114 130.888L19.2434 134.76C19.2354 134.667 19.2288 134.575 19.2234 134.484C19.2181 134.393 19.2154 134.309 19.2154 134.232V130.716H20.1634ZM26.4675 133.608C26.4675 134.032 26.3968 134.421 26.2555 134.776C26.1142 135.131 25.9155 135.436 25.6595 135.692C25.4035 135.948 25.0955 136.147 24.7355 136.288C24.3755 136.429 23.9755 136.5 23.5355 136.5H21.3315V130.716H23.5355C23.9755 130.716 24.3755 130.788 24.7355 130.932C25.0955 131.073 25.4035 131.272 25.6595 131.528C25.9155 131.781 26.1142 132.085 26.2555 132.44C26.3968 132.795 26.4675 133.184 26.4675 133.608ZM25.3635 133.608C25.3635 133.291 25.3208 133.007 25.2355 132.756C25.1528 132.503 25.0315 132.289 24.8715 132.116C24.7142 131.94 24.5222 131.805 24.2955 131.712C24.0715 131.619 23.8182 131.572 23.5355 131.572H22.4115V135.644H23.5355C23.8182 135.644 24.0715 135.597 24.2955 135.504C24.5222 135.411 24.7142 135.277 24.8715 135.104C25.0315 134.928 25.1528 134.715 25.2355 134.464C25.3208 134.211 25.3635 133.925 25.3635 133.608ZM32.8134 133.608C32.8134 134.032 32.7428 134.425 32.6014 134.788C32.4628 135.148 32.2654 135.46 32.0094 135.724C31.7534 135.988 31.4454 136.195 31.0854 136.344C30.7254 136.491 30.3254 136.564 29.8854 136.564C29.4481 136.564 29.0494 136.491 28.6894 136.344C28.3294 136.195 28.0201 135.988 27.7614 135.724C27.5054 135.46 27.3068 135.148 27.1654 134.788C27.0241 134.425 26.9534 134.032 26.9534 133.608C26.9534 133.184 27.0241 132.792 27.1654 132.432C27.3068 132.069 27.5054 131.756 27.7614 131.492C28.0201 131.228 28.3294 131.023 28.6894 130.876C29.0494 130.727 29.4481 130.652 29.8854 130.652C30.1788 130.652 30.4548 130.687 30.7134 130.756C30.9721 130.823 31.2094 130.919 31.4254 131.044C31.6414 131.167 31.8348 131.317 32.0054 131.496C32.1788 131.672 32.3254 131.869 32.4454 132.088C32.5654 132.307 32.6561 132.544 32.7174 132.8C32.7814 133.056 32.8134 133.325 32.8134 133.608ZM31.7134 133.608C31.7134 133.291 31.6708 133.007 31.5854 132.756C31.5001 132.503 31.3788 132.288 31.2214 132.112C31.0641 131.936 30.8721 131.801 30.6454 131.708C30.4214 131.615 30.1681 131.568 29.8854 131.568C29.6028 131.568 29.3481 131.615 29.1214 131.708C28.8974 131.801 28.7054 131.936 28.5454 132.112C28.3881 132.288 28.2668 132.503 28.1814 132.756C28.0961 133.007 28.0534 133.291 28.0534 133.608C28.0534 133.925 28.0961 134.211 28.1814 134.464C28.2668 134.715 28.3881 134.928 28.5454 135.104C28.7054 135.277 28.8974 135.411 29.1214 135.504C29.3481 135.597 29.6028 135.644 29.8854 135.644C30.1681 135.644 30.4214 135.597 30.6454 135.504C30.8721 135.411 31.0641 135.277 31.2214 135.104C31.3788 134.928 31.5001 134.715 31.5854 134.464C31.6708 134.211 31.7134 133.925 31.7134 133.608ZM41.2172 130.716L39.4212 136.5H38.4492L37.1852 132.548C37.1505 132.452 37.1185 132.335 37.0892 132.196C37.0732 132.263 37.0572 132.325 37.0412 132.384C37.0252 132.443 37.0079 132.497 36.9892 132.548L35.7132 136.5H34.7372L32.9452 130.716H33.8452C33.9385 130.716 34.0159 130.739 34.0772 130.784C34.1412 130.827 34.1839 130.885 34.2052 130.96L35.1892 134.42C35.2105 134.505 35.2305 134.599 35.2492 134.7C35.2705 134.799 35.2919 134.903 35.3132 135.012C35.3345 134.9 35.3572 134.795 35.3812 134.696C35.4079 134.597 35.4359 134.505 35.4652 134.42L36.6012 130.96C36.6225 130.899 36.6639 130.843 36.7252 130.792C36.7892 130.741 36.8665 130.716 36.9572 130.716H37.2732C37.3665 130.716 37.4425 130.739 37.5012 130.784C37.5599 130.829 37.6039 130.888 37.6332 130.96L38.7652 134.42C38.8212 134.585 38.8719 134.776 38.9172 134.992C38.9519 134.781 38.9905 134.591 39.0332 134.42L40.0172 130.96C40.0332 130.893 40.0732 130.836 40.1372 130.788C40.2039 130.74 40.2825 130.716 40.3732 130.716H41.2172Z" fill="#FF9000"/>
<path d="M45.5 135.5L43 132.5L48 132.5L45.5 135.5Z" fill="#FF9000"/>
</svg>
