<svg width="96" height="126" viewBox="0 0 96 126" fill="none" xmlns="http://www.w3.org/2000/svg">
<rect width="12" height="11" transform="translate(4 2)" fill="#FF9300"/>
<path d="M7.11556 7.5255H8.92856V8.2465H7.11556V7.5255ZM9.60089 6.3495C9.63589 6.10683 9.70356 5.8945 9.80389 5.7125C9.90422 5.52817 10.0291 5.37533 10.1784 5.254C10.3301 5.13033 10.5027 5.03817 10.6964 4.9775C10.8924 4.9145 11.1024 4.883 11.3264 4.883C11.5597 4.883 11.7697 4.91683 11.9564 4.9845C12.1454 5.04983 12.3064 5.142 12.4394 5.261C12.5724 5.37767 12.6739 5.51533 12.7439 5.674C12.8162 5.83267 12.8524 6.00417 12.8524 6.1885C12.8524 6.3495 12.8337 6.49183 12.7964 6.6155C12.7614 6.73683 12.7101 6.843 12.6424 6.934C12.5747 7.025 12.4907 7.102 12.3904 7.165C12.2901 7.228 12.1769 7.2805 12.0509 7.3225C12.3542 7.41817 12.5806 7.564 12.7299 7.76C12.8792 7.956 12.9539 8.20217 12.9539 8.4985C12.9539 8.7505 12.9072 8.97333 12.8139 9.167C12.7206 9.36067 12.5946 9.524 12.4359 9.657C12.2772 9.78767 12.0929 9.88683 11.8829 9.9545C11.6752 10.0222 11.4547 10.056 11.2214 10.056C10.9671 10.056 10.7454 10.0268 10.5564 9.9685C10.3674 9.91017 10.2029 9.82383 10.0629 9.7095C9.92289 9.59517 9.80389 9.45517 9.70589 9.2895C9.60789 9.12383 9.52389 8.9325 9.45389 8.7155L9.83539 8.558C9.93572 8.516 10.0291 8.5055 10.1154 8.5265C10.2041 8.54517 10.2682 8.59183 10.3079 8.6665C10.3499 8.74817 10.3954 8.82867 10.4444 8.908C10.4957 8.98733 10.5564 9.0585 10.6264 9.1215C10.6964 9.18217 10.7781 9.23233 10.8714 9.272C10.9671 9.30933 11.0802 9.328 11.2109 9.328C11.3579 9.328 11.4862 9.30467 11.5959 9.258C11.7056 9.209 11.7966 9.146 11.8689 9.069C11.9436 8.992 11.9984 8.90683 12.0334 8.8135C12.0707 8.71783 12.0894 8.62217 12.0894 8.5265C12.0894 8.40517 12.0766 8.2955 12.0509 8.1975C12.0252 8.09717 11.9716 8.012 11.8899 7.942C11.8082 7.872 11.6904 7.81717 11.5364 7.7775C11.3847 7.73783 11.1806 7.718 10.9239 7.718V7.102C11.1362 7.09967 11.3124 7.07983 11.4524 7.0425C11.5924 7.00517 11.7032 6.95383 11.7849 6.8885C11.8689 6.82083 11.9272 6.74033 11.9599 6.647C11.9926 6.55367 12.0089 6.451 12.0089 6.339C12.0089 6.101 11.9424 5.92017 11.8094 5.7965C11.6764 5.67283 11.4991 5.611 11.2774 5.611C11.1747 5.611 11.0802 5.62617 10.9939 5.6565C10.9076 5.6845 10.8294 5.72533 10.7594 5.779C10.6917 5.83033 10.6346 5.891 10.5879 5.961C10.5412 6.031 10.5062 6.108 10.4829 6.192C10.4432 6.29933 10.3907 6.3705 10.3254 6.4055C10.2624 6.4405 10.1726 6.44867 10.0559 6.43L9.60089 6.3495Z" fill="#2F1C04"/>
<rect width="12" height="11" transform="translate(17 2)" fill="#2F1C04"/>
<path d="M20.1156 7.5255H21.9286V8.2465H20.1156V7.5255ZM25.6564 9.195C25.7497 9.195 25.8232 9.22183 25.8769 9.2755C25.9329 9.32683 25.9609 9.39567 25.9609 9.482V10H22.4889V9.713C22.4889 9.65467 22.5006 9.594 22.5239 9.531C22.5496 9.46567 22.5892 9.40733 22.6429 9.356L24.1794 7.816C24.3077 7.68533 24.4221 7.5605 24.5224 7.4415C24.6251 7.3225 24.7102 7.20467 24.7779 7.088C24.8456 6.97133 24.8969 6.8535 24.9319 6.7345C24.9692 6.61317 24.9879 6.486 24.9879 6.353C24.9879 6.23167 24.9704 6.1255 24.9354 6.0345C24.9004 5.94117 24.8502 5.863 24.7849 5.8C24.7219 5.737 24.6449 5.69033 24.5539 5.66C24.4652 5.62733 24.3649 5.611 24.2529 5.611C24.1502 5.611 24.0546 5.62617 23.9659 5.6565C23.8796 5.6845 23.8026 5.72533 23.7349 5.779C23.6672 5.83033 23.6101 5.891 23.5634 5.961C23.5167 6.031 23.4817 6.108 23.4584 6.192C23.4187 6.29933 23.3674 6.3705 23.3044 6.4055C23.2414 6.4405 23.1504 6.44867 23.0314 6.43L22.5764 6.3495C22.6114 6.10683 22.6791 5.8945 22.7794 5.7125C22.8797 5.52817 23.0046 5.37533 23.1539 5.254C23.3056 5.13033 23.4782 5.03817 23.6719 4.9775C23.8679 4.9145 24.0779 4.883 24.3019 4.883C24.5352 4.883 24.7487 4.918 24.9424 4.988C25.1361 5.05567 25.3017 5.1525 25.4394 5.2785C25.5771 5.4045 25.6844 5.55617 25.7614 5.7335C25.8384 5.91083 25.8769 6.108 25.8769 6.325C25.8769 6.51167 25.8489 6.68433 25.7929 6.843C25.7392 7.00167 25.6657 7.15333 25.5724 7.298C25.4814 7.44267 25.3741 7.58267 25.2504 7.718C25.1267 7.85333 24.9972 7.991 24.8619 8.131L23.7209 9.2965C23.8306 9.26383 23.9391 9.23933 24.0464 9.223C24.1561 9.20433 24.2599 9.195 24.3579 9.195H25.6564Z" fill="#FF9300"/>
<rect width="12" height="11" transform="translate(30 2)" fill="#2F1C04"/>
<path d="M33.1156 7.5255H34.9286V8.2465H33.1156V7.5255ZM38.8454 9.3525V10H36.0454V9.3525H37.0709V6.402C37.0709 6.28533 37.0744 6.16517 37.0814 6.0415L36.3534 6.6505C36.3114 6.68317 36.2694 6.70417 36.2274 6.7135C36.1877 6.7205 36.1492 6.7205 36.1119 6.7135C36.0769 6.7065 36.0454 6.69483 36.0174 6.6785C35.9894 6.65983 35.9684 6.64 35.9544 6.619L35.6814 6.2445L37.2249 4.932H37.9354V9.3525H38.8454Z" fill="#FF9300"/>
<rect width="12" height="11" transform="translate(43 2)" fill="#2F1C04"/>
<path d="M50.8547 7.4695C50.8547 7.9105 50.8069 8.29433 50.7112 8.621C50.6179 8.94533 50.4872 9.21367 50.3192 9.426C50.1536 9.63833 49.9564 9.797 49.7277 9.902C49.5014 10.0047 49.2564 10.056 48.9927 10.056C48.7291 10.056 48.4841 10.0047 48.2577 9.902C48.0337 9.797 47.8389 9.63833 47.6732 9.426C47.5076 9.21367 47.3781 8.94533 47.2847 8.621C47.1914 8.29433 47.1447 7.9105 47.1447 7.4695C47.1447 7.02617 47.1914 6.64233 47.2847 6.318C47.3781 5.99367 47.5076 5.72533 47.6732 5.513C47.8389 5.30067 48.0337 5.14317 48.2577 5.0405C48.4841 4.9355 48.7291 4.883 48.9927 4.883C49.2564 4.883 49.5014 4.9355 49.7277 5.0405C49.9564 5.14317 50.1536 5.30067 50.3192 5.513C50.4872 5.72533 50.6179 5.99367 50.7112 6.318C50.8069 6.64233 50.8547 7.02617 50.8547 7.4695ZM49.9622 7.4695C49.9622 7.10317 49.9354 6.79983 49.8817 6.5595C49.8281 6.31917 49.7557 6.12783 49.6647 5.9855C49.5761 5.84317 49.4734 5.744 49.3567 5.688C49.2401 5.62967 49.1187 5.6005 48.9927 5.6005C48.8691 5.6005 48.7489 5.62967 48.6322 5.688C48.5179 5.744 48.4164 5.84317 48.3277 5.9855C48.2391 6.12783 48.1679 6.31917 48.1142 6.5595C48.0629 6.79983 48.0372 7.10317 48.0372 7.4695C48.0372 7.83583 48.0629 8.13917 48.1142 8.3795C48.1679 8.61983 48.2391 8.81117 48.3277 8.9535C48.4164 9.09583 48.5179 9.19617 48.6322 9.2545C48.7489 9.3105 48.8691 9.3385 48.9927 9.3385C49.1187 9.3385 49.2401 9.3105 49.3567 9.2545C49.4734 9.19617 49.5761 9.09583 49.6647 8.9535C49.7557 8.81117 49.8281 8.61983 49.8817 8.3795C49.9354 8.13917 49.9622 7.83583 49.9622 7.4695Z" fill="#FF9300"/>
<rect width="12" height="11" transform="translate(56 2)" fill="#2F1C04"/>
<path d="M63.5922 9.3525V10H60.7922V9.3525H61.8177V6.402C61.8177 6.28533 61.8212 6.16517 61.8282 6.0415L61.1002 6.6505C61.0582 6.68317 61.0162 6.70417 60.9742 6.7135C60.9346 6.7205 60.8961 6.7205 60.8587 6.7135C60.8237 6.7065 60.7922 6.69483 60.7642 6.6785C60.7362 6.65983 60.7152 6.64 60.7012 6.619L60.4282 6.2445L61.9717 4.932H62.6822V9.3525H63.5922Z" fill="#FF9300"/>
<rect width="12" height="11" transform="translate(69 2)" fill="#2F1C04"/>
<path d="M76.4032 9.195C76.4966 9.195 76.5701 9.22183 76.6237 9.2755C76.6797 9.32683 76.7077 9.39567 76.7077 9.482V10H73.2357V9.713C73.2357 9.65467 73.2474 9.594 73.2707 9.531C73.2964 9.46567 73.3361 9.40733 73.3897 9.356L74.9262 7.816C75.0546 7.68533 75.1689 7.5605 75.2692 7.4415C75.3719 7.3225 75.4571 7.20467 75.5247 7.088C75.5924 6.97133 75.6437 6.8535 75.6787 6.7345C75.7161 6.61317 75.7347 6.486 75.7347 6.353C75.7347 6.23167 75.7172 6.1255 75.6822 6.0345C75.6472 5.94117 75.5971 5.863 75.5317 5.8C75.4687 5.737 75.3917 5.69033 75.3007 5.66C75.2121 5.62733 75.1117 5.611 74.9997 5.611C74.8971 5.611 74.8014 5.62617 74.7127 5.6565C74.6264 5.6845 74.5494 5.72533 74.4817 5.779C74.4141 5.83033 74.3569 5.891 74.3102 5.961C74.2636 6.031 74.2286 6.108 74.2052 6.192C74.1656 6.29933 74.1142 6.3705 74.0512 6.4055C73.9882 6.4405 73.8972 6.44867 73.7782 6.43L73.3232 6.3495C73.3582 6.10683 73.4259 5.8945 73.5262 5.7125C73.6266 5.52817 73.7514 5.37533 73.9007 5.254C74.0524 5.13033 74.2251 5.03817 74.4187 4.9775C74.6147 4.9145 74.8247 4.883 75.0487 4.883C75.2821 4.883 75.4956 4.918 75.6892 4.988C75.8829 5.05567 76.0486 5.1525 76.1862 5.2785C76.3239 5.4045 76.4312 5.55617 76.5082 5.7335C76.5852 5.91083 76.6237 6.108 76.6237 6.325C76.6237 6.51167 76.5957 6.68433 76.5397 6.843C76.4861 7.00167 76.4126 7.15333 76.3192 7.298C76.2282 7.44267 76.1209 7.58267 75.9972 7.718C75.8736 7.85333 75.7441 7.991 75.6087 8.131L74.4677 9.2965C74.5774 9.26383 74.6859 9.23933 74.7932 9.223C74.9029 9.20433 75.0067 9.195 75.1047 9.195H76.4032Z" fill="#FF9300"/>
<rect width="12" height="11" transform="translate(82 2)" fill="#2F1C04"/>
<path d="M86.3477 6.3495C86.3827 6.10683 86.4504 5.8945 86.5507 5.7125C86.6511 5.52817 86.7759 5.37533 86.9252 5.254C87.0769 5.13033 87.2496 5.03817 87.4432 4.9775C87.6392 4.9145 87.8492 4.883 88.0732 4.883C88.3066 4.883 88.5166 4.91683 88.7032 4.9845C88.8922 5.04983 89.0532 5.142 89.1862 5.261C89.3192 5.37767 89.4207 5.51533 89.4907 5.674C89.5631 5.83267 89.5992 6.00417 89.5992 6.1885C89.5992 6.3495 89.5806 6.49183 89.5432 6.6155C89.5082 6.73683 89.4569 6.843 89.3892 6.934C89.3216 7.025 89.2376 7.102 89.1372 7.165C89.0369 7.228 88.9237 7.2805 88.7977 7.3225C89.1011 7.41817 89.3274 7.564 89.4767 7.76C89.6261 7.956 89.7007 8.20217 89.7007 8.4985C89.7007 8.7505 89.6541 8.97333 89.5607 9.167C89.4674 9.36067 89.3414 9.524 89.1827 9.657C89.0241 9.78767 88.8397 9.88683 88.6297 9.9545C88.4221 10.0222 88.2016 10.056 87.9682 10.056C87.7139 10.056 87.4922 10.0268 87.3032 9.9685C87.1142 9.91017 86.9497 9.82383 86.8097 9.7095C86.6697 9.59517 86.5507 9.45517 86.4527 9.2895C86.3547 9.12383 86.2707 8.9325 86.2007 8.7155L86.5822 8.558C86.6826 8.516 86.7759 8.5055 86.8622 8.5265C86.9509 8.54517 87.0151 8.59183 87.0547 8.6665C87.0967 8.74817 87.1422 8.82867 87.1912 8.908C87.2426 8.98733 87.3032 9.0585 87.3732 9.1215C87.4432 9.18217 87.5249 9.23233 87.6182 9.272C87.7139 9.30933 87.8271 9.328 87.9577 9.328C88.1047 9.328 88.2331 9.30467 88.3427 9.258C88.4524 9.209 88.5434 9.146 88.6157 9.069C88.6904 8.992 88.7452 8.90683 88.7802 8.8135C88.8176 8.71783 88.8362 8.62217 88.8362 8.5265C88.8362 8.40517 88.8234 8.2955 88.7977 8.1975C88.7721 8.09717 88.7184 8.012 88.6367 7.942C88.5551 7.872 88.4372 7.81717 88.2832 7.7775C88.1316 7.73783 87.9274 7.718 87.6707 7.718V7.102C87.8831 7.09967 88.0592 7.07983 88.1992 7.0425C88.3392 7.00517 88.4501 6.95383 88.5317 6.8885C88.6157 6.82083 88.6741 6.74033 88.7067 6.647C88.7394 6.55367 88.7557 6.451 88.7557 6.339C88.7557 6.101 88.6892 5.92017 88.5562 5.7965C88.4232 5.67283 88.2459 5.611 88.0242 5.611C87.9216 5.611 87.8271 5.62617 87.7407 5.6565C87.6544 5.6845 87.5762 5.72533 87.5062 5.779C87.4386 5.83033 87.3814 5.891 87.3347 5.961C87.2881 6.031 87.2531 6.108 87.2297 6.192C87.1901 6.29933 87.1376 6.3705 87.0722 6.4055C87.0092 6.4405 86.9194 6.44867 86.8027 6.43L86.3477 6.3495Z" fill="#FF9300"/>
<rect width="12" height="11" transform="translate(4 20)" fill="#2F1C04"/>
<path d="M7.11556 25.5255H8.92856V26.2465H7.11556V25.5255ZM9.60089 24.3495C9.63589 24.1068 9.70356 23.8945 9.80389 23.7125C9.90422 23.5282 10.0291 23.3753 10.1784 23.254C10.3301 23.1303 10.5027 23.0382 10.6964 22.9775C10.8924 22.9145 11.1024 22.883 11.3264 22.883C11.5597 22.883 11.7697 22.9168 11.9564 22.9845C12.1454 23.0498 12.3064 23.142 12.4394 23.261C12.5724 23.3777 12.6739 23.5153 12.7439 23.674C12.8162 23.8327 12.8524 24.0042 12.8524 24.1885C12.8524 24.3495 12.8337 24.4918 12.7964 24.6155C12.7614 24.7368 12.7101 24.843 12.6424 24.934C12.5747 25.025 12.4907 25.102 12.3904 25.165C12.2901 25.228 12.1769 25.2805 12.0509 25.3225C12.3542 25.4182 12.5806 25.564 12.7299 25.76C12.8792 25.956 12.9539 26.2022 12.9539 26.4985C12.9539 26.7505 12.9072 26.9733 12.8139 27.167C12.7206 27.3607 12.5946 27.524 12.4359 27.657C12.2772 27.7877 12.0929 27.8868 11.8829 27.9545C11.6752 28.0222 11.4547 28.056 11.2214 28.056C10.9671 28.056 10.7454 28.0268 10.5564 27.9685C10.3674 27.9102 10.2029 27.8238 10.0629 27.7095C9.92289 27.5952 9.80389 27.4552 9.70589 27.2895C9.60789 27.1238 9.52389 26.9325 9.45389 26.7155L9.83539 26.558C9.93572 26.516 10.0291 26.5055 10.1154 26.5265C10.2041 26.5452 10.2682 26.5918 10.3079 26.6665C10.3499 26.7482 10.3954 26.8287 10.4444 26.908C10.4957 26.9873 10.5564 27.0585 10.6264 27.1215C10.6964 27.1822 10.7781 27.2323 10.8714 27.272C10.9671 27.3093 11.0802 27.328 11.2109 27.328C11.3579 27.328 11.4862 27.3047 11.5959 27.258C11.7056 27.209 11.7966 27.146 11.8689 27.069C11.9436 26.992 11.9984 26.9068 12.0334 26.8135C12.0707 26.7178 12.0894 26.6222 12.0894 26.5265C12.0894 26.4052 12.0766 26.2955 12.0509 26.1975C12.0252 26.0972 11.9716 26.012 11.8899 25.942C11.8082 25.872 11.6904 25.8172 11.5364 25.7775C11.3847 25.7378 11.1806 25.718 10.9239 25.718V25.102C11.1362 25.0997 11.3124 25.0798 11.4524 25.0425C11.5924 25.0052 11.7032 24.9538 11.7849 24.8885C11.8689 24.8208 11.9272 24.7403 11.9599 24.647C11.9926 24.5537 12.0089 24.451 12.0089 24.339C12.0089 24.101 11.9424 23.9202 11.8094 23.7965C11.6764 23.6728 11.4991 23.611 11.2774 23.611C11.1747 23.611 11.0802 23.6262 10.9939 23.6565C10.9076 23.6845 10.8294 23.7253 10.7594 23.779C10.6917 23.8303 10.6346 23.891 10.5879 23.961C10.5412 24.031 10.5062 24.108 10.4829 24.192C10.4432 24.2993 10.3907 24.3705 10.3254 24.4055C10.2624 24.4405 10.1726 24.4487 10.0559 24.43L9.60089 24.3495Z" fill="#FF9300"/>
<rect width="12" height="11" transform="translate(17 20)" fill="#FF9300"/>
<path d="M20.1156 25.5255H21.9286V26.2465H20.1156V25.5255ZM25.6564 27.195C25.7497 27.195 25.8232 27.2218 25.8769 27.2755C25.9329 27.3268 25.9609 27.3957 25.9609 27.482V28H22.4889V27.713C22.4889 27.6547 22.5006 27.594 22.5239 27.531C22.5496 27.4657 22.5892 27.4073 22.6429 27.356L24.1794 25.816C24.3077 25.6853 24.4221 25.5605 24.5224 25.4415C24.6251 25.3225 24.7102 25.2047 24.7779 25.088C24.8456 24.9713 24.8969 24.8535 24.9319 24.7345C24.9692 24.6132 24.9879 24.486 24.9879 24.353C24.9879 24.2317 24.9704 24.1255 24.9354 24.0345C24.9004 23.9412 24.8502 23.863 24.7849 23.8C24.7219 23.737 24.6449 23.6903 24.5539 23.66C24.4652 23.6273 24.3649 23.611 24.2529 23.611C24.1502 23.611 24.0546 23.6262 23.9659 23.6565C23.8796 23.6845 23.8026 23.7253 23.7349 23.779C23.6672 23.8303 23.6101 23.891 23.5634 23.961C23.5167 24.031 23.4817 24.108 23.4584 24.192C23.4187 24.2993 23.3674 24.3705 23.3044 24.4055C23.2414 24.4405 23.1504 24.4487 23.0314 24.43L22.5764 24.3495C22.6114 24.1068 22.6791 23.8945 22.7794 23.7125C22.8797 23.5282 23.0046 23.3753 23.1539 23.254C23.3056 23.1303 23.4782 23.0382 23.6719 22.9775C23.8679 22.9145 24.0779 22.883 24.3019 22.883C24.5352 22.883 24.7487 22.918 24.9424 22.988C25.1361 23.0557 25.3017 23.1525 25.4394 23.2785C25.5771 23.4045 25.6844 23.5562 25.7614 23.7335C25.8384 23.9108 25.8769 24.108 25.8769 24.325C25.8769 24.5117 25.8489 24.6843 25.7929 24.843C25.7392 25.0017 25.6657 25.1533 25.5724 25.298C25.4814 25.4427 25.3741 25.5827 25.2504 25.718C25.1267 25.8533 24.9972 25.991 24.8619 26.131L23.7209 27.2965C23.8306 27.2638 23.9391 27.2393 24.0464 27.223C24.1561 27.2043 24.2599 27.195 24.3579 27.195H25.6564Z" fill="#2F1C04"/>
<rect width="12" height="11" transform="translate(30 20)" fill="#2F1C04"/>
<path d="M33.1156 25.5255H34.9286V26.2465H33.1156V25.5255ZM38.8454 27.3525V28H36.0454V27.3525H37.0709V24.402C37.0709 24.2853 37.0744 24.1652 37.0814 24.0415L36.3534 24.6505C36.3114 24.6832 36.2694 24.7042 36.2274 24.7135C36.1877 24.7205 36.1492 24.7205 36.1119 24.7135C36.0769 24.7065 36.0454 24.6948 36.0174 24.6785C35.9894 24.6598 35.9684 24.64 35.9544 24.619L35.6814 24.2445L37.2249 22.932H37.9354V27.3525H38.8454Z" fill="#FF9300"/>
<rect width="12" height="11" transform="translate(43 20)" fill="#2F1C04"/>
<path d="M50.8547 25.4695C50.8547 25.9105 50.8069 26.2943 50.7112 26.621C50.6179 26.9453 50.4872 27.2137 50.3192 27.426C50.1536 27.6383 49.9564 27.797 49.7277 27.902C49.5014 28.0047 49.2564 28.056 48.9927 28.056C48.7291 28.056 48.4841 28.0047 48.2577 27.902C48.0337 27.797 47.8389 27.6383 47.6732 27.426C47.5076 27.2137 47.3781 26.9453 47.2847 26.621C47.1914 26.2943 47.1447 25.9105 47.1447 25.4695C47.1447 25.0262 47.1914 24.6423 47.2847 24.318C47.3781 23.9937 47.5076 23.7253 47.6732 23.513C47.8389 23.3007 48.0337 23.1432 48.2577 23.0405C48.4841 22.9355 48.7291 22.883 48.9927 22.883C49.2564 22.883 49.5014 22.9355 49.7277 23.0405C49.9564 23.1432 50.1536 23.3007 50.3192 23.513C50.4872 23.7253 50.6179 23.9937 50.7112 24.318C50.8069 24.6423 50.8547 25.0262 50.8547 25.4695ZM49.9622 25.4695C49.9622 25.1032 49.9354 24.7998 49.8817 24.5595C49.8281 24.3192 49.7557 24.1278 49.6647 23.9855C49.5761 23.8432 49.4734 23.744 49.3567 23.688C49.2401 23.6297 49.1187 23.6005 48.9927 23.6005C48.8691 23.6005 48.7489 23.6297 48.6322 23.688C48.5179 23.744 48.4164 23.8432 48.3277 23.9855C48.2391 24.1278 48.1679 24.3192 48.1142 24.5595C48.0629 24.7998 48.0372 25.1032 48.0372 25.4695C48.0372 25.8358 48.0629 26.1392 48.1142 26.3795C48.1679 26.6198 48.2391 26.8112 48.3277 26.9535C48.4164 27.0958 48.5179 27.1962 48.6322 27.2545C48.7489 27.3105 48.8691 27.3385 48.9927 27.3385C49.1187 27.3385 49.2401 27.3105 49.3567 27.2545C49.4734 27.1962 49.5761 27.0958 49.6647 26.9535C49.7557 26.8112 49.8281 26.6198 49.8817 26.3795C49.9354 26.1392 49.9622 25.8358 49.9622 25.4695Z" fill="#FF9300"/>
<rect width="12" height="11" transform="translate(56 20)" fill="#2F1C04"/>
<path d="M63.5922 27.3525V28H60.7922V27.3525H61.8177V24.402C61.8177 24.2853 61.8212 24.1652 61.8282 24.0415L61.1002 24.6505C61.0582 24.6832 61.0162 24.7042 60.9742 24.7135C60.9346 24.7205 60.8961 24.7205 60.8587 24.7135C60.8237 24.7065 60.7922 24.6948 60.7642 24.6785C60.7362 24.6598 60.7152 24.64 60.7012 24.619L60.4282 24.2445L61.9717 22.932H62.6822V27.3525H63.5922Z" fill="#FF9300"/>
<rect width="12" height="11" transform="translate(69 20)" fill="#2F1C04"/>
<path d="M76.4032 27.195C76.4966 27.195 76.5701 27.2218 76.6237 27.2755C76.6797 27.3268 76.7077 27.3957 76.7077 27.482V28H73.2357V27.713C73.2357 27.6547 73.2474 27.594 73.2707 27.531C73.2964 27.4657 73.3361 27.4073 73.3897 27.356L74.9262 25.816C75.0546 25.6853 75.1689 25.5605 75.2692 25.4415C75.3719 25.3225 75.4571 25.2047 75.5247 25.088C75.5924 24.9713 75.6437 24.8535 75.6787 24.7345C75.7161 24.6132 75.7347 24.486 75.7347 24.353C75.7347 24.2317 75.7172 24.1255 75.6822 24.0345C75.6472 23.9412 75.5971 23.863 75.5317 23.8C75.4687 23.737 75.3917 23.6903 75.3007 23.66C75.2121 23.6273 75.1117 23.611 74.9997 23.611C74.8971 23.611 74.8014 23.6262 74.7127 23.6565C74.6264 23.6845 74.5494 23.7253 74.4817 23.779C74.4141 23.8303 74.3569 23.891 74.3102 23.961C74.2636 24.031 74.2286 24.108 74.2052 24.192C74.1656 24.2993 74.1142 24.3705 74.0512 24.4055C73.9882 24.4405 73.8972 24.4487 73.7782 24.43L73.3232 24.3495C73.3582 24.1068 73.4259 23.8945 73.5262 23.7125C73.6266 23.5282 73.7514 23.3753 73.9007 23.254C74.0524 23.1303 74.2251 23.0382 74.4187 22.9775C74.6147 22.9145 74.8247 22.883 75.0487 22.883C75.2821 22.883 75.4956 22.918 75.6892 22.988C75.8829 23.0557 76.0486 23.1525 76.1862 23.2785C76.3239 23.4045 76.4312 23.5562 76.5082 23.7335C76.5852 23.9108 76.6237 24.108 76.6237 24.325C76.6237 24.5117 76.5957 24.6843 76.5397 24.843C76.4861 25.0017 76.4126 25.1533 76.3192 25.298C76.2282 25.4427 76.1209 25.5827 75.9972 25.718C75.8736 25.8533 75.7441 25.991 75.6087 26.131L74.4677 27.2965C74.5774 27.2638 74.6859 27.2393 74.7932 27.223C74.9029 27.2043 75.0067 27.195 75.1047 27.195H76.4032Z" fill="#FF9300"/>
<rect width="12" height="11" transform="translate(82 20)" fill="#2F1C04"/>
<path d="M86.3477 24.3495C86.3827 24.1068 86.4504 23.8945 86.5507 23.7125C86.6511 23.5282 86.7759 23.3753 86.9252 23.254C87.0769 23.1303 87.2496 23.0382 87.4432 22.9775C87.6392 22.9145 87.8492 22.883 88.0732 22.883C88.3066 22.883 88.5166 22.9168 88.7032 22.9845C88.8922 23.0498 89.0532 23.142 89.1862 23.261C89.3192 23.3777 89.4207 23.5153 89.4907 23.674C89.5631 23.8327 89.5992 24.0042 89.5992 24.1885C89.5992 24.3495 89.5806 24.4918 89.5432 24.6155C89.5082 24.7368 89.4569 24.843 89.3892 24.934C89.3216 25.025 89.2376 25.102 89.1372 25.165C89.0369 25.228 88.9237 25.2805 88.7977 25.3225C89.1011 25.4182 89.3274 25.564 89.4767 25.76C89.6261 25.956 89.7007 26.2022 89.7007 26.4985C89.7007 26.7505 89.6541 26.9733 89.5607 27.167C89.4674 27.3607 89.3414 27.524 89.1827 27.657C89.0241 27.7877 88.8397 27.8868 88.6297 27.9545C88.4221 28.0222 88.2016 28.056 87.9682 28.056C87.7139 28.056 87.4922 28.0268 87.3032 27.9685C87.1142 27.9102 86.9497 27.8238 86.8097 27.7095C86.6697 27.5952 86.5507 27.4552 86.4527 27.2895C86.3547 27.1238 86.2707 26.9325 86.2007 26.7155L86.5822 26.558C86.6826 26.516 86.7759 26.5055 86.8622 26.5265C86.9509 26.5452 87.0151 26.5918 87.0547 26.6665C87.0967 26.7482 87.1422 26.8287 87.1912 26.908C87.2426 26.9873 87.3032 27.0585 87.3732 27.1215C87.4432 27.1822 87.5249 27.2323 87.6182 27.272C87.7139 27.3093 87.8271 27.328 87.9577 27.328C88.1047 27.328 88.2331 27.3047 88.3427 27.258C88.4524 27.209 88.5434 27.146 88.6157 27.069C88.6904 26.992 88.7452 26.9068 88.7802 26.8135C88.8176 26.7178 88.8362 26.6222 88.8362 26.5265C88.8362 26.4052 88.8234 26.2955 88.7977 26.1975C88.7721 26.0972 88.7184 26.012 88.6367 25.942C88.5551 25.872 88.4372 25.8172 88.2832 25.7775C88.1316 25.7378 87.9274 25.718 87.6707 25.718V25.102C87.8831 25.0997 88.0592 25.0798 88.1992 25.0425C88.3392 25.0052 88.4501 24.9538 88.5317 24.8885C88.6157 24.8208 88.6741 24.7403 88.7067 24.647C88.7394 24.5537 88.7557 24.451 88.7557 24.339C88.7557 24.101 88.6892 23.9202 88.5562 23.7965C88.4232 23.6728 88.2459 23.611 88.0242 23.611C87.9216 23.611 87.8271 23.6262 87.7407 23.6565C87.6544 23.6845 87.5762 23.7253 87.5062 23.779C87.4386 23.8303 87.3814 23.891 87.3347 23.961C87.2881 24.031 87.2531 24.108 87.2297 24.192C87.1901 24.2993 87.1376 24.3705 87.0722 24.4055C87.0092 24.4405 86.9194 24.4487 86.8027 24.43L86.3477 24.3495Z" fill="#FF9300"/>
<rect width="12" height="11" transform="translate(4 38)" fill="#2F1C04"/>
<path d="M7.11556 43.5255H8.92856V44.2465H7.11556V43.5255ZM9.60089 42.3495C9.63589 42.1068 9.70356 41.8945 9.80389 41.7125C9.90422 41.5282 10.0291 41.3753 10.1784 41.254C10.3301 41.1303 10.5027 41.0382 10.6964 40.9775C10.8924 40.9145 11.1024 40.883 11.3264 40.883C11.5597 40.883 11.7697 40.9168 11.9564 40.9845C12.1454 41.0498 12.3064 41.142 12.4394 41.261C12.5724 41.3777 12.6739 41.5153 12.7439 41.674C12.8162 41.8327 12.8524 42.0042 12.8524 42.1885C12.8524 42.3495 12.8337 42.4918 12.7964 42.6155C12.7614 42.7368 12.7101 42.843 12.6424 42.934C12.5747 43.025 12.4907 43.102 12.3904 43.165C12.2901 43.228 12.1769 43.2805 12.0509 43.3225C12.3542 43.4182 12.5806 43.564 12.7299 43.76C12.8792 43.956 12.9539 44.2022 12.9539 44.4985C12.9539 44.7505 12.9072 44.9733 12.8139 45.167C12.7206 45.3607 12.5946 45.524 12.4359 45.657C12.2772 45.7877 12.0929 45.8868 11.8829 45.9545C11.6752 46.0222 11.4547 46.056 11.2214 46.056C10.9671 46.056 10.7454 46.0268 10.5564 45.9685C10.3674 45.9102 10.2029 45.8238 10.0629 45.7095C9.92289 45.5952 9.80389 45.4552 9.70589 45.2895C9.60789 45.1238 9.52389 44.9325 9.45389 44.7155L9.83539 44.558C9.93572 44.516 10.0291 44.5055 10.1154 44.5265C10.2041 44.5452 10.2682 44.5918 10.3079 44.6665C10.3499 44.7482 10.3954 44.8287 10.4444 44.908C10.4957 44.9873 10.5564 45.0585 10.6264 45.1215C10.6964 45.1822 10.7781 45.2323 10.8714 45.272C10.9671 45.3093 11.0802 45.328 11.2109 45.328C11.3579 45.328 11.4862 45.3047 11.5959 45.258C11.7056 45.209 11.7966 45.146 11.8689 45.069C11.9436 44.992 11.9984 44.9068 12.0334 44.8135C12.0707 44.7178 12.0894 44.6222 12.0894 44.5265C12.0894 44.4052 12.0766 44.2955 12.0509 44.1975C12.0252 44.0972 11.9716 44.012 11.8899 43.942C11.8082 43.872 11.6904 43.8172 11.5364 43.7775C11.3847 43.7378 11.1806 43.718 10.9239 43.718V43.102C11.1362 43.0997 11.3124 43.0798 11.4524 43.0425C11.5924 43.0052 11.7032 42.9538 11.7849 42.8885C11.8689 42.8208 11.9272 42.7403 11.9599 42.647C11.9926 42.5537 12.0089 42.451 12.0089 42.339C12.0089 42.101 11.9424 41.9202 11.8094 41.7965C11.6764 41.6728 11.4991 41.611 11.2774 41.611C11.1747 41.611 11.0802 41.6262 10.9939 41.6565C10.9076 41.6845 10.8294 41.7253 10.7594 41.779C10.6917 41.8303 10.6346 41.891 10.5879 41.961C10.5412 42.031 10.5062 42.108 10.4829 42.192C10.4432 42.2993 10.3907 42.3705 10.3254 42.4055C10.2624 42.4405 10.1726 42.4487 10.0559 42.43L9.60089 42.3495Z" fill="#FF9300"/>
<rect width="12" height="11" transform="translate(17 38)" fill="#2F1C04"/>
<path d="M20.1156 43.5255H21.9286V44.2465H20.1156V43.5255ZM25.6564 45.195C25.7497 45.195 25.8232 45.2218 25.8769 45.2755C25.9329 45.3268 25.9609 45.3957 25.9609 45.482V46H22.4889V45.713C22.4889 45.6547 22.5006 45.594 22.5239 45.531C22.5496 45.4657 22.5892 45.4073 22.6429 45.356L24.1794 43.816C24.3077 43.6853 24.4221 43.5605 24.5224 43.4415C24.6251 43.3225 24.7102 43.2047 24.7779 43.088C24.8456 42.9713 24.8969 42.8535 24.9319 42.7345C24.9692 42.6132 24.9879 42.486 24.9879 42.353C24.9879 42.2317 24.9704 42.1255 24.9354 42.0345C24.9004 41.9412 24.8502 41.863 24.7849 41.8C24.7219 41.737 24.6449 41.6903 24.5539 41.66C24.4652 41.6273 24.3649 41.611 24.2529 41.611C24.1502 41.611 24.0546 41.6262 23.9659 41.6565C23.8796 41.6845 23.8026 41.7253 23.7349 41.779C23.6672 41.8303 23.6101 41.891 23.5634 41.961C23.5167 42.031 23.4817 42.108 23.4584 42.192C23.4187 42.2993 23.3674 42.3705 23.3044 42.4055C23.2414 42.4405 23.1504 42.4487 23.0314 42.43L22.5764 42.3495C22.6114 42.1068 22.6791 41.8945 22.7794 41.7125C22.8797 41.5282 23.0046 41.3753 23.1539 41.254C23.3056 41.1303 23.4782 41.0382 23.6719 40.9775C23.8679 40.9145 24.0779 40.883 24.3019 40.883C24.5352 40.883 24.7487 40.918 24.9424 40.988C25.1361 41.0557 25.3017 41.1525 25.4394 41.2785C25.5771 41.4045 25.6844 41.5562 25.7614 41.7335C25.8384 41.9108 25.8769 42.108 25.8769 42.325C25.8769 42.5117 25.8489 42.6843 25.7929 42.843C25.7392 43.0017 25.6657 43.1533 25.5724 43.298C25.4814 43.4427 25.3741 43.5827 25.2504 43.718C25.1267 43.8533 24.9972 43.991 24.8619 44.131L23.7209 45.2965C23.8306 45.2638 23.9391 45.2393 24.0464 45.223C24.1561 45.2043 24.2599 45.195 24.3579 45.195H25.6564Z" fill="#FF9300"/>
<rect width="12" height="11" transform="translate(30 38)" fill="#FF9300"/>
<path d="M33.1156 43.5255H34.9286V44.2465H33.1156V43.5255ZM38.8454 45.3525V46H36.0454V45.3525H37.0709V42.402C37.0709 42.2853 37.0744 42.1652 37.0814 42.0415L36.3534 42.6505C36.3114 42.6832 36.2694 42.7042 36.2274 42.7135C36.1877 42.7205 36.1492 42.7205 36.1119 42.7135C36.0769 42.7065 36.0454 42.6948 36.0174 42.6785C35.9894 42.6598 35.9684 42.64 35.9544 42.619L35.6814 42.2445L37.2249 40.932H37.9354V45.3525H38.8454Z" fill="#2F1C04"/>
<rect width="12" height="11" transform="translate(43 38)" fill="#2F1C04"/>
<path d="M50.8547 43.4695C50.8547 43.9105 50.8069 44.2943 50.7112 44.621C50.6179 44.9453 50.4872 45.2137 50.3192 45.426C50.1536 45.6383 49.9564 45.797 49.7277 45.902C49.5014 46.0047 49.2564 46.056 48.9927 46.056C48.7291 46.056 48.4841 46.0047 48.2577 45.902C48.0337 45.797 47.8389 45.6383 47.6732 45.426C47.5076 45.2137 47.3781 44.9453 47.2847 44.621C47.1914 44.2943 47.1447 43.9105 47.1447 43.4695C47.1447 43.0262 47.1914 42.6423 47.2847 42.318C47.3781 41.9937 47.5076 41.7253 47.6732 41.513C47.8389 41.3007 48.0337 41.1432 48.2577 41.0405C48.4841 40.9355 48.7291 40.883 48.9927 40.883C49.2564 40.883 49.5014 40.9355 49.7277 41.0405C49.9564 41.1432 50.1536 41.3007 50.3192 41.513C50.4872 41.7253 50.6179 41.9937 50.7112 42.318C50.8069 42.6423 50.8547 43.0262 50.8547 43.4695ZM49.9622 43.4695C49.9622 43.1032 49.9354 42.7998 49.8817 42.5595C49.8281 42.3192 49.7557 42.1278 49.6647 41.9855C49.5761 41.8432 49.4734 41.744 49.3567 41.688C49.2401 41.6297 49.1187 41.6005 48.9927 41.6005C48.8691 41.6005 48.7489 41.6297 48.6322 41.688C48.5179 41.744 48.4164 41.8432 48.3277 41.9855C48.2391 42.1278 48.1679 42.3192 48.1142 42.5595C48.0629 42.7998 48.0372 43.1032 48.0372 43.4695C48.0372 43.8358 48.0629 44.1392 48.1142 44.3795C48.1679 44.6198 48.2391 44.8112 48.3277 44.9535C48.4164 45.0958 48.5179 45.1962 48.6322 45.2545C48.7489 45.3105 48.8691 45.3385 48.9927 45.3385C49.1187 45.3385 49.2401 45.3105 49.3567 45.2545C49.4734 45.1962 49.5761 45.0958 49.6647 44.9535C49.7557 44.8112 49.8281 44.6198 49.8817 44.3795C49.9354 44.1392 49.9622 43.8358 49.9622 43.4695Z" fill="#FF9300"/>
<rect width="12" height="11" transform="translate(56 38)" fill="#2F1C04"/>
<path d="M63.5922 45.3525V46H60.7922V45.3525H61.8177V42.402C61.8177 42.2853 61.8212 42.1652 61.8282 42.0415L61.1002 42.6505C61.0582 42.6832 61.0162 42.7042 60.9742 42.7135C60.9346 42.7205 60.8961 42.7205 60.8587 42.7135C60.8237 42.7065 60.7922 42.6948 60.7642 42.6785C60.7362 42.6598 60.7152 42.64 60.7012 42.619L60.4282 42.2445L61.9717 40.932H62.6822V45.3525H63.5922Z" fill="#FF9300"/>
<rect width="12" height="11" transform="translate(69 38)" fill="#2F1C04"/>
<path d="M76.4032 45.195C76.4966 45.195 76.5701 45.2218 76.6237 45.2755C76.6797 45.3268 76.7077 45.3957 76.7077 45.482V46H73.2357V45.713C73.2357 45.6547 73.2474 45.594 73.2707 45.531C73.2964 45.4657 73.3361 45.4073 73.3897 45.356L74.9262 43.816C75.0546 43.6853 75.1689 43.5605 75.2692 43.4415C75.3719 43.3225 75.4571 43.2047 75.5247 43.088C75.5924 42.9713 75.6437 42.8535 75.6787 42.7345C75.7161 42.6132 75.7347 42.486 75.7347 42.353C75.7347 42.2317 75.7172 42.1255 75.6822 42.0345C75.6472 41.9412 75.5971 41.863 75.5317 41.8C75.4687 41.737 75.3917 41.6903 75.3007 41.66C75.2121 41.6273 75.1117 41.611 74.9997 41.611C74.8971 41.611 74.8014 41.6262 74.7127 41.6565C74.6264 41.6845 74.5494 41.7253 74.4817 41.779C74.4141 41.8303 74.3569 41.891 74.3102 41.961C74.2636 42.031 74.2286 42.108 74.2052 42.192C74.1656 42.2993 74.1142 42.3705 74.0512 42.4055C73.9882 42.4405 73.8972 42.4487 73.7782 42.43L73.3232 42.3495C73.3582 42.1068 73.4259 41.8945 73.5262 41.7125C73.6266 41.5282 73.7514 41.3753 73.9007 41.254C74.0524 41.1303 74.2251 41.0382 74.4187 40.9775C74.6147 40.9145 74.8247 40.883 75.0487 40.883C75.2821 40.883 75.4956 40.918 75.6892 40.988C75.8829 41.0557 76.0486 41.1525 76.1862 41.2785C76.3239 41.4045 76.4312 41.5562 76.5082 41.7335C76.5852 41.9108 76.6237 42.108 76.6237 42.325C76.6237 42.5117 76.5957 42.6843 76.5397 42.843C76.4861 43.0017 76.4126 43.1533 76.3192 43.298C76.2282 43.4427 76.1209 43.5827 75.9972 43.718C75.8736 43.8533 75.7441 43.991 75.6087 44.131L74.4677 45.2965C74.5774 45.2638 74.6859 45.2393 74.7932 45.223C74.9029 45.2043 75.0067 45.195 75.1047 45.195H76.4032Z" fill="#FF9300"/>
<rect width="12" height="11" transform="translate(82 38)" fill="#2F1C04"/>
<path d="M86.3477 42.3495C86.3827 42.1068 86.4504 41.8945 86.5507 41.7125C86.6511 41.5282 86.7759 41.3753 86.9252 41.254C87.0769 41.1303 87.2496 41.0382 87.4432 40.9775C87.6392 40.9145 87.8492 40.883 88.0732 40.883C88.3066 40.883 88.5166 40.9168 88.7032 40.9845C88.8922 41.0498 89.0532 41.142 89.1862 41.261C89.3192 41.3777 89.4207 41.5153 89.4907 41.674C89.5631 41.8327 89.5992 42.0042 89.5992 42.1885C89.5992 42.3495 89.5806 42.4918 89.5432 42.6155C89.5082 42.7368 89.4569 42.843 89.3892 42.934C89.3216 43.025 89.2376 43.102 89.1372 43.165C89.0369 43.228 88.9237 43.2805 88.7977 43.3225C89.1011 43.4182 89.3274 43.564 89.4767 43.76C89.6261 43.956 89.7007 44.2022 89.7007 44.4985C89.7007 44.7505 89.6541 44.9733 89.5607 45.167C89.4674 45.3607 89.3414 45.524 89.1827 45.657C89.0241 45.7877 88.8397 45.8868 88.6297 45.9545C88.4221 46.0222 88.2016 46.056 87.9682 46.056C87.7139 46.056 87.4922 46.0268 87.3032 45.9685C87.1142 45.9102 86.9497 45.8238 86.8097 45.7095C86.6697 45.5952 86.5507 45.4552 86.4527 45.2895C86.3547 45.1238 86.2707 44.9325 86.2007 44.7155L86.5822 44.558C86.6826 44.516 86.7759 44.5055 86.8622 44.5265C86.9509 44.5452 87.0151 44.5918 87.0547 44.6665C87.0967 44.7482 87.1422 44.8287 87.1912 44.908C87.2426 44.9873 87.3032 45.0585 87.3732 45.1215C87.4432 45.1822 87.5249 45.2323 87.6182 45.272C87.7139 45.3093 87.8271 45.328 87.9577 45.328C88.1047 45.328 88.2331 45.3047 88.3427 45.258C88.4524 45.209 88.5434 45.146 88.6157 45.069C88.6904 44.992 88.7452 44.9068 88.7802 44.8135C88.8176 44.7178 88.8362 44.6222 88.8362 44.5265C88.8362 44.4052 88.8234 44.2955 88.7977 44.1975C88.7721 44.0972 88.7184 44.012 88.6367 43.942C88.5551 43.872 88.4372 43.8172 88.2832 43.7775C88.1316 43.7378 87.9274 43.718 87.6707 43.718V43.102C87.8831 43.0997 88.0592 43.0798 88.1992 43.0425C88.3392 43.0052 88.4501 42.9538 88.5317 42.8885C88.6157 42.8208 88.6741 42.7403 88.7067 42.647C88.7394 42.5537 88.7557 42.451 88.7557 42.339C88.7557 42.101 88.6892 41.9202 88.5562 41.7965C88.4232 41.6728 88.2459 41.611 88.0242 41.611C87.9216 41.611 87.8271 41.6262 87.7407 41.6565C87.6544 41.6845 87.5762 41.7253 87.5062 41.779C87.4386 41.8303 87.3814 41.891 87.3347 41.961C87.2881 42.031 87.2531 42.108 87.2297 42.192C87.1901 42.2993 87.1376 42.3705 87.0722 42.4055C87.0092 42.4405 86.9194 42.4487 86.8027 42.43L86.3477 42.3495Z" fill="#FF9300"/>
<rect width="12" height="11" transform="translate(4 56)" fill="#2F1C04"/>
<path d="M7.11556 61.5255H8.92856V62.2465H7.11556V61.5255ZM9.60089 60.3495C9.63589 60.1068 9.70356 59.8945 9.80389 59.7125C9.90422 59.5282 10.0291 59.3753 10.1784 59.254C10.3301 59.1303 10.5027 59.0382 10.6964 58.9775C10.8924 58.9145 11.1024 58.883 11.3264 58.883C11.5597 58.883 11.7697 58.9168 11.9564 58.9845C12.1454 59.0498 12.3064 59.142 12.4394 59.261C12.5724 59.3777 12.6739 59.5153 12.7439 59.674C12.8162 59.8327 12.8524 60.0042 12.8524 60.1885C12.8524 60.3495 12.8337 60.4918 12.7964 60.6155C12.7614 60.7368 12.7101 60.843 12.6424 60.934C12.5747 61.025 12.4907 61.102 12.3904 61.165C12.2901 61.228 12.1769 61.2805 12.0509 61.3225C12.3542 61.4182 12.5806 61.564 12.7299 61.76C12.8792 61.956 12.9539 62.2022 12.9539 62.4985C12.9539 62.7505 12.9072 62.9733 12.8139 63.167C12.7206 63.3607 12.5946 63.524 12.4359 63.657C12.2772 63.7877 12.0929 63.8868 11.8829 63.9545C11.6752 64.0222 11.4547 64.056 11.2214 64.056C10.9671 64.056 10.7454 64.0268 10.5564 63.9685C10.3674 63.9102 10.2029 63.8238 10.0629 63.7095C9.92289 63.5952 9.80389 63.4552 9.70589 63.2895C9.60789 63.1238 9.52389 62.9325 9.45389 62.7155L9.83539 62.558C9.93572 62.516 10.0291 62.5055 10.1154 62.5265C10.2041 62.5452 10.2682 62.5918 10.3079 62.6665C10.3499 62.7482 10.3954 62.8287 10.4444 62.908C10.4957 62.9873 10.5564 63.0585 10.6264 63.1215C10.6964 63.1822 10.7781 63.2323 10.8714 63.272C10.9671 63.3093 11.0802 63.328 11.2109 63.328C11.3579 63.328 11.4862 63.3047 11.5959 63.258C11.7056 63.209 11.7966 63.146 11.8689 63.069C11.9436 62.992 11.9984 62.9068 12.0334 62.8135C12.0707 62.7178 12.0894 62.6222 12.0894 62.5265C12.0894 62.4052 12.0766 62.2955 12.0509 62.1975C12.0252 62.0972 11.9716 62.012 11.8899 61.942C11.8082 61.872 11.6904 61.8172 11.5364 61.7775C11.3847 61.7378 11.1806 61.718 10.9239 61.718V61.102C11.1362 61.0997 11.3124 61.0798 11.4524 61.0425C11.5924 61.0052 11.7032 60.9538 11.7849 60.8885C11.8689 60.8208 11.9272 60.7403 11.9599 60.647C11.9926 60.5537 12.0089 60.451 12.0089 60.339C12.0089 60.101 11.9424 59.9202 11.8094 59.7965C11.6764 59.6728 11.4991 59.611 11.2774 59.611C11.1747 59.611 11.0802 59.6262 10.9939 59.6565C10.9076 59.6845 10.8294 59.7253 10.7594 59.779C10.6917 59.8303 10.6346 59.891 10.5879 59.961C10.5412 60.031 10.5062 60.108 10.4829 60.192C10.4432 60.2993 10.3907 60.3705 10.3254 60.4055C10.2624 60.4405 10.1726 60.4487 10.0559 60.43L9.60089 60.3495Z" fill="#FF9300"/>
<rect width="12" height="11" transform="translate(17 56)" fill="#2F1C04"/>
<path d="M20.1156 61.5255H21.9286V62.2465H20.1156V61.5255ZM25.6564 63.195C25.7497 63.195 25.8232 63.2218 25.8769 63.2755C25.9329 63.3268 25.9609 63.3957 25.9609 63.482V64H22.4889V63.713C22.4889 63.6547 22.5006 63.594 22.5239 63.531C22.5496 63.4657 22.5892 63.4073 22.6429 63.356L24.1794 61.816C24.3077 61.6853 24.4221 61.5605 24.5224 61.4415C24.6251 61.3225 24.7102 61.2047 24.7779 61.088C24.8456 60.9713 24.8969 60.8535 24.9319 60.7345C24.9692 60.6132 24.9879 60.486 24.9879 60.353C24.9879 60.2317 24.9704 60.1255 24.9354 60.0345C24.9004 59.9412 24.8502 59.863 24.7849 59.8C24.7219 59.737 24.6449 59.6903 24.5539 59.66C24.4652 59.6273 24.3649 59.611 24.2529 59.611C24.1502 59.611 24.0546 59.6262 23.9659 59.6565C23.8796 59.6845 23.8026 59.7253 23.7349 59.779C23.6672 59.8303 23.6101 59.891 23.5634 59.961C23.5167 60.031 23.4817 60.108 23.4584 60.192C23.4187 60.2993 23.3674 60.3705 23.3044 60.4055C23.2414 60.4405 23.1504 60.4487 23.0314 60.43L22.5764 60.3495C22.6114 60.1068 22.6791 59.8945 22.7794 59.7125C22.8797 59.5282 23.0046 59.3753 23.1539 59.254C23.3056 59.1303 23.4782 59.0382 23.6719 58.9775C23.8679 58.9145 24.0779 58.883 24.3019 58.883C24.5352 58.883 24.7487 58.918 24.9424 58.988C25.1361 59.0557 25.3017 59.1525 25.4394 59.2785C25.5771 59.4045 25.6844 59.5562 25.7614 59.7335C25.8384 59.9108 25.8769 60.108 25.8769 60.325C25.8769 60.5117 25.8489 60.6843 25.7929 60.843C25.7392 61.0017 25.6657 61.1533 25.5724 61.298C25.4814 61.4427 25.3741 61.5827 25.2504 61.718C25.1267 61.8533 24.9972 61.991 24.8619 62.131L23.7209 63.2965C23.8306 63.2638 23.9391 63.2393 24.0464 63.223C24.1561 63.2043 24.2599 63.195 24.3579 63.195H25.6564Z" fill="#FF9300"/>
<rect width="12" height="11" transform="translate(30 56)" fill="#2F1C04"/>
<path d="M33.1156 61.5255H34.9286V62.2465H33.1156V61.5255ZM38.8454 63.3525V64H36.0454V63.3525H37.0709V60.402C37.0709 60.2853 37.0744 60.1652 37.0814 60.0415L36.3534 60.6505C36.3114 60.6832 36.2694 60.7042 36.2274 60.7135C36.1877 60.7205 36.1492 60.7205 36.1119 60.7135C36.0769 60.7065 36.0454 60.6948 36.0174 60.6785C35.9894 60.6598 35.9684 60.64 35.9544 60.619L35.6814 60.2445L37.2249 58.932H37.9354V63.3525H38.8454Z" fill="#FF9300"/>
<rect width="12" height="11" transform="translate(43 56)" fill="#FF9300"/>
<path d="M50.8547 61.4695C50.8547 61.9105 50.8069 62.2943 50.7112 62.621C50.6179 62.9453 50.4872 63.2137 50.3192 63.426C50.1536 63.6383 49.9564 63.797 49.7277 63.902C49.5014 64.0047 49.2564 64.056 48.9927 64.056C48.7291 64.056 48.4841 64.0047 48.2577 63.902C48.0337 63.797 47.8389 63.6383 47.6732 63.426C47.5076 63.2137 47.3781 62.9453 47.2847 62.621C47.1914 62.2943 47.1447 61.9105 47.1447 61.4695C47.1447 61.0262 47.1914 60.6423 47.2847 60.318C47.3781 59.9937 47.5076 59.7253 47.6732 59.513C47.8389 59.3007 48.0337 59.1432 48.2577 59.0405C48.4841 58.9355 48.7291 58.883 48.9927 58.883C49.2564 58.883 49.5014 58.9355 49.7277 59.0405C49.9564 59.1432 50.1536 59.3007 50.3192 59.513C50.4872 59.7253 50.6179 59.9937 50.7112 60.318C50.8069 60.6423 50.8547 61.0262 50.8547 61.4695ZM49.9622 61.4695C49.9622 61.1032 49.9354 60.7998 49.8817 60.5595C49.8281 60.3192 49.7557 60.1278 49.6647 59.9855C49.5761 59.8432 49.4734 59.744 49.3567 59.688C49.2401 59.6297 49.1187 59.6005 48.9927 59.6005C48.8691 59.6005 48.7489 59.6297 48.6322 59.688C48.5179 59.744 48.4164 59.8432 48.3277 59.9855C48.2391 60.1278 48.1679 60.3192 48.1142 60.5595C48.0629 60.7998 48.0372 61.1032 48.0372 61.4695C48.0372 61.8358 48.0629 62.1392 48.1142 62.3795C48.1679 62.6198 48.2391 62.8112 48.3277 62.9535C48.4164 63.0958 48.5179 63.1962 48.6322 63.2545C48.7489 63.3105 48.8691 63.3385 48.9927 63.3385C49.1187 63.3385 49.2401 63.3105 49.3567 63.2545C49.4734 63.1962 49.5761 63.0958 49.6647 62.9535C49.7557 62.8112 49.8281 62.6198 49.8817 62.3795C49.9354 62.1392 49.9622 61.8358 49.9622 61.4695Z" fill="#2F1C04"/>
<rect width="12" height="11" transform="translate(56 56)" fill="#2F1C04"/>
<path d="M63.5922 63.3525V64H60.7922V63.3525H61.8177V60.402C61.8177 60.2853 61.8212 60.1652 61.8282 60.0415L61.1002 60.6505C61.0582 60.6832 61.0162 60.7042 60.9742 60.7135C60.9346 60.7205 60.8961 60.7205 60.8587 60.7135C60.8237 60.7065 60.7922 60.6948 60.7642 60.6785C60.7362 60.6598 60.7152 60.64 60.7012 60.619L60.4282 60.2445L61.9717 58.932H62.6822V63.3525H63.5922Z" fill="#FF9300"/>
<rect width="12" height="11" transform="translate(69 56)" fill="#2F1C04"/>
<path d="M76.4032 63.195C76.4966 63.195 76.5701 63.2218 76.6237 63.2755C76.6797 63.3268 76.7077 63.3957 76.7077 63.482V64H73.2357V63.713C73.2357 63.6547 73.2474 63.594 73.2707 63.531C73.2964 63.4657 73.3361 63.4073 73.3897 63.356L74.9262 61.816C75.0546 61.6853 75.1689 61.5605 75.2692 61.4415C75.3719 61.3225 75.4571 61.2047 75.5247 61.088C75.5924 60.9713 75.6437 60.8535 75.6787 60.7345C75.7161 60.6132 75.7347 60.486 75.7347 60.353C75.7347 60.2317 75.7172 60.1255 75.6822 60.0345C75.6472 59.9412 75.5971 59.863 75.5317 59.8C75.4687 59.737 75.3917 59.6903 75.3007 59.66C75.2121 59.6273 75.1117 59.611 74.9997 59.611C74.8971 59.611 74.8014 59.6262 74.7127 59.6565C74.6264 59.6845 74.5494 59.7253 74.4817 59.779C74.4141 59.8303 74.3569 59.891 74.3102 59.961C74.2636 60.031 74.2286 60.108 74.2052 60.192C74.1656 60.2993 74.1142 60.3705 74.0512 60.4055C73.9882 60.4405 73.8972 60.4487 73.7782 60.43L73.3232 60.3495C73.3582 60.1068 73.4259 59.8945 73.5262 59.7125C73.6266 59.5282 73.7514 59.3753 73.9007 59.254C74.0524 59.1303 74.2251 59.0382 74.4187 58.9775C74.6147 58.9145 74.8247 58.883 75.0487 58.883C75.2821 58.883 75.4956 58.918 75.6892 58.988C75.8829 59.0557 76.0486 59.1525 76.1862 59.2785C76.3239 59.4045 76.4312 59.5562 76.5082 59.7335C76.5852 59.9108 76.6237 60.108 76.6237 60.325C76.6237 60.5117 76.5957 60.6843 76.5397 60.843C76.4861 61.0017 76.4126 61.1533 76.3192 61.298C76.2282 61.4427 76.1209 61.5827 75.9972 61.718C75.8736 61.8533 75.7441 61.991 75.6087 62.131L74.4677 63.2965C74.5774 63.2638 74.6859 63.2393 74.7932 63.223C74.9029 63.2043 75.0067 63.195 75.1047 63.195H76.4032Z" fill="#FF9300"/>
<rect width="12" height="11" transform="translate(82 56)" fill="#2F1C04"/>
<path d="M86.3477 60.3495C86.3827 60.1068 86.4504 59.8945 86.5507 59.7125C86.6511 59.5282 86.7759 59.3753 86.9252 59.254C87.0769 59.1303 87.2496 59.0382 87.4432 58.9775C87.6392 58.9145 87.8492 58.883 88.0732 58.883C88.3066 58.883 88.5166 58.9168 88.7032 58.9845C88.8922 59.0498 89.0532 59.142 89.1862 59.261C89.3192 59.3777 89.4207 59.5153 89.4907 59.674C89.5631 59.8327 89.5992 60.0042 89.5992 60.1885C89.5992 60.3495 89.5806 60.4918 89.5432 60.6155C89.5082 60.7368 89.4569 60.843 89.3892 60.934C89.3216 61.025 89.2376 61.102 89.1372 61.165C89.0369 61.228 88.9237 61.2805 88.7977 61.3225C89.1011 61.4182 89.3274 61.564 89.4767 61.76C89.6261 61.956 89.7007 62.2022 89.7007 62.4985C89.7007 62.7505 89.6541 62.9733 89.5607 63.167C89.4674 63.3607 89.3414 63.524 89.1827 63.657C89.0241 63.7877 88.8397 63.8868 88.6297 63.9545C88.4221 64.0222 88.2016 64.056 87.9682 64.056C87.7139 64.056 87.4922 64.0268 87.3032 63.9685C87.1142 63.9102 86.9497 63.8238 86.8097 63.7095C86.6697 63.5952 86.5507 63.4552 86.4527 63.2895C86.3547 63.1238 86.2707 62.9325 86.2007 62.7155L86.5822 62.558C86.6826 62.516 86.7759 62.5055 86.8622 62.5265C86.9509 62.5452 87.0151 62.5918 87.0547 62.6665C87.0967 62.7482 87.1422 62.8287 87.1912 62.908C87.2426 62.9873 87.3032 63.0585 87.3732 63.1215C87.4432 63.1822 87.5249 63.2323 87.6182 63.272C87.7139 63.3093 87.8271 63.328 87.9577 63.328C88.1047 63.328 88.2331 63.3047 88.3427 63.258C88.4524 63.209 88.5434 63.146 88.6157 63.069C88.6904 62.992 88.7452 62.9068 88.7802 62.8135C88.8176 62.7178 88.8362 62.6222 88.8362 62.5265C88.8362 62.4052 88.8234 62.2955 88.7977 62.1975C88.7721 62.0972 88.7184 62.012 88.6367 61.942C88.5551 61.872 88.4372 61.8172 88.2832 61.7775C88.1316 61.7378 87.9274 61.718 87.6707 61.718V61.102C87.8831 61.0997 88.0592 61.0798 88.1992 61.0425C88.3392 61.0052 88.4501 60.9538 88.5317 60.8885C88.6157 60.8208 88.6741 60.7403 88.7067 60.647C88.7394 60.5537 88.7557 60.451 88.7557 60.339C88.7557 60.101 88.6892 59.9202 88.5562 59.7965C88.4232 59.6728 88.2459 59.611 88.0242 59.611C87.9216 59.611 87.8271 59.6262 87.7407 59.6565C87.6544 59.6845 87.5762 59.7253 87.5062 59.779C87.4386 59.8303 87.3814 59.891 87.3347 59.961C87.2881 60.031 87.2531 60.108 87.2297 60.192C87.1901 60.2993 87.1376 60.3705 87.0722 60.4055C87.0092 60.4405 86.9194 60.4487 86.8027 60.43L86.3477 60.3495Z" fill="#FF9300"/>
<rect width="12" height="11" transform="translate(4 74)" fill="#2F1C04"/>
<path d="M7.11556 79.5255H8.92856V80.2465H7.11556V79.5255ZM9.60089 78.3495C9.63589 78.1068 9.70356 77.8945 9.80389 77.7125C9.90422 77.5282 10.0291 77.3753 10.1784 77.254C10.3301 77.1303 10.5027 77.0382 10.6964 76.9775C10.8924 76.9145 11.1024 76.883 11.3264 76.883C11.5597 76.883 11.7697 76.9168 11.9564 76.9845C12.1454 77.0498 12.3064 77.142 12.4394 77.261C12.5724 77.3777 12.6739 77.5153 12.7439 77.674C12.8162 77.8327 12.8524 78.0042 12.8524 78.1885C12.8524 78.3495 12.8337 78.4918 12.7964 78.6155C12.7614 78.7368 12.7101 78.843 12.6424 78.934C12.5747 79.025 12.4907 79.102 12.3904 79.165C12.2901 79.228 12.1769 79.2805 12.0509 79.3225C12.3542 79.4182 12.5806 79.564 12.7299 79.76C12.8792 79.956 12.9539 80.2022 12.9539 80.4985C12.9539 80.7505 12.9072 80.9733 12.8139 81.167C12.7206 81.3607 12.5946 81.524 12.4359 81.657C12.2772 81.7877 12.0929 81.8868 11.8829 81.9545C11.6752 82.0222 11.4547 82.056 11.2214 82.056C10.9671 82.056 10.7454 82.0268 10.5564 81.9685C10.3674 81.9102 10.2029 81.8238 10.0629 81.7095C9.92289 81.5952 9.80389 81.4552 9.70589 81.2895C9.60789 81.1238 9.52389 80.9325 9.45389 80.7155L9.83539 80.558C9.93572 80.516 10.0291 80.5055 10.1154 80.5265C10.2041 80.5452 10.2682 80.5918 10.3079 80.6665C10.3499 80.7482 10.3954 80.8287 10.4444 80.908C10.4957 80.9873 10.5564 81.0585 10.6264 81.1215C10.6964 81.1822 10.7781 81.2323 10.8714 81.272C10.9671 81.3093 11.0802 81.328 11.2109 81.328C11.3579 81.328 11.4862 81.3047 11.5959 81.258C11.7056 81.209 11.7966 81.146 11.8689 81.069C11.9436 80.992 11.9984 80.9068 12.0334 80.8135C12.0707 80.7178 12.0894 80.6222 12.0894 80.5265C12.0894 80.4052 12.0766 80.2955 12.0509 80.1975C12.0252 80.0972 11.9716 80.012 11.8899 79.942C11.8082 79.872 11.6904 79.8172 11.5364 79.7775C11.3847 79.7378 11.1806 79.718 10.9239 79.718V79.102C11.1362 79.0997 11.3124 79.0798 11.4524 79.0425C11.5924 79.0052 11.7032 78.9538 11.7849 78.8885C11.8689 78.8208 11.9272 78.7403 11.9599 78.647C11.9926 78.5537 12.0089 78.451 12.0089 78.339C12.0089 78.101 11.9424 77.9202 11.8094 77.7965C11.6764 77.6728 11.4991 77.611 11.2774 77.611C11.1747 77.611 11.0802 77.6262 10.9939 77.6565C10.9076 77.6845 10.8294 77.7253 10.7594 77.779C10.6917 77.8303 10.6346 77.891 10.5879 77.961C10.5412 78.031 10.5062 78.108 10.4829 78.192C10.4432 78.2993 10.3907 78.3705 10.3254 78.4055C10.2624 78.4405 10.1726 78.4487 10.0559 78.43L9.60089 78.3495Z" fill="#FF9300"/>
<rect width="12" height="11" transform="translate(17 74)" fill="#2F1C04"/>
<path d="M20.1156 79.5255H21.9286V80.2465H20.1156V79.5255ZM25.6564 81.195C25.7497 81.195 25.8232 81.2218 25.8769 81.2755C25.9329 81.3268 25.9609 81.3957 25.9609 81.482V82H22.4889V81.713C22.4889 81.6547 22.5006 81.594 22.5239 81.531C22.5496 81.4657 22.5892 81.4073 22.6429 81.356L24.1794 79.816C24.3077 79.6853 24.4221 79.5605 24.5224 79.4415C24.6251 79.3225 24.7102 79.2047 24.7779 79.088C24.8456 78.9713 24.8969 78.8535 24.9319 78.7345C24.9692 78.6132 24.9879 78.486 24.9879 78.353C24.9879 78.2317 24.9704 78.1255 24.9354 78.0345C24.9004 77.9412 24.8502 77.863 24.7849 77.8C24.7219 77.737 24.6449 77.6903 24.5539 77.66C24.4652 77.6273 24.3649 77.611 24.2529 77.611C24.1502 77.611 24.0546 77.6262 23.9659 77.6565C23.8796 77.6845 23.8026 77.7253 23.7349 77.779C23.6672 77.8303 23.6101 77.891 23.5634 77.961C23.5167 78.031 23.4817 78.108 23.4584 78.192C23.4187 78.2993 23.3674 78.3705 23.3044 78.4055C23.2414 78.4405 23.1504 78.4487 23.0314 78.43L22.5764 78.3495C22.6114 78.1068 22.6791 77.8945 22.7794 77.7125C22.8797 77.5282 23.0046 77.3753 23.1539 77.254C23.3056 77.1303 23.4782 77.0382 23.6719 76.9775C23.8679 76.9145 24.0779 76.883 24.3019 76.883C24.5352 76.883 24.7487 76.918 24.9424 76.988C25.1361 77.0557 25.3017 77.1525 25.4394 77.2785C25.5771 77.4045 25.6844 77.5562 25.7614 77.7335C25.8384 77.9108 25.8769 78.108 25.8769 78.325C25.8769 78.5117 25.8489 78.6843 25.7929 78.843C25.7392 79.0017 25.6657 79.1533 25.5724 79.298C25.4814 79.4427 25.3741 79.5827 25.2504 79.718C25.1267 79.8533 24.9972 79.991 24.8619 80.131L23.7209 81.2965C23.8306 81.2638 23.9391 81.2393 24.0464 81.223C24.1561 81.2043 24.2599 81.195 24.3579 81.195H25.6564Z" fill="#FF9300"/>
<rect width="12" height="11" transform="translate(30 74)" fill="#2F1C04"/>
<path d="M33.1156 79.5255H34.9286V80.2465H33.1156V79.5255ZM38.8454 81.3525V82H36.0454V81.3525H37.0709V78.402C37.0709 78.2853 37.0744 78.1652 37.0814 78.0415L36.3534 78.6505C36.3114 78.6832 36.2694 78.7042 36.2274 78.7135C36.1877 78.7205 36.1492 78.7205 36.1119 78.7135C36.0769 78.7065 36.0454 78.6948 36.0174 78.6785C35.9894 78.6598 35.9684 78.64 35.9544 78.619L35.6814 78.2445L37.2249 76.932H37.9354V81.3525H38.8454Z" fill="#FF9300"/>
<rect width="12" height="11" transform="translate(43 74)" fill="#2F1C04"/>
<path d="M50.8547 79.4695C50.8547 79.9105 50.8069 80.2943 50.7112 80.621C50.6179 80.9453 50.4872 81.2137 50.3192 81.426C50.1536 81.6383 49.9564 81.797 49.7277 81.902C49.5014 82.0047 49.2564 82.056 48.9927 82.056C48.7291 82.056 48.4841 82.0047 48.2577 81.902C48.0337 81.797 47.8389 81.6383 47.6732 81.426C47.5076 81.2137 47.3781 80.9453 47.2847 80.621C47.1914 80.2943 47.1447 79.9105 47.1447 79.4695C47.1447 79.0262 47.1914 78.6423 47.2847 78.318C47.3781 77.9937 47.5076 77.7253 47.6732 77.513C47.8389 77.3007 48.0337 77.1432 48.2577 77.0405C48.4841 76.9355 48.7291 76.883 48.9927 76.883C49.2564 76.883 49.5014 76.9355 49.7277 77.0405C49.9564 77.1432 50.1536 77.3007 50.3192 77.513C50.4872 77.7253 50.6179 77.9937 50.7112 78.318C50.8069 78.6423 50.8547 79.0262 50.8547 79.4695ZM49.9622 79.4695C49.9622 79.1032 49.9354 78.7998 49.8817 78.5595C49.8281 78.3192 49.7557 78.1278 49.6647 77.9855C49.5761 77.8432 49.4734 77.744 49.3567 77.688C49.2401 77.6297 49.1187 77.6005 48.9927 77.6005C48.8691 77.6005 48.7489 77.6297 48.6322 77.688C48.5179 77.744 48.4164 77.8432 48.3277 77.9855C48.2391 78.1278 48.1679 78.3192 48.1142 78.5595C48.0629 78.7998 48.0372 79.1032 48.0372 79.4695C48.0372 79.8358 48.0629 80.1392 48.1142 80.3795C48.1679 80.6198 48.2391 80.8112 48.3277 80.9535C48.4164 81.0958 48.5179 81.1962 48.6322 81.2545C48.7489 81.3105 48.8691 81.3385 48.9927 81.3385C49.1187 81.3385 49.2401 81.3105 49.3567 81.2545C49.4734 81.1962 49.5761 81.0958 49.6647 80.9535C49.7557 80.8112 49.8281 80.6198 49.8817 80.3795C49.9354 80.1392 49.9622 79.8358 49.9622 79.4695Z" fill="#FF9300"/>
<rect width="12" height="11" transform="translate(56 74)" fill="#FF9300"/>
<path d="M63.5922 81.3525V82H60.7922V81.3525H61.8177V78.402C61.8177 78.2853 61.8212 78.1652 61.8282 78.0415L61.1002 78.6505C61.0582 78.6832 61.0162 78.7042 60.9742 78.7135C60.9346 78.7205 60.8961 78.7205 60.8587 78.7135C60.8237 78.7065 60.7922 78.6948 60.7642 78.6785C60.7362 78.6598 60.7152 78.64 60.7012 78.619L60.4282 78.2445L61.9717 76.932H62.6822V81.3525H63.5922Z" fill="#2F1C04"/>
<rect width="12" height="11" transform="translate(69 74)" fill="#2F1C04"/>
<path d="M76.4032 81.195C76.4966 81.195 76.5701 81.2218 76.6237 81.2755C76.6797 81.3268 76.7077 81.3957 76.7077 81.482V82H73.2357V81.713C73.2357 81.6547 73.2474 81.594 73.2707 81.531C73.2964 81.4657 73.3361 81.4073 73.3897 81.356L74.9262 79.816C75.0546 79.6853 75.1689 79.5605 75.2692 79.4415C75.3719 79.3225 75.4571 79.2047 75.5247 79.088C75.5924 78.9713 75.6437 78.8535 75.6787 78.7345C75.7161 78.6132 75.7347 78.486 75.7347 78.353C75.7347 78.2317 75.7172 78.1255 75.6822 78.0345C75.6472 77.9412 75.5971 77.863 75.5317 77.8C75.4687 77.737 75.3917 77.6903 75.3007 77.66C75.2121 77.6273 75.1117 77.611 74.9997 77.611C74.8971 77.611 74.8014 77.6262 74.7127 77.6565C74.6264 77.6845 74.5494 77.7253 74.4817 77.779C74.4141 77.8303 74.3569 77.891 74.3102 77.961C74.2636 78.031 74.2286 78.108 74.2052 78.192C74.1656 78.2993 74.1142 78.3705 74.0512 78.4055C73.9882 78.4405 73.8972 78.4487 73.7782 78.43L73.3232 78.3495C73.3582 78.1068 73.4259 77.8945 73.5262 77.7125C73.6266 77.5282 73.7514 77.3753 73.9007 77.254C74.0524 77.1303 74.2251 77.0382 74.4187 76.9775C74.6147 76.9145 74.8247 76.883 75.0487 76.883C75.2821 76.883 75.4956 76.918 75.6892 76.988C75.8829 77.0557 76.0486 77.1525 76.1862 77.2785C76.3239 77.4045 76.4312 77.5562 76.5082 77.7335C76.5852 77.9108 76.6237 78.108 76.6237 78.325C76.6237 78.5117 76.5957 78.6843 76.5397 78.843C76.4861 79.0017 76.4126 79.1533 76.3192 79.298C76.2282 79.4427 76.1209 79.5827 75.9972 79.718C75.8736 79.8533 75.7441 79.991 75.6087 80.131L74.4677 81.2965C74.5774 81.2638 74.6859 81.2393 74.7932 81.223C74.9029 81.2043 75.0067 81.195 75.1047 81.195H76.4032Z" fill="#FF9300"/>
<rect width="12" height="11" transform="translate(82 74)" fill="#2F1C04"/>
<path d="M86.3477 78.3495C86.3827 78.1068 86.4504 77.8945 86.5507 77.7125C86.6511 77.5282 86.7759 77.3753 86.9252 77.254C87.0769 77.1303 87.2496 77.0382 87.4432 76.9775C87.6392 76.9145 87.8492 76.883 88.0732 76.883C88.3066 76.883 88.5166 76.9168 88.7032 76.9845C88.8922 77.0498 89.0532 77.142 89.1862 77.261C89.3192 77.3777 89.4207 77.5153 89.4907 77.674C89.5631 77.8327 89.5992 78.0042 89.5992 78.1885C89.5992 78.3495 89.5806 78.4918 89.5432 78.6155C89.5082 78.7368 89.4569 78.843 89.3892 78.934C89.3216 79.025 89.2376 79.102 89.1372 79.165C89.0369 79.228 88.9237 79.2805 88.7977 79.3225C89.1011 79.4182 89.3274 79.564 89.4767 79.76C89.6261 79.956 89.7007 80.2022 89.7007 80.4985C89.7007 80.7505 89.6541 80.9733 89.5607 81.167C89.4674 81.3607 89.3414 81.524 89.1827 81.657C89.0241 81.7877 88.8397 81.8868 88.6297 81.9545C88.4221 82.0222 88.2016 82.056 87.9682 82.056C87.7139 82.056 87.4922 82.0268 87.3032 81.9685C87.1142 81.9102 86.9497 81.8238 86.8097 81.7095C86.6697 81.5952 86.5507 81.4552 86.4527 81.2895C86.3547 81.1238 86.2707 80.9325 86.2007 80.7155L86.5822 80.558C86.6826 80.516 86.7759 80.5055 86.8622 80.5265C86.9509 80.5452 87.0151 80.5918 87.0547 80.6665C87.0967 80.7482 87.1422 80.8287 87.1912 80.908C87.2426 80.9873 87.3032 81.0585 87.3732 81.1215C87.4432 81.1822 87.5249 81.2323 87.6182 81.272C87.7139 81.3093 87.8271 81.328 87.9577 81.328C88.1047 81.328 88.2331 81.3047 88.3427 81.258C88.4524 81.209 88.5434 81.146 88.6157 81.069C88.6904 80.992 88.7452 80.9068 88.7802 80.8135C88.8176 80.7178 88.8362 80.6222 88.8362 80.5265C88.8362 80.4052 88.8234 80.2955 88.7977 80.1975C88.7721 80.0972 88.7184 80.012 88.6367 79.942C88.5551 79.872 88.4372 79.8172 88.2832 79.7775C88.1316 79.7378 87.9274 79.718 87.6707 79.718V79.102C87.8831 79.0997 88.0592 79.0798 88.1992 79.0425C88.3392 79.0052 88.4501 78.9538 88.5317 78.8885C88.6157 78.8208 88.6741 78.7403 88.7067 78.647C88.7394 78.5537 88.7557 78.451 88.7557 78.339C88.7557 78.101 88.6892 77.9202 88.5562 77.7965C88.4232 77.6728 88.2459 77.611 88.0242 77.611C87.9216 77.611 87.8271 77.6262 87.7407 77.6565C87.6544 77.6845 87.5762 77.7253 87.5062 77.779C87.4386 77.8303 87.3814 77.891 87.3347 77.961C87.2881 78.031 87.2531 78.108 87.2297 78.192C87.1901 78.2993 87.1376 78.3705 87.0722 78.4055C87.0092 78.4405 86.9194 78.4487 86.8027 78.43L86.3477 78.3495Z" fill="#FF9300"/>
<rect width="12" height="11" transform="translate(4 92)" fill="#2F1C04"/>
<path d="M7.11556 97.5255H8.92856V98.2465H7.11556V97.5255ZM9.60089 96.3495C9.63589 96.1068 9.70356 95.8945 9.80389 95.7125C9.90422 95.5282 10.0291 95.3753 10.1784 95.254C10.3301 95.1303 10.5027 95.0382 10.6964 94.9775C10.8924 94.9145 11.1024 94.883 11.3264 94.883C11.5597 94.883 11.7697 94.9168 11.9564 94.9845C12.1454 95.0498 12.3064 95.142 12.4394 95.261C12.5724 95.3777 12.6739 95.5153 12.7439 95.674C12.8162 95.8327 12.8524 96.0042 12.8524 96.1885C12.8524 96.3495 12.8337 96.4918 12.7964 96.6155C12.7614 96.7368 12.7101 96.843 12.6424 96.934C12.5747 97.025 12.4907 97.102 12.3904 97.165C12.2901 97.228 12.1769 97.2805 12.0509 97.3225C12.3542 97.4182 12.5806 97.564 12.7299 97.76C12.8792 97.956 12.9539 98.2022 12.9539 98.4985C12.9539 98.7505 12.9072 98.9733 12.8139 99.167C12.7206 99.3607 12.5946 99.524 12.4359 99.657C12.2772 99.7877 12.0929 99.8868 11.8829 99.9545C11.6752 100.022 11.4547 100.056 11.2214 100.056C10.9671 100.056 10.7454 100.027 10.5564 99.9685C10.3674 99.9102 10.2029 99.8238 10.0629 99.7095C9.92289 99.5952 9.80389 99.4552 9.70589 99.2895C9.60789 99.1238 9.52389 98.9325 9.45389 98.7155L9.83539 98.558C9.93572 98.516 10.0291 98.5055 10.1154 98.5265C10.2041 98.5452 10.2682 98.5918 10.3079 98.6665C10.3499 98.7482 10.3954 98.8287 10.4444 98.908C10.4957 98.9873 10.5564 99.0585 10.6264 99.1215C10.6964 99.1822 10.7781 99.2323 10.8714 99.272C10.9671 99.3093 11.0802 99.328 11.2109 99.328C11.3579 99.328 11.4862 99.3047 11.5959 99.258C11.7056 99.209 11.7966 99.146 11.8689 99.069C11.9436 98.992 11.9984 98.9068 12.0334 98.8135C12.0707 98.7178 12.0894 98.6222 12.0894 98.5265C12.0894 98.4052 12.0766 98.2955 12.0509 98.1975C12.0252 98.0972 11.9716 98.012 11.8899 97.942C11.8082 97.872 11.6904 97.8172 11.5364 97.7775C11.3847 97.7378 11.1806 97.718 10.9239 97.718V97.102C11.1362 97.0997 11.3124 97.0798 11.4524 97.0425C11.5924 97.0052 11.7032 96.9538 11.7849 96.8885C11.8689 96.8208 11.9272 96.7403 11.9599 96.647C11.9926 96.5537 12.0089 96.451 12.0089 96.339C12.0089 96.101 11.9424 95.9202 11.8094 95.7965C11.6764 95.6728 11.4991 95.611 11.2774 95.611C11.1747 95.611 11.0802 95.6262 10.9939 95.6565C10.9076 95.6845 10.8294 95.7253 10.7594 95.779C10.6917 95.8303 10.6346 95.891 10.5879 95.961C10.5412 96.031 10.5062 96.108 10.4829 96.192C10.4432 96.2993 10.3907 96.3705 10.3254 96.4055C10.2624 96.4405 10.1726 96.4487 10.0559 96.43L9.60089 96.3495Z" fill="#FF9300"/>
<rect width="12" height="11" transform="translate(17 92)" fill="#2F1C04"/>
<path d="M20.1156 97.5255H21.9286V98.2465H20.1156V97.5255ZM25.6564 99.195C25.7497 99.195 25.8232 99.2218 25.8769 99.2755C25.9329 99.3268 25.9609 99.3957 25.9609 99.482V100H22.4889V99.713C22.4889 99.6547 22.5006 99.594 22.5239 99.531C22.5496 99.4657 22.5892 99.4073 22.6429 99.356L24.1794 97.816C24.3077 97.6853 24.4221 97.5605 24.5224 97.4415C24.6251 97.3225 24.7102 97.2047 24.7779 97.088C24.8456 96.9713 24.8969 96.8535 24.9319 96.7345C24.9692 96.6132 24.9879 96.486 24.9879 96.353C24.9879 96.2317 24.9704 96.1255 24.9354 96.0345C24.9004 95.9412 24.8502 95.863 24.7849 95.8C24.7219 95.737 24.6449 95.6903 24.5539 95.66C24.4652 95.6273 24.3649 95.611 24.2529 95.611C24.1502 95.611 24.0546 95.6262 23.9659 95.6565C23.8796 95.6845 23.8026 95.7253 23.7349 95.779C23.6672 95.8303 23.6101 95.891 23.5634 95.961C23.5167 96.031 23.4817 96.108 23.4584 96.192C23.4187 96.2993 23.3674 96.3705 23.3044 96.4055C23.2414 96.4405 23.1504 96.4487 23.0314 96.43L22.5764 96.3495C22.6114 96.1068 22.6791 95.8945 22.7794 95.7125C22.8797 95.5282 23.0046 95.3753 23.1539 95.254C23.3056 95.1303 23.4782 95.0382 23.6719 94.9775C23.8679 94.9145 24.0779 94.883 24.3019 94.883C24.5352 94.883 24.7487 94.918 24.9424 94.988C25.1361 95.0557 25.3017 95.1525 25.4394 95.2785C25.5771 95.4045 25.6844 95.5562 25.7614 95.7335C25.8384 95.9108 25.8769 96.108 25.8769 96.325C25.8769 96.5117 25.8489 96.6843 25.7929 96.843C25.7392 97.0017 25.6657 97.1533 25.5724 97.298C25.4814 97.4427 25.3741 97.5827 25.2504 97.718C25.1267 97.8533 24.9972 97.991 24.8619 98.131L23.7209 99.2965C23.8306 99.2638 23.9391 99.2393 24.0464 99.223C24.1561 99.2043 24.2599 99.195 24.3579 99.195H25.6564Z" fill="#FF9300"/>
<rect width="12" height="11" transform="translate(30 92)" fill="#2F1C04"/>
<path d="M33.1156 97.5255H34.9286V98.2465H33.1156V97.5255ZM38.8454 99.3525V100H36.0454V99.3525H37.0709V96.402C37.0709 96.2853 37.0744 96.1652 37.0814 96.0415L36.3534 96.6505C36.3114 96.6832 36.2694 96.7042 36.2274 96.7135C36.1877 96.7205 36.1492 96.7205 36.1119 96.7135C36.0769 96.7065 36.0454 96.6948 36.0174 96.6785C35.9894 96.6598 35.9684 96.64 35.9544 96.619L35.6814 96.2445L37.2249 94.932H37.9354V99.3525H38.8454Z" fill="#FF9300"/>
<rect width="12" height="11" transform="translate(43 92)" fill="#2F1C04"/>
<path d="M50.8547 97.4695C50.8547 97.9105 50.8069 98.2943 50.7112 98.621C50.6179 98.9453 50.4872 99.2137 50.3192 99.426C50.1536 99.6383 49.9564 99.797 49.7277 99.902C49.5014 100.005 49.2564 100.056 48.9927 100.056C48.7291 100.056 48.4841 100.005 48.2577 99.902C48.0337 99.797 47.8389 99.6383 47.6732 99.426C47.5076 99.2137 47.3781 98.9453 47.2847 98.621C47.1914 98.2943 47.1447 97.9105 47.1447 97.4695C47.1447 97.0262 47.1914 96.6423 47.2847 96.318C47.3781 95.9937 47.5076 95.7253 47.6732 95.513C47.8389 95.3007 48.0337 95.1432 48.2577 95.0405C48.4841 94.9355 48.7291 94.883 48.9927 94.883C49.2564 94.883 49.5014 94.9355 49.7277 95.0405C49.9564 95.1432 50.1536 95.3007 50.3192 95.513C50.4872 95.7253 50.6179 95.9937 50.7112 96.318C50.8069 96.6423 50.8547 97.0262 50.8547 97.4695ZM49.9622 97.4695C49.9622 97.1032 49.9354 96.7998 49.8817 96.5595C49.8281 96.3192 49.7557 96.1278 49.6647 95.9855C49.5761 95.8432 49.4734 95.744 49.3567 95.688C49.2401 95.6297 49.1187 95.6005 48.9927 95.6005C48.8691 95.6005 48.7489 95.6297 48.6322 95.688C48.5179 95.744 48.4164 95.8432 48.3277 95.9855C48.2391 96.1278 48.1679 96.3192 48.1142 96.5595C48.0629 96.7998 48.0372 97.1032 48.0372 97.4695C48.0372 97.8358 48.0629 98.1392 48.1142 98.3795C48.1679 98.6198 48.2391 98.8112 48.3277 98.9535C48.4164 99.0958 48.5179 99.1962 48.6322 99.2545C48.7489 99.3105 48.8691 99.3385 48.9927 99.3385C49.1187 99.3385 49.2401 99.3105 49.3567 99.2545C49.4734 99.1962 49.5761 99.0958 49.6647 98.9535C49.7557 98.8112 49.8281 98.6198 49.8817 98.3795C49.9354 98.1392 49.9622 97.8358 49.9622 97.4695Z" fill="#FF9300"/>
<rect width="12" height="11" transform="translate(56 92)" fill="#2F1C04"/>
<path d="M63.5922 99.3525V100H60.7922V99.3525H61.8177V96.402C61.8177 96.2853 61.8212 96.1652 61.8282 96.0415L61.1002 96.6505C61.0582 96.6832 61.0162 96.7042 60.9742 96.7135C60.9346 96.7205 60.8961 96.7205 60.8587 96.7135C60.8237 96.7065 60.7922 96.6948 60.7642 96.6785C60.7362 96.6598 60.7152 96.64 60.7012 96.619L60.4282 96.2445L61.9717 94.932H62.6822V99.3525H63.5922Z" fill="#FF9300"/>
<rect width="12" height="11" transform="translate(69 92)" fill="#FF9300"/>
<path d="M76.4032 99.195C76.4966 99.195 76.5701 99.2218 76.6237 99.2755C76.6797 99.3268 76.7077 99.3957 76.7077 99.482V100H73.2357V99.713C73.2357 99.6547 73.2474 99.594 73.2707 99.531C73.2964 99.4657 73.3361 99.4073 73.3897 99.356L74.9262 97.816C75.0546 97.6853 75.1689 97.5605 75.2692 97.4415C75.3719 97.3225 75.4571 97.2047 75.5247 97.088C75.5924 96.9713 75.6437 96.8535 75.6787 96.7345C75.7161 96.6132 75.7347 96.486 75.7347 96.353C75.7347 96.2317 75.7172 96.1255 75.6822 96.0345C75.6472 95.9412 75.5971 95.863 75.5317 95.8C75.4687 95.737 75.3917 95.6903 75.3007 95.66C75.2121 95.6273 75.1117 95.611 74.9997 95.611C74.8971 95.611 74.8014 95.6262 74.7127 95.6565C74.6264 95.6845 74.5494 95.7253 74.4817 95.779C74.4141 95.8303 74.3569 95.891 74.3102 95.961C74.2636 96.031 74.2286 96.108 74.2052 96.192C74.1656 96.2993 74.1142 96.3705 74.0512 96.4055C73.9882 96.4405 73.8972 96.4487 73.7782 96.43L73.3232 96.3495C73.3582 96.1068 73.4259 95.8945 73.5262 95.7125C73.6266 95.5282 73.7514 95.3753 73.9007 95.254C74.0524 95.1303 74.2251 95.0382 74.4187 94.9775C74.6147 94.9145 74.8247 94.883 75.0487 94.883C75.2821 94.883 75.4956 94.918 75.6892 94.988C75.8829 95.0557 76.0486 95.1525 76.1862 95.2785C76.3239 95.4045 76.4312 95.5562 76.5082 95.7335C76.5852 95.9108 76.6237 96.108 76.6237 96.325C76.6237 96.5117 76.5957 96.6843 76.5397 96.843C76.4861 97.0017 76.4126 97.1533 76.3192 97.298C76.2282 97.4427 76.1209 97.5827 75.9972 97.718C75.8736 97.8533 75.7441 97.991 75.6087 98.131L74.4677 99.2965C74.5774 99.2638 74.6859 99.2393 74.7932 99.223C74.9029 99.2043 75.0067 99.195 75.1047 99.195H76.4032Z" fill="#2F1C04"/>
<rect width="12" height="11" transform="translate(82 92)" fill="#2F1C04"/>
<path d="M86.3477 96.3495C86.3827 96.1068 86.4504 95.8945 86.5507 95.7125C86.6511 95.5282 86.7759 95.3753 86.9252 95.254C87.0769 95.1303 87.2496 95.0382 87.4432 94.9775C87.6392 94.9145 87.8492 94.883 88.0732 94.883C88.3066 94.883 88.5166 94.9168 88.7032 94.9845C88.8922 95.0498 89.0532 95.142 89.1862 95.261C89.3192 95.3777 89.4207 95.5153 89.4907 95.674C89.5631 95.8327 89.5992 96.0042 89.5992 96.1885C89.5992 96.3495 89.5806 96.4918 89.5432 96.6155C89.5082 96.7368 89.4569 96.843 89.3892 96.934C89.3216 97.025 89.2376 97.102 89.1372 97.165C89.0369 97.228 88.9237 97.2805 88.7977 97.3225C89.1011 97.4182 89.3274 97.564 89.4767 97.76C89.6261 97.956 89.7007 98.2022 89.7007 98.4985C89.7007 98.7505 89.6541 98.9733 89.5607 99.167C89.4674 99.3607 89.3414 99.524 89.1827 99.657C89.0241 99.7877 88.8397 99.8868 88.6297 99.9545C88.4221 100.022 88.2016 100.056 87.9682 100.056C87.7139 100.056 87.4922 100.027 87.3032 99.9685C87.1142 99.9102 86.9497 99.8238 86.8097 99.7095C86.6697 99.5952 86.5507 99.4552 86.4527 99.2895C86.3547 99.1238 86.2707 98.9325 86.2007 98.7155L86.5822 98.558C86.6826 98.516 86.7759 98.5055 86.8622 98.5265C86.9509 98.5452 87.0151 98.5918 87.0547 98.6665C87.0967 98.7482 87.1422 98.8287 87.1912 98.908C87.2426 98.9873 87.3032 99.0585 87.3732 99.1215C87.4432 99.1822 87.5249 99.2323 87.6182 99.272C87.7139 99.3093 87.8271 99.328 87.9577 99.328C88.1047 99.328 88.2331 99.3047 88.3427 99.258C88.4524 99.209 88.5434 99.146 88.6157 99.069C88.6904 98.992 88.7452 98.9068 88.7802 98.8135C88.8176 98.7178 88.8362 98.6222 88.8362 98.5265C88.8362 98.4052 88.8234 98.2955 88.7977 98.1975C88.7721 98.0972 88.7184 98.012 88.6367 97.942C88.5551 97.872 88.4372 97.8172 88.2832 97.7775C88.1316 97.7378 87.9274 97.718 87.6707 97.718V97.102C87.8831 97.0997 88.0592 97.0798 88.1992 97.0425C88.3392 97.0052 88.4501 96.9538 88.5317 96.8885C88.6157 96.8208 88.6741 96.7403 88.7067 96.647C88.7394 96.5537 88.7557 96.451 88.7557 96.339C88.7557 96.101 88.6892 95.9202 88.5562 95.7965C88.4232 95.6728 88.2459 95.611 88.0242 95.611C87.9216 95.611 87.8271 95.6262 87.7407 95.6565C87.6544 95.6845 87.5762 95.7253 87.5062 95.779C87.4386 95.8303 87.3814 95.891 87.3347 95.961C87.2881 96.031 87.2531 96.108 87.2297 96.192C87.1901 96.2993 87.1376 96.3705 87.0722 96.4055C87.0092 96.4405 86.9194 96.4487 86.8027 96.43L86.3477 96.3495Z" fill="#FF9300"/>
<rect width="12" height="11" transform="translate(4 110)" fill="#2F1C04"/>
<path d="M7.11556 115.525H8.92856V116.246H7.11556V115.525ZM9.60089 114.349C9.63589 114.107 9.70356 113.894 9.80389 113.712C9.90422 113.528 10.0291 113.375 10.1784 113.254C10.3301 113.13 10.5027 113.038 10.6964 112.977C10.8924 112.914 11.1024 112.883 11.3264 112.883C11.5597 112.883 11.7697 112.917 11.9564 112.984C12.1454 113.05 12.3064 113.142 12.4394 113.261C12.5724 113.378 12.6739 113.515 12.7439 113.674C12.8162 113.833 12.8524 114.004 12.8524 114.188C12.8524 114.349 12.8337 114.492 12.7964 114.615C12.7614 114.737 12.7101 114.843 12.6424 114.934C12.5747 115.025 12.4907 115.102 12.3904 115.165C12.2901 115.228 12.1769 115.28 12.0509 115.322C12.3542 115.418 12.5806 115.564 12.7299 115.76C12.8792 115.956 12.9539 116.202 12.9539 116.498C12.9539 116.75 12.9072 116.973 12.8139 117.167C12.7206 117.361 12.5946 117.524 12.4359 117.657C12.2772 117.788 12.0929 117.887 11.8829 117.954C11.6752 118.022 11.4547 118.056 11.2214 118.056C10.9671 118.056 10.7454 118.027 10.5564 117.968C10.3674 117.91 10.2029 117.824 10.0629 117.709C9.92289 117.595 9.80389 117.455 9.70589 117.289C9.60789 117.124 9.52389 116.932 9.45389 116.715L9.83539 116.558C9.93572 116.516 10.0291 116.505 10.1154 116.526C10.2041 116.545 10.2682 116.592 10.3079 116.666C10.3499 116.748 10.3954 116.829 10.4444 116.908C10.4957 116.987 10.5564 117.058 10.6264 117.121C10.6964 117.182 10.7781 117.232 10.8714 117.272C10.9671 117.309 11.0802 117.328 11.2109 117.328C11.3579 117.328 11.4862 117.305 11.5959 117.258C11.7056 117.209 11.7966 117.146 11.8689 117.069C11.9436 116.992 11.9984 116.907 12.0334 116.813C12.0707 116.718 12.0894 116.622 12.0894 116.526C12.0894 116.405 12.0766 116.295 12.0509 116.197C12.0252 116.097 11.9716 116.012 11.8899 115.942C11.8082 115.872 11.6904 115.817 11.5364 115.777C11.3847 115.738 11.1806 115.718 10.9239 115.718V115.102C11.1362 115.1 11.3124 115.08 11.4524 115.042C11.5924 115.005 11.7032 114.954 11.7849 114.888C11.8689 114.821 11.9272 114.74 11.9599 114.647C11.9926 114.554 12.0089 114.451 12.0089 114.339C12.0089 114.101 11.9424 113.92 11.8094 113.796C11.6764 113.673 11.4991 113.611 11.2774 113.611C11.1747 113.611 11.0802 113.626 10.9939 113.656C10.9076 113.684 10.8294 113.725 10.7594 113.779C10.6917 113.83 10.6346 113.891 10.5879 113.961C10.5412 114.031 10.5062 114.108 10.4829 114.192C10.4432 114.299 10.3907 114.37 10.3254 114.405C10.2624 114.44 10.1726 114.449 10.0559 114.43L9.60089 114.349Z" fill="#FF9300"/>
<rect width="12" height="11" transform="translate(17 110)" fill="#2F1C04"/>
<path d="M20.1156 115.525H21.9286V116.246H20.1156V115.525ZM25.6564 117.195C25.7497 117.195 25.8232 117.222 25.8769 117.275C25.9329 117.327 25.9609 117.396 25.9609 117.482V118H22.4889V117.713C22.4889 117.655 22.5006 117.594 22.5239 117.531C22.5496 117.466 22.5892 117.407 22.6429 117.356L24.1794 115.816C24.3077 115.685 24.4221 115.56 24.5224 115.441C24.6251 115.322 24.7102 115.205 24.7779 115.088C24.8456 114.971 24.8969 114.853 24.9319 114.734C24.9692 114.613 24.9879 114.486 24.9879 114.353C24.9879 114.232 24.9704 114.125 24.9354 114.034C24.9004 113.941 24.8502 113.863 24.7849 113.8C24.7219 113.737 24.6449 113.69 24.5539 113.66C24.4652 113.627 24.3649 113.611 24.2529 113.611C24.1502 113.611 24.0546 113.626 23.9659 113.656C23.8796 113.684 23.8026 113.725 23.7349 113.779C23.6672 113.83 23.6101 113.891 23.5634 113.961C23.5167 114.031 23.4817 114.108 23.4584 114.192C23.4187 114.299 23.3674 114.37 23.3044 114.405C23.2414 114.44 23.1504 114.449 23.0314 114.43L22.5764 114.349C22.6114 114.107 22.6791 113.894 22.7794 113.712C22.8797 113.528 23.0046 113.375 23.1539 113.254C23.3056 113.13 23.4782 113.038 23.6719 112.977C23.8679 112.914 24.0779 112.883 24.3019 112.883C24.5352 112.883 24.7487 112.918 24.9424 112.988C25.1361 113.056 25.3017 113.152 25.4394 113.278C25.5771 113.404 25.6844 113.556 25.7614 113.733C25.8384 113.911 25.8769 114.108 25.8769 114.325C25.8769 114.512 25.8489 114.684 25.7929 114.843C25.7392 115.002 25.6657 115.153 25.5724 115.298C25.4814 115.443 25.3741 115.583 25.2504 115.718C25.1267 115.853 24.9972 115.991 24.8619 116.131L23.7209 117.296C23.8306 117.264 23.9391 117.239 24.0464 117.223C24.1561 117.204 24.2599 117.195 24.3579 117.195H25.6564Z" fill="#FF9300"/>
<rect width="12" height="11" transform="translate(30 110)" fill="#2F1C04"/>
<path d="M33.1156 115.525H34.9286V116.246H33.1156V115.525ZM38.8454 117.352V118H36.0454V117.352H37.0709V114.402C37.0709 114.285 37.0744 114.165 37.0814 114.041L36.3534 114.65C36.3114 114.683 36.2694 114.704 36.2274 114.713C36.1877 114.72 36.1492 114.72 36.1119 114.713C36.0769 114.706 36.0454 114.695 36.0174 114.678C35.9894 114.66 35.9684 114.64 35.9544 114.619L35.6814 114.244L37.2249 112.932H37.9354V117.352H38.8454Z" fill="#FF9300"/>
<rect width="12" height="11" transform="translate(43 110)" fill="#2F1C04"/>
<path d="M50.8547 115.469C50.8547 115.91 50.8069 116.294 50.7112 116.621C50.6179 116.945 50.4872 117.214 50.3192 117.426C50.1536 117.638 49.9564 117.797 49.7277 117.902C49.5014 118.005 49.2564 118.056 48.9927 118.056C48.7291 118.056 48.4841 118.005 48.2577 117.902C48.0337 117.797 47.8389 117.638 47.6732 117.426C47.5076 117.214 47.3781 116.945 47.2847 116.621C47.1914 116.294 47.1447 115.91 47.1447 115.469C47.1447 115.026 47.1914 114.642 47.2847 114.318C47.3781 113.994 47.5076 113.725 47.6732 113.513C47.8389 113.301 48.0337 113.143 48.2577 113.04C48.4841 112.935 48.7291 112.883 48.9927 112.883C49.2564 112.883 49.5014 112.935 49.7277 113.04C49.9564 113.143 50.1536 113.301 50.3192 113.513C50.4872 113.725 50.6179 113.994 50.7112 114.318C50.8069 114.642 50.8547 115.026 50.8547 115.469ZM49.9622 115.469C49.9622 115.103 49.9354 114.8 49.8817 114.559C49.8281 114.319 49.7557 114.128 49.6647 113.985C49.5761 113.843 49.4734 113.744 49.3567 113.688C49.2401 113.63 49.1187 113.6 48.9927 113.6C48.8691 113.6 48.7489 113.63 48.6322 113.688C48.5179 113.744 48.4164 113.843 48.3277 113.985C48.2391 114.128 48.1679 114.319 48.1142 114.559C48.0629 114.8 48.0372 115.103 48.0372 115.469C48.0372 115.836 48.0629 116.139 48.1142 116.379C48.1679 116.62 48.2391 116.811 48.3277 116.953C48.4164 117.096 48.5179 117.196 48.6322 117.254C48.7489 117.31 48.8691 117.338 48.9927 117.338C49.1187 117.338 49.2401 117.31 49.3567 117.254C49.4734 117.196 49.5761 117.096 49.6647 116.953C49.7557 116.811 49.8281 116.62 49.8817 116.379C49.9354 116.139 49.9622 115.836 49.9622 115.469Z" fill="#FF9300"/>
<rect width="12" height="11" transform="translate(56 110)" fill="#2F1C04"/>
<path d="M63.5922 117.352V118H60.7922V117.352H61.8177V114.402C61.8177 114.285 61.8212 114.165 61.8282 114.041L61.1002 114.65C61.0582 114.683 61.0162 114.704 60.9742 114.713C60.9346 114.72 60.8961 114.72 60.8587 114.713C60.8237 114.706 60.7922 114.695 60.7642 114.678C60.7362 114.66 60.7152 114.64 60.7012 114.619L60.4282 114.244L61.9717 112.932H62.6822V117.352H63.5922Z" fill="#FF9300"/>
<rect width="12" height="11" transform="translate(69 110)" fill="#2F1C04"/>
<path d="M76.4032 117.195C76.4966 117.195 76.5701 117.222 76.6237 117.275C76.6797 117.327 76.7077 117.396 76.7077 117.482V118H73.2357V117.713C73.2357 117.655 73.2474 117.594 73.2707 117.531C73.2964 117.466 73.3361 117.407 73.3897 117.356L74.9262 115.816C75.0546 115.685 75.1689 115.56 75.2692 115.441C75.3719 115.322 75.4571 115.205 75.5247 115.088C75.5924 114.971 75.6437 114.853 75.6787 114.734C75.7161 114.613 75.7347 114.486 75.7347 114.353C75.7347 114.232 75.7172 114.125 75.6822 114.034C75.6472 113.941 75.5971 113.863 75.5317 113.8C75.4687 113.737 75.3917 113.69 75.3007 113.66C75.2121 113.627 75.1117 113.611 74.9997 113.611C74.8971 113.611 74.8014 113.626 74.7127 113.656C74.6264 113.684 74.5494 113.725 74.4817 113.779C74.4141 113.83 74.3569 113.891 74.3102 113.961C74.2636 114.031 74.2286 114.108 74.2052 114.192C74.1656 114.299 74.1142 114.37 74.0512 114.405C73.9882 114.44 73.8972 114.449 73.7782 114.43L73.3232 114.349C73.3582 114.107 73.4259 113.894 73.5262 113.712C73.6266 113.528 73.7514 113.375 73.9007 113.254C74.0524 113.13 74.2251 113.038 74.4187 112.977C74.6147 112.914 74.8247 112.883 75.0487 112.883C75.2821 112.883 75.4956 112.918 75.6892 112.988C75.8829 113.056 76.0486 113.152 76.1862 113.278C76.3239 113.404 76.4312 113.556 76.5082 113.733C76.5852 113.911 76.6237 114.108 76.6237 114.325C76.6237 114.512 76.5957 114.684 76.5397 114.843C76.4861 115.002 76.4126 115.153 76.3192 115.298C76.2282 115.443 76.1209 115.583 75.9972 115.718C75.8736 115.853 75.7441 115.991 75.6087 116.131L74.4677 117.296C74.5774 117.264 74.6859 117.239 74.7932 117.223C74.9029 117.204 75.0067 117.195 75.1047 117.195H76.4032Z" fill="#FF9300"/>
<rect width="12" height="11" transform="translate(82 110)" fill="#FF9300"/>
<path d="M86.3477 114.349C86.3827 114.107 86.4504 113.894 86.5507 113.712C86.6511 113.528 86.7759 113.375 86.9252 113.254C87.0769 113.13 87.2496 113.038 87.4432 112.977C87.6392 112.914 87.8492 112.883 88.0732 112.883C88.3066 112.883 88.5166 112.917 88.7032 112.984C88.8922 113.05 89.0532 113.142 89.1862 113.261C89.3192 113.378 89.4207 113.515 89.4907 113.674C89.5631 113.833 89.5992 114.004 89.5992 114.188C89.5992 114.349 89.5806 114.492 89.5432 114.615C89.5082 114.737 89.4569 114.843 89.3892 114.934C89.3216 115.025 89.2376 115.102 89.1372 115.165C89.0369 115.228 88.9237 115.28 88.7977 115.322C89.1011 115.418 89.3274 115.564 89.4767 115.76C89.6261 115.956 89.7007 116.202 89.7007 116.498C89.7007 116.75 89.6541 116.973 89.5607 117.167C89.4674 117.361 89.3414 117.524 89.1827 117.657C89.0241 117.788 88.8397 117.887 88.6297 117.954C88.4221 118.022 88.2016 118.056 87.9682 118.056C87.7139 118.056 87.4922 118.027 87.3032 117.968C87.1142 117.91 86.9497 117.824 86.8097 117.709C86.6697 117.595 86.5507 117.455 86.4527 117.289C86.3547 117.124 86.2707 116.932 86.2007 116.715L86.5822 116.558C86.6826 116.516 86.7759 116.505 86.8622 116.526C86.9509 116.545 87.0151 116.592 87.0547 116.666C87.0967 116.748 87.1422 116.829 87.1912 116.908C87.2426 116.987 87.3032 117.058 87.3732 117.121C87.4432 117.182 87.5249 117.232 87.6182 117.272C87.7139 117.309 87.8271 117.328 87.9577 117.328C88.1047 117.328 88.2331 117.305 88.3427 117.258C88.4524 117.209 88.5434 117.146 88.6157 117.069C88.6904 116.992 88.7452 116.907 88.7802 116.813C88.8176 116.718 88.8362 116.622 88.8362 116.526C88.8362 116.405 88.8234 116.295 88.7977 116.197C88.7721 116.097 88.7184 116.012 88.6367 115.942C88.5551 115.872 88.4372 115.817 88.2832 115.777C88.1316 115.738 87.9274 115.718 87.6707 115.718V115.102C87.8831 115.1 88.0592 115.08 88.1992 115.042C88.3392 115.005 88.4501 114.954 88.5317 114.888C88.6157 114.821 88.6741 114.74 88.7067 114.647C88.7394 114.554 88.7557 114.451 88.7557 114.339C88.7557 114.101 88.6892 113.92 88.5562 113.796C88.4232 113.673 88.2459 113.611 88.0242 113.611C87.9216 113.611 87.8271 113.626 87.7407 113.656C87.6544 113.684 87.5762 113.725 87.5062 113.779C87.4386 113.83 87.3814 113.891 87.3347 113.961C87.2881 114.031 87.2531 114.108 87.2297 114.192C87.1901 114.299 87.1376 114.37 87.0722 114.405C87.0092 114.44 86.9194 114.449 86.8027 114.43L86.3477 114.349Z" fill="#2F1C04"/>
</svg>
