<?xml version="1.0" encoding="utf-8"?>
<svg width="31px" height="24px" viewBox="0 0 31 24" version="1.1" xmlns:xlink="http://www.w3.org/1999/xlink" xmlns="http://www.w3.org/2000/svg">
  <desc>Created with Lunacy</desc>
  <defs>
    <rect width="31" height="24" id="artboard_1" />
    <clipPath id="clip_1">
      <use xlink:href="#artboard_1" clip-rule="evenodd" />
    </clipPath>
  </defs>
  <g id="bmp00171" clip-path="url(#clip_1)">
    <g id="On" transform="translate(0.5 12.5)">
      <path d="M2.999 0L27.001 0Q27.1483 0 27.295 0.014441Q27.4416 0.028882 27.5861 0.0576249Q27.7306 0.0863679 27.8716 0.129136Q28.0125 0.171904 28.1487 0.228285Q28.2848 0.284667 28.4147 0.354118Q28.5447 0.42357 28.6672 0.505423Q28.7897 0.587276 28.9035 0.680742Q29.0174 0.774208 29.1216 0.878387Q29.2258 0.982566 29.3193 1.09645Q29.4127 1.21034 29.4946 1.33284Q29.5764 1.45535 29.6459 1.58528Q29.7153 1.71522 29.7717 1.85133Q29.8281 1.98745 29.8709 2.12844Q29.9136 2.26942 29.9424 2.41392Q29.9711 2.55842 29.9856 2.70505Q30 2.85167 30 2.999L30 8.001Q30 8.14833 29.9856 8.29495Q29.9711 8.44158 29.9424 8.58607Q29.9136 8.73058 29.8709 8.87156Q29.8281 9.01255 29.7717 9.14867Q29.7153 9.28478 29.6459 9.41472Q29.5764 9.54465 29.4946 9.66715Q29.4127 9.78966 29.3193 9.90354Q29.2258 10.0174 29.1216 10.1216Q29.0174 10.2258 28.9035 10.3193Q28.7897 10.4127 28.6672 10.4946Q28.5447 10.5764 28.4147 10.6459Q28.2848 10.7153 28.1487 10.7717Q28.0125 10.8281 27.8716 10.8709Q27.7306 10.9136 27.5861 10.9424Q27.4416 10.9711 27.295 10.9856Q27.1483 11 27.001 11L2.999 11Q2.85167 11 2.70505 10.9856Q2.55842 10.9711 2.41392 10.9424Q2.26942 10.9136 2.12844 10.8709Q1.98745 10.8281 1.85133 10.7717Q1.71522 10.7153 1.58528 10.6459Q1.45535 10.5764 1.33284 10.4946Q1.21034 10.4127 1.09645 10.3193Q0.982566 10.2258 0.878387 10.1216Q0.774208 10.0174 0.680742 9.90354Q0.587276 9.78966 0.505423 9.66715Q0.42357 9.54465 0.354118 9.41472Q0.284667 9.28478 0.228285 9.14867Q0.171904 9.01255 0.129136 8.87156Q0.0863679 8.73058 0.0576249 8.58607Q0.028882 8.44158 0.014441 8.29495Q0 8.14833 0 8.001L0 2.999Q0 2.85167 0.014441 2.70505Q0.028882 2.55842 0.0576249 2.41392Q0.0863679 2.26942 0.129136 2.12844Q0.171904 1.98745 0.228285 1.85133Q0.284667 1.71522 0.354118 1.58528Q0.42357 1.45535 0.505423 1.33284Q0.587276 1.21034 0.680742 1.09645Q0.774208 0.982566 0.878387 0.878387Q0.982566 0.774208 1.09645 0.680742Q1.21034 0.587276 1.33284 0.505423Q1.45535 0.42357 1.58528 0.354118Q1.71522 0.284667 1.85133 0.228285Q1.98745 0.171904 2.12844 0.129136Q2.26942 0.0863679 2.41392 0.0576249Q2.55842 0.028882 2.70505 0.014441Q2.85167 0 2.999 0Z" id="Frame" fill="#D8D8D8" fill-rule="evenodd" stroke="#979797" stroke-width="1" />
      <path d="M1.999 0L25.001 0Q25.0992 0 25.1969 0.00962573Q25.2947 0.0192515 25.391 0.0384102Q25.4873 0.057569 25.5813 0.0860763Q25.6753 0.114584 25.766 0.152165Q25.8567 0.189746 25.9433 0.236039Q26.0299 0.282333 26.1116 0.336892Q26.1932 0.391452 26.2691 0.453752Q26.3451 0.516052 26.4145 0.585494Q26.4839 0.654935 26.5462 0.730848Q26.6085 0.806761 26.6631 0.888415Q26.7177 0.970069 26.764 1.05668Q26.8103 1.14329 26.8478 1.23402Q26.8854 1.32474 26.9139 1.41872Q26.9424 1.5127 26.9616 1.60901Q26.9807 1.70533 26.9904 1.80306Q27 1.9008 27 1.999L27 6.001Q27 6.0992 26.9904 6.19694Q26.9807 6.29467 26.9616 6.39099Q26.9424 6.4873 26.9139 6.58128Q26.8854 6.67525 26.8478 6.76598Q26.8103 6.85671 26.764 6.94332Q26.7177 7.02993 26.6631 7.11158Q26.6085 7.19324 26.5462 7.26915Q26.4839 7.34507 26.4145 7.41451Q26.3451 7.48395 26.2691 7.54625Q26.1932 7.60855 26.1116 7.66311Q26.0299 7.71767 25.9433 7.76396Q25.8567 7.81025 25.766 7.84783Q25.6753 7.88542 25.5813 7.91392Q25.4873 7.94243 25.391 7.96159Q25.2947 7.98075 25.1969 7.99037Q25.0992 8 25.001 8L1.999 8Q1.9008 8 1.80306 7.99037Q1.70533 7.98075 1.60901 7.96159Q1.5127 7.94243 1.41872 7.91392Q1.32474 7.88542 1.23402 7.84783Q1.14329 7.81025 1.05668 7.76396Q0.970069 7.71767 0.888415 7.66311Q0.806761 7.60855 0.730848 7.54625Q0.654935 7.48395 0.585494 7.41451Q0.516052 7.34507 0.453752 7.26915Q0.391452 7.19324 0.336892 7.11158Q0.282333 7.02993 0.236039 6.94332Q0.189746 6.85671 0.152165 6.76598Q0.114584 6.67525 0.0860763 6.58128Q0.057569 6.4873 0.0384102 6.39098Q0.0192515 6.29467 0.00962573 6.19694Q0 6.0992 0 6.001L0 1.999Q0 1.9008 0.00962573 1.80306Q0.0192515 1.70533 0.0384102 1.60901Q0.057569 1.5127 0.0860763 1.41872Q0.114584 1.32474 0.152165 1.23402Q0.189746 1.14329 0.236039 1.05668Q0.282333 0.970069 0.336892 0.888415Q0.391452 0.806761 0.453752 0.730848Q0.516052 0.654935 0.585494 0.585494Q0.654935 0.516052 0.730848 0.453752Q0.806761 0.391452 0.888415 0.336892Q0.970069 0.282333 1.05668 0.236039Q1.14329 0.189746 1.23402 0.152165Q1.32474 0.114584 1.41872 0.0860763Q1.5127 0.057569 1.60901 0.0384102Q1.70533 0.0192515 1.80306 0.00962573Q1.9008 0 1.999 0L1.999 0Z" transform="translate(1.5 1.5)" id="Glow" fill="#FF9000" fill-rule="evenodd" stroke="none" />
      <path d="M6.70955 0L6.70955 6.4485L5.9445 6.4485L5.9445 1.71C5.9445 1.647 5.94675 1.5795 5.95125 1.5075C5.95575 1.4355 5.961 1.362 5.967 1.287L3.753 5.319C3.684 5.454 3.579 5.5215 3.438 5.5215L3.312 5.5215C3.171 5.5215 3.066 5.454 2.997 5.319L0.738 1.269C0.756 1.428 0.764999 1.575 0.764999 1.71L0.764999 6.4485L0 6.4485L0 0L0.643499 0C0.721499 0 0.7815 0.00749969 0.8235 0.0225C0.865499 0.0374994 0.906 0.0794992 0.945 0.148499L3.1725 4.1175C3.2085 4.1895 3.24375 4.2645 3.27825 4.3425C3.31275 4.4205 3.345 4.5 3.375 4.581C3.405 4.5 3.4365 4.41975 3.4695 4.34025C3.5025 4.26075 3.5385 4.185 3.5775 4.113L5.7645 0.148499C5.8005 0.0794992 5.84025 0.0374994 5.88375 0.0225C5.92725 0.00749969 5.988 0 6.066 0L6.70955 0L6.70955 0ZM10.06 0C10.468 0 10.8227 0.0472498 11.1242 0.141749C11.4257 0.23625 11.6754 0.3705 11.8734 0.544499C12.0714 0.7185 12.2192 0.9285 12.3167 1.1745C12.4143 1.4205 12.463 1.695 12.463 1.998C12.463 2.298 12.4105 2.5725 12.3054 2.8215C12.2004 3.0705 12.0467 3.285 11.8442 3.465C11.6418 3.645 11.3913 3.78525 11.0927 3.88575C10.7943 3.98625 10.45 4.0365 10.06 4.0365L9.02505 4.0365L9.02505 6.4485L8.15645 6.4485L8.15645 0L10.06 0L10.06 0ZM17.3345 6.4485L17.3391 5.7375L14.234 5.7375L14.234 3.537L16.745 3.537L16.745 2.853L14.234 2.853L14.234 0.710999L17.3345 0.710999L17.3345 0L13.3611 0L13.3611 6.4485L17.3345 6.4485L17.3345 6.4485ZM10.0601 3.3435C10.309 3.3435 10.5288 3.3105 10.7192 3.2445C10.9098 3.1785 11.0703 3.08625 11.2007 2.96775C11.3313 2.84925 11.4295 2.7075 11.4955 2.5425C11.5615 2.3775 11.5945 2.196 11.5946 1.998C11.5945 1.587 11.4677 1.266 11.2142 1.035C10.9608 0.804 10.576 0.6885 10.0601 0.6885L9.02505 0.6885L9.02505 3.3435L10.0601 3.3435L10.0601 3.3435Z" transform="translate(6.4000015 2.28)" id="MPE" fill="#000000" fill-rule="evenodd" stroke="none" />
    </g>
    <g id="Off" transform="translate(0.5 0.5)">
      <path d="M2.999 0L27.001 0Q27.1483 0 27.295 0.014441Q27.4416 0.028882 27.5861 0.0576249Q27.7306 0.0863679 27.8716 0.129136Q28.0125 0.171904 28.1487 0.228285Q28.2848 0.284667 28.4147 0.354118Q28.5447 0.42357 28.6672 0.505423Q28.7897 0.587276 28.9035 0.680742Q29.0174 0.774208 29.1216 0.878387Q29.2258 0.982566 29.3193 1.09645Q29.4127 1.21034 29.4946 1.33284Q29.5764 1.45535 29.6459 1.58528Q29.7153 1.71522 29.7717 1.85133Q29.8281 1.98745 29.8709 2.12844Q29.9136 2.26942 29.9424 2.41392Q29.9711 2.55842 29.9856 2.70505Q30 2.85167 30 2.999L30 8.001Q30 8.14833 29.9856 8.29495Q29.9711 8.44158 29.9424 8.58607Q29.9136 8.73058 29.8709 8.87156Q29.8281 9.01255 29.7717 9.14867Q29.7153 9.28478 29.6459 9.41472Q29.5764 9.54465 29.4946 9.66715Q29.4127 9.78966 29.3193 9.90354Q29.2258 10.0174 29.1216 10.1216Q29.0174 10.2258 28.9035 10.3193Q28.7897 10.4127 28.6672 10.4946Q28.5447 10.5764 28.4147 10.6459Q28.2848 10.7153 28.1487 10.7717Q28.0125 10.8281 27.8716 10.8709Q27.7306 10.9136 27.5861 10.9424Q27.4416 10.9711 27.295 10.9856Q27.1483 11 27.001 11L2.999 11Q2.85167 11 2.70505 10.9856Q2.55842 10.9711 2.41392 10.9424Q2.26942 10.9136 2.12844 10.8709Q1.98745 10.8281 1.85133 10.7717Q1.71522 10.7153 1.58528 10.6459Q1.45535 10.5764 1.33284 10.4946Q1.21034 10.4127 1.09645 10.3193Q0.982566 10.2258 0.878387 10.1216Q0.774208 10.0174 0.680742 9.90354Q0.587276 9.78966 0.505423 9.66715Q0.42357 9.54465 0.354118 9.41472Q0.284667 9.28478 0.228285 9.14867Q0.171904 9.01255 0.129136 8.87156Q0.0863679 8.73058 0.0576249 8.58607Q0.028882 8.44158 0.014441 8.29495Q0 8.14833 0 8.001L0 2.999Q0 2.85167 0.014441 2.70505Q0.028882 2.55842 0.0576249 2.41392Q0.0863679 2.26942 0.129136 2.12844Q0.171904 1.98745 0.228285 1.85133Q0.284667 1.71522 0.354118 1.58528Q0.42357 1.45535 0.505423 1.33284Q0.587276 1.21034 0.680742 1.09645Q0.774208 0.982566 0.878387 0.878387Q0.982566 0.774208 1.09645 0.680742Q1.21034 0.587276 1.33284 0.505423Q1.45535 0.42357 1.58528 0.354118Q1.71522 0.284667 1.85133 0.228285Q1.98745 0.171904 2.12844 0.129136Q2.26942 0.0863679 2.41392 0.0576249Q2.55842 0.028882 2.70505 0.014441Q2.85167 0 2.999 0Z" id="Frame" fill="#D8D8D8" fill-rule="evenodd" stroke="#979797" stroke-width="1" />
      <path d="M6.70955 0L6.70955 6.4485L5.9445 6.4485L5.9445 1.71C5.9445 1.647 5.94675 1.5795 5.95125 1.5075C5.95575 1.4355 5.961 1.362 5.967 1.287L3.753 5.319C3.684 5.454 3.579 5.5215 3.438 5.5215L3.312 5.5215C3.171 5.5215 3.066 5.454 2.997 5.319L0.738 1.269C0.756 1.428 0.764999 1.575 0.764999 1.71L0.764999 6.4485L0 6.4485L0 0L0.643499 0C0.721499 0 0.7815 0.00749969 0.8235 0.0225C0.865499 0.0374994 0.906 0.0794992 0.945 0.148499L3.1725 4.1175C3.2085 4.1895 3.24375 4.2645 3.27825 4.3425C3.31275 4.4205 3.345 4.5 3.375 4.581C3.405 4.5 3.4365 4.41975 3.4695 4.34025C3.5025 4.26075 3.5385 4.185 3.5775 4.113L5.7645 0.148499C5.8005 0.0794992 5.84025 0.0374994 5.88375 0.0225C5.92725 0.00749969 5.988 0 6.066 0L6.70955 0L6.70955 0ZM10.06 0C10.468 0 10.8227 0.0472498 11.1242 0.141749C11.4257 0.23625 11.6754 0.3705 11.8734 0.544499C12.0714 0.7185 12.2192 0.9285 12.3167 1.1745C12.4143 1.4205 12.463 1.695 12.463 1.998C12.463 2.298 12.4105 2.5725 12.3054 2.8215C12.2004 3.0705 12.0467 3.285 11.8442 3.465C11.6418 3.645 11.3913 3.78525 11.0927 3.88575C10.7943 3.98625 10.45 4.0365 10.06 4.0365L9.02505 4.0365L9.02505 6.4485L8.15645 6.4485L8.15645 0L10.06 0L10.06 0ZM17.3345 6.4485L17.3391 5.7375L14.234 5.7375L14.234 3.537L16.745 3.537L16.745 2.853L14.234 2.853L14.234 0.710999L17.3345 0.710999L17.3345 0L13.3611 0L13.3611 6.4485L17.3345 6.4485L17.3345 6.4485ZM10.0601 3.3435C10.309 3.3435 10.5288 3.3105 10.7192 3.2445C10.9098 3.1785 11.0703 3.08625 11.2007 2.96775C11.3313 2.84925 11.4295 2.7075 11.4955 2.5425C11.5615 2.3775 11.5945 2.196 11.5946 1.998C11.5945 1.587 11.4677 1.266 11.2142 1.035C10.9608 0.804 10.576 0.6885 10.0601 0.6885L9.02505 0.6885L9.02505 3.3435L10.0601 3.3435L10.0601 3.3435Z" transform="translate(6.4000015 2.28)" id="MPE" fill="#000000" fill-rule="evenodd" stroke="none" />
    </g>
  </g>
</svg>