<svg width="18" height="288" viewBox="0 0 18 288" fill="none" xmlns="http://www.w3.org/2000/svg">
<path fill-rule="evenodd" clip-rule="evenodd" d="M3 9H15V8H3V9Z" fill="#FF9000"/>
<path d="M7.53782 27.0874C12.3895 27.1067 13.9887 30.6776 13.9916 32L15 31.9974C14.9956 30.0171 12.8547 25.8931 7.28155 26.0021H3V27.0894H7.24682C7.26152 27.089 7.27622 27.0897 7.29087 27.0894H7.53782V27.0874Z" fill="#FF9000"/>
<path fill-rule="evenodd" clip-rule="evenodd" d="M10 45H3V44H10C11.3139 44 12.5974 44.2883 13.5437 45.2492C14.4867 46.2067 15 47.736 15 50H14C14 47.864 13.5133 46.6433 12.8313 45.9508C12.1526 45.2617 11.1861 45 10 45Z" fill="#FF9000"/>
<path fill-rule="evenodd" clip-rule="evenodd" d="M9.06942 60.4795L9.42954 59.5282L12.5258 61.1864L12.1611 62.1352L9.06942 60.4795ZM8.71239 61.4226L8.27513 62.5777L11.3566 64.228L11.7994 63.076L8.71239 61.4226ZM7.51129 64.5955L7.91809 63.5209L10.9949 65.1687L10.5829 66.2405L7.51129 64.5955ZM7.15425 65.5387L6.46764 67.3524L5.53241 66.9984L9.41465 56.7429L10.3499 57.0969L9.78658 58.585L12.8875 60.2457L13.5333 58.5657L14.4667 58.9245L10.5319 69.1599L9.59854 68.8011L10.2213 67.1812L7.15425 65.5387Z" fill="#FF9000"/>
<path d="M10.4622 81.0874C5.61047 81.1067 4.01134 84.6776 4.0084 86L3 85.9974C3.0044 84.0171 5.14529 79.8931 10.7185 80.0021H15V81.0894H10.7532C10.7385 81.089 10.7238 81.0897 10.7091 81.0894H10.4622V81.0874Z" fill="#FF9000"/>
<path fill-rule="evenodd" clip-rule="evenodd" d="M8 99H15V98H8C6.68615 98 5.40257 98.2883 4.45626 99.2492C3.51326 100.207 3 101.736 3 104H4C4 101.864 4.48674 100.643 5.16874 99.9508C5.84743 99.2617 6.81385 99 8 99Z" fill="#FF9000"/>
<path fill-rule="evenodd" clip-rule="evenodd" d="M5.00577 118.855C4.25511 119.897 4 121.163 4 122H3C3 121.003 3.29489 119.519 4.19423 118.27C5.11193 116.996 6.63704 116 9 116C11.363 116 12.8881 116.996 13.8058 118.27C14.7051 119.519 15 121.003 15 122H14C14 121.163 13.7449 119.897 12.9942 118.855C12.2619 117.838 11.037 117 9 117C6.96296 117 5.73807 117.838 5.00577 118.855Z" fill="#FF9000"/>
<path fill-rule="evenodd" clip-rule="evenodd" d="M6.61327 135.697C6.00115 135.289 5.16251 135 4 135V134C5.33749 134 6.37385 134.336 7.16798 134.865C7.95897 135.393 8.48006 136.092 8.82221 136.776C8.88763 136.907 8.94669 137.038 9 137.167C9.05332 137.038 9.11237 136.907 9.17779 136.776C9.51994 136.092 10.041 135.393 10.832 134.865C11.6261 134.336 12.6625 134 14 134V135C12.8375 135 11.9989 135.289 11.3867 135.697C10.7715 136.107 10.3551 136.658 10.0722 137.224C9.78839 137.791 9.64399 138.365 9.57132 138.801C9.53519 139.018 9.51731 139.197 9.50849 139.321C9.50409 139.382 9.50197 139.43 9.50094 139.461C9.50043 139.476 9.5002 139.487 9.50009 139.494L9.5 139.499C9.49977 139.775 9.276 140 9 140C8.72412 140 8.50043 139.777 8.5 139.501C8.5 139.501 8.5 139.501 8.5 139.501L8.49991 139.494C8.4998 139.487 8.49957 139.476 8.49906 139.461C8.49803 139.43 8.49591 139.382 8.49151 139.321C8.48269 139.197 8.46481 139.018 8.42868 138.801C8.35601 138.365 8.21161 137.791 7.92779 137.224C7.64494 136.658 7.22853 136.107 6.61327 135.697Z" fill="#FF9000"/>
<path fill-rule="evenodd" clip-rule="evenodd" d="M3.92227 153.862C3.59018 153.154 3.22781 153 3 153V152C3.77219 152 4.40982 152.546 4.82773 153.438C4.88875 153.568 4.94627 153.707 5 153.857C5.05373 153.707 5.11125 153.568 5.17227 153.438C5.59018 152.546 6.22781 152 7 152C7.33749 152 7.68635 152.086 8.01172 152.303C8.33397 152.518 8.60506 152.842 8.82221 153.276C8.90504 153.442 8.98122 153.626 9.05022 153.83C9.19423 153.428 9.37873 153.048 9.61737 152.74C9.94229 152.321 10.3995 152 11 152C11.6005 152 12.0577 152.321 12.3826 152.74C12.65 153.085 12.8494 153.52 13 153.976C13.1506 153.52 13.35 153.085 13.6174 152.74C13.9423 152.321 14.3995 152 15 152V153C14.8005 153 14.6077 153.095 14.4076 153.353C14.2006 153.62 14.0224 154.02 13.8805 154.513C13.5979 155.495 13.5 156.694 13.5 157.5C13.5 157.776 13.2761 158 13 158C12.7239 158 12.5 157.776 12.5 157.5C12.5 156.694 12.4021 155.495 12.1195 154.513C11.9776 154.02 11.7994 153.62 11.5924 153.353C11.3923 153.095 11.1995 153 11 153C10.8005 153 10.6077 153.095 10.4076 153.353C10.2006 153.62 10.0224 154.02 9.88047 154.513C9.59789 155.495 9.5 156.694 9.5 157.5C9.5 157.776 9.27614 158 9 158C8.72386 158 8.5 157.776 8.5 157.5C8.5 155.526 8.25055 154.369 7.92779 153.724C7.76994 153.408 7.60353 153.232 7.45703 153.135C7.31365 153.039 7.16251 153 7 153C6.77219 153 6.40982 153.154 6.07773 153.862C5.74656 154.569 5.5 155.736 5.5 157.5C5.5 157.776 5.27614 158 5 158C4.72386 158 4.5 157.776 4.5 157.5C4.5 155.736 4.25344 154.569 3.92227 153.862Z" fill="#FF9000"/>
<path d="M5.08541 169.436C5.05041 169.492 5.01308 169.534 4.97341 169.562C4.93608 169.59 4.88708 169.604 4.82641 169.604C4.77275 169.604 4.71441 169.588 4.65141 169.555C4.59075 169.52 4.52075 169.482 4.44141 169.44C4.36441 169.398 4.27575 169.361 4.17541 169.328C4.07508 169.293 3.96075 169.275 3.83241 169.275C3.61075 169.275 3.44508 169.323 3.33541 169.419C3.22808 169.512 3.17441 169.639 3.17441 169.8C3.17441 169.903 3.20708 169.988 3.27241 170.056C3.33775 170.124 3.42291 170.182 3.52791 170.231C3.63525 170.28 3.75658 170.325 3.89191 170.367C4.02958 170.407 4.16958 170.453 4.31191 170.504C4.45425 170.553 4.59308 170.611 4.72841 170.679C4.86608 170.747 4.98741 170.833 5.09241 170.938C5.19975 171.043 5.28608 171.171 5.35141 171.323C5.41675 171.472 5.44941 171.653 5.44941 171.865C5.44941 172.101 5.40858 172.322 5.32691 172.527C5.24525 172.732 5.12625 172.912 4.96991 173.066C4.81591 173.218 4.62458 173.338 4.39591 173.426C4.16958 173.513 3.91175 173.556 3.62241 173.556C3.46375 173.556 3.30158 173.54 3.13591 173.507C2.97258 173.474 2.81391 173.429 2.65991 173.37C2.50591 173.31 2.36125 173.239 2.22591 173.157C2.09058 173.075 1.97275 172.984 1.87241 172.884L2.22241 172.331C2.25041 172.291 2.28658 172.259 2.33091 172.233C2.37758 172.205 2.42775 172.191 2.48141 172.191C2.55141 172.191 2.62141 172.213 2.69141 172.257C2.76375 172.302 2.84425 172.351 2.93291 172.404C3.02391 172.458 3.12775 172.507 3.24441 172.551C3.36108 172.596 3.49875 172.618 3.65741 172.618C3.87208 172.618 4.03891 172.571 4.15791 172.478C4.27691 172.382 4.33641 172.232 4.33641 172.026C4.33641 171.907 4.30375 171.811 4.23841 171.736C4.17308 171.661 4.08675 171.599 3.97941 171.55C3.87441 171.501 3.75425 171.458 3.61891 171.421C3.48358 171.384 3.34475 171.343 3.20241 171.298C3.06008 171.252 2.92125 171.196 2.78591 171.13C2.65058 171.063 2.52925 170.975 2.42191 170.868C2.31691 170.758 2.23175 170.623 2.16641 170.462C2.10108 170.299 2.06841 170.098 2.06841 169.86C2.06841 169.669 2.10691 169.482 2.18391 169.3C2.26091 169.118 2.37408 168.956 2.52341 168.813C2.67275 168.671 2.85591 168.558 3.07291 168.474C3.28991 168.388 3.53841 168.344 3.81841 168.344C3.97475 168.344 4.12641 168.357 4.27341 168.383C4.42275 168.406 4.56391 168.442 4.69691 168.491C4.82991 168.538 4.95358 168.595 5.06791 168.663C5.18458 168.728 5.28841 168.803 5.37941 168.887L5.08541 169.436ZM7.31639 171.239C7.18806 171.346 7.09706 171.462 7.04339 171.585C6.98972 171.707 6.96289 171.836 6.96289 171.974C6.96289 172.086 6.97922 172.187 7.01189 172.278C7.04689 172.369 7.09589 172.448 7.15889 172.513C7.22189 172.578 7.29656 172.63 7.38289 172.667C7.47156 172.702 7.56956 172.719 7.67689 172.719C7.83322 172.719 7.97906 172.7 8.11439 172.66C8.24972 172.618 8.37572 172.56 8.49239 172.485L7.31639 171.239ZM10.8059 173.5H9.73489C9.68122 173.5 9.63339 173.498 9.59139 173.493C9.54939 173.486 9.50972 173.475 9.47239 173.461C9.43739 173.447 9.40356 173.428 9.37089 173.402C9.33822 173.376 9.30322 173.344 9.26589 173.304L9.04539 173.073C8.82372 173.227 8.58106 173.346 8.31739 173.43C8.05606 173.514 7.77722 173.556 7.48089 173.556C7.27789 173.556 7.07839 173.521 6.88239 173.451C6.68872 173.381 6.51606 173.282 6.36439 173.153C6.21272 173.023 6.09022 172.865 5.99689 172.681C5.90356 172.497 5.85689 172.29 5.85689 172.061C5.85689 171.907 5.88022 171.762 5.92689 171.624C5.97589 171.486 6.04356 171.359 6.12989 171.242C6.21856 171.123 6.32239 171.016 6.44139 170.92C6.56039 170.822 6.69222 170.737 6.83689 170.665C6.72489 170.495 6.64439 170.328 6.59539 170.164C6.54639 170.001 6.52189 169.842 6.52189 169.688C6.52189 169.506 6.55456 169.335 6.61989 169.174C6.68756 169.011 6.78439 168.868 6.91039 168.747C7.03872 168.623 7.19506 168.525 7.37939 168.453C7.56606 168.381 7.77956 168.344 8.01989 168.344C8.24622 168.344 8.44572 168.378 8.61839 168.446C8.79106 168.511 8.93689 168.599 9.05589 168.708C9.17489 168.816 9.26822 168.941 9.33589 169.083C9.40356 169.225 9.44556 169.371 9.46189 169.52L8.76189 169.66C8.63822 169.688 8.54722 169.639 8.48889 169.513C8.43522 169.392 8.37222 169.3 8.29989 169.237C8.22989 169.174 8.13656 169.142 8.01989 169.142C7.93822 169.142 7.86706 169.158 7.80639 169.188C7.74572 169.218 7.69439 169.258 7.65239 169.307C7.61272 169.356 7.58239 169.413 7.56139 169.478C7.54039 169.544 7.52989 169.611 7.52989 169.681C7.52989 169.742 7.53456 169.8 7.54389 169.856C7.55556 169.91 7.57422 169.966 7.59989 170.024C7.62556 170.08 7.65939 170.139 7.70139 170.199C7.74572 170.26 7.80056 170.327 7.86589 170.399L9.12589 171.725C9.18889 171.588 9.24022 171.443 9.27989 171.291C9.31956 171.137 9.34522 170.98 9.35689 170.819C9.36389 170.754 9.38606 170.702 9.42339 170.665C9.46072 170.628 9.51089 170.609 9.57389 170.609H10.2599C10.2599 170.947 10.2144 171.265 10.1234 171.561C10.0324 171.857 9.90406 172.128 9.73839 172.373L10.8059 173.5ZM15.7297 168.4V173.5H14.5397V171.344H12.4677V173.5H11.2777V168.4H12.4677V170.532H14.5397V168.4H15.7297Z" fill="#FF9000"/>
<path fill-rule="evenodd" clip-rule="evenodd" d="M9.0914 186.479L9.45151 185.528L12.5478 187.186L12.1831 188.135L9.0914 186.479ZM8.73436 187.423L8.2971 188.578L11.3785 190.228L11.8214 189.076L8.73436 187.423ZM7.53326 190.595L7.94006 189.521L11.0169 191.169L10.6049 192.241L7.53326 190.595ZM7.17622 191.539L6.48961 193.352L5.55438 192.998L9.43662 182.743L10.3719 183.097L9.80855 184.585L12.9094 186.246L13.5553 184.566L14.4887 184.925L10.5539 195.16L9.62051 194.801L10.2432 193.181L7.17622 191.539Z" fill="#FF9000"/>
<path d="M6.76416 182.885L5.30416 186.5H4.69666L3.23666 182.885H3.77666C3.83499 182.885 3.88249 182.899 3.91916 182.927C3.95583 182.956 3.98333 182.992 4.00166 183.037L4.85416 185.242C4.88249 185.314 4.90916 185.393 4.93416 185.48C4.96083 185.565 4.98583 185.654 5.00916 185.747C5.02916 185.654 5.05083 185.565 5.07416 185.48C5.09749 185.393 5.12333 185.314 5.15166 185.242L5.99916 183.037C6.01249 182.999 6.03833 182.964 6.07666 182.932C6.11666 182.901 6.16499 182.885 6.22166 182.885H6.76416Z" fill="#FF9000"/>
<path fill-rule="evenodd" clip-rule="evenodd" d="M6.61327 207.697C6.00115 207.289 5.16251 207 4 207V206C5.33749 206 6.37385 206.336 7.16798 206.865C7.95897 207.393 8.48006 208.092 8.82221 208.776C8.88763 208.907 8.94669 209.038 9 209.167C9.05332 209.038 9.11237 208.907 9.17779 208.776C9.51994 208.092 10.041 207.393 10.832 206.865C11.6261 206.336 12.6625 206 14 206V207C12.8375 207 11.9989 207.289 11.3867 207.697C10.7715 208.107 10.3551 208.658 10.0722 209.224C9.78839 209.791 9.64399 210.365 9.57132 210.801C9.53519 211.018 9.51731 211.197 9.50849 211.321C9.50409 211.382 9.50197 211.43 9.50094 211.461C9.50043 211.476 9.5002 211.487 9.50009 211.494L9.5 211.499L9.5 211.5L9.5 211.5C9.5 211.501 9.5 211.501 9.5 211.501L9.5 211.501L9.5 211.5C9.49977 211.776 9.276 212 9 212C8.72412 212 8.50043 211.777 8.5 211.501L8.5 211.501C8.5 211.501 8.5 211.501 8.5 211.5L8.49991 211.494C8.4998 211.487 8.49957 211.476 8.49906 211.461C8.49803 211.43 8.49591 211.382 8.49151 211.321C8.48269 211.197 8.46481 211.018 8.42868 210.801C8.35601 210.365 8.21161 209.791 7.92779 209.224C7.64494 208.658 7.22853 208.107 6.61327 207.697Z" fill="white"/>
<path d="M10.4622 207.087C5.61047 207.107 4.01134 210.678 4.0084 212L3 211.997C3.0044 210.017 5.14529 205.893 10.7185 206.002H15V207.089H10.7532C10.7385 207.089 10.7238 207.09 10.7091 207.089H10.4622V207.087Z" fill="#FF9300"/>
<path d="M7.53782 207.087C12.3895 207.107 13.9887 210.678 13.9916 212L15 211.997C14.9956 210.017 12.8547 205.893 7.28155 206.002H3V207.089H7.24682C7.26152 207.089 7.27622 207.09 7.29087 207.089H7.53782V207.087Z" fill="#5DACF8"/>
<path d="M5.29629 203.192C5.29629 203.457 5.25212 203.703 5.16379 203.93C5.07712 204.155 4.95379 204.35 4.79379 204.515C4.63379 204.68 4.44129 204.809 4.21629 204.902C3.99129 204.994 3.74129 205.04 3.46629 205.04C3.19296 205.04 2.94379 204.994 2.71879 204.902C2.49379 204.809 2.30046 204.68 2.13879 204.515C1.97879 204.35 1.85462 204.155 1.76629 203.93C1.67796 203.703 1.63379 203.457 1.63379 203.192C1.63379 202.927 1.67796 202.682 1.76629 202.457C1.85462 202.231 1.97879 202.035 2.13879 201.87C2.30046 201.705 2.49379 201.577 2.71879 201.485C2.94379 201.392 3.19296 201.345 3.46629 201.345C3.64962 201.345 3.82212 201.367 3.98379 201.41C4.14546 201.452 4.29379 201.512 4.42879 201.59C4.56379 201.667 4.68462 201.761 4.79129 201.872C4.89962 201.982 4.99129 202.106 5.06629 202.242C5.14129 202.379 5.19796 202.527 5.23629 202.687C5.27629 202.847 5.29629 203.016 5.29629 203.192ZM4.60879 203.192C4.60879 202.994 4.58212 202.817 4.52879 202.66C4.47546 202.502 4.39962 202.367 4.30129 202.257C4.20296 202.147 4.08296 202.063 3.94129 202.005C3.80129 201.947 3.64296 201.917 3.46629 201.917C3.28962 201.917 3.13046 201.947 2.98879 202.005C2.84879 202.063 2.72879 202.147 2.62879 202.257C2.53046 202.367 2.45462 202.502 2.40129 202.66C2.34796 202.817 2.32129 202.994 2.32129 203.192C2.32129 203.391 2.34796 203.569 2.40129 203.727C2.45462 203.884 2.53046 204.017 2.62879 204.127C2.72879 204.236 2.84879 204.319 2.98879 204.377C3.13046 204.436 3.28962 204.465 3.46629 204.465C3.64296 204.465 3.80129 204.436 3.94129 204.377C4.08296 204.319 4.20296 204.236 4.30129 204.127C4.39962 204.017 4.47546 203.884 4.52879 203.727C4.58212 203.569 4.60879 203.391 4.60879 203.192ZM7.23938 204.475C7.36438 204.475 7.46938 204.46 7.55438 204.43C7.63938 204.4 7.70688 204.36 7.75688 204.31C7.80854 204.26 7.84521 204.202 7.86688 204.135C7.89021 204.068 7.90188 203.997 7.90188 203.922C7.90188 203.844 7.88938 203.774 7.86438 203.712C7.83938 203.649 7.80021 203.596 7.74688 203.552C7.69354 203.507 7.62438 203.473 7.53938 203.45C7.45604 203.427 7.35521 203.415 7.23688 203.415H6.55938V204.475H7.23938ZM6.55938 201.905V202.95H7.09438C7.32438 202.95 7.49771 202.908 7.61438 202.825C7.73271 202.742 7.79188 202.609 7.79188 202.427C7.79188 202.239 7.73854 202.105 7.63188 202.025C7.52521 201.945 7.35854 201.905 7.13188 201.905H6.55938ZM7.13188 201.385C7.36854 201.385 7.57104 201.407 7.73938 201.452C7.90771 201.497 8.04521 201.562 8.15188 201.645C8.26021 201.728 8.33938 201.829 8.38938 201.947C8.43938 202.066 8.46438 202.199 8.46438 202.347C8.46438 202.432 8.45188 202.514 8.42688 202.592C8.40188 202.669 8.36271 202.742 8.30937 202.81C8.25771 202.877 8.19104 202.937 8.10938 202.992C8.02938 203.047 7.93354 203.094 7.82188 203.132C8.31854 203.244 8.56688 203.512 8.56688 203.937C8.56688 204.091 8.53771 204.232 8.47938 204.362C8.42104 204.492 8.33604 204.605 8.22438 204.7C8.11271 204.793 7.97521 204.867 7.81188 204.92C7.64854 204.973 7.46188 205 7.25188 205H5.88688V201.385H7.13188ZM9.06039 203.232H10.3554V203.747H9.06039V203.232ZM13.8634 205H13.1934C13.1468 205 13.1093 204.988 13.0809 204.965C13.0543 204.942 13.0326 204.915 13.0159 204.885L12.1784 203.497C12.1651 203.539 12.1493 203.575 12.1309 203.605L11.3284 204.885C11.3084 204.913 11.2851 204.94 11.2584 204.965C11.2334 204.988 11.2001 205 11.1584 205H10.5309L11.7309 203.14L10.5784 201.385H11.2484C11.2951 201.385 11.3284 201.392 11.3484 201.405C11.3701 201.417 11.3901 201.437 11.4084 201.465L12.2309 202.79C12.2476 202.748 12.2676 202.707 12.2909 202.665L13.0459 201.477C13.0643 201.446 13.0843 201.422 13.1059 201.407C13.1276 201.392 13.1551 201.385 13.1884 201.385H13.8309L12.6684 203.112L13.8634 205ZM15.6318 203.09C15.5618 203.005 15.4851 202.945 15.4018 202.91C15.3201 202.875 15.2318 202.857 15.1368 202.857C15.0435 202.857 14.9593 202.875 14.8843 202.91C14.8093 202.945 14.7451 202.998 14.6918 203.07C14.6385 203.14 14.5976 203.23 14.5693 203.34C14.541 203.448 14.5268 203.577 14.5268 203.725C14.5268 203.875 14.5385 204.002 14.5618 204.107C14.5868 204.211 14.6218 204.296 14.6668 204.362C14.7118 204.427 14.7668 204.475 14.8318 204.505C14.8968 204.533 14.9693 204.547 15.0493 204.547C15.1776 204.547 15.2868 204.521 15.3768 204.467C15.4668 204.414 15.5518 204.338 15.6318 204.24V203.09ZM16.2493 201.285V205H15.8718C15.7901 205 15.7385 204.962 15.7168 204.887L15.6643 204.64C15.561 204.758 15.4418 204.854 15.3068 204.927C15.1735 205.001 15.0176 205.038 14.8393 205.038C14.6993 205.038 14.571 205.008 14.4543 204.95C14.3376 204.892 14.2368 204.807 14.1518 204.697C14.0685 204.586 14.0035 204.448 13.9568 204.285C13.9118 204.122 13.8893 203.935 13.8893 203.725C13.8893 203.535 13.9151 203.358 13.9668 203.195C14.0185 203.032 14.0926 202.89 14.1893 202.77C14.286 202.65 14.4018 202.557 14.5368 202.49C14.6718 202.422 14.8235 202.387 14.9918 202.387C15.1351 202.387 15.2576 202.41 15.3593 202.455C15.461 202.5 15.5518 202.561 15.6318 202.637V201.285H16.2493Z" fill="#FF9000"/>
<path fill-rule="evenodd" clip-rule="evenodd" d="M10 225H3V224H10C11.3139 224 12.5974 224.288 13.5437 225.249C14.4867 226.207 15 227.736 15 230H14C14 227.864 13.5133 226.643 12.8313 225.951C12.1526 225.262 11.1861 225 10 225Z" fill="#FF9000"/>
<path d="M5.29629 221.192C5.29629 221.457 5.25212 221.703 5.16379 221.93C5.07712 222.155 4.95379 222.35 4.79379 222.515C4.63379 222.68 4.44129 222.809 4.21629 222.902C3.99129 222.994 3.74129 223.04 3.46629 223.04C3.19296 223.04 2.94379 222.994 2.71879 222.902C2.49379 222.809 2.30046 222.68 2.13879 222.515C1.97879 222.35 1.85462 222.155 1.76629 221.93C1.67796 221.703 1.63379 221.457 1.63379 221.192C1.63379 220.927 1.67796 220.682 1.76629 220.457C1.85462 220.231 1.97879 220.035 2.13879 219.87C2.30046 219.705 2.49379 219.577 2.71879 219.485C2.94379 219.392 3.19296 219.345 3.46629 219.345C3.64962 219.345 3.82212 219.367 3.98379 219.41C4.14546 219.452 4.29379 219.512 4.42879 219.59C4.56379 219.667 4.68462 219.761 4.79129 219.872C4.89962 219.982 4.99129 220.106 5.06629 220.242C5.14129 220.379 5.19796 220.527 5.23629 220.687C5.27629 220.847 5.29629 221.016 5.29629 221.192ZM4.60879 221.192C4.60879 220.994 4.58212 220.817 4.52879 220.66C4.47546 220.502 4.39962 220.367 4.30129 220.257C4.20296 220.147 4.08296 220.063 3.94129 220.005C3.80129 219.947 3.64296 219.917 3.46629 219.917C3.28962 219.917 3.13046 219.947 2.98879 220.005C2.84879 220.063 2.72879 220.147 2.62879 220.257C2.53046 220.367 2.45462 220.502 2.40129 220.66C2.34796 220.817 2.32129 220.994 2.32129 221.192C2.32129 221.391 2.34796 221.569 2.40129 221.727C2.45462 221.884 2.53046 222.017 2.62879 222.127C2.72879 222.236 2.84879 222.319 2.98879 222.377C3.13046 222.436 3.28962 222.465 3.46629 222.465C3.64296 222.465 3.80129 222.436 3.94129 222.377C4.08296 222.319 4.20296 222.236 4.30129 222.127C4.39962 222.017 4.47546 221.884 4.52879 221.727C4.58212 221.569 4.60879 221.391 4.60879 221.192ZM7.23938 222.475C7.36438 222.475 7.46938 222.46 7.55438 222.43C7.63938 222.4 7.70688 222.36 7.75688 222.31C7.80854 222.26 7.84521 222.202 7.86688 222.135C7.89021 222.068 7.90188 221.997 7.90188 221.922C7.90188 221.844 7.88938 221.774 7.86438 221.712C7.83938 221.649 7.80021 221.596 7.74688 221.552C7.69354 221.507 7.62438 221.473 7.53938 221.45C7.45604 221.427 7.35521 221.415 7.23688 221.415H6.55938V222.475H7.23938ZM6.55938 219.905V220.95H7.09438C7.32438 220.95 7.49771 220.908 7.61438 220.825C7.73271 220.742 7.79188 220.609 7.79188 220.427C7.79188 220.239 7.73854 220.105 7.63188 220.025C7.52521 219.945 7.35854 219.905 7.13188 219.905H6.55938ZM7.13188 219.385C7.36854 219.385 7.57104 219.407 7.73938 219.452C7.90771 219.497 8.04521 219.562 8.15188 219.645C8.26021 219.728 8.33938 219.829 8.38938 219.947C8.43938 220.066 8.46438 220.199 8.46438 220.347C8.46438 220.432 8.45188 220.514 8.42688 220.592C8.40188 220.669 8.36271 220.742 8.30937 220.81C8.25771 220.877 8.19104 220.937 8.10938 220.992C8.02938 221.047 7.93354 221.094 7.82188 221.132C8.31854 221.244 8.56688 221.512 8.56688 221.937C8.56688 222.091 8.53771 222.232 8.47938 222.362C8.42104 222.492 8.33604 222.605 8.22438 222.7C8.11271 222.793 7.97521 222.867 7.81188 222.92C7.64854 222.973 7.46188 223 7.25188 223H5.88688V219.385H7.13188ZM9.06039 221.232H10.3554V221.747H9.06039V221.232ZM13.8634 223H13.1934C13.1468 223 13.1093 222.988 13.0809 222.965C13.0543 222.942 13.0326 222.915 13.0159 222.885L12.1784 221.497C12.1651 221.539 12.1493 221.575 12.1309 221.605L11.3284 222.885C11.3084 222.913 11.2851 222.94 11.2584 222.965C11.2334 222.988 11.2001 223 11.1584 223H10.5309L11.7309 221.14L10.5784 219.385H11.2484C11.2951 219.385 11.3284 219.392 11.3484 219.405C11.3701 219.417 11.3901 219.437 11.4084 219.465L12.2309 220.79C12.2476 220.748 12.2676 220.707 12.2909 220.665L13.0459 219.477C13.0643 219.446 13.0843 219.422 13.1059 219.407C13.1276 219.392 13.1551 219.385 13.1884 219.385H13.8309L12.6684 221.112L13.8634 223ZM15.6318 221.09C15.5618 221.005 15.4851 220.945 15.4018 220.91C15.3201 220.875 15.2318 220.857 15.1368 220.857C15.0435 220.857 14.9593 220.875 14.8843 220.91C14.8093 220.945 14.7451 220.998 14.6918 221.07C14.6385 221.14 14.5976 221.23 14.5693 221.34C14.541 221.448 14.5268 221.577 14.5268 221.725C14.5268 221.875 14.5385 222.002 14.5618 222.107C14.5868 222.211 14.6218 222.296 14.6668 222.362C14.7118 222.427 14.7668 222.475 14.8318 222.505C14.8968 222.533 14.9693 222.547 15.0493 222.547C15.1776 222.547 15.2868 222.521 15.3768 222.467C15.4668 222.414 15.5518 222.338 15.6318 222.24V221.09ZM16.2493 219.285V223H15.8718C15.7901 223 15.7385 222.962 15.7168 222.887L15.6643 222.64C15.561 222.758 15.4418 222.854 15.3068 222.927C15.1735 223.001 15.0176 223.038 14.8393 223.038C14.6993 223.038 14.571 223.008 14.4543 222.95C14.3376 222.892 14.2368 222.807 14.1518 222.697C14.0685 222.586 14.0035 222.448 13.9568 222.285C13.9118 222.122 13.8893 221.935 13.8893 221.725C13.8893 221.535 13.9151 221.358 13.9668 221.195C14.0185 221.032 14.0926 220.89 14.1893 220.77C14.286 220.65 14.4018 220.557 14.5368 220.49C14.6718 220.422 14.8235 220.387 14.9918 220.387C15.1351 220.387 15.2576 220.41 15.3593 220.455C15.461 220.5 15.5518 220.561 15.6318 220.637V219.285H16.2493Z" fill="#FF9000"/>
<path d="M7.53782 243.087C12.3895 243.107 13.9887 246.678 13.9916 248L15 247.997C14.9956 246.017 12.8547 241.893 7.28155 242.002H3V243.089H7.24682C7.26152 243.089 7.27622 243.09 7.29087 243.089H7.53782V243.087Z" fill="#FF9000"/>
<path d="M5.46074 238.9H5.61824C5.68158 238.9 5.73408 238.892 5.77574 238.875C5.81741 238.857 5.85324 238.828 5.88324 238.79L6.88074 237.527C6.92241 237.474 6.96574 237.437 7.01074 237.417C7.05741 237.396 7.11574 237.385 7.18574 237.385H7.76574L6.54824 238.887C6.47658 238.979 6.40241 239.044 6.32574 239.082C6.38074 239.102 6.42991 239.131 6.47324 239.167C6.51824 239.202 6.56074 239.249 6.60074 239.307L7.85574 241H7.26324C7.18324 241 7.12324 240.989 7.08324 240.967C7.04491 240.944 7.01241 240.911 6.98574 240.867L5.96324 239.532C5.93158 239.487 5.89491 239.456 5.85324 239.438C5.81158 239.419 5.75158 239.41 5.67324 239.41H5.46074V241H4.78824V237.385H5.46074V238.9ZM8.08348 238.392C8.10848 238.219 8.15681 238.067 8.22848 237.937C8.30014 237.806 8.38931 237.697 8.49598 237.61C8.60431 237.522 8.72764 237.456 8.86598 237.412C9.00598 237.367 9.15598 237.345 9.31598 237.345C9.48264 237.345 9.63264 237.369 9.76598 237.417C9.90098 237.464 10.016 237.53 10.111 237.615C10.206 237.698 10.2785 237.797 10.3285 237.91C10.3801 238.023 10.406 238.146 10.406 238.277C10.406 238.392 10.3926 238.494 10.366 238.582C10.341 238.669 10.3043 238.745 10.256 238.81C10.2076 238.875 10.1476 238.93 10.076 238.975C10.0043 239.02 9.92348 239.057 9.83348 239.087C10.0501 239.156 10.2118 239.26 10.3185 239.4C10.4251 239.54 10.4785 239.716 10.4785 239.927C10.4785 240.107 10.4451 240.267 10.3785 240.405C10.3118 240.543 10.2218 240.66 10.1085 240.755C9.99514 240.848 9.86348 240.919 9.71348 240.967C9.56514 241.016 9.40764 241.04 9.24098 241.04C9.05931 241.04 8.90098 241.019 8.76598 240.977C8.63098 240.936 8.51348 240.874 8.41348 240.792C8.31348 240.711 8.22848 240.611 8.15848 240.492C8.08848 240.374 8.02848 240.237 7.97848 240.082L8.25098 239.97C8.32264 239.94 8.38931 239.932 8.45098 239.947C8.51431 239.961 8.56014 239.994 8.58848 240.047C8.61848 240.106 8.65098 240.163 8.68598 240.22C8.72264 240.277 8.76598 240.327 8.81598 240.372C8.86598 240.416 8.92431 240.452 8.99098 240.48C9.05931 240.507 9.14014 240.52 9.23348 240.52C9.33848 240.52 9.43014 240.503 9.50848 240.47C9.58681 240.435 9.65181 240.39 9.70348 240.335C9.75681 240.28 9.79598 240.219 9.82098 240.152C9.84764 240.084 9.86098 240.016 9.86098 239.947C9.86098 239.861 9.85181 239.782 9.83348 239.712C9.81514 239.641 9.77681 239.58 9.71848 239.53C9.66014 239.48 9.57598 239.441 9.46598 239.412C9.35764 239.384 9.21181 239.37 9.02848 239.37V238.93C9.18014 238.928 9.30598 238.914 9.40598 238.887C9.50598 238.861 9.58514 238.824 9.64348 238.777C9.70348 238.729 9.74514 238.672 9.76848 238.605C9.79181 238.538 9.80348 238.465 9.80348 238.385C9.80348 238.215 9.75598 238.086 9.66098 237.997C9.56598 237.909 9.43931 237.865 9.28098 237.865C9.20764 237.865 9.14014 237.876 9.07848 237.897C9.01681 237.917 8.96098 237.947 8.91098 237.985C8.86264 238.022 8.82181 238.065 8.78848 238.115C8.75514 238.165 8.73014 238.22 8.71348 238.28C8.68514 238.357 8.64764 238.407 8.60098 238.432C8.55598 238.457 8.49181 238.463 8.40848 238.45L8.08348 238.392ZM11.7289 238.697C11.8089 238.681 11.8855 238.669 11.9589 238.662C12.0322 238.654 12.103 238.65 12.1714 238.65C12.3614 238.65 12.5289 238.678 12.6739 238.735C12.8189 238.792 12.9405 238.87 13.0389 238.97C13.1372 239.07 13.2114 239.187 13.2614 239.322C13.3114 239.456 13.3364 239.6 13.3364 239.755C13.3364 239.947 13.3022 240.122 13.2339 240.28C13.1672 240.438 13.0739 240.574 12.9539 240.688C12.8339 240.799 12.6914 240.886 12.5264 240.947C12.363 241.009 12.1847 241.04 11.9914 241.04C11.878 241.04 11.7705 241.028 11.6689 241.005C11.5672 240.982 11.4714 240.951 11.3814 240.912C11.293 240.872 11.2105 240.827 11.1339 240.777C11.0589 240.726 10.9914 240.672 10.9314 240.615L11.1214 240.352C11.1614 240.296 11.2139 240.267 11.2789 240.267C11.3205 240.267 11.363 240.281 11.4064 240.307C11.4497 240.334 11.4989 240.363 11.5539 240.395C11.6105 240.427 11.6764 240.456 11.7514 240.482C11.828 240.509 11.9197 240.522 12.0264 240.522C12.1397 240.522 12.2397 240.504 12.3264 240.467C12.413 240.431 12.4847 240.38 12.5414 240.315C12.5997 240.248 12.643 240.17 12.6714 240.08C12.7014 239.988 12.7164 239.889 12.7164 239.782C12.7164 239.586 12.6589 239.432 12.5439 239.322C12.4305 239.211 12.2622 239.155 12.0389 239.155C11.8672 239.155 11.6914 239.187 11.5114 239.25L11.1264 239.14L11.4264 237.385H13.2114V237.647C13.2114 237.736 13.1839 237.807 13.1289 237.862C13.0739 237.917 12.9805 237.945 12.8489 237.945H11.8564L11.7289 238.697Z" fill="#FF9000"/>
<path d="M10.4622 261.087C5.61047 261.107 4.01134 264.678 4.0084 266L3 265.997C3.0044 264.017 5.14529 259.893 10.7185 260.002H15V261.089H10.7532C10.7385 261.089 10.7238 261.09 10.7091 261.089H10.4622V261.087Z" fill="#FF9000"/>
<path d="M5.46074 256.9H5.61824C5.68158 256.9 5.73408 256.892 5.77574 256.875C5.81741 256.857 5.85324 256.828 5.88324 256.79L6.88074 255.527C6.92241 255.474 6.96574 255.437 7.01074 255.417C7.05741 255.396 7.11574 255.385 7.18574 255.385H7.76574L6.54824 256.887C6.47658 256.979 6.40241 257.044 6.32574 257.082C6.38074 257.102 6.42991 257.131 6.47324 257.167C6.51824 257.202 6.56074 257.249 6.60074 257.307L7.85574 259H7.26324C7.18324 259 7.12324 258.989 7.08324 258.967C7.04491 258.944 7.01241 258.911 6.98574 258.867L5.96324 257.532C5.93158 257.487 5.89491 257.456 5.85324 257.438C5.81158 257.419 5.75158 257.41 5.67324 257.41H5.46074V259H4.78824V255.385H5.46074V256.9ZM8.08348 256.392C8.10848 256.219 8.15681 256.067 8.22848 255.937C8.30014 255.806 8.38931 255.697 8.49598 255.61C8.60431 255.522 8.72764 255.456 8.86598 255.412C9.00598 255.367 9.15598 255.345 9.31598 255.345C9.48264 255.345 9.63264 255.369 9.76598 255.417C9.90098 255.464 10.016 255.53 10.111 255.615C10.206 255.698 10.2785 255.797 10.3285 255.91C10.3801 256.023 10.406 256.146 10.406 256.277C10.406 256.392 10.3926 256.494 10.366 256.582C10.341 256.669 10.3043 256.745 10.256 256.81C10.2076 256.875 10.1476 256.93 10.076 256.975C10.0043 257.02 9.92348 257.057 9.83348 257.087C10.0501 257.156 10.2118 257.26 10.3185 257.4C10.4251 257.54 10.4785 257.716 10.4785 257.927C10.4785 258.107 10.4451 258.267 10.3785 258.405C10.3118 258.543 10.2218 258.66 10.1085 258.755C9.99514 258.848 9.86348 258.919 9.71348 258.967C9.56514 259.016 9.40764 259.04 9.24098 259.04C9.05931 259.04 8.90098 259.019 8.76598 258.977C8.63098 258.936 8.51348 258.874 8.41348 258.792C8.31348 258.711 8.22848 258.611 8.15848 258.492C8.08848 258.374 8.02848 258.237 7.97848 258.082L8.25098 257.97C8.32264 257.94 8.38931 257.932 8.45098 257.947C8.51431 257.961 8.56014 257.994 8.58848 258.047C8.61848 258.106 8.65098 258.163 8.68598 258.22C8.72264 258.277 8.76598 258.327 8.81598 258.372C8.86598 258.416 8.92431 258.452 8.99098 258.48C9.05931 258.507 9.14014 258.52 9.23348 258.52C9.33848 258.52 9.43014 258.503 9.50848 258.47C9.58681 258.435 9.65181 258.39 9.70348 258.335C9.75681 258.28 9.79598 258.219 9.82098 258.152C9.84764 258.084 9.86098 258.016 9.86098 257.947C9.86098 257.861 9.85181 257.782 9.83348 257.712C9.81514 257.641 9.77681 257.58 9.71848 257.53C9.66014 257.48 9.57598 257.441 9.46598 257.412C9.35764 257.384 9.21181 257.37 9.02848 257.37V256.93C9.18014 256.928 9.30598 256.914 9.40598 256.887C9.50598 256.861 9.58514 256.824 9.64348 256.777C9.70348 256.729 9.74514 256.672 9.76848 256.605C9.79181 256.538 9.80348 256.465 9.80348 256.385C9.80348 256.215 9.75598 256.086 9.66098 255.997C9.56598 255.909 9.43931 255.865 9.28098 255.865C9.20764 255.865 9.14014 255.876 9.07848 255.897C9.01681 255.917 8.96098 255.947 8.91098 255.985C8.86264 256.022 8.82181 256.065 8.78848 256.115C8.75514 256.165 8.73014 256.22 8.71348 256.28C8.68514 256.357 8.64764 256.407 8.60098 256.432C8.55598 256.457 8.49181 256.463 8.40848 256.45L8.08348 256.392ZM11.7289 256.697C11.8089 256.681 11.8855 256.669 11.9589 256.662C12.0322 256.654 12.103 256.65 12.1714 256.65C12.3614 256.65 12.5289 256.678 12.6739 256.735C12.8189 256.792 12.9405 256.87 13.0389 256.97C13.1372 257.07 13.2114 257.187 13.2614 257.322C13.3114 257.456 13.3364 257.6 13.3364 257.755C13.3364 257.947 13.3022 258.122 13.2339 258.28C13.1672 258.438 13.0739 258.574 12.9539 258.688C12.8339 258.799 12.6914 258.886 12.5264 258.947C12.363 259.009 12.1847 259.04 11.9914 259.04C11.878 259.04 11.7705 259.028 11.6689 259.005C11.5672 258.982 11.4714 258.951 11.3814 258.912C11.293 258.872 11.2105 258.827 11.1339 258.777C11.0589 258.726 10.9914 258.672 10.9314 258.615L11.1214 258.352C11.1614 258.296 11.2139 258.267 11.2789 258.267C11.3205 258.267 11.363 258.281 11.4064 258.307C11.4497 258.334 11.4989 258.363 11.5539 258.395C11.6105 258.427 11.6764 258.456 11.7514 258.482C11.828 258.509 11.9197 258.522 12.0264 258.522C12.1397 258.522 12.2397 258.504 12.3264 258.467C12.413 258.431 12.4847 258.38 12.5414 258.315C12.5997 258.248 12.643 258.17 12.6714 258.08C12.7014 257.988 12.7164 257.889 12.7164 257.782C12.7164 257.586 12.6589 257.432 12.5439 257.322C12.4305 257.211 12.2622 257.155 12.0389 257.155C11.8672 257.155 11.6914 257.187 11.5114 257.25L11.1264 257.14L11.4264 255.385H13.2114V255.647C13.2114 255.736 13.1839 255.807 13.1289 255.862C13.0739 255.917 12.9805 255.945 12.8489 255.945H11.8564L11.7289 256.697Z" fill="#FF9000"/>
<path fill-rule="evenodd" clip-rule="evenodd" d="M9.0914 276.479L9.45151 275.528L12.5478 277.186L12.1831 278.135L9.0914 276.479ZM8.73436 277.423L8.2971 278.578L11.3785 280.228L11.8214 279.076L8.73436 277.423ZM7.53326 280.595L7.94006 279.521L11.0169 281.169L10.6049 282.241L7.53326 280.595ZM7.17622 281.539L6.48961 283.352L5.55438 282.998L9.43662 272.743L10.3719 273.097L9.80855 274.585L12.9094 276.246L13.5553 274.566L14.4887 274.925L10.5539 285.16L9.62051 284.801L10.2432 283.181L7.17622 281.539Z" fill="#FF9000"/>
<path d="M6.71064 274.692C6.71064 274.957 6.66648 275.201 6.57814 275.422C6.48981 275.644 6.36564 275.835 6.20564 275.995C6.04564 276.155 5.85314 276.279 5.62814 276.367C5.40314 276.456 5.15314 276.5 4.87814 276.5H3.50064V272.885H4.87814C5.15314 272.885 5.40314 272.93 5.62814 273.02C5.85314 273.108 6.04564 273.232 6.20564 273.392C6.36564 273.551 6.48981 273.741 6.57814 273.962C6.66648 274.184 6.71064 274.427 6.71064 274.692ZM6.02064 274.692C6.02064 274.494 5.99398 274.317 5.94064 274.16C5.88898 274.002 5.81314 273.868 5.71314 273.76C5.61481 273.65 5.49481 273.566 5.35314 273.507C5.21314 273.449 5.05481 273.42 4.87814 273.42H4.17564V275.965H4.87814C5.05481 275.965 5.21314 275.936 5.35314 275.877C5.49481 275.819 5.61481 275.736 5.71314 275.627C5.81314 275.517 5.88898 275.384 5.94064 275.227C5.99398 275.069 6.02064 274.891 6.02064 274.692Z" fill="#FF9000"/>
</svg>
