<?xml version="1.0" encoding="utf-8"?>
<svg width="12px" height="14px" viewBox="0 0 12 14" version="1.1" xmlns:xlink="http://www.w3.org/1999/xlink" xmlns="http://www.w3.org/2000/svg">
  <desc>Created with Lunacy</desc>
  <defs>
    <rect width="12" height="14" id="artboard_1" />
    <clipPath id="clip_1">
      <use xlink:href="#artboard_1" clip-rule="evenodd" />
    </clipPath>
  </defs>
  <g id="bmp00170" clip-path="url(#clip_1)">
    <path d="M7.2405 1.74855L9.99919 3.45082L9.99609 0L0.833309 0C0.398557 0.00204206 -0.000953688 0.364527 1.63813e-06 0.760213L0.00422287 7.40797L1.89201 7.8848C1.9904 7.90811 2.08927 7.855 2.12053 7.76909L2.58993 6.21894C2.62108 6.10926 2.76495 6.05933 2.87268 6.12421L7.38871 8.92632C7.55909 9.03082 7.4336 9.2768 7.2368 9.22423L3.75728 8.35579C3.6589 8.33248 3.55586 8.3856 3.53378 8.47572L3.07271 10.0258C3.04156 10.1355 2.89353 10.1855 2.79079 10.1206L0.00529257 8.3819L0.00748361 12L9.16664 12C9.63304 11.9978 9.9994 11.6066 10 11.1872L9.99535 4.44431L8.13011 3.98095C8.03089 3.9568 7.93285 4.01075 7.90575 4.09664L7.42221 5.65026C7.3869 5.76081 7.24801 5.80562 7.1403 5.74583L2.61925 2.93949C2.44887 2.83415 2.57436 2.58902 2.77115 2.64074L6.25067 3.50918C6.34989 3.53334 6.44793 3.48023 6.47586 3.39434L6.95857 1.83903C6.9939 1.73357 7.13277 1.68367 7.2405 1.74855L7.2405 1.74855L7.2405 1.74855Z" transform="translate(1.0000257 1.000001)" id="Logo" fill="#FF9000" fill-rule="evenodd" stroke="none" />
  </g>
</svg>