<svg width="180" height="108" viewBox="0 0 180 108" fill="none" xmlns="http://www.w3.org/2000/svg">
<path fill-rule="evenodd" clip-rule="evenodd" d="M3 9H15V8H3V9Z" fill="#FF9000"/>
<path d="M7.53782 26.0874C12.3895 26.1067 13.9887 29.6776 13.9916 31L15 30.9974C14.9956 29.0171 12.8547 24.8931 7.28155 25.0021H3V26.0894H7.24682C7.26152 26.089 7.27622 26.0897 7.29087 26.0894H7.53782V26.0874Z" fill="#FF9000"/>
<path fill-rule="evenodd" clip-rule="evenodd" d="M28 26H21V25H28C29.3139 25 30.5974 25.2883 31.5437 26.2492C32.4867 27.2067 33 28.736 33 31H32C32 28.864 31.5133 27.6433 30.8313 26.9508C30.1526 26.2617 29.1861 26 28 26Z" fill="#FF9000"/>
<path d="M43.5378 26.0874C48.3895 26.1067 49.9887 29.6776 49.9916 31L51 30.9974C50.9956 29.0171 48.8547 24.8931 43.2815 25.0021H39V26.0894H43.2468C43.2615 26.089 43.2762 26.0897 43.2909 26.0894H43.5378V26.0874Z" fill="#FF9000"/>
<path d="M41.4607 21.9H41.6182C41.6816 21.9 41.7341 21.8917 41.7757 21.875C41.8174 21.8567 41.8532 21.8283 41.8832 21.79L42.8807 20.5275C42.9224 20.4742 42.9657 20.4375 43.0107 20.4175C43.0574 20.3958 43.1157 20.385 43.1857 20.385H43.7657L42.5482 21.8875C42.4766 21.9792 42.4024 22.0442 42.3257 22.0825C42.3807 22.1025 42.4299 22.1308 42.4732 22.1675C42.5182 22.2025 42.5607 22.2492 42.6007 22.3075L43.8557 24H43.2632C43.1832 24 43.1232 23.9892 43.0832 23.9675C43.0449 23.9442 43.0124 23.9108 42.9857 23.8675L41.9632 22.5325C41.9316 22.4875 41.8949 22.4558 41.8532 22.4375C41.8116 22.4192 41.7516 22.41 41.6732 22.41H41.4607V24H40.7882V20.385H41.4607V21.9ZM44.0835 21.3925C44.1085 21.2192 44.1568 21.0675 44.2285 20.9375C44.3001 20.8058 44.3893 20.6967 44.496 20.61C44.6043 20.5217 44.7276 20.4558 44.866 20.4125C45.006 20.3675 45.156 20.345 45.316 20.345C45.4826 20.345 45.6326 20.3692 45.766 20.4175C45.901 20.4642 46.016 20.53 46.111 20.615C46.206 20.6983 46.2785 20.7967 46.3285 20.91C46.3801 21.0233 46.406 21.1458 46.406 21.2775C46.406 21.3925 46.3926 21.4942 46.366 21.5825C46.341 21.6692 46.3043 21.745 46.256 21.81C46.2076 21.875 46.1476 21.93 46.076 21.975C46.0043 22.02 45.9235 22.0575 45.8335 22.0875C46.0501 22.1558 46.2118 22.26 46.3185 22.4C46.4251 22.54 46.4785 22.7158 46.4785 22.9275C46.4785 23.1075 46.4451 23.2667 46.3785 23.405C46.3118 23.5433 46.2218 23.66 46.1085 23.755C45.9951 23.8483 45.8635 23.9192 45.7135 23.9675C45.5651 24.0158 45.4076 24.04 45.241 24.04C45.0593 24.04 44.901 24.0192 44.766 23.9775C44.631 23.9358 44.5135 23.8742 44.4135 23.7925C44.3135 23.7108 44.2285 23.6108 44.1585 23.4925C44.0885 23.3742 44.0285 23.2375 43.9785 23.0825L44.251 22.97C44.3226 22.94 44.3893 22.9325 44.451 22.9475C44.5143 22.9608 44.5601 22.9942 44.5885 23.0475C44.6185 23.1058 44.651 23.1633 44.686 23.22C44.7226 23.2767 44.766 23.3275 44.816 23.3725C44.866 23.4158 44.9243 23.4517 44.991 23.48C45.0593 23.5067 45.1401 23.52 45.2335 23.52C45.3385 23.52 45.4301 23.5033 45.5085 23.47C45.5868 23.435 45.6518 23.39 45.7035 23.335C45.7568 23.28 45.796 23.2192 45.821 23.1525C45.8476 23.0842 45.861 23.0158 45.861 22.9475C45.861 22.8608 45.8518 22.7825 45.8335 22.7125C45.8151 22.6408 45.7768 22.58 45.7185 22.53C45.6601 22.48 45.576 22.4408 45.466 22.4125C45.3576 22.3842 45.2118 22.37 45.0285 22.37V21.93C45.1801 21.9283 45.306 21.9142 45.406 21.8875C45.506 21.8608 45.5851 21.8242 45.6435 21.7775C45.7035 21.7292 45.7451 21.6717 45.7685 21.605C45.7918 21.5383 45.8035 21.465 45.8035 21.385C45.8035 21.215 45.756 21.0858 45.661 20.9975C45.566 20.9092 45.4393 20.865 45.281 20.865C45.2076 20.865 45.1401 20.8758 45.0785 20.8975C45.0168 20.9175 44.961 20.9467 44.911 20.985C44.8626 21.0217 44.8218 21.065 44.7885 21.115C44.7551 21.165 44.7301 21.22 44.7135 21.28C44.6851 21.3567 44.6476 21.4075 44.601 21.4325C44.556 21.4575 44.4918 21.4633 44.4085 21.45L44.0835 21.3925ZM47.7289 21.6975C47.8089 21.6808 47.8855 21.6692 47.9589 21.6625C48.0322 21.6542 48.103 21.65 48.1714 21.65C48.3614 21.65 48.5289 21.6783 48.6739 21.735C48.8189 21.7917 48.9405 21.87 49.0389 21.97C49.1372 22.07 49.2114 22.1875 49.2614 22.3225C49.3114 22.4558 49.3364 22.6 49.3364 22.755C49.3364 22.9467 49.3022 23.1217 49.2339 23.28C49.1672 23.4383 49.0739 23.5742 48.9539 23.6875C48.8339 23.7992 48.6914 23.8858 48.5264 23.9475C48.363 24.0092 48.1847 24.04 47.9914 24.04C47.878 24.04 47.7705 24.0283 47.6689 24.005C47.5672 23.9817 47.4714 23.9508 47.3814 23.9125C47.293 23.8725 47.2105 23.8275 47.1339 23.7775C47.0589 23.7258 46.9914 23.6717 46.9314 23.615L47.1214 23.3525C47.1614 23.2958 47.2139 23.2675 47.2789 23.2675C47.3205 23.2675 47.363 23.2808 47.4064 23.3075C47.4497 23.3342 47.4989 23.3633 47.5539 23.395C47.6105 23.4267 47.6764 23.4558 47.7514 23.4825C47.828 23.5092 47.9197 23.5225 48.0264 23.5225C48.1397 23.5225 48.2397 23.5042 48.3264 23.4675C48.413 23.4308 48.4847 23.38 48.5414 23.315C48.5997 23.2483 48.643 23.17 48.6714 23.08C48.7014 22.9883 48.7164 22.8892 48.7164 22.7825C48.7164 22.5858 48.6589 22.4325 48.5439 22.3225C48.4305 22.2108 48.2622 22.155 48.0389 22.155C47.8672 22.155 47.6914 22.1867 47.5114 22.25L47.1264 22.14L47.4264 20.385H49.2114V20.6475C49.2114 20.7358 49.1839 20.8075 49.1289 20.8625C49.0739 20.9175 48.9805 20.945 48.8489 20.945H47.8564L47.7289 21.6975Z" fill="#FF9000"/>
<path fill-rule="evenodd" clip-rule="evenodd" d="M63.0694 24.4795L63.4295 23.5282L66.5258 25.1864L66.161 26.1352L63.0694 24.4795ZM62.7124 25.4226L62.2751 26.5777L65.3565 28.228L65.7994 27.076L62.7124 25.4226ZM61.5113 28.5955L61.9181 27.5209L64.9949 29.1687L64.5829 30.2405L61.5113 28.5955ZM61.1542 29.5387L60.4676 31.3524L59.5324 30.9984L63.4146 20.7429L64.3499 21.0969L63.7865 22.585L66.8874 24.2457L67.5333 22.5657L68.4667 22.9245L64.5319 33.1599L63.5985 32.8011L64.2212 31.1812L61.1542 29.5387Z" fill="#FF9000"/>
<path d="M60.2212 23.445V24H58.1037V20.385H58.7762V23.445H60.2212Z" fill="#FF9000"/>
<path fill-rule="evenodd" clip-rule="evenodd" d="M81.0694 24.4795L81.4295 23.5282L84.5258 25.1864L84.161 26.1352L81.0694 24.4795ZM80.7124 25.4226L80.2751 26.5777L83.3565 28.228L83.7994 27.076L80.7124 25.4226ZM79.5113 28.5955L79.9181 27.5209L82.9949 29.1687L82.5829 30.2405L79.5113 28.5955ZM79.1542 29.5387L78.4676 31.3524L77.5324 30.9984L81.4146 20.7429L82.3499 21.0969L81.7865 22.585L84.8874 24.2457L85.5333 22.5657L86.4667 22.9245L82.5319 33.1599L81.5985 32.8011L82.2212 31.1812L79.1542 29.5387Z" fill="#FF9000"/>
<path d="M78.7642 20.385L77.3042 24H76.6967L75.2367 20.385H75.7767C75.835 20.385 75.8825 20.3992 75.9192 20.4275C75.9558 20.4558 75.9833 20.4925 76.0017 20.5375L76.8542 22.7425C76.8825 22.8142 76.9092 22.8933 76.9342 22.98C76.9608 23.065 76.9858 23.1542 77.0092 23.2475C77.0292 23.1542 77.0508 23.065 77.0742 22.98C77.0975 22.8933 77.1233 22.8142 77.1517 22.7425L77.9992 20.5375C78.0125 20.4992 78.0383 20.4642 78.0767 20.4325C78.1167 20.4008 78.165 20.385 78.2217 20.385H78.7642Z" fill="#FF9000"/>
<path fill-rule="evenodd" clip-rule="evenodd" d="M99.0694 24.4795L99.4295 23.5282L102.526 25.1864L102.161 26.1352L99.0694 24.4795ZM98.7124 25.4226L98.2751 26.5777L101.357 28.228L101.799 27.076L98.7124 25.4226ZM97.5113 28.5955L97.9181 27.5209L100.995 29.1687L100.583 30.2405L97.5113 28.5955ZM97.1542 29.5387L96.4676 31.3524L95.5324 30.9984L99.4146 20.7429L100.35 21.0969L99.7865 22.585L102.887 24.2457L103.533 22.5657L104.467 22.9245L100.532 33.1599L99.5985 32.8011L100.221 31.1812L97.1542 29.5387Z" fill="#FF9000"/>
<path d="M96.7106 22.1925C96.7106 22.4575 96.6665 22.7008 96.5781 22.9225C96.4898 23.1442 96.3656 23.335 96.2056 23.495C96.0456 23.655 95.8531 23.7792 95.6281 23.8675C95.4031 23.9558 95.1531 24 94.8781 24H93.5006V20.385H94.8781C95.1531 20.385 95.4031 20.43 95.6281 20.52C95.8531 20.6083 96.0456 20.7325 96.2056 20.8925C96.3656 21.0508 96.4898 21.2408 96.5781 21.4625C96.6665 21.6842 96.7106 21.9275 96.7106 22.1925ZM96.0206 22.1925C96.0206 21.9942 95.994 21.8167 95.9406 21.66C95.889 21.5017 95.8131 21.3683 95.7131 21.26C95.6148 21.15 95.4948 21.0658 95.3531 21.0075C95.2131 20.9492 95.0548 20.92 94.8781 20.92H94.1756V23.465H94.8781C95.0548 23.465 95.2131 23.4358 95.3531 23.3775C95.4948 23.3192 95.6148 23.2358 95.7131 23.1275C95.8131 23.0175 95.889 22.8842 95.9406 22.7275C95.994 22.5692 96.0206 22.3908 96.0206 22.1925Z" fill="#FF9000"/>
<path d="M115.538 26.0874C120.39 26.1067 121.989 29.6776 121.992 31L123 30.9974C122.996 29.0171 120.855 24.8931 115.282 25.0021H111V26.0894H115.247C115.262 26.089 115.276 26.0897 115.291 26.0894H115.538V26.0874Z" fill="#FF9000"/>
<path d="M113.296 22.1925C113.296 22.4575 113.252 22.7033 113.164 22.93C113.077 23.155 112.954 23.35 112.794 23.515C112.634 23.68 112.441 23.8092 112.216 23.9025C111.991 23.9942 111.741 24.04 111.466 24.04C111.193 24.04 110.944 23.9942 110.719 23.9025C110.494 23.8092 110.3 23.68 110.139 23.515C109.979 23.35 109.855 23.155 109.766 22.93C109.678 22.7033 109.634 22.4575 109.634 22.1925C109.634 21.9275 109.678 21.6825 109.766 21.4575C109.855 21.2308 109.979 21.035 110.139 20.87C110.3 20.705 110.494 20.5767 110.719 20.485C110.944 20.3917 111.193 20.345 111.466 20.345C111.65 20.345 111.822 20.3667 111.984 20.41C112.145 20.4517 112.294 20.5117 112.429 20.59C112.564 20.6667 112.685 20.7608 112.791 20.8725C112.9 20.9825 112.991 21.1058 113.066 21.2425C113.141 21.3792 113.198 21.5275 113.236 21.6875C113.276 21.8475 113.296 22.0158 113.296 22.1925ZM112.609 22.1925C112.609 21.9942 112.582 21.8167 112.529 21.66C112.475 21.5017 112.4 21.3675 112.301 21.2575C112.203 21.1475 112.083 21.0633 111.941 21.005C111.801 20.9467 111.643 20.9175 111.466 20.9175C111.29 20.9175 111.13 20.9467 110.989 21.005C110.849 21.0633 110.729 21.1475 110.629 21.2575C110.53 21.3675 110.455 21.5017 110.401 21.66C110.348 21.8167 110.321 21.9942 110.321 22.1925C110.321 22.3908 110.348 22.5692 110.401 22.7275C110.455 22.8842 110.53 23.0175 110.629 23.1275C110.729 23.2358 110.849 23.3192 110.989 23.3775C111.13 23.4358 111.29 23.465 111.466 23.465C111.643 23.465 111.801 23.4358 111.941 23.3775C112.083 23.3192 112.203 23.2358 112.301 23.1275C112.4 23.0175 112.475 22.8842 112.529 22.7275C112.582 22.5692 112.609 22.3908 112.609 22.1925ZM115.239 23.475C115.364 23.475 115.469 23.46 115.554 23.43C115.639 23.4 115.707 23.36 115.757 23.31C115.809 23.26 115.845 23.2017 115.867 23.135C115.89 23.0683 115.902 22.9975 115.902 22.9225C115.902 22.8442 115.889 22.7742 115.864 22.7125C115.839 22.6492 115.8 22.5958 115.747 22.5525C115.694 22.5075 115.624 22.4733 115.539 22.45C115.456 22.4267 115.355 22.415 115.237 22.415H114.559V23.475H115.239ZM114.559 20.905V21.95H115.094C115.324 21.95 115.498 21.9083 115.614 21.825C115.733 21.7417 115.792 21.6092 115.792 21.4275C115.792 21.2392 115.739 21.105 115.632 21.025C115.525 20.945 115.359 20.905 115.132 20.905H114.559ZM115.132 20.385C115.369 20.385 115.571 20.4075 115.739 20.4525C115.908 20.4975 116.045 20.5617 116.152 20.645C116.26 20.7283 116.339 20.8292 116.389 20.9475C116.439 21.0658 116.464 21.1992 116.464 21.3475C116.464 21.4325 116.452 21.5142 116.427 21.5925C116.402 21.6692 116.363 21.7417 116.309 21.81C116.258 21.8767 116.191 21.9375 116.109 21.9925C116.029 22.0475 115.934 22.0942 115.822 22.1325C116.319 22.2442 116.567 22.5125 116.567 22.9375C116.567 23.0908 116.538 23.2325 116.479 23.3625C116.421 23.4925 116.336 23.605 116.224 23.7C116.113 23.7933 115.975 23.8667 115.812 23.92C115.649 23.9733 115.462 24 115.252 24H113.887V20.385H115.132ZM117.06 22.2325H118.355V22.7475H117.06V22.2325ZM121.863 24H121.193C121.147 24 121.109 23.9883 121.081 23.965C121.054 23.9417 121.033 23.915 121.016 23.885L120.178 22.4975C120.165 22.5392 120.149 22.575 120.131 22.605L119.328 23.885C119.308 23.9133 119.285 23.94 119.258 23.965C119.233 23.9883 119.2 24 119.158 24H118.531L119.731 22.14L118.578 20.385H119.248C119.295 20.385 119.328 20.3917 119.348 20.405C119.37 20.4167 119.39 20.4367 119.408 20.465L120.231 21.79C120.248 21.7483 120.268 21.7067 120.291 21.665L121.046 20.4775C121.064 20.4458 121.084 20.4225 121.106 20.4075C121.128 20.3925 121.155 20.385 121.188 20.385H121.831L120.668 22.1125L121.863 24ZM123.632 22.09C123.562 22.005 123.485 21.945 123.402 21.91C123.32 21.875 123.232 21.8575 123.137 21.8575C123.043 21.8575 122.959 21.875 122.884 21.91C122.809 21.945 122.745 21.9983 122.692 22.07C122.638 22.14 122.598 22.23 122.569 22.34C122.541 22.4483 122.527 22.5767 122.527 22.725C122.527 22.875 122.538 23.0025 122.562 23.1075C122.587 23.2108 122.622 23.2958 122.667 23.3625C122.712 23.4275 122.767 23.475 122.832 23.505C122.897 23.5333 122.969 23.5475 123.049 23.5475C123.178 23.5475 123.287 23.5208 123.377 23.4675C123.467 23.4142 123.552 23.3383 123.632 23.24V22.09ZM124.249 20.285V24H123.872C123.79 24 123.738 23.9625 123.717 23.8875L123.664 23.64C123.561 23.7583 123.442 23.8542 123.307 23.9275C123.173 24.0008 123.018 24.0375 122.839 24.0375C122.699 24.0375 122.571 24.0083 122.454 23.95C122.338 23.8917 122.237 23.8075 122.152 23.6975C122.068 23.5858 122.003 23.4483 121.957 23.285C121.912 23.1217 121.889 22.935 121.889 22.725C121.889 22.535 121.915 22.3583 121.967 22.195C122.018 22.0317 122.093 21.89 122.189 21.77C122.286 21.65 122.402 21.5567 122.537 21.49C122.672 21.4217 122.823 21.3875 122.992 21.3875C123.135 21.3875 123.258 21.41 123.359 21.455C123.461 21.5 123.552 21.5608 123.632 21.6375V20.285H124.249Z" fill="#FF9000"/>
<path fill-rule="evenodd" clip-rule="evenodd" d="M136 26H129V25H136C137.314 25 138.597 25.2883 139.544 26.2492C140.487 27.2067 141 28.736 141 31H140C140 28.864 139.513 27.6433 138.831 26.9508C138.153 26.2617 137.186 26 136 26Z" fill="#FF9000"/>
<path d="M131.296 22.1925C131.296 22.4575 131.252 22.7033 131.164 22.93C131.077 23.155 130.954 23.35 130.794 23.515C130.634 23.68 130.441 23.8092 130.216 23.9025C129.991 23.9942 129.741 24.04 129.466 24.04C129.193 24.04 128.944 23.9942 128.719 23.9025C128.494 23.8092 128.3 23.68 128.139 23.515C127.979 23.35 127.855 23.155 127.766 22.93C127.678 22.7033 127.634 22.4575 127.634 22.1925C127.634 21.9275 127.678 21.6825 127.766 21.4575C127.855 21.2308 127.979 21.035 128.139 20.87C128.3 20.705 128.494 20.5767 128.719 20.485C128.944 20.3917 129.193 20.345 129.466 20.345C129.65 20.345 129.822 20.3667 129.984 20.41C130.145 20.4517 130.294 20.5117 130.429 20.59C130.564 20.6667 130.685 20.7608 130.791 20.8725C130.9 20.9825 130.991 21.1058 131.066 21.2425C131.141 21.3792 131.198 21.5275 131.236 21.6875C131.276 21.8475 131.296 22.0158 131.296 22.1925ZM130.609 22.1925C130.609 21.9942 130.582 21.8167 130.529 21.66C130.475 21.5017 130.4 21.3675 130.301 21.2575C130.203 21.1475 130.083 21.0633 129.941 21.005C129.801 20.9467 129.643 20.9175 129.466 20.9175C129.29 20.9175 129.13 20.9467 128.989 21.005C128.849 21.0633 128.729 21.1475 128.629 21.2575C128.53 21.3675 128.455 21.5017 128.401 21.66C128.348 21.8167 128.321 21.9942 128.321 22.1925C128.321 22.3908 128.348 22.5692 128.401 22.7275C128.455 22.8842 128.53 23.0175 128.629 23.1275C128.729 23.2358 128.849 23.3192 128.989 23.3775C129.13 23.4358 129.29 23.465 129.466 23.465C129.643 23.465 129.801 23.4358 129.941 23.3775C130.083 23.3192 130.203 23.2358 130.301 23.1275C130.4 23.0175 130.475 22.8842 130.529 22.7275C130.582 22.5692 130.609 22.3908 130.609 22.1925ZM133.239 23.475C133.364 23.475 133.469 23.46 133.554 23.43C133.639 23.4 133.707 23.36 133.757 23.31C133.809 23.26 133.845 23.2017 133.867 23.135C133.89 23.0683 133.902 22.9975 133.902 22.9225C133.902 22.8442 133.889 22.7742 133.864 22.7125C133.839 22.6492 133.8 22.5958 133.747 22.5525C133.694 22.5075 133.624 22.4733 133.539 22.45C133.456 22.4267 133.355 22.415 133.237 22.415H132.559V23.475H133.239ZM132.559 20.905V21.95H133.094C133.324 21.95 133.498 21.9083 133.614 21.825C133.733 21.7417 133.792 21.6092 133.792 21.4275C133.792 21.2392 133.739 21.105 133.632 21.025C133.525 20.945 133.359 20.905 133.132 20.905H132.559ZM133.132 20.385C133.369 20.385 133.571 20.4075 133.739 20.4525C133.908 20.4975 134.045 20.5617 134.152 20.645C134.26 20.7283 134.339 20.8292 134.389 20.9475C134.439 21.0658 134.464 21.1992 134.464 21.3475C134.464 21.4325 134.452 21.5142 134.427 21.5925C134.402 21.6692 134.363 21.7417 134.309 21.81C134.258 21.8767 134.191 21.9375 134.109 21.9925C134.029 22.0475 133.934 22.0942 133.822 22.1325C134.319 22.2442 134.567 22.5125 134.567 22.9375C134.567 23.0908 134.538 23.2325 134.479 23.3625C134.421 23.4925 134.336 23.605 134.224 23.7C134.113 23.7933 133.975 23.8667 133.812 23.92C133.649 23.9733 133.462 24 133.252 24H131.887V20.385H133.132ZM135.06 22.2325H136.355V22.7475H135.06V22.2325ZM139.863 24H139.193C139.147 24 139.109 23.9883 139.081 23.965C139.054 23.9417 139.033 23.915 139.016 23.885L138.178 22.4975C138.165 22.5392 138.149 22.575 138.131 22.605L137.328 23.885C137.308 23.9133 137.285 23.94 137.258 23.965C137.233 23.9883 137.2 24 137.158 24H136.531L137.731 22.14L136.578 20.385H137.248C137.295 20.385 137.328 20.3917 137.348 20.405C137.37 20.4167 137.39 20.4367 137.408 20.465L138.231 21.79C138.248 21.7483 138.268 21.7067 138.291 21.665L139.046 20.4775C139.064 20.4458 139.084 20.4225 139.106 20.4075C139.128 20.3925 139.155 20.385 139.188 20.385H139.831L138.668 22.1125L139.863 24ZM141.632 22.09C141.562 22.005 141.485 21.945 141.402 21.91C141.32 21.875 141.232 21.8575 141.137 21.8575C141.043 21.8575 140.959 21.875 140.884 21.91C140.809 21.945 140.745 21.9983 140.692 22.07C140.638 22.14 140.598 22.23 140.569 22.34C140.541 22.4483 140.527 22.5767 140.527 22.725C140.527 22.875 140.538 23.0025 140.562 23.1075C140.587 23.2108 140.622 23.2958 140.667 23.3625C140.712 23.4275 140.767 23.475 140.832 23.505C140.897 23.5333 140.969 23.5475 141.049 23.5475C141.178 23.5475 141.287 23.5208 141.377 23.4675C141.467 23.4142 141.552 23.3383 141.632 23.24V22.09ZM142.249 20.285V24H141.872C141.79 24 141.738 23.9625 141.717 23.8875L141.664 23.64C141.561 23.7583 141.442 23.8542 141.307 23.9275C141.173 24.0008 141.018 24.0375 140.839 24.0375C140.699 24.0375 140.571 24.0083 140.454 23.95C140.338 23.8917 140.237 23.8075 140.152 23.6975C140.068 23.5858 140.003 23.4483 139.957 23.285C139.912 23.1217 139.889 22.935 139.889 22.725C139.889 22.535 139.915 22.3583 139.967 22.195C140.018 22.0317 140.093 21.89 140.189 21.77C140.286 21.65 140.402 21.5567 140.537 21.49C140.672 21.4217 140.823 21.3875 140.992 21.3875C141.135 21.3875 141.258 21.41 141.359 21.455C141.461 21.5 141.552 21.5608 141.632 21.6375V20.285H142.249Z" fill="#FF9000"/>
<path d="M153.225 20.385V24H152.88C152.827 24 152.782 23.9917 152.745 23.975C152.71 23.9567 152.676 23.9267 152.642 23.885L150.755 21.475C150.765 21.585 150.77 21.6867 150.77 21.78V24H150.177V20.385H150.53C150.558 20.385 150.582 20.3867 150.602 20.39C150.624 20.3917 150.642 20.3967 150.657 20.405C150.674 20.4117 150.69 20.4225 150.705 20.4375C150.72 20.4508 150.737 20.4692 150.755 20.4925L152.65 22.9125C152.645 22.8542 152.641 22.7967 152.637 22.74C152.634 22.6833 152.632 22.6308 152.632 22.5825V20.385H153.225ZM156.147 23.445V24H154.03V20.385H154.702V23.445H156.147Z" fill="#FF9000"/>
<path d="M159 31C159 29.7633 158 28.4996 158 27C158 25.5004 157.5 24.5 157 24.5C156.5 24.5 156 25.5 155 25.5C154 25.5 154 26 153.5 26C153 26 153 25.5 152 25.5C151 25.5 147 25.5 147 25.5" stroke="#FF9000"/>
<path d="M169.605 23.1475C169.642 23.1475 169.674 23.1617 169.703 23.19L169.968 23.4775C169.821 23.6592 169.64 23.7983 169.425 23.895C169.212 23.9917 168.955 24.04 168.655 24.04C168.387 24.04 168.145 23.9942 167.93 23.9025C167.717 23.8108 167.534 23.6833 167.383 23.52C167.231 23.3567 167.114 23.1617 167.033 22.935C166.953 22.7083 166.913 22.4608 166.913 22.1925C166.913 21.9208 166.956 21.6725 167.043 21.4475C167.129 21.2208 167.251 21.0258 167.408 20.8625C167.566 20.6992 167.754 20.5725 167.973 20.4825C168.191 20.3908 168.433 20.345 168.698 20.345C168.961 20.345 169.194 20.3883 169.398 20.475C169.603 20.5617 169.777 20.675 169.92 20.815L169.695 21.1275C169.682 21.1475 169.664 21.165 169.643 21.18C169.623 21.195 169.594 21.2025 169.558 21.2025C169.533 21.2025 169.507 21.1958 169.48 21.1825C169.454 21.1675 169.424 21.15 169.393 21.13C169.361 21.1083 169.324 21.085 169.283 21.06C169.241 21.035 169.193 21.0125 169.138 20.9925C169.083 20.9708 169.019 20.9533 168.945 20.94C168.874 20.925 168.79 20.9175 168.695 20.9175C168.534 20.9175 168.385 20.9467 168.25 21.005C168.117 21.0617 168.002 21.145 167.905 21.255C167.809 21.3633 167.734 21.4967 167.68 21.655C167.627 21.8117 167.6 21.9908 167.6 22.1925C167.6 22.3958 167.629 22.5767 167.685 22.735C167.744 22.8933 167.822 23.0267 167.92 23.135C168.019 23.2433 168.134 23.3267 168.268 23.385C168.401 23.4417 168.544 23.47 168.698 23.47C168.789 23.47 168.872 23.465 168.945 23.455C169.02 23.445 169.089 23.4292 169.15 23.4075C169.214 23.3858 169.273 23.3583 169.328 23.325C169.384 23.29 169.44 23.2475 169.495 23.1975C169.512 23.1825 169.529 23.1708 169.548 23.1625C169.566 23.1525 169.585 23.1475 169.605 23.1475ZM175.238 20.385L174.116 24H173.508L172.718 21.53C172.697 21.47 172.677 21.3967 172.658 21.31C172.648 21.3517 172.638 21.3908 172.628 21.4275C172.618 21.4642 172.608 21.4983 172.596 21.53L171.798 24H171.188L170.068 20.385H170.631C170.689 20.385 170.738 20.3992 170.776 20.4275C170.816 20.4542 170.843 20.4908 170.856 20.5375L171.471 22.7C171.484 22.7533 171.497 22.8117 171.508 22.875C171.522 22.9367 171.535 23.0017 171.548 23.07C171.562 23 171.576 22.9342 171.591 22.8725C171.608 22.8108 171.625 22.7533 171.643 22.7L172.353 20.5375C172.367 20.4992 172.393 20.4642 172.431 20.4325C172.471 20.4008 172.519 20.385 172.576 20.385H172.773C172.832 20.385 172.879 20.3992 172.916 20.4275C172.953 20.4558 172.98 20.4925 172.998 20.5375L173.706 22.7C173.741 22.8033 173.773 22.9225 173.801 23.0575C173.823 22.9258 173.847 22.8067 173.873 22.7L174.488 20.5375C174.498 20.4958 174.523 20.46 174.563 20.43C174.605 20.4 174.654 20.385 174.711 20.385H175.238Z" fill="#FF9000"/>
<path d="M177 31C177 29.7633 176 28.4996 176 27C176 25.5004 175.5 24.5 175 24.5C174.5 24.5 174 25.5 173 25.5C172 25.5 172 26 171.5 26C171 26 171 25.5 170 25.5C169 25.5 165 25.5 165 25.5" stroke="#FF9000"/>
<path fill-rule="evenodd" clip-rule="evenodd" d="M5.00577 45.8547C4.25511 46.8972 4 48.1633 4 49H3C3 48.0033 3.29489 46.5194 4.19423 45.2703C5.11193 43.9958 6.63704 43 9 43C11.363 43 12.8881 43.9958 13.8058 45.2703C14.7051 46.5194 15 48.0033 15 49H14C14 48.1633 13.7449 46.8972 12.9942 45.8547C12.2619 44.8376 11.037 44 9 44C6.96296 44 5.73807 44.8376 5.00577 45.8547Z" fill="#FF9000"/>
<path d="M23 49C23 46 24 43 27 43C30 43 31 46 31 49" stroke="#FF9000"/>
<path fill-rule="evenodd" clip-rule="evenodd" d="M41.0058 45.8547C40.2551 46.8972 40 48.1633 40 49H39C39 48.0033 39.2949 46.5194 40.1942 45.2703C41.1119 43.9958 42.637 43 45 43C47.363 43 48.8881 43.9958 49.8058 45.2703C50.7051 46.5194 51 48.0033 51 49H50C50 48.1633 49.7449 46.8972 48.9942 45.8547C48.2619 44.8376 47.037 44 45 44C42.963 44 41.7381 44.8376 41.0058 45.8547Z" fill="#FF9000"/>
<path d="M41.2963 40.1925C41.2963 40.4575 41.2521 40.7033 41.1638 40.93C41.0771 41.155 40.9538 41.35 40.7938 41.515C40.6338 41.68 40.4413 41.8092 40.2163 41.9025C39.9913 41.9942 39.7413 42.04 39.4663 42.04C39.193 42.04 38.9438 41.9942 38.7188 41.9025C38.4938 41.8092 38.3005 41.68 38.1388 41.515C37.9788 41.35 37.8546 41.155 37.7663 40.93C37.678 40.7033 37.6338 40.4575 37.6338 40.1925C37.6338 39.9275 37.678 39.6825 37.7663 39.4575C37.8546 39.2308 37.9788 39.035 38.1388 38.87C38.3005 38.705 38.4938 38.5767 38.7188 38.485C38.9438 38.3917 39.193 38.345 39.4663 38.345C39.6496 38.345 39.8221 38.3667 39.9838 38.41C40.1455 38.4517 40.2938 38.5117 40.4288 38.59C40.5638 38.6667 40.6846 38.7608 40.7913 38.8725C40.8996 38.9825 40.9913 39.1058 41.0663 39.2425C41.1413 39.3792 41.198 39.5275 41.2363 39.6875C41.2763 39.8475 41.2963 40.0158 41.2963 40.1925ZM40.6088 40.1925C40.6088 39.9942 40.5821 39.8167 40.5288 39.66C40.4755 39.5017 40.3996 39.3675 40.3013 39.2575C40.203 39.1475 40.083 39.0633 39.9413 39.005C39.8013 38.9467 39.643 38.9175 39.4663 38.9175C39.2896 38.9175 39.1305 38.9467 38.9888 39.005C38.8488 39.0633 38.7288 39.1475 38.6288 39.2575C38.5305 39.3675 38.4546 39.5017 38.4013 39.66C38.348 39.8167 38.3213 39.9942 38.3213 40.1925C38.3213 40.3908 38.348 40.5692 38.4013 40.7275C38.4546 40.8842 38.5305 41.0175 38.6288 41.1275C38.7288 41.2358 38.8488 41.3192 38.9888 41.3775C39.1305 41.4358 39.2896 41.465 39.4663 41.465C39.643 41.465 39.8013 41.4358 39.9413 41.3775C40.083 41.3192 40.203 41.2358 40.3013 41.1275C40.3996 41.0175 40.4755 40.8842 40.5288 40.7275C40.5821 40.5692 40.6088 40.3908 40.6088 40.1925ZM43.2394 41.475C43.3644 41.475 43.4694 41.46 43.5544 41.43C43.6394 41.4 43.7069 41.36 43.7569 41.31C43.8085 41.26 43.8452 41.2017 43.8669 41.135C43.8902 41.0683 43.9019 40.9975 43.9019 40.9225C43.9019 40.8442 43.8894 40.7742 43.8644 40.7125C43.8394 40.6492 43.8002 40.5958 43.7469 40.5525C43.6935 40.5075 43.6244 40.4733 43.5394 40.45C43.456 40.4267 43.3552 40.415 43.2369 40.415H42.5594V41.475H43.2394ZM42.5594 38.905V39.95H43.0944C43.3244 39.95 43.4977 39.9083 43.6144 39.825C43.7327 39.7417 43.7919 39.6092 43.7919 39.4275C43.7919 39.2392 43.7385 39.105 43.6319 39.025C43.5252 38.945 43.3585 38.905 43.1319 38.905H42.5594ZM43.1319 38.385C43.3685 38.385 43.571 38.4075 43.7394 38.4525C43.9077 38.4975 44.0452 38.5617 44.1519 38.645C44.2602 38.7283 44.3394 38.8292 44.3894 38.9475C44.4394 39.0658 44.4644 39.1992 44.4644 39.3475C44.4644 39.4325 44.4519 39.5142 44.4269 39.5925C44.4019 39.6692 44.3627 39.7417 44.3094 39.81C44.2577 39.8767 44.191 39.9375 44.1094 39.9925C44.0294 40.0475 43.9335 40.0942 43.8219 40.1325C44.3185 40.2442 44.5669 40.5125 44.5669 40.9375C44.5669 41.0908 44.5377 41.2325 44.4794 41.3625C44.421 41.4925 44.336 41.605 44.2244 41.7C44.1127 41.7933 43.9752 41.8667 43.8119 41.92C43.6485 41.9733 43.4619 42 43.2519 42H41.8869V38.385H43.1319ZM45.0604 40.2325H46.3554V40.7475H45.0604V40.2325ZM49.8634 42H49.1934C49.1468 42 49.1093 41.9883 49.0809 41.965C49.0543 41.9417 49.0326 41.915 49.0159 41.885L48.1784 40.4975C48.1651 40.5392 48.1493 40.575 48.1309 40.605L47.3284 41.885C47.3084 41.9133 47.2851 41.94 47.2584 41.965C47.2334 41.9883 47.2001 42 47.1584 42H46.5309L47.7309 40.14L46.5784 38.385H47.2484C47.2951 38.385 47.3284 38.3917 47.3484 38.405C47.3701 38.4167 47.3901 38.4367 47.4084 38.465L48.2309 39.79C48.2476 39.7483 48.2676 39.7067 48.2909 39.665L49.0459 38.4775C49.0643 38.4458 49.0843 38.4225 49.1059 38.4075C49.1276 38.3925 49.1551 38.385 49.1884 38.385H49.8309L48.6684 40.1125L49.8634 42ZM51.6318 40.09C51.5618 40.005 51.4851 39.945 51.4018 39.91C51.3201 39.875 51.2318 39.8575 51.1368 39.8575C51.0435 39.8575 50.9593 39.875 50.8843 39.91C50.8093 39.945 50.7451 39.9983 50.6918 40.07C50.6385 40.14 50.5976 40.23 50.5693 40.34C50.541 40.4483 50.5268 40.5767 50.5268 40.725C50.5268 40.875 50.5385 41.0025 50.5618 41.1075C50.5868 41.2108 50.6218 41.2958 50.6668 41.3625C50.7118 41.4275 50.7668 41.475 50.8318 41.505C50.8968 41.5333 50.9693 41.5475 51.0493 41.5475C51.1776 41.5475 51.2868 41.5208 51.3768 41.4675C51.4668 41.4142 51.5518 41.3383 51.6318 41.24V40.09ZM52.2493 38.285V42H51.8718C51.7901 42 51.7385 41.9625 51.7168 41.8875L51.6643 41.64C51.561 41.7583 51.4418 41.8542 51.3068 41.9275C51.1735 42.0008 51.0176 42.0375 50.8393 42.0375C50.6993 42.0375 50.571 42.0083 50.4543 41.95C50.3376 41.8917 50.2368 41.8075 50.1518 41.6975C50.0685 41.5858 50.0035 41.4483 49.9568 41.285C49.9118 41.1217 49.8893 40.935 49.8893 40.725C49.8893 40.535 49.9151 40.3583 49.9668 40.195C50.0185 40.0317 50.0926 39.89 50.1893 39.77C50.286 39.65 50.4018 39.5567 50.5368 39.49C50.6718 39.4217 50.8235 39.3875 50.9918 39.3875C51.1351 39.3875 51.2576 39.41 51.3593 39.455C51.461 39.5 51.5518 39.5608 51.6318 39.6375V38.285H52.2493Z" fill="#FF9000"/>
<path d="M59 48.9998C59 47 60.5 47.4992 60.5 45.4996C60.5 43.5 61 43.5 61.5 43.5C62 43.5 62.5 44.5 63 44.5C63.5 44.5 64.0001 43.5 64.5 43.5C64.9999 43.5 65.5 43.4992 65.5 45.4996C65.5 47.5 67 47 67 48.9998" stroke="#FF9000"/>
<path d="M63.2249 38.385V42H62.8799C62.8266 42 62.7816 41.9917 62.7449 41.975C62.7099 41.9567 62.6757 41.9267 62.6424 41.885L60.7549 39.475C60.7649 39.585 60.7699 39.6867 60.7699 39.78V42H60.1774V38.385H60.5299C60.5582 38.385 60.5824 38.3867 60.6024 38.39C60.6241 38.3917 60.6424 38.3967 60.6574 38.405C60.6741 38.4117 60.6899 38.4225 60.7049 38.4375C60.7199 38.4508 60.7366 38.4692 60.7549 38.4925L62.6499 40.9125C62.6449 40.8542 62.6407 40.7967 62.6374 40.74C62.6341 40.6833 62.6324 40.6308 62.6324 40.5825V38.385H63.2249ZM66.1474 41.445V42H64.0299V38.385H64.7024V41.445H66.1474Z" fill="#FF9000"/>
<path d="M77 48.9998C77 47 78.5 47.4992 78.5 45.4996C78.5 43.5 79 43.5 79.5 43.5C80 43.5 80.5 44.5 81 44.5C81.5 44.5 82.0001 43.5 82.5 43.5C82.9999 43.5 83.5 43.4992 83.5 45.4996C83.5 47.5 85 47 85 48.9998" stroke="#FF9000"/>
<path d="M79.6052 41.1475C79.6419 41.1475 79.6744 41.1617 79.7027 41.19L79.9677 41.4775C79.821 41.6592 79.6402 41.7983 79.4252 41.895C79.2119 41.9917 78.9552 42.04 78.6552 42.04C78.3869 42.04 78.1452 41.9942 77.9302 41.9025C77.7169 41.8108 77.5344 41.6833 77.3827 41.52C77.231 41.3567 77.1144 41.1617 77.0327 40.935C76.9527 40.7083 76.9127 40.4608 76.9127 40.1925C76.9127 39.9208 76.956 39.6725 77.0427 39.4475C77.1294 39.2208 77.251 39.0258 77.4077 38.8625C77.566 38.6992 77.7544 38.5725 77.9727 38.4825C78.191 38.3908 78.4327 38.345 78.6977 38.345C78.961 38.345 79.1944 38.3883 79.3977 38.475C79.6027 38.5617 79.7769 38.675 79.9202 38.815L79.6952 39.1275C79.6819 39.1475 79.6644 39.165 79.6427 39.18C79.6227 39.195 79.5944 39.2025 79.5577 39.2025C79.5327 39.2025 79.5069 39.1958 79.4802 39.1825C79.4535 39.1675 79.4244 39.15 79.3927 39.13C79.361 39.1083 79.3244 39.085 79.2827 39.06C79.241 39.035 79.1927 39.0125 79.1377 38.9925C79.0827 38.9708 79.0185 38.9533 78.9452 38.94C78.8735 38.925 78.7902 38.9175 78.6952 38.9175C78.5335 38.9175 78.3852 38.9467 78.2502 39.005C78.1169 39.0617 78.0019 39.145 77.9052 39.255C77.8085 39.3633 77.7335 39.4967 77.6802 39.655C77.6269 39.8117 77.6002 39.9908 77.6002 40.1925C77.6002 40.3958 77.6285 40.5767 77.6852 40.735C77.7435 40.8933 77.8219 41.0267 77.9202 41.135C78.0185 41.2433 78.1344 41.3267 78.2677 41.385C78.401 41.4417 78.5444 41.47 78.6977 41.47C78.7894 41.47 78.8719 41.465 78.9452 41.455C79.0202 41.445 79.0885 41.4292 79.1502 41.4075C79.2135 41.3858 79.2727 41.3583 79.3277 41.325C79.3844 41.29 79.4402 41.2475 79.4952 41.1975C79.5119 41.1825 79.5294 41.1708 79.5477 41.1625C79.566 41.1525 79.5852 41.1475 79.6052 41.1475ZM85.2384 38.385L84.1159 42H83.5084L82.7184 39.53C82.6967 39.47 82.6767 39.3967 82.6584 39.31C82.6484 39.3517 82.6384 39.3908 82.6284 39.4275C82.6184 39.4642 82.6075 39.4983 82.5959 39.53L81.7984 42H81.1884L80.0684 38.385H80.6309C80.6892 38.385 80.7375 38.3992 80.7759 38.4275C80.8159 38.4542 80.8425 38.4908 80.8559 38.5375L81.4709 40.7C81.4842 40.7533 81.4967 40.8117 81.5084 40.875C81.5217 40.9367 81.535 41.0017 81.5484 41.07C81.5617 41 81.5759 40.9342 81.5909 40.8725C81.6075 40.8108 81.625 40.7533 81.6434 40.7L82.3534 38.5375C82.3667 38.4992 82.3925 38.4642 82.4309 38.4325C82.4709 38.4008 82.5192 38.385 82.5759 38.385H82.7734C82.8317 38.385 82.8792 38.3992 82.9159 38.4275C82.9525 38.4558 82.98 38.4925 82.9984 38.5375L83.7059 40.7C83.7409 40.8033 83.7725 40.9225 83.8009 41.0575C83.8225 40.9258 83.8467 40.8067 83.8734 40.7L84.4884 38.5375C84.4984 38.4958 84.5234 38.46 84.5634 38.43C84.605 38.4 84.6542 38.385 84.7109 38.385H85.2384Z" fill="#FF9000"/>
<path d="M10.4622 62.0874C5.61047 62.1067 4.01134 65.6776 4.0084 67L3 66.9974C3.0044 65.0171 5.14529 60.8931 10.7185 61.0021H15V62.0894H10.7532C10.7385 62.089 10.7238 62.0897 10.7091 62.0894H10.4622V62.0874Z" fill="#FF9000"/>
<path fill-rule="evenodd" clip-rule="evenodd" d="M26 62H33V61H26C24.6861 61 23.4026 61.2883 22.4563 62.2492C21.5133 63.2067 21 64.736 21 67H22C22 64.864 22.4867 63.6433 23.1687 62.9508C23.8474 62.2617 24.8139 62 26 62Z" fill="#FF9000"/>
<path d="M46.4622 62.0874C41.6105 62.1067 40.0113 65.6776 40.0084 67L39 66.9974C39.0044 65.0171 41.1453 60.8931 46.7185 61.0021H51V62.0894H46.7532C46.7385 62.089 46.7238 62.0897 46.7091 62.0894H46.4622V62.0874Z" fill="#FF9000"/>
<path d="M41.4607 57.9H41.6182C41.6816 57.9 41.7341 57.8917 41.7757 57.875C41.8174 57.8567 41.8532 57.8283 41.8832 57.79L42.8807 56.5275C42.9224 56.4742 42.9657 56.4375 43.0107 56.4175C43.0574 56.3958 43.1157 56.385 43.1857 56.385H43.7657L42.5482 57.8875C42.4766 57.9792 42.4024 58.0442 42.3257 58.0825C42.3807 58.1025 42.4299 58.1308 42.4732 58.1675C42.5182 58.2025 42.5607 58.2492 42.6007 58.3075L43.8557 60H43.2632C43.1832 60 43.1232 59.9892 43.0832 59.9675C43.0449 59.9442 43.0124 59.9108 42.9857 59.8675L41.9632 58.5325C41.9316 58.4875 41.8949 58.4558 41.8532 58.4375C41.8116 58.4192 41.7516 58.41 41.6732 58.41H41.4607V60H40.7882V56.385H41.4607V57.9ZM44.0835 57.3925C44.1085 57.2192 44.1568 57.0675 44.2285 56.9375C44.3001 56.8058 44.3893 56.6967 44.496 56.61C44.6043 56.5217 44.7276 56.4558 44.866 56.4125C45.006 56.3675 45.156 56.345 45.316 56.345C45.4826 56.345 45.6326 56.3692 45.766 56.4175C45.901 56.4642 46.016 56.53 46.111 56.615C46.206 56.6983 46.2785 56.7967 46.3285 56.91C46.3801 57.0233 46.406 57.1458 46.406 57.2775C46.406 57.3925 46.3926 57.4942 46.366 57.5825C46.341 57.6692 46.3043 57.745 46.256 57.81C46.2076 57.875 46.1476 57.93 46.076 57.975C46.0043 58.02 45.9235 58.0575 45.8335 58.0875C46.0501 58.1558 46.2118 58.26 46.3185 58.4C46.4251 58.54 46.4785 58.7158 46.4785 58.9275C46.4785 59.1075 46.4451 59.2667 46.3785 59.405C46.3118 59.5433 46.2218 59.66 46.1085 59.755C45.9951 59.8483 45.8635 59.9192 45.7135 59.9675C45.5651 60.0158 45.4076 60.04 45.241 60.04C45.0593 60.04 44.901 60.0192 44.766 59.9775C44.631 59.9358 44.5135 59.8742 44.4135 59.7925C44.3135 59.7108 44.2285 59.6108 44.1585 59.4925C44.0885 59.3742 44.0285 59.2375 43.9785 59.0825L44.251 58.97C44.3226 58.94 44.3893 58.9325 44.451 58.9475C44.5143 58.9608 44.5601 58.9942 44.5885 59.0475C44.6185 59.1058 44.651 59.1633 44.686 59.22C44.7226 59.2767 44.766 59.3275 44.816 59.3725C44.866 59.4158 44.9243 59.4517 44.991 59.48C45.0593 59.5067 45.1401 59.52 45.2335 59.52C45.3385 59.52 45.4301 59.5033 45.5085 59.47C45.5868 59.435 45.6518 59.39 45.7035 59.335C45.7568 59.28 45.796 59.2192 45.821 59.1525C45.8476 59.0842 45.861 59.0158 45.861 58.9475C45.861 58.8608 45.8518 58.7825 45.8335 58.7125C45.8151 58.6408 45.7768 58.58 45.7185 58.53C45.6601 58.48 45.576 58.4408 45.466 58.4125C45.3576 58.3842 45.2118 58.37 45.0285 58.37V57.93C45.1801 57.9283 45.306 57.9142 45.406 57.8875C45.506 57.8608 45.5851 57.8242 45.6435 57.7775C45.7035 57.7292 45.7451 57.6717 45.7685 57.605C45.7918 57.5383 45.8035 57.465 45.8035 57.385C45.8035 57.215 45.756 57.0858 45.661 56.9975C45.566 56.9092 45.4393 56.865 45.281 56.865C45.2076 56.865 45.1401 56.8758 45.0785 56.8975C45.0168 56.9175 44.961 56.9467 44.911 56.985C44.8626 57.0217 44.8218 57.065 44.7885 57.115C44.7551 57.165 44.7301 57.22 44.7135 57.28C44.6851 57.3567 44.6476 57.4075 44.601 57.4325C44.556 57.4575 44.4918 57.4633 44.4085 57.45L44.0835 57.3925ZM47.7289 57.6975C47.8089 57.6808 47.8855 57.6692 47.9589 57.6625C48.0322 57.6542 48.103 57.65 48.1714 57.65C48.3614 57.65 48.5289 57.6783 48.6739 57.735C48.8189 57.7917 48.9405 57.87 49.0389 57.97C49.1372 58.07 49.2114 58.1875 49.2614 58.3225C49.3114 58.4558 49.3364 58.6 49.3364 58.755C49.3364 58.9467 49.3022 59.1217 49.2339 59.28C49.1672 59.4383 49.0739 59.5742 48.9539 59.6875C48.8339 59.7992 48.6914 59.8858 48.5264 59.9475C48.363 60.0092 48.1847 60.04 47.9914 60.04C47.878 60.04 47.7705 60.0283 47.6689 60.005C47.5672 59.9817 47.4714 59.9508 47.3814 59.9125C47.293 59.8725 47.2105 59.8275 47.1339 59.7775C47.0589 59.7258 46.9914 59.6717 46.9314 59.615L47.1214 59.3525C47.1614 59.2958 47.2139 59.2675 47.2789 59.2675C47.3205 59.2675 47.363 59.2808 47.4064 59.3075C47.4497 59.3342 47.4989 59.3633 47.5539 59.395C47.6105 59.4267 47.6764 59.4558 47.7514 59.4825C47.828 59.5092 47.9197 59.5225 48.0264 59.5225C48.1397 59.5225 48.2397 59.5042 48.3264 59.4675C48.413 59.4308 48.4847 59.38 48.5414 59.315C48.5997 59.2483 48.643 59.17 48.6714 59.08C48.7014 58.9883 48.7164 58.8892 48.7164 58.7825C48.7164 58.5858 48.6589 58.4325 48.5439 58.3225C48.4305 58.2108 48.2622 58.155 48.0389 58.155C47.8672 58.155 47.6914 58.1867 47.5114 58.25L47.1264 58.14L47.4264 56.385H49.2114V56.6475C49.2114 56.7358 49.1839 56.8075 49.1289 56.8625C49.0739 56.9175 48.9805 56.945 48.8489 56.945H47.8564L47.7289 57.6975Z" fill="#FF9000"/>
<path d="M64.4622 62.0874C59.6105 62.1067 58.0113 65.6776 58.0084 67L57 66.9974C57.0044 65.0171 59.1453 60.8931 64.7185 61.0021H69V62.0894H64.7532C64.7385 62.089 64.7238 62.0897 64.7091 62.0894H64.4622V62.0874Z" fill="#FF9000"/>
<path d="M59.2963 58.1925C59.2963 58.4575 59.2521 58.7033 59.1638 58.93C59.0771 59.155 58.9538 59.35 58.7938 59.515C58.6338 59.68 58.4413 59.8092 58.2163 59.9025C57.9913 59.9942 57.7413 60.04 57.4663 60.04C57.193 60.04 56.9438 59.9942 56.7188 59.9025C56.4938 59.8092 56.3005 59.68 56.1388 59.515C55.9788 59.35 55.8546 59.155 55.7663 58.93C55.678 58.7033 55.6338 58.4575 55.6338 58.1925C55.6338 57.9275 55.678 57.6825 55.7663 57.4575C55.8546 57.2308 55.9788 57.035 56.1388 56.87C56.3005 56.705 56.4938 56.5767 56.7188 56.485C56.9438 56.3917 57.193 56.345 57.4663 56.345C57.6496 56.345 57.8221 56.3667 57.9838 56.41C58.1455 56.4517 58.2938 56.5117 58.4288 56.59C58.5638 56.6667 58.6846 56.7608 58.7913 56.8725C58.8996 56.9825 58.9913 57.1058 59.0663 57.2425C59.1413 57.3792 59.198 57.5275 59.2363 57.6875C59.2763 57.8475 59.2963 58.0158 59.2963 58.1925ZM58.6088 58.1925C58.6088 57.9942 58.5821 57.8167 58.5288 57.66C58.4755 57.5017 58.3996 57.3675 58.3013 57.2575C58.203 57.1475 58.083 57.0633 57.9413 57.005C57.8013 56.9467 57.643 56.9175 57.4663 56.9175C57.2896 56.9175 57.1305 56.9467 56.9888 57.005C56.8488 57.0633 56.7288 57.1475 56.6288 57.2575C56.5305 57.3675 56.4546 57.5017 56.4013 57.66C56.348 57.8167 56.3213 57.9942 56.3213 58.1925C56.3213 58.3908 56.348 58.5692 56.4013 58.7275C56.4546 58.8842 56.5305 59.0175 56.6288 59.1275C56.7288 59.2358 56.8488 59.3192 56.9888 59.3775C57.1305 59.4358 57.2896 59.465 57.4663 59.465C57.643 59.465 57.8013 59.4358 57.9413 59.3775C58.083 59.3192 58.203 59.2358 58.3013 59.1275C58.3996 59.0175 58.4755 58.8842 58.5288 58.7275C58.5821 58.5692 58.6088 58.3908 58.6088 58.1925ZM61.2394 59.475C61.3644 59.475 61.4694 59.46 61.5544 59.43C61.6394 59.4 61.7069 59.36 61.7569 59.31C61.8085 59.26 61.8452 59.2017 61.8669 59.135C61.8902 59.0683 61.9019 58.9975 61.9019 58.9225C61.9019 58.8442 61.8894 58.7742 61.8644 58.7125C61.8394 58.6492 61.8002 58.5958 61.7469 58.5525C61.6935 58.5075 61.6244 58.4733 61.5394 58.45C61.456 58.4267 61.3552 58.415 61.2369 58.415H60.5594V59.475H61.2394ZM60.5594 56.905V57.95H61.0944C61.3244 57.95 61.4977 57.9083 61.6144 57.825C61.7327 57.7417 61.7919 57.6092 61.7919 57.4275C61.7919 57.2392 61.7385 57.105 61.6319 57.025C61.5252 56.945 61.3585 56.905 61.1319 56.905H60.5594ZM61.1319 56.385C61.3685 56.385 61.571 56.4075 61.7394 56.4525C61.9077 56.4975 62.0452 56.5617 62.1519 56.645C62.2602 56.7283 62.3394 56.8292 62.3894 56.9475C62.4394 57.0658 62.4644 57.1992 62.4644 57.3475C62.4644 57.4325 62.4519 57.5142 62.4269 57.5925C62.4019 57.6692 62.3627 57.7417 62.3094 57.81C62.2577 57.8767 62.191 57.9375 62.1094 57.9925C62.0294 58.0475 61.9335 58.0942 61.8219 58.1325C62.3185 58.2442 62.5669 58.5125 62.5669 58.9375C62.5669 59.0908 62.5377 59.2325 62.4794 59.3625C62.421 59.4925 62.336 59.605 62.2244 59.7C62.1127 59.7933 61.9752 59.8667 61.8119 59.92C61.6485 59.9733 61.4619 60 61.2519 60H59.8869V56.385H61.1319ZM63.0604 58.2325H64.3554V58.7475H63.0604V58.2325ZM67.8634 60H67.1934C67.1468 60 67.1093 59.9883 67.0809 59.965C67.0543 59.9417 67.0326 59.915 67.0159 59.885L66.1784 58.4975C66.1651 58.5392 66.1493 58.575 66.1309 58.605L65.3284 59.885C65.3084 59.9133 65.2851 59.94 65.2584 59.965C65.2334 59.9883 65.2001 60 65.1584 60H64.5309L65.7309 58.14L64.5784 56.385H65.2484C65.2951 56.385 65.3284 56.3917 65.3484 56.405C65.3701 56.4167 65.3901 56.4367 65.4084 56.465L66.2309 57.79C66.2476 57.7483 66.2676 57.7067 66.2909 57.665L67.0459 56.4775C67.0643 56.4458 67.0843 56.4225 67.1059 56.4075C67.1276 56.3925 67.1551 56.385 67.1884 56.385H67.8309L66.6684 58.1125L67.8634 60ZM69.6318 58.09C69.5618 58.005 69.4851 57.945 69.4018 57.91C69.3201 57.875 69.2318 57.8575 69.1368 57.8575C69.0435 57.8575 68.9593 57.875 68.8843 57.91C68.8093 57.945 68.7451 57.9983 68.6918 58.07C68.6385 58.14 68.5976 58.23 68.5693 58.34C68.541 58.4483 68.5268 58.5767 68.5268 58.725C68.5268 58.875 68.5385 59.0025 68.5618 59.1075C68.5868 59.2108 68.6218 59.2958 68.6668 59.3625C68.7118 59.4275 68.7668 59.475 68.8318 59.505C68.8968 59.5333 68.9693 59.5475 69.0493 59.5475C69.1776 59.5475 69.2868 59.5208 69.3768 59.4675C69.4668 59.4142 69.5518 59.3383 69.6318 59.24V58.09ZM70.2493 56.285V60H69.8718C69.7901 60 69.7385 59.9625 69.7168 59.8875L69.6643 59.64C69.561 59.7583 69.4418 59.8542 69.3068 59.9275C69.1735 60.0008 69.0176 60.0375 68.8393 60.0375C68.6993 60.0375 68.571 60.0083 68.4543 59.95C68.3376 59.8917 68.2368 59.8075 68.1518 59.6975C68.0685 59.5858 68.0035 59.4483 67.9568 59.285C67.9118 59.1217 67.8893 58.935 67.8893 58.725C67.8893 58.535 67.9151 58.3583 67.9668 58.195C68.0185 58.0317 68.0926 57.89 68.1893 57.77C68.286 57.65 68.4018 57.5567 68.5368 57.49C68.6718 57.4217 68.8235 57.3875 68.9918 57.3875C69.1351 57.3875 69.2576 57.41 69.3593 57.455C69.461 57.5 69.5518 57.5608 69.6318 57.6375V56.285H70.2493Z" fill="#FF9000"/>
<path d="M75 67C75 65.7633 76 64.4996 76 63C76 61.5004 76.5001 60.5 77 60.5C77.4999 60.5 78 61.5 79 61.5C80 61.5 80 62 80.5 62C81 62 81 61.5 82 61.5C83 61.5 87 61.5 87 61.5" stroke="#FF9000"/>
<path d="M81.2249 56.385V60H80.8799C80.8266 60 80.7816 59.9917 80.7449 59.975C80.7099 59.9567 80.6757 59.9267 80.6424 59.885L78.7549 57.475C78.7649 57.585 78.7699 57.6867 78.7699 57.78V60H78.1774V56.385H78.5299C78.5582 56.385 78.5824 56.3867 78.6024 56.39C78.6241 56.3917 78.6424 56.3967 78.6574 56.405C78.6741 56.4117 78.6899 56.4225 78.7049 56.4375C78.7199 56.4508 78.7366 56.4692 78.7549 56.4925L80.6499 58.9125C80.6449 58.8542 80.6407 58.7967 80.6374 58.74C80.6341 58.6833 80.6324 58.6308 80.6324 58.5825V56.385H81.2249ZM84.1474 59.445V60H82.0299V56.385H82.7024V59.445H84.1474Z" fill="#FF9000"/>
<path d="M93 67C93 65.7633 94 64.4996 94 63C94 61.5004 94.5001 60.5 95 60.5C95.4999 60.5 96 61.5 97 61.5C98 61.5 98 62 98.5 62C99 62 99 61.5 100 61.5C101 61.5 105 61.5 105 61.5" stroke="#FF9000"/>
<path d="M97.6052 59.1475C97.6419 59.1475 97.6744 59.1617 97.7027 59.19L97.9677 59.4775C97.821 59.6592 97.6402 59.7983 97.4252 59.895C97.2119 59.9917 96.9552 60.04 96.6552 60.04C96.3869 60.04 96.1452 59.9942 95.9302 59.9025C95.7169 59.8108 95.5344 59.6833 95.3827 59.52C95.231 59.3567 95.1144 59.1617 95.0327 58.935C94.9527 58.7083 94.9127 58.4608 94.9127 58.1925C94.9127 57.9208 94.956 57.6725 95.0427 57.4475C95.1294 57.2208 95.251 57.0258 95.4077 56.8625C95.566 56.6992 95.7544 56.5725 95.9727 56.4825C96.191 56.3908 96.4327 56.345 96.6977 56.345C96.961 56.345 97.1944 56.3883 97.3977 56.475C97.6027 56.5617 97.7769 56.675 97.9202 56.815L97.6952 57.1275C97.6819 57.1475 97.6644 57.165 97.6427 57.18C97.6227 57.195 97.5944 57.2025 97.5577 57.2025C97.5327 57.2025 97.5069 57.1958 97.4802 57.1825C97.4535 57.1675 97.4244 57.15 97.3927 57.13C97.361 57.1083 97.3244 57.085 97.2827 57.06C97.241 57.035 97.1927 57.0125 97.1377 56.9925C97.0827 56.9708 97.0185 56.9533 96.9452 56.94C96.8735 56.925 96.7902 56.9175 96.6952 56.9175C96.5335 56.9175 96.3852 56.9467 96.2502 57.005C96.1169 57.0617 96.0019 57.145 95.9052 57.255C95.8085 57.3633 95.7335 57.4967 95.6802 57.655C95.6269 57.8117 95.6002 57.9908 95.6002 58.1925C95.6002 58.3958 95.6285 58.5767 95.6852 58.735C95.7435 58.8933 95.8219 59.0267 95.9202 59.135C96.0185 59.2433 96.1344 59.3267 96.2677 59.385C96.401 59.4417 96.5444 59.47 96.6977 59.47C96.7894 59.47 96.8719 59.465 96.9452 59.455C97.0202 59.445 97.0885 59.4292 97.1502 59.4075C97.2135 59.3858 97.2727 59.3583 97.3277 59.325C97.3844 59.29 97.4402 59.2475 97.4952 59.1975C97.5119 59.1825 97.5294 59.1708 97.5477 59.1625C97.566 59.1525 97.5852 59.1475 97.6052 59.1475ZM103.238 56.385L102.116 60H101.508L100.718 57.53C100.697 57.47 100.677 57.3967 100.658 57.31C100.648 57.3517 100.638 57.3908 100.628 57.4275C100.618 57.4642 100.608 57.4983 100.596 57.53L99.7984 60H99.1884L98.0684 56.385H98.6309C98.6892 56.385 98.7375 56.3992 98.7759 56.4275C98.8159 56.4542 98.8425 56.4908 98.8559 56.5375L99.4709 58.7C99.4842 58.7533 99.4967 58.8117 99.5084 58.875C99.5217 58.9367 99.535 59.0017 99.5484 59.07C99.5617 59 99.5759 58.9342 99.5909 58.8725C99.6075 58.8108 99.625 58.7533 99.6434 58.7L100.353 56.5375C100.367 56.4992 100.393 56.4642 100.431 56.4325C100.471 56.4008 100.519 56.385 100.576 56.385H100.773C100.832 56.385 100.879 56.3992 100.916 56.4275C100.953 56.4558 100.98 56.4925 100.998 56.5375L101.706 58.7C101.741 58.8033 101.773 58.9225 101.801 59.0575C101.823 58.9258 101.847 58.8067 101.873 58.7L102.488 56.5375C102.498 56.4958 102.523 56.46 102.563 56.43C102.605 56.4 102.654 56.385 102.711 56.385H103.238Z" fill="#FF9000"/>
<path fill-rule="evenodd" clip-rule="evenodd" d="M6.61327 80.6973C6.00115 80.2892 5.16251 80 4 80V79C5.33749 79 6.37385 79.3358 7.16798 79.8652C7.95897 80.3926 8.48006 81.0921 8.82221 81.7764C8.88763 81.9072 8.94669 82.0378 9 82.167C9.05332 82.0378 9.11237 81.9072 9.17779 81.7764C9.51994 81.0921 10.041 80.3926 10.832 79.8652C11.6261 79.3358 12.6625 79 14 79V80C12.8375 80 11.9989 80.2892 11.3867 80.6973C10.7715 81.1074 10.3551 81.6579 10.0722 82.2236C9.78839 82.7912 9.64399 83.3649 9.57132 83.8009C9.53519 84.0178 9.51731 84.1974 9.50849 84.3208C9.50409 84.3824 9.50197 84.4298 9.50094 84.4605C9.50043 84.4759 9.5002 84.487 9.50009 84.4937L9.5 84.4995L9.5 84.5L9.5 84.5003C9.5 84.5007 9.5 84.5009 9.5 84.501L9.5 84.5008L9.5 84.5004C9.49977 84.7764 9.276 85 9 85C8.72412 85 8.50043 84.7766 8.5 84.5008L8.5 84.501C8.5 84.5009 8.5 84.5007 8.5 84.5003L8.49991 84.4937C8.4998 84.487 8.49957 84.4759 8.49906 84.4605C8.49803 84.4298 8.49591 84.3824 8.49151 84.3208C8.48269 84.1974 8.46481 84.0178 8.42868 83.8009C8.35601 83.3649 8.21161 82.7912 7.92779 82.2236C7.64494 81.6579 7.22853 81.1074 6.61327 80.6973Z" fill="#FF9000"/>
<path d="M25 79C25.3375 79 25.6864 79.0858 26.0117 79.3027C26.334 79.5176 26.6051 79.8421 26.8222 80.2764C26.905 80.442 26.9812 80.6261 27.0502 80.8299C27.1942 80.4277 27.3787 80.0483 27.6174 79.7405C27.9423 79.3215 28.3995 79 29 79H32V80H29C28.8005 80 28.6077 80.0952 28.4076 80.3533C28.2006 80.6203 28.0224 81.0204 27.8805 81.5134C27.5979 82.4946 27.5 83.694 27.5 84.5C27.5 84.7761 27.2761 85 27 85C26.7239 85 26.5 84.7761 26.5 84.5C26.5 82.5255 26.2505 81.3691 25.9278 80.7236C25.7699 80.4079 25.6035 80.2324 25.457 80.1348C25.3136 80.0392 25.1625 80 25 80H22V79H25Z" fill="#FF9000"/>
<path fill-rule="evenodd" clip-rule="evenodd" d="M42.6133 80.6973C42.0011 80.2892 41.1625 80 40 80V79C41.3375 79 42.3739 79.3358 43.168 79.8652C43.959 80.3926 44.4801 81.0921 44.8222 81.7764C44.8876 81.9072 44.9467 82.0378 45 82.167C45.0533 82.0378 45.1124 81.9072 45.1778 81.7764C45.5199 81.0921 46.041 80.3926 46.832 79.8652C47.6261 79.3358 48.6625 79 50 79V80C48.8375 80 47.9989 80.2892 47.3867 80.6973C46.7715 81.1074 46.3551 81.6579 46.0722 82.2236C45.7884 82.7912 45.644 83.3649 45.5713 83.8009C45.5352 84.0178 45.5173 84.1974 45.5085 84.3208C45.5041 84.3824 45.502 84.4298 45.5009 84.4605C45.5004 84.4759 45.5002 84.487 45.5001 84.4937L45.5 84.4995L45.5 84.5L45.5 84.5003C45.5 84.5007 45.5 84.5009 45.5 84.501L45.5 84.5008L45.5 84.5004C45.4998 84.7764 45.276 85 45 85C44.7241 85 44.5004 84.7766 44.5 84.5008L44.5 84.501C44.5 84.5009 44.5 84.5007 44.5 84.5003L44.4999 84.4937C44.4998 84.487 44.4996 84.4759 44.4991 84.4605C44.498 84.4298 44.4959 84.3824 44.4915 84.3208C44.4827 84.1974 44.4648 84.0178 44.4287 83.8009C44.356 83.3649 44.2116 82.7912 43.9278 82.2236C43.6449 81.6579 43.2285 81.1074 42.6133 80.6973Z" fill="#FF9000"/>
<path d="M41.0888 76.1925C41.0888 76.4575 41.0446 76.7033 40.9563 76.93C40.8696 77.155 40.7463 77.35 40.5863 77.515C40.4263 77.68 40.2338 77.8092 40.0088 77.9025C39.7838 77.9942 39.5338 78.04 39.2588 78.04C38.9854 78.04 38.7363 77.9942 38.5113 77.9025C38.2863 77.8092 38.0929 77.68 37.9313 77.515C37.7713 77.35 37.6471 77.155 37.5588 76.93C37.4704 76.7033 37.4263 76.4575 37.4263 76.1925C37.4263 75.9275 37.4704 75.6825 37.5588 75.4575C37.6471 75.2308 37.7713 75.035 37.9313 74.87C38.0929 74.705 38.2863 74.5767 38.5113 74.485C38.7363 74.3917 38.9854 74.345 39.2588 74.345C39.4421 74.345 39.6146 74.3667 39.7763 74.41C39.9379 74.4517 40.0863 74.5117 40.2213 74.59C40.3563 74.6667 40.4771 74.7608 40.5838 74.8725C40.6921 74.9825 40.7838 75.1058 40.8588 75.2425C40.9338 75.3792 40.9904 75.5275 41.0288 75.6875C41.0688 75.8475 41.0888 76.0158 41.0888 76.1925ZM40.4013 76.1925C40.4013 75.9942 40.3746 75.8167 40.3213 75.66C40.2679 75.5017 40.1921 75.3675 40.0938 75.2575C39.9954 75.1475 39.8754 75.0633 39.7338 75.005C39.5938 74.9467 39.4354 74.9175 39.2588 74.9175C39.0821 74.9175 38.9229 74.9467 38.7813 75.005C38.6413 75.0633 38.5213 75.1475 38.4213 75.2575C38.3229 75.3675 38.2471 75.5017 38.1938 75.66C38.1404 75.8167 38.1138 75.9942 38.1138 76.1925C38.1138 76.3908 38.1404 76.5692 38.1938 76.7275C38.2471 76.8842 38.3229 77.0175 38.4213 77.1275C38.5213 77.2358 38.6413 77.3192 38.7813 77.3775C38.9229 77.4358 39.0821 77.465 39.2588 77.465C39.4354 77.465 39.5938 77.4358 39.7338 77.3775C39.8754 77.3192 39.9954 77.2358 40.0938 77.1275C40.1921 77.0175 40.2679 76.8842 40.3213 76.7275C40.3746 76.5692 40.4013 76.3908 40.4013 76.1925ZM43.0319 77.475C43.1569 77.475 43.2619 77.46 43.3469 77.43C43.4319 77.4 43.4994 77.36 43.5494 77.31C43.601 77.26 43.6377 77.2017 43.6594 77.135C43.6827 77.0683 43.6944 76.9975 43.6944 76.9225C43.6944 76.8442 43.6819 76.7742 43.6569 76.7125C43.6319 76.6492 43.5927 76.5958 43.5394 76.5525C43.486 76.5075 43.4169 76.4733 43.3319 76.45C43.2485 76.4267 43.1477 76.415 43.0294 76.415H42.3519V77.475H43.0319ZM42.3519 74.905V75.95H42.8869C43.1169 75.95 43.2902 75.9083 43.4069 75.825C43.5252 75.7417 43.5844 75.6092 43.5844 75.4275C43.5844 75.2392 43.531 75.105 43.4244 75.025C43.3177 74.945 43.151 74.905 42.9244 74.905H42.3519ZM42.9244 74.385C43.161 74.385 43.3635 74.4075 43.5319 74.4525C43.7002 74.4975 43.8377 74.5617 43.9444 74.645C44.0527 74.7283 44.1319 74.8292 44.1819 74.9475C44.2319 75.0658 44.2569 75.1992 44.2569 75.3475C44.2569 75.4325 44.2444 75.5142 44.2194 75.5925C44.1944 75.6692 44.1552 75.7417 44.1019 75.81C44.0502 75.8767 43.9835 75.9375 43.9019 75.9925C43.8219 76.0475 43.726 76.0942 43.6144 76.1325C44.111 76.2442 44.3594 76.5125 44.3594 76.9375C44.3594 77.0908 44.3302 77.2325 44.2719 77.3625C44.2135 77.4925 44.1285 77.605 44.0169 77.7C43.9052 77.7933 43.7677 77.8667 43.6044 77.92C43.441 77.9733 43.2544 78 43.0444 78H41.6794V74.385H42.9244ZM44.8529 76.2325H46.1479V76.7475H44.8529V76.2325ZM48.95 78H48.355C48.31 78 48.2733 77.9883 48.245 77.965C48.2183 77.9417 48.1958 77.915 48.1775 77.885L47.635 76.9925C47.6266 77.0208 47.6166 77.0475 47.605 77.0725C47.595 77.0975 47.5833 77.1208 47.57 77.1425L47.09 77.885C47.0716 77.9133 47.0491 77.94 47.0225 77.965C46.9958 77.9883 46.9625 78 46.9225 78H46.37L47.25 76.6775L46.405 75.435H47C47.045 75.435 47.0783 75.4417 47.1 75.455C47.1216 75.4667 47.1408 75.4867 47.1575 75.515L47.695 76.37C47.7133 76.3133 47.7391 76.2575 47.7725 76.2025L48.205 75.5275C48.2416 75.4658 48.2891 75.435 48.3475 75.435H48.915L48.0725 76.65L48.95 78ZM52.57 76.1925C52.57 76.4575 52.5259 76.7008 52.4375 76.9225C52.3492 77.1442 52.225 77.335 52.065 77.495C51.905 77.655 51.7125 77.7792 51.4875 77.8675C51.2625 77.9558 51.0125 78 50.7375 78H49.36V74.385H50.7375C51.0125 74.385 51.2625 74.43 51.4875 74.52C51.7125 74.6083 51.905 74.7325 52.065 74.8925C52.225 75.0508 52.3492 75.2408 52.4375 75.4625C52.5259 75.6842 52.57 75.9275 52.57 76.1925ZM51.88 76.1925C51.88 75.9942 51.8534 75.8167 51.8 75.66C51.7484 75.5017 51.6725 75.3683 51.5725 75.26C51.4742 75.15 51.3542 75.0658 51.2125 75.0075C51.0725 74.9492 50.9142 74.92 50.7375 74.92H50.035V77.465H50.7375C50.9142 77.465 51.0725 77.4358 51.2125 77.3775C51.3542 77.3192 51.4742 77.2358 51.5725 77.1275C51.6725 77.0175 51.7484 76.8842 51.8 76.7275C51.8534 76.5692 51.88 76.3908 51.88 76.1925Z" fill="#FF9000"/>
<path d="M68 79.5C68 79.5 67.5 79.5 66.5 79.5C65.5 79.5 64.5 80.5004 64.5 82C64.5 83.4996 64.4999 84.5 64 84.5C63.5001 84.5 64 83 63 83C62 83 62.5 84.5 62 84.5C61.5 84.5 61.5 83.4998 61.5 82C61.5 80.5002 60.5 79.4998 59.5 79.5C58.5 79.5002 58 79.5 58 79.5" stroke="#FF9000"/>
<path d="M63.2249 74.385V78H62.8799C62.8266 78 62.7816 77.9917 62.7449 77.975C62.7099 77.9567 62.6757 77.9267 62.6424 77.885L60.7549 75.475C60.7649 75.585 60.7699 75.6867 60.7699 75.78V78H60.1774V74.385H60.5299C60.5582 74.385 60.5824 74.3867 60.6024 74.39C60.6241 74.3917 60.6424 74.3967 60.6574 74.405C60.6741 74.4117 60.6899 74.4225 60.7049 74.4375C60.7199 74.4508 60.7366 74.4692 60.7549 74.4925L62.6499 76.9125C62.6449 76.8542 62.6407 76.7967 62.6374 76.74C62.6341 76.6833 62.6324 76.6308 62.6324 76.5825V74.385H63.2249ZM66.1474 77.445V78H64.0299V74.385H64.7024V77.445H66.1474Z" fill="#FF9000"/>
<path d="M86 79.5C86 79.5 85.5 79.5 84.5 79.5C83.5 79.5 82.5 80.5004 82.5 82C82.5 83.4996 82.4999 84.5 82 84.5C81.5001 84.5 82 83 81 83C80 83 80.5 84.5 80 84.5C79.5 84.5 79.5 83.4998 79.5 82C79.5 80.5002 78.5 79.4998 77.5 79.5C76.5 79.5002 76 79.5 76 79.5" stroke="#FF9000"/>
<path d="M79.6052 77.1475C79.6419 77.1475 79.6744 77.1617 79.7027 77.19L79.9677 77.4775C79.821 77.6592 79.6402 77.7983 79.4252 77.895C79.2119 77.9917 78.9552 78.04 78.6552 78.04C78.3869 78.04 78.1452 77.9942 77.9302 77.9025C77.7169 77.8108 77.5344 77.6833 77.3827 77.52C77.231 77.3567 77.1144 77.1617 77.0327 76.935C76.9527 76.7083 76.9127 76.4608 76.9127 76.1925C76.9127 75.9208 76.956 75.6725 77.0427 75.4475C77.1294 75.2208 77.251 75.0258 77.4077 74.8625C77.566 74.6992 77.7544 74.5725 77.9727 74.4825C78.191 74.3908 78.4327 74.345 78.6977 74.345C78.961 74.345 79.1944 74.3883 79.3977 74.475C79.6027 74.5617 79.7769 74.675 79.9202 74.815L79.6952 75.1275C79.6819 75.1475 79.6644 75.165 79.6427 75.18C79.6227 75.195 79.5944 75.2025 79.5577 75.2025C79.5327 75.2025 79.5069 75.1958 79.4802 75.1825C79.4535 75.1675 79.4244 75.15 79.3927 75.13C79.361 75.1083 79.3244 75.085 79.2827 75.06C79.241 75.035 79.1927 75.0125 79.1377 74.9925C79.0827 74.9708 79.0185 74.9533 78.9452 74.94C78.8735 74.925 78.7902 74.9175 78.6952 74.9175C78.5335 74.9175 78.3852 74.9467 78.2502 75.005C78.1169 75.0617 78.0019 75.145 77.9052 75.255C77.8085 75.3633 77.7335 75.4967 77.6802 75.655C77.6269 75.8117 77.6002 75.9908 77.6002 76.1925C77.6002 76.3958 77.6285 76.5767 77.6852 76.735C77.7435 76.8933 77.8219 77.0267 77.9202 77.135C78.0185 77.2433 78.1344 77.3267 78.2677 77.385C78.401 77.4417 78.5444 77.47 78.6977 77.47C78.7894 77.47 78.8719 77.465 78.9452 77.455C79.0202 77.445 79.0885 77.4292 79.1502 77.4075C79.2135 77.3858 79.2727 77.3583 79.3277 77.325C79.3844 77.29 79.4402 77.2475 79.4952 77.1975C79.5119 77.1825 79.5294 77.1708 79.5477 77.1625C79.566 77.1525 79.5852 77.1475 79.6052 77.1475ZM85.2384 74.385L84.1159 78H83.5084L82.7184 75.53C82.6967 75.47 82.6767 75.3967 82.6584 75.31C82.6484 75.3517 82.6384 75.3908 82.6284 75.4275C82.6184 75.4642 82.6075 75.4983 82.5959 75.53L81.7984 78H81.1884L80.0684 74.385H80.6309C80.6892 74.385 80.7375 74.3992 80.7759 74.4275C80.8159 74.4542 80.8425 74.4908 80.8559 74.5375L81.4709 76.7C81.4842 76.7533 81.4967 76.8117 81.5084 76.875C81.5217 76.9367 81.535 77.0017 81.5484 77.07C81.5617 77 81.5759 76.9342 81.5909 76.8725C81.6075 76.8108 81.625 76.7533 81.6434 76.7L82.3534 74.5375C82.3667 74.4992 82.3925 74.4642 82.4309 74.4325C82.4709 74.4008 82.5192 74.385 82.5759 74.385H82.7734C82.8317 74.385 82.8792 74.3992 82.9159 74.4275C82.9525 74.4558 82.98 74.4925 82.9984 74.5375L83.7059 76.7C83.7409 76.8033 83.7725 76.9225 83.8009 77.0575C83.8225 76.9258 83.8467 76.8067 83.8734 76.7L84.4884 74.5375C84.4984 74.4958 84.5234 74.46 84.5634 74.43C84.605 74.4 84.6542 74.385 84.7109 74.385H85.2384Z" fill="#FF9000"/>
<path d="M7.64033 100.089L7.02433 98.4055C6.994 98.3308 6.9625 98.2422 6.92983 98.1395C6.89717 98.0368 6.8645 97.926 6.83183 97.807C6.8015 97.926 6.77 98.038 6.73733 98.143C6.70467 98.2457 6.67317 98.3355 6.64283 98.4125L6.03033 100.089H7.64033ZM9.30283 102H8.57483C8.49317 102 8.42667 101.98 8.37533 101.94C8.324 101.898 8.2855 101.847 8.25983 101.786L7.88183 100.754H5.78533L5.40733 101.786C5.38867 101.84 5.3525 101.889 5.29883 101.933C5.24517 101.978 5.17867 102 5.09933 102H4.36433L6.35583 96.939H7.31483L9.30283 102ZM11.4717 99.4835C11.6444 99.4835 11.7949 99.4625 11.9232 99.4205C12.0515 99.3762 12.1577 99.3143 12.2417 99.235C12.328 99.1533 12.3922 99.0553 12.4342 98.941C12.4762 98.8243 12.4972 98.6948 12.4972 98.5525C12.4972 98.4172 12.4762 98.2947 12.4342 98.185C12.3922 98.0753 12.3292 97.982 12.2452 97.905C12.1612 97.828 12.055 97.7697 11.9267 97.73C11.7984 97.688 11.6467 97.667 11.4717 97.667H10.7682V99.4835H11.4717ZM11.4717 96.939C11.81 96.939 12.1029 96.9787 12.3502 97.058C12.5975 97.1373 12.8017 97.2482 12.9627 97.3905C13.1237 97.5328 13.2427 97.7032 13.3197 97.9015C13.399 98.0998 13.4387 98.3168 13.4387 98.5525C13.4387 98.7975 13.3979 99.0227 13.3162 99.228C13.2345 99.431 13.112 99.606 12.9487 99.753C12.7854 99.9 12.58 100.014 12.3327 100.096C12.0877 100.178 11.8007 100.218 11.4717 100.218H10.7682V102H9.82668V96.939H11.4717Z" fill="#FF9000"/>
<path fill-rule="evenodd" clip-rule="evenodd" d="M21.9223 98.8622C21.5902 98.1538 21.2278 98 21 98V97C21.7722 97 22.4098 97.5462 22.8277 98.4378C22.8888 98.568 22.9463 98.7075 23 98.8565C23.0537 98.7075 23.1112 98.568 23.1723 98.4378C23.5902 97.5462 24.2278 97 25 97C25.3375 97 25.6864 97.0858 26.0117 97.3027C26.334 97.5176 26.6051 97.8421 26.8222 98.2764C26.905 98.442 26.9812 98.6261 27.0502 98.8299C27.1942 98.4277 27.3787 98.0483 27.6174 97.7405C27.9423 97.3215 28.3995 97 29 97C29.6005 97 30.0577 97.3215 30.3826 97.7405C30.65 98.0853 30.8494 98.52 31 98.9759C31.1506 98.52 31.35 98.0853 31.6174 97.7405C31.9423 97.3215 32.3995 97 33 97V98C32.8005 98 32.6077 98.0952 32.4076 98.3533C32.2006 98.6203 32.0224 99.0204 31.8805 99.5134C31.5979 100.495 31.5 101.694 31.5 102.5C31.5 102.776 31.2761 103 31 103C30.7239 103 30.5 102.776 30.5 102.5C30.5 101.694 30.4021 100.495 30.1195 99.5134C29.9776 99.0204 29.7994 98.6203 29.5924 98.3533C29.3923 98.0952 29.1995 98 29 98C28.8005 98 28.6077 98.0952 28.4076 98.3533C28.2006 98.6203 28.0224 99.0204 27.8805 99.5134C27.5979 100.495 27.5 101.694 27.5 102.5C27.5 102.776 27.2761 103 27 103C26.7239 103 26.5 102.776 26.5 102.5C26.5 100.526 26.2505 99.3691 25.9278 98.7236C25.7699 98.4079 25.6035 98.2324 25.457 98.1348C25.3136 98.0392 25.1625 98 25 98C24.7722 98 24.4098 98.1538 24.0777 98.8622C23.7466 99.5687 23.5 100.736 23.5 102.5C23.5 102.776 23.2761 103 23 103C22.7239 103 22.5 102.776 22.5 102.5C22.5 100.736 22.2534 99.5687 21.9223 98.8622Z" fill="#FF9000"/>
<path fill-rule="evenodd" clip-rule="evenodd" d="M39.9223 101.138C39.5902 101.846 39.2278 102 39 102V103C39.7722 103 40.4098 102.454 40.8277 101.562C40.8888 101.432 40.9463 101.293 41 101.143C41.0537 101.293 41.1112 101.432 41.1723 101.562C41.5902 102.454 42.2278 103 43 103C43.3375 103 43.6864 102.914 44.0117 102.697C44.334 102.482 44.6051 102.158 44.8222 101.724C44.905 101.558 44.9812 101.374 45.0502 101.17C45.1942 101.572 45.3787 101.952 45.6174 102.26C45.9423 102.679 46.3995 103 47 103C47.6005 103 48.0577 102.679 48.3826 102.26C48.65 101.915 48.8494 101.48 49 101.024C49.1506 101.48 49.35 101.915 49.6174 102.26C49.9423 102.679 50.3995 103 51 103V102C50.8005 102 50.6077 101.905 50.4076 101.647C50.2006 101.38 50.0224 100.98 49.8805 100.487C49.5979 99.5054 49.5 98.306 49.5 97.5C49.5 97.2239 49.2761 97 49 97C48.7239 97 48.5 97.2239 48.5 97.5C48.5 98.306 48.4021 99.5054 48.1195 100.487C47.9776 100.98 47.7994 101.38 47.5924 101.647C47.3923 101.905 47.1995 102 47 102C46.8005 102 46.6077 101.905 46.4076 101.647C46.2006 101.38 46.0224 100.98 45.8805 100.487C45.5979 99.5054 45.5 98.306 45.5 97.5C45.5 97.2239 45.2761 97 45 97C44.7239 97 44.5 97.2239 44.5 97.5C44.5 99.4745 44.2505 100.631 43.9278 101.276C43.7699 101.592 43.6035 101.768 43.457 101.865C43.3136 101.961 43.1625 102 43 102C42.7722 102 42.4098 101.846 42.0777 101.138C41.7466 100.431 41.5 99.264 41.5 97.5C41.5 97.2239 41.2761 97 41 97C40.7239 97 40.5 97.2239 40.5 97.5C40.5 99.264 40.2534 100.431 39.9223 101.138Z" fill="#FF9000"/>
<path d="M59.1081 97.8595C59.0801 97.9085 59.0498 97.9447 59.0171 97.968C58.9868 97.989 58.9483 97.9995 58.9016 97.9995C58.8526 97.9995 58.7989 97.982 58.7406 97.947C58.6846 97.9097 58.6169 97.8688 58.5376 97.8245C58.4583 97.7802 58.3649 97.7405 58.2576 97.7055C58.1526 97.6682 58.0278 97.6495 57.8831 97.6495C57.7524 97.6495 57.6381 97.6658 57.5401 97.6985C57.4421 97.7288 57.3593 97.772 57.2916 97.828C57.2263 97.884 57.1773 97.9517 57.1446 98.031C57.1119 98.108 57.0956 98.1932 57.0956 98.2865C57.0956 98.4055 57.1283 98.5047 57.1936 98.584C57.2613 98.6633 57.3499 98.731 57.4596 98.787C57.5693 98.843 57.6941 98.8932 57.8341 98.9375C57.9741 98.9818 58.1176 99.0297 58.2646 99.081C58.4116 99.13 58.5551 99.1883 58.6951 99.256C58.8351 99.3213 58.9599 99.4053 59.0696 99.508C59.1793 99.6083 59.2668 99.732 59.3321 99.879C59.3998 100.026 59.4336 100.204 59.4336 100.414C59.4336 100.643 59.3939 100.858 59.3146 101.058C59.2376 101.257 59.1233 101.431 58.9716 101.58C58.8223 101.727 58.6391 101.844 58.4221 101.93C58.2051 102.014 57.9566 102.056 57.6766 102.056C57.5156 102.056 57.3569 102.04 57.2006 102.007C57.0443 101.977 56.8938 101.932 56.7491 101.874C56.6068 101.816 56.4726 101.746 56.3466 101.664C56.2206 101.582 56.1086 101.491 56.0106 101.391L56.2871 100.939C56.3104 100.907 56.3408 100.88 56.3781 100.859C56.4154 100.836 56.4551 100.824 56.4971 100.824C56.5554 100.824 56.6184 100.848 56.6861 100.897C56.7538 100.944 56.8343 100.997 56.9276 101.055C57.0209 101.113 57.1294 101.167 57.2531 101.216C57.3791 101.263 57.5296 101.286 57.7046 101.286C57.9729 101.286 58.1806 101.223 58.3276 101.097C58.4746 100.969 58.5481 100.785 58.5481 100.547C58.5481 100.414 58.5143 100.306 58.4466 100.222C58.3813 100.138 58.2938 100.068 58.1841 100.012C58.0744 99.9537 57.9496 99.9047 57.8096 99.865C57.6696 99.8253 57.5273 99.7822 57.3826 99.7355C57.2379 99.6888 57.0956 99.6328 56.9556 99.5675C56.8156 99.5022 56.6908 99.417 56.5811 99.312C56.4714 99.207 56.3828 99.0763 56.3151 98.92C56.2498 98.7613 56.2171 98.5665 56.2171 98.3355C56.2171 98.1512 56.2533 97.9715 56.3256 97.7965C56.4003 97.6215 56.5076 97.4663 56.6476 97.331C56.7876 97.1957 56.9603 97.0872 57.1656 97.0055C57.3709 96.9238 57.6066 96.883 57.8726 96.883C58.1713 96.883 58.4466 96.9297 58.6986 97.023C58.9506 97.1163 59.1653 97.247 59.3426 97.415L59.1081 97.8595ZM61.3644 99.634C61.1777 99.7553 61.0412 99.893 60.9549 100.047C60.8709 100.199 60.8289 100.362 60.8289 100.537C60.8289 100.665 60.8511 100.781 60.8954 100.883C60.9397 100.986 60.9992 101.074 61.0739 101.146C61.1509 101.216 61.2396 101.271 61.3399 101.31C61.4426 101.348 61.5511 101.366 61.6654 101.366C61.8707 101.366 62.0586 101.335 62.2289 101.272C62.3992 101.207 62.5532 101.117 62.6909 101.002L61.3644 99.634ZM64.7349 102H63.8879C63.7992 102 63.7269 101.989 63.6709 101.968C63.6172 101.947 63.5601 101.903 63.4994 101.835L63.1494 101.475C62.9277 101.657 62.6792 101.799 62.4039 101.902C62.1286 102.005 61.8311 102.056 61.5114 102.056C61.3177 102.056 61.1264 102.023 60.9374 101.958C60.7507 101.89 60.5839 101.793 60.4369 101.667C60.2899 101.541 60.1709 101.39 60.0799 101.212C59.9912 101.033 59.9469 100.831 59.9469 100.607C59.9469 100.448 59.9726 100.299 60.0239 100.159C60.0752 100.017 60.1464 99.8848 60.2374 99.7635C60.3284 99.6422 60.4369 99.5337 60.5629 99.438C60.6889 99.34 60.8266 99.256 60.9759 99.186C60.8499 99.011 60.7589 98.8407 60.7029 98.675C60.6469 98.507 60.6189 98.3402 60.6189 98.1745C60.6189 97.9995 60.6504 97.8338 60.7134 97.6775C60.7787 97.5188 60.8721 97.3812 60.9934 97.2645C61.1147 97.1478 61.2641 97.0557 61.4414 96.988C61.6187 96.918 61.8194 96.883 62.0434 96.883C62.2487 96.883 62.4319 96.9145 62.5929 96.9775C62.7562 97.0405 62.8951 97.1245 63.0094 97.2295C63.1261 97.3345 63.2171 97.4547 63.2824 97.59C63.3501 97.7253 63.3897 97.8653 63.4014 98.01L62.8519 98.1255C62.7492 98.1465 62.6746 98.1022 62.6279 97.9925C62.6069 97.9318 62.5789 97.8747 62.5439 97.821C62.5112 97.765 62.4716 97.7172 62.4249 97.6775C62.3782 97.6355 62.3234 97.6028 62.2604 97.5795C62.1974 97.5538 62.1251 97.541 62.0434 97.541C61.9454 97.541 61.8579 97.5585 61.7809 97.5935C61.7039 97.6262 61.6386 97.6717 61.5849 97.73C61.5336 97.786 61.4939 97.8525 61.4659 97.9295C61.4379 98.0042 61.4239 98.0835 61.4239 98.1675C61.4239 98.2375 61.4309 98.3052 61.4449 98.3705C61.4589 98.4358 61.4822 98.5012 61.5149 98.5665C61.5476 98.6318 61.5896 98.6995 61.6409 98.7695C61.6946 98.8372 61.7599 98.9107 61.8369 98.99L63.1809 100.386C63.2579 100.239 63.3197 100.084 63.3664 99.921C63.4131 99.7577 63.4434 99.592 63.4574 99.424C63.4644 99.3703 63.4831 99.3272 63.5134 99.2945C63.5437 99.2618 63.5857 99.2455 63.6394 99.2455H64.1784C64.1761 99.5535 64.1317 99.8475 64.0454 100.127C63.9591 100.407 63.8354 100.665 63.6744 100.901L64.7349 102ZM69.5868 96.939V102H68.6418V99.788H66.2653V102H65.3203V96.939H66.2653V99.116H68.6418V96.939H69.5868Z" fill="#FF9000"/>
</svg>
