<svg width="119" height="51" viewBox="0 0 119 51" fill="none" xmlns="http://www.w3.org/2000/svg">
<path fill-rule="evenodd" clip-rule="evenodd" d="M71.5 25.5C71.5 23.2909 73.2909 21.5 75.5 21.5C77.7091 21.5 79.5 23.2909 79.5 25.5C79.5 27.7091 77.7091 29.5 75.5 29.5C73.2909 29.5 71.5 27.7091 71.5 25.5Z" fill="#979797" stroke="black"/>
<path fill-rule="evenodd" clip-rule="evenodd" d="M76 24V25H77V26H76V27H75V26H74V25H75V24H76Z" fill="#EEEEEE"/>
<path fill-rule="evenodd" clip-rule="evenodd" d="M17.5 0.5H35.5V10.5H17.5V0.5Z" fill="#EEEEEE" stroke="black"/>
<path fill-rule="evenodd" clip-rule="evenodd" d="M43.5 0.5H61.5V10.5H43.5V0.5Z" fill="#EEEEEE" stroke="black"/>
<path fill-rule="evenodd" clip-rule="evenodd" d="M17.5 20.5H35.5V30.5H17.5V20.5Z" fill="#EEEEEE" stroke="black"/>
<path fill-rule="evenodd" clip-rule="evenodd" d="M43.5 20.5H61.5V30.5H43.5V20.5Z" fill="#EEEEEE" stroke="black"/>
<path fill-rule="evenodd" clip-rule="evenodd" d="M88.5 10.5H106.5V20.5H88.5V10.5Z" fill="#EEEEEE" stroke="black"/>
<path fill-rule="evenodd" clip-rule="evenodd" d="M88.5 30.5H106.5V40.5H88.5V30.5Z" fill="#EEEEEE" stroke="black"/>
<path fill-rule="evenodd" clip-rule="evenodd" d="M61 5H76V6H61V5Z" fill="black"/>
<path fill-rule="evenodd" clip-rule="evenodd" d="M75 5H76V16H75V5Z" fill="black"/>
<path fill-rule="evenodd" clip-rule="evenodd" d="M67 5H68V14H67V5Z" fill="black"/>
<path fill-rule="evenodd" clip-rule="evenodd" d="M26 13H68V14H26V13Z" fill="black"/>
<path fill-rule="evenodd" clip-rule="evenodd" d="M17.5 40.5H35.5V50.5H17.5V40.5Z" fill="#EEEEEE" stroke="black"/>
<path fill-rule="evenodd" clip-rule="evenodd" d="M43.5 40.5H61.5V50.5H43.5V40.5Z" fill="#EEEEEE" stroke="black"/>
<path fill-rule="evenodd" clip-rule="evenodd" d="M0.5 0.5H9.5V10.5H0.5V0.5Z" fill="#979797" stroke="black"/>
<path fill-rule="evenodd" clip-rule="evenodd" d="M0.5 40.5H9.5V50.5H0.5V40.5Z" fill="#979797" stroke="black"/>
<path fill-rule="evenodd" clip-rule="evenodd" d="M26 37H68V38H26V37Z" fill="black"/>
<path fill-rule="evenodd" clip-rule="evenodd" d="M67 37H68V46H67V37Z" fill="black"/>
<path fill-rule="evenodd" clip-rule="evenodd" d="M75 36H76V46H75V36Z" fill="black"/>
<path fill-rule="evenodd" clip-rule="evenodd" d="M61 45H76V46H61V45Z" fill="black"/>
<path fill-rule="evenodd" clip-rule="evenodd" d="M79.5 25H83.5V26H79.5V25Z" fill="black"/>
<path fill-rule="evenodd" clip-rule="evenodd" d="M83 15H84V26H83V15Z" fill="black"/>
<path fill-rule="evenodd" clip-rule="evenodd" d="M83 15H89V16H83V15Z" fill="black"/>
<path fill-rule="evenodd" clip-rule="evenodd" d="M106 35H112V36H106V35Z" fill="black"/>
<path fill-rule="evenodd" clip-rule="evenodd" d="M111 25H112V36H111V25Z" fill="black"/>
<path fill-rule="evenodd" clip-rule="evenodd" d="M12 3L16 5.5L12 8V6H10V5H12V3Z" fill="black"/>
<path fill-rule="evenodd" clip-rule="evenodd" d="M29 15L26.5 19L24 15H26V13H27V15H29Z" fill="black"/>
<path fill-rule="evenodd" clip-rule="evenodd" d="M55 15L52.5 19L50 15H52V13H53V15H55Z" fill="black"/>
<path fill-rule="evenodd" clip-rule="evenodd" d="M78 16.5L75.5 20.5L73 16.5H75V14.5H76V16.5H78Z" fill="black"/>
<path fill-rule="evenodd" clip-rule="evenodd" d="M78 34.5L75.5 30.5L73 34.5H75V36.5H76V34.5H78Z" fill="black"/>
<path fill-rule="evenodd" clip-rule="evenodd" d="M100 25L97.5 29L95 25H97V20.5H98V25H100Z" fill="black"/>
<path fill-rule="evenodd" clip-rule="evenodd" d="M67.5 23L70.5 25.5L67.5 28V23Z" fill="black"/>
<path fill-rule="evenodd" clip-rule="evenodd" d="M24 36L26.5 32L29 36H27V38H26V36H24Z" fill="black"/>
<path fill-rule="evenodd" clip-rule="evenodd" d="M50 36L52.5 32L55 36H53V38H52V36H50Z" fill="black"/>
<path fill-rule="evenodd" clip-rule="evenodd" d="M38 3L42 5.5L38 8V6H36V5H38V3Z" fill="black"/>
<path fill-rule="evenodd" clip-rule="evenodd" d="M12 43L16 45.5L12 48V46H10V45H12V43Z" fill="black"/>
<path fill-rule="evenodd" clip-rule="evenodd" d="M38 43L42 45.5L38 48V46H36V45H38V43Z" fill="black"/>
<path fill-rule="evenodd" clip-rule="evenodd" d="M115 23L119 25.5L115 28V26H111.5V25H115V23Z" fill="black"/>
<path fill-rule="evenodd" clip-rule="evenodd" d="M3.43096 8.00001C3.52896 8.00001 3.61179 7.97376 3.67946 7.92126C3.74713 7.86876 3.79263 7.80984 3.81596 7.74451L4.11696 6.85551H6.05596L6.35696 7.74451C6.38263 7.81918 6.42871 7.88043 6.49521 7.92826C6.56171 7.97609 6.64629 8.00001 6.74896 8.00001H7.66596L5.69196 2.90051H4.48096L2.50696 8.00001H3.43096ZM5.78296 6.0505H4.38996L4.85896 4.661C4.89396 4.57233 4.93129 4.46733 4.97095 4.346C5.01062 4.22466 5.04912 4.09283 5.08646 3.9505C5.12612 4.0905 5.16637 4.22058 5.20721 4.34075C5.24804 4.46091 5.28362 4.56533 5.31396 4.654L5.78296 6.0505Z" fill="#EEEEEE"/>
<path fill-rule="evenodd" clip-rule="evenodd" d="M4.95692 48C5.26259 48 5.53442 47.9609 5.77242 47.8828C6.01042 47.8046 6.2105 47.6961 6.37267 47.5573C6.53484 47.4184 6.65792 47.2557 6.74192 47.069C6.82592 46.8823 6.86792 46.6805 6.86792 46.4635C6.86792 46.1765 6.78742 45.9414 6.62642 45.7583C6.46542 45.5751 6.21692 45.4427 5.88092 45.361C6.03492 45.305 6.16675 45.2391 6.27642 45.1633C6.38609 45.0874 6.47592 45.0028 6.54592 44.9095C6.61592 44.8162 6.66725 44.7164 6.69992 44.6103C6.73259 44.5041 6.74892 44.3938 6.74892 44.2795C6.74892 44.0695 6.71334 43.8793 6.64217 43.709C6.571 43.5387 6.45725 43.394 6.30092 43.275C6.14459 43.156 5.94275 43.0638 5.69542 42.9985C5.44809 42.9332 5.14825 42.9005 4.79592 42.9005H2.91992V48H4.95692ZM4.71893 45.046H4.10293V43.786H4.79593C4.92893 43.786 5.04385 43.7965 5.14068 43.8175C5.23752 43.8385 5.31743 43.8735 5.38043 43.9225C5.44343 43.9715 5.4901 44.0363 5.52043 44.1168C5.55077 44.1973 5.56593 44.2982 5.56593 44.4195C5.56593 44.5432 5.54668 44.6458 5.50818 44.7275C5.46968 44.8092 5.41368 44.8733 5.34018 44.92C5.26668 44.9667 5.17743 44.9993 5.07243 45.018C4.96743 45.0367 4.8496 45.046 4.71893 45.046ZM4.93593 47.1075H4.10293V45.837H4.92893C5.07827 45.837 5.20193 45.851 5.29993 45.879C5.39793 45.907 5.47668 45.9467 5.53618 45.998C5.59568 46.0493 5.63768 46.1123 5.66218 46.187C5.68668 46.2617 5.69893 46.3457 5.69893 46.439C5.69893 46.5207 5.68843 46.6012 5.66743 46.6805C5.64643 46.7598 5.60793 46.831 5.55193 46.894C5.49593 46.957 5.41835 47.0083 5.31918 47.048C5.22002 47.0877 5.09227 47.1075 4.93593 47.1075Z" fill="#EEEEEE"/>
<rect x="63" y="25" width="1" height="1" fill="black"/>
<rect x="65" y="25" width="1" height="1" fill="black"/>
<rect x="67" y="25" width="1" height="1" fill="black"/>
<rect x="35.5" y="25" width="1" height="1" fill="black"/>
<rect x="37.5" y="25" width="1" height="1" fill="black"/>
<rect x="39.5" y="25" width="1" height="1" fill="black"/>
<rect x="41.5" y="25" width="1" height="1" fill="black"/>
</svg>
