<?xml version="1.0" encoding="utf-8"?>
<svg width="12px" height="36px" viewBox="0 0 12 36" version="1.1" xmlns:xlink="http://www.w3.org/1999/xlink" xmlns="http://www.w3.org/2000/svg">
  <desc>Created with Lunacy</desc>
  <defs>
    <linearGradient x1="0.5" y1="0.2770996" x2="0.749153435" y2="1" id="gradient_1">
      <stop offset="0" stop-color="#E48626" />
      <stop offset="0.5426" stop-color="#FFA244" />
      <stop offset="1" stop-color="#FFA74C" />
    </linearGradient>
    <path d="M0 0L12 0L12 36L0 36L0 0Z" id="path_1" />
    <rect width="12" height="36" id="artboard_1" />
    <clipPath id="clip_1">
      <use xlink:href="#artboard_1" clip-rule="evenodd" />
    </clipPath>
    <clipPath id="mask_1">
      <use xlink:href="#path_1" />
    </clipPath>
  </defs>
  <g id="Artboard" clip-path="url(#clip_1)">
    <use xlink:href="#artboard_1" stroke="none" fill="#FFFFFF" fill-opacity="0" />
    <g id="bmp00121">
      <path d="M0 0L12 0L12 36L0 36L0 0Z" id="Background" fill="none" stroke="none" />
      <g clip-path="url(#mask_1)">
        <g id="bmp00121" transform="translate(-249.7026 -280.856)">
          <path d="M0 6L0 4.5C0 3.25736 0.43934 2.1967 1.31802 1.31802C2.1967 0.43934 3.25736 0 4.5 0C5.74264 0 6.8033 0.43934 7.68198 1.31802C8.56066 2.1967 9 3.25736 9 4.5L9 7.5C9 8.74264 8.56066 9.8033 7.68198 10.682C6.8033 11.5607 5.74264 12 4.5 12C3.25736 12 2.1967 11.5607 1.31802 10.682C0.43934 9.8033 0 8.74264 0 7.5L0 6Z" transform="translate(250.2026 282.356)" id="Rectangle" fill="#E3E3E3" stroke="#919191" stroke-width="1" />
          <path d="M0 6L0 4.5C0 3.25736 0.43934 2.1967 1.31802 1.31802C2.1967 0.43934 3.25736 0 4.5 0C5.74264 0 6.8033 0.43934 7.68198 1.31802C8.56066 2.1967 9 3.25736 9 4.5L9 7.5C9 8.74264 8.56066 9.8033 7.68198 10.682C6.8033 11.5607 5.74264 12 4.5 12C3.25736 12 2.1967 11.5607 1.31802 10.682C0.43934 9.8033 0 8.74264 0 7.5L0 6Z" transform="translate(250.2026 300.356)" id="Rectangle#1" fill="url(#gradient_1)" stroke="#BD6404" stroke-width="1" />
          <g id="Group" transform="matrix(0.866678 -0.49887 0.5 0.866025 108.4618 146.9343)">
            <g id="Group">
              <path d="M268.354 26.2262C251.567 9.42725 228.79 -0.00775528 205.042 0.000247955L205.042 0.000247955C181.303 -0.0557518 158.526 9.37625 141.776 26.1972L26.2005 141.773C3.33354 164.676 -5.40845 198.129 3.33154 229.291C5.89055 238.363 15.3195 243.643 24.3915 241.084C33.4635 238.525 38.7435 229.096 36.1845 220.024C30.7965 200.753 36.2025 180.074 50.3325 165.906L165.908 50.3472C187.516 28.7342 222.554 28.7302 244.167 50.3392C265.78 71.9472 265.784 106.985 244.176 128.598L128.601 244.173C121.027 251.757 111.408 256.97 100.919 259.175C91.6905 261.096 85.7675 270.134 87.6885 279.362C89.3405 287.297 96.3455 292.975 104.451 292.95C105.644 292.951 106.834 292.825 108.001 292.575C124.951 289 140.494 280.568 152.732 268.306L268.308 152.748C303.259 117.822 303.279 61.1772 268.354 26.2262L268.354 26.2262Z" id="Shape" fill="none" fill-rule="evenodd" stroke="none" />
            </g>
          </g>
          <g id="Group" transform="matrix(0.866678 -0.49887 0.5 0.866025 0 324.7854)">
            <g id="Group" transform="translate(-7.629395E-06 0)">
              <path d="M290.703 63.6898C288.144 54.6178 278.715 49.3378 269.643 51.8969C260.571 54.4559 255.291 63.8849 257.85 72.9568C263.238 92.2278 257.832 112.907 243.702 127.075L128.126 242.651C106.518 264.264 71.4798 264.268 49.8668 242.659C28.2538 221.051 28.2498 186.013 49.8578 164.4L165.434 48.8068C172.996 41.2248 182.604 36.0118 193.082 33.8048C202.325 31.9558 208.319 22.9648 206.47 13.7228C204.621 4.48083 195.63 -1.51416 186.388 0.334839C186.275 0.357834 186.163 0.380844 186.051 0.405838C169.097 3.98483 153.549 12.4168 141.302 24.6748L25.7258 140.251C-8.95023 175.462 -8.51624 232.116 26.6948 266.792C61.5218 301.089 117.426 301.093 152.258 266.8L267.833 151.207C290.701 128.304 299.443 94.8508 290.703 63.6898L290.703 63.6898Z" transform="translate(1.907349E-05 6.103516E-05)" id="Shape" fill="none" fill-rule="evenodd" stroke="none" />
            </g>
          </g>
        </g>
        <path d="M3.23428 6.17842L2.53452 6.17842L2.53452 3.36229L0 3.36229L0 2.72226L2.53452 2.72226L2.53452 0L3.23428 0L3.23428 2.72226L5.82 2.72226L5.82 3.36229L3.23428 3.36229L3.23428 6.17842L3.23428 6.17842Z" transform="translate(2.106018 22.31979)" id="Shape" fill="#333333" stroke="none" />
        <path d="M3.23428 6.17842L2.53452 6.17842L2.53452 3.36229L0 3.36229L0 2.72226L2.53452 2.72226L2.53452 0L3.23428 0L3.23428 2.72226L5.82 2.72226L5.82 3.36229L3.23428 3.36229L3.23428 6.17842L3.23428 6.17842Z" transform="translate(2.109985 4.320007)" id="Shape-Copy" fill="#000000" stroke="none" />
      </g>
    </g>
  </g>
</svg>