<svg width="32" height="12" viewBox="0 0 32 12" fill="none" xmlns="http://www.w3.org/2000/svg">
<path d="M0.5 3.5C0.5 1.84315 1.84315 0.5 3.5 0.5H28.5C30.1569 0.5 31.5 1.84315 31.5 3.5V8.5C31.5 10.1569 30.1569 11.5 28.5 11.5H3.5C1.84315 11.5 0.5 10.1569 0.5 8.5V3.5Z" fill="#E3E3E3"/>
<path d="M3.5 1H28.5V0H3.5V1ZM31 3.5V8.5H32V3.5H31ZM28.5 11H3.5V12H28.5V11ZM1 8.5V3.5H0V8.5H1ZM3.5 11C2.11929 11 1 9.88071 1 8.5H0C0 10.433 1.567 12 3.5 12V11ZM31 8.5C31 9.88071 29.8807 11 28.5 11V12C30.433 12 32 10.433 32 8.5H31ZM28.5 1C29.8807 1 31 2.11929 31 3.5H32C32 1.567 30.433 0 28.5 0V1ZM3.5 0C1.567 0 0 1.567 0 3.5H1C1 2.11929 2.11929 1 3.5 1V0Z" fill="#979797"/>
</svg>
