<svg width="51" height="117" viewBox="0 0 51 117" fill="none" xmlns="http://www.w3.org/2000/svg">
<path d="M0.5 3.5C0.5 1.84315 1.84315 0.5 3.5 0.5H47.5C49.1569 0.5 50.5 1.84315 50.5 3.5V35.5C50.5 37.1569 49.1569 38.5 47.5 38.5H3.5C1.84315 38.5 0.5 37.1569 0.5 35.5V3.5Z" fill="#E3E3E3"/>
<rect width="47" height="10" transform="translate(2 2)" fill="#FF9300"/>
<path d="M13.4037 5.072V6.784H15.5717V7.644H13.4037V10H12.3237V4.216H15.9717V5.072H13.4037ZM17.3106 6.608C17.4386 6.36267 17.5906 6.17067 17.7666 6.032C17.9426 5.89067 18.1506 5.82 18.3906 5.82C18.58 5.82 18.732 5.86133 18.8466 5.944L18.7826 6.684C18.7693 6.732 18.7493 6.76667 18.7226 6.788C18.6986 6.80667 18.6653 6.816 18.6226 6.816C18.5826 6.816 18.5226 6.80933 18.4426 6.796C18.3653 6.78267 18.2893 6.776 18.2146 6.776C18.1053 6.776 18.008 6.792 17.9226 6.824C17.8373 6.856 17.76 6.90267 17.6906 6.964C17.624 7.02267 17.564 7.09467 17.5106 7.18C17.46 7.26533 17.412 7.36267 17.3666 7.472V10H16.3786V5.896H16.9586C17.06 5.896 17.1306 5.91467 17.1706 5.952C17.2106 5.98667 17.2373 6.05067 17.2506 6.144L17.3106 6.608ZM21.8898 7.476C21.8898 7.348 21.8711 7.228 21.8338 7.116C21.7991 7.00133 21.7458 6.90133 21.6738 6.816C21.6018 6.73067 21.5098 6.664 21.3978 6.616C21.2885 6.56533 21.1605 6.54 21.0138 6.54C20.7285 6.54 20.5031 6.62133 20.3378 6.784C20.1751 6.94667 20.0711 7.17733 20.0258 7.476H21.8898ZM20.0058 8.072C20.0218 8.28267 20.0591 8.46533 20.1178 8.62C20.1765 8.772 20.2538 8.89867 20.3498 9C20.4458 9.09867 20.5591 9.17333 20.6898 9.224C20.8231 9.272 20.9698 9.296 21.1298 9.296C21.2898 9.296 21.4271 9.27733 21.5418 9.24C21.6591 9.20267 21.7605 9.16133 21.8458 9.116C21.9338 9.07067 22.0098 9.02933 22.0738 8.992C22.1405 8.95467 22.2045 8.936 22.2658 8.936C22.3485 8.936 22.4098 8.96667 22.4498 9.028L22.7338 9.388C22.6245 9.516 22.5018 9.624 22.3658 9.712C22.2298 9.79733 22.0871 9.86667 21.9378 9.92C21.7911 9.97067 21.6405 10.0067 21.4858 10.028C21.3338 10.0493 21.1858 10.06 21.0418 10.06C20.7565 10.06 20.4911 10.0133 20.2458 9.92C20.0005 9.824 19.7871 9.684 19.6058 9.5C19.4245 9.31333 19.2818 9.084 19.1778 8.812C19.0738 8.53733 19.0218 8.22 19.0218 7.86C19.0218 7.58 19.0671 7.31733 19.1578 7.072C19.2485 6.824 19.3778 6.60933 19.5458 6.428C19.7165 6.244 19.9231 6.09867 20.1658 5.992C20.4111 5.88533 20.6871 5.832 20.9938 5.832C21.2525 5.832 21.4911 5.87333 21.7098 5.956C21.9285 6.03867 22.1165 6.16 22.2738 6.32C22.4311 6.47733 22.5538 6.672 22.6418 6.904C22.7325 7.13333 22.7778 7.396 22.7778 7.692C22.7778 7.84133 22.7618 7.94267 22.7298 7.996C22.6978 8.04667 22.6365 8.072 22.5458 8.072H20.0058ZM26.1633 7.476C26.1633 7.348 26.1446 7.228 26.1073 7.116C26.0726 7.00133 26.0193 6.90133 25.9473 6.816C25.8753 6.73067 25.7833 6.664 25.6713 6.616C25.5619 6.56533 25.4339 6.54 25.2873 6.54C25.0019 6.54 24.7766 6.62133 24.6113 6.784C24.4486 6.94667 24.3446 7.17733 24.2993 7.476H26.1633ZM24.2793 8.072C24.2953 8.28267 24.3326 8.46533 24.3913 8.62C24.4499 8.772 24.5273 8.89867 24.6233 9C24.7193 9.09867 24.8326 9.17333 24.9633 9.224C25.0966 9.272 25.2433 9.296 25.4033 9.296C25.5633 9.296 25.7006 9.27733 25.8153 9.24C25.9326 9.20267 26.0339 9.16133 26.1193 9.116C26.2073 9.07067 26.2833 9.02933 26.3473 8.992C26.4139 8.95467 26.4779 8.936 26.5393 8.936C26.6219 8.936 26.6833 8.96667 26.7233 9.028L27.0073 9.388C26.8979 9.516 26.7753 9.624 26.6393 9.712C26.5033 9.79733 26.3606 9.86667 26.2113 9.92C26.0646 9.97067 25.9139 10.0067 25.7593 10.028C25.6073 10.0493 25.4593 10.06 25.3153 10.06C25.0299 10.06 24.7646 10.0133 24.5193 9.92C24.2739 9.824 24.0606 9.684 23.8793 9.5C23.6979 9.31333 23.5553 9.084 23.4513 8.812C23.3473 8.53733 23.2952 8.22 23.2952 7.86C23.2952 7.58 23.3406 7.31733 23.4313 7.072C23.5219 6.824 23.6513 6.60933 23.8193 6.428C23.9899 6.244 24.1966 6.09867 24.4393 5.992C24.6846 5.88533 24.9606 5.832 25.2673 5.832C25.5259 5.832 25.7646 5.87333 25.9833 5.956C26.2019 6.03867 26.3899 6.16 26.5473 6.32C26.7046 6.47733 26.8273 6.672 26.9153 6.904C27.0059 7.13333 27.0512 7.396 27.0512 7.692C27.0512 7.84133 27.0353 7.94267 27.0033 7.996C26.9713 8.04667 26.9099 8.072 26.8193 8.072H24.2793ZM28.7247 6.608C28.8527 6.36267 29.0047 6.17067 29.1807 6.032C29.3567 5.89067 29.5647 5.82 29.8047 5.82C29.994 5.82 30.146 5.86133 30.2607 5.944L30.1967 6.684C30.1834 6.732 30.1634 6.76667 30.1367 6.788C30.1127 6.80667 30.0794 6.816 30.0367 6.816C29.9967 6.816 29.9367 6.80933 29.8567 6.796C29.7794 6.78267 29.7034 6.776 29.6287 6.776C29.5194 6.776 29.422 6.792 29.3367 6.824C29.2514 6.856 29.174 6.90267 29.1047 6.964C29.038 7.02267 28.978 7.09467 28.9247 7.18C28.874 7.26533 28.826 7.36267 28.7807 7.472V10H27.7927V5.896H28.3727C28.474 5.896 28.5447 5.91467 28.5847 5.952C28.6247 5.98667 28.6514 6.05067 28.6647 6.144L28.7247 6.608ZM34.3131 5.896V10H33.7091C33.5784 10 33.4957 9.94 33.4611 9.82L33.3931 9.492C33.2251 9.66267 33.0397 9.80133 32.8371 9.908C32.6344 10.012 32.3957 10.064 32.1211 10.064C31.8971 10.064 31.6984 10.0267 31.5251 9.952C31.3544 9.87467 31.2104 9.76667 31.0931 9.628C30.9757 9.48933 30.8864 9.32533 30.8251 9.136C30.7664 8.944 30.7371 8.73333 30.7371 8.504V5.896H31.7251V8.504C31.7251 8.75467 31.7824 8.94933 31.8971 9.088C32.0144 9.224 32.1891 9.292 32.4211 9.292C32.5917 9.292 32.7517 9.25467 32.9011 9.18C33.0504 9.10267 33.1917 8.99733 33.3251 8.864V5.896H34.3131ZM36.2167 6.4C36.2994 6.31733 36.386 6.24133 36.4767 6.172C36.57 6.1 36.6674 6.04 36.7687 5.992C36.8727 5.94133 36.9834 5.90267 37.1007 5.876C37.218 5.84667 37.346 5.832 37.4847 5.832C37.7087 5.832 37.9074 5.87067 38.0807 5.948C38.254 6.02267 38.398 6.12933 38.5127 6.268C38.63 6.404 38.718 6.568 38.7767 6.76C38.838 6.94933 38.8687 7.15867 38.8687 7.388V10H37.8807V7.388C37.8807 7.13733 37.8234 6.944 37.7087 6.808C37.594 6.66933 37.4194 6.6 37.1847 6.6C37.014 6.6 36.854 6.63867 36.7047 6.716C36.5554 6.79333 36.414 6.89867 36.2807 7.032V10H35.2927V5.896H35.8967C36.0247 5.896 36.1087 5.956 36.1487 6.076L36.2167 6.4Z" fill="black"/>
<g opacity="0.75">
<rect x="3" y="13.75" width="1" height="45" transform="rotate(-90 3 13.75)" fill="#979797"/>
</g>
<path d="M8.62625 19.14H8.87825C8.97958 19.14 9.06358 19.1267 9.13025 19.1C9.19692 19.0707 9.25425 19.0253 9.30225 18.964L10.8983 16.944C10.9649 16.8587 11.0343 16.8 11.1063 16.768C11.1809 16.7333 11.2743 16.716 11.3863 16.716H12.3143L10.3663 19.12C10.2516 19.2667 10.1329 19.3707 10.0103 19.432C10.0983 19.464 10.1769 19.5093 10.2463 19.568C10.3183 19.624 10.3863 19.6987 10.4503 19.792L12.4583 22.5H11.5103C11.3823 22.5 11.2863 22.4827 11.2222 22.448C11.1609 22.4107 11.1089 22.3573 11.0663 22.288L9.43025 20.152C9.37958 20.08 9.32092 20.0293 9.25425 20C9.18758 19.9707 9.09158 19.956 8.96625 19.956H8.62625V22.5H7.55025V16.716H8.62625V19.14ZM15.2258 19.976C15.2258 19.848 15.2071 19.728 15.1698 19.616C15.1351 19.5013 15.0818 19.4013 15.0098 19.316C14.9378 19.2307 14.8458 19.164 14.7338 19.116C14.6244 19.0653 14.4964 19.04 14.3498 19.04C14.0644 19.04 13.8391 19.1213 13.6738 19.284C13.5111 19.4467 13.4071 19.6773 13.3618 19.976H15.2258ZM13.3418 20.572C13.3578 20.7827 13.3951 20.9653 13.4538 21.12C13.5124 21.272 13.5898 21.3987 13.6858 21.5C13.7818 21.5987 13.8951 21.6733 14.0258 21.724C14.1591 21.772 14.3058 21.796 14.4658 21.796C14.6258 21.796 14.7631 21.7773 14.8778 21.74C14.9951 21.7027 15.0964 21.6613 15.1818 21.616C15.2698 21.5707 15.3458 21.5293 15.4098 21.492C15.4764 21.4547 15.5404 21.436 15.6018 21.436C15.6844 21.436 15.7458 21.4667 15.7858 21.528L16.0698 21.888C15.9604 22.016 15.8378 22.124 15.7018 22.212C15.5658 22.2973 15.4231 22.3667 15.2738 22.42C15.1271 22.4707 14.9764 22.5067 14.8218 22.528C14.6698 22.5493 14.5218 22.56 14.3778 22.56C14.0924 22.56 13.8271 22.5133 13.5818 22.42C13.3364 22.324 13.1231 22.184 12.9418 22C12.7604 21.8133 12.6178 21.584 12.5138 21.312C12.4098 21.0373 12.3577 20.72 12.3577 20.36C12.3577 20.08 12.4031 19.8173 12.4938 19.572C12.5844 19.324 12.7138 19.1093 12.8818 18.928C13.0524 18.744 13.2591 18.5987 13.5018 18.492C13.7471 18.3853 14.0231 18.332 14.3298 18.332C14.5884 18.332 14.8271 18.3733 15.0458 18.456C15.2644 18.5387 15.4524 18.66 15.6098 18.82C15.7671 18.9773 15.8898 19.172 15.9778 19.404C16.0684 19.6333 16.1137 19.896 16.1137 20.192C16.1137 20.3413 16.0978 20.4427 16.0658 20.496C16.0338 20.5467 15.9724 20.572 15.8818 20.572H13.3418ZM20.466 18.396L18.23 23.628C18.2007 23.6973 18.162 23.7493 18.114 23.784C18.0687 23.8213 17.998 23.84 17.902 23.84H17.166L17.934 22.192L16.274 18.396H17.142C17.2193 18.396 17.2793 18.4147 17.322 18.452C17.3673 18.4893 17.4007 18.532 17.422 18.58L18.294 20.708C18.3233 20.78 18.3473 20.852 18.366 20.924C18.3873 20.996 18.4073 21.0693 18.426 21.144C18.45 21.0693 18.474 20.996 18.498 20.924C18.522 20.8493 18.5487 20.776 18.578 20.704L19.402 18.58C19.4233 18.5267 19.458 18.4827 19.506 18.448C19.5567 18.4133 19.6127 18.396 19.674 18.396H20.466ZM22.3248 22.564C21.9674 22.564 21.6928 22.464 21.5008 22.264C21.3114 22.0613 21.2168 21.7827 21.2168 21.428V19.136H20.7968C20.7434 19.136 20.6981 19.1187 20.6608 19.084C20.6234 19.0493 20.6048 18.9973 20.6048 18.928V18.536L21.2648 18.428L21.4728 17.308C21.4861 17.2547 21.5114 17.2133 21.5488 17.184C21.5861 17.1547 21.6341 17.14 21.6928 17.14H22.2048V18.432H23.3008V19.136H22.2048V21.36C22.2048 21.488 22.2354 21.588 22.2968 21.66C22.3608 21.732 22.4474 21.768 22.5568 21.768C22.6181 21.768 22.6688 21.7613 22.7088 21.748C22.7514 21.732 22.7874 21.716 22.8168 21.7C22.8488 21.684 22.8768 21.6693 22.9008 21.656C22.9248 21.64 22.9488 21.632 22.9728 21.632C23.0021 21.632 23.0261 21.64 23.0448 21.656C23.0634 21.6693 23.0834 21.6907 23.1048 21.72L23.4008 22.2C23.2568 22.32 23.0914 22.4107 22.9048 22.472C22.7181 22.5333 22.5248 22.564 22.3248 22.564ZM24.8653 19.108C24.9933 18.8627 25.1453 18.6707 25.3213 18.532C25.4973 18.3907 25.7053 18.32 25.9453 18.32C26.1346 18.32 26.2866 18.3613 26.4013 18.444L26.3373 19.184C26.324 19.232 26.304 19.2667 26.2773 19.288C26.2533 19.3067 26.22 19.316 26.1773 19.316C26.1373 19.316 26.0773 19.3093 25.9973 19.296C25.92 19.2827 25.844 19.276 25.7693 19.276C25.66 19.276 25.5626 19.292 25.4773 19.324C25.392 19.356 25.3146 19.4027 25.2453 19.464C25.1786 19.5227 25.1186 19.5947 25.0653 19.68C25.0146 19.7653 24.9666 19.8627 24.9213 19.972V22.5H23.9333V18.396H24.5133C24.6146 18.396 24.6853 18.4147 24.7253 18.452C24.7653 18.4867 24.792 18.5507 24.8053 18.644L24.8653 19.108ZM27.9417 18.396V22.5H26.9497V18.396H27.9417ZM28.0777 17.2C28.0777 17.2853 28.0604 17.3653 28.0257 17.44C27.991 17.5147 27.9444 17.58 27.8857 17.636C27.8297 17.692 27.763 17.7373 27.6857 17.772C27.6084 17.804 27.5257 17.82 27.4377 17.82C27.3524 17.82 27.271 17.804 27.1937 17.772C27.119 17.7373 27.0537 17.692 26.9977 17.636C26.9417 17.58 26.8964 17.5147 26.8617 17.44C26.8297 17.3653 26.8137 17.2853 26.8137 17.2C26.8137 17.112 26.8297 17.0293 26.8617 16.952C26.8964 16.8747 26.9417 16.808 26.9977 16.752C27.0537 16.696 27.119 16.652 27.1937 16.62C27.271 16.5853 27.3524 16.568 27.4377 16.568C27.5257 16.568 27.6084 16.5853 27.6857 16.62C27.763 16.652 27.8297 16.696 27.8857 16.752C27.9444 16.808 27.991 16.8747 28.0257 16.952C28.0604 17.0293 28.0777 17.112 28.0777 17.2ZM30.4489 20.348C30.5716 20.348 30.6783 20.332 30.7689 20.3C30.8596 20.2653 30.9343 20.2187 30.9929 20.16C31.0543 20.1013 31.0996 20.0307 31.1289 19.948C31.1609 19.8653 31.1769 19.7747 31.1769 19.676C31.1769 19.4733 31.1156 19.3133 30.9929 19.196C30.8729 19.076 30.6916 19.016 30.4489 19.016C30.2063 19.016 30.0236 19.076 29.9009 19.196C29.7809 19.3133 29.7209 19.4733 29.7209 19.676C29.7209 19.772 29.7356 19.8613 29.7649 19.944C29.7969 20.0267 29.8423 20.0987 29.9009 20.16C29.9623 20.2187 30.0383 20.2653 30.1289 20.3C30.2223 20.332 30.3289 20.348 30.4489 20.348ZM31.5649 22.684C31.5649 22.604 31.5409 22.5387 31.4929 22.488C31.4449 22.4373 31.3796 22.3987 31.2969 22.372C31.2143 22.3427 31.1169 22.3213 31.0049 22.308C30.8956 22.2947 30.7783 22.2853 30.6529 22.28C30.5303 22.272 30.4023 22.2653 30.2689 22.26C30.1383 22.2547 30.0103 22.244 29.8849 22.228C29.7756 22.2893 29.6863 22.3613 29.6169 22.444C29.5503 22.5267 29.5169 22.6227 29.5169 22.732C29.5169 22.804 29.5343 22.8707 29.5689 22.932C29.6063 22.996 29.6636 23.0507 29.7409 23.096C29.8209 23.1413 29.9236 23.176 30.0489 23.2C30.1743 23.2267 30.3276 23.24 30.5089 23.24C30.6929 23.24 30.8516 23.2253 30.9849 23.196C31.1183 23.1693 31.2276 23.1307 31.3129 23.08C31.4009 23.032 31.4649 22.9733 31.5049 22.904C31.5449 22.8373 31.5649 22.764 31.5649 22.684ZM32.5489 18.536V18.904C32.5489 19.0213 32.4783 19.0933 32.3369 19.12L31.9689 19.188C32.0249 19.3293 32.0529 19.484 32.0529 19.652C32.0529 19.8547 32.0116 20.0387 31.9289 20.204C31.8489 20.3667 31.7369 20.5053 31.5929 20.62C31.4489 20.7347 31.2783 20.824 31.0809 20.888C30.8863 20.9493 30.6756 20.98 30.4489 20.98C30.3689 20.98 30.2916 20.976 30.2169 20.968C30.1423 20.96 30.0689 20.9493 29.9969 20.936C29.8689 21.0133 29.8049 21.1 29.8049 21.196C29.8049 21.2787 29.8423 21.34 29.9169 21.38C29.9943 21.4173 30.0956 21.444 30.2209 21.46C30.3463 21.476 30.4889 21.4867 30.6489 21.492C30.8089 21.4947 30.9729 21.5027 31.1409 21.516C31.3089 21.5293 31.4729 21.5533 31.6329 21.588C31.7929 21.62 31.9356 21.672 32.0609 21.744C32.1863 21.816 32.2863 21.9147 32.3609 22.04C32.4383 22.1627 32.4769 22.3213 32.4769 22.516C32.4769 22.6973 32.4316 22.8733 32.3409 23.044C32.2529 23.2147 32.1236 23.3667 31.9529 23.5C31.7849 23.6333 31.5769 23.74 31.3289 23.82C31.0836 23.9027 30.8036 23.944 30.4889 23.944C30.1796 23.944 29.9103 23.9133 29.6809 23.852C29.4516 23.7933 29.2609 23.7133 29.1089 23.612C28.9569 23.5133 28.8436 23.3987 28.7689 23.268C28.6943 23.1373 28.6569 23.0013 28.6569 22.86C28.6569 22.668 28.7143 22.508 28.8289 22.38C28.9463 22.2493 29.1063 22.1453 29.3089 22.068C29.1996 22.012 29.1129 21.9373 29.0489 21.844C28.9849 21.7507 28.9529 21.628 28.9529 21.476C28.9529 21.4147 28.9636 21.352 28.9849 21.288C29.0089 21.2213 29.0423 21.156 29.0849 21.092C29.1303 21.028 29.1863 20.968 29.2529 20.912C29.3196 20.8533 29.3983 20.8013 29.4889 20.756C29.2809 20.644 29.1169 20.4947 28.9969 20.308C28.8796 20.1213 28.8209 19.9027 28.8209 19.652C28.8209 19.4493 28.8609 19.2667 28.9409 19.104C29.0236 18.9387 29.1369 18.7987 29.2809 18.684C29.4276 18.5667 29.5996 18.4773 29.7969 18.416C29.9969 18.3547 30.2143 18.324 30.4489 18.324C30.6249 18.324 30.7903 18.3427 30.9449 18.38C31.0996 18.4147 31.2409 18.4667 31.3689 18.536H32.5489ZM34.6677 20.348C34.7904 20.348 34.897 20.332 34.9877 20.3C35.0784 20.2653 35.153 20.2187 35.2117 20.16C35.273 20.1013 35.3184 20.0307 35.3477 19.948C35.3797 19.8653 35.3957 19.7747 35.3957 19.676C35.3957 19.4733 35.3344 19.3133 35.2117 19.196C35.0917 19.076 34.9104 19.016 34.6677 19.016C34.425 19.016 34.2424 19.076 34.1197 19.196C33.9997 19.3133 33.9397 19.4733 33.9397 19.676C33.9397 19.772 33.9544 19.8613 33.9837 19.944C34.0157 20.0267 34.061 20.0987 34.1197 20.16C34.181 20.2187 34.257 20.2653 34.3477 20.3C34.441 20.332 34.5477 20.348 34.6677 20.348ZM35.7837 22.684C35.7837 22.604 35.7597 22.5387 35.7117 22.488C35.6637 22.4373 35.5984 22.3987 35.5157 22.372C35.433 22.3427 35.3357 22.3213 35.2237 22.308C35.1144 22.2947 34.997 22.2853 34.8717 22.28C34.749 22.272 34.621 22.2653 34.4877 22.26C34.357 22.2547 34.229 22.244 34.1037 22.228C33.9944 22.2893 33.905 22.3613 33.8357 22.444C33.769 22.5267 33.7357 22.6227 33.7357 22.732C33.7357 22.804 33.753 22.8707 33.7877 22.932C33.825 22.996 33.8824 23.0507 33.9597 23.096C34.0397 23.1413 34.1424 23.176 34.2677 23.2C34.393 23.2267 34.5464 23.24 34.7277 23.24C34.9117 23.24 35.0704 23.2253 35.2037 23.196C35.337 23.1693 35.4464 23.1307 35.5317 23.08C35.6197 23.032 35.6837 22.9733 35.7237 22.904C35.7637 22.8373 35.7837 22.764 35.7837 22.684ZM36.7677 18.536V18.904C36.7677 19.0213 36.697 19.0933 36.5557 19.12L36.1877 19.188C36.2437 19.3293 36.2717 19.484 36.2717 19.652C36.2717 19.8547 36.2304 20.0387 36.1477 20.204C36.0677 20.3667 35.9557 20.5053 35.8117 20.62C35.6677 20.7347 35.497 20.824 35.2997 20.888C35.105 20.9493 34.8944 20.98 34.6677 20.98C34.5877 20.98 34.5104 20.976 34.4357 20.968C34.361 20.96 34.2877 20.9493 34.2157 20.936C34.0877 21.0133 34.0237 21.1 34.0237 21.196C34.0237 21.2787 34.061 21.34 34.1357 21.38C34.213 21.4173 34.3144 21.444 34.4397 21.46C34.565 21.476 34.7077 21.4867 34.8677 21.492C35.0277 21.4947 35.1917 21.5027 35.3597 21.516C35.5277 21.5293 35.6917 21.5533 35.8517 21.588C36.0117 21.62 36.1544 21.672 36.2797 21.744C36.405 21.816 36.505 21.9147 36.5797 22.04C36.657 22.1627 36.6957 22.3213 36.6957 22.516C36.6957 22.6973 36.6504 22.8733 36.5597 23.044C36.4717 23.2147 36.3424 23.3667 36.1717 23.5C36.0037 23.6333 35.7957 23.74 35.5477 23.82C35.3024 23.9027 35.0224 23.944 34.7077 23.944C34.3984 23.944 34.129 23.9133 33.8997 23.852C33.6704 23.7933 33.4797 23.7133 33.3277 23.612C33.1757 23.5133 33.0624 23.3987 32.9877 23.268C32.913 23.1373 32.8757 23.0013 32.8757 22.86C32.8757 22.668 32.933 22.508 33.0477 22.38C33.165 22.2493 33.325 22.1453 33.5277 22.068C33.4184 22.012 33.3317 21.9373 33.2677 21.844C33.2037 21.7507 33.1717 21.628 33.1717 21.476C33.1717 21.4147 33.1824 21.352 33.2037 21.288C33.2277 21.2213 33.261 21.156 33.3037 21.092C33.349 21.028 33.405 20.968 33.4717 20.912C33.5384 20.8533 33.617 20.8013 33.7077 20.756C33.4997 20.644 33.3357 20.4947 33.2157 20.308C33.0984 20.1213 33.0397 19.9027 33.0397 19.652C33.0397 19.4493 33.0797 19.2667 33.1597 19.104C33.2424 18.9387 33.3557 18.7987 33.4997 18.684C33.6464 18.5667 33.8184 18.4773 34.0157 18.416C34.2157 18.3547 34.433 18.324 34.6677 18.324C34.8437 18.324 35.009 18.3427 35.1637 18.38C35.3184 18.4147 35.4597 18.4667 35.5877 18.536H36.7677ZM39.9679 19.976C39.9679 19.848 39.9493 19.728 39.9119 19.616C39.8773 19.5013 39.8239 19.4013 39.7519 19.316C39.6799 19.2307 39.5879 19.164 39.4759 19.116C39.3666 19.0653 39.2386 19.04 39.0919 19.04C38.8066 19.04 38.5813 19.1213 38.4159 19.284C38.2533 19.4467 38.1493 19.6773 38.1039 19.976H39.9679ZM38.0839 20.572C38.0999 20.7827 38.1373 20.9653 38.1959 21.12C38.2546 21.272 38.3319 21.3987 38.4279 21.5C38.5239 21.5987 38.6373 21.6733 38.7679 21.724C38.9013 21.772 39.0479 21.796 39.2079 21.796C39.3679 21.796 39.5053 21.7773 39.6199 21.74C39.7373 21.7027 39.8386 21.6613 39.9239 21.616C40.0119 21.5707 40.0879 21.5293 40.1519 21.492C40.2186 21.4547 40.2826 21.436 40.3439 21.436C40.4266 21.436 40.4879 21.4667 40.5279 21.528L40.8119 21.888C40.7026 22.016 40.5799 22.124 40.4439 22.212C40.3079 22.2973 40.1653 22.3667 40.0159 22.42C39.8693 22.4707 39.7186 22.5067 39.5639 22.528C39.4119 22.5493 39.2639 22.56 39.1199 22.56C38.8346 22.56 38.5693 22.5133 38.3239 22.42C38.0786 22.324 37.8653 22.184 37.6839 22C37.5026 21.8133 37.3599 21.584 37.2559 21.312C37.1519 21.0373 37.0999 20.72 37.0999 20.36C37.0999 20.08 37.1453 19.8173 37.2359 19.572C37.3266 19.324 37.4559 19.1093 37.6239 18.928C37.7946 18.744 38.0013 18.5987 38.2439 18.492C38.4893 18.3853 38.7653 18.332 39.0719 18.332C39.3306 18.332 39.5693 18.3733 39.7879 18.456C40.0066 18.5387 40.1946 18.66 40.3519 18.82C40.5093 18.9773 40.6319 19.172 40.7199 19.404C40.8106 19.6333 40.8559 19.896 40.8559 20.192C40.8559 20.3413 40.8399 20.4427 40.8079 20.496C40.7759 20.5467 40.7146 20.572 40.6239 20.572H38.0839ZM42.5294 19.108C42.6574 18.8627 42.8094 18.6707 42.9854 18.532C43.1614 18.3907 43.3694 18.32 43.6094 18.32C43.7987 18.32 43.9507 18.3613 44.0654 18.444L44.0014 19.184C43.988 19.232 43.968 19.2667 43.9414 19.288C43.9174 19.3067 43.884 19.316 43.8414 19.316C43.8014 19.316 43.7414 19.3093 43.6614 19.296C43.584 19.2827 43.508 19.276 43.4334 19.276C43.324 19.276 43.2267 19.292 43.1414 19.324C43.056 19.356 42.9787 19.4027 42.9094 19.464C42.8427 19.5227 42.7827 19.5947 42.7294 19.68C42.6787 19.7653 42.6307 19.8627 42.5854 19.972V22.5H41.5974V18.396H42.1774C42.2787 18.396 42.3494 18.4147 42.3894 18.452C42.4294 18.4867 42.456 18.5507 42.4694 18.644L42.5294 19.108Z" fill="black"/>
<g opacity="0.75">
<rect x="3" y="26.25" width="1" height="45" transform="rotate(-90 3 26.25)" fill="#979797"/>
</g>
<path d="M13.1459 31.968C13.3486 31.968 13.5246 31.9427 13.6739 31.892C13.8259 31.8413 13.9499 31.772 14.0459 31.684C14.1446 31.5933 14.2179 31.4867 14.2659 31.364C14.3139 31.2413 14.3379 31.1067 14.3379 30.96C14.3379 30.6667 14.2406 30.4413 14.0459 30.284C13.8539 30.1267 13.5592 30.048 13.1619 30.048H12.4739V31.968H13.1459ZM15.9139 35H14.9419C14.7579 35 14.6246 34.928 14.5419 34.784L13.3259 32.932C13.2806 32.8627 13.2299 32.8133 13.1739 32.784C13.1206 32.7547 13.0406 32.74 12.9339 32.74H12.4739V35H11.3979V29.216H13.1619C13.5539 29.216 13.8899 29.2573 14.1699 29.34C14.4526 29.42 14.6832 29.5333 14.8619 29.68C15.0432 29.8267 15.1766 30.0027 15.2619 30.208C15.3472 30.4107 15.3899 30.6347 15.3899 30.88C15.3899 31.0747 15.3606 31.2587 15.3019 31.432C15.2459 31.6053 15.1632 31.7627 15.0539 31.904C14.9472 32.0453 14.8139 32.1693 14.6539 32.276C14.4966 32.3827 14.3166 32.4667 14.1139 32.528C14.1832 32.568 14.2472 32.616 14.3059 32.672C14.3646 32.7253 14.4179 32.7893 14.4659 32.864L15.9139 35ZM18.488 33.248C18.2027 33.2613 17.9627 33.2867 17.768 33.324C17.5734 33.3587 17.4174 33.404 17.3 33.46C17.1827 33.516 17.0987 33.5813 17.048 33.656C16.9974 33.7307 16.972 33.812 16.972 33.9C16.972 34.0733 17.0227 34.1973 17.124 34.272C17.228 34.3467 17.3627 34.384 17.528 34.384C17.7307 34.384 17.9054 34.348 18.052 34.276C18.2014 34.2013 18.3467 34.0893 18.488 33.94V33.248ZM16.224 31.468C16.696 31.036 17.264 30.82 17.928 30.82C18.168 30.82 18.3827 30.86 18.572 30.94C18.7614 31.0173 18.9214 31.1267 19.052 31.268C19.1827 31.4067 19.2814 31.5733 19.348 31.768C19.4174 31.9627 19.452 32.176 19.452 32.408V35H19.004C18.9107 35 18.8387 34.9867 18.788 34.96C18.7374 34.9307 18.6974 34.8733 18.668 34.788L18.58 34.492C18.476 34.5853 18.3747 34.668 18.276 34.74C18.1774 34.8093 18.0747 34.868 17.968 34.916C17.8614 34.964 17.7467 35 17.624 35.024C17.504 35.0507 17.3707 35.064 17.224 35.064C17.0507 35.064 16.8907 35.0413 16.744 34.996C16.5974 34.948 16.4707 34.8773 16.364 34.784C16.2574 34.6907 16.1747 34.5747 16.116 34.436C16.0574 34.2973 16.028 34.136 16.028 33.952C16.028 33.848 16.0454 33.7453 16.08 33.644C16.1147 33.54 16.1707 33.4413 16.248 33.348C16.328 33.2547 16.4307 33.1667 16.556 33.084C16.6814 33.0013 16.8347 32.9293 17.016 32.868C17.2 32.8067 17.4134 32.7573 17.656 32.72C17.8987 32.68 18.176 32.656 18.488 32.648V32.408C18.488 32.1333 18.4294 31.9307 18.312 31.8C18.1947 31.6667 18.0254 31.6 17.804 31.6C17.644 31.6 17.5107 31.6187 17.404 31.656C17.3 31.6933 17.208 31.736 17.128 31.784C17.048 31.8293 16.9747 31.8707 16.908 31.908C16.844 31.9453 16.772 31.964 16.692 31.964C16.6227 31.964 16.564 31.9467 16.516 31.912C16.468 31.8747 16.4294 31.832 16.4 31.784L16.224 31.468ZM21.3065 31.4C21.3892 31.3173 21.4759 31.2413 21.5665 31.172C21.6599 31.1 21.7572 31.04 21.8585 30.992C21.9625 30.9413 22.0732 30.9027 22.1905 30.876C22.3079 30.8467 22.4359 30.832 22.5745 30.832C22.7985 30.832 22.9972 30.8707 23.1705 30.948C23.3439 31.0227 23.4879 31.1293 23.6025 31.268C23.7199 31.404 23.8079 31.568 23.8665 31.76C23.9279 31.9493 23.9585 32.1587 23.9585 32.388V35H22.9705V32.388C22.9705 32.1373 22.9132 31.944 22.7985 31.808C22.6839 31.6693 22.5092 31.6 22.2745 31.6C22.1039 31.6 21.9439 31.6387 21.7945 31.716C21.6452 31.7933 21.5039 31.8987 21.3705 32.032V35H20.3825V30.896H20.9865C21.1145 30.896 21.1985 30.956 21.2385 31.076L21.3065 31.4ZM27.4742 31.944C27.3622 31.808 27.2395 31.712 27.1062 31.656C26.9755 31.6 26.8342 31.572 26.6822 31.572C26.5328 31.572 26.3982 31.6 26.2782 31.656C26.1582 31.712 26.0555 31.7973 25.9702 31.912C25.8848 32.024 25.8195 32.168 25.7742 32.344C25.7288 32.5173 25.7062 32.7227 25.7062 32.96C25.7062 33.2 25.7248 33.404 25.7622 33.572C25.8022 33.7373 25.8582 33.8733 25.9302 33.98C26.0022 34.084 26.0902 34.16 26.1942 34.208C26.2982 34.2533 26.4142 34.276 26.5422 34.276C26.7475 34.276 26.9222 34.2333 27.0662 34.148C27.2102 34.0627 27.3462 33.9413 27.4742 33.784V31.944ZM28.4622 29.056V35H27.8582C27.7275 35 27.6448 34.94 27.6102 34.82L27.5262 34.424C27.3608 34.6133 27.1702 34.7667 26.9542 34.884C26.7408 35.0013 26.4915 35.06 26.2062 35.06C25.9822 35.06 25.7768 35.0133 25.5902 34.92C25.4035 34.8267 25.2422 34.692 25.1062 34.516C24.9728 34.3373 24.8688 34.1173 24.7942 33.856C24.7222 33.5947 24.6862 33.296 24.6862 32.96C24.6862 32.656 24.7275 32.3733 24.8102 32.112C24.8928 31.8507 25.0115 31.624 25.1662 31.432C25.3208 31.24 25.5062 31.0907 25.7222 30.984C25.9382 30.8747 26.1808 30.82 26.4502 30.82C26.6795 30.82 26.8755 30.856 27.0382 30.928C27.2008 31 27.3462 31.0973 27.4742 31.22V29.056H28.4622ZM31.2532 30.832C31.5572 30.832 31.8332 30.8813 32.0812 30.98C32.3319 31.0787 32.5452 31.2187 32.7212 31.4C32.8999 31.5813 33.0372 31.8027 33.1332 32.064C33.2292 32.3253 33.2772 32.6173 33.2772 32.94C33.2772 33.2653 33.2292 33.5587 33.1332 33.82C33.0372 34.0813 32.8999 34.304 32.7212 34.488C32.5452 34.672 32.3319 34.8133 32.0812 34.912C31.8332 35.0107 31.5572 35.06 31.2532 35.06C30.9466 35.06 30.6679 35.0107 30.4172 34.912C30.1666 34.8133 29.9519 34.672 29.7732 34.488C29.5972 34.304 29.4599 34.0813 29.3612 33.82C29.2652 33.5587 29.2172 33.2653 29.2172 32.94C29.2172 32.6173 29.2652 32.3253 29.3612 32.064C29.4599 31.8027 29.5972 31.5813 29.7732 31.4C29.9519 31.2187 30.1666 31.0787 30.4172 30.98C30.6679 30.8813 30.9466 30.832 31.2532 30.832ZM31.2532 34.3C31.5946 34.3 31.8466 34.1853 32.0092 33.956C32.1746 33.7267 32.2572 33.3907 32.2572 32.948C32.2572 32.5053 32.1746 32.168 32.0092 31.936C31.8466 31.704 31.5946 31.588 31.2532 31.588C30.9066 31.588 30.6492 31.7053 30.4812 31.94C30.3159 32.172 30.2332 32.508 30.2332 32.948C30.2332 33.388 30.3159 33.724 30.4812 33.956C30.6492 34.1853 30.9066 34.3 31.2532 34.3ZM34.031 35V30.896H34.635C34.763 30.896 34.847 30.956 34.887 31.076L34.951 31.38C35.023 31.3 35.0976 31.2267 35.175 31.16C35.255 31.0933 35.339 31.036 35.427 30.988C35.5176 30.94 35.6136 30.9027 35.715 30.876C35.819 30.8467 35.9323 30.832 36.055 30.832C36.3136 30.832 36.5256 30.9027 36.691 31.044C36.859 31.1827 36.9843 31.368 37.067 31.6C37.131 31.464 37.211 31.348 37.307 31.252C37.403 31.1533 37.5083 31.0733 37.623 31.012C37.7376 30.9507 37.859 30.9053 37.987 30.876C38.1176 30.8467 38.2483 30.832 38.379 30.832C38.6056 30.832 38.807 30.8667 38.983 30.936C39.159 31.0053 39.307 31.1067 39.427 31.24C39.547 31.3733 39.6376 31.536 39.699 31.728C39.763 31.92 39.795 32.14 39.795 32.388V35H38.807V32.388C38.807 32.1267 38.7496 31.9307 38.635 31.8C38.5203 31.6667 38.3523 31.6 38.131 31.6C38.0296 31.6 37.935 31.6173 37.847 31.652C37.7616 31.6867 37.6856 31.7373 37.619 31.804C37.555 31.868 37.5043 31.9493 37.467 32.048C37.4296 32.1467 37.411 32.26 37.411 32.388V35H36.419V32.388C36.419 32.1133 36.363 31.9133 36.251 31.788C36.1416 31.6627 35.9803 31.6 35.767 31.6C35.623 31.6 35.4883 31.636 35.363 31.708C35.2403 31.7773 35.1256 31.8733 35.019 31.996V35H34.031Z" fill="black"/>
<path d="M3.5 1H47.5V0H3.5V1ZM50 3.5V35.5H51V3.5H50ZM47.5 38H3.5V39H47.5V38ZM1 35.5V3.5H0V35.5H1ZM3.5 38C2.11929 38 1 36.8807 1 35.5H0C0 37.433 1.567 39 3.5 39V38ZM50 35.5C50 36.8807 48.8807 38 47.5 38V39C49.433 39 51 37.433 51 35.5H50ZM47.5 1C48.8807 1 50 2.11929 50 3.5H51C51 1.567 49.433 0 47.5 0V1ZM3.5 0C1.567 0 0 1.567 0 3.5H1C1 2.11929 2.11929 1 3.5 1V0Z" fill="#979797"/>
<path d="M0.5 42.5C0.5 40.8431 1.84315 39.5 3.5 39.5H47.5C49.1569 39.5 50.5 40.8431 50.5 42.5V74.5C50.5 76.1569 49.1569 77.5 47.5 77.5H3.5C1.84315 77.5 0.5 76.1569 0.5 74.5V42.5Z" fill="#E3E3E3"/>
<path d="M13.4037 44.072V45.784H15.5717V46.644H13.4037V49H12.3237V43.216H15.9717V44.072H13.4037ZM17.3106 45.608C17.4386 45.3627 17.5906 45.1707 17.7666 45.032C17.9426 44.8907 18.1506 44.82 18.3906 44.82C18.58 44.82 18.732 44.8613 18.8466 44.944L18.7826 45.684C18.7693 45.732 18.7493 45.7667 18.7226 45.788C18.6986 45.8067 18.6653 45.816 18.6226 45.816C18.5826 45.816 18.5226 45.8093 18.4426 45.796C18.3653 45.7827 18.2893 45.776 18.2146 45.776C18.1053 45.776 18.008 45.792 17.9226 45.824C17.8373 45.856 17.76 45.9027 17.6906 45.964C17.624 46.0227 17.564 46.0947 17.5106 46.18C17.46 46.2653 17.412 46.3627 17.3666 46.472V49H16.3786V44.896H16.9586C17.06 44.896 17.1306 44.9147 17.1706 44.952C17.2106 44.9867 17.2373 45.0507 17.2506 45.144L17.3106 45.608ZM21.8898 46.476C21.8898 46.348 21.8711 46.228 21.8338 46.116C21.7991 46.0013 21.7458 45.9013 21.6738 45.816C21.6018 45.7307 21.5098 45.664 21.3978 45.616C21.2885 45.5653 21.1605 45.54 21.0138 45.54C20.7285 45.54 20.5031 45.6213 20.3378 45.784C20.1751 45.9467 20.0711 46.1773 20.0258 46.476H21.8898ZM20.0058 47.072C20.0218 47.2827 20.0591 47.4653 20.1178 47.62C20.1765 47.772 20.2538 47.8987 20.3498 48C20.4458 48.0987 20.5591 48.1733 20.6898 48.224C20.8231 48.272 20.9698 48.296 21.1298 48.296C21.2898 48.296 21.4271 48.2773 21.5418 48.24C21.6591 48.2027 21.7605 48.1613 21.8458 48.116C21.9338 48.0707 22.0098 48.0293 22.0738 47.992C22.1405 47.9547 22.2045 47.936 22.2658 47.936C22.3485 47.936 22.4098 47.9667 22.4498 48.028L22.7338 48.388C22.6245 48.516 22.5018 48.624 22.3658 48.712C22.2298 48.7973 22.0871 48.8667 21.9378 48.92C21.7911 48.9707 21.6405 49.0067 21.4858 49.028C21.3338 49.0493 21.1858 49.06 21.0418 49.06C20.7565 49.06 20.4911 49.0133 20.2458 48.92C20.0005 48.824 19.7871 48.684 19.6058 48.5C19.4245 48.3133 19.2818 48.084 19.1778 47.812C19.0738 47.5373 19.0218 47.22 19.0218 46.86C19.0218 46.58 19.0671 46.3173 19.1578 46.072C19.2485 45.824 19.3778 45.6093 19.5458 45.428C19.7165 45.244 19.9231 45.0987 20.1658 44.992C20.4111 44.8853 20.6871 44.832 20.9938 44.832C21.2525 44.832 21.4911 44.8733 21.7098 44.956C21.9285 45.0387 22.1165 45.16 22.2738 45.32C22.4311 45.4773 22.5538 45.672 22.6418 45.904C22.7325 46.1333 22.7778 46.396 22.7778 46.692C22.7778 46.8413 22.7618 46.9427 22.7298 46.996C22.6978 47.0467 22.6365 47.072 22.5458 47.072H20.0058ZM26.1633 46.476C26.1633 46.348 26.1446 46.228 26.1073 46.116C26.0726 46.0013 26.0193 45.9013 25.9473 45.816C25.8753 45.7307 25.7833 45.664 25.6713 45.616C25.5619 45.5653 25.4339 45.54 25.2873 45.54C25.0019 45.54 24.7766 45.6213 24.6113 45.784C24.4486 45.9467 24.3446 46.1773 24.2993 46.476H26.1633ZM24.2793 47.072C24.2953 47.2827 24.3326 47.4653 24.3913 47.62C24.4499 47.772 24.5273 47.8987 24.6233 48C24.7193 48.0987 24.8326 48.1733 24.9633 48.224C25.0966 48.272 25.2433 48.296 25.4033 48.296C25.5633 48.296 25.7006 48.2773 25.8153 48.24C25.9326 48.2027 26.0339 48.1613 26.1193 48.116C26.2073 48.0707 26.2833 48.0293 26.3473 47.992C26.4139 47.9547 26.4779 47.936 26.5393 47.936C26.6219 47.936 26.6833 47.9667 26.7233 48.028L27.0073 48.388C26.8979 48.516 26.7753 48.624 26.6393 48.712C26.5033 48.7973 26.3606 48.8667 26.2113 48.92C26.0646 48.9707 25.9139 49.0067 25.7593 49.028C25.6073 49.0493 25.4593 49.06 25.3153 49.06C25.0299 49.06 24.7646 49.0133 24.5193 48.92C24.2739 48.824 24.0606 48.684 23.8793 48.5C23.6979 48.3133 23.5553 48.084 23.4513 47.812C23.3473 47.5373 23.2952 47.22 23.2952 46.86C23.2952 46.58 23.3406 46.3173 23.4313 46.072C23.5219 45.824 23.6513 45.6093 23.8193 45.428C23.9899 45.244 24.1966 45.0987 24.4393 44.992C24.6846 44.8853 24.9606 44.832 25.2673 44.832C25.5259 44.832 25.7646 44.8733 25.9833 44.956C26.2019 45.0387 26.3899 45.16 26.5473 45.32C26.7046 45.4773 26.8273 45.672 26.9153 45.904C27.0059 46.1333 27.0512 46.396 27.0512 46.692C27.0512 46.8413 27.0353 46.9427 27.0033 46.996C26.9713 47.0467 26.9099 47.072 26.8193 47.072H24.2793ZM28.7247 45.608C28.8527 45.3627 29.0047 45.1707 29.1807 45.032C29.3567 44.8907 29.5647 44.82 29.8047 44.82C29.994 44.82 30.146 44.8613 30.2607 44.944L30.1967 45.684C30.1834 45.732 30.1634 45.7667 30.1367 45.788C30.1127 45.8067 30.0794 45.816 30.0367 45.816C29.9967 45.816 29.9367 45.8093 29.8567 45.796C29.7794 45.7827 29.7034 45.776 29.6287 45.776C29.5194 45.776 29.422 45.792 29.3367 45.824C29.2514 45.856 29.174 45.9027 29.1047 45.964C29.038 46.0227 28.978 46.0947 28.9247 46.18C28.874 46.2653 28.826 46.3627 28.7807 46.472V49H27.7927V44.896H28.3727C28.474 44.896 28.5447 44.9147 28.5847 44.952C28.6247 44.9867 28.6514 45.0507 28.6647 45.144L28.7247 45.608ZM34.3131 44.896V49H33.7091C33.5784 49 33.4957 48.94 33.4611 48.82L33.3931 48.492C33.2251 48.6627 33.0397 48.8013 32.8371 48.908C32.6344 49.012 32.3957 49.064 32.1211 49.064C31.8971 49.064 31.6984 49.0267 31.5251 48.952C31.3544 48.8747 31.2104 48.7667 31.0931 48.628C30.9757 48.4893 30.8864 48.3253 30.8251 48.136C30.7664 47.944 30.7371 47.7333 30.7371 47.504V44.896H31.7251V47.504C31.7251 47.7547 31.7824 47.9493 31.8971 48.088C32.0144 48.224 32.1891 48.292 32.4211 48.292C32.5917 48.292 32.7517 48.2547 32.9011 48.18C33.0504 48.1027 33.1917 47.9973 33.3251 47.864V44.896H34.3131ZM36.2167 45.4C36.2994 45.3173 36.386 45.2413 36.4767 45.172C36.57 45.1 36.6674 45.04 36.7687 44.992C36.8727 44.9413 36.9834 44.9027 37.1007 44.876C37.218 44.8467 37.346 44.832 37.4847 44.832C37.7087 44.832 37.9074 44.8707 38.0807 44.948C38.254 45.0227 38.398 45.1293 38.5127 45.268C38.63 45.404 38.718 45.568 38.7767 45.76C38.838 45.9493 38.8687 46.1587 38.8687 46.388V49H37.8807V46.388C37.8807 46.1373 37.8234 45.944 37.7087 45.808C37.594 45.6693 37.4194 45.6 37.1847 45.6C37.014 45.6 36.854 45.6387 36.7047 45.716C36.5554 45.7933 36.414 45.8987 36.2807 46.032V49H35.2927V44.896H35.8967C36.0247 44.896 36.1087 44.956 36.1487 45.076L36.2167 45.4Z" fill="black"/>
<g opacity="0.75">
<rect x="3" y="52.75" width="1" height="45" transform="rotate(-90 3 52.75)" fill="#979797"/>
</g>
<path d="M2 55.5C2 54.3954 2.89543 53.5 4 53.5H47C48.1046 53.5 49 54.3954 49 55.5V61.5C49 62.6046 48.1046 63.5 47 63.5H4C2.89543 63.5 2 62.6046 2 61.5V55.5Z" fill="#FF9300"/>
<path d="M8.62625 58.14H8.87825C8.97958 58.14 9.06358 58.1267 9.13025 58.1C9.19692 58.0707 9.25425 58.0253 9.30225 57.964L10.8983 55.944C10.9649 55.8587 11.0343 55.8 11.1063 55.768C11.1809 55.7333 11.2743 55.716 11.3863 55.716H12.3143L10.3663 58.12C10.2516 58.2667 10.1329 58.3707 10.0103 58.432C10.0983 58.464 10.1769 58.5093 10.2463 58.568C10.3183 58.624 10.3863 58.6987 10.4503 58.792L12.4583 61.5H11.5103C11.3823 61.5 11.2863 61.4827 11.2222 61.448C11.1609 61.4107 11.1089 61.3573 11.0663 61.288L9.43025 59.152C9.37958 59.08 9.32092 59.0293 9.25425 59C9.18758 58.9707 9.09158 58.956 8.96625 58.956H8.62625V61.5H7.55025V55.716H8.62625V58.14ZM15.2258 58.976C15.2258 58.848 15.2071 58.728 15.1698 58.616C15.1351 58.5013 15.0818 58.4013 15.0098 58.316C14.9378 58.2307 14.8458 58.164 14.7338 58.116C14.6244 58.0653 14.4964 58.04 14.3498 58.04C14.0644 58.04 13.8391 58.1213 13.6738 58.284C13.5111 58.4467 13.4071 58.6773 13.3618 58.976H15.2258ZM13.3418 59.572C13.3578 59.7827 13.3951 59.9653 13.4538 60.12C13.5124 60.272 13.5898 60.3987 13.6858 60.5C13.7818 60.5987 13.8951 60.6733 14.0258 60.724C14.1591 60.772 14.3058 60.796 14.4658 60.796C14.6258 60.796 14.7631 60.7773 14.8778 60.74C14.9951 60.7027 15.0964 60.6613 15.1818 60.616C15.2698 60.5707 15.3458 60.5293 15.4098 60.492C15.4764 60.4547 15.5404 60.436 15.6018 60.436C15.6844 60.436 15.7458 60.4667 15.7858 60.528L16.0698 60.888C15.9604 61.016 15.8378 61.124 15.7018 61.212C15.5658 61.2973 15.4231 61.3667 15.2738 61.42C15.1271 61.4707 14.9764 61.5067 14.8218 61.528C14.6698 61.5493 14.5218 61.56 14.3778 61.56C14.0924 61.56 13.8271 61.5133 13.5818 61.42C13.3364 61.324 13.1231 61.184 12.9418 61C12.7604 60.8133 12.6178 60.584 12.5138 60.312C12.4098 60.0373 12.3577 59.72 12.3577 59.36C12.3577 59.08 12.4031 58.8173 12.4938 58.572C12.5844 58.324 12.7138 58.1093 12.8818 57.928C13.0524 57.744 13.2591 57.5987 13.5018 57.492C13.7471 57.3853 14.0231 57.332 14.3298 57.332C14.5884 57.332 14.8271 57.3733 15.0458 57.456C15.2644 57.5387 15.4524 57.66 15.6098 57.82C15.7671 57.9773 15.8898 58.172 15.9778 58.404C16.0684 58.6333 16.1137 58.896 16.1137 59.192C16.1137 59.3413 16.0978 59.4427 16.0658 59.496C16.0338 59.5467 15.9724 59.572 15.8818 59.572H13.3418ZM20.466 57.396L18.23 62.628C18.2007 62.6973 18.162 62.7493 18.114 62.784C18.0687 62.8213 17.998 62.84 17.902 62.84H17.166L17.934 61.192L16.274 57.396H17.142C17.2193 57.396 17.2793 57.4147 17.322 57.452C17.3673 57.4893 17.4007 57.532 17.422 57.58L18.294 59.708C18.3233 59.78 18.3473 59.852 18.366 59.924C18.3873 59.996 18.4073 60.0693 18.426 60.144C18.45 60.0693 18.474 59.996 18.498 59.924C18.522 59.8493 18.5487 59.776 18.578 59.704L19.402 57.58C19.4233 57.5267 19.458 57.4827 19.506 57.448C19.5567 57.4133 19.6127 57.396 19.674 57.396H20.466ZM22.3248 61.564C21.9674 61.564 21.6928 61.464 21.5008 61.264C21.3114 61.0613 21.2168 60.7827 21.2168 60.428V58.136H20.7968C20.7434 58.136 20.6981 58.1187 20.6608 58.084C20.6234 58.0493 20.6048 57.9973 20.6048 57.928V57.536L21.2648 57.428L21.4728 56.308C21.4861 56.2547 21.5114 56.2133 21.5488 56.184C21.5861 56.1547 21.6341 56.14 21.6928 56.14H22.2048V57.432H23.3008V58.136H22.2048V60.36C22.2048 60.488 22.2354 60.588 22.2968 60.66C22.3608 60.732 22.4474 60.768 22.5568 60.768C22.6181 60.768 22.6688 60.7613 22.7088 60.748C22.7514 60.732 22.7874 60.716 22.8168 60.7C22.8488 60.684 22.8768 60.6693 22.9008 60.656C22.9248 60.64 22.9488 60.632 22.9728 60.632C23.0021 60.632 23.0261 60.64 23.0448 60.656C23.0634 60.6693 23.0834 60.6907 23.1048 60.72L23.4008 61.2C23.2568 61.32 23.0914 61.4107 22.9048 61.472C22.7181 61.5333 22.5248 61.564 22.3248 61.564ZM24.8653 58.108C24.9933 57.8627 25.1453 57.6707 25.3213 57.532C25.4973 57.3907 25.7053 57.32 25.9453 57.32C26.1346 57.32 26.2866 57.3613 26.4013 57.444L26.3373 58.184C26.324 58.232 26.304 58.2667 26.2773 58.288C26.2533 58.3067 26.22 58.316 26.1773 58.316C26.1373 58.316 26.0773 58.3093 25.9973 58.296C25.92 58.2827 25.844 58.276 25.7693 58.276C25.66 58.276 25.5626 58.292 25.4773 58.324C25.392 58.356 25.3146 58.4027 25.2453 58.464C25.1786 58.5227 25.1186 58.5947 25.0653 58.68C25.0146 58.7653 24.9666 58.8627 24.9213 58.972V61.5H23.9333V57.396H24.5133C24.6146 57.396 24.6853 57.4147 24.7253 57.452C24.7653 57.4867 24.792 57.5507 24.8053 57.644L24.8653 58.108ZM27.9417 57.396V61.5H26.9497V57.396H27.9417ZM28.0777 56.2C28.0777 56.2853 28.0604 56.3653 28.0257 56.44C27.991 56.5147 27.9444 56.58 27.8857 56.636C27.8297 56.692 27.763 56.7373 27.6857 56.772C27.6084 56.804 27.5257 56.82 27.4377 56.82C27.3524 56.82 27.271 56.804 27.1937 56.772C27.119 56.7373 27.0537 56.692 26.9977 56.636C26.9417 56.58 26.8964 56.5147 26.8617 56.44C26.8297 56.3653 26.8137 56.2853 26.8137 56.2C26.8137 56.112 26.8297 56.0293 26.8617 55.952C26.8964 55.8747 26.9417 55.808 26.9977 55.752C27.0537 55.696 27.119 55.652 27.1937 55.62C27.271 55.5853 27.3524 55.568 27.4377 55.568C27.5257 55.568 27.6084 55.5853 27.6857 55.62C27.763 55.652 27.8297 55.696 27.8857 55.752C27.9444 55.808 27.991 55.8747 28.0257 55.952C28.0604 56.0293 28.0777 56.112 28.0777 56.2ZM30.4489 59.348C30.5716 59.348 30.6783 59.332 30.7689 59.3C30.8596 59.2653 30.9343 59.2187 30.9929 59.16C31.0543 59.1013 31.0996 59.0307 31.1289 58.948C31.1609 58.8653 31.1769 58.7747 31.1769 58.676C31.1769 58.4733 31.1156 58.3133 30.9929 58.196C30.8729 58.076 30.6916 58.016 30.4489 58.016C30.2063 58.016 30.0236 58.076 29.9009 58.196C29.7809 58.3133 29.7209 58.4733 29.7209 58.676C29.7209 58.772 29.7356 58.8613 29.7649 58.944C29.7969 59.0267 29.8423 59.0987 29.9009 59.16C29.9623 59.2187 30.0383 59.2653 30.1289 59.3C30.2223 59.332 30.3289 59.348 30.4489 59.348ZM31.5649 61.684C31.5649 61.604 31.5409 61.5387 31.4929 61.488C31.4449 61.4373 31.3796 61.3987 31.2969 61.372C31.2143 61.3427 31.1169 61.3213 31.0049 61.308C30.8956 61.2947 30.7783 61.2853 30.6529 61.28C30.5303 61.272 30.4023 61.2653 30.2689 61.26C30.1383 61.2547 30.0103 61.244 29.8849 61.228C29.7756 61.2893 29.6863 61.3613 29.6169 61.444C29.5503 61.5267 29.5169 61.6227 29.5169 61.732C29.5169 61.804 29.5343 61.8707 29.5689 61.932C29.6063 61.996 29.6636 62.0507 29.7409 62.096C29.8209 62.1413 29.9236 62.176 30.0489 62.2C30.1743 62.2267 30.3276 62.24 30.5089 62.24C30.6929 62.24 30.8516 62.2253 30.9849 62.196C31.1183 62.1693 31.2276 62.1307 31.3129 62.08C31.4009 62.032 31.4649 61.9733 31.5049 61.904C31.5449 61.8373 31.5649 61.764 31.5649 61.684ZM32.5489 57.536V57.904C32.5489 58.0213 32.4783 58.0933 32.3369 58.12L31.9689 58.188C32.0249 58.3293 32.0529 58.484 32.0529 58.652C32.0529 58.8547 32.0116 59.0387 31.9289 59.204C31.8489 59.3667 31.7369 59.5053 31.5929 59.62C31.4489 59.7347 31.2783 59.824 31.0809 59.888C30.8863 59.9493 30.6756 59.98 30.4489 59.98C30.3689 59.98 30.2916 59.976 30.2169 59.968C30.1423 59.96 30.0689 59.9493 29.9969 59.936C29.8689 60.0133 29.8049 60.1 29.8049 60.196C29.8049 60.2787 29.8423 60.34 29.9169 60.38C29.9943 60.4173 30.0956 60.444 30.2209 60.46C30.3463 60.476 30.4889 60.4867 30.6489 60.492C30.8089 60.4947 30.9729 60.5027 31.1409 60.516C31.3089 60.5293 31.4729 60.5533 31.6329 60.588C31.7929 60.62 31.9356 60.672 32.0609 60.744C32.1863 60.816 32.2863 60.9147 32.3609 61.04C32.4383 61.1627 32.4769 61.3213 32.4769 61.516C32.4769 61.6973 32.4316 61.8733 32.3409 62.044C32.2529 62.2147 32.1236 62.3667 31.9529 62.5C31.7849 62.6333 31.5769 62.74 31.3289 62.82C31.0836 62.9027 30.8036 62.944 30.4889 62.944C30.1796 62.944 29.9103 62.9133 29.6809 62.852C29.4516 62.7933 29.2609 62.7133 29.1089 62.612C28.9569 62.5133 28.8436 62.3987 28.7689 62.268C28.6943 62.1373 28.6569 62.0013 28.6569 61.86C28.6569 61.668 28.7143 61.508 28.8289 61.38C28.9463 61.2493 29.1063 61.1453 29.3089 61.068C29.1996 61.012 29.1129 60.9373 29.0489 60.844C28.9849 60.7507 28.9529 60.628 28.9529 60.476C28.9529 60.4147 28.9636 60.352 28.9849 60.288C29.0089 60.2213 29.0423 60.156 29.0849 60.092C29.1303 60.028 29.1863 59.968 29.2529 59.912C29.3196 59.8533 29.3983 59.8013 29.4889 59.756C29.2809 59.644 29.1169 59.4947 28.9969 59.308C28.8796 59.1213 28.8209 58.9027 28.8209 58.652C28.8209 58.4493 28.8609 58.2667 28.9409 58.104C29.0236 57.9387 29.1369 57.7987 29.2809 57.684C29.4276 57.5667 29.5996 57.4773 29.7969 57.416C29.9969 57.3547 30.2143 57.324 30.4489 57.324C30.6249 57.324 30.7903 57.3427 30.9449 57.38C31.0996 57.4147 31.2409 57.4667 31.3689 57.536H32.5489ZM34.6677 59.348C34.7904 59.348 34.897 59.332 34.9877 59.3C35.0784 59.2653 35.153 59.2187 35.2117 59.16C35.273 59.1013 35.3184 59.0307 35.3477 58.948C35.3797 58.8653 35.3957 58.7747 35.3957 58.676C35.3957 58.4733 35.3344 58.3133 35.2117 58.196C35.0917 58.076 34.9104 58.016 34.6677 58.016C34.425 58.016 34.2424 58.076 34.1197 58.196C33.9997 58.3133 33.9397 58.4733 33.9397 58.676C33.9397 58.772 33.9544 58.8613 33.9837 58.944C34.0157 59.0267 34.061 59.0987 34.1197 59.16C34.181 59.2187 34.257 59.2653 34.3477 59.3C34.441 59.332 34.5477 59.348 34.6677 59.348ZM35.7837 61.684C35.7837 61.604 35.7597 61.5387 35.7117 61.488C35.6637 61.4373 35.5984 61.3987 35.5157 61.372C35.433 61.3427 35.3357 61.3213 35.2237 61.308C35.1144 61.2947 34.997 61.2853 34.8717 61.28C34.749 61.272 34.621 61.2653 34.4877 61.26C34.357 61.2547 34.229 61.244 34.1037 61.228C33.9944 61.2893 33.905 61.3613 33.8357 61.444C33.769 61.5267 33.7357 61.6227 33.7357 61.732C33.7357 61.804 33.753 61.8707 33.7877 61.932C33.825 61.996 33.8824 62.0507 33.9597 62.096C34.0397 62.1413 34.1424 62.176 34.2677 62.2C34.393 62.2267 34.5464 62.24 34.7277 62.24C34.9117 62.24 35.0704 62.2253 35.2037 62.196C35.337 62.1693 35.4464 62.1307 35.5317 62.08C35.6197 62.032 35.6837 61.9733 35.7237 61.904C35.7637 61.8373 35.7837 61.764 35.7837 61.684ZM36.7677 57.536V57.904C36.7677 58.0213 36.697 58.0933 36.5557 58.12L36.1877 58.188C36.2437 58.3293 36.2717 58.484 36.2717 58.652C36.2717 58.8547 36.2304 59.0387 36.1477 59.204C36.0677 59.3667 35.9557 59.5053 35.8117 59.62C35.6677 59.7347 35.497 59.824 35.2997 59.888C35.105 59.9493 34.8944 59.98 34.6677 59.98C34.5877 59.98 34.5104 59.976 34.4357 59.968C34.361 59.96 34.2877 59.9493 34.2157 59.936C34.0877 60.0133 34.0237 60.1 34.0237 60.196C34.0237 60.2787 34.061 60.34 34.1357 60.38C34.213 60.4173 34.3144 60.444 34.4397 60.46C34.565 60.476 34.7077 60.4867 34.8677 60.492C35.0277 60.4947 35.1917 60.5027 35.3597 60.516C35.5277 60.5293 35.6917 60.5533 35.8517 60.588C36.0117 60.62 36.1544 60.672 36.2797 60.744C36.405 60.816 36.505 60.9147 36.5797 61.04C36.657 61.1627 36.6957 61.3213 36.6957 61.516C36.6957 61.6973 36.6504 61.8733 36.5597 62.044C36.4717 62.2147 36.3424 62.3667 36.1717 62.5C36.0037 62.6333 35.7957 62.74 35.5477 62.82C35.3024 62.9027 35.0224 62.944 34.7077 62.944C34.3984 62.944 34.129 62.9133 33.8997 62.852C33.6704 62.7933 33.4797 62.7133 33.3277 62.612C33.1757 62.5133 33.0624 62.3987 32.9877 62.268C32.913 62.1373 32.8757 62.0013 32.8757 61.86C32.8757 61.668 32.933 61.508 33.0477 61.38C33.165 61.2493 33.325 61.1453 33.5277 61.068C33.4184 61.012 33.3317 60.9373 33.2677 60.844C33.2037 60.7507 33.1717 60.628 33.1717 60.476C33.1717 60.4147 33.1824 60.352 33.2037 60.288C33.2277 60.2213 33.261 60.156 33.3037 60.092C33.349 60.028 33.405 59.968 33.4717 59.912C33.5384 59.8533 33.617 59.8013 33.7077 59.756C33.4997 59.644 33.3357 59.4947 33.2157 59.308C33.0984 59.1213 33.0397 58.9027 33.0397 58.652C33.0397 58.4493 33.0797 58.2667 33.1597 58.104C33.2424 57.9387 33.3557 57.7987 33.4997 57.684C33.6464 57.5667 33.8184 57.4773 34.0157 57.416C34.2157 57.3547 34.433 57.324 34.6677 57.324C34.8437 57.324 35.009 57.3427 35.1637 57.38C35.3184 57.4147 35.4597 57.4667 35.5877 57.536H36.7677ZM39.9679 58.976C39.9679 58.848 39.9493 58.728 39.9119 58.616C39.8773 58.5013 39.8239 58.4013 39.7519 58.316C39.6799 58.2307 39.5879 58.164 39.4759 58.116C39.3666 58.0653 39.2386 58.04 39.0919 58.04C38.8066 58.04 38.5813 58.1213 38.4159 58.284C38.2533 58.4467 38.1493 58.6773 38.1039 58.976H39.9679ZM38.0839 59.572C38.0999 59.7827 38.1373 59.9653 38.1959 60.12C38.2546 60.272 38.3319 60.3987 38.4279 60.5C38.5239 60.5987 38.6373 60.6733 38.7679 60.724C38.9013 60.772 39.0479 60.796 39.2079 60.796C39.3679 60.796 39.5053 60.7773 39.6199 60.74C39.7373 60.7027 39.8386 60.6613 39.9239 60.616C40.0119 60.5707 40.0879 60.5293 40.1519 60.492C40.2186 60.4547 40.2826 60.436 40.3439 60.436C40.4266 60.436 40.4879 60.4667 40.5279 60.528L40.8119 60.888C40.7026 61.016 40.5799 61.124 40.4439 61.212C40.3079 61.2973 40.1653 61.3667 40.0159 61.42C39.8693 61.4707 39.7186 61.5067 39.5639 61.528C39.4119 61.5493 39.2639 61.56 39.1199 61.56C38.8346 61.56 38.5693 61.5133 38.3239 61.42C38.0786 61.324 37.8653 61.184 37.6839 61C37.5026 60.8133 37.3599 60.584 37.2559 60.312C37.1519 60.0373 37.0999 59.72 37.0999 59.36C37.0999 59.08 37.1453 58.8173 37.2359 58.572C37.3266 58.324 37.4559 58.1093 37.6239 57.928C37.7946 57.744 38.0013 57.5987 38.2439 57.492C38.4893 57.3853 38.7653 57.332 39.0719 57.332C39.3306 57.332 39.5693 57.3733 39.7879 57.456C40.0066 57.5387 40.1946 57.66 40.3519 57.82C40.5093 57.9773 40.6319 58.172 40.7199 58.404C40.8106 58.6333 40.8559 58.896 40.8559 59.192C40.8559 59.3413 40.8399 59.4427 40.8079 59.496C40.7759 59.5467 40.7146 59.572 40.6239 59.572H38.0839ZM42.5294 58.108C42.6574 57.8627 42.8094 57.6707 42.9854 57.532C43.1614 57.3907 43.3694 57.32 43.6094 57.32C43.7987 57.32 43.9507 57.3613 44.0654 57.444L44.0014 58.184C43.988 58.232 43.968 58.2667 43.9414 58.288C43.9174 58.3067 43.884 58.316 43.8414 58.316C43.8014 58.316 43.7414 58.3093 43.6614 58.296C43.584 58.2827 43.508 58.276 43.4334 58.276C43.324 58.276 43.2267 58.292 43.1414 58.324C43.056 58.356 42.9787 58.4027 42.9094 58.464C42.8427 58.5227 42.7827 58.5947 42.7294 58.68C42.6787 58.7653 42.6307 58.8627 42.5854 58.972V61.5H41.5974V57.396H42.1774C42.2787 57.396 42.3494 57.4147 42.3894 57.452C42.4294 57.4867 42.456 57.5507 42.4694 57.644L42.5294 58.108Z" fill="black"/>
<g opacity="0.75">
<rect x="3" y="65.25" width="1" height="45" transform="rotate(-90 3 65.25)" fill="#979797"/>
</g>
<path d="M13.1459 70.968C13.3486 70.968 13.5246 70.9427 13.6739 70.892C13.8259 70.8413 13.9499 70.772 14.0459 70.684C14.1446 70.5933 14.2179 70.4867 14.2659 70.364C14.3139 70.2413 14.3379 70.1067 14.3379 69.96C14.3379 69.6667 14.2406 69.4413 14.0459 69.284C13.8539 69.1267 13.5592 69.048 13.1619 69.048H12.4739V70.968H13.1459ZM15.9139 74H14.9419C14.7579 74 14.6246 73.928 14.5419 73.784L13.3259 71.932C13.2806 71.8627 13.2299 71.8133 13.1739 71.784C13.1206 71.7547 13.0406 71.74 12.9339 71.74H12.4739V74H11.3979V68.216H13.1619C13.5539 68.216 13.8899 68.2573 14.1699 68.34C14.4526 68.42 14.6832 68.5333 14.8619 68.68C15.0432 68.8267 15.1766 69.0027 15.2619 69.208C15.3472 69.4107 15.3899 69.6347 15.3899 69.88C15.3899 70.0747 15.3606 70.2587 15.3019 70.432C15.2459 70.6053 15.1632 70.7627 15.0539 70.904C14.9472 71.0453 14.8139 71.1693 14.6539 71.276C14.4966 71.3827 14.3166 71.4667 14.1139 71.528C14.1832 71.568 14.2472 71.616 14.3059 71.672C14.3646 71.7253 14.4179 71.7893 14.4659 71.864L15.9139 74ZM18.488 72.248C18.2027 72.2613 17.9627 72.2867 17.768 72.324C17.5734 72.3587 17.4174 72.404 17.3 72.46C17.1827 72.516 17.0987 72.5813 17.048 72.656C16.9974 72.7307 16.972 72.812 16.972 72.9C16.972 73.0733 17.0227 73.1973 17.124 73.272C17.228 73.3467 17.3627 73.384 17.528 73.384C17.7307 73.384 17.9054 73.348 18.052 73.276C18.2014 73.2013 18.3467 73.0893 18.488 72.94V72.248ZM16.224 70.468C16.696 70.036 17.264 69.82 17.928 69.82C18.168 69.82 18.3827 69.86 18.572 69.94C18.7614 70.0173 18.9214 70.1267 19.052 70.268C19.1827 70.4067 19.2814 70.5733 19.348 70.768C19.4174 70.9627 19.452 71.176 19.452 71.408V74H19.004C18.9107 74 18.8387 73.9867 18.788 73.96C18.7374 73.9307 18.6974 73.8733 18.668 73.788L18.58 73.492C18.476 73.5853 18.3747 73.668 18.276 73.74C18.1774 73.8093 18.0747 73.868 17.968 73.916C17.8614 73.964 17.7467 74 17.624 74.024C17.504 74.0507 17.3707 74.064 17.224 74.064C17.0507 74.064 16.8907 74.0413 16.744 73.996C16.5974 73.948 16.4707 73.8773 16.364 73.784C16.2574 73.6907 16.1747 73.5747 16.116 73.436C16.0574 73.2973 16.028 73.136 16.028 72.952C16.028 72.848 16.0454 72.7453 16.08 72.644C16.1147 72.54 16.1707 72.4413 16.248 72.348C16.328 72.2547 16.4307 72.1667 16.556 72.084C16.6814 72.0013 16.8347 71.9293 17.016 71.868C17.2 71.8067 17.4134 71.7573 17.656 71.72C17.8987 71.68 18.176 71.656 18.488 71.648V71.408C18.488 71.1333 18.4294 70.9307 18.312 70.8C18.1947 70.6667 18.0254 70.6 17.804 70.6C17.644 70.6 17.5107 70.6187 17.404 70.656C17.3 70.6933 17.208 70.736 17.128 70.784C17.048 70.8293 16.9747 70.8707 16.908 70.908C16.844 70.9453 16.772 70.964 16.692 70.964C16.6227 70.964 16.564 70.9467 16.516 70.912C16.468 70.8747 16.4294 70.832 16.4 70.784L16.224 70.468ZM21.3065 70.4C21.3892 70.3173 21.4759 70.2413 21.5665 70.172C21.6599 70.1 21.7572 70.04 21.8585 69.992C21.9625 69.9413 22.0732 69.9027 22.1905 69.876C22.3079 69.8467 22.4359 69.832 22.5745 69.832C22.7985 69.832 22.9972 69.8707 23.1705 69.948C23.3439 70.0227 23.4879 70.1293 23.6025 70.268C23.7199 70.404 23.8079 70.568 23.8665 70.76C23.9279 70.9493 23.9585 71.1587 23.9585 71.388V74H22.9705V71.388C22.9705 71.1373 22.9132 70.944 22.7985 70.808C22.6839 70.6693 22.5092 70.6 22.2745 70.6C22.1039 70.6 21.9439 70.6387 21.7945 70.716C21.6452 70.7933 21.5039 70.8987 21.3705 71.032V74H20.3825V69.896H20.9865C21.1145 69.896 21.1985 69.956 21.2385 70.076L21.3065 70.4ZM27.4742 70.944C27.3622 70.808 27.2395 70.712 27.1062 70.656C26.9755 70.6 26.8342 70.572 26.6822 70.572C26.5328 70.572 26.3982 70.6 26.2782 70.656C26.1582 70.712 26.0555 70.7973 25.9702 70.912C25.8848 71.024 25.8195 71.168 25.7742 71.344C25.7288 71.5173 25.7062 71.7227 25.7062 71.96C25.7062 72.2 25.7248 72.404 25.7622 72.572C25.8022 72.7373 25.8582 72.8733 25.9302 72.98C26.0022 73.084 26.0902 73.16 26.1942 73.208C26.2982 73.2533 26.4142 73.276 26.5422 73.276C26.7475 73.276 26.9222 73.2333 27.0662 73.148C27.2102 73.0627 27.3462 72.9413 27.4742 72.784V70.944ZM28.4622 68.056V74H27.8582C27.7275 74 27.6448 73.94 27.6102 73.82L27.5262 73.424C27.3608 73.6133 27.1702 73.7667 26.9542 73.884C26.7408 74.0013 26.4915 74.06 26.2062 74.06C25.9822 74.06 25.7768 74.0133 25.5902 73.92C25.4035 73.8267 25.2422 73.692 25.1062 73.516C24.9728 73.3373 24.8688 73.1173 24.7942 72.856C24.7222 72.5947 24.6862 72.296 24.6862 71.96C24.6862 71.656 24.7275 71.3733 24.8102 71.112C24.8928 70.8507 25.0115 70.624 25.1662 70.432C25.3208 70.24 25.5062 70.0907 25.7222 69.984C25.9382 69.8747 26.1808 69.82 26.4502 69.82C26.6795 69.82 26.8755 69.856 27.0382 69.928C27.2008 70 27.3462 70.0973 27.4742 70.22V68.056H28.4622ZM31.2532 69.832C31.5572 69.832 31.8332 69.8813 32.0812 69.98C32.3319 70.0787 32.5452 70.2187 32.7212 70.4C32.8999 70.5813 33.0372 70.8027 33.1332 71.064C33.2292 71.3253 33.2772 71.6173 33.2772 71.94C33.2772 72.2653 33.2292 72.5587 33.1332 72.82C33.0372 73.0813 32.8999 73.304 32.7212 73.488C32.5452 73.672 32.3319 73.8133 32.0812 73.912C31.8332 74.0107 31.5572 74.06 31.2532 74.06C30.9466 74.06 30.6679 74.0107 30.4172 73.912C30.1666 73.8133 29.9519 73.672 29.7732 73.488C29.5972 73.304 29.4599 73.0813 29.3612 72.82C29.2652 72.5587 29.2172 72.2653 29.2172 71.94C29.2172 71.6173 29.2652 71.3253 29.3612 71.064C29.4599 70.8027 29.5972 70.5813 29.7732 70.4C29.9519 70.2187 30.1666 70.0787 30.4172 69.98C30.6679 69.8813 30.9466 69.832 31.2532 69.832ZM31.2532 73.3C31.5946 73.3 31.8466 73.1853 32.0092 72.956C32.1746 72.7267 32.2572 72.3907 32.2572 71.948C32.2572 71.5053 32.1746 71.168 32.0092 70.936C31.8466 70.704 31.5946 70.588 31.2532 70.588C30.9066 70.588 30.6492 70.7053 30.4812 70.94C30.3159 71.172 30.2332 71.508 30.2332 71.948C30.2332 72.388 30.3159 72.724 30.4812 72.956C30.6492 73.1853 30.9066 73.3 31.2532 73.3ZM34.031 74V69.896H34.635C34.763 69.896 34.847 69.956 34.887 70.076L34.951 70.38C35.023 70.3 35.0976 70.2267 35.175 70.16C35.255 70.0933 35.339 70.036 35.427 69.988C35.5176 69.94 35.6136 69.9027 35.715 69.876C35.819 69.8467 35.9323 69.832 36.055 69.832C36.3136 69.832 36.5256 69.9027 36.691 70.044C36.859 70.1827 36.9843 70.368 37.067 70.6C37.131 70.464 37.211 70.348 37.307 70.252C37.403 70.1533 37.5083 70.0733 37.623 70.012C37.7376 69.9507 37.859 69.9053 37.987 69.876C38.1176 69.8467 38.2483 69.832 38.379 69.832C38.6056 69.832 38.807 69.8667 38.983 69.936C39.159 70.0053 39.307 70.1067 39.427 70.24C39.547 70.3733 39.6376 70.536 39.699 70.728C39.763 70.92 39.795 71.14 39.795 71.388V74H38.807V71.388C38.807 71.1267 38.7496 70.9307 38.635 70.8C38.5203 70.6667 38.3523 70.6 38.131 70.6C38.0296 70.6 37.935 70.6173 37.847 70.652C37.7616 70.6867 37.6856 70.7373 37.619 70.804C37.555 70.868 37.5043 70.9493 37.467 71.048C37.4296 71.1467 37.411 71.26 37.411 71.388V74H36.419V71.388C36.419 71.1133 36.363 70.9133 36.251 70.788C36.1416 70.6627 35.9803 70.6 35.767 70.6C35.623 70.6 35.4883 70.636 35.363 70.708C35.2403 70.7773 35.1256 70.8733 35.019 70.996V74H34.031Z" fill="black"/>
<path d="M3.5 40H47.5V39H3.5V40ZM50 42.5V74.5H51V42.5H50ZM47.5 77H3.5V78H47.5V77ZM1 74.5V42.5H0V74.5H1ZM3.5 77C2.11929 77 1 75.8807 1 74.5H0C0 76.433 1.567 78 3.5 78V77ZM50 74.5C50 75.8807 48.8807 77 47.5 77V78C49.433 78 51 76.433 51 74.5H50ZM47.5 40C48.8807 40 50 41.1193 50 42.5H51C51 40.567 49.433 39 47.5 39V40ZM3.5 39C1.567 39 0 40.567 0 42.5H1C1 41.1193 2.11929 40 3.5 40V39Z" fill="#979797"/>
<path d="M0.5 81.5C0.5 79.8431 1.84315 78.5 3.5 78.5H47.5C49.1569 78.5 50.5 79.8431 50.5 81.5V113.5C50.5 115.157 49.1569 116.5 47.5 116.5H3.5C1.84315 116.5 0.5 115.157 0.5 113.5V81.5Z" fill="#E3E3E3"/>
<path d="M13.4037 83.072V84.784H15.5717V85.644H13.4037V88H12.3237V82.216H15.9717V83.072H13.4037ZM17.3106 84.608C17.4386 84.3627 17.5906 84.1707 17.7666 84.032C17.9426 83.8907 18.1506 83.82 18.3906 83.82C18.58 83.82 18.732 83.8613 18.8466 83.944L18.7826 84.684C18.7693 84.732 18.7493 84.7667 18.7226 84.788C18.6986 84.8067 18.6653 84.816 18.6226 84.816C18.5826 84.816 18.5226 84.8093 18.4426 84.796C18.3653 84.7827 18.2893 84.776 18.2146 84.776C18.1053 84.776 18.008 84.792 17.9226 84.824C17.8373 84.856 17.76 84.9027 17.6906 84.964C17.624 85.0227 17.564 85.0947 17.5106 85.18C17.46 85.2653 17.412 85.3627 17.3666 85.472V88H16.3786V83.896H16.9586C17.06 83.896 17.1306 83.9147 17.1706 83.952C17.2106 83.9867 17.2373 84.0507 17.2506 84.144L17.3106 84.608ZM21.8898 85.476C21.8898 85.348 21.8711 85.228 21.8338 85.116C21.7991 85.0013 21.7458 84.9013 21.6738 84.816C21.6018 84.7307 21.5098 84.664 21.3978 84.616C21.2885 84.5653 21.1605 84.54 21.0138 84.54C20.7285 84.54 20.5031 84.6213 20.3378 84.784C20.1751 84.9467 20.0711 85.1773 20.0258 85.476H21.8898ZM20.0058 86.072C20.0218 86.2827 20.0591 86.4653 20.1178 86.62C20.1765 86.772 20.2538 86.8987 20.3498 87C20.4458 87.0987 20.5591 87.1733 20.6898 87.224C20.8231 87.272 20.9698 87.296 21.1298 87.296C21.2898 87.296 21.4271 87.2773 21.5418 87.24C21.6591 87.2027 21.7605 87.1613 21.8458 87.116C21.9338 87.0707 22.0098 87.0293 22.0738 86.992C22.1405 86.9547 22.2045 86.936 22.2658 86.936C22.3485 86.936 22.4098 86.9667 22.4498 87.028L22.7338 87.388C22.6245 87.516 22.5018 87.624 22.3658 87.712C22.2298 87.7973 22.0871 87.8667 21.9378 87.92C21.7911 87.9707 21.6405 88.0067 21.4858 88.028C21.3338 88.0493 21.1858 88.06 21.0418 88.06C20.7565 88.06 20.4911 88.0133 20.2458 87.92C20.0005 87.824 19.7871 87.684 19.6058 87.5C19.4245 87.3133 19.2818 87.084 19.1778 86.812C19.0738 86.5373 19.0218 86.22 19.0218 85.86C19.0218 85.58 19.0671 85.3173 19.1578 85.072C19.2485 84.824 19.3778 84.6093 19.5458 84.428C19.7165 84.244 19.9231 84.0987 20.1658 83.992C20.4111 83.8853 20.6871 83.832 20.9938 83.832C21.2525 83.832 21.4911 83.8733 21.7098 83.956C21.9285 84.0387 22.1165 84.16 22.2738 84.32C22.4311 84.4773 22.5538 84.672 22.6418 84.904C22.7325 85.1333 22.7778 85.396 22.7778 85.692C22.7778 85.8413 22.7618 85.9427 22.7298 85.996C22.6978 86.0467 22.6365 86.072 22.5458 86.072H20.0058ZM26.1633 85.476C26.1633 85.348 26.1446 85.228 26.1073 85.116C26.0726 85.0013 26.0193 84.9013 25.9473 84.816C25.8753 84.7307 25.7833 84.664 25.6713 84.616C25.5619 84.5653 25.4339 84.54 25.2873 84.54C25.0019 84.54 24.7766 84.6213 24.6113 84.784C24.4486 84.9467 24.3446 85.1773 24.2993 85.476H26.1633ZM24.2793 86.072C24.2953 86.2827 24.3326 86.4653 24.3913 86.62C24.4499 86.772 24.5273 86.8987 24.6233 87C24.7193 87.0987 24.8326 87.1733 24.9633 87.224C25.0966 87.272 25.2433 87.296 25.4033 87.296C25.5633 87.296 25.7006 87.2773 25.8153 87.24C25.9326 87.2027 26.0339 87.1613 26.1193 87.116C26.2073 87.0707 26.2833 87.0293 26.3473 86.992C26.4139 86.9547 26.4779 86.936 26.5393 86.936C26.6219 86.936 26.6833 86.9667 26.7233 87.028L27.0073 87.388C26.8979 87.516 26.7753 87.624 26.6393 87.712C26.5033 87.7973 26.3606 87.8667 26.2113 87.92C26.0646 87.9707 25.9139 88.0067 25.7593 88.028C25.6073 88.0493 25.4593 88.06 25.3153 88.06C25.0299 88.06 24.7646 88.0133 24.5193 87.92C24.2739 87.824 24.0606 87.684 23.8793 87.5C23.6979 87.3133 23.5553 87.084 23.4513 86.812C23.3473 86.5373 23.2952 86.22 23.2952 85.86C23.2952 85.58 23.3406 85.3173 23.4313 85.072C23.5219 84.824 23.6513 84.6093 23.8193 84.428C23.9899 84.244 24.1966 84.0987 24.4393 83.992C24.6846 83.8853 24.9606 83.832 25.2673 83.832C25.5259 83.832 25.7646 83.8733 25.9833 83.956C26.2019 84.0387 26.3899 84.16 26.5473 84.32C26.7046 84.4773 26.8273 84.672 26.9153 84.904C27.0059 85.1333 27.0512 85.396 27.0512 85.692C27.0512 85.8413 27.0353 85.9427 27.0033 85.996C26.9713 86.0467 26.9099 86.072 26.8193 86.072H24.2793ZM28.7247 84.608C28.8527 84.3627 29.0047 84.1707 29.1807 84.032C29.3567 83.8907 29.5647 83.82 29.8047 83.82C29.994 83.82 30.146 83.8613 30.2607 83.944L30.1967 84.684C30.1834 84.732 30.1634 84.7667 30.1367 84.788C30.1127 84.8067 30.0794 84.816 30.0367 84.816C29.9967 84.816 29.9367 84.8093 29.8567 84.796C29.7794 84.7827 29.7034 84.776 29.6287 84.776C29.5194 84.776 29.422 84.792 29.3367 84.824C29.2514 84.856 29.174 84.9027 29.1047 84.964C29.038 85.0227 28.978 85.0947 28.9247 85.18C28.874 85.2653 28.826 85.3627 28.7807 85.472V88H27.7927V83.896H28.3727C28.474 83.896 28.5447 83.9147 28.5847 83.952C28.6247 83.9867 28.6514 84.0507 28.6647 84.144L28.7247 84.608ZM34.3131 83.896V88H33.7091C33.5784 88 33.4957 87.94 33.4611 87.82L33.3931 87.492C33.2251 87.6627 33.0397 87.8013 32.8371 87.908C32.6344 88.012 32.3957 88.064 32.1211 88.064C31.8971 88.064 31.6984 88.0267 31.5251 87.952C31.3544 87.8747 31.2104 87.7667 31.0931 87.628C30.9757 87.4893 30.8864 87.3253 30.8251 87.136C30.7664 86.944 30.7371 86.7333 30.7371 86.504V83.896H31.7251V86.504C31.7251 86.7547 31.7824 86.9493 31.8971 87.088C32.0144 87.224 32.1891 87.292 32.4211 87.292C32.5917 87.292 32.7517 87.2547 32.9011 87.18C33.0504 87.1027 33.1917 86.9973 33.3251 86.864V83.896H34.3131ZM36.2167 84.4C36.2994 84.3173 36.386 84.2413 36.4767 84.172C36.57 84.1 36.6674 84.04 36.7687 83.992C36.8727 83.9413 36.9834 83.9027 37.1007 83.876C37.218 83.8467 37.346 83.832 37.4847 83.832C37.7087 83.832 37.9074 83.8707 38.0807 83.948C38.254 84.0227 38.398 84.1293 38.5127 84.268C38.63 84.404 38.718 84.568 38.7767 84.76C38.838 84.9493 38.8687 85.1587 38.8687 85.388V88H37.8807V85.388C37.8807 85.1373 37.8234 84.944 37.7087 84.808C37.594 84.6693 37.4194 84.6 37.1847 84.6C37.014 84.6 36.854 84.6387 36.7047 84.716C36.5554 84.7933 36.414 84.8987 36.2807 85.032V88H35.2927V83.896H35.8967C36.0247 83.896 36.1087 83.956 36.1487 84.076L36.2167 84.4Z" fill="black"/>
<g opacity="0.75">
<rect x="3" y="91.75" width="1" height="45" transform="rotate(-90 3 91.75)" fill="#979797"/>
</g>
<path d="M8.62625 97.14H8.87825C8.97958 97.14 9.06358 97.1267 9.13025 97.1C9.19692 97.0707 9.25425 97.0253 9.30225 96.964L10.8983 94.944C10.9649 94.8587 11.0343 94.8 11.1063 94.768C11.1809 94.7333 11.2743 94.716 11.3863 94.716H12.3143L10.3663 97.12C10.2516 97.2667 10.1329 97.3707 10.0103 97.432C10.0983 97.464 10.1769 97.5093 10.2463 97.568C10.3183 97.624 10.3863 97.6987 10.4503 97.792L12.4583 100.5H11.5103C11.3823 100.5 11.2863 100.483 11.2222 100.448C11.1609 100.411 11.1089 100.357 11.0663 100.288L9.43025 98.152C9.37958 98.08 9.32092 98.0293 9.25425 98C9.18758 97.9707 9.09158 97.956 8.96625 97.956H8.62625V100.5H7.55025V94.716H8.62625V97.14ZM15.2258 97.976C15.2258 97.848 15.2071 97.728 15.1698 97.616C15.1351 97.5013 15.0818 97.4013 15.0098 97.316C14.9378 97.2307 14.8458 97.164 14.7338 97.116C14.6244 97.0653 14.4964 97.04 14.3498 97.04C14.0644 97.04 13.8391 97.1213 13.6738 97.284C13.5111 97.4467 13.4071 97.6773 13.3618 97.976H15.2258ZM13.3418 98.572C13.3578 98.7827 13.3951 98.9653 13.4538 99.12C13.5124 99.272 13.5898 99.3987 13.6858 99.5C13.7818 99.5987 13.8951 99.6733 14.0258 99.724C14.1591 99.772 14.3058 99.796 14.4658 99.796C14.6258 99.796 14.7631 99.7773 14.8778 99.74C14.9951 99.7027 15.0964 99.6613 15.1818 99.616C15.2698 99.5707 15.3458 99.5293 15.4098 99.492C15.4764 99.4547 15.5404 99.436 15.6018 99.436C15.6844 99.436 15.7458 99.4667 15.7858 99.528L16.0698 99.888C15.9604 100.016 15.8378 100.124 15.7018 100.212C15.5658 100.297 15.4231 100.367 15.2738 100.42C15.1271 100.471 14.9764 100.507 14.8218 100.528C14.6698 100.549 14.5218 100.56 14.3778 100.56C14.0924 100.56 13.8271 100.513 13.5818 100.42C13.3364 100.324 13.1231 100.184 12.9418 100C12.7604 99.8133 12.6178 99.584 12.5138 99.312C12.4098 99.0373 12.3577 98.72 12.3577 98.36C12.3577 98.08 12.4031 97.8173 12.4938 97.572C12.5844 97.324 12.7138 97.1093 12.8818 96.928C13.0524 96.744 13.2591 96.5987 13.5018 96.492C13.7471 96.3853 14.0231 96.332 14.3298 96.332C14.5884 96.332 14.8271 96.3733 15.0458 96.456C15.2644 96.5387 15.4524 96.66 15.6098 96.82C15.7671 96.9773 15.8898 97.172 15.9778 97.404C16.0684 97.6333 16.1137 97.896 16.1137 98.192C16.1137 98.3413 16.0978 98.4427 16.0658 98.496C16.0338 98.5467 15.9724 98.572 15.8818 98.572H13.3418ZM20.466 96.396L18.23 101.628C18.2007 101.697 18.162 101.749 18.114 101.784C18.0687 101.821 17.998 101.84 17.902 101.84H17.166L17.934 100.192L16.274 96.396H17.142C17.2193 96.396 17.2793 96.4147 17.322 96.452C17.3673 96.4893 17.4007 96.532 17.422 96.58L18.294 98.708C18.3233 98.78 18.3473 98.852 18.366 98.924C18.3873 98.996 18.4073 99.0693 18.426 99.144C18.45 99.0693 18.474 98.996 18.498 98.924C18.522 98.8493 18.5487 98.776 18.578 98.704L19.402 96.58C19.4233 96.5267 19.458 96.4827 19.506 96.448C19.5567 96.4133 19.6127 96.396 19.674 96.396H20.466ZM22.3248 100.564C21.9674 100.564 21.6928 100.464 21.5008 100.264C21.3114 100.061 21.2168 99.7827 21.2168 99.428V97.136H20.7968C20.7434 97.136 20.6981 97.1187 20.6608 97.084C20.6234 97.0493 20.6048 96.9973 20.6048 96.928V96.536L21.2648 96.428L21.4728 95.308C21.4861 95.2547 21.5114 95.2133 21.5488 95.184C21.5861 95.1547 21.6341 95.14 21.6928 95.14H22.2048V96.432H23.3008V97.136H22.2048V99.36C22.2048 99.488 22.2354 99.588 22.2968 99.66C22.3608 99.732 22.4474 99.768 22.5568 99.768C22.6181 99.768 22.6688 99.7613 22.7088 99.748C22.7514 99.732 22.7874 99.716 22.8168 99.7C22.8488 99.684 22.8768 99.6693 22.9008 99.656C22.9248 99.64 22.9488 99.632 22.9728 99.632C23.0021 99.632 23.0261 99.64 23.0448 99.656C23.0634 99.6693 23.0834 99.6907 23.1048 99.72L23.4008 100.2C23.2568 100.32 23.0914 100.411 22.9048 100.472C22.7181 100.533 22.5248 100.564 22.3248 100.564ZM24.8653 97.108C24.9933 96.8627 25.1453 96.6707 25.3213 96.532C25.4973 96.3907 25.7053 96.32 25.9453 96.32C26.1346 96.32 26.2866 96.3613 26.4013 96.444L26.3373 97.184C26.324 97.232 26.304 97.2667 26.2773 97.288C26.2533 97.3067 26.22 97.316 26.1773 97.316C26.1373 97.316 26.0773 97.3093 25.9973 97.296C25.92 97.2827 25.844 97.276 25.7693 97.276C25.66 97.276 25.5626 97.292 25.4773 97.324C25.392 97.356 25.3146 97.4027 25.2453 97.464C25.1786 97.5227 25.1186 97.5947 25.0653 97.68C25.0146 97.7653 24.9666 97.8627 24.9213 97.972V100.5H23.9333V96.396H24.5133C24.6146 96.396 24.6853 96.4147 24.7253 96.452C24.7653 96.4867 24.792 96.5507 24.8053 96.644L24.8653 97.108ZM27.9417 96.396V100.5H26.9497V96.396H27.9417ZM28.0777 95.2C28.0777 95.2853 28.0604 95.3653 28.0257 95.44C27.991 95.5147 27.9444 95.58 27.8857 95.636C27.8297 95.692 27.763 95.7373 27.6857 95.772C27.6084 95.804 27.5257 95.82 27.4377 95.82C27.3524 95.82 27.271 95.804 27.1937 95.772C27.119 95.7373 27.0537 95.692 26.9977 95.636C26.9417 95.58 26.8964 95.5147 26.8617 95.44C26.8297 95.3653 26.8137 95.2853 26.8137 95.2C26.8137 95.112 26.8297 95.0293 26.8617 94.952C26.8964 94.8747 26.9417 94.808 26.9977 94.752C27.0537 94.696 27.119 94.652 27.1937 94.62C27.271 94.5853 27.3524 94.568 27.4377 94.568C27.5257 94.568 27.6084 94.5853 27.6857 94.62C27.763 94.652 27.8297 94.696 27.8857 94.752C27.9444 94.808 27.991 94.8747 28.0257 94.952C28.0604 95.0293 28.0777 95.112 28.0777 95.2ZM30.4489 98.348C30.5716 98.348 30.6783 98.332 30.7689 98.3C30.8596 98.2653 30.9343 98.2187 30.9929 98.16C31.0543 98.1013 31.0996 98.0307 31.1289 97.948C31.1609 97.8653 31.1769 97.7747 31.1769 97.676C31.1769 97.4733 31.1156 97.3133 30.9929 97.196C30.8729 97.076 30.6916 97.016 30.4489 97.016C30.2063 97.016 30.0236 97.076 29.9009 97.196C29.7809 97.3133 29.7209 97.4733 29.7209 97.676C29.7209 97.772 29.7356 97.8613 29.7649 97.944C29.7969 98.0267 29.8423 98.0987 29.9009 98.16C29.9623 98.2187 30.0383 98.2653 30.1289 98.3C30.2223 98.332 30.3289 98.348 30.4489 98.348ZM31.5649 100.684C31.5649 100.604 31.5409 100.539 31.4929 100.488C31.4449 100.437 31.3796 100.399 31.2969 100.372C31.2143 100.343 31.1169 100.321 31.0049 100.308C30.8956 100.295 30.7783 100.285 30.6529 100.28C30.5303 100.272 30.4023 100.265 30.2689 100.26C30.1383 100.255 30.0103 100.244 29.8849 100.228C29.7756 100.289 29.6863 100.361 29.6169 100.444C29.5503 100.527 29.5169 100.623 29.5169 100.732C29.5169 100.804 29.5343 100.871 29.5689 100.932C29.6063 100.996 29.6636 101.051 29.7409 101.096C29.8209 101.141 29.9236 101.176 30.0489 101.2C30.1743 101.227 30.3276 101.24 30.5089 101.24C30.6929 101.24 30.8516 101.225 30.9849 101.196C31.1183 101.169 31.2276 101.131 31.3129 101.08C31.4009 101.032 31.4649 100.973 31.5049 100.904C31.5449 100.837 31.5649 100.764 31.5649 100.684ZM32.5489 96.536V96.904C32.5489 97.0213 32.4783 97.0933 32.3369 97.12L31.9689 97.188C32.0249 97.3293 32.0529 97.484 32.0529 97.652C32.0529 97.8547 32.0116 98.0387 31.9289 98.204C31.8489 98.3667 31.7369 98.5053 31.5929 98.62C31.4489 98.7347 31.2783 98.824 31.0809 98.888C30.8863 98.9493 30.6756 98.98 30.4489 98.98C30.3689 98.98 30.2916 98.976 30.2169 98.968C30.1423 98.96 30.0689 98.9493 29.9969 98.936C29.8689 99.0133 29.8049 99.1 29.8049 99.196C29.8049 99.2787 29.8423 99.34 29.9169 99.38C29.9943 99.4173 30.0956 99.444 30.2209 99.46C30.3463 99.476 30.4889 99.4867 30.6489 99.492C30.8089 99.4947 30.9729 99.5027 31.1409 99.516C31.3089 99.5293 31.4729 99.5533 31.6329 99.588C31.7929 99.62 31.9356 99.672 32.0609 99.744C32.1863 99.816 32.2863 99.9147 32.3609 100.04C32.4383 100.163 32.4769 100.321 32.4769 100.516C32.4769 100.697 32.4316 100.873 32.3409 101.044C32.2529 101.215 32.1236 101.367 31.9529 101.5C31.7849 101.633 31.5769 101.74 31.3289 101.82C31.0836 101.903 30.8036 101.944 30.4889 101.944C30.1796 101.944 29.9103 101.913 29.6809 101.852C29.4516 101.793 29.2609 101.713 29.1089 101.612C28.9569 101.513 28.8436 101.399 28.7689 101.268C28.6943 101.137 28.6569 101.001 28.6569 100.86C28.6569 100.668 28.7143 100.508 28.8289 100.38C28.9463 100.249 29.1063 100.145 29.3089 100.068C29.1996 100.012 29.1129 99.9373 29.0489 99.844C28.9849 99.7507 28.9529 99.628 28.9529 99.476C28.9529 99.4147 28.9636 99.352 28.9849 99.288C29.0089 99.2213 29.0423 99.156 29.0849 99.092C29.1303 99.028 29.1863 98.968 29.2529 98.912C29.3196 98.8533 29.3983 98.8013 29.4889 98.756C29.2809 98.644 29.1169 98.4947 28.9969 98.308C28.8796 98.1213 28.8209 97.9027 28.8209 97.652C28.8209 97.4493 28.8609 97.2667 28.9409 97.104C29.0236 96.9387 29.1369 96.7987 29.2809 96.684C29.4276 96.5667 29.5996 96.4773 29.7969 96.416C29.9969 96.3547 30.2143 96.324 30.4489 96.324C30.6249 96.324 30.7903 96.3427 30.9449 96.38C31.0996 96.4147 31.2409 96.4667 31.3689 96.536H32.5489ZM34.6677 98.348C34.7904 98.348 34.897 98.332 34.9877 98.3C35.0784 98.2653 35.153 98.2187 35.2117 98.16C35.273 98.1013 35.3184 98.0307 35.3477 97.948C35.3797 97.8653 35.3957 97.7747 35.3957 97.676C35.3957 97.4733 35.3344 97.3133 35.2117 97.196C35.0917 97.076 34.9104 97.016 34.6677 97.016C34.425 97.016 34.2424 97.076 34.1197 97.196C33.9997 97.3133 33.9397 97.4733 33.9397 97.676C33.9397 97.772 33.9544 97.8613 33.9837 97.944C34.0157 98.0267 34.061 98.0987 34.1197 98.16C34.181 98.2187 34.257 98.2653 34.3477 98.3C34.441 98.332 34.5477 98.348 34.6677 98.348ZM35.7837 100.684C35.7837 100.604 35.7597 100.539 35.7117 100.488C35.6637 100.437 35.5984 100.399 35.5157 100.372C35.433 100.343 35.3357 100.321 35.2237 100.308C35.1144 100.295 34.997 100.285 34.8717 100.28C34.749 100.272 34.621 100.265 34.4877 100.26C34.357 100.255 34.229 100.244 34.1037 100.228C33.9944 100.289 33.905 100.361 33.8357 100.444C33.769 100.527 33.7357 100.623 33.7357 100.732C33.7357 100.804 33.753 100.871 33.7877 100.932C33.825 100.996 33.8824 101.051 33.9597 101.096C34.0397 101.141 34.1424 101.176 34.2677 101.2C34.393 101.227 34.5464 101.24 34.7277 101.24C34.9117 101.24 35.0704 101.225 35.2037 101.196C35.337 101.169 35.4464 101.131 35.5317 101.08C35.6197 101.032 35.6837 100.973 35.7237 100.904C35.7637 100.837 35.7837 100.764 35.7837 100.684ZM36.7677 96.536V96.904C36.7677 97.0213 36.697 97.0933 36.5557 97.12L36.1877 97.188C36.2437 97.3293 36.2717 97.484 36.2717 97.652C36.2717 97.8547 36.2304 98.0387 36.1477 98.204C36.0677 98.3667 35.9557 98.5053 35.8117 98.62C35.6677 98.7347 35.497 98.824 35.2997 98.888C35.105 98.9493 34.8944 98.98 34.6677 98.98C34.5877 98.98 34.5104 98.976 34.4357 98.968C34.361 98.96 34.2877 98.9493 34.2157 98.936C34.0877 99.0133 34.0237 99.1 34.0237 99.196C34.0237 99.2787 34.061 99.34 34.1357 99.38C34.213 99.4173 34.3144 99.444 34.4397 99.46C34.565 99.476 34.7077 99.4867 34.8677 99.492C35.0277 99.4947 35.1917 99.5027 35.3597 99.516C35.5277 99.5293 35.6917 99.5533 35.8517 99.588C36.0117 99.62 36.1544 99.672 36.2797 99.744C36.405 99.816 36.505 99.9147 36.5797 100.04C36.657 100.163 36.6957 100.321 36.6957 100.516C36.6957 100.697 36.6504 100.873 36.5597 101.044C36.4717 101.215 36.3424 101.367 36.1717 101.5C36.0037 101.633 35.7957 101.74 35.5477 101.82C35.3024 101.903 35.0224 101.944 34.7077 101.944C34.3984 101.944 34.129 101.913 33.8997 101.852C33.6704 101.793 33.4797 101.713 33.3277 101.612C33.1757 101.513 33.0624 101.399 32.9877 101.268C32.913 101.137 32.8757 101.001 32.8757 100.86C32.8757 100.668 32.933 100.508 33.0477 100.38C33.165 100.249 33.325 100.145 33.5277 100.068C33.4184 100.012 33.3317 99.9373 33.2677 99.844C33.2037 99.7507 33.1717 99.628 33.1717 99.476C33.1717 99.4147 33.1824 99.352 33.2037 99.288C33.2277 99.2213 33.261 99.156 33.3037 99.092C33.349 99.028 33.405 98.968 33.4717 98.912C33.5384 98.8533 33.617 98.8013 33.7077 98.756C33.4997 98.644 33.3357 98.4947 33.2157 98.308C33.0984 98.1213 33.0397 97.9027 33.0397 97.652C33.0397 97.4493 33.0797 97.2667 33.1597 97.104C33.2424 96.9387 33.3557 96.7987 33.4997 96.684C33.6464 96.5667 33.8184 96.4773 34.0157 96.416C34.2157 96.3547 34.433 96.324 34.6677 96.324C34.8437 96.324 35.009 96.3427 35.1637 96.38C35.3184 96.4147 35.4597 96.4667 35.5877 96.536H36.7677ZM39.9679 97.976C39.9679 97.848 39.9493 97.728 39.9119 97.616C39.8773 97.5013 39.8239 97.4013 39.7519 97.316C39.6799 97.2307 39.5879 97.164 39.4759 97.116C39.3666 97.0653 39.2386 97.04 39.0919 97.04C38.8066 97.04 38.5813 97.1213 38.4159 97.284C38.2533 97.4467 38.1493 97.6773 38.1039 97.976H39.9679ZM38.0839 98.572C38.0999 98.7827 38.1373 98.9653 38.1959 99.12C38.2546 99.272 38.3319 99.3987 38.4279 99.5C38.5239 99.5987 38.6373 99.6733 38.7679 99.724C38.9013 99.772 39.0479 99.796 39.2079 99.796C39.3679 99.796 39.5053 99.7773 39.6199 99.74C39.7373 99.7027 39.8386 99.6613 39.9239 99.616C40.0119 99.5707 40.0879 99.5293 40.1519 99.492C40.2186 99.4547 40.2826 99.436 40.3439 99.436C40.4266 99.436 40.4879 99.4667 40.5279 99.528L40.8119 99.888C40.7026 100.016 40.5799 100.124 40.4439 100.212C40.3079 100.297 40.1653 100.367 40.0159 100.42C39.8693 100.471 39.7186 100.507 39.5639 100.528C39.4119 100.549 39.2639 100.56 39.1199 100.56C38.8346 100.56 38.5693 100.513 38.3239 100.42C38.0786 100.324 37.8653 100.184 37.6839 100C37.5026 99.8133 37.3599 99.584 37.2559 99.312C37.1519 99.0373 37.0999 98.72 37.0999 98.36C37.0999 98.08 37.1453 97.8173 37.2359 97.572C37.3266 97.324 37.4559 97.1093 37.6239 96.928C37.7946 96.744 38.0013 96.5987 38.2439 96.492C38.4893 96.3853 38.7653 96.332 39.0719 96.332C39.3306 96.332 39.5693 96.3733 39.7879 96.456C40.0066 96.5387 40.1946 96.66 40.3519 96.82C40.5093 96.9773 40.6319 97.172 40.7199 97.404C40.8106 97.6333 40.8559 97.896 40.8559 98.192C40.8559 98.3413 40.8399 98.4427 40.8079 98.496C40.7759 98.5467 40.7146 98.572 40.6239 98.572H38.0839ZM42.5294 97.108C42.6574 96.8627 42.8094 96.6707 42.9854 96.532C43.1614 96.3907 43.3694 96.32 43.6094 96.32C43.7987 96.32 43.9507 96.3613 44.0654 96.444L44.0014 97.184C43.988 97.232 43.968 97.2667 43.9414 97.288C43.9174 97.3067 43.884 97.316 43.8414 97.316C43.8014 97.316 43.7414 97.3093 43.6614 97.296C43.584 97.2827 43.508 97.276 43.4334 97.276C43.324 97.276 43.2267 97.292 43.1414 97.324C43.056 97.356 42.9787 97.4027 42.9094 97.464C42.8427 97.5227 42.7827 97.5947 42.7294 97.68C42.6787 97.7653 42.6307 97.8627 42.5854 97.972V100.5H41.5974V96.396H42.1774C42.2787 96.396 42.3494 96.4147 42.3894 96.452C42.4294 96.4867 42.456 96.5507 42.4694 96.644L42.5294 97.108Z" fill="black"/>
<g opacity="0.75">
<rect x="3" y="104.25" width="1" height="45" transform="rotate(-90 3 104.25)" fill="#979797"/>
</g>
<path d="M2 107C2 105.895 2.89543 105 4 105H47C48.1046 105 49 105.895 49 107V113C49 114.105 48.1046 115 47 115H4C2.89543 115 2 114.105 2 113V107Z" fill="#FF9300"/>
<path d="M13.1459 109.968C13.3486 109.968 13.5246 109.943 13.6739 109.892C13.8259 109.841 13.9499 109.772 14.0459 109.684C14.1446 109.593 14.2179 109.487 14.2659 109.364C14.3139 109.241 14.3379 109.107 14.3379 108.96C14.3379 108.667 14.2406 108.441 14.0459 108.284C13.8539 108.127 13.5592 108.048 13.1619 108.048H12.4739V109.968H13.1459ZM15.9139 113H14.9419C14.7579 113 14.6246 112.928 14.5419 112.784L13.3259 110.932C13.2806 110.863 13.2299 110.813 13.1739 110.784C13.1206 110.755 13.0406 110.74 12.9339 110.74H12.4739V113H11.3979V107.216H13.1619C13.5539 107.216 13.8899 107.257 14.1699 107.34C14.4526 107.42 14.6832 107.533 14.8619 107.68C15.0432 107.827 15.1766 108.003 15.2619 108.208C15.3472 108.411 15.3899 108.635 15.3899 108.88C15.3899 109.075 15.3606 109.259 15.3019 109.432C15.2459 109.605 15.1632 109.763 15.0539 109.904C14.9472 110.045 14.8139 110.169 14.6539 110.276C14.4966 110.383 14.3166 110.467 14.1139 110.528C14.1832 110.568 14.2472 110.616 14.3059 110.672C14.3646 110.725 14.4179 110.789 14.4659 110.864L15.9139 113ZM18.488 111.248C18.2027 111.261 17.9627 111.287 17.768 111.324C17.5734 111.359 17.4174 111.404 17.3 111.46C17.1827 111.516 17.0987 111.581 17.048 111.656C16.9974 111.731 16.972 111.812 16.972 111.9C16.972 112.073 17.0227 112.197 17.124 112.272C17.228 112.347 17.3627 112.384 17.528 112.384C17.7307 112.384 17.9054 112.348 18.052 112.276C18.2014 112.201 18.3467 112.089 18.488 111.94V111.248ZM16.224 109.468C16.696 109.036 17.264 108.82 17.928 108.82C18.168 108.82 18.3827 108.86 18.572 108.94C18.7614 109.017 18.9214 109.127 19.052 109.268C19.1827 109.407 19.2814 109.573 19.348 109.768C19.4174 109.963 19.452 110.176 19.452 110.408V113H19.004C18.9107 113 18.8387 112.987 18.788 112.96C18.7374 112.931 18.6974 112.873 18.668 112.788L18.58 112.492C18.476 112.585 18.3747 112.668 18.276 112.74C18.1774 112.809 18.0747 112.868 17.968 112.916C17.8614 112.964 17.7467 113 17.624 113.024C17.504 113.051 17.3707 113.064 17.224 113.064C17.0507 113.064 16.8907 113.041 16.744 112.996C16.5974 112.948 16.4707 112.877 16.364 112.784C16.2574 112.691 16.1747 112.575 16.116 112.436C16.0574 112.297 16.028 112.136 16.028 111.952C16.028 111.848 16.0454 111.745 16.08 111.644C16.1147 111.54 16.1707 111.441 16.248 111.348C16.328 111.255 16.4307 111.167 16.556 111.084C16.6814 111.001 16.8347 110.929 17.016 110.868C17.2 110.807 17.4134 110.757 17.656 110.72C17.8987 110.68 18.176 110.656 18.488 110.648V110.408C18.488 110.133 18.4294 109.931 18.312 109.8C18.1947 109.667 18.0254 109.6 17.804 109.6C17.644 109.6 17.5107 109.619 17.404 109.656C17.3 109.693 17.208 109.736 17.128 109.784C17.048 109.829 16.9747 109.871 16.908 109.908C16.844 109.945 16.772 109.964 16.692 109.964C16.6227 109.964 16.564 109.947 16.516 109.912C16.468 109.875 16.4294 109.832 16.4 109.784L16.224 109.468ZM21.3065 109.4C21.3892 109.317 21.4759 109.241 21.5665 109.172C21.6599 109.1 21.7572 109.04 21.8585 108.992C21.9625 108.941 22.0732 108.903 22.1905 108.876C22.3079 108.847 22.4359 108.832 22.5745 108.832C22.7985 108.832 22.9972 108.871 23.1705 108.948C23.3439 109.023 23.4879 109.129 23.6025 109.268C23.7199 109.404 23.8079 109.568 23.8665 109.76C23.9279 109.949 23.9585 110.159 23.9585 110.388V113H22.9705V110.388C22.9705 110.137 22.9132 109.944 22.7985 109.808C22.6839 109.669 22.5092 109.6 22.2745 109.6C22.1039 109.6 21.9439 109.639 21.7945 109.716C21.6452 109.793 21.5039 109.899 21.3705 110.032V113H20.3825V108.896H20.9865C21.1145 108.896 21.1985 108.956 21.2385 109.076L21.3065 109.4ZM27.4742 109.944C27.3622 109.808 27.2395 109.712 27.1062 109.656C26.9755 109.6 26.8342 109.572 26.6822 109.572C26.5328 109.572 26.3982 109.6 26.2782 109.656C26.1582 109.712 26.0555 109.797 25.9702 109.912C25.8848 110.024 25.8195 110.168 25.7742 110.344C25.7288 110.517 25.7062 110.723 25.7062 110.96C25.7062 111.2 25.7248 111.404 25.7622 111.572C25.8022 111.737 25.8582 111.873 25.9302 111.98C26.0022 112.084 26.0902 112.16 26.1942 112.208C26.2982 112.253 26.4142 112.276 26.5422 112.276C26.7475 112.276 26.9222 112.233 27.0662 112.148C27.2102 112.063 27.3462 111.941 27.4742 111.784V109.944ZM28.4622 107.056V113H27.8582C27.7275 113 27.6448 112.94 27.6102 112.82L27.5262 112.424C27.3608 112.613 27.1702 112.767 26.9542 112.884C26.7408 113.001 26.4915 113.06 26.2062 113.06C25.9822 113.06 25.7768 113.013 25.5902 112.92C25.4035 112.827 25.2422 112.692 25.1062 112.516C24.9728 112.337 24.8688 112.117 24.7942 111.856C24.7222 111.595 24.6862 111.296 24.6862 110.96C24.6862 110.656 24.7275 110.373 24.8102 110.112C24.8928 109.851 25.0115 109.624 25.1662 109.432C25.3208 109.24 25.5062 109.091 25.7222 108.984C25.9382 108.875 26.1808 108.82 26.4502 108.82C26.6795 108.82 26.8755 108.856 27.0382 108.928C27.2008 109 27.3462 109.097 27.4742 109.22V107.056H28.4622ZM31.2532 108.832C31.5572 108.832 31.8332 108.881 32.0812 108.98C32.3319 109.079 32.5452 109.219 32.7212 109.4C32.8999 109.581 33.0372 109.803 33.1332 110.064C33.2292 110.325 33.2772 110.617 33.2772 110.94C33.2772 111.265 33.2292 111.559 33.1332 111.82C33.0372 112.081 32.8999 112.304 32.7212 112.488C32.5452 112.672 32.3319 112.813 32.0812 112.912C31.8332 113.011 31.5572 113.06 31.2532 113.06C30.9466 113.06 30.6679 113.011 30.4172 112.912C30.1666 112.813 29.9519 112.672 29.7732 112.488C29.5972 112.304 29.4599 112.081 29.3612 111.82C29.2652 111.559 29.2172 111.265 29.2172 110.94C29.2172 110.617 29.2652 110.325 29.3612 110.064C29.4599 109.803 29.5972 109.581 29.7732 109.4C29.9519 109.219 30.1666 109.079 30.4172 108.98C30.6679 108.881 30.9466 108.832 31.2532 108.832ZM31.2532 112.3C31.5946 112.3 31.8466 112.185 32.0092 111.956C32.1746 111.727 32.2572 111.391 32.2572 110.948C32.2572 110.505 32.1746 110.168 32.0092 109.936C31.8466 109.704 31.5946 109.588 31.2532 109.588C30.9066 109.588 30.6492 109.705 30.4812 109.94C30.3159 110.172 30.2332 110.508 30.2332 110.948C30.2332 111.388 30.3159 111.724 30.4812 111.956C30.6492 112.185 30.9066 112.3 31.2532 112.3ZM34.031 113V108.896H34.635C34.763 108.896 34.847 108.956 34.887 109.076L34.951 109.38C35.023 109.3 35.0976 109.227 35.175 109.16C35.255 109.093 35.339 109.036 35.427 108.988C35.5176 108.94 35.6136 108.903 35.715 108.876C35.819 108.847 35.9323 108.832 36.055 108.832C36.3136 108.832 36.5256 108.903 36.691 109.044C36.859 109.183 36.9843 109.368 37.067 109.6C37.131 109.464 37.211 109.348 37.307 109.252C37.403 109.153 37.5083 109.073 37.623 109.012C37.7376 108.951 37.859 108.905 37.987 108.876C38.1176 108.847 38.2483 108.832 38.379 108.832C38.6056 108.832 38.807 108.867 38.983 108.936C39.159 109.005 39.307 109.107 39.427 109.24C39.547 109.373 39.6376 109.536 39.699 109.728C39.763 109.92 39.795 110.14 39.795 110.388V113H38.807V110.388C38.807 110.127 38.7496 109.931 38.635 109.8C38.5203 109.667 38.3523 109.6 38.131 109.6C38.0296 109.6 37.935 109.617 37.847 109.652C37.7616 109.687 37.6856 109.737 37.619 109.804C37.555 109.868 37.5043 109.949 37.467 110.048C37.4296 110.147 37.411 110.26 37.411 110.388V113H36.419V110.388C36.419 110.113 36.363 109.913 36.251 109.788C36.1416 109.663 35.9803 109.6 35.767 109.6C35.623 109.6 35.4883 109.636 35.363 109.708C35.2403 109.777 35.1256 109.873 35.019 109.996V113H34.031Z" fill="black"/>
<path d="M3.5 79H47.5V78H3.5V79ZM50 81.5V113.5H51V81.5H50ZM47.5 116H3.5V117H47.5V116ZM1 113.5V81.5H0V113.5H1ZM3.5 116C2.11929 116 1 114.881 1 113.5H0C0 115.433 1.567 117 3.5 117V116ZM50 113.5C50 114.881 48.8807 116 47.5 116V117C49.433 117 51 115.433 51 113.5H50ZM47.5 79C48.8807 79 50 80.1193 50 81.5H51C51 79.567 49.433 78 47.5 78V79ZM3.5 78C1.567 78 0 79.567 0 81.5H1C1 80.1193 2.11929 79 3.5 79V78Z" fill="#979797"/>
</svg>
