<svg width="129" height="180" viewBox="0 0 129 180" fill="none" xmlns="http://www.w3.org/2000/svg">
<defs>
<linearGradient id="paint0_linear" x1="63.5" y1="1" x2="63.5" y2="13.5487" gradientUnits="userSpaceOnUse">
<stop stop-color="#323232"/>
<stop offset="0.234375" stop-color="#333333"/>
<stop offset="0.246403" stop-color="#151515"/>
<stop offset="1" stop-color="#232323"/>
</linearGradient>
<linearGradient id="paint1_linear" x1="63.5" y1="19" x2="63.5" y2="31.5487" gradientUnits="userSpaceOnUse">
<stop stop-color="#323232"/>
<stop offset="0.234375" stop-color="#333333"/>
<stop offset="0.246403" stop-color="#151515"/>
<stop offset="1" stop-color="#232323"/>
</linearGradient>
<linearGradient id="paint2_linear" x1="63.5" y1="37" x2="63.5" y2="49.5487" gradientUnits="userSpaceOnUse">
<stop stop-color="#323232"/>
<stop offset="0.234375" stop-color="#333333"/>
<stop offset="0.246403" stop-color="#151515"/>
<stop offset="1" stop-color="#232323"/>
</linearGradient>
<linearGradient id="paint3_linear" x1="63.5" y1="55" x2="63.5" y2="67.5487" gradientUnits="userSpaceOnUse">
<stop stop-color="#323232"/>
<stop offset="0.234375" stop-color="#333333"/>
<stop offset="0.246403" stop-color="#151515"/>
<stop offset="1" stop-color="#232323"/>
</linearGradient>
<linearGradient id="paint4_linear" x1="63.5" y1="73" x2="63.5" y2="85.5487" gradientUnits="userSpaceOnUse">
<stop stop-color="#323232"/>
<stop offset="0.234375" stop-color="#333333"/>
<stop offset="0.246403" stop-color="#151515"/>
<stop offset="1" stop-color="#232323"/>
</linearGradient>
<linearGradient id="paint5_linear" x1="63.5" y1="91" x2="63.5" y2="103.549" gradientUnits="userSpaceOnUse">
<stop stop-color="#323232"/>
<stop offset="0.234375" stop-color="#333333"/>
<stop offset="0.246403" stop-color="#151515"/>
<stop offset="1" stop-color="#232323"/>
</linearGradient>
<linearGradient id="paint6_linear" x1="63.5" y1="109" x2="63.5" y2="121.549" gradientUnits="userSpaceOnUse">
<stop stop-color="#323232"/>
<stop offset="0.234375" stop-color="#333333"/>
<stop offset="0.246403" stop-color="#151515"/>
<stop offset="1" stop-color="#232323"/>
</linearGradient>
<linearGradient id="paint7_linear" x1="63.5" y1="127" x2="63.5" y2="139.549" gradientUnits="userSpaceOnUse">
<stop stop-color="#323232"/>
<stop offset="0.234375" stop-color="#333333"/>
<stop offset="0.246403" stop-color="#151515"/>
<stop offset="1" stop-color="#232323"/>
</linearGradient>
<linearGradient id="paint8_linear" x1="63.5" y1="145" x2="63.5" y2="157.549" gradientUnits="userSpaceOnUse">
<stop stop-color="#323232"/>
<stop offset="0.234375" stop-color="#333333"/>
<stop offset="0.246403" stop-color="#151515"/>
<stop offset="1" stop-color="#232323"/>
</linearGradient>
<linearGradient id="paint9_linear" x1="63.5" y1="163" x2="63.5" y2="175.549" gradientUnits="userSpaceOnUse">
<stop stop-color="#323232"/>
<stop offset="0.234375" stop-color="#333333"/>
<stop offset="0.246403" stop-color="#151515"/>
<stop offset="1" stop-color="#232323"/>
</linearGradient>
</defs>
<path d="M124 1H3V14H124V1Z" fill="url(#paint0_linear)"/>
<path d="M107.5 7.51357C107.5 7.51357 109.502 7.03108 109.502 12H109.501C109.501 7.03108 111.224 7.51271 111.25 7.51269" stroke="#FF9000" stroke-linejoin="round"/>
<path d="M103.75 7.51361C103.75 7.51361 105.752 7.03112 105.752 12H105.751C105.751 7.03112 107.75 7.51361 107.75 7.51361" stroke="#FF9000" stroke-linejoin="round"/>
<path d="M100.5 7.52387C100.544 7.52397 102.002 7.031 102.002 11.9999H102.001C102.001 7.031 104 7.51349 104 7.51349" stroke="#FF9000" stroke-linejoin="round"/>
<path d="M115.497 3.55061C115.497 3.55061 113.345 3.16925 113.346 4.50017C113.348 5.55842 115.502 5.63184 115.5 6.42505C115.497 7.91804 113 7.42038 113 7.42038" stroke="#FF9A11" stroke-linejoin="round"/>
<path d="M115.5 12L119.5 3" stroke="#FF9A11" stroke-linejoin="round"/>
<path fill-rule="evenodd" clip-rule="evenodd" d="M120 9H121V7H122V12H121V10H120V12H119V7H120V9Z" fill="#FF9A11"/>
<path d="M89 7.51279C89 7.51279 93.5049 7.02976 93.5049 12H93.5018C93.5018 7.02976 98 7.51279 98 7.51279" stroke="#FF9A11" stroke-linejoin="round"/>
<path d="M77 11.9911C77.0811 6.6307 81.446 7.00565 81.446 7.00565H81.4539C81.4539 7.00565 86 7.05896 86 12" stroke="#FF9000" stroke-linejoin="round"/>
<path fill-rule="evenodd" clip-rule="evenodd" d="M74.5005 8H67.9505V7H74.5005V8Z" fill="#FF9000"/>
<path d="M68.0005 7.50181C64.8938 7.39509 65.0005 10.517 65.0005 12.5271" stroke="#FF9000"/>
<path fill-rule="evenodd" clip-rule="evenodd" d="M62.5 8H58.75V7H62.5V8Z" fill="#FF9000"/>
<path d="M59 7.50105C54.5808 7.37955 53.0031 10.9812 53 12.5152" stroke="#FF9000"/>
<path d="M46.0652 13.9805L50 3.74512" stroke="#FF9000" stroke-linejoin="round"/>
<path d="M42 12.1754L45.8822 1.91992" stroke="#FF9000" stroke-linejoin="round"/>
<path d="M45.3884 3.93909L48.8977 5.81853" stroke="#FF9000" stroke-linejoin="round"/>
<path d="M44.5593 5.77332L48.0686 7.65276" stroke="#FF9000" stroke-linejoin="round"/>
<path d="M43.8176 7.8999L47.3269 9.77935" stroke="#FF9000" stroke-linejoin="round"/>
<path d="M43.0945 9.93921L46.6037 11.8186" stroke="#FF9000" stroke-linejoin="round"/>
<path fill-rule="evenodd" clip-rule="evenodd" d="M29 8H35.55V7H29V8Z" fill="#FF9000"/>
<path d="M35.5 7.50181C38.6067 7.39509 38.5 10.517 38.5 12.5271" stroke="#FF9000"/>
<path fill-rule="evenodd" clip-rule="evenodd" d="M17 8H20.75V7H17V8Z" fill="#FF9000"/>
<path d="M20.5 7.50105C24.9192 7.37955 26.4969 10.9812 26.5 12.5152" stroke="#FF9000"/>
<path d="M14 2H5C4.44772 2 4 2.44771 4 3V12C4 12.5523 4.44771 13 5 13H14C14.5523 13 15 12.5523 15 12V3C15 2.44772 14.5523 2 14 2Z" fill="#FF9A11"/>
<path fill-rule="evenodd" clip-rule="evenodd" d="M5 8H14V7H5V8Z" fill="#2F1C04"/>
<path d="M124 19H3V32H124V19Z" fill="url(#paint1_linear)"/>
<path d="M107.5 25.5136C107.5 25.5136 109.502 25.0311 109.502 30H109.501C109.501 25.0311 111.224 25.5127 111.25 25.5127" stroke="#FF9000" stroke-linejoin="round"/>
<path d="M103.75 25.5136C103.75 25.5136 105.752 25.0311 105.752 30H105.751C105.751 25.0311 107.75 25.5136 107.75 25.5136" stroke="#FF9000" stroke-linejoin="round"/>
<path d="M100.5 25.5239C100.544 25.524 102.002 25.031 102.002 29.9999H102.001C102.001 25.031 104 25.5135 104 25.5135" stroke="#FF9000" stroke-linejoin="round"/>
<path d="M115.497 21.5506C115.497 21.5506 113.345 21.1693 113.346 22.5002C113.348 23.5584 115.502 23.6318 115.5 24.425C115.497 25.918 113 25.4204 113 25.4204" stroke="#FF9A11" stroke-linejoin="round"/>
<path d="M115.5 30L119.5 21" stroke="#FF9A11" stroke-linejoin="round"/>
<path fill-rule="evenodd" clip-rule="evenodd" d="M120 27H121V25H122V30H121V28H120V30H119V25H120V27Z" fill="#FF9A11"/>
<path d="M89 25.5128C89 25.5128 93.5049 25.0298 93.5049 30H93.5018C93.5018 25.0298 98 25.5128 98 25.5128" stroke="#FF9A11" stroke-linejoin="round"/>
<path d="M77 29.9911C77.0811 24.6307 81.446 25.0056 81.446 25.0056H81.4539C81.4539 25.0056 86 25.059 86 30" stroke="#FF9000" stroke-linejoin="round"/>
<path fill-rule="evenodd" clip-rule="evenodd" d="M74.5005 26H67.9505V25H74.5005V26Z" fill="#FF9000"/>
<path d="M68.0005 25.5018C64.8938 25.3951 65.0005 28.517 65.0005 30.5271" stroke="#FF9000"/>
<path fill-rule="evenodd" clip-rule="evenodd" d="M62.5 26H58.75V25H62.5V26Z" fill="#FF9000"/>
<path d="M59 25.501C54.5808 25.3796 53.0031 28.9812 53 30.5152" stroke="#FF9000"/>
<path d="M46.0652 31.9805L50 21.7451" stroke="#FF9000" stroke-linejoin="round"/>
<path d="M42 30.1754L45.8822 19.9199" stroke="#FF9000" stroke-linejoin="round"/>
<path d="M45.3884 21.9391L48.8977 23.8185" stroke="#FF9000" stroke-linejoin="round"/>
<path d="M44.5593 23.7733L48.0686 25.6528" stroke="#FF9000" stroke-linejoin="round"/>
<path d="M43.8176 25.8999L47.3269 27.7794" stroke="#FF9000" stroke-linejoin="round"/>
<path d="M43.0945 27.9392L46.6037 29.8186" stroke="#FF9000" stroke-linejoin="round"/>
<path fill-rule="evenodd" clip-rule="evenodd" d="M29 26H35.55V25H29V26Z" fill="#FF9000"/>
<path d="M35.5 25.5018C38.6067 25.3951 38.5 28.517 38.5 30.5271" stroke="#FF9000"/>
<path d="M26 20H17C16.4477 20 16 20.4477 16 21V30C16 30.5523 16.4477 31 17 31H26C26.5523 31 27 30.5523 27 30V21C27 20.4477 26.5523 20 26 20Z" fill="#FF9A11"/>
<path fill-rule="evenodd" clip-rule="evenodd" d="M17 26H20.75V25H17V26Z" fill="#FF9000"/>
<path d="M20.5 25.501C24.9192 25.3796 26.4969 28.9812 26.5 30.5152" stroke="#FF9000"/>
<path fill-rule="evenodd" clip-rule="evenodd" d="M5 26H14V25H5V26Z" fill="#FF9A11"/>
<path d="M124 37H3V50H124V37Z" fill="url(#paint2_linear)"/>
<path d="M107.5 43.5136C107.5 43.5136 109.502 43.0311 109.502 48H109.501C109.501 43.0311 111.224 43.5127 111.25 43.5127" stroke="#FF9000" stroke-linejoin="round"/>
<path d="M103.75 43.5136C103.75 43.5136 105.752 43.0311 105.752 48H105.751C105.751 43.0311 107.75 43.5136 107.75 43.5136" stroke="#FF9000" stroke-linejoin="round"/>
<path d="M100.5 43.5239C100.544 43.524 102.002 43.031 102.002 47.9999H102.001C102.001 43.031 104 43.5135 104 43.5135" stroke="#FF9000" stroke-linejoin="round"/>
<path d="M115.497 39.5506C115.497 39.5506 113.345 39.1693 113.346 40.5002C113.348 41.5584 115.502 41.6318 115.5 42.425C115.497 43.918 113 43.4204 113 43.4204" stroke="#FF9A11" stroke-linejoin="round"/>
<path d="M115.5 48L119.5 39" stroke="#FF9A11" stroke-linejoin="round"/>
<path fill-rule="evenodd" clip-rule="evenodd" d="M120 45H121V43H122V48H121V46H120V48H119V43H120V45Z" fill="#FF9A11"/>
<path d="M89 43.5128C89 43.5128 93.5049 43.0298 93.5049 48H93.5018C93.5018 43.0298 98 43.5128 98 43.5128" stroke="#FF9A11" stroke-linejoin="round"/>
<path d="M77 47.9911C77.0811 42.6307 81.446 43.0056 81.446 43.0056H81.4539C81.4539 43.0056 86 43.059 86 48" stroke="#FF9000" stroke-linejoin="round"/>
<path fill-rule="evenodd" clip-rule="evenodd" d="M74.5005 44H67.9505V43H74.5005V44Z" fill="#FF9000"/>
<path d="M68.0005 43.5018C64.8938 43.3951 65.0005 46.517 65.0005 48.5271" stroke="#FF9000"/>
<path fill-rule="evenodd" clip-rule="evenodd" d="M62.5 44H58.75V43H62.5V44Z" fill="#FF9000"/>
<path d="M59 43.501C54.5808 43.3796 53.0031 46.9812 53 48.5152" stroke="#FF9000"/>
<path d="M46.0652 49.9805L50 39.7451" stroke="#FF9000" stroke-linejoin="round"/>
<path d="M42 48.1754L45.8822 37.9199" stroke="#FF9000" stroke-linejoin="round"/>
<path d="M45.3884 39.9391L48.8977 41.8185" stroke="#FF9000" stroke-linejoin="round"/>
<path d="M44.5593 41.7733L48.0686 43.6528" stroke="#FF9000" stroke-linejoin="round"/>
<path d="M43.8176 43.8999L47.3269 45.7794" stroke="#FF9000" stroke-linejoin="round"/>
<path d="M43.0945 45.9392L46.6037 47.8186" stroke="#FF9000" stroke-linejoin="round"/>
<path d="M38 38H29C28.4477 38 28 38.4477 28 39V48C28 48.5523 28.4477 49 29 49H38C38.5523 49 39 48.5523 39 48V39C39 38.4477 38.5523 38 38 38Z" fill="#FF9A11"/>
<path fill-rule="evenodd" clip-rule="evenodd" d="M29 44H35.55V43H29V44Z" fill="#FF9000"/>
<path d="M35.5 43.5018C38.6067 43.3951 38.5 46.517 38.5 48.5271" stroke="#FF9000"/>
<path fill-rule="evenodd" clip-rule="evenodd" d="M17 44H20.75V43H17V44Z" fill="#FF9000"/>
<path d="M20.5 43.501C24.9192 43.3796 26.4969 46.9812 26.5 48.5152" stroke="#FF9000"/>
<path fill-rule="evenodd" clip-rule="evenodd" d="M5 44H14V43H5V44Z" fill="#FF9A11"/>
<path d="M124 55H3V68H124V55Z" fill="url(#paint3_linear)"/>
<path d="M107.5 61.5136C107.5 61.5136 109.502 61.0311 109.502 66H109.501C109.501 61.0311 111.224 61.5127 111.25 61.5127" stroke="#FF9000" stroke-linejoin="round"/>
<path d="M103.75 61.5136C103.75 61.5136 105.752 61.0311 105.752 66H105.751C105.751 61.0311 107.75 61.5136 107.75 61.5136" stroke="#FF9000" stroke-linejoin="round"/>
<path d="M100.5 61.5239C100.544 61.524 102.002 61.031 102.002 65.9999H102.001C102.001 61.031 104 61.5135 104 61.5135" stroke="#FF9000" stroke-linejoin="round"/>
<path d="M115.497 57.5506C115.497 57.5506 113.345 57.1693 113.346 58.5002C113.348 59.5584 115.502 59.6318 115.5 60.425C115.497 61.918 113 61.4204 113 61.4204" stroke="#FF9A11" stroke-linejoin="round"/>
<path d="M115.5 66L119.5 57" stroke="#FF9A11" stroke-linejoin="round"/>
<path fill-rule="evenodd" clip-rule="evenodd" d="M120 63H121V61H122V66H121V64H120V66H119V61H120V63Z" fill="#FF9A11"/>
<path d="M89 61.5128C89 61.5128 93.5049 61.0298 93.5049 66H93.5018C93.5018 61.0298 98 61.5128 98 61.5128" stroke="#FF9A11" stroke-linejoin="round"/>
<path d="M77 65.9911C77.0811 60.6307 81.446 61.0056 81.446 61.0056H81.4539C81.4539 61.0056 86 61.059 86 66" stroke="#FF9000" stroke-linejoin="round"/>
<path fill-rule="evenodd" clip-rule="evenodd" d="M74.5005 62H67.9505V61H74.5005V62Z" fill="#FF9000"/>
<path d="M68.0005 61.5018C64.8938 61.3951 65.0005 64.517 65.0005 66.5271" stroke="#FF9000"/>
<path fill-rule="evenodd" clip-rule="evenodd" d="M62.5 62H58.75V61H62.5V62Z" fill="#FF9000"/>
<path d="M59 61.501C54.5808 61.3796 53.0031 64.9812 53 66.5152" stroke="#FF9000"/>
<path d="M50 56H41C40.4477 56 40 56.4477 40 57V66C40 66.5523 40.4477 67 41 67H50C50.5523 67 51 66.5523 51 66V57C51 56.4477 50.5523 56 50 56Z" fill="#FF9A11"/>
<path d="M46.0652 67.9805L50 57.7451" stroke="#FF9000" stroke-linejoin="round"/>
<path d="M42 66.1754L45.8822 55.9199" stroke="#FF9000" stroke-linejoin="round"/>
<path d="M45.3884 57.9391L48.8977 59.8185" stroke="#FF9000" stroke-linejoin="round"/>
<path d="M44.5593 59.7733L48.0686 61.6528" stroke="#FF9000" stroke-linejoin="round"/>
<path d="M43.8176 61.8999L47.3269 63.7794" stroke="#FF9000" stroke-linejoin="round"/>
<path d="M43.0945 63.9392L46.6037 65.8186" stroke="#FF9000" stroke-linejoin="round"/>
<path fill-rule="evenodd" clip-rule="evenodd" d="M29 62H35.55V61H29V62Z" fill="#FF9000"/>
<path d="M35.5 61.5018C38.6067 61.3951 38.5 64.517 38.5 66.5271" stroke="#FF9000"/>
<path fill-rule="evenodd" clip-rule="evenodd" d="M17 62H20.75V61H17V62Z" fill="#FF9000"/>
<path d="M20.5 61.501C24.9192 61.3796 26.4969 64.9812 26.5 66.5152" stroke="#FF9000"/>
<path fill-rule="evenodd" clip-rule="evenodd" d="M5 62H14V61H5V62Z" fill="#FF9A11"/>
<path d="M124 73H3V86H124V73Z" fill="url(#paint4_linear)"/>
<path d="M107.5 79.5136C107.5 79.5136 109.502 79.0311 109.502 84H109.501C109.501 79.0311 111.224 79.5127 111.25 79.5127" stroke="#FF9000" stroke-linejoin="round"/>
<path d="M103.75 79.5136C103.75 79.5136 105.752 79.0311 105.752 84H105.751C105.751 79.0311 107.75 79.5136 107.75 79.5136" stroke="#FF9000" stroke-linejoin="round"/>
<path d="M100.5 79.5239C100.544 79.524 102.002 79.031 102.002 83.9999H102.001C102.001 79.031 104 79.5135 104 79.5135" stroke="#FF9000" stroke-linejoin="round"/>
<path d="M115.497 75.5506C115.497 75.5506 113.345 75.1693 113.346 76.5002C113.348 77.5584 115.502 77.6318 115.5 78.425C115.497 79.918 113 79.4204 113 79.4204" stroke="#FF9A11" stroke-linejoin="round"/>
<path d="M115.5 84L119.5 75" stroke="#FF9A11" stroke-linejoin="round"/>
<path fill-rule="evenodd" clip-rule="evenodd" d="M120 81H121V79H122V84H121V82H120V84H119V79H120V81Z" fill="#FF9A11"/>
<path d="M89 79.5128C89 79.5128 93.5049 79.0298 93.5049 84H93.5018C93.5018 79.0298 98 79.5128 98 79.5128" stroke="#FF9A11" stroke-linejoin="round"/>
<path d="M77 83.9911C77.0811 78.6307 81.446 79.0056 81.446 79.0056H81.4539C81.4539 79.0056 86 79.059 86 84" stroke="#FF9000" stroke-linejoin="round"/>
<path fill-rule="evenodd" clip-rule="evenodd" d="M74.5005 80H67.9505V79H74.5005V80Z" fill="#FF9000"/>
<path d="M68.0005 79.5018C64.8938 79.3951 65.0005 82.517 65.0005 84.5271" stroke="#FF9000"/>
<path d="M62 74H53C52.4477 74 52 74.4477 52 75V84C52 84.5523 52.4477 85 53 85H62C62.5523 85 63 84.5523 63 84V75C63 74.4477 62.5523 74 62 74Z" fill="#FF9A11"/>
<path fill-rule="evenodd" clip-rule="evenodd" d="M62.5 80H58.75V79H62.5V80Z" fill="#FF9000"/>
<path d="M59 79.501C54.5808 79.3796 53.0031 82.9812 53 84.5152" stroke="#FF9000"/>
<path d="M46.0652 85.9805L50 75.7451" stroke="#FF9000" stroke-linejoin="round"/>
<path d="M42 84.1754L45.8822 73.9199" stroke="#FF9000" stroke-linejoin="round"/>
<path d="M45.3884 75.9391L48.8977 77.8185" stroke="#FF9000" stroke-linejoin="round"/>
<path d="M44.5593 77.7733L48.0686 79.6528" stroke="#FF9000" stroke-linejoin="round"/>
<path d="M43.8176 79.8999L47.3269 81.7794" stroke="#FF9000" stroke-linejoin="round"/>
<path d="M43.0945 81.9392L46.6037 83.8186" stroke="#FF9000" stroke-linejoin="round"/>
<path fill-rule="evenodd" clip-rule="evenodd" d="M29 80H35.55V79H29V80Z" fill="#FF9000"/>
<path d="M35.5 79.5018C38.6067 79.3951 38.5 82.517 38.5 84.5271" stroke="#FF9000"/>
<path fill-rule="evenodd" clip-rule="evenodd" d="M17 80H20.75V79H17V80Z" fill="#FF9000"/>
<path d="M20.5 79.501C24.9192 79.3796 26.4969 82.9812 26.5 84.5152" stroke="#FF9000"/>
<path fill-rule="evenodd" clip-rule="evenodd" d="M5 80H14V79H5V80Z" fill="#FF9A11"/>
<path d="M124 91H3V104H124V91Z" fill="url(#paint5_linear)"/>
<path d="M107.5 97.5136C107.5 97.5136 109.502 97.0311 109.502 102H109.501C109.501 97.0311 111.224 97.5127 111.25 97.5127" stroke="#FF9000" stroke-linejoin="round"/>
<path d="M103.75 97.5136C103.75 97.5136 105.752 97.0311 105.752 102H105.751C105.751 97.0311 107.75 97.5136 107.75 97.5136" stroke="#FF9000" stroke-linejoin="round"/>
<path d="M100.5 97.5239C100.544 97.524 102.002 97.031 102.002 102H102.001C102.001 97.031 104 97.5135 104 97.5135" stroke="#FF9000" stroke-linejoin="round"/>
<path d="M115.497 93.5506C115.497 93.5506 113.345 93.1693 113.346 94.5002C113.348 95.5584 115.502 95.6318 115.5 96.425C115.497 97.918 113 97.4204 113 97.4204" stroke="#FF9A11" stroke-linejoin="round"/>
<path d="M115.5 102L119.5 93" stroke="#FF9A11" stroke-linejoin="round"/>
<path fill-rule="evenodd" clip-rule="evenodd" d="M120 99H121V97H122V102H121V100H120V102H119V97H120V99Z" fill="#FF9A11"/>
<path d="M89 97.5128C89 97.5128 93.5049 97.0298 93.5049 102H93.5018C93.5018 97.0298 98 97.5128 98 97.5128" stroke="#FF9A11" stroke-linejoin="round"/>
<path d="M77 101.991C77.0811 96.6307 81.446 97.0056 81.446 97.0056H81.4539C81.4539 97.0056 86 97.059 86 102" stroke="#FF9000" stroke-linejoin="round"/>
<path d="M74 92H65C64.4477 92 64 92.4477 64 93V102C64 102.552 64.4477 103 65 103H74C74.5523 103 75 102.552 75 102V93C75 92.4477 74.5523 92 74 92Z" fill="#FF9A11"/>
<path fill-rule="evenodd" clip-rule="evenodd" d="M74.5005 98H67.9505V97H74.5005V98Z" fill="#FF9000"/>
<path d="M68.0005 97.5018C64.8938 97.3951 65.0005 100.517 65.0005 102.527" stroke="#FF9000"/>
<path fill-rule="evenodd" clip-rule="evenodd" d="M62.5 98H58.75V97H62.5V98Z" fill="#FF9000"/>
<path d="M59 97.501C54.5808 97.3796 53.0031 100.981 53 102.515" stroke="#FF9000"/>
<path d="M46.0652 103.981L50 93.7451" stroke="#FF9000" stroke-linejoin="round"/>
<path d="M42 102.175L45.8822 91.9199" stroke="#FF9000" stroke-linejoin="round"/>
<path d="M45.3884 93.9391L48.8977 95.8185" stroke="#FF9000" stroke-linejoin="round"/>
<path d="M44.5593 95.7733L48.0686 97.6528" stroke="#FF9000" stroke-linejoin="round"/>
<path d="M43.8176 97.8999L47.3269 99.7794" stroke="#FF9000" stroke-linejoin="round"/>
<path d="M43.0945 99.9392L46.6037 101.819" stroke="#FF9000" stroke-linejoin="round"/>
<path fill-rule="evenodd" clip-rule="evenodd" d="M29 98H35.55V97H29V98Z" fill="#FF9000"/>
<path d="M35.5 97.5018C38.6067 97.3951 38.5 100.517 38.5 102.527" stroke="#FF9000"/>
<path fill-rule="evenodd" clip-rule="evenodd" d="M17 98H20.75V97H17V98Z" fill="#FF9000"/>
<path d="M20.5 97.501C24.9192 97.3796 26.4969 100.981 26.5 102.515" stroke="#FF9000"/>
<path fill-rule="evenodd" clip-rule="evenodd" d="M5 98H14V97H5V98Z" fill="#FF9A11"/>
<path d="M124 109H3V122H124V109Z" fill="url(#paint6_linear)"/>
<path d="M107.5 115.514C107.5 115.514 109.502 115.031 109.502 120H109.501C109.501 115.031 111.224 115.513 111.25 115.513" stroke="#FF9000" stroke-linejoin="round"/>
<path d="M103.75 115.514C103.75 115.514 105.752 115.031 105.752 120H105.751C105.751 115.031 107.75 115.514 107.75 115.514" stroke="#FF9000" stroke-linejoin="round"/>
<path d="M100.5 115.524C100.544 115.524 102.002 115.031 102.002 120H102.001C102.001 115.031 104 115.513 104 115.513" stroke="#FF9000" stroke-linejoin="round"/>
<path d="M115.497 111.551C115.497 111.551 113.345 111.169 113.346 112.5C113.348 113.558 115.502 113.632 115.5 114.425C115.497 115.918 113 115.42 113 115.42" stroke="#FF9A11" stroke-linejoin="round"/>
<path d="M115.5 120L119.5 111" stroke="#FF9A11" stroke-linejoin="round"/>
<path fill-rule="evenodd" clip-rule="evenodd" d="M120 117H121V115H122V120H121V118H120V120H119V115H120V117Z" fill="#FF9A11"/>
<path d="M89 115.513C89 115.513 93.5049 115.03 93.5049 120H93.5018C93.5018 115.03 98 115.513 98 115.513" stroke="#FF9A11" stroke-linejoin="round"/>
<path d="M86 110H77C76.4477 110 76 110.448 76 111V120C76 120.552 76.4477 121 77 121H86C86.5523 121 87 120.552 87 120V111C87 110.448 86.5523 110 86 110Z" fill="#FF9A11"/>
<path d="M77 119.991C77.0811 114.631 81.446 115.006 81.446 115.006H81.4539C81.4539 115.006 86 115.059 86 120" stroke="#FF9000" stroke-linejoin="round"/>
<path fill-rule="evenodd" clip-rule="evenodd" d="M74.5005 116H67.9505V115H74.5005V116Z" fill="#FF9000"/>
<path d="M68.0005 115.502C64.8938 115.395 65.0005 118.517 65.0005 120.527" stroke="#FF9000"/>
<path fill-rule="evenodd" clip-rule="evenodd" d="M62.5 116H58.75V115H62.5V116Z" fill="#FF9000"/>
<path d="M59 115.501C54.5808 115.38 53.0031 118.981 53 120.515" stroke="#FF9000"/>
<path d="M46.0652 121.981L50 111.745" stroke="#FF9000" stroke-linejoin="round"/>
<path d="M42 120.175L45.8822 109.92" stroke="#FF9000" stroke-linejoin="round"/>
<path d="M45.3884 111.939L48.8977 113.819" stroke="#FF9000" stroke-linejoin="round"/>
<path d="M44.5593 113.773L48.0686 115.653" stroke="#FF9000" stroke-linejoin="round"/>
<path d="M43.8176 115.9L47.3269 117.779" stroke="#FF9000" stroke-linejoin="round"/>
<path d="M43.0945 117.939L46.6037 119.819" stroke="#FF9000" stroke-linejoin="round"/>
<path fill-rule="evenodd" clip-rule="evenodd" d="M29 116H35.55V115H29V116Z" fill="#FF9000"/>
<path d="M35.5 115.502C38.6067 115.395 38.5 118.517 38.5 120.527" stroke="#FF9000"/>
<path fill-rule="evenodd" clip-rule="evenodd" d="M17 116H20.75V115H17V116Z" fill="#FF9000"/>
<path d="M20.5 115.501C24.9192 115.38 26.4969 118.981 26.5 120.515" stroke="#FF9000"/>
<path fill-rule="evenodd" clip-rule="evenodd" d="M5 116H14V115H5V116Z" fill="#FF9A11"/>
<path d="M124 127H3V140H124V127Z" fill="url(#paint7_linear)"/>
<path d="M107.5 133.514C107.5 133.514 109.502 133.031 109.502 138H109.501C109.501 133.031 111.224 133.513 111.25 133.513" stroke="#FF9000" stroke-linejoin="round"/>
<path d="M103.75 133.514C103.75 133.514 105.752 133.031 105.752 138H105.751C105.751 133.031 107.75 133.514 107.75 133.514" stroke="#FF9000" stroke-linejoin="round"/>
<path d="M100.5 133.524C100.544 133.524 102.002 133.031 102.002 138H102.001C102.001 133.031 104 133.513 104 133.513" stroke="#FF9000" stroke-linejoin="round"/>
<path d="M115.497 129.551C115.497 129.551 113.345 129.169 113.346 130.5C113.348 131.558 115.502 131.632 115.5 132.425C115.497 133.918 113 133.42 113 133.42" stroke="#FF9A11" stroke-linejoin="round"/>
<path d="M115.5 138L119.5 129" stroke="#FF9A11" stroke-linejoin="round"/>
<path fill-rule="evenodd" clip-rule="evenodd" d="M120 135H121V133H122V138H121V136H120V138H119V133H120V135Z" fill="#FF9A11"/>
<path d="M98 128H89C88.4477 128 88 128.448 88 129V138C88 138.552 88.4477 139 89 139H98C98.5523 139 99 138.552 99 138V129C99 128.448 98.5523 128 98 128Z" fill="#FF9A11"/>
<path d="M89 133.513C89 133.513 93.5049 133.03 93.5049 138H93.5018C93.5018 133.03 98 133.513 98 133.513" stroke="#2F1C04" stroke-linejoin="round"/>
<path d="M77 137.991C77.0811 132.631 81.446 133.006 81.446 133.006H81.4539C81.4539 133.006 86 133.059 86 138" stroke="#FF9000" stroke-linejoin="round"/>
<path fill-rule="evenodd" clip-rule="evenodd" d="M74.5005 134H67.9505V133H74.5005V134Z" fill="#FF9000"/>
<path d="M68.0005 133.502C64.8938 133.395 65.0005 136.517 65.0005 138.527" stroke="#FF9000"/>
<path fill-rule="evenodd" clip-rule="evenodd" d="M62.5 134H58.75V133H62.5V134Z" fill="#FF9000"/>
<path d="M59 133.501C54.5808 133.38 53.0031 136.981 53 138.515" stroke="#FF9000"/>
<path d="M46.0652 139.981L50 129.745" stroke="#FF9000" stroke-linejoin="round"/>
<path d="M42 138.175L45.8822 127.92" stroke="#FF9000" stroke-linejoin="round"/>
<path d="M45.3884 129.939L48.8977 131.819" stroke="#FF9000" stroke-linejoin="round"/>
<path d="M44.5593 131.773L48.0686 133.653" stroke="#FF9000" stroke-linejoin="round"/>
<path d="M43.8176 133.9L47.3269 135.779" stroke="#FF9000" stroke-linejoin="round"/>
<path d="M43.0945 135.939L46.6037 137.819" stroke="#FF9000" stroke-linejoin="round"/>
<path fill-rule="evenodd" clip-rule="evenodd" d="M29 134H35.55V133H29V134Z" fill="#FF9000"/>
<path d="M35.5 133.502C38.6067 133.395 38.5 136.517 38.5 138.527" stroke="#FF9000"/>
<path fill-rule="evenodd" clip-rule="evenodd" d="M17 134H20.75V133H17V134Z" fill="#FF9000"/>
<path d="M20.5 133.501C24.9192 133.38 26.4969 136.981 26.5 138.515" stroke="#FF9000"/>
<path fill-rule="evenodd" clip-rule="evenodd" d="M5 134H14V133H5V134Z" fill="#FF9A11"/>
<path d="M124 145H3V158H124V145Z" fill="url(#paint8_linear)"/>
<path d="M110 146H101C100.448 146 100 146.448 100 147V156C100 156.552 100.448 157 101 157H110C110.552 157 111 156.552 111 156V147C111 146.448 110.552 146 110 146Z" fill="#FF9A11"/>
<path d="M107.5 151.514C107.5 151.514 109.502 151.031 109.502 156H109.501C109.501 151.031 111.224 151.513 111.25 151.513" stroke="#FF9000" stroke-linejoin="round"/>
<path d="M103.75 151.514C103.75 151.514 105.752 151.031 105.752 156H105.751C105.751 151.031 107.75 151.514 107.75 151.514" stroke="#FF9000" stroke-linejoin="round"/>
<path d="M100.5 151.524C100.544 151.524 102.002 151.031 102.002 156H102.001C102.001 151.031 104 151.513 104 151.513" stroke="#FF9000" stroke-linejoin="round"/>
<path d="M115.497 147.551C115.497 147.551 113.345 147.169 113.346 148.5C113.348 149.558 115.502 149.632 115.5 150.425C115.497 151.918 113 151.42 113 151.42" stroke="#FF9A11" stroke-linejoin="round"/>
<path d="M115.5 156L119.5 147" stroke="#FF9A11" stroke-linejoin="round"/>
<path fill-rule="evenodd" clip-rule="evenodd" d="M120 153H121V151H122V156H121V154H120V156H119V151H120V153Z" fill="#FF9A11"/>
<path d="M89 151.513C89 151.513 93.5049 151.03 93.5049 156H93.5018C93.5018 151.03 98 151.513 98 151.513" stroke="#FF9A11" stroke-linejoin="round"/>
<path d="M77 155.991C77.0811 150.631 81.446 151.006 81.446 151.006H81.4539C81.4539 151.006 86 151.059 86 156" stroke="#FF9000" stroke-linejoin="round"/>
<path fill-rule="evenodd" clip-rule="evenodd" d="M74.5005 152H67.9505V151H74.5005V152Z" fill="#FF9000"/>
<path d="M68.0005 151.502C64.8938 151.395 65.0005 154.517 65.0005 156.527" stroke="#FF9000"/>
<path fill-rule="evenodd" clip-rule="evenodd" d="M62.5 152H58.75V151H62.5V152Z" fill="#FF9000"/>
<path d="M59 151.501C54.5808 151.38 53.0031 154.981 53 156.515" stroke="#FF9000"/>
<path d="M46.0652 157.981L50 147.745" stroke="#FF9000" stroke-linejoin="round"/>
<path d="M42 156.175L45.8822 145.92" stroke="#FF9000" stroke-linejoin="round"/>
<path d="M45.3884 147.939L48.8977 149.819" stroke="#FF9000" stroke-linejoin="round"/>
<path d="M44.5593 149.773L48.0686 151.653" stroke="#FF9000" stroke-linejoin="round"/>
<path d="M43.8176 151.9L47.3269 153.779" stroke="#FF9000" stroke-linejoin="round"/>
<path d="M43.0945 153.939L46.6037 155.819" stroke="#FF9000" stroke-linejoin="round"/>
<path fill-rule="evenodd" clip-rule="evenodd" d="M29 152H35.55V151H29V152Z" fill="#FF9000"/>
<path d="M35.5 151.502C38.6067 151.395 38.5 154.517 38.5 156.527" stroke="#FF9000"/>
<path fill-rule="evenodd" clip-rule="evenodd" d="M17 152H20.75V151H17V152Z" fill="#FF9000"/>
<path d="M20.5 151.501C24.9192 151.38 26.4969 154.981 26.5 156.515" stroke="#FF9000"/>
<path fill-rule="evenodd" clip-rule="evenodd" d="M5 152H14V151H5V152Z" fill="#FF9A11"/>
<path d="M124 163H3V176H124V163Z" fill="url(#paint9_linear)"/>
<path d="M107.5 169.514C107.5 169.514 109.502 169.031 109.502 174H109.501C109.501 169.031 111.224 169.513 111.25 169.513" stroke="#FF9000" stroke-linejoin="round"/>
<path d="M103.75 169.514C103.75 169.514 105.752 169.031 105.752 174H105.751C105.751 169.031 107.75 169.514 107.75 169.514" stroke="#FF9000" stroke-linejoin="round"/>
<path d="M100.5 169.524C100.544 169.524 102.002 169.031 102.002 174H102.001C102.001 169.031 104 169.513 104 169.513" stroke="#FF9000" stroke-linejoin="round"/>
<path d="M122 164H113C112.448 164 112 164.448 112 165V174C112 174.552 112.448 175 113 175H122C122.552 175 123 174.552 123 174V165C123 164.448 122.552 164 122 164Z" fill="#FF9A11"/>
<path d="M115.497 165.551C115.497 165.551 113.345 165.169 113.346 166.5C113.348 167.558 115.502 167.632 115.5 168.425C115.497 169.918 113 169.42 113 169.42" stroke="#2F1C04" stroke-linejoin="round"/>
<path d="M115.5 174L119.5 165" stroke="#2F1C04" stroke-linejoin="round"/>
<path fill-rule="evenodd" clip-rule="evenodd" d="M120 171H121V169H122V174H121V172H120V174H119V169H120V171Z" fill="#2F1C04"/>
<path d="M89 169.513C89 169.513 93.5049 169.03 93.5049 174H93.5018C93.5018 169.03 98 169.513 98 169.513" stroke="#FF9A11" stroke-linejoin="round"/>
<path d="M77 173.991C77.0811 168.631 81.446 169.006 81.446 169.006H81.4539C81.4539 169.006 86 169.059 86 174" stroke="#FF9000" stroke-linejoin="round"/>
<path fill-rule="evenodd" clip-rule="evenodd" d="M74.5005 170H67.9505V169H74.5005V170Z" fill="#FF9000"/>
<path d="M68.0005 169.502C64.8938 169.395 65.0005 172.517 65.0005 174.527" stroke="#FF9000"/>
<path fill-rule="evenodd" clip-rule="evenodd" d="M62.5 170H58.75V169H62.5V170Z" fill="#FF9000"/>
<path d="M59 169.501C54.5808 169.38 53.0031 172.981 53 174.515" stroke="#FF9000"/>
<path d="M46.0652 175.981L50 165.745" stroke="#FF9000" stroke-linejoin="round"/>
<path d="M42 174.175L45.8822 163.92" stroke="#FF9000" stroke-linejoin="round"/>
<path d="M45.3884 165.939L48.8977 167.819" stroke="#FF9000" stroke-linejoin="round"/>
<path d="M44.5593 167.773L48.0686 169.653" stroke="#FF9000" stroke-linejoin="round"/>
<path d="M43.8176 169.9L47.3269 171.779" stroke="#FF9000" stroke-linejoin="round"/>
<path d="M43.0945 171.939L46.6037 173.819" stroke="#FF9000" stroke-linejoin="round"/>
<path fill-rule="evenodd" clip-rule="evenodd" d="M29 170H35.55V169H29V170Z" fill="#FF9000"/>
<path d="M35.5 169.502C38.6067 169.395 38.5 172.517 38.5 174.527" stroke="#FF9000"/>
<path fill-rule="evenodd" clip-rule="evenodd" d="M17 170H20.75V169H17V170Z" fill="#FF9000"/>
<path d="M20.5 169.501C24.9192 169.38 26.4969 172.981 26.5 174.515" stroke="#FF9000"/>
<path fill-rule="evenodd" clip-rule="evenodd" d="M5 170H14V169H5V170Z" fill="#FF9A11"/>
</svg>
