<svg width="399" height="84" viewBox="0 0 399 84" fill="none" xmlns="http://www.w3.org/2000/svg">
<path d="M144 -8.74228e-08L143 0L143 14L144 14L144 -8.74228e-08Z" fill="#2B3E80"/>
<path d="M256 -8.74228e-08L255 0L255 14L256 14L256 -8.74228e-08Z" fill="#2B3E80"/>
<path d="M138 7H261" stroke="#2B3E80" stroke-width="2"/>
<path d="M144 6H255V0L144 6Z" fill="#7B8ECE"/>
<path d="M144 14H143V28H144V14Z" fill="#2B3E80"/>
<path d="M256 14H255V28H256V14Z" fill="#2B3E80"/>
<path d="M138 21L261 21" stroke="#2B3E80" stroke-width="2"/>
<path d="M194 20L255 20L255 14L194 20Z" fill="#7B8ECE"/>
<path d="M205 22L144 22L144 28L205 22Z" fill="#7B8ECE"/>
<path d="M200 17H199V25H200V17Z" fill="#2B3E80"/>
<path d="M138 35H261" stroke="#2B3E80" stroke-width="2"/>
<path d="M194 34L255 34L255 30L194 34Z" fill="#7B8ECE"/>
<path d="M205 36L144 36L144 40L205 36Z" fill="#7B8ECE"/>
<path d="M144 36H143V40H144V36Z" fill="#2B3E80"/>
<path d="M152 36H151V39.5H152V36Z" fill="#2B3E80"/>
<path d="M160 36H159V39H160V36Z" fill="#2B3E80"/>
<path d="M168 36H167V38.5H168V36Z" fill="#2B3E80"/>
<path d="M176 36H175V38H176V36Z" fill="#2B3E80"/>
<path d="M184 36H183V37H184V36Z" fill="#2B3E80"/>
<path d="M192 36H191V36.5H192V36Z" fill="#2B3E80"/>
<path d="M255 34L256 34L256 30L255 30L255 34Z" fill="#2B3E80"/>
<path d="M247 34L248 34L248 30.5L247 30.5L247 34Z" fill="#2B3E80"/>
<path d="M239 34L240 34L240 31L239 31L239 34Z" fill="#2B3E80"/>
<path d="M231 34L232 34L232 31.5L231 31.5L231 34Z" fill="#2B3E80"/>
<path d="M223 34L224 34L224 32L223 32L223 34Z" fill="#2B3E80"/>
<path d="M215 34L216 34L216 33L215 33L215 34Z" fill="#2B3E80"/>
<path d="M207 34L208 34L208 33.5L207 33.5L207 34Z" fill="#2B3E80"/>
<path d="M200 31H199V39H200V31Z" fill="#2B3E80"/>
<mask id="path-29-inside-1" fill="white">
<path d="M277 -8.74228e-08L276 0L276 14L277 14L277 -8.74228e-08Z"/>
</mask>
<path d="M277 -8.74228e-08L276 0L276 14L277 14L277 -8.74228e-08Z" fill="#1437B8"/>
<path d="M276 0L276 -1L275 -1L275 8.74228e-08L276 0ZM277 -8.74228e-08L278 -1.74846e-07L278 -1L277 -1L277 -8.74228e-08ZM277 14L277 15L278 15L278 14L277 14ZM276 14L275 14L275 15L276 15L276 14ZM276 1L277 1L277 -1L276 -1L276 1ZM276 0L276 14L278 14L278 -1.74846e-07L276 0ZM277 13L276 13L276 15L277 15L277 13ZM277 14L277 -8.74228e-08L275 8.74228e-08L275 14L277 14Z" fill="#1437B8" mask="url(#path-29-inside-1)"/>
<mask id="path-31-inside-2" fill="white">
<path d="M389 -8.74228e-08L388 0L388 14L389 14L389 -8.74228e-08Z"/>
</mask>
<path d="M389 -8.74228e-08L388 0L388 14L389 14L389 -8.74228e-08Z" fill="#1437B8"/>
<path d="M388 0L388 -1L387 -1L387 8.74228e-08L388 0ZM389 -8.74228e-08L390 -1.74846e-07L390 -1L389 -1L389 -8.74228e-08ZM389 14L389 15L390 15L390 14L389 14ZM388 14L387 14L387 15L388 15L388 14ZM388 1L389 1L389 -1L388 -1L388 1ZM388 0L388 14L390 14L390 -1.74846e-07L388 0ZM389 13L388 13L388 15L389 15L389 13ZM389 14L389 -8.74228e-08L387 8.74228e-08L387 14L389 14Z" fill="#1437B8" mask="url(#path-31-inside-2)"/>
<path d="M271 7H394" stroke="#1437B8" stroke-width="2"/>
<path d="M277 6H388V0L277 6Z" fill="#3C8DFC"/>
<path d="M277 14H276V28H277V14Z" fill="#1438B8"/>
<path d="M389 14H388V28H389V14Z" fill="#1438B8"/>
<path d="M271 21L394 21" stroke="#1438B8" stroke-width="2"/>
<path d="M327 20L388 20L388 14L327 20Z" fill="#3C8DFC"/>
<path d="M338 22L277 22L277 28L338 22Z" fill="#3C8DFC"/>
<path d="M333 17H332V25H333V17Z" fill="#1438B8"/>
<path d="M271 35H394" stroke="#1437B8" stroke-width="2"/>
<path d="M327 34L388 34L388 30L327 34Z" fill="#3C8DFC"/>
<path d="M338 36L277 36L277 40L338 36Z" fill="#3C8DFC"/>
<mask id="path-44-inside-3" fill="white">
<path d="M277 36H276V40H277V36Z"/>
</mask>
<path d="M277 36H276V40H277V36Z" fill="#1437B8"/>
<path d="M276 36V35H275V36H276ZM277 36H278V35H277V36ZM277 40V41H278V40H277ZM276 40H275V41H276V40ZM276 37H277V35H276V37ZM276 36V40H278V36H276ZM277 39H276V41H277V39ZM277 40V36H275V40H277Z" fill="#1437B8" mask="url(#path-44-inside-3)"/>
<mask id="path-46-inside-4" fill="white">
<path d="M285 36H284V39.5H285V36Z"/>
</mask>
<path d="M285 36H284V39.5H285V36Z" fill="#1437B8"/>
<path d="M284 36V35H283V36H284ZM285 36H286V35H285V36ZM285 39.5V40.5H286V39.5H285ZM284 39.5H283V40.5H284V39.5ZM284 37H285V35H284V37ZM284 36V39.5H286V36H284ZM285 38.5H284V40.5H285V38.5ZM285 39.5V36H283V39.5H285Z" fill="#1437B8" mask="url(#path-46-inside-4)"/>
<mask id="path-48-inside-5" fill="white">
<path d="M293 36H292V39H293V36Z"/>
</mask>
<path d="M293 36H292V39H293V36Z" fill="#1437B8"/>
<path d="M292 36V35H291V36H292ZM293 36H294V35H293V36ZM293 39V40H294V39H293ZM292 39H291V40H292V39ZM292 37H293V35H292V37ZM292 36V39H294V36H292ZM293 38H292V40H293V38ZM293 39V36H291V39H293Z" fill="#1437B8" mask="url(#path-48-inside-5)"/>
<mask id="path-50-inside-6" fill="white">
<path d="M301 36H300V38.5H301V36Z"/>
</mask>
<path d="M301 36H300V38.5H301V36Z" fill="#1437B8"/>
<path d="M300 36V35H299V36H300ZM301 36H302V35H301V36ZM301 38.5V39.5H302V38.5H301ZM300 38.5H299V39.5H300V38.5ZM300 37H301V35H300V37ZM300 36V38.5H302V36H300ZM301 37.5H300V39.5H301V37.5ZM301 38.5V36H299V38.5H301Z" fill="#1437B8" mask="url(#path-50-inside-6)"/>
<mask id="path-52-inside-7" fill="white">
<path d="M309 36H308V38H309V36Z"/>
</mask>
<path d="M309 36H308V38H309V36Z" fill="#1437B8"/>
<path d="M308 36V35H307V36H308ZM309 36H310V35H309V36ZM309 38V39H310V38H309ZM308 38H307V39H308V38ZM308 37H309V35H308V37ZM308 36V38H310V36H308ZM309 37H308V39H309V37ZM309 38V36H307V38H309Z" fill="#1437B8" mask="url(#path-52-inside-7)"/>
<mask id="path-54-inside-8" fill="white">
<path d="M317 36H316V37H317V36Z"/>
</mask>
<path d="M317 36H316V37H317V36Z" fill="#1437B8"/>
<path d="M316 36V35H315V36H316ZM317 36H318V35H317V36ZM317 37V38H318V37H317ZM316 37H315V38H316V37ZM316 37H317V35H316V37ZM316 36V37H318V36H316ZM317 36H316V38H317V36ZM317 37V36H315V37H317Z" fill="#1437B8" mask="url(#path-54-inside-8)"/>
<mask id="path-56-inside-9" fill="white">
<path d="M325 36H324V36.5H325V36Z"/>
</mask>
<path d="M325 36H324V36.5H325V36Z" fill="#1437B8"/>
<path d="M324 36V35H323V36H324ZM325 36H326V35H325V36ZM325 36.5V37.5H326V36.5H325ZM324 36.5H323V37.5H324V36.5ZM324 37H325V35H324V37ZM324 36V36.5H326V36H324ZM325 35.5H324V37.5H325V35.5ZM325 36.5V36H323V36.5H325Z" fill="#1437B8" mask="url(#path-56-inside-9)"/>
<mask id="path-58-inside-10" fill="white">
<path d="M388 34L389 34L389 30L388 30L388 34Z"/>
</mask>
<path d="M388 34L389 34L389 30L388 30L388 34Z" fill="#1437B8"/>
<path d="M389 34L389 35L390 35L390 34L389 34ZM388 34L387 34L387 35L388 35L388 34ZM388 30L388 29L387 29L387 30L388 30ZM389 30L390 30L390 29L389 29L389 30ZM389 33L388 33L388 35L389 35L389 33ZM389 34L389 30L387 30L387 34L389 34ZM388 31L389 31L389 29L388 29L388 31ZM388 30L388 34L390 34L390 30L388 30Z" fill="#1437B8" mask="url(#path-58-inside-10)"/>
<mask id="path-60-inside-11" fill="white">
<path d="M380 34L381 34L381 30.5L380 30.5L380 34Z"/>
</mask>
<path d="M380 34L381 34L381 30.5L380 30.5L380 34Z" fill="#1437B8"/>
<path d="M381 34L381 35L382 35L382 34L381 34ZM380 34L379 34L379 35L380 35L380 34ZM380 30.5L380 29.5L379 29.5L379 30.5L380 30.5ZM381 30.5L382 30.5L382 29.5L381 29.5L381 30.5ZM381 33L380 33L380 35L381 35L381 33ZM381 34L381 30.5L379 30.5L379 34L381 34ZM380 31.5L381 31.5L381 29.5L380 29.5L380 31.5ZM380 30.5L380 34L382 34L382 30.5L380 30.5Z" fill="#1437B8" mask="url(#path-60-inside-11)"/>
<mask id="path-62-inside-12" fill="white">
<path d="M372 34L373 34L373 31L372 31L372 34Z"/>
</mask>
<path d="M372 34L373 34L373 31L372 31L372 34Z" fill="#1437B8"/>
<path d="M373 34L373 35L374 35L374 34L373 34ZM372 34L371 34L371 35L372 35L372 34ZM372 31L372 30L371 30L371 31L372 31ZM373 31L374 31L374 30L373 30L373 31ZM373 33L372 33L372 35L373 35L373 33ZM373 34L373 31L371 31L371 34L373 34ZM372 32L373 32L373 30L372 30L372 32ZM372 31L372 34L374 34L374 31L372 31Z" fill="#1437B8" mask="url(#path-62-inside-12)"/>
<mask id="path-64-inside-13" fill="white">
<path d="M364 34L365 34L365 31.5L364 31.5L364 34Z"/>
</mask>
<path d="M364 34L365 34L365 31.5L364 31.5L364 34Z" fill="#1437B8"/>
<path d="M365 34L365 35L366 35L366 34L365 34ZM364 34L363 34L363 35L364 35L364 34ZM364 31.5L364 30.5L363 30.5L363 31.5L364 31.5ZM365 31.5L366 31.5L366 30.5L365 30.5L365 31.5ZM365 33L364 33L364 35L365 35L365 33ZM365 34L365 31.5L363 31.5L363 34L365 34ZM364 32.5L365 32.5L365 30.5L364 30.5L364 32.5ZM364 31.5L364 34L366 34L366 31.5L364 31.5Z" fill="#1437B8" mask="url(#path-64-inside-13)"/>
<mask id="path-66-inside-14" fill="white">
<path d="M356 34L357 34L357 32L356 32L356 34Z"/>
</mask>
<path d="M356 34L357 34L357 32L356 32L356 34Z" fill="#1437B8"/>
<path d="M357 34L357 35L358 35L358 34L357 34ZM356 34L355 34L355 35L356 35L356 34ZM356 32L356 31L355 31L355 32L356 32ZM357 32L358 32L358 31L357 31L357 32ZM357 33L356 33L356 35L357 35L357 33ZM357 34L357 32L355 32L355 34L357 34ZM356 33L357 33L357 31L356 31L356 33ZM356 32L356 34L358 34L358 32L356 32Z" fill="#1437B8" mask="url(#path-66-inside-14)"/>
<mask id="path-68-inside-15" fill="white">
<path d="M348 34L349 34L349 33L348 33L348 34Z"/>
</mask>
<path d="M348 34L349 34L349 33L348 33L348 34Z" fill="#1437B8"/>
<path d="M349 34L349 35L350 35L350 34L349 34ZM348 34L347 34L347 35L348 35L348 34ZM348 33L348 32L347 32L347 33L348 33ZM349 33L350 33L350 32L349 32L349 33ZM349 33L348 33L348 35L349 35L349 33ZM349 34L349 33L347 33L347 34L349 34ZM348 34L349 34L349 32L348 32L348 34ZM348 33L348 34L350 34L350 33L348 33Z" fill="#1437B8" mask="url(#path-68-inside-15)"/>
<mask id="path-70-inside-16" fill="white">
<path d="M340 34L341 34L341 33.5L340 33.5L340 34Z"/>
</mask>
<path d="M340 34L341 34L341 33.5L340 33.5L340 34Z" fill="#1437B8"/>
<path d="M341 34L341 35L342 35L342 34L341 34ZM340 34L339 34L339 35L340 35L340 34ZM340 33.5L340 32.5L339 32.5L339 33.5L340 33.5ZM341 33.5L342 33.5L342 32.5L341 32.5L341 33.5ZM341 33L340 33L340 35L341 35L341 33ZM341 34L341 33.5L339 33.5L339 34L341 34ZM340 34.5L341 34.5L341 32.5L340 32.5L340 34.5ZM340 33.5L340 34L342 34L342 33.5L340 33.5Z" fill="#1437B8" mask="url(#path-70-inside-16)"/>
<mask id="path-72-inside-17" fill="white">
<path d="M333 31H332V39H333V31Z"/>
</mask>
<path d="M333 31H332V39H333V31Z" fill="#1437B8"/>
<path d="M332 31V30H331V31H332ZM333 31H334V30H333V31ZM333 39V40H334V39H333ZM332 39H331V40H332V39ZM332 32H333V30H332V32ZM332 31V39H334V31H332ZM333 38H332V40H333V38ZM333 39V31H331V39H333Z" fill="#1437B8" mask="url(#path-72-inside-17)"/>
<path d="M11 42L10 42L10 56L11 56L11 42Z" fill="#F5F5F6"/>
<path d="M123 42L122 42L122 56L123 56L123 42Z" fill="#F5F5F6"/>
<path d="M5 49H128" stroke="#F5F5F6" stroke-width="2"/>
<path d="M11 48H122V42L11 48Z" fill="#B6B6BA"/>
<path d="M11 56H10V70H11V56Z" fill="#F5F5F6"/>
<path d="M123 56H122V70H123V56Z" fill="#F5F5F6"/>
<path d="M5 63L128 63" stroke="#F5F5F6" stroke-width="2"/>
<path d="M61 62L122 62L122 56L61 62Z" fill="#B6B6BA"/>
<path d="M72 64L11 64L11 70L72 64Z" fill="#B6B6BA"/>
<path d="M67 59H66V67H67V59Z" fill="#F5F5F6"/>
<path d="M5 77H128" stroke="#F5F5F6" stroke-width="2"/>
<path d="M61 76L122 76L122 72L61 76Z" fill="#B6B6BA"/>
<path d="M72 78L11 78L11 82L72 78Z" fill="#B6B6BA"/>
<path d="M11 78H10V82H11V78Z" fill="#F5F5F6"/>
<path d="M19 78H18V81.5H19V78Z" fill="#F5F5F6"/>
<path d="M27 78H26V81H27V78Z" fill="#F5F5F6"/>
<path d="M35 78H34V80.5H35V78Z" fill="#F5F5F6"/>
<path d="M43 78H42V80H43V78Z" fill="#F5F5F6"/>
<path d="M51 78H50V79H51V78Z" fill="#F5F5F6"/>
<path d="M59 78H58V78.5H59V78Z" fill="#F5F5F6"/>
<path d="M122 76L123 76L123 72L122 72L122 76Z" fill="#F5F5F6"/>
<path d="M114 76L115 76L115 72.5L114 72.5L114 76Z" fill="#F5F5F6"/>
<path d="M106 76L107 76L107 73L106 73L106 76Z" fill="#F5F5F6"/>
<path d="M98 76L99 76L99 73.5L98 73.5L98 76Z" fill="#F5F5F6"/>
<path d="M90 76L91 76L91 74L90 74L90 76Z" fill="#F5F5F6"/>
<path d="M82 76L83 76L83 75L82 75L82 76Z" fill="#F5F5F6"/>
<path d="M74 76L75 76L75 75.5L74 75.5L74 76Z" fill="#F5F5F6"/>
<path d="M67 73H66V81H67V73Z" fill="#F5F5F6"/>
<path d="M145 42L144 42L144 56L145 56L145 42Z" fill="#9DAADD"/>
<path d="M257 42L256 42L256 56L257 56L257 42Z" fill="#9DAADD"/>
<path d="M139 49H262" stroke="#9DAADD" stroke-width="2"/>
<path d="M145 48H256V42L145 48Z" fill="#A5ABC2"/>
<path d="M145 56H144V70H145V56Z" fill="#9DAADD"/>
<path d="M257 56H256V70H257V56Z" fill="#9DAADD"/>
<path d="M139 63L262 63" stroke="#9DAADD" stroke-width="2"/>
<path d="M195 62L256 62L256 56L195 62Z" fill="#A5ABC2"/>
<path d="M206 64L145 64L145 70L206 64Z" fill="#A5ABC2"/>
<path d="M201 59H200V67H201V59Z" fill="#9DAADD"/>
<path d="M139 77H262" stroke="#9DAADD" stroke-width="2"/>
<path d="M195 76L256 76L256 72L195 76Z" fill="#A5ABC2"/>
<path d="M206 78L145 78L145 82L206 78Z" fill="#A5ABC2"/>
<path d="M145 78H144V82H145V78Z" fill="#9DAADD"/>
<path d="M153 78H152V81.5H153V78Z" fill="#9DAADD"/>
<path d="M161 78H160V81H161V78Z" fill="#9DAADD"/>
<path d="M169 78H168V80.5H169V78Z" fill="#9DAADD"/>
<path d="M177 78H176V80H177V78Z" fill="#9DAADD"/>
<path d="M185 78H184V79H185V78Z" fill="#9DAADD"/>
<path d="M193 78H192V78.5H193V78Z" fill="#9DAADD"/>
<path d="M256 76L257 76L257 72L256 72L256 76Z" fill="#9DAADD"/>
<path d="M248 76L249 76L249 72.5L248 72.5L248 76Z" fill="#9DAADD"/>
<path d="M240 76L241 76L241 73L240 73L240 76Z" fill="#9DAADD"/>
<path d="M232 76L233 76L233 73.5L232 73.5L232 76Z" fill="#9DAADD"/>
<path d="M224 76L225 76L225 74L224 74L224 76Z" fill="#9DAADD"/>
<path d="M216 76L217 76L217 75L216 75L216 76Z" fill="#9DAADD"/>
<path d="M208 76L209 76L209 75.5L208 75.5L208 76Z" fill="#9DAADD"/>
<path d="M201 73H200V81H201V73Z" fill="#9DAADD"/>
<path d="M278 42L277 42L277 56L278 56L278 42Z" fill="#74AEFE"/>
<path d="M390 42L389 42L389 56L390 56L390 42Z" fill="#74AEFE"/>
<path d="M272 49H395" stroke="#74AEFE" stroke-width="2"/>
<path d="M278 48H389V42L278 48Z" fill="#2E86FE"/>
<path d="M278 56H277V70H278V56Z" fill="#74AEFE"/>
<path d="M390 56H389V70H390V56Z" fill="#74AEFE"/>
<path d="M272 63L395 63" stroke="#74AEFE" stroke-width="2"/>
<path d="M328 62L389 62L389 56L328 62Z" fill="#2E86FE"/>
<path d="M339 64L278 64L278 70L339 64Z" fill="#2E86FE"/>
<path d="M334 59H333V67H334V59Z" fill="#74AEFE"/>
<path d="M272 77H395" stroke="#74AEFE" stroke-width="2"/>
<path d="M328 76L389 76L389 72L328 76Z" fill="#2E86FE"/>
<path d="M339 78L278 78L278 82L339 78Z" fill="#2E86FE"/>
<path d="M278 78H277V82H278V78Z" fill="#74AEFE"/>
<path d="M286 78H285V81.5H286V78Z" fill="#74AEFE"/>
<path d="M294 78H293V81H294V78Z" fill="#74AEFE"/>
<path d="M302 78H301V80.5H302V78Z" fill="#74AEFE"/>
<path d="M310 78H309V80H310V78Z" fill="#74AEFE"/>
<path d="M318 78H317V79H318V78Z" fill="#74AEFE"/>
<path d="M326 78H325V78.5H326V78Z" fill="#74AEFE"/>
<path d="M389 76L390 76L390 72L389 72L389 76Z" fill="#74AEFE"/>
<path d="M381 76L382 76L382 72.5L381 72.5L381 76Z" fill="#74AEFE"/>
<path d="M373 76L374 76L374 73L373 73L373 76Z" fill="#74AEFE"/>
<path d="M365 76L366 76L366 73.5L365 73.5L365 76Z" fill="#74AEFE"/>
<path d="M357 76L358 76L358 74L357 74L357 76Z" fill="#74AEFE"/>
<path d="M349 76L350 76L350 75L349 75L349 76Z" fill="#74AEFE"/>
<path d="M341 76L342 76L342 75.5L341 75.5L341 76Z" fill="#74AEFE"/>
<path d="M334 73H333V81H334V73Z" fill="#74AEFE"/>
<path d="M11 -8.74228e-08L10 0L10 14L11 14L11 -8.74228e-08Z" fill="black"/>
<path d="M123 -8.74228e-08L122 0L122 14L123 14L123 -8.74228e-08Z" fill="black"/>
<path d="M5 7H128" stroke="black" stroke-width="2"/>
<path d="M11 6H122V0L11 6Z" fill="#98999B"/>
<path d="M11 14H10V28H11V14Z" fill="black"/>
<path d="M123 14H122V28H123V14Z" fill="black"/>
<path d="M5 21L128 21" stroke="black" stroke-width="2"/>
<path d="M61 20L122 20L122 14L61 20Z" fill="#98999B"/>
<path d="M72 22L11 22L11 28L72 22Z" fill="#98999B"/>
<path d="M67 17H66V25H67V17Z" fill="black"/>
<path d="M5 35H128" stroke="black" stroke-width="2"/>
<path d="M61 34L122 34L122 30L61 34Z" fill="#98999B"/>
<path d="M72 36L11 36L11 40L72 36Z" fill="#98999B"/>
<path d="M11 36H10V40H11V36Z" fill="black"/>
<path d="M19 36H18V39.5H19V36Z" fill="black"/>
<path d="M27 36H26V39H27V36Z" fill="black"/>
<path d="M35 36H34V38.5H35V36Z" fill="black"/>
<path d="M43 36H42V38H43V36Z" fill="black"/>
<path d="M51 36H50V37H51V36Z" fill="black"/>
<path d="M59 36H58V36.5H59V36Z" fill="black"/>
<path d="M122 34L123 34L123 30L122 30L122 34Z" fill="black"/>
<path d="M114 34L115 34L115 30.5L114 30.5L114 34Z" fill="black"/>
<path d="M106 34L107 34L107 31L106 31L106 34Z" fill="black"/>
<path d="M98 34L99 34L99 31.5L98 31.5L98 34Z" fill="black"/>
<path d="M90 34L91 34L91 32L90 32L90 34Z" fill="black"/>
<path d="M82 34L83 34L83 33L82 33L82 34Z" fill="black"/>
<path d="M74 34L75 34L75 33.5L74 33.5L74 34Z" fill="black"/>
<path d="M67 31H66V39H67V31Z" fill="black"/>
</svg>
