<?xml version="1.0" encoding="utf-8"?>
<svg viewBox="0 0 80 40" xmlns="http://www.w3.org/2000/svg">
  <g>
    <rect x="1" y="1" width="78" height="18" style="fill: rgb(216, 216, 216); stroke: rgb(0, 0, 0);"/>
    <path d="M 22.101 13.186 L 18.601 4.586 L 19.531 4.586 C 19.631 4.586 19.714 4.613 19.781 4.666 C 19.848 4.719 19.894 4.786 19.921 4.866 L 22.351 10.926 C 22.411 11.066 22.464 11.216 22.511 11.376 C 22.558 11.536 22.601 11.703 22.641 11.876 C 22.681 11.703 22.721 11.536 22.761 11.376 C 22.801 11.216 22.851 11.066 22.911 10.926 L 25.321 4.866 C 25.354 4.799 25.404 4.736 25.471 4.676 C 25.538 4.616 25.621 4.586 25.721 4.586 L 26.661 4.586 L 23.151 13.186 L 22.101 13.186 ZM 29.295 7.016 C 29.662 7.016 29.998 7.076 30.305 7.196 C 30.612 7.316 30.878 7.493 31.105 7.726 C 31.325 7.953 31.498 8.236 31.625 8.576 C 31.752 8.916 31.815 9.299 31.815 9.726 C 31.815 9.899 31.798 10.013 31.765 10.066 C 31.725 10.119 31.655 10.146 31.555 10.146 L 27.515 10.146 C 27.522 10.533 27.575 10.869 27.675 11.156 C 27.768 11.436 27.898 11.673 28.065 11.866 C 28.232 12.053 28.432 12.193 28.665 12.286 C 28.898 12.379 29.158 12.426 29.445 12.426 C 29.712 12.426 29.945 12.396 30.145 12.336 C 30.338 12.276 30.505 12.209 30.645 12.136 C 30.785 12.063 30.902 11.996 30.995 11.936 C 31.088 11.876 31.168 11.846 31.235 11.846 C 31.322 11.846 31.388 11.879 31.435 11.946 L 31.735 12.336 C 31.608 12.496 31.452 12.636 31.265 12.756 C 31.078 12.869 30.882 12.966 30.675 13.046 C 30.462 13.119 30.245 13.176 30.025 13.216 C 29.798 13.249 29.575 13.266 29.355 13.266 C 28.935 13.266 28.548 13.196 28.195 13.056 C 27.842 12.916 27.535 12.709 27.275 12.436 C 27.022 12.163 26.822 11.823 26.675 11.416 C 26.528 11.009 26.455 10.546 26.455 10.026 C 26.455 9.599 26.522 9.203 26.655 8.836 C 26.782 8.469 26.968 8.149 27.215 7.876 C 27.462 7.609 27.758 7.399 28.105 7.246 C 28.458 7.093 28.855 7.016 29.295 7.016 Z M 29.325 7.796 C 28.805 7.796 28.398 7.946 28.105 8.246 C 27.805 8.546 27.622 8.959 27.555 9.486 L 30.855 9.486 C 30.855 9.239 30.822 9.013 30.755 8.806 C 30.688 8.599 30.588 8.419 30.455 8.266 C 30.322 8.119 30.162 8.006 29.975 7.926 C 29.782 7.839 29.565 7.796 29.325 7.796 ZM 34.243 13.186 L 33.183 13.186 L 33.183 7.106 L 33.793 7.106 C 33.906 7.106 33.986 7.129 34.033 7.176 C 34.073 7.216 34.103 7.293 34.123 7.406 L 34.193 8.346 C 34.4 7.926 34.656 7.596 34.963 7.356 C 35.27 7.116 35.63 6.996 36.043 6.996 C 36.21 6.996 36.36 7.016 36.493 7.056 C 36.633 7.096 36.76 7.149 36.873 7.216 L 36.733 8.016 C 36.706 8.116 36.646 8.166 36.553 8.166 C 36.493 8.166 36.406 8.146 36.293 8.106 C 36.18 8.066 36.016 8.046 35.803 8.046 C 35.436 8.046 35.126 8.156 34.873 8.376 C 34.626 8.589 34.416 8.903 34.243 9.316 L 34.243 13.186 ZM 39.859 13.286 C 39.379 13.286 39.009 13.149 38.749 12.876 C 38.489 12.609 38.359 12.226 38.359 11.726 L 38.359 8.006 L 37.629 8.006 C 37.569 8.006 37.516 7.986 37.469 7.946 C 37.422 7.906 37.399 7.846 37.399 7.766 L 37.399 7.346 L 38.399 7.216 L 38.649 5.336 C 38.656 5.276 38.679 5.226 38.719 5.186 C 38.766 5.153 38.822 5.136 38.889 5.136 L 39.429 5.136 L 39.429 7.226 L 41.169 7.226 L 41.169 8.006 L 39.429 8.006 L 39.429 11.646 C 39.429 11.906 39.492 12.096 39.619 12.216 C 39.739 12.343 39.899 12.406 40.099 12.406 C 40.212 12.406 40.309 12.389 40.389 12.356 C 40.469 12.329 40.539 12.299 40.599 12.266 C 40.659 12.226 40.712 12.193 40.759 12.166 C 40.799 12.133 40.836 12.116 40.869 12.116 C 40.922 12.116 40.972 12.149 41.019 12.216 L 41.329 12.726 C 41.142 12.899 40.919 13.036 40.659 13.136 C 40.399 13.236 40.132 13.286 39.859 13.286 ZM 42.615 7.106 L 43.675 7.106 L 43.675 13.186 L 42.615 13.186 L 42.615 7.106 Z M 43.915 5.196 C 43.915 5.303 43.895 5.399 43.855 5.486 C 43.815 5.579 43.758 5.659 43.685 5.726 C 43.618 5.799 43.538 5.856 43.445 5.896 C 43.352 5.936 43.255 5.956 43.155 5.956 C 43.048 5.956 42.952 5.936 42.865 5.896 C 42.772 5.856 42.692 5.799 42.625 5.726 C 42.552 5.659 42.495 5.579 42.455 5.486 C 42.415 5.399 42.395 5.303 42.395 5.196 C 42.395 5.096 42.415 4.999 42.455 4.906 C 42.495 4.813 42.552 4.729 42.625 4.656 C 42.692 4.589 42.772 4.536 42.865 4.496 C 42.952 4.456 43.048 4.436 43.155 4.436 C 43.255 4.436 43.352 4.456 43.445 4.496 C 43.538 4.536 43.618 4.589 43.685 4.656 C 43.758 4.729 43.815 4.813 43.855 4.906 C 43.895 4.999 43.915 5.096 43.915 5.196 ZM 49.987 7.806 L 49.707 8.186 C 49.674 8.233 49.644 8.266 49.617 8.286 C 49.584 8.313 49.537 8.326 49.477 8.326 C 49.417 8.326 49.35 8.299 49.277 8.246 C 49.21 8.199 49.124 8.146 49.017 8.086 C 48.904 8.026 48.77 7.973 48.617 7.926 C 48.464 7.873 48.277 7.846 48.057 7.846 C 47.757 7.846 47.494 7.899 47.267 8.006 C 47.04 8.113 46.85 8.266 46.697 8.466 C 46.544 8.666 46.427 8.906 46.347 9.186 C 46.267 9.473 46.227 9.793 46.227 10.146 C 46.227 10.513 46.27 10.839 46.357 11.126 C 46.437 11.413 46.554 11.653 46.707 11.846 C 46.86 12.039 47.047 12.186 47.267 12.286 C 47.48 12.393 47.724 12.446 47.997 12.446 C 48.257 12.446 48.47 12.413 48.637 12.346 C 48.81 12.286 48.95 12.219 49.057 12.146 C 49.17 12.066 49.264 11.996 49.337 11.936 C 49.41 11.876 49.484 11.846 49.557 11.846 C 49.644 11.846 49.71 11.879 49.757 11.946 L 50.057 12.336 C 49.79 12.656 49.46 12.893 49.067 13.046 C 48.674 13.193 48.257 13.266 47.817 13.266 C 47.437 13.266 47.084 13.196 46.757 13.056 C 46.43 12.916 46.147 12.716 45.907 12.456 C 45.667 12.189 45.477 11.859 45.337 11.466 C 45.197 11.079 45.127 10.639 45.127 10.146 C 45.127 9.693 45.19 9.273 45.317 8.886 C 45.444 8.506 45.63 8.176 45.877 7.896 C 46.117 7.616 46.414 7.399 46.767 7.246 C 47.127 7.093 47.537 7.016 47.997 7.016 C 48.417 7.016 48.79 7.083 49.117 7.216 C 49.45 7.356 49.74 7.553 49.987 7.806 ZM 55.631 9.296 L 55.631 13.186 L 55.161 13.186 C 55.054 13.186 54.968 13.169 54.901 13.136 C 54.841 13.103 54.801 13.036 54.781 12.936 L 54.661 12.366 C 54.501 12.513 54.344 12.643 54.191 12.756 C 54.038 12.869 53.878 12.966 53.711 13.046 C 53.544 13.126 53.364 13.186 53.171 13.226 C 52.984 13.266 52.774 13.286 52.541 13.286 C 52.308 13.286 52.088 13.253 51.881 13.186 C 51.674 13.119 51.494 13.019 51.341 12.886 C 51.188 12.753 51.068 12.586 50.981 12.386 C 50.888 12.186 50.841 11.946 50.841 11.666 C 50.841 11.426 50.908 11.196 51.041 10.976 C 51.174 10.756 51.388 10.559 51.681 10.386 C 51.974 10.213 52.358 10.069 52.831 9.956 C 53.311 9.849 53.894 9.789 54.581 9.776 L 54.581 9.296 C 54.581 8.823 54.481 8.466 54.281 8.226 C 54.074 7.986 53.774 7.866 53.381 7.866 C 53.121 7.866 52.901 7.899 52.721 7.966 C 52.548 8.033 52.394 8.106 52.261 8.186 C 52.134 8.266 52.024 8.339 51.931 8.406 C 51.831 8.473 51.738 8.506 51.651 8.506 C 51.578 8.506 51.514 8.486 51.461 8.446 C 51.408 8.413 51.364 8.366 51.331 8.306 L 51.141 7.966 C 51.474 7.639 51.834 7.396 52.221 7.236 C 52.608 7.076 53.038 6.996 53.511 6.996 C 53.851 6.996 54.154 7.053 54.421 7.166 C 54.681 7.279 54.901 7.436 55.081 7.636 C 55.261 7.836 55.398 8.079 55.491 8.366 C 55.584 8.646 55.631 8.956 55.631 9.296 Z M 52.861 12.536 C 53.048 12.536 53.218 12.516 53.371 12.476 C 53.531 12.436 53.678 12.383 53.811 12.316 C 53.951 12.243 54.084 12.156 54.211 12.056 C 54.338 11.956 54.461 11.843 54.581 11.716 L 54.581 10.446 C 54.088 10.466 53.671 10.506 53.331 10.566 C 52.984 10.626 52.704 10.706 52.491 10.806 C 52.271 10.906 52.114 11.026 52.021 11.166 C 51.921 11.299 51.871 11.449 51.871 11.616 C 51.871 11.776 51.898 11.916 51.951 12.036 C 51.998 12.149 52.068 12.243 52.161 12.316 C 52.248 12.389 52.351 12.446 52.471 12.486 C 52.591 12.519 52.721 12.536 52.861 12.536 ZM 57.375 4.346 L 58.435 4.346 L 58.435 13.186 L 57.375 13.186 L 57.375 4.346 Z" transform="matrix(1, 0, 0, 1, 0, 0)" style="fill: rgb(51, 51, 51); white-space: pre;"/>
  </g>
  <g transform="matrix(1, 0, 0, 1, 0, 20)">
    <rect x="1" y="1" width="78" height="18" style="fill: rgb(216, 216, 216); stroke: rgb(0, 0, 0);"/>
    <rect x="3" y="3" width="73.839" height="13.423" style="fill: rgb(255, 144, 0);"/>
    <path d="M 22.101 13.186 L 18.601 4.586 L 19.531 4.586 C 19.631 4.586 19.714 4.613 19.781 4.666 C 19.848 4.719 19.894 4.786 19.921 4.866 L 22.351 10.926 C 22.411 11.066 22.464 11.216 22.511 11.376 C 22.558 11.536 22.601 11.703 22.641 11.876 C 22.681 11.703 22.721 11.536 22.761 11.376 C 22.801 11.216 22.851 11.066 22.911 10.926 L 25.321 4.866 C 25.354 4.799 25.404 4.736 25.471 4.676 C 25.538 4.616 25.621 4.586 25.721 4.586 L 26.661 4.586 L 23.151 13.186 L 22.101 13.186 ZM 29.295 7.016 C 29.662 7.016 29.998 7.076 30.305 7.196 C 30.612 7.316 30.878 7.493 31.105 7.726 C 31.325 7.953 31.498 8.236 31.625 8.576 C 31.752 8.916 31.815 9.299 31.815 9.726 C 31.815 9.899 31.798 10.013 31.765 10.066 C 31.725 10.119 31.655 10.146 31.555 10.146 L 27.515 10.146 C 27.522 10.533 27.575 10.869 27.675 11.156 C 27.768 11.436 27.898 11.673 28.065 11.866 C 28.232 12.053 28.432 12.193 28.665 12.286 C 28.898 12.379 29.158 12.426 29.445 12.426 C 29.712 12.426 29.945 12.396 30.145 12.336 C 30.338 12.276 30.505 12.209 30.645 12.136 C 30.785 12.063 30.902 11.996 30.995 11.936 C 31.088 11.876 31.168 11.846 31.235 11.846 C 31.322 11.846 31.388 11.879 31.435 11.946 L 31.735 12.336 C 31.608 12.496 31.452 12.636 31.265 12.756 C 31.078 12.869 30.882 12.966 30.675 13.046 C 30.462 13.119 30.245 13.176 30.025 13.216 C 29.798 13.249 29.575 13.266 29.355 13.266 C 28.935 13.266 28.548 13.196 28.195 13.056 C 27.842 12.916 27.535 12.709 27.275 12.436 C 27.022 12.163 26.822 11.823 26.675 11.416 C 26.528 11.009 26.455 10.546 26.455 10.026 C 26.455 9.599 26.522 9.203 26.655 8.836 C 26.782 8.469 26.968 8.149 27.215 7.876 C 27.462 7.609 27.758 7.399 28.105 7.246 C 28.458 7.093 28.855 7.016 29.295 7.016 Z M 29.325 7.796 C 28.805 7.796 28.398 7.946 28.105 8.246 C 27.805 8.546 27.622 8.959 27.555 9.486 L 30.855 9.486 C 30.855 9.239 30.822 9.013 30.755 8.806 C 30.688 8.599 30.588 8.419 30.455 8.266 C 30.322 8.119 30.162 8.006 29.975 7.926 C 29.782 7.839 29.565 7.796 29.325 7.796 ZM 34.243 13.186 L 33.183 13.186 L 33.183 7.106 L 33.793 7.106 C 33.906 7.106 33.986 7.129 34.033 7.176 C 34.073 7.216 34.103 7.293 34.123 7.406 L 34.193 8.346 C 34.4 7.926 34.656 7.596 34.963 7.356 C 35.27 7.116 35.63 6.996 36.043 6.996 C 36.21 6.996 36.36 7.016 36.493 7.056 C 36.633 7.096 36.76 7.149 36.873 7.216 L 36.733 8.016 C 36.706 8.116 36.646 8.166 36.553 8.166 C 36.493 8.166 36.406 8.146 36.293 8.106 C 36.18 8.066 36.016 8.046 35.803 8.046 C 35.436 8.046 35.126 8.156 34.873 8.376 C 34.626 8.589 34.416 8.903 34.243 9.316 L 34.243 13.186 ZM 39.859 13.286 C 39.379 13.286 39.009 13.149 38.749 12.876 C 38.489 12.609 38.359 12.226 38.359 11.726 L 38.359 8.006 L 37.629 8.006 C 37.569 8.006 37.516 7.986 37.469 7.946 C 37.422 7.906 37.399 7.846 37.399 7.766 L 37.399 7.346 L 38.399 7.216 L 38.649 5.336 C 38.656 5.276 38.679 5.226 38.719 5.186 C 38.766 5.153 38.822 5.136 38.889 5.136 L 39.429 5.136 L 39.429 7.226 L 41.169 7.226 L 41.169 8.006 L 39.429 8.006 L 39.429 11.646 C 39.429 11.906 39.492 12.096 39.619 12.216 C 39.739 12.343 39.899 12.406 40.099 12.406 C 40.212 12.406 40.309 12.389 40.389 12.356 C 40.469 12.329 40.539 12.299 40.599 12.266 C 40.659 12.226 40.712 12.193 40.759 12.166 C 40.799 12.133 40.836 12.116 40.869 12.116 C 40.922 12.116 40.972 12.149 41.019 12.216 L 41.329 12.726 C 41.142 12.899 40.919 13.036 40.659 13.136 C 40.399 13.236 40.132 13.286 39.859 13.286 ZM 42.615 7.106 L 43.675 7.106 L 43.675 13.186 L 42.615 13.186 L 42.615 7.106 Z M 43.915 5.196 C 43.915 5.303 43.895 5.399 43.855 5.486 C 43.815 5.579 43.758 5.659 43.685 5.726 C 43.618 5.799 43.538 5.856 43.445 5.896 C 43.352 5.936 43.255 5.956 43.155 5.956 C 43.048 5.956 42.952 5.936 42.865 5.896 C 42.772 5.856 42.692 5.799 42.625 5.726 C 42.552 5.659 42.495 5.579 42.455 5.486 C 42.415 5.399 42.395 5.303 42.395 5.196 C 42.395 5.096 42.415 4.999 42.455 4.906 C 42.495 4.813 42.552 4.729 42.625 4.656 C 42.692 4.589 42.772 4.536 42.865 4.496 C 42.952 4.456 43.048 4.436 43.155 4.436 C 43.255 4.436 43.352 4.456 43.445 4.496 C 43.538 4.536 43.618 4.589 43.685 4.656 C 43.758 4.729 43.815 4.813 43.855 4.906 C 43.895 4.999 43.915 5.096 43.915 5.196 ZM 49.987 7.806 L 49.707 8.186 C 49.674 8.233 49.644 8.266 49.617 8.286 C 49.584 8.313 49.537 8.326 49.477 8.326 C 49.417 8.326 49.35 8.299 49.277 8.246 C 49.21 8.199 49.124 8.146 49.017 8.086 C 48.904 8.026 48.77 7.973 48.617 7.926 C 48.464 7.873 48.277 7.846 48.057 7.846 C 47.757 7.846 47.494 7.899 47.267 8.006 C 47.04 8.113 46.85 8.266 46.697 8.466 C 46.544 8.666 46.427 8.906 46.347 9.186 C 46.267 9.473 46.227 9.793 46.227 10.146 C 46.227 10.513 46.27 10.839 46.357 11.126 C 46.437 11.413 46.554 11.653 46.707 11.846 C 46.86 12.039 47.047 12.186 47.267 12.286 C 47.48 12.393 47.724 12.446 47.997 12.446 C 48.257 12.446 48.47 12.413 48.637 12.346 C 48.81 12.286 48.95 12.219 49.057 12.146 C 49.17 12.066 49.264 11.996 49.337 11.936 C 49.41 11.876 49.484 11.846 49.557 11.846 C 49.644 11.846 49.71 11.879 49.757 11.946 L 50.057 12.336 C 49.79 12.656 49.46 12.893 49.067 13.046 C 48.674 13.193 48.257 13.266 47.817 13.266 C 47.437 13.266 47.084 13.196 46.757 13.056 C 46.43 12.916 46.147 12.716 45.907 12.456 C 45.667 12.189 45.477 11.859 45.337 11.466 C 45.197 11.079 45.127 10.639 45.127 10.146 C 45.127 9.693 45.19 9.273 45.317 8.886 C 45.444 8.506 45.63 8.176 45.877 7.896 C 46.117 7.616 46.414 7.399 46.767 7.246 C 47.127 7.093 47.537 7.016 47.997 7.016 C 48.417 7.016 48.79 7.083 49.117 7.216 C 49.45 7.356 49.74 7.553 49.987 7.806 ZM 55.631 9.296 L 55.631 13.186 L 55.161 13.186 C 55.054 13.186 54.968 13.169 54.901 13.136 C 54.841 13.103 54.801 13.036 54.781 12.936 L 54.661 12.366 C 54.501 12.513 54.344 12.643 54.191 12.756 C 54.038 12.869 53.878 12.966 53.711 13.046 C 53.544 13.126 53.364 13.186 53.171 13.226 C 52.984 13.266 52.774 13.286 52.541 13.286 C 52.308 13.286 52.088 13.253 51.881 13.186 C 51.674 13.119 51.494 13.019 51.341 12.886 C 51.188 12.753 51.068 12.586 50.981 12.386 C 50.888 12.186 50.841 11.946 50.841 11.666 C 50.841 11.426 50.908 11.196 51.041 10.976 C 51.174 10.756 51.388 10.559 51.681 10.386 C 51.974 10.213 52.358 10.069 52.831 9.956 C 53.311 9.849 53.894 9.789 54.581 9.776 L 54.581 9.296 C 54.581 8.823 54.481 8.466 54.281 8.226 C 54.074 7.986 53.774 7.866 53.381 7.866 C 53.121 7.866 52.901 7.899 52.721 7.966 C 52.548 8.033 52.394 8.106 52.261 8.186 C 52.134 8.266 52.024 8.339 51.931 8.406 C 51.831 8.473 51.738 8.506 51.651 8.506 C 51.578 8.506 51.514 8.486 51.461 8.446 C 51.408 8.413 51.364 8.366 51.331 8.306 L 51.141 7.966 C 51.474 7.639 51.834 7.396 52.221 7.236 C 52.608 7.076 53.038 6.996 53.511 6.996 C 53.851 6.996 54.154 7.053 54.421 7.166 C 54.681 7.279 54.901 7.436 55.081 7.636 C 55.261 7.836 55.398 8.079 55.491 8.366 C 55.584 8.646 55.631 8.956 55.631 9.296 Z M 52.861 12.536 C 53.048 12.536 53.218 12.516 53.371 12.476 C 53.531 12.436 53.678 12.383 53.811 12.316 C 53.951 12.243 54.084 12.156 54.211 12.056 C 54.338 11.956 54.461 11.843 54.581 11.716 L 54.581 10.446 C 54.088 10.466 53.671 10.506 53.331 10.566 C 52.984 10.626 52.704 10.706 52.491 10.806 C 52.271 10.906 52.114 11.026 52.021 11.166 C 51.921 11.299 51.871 11.449 51.871 11.616 C 51.871 11.776 51.898 11.916 51.951 12.036 C 51.998 12.149 52.068 12.243 52.161 12.316 C 52.248 12.389 52.351 12.446 52.471 12.486 C 52.591 12.519 52.721 12.536 52.861 12.536 ZM 57.375 4.346 L 58.435 4.346 L 58.435 13.186 L 57.375 13.186 L 57.375 4.346 Z" transform="matrix(1, 0, 0, 1, 0, 0)" style="fill: rgb(51, 51, 51); white-space: pre;"/>
  </g>
</svg>