<svg width="43" height="14" viewBox="0 0 43 14" fill="none" xmlns="http://www.w3.org/2000/svg">
<path d="M1.5 4.5C1.5 2.84315 2.84315 1.5 4.5 1.5H38.5C40.1569 1.5 41.5 2.84315 41.5 4.5V9.5C41.5 11.1569 40.1569 12.5 38.5 12.5H4.5C2.84315 12.5 1.5 11.1569 1.5 9.5V4.5Z" fill="#E3E3E3"/>
<path d="M4.5 2H38.5V1H4.5V2ZM41 4.5V9.5H42V4.5H41ZM38.5 12H4.5V13H38.5V12ZM2 9.5V4.5H1V9.5H2ZM4.5 12C3.11929 12 2 10.8807 2 9.5H1C1 11.433 2.567 13 4.5 13V12ZM41 9.5C41 10.8807 39.8807 12 38.5 12V13C40.433 13 42 11.433 42 9.5H41ZM38.5 2C39.8807 2 41 3.11929 41 4.5H42C42 2.567 40.433 1 38.5 1V2ZM4.5 1C2.567 1 1 2.567 1 4.5H2C2 3.11929 3.11929 2 4.5 2V1Z" fill="#979797"/>
</svg>
