<?xml version="1.0" encoding="utf-8"?>
<svg width="11px" height="22px" viewBox="0 0 11 22" version="1.1" xmlns:xlink="http://www.w3.org/1999/xlink" xmlns="http://www.w3.org/2000/svg">
  <desc>Created with Lunacy</desc>
  <defs>
    <path d="M1.999 0L7.001 0Q7.0992 0 7.19694 0.00962573Q7.29467 0.0192515 7.39099 0.0384102Q7.4873 0.057569 7.58128 0.0860763Q7.67525 0.114584 7.76598 0.152165Q7.85671 0.189746 7.94332 0.236039Q8.02993 0.282333 8.11158 0.336892Q8.19324 0.391452 8.26915 0.453752Q8.34506 0.516052 8.41451 0.585494Q8.48395 0.654935 8.54625 0.730848Q8.60855 0.806761 8.66311 0.888415Q8.71767 0.970069 8.76396 1.05668Q8.81025 1.14329 8.84783 1.23402Q8.88542 1.32474 8.91392 1.41872Q8.94243 1.5127 8.96159 1.60901Q8.98075 1.70533 8.99037 1.80306Q9 1.9008 9 1.999L9 7.001Q9 7.0992 8.99037 7.19694Q8.98075 7.29467 8.96159 7.39099Q8.94243 7.4873 8.91392 7.58128Q8.88542 7.67525 8.84783 7.76598Q8.81025 7.85671 8.76396 7.94332Q8.71767 8.02993 8.66311 8.11158Q8.60855 8.19324 8.54625 8.26915Q8.48395 8.34506 8.41451 8.41451Q8.34506 8.48395 8.26915 8.54625Q8.19324 8.60855 8.11158 8.66311Q8.02993 8.71767 7.94332 8.76396Q7.85671 8.81025 7.76598 8.84783Q7.67525 8.88542 7.58128 8.91392Q7.4873 8.94243 7.39098 8.96159Q7.29467 8.98075 7.19694 8.99037Q7.0992 9 7.001 9L1.999 9Q1.9008 9 1.80306 8.99037Q1.70533 8.98075 1.60901 8.96159Q1.5127 8.94243 1.41872 8.91392Q1.32474 8.88542 1.23402 8.84783Q1.14329 8.81025 1.05668 8.76396Q0.970069 8.71767 0.888415 8.66311Q0.806761 8.60855 0.730848 8.54625Q0.654935 8.48395 0.585494 8.41451Q0.516052 8.34506 0.453752 8.26915Q0.391452 8.19324 0.336892 8.11158Q0.282333 8.02993 0.236039 7.94332Q0.189746 7.85671 0.152165 7.76598Q0.114584 7.67525 0.0860763 7.58128Q0.057569 7.4873 0.0384102 7.39098Q0.0192515 7.29467 0.00962573 7.19694Q0 7.0992 0 7.001L0 1.999Q0 1.9008 0.00962573 1.80306Q0.0192515 1.70533 0.0384102 1.60901Q0.057569 1.5127 0.0860763 1.41872Q0.114584 1.32474 0.152165 1.23402Q0.189746 1.14329 0.236039 1.05668Q0.282333 0.970069 0.336892 0.888415Q0.391452 0.806761 0.453752 0.730848Q0.516052 0.654935 0.585494 0.585494Q0.654935 0.516052 0.730848 0.453752Q0.806761 0.391452 0.888415 0.336892Q0.970069 0.282333 1.05668 0.236039Q1.14329 0.189746 1.23402 0.152165Q1.32474 0.114584 1.41872 0.0860763Q1.5127 0.057569 1.60901 0.0384102Q1.70533 0.0192515 1.80306 0.00962573Q1.9008 0 1.999 0Z" id="path_1" />
    <rect width="11" height="22" id="artboard_1" />
    <clipPath id="clip_1">
      <use xlink:href="#artboard_1" clip-rule="evenodd" />
    </clipPath>
  </defs>
  <g id="bmp00177" clip-path="url(#clip_1)">
    <g id="MSEG-Edit-Off" transform="translate(1.0001221 1)">
      <g id="BG">
        <use xlink:href="#path_1" fill="none" stroke="#979797" stroke-width="2" />
        <use stroke="none" fill="#E3E3E3" xlink:href="#path_1" fill-rule="evenodd" />
      </g>
      <path d="M4.09127 2.38419e-06L0.5 3.5412L2.65476 5.66592L6.24603 2.12472L4.09127 2.38419e-06ZM2.03155 6.21478L0 4.21143L0 6.21478L2.03155 6.21478Z" transform="translate(1.5 1.2850037)" id="Pencil-Icon" fill="#000000" fill-rule="evenodd" stroke="none" />
    </g>
    <g id="MSEG-Edit-On" transform="translate(1.0001221 12)">
      <g id="BG">
        <use xlink:href="#path_1" fill="none" stroke="#979797" stroke-width="2" />
        <use stroke="none" fill="#E3E3E3" xlink:href="#path_1" fill-rule="evenodd" />
      </g>
      <path d="M0.999 0L6.001 0Q6.09939 0 6.19589 0.0191955Q6.2924 0.038391 6.3833 0.0760443Q6.4742 0.113698 6.55601 0.168362Q6.63782 0.223026 6.7074 0.2926Q6.77697 0.362175 6.83164 0.443985Q6.8863 0.525796 6.92395 0.616699Q6.96161 0.707602 6.9808 0.804105Q7 0.900607 7 0.999L7 6.001Q7 6.09939 6.9808 6.19589Q6.96161 6.2924 6.92395 6.3833Q6.8863 6.4742 6.83164 6.55601Q6.77697 6.63782 6.7074 6.7074Q6.63782 6.77697 6.55601 6.83164Q6.4742 6.8863 6.3833 6.92395Q6.2924 6.96161 6.19589 6.9808Q6.09939 7 6.001 7L0.999 7Q0.900607 7 0.804105 6.9808Q0.707602 6.96161 0.616699 6.92395Q0.525796 6.8863 0.443985 6.83164Q0.362175 6.77697 0.2926 6.7074Q0.223026 6.63782 0.168362 6.55601Q0.113698 6.4742 0.0760443 6.3833Q0.038391 6.2924 0.0191955 6.19589Q0 6.09939 0 6.001L0 0.999Q0 0.900607 0.0191955 0.804105Q0.038391 0.707602 0.0760443 0.616699Q0.113698 0.525796 0.168362 0.443985Q0.223026 0.362175 0.2926 0.2926Q0.362175 0.223026 0.443985 0.168362Q0.525796 0.113698 0.616699 0.0760443Q0.707602 0.038391 0.804105 0.0191955Q0.900607 0 0.999 0L0.999 0Z" transform="translate(0.9998779 1)" id="Fill" fill="#FF9000" fill-rule="evenodd" stroke="none" />
      <path d="M4.09127 2.38419e-06L0.5 3.5412L2.65476 5.66592L6.24603 2.12472L4.09127 2.38419e-06ZM2.03155 6.21478L0 4.21143L0 6.21478L2.03155 6.21478Z" transform="translate(1.5 1.2850037)" id="Pencil-Icon" fill="#000000" fill-rule="evenodd" stroke="none" />
    </g>
  </g>
</svg>