<svg width="135" height="108" viewBox="0 0 135 108" fill="none" xmlns="http://www.w3.org/2000/svg">
<path d="M0.5 3.5C0.5 1.84315 1.84315 0.5 3.5 0.5H131.5C133.157 0.5 134.5 1.84315 134.5 3.5V23.5C134.5 25.1569 133.157 26.5 131.5 26.5H3.5C1.84314 26.5 0.5 25.1569 0.5 23.5V3.5Z" fill="#E3E3E3"/>
<path d="M2 5C2 3.34315 3.34315 2 5 2H29.5C31.1569 2 32.5 3.34315 32.5 5V22C32.5 23.6569 31.1569 25 29.5 25H5C3.34315 25 2 23.6569 2 22V5Z" fill="#FF9300"/>
<path d="M17.7225 14.108C17.7225 14.532 17.6518 14.9253 17.5105 15.288C17.3718 15.648 17.1745 15.96 16.9185 16.224C16.6625 16.488 16.3545 16.6947 15.9945 16.844C15.6345 16.9907 15.2345 17.064 14.7945 17.064C14.3572 17.064 13.9585 16.9907 13.5985 16.844C13.2385 16.6947 12.9292 16.488 12.6705 16.224C12.4145 15.96 12.2158 15.648 12.0745 15.288C11.9332 14.9253 11.8625 14.532 11.8625 14.108C11.8625 13.684 11.9332 13.292 12.0745 12.932C12.2158 12.5693 12.4145 12.256 12.6705 11.992C12.9292 11.728 13.2385 11.5227 13.5985 11.376C13.9585 11.2267 14.3572 11.152 14.7945 11.152C15.0878 11.152 15.3638 11.1867 15.6225 11.256C15.8812 11.3227 16.1185 11.4187 16.3345 11.544C16.5505 11.6667 16.7438 11.8173 16.9145 11.996C17.0878 12.172 17.2345 12.3693 17.3545 12.588C17.4745 12.8067 17.5652 13.044 17.6265 13.3C17.6905 13.556 17.7225 13.8253 17.7225 14.108ZM16.6225 14.108C16.6225 13.7907 16.5798 13.5067 16.4945 13.256C16.4092 13.0027 16.2878 12.788 16.1305 12.612C15.9732 12.436 15.7812 12.3013 15.5545 12.208C15.3305 12.1147 15.0772 12.068 14.7945 12.068C14.5118 12.068 14.2572 12.1147 14.0305 12.208C13.8065 12.3013 13.6145 12.436 13.4545 12.612C13.2972 12.788 13.1758 13.0027 13.0905 13.256C13.0052 13.5067 12.9625 13.7907 12.9625 14.108C12.9625 14.4253 13.0052 14.7107 13.0905 14.964C13.1758 15.2147 13.2972 15.428 13.4545 15.604C13.6145 15.7773 13.8065 15.9107 14.0305 16.004C14.2572 16.0973 14.5118 16.144 14.7945 16.144C15.0772 16.144 15.3305 16.0973 15.5545 16.004C15.7812 15.9107 15.9732 15.7773 16.1305 15.604C16.2878 15.428 16.4092 15.2147 16.4945 14.964C16.5798 14.7107 16.6225 14.4253 16.6225 14.108ZM18.7526 17V13.64L18.3966 13.584C18.3192 13.568 18.2566 13.5413 18.2086 13.504C18.1632 13.464 18.1406 13.408 18.1406 13.336V12.932H18.7526V12.7C18.7526 12.4653 18.7872 12.2547 18.8566 12.068C18.9286 11.8813 19.0299 11.7227 19.1606 11.592C19.2939 11.4613 19.4552 11.3613 19.6446 11.292C19.8339 11.2227 20.0472 11.188 20.2846 11.188C20.4739 11.188 20.6499 11.2133 20.8126 11.264L20.7926 11.756C20.7899 11.7933 20.7792 11.824 20.7606 11.848C20.7419 11.872 20.7166 11.8907 20.6846 11.904C20.6552 11.9147 20.6206 11.9227 20.5806 11.928C20.5406 11.9307 20.4979 11.932 20.4526 11.932C20.3352 11.932 20.2299 11.9453 20.1366 11.972C20.0459 11.996 19.9686 12.04 19.9046 12.104C19.8406 12.1653 19.7912 12.248 19.7566 12.352C19.7246 12.4533 19.7086 12.58 19.7086 12.732V12.932H21.3446V12.568C21.3446 12.3333 21.3792 12.1227 21.4486 11.936C21.5206 11.7493 21.6219 11.5907 21.7526 11.46C21.8859 11.3293 22.0472 11.2293 22.2366 11.16C22.4259 11.0907 22.6392 11.056 22.8766 11.056C22.9699 11.056 23.0592 11.0627 23.1446 11.076C23.2326 11.0867 23.3192 11.104 23.4046 11.128L23.3806 11.624C23.3752 11.7013 23.3392 11.7507 23.2726 11.772C23.2086 11.7907 23.1326 11.8 23.0446 11.8C22.9272 11.8 22.8219 11.8133 22.7286 11.84C22.6379 11.864 22.5606 11.908 22.4966 11.972C22.4326 12.0333 22.3832 12.116 22.3486 12.22C22.3166 12.3213 22.3006 12.448 22.3006 12.6V12.932H23.3646V13.636H22.3326V17H21.3446V13.636H19.7406V17H18.7526Z" fill="black"/>
<g opacity="0.75">
<rect x="33.5" y="25" width="23" height="1" transform="rotate(-90 33.5 25)" fill="#979797"/>
</g>
<path d="M45.8724 12.268C45.8404 12.324 45.8058 12.3653 45.7684 12.392C45.7338 12.416 45.6898 12.428 45.6364 12.428C45.5804 12.428 45.5191 12.408 45.4524 12.368C45.3884 12.3253 45.3111 12.2787 45.2204 12.228C45.1298 12.1773 45.0231 12.132 44.9004 12.092C44.7804 12.0493 44.6378 12.028 44.4724 12.028C44.3231 12.028 44.1924 12.0467 44.0804 12.084C43.9684 12.1187 43.8738 12.168 43.7964 12.232C43.7218 12.296 43.6658 12.3733 43.6284 12.464C43.5911 12.552 43.5724 12.6493 43.5724 12.756C43.5724 12.892 43.6098 13.0053 43.6844 13.096C43.7618 13.1867 43.8631 13.264 43.9884 13.328C44.1138 13.392 44.2564 13.4493 44.4164 13.5C44.5764 13.5507 44.7404 13.6053 44.9084 13.664C45.0764 13.72 45.2404 13.7867 45.4004 13.864C45.5604 13.9387 45.7031 14.0347 45.8284 14.152C45.9538 14.2667 46.0538 14.408 46.1284 14.576C46.2058 14.744 46.2444 14.948 46.2444 15.188C46.2444 15.4493 46.1991 15.6947 46.1084 15.924C46.0204 16.1507 45.8898 16.3493 45.7164 16.52C45.5458 16.688 45.3364 16.8213 45.0884 16.92C44.8404 17.016 44.5564 17.064 44.2364 17.064C44.0524 17.064 43.8711 17.0453 43.6924 17.008C43.5138 16.9733 43.3418 16.9227 43.1764 16.856C43.0138 16.7893 42.8604 16.7093 42.7164 16.616C42.5724 16.5227 42.4444 16.4187 42.3324 16.304L42.6484 15.788C42.6751 15.7507 42.7098 15.72 42.7524 15.696C42.7951 15.6693 42.8404 15.656 42.8884 15.656C42.9551 15.656 43.0271 15.684 43.1044 15.74C43.1818 15.7933 43.2738 15.8533 43.3804 15.92C43.4871 15.9867 43.6111 16.048 43.7524 16.104C43.8964 16.1573 44.0684 16.184 44.2684 16.184C44.5751 16.184 44.8124 16.112 44.9804 15.968C45.1484 15.8213 45.2324 15.612 45.2324 15.34C45.2324 15.188 45.1938 15.064 45.1164 14.968C45.0418 14.872 44.9418 14.792 44.8164 14.728C44.6911 14.6613 44.5484 14.6053 44.3884 14.56C44.2284 14.5147 44.0658 14.4653 43.9004 14.412C43.7351 14.3587 43.5724 14.2947 43.4124 14.22C43.2524 14.1453 43.1098 14.048 42.9844 13.928C42.8591 13.808 42.7578 13.6587 42.6804 13.48C42.6058 13.2987 42.5684 13.076 42.5684 12.812C42.5684 12.6013 42.6098 12.396 42.6924 12.196C42.7778 11.996 42.9004 11.8187 43.0604 11.664C43.2204 11.5093 43.4178 11.3853 43.6524 11.292C43.8871 11.1987 44.1564 11.152 44.4604 11.152C44.8018 11.152 45.1164 11.2053 45.4044 11.312C45.6924 11.4187 45.9378 11.568 46.1404 11.76L45.8724 12.268ZM49.6554 14.476C49.6554 14.348 49.6368 14.228 49.5994 14.116C49.5648 14.0013 49.5114 13.9013 49.4394 13.816C49.3674 13.7307 49.2754 13.664 49.1634 13.616C49.0541 13.5653 48.9261 13.54 48.7794 13.54C48.4941 13.54 48.2688 13.6213 48.1034 13.784C47.9408 13.9467 47.8368 14.1773 47.7914 14.476H49.6554ZM47.7714 15.072C47.7874 15.2827 47.8248 15.4653 47.8834 15.62C47.9421 15.772 48.0194 15.8987 48.1154 16C48.2114 16.0987 48.3248 16.1733 48.4554 16.224C48.5888 16.272 48.7354 16.296 48.8954 16.296C49.0554 16.296 49.1928 16.2773 49.3074 16.24C49.4248 16.2027 49.5261 16.1613 49.6114 16.116C49.6994 16.0707 49.7754 16.0293 49.8394 15.992C49.9061 15.9547 49.9701 15.936 50.0314 15.936C50.1141 15.936 50.1754 15.9667 50.2154 16.028L50.4994 16.388C50.3901 16.516 50.2674 16.624 50.1314 16.712C49.9954 16.7973 49.8528 16.8667 49.7034 16.92C49.5568 16.9707 49.4061 17.0067 49.2514 17.028C49.0994 17.0493 48.9514 17.06 48.8074 17.06C48.5221 17.06 48.2568 17.0133 48.0114 16.92C47.7661 16.824 47.5528 16.684 47.3714 16.5C47.1901 16.3133 47.0474 16.084 46.9434 15.812C46.8394 15.5373 46.7874 15.22 46.7874 14.86C46.7874 14.58 46.8328 14.3173 46.9234 14.072C47.0141 13.824 47.1434 13.6093 47.3114 13.428C47.4821 13.244 47.6888 13.0987 47.9314 12.992C48.1768 12.8853 48.4528 12.832 48.7594 12.832C49.0181 12.832 49.2568 12.8733 49.4754 12.956C49.6941 13.0387 49.8821 13.16 50.0394 13.32C50.1968 13.4773 50.3194 13.672 50.4074 13.904C50.4981 14.1333 50.5434 14.396 50.5434 14.692C50.5434 14.8413 50.5274 14.9427 50.4954 14.996C50.4634 15.0467 50.4021 15.072 50.3114 15.072H47.7714ZM52.2089 13.4C52.2915 13.3173 52.3782 13.2413 52.4689 13.172C52.5622 13.1 52.6595 13.04 52.7609 12.992C52.8649 12.9413 52.9755 12.9027 53.0929 12.876C53.2102 12.8467 53.3382 12.832 53.4769 12.832C53.7009 12.832 53.8995 12.8707 54.0729 12.948C54.2462 13.0227 54.3902 13.1293 54.5049 13.268C54.6222 13.404 54.7102 13.568 54.7689 13.76C54.8302 13.9493 54.8609 14.1587 54.8609 14.388V17H53.8729V14.388C53.8729 14.1373 53.8155 13.944 53.7009 13.808C53.5862 13.6693 53.4115 13.6 53.1769 13.6C53.0062 13.6 52.8462 13.6387 52.6969 13.716C52.5475 13.7933 52.4062 13.8987 52.2729 14.032V17H51.2849V12.896H51.8889C52.0169 12.896 52.1009 12.956 52.1409 13.076L52.2089 13.4ZM58.3765 13.944C58.2645 13.808 58.1418 13.712 58.0085 13.656C57.8778 13.6 57.7365 13.572 57.5845 13.572C57.4352 13.572 57.3005 13.6 57.1805 13.656C57.0605 13.712 56.9578 13.7973 56.8725 13.912C56.7872 14.024 56.7218 14.168 56.6765 14.344C56.6312 14.5173 56.6085 14.7227 56.6085 14.96C56.6085 15.2 56.6272 15.404 56.6645 15.572C56.7045 15.7373 56.7605 15.8733 56.8325 15.98C56.9045 16.084 56.9925 16.16 57.0965 16.208C57.2005 16.2533 57.3165 16.276 57.4445 16.276C57.6498 16.276 57.8245 16.2333 57.9685 16.148C58.1125 16.0627 58.2485 15.9413 58.3765 15.784V13.944ZM59.3645 11.056V17H58.7605C58.6298 17 58.5472 16.94 58.5125 16.82L58.4285 16.424C58.2632 16.6133 58.0725 16.7667 57.8565 16.884C57.6432 17.0013 57.3938 17.06 57.1085 17.06C56.8845 17.06 56.6792 17.0133 56.4925 16.92C56.3058 16.8267 56.1445 16.692 56.0085 16.516C55.8752 16.3373 55.7712 16.1173 55.6965 15.856C55.6245 15.5947 55.5885 15.296 55.5885 14.96C55.5885 14.656 55.6298 14.3733 55.7125 14.112C55.7952 13.8507 55.9138 13.624 56.0685 13.432C56.2232 13.24 56.4085 13.0907 56.6245 12.984C56.8405 12.8747 57.0832 12.82 57.3525 12.82C57.5818 12.82 57.7778 12.856 57.9405 12.928C58.1032 13 58.2485 13.0973 58.3765 13.22V11.056H59.3645Z" fill="black"/>
<g opacity="0.75">
<rect x="67" y="25" width="23" height="1" transform="rotate(-90 67 25)" fill="#979797"/>
</g>
<path d="M75.5053 7.268C75.4733 7.324 75.4386 7.36533 75.4013 7.392C75.3666 7.416 75.3226 7.428 75.2693 7.428C75.2133 7.428 75.1519 7.408 75.0853 7.368C75.0213 7.32533 74.9439 7.27867 74.8533 7.228C74.7626 7.17733 74.6559 7.132 74.5333 7.092C74.4133 7.04933 74.2706 7.028 74.1053 7.028C73.9559 7.028 73.8253 7.04667 73.7133 7.084C73.6013 7.11867 73.5066 7.168 73.4293 7.232C73.3546 7.296 73.2986 7.37333 73.2613 7.464C73.2239 7.552 73.2053 7.64933 73.2053 7.756C73.2053 7.892 73.2426 8.00533 73.3173 8.096C73.3946 8.18667 73.4959 8.264 73.6213 8.328C73.7466 8.392 73.8893 8.44933 74.0493 8.5C74.2093 8.55067 74.3733 8.60533 74.5413 8.664C74.7093 8.72 74.8733 8.78667 75.0333 8.864C75.1933 8.93867 75.3359 9.03467 75.4613 9.152C75.5866 9.26667 75.6866 9.408 75.7613 9.576C75.8386 9.744 75.8773 9.948 75.8773 10.188C75.8773 10.4493 75.8319 10.6947 75.7413 10.924C75.6533 11.1507 75.5226 11.3493 75.3493 11.52C75.1786 11.688 74.9693 11.8213 74.7213 11.92C74.4733 12.016 74.1893 12.064 73.8693 12.064C73.6853 12.064 73.5039 12.0453 73.3253 12.008C73.1466 11.9733 72.9746 11.9227 72.8092 11.856C72.6466 11.7893 72.4933 11.7093 72.3493 11.616C72.2053 11.5227 72.0773 11.4187 71.9653 11.304L72.2812 10.788C72.3079 10.7507 72.3426 10.72 72.3853 10.696C72.4279 10.6693 72.4733 10.656 72.5213 10.656C72.5879 10.656 72.6599 10.684 72.7373 10.74C72.8146 10.7933 72.9066 10.8533 73.0133 10.92C73.1199 10.9867 73.2439 11.048 73.3853 11.104C73.5293 11.1573 73.7013 11.184 73.9013 11.184C74.2079 11.184 74.4453 11.112 74.6133 10.968C74.7813 10.8213 74.8653 10.612 74.8653 10.34C74.8653 10.188 74.8266 10.064 74.7493 9.968C74.6746 9.872 74.5746 9.792 74.4493 9.728C74.3239 9.66133 74.1813 9.60533 74.0213 9.56C73.8613 9.51467 73.6986 9.46533 73.5333 9.412C73.3679 9.35867 73.2053 9.29467 73.0453 9.22C72.8853 9.14533 72.7426 9.048 72.6173 8.928C72.4919 8.808 72.3906 8.65867 72.3133 8.48C72.2386 8.29867 72.2013 8.076 72.2013 7.812C72.2013 7.60133 72.2426 7.396 72.3253 7.196C72.4106 6.996 72.5333 6.81867 72.6933 6.664C72.8533 6.50933 73.0506 6.38533 73.2853 6.292C73.5199 6.19867 73.7893 6.152 74.0933 6.152C74.4346 6.152 74.7493 6.20533 75.0373 6.312C75.3253 6.41867 75.5706 6.568 75.7733 6.76L75.5053 7.268ZM79.2883 9.476C79.2883 9.348 79.2696 9.228 79.2323 9.116C79.1976 9.00133 79.1443 8.90133 79.0723 8.816C79.0003 8.73067 78.9083 8.664 78.7963 8.616C78.6869 8.56533 78.5589 8.54 78.4123 8.54C78.1269 8.54 77.9016 8.62133 77.7363 8.784C77.5736 8.94667 77.4696 9.17733 77.4243 9.476H79.2883ZM77.4043 10.072C77.4203 10.2827 77.4576 10.4653 77.5163 10.62C77.5749 10.772 77.6523 10.8987 77.7483 11C77.8443 11.0987 77.9576 11.1733 78.0883 11.224C78.2216 11.272 78.3683 11.296 78.5283 11.296C78.6883 11.296 78.8256 11.2773 78.9403 11.24C79.0576 11.2027 79.1589 11.1613 79.2443 11.116C79.3323 11.0707 79.4083 11.0293 79.4723 10.992C79.5389 10.9547 79.6029 10.936 79.6643 10.936C79.7469 10.936 79.8083 10.9667 79.8483 11.028L80.1323 11.388C80.0229 11.516 79.9003 11.624 79.7643 11.712C79.6283 11.7973 79.4856 11.8667 79.3363 11.92C79.1896 11.9707 79.0389 12.0067 78.8843 12.028C78.7323 12.0493 78.5843 12.06 78.4403 12.06C78.1549 12.06 77.8896 12.0133 77.6443 11.92C77.3989 11.824 77.1856 11.684 77.0043 11.5C76.8229 11.3133 76.6803 11.084 76.5763 10.812C76.4723 10.5373 76.4202 10.22 76.4202 9.86C76.4202 9.58 76.4656 9.31733 76.5563 9.072C76.6469 8.824 76.7763 8.60933 76.9443 8.428C77.1149 8.244 77.3216 8.09867 77.5643 7.992C77.8096 7.88533 78.0856 7.832 78.3923 7.832C78.6509 7.832 78.8896 7.87333 79.1083 7.956C79.3269 8.03867 79.5149 8.16 79.6723 8.32C79.8296 8.47733 79.9523 8.672 80.0403 8.904C80.1309 9.13333 80.1762 9.396 80.1762 9.692C80.1762 9.84133 80.1603 9.94267 80.1283 9.996C80.0963 10.0467 80.0349 10.072 79.9443 10.072H77.4043ZM81.8417 8.4C81.9244 8.31733 82.011 8.24133 82.1017 8.172C82.195 8.1 82.2924 8.04 82.3937 7.992C82.4977 7.94133 82.6084 7.90267 82.7257 7.876C82.843 7.84667 82.971 7.832 83.1097 7.832C83.3337 7.832 83.5324 7.87067 83.7057 7.948C83.879 8.02267 84.023 8.12933 84.1377 8.268C84.255 8.404 84.343 8.568 84.4017 8.76C84.463 8.94933 84.4937 9.15867 84.4937 9.388V12H83.5057V9.388C83.5057 9.13733 83.4484 8.944 83.3337 8.808C83.219 8.66933 83.0444 8.6 82.8097 8.6C82.639 8.6 82.479 8.63867 82.3297 8.716C82.1804 8.79333 82.039 8.89867 81.9057 9.032V12H80.9177V7.896H81.5217C81.6497 7.896 81.7337 7.956 81.7737 8.076L81.8417 8.4ZM88.0093 8.944C87.8973 8.808 87.7746 8.712 87.6413 8.656C87.5106 8.6 87.3693 8.572 87.2173 8.572C87.068 8.572 86.9333 8.6 86.8133 8.656C86.6933 8.712 86.5906 8.79733 86.5053 8.912C86.42 9.024 86.3546 9.168 86.3093 9.344C86.264 9.51733 86.2413 9.72267 86.2413 9.96C86.2413 10.2 86.26 10.404 86.2973 10.572C86.3373 10.7373 86.3933 10.8733 86.4653 10.98C86.5373 11.084 86.6253 11.16 86.7293 11.208C86.8333 11.2533 86.9493 11.276 87.0773 11.276C87.2826 11.276 87.4573 11.2333 87.6013 11.148C87.7453 11.0627 87.8813 10.9413 88.0093 10.784V8.944ZM88.9973 6.056V12H88.3933C88.2626 12 88.18 11.94 88.1453 11.82L88.0613 11.424C87.896 11.6133 87.7053 11.7667 87.4893 11.884C87.276 12.0013 87.0266 12.06 86.7413 12.06C86.5173 12.06 86.312 12.0133 86.1253 11.92C85.9386 11.8267 85.7773 11.692 85.6413 11.516C85.508 11.3373 85.404 11.1173 85.3293 10.856C85.2573 10.5947 85.2213 10.296 85.2213 9.96C85.2213 9.656 85.2626 9.37333 85.3453 9.112C85.428 8.85067 85.5466 8.624 85.7013 8.432C85.856 8.24 86.0413 8.09067 86.2573 7.984C86.4733 7.87467 86.716 7.82 86.9853 7.82C87.2146 7.82 87.4106 7.856 87.5733 7.928C87.736 8 87.8813 8.09733 88.0093 8.22V6.056H88.9973ZM93.3417 9.296C93.1284 9.43467 92.9724 9.592 92.8737 9.768C92.7777 9.94133 92.7297 10.128 92.7297 10.328C92.7297 10.4747 92.755 10.6067 92.8057 10.724C92.8564 10.8413 92.9244 10.9413 93.0097 11.024C93.0977 11.104 93.199 11.1667 93.3137 11.212C93.431 11.2547 93.555 11.276 93.6857 11.276C93.9204 11.276 94.135 11.24 94.3297 11.168C94.5244 11.0933 94.7004 10.9907 94.8577 10.86L93.3417 9.296ZM97.1937 12H96.2257C96.1244 12 96.0417 11.988 95.9777 11.964C95.9164 11.94 95.851 11.8893 95.7817 11.812L95.3817 11.4C95.1284 11.608 94.8444 11.7707 94.5297 11.888C94.215 12.0053 93.875 12.064 93.5097 12.064C93.2884 12.064 93.0697 12.0267 92.8537 11.952C92.6404 11.8747 92.4497 11.764 92.2817 11.62C92.1137 11.476 91.9777 11.3027 91.8737 11.1C91.7724 10.8947 91.7217 10.664 91.7217 10.408C91.7217 10.2267 91.751 10.056 91.8097 9.896C91.8684 9.73333 91.9497 9.58267 92.0537 9.444C92.1577 9.30533 92.2817 9.18133 92.4257 9.072C92.5697 8.96 92.727 8.864 92.8977 8.784C92.7537 8.584 92.6497 8.38933 92.5857 8.2C92.5217 8.008 92.4897 7.81733 92.4897 7.628C92.4897 7.428 92.5257 7.23867 92.5977 7.06C92.6724 6.87867 92.779 6.72133 92.9177 6.588C93.0564 6.45467 93.227 6.34933 93.4297 6.272C93.6324 6.192 93.8617 6.152 94.1177 6.152C94.3524 6.152 94.5617 6.188 94.7457 6.26C94.9324 6.332 95.091 6.428 95.2217 6.548C95.355 6.668 95.459 6.80533 95.5337 6.96C95.611 7.11467 95.6564 7.27467 95.6697 7.44L95.0417 7.572C94.9244 7.596 94.839 7.54533 94.7857 7.42C94.7617 7.35067 94.7297 7.28533 94.6897 7.224C94.6524 7.16 94.607 7.10533 94.5537 7.06C94.5004 7.012 94.4377 6.97467 94.3657 6.948C94.2937 6.91867 94.211 6.904 94.1177 6.904C94.0057 6.904 93.9057 6.924 93.8177 6.964C93.7297 7.00133 93.655 7.05333 93.5937 7.12C93.535 7.184 93.4897 7.26 93.4577 7.348C93.4257 7.43333 93.4097 7.524 93.4097 7.62C93.4097 7.7 93.4177 7.77733 93.4337 7.852C93.4497 7.92667 93.4764 8.00133 93.5137 8.076C93.551 8.15067 93.599 8.228 93.6577 8.308C93.719 8.38533 93.7937 8.46933 93.8817 8.56L95.4177 10.156C95.5057 9.988 95.5764 9.81067 95.6297 9.624C95.683 9.43733 95.7177 9.248 95.7337 9.056C95.7417 8.99467 95.763 8.94533 95.7977 8.908C95.8324 8.87067 95.8804 8.852 95.9417 8.852H96.5577C96.555 9.204 96.5044 9.54 96.4057 9.86C96.307 10.18 96.1657 10.4747 95.9817 10.744L97.1937 12ZM78.4354 19.1V21.44C78.1421 21.656 77.8288 21.8147 77.4954 21.916C77.1648 22.0147 76.8101 22.064 76.4314 22.064C75.9594 22.064 75.5314 21.9907 75.1474 21.844C74.7661 21.6973 74.4394 21.4933 74.1674 21.232C73.8981 20.9707 73.6901 20.6587 73.5434 20.296C73.3968 19.9333 73.3234 19.5373 73.3234 19.108C73.3234 18.6733 73.3941 18.2747 73.5354 17.912C73.6768 17.5493 73.8768 17.2373 74.1354 16.976C74.3968 16.7147 74.7128 16.512 75.0834 16.368C75.4541 16.224 75.8701 16.152 76.3314 16.152C76.5661 16.152 76.7848 16.1707 76.9874 16.208C77.1928 16.2453 77.3821 16.2973 77.5554 16.364C77.7314 16.428 77.8914 16.5067 78.0354 16.6C78.1794 16.6933 78.3114 16.796 78.4314 16.908L78.1234 17.396C78.0754 17.4733 78.0128 17.5213 77.9354 17.54C77.8581 17.556 77.7741 17.536 77.6834 17.48C77.5954 17.4293 77.5074 17.3787 77.4194 17.328C77.3314 17.2773 77.2328 17.2333 77.1234 17.196C77.0168 17.1587 76.8954 17.128 76.7594 17.104C76.6261 17.08 76.4714 17.068 76.2954 17.068C76.0101 17.068 75.7514 17.116 75.5194 17.212C75.2901 17.308 75.0941 17.4453 74.9314 17.624C74.7688 17.8027 74.6434 18.0173 74.5554 18.268C74.4674 18.5187 74.4234 18.7987 74.4234 19.108C74.4234 19.4387 74.4701 19.7347 74.5634 19.996C74.6594 20.2547 74.7928 20.4747 74.9634 20.656C75.1368 20.8347 75.3448 20.972 75.5874 21.068C75.8301 21.1613 76.1008 21.208 76.3994 21.208C76.6128 21.208 76.8034 21.1853 76.9714 21.14C77.1394 21.0947 77.3034 21.0333 77.4634 20.956V19.908H76.7354C76.6661 19.908 76.6114 19.8893 76.5714 19.852C76.5341 19.812 76.5154 19.764 76.5154 19.708V19.1H78.4354ZM80.3005 16.056V22H79.3125V16.056H80.3005ZM83.1009 17.832C83.4049 17.832 83.6809 17.8813 83.9289 17.98C84.1795 18.0787 84.3929 18.2187 84.5689 18.4C84.7475 18.5813 84.8849 18.8027 84.9809 19.064C85.0769 19.3253 85.1249 19.6173 85.1249 19.94C85.1249 20.2653 85.0769 20.5587 84.9809 20.82C84.8849 21.0813 84.7475 21.304 84.5689 21.488C84.3929 21.672 84.1795 21.8133 83.9289 21.912C83.6809 22.0107 83.4049 22.06 83.1009 22.06C82.7942 22.06 82.5155 22.0107 82.2649 21.912C82.0142 21.8133 81.7995 21.672 81.6209 21.488C81.4449 21.304 81.3075 21.0813 81.2089 20.82C81.1129 20.5587 81.0649 20.2653 81.0649 19.94C81.0649 19.6173 81.1129 19.3253 81.2089 19.064C81.3075 18.8027 81.4449 18.5813 81.6209 18.4C81.7995 18.2187 82.0142 18.0787 82.2649 17.98C82.5155 17.8813 82.7942 17.832 83.1009 17.832ZM83.1009 21.3C83.4422 21.3 83.6942 21.1853 83.8569 20.956C84.0222 20.7267 84.1049 20.3907 84.1049 19.948C84.1049 19.5053 84.0222 19.168 83.8569 18.936C83.6942 18.704 83.4422 18.588 83.1009 18.588C82.7542 18.588 82.4969 18.7053 82.3289 18.94C82.1635 19.172 82.0809 19.508 82.0809 19.948C82.0809 20.388 82.1635 20.724 82.3289 20.956C82.4969 21.1853 82.7542 21.3 83.1009 21.3ZM86.8666 20.936C86.9786 21.072 87.1 21.168 87.2306 21.224C87.364 21.28 87.504 21.308 87.6506 21.308C87.8026 21.308 87.9386 21.2813 88.0586 21.228C88.1813 21.172 88.2853 21.0867 88.3706 20.972C88.456 20.8547 88.5213 20.7067 88.5666 20.528C88.612 20.3467 88.6346 20.1307 88.6346 19.88C88.6346 19.4293 88.56 19.104 88.4106 18.904C88.2613 18.7013 88.0466 18.6 87.7666 18.6C87.5773 18.6 87.412 18.644 87.2706 18.732C87.1293 18.8173 86.9946 18.9387 86.8666 19.096V20.936ZM86.8666 18.4C87.032 18.2267 87.2146 18.0893 87.4146 17.988C87.6173 17.884 87.848 17.832 88.1066 17.832C88.344 17.832 88.5573 17.8787 88.7466 17.972C88.9386 18.0653 89.1013 18.2 89.2346 18.376C89.3706 18.5493 89.4746 18.76 89.5466 19.008C89.6186 19.256 89.6546 19.5347 89.6546 19.844C89.6546 20.1773 89.6133 20.48 89.5306 20.752C89.448 21.024 89.3293 21.2573 89.1746 21.452C89.0226 21.644 88.8386 21.7933 88.6226 21.9C88.4066 22.0067 88.1666 22.06 87.9026 22.06C87.7746 22.06 87.6586 22.0467 87.5546 22.02C87.4506 21.996 87.3546 21.9613 87.2666 21.916C87.1786 21.8707 87.0973 21.816 87.0226 21.752C86.9506 21.6853 86.8813 21.612 86.8146 21.532L86.7706 21.808C86.7546 21.8773 86.7266 21.9267 86.6866 21.956C86.6493 21.9853 86.5973 22 86.5306 22H85.8786V16.056H86.8666V18.4ZM92.5857 20.248C92.3004 20.2613 92.0604 20.2867 91.8657 20.324C91.671 20.3587 91.515 20.404 91.3977 20.46C91.2804 20.516 91.1964 20.5813 91.1457 20.656C91.095 20.7307 91.0697 20.812 91.0697 20.9C91.0697 21.0733 91.1204 21.1973 91.2217 21.272C91.3257 21.3467 91.4604 21.384 91.6257 21.384C91.8284 21.384 92.003 21.348 92.1497 21.276C92.299 21.2013 92.4444 21.0893 92.5857 20.94V20.248ZM90.3217 18.468C90.7937 18.036 91.3617 17.82 92.0257 17.82C92.2657 17.82 92.4804 17.86 92.6697 17.94C92.859 18.0173 93.019 18.1267 93.1497 18.268C93.2804 18.4067 93.379 18.5733 93.4457 18.768C93.515 18.9627 93.5497 19.176 93.5497 19.408V22H93.1017C93.0084 22 92.9364 21.9867 92.8857 21.96C92.835 21.9307 92.795 21.8733 92.7657 21.788L92.6777 21.492C92.5737 21.5853 92.4724 21.668 92.3737 21.74C92.275 21.8093 92.1724 21.868 92.0657 21.916C91.959 21.964 91.8444 22 91.7217 22.024C91.6017 22.0507 91.4684 22.064 91.3217 22.064C91.1484 22.064 90.9884 22.0413 90.8417 21.996C90.695 21.948 90.5684 21.8773 90.4617 21.784C90.355 21.6907 90.2724 21.5747 90.2137 21.436C90.155 21.2973 90.1257 21.136 90.1257 20.952C90.1257 20.848 90.143 20.7453 90.1777 20.644C90.2124 20.54 90.2684 20.4413 90.3457 20.348C90.4257 20.2547 90.5284 20.1667 90.6537 20.084C90.779 20.0013 90.9324 19.9293 91.1137 19.868C91.2977 19.8067 91.511 19.7573 91.7537 19.72C91.9964 19.68 92.2737 19.656 92.5857 19.648V19.408C92.5857 19.1333 92.527 18.9307 92.4097 18.8C92.2924 18.6667 92.123 18.6 91.9017 18.6C91.7417 18.6 91.6084 18.6187 91.5017 18.656C91.3977 18.6933 91.3057 18.736 91.2257 18.784C91.1457 18.8293 91.0724 18.8707 91.0057 18.908C90.9417 18.9453 90.8697 18.964 90.7897 18.964C90.7204 18.964 90.6617 18.9467 90.6137 18.912C90.5657 18.8747 90.527 18.832 90.4977 18.784L90.3217 18.468ZM95.4802 16.056V22H94.4922V16.056H95.4802Z" fill="black"/>
<path opacity="0.5" d="M101.5 2H100.5V25H101.5V2Z" fill="#979797"/>
<path d="M116.942 14.816L116.238 12.892C116.204 12.8067 116.168 12.7053 116.13 12.588C116.093 12.4707 116.056 12.344 116.018 12.208C115.984 12.344 115.948 12.472 115.91 12.592C115.873 12.7093 115.837 12.812 115.802 12.9L115.102 14.816H116.942ZM118.842 17H118.01C117.917 17 117.841 16.9773 117.782 16.932C117.724 16.884 117.68 16.8253 117.65 16.756L117.218 15.576H114.822L114.39 16.756C114.369 16.8173 114.328 16.8733 114.266 16.924C114.205 16.9747 114.129 17 114.038 17H113.198L115.474 11.216H116.57L118.842 17ZM120.277 11.056V17H119.289V11.056H120.277ZM122.261 11.056V17H121.273V11.056H122.261Z" fill="black"/>
<path d="M3.5 1H131.5V0H3.5V1ZM134 3.5V23.5H135V3.5H134ZM131.5 26H3.5V27H131.5V26ZM1 23.5V3.5H0V23.5H1ZM3.5 26C2.11929 26 1 24.8807 1 23.5H0C0 25.433 1.567 27 3.5 27V26ZM134 23.5C134 24.8807 132.881 26 131.5 26V27C133.433 27 135 25.433 135 23.5H134ZM131.5 1C132.881 1 134 2.11929 134 3.5H135C135 1.567 133.433 0 131.5 0V1ZM3.5 0C1.567 0 0 1.567 0 3.5H1C1 2.11929 2.11929 1 3.5 1V0Z" fill="#979797"/>
<path d="M0.5 30.5C0.5 28.8431 1.84315 27.5 3.5 27.5H131.5C133.157 27.5 134.5 28.8431 134.5 30.5V50.5C134.5 52.1569 133.157 53.5 131.5 53.5H3.5C1.84314 53.5 0.5 52.1569 0.5 50.5V30.5Z" fill="#E3E3E3"/>
<path d="M17.7225 41.108C17.7225 41.532 17.6518 41.9253 17.5105 42.288C17.3718 42.648 17.1745 42.96 16.9185 43.224C16.6625 43.488 16.3545 43.6947 15.9945 43.844C15.6345 43.9907 15.2345 44.064 14.7945 44.064C14.3572 44.064 13.9585 43.9907 13.5985 43.844C13.2385 43.6947 12.9292 43.488 12.6705 43.224C12.4145 42.96 12.2158 42.648 12.0745 42.288C11.9332 41.9253 11.8625 41.532 11.8625 41.108C11.8625 40.684 11.9332 40.292 12.0745 39.932C12.2158 39.5693 12.4145 39.256 12.6705 38.992C12.9292 38.728 13.2385 38.5227 13.5985 38.376C13.9585 38.2267 14.3572 38.152 14.7945 38.152C15.0878 38.152 15.3638 38.1867 15.6225 38.256C15.8812 38.3227 16.1185 38.4187 16.3345 38.544C16.5505 38.6667 16.7438 38.8173 16.9145 38.996C17.0878 39.172 17.2345 39.3693 17.3545 39.588C17.4745 39.8067 17.5652 40.044 17.6265 40.3C17.6905 40.556 17.7225 40.8253 17.7225 41.108ZM16.6225 41.108C16.6225 40.7907 16.5798 40.5067 16.4945 40.256C16.4092 40.0027 16.2878 39.788 16.1305 39.612C15.9732 39.436 15.7812 39.3013 15.5545 39.208C15.3305 39.1147 15.0772 39.068 14.7945 39.068C14.5118 39.068 14.2572 39.1147 14.0305 39.208C13.8065 39.3013 13.6145 39.436 13.4545 39.612C13.2972 39.788 13.1758 40.0027 13.0905 40.256C13.0052 40.5067 12.9625 40.7907 12.9625 41.108C12.9625 41.4253 13.0052 41.7107 13.0905 41.964C13.1758 42.2147 13.2972 42.428 13.4545 42.604C13.6145 42.7773 13.8065 42.9107 14.0305 43.004C14.2572 43.0973 14.5118 43.144 14.7945 43.144C15.0772 43.144 15.3305 43.0973 15.5545 43.004C15.7812 42.9107 15.9732 42.7773 16.1305 42.604C16.2878 42.428 16.4092 42.2147 16.4945 41.964C16.5798 41.7107 16.6225 41.4253 16.6225 41.108ZM18.7526 44V40.64L18.3966 40.584C18.3192 40.568 18.2566 40.5413 18.2086 40.504C18.1632 40.464 18.1406 40.408 18.1406 40.336V39.932H18.7526V39.7C18.7526 39.4653 18.7872 39.2547 18.8566 39.068C18.9286 38.8813 19.0299 38.7227 19.1606 38.592C19.2939 38.4613 19.4552 38.3613 19.6446 38.292C19.8339 38.2227 20.0472 38.188 20.2846 38.188C20.4739 38.188 20.6499 38.2133 20.8126 38.264L20.7926 38.756C20.7899 38.7933 20.7792 38.824 20.7606 38.848C20.7419 38.872 20.7166 38.8907 20.6846 38.904C20.6552 38.9147 20.6206 38.9227 20.5806 38.928C20.5406 38.9307 20.4979 38.932 20.4526 38.932C20.3352 38.932 20.2299 38.9453 20.1366 38.972C20.0459 38.996 19.9686 39.04 19.9046 39.104C19.8406 39.1653 19.7912 39.248 19.7566 39.352C19.7246 39.4533 19.7086 39.58 19.7086 39.732V39.932H21.3446V39.568C21.3446 39.3333 21.3792 39.1227 21.4486 38.936C21.5206 38.7493 21.6219 38.5907 21.7526 38.46C21.8859 38.3293 22.0472 38.2293 22.2366 38.16C22.4259 38.0907 22.6392 38.056 22.8766 38.056C22.9699 38.056 23.0592 38.0627 23.1446 38.076C23.2326 38.0867 23.3192 38.104 23.4046 38.128L23.3806 38.624C23.3752 38.7013 23.3392 38.7507 23.2726 38.772C23.2086 38.7907 23.1326 38.8 23.0446 38.8C22.9272 38.8 22.8219 38.8133 22.7286 38.84C22.6379 38.864 22.5606 38.908 22.4966 38.972C22.4326 39.0333 22.3832 39.116 22.3486 39.22C22.3166 39.3213 22.3006 39.448 22.3006 39.6V39.932H23.3646V40.636H22.3326V44H21.3446V40.636H19.7406V44H18.7526Z" fill="black"/>
<g opacity="0.75">
<rect x="33.5" y="52" width="23" height="1" transform="rotate(-90 33.5 52)" fill="#979797"/>
</g>
<path d="M35.5 32C35.5 30.3431 36.8431 29 38.5 29H63C64.6569 29 66 30.3431 66 32V49C66 50.6569 64.6569 52 63 52H38.5C36.8431 52 35.5 50.6569 35.5 49V32Z" fill="#FF9300"/>
<path d="M45.8724 39.268C45.8404 39.324 45.8058 39.3653 45.7684 39.392C45.7338 39.416 45.6898 39.428 45.6364 39.428C45.5804 39.428 45.5191 39.408 45.4524 39.368C45.3884 39.3253 45.3111 39.2787 45.2204 39.228C45.1298 39.1773 45.0231 39.132 44.9004 39.092C44.7804 39.0493 44.6378 39.028 44.4724 39.028C44.3231 39.028 44.1924 39.0467 44.0804 39.084C43.9684 39.1187 43.8738 39.168 43.7964 39.232C43.7218 39.296 43.6658 39.3733 43.6284 39.464C43.5911 39.552 43.5724 39.6493 43.5724 39.756C43.5724 39.892 43.6098 40.0053 43.6844 40.096C43.7618 40.1867 43.8631 40.264 43.9884 40.328C44.1138 40.392 44.2564 40.4493 44.4164 40.5C44.5764 40.5507 44.7404 40.6053 44.9084 40.664C45.0764 40.72 45.2404 40.7867 45.4004 40.864C45.5604 40.9387 45.7031 41.0347 45.8284 41.152C45.9538 41.2667 46.0538 41.408 46.1284 41.576C46.2058 41.744 46.2444 41.948 46.2444 42.188C46.2444 42.4493 46.1991 42.6947 46.1084 42.924C46.0204 43.1507 45.8898 43.3493 45.7164 43.52C45.5458 43.688 45.3364 43.8213 45.0884 43.92C44.8404 44.016 44.5564 44.064 44.2364 44.064C44.0524 44.064 43.8711 44.0453 43.6924 44.008C43.5138 43.9733 43.3418 43.9227 43.1764 43.856C43.0138 43.7893 42.8604 43.7093 42.7164 43.616C42.5724 43.5227 42.4444 43.4187 42.3324 43.304L42.6484 42.788C42.6751 42.7507 42.7098 42.72 42.7524 42.696C42.7951 42.6693 42.8404 42.656 42.8884 42.656C42.9551 42.656 43.0271 42.684 43.1044 42.74C43.1818 42.7933 43.2738 42.8533 43.3804 42.92C43.4871 42.9867 43.6111 43.048 43.7524 43.104C43.8964 43.1573 44.0684 43.184 44.2684 43.184C44.5751 43.184 44.8124 43.112 44.9804 42.968C45.1484 42.8213 45.2324 42.612 45.2324 42.34C45.2324 42.188 45.1938 42.064 45.1164 41.968C45.0418 41.872 44.9418 41.792 44.8164 41.728C44.6911 41.6613 44.5484 41.6053 44.3884 41.56C44.2284 41.5147 44.0658 41.4653 43.9004 41.412C43.7351 41.3587 43.5724 41.2947 43.4124 41.22C43.2524 41.1453 43.1098 41.048 42.9844 40.928C42.8591 40.808 42.7578 40.6587 42.6804 40.48C42.6058 40.2987 42.5684 40.076 42.5684 39.812C42.5684 39.6013 42.6098 39.396 42.6924 39.196C42.7778 38.996 42.9004 38.8187 43.0604 38.664C43.2204 38.5093 43.4178 38.3853 43.6524 38.292C43.8871 38.1987 44.1564 38.152 44.4604 38.152C44.8018 38.152 45.1164 38.2053 45.4044 38.312C45.6924 38.4187 45.9378 38.568 46.1404 38.76L45.8724 39.268ZM49.6554 41.476C49.6554 41.348 49.6368 41.228 49.5994 41.116C49.5648 41.0013 49.5114 40.9013 49.4394 40.816C49.3674 40.7307 49.2754 40.664 49.1634 40.616C49.0541 40.5653 48.9261 40.54 48.7794 40.54C48.4941 40.54 48.2688 40.6213 48.1034 40.784C47.9408 40.9467 47.8368 41.1773 47.7914 41.476H49.6554ZM47.7714 42.072C47.7874 42.2827 47.8248 42.4653 47.8834 42.62C47.9421 42.772 48.0194 42.8987 48.1154 43C48.2114 43.0987 48.3248 43.1733 48.4554 43.224C48.5888 43.272 48.7354 43.296 48.8954 43.296C49.0554 43.296 49.1928 43.2773 49.3074 43.24C49.4248 43.2027 49.5261 43.1613 49.6114 43.116C49.6994 43.0707 49.7754 43.0293 49.8394 42.992C49.9061 42.9547 49.9701 42.936 50.0314 42.936C50.1141 42.936 50.1754 42.9667 50.2154 43.028L50.4994 43.388C50.3901 43.516 50.2674 43.624 50.1314 43.712C49.9954 43.7973 49.8528 43.8667 49.7034 43.92C49.5568 43.9707 49.4061 44.0067 49.2514 44.028C49.0994 44.0493 48.9514 44.06 48.8074 44.06C48.5221 44.06 48.2568 44.0133 48.0114 43.92C47.7661 43.824 47.5528 43.684 47.3714 43.5C47.1901 43.3133 47.0474 43.084 46.9434 42.812C46.8394 42.5373 46.7874 42.22 46.7874 41.86C46.7874 41.58 46.8328 41.3173 46.9234 41.072C47.0141 40.824 47.1434 40.6093 47.3114 40.428C47.4821 40.244 47.6888 40.0987 47.9314 39.992C48.1768 39.8853 48.4528 39.832 48.7594 39.832C49.0181 39.832 49.2568 39.8733 49.4754 39.956C49.6941 40.0387 49.8821 40.16 50.0394 40.32C50.1968 40.4773 50.3194 40.672 50.4074 40.904C50.4981 41.1333 50.5434 41.396 50.5434 41.692C50.5434 41.8413 50.5274 41.9427 50.4954 41.996C50.4634 42.0467 50.4021 42.072 50.3114 42.072H47.7714ZM52.2089 40.4C52.2915 40.3173 52.3782 40.2413 52.4689 40.172C52.5622 40.1 52.6595 40.04 52.7609 39.992C52.8649 39.9413 52.9755 39.9027 53.0929 39.876C53.2102 39.8467 53.3382 39.832 53.4769 39.832C53.7009 39.832 53.8995 39.8707 54.0729 39.948C54.2462 40.0227 54.3902 40.1293 54.5049 40.268C54.6222 40.404 54.7102 40.568 54.7689 40.76C54.8302 40.9493 54.8609 41.1587 54.8609 41.388V44H53.8729V41.388C53.8729 41.1373 53.8155 40.944 53.7009 40.808C53.5862 40.6693 53.4115 40.6 53.1769 40.6C53.0062 40.6 52.8462 40.6387 52.6969 40.716C52.5475 40.7933 52.4062 40.8987 52.2729 41.032V44H51.2849V39.896H51.8889C52.0169 39.896 52.1009 39.956 52.1409 40.076L52.2089 40.4ZM58.3765 40.944C58.2645 40.808 58.1418 40.712 58.0085 40.656C57.8778 40.6 57.7365 40.572 57.5845 40.572C57.4352 40.572 57.3005 40.6 57.1805 40.656C57.0605 40.712 56.9578 40.7973 56.8725 40.912C56.7872 41.024 56.7218 41.168 56.6765 41.344C56.6312 41.5173 56.6085 41.7227 56.6085 41.96C56.6085 42.2 56.6272 42.404 56.6645 42.572C56.7045 42.7373 56.7605 42.8733 56.8325 42.98C56.9045 43.084 56.9925 43.16 57.0965 43.208C57.2005 43.2533 57.3165 43.276 57.4445 43.276C57.6498 43.276 57.8245 43.2333 57.9685 43.148C58.1125 43.0627 58.2485 42.9413 58.3765 42.784V40.944ZM59.3645 38.056V44H58.7605C58.6298 44 58.5472 43.94 58.5125 43.82L58.4285 43.424C58.2632 43.6133 58.0725 43.7667 57.8565 43.884C57.6432 44.0013 57.3938 44.06 57.1085 44.06C56.8845 44.06 56.6792 44.0133 56.4925 43.92C56.3058 43.8267 56.1445 43.692 56.0085 43.516C55.8752 43.3373 55.7712 43.1173 55.6965 42.856C55.6245 42.5947 55.5885 42.296 55.5885 41.96C55.5885 41.656 55.6298 41.3733 55.7125 41.112C55.7952 40.8507 55.9138 40.624 56.0685 40.432C56.2232 40.24 56.4085 40.0907 56.6245 39.984C56.8405 39.8747 57.0832 39.82 57.3525 39.82C57.5818 39.82 57.7778 39.856 57.9405 39.928C58.1032 40 58.2485 40.0973 58.3765 40.22V38.056H59.3645Z" fill="black"/>
<g opacity="0.75">
<rect x="67" y="52" width="23" height="1" transform="rotate(-90 67 52)" fill="#979797"/>
</g>
<path d="M75.5053 34.268C75.4733 34.324 75.4386 34.3653 75.4013 34.392C75.3666 34.416 75.3226 34.428 75.2693 34.428C75.2133 34.428 75.1519 34.408 75.0853 34.368C75.0213 34.3253 74.9439 34.2787 74.8533 34.228C74.7626 34.1773 74.6559 34.132 74.5333 34.092C74.4133 34.0493 74.2706 34.028 74.1053 34.028C73.9559 34.028 73.8253 34.0467 73.7133 34.084C73.6013 34.1187 73.5066 34.168 73.4293 34.232C73.3546 34.296 73.2986 34.3733 73.2613 34.464C73.2239 34.552 73.2053 34.6493 73.2053 34.756C73.2053 34.892 73.2426 35.0053 73.3173 35.096C73.3946 35.1867 73.4959 35.264 73.6213 35.328C73.7466 35.392 73.8893 35.4493 74.0493 35.5C74.2093 35.5507 74.3733 35.6053 74.5413 35.664C74.7093 35.72 74.8733 35.7867 75.0333 35.864C75.1933 35.9387 75.3359 36.0347 75.4613 36.152C75.5866 36.2667 75.6866 36.408 75.7613 36.576C75.8386 36.744 75.8773 36.948 75.8773 37.188C75.8773 37.4493 75.8319 37.6947 75.7413 37.924C75.6533 38.1507 75.5226 38.3493 75.3493 38.52C75.1786 38.688 74.9693 38.8213 74.7213 38.92C74.4733 39.016 74.1893 39.064 73.8693 39.064C73.6853 39.064 73.5039 39.0453 73.3253 39.008C73.1466 38.9733 72.9746 38.9227 72.8092 38.856C72.6466 38.7893 72.4933 38.7093 72.3493 38.616C72.2053 38.5227 72.0773 38.4187 71.9653 38.304L72.2812 37.788C72.3079 37.7507 72.3426 37.72 72.3853 37.696C72.4279 37.6693 72.4733 37.656 72.5213 37.656C72.5879 37.656 72.6599 37.684 72.7373 37.74C72.8146 37.7933 72.9066 37.8533 73.0133 37.92C73.1199 37.9867 73.2439 38.048 73.3853 38.104C73.5293 38.1573 73.7013 38.184 73.9013 38.184C74.2079 38.184 74.4453 38.112 74.6133 37.968C74.7813 37.8213 74.8653 37.612 74.8653 37.34C74.8653 37.188 74.8266 37.064 74.7493 36.968C74.6746 36.872 74.5746 36.792 74.4493 36.728C74.3239 36.6613 74.1813 36.6053 74.0213 36.56C73.8613 36.5147 73.6986 36.4653 73.5333 36.412C73.3679 36.3587 73.2053 36.2947 73.0453 36.22C72.8853 36.1453 72.7426 36.048 72.6173 35.928C72.4919 35.808 72.3906 35.6587 72.3133 35.48C72.2386 35.2987 72.2013 35.076 72.2013 34.812C72.2013 34.6013 72.2426 34.396 72.3253 34.196C72.4106 33.996 72.5333 33.8187 72.6933 33.664C72.8533 33.5093 73.0506 33.3853 73.2853 33.292C73.5199 33.1987 73.7893 33.152 74.0933 33.152C74.4346 33.152 74.7493 33.2053 75.0373 33.312C75.3253 33.4187 75.5706 33.568 75.7733 33.76L75.5053 34.268ZM79.2883 36.476C79.2883 36.348 79.2696 36.228 79.2323 36.116C79.1976 36.0013 79.1443 35.9013 79.0723 35.816C79.0003 35.7307 78.9083 35.664 78.7963 35.616C78.6869 35.5653 78.5589 35.54 78.4123 35.54C78.1269 35.54 77.9016 35.6213 77.7363 35.784C77.5736 35.9467 77.4696 36.1773 77.4243 36.476H79.2883ZM77.4043 37.072C77.4203 37.2827 77.4576 37.4653 77.5163 37.62C77.5749 37.772 77.6523 37.8987 77.7483 38C77.8443 38.0987 77.9576 38.1733 78.0883 38.224C78.2216 38.272 78.3683 38.296 78.5283 38.296C78.6883 38.296 78.8256 38.2773 78.9403 38.24C79.0576 38.2027 79.1589 38.1613 79.2443 38.116C79.3323 38.0707 79.4083 38.0293 79.4723 37.992C79.5389 37.9547 79.6029 37.936 79.6643 37.936C79.7469 37.936 79.8083 37.9667 79.8483 38.028L80.1323 38.388C80.0229 38.516 79.9003 38.624 79.7643 38.712C79.6283 38.7973 79.4856 38.8667 79.3363 38.92C79.1896 38.9707 79.0389 39.0067 78.8843 39.028C78.7323 39.0493 78.5843 39.06 78.4403 39.06C78.1549 39.06 77.8896 39.0133 77.6443 38.92C77.3989 38.824 77.1856 38.684 77.0043 38.5C76.8229 38.3133 76.6803 38.084 76.5763 37.812C76.4723 37.5373 76.4202 37.22 76.4202 36.86C76.4202 36.58 76.4656 36.3173 76.5563 36.072C76.6469 35.824 76.7763 35.6093 76.9443 35.428C77.1149 35.244 77.3216 35.0987 77.5643 34.992C77.8096 34.8853 78.0856 34.832 78.3923 34.832C78.6509 34.832 78.8896 34.8733 79.1083 34.956C79.3269 35.0387 79.5149 35.16 79.6723 35.32C79.8296 35.4773 79.9523 35.672 80.0403 35.904C80.1309 36.1333 80.1762 36.396 80.1762 36.692C80.1762 36.8413 80.1603 36.9427 80.1283 36.996C80.0963 37.0467 80.0349 37.072 79.9443 37.072H77.4043ZM81.8417 35.4C81.9244 35.3173 82.011 35.2413 82.1017 35.172C82.195 35.1 82.2924 35.04 82.3937 34.992C82.4977 34.9413 82.6084 34.9027 82.7257 34.876C82.843 34.8467 82.971 34.832 83.1097 34.832C83.3337 34.832 83.5324 34.8707 83.7057 34.948C83.879 35.0227 84.023 35.1293 84.1377 35.268C84.255 35.404 84.343 35.568 84.4017 35.76C84.463 35.9493 84.4937 36.1587 84.4937 36.388V39H83.5057V36.388C83.5057 36.1373 83.4484 35.944 83.3337 35.808C83.219 35.6693 83.0444 35.6 82.8097 35.6C82.639 35.6 82.479 35.6387 82.3297 35.716C82.1804 35.7933 82.039 35.8987 81.9057 36.032V39H80.9177V34.896H81.5217C81.6497 34.896 81.7337 34.956 81.7737 35.076L81.8417 35.4ZM88.0093 35.944C87.8973 35.808 87.7746 35.712 87.6413 35.656C87.5106 35.6 87.3693 35.572 87.2173 35.572C87.068 35.572 86.9333 35.6 86.8133 35.656C86.6933 35.712 86.5906 35.7973 86.5053 35.912C86.42 36.024 86.3546 36.168 86.3093 36.344C86.264 36.5173 86.2413 36.7227 86.2413 36.96C86.2413 37.2 86.26 37.404 86.2973 37.572C86.3373 37.7373 86.3933 37.8733 86.4653 37.98C86.5373 38.084 86.6253 38.16 86.7293 38.208C86.8333 38.2533 86.9493 38.276 87.0773 38.276C87.2826 38.276 87.4573 38.2333 87.6013 38.148C87.7453 38.0627 87.8813 37.9413 88.0093 37.784V35.944ZM88.9973 33.056V39H88.3933C88.2626 39 88.18 38.94 88.1453 38.82L88.0613 38.424C87.896 38.6133 87.7053 38.7667 87.4893 38.884C87.276 39.0013 87.0266 39.06 86.7413 39.06C86.5173 39.06 86.312 39.0133 86.1253 38.92C85.9386 38.8267 85.7773 38.692 85.6413 38.516C85.508 38.3373 85.404 38.1173 85.3293 37.856C85.2573 37.5947 85.2213 37.296 85.2213 36.96C85.2213 36.656 85.2626 36.3733 85.3453 36.112C85.428 35.8507 85.5466 35.624 85.7013 35.432C85.856 35.24 86.0413 35.0907 86.2573 34.984C86.4733 34.8747 86.716 34.82 86.9853 34.82C87.2146 34.82 87.4106 34.856 87.5733 34.928C87.736 35 87.8813 35.0973 88.0093 35.22V33.056H88.9973ZM93.3417 36.296C93.1284 36.4347 92.9724 36.592 92.8737 36.768C92.7777 36.9413 92.7297 37.128 92.7297 37.328C92.7297 37.4747 92.755 37.6067 92.8057 37.724C92.8564 37.8413 92.9244 37.9413 93.0097 38.024C93.0977 38.104 93.199 38.1667 93.3137 38.212C93.431 38.2547 93.555 38.276 93.6857 38.276C93.9204 38.276 94.135 38.24 94.3297 38.168C94.5244 38.0933 94.7004 37.9907 94.8577 37.86L93.3417 36.296ZM97.1937 39H96.2257C96.1244 39 96.0417 38.988 95.9777 38.964C95.9164 38.94 95.851 38.8893 95.7817 38.812L95.3817 38.4C95.1284 38.608 94.8444 38.7707 94.5297 38.888C94.215 39.0053 93.875 39.064 93.5097 39.064C93.2884 39.064 93.0697 39.0267 92.8537 38.952C92.6404 38.8747 92.4497 38.764 92.2817 38.62C92.1137 38.476 91.9777 38.3027 91.8737 38.1C91.7724 37.8947 91.7217 37.664 91.7217 37.408C91.7217 37.2267 91.751 37.056 91.8097 36.896C91.8684 36.7333 91.9497 36.5827 92.0537 36.444C92.1577 36.3053 92.2817 36.1813 92.4257 36.072C92.5697 35.96 92.727 35.864 92.8977 35.784C92.7537 35.584 92.6497 35.3893 92.5857 35.2C92.5217 35.008 92.4897 34.8173 92.4897 34.628C92.4897 34.428 92.5257 34.2387 92.5977 34.06C92.6724 33.8787 92.779 33.7213 92.9177 33.588C93.0564 33.4547 93.227 33.3493 93.4297 33.272C93.6324 33.192 93.8617 33.152 94.1177 33.152C94.3524 33.152 94.5617 33.188 94.7457 33.26C94.9324 33.332 95.091 33.428 95.2217 33.548C95.355 33.668 95.459 33.8053 95.5337 33.96C95.611 34.1147 95.6564 34.2747 95.6697 34.44L95.0417 34.572C94.9244 34.596 94.839 34.5453 94.7857 34.42C94.7617 34.3507 94.7297 34.2853 94.6897 34.224C94.6524 34.16 94.607 34.1053 94.5537 34.06C94.5004 34.012 94.4377 33.9747 94.3657 33.948C94.2937 33.9187 94.211 33.904 94.1177 33.904C94.0057 33.904 93.9057 33.924 93.8177 33.964C93.7297 34.0013 93.655 34.0533 93.5937 34.12C93.535 34.184 93.4897 34.26 93.4577 34.348C93.4257 34.4333 93.4097 34.524 93.4097 34.62C93.4097 34.7 93.4177 34.7773 93.4337 34.852C93.4497 34.9267 93.4764 35.0013 93.5137 35.076C93.551 35.1507 93.599 35.228 93.6577 35.308C93.719 35.3853 93.7937 35.4693 93.8817 35.56L95.4177 37.156C95.5057 36.988 95.5764 36.8107 95.6297 36.624C95.683 36.4373 95.7177 36.248 95.7337 36.056C95.7417 35.9947 95.763 35.9453 95.7977 35.908C95.8324 35.8707 95.8804 35.852 95.9417 35.852H96.5577C96.555 36.204 96.5044 36.54 96.4057 36.86C96.307 37.18 96.1657 37.4747 95.9817 37.744L97.1937 39ZM78.4354 46.1V48.44C78.1421 48.656 77.8288 48.8147 77.4954 48.916C77.1648 49.0147 76.8101 49.064 76.4314 49.064C75.9594 49.064 75.5314 48.9907 75.1474 48.844C74.7661 48.6973 74.4394 48.4933 74.1674 48.232C73.8981 47.9707 73.6901 47.6587 73.5434 47.296C73.3968 46.9333 73.3234 46.5373 73.3234 46.108C73.3234 45.6733 73.3941 45.2747 73.5354 44.912C73.6768 44.5493 73.8768 44.2373 74.1354 43.976C74.3968 43.7147 74.7128 43.512 75.0834 43.368C75.4541 43.224 75.8701 43.152 76.3314 43.152C76.5661 43.152 76.7848 43.1707 76.9874 43.208C77.1928 43.2453 77.3821 43.2973 77.5554 43.364C77.7314 43.428 77.8914 43.5067 78.0354 43.6C78.1794 43.6933 78.3114 43.796 78.4314 43.908L78.1234 44.396C78.0754 44.4733 78.0128 44.5213 77.9354 44.54C77.8581 44.556 77.7741 44.536 77.6834 44.48C77.5954 44.4293 77.5074 44.3787 77.4194 44.328C77.3314 44.2773 77.2328 44.2333 77.1234 44.196C77.0168 44.1587 76.8954 44.128 76.7594 44.104C76.6261 44.08 76.4714 44.068 76.2954 44.068C76.0101 44.068 75.7514 44.116 75.5194 44.212C75.2901 44.308 75.0941 44.4453 74.9314 44.624C74.7688 44.8027 74.6434 45.0173 74.5554 45.268C74.4674 45.5187 74.4234 45.7987 74.4234 46.108C74.4234 46.4387 74.4701 46.7347 74.5634 46.996C74.6594 47.2547 74.7928 47.4747 74.9634 47.656C75.1368 47.8347 75.3448 47.972 75.5874 48.068C75.8301 48.1613 76.1008 48.208 76.3994 48.208C76.6128 48.208 76.8034 48.1853 76.9714 48.14C77.1394 48.0947 77.3034 48.0333 77.4634 47.956V46.908H76.7354C76.6661 46.908 76.6114 46.8893 76.5714 46.852C76.5341 46.812 76.5154 46.764 76.5154 46.708V46.1H78.4354ZM80.3005 43.056V49H79.3125V43.056H80.3005ZM83.1009 44.832C83.4049 44.832 83.6809 44.8813 83.9289 44.98C84.1795 45.0787 84.3929 45.2187 84.5689 45.4C84.7475 45.5813 84.8849 45.8027 84.9809 46.064C85.0769 46.3253 85.1249 46.6173 85.1249 46.94C85.1249 47.2653 85.0769 47.5587 84.9809 47.82C84.8849 48.0813 84.7475 48.304 84.5689 48.488C84.3929 48.672 84.1795 48.8133 83.9289 48.912C83.6809 49.0107 83.4049 49.06 83.1009 49.06C82.7942 49.06 82.5155 49.0107 82.2649 48.912C82.0142 48.8133 81.7995 48.672 81.6209 48.488C81.4449 48.304 81.3075 48.0813 81.2089 47.82C81.1129 47.5587 81.0649 47.2653 81.0649 46.94C81.0649 46.6173 81.1129 46.3253 81.2089 46.064C81.3075 45.8027 81.4449 45.5813 81.6209 45.4C81.7995 45.2187 82.0142 45.0787 82.2649 44.98C82.5155 44.8813 82.7942 44.832 83.1009 44.832ZM83.1009 48.3C83.4422 48.3 83.6942 48.1853 83.8569 47.956C84.0222 47.7267 84.1049 47.3907 84.1049 46.948C84.1049 46.5053 84.0222 46.168 83.8569 45.936C83.6942 45.704 83.4422 45.588 83.1009 45.588C82.7542 45.588 82.4969 45.7053 82.3289 45.94C82.1635 46.172 82.0809 46.508 82.0809 46.948C82.0809 47.388 82.1635 47.724 82.3289 47.956C82.4969 48.1853 82.7542 48.3 83.1009 48.3ZM86.8666 47.936C86.9786 48.072 87.1 48.168 87.2306 48.224C87.364 48.28 87.504 48.308 87.6506 48.308C87.8026 48.308 87.9386 48.2813 88.0586 48.228C88.1813 48.172 88.2853 48.0867 88.3706 47.972C88.456 47.8547 88.5213 47.7067 88.5666 47.528C88.612 47.3467 88.6346 47.1307 88.6346 46.88C88.6346 46.4293 88.56 46.104 88.4106 45.904C88.2613 45.7013 88.0466 45.6 87.7666 45.6C87.5773 45.6 87.412 45.644 87.2706 45.732C87.1293 45.8173 86.9946 45.9387 86.8666 46.096V47.936ZM86.8666 45.4C87.032 45.2267 87.2146 45.0893 87.4146 44.988C87.6173 44.884 87.848 44.832 88.1066 44.832C88.344 44.832 88.5573 44.8787 88.7466 44.972C88.9386 45.0653 89.1013 45.2 89.2346 45.376C89.3706 45.5493 89.4746 45.76 89.5466 46.008C89.6186 46.256 89.6546 46.5347 89.6546 46.844C89.6546 47.1773 89.6133 47.48 89.5306 47.752C89.448 48.024 89.3293 48.2573 89.1746 48.452C89.0226 48.644 88.8386 48.7933 88.6226 48.9C88.4066 49.0067 88.1666 49.06 87.9026 49.06C87.7746 49.06 87.6586 49.0467 87.5546 49.02C87.4506 48.996 87.3546 48.9613 87.2666 48.916C87.1786 48.8707 87.0973 48.816 87.0226 48.752C86.9506 48.6853 86.8813 48.612 86.8146 48.532L86.7706 48.808C86.7546 48.8773 86.7266 48.9267 86.6866 48.956C86.6493 48.9853 86.5973 49 86.5306 49H85.8786V43.056H86.8666V45.4ZM92.5857 47.248C92.3004 47.2613 92.0604 47.2867 91.8657 47.324C91.671 47.3587 91.515 47.404 91.3977 47.46C91.2804 47.516 91.1964 47.5813 91.1457 47.656C91.095 47.7307 91.0697 47.812 91.0697 47.9C91.0697 48.0733 91.1204 48.1973 91.2217 48.272C91.3257 48.3467 91.4604 48.384 91.6257 48.384C91.8284 48.384 92.003 48.348 92.1497 48.276C92.299 48.2013 92.4444 48.0893 92.5857 47.94V47.248ZM90.3217 45.468C90.7937 45.036 91.3617 44.82 92.0257 44.82C92.2657 44.82 92.4804 44.86 92.6697 44.94C92.859 45.0173 93.019 45.1267 93.1497 45.268C93.2804 45.4067 93.379 45.5733 93.4457 45.768C93.515 45.9627 93.5497 46.176 93.5497 46.408V49H93.1017C93.0084 49 92.9364 48.9867 92.8857 48.96C92.835 48.9307 92.795 48.8733 92.7657 48.788L92.6777 48.492C92.5737 48.5853 92.4724 48.668 92.3737 48.74C92.275 48.8093 92.1724 48.868 92.0657 48.916C91.959 48.964 91.8444 49 91.7217 49.024C91.6017 49.0507 91.4684 49.064 91.3217 49.064C91.1484 49.064 90.9884 49.0413 90.8417 48.996C90.695 48.948 90.5684 48.8773 90.4617 48.784C90.355 48.6907 90.2724 48.5747 90.2137 48.436C90.155 48.2973 90.1257 48.136 90.1257 47.952C90.1257 47.848 90.143 47.7453 90.1777 47.644C90.2124 47.54 90.2684 47.4413 90.3457 47.348C90.4257 47.2547 90.5284 47.1667 90.6537 47.084C90.779 47.0013 90.9324 46.9293 91.1137 46.868C91.2977 46.8067 91.511 46.7573 91.7537 46.72C91.9964 46.68 92.2737 46.656 92.5857 46.648V46.408C92.5857 46.1333 92.527 45.9307 92.4097 45.8C92.2924 45.6667 92.123 45.6 91.9017 45.6C91.7417 45.6 91.6084 45.6187 91.5017 45.656C91.3977 45.6933 91.3057 45.736 91.2257 45.784C91.1457 45.8293 91.0724 45.8707 91.0057 45.908C90.9417 45.9453 90.8697 45.964 90.7897 45.964C90.7204 45.964 90.6617 45.9467 90.6137 45.912C90.5657 45.8747 90.527 45.832 90.4977 45.784L90.3217 45.468ZM95.4802 43.056V49H94.4922V43.056H95.4802Z" fill="black"/>
<path opacity="0.5" d="M101.5 29H100.5V52H101.5V29Z" fill="#979797"/>
<path d="M116.942 41.816L116.238 39.892C116.204 39.8067 116.168 39.7053 116.13 39.588C116.093 39.4707 116.056 39.344 116.018 39.208C115.984 39.344 115.948 39.472 115.91 39.592C115.873 39.7093 115.837 39.812 115.802 39.9L115.102 41.816H116.942ZM118.842 44H118.01C117.917 44 117.841 43.9773 117.782 43.932C117.724 43.884 117.68 43.8253 117.65 43.756L117.218 42.576H114.822L114.39 43.756C114.369 43.8173 114.328 43.8733 114.266 43.924C114.205 43.9747 114.129 44 114.038 44H113.198L115.474 38.216H116.57L118.842 44ZM120.277 38.056V44H119.289V38.056H120.277ZM122.261 38.056V44H121.273V38.056H122.261Z" fill="black"/>
<path d="M3.5 28H131.5V27H3.5V28ZM134 30.5V50.5H135V30.5H134ZM131.5 53H3.5V54H131.5V53ZM1 50.5V30.5H0V50.5H1ZM3.5 53C2.11929 53 1 51.8807 1 50.5H0C0 52.433 1.567 54 3.5 54V53ZM134 50.5C134 51.8807 132.881 53 131.5 53V54C133.433 54 135 52.433 135 50.5H134ZM131.5 28C132.881 28 134 29.1193 134 30.5H135C135 28.567 133.433 27 131.5 27V28ZM3.5 27C1.567 27 0 28.567 0 30.5H1C1 29.1193 2.11929 28 3.5 28V27Z" fill="#979797"/>
<path d="M0.5 57.5C0.5 55.8431 1.84315 54.5 3.5 54.5H131.5C133.157 54.5 134.5 55.8431 134.5 57.5V77.5C134.5 79.1569 133.157 80.5 131.5 80.5H3.5C1.84314 80.5 0.5 79.1569 0.5 77.5V57.5Z" fill="#E3E3E3"/>
<path d="M17.7225 68.108C17.7225 68.532 17.6518 68.9253 17.5105 69.288C17.3718 69.648 17.1745 69.96 16.9185 70.224C16.6625 70.488 16.3545 70.6947 15.9945 70.844C15.6345 70.9907 15.2345 71.064 14.7945 71.064C14.3572 71.064 13.9585 70.9907 13.5985 70.844C13.2385 70.6947 12.9292 70.488 12.6705 70.224C12.4145 69.96 12.2158 69.648 12.0745 69.288C11.9332 68.9253 11.8625 68.532 11.8625 68.108C11.8625 67.684 11.9332 67.292 12.0745 66.932C12.2158 66.5693 12.4145 66.256 12.6705 65.992C12.9292 65.728 13.2385 65.5227 13.5985 65.376C13.9585 65.2267 14.3572 65.152 14.7945 65.152C15.0878 65.152 15.3638 65.1867 15.6225 65.256C15.8812 65.3227 16.1185 65.4187 16.3345 65.544C16.5505 65.6667 16.7438 65.8173 16.9145 65.996C17.0878 66.172 17.2345 66.3693 17.3545 66.588C17.4745 66.8067 17.5652 67.044 17.6265 67.3C17.6905 67.556 17.7225 67.8253 17.7225 68.108ZM16.6225 68.108C16.6225 67.7907 16.5798 67.5067 16.4945 67.256C16.4092 67.0027 16.2878 66.788 16.1305 66.612C15.9732 66.436 15.7812 66.3013 15.5545 66.208C15.3305 66.1147 15.0772 66.068 14.7945 66.068C14.5118 66.068 14.2572 66.1147 14.0305 66.208C13.8065 66.3013 13.6145 66.436 13.4545 66.612C13.2972 66.788 13.1758 67.0027 13.0905 67.256C13.0052 67.5067 12.9625 67.7907 12.9625 68.108C12.9625 68.4253 13.0052 68.7107 13.0905 68.964C13.1758 69.2147 13.2972 69.428 13.4545 69.604C13.6145 69.7773 13.8065 69.9107 14.0305 70.004C14.2572 70.0973 14.5118 70.144 14.7945 70.144C15.0772 70.144 15.3305 70.0973 15.5545 70.004C15.7812 69.9107 15.9732 69.7773 16.1305 69.604C16.2878 69.428 16.4092 69.2147 16.4945 68.964C16.5798 68.7107 16.6225 68.4253 16.6225 68.108ZM18.7526 71V67.64L18.3966 67.584C18.3192 67.568 18.2566 67.5413 18.2086 67.504C18.1632 67.464 18.1406 67.408 18.1406 67.336V66.932H18.7526V66.7C18.7526 66.4653 18.7872 66.2547 18.8566 66.068C18.9286 65.8813 19.0299 65.7227 19.1606 65.592C19.2939 65.4613 19.4552 65.3613 19.6446 65.292C19.8339 65.2227 20.0472 65.188 20.2846 65.188C20.4739 65.188 20.6499 65.2133 20.8126 65.264L20.7926 65.756C20.7899 65.7933 20.7792 65.824 20.7606 65.848C20.7419 65.872 20.7166 65.8907 20.6846 65.904C20.6552 65.9147 20.6206 65.9227 20.5806 65.928C20.5406 65.9307 20.4979 65.932 20.4526 65.932C20.3352 65.932 20.2299 65.9453 20.1366 65.972C20.0459 65.996 19.9686 66.04 19.9046 66.104C19.8406 66.1653 19.7912 66.248 19.7566 66.352C19.7246 66.4533 19.7086 66.58 19.7086 66.732V66.932H21.3446V66.568C21.3446 66.3333 21.3792 66.1227 21.4486 65.936C21.5206 65.7493 21.6219 65.5907 21.7526 65.46C21.8859 65.3293 22.0472 65.2293 22.2366 65.16C22.4259 65.0907 22.6392 65.056 22.8766 65.056C22.9699 65.056 23.0592 65.0627 23.1446 65.076C23.2326 65.0867 23.3192 65.104 23.4046 65.128L23.3806 65.624C23.3752 65.7013 23.3392 65.7507 23.2726 65.772C23.2086 65.7907 23.1326 65.8 23.0446 65.8C22.9272 65.8 22.8219 65.8133 22.7286 65.84C22.6379 65.864 22.5606 65.908 22.4966 65.972C22.4326 66.0333 22.3832 66.116 22.3486 66.22C22.3166 66.3213 22.3006 66.448 22.3006 66.6V66.932H23.3646V67.636H22.3326V71H21.3446V67.636H19.7406V71H18.7526Z" fill="black"/>
<g opacity="0.75">
<rect x="33.5" y="79" width="23" height="1" transform="rotate(-90 33.5 79)" fill="#979797"/>
</g>
<path d="M45.8724 66.268C45.8404 66.324 45.8058 66.3653 45.7684 66.392C45.7338 66.416 45.6898 66.428 45.6364 66.428C45.5804 66.428 45.5191 66.408 45.4524 66.368C45.3884 66.3253 45.3111 66.2787 45.2204 66.228C45.1298 66.1773 45.0231 66.132 44.9004 66.092C44.7804 66.0493 44.6378 66.028 44.4724 66.028C44.3231 66.028 44.1924 66.0467 44.0804 66.084C43.9684 66.1187 43.8738 66.168 43.7964 66.232C43.7218 66.296 43.6658 66.3733 43.6284 66.464C43.5911 66.552 43.5724 66.6493 43.5724 66.756C43.5724 66.892 43.6098 67.0053 43.6844 67.096C43.7618 67.1867 43.8631 67.264 43.9884 67.328C44.1138 67.392 44.2564 67.4493 44.4164 67.5C44.5764 67.5507 44.7404 67.6053 44.9084 67.664C45.0764 67.72 45.2404 67.7867 45.4004 67.864C45.5604 67.9387 45.7031 68.0347 45.8284 68.152C45.9538 68.2667 46.0538 68.408 46.1284 68.576C46.2058 68.744 46.2444 68.948 46.2444 69.188C46.2444 69.4493 46.1991 69.6947 46.1084 69.924C46.0204 70.1507 45.8898 70.3493 45.7164 70.52C45.5458 70.688 45.3364 70.8213 45.0884 70.92C44.8404 71.016 44.5564 71.064 44.2364 71.064C44.0524 71.064 43.8711 71.0453 43.6924 71.008C43.5138 70.9733 43.3418 70.9227 43.1764 70.856C43.0138 70.7893 42.8604 70.7093 42.7164 70.616C42.5724 70.5227 42.4444 70.4187 42.3324 70.304L42.6484 69.788C42.6751 69.7507 42.7098 69.72 42.7524 69.696C42.7951 69.6693 42.8404 69.656 42.8884 69.656C42.9551 69.656 43.0271 69.684 43.1044 69.74C43.1818 69.7933 43.2738 69.8533 43.3804 69.92C43.4871 69.9867 43.6111 70.048 43.7524 70.104C43.8964 70.1573 44.0684 70.184 44.2684 70.184C44.5751 70.184 44.8124 70.112 44.9804 69.968C45.1484 69.8213 45.2324 69.612 45.2324 69.34C45.2324 69.188 45.1938 69.064 45.1164 68.968C45.0418 68.872 44.9418 68.792 44.8164 68.728C44.6911 68.6613 44.5484 68.6053 44.3884 68.56C44.2284 68.5147 44.0658 68.4653 43.9004 68.412C43.7351 68.3587 43.5724 68.2947 43.4124 68.22C43.2524 68.1453 43.1098 68.048 42.9844 67.928C42.8591 67.808 42.7578 67.6587 42.6804 67.48C42.6058 67.2987 42.5684 67.076 42.5684 66.812C42.5684 66.6013 42.6098 66.396 42.6924 66.196C42.7778 65.996 42.9004 65.8187 43.0604 65.664C43.2204 65.5093 43.4178 65.3853 43.6524 65.292C43.8871 65.1987 44.1564 65.152 44.4604 65.152C44.8018 65.152 45.1164 65.2053 45.4044 65.312C45.6924 65.4187 45.9378 65.568 46.1404 65.76L45.8724 66.268ZM49.6554 68.476C49.6554 68.348 49.6368 68.228 49.5994 68.116C49.5648 68.0013 49.5114 67.9013 49.4394 67.816C49.3674 67.7307 49.2754 67.664 49.1634 67.616C49.0541 67.5653 48.9261 67.54 48.7794 67.54C48.4941 67.54 48.2688 67.6213 48.1034 67.784C47.9408 67.9467 47.8368 68.1773 47.7914 68.476H49.6554ZM47.7714 69.072C47.7874 69.2827 47.8248 69.4653 47.8834 69.62C47.9421 69.772 48.0194 69.8987 48.1154 70C48.2114 70.0987 48.3248 70.1733 48.4554 70.224C48.5888 70.272 48.7354 70.296 48.8954 70.296C49.0554 70.296 49.1928 70.2773 49.3074 70.24C49.4248 70.2027 49.5261 70.1613 49.6114 70.116C49.6994 70.0707 49.7754 70.0293 49.8394 69.992C49.9061 69.9547 49.9701 69.936 50.0314 69.936C50.1141 69.936 50.1754 69.9667 50.2154 70.028L50.4994 70.388C50.3901 70.516 50.2674 70.624 50.1314 70.712C49.9954 70.7973 49.8528 70.8667 49.7034 70.92C49.5568 70.9707 49.4061 71.0067 49.2514 71.028C49.0994 71.0493 48.9514 71.06 48.8074 71.06C48.5221 71.06 48.2568 71.0133 48.0114 70.92C47.7661 70.824 47.5528 70.684 47.3714 70.5C47.1901 70.3133 47.0474 70.084 46.9434 69.812C46.8394 69.5373 46.7874 69.22 46.7874 68.86C46.7874 68.58 46.8328 68.3173 46.9234 68.072C47.0141 67.824 47.1434 67.6093 47.3114 67.428C47.4821 67.244 47.6888 67.0987 47.9314 66.992C48.1768 66.8853 48.4528 66.832 48.7594 66.832C49.0181 66.832 49.2568 66.8733 49.4754 66.956C49.6941 67.0387 49.8821 67.16 50.0394 67.32C50.1968 67.4773 50.3194 67.672 50.4074 67.904C50.4981 68.1333 50.5434 68.396 50.5434 68.692C50.5434 68.8413 50.5274 68.9427 50.4954 68.996C50.4634 69.0467 50.4021 69.072 50.3114 69.072H47.7714ZM52.2089 67.4C52.2915 67.3173 52.3782 67.2413 52.4689 67.172C52.5622 67.1 52.6595 67.04 52.7609 66.992C52.8649 66.9413 52.9755 66.9027 53.0929 66.876C53.2102 66.8467 53.3382 66.832 53.4769 66.832C53.7009 66.832 53.8995 66.8707 54.0729 66.948C54.2462 67.0227 54.3902 67.1293 54.5049 67.268C54.6222 67.404 54.7102 67.568 54.7689 67.76C54.8302 67.9493 54.8609 68.1587 54.8609 68.388V71H53.8729V68.388C53.8729 68.1373 53.8155 67.944 53.7009 67.808C53.5862 67.6693 53.4115 67.6 53.1769 67.6C53.0062 67.6 52.8462 67.6387 52.6969 67.716C52.5475 67.7933 52.4062 67.8987 52.2729 68.032V71H51.2849V66.896H51.8889C52.0169 66.896 52.1009 66.956 52.1409 67.076L52.2089 67.4ZM58.3765 67.944C58.2645 67.808 58.1418 67.712 58.0085 67.656C57.8778 67.6 57.7365 67.572 57.5845 67.572C57.4352 67.572 57.3005 67.6 57.1805 67.656C57.0605 67.712 56.9578 67.7973 56.8725 67.912C56.7872 68.024 56.7218 68.168 56.6765 68.344C56.6312 68.5173 56.6085 68.7227 56.6085 68.96C56.6085 69.2 56.6272 69.404 56.6645 69.572C56.7045 69.7373 56.7605 69.8733 56.8325 69.98C56.9045 70.084 56.9925 70.16 57.0965 70.208C57.2005 70.2533 57.3165 70.276 57.4445 70.276C57.6498 70.276 57.8245 70.2333 57.9685 70.148C58.1125 70.0627 58.2485 69.9413 58.3765 69.784V67.944ZM59.3645 65.056V71H58.7605C58.6298 71 58.5472 70.94 58.5125 70.82L58.4285 70.424C58.2632 70.6133 58.0725 70.7667 57.8565 70.884C57.6432 71.0013 57.3938 71.06 57.1085 71.06C56.8845 71.06 56.6792 71.0133 56.4925 70.92C56.3058 70.8267 56.1445 70.692 56.0085 70.516C55.8752 70.3373 55.7712 70.1173 55.6965 69.856C55.6245 69.5947 55.5885 69.296 55.5885 68.96C55.5885 68.656 55.6298 68.3733 55.7125 68.112C55.7952 67.8507 55.9138 67.624 56.0685 67.432C56.2232 67.24 56.4085 67.0907 56.6245 66.984C56.8405 66.8747 57.0832 66.82 57.3525 66.82C57.5818 66.82 57.7778 66.856 57.9405 66.928C58.1032 67 58.2485 67.0973 58.3765 67.22V65.056H59.3645Z" fill="black"/>
<g opacity="0.75">
<rect x="67" y="79" width="23" height="1" transform="rotate(-90 67 79)" fill="#979797"/>
</g>
<path d="M69 59C69 57.3431 70.3431 56 72 56H96.5C98.1569 56 99.5 57.3431 99.5 59V76C99.5 77.6569 98.1569 79 96.5 79H72C70.3431 79 69 77.6569 69 76V59Z" fill="#FF9300"/>
<path d="M75.5053 61.268C75.4733 61.324 75.4386 61.3653 75.4013 61.392C75.3666 61.416 75.3226 61.428 75.2693 61.428C75.2133 61.428 75.1519 61.408 75.0853 61.368C75.0213 61.3253 74.9439 61.2787 74.8533 61.228C74.7626 61.1773 74.6559 61.132 74.5333 61.092C74.4133 61.0493 74.2706 61.028 74.1053 61.028C73.9559 61.028 73.8253 61.0467 73.7133 61.084C73.6013 61.1187 73.5066 61.168 73.4293 61.232C73.3546 61.296 73.2986 61.3733 73.2613 61.464C73.2239 61.552 73.2053 61.6493 73.2053 61.756C73.2053 61.892 73.2426 62.0053 73.3173 62.096C73.3946 62.1867 73.4959 62.264 73.6213 62.328C73.7466 62.392 73.8893 62.4493 74.0493 62.5C74.2093 62.5507 74.3733 62.6053 74.5413 62.664C74.7093 62.72 74.8733 62.7867 75.0333 62.864C75.1933 62.9387 75.3359 63.0347 75.4613 63.152C75.5866 63.2667 75.6866 63.408 75.7613 63.576C75.8386 63.744 75.8773 63.948 75.8773 64.188C75.8773 64.4493 75.8319 64.6947 75.7413 64.924C75.6533 65.1507 75.5226 65.3493 75.3493 65.52C75.1786 65.688 74.9693 65.8213 74.7213 65.92C74.4733 66.016 74.1893 66.064 73.8693 66.064C73.6853 66.064 73.5039 66.0453 73.3253 66.008C73.1466 65.9733 72.9746 65.9227 72.8092 65.856C72.6466 65.7893 72.4933 65.7093 72.3493 65.616C72.2053 65.5227 72.0773 65.4187 71.9653 65.304L72.2812 64.788C72.3079 64.7507 72.3426 64.72 72.3853 64.696C72.4279 64.6693 72.4733 64.656 72.5213 64.656C72.5879 64.656 72.6599 64.684 72.7373 64.74C72.8146 64.7933 72.9066 64.8533 73.0133 64.92C73.1199 64.9867 73.2439 65.048 73.3853 65.104C73.5293 65.1573 73.7013 65.184 73.9013 65.184C74.2079 65.184 74.4453 65.112 74.6133 64.968C74.7813 64.8213 74.8653 64.612 74.8653 64.34C74.8653 64.188 74.8266 64.064 74.7493 63.968C74.6746 63.872 74.5746 63.792 74.4493 63.728C74.3239 63.6613 74.1813 63.6053 74.0213 63.56C73.8613 63.5147 73.6986 63.4653 73.5333 63.412C73.3679 63.3587 73.2053 63.2947 73.0453 63.22C72.8853 63.1453 72.7426 63.048 72.6173 62.928C72.4919 62.808 72.3906 62.6587 72.3133 62.48C72.2386 62.2987 72.2013 62.076 72.2013 61.812C72.2013 61.6013 72.2426 61.396 72.3253 61.196C72.4106 60.996 72.5333 60.8187 72.6933 60.664C72.8533 60.5093 73.0506 60.3853 73.2853 60.292C73.5199 60.1987 73.7893 60.152 74.0933 60.152C74.4346 60.152 74.7493 60.2053 75.0373 60.312C75.3253 60.4187 75.5706 60.568 75.7733 60.76L75.5053 61.268ZM79.2883 63.476C79.2883 63.348 79.2696 63.228 79.2323 63.116C79.1976 63.0013 79.1443 62.9013 79.0723 62.816C79.0003 62.7307 78.9083 62.664 78.7963 62.616C78.6869 62.5653 78.5589 62.54 78.4123 62.54C78.1269 62.54 77.9016 62.6213 77.7363 62.784C77.5736 62.9467 77.4696 63.1773 77.4243 63.476H79.2883ZM77.4043 64.072C77.4203 64.2827 77.4576 64.4653 77.5163 64.62C77.5749 64.772 77.6523 64.8987 77.7483 65C77.8443 65.0987 77.9576 65.1733 78.0883 65.224C78.2216 65.272 78.3683 65.296 78.5283 65.296C78.6883 65.296 78.8256 65.2773 78.9403 65.24C79.0576 65.2027 79.1589 65.1613 79.2443 65.116C79.3323 65.0707 79.4083 65.0293 79.4723 64.992C79.5389 64.9547 79.6029 64.936 79.6643 64.936C79.7469 64.936 79.8083 64.9667 79.8483 65.028L80.1323 65.388C80.0229 65.516 79.9003 65.624 79.7643 65.712C79.6283 65.7973 79.4856 65.8667 79.3363 65.92C79.1896 65.9707 79.0389 66.0067 78.8843 66.028C78.7323 66.0493 78.5843 66.06 78.4403 66.06C78.1549 66.06 77.8896 66.0133 77.6443 65.92C77.3989 65.824 77.1856 65.684 77.0043 65.5C76.8229 65.3133 76.6803 65.084 76.5763 64.812C76.4723 64.5373 76.4202 64.22 76.4202 63.86C76.4202 63.58 76.4656 63.3173 76.5563 63.072C76.6469 62.824 76.7763 62.6093 76.9443 62.428C77.1149 62.244 77.3216 62.0987 77.5643 61.992C77.8096 61.8853 78.0856 61.832 78.3923 61.832C78.6509 61.832 78.8896 61.8733 79.1083 61.956C79.3269 62.0387 79.5149 62.16 79.6723 62.32C79.8296 62.4773 79.9523 62.672 80.0403 62.904C80.1309 63.1333 80.1762 63.396 80.1762 63.692C80.1762 63.8413 80.1603 63.9427 80.1283 63.996C80.0963 64.0467 80.0349 64.072 79.9443 64.072H77.4043ZM81.8417 62.4C81.9244 62.3173 82.011 62.2413 82.1017 62.172C82.195 62.1 82.2924 62.04 82.3937 61.992C82.4977 61.9413 82.6084 61.9027 82.7257 61.876C82.843 61.8467 82.971 61.832 83.1097 61.832C83.3337 61.832 83.5324 61.8707 83.7057 61.948C83.879 62.0227 84.023 62.1293 84.1377 62.268C84.255 62.404 84.343 62.568 84.4017 62.76C84.463 62.9493 84.4937 63.1587 84.4937 63.388V66H83.5057V63.388C83.5057 63.1373 83.4484 62.944 83.3337 62.808C83.219 62.6693 83.0444 62.6 82.8097 62.6C82.639 62.6 82.479 62.6387 82.3297 62.716C82.1804 62.7933 82.039 62.8987 81.9057 63.032V66H80.9177V61.896H81.5217C81.6497 61.896 81.7337 61.956 81.7737 62.076L81.8417 62.4ZM88.0093 62.944C87.8973 62.808 87.7746 62.712 87.6413 62.656C87.5106 62.6 87.3693 62.572 87.2173 62.572C87.068 62.572 86.9333 62.6 86.8133 62.656C86.6933 62.712 86.5906 62.7973 86.5053 62.912C86.42 63.024 86.3546 63.168 86.3093 63.344C86.264 63.5173 86.2413 63.7227 86.2413 63.96C86.2413 64.2 86.26 64.404 86.2973 64.572C86.3373 64.7373 86.3933 64.8733 86.4653 64.98C86.5373 65.084 86.6253 65.16 86.7293 65.208C86.8333 65.2533 86.9493 65.276 87.0773 65.276C87.2826 65.276 87.4573 65.2333 87.6013 65.148C87.7453 65.0627 87.8813 64.9413 88.0093 64.784V62.944ZM88.9973 60.056V66H88.3933C88.2626 66 88.18 65.94 88.1453 65.82L88.0613 65.424C87.896 65.6133 87.7053 65.7667 87.4893 65.884C87.276 66.0013 87.0266 66.06 86.7413 66.06C86.5173 66.06 86.312 66.0133 86.1253 65.92C85.9386 65.8267 85.7773 65.692 85.6413 65.516C85.508 65.3373 85.404 65.1173 85.3293 64.856C85.2573 64.5947 85.2213 64.296 85.2213 63.96C85.2213 63.656 85.2626 63.3733 85.3453 63.112C85.428 62.8507 85.5466 62.624 85.7013 62.432C85.856 62.24 86.0413 62.0907 86.2573 61.984C86.4733 61.8747 86.716 61.82 86.9853 61.82C87.2146 61.82 87.4106 61.856 87.5733 61.928C87.736 62 87.8813 62.0973 88.0093 62.22V60.056H88.9973ZM93.3417 63.296C93.1284 63.4347 92.9724 63.592 92.8737 63.768C92.7777 63.9413 92.7297 64.128 92.7297 64.328C92.7297 64.4747 92.755 64.6067 92.8057 64.724C92.8564 64.8413 92.9244 64.9413 93.0097 65.024C93.0977 65.104 93.199 65.1667 93.3137 65.212C93.431 65.2547 93.555 65.276 93.6857 65.276C93.9204 65.276 94.135 65.24 94.3297 65.168C94.5244 65.0933 94.7004 64.9907 94.8577 64.86L93.3417 63.296ZM97.1937 66H96.2257C96.1244 66 96.0417 65.988 95.9777 65.964C95.9164 65.94 95.851 65.8893 95.7817 65.812L95.3817 65.4C95.1284 65.608 94.8444 65.7707 94.5297 65.888C94.215 66.0053 93.875 66.064 93.5097 66.064C93.2884 66.064 93.0697 66.0267 92.8537 65.952C92.6404 65.8747 92.4497 65.764 92.2817 65.62C92.1137 65.476 91.9777 65.3027 91.8737 65.1C91.7724 64.8947 91.7217 64.664 91.7217 64.408C91.7217 64.2267 91.751 64.056 91.8097 63.896C91.8684 63.7333 91.9497 63.5827 92.0537 63.444C92.1577 63.3053 92.2817 63.1813 92.4257 63.072C92.5697 62.96 92.727 62.864 92.8977 62.784C92.7537 62.584 92.6497 62.3893 92.5857 62.2C92.5217 62.008 92.4897 61.8173 92.4897 61.628C92.4897 61.428 92.5257 61.2387 92.5977 61.06C92.6724 60.8787 92.779 60.7213 92.9177 60.588C93.0564 60.4547 93.227 60.3493 93.4297 60.272C93.6324 60.192 93.8617 60.152 94.1177 60.152C94.3524 60.152 94.5617 60.188 94.7457 60.26C94.9324 60.332 95.091 60.428 95.2217 60.548C95.355 60.668 95.459 60.8053 95.5337 60.96C95.611 61.1147 95.6564 61.2747 95.6697 61.44L95.0417 61.572C94.9244 61.596 94.839 61.5453 94.7857 61.42C94.7617 61.3507 94.7297 61.2853 94.6897 61.224C94.6524 61.16 94.607 61.1053 94.5537 61.06C94.5004 61.012 94.4377 60.9747 94.3657 60.948C94.2937 60.9187 94.211 60.904 94.1177 60.904C94.0057 60.904 93.9057 60.924 93.8177 60.964C93.7297 61.0013 93.655 61.0533 93.5937 61.12C93.535 61.184 93.4897 61.26 93.4577 61.348C93.4257 61.4333 93.4097 61.524 93.4097 61.62C93.4097 61.7 93.4177 61.7773 93.4337 61.852C93.4497 61.9267 93.4764 62.0013 93.5137 62.076C93.551 62.1507 93.599 62.228 93.6577 62.308C93.719 62.3853 93.7937 62.4693 93.8817 62.56L95.4177 64.156C95.5057 63.988 95.5764 63.8107 95.6297 63.624C95.683 63.4373 95.7177 63.248 95.7337 63.056C95.7417 62.9947 95.763 62.9453 95.7977 62.908C95.8324 62.8707 95.8804 62.852 95.9417 62.852H96.5577C96.555 63.204 96.5044 63.54 96.4057 63.86C96.307 64.18 96.1657 64.4747 95.9817 64.744L97.1937 66ZM78.4354 73.1V75.44C78.1421 75.656 77.8288 75.8147 77.4954 75.916C77.1648 76.0147 76.8101 76.064 76.4314 76.064C75.9594 76.064 75.5314 75.9907 75.1474 75.844C74.7661 75.6973 74.4394 75.4933 74.1674 75.232C73.8981 74.9707 73.6901 74.6587 73.5434 74.296C73.3968 73.9333 73.3234 73.5373 73.3234 73.108C73.3234 72.6733 73.3941 72.2747 73.5354 71.912C73.6768 71.5493 73.8768 71.2373 74.1354 70.976C74.3968 70.7147 74.7128 70.512 75.0834 70.368C75.4541 70.224 75.8701 70.152 76.3314 70.152C76.5661 70.152 76.7848 70.1707 76.9874 70.208C77.1928 70.2453 77.3821 70.2973 77.5554 70.364C77.7314 70.428 77.8914 70.5067 78.0354 70.6C78.1794 70.6933 78.3114 70.796 78.4314 70.908L78.1234 71.396C78.0754 71.4733 78.0128 71.5213 77.9354 71.54C77.8581 71.556 77.7741 71.536 77.6834 71.48C77.5954 71.4293 77.5074 71.3787 77.4194 71.328C77.3314 71.2773 77.2328 71.2333 77.1234 71.196C77.0168 71.1587 76.8954 71.128 76.7594 71.104C76.6261 71.08 76.4714 71.068 76.2954 71.068C76.0101 71.068 75.7514 71.116 75.5194 71.212C75.2901 71.308 75.0941 71.4453 74.9314 71.624C74.7688 71.8027 74.6434 72.0173 74.5554 72.268C74.4674 72.5187 74.4234 72.7987 74.4234 73.108C74.4234 73.4387 74.4701 73.7347 74.5634 73.996C74.6594 74.2547 74.7928 74.4747 74.9634 74.656C75.1368 74.8347 75.3448 74.972 75.5874 75.068C75.8301 75.1613 76.1008 75.208 76.3994 75.208C76.6128 75.208 76.8034 75.1853 76.9714 75.14C77.1394 75.0947 77.3034 75.0333 77.4634 74.956V73.908H76.7354C76.6661 73.908 76.6114 73.8893 76.5714 73.852C76.5341 73.812 76.5154 73.764 76.5154 73.708V73.1H78.4354ZM80.3005 70.056V76H79.3125V70.056H80.3005ZM83.1009 71.832C83.4049 71.832 83.6809 71.8813 83.9289 71.98C84.1795 72.0787 84.3929 72.2187 84.5689 72.4C84.7475 72.5813 84.8849 72.8027 84.9809 73.064C85.0769 73.3253 85.1249 73.6173 85.1249 73.94C85.1249 74.2653 85.0769 74.5587 84.9809 74.82C84.8849 75.0813 84.7475 75.304 84.5689 75.488C84.3929 75.672 84.1795 75.8133 83.9289 75.912C83.6809 76.0107 83.4049 76.06 83.1009 76.06C82.7942 76.06 82.5155 76.0107 82.2649 75.912C82.0142 75.8133 81.7995 75.672 81.6209 75.488C81.4449 75.304 81.3075 75.0813 81.2089 74.82C81.1129 74.5587 81.0649 74.2653 81.0649 73.94C81.0649 73.6173 81.1129 73.3253 81.2089 73.064C81.3075 72.8027 81.4449 72.5813 81.6209 72.4C81.7995 72.2187 82.0142 72.0787 82.2649 71.98C82.5155 71.8813 82.7942 71.832 83.1009 71.832ZM83.1009 75.3C83.4422 75.3 83.6942 75.1853 83.8569 74.956C84.0222 74.7267 84.1049 74.3907 84.1049 73.948C84.1049 73.5053 84.0222 73.168 83.8569 72.936C83.6942 72.704 83.4422 72.588 83.1009 72.588C82.7542 72.588 82.4969 72.7053 82.3289 72.94C82.1635 73.172 82.0809 73.508 82.0809 73.948C82.0809 74.388 82.1635 74.724 82.3289 74.956C82.4969 75.1853 82.7542 75.3 83.1009 75.3ZM86.8666 74.936C86.9786 75.072 87.1 75.168 87.2306 75.224C87.364 75.28 87.504 75.308 87.6506 75.308C87.8026 75.308 87.9386 75.2813 88.0586 75.228C88.1813 75.172 88.2853 75.0867 88.3706 74.972C88.456 74.8547 88.5213 74.7067 88.5666 74.528C88.612 74.3467 88.6346 74.1307 88.6346 73.88C88.6346 73.4293 88.56 73.104 88.4106 72.904C88.2613 72.7013 88.0466 72.6 87.7666 72.6C87.5773 72.6 87.412 72.644 87.2706 72.732C87.1293 72.8173 86.9946 72.9387 86.8666 73.096V74.936ZM86.8666 72.4C87.032 72.2267 87.2146 72.0893 87.4146 71.988C87.6173 71.884 87.848 71.832 88.1066 71.832C88.344 71.832 88.5573 71.8787 88.7466 71.972C88.9386 72.0653 89.1013 72.2 89.2346 72.376C89.3706 72.5493 89.4746 72.76 89.5466 73.008C89.6186 73.256 89.6546 73.5347 89.6546 73.844C89.6546 74.1773 89.6133 74.48 89.5306 74.752C89.448 75.024 89.3293 75.2573 89.1746 75.452C89.0226 75.644 88.8386 75.7933 88.6226 75.9C88.4066 76.0067 88.1666 76.06 87.9026 76.06C87.7746 76.06 87.6586 76.0467 87.5546 76.02C87.4506 75.996 87.3546 75.9613 87.2666 75.916C87.1786 75.8707 87.0973 75.816 87.0226 75.752C86.9506 75.6853 86.8813 75.612 86.8146 75.532L86.7706 75.808C86.7546 75.8773 86.7266 75.9267 86.6866 75.956C86.6493 75.9853 86.5973 76 86.5306 76H85.8786V70.056H86.8666V72.4ZM92.5857 74.248C92.3004 74.2613 92.0604 74.2867 91.8657 74.324C91.671 74.3587 91.515 74.404 91.3977 74.46C91.2804 74.516 91.1964 74.5813 91.1457 74.656C91.095 74.7307 91.0697 74.812 91.0697 74.9C91.0697 75.0733 91.1204 75.1973 91.2217 75.272C91.3257 75.3467 91.4604 75.384 91.6257 75.384C91.8284 75.384 92.003 75.348 92.1497 75.276C92.299 75.2013 92.4444 75.0893 92.5857 74.94V74.248ZM90.3217 72.468C90.7937 72.036 91.3617 71.82 92.0257 71.82C92.2657 71.82 92.4804 71.86 92.6697 71.94C92.859 72.0173 93.019 72.1267 93.1497 72.268C93.2804 72.4067 93.379 72.5733 93.4457 72.768C93.515 72.9627 93.5497 73.176 93.5497 73.408V76H93.1017C93.0084 76 92.9364 75.9867 92.8857 75.96C92.835 75.9307 92.795 75.8733 92.7657 75.788L92.6777 75.492C92.5737 75.5853 92.4724 75.668 92.3737 75.74C92.275 75.8093 92.1724 75.868 92.0657 75.916C91.959 75.964 91.8444 76 91.7217 76.024C91.6017 76.0507 91.4684 76.064 91.3217 76.064C91.1484 76.064 90.9884 76.0413 90.8417 75.996C90.695 75.948 90.5684 75.8773 90.4617 75.784C90.355 75.6907 90.2724 75.5747 90.2137 75.436C90.155 75.2973 90.1257 75.136 90.1257 74.952C90.1257 74.848 90.143 74.7453 90.1777 74.644C90.2124 74.54 90.2684 74.4413 90.3457 74.348C90.4257 74.2547 90.5284 74.1667 90.6537 74.084C90.779 74.0013 90.9324 73.9293 91.1137 73.868C91.2977 73.8067 91.511 73.7573 91.7537 73.72C91.9964 73.68 92.2737 73.656 92.5857 73.648V73.408C92.5857 73.1333 92.527 72.9307 92.4097 72.8C92.2924 72.6667 92.123 72.6 91.9017 72.6C91.7417 72.6 91.6084 72.6187 91.5017 72.656C91.3977 72.6933 91.3057 72.736 91.2257 72.784C91.1457 72.8293 91.0724 72.8707 91.0057 72.908C90.9417 72.9453 90.8697 72.964 90.7897 72.964C90.7204 72.964 90.6617 72.9467 90.6137 72.912C90.5657 72.8747 90.527 72.832 90.4977 72.784L90.3217 72.468ZM95.4802 70.056V76H94.4922V70.056H95.4802Z" fill="black"/>
<path opacity="0.5" d="M101.5 56H100.5V79H101.5V56Z" fill="#979797"/>
<path d="M116.942 68.816L116.238 66.892C116.204 66.8067 116.168 66.7053 116.13 66.588C116.093 66.4707 116.056 66.344 116.018 66.208C115.984 66.344 115.948 66.472 115.91 66.592C115.873 66.7093 115.837 66.812 115.802 66.9L115.102 68.816H116.942ZM118.842 71H118.01C117.917 71 117.841 70.9773 117.782 70.932C117.724 70.884 117.68 70.8253 117.65 70.756L117.218 69.576H114.822L114.39 70.756C114.369 70.8173 114.328 70.8733 114.266 70.924C114.205 70.9747 114.129 71 114.038 71H113.198L115.474 65.216H116.57L118.842 71ZM120.277 65.056V71H119.289V65.056H120.277ZM122.261 65.056V71H121.273V65.056H122.261Z" fill="black"/>
<path d="M3.5 55H131.5V54H3.5V55ZM134 57.5V77.5H135V57.5H134ZM131.5 80H3.5V81H131.5V80ZM1 77.5V57.5H0V77.5H1ZM3.5 80C2.11929 80 1 78.8807 1 77.5H0C0 79.433 1.567 81 3.5 81V80ZM134 77.5C134 78.8807 132.881 80 131.5 80V81C133.433 81 135 79.433 135 77.5H134ZM131.5 55C132.881 55 134 56.1193 134 57.5H135C135 55.567 133.433 54 131.5 54V55ZM3.5 54C1.567 54 0 55.567 0 57.5H1C1 56.1193 2.11929 55 3.5 55V54Z" fill="#979797"/>
<path d="M0.5 84.5C0.5 82.8431 1.84315 81.5 3.5 81.5H131.5C133.157 81.5 134.5 82.8431 134.5 84.5V104.5C134.5 106.157 133.157 107.5 131.5 107.5H3.5C1.84314 107.5 0.5 106.157 0.5 104.5V84.5Z" fill="#E3E3E3"/>
<path d="M17.7225 95.108C17.7225 95.532 17.6518 95.9253 17.5105 96.288C17.3718 96.648 17.1745 96.96 16.9185 97.224C16.6625 97.488 16.3545 97.6947 15.9945 97.844C15.6345 97.9907 15.2345 98.064 14.7945 98.064C14.3572 98.064 13.9585 97.9907 13.5985 97.844C13.2385 97.6947 12.9292 97.488 12.6705 97.224C12.4145 96.96 12.2158 96.648 12.0745 96.288C11.9332 95.9253 11.8625 95.532 11.8625 95.108C11.8625 94.684 11.9332 94.292 12.0745 93.932C12.2158 93.5693 12.4145 93.256 12.6705 92.992C12.9292 92.728 13.2385 92.5227 13.5985 92.376C13.9585 92.2267 14.3572 92.152 14.7945 92.152C15.0878 92.152 15.3638 92.1867 15.6225 92.256C15.8812 92.3227 16.1185 92.4187 16.3345 92.544C16.5505 92.6667 16.7438 92.8173 16.9145 92.996C17.0878 93.172 17.2345 93.3693 17.3545 93.588C17.4745 93.8067 17.5652 94.044 17.6265 94.3C17.6905 94.556 17.7225 94.8253 17.7225 95.108ZM16.6225 95.108C16.6225 94.7907 16.5798 94.5067 16.4945 94.256C16.4092 94.0027 16.2878 93.788 16.1305 93.612C15.9732 93.436 15.7812 93.3013 15.5545 93.208C15.3305 93.1147 15.0772 93.068 14.7945 93.068C14.5118 93.068 14.2572 93.1147 14.0305 93.208C13.8065 93.3013 13.6145 93.436 13.4545 93.612C13.2972 93.788 13.1758 94.0027 13.0905 94.256C13.0052 94.5067 12.9625 94.7907 12.9625 95.108C12.9625 95.4253 13.0052 95.7107 13.0905 95.964C13.1758 96.2147 13.2972 96.428 13.4545 96.604C13.6145 96.7773 13.8065 96.9107 14.0305 97.004C14.2572 97.0973 14.5118 97.144 14.7945 97.144C15.0772 97.144 15.3305 97.0973 15.5545 97.004C15.7812 96.9107 15.9732 96.7773 16.1305 96.604C16.2878 96.428 16.4092 96.2147 16.4945 95.964C16.5798 95.7107 16.6225 95.4253 16.6225 95.108ZM18.7526 98V94.64L18.3966 94.584C18.3192 94.568 18.2566 94.5413 18.2086 94.504C18.1632 94.464 18.1406 94.408 18.1406 94.336V93.932H18.7526V93.7C18.7526 93.4653 18.7872 93.2547 18.8566 93.068C18.9286 92.8813 19.0299 92.7227 19.1606 92.592C19.2939 92.4613 19.4552 92.3613 19.6446 92.292C19.8339 92.2227 20.0472 92.188 20.2846 92.188C20.4739 92.188 20.6499 92.2133 20.8126 92.264L20.7926 92.756C20.7899 92.7933 20.7792 92.824 20.7606 92.848C20.7419 92.872 20.7166 92.8907 20.6846 92.904C20.6552 92.9147 20.6206 92.9227 20.5806 92.928C20.5406 92.9307 20.4979 92.932 20.4526 92.932C20.3352 92.932 20.2299 92.9453 20.1366 92.972C20.0459 92.996 19.9686 93.04 19.9046 93.104C19.8406 93.1653 19.7912 93.248 19.7566 93.352C19.7246 93.4533 19.7086 93.58 19.7086 93.732V93.932H21.3446V93.568C21.3446 93.3333 21.3792 93.1227 21.4486 92.936C21.5206 92.7493 21.6219 92.5907 21.7526 92.46C21.8859 92.3293 22.0472 92.2293 22.2366 92.16C22.4259 92.0907 22.6392 92.056 22.8766 92.056C22.9699 92.056 23.0592 92.0627 23.1446 92.076C23.2326 92.0867 23.3192 92.104 23.4046 92.128L23.3806 92.624C23.3752 92.7013 23.3392 92.7507 23.2726 92.772C23.2086 92.7907 23.1326 92.8 23.0446 92.8C22.9272 92.8 22.8219 92.8133 22.7286 92.84C22.6379 92.864 22.5606 92.908 22.4966 92.972C22.4326 93.0333 22.3832 93.116 22.3486 93.22C22.3166 93.3213 22.3006 93.448 22.3006 93.6V93.932H23.3646V94.636H22.3326V98H21.3446V94.636H19.7406V98H18.7526Z" fill="black"/>
<g opacity="0.75">
<rect x="33.5" y="106" width="23" height="1" transform="rotate(-90 33.5 106)" fill="#979797"/>
</g>
<path d="M45.8724 93.268C45.8404 93.324 45.8058 93.3653 45.7684 93.392C45.7338 93.416 45.6898 93.428 45.6364 93.428C45.5804 93.428 45.5191 93.408 45.4524 93.368C45.3884 93.3253 45.3111 93.2787 45.2204 93.228C45.1298 93.1773 45.0231 93.132 44.9004 93.092C44.7804 93.0493 44.6378 93.028 44.4724 93.028C44.3231 93.028 44.1924 93.0467 44.0804 93.084C43.9684 93.1187 43.8738 93.168 43.7964 93.232C43.7218 93.296 43.6658 93.3733 43.6284 93.464C43.5911 93.552 43.5724 93.6493 43.5724 93.756C43.5724 93.892 43.6098 94.0053 43.6844 94.096C43.7618 94.1867 43.8631 94.264 43.9884 94.328C44.1138 94.392 44.2564 94.4493 44.4164 94.5C44.5764 94.5507 44.7404 94.6053 44.9084 94.664C45.0764 94.72 45.2404 94.7867 45.4004 94.864C45.5604 94.9387 45.7031 95.0347 45.8284 95.152C45.9538 95.2667 46.0538 95.408 46.1284 95.576C46.2058 95.744 46.2444 95.948 46.2444 96.188C46.2444 96.4493 46.1991 96.6947 46.1084 96.924C46.0204 97.1507 45.8898 97.3493 45.7164 97.52C45.5458 97.688 45.3364 97.8213 45.0884 97.92C44.8404 98.016 44.5564 98.064 44.2364 98.064C44.0524 98.064 43.8711 98.0453 43.6924 98.008C43.5138 97.9733 43.3418 97.9227 43.1764 97.856C43.0138 97.7893 42.8604 97.7093 42.7164 97.616C42.5724 97.5227 42.4444 97.4187 42.3324 97.304L42.6484 96.788C42.6751 96.7507 42.7098 96.72 42.7524 96.696C42.7951 96.6693 42.8404 96.656 42.8884 96.656C42.9551 96.656 43.0271 96.684 43.1044 96.74C43.1818 96.7933 43.2738 96.8533 43.3804 96.92C43.4871 96.9867 43.6111 97.048 43.7524 97.104C43.8964 97.1573 44.0684 97.184 44.2684 97.184C44.5751 97.184 44.8124 97.112 44.9804 96.968C45.1484 96.8213 45.2324 96.612 45.2324 96.34C45.2324 96.188 45.1938 96.064 45.1164 95.968C45.0418 95.872 44.9418 95.792 44.8164 95.728C44.6911 95.6613 44.5484 95.6053 44.3884 95.56C44.2284 95.5147 44.0658 95.4653 43.9004 95.412C43.7351 95.3587 43.5724 95.2947 43.4124 95.22C43.2524 95.1453 43.1098 95.048 42.9844 94.928C42.8591 94.808 42.7578 94.6587 42.6804 94.48C42.6058 94.2987 42.5684 94.076 42.5684 93.812C42.5684 93.6013 42.6098 93.396 42.6924 93.196C42.7778 92.996 42.9004 92.8187 43.0604 92.664C43.2204 92.5093 43.4178 92.3853 43.6524 92.292C43.8871 92.1987 44.1564 92.152 44.4604 92.152C44.8018 92.152 45.1164 92.2053 45.4044 92.312C45.6924 92.4187 45.9378 92.568 46.1404 92.76L45.8724 93.268ZM49.6554 95.476C49.6554 95.348 49.6368 95.228 49.5994 95.116C49.5648 95.0013 49.5114 94.9013 49.4394 94.816C49.3674 94.7307 49.2754 94.664 49.1634 94.616C49.0541 94.5653 48.9261 94.54 48.7794 94.54C48.4941 94.54 48.2688 94.6213 48.1034 94.784C47.9408 94.9467 47.8368 95.1773 47.7914 95.476H49.6554ZM47.7714 96.072C47.7874 96.2827 47.8248 96.4653 47.8834 96.62C47.9421 96.772 48.0194 96.8987 48.1154 97C48.2114 97.0987 48.3248 97.1733 48.4554 97.224C48.5888 97.272 48.7354 97.296 48.8954 97.296C49.0554 97.296 49.1928 97.2773 49.3074 97.24C49.4248 97.2027 49.5261 97.1613 49.6114 97.116C49.6994 97.0707 49.7754 97.0293 49.8394 96.992C49.9061 96.9547 49.9701 96.936 50.0314 96.936C50.1141 96.936 50.1754 96.9667 50.2154 97.028L50.4994 97.388C50.3901 97.516 50.2674 97.624 50.1314 97.712C49.9954 97.7973 49.8528 97.8667 49.7034 97.92C49.5568 97.9707 49.4061 98.0067 49.2514 98.028C49.0994 98.0493 48.9514 98.06 48.8074 98.06C48.5221 98.06 48.2568 98.0133 48.0114 97.92C47.7661 97.824 47.5528 97.684 47.3714 97.5C47.1901 97.3133 47.0474 97.084 46.9434 96.812C46.8394 96.5373 46.7874 96.22 46.7874 95.86C46.7874 95.58 46.8328 95.3173 46.9234 95.072C47.0141 94.824 47.1434 94.6093 47.3114 94.428C47.4821 94.244 47.6888 94.0987 47.9314 93.992C48.1768 93.8853 48.4528 93.832 48.7594 93.832C49.0181 93.832 49.2568 93.8733 49.4754 93.956C49.6941 94.0387 49.8821 94.16 50.0394 94.32C50.1968 94.4773 50.3194 94.672 50.4074 94.904C50.4981 95.1333 50.5434 95.396 50.5434 95.692C50.5434 95.8413 50.5274 95.9427 50.4954 95.996C50.4634 96.0467 50.4021 96.072 50.3114 96.072H47.7714ZM52.2089 94.4C52.2915 94.3173 52.3782 94.2413 52.4689 94.172C52.5622 94.1 52.6595 94.04 52.7609 93.992C52.8649 93.9413 52.9755 93.9027 53.0929 93.876C53.2102 93.8467 53.3382 93.832 53.4769 93.832C53.7009 93.832 53.8995 93.8707 54.0729 93.948C54.2462 94.0227 54.3902 94.1293 54.5049 94.268C54.6222 94.404 54.7102 94.568 54.7689 94.76C54.8302 94.9493 54.8609 95.1587 54.8609 95.388V98H53.8729V95.388C53.8729 95.1373 53.8155 94.944 53.7009 94.808C53.5862 94.6693 53.4115 94.6 53.1769 94.6C53.0062 94.6 52.8462 94.6387 52.6969 94.716C52.5475 94.7933 52.4062 94.8987 52.2729 95.032V98H51.2849V93.896H51.8889C52.0169 93.896 52.1009 93.956 52.1409 94.076L52.2089 94.4ZM58.3765 94.944C58.2645 94.808 58.1418 94.712 58.0085 94.656C57.8778 94.6 57.7365 94.572 57.5845 94.572C57.4352 94.572 57.3005 94.6 57.1805 94.656C57.0605 94.712 56.9578 94.7973 56.8725 94.912C56.7872 95.024 56.7218 95.168 56.6765 95.344C56.6312 95.5173 56.6085 95.7227 56.6085 95.96C56.6085 96.2 56.6272 96.404 56.6645 96.572C56.7045 96.7373 56.7605 96.8733 56.8325 96.98C56.9045 97.084 56.9925 97.16 57.0965 97.208C57.2005 97.2533 57.3165 97.276 57.4445 97.276C57.6498 97.276 57.8245 97.2333 57.9685 97.148C58.1125 97.0627 58.2485 96.9413 58.3765 96.784V94.944ZM59.3645 92.056V98H58.7605C58.6298 98 58.5472 97.94 58.5125 97.82L58.4285 97.424C58.2632 97.6133 58.0725 97.7667 57.8565 97.884C57.6432 98.0013 57.3938 98.06 57.1085 98.06C56.8845 98.06 56.6792 98.0133 56.4925 97.92C56.3058 97.8267 56.1445 97.692 56.0085 97.516C55.8752 97.3373 55.7712 97.1173 55.6965 96.856C55.6245 96.5947 55.5885 96.296 55.5885 95.96C55.5885 95.656 55.6298 95.3733 55.7125 95.112C55.7952 94.8507 55.9138 94.624 56.0685 94.432C56.2232 94.24 56.4085 94.0907 56.6245 93.984C56.8405 93.8747 57.0832 93.82 57.3525 93.82C57.5818 93.82 57.7778 93.856 57.9405 93.928C58.1032 94 58.2485 94.0973 58.3765 94.22V92.056H59.3645Z" fill="black"/>
<g opacity="0.75">
<rect x="67" y="106" width="23" height="1" transform="rotate(-90 67 106)" fill="#979797"/>
</g>
<path d="M75.5053 88.268C75.4733 88.324 75.4386 88.3653 75.4013 88.392C75.3666 88.416 75.3226 88.428 75.2693 88.428C75.2133 88.428 75.1519 88.408 75.0853 88.368C75.0213 88.3253 74.9439 88.2787 74.8533 88.228C74.7626 88.1773 74.6559 88.132 74.5333 88.092C74.4133 88.0493 74.2706 88.028 74.1053 88.028C73.9559 88.028 73.8253 88.0467 73.7133 88.084C73.6013 88.1187 73.5066 88.168 73.4293 88.232C73.3546 88.296 73.2986 88.3733 73.2613 88.464C73.2239 88.552 73.2053 88.6493 73.2053 88.756C73.2053 88.892 73.2426 89.0053 73.3173 89.096C73.3946 89.1867 73.4959 89.264 73.6213 89.328C73.7466 89.392 73.8893 89.4493 74.0493 89.5C74.2093 89.5507 74.3733 89.6053 74.5413 89.664C74.7093 89.72 74.8733 89.7867 75.0333 89.864C75.1933 89.9387 75.3359 90.0347 75.4613 90.152C75.5866 90.2667 75.6866 90.408 75.7613 90.576C75.8386 90.744 75.8773 90.948 75.8773 91.188C75.8773 91.4493 75.8319 91.6947 75.7413 91.924C75.6533 92.1507 75.5226 92.3493 75.3493 92.52C75.1786 92.688 74.9693 92.8213 74.7213 92.92C74.4733 93.016 74.1893 93.064 73.8693 93.064C73.6853 93.064 73.5039 93.0453 73.3253 93.008C73.1466 92.9733 72.9746 92.9227 72.8092 92.856C72.6466 92.7893 72.4933 92.7093 72.3493 92.616C72.2053 92.5227 72.0773 92.4187 71.9653 92.304L72.2812 91.788C72.3079 91.7507 72.3426 91.72 72.3853 91.696C72.4279 91.6693 72.4733 91.656 72.5213 91.656C72.5879 91.656 72.6599 91.684 72.7373 91.74C72.8146 91.7933 72.9066 91.8533 73.0133 91.92C73.1199 91.9867 73.2439 92.048 73.3853 92.104C73.5293 92.1573 73.7013 92.184 73.9013 92.184C74.2079 92.184 74.4453 92.112 74.6133 91.968C74.7813 91.8213 74.8653 91.612 74.8653 91.34C74.8653 91.188 74.8266 91.064 74.7493 90.968C74.6746 90.872 74.5746 90.792 74.4493 90.728C74.3239 90.6613 74.1813 90.6053 74.0213 90.56C73.8613 90.5147 73.6986 90.4653 73.5333 90.412C73.3679 90.3587 73.2053 90.2947 73.0453 90.22C72.8853 90.1453 72.7426 90.048 72.6173 89.928C72.4919 89.808 72.3906 89.6587 72.3133 89.48C72.2386 89.2987 72.2013 89.076 72.2013 88.812C72.2013 88.6013 72.2426 88.396 72.3253 88.196C72.4106 87.996 72.5333 87.8187 72.6933 87.664C72.8533 87.5093 73.0506 87.3853 73.2853 87.292C73.5199 87.1987 73.7893 87.152 74.0933 87.152C74.4346 87.152 74.7493 87.2053 75.0373 87.312C75.3253 87.4187 75.5706 87.568 75.7733 87.76L75.5053 88.268ZM79.2883 90.476C79.2883 90.348 79.2696 90.228 79.2323 90.116C79.1976 90.0013 79.1443 89.9013 79.0723 89.816C79.0003 89.7307 78.9083 89.664 78.7963 89.616C78.6869 89.5653 78.5589 89.54 78.4123 89.54C78.1269 89.54 77.9016 89.6213 77.7363 89.784C77.5736 89.9467 77.4696 90.1773 77.4243 90.476H79.2883ZM77.4043 91.072C77.4203 91.2827 77.4576 91.4653 77.5163 91.62C77.5749 91.772 77.6523 91.8987 77.7483 92C77.8443 92.0987 77.9576 92.1733 78.0883 92.224C78.2216 92.272 78.3683 92.296 78.5283 92.296C78.6883 92.296 78.8256 92.2773 78.9403 92.24C79.0576 92.2027 79.1589 92.1613 79.2443 92.116C79.3323 92.0707 79.4083 92.0293 79.4723 91.992C79.5389 91.9547 79.6029 91.936 79.6643 91.936C79.7469 91.936 79.8083 91.9667 79.8483 92.028L80.1323 92.388C80.0229 92.516 79.9003 92.624 79.7643 92.712C79.6283 92.7973 79.4856 92.8667 79.3363 92.92C79.1896 92.9707 79.0389 93.0067 78.8843 93.028C78.7323 93.0493 78.5843 93.06 78.4403 93.06C78.1549 93.06 77.8896 93.0133 77.6443 92.92C77.3989 92.824 77.1856 92.684 77.0043 92.5C76.8229 92.3133 76.6803 92.084 76.5763 91.812C76.4723 91.5373 76.4202 91.22 76.4202 90.86C76.4202 90.58 76.4656 90.3173 76.5563 90.072C76.6469 89.824 76.7763 89.6093 76.9443 89.428C77.1149 89.244 77.3216 89.0987 77.5643 88.992C77.8096 88.8853 78.0856 88.832 78.3923 88.832C78.6509 88.832 78.8896 88.8733 79.1083 88.956C79.3269 89.0387 79.5149 89.16 79.6723 89.32C79.8296 89.4773 79.9523 89.672 80.0403 89.904C80.1309 90.1333 80.1762 90.396 80.1762 90.692C80.1762 90.8413 80.1603 90.9427 80.1283 90.996C80.0963 91.0467 80.0349 91.072 79.9443 91.072H77.4043ZM81.8417 89.4C81.9244 89.3173 82.011 89.2413 82.1017 89.172C82.195 89.1 82.2924 89.04 82.3937 88.992C82.4977 88.9413 82.6084 88.9027 82.7257 88.876C82.843 88.8467 82.971 88.832 83.1097 88.832C83.3337 88.832 83.5324 88.8707 83.7057 88.948C83.879 89.0227 84.023 89.1293 84.1377 89.268C84.255 89.404 84.343 89.568 84.4017 89.76C84.463 89.9493 84.4937 90.1587 84.4937 90.388V93H83.5057V90.388C83.5057 90.1373 83.4484 89.944 83.3337 89.808C83.219 89.6693 83.0444 89.6 82.8097 89.6C82.639 89.6 82.479 89.6387 82.3297 89.716C82.1804 89.7933 82.039 89.8987 81.9057 90.032V93H80.9177V88.896H81.5217C81.6497 88.896 81.7337 88.956 81.7737 89.076L81.8417 89.4ZM88.0093 89.944C87.8973 89.808 87.7746 89.712 87.6413 89.656C87.5106 89.6 87.3693 89.572 87.2173 89.572C87.068 89.572 86.9333 89.6 86.8133 89.656C86.6933 89.712 86.5906 89.7973 86.5053 89.912C86.42 90.024 86.3546 90.168 86.3093 90.344C86.264 90.5173 86.2413 90.7227 86.2413 90.96C86.2413 91.2 86.26 91.404 86.2973 91.572C86.3373 91.7373 86.3933 91.8733 86.4653 91.98C86.5373 92.084 86.6253 92.16 86.7293 92.208C86.8333 92.2533 86.9493 92.276 87.0773 92.276C87.2826 92.276 87.4573 92.2333 87.6013 92.148C87.7453 92.0627 87.8813 91.9413 88.0093 91.784V89.944ZM88.9973 87.056V93H88.3933C88.2626 93 88.18 92.94 88.1453 92.82L88.0613 92.424C87.896 92.6133 87.7053 92.7667 87.4893 92.884C87.276 93.0013 87.0266 93.06 86.7413 93.06C86.5173 93.06 86.312 93.0133 86.1253 92.92C85.9386 92.8267 85.7773 92.692 85.6413 92.516C85.508 92.3373 85.404 92.1173 85.3293 91.856C85.2573 91.5947 85.2213 91.296 85.2213 90.96C85.2213 90.656 85.2626 90.3733 85.3453 90.112C85.428 89.8507 85.5466 89.624 85.7013 89.432C85.856 89.24 86.0413 89.0907 86.2573 88.984C86.4733 88.8747 86.716 88.82 86.9853 88.82C87.2146 88.82 87.4106 88.856 87.5733 88.928C87.736 89 87.8813 89.0973 88.0093 89.22V87.056H88.9973ZM93.3417 90.296C93.1284 90.4347 92.9724 90.592 92.8737 90.768C92.7777 90.9413 92.7297 91.128 92.7297 91.328C92.7297 91.4747 92.755 91.6067 92.8057 91.724C92.8564 91.8413 92.9244 91.9413 93.0097 92.024C93.0977 92.104 93.199 92.1667 93.3137 92.212C93.431 92.2547 93.555 92.276 93.6857 92.276C93.9204 92.276 94.135 92.24 94.3297 92.168C94.5244 92.0933 94.7004 91.9907 94.8577 91.86L93.3417 90.296ZM97.1937 93H96.2257C96.1244 93 96.0417 92.988 95.9777 92.964C95.9164 92.94 95.851 92.8893 95.7817 92.812L95.3817 92.4C95.1284 92.608 94.8444 92.7707 94.5297 92.888C94.215 93.0053 93.875 93.064 93.5097 93.064C93.2884 93.064 93.0697 93.0267 92.8537 92.952C92.6404 92.8747 92.4497 92.764 92.2817 92.62C92.1137 92.476 91.9777 92.3027 91.8737 92.1C91.7724 91.8947 91.7217 91.664 91.7217 91.408C91.7217 91.2267 91.751 91.056 91.8097 90.896C91.8684 90.7333 91.9497 90.5827 92.0537 90.444C92.1577 90.3053 92.2817 90.1813 92.4257 90.072C92.5697 89.96 92.727 89.864 92.8977 89.784C92.7537 89.584 92.6497 89.3893 92.5857 89.2C92.5217 89.008 92.4897 88.8173 92.4897 88.628C92.4897 88.428 92.5257 88.2387 92.5977 88.06C92.6724 87.8787 92.779 87.7213 92.9177 87.588C93.0564 87.4547 93.227 87.3493 93.4297 87.272C93.6324 87.192 93.8617 87.152 94.1177 87.152C94.3524 87.152 94.5617 87.188 94.7457 87.26C94.9324 87.332 95.091 87.428 95.2217 87.548C95.355 87.668 95.459 87.8053 95.5337 87.96C95.611 88.1147 95.6564 88.2747 95.6697 88.44L95.0417 88.572C94.9244 88.596 94.839 88.5453 94.7857 88.42C94.7617 88.3507 94.7297 88.2853 94.6897 88.224C94.6524 88.16 94.607 88.1053 94.5537 88.06C94.5004 88.012 94.4377 87.9747 94.3657 87.948C94.2937 87.9187 94.211 87.904 94.1177 87.904C94.0057 87.904 93.9057 87.924 93.8177 87.964C93.7297 88.0013 93.655 88.0533 93.5937 88.12C93.535 88.184 93.4897 88.26 93.4577 88.348C93.4257 88.4333 93.4097 88.524 93.4097 88.62C93.4097 88.7 93.4177 88.7773 93.4337 88.852C93.4497 88.9267 93.4764 89.0013 93.5137 89.076C93.551 89.1507 93.599 89.228 93.6577 89.308C93.719 89.3853 93.7937 89.4693 93.8817 89.56L95.4177 91.156C95.5057 90.988 95.5764 90.8107 95.6297 90.624C95.683 90.4373 95.7177 90.248 95.7337 90.056C95.7417 89.9947 95.763 89.9453 95.7977 89.908C95.8324 89.8707 95.8804 89.852 95.9417 89.852H96.5577C96.555 90.204 96.5044 90.54 96.4057 90.86C96.307 91.18 96.1657 91.4747 95.9817 91.744L97.1937 93ZM78.4354 100.1V102.44C78.1421 102.656 77.8288 102.815 77.4954 102.916C77.1648 103.015 76.8101 103.064 76.4314 103.064C75.9594 103.064 75.5314 102.991 75.1474 102.844C74.7661 102.697 74.4394 102.493 74.1674 102.232C73.8981 101.971 73.6901 101.659 73.5434 101.296C73.3968 100.933 73.3234 100.537 73.3234 100.108C73.3234 99.6733 73.3941 99.2747 73.5354 98.912C73.6768 98.5493 73.8768 98.2373 74.1354 97.976C74.3968 97.7147 74.7128 97.512 75.0834 97.368C75.4541 97.224 75.8701 97.152 76.3314 97.152C76.5661 97.152 76.7848 97.1707 76.9874 97.208C77.1928 97.2453 77.3821 97.2973 77.5554 97.364C77.7314 97.428 77.8914 97.5067 78.0354 97.6C78.1794 97.6933 78.3114 97.796 78.4314 97.908L78.1234 98.396C78.0754 98.4733 78.0128 98.5213 77.9354 98.54C77.8581 98.556 77.7741 98.536 77.6834 98.48C77.5954 98.4293 77.5074 98.3787 77.4194 98.328C77.3314 98.2773 77.2328 98.2333 77.1234 98.196C77.0168 98.1587 76.8954 98.128 76.7594 98.104C76.6261 98.08 76.4714 98.068 76.2954 98.068C76.0101 98.068 75.7514 98.116 75.5194 98.212C75.2901 98.308 75.0941 98.4453 74.9314 98.624C74.7688 98.8027 74.6434 99.0173 74.5554 99.268C74.4674 99.5187 74.4234 99.7987 74.4234 100.108C74.4234 100.439 74.4701 100.735 74.5634 100.996C74.6594 101.255 74.7928 101.475 74.9634 101.656C75.1368 101.835 75.3448 101.972 75.5874 102.068C75.8301 102.161 76.1008 102.208 76.3994 102.208C76.6128 102.208 76.8034 102.185 76.9714 102.14C77.1394 102.095 77.3034 102.033 77.4634 101.956V100.908H76.7354C76.6661 100.908 76.6114 100.889 76.5714 100.852C76.5341 100.812 76.5154 100.764 76.5154 100.708V100.1H78.4354ZM80.3005 97.056V103H79.3125V97.056H80.3005ZM83.1009 98.832C83.4049 98.832 83.6809 98.8813 83.9289 98.98C84.1795 99.0787 84.3929 99.2187 84.5689 99.4C84.7475 99.5813 84.8849 99.8027 84.9809 100.064C85.0769 100.325 85.1249 100.617 85.1249 100.94C85.1249 101.265 85.0769 101.559 84.9809 101.82C84.8849 102.081 84.7475 102.304 84.5689 102.488C84.3929 102.672 84.1795 102.813 83.9289 102.912C83.6809 103.011 83.4049 103.06 83.1009 103.06C82.7942 103.06 82.5155 103.011 82.2649 102.912C82.0142 102.813 81.7995 102.672 81.6209 102.488C81.4449 102.304 81.3075 102.081 81.2089 101.82C81.1129 101.559 81.0649 101.265 81.0649 100.94C81.0649 100.617 81.1129 100.325 81.2089 100.064C81.3075 99.8027 81.4449 99.5813 81.6209 99.4C81.7995 99.2187 82.0142 99.0787 82.2649 98.98C82.5155 98.8813 82.7942 98.832 83.1009 98.832ZM83.1009 102.3C83.4422 102.3 83.6942 102.185 83.8569 101.956C84.0222 101.727 84.1049 101.391 84.1049 100.948C84.1049 100.505 84.0222 100.168 83.8569 99.936C83.6942 99.704 83.4422 99.588 83.1009 99.588C82.7542 99.588 82.4969 99.7053 82.3289 99.94C82.1635 100.172 82.0809 100.508 82.0809 100.948C82.0809 101.388 82.1635 101.724 82.3289 101.956C82.4969 102.185 82.7542 102.3 83.1009 102.3ZM86.8666 101.936C86.9786 102.072 87.1 102.168 87.2306 102.224C87.364 102.28 87.504 102.308 87.6506 102.308C87.8026 102.308 87.9386 102.281 88.0586 102.228C88.1813 102.172 88.2853 102.087 88.3706 101.972C88.456 101.855 88.5213 101.707 88.5666 101.528C88.612 101.347 88.6346 101.131 88.6346 100.88C88.6346 100.429 88.56 100.104 88.4106 99.904C88.2613 99.7013 88.0466 99.6 87.7666 99.6C87.5773 99.6 87.412 99.644 87.2706 99.732C87.1293 99.8173 86.9946 99.9387 86.8666 100.096V101.936ZM86.8666 99.4C87.032 99.2267 87.2146 99.0893 87.4146 98.988C87.6173 98.884 87.848 98.832 88.1066 98.832C88.344 98.832 88.5573 98.8787 88.7466 98.972C88.9386 99.0653 89.1013 99.2 89.2346 99.376C89.3706 99.5493 89.4746 99.76 89.5466 100.008C89.6186 100.256 89.6546 100.535 89.6546 100.844C89.6546 101.177 89.6133 101.48 89.5306 101.752C89.448 102.024 89.3293 102.257 89.1746 102.452C89.0226 102.644 88.8386 102.793 88.6226 102.9C88.4066 103.007 88.1666 103.06 87.9026 103.06C87.7746 103.06 87.6586 103.047 87.5546 103.02C87.4506 102.996 87.3546 102.961 87.2666 102.916C87.1786 102.871 87.0973 102.816 87.0226 102.752C86.9506 102.685 86.8813 102.612 86.8146 102.532L86.7706 102.808C86.7546 102.877 86.7266 102.927 86.6866 102.956C86.6493 102.985 86.5973 103 86.5306 103H85.8786V97.056H86.8666V99.4ZM92.5857 101.248C92.3004 101.261 92.0604 101.287 91.8657 101.324C91.671 101.359 91.515 101.404 91.3977 101.46C91.2804 101.516 91.1964 101.581 91.1457 101.656C91.095 101.731 91.0697 101.812 91.0697 101.9C91.0697 102.073 91.1204 102.197 91.2217 102.272C91.3257 102.347 91.4604 102.384 91.6257 102.384C91.8284 102.384 92.003 102.348 92.1497 102.276C92.299 102.201 92.4444 102.089 92.5857 101.94V101.248ZM90.3217 99.468C90.7937 99.036 91.3617 98.82 92.0257 98.82C92.2657 98.82 92.4804 98.86 92.6697 98.94C92.859 99.0173 93.019 99.1267 93.1497 99.268C93.2804 99.4067 93.379 99.5733 93.4457 99.768C93.515 99.9627 93.5497 100.176 93.5497 100.408V103H93.1017C93.0084 103 92.9364 102.987 92.8857 102.96C92.835 102.931 92.795 102.873 92.7657 102.788L92.6777 102.492C92.5737 102.585 92.4724 102.668 92.3737 102.74C92.275 102.809 92.1724 102.868 92.0657 102.916C91.959 102.964 91.8444 103 91.7217 103.024C91.6017 103.051 91.4684 103.064 91.3217 103.064C91.1484 103.064 90.9884 103.041 90.8417 102.996C90.695 102.948 90.5684 102.877 90.4617 102.784C90.355 102.691 90.2724 102.575 90.2137 102.436C90.155 102.297 90.1257 102.136 90.1257 101.952C90.1257 101.848 90.143 101.745 90.1777 101.644C90.2124 101.54 90.2684 101.441 90.3457 101.348C90.4257 101.255 90.5284 101.167 90.6537 101.084C90.779 101.001 90.9324 100.929 91.1137 100.868C91.2977 100.807 91.511 100.757 91.7537 100.72C91.9964 100.68 92.2737 100.656 92.5857 100.648V100.408C92.5857 100.133 92.527 99.9307 92.4097 99.8C92.2924 99.6667 92.123 99.6 91.9017 99.6C91.7417 99.6 91.6084 99.6187 91.5017 99.656C91.3977 99.6933 91.3057 99.736 91.2257 99.784C91.1457 99.8293 91.0724 99.8707 91.0057 99.908C90.9417 99.9453 90.8697 99.964 90.7897 99.964C90.7204 99.964 90.6617 99.9467 90.6137 99.912C90.5657 99.8747 90.527 99.832 90.4977 99.784L90.3217 99.468ZM95.4802 97.056V103H94.4922V97.056H95.4802Z" fill="black"/>
<path opacity="0.5" d="M101.5 83H100.5V106H101.5V83Z" fill="#979797"/>
<path d="M102.5 86C102.5 84.3431 103.843 83 105.5 83H130C131.657 83 133 84.3431 133 86V103C133 104.657 131.657 106 130 106H105.5C103.843 106 102.5 104.657 102.5 103V86Z" fill="#FF9300"/>
<path d="M116.942 95.816L116.238 93.892C116.204 93.8067 116.168 93.7053 116.13 93.588C116.093 93.4707 116.056 93.344 116.018 93.208C115.984 93.344 115.948 93.472 115.91 93.592C115.873 93.7093 115.837 93.812 115.802 93.9L115.102 95.816H116.942ZM118.842 98H118.01C117.917 98 117.841 97.9773 117.782 97.932C117.724 97.884 117.68 97.8253 117.65 97.756L117.218 96.576H114.822L114.39 97.756C114.369 97.8173 114.328 97.8733 114.266 97.924C114.205 97.9747 114.129 98 114.038 98H113.198L115.474 92.216H116.57L118.842 98ZM120.277 92.056V98H119.289V92.056H120.277ZM122.261 92.056V98H121.273V92.056H122.261Z" fill="black"/>
<path d="M3.5 82H131.5V81H3.5V82ZM134 84.5V104.5H135V84.5H134ZM131.5 107H3.5V108H131.5V107ZM1 104.5V84.5H0V104.5H1ZM3.5 107C2.11929 107 1 105.881 1 104.5H0C0 106.433 1.567 108 3.5 108V107ZM134 104.5C134 105.881 132.881 107 131.5 107V108C133.433 108 135 106.433 135 104.5H134ZM131.5 82C132.881 82 134 83.1193 134 84.5H135C135 82.567 133.433 81 131.5 81V82ZM3.5 81C1.567 81 0 82.567 0 84.5H1C1 83.1193 2.11929 82 3.5 82V81Z" fill="#979797"/>
</svg>
