<svg width="94" height="45" viewBox="0 0 94 45" fill="none" xmlns="http://www.w3.org/2000/svg">
<path d="M0.5 3.5C0.5 1.84315 1.84315 0.5 3.5 0.5H90.5C92.1569 0.5 93.5 1.84315 93.5 3.5V11.5C93.5 13.1569 92.1569 14.5 90.5 14.5H3.5C1.84315 14.5 0.5 13.1569 0.5 11.5V3.5Z" fill="#E3E3E3"/>
<path d="M2 5.5C2 3.84315 3.34315 2.5 5 2.5H27C28.6569 2.5 30 3.84315 30 5.5V9.5C30 11.1569 28.6569 12.5 27 12.5H5C3.34315 12.5 2 11.1569 2 9.5V5.5Z" fill="#FF9300"/>
<path d="M9.02088 5.768C8.98888 5.824 8.95421 5.86533 8.91688 5.892C8.88221 5.916 8.83821 5.928 8.78488 5.928C8.72888 5.928 8.66754 5.908 8.60088 5.868C8.53688 5.82533 8.45954 5.77867 8.36888 5.728C8.27821 5.67733 8.17154 5.632 8.04888 5.592C7.92888 5.54933 7.78621 5.528 7.62088 5.528C7.47154 5.528 7.34088 5.54667 7.22888 5.584C7.11688 5.61867 7.02221 5.668 6.94488 5.732C6.87021 5.796 6.81421 5.87333 6.77688 5.964C6.73954 6.052 6.72088 6.14933 6.72088 6.256C6.72088 6.392 6.75821 6.50533 6.83288 6.596C6.91021 6.68667 7.01154 6.764 7.13688 6.828C7.26221 6.892 7.40488 6.94933 7.56488 7C7.72488 7.05067 7.88888 7.10533 8.05688 7.164C8.22488 7.22 8.38888 7.28667 8.54888 7.364C8.70888 7.43867 8.85154 7.53467 8.97688 7.652C9.10221 7.76667 9.20221 7.908 9.27688 8.076C9.35421 8.244 9.39288 8.448 9.39288 8.688C9.39288 8.94933 9.34754 9.19467 9.25688 9.424C9.16888 9.65067 9.03821 9.84933 8.86488 10.02C8.69421 10.188 8.48488 10.3213 8.23688 10.42C7.98888 10.516 7.70488 10.564 7.38488 10.564C7.20088 10.564 7.01954 10.5453 6.84088 10.508C6.66221 10.4733 6.49021 10.4227 6.32487 10.356C6.16221 10.2893 6.00888 10.2093 5.86488 10.116C5.72088 10.0227 5.59288 9.91867 5.48088 9.804L5.79688 9.288C5.82354 9.25067 5.85821 9.22 5.90088 9.196C5.94354 9.16933 5.98888 9.156 6.03688 9.156C6.10354 9.156 6.17554 9.184 6.25288 9.24C6.33021 9.29333 6.42221 9.35333 6.52888 9.42C6.63554 9.48667 6.75954 9.548 6.90088 9.604C7.04488 9.65733 7.21688 9.684 7.41688 9.684C7.72354 9.684 7.96088 9.612 8.12888 9.468C8.29688 9.32133 8.38088 9.112 8.38088 8.84C8.38088 8.688 8.34221 8.564 8.26488 8.468C8.19021 8.372 8.09021 8.292 7.96488 8.228C7.83954 8.16133 7.69688 8.10533 7.53688 8.06C7.37688 8.01467 7.21421 7.96533 7.04888 7.912C6.88354 7.85867 6.72088 7.79467 6.56088 7.72C6.40088 7.64533 6.25821 7.548 6.13288 7.428C6.00754 7.308 5.90621 7.15867 5.82888 6.98C5.75421 6.79867 5.71688 6.576 5.71688 6.312C5.71688 6.10133 5.75821 5.896 5.84088 5.696C5.92621 5.496 6.04888 5.31867 6.20888 5.164C6.36888 5.00933 6.56621 4.88533 6.80088 4.792C7.03554 4.69867 7.30488 4.652 7.60888 4.652C7.95021 4.652 8.26488 4.70533 8.55288 4.812C8.84088 4.91867 9.08621 5.068 9.28888 5.26L9.02088 5.768ZM11.1839 6.396V10.5H10.1919V6.396H11.1839ZM11.3199 5.2C11.3199 5.28533 11.3025 5.36533 11.2679 5.44C11.2332 5.51467 11.1865 5.58 11.1279 5.636C11.0719 5.692 11.0052 5.73733 10.9279 5.772C10.8505 5.804 10.7679 5.82 10.6799 5.82C10.5945 5.82 10.5132 5.804 10.4359 5.772C10.3612 5.73733 10.2959 5.692 10.2399 5.636C10.1839 5.58 10.1385 5.51467 10.1039 5.44C10.0719 5.36533 10.0559 5.28533 10.0559 5.2C10.0559 5.112 10.0719 5.02933 10.1039 4.952C10.1385 4.87467 10.1839 4.808 10.2399 4.752C10.2959 4.696 10.3612 4.652 10.4359 4.62C10.5132 4.58533 10.5945 4.568 10.6799 4.568C10.7679 4.568 10.8505 4.58533 10.9279 4.62C11.0052 4.652 11.0719 4.696 11.1279 4.752C11.1865 4.808 11.2332 4.87467 11.2679 4.952C11.3025 5.02933 11.3199 5.112 11.3199 5.2ZM13.1151 6.9C13.1978 6.81733 13.2845 6.74133 13.3751 6.672C13.4685 6.6 13.5658 6.54 13.6671 6.492C13.7711 6.44133 13.8818 6.40267 13.9991 6.376C14.1165 6.34667 14.2445 6.332 14.3831 6.332C14.6071 6.332 14.8058 6.37067 14.9791 6.448C15.1525 6.52267 15.2965 6.62933 15.4111 6.768C15.5285 6.904 15.6165 7.068 15.6751 7.26C15.7365 7.44933 15.7671 7.65867 15.7671 7.888V10.5H14.7791V7.888C14.7791 7.63733 14.7218 7.444 14.6071 7.308C14.4925 7.16933 14.3178 7.1 14.0831 7.1C13.9125 7.1 13.7525 7.13867 13.6031 7.216C13.4538 7.29333 13.3125 7.39867 13.1791 7.532V10.5H12.1911V6.396H12.7951C12.9231 6.396 13.0071 6.456 13.0471 6.576L13.1151 6.9ZM18.2068 8.348C18.3294 8.348 18.4361 8.332 18.5268 8.3C18.6174 8.26533 18.6921 8.21867 18.7508 8.16C18.8121 8.10133 18.8574 8.03067 18.8868 7.948C18.9188 7.86533 18.9348 7.77467 18.9348 7.676C18.9348 7.47333 18.8734 7.31333 18.7508 7.196C18.6308 7.076 18.4494 7.016 18.2068 7.016C17.9641 7.016 17.7814 7.076 17.6588 7.196C17.5388 7.31333 17.4788 7.47333 17.4788 7.676C17.4788 7.772 17.4934 7.86133 17.5228 7.944C17.5548 8.02667 17.6001 8.09867 17.6588 8.16C17.7201 8.21867 17.7961 8.26533 17.8868 8.3C17.9801 8.332 18.0868 8.348 18.2068 8.348ZM19.3228 10.684C19.3228 10.604 19.2988 10.5387 19.2508 10.488C19.2028 10.4373 19.1374 10.3987 19.0548 10.372C18.9721 10.3427 18.8748 10.3213 18.7628 10.308C18.6534 10.2947 18.5361 10.2853 18.4108 10.28C18.2881 10.272 18.1601 10.2653 18.0268 10.26C17.8961 10.2547 17.7681 10.244 17.6428 10.228C17.5334 10.2893 17.4441 10.3613 17.3748 10.444C17.3081 10.5267 17.2747 10.6227 17.2747 10.732C17.2747 10.804 17.2921 10.8707 17.3268 10.932C17.3641 10.996 17.4214 11.0507 17.4988 11.096C17.5788 11.1413 17.6814 11.176 17.8068 11.2C17.9321 11.2267 18.0854 11.24 18.2668 11.24C18.4508 11.24 18.6094 11.2253 18.7428 11.196C18.8761 11.1693 18.9854 11.1307 19.0708 11.08C19.1588 11.032 19.2228 10.9733 19.2628 10.904C19.3028 10.8373 19.3228 10.764 19.3228 10.684ZM20.3068 6.536V6.904C20.3068 7.02133 20.2361 7.09333 20.0948 7.12L19.7268 7.188C19.7828 7.32933 19.8108 7.484 19.8108 7.652C19.8108 7.85467 19.7694 8.03867 19.6868 8.204C19.6068 8.36667 19.4948 8.50533 19.3508 8.62C19.2068 8.73467 19.0361 8.824 18.8388 8.888C18.6441 8.94933 18.4334 8.98 18.2068 8.98C18.1268 8.98 18.0494 8.976 17.9748 8.968C17.9001 8.96 17.8268 8.94933 17.7548 8.936C17.6268 9.01333 17.5628 9.1 17.5628 9.196C17.5628 9.27867 17.6001 9.34 17.6748 9.38C17.7521 9.41733 17.8534 9.444 17.9788 9.46C18.1041 9.476 18.2468 9.48667 18.4068 9.492C18.5668 9.49467 18.7308 9.50267 18.8988 9.516C19.0668 9.52933 19.2308 9.55333 19.3908 9.588C19.5508 9.62 19.6934 9.672 19.8188 9.744C19.9441 9.816 20.0441 9.91467 20.1188 10.04C20.1961 10.1627 20.2348 10.3213 20.2348 10.516C20.2348 10.6973 20.1894 10.8733 20.0988 11.044C20.0108 11.2147 19.8814 11.3667 19.7108 11.5C19.5428 11.6333 19.3348 11.74 19.0868 11.82C18.8414 11.9027 18.5614 11.944 18.2468 11.944C17.9374 11.944 17.6681 11.9133 17.4388 11.852C17.2094 11.7933 17.0188 11.7133 16.8668 11.612C16.7148 11.5133 16.6014 11.3987 16.5268 11.268C16.4521 11.1373 16.4148 11.0013 16.4148 10.86C16.4148 10.668 16.4721 10.508 16.5868 10.38C16.7041 10.2493 16.8641 10.1453 17.0668 10.068C16.9574 10.012 16.8708 9.93733 16.8067 9.844C16.7428 9.75067 16.7108 9.628 16.7108 9.476C16.7108 9.41467 16.7214 9.352 16.7428 9.288C16.7668 9.22133 16.8001 9.156 16.8428 9.092C16.8881 9.028 16.9441 8.968 17.0108 8.912C17.0774 8.85333 17.1561 8.80133 17.2467 8.756C17.0388 8.644 16.8748 8.49467 16.7548 8.308C16.6374 8.12133 16.5788 7.90267 16.5788 7.652C16.5788 7.44933 16.6188 7.26667 16.6988 7.104C16.7814 6.93867 16.8948 6.79867 17.0388 6.684C17.1854 6.56667 17.3574 6.47733 17.5548 6.416C17.7548 6.35467 17.9721 6.324 18.2068 6.324C18.3828 6.324 18.5481 6.34267 18.7028 6.38C18.8574 6.41467 18.9988 6.46667 19.1268 6.536H20.3068ZM21.9333 4.556V10.5H20.9453V4.556H21.9333ZM25.5617 7.976C25.5617 7.848 25.543 7.728 25.5057 7.616C25.471 7.50133 25.4177 7.40133 25.3457 7.316C25.2737 7.23067 25.1817 7.164 25.0697 7.116C24.9604 7.06533 24.8324 7.04 24.6857 7.04C24.4004 7.04 24.175 7.12133 24.0097 7.284C23.847 7.44667 23.743 7.67733 23.6977 7.976H25.5617ZM23.6777 8.572C23.6937 8.78267 23.731 8.96533 23.7897 9.12C23.8484 9.272 23.9257 9.39867 24.0217 9.5C24.1177 9.59867 24.231 9.67333 24.3617 9.724C24.495 9.772 24.6417 9.796 24.8017 9.796C24.9617 9.796 25.099 9.77733 25.2137 9.74C25.331 9.70267 25.4324 9.66133 25.5177 9.616C25.6057 9.57067 25.6817 9.52933 25.7457 9.492C25.8124 9.45467 25.8764 9.436 25.9377 9.436C26.0204 9.436 26.0817 9.46667 26.1217 9.528L26.4057 9.888C26.2964 10.016 26.1737 10.124 26.0377 10.212C25.9017 10.2973 25.759 10.3667 25.6097 10.42C25.463 10.4707 25.3124 10.5067 25.1577 10.528C25.0057 10.5493 24.8577 10.56 24.7137 10.56C24.4284 10.56 24.163 10.5133 23.9177 10.42C23.6724 10.324 23.459 10.184 23.2777 10C23.0964 9.81333 22.9537 9.584 22.8497 9.312C22.7457 9.03733 22.6937 8.72 22.6937 8.36C22.6937 8.08 22.739 7.81733 22.8297 7.572C22.9204 7.324 23.0497 7.10933 23.2177 6.928C23.3884 6.744 23.595 6.59867 23.8377 6.492C24.083 6.38533 24.359 6.332 24.6657 6.332C24.9244 6.332 25.163 6.37333 25.3817 6.456C25.6004 6.53867 25.7884 6.66 25.9457 6.82C26.103 6.97733 26.2257 7.172 26.3137 7.404C26.4044 7.63333 26.4497 7.896 26.4497 8.192C26.4497 8.34133 26.4337 8.44267 26.4017 8.496C26.3697 8.54667 26.3084 8.572 26.2177 8.572H23.6777Z" fill="black"/>
<g opacity="0.75">
<rect x="31" y="11.5" width="8" height="1" transform="rotate(-90 31 11.5)" fill="#979797"/>
</g>
<path d="M42.4545 5.768C42.4225 5.824 42.3878 5.86533 42.3505 5.892C42.3158 5.916 42.2718 5.928 42.2185 5.928C42.1625 5.928 42.1011 5.908 42.0345 5.868C41.9705 5.82533 41.8931 5.77867 41.8025 5.728C41.7118 5.67733 41.6051 5.632 41.4825 5.592C41.3625 5.54933 41.2198 5.528 41.0545 5.528C40.9051 5.528 40.7745 5.54667 40.6625 5.584C40.5505 5.61867 40.4558 5.668 40.3785 5.732C40.3038 5.796 40.2478 5.87333 40.2105 5.964C40.1731 6.052 40.1545 6.14933 40.1545 6.256C40.1545 6.392 40.1918 6.50533 40.2665 6.596C40.3438 6.68667 40.4451 6.764 40.5705 6.828C40.6958 6.892 40.8385 6.94933 40.9985 7C41.1585 7.05067 41.3225 7.10533 41.4905 7.164C41.6585 7.22 41.8225 7.28667 41.9825 7.364C42.1425 7.43867 42.2851 7.53467 42.4105 7.652C42.5358 7.76667 42.6358 7.908 42.7105 8.076C42.7878 8.244 42.8265 8.448 42.8265 8.688C42.8265 8.94933 42.7811 9.19467 42.6905 9.424C42.6025 9.65067 42.4718 9.84933 42.2985 10.02C42.1278 10.188 41.9185 10.3213 41.6705 10.42C41.4225 10.516 41.1385 10.564 40.8185 10.564C40.6345 10.564 40.4531 10.5453 40.2745 10.508C40.0958 10.4733 39.9238 10.4227 39.7585 10.356C39.5958 10.2893 39.4425 10.2093 39.2985 10.116C39.1545 10.0227 39.0265 9.91867 38.9145 9.804L39.2305 9.288C39.2571 9.25067 39.2918 9.22 39.3345 9.196C39.3771 9.16933 39.4225 9.156 39.4705 9.156C39.5371 9.156 39.6091 9.184 39.6865 9.24C39.7638 9.29333 39.8558 9.35333 39.9625 9.42C40.0691 9.48667 40.1931 9.548 40.3345 9.604C40.4785 9.65733 40.6505 9.684 40.8505 9.684C41.1571 9.684 41.3945 9.612 41.5625 9.468C41.7305 9.32133 41.8145 9.112 41.8145 8.84C41.8145 8.688 41.7758 8.564 41.6985 8.468C41.6238 8.372 41.5238 8.292 41.3985 8.228C41.2731 8.16133 41.1305 8.10533 40.9705 8.06C40.8105 8.01467 40.6478 7.96533 40.4825 7.912C40.3171 7.85867 40.1545 7.79467 39.9945 7.72C39.8345 7.64533 39.6918 7.548 39.5665 7.428C39.4411 7.308 39.3398 7.15867 39.2625 6.98C39.1878 6.79867 39.1505 6.576 39.1505 6.312C39.1505 6.10133 39.1918 5.896 39.2745 5.696C39.3598 5.496 39.4825 5.31867 39.6425 5.164C39.8025 5.00933 39.9998 4.88533 40.2345 4.792C40.4691 4.69867 40.7385 4.652 41.0425 4.652C41.3838 4.652 41.6985 4.70533 41.9865 4.812C42.2745 4.91867 42.5198 5.068 42.7225 5.26L42.4545 5.768ZM44.5424 6.836C44.7024 6.68667 44.8784 6.56533 45.0704 6.472C45.2624 6.37867 45.4877 6.332 45.7464 6.332C45.9704 6.332 46.1691 6.37067 46.3424 6.448C46.5157 6.52267 46.6597 6.62933 46.7744 6.768C46.8917 6.904 46.9797 7.068 47.0384 7.26C47.0997 7.44933 47.1304 7.65867 47.1304 7.888V10.5H46.1424V7.888C46.1424 7.63733 46.0851 7.444 45.9704 7.308C45.8557 7.16933 45.6811 7.1 45.4464 7.1C45.2757 7.1 45.1157 7.13867 44.9664 7.216C44.8171 7.29333 44.6757 7.39867 44.5424 7.532V10.5H43.5544V4.556H44.5424V6.836ZM49.094 6.396V10.5H48.102V6.396H49.094ZM49.23 5.2C49.23 5.28533 49.2127 5.36533 49.178 5.44C49.1434 5.51467 49.0967 5.58 49.038 5.636C48.982 5.692 48.9154 5.73733 48.838 5.772C48.7607 5.804 48.678 5.82 48.59 5.82C48.5047 5.82 48.4234 5.804 48.346 5.772C48.2714 5.73733 48.206 5.692 48.15 5.636C48.094 5.58 48.0487 5.51467 48.014 5.44C47.982 5.36533 47.966 5.28533 47.966 5.2C47.966 5.112 47.982 5.02933 48.014 4.952C48.0487 4.87467 48.094 4.808 48.15 4.752C48.206 4.696 48.2714 4.652 48.346 4.62C48.4234 4.58533 48.5047 4.568 48.59 4.568C48.678 4.568 48.7607 4.58533 48.838 4.62C48.9154 4.652 48.982 4.696 49.038 4.752C49.0967 4.808 49.1434 4.87467 49.178 4.952C49.2127 5.02933 49.23 5.112 49.23 5.2ZM54.0333 7.136V9.36C54.0333 9.488 54.0653 9.588 54.1293 9.66C54.1933 9.732 54.2786 9.768 54.3853 9.768C54.4466 9.768 54.4973 9.76133 54.5373 9.748C54.5799 9.732 54.6159 9.716 54.6453 9.7C54.6773 9.684 54.7053 9.66933 54.7293 9.656C54.7533 9.64 54.7773 9.632 54.8013 9.632C54.8306 9.632 54.8546 9.64 54.8733 9.656C54.8919 9.66933 54.9119 9.69067 54.9333 9.72L55.2293 10.2C55.0853 10.32 54.9199 10.4107 54.7333 10.472C54.5493 10.5333 54.3573 10.564 54.1573 10.564C53.7999 10.564 53.5253 10.464 53.3333 10.264C53.1413 10.0613 53.0453 9.78267 53.0453 9.428V7.136H51.3773V10.5H50.3893V7.14L50.0333 7.084C49.9559 7.068 49.8933 7.04133 49.8453 7.004C49.7999 6.964 49.7773 6.908 49.7773 6.836V6.432H50.3893V6.128C50.3893 5.89333 50.4239 5.68267 50.4933 5.496C50.5653 5.30933 50.6666 5.15067 50.7973 5.02C50.9306 4.88933 51.0919 4.78933 51.2813 4.72C51.4706 4.65067 51.6839 4.616 51.9213 4.616C52.1106 4.616 52.2866 4.64133 52.4493 4.692L52.4293 5.188C52.4266 5.22533 52.4159 5.256 52.3973 5.28C52.3786 5.30133 52.3533 5.31867 52.3213 5.332C52.2919 5.34267 52.2573 5.35067 52.2173 5.356C52.1773 5.35867 52.1346 5.36 52.0893 5.36C51.9719 5.36 51.8666 5.37333 51.7733 5.4C51.6826 5.424 51.6053 5.468 51.5413 5.532C51.4773 5.59333 51.4279 5.676 51.3933 5.78C51.3613 5.88133 51.3453 6.008 51.3453 6.16V6.432H53.0893L53.3013 5.308C53.3146 5.25467 53.3399 5.21333 53.3773 5.184C53.4146 5.15467 53.4626 5.14 53.5213 5.14H54.0333V6.432H55.1293V7.136H54.0333Z" fill="black"/>
<g opacity="0.75">
<rect x="62" y="11.5" width="8" height="1" transform="rotate(-90 62 11.5)" fill="#979797"/>
</g>
<path d="M74.0847 7.608C74.0847 8.032 74.014 8.42133 73.8727 8.776C73.7314 9.13067 73.5327 9.436 73.2767 9.692C73.0207 9.948 72.7127 10.1467 72.3527 10.288C71.9927 10.4293 71.5927 10.5 71.1527 10.5H68.9487V4.716H71.1527C71.5927 4.716 71.9927 4.788 72.3527 4.932C72.7127 5.07333 73.0207 5.272 73.2767 5.528C73.5327 5.78133 73.7314 6.08533 73.8727 6.44C74.014 6.79467 74.0847 7.184 74.0847 7.608ZM72.9807 7.608C72.9807 7.29067 72.938 7.00667 72.8527 6.756C72.77 6.50267 72.6487 6.28933 72.4887 6.116C72.3314 5.94 72.1394 5.80533 71.9127 5.712C71.6887 5.61867 71.4354 5.572 71.1527 5.572H70.0287V9.644H71.1527C71.4354 9.644 71.6887 9.59733 71.9127 9.504C72.1394 9.41067 72.3314 9.27733 72.4887 9.104C72.6487 8.928 72.77 8.71467 72.8527 8.464C72.938 8.21067 72.9807 7.92533 72.9807 7.608ZM75.7403 7.108C75.8683 6.86267 76.0203 6.67067 76.1963 6.532C76.3723 6.39067 76.5803 6.32 76.8203 6.32C77.0096 6.32 77.1616 6.36133 77.2763 6.444L77.2123 7.184C77.199 7.232 77.179 7.26667 77.1523 7.288C77.1283 7.30667 77.095 7.316 77.0523 7.316C77.0123 7.316 76.9523 7.30933 76.8723 7.296C76.795 7.28267 76.719 7.276 76.6443 7.276C76.535 7.276 76.4376 7.292 76.3523 7.324C76.267 7.356 76.1896 7.40267 76.1203 7.464C76.0536 7.52267 75.9936 7.59467 75.9403 7.68C75.8896 7.76533 75.8416 7.86267 75.7963 7.972V10.5H74.8083V6.396H75.3883C75.4896 6.396 75.5603 6.41467 75.6003 6.452C75.6403 6.48667 75.667 6.55067 75.6803 6.644L75.7403 7.108ZM79.906 8.748C79.6207 8.76133 79.3807 8.78667 79.186 8.824C78.9913 8.85867 78.8353 8.904 78.718 8.96C78.6007 9.016 78.5167 9.08133 78.466 9.156C78.4153 9.23067 78.39 9.312 78.39 9.4C78.39 9.57333 78.4407 9.69733 78.542 9.772C78.646 9.84667 78.7807 9.884 78.946 9.884C79.1487 9.884 79.3233 9.848 79.47 9.776C79.6193 9.70133 79.7647 9.58933 79.906 9.44V8.748ZM77.642 6.968C78.114 6.536 78.682 6.32 79.346 6.32C79.586 6.32 79.8007 6.36 79.99 6.44C80.1793 6.51733 80.3393 6.62667 80.47 6.768C80.6007 6.90667 80.6993 7.07333 80.766 7.268C80.8353 7.46267 80.87 7.676 80.87 7.908V10.5H80.422C80.3287 10.5 80.2567 10.4867 80.206 10.46C80.1553 10.4307 80.1153 10.3733 80.086 10.288L79.998 9.992C79.894 10.0853 79.7927 10.168 79.694 10.24C79.5953 10.3093 79.4927 10.368 79.386 10.416C79.2793 10.464 79.1647 10.5 79.042 10.524C78.922 10.5507 78.7887 10.564 78.642 10.564C78.4687 10.564 78.3087 10.5413 78.162 10.496C78.0153 10.448 77.8887 10.3773 77.782 10.284C77.6753 10.1907 77.5927 10.0747 77.534 9.936C77.4753 9.79733 77.446 9.636 77.446 9.452C77.446 9.348 77.4633 9.24533 77.498 9.144C77.5327 9.04 77.5887 8.94133 77.666 8.848C77.746 8.75467 77.8487 8.66667 77.974 8.584C78.0993 8.50133 78.2527 8.42933 78.434 8.368C78.618 8.30667 78.8313 8.25733 79.074 8.22C79.3167 8.18 79.594 8.156 79.906 8.148V7.908C79.906 7.63333 79.8473 7.43067 79.73 7.3C79.6127 7.16667 79.4433 7.1 79.222 7.1C79.062 7.1 78.9287 7.11867 78.822 7.156C78.718 7.19333 78.626 7.236 78.546 7.284C78.466 7.32933 78.3927 7.37067 78.326 7.408C78.262 7.44533 78.19 7.464 78.11 7.464C78.0407 7.464 77.982 7.44667 77.934 7.412C77.886 7.37467 77.8473 7.332 77.818 7.284L77.642 6.968ZM87.6214 6.396L86.3174 10.5H85.5254C85.4348 10.5 85.3721 10.4413 85.3374 10.324L84.6014 7.952C84.5774 7.872 84.5548 7.79333 84.5334 7.716C84.5148 7.636 84.4988 7.556 84.4854 7.476C84.4694 7.556 84.4508 7.63733 84.4294 7.72C84.4108 7.8 84.3894 7.88 84.3654 7.96L83.6174 10.324C83.5854 10.4413 83.5148 10.5 83.4054 10.5H82.6454L81.3454 6.396H82.1334C82.2054 6.396 82.2668 6.41333 82.3174 6.448C82.3681 6.48267 82.4014 6.52667 82.4174 6.58L83.0054 8.772C83.0348 8.892 83.0601 9.00933 83.0814 9.124C83.1054 9.23867 83.1254 9.35333 83.1414 9.468C83.1708 9.35333 83.2014 9.23867 83.2334 9.124C83.2681 9.00933 83.3041 8.892 83.3414 8.772L84.0214 6.572C84.0374 6.51867 84.0681 6.47467 84.1134 6.44C84.1614 6.40533 84.2188 6.388 84.2854 6.388H84.7214C84.7908 6.388 84.8494 6.40533 84.8974 6.44C84.9481 6.47467 84.9814 6.51867 84.9974 6.572L85.6574 8.772C85.6921 8.892 85.7241 9.01067 85.7534 9.128C85.7854 9.24267 85.8161 9.35733 85.8454 9.472C85.8801 9.24533 85.9294 9.012 85.9934 8.772L86.5974 6.58C86.6161 6.52667 86.6494 6.48267 86.6974 6.448C86.7454 6.41333 86.8028 6.396 86.8694 6.396H87.6214Z" fill="black"/>
<path d="M3.5 1H90.5V0H3.5V1ZM93 3.5V11.5H94V3.5H93ZM90.5 14H3.5V15H90.5V14ZM1 11.5V3.5H0V11.5H1ZM3.5 14C2.11929 14 1 12.8807 1 11.5H0C0 13.433 1.56701 15 3.5 15V14ZM93 11.5C93 12.8807 91.8807 14 90.5 14V15C92.433 15 94 13.433 94 11.5H93ZM90.5 1C91.8807 1 93 2.11929 93 3.5H94C94 1.567 92.433 0 90.5 0V1ZM3.5 0C1.567 0 0 1.567 0 3.5H1C1 2.11929 2.11929 1 3.5 1V0Z" fill="#979797"/>
<path d="M0.5 18.5C0.5 16.8431 1.84315 15.5 3.5 15.5H90.5C92.1569 15.5 93.5 16.8431 93.5 18.5V26.5C93.5 28.1569 92.1569 29.5 90.5 29.5H3.5C1.84315 29.5 0.5 28.1569 0.5 26.5V18.5Z" fill="#E3E3E3"/>
<path d="M9.02088 20.768C8.98888 20.824 8.95421 20.8653 8.91688 20.892C8.88221 20.916 8.83821 20.928 8.78488 20.928C8.72888 20.928 8.66754 20.908 8.60088 20.868C8.53688 20.8253 8.45954 20.7787 8.36888 20.728C8.27821 20.6773 8.17154 20.632 8.04888 20.592C7.92888 20.5493 7.78621 20.528 7.62088 20.528C7.47154 20.528 7.34088 20.5467 7.22888 20.584C7.11688 20.6187 7.02221 20.668 6.94488 20.732C6.87021 20.796 6.81421 20.8733 6.77688 20.964C6.73954 21.052 6.72088 21.1493 6.72088 21.256C6.72088 21.392 6.75821 21.5053 6.83288 21.596C6.91021 21.6867 7.01154 21.764 7.13688 21.828C7.26221 21.892 7.40488 21.9493 7.56488 22C7.72488 22.0507 7.88888 22.1053 8.05688 22.164C8.22488 22.22 8.38888 22.2867 8.54888 22.364C8.70888 22.4387 8.85154 22.5347 8.97688 22.652C9.10221 22.7667 9.20221 22.908 9.27688 23.076C9.35421 23.244 9.39288 23.448 9.39288 23.688C9.39288 23.9493 9.34754 24.1947 9.25688 24.424C9.16888 24.6507 9.03821 24.8493 8.86488 25.02C8.69421 25.188 8.48488 25.3213 8.23688 25.42C7.98888 25.516 7.70488 25.564 7.38488 25.564C7.20088 25.564 7.01954 25.5453 6.84088 25.508C6.66221 25.4733 6.49021 25.4227 6.32487 25.356C6.16221 25.2893 6.00888 25.2093 5.86488 25.116C5.72088 25.0227 5.59288 24.9187 5.48088 24.804L5.79688 24.288C5.82354 24.2507 5.85821 24.22 5.90088 24.196C5.94354 24.1693 5.98888 24.156 6.03688 24.156C6.10354 24.156 6.17554 24.184 6.25288 24.24C6.33021 24.2933 6.42221 24.3533 6.52888 24.42C6.63554 24.4867 6.75954 24.548 6.90088 24.604C7.04488 24.6573 7.21688 24.684 7.41688 24.684C7.72354 24.684 7.96088 24.612 8.12888 24.468C8.29688 24.3213 8.38088 24.112 8.38088 23.84C8.38088 23.688 8.34221 23.564 8.26488 23.468C8.19021 23.372 8.09021 23.292 7.96488 23.228C7.83954 23.1613 7.69688 23.1053 7.53688 23.06C7.37688 23.0147 7.21421 22.9653 7.04888 22.912C6.88354 22.8587 6.72088 22.7947 6.56088 22.72C6.40088 22.6453 6.25821 22.548 6.13288 22.428C6.00754 22.308 5.90621 22.1587 5.82888 21.98C5.75421 21.7987 5.71688 21.576 5.71688 21.312C5.71688 21.1013 5.75821 20.896 5.84088 20.696C5.92621 20.496 6.04888 20.3187 6.20888 20.164C6.36888 20.0093 6.56621 19.8853 6.80088 19.792C7.03554 19.6987 7.30488 19.652 7.60888 19.652C7.95021 19.652 8.26488 19.7053 8.55288 19.812C8.84088 19.9187 9.08621 20.068 9.28888 20.26L9.02088 20.768ZM11.1839 21.396V25.5H10.1919V21.396H11.1839ZM11.3199 20.2C11.3199 20.2853 11.3025 20.3653 11.2679 20.44C11.2332 20.5147 11.1865 20.58 11.1279 20.636C11.0719 20.692 11.0052 20.7373 10.9279 20.772C10.8505 20.804 10.7679 20.82 10.6799 20.82C10.5945 20.82 10.5132 20.804 10.4359 20.772C10.3612 20.7373 10.2959 20.692 10.2399 20.636C10.1839 20.58 10.1385 20.5147 10.1039 20.44C10.0719 20.3653 10.0559 20.2853 10.0559 20.2C10.0559 20.112 10.0719 20.0293 10.1039 19.952C10.1385 19.8747 10.1839 19.808 10.2399 19.752C10.2959 19.696 10.3612 19.652 10.4359 19.62C10.5132 19.5853 10.5945 19.568 10.6799 19.568C10.7679 19.568 10.8505 19.5853 10.9279 19.62C11.0052 19.652 11.0719 19.696 11.1279 19.752C11.1865 19.808 11.2332 19.8747 11.2679 19.952C11.3025 20.0293 11.3199 20.112 11.3199 20.2ZM13.1151 21.9C13.1978 21.8173 13.2845 21.7413 13.3751 21.672C13.4685 21.6 13.5658 21.54 13.6671 21.492C13.7711 21.4413 13.8818 21.4027 13.9991 21.376C14.1165 21.3467 14.2445 21.332 14.3831 21.332C14.6071 21.332 14.8058 21.3707 14.9791 21.448C15.1525 21.5227 15.2965 21.6293 15.4111 21.768C15.5285 21.904 15.6165 22.068 15.6751 22.26C15.7365 22.4493 15.7671 22.6587 15.7671 22.888V25.5H14.7791V22.888C14.7791 22.6373 14.7218 22.444 14.6071 22.308C14.4925 22.1693 14.3178 22.1 14.0831 22.1C13.9125 22.1 13.7525 22.1387 13.6031 22.216C13.4538 22.2933 13.3125 22.3987 13.1791 22.532V25.5H12.1911V21.396H12.7951C12.9231 21.396 13.0071 21.456 13.0471 21.576L13.1151 21.9ZM18.2068 23.348C18.3294 23.348 18.4361 23.332 18.5268 23.3C18.6174 23.2653 18.6921 23.2187 18.7508 23.16C18.8121 23.1013 18.8574 23.0307 18.8868 22.948C18.9188 22.8653 18.9348 22.7747 18.9348 22.676C18.9348 22.4733 18.8734 22.3133 18.7508 22.196C18.6308 22.076 18.4494 22.016 18.2068 22.016C17.9641 22.016 17.7814 22.076 17.6588 22.196C17.5388 22.3133 17.4788 22.4733 17.4788 22.676C17.4788 22.772 17.4934 22.8613 17.5228 22.944C17.5548 23.0267 17.6001 23.0987 17.6588 23.16C17.7201 23.2187 17.7961 23.2653 17.8868 23.3C17.9801 23.332 18.0868 23.348 18.2068 23.348ZM19.3228 25.684C19.3228 25.604 19.2988 25.5387 19.2508 25.488C19.2028 25.4373 19.1374 25.3987 19.0548 25.372C18.9721 25.3427 18.8748 25.3213 18.7628 25.308C18.6534 25.2947 18.5361 25.2853 18.4108 25.28C18.2881 25.272 18.1601 25.2653 18.0268 25.26C17.8961 25.2547 17.7681 25.244 17.6428 25.228C17.5334 25.2893 17.4441 25.3613 17.3748 25.444C17.3081 25.5267 17.2747 25.6227 17.2747 25.732C17.2747 25.804 17.2921 25.8707 17.3268 25.932C17.3641 25.996 17.4214 26.0507 17.4988 26.096C17.5788 26.1413 17.6814 26.176 17.8068 26.2C17.9321 26.2267 18.0854 26.24 18.2668 26.24C18.4508 26.24 18.6094 26.2253 18.7428 26.196C18.8761 26.1693 18.9854 26.1307 19.0708 26.08C19.1588 26.032 19.2228 25.9733 19.2628 25.904C19.3028 25.8373 19.3228 25.764 19.3228 25.684ZM20.3068 21.536V21.904C20.3068 22.0213 20.2361 22.0933 20.0948 22.12L19.7268 22.188C19.7828 22.3293 19.8108 22.484 19.8108 22.652C19.8108 22.8547 19.7694 23.0387 19.6868 23.204C19.6068 23.3667 19.4948 23.5053 19.3508 23.62C19.2068 23.7347 19.0361 23.824 18.8388 23.888C18.6441 23.9493 18.4334 23.98 18.2068 23.98C18.1268 23.98 18.0494 23.976 17.9748 23.968C17.9001 23.96 17.8268 23.9493 17.7548 23.936C17.6268 24.0133 17.5628 24.1 17.5628 24.196C17.5628 24.2787 17.6001 24.34 17.6748 24.38C17.7521 24.4173 17.8534 24.444 17.9788 24.46C18.1041 24.476 18.2468 24.4867 18.4068 24.492C18.5668 24.4947 18.7308 24.5027 18.8988 24.516C19.0668 24.5293 19.2308 24.5533 19.3908 24.588C19.5508 24.62 19.6934 24.672 19.8188 24.744C19.9441 24.816 20.0441 24.9147 20.1188 25.04C20.1961 25.1627 20.2348 25.3213 20.2348 25.516C20.2348 25.6973 20.1894 25.8733 20.0988 26.044C20.0108 26.2147 19.8814 26.3667 19.7108 26.5C19.5428 26.6333 19.3348 26.74 19.0868 26.82C18.8414 26.9027 18.5614 26.944 18.2468 26.944C17.9374 26.944 17.6681 26.9133 17.4388 26.852C17.2094 26.7933 17.0188 26.7133 16.8668 26.612C16.7148 26.5133 16.6014 26.3987 16.5268 26.268C16.4521 26.1373 16.4148 26.0013 16.4148 25.86C16.4148 25.668 16.4721 25.508 16.5868 25.38C16.7041 25.2493 16.8641 25.1453 17.0668 25.068C16.9574 25.012 16.8708 24.9373 16.8067 24.844C16.7428 24.7507 16.7108 24.628 16.7108 24.476C16.7108 24.4147 16.7214 24.352 16.7428 24.288C16.7668 24.2213 16.8001 24.156 16.8428 24.092C16.8881 24.028 16.9441 23.968 17.0108 23.912C17.0774 23.8533 17.1561 23.8013 17.2467 23.756C17.0388 23.644 16.8748 23.4947 16.7548 23.308C16.6374 23.1213 16.5788 22.9027 16.5788 22.652C16.5788 22.4493 16.6188 22.2667 16.6988 22.104C16.7814 21.9387 16.8948 21.7987 17.0388 21.684C17.1854 21.5667 17.3574 21.4773 17.5548 21.416C17.7548 21.3547 17.9721 21.324 18.2068 21.324C18.3828 21.324 18.5481 21.3427 18.7028 21.38C18.8574 21.4147 18.9988 21.4667 19.1268 21.536H20.3068ZM21.9333 19.556V25.5H20.9453V19.556H21.9333ZM25.5617 22.976C25.5617 22.848 25.543 22.728 25.5057 22.616C25.471 22.5013 25.4177 22.4013 25.3457 22.316C25.2737 22.2307 25.1817 22.164 25.0697 22.116C24.9604 22.0653 24.8324 22.04 24.6857 22.04C24.4004 22.04 24.175 22.1213 24.0097 22.284C23.847 22.4467 23.743 22.6773 23.6977 22.976H25.5617ZM23.6777 23.572C23.6937 23.7827 23.731 23.9653 23.7897 24.12C23.8484 24.272 23.9257 24.3987 24.0217 24.5C24.1177 24.5987 24.231 24.6733 24.3617 24.724C24.495 24.772 24.6417 24.796 24.8017 24.796C24.9617 24.796 25.099 24.7773 25.2137 24.74C25.331 24.7027 25.4324 24.6613 25.5177 24.616C25.6057 24.5707 25.6817 24.5293 25.7457 24.492C25.8124 24.4547 25.8764 24.436 25.9377 24.436C26.0204 24.436 26.0817 24.4667 26.1217 24.528L26.4057 24.888C26.2964 25.016 26.1737 25.124 26.0377 25.212C25.9017 25.2973 25.759 25.3667 25.6097 25.42C25.463 25.4707 25.3124 25.5067 25.1577 25.528C25.0057 25.5493 24.8577 25.56 24.7137 25.56C24.4284 25.56 24.163 25.5133 23.9177 25.42C23.6724 25.324 23.459 25.184 23.2777 25C23.0964 24.8133 22.9537 24.584 22.8497 24.312C22.7457 24.0373 22.6937 23.72 22.6937 23.36C22.6937 23.08 22.739 22.8173 22.8297 22.572C22.9204 22.324 23.0497 22.1093 23.2177 21.928C23.3884 21.744 23.595 21.5987 23.8377 21.492C24.083 21.3853 24.359 21.332 24.6657 21.332C24.9244 21.332 25.163 21.3733 25.3817 21.456C25.6004 21.5387 25.7884 21.66 25.9457 21.82C26.103 21.9773 26.2257 22.172 26.3137 22.404C26.4044 22.6333 26.4497 22.896 26.4497 23.192C26.4497 23.3413 26.4337 23.4427 26.4017 23.496C26.3697 23.5467 26.3084 23.572 26.2177 23.572H23.6777Z" fill="black"/>
<g opacity="0.75">
<rect x="31" y="26.5" width="8" height="1" transform="rotate(-90 31 26.5)" fill="#979797"/>
</g>
<path d="M33 20.5C33 18.8431 34.3431 17.5 36 17.5H58C59.6569 17.5 61 18.8431 61 20.5V24.5C61 26.1569 59.6569 27.5 58 27.5H36C34.3431 27.5 33 26.1569 33 24.5V20.5Z" fill="#FF9300"/>
<path d="M42.4545 20.768C42.4225 20.824 42.3878 20.8653 42.3505 20.892C42.3158 20.916 42.2718 20.928 42.2185 20.928C42.1625 20.928 42.1011 20.908 42.0345 20.868C41.9705 20.8253 41.8931 20.7787 41.8025 20.728C41.7118 20.6773 41.6051 20.632 41.4825 20.592C41.3625 20.5493 41.2198 20.528 41.0545 20.528C40.9051 20.528 40.7745 20.5467 40.6625 20.584C40.5505 20.6187 40.4558 20.668 40.3785 20.732C40.3038 20.796 40.2478 20.8733 40.2105 20.964C40.1731 21.052 40.1545 21.1493 40.1545 21.256C40.1545 21.392 40.1918 21.5053 40.2665 21.596C40.3438 21.6867 40.4451 21.764 40.5705 21.828C40.6958 21.892 40.8385 21.9493 40.9985 22C41.1585 22.0507 41.3225 22.1053 41.4905 22.164C41.6585 22.22 41.8225 22.2867 41.9825 22.364C42.1425 22.4387 42.2851 22.5347 42.4105 22.652C42.5358 22.7667 42.6358 22.908 42.7105 23.076C42.7878 23.244 42.8265 23.448 42.8265 23.688C42.8265 23.9493 42.7811 24.1947 42.6905 24.424C42.6025 24.6507 42.4718 24.8493 42.2985 25.02C42.1278 25.188 41.9185 25.3213 41.6705 25.42C41.4225 25.516 41.1385 25.564 40.8185 25.564C40.6345 25.564 40.4531 25.5453 40.2745 25.508C40.0958 25.4733 39.9238 25.4227 39.7585 25.356C39.5958 25.2893 39.4425 25.2093 39.2985 25.116C39.1545 25.0227 39.0265 24.9187 38.9145 24.804L39.2305 24.288C39.2571 24.2507 39.2918 24.22 39.3345 24.196C39.3771 24.1693 39.4225 24.156 39.4705 24.156C39.5371 24.156 39.6091 24.184 39.6865 24.24C39.7638 24.2933 39.8558 24.3533 39.9625 24.42C40.0691 24.4867 40.1931 24.548 40.3345 24.604C40.4785 24.6573 40.6505 24.684 40.8505 24.684C41.1571 24.684 41.3945 24.612 41.5625 24.468C41.7305 24.3213 41.8145 24.112 41.8145 23.84C41.8145 23.688 41.7758 23.564 41.6985 23.468C41.6238 23.372 41.5238 23.292 41.3985 23.228C41.2731 23.1613 41.1305 23.1053 40.9705 23.06C40.8105 23.0147 40.6478 22.9653 40.4825 22.912C40.3171 22.8587 40.1545 22.7947 39.9945 22.72C39.8345 22.6453 39.6918 22.548 39.5665 22.428C39.4411 22.308 39.3398 22.1587 39.2625 21.98C39.1878 21.7987 39.1505 21.576 39.1505 21.312C39.1505 21.1013 39.1918 20.896 39.2745 20.696C39.3598 20.496 39.4825 20.3187 39.6425 20.164C39.8025 20.0093 39.9998 19.8853 40.2345 19.792C40.4691 19.6987 40.7385 19.652 41.0425 19.652C41.3838 19.652 41.6985 19.7053 41.9865 19.812C42.2745 19.9187 42.5198 20.068 42.7225 20.26L42.4545 20.768ZM44.5424 21.836C44.7024 21.6867 44.8784 21.5653 45.0704 21.472C45.2624 21.3787 45.4877 21.332 45.7464 21.332C45.9704 21.332 46.1691 21.3707 46.3424 21.448C46.5157 21.5227 46.6597 21.6293 46.7744 21.768C46.8917 21.904 46.9797 22.068 47.0384 22.26C47.0997 22.4493 47.1304 22.6587 47.1304 22.888V25.5H46.1424V22.888C46.1424 22.6373 46.0851 22.444 45.9704 22.308C45.8557 22.1693 45.6811 22.1 45.4464 22.1C45.2757 22.1 45.1157 22.1387 44.9664 22.216C44.8171 22.2933 44.6757 22.3987 44.5424 22.532V25.5H43.5544V19.556H44.5424V21.836ZM49.094 21.396V25.5H48.102V21.396H49.094ZM49.23 20.2C49.23 20.2853 49.2127 20.3653 49.178 20.44C49.1434 20.5147 49.0967 20.58 49.038 20.636C48.982 20.692 48.9154 20.7373 48.838 20.772C48.7607 20.804 48.678 20.82 48.59 20.82C48.5047 20.82 48.4234 20.804 48.346 20.772C48.2714 20.7373 48.206 20.692 48.15 20.636C48.094 20.58 48.0487 20.5147 48.014 20.44C47.982 20.3653 47.966 20.2853 47.966 20.2C47.966 20.112 47.982 20.0293 48.014 19.952C48.0487 19.8747 48.094 19.808 48.15 19.752C48.206 19.696 48.2714 19.652 48.346 19.62C48.4234 19.5853 48.5047 19.568 48.59 19.568C48.678 19.568 48.7607 19.5853 48.838 19.62C48.9154 19.652 48.982 19.696 49.038 19.752C49.0967 19.808 49.1434 19.8747 49.178 19.952C49.2127 20.0293 49.23 20.112 49.23 20.2ZM54.0333 22.136V24.36C54.0333 24.488 54.0653 24.588 54.1293 24.66C54.1933 24.732 54.2786 24.768 54.3853 24.768C54.4466 24.768 54.4973 24.7613 54.5373 24.748C54.5799 24.732 54.6159 24.716 54.6453 24.7C54.6773 24.684 54.7053 24.6693 54.7293 24.656C54.7533 24.64 54.7773 24.632 54.8013 24.632C54.8306 24.632 54.8546 24.64 54.8733 24.656C54.8919 24.6693 54.9119 24.6907 54.9333 24.72L55.2293 25.2C55.0853 25.32 54.9199 25.4107 54.7333 25.472C54.5493 25.5333 54.3573 25.564 54.1573 25.564C53.7999 25.564 53.5253 25.464 53.3333 25.264C53.1413 25.0613 53.0453 24.7827 53.0453 24.428V22.136H51.3773V25.5H50.3893V22.14L50.0333 22.084C49.9559 22.068 49.8933 22.0413 49.8453 22.004C49.7999 21.964 49.7773 21.908 49.7773 21.836V21.432H50.3893V21.128C50.3893 20.8933 50.4239 20.6827 50.4933 20.496C50.5653 20.3093 50.6666 20.1507 50.7973 20.02C50.9306 19.8893 51.0919 19.7893 51.2813 19.72C51.4706 19.6507 51.6839 19.616 51.9213 19.616C52.1106 19.616 52.2866 19.6413 52.4493 19.692L52.4293 20.188C52.4266 20.2253 52.4159 20.256 52.3973 20.28C52.3786 20.3013 52.3533 20.3187 52.3213 20.332C52.2919 20.3427 52.2573 20.3507 52.2173 20.356C52.1773 20.3587 52.1346 20.36 52.0893 20.36C51.9719 20.36 51.8666 20.3733 51.7733 20.4C51.6826 20.424 51.6053 20.468 51.5413 20.532C51.4773 20.5933 51.4279 20.676 51.3933 20.78C51.3613 20.8813 51.3453 21.008 51.3453 21.16V21.432H53.0893L53.3013 20.308C53.3146 20.2547 53.3399 20.2133 53.3773 20.184C53.4146 20.1547 53.4626 20.14 53.5213 20.14H54.0333V21.432H55.1293V22.136H54.0333Z" fill="black"/>
<g opacity="0.75">
<rect x="62" y="26.5" width="8" height="1" transform="rotate(-90 62 26.5)" fill="#979797"/>
</g>
<path d="M74.0847 22.608C74.0847 23.032 74.014 23.4213 73.8727 23.776C73.7314 24.1307 73.5327 24.436 73.2767 24.692C73.0207 24.948 72.7127 25.1467 72.3527 25.288C71.9927 25.4293 71.5927 25.5 71.1527 25.5H68.9487V19.716H71.1527C71.5927 19.716 71.9927 19.788 72.3527 19.932C72.7127 20.0733 73.0207 20.272 73.2767 20.528C73.5327 20.7813 73.7314 21.0853 73.8727 21.44C74.014 21.7947 74.0847 22.184 74.0847 22.608ZM72.9807 22.608C72.9807 22.2907 72.938 22.0067 72.8527 21.756C72.77 21.5027 72.6487 21.2893 72.4887 21.116C72.3314 20.94 72.1394 20.8053 71.9127 20.712C71.6887 20.6187 71.4354 20.572 71.1527 20.572H70.0287V24.644H71.1527C71.4354 24.644 71.6887 24.5973 71.9127 24.504C72.1394 24.4107 72.3314 24.2773 72.4887 24.104C72.6487 23.928 72.77 23.7147 72.8527 23.464C72.938 23.2107 72.9807 22.9253 72.9807 22.608ZM75.7403 22.108C75.8683 21.8627 76.0203 21.6707 76.1963 21.532C76.3723 21.3907 76.5803 21.32 76.8203 21.32C77.0096 21.32 77.1616 21.3613 77.2763 21.444L77.2123 22.184C77.199 22.232 77.179 22.2667 77.1523 22.288C77.1283 22.3067 77.095 22.316 77.0523 22.316C77.0123 22.316 76.9523 22.3093 76.8723 22.296C76.795 22.2827 76.719 22.276 76.6443 22.276C76.535 22.276 76.4376 22.292 76.3523 22.324C76.267 22.356 76.1896 22.4027 76.1203 22.464C76.0536 22.5227 75.9936 22.5947 75.9403 22.68C75.8896 22.7653 75.8416 22.8627 75.7963 22.972V25.5H74.8083V21.396H75.3883C75.4896 21.396 75.5603 21.4147 75.6003 21.452C75.6403 21.4867 75.667 21.5507 75.6803 21.644L75.7403 22.108ZM79.906 23.748C79.6207 23.7613 79.3807 23.7867 79.186 23.824C78.9913 23.8587 78.8353 23.904 78.718 23.96C78.6007 24.016 78.5167 24.0813 78.466 24.156C78.4153 24.2307 78.39 24.312 78.39 24.4C78.39 24.5733 78.4407 24.6973 78.542 24.772C78.646 24.8467 78.7807 24.884 78.946 24.884C79.1487 24.884 79.3233 24.848 79.47 24.776C79.6193 24.7013 79.7647 24.5893 79.906 24.44V23.748ZM77.642 21.968C78.114 21.536 78.682 21.32 79.346 21.32C79.586 21.32 79.8007 21.36 79.99 21.44C80.1793 21.5173 80.3393 21.6267 80.47 21.768C80.6007 21.9067 80.6993 22.0733 80.766 22.268C80.8353 22.4627 80.87 22.676 80.87 22.908V25.5H80.422C80.3287 25.5 80.2567 25.4867 80.206 25.46C80.1553 25.4307 80.1153 25.3733 80.086 25.288L79.998 24.992C79.894 25.0853 79.7927 25.168 79.694 25.24C79.5953 25.3093 79.4927 25.368 79.386 25.416C79.2793 25.464 79.1647 25.5 79.042 25.524C78.922 25.5507 78.7887 25.564 78.642 25.564C78.4687 25.564 78.3087 25.5413 78.162 25.496C78.0153 25.448 77.8887 25.3773 77.782 25.284C77.6753 25.1907 77.5927 25.0747 77.534 24.936C77.4753 24.7973 77.446 24.636 77.446 24.452C77.446 24.348 77.4633 24.2453 77.498 24.144C77.5327 24.04 77.5887 23.9413 77.666 23.848C77.746 23.7547 77.8487 23.6667 77.974 23.584C78.0993 23.5013 78.2527 23.4293 78.434 23.368C78.618 23.3067 78.8313 23.2573 79.074 23.22C79.3167 23.18 79.594 23.156 79.906 23.148V22.908C79.906 22.6333 79.8473 22.4307 79.73 22.3C79.6127 22.1667 79.4433 22.1 79.222 22.1C79.062 22.1 78.9287 22.1187 78.822 22.156C78.718 22.1933 78.626 22.236 78.546 22.284C78.466 22.3293 78.3927 22.3707 78.326 22.408C78.262 22.4453 78.19 22.464 78.11 22.464C78.0407 22.464 77.982 22.4467 77.934 22.412C77.886 22.3747 77.8473 22.332 77.818 22.284L77.642 21.968ZM87.6214 21.396L86.3174 25.5H85.5254C85.4348 25.5 85.3721 25.4413 85.3374 25.324L84.6014 22.952C84.5774 22.872 84.5548 22.7933 84.5334 22.716C84.5148 22.636 84.4988 22.556 84.4854 22.476C84.4694 22.556 84.4508 22.6373 84.4294 22.72C84.4108 22.8 84.3894 22.88 84.3654 22.96L83.6174 25.324C83.5854 25.4413 83.5148 25.5 83.4054 25.5H82.6454L81.3454 21.396H82.1334C82.2054 21.396 82.2668 21.4133 82.3174 21.448C82.3681 21.4827 82.4014 21.5267 82.4174 21.58L83.0054 23.772C83.0348 23.892 83.0601 24.0093 83.0814 24.124C83.1054 24.2387 83.1254 24.3533 83.1414 24.468C83.1708 24.3533 83.2014 24.2387 83.2334 24.124C83.2681 24.0093 83.3041 23.892 83.3414 23.772L84.0214 21.572C84.0374 21.5187 84.0681 21.4747 84.1134 21.44C84.1614 21.4053 84.2188 21.388 84.2854 21.388H84.7214C84.7908 21.388 84.8494 21.4053 84.8974 21.44C84.9481 21.4747 84.9814 21.5187 84.9974 21.572L85.6574 23.772C85.6921 23.892 85.7241 24.0107 85.7534 24.128C85.7854 24.2427 85.8161 24.3573 85.8454 24.472C85.8801 24.2453 85.9294 24.012 85.9934 23.772L86.5974 21.58C86.6161 21.5267 86.6494 21.4827 86.6974 21.448C86.7454 21.4133 86.8028 21.396 86.8694 21.396H87.6214Z" fill="black"/>
<path d="M3.5 16H90.5V15H3.5V16ZM93 18.5V26.5H94V18.5H93ZM90.5 29H3.5V30H90.5V29ZM1 26.5V18.5H0V26.5H1ZM3.5 29C2.11929 29 1 27.8807 1 26.5H0C0 28.433 1.56701 30 3.5 30V29ZM93 26.5C93 27.8807 91.8807 29 90.5 29V30C92.433 30 94 28.433 94 26.5H93ZM90.5 16C91.8807 16 93 17.1193 93 18.5H94C94 16.567 92.433 15 90.5 15V16ZM3.5 15C1.567 15 0 16.567 0 18.5H1C1 17.1193 2.11929 16 3.5 16V15Z" fill="#979797"/>
<path d="M0.5 33.5C0.5 31.8431 1.84315 30.5 3.5 30.5H90.5C92.1569 30.5 93.5 31.8431 93.5 33.5V41.5C93.5 43.1569 92.1569 44.5 90.5 44.5H3.5C1.84315 44.5 0.5 43.1569 0.5 41.5V33.5Z" fill="#E3E3E3"/>
<path d="M9.02088 35.768C8.98888 35.824 8.95421 35.8653 8.91688 35.892C8.88221 35.916 8.83821 35.928 8.78488 35.928C8.72888 35.928 8.66754 35.908 8.60088 35.868C8.53688 35.8253 8.45954 35.7787 8.36888 35.728C8.27821 35.6773 8.17154 35.632 8.04888 35.592C7.92888 35.5493 7.78621 35.528 7.62088 35.528C7.47154 35.528 7.34088 35.5467 7.22888 35.584C7.11688 35.6187 7.02221 35.668 6.94488 35.732C6.87021 35.796 6.81421 35.8733 6.77688 35.964C6.73954 36.052 6.72088 36.1493 6.72088 36.256C6.72088 36.392 6.75821 36.5053 6.83288 36.596C6.91021 36.6867 7.01154 36.764 7.13688 36.828C7.26221 36.892 7.40488 36.9493 7.56488 37C7.72488 37.0507 7.88888 37.1053 8.05688 37.164C8.22488 37.22 8.38888 37.2867 8.54888 37.364C8.70888 37.4387 8.85154 37.5347 8.97688 37.652C9.10221 37.7667 9.20221 37.908 9.27688 38.076C9.35421 38.244 9.39288 38.448 9.39288 38.688C9.39288 38.9493 9.34754 39.1947 9.25688 39.424C9.16888 39.6507 9.03821 39.8493 8.86488 40.02C8.69421 40.188 8.48488 40.3213 8.23688 40.42C7.98888 40.516 7.70488 40.564 7.38488 40.564C7.20088 40.564 7.01954 40.5453 6.84088 40.508C6.66221 40.4733 6.49021 40.4227 6.32487 40.356C6.16221 40.2893 6.00888 40.2093 5.86488 40.116C5.72088 40.0227 5.59288 39.9187 5.48088 39.804L5.79688 39.288C5.82354 39.2507 5.85821 39.22 5.90088 39.196C5.94354 39.1693 5.98888 39.156 6.03688 39.156C6.10354 39.156 6.17554 39.184 6.25288 39.24C6.33021 39.2933 6.42221 39.3533 6.52888 39.42C6.63554 39.4867 6.75954 39.548 6.90088 39.604C7.04488 39.6573 7.21688 39.684 7.41688 39.684C7.72354 39.684 7.96088 39.612 8.12888 39.468C8.29688 39.3213 8.38088 39.112 8.38088 38.84C8.38088 38.688 8.34221 38.564 8.26488 38.468C8.19021 38.372 8.09021 38.292 7.96488 38.228C7.83954 38.1613 7.69688 38.1053 7.53688 38.06C7.37688 38.0147 7.21421 37.9653 7.04888 37.912C6.88354 37.8587 6.72088 37.7947 6.56088 37.72C6.40088 37.6453 6.25821 37.548 6.13288 37.428C6.00754 37.308 5.90621 37.1587 5.82888 36.98C5.75421 36.7987 5.71688 36.576 5.71688 36.312C5.71688 36.1013 5.75821 35.896 5.84088 35.696C5.92621 35.496 6.04888 35.3187 6.20888 35.164C6.36888 35.0093 6.56621 34.8853 6.80088 34.792C7.03554 34.6987 7.30488 34.652 7.60888 34.652C7.95021 34.652 8.26488 34.7053 8.55288 34.812C8.84088 34.9187 9.08621 35.068 9.28888 35.26L9.02088 35.768ZM11.1839 36.396V40.5H10.1919V36.396H11.1839ZM11.3199 35.2C11.3199 35.2853 11.3025 35.3653 11.2679 35.44C11.2332 35.5147 11.1865 35.58 11.1279 35.636C11.0719 35.692 11.0052 35.7373 10.9279 35.772C10.8505 35.804 10.7679 35.82 10.6799 35.82C10.5945 35.82 10.5132 35.804 10.4359 35.772C10.3612 35.7373 10.2959 35.692 10.2399 35.636C10.1839 35.58 10.1385 35.5147 10.1039 35.44C10.0719 35.3653 10.0559 35.2853 10.0559 35.2C10.0559 35.112 10.0719 35.0293 10.1039 34.952C10.1385 34.8747 10.1839 34.808 10.2399 34.752C10.2959 34.696 10.3612 34.652 10.4359 34.62C10.5132 34.5853 10.5945 34.568 10.6799 34.568C10.7679 34.568 10.8505 34.5853 10.9279 34.62C11.0052 34.652 11.0719 34.696 11.1279 34.752C11.1865 34.808 11.2332 34.8747 11.2679 34.952C11.3025 35.0293 11.3199 35.112 11.3199 35.2ZM13.1151 36.9C13.1978 36.8173 13.2845 36.7413 13.3751 36.672C13.4685 36.6 13.5658 36.54 13.6671 36.492C13.7711 36.4413 13.8818 36.4027 13.9991 36.376C14.1165 36.3467 14.2445 36.332 14.3831 36.332C14.6071 36.332 14.8058 36.3707 14.9791 36.448C15.1525 36.5227 15.2965 36.6293 15.4111 36.768C15.5285 36.904 15.6165 37.068 15.6751 37.26C15.7365 37.4493 15.7671 37.6587 15.7671 37.888V40.5H14.7791V37.888C14.7791 37.6373 14.7218 37.444 14.6071 37.308C14.4925 37.1693 14.3178 37.1 14.0831 37.1C13.9125 37.1 13.7525 37.1387 13.6031 37.216C13.4538 37.2933 13.3125 37.3987 13.1791 37.532V40.5H12.1911V36.396H12.7951C12.9231 36.396 13.0071 36.456 13.0471 36.576L13.1151 36.9ZM18.2068 38.348C18.3294 38.348 18.4361 38.332 18.5268 38.3C18.6174 38.2653 18.6921 38.2187 18.7508 38.16C18.8121 38.1013 18.8574 38.0307 18.8868 37.948C18.9188 37.8653 18.9348 37.7747 18.9348 37.676C18.9348 37.4733 18.8734 37.3133 18.7508 37.196C18.6308 37.076 18.4494 37.016 18.2068 37.016C17.9641 37.016 17.7814 37.076 17.6588 37.196C17.5388 37.3133 17.4788 37.4733 17.4788 37.676C17.4788 37.772 17.4934 37.8613 17.5228 37.944C17.5548 38.0267 17.6001 38.0987 17.6588 38.16C17.7201 38.2187 17.7961 38.2653 17.8868 38.3C17.9801 38.332 18.0868 38.348 18.2068 38.348ZM19.3228 40.684C19.3228 40.604 19.2988 40.5387 19.2508 40.488C19.2028 40.4373 19.1374 40.3987 19.0548 40.372C18.9721 40.3427 18.8748 40.3213 18.7628 40.308C18.6534 40.2947 18.5361 40.2853 18.4108 40.28C18.2881 40.272 18.1601 40.2653 18.0268 40.26C17.8961 40.2547 17.7681 40.244 17.6428 40.228C17.5334 40.2893 17.4441 40.3613 17.3748 40.444C17.3081 40.5267 17.2747 40.6227 17.2747 40.732C17.2747 40.804 17.2921 40.8707 17.3268 40.932C17.3641 40.996 17.4214 41.0507 17.4988 41.096C17.5788 41.1413 17.6814 41.176 17.8068 41.2C17.9321 41.2267 18.0854 41.24 18.2668 41.24C18.4508 41.24 18.6094 41.2253 18.7428 41.196C18.8761 41.1693 18.9854 41.1307 19.0708 41.08C19.1588 41.032 19.2228 40.9733 19.2628 40.904C19.3028 40.8373 19.3228 40.764 19.3228 40.684ZM20.3068 36.536V36.904C20.3068 37.0213 20.2361 37.0933 20.0948 37.12L19.7268 37.188C19.7828 37.3293 19.8108 37.484 19.8108 37.652C19.8108 37.8547 19.7694 38.0387 19.6868 38.204C19.6068 38.3667 19.4948 38.5053 19.3508 38.62C19.2068 38.7347 19.0361 38.824 18.8388 38.888C18.6441 38.9493 18.4334 38.98 18.2068 38.98C18.1268 38.98 18.0494 38.976 17.9748 38.968C17.9001 38.96 17.8268 38.9493 17.7548 38.936C17.6268 39.0133 17.5628 39.1 17.5628 39.196C17.5628 39.2787 17.6001 39.34 17.6748 39.38C17.7521 39.4173 17.8534 39.444 17.9788 39.46C18.1041 39.476 18.2468 39.4867 18.4068 39.492C18.5668 39.4947 18.7308 39.5027 18.8988 39.516C19.0668 39.5293 19.2308 39.5533 19.3908 39.588C19.5508 39.62 19.6934 39.672 19.8188 39.744C19.9441 39.816 20.0441 39.9147 20.1188 40.04C20.1961 40.1627 20.2348 40.3213 20.2348 40.516C20.2348 40.6973 20.1894 40.8733 20.0988 41.044C20.0108 41.2147 19.8814 41.3667 19.7108 41.5C19.5428 41.6333 19.3348 41.74 19.0868 41.82C18.8414 41.9027 18.5614 41.944 18.2468 41.944C17.9374 41.944 17.6681 41.9133 17.4388 41.852C17.2094 41.7933 17.0188 41.7133 16.8668 41.612C16.7148 41.5133 16.6014 41.3987 16.5268 41.268C16.4521 41.1373 16.4148 41.0013 16.4148 40.86C16.4148 40.668 16.4721 40.508 16.5868 40.38C16.7041 40.2493 16.8641 40.1453 17.0668 40.068C16.9574 40.012 16.8708 39.9373 16.8067 39.844C16.7428 39.7507 16.7108 39.628 16.7108 39.476C16.7108 39.4147 16.7214 39.352 16.7428 39.288C16.7668 39.2213 16.8001 39.156 16.8428 39.092C16.8881 39.028 16.9441 38.968 17.0108 38.912C17.0774 38.8533 17.1561 38.8013 17.2467 38.756C17.0388 38.644 16.8748 38.4947 16.7548 38.308C16.6374 38.1213 16.5788 37.9027 16.5788 37.652C16.5788 37.4493 16.6188 37.2667 16.6988 37.104C16.7814 36.9387 16.8948 36.7987 17.0388 36.684C17.1854 36.5667 17.3574 36.4773 17.5548 36.416C17.7548 36.3547 17.9721 36.324 18.2068 36.324C18.3828 36.324 18.5481 36.3427 18.7028 36.38C18.8574 36.4147 18.9988 36.4667 19.1268 36.536H20.3068ZM21.9333 34.556V40.5H20.9453V34.556H21.9333ZM25.5617 37.976C25.5617 37.848 25.543 37.728 25.5057 37.616C25.471 37.5013 25.4177 37.4013 25.3457 37.316C25.2737 37.2307 25.1817 37.164 25.0697 37.116C24.9604 37.0653 24.8324 37.04 24.6857 37.04C24.4004 37.04 24.175 37.1213 24.0097 37.284C23.847 37.4467 23.743 37.6773 23.6977 37.976H25.5617ZM23.6777 38.572C23.6937 38.7827 23.731 38.9653 23.7897 39.12C23.8484 39.272 23.9257 39.3987 24.0217 39.5C24.1177 39.5987 24.231 39.6733 24.3617 39.724C24.495 39.772 24.6417 39.796 24.8017 39.796C24.9617 39.796 25.099 39.7773 25.2137 39.74C25.331 39.7027 25.4324 39.6613 25.5177 39.616C25.6057 39.5707 25.6817 39.5293 25.7457 39.492C25.8124 39.4547 25.8764 39.436 25.9377 39.436C26.0204 39.436 26.0817 39.4667 26.1217 39.528L26.4057 39.888C26.2964 40.016 26.1737 40.124 26.0377 40.212C25.9017 40.2973 25.759 40.3667 25.6097 40.42C25.463 40.4707 25.3124 40.5067 25.1577 40.528C25.0057 40.5493 24.8577 40.56 24.7137 40.56C24.4284 40.56 24.163 40.5133 23.9177 40.42C23.6724 40.324 23.459 40.184 23.2777 40C23.0964 39.8133 22.9537 39.584 22.8497 39.312C22.7457 39.0373 22.6937 38.72 22.6937 38.36C22.6937 38.08 22.739 37.8173 22.8297 37.572C22.9204 37.324 23.0497 37.1093 23.2177 36.928C23.3884 36.744 23.595 36.5987 23.8377 36.492C24.083 36.3853 24.359 36.332 24.6657 36.332C24.9244 36.332 25.163 36.3733 25.3817 36.456C25.6004 36.5387 25.7884 36.66 25.9457 36.82C26.103 36.9773 26.2257 37.172 26.3137 37.404C26.4044 37.6333 26.4497 37.896 26.4497 38.192C26.4497 38.3413 26.4337 38.4427 26.4017 38.496C26.3697 38.5467 26.3084 38.572 26.2177 38.572H23.6777Z" fill="black"/>
<g opacity="0.75">
<rect x="31" y="41.5" width="8" height="1" transform="rotate(-90 31 41.5)" fill="#979797"/>
</g>
<path d="M42.4545 35.768C42.4225 35.824 42.3878 35.8653 42.3505 35.892C42.3158 35.916 42.2718 35.928 42.2185 35.928C42.1625 35.928 42.1011 35.908 42.0345 35.868C41.9705 35.8253 41.8931 35.7787 41.8025 35.728C41.7118 35.6773 41.6051 35.632 41.4825 35.592C41.3625 35.5493 41.2198 35.528 41.0545 35.528C40.9051 35.528 40.7745 35.5467 40.6625 35.584C40.5505 35.6187 40.4558 35.668 40.3785 35.732C40.3038 35.796 40.2478 35.8733 40.2105 35.964C40.1731 36.052 40.1545 36.1493 40.1545 36.256C40.1545 36.392 40.1918 36.5053 40.2665 36.596C40.3438 36.6867 40.4451 36.764 40.5705 36.828C40.6958 36.892 40.8385 36.9493 40.9985 37C41.1585 37.0507 41.3225 37.1053 41.4905 37.164C41.6585 37.22 41.8225 37.2867 41.9825 37.364C42.1425 37.4387 42.2851 37.5347 42.4105 37.652C42.5358 37.7667 42.6358 37.908 42.7105 38.076C42.7878 38.244 42.8265 38.448 42.8265 38.688C42.8265 38.9493 42.7811 39.1947 42.6905 39.424C42.6025 39.6507 42.4718 39.8493 42.2985 40.02C42.1278 40.188 41.9185 40.3213 41.6705 40.42C41.4225 40.516 41.1385 40.564 40.8185 40.564C40.6345 40.564 40.4531 40.5453 40.2745 40.508C40.0958 40.4733 39.9238 40.4227 39.7585 40.356C39.5958 40.2893 39.4425 40.2093 39.2985 40.116C39.1545 40.0227 39.0265 39.9187 38.9145 39.804L39.2305 39.288C39.2571 39.2507 39.2918 39.22 39.3345 39.196C39.3771 39.1693 39.4225 39.156 39.4705 39.156C39.5371 39.156 39.6091 39.184 39.6865 39.24C39.7638 39.2933 39.8558 39.3533 39.9625 39.42C40.0691 39.4867 40.1931 39.548 40.3345 39.604C40.4785 39.6573 40.6505 39.684 40.8505 39.684C41.1571 39.684 41.3945 39.612 41.5625 39.468C41.7305 39.3213 41.8145 39.112 41.8145 38.84C41.8145 38.688 41.7758 38.564 41.6985 38.468C41.6238 38.372 41.5238 38.292 41.3985 38.228C41.2731 38.1613 41.1305 38.1053 40.9705 38.06C40.8105 38.0147 40.6478 37.9653 40.4825 37.912C40.3171 37.8587 40.1545 37.7947 39.9945 37.72C39.8345 37.6453 39.6918 37.548 39.5665 37.428C39.4411 37.308 39.3398 37.1587 39.2625 36.98C39.1878 36.7987 39.1505 36.576 39.1505 36.312C39.1505 36.1013 39.1918 35.896 39.2745 35.696C39.3598 35.496 39.4825 35.3187 39.6425 35.164C39.8025 35.0093 39.9998 34.8853 40.2345 34.792C40.4691 34.6987 40.7385 34.652 41.0425 34.652C41.3838 34.652 41.6985 34.7053 41.9865 34.812C42.2745 34.9187 42.5198 35.068 42.7225 35.26L42.4545 35.768ZM44.5424 36.836C44.7024 36.6867 44.8784 36.5653 45.0704 36.472C45.2624 36.3787 45.4877 36.332 45.7464 36.332C45.9704 36.332 46.1691 36.3707 46.3424 36.448C46.5157 36.5227 46.6597 36.6293 46.7744 36.768C46.8917 36.904 46.9797 37.068 47.0384 37.26C47.0997 37.4493 47.1304 37.6587 47.1304 37.888V40.5H46.1424V37.888C46.1424 37.6373 46.0851 37.444 45.9704 37.308C45.8557 37.1693 45.6811 37.1 45.4464 37.1C45.2757 37.1 45.1157 37.1387 44.9664 37.216C44.8171 37.2933 44.6757 37.3987 44.5424 37.532V40.5H43.5544V34.556H44.5424V36.836ZM49.094 36.396V40.5H48.102V36.396H49.094ZM49.23 35.2C49.23 35.2853 49.2127 35.3653 49.178 35.44C49.1434 35.5147 49.0967 35.58 49.038 35.636C48.982 35.692 48.9154 35.7373 48.838 35.772C48.7607 35.804 48.678 35.82 48.59 35.82C48.5047 35.82 48.4234 35.804 48.346 35.772C48.2714 35.7373 48.206 35.692 48.15 35.636C48.094 35.58 48.0487 35.5147 48.014 35.44C47.982 35.3653 47.966 35.2853 47.966 35.2C47.966 35.112 47.982 35.0293 48.014 34.952C48.0487 34.8747 48.094 34.808 48.15 34.752C48.206 34.696 48.2714 34.652 48.346 34.62C48.4234 34.5853 48.5047 34.568 48.59 34.568C48.678 34.568 48.7607 34.5853 48.838 34.62C48.9154 34.652 48.982 34.696 49.038 34.752C49.0967 34.808 49.1434 34.8747 49.178 34.952C49.2127 35.0293 49.23 35.112 49.23 35.2ZM54.0333 37.136V39.36C54.0333 39.488 54.0653 39.588 54.1293 39.66C54.1933 39.732 54.2786 39.768 54.3853 39.768C54.4466 39.768 54.4973 39.7613 54.5373 39.748C54.5799 39.732 54.6159 39.716 54.6453 39.7C54.6773 39.684 54.7053 39.6693 54.7293 39.656C54.7533 39.64 54.7773 39.632 54.8013 39.632C54.8306 39.632 54.8546 39.64 54.8733 39.656C54.8919 39.6693 54.9119 39.6907 54.9333 39.72L55.2293 40.2C55.0853 40.32 54.9199 40.4107 54.7333 40.472C54.5493 40.5333 54.3573 40.564 54.1573 40.564C53.7999 40.564 53.5253 40.464 53.3333 40.264C53.1413 40.0613 53.0453 39.7827 53.0453 39.428V37.136H51.3773V40.5H50.3893V37.14L50.0333 37.084C49.9559 37.068 49.8933 37.0413 49.8453 37.004C49.7999 36.964 49.7773 36.908 49.7773 36.836V36.432H50.3893V36.128C50.3893 35.8933 50.4239 35.6827 50.4933 35.496C50.5653 35.3093 50.6666 35.1507 50.7973 35.02C50.9306 34.8893 51.0919 34.7893 51.2813 34.72C51.4706 34.6507 51.6839 34.616 51.9213 34.616C52.1106 34.616 52.2866 34.6413 52.4493 34.692L52.4293 35.188C52.4266 35.2253 52.4159 35.256 52.3973 35.28C52.3786 35.3013 52.3533 35.3187 52.3213 35.332C52.2919 35.3427 52.2573 35.3507 52.2173 35.356C52.1773 35.3587 52.1346 35.36 52.0893 35.36C51.9719 35.36 51.8666 35.3733 51.7733 35.4C51.6826 35.424 51.6053 35.468 51.5413 35.532C51.4773 35.5933 51.4279 35.676 51.3933 35.78C51.3613 35.8813 51.3453 36.008 51.3453 36.16V36.432H53.0893L53.3013 35.308C53.3146 35.2547 53.3399 35.2133 53.3773 35.184C53.4146 35.1547 53.4626 35.14 53.5213 35.14H54.0333V36.432H55.1293V37.136H54.0333Z" fill="black"/>
<g opacity="0.75">
<rect x="62" y="41.5" width="8" height="1" transform="rotate(-90 62 41.5)" fill="#979797"/>
</g>
<path d="M64 35.5C64 33.8431 65.3431 32.5 67 32.5H89C90.6569 32.5 92 33.8431 92 35.5V39.5C92 41.1569 90.6569 42.5 89 42.5H67C65.3431 42.5 64 41.1569 64 39.5V35.5Z" fill="#FF9300"/>
<path d="M74.0847 37.608C74.0847 38.032 74.014 38.4213 73.8727 38.776C73.7314 39.1307 73.5327 39.436 73.2767 39.692C73.0207 39.948 72.7127 40.1467 72.3527 40.288C71.9927 40.4293 71.5927 40.5 71.1527 40.5H68.9487V34.716H71.1527C71.5927 34.716 71.9927 34.788 72.3527 34.932C72.7127 35.0733 73.0207 35.272 73.2767 35.528C73.5327 35.7813 73.7314 36.0853 73.8727 36.44C74.014 36.7947 74.0847 37.184 74.0847 37.608ZM72.9807 37.608C72.9807 37.2907 72.938 37.0067 72.8527 36.756C72.77 36.5027 72.6487 36.2893 72.4887 36.116C72.3314 35.94 72.1394 35.8053 71.9127 35.712C71.6887 35.6187 71.4354 35.572 71.1527 35.572H70.0287V39.644H71.1527C71.4354 39.644 71.6887 39.5973 71.9127 39.504C72.1394 39.4107 72.3314 39.2773 72.4887 39.104C72.6487 38.928 72.77 38.7147 72.8527 38.464C72.938 38.2107 72.9807 37.9253 72.9807 37.608ZM75.7403 37.108C75.8683 36.8627 76.0203 36.6707 76.1963 36.532C76.3723 36.3907 76.5803 36.32 76.8203 36.32C77.0096 36.32 77.1616 36.3613 77.2763 36.444L77.2123 37.184C77.199 37.232 77.179 37.2667 77.1523 37.288C77.1283 37.3067 77.095 37.316 77.0523 37.316C77.0123 37.316 76.9523 37.3093 76.8723 37.296C76.795 37.2827 76.719 37.276 76.6443 37.276C76.535 37.276 76.4376 37.292 76.3523 37.324C76.267 37.356 76.1896 37.4027 76.1203 37.464C76.0536 37.5227 75.9936 37.5947 75.9403 37.68C75.8896 37.7653 75.8416 37.8627 75.7963 37.972V40.5H74.8083V36.396H75.3883C75.4896 36.396 75.5603 36.4147 75.6003 36.452C75.6403 36.4867 75.667 36.5507 75.6803 36.644L75.7403 37.108ZM79.906 38.748C79.6207 38.7613 79.3807 38.7867 79.186 38.824C78.9913 38.8587 78.8353 38.904 78.718 38.96C78.6007 39.016 78.5167 39.0813 78.466 39.156C78.4153 39.2307 78.39 39.312 78.39 39.4C78.39 39.5733 78.4407 39.6973 78.542 39.772C78.646 39.8467 78.7807 39.884 78.946 39.884C79.1487 39.884 79.3233 39.848 79.47 39.776C79.6193 39.7013 79.7647 39.5893 79.906 39.44V38.748ZM77.642 36.968C78.114 36.536 78.682 36.32 79.346 36.32C79.586 36.32 79.8007 36.36 79.99 36.44C80.1793 36.5173 80.3393 36.6267 80.47 36.768C80.6007 36.9067 80.6993 37.0733 80.766 37.268C80.8353 37.4627 80.87 37.676 80.87 37.908V40.5H80.422C80.3287 40.5 80.2567 40.4867 80.206 40.46C80.1553 40.4307 80.1153 40.3733 80.086 40.288L79.998 39.992C79.894 40.0853 79.7927 40.168 79.694 40.24C79.5953 40.3093 79.4927 40.368 79.386 40.416C79.2793 40.464 79.1647 40.5 79.042 40.524C78.922 40.5507 78.7887 40.564 78.642 40.564C78.4687 40.564 78.3087 40.5413 78.162 40.496C78.0153 40.448 77.8887 40.3773 77.782 40.284C77.6753 40.1907 77.5927 40.0747 77.534 39.936C77.4753 39.7973 77.446 39.636 77.446 39.452C77.446 39.348 77.4633 39.2453 77.498 39.144C77.5327 39.04 77.5887 38.9413 77.666 38.848C77.746 38.7547 77.8487 38.6667 77.974 38.584C78.0993 38.5013 78.2527 38.4293 78.434 38.368C78.618 38.3067 78.8313 38.2573 79.074 38.22C79.3167 38.18 79.594 38.156 79.906 38.148V37.908C79.906 37.6333 79.8473 37.4307 79.73 37.3C79.6127 37.1667 79.4433 37.1 79.222 37.1C79.062 37.1 78.9287 37.1187 78.822 37.156C78.718 37.1933 78.626 37.236 78.546 37.284C78.466 37.3293 78.3927 37.3707 78.326 37.408C78.262 37.4453 78.19 37.464 78.11 37.464C78.0407 37.464 77.982 37.4467 77.934 37.412C77.886 37.3747 77.8473 37.332 77.818 37.284L77.642 36.968ZM87.6214 36.396L86.3174 40.5H85.5254C85.4348 40.5 85.3721 40.4413 85.3374 40.324L84.6014 37.952C84.5774 37.872 84.5548 37.7933 84.5334 37.716C84.5148 37.636 84.4988 37.556 84.4854 37.476C84.4694 37.556 84.4508 37.6373 84.4294 37.72C84.4108 37.8 84.3894 37.88 84.3654 37.96L83.6174 40.324C83.5854 40.4413 83.5148 40.5 83.4054 40.5H82.6454L81.3454 36.396H82.1334C82.2054 36.396 82.2668 36.4133 82.3174 36.448C82.3681 36.4827 82.4014 36.5267 82.4174 36.58L83.0054 38.772C83.0348 38.892 83.0601 39.0093 83.0814 39.124C83.1054 39.2387 83.1254 39.3533 83.1414 39.468C83.1708 39.3533 83.2014 39.2387 83.2334 39.124C83.2681 39.0093 83.3041 38.892 83.3414 38.772L84.0214 36.572C84.0374 36.5187 84.0681 36.4747 84.1134 36.44C84.1614 36.4053 84.2188 36.388 84.2854 36.388H84.7214C84.7908 36.388 84.8494 36.4053 84.8974 36.44C84.9481 36.4747 84.9814 36.5187 84.9974 36.572L85.6574 38.772C85.6921 38.892 85.7241 39.0107 85.7534 39.128C85.7854 39.2427 85.8161 39.3573 85.8454 39.472C85.8801 39.2453 85.9294 39.012 85.9934 38.772L86.5974 36.58C86.6161 36.5267 86.6494 36.4827 86.6974 36.448C86.7454 36.4133 86.8028 36.396 86.8694 36.396H87.6214Z" fill="black"/>
<path d="M3.5 31H90.5V30H3.5V31ZM93 33.5V41.5H94V33.5H93ZM90.5 44H3.5V45H90.5V44ZM1 41.5V33.5H0V41.5H1ZM3.5 44C2.11929 44 1 42.8807 1 41.5H0C0 43.433 1.56701 45 3.5 45V44ZM93 41.5C93 42.8807 91.8807 44 90.5 44V45C92.433 45 94 43.433 94 41.5H93ZM90.5 31C91.8807 31 93 32.1193 93 33.5H94C94 31.567 92.433 30 90.5 30V31ZM3.5 30C1.567 30 0 31.567 0 33.5H1C1 32.1193 2.11929 31 3.5 31V30Z" fill="#979797"/>
</svg>
