<svg width="56" height="48" viewBox="0 0 56 48" fill="none" xmlns="http://www.w3.org/2000/svg">
<defs>
<linearGradient id="paint0_linear" x1="11.4999" y1="15.4998" x2="11.4999" y2="2.49982" gradientUnits="userSpaceOnUse">
<stop stop-color="#535353"/>
<stop offset="0.153901" stop-color="#A2A2A2"/>
<stop offset="0.806335" stop-color="#AEAEAE"/>
<stop offset="1" stop-color="#F5F5F5"/>
</linearGradient>
<linearGradient id="paint1_linear" x1="11.4999" y1="39.4998" x2="11.4999" y2="26.4998" gradientUnits="userSpaceOnUse">
<stop stop-color="#535353"/>
<stop offset="0.153901" stop-color="#A2A2A2"/>
<stop offset="0.806335" stop-color="#AEAEAE"/>
<stop offset="1" stop-color="#F5F5F5"/>
</linearGradient>
<linearGradient id="paint2_linear" x1="39.4999" y1="15.4998" x2="39.4999" y2="2.49982" gradientUnits="userSpaceOnUse">
<stop stop-color="#535353"/>
<stop offset="0.153901" stop-color="#A2A2A2"/>
<stop offset="0.806335" stop-color="#AEAEAE"/>
<stop offset="1" stop-color="#F5F5F5"/>
</linearGradient>
<linearGradient id="paint3_linear" x1="8.99988" y1="0.393268" x2="8.99988" y2="13" gradientUnits="userSpaceOnUse">
<stop stop-color="#D0D8F1"/>
<stop offset="0.1875" stop-color="#8E9FCE"/>
<stop offset="0.778297" stop-color="#8D9ECD"/>
<stop offset="1" stop-color="#545E7D"/>
</linearGradient>
<linearGradient id="paint4_linear" x1="39.4999" y1="39.4998" x2="39.4999" y2="26.4998" gradientUnits="userSpaceOnUse">
<stop stop-color="#535353"/>
<stop offset="0.153901" stop-color="#A2A2A2"/>
<stop offset="0.806335" stop-color="#AEAEAE"/>
<stop offset="1" stop-color="#F5F5F5"/>
</linearGradient>
<linearGradient id="paint5_linear" x1="8.99988" y1="0.393268" x2="8.99988" y2="13" gradientUnits="userSpaceOnUse">
<stop stop-color="#D0D8F1"/>
<stop offset="0.1875" stop-color="#8E9FCE"/>
<stop offset="0.778297" stop-color="#8D9ECD"/>
<stop offset="1" stop-color="#545E7D"/>
</linearGradient>
</defs>
<path d="M2.49988 7.49982C2.49988 4.73839 4.73845 2.49982 7.49988 2.49982H15.4999C18.2613 2.49982 20.4999 4.73839 20.4999 7.49982L20.4999 10.4998C20.4999 13.2612 18.2613 15.4998 15.4999 15.4998H7.49988C4.73845 15.4998 2.49988 13.2612 2.49988 10.4998L2.49988 7.49982Z" fill="url(#paint0_linear)"/>
<path opacity="0.15" d="M5.99988 14.4998C11.3332 14.4998 14.6665 14.4998 15.9999 14.4998C17.9999 14.4998 18.9999 12.4998 18.9999 11.4998C18.9999 10.8332 18.9999 8.83315 18.9999 5.49982" stroke="black" stroke-width="2"/>
<path opacity="0.15" d="M16.9999 3.99982C11.6665 3.99982 8.33321 3.99982 6.99988 3.99982C4.99988 3.99982 3.99988 5.99982 3.99988 6.99982C3.99988 7.66648 3.99988 9.33315 3.99988 11.9998" stroke="#EEEEEE" stroke-width="2"/>
<path d="M10.9999 13.9998L10.9999 3.99982L11.9999 3.99982L11.9999 13.9998H10.9999Z" fill="#393B45"/>
<path d="M7.49988 2.49982C4.73845 2.49982 2.49988 4.73839 2.49988 7.49982L2.49988 10.4998C2.49988 13.2612 4.73845 15.4998 7.49988 15.4998H15.4999C18.2613 15.4998 20.4999 13.2612 20.4999 10.4998L20.4999 7.49982C20.4999 4.73839 18.2613 2.49982 15.4999 2.49982L7.49988 2.49982Z" stroke="black"/>
<path d="M2.49988 31.4998C2.49988 28.7384 4.73845 26.4998 7.49988 26.4998H15.4999C18.2613 26.4998 20.4999 28.7384 20.4999 31.4998L20.4999 34.4998C20.4999 37.2612 18.2613 39.4998 15.4999 39.4998H7.49988C4.73845 39.4998 2.49988 37.2612 2.49988 34.4998L2.49988 31.4998Z" fill="url(#paint1_linear)"/>
<path opacity="0.15" d="M5.99988 38.4998C11.3332 38.4998 14.6665 38.4998 15.9999 38.4998C17.9999 38.4998 18.9999 36.4998 18.9999 35.4998C18.9999 34.8332 18.9999 32.8332 18.9999 29.4998" stroke="black" stroke-width="2"/>
<path opacity="0.15" d="M16.9999 27.9998C11.6665 27.9998 8.33321 27.9998 6.99988 27.9998C4.99988 27.9998 3.99988 29.9998 3.99988 30.9998C3.99988 31.6665 3.99988 33.3332 3.99988 35.9998" stroke="#EEEEEE" stroke-width="2"/>
<path d="M10.9999 37.9998L10.9999 27.9998L11.9999 27.9998L11.9999 37.9998H10.9999Z" fill="#393B45"/>
<path d="M7.49988 26.4998C4.73845 26.4998 2.49988 28.7384 2.49988 31.4998L2.49988 34.4998C2.49988 37.2612 4.73845 39.4998 7.49988 39.4998H15.4999C18.2613 39.4998 20.4999 37.2612 20.4999 34.4998L20.4999 31.4998C20.4999 28.7384 18.2613 26.4998 15.4999 26.4998L7.49988 26.4998Z" stroke="black"/>
<path d="M30.4999 7.49982C30.4999 4.73839 32.7385 2.49982 35.4999 2.49982H43.4999C46.2613 2.49982 48.4999 4.73839 48.4999 7.49982L48.4999 10.4998C48.4999 13.2612 46.2613 15.4998 43.4999 15.4998H35.4999C32.7385 15.4998 30.4999 13.2612 30.4999 10.4998L30.4999 7.49982Z" fill="url(#paint2_linear)"/>
<rect width="18" height="13" rx="5" transform="matrix(-1 -8.74228e-08 -9.47108e-08 1 48.5 2.50001)" fill="url(#paint3_linear)"/>
<path opacity="0.15" d="M33.9999 14.4998C39.3332 14.4998 42.6665 14.4998 43.9999 14.4998C45.9999 14.4998 46.9999 12.4998 46.9999 11.4998C46.9999 10.8332 46.9999 8.83315 46.9999 5.49982" stroke="black" stroke-width="2"/>
<path opacity="0.15" d="M44.9999 3.99982C39.6665 3.99982 36.3332 3.99982 34.9999 3.99982C32.9999 3.99982 31.9999 5.99982 31.9999 6.99982C31.9999 7.66648 31.9999 9.33315 31.9999 11.9998" stroke="#EEEEEE" stroke-width="2"/>
<path d="M38.9999 13.9998L38.9999 3.99982L39.9999 3.99982L39.9999 13.9998H38.9999Z" fill="#393B45"/>
<path d="M35.4999 2.49982C32.7385 2.49982 30.4999 4.73839 30.4999 7.49982L30.4999 10.4998C30.4999 13.2612 32.7385 15.4998 35.4999 15.4998H43.4999C46.2613 15.4998 48.4999 13.2612 48.4999 10.4998L48.4999 7.49982C48.4999 4.73839 46.2613 2.49982 43.4999 2.49982L35.4999 2.49982Z" stroke="black"/>
<path d="M30.4999 31.4998C30.4999 28.7384 32.7385 26.4998 35.4999 26.4998L43.4999 26.4998C46.2613 26.4998 48.4999 28.7384 48.4999 31.4998L48.4999 34.4998C48.4999 37.2612 46.2613 39.4998 43.4999 39.4998L35.4999 39.4998C32.7385 39.4998 30.4999 37.2612 30.4999 34.4998L30.4999 31.4998Z" fill="url(#paint4_linear)"/>
<rect width="18" height="13" rx="5" transform="matrix(-1 -2.62268e-07 -2.69556e-07 1 48.5 26.5)" fill="url(#paint5_linear)"/>
<path opacity="0.15" d="M33.9999 38.4998C39.3332 38.4998 42.6665 38.4998 43.9999 38.4998C45.9999 38.4998 46.9999 36.4998 46.9999 35.4998C46.9999 34.8332 46.9999 32.8332 46.9999 29.4998" stroke="black" stroke-width="2"/>
<path opacity="0.15" d="M44.9999 27.9998C39.6665 27.9998 36.3332 27.9998 34.9999 27.9998C32.9999 27.9998 31.9999 29.9998 31.9999 30.9998C31.9999 31.6665 31.9999 33.3332 31.9999 35.9998" stroke="#EEEEEE" stroke-width="2"/>
<path d="M38.9999 37.9998L38.9999 27.9998L39.9999 27.9998L39.9999 37.9998L38.9999 37.9998Z" fill="#393B45"/>
<path d="M35.4999 26.4998C32.7385 26.4998 30.4999 28.7384 30.4999 31.4998L30.4999 34.4998C30.4999 37.2612 32.7385 39.4998 35.4999 39.4998L43.4999 39.4998C46.2613 39.4998 48.4999 37.2612 48.4999 34.4998L48.4999 31.4998C48.4999 28.7384 46.2613 26.4998 43.4999 26.4998L35.4999 26.4998Z" stroke="black"/>
</svg>
