<svg width="49" height="28" viewBox="0 0 49 28" fill="none" xmlns="http://www.w3.org/2000/svg">
<path d="M0.5 3.5C0.5 1.84315 1.84315 0.5 3.5 0.5H45.5C47.1569 0.5 48.5 1.84315 48.5 3.5V10.5C48.5 12.1569 47.1569 13.5 45.5 13.5H3.5C1.84315 13.5 0.5 12.1569 0.5 10.5V3.5Z" fill="#E3E3E3"/>
<path d="M11.892 4.216V10H10.812V7.472H8.09603V10H7.01603V4.216H8.09603V6.704H10.812V4.216H11.892ZM14.5951 5.832C14.8991 5.832 15.1751 5.88133 15.4231 5.98C15.6738 6.07867 15.8871 6.21867 16.0631 6.4C16.2418 6.58133 16.3791 6.80267 16.4751 7.064C16.5711 7.32533 16.6191 7.61733 16.6191 7.94C16.6191 8.26533 16.5711 8.55867 16.4751 8.82C16.3791 9.08133 16.2418 9.304 16.0631 9.488C15.8871 9.672 15.6738 9.81333 15.4231 9.912C15.1751 10.0107 14.8991 10.06 14.5951 10.06C14.2884 10.06 14.0098 10.0107 13.7591 9.912C13.5084 9.81333 13.2938 9.672 13.1151 9.488C12.9391 9.304 12.8018 9.08133 12.7031 8.82C12.6071 8.55867 12.5591 8.26533 12.5591 7.94C12.5591 7.61733 12.6071 7.32533 12.7031 7.064C12.8018 6.80267 12.9391 6.58133 13.1151 6.4C13.2938 6.21867 13.5084 6.07867 13.7591 5.98C14.0098 5.88133 14.2884 5.832 14.5951 5.832ZM14.5951 9.3C14.9364 9.3 15.1884 9.18533 15.3511 8.956C15.5164 8.72667 15.5991 8.39067 15.5991 7.948C15.5991 7.50533 15.5164 7.168 15.3511 6.936C15.1884 6.704 14.9364 6.588 14.5951 6.588C14.2484 6.588 13.9911 6.70533 13.8231 6.94C13.6578 7.172 13.5751 7.508 13.5751 7.948C13.5751 8.388 13.6578 8.724 13.8231 8.956C13.9911 9.18533 14.2484 9.3 14.5951 9.3ZM18.1848 6.608C18.3128 6.36267 18.4648 6.17067 18.6408 6.032C18.8168 5.89067 19.0248 5.82 19.2648 5.82C19.4542 5.82 19.6062 5.86133 19.7208 5.944L19.6568 6.684C19.6435 6.732 19.6235 6.76667 19.5968 6.788C19.5728 6.80667 19.5395 6.816 19.4968 6.816C19.4568 6.816 19.3968 6.80933 19.3168 6.796C19.2395 6.78267 19.1635 6.776 19.0888 6.776C18.9795 6.776 18.8822 6.792 18.7968 6.824C18.7115 6.856 18.6342 6.90267 18.5648 6.964C18.4982 7.02267 18.4382 7.09467 18.3848 7.18C18.3342 7.26533 18.2862 7.36267 18.2408 7.472V10H17.2528V5.896H17.8328C17.9342 5.896 18.0048 5.91467 18.0448 5.952C18.0848 5.98667 18.1115 6.05067 18.1248 6.144L18.1848 6.608ZM21.1412 5.896V10H20.1492V5.896H21.1412ZM21.2772 4.7C21.2772 4.78533 21.2599 4.86533 21.2252 4.94C21.1906 5.01467 21.1439 5.08 21.0852 5.136C21.0292 5.192 20.9626 5.23733 20.8852 5.272C20.8079 5.304 20.7252 5.32 20.6372 5.32C20.5519 5.32 20.4706 5.304 20.3932 5.272C20.3186 5.23733 20.2532 5.192 20.1972 5.136C20.1412 5.08 20.0959 5.01467 20.0612 4.94C20.0292 4.86533 20.0132 4.78533 20.0132 4.7C20.0132 4.612 20.0292 4.52933 20.0612 4.452C20.0959 4.37467 20.1412 4.308 20.1972 4.252C20.2532 4.196 20.3186 4.152 20.3932 4.12C20.4706 4.08533 20.5519 4.068 20.6372 4.068C20.7252 4.068 20.8079 4.08533 20.8852 4.12C20.9626 4.152 21.0292 4.196 21.0852 4.252C21.1439 4.308 21.1906 4.37467 21.2252 4.452C21.2599 4.52933 21.2772 4.612 21.2772 4.7ZM24.9765 6.304C24.9765 6.37333 24.9645 6.44133 24.9405 6.508C24.9165 6.57467 24.8845 6.62933 24.8445 6.672L22.8965 9.24H24.9165V10H21.7485V9.588C21.7485 9.54267 21.7591 9.48933 21.7805 9.428C21.8018 9.364 21.8338 9.304 21.8765 9.248L23.8445 6.652H21.8645V5.896H24.9765V6.304ZM27.3338 5.832C27.6378 5.832 27.9138 5.88133 28.1618 5.98C28.4125 6.07867 28.6258 6.21867 28.8018 6.4C28.9805 6.58133 29.1178 6.80267 29.2138 7.064C29.3098 7.32533 29.3578 7.61733 29.3578 7.94C29.3578 8.26533 29.3098 8.55867 29.2138 8.82C29.1178 9.08133 28.9805 9.304 28.8018 9.488C28.6258 9.672 28.4125 9.81333 28.1618 9.912C27.9138 10.0107 27.6378 10.06 27.3338 10.06C27.0272 10.06 26.7485 10.0107 26.4978 9.912C26.2472 9.81333 26.0325 9.672 25.8538 9.488C25.6778 9.304 25.5405 9.08133 25.4418 8.82C25.3458 8.55867 25.2978 8.26533 25.2978 7.94C25.2978 7.61733 25.3458 7.32533 25.4418 7.064C25.5405 6.80267 25.6778 6.58133 25.8538 6.4C26.0325 6.21867 26.2472 6.07867 26.4978 5.98C26.7485 5.88133 27.0272 5.832 27.3338 5.832ZM27.3338 9.3C27.6752 9.3 27.9272 9.18533 28.0898 8.956C28.2552 8.72667 28.3378 8.39067 28.3378 7.948C28.3378 7.50533 28.2552 7.168 28.0898 6.936C27.9272 6.704 27.6752 6.588 27.3338 6.588C26.9872 6.588 26.7298 6.70533 26.5618 6.94C26.3965 7.172 26.3138 7.508 26.3138 7.948C26.3138 8.388 26.3965 8.724 26.5618 8.956C26.7298 9.18533 26.9872 9.3 27.3338 9.3ZM30.9156 6.4C30.9983 6.31733 31.0849 6.24133 31.1756 6.172C31.2689 6.1 31.3663 6.04 31.4676 5.992C31.5716 5.94133 31.6823 5.90267 31.7996 5.876C31.9169 5.84667 32.0449 5.832 32.1836 5.832C32.4076 5.832 32.6063 5.87067 32.7796 5.948C32.9529 6.02267 33.0969 6.12933 33.2116 6.268C33.3289 6.404 33.4169 6.568 33.4756 6.76C33.5369 6.94933 33.5676 7.15867 33.5676 7.388V10H32.5796V7.388C32.5796 7.13733 32.5223 6.944 32.4076 6.808C32.2929 6.66933 32.1183 6.6 31.8836 6.6C31.7129 6.6 31.5529 6.63867 31.4036 6.716C31.2543 6.79333 31.1129 6.89867 30.9796 7.032V10H29.9916V5.896H30.5956C30.7236 5.896 30.8076 5.956 30.8476 6.076L30.9156 6.4ZM35.7005 10.064C35.3432 10.064 35.0685 9.964 34.8765 9.764C34.6872 9.56133 34.5925 9.28267 34.5925 8.928V6.636H34.1725C34.1192 6.636 34.0739 6.61867 34.0365 6.584C33.9992 6.54933 33.9805 6.49733 33.9805 6.428V6.036L34.6405 5.928L34.8485 4.808C34.8619 4.75467 34.8872 4.71333 34.9245 4.684C34.9619 4.65467 35.0099 4.64 35.0685 4.64H35.5805V5.932H36.6765V6.636H35.5805V8.86C35.5805 8.988 35.6112 9.088 35.6725 9.16C35.7365 9.232 35.8232 9.268 35.9325 9.268C35.9939 9.268 36.0445 9.26133 36.0845 9.248C36.1272 9.232 36.1632 9.216 36.1925 9.2C36.2245 9.184 36.2525 9.16933 36.2765 9.156C36.3005 9.14 36.3245 9.132 36.3485 9.132C36.3779 9.132 36.4019 9.14 36.4205 9.156C36.4392 9.16933 36.4592 9.19067 36.4805 9.22L36.7765 9.7C36.6325 9.82 36.4672 9.91067 36.2805 9.972C36.0939 10.0333 35.9005 10.064 35.7005 10.064ZM39.3571 8.248C39.0718 8.26133 38.8318 8.28667 38.6371 8.324C38.4424 8.35867 38.2864 8.404 38.1691 8.46C38.0518 8.516 37.9678 8.58133 37.9171 8.656C37.8664 8.73067 37.8411 8.812 37.8411 8.9C37.8411 9.07333 37.8918 9.19733 37.9931 9.272C38.0971 9.34667 38.2318 9.384 38.3971 9.384C38.5998 9.384 38.7744 9.348 38.9211 9.276C39.0704 9.20133 39.2158 9.08933 39.3571 8.94V8.248ZM37.0931 6.468C37.5651 6.036 38.1331 5.82 38.7971 5.82C39.0371 5.82 39.2518 5.86 39.4411 5.94C39.6304 6.01733 39.7904 6.12667 39.9211 6.268C40.0518 6.40667 40.1504 6.57333 40.2171 6.768C40.2864 6.96267 40.3211 7.176 40.3211 7.408V10H39.8731C39.7798 10 39.7078 9.98667 39.6571 9.96C39.6064 9.93067 39.5664 9.87333 39.5371 9.788L39.4491 9.492C39.3451 9.58533 39.2438 9.668 39.1451 9.74C39.0464 9.80933 38.9438 9.868 38.8371 9.916C38.7304 9.964 38.6158 10 38.4931 10.024C38.3731 10.0507 38.2398 10.064 38.0931 10.064C37.9198 10.064 37.7598 10.0413 37.6131 9.996C37.4664 9.948 37.3398 9.87733 37.2331 9.784C37.1264 9.69067 37.0438 9.57467 36.9851 9.436C36.9264 9.29733 36.8971 9.136 36.8971 8.952C36.8971 8.848 36.9144 8.74533 36.9491 8.644C36.9838 8.54 37.0398 8.44133 37.1171 8.348C37.1971 8.25467 37.2998 8.16667 37.4251 8.084C37.5504 8.00133 37.7038 7.92933 37.8851 7.868C38.0691 7.80667 38.2824 7.75733 38.5251 7.72C38.7678 7.68 39.0451 7.656 39.3571 7.648V7.408C39.3571 7.13333 39.2984 6.93067 39.1811 6.8C39.0638 6.66667 38.8944 6.6 38.6731 6.6C38.5131 6.6 38.3798 6.61867 38.2731 6.656C38.1691 6.69333 38.0771 6.736 37.9971 6.784C37.9171 6.82933 37.8438 6.87067 37.7771 6.908C37.7131 6.94533 37.6411 6.964 37.5611 6.964C37.4918 6.964 37.4331 6.94667 37.3851 6.912C37.3371 6.87467 37.2984 6.832 37.2691 6.784L37.0931 6.468ZM42.1316 4.056V10H41.1436V4.056H42.1316Z" fill="black"/>
<path d="M3.5 1H45.5V0H3.5V1ZM48 3.5V10.5H49V3.5H48ZM45.5 13H3.5V14H45.5V13ZM1 10.5V3.5H0V10.5H1ZM3.5 13C2.11929 13 1 11.8807 1 10.5H0C0 12.433 1.567 14 3.5 14V13ZM48 10.5C48 11.8807 46.8807 13 45.5 13V14C47.433 14 49 12.433 49 10.5H48ZM45.5 1C46.8807 1 48 2.11929 48 3.5H49C49 1.567 47.433 0 45.5 0V1ZM3.5 0C1.567 0 0 1.567 0 3.5H1C1 2.11929 2.11929 1 3.5 1V0Z" fill="#979797"/>
<path d="M0.5 17.5C0.5 15.8431 1.84315 14.5 3.5 14.5H45.5C47.1569 14.5 48.5 15.8431 48.5 17.5V24.5C48.5 26.1569 47.1569 27.5 45.5 27.5H3.5C1.84315 27.5 0.5 26.1569 0.5 24.5V17.5Z" fill="#E3E3E3"/>
<rect x="2.5" y="16.5" width="44" height="9" rx="1" fill="#FF9A10"/>
<rect x="2.5" y="16.5" width="44" height="9" rx="1" stroke="#FF9A10"/>
<path d="M11.892 18.216V24H10.812V21.472H8.09603V24H7.01603V18.216H8.09603V20.704H10.812V18.216H11.892ZM14.5951 19.832C14.8991 19.832 15.1751 19.8813 15.4231 19.98C15.6738 20.0787 15.8871 20.2187 16.0631 20.4C16.2418 20.5813 16.3791 20.8027 16.4751 21.064C16.5711 21.3253 16.6191 21.6173 16.6191 21.94C16.6191 22.2653 16.5711 22.5587 16.4751 22.82C16.3791 23.0813 16.2418 23.304 16.0631 23.488C15.8871 23.672 15.6738 23.8133 15.4231 23.912C15.1751 24.0107 14.8991 24.06 14.5951 24.06C14.2884 24.06 14.0098 24.0107 13.7591 23.912C13.5084 23.8133 13.2938 23.672 13.1151 23.488C12.9391 23.304 12.8018 23.0813 12.7031 22.82C12.6071 22.5587 12.5591 22.2653 12.5591 21.94C12.5591 21.6173 12.6071 21.3253 12.7031 21.064C12.8018 20.8027 12.9391 20.5813 13.1151 20.4C13.2938 20.2187 13.5084 20.0787 13.7591 19.98C14.0098 19.8813 14.2884 19.832 14.5951 19.832ZM14.5951 23.3C14.9364 23.3 15.1884 23.1853 15.3511 22.956C15.5164 22.7267 15.5991 22.3907 15.5991 21.948C15.5991 21.5053 15.5164 21.168 15.3511 20.936C15.1884 20.704 14.9364 20.588 14.5951 20.588C14.2484 20.588 13.9911 20.7053 13.8231 20.94C13.6578 21.172 13.5751 21.508 13.5751 21.948C13.5751 22.388 13.6578 22.724 13.8231 22.956C13.9911 23.1853 14.2484 23.3 14.5951 23.3ZM18.1848 20.608C18.3128 20.3627 18.4648 20.1707 18.6408 20.032C18.8168 19.8907 19.0248 19.82 19.2648 19.82C19.4542 19.82 19.6062 19.8613 19.7208 19.944L19.6568 20.684C19.6435 20.732 19.6235 20.7667 19.5968 20.788C19.5728 20.8067 19.5395 20.816 19.4968 20.816C19.4568 20.816 19.3968 20.8093 19.3168 20.796C19.2395 20.7827 19.1635 20.776 19.0888 20.776C18.9795 20.776 18.8822 20.792 18.7968 20.824C18.7115 20.856 18.6342 20.9027 18.5648 20.964C18.4982 21.0227 18.4382 21.0947 18.3848 21.18C18.3342 21.2653 18.2862 21.3627 18.2408 21.472V24H17.2528V19.896H17.8328C17.9342 19.896 18.0048 19.9147 18.0448 19.952C18.0848 19.9867 18.1115 20.0507 18.1248 20.144L18.1848 20.608ZM21.1412 19.896V24H20.1492V19.896H21.1412ZM21.2772 18.7C21.2772 18.7853 21.2599 18.8653 21.2252 18.94C21.1906 19.0147 21.1439 19.08 21.0852 19.136C21.0292 19.192 20.9626 19.2373 20.8852 19.272C20.8079 19.304 20.7252 19.32 20.6372 19.32C20.5519 19.32 20.4706 19.304 20.3932 19.272C20.3186 19.2373 20.2532 19.192 20.1972 19.136C20.1412 19.08 20.0959 19.0147 20.0612 18.94C20.0292 18.8653 20.0132 18.7853 20.0132 18.7C20.0132 18.612 20.0292 18.5293 20.0612 18.452C20.0959 18.3747 20.1412 18.308 20.1972 18.252C20.2532 18.196 20.3186 18.152 20.3932 18.12C20.4706 18.0853 20.5519 18.068 20.6372 18.068C20.7252 18.068 20.8079 18.0853 20.8852 18.12C20.9626 18.152 21.0292 18.196 21.0852 18.252C21.1439 18.308 21.1906 18.3747 21.2252 18.452C21.2599 18.5293 21.2772 18.612 21.2772 18.7ZM24.9765 20.304C24.9765 20.3733 24.9645 20.4413 24.9405 20.508C24.9165 20.5747 24.8845 20.6293 24.8445 20.672L22.8965 23.24H24.9165V24H21.7485V23.588C21.7485 23.5427 21.7591 23.4893 21.7805 23.428C21.8018 23.364 21.8338 23.304 21.8765 23.248L23.8445 20.652H21.8645V19.896H24.9765V20.304ZM27.3338 19.832C27.6378 19.832 27.9138 19.8813 28.1618 19.98C28.4125 20.0787 28.6258 20.2187 28.8018 20.4C28.9805 20.5813 29.1178 20.8027 29.2138 21.064C29.3098 21.3253 29.3578 21.6173 29.3578 21.94C29.3578 22.2653 29.3098 22.5587 29.2138 22.82C29.1178 23.0813 28.9805 23.304 28.8018 23.488C28.6258 23.672 28.4125 23.8133 28.1618 23.912C27.9138 24.0107 27.6378 24.06 27.3338 24.06C27.0272 24.06 26.7485 24.0107 26.4978 23.912C26.2472 23.8133 26.0325 23.672 25.8538 23.488C25.6778 23.304 25.5405 23.0813 25.4418 22.82C25.3458 22.5587 25.2978 22.2653 25.2978 21.94C25.2978 21.6173 25.3458 21.3253 25.4418 21.064C25.5405 20.8027 25.6778 20.5813 25.8538 20.4C26.0325 20.2187 26.2472 20.0787 26.4978 19.98C26.7485 19.8813 27.0272 19.832 27.3338 19.832ZM27.3338 23.3C27.6752 23.3 27.9272 23.1853 28.0898 22.956C28.2552 22.7267 28.3378 22.3907 28.3378 21.948C28.3378 21.5053 28.2552 21.168 28.0898 20.936C27.9272 20.704 27.6752 20.588 27.3338 20.588C26.9872 20.588 26.7298 20.7053 26.5618 20.94C26.3965 21.172 26.3138 21.508 26.3138 21.948C26.3138 22.388 26.3965 22.724 26.5618 22.956C26.7298 23.1853 26.9872 23.3 27.3338 23.3ZM30.9156 20.4C30.9983 20.3173 31.0849 20.2413 31.1756 20.172C31.2689 20.1 31.3663 20.04 31.4676 19.992C31.5716 19.9413 31.6823 19.9027 31.7996 19.876C31.9169 19.8467 32.0449 19.832 32.1836 19.832C32.4076 19.832 32.6063 19.8707 32.7796 19.948C32.9529 20.0227 33.0969 20.1293 33.2116 20.268C33.3289 20.404 33.4169 20.568 33.4756 20.76C33.5369 20.9493 33.5676 21.1587 33.5676 21.388V24H32.5796V21.388C32.5796 21.1373 32.5223 20.944 32.4076 20.808C32.2929 20.6693 32.1183 20.6 31.8836 20.6C31.7129 20.6 31.5529 20.6387 31.4036 20.716C31.2543 20.7933 31.1129 20.8987 30.9796 21.032V24H29.9916V19.896H30.5956C30.7236 19.896 30.8076 19.956 30.8476 20.076L30.9156 20.4ZM35.7005 24.064C35.3432 24.064 35.0685 23.964 34.8765 23.764C34.6872 23.5613 34.5925 23.2827 34.5925 22.928V20.636H34.1725C34.1192 20.636 34.0739 20.6187 34.0365 20.584C33.9992 20.5493 33.9805 20.4973 33.9805 20.428V20.036L34.6405 19.928L34.8485 18.808C34.8619 18.7547 34.8872 18.7133 34.9245 18.684C34.9619 18.6547 35.0099 18.64 35.0685 18.64H35.5805V19.932H36.6765V20.636H35.5805V22.86C35.5805 22.988 35.6112 23.088 35.6725 23.16C35.7365 23.232 35.8232 23.268 35.9325 23.268C35.9939 23.268 36.0445 23.2613 36.0845 23.248C36.1272 23.232 36.1632 23.216 36.1925 23.2C36.2245 23.184 36.2525 23.1693 36.2765 23.156C36.3005 23.14 36.3245 23.132 36.3485 23.132C36.3779 23.132 36.4019 23.14 36.4205 23.156C36.4392 23.1693 36.4592 23.1907 36.4805 23.22L36.7765 23.7C36.6325 23.82 36.4672 23.9107 36.2805 23.972C36.0939 24.0333 35.9005 24.064 35.7005 24.064ZM39.3571 22.248C39.0718 22.2613 38.8318 22.2867 38.6371 22.324C38.4424 22.3587 38.2864 22.404 38.1691 22.46C38.0518 22.516 37.9678 22.5813 37.9171 22.656C37.8664 22.7307 37.8411 22.812 37.8411 22.9C37.8411 23.0733 37.8918 23.1973 37.9931 23.272C38.0971 23.3467 38.2318 23.384 38.3971 23.384C38.5998 23.384 38.7744 23.348 38.9211 23.276C39.0704 23.2013 39.2158 23.0893 39.3571 22.94V22.248ZM37.0931 20.468C37.5651 20.036 38.1331 19.82 38.7971 19.82C39.0371 19.82 39.2518 19.86 39.4411 19.94C39.6304 20.0173 39.7904 20.1267 39.9211 20.268C40.0518 20.4067 40.1504 20.5733 40.2171 20.768C40.2864 20.9627 40.3211 21.176 40.3211 21.408V24H39.8731C39.7798 24 39.7078 23.9867 39.6571 23.96C39.6064 23.9307 39.5664 23.8733 39.5371 23.788L39.4491 23.492C39.3451 23.5853 39.2438 23.668 39.1451 23.74C39.0464 23.8093 38.9438 23.868 38.8371 23.916C38.7304 23.964 38.6158 24 38.4931 24.024C38.3731 24.0507 38.2398 24.064 38.0931 24.064C37.9198 24.064 37.7598 24.0413 37.6131 23.996C37.4664 23.948 37.3398 23.8773 37.2331 23.784C37.1264 23.6907 37.0438 23.5747 36.9851 23.436C36.9264 23.2973 36.8971 23.136 36.8971 22.952C36.8971 22.848 36.9144 22.7453 36.9491 22.644C36.9838 22.54 37.0398 22.4413 37.1171 22.348C37.1971 22.2547 37.2998 22.1667 37.4251 22.084C37.5504 22.0013 37.7038 21.9293 37.8851 21.868C38.0691 21.8067 38.2824 21.7573 38.5251 21.72C38.7678 21.68 39.0451 21.656 39.3571 21.648V21.408C39.3571 21.1333 39.2984 20.9307 39.1811 20.8C39.0638 20.6667 38.8944 20.6 38.6731 20.6C38.5131 20.6 38.3798 20.6187 38.2731 20.656C38.1691 20.6933 38.0771 20.736 37.9971 20.784C37.9171 20.8293 37.8438 20.8707 37.7771 20.908C37.7131 20.9453 37.6411 20.964 37.5611 20.964C37.4918 20.964 37.4331 20.9467 37.3851 20.912C37.3371 20.8747 37.2984 20.832 37.2691 20.784L37.0931 20.468ZM42.1316 18.056V24H41.1436V18.056H42.1316Z" fill="black"/>
<path d="M3.5 15H45.5V14H3.5V15ZM48 17.5V24.5H49V17.5H48ZM45.5 27H3.5V28H45.5V27ZM1 24.5V17.5H0V24.5H1ZM3.5 27C2.11929 27 1 25.8807 1 24.5H0C0 26.433 1.567 28 3.5 28V27ZM48 24.5C48 25.8807 46.8807 27 45.5 27V28C47.433 28 49 26.433 49 24.5H48ZM45.5 15C46.8807 15 48 16.1193 48 17.5H49C49 15.567 47.433 14 45.5 14V15ZM3.5 14C1.567 14 0 15.567 0 17.5H1C1 16.1193 2.11929 15 3.5 15V14Z" fill="#979797"/>
</svg>
