<svg width="48" height="281" viewBox="0 0 48 281" fill="none" xmlns="http://www.w3.org/2000/svg">
<path d="M15.5 273L15.5 274L1.5 274L1.5 273L15.5 273Z" fill="black"/>
<path d="M15.5 234L15.5 235L1.5 235L1.5 234L15.5 234Z" fill="black"/>
<path d="M8.5 281L8.5 225" stroke="black" stroke-width="2"/>
<path d="M9.5 271L9.5 235L15.5 235L9.5 271Z" fill="#98999B"/>
<mask id="path-5-inside-1" fill="white">
<path d="M31.5 273L31.5 274L17.5 274L17.5 273L31.5 273Z"/>
</mask>
<path d="M31.5 273L31.5 274L17.5 274L17.5 273L31.5 273Z" fill="#2B3E80"/>
<path d="M31.5 274L32.5 274L32.5 275L31.5 275L31.5 274ZM31.5 273L31.5 272L32.5 272L32.5 273L31.5 273ZM17.5 273L16.5 273L16.5 272L17.5 272L17.5 273ZM17.5 274L17.5 275L16.5 275L16.5 274L17.5 274ZM30.5 274L30.5 273L32.5 273L32.5 274L30.5 274ZM31.5 274L17.5 274L17.5 272L31.5 272L31.5 274ZM18.5 273L18.5 274L16.5 274L16.5 273L18.5 273ZM17.5 273L31.5 273L31.5 275L17.5 275L17.5 273Z" fill="#2B3E80" mask="url(#path-5-inside-1)"/>
<mask id="path-7-inside-2" fill="white">
<path d="M31.5 234L31.5 235L17.5 235L17.5 234L31.5 234Z"/>
</mask>
<path d="M31.5 234L31.5 235L17.5 235L17.5 234L31.5 234Z" fill="#2B3E80"/>
<path d="M31.5 235L32.5 235L32.5 236L31.5 236L31.5 235ZM31.5 234L31.5 233L32.5 233L32.5 234L31.5 234ZM17.5 234L16.5 234L16.5 233L17.5 233L17.5 234ZM17.5 235L17.5 236L16.5 236L16.5 235L17.5 235ZM30.5 235L30.5 234L32.5 234L32.5 235L30.5 235ZM31.5 235L17.5 235L17.5 233L31.5 233L31.5 235ZM18.5 234L18.5 235L16.5 235L16.5 234L18.5 234ZM17.5 234L31.5 234L31.5 236L17.5 236L17.5 234Z" fill="#2B3E80" mask="url(#path-7-inside-2)"/>
<path d="M24.5 281L24.5 225" stroke="#2B3E80" stroke-width="2"/>
<path d="M25.5 271L25.5 235L31.5 235L25.5 271Z" fill="#7B8ECE"/>
<path d="M47.5 273L47.5 274L33.5 274L33.5 273L47.5 273Z" fill="#1437B8"/>
<path d="M47.5 234L47.5 235L33.5 235L33.5 234L47.5 234Z" fill="#1437B8"/>
<path d="M40.5 281L40.5 225" stroke="#1437B8" stroke-width="2"/>
<path d="M41.5 271L41.5 235L47.5 235L41.5 271Z" fill="#3C8DFC"/>
<path d="M15.5 198L15.5 199L1.5 199L1.5 198L15.5 198Z" fill="black"/>
<path d="M15.5 159L15.5 160L1.5 160L1.5 159L15.5 159Z" fill="black"/>
<path d="M8.5 206L8.5 150" stroke="black" stroke-width="2"/>
<path d="M9.5 196L9.5 160L15.5 160L9.5 196Z" fill="#98999B"/>
<mask id="path-19-inside-3" fill="white">
<path d="M31.5 198L31.5 199L17.5 199L17.5 198L31.5 198Z"/>
</mask>
<path d="M31.5 198L31.5 199L17.5 199L17.5 198L31.5 198Z" fill="#2B3E80"/>
<path d="M31.5 199L32.5 199L32.5 200L31.5 200L31.5 199ZM31.5 198L31.5 197L32.5 197L32.5 198L31.5 198ZM17.5 198L16.5 198L16.5 197L17.5 197L17.5 198ZM17.5 199L17.5 200L16.5 200L16.5 199L17.5 199ZM30.5 199L30.5 198L32.5 198L32.5 199L30.5 199ZM31.5 199L17.5 199L17.5 197L31.5 197L31.5 199ZM18.5 198L18.5 199L16.5 199L16.5 198L18.5 198ZM17.5 198L31.5 198L31.5 200L17.5 200L17.5 198Z" fill="#2B3E80" mask="url(#path-19-inside-3)"/>
<mask id="path-21-inside-4" fill="white">
<path d="M31.5 159L31.5 160L17.5 160L17.5 159L31.5 159Z"/>
</mask>
<path d="M31.5 159L31.5 160L17.5 160L17.5 159L31.5 159Z" fill="#2B3E80"/>
<path d="M31.5 160L32.5 160L32.5 161L31.5 161L31.5 160ZM31.5 159L31.5 158L32.5 158L32.5 159L31.5 159ZM17.5 159L16.5 159L16.5 158L17.5 158L17.5 159ZM17.5 160L17.5 161L16.5 161L16.5 160L17.5 160ZM30.5 160L30.5 159L32.5 159L32.5 160L30.5 160ZM31.5 160L17.5 160L17.5 158L31.5 158L31.5 160ZM18.5 159L18.5 160L16.5 160L16.5 159L18.5 159ZM17.5 159L31.5 159L31.5 161L17.5 161L17.5 159Z" fill="#2B3E80" mask="url(#path-21-inside-4)"/>
<path d="M24.5 206L24.5 150" stroke="#2B3E80" stroke-width="2"/>
<path d="M25.5 196L25.5 160L31.5 160L25.5 196Z" fill="#7B8ECE"/>
<path d="M47.5 198L47.5 199L33.5 199L33.5 198L47.5 198Z" fill="#1437B8"/>
<path d="M47.5 159L47.5 160L33.5 160L33.5 159L47.5 159Z" fill="#1437B8"/>
<path d="M40.5 206L40.5 150" stroke="#1437B8" stroke-width="2"/>
<path d="M41.5 196L41.5 160L47.5 160L41.5 196Z" fill="#3C8DFC"/>
<path d="M15.5 65L15.5 66L1.5 66L1.5 65L15.5 65Z" fill="white"/>
<path d="M15.5 9L15.5 10L1.5 10L1.5 9L15.5 9Z" fill="white"/>
<path d="M8.5 73L8.5 3.63588e-06" stroke="white" stroke-width="2"/>
<path d="M9.5 65L9.5 10L15.5 10L9.5 65Z" fill="#B6B6BA"/>
<path d="M31.5 65L31.5 66L17.5 66L17.5 65L31.5 65Z" fill="#9DAADD"/>
<path d="M31.5 9L31.5 10L17.5 10L17.5 9L31.5 9Z" fill="#9DAADD"/>
<path d="M24.5 73L24.5 3.63588e-06" stroke="#9DAADD" stroke-width="2"/>
<path d="M25.5 65L25.5 10L31.5 10L25.5 65Z" fill="#A5ABC2"/>
<path d="M47.5 65L47.5 66L33.5 66L33.5 65L47.5 65Z" fill="#74AEFE"/>
<path d="M47.5 9L47.5 10L33.5 10L33.5 9L47.5 9Z" fill="#74AEFE"/>
<path d="M40.5 73L40.5 3.63588e-06" stroke="#74AEFE" stroke-width="2"/>
<path d="M41.5 65L41.5 10L47.5 10L41.5 65Z" fill="#2E86FE"/>
<path d="M15.5 140L15.5 141L1.5 141L1.5 140L15.5 140Z" fill="white"/>
<path d="M15.5 84L15.5 85L1.5 85L1.5 84L15.5 84Z" fill="white"/>
<path d="M8.5 148L8.5 75" stroke="white" stroke-width="2"/>
<path d="M9.5 115.225L9.5 85L15.5 85L9.5 115.225Z" fill="#B6B6BA"/>
<path d="M7.5 109.775L7.49999 140L1.5 140L7.5 109.775Z" fill="#B6B6BA"/>
<path d="M12.5 112L12.5 113L4.5 113L4.5 112L12.5 112Z" fill="#F5F5F6"/>
<path d="M31.5 140L31.5 141L17.5 141L17.5 140L31.5 140Z" fill="#9DAADD"/>
<path d="M31.5 84L31.5 85L17.5 85L17.5 84L31.5 84Z" fill="#9DAADD"/>
<path d="M24.5 148L24.5 75" stroke="#9DAADD" stroke-width="2"/>
<path d="M25.5 115.225L25.5 85L31.5 85L25.5 115.225Z" fill="#A5ABC2"/>
<path d="M23.5 109.775L23.5 140L17.5 140L23.5 109.775Z" fill="#A5ABC2"/>
<path d="M28.5 112L28.5 113L20.5 113L20.5 112L28.5 112Z" fill="#9DAADD"/>
<path d="M47.5 140L47.5 141L33.5 141L33.5 140L47.5 140Z" fill="#74AEFE"/>
<path d="M47.5 84L47.5 85L33.5 85L33.5 84L47.5 84Z" fill="#74AEFE"/>
<path d="M40.5 148L40.5 75" stroke="#74AEFE" stroke-width="2"/>
<path d="M41.5 115.225L41.5 85L47.5 85L41.5 115.225Z" fill="#2E86FE"/>
<path d="M39.5 109.775L39.5 140L33.5 140L39.5 109.775Z" fill="#2E86FE"/>
<path d="M44.5 112L44.5 113L36.5 113L36.5 112L44.5 112Z" fill="#74AEFE"/>
</svg>
