<?xml version="1.0" encoding="utf-8"?>
<svg width="31" height="24" viewBox="0 0 31 24" fill="none" xmlns="http://www.w3.org/2000/svg">
  <path d="M0.5 3.5C0.5 1.84315 1.84315 0.5 3.5 0.5H27.5C29.1569 0.5 30.5 1.84315 30.5 3.5V8.5C30.5 10.1569 29.1569 11.5 27.5 11.5H3.5C1.84315 11.5 0.5 10.1569 0.5 8.5V3.5Z" fill="#E3E3E3"/>
  <rect x="2" y="2" width="27" height="8" rx="2" fill="#E3E3E3"/>
  <path d="M11.5043 4.1H9.76031V9H8.68431V4.1H6.94031V3.216H11.5043V4.1ZM14.899 4.896V9H14.295C14.1643 9 14.0817 8.94 14.047 8.82L13.979 8.492C13.811 8.66267 13.6257 8.80133 13.423 8.908C13.2203 9.012 12.9817 9.064 12.707 9.064C12.483 9.064 12.2843 9.02667 12.111 8.952C11.9403 8.87467 11.7963 8.76667 11.679 8.628C11.5617 8.48933 11.4723 8.32533 11.411 8.136C11.3523 7.944 11.323 7.73333 11.323 7.504V4.896H12.311V7.504C12.311 7.75467 12.3683 7.94933 12.483 8.088C12.6003 8.224 12.775 8.292 13.007 8.292C13.1777 8.292 13.3377 8.25467 13.487 8.18C13.6363 8.10267 13.7777 7.99733 13.911 7.864V4.896H14.899ZM16.8026 5.4C16.8853 5.31733 16.972 5.24133 17.0626 5.172C17.156 5.1 17.2533 5.04 17.3546 4.992C17.4586 4.94133 17.5693 4.90267 17.6866 4.876C17.804 4.84667 17.932 4.832 18.0706 4.832C18.2946 4.832 18.4933 4.87067 18.6666 4.948C18.84 5.02267 18.984 5.12933 19.0986 5.268C19.216 5.404 19.304 5.568 19.3626 5.76C19.424 5.94933 19.4546 6.15867 19.4546 6.388V9H18.4666V6.388C18.4666 6.13733 18.4093 5.944 18.2946 5.808C18.18 5.66933 18.0053 5.6 17.7706 5.6C17.6 5.6 17.44 5.63867 17.2906 5.716C17.1413 5.79333 17 5.89867 16.8666 6.032V9H15.8786V4.896H16.4826C16.6106 4.896 16.6946 4.956 16.7346 5.076L16.8026 5.4ZM23.0383 6.476C23.0383 6.348 23.0196 6.228 22.9823 6.116C22.9476 6.00133 22.8943 5.90133 22.8223 5.816C22.7503 5.73067 22.6583 5.664 22.5463 5.616C22.4369 5.56533 22.3089 5.54 22.1623 5.54C21.8769 5.54 21.6516 5.62133 21.4863 5.784C21.3236 5.94667 21.2196 6.17733 21.1743 6.476H23.0383ZM21.1543 7.072C21.1703 7.28267 21.2076 7.46533 21.2663 7.62C21.3249 7.772 21.4023 7.89867 21.4983 8C21.5943 8.09867 21.7076 8.17333 21.8383 8.224C21.9716 8.272 22.1183 8.296 22.2783 8.296C22.4383 8.296 22.5756 8.27733 22.6903 8.24C22.8076 8.20267 22.9089 8.16133 22.9943 8.116C23.0823 8.07067 23.1583 8.02933 23.2223 7.992C23.2889 7.95467 23.3529 7.936 23.4143 7.936C23.4969 7.936 23.5583 7.96667 23.5983 8.028L23.8823 8.388C23.7729 8.516 23.6503 8.624 23.5143 8.712C23.3783 8.79733 23.2356 8.86667 23.0863 8.92C22.9396 8.97067 22.7889 9.00667 22.6343 9.028C22.4823 9.04933 22.3343 9.06 22.1903 9.06C21.9049 9.06 21.6396 9.01333 21.3943 8.92C21.1489 8.824 20.9356 8.684 20.7543 8.5C20.5729 8.31333 20.4303 8.084 20.3263 7.812C20.2223 7.53733 20.1702 7.22 20.1702 6.86C20.1702 6.58 20.2156 6.31733 20.3063 6.072C20.3969 5.824 20.5263 5.60933 20.6943 5.428C20.8649 5.244 21.0716 5.09867 21.3143 4.992C21.5596 4.88533 21.8356 4.832 22.1423 4.832C22.4009 4.832 22.6396 4.87333 22.8583 4.956C23.0769 5.03867 23.2649 5.16 23.4223 5.32C23.5796 5.47733 23.7023 5.672 23.7903 5.904C23.8809 6.13333 23.9262 6.396 23.9262 6.692C23.9262 6.84133 23.9103 6.94267 23.8783 6.996C23.8463 7.04667 23.7849 7.072 23.6943 7.072H21.1543Z" fill="black"/>
  <path d="M3.5 1H27.5V0H3.5V1ZM30 3.5V8.5H31V3.5H30ZM27.5 11H3.5V12H27.5V11ZM1 8.5V3.5H0V8.5H1ZM3.5 11C2.11929 11 1 9.88071 1 8.5H0C0 10.433 1.567 12 3.5 12V11ZM30 8.5C30 9.88071 28.8807 11 27.5 11V12C29.433 12 31 10.433 31 8.5H30ZM27.5 1C28.8807 1 30 2.11929 30 3.5H31C31 1.567 29.433 0 27.5 0V1ZM3.5 0C1.567 0 0 1.567 0 3.5H1C1 2.11929 2.11929 1 3.5 1V0Z" fill="#979797"/>
  <path d="M0.5 15.5C0.5 13.8431 1.84315 12.5 3.5 12.5H27.5C29.1569 12.5 30.5 13.8431 30.5 15.5V20.5C30.5 22.1569 29.1569 23.5 27.5 23.5H3.5C1.84315 23.5 0.5 22.1569 0.5 20.5V15.5Z" fill="#E3E3E3"/>
  <rect x="2" y="14" width="27" height="8" rx="2" fill="#FF9A11"/>
  <path d="M11.5043 16.1H9.76031V21H8.68431V16.1H6.94031V15.216H11.5043V16.1ZM14.899 16.896V21H14.295C14.1643 21 14.0817 20.94 14.047 20.82L13.979 20.492C13.811 20.6627 13.6257 20.8013 13.423 20.908C13.2203 21.012 12.9817 21.064 12.707 21.064C12.483 21.064 12.2843 21.0267 12.111 20.952C11.9403 20.8747 11.7963 20.7667 11.679 20.628C11.5617 20.4893 11.4723 20.3253 11.411 20.136C11.3523 19.944 11.323 19.7333 11.323 19.504V16.896H12.311V19.504C12.311 19.7547 12.3683 19.9493 12.483 20.088C12.6003 20.224 12.775 20.292 13.007 20.292C13.1777 20.292 13.3377 20.2547 13.487 20.18C13.6363 20.1027 13.7777 19.9973 13.911 19.864V16.896H14.899ZM16.8026 17.4C16.8853 17.3173 16.972 17.2413 17.0626 17.172C17.156 17.1 17.2533 17.04 17.3546 16.992C17.4586 16.9413 17.5693 16.9027 17.6866 16.876C17.804 16.8467 17.932 16.832 18.0706 16.832C18.2946 16.832 18.4933 16.8707 18.6666 16.948C18.84 17.0227 18.984 17.1293 19.0986 17.268C19.216 17.404 19.304 17.568 19.3626 17.76C19.424 17.9493 19.4546 18.1587 19.4546 18.388V21H18.4666V18.388C18.4666 18.1373 18.4093 17.944 18.2946 17.808C18.18 17.6693 18.0053 17.6 17.7706 17.6C17.6 17.6 17.44 17.6387 17.2906 17.716C17.1413 17.7933 17 17.8987 16.8666 18.032V21H15.8786V16.896H16.4826C16.6106 16.896 16.6946 16.956 16.7346 17.076L16.8026 17.4ZM23.0383 18.476C23.0383 18.348 23.0196 18.228 22.9823 18.116C22.9476 18.0013 22.8943 17.9013 22.8223 17.816C22.7503 17.7307 22.6583 17.664 22.5463 17.616C22.4369 17.5653 22.3089 17.54 22.1623 17.54C21.8769 17.54 21.6516 17.6213 21.4863 17.784C21.3236 17.9467 21.2196 18.1773 21.1743 18.476H23.0383ZM21.1543 19.072C21.1703 19.2827 21.2076 19.4653 21.2663 19.62C21.3249 19.772 21.4023 19.8987 21.4983 20C21.5943 20.0987 21.7076 20.1733 21.8383 20.224C21.9716 20.272 22.1183 20.296 22.2783 20.296C22.4383 20.296 22.5756 20.2773 22.6903 20.24C22.8076 20.2027 22.9089 20.1613 22.9943 20.116C23.0823 20.0707 23.1583 20.0293 23.2223 19.992C23.2889 19.9547 23.3529 19.936 23.4143 19.936C23.4969 19.936 23.5583 19.9667 23.5983 20.028L23.8823 20.388C23.7729 20.516 23.6503 20.624 23.5143 20.712C23.3783 20.7973 23.2356 20.8667 23.0863 20.92C22.9396 20.9707 22.7889 21.0067 22.6343 21.028C22.4823 21.0493 22.3343 21.06 22.1903 21.06C21.9049 21.06 21.6396 21.0133 21.3943 20.92C21.1489 20.824 20.9356 20.684 20.7543 20.5C20.5729 20.3133 20.4303 20.084 20.3263 19.812C20.2223 19.5373 20.1702 19.22 20.1702 18.86C20.1702 18.58 20.2156 18.3173 20.3063 18.072C20.3969 17.824 20.5263 17.6093 20.6943 17.428C20.8649 17.244 21.0716 17.0987 21.3143 16.992C21.5596 16.8853 21.8356 16.832 22.1423 16.832C22.4009 16.832 22.6396 16.8733 22.8583 16.956C23.0769 17.0387 23.2649 17.16 23.4223 17.32C23.5796 17.4773 23.7023 17.672 23.7903 17.904C23.8809 18.1333 23.9262 18.396 23.9262 18.692C23.9262 18.8413 23.9103 18.9427 23.8783 18.996C23.8463 19.0467 23.7849 19.072 23.6943 19.072H21.1543Z" fill="black"/>
  <path d="M3.5 13H27.5V12H3.5V13ZM30 15.5V20.5H31V15.5H30ZM27.5 23H3.5V24H27.5V23ZM1 20.5V15.5H0V20.5H1ZM3.5 23C2.11929 23 1 21.8807 1 20.5H0C0 22.433 1.567 24 3.5 24V23ZM30 20.5C30 21.8807 28.8807 23 27.5 23V24C29.433 24 31 22.433 31 20.5H30ZM27.5 13C28.8807 13 30 14.1193 30 15.5H31C31 13.567 29.433 12 27.5 12V13ZM3.5 12C1.567 12 0 13.567 0 15.5H1C1 14.1193 2.11929 13 3.5 13V12Z" fill="#979797"/>
</svg>