<svg width="49" height="28" viewBox="0 0 49 28" fill="none" xmlns="http://www.w3.org/2000/svg">
<path d="M0.5 3.5C0.5 1.84315 1.84315 0.5 3.5 0.5H45.5C47.1569 0.5 48.5 1.84315 48.5 3.5V10.5C48.5 12.1569 47.1569 13.5 45.5 13.5H3.5C1.84315 13.5 0.5 12.1569 0.5 10.5V3.5Z" fill="#E3E3E3"/>
<path d="M16.8428 4.216L14.5068 10H13.5348L11.1988 4.216H12.0628C12.1561 4.216 12.2321 4.23867 12.2908 4.284C12.3495 4.32933 12.3935 4.388 12.4228 4.46L13.7868 7.988C13.8321 8.10267 13.8748 8.22933 13.9148 8.368C13.9575 8.504 13.9975 8.64667 14.0348 8.796C14.0668 8.64667 14.1015 8.504 14.1388 8.368C14.1761 8.22933 14.2175 8.10267 14.2628 7.988L15.6188 4.46C15.6401 4.39867 15.6815 4.34267 15.7428 4.292C15.8068 4.24133 15.8841 4.216 15.9748 4.216H16.8428ZM19.1767 7.476C19.1767 7.348 19.158 7.228 19.1207 7.116C19.086 7.00133 19.0327 6.90133 18.9607 6.816C18.8887 6.73067 18.7967 6.664 18.6847 6.616C18.5754 6.56533 18.4474 6.54 18.3007 6.54C18.0154 6.54 17.79 6.62133 17.6247 6.784C17.462 6.94667 17.358 7.17733 17.3127 7.476H19.1767ZM17.2927 8.072C17.3087 8.28267 17.346 8.46533 17.4047 8.62C17.4634 8.772 17.5407 8.89867 17.6367 9C17.7327 9.09867 17.846 9.17333 17.9767 9.224C18.11 9.272 18.2567 9.296 18.4167 9.296C18.5767 9.296 18.714 9.27733 18.8287 9.24C18.946 9.20267 19.0474 9.16133 19.1327 9.116C19.2207 9.07067 19.2967 9.02933 19.3607 8.992C19.4274 8.95467 19.4914 8.936 19.5527 8.936C19.6354 8.936 19.6967 8.96667 19.7367 9.028L20.0207 9.388C19.9114 9.516 19.7887 9.624 19.6527 9.712C19.5167 9.79733 19.374 9.86667 19.2247 9.92C19.078 9.97067 18.9274 10.0067 18.7727 10.028C18.6207 10.0493 18.4727 10.06 18.3287 10.06C18.0434 10.06 17.778 10.0133 17.5327 9.92C17.2874 9.824 17.074 9.684 16.8927 9.5C16.7114 9.31333 16.5687 9.084 16.4647 8.812C16.3607 8.53733 16.3087 8.22 16.3087 7.86C16.3087 7.58 16.354 7.31733 16.4447 7.072C16.5354 6.824 16.6647 6.60933 16.8327 6.428C17.0034 6.244 17.21 6.09867 17.4527 5.992C17.698 5.88533 17.974 5.832 18.2807 5.832C18.5394 5.832 18.778 5.87333 18.9967 5.956C19.2154 6.03867 19.4034 6.16 19.5607 6.32C19.718 6.47733 19.8407 6.672 19.9287 6.904C20.0194 7.13333 20.0647 7.396 20.0647 7.692C20.0647 7.84133 20.0487 7.94267 20.0167 7.996C19.9847 8.04667 19.9234 8.072 19.8327 8.072H17.2927ZM21.6181 6.608C21.7461 6.36267 21.8981 6.17067 22.0741 6.032C22.2501 5.89067 22.4581 5.82 22.6981 5.82C22.8875 5.82 23.0395 5.86133 23.1541 5.944L23.0901 6.684C23.0768 6.732 23.0568 6.76667 23.0301 6.788C23.0061 6.80667 22.9728 6.816 22.9301 6.816C22.8901 6.816 22.8301 6.80933 22.7501 6.796C22.6728 6.78267 22.5968 6.776 22.5221 6.776C22.4128 6.776 22.3155 6.792 22.2301 6.824C22.1448 6.856 22.0675 6.90267 21.9981 6.964C21.9315 7.02267 21.8715 7.09467 21.8181 7.18C21.7675 7.26533 21.7195 7.36267 21.6741 7.472V10H20.6861V5.896H21.2661C21.3675 5.896 21.4381 5.91467 21.4781 5.952C21.5181 5.98667 21.5448 6.05067 21.5581 6.144L21.6181 6.608ZM27.6905 10H26.7025V6.636H24.7985V8.86C24.7985 8.988 24.8292 9.088 24.8905 9.16C24.9545 9.232 25.0412 9.268 25.1505 9.268C25.2118 9.268 25.2625 9.26133 25.3025 9.248C25.3452 9.232 25.3812 9.216 25.4105 9.2C25.4425 9.184 25.4705 9.16933 25.4945 9.156C25.5185 9.14 25.5425 9.132 25.5665 9.132C25.5958 9.132 25.6198 9.14 25.6385 9.156C25.6572 9.16933 25.6772 9.19067 25.6985 9.22L25.9945 9.7C25.8505 9.82 25.6852 9.91067 25.4985 9.972C25.3118 10.0333 25.1185 10.064 24.9185 10.064C24.5612 10.064 24.2865 9.964 24.0945 9.764C23.9052 9.56133 23.8105 9.28267 23.8105 8.928V6.636H23.3905C23.3372 6.636 23.2918 6.61867 23.2545 6.584C23.2172 6.54933 23.1985 6.49733 23.1985 6.428V6.036L23.8585 5.924L24.0665 4.808C24.0798 4.75467 24.1052 4.71333 24.1425 4.684C24.1798 4.65467 24.2278 4.64 24.2865 4.64H24.7985V5.932H27.6905V10ZM27.8625 4.684C27.8625 4.76933 27.8452 4.85067 27.8105 4.928C27.7758 5.00267 27.7292 5.068 27.6705 5.124C27.6145 5.18 27.5465 5.22533 27.4665 5.26C27.3892 5.292 27.3065 5.308 27.2185 5.308C27.1332 5.308 27.0532 5.292 26.9785 5.26C26.9038 5.22533 26.8385 5.18 26.7825 5.124C26.7265 5.068 26.6812 5.00267 26.6465 4.928C26.6145 4.85067 26.5985 4.76933 26.5985 4.684C26.5985 4.596 26.6145 4.51467 26.6465 4.44C26.6812 4.36267 26.7265 4.296 26.7825 4.24C26.8385 4.18133 26.9038 4.136 26.9785 4.104C27.0532 4.06933 27.1332 4.052 27.2185 4.052C27.3065 4.052 27.3892 4.06933 27.4665 4.104C27.5465 4.136 27.6145 4.18133 27.6705 4.24C27.7292 4.296 27.7758 4.36267 27.8105 4.44C27.8452 4.51467 27.8625 4.596 27.8625 4.684ZM31.5189 6.764C31.4896 6.80133 31.4603 6.83067 31.4309 6.852C31.4043 6.87333 31.3643 6.884 31.3109 6.884C31.2603 6.884 31.2109 6.86933 31.1629 6.84C31.1149 6.808 31.0576 6.77333 30.9909 6.736C30.9243 6.696 30.8443 6.66133 30.7509 6.632C30.6603 6.6 30.5469 6.584 30.4109 6.584C30.2376 6.584 30.0856 6.616 29.9549 6.68C29.8243 6.74133 29.7149 6.83067 29.6269 6.948C29.5416 7.06533 29.4776 7.208 29.4349 7.376C29.3923 7.54133 29.3709 7.72933 29.3709 7.94C29.3709 8.15867 29.3936 8.35333 29.4389 8.524C29.4869 8.69467 29.5549 8.83867 29.6429 8.956C29.7309 9.07067 29.8376 9.15867 29.9629 9.22C30.0883 9.27867 30.2296 9.308 30.3869 9.308C30.5443 9.308 30.6709 9.28933 30.7669 9.252C30.8656 9.212 30.9483 9.16933 31.0149 9.124C31.0816 9.076 31.1389 9.03333 31.1869 8.996C31.2376 8.956 31.2936 8.936 31.3549 8.936C31.4349 8.936 31.4949 8.96667 31.5349 9.028L31.8189 9.388C31.7096 9.516 31.5909 9.624 31.4629 9.712C31.3349 9.79733 31.2016 9.86667 31.0629 9.92C30.9269 9.97067 30.7856 10.0067 30.6389 10.028C30.4949 10.0493 30.3509 10.06 30.2069 10.06C29.9536 10.06 29.7149 10.0133 29.4909 9.92C29.2669 9.824 29.0709 9.68533 28.9029 9.504C28.7349 9.32267 28.6016 9.10133 28.5029 8.84C28.4069 8.576 28.3589 8.276 28.3589 7.94C28.3589 7.63867 28.4016 7.36 28.4869 7.104C28.5749 6.84533 28.7029 6.62267 28.8709 6.436C29.0389 6.24667 29.2469 6.09867 29.4949 5.992C29.7429 5.88533 30.0283 5.832 30.3509 5.832C30.6576 5.832 30.9256 5.88133 31.1549 5.98C31.3869 6.07867 31.5949 6.22 31.7789 6.404L31.5189 6.764ZM34.4863 8.248C34.201 8.26133 33.961 8.28667 33.7663 8.324C33.5716 8.35867 33.4156 8.404 33.2983 8.46C33.181 8.516 33.097 8.58133 33.0463 8.656C32.9956 8.73067 32.9703 8.812 32.9703 8.9C32.9703 9.07333 33.021 9.19733 33.1223 9.272C33.2263 9.34667 33.361 9.384 33.5263 9.384C33.729 9.384 33.9036 9.348 34.0503 9.276C34.1996 9.20133 34.345 9.08933 34.4863 8.94V8.248ZM32.2223 6.468C32.6943 6.036 33.2623 5.82 33.9263 5.82C34.1663 5.82 34.381 5.86 34.5703 5.94C34.7596 6.01733 34.9196 6.12667 35.0503 6.268C35.181 6.40667 35.2796 6.57333 35.3463 6.768C35.4156 6.96267 35.4503 7.176 35.4503 7.408V10H35.0023C34.909 10 34.837 9.98667 34.7863 9.96C34.7356 9.93067 34.6956 9.87333 34.6663 9.788L34.5783 9.492C34.4743 9.58533 34.373 9.668 34.2743 9.74C34.1756 9.80933 34.073 9.868 33.9663 9.916C33.8596 9.964 33.745 10 33.6223 10.024C33.5023 10.0507 33.369 10.064 33.2223 10.064C33.049 10.064 32.889 10.0413 32.7423 9.996C32.5956 9.948 32.469 9.87733 32.3623 9.784C32.2556 9.69067 32.173 9.57467 32.1143 9.436C32.0556 9.29733 32.0263 9.136 32.0263 8.952C32.0263 8.848 32.0436 8.74533 32.0783 8.644C32.113 8.54 32.169 8.44133 32.2463 8.348C32.3263 8.25467 32.429 8.16667 32.5543 8.084C32.6796 8.00133 32.833 7.92933 33.0143 7.868C33.1983 7.80667 33.4116 7.75733 33.6543 7.72C33.897 7.68 34.1743 7.656 34.4863 7.648V7.408C34.4863 7.13333 34.4276 6.93067 34.3103 6.8C34.193 6.66667 34.0236 6.6 33.8023 6.6C33.6423 6.6 33.509 6.61867 33.4023 6.656C33.2983 6.69333 33.2063 6.736 33.1263 6.784C33.0463 6.82933 32.973 6.87067 32.9063 6.908C32.8423 6.94533 32.7703 6.964 32.6903 6.964C32.621 6.964 32.5623 6.94667 32.5143 6.912C32.4663 6.87467 32.4276 6.832 32.3983 6.784L32.2223 6.468ZM37.2608 4.056V10H36.2728V4.056H37.2608Z" fill="black"/>
<path d="M3.5 1H45.5V0H3.5V1ZM48 3.5V10.5H49V3.5H48ZM45.5 13H3.5V14H45.5V13ZM1 10.5V3.5H0V10.5H1ZM3.5 13C2.11929 13 1 11.8807 1 10.5H0C0 12.433 1.567 14 3.5 14V13ZM48 10.5C48 11.8807 46.8807 13 45.5 13V14C47.433 14 49 12.433 49 10.5H48ZM45.5 1C46.8807 1 48 2.11929 48 3.5H49C49 1.567 47.433 0 45.5 0V1ZM3.5 0C1.567 0 0 1.567 0 3.5H1C1 2.11929 2.11929 1 3.5 1V0Z" fill="#979797"/>
<path d="M0.5 17.5C0.5 15.8431 1.84315 14.5 3.5 14.5H45.5C47.1569 14.5 48.5 15.8431 48.5 17.5V24.5C48.5 26.1569 47.1569 27.5 45.5 27.5H3.5C1.84315 27.5 0.5 26.1569 0.5 24.5V17.5Z" fill="#E3E3E3"/>
<rect x="2.5" y="16.5" width="44" height="9" rx="1" fill="#FF9A10"/>
<rect x="2.5" y="16.5" width="44" height="9" rx="1" stroke="#FF9A10"/>
<path d="M16.8428 18.216L14.5068 24H13.5348L11.1988 18.216H12.0628C12.1561 18.216 12.2321 18.2387 12.2908 18.284C12.3495 18.3293 12.3935 18.388 12.4228 18.46L13.7868 21.988C13.8321 22.1027 13.8748 22.2293 13.9148 22.368C13.9575 22.504 13.9975 22.6467 14.0348 22.796C14.0668 22.6467 14.1015 22.504 14.1388 22.368C14.1761 22.2293 14.2175 22.1027 14.2628 21.988L15.6188 18.46C15.6401 18.3987 15.6815 18.3427 15.7428 18.292C15.8068 18.2413 15.8841 18.216 15.9748 18.216H16.8428ZM19.1767 21.476C19.1767 21.348 19.158 21.228 19.1207 21.116C19.086 21.0013 19.0327 20.9013 18.9607 20.816C18.8887 20.7307 18.7967 20.664 18.6847 20.616C18.5754 20.5653 18.4474 20.54 18.3007 20.54C18.0154 20.54 17.79 20.6213 17.6247 20.784C17.462 20.9467 17.358 21.1773 17.3127 21.476H19.1767ZM17.2927 22.072C17.3087 22.2827 17.346 22.4653 17.4047 22.62C17.4634 22.772 17.5407 22.8987 17.6367 23C17.7327 23.0987 17.846 23.1733 17.9767 23.224C18.11 23.272 18.2567 23.296 18.4167 23.296C18.5767 23.296 18.714 23.2773 18.8287 23.24C18.946 23.2027 19.0474 23.1613 19.1327 23.116C19.2207 23.0707 19.2967 23.0293 19.3607 22.992C19.4274 22.9547 19.4914 22.936 19.5527 22.936C19.6354 22.936 19.6967 22.9667 19.7367 23.028L20.0207 23.388C19.9114 23.516 19.7887 23.624 19.6527 23.712C19.5167 23.7973 19.374 23.8667 19.2247 23.92C19.078 23.9707 18.9274 24.0067 18.7727 24.028C18.6207 24.0493 18.4727 24.06 18.3287 24.06C18.0434 24.06 17.778 24.0133 17.5327 23.92C17.2874 23.824 17.074 23.684 16.8927 23.5C16.7114 23.3133 16.5687 23.084 16.4647 22.812C16.3607 22.5373 16.3087 22.22 16.3087 21.86C16.3087 21.58 16.354 21.3173 16.4447 21.072C16.5354 20.824 16.6647 20.6093 16.8327 20.428C17.0034 20.244 17.21 20.0987 17.4527 19.992C17.698 19.8853 17.974 19.832 18.2807 19.832C18.5394 19.832 18.778 19.8733 18.9967 19.956C19.2154 20.0387 19.4034 20.16 19.5607 20.32C19.718 20.4773 19.8407 20.672 19.9287 20.904C20.0194 21.1333 20.0647 21.396 20.0647 21.692C20.0647 21.8413 20.0487 21.9427 20.0167 21.996C19.9847 22.0467 19.9234 22.072 19.8327 22.072H17.2927ZM21.6181 20.608C21.7461 20.3627 21.8981 20.1707 22.0741 20.032C22.2501 19.8907 22.4581 19.82 22.6981 19.82C22.8875 19.82 23.0395 19.8613 23.1541 19.944L23.0901 20.684C23.0768 20.732 23.0568 20.7667 23.0301 20.788C23.0061 20.8067 22.9728 20.816 22.9301 20.816C22.8901 20.816 22.8301 20.8093 22.7501 20.796C22.6728 20.7827 22.5968 20.776 22.5221 20.776C22.4128 20.776 22.3155 20.792 22.2301 20.824C22.1448 20.856 22.0675 20.9027 21.9981 20.964C21.9315 21.0227 21.8715 21.0947 21.8181 21.18C21.7675 21.2653 21.7195 21.3627 21.6741 21.472V24H20.6861V19.896H21.2661C21.3675 19.896 21.4381 19.9147 21.4781 19.952C21.5181 19.9867 21.5448 20.0507 21.5581 20.144L21.6181 20.608ZM27.6905 24H26.7025V20.636H24.7985V22.86C24.7985 22.988 24.8292 23.088 24.8905 23.16C24.9545 23.232 25.0412 23.268 25.1505 23.268C25.2118 23.268 25.2625 23.2613 25.3025 23.248C25.3452 23.232 25.3812 23.216 25.4105 23.2C25.4425 23.184 25.4705 23.1693 25.4945 23.156C25.5185 23.14 25.5425 23.132 25.5665 23.132C25.5958 23.132 25.6198 23.14 25.6385 23.156C25.6572 23.1693 25.6772 23.1907 25.6985 23.22L25.9945 23.7C25.8505 23.82 25.6852 23.9107 25.4985 23.972C25.3118 24.0333 25.1185 24.064 24.9185 24.064C24.5612 24.064 24.2865 23.964 24.0945 23.764C23.9052 23.5613 23.8105 23.2827 23.8105 22.928V20.636H23.3905C23.3372 20.636 23.2918 20.6187 23.2545 20.584C23.2172 20.5493 23.1985 20.4973 23.1985 20.428V20.036L23.8585 19.924L24.0665 18.808C24.0798 18.7547 24.1052 18.7133 24.1425 18.684C24.1798 18.6547 24.2278 18.64 24.2865 18.64H24.7985V19.932H27.6905V24ZM27.8625 18.684C27.8625 18.7693 27.8452 18.8507 27.8105 18.928C27.7758 19.0027 27.7292 19.068 27.6705 19.124C27.6145 19.18 27.5465 19.2253 27.4665 19.26C27.3892 19.292 27.3065 19.308 27.2185 19.308C27.1332 19.308 27.0532 19.292 26.9785 19.26C26.9038 19.2253 26.8385 19.18 26.7825 19.124C26.7265 19.068 26.6812 19.0027 26.6465 18.928C26.6145 18.8507 26.5985 18.7693 26.5985 18.684C26.5985 18.596 26.6145 18.5147 26.6465 18.44C26.6812 18.3627 26.7265 18.296 26.7825 18.24C26.8385 18.1813 26.9038 18.136 26.9785 18.104C27.0532 18.0693 27.1332 18.052 27.2185 18.052C27.3065 18.052 27.3892 18.0693 27.4665 18.104C27.5465 18.136 27.6145 18.1813 27.6705 18.24C27.7292 18.296 27.7758 18.3627 27.8105 18.44C27.8452 18.5147 27.8625 18.596 27.8625 18.684ZM31.5189 20.764C31.4896 20.8013 31.4603 20.8307 31.4309 20.852C31.4043 20.8733 31.3643 20.884 31.3109 20.884C31.2603 20.884 31.2109 20.8693 31.1629 20.84C31.1149 20.808 31.0576 20.7733 30.9909 20.736C30.9243 20.696 30.8443 20.6613 30.7509 20.632C30.6603 20.6 30.5469 20.584 30.4109 20.584C30.2376 20.584 30.0856 20.616 29.9549 20.68C29.8243 20.7413 29.7149 20.8307 29.6269 20.948C29.5416 21.0653 29.4776 21.208 29.4349 21.376C29.3923 21.5413 29.3709 21.7293 29.3709 21.94C29.3709 22.1587 29.3936 22.3533 29.4389 22.524C29.4869 22.6947 29.5549 22.8387 29.6429 22.956C29.7309 23.0707 29.8376 23.1587 29.9629 23.22C30.0883 23.2787 30.2296 23.308 30.3869 23.308C30.5443 23.308 30.6709 23.2893 30.7669 23.252C30.8656 23.212 30.9483 23.1693 31.0149 23.124C31.0816 23.076 31.1389 23.0333 31.1869 22.996C31.2376 22.956 31.2936 22.936 31.3549 22.936C31.4349 22.936 31.4949 22.9667 31.5349 23.028L31.8189 23.388C31.7096 23.516 31.5909 23.624 31.4629 23.712C31.3349 23.7973 31.2016 23.8667 31.0629 23.92C30.9269 23.9707 30.7856 24.0067 30.6389 24.028C30.4949 24.0493 30.3509 24.06 30.2069 24.06C29.9536 24.06 29.7149 24.0133 29.4909 23.92C29.2669 23.824 29.0709 23.6853 28.9029 23.504C28.7349 23.3227 28.6016 23.1013 28.5029 22.84C28.4069 22.576 28.3589 22.276 28.3589 21.94C28.3589 21.6387 28.4016 21.36 28.4869 21.104C28.5749 20.8453 28.7029 20.6227 28.8709 20.436C29.0389 20.2467 29.2469 20.0987 29.4949 19.992C29.7429 19.8853 30.0283 19.832 30.3509 19.832C30.6576 19.832 30.9256 19.8813 31.1549 19.98C31.3869 20.0787 31.5949 20.22 31.7789 20.404L31.5189 20.764ZM34.4863 22.248C34.201 22.2613 33.961 22.2867 33.7663 22.324C33.5716 22.3587 33.4156 22.404 33.2983 22.46C33.181 22.516 33.097 22.5813 33.0463 22.656C32.9956 22.7307 32.9703 22.812 32.9703 22.9C32.9703 23.0733 33.021 23.1973 33.1223 23.272C33.2263 23.3467 33.361 23.384 33.5263 23.384C33.729 23.384 33.9036 23.348 34.0503 23.276C34.1996 23.2013 34.345 23.0893 34.4863 22.94V22.248ZM32.2223 20.468C32.6943 20.036 33.2623 19.82 33.9263 19.82C34.1663 19.82 34.381 19.86 34.5703 19.94C34.7596 20.0173 34.9196 20.1267 35.0503 20.268C35.181 20.4067 35.2796 20.5733 35.3463 20.768C35.4156 20.9627 35.4503 21.176 35.4503 21.408V24H35.0023C34.909 24 34.837 23.9867 34.7863 23.96C34.7356 23.9307 34.6956 23.8733 34.6663 23.788L34.5783 23.492C34.4743 23.5853 34.373 23.668 34.2743 23.74C34.1756 23.8093 34.073 23.868 33.9663 23.916C33.8596 23.964 33.745 24 33.6223 24.024C33.5023 24.0507 33.369 24.064 33.2223 24.064C33.049 24.064 32.889 24.0413 32.7423 23.996C32.5956 23.948 32.469 23.8773 32.3623 23.784C32.2556 23.6907 32.173 23.5747 32.1143 23.436C32.0556 23.2973 32.0263 23.136 32.0263 22.952C32.0263 22.848 32.0436 22.7453 32.0783 22.644C32.113 22.54 32.169 22.4413 32.2463 22.348C32.3263 22.2547 32.429 22.1667 32.5543 22.084C32.6796 22.0013 32.833 21.9293 33.0143 21.868C33.1983 21.8067 33.4116 21.7573 33.6543 21.72C33.897 21.68 34.1743 21.656 34.4863 21.648V21.408C34.4863 21.1333 34.4276 20.9307 34.3103 20.8C34.193 20.6667 34.0236 20.6 33.8023 20.6C33.6423 20.6 33.509 20.6187 33.4023 20.656C33.2983 20.6933 33.2063 20.736 33.1263 20.784C33.0463 20.8293 32.973 20.8707 32.9063 20.908C32.8423 20.9453 32.7703 20.964 32.6903 20.964C32.621 20.964 32.5623 20.9467 32.5143 20.912C32.4663 20.8747 32.4276 20.832 32.3983 20.784L32.2223 20.468ZM37.2608 18.056V24H36.2728V18.056H37.2608Z" fill="black"/>
<path d="M3.5 15H45.5V14H3.5V15ZM48 17.5V24.5H49V17.5H48ZM45.5 27H3.5V28H45.5V27ZM1 24.5V17.5H0V24.5H1ZM3.5 27C2.11929 27 1 25.8807 1 24.5H0C0 26.433 1.567 28 3.5 28V27ZM48 24.5C48 25.8807 46.8807 27 45.5 27V28C47.433 28 49 26.433 49 24.5H48ZM45.5 15C46.8807 15 48 16.1193 48 17.5H49C49 15.567 47.433 14 45.5 14V15ZM3.5 14C1.567 14 0 15.567 0 17.5H1C1 16.1193 2.11929 15 3.5 15V14Z" fill="#979797"/>
</svg>
