<svg width="94" height="45" viewBox="0 0 94 45" fill="none" xmlns="http://www.w3.org/2000/svg">
<path d="M0.5 3.5C0.5 1.84315 1.84315 0.5 3.5 0.5H90.5C92.1569 0.5 93.5 1.84315 93.5 3.5V11.5C93.5 13.1569 92.1569 14.5 90.5 14.5H3.5C1.84315 14.5 0.5 13.1569 0.5 11.5V3.5Z" fill="#E3E3E3"/>
<path d="M2 5.5C2 3.84315 3.34315 2.5 5 2.5H27C28.6569 2.5 30 3.84315 30 5.5V9.5C30 11.1569 28.6569 12.5 27 12.5H5C3.34315 12.5 2 11.1569 2 9.5V5.5Z" fill="#FF9300"/>
<path d="M16.2225 7.608C16.2225 8.032 16.1518 8.42533 16.0105 8.788C15.8718 9.148 15.6745 9.46 15.4185 9.724C15.1625 9.988 14.8545 10.1947 14.4945 10.344C14.1345 10.4907 13.7345 10.564 13.2945 10.564C12.8572 10.564 12.4585 10.4907 12.0985 10.344C11.7385 10.1947 11.4292 9.988 11.1705 9.724C10.9145 9.46 10.7158 9.148 10.5745 8.788C10.4332 8.42533 10.3625 8.032 10.3625 7.608C10.3625 7.184 10.4332 6.792 10.5745 6.432C10.7158 6.06933 10.9145 5.756 11.1705 5.492C11.4292 5.228 11.7385 5.02267 12.0985 4.876C12.4585 4.72667 12.8572 4.652 13.2945 4.652C13.5878 4.652 13.8638 4.68667 14.1225 4.756C14.3812 4.82267 14.6185 4.91867 14.8345 5.044C15.0505 5.16667 15.2438 5.31733 15.4145 5.496C15.5878 5.672 15.7345 5.86933 15.8545 6.088C15.9745 6.30667 16.0652 6.544 16.1265 6.8C16.1905 7.056 16.2225 7.32533 16.2225 7.608ZM15.1225 7.608C15.1225 7.29067 15.0798 7.00667 14.9945 6.756C14.9092 6.50267 14.7878 6.288 14.6305 6.112C14.4732 5.936 14.2812 5.80133 14.0545 5.708C13.8305 5.61467 13.5772 5.568 13.2945 5.568C13.0118 5.568 12.7572 5.61467 12.5305 5.708C12.3065 5.80133 12.1145 5.936 11.9545 6.112C11.7972 6.288 11.6758 6.50267 11.5905 6.756C11.5052 7.00667 11.4625 7.29067 11.4625 7.608C11.4625 7.92533 11.5052 8.21067 11.5905 8.464C11.6758 8.71467 11.7972 8.928 11.9545 9.104C12.1145 9.27733 12.3065 9.41067 12.5305 9.504C12.7572 9.59733 13.0118 9.644 13.2945 9.644C13.5772 9.644 13.8305 9.59733 14.0545 9.504C14.2812 9.41067 14.4732 9.27733 14.6305 9.104C14.7878 8.928 14.9092 8.71467 14.9945 8.464C15.0798 8.21067 15.1225 7.92533 15.1225 7.608ZM17.2526 10.5V7.14L16.8966 7.084C16.8192 7.068 16.7566 7.04133 16.7086 7.004C16.6632 6.964 16.6406 6.908 16.6406 6.836V6.432H17.2526V6.2C17.2526 5.96533 17.2872 5.75467 17.3566 5.568C17.4286 5.38133 17.5299 5.22267 17.6606 5.092C17.7939 4.96133 17.9552 4.86133 18.1446 4.792C18.3339 4.72267 18.5472 4.688 18.7846 4.688C18.9739 4.688 19.1499 4.71333 19.3126 4.764L19.2926 5.256C19.2899 5.29333 19.2792 5.324 19.2606 5.348C19.2419 5.372 19.2166 5.39067 19.1846 5.404C19.1552 5.41467 19.1206 5.42267 19.0806 5.428C19.0406 5.43067 18.9979 5.432 18.9526 5.432C18.8352 5.432 18.7299 5.44533 18.6366 5.472C18.5459 5.496 18.4686 5.54 18.4046 5.604C18.3406 5.66533 18.2912 5.748 18.2566 5.852C18.2246 5.95333 18.2086 6.08 18.2086 6.232V6.432H19.8446V6.068C19.8446 5.83333 19.8792 5.62267 19.9486 5.436C20.0206 5.24933 20.1219 5.09067 20.2526 4.96C20.3859 4.82933 20.5472 4.72933 20.7366 4.66C20.9259 4.59067 21.1392 4.556 21.3766 4.556C21.4699 4.556 21.5592 4.56267 21.6446 4.576C21.7326 4.58667 21.8192 4.604 21.9046 4.628L21.8806 5.124C21.8752 5.20133 21.8392 5.25067 21.7726 5.272C21.7086 5.29067 21.6326 5.3 21.5446 5.3C21.4272 5.3 21.3219 5.31333 21.2286 5.34C21.1379 5.364 21.0606 5.408 20.9966 5.472C20.9326 5.53333 20.8832 5.616 20.8486 5.72C20.8166 5.82133 20.8006 5.948 20.8006 6.1V6.432H21.8646V7.136H20.8326V10.5H19.8446V7.136H18.2406V10.5H17.2526Z" fill="black"/>
<path opacity="0.5" d="M32 2.5H31V12.5H32V2.5Z" fill="#979797"/>
<path d="M47.7069 7.608C47.7069 8.032 47.6362 8.42533 47.4949 8.788C47.3562 9.148 47.1589 9.46 46.9029 9.724C46.6469 9.988 46.3389 10.1947 45.9789 10.344C45.6189 10.4907 45.2189 10.564 44.7789 10.564C44.3415 10.564 43.9429 10.4907 43.5829 10.344C43.2229 10.1947 42.9135 9.988 42.6549 9.724C42.3989 9.46 42.2002 9.148 42.0589 8.788C41.9175 8.42533 41.8469 8.032 41.8469 7.608C41.8469 7.184 41.9175 6.792 42.0589 6.432C42.2002 6.06933 42.3989 5.756 42.6549 5.492C42.9135 5.228 43.2229 5.02267 43.5829 4.876C43.9429 4.72667 44.3415 4.652 44.7789 4.652C45.0722 4.652 45.3482 4.68667 45.6069 4.756C45.8655 4.82267 46.1029 4.91867 46.3189 5.044C46.5349 5.16667 46.7282 5.31733 46.8989 5.496C47.0722 5.672 47.2189 5.86933 47.3389 6.088C47.4589 6.30667 47.5495 6.544 47.6109 6.8C47.6749 7.056 47.7069 7.32533 47.7069 7.608ZM46.6069 7.608C46.6069 7.29067 46.5642 7.00667 46.4789 6.756C46.3935 6.50267 46.2722 6.288 46.1149 6.112C45.9575 5.936 45.7655 5.80133 45.5389 5.708C45.3149 5.61467 45.0615 5.568 44.7789 5.568C44.4962 5.568 44.2415 5.61467 44.0149 5.708C43.7909 5.80133 43.5989 5.936 43.4389 6.112C43.2815 6.288 43.1602 6.50267 43.0749 6.756C42.9895 7.00667 42.9469 7.29067 42.9469 7.608C42.9469 7.92533 42.9895 8.21067 43.0749 8.464C43.1602 8.71467 43.2815 8.928 43.4389 9.104C43.5989 9.27733 43.7909 9.41067 44.0149 9.504C44.2415 9.59733 44.4962 9.644 44.7789 9.644C45.0615 9.644 45.3149 9.59733 45.5389 9.504C45.7655 9.41067 45.9575 9.27733 46.1149 9.104C46.2722 8.928 46.3935 8.71467 46.4789 8.464C46.5642 8.21067 46.6069 7.92533 46.6069 7.608ZM49.3495 6.9C49.4322 6.81733 49.5188 6.74133 49.6095 6.672C49.7028 6.6 49.8002 6.54 49.9015 6.492C50.0055 6.44133 50.1162 6.40267 50.2335 6.376C50.3508 6.34667 50.4788 6.332 50.6175 6.332C50.8415 6.332 51.0402 6.37067 51.2135 6.448C51.3868 6.52267 51.5308 6.62933 51.6455 6.768C51.7628 6.904 51.8508 7.068 51.9095 7.26C51.9708 7.44933 52.0015 7.65867 52.0015 7.888V10.5H51.0135V7.888C51.0135 7.63733 50.9562 7.444 50.8415 7.308C50.7268 7.16933 50.5522 7.1 50.3175 7.1C50.1468 7.1 49.9868 7.13867 49.8375 7.216C49.6882 7.29333 49.5468 7.39867 49.4135 7.532V10.5H48.4255V6.396H49.0295C49.1575 6.396 49.2415 6.456 49.2815 6.576L49.3495 6.9Z" fill="black"/>
<path opacity="0.5" d="M63 2.5H62V12.5H63V2.5Z" fill="#979797"/>
<path d="M74.9042 7.6V9.94C74.6109 10.156 74.2975 10.3147 73.9642 10.416C73.6335 10.5147 73.2789 10.564 72.9002 10.564C72.4282 10.564 72.0002 10.4907 71.6162 10.344C71.2349 10.1973 70.9082 9.99333 70.6362 9.732C70.3669 9.47067 70.1589 9.15867 70.0122 8.796C69.8655 8.43333 69.7922 8.03733 69.7922 7.608C69.7922 7.17333 69.8629 6.77467 70.0042 6.412C70.1455 6.04933 70.3455 5.73733 70.6042 5.476C70.8655 5.21467 71.1815 5.012 71.5522 4.868C71.9229 4.724 72.3389 4.652 72.8002 4.652C73.0349 4.652 73.2535 4.67067 73.4562 4.708C73.6615 4.74533 73.8509 4.79733 74.0242 4.864C74.2002 4.928 74.3602 5.00667 74.5042 5.1C74.6482 5.19333 74.7802 5.296 74.9002 5.408L74.5922 5.896C74.5442 5.97333 74.4815 6.02133 74.4042 6.04C74.3269 6.056 74.2429 6.036 74.1522 5.98C74.0642 5.92933 73.9762 5.87867 73.8882 5.828C73.8002 5.77733 73.7015 5.73333 73.5922 5.696C73.4855 5.65867 73.3642 5.628 73.2282 5.604C73.0949 5.58 72.9402 5.568 72.7642 5.568C72.4789 5.568 72.2202 5.616 71.9882 5.712C71.7589 5.808 71.5629 5.94533 71.4002 6.124C71.2375 6.30267 71.1122 6.51733 71.0242 6.768C70.9362 7.01867 70.8922 7.29867 70.8922 7.608C70.8922 7.93867 70.9389 8.23467 71.0322 8.496C71.1282 8.75467 71.2615 8.97467 71.4322 9.156C71.6055 9.33467 71.8135 9.472 72.0562 9.568C72.2989 9.66133 72.5695 9.708 72.8682 9.708C73.0815 9.708 73.2722 9.68533 73.4402 9.64C73.6082 9.59467 73.7722 9.53333 73.9322 9.456V8.408H73.2042C73.1349 8.408 73.0802 8.38933 73.0402 8.352C73.0029 8.312 72.9842 8.264 72.9842 8.208V7.6H74.9042ZM77.9373 8.748C77.6519 8.76133 77.4119 8.78667 77.2173 8.824C77.0226 8.85867 76.8666 8.904 76.7493 8.96C76.6319 9.016 76.5479 9.08133 76.4973 9.156C76.4466 9.23067 76.4213 9.312 76.4213 9.4C76.4213 9.57333 76.4719 9.69733 76.5733 9.772C76.6773 9.84667 76.8119 9.884 76.9773 9.884C77.1799 9.884 77.3546 9.848 77.5013 9.776C77.6506 9.70133 77.7959 9.58933 77.9373 9.44V8.748ZM75.6733 6.968C76.1453 6.536 76.7133 6.32 77.3773 6.32C77.6173 6.32 77.8319 6.36 78.0213 6.44C78.2106 6.51733 78.3706 6.62667 78.5013 6.768C78.6319 6.90667 78.7306 7.07333 78.7973 7.268C78.8666 7.46267 78.9013 7.676 78.9013 7.908V10.5H78.4533C78.3599 10.5 78.2879 10.4867 78.2373 10.46C78.1866 10.4307 78.1466 10.3733 78.1173 10.288L78.0293 9.992C77.9253 10.0853 77.8239 10.168 77.7253 10.24C77.6266 10.3093 77.5239 10.368 77.4173 10.416C77.3106 10.464 77.1959 10.5 77.0733 10.524C76.9533 10.5507 76.8199 10.564 76.6733 10.564C76.4999 10.564 76.3399 10.5413 76.1933 10.496C76.0466 10.448 75.9199 10.3773 75.8133 10.284C75.7066 10.1907 75.6239 10.0747 75.5653 9.936C75.5066 9.79733 75.4773 9.636 75.4773 9.452C75.4773 9.348 75.4946 9.24533 75.5293 9.144C75.5639 9.04 75.6199 8.94133 75.6973 8.848C75.7773 8.75467 75.8799 8.66667 76.0053 8.584C76.1306 8.50133 76.2839 8.42933 76.4653 8.368C76.6493 8.30667 76.8626 8.25733 77.1053 8.22C77.3479 8.18 77.6253 8.156 77.9373 8.148V7.908C77.9373 7.63333 77.8786 7.43067 77.7613 7.3C77.6439 7.16667 77.4746 7.1 77.2533 7.1C77.0933 7.1 76.9599 7.11867 76.8533 7.156C76.7493 7.19333 76.6573 7.236 76.5773 7.284C76.4973 7.32933 76.4239 7.37067 76.3573 7.408C76.2933 7.44533 76.2213 7.464 76.1413 7.464C76.0719 7.464 76.0133 7.44667 75.9653 7.412C75.9173 7.37467 75.8786 7.332 75.8493 7.284L75.6733 6.968ZM81.1451 10.564C80.7877 10.564 80.5131 10.464 80.3211 10.264C80.1317 10.0613 80.0371 9.78267 80.0371 9.428V7.136H79.6171C79.5637 7.136 79.5184 7.11867 79.4811 7.084C79.4437 7.04933 79.4251 6.99733 79.4251 6.928V6.536L80.0851 6.428L80.2931 5.308C80.3064 5.25467 80.3317 5.21333 80.3691 5.184C80.4064 5.15467 80.4544 5.14 80.5131 5.14H81.0251V6.432H82.1211V7.136H81.0251V9.36C81.0251 9.488 81.0557 9.588 81.1171 9.66C81.1811 9.732 81.2677 9.768 81.3771 9.768C81.4384 9.768 81.4891 9.76133 81.5291 9.748C81.5717 9.732 81.6077 9.716 81.6371 9.7C81.6691 9.684 81.6971 9.66933 81.7211 9.656C81.7451 9.64 81.7691 9.632 81.7931 9.632C81.8224 9.632 81.8464 9.64 81.8651 9.656C81.8837 9.66933 81.9037 9.69067 81.9251 9.72L82.2211 10.2C82.0771 10.32 81.9117 10.4107 81.7251 10.472C81.5384 10.5333 81.3451 10.564 81.1451 10.564ZM85.3664 7.976C85.3664 7.848 85.3477 7.728 85.3104 7.616C85.2757 7.50133 85.2224 7.40133 85.1504 7.316C85.0784 7.23067 84.9864 7.164 84.8744 7.116C84.765 7.06533 84.637 7.04 84.4904 7.04C84.205 7.04 83.9797 7.12133 83.8144 7.284C83.6517 7.44667 83.5477 7.67733 83.5024 7.976H85.3664ZM83.4824 8.572C83.4984 8.78267 83.5357 8.96533 83.5944 9.12C83.653 9.272 83.7304 9.39867 83.8264 9.5C83.9224 9.59867 84.0357 9.67333 84.1664 9.724C84.2997 9.772 84.4464 9.796 84.6064 9.796C84.7664 9.796 84.9037 9.77733 85.0184 9.74C85.1357 9.70267 85.237 9.66133 85.3224 9.616C85.4104 9.57067 85.4864 9.52933 85.5504 9.492C85.617 9.45467 85.681 9.436 85.7424 9.436C85.825 9.436 85.8864 9.46667 85.9264 9.528L86.2104 9.888C86.101 10.016 85.9784 10.124 85.8424 10.212C85.7064 10.2973 85.5637 10.3667 85.4144 10.42C85.2677 10.4707 85.117 10.5067 84.9624 10.528C84.8104 10.5493 84.6624 10.56 84.5184 10.56C84.233 10.56 83.9677 10.5133 83.7224 10.42C83.477 10.324 83.2637 10.184 83.0824 10C82.901 9.81333 82.7584 9.584 82.6544 9.312C82.5504 9.03733 82.4984 8.72 82.4984 8.36C82.4984 8.08 82.5437 7.81733 82.6344 7.572C82.725 7.324 82.8544 7.10933 83.0224 6.928C83.193 6.744 83.3997 6.59867 83.6424 6.492C83.8877 6.38533 84.1637 6.332 84.4704 6.332C84.729 6.332 84.9677 6.37333 85.1864 6.456C85.405 6.53867 85.593 6.66 85.7504 6.82C85.9077 6.97733 86.0304 7.172 86.1184 7.404C86.209 7.63333 86.2544 7.896 86.2544 8.192C86.2544 8.34133 86.2384 8.44267 86.2064 8.496C86.1744 8.54667 86.113 8.572 86.0224 8.572H83.4824Z" fill="black"/>
<path d="M3.5 1H90.5V0H3.5V1ZM93 3.5V11.5H94V3.5H93ZM90.5 14H3.5V15H90.5V14ZM1 11.5V3.5H0V11.5H1ZM3.5 14C2.11929 14 1 12.8807 1 11.5H0C0 13.433 1.56701 15 3.5 15V14ZM93 11.5C93 12.8807 91.8807 14 90.5 14V15C92.433 15 94 13.433 94 11.5H93ZM90.5 1C91.8807 1 93 2.11929 93 3.5H94C94 1.567 92.433 0 90.5 0V1ZM3.5 0C1.567 0 0 1.567 0 3.5H1C1 2.11929 2.11929 1 3.5 1V0Z" fill="#979797"/>
<path d="M0.5 18.5C0.5 16.8431 1.84315 15.5 3.5 15.5H90.5C92.1569 15.5 93.5 16.8431 93.5 18.5V26.5C93.5 28.1569 92.1569 29.5 90.5 29.5H3.5C1.84315 29.5 0.5 28.1569 0.5 26.5V18.5Z" fill="#E3E3E3"/>
<path d="M16.2225 22.608C16.2225 23.032 16.1518 23.4253 16.0105 23.788C15.8718 24.148 15.6745 24.46 15.4185 24.724C15.1625 24.988 14.8545 25.1947 14.4945 25.344C14.1345 25.4907 13.7345 25.564 13.2945 25.564C12.8572 25.564 12.4585 25.4907 12.0985 25.344C11.7385 25.1947 11.4292 24.988 11.1705 24.724C10.9145 24.46 10.7158 24.148 10.5745 23.788C10.4332 23.4253 10.3625 23.032 10.3625 22.608C10.3625 22.184 10.4332 21.792 10.5745 21.432C10.7158 21.0693 10.9145 20.756 11.1705 20.492C11.4292 20.228 11.7385 20.0227 12.0985 19.876C12.4585 19.7267 12.8572 19.652 13.2945 19.652C13.5878 19.652 13.8638 19.6867 14.1225 19.756C14.3812 19.8227 14.6185 19.9187 14.8345 20.044C15.0505 20.1667 15.2438 20.3173 15.4145 20.496C15.5878 20.672 15.7345 20.8693 15.8545 21.088C15.9745 21.3067 16.0652 21.544 16.1265 21.8C16.1905 22.056 16.2225 22.3253 16.2225 22.608ZM15.1225 22.608C15.1225 22.2907 15.0798 22.0067 14.9945 21.756C14.9092 21.5027 14.7878 21.288 14.6305 21.112C14.4732 20.936 14.2812 20.8013 14.0545 20.708C13.8305 20.6147 13.5772 20.568 13.2945 20.568C13.0118 20.568 12.7572 20.6147 12.5305 20.708C12.3065 20.8013 12.1145 20.936 11.9545 21.112C11.7972 21.288 11.6758 21.5027 11.5905 21.756C11.5052 22.0067 11.4625 22.2907 11.4625 22.608C11.4625 22.9253 11.5052 23.2107 11.5905 23.464C11.6758 23.7147 11.7972 23.928 11.9545 24.104C12.1145 24.2773 12.3065 24.4107 12.5305 24.504C12.7572 24.5973 13.0118 24.644 13.2945 24.644C13.5772 24.644 13.8305 24.5973 14.0545 24.504C14.2812 24.4107 14.4732 24.2773 14.6305 24.104C14.7878 23.928 14.9092 23.7147 14.9945 23.464C15.0798 23.2107 15.1225 22.9253 15.1225 22.608ZM17.2526 25.5V22.14L16.8966 22.084C16.8192 22.068 16.7566 22.0413 16.7086 22.004C16.6632 21.964 16.6406 21.908 16.6406 21.836V21.432H17.2526V21.2C17.2526 20.9653 17.2872 20.7547 17.3566 20.568C17.4286 20.3813 17.5299 20.2227 17.6606 20.092C17.7939 19.9613 17.9552 19.8613 18.1446 19.792C18.3339 19.7227 18.5472 19.688 18.7846 19.688C18.9739 19.688 19.1499 19.7133 19.3126 19.764L19.2926 20.256C19.2899 20.2933 19.2792 20.324 19.2606 20.348C19.2419 20.372 19.2166 20.3907 19.1846 20.404C19.1552 20.4147 19.1206 20.4227 19.0806 20.428C19.0406 20.4307 18.9979 20.432 18.9526 20.432C18.8352 20.432 18.7299 20.4453 18.6366 20.472C18.5459 20.496 18.4686 20.54 18.4046 20.604C18.3406 20.6653 18.2912 20.748 18.2566 20.852C18.2246 20.9533 18.2086 21.08 18.2086 21.232V21.432H19.8446V21.068C19.8446 20.8333 19.8792 20.6227 19.9486 20.436C20.0206 20.2493 20.1219 20.0907 20.2526 19.96C20.3859 19.8293 20.5472 19.7293 20.7366 19.66C20.9259 19.5907 21.1392 19.556 21.3766 19.556C21.4699 19.556 21.5592 19.5627 21.6446 19.576C21.7326 19.5867 21.8192 19.604 21.9046 19.628L21.8806 20.124C21.8752 20.2013 21.8392 20.2507 21.7726 20.272C21.7086 20.2907 21.6326 20.3 21.5446 20.3C21.4272 20.3 21.3219 20.3133 21.2286 20.34C21.1379 20.364 21.0606 20.408 20.9966 20.472C20.9326 20.5333 20.8832 20.616 20.8486 20.72C20.8166 20.8213 20.8006 20.948 20.8006 21.1V21.432H21.8646V22.136H20.8326V25.5H19.8446V22.136H18.2406V25.5H17.2526Z" fill="black"/>
<path opacity="0.5" d="M32 17.5H31V27.5H32V17.5Z" fill="#979797"/>
<path d="M33 20.5C33 18.8431 34.3431 17.5 36 17.5H58C59.6569 17.5 61 18.8431 61 20.5V24.5C61 26.1569 59.6569 27.5 58 27.5H36C34.3431 27.5 33 26.1569 33 24.5V20.5Z" fill="#FF9300"/>
<path d="M47.7069 22.608C47.7069 23.032 47.6362 23.4253 47.4949 23.788C47.3562 24.148 47.1589 24.46 46.9029 24.724C46.6469 24.988 46.3389 25.1947 45.9789 25.344C45.6189 25.4907 45.2189 25.564 44.7789 25.564C44.3415 25.564 43.9429 25.4907 43.5829 25.344C43.2229 25.1947 42.9135 24.988 42.6549 24.724C42.3989 24.46 42.2002 24.148 42.0589 23.788C41.9175 23.4253 41.8469 23.032 41.8469 22.608C41.8469 22.184 41.9175 21.792 42.0589 21.432C42.2002 21.0693 42.3989 20.756 42.6549 20.492C42.9135 20.228 43.2229 20.0227 43.5829 19.876C43.9429 19.7267 44.3415 19.652 44.7789 19.652C45.0722 19.652 45.3482 19.6867 45.6069 19.756C45.8655 19.8227 46.1029 19.9187 46.3189 20.044C46.5349 20.1667 46.7282 20.3173 46.8989 20.496C47.0722 20.672 47.2189 20.8693 47.3389 21.088C47.4589 21.3067 47.5495 21.544 47.6109 21.8C47.6749 22.056 47.7069 22.3253 47.7069 22.608ZM46.6069 22.608C46.6069 22.2907 46.5642 22.0067 46.4789 21.756C46.3935 21.5027 46.2722 21.288 46.1149 21.112C45.9575 20.936 45.7655 20.8013 45.5389 20.708C45.3149 20.6147 45.0615 20.568 44.7789 20.568C44.4962 20.568 44.2415 20.6147 44.0149 20.708C43.7909 20.8013 43.5989 20.936 43.4389 21.112C43.2815 21.288 43.1602 21.5027 43.0749 21.756C42.9895 22.0067 42.9469 22.2907 42.9469 22.608C42.9469 22.9253 42.9895 23.2107 43.0749 23.464C43.1602 23.7147 43.2815 23.928 43.4389 24.104C43.5989 24.2773 43.7909 24.4107 44.0149 24.504C44.2415 24.5973 44.4962 24.644 44.7789 24.644C45.0615 24.644 45.3149 24.5973 45.5389 24.504C45.7655 24.4107 45.9575 24.2773 46.1149 24.104C46.2722 23.928 46.3935 23.7147 46.4789 23.464C46.5642 23.2107 46.6069 22.9253 46.6069 22.608ZM49.3495 21.9C49.4322 21.8173 49.5188 21.7413 49.6095 21.672C49.7028 21.6 49.8002 21.54 49.9015 21.492C50.0055 21.4413 50.1162 21.4027 50.2335 21.376C50.3508 21.3467 50.4788 21.332 50.6175 21.332C50.8415 21.332 51.0402 21.3707 51.2135 21.448C51.3868 21.5227 51.5308 21.6293 51.6455 21.768C51.7628 21.904 51.8508 22.068 51.9095 22.26C51.9708 22.4493 52.0015 22.6587 52.0015 22.888V25.5H51.0135V22.888C51.0135 22.6373 50.9562 22.444 50.8415 22.308C50.7268 22.1693 50.5522 22.1 50.3175 22.1C50.1468 22.1 49.9868 22.1387 49.8375 22.216C49.6882 22.2933 49.5468 22.3987 49.4135 22.532V25.5H48.4255V21.396H49.0295C49.1575 21.396 49.2415 21.456 49.2815 21.576L49.3495 21.9Z" fill="black"/>
<path opacity="0.5" d="M63 17.5H62V27.5H63V17.5Z" fill="#979797"/>
<path d="M74.9042 22.6V24.94C74.6109 25.156 74.2975 25.3147 73.9642 25.416C73.6335 25.5147 73.2789 25.564 72.9002 25.564C72.4282 25.564 72.0002 25.4907 71.6162 25.344C71.2349 25.1973 70.9082 24.9933 70.6362 24.732C70.3669 24.4707 70.1589 24.1587 70.0122 23.796C69.8655 23.4333 69.7922 23.0373 69.7922 22.608C69.7922 22.1733 69.8629 21.7747 70.0042 21.412C70.1455 21.0493 70.3455 20.7373 70.6042 20.476C70.8655 20.2147 71.1815 20.012 71.5522 19.868C71.9229 19.724 72.3389 19.652 72.8002 19.652C73.0349 19.652 73.2535 19.6707 73.4562 19.708C73.6615 19.7453 73.8509 19.7973 74.0242 19.864C74.2002 19.928 74.3602 20.0067 74.5042 20.1C74.6482 20.1933 74.7802 20.296 74.9002 20.408L74.5922 20.896C74.5442 20.9733 74.4815 21.0213 74.4042 21.04C74.3269 21.056 74.2429 21.036 74.1522 20.98C74.0642 20.9293 73.9762 20.8787 73.8882 20.828C73.8002 20.7773 73.7015 20.7333 73.5922 20.696C73.4855 20.6587 73.3642 20.628 73.2282 20.604C73.0949 20.58 72.9402 20.568 72.7642 20.568C72.4789 20.568 72.2202 20.616 71.9882 20.712C71.7589 20.808 71.5629 20.9453 71.4002 21.124C71.2375 21.3027 71.1122 21.5173 71.0242 21.768C70.9362 22.0187 70.8922 22.2987 70.8922 22.608C70.8922 22.9387 70.9389 23.2347 71.0322 23.496C71.1282 23.7547 71.2615 23.9747 71.4322 24.156C71.6055 24.3347 71.8135 24.472 72.0562 24.568C72.2989 24.6613 72.5695 24.708 72.8682 24.708C73.0815 24.708 73.2722 24.6853 73.4402 24.64C73.6082 24.5947 73.7722 24.5333 73.9322 24.456V23.408H73.2042C73.1349 23.408 73.0802 23.3893 73.0402 23.352C73.0029 23.312 72.9842 23.264 72.9842 23.208V22.6H74.9042ZM77.9373 23.748C77.6519 23.7613 77.4119 23.7867 77.2173 23.824C77.0226 23.8587 76.8666 23.904 76.7493 23.96C76.6319 24.016 76.5479 24.0813 76.4973 24.156C76.4466 24.2307 76.4213 24.312 76.4213 24.4C76.4213 24.5733 76.4719 24.6973 76.5733 24.772C76.6773 24.8467 76.8119 24.884 76.9773 24.884C77.1799 24.884 77.3546 24.848 77.5013 24.776C77.6506 24.7013 77.7959 24.5893 77.9373 24.44V23.748ZM75.6733 21.968C76.1453 21.536 76.7133 21.32 77.3773 21.32C77.6173 21.32 77.8319 21.36 78.0213 21.44C78.2106 21.5173 78.3706 21.6267 78.5013 21.768C78.6319 21.9067 78.7306 22.0733 78.7973 22.268C78.8666 22.4627 78.9013 22.676 78.9013 22.908V25.5H78.4533C78.3599 25.5 78.2879 25.4867 78.2373 25.46C78.1866 25.4307 78.1466 25.3733 78.1173 25.288L78.0293 24.992C77.9253 25.0853 77.8239 25.168 77.7253 25.24C77.6266 25.3093 77.5239 25.368 77.4173 25.416C77.3106 25.464 77.1959 25.5 77.0733 25.524C76.9533 25.5507 76.8199 25.564 76.6733 25.564C76.4999 25.564 76.3399 25.5413 76.1933 25.496C76.0466 25.448 75.9199 25.3773 75.8133 25.284C75.7066 25.1907 75.6239 25.0747 75.5653 24.936C75.5066 24.7973 75.4773 24.636 75.4773 24.452C75.4773 24.348 75.4946 24.2453 75.5293 24.144C75.5639 24.04 75.6199 23.9413 75.6973 23.848C75.7773 23.7547 75.8799 23.6667 76.0053 23.584C76.1306 23.5013 76.2839 23.4293 76.4653 23.368C76.6493 23.3067 76.8626 23.2573 77.1053 23.22C77.3479 23.18 77.6253 23.156 77.9373 23.148V22.908C77.9373 22.6333 77.8786 22.4307 77.7613 22.3C77.6439 22.1667 77.4746 22.1 77.2533 22.1C77.0933 22.1 76.9599 22.1187 76.8533 22.156C76.7493 22.1933 76.6573 22.236 76.5773 22.284C76.4973 22.3293 76.4239 22.3707 76.3573 22.408C76.2933 22.4453 76.2213 22.464 76.1413 22.464C76.0719 22.464 76.0133 22.4467 75.9653 22.412C75.9173 22.3747 75.8786 22.332 75.8493 22.284L75.6733 21.968ZM81.1451 25.564C80.7877 25.564 80.5131 25.464 80.3211 25.264C80.1317 25.0613 80.0371 24.7827 80.0371 24.428V22.136H79.6171C79.5637 22.136 79.5184 22.1187 79.4811 22.084C79.4437 22.0493 79.4251 21.9973 79.4251 21.928V21.536L80.0851 21.428L80.2931 20.308C80.3064 20.2547 80.3317 20.2133 80.3691 20.184C80.4064 20.1547 80.4544 20.14 80.5131 20.14H81.0251V21.432H82.1211V22.136H81.0251V24.36C81.0251 24.488 81.0557 24.588 81.1171 24.66C81.1811 24.732 81.2677 24.768 81.3771 24.768C81.4384 24.768 81.4891 24.7613 81.5291 24.748C81.5717 24.732 81.6077 24.716 81.6371 24.7C81.6691 24.684 81.6971 24.6693 81.7211 24.656C81.7451 24.64 81.7691 24.632 81.7931 24.632C81.8224 24.632 81.8464 24.64 81.8651 24.656C81.8837 24.6693 81.9037 24.6907 81.9251 24.72L82.2211 25.2C82.0771 25.32 81.9117 25.4107 81.7251 25.472C81.5384 25.5333 81.3451 25.564 81.1451 25.564ZM85.3664 22.976C85.3664 22.848 85.3477 22.728 85.3104 22.616C85.2757 22.5013 85.2224 22.4013 85.1504 22.316C85.0784 22.2307 84.9864 22.164 84.8744 22.116C84.765 22.0653 84.637 22.04 84.4904 22.04C84.205 22.04 83.9797 22.1213 83.8144 22.284C83.6517 22.4467 83.5477 22.6773 83.5024 22.976H85.3664ZM83.4824 23.572C83.4984 23.7827 83.5357 23.9653 83.5944 24.12C83.653 24.272 83.7304 24.3987 83.8264 24.5C83.9224 24.5987 84.0357 24.6733 84.1664 24.724C84.2997 24.772 84.4464 24.796 84.6064 24.796C84.7664 24.796 84.9037 24.7773 85.0184 24.74C85.1357 24.7027 85.237 24.6613 85.3224 24.616C85.4104 24.5707 85.4864 24.5293 85.5504 24.492C85.617 24.4547 85.681 24.436 85.7424 24.436C85.825 24.436 85.8864 24.4667 85.9264 24.528L86.2104 24.888C86.101 25.016 85.9784 25.124 85.8424 25.212C85.7064 25.2973 85.5637 25.3667 85.4144 25.42C85.2677 25.4707 85.117 25.5067 84.9624 25.528C84.8104 25.5493 84.6624 25.56 84.5184 25.56C84.233 25.56 83.9677 25.5133 83.7224 25.42C83.477 25.324 83.2637 25.184 83.0824 25C82.901 24.8133 82.7584 24.584 82.6544 24.312C82.5504 24.0373 82.4984 23.72 82.4984 23.36C82.4984 23.08 82.5437 22.8173 82.6344 22.572C82.725 22.324 82.8544 22.1093 83.0224 21.928C83.193 21.744 83.3997 21.5987 83.6424 21.492C83.8877 21.3853 84.1637 21.332 84.4704 21.332C84.729 21.332 84.9677 21.3733 85.1864 21.456C85.405 21.5387 85.593 21.66 85.7504 21.82C85.9077 21.9773 86.0304 22.172 86.1184 22.404C86.209 22.6333 86.2544 22.896 86.2544 23.192C86.2544 23.3413 86.2384 23.4427 86.2064 23.496C86.1744 23.5467 86.113 23.572 86.0224 23.572H83.4824Z" fill="black"/>
<path d="M3.5 16H90.5V15H3.5V16ZM93 18.5V26.5H94V18.5H93ZM90.5 29H3.5V30H90.5V29ZM1 26.5V18.5H0V26.5H1ZM3.5 29C2.11929 29 1 27.8807 1 26.5H0C0 28.433 1.56701 30 3.5 30V29ZM93 26.5C93 27.8807 91.8807 29 90.5 29V30C92.433 30 94 28.433 94 26.5H93ZM90.5 16C91.8807 16 93 17.1193 93 18.5H94C94 16.567 92.433 15 90.5 15V16ZM3.5 15C1.567 15 0 16.567 0 18.5H1C1 17.1193 2.11929 16 3.5 16V15Z" fill="#979797"/>
<path d="M0.5 33.5C0.5 31.8431 1.84315 30.5 3.5 30.5H90.5C92.1569 30.5 93.5 31.8431 93.5 33.5V41.5C93.5 43.1569 92.1569 44.5 90.5 44.5H3.5C1.84315 44.5 0.5 43.1569 0.5 41.5V33.5Z" fill="#E3E3E3"/>
<path d="M16.2225 37.608C16.2225 38.032 16.1518 38.4253 16.0105 38.788C15.8718 39.148 15.6745 39.46 15.4185 39.724C15.1625 39.988 14.8545 40.1947 14.4945 40.344C14.1345 40.4907 13.7345 40.564 13.2945 40.564C12.8572 40.564 12.4585 40.4907 12.0985 40.344C11.7385 40.1947 11.4292 39.988 11.1705 39.724C10.9145 39.46 10.7158 39.148 10.5745 38.788C10.4332 38.4253 10.3625 38.032 10.3625 37.608C10.3625 37.184 10.4332 36.792 10.5745 36.432C10.7158 36.0693 10.9145 35.756 11.1705 35.492C11.4292 35.228 11.7385 35.0227 12.0985 34.876C12.4585 34.7267 12.8572 34.652 13.2945 34.652C13.5878 34.652 13.8638 34.6867 14.1225 34.756C14.3812 34.8227 14.6185 34.9187 14.8345 35.044C15.0505 35.1667 15.2438 35.3173 15.4145 35.496C15.5878 35.672 15.7345 35.8693 15.8545 36.088C15.9745 36.3067 16.0652 36.544 16.1265 36.8C16.1905 37.056 16.2225 37.3253 16.2225 37.608ZM15.1225 37.608C15.1225 37.2907 15.0798 37.0067 14.9945 36.756C14.9092 36.5027 14.7878 36.288 14.6305 36.112C14.4732 35.936 14.2812 35.8013 14.0545 35.708C13.8305 35.6147 13.5772 35.568 13.2945 35.568C13.0118 35.568 12.7572 35.6147 12.5305 35.708C12.3065 35.8013 12.1145 35.936 11.9545 36.112C11.7972 36.288 11.6758 36.5027 11.5905 36.756C11.5052 37.0067 11.4625 37.2907 11.4625 37.608C11.4625 37.9253 11.5052 38.2107 11.5905 38.464C11.6758 38.7147 11.7972 38.928 11.9545 39.104C12.1145 39.2773 12.3065 39.4107 12.5305 39.504C12.7572 39.5973 13.0118 39.644 13.2945 39.644C13.5772 39.644 13.8305 39.5973 14.0545 39.504C14.2812 39.4107 14.4732 39.2773 14.6305 39.104C14.7878 38.928 14.9092 38.7147 14.9945 38.464C15.0798 38.2107 15.1225 37.9253 15.1225 37.608ZM17.2526 40.5V37.14L16.8966 37.084C16.8192 37.068 16.7566 37.0413 16.7086 37.004C16.6632 36.964 16.6406 36.908 16.6406 36.836V36.432H17.2526V36.2C17.2526 35.9653 17.2872 35.7547 17.3566 35.568C17.4286 35.3813 17.5299 35.2227 17.6606 35.092C17.7939 34.9613 17.9552 34.8613 18.1446 34.792C18.3339 34.7227 18.5472 34.688 18.7846 34.688C18.9739 34.688 19.1499 34.7133 19.3126 34.764L19.2926 35.256C19.2899 35.2933 19.2792 35.324 19.2606 35.348C19.2419 35.372 19.2166 35.3907 19.1846 35.404C19.1552 35.4147 19.1206 35.4227 19.0806 35.428C19.0406 35.4307 18.9979 35.432 18.9526 35.432C18.8352 35.432 18.7299 35.4453 18.6366 35.472C18.5459 35.496 18.4686 35.54 18.4046 35.604C18.3406 35.6653 18.2912 35.748 18.2566 35.852C18.2246 35.9533 18.2086 36.08 18.2086 36.232V36.432H19.8446V36.068C19.8446 35.8333 19.8792 35.6227 19.9486 35.436C20.0206 35.2493 20.1219 35.0907 20.2526 34.96C20.3859 34.8293 20.5472 34.7293 20.7366 34.66C20.9259 34.5907 21.1392 34.556 21.3766 34.556C21.4699 34.556 21.5592 34.5627 21.6446 34.576C21.7326 34.5867 21.8192 34.604 21.9046 34.628L21.8806 35.124C21.8752 35.2013 21.8392 35.2507 21.7726 35.272C21.7086 35.2907 21.6326 35.3 21.5446 35.3C21.4272 35.3 21.3219 35.3133 21.2286 35.34C21.1379 35.364 21.0606 35.408 20.9966 35.472C20.9326 35.5333 20.8832 35.616 20.8486 35.72C20.8166 35.8213 20.8006 35.948 20.8006 36.1V36.432H21.8646V37.136H20.8326V40.5H19.8446V37.136H18.2406V40.5H17.2526Z" fill="black"/>
<path opacity="0.5" d="M32 32.5H31V42.5H32V32.5Z" fill="#979797"/>
<path d="M47.7069 37.608C47.7069 38.032 47.6362 38.4253 47.4949 38.788C47.3562 39.148 47.1589 39.46 46.9029 39.724C46.6469 39.988 46.3389 40.1947 45.9789 40.344C45.6189 40.4907 45.2189 40.564 44.7789 40.564C44.3415 40.564 43.9429 40.4907 43.5829 40.344C43.2229 40.1947 42.9135 39.988 42.6549 39.724C42.3989 39.46 42.2002 39.148 42.0589 38.788C41.9175 38.4253 41.8469 38.032 41.8469 37.608C41.8469 37.184 41.9175 36.792 42.0589 36.432C42.2002 36.0693 42.3989 35.756 42.6549 35.492C42.9135 35.228 43.2229 35.0227 43.5829 34.876C43.9429 34.7267 44.3415 34.652 44.7789 34.652C45.0722 34.652 45.3482 34.6867 45.6069 34.756C45.8655 34.8227 46.1029 34.9187 46.3189 35.044C46.5349 35.1667 46.7282 35.3173 46.8989 35.496C47.0722 35.672 47.2189 35.8693 47.3389 36.088C47.4589 36.3067 47.5495 36.544 47.6109 36.8C47.6749 37.056 47.7069 37.3253 47.7069 37.608ZM46.6069 37.608C46.6069 37.2907 46.5642 37.0067 46.4789 36.756C46.3935 36.5027 46.2722 36.288 46.1149 36.112C45.9575 35.936 45.7655 35.8013 45.5389 35.708C45.3149 35.6147 45.0615 35.568 44.7789 35.568C44.4962 35.568 44.2415 35.6147 44.0149 35.708C43.7909 35.8013 43.5989 35.936 43.4389 36.112C43.2815 36.288 43.1602 36.5027 43.0749 36.756C42.9895 37.0067 42.9469 37.2907 42.9469 37.608C42.9469 37.9253 42.9895 38.2107 43.0749 38.464C43.1602 38.7147 43.2815 38.928 43.4389 39.104C43.5989 39.2773 43.7909 39.4107 44.0149 39.504C44.2415 39.5973 44.4962 39.644 44.7789 39.644C45.0615 39.644 45.3149 39.5973 45.5389 39.504C45.7655 39.4107 45.9575 39.2773 46.1149 39.104C46.2722 38.928 46.3935 38.7147 46.4789 38.464C46.5642 38.2107 46.6069 37.9253 46.6069 37.608ZM49.3495 36.9C49.4322 36.8173 49.5188 36.7413 49.6095 36.672C49.7028 36.6 49.8002 36.54 49.9015 36.492C50.0055 36.4413 50.1162 36.4027 50.2335 36.376C50.3508 36.3467 50.4788 36.332 50.6175 36.332C50.8415 36.332 51.0402 36.3707 51.2135 36.448C51.3868 36.5227 51.5308 36.6293 51.6455 36.768C51.7628 36.904 51.8508 37.068 51.9095 37.26C51.9708 37.4493 52.0015 37.6587 52.0015 37.888V40.5H51.0135V37.888C51.0135 37.6373 50.9562 37.444 50.8415 37.308C50.7268 37.1693 50.5522 37.1 50.3175 37.1C50.1468 37.1 49.9868 37.1387 49.8375 37.216C49.6882 37.2933 49.5468 37.3987 49.4135 37.532V40.5H48.4255V36.396H49.0295C49.1575 36.396 49.2415 36.456 49.2815 36.576L49.3495 36.9Z" fill="black"/>
<path opacity="0.5" d="M63 32.5H62V42.5H63V32.5Z" fill="#979797"/>
<path d="M64 35.5C64 33.8431 65.3431 32.5 67 32.5H89C90.6569 32.5 92 33.8431 92 35.5V39.5C92 41.1569 90.6569 42.5 89 42.5H67C65.3431 42.5 64 41.1569 64 39.5V35.5Z" fill="#FF9300"/>
<path d="M74.9042 37.6V39.94C74.6109 40.156 74.2975 40.3147 73.9642 40.416C73.6335 40.5147 73.2789 40.564 72.9002 40.564C72.4282 40.564 72.0002 40.4907 71.6162 40.344C71.2349 40.1973 70.9082 39.9933 70.6362 39.732C70.3669 39.4707 70.1589 39.1587 70.0122 38.796C69.8655 38.4333 69.7922 38.0373 69.7922 37.608C69.7922 37.1733 69.8629 36.7747 70.0042 36.412C70.1455 36.0493 70.3455 35.7373 70.6042 35.476C70.8655 35.2147 71.1815 35.012 71.5522 34.868C71.9229 34.724 72.3389 34.652 72.8002 34.652C73.0349 34.652 73.2535 34.6707 73.4562 34.708C73.6615 34.7453 73.8509 34.7973 74.0242 34.864C74.2002 34.928 74.3602 35.0067 74.5042 35.1C74.6482 35.1933 74.7802 35.296 74.9002 35.408L74.5922 35.896C74.5442 35.9733 74.4815 36.0213 74.4042 36.04C74.3269 36.056 74.2429 36.036 74.1522 35.98C74.0642 35.9293 73.9762 35.8787 73.8882 35.828C73.8002 35.7773 73.7015 35.7333 73.5922 35.696C73.4855 35.6587 73.3642 35.628 73.2282 35.604C73.0949 35.58 72.9402 35.568 72.7642 35.568C72.4789 35.568 72.2202 35.616 71.9882 35.712C71.7589 35.808 71.5629 35.9453 71.4002 36.124C71.2375 36.3027 71.1122 36.5173 71.0242 36.768C70.9362 37.0187 70.8922 37.2987 70.8922 37.608C70.8922 37.9387 70.9389 38.2347 71.0322 38.496C71.1282 38.7547 71.2615 38.9747 71.4322 39.156C71.6055 39.3347 71.8135 39.472 72.0562 39.568C72.2989 39.6613 72.5695 39.708 72.8682 39.708C73.0815 39.708 73.2722 39.6853 73.4402 39.64C73.6082 39.5947 73.7722 39.5333 73.9322 39.456V38.408H73.2042C73.1349 38.408 73.0802 38.3893 73.0402 38.352C73.0029 38.312 72.9842 38.264 72.9842 38.208V37.6H74.9042ZM77.9373 38.748C77.6519 38.7613 77.4119 38.7867 77.2173 38.824C77.0226 38.8587 76.8666 38.904 76.7493 38.96C76.6319 39.016 76.5479 39.0813 76.4973 39.156C76.4466 39.2307 76.4213 39.312 76.4213 39.4C76.4213 39.5733 76.4719 39.6973 76.5733 39.772C76.6773 39.8467 76.8119 39.884 76.9773 39.884C77.1799 39.884 77.3546 39.848 77.5013 39.776C77.6506 39.7013 77.7959 39.5893 77.9373 39.44V38.748ZM75.6733 36.968C76.1453 36.536 76.7133 36.32 77.3773 36.32C77.6173 36.32 77.8319 36.36 78.0213 36.44C78.2106 36.5173 78.3706 36.6267 78.5013 36.768C78.6319 36.9067 78.7306 37.0733 78.7973 37.268C78.8666 37.4627 78.9013 37.676 78.9013 37.908V40.5H78.4533C78.3599 40.5 78.2879 40.4867 78.2373 40.46C78.1866 40.4307 78.1466 40.3733 78.1173 40.288L78.0293 39.992C77.9253 40.0853 77.8239 40.168 77.7253 40.24C77.6266 40.3093 77.5239 40.368 77.4173 40.416C77.3106 40.464 77.1959 40.5 77.0733 40.524C76.9533 40.5507 76.8199 40.564 76.6733 40.564C76.4999 40.564 76.3399 40.5413 76.1933 40.496C76.0466 40.448 75.9199 40.3773 75.8133 40.284C75.7066 40.1907 75.6239 40.0747 75.5653 39.936C75.5066 39.7973 75.4773 39.636 75.4773 39.452C75.4773 39.348 75.4946 39.2453 75.5293 39.144C75.5639 39.04 75.6199 38.9413 75.6973 38.848C75.7773 38.7547 75.8799 38.6667 76.0053 38.584C76.1306 38.5013 76.2839 38.4293 76.4653 38.368C76.6493 38.3067 76.8626 38.2573 77.1053 38.22C77.3479 38.18 77.6253 38.156 77.9373 38.148V37.908C77.9373 37.6333 77.8786 37.4307 77.7613 37.3C77.6439 37.1667 77.4746 37.1 77.2533 37.1C77.0933 37.1 76.9599 37.1187 76.8533 37.156C76.7493 37.1933 76.6573 37.236 76.5773 37.284C76.4973 37.3293 76.4239 37.3707 76.3573 37.408C76.2933 37.4453 76.2213 37.464 76.1413 37.464C76.0719 37.464 76.0133 37.4467 75.9653 37.412C75.9173 37.3747 75.8786 37.332 75.8493 37.284L75.6733 36.968ZM81.1451 40.564C80.7877 40.564 80.5131 40.464 80.3211 40.264C80.1317 40.0613 80.0371 39.7827 80.0371 39.428V37.136H79.6171C79.5637 37.136 79.5184 37.1187 79.4811 37.084C79.4437 37.0493 79.4251 36.9973 79.4251 36.928V36.536L80.0851 36.428L80.2931 35.308C80.3064 35.2547 80.3317 35.2133 80.3691 35.184C80.4064 35.1547 80.4544 35.14 80.5131 35.14H81.0251V36.432H82.1211V37.136H81.0251V39.36C81.0251 39.488 81.0557 39.588 81.1171 39.66C81.1811 39.732 81.2677 39.768 81.3771 39.768C81.4384 39.768 81.4891 39.7613 81.5291 39.748C81.5717 39.732 81.6077 39.716 81.6371 39.7C81.6691 39.684 81.6971 39.6693 81.7211 39.656C81.7451 39.64 81.7691 39.632 81.7931 39.632C81.8224 39.632 81.8464 39.64 81.8651 39.656C81.8837 39.6693 81.9037 39.6907 81.9251 39.72L82.2211 40.2C82.0771 40.32 81.9117 40.4107 81.7251 40.472C81.5384 40.5333 81.3451 40.564 81.1451 40.564ZM85.3664 37.976C85.3664 37.848 85.3477 37.728 85.3104 37.616C85.2757 37.5013 85.2224 37.4013 85.1504 37.316C85.0784 37.2307 84.9864 37.164 84.8744 37.116C84.765 37.0653 84.637 37.04 84.4904 37.04C84.205 37.04 83.9797 37.1213 83.8144 37.284C83.6517 37.4467 83.5477 37.6773 83.5024 37.976H85.3664ZM83.4824 38.572C83.4984 38.7827 83.5357 38.9653 83.5944 39.12C83.653 39.272 83.7304 39.3987 83.8264 39.5C83.9224 39.5987 84.0357 39.6733 84.1664 39.724C84.2997 39.772 84.4464 39.796 84.6064 39.796C84.7664 39.796 84.9037 39.7773 85.0184 39.74C85.1357 39.7027 85.237 39.6613 85.3224 39.616C85.4104 39.5707 85.4864 39.5293 85.5504 39.492C85.617 39.4547 85.681 39.436 85.7424 39.436C85.825 39.436 85.8864 39.4667 85.9264 39.528L86.2104 39.888C86.101 40.016 85.9784 40.124 85.8424 40.212C85.7064 40.2973 85.5637 40.3667 85.4144 40.42C85.2677 40.4707 85.117 40.5067 84.9624 40.528C84.8104 40.5493 84.6624 40.56 84.5184 40.56C84.233 40.56 83.9677 40.5133 83.7224 40.42C83.477 40.324 83.2637 40.184 83.0824 40C82.901 39.8133 82.7584 39.584 82.6544 39.312C82.5504 39.0373 82.4984 38.72 82.4984 38.36C82.4984 38.08 82.5437 37.8173 82.6344 37.572C82.725 37.324 82.8544 37.1093 83.0224 36.928C83.193 36.744 83.3997 36.5987 83.6424 36.492C83.8877 36.3853 84.1637 36.332 84.4704 36.332C84.729 36.332 84.9677 36.3733 85.1864 36.456C85.405 36.5387 85.593 36.66 85.7504 36.82C85.9077 36.9773 86.0304 37.172 86.1184 37.404C86.209 37.6333 86.2544 37.896 86.2544 38.192C86.2544 38.3413 86.2384 38.4427 86.2064 38.496C86.1744 38.5467 86.113 38.572 86.0224 38.572H83.4824Z" fill="black"/>
<path d="M3.5 31H90.5V30H3.5V31ZM93 33.5V41.5H94V33.5H93ZM90.5 44H3.5V45H90.5V44ZM1 41.5V33.5H0V41.5H1ZM3.5 44C2.11929 44 1 42.8807 1 41.5H0C0 43.433 1.56701 45 3.5 45V44ZM93 41.5C93 42.8807 91.8807 44 90.5 44V45C92.433 45 94 43.433 94 41.5H93ZM90.5 31C91.8807 31 93 32.1193 93 33.5H94C94 31.567 92.433 30 90.5 30V31ZM3.5 30C1.567 30 0 31.567 0 33.5H1C1 32.1193 2.11929 31 3.5 31V30Z" fill="#979797"/>
</svg>
