<?xml version="1.0" encoding="utf-8"?>
<svg width="73px" height="112px" viewBox="0 0 73 112" version="1.1" xmlns:xlink="http://www.w3.org/1999/xlink" xmlns="http://www.w3.org/2000/svg">
  <desc>Created with Lunacy</desc>
  <defs>
    <rect width="73" height="112" id="artboard_1" />
    <clipPath id="clip_1">
      <use xlink:href="#artboard_1" clip-rule="evenodd" />
    </clipPath>
  </defs>
  <g id="bmp00124" clip-path="url(#clip_1)">
    <path d="M0 0L72 0L72 15L0 15L0 0L0 0Z" transform="translate(0.5 0.5)" id="Rectangle" fill="#FFFFFF" fill-rule="evenodd" stroke="#2E86FE" stroke-width="1" />
    <path d="M0 0L72 0L72 15L0 15L0 0L0 0Z" transform="translate(0.5 16.5)" id="Rectangle#1" fill="#FFFFFF" fill-rule="evenodd" stroke="#2E86FE" stroke-width="1" />
    <path d="M0 0L73 0L73 14L0 14L0 0L0 0Z" transform="translate(0 33)" id="Rectangle#2" fill="#2E86FE" fill-rule="evenodd" stroke="none" />
    <path d="M0 0L73 0L73 14L0 14L0 0L0 0Z" transform="translate(0 49)" id="Rectangle#3" fill="#2E86FE" fill-rule="evenodd" stroke="none" />
    <path d="M0 0L73 0L73 14L0 14L0 0L0 0Z" transform="translate(0 81)" id="Rectangle#4" fill="#ADFF6B" fill-rule="evenodd" stroke="none" />
    <g id="Group" transform="translate(-0.5 96.5)">
      <path d="M0 0L70 0L70 11L0 11L0 0L0 0Z" transform="translate(2 2)" id="Rectangle#5" fill="none" fill-rule="evenodd" stroke="#FFFFFF" stroke-opacity="0.2784314" stroke-width="1" />
      <path d="M0 0L72 0L72 13L0 13L0 0L0 0Z" transform="translate(1 1)" id="Rectangle#6" fill="none" fill-rule="evenodd" stroke="#FFFFFF" stroke-opacity="0.5019608" stroke-width="1" />
      <path d="M74 0L0 0L0 15L74 15L74 0L74 0L74 0Z" id="Rectangle-2" fill="none" fill-rule="evenodd" stroke="#FFFFFF" stroke-opacity="0.2784314" stroke-width="1" />
    </g>
  </g>
</svg>