<?xml version="1.0" encoding="UTF-8"?>
<svg width="75px" height="39px" viewBox="0 0 75 39" version="1.1" xmlns="http://www.w3.org/2000/svg" xmlns:xlink="http://www.w3.org/1999/xlink">
    <g id="bmp00122" stroke="none" stroke-width="1" fill="none" fill-rule="evenodd">
        <rect id="Rectangle" stroke="#101010" fill="#101010" x="0.5" y="0.5" width="74" height="38"></rect>
        <rect id="Rectangle" fill="#FF9B10" x="1" y="1" width="24" height="11"></rect>
        <rect id="Rectangle" fill="#221910" x="2" y="14" width="23" height="11"></rect>
        <rect id="Rectangle" fill="#221910" x="2" y="27" width="23" height="11"></rect>
        <rect id="Rectangle" fill="#FF9B10" x="26" y="14" width="24" height="11"></rect>
        <rect id="Rectangle" fill="#221910" x="26" y="27" width="23" height="11"></rect>
        <rect id="Rectangle" fill="#221910" x="26" y="1" width="24" height="11"></rect>
        <rect id="Rectangle" fill="#221910" x="51" y="1" width="23" height="11"></rect>
        <rect id="Rectangle" fill="#FF9B10" x="50" y="27" width="24" height="11"></rect>
        <rect id="Rectangle" fill="#221910" x="51" y="14" width="23" height="11"></rect>
        <rect id="Rectangle" stroke="#101010" fill="#101010" x="0.5" y="0.5" width="74" height="38"></rect>
        <rect id="Rectangle" fill="#FF9B10" x="1" y="1" width="24" height="11"></rect>
        <rect id="Rectangle" fill="#221910" x="2" y="14" width="23" height="11"></rect>
        <rect id="Rectangle" fill="#221910" x="2" y="27" width="23" height="11"></rect>
        <rect id="Rectangle" fill="#FF9B10" x="26" y="14" width="24" height="11"></rect>
        <rect id="Rectangle" fill="#221910" x="26" y="27" width="23" height="11"></rect>
        <rect id="Rectangle" fill="#221910" x="26" y="1" width="24" height="11"></rect>
        <rect id="Rectangle" fill="#221910" x="51" y="1" width="23" height="11"></rect>
        <rect id="Rectangle" fill="#FF9B10" x="50" y="27" width="24" height="11"></rect>
        <rect id="Rectangle" fill="#221910" x="51" y="14" width="23" height="11"></rect>
        <path d="M15.0925,21.3525 L15.0925,22 L12.2925,22 L12.2925,21.3525 L13.318,21.3525 L13.318,18.402 C13.318,18.2853328 13.3215,18.1651673 13.3285,18.0415 L12.6005,18.6505 C12.5584998,18.6831668 12.5170835,18.7035833 12.47625,18.71175 C12.4354165,18.7199167 12.3969168,18.7205 12.36075,18.7135 C12.3245832,18.7065 12.2925001,18.6942501 12.2645,18.67675 C12.2364999,18.6592499 12.2155001,18.6400001 12.2015,18.619 L11.9285,18.2445 L13.472,16.932 L14.1825,16.932 L14.1825,21.3525 L15.0925,21.3525 Z" id="1" fill="#FF9B10" fill-rule="nonzero"></path>
        <path d="M39.9035,21.195 C39.9968338,21.195 40.0709164,21.2212497 40.12575,21.27375 C40.1805836,21.3262503 40.208,21.3956662 40.208,21.482 L40.208,22 L36.736,22 L36.736,21.713 C36.736,21.6546664 36.7482499,21.593417 36.77275,21.52925 C36.7972501,21.465083 36.8363331,21.4073336 36.89,21.356 L38.4265,19.816 C38.554834,19.6853327 38.6697495,19.5605006 38.77125,19.4415 C38.8727505,19.3224994 38.957333,19.2046672 39.025,19.088 C39.092667,18.9713328 39.1445832,18.8529173 39.18075,18.73275 C39.2169168,18.6125827 39.235,18.4860007 39.235,18.353 C39.235,18.2316661 39.2175002,18.1249171 39.1825,18.03275 C39.1474998,17.9405829 39.097917,17.8630003 39.03375,17.8 C38.969583,17.7369997 38.8925838,17.6897502 38.80275,17.65825 C38.7129162,17.6267498 38.6120006,17.611 38.5,17.611 C38.3973328,17.611 38.3022504,17.6255832 38.21475,17.65475 C38.1272496,17.6839168 38.049667,17.7247497 37.982,17.77725 C37.914333,17.8297503 37.8571669,17.8909996 37.8105,17.961 C37.7638331,18.0310003 37.7288334,18.1079996 37.7055,18.192 C37.6658331,18.2993339 37.6145003,18.3704998 37.5515,18.4055 C37.4884997,18.4405002 37.3975006,18.4486668 37.2785,18.43 L36.8235,18.3495 C36.8585002,18.1068321 36.9261662,17.8939176 37.0265,17.71075 C37.1268338,17.5275824 37.2522492,17.3747506 37.40275,17.25225 C37.5532508,17.1297494 37.7259157,17.0375836 37.92075,16.97575 C38.1155843,16.9139164 38.3249989,16.883 38.549,16.883 C38.7823345,16.883 38.9958324,16.9174163 39.1895,16.98625 C39.3831676,17.0550837 39.5488326,17.1524994 39.6865,17.2785 C39.8241674,17.4045006 39.9314996,17.5561658 40.0085,17.7335 C40.0855004,17.9108342 40.124,18.1079989 40.124,18.325 C40.124,18.5116676 40.0965836,18.6843325 40.04175,18.843 C39.9869164,19.0016675 39.9134171,19.1533326 39.82125,19.298 C39.7290829,19.4426674 39.6211673,19.582666 39.4975,19.718 C39.3738327,19.853334 39.244334,19.9909993 39.109,20.131 L37.968,21.2965 C38.0776672,21.2638332 38.1867495,21.2387501 38.29525,21.22125 C38.4037505,21.2037499 38.5069995,21.195 38.605,21.195 L39.9035,21.195 Z" id="2" fill="#000000" fill-rule="nonzero"></path>
        <path d="M60.848,18.3495 C60.8830002,18.1068321 60.9506662,17.8939176 61.051,17.71075 C61.1513338,17.5275824 61.2767492,17.3747506 61.42725,17.25225 C61.5777508,17.1297494 61.7504157,17.0375836 61.94525,16.97575 C62.1400843,16.9139164 62.3494989,16.883 62.5735,16.883 C62.8068345,16.883 63.0174157,16.9162497 63.20525,16.98275 C63.3930843,17.0492503 63.5534993,17.1414161 63.6865,17.25925 C63.8195007,17.3770839 63.921583,17.5153325 63.99275,17.674 C64.063917,17.8326675 64.0995,18.0041657 64.0995,18.1885 C64.0995,18.3495008 64.0814168,18.4912494 64.04525,18.61375 C64.0090832,18.7362506 63.957167,18.8429995 63.8895,18.934 C63.821833,19.0250005 63.7378338,19.1019997 63.6375,19.165 C63.5371662,19.2280003 63.4240006,19.2804998 63.298,19.3225 C63.6013349,19.4181671 63.8276659,19.563999 63.977,19.76 C64.1263341,19.956001 64.201,20.2021652 64.201,20.4985 C64.201,20.7505013 64.1543338,20.9733324 64.061,21.167 C63.9676662,21.3606676 63.8416675,21.523416 63.683,21.65525 C63.5243325,21.787084 63.3405844,21.886833 63.13175,21.9545 C62.9229156,22.022167 62.7018345,22.056 62.4685,22.056 C62.2141654,22.056 61.9925009,22.0268336 61.8035,21.9685 C61.6144991,21.9101664 61.4500007,21.8238339 61.31,21.7095 C61.1699993,21.5951661 61.0510005,21.4551675 60.953,21.2895 C60.8549995,21.1238325 60.7710004,20.9325011 60.701,20.7155 L61.0825,20.558 C61.1828338,20.5159998 61.2767496,20.5049166 61.36425,20.52475 C61.4517504,20.5445834 61.5153331,20.591833 61.555,20.6665 C61.5970002,20.7481671 61.6430831,20.8286663 61.69325,20.908 C61.7434169,20.9873337 61.8034996,21.0579164 61.8735,21.11975 C61.9435004,21.1815836 62.0257495,21.2317498 62.12025,21.27025 C62.2147505,21.3087502 62.3273327,21.328 62.458,21.328 C62.6050007,21.328 62.7333328,21.3040836 62.843,21.25625 C62.9526672,21.2084164 63.0442496,21.1460004 63.11775,21.069 C63.1912504,20.9919996 63.2460832,20.9062505 63.28225,20.81175 C63.3184168,20.7172495 63.3365,20.6221671 63.3365,20.5265 C63.3365,20.4051661 63.3236668,20.2949172 63.298,20.19575 C63.2723332,20.0965828 63.2186671,20.0120004 63.137,19.942 C63.0553329,19.8719996 62.9380841,19.8171669 62.78525,19.7775 C62.6324159,19.7378331 62.427668,19.718 62.171,19.718 L62.171,19.102 C62.3833344,19.0996667 62.5594993,19.0798335 62.6995,19.0425 C62.8395007,19.0051665 62.9509163,18.9532503 63.03375,18.88675 C63.1165837,18.8202497 63.1743332,18.7403338 63.207,18.647 C63.2396668,18.5536662 63.256,18.4510006 63.256,18.339 C63.256,18.1009988 63.1895007,17.9201673 63.0565,17.7965 C62.9234993,17.6728327 62.7461678,17.611 62.5245,17.611 C62.4218328,17.611 62.3273338,17.6255832 62.241,17.65475 C62.1546662,17.6839168 62.0770837,17.7247497 62.00825,17.77725 C61.9394163,17.8297503 61.8816669,17.8909996 61.835,17.961 C61.7883331,18.0310003 61.7533334,18.1079996 61.73,18.192 C61.6903331,18.2993339 61.638417,18.3704998 61.57425,18.4055 C61.510083,18.4405002 61.4196673,18.4486668 61.303,18.43 L60.848,18.3495 Z" id="3" fill="#FF9B10" fill-rule="nonzero"></path>
        <path d="M15.0925,8.3525 L15.0925,9 L12.2925,9 L12.2925,8.3525 L13.318,8.3525 L13.318,5.402 C13.318,5.28533275 13.3215,5.16516729 13.3285,5.0415 L12.6005,5.6505 C12.5584998,5.68316683 12.5170835,5.70358329 12.47625,5.71175 C12.4354165,5.71991671 12.3969168,5.72050003 12.36075,5.7135 C12.3245832,5.70649996 12.2925001,5.69425009 12.2645,5.67675 C12.2364999,5.65924991 12.2155001,5.6400001 12.2015,5.619 L11.9285,5.2445 L13.472,3.932 L14.1825,3.932 L14.1825,8.3525 L15.0925,8.3525 Z" id="1" fill="#101010" fill-rule="nonzero"></path>
        <path d="M39.9035,8.195 C39.9968338,8.195 40.0709164,8.22124974 40.12575,8.27375 C40.1805836,8.32625026 40.208,8.39566624 40.208,8.482 L40.208,9 L36.736,9 L36.736,8.713 C36.736,8.65466637 36.7482499,8.59341699 36.77275,8.52925 C36.7972501,8.46508301 36.8363331,8.40733359 36.89,8.356 L38.4265,6.816 C38.554834,6.68533268 38.6697495,6.5605006 38.77125,6.4415 C38.8727505,6.32249941 38.957333,6.20466725 39.025,6.088 C39.092667,5.97133275 39.1445832,5.85291727 39.18075,5.73275 C39.2169168,5.61258273 39.235,5.48600066 39.235,5.353 C39.235,5.23166606 39.2175002,5.12491713 39.1825,5.03275 C39.1474998,4.94058287 39.097917,4.86300031 39.03375,4.8 C38.969583,4.73699968 38.8925838,4.68975016 38.80275,4.65825 C38.7129162,4.62674984 38.6120006,4.611 38.5,4.611 C38.3973328,4.611 38.3022504,4.62558319 38.21475,4.65475 C38.1272496,4.68391681 38.049667,4.72474974 37.982,4.77725 C37.914333,4.82975026 37.8571669,4.89099965 37.8105,4.961 C37.7638331,5.03100035 37.7288334,5.10799958 37.7055,5.192 C37.6658331,5.29933387 37.6145003,5.37049982 37.5515,5.4055 C37.4884997,5.44050018 37.3975006,5.44866676 37.2785,5.43 L36.8235,5.3495 C36.8585002,5.10683212 36.9261662,4.89391758 37.0265,4.71075 C37.1268338,4.52758242 37.2522492,4.37475061 37.40275,4.25225 C37.5532508,4.12974939 37.7259157,4.03758364 37.92075,3.97575 C38.1155843,3.91391636 38.3249989,3.883 38.549,3.883 C38.7823345,3.883 38.9958324,3.91741632 39.1895,3.98625 C39.3831676,4.05508368 39.5488326,4.15249937 39.6865,4.2785 C39.8241674,4.40450063 39.9314996,4.55616578 40.0085,4.7335 C40.0855004,4.91083422 40.124,5.10799891 40.124,5.325 C40.124,5.5116676 40.0965836,5.68433254 40.04175,5.843 C39.9869164,6.00166746 39.9134171,6.15333261 39.82125,6.298 C39.7290829,6.44266739 39.6211673,6.58266599 39.4975,6.718 C39.3738327,6.85333401 39.244334,6.9909993 39.109,7.131 L37.968,8.2965 C38.0776672,8.26383317 38.1867495,8.23875009 38.29525,8.22125 C38.4037505,8.20374991 38.5069995,8.195 38.605,8.195 L39.9035,8.195 Z" id="2" fill="#FF9B10" fill-rule="nonzero"></path>
        <path d="M60.848,5.3495 C60.8830002,5.10683212 60.9506662,4.89391758 61.051,4.71075 C61.1513338,4.52758242 61.2767492,4.37475061 61.42725,4.25225 C61.5777508,4.12974939 61.7504157,4.03758364 61.94525,3.97575 C62.1400843,3.91391636 62.3494989,3.883 62.5735,3.883 C62.8068345,3.883 63.0174157,3.91624967 63.20525,3.98275 C63.3930843,4.04925033 63.5534993,4.14141608 63.6865,4.25925 C63.8195007,4.37708392 63.921583,4.51533254 63.99275,4.674 C64.063917,4.83266746 64.0995,5.00416574 64.0995,5.1885 C64.0995,5.3495008 64.0814168,5.49124939 64.04525,5.61375 C64.0090832,5.73625061 63.957167,5.84299954 63.8895,5.934 C63.821833,6.02500045 63.7378338,6.10199969 63.6375,6.165 C63.5371662,6.22800032 63.4240006,6.28049979 63.298,6.3225 C63.6013349,6.41816714 63.8276659,6.56399902 63.977,6.76 C64.1263341,6.95600098 64.201,7.20216519 64.201,7.4985 C64.201,7.75050126 64.1543338,7.97333237 64.061,8.167 C63.9676662,8.36066764 63.8416675,8.52341601 63.683,8.65525 C63.5243325,8.78708399 63.3405844,8.88683299 63.13175,8.9545 C62.9229156,9.02216701 62.7018345,9.056 62.4685,9.056 C62.2141654,9.056 61.9925009,9.02683363 61.8035,8.9685 C61.6144991,8.91016637 61.4500007,8.82383391 61.31,8.7095 C61.1699993,8.59516609 61.0510005,8.45516749 60.953,8.2895 C60.8549995,8.1238325 60.7710004,7.93250109 60.701,7.7155 L61.0825,7.558 C61.1828338,7.51599979 61.2767496,7.50491657 61.36425,7.52475 C61.4517504,7.54458343 61.5153331,7.59183296 61.555,7.6665 C61.5970002,7.74816707 61.6430831,7.82866627 61.69325,7.908 C61.7434169,7.98733373 61.8034996,8.05791636 61.8735,8.11975 C61.9435004,8.18158364 62.0257495,8.23174981 62.12025,8.27025 C62.2147505,8.30875019 62.3273327,8.328 62.458,8.328 C62.6050007,8.328 62.7333328,8.30408357 62.843,8.25625 C62.9526672,8.20841643 63.0442496,8.14600039 63.11775,8.069 C63.1912504,7.99199962 63.2460832,7.90625047 63.28225,7.81175 C63.3184168,7.71724953 63.3365,7.62216715 63.3365,7.5265 C63.3365,7.40516606 63.3236668,7.29491716 63.298,7.19575 C63.2723332,7.09658284 63.2186671,7.01200035 63.137,6.942 C63.0553329,6.87199965 62.9380841,6.81716687 62.78525,6.7775 C62.6324159,6.73783313 62.427668,6.718 62.171,6.718 L62.171,6.102 C62.3833344,6.09966666 62.5594993,6.07983352 62.6995,6.0425 C62.8395007,6.00516648 62.9509163,5.95325033 63.03375,5.88675 C63.1165837,5.82024967 63.1743332,5.7403338 63.207,5.647 C63.2396668,5.5536662 63.256,5.45100056 63.256,5.339 C63.256,5.10099881 63.1895007,4.92016728 63.0565,4.7965 C62.9234993,4.67283272 62.7461678,4.611 62.5245,4.611 C62.4218328,4.611 62.3273338,4.62558319 62.241,4.65475 C62.1546662,4.68391681 62.0770837,4.72474974 62.00825,4.77725 C61.9394163,4.82975026 61.8816669,4.89099965 61.835,4.961 C61.7883331,5.03100035 61.7533334,5.10799958 61.73,5.192 C61.6903331,5.29933387 61.638417,5.37049982 61.57425,5.4055 C61.510083,5.44050018 61.4196673,5.44866676 61.303,5.43 L60.848,5.3495 Z" id="3" fill="#FF9B10" fill-rule="nonzero"></path>
        <path d="M15.0925,34.3525 L15.0925,35 L12.2925,35 L12.2925,34.3525 L13.318,34.3525 L13.318,31.402 C13.318,31.2853328 13.3215,31.1651673 13.3285,31.0415 L12.6005,31.6505 C12.5584998,31.6831668 12.5170835,31.7035833 12.47625,31.71175 C12.4354165,31.7199167 12.3969168,31.7205 12.36075,31.7135 C12.3245832,31.7065 12.2925001,31.6942501 12.2645,31.67675 C12.2364999,31.6592499 12.2155001,31.6400001 12.2015,31.619 L11.9285,31.2445 L13.472,29.932 L14.1825,29.932 L14.1825,34.3525 L15.0925,34.3525 Z" id="1" fill="#FF9B10" fill-rule="nonzero"></path>
        <path d="M39.9035,34.195 C39.9968338,34.195 40.0709164,34.2212497 40.12575,34.27375 C40.1805836,34.3262503 40.208,34.3956662 40.208,34.482 L40.208,35 L36.736,35 L36.736,34.713 C36.736,34.6546664 36.7482499,34.593417 36.77275,34.52925 C36.7972501,34.465083 36.8363331,34.4073336 36.89,34.356 L38.4265,32.816 C38.554834,32.6853327 38.6697495,32.5605006 38.77125,32.4415 C38.8727505,32.3224994 38.957333,32.2046672 39.025,32.088 C39.092667,31.9713328 39.1445832,31.8529173 39.18075,31.73275 C39.2169168,31.6125827 39.235,31.4860007 39.235,31.353 C39.235,31.2316661 39.2175002,31.1249171 39.1825,31.03275 C39.1474998,30.9405829 39.097917,30.8630003 39.03375,30.8 C38.969583,30.7369997 38.8925838,30.6897502 38.80275,30.65825 C38.7129162,30.6267498 38.6120006,30.611 38.5,30.611 C38.3973328,30.611 38.3022504,30.6255832 38.21475,30.65475 C38.1272496,30.6839168 38.049667,30.7247497 37.982,30.77725 C37.914333,30.8297503 37.8571669,30.8909996 37.8105,30.961 C37.7638331,31.0310003 37.7288334,31.1079996 37.7055,31.192 C37.6658331,31.2993339 37.6145003,31.3704998 37.5515,31.4055 C37.4884997,31.4405002 37.3975006,31.4486668 37.2785,31.43 L36.8235,31.3495 C36.8585002,31.1068321 36.9261662,30.8939176 37.0265,30.71075 C37.1268338,30.5275824 37.2522492,30.3747506 37.40275,30.25225 C37.5532508,30.1297494 37.7259157,30.0375836 37.92075,29.97575 C38.1155843,29.9139164 38.3249989,29.883 38.549,29.883 C38.7823345,29.883 38.9958324,29.9174163 39.1895,29.98625 C39.3831676,30.0550837 39.5488326,30.1524994 39.6865,30.2785 C39.8241674,30.4045006 39.9314996,30.5561658 40.0085,30.7335 C40.0855004,30.9108342 40.124,31.1079989 40.124,31.325 C40.124,31.5116676 40.0965836,31.6843325 40.04175,31.843 C39.9869164,32.0016675 39.9134171,32.1533326 39.82125,32.298 C39.7290829,32.4426674 39.6211673,32.582666 39.4975,32.718 C39.3738327,32.853334 39.244334,32.9909993 39.109,33.131 L37.968,34.2965 C38.0776672,34.2638332 38.1867495,34.2387501 38.29525,34.22125 C38.4037505,34.2037499 38.5069995,34.195 38.605,34.195 L39.9035,34.195 Z" id="2" fill="#FF9B10" fill-rule="nonzero"></path>
        <path d="M60.848,31.3495 C60.8830002,31.1068321 60.9506662,30.8939176 61.051,30.71075 C61.1513338,30.5275824 61.2767492,30.3747506 61.42725,30.25225 C61.5777508,30.1297494 61.7504157,30.0375836 61.94525,29.97575 C62.1400843,29.9139164 62.3494989,29.883 62.5735,29.883 C62.8068345,29.883 63.0174157,29.9162497 63.20525,29.98275 C63.3930843,30.0492503 63.5534993,30.1414161 63.6865,30.25925 C63.8195007,30.3770839 63.921583,30.5153325 63.99275,30.674 C64.063917,30.8326675 64.0995,31.0041657 64.0995,31.1885 C64.0995,31.3495008 64.0814168,31.4912494 64.04525,31.61375 C64.0090832,31.7362506 63.957167,31.8429995 63.8895,31.934 C63.821833,32.0250005 63.7378338,32.1019997 63.6375,32.165 C63.5371662,32.2280003 63.4240006,32.2804998 63.298,32.3225 C63.6013349,32.4181671 63.8276659,32.563999 63.977,32.76 C64.1263341,32.956001 64.201,33.2021652 64.201,33.4985 C64.201,33.7505013 64.1543338,33.9733324 64.061,34.167 C63.9676662,34.3606676 63.8416675,34.523416 63.683,34.65525 C63.5243325,34.787084 63.3405844,34.886833 63.13175,34.9545 C62.9229156,35.022167 62.7018345,35.056 62.4685,35.056 C62.2141654,35.056 61.9925009,35.0268336 61.8035,34.9685 C61.6144991,34.9101664 61.4500007,34.8238339 61.31,34.7095 C61.1699993,34.5951661 61.0510005,34.4551675 60.953,34.2895 C60.8549995,34.1238325 60.7710004,33.9325011 60.701,33.7155 L61.0825,33.558 C61.1828338,33.5159998 61.2767496,33.5049166 61.36425,33.52475 C61.4517504,33.5445834 61.5153331,33.591833 61.555,33.6665 C61.5970002,33.7481671 61.6430831,33.8286663 61.69325,33.908 C61.7434169,33.9873337 61.8034996,34.0579164 61.8735,34.11975 C61.9435004,34.1815836 62.0257495,34.2317498 62.12025,34.27025 C62.2147505,34.3087502 62.3273327,34.328 62.458,34.328 C62.6050007,34.328 62.7333328,34.3040836 62.843,34.25625 C62.9526672,34.2084164 63.0442496,34.1460004 63.11775,34.069 C63.1912504,33.9919996 63.2460832,33.9062505 63.28225,33.81175 C63.3184168,33.7172495 63.3365,33.6221671 63.3365,33.5265 C63.3365,33.4051661 63.3236668,33.2949172 63.298,33.19575 C63.2723332,33.0965828 63.2186671,33.0120004 63.137,32.942 C63.0553329,32.8719996 62.9380841,32.8171669 62.78525,32.7775 C62.6324159,32.7378331 62.427668,32.718 62.171,32.718 L62.171,32.102 C62.3833344,32.0996667 62.5594993,32.0798335 62.6995,32.0425 C62.8395007,32.0051665 62.9509163,31.9532503 63.03375,31.88675 C63.1165837,31.8202497 63.1743332,31.7403338 63.207,31.647 C63.2396668,31.5536662 63.256,31.4510006 63.256,31.339 C63.256,31.1009988 63.1895007,30.9201673 63.0565,30.7965 C62.9234993,30.6728327 62.7461678,30.611 62.5245,30.611 C62.4218328,30.611 62.3273338,30.6255832 62.241,30.65475 C62.1546662,30.6839168 62.0770837,30.7247497 62.00825,30.77725 C61.9394163,30.8297503 61.8816669,30.8909996 61.835,30.961 C61.7883331,31.0310003 61.7533334,31.1079996 61.73,31.192 C61.6903331,31.2993339 61.638417,31.3704998 61.57425,31.4055 C61.510083,31.4405002 61.4196673,31.4486668 61.303,31.43 L60.848,31.3495 Z" id="3" fill="#000000" fill-rule="nonzero"></path>
    </g>
</svg>