<svg width="32" height="24" viewBox="0 0 32 24" fill="none" xmlns="http://www.w3.org/2000/svg">
<path d="M0.559998 3.5C0.559998 1.84315 1.90314 0.5 3.56 0.5H27.56C29.2169 0.5 30.56 1.84315 30.56 3.5V8.5C30.56 10.1569 29.2169 11.5 27.56 11.5H3.56C1.90314 11.5 0.559998 10.1569 0.559998 8.5V3.5Z" fill="#E3E3E3"/>
<path d="M10.0867 3.612C10.0867 3.73467 10.0521 3.84667 9.98275 3.948L7.01475 8.14H10.0187V9H5.61875V8.576C5.61875 8.52267 5.62808 8.472 5.64675 8.424C5.66541 8.37333 5.68941 8.32667 5.71875 8.284L8.69475 4.072H5.80675V3.216H10.0867V3.612ZM12.3146 4.832C12.6186 4.832 12.8946 4.88133 13.1426 4.98C13.3933 5.07867 13.6066 5.21867 13.7826 5.4C13.9613 5.58133 14.0986 5.80267 14.1946 6.064C14.2906 6.32533 14.3386 6.61733 14.3386 6.94C14.3386 7.26533 14.2906 7.55867 14.1946 7.82C14.0986 8.08133 13.9613 8.304 13.7826 8.488C13.6066 8.672 13.3933 8.81333 13.1426 8.912C12.8946 9.01067 12.6186 9.06 12.3146 9.06C12.008 9.06 11.7293 9.01067 11.4786 8.912C11.228 8.81333 11.0133 8.672 10.8346 8.488C10.6586 8.304 10.5213 8.08133 10.4226 7.82C10.3266 7.55867 10.2786 7.26533 10.2786 6.94C10.2786 6.61733 10.3266 6.32533 10.4226 6.064C10.5213 5.80267 10.6586 5.58133 10.8346 5.4C11.0133 5.21867 11.228 5.07867 11.4786 4.98C11.7293 4.88133 12.008 4.832 12.3146 4.832ZM12.3146 8.3C12.656 8.3 12.908 8.18533 13.0706 7.956C13.236 7.72667 13.3186 7.39067 13.3186 6.948C13.3186 6.50533 13.236 6.168 13.0706 5.936C12.908 5.704 12.656 5.588 12.3146 5.588C11.968 5.588 11.7106 5.70533 11.5426 5.94C11.3773 6.172 11.2946 6.508 11.2946 6.948C11.2946 7.388 11.3773 7.724 11.5426 7.956C11.7106 8.18533 11.968 8.3 12.3146 8.3ZM16.7884 4.832C17.0924 4.832 17.3684 4.88133 17.6164 4.98C17.867 5.07867 18.0804 5.21867 18.2564 5.4C18.435 5.58133 18.5724 5.80267 18.6684 6.064C18.7644 6.32533 18.8124 6.61733 18.8124 6.94C18.8124 7.26533 18.7644 7.55867 18.6684 7.82C18.5724 8.08133 18.435 8.304 18.2564 8.488C18.0804 8.672 17.867 8.81333 17.6164 8.912C17.3684 9.01067 17.0924 9.06 16.7884 9.06C16.4817 9.06 16.203 9.01067 15.9524 8.912C15.7017 8.81333 15.487 8.672 15.3084 8.488C15.1324 8.304 14.995 8.08133 14.8964 7.82C14.8004 7.55867 14.7524 7.26533 14.7524 6.94C14.7524 6.61733 14.8004 6.32533 14.8964 6.064C14.995 5.80267 15.1324 5.58133 15.3084 5.4C15.487 5.21867 15.7017 5.07867 15.9524 4.98C16.203 4.88133 16.4817 4.832 16.7884 4.832ZM16.7884 8.3C17.1297 8.3 17.3817 8.18533 17.5444 7.956C17.7097 7.72667 17.7924 7.39067 17.7924 6.948C17.7924 6.50533 17.7097 6.168 17.5444 5.936C17.3817 5.704 17.1297 5.588 16.7884 5.588C16.4417 5.588 16.1844 5.70533 16.0164 5.94C15.851 6.172 15.7684 6.508 15.7684 6.948C15.7684 7.388 15.851 7.724 16.0164 7.956C16.1844 8.18533 16.4417 8.3 16.7884 8.3ZM19.4461 9V4.896H20.0501C20.1781 4.896 20.2621 4.956 20.3021 5.076L20.3661 5.38C20.4381 5.3 20.5128 5.22667 20.5901 5.16C20.6701 5.09333 20.7541 5.036 20.8421 4.988C20.9328 4.94 21.0288 4.90267 21.1301 4.876C21.2341 4.84667 21.3475 4.832 21.4701 4.832C21.7288 4.832 21.9408 4.90267 22.1061 5.044C22.2741 5.18267 22.3995 5.368 22.4821 5.6C22.5461 5.464 22.6261 5.348 22.7221 5.252C22.8181 5.15333 22.9235 5.07333 23.0381 5.012C23.1528 4.95067 23.2741 4.90533 23.4021 4.876C23.5328 4.84667 23.6635 4.832 23.7941 4.832C24.0208 4.832 24.2221 4.86667 24.3981 4.936C24.5741 5.00533 24.7221 5.10667 24.8421 5.24C24.9621 5.37333 25.0528 5.536 25.1141 5.728C25.1781 5.92 25.2101 6.14 25.2101 6.388V9H24.2221V6.388C24.2221 6.12667 24.1648 5.93067 24.0501 5.8C23.9355 5.66667 23.7675 5.6 23.5461 5.6C23.4448 5.6 23.3501 5.61733 23.2621 5.652C23.1768 5.68667 23.1008 5.73733 23.0341 5.804C22.9701 5.868 22.9195 5.94933 22.8821 6.048C22.8448 6.14667 22.8261 6.26 22.8261 6.388V9H21.8341V6.388C21.8341 6.11333 21.7781 5.91333 21.6661 5.788C21.5568 5.66267 21.3955 5.6 21.1821 5.6C21.0381 5.6 20.9035 5.636 20.7781 5.708C20.6555 5.77733 20.5408 5.87333 20.4341 5.996V9H19.4461Z" fill="black"/>
<path d="M3.56 1H27.56V0H3.56V1ZM30.06 3.5V8.5H31.06V3.5H30.06ZM27.56 11H3.56V12H27.56V11ZM1.06 8.5V3.5H0.0599976V8.5H1.06ZM3.56 11C2.17929 11 1.06 9.88071 1.06 8.5H0.0599976C0.0599976 10.433 1.627 12 3.56 12V11ZM30.06 8.5C30.06 9.88071 28.9407 11 27.56 11V12C29.493 12 31.06 10.433 31.06 8.5H30.06ZM27.56 1C28.9407 1 30.06 2.11929 30.06 3.5H31.06C31.06 1.567 29.493 0 27.56 0V1ZM3.56 0C1.627 0 0.0599976 1.567 0.0599976 3.5H1.06C1.06 2.11929 2.17929 1 3.56 1V0Z" fill="#979797"/>
<path d="M0.560059 15.5C0.560059 13.8431 1.9032 12.5 3.56006 12.5H27.5601C29.2169 12.5 30.5601 13.8431 30.5601 15.5V20.5C30.5601 22.1569 29.2169 23.5 27.5601 23.5H3.56006C1.90321 23.5 0.560059 22.1569 0.560059 20.5V15.5Z" fill="#E3E3E3"/>
<rect x="2.56006" y="14.5" width="26" height="7" rx="1" fill="#FF9300"/>
<rect x="2.56006" y="14.5" width="26" height="7" rx="1" stroke="#FF9300"/>
<path d="M10.0868 15.612C10.0868 15.7347 10.0521 15.8467 9.98281 15.948L7.01481 20.14H10.0188V21H5.61881V20.576C5.61881 20.5227 5.62814 20.472 5.64681 20.424C5.66548 20.3733 5.68948 20.3267 5.71881 20.284L8.69481 16.072H5.80681V15.216H10.0868V15.612ZM12.3147 16.832C12.6187 16.832 12.8947 16.8813 13.1427 16.98C13.3934 17.0787 13.6067 17.2187 13.7827 17.4C13.9614 17.5813 14.0987 17.8027 14.1947 18.064C14.2907 18.3253 14.3387 18.6173 14.3387 18.94C14.3387 19.2653 14.2907 19.5587 14.1947 19.82C14.0987 20.0813 13.9614 20.304 13.7827 20.488C13.6067 20.672 13.3934 20.8133 13.1427 20.912C12.8947 21.0107 12.6187 21.06 12.3147 21.06C12.008 21.06 11.7294 21.0107 11.4787 20.912C11.228 20.8133 11.0134 20.672 10.8347 20.488C10.6587 20.304 10.5214 20.0813 10.4227 19.82C10.3267 19.5587 10.2787 19.2653 10.2787 18.94C10.2787 18.6173 10.3267 18.3253 10.4227 18.064C10.5214 17.8027 10.6587 17.5813 10.8347 17.4C11.0134 17.2187 11.228 17.0787 11.4787 16.98C11.7294 16.8813 12.008 16.832 12.3147 16.832ZM12.3147 20.3C12.656 20.3 12.908 20.1853 13.0707 19.956C13.236 19.7267 13.3187 19.3907 13.3187 18.948C13.3187 18.5053 13.236 18.168 13.0707 17.936C12.908 17.704 12.656 17.588 12.3147 17.588C11.968 17.588 11.7107 17.7053 11.5427 17.94C11.3774 18.172 11.2947 18.508 11.2947 18.948C11.2947 19.388 11.3774 19.724 11.5427 19.956C11.7107 20.1853 11.968 20.3 12.3147 20.3ZM16.7884 16.832C17.0924 16.832 17.3684 16.8813 17.6164 16.98C17.8671 17.0787 18.0804 17.2187 18.2564 17.4C18.4351 17.5813 18.5724 17.8027 18.6684 18.064C18.7644 18.3253 18.8124 18.6173 18.8124 18.94C18.8124 19.2653 18.7644 19.5587 18.6684 19.82C18.5724 20.0813 18.4351 20.304 18.2564 20.488C18.0804 20.672 17.8671 20.8133 17.6164 20.912C17.3684 21.0107 17.0924 21.06 16.7884 21.06C16.4818 21.06 16.2031 21.0107 15.9524 20.912C15.7018 20.8133 15.4871 20.672 15.3084 20.488C15.1324 20.304 14.9951 20.0813 14.8964 19.82C14.8004 19.5587 14.7524 19.2653 14.7524 18.94C14.7524 18.6173 14.8004 18.3253 14.8964 18.064C14.9951 17.8027 15.1324 17.5813 15.3084 17.4C15.4871 17.2187 15.7018 17.0787 15.9524 16.98C16.2031 16.8813 16.4818 16.832 16.7884 16.832ZM16.7884 20.3C17.1298 20.3 17.3818 20.1853 17.5444 19.956C17.7098 19.7267 17.7924 19.3907 17.7924 18.948C17.7924 18.5053 17.7098 18.168 17.5444 17.936C17.3818 17.704 17.1298 17.588 16.7884 17.588C16.4418 17.588 16.1844 17.7053 16.0164 17.94C15.8511 18.172 15.7684 18.508 15.7684 18.948C15.7684 19.388 15.8511 19.724 16.0164 19.956C16.1844 20.1853 16.4418 20.3 16.7884 20.3ZM19.4462 21V16.896H20.0502C20.1782 16.896 20.2622 16.956 20.3022 17.076L20.3662 17.38C20.4382 17.3 20.5129 17.2267 20.5902 17.16C20.6702 17.0933 20.7542 17.036 20.8422 16.988C20.9329 16.94 21.0289 16.9027 21.1302 16.876C21.2342 16.8467 21.3475 16.832 21.4702 16.832C21.7289 16.832 21.9409 16.9027 22.1062 17.044C22.2742 17.1827 22.3995 17.368 22.4822 17.6C22.5462 17.464 22.6262 17.348 22.7222 17.252C22.8182 17.1533 22.9235 17.0733 23.0382 17.012C23.1529 16.9507 23.2742 16.9053 23.4022 16.876C23.5329 16.8467 23.6635 16.832 23.7942 16.832C24.0209 16.832 24.2222 16.8667 24.3982 16.936C24.5742 17.0053 24.7222 17.1067 24.8422 17.24C24.9622 17.3733 25.0529 17.536 25.1142 17.728C25.1782 17.92 25.2102 18.14 25.2102 18.388V21H24.2222V18.388C24.2222 18.1267 24.1649 17.9307 24.0502 17.8C23.9355 17.6667 23.7675 17.6 23.5462 17.6C23.4449 17.6 23.3502 17.6173 23.2622 17.652C23.1769 17.6867 23.1009 17.7373 23.0342 17.804C22.9702 17.868 22.9195 17.9493 22.8822 18.048C22.8449 18.1467 22.8262 18.26 22.8262 18.388V21H21.8342V18.388C21.8342 18.1133 21.7782 17.9133 21.6662 17.788C21.5569 17.6627 21.3955 17.6 21.1822 17.6C21.0382 17.6 20.9035 17.636 20.7782 17.708C20.6555 17.7773 20.5409 17.8733 20.4342 17.996V21H19.4462Z" fill="black"/>
<path d="M3.56006 13H27.5601V12H3.56006V13ZM30.0601 15.5V20.5H31.0601V15.5H30.0601ZM27.5601 23H3.56006V24H27.5601V23ZM1.06006 20.5V15.5H0.0600586V20.5H1.06006ZM3.56006 23C2.17935 23 1.06006 21.8807 1.06006 20.5H0.0600586C0.0600586 22.433 1.62706 24 3.56006 24V23ZM30.0601 20.5C30.0601 21.8807 28.9408 23 27.5601 23V24C29.4931 24 31.0601 22.433 31.0601 20.5H30.0601ZM27.5601 13C28.9408 13 30.0601 14.1193 30.0601 15.5H31.0601C31.0601 13.567 29.4931 12 27.5601 12V13ZM3.56006 12C1.62706 12 0.0600586 13.567 0.0600586 15.5H1.06006C1.06006 14.1193 2.17935 13 3.56006 13V12Z" fill="#979797"/>
</svg>
