<svg width="135" height="36" viewBox="0 0 135 36" fill="none" xmlns="http://www.w3.org/2000/svg">
<path d="M0.5 3.5C0.5 1.84315 1.84315 0.5 3.5 0.5H131.5C133.157 0.5 134.5 1.84315 134.5 3.5V8.5C134.5 10.1569 133.157 11.5 131.5 11.5H3.5C1.84314 11.5 0.5 10.1569 0.5 8.5V3.5Z" fill="#E3E3E3"/>
<path d="M2 5C2 3.34315 3.34315 2 5 2H41C42.6569 2 44 3.34315 44 5V7C44 8.65685 42.6569 10 41 10H5C3.34315 10 2 8.65685 2 7V5Z" fill="#FF9300"/>
<path d="M20.508 3.216L18.712 9H17.74L16.476 5.048C16.4413 4.952 16.4093 4.83467 16.38 4.696C16.364 4.76267 16.348 4.82533 16.332 4.884C16.316 4.94267 16.2986 4.99733 16.28 5.048L15.004 9H14.028L12.236 3.216H13.136C13.2293 3.216 13.3066 3.23867 13.368 3.284C13.432 3.32667 13.4746 3.38533 13.496 3.46L14.48 6.92C14.5013 7.00533 14.5213 7.09867 14.54 7.2C14.5613 7.29867 14.5826 7.40267 14.604 7.512C14.6253 7.4 14.648 7.29467 14.672 7.196C14.6986 7.09733 14.7266 7.00533 14.756 6.92L15.892 3.46C15.9133 3.39867 15.9546 3.34267 16.016 3.292C16.08 3.24133 16.1573 3.216 16.248 3.216H16.564C16.6573 3.216 16.7333 3.23867 16.792 3.284C16.8506 3.32933 16.8946 3.388 16.924 3.46L18.056 6.92C18.112 7.08533 18.1626 7.276 18.208 7.492C18.2426 7.28133 18.2813 7.09067 18.324 6.92L19.308 3.46C19.324 3.39333 19.364 3.336 19.428 3.288C19.4946 3.24 19.5733 3.216 19.664 3.216H20.508ZM22.738 7.248C22.4527 7.26133 22.2127 7.28667 22.018 7.324C21.8234 7.35867 21.6674 7.404 21.55 7.46C21.4327 7.516 21.3487 7.58133 21.298 7.656C21.2474 7.73067 21.222 7.812 21.222 7.9C21.222 8.07333 21.2727 8.19733 21.374 8.272C21.478 8.34667 21.6127 8.384 21.778 8.384C21.9807 8.384 22.1554 8.348 22.302 8.276C22.4514 8.20133 22.5967 8.08933 22.738 7.94V7.248ZM20.474 5.468C20.946 5.036 21.514 4.82 22.178 4.82C22.418 4.82 22.6327 4.86 22.822 4.94C23.0114 5.01733 23.1714 5.12667 23.302 5.268C23.4327 5.40667 23.5314 5.57333 23.598 5.768C23.6674 5.96267 23.702 6.176 23.702 6.408V9H23.254C23.1607 9 23.0887 8.98667 23.038 8.96C22.9874 8.93067 22.9474 8.87333 22.918 8.788L22.83 8.492C22.726 8.58533 22.6247 8.668 22.526 8.74C22.4274 8.80933 22.3247 8.868 22.218 8.916C22.1114 8.964 21.9967 9 21.874 9.024C21.754 9.05067 21.6207 9.064 21.474 9.064C21.3007 9.064 21.1407 9.04133 20.994 8.996C20.8474 8.948 20.7207 8.87733 20.614 8.784C20.5074 8.69067 20.4247 8.57467 20.366 8.436C20.3074 8.29733 20.278 8.136 20.278 7.952C20.278 7.848 20.2954 7.74533 20.33 7.644C20.3647 7.54 20.4207 7.44133 20.498 7.348C20.578 7.25467 20.6807 7.16667 20.806 7.084C20.9314 7.00133 21.0847 6.92933 21.266 6.868C21.45 6.80667 21.6634 6.75733 21.906 6.72C22.1487 6.68 22.426 6.656 22.738 6.648V6.408C22.738 6.13333 22.6794 5.93067 22.562 5.8C22.4447 5.66667 22.2754 5.6 22.054 5.6C21.894 5.6 21.7607 5.61867 21.654 5.656C21.55 5.69333 21.458 5.736 21.378 5.784C21.298 5.82933 21.2247 5.87067 21.158 5.908C21.094 5.94533 21.022 5.964 20.942 5.964C20.8727 5.964 20.814 5.94667 20.766 5.912C20.718 5.87467 20.6794 5.832 20.65 5.784L20.474 5.468ZM25.5645 5.608C25.6925 5.36267 25.8445 5.17067 26.0205 5.032C26.1965 4.89067 26.4045 4.82 26.6445 4.82C26.8339 4.82 26.9859 4.86133 27.1005 4.944L27.0365 5.684C27.0232 5.732 27.0032 5.76667 26.9765 5.788C26.9525 5.80667 26.9192 5.816 26.8765 5.816C26.8365 5.816 26.7765 5.80933 26.6965 5.796C26.6192 5.78267 26.5432 5.776 26.4685 5.776C26.3592 5.776 26.2619 5.792 26.1765 5.824C26.0912 5.856 26.0139 5.90267 25.9445 5.964C25.8779 6.02267 25.8179 6.09467 25.7645 6.18C25.7139 6.26533 25.6659 6.36267 25.6205 6.472V9H24.6325V4.896H25.2125C25.3139 4.896 25.3845 4.91467 25.4245 4.952C25.4645 4.98667 25.4912 5.05067 25.5045 5.144L25.5645 5.608ZM27.6169 9V4.896H28.2209C28.3489 4.896 28.4329 4.956 28.4729 5.076L28.5369 5.38C28.6089 5.3 28.6836 5.22667 28.7609 5.16C28.8409 5.09333 28.9249 5.036 29.0129 4.988C29.1036 4.94 29.1996 4.90267 29.3009 4.876C29.4049 4.84667 29.5182 4.832 29.6409 4.832C29.8996 4.832 30.1116 4.90267 30.2769 5.044C30.4449 5.18267 30.5702 5.368 30.6529 5.6C30.7169 5.464 30.7969 5.348 30.8929 5.252C30.9889 5.15333 31.0942 5.07333 31.2089 5.012C31.3236 4.95067 31.4449 4.90533 31.5729 4.876C31.7036 4.84667 31.8342 4.832 31.9649 4.832C32.1916 4.832 32.3929 4.86667 32.5689 4.936C32.7449 5.00533 32.8929 5.10667 33.0129 5.24C33.1329 5.37333 33.2236 5.536 33.2849 5.728C33.3489 5.92 33.3809 6.14 33.3809 6.388V9H32.3929V6.388C32.3929 6.12667 32.3356 5.93067 32.2209 5.8C32.1062 5.66667 31.9382 5.6 31.7169 5.6C31.6156 5.6 31.5209 5.61733 31.4329 5.652C31.3476 5.68667 31.2716 5.73733 31.2049 5.804C31.1409 5.868 31.0902 5.94933 31.0529 6.048C31.0156 6.14667 30.9969 6.26 30.9969 6.388V9H30.0049V6.388C30.0049 6.11333 29.9489 5.91333 29.8369 5.788C29.7276 5.66267 29.5662 5.6 29.3529 5.6C29.2089 5.6 29.0742 5.636 28.9489 5.708C28.8262 5.77733 28.7116 5.87333 28.6049 5.996V9H27.6169Z" fill="black"/>
<g opacity="0.75">
<rect x="45" y="10" width="8" height="1" transform="rotate(-90 45 10)" fill="#979797"/>
</g>
<path d="M59.6294 3.216V9H59.0774C58.992 9 58.92 8.98667 58.8614 8.96C58.8054 8.93067 58.7507 8.88267 58.6974 8.816L55.6774 4.96C55.6934 5.136 55.7014 5.29867 55.7014 5.448V9H54.7534V3.216H55.3174C55.3627 3.216 55.4014 3.21867 55.4334 3.224C55.468 3.22667 55.4974 3.23467 55.5214 3.248C55.548 3.25867 55.5734 3.276 55.5974 3.3C55.6214 3.32133 55.648 3.35067 55.6774 3.388L58.7094 7.26C58.7014 7.16667 58.6947 7.07467 58.6894 6.984C58.684 6.89333 58.6814 6.80933 58.6814 6.732V3.216H59.6294ZM63.2804 6.476C63.2804 6.348 63.2618 6.228 63.2244 6.116C63.1898 6.00133 63.1364 5.90133 63.0644 5.816C62.9924 5.73067 62.9004 5.664 62.7884 5.616C62.6791 5.56533 62.5511 5.54 62.4044 5.54C62.1191 5.54 61.8938 5.62133 61.7284 5.784C61.5658 5.94667 61.4618 6.17733 61.4164 6.476H63.2804ZM61.3964 7.072C61.4124 7.28267 61.4498 7.46533 61.5084 7.62C61.5671 7.772 61.6444 7.89867 61.7404 8C61.8364 8.09867 61.9498 8.17333 62.0804 8.224C62.2138 8.272 62.3604 8.296 62.5204 8.296C62.6804 8.296 62.8178 8.27733 62.9324 8.24C63.0498 8.20267 63.1511 8.16133 63.2364 8.116C63.3244 8.07067 63.4004 8.02933 63.4644 7.992C63.5311 7.95467 63.5951 7.936 63.6564 7.936C63.7391 7.936 63.8004 7.96667 63.8404 8.028L64.1244 8.388C64.0151 8.516 63.8924 8.624 63.7564 8.712C63.6204 8.79733 63.4778 8.86667 63.3284 8.92C63.1818 8.97067 63.0311 9.00667 62.8764 9.028C62.7244 9.04933 62.5764 9.06 62.4324 9.06C62.1471 9.06 61.8818 9.01333 61.6364 8.92C61.3911 8.824 61.1778 8.684 60.9964 8.5C60.8151 8.31333 60.6724 8.084 60.5684 7.812C60.4644 7.53733 60.4124 7.22 60.4124 6.86C60.4124 6.58 60.4578 6.31733 60.5484 6.072C60.6391 5.824 60.7684 5.60933 60.9364 5.428C61.1071 5.244 61.3138 5.09867 61.5564 4.992C61.8018 4.88533 62.0778 4.832 62.3844 4.832C62.6431 4.832 62.8818 4.87333 63.1004 4.956C63.3191 5.03867 63.5071 5.16 63.6644 5.32C63.8218 5.47733 63.9444 5.672 64.0324 5.904C64.1231 6.13333 64.1684 6.396 64.1684 6.692C64.1684 6.84133 64.1524 6.94267 64.1204 6.996C64.0884 7.04667 64.0271 7.072 63.9364 7.072H61.3964ZM68.4459 4.896V9H67.8419C67.7112 9 67.6285 8.94 67.5939 8.82L67.5259 8.492C67.3579 8.66267 67.1725 8.80133 66.9699 8.908C66.7672 9.012 66.5285 9.064 66.2539 9.064C66.0299 9.064 65.8312 9.02667 65.6579 8.952C65.4872 8.87467 65.3432 8.76667 65.2259 8.628C65.1085 8.48933 65.0192 8.32533 64.9579 8.136C64.8992 7.944 64.8699 7.73333 64.8699 7.504V4.896H65.8579V7.504C65.8579 7.75467 65.9152 7.94933 66.0299 8.088C66.1472 8.224 66.3219 8.292 66.5539 8.292C66.7245 8.292 66.8845 8.25467 67.0339 8.18C67.1832 8.10267 67.3245 7.99733 67.4579 7.864V4.896H68.4459ZM70.7935 9.064C70.4362 9.064 70.1615 8.964 69.9695 8.764C69.7802 8.56133 69.6855 8.28267 69.6855 7.928V5.636H69.2655C69.2122 5.636 69.1668 5.61867 69.1295 5.584C69.0922 5.54933 69.0735 5.49733 69.0735 5.428V5.036L69.7335 4.928L69.9415 3.808C69.9548 3.75467 69.9802 3.71333 70.0175 3.684C70.0548 3.65467 70.1028 3.64 70.1615 3.64H70.6735V4.932H71.7695V5.636H70.6735V7.86C70.6735 7.988 70.7042 8.088 70.7655 8.16C70.8295 8.232 70.9162 8.268 71.0255 8.268C71.0868 8.268 71.1375 8.26133 71.1775 8.248C71.2202 8.232 71.2562 8.216 71.2855 8.2C71.3175 8.184 71.3455 8.16933 71.3695 8.156C71.3935 8.14 71.4175 8.132 71.4415 8.132C71.4708 8.132 71.4948 8.14 71.5135 8.156C71.5322 8.16933 71.5522 8.19067 71.5735 8.22L71.8695 8.7C71.7255 8.82 71.5602 8.91067 71.3735 8.972C71.1868 9.03333 70.9935 9.064 70.7935 9.064ZM73.3341 5.608C73.4621 5.36267 73.6141 5.17067 73.7901 5.032C73.9661 4.89067 74.1741 4.82 74.4141 4.82C74.6034 4.82 74.7554 4.86133 74.8701 4.944L74.8061 5.684C74.7927 5.732 74.7727 5.76667 74.7461 5.788C74.7221 5.80667 74.6887 5.816 74.6461 5.816C74.6061 5.816 74.5461 5.80933 74.4661 5.796C74.3887 5.78267 74.3127 5.776 74.2381 5.776C74.1287 5.776 74.0314 5.792 73.9461 5.824C73.8607 5.856 73.7834 5.90267 73.7141 5.964C73.6474 6.02267 73.5874 6.09467 73.5341 6.18C73.4834 6.26533 73.4354 6.36267 73.3901 6.472V9H72.4021V4.896H72.9821C73.0834 4.896 73.1541 4.91467 73.1941 4.952C73.2341 4.98667 73.2607 5.05067 73.2741 5.144L73.3341 5.608ZM77.4998 7.248C77.2144 7.26133 76.9744 7.28667 76.7798 7.324C76.5851 7.35867 76.4291 7.404 76.3118 7.46C76.1944 7.516 76.1104 7.58133 76.0598 7.656C76.0091 7.73067 75.9838 7.812 75.9838 7.9C75.9838 8.07333 76.0344 8.19733 76.1358 8.272C76.2398 8.34667 76.3744 8.384 76.5398 8.384C76.7424 8.384 76.9171 8.348 77.0638 8.276C77.2131 8.20133 77.3584 8.08933 77.4998 7.94V7.248ZM75.2358 5.468C75.7078 5.036 76.2758 4.82 76.9398 4.82C77.1798 4.82 77.3944 4.86 77.5838 4.94C77.7731 5.01733 77.9331 5.12667 78.0638 5.268C78.1944 5.40667 78.2931 5.57333 78.3598 5.768C78.4291 5.96267 78.4638 6.176 78.4638 6.408V9H78.0158C77.9224 9 77.8504 8.98667 77.7998 8.96C77.7491 8.93067 77.7091 8.87333 77.6798 8.788L77.5918 8.492C77.4878 8.58533 77.3864 8.668 77.2878 8.74C77.1891 8.80933 77.0864 8.868 76.9798 8.916C76.8731 8.964 76.7584 9 76.6358 9.024C76.5158 9.05067 76.3824 9.064 76.2358 9.064C76.0624 9.064 75.9024 9.04133 75.7558 8.996C75.6091 8.948 75.4824 8.87733 75.3758 8.784C75.2691 8.69067 75.1864 8.57467 75.1278 8.436C75.0691 8.29733 75.0398 8.136 75.0398 7.952C75.0398 7.848 75.0571 7.74533 75.0918 7.644C75.1264 7.54 75.1824 7.44133 75.2598 7.348C75.3398 7.25467 75.4424 7.16667 75.5678 7.084C75.6931 7.00133 75.8464 6.92933 76.0278 6.868C76.2118 6.80667 76.4251 6.75733 76.6678 6.72C76.9104 6.68 77.1878 6.656 77.4998 6.648V6.408C77.4998 6.13333 77.4411 5.93067 77.3238 5.8C77.2064 5.66667 77.0371 5.6 76.8158 5.6C76.6558 5.6 76.5224 5.61867 76.4158 5.656C76.3118 5.69333 76.2198 5.736 76.1398 5.784C76.0598 5.82933 75.9864 5.87067 75.9198 5.908C75.8558 5.94533 75.7838 5.964 75.7038 5.964C75.6344 5.964 75.5758 5.94667 75.5278 5.912C75.4798 5.87467 75.4411 5.832 75.4118 5.784L75.2358 5.468ZM80.3943 3.056V9H79.4062V3.056H80.3943Z" fill="black"/>
<g opacity="0.75">
<rect x="89" y="10" width="8" height="1" transform="rotate(-90 89 10)" fill="#979797"/>
</g>
<path d="M103.874 8.16C104.074 8.16 104.242 8.136 104.378 8.088C104.514 8.04 104.622 7.976 104.702 7.896C104.785 7.816 104.844 7.72267 104.878 7.616C104.916 7.50933 104.934 7.396 104.934 7.276C104.934 7.15067 104.914 7.03867 104.874 6.94C104.834 6.83867 104.772 6.75333 104.686 6.684C104.601 6.612 104.49 6.55733 104.354 6.52C104.221 6.48267 104.06 6.464 103.87 6.464H102.786V8.16H103.874ZM102.786 4.048V5.72H103.642C104.01 5.72 104.288 5.65333 104.474 5.52C104.664 5.38667 104.758 5.17467 104.758 4.884C104.758 4.58267 104.673 4.368 104.502 4.24C104.332 4.112 104.065 4.048 103.702 4.048H102.786ZM103.702 3.216C104.081 3.216 104.405 3.252 104.674 3.324C104.944 3.396 105.164 3.49867 105.334 3.632C105.508 3.76533 105.634 3.92667 105.714 4.116C105.794 4.30533 105.834 4.51867 105.834 4.756C105.834 4.892 105.814 5.02267 105.774 5.148C105.734 5.27067 105.672 5.38667 105.586 5.496C105.504 5.60267 105.397 5.7 105.266 5.788C105.138 5.876 104.985 5.95067 104.806 6.012C105.601 6.19067 105.998 6.62 105.998 7.3C105.998 7.54533 105.952 7.772 105.858 7.98C105.765 8.188 105.629 8.368 105.45 8.52C105.272 8.66933 105.052 8.78667 104.79 8.872C104.529 8.95733 104.23 9 103.894 9H101.71V3.216H103.702ZM107.674 5.608C107.802 5.36267 107.954 5.17067 108.13 5.032C108.306 4.89067 108.514 4.82 108.754 4.82C108.943 4.82 109.095 4.86133 109.21 4.944L109.146 5.684C109.133 5.732 109.113 5.76667 109.086 5.788C109.062 5.80667 109.029 5.816 108.986 5.816C108.946 5.816 108.886 5.80933 108.806 5.796C108.729 5.78267 108.653 5.776 108.578 5.776C108.469 5.776 108.371 5.792 108.286 5.824C108.201 5.856 108.123 5.90267 108.054 5.964C107.987 6.02267 107.927 6.09467 107.874 6.18C107.823 6.26533 107.775 6.36267 107.73 6.472V9H106.742V4.896H107.322C107.423 4.896 107.494 4.91467 107.534 4.952C107.574 4.98667 107.601 5.05067 107.614 5.144L107.674 5.608ZM110.75 4.896V9H109.758V4.896H110.75ZM110.886 3.7C110.886 3.78533 110.869 3.86533 110.834 3.94C110.8 4.01467 110.753 4.08 110.694 4.136C110.638 4.192 110.572 4.23733 110.494 4.272C110.417 4.304 110.334 4.32 110.246 4.32C110.161 4.32 110.08 4.304 110.002 4.272C109.928 4.23733 109.862 4.192 109.806 4.136C109.75 4.08 109.705 4.01467 109.67 3.94C109.638 3.86533 109.622 3.78533 109.622 3.7C109.622 3.612 109.638 3.52933 109.67 3.452C109.705 3.37467 109.75 3.308 109.806 3.252C109.862 3.196 109.928 3.152 110.002 3.12C110.08 3.08533 110.161 3.068 110.246 3.068C110.334 3.068 110.417 3.08533 110.494 3.12C110.572 3.152 110.638 3.196 110.694 3.252C110.753 3.308 110.8 3.37467 110.834 3.452C110.869 3.52933 110.886 3.612 110.886 3.7ZM113.258 6.848C113.38 6.848 113.487 6.832 113.578 6.8C113.668 6.76533 113.743 6.71867 113.802 6.66C113.863 6.60133 113.908 6.53067 113.938 6.448C113.97 6.36533 113.986 6.27467 113.986 6.176C113.986 5.97333 113.924 5.81333 113.802 5.696C113.682 5.576 113.5 5.516 113.258 5.516C113.015 5.516 112.832 5.576 112.71 5.696C112.59 5.81333 112.53 5.97333 112.53 6.176C112.53 6.272 112.544 6.36133 112.574 6.444C112.606 6.52667 112.651 6.59867 112.71 6.66C112.771 6.71867 112.847 6.76533 112.938 6.8C113.031 6.832 113.138 6.848 113.258 6.848ZM114.374 9.184C114.374 9.104 114.35 9.03867 114.302 8.988C114.254 8.93733 114.188 8.89867 114.106 8.872C114.023 8.84267 113.926 8.82133 113.814 8.808C113.704 8.79467 113.587 8.78533 113.462 8.78C113.339 8.772 113.211 8.76533 113.078 8.76C112.947 8.75467 112.819 8.744 112.694 8.728C112.584 8.78933 112.495 8.86133 112.426 8.944C112.359 9.02667 112.326 9.12267 112.326 9.232C112.326 9.304 112.343 9.37067 112.378 9.432C112.415 9.496 112.472 9.55067 112.55 9.596C112.63 9.64133 112.732 9.676 112.858 9.7C112.983 9.72667 113.136 9.74 113.318 9.74C113.502 9.74 113.66 9.72533 113.794 9.696C113.927 9.66933 114.036 9.63067 114.122 9.58C114.21 9.532 114.274 9.47333 114.314 9.404C114.354 9.33733 114.374 9.264 114.374 9.184ZM115.358 5.036V5.404C115.358 5.52133 115.287 5.59333 115.146 5.62L114.778 5.688C114.834 5.82933 114.862 5.984 114.862 6.152C114.862 6.35467 114.82 6.53867 114.738 6.704C114.658 6.86667 114.546 7.00533 114.402 7.12C114.258 7.23467 114.087 7.324 113.89 7.388C113.695 7.44933 113.484 7.48 113.258 7.48C113.178 7.48 113.1 7.476 113.026 7.468C112.951 7.46 112.878 7.44933 112.806 7.436C112.678 7.51333 112.614 7.6 112.614 7.696C112.614 7.77867 112.651 7.84 112.726 7.88C112.803 7.91733 112.904 7.944 113.03 7.96C113.155 7.976 113.298 7.98667 113.458 7.992C113.618 7.99467 113.782 8.00267 113.95 8.016C114.118 8.02933 114.282 8.05333 114.442 8.088C114.602 8.12 114.744 8.172 114.87 8.244C114.995 8.316 115.095 8.41467 115.17 8.54C115.247 8.66267 115.286 8.82133 115.286 9.016C115.286 9.19733 115.24 9.37333 115.15 9.544C115.062 9.71467 114.932 9.86667 114.762 10C114.594 10.1333 114.386 10.24 114.138 10.32C113.892 10.4027 113.612 10.444 113.298 10.444C112.988 10.444 112.719 10.4133 112.49 10.352C112.26 10.2933 112.07 10.2133 111.918 10.112C111.766 10.0133 111.652 9.89867 111.578 9.768C111.503 9.63733 111.466 9.50133 111.466 9.36C111.466 9.168 111.523 9.008 111.638 8.88C111.755 8.74933 111.915 8.64533 112.118 8.568C112.008 8.512 111.922 8.43733 111.858 8.344C111.794 8.25067 111.762 8.128 111.762 7.976C111.762 7.91467 111.772 7.852 111.794 7.788C111.818 7.72133 111.851 7.656 111.894 7.592C111.939 7.528 111.995 7.468 112.062 7.412C112.128 7.35333 112.207 7.30133 112.298 7.256C112.09 7.144 111.926 6.99467 111.806 6.808C111.688 6.62133 111.63 6.40267 111.63 6.152C111.63 5.94933 111.67 5.76667 111.75 5.604C111.832 5.43867 111.946 5.29867 112.09 5.184C112.236 5.06667 112.408 4.97733 112.606 4.916C112.806 4.85467 113.023 4.824 113.258 4.824C113.434 4.824 113.599 4.84267 113.754 4.88C113.908 4.91467 114.05 4.96667 114.178 5.036H115.358ZM116.972 5.336C117.132 5.18667 117.308 5.06533 117.5 4.972C117.692 4.87867 117.917 4.832 118.176 4.832C118.4 4.832 118.599 4.87067 118.772 4.948C118.945 5.02267 119.089 5.12933 119.204 5.268C119.321 5.404 119.409 5.568 119.468 5.76C119.529 5.94933 119.56 6.15867 119.56 6.388V9H118.572V6.388C118.572 6.13733 118.515 5.944 118.4 5.808C118.285 5.66933 118.111 5.6 117.876 5.6C117.705 5.6 117.545 5.63867 117.396 5.716C117.247 5.79333 117.105 5.89867 116.972 6.032V9H115.984V3.056H116.972V5.336ZM121.813 9.064C121.456 9.064 121.181 8.964 120.989 8.764C120.8 8.56133 120.705 8.28267 120.705 7.928V5.636H120.285C120.232 5.636 120.186 5.61867 120.149 5.584C120.112 5.54933 120.093 5.49733 120.093 5.428V5.036L120.753 4.928L120.961 3.808C120.974 3.75467 121 3.71333 121.037 3.684C121.074 3.65467 121.122 3.64 121.181 3.64H121.693V4.932H122.789V5.636H121.693V7.86C121.693 7.988 121.724 8.088 121.785 8.16C121.849 8.232 121.936 8.268 122.045 8.268C122.106 8.268 122.157 8.26133 122.197 8.248C122.24 8.232 122.276 8.216 122.305 8.2C122.337 8.184 122.365 8.16933 122.389 8.156C122.413 8.14 122.437 8.132 122.461 8.132C122.49 8.132 122.514 8.14 122.533 8.156C122.552 8.16933 122.572 8.19067 122.593 8.22L122.889 8.7C122.745 8.82 122.58 8.91067 122.393 8.972C122.206 9.03333 122.013 9.064 121.813 9.064Z" fill="black"/>
<path d="M3.5 1H131.5V0H3.5V1ZM134 3.5V8.5H135V3.5H134ZM131.5 11H3.5V12H131.5V11ZM1 8.5V3.5H0V8.5H1ZM3.5 11C2.11929 11 1 9.88071 1 8.5H0C0 10.433 1.567 12 3.5 12V11ZM134 8.5C134 9.88071 132.881 11 131.5 11V12C133.433 12 135 10.433 135 8.5H134ZM131.5 1C132.881 1 134 2.11929 134 3.5H135C135 1.567 133.433 0 131.5 0V1ZM3.5 0C1.567 0 0 1.567 0 3.5H1C1 2.11929 2.11929 1 3.5 1V0Z" fill="#979797"/>
<path d="M0.5 15.5C0.5 13.8431 1.84315 12.5 3.5 12.5H131.5C133.157 12.5 134.5 13.8431 134.5 15.5V20.5C134.5 22.1569 133.157 23.5 131.5 23.5H3.5C1.84314 23.5 0.5 22.1569 0.5 20.5V15.5Z" fill="#E3E3E3"/>
<path d="M20.508 15.216L18.712 21H17.74L16.476 17.048C16.4413 16.952 16.4093 16.8347 16.38 16.696C16.364 16.7627 16.348 16.8253 16.332 16.884C16.316 16.9427 16.2986 16.9973 16.28 17.048L15.004 21H14.028L12.236 15.216H13.136C13.2293 15.216 13.3066 15.2387 13.368 15.284C13.432 15.3267 13.4746 15.3853 13.496 15.46L14.48 18.92C14.5013 19.0053 14.5213 19.0987 14.54 19.2C14.5613 19.2987 14.5826 19.4027 14.604 19.512C14.6253 19.4 14.648 19.2947 14.672 19.196C14.6986 19.0973 14.7266 19.0053 14.756 18.92L15.892 15.46C15.9133 15.3987 15.9546 15.3427 16.016 15.292C16.08 15.2413 16.1573 15.216 16.248 15.216H16.564C16.6573 15.216 16.7333 15.2387 16.792 15.284C16.8506 15.3293 16.8946 15.388 16.924 15.46L18.056 18.92C18.112 19.0853 18.1626 19.276 18.208 19.492C18.2426 19.2813 18.2813 19.0907 18.324 18.92L19.308 15.46C19.324 15.3933 19.364 15.336 19.428 15.288C19.4946 15.24 19.5733 15.216 19.664 15.216H20.508ZM22.738 19.248C22.4527 19.2613 22.2127 19.2867 22.018 19.324C21.8234 19.3587 21.6674 19.404 21.55 19.46C21.4327 19.516 21.3487 19.5813 21.298 19.656C21.2474 19.7307 21.222 19.812 21.222 19.9C21.222 20.0733 21.2727 20.1973 21.374 20.272C21.478 20.3467 21.6127 20.384 21.778 20.384C21.9807 20.384 22.1554 20.348 22.302 20.276C22.4514 20.2013 22.5967 20.0893 22.738 19.94V19.248ZM20.474 17.468C20.946 17.036 21.514 16.82 22.178 16.82C22.418 16.82 22.6327 16.86 22.822 16.94C23.0114 17.0173 23.1714 17.1267 23.302 17.268C23.4327 17.4067 23.5314 17.5733 23.598 17.768C23.6674 17.9627 23.702 18.176 23.702 18.408V21H23.254C23.1607 21 23.0887 20.9867 23.038 20.96C22.9874 20.9307 22.9474 20.8733 22.918 20.788L22.83 20.492C22.726 20.5853 22.6247 20.668 22.526 20.74C22.4274 20.8093 22.3247 20.868 22.218 20.916C22.1114 20.964 21.9967 21 21.874 21.024C21.754 21.0507 21.6207 21.064 21.474 21.064C21.3007 21.064 21.1407 21.0413 20.994 20.996C20.8474 20.948 20.7207 20.8773 20.614 20.784C20.5074 20.6907 20.4247 20.5747 20.366 20.436C20.3074 20.2973 20.278 20.136 20.278 19.952C20.278 19.848 20.2954 19.7453 20.33 19.644C20.3647 19.54 20.4207 19.4413 20.498 19.348C20.578 19.2547 20.6807 19.1667 20.806 19.084C20.9314 19.0013 21.0847 18.9293 21.266 18.868C21.45 18.8067 21.6634 18.7573 21.906 18.72C22.1487 18.68 22.426 18.656 22.738 18.648V18.408C22.738 18.1333 22.6794 17.9307 22.562 17.8C22.4447 17.6667 22.2754 17.6 22.054 17.6C21.894 17.6 21.7607 17.6187 21.654 17.656C21.55 17.6933 21.458 17.736 21.378 17.784C21.298 17.8293 21.2247 17.8707 21.158 17.908C21.094 17.9453 21.022 17.964 20.942 17.964C20.8727 17.964 20.814 17.9467 20.766 17.912C20.718 17.8747 20.6794 17.832 20.65 17.784L20.474 17.468ZM25.5645 17.608C25.6925 17.3627 25.8445 17.1707 26.0205 17.032C26.1965 16.8907 26.4045 16.82 26.6445 16.82C26.8339 16.82 26.9859 16.8613 27.1005 16.944L27.0365 17.684C27.0232 17.732 27.0032 17.7667 26.9765 17.788C26.9525 17.8067 26.9192 17.816 26.8765 17.816C26.8365 17.816 26.7765 17.8093 26.6965 17.796C26.6192 17.7827 26.5432 17.776 26.4685 17.776C26.3592 17.776 26.2619 17.792 26.1765 17.824C26.0912 17.856 26.0139 17.9027 25.9445 17.964C25.8779 18.0227 25.8179 18.0947 25.7645 18.18C25.7139 18.2653 25.6659 18.3627 25.6205 18.472V21H24.6325V16.896H25.2125C25.3139 16.896 25.3845 16.9147 25.4245 16.952C25.4645 16.9867 25.4912 17.0507 25.5045 17.144L25.5645 17.608ZM27.6169 21V16.896H28.2209C28.3489 16.896 28.4329 16.956 28.4729 17.076L28.5369 17.38C28.6089 17.3 28.6836 17.2267 28.7609 17.16C28.8409 17.0933 28.9249 17.036 29.0129 16.988C29.1036 16.94 29.1996 16.9027 29.3009 16.876C29.4049 16.8467 29.5182 16.832 29.6409 16.832C29.8996 16.832 30.1116 16.9027 30.2769 17.044C30.4449 17.1827 30.5702 17.368 30.6529 17.6C30.7169 17.464 30.7969 17.348 30.8929 17.252C30.9889 17.1533 31.0942 17.0733 31.2089 17.012C31.3236 16.9507 31.4449 16.9053 31.5729 16.876C31.7036 16.8467 31.8342 16.832 31.9649 16.832C32.1916 16.832 32.3929 16.8667 32.5689 16.936C32.7449 17.0053 32.8929 17.1067 33.0129 17.24C33.1329 17.3733 33.2236 17.536 33.2849 17.728C33.3489 17.92 33.3809 18.14 33.3809 18.388V21H32.3929V18.388C32.3929 18.1267 32.3356 17.9307 32.2209 17.8C32.1062 17.6667 31.9382 17.6 31.7169 17.6C31.6156 17.6 31.5209 17.6173 31.4329 17.652C31.3476 17.6867 31.2716 17.7373 31.2049 17.804C31.1409 17.868 31.0902 17.9493 31.0529 18.048C31.0156 18.1467 30.9969 18.26 30.9969 18.388V21H30.0049V18.388C30.0049 18.1133 29.9489 17.9133 29.8369 17.788C29.7276 17.6627 29.5662 17.6 29.3529 17.6C29.2089 17.6 29.0742 17.636 28.9489 17.708C28.8262 17.7773 28.7116 17.8733 28.6049 17.996V21H27.6169Z" fill="black"/>
<g opacity="0.75">
<rect x="45" y="22" width="8" height="1" transform="rotate(-90 45 22)" fill="#979797"/>
</g>
<path d="M47 17C47 15.3431 48.3431 14 50 14H85C86.6569 14 88 15.3431 88 17V19C88 20.6569 86.6569 22 85 22H50C48.3431 22 47 20.6569 47 19V17Z" fill="#FF9300"/>
<path d="M59.6294 15.216V21H59.0774C58.992 21 58.92 20.9867 58.8614 20.96C58.8054 20.9307 58.7507 20.8827 58.6974 20.816L55.6774 16.96C55.6934 17.136 55.7014 17.2987 55.7014 17.448V21H54.7534V15.216H55.3174C55.3627 15.216 55.4014 15.2187 55.4334 15.224C55.468 15.2267 55.4974 15.2347 55.5214 15.248C55.548 15.2587 55.5734 15.276 55.5974 15.3C55.6214 15.3213 55.648 15.3507 55.6774 15.388L58.7094 19.26C58.7014 19.1667 58.6947 19.0747 58.6894 18.984C58.684 18.8933 58.6814 18.8093 58.6814 18.732V15.216H59.6294ZM63.2804 18.476C63.2804 18.348 63.2618 18.228 63.2244 18.116C63.1898 18.0013 63.1364 17.9013 63.0644 17.816C62.9924 17.7307 62.9004 17.664 62.7884 17.616C62.6791 17.5653 62.5511 17.54 62.4044 17.54C62.1191 17.54 61.8938 17.6213 61.7284 17.784C61.5658 17.9467 61.4618 18.1773 61.4164 18.476H63.2804ZM61.3964 19.072C61.4124 19.2827 61.4498 19.4653 61.5084 19.62C61.5671 19.772 61.6444 19.8987 61.7404 20C61.8364 20.0987 61.9498 20.1733 62.0804 20.224C62.2138 20.272 62.3604 20.296 62.5204 20.296C62.6804 20.296 62.8178 20.2773 62.9324 20.24C63.0498 20.2027 63.1511 20.1613 63.2364 20.116C63.3244 20.0707 63.4004 20.0293 63.4644 19.992C63.5311 19.9547 63.5951 19.936 63.6564 19.936C63.7391 19.936 63.8004 19.9667 63.8404 20.028L64.1244 20.388C64.0151 20.516 63.8924 20.624 63.7564 20.712C63.6204 20.7973 63.4778 20.8667 63.3284 20.92C63.1818 20.9707 63.0311 21.0067 62.8764 21.028C62.7244 21.0493 62.5764 21.06 62.4324 21.06C62.1471 21.06 61.8818 21.0133 61.6364 20.92C61.3911 20.824 61.1778 20.684 60.9964 20.5C60.8151 20.3133 60.6724 20.084 60.5684 19.812C60.4644 19.5373 60.4124 19.22 60.4124 18.86C60.4124 18.58 60.4578 18.3173 60.5484 18.072C60.6391 17.824 60.7684 17.6093 60.9364 17.428C61.1071 17.244 61.3138 17.0987 61.5564 16.992C61.8018 16.8853 62.0778 16.832 62.3844 16.832C62.6431 16.832 62.8818 16.8733 63.1004 16.956C63.3191 17.0387 63.5071 17.16 63.6644 17.32C63.8218 17.4773 63.9444 17.672 64.0324 17.904C64.1231 18.1333 64.1684 18.396 64.1684 18.692C64.1684 18.8413 64.1524 18.9427 64.1204 18.996C64.0884 19.0467 64.0271 19.072 63.9364 19.072H61.3964ZM68.4459 16.896V21H67.8419C67.7112 21 67.6285 20.94 67.5939 20.82L67.5259 20.492C67.3579 20.6627 67.1725 20.8013 66.9699 20.908C66.7672 21.012 66.5285 21.064 66.2539 21.064C66.0299 21.064 65.8312 21.0267 65.6579 20.952C65.4872 20.8747 65.3432 20.7667 65.2259 20.628C65.1085 20.4893 65.0192 20.3253 64.9579 20.136C64.8992 19.944 64.8699 19.7333 64.8699 19.504V16.896H65.8579V19.504C65.8579 19.7547 65.9152 19.9493 66.0299 20.088C66.1472 20.224 66.3219 20.292 66.5539 20.292C66.7245 20.292 66.8845 20.2547 67.0339 20.18C67.1832 20.1027 67.3245 19.9973 67.4579 19.864V16.896H68.4459ZM70.7935 21.064C70.4362 21.064 70.1615 20.964 69.9695 20.764C69.7802 20.5613 69.6855 20.2827 69.6855 19.928V17.636H69.2655C69.2122 17.636 69.1668 17.6187 69.1295 17.584C69.0922 17.5493 69.0735 17.4973 69.0735 17.428V17.036L69.7335 16.928L69.9415 15.808C69.9548 15.7547 69.9802 15.7133 70.0175 15.684C70.0548 15.6547 70.1028 15.64 70.1615 15.64H70.6735V16.932H71.7695V17.636H70.6735V19.86C70.6735 19.988 70.7042 20.088 70.7655 20.16C70.8295 20.232 70.9162 20.268 71.0255 20.268C71.0868 20.268 71.1375 20.2613 71.1775 20.248C71.2202 20.232 71.2562 20.216 71.2855 20.2C71.3175 20.184 71.3455 20.1693 71.3695 20.156C71.3935 20.14 71.4175 20.132 71.4415 20.132C71.4708 20.132 71.4948 20.14 71.5135 20.156C71.5322 20.1693 71.5522 20.1907 71.5735 20.22L71.8695 20.7C71.7255 20.82 71.5602 20.9107 71.3735 20.972C71.1868 21.0333 70.9935 21.064 70.7935 21.064ZM73.3341 17.608C73.4621 17.3627 73.6141 17.1707 73.7901 17.032C73.9661 16.8907 74.1741 16.82 74.4141 16.82C74.6034 16.82 74.7554 16.8613 74.8701 16.944L74.8061 17.684C74.7927 17.732 74.7727 17.7667 74.7461 17.788C74.7221 17.8067 74.6887 17.816 74.6461 17.816C74.6061 17.816 74.5461 17.8093 74.4661 17.796C74.3887 17.7827 74.3127 17.776 74.2381 17.776C74.1287 17.776 74.0314 17.792 73.9461 17.824C73.8607 17.856 73.7834 17.9027 73.7141 17.964C73.6474 18.0227 73.5874 18.0947 73.5341 18.18C73.4834 18.2653 73.4354 18.3627 73.3901 18.472V21H72.4021V16.896H72.9821C73.0834 16.896 73.1541 16.9147 73.1941 16.952C73.2341 16.9867 73.2607 17.0507 73.2741 17.144L73.3341 17.608ZM77.4998 19.248C77.2144 19.2613 76.9744 19.2867 76.7798 19.324C76.5851 19.3587 76.4291 19.404 76.3118 19.46C76.1944 19.516 76.1104 19.5813 76.0598 19.656C76.0091 19.7307 75.9838 19.812 75.9838 19.9C75.9838 20.0733 76.0344 20.1973 76.1358 20.272C76.2398 20.3467 76.3744 20.384 76.5398 20.384C76.7424 20.384 76.9171 20.348 77.0638 20.276C77.2131 20.2013 77.3584 20.0893 77.4998 19.94V19.248ZM75.2358 17.468C75.7078 17.036 76.2758 16.82 76.9398 16.82C77.1798 16.82 77.3944 16.86 77.5838 16.94C77.7731 17.0173 77.9331 17.1267 78.0638 17.268C78.1944 17.4067 78.2931 17.5733 78.3598 17.768C78.4291 17.9627 78.4638 18.176 78.4638 18.408V21H78.0158C77.9224 21 77.8504 20.9867 77.7998 20.96C77.7491 20.9307 77.7091 20.8733 77.6798 20.788L77.5918 20.492C77.4878 20.5853 77.3864 20.668 77.2878 20.74C77.1891 20.8093 77.0864 20.868 76.9798 20.916C76.8731 20.964 76.7584 21 76.6358 21.024C76.5158 21.0507 76.3824 21.064 76.2358 21.064C76.0624 21.064 75.9024 21.0413 75.7558 20.996C75.6091 20.948 75.4824 20.8773 75.3758 20.784C75.2691 20.6907 75.1864 20.5747 75.1278 20.436C75.0691 20.2973 75.0398 20.136 75.0398 19.952C75.0398 19.848 75.0571 19.7453 75.0918 19.644C75.1264 19.54 75.1824 19.4413 75.2598 19.348C75.3398 19.2547 75.4424 19.1667 75.5678 19.084C75.6931 19.0013 75.8464 18.9293 76.0278 18.868C76.2118 18.8067 76.4251 18.7573 76.6678 18.72C76.9104 18.68 77.1878 18.656 77.4998 18.648V18.408C77.4998 18.1333 77.4411 17.9307 77.3238 17.8C77.2064 17.6667 77.0371 17.6 76.8158 17.6C76.6558 17.6 76.5224 17.6187 76.4158 17.656C76.3118 17.6933 76.2198 17.736 76.1398 17.784C76.0598 17.8293 75.9864 17.8707 75.9198 17.908C75.8558 17.9453 75.7838 17.964 75.7038 17.964C75.6344 17.964 75.5758 17.9467 75.5278 17.912C75.4798 17.8747 75.4411 17.832 75.4118 17.784L75.2358 17.468ZM80.3943 15.056V21H79.4062V15.056H80.3943Z" fill="black"/>
<g opacity="0.75">
<rect x="89" y="22" width="8" height="1" transform="rotate(-90 89 22)" fill="#979797"/>
</g>
<path d="M103.874 20.16C104.074 20.16 104.242 20.136 104.378 20.088C104.514 20.04 104.622 19.976 104.702 19.896C104.785 19.816 104.844 19.7227 104.878 19.616C104.916 19.5093 104.934 19.396 104.934 19.276C104.934 19.1507 104.914 19.0387 104.874 18.94C104.834 18.8387 104.772 18.7533 104.686 18.684C104.601 18.612 104.49 18.5573 104.354 18.52C104.221 18.4827 104.06 18.464 103.87 18.464H102.786V20.16H103.874ZM102.786 16.048V17.72H103.642C104.01 17.72 104.288 17.6533 104.474 17.52C104.664 17.3867 104.758 17.1747 104.758 16.884C104.758 16.5827 104.673 16.368 104.502 16.24C104.332 16.112 104.065 16.048 103.702 16.048H102.786ZM103.702 15.216C104.081 15.216 104.405 15.252 104.674 15.324C104.944 15.396 105.164 15.4987 105.334 15.632C105.508 15.7653 105.634 15.9267 105.714 16.116C105.794 16.3053 105.834 16.5187 105.834 16.756C105.834 16.892 105.814 17.0227 105.774 17.148C105.734 17.2707 105.672 17.3867 105.586 17.496C105.504 17.6027 105.397 17.7 105.266 17.788C105.138 17.876 104.985 17.9507 104.806 18.012C105.601 18.1907 105.998 18.62 105.998 19.3C105.998 19.5453 105.952 19.772 105.858 19.98C105.765 20.188 105.629 20.368 105.45 20.52C105.272 20.6693 105.052 20.7867 104.79 20.872C104.529 20.9573 104.23 21 103.894 21H101.71V15.216H103.702ZM107.674 17.608C107.802 17.3627 107.954 17.1707 108.13 17.032C108.306 16.8907 108.514 16.82 108.754 16.82C108.943 16.82 109.095 16.8613 109.21 16.944L109.146 17.684C109.133 17.732 109.113 17.7667 109.086 17.788C109.062 17.8067 109.029 17.816 108.986 17.816C108.946 17.816 108.886 17.8093 108.806 17.796C108.729 17.7827 108.653 17.776 108.578 17.776C108.469 17.776 108.371 17.792 108.286 17.824C108.201 17.856 108.123 17.9027 108.054 17.964C107.987 18.0227 107.927 18.0947 107.874 18.18C107.823 18.2653 107.775 18.3627 107.73 18.472V21H106.742V16.896H107.322C107.423 16.896 107.494 16.9147 107.534 16.952C107.574 16.9867 107.601 17.0507 107.614 17.144L107.674 17.608ZM110.75 16.896V21H109.758V16.896H110.75ZM110.886 15.7C110.886 15.7853 110.869 15.8653 110.834 15.94C110.8 16.0147 110.753 16.08 110.694 16.136C110.638 16.192 110.572 16.2373 110.494 16.272C110.417 16.304 110.334 16.32 110.246 16.32C110.161 16.32 110.08 16.304 110.002 16.272C109.928 16.2373 109.862 16.192 109.806 16.136C109.75 16.08 109.705 16.0147 109.67 15.94C109.638 15.8653 109.622 15.7853 109.622 15.7C109.622 15.612 109.638 15.5293 109.67 15.452C109.705 15.3747 109.75 15.308 109.806 15.252C109.862 15.196 109.928 15.152 110.002 15.12C110.08 15.0853 110.161 15.068 110.246 15.068C110.334 15.068 110.417 15.0853 110.494 15.12C110.572 15.152 110.638 15.196 110.694 15.252C110.753 15.308 110.8 15.3747 110.834 15.452C110.869 15.5293 110.886 15.612 110.886 15.7ZM113.258 18.848C113.38 18.848 113.487 18.832 113.578 18.8C113.668 18.7653 113.743 18.7187 113.802 18.66C113.863 18.6013 113.908 18.5307 113.938 18.448C113.97 18.3653 113.986 18.2747 113.986 18.176C113.986 17.9733 113.924 17.8133 113.802 17.696C113.682 17.576 113.5 17.516 113.258 17.516C113.015 17.516 112.832 17.576 112.71 17.696C112.59 17.8133 112.53 17.9733 112.53 18.176C112.53 18.272 112.544 18.3613 112.574 18.444C112.606 18.5267 112.651 18.5987 112.71 18.66C112.771 18.7187 112.847 18.7653 112.938 18.8C113.031 18.832 113.138 18.848 113.258 18.848ZM114.374 21.184C114.374 21.104 114.35 21.0387 114.302 20.988C114.254 20.9373 114.188 20.8987 114.106 20.872C114.023 20.8427 113.926 20.8213 113.814 20.808C113.704 20.7947 113.587 20.7853 113.462 20.78C113.339 20.772 113.211 20.7653 113.078 20.76C112.947 20.7547 112.819 20.744 112.694 20.728C112.584 20.7893 112.495 20.8613 112.426 20.944C112.359 21.0267 112.326 21.1227 112.326 21.232C112.326 21.304 112.343 21.3707 112.378 21.432C112.415 21.496 112.472 21.5507 112.55 21.596C112.63 21.6413 112.732 21.676 112.858 21.7C112.983 21.7267 113.136 21.74 113.318 21.74C113.502 21.74 113.66 21.7253 113.794 21.696C113.927 21.6693 114.036 21.6307 114.122 21.58C114.21 21.532 114.274 21.4733 114.314 21.404C114.354 21.3373 114.374 21.264 114.374 21.184ZM115.358 17.036V17.404C115.358 17.5213 115.287 17.5933 115.146 17.62L114.778 17.688C114.834 17.8293 114.862 17.984 114.862 18.152C114.862 18.3547 114.82 18.5387 114.738 18.704C114.658 18.8667 114.546 19.0053 114.402 19.12C114.258 19.2347 114.087 19.324 113.89 19.388C113.695 19.4493 113.484 19.48 113.258 19.48C113.178 19.48 113.1 19.476 113.026 19.468C112.951 19.46 112.878 19.4493 112.806 19.436C112.678 19.5133 112.614 19.6 112.614 19.696C112.614 19.7787 112.651 19.84 112.726 19.88C112.803 19.9173 112.904 19.944 113.03 19.96C113.155 19.976 113.298 19.9867 113.458 19.992C113.618 19.9947 113.782 20.0027 113.95 20.016C114.118 20.0293 114.282 20.0533 114.442 20.088C114.602 20.12 114.744 20.172 114.87 20.244C114.995 20.316 115.095 20.4147 115.17 20.54C115.247 20.6627 115.286 20.8213 115.286 21.016C115.286 21.1973 115.24 21.3733 115.15 21.544C115.062 21.7147 114.932 21.8667 114.762 22C114.594 22.1333 114.386 22.24 114.138 22.32C113.892 22.4027 113.612 22.444 113.298 22.444C112.988 22.444 112.719 22.4133 112.49 22.352C112.26 22.2933 112.07 22.2133 111.918 22.112C111.766 22.0133 111.652 21.8987 111.578 21.768C111.503 21.6373 111.466 21.5013 111.466 21.36C111.466 21.168 111.523 21.008 111.638 20.88C111.755 20.7493 111.915 20.6453 112.118 20.568C112.008 20.512 111.922 20.4373 111.858 20.344C111.794 20.2507 111.762 20.128 111.762 19.976C111.762 19.9147 111.772 19.852 111.794 19.788C111.818 19.7213 111.851 19.656 111.894 19.592C111.939 19.528 111.995 19.468 112.062 19.412C112.128 19.3533 112.207 19.3013 112.298 19.256C112.09 19.144 111.926 18.9947 111.806 18.808C111.688 18.6213 111.63 18.4027 111.63 18.152C111.63 17.9493 111.67 17.7667 111.75 17.604C111.832 17.4387 111.946 17.2987 112.09 17.184C112.236 17.0667 112.408 16.9773 112.606 16.916C112.806 16.8547 113.023 16.824 113.258 16.824C113.434 16.824 113.599 16.8427 113.754 16.88C113.908 16.9147 114.05 16.9667 114.178 17.036H115.358ZM116.972 17.336C117.132 17.1867 117.308 17.0653 117.5 16.972C117.692 16.8787 117.917 16.832 118.176 16.832C118.4 16.832 118.599 16.8707 118.772 16.948C118.945 17.0227 119.089 17.1293 119.204 17.268C119.321 17.404 119.409 17.568 119.468 17.76C119.529 17.9493 119.56 18.1587 119.56 18.388V21H118.572V18.388C118.572 18.1373 118.515 17.944 118.4 17.808C118.285 17.6693 118.111 17.6 117.876 17.6C117.705 17.6 117.545 17.6387 117.396 17.716C117.247 17.7933 117.105 17.8987 116.972 18.032V21H115.984V15.056H116.972V17.336ZM121.813 21.064C121.456 21.064 121.181 20.964 120.989 20.764C120.8 20.5613 120.705 20.2827 120.705 19.928V17.636H120.285C120.232 17.636 120.186 17.6187 120.149 17.584C120.112 17.5493 120.093 17.4973 120.093 17.428V17.036L120.753 16.928L120.961 15.808C120.974 15.7547 121 15.7133 121.037 15.684C121.074 15.6547 121.122 15.64 121.181 15.64H121.693V16.932H122.789V17.636H121.693V19.86C121.693 19.988 121.724 20.088 121.785 20.16C121.849 20.232 121.936 20.268 122.045 20.268C122.106 20.268 122.157 20.2613 122.197 20.248C122.24 20.232 122.276 20.216 122.305 20.2C122.337 20.184 122.365 20.1693 122.389 20.156C122.413 20.14 122.437 20.132 122.461 20.132C122.49 20.132 122.514 20.14 122.533 20.156C122.552 20.1693 122.572 20.1907 122.593 20.22L122.889 20.7C122.745 20.82 122.58 20.9107 122.393 20.972C122.206 21.0333 122.013 21.064 121.813 21.064Z" fill="black"/>
<path d="M3.5 13H131.5V12H3.5V13ZM134 15.5V20.5H135V15.5H134ZM131.5 23H3.5V24H131.5V23ZM1 20.5V15.5H0V20.5H1ZM3.5 23C2.11929 23 1 21.8807 1 20.5H0C0 22.433 1.567 24 3.5 24V23ZM134 20.5C134 21.8807 132.881 23 131.5 23V24C133.433 24 135 22.433 135 20.5H134ZM131.5 13C132.881 13 134 14.1193 134 15.5H135C135 13.567 133.433 12 131.5 12V13ZM3.5 12C1.567 12 0 13.567 0 15.5H1C1 14.1193 2.11929 13 3.5 13V12Z" fill="#979797"/>
<path d="M0.5 27.5C0.5 25.8431 1.84315 24.5 3.5 24.5H131.5C133.157 24.5 134.5 25.8431 134.5 27.5V32.5C134.5 34.1569 133.157 35.5 131.5 35.5H3.5C1.84314 35.5 0.5 34.1569 0.5 32.5V27.5Z" fill="#E3E3E3"/>
<path d="M20.508 27.216L18.712 33H17.74L16.476 29.048C16.4413 28.952 16.4093 28.8347 16.38 28.696C16.364 28.7627 16.348 28.8253 16.332 28.884C16.316 28.9427 16.2986 28.9973 16.28 29.048L15.004 33H14.028L12.236 27.216H13.136C13.2293 27.216 13.3066 27.2387 13.368 27.284C13.432 27.3267 13.4746 27.3853 13.496 27.46L14.48 30.92C14.5013 31.0053 14.5213 31.0987 14.54 31.2C14.5613 31.2987 14.5826 31.4027 14.604 31.512C14.6253 31.4 14.648 31.2947 14.672 31.196C14.6986 31.0973 14.7266 31.0053 14.756 30.92L15.892 27.46C15.9133 27.3987 15.9546 27.3427 16.016 27.292C16.08 27.2413 16.1573 27.216 16.248 27.216H16.564C16.6573 27.216 16.7333 27.2387 16.792 27.284C16.8506 27.3293 16.8946 27.388 16.924 27.46L18.056 30.92C18.112 31.0853 18.1626 31.276 18.208 31.492C18.2426 31.2813 18.2813 31.0907 18.324 30.92L19.308 27.46C19.324 27.3933 19.364 27.336 19.428 27.288C19.4946 27.24 19.5733 27.216 19.664 27.216H20.508ZM22.738 31.248C22.4527 31.2613 22.2127 31.2867 22.018 31.324C21.8234 31.3587 21.6674 31.404 21.55 31.46C21.4327 31.516 21.3487 31.5813 21.298 31.656C21.2474 31.7307 21.222 31.812 21.222 31.9C21.222 32.0733 21.2727 32.1973 21.374 32.272C21.478 32.3467 21.6127 32.384 21.778 32.384C21.9807 32.384 22.1554 32.348 22.302 32.276C22.4514 32.2013 22.5967 32.0893 22.738 31.94V31.248ZM20.474 29.468C20.946 29.036 21.514 28.82 22.178 28.82C22.418 28.82 22.6327 28.86 22.822 28.94C23.0114 29.0173 23.1714 29.1267 23.302 29.268C23.4327 29.4067 23.5314 29.5733 23.598 29.768C23.6674 29.9627 23.702 30.176 23.702 30.408V33H23.254C23.1607 33 23.0887 32.9867 23.038 32.96C22.9874 32.9307 22.9474 32.8733 22.918 32.788L22.83 32.492C22.726 32.5853 22.6247 32.668 22.526 32.74C22.4274 32.8093 22.3247 32.868 22.218 32.916C22.1114 32.964 21.9967 33 21.874 33.024C21.754 33.0507 21.6207 33.064 21.474 33.064C21.3007 33.064 21.1407 33.0413 20.994 32.996C20.8474 32.948 20.7207 32.8773 20.614 32.784C20.5074 32.6907 20.4247 32.5747 20.366 32.436C20.3074 32.2973 20.278 32.136 20.278 31.952C20.278 31.848 20.2954 31.7453 20.33 31.644C20.3647 31.54 20.4207 31.4413 20.498 31.348C20.578 31.2547 20.6807 31.1667 20.806 31.084C20.9314 31.0013 21.0847 30.9293 21.266 30.868C21.45 30.8067 21.6634 30.7573 21.906 30.72C22.1487 30.68 22.426 30.656 22.738 30.648V30.408C22.738 30.1333 22.6794 29.9307 22.562 29.8C22.4447 29.6667 22.2754 29.6 22.054 29.6C21.894 29.6 21.7607 29.6187 21.654 29.656C21.55 29.6933 21.458 29.736 21.378 29.784C21.298 29.8293 21.2247 29.8707 21.158 29.908C21.094 29.9453 21.022 29.964 20.942 29.964C20.8727 29.964 20.814 29.9467 20.766 29.912C20.718 29.8747 20.6794 29.832 20.65 29.784L20.474 29.468ZM25.5645 29.608C25.6925 29.3627 25.8445 29.1707 26.0205 29.032C26.1965 28.8907 26.4045 28.82 26.6445 28.82C26.8339 28.82 26.9859 28.8613 27.1005 28.944L27.0365 29.684C27.0232 29.732 27.0032 29.7667 26.9765 29.788C26.9525 29.8067 26.9192 29.816 26.8765 29.816C26.8365 29.816 26.7765 29.8093 26.6965 29.796C26.6192 29.7827 26.5432 29.776 26.4685 29.776C26.3592 29.776 26.2619 29.792 26.1765 29.824C26.0912 29.856 26.0139 29.9027 25.9445 29.964C25.8779 30.0227 25.8179 30.0947 25.7645 30.18C25.7139 30.2653 25.6659 30.3627 25.6205 30.472V33H24.6325V28.896H25.2125C25.3139 28.896 25.3845 28.9147 25.4245 28.952C25.4645 28.9867 25.4912 29.0507 25.5045 29.144L25.5645 29.608ZM27.6169 33V28.896H28.2209C28.3489 28.896 28.4329 28.956 28.4729 29.076L28.5369 29.38C28.6089 29.3 28.6836 29.2267 28.7609 29.16C28.8409 29.0933 28.9249 29.036 29.0129 28.988C29.1036 28.94 29.1996 28.9027 29.3009 28.876C29.4049 28.8467 29.5182 28.832 29.6409 28.832C29.8996 28.832 30.1116 28.9027 30.2769 29.044C30.4449 29.1827 30.5702 29.368 30.6529 29.6C30.7169 29.464 30.7969 29.348 30.8929 29.252C30.9889 29.1533 31.0942 29.0733 31.2089 29.012C31.3236 28.9507 31.4449 28.9053 31.5729 28.876C31.7036 28.8467 31.8342 28.832 31.9649 28.832C32.1916 28.832 32.3929 28.8667 32.5689 28.936C32.7449 29.0053 32.8929 29.1067 33.0129 29.24C33.1329 29.3733 33.2236 29.536 33.2849 29.728C33.3489 29.92 33.3809 30.14 33.3809 30.388V33H32.3929V30.388C32.3929 30.1267 32.3356 29.9307 32.2209 29.8C32.1062 29.6667 31.9382 29.6 31.7169 29.6C31.6156 29.6 31.5209 29.6173 31.4329 29.652C31.3476 29.6867 31.2716 29.7373 31.2049 29.804C31.1409 29.868 31.0902 29.9493 31.0529 30.048C31.0156 30.1467 30.9969 30.26 30.9969 30.388V33H30.0049V30.388C30.0049 30.1133 29.9489 29.9133 29.8369 29.788C29.7276 29.6627 29.5662 29.6 29.3529 29.6C29.2089 29.6 29.0742 29.636 28.9489 29.708C28.8262 29.7773 28.7116 29.8733 28.6049 29.996V33H27.6169Z" fill="black"/>
<g opacity="0.75">
<rect x="45" y="34" width="8" height="1" transform="rotate(-90 45 34)" fill="#979797"/>
</g>
<path d="M59.6294 27.216V33H59.0774C58.992 33 58.92 32.9867 58.8614 32.96C58.8054 32.9307 58.7507 32.8827 58.6974 32.816L55.6774 28.96C55.6934 29.136 55.7014 29.2987 55.7014 29.448V33H54.7534V27.216H55.3174C55.3627 27.216 55.4014 27.2187 55.4334 27.224C55.468 27.2267 55.4974 27.2347 55.5214 27.248C55.548 27.2587 55.5734 27.276 55.5974 27.3C55.6214 27.3213 55.648 27.3507 55.6774 27.388L58.7094 31.26C58.7014 31.1667 58.6947 31.0747 58.6894 30.984C58.684 30.8933 58.6814 30.8093 58.6814 30.732V27.216H59.6294ZM63.2804 30.476C63.2804 30.348 63.2618 30.228 63.2244 30.116C63.1898 30.0013 63.1364 29.9013 63.0644 29.816C62.9924 29.7307 62.9004 29.664 62.7884 29.616C62.6791 29.5653 62.5511 29.54 62.4044 29.54C62.1191 29.54 61.8938 29.6213 61.7284 29.784C61.5658 29.9467 61.4618 30.1773 61.4164 30.476H63.2804ZM61.3964 31.072C61.4124 31.2827 61.4498 31.4653 61.5084 31.62C61.5671 31.772 61.6444 31.8987 61.7404 32C61.8364 32.0987 61.9498 32.1733 62.0804 32.224C62.2138 32.272 62.3604 32.296 62.5204 32.296C62.6804 32.296 62.8178 32.2773 62.9324 32.24C63.0498 32.2027 63.1511 32.1613 63.2364 32.116C63.3244 32.0707 63.4004 32.0293 63.4644 31.992C63.5311 31.9547 63.5951 31.936 63.6564 31.936C63.7391 31.936 63.8004 31.9667 63.8404 32.028L64.1244 32.388C64.0151 32.516 63.8924 32.624 63.7564 32.712C63.6204 32.7973 63.4778 32.8667 63.3284 32.92C63.1818 32.9707 63.0311 33.0067 62.8764 33.028C62.7244 33.0493 62.5764 33.06 62.4324 33.06C62.1471 33.06 61.8818 33.0133 61.6364 32.92C61.3911 32.824 61.1778 32.684 60.9964 32.5C60.8151 32.3133 60.6724 32.084 60.5684 31.812C60.4644 31.5373 60.4124 31.22 60.4124 30.86C60.4124 30.58 60.4578 30.3173 60.5484 30.072C60.6391 29.824 60.7684 29.6093 60.9364 29.428C61.1071 29.244 61.3138 29.0987 61.5564 28.992C61.8018 28.8853 62.0778 28.832 62.3844 28.832C62.6431 28.832 62.8818 28.8733 63.1004 28.956C63.3191 29.0387 63.5071 29.16 63.6644 29.32C63.8218 29.4773 63.9444 29.672 64.0324 29.904C64.1231 30.1333 64.1684 30.396 64.1684 30.692C64.1684 30.8413 64.1524 30.9427 64.1204 30.996C64.0884 31.0467 64.0271 31.072 63.9364 31.072H61.3964ZM68.4459 28.896V33H67.8419C67.7112 33 67.6285 32.94 67.5939 32.82L67.5259 32.492C67.3579 32.6627 67.1725 32.8013 66.9699 32.908C66.7672 33.012 66.5285 33.064 66.2539 33.064C66.0299 33.064 65.8312 33.0267 65.6579 32.952C65.4872 32.8747 65.3432 32.7667 65.2259 32.628C65.1085 32.4893 65.0192 32.3253 64.9579 32.136C64.8992 31.944 64.8699 31.7333 64.8699 31.504V28.896H65.8579V31.504C65.8579 31.7547 65.9152 31.9493 66.0299 32.088C66.1472 32.224 66.3219 32.292 66.5539 32.292C66.7245 32.292 66.8845 32.2547 67.0339 32.18C67.1832 32.1027 67.3245 31.9973 67.4579 31.864V28.896H68.4459ZM70.7935 33.064C70.4362 33.064 70.1615 32.964 69.9695 32.764C69.7802 32.5613 69.6855 32.2827 69.6855 31.928V29.636H69.2655C69.2122 29.636 69.1668 29.6187 69.1295 29.584C69.0922 29.5493 69.0735 29.4973 69.0735 29.428V29.036L69.7335 28.928L69.9415 27.808C69.9548 27.7547 69.9802 27.7133 70.0175 27.684C70.0548 27.6547 70.1028 27.64 70.1615 27.64H70.6735V28.932H71.7695V29.636H70.6735V31.86C70.6735 31.988 70.7042 32.088 70.7655 32.16C70.8295 32.232 70.9162 32.268 71.0255 32.268C71.0868 32.268 71.1375 32.2613 71.1775 32.248C71.2202 32.232 71.2562 32.216 71.2855 32.2C71.3175 32.184 71.3455 32.1693 71.3695 32.156C71.3935 32.14 71.4175 32.132 71.4415 32.132C71.4708 32.132 71.4948 32.14 71.5135 32.156C71.5322 32.1693 71.5522 32.1907 71.5735 32.22L71.8695 32.7C71.7255 32.82 71.5602 32.9107 71.3735 32.972C71.1868 33.0333 70.9935 33.064 70.7935 33.064ZM73.3341 29.608C73.4621 29.3627 73.6141 29.1707 73.7901 29.032C73.9661 28.8907 74.1741 28.82 74.4141 28.82C74.6034 28.82 74.7554 28.8613 74.8701 28.944L74.8061 29.684C74.7927 29.732 74.7727 29.7667 74.7461 29.788C74.7221 29.8067 74.6887 29.816 74.6461 29.816C74.6061 29.816 74.5461 29.8093 74.4661 29.796C74.3887 29.7827 74.3127 29.776 74.2381 29.776C74.1287 29.776 74.0314 29.792 73.9461 29.824C73.8607 29.856 73.7834 29.9027 73.7141 29.964C73.6474 30.0227 73.5874 30.0947 73.5341 30.18C73.4834 30.2653 73.4354 30.3627 73.3901 30.472V33H72.4021V28.896H72.9821C73.0834 28.896 73.1541 28.9147 73.1941 28.952C73.2341 28.9867 73.2607 29.0507 73.2741 29.144L73.3341 29.608ZM77.4998 31.248C77.2144 31.2613 76.9744 31.2867 76.7798 31.324C76.5851 31.3587 76.4291 31.404 76.3118 31.46C76.1944 31.516 76.1104 31.5813 76.0598 31.656C76.0091 31.7307 75.9838 31.812 75.9838 31.9C75.9838 32.0733 76.0344 32.1973 76.1358 32.272C76.2398 32.3467 76.3744 32.384 76.5398 32.384C76.7424 32.384 76.9171 32.348 77.0638 32.276C77.2131 32.2013 77.3584 32.0893 77.4998 31.94V31.248ZM75.2358 29.468C75.7078 29.036 76.2758 28.82 76.9398 28.82C77.1798 28.82 77.3944 28.86 77.5838 28.94C77.7731 29.0173 77.9331 29.1267 78.0638 29.268C78.1944 29.4067 78.2931 29.5733 78.3598 29.768C78.4291 29.9627 78.4638 30.176 78.4638 30.408V33H78.0158C77.9224 33 77.8504 32.9867 77.7998 32.96C77.7491 32.9307 77.7091 32.8733 77.6798 32.788L77.5918 32.492C77.4878 32.5853 77.3864 32.668 77.2878 32.74C77.1891 32.8093 77.0864 32.868 76.9798 32.916C76.8731 32.964 76.7584 33 76.6358 33.024C76.5158 33.0507 76.3824 33.064 76.2358 33.064C76.0624 33.064 75.9024 33.0413 75.7558 32.996C75.6091 32.948 75.4824 32.8773 75.3758 32.784C75.2691 32.6907 75.1864 32.5747 75.1278 32.436C75.0691 32.2973 75.0398 32.136 75.0398 31.952C75.0398 31.848 75.0571 31.7453 75.0918 31.644C75.1264 31.54 75.1824 31.4413 75.2598 31.348C75.3398 31.2547 75.4424 31.1667 75.5678 31.084C75.6931 31.0013 75.8464 30.9293 76.0278 30.868C76.2118 30.8067 76.4251 30.7573 76.6678 30.72C76.9104 30.68 77.1878 30.656 77.4998 30.648V30.408C77.4998 30.1333 77.4411 29.9307 77.3238 29.8C77.2064 29.6667 77.0371 29.6 76.8158 29.6C76.6558 29.6 76.5224 29.6187 76.4158 29.656C76.3118 29.6933 76.2198 29.736 76.1398 29.784C76.0598 29.8293 75.9864 29.8707 75.9198 29.908C75.8558 29.9453 75.7838 29.964 75.7038 29.964C75.6344 29.964 75.5758 29.9467 75.5278 29.912C75.4798 29.8747 75.4411 29.832 75.4118 29.784L75.2358 29.468ZM80.3943 27.056V33H79.4062V27.056H80.3943Z" fill="black"/>
<g opacity="0.75">
<rect x="89" y="34" width="8" height="1" transform="rotate(-90 89 34)" fill="#979797"/>
</g>
<path d="M91 29C91 27.3431 92.3431 26 94 26H130C131.657 26 133 27.3431 133 29V31C133 32.6569 131.657 34 130 34H94C92.3431 34 91 32.6569 91 31V29Z" fill="#FF9300"/>
<path d="M103.874 32.16C104.074 32.16 104.242 32.136 104.378 32.088C104.514 32.04 104.622 31.976 104.702 31.896C104.785 31.816 104.844 31.7227 104.878 31.616C104.916 31.5093 104.934 31.396 104.934 31.276C104.934 31.1507 104.914 31.0387 104.874 30.94C104.834 30.8387 104.772 30.7533 104.686 30.684C104.601 30.612 104.49 30.5573 104.354 30.52C104.221 30.4827 104.06 30.464 103.87 30.464H102.786V32.16H103.874ZM102.786 28.048V29.72H103.642C104.01 29.72 104.288 29.6533 104.474 29.52C104.664 29.3867 104.758 29.1747 104.758 28.884C104.758 28.5827 104.673 28.368 104.502 28.24C104.332 28.112 104.065 28.048 103.702 28.048H102.786ZM103.702 27.216C104.081 27.216 104.405 27.252 104.674 27.324C104.944 27.396 105.164 27.4987 105.334 27.632C105.508 27.7653 105.634 27.9267 105.714 28.116C105.794 28.3053 105.834 28.5187 105.834 28.756C105.834 28.892 105.814 29.0227 105.774 29.148C105.734 29.2707 105.672 29.3867 105.586 29.496C105.504 29.6027 105.397 29.7 105.266 29.788C105.138 29.876 104.985 29.9507 104.806 30.012C105.601 30.1907 105.998 30.62 105.998 31.3C105.998 31.5453 105.952 31.772 105.858 31.98C105.765 32.188 105.629 32.368 105.45 32.52C105.272 32.6693 105.052 32.7867 104.79 32.872C104.529 32.9573 104.23 33 103.894 33H101.71V27.216H103.702ZM107.674 29.608C107.802 29.3627 107.954 29.1707 108.13 29.032C108.306 28.8907 108.514 28.82 108.754 28.82C108.943 28.82 109.095 28.8613 109.21 28.944L109.146 29.684C109.133 29.732 109.113 29.7667 109.086 29.788C109.062 29.8067 109.029 29.816 108.986 29.816C108.946 29.816 108.886 29.8093 108.806 29.796C108.729 29.7827 108.653 29.776 108.578 29.776C108.469 29.776 108.371 29.792 108.286 29.824C108.201 29.856 108.123 29.9027 108.054 29.964C107.987 30.0227 107.927 30.0947 107.874 30.18C107.823 30.2653 107.775 30.3627 107.73 30.472V33H106.742V28.896H107.322C107.423 28.896 107.494 28.9147 107.534 28.952C107.574 28.9867 107.601 29.0507 107.614 29.144L107.674 29.608ZM110.75 28.896V33H109.758V28.896H110.75ZM110.886 27.7C110.886 27.7853 110.869 27.8653 110.834 27.94C110.8 28.0147 110.753 28.08 110.694 28.136C110.638 28.192 110.572 28.2373 110.494 28.272C110.417 28.304 110.334 28.32 110.246 28.32C110.161 28.32 110.08 28.304 110.002 28.272C109.928 28.2373 109.862 28.192 109.806 28.136C109.75 28.08 109.705 28.0147 109.67 27.94C109.638 27.8653 109.622 27.7853 109.622 27.7C109.622 27.612 109.638 27.5293 109.67 27.452C109.705 27.3747 109.75 27.308 109.806 27.252C109.862 27.196 109.928 27.152 110.002 27.12C110.08 27.0853 110.161 27.068 110.246 27.068C110.334 27.068 110.417 27.0853 110.494 27.12C110.572 27.152 110.638 27.196 110.694 27.252C110.753 27.308 110.8 27.3747 110.834 27.452C110.869 27.5293 110.886 27.612 110.886 27.7ZM113.258 30.848C113.38 30.848 113.487 30.832 113.578 30.8C113.668 30.7653 113.743 30.7187 113.802 30.66C113.863 30.6013 113.908 30.5307 113.938 30.448C113.97 30.3653 113.986 30.2747 113.986 30.176C113.986 29.9733 113.924 29.8133 113.802 29.696C113.682 29.576 113.5 29.516 113.258 29.516C113.015 29.516 112.832 29.576 112.71 29.696C112.59 29.8133 112.53 29.9733 112.53 30.176C112.53 30.272 112.544 30.3613 112.574 30.444C112.606 30.5267 112.651 30.5987 112.71 30.66C112.771 30.7187 112.847 30.7653 112.938 30.8C113.031 30.832 113.138 30.848 113.258 30.848ZM114.374 33.184C114.374 33.104 114.35 33.0387 114.302 32.988C114.254 32.9373 114.188 32.8987 114.106 32.872C114.023 32.8427 113.926 32.8213 113.814 32.808C113.704 32.7947 113.587 32.7853 113.462 32.78C113.339 32.772 113.211 32.7653 113.078 32.76C112.947 32.7547 112.819 32.744 112.694 32.728C112.584 32.7893 112.495 32.8613 112.426 32.944C112.359 33.0267 112.326 33.1227 112.326 33.232C112.326 33.304 112.343 33.3707 112.378 33.432C112.415 33.496 112.472 33.5507 112.55 33.596C112.63 33.6413 112.732 33.676 112.858 33.7C112.983 33.7267 113.136 33.74 113.318 33.74C113.502 33.74 113.66 33.7253 113.794 33.696C113.927 33.6693 114.036 33.6307 114.122 33.58C114.21 33.532 114.274 33.4733 114.314 33.404C114.354 33.3373 114.374 33.264 114.374 33.184ZM115.358 29.036V29.404C115.358 29.5213 115.287 29.5933 115.146 29.62L114.778 29.688C114.834 29.8293 114.862 29.984 114.862 30.152C114.862 30.3547 114.82 30.5387 114.738 30.704C114.658 30.8667 114.546 31.0053 114.402 31.12C114.258 31.2347 114.087 31.324 113.89 31.388C113.695 31.4493 113.484 31.48 113.258 31.48C113.178 31.48 113.1 31.476 113.026 31.468C112.951 31.46 112.878 31.4493 112.806 31.436C112.678 31.5133 112.614 31.6 112.614 31.696C112.614 31.7787 112.651 31.84 112.726 31.88C112.803 31.9173 112.904 31.944 113.03 31.96C113.155 31.976 113.298 31.9867 113.458 31.992C113.618 31.9947 113.782 32.0027 113.95 32.016C114.118 32.0293 114.282 32.0533 114.442 32.088C114.602 32.12 114.744 32.172 114.87 32.244C114.995 32.316 115.095 32.4147 115.17 32.54C115.247 32.6627 115.286 32.8213 115.286 33.016C115.286 33.1973 115.24 33.3733 115.15 33.544C115.062 33.7147 114.932 33.8667 114.762 34C114.594 34.1333 114.386 34.24 114.138 34.32C113.892 34.4027 113.612 34.444 113.298 34.444C112.988 34.444 112.719 34.4133 112.49 34.352C112.26 34.2933 112.07 34.2133 111.918 34.112C111.766 34.0133 111.652 33.8987 111.578 33.768C111.503 33.6373 111.466 33.5013 111.466 33.36C111.466 33.168 111.523 33.008 111.638 32.88C111.755 32.7493 111.915 32.6453 112.118 32.568C112.008 32.512 111.922 32.4373 111.858 32.344C111.794 32.2507 111.762 32.128 111.762 31.976C111.762 31.9147 111.772 31.852 111.794 31.788C111.818 31.7213 111.851 31.656 111.894 31.592C111.939 31.528 111.995 31.468 112.062 31.412C112.128 31.3533 112.207 31.3013 112.298 31.256C112.09 31.144 111.926 30.9947 111.806 30.808C111.688 30.6213 111.63 30.4027 111.63 30.152C111.63 29.9493 111.67 29.7667 111.75 29.604C111.832 29.4387 111.946 29.2987 112.09 29.184C112.236 29.0667 112.408 28.9773 112.606 28.916C112.806 28.8547 113.023 28.824 113.258 28.824C113.434 28.824 113.599 28.8427 113.754 28.88C113.908 28.9147 114.05 28.9667 114.178 29.036H115.358ZM116.972 29.336C117.132 29.1867 117.308 29.0653 117.5 28.972C117.692 28.8787 117.917 28.832 118.176 28.832C118.4 28.832 118.599 28.8707 118.772 28.948C118.945 29.0227 119.089 29.1293 119.204 29.268C119.321 29.404 119.409 29.568 119.468 29.76C119.529 29.9493 119.56 30.1587 119.56 30.388V33H118.572V30.388C118.572 30.1373 118.515 29.944 118.4 29.808C118.285 29.6693 118.111 29.6 117.876 29.6C117.705 29.6 117.545 29.6387 117.396 29.716C117.247 29.7933 117.105 29.8987 116.972 30.032V33H115.984V27.056H116.972V29.336ZM121.813 33.064C121.456 33.064 121.181 32.964 120.989 32.764C120.8 32.5613 120.705 32.2827 120.705 31.928V29.636H120.285C120.232 29.636 120.186 29.6187 120.149 29.584C120.112 29.5493 120.093 29.4973 120.093 29.428V29.036L120.753 28.928L120.961 27.808C120.974 27.7547 121 27.7133 121.037 27.684C121.074 27.6547 121.122 27.64 121.181 27.64H121.693V28.932H122.789V29.636H121.693V31.86C121.693 31.988 121.724 32.088 121.785 32.16C121.849 32.232 121.936 32.268 122.045 32.268C122.106 32.268 122.157 32.2613 122.197 32.248C122.24 32.232 122.276 32.216 122.305 32.2C122.337 32.184 122.365 32.1693 122.389 32.156C122.413 32.14 122.437 32.132 122.461 32.132C122.49 32.132 122.514 32.14 122.533 32.156C122.552 32.1693 122.572 32.1907 122.593 32.22L122.889 32.7C122.745 32.82 122.58 32.9107 122.393 32.972C122.206 33.0333 122.013 33.064 121.813 33.064Z" fill="black"/>
<path d="M3.5 25H131.5V24H3.5V25ZM134 27.5V32.5H135V27.5H134ZM131.5 35H3.5V36H131.5V35ZM1 32.5V27.5H0V32.5H1ZM3.5 35C2.11929 35 1 33.8807 1 32.5H0C0 34.433 1.567 36 3.5 36V35ZM134 32.5C134 33.8807 132.881 35 131.5 35V36C133.433 36 135 34.433 135 32.5H134ZM131.5 25C132.881 25 134 26.1193 134 27.5H135C135 25.567 133.433 24 131.5 24V25ZM3.5 24C1.567 24 0 25.567 0 27.5H1C1 26.1193 2.11929 25 3.5 25V24Z" fill="#979797"/>
</svg>
