<svg width="37" height="12" viewBox="0 0 37 12" fill="none" xmlns="http://www.w3.org/2000/svg">
<path d="M0.5 3.5C0.5 1.84315 1.84315 0.5 3.5 0.5H33.5C35.1569 0.5 36.5 1.84315 36.5 3.5V8.5C36.5 10.1569 35.1569 11.5 33.5 11.5H3.5C1.84315 11.5 0.5 10.1569 0.5 8.5V3.5Z" fill="#E3E3E3"/>
<path d="M12.7787 4.268C12.7467 4.324 12.712 4.36533 12.6747 4.392C12.64 4.416 12.596 4.428 12.5427 4.428C12.4867 4.428 12.4254 4.408 12.3587 4.368C12.2947 4.32533 12.2174 4.27867 12.1267 4.228C12.036 4.17733 11.9294 4.132 11.8067 4.092C11.6867 4.04933 11.544 4.028 11.3787 4.028C11.2294 4.028 11.0987 4.04667 10.9867 4.084C10.8747 4.11867 10.78 4.168 10.7027 4.232C10.628 4.296 10.572 4.37333 10.5347 4.464C10.4974 4.552 10.4787 4.64933 10.4787 4.756C10.4787 4.892 10.516 5.00533 10.5907 5.096C10.668 5.18667 10.7694 5.264 10.8947 5.328C11.02 5.392 11.1627 5.44933 11.3227 5.5C11.4827 5.55067 11.6467 5.60533 11.8147 5.664C11.9827 5.72 12.1467 5.78667 12.3067 5.864C12.4667 5.93867 12.6094 6.03467 12.7347 6.152C12.86 6.26667 12.96 6.408 13.0347 6.576C13.112 6.744 13.1507 6.948 13.1507 7.188C13.1507 7.44933 13.1054 7.69467 13.0147 7.924C12.9267 8.15067 12.796 8.34933 12.6227 8.52C12.452 8.688 12.2427 8.82133 11.9947 8.92C11.7467 9.016 11.4627 9.064 11.1427 9.064C10.9587 9.064 10.7774 9.04533 10.5987 9.008C10.42 8.97333 10.248 8.92267 10.0827 8.856C9.92002 8.78933 9.76669 8.70933 9.62269 8.616C9.47869 8.52267 9.35069 8.41867 9.23869 8.304L9.55469 7.788C9.58135 7.75067 9.61602 7.72 9.65869 7.696C9.70135 7.66933 9.74669 7.656 9.79469 7.656C9.86135 7.656 9.93335 7.684 10.0107 7.74C10.088 7.79333 10.18 7.85333 10.2867 7.92C10.3934 7.98667 10.5174 8.048 10.6587 8.104C10.8027 8.15733 10.9747 8.184 11.1747 8.184C11.4814 8.184 11.7187 8.112 11.8867 7.968C12.0547 7.82133 12.1387 7.612 12.1387 7.34C12.1387 7.188 12.1 7.064 12.0227 6.968C11.948 6.872 11.848 6.792 11.7227 6.728C11.5974 6.66133 11.4547 6.60533 11.2947 6.56C11.1347 6.51467 10.972 6.46533 10.8067 6.412C10.6414 6.35867 10.4787 6.29467 10.3187 6.22C10.1587 6.14533 10.016 6.048 9.89069 5.928C9.76535 5.808 9.66402 5.65867 9.58669 5.48C9.51202 5.29867 9.47469 5.076 9.47469 4.812C9.47469 4.60133 9.51602 4.396 9.59869 4.196C9.68402 3.996 9.80669 3.81867 9.96669 3.664C10.1267 3.50933 10.324 3.38533 10.5587 3.292C10.7934 3.19867 11.0627 3.152 11.3667 3.152C11.708 3.152 12.0227 3.20533 12.3107 3.312C12.5987 3.41867 12.844 3.568 13.0467 3.76L12.7787 4.268ZM15.1216 9.064C14.7643 9.064 14.4896 8.964 14.2976 8.764C14.1083 8.56133 14.0136 8.28267 14.0136 7.928V5.636H13.5936C13.5403 5.636 13.495 5.61867 13.4576 5.584C13.4203 5.54933 13.4016 5.49733 13.4016 5.428V5.036L14.0616 4.928L14.2696 3.808C14.283 3.75467 14.3083 3.71333 14.3456 3.684C14.383 3.65467 14.431 3.64 14.4896 3.64H15.0016V4.932H16.0976V5.636H15.0016V7.86C15.0016 7.988 15.0323 8.088 15.0936 8.16C15.1576 8.232 15.2443 8.268 15.3536 8.268C15.415 8.268 15.4656 8.26133 15.5056 8.248C15.5483 8.232 15.5843 8.216 15.6136 8.2C15.6456 8.184 15.6736 8.16933 15.6976 8.156C15.7216 8.14 15.7456 8.132 15.7696 8.132C15.799 8.132 15.823 8.14 15.8416 8.156C15.8603 8.16933 15.8803 8.19067 15.9016 8.22L16.1976 8.7C16.0536 8.82 15.8883 8.91067 15.7016 8.972C15.515 9.03333 15.3216 9.064 15.1216 9.064ZM18.5149 4.832C18.8189 4.832 19.0949 4.88133 19.3429 4.98C19.5936 5.07867 19.8069 5.21867 19.9829 5.4C20.1616 5.58133 20.2989 5.80267 20.3949 6.064C20.4909 6.32533 20.5389 6.61733 20.5389 6.94C20.5389 7.26533 20.4909 7.55867 20.3949 7.82C20.2989 8.08133 20.1616 8.304 19.9829 8.488C19.8069 8.672 19.5936 8.81333 19.3429 8.912C19.0949 9.01067 18.8189 9.06 18.5149 9.06C18.2083 9.06 17.9296 9.01067 17.6789 8.912C17.4283 8.81333 17.2136 8.672 17.0349 8.488C16.8589 8.304 16.7216 8.08133 16.6229 7.82C16.5269 7.55867 16.4789 7.26533 16.4789 6.94C16.4789 6.61733 16.5269 6.32533 16.6229 6.064C16.7216 5.80267 16.8589 5.58133 17.0349 5.4C17.2136 5.21867 17.4283 5.07867 17.6789 4.98C17.9296 4.88133 18.2083 4.832 18.5149 4.832ZM18.5149 8.3C18.8563 8.3 19.1083 8.18533 19.2709 7.956C19.4363 7.72667 19.5189 7.39067 19.5189 6.948C19.5189 6.50533 19.4363 6.168 19.2709 5.936C19.1083 5.704 18.8563 5.588 18.5149 5.588C18.1683 5.588 17.9109 5.70533 17.7429 5.94C17.5776 6.172 17.4949 6.508 17.4949 6.948C17.4949 7.388 17.5776 7.724 17.7429 7.956C17.9109 8.18533 18.1683 8.3 18.5149 8.3ZM22.2247 5.608C22.3527 5.36267 22.5047 5.17067 22.6807 5.032C22.8567 4.89067 23.0647 4.82 23.3047 4.82C23.494 4.82 23.646 4.86133 23.7607 4.944L23.6967 5.684C23.6834 5.732 23.6634 5.76667 23.6367 5.788C23.6127 5.80667 23.5794 5.816 23.5367 5.816C23.4967 5.816 23.4367 5.80933 23.3567 5.796C23.2794 5.78267 23.2034 5.776 23.1287 5.776C23.0194 5.776 22.922 5.792 22.8367 5.824C22.7514 5.856 22.674 5.90267 22.6047 5.964C22.538 6.02267 22.478 6.09467 22.4247 6.18C22.374 6.26533 22.326 6.36267 22.2807 6.472V9H21.2927V4.896H21.8727C21.974 4.896 22.0447 4.91467 22.0847 4.952C22.1247 4.98667 22.1514 5.05067 22.1647 5.144L22.2247 5.608ZM26.8039 6.476C26.8039 6.348 26.7852 6.228 26.7479 6.116C26.7132 6.00133 26.6599 5.90133 26.5879 5.816C26.5159 5.73067 26.4239 5.664 26.3119 5.616C26.2025 5.56533 26.0745 5.54 25.9279 5.54C25.6425 5.54 25.4172 5.62133 25.2519 5.784C25.0892 5.94667 24.9852 6.17733 24.9399 6.476H26.8039ZM24.9199 7.072C24.9359 7.28267 24.9732 7.46533 25.0319 7.62C25.0905 7.772 25.1679 7.89867 25.2639 8C25.3599 8.09867 25.4732 8.17333 25.6039 8.224C25.7372 8.272 25.8839 8.296 26.0439 8.296C26.2039 8.296 26.3412 8.27733 26.4559 8.24C26.5732 8.20267 26.6745 8.16133 26.7599 8.116C26.8479 8.07067 26.9239 8.02933 26.9879 7.992C27.0545 7.95467 27.1185 7.936 27.1799 7.936C27.2625 7.936 27.3239 7.96667 27.3639 8.028L27.6479 8.388C27.5385 8.516 27.4159 8.624 27.2799 8.712C27.1439 8.79733 27.0012 8.86667 26.8519 8.92C26.7052 8.97067 26.5545 9.00667 26.3999 9.028C26.2479 9.04933 26.0999 9.06 25.9559 9.06C25.6705 9.06 25.4052 9.01333 25.1599 8.92C24.9145 8.824 24.7012 8.684 24.5199 8.5C24.3385 8.31333 24.1959 8.084 24.0919 7.812C23.9879 7.53733 23.9359 7.22 23.9359 6.86C23.9359 6.58 23.9812 6.31733 24.0719 6.072C24.1625 5.824 24.2919 5.60933 24.4599 5.428C24.6305 5.244 24.8372 5.09867 25.0799 4.992C25.3252 4.88533 25.6012 4.832 25.9079 4.832C26.1665 4.832 26.4052 4.87333 26.6239 4.956C26.8425 5.03867 27.0305 5.16 27.1879 5.32C27.3452 5.47733 27.4679 5.672 27.5559 5.904C27.6465 6.13333 27.6919 6.396 27.6919 6.692C27.6919 6.84133 27.6759 6.94267 27.6439 6.996C27.6119 7.04667 27.5505 7.072 27.4599 7.072H24.9199Z" fill="black"/>
<path d="M3.5 1H33.5V0H3.5V1ZM36 3.5V8.5H37V3.5H36ZM33.5 11H3.5V12H33.5V11ZM1 8.5V3.5H0V8.5H1ZM3.5 11C2.11929 11 1 9.88071 1 8.5H0C0 10.433 1.567 12 3.5 12V11ZM36 8.5C36 9.88071 34.8807 11 33.5 11V12C35.433 12 37 10.433 37 8.5H36ZM33.5 1C34.8807 1 36 2.11929 36 3.5H37C37 1.567 35.433 0 33.5 0V1ZM3.5 0C1.567 0 0 1.567 0 3.5H1C1 2.11929 2.11929 1 3.5 1V0Z" fill="#979797"/>
</svg>
