<?xml version="1.0" encoding="utf-8"?>
<svg width="399px" height="84px" viewbox="0 0 399 84" version="1.1" xmlns:xlink="http://www.w3.org/1999/xlink" xmlns="http://www.w3.org/2000/svg">
  <defs>
    <path d="M0 0L399 0L399 84L0 84L0 0Z" id="path_1" />
    <rect width="399" height="84" id="artboard_1" />
    <clipPath id="clip_1">
      <use xlink:href="#artboard_1" clip-rule="evenodd" />
    </clipPath>
    <clipPath id="mask_1">
      <use xlink:href="#path_1" />
    </clipPath>
  </defs>
  <g id="bmp00154" clip-path="url(#clip_1)">
    <path d="M0 0L399 0L399 84L0 84L0 0Z" id="Background" fill="none" fill-rule="evenodd" stroke="none" />
    <g clip-path="url(#mask_1)">
      <path d="M1 0L0 8.74228e-08L0 14L1 14L1 0L1 0Z" transform="translate(143 0)" id="Shape" fill="#2B3E80" fill-rule="evenodd" stroke="none" />
      <path d="M1 0L0 8.74228e-08L0 14L1 14L1 0L1 0Z" transform="translate(255 0)" id="Shape" fill="#2B3E80" fill-rule="evenodd" stroke="none" />
      <path d="M0 0L123 0" transform="translate(138 7)" id="Shape" fill="none" fill-rule="evenodd" stroke="#2B3E80" stroke-width="2" />
      <path d="M0 6L111 6L111 0L0 6L0 6Z" transform="translate(144 0)" id="Shape" fill="#7B8ECE" fill-rule="evenodd" stroke="none" />
      <path d="M1 0L0 0L0 14L1 14L1 0L1 0Z" transform="translate(143 14)" id="Shape" fill="#2B3E80" fill-rule="evenodd" stroke="none" />
      <path d="M1 0L0 0L0 14L1 14L1 0L1 0Z" transform="translate(255 14)" id="Shape" fill="#2B3E80" fill-rule="evenodd" stroke="none" />
      <path d="M0 0L123 0" transform="translate(138 21)" id="Shape" fill="none" fill-rule="evenodd" stroke="#2B3E80" stroke-width="2" />
      <path d="M0 6L61 6L61 0L0 6L0 6Z" transform="translate(194 14)" id="Shape" fill="#7B8ECE" fill-rule="evenodd" stroke="none" />
      <path d="M61 0L0 0L0 6L61 0L61 0Z" transform="translate(144 22)" id="Shape" fill="#7B8ECE" fill-rule="evenodd" stroke="none" />
      <path d="M1 0L0 0L0 8L1 8L1 0L1 0Z" transform="translate(199 17)" id="Shape" fill="#2B3E80" fill-rule="evenodd" stroke="none" />
      <path d="M0 0L123 0" transform="translate(138 35)" id="Shape" fill="none" fill-rule="evenodd" stroke="#2B3E80" stroke-width="2" />
      <path d="M0 4L61 4L61 0L0 4L0 4Z" transform="translate(194 30)" id="Shape" fill="#7B8ECE" fill-rule="evenodd" stroke="none" />
      <path d="M61 0L0 0L0 4L61 0L61 0Z" transform="translate(144 36)" id="Shape" fill="#7B8ECE" fill-rule="evenodd" stroke="none" />
      <path d="M1 0L0 0L0 4L1 4L1 0L1 0Z" transform="translate(143 36)" id="Shape" fill="#2B3E80" fill-rule="evenodd" stroke="none" />
      <path d="M1 0L0 0L0 3.5L1 3.5L1 0L1 0Z" transform="translate(151 36)" id="Shape" fill="#2B3E80" fill-rule="evenodd" stroke="none" />
      <path d="M1 0L0 0L0 3L1 3L1 0L1 0Z" transform="translate(159 36)" id="Shape" fill="#2B3E80" fill-rule="evenodd" stroke="none" />
      <path d="M1 0L0 0L0 2.5L1 2.5L1 0L1 0Z" transform="translate(167 36)" id="Shape" fill="#2B3E80" fill-rule="evenodd" stroke="none" />
      <path d="M1 0L0 0L0 2L1 2L1 0L1 0Z" transform="translate(175 36)" id="Shape" fill="#2B3E80" fill-rule="evenodd" stroke="none" />
      <path d="M1 0L0 0L0 1L1 1L1 0L1 0Z" transform="translate(183 36)" id="Shape" fill="#2B3E80" fill-rule="evenodd" stroke="none" />
      <path d="M1 0L0 0L0 1L1 1L1 0L1 0Z" transform="translate(191 36)" id="Shape" fill="#2B3E80" fill-rule="evenodd" stroke="none" />
      <path d="M0 4L1 4L1 0L0 0L0 4L0 4Z" transform="translate(255 30)" id="Shape" fill="#2B3E80" fill-rule="evenodd" stroke="none" />
      <path d="M0 3.5L1 3.5L1 0L0 0L0 3.5L0 3.5Z" transform="translate(247 30.5)" id="Shape" fill="#2B3E80" fill-rule="evenodd" stroke="none" />
      <path d="M0 3L1 3L1 0L0 0L0 3L0 3Z" transform="translate(239 31)" id="Shape" fill="#2B3E80" fill-rule="evenodd" stroke="none" />
      <path d="M0 2.5L1 2.5L1 0L0 0L0 2.5L0 2.5Z" transform="translate(231 31.5)" id="Shape" fill="#2B3E80" fill-rule="evenodd" stroke="none" />
      <path d="M0 2L1 2L1 0L0 0L0 2L0 2Z" transform="translate(223 32)" id="Shape" fill="#2B3E80" fill-rule="evenodd" stroke="none" />
      <path d="M0 1L1 1L1 0L0 0L0 1L0 1Z" transform="translate(215 33)" id="Shape" fill="#2B3E80" fill-rule="evenodd" stroke="none" />
      <path d="M0 1L1 1L1 0L0 0L0 1L0 1Z" transform="translate(207 33.5)" id="Shape" fill="#2B3E80" fill-rule="evenodd" stroke="none" />
      <path d="M1 0L0 0L0 8L1 8L1 0L1 0Z" transform="translate(199 31)" id="Shape" fill="#2B3E80" fill-rule="evenodd" stroke="none" />
      <path d="M1 0L0 8.74228e-08L0 14L1 14L1 0L1 0Z" transform="translate(276 0)" id="Shape" fill="#1437B8" fill-rule="evenodd" stroke="none" />
      <path d="M1 0L0 8.74228e-08L0 14L1 14L1 0L1 0Z" transform="translate(388 0)" id="Shape" fill="#1437B8" fill-rule="evenodd" stroke="none" />
      <path d="M0 0L123 0" transform="translate(271 7)" id="Shape" fill="none" fill-rule="evenodd" stroke="#1437B8" stroke-width="2" />
      <path d="M0 6L111 6L111 0L0 6L0 6Z" transform="translate(277 0)" id="Shape" fill="#3C8DFC" fill-rule="evenodd" stroke="none" />
      <path d="M1 0L0 0L0 14L1 14L1 0L1 0Z" transform="translate(276 14)" id="Shape" fill="#1437B8" fill-rule="evenodd" stroke="none" />
      <path d="M1 0L0 0L0 14L1 14L1 0L1 0Z" transform="translate(388 14)" id="Shape" fill="#1437B8" fill-rule="evenodd" stroke="none" />
      <path d="M0 0L123 0" transform="translate(271 21)" id="Shape" fill="none" fill-rule="evenodd" stroke="#1437B8" stroke-width="2" />
      <path d="M0 6L61 6L61 0L0 6L0 6Z" transform="translate(327 14)" id="Shape" fill="#3C8DFC" fill-rule="evenodd" stroke="none" />
      <path d="M61 0L0 0L0 6L61 0L61 0Z" transform="translate(277 22)" id="Shape" fill="#3C8DFC" fill-rule="evenodd" stroke="none" />
      <path d="M1 0L0 0L0 8L1 8L1 0L1 0Z" transform="translate(332 17)" id="Shape" fill="#1437B8" fill-rule="evenodd" stroke="none" />
      <path d="M0 0L123 0" transform="translate(271 35)" id="Shape" fill="none" fill-rule="evenodd" stroke="#1437B8" stroke-width="2" />
      <path d="M0 4L61 4L61 0L0 4L0 4Z" transform="translate(327 30)" id="Shape" fill="#3C8DFC" fill-rule="evenodd" stroke="none" />
      <path d="M61 0L0 0L0 4L61 0L61 0Z" transform="translate(277 36)" id="Shape" fill="#3C8DFC" fill-rule="evenodd" stroke="none" />
      <path d="M1 0L0 0L0 4L1 4L1 0L1 0Z" transform="translate(276 36)" id="Shape" fill="#1437B8" fill-rule="evenodd" stroke="none" />
      <path d="M1 0L0 0L0 3.5L1 3.5L1 0L1 0Z" transform="translate(284 36)" id="Shape" fill="#1437B8" fill-rule="evenodd" stroke="none" />
      <path d="M1 0L0 0L0 3L1 3L1 0L1 0Z" transform="translate(292 36)" id="Shape" fill="#1437B8" fill-rule="evenodd" stroke="none" />
      <path d="M1 0L0 0L0 2.5L1 2.5L1 0L1 0Z" transform="translate(300 36)" id="Shape" fill="#1437B8" fill-rule="evenodd" stroke="none" />
      <path d="M1 0L0 0L0 2L1 2L1 0L1 0Z" transform="translate(308 36)" id="Shape" fill="#1437B8" fill-rule="evenodd" stroke="none" />
      <path d="M1 0L0 0L0 1L1 1L1 0L1 0Z" transform="translate(316 36)" id="Shape" fill="#1437B8" fill-rule="evenodd" stroke="none" />
      <path d="M1 0L0 0L0 1L1 1L1 0L1 0Z" transform="translate(324 36)" id="Shape" fill="#1437B8" fill-rule="evenodd" stroke="none" />
      <path d="M0 4L1 4L1 0L0 0L0 4L0 4Z" transform="translate(388 30)" id="Shape" fill="#1437B8" fill-rule="evenodd" stroke="none" />
      <path d="M0 3.5L1 3.5L1 0L0 0L0 3.5L0 3.5Z" transform="translate(380 30.5)" id="Shape" fill="#1437B8" fill-rule="evenodd" stroke="none" />
      <path d="M0 3L1 3L1 0L0 0L0 3L0 3Z" transform="translate(372 31)" id="Shape" fill="#1437B8" fill-rule="evenodd" stroke="none" />
      <path d="M0 2.5L1 2.5L1 0L0 0L0 2.5L0 2.5Z" transform="translate(364 31.5)" id="Shape" fill="#1437B8" fill-rule="evenodd" stroke="none" />
      <path d="M0 2L1 2L1 0L0 0L0 2L0 2Z" transform="translate(356 32)" id="Shape" fill="#1437B8" fill-rule="evenodd" stroke="none" />
      <path d="M0 1L1 1L1 0L0 0L0 1L0 1Z" transform="translate(348 33)" id="Shape" fill="#1437B8" fill-rule="evenodd" stroke="none" />
      <path d="M0 1L1 1L1 0L0 0L0 1L0 1Z" transform="translate(340 33.5)" id="Shape" fill="#1437B8" fill-rule="evenodd" stroke="none" />
      <path d="M1 0L0 0L0 8L1 8L1 0L1 0Z" transform="translate(332 31)" id="Shape" fill="#1437B8" fill-rule="evenodd" stroke="none" />
      <path d="M1 0L0 0L0 14L1 14L1 0L1 0Z" transform="translate(10 42)" id="Shape" fill="#F5F5F6" fill-rule="evenodd" stroke="none" />
      <path d="M1 0L0 0L0 14L1 14L1 0L1 0Z" transform="translate(122 42)" id="Shape" fill="#F5F5F6" fill-rule="evenodd" stroke="none" />
      <path d="M0 0L123 0" transform="translate(5 49)" id="Shape" fill="none" fill-rule="evenodd" stroke="#F5F5F6" stroke-width="2" />
      <path d="M0 6L111 6L111 0L0 6L0 6Z" transform="translate(11 42)" id="Shape" fill="#B6B6BA" fill-rule="evenodd" stroke="none" />
      <path d="M1 0L0 0L0 14L1 14L1 0L1 0Z" transform="translate(10 56)" id="Shape" fill="#F5F5F6" fill-rule="evenodd" stroke="none" />
      <path d="M1 0L0 0L0 14L1 14L1 0L1 0Z" transform="translate(122 56)" id="Shape" fill="#F5F5F6" fill-rule="evenodd" stroke="none" />
      <path d="M0 0L123 0" transform="translate(5 63)" id="Shape" fill="none" fill-rule="evenodd" stroke="#F5F5F6" stroke-width="2" />
      <path d="M0 6L61 6L61 0L0 6L0 6Z" transform="translate(61 56)" id="Shape" fill="#B6B6BA" fill-rule="evenodd" stroke="none" />
      <path d="M61 0L0 0L0 6L61 0L61 0Z" transform="translate(11 64)" id="Shape" fill="#B6B6BA" fill-rule="evenodd" stroke="none" />
      <path d="M1 0L0 0L0 8L1 8L1 0L1 0Z" transform="translate(66 59)" id="Shape" fill="#FFFFFF" fill-rule="evenodd" stroke="none" />
      <path d="M0 0L123 0" transform="translate(5 77)" id="Shape" fill="none" fill-rule="evenodd" stroke="#F5F5F6" stroke-width="2" />
      <path d="M0 4L61 4L61 0L0 4L0 4Z" transform="translate(61 72)" id="Shape" fill="#B6B6BA" fill-rule="evenodd" stroke="none" />
      <path d="M61 0L0 0L0 4L61 0L61 0Z" transform="translate(11 78)" id="Shape" fill="#B6B6BA" fill-rule="evenodd" stroke="none" />
      <path d="M1 0L0 0L0 4L1 4L1 0L1 0Z" transform="translate(10 78)" id="Shape" fill="#F5F5F6" fill-rule="evenodd" stroke="none" />
      <path d="M1 0L0 0L0 3.5L1 3.5L1 0L1 0Z" transform="translate(18 78)" id="Shape" fill="#F5F5F6" fill-rule="evenodd" stroke="none" />
      <path d="M1 0L0 0L0 3L1 3L1 0L1 0Z" transform="translate(26 78)" id="Shape" fill="#F5F5F6" fill-rule="evenodd" stroke="none" />
      <path d="M1 0L0 0L0 2.5L1 2.5L1 0L1 0Z" transform="translate(34 78)" id="Shape" fill="#F5F5F6" fill-rule="evenodd" stroke="none" />
      <path d="M1 0L0 0L0 2L1 2L1 0L1 0Z" transform="translate(42 78)" id="Shape" fill="#F5F5F6" fill-rule="evenodd" stroke="none" />
      <path d="M1 0L0 0L0 1L1 1L1 0L1 0Z" transform="translate(50 78)" id="Shape" fill="#F5F5F6" fill-rule="evenodd" stroke="none" />
      <path d="M1 0L0 0L0 1L1 1L1 0L1 0Z" transform="translate(58 78)" id="Shape" fill="#F5F5F6" fill-rule="evenodd" stroke="none" />
      <path d="M0 4L1 4L1 0L0 0L0 4L0 4Z" transform="translate(122 72)" id="Shape" fill="#F5F5F6" fill-rule="evenodd" stroke="none" />
      <path d="M0 3.5L1 3.5L1 0L0 0L0 3.5L0 3.5Z" transform="translate(114 72.5)" id="Shape" fill="#F5F5F6" fill-rule="evenodd" stroke="none" />
      <path d="M0 3L1 3L1 0L0 0L0 3L0 3Z" transform="translate(106 73)" id="Shape" fill="#F5F5F6" fill-rule="evenodd" stroke="none" />
      <path d="M0 2.5L1 2.5L1 0L0 0L0 2.5L0 2.5Z" transform="translate(98 73.5)" id="Shape" fill="#F5F5F6" fill-rule="evenodd" stroke="none" />
      <path d="M0 2L1 2L1 0L0 0L0 2L0 2Z" transform="translate(90 74)" id="Shape" fill="#F5F5F6" fill-rule="evenodd" stroke="none" />
      <path d="M0 1L1 1L1 0L0 0L0 1L0 1Z" transform="translate(82 75)" id="Shape" fill="#F5F5F6" fill-rule="evenodd" stroke="none" />
      <path d="M0 1L1 1L1 0L0 0L0 1L0 1Z" transform="translate(74 75.5)" id="Shape" fill="#F5F5F6" fill-rule="evenodd" stroke="none" />
      <path d="M1 0L0 0L0 8L1 8L1 0L1 0Z" transform="translate(66 73)" id="Shape" fill="#F5F5F6" fill-rule="evenodd" stroke="none" />
      <path d="M1 0L0 0L0 14L1 14L1 0L1 0Z" transform="translate(144 42)" id="Shape" fill="#9DAADD" fill-rule="evenodd" stroke="none" />
      <path d="M1 0L0 0L0 14L1 14L1 0L1 0Z" transform="translate(256 42)" id="Shape" fill="#9DAADD" fill-rule="evenodd" stroke="none" />
      <path d="M0 0L123 0" transform="translate(139 49)" id="Shape" fill="none" fill-rule="evenodd" stroke="#9DAADD" stroke-width="2" />
      <path d="M0 6L111 6L111 0L0 6L0 6Z" transform="translate(145 42)" id="Shape" fill="#A5ABC2" fill-rule="evenodd" stroke="none" />
      <path d="M1 0L0 0L0 14L1 14L1 0L1 0Z" transform="translate(144 56)" id="Shape" fill="#9DAADD" fill-rule="evenodd" stroke="none" />
      <path d="M1 0L0 0L0 14L1 14L1 0L1 0Z" transform="translate(256 56)" id="Shape" fill="#9DAADD" fill-rule="evenodd" stroke="none" />
      <path d="M0 0L123 0" transform="translate(139 63)" id="Shape" fill="none" fill-rule="evenodd" stroke="#9DAADD" stroke-width="2" />
      <path d="M0 6L61 6L61 0L0 6L0 6Z" transform="translate(195 56)" id="Shape" fill="#A5ABC2" fill-rule="evenodd" stroke="none" />
      <path d="M61 0L0 0L0 6L61 0L61 0Z" transform="translate(145 64)" id="Shape" fill="#A5ABC2" fill-rule="evenodd" stroke="none" />
      <path d="M1 0L0 0L0 8L1 8L1 0L1 0Z" transform="translate(200 59)" id="Shape" fill="#9DAADD" fill-rule="evenodd" stroke="none" />
      <path d="M0 0L123 0" transform="translate(139 77)" id="Shape" fill="none" fill-rule="evenodd" stroke="#9DAADD" stroke-width="2" />
      <path d="M0 4L61 4L61 0L0 4L0 4Z" transform="translate(195 72)" id="Shape" fill="#A5ABC2" fill-rule="evenodd" stroke="none" />
      <path d="M61 0L0 0L0 4L61 0L61 0Z" transform="translate(145 78)" id="Shape" fill="#A5ABC2" fill-rule="evenodd" stroke="none" />
      <path d="M1 0L0 0L0 4L1 4L1 0L1 0Z" transform="translate(144 78)" id="Shape" fill="#9DAADD" fill-rule="evenodd" stroke="none" />
      <path d="M1 0L0 0L0 3.5L1 3.5L1 0L1 0Z" transform="translate(152 78)" id="Shape" fill="#9DAADD" fill-rule="evenodd" stroke="none" />
      <path d="M1 0L0 0L0 3L1 3L1 0L1 0Z" transform="translate(160 78)" id="Shape" fill="#9DAADD" fill-rule="evenodd" stroke="none" />
      <path d="M1 0L0 0L0 2.5L1 2.5L1 0L1 0Z" transform="translate(168 78)" id="Shape" fill="#9DAADD" fill-rule="evenodd" stroke="none" />
      <path d="M1 0L0 0L0 2L1 2L1 0L1 0Z" transform="translate(176 78)" id="Shape" fill="#9DAADD" fill-rule="evenodd" stroke="none" />
      <path d="M1 0L0 0L0 1L1 1L1 0L1 0Z" transform="translate(184 78)" id="Shape" fill="#9DAADD" fill-rule="evenodd" stroke="none" />
      <path d="M1 0L0 0L0 1L1 1L1 0L1 0Z" transform="translate(192 78)" id="Shape" fill="#9DAADD" fill-rule="evenodd" stroke="none" />
      <path d="M0 4L1 4L1 0L0 0L0 4L0 4Z" transform="translate(256 72)" id="Shape" fill="#9DAADD" fill-rule="evenodd" stroke="none" />
      <path d="M0 3.5L1 3.5L1 0L0 0L0 3.5L0 3.5Z" transform="translate(248 72.5)" id="Shape" fill="#9DAADD" fill-rule="evenodd" stroke="none" />
      <path d="M0 3L1 3L1 0L0 0L0 3L0 3Z" transform="translate(240 73)" id="Shape" fill="#9DAADD" fill-rule="evenodd" stroke="none" />
      <path d="M0 2.5L1 2.5L1 0L0 0L0 2.5L0 2.5Z" transform="translate(232 73.5)" id="Shape" fill="#9DAADD" fill-rule="evenodd" stroke="none" />
      <path d="M0 2L1 2L1 0L0 0L0 2L0 2Z" transform="translate(224 74)" id="Shape" fill="#9DAADD" fill-rule="evenodd" stroke="none" />
      <path d="M0 1L1 1L1 0L0 0L0 1L0 1Z" transform="translate(216 75)" id="Shape" fill="#9DAADD" fill-rule="evenodd" stroke="none" />
      <path d="M0 1L1 1L1 0L0 0L0 1L0 1Z" transform="translate(208 75.5)" id="Shape" fill="#9DAADD" fill-rule="evenodd" stroke="none" />
      <path d="M1 0L0 0L0 8L1 8L1 0L1 0Z" transform="translate(200 73)" id="Shape" fill="#9DAADD" fill-rule="evenodd" stroke="none" />
      <path d="M1 0L0 0L0 14L1 14L1 0L1 0Z" transform="translate(277 42)" id="Shape" fill="#74AEFE" fill-rule="evenodd" stroke="none" />
      <path d="M1 0L0 0L0 14L1 14L1 0L1 0Z" transform="translate(389 42)" id="Shape" fill="#74AEFE" fill-rule="evenodd" stroke="none" />
      <path d="M0 0L123 0" transform="translate(272 49)" id="Shape" fill="none" fill-rule="evenodd" stroke="#74AEFE" stroke-width="2" />
      <path d="M0 6L111 6L111 0L0 6L0 6Z" transform="translate(278 42)" id="Shape" fill="#2E86FE" fill-rule="evenodd" stroke="none" />
      <path d="M1 0L0 0L0 14L1 14L1 0L1 0Z" transform="translate(277 56)" id="Shape" fill="#74AEFE" fill-rule="evenodd" stroke="none" />
      <path d="M1 0L0 0L0 14L1 14L1 0L1 0Z" transform="translate(389 56)" id="Shape" fill="#74AEFE" fill-rule="evenodd" stroke="none" />
      <path d="M0 0L123 0" transform="translate(272 63)" id="Shape" fill="none" fill-rule="evenodd" stroke="#74AEFE" stroke-width="2" />
      <path d="M0 6L61 6L61 0L0 6L0 6Z" transform="translate(328 56)" id="Shape" fill="#2E86FE" fill-rule="evenodd" stroke="none" />
      <path d="M61 0L0 0L0 6L61 0L61 0Z" transform="translate(278 64)" id="Shape" fill="#2E86FE" fill-rule="evenodd" stroke="none" />
      <path d="M1 0L0 0L0 8L1 8L1 0L1 0Z" transform="translate(333 59)" id="Shape" fill="#74AEFE" fill-rule="evenodd" stroke="none" />
      <path d="M0 0L123 0" transform="translate(272 77)" id="Shape" fill="none" fill-rule="evenodd" stroke="#74AEFE" stroke-width="2" />
      <path d="M0 4L61 4L61 0L0 4L0 4Z" transform="translate(328 72)" id="Shape" fill="#2E86FE" fill-rule="evenodd" stroke="none" />
      <path d="M61 0L0 0L0 4L61 0L61 0Z" transform="translate(278 78)" id="Shape" fill="#2E86FE" fill-rule="evenodd" stroke="none" />
      <path d="M1 0L0 0L0 4L1 4L1 0L1 0Z" transform="translate(277 78)" id="Shape" fill="#74AEFE" fill-rule="evenodd" stroke="none" />
      <path d="M1 0L0 0L0 3.5L1 3.5L1 0L1 0Z" transform="translate(285 78)" id="Shape" fill="#74AEFE" fill-rule="evenodd" stroke="none" />
      <path d="M1 0L0 0L0 3L1 3L1 0L1 0Z" transform="translate(293 78)" id="Shape" fill="#74AEFE" fill-rule="evenodd" stroke="none" />
      <path d="M1 0L0 0L0 2.5L1 2.5L1 0L1 0Z" transform="translate(301 78)" id="Shape" fill="#74AEFE" fill-rule="evenodd" stroke="none" />
      <path d="M1 0L0 0L0 2L1 2L1 0L1 0Z" transform="translate(309 78)" id="Shape" fill="#74AEFE" fill-rule="evenodd" stroke="none" />
      <path d="M1 0L0 0L0 1L1 1L1 0L1 0Z" transform="translate(317 78)" id="Shape" fill="#74AEFE" fill-rule="evenodd" stroke="none" />
      <path d="M1 0L0 0L0 1L1 1L1 0L1 0Z" transform="translate(325 78)" id="Shape" fill="#74AEFE" fill-rule="evenodd" stroke="none" />
      <path d="M0 4L1 4L1 0L0 0L0 4L0 4Z" transform="translate(389 72)" id="Shape" fill="#74AEFE" fill-rule="evenodd" stroke="none" />
      <path d="M0 3.5L1 3.5L1 0L0 0L0 3.5L0 3.5Z" transform="translate(381 72.5)" id="Shape" fill="#74AEFE" fill-rule="evenodd" stroke="none" />
      <path d="M0 3L1 3L1 0L0 0L0 3L0 3Z" transform="translate(373 73)" id="Shape" fill="#74AEFE" fill-rule="evenodd" stroke="none" />
      <path d="M0 2.5L1 2.5L1 0L0 0L0 2.5L0 2.5Z" transform="translate(365 73.5)" id="Shape" fill="#74AEFE" fill-rule="evenodd" stroke="none" />
      <path d="M0 2L1 2L1 0L0 0L0 2L0 2Z" transform="translate(357 74)" id="Shape" fill="#74AEFE" fill-rule="evenodd" stroke="none" />
      <path d="M0 1L1 1L1 0L0 0L0 1L0 1Z" transform="translate(349 75)" id="Shape" fill="#74AEFE" fill-rule="evenodd" stroke="none" />
      <path d="M0 1L1 1L1 0L0 0L0 1L0 1Z" transform="translate(341 75.5)" id="Shape" fill="#74AEFE" fill-rule="evenodd" stroke="none" />
      <path d="M1 0L0 0L0 8L1 8L1 0L1 0Z" transform="translate(333 73)" id="Shape" fill="#74AEFE" fill-rule="evenodd" stroke="none" />
      <path d="M1 0L0 8.74228e-08L0 14L1 14L1 0L1 0Z" transform="translate(10 0)" id="Shape" fill="#000000" fill-rule="evenodd" stroke="none" />
      <path d="M1 0L0 8.74228e-08L0 14L1 14L1 0L1 0Z" transform="translate(122 0)" id="Shape" fill="#000000" fill-rule="evenodd" stroke="none" />
      <path d="M0 0L123 0" transform="translate(5 7)" id="Shape" fill="none" fill-rule="evenodd" stroke="#000000" stroke-width="2" />
      <path d="M0 6L111 6L111 0L0 6L0 6Z" transform="translate(11 0)" id="Shape" fill="#98999B" fill-rule="evenodd" stroke="none" />
      <path d="M1 0L0 0L0 14L1 14L1 0L1 0Z" transform="translate(10 14)" id="Shape" fill="#000000" fill-rule="evenodd" stroke="none" />
      <path d="M1 0L0 0L0 14L1 14L1 0L1 0Z" transform="translate(122 14)" id="Shape" fill="#000000" fill-rule="evenodd" stroke="none" />
      <path d="M0 0L123 0" transform="translate(5 21)" id="Shape" fill="none" fill-rule="evenodd" stroke="#000000" stroke-width="2" />
      <path d="M0 6L61 6L61 0L0 6L0 6Z" transform="translate(61 14)" id="Shape" fill="#98999B" fill-rule="evenodd" stroke="none" />
      <path d="M61 0L0 0L0 6L61 0L61 0Z" transform="translate(11 22)" id="Shape" fill="#98999B" fill-rule="evenodd" stroke="none" />
      <path d="M1 0L0 0L0 8L1 8L1 0L1 0Z" transform="translate(66 17)" id="Shape" fill="#000000" fill-rule="evenodd" stroke="none" />
      <path d="M0 0L123 0" transform="translate(5 35)" id="Shape" fill="none" fill-rule="evenodd" stroke="#000000" stroke-width="2" />
      <path d="M0 4L61 4L61 0L0 4L0 4Z" transform="translate(61 30)" id="Shape" fill="#98999B" fill-rule="evenodd" stroke="none" />
      <path d="M61 0L0 0L0 4L61 0L61 0Z" transform="translate(11 36)" id="Shape" fill="#98999B" fill-rule="evenodd" stroke="none" />
      <path d="M1 0L0 0L0 4L1 4L1 0L1 0Z" transform="translate(10 36)" id="Shape" fill="#000000" fill-rule="evenodd" stroke="none" />
      <path d="M1 0L0 0L0 3.5L1 3.5L1 0L1 0Z" transform="translate(18 36)" id="Shape" fill="#000000" fill-rule="evenodd" stroke="none" />
      <path d="M1 0L0 0L0 3L1 3L1 0L1 0Z" transform="translate(26 36)" id="Shape" fill="#000000" fill-rule="evenodd" stroke="none" />
      <path d="M1 0L0 0L0 2.5L1 2.5L1 0L1 0Z" transform="translate(34 36)" id="Shape" fill="#000000" fill-rule="evenodd" stroke="none" />
      <path d="M1 0L0 0L0 2L1 2L1 0L1 0Z" transform="translate(42 36)" id="Shape" fill="#000000" fill-rule="evenodd" stroke="none" />
      <path d="M1 0L0 0L0 1L1 1L1 0L1 0Z" transform="translate(50 36)" id="Shape" fill="#000000" fill-rule="evenodd" stroke="none" />
      <path d="M1 0L0 0L0 1L1 1L1 0L1 0Z" transform="translate(58 36)" id="Shape" fill="#000000" fill-rule="evenodd" stroke="none" />
      <path d="M0 4L1 4L1 0L0 0L0 4L0 4Z" transform="translate(122 30)" id="Shape" fill="#000000" fill-rule="evenodd" stroke="none" />
      <path d="M0 3.5L1 3.5L1 0L0 0L0 3.5L0 3.5Z" transform="translate(114 30.5)" id="Shape" fill="#000000" fill-rule="evenodd" stroke="none" />
      <path d="M0 3L1 3L1 0L0 0L0 3L0 3Z" transform="translate(106 31)" id="Shape" fill="#000000" fill-rule="evenodd" stroke="none" />
      <path d="M0 2.5L1 2.5L1 0L0 0L0 2.5L0 2.5Z" transform="translate(98 31.5)" id="Shape" fill="#000000" fill-rule="evenodd" stroke="none" />
      <path d="M0 2L1 2L1 0L0 0L0 2L0 2Z" transform="translate(90 32)" id="Shape" fill="#000000" fill-rule="evenodd" stroke="none" />
      <path d="M0 1L1 1L1 0L0 0L0 1L0 1Z" transform="translate(82 33)" id="Shape" fill="#000000" fill-rule="evenodd" stroke="none" />
      <path d="M0 1L1 1L1 0L0 0L0 1L0 1Z" transform="translate(74 33.5)" id="Shape" fill="#000000" fill-rule="evenodd" stroke="none" />
      <path d="M1 0L0 0L0 8L1 8L1 0L1 0Z" transform="translate(66 31)" id="Shape" fill="#000000" fill-rule="evenodd" stroke="none" />
    </g>
  </g>
</svg>