<?xml version="1.0" encoding="utf-8"?>
<svg width="34px" height="36px" viewbox="0 0 34 36" version="1.1" xmlns:xlink="http://www.w3.org/1999/xlink" xmlns="http://www.w3.org/2000/svg">
  <defs>
    <path d="M0 0L34 0L34 36L0 36L0 0Z" id="path_1" />
    <rect width="34" height="36" id="artboard_1" />
    <clipPath id="clip_1">
      <use xlink:href="#artboard_1" clip-rule="evenodd" />
    </clipPath>
    <clipPath id="mask_1">
      <use xlink:href="#path_1" />
    </clipPath>
  </defs>
  <g id="bmp00162" clip-path="url(#clip_1)">
    <path d="M0 0L34 0L34 36L0 36L0 0Z" id="Background" fill="none" fill-rule="evenodd" stroke="none" />
    <g clip-path="url(#mask_1)">
      <path d="M0 6L0 3C0 2.17157 0.292893 1.46447 0.87868 0.87868C1.46447 0.292893 2.17157 0 3 0L30 0C30.8284 0 31.5355 0.292893 32.1213 0.87868C32.7071 1.46447 33 2.17157 33 3L33 14C33 14.8284 32.7071 15.5355 32.1213 16.1213C31.5355 16.7071 30.8284 17 30 17L3 17C2.17157 17 1.46447 16.7071 0.87868 16.1213C0.292893 15.5355 0 14.8284 0 14L0 6Z" transform="translate(0.5 0.5)" id="Rectangle" fill="#E3E3E3" fill-rule="evenodd" stroke="none" />
      <path d="M0 2C0 0.89543 0.89543 0 2 0L28.5 0C29.6046 0 30.5 0.89543 30.5 2L30.5 4.5C30.5 5.60457 29.6046 6.5 28.5 6.5L2 6.5C0.89543 6.5 0 5.60457 0 4.5L0 2L0 2Z" transform="translate(1.75 2)" id="Shape" fill="#FF9300" fill-rule="evenodd" stroke="none" />
      <path d="M3.276 3.206L2.66 1.5225C2.62966 1.44783 2.59816 1.35917 2.5655 1.2565C2.53283 1.15383 2.50016 1.043 2.4675 0.924C2.43716 1.043 2.40566 1.155 2.373 1.26C2.34033 1.36267 2.30883 1.4525 2.2785 1.5295L1.666 3.206L3.276 3.206L3.276 3.206ZM4.9385 5.117L4.2105 5.117C4.12883 5.117 4.06233 5.09717 4.011 5.0575C3.95966 5.0155 3.92116 4.96417 3.8955 4.9035L3.5175 3.871L1.421 3.871L1.043 4.9035C1.02433 4.95717 0.98816 5.00617 0.9345 5.0505C0.88083 5.09483 0.81433 5.117 0.735 5.117L0 5.117L1.9915 0.056L2.9505 0.056L4.9385 5.117L4.9385 5.117ZM9.62383 0.056L9.62383 5.117L9.14083 5.117C9.06623 5.117 9.00323 5.10533 8.95183 5.082C8.90283 5.05633 8.85503 5.01433 8.80833 4.956L6.16585 1.582C6.17985 1.736 6.18685 1.87833 6.18685 2.009L6.18685 5.117L5.35735 5.117L5.35735 0.056L5.85085 0.056C5.89052 0.056 5.92435 0.0583301 5.95235 0.0630002C5.98268 0.06533 6.00835 0.07233 6.02935 0.0840001C6.05268 0.0933301 6.07485 0.1085 6.09585 0.1295C6.11685 0.14817 6.14018 0.17383 6.16585 0.2065L8.81883 3.5945C8.81183 3.51283 8.80603 3.43233 8.80133 3.353C8.79673 3.27367 8.79433 3.20017 8.79433 3.1325L8.79433 0.056L9.62383 0.056L9.62383 0.056ZM13.3199 3.206L12.7039 1.5225C12.6735 1.44783 12.642 1.35917 12.6094 1.2565C12.5767 1.15383 12.544 1.043 12.5114 0.924C12.481 1.043 12.4495 1.155 12.4169 1.26C12.3842 1.36267 12.3527 1.4525 12.3224 1.5295L11.7099 3.206L13.3199 3.206L13.3199 3.206ZM14.9824 5.117L14.2544 5.117C14.1727 5.117 14.1062 5.09717 14.0549 5.0575C14.0035 5.0155 13.965 4.96417 13.9394 4.9035L13.5614 3.871L11.4649 3.871L11.0869 4.9035C11.0682 4.95717 11.032 5.00617 10.9784 5.0505C10.9247 5.09483 10.8582 5.117 10.7789 5.117L10.0439 5.117L12.0354 0.056L12.9944 0.056L14.9824 5.117L14.9824 5.117ZM18.3657 4.34L18.3657 5.117L15.4012 5.117L15.4012 0.056L16.3427 0.056L16.3427 4.34L18.3657 4.34L18.3657 4.34ZM23.5817 2.5865C23.5817 2.9575 23.5199 3.30167 23.3962 3.619C23.2749 3.934 23.1022 4.207 22.8782 4.438C22.6542 4.669 22.3847 4.84983 22.0697 4.9805C21.7547 5.10883 21.4047 5.173 21.0197 5.173C20.637 5.173 20.2882 5.10883 19.9732 4.9805C19.6582 4.84983 19.3875 4.669 19.1612 4.438C18.9372 4.207 18.7634 3.934 18.6397 3.619C18.516 3.30167 18.4542 2.9575 18.4542 2.5865C18.4542 2.2155 18.516 1.8725 18.6397 1.5575C18.7634 1.24017 18.9372 0.966 19.1612 0.735C19.3875 0.504 19.6582 0.32433 19.9732 0.196C20.2882 0.06533 20.637 0 21.0197 0C21.2764 0 21.5179 0.0303302 21.7442 0.0910001C21.9705 0.14933 22.1782 0.23333 22.3672 0.343C22.5562 0.45033 22.7254 0.58217 22.8747 0.7385C23.0264 0.8925 23.1547 1.06517 23.2597 1.2565C23.3647 1.44783 23.444 1.6555 23.4977 1.8795C23.5537 2.1035 23.5817 2.33917 23.5817 2.5865L23.5817 2.5865ZM22.6192 2.5865C22.6192 2.30883 22.5819 2.06033 22.5072 1.841C22.4325 1.61933 22.3264 1.4315 22.1887 1.2775C22.051 1.1235 21.883 1.00567 21.6847 0.924C21.4887 0.84233 21.267 0.8015 21.0197 0.8015C20.7724 0.8015 20.5495 0.84233 20.3512 0.924C20.1552 1.00567 19.9872 1.1235 19.8472 1.2775C19.7095 1.4315 19.6034 1.61933 19.5287 1.841C19.454 2.06033 19.4167 2.30883 19.4167 2.5865C19.4167 2.86417 19.454 3.11383 19.5287 3.3355C19.6034 3.55483 19.7095 3.7415 19.8472 3.8955C19.9872 4.04717 20.1552 4.16383 20.3512 4.2455C20.5495 4.32717 20.7724 4.368 21.0197 4.368C21.267 4.368 21.4887 4.32717 21.6847 4.2455C21.883 4.16383 22.051 4.04717 22.1887 3.8955C22.3264 3.7415 22.4325 3.55483 22.5072 3.3355C22.5819 3.11383 22.6192 2.86417 22.6192 2.5865L22.6192 2.5865ZM28.4755 2.5795L28.4755 4.627C28.2189 4.816 27.9447 4.95483 27.653 5.0435C27.3637 5.12983 27.0534 5.173 26.722 5.173C26.309 5.173 25.9345 5.10883 25.5985 4.9805C25.2649 4.85217 24.979 4.67367 24.741 4.445C24.5054 4.21633 24.3234 3.94333 24.195 3.626C24.0667 3.30867 24.0025 2.96217 24.0025 2.5865C24.0025 2.20617 24.0644 1.85733 24.188 1.54C24.3117 1.22267 24.4867 0.94967 24.713 0.721C24.9417 0.49233 25.2182 0.315 25.5425 0.189C25.8669 0.0630002 26.2309 0 26.6345 0C26.8399 0 27.0312 0.01633 27.2085 0.049C27.3882 0.08167 27.5539 0.12717 27.7055 0.1855C27.8595 0.2415 27.9995 0.31033 28.1255 0.392C28.2515 0.47367 28.367 0.5635 28.472 0.6615L28.2025 1.0885C28.1605 1.15617 28.1057 1.19817 28.038 1.2145C27.9704 1.2285 27.8969 1.211 27.8175 1.162C27.7405 1.11767 27.6635 1.07333 27.5865 1.029C27.5095 0.98467 27.4232 0.94617 27.3275 0.9135C27.2342 0.88083 27.128 0.854 27.009 0.833C26.8924 0.812 26.757 0.8015 26.603 0.8015C26.3534 0.8015 26.127 0.8435 25.924 0.9275C25.7234 1.0115 25.5519 1.13167 25.4095 1.288C25.2672 1.44433 25.1575 1.63217 25.0805 1.8515C25.0035 2.07083 24.965 2.31583 24.965 2.5865C24.965 2.87583 25.0059 3.13483 25.0875 3.3635C25.1715 3.58983 25.2882 3.78233 25.4375 3.941C25.5892 4.09733 25.7712 4.2175 25.9835 4.3015C26.1959 4.38317 26.4327 4.424 26.694 4.424C26.8807 4.424 27.0475 4.40417 27.1945 4.3645C27.3415 4.32483 27.485 4.27117 27.625 4.2035L27.625 3.2865L26.988 3.2865C26.9274 3.2865 26.8795 3.27017 26.8445 3.2375C26.8119 3.2025 26.7955 3.1605 26.7955 3.1115L26.7955 2.5795L28.4755 2.5795L28.4755 2.5795Z" transform="translate(2.821167 2.8829956)" id="Shape" fill="#000000" fill-rule="evenodd" stroke="none" />
      <path d="M4.494 2.5865C4.494 2.9575 4.43217 3.2982 4.3085 3.6085C4.18484 3.9188 4.011 4.186 3.787 4.41C3.563 4.634 3.2935 4.8078 2.9785 4.9315C2.6635 5.0552 2.3135 5.117 1.9285 5.117L0 5.117L0 0.0559998L1.9285 0.0559998C2.3135 0.0559998 2.6635 0.118999 2.9785 0.245C3.2935 0.3687 3.563 0.5425 3.787 0.7665C4.011 0.988199 4.18484 1.2542 4.3085 1.5645C4.43217 1.8748 4.494 2.2155 4.494 2.5865L4.494 2.5865ZM3.528 2.5865C3.528 2.3088 3.49067 2.0603 3.416 1.841C3.34367 1.6193 3.2375 1.4327 3.0975 1.281C2.95984 1.127 2.79184 1.0092 2.5935 0.9275C2.3975 0.845799 2.17584 0.804999 1.9285 0.804999L0.945 0.804999L0.945 4.368L1.9285 4.368C2.17584 4.368 2.3975 4.3272 2.5935 4.2455C2.79184 4.1638 2.95984 4.0472 3.0975 3.8955C3.2375 3.7415 3.34367 3.5548 3.416 3.3355C3.49067 3.1138 3.528 2.8642 3.528 2.5865L3.528 2.5865ZM6.2202 5.117L5.2202 5.117L5.2202 0.0559998L6.2202 0.0559998L6.2202 5.117L6.2202 5.117ZM11.3653 2.5795L11.3653 4.627C11.1086 4.816 10.8344 4.9548 10.5428 5.0435C10.2534 5.1298 9.94315 5.173 9.61185 5.173C9.19885 5.173 8.82435 5.1088 8.48835 4.9805C8.15465 4.8522 7.86885 4.6737 7.63085 4.445C7.39515 4.2163 7.21315 3.9433 7.08485 3.626C6.95645 3.3087 6.89235 2.9622 6.89235 2.5865C6.89235 2.2062 6.95415 1.8573 7.07785 1.54C7.20145 1.2227 7.37645 0.949699 7.60285 0.721C7.83145 0.4923 8.10795 0.315 8.43235 0.188999C8.75665 0.0629997 9.12065 0 9.52435 0C9.72965 0 9.92095 0.0162992 10.0983 0.0489998C10.2779 0.0816994 10.4436 0.127199 10.5953 0.185499C10.7493 0.2415 10.8893 0.3103 11.0153 0.391999C11.1413 0.4737 11.2568 0.5635 11.3618 0.6615L11.0924 1.0885C11.0503 1.1562 10.9955 1.1982 10.9278 1.2145C10.8601 1.2285 10.7866 1.211 10.7073 1.162C10.6303 1.1177 10.5533 1.0733 10.4763 1.029C10.3993 0.984699 10.3129 0.946199 10.2174 0.9135C10.124 0.880799 10.0178 0.854 9.89885 0.832999C9.78215 0.811999 9.64685 0.801499 9.49285 0.801499C9.24315 0.801499 9.01685 0.843499 8.81385 0.9275C8.61315 1.0115 8.44165 1.1317 8.29935 1.288C8.15695 1.4443 8.04735 1.6322 7.97035 1.8515C7.89335 2.0708 7.85485 2.3158 7.85485 2.5865C7.85485 2.8758 7.89565 3.1348 7.97735 3.3635C8.06135 3.5898 8.17795 3.7823 8.32735 3.941C8.47895 4.0973 8.66095 4.2175 8.87335 4.3015C9.08565 4.3832 9.32245 4.424 9.58385 4.424C9.77045 4.424 9.93735 4.4042 10.0843 4.3645C10.2313 4.3248 10.3748 4.2712 10.5148 4.2035L10.5148 3.2865L9.87785 3.2865C9.81715 3.2865 9.76935 3.2702 9.73435 3.2375C9.70165 3.2025 9.68535 3.1605 9.68535 3.1115L9.68535 2.5795L11.3653 2.5795L11.3653 2.5795ZM13.1674 5.117L12.1674 5.117L12.1674 0.0559998L13.1674 0.0559998L13.1674 5.117L13.1674 5.117ZM17.6756 0.829499L16.1495 0.829499L16.1495 5.117L15.208 5.117L15.208 0.829499L13.682 0.829499L13.682 0.0559998L17.6756 0.0559998L17.6756 0.829499L17.6756 0.829499ZM20.4146 3.206L19.7986 1.5225C19.7682 1.4478 19.7367 1.3592 19.7041 1.2565C19.6714 1.1538 19.6388 1.043 19.6061 0.924C19.5758 1.043 19.5443 1.155 19.5117 1.26C19.479 1.3627 19.4474 1.4525 19.4172 1.5295L18.8046 3.206L20.4146 3.206L20.4146 3.206ZM22.0772 5.117L21.3491 5.117C21.2675 5.117 21.2009 5.0972 21.1496 5.0575C21.0982 5.0155 21.0597 4.9642 21.0341 4.9035L20.6561 3.871L18.5597 3.871L18.1817 4.9035C18.163 4.9572 18.1267 5.0062 18.0731 5.0505C18.0194 5.0948 17.9529 5.117 17.8736 5.117L17.1386 5.117L19.1301 0.0559998L20.0891 0.0559998L22.0772 5.117L22.0772 5.117ZM25.4604 4.34L25.4604 5.117L22.4959 5.117L22.4959 0.0559998L23.4375 0.0559998L23.4375 4.34L25.4604 4.34L25.4604 4.34Z" transform="translate(4.747162 10.382996)" id="Shape" fill="#000000" fill-rule="evenodd" stroke="none" />
      <path d="M0 4L0 2C0 1.44772 0.195262 0.976311 0.585786 0.585786C0.976311 0.195262 1.44772 0 2 0L31 0C31.5523 0 32.0237 0.195262 32.4142 0.585786C32.8047 0.976311 33 1.44772 33 2L33 15C33 15.5523 32.8047 16.0237 32.4142 16.4142C32.0237 16.8047 31.5523 17 31 17L2 17C1.44772 17 0.976311 16.8047 0.585786 16.4142C0.195262 16.0237 0 15.5523 0 15L0 4Z" transform="translate(0.5 18.5)" id="Rectangle" fill="#E3E3E3" fill-rule="evenodd" stroke="none" />
      <path d="M3.276 3.206L2.66 1.5225C2.62966 1.4478 2.59816 1.3592 2.5655 1.2565C2.53283 1.1538 2.50016 1.043 2.4675 0.924C2.43716 1.043 2.40566 1.155 2.373 1.26C2.34033 1.3627 2.30883 1.4525 2.2785 1.5295L1.666 3.206L3.276 3.206L3.276 3.206ZM4.9385 5.117L4.2105 5.117C4.12883 5.117 4.06233 5.0972 4.011 5.0575C3.95966 5.0155 3.92116 4.9642 3.8955 4.9035L3.5175 3.871L1.421 3.871L1.043 4.9035C1.02433 4.9572 0.98816 5.0062 0.9345 5.0505C0.88083 5.0948 0.81433 5.117 0.735 5.117L0 5.117L1.9915 0.0559998L2.9505 0.0559998L4.9385 5.117L4.9385 5.117ZM9.62383 0.0559998L9.62383 5.117L9.14083 5.117C9.06623 5.117 9.00323 5.1053 8.95183 5.082C8.90283 5.0563 8.85503 5.0143 8.80833 4.956L6.16585 1.582C6.17985 1.736 6.18685 1.8783 6.18685 2.009L6.18685 5.117L5.35735 5.117L5.35735 0.0559998L5.85085 0.0559998C5.89052 0.0559998 5.92435 0.0583 5.95235 0.0629997C5.98268 0.0653 6.00835 0.0723 6.02935 0.0839996C6.05268 0.0932999 6.07485 0.108501 6.09585 0.129501C6.11685 0.148201 6.14018 0.173801 6.16585 0.206501L8.81883 3.5945C8.81183 3.5128 8.80603 3.4323 8.80133 3.353C8.79673 3.2737 8.79433 3.2002 8.79433 3.1325L8.79433 0.0559998L9.62383 0.0559998L9.62383 0.0559998ZM13.3199 3.206L12.7039 1.5225C12.6735 1.4478 12.642 1.3592 12.6094 1.2565C12.5767 1.1538 12.544 1.043 12.5114 0.924C12.481 1.043 12.4495 1.155 12.4169 1.26C12.3842 1.3627 12.3527 1.4525 12.3224 1.5295L11.7099 3.206L13.3199 3.206L13.3199 3.206ZM14.9824 5.117L14.2544 5.117C14.1727 5.117 14.1062 5.0972 14.0549 5.0575C14.0035 5.0155 13.965 4.9642 13.9394 4.9035L13.5614 3.871L11.4649 3.871L11.0869 4.9035C11.0682 4.9572 11.032 5.0062 10.9784 5.0505C10.9247 5.0948 10.8582 5.117 10.7789 5.117L10.0439 5.117L12.0354 0.0559998L12.9944 0.0559998L14.9824 5.117L14.9824 5.117ZM18.3657 4.34L18.3657 5.117L15.4012 5.117L15.4012 0.0559998L16.3427 0.0559998L16.3427 4.34L18.3657 4.34L18.3657 4.34ZM23.5817 2.5865C23.5817 2.9575 23.5199 3.3017 23.3962 3.619C23.2749 3.934 23.1022 4.207 22.8782 4.438C22.6542 4.669 22.3847 4.8498 22.0697 4.9805C21.7547 5.1088 21.4047 5.173 21.0197 5.173C20.637 5.173 20.2882 5.1088 19.9732 4.9805C19.6582 4.8498 19.3875 4.669 19.1612 4.438C18.9372 4.207 18.7634 3.934 18.6397 3.619C18.516 3.3017 18.4542 2.9575 18.4542 2.5865C18.4542 2.2155 18.516 1.8725 18.6397 1.5575C18.7634 1.2402 18.9372 0.966002 19.1612 0.735001C19.3875 0.504 19.6582 0.324301 19.9732 0.196001C20.2882 0.0653 20.637 0 21.0197 0C21.2764 0 21.5179 0.0303001 21.7442 0.0910015C21.9705 0.149302 22.1782 0.233301 22.3672 0.343C22.5562 0.4503 22.7254 0.582201 22.8747 0.738501C23.0264 0.8925 23.1547 1.0652 23.2597 1.2565C23.3647 1.4478 23.444 1.6555 23.4977 1.8795C23.5537 2.1035 23.5817 2.3392 23.5817 2.5865L23.5817 2.5865ZM22.6192 2.5865C22.6192 2.3088 22.5819 2.0603 22.5072 1.841C22.4325 1.6193 22.3264 1.4315 22.1887 1.2775C22.051 1.1235 21.883 1.0057 21.6847 0.924C21.4887 0.8423 21.267 0.8015 21.0197 0.8015C20.7724 0.8015 20.5495 0.8423 20.3512 0.924C20.1552 1.0057 19.9872 1.1235 19.8472 1.2775C19.7095 1.4315 19.6034 1.6193 19.5287 1.841C19.454 2.0603 19.4167 2.3088 19.4167 2.5865C19.4167 2.8642 19.454 3.1138 19.5287 3.3355C19.6034 3.5548 19.7095 3.7415 19.8472 3.8955C19.9872 4.0472 20.1552 4.1638 20.3512 4.2455C20.5495 4.3272 20.7724 4.368 21.0197 4.368C21.267 4.368 21.4887 4.3272 21.6847 4.2455C21.883 4.1638 22.051 4.0472 22.1887 3.8955C22.3264 3.7415 22.4325 3.5548 22.5072 3.3355C22.5819 3.1138 22.6192 2.8642 22.6192 2.5865L22.6192 2.5865ZM28.4755 2.5795L28.4755 4.627C28.2189 4.816 27.9447 4.9548 27.653 5.0435C27.3637 5.1298 27.0534 5.173 26.722 5.173C26.309 5.173 25.9345 5.1088 25.5985 4.9805C25.2649 4.8522 24.979 4.6737 24.741 4.445C24.5054 4.2163 24.3234 3.9433 24.195 3.626C24.0667 3.3087 24.0025 2.9622 24.0025 2.5865C24.0025 2.2062 24.0644 1.8573 24.188 1.54C24.3117 1.2227 24.4867 0.949701 24.713 0.721001C24.9417 0.4923 25.2182 0.315001 25.5425 0.189001C25.8669 0.0629997 26.2309 0 26.6345 0C26.8399 0 27.0312 0.0163002 27.2085 0.0489998C27.3882 0.0817013 27.5539 0.127201 27.7055 0.185501C27.8595 0.241501 27.9995 0.310301 28.1255 0.392C28.2515 0.473701 28.367 0.563501 28.472 0.661501L28.2025 1.0885C28.1605 1.1562 28.1057 1.1982 28.038 1.2145C27.9704 1.2285 27.8969 1.211 27.8175 1.162C27.7405 1.1177 27.6635 1.0733 27.5865 1.029C27.5095 0.984701 27.4232 0.946201 27.3275 0.9135C27.2342 0.8808 27.128 0.854 27.009 0.833C26.8924 0.812 26.757 0.8015 26.603 0.8015C26.3534 0.8015 26.127 0.8435 25.924 0.9275C25.7234 1.0115 25.5519 1.1317 25.4095 1.288C25.2672 1.4443 25.1575 1.6322 25.0805 1.8515C25.0035 2.0708 24.965 2.3158 24.965 2.5865C24.965 2.8758 25.0059 3.1348 25.0875 3.3635C25.1715 3.5898 25.2882 3.7823 25.4375 3.941C25.5892 4.0973 25.7712 4.2175 25.9835 4.3015C26.1959 4.3832 26.4327 4.424 26.694 4.424C26.8807 4.424 27.0475 4.4042 27.1945 4.3645C27.3415 4.3248 27.485 4.2712 27.625 4.2035L27.625 3.2865L26.988 3.2865C26.9274 3.2865 26.8795 3.2702 26.8445 3.2375C26.8119 3.2025 26.7955 3.1605 26.7955 3.1115L26.7955 2.5795L28.4755 2.5795L28.4755 2.5795Z" transform="translate(2.821167 20.882996)" id="Shape" fill="#000000" fill-rule="evenodd" stroke="none" />
      <path d="M0 2C0 0.895399 0.89543 0 2 0L28.5 0C29.6046 0 30.5 0.895399 30.5 2L30.5 4.5C30.5 5.6046 29.6046 6.5 28.5 6.5L2 6.5C0.89543 6.5 0 5.6046 0 4.5L0 2L0 2Z" transform="translate(1.75 27.5)" id="Shape" fill="#FF9300" fill-rule="evenodd" stroke="none" />
      <path d="M4.494 2.5865C4.494 2.9575 4.43217 3.2982 4.3085 3.6085C4.18484 3.9188 4.011 4.186 3.787 4.41C3.563 4.634 3.2935 4.8078 2.9785 4.9315C2.6635 5.0552 2.3135 5.117 1.9285 5.117L0 5.117L0 0.0559998L1.9285 0.0559998C2.3135 0.0559998 2.6635 0.119001 2.9785 0.245001C3.2935 0.3687 3.563 0.542501 3.787 0.766501C4.011 0.988201 4.18484 1.2542 4.3085 1.5645C4.43217 1.8748 4.494 2.2155 4.494 2.5865L4.494 2.5865ZM3.528 2.5865C3.528 2.3088 3.49067 2.0603 3.416 1.841C3.34367 1.6193 3.2375 1.4327 3.0975 1.281C2.95984 1.127 2.79184 1.0092 2.5935 0.9275C2.3975 0.8458 2.17584 0.805 1.9285 0.805L0.945 0.805L0.945 4.368L1.9285 4.368C2.17584 4.368 2.3975 4.3272 2.5935 4.2455C2.79184 4.1638 2.95984 4.0472 3.0975 3.8955C3.2375 3.7415 3.34367 3.5548 3.416 3.3355C3.49067 3.1138 3.528 2.8642 3.528 2.5865L3.528 2.5865ZM6.2202 5.117L5.2202 5.117L5.2202 0.0559998L6.2202 0.0559998L6.2202 5.117L6.2202 5.117ZM11.3653 2.5795L11.3653 4.627C11.1086 4.816 10.8344 4.9548 10.5428 5.0435C10.2534 5.1298 9.94315 5.173 9.61185 5.173C9.19885 5.173 8.82435 5.1088 8.48835 4.9805C8.15465 4.8522 7.86885 4.6737 7.63085 4.445C7.39515 4.2163 7.21315 3.9433 7.08485 3.626C6.95645 3.3087 6.89235 2.9622 6.89235 2.5865C6.89235 2.2062 6.95415 1.8573 7.07785 1.54C7.20145 1.2227 7.37645 0.949701 7.60285 0.721001C7.83145 0.4923 8.10795 0.315001 8.43235 0.189001C8.75665 0.0629997 9.12065 0 9.52435 0C9.72965 0 9.92095 0.0163002 10.0983 0.0489998C10.2779 0.0817013 10.4436 0.127201 10.5953 0.185501C10.7493 0.241501 10.8893 0.310301 11.0153 0.392C11.1413 0.473701 11.2568 0.563501 11.3618 0.661501L11.0924 1.0885C11.0503 1.1562 10.9955 1.1982 10.9278 1.2145C10.8601 1.2285 10.7866 1.211 10.7073 1.162C10.6303 1.1177 10.5533 1.0733 10.4763 1.029C10.3993 0.984701 10.3129 0.946201 10.2174 0.9135C10.124 0.8808 10.0178 0.854 9.89885 0.833C9.78215 0.812 9.64685 0.8015 9.49285 0.8015C9.24315 0.8015 9.01685 0.8435 8.81385 0.9275C8.61315 1.0115 8.44165 1.1317 8.29935 1.288C8.15695 1.4443 8.04735 1.6322 7.97035 1.8515C7.89335 2.0708 7.85485 2.3158 7.85485 2.5865C7.85485 2.8758 7.89565 3.1348 7.97735 3.3635C8.06135 3.5898 8.17795 3.7823 8.32735 3.941C8.47895 4.0973 8.66095 4.2175 8.87335 4.3015C9.08565 4.3832 9.32245 4.424 9.58385 4.424C9.77045 4.424 9.93735 4.4042 10.0843 4.3645C10.2313 4.3248 10.3748 4.2712 10.5148 4.2035L10.5148 3.2865L9.87785 3.2865C9.81715 3.2865 9.76935 3.2702 9.73435 3.2375C9.70165 3.2025 9.68535 3.1605 9.68535 3.1115L9.68535 2.5795L11.3653 2.5795L11.3653 2.5795ZM13.1674 5.117L12.1674 5.117L12.1674 0.0559998L13.1674 0.0559998L13.1674 5.117L13.1674 5.117ZM17.6756 0.8295L16.1495 0.8295L16.1495 5.117L15.208 5.117L15.208 0.8295L13.682 0.8295L13.682 0.0559998L17.6756 0.0559998L17.6756 0.8295L17.6756 0.8295ZM20.4146 3.206L19.7986 1.5225C19.7682 1.4478 19.7367 1.3592 19.7041 1.2565C19.6714 1.1538 19.6388 1.043 19.6061 0.924C19.5758 1.043 19.5443 1.155 19.5117 1.26C19.479 1.3627 19.4474 1.4525 19.4172 1.5295L18.8046 3.206L20.4146 3.206L20.4146 3.206ZM22.0772 5.117L21.3491 5.117C21.2675 5.117 21.2009 5.0972 21.1496 5.0575C21.0982 5.0155 21.0597 4.9642 21.0341 4.9035L20.6561 3.871L18.5597 3.871L18.1817 4.9035C18.163 4.9572 18.1267 5.0062 18.0731 5.0505C18.0194 5.0948 17.9529 5.117 17.8736 5.117L17.1386 5.117L19.1301 0.0559998L20.0891 0.0559998L22.0772 5.117L22.0772 5.117ZM25.4604 4.34L25.4604 5.117L22.4959 5.117L22.4959 0.0559998L23.4375 0.0559998L23.4375 4.34L25.4604 4.34L25.4604 4.34Z" transform="translate(4.747162 28.382996)" id="Shape" fill="#000000" fill-rule="evenodd" stroke="none" />
      <path d="M0 4L0 2C0 1.44772 0.195262 0.976311 0.585786 0.585786C0.976311 0.195262 1.44772 0 2 0L31 0C31.5523 0 32.0237 0.195262 32.4142 0.585786C32.8047 0.976311 33 1.44772 33 2L33 15C33 15.5523 32.8047 16.0237 32.4142 16.4142C32.0237 16.8047 31.5523 17 31 17L2 17C1.44772 17 0.976311 16.8047 0.585786 16.4142C0.195262 16.0237 0 15.5523 0 15L0 4Z" transform="translate(0.5 18.5)" id="Rectangle" fill="none" fill-rule="evenodd" stroke="#979797" stroke-width="1" />
      <path d="M0 4L0 2C0 1.44772 0.195262 0.976311 0.585786 0.585786C0.976311 0.195262 1.44772 0 2 0L31 0C31.5523 0 32.0237 0.195262 32.4142 0.585786C32.8047 0.976311 33 1.44772 33 2L33 15C33 15.5523 32.8047 16.0237 32.4142 16.4142C32.0237 16.8047 31.5523 17 31 17L2 17C1.44772 17 0.976311 16.8047 0.585786 16.4142C0.195262 16.0237 0 15.5523 0 15L0 4Z" transform="translate(0.5 0.5)" id="Rectangle" fill="none" fill-rule="evenodd" stroke="#979797" stroke-width="1" />
    </g>
  </g>
</svg>