<svg width="31" height="24" viewBox="0 0 31 24" fill="none" xmlns="http://www.w3.org/2000/svg">
<path d="M0.5 3.5C0.5 1.84315 1.84315 0.5 3.5 0.5H27.5C29.1569 0.5 30.5 1.84315 30.5 3.5V8.5C30.5 10.1569 29.1569 11.5 27.5 11.5H3.5C1.84315 11.5 0.5 10.1569 0.5 8.5V3.5Z" fill="#E3E3E3"/>
<path d="M13.8574 3.216V9H12.9094V5.264C12.9094 5.11467 12.9174 4.95333 12.9334 4.78L11.1854 8.064C11.1027 8.22133 10.9761 8.3 10.8054 8.3H10.6534C10.4827 8.3 10.3561 8.22133 10.2734 8.064L8.50541 4.768C8.51341 4.856 8.52007 4.94267 8.52541 5.028C8.53074 5.11333 8.53341 5.192 8.53341 5.264V9H7.58541V3.216H8.39741C8.44541 3.216 8.48674 3.21733 8.52141 3.22C8.55607 3.22267 8.58674 3.22933 8.61341 3.24C8.64274 3.25067 8.66807 3.268 8.68941 3.292C8.71341 3.316 8.73607 3.348 8.75741 3.388L10.4894 6.6C10.5347 6.68533 10.5761 6.77333 10.6134 6.864C10.6534 6.95467 10.6921 7.048 10.7294 7.144C10.7667 7.04533 10.8054 6.95067 10.8454 6.86C10.8854 6.76667 10.9281 6.67733 10.9734 6.592L12.6814 3.388C12.7027 3.348 12.7254 3.316 12.7494 3.292C12.7734 3.268 12.7987 3.25067 12.8254 3.24C12.8547 3.22933 12.8867 3.22267 12.9214 3.22C12.9561 3.21733 12.9974 3.216 13.0454 3.216H13.8574ZM17.0279 6.124C17.2252 6.124 17.3972 6.1 17.5439 6.052C17.6906 6.00133 17.8119 5.93067 17.9079 5.84C18.0066 5.74667 18.0799 5.63467 18.1279 5.504C18.1759 5.37067 18.1999 5.22267 18.1999 5.06C18.1999 4.90533 18.1759 4.76533 18.1279 4.64C18.0799 4.51467 18.0079 4.408 17.9119 4.32C17.8159 4.232 17.6946 4.16533 17.5479 4.12C17.4012 4.072 17.2279 4.048 17.0279 4.048H16.2239V6.124H17.0279ZM17.0279 3.216C17.4146 3.216 17.7492 3.26133 18.0319 3.352C18.3146 3.44267 18.5479 3.56933 18.7319 3.732C18.9159 3.89467 19.0519 4.08933 19.1399 4.316C19.2306 4.54267 19.2759 4.79067 19.2759 5.06C19.2759 5.34 19.2292 5.59733 19.1359 5.832C19.0426 6.064 18.9026 6.264 18.7159 6.432C18.5292 6.6 18.2946 6.73067 18.0119 6.824C17.7319 6.91733 17.4039 6.964 17.0279 6.964H16.2239V9H15.1479V3.216H17.0279ZM21.181 4.072V5.676H23.205V6.504H21.181V8.14H23.749V9H20.101V3.216H23.749V4.072H21.181Z" fill="black"/>
<path d="M3.5 1H27.5V0H3.5V1ZM30 3.5V8.5H31V3.5H30ZM27.5 11H3.5V12H27.5V11ZM1 8.5V3.5H0V8.5H1ZM3.5 11C2.11929 11 1 9.88071 1 8.5H0C0 10.433 1.567 12 3.5 12V11ZM30 8.5C30 9.88071 28.8807 11 27.5 11V12C29.433 12 31 10.433 31 8.5H30ZM27.5 1C28.8807 1 30 2.11929 30 3.5H31C31 1.567 29.433 0 27.5 0V1ZM3.5 0C1.567 0 0 1.567 0 3.5H1C1 2.11929 2.11929 1 3.5 1V0Z" fill="#979797"/>
<path d="M0.5 15.5C0.5 13.8431 1.84315 12.5 3.5 12.5H27.5C29.1569 12.5 30.5 13.8431 30.5 15.5V20.5C30.5 22.1569 29.1569 23.5 27.5 23.5H3.5C1.84315 23.5 0.5 22.1569 0.5 20.5V15.5Z" fill="#E3E3E3"/>
<path d="M2 16C2 14.8954 2.89543 14 4 14H27C28.1046 14 29 14.8954 29 16V20C29 21.1046 28.1046 22 27 22H4C2.89543 22 2 21.1046 2 20V16Z" fill="#FF9300"/>
<path d="M13.8574 15.216V21H12.9094V17.264C12.9094 17.1147 12.9174 16.9533 12.9334 16.78L11.1854 20.064C11.1027 20.2213 10.9761 20.3 10.8054 20.3H10.6534C10.4827 20.3 10.3561 20.2213 10.2734 20.064L8.50541 16.768C8.51341 16.856 8.52007 16.9427 8.52541 17.028C8.53074 17.1133 8.53341 17.192 8.53341 17.264V21H7.58541V15.216H8.39741C8.44541 15.216 8.48674 15.2173 8.52141 15.22C8.55607 15.2227 8.58674 15.2293 8.61341 15.24C8.64274 15.2507 8.66807 15.268 8.68941 15.292C8.71341 15.316 8.73607 15.348 8.75741 15.388L10.4894 18.6C10.5347 18.6853 10.5761 18.7733 10.6134 18.864C10.6534 18.9547 10.6921 19.048 10.7294 19.144C10.7667 19.0453 10.8054 18.9507 10.8454 18.86C10.8854 18.7667 10.9281 18.6773 10.9734 18.592L12.6814 15.388C12.7027 15.348 12.7254 15.316 12.7494 15.292C12.7734 15.268 12.7987 15.2507 12.8254 15.24C12.8547 15.2293 12.8867 15.2227 12.9214 15.22C12.9561 15.2173 12.9974 15.216 13.0454 15.216H13.8574ZM17.0279 18.124C17.2252 18.124 17.3972 18.1 17.5439 18.052C17.6906 18.0013 17.8119 17.9307 17.9079 17.84C18.0066 17.7467 18.0799 17.6347 18.1279 17.504C18.1759 17.3707 18.1999 17.2227 18.1999 17.06C18.1999 16.9053 18.1759 16.7653 18.1279 16.64C18.0799 16.5147 18.0079 16.408 17.9119 16.32C17.8159 16.232 17.6946 16.1653 17.5479 16.12C17.4012 16.072 17.2279 16.048 17.0279 16.048H16.2239V18.124H17.0279ZM17.0279 15.216C17.4146 15.216 17.7492 15.2613 18.0319 15.352C18.3146 15.4427 18.5479 15.5693 18.7319 15.732C18.9159 15.8947 19.0519 16.0893 19.1399 16.316C19.2306 16.5427 19.2759 16.7907 19.2759 17.06C19.2759 17.34 19.2292 17.5973 19.1359 17.832C19.0426 18.064 18.9026 18.264 18.7159 18.432C18.5292 18.6 18.2946 18.7307 18.0119 18.824C17.7319 18.9173 17.4039 18.964 17.0279 18.964H16.2239V21H15.1479V15.216H17.0279ZM21.181 16.072V17.676H23.205V18.504H21.181V20.14H23.749V21H20.101V15.216H23.749V16.072H21.181Z" fill="black"/>
<path d="M3.5 13H27.5V12H3.5V13ZM30 15.5V20.5H31V15.5H30ZM27.5 23H3.5V24H27.5V23ZM1 20.5V15.5H0V20.5H1ZM3.5 23C2.11929 23 1 21.8807 1 20.5H0C0 22.433 1.567 24 3.5 24V23ZM30 20.5C30 21.8807 28.8807 23 27.5 23V24C29.433 24 31 22.433 31 20.5H30ZM27.5 13C28.8807 13 30 14.1193 30 15.5H31C31 13.567 29.433 12 27.5 12V13ZM3.5 12C1.567 12 0 13.567 0 15.5H1C1 14.1193 2.11929 13 3.5 13V12Z" fill="#979797"/>
</svg>
