<svg width="50" height="15" viewBox="0 0 50 15" fill="none" xmlns="http://www.w3.org/2000/svg">
<path d="M0.5 3.5C0.5 1.84315 1.84315 0.5 3.5 0.5H46.5C48.1569 0.5 49.5 1.84315 49.5 3.5V11.5C49.5 13.1569 48.1569 14.5 46.5 14.5H3.5C1.84314 14.5 0.5 13.1569 0.5 11.5V3.5Z" fill="#E3E3E3"/>
<path d="M25.0493 3.77V11H23.8643V6.33C23.8643 6.14333 23.8743 5.94167 23.8943 5.725L21.7093 9.83C21.606 10.0267 21.4476 10.125 21.2343 10.125H21.0443C20.831 10.125 20.6726 10.0267 20.5693 9.83L18.3593 5.71C18.3693 5.82 18.3776 5.92833 18.3843 6.035C18.391 6.14167 18.3943 6.24 18.3943 6.33V11H17.2093V3.77H18.2243C18.2843 3.77 18.336 3.77167 18.3793 3.775C18.4226 3.77833 18.461 3.78667 18.4943 3.8C18.531 3.81333 18.5626 3.835 18.5893 3.865C18.6193 3.895 18.6476 3.935 18.6743 3.985L20.8393 8C20.896 8.10667 20.9476 8.21667 20.9943 8.33C21.0443 8.44333 21.0926 8.56 21.1393 8.68C21.186 8.55667 21.2343 8.43833 21.2843 8.325C21.3343 8.20833 21.3876 8.09667 21.4443 7.99L23.5793 3.985C23.606 3.935 23.6343 3.895 23.6643 3.865C23.6943 3.835 23.726 3.81333 23.7593 3.8C23.796 3.78667 23.836 3.77833 23.8793 3.775C23.9226 3.77167 23.9743 3.77 24.0343 3.77H25.0493ZM29.6162 7.845C29.6162 7.685 29.5928 7.535 29.5462 7.395C29.5028 7.25167 29.4362 7.12667 29.3462 7.02C29.2562 6.91333 29.1412 6.83 29.0012 6.77C28.8645 6.70667 28.7045 6.675 28.5212 6.675C28.1645 6.675 27.8828 6.77667 27.6762 6.98C27.4728 7.18333 27.3428 7.47167 27.2862 7.845H29.6162ZM27.2612 8.59C27.2812 8.85333 27.3278 9.08167 27.4012 9.275C27.4745 9.465 27.5712 9.62333 27.6912 9.75C27.8112 9.87333 27.9528 9.96667 28.1162 10.03C28.2828 10.09 28.4662 10.12 28.6662 10.12C28.8662 10.12 29.0378 10.0967 29.1812 10.05C29.3278 10.0033 29.4545 9.95167 29.5612 9.895C29.6712 9.83833 29.7662 9.78667 29.8462 9.74C29.9295 9.69333 30.0095 9.67 30.0862 9.67C30.1895 9.67 30.2662 9.70833 30.3162 9.785L30.6712 10.235C30.5345 10.395 30.3812 10.53 30.2112 10.64C30.0412 10.7467 29.8628 10.8333 29.6762 10.9C29.4928 10.9633 29.3045 11.0083 29.1112 11.035C28.9212 11.0617 28.7362 11.075 28.5562 11.075C28.1995 11.075 27.8678 11.0167 27.5612 10.9C27.2545 10.78 26.9878 10.605 26.7612 10.375C26.5345 10.1417 26.3562 9.855 26.2262 9.515C26.0962 9.17167 26.0312 8.775 26.0312 8.325C26.0312 7.975 26.0878 7.64667 26.2012 7.34C26.3145 7.03 26.4762 6.76167 26.6862 6.535C26.8995 6.305 27.1578 6.12333 27.4612 5.99C27.7678 5.85667 28.1128 5.79 28.4962 5.79C28.8195 5.79 29.1178 5.84167 29.3912 5.945C29.6645 6.04833 29.8995 6.2 30.0962 6.4C30.2928 6.59667 30.4462 6.84 30.5562 7.13C30.6695 7.41667 30.7262 7.745 30.7262 8.115C30.7262 8.30167 30.7062 8.42833 30.6662 8.495C30.6262 8.55833 30.5495 8.59 30.4362 8.59H27.2612ZM32.808 6.5C32.9113 6.39667 33.0196 6.30167 33.133 6.215C33.2496 6.125 33.3713 6.05 33.498 5.99C33.628 5.92667 33.7663 5.87833 33.913 5.845C34.0596 5.80833 34.2196 5.79 34.393 5.79C34.673 5.79 34.9213 5.83833 35.138 5.935C35.3546 6.02833 35.5346 6.16167 35.678 6.335C35.8246 6.505 35.9346 6.71 36.008 6.95C36.0846 7.18667 36.123 7.44833 36.123 7.735V11H34.888V7.735C34.888 7.42167 34.8163 7.18 34.673 7.01C34.5296 6.83667 34.3113 6.75 34.018 6.75C33.8046 6.75 33.6046 6.79833 33.418 6.895C33.2313 6.99167 33.0546 7.12333 32.888 7.29V11H31.653V5.87H32.408C32.568 5.87 32.673 5.945 32.723 6.095L32.808 6.5ZM41.7175 5.87V11H40.9625C40.7992 11 40.6958 10.925 40.6525 10.775L40.5675 10.365C40.3575 10.5783 40.1258 10.7517 39.8725 10.885C39.6192 11.015 39.3208 11.08 38.9775 11.08C38.6975 11.08 38.4492 11.0333 38.2325 10.94C38.0192 10.8433 37.8392 10.7083 37.6925 10.535C37.5458 10.3617 37.4342 10.1567 37.3575 9.92C37.2842 9.68 37.2475 9.41667 37.2475 9.13V5.87H38.4825V9.13C38.4825 9.44333 38.5542 9.68667 38.6975 9.86C38.8442 10.03 39.0625 10.115 39.3525 10.115C39.5658 10.115 39.7658 10.0683 39.9525 9.975C40.1392 9.87833 40.3158 9.74667 40.4825 9.58V5.87H41.7175Z" fill="black"/>
<path d="M3.5 1H46.5V0H3.5V1ZM49 3.5V11.5H50V3.5H49ZM46.5 14H3.5V15H46.5V14ZM1 11.5V3.5H0V11.5H1ZM3.5 14C2.11929 14 1 12.8807 1 11.5H0C0 13.433 1.567 15 3.5 15V14ZM49 11.5C49 12.8807 47.8807 14 46.5 14V15C48.433 15 50 13.433 50 11.5H49ZM46.5 1C47.8807 1 49 2.11929 49 3.5H50C50 1.567 48.433 0 46.5 0V1ZM3.5 0C1.567 0 0 1.567 0 3.5H1C1 2.11929 2.11929 1 3.5 1V0Z" fill="#979797"/>
<path d="M11.0566 4.83896L13.125 5.91513V3.75H6.21356C5.88733 3.75 5.625 3.94939 5.625 4.19734V8.36912L7.04092 8.67331C7.11491 8.68865 7.1889 8.65542 7.21244 8.60174L7.56558 7.63037C7.58913 7.56135 7.69675 7.53067 7.77747 7.57157L11.1642 9.34305C11.292 9.40951 11.1979 9.56288 11.0499 9.52965L8.44002 8.97495C8.36603 8.95961 8.28868 8.99284 8.27186 9.04908L7.92545 10.0205C7.90191 10.0895 7.79092 10.1201 7.71357 10.0792L5.625 8.98006V11.25H12.4893C12.8391 11.25 13.1216 11.0327 13.1216 10.7694V6.53885L11.7225 6.24233C11.6485 6.22699 11.5746 6.26022 11.5544 6.31391L11.1911 7.28783C11.1642 7.35685 11.06 7.38497 10.9793 7.34662L7.58913 5.5726C7.46132 5.50613 7.55549 5.35276 7.70348 5.38599L10.3133 5.9407C10.3873 5.95603 10.4613 5.9228 10.4815 5.86912L10.8447 4.89519C10.8716 4.82873 10.9759 4.79806 11.0566 4.83896Z" fill="#FF9300"/>
</svg>
