<?xml version="1.0" encoding="utf-8"?>
<svg viewBox="0 0 133 18" xmlns="http://www.w3.org/2000/svg" xmlns:bx="https://boxy-svg.com">
  <path d="M 2.121 8.867 C 2.121 7.156 2.641 5.695 3.683 4.485 C 4.724 3.275 5.982 2.67 7.455 2.67 L 124.784 2.67 C 126.257 2.67 127.514 3.275 128.556 4.485 C 129.597 5.695 130.117 7.156 130.117 8.867 C 130.117 10.578 129.597 12.039 128.556 13.249 C 127.514 14.459 126.257 15.064 124.784 15.064 L 7.455 15.064 C 5.982 15.064 4.724 14.459 3.683 13.249 C 2.641 12.039 2.121 10.578 2.121 8.867 L 2.121 8.867 L 2.121 8.867 Z" id="Rectangle#32" fill="#F4F4F5" stroke="#919192" stroke-width="1" style=""/>
  <path d="M 121.101 69.345 L 123.851 74.106 L 118.35 74.106 L 121.101 69.345 Z" style="" transform="matrix(0.507381, -0.861722, 0.861722, 0.507381, 0.363209, 75.373001)" bx:shape="triangle 118.35 69.345 5.501 4.761 0.5 0 1@85e181cd"/>
</svg>