<svg width="12" height="36" viewBox="0 0 12 36" fill="none" xmlns="http://www.w3.org/2000/svg">
<path d="M1.5 4C1.5 2.34315 2.84315 1 4.5 1H7.5C9.15685 1 10.5 2.34315 10.5 4V10C10.5 11.6569 9.15685 13 7.5 13H4.5C2.84315 13 1.5 11.6569 1.5 10V4Z" fill="#E3E3E3"/>
<path d="M4.5 1.5H7.5V0.5H4.5V1.5ZM10 4V10H11V4H10ZM7.5 12.5H4.5V13.5H7.5V12.5ZM2 10V4H1V10H2ZM4.5 12.5C3.11929 12.5 2 11.3807 2 10H1C1 11.933 2.567 13.5 4.5 13.5V12.5ZM10 10C10 11.3807 8.88071 12.5 7.5 12.5V13.5C9.433 13.5 11 11.933 11 10H10ZM7.5 1.5C8.88071 1.5 10 2.61929 10 4H11C11 2.067 9.433 0.5 7.5 0.5V1.5ZM4.5 0.5C2.567 0.5 1 2.067 1 4H2C2 2.61929 3.11929 1.5 4.5 1.5V0.5Z" fill="#979797"/>
<path d="M6.5 9.5H5.5V7.5H3.5V6.5H5.5V4.5H6.5V6.5H8.5V7.5H6.5V9.5Z" fill="black"/>
<path d="M1.5 22C1.5 20.3431 2.84315 19 4.5 19H7.5C9.15685 19 10.5 20.3431 10.5 22V28C10.5 29.6569 9.15685 31 7.5 31H4.5C2.84315 31 1.5 29.6569 1.5 28V22Z" fill="#E3E3E3"/>
<path d="M3 22.5C3 21.3954 3.89543 20.5 5 20.5H7C8.10457 20.5 9 21.3954 9 22.5V27.5C9 28.6046 8.10457 29.5 7 29.5H5C3.89543 29.5 3 28.6046 3 27.5V22.5Z" fill="#FF9300"/>
<path d="M4.5 19.5H7.5V18.5H4.5V19.5ZM10 22V28H11V22H10ZM7.5 30.5H4.5V31.5H7.5V30.5ZM2 28V22H1V28H2ZM4.5 30.5C3.11929 30.5 2 29.3807 2 28H1C1 29.933 2.567 31.5 4.5 31.5V30.5ZM10 28C10 29.3807 8.88071 30.5 7.5 30.5V31.5C9.433 31.5 11 29.933 11 28H10ZM7.5 19.5C8.88071 19.5 10 20.6193 10 22H11C11 20.067 9.433 18.5 7.5 18.5V19.5ZM4.5 18.5C2.567 18.5 1 20.067 1 22H2C2 20.6193 3.11929 19.5 4.5 19.5V18.5Z" fill="#979797"/>
<path d="M6.5 27.5H5.5V25.5H3.5V24.5H5.5V22.5H6.5V24.5H8.5V25.5H6.5V27.5Z" fill="black"/>
</svg>
