<svg width="76" height="39" viewBox="0 0 76 39" fill="none" xmlns="http://www.w3.org/2000/svg">
<rect width="24" height="11" transform="translate(1 1)" fill="#FF9300"/>
<path d="M14.5922 8.3525V9H11.7922V8.3525H12.8177V5.402C12.8177 5.28533 12.8212 5.16517 12.8282 5.0415L12.1002 5.6505C12.0582 5.68317 12.0162 5.70417 11.9742 5.7135C11.9346 5.7205 11.8961 5.7205 11.8587 5.7135C11.8237 5.7065 11.7922 5.69483 11.7642 5.6785C11.7362 5.65983 11.7152 5.64 11.7012 5.619L11.4282 5.2445L12.9717 3.932H13.6822V8.3525H14.5922Z" fill="#FF9915"/>
<path d="M14.5922 8.3525V9H11.7922V8.3525H12.8177V5.402C12.8177 5.28533 12.8212 5.16517 12.8282 5.0415L12.1002 5.6505C12.0582 5.68317 12.0162 5.70417 11.9742 5.7135C11.9346 5.7205 11.8961 5.7205 11.8587 5.7135C11.8237 5.7065 11.7922 5.69483 11.7642 5.6785C11.7362 5.65983 11.7152 5.64 11.7012 5.619L11.4282 5.2445L12.9717 3.932H13.6822V8.3525H14.5922Z" fill="#2F1C04"/>
<rect width="24" height="11" transform="translate(26 1)" fill="#2F1C04"/>
<path d="M39.4032 8.195C39.4966 8.195 39.5701 8.22183 39.6237 8.2755C39.6797 8.32683 39.7077 8.39567 39.7077 8.482V9H36.2357V8.713C36.2357 8.65467 36.2474 8.594 36.2707 8.531C36.2964 8.46567 36.3361 8.40733 36.3897 8.356L37.9262 6.816C38.0546 6.68533 38.1689 6.5605 38.2692 6.4415C38.3719 6.3225 38.4571 6.20467 38.5247 6.088C38.5924 5.97133 38.6437 5.8535 38.6787 5.7345C38.7161 5.61317 38.7347 5.486 38.7347 5.353C38.7347 5.23167 38.7172 5.1255 38.6822 5.0345C38.6472 4.94117 38.5971 4.863 38.5317 4.8C38.4687 4.737 38.3917 4.69033 38.3007 4.66C38.2121 4.62733 38.1117 4.611 37.9997 4.611C37.8971 4.611 37.8014 4.62617 37.7127 4.6565C37.6264 4.6845 37.5494 4.72533 37.4817 4.779C37.4141 4.83033 37.3569 4.891 37.3102 4.961C37.2636 5.031 37.2286 5.108 37.2052 5.192C37.1656 5.29933 37.1142 5.3705 37.0512 5.4055C36.9882 5.4405 36.8972 5.44867 36.7782 5.43L36.3232 5.3495C36.3582 5.10683 36.4259 4.8945 36.5262 4.7125C36.6266 4.52817 36.7514 4.37533 36.9007 4.254C37.0524 4.13033 37.2251 4.03817 37.4187 3.9775C37.6147 3.9145 37.8247 3.883 38.0487 3.883C38.2821 3.883 38.4956 3.918 38.6892 3.988C38.8829 4.05567 39.0486 4.1525 39.1862 4.2785C39.3239 4.4045 39.4312 4.55617 39.5082 4.7335C39.5852 4.91083 39.6237 5.108 39.6237 5.325C39.6237 5.51167 39.5957 5.68433 39.5397 5.843C39.4861 6.00167 39.4126 6.15333 39.3192 6.298C39.2282 6.44267 39.1209 6.58267 38.9972 6.718C38.8736 6.85333 38.7441 6.991 38.6087 7.131L37.4677 8.2965C37.5774 8.26383 37.6859 8.23933 37.7932 8.223C37.9029 8.20433 38.0067 8.195 38.1047 8.195H39.4032Z" fill="#FF9300"/>
<rect width="24" height="11" transform="translate(51 1)" fill="#2F1C04"/>
<path d="M61.3477 5.3495C61.3827 5.10683 61.4504 4.8945 61.5507 4.7125C61.6511 4.52817 61.7759 4.37533 61.9252 4.254C62.0769 4.13033 62.2496 4.03817 62.4432 3.9775C62.6392 3.9145 62.8492 3.883 63.0732 3.883C63.3066 3.883 63.5166 3.91683 63.7032 3.9845C63.8922 4.04983 64.0532 4.142 64.1862 4.261C64.3192 4.37767 64.4207 4.51533 64.4907 4.674C64.5631 4.83267 64.5992 5.00417 64.5992 5.1885C64.5992 5.3495 64.5806 5.49183 64.5432 5.6155C64.5082 5.73683 64.4569 5.843 64.3892 5.934C64.3216 6.025 64.2376 6.102 64.1372 6.165C64.0369 6.228 63.9237 6.2805 63.7977 6.3225C64.1011 6.41817 64.3274 6.564 64.4767 6.76C64.6261 6.956 64.7007 7.20217 64.7007 7.4985C64.7007 7.7505 64.6541 7.97333 64.5607 8.167C64.4674 8.36067 64.3414 8.524 64.1827 8.657C64.0241 8.78767 63.8397 8.88683 63.6297 8.9545C63.4221 9.02217 63.2016 9.056 62.9682 9.056C62.7139 9.056 62.4922 9.02683 62.3032 8.9685C62.1142 8.91017 61.9497 8.82383 61.8097 8.7095C61.6697 8.59517 61.5507 8.45517 61.4527 8.2895C61.3547 8.12383 61.2707 7.9325 61.2007 7.7155L61.5822 7.558C61.6826 7.516 61.7759 7.5055 61.8622 7.5265C61.9509 7.54517 62.0151 7.59183 62.0547 7.6665C62.0967 7.74817 62.1422 7.82867 62.1912 7.908C62.2426 7.98733 62.3032 8.0585 62.3732 8.1215C62.4432 8.18217 62.5249 8.23233 62.6182 8.272C62.7139 8.30933 62.8271 8.328 62.9577 8.328C63.1047 8.328 63.2331 8.30467 63.3427 8.258C63.4524 8.209 63.5434 8.146 63.6157 8.069C63.6904 7.992 63.7452 7.90683 63.7802 7.8135C63.8176 7.71783 63.8362 7.62217 63.8362 7.5265C63.8362 7.40517 63.8234 7.2955 63.7977 7.1975C63.7721 7.09717 63.7184 7.012 63.6367 6.942C63.5551 6.872 63.4372 6.81717 63.2832 6.7775C63.1316 6.73783 62.9274 6.718 62.6707 6.718V6.102C62.8831 6.09967 63.0592 6.07983 63.1992 6.0425C63.3392 6.00517 63.4501 5.95383 63.5317 5.8885C63.6157 5.82083 63.6741 5.74033 63.7067 5.647C63.7394 5.55367 63.7557 5.451 63.7557 5.339C63.7557 5.101 63.6892 4.92017 63.5562 4.7965C63.4232 4.67283 63.2459 4.611 63.0242 4.611C62.9216 4.611 62.8271 4.62617 62.7407 4.6565C62.6544 4.6845 62.5762 4.72533 62.5062 4.779C62.4386 4.83033 62.3814 4.891 62.3347 4.961C62.2881 5.031 62.2531 5.108 62.2297 5.192C62.1901 5.29933 62.1376 5.3705 62.0722 5.4055C62.0092 5.4405 61.9194 5.44867 61.8027 5.43L61.3477 5.3495Z" fill="#FF9300"/>
<rect width="24" height="11" transform="translate(1 14)" fill="#2F1C04"/>
<path d="M14.5922 21.3525V22H11.7922V21.3525H12.8177V18.402C12.8177 18.2853 12.8212 18.1652 12.8282 18.0415L12.1002 18.6505C12.0582 18.6832 12.0162 18.7042 11.9742 18.7135C11.9346 18.7205 11.8961 18.7205 11.8587 18.7135C11.8237 18.7065 11.7922 18.6948 11.7642 18.6785C11.7362 18.6598 11.7152 18.64 11.7012 18.619L11.4282 18.2445L12.9717 16.932H13.6822V21.3525H14.5922Z" fill="#FF9300"/>
<rect width="24" height="11" transform="translate(26 14)" fill="#FF9300"/>
<path d="M39.4032 21.195C39.4966 21.195 39.5701 21.2218 39.6237 21.2755C39.6797 21.3268 39.7077 21.3957 39.7077 21.482V22H36.2357V21.713C36.2357 21.6547 36.2474 21.594 36.2707 21.531C36.2964 21.4657 36.3361 21.4073 36.3897 21.356L37.9262 19.816C38.0546 19.6853 38.1689 19.5605 38.2692 19.4415C38.3719 19.3225 38.4571 19.2047 38.5247 19.088C38.5924 18.9713 38.6437 18.8535 38.6787 18.7345C38.7161 18.6132 38.7347 18.486 38.7347 18.353C38.7347 18.2317 38.7172 18.1255 38.6822 18.0345C38.6472 17.9412 38.5971 17.863 38.5317 17.8C38.4687 17.737 38.3917 17.6903 38.3007 17.66C38.2121 17.6273 38.1117 17.611 37.9997 17.611C37.8971 17.611 37.8014 17.6262 37.7127 17.6565C37.6264 17.6845 37.5494 17.7253 37.4817 17.779C37.4141 17.8303 37.3569 17.891 37.3102 17.961C37.2636 18.031 37.2286 18.108 37.2052 18.192C37.1656 18.2993 37.1142 18.3705 37.0512 18.4055C36.9882 18.4405 36.8972 18.4487 36.7782 18.43L36.3232 18.3495C36.3582 18.1068 36.4259 17.8945 36.5262 17.7125C36.6266 17.5282 36.7514 17.3753 36.9007 17.254C37.0524 17.1303 37.2251 17.0382 37.4187 16.9775C37.6147 16.9145 37.8247 16.883 38.0487 16.883C38.2821 16.883 38.4956 16.918 38.6892 16.988C38.8829 17.0557 39.0486 17.1525 39.1862 17.2785C39.3239 17.4045 39.4312 17.5562 39.5082 17.7335C39.5852 17.9108 39.6237 18.108 39.6237 18.325C39.6237 18.5117 39.5957 18.6843 39.5397 18.843C39.4861 19.0017 39.4126 19.1533 39.3192 19.298C39.2282 19.4427 39.1209 19.5827 38.9972 19.718C38.8736 19.8533 38.7441 19.991 38.6087 20.131L37.4677 21.2965C37.5774 21.2638 37.6859 21.2393 37.7932 21.223C37.9029 21.2043 38.0067 21.195 38.1047 21.195H39.4032Z" fill="#FF9915"/>
<path d="M39.4032 21.195C39.4966 21.195 39.5701 21.2218 39.6237 21.2755C39.6797 21.3268 39.7077 21.3957 39.7077 21.482V22H36.2357V21.713C36.2357 21.6547 36.2474 21.594 36.2707 21.531C36.2964 21.4657 36.3361 21.4073 36.3897 21.356L37.9262 19.816C38.0546 19.6853 38.1689 19.5605 38.2692 19.4415C38.3719 19.3225 38.4571 19.2047 38.5247 19.088C38.5924 18.9713 38.6437 18.8535 38.6787 18.7345C38.7161 18.6132 38.7347 18.486 38.7347 18.353C38.7347 18.2317 38.7172 18.1255 38.6822 18.0345C38.6472 17.9412 38.5971 17.863 38.5317 17.8C38.4687 17.737 38.3917 17.6903 38.3007 17.66C38.2121 17.6273 38.1117 17.611 37.9997 17.611C37.8971 17.611 37.8014 17.6262 37.7127 17.6565C37.6264 17.6845 37.5494 17.7253 37.4817 17.779C37.4141 17.8303 37.3569 17.891 37.3102 17.961C37.2636 18.031 37.2286 18.108 37.2052 18.192C37.1656 18.2993 37.1142 18.3705 37.0512 18.4055C36.9882 18.4405 36.8972 18.4487 36.7782 18.43L36.3232 18.3495C36.3582 18.1068 36.4259 17.8945 36.5262 17.7125C36.6266 17.5282 36.7514 17.3753 36.9007 17.254C37.0524 17.1303 37.2251 17.0382 37.4187 16.9775C37.6147 16.9145 37.8247 16.883 38.0487 16.883C38.2821 16.883 38.4956 16.918 38.6892 16.988C38.8829 17.0557 39.0486 17.1525 39.1862 17.2785C39.3239 17.4045 39.4312 17.5562 39.5082 17.7335C39.5852 17.9108 39.6237 18.108 39.6237 18.325C39.6237 18.5117 39.5957 18.6843 39.5397 18.843C39.4861 19.0017 39.4126 19.1533 39.3192 19.298C39.2282 19.4427 39.1209 19.5827 38.9972 19.718C38.8736 19.8533 38.7441 19.991 38.6087 20.131L37.4677 21.2965C37.5774 21.2638 37.6859 21.2393 37.7932 21.223C37.9029 21.2043 38.0067 21.195 38.1047 21.195H39.4032Z" fill="#2F1C04"/>
<rect width="24" height="11" transform="translate(51 14)" fill="#2F1C04"/>
<path d="M61.3477 18.3495C61.3827 18.1068 61.4504 17.8945 61.5507 17.7125C61.6511 17.5282 61.7759 17.3753 61.9252 17.254C62.0769 17.1303 62.2496 17.0382 62.4432 16.9775C62.6392 16.9145 62.8492 16.883 63.0732 16.883C63.3066 16.883 63.5166 16.9168 63.7032 16.9845C63.8922 17.0498 64.0532 17.142 64.1862 17.261C64.3192 17.3777 64.4207 17.5153 64.4907 17.674C64.5631 17.8327 64.5992 18.0042 64.5992 18.1885C64.5992 18.3495 64.5806 18.4918 64.5432 18.6155C64.5082 18.7368 64.4569 18.843 64.3892 18.934C64.3216 19.025 64.2376 19.102 64.1372 19.165C64.0369 19.228 63.9237 19.2805 63.7977 19.3225C64.1011 19.4182 64.3274 19.564 64.4767 19.76C64.6261 19.956 64.7007 20.2022 64.7007 20.4985C64.7007 20.7505 64.6541 20.9733 64.5607 21.167C64.4674 21.3607 64.3414 21.524 64.1827 21.657C64.0241 21.7877 63.8397 21.8868 63.6297 21.9545C63.4221 22.0222 63.2016 22.056 62.9682 22.056C62.7139 22.056 62.4922 22.0268 62.3032 21.9685C62.1142 21.9102 61.9497 21.8238 61.8097 21.7095C61.6697 21.5952 61.5507 21.4552 61.4527 21.2895C61.3547 21.1238 61.2707 20.9325 61.2007 20.7155L61.5822 20.558C61.6826 20.516 61.7759 20.5055 61.8622 20.5265C61.9509 20.5452 62.0151 20.5918 62.0547 20.6665C62.0967 20.7482 62.1422 20.8287 62.1912 20.908C62.2426 20.9873 62.3032 21.0585 62.3732 21.1215C62.4432 21.1822 62.5249 21.2323 62.6182 21.272C62.7139 21.3093 62.8271 21.328 62.9577 21.328C63.1047 21.328 63.2331 21.3047 63.3427 21.258C63.4524 21.209 63.5434 21.146 63.6157 21.069C63.6904 20.992 63.7452 20.9068 63.7802 20.8135C63.8176 20.7178 63.8362 20.6222 63.8362 20.5265C63.8362 20.4052 63.8234 20.2955 63.7977 20.1975C63.7721 20.0972 63.7184 20.012 63.6367 19.942C63.5551 19.872 63.4372 19.8172 63.2832 19.7775C63.1316 19.7378 62.9274 19.718 62.6707 19.718V19.102C62.8831 19.0997 63.0592 19.0798 63.1992 19.0425C63.3392 19.0052 63.4501 18.9538 63.5317 18.8885C63.6157 18.8208 63.6741 18.7403 63.7067 18.647C63.7394 18.5537 63.7557 18.451 63.7557 18.339C63.7557 18.101 63.6892 17.9202 63.5562 17.7965C63.4232 17.6728 63.2459 17.611 63.0242 17.611C62.9216 17.611 62.8271 17.6262 62.7407 17.6565C62.6544 17.6845 62.5762 17.7253 62.5062 17.779C62.4386 17.8303 62.3814 17.891 62.3347 17.961C62.2881 18.031 62.2531 18.108 62.2297 18.192C62.1901 18.2993 62.1376 18.3705 62.0722 18.4055C62.0092 18.4405 61.9194 18.4487 61.8027 18.43L61.3477 18.3495Z" fill="#FF9300"/>
<rect width="24" height="11" transform="translate(1 27)" fill="#2F1C04"/>
<path d="M14.5922 34.3525V35H11.7922V34.3525H12.8177V31.402C12.8177 31.2853 12.8212 31.1652 12.8282 31.0415L12.1002 31.6505C12.0582 31.6832 12.0162 31.7042 11.9742 31.7135C11.9346 31.7205 11.8961 31.7205 11.8587 31.7135C11.8237 31.7065 11.7922 31.6948 11.7642 31.6785C11.7362 31.6598 11.7152 31.64 11.7012 31.619L11.4282 31.2445L12.9717 29.932H13.6822V34.3525H14.5922Z" fill="#FF9300"/>
<rect width="24" height="11" transform="translate(26 27)" fill="#2F1C04"/>
<path d="M39.4032 34.195C39.4966 34.195 39.5701 34.2218 39.6237 34.2755C39.6797 34.3268 39.7077 34.3957 39.7077 34.482V35H36.2357V34.713C36.2357 34.6547 36.2474 34.594 36.2707 34.531C36.2964 34.4657 36.3361 34.4073 36.3897 34.356L37.9262 32.816C38.0546 32.6853 38.1689 32.5605 38.2692 32.4415C38.3719 32.3225 38.4571 32.2047 38.5247 32.088C38.5924 31.9713 38.6437 31.8535 38.6787 31.7345C38.7161 31.6132 38.7347 31.486 38.7347 31.353C38.7347 31.2317 38.7172 31.1255 38.6822 31.0345C38.6472 30.9412 38.5971 30.863 38.5317 30.8C38.4687 30.737 38.3917 30.6903 38.3007 30.66C38.2121 30.6273 38.1117 30.611 37.9997 30.611C37.8971 30.611 37.8014 30.6262 37.7127 30.6565C37.6264 30.6845 37.5494 30.7253 37.4817 30.779C37.4141 30.8303 37.3569 30.891 37.3102 30.961C37.2636 31.031 37.2286 31.108 37.2052 31.192C37.1656 31.2993 37.1142 31.3705 37.0512 31.4055C36.9882 31.4405 36.8972 31.4487 36.7782 31.43L36.3232 31.3495C36.3582 31.1068 36.4259 30.8945 36.5262 30.7125C36.6266 30.5282 36.7514 30.3753 36.9007 30.254C37.0524 30.1303 37.2251 30.0382 37.4187 29.9775C37.6147 29.9145 37.8247 29.883 38.0487 29.883C38.2821 29.883 38.4956 29.918 38.6892 29.988C38.8829 30.0557 39.0486 30.1525 39.1862 30.2785C39.3239 30.4045 39.4312 30.5562 39.5082 30.7335C39.5852 30.9108 39.6237 31.108 39.6237 31.325C39.6237 31.5117 39.5957 31.6843 39.5397 31.843C39.4861 32.0017 39.4126 32.1533 39.3192 32.298C39.2282 32.4427 39.1209 32.5827 38.9972 32.718C38.8736 32.8533 38.7441 32.991 38.6087 33.131L37.4677 34.2965C37.5774 34.2638 37.6859 34.2393 37.7932 34.223C37.9029 34.2043 38.0067 34.195 38.1047 34.195H39.4032Z" fill="#FF9300"/>
<rect width="24" height="11" transform="translate(51 27)" fill="#FF9300"/>
<path d="M61.3477 31.3495C61.3827 31.1068 61.4504 30.8945 61.5507 30.7125C61.6511 30.5282 61.7759 30.3753 61.9252 30.254C62.0769 30.1303 62.2496 30.0382 62.4432 29.9775C62.6392 29.9145 62.8492 29.883 63.0732 29.883C63.3066 29.883 63.5166 29.9168 63.7032 29.9845C63.8922 30.0498 64.0532 30.142 64.1862 30.261C64.3192 30.3777 64.4207 30.5153 64.4907 30.674C64.5631 30.8327 64.5992 31.0042 64.5992 31.1885C64.5992 31.3495 64.5806 31.4918 64.5432 31.6155C64.5082 31.7368 64.4569 31.843 64.3892 31.934C64.3216 32.025 64.2376 32.102 64.1372 32.165C64.0369 32.228 63.9237 32.2805 63.7977 32.3225C64.1011 32.4182 64.3274 32.564 64.4767 32.76C64.6261 32.956 64.7007 33.2022 64.7007 33.4985C64.7007 33.7505 64.6541 33.9733 64.5607 34.167C64.4674 34.3607 64.3414 34.524 64.1827 34.657C64.0241 34.7877 63.8397 34.8868 63.6297 34.9545C63.4221 35.0222 63.2016 35.056 62.9682 35.056C62.7139 35.056 62.4922 35.0268 62.3032 34.9685C62.1142 34.9102 61.9497 34.8238 61.8097 34.7095C61.6697 34.5952 61.5507 34.4552 61.4527 34.2895C61.3547 34.1238 61.2707 33.9325 61.2007 33.7155L61.5822 33.558C61.6826 33.516 61.7759 33.5055 61.8622 33.5265C61.9509 33.5452 62.0151 33.5918 62.0547 33.6665C62.0967 33.7482 62.1422 33.8287 62.1912 33.908C62.2426 33.9873 62.3032 34.0585 62.3732 34.1215C62.4432 34.1822 62.5249 34.2323 62.6182 34.272C62.7139 34.3093 62.8271 34.328 62.9577 34.328C63.1047 34.328 63.2331 34.3047 63.3427 34.258C63.4524 34.209 63.5434 34.146 63.6157 34.069C63.6904 33.992 63.7452 33.9068 63.7802 33.8135C63.8176 33.7178 63.8362 33.6222 63.8362 33.5265C63.8362 33.4052 63.8234 33.2955 63.7977 33.1975C63.7721 33.0972 63.7184 33.012 63.6367 32.942C63.5551 32.872 63.4372 32.8172 63.2832 32.7775C63.1316 32.7378 62.9274 32.718 62.6707 32.718V32.102C62.8831 32.0997 63.0592 32.0798 63.1992 32.0425C63.3392 32.0052 63.4501 31.9538 63.5317 31.8885C63.6157 31.8208 63.6741 31.7403 63.7067 31.647C63.7394 31.5537 63.7557 31.451 63.7557 31.339C63.7557 31.101 63.6892 30.9202 63.5562 30.7965C63.4232 30.6728 63.2459 30.611 63.0242 30.611C62.9216 30.611 62.8271 30.6262 62.7407 30.6565C62.6544 30.6845 62.5762 30.7253 62.5062 30.779C62.4386 30.8303 62.3814 30.891 62.3347 30.961C62.2881 31.031 62.2531 31.108 62.2297 31.192C62.1901 31.2993 62.1376 31.3705 62.0722 31.4055C62.0092 31.4405 61.9194 31.4487 61.8027 31.43L61.3477 31.3495Z" fill="#FF9915"/>
<path d="M61.3477 31.3495C61.3827 31.1068 61.4504 30.8945 61.5507 30.7125C61.6511 30.5282 61.7759 30.3753 61.9252 30.254C62.0769 30.1303 62.2496 30.0382 62.4432 29.9775C62.6392 29.9145 62.8492 29.883 63.0732 29.883C63.3066 29.883 63.5166 29.9168 63.7032 29.9845C63.8922 30.0498 64.0532 30.142 64.1862 30.261C64.3192 30.3777 64.4207 30.5153 64.4907 30.674C64.5631 30.8327 64.5992 31.0042 64.5992 31.1885C64.5992 31.3495 64.5806 31.4918 64.5432 31.6155C64.5082 31.7368 64.4569 31.843 64.3892 31.934C64.3216 32.025 64.2376 32.102 64.1372 32.165C64.0369 32.228 63.9237 32.2805 63.7977 32.3225C64.1011 32.4182 64.3274 32.564 64.4767 32.76C64.6261 32.956 64.7007 33.2022 64.7007 33.4985C64.7007 33.7505 64.6541 33.9733 64.5607 34.167C64.4674 34.3607 64.3414 34.524 64.1827 34.657C64.0241 34.7877 63.8397 34.8868 63.6297 34.9545C63.4221 35.0222 63.2016 35.056 62.9682 35.056C62.7139 35.056 62.4922 35.0268 62.3032 34.9685C62.1142 34.9102 61.9497 34.8238 61.8097 34.7095C61.6697 34.5952 61.5507 34.4552 61.4527 34.2895C61.3547 34.1238 61.2707 33.9325 61.2007 33.7155L61.5822 33.558C61.6826 33.516 61.7759 33.5055 61.8622 33.5265C61.9509 33.5452 62.0151 33.5918 62.0547 33.6665C62.0967 33.7482 62.1422 33.8287 62.1912 33.908C62.2426 33.9873 62.3032 34.0585 62.3732 34.1215C62.4432 34.1822 62.5249 34.2323 62.6182 34.272C62.7139 34.3093 62.8271 34.328 62.9577 34.328C63.1047 34.328 63.2331 34.3047 63.3427 34.258C63.4524 34.209 63.5434 34.146 63.6157 34.069C63.6904 33.992 63.7452 33.9068 63.7802 33.8135C63.8176 33.7178 63.8362 33.6222 63.8362 33.5265C63.8362 33.4052 63.8234 33.2955 63.7977 33.1975C63.7721 33.0972 63.7184 33.012 63.6367 32.942C63.5551 32.872 63.4372 32.8172 63.2832 32.7775C63.1316 32.7378 62.9274 32.718 62.6707 32.718V32.102C62.8831 32.0997 63.0592 32.0798 63.1992 32.0425C63.3392 32.0052 63.4501 31.9538 63.5317 31.8885C63.6157 31.8208 63.6741 31.7403 63.7067 31.647C63.7394 31.5537 63.7557 31.451 63.7557 31.339C63.7557 31.101 63.6892 30.9202 63.5562 30.7965C63.4232 30.6728 63.2459 30.611 63.0242 30.611C62.9216 30.611 62.8271 30.6262 62.7407 30.6565C62.6544 30.6845 62.5762 30.7253 62.5062 30.779C62.4386 30.8303 62.3814 30.891 62.3347 30.961C62.2881 31.031 62.2531 31.108 62.2297 31.192C62.1901 31.2993 62.1376 31.3705 62.0722 31.4055C62.0092 31.4405 61.9194 31.4487 61.8027 31.43L61.3477 31.3495Z" fill="#2F1C04"/>
</svg>
