<?xml version="1.0" encoding="utf-8"?>
<svg width="18px" height="18px" viewbox="0 0 18 18" version="1.1" xmlns:xlink="http://www.w3.org/1999/xlink" xmlns="http://www.w3.org/2000/svg">
  <defs>
    <rect width="18" height="18" id="artboard_1" />
    <clipPath id="clip_1">
      <use xlink:href="#artboard_1" clip-rule="evenodd" />
    </clipPath>
  </defs>
  <g id="DE_Deact" clip-path="url(#clip_1)">
    <path d="M2.999 0L14.001 0Q14.1483 0 14.295 0.014441Q14.4416 0.028882 14.5861 0.0576249Q14.7306 0.0863679 14.8716 0.129136Q15.0126 0.171904 15.1487 0.228285Q15.2848 0.284667 15.4147 0.354118Q15.5447 0.42357 15.6672 0.505423Q15.7897 0.587276 15.9035 0.680742Q16.0174 0.774208 16.1216 0.878387Q16.2258 0.982566 16.3193 1.09645Q16.4127 1.21034 16.4946 1.33284Q16.5764 1.45535 16.6459 1.58528Q16.7153 1.71522 16.7717 1.85133Q16.8281 1.98745 16.8709 2.12844Q16.9136 2.26942 16.9424 2.41392Q16.9711 2.55842 16.9856 2.70505Q17 2.85167 17 2.999L17 8.001Q17 8.14833 16.9856 8.29495Q16.9711 8.44158 16.9424 8.58607Q16.9136 8.73058 16.8709 8.87156Q16.8281 9.01255 16.7717 9.14867Q16.7153 9.28478 16.6459 9.41472Q16.5764 9.54465 16.4946 9.66715Q16.4127 9.78966 16.3193 9.90354Q16.2258 10.0174 16.1216 10.1216Q16.0174 10.2258 15.9035 10.3193Q15.7897 10.4127 15.6672 10.4946Q15.5447 10.5764 15.4147 10.6459Q15.2848 10.7153 15.1487 10.7717Q15.0126 10.8281 14.8716 10.8709Q14.7306 10.9136 14.5861 10.9424Q14.4416 10.9711 14.295 10.9856Q14.1483 11 14.001 11L2.999 11Q2.85167 11 2.70505 10.9856Q2.55842 10.9711 2.41392 10.9424Q2.26942 10.9136 2.12844 10.8709Q1.98745 10.8281 1.85133 10.7717Q1.71522 10.7153 1.58528 10.6459Q1.45535 10.5764 1.33284 10.4946Q1.21034 10.4127 1.09645 10.3193Q0.982566 10.2258 0.878387 10.1216Q0.774208 10.0174 0.680742 9.90354Q0.587276 9.78966 0.505423 9.66715Q0.42357 9.54465 0.354118 9.41472Q0.284667 9.28478 0.228285 9.14867Q0.171904 9.01255 0.129136 8.87156Q0.0863679 8.73058 0.0576249 8.58607Q0.028882 8.44158 0.014441 8.29495Q0 8.14833 0 8.001L0 2.999Q0 2.85167 0.014441 2.70505Q0.028882 2.55842 0.0576249 2.41392Q0.0863679 2.26942 0.129136 2.12844Q0.171904 1.98745 0.228285 1.85133Q0.284667 1.71522 0.354118 1.58528Q0.42357 1.45535 0.505423 1.33284Q0.587276 1.21034 0.680742 1.09645Q0.774208 0.982566 0.878387 0.878387Q0.982566 0.774208 1.09645 0.680742Q1.21034 0.587276 1.33284 0.505423Q1.45535 0.42357 1.58528 0.354118Q1.71522 0.284667 1.85133 0.228285Q1.98745 0.171904 2.12844 0.129136Q2.26942 0.0863679 2.41392 0.0576249Q2.55842 0.028882 2.70505 0.014441Q2.85167 0 2.999 0L2.999 0Z" transform="translate(0.5 3.5)" id="Rectangle" fill="#FF9000" fill-rule="evenodd" stroke="#000000" stroke-width="1" />
    <path d="M1.999 0L5.001 0Q5.0992 0 5.19694 0.00962573Q5.29467 0.0192515 5.39099 0.0384102Q5.4873 0.057569 5.58128 0.0860763Q5.67525 0.114584 5.76598 0.152165Q5.85671 0.189746 5.94332 0.236039Q6.02993 0.282333 6.11158 0.336892Q6.19324 0.391452 6.26915 0.453752Q6.34507 0.516052 6.41451 0.585494Q6.48395 0.654935 6.54625 0.730848Q6.60855 0.806761 6.66311 0.888415Q6.71767 0.970069 6.76396 1.05668Q6.81025 1.14329 6.84783 1.23402Q6.88542 1.32474 6.91392 1.41872Q6.94243 1.5127 6.96159 1.60901Q6.98075 1.70533 6.99037 1.80306Q7 1.9008 7 1.999L7 5.001Q7 5.0992 6.99037 5.19694Q6.98075 5.29467 6.96159 5.39099Q6.94243 5.4873 6.91392 5.58128Q6.88542 5.67525 6.84783 5.76598Q6.81025 5.85671 6.76396 5.94332Q6.71767 6.02993 6.66311 6.11158Q6.60855 6.19324 6.54625 6.26915Q6.48395 6.34507 6.41451 6.41451Q6.34506 6.48395 6.26915 6.54625Q6.19324 6.60855 6.11158 6.66311Q6.02993 6.71767 5.94332 6.76396Q5.85671 6.81025 5.76598 6.84783Q5.67525 6.88542 5.58128 6.91392Q5.4873 6.94243 5.39098 6.96159Q5.29467 6.98075 5.19694 6.99037Q5.0992 7 5.001 7L1.999 7Q1.9008 7 1.80306 6.99037Q1.70533 6.98075 1.60901 6.96159Q1.5127 6.94243 1.41872 6.91392Q1.32474 6.88542 1.23402 6.84783Q1.14329 6.81025 1.05668 6.76396Q0.970069 6.71767 0.888415 6.66311Q0.806761 6.60855 0.730848 6.54625Q0.654935 6.48395 0.585494 6.41451Q0.516052 6.34506 0.453752 6.26915Q0.391452 6.19324 0.336892 6.11158Q0.282333 6.02993 0.236039 5.94332Q0.189746 5.85671 0.152165 5.76598Q0.114584 5.67525 0.0860763 5.58128Q0.057569 5.4873 0.0384102 5.39098Q0.0192515 5.29467 0.00962573 5.19694Q0 5.0992 0 5.001L0 1.999Q0 1.9008 0.00962573 1.80306Q0.0192515 1.70533 0.0384102 1.60901Q0.057569 1.5127 0.0860763 1.41872Q0.114584 1.32474 0.152165 1.23402Q0.189746 1.14329 0.236039 1.05668Q0.282333 0.970069 0.336892 0.888415Q0.391452 0.806761 0.453752 0.730848Q0.516052 0.654935 0.585494 0.585494Q0.654935 0.516052 0.730848 0.453752Q0.806761 0.391452 0.888415 0.336892Q0.970069 0.282333 1.05668 0.236039Q1.14329 0.189746 1.23402 0.152165Q1.32474 0.114584 1.41872 0.0860763Q1.5127 0.057569 1.60901 0.0384102Q1.70533 0.0192515 1.80306 0.00962573Q1.9008 0 1.999 0L1.999 0Z" transform="translate(8.5 5.5)" id="Switch" fill="#00CC00" fill-rule="evenodd" stroke="#000000" stroke-width="1" />
  </g>
</svg>