<?xml version="1.0" encoding="utf-8"?>
<svg width="18px" height="18px" viewbox="0 0 18 18" version="1.1" xmlns:xlink="http://www.w3.org/1999/xlink" xmlns="http://www.w3.org/2000/svg">
  <defs>
    <rect width="18" height="18" id="artboard_1" />
    <clipPath id="clip_1">
      <use xlink:href="#artboard_1" clip-rule="evenodd" />
    </clipPath>
  </defs>
  <g id="TS_Act" clip-path="url(#clip_1)">
    <path d="M2.999 0L14.001 0Q14.1483 0 14.295 0.014441Q14.4416 0.028882 14.5861 0.0576249Q14.7306 0.0863679 14.8716 0.129136Q15.0126 0.171904 15.1487 0.228285Q15.2848 0.284667 15.4147 0.354118Q15.5447 0.42357 15.6672 0.505423Q15.7897 0.587276 15.9035 0.680742Q16.0174 0.774208 16.1216 0.878387Q16.2258 0.982566 16.3193 1.09645Q16.4127 1.21034 16.4946 1.33284Q16.5764 1.45535 16.6459 1.58528Q16.7153 1.71522 16.7717 1.85133Q16.8281 1.98745 16.8709 2.12844Q16.9136 2.26942 16.9424 2.41392Q16.9711 2.55842 16.9856 2.70505Q17 2.85167 17 2.999L17 14.001Q17 14.1483 16.9856 14.295Q16.9711 14.4416 16.9424 14.5861Q16.9136 14.7306 16.8709 14.8716Q16.8281 15.0126 16.7717 15.1487Q16.7153 15.2848 16.6459 15.4147Q16.5764 15.5447 16.4946 15.6672Q16.4127 15.7897 16.3193 15.9035Q16.2258 16.0174 16.1216 16.1216Q16.0174 16.2258 15.9035 16.3193Q15.7897 16.4127 15.6672 16.4946Q15.5447 16.5764 15.4147 16.6459Q15.2848 16.7153 15.1487 16.7717Q15.0126 16.8281 14.8716 16.8709Q14.7306 16.9136 14.5861 16.9424Q14.4416 16.9711 14.295 16.9856Q14.1483 17 14.001 17L2.999 17Q2.85167 17 2.70505 16.9856Q2.55842 16.9711 2.41392 16.9424Q2.26942 16.9136 2.12844 16.8709Q1.98745 16.8281 1.85133 16.7717Q1.71522 16.7153 1.58528 16.6459Q1.45535 16.5764 1.33284 16.4946Q1.21034 16.4127 1.09645 16.3193Q0.982566 16.2258 0.878387 16.1216Q0.774208 16.0174 0.680742 15.9035Q0.587276 15.7897 0.505423 15.6672Q0.42357 15.5447 0.354118 15.4147Q0.284667 15.2848 0.228285 15.1487Q0.171904 15.0126 0.129136 14.8716Q0.0863679 14.7306 0.0576249 14.5861Q0.028882 14.4416 0.014441 14.295Q0 14.1483 0 14.001L0 2.999Q0 2.85167 0.014441 2.70505Q0.028882 2.55842 0.0576249 2.41392Q0.0863679 2.26942 0.129136 2.12844Q0.171904 1.98745 0.228285 1.85133Q0.284667 1.71522 0.354118 1.58528Q0.42357 1.45535 0.505423 1.33284Q0.587276 1.21034 0.680742 1.09645Q0.774208 0.982566 0.878387 0.878387Q0.982566 0.774208 1.09645 0.680742Q1.21034 0.587276 1.33284 0.505423Q1.45535 0.42357 1.58528 0.354118Q1.71522 0.284667 1.85133 0.228285Q1.98745 0.171904 2.12844 0.129136Q2.26942 0.0863679 2.41392 0.0576249Q2.55842 0.028882 2.70505 0.014441Q2.85167 0 2.999 0L2.999 0Z" transform="translate(0.5 0.5)" id="Rectangle" fill="#FF9000" fill-rule="evenodd" stroke="#000000" stroke-width="1" />
    <path d="M3.16573 0C3.89487 1.7782 4.69096 2.82229 5.19813 3.40014C5.59866 3.85647 7.79474 5.88514 5.26385 9.05588C6.76676 5.95087 6.22611 4.11067 3.53774 2.97606L3.53774 9.54818C3.62206 12.2551 0.840688 12.4201 0.163637 11.6996C-0.536975 10.9568 1.11474 8.48919 3.16573 9.30017L3.16573 0L3.16573 0Z" transform="translate(6.000061 3)" id="18th-Note" fill="#000000" fill-rule="evenodd" stroke="#000000" stroke-width="0.5" />
  </g>
</svg>