<?xml version="1.0" encoding="utf-8"?>
<svg width="666px" height="179px" viewBox="0 0 666 179" version="1.1" xmlns:xlink="http://www.w3.org/1999/xlink" xmlns="http://www.w3.org/2000/svg">
  <defs>
    <rect width="666" height="179" id="artboard_1" />
    <clipPath id="clip_1">
      <use xlink:href="#artboard_1" clip-rule="evenodd" />
    </clipPath>
  </defs>
  <g id="bmp00158" clip-path="url(#clip_1)">
    <g id="Icon" transform="translate(0 0.4049225)">
      <path d="M98.7142 25.8446L136.305 51.3858L136.305 0L10.6966 0C4.76762 0 0 4.73211 0 10.6169L0 109.627L25.7329 116.847C27.0776 117.211 28.4224 116.422 28.8502 115.148L35.2682 92.0941C35.696 90.456 37.652 89.728 39.1189 90.6987L100.67 132.742C102.993 134.319 101.281 137.959 98.592 137.17L51.1602 124.005C49.8155 123.641 48.4097 124.43 48.1041 125.765L41.8084 148.819C41.3805 150.457 39.3634 151.185 37.9576 150.214L0 124.127L0 178L124.753 178C131.11 178 136.244 172.843 136.244 166.594L136.244 66.1888L110.817 59.1513C109.472 58.7873 108.127 59.576 107.76 60.85L101.159 83.9645C100.67 85.6026 98.7753 86.2699 97.3084 85.3599L35.696 43.2563C33.3733 41.6789 35.0848 38.0389 37.7742 38.8275L85.2059 51.9925C86.5507 52.3565 87.8954 51.5678 88.2621 50.2938L94.8634 27.1793C95.3524 25.6019 97.2472 24.8739 98.7142 25.8446L98.7142 25.8446L98.7142 25.8446Z" id="XMLID_3_" fill="#FF9000" fill-rule="evenodd" stroke="none" />
    </g>
    <g id="FREE--&amp;--OPEN--SOURCE-HYBRID" transform="translate(160 107.32825)">
      <g id="FREE--&amp;--OPEN--SOURCE" fill="#2D86FE">
        <path d="M287.355 18.41L272.41 5.635L272.41 32.34L279.165 32.34L279.165 20.125L294.11 32.865L294.11 6.16L287.355 6.16L287.355 18.41ZM151.325 32.725L154.86 28.035L150.765 24.71Q151.955 22.155 152.795 19.005L146.81 17.5Q146.355 19.565 145.9 20.825L141.07 16.905Q140.965 16.8 140.265 16.275Q140.23 16.205 139.915 15.96Q139.81 15.855 139.722 15.785Q139.635 15.715 139.582 15.6625Q139.53 15.61 139.495 15.5575Q139.46 15.505 139.39 15.435L139.25 15.295Q138.41 14.455 138.41 13.37Q138.41 12.355 138.952 11.7775Q139.495 11.2 140.44 11.2Q142.4 11.2 142.68 13.405L149.225 12.845Q148.665 9.52 146.302 7.6475Q143.94 5.775 140.44 5.775Q136.38 5.775 134.035 7.805Q131.69 9.835 131.69 13.475Q131.69 15.925 133.615 18.165Q129.835 20.93 129.835 24.99Q129.835 28.315 132.32 30.52Q134.84 32.725 139.53 32.725Q144.22 32.725 147.44 29.575L151.325 32.725ZM191.125 5.775Q197.25 5.775 201.065 9.485Q204.95 13.16 204.95 19.25Q204.95 25.34 201.065 29.05Q197.25 32.725 191.125 32.725Q184.965 32.725 181.08 29.05Q177.23 25.305 177.23 19.25Q177.23 13.16 181.08 9.485Q184.93 5.775 191.125 5.775ZM339.545 14.28L332.65 14.63Q332.65 13.23 331.828 12.425Q331.005 11.62 329.535 11.62Q328.275 11.62 327.522 12.2325Q326.77 12.845 326.77 13.93Q326.77 14.91 327.645 15.435Q328.59 15.925 331.11 16.555Q335.695 17.78 337.813 19.5475Q339.93 21.315 339.93 24.43Q339.93 28.56 337.165 30.66Q334.365 32.725 330.095 32.725Q325.23 32.725 322.22 30.415Q319.245 28.07 319.28 23.87L326.175 23.52Q326.14 25.025 327.242 25.9525Q328.345 26.88 330.095 26.88Q333.035 26.88 333.035 24.78Q333.035 23.87 332.02 23.2225Q331.005 22.575 328.59 21.945Q324.74 21 322.5 19.53Q319.875 17.815 319.875 14.14Q319.875 10.5 322.325 8.155Q324.81 5.775 329.395 5.775Q333.945 5.775 336.745 8.05Q339.475 10.29 339.545 14.28ZM372.835 9.485Q369.02 5.775 362.895 5.775Q356.7 5.775 352.85 9.485Q349 13.16 349 19.25Q349 25.305 352.85 29.05Q356.735 32.725 362.895 32.725Q369.02 32.725 372.835 29.05Q376.72 25.34 376.72 19.25Q376.72 13.16 372.835 9.485ZM464.69 5.775Q469.625 5.775 473.125 8.505Q476.66 11.27 477.395 15.89L470.325 16.555Q469.205 11.76 464.445 11.76Q461.505 11.76 459.737 13.8075Q457.97 15.855 457.97 19.25Q457.97 22.785 459.755 24.7625Q461.54 26.74 464.445 26.74Q466.79 26.74 468.33 25.4975Q469.87 24.255 470.325 21.945L477.395 22.54Q476.66 27.195 473.125 29.995Q469.625 32.725 464.69 32.725Q458.705 32.725 454.855 29.085Q451.075 25.48 451.075 19.25Q451.075 13.02 454.855 9.415Q458.705 5.775 464.69 5.775ZM19.46 6.16L19.46 12.145L9.065 12.145L9.065 15.96L17.36 15.96L17.36 21.945L9.065 21.945L9.065 32.34L2.31 32.34L2.31 6.16L19.46 6.16ZM51.14 32.34L43.51 32.34L38.855 23.59L35.985 23.59L35.985 32.34L29.23 32.34L29.23 6.16L41.06 6.16Q45.085 6.16 47.43 8.4875Q49.775 10.815 49.775 14.875Q49.775 20.23 45.855 22.435L51.14 32.34ZM77.78 12.145L77.78 6.16L60.63 6.16L60.63 32.34L77.815 32.34L77.815 26.355L67.385 26.355L67.385 21.91L76.275 21.91L76.275 16.065L67.385 16.065L67.385 12.145L77.78 12.145ZM105.26 6.16L105.26 12.145L94.865 12.145L94.865 16.065L103.755 16.065L103.755 21.91L94.865 21.91L94.865 26.355L105.295 26.355L105.295 32.34L88.11 32.34L88.11 6.16L105.26 6.16ZM226.97 6.16L215 6.16L215 32.34L221.755 32.34L221.755 23.625L226.97 23.625Q230.96 23.625 233.305 21.315Q235.685 18.935 235.685 14.91Q235.685 10.85 233.34 8.505Q230.995 6.16 226.97 6.16ZM262.08 6.16L262.08 12.145L251.685 12.145L251.685 16.065L260.575 16.065L260.575 21.91L251.685 21.91L251.685 26.355L262.115 26.355L262.115 32.34L244.93 32.34L244.93 6.16L262.08 6.16ZM403.045 6.16L409.765 6.16L409.765 21.21Q409.765 26.635 406.685 29.68Q403.64 32.725 398.215 32.725Q392.755 32.725 389.675 29.68Q386.595 26.635 386.595 21.21L386.595 6.16L393.35 6.16L393.35 21.105Q393.35 26.74 398.215 26.74Q403.045 26.74 403.045 21.105L403.045 6.16ZM434.725 32.34L442.355 32.34L437.07 22.435Q440.99 20.23 440.99 14.875Q440.99 10.815 438.645 8.4875Q436.3 6.16 432.275 6.16L420.445 6.16L420.445 32.34L427.2 32.34L427.2 23.59L430.07 23.59L434.725 32.34ZM504.49 12.145L504.49 6.16L487.34 6.16L487.34 32.34L504.525 32.34L504.525 26.355L494.095 26.355L494.095 21.91L502.985 21.91L502.985 16.065L494.095 16.065L494.095 12.145L504.49 12.145ZM191.125 11.76Q187.905 11.76 186.015 13.7725Q184.125 15.785 184.125 19.25Q184.125 22.715 186.015 24.7275Q187.905 26.74 191.125 26.74Q194.31 26.74 196.182 24.7275Q198.055 22.715 198.055 19.25Q198.055 15.785 196.182 13.7725Q194.31 11.76 191.125 11.76ZM357.785 13.7725Q359.675 11.76 362.895 11.76Q366.08 11.76 367.952 13.7725Q369.825 15.785 369.825 19.25Q369.825 22.715 367.952 24.7275Q366.08 26.74 362.895 26.74Q359.675 26.74 357.785 24.7275Q355.895 22.715 355.895 19.25Q355.895 15.785 357.785 13.7725ZM35.985 12.145L35.985 17.605L40.255 17.605Q41.515 17.605 42.215 16.87Q42.915 16.135 42.915 14.875Q42.915 13.615 42.215 12.88Q41.515 12.145 40.255 12.145L35.985 12.145ZM221.755 12.145L226.13 12.145Q227.355 12.145 228.09 12.88Q228.825 13.615 228.825 14.91Q228.825 16.205 228.09 16.94Q227.355 17.675 226.13 17.675L221.755 17.675L221.755 12.145ZM431.47 17.605L427.2 17.605L427.2 12.145L431.47 12.145Q432.73 12.145 433.43 12.88Q434.13 13.615 434.13 14.875Q434.13 16.135 433.43 16.87Q432.73 17.605 431.47 17.605ZM142.855 25.865Q141.385 27.02 139.635 27.02Q138.27 27.02 137.465 26.3375Q136.66 25.655 136.66 24.395Q136.66 22.715 137.745 21.735L142.855 25.865Z" />
      </g>
      <g id="HYBRID--SYNTHESIZER" fill="#2D86FE">
        <path d="M273.775 56.91L258.83 44.135L258.83 70.84L265.585 70.84L265.585 58.625L280.53 71.365L280.53 44.66L273.775 44.66L273.775 56.91ZM209.05 53.13L215.945 52.78Q215.875 48.79 213.145 46.55Q210.345 44.275 205.795 44.275Q201.21 44.275 198.725 46.655Q196.275 49 196.275 52.64Q196.275 56.315 198.9 58.03Q201.14 59.5 204.99 60.445Q207.405 61.075 208.42 61.7225Q209.435 62.37 209.435 63.28Q209.435 65.38 206.495 65.38Q204.745 65.38 203.643 64.4525Q202.54 63.525 202.575 62.02L195.68 62.37Q195.645 66.57 198.62 68.915Q201.63 71.225 206.495 71.225Q210.765 71.225 213.565 69.16Q216.33 67.06 216.33 62.93Q216.33 59.815 214.213 58.0475Q212.095 56.28 207.51 55.055Q204.99 54.425 204.045 53.935Q203.17 53.41 203.17 52.43Q203.17 51.345 203.923 50.7325Q204.675 50.12 205.935 50.12Q207.405 50.12 208.228 50.925Q209.05 51.73 209.05 53.13ZM393.67 53.13L400.565 52.78Q400.495 48.79 397.765 46.55Q394.965 44.275 390.415 44.275Q385.83 44.275 383.345 46.655Q380.895 49 380.895 52.64Q380.895 56.315 383.52 58.03Q385.76 59.5 389.61 60.445Q392.025 61.075 393.04 61.7225Q394.055 62.37 394.055 63.28Q394.055 65.38 391.115 65.38Q389.365 65.38 388.263 64.4525Q387.16 63.525 387.195 62.02L380.3 62.37Q380.265 66.57 383.24 68.915Q386.25 71.225 391.115 71.225Q395.385 71.225 398.185 69.16Q400.95 67.06 400.95 62.93Q400.95 59.815 398.833 58.0475Q396.715 56.28 392.13 55.055Q389.61 54.425 388.665 53.935Q387.79 53.41 387.79 52.43Q387.79 51.345 388.543 50.7325Q389.295 50.12 390.555 50.12Q392.025 50.12 392.848 50.925Q393.67 51.73 393.67 53.13ZM24.57 44.66L24.57 70.84L17.815 70.84L17.815 60.48L9.065 60.48L9.065 70.84L2.31 70.84L2.31 44.66L9.065 44.66L9.065 54.495L17.815 54.495L17.815 44.66L24.57 44.66ZM59.61 44.66L49.705 61.25L49.705 70.84L42.95 70.84L42.95 61.25L33.01 44.66L40.85 44.66L46.31 54.53L51.77 44.66L59.61 44.66ZM68.05 44.66L68.05 70.84L80.405 70.84Q84.43 70.84 86.775 68.7575Q89.12 66.675 89.12 62.965Q89.12 60.865 88.2625 59.3075Q87.405 57.75 85.97 57.015Q88.105 54.985 88.105 52.115Q88.105 48.475 85.8475 46.5675Q83.59 44.66 79.705 44.66L68.05 44.66ZM120.94 70.84L113.31 70.84L108.655 62.09L105.785 62.09L105.785 70.84L99.03 70.84L99.03 44.66L110.86 44.66Q114.885 44.66 117.23 46.9875Q119.575 49.315 119.575 53.375Q119.575 58.73 115.655 60.935L120.94 70.84ZM136.835 70.84L136.835 44.66L130.08 44.66L130.08 70.84L136.835 70.84ZM147.305 70.84L147.305 44.66L158.4 44.66Q164.21 44.66 167.92 48.195Q171.63 51.695 171.63 57.75Q171.63 63.805 167.92 67.305C165.447 69.6617 162.273 70.84 158.4 70.84L147.305 70.84ZM250.39 44.66L240.485 61.25L240.485 70.84L233.73 70.84L233.73 61.25L223.79 44.66L231.63 44.66L237.09 54.53L242.55 44.66L250.39 44.66ZM312.49 44.66L312.49 50.645L304.335 50.645L304.335 70.84L297.58 70.84L297.58 50.645L289.39 50.645L289.39 44.66L312.49 44.66ZM336.855 70.84L343.61 70.84L343.61 44.66L336.855 44.66L336.855 54.495L328.105 54.495L328.105 44.66L321.35 44.66L321.35 70.84L328.105 70.84L328.105 60.48L336.855 60.48L336.855 70.84ZM371.23 44.66L371.23 50.645L360.835 50.645L360.835 54.565L369.725 54.565L369.725 60.41L360.835 60.41L360.835 64.855L371.265 64.855L371.265 70.84L354.08 70.84L354.08 44.66L371.23 44.66ZM417.195 70.84L410.44 70.84L410.44 44.66L417.195 44.66L417.195 70.84ZM436.38 64.855L446.355 44.66L426.615 44.66L426.615 50.645L436.205 50.645L426.23 70.84L446.215 70.84L446.215 64.855L436.38 64.855ZM472.75 44.66L472.75 50.645L462.355 50.645L462.355 54.565L471.245 54.565L471.245 60.41L462.355 60.41L462.355 64.855L472.785 64.855L472.785 70.84L455.6 70.84L455.6 44.66L472.75 44.66ZM497.01 70.84L504.64 70.84L499.355 60.935Q503.275 58.73 503.275 53.375Q503.275 49.315 500.93 46.9875Q498.585 44.66 494.56 44.66L482.73 44.66L482.73 70.84L489.485 70.84L489.485 62.09L492.355 62.09L497.01 70.84ZM158.47 50.47L154.06 50.47L154.06 65.03L158.47 65.03Q161.585 65.03 163.265 63.1925Q164.945 61.355 164.945 57.75Q164.945 54.145 163.265 52.3075Q161.585 50.47 158.47 50.47ZM74.805 50.645L78.935 50.645Q81.21 50.645 81.21 52.64Q81.21 54.6 78.865 54.6L74.805 54.6L74.805 50.645ZM105.785 50.645L105.785 56.105L110.055 56.105Q111.315 56.105 112.015 55.37Q112.715 54.635 112.715 53.375Q112.715 52.115 112.015 51.38Q111.315 50.645 110.055 50.645L105.785 50.645ZM493.755 56.105L489.485 56.105L489.485 50.645L493.755 50.645Q495.015 50.645 495.715 51.38Q496.415 52.115 496.415 53.375Q496.415 54.635 495.715 55.37Q495.015 56.105 493.755 56.105ZM74.805 60.34L79.565 60.34Q82.225 60.34 82.225 62.615Q82.225 64.855 79.6 64.855L74.805 64.855L74.805 60.34Z" />
      </g>
    </g>
    <g id="SURGE-XT" fill="#FFFFFF" transform="translate(158.49463 0)">
      <path d="M59.424 23.368L40.512 24.328Q40.512 20.488 38.256 18.28Q36 16.072 31.968 16.072Q28.512 16.072 26.448 17.752Q24.384 19.432 24.384 22.408Q24.384 25.096 26.784 26.536Q29.376 27.88 36.288 29.608Q48.864 32.968 54.672 37.816Q60.48 42.664 60.48 51.208Q60.48 62.536 52.896 68.296Q45.216 73.96 33.504 73.96Q20.16 73.96 11.904 67.624Q3.744 61.192 3.84 49.672L22.752 48.712Q22.656 52.84 25.68 55.384Q28.704 57.928 33.504 57.928Q41.568 57.928 41.568 52.168Q41.568 49.672 38.784 47.896Q36 46.12 29.376 44.392Q18.816 41.8 12.672 37.768Q5.472 33.064 5.472 22.984Q5.472 13 12.192 6.56799Q19.008 0.0399933 31.584 0.0399933Q44.064 0.0400009 51.744 6.28Q59.232 12.424 59.424 23.368ZM249.984 32.008L285.024 32.008L285.024 37.96Q285.024 53.992 275.616 63.976Q266.208 73.96 250.176 73.96Q233.76 73.96 223.2 63.976Q212.832 54.088 212.832 37Q212.832 19.912 223.2 10.024Q233.76 0.0400009 250.176 0.0399933Q262.944 0.0400009 271.968 6.424Q280.992 12.808 284.256 24.232L265.056 27.4Q261.6 16.456 249.984 16.456Q241.152 16.456 236.448 21.64Q231.744 26.824 231.744 37Q231.744 47.176 236.448 52.36Q241.152 57.544 249.984 57.544Q260.64 57.544 264.288 48.424L249.984 48.424L249.984 32.008ZM115.104 1.096L133.536 1.096L133.536 42.376Q133.536 57.256 125.088 65.608Q116.736 73.96 101.856 73.96Q86.88 73.96 78.432 65.608Q69.984 57.256 69.984 42.376L69.984 1.096L88.512 1.096L88.512 42.088Q88.512 57.544 101.856 57.544Q115.104 57.544 115.104 42.088L115.104 1.096ZM184.992 72.904L205.92 72.904L191.424 45.736Q202.176 39.688 202.176 25Q202.176 13.864 195.744 7.48Q189.312 1.096 178.272 1.096L145.824 1.096L145.824 72.904L164.352 72.904L164.352 48.904L172.224 48.904L184.992 72.904ZM342.912 17.512L342.912 1.096L295.872 1.096L295.872 72.904L343.008 72.904L343.008 56.488L314.4 56.488L314.4 44.296L338.784 44.296L338.784 28.264L314.4 28.264L314.4 17.512L342.912 17.512ZM438.144 1.096L418.56 36.424L439.392 72.904L417.984 72.904L404.832 48.712L391.584 72.904L370.176 72.904L391.008 36.424L371.424 1.096L392.832 1.096L404.832 24.04L416.736 1.096L438.144 1.096ZM506.016 17.512L506.016 1.096L442.656 1.096L442.656 17.512L465.12 17.512L465.12 72.904L483.648 72.904L483.648 17.512L506.016 17.512ZM164.352 32.488L164.352 17.512L176.064 17.512Q179.52 17.512 181.44 19.528Q183.36 21.544 183.36 25Q183.36 28.456 181.44 30.472Q179.52 32.488 176.064 32.488L164.352 32.488Z" />
    </g>
  </g>
</svg>