<?xml version="1.0" encoding="utf-8"?>
<svg width="960px" height="560px" viewBox="0 0 960 560" version="1.1" xmlns:xlink="http://www.w3.org/1999/xlink" xmlns="http://www.w3.org/2000/svg">
  <desc>Created with Lunacy</desc>
  <defs>
    <rect width="960" height="560" id="artboard_1" />
    <clipPath id="clip_1">
      <use xlink:href="#artboard_1" clip-rule="evenodd" />
    </clipPath>
  </defs>
  <g id="Surge-Logo" clip-path="url(#clip_1)">
    <g id="HYBRID-SYNTHESIZER" transform="translate(306.8 381.7)">
      <path d="M36.6 0L36.6 43L25.5 43L25.5 26L11.1 26L11.1 43L0 43L0 0L11.1 0L11.1 16.2L25.5 16.2L25.5 0L36.6 0L36.6 0Z" transform="translate(0 0.8999634)" id="H" fill="#2D86FE" stroke="none" />
      <path d="M43.7 0L27.4 27.3L27.4 43.1L16.3 43.1L16.3 27.3L0 0L12.9 0L21.9 16.2L30.9 0L43.7 0L43.7 0Z" transform="translate(39.00003 0.8999634)" id="Y" fill="#2D86FE" stroke="none" />
      <path d="M0 0L0 43L20.3 43C24.7 43 28.2 41.9 30.8 39.6C33.4 37.3 34.7 34.2 34.7 30.1C34.7 27.8 34.2 25.8 33.3 24.1C32.3 22.4 31.1 21.1 29.5 20.3C31.8 18 33 15.3 33 12.2C33 8.20001 31.8 5.20001 29.3 3.10001C26.8 1 23.5 0 19.2 0L0 0ZM17.9 9.70001L11.1 9.70001L11.1 16.2L17.8 16.2C20.4001 16.2 21.7 15.1 21.7 13C21.7 10.8 20.4 9.70001 17.9 9.70001ZM11.2 25.7L19 25.7C21.9 25.7 23.3 26.9 23.4 29.4C23.4 31.9 22 33.1 19.1 33.1L11.2 33.1L11.2 25.7Z" transform="translate(85 1)" id="B" fill="#2D86FE" fill-rule="evenodd" stroke="none" />
      <path d="M23.5 43L36 43L27.5 26.7C31.7 24.3 33.9 20.2 33.9 14.3C33.9 9.89999 32.6 6.39999 30 3.79999C27.4 1.29999 23.9 0 19.5 0L0 0L0 43L11.1 43L11.1 28.6L15.8 28.6L23.5 43ZM11.1 18.7L11.1 9.70001L18.1 9.70001C19.5001 9.70001 20.5001 10.1 21.3 10.9C22.0001 11.7 22.4001 12.8 22.4001 14.2C22.4001 15.6 22.1 16.7 21.3 17.5C20.6 18.3 19.5 18.7 18.1 18.7L11.1 18.7Z" transform="translate(124.49997 1)" id="R" fill="#2D86FE" fill-rule="evenodd" stroke="none" />
      <path d="M11.1 0L11.1 43L0 43L0 0L11.1 0L11.1 0Z" transform="translate(164 0.8999634)" id="I" fill="#2D86FE" stroke="none" />
      <path d="M0 0L0 43L18.2 43C24.6 43 29.8 41.1 33.9 37.2C38 33.4 40 28.1 40 21.5C40 14.9 38 9.59998 33.9 5.79999C29.8 1.89999 24.6 0 18.2 0L0 0ZM11.1 9.5L18.4 9.5C21.8 9.5 24.4 10.5 26.3 12.6C28.2 14.6 29.1 17.5 29.1 21.5C29.1 25.4 28.1 28.4 26.3 30.4C24.4 32.4 21.8 33.4 18.4 33.4L11.1 33.4L11.1 9.5Z" transform="translate(180.80002 1)" id="D" fill="#2D86FE" fill-rule="evenodd" stroke="none" />
      <path d="M33.2043 14.2L21.9044 14.8C21.9044 13.3 21.4044 12.1 20.5043 11.2C19.6043 10.3 18.3043 9.89999 16.7043 9.89999C15.3043 9.89999 14.2043 10.2 13.4044 10.9C12.6044 11.6 12.2043 12.5 12.2043 13.7C12.2043 14.8 12.7043 15.6 13.6044 16.2C14.6044 16.7 16.5044 17.4 19.3044 18C24.3044 19.3 28.0044 21 30.3044 22.9C32.6044 24.8 33.8044 27.5 33.8044 30.9C33.8044 35.4 32.3044 38.8 29.3044 41.1C26.2044 43.4 22.4044 44.5 17.7044 44.5C12.4044 44.5 8.10443 43.2 4.80438 40.7C1.50439 38.1 -0.0956421 34.5 0.00439453 29.9L11.3044 29.3C11.3044 31 11.8044 32.3 13.1044 33.3C14.3044 34.3 15.9044 34.8 17.8044 34.8C21.0044 34.8 22.6044 33.6 22.6044 31.3C22.6044 30.3 22.0044 29.4 20.9044 28.7C19.8044 28 17.9044 27.3 15.3044 26.6C11.1044 25.6 7.70441 24.2 5.30438 22.6C2.40436 20.7 1.00439 17.8 1.00439 13.7C1.00439 9.69998 2.30438 6.39999 5.00439 3.89999C7.70441 1.29999 11.6044 0 16.6044 0C21.6044 0 25.6044 1.20001 28.7043 3.70001C31.6044 6.39999 33.1044 9.79999 33.2043 14.2L33.2043 14.2Z" transform="translate(234.49567 0.10003662)" id="S" fill="#2D86FE" stroke="none" />
      <path d="M43.7 0L27.4 27.3L27.4 43.1L16.3 43.1L16.3 27.3L0 0L12.9 0L21.9 16.2L30.9 0L43.7 0L43.7 0Z" transform="translate(269.10004 0.8999634)" id="Y" fill="#2D86FE" stroke="none" />
      <path d="M0 0L24.6 21L24.6 0.899994L35.6999 0.899994L35.6999 44.8L11.1 23.9L11.1 44L0 44L0 0L0 0Z" transform="translate(315.2 0)" id="N" fill="#2D86FE" stroke="none" />
      <path d="M38 0L38 9.79999L24.6 9.79999L24.6 43L13.5 43L13.5 9.79999L0 9.79999L0 0L38 0L38 0Z" transform="translate(353.90002 0.8999634)" id="T" fill="#2D86FE" stroke="none" />
      <path d="M36.6 0L36.6 43L25.5 43L25.5 26L11.1 26L11.1 43L0 43L0 0L11.1 0L11.1 16.2L25.5 16.2L25.5 0L36.6 0L36.6 0Z" transform="translate(394.90002 0.8999634)" id="H" fill="#2D86FE" stroke="none" />
      <path d="M28.2 0.100037L28.2 9.90002L11.1 9.90002L11.1 16.3L25.7 16.3L25.7 25.9L11.1 25.9L11.1 33.2L28.2 33.2L28.2 43L0 43L0 0L28.2 0L28.2 0.100037Z" transform="translate(437.2 0.7999878)" id="E" fill="#2D86FE" stroke="none" />
      <path d="M33.2043 14.2L21.9044 14.8C21.9044 13.3 21.4044 12.1 20.5043 11.2C19.6043 10.3 18.3043 9.89999 16.7043 9.89999C15.3043 9.89999 14.2043 10.2 13.4044 10.9C12.6044 11.6 12.2043 12.5 12.2043 13.7C12.2043 14.8 12.7043 15.6 13.6044 16.2C14.6044 16.7 16.5044 17.4 19.3044 18C24.3044 19.3 28.0044 21 30.3044 22.9C32.6044 24.8 33.8044 27.5 33.8044 30.9C33.8044 35.4 32.3044 38.8 29.3044 41.1C26.2044 43.4 22.4044 44.5 17.7044 44.5C12.4044 44.5 8.10443 43.2 4.80438 40.7C1.50439 38.1 -0.0956421 34.5 0.00439453 29.9L11.3044 29.3C11.3044 31 11.8044 32.3 13.1044 33.3C14.3044 34.3 15.9044 34.8 17.8044 34.8C21.0044 34.8 22.6044 33.6 22.6044 31.3C22.6044 30.3 22.0044 29.4 20.9044 28.7C19.8044 28 17.9044 27.3 15.3044 26.6C11.1044 25.6 7.70441 24.2 5.30438 22.6C2.40436 20.7 1.00439 17.8 1.00439 13.7C1.00439 9.69998 2.30438 6.39999 5.00439 3.89999C7.70441 1.29999 11.6044 0 16.6044 0C21.6044 0 25.6044 1.20001 28.7043 3.70001C31.6043 6.39999 33.2043 9.79999 33.2043 14.2L33.2043 14.2Z" transform="translate(468.8957 0.10003662)" id="S" fill="#2D86FE" stroke="none" />
      <path d="M11.1 0L11.1 43L0 43L0 0L11.1 0L11.1 0Z" transform="translate(506.90002 0.8999634)" id="I" fill="#2D86FE" stroke="none" />
      <path d="M33.1 0L16.7 33.2L32.9 33.2L32.9 43L0 43L16.4 9.79999L0.600037 9.79999L0.600037 0L33.1 0L33.1 0Z" transform="translate(521.3 0.8999634)" id="Z" fill="#2D86FE" stroke="none" />
      <path d="M28.3 0.100037L28.3 9.90002L11.2 9.90002L11.2 16.3L25.8 16.3L25.8 25.9L11.2 25.9L11.2 33.2L28.3 33.2L28.3 43L0 43L0 0L28.3 0L28.3 0.100037Z" transform="translate(558 0.7999878)" id="E" fill="#2D86FE" stroke="none" />
      <path d="M23.5 43L36 43L27.5 26.7C31.7 24.3 33.9 20.2 33.9 14.3C33.9 9.89999 32.6 6.39999 30 3.79999C27.4 1.29999 23.9 0 19.5 0L0 0L0 43L11.1 43L11.1 28.6L15.8 28.6L23.5 43ZM11.1 18.7L11.1 9.70001L18.1 9.70001C19.5 9.70001 20.5 10.1 21.3 10.9C21.9999 11.7 22.4 12.8 22.4 14.2C22.4 15.6 22.1 16.7 21.3 17.5C20.6 18.3 19.5 18.7 18.1 18.7L11.1 18.7Z" transform="translate(591.2 1)" id="R" fill="#2D86FE" fill-rule="evenodd" stroke="none" />
    </g>
    <g id="FREE-&amp;-OPEN-SOURCE" transform="translate(306.8 319.09998)">
      <path d="M28.2 0L28.2 9.79999L11.1 9.79999L11.1 16.1L24.7 16.1L24.7 25.9L11.1 25.9L11.1 43L0 43L0 0L28.2 0L28.2 0Z" transform="translate(0 0.9000244)" id="F" fill="#2D86FE" stroke="none" />
      <path d="M23.5 43L36 43L27.5 26.7C31.7 24.3 33.9 20.2 33.9 14.3C33.9 9.89999 32.6 6.39999 30 3.79999C27.4 1.29999 23.9 0 19.5 0L0 0L0 43L11.1 43L11.1 28.6L15.8 28.6L23.5 43ZM11 18.8L11 9.79999L18 9.79999C19.4001 9.79999 20.4001 10.2 21.2 11C21.9001 11.8 22.3 12.9 22.3 14.3C22.3 15.7 22 16.8 21.2 17.6C20.5 18.4 19.4 18.8 18 18.8L11 18.8Z" transform="translate(32.899994 0.9000244)" id="R" fill="#2D86FE" fill-rule="evenodd" stroke="none" />
      <path d="M28.3 0.100037L28.3 9.90002L11.2 9.90002L11.2 16.3L25.8 16.3L25.8 25.9L11.2 25.9L11.2 33.2L28.3 33.2L28.3 43L0 43L0 0L28.3 0L28.3 0.100037Z" transform="translate(73.00003 0.79992676)" id="E" fill="#2D86FE" stroke="none" />
      <path d="M28.3 0.100037L28.3 9.90002L11.2 9.90002L11.2 16.3L25.8 16.3L25.8 25.9L11.2 25.9L11.2 33.2L28.3 33.2L28.3 43L0 43L0 0L28.3 0L28.3 0.100037Z" transform="translate(106.70001 0.79992676)" id="E" fill="#2D86FE" stroke="none" />
      <path d="M35.4 44.2L41.2 36.5L34.2 31C35.5 28.2 36.6 25.1 37.5 21.6L27.7 19.1C27.2 21.4 26.7 23.2 26.2 24.6L18.3 18.2C18.2 18.1 17.8 17.8 17 17.2C16.9 17.1 16.7 17 16.4 16.7L16.1 16.4001L15.9 16.2C15.9 16.1 15.8 16.1 15.8 16L15.6 15.8L15.4 15.6C14.5 14.6 14 13.6 14 12.4C14 11.3 14.3 10.4 14.9 9.79999C15.4 9.19998 16.3 8.89999 17.3 8.89999C19.5 8.89999 20.7 10.1 21 12.5L31.8 11.6C31.2 8 29.6 5.20001 27 3.10001C24.5 1 21.2 0 17.4 0C13 0 9.5 1.09998 6.89999 3.29999C4.29999 5.49997 3 8.59998 3 12.6C3 15.3 4.10001 17.8 6.20001 20.3C2.10001 23.3 0 27 0 31.5C0 35.2 1.39999 38.2 4.10001 40.6C6.89999 43 10.9 44.2 16 44.2C21.1 44.2 25.5 42.5 29 39L35.4 44.2ZM21.5 33C19.9 34.3 18.1 34.9 16.2 34.9C14.7 34.9 13.5 34.5 12.6 33.8C11.7 33 11.3 32 11.3 30.6C11.3 28.7 11.9 27.3 13.1 26.2L21.5 33Z" transform="translate(150.20004 0.2999878)" id="&amp;" fill="#2D86FE" fill-rule="evenodd" stroke="none" />
      <path d="M39.1 6.10001C35 2 29.5 0 22.8 0C16 0 10.5 2.10001 6.29999 6.10001C2.09998 10.2 0 15.5 0 22.2C0 28.8 2.09998 34.2 6.29999 38.3Q12.6 44.3 22.8 44.3C29.5 44.3 34.9 42.3 39.1 38.3C43.4 34.2 45.5 28.9 45.5 22.2C45.5 15.5 43.4 10.1 39.1 6.10001ZM14.4 13.2C16.5 11 19.3 9.90002 22.8 9.90002C26.3 9.90002 29.1 11 31.1 13.2C33.2 15.4 34.2 18.4 34.2 22.2C34.2 26 33.2 29 31.1 31.2C29.1 33.4 26.3 34.5 22.8 34.5C19.3 34.5 16.4999 33.4 14.4 31.2C12.3 29 11.3 26 11.3 22.2C11.3 18.4 12.3 15.4 14.4 13.2Z" transform="translate(203.10004 0.19995117)" id="O" fill="#2D86FE" fill-rule="evenodd" stroke="none" />
      <path d="M0 0L0 43L11.2 43L11.2 28.7L19.8 28.7C24.2 28.7 27.6 27.4 30.2 24.9C32.8 22.3 34.1 18.8 34.1 14.4C34.1 10 32.8 6.5 30.2 3.89999C27.6 1.29999 24.1 0 19.7 0L0 0ZM11.1 9.79999L18.3 9.79999C19.6 9.79999 20.7 10.2 21.5001 11.1C22.3 11.9 22.7001 13 22.7001 14.4C22.7001 15.8 22.3 16.9 21.5001 17.7C20.7001 18.5 19.6 18.9 18.3 18.9L11.1 18.9L11.1 9.79999Z" transform="translate(253.79999 0.9000244)" id="P" fill="#2D86FE" fill-rule="evenodd" stroke="none" />
      <path d="M28.3 0.100037L28.3 9.90002L11.2 9.90002L11.2 16.3L25.8 16.3L25.8 25.9L11.2 25.9L11.2 33.2L28.3 33.2L28.3 43L0 43L0 0L28.3 0L28.3 0.100037Z" transform="translate(291.5 0.79992676)" id="E" fill="#2D86FE" stroke="none" />
      <path d="M0 0L24.6 21L24.6 0.899994L35.6999 0.899994L35.6999 44.8L11.1 23.9L11.1 43.9L0 43.9L0 0L0 0Z" transform="translate(325.40002 0)" id="N" fill="#2D86FE" stroke="none" />
      <path d="M33.2043 14.2L21.9044 14.8C21.9044 13.3 21.4044 12.1 20.5043 11.2C19.6043 10.3 18.3043 9.89999 16.7043 9.89999C15.3043 9.89999 14.2043 10.2 13.4044 10.9C12.6044 11.6 12.2043 12.5 12.2043 13.7C12.2043 14.8 12.7043 15.6 13.6044 16.2C14.6044 16.7 16.5044 17.4 19.3044 18C24.3044 19.3 28.0044 21 30.3044 22.9C32.6044 24.8 33.8044 27.5 33.8044 30.9C33.8044 35.4 32.3044 38.8 29.3044 41.1C26.2044 43.4 22.4044 44.5 17.7044 44.5C12.4044 44.5 8.10443 43.2 4.80438 40.7C1.50439 38.1 -0.0956421 34.5 0.00439453 29.9L11.3044 29.3C11.3044 31 11.8044 32.3 13.1044 33.3C14.3044 34.3 15.9044 34.8 17.8044 34.8C21.0044 34.8 22.6044 33.6 22.6044 31.3C22.6044 30.3 22.0044 29.4 20.9044 28.7C19.8044 28 17.9044 27.3 15.3044 26.6C11.1044 25.6 7.70441 24.2 5.30438 22.6C2.40436 20.7 1.00439 17.8 1.00439 13.7C1.00439 9.69998 2.30438 6.39999 5.00439 3.89999C7.70441 1.29999 11.6044 0 16.6044 0C21.6044 0 25.6044 1.20001 28.7043 3.70001C31.6043 6.39999 33.1043 9.79999 33.2043 14.2L33.2043 14.2Z" transform="translate(377.3957 0)" id="S" fill="#2D86FE" stroke="none" />
      <path d="M39.1 6.10001C35 2 29.5 0 22.8 0C15.9999 0 10.4999 2.10001 6.29999 6.10001C2.09998 10.2 0 15.5 0 22.2C0 28.8 2.09998 34.2 6.29999 38.3Q12.6 44.3 22.8 44.3C29.5 44.3 34.9 42.3 39.1 38.3C43.4 34.2 45.5 28.9 45.5 22.2C45.5 15.5 43.4 10.1 39.1 6.10001ZM14.4 13.2C16.5 11 19.3 9.90002 22.8 9.90002C26.3 9.90002 28.9999 11 31.1 13.2C33.2 15.4 34.2 18.4 34.2 22.2C34.2 26 33.2 29 31.1 31.2C29.1 33.4 26.3 34.5 22.8 34.5C19.3 34.5 16.4999 33.4 14.4 31.2C12.3 29 11.3 26 11.3 22.2C11.3 18.4 12.3 15.4 14.4 13.2Z" transform="translate(414.80005 0.19995117)" id="O" fill="#2D86FE" fill-rule="evenodd" stroke="none" />
      <path d="M27.1 0L38.1 0L38.1 24.7C38.1 30.6 36.4 35.3 33 38.6C29.7 41.9 25 43.6 19.1 43.6C13.1 43.6 8.39996 41.9 5.09998 38.6C1.69995 35.3 0 30.6 0 24.7L0 0L11.1 0L11.1 24.6C11.1 30.8 13.8 33.9 19.1 33.9C24.4 33.9 27 30.8 27 24.6L27 0L27.1 0Z" transform="translate(465.10004 0.9000244)" id="U" fill="#2D86FE" stroke="none" />
      <path d="M23.5 43L36 43L27.5 26.7C31.7 24.3 33.9 20.2 33.9 14.3C33.9 9.89999 32.6 6.39999 30 3.79999C27.4 1.29999 23.9 0 19.5 0L0 0L0 43L11.1 43L11.1 28.6L15.8 28.6L23.5 43ZM11.1 18.8L11.1 9.79999L18.1 9.79999C19.5 9.79999 20.5 10.2 21.3 11C21.9999 11.8 22.4 12.9 22.4 14.3C22.4 15.7 22.1 16.8 21.3 17.6C20.6 18.4 19.5 18.8 18.1 18.8L11.1 18.8Z" transform="translate(509.40002 0.9000244)" id="R" fill="#2D86FE" fill-rule="evenodd" stroke="none" />
      <path d="M22.4 0C27.8 0 32.4 1.5 36.3 4.5C40.2001 7.5 42.5001 11.6 43.3 16.6L31.7001 17.7C30.5001 12.4 27.2001 9.80002 22.0001 9.80002C18.8 9.80002 16.2001 10.9 14.3 13.2C12.4 15.4 11.4 18.4 11.4 22.1C11.4 26 12.4 29 14.3 31.2C16.3 33.4 18.8 34.5 22.0001 34.5C24.6 34.5 26.7001 33.8 28.4001 32.5C30.1001 31.2 31.2001 29.2 31.7001 26.7L43.3 27.7C42.5001 32.8 40.2001 36.9 36.3 40C32.5001 43 27.8 44.5 22.4 44.5C15.8 44.5 10.4 42.5 6.20001 38.5C2.10004 34.5 0 29.2 0 22.3C0 15.5 2.09998 10.1 6.20001 6.09998C10.5 2 15.9 0 22.4 0L22.4 0Z" transform="translate(548.3 0.19995117)" id="C" fill="#2D86FE" stroke="none" />
      <path d="M28.3 0.100037L28.3 9.90002L11.2 9.90002L11.2 16.3L25.8 16.3L25.8 25.9L11.2 25.9L11.2 33.2L28.3 33.2L28.3 43L0 43L0 0L28.3 0L28.3 0.100037Z" transform="translate(596.5 0.79992676)" id="E" fill="#2D86FE" stroke="none" />
    </g>
    <g id="SURGE" transform="translate(306.7984 135.89996)">
      <path d="M92.9016 39.1L61.3016 40.7C61.3016 36.4 60.0016 33.1 57.5016 30.6C55.0016 28.1 51.5016 26.9 47.0016 26.9C43.2016 26.9 40.1016 27.8 37.8016 29.7C35.5016 31.6 34.4016 34.2 34.4016 37.5C34.4016 40.5 35.7016 42.8 38.4016 44.4C41.3016 45.9 46.6016 47.6 54.3016 49.5C68.3016 53.2 78.5016 57.8 85.0016 63.2C91.5016 68.6 94.7016 76.1 94.7016 85.6C94.7016 98.2 90.5016 107.7 82.0016 114.1C73.4016 120.4 62.6016 123.6 49.6016 123.6C34.7016 123.6 22.7016 120.1 13.5016 113C4.40161 105.8 -0.0983887 95.8 0.00161743 83L31.6016 81.4C31.5016 86 33.1016 89.7 36.5016 92.5C39.9016 95.3 44.2016 96.7 49.6016 96.7C58.6016 96.7 63.1016 93.5 63.1016 87.1C63.1016 84.3 61.5016 81.9 58.5016 80C55.4016 78 50.2016 76.1 42.8016 74.1C31.0016 71.2 21.7016 67.5 14.9016 63C6.90161 57.8 2.90161 49.5 2.90161 38.3C2.90161 27.2 6.60162 18 14.1016 10.9C21.7016 3.59999 32.5016 0 46.5016 0C60.4016 0 71.6016 3.5 80.2016 10.4C88.4016 17.4 92.7016 26.9 92.9016 39.1L92.9016 39.1Z" id="S" fill="#FFFFFF" stroke="none" />
      <path d="M75.3 0L106.1 0L106.1 69C106.1 85.6 101.4 98.5 92 107.8C82.7 117.1 69.8 121.8 53.2 121.8C36.5 121.8 23.5 117.1 14.1 107.8C4.70001 98.5 0 85.6 0 69L0 0L31 0L31 68.5C31 85.7 38.4 94.3 53.3 94.3C68.1 94.3 75.4 85.7 75.4 68.5L75.4 0L75.3 0Z" transform="translate(125.10162 1.9000244)" id="U" fill="#FFFFFF" stroke="none" />
      <path d="M65.4 120L100.4 120L76.1 74.6C88.1 67.9 94.1 56.4 94.1 40C94.1 27.6 90.6 17.8 83.4 10.7C76.2 3.60001 66.5 0 54.2 0L0 0L0 120L31 120L31 79.9L44.1 79.9L65.4 120ZM31 52.4L31 27.4L50.6 27.4C54.5 27.4 57.5 28.6 59.6 30.8C61.7 33 62.8 36.1 62.8 39.9C62.8 43.7 61.7 46.8 59.6 49C57.4 51.3 54.4 52.4 50.6 52.4L31 52.4Z" transform="translate(266.10162 1.8999634)" id="R" fill="#FFFFFF" fill-rule="evenodd" stroke="none" />
      <path d="M62.1 53.5L120.6 53.5L120.6 63.4C120.6 81.3 115.4 95.7 104.9 106.9C94.4 118 80.3 123.6 62.4 123.6C44.1 123.6 29.1 118 17.3 106.9C5.79999 95.9 0 80.9 0 61.8C0 42.8 5.79999 27.7 17.3 16.7C29.1 5.59999 44.1 0 62.4 0C76.6 0 88.8 3.60001 98.8 10.7C108.8 17.8 115.7 27.7 119.3 40.4L87.2 45.7C83.4 33.5 75 27.4 62 27.4C52.2 27.4 44.6 30.3 39.4 36.1C34.2 41.9 31.5 50.4 31.5 61.8C31.5 73.1 34.1 81.7 39.4 87.5C44.6 93.3 52.2 96.2 62 96.2C73.9 96.2 81.8 91.1 85.9 81L62 81L62 53.5L62.1 53.5Z" transform="translate(392.50165 0)" id="G" fill="#FFFFFF" stroke="none" />
      <path d="M78.5 1.52588e-05L78.5 27.4L30.9 27.4L30.9 45.4L71.6 45.4L71.6 72.2L30.9 72.2L30.9 92.6L78.7 92.6L78.7 120L0 120L0 0L78.5 0L78.5 1.52588e-05Z" transform="translate(545.7016 1.8999634)" id="E" fill="#FFFFFF" stroke="none" />
    </g>
    <g id="Icon" transform="translate(26 133.29999)">
      <path d="M161.5 42.6L223 84.7L223 0L17.5 0C7.8 0 0 7.8 0 17.5L0 180.7L42.1 192.6C44.3 193.2 46.5 191.9 47.2 189.8L57.7 151.8C58.4 149.1 61.6 147.9 64 149.5L164.7 218.8C168.5 221.4 165.7 227.4 161.3 226.1L83.7 204.4C81.5 203.8 79.2 205.1 78.7 207.3L68.4 245.3C67.7 248 64.4 249.2 62.1 247.6L0 204.6L0 293.4L204.1 293.4C214.5 293.4 222.9 284.9 222.9 274.6L222.9 109.1L181.3 97.5C179.1 96.9 176.9 98.2 176.3 100.3L165.5 138.4C164.7 141.1 161.6 142.2 159.2 140.7L58.4 71.3C54.6 68.7 57.4 62.7 61.8 64L139.4 85.7C141.6 86.3 143.8 85 144.4 82.9L155.2 44.8C156 42.2 159.1 41 161.5 42.6L161.5 42.6Z" id="XMLID_3_" fill="#FF9000" stroke="none" />
    </g>
  </g>
</svg>