<?xml version="1.0" encoding="utf-8"?>
<svg width="43px" height="14px" viewBox="0 0 43 14" version="1.1" xmlns:xlink="http://www.w3.org/1999/xlink" xmlns="http://www.w3.org/2000/svg">
  <desc>Created with Lunacy</desc>
  <defs>
    <rect width="43" height="14" id="artboard_1" />
    <clipPath id="clip_1">
      <use xlink:href="#artboard_1" clip-rule="evenodd" />
    </clipPath>
  </defs>
  <g id="bmp00176" clip-path="url(#clip_1)">
    <path d="M0 4.4L0 2.2C0 1.59249 0.195251 1.07395 0.585785 0.644363C0.976318 0.214776 1.44772 0 2 0L40 0C40.5523 0 41.0237 0.214776 41.4142 0.644363C41.8047 1.07395 42 1.59249 42 2.2L42 8.8C42 9.40751 41.8047 9.92605 41.4142 10.3556C41.0237 10.7852 40.5523 11 40 11L2 11C1.44772 11 0.976318 10.7852 0.585785 10.3556C0.195251 9.92605 0 9.40751 0 8.8L0 4.4L0 4.4L0 4.4L0 4.4L0 4.4L0 4.4Z" transform="translate(0.5 1.5)" id="Background" fill="#242424" fill-rule="evenodd" stroke="#0F0F0F" stroke-width="1" />
  </g>
</svg>