<?xml version="1.0" encoding="utf-8"?>
<svg width="50px" height="15px" viewBox="0 0 50 15" version="1.1" xmlns:xlink="http://www.w3.org/1999/xlink" xmlns="http://www.w3.org/2000/svg">
  <desc>Created with Lunacy</desc>
  <defs>
    <path d="M0 0L50 0L50 15L0 15L0 0Z" id="path_1" />
    <rect width="50" height="15" id="artboard_1" />
    <clipPath id="clip_1">
      <use xlink:href="#artboard_1" clip-rule="evenodd" />
    </clipPath>
    <clipPath id="mask_1">
      <use xlink:href="#path_1" />
    </clipPath>
  </defs>
  <g id="bmp00164" clip-path="url(#clip_1)">
    <path d="M0 0L50 0L50 15L0 15L0 0Z" id="Background" fill="none" stroke="none" />
    <g clip-path="url(#mask_1)">
      <g id="button/smallButton" transform="translate(0.67565954 0.6249998)">
        <path d="M0 5L0 2.5C0 1.80964 0.263868 1.22039 0.791603 0.732233C1.31934 0.244078 1.95637 0 2.7027 0L45.9459 0C46.6923 0 47.3293 0.244078 47.857 0.732233C48.3848 1.22039 48.6486 1.80964 48.6487 2.5L48.6487 11.25C48.6486 11.9404 48.3848 12.5296 47.857 13.0178C47.3293 13.5059 46.6923 13.75 45.9459 13.75L2.7027 13.75C1.95637 13.75 1.31934 13.5059 0.791603 13.0178C0.263868 12.5296 0 11.9404 0 11.25L0 5Z" id="Rectangle" fill="#242424" stroke="#0F0F0F" stroke-width="1" />
      </g>
      <path d="M0 0L0 7.37918L1.03568 7.37918L1.03568 1.09731L3.38397 7.37918L4.3532 7.37918L6.71256 1.20302L6.71256 7.37918L7.74825 7.37918L7.74825 0L6.30272 0L4.35874 5.13422C4.16304 5.65435 4.01905 6.04864 3.92674 6.3171C3.84551 6.07549 3.71628 5.7114 3.53905 5.22482L1.61722 0L0 0ZM13.6417 5.65772L14.6719 5.7735C14.5094 6.32048 14.2085 6.74497 13.7691 7.04698C13.3297 7.349 12.7685 7.5 12.0854 7.5C11.2251 7.5 10.543 7.25923 10.039 6.77769C9.53498 6.29614 9.28299 5.62082 9.28299 4.75169C9.28299 3.85235 9.53775 3.15438 10.0473 2.65773C10.5568 2.16108 11.2177 1.91277 12.03 1.91277C12.8165 1.91277 13.459 2.15605 13.9574 2.64263C14.4559 3.12921 14.7051 3.81376 14.7051 4.69632C14.7051 4.75001 14.7033 4.83054 14.6996 4.93793L10.3131 4.93793C10.3501 5.52518 10.5328 5.97484 10.8614 6.28692C11.1901 6.599 11.5999 6.75504 12.091 6.75504C12.4565 6.75504 12.7685 6.66779 13.027 6.49329C13.2854 6.3188 13.4903 6.04028 13.6417 5.65772ZM16.1844 7.3792L16.1844 2.03357L17.0816 2.03357L17.0816 2.79364C17.5136 2.20639 18.1376 1.91277 18.9536 1.91277C19.3081 1.91277 19.6339 1.97065 19.9312 2.08642C20.2284 2.2022 20.4508 2.35404 20.5985 2.54196C20.7462 2.72988 20.8496 2.95303 20.9087 3.21142C20.9456 3.37921 20.9641 3.67283 20.9641 4.09229L20.9641 7.3792L19.9672 7.3792L19.9672 4.12753C19.9672 3.7584 19.9284 3.48239 19.8508 3.29951C19.7733 3.11662 19.6358 2.97065 19.4382 2.86159C19.2407 2.75253 19.009 2.698 18.7432 2.698C18.3185 2.698 17.9521 2.82048 17.6438 3.06545C17.3355 3.31042 17.1813 3.77517 17.1813 4.45974L17.1813 7.3792L16.1844 7.3792ZM26.6083 6.59393L26.6083 7.37917L27.5 7.37917L27.5 2.03354L26.5031 2.03354L26.5031 4.89763C26.5031 5.354 26.4486 5.70215 26.3397 5.94209C26.2308 6.18202 26.0452 6.37162 25.7831 6.51088C25.5209 6.65014 25.2403 6.71977 24.9413 6.71977C24.6422 6.71977 24.3911 6.65182 24.188 6.51591C23.9849 6.38001 23.852 6.19293 23.7893 5.95467C23.7486 5.79024 23.7283 5.47145 23.7283 4.9983L23.7283 2.03354L22.7314 2.03354L22.7314 5.34561C22.7314 5.73152 22.7517 6.0134 22.7923 6.19125C22.8514 6.45635 22.9539 6.68034 23.0997 6.86323C23.2456 7.04611 23.469 7.19796 23.7699 7.31876C24.0708 7.43957 24.3948 7.49997 24.7419 7.49997C25.5283 7.49997 26.1505 7.19796 26.6083 6.59393ZM13.6528 4.19293L10.3685 4.19293C10.4017 3.72649 10.5743 3.35401 10.8863 3.07548C11.1983 2.79696 11.5833 2.6577 12.0411 2.6577C12.5469 2.6577 12.9586 2.83219 13.2762 3.18119C13.4829 3.40602 13.6085 3.74327 13.6528 4.19293Z" transform="translate(17.5 3.75)" id="Menu-Copy" fill="#B4B4B4" fill-rule="evenodd" stroke="none" />
      <path d="M5.43161 1.08896L7.5 2.16513L7.5 0L0.588565 0C0.262332 0 0 0.199387 0 0.447341L0 4.61912L1.41592 4.92331C1.48991 4.93865 1.5639 4.90542 1.58744 4.85174L1.94058 3.88037C1.96413 3.81135 2.07175 3.78067 2.15247 3.82157L5.53924 5.59305C5.66704 5.65951 5.57287 5.81288 5.42489 5.77965L2.81502 5.22495C2.74103 5.20961 2.66368 5.24284 2.64686 5.29908L2.30045 6.27045C2.27691 6.33947 2.16592 6.37014 2.08857 6.32924L0 5.23006L0 7.5L6.86435 7.5C7.21413 7.5 7.49664 7.28272 7.49664 7.01943L7.49664 2.78885L6.09753 2.49233C6.02354 2.47699 5.94955 2.51022 5.92937 2.56391L5.56614 3.53783C5.53924 3.60685 5.43498 3.63497 5.35426 3.59662L1.96413 1.8226C1.83632 1.75613 1.93049 1.60276 2.07848 1.63599L4.68834 2.1907C4.76233 2.20603 4.83632 2.1728 4.8565 2.11912L5.21973 1.14519C5.24664 1.07873 5.3509 1.04806 5.43161 1.08896L5.43161 1.08896Z" transform="translate(5.624999 3.75)" id="Logo" fill="#FF9000" stroke="none" />
    </g>
  </g>
</svg>