<?xml version="1.0" encoding="utf-8"?>
<svg width="120px" height="52px" viewbox="0 0 120 52" version="1.1" xmlns:xlink="http://www.w3.org/1999/xlink" xmlns="http://www.w3.org/2000/svg">
  <defs>
    <rect width="120" height="52" id="artboard_1" />
    <clipPath id="clip_1">
      <use xlink:href="#artboard_1" clip-rule="evenodd" />
    </clipPath>
  </defs>
  <g id="bmp00137" clip-path="url(#clip_1)">
    <path d="M36 0L49.5 0L49.5 8M41.5 0.5L41.5 8L0 8M0 32L41.5 32L41.5 39.5M36 40L49.5 40L49.5 32M54 20L57.5 20L57.5 10L62 10" transform="translate(26 5.5)" id="Shape" fill="none" fill-rule="evenodd" stroke="#A0A0A0" stroke-width="1" />
    <path d="M0 0L1 0L1 1L0 1L0 0Z" transform="translate(36 25)" id="Rectangle" fill="#A0A0A0" fill-rule="evenodd" stroke="none" />
    <path d="M0 0L1 0L1 1L0 1L0 0Z" transform="translate(38 25)" id="Rectangle" fill="#A0A0A0" fill-rule="evenodd" stroke="none" />
    <path d="M0 0L1 0L1 1L0 1L0 0Z" transform="translate(40 25)" id="Rectangle" fill="#A0A0A0" fill-rule="evenodd" stroke="none" />
    <path d="M0 0L1 0L1 1L0 1L0 0Z" transform="translate(42 25)" id="Rectangle" fill="#A0A0A0" fill-rule="evenodd" stroke="none" />
    <path d="M0 0L1 0L1 1L0 1L0 0Z" transform="translate(62 25)" id="Rectangle" fill="#A0A0A0" fill-rule="evenodd" stroke="none" />
    <path d="M0 9.5L4.5 9.5L4.5 0" transform="translate(107 26)" id="Shape" fill="none" fill-rule="evenodd" stroke="#A0A0A0" stroke-width="1" />
    <path d="M3.0001 0L4.0001 0L4.0001 3L7.0001 3L7.0001 4L4.0001 4L4.0001 7L3.0001 7L3.0001 4L0 4L9.91821e-05 3L3.0001 3L3.0001 0Z" transform="translate(71.9999 22)" id="Shape" fill="#EEEEEE" fill-rule="evenodd" stroke="none" />
    <path d="M5 10C7.7614 10 10 7.7614 10 5C10 2.2386 7.7614 0 5 0C2.2386 0 0 2.2386 0 5C0 7.7614 2.2386 10 5 10L5 10Z" transform="translate(70.5 20.5)" id="Shape" fill="none" fill-rule="evenodd" stroke="#A0A0A0" stroke-width="1" />
    <path d="M3 0L5 0L2.5 4L0 0L2 0L3 0L3 0Z" transform="translate(95 25)" id="Shape" fill="#A0A0A0" fill-rule="evenodd" stroke="none" />
    <path d="M1 0L1 4.5L0 4.5L0 0L1 0L1 0Z" transform="translate(97 21)" id="Shape" fill="#A0A0A0" fill-rule="evenodd" stroke="none" />
    <path d="M3 0L5 0L2.5 4L0 0L2 0L3 0L3 0Z" transform="translate(24 15)" id="Shape" fill="#A0A0A0" fill-rule="evenodd" stroke="none" />
    <path d="M1 0L1 2.5L0 2.5L0 0L1 0L1 0Z" transform="translate(26 13)" id="Shape" fill="#A0A0A0" fill-rule="evenodd" stroke="none" />
    <path d="M2 4L0 4L2.5 0L5 4L3 4L2 4L2 4Z" transform="translate(50 32)" id="Shape" fill="#A0A0A0" fill-rule="evenodd" stroke="none" />
    <path d="M0 1.5L0 0L1 0L1 1.5L0 1.5L0 1.5Z" transform="translate(52 35.5)" id="Shape" fill="#A0A0A0" fill-rule="evenodd" stroke="none" />
    <path d="M2 4L0 4L2.5 0L5 4L3 4L2 4L2 4Z" transform="translate(73 32)" id="Shape" fill="#A0A0A0" fill-rule="evenodd" stroke="none" />
    <path d="M0 2.5L0 0L1 0L1 2.5L0 2.5L0 2.5Z" transform="translate(75 35.5)" id="Shape" fill="#A0A0A0" fill-rule="evenodd" stroke="none" />
    <path d="M3 0L5 0L2.5 4L0 0L2 0L3 0L3 0Z" transform="translate(50 15)" id="Shape" fill="#A0A0A0" fill-rule="evenodd" stroke="none" />
    <path d="M1 0L1 1.5L0 1.5L0 0L1 0L1 0Z" transform="translate(52 14)" id="Shape" fill="#A0A0A0" fill-rule="evenodd" stroke="none" />
    <path d="M3 0L5 0L2.5 4L0 0L2 0L3 0L3 0Z" transform="translate(73 15)" id="Shape" fill="#A0A0A0" fill-rule="evenodd" stroke="none" />
    <path d="M1 0L1 2.5L0 2.5L0 0L1 0L1 0Z" transform="translate(75 13)" id="Shape" fill="#A0A0A0" fill-rule="evenodd" stroke="none" />
    <path d="M2 4L0 4L2.5 0L5 4L3 4L2 4L2 4Z" transform="translate(24 32)" id="Shape" fill="#A0A0A0" fill-rule="evenodd" stroke="none" />
    <path d="M0 1.5L0 0L1 0L1 1.5L0 1.5L0 1.5Z" transform="translate(26 35.5)" id="Shape" fill="#A0A0A0" fill-rule="evenodd" stroke="none" />
    <path d="M0 2L0 0L4 2.5L0 5L0 3L0 2L0 2Z" transform="translate(12 3)" id="Shape" fill="#A0A0A0" fill-rule="evenodd" stroke="none" />
    <path d="M0 0L2.5 0L2.5 1L0 1L0 0L0 0Z" transform="translate(10 5)" id="Shape" fill="#A0A0A0" fill-rule="evenodd" stroke="none" />
    <path d="M0 2L0 0L4 2.5L0 5L0 3L0 2L0 2Z" transform="translate(38 3)" id="Shape" fill="#A0A0A0" fill-rule="evenodd" stroke="none" />
    <path d="M0 0L2.5 0L2.5 1L0 1L0 0L0 0Z" transform="translate(36 5)" id="Shape" fill="#A0A0A0" fill-rule="evenodd" stroke="none" />
    <path d="M0 2L0 0L4 2.5L0 5L0 3L0 2L0 2Z" transform="translate(38 43)" id="Shape" fill="#A0A0A0" fill-rule="evenodd" stroke="none" />
    <path d="M0 0L2.5 0L2.5 1L0 1L0 0L0 0Z" transform="translate(36 45)" id="Shape" fill="#A0A0A0" fill-rule="evenodd" stroke="none" />
    <path d="M0 2L0 0L4 2.5L0 5L0 3L0 2L0 2Z" transform="translate(65 23)" id="Shape" fill="#A0A0A0" fill-rule="evenodd" stroke="none" />
    <path d="M0 0L1.5 0L1.5 1L0 1L0 0L0 0Z" transform="translate(64 25)" id="Shape" fill="#A0A0A0" fill-rule="evenodd" stroke="none" />
    <path d="M0 2L0 0L4 2.5L0 5L0 3L0 2L0 2Z" transform="translate(12 43)" id="Shape" fill="#A0A0A0" fill-rule="evenodd" stroke="none" />
    <path d="M0 0L2.5 0L2.5 1L0 1L0 0L0 0Z" transform="translate(10 45)" id="Shape" fill="#A0A0A0" fill-rule="evenodd" stroke="none" />
    <path d="M0 2L0 0L4 2.5L0 5L0 3L0 2L0 2Z" transform="translate(114 23)" id="Shape" fill="#A0A0A0" fill-rule="evenodd" stroke="none" />
    <path d="M0 0L4.444 0L4.444 1L0 1L0 0L0 0Z" transform="translate(111 25)" id="Shape" fill="#A0A0A0" fill-rule="evenodd" stroke="none" />
  </g>
</svg>