<svg width="12" height="306" viewBox="0 0 12 306" fill="none" xmlns="http://www.w3.org/2000/svg">
<rect x="0.5" y="20" width="11" height="11" rx="1" fill="white"/>
<rect x="0.5" y="20" width="11" height="11" rx="1" stroke="white"/>
<path d="M7.64823 27.716V28.5H4.74323V27.716H5.72323V25.1435C5.72323 25.0782 5.72439 25.0128 5.72673 24.9475C5.72906 24.8798 5.73256 24.8122 5.73723 24.7445L5.15623 25.2275C5.10489 25.2672 5.05356 25.2917 5.00223 25.301C4.95323 25.308 4.90656 25.308 4.86223 25.301C4.81789 25.2917 4.77823 25.2765 4.74323 25.2555C4.70823 25.2322 4.68256 25.2088 4.66623 25.1855L4.32323 24.7305L5.91223 23.397H6.80823V27.716H7.64823Z" fill="black"/>
<rect x="0.5" y="38" width="11" height="11" rx="1" fill="white"/>
<rect x="0.5" y="38" width="11" height="11" rx="1" stroke="white"/>
<path d="M7.38573 45.52C7.50239 45.52 7.59456 45.5527 7.66223 45.618C7.72989 45.681 7.76373 45.765 7.76373 45.87V46.5H4.17973V46.15C4.17973 46.0823 4.19373 46.01 4.22173 45.933C4.24973 45.856 4.29873 45.786 4.36873 45.723L5.83873 44.2425C5.96473 44.1165 6.07439 43.9963 6.16773 43.882C6.26106 43.7677 6.33806 43.6557 6.39873 43.546C6.45939 43.434 6.50489 43.3232 6.53523 43.2135C6.56556 43.1015 6.58073 42.9837 6.58073 42.86C6.58073 42.657 6.53173 42.5018 6.43373 42.3945C6.33806 42.2848 6.19106 42.23 5.99273 42.23C5.83173 42.23 5.69523 42.2732 5.58323 42.3595C5.47356 42.4435 5.39773 42.5485 5.35573 42.6745C5.30673 42.8028 5.24256 42.888 5.16323 42.93C5.08389 42.972 4.97073 42.9813 4.82373 42.958L4.24973 42.8565C4.28706 42.6022 4.35823 42.3805 4.46323 42.1915C4.57056 42.0025 4.70239 41.845 4.85873 41.719C5.01739 41.593 5.19823 41.4997 5.40123 41.439C5.60423 41.376 5.82239 41.3445 6.05573 41.3445C6.30773 41.3445 6.53406 41.3818 6.73473 41.4565C6.93773 41.5288 7.11039 41.6303 7.25273 41.761C7.39506 41.8917 7.50356 42.048 7.57823 42.23C7.65523 42.4097 7.69373 42.608 7.69373 42.825C7.69373 43.0117 7.66689 43.1843 7.61323 43.343C7.56189 43.5017 7.49073 43.6533 7.39973 43.798C7.30873 43.9403 7.20256 44.0792 7.08123 44.2145C6.96223 44.3475 6.83506 44.4828 6.69973 44.6205L5.70223 45.6425C5.83056 45.6028 5.95773 45.5725 6.08373 45.5515C6.20973 45.5305 6.32639 45.52 6.43373 45.52H7.38573Z" fill="black"/>
<rect x="0.5" y="56" width="11" height="11" rx="1" fill="white"/>
<rect x="0.5" y="56" width="11" height="11" rx="1" stroke="white"/>
<path d="M4.27773 60.8565C4.31506 60.6022 4.38623 60.3805 4.49123 60.1915C4.59856 60.0025 4.73039 59.845 4.88673 59.719C5.04539 59.593 5.22623 59.4997 5.42923 59.439C5.63223 59.376 5.85039 59.3445 6.08373 59.3445C6.33573 59.3445 6.55973 59.3807 6.75573 59.453C6.95173 59.523 7.11739 59.6187 7.25273 59.74C7.38806 59.8613 7.49073 60.0025 7.56073 60.1635C7.63073 60.3222 7.66573 60.4902 7.66573 60.6675C7.66573 60.8285 7.64939 60.9708 7.61673 61.0945C7.58406 61.2158 7.53506 61.322 7.46973 61.413C7.40673 61.5017 7.32739 61.5775 7.23173 61.6405C7.13839 61.7012 7.03106 61.7525 6.90973 61.7945C7.47439 61.9928 7.75673 62.3778 7.75673 62.9495C7.75673 63.2202 7.70773 63.4558 7.60973 63.6565C7.51173 63.8572 7.37989 64.024 7.21423 64.157C7.05089 64.29 6.86073 64.3903 6.64373 64.458C6.42673 64.5233 6.20039 64.556 5.96473 64.556C5.72206 64.556 5.50623 64.5303 5.31723 64.479C5.12823 64.4253 4.96023 64.3437 4.81323 64.234C4.66623 64.122 4.53673 63.9797 4.42473 63.807C4.31506 63.6343 4.21939 63.429 4.13773 63.191L4.62073 62.995C4.74673 62.946 4.86339 62.9332 4.97073 62.9565C5.07806 62.9798 5.15506 63.0335 5.20173 63.1175C5.30673 63.3112 5.41756 63.4523 5.53423 63.541C5.65323 63.6273 5.79206 63.6705 5.95073 63.6705C6.07206 63.6705 6.17706 63.6507 6.26573 63.611C6.35673 63.569 6.43139 63.5165 6.48973 63.4535C6.55039 63.3882 6.59589 63.3147 6.62623 63.233C6.65656 63.1513 6.67173 63.0685 6.67173 62.9845C6.67173 62.8748 6.66356 62.7768 6.64723 62.6905C6.63323 62.6018 6.59123 62.526 6.52123 62.463C6.45123 62.4 6.34506 62.3522 6.20273 62.3195C6.06273 62.2845 5.86673 62.267 5.61473 62.267V61.518C5.82706 61.518 5.99856 61.5017 6.12923 61.469C6.25989 61.4363 6.36023 61.392 6.43023 61.336C6.50256 61.2777 6.55039 61.2077 6.57373 61.126C6.59706 61.0443 6.60873 60.9545 6.60873 60.8565C6.60873 60.6558 6.55973 60.5018 6.46173 60.3945C6.36606 60.2848 6.21906 60.23 6.02073 60.23C5.85973 60.23 5.72323 60.2732 5.61123 60.3595C5.50156 60.4435 5.42573 60.5485 5.38373 60.6745C5.33473 60.8028 5.27056 60.888 5.19123 60.93C5.11189 60.972 4.99873 60.9813 4.85173 60.958L4.27773 60.8565Z" fill="black"/>
<rect x="0.5" y="74" width="11" height="11" rx="1" fill="white"/>
<rect x="0.5" y="74" width="11" height="11" rx="1" stroke="white"/>
<path d="M6.40223 80.519V79.189C6.40223 79.1073 6.40456 79.0198 6.40923 78.9265C6.41623 78.8308 6.42556 78.7317 6.43723 78.629L5.08973 80.519H6.40223ZM7.87223 80.519V81.128C7.87223 81.1817 7.85356 81.2283 7.81623 81.268C7.78123 81.3077 7.72989 81.3275 7.66223 81.3275H7.34723V82.5H6.40223V81.3275H4.35123C4.28356 81.3275 4.22173 81.3065 4.16573 81.2645C4.11206 81.2225 4.07823 81.17 4.06423 81.107L3.95223 80.5715L6.31123 77.4005H7.34723V80.519H7.87223Z" fill="black"/>
<rect x="0.5" y="92" width="11" height="11" rx="1" fill="white"/>
<rect x="0.5" y="92" width="11" height="11" rx="1" stroke="white"/>
<path d="M5.52373 97.196C5.61939 97.1773 5.71156 97.1645 5.80023 97.1575C5.88889 97.1505 5.97523 97.147 6.05923 97.147C6.32756 97.147 6.56439 97.1878 6.76973 97.2695C6.97506 97.3512 7.14773 97.4632 7.28773 97.6055C7.42773 97.7455 7.53273 97.9112 7.60273 98.1025C7.67506 98.2915 7.71123 98.4945 7.71123 98.7115C7.71123 98.9845 7.66223 99.2342 7.56423 99.4605C7.46856 99.6845 7.33439 99.8782 7.16173 100.041C6.98906 100.205 6.78256 100.332 6.54223 100.423C6.30423 100.512 6.04289 100.556 5.75823 100.556C5.59256 100.556 5.43389 100.539 5.28223 100.504C5.13289 100.468 4.99173 100.422 4.85873 100.363C4.72806 100.303 4.60673 100.234 4.49473 100.157C4.38273 100.078 4.28123 99.9937 4.19023 99.905L4.52623 99.457C4.56123 99.4103 4.60206 99.3753 4.64873 99.352C4.69539 99.3263 4.74556 99.3135 4.79923 99.3135C4.86923 99.3135 4.93456 99.3333 4.99523 99.373C5.05823 99.4103 5.12589 99.4523 5.19823 99.499C5.27289 99.5433 5.35923 99.5842 5.45723 99.6215C5.55523 99.6588 5.67656 99.6775 5.82123 99.6775C5.96589 99.6775 6.08956 99.6542 6.19223 99.6075C6.29489 99.5585 6.37773 99.4932 6.44073 99.4115C6.50606 99.3275 6.55273 99.2307 6.58073 99.121C6.61106 99.009 6.62623 98.89 6.62623 98.764C6.62623 98.5167 6.55623 98.3288 6.41623 98.2005C6.27623 98.0698 6.07789 98.0045 5.82123 98.0045C5.59256 98.0045 5.36856 98.0477 5.14923 98.134L4.47723 97.952L4.91123 95.4005H7.52223V95.8485C7.52223 95.9232 7.51056 95.9908 7.48723 96.0515C7.46389 96.1122 7.42656 96.1658 7.37523 96.2125C7.32623 96.2568 7.26089 96.2918 7.17923 96.3175C7.09756 96.3408 6.99956 96.3525 6.88523 96.3525H5.66723L5.52373 97.196Z" fill="black"/>
<rect x="0.5" y="110" width="11" height="11" rx="1" fill="white"/>
<rect x="0.5" y="110" width="11" height="11" rx="1" stroke="white"/>
<path d="M5.99273 117.698C6.10473 117.698 6.20856 117.677 6.30423 117.635C6.40223 117.593 6.48623 117.536 6.55623 117.464C6.62623 117.389 6.68106 117.303 6.72073 117.205C6.76273 117.105 6.78373 116.996 6.78373 116.879C6.78373 116.749 6.76389 116.632 6.72423 116.529C6.68689 116.427 6.63323 116.34 6.56323 116.27C6.49323 116.2 6.40806 116.147 6.30773 116.109C6.20973 116.072 6.10006 116.053 5.97873 116.053C5.86906 116.053 5.76873 116.073 5.67773 116.113C5.58673 116.15 5.50739 116.205 5.43973 116.277C5.37439 116.35 5.32306 116.436 5.28573 116.536C5.24839 116.637 5.22973 116.75 5.22973 116.876C5.22973 117.002 5.24489 117.115 5.27523 117.215C5.30556 117.316 5.35223 117.402 5.41523 117.474C5.47823 117.547 5.55756 117.603 5.65323 117.642C5.74889 117.68 5.86206 117.698 5.99273 117.698ZM5.81773 115.36C5.98106 115.3 6.16306 115.269 6.36373 115.269C6.54806 115.269 6.73006 115.3 6.90973 115.36C7.08939 115.421 7.25039 115.514 7.39273 115.64C7.53506 115.766 7.64939 115.926 7.73573 116.12C7.82439 116.311 7.86873 116.538 7.86873 116.799C7.86873 117.037 7.82439 117.263 7.73573 117.478C7.64706 117.69 7.52106 117.877 7.35773 118.038C7.19673 118.197 7.00189 118.323 6.77323 118.416C6.54456 118.509 6.29139 118.556 6.01373 118.556C5.72906 118.556 5.47356 118.512 5.24723 118.423C5.02089 118.332 4.82839 118.206 4.66973 118.045C4.51339 117.884 4.39323 117.691 4.30923 117.467C4.22756 117.243 4.18673 116.997 4.18673 116.729C4.18673 116.227 4.38039 115.717 4.76773 115.199L5.91573 113.649C5.96939 113.581 6.04639 113.523 6.14673 113.474C6.24939 113.425 6.36606 113.4 6.49673 113.4H7.46273L5.95073 115.206L5.81773 115.36Z" fill="black"/>
<rect x="0.5" y="128" width="11" height="11" rx="1" fill="white"/>
<rect x="0.5" y="128" width="11" height="11" rx="1" stroke="white"/>
<path d="M7.83023 131.4V131.855C7.83023 131.991 7.81506 132.1 7.78473 132.184C7.75439 132.266 7.72523 132.335 7.69723 132.391L5.92623 136.143C5.87723 136.241 5.80723 136.325 5.71623 136.395C5.62756 136.465 5.50856 136.5 5.35923 136.5H4.56823L6.38823 132.849C6.44189 132.751 6.49556 132.663 6.54923 132.583C6.60523 132.502 6.66706 132.425 6.73473 132.352H4.49123C4.45856 132.352 4.42706 132.347 4.39673 132.335C4.36873 132.321 4.34306 132.303 4.31973 132.282C4.29873 132.259 4.28123 132.233 4.26723 132.205C4.25323 132.175 4.24623 132.145 4.24623 132.114V131.4H7.83023Z" fill="black"/>
<rect x="0.5" y="146" width="11" height="11" rx="1" fill="white"/>
<rect x="0.5" y="146" width="11" height="11" rx="1" stroke="white"/>
<path d="M5.99973 153.737C6.12106 153.737 6.22606 153.718 6.31473 153.681C6.40339 153.644 6.47573 153.593 6.53173 153.53C6.59006 153.465 6.63206 153.389 6.65773 153.303C6.68573 153.214 6.69973 153.12 6.69973 153.019C6.69973 152.91 6.68806 152.809 6.66473 152.718C6.64139 152.627 6.60289 152.55 6.54923 152.487C6.49556 152.422 6.42323 152.372 6.33223 152.337C6.24356 152.3 6.13273 152.281 5.99973 152.281C5.86673 152.281 5.75473 152.3 5.66373 152.337C5.57506 152.372 5.50389 152.422 5.45023 152.487C5.39656 152.55 5.35806 152.627 5.33473 152.718C5.31139 152.809 5.29973 152.91 5.29973 153.019C5.29973 153.12 5.31256 153.214 5.33823 153.303C5.36623 153.389 5.40823 153.465 5.46423 153.53C5.52256 153.593 5.59489 153.644 5.68123 153.681C5.76989 153.718 5.87606 153.737 5.99973 153.737ZM5.99973 150.135C5.89006 150.135 5.79789 150.153 5.72323 150.188C5.64856 150.223 5.58673 150.27 5.53773 150.328C5.49106 150.384 5.45723 150.449 5.43623 150.524C5.41523 150.599 5.40473 150.676 5.40473 150.755C5.40473 150.844 5.41289 150.93 5.42923 151.014C5.44556 151.098 5.47589 151.173 5.52023 151.238C5.56456 151.303 5.62523 151.356 5.70223 151.395C5.77923 151.435 5.87839 151.455 5.99973 151.455C6.12106 151.455 6.22023 151.435 6.29723 151.395C6.37423 151.356 6.43489 151.303 6.47923 151.238C6.52356 151.173 6.55389 151.098 6.57023 151.014C6.58656 150.93 6.59473 150.844 6.59473 150.755C6.59473 150.676 6.58423 150.599 6.56323 150.524C6.54223 150.449 6.50723 150.384 6.45823 150.328C6.41156 150.27 6.34973 150.223 6.27273 150.188C6.19806 150.153 6.10706 150.135 5.99973 150.135ZM6.96223 151.84C7.11389 151.894 7.24339 151.96 7.35073 152.039C7.46039 152.119 7.54906 152.21 7.61673 152.312C7.68673 152.415 7.73806 152.528 7.77073 152.652C7.80339 152.773 7.81973 152.903 7.81973 153.04C7.81973 153.269 7.77539 153.477 7.68673 153.663C7.60039 153.85 7.47673 154.01 7.31573 154.143C7.15706 154.274 6.96573 154.375 6.74173 154.447C6.51773 154.52 6.27039 154.556 5.99973 154.556C5.72906 154.556 5.48173 154.52 5.25773 154.447C5.03373 154.375 4.84123 154.274 4.68023 154.143C4.52156 154.01 4.39789 153.85 4.30923 153.663C4.22289 153.477 4.17973 153.269 4.17973 153.04C4.17973 152.903 4.19606 152.773 4.22873 152.652C4.26139 152.528 4.31156 152.415 4.37923 152.312C4.44923 152.21 4.53789 152.119 4.64523 152.039C4.75489 151.96 4.88556 151.894 5.03723 151.84C4.80623 151.735 4.63356 151.59 4.51923 151.406C4.40489 151.219 4.34773 150.995 4.34773 150.734C4.34773 150.536 4.38856 150.352 4.47023 150.184C4.55189 150.014 4.66623 149.867 4.81323 149.743C4.96023 149.62 5.13406 149.523 5.33473 149.453C5.53773 149.381 5.75939 149.344 5.99973 149.344C6.24006 149.344 6.46056 149.381 6.66123 149.453C6.86423 149.523 7.03923 149.62 7.18623 149.743C7.33323 149.867 7.44756 150.014 7.52923 150.184C7.61089 150.352 7.65173 150.536 7.65173 150.734C7.65173 150.995 7.59456 151.219 7.48023 151.406C7.36589 151.59 7.19323 151.735 6.96223 151.84Z" fill="black"/>
<rect x="0.5" y="164" width="11" height="11" rx="1" fill="white"/>
<rect x="0.5" y="164" width="11" height="11" rx="1" stroke="white"/>
<path d="M5.27523 168.958C5.27523 169.467 5.51089 169.721 5.98223 169.721C6.21323 169.721 6.39056 169.652 6.51423 169.514C6.64023 169.374 6.70323 169.189 6.70323 168.958C6.70323 168.834 6.68456 168.726 6.64723 168.632C6.61223 168.537 6.56206 168.457 6.49673 168.394C6.43373 168.331 6.35673 168.284 6.26573 168.251C6.17473 168.218 6.07556 168.202 5.96823 168.202C5.85856 168.202 5.76056 168.222 5.67423 168.261C5.59023 168.299 5.51789 168.351 5.45723 168.419C5.39889 168.487 5.35339 168.567 5.32073 168.66C5.29039 168.751 5.27523 168.851 5.27523 168.958ZM6.14323 170.568C6.17589 170.528 6.20739 170.49 6.23773 170.452C6.26806 170.415 6.29606 170.378 6.32173 170.34C6.10706 170.455 5.86323 170.512 5.59023 170.512C5.42456 170.512 5.25889 170.483 5.09323 170.424C4.92756 170.364 4.77706 170.273 4.64173 170.151C4.50873 170.03 4.40023 169.877 4.31623 169.693C4.23223 169.509 4.19023 169.29 4.19023 169.038C4.19023 168.807 4.23223 168.589 4.31623 168.384C4.40256 168.179 4.52389 167.999 4.68023 167.845C4.83889 167.691 5.02789 167.57 5.24723 167.481C5.46656 167.39 5.71156 167.344 5.98223 167.344C6.25756 167.344 6.50373 167.386 6.72073 167.47C6.93773 167.554 7.12089 167.672 7.27023 167.824C7.42189 167.976 7.53739 168.156 7.61673 168.366C7.69839 168.574 7.73923 168.804 7.73923 169.056C7.73923 169.39 7.68906 169.688 7.58873 169.952C7.48839 170.216 7.35423 170.464 7.18623 170.697L6.08723 172.258C6.03823 172.326 5.96356 172.383 5.86323 172.43C5.76523 172.477 5.65323 172.5 5.52723 172.5H4.52623L6.14323 170.568Z" fill="black"/>
<rect x="0.5" y="182" width="11" height="11" rx="1" fill="white"/>
<rect x="0.5" y="182" width="11" height="11" rx="1" stroke="white"/>
<path d="M5.67045 189.716V190.5H2.76545V189.716H3.74545V187.143C3.74545 187.078 3.74662 187.013 3.74895 186.947C3.75129 186.88 3.75479 186.812 3.75945 186.744L3.17845 187.227C3.12712 187.267 3.07579 187.292 3.02445 187.301C2.97545 187.308 2.92879 187.308 2.88445 187.301C2.84012 187.292 2.80045 187.276 2.76545 187.255C2.73045 187.232 2.70479 187.209 2.68845 187.185L2.34545 186.73L3.93445 185.397H4.83045V189.716H5.67045ZM9.8675 187.948C9.8675 188.394 9.81967 188.78 9.724 189.107C9.62833 189.434 9.49533 189.704 9.325 189.919C9.157 190.134 8.95633 190.293 8.723 190.398C8.492 190.504 8.24117 190.556 7.9705 190.556C7.69983 190.556 7.449 190.504 7.218 190.398C6.98933 190.293 6.791 190.134 6.623 189.919C6.455 189.704 6.32317 189.434 6.2275 189.107C6.13417 188.78 6.0875 188.394 6.0875 187.948C6.0875 187.503 6.13417 187.117 6.2275 186.79C6.32317 186.463 6.455 186.193 6.623 185.978C6.791 185.763 6.98933 185.605 7.218 185.502C7.449 185.397 7.69983 185.344 7.9705 185.344C8.24117 185.344 8.492 185.397 8.723 185.502C8.95633 185.605 9.157 185.763 9.325 185.978C9.49533 186.193 9.62833 186.463 9.724 186.79C9.81967 187.117 9.8675 187.503 9.8675 187.948ZM8.7475 187.948C8.7475 187.596 8.72533 187.308 8.681 187.084C8.63667 186.858 8.57717 186.68 8.5025 186.552C8.43017 186.424 8.34733 186.336 8.254 186.289C8.16067 186.24 8.06617 186.216 7.9705 186.216C7.87483 186.216 7.78033 186.24 7.687 186.289C7.596 186.336 7.51433 186.424 7.442 186.552C7.372 186.68 7.31483 186.858 7.2705 187.084C7.2285 187.308 7.2075 187.596 7.2075 187.948C7.2075 188.303 7.2285 188.592 7.2705 188.816C7.31483 189.04 7.372 189.218 7.442 189.348C7.51433 189.477 7.596 189.565 7.687 189.614C7.78033 189.661 7.87483 189.684 7.9705 189.684C8.06617 189.684 8.16067 189.661 8.254 189.614C8.34733 189.565 8.43017 189.477 8.5025 189.348C8.57717 189.218 8.63667 189.04 8.681 188.816C8.72533 188.592 8.7475 188.303 8.7475 187.948Z" fill="black"/>
<rect x="0.5" y="200" width="11" height="11" rx="1" fill="white"/>
<rect x="0.5" y="200" width="11" height="11" rx="1" stroke="white"/>
<path d="M5.67045 207.716V208.5H2.76545V207.716H3.74545V205.143C3.74545 205.078 3.74662 205.013 3.74895 204.947C3.75129 204.88 3.75479 204.812 3.75945 204.744L3.17845 205.227C3.12712 205.267 3.07579 205.292 3.02445 205.301C2.97545 205.308 2.92879 205.308 2.88445 205.301C2.84012 205.292 2.80045 205.276 2.76545 205.255C2.73045 205.232 2.70479 205.209 2.68845 205.185L2.34545 204.73L3.93445 203.397H4.83045V207.716H5.67045ZM9.626 207.716V208.5H6.721V207.716H7.701V205.143C7.701 205.078 7.70217 205.013 7.7045 204.947C7.70683 204.88 7.71033 204.812 7.715 204.744L7.134 205.227C7.08267 205.267 7.03133 205.292 6.98 205.301C6.931 205.308 6.88433 205.308 6.84 205.301C6.79567 205.292 6.756 205.276 6.721 205.255C6.686 205.232 6.66033 205.209 6.644 205.185L6.301 204.73L7.89 203.397H8.786V207.716H9.626Z" fill="black"/>
<rect x="0.5" y="218" width="11" height="11" rx="1" fill="white"/>
<rect x="0.5" y="218" width="11" height="11" rx="1" stroke="white"/>
<path d="M5.67045 225.716V226.5H2.76545V225.716H3.74545V223.143C3.74545 223.078 3.74662 223.013 3.74895 222.947C3.75129 222.88 3.75479 222.812 3.75945 222.744L3.17845 223.227C3.12712 223.267 3.07579 223.292 3.02445 223.301C2.97545 223.308 2.92879 223.308 2.88445 223.301C2.84012 223.292 2.80045 223.276 2.76545 223.255C2.73045 223.232 2.70479 223.209 2.68845 223.185L2.34545 222.73L3.93445 221.397H4.83045V225.716H5.67045ZM9.3635 225.52C9.48017 225.52 9.57233 225.553 9.64 225.618C9.70767 225.681 9.7415 225.765 9.7415 225.87V226.5H6.1575V226.15C6.1575 226.082 6.1715 226.01 6.1995 225.933C6.2275 225.856 6.2765 225.786 6.3465 225.723L7.8165 224.242C7.9425 224.116 8.05217 223.996 8.1455 223.882C8.23883 223.768 8.31583 223.656 8.3765 223.546C8.43717 223.434 8.48267 223.323 8.513 223.213C8.54333 223.101 8.5585 222.984 8.5585 222.86C8.5585 222.657 8.5095 222.502 8.4115 222.394C8.31583 222.285 8.16883 222.23 7.9705 222.23C7.8095 222.23 7.673 222.273 7.561 222.359C7.45133 222.443 7.3755 222.548 7.3335 222.674C7.2845 222.803 7.22033 222.888 7.141 222.93C7.06167 222.972 6.9485 222.981 6.8015 222.958L6.2275 222.856C6.26483 222.602 6.336 222.38 6.441 222.191C6.54833 222.002 6.68017 221.845 6.8365 221.719C6.99517 221.593 7.176 221.5 7.379 221.439C7.582 221.376 7.80017 221.344 8.0335 221.344C8.2855 221.344 8.51183 221.382 8.7125 221.456C8.9155 221.529 9.08817 221.63 9.2305 221.761C9.37283 221.892 9.48133 222.048 9.556 222.23C9.633 222.41 9.6715 222.608 9.6715 222.825C9.6715 223.012 9.64467 223.184 9.591 223.343C9.53967 223.502 9.4685 223.653 9.3775 223.798C9.2865 223.94 9.18033 224.079 9.059 224.214C8.94 224.347 8.81283 224.483 8.6775 224.62L7.68 225.642C7.80833 225.603 7.9355 225.572 8.0615 225.551C8.1875 225.53 8.30417 225.52 8.4115 225.52H9.3635Z" fill="black"/>
<rect x="0.5" y="236" width="11" height="11" rx="1" fill="white"/>
<rect x="0.5" y="236" width="11" height="11" rx="1" stroke="white"/>
<path d="M5.67045 243.716V244.5H2.76545V243.716H3.74545V241.143C3.74545 241.078 3.74662 241.013 3.74895 240.947C3.75129 240.88 3.75479 240.812 3.75945 240.744L3.17845 241.227C3.12712 241.267 3.07579 241.292 3.02445 241.301C2.97545 241.308 2.92879 241.308 2.88445 241.301C2.84012 241.292 2.80045 241.276 2.76545 241.255C2.73045 241.232 2.70479 241.209 2.68845 241.185L2.34545 240.73L3.93445 239.397H4.83045V243.716H5.67045ZM6.2555 240.856C6.29283 240.602 6.364 240.38 6.469 240.191C6.57633 240.002 6.70817 239.845 6.8645 239.719C7.02317 239.593 7.204 239.5 7.407 239.439C7.61 239.376 7.82817 239.344 8.0615 239.344C8.3135 239.344 8.5375 239.381 8.7335 239.453C8.9295 239.523 9.09517 239.619 9.2305 239.74C9.36583 239.861 9.4685 240.002 9.5385 240.163C9.6085 240.322 9.6435 240.49 9.6435 240.667C9.6435 240.828 9.62717 240.971 9.5945 241.094C9.56183 241.216 9.51283 241.322 9.4475 241.413C9.3845 241.502 9.30517 241.577 9.2095 241.64C9.11617 241.701 9.00883 241.752 8.8875 241.794C9.45217 241.993 9.7345 242.378 9.7345 242.949C9.7345 243.22 9.6855 243.456 9.5875 243.656C9.4895 243.857 9.35767 244.024 9.192 244.157C9.02867 244.29 8.8385 244.39 8.6215 244.458C8.4045 244.523 8.17817 244.556 7.9425 244.556C7.69983 244.556 7.484 244.53 7.295 244.479C7.106 244.425 6.938 244.344 6.791 244.234C6.644 244.122 6.5145 243.98 6.4025 243.807C6.29283 243.634 6.19717 243.429 6.1155 243.191L6.5985 242.995C6.7245 242.946 6.84117 242.933 6.9485 242.956C7.05583 242.98 7.13283 243.033 7.1795 243.117C7.2845 243.311 7.39533 243.452 7.512 243.541C7.631 243.627 7.76983 243.67 7.9285 243.67C8.04983 243.67 8.15483 243.651 8.2435 243.611C8.3345 243.569 8.40917 243.516 8.4675 243.453C8.52817 243.388 8.57367 243.315 8.604 243.233C8.63433 243.151 8.6495 243.068 8.6495 242.984C8.6495 242.875 8.64133 242.777 8.625 242.69C8.611 242.602 8.569 242.526 8.499 242.463C8.429 242.4 8.32283 242.352 8.1805 242.319C8.0405 242.284 7.8445 242.267 7.5925 242.267V241.518C7.80483 241.518 7.97633 241.502 8.107 241.469C8.23767 241.436 8.338 241.392 8.408 241.336C8.48033 241.278 8.52817 241.208 8.5515 241.126C8.57483 241.044 8.5865 240.954 8.5865 240.856C8.5865 240.656 8.5375 240.502 8.4395 240.394C8.34383 240.285 8.19683 240.23 7.9985 240.23C7.8375 240.23 7.701 240.273 7.589 240.359C7.47933 240.443 7.4035 240.548 7.3615 240.674C7.3125 240.803 7.24833 240.888 7.169 240.93C7.08967 240.972 6.9765 240.981 6.8295 240.958L6.2555 240.856Z" fill="black"/>
<rect x="0.5" y="254" width="11" height="11" rx="1" fill="white"/>
<rect x="0.5" y="254" width="11" height="11" rx="1" stroke="white"/>
<path d="M5.67045 261.716V262.5H2.76545V261.716H3.74545V259.143C3.74545 259.078 3.74662 259.013 3.74895 258.947C3.75129 258.88 3.75479 258.812 3.75945 258.744L3.17845 259.227C3.12712 259.267 3.07579 259.292 3.02445 259.301C2.97545 259.308 2.92879 259.308 2.88445 259.301C2.84012 259.292 2.80045 259.276 2.76545 259.255C2.73045 259.232 2.70479 259.209 2.68845 259.185L2.34545 258.73L3.93445 257.397H4.83045V261.716H5.67045ZM8.38 260.519V259.189C8.38 259.107 8.38233 259.02 8.387 258.926C8.394 258.831 8.40333 258.732 8.415 258.629L7.0675 260.519H8.38ZM9.85 260.519V261.128C9.85 261.182 9.83133 261.228 9.794 261.268C9.759 261.308 9.70767 261.327 9.64 261.327H9.325V262.5H8.38V261.327H6.329C6.26133 261.327 6.1995 261.306 6.1435 261.264C6.08983 261.222 6.056 261.17 6.042 261.107L5.93 260.572L8.289 257.4H9.325V260.519H9.85Z" fill="black"/>
<rect x="0.5" y="272" width="11" height="11" rx="1" fill="white"/>
<rect x="0.5" y="272" width="11" height="11" rx="1" stroke="white"/>
<path d="M5.67045 279.716V280.5H2.76545V279.716H3.74545V277.143C3.74545 277.078 3.74662 277.013 3.74895 276.947C3.75129 276.88 3.75479 276.812 3.75945 276.744L3.17845 277.227C3.12712 277.267 3.07579 277.292 3.02445 277.301C2.97545 277.308 2.92879 277.308 2.88445 277.301C2.84012 277.292 2.80045 277.276 2.76545 277.255C2.73045 277.232 2.70479 277.209 2.68845 277.185L2.34545 276.73L3.93445 275.397H4.83045V279.716H5.67045ZM7.5015 277.196C7.59717 277.177 7.68933 277.164 7.778 277.157C7.86667 277.15 7.953 277.147 8.037 277.147C8.30533 277.147 8.54217 277.188 8.7475 277.269C8.95283 277.351 9.1255 277.463 9.2655 277.605C9.4055 277.745 9.5105 277.911 9.5805 278.102C9.65283 278.291 9.689 278.494 9.689 278.711C9.689 278.984 9.64 279.234 9.542 279.46C9.44633 279.684 9.31217 279.878 9.1395 280.041C8.96683 280.205 8.76033 280.332 8.52 280.423C8.282 280.512 8.02067 280.556 7.736 280.556C7.57033 280.556 7.41167 280.539 7.26 280.504C7.11067 280.468 6.9695 280.422 6.8365 280.363C6.70583 280.303 6.5845 280.234 6.4725 280.157C6.3605 280.078 6.259 279.994 6.168 279.905L6.504 279.457C6.539 279.41 6.57983 279.375 6.6265 279.352C6.67317 279.326 6.72333 279.313 6.777 279.313C6.847 279.313 6.91233 279.333 6.973 279.373C7.036 279.41 7.10367 279.452 7.176 279.499C7.25067 279.543 7.337 279.584 7.435 279.621C7.533 279.659 7.65433 279.677 7.799 279.677C7.94367 279.677 8.06733 279.654 8.17 279.607C8.27267 279.558 8.3555 279.493 8.4185 279.411C8.48383 279.327 8.5305 279.231 8.5585 279.121C8.58883 279.009 8.604 278.89 8.604 278.764C8.604 278.517 8.534 278.329 8.394 278.2C8.254 278.07 8.05567 278.004 7.799 278.004C7.57033 278.004 7.34633 278.048 7.127 278.134L6.455 277.952L6.889 275.4H9.5V275.848C9.5 275.923 9.48833 275.991 9.465 276.051C9.44167 276.112 9.40433 276.166 9.353 276.212C9.304 276.257 9.23867 276.292 9.157 276.317C9.07533 276.341 8.97733 276.352 8.863 276.352H7.645L7.5015 277.196Z" fill="black"/>
<rect x="0.5" y="290" width="11" height="11" rx="1" fill="white"/>
<rect x="0.5" y="290" width="11" height="11" rx="1" stroke="white"/>
<path d="M5.67045 297.716V298.5H2.76545V297.716H3.74545V295.143C3.74545 295.078 3.74662 295.013 3.74895 294.947C3.75129 294.88 3.75479 294.812 3.75945 294.744L3.17845 295.227C3.12712 295.267 3.07579 295.292 3.02445 295.301C2.97545 295.308 2.92879 295.308 2.88445 295.301C2.84012 295.292 2.80045 295.276 2.76545 295.255C2.73045 295.232 2.70479 295.209 2.68845 295.185L2.34545 294.73L3.93445 293.397H4.83045V297.716H5.67045ZM7.9705 297.698C8.0825 297.698 8.18633 297.677 8.282 297.635C8.38 297.593 8.464 297.536 8.534 297.464C8.604 297.389 8.65883 297.303 8.6985 297.205C8.7405 297.105 8.7615 296.996 8.7615 296.879C8.7615 296.749 8.74167 296.632 8.702 296.529C8.66467 296.427 8.611 296.34 8.541 296.27C8.471 296.2 8.38583 296.147 8.2855 296.109C8.1875 296.072 8.07783 296.053 7.9565 296.053C7.84683 296.053 7.7465 296.073 7.6555 296.113C7.5645 296.15 7.48517 296.205 7.4175 296.277C7.35217 296.35 7.30083 296.436 7.2635 296.536C7.22617 296.637 7.2075 296.75 7.2075 296.876C7.2075 297.002 7.22267 297.115 7.253 297.215C7.28333 297.316 7.33 297.402 7.393 297.474C7.456 297.547 7.53533 297.603 7.631 297.642C7.72667 297.68 7.83983 297.698 7.9705 297.698ZM7.7955 295.36C7.95883 295.3 8.14083 295.269 8.3415 295.269C8.52583 295.269 8.70783 295.3 8.8875 295.36C9.06717 295.421 9.22817 295.514 9.3705 295.64C9.51283 295.766 9.62717 295.926 9.7135 296.12C9.80217 296.311 9.8465 296.538 9.8465 296.799C9.8465 297.037 9.80217 297.263 9.7135 297.478C9.62483 297.69 9.49883 297.877 9.3355 298.038C9.1745 298.197 8.97967 298.323 8.751 298.416C8.52233 298.509 8.26917 298.556 7.9915 298.556C7.70683 298.556 7.45133 298.512 7.225 298.423C6.99867 298.332 6.80617 298.206 6.6475 298.045C6.49117 297.884 6.371 297.691 6.287 297.467C6.20533 297.243 6.1645 296.997 6.1645 296.729C6.1645 296.227 6.35817 295.717 6.7455 295.199L7.8935 293.649C7.94717 293.581 8.02417 293.523 8.1245 293.474C8.22717 293.425 8.34383 293.4 8.4745 293.4H9.4405L7.9285 295.206L7.7955 295.36Z" fill="black"/>
</svg>
