<?xml version="1.0" encoding="utf-8"?>
<svg width="555px" height="179px" viewBox="0 0 555 179" version="1.1" xmlns:xlink="http://www.w3.org/1999/xlink" xmlns="http://www.w3.org/2000/svg">
  <desc>Created with Lunacy</desc>
  <defs>
    <rect width="555" height="179" id="artboard_1" />
    <clipPath id="clip_1">
      <use xlink:href="#artboard_1" clip-rule="evenodd" />
    </clipPath>
  </defs>
  <g id="bmp00158" clip-path="url(#clip_1)">
    <g id="Icon" transform="translate(0 0.4049225)">
      <path d="M98.7142 25.8446L136.305 51.3858L136.305 0L10.6966 0C4.76762 0 0 4.73211 0 10.6169L0 109.627L25.7329 116.847C27.0776 117.211 28.4224 116.422 28.8502 115.148L35.2682 92.0941C35.696 90.456 37.652 89.728 39.1189 90.6987L100.67 132.742C102.993 134.319 101.281 137.959 98.592 137.17L51.1602 124.005C49.8155 123.641 48.4097 124.43 48.1041 125.765L41.8084 148.819C41.3805 150.457 39.3634 151.185 37.9576 150.214L0 124.127L0 178L124.753 178C131.11 178 136.244 172.843 136.244 166.594L136.244 66.1888L110.817 59.1513C109.472 58.7873 108.127 59.576 107.76 60.85L101.159 83.9645C100.67 85.6026 98.7753 86.2699 97.3084 85.3599L35.696 43.2563C33.3733 41.6789 35.0848 38.0389 37.7742 38.8275L85.2059 51.9925C86.5507 52.3565 87.8954 51.5678 88.2621 50.2938L94.8634 27.1793C95.3524 25.6019 97.2472 24.8739 98.7142 25.8446L98.7142 25.8446Z" id="XMLID_3_" fill="#FF9000" fill-rule="evenodd" stroke="none" />
    </g>
    <g id="SURGE" transform="translate(171.63336 0)">
      <path d="M56.7846 23.9877L37.4696 24.9693C37.4696 22.3313 36.675 20.3067 35.1469 18.773C33.6188 17.2393 31.4795 16.5031 28.729 16.5031C26.4063 16.5031 24.5115 17.0552 23.1056 18.2209C21.6998 19.3865 21.0274 20.9816 21.0274 23.0061C21.0274 24.8466 21.822 26.2577 23.4723 27.2393C25.2449 28.1595 28.4845 29.2024 33.191 30.3681C41.7482 32.638 47.9828 35.4601 51.9558 38.773C55.9288 42.0859 57.8848 46.6871 57.8848 52.5153C57.8848 60.2454 55.3176 66.0736 50.1221 70C44.8655 73.865 38.2642 75.8282 30.3182 75.8282C21.2108 75.8282 13.876 73.681 8.25264 69.3251C2.69041 64.908 -0.0601384 58.773 0.000988628 50.9202L19.316 49.9386C19.2548 52.7607 20.2328 55.0307 22.311 56.7485C24.3892 58.4662 27.0175 59.3251 30.3182 59.3251C35.8193 59.3251 38.5698 57.3619 38.5698 53.4356C38.5698 51.7178 37.5918 50.2454 35.7581 49.0797C33.8633 47.8527 30.6849 46.6871 26.1618 45.4601C18.9492 43.681 13.2647 41.411 9.10836 38.6503C4.2185 35.4601 1.77356 30.3681 1.77356 23.4969C1.77356 16.6871 4.03513 11.0429 8.61938 6.68711C13.2648 2.20858 19.8661 0 28.4233 0C36.9195 0 43.7653 2.14724 49.0219 6.38036C54.034 10.6748 56.6623 16.5031 56.7846 23.9877L56.7846 23.9877Z" id="S" fill="#FFFFFF" fill-rule="evenodd" stroke="none" />
      <path d="M46.0259 0L64.8519 0L64.8519 42.3313C64.8519 52.5153 61.9791 60.4294 56.2335 66.135C50.549 71.8405 42.6641 74.7239 32.5176 74.7239C22.31 74.7239 14.364 71.8405 8.6184 66.135C2.87281 60.4294 0 52.5153 0 42.3313L0 0L18.9482 0L18.9482 42.0245C18.9482 52.5767 23.4714 57.8528 32.5787 57.8528C41.625 57.8528 46.087 52.5767 46.087 42.0245L46.087 0L46.0259 0Z" transform="translate(76.46625 1.1656609)" id="U" fill="#FFFFFF" fill-rule="evenodd" stroke="none" />
      <path d="M61.3678 73.6196L39.9747 73.6196L26.9554 49.0184L18.9482 49.0184L18.9482 73.6196L0 73.6196L0 0L33.1289 0C40.647 0 46.576 2.20859 50.9769 6.56441C55.3778 10.9202 57.5171 16.9325 57.5171 24.5399C57.5171 34.6012 53.8497 41.6564 46.5149 45.7669L61.3678 73.6196L61.3678 73.6196ZM18.9482 16.8098L18.9482 32.1473L30.9284 32.1473C33.2511 32.1473 35.0848 31.4724 36.4295 30.0614C37.7131 28.7117 38.3854 26.8098 38.3854 24.4786C38.3854 22.1473 37.7131 20.2454 36.4295 18.8957C35.1459 17.546 33.3122 16.8098 30.9284 16.8098L18.9482 16.8098L18.9482 16.8098Z" transform="translate(162.65027 1.1656189)" id="R" fill="#FFFFFF" fill-rule="evenodd" stroke="none" />
      <path d="M37.9576 32.8221L73.7147 32.8221L73.7147 38.8957C73.7147 49.8773 70.5363 58.7116 64.1184 65.5828C57.7004 72.3926 49.082 75.8282 38.1409 75.8282C26.9554 75.8282 17.7869 72.3926 10.5743 65.5828C3.54515 58.8343 0 49.6319 0 37.9141C0 26.2577 3.54515 16.9939 10.5743 10.2454C17.7869 3.43558 26.9554 0 38.1409 0C46.8205 0 54.2775 2.20859 60.3899 6.56441C66.5022 10.9202 70.7197 16.9939 72.9201 24.7853L53.2996 28.0368C50.9769 20.5521 45.8425 16.8098 37.8965 16.8098C31.9064 16.8098 27.261 18.5889 24.0826 22.1472C20.9042 25.7055 19.2539 30.9202 19.2539 37.9141C19.2539 44.8466 20.843 50.1227 24.0826 53.681C27.261 57.2392 31.9064 59.0184 37.8965 59.0184C45.1702 59.0184 49.9989 55.8895 52.505 49.6932L37.8965 49.6932L37.8965 32.8221L37.9576 32.8221Z" transform="translate(239.91031 0)" id="G" fill="#FFFFFF" fill-rule="evenodd" stroke="none" />
      <path d="M47.9818 9.36122e-06L47.9818 16.8098L18.8871 16.8098L18.8871 27.8528L43.7643 27.8528L43.7643 44.2945L18.8871 44.2945L18.8871 56.8098L48.104 56.8098L48.104 73.6196L0 73.6196L0 0L47.9818 0L47.9818 9.36122e-06Z" transform="translate(333.5512 1.1656189)" id="E" fill="#FFFFFF" fill-rule="evenodd" stroke="none" />
    </g>
    <g id="FREE-&amp;-OPEN-SOURCE" transform="translate(171.63434 112.392685)">
      <path d="M17.2368 0L17.2368 6.01226L6.7847 6.01226L6.7847 9.87728L15.0975 9.87728L15.0975 15.8895L6.7847 15.8895L6.7847 26.3804L0 26.3804L0 0L17.2368 0L17.2368 0Z" transform="translate(0 0.5521698)" id="F" fill="#2D86FE" fill-rule="evenodd" stroke="none" />
      <path d="M22.0044 26.3804L14.364 26.3804L9.6575 17.546L6.7847 17.546L6.7847 26.3804L0 26.3804L0 0L11.9191 0C14.6085 0 16.7478 0.797538 18.337 2.33128C19.9262 3.92638 20.7208 6.07361 20.7208 8.773C20.7208 12.3926 19.3761 14.908 16.8089 16.3804L22.0044 26.3804L22.0044 26.3804ZM6.72357 6.01227L6.72357 11.5337L11.0022 11.5337C11.8579 11.5337 12.5303 11.2883 12.9582 10.7975C13.4471 10.3067 13.6305 9.6319 13.6305 8.773C13.6305 7.91411 13.386 7.23926 12.9582 6.74847C12.4692 6.25768 11.858 6.01227 11.0022 6.01227L6.72357 6.01227L6.72357 6.01227Z" transform="translate(20.109558 0.5521698)" id="R" fill="#2D86FE" fill-rule="evenodd" stroke="none" />
      <path d="M17.2979 0.0613721L17.2979 6.07363L6.8458 6.07363L6.8458 10L15.7698 10L15.7698 15.8896L6.8458 15.8896L6.8458 20.3681L17.2979 20.3681L17.2979 26.3804L0 26.3804L0 0L17.2979 0L17.2979 0.0613721Z" transform="translate(44.620056 0.49075317)" id="E" fill="#2D86FE" fill-rule="evenodd" stroke="none" />
      <path d="M17.2979 0.0613721L17.2979 6.07363L6.8458 6.07363L6.8458 10L15.7698 10L15.7698 15.8896L6.8458 15.8896L6.8458 20.3681L17.2979 20.3681L17.2979 26.3804L0 26.3804L0 0L17.2979 0L17.2979 0.0613721Z" transform="translate(65.2186 0.49075317)" id="E" fill="#2D86FE" fill-rule="evenodd" stroke="none" />
      <path d="M25.1828 22.3926L21.6377 27.1166L17.7258 23.9264C15.5865 26.0736 12.897 27.1166 9.77974 27.1166C6.66244 27.1166 4.21751 26.3804 2.50606 24.908C0.855723 23.4356 0 21.5951 0 19.3251C0 16.5644 1.28359 14.2945 3.78966 12.454C2.50606 10.9202 1.8337 9.38649 1.8337 7.73004C1.8337 5.27606 2.6283 3.37421 4.21751 2.02453C5.80672 0.674832 7.94604 0 10.6355 0C12.9581 0 14.9752 0.613497 16.5033 1.90184C18.0925 3.19019 19.0705 4.90797 19.4372 7.11657L12.8359 7.66871C12.6525 6.19632 11.9191 5.46012 10.5743 5.46012C9.9631 5.46012 9.41299 5.64416 9.10738 6.01226C8.74063 6.38036 8.55727 6.93251 8.55727 7.60736C8.55727 8.34356 8.86289 8.95706 9.41299 9.57055C9.47412 9.63191 9.53525 9.69326 9.53525 9.69326C9.59638 9.75461 9.59638 9.75461 9.6575 9.81597C9.6575 9.87732 9.71863 9.87732 9.71863 9.93867C9.77976 10 9.77976 10 9.84088 10.0614C9.90201 10.1227 9.96314 10.1841 10.0242 10.2454C10.2076 10.4295 10.3299 10.4908 10.391 10.5522C10.88 10.9203 11.1245 11.1043 11.1856 11.1657L16.0143 15.092C16.3199 14.2332 16.6256 13.1288 16.9312 11.7178L22.9213 13.2516C22.3712 15.3988 21.6988 17.3006 20.9042 19.0184L25.1828 22.3926L25.1828 22.3926ZM9.90196 21.411C11.0633 21.411 12.1635 21.0429 13.1415 20.2454L8.00714 16.0736C7.27365 16.7485 6.90692 17.6074 6.90692 18.773C6.90692 19.6319 7.15141 20.2454 7.70152 20.7362C8.25163 21.1656 8.98511 21.411 9.90196 21.411L9.90196 21.411Z" transform="translate(91.80728 0.18403625)" id="&amp;" fill="#2D86FE" fill-rule="evenodd" stroke="none" />
      <path d="M13.9361 0C18.0314 0 21.3932 1.22699 23.8992 3.74233C26.5275 6.19632 27.8111 9.5092 27.8111 13.6196C27.8111 17.7301 26.5275 20.9816 23.8992 23.4969C21.332 25.9509 18.0314 27.1779 13.9361 27.1779C9.77974 27.1779 6.41795 25.9509 3.85076 23.4969C1.28358 20.9816 0 17.6687 0 13.6196C0 9.5092 1.28358 6.25767 3.85076 3.74233C6.41795 1.28835 9.77974 0 13.9361 0L13.9361 0ZM13.9362 6.07362C11.7969 6.07362 10.0855 6.74847 8.80185 8.09816C7.51828 9.44786 6.90704 11.2883 6.90704 13.6196C6.90704 15.9509 7.51828 17.7914 8.80185 19.1411C10.0854 20.4908 11.7969 21.1656 13.9362 21.1656C16.0755 21.1656 17.787 20.4908 19.0095 19.1411C20.293 17.7914 20.9043 15.9509 20.9043 13.6196C20.9043 11.2883 20.293 9.44786 19.0095 8.09816C17.787 6.74846 16.0755 6.07362 13.9362 6.07362L13.9362 6.07362Z" transform="translate(124.14154 0.122665405)" id="O" fill="#2D86FE" fill-rule="evenodd" stroke="none" />
      <path d="M0 26.3804L0 0L12.0413 0C14.7307 0 16.87 0.797538 18.4592 2.39263C20.0484 3.98773 20.8431 6.13497 20.8431 8.83435C20.8431 11.5337 20.0485 13.681 18.4592 15.2761C16.87 16.8098 14.7918 17.6073 12.1024 17.6073L6.84581 17.6073L6.84581 26.3804L0 26.3804L0 26.3804ZM11.1856 6.01227L6.78473 6.01227L6.78473 11.5951L11.1856 11.5951C11.9802 11.5951 12.6526 11.3497 13.1416 10.8589C13.6305 10.3681 13.8751 9.69325 13.8751 8.83436C13.8751 7.97547 13.6305 7.30062 13.1416 6.80982C12.6525 6.25768 11.9802 6.01227 11.1856 6.01227L11.1856 6.01227Z" transform="translate(155.1311 0.5521698)" id="P" fill="#2D86FE" fill-rule="evenodd" stroke="none" />
      <path d="M17.2979 0.0613721L17.2979 6.07363L6.84583 6.07363L6.84583 10L15.7698 10L15.7698 15.8896L6.84583 15.8896L6.84583 20.3681L17.2979 20.3681L17.2979 26.3804L0 26.3804L0 0L17.2979 0L17.2979 0.0613721Z" transform="translate(178.17459 0.49075317)" id="E" fill="#2D86FE" fill-rule="evenodd" stroke="none" />
      <path d="M0 0L15.0363 12.8834L15.0363 0.552143L21.821 0.552143L21.821 27.4846L6.78467 14.6626L6.78467 26.9325L0 26.9325L0 0L0 0Z" transform="translate(198.89542 0)" id="N" fill="#2D86FE" fill-rule="evenodd" stroke="none" />
      <path d="M20.2956 8.71164L13.3887 9.07975C13.3887 8.1595 13.083 7.4233 12.5329 6.87115C11.9828 6.31901 11.1882 6.07361 10.2102 6.07361C9.35451 6.07361 8.68217 6.25766 8.19319 6.68711C7.70421 7.11657 7.4597 7.66871 7.4597 8.40489C7.4597 9.07975 7.76532 9.57054 8.31544 9.93864C8.92667 10.2454 10.088 10.6748 11.7995 11.0429C14.8556 11.8405 17.1172 12.8834 18.523 14.0491C19.9289 15.2147 20.6624 16.8711 20.6624 18.957C20.6624 21.7178 19.7455 23.8036 17.9118 25.2147C16.017 26.6257 13.6943 27.3006 10.8215 27.3006C7.58199 27.3006 4.9537 26.503 2.9366 24.9693C0.919536 23.3742 -0.0584596 21.1656 0.00268608 18.3435L6.90961 17.9754C6.90961 19.0184 7.21523 19.8159 8.00982 20.4294C8.74331 21.0429 9.72127 21.3497 10.8826 21.3497C12.8386 21.3497 13.8165 20.6135 13.8165 19.2024C13.8165 18.5889 13.4498 18.0368 12.7774 17.6073C12.1051 17.1779 10.9437 16.7485 9.35454 16.319C6.78736 15.7055 4.70919 14.8466 3.24221 13.865C1.46962 12.6994 0.613919 10.9202 0.613919 8.40489C0.613919 5.95091 1.40851 3.92638 3.05885 2.39263C4.70919 0.797538 7.09297 0 10.1491 0C13.2053 0 15.6502 0.736204 17.545 2.26995C19.3176 3.92638 20.2344 6.01226 20.2956 8.71164L20.2956 8.71164Z" transform="translate(230.67691 0)" id="S" fill="#2D86FE" fill-rule="evenodd" stroke="none" />
      <path d="M13.9361 0C18.0314 0 21.3932 1.22699 23.8992 3.74233C26.5275 6.19632 27.8111 9.5092 27.8111 13.6196C27.8111 17.7301 26.5275 20.9816 23.8992 23.4969C21.332 25.9509 18.0314 27.1779 13.9361 27.1779C9.77973 27.1779 6.41795 25.9509 3.85076 23.4969C1.28357 20.9816 0 17.6687 0 13.6196C0 9.5092 1.28357 6.25767 3.85076 3.74233C6.41791 1.28835 9.77969 0 13.9361 0L13.9361 0ZM13.9361 6.07362C11.7968 6.07362 10.0853 6.74847 8.80173 8.09816C7.51816 9.44786 6.90692 11.2883 6.90692 13.6196C6.90692 15.9509 7.51816 17.7914 8.80173 19.1411C10.0853 20.4908 11.7968 21.1656 13.9361 21.1656C16.0754 21.1656 17.7869 20.4908 19.0093 19.1411C20.2929 17.7914 20.9041 15.9509 20.9041 13.6196C20.9041 11.2883 20.2929 9.44786 19.0093 8.09816C17.7257 6.74846 16.0754 6.07362 13.9361 6.07362L13.9361 6.07362Z" transform="translate(253.53973 0.122665405)" id="O" fill="#2D86FE" fill-rule="evenodd" stroke="none" />
      <path d="M16.5644 0L23.2879 0L23.2879 15.1534C23.2879 18.773 22.2488 21.6564 20.1707 23.681C18.1536 25.7055 15.2808 26.7485 11.6745 26.7485C8.00713 26.7485 5.13433 25.7055 3.11727 23.681C1.03907 21.6564 0 18.773 0 15.1534L0 0L6.78466 0L6.78466 15.092C6.78466 18.8957 8.435 20.7975 11.6745 20.7975C14.914 20.7975 16.5033 18.8957 16.5033 15.092L16.5033 0L16.5644 0Z" transform="translate(284.28473 0.5521698)" id="U" fill="#2D86FE" fill-rule="evenodd" stroke="none" />
      <path d="M22.0044 26.3804L14.364 26.3804L9.65746 17.546L6.78466 17.546L6.78466 26.3804L0 26.3804L0 0L11.919 0C14.6085 0 16.7478 0.797538 18.337 2.33128C19.9262 3.92638 20.7208 6.07361 20.7208 8.773C20.7208 12.3926 19.3761 14.908 16.8089 16.3804L22.0044 26.3804L22.0044 26.3804ZM6.78461 6.01227L6.78461 11.5337L11.0632 11.5337C11.919 11.5337 12.5913 11.2883 13.0192 10.7975C13.5082 10.3067 13.6915 9.6319 13.6915 8.773C13.6915 7.91411 13.447 7.23926 13.0192 6.74847C12.5302 6.25768 11.919 6.01227 11.0632 6.01227L6.78461 6.01227L6.78461 6.01227Z" transform="translate(311.36237 0.5521698)" id="R" fill="#2D86FE" fill-rule="evenodd" stroke="none" />
      <path d="M13.6917 0C16.9923 0 19.804 0.920245 22.1878 2.76074C24.5716 4.60123 25.9775 7.11657 26.4665 10.1841L19.3762 10.8589C18.6427 7.60738 16.6256 6.01228 13.4472 6.01228C11.4912 6.01228 9.90203 6.68713 8.74068 8.09817C7.57932 9.44787 6.96808 11.2884 6.96808 13.5583C6.96808 15.9509 7.57932 17.7914 8.74068 19.1411C9.96314 20.4908 11.4912 21.1656 13.4472 21.1656C15.0364 21.1656 16.32 20.7362 17.3591 19.9386C18.3982 19.1411 19.0705 17.9141 19.3762 16.3804L26.4665 16.9939C25.9775 20.1227 24.5716 22.638 22.1878 24.5399C19.8651 26.3804 16.9923 27.3006 13.6917 27.3006C9.65753 27.3006 6.35685 26.0736 3.78966 23.6196C1.28361 21.1656 0 17.9141 0 13.681C0 9.5092 1.28358 6.1963 3.78966 3.74232C6.41796 1.22699 9.71863 0 13.6917 0L13.6917 0Z" transform="translate(335.13934 0.122665405)" id="C" fill="#2D86FE" fill-rule="evenodd" stroke="none" />
      <path d="M17.2979 0.0613721L17.2979 6.07363L6.84582 6.07363L6.84582 10L15.7698 10L15.7698 15.8896L6.84582 15.8896L6.84582 20.3681L17.2979 20.3681L17.2979 26.3804L0 26.3804L0 0L17.2979 0L17.2979 0.0613721Z" transform="translate(364.60077 0.49075317)" id="E" fill="#2D86FE" fill-rule="evenodd" stroke="none" />
    </g>
    <g id="HYBRID-SYNTHESIZER" transform="translate(171.63434 150.79755)">
      <path d="M22.3711 0L22.3711 26.3804L15.5865 26.3804L15.5865 15.9509L6.78469 15.9509L6.78469 26.3804L0 26.3804L0 0L6.78469 0L6.78469 9.93866L15.5865 9.93866L15.5865 0L22.3711 0L22.3711 0Z" transform="translate(0 0.552124)" id="H" fill="#2D86FE" fill-rule="evenodd" stroke="none" />
      <path d="M26.7109 0L16.7478 16.7485L16.7478 26.4417L9.9631 26.4417L9.9631 16.7485L0 0L7.88491 0L13.386 9.93866L18.8871 0L26.7109 0L26.7109 0Z" transform="translate(23.838135 0.552124)" id="Y" fill="#2D86FE" fill-rule="evenodd" stroke="none" />
      <path d="M0 26.3804L0 0L11.7357 0C14.364 0 16.3811 0.613497 17.9091 1.90184C19.4372 3.19019 20.1707 5.03068 20.1707 7.48467C20.1707 9.38651 19.4372 11.0429 18.0314 12.454C19.0094 12.9448 19.7429 13.7423 20.3541 14.7853C20.9042 15.8282 21.2098 17.0552 21.2098 18.4663C21.2098 20.9816 20.4152 22.8834 18.826 24.2945C17.2368 25.7055 15.0975 26.3804 12.408 26.3804L0 26.3804L0 26.3804ZM10.9411 5.95093L6.78473 5.95093L6.78473 9.93866L10.88 9.93866C12.4692 9.93866 13.2638 9.26381 13.2638 7.97546C13.2638 6.62578 12.4692 5.95093 10.9411 5.95093L10.9411 5.95093ZM11.6134 15.7669L6.84583 15.7669L6.84583 20.3067L11.6746 20.3067C13.4471 20.3067 14.3029 19.5705 14.3029 18.0368C14.2418 16.5031 13.386 15.7669 11.6134 15.7669L11.6134 15.7669Z" transform="translate(51.954834 0.6134949)" id="B" fill="#2D86FE" fill-rule="evenodd" stroke="none" />
      <path d="M22.0044 26.3804L14.364 26.3804L9.6575 17.546L6.7847 17.546L6.7847 26.3804L0 26.3804L0 0L11.9191 0C14.6085 0 16.7478 0.797538 18.337 2.33128C19.9262 3.92638 20.7208 6.07361 20.7208 8.773C20.7208 12.3926 19.3761 14.908 16.8089 16.3804L22.0044 26.3804L22.0044 26.3804ZM6.78473 5.95093L6.78473 11.4724L11.0634 11.4724C11.9191 11.4724 12.5914 11.227 13.0193 10.7362C13.5083 10.2454 13.6917 9.57056 13.6917 8.71166C13.6917 7.85277 13.4472 7.17792 13.0193 6.68713C12.5303 6.19634 11.9191 5.95093 11.0634 5.95093L6.78473 5.95093L6.78473 5.95093Z" transform="translate(76.09851 0.6134949)" id="R" fill="#2D86FE" fill-rule="evenodd" stroke="none" />
      <path d="M6.7847 0L6.7847 26.3804L0 26.3804L0 0L6.7847 0L6.7847 0Z" transform="translate(100.24225 0.552124)" id="I" fill="#2D86FE" fill-rule="evenodd" stroke="none" />
      <path d="M0 26.3804L0 0L11.1245 0C15.0363 0 18.2148 1.16564 20.7208 3.55827C23.2269 5.88955 24.4493 9.1411 24.4493 13.1902C24.4493 17.2393 23.2269 20.4908 20.7208 22.8221C18.2148 25.2147 15.0363 26.3804 11.1244 26.3804L0 26.3804L0 26.3804ZM11.2467 5.8282L6.7847 5.8282L6.7847 20.4908L11.2467 20.4908C13.3249 20.4908 14.9141 19.8773 16.0755 18.6503C17.1757 17.4233 17.7869 15.5828 17.7869 13.1902C17.7869 10.7362 17.2368 8.95704 16.0755 7.73004C14.9141 6.4417 13.3249 5.8282 11.2467 5.8282L11.2467 5.8282Z" transform="translate(110.51102 0.6134949)" id="D" fill="#2D86FE" fill-rule="evenodd" stroke="none" />
      <path d="M20.2956 8.71164L13.3887 9.07975C13.3887 8.1595 13.0831 7.4233 12.5329 6.87115C11.9828 6.31901 11.1882 6.07362 10.2103 6.07362C9.35452 6.07362 8.68218 6.25766 8.1932 6.68711C7.70422 7.11657 7.45971 7.66871 7.45971 8.4049C7.45971 9.07975 7.76533 9.57054 8.31545 9.93864C8.92669 10.2454 10.088 10.6748 11.7995 11.0429C14.8557 11.8405 17.1172 12.8834 18.5231 14.0491C19.9289 15.2147 20.6624 16.8711 20.6624 18.957C20.6624 21.7178 19.7455 23.8036 17.9118 25.2147C16.017 26.6257 13.6943 27.3006 10.8215 27.3006C7.582 27.3006 4.9537 26.5031 2.9366 24.9693C0.919537 23.3742 -0.0584597 21.1656 0.00268609 18.3436L6.90962 17.9754C6.90962 19.0184 7.21524 19.8159 8.00984 20.4294C8.74332 21.0429 9.72128 21.3497 10.8826 21.3497C12.8386 21.3497 13.8166 20.6135 13.8166 19.2024C13.8166 18.5889 13.4498 18.0368 12.7775 17.6073C12.1051 17.1779 10.9438 16.7485 9.35456 16.319C6.78737 15.7055 4.70919 14.8466 3.24222 13.865C1.46962 12.6994 0.61392 10.9202 0.61392 8.4049C0.61392 5.95091 1.40852 3.92638 3.05886 2.39263C4.70919 0.797538 7.09298 0 10.1492 0C13.2053 0 15.6503 0.736204 17.5451 2.26995C19.3177 3.92638 20.2345 6.01226 20.2956 8.71164L20.2956 8.71164Z" transform="translate(143.33176 0.06137085)" id="S" fill="#2D86FE" fill-rule="evenodd" stroke="none" />
      <path d="M26.7109 0L16.7478 16.7485L16.7478 26.4417L9.96309 26.4417L9.96309 16.7485L0 0L7.88492 0L13.386 9.93866L18.8871 0L26.7109 0L26.7109 0Z" transform="translate(164.48312 0.552124)" id="Y" fill="#2D86FE" fill-rule="evenodd" stroke="none" />
      <path d="M0 0L15.0363 12.8834L15.0363 0.552143L21.821 0.552143L21.821 27.4846L6.78467 14.6626L6.78467 26.9939L0 26.9939L0 0L0 0Z" transform="translate(192.66086 0)" id="N" fill="#2D86FE" fill-rule="evenodd" stroke="none" />
      <path d="M23.2269 0L23.2269 6.01226L15.0363 6.01226L15.0363 26.3804L8.25165 26.3804L8.25165 6.01226L0 6.01226L0 0L23.2269 0L23.2269 0Z" transform="translate(216.31558 0.552124)" id="T" fill="#2D86FE" fill-rule="evenodd" stroke="none" />
      <path d="M22.3711 0L22.3711 26.3804L15.5865 26.3804L15.5865 15.9509L6.78468 15.9509L6.78468 26.3804L0 26.3804L0 0L6.78468 0L6.78468 9.93866L15.5865 9.93866L15.5865 0L22.3711 0L22.3711 0Z" transform="translate(241.37625 0.552124)" id="H" fill="#2D86FE" fill-rule="evenodd" stroke="none" />
      <path d="M17.2368 0.0613721L17.2368 6.07363L6.78471 6.07363L6.78471 10L15.7087 10L15.7087 15.8896L6.78471 15.8896L6.78471 20.3681L17.2368 20.3681L17.2368 26.3804L0 26.3804L0 0L17.2368 0L17.2368 0.0613721Z" transform="translate(267.23126 0.49079895)" id="E" fill="#2D86FE" fill-rule="evenodd" stroke="none" />
      <path d="M20.2956 8.71164L13.3887 9.07975C13.3887 8.1595 13.0831 7.4233 12.5329 6.87115C11.9828 6.31901 11.1882 6.07362 10.2103 6.07362C9.35452 6.07362 8.68218 6.25766 8.1932 6.68711C7.70422 7.11657 7.45971 7.66871 7.45971 8.4049C7.45971 9.07975 7.76533 9.57054 8.31545 9.93864C8.92669 10.2454 10.088 10.6748 11.7995 11.0429C14.8557 11.8405 17.1172 12.8834 18.5231 14.0491C19.9289 15.2147 20.6624 16.8711 20.6624 18.957C20.6624 21.7178 19.7455 23.8036 17.9118 25.2147C16.017 26.6257 13.6943 27.3006 10.8215 27.3006C7.582 27.3006 4.9537 26.5031 2.9366 24.9693C0.919537 23.3742 -0.0584597 21.1656 0.00268609 18.3436L6.90962 17.9754C6.90962 19.0184 7.21524 19.8159 8.00984 20.4294C8.74332 21.0429 9.72128 21.3497 10.8826 21.3497C12.8386 21.3497 13.8166 20.6135 13.8166 19.2024C13.8166 18.5889 13.4498 18.0368 12.7775 17.6073C12.1051 17.1779 10.9438 16.7485 9.35456 16.319C6.78737 15.7055 4.70919 14.8466 3.24222 13.865C1.46962 12.6994 0.61392 10.9202 0.61392 8.4049C0.61392 5.95091 1.40852 3.92638 3.05886 2.39263C4.70919 0.797538 7.09298 0 10.1492 0C13.2053 0 15.6503 0.736204 17.5451 2.26995C19.3176 3.92638 20.2956 6.01226 20.2956 8.71164L20.2956 8.71164Z" transform="translate(286.6048 0.06137085)" id="S" fill="#2D86FE" fill-rule="evenodd" stroke="none" />
      <path d="M6.7847 0L6.7847 26.3804L0 26.3804L0 0L6.7847 0L6.7847 0Z" transform="translate(309.8343 0.552124)" id="I" fill="#2D86FE" fill-rule="evenodd" stroke="none" />
      <path d="M20.2319 0L10.2076 20.3681L20.1096 20.3681L20.1096 26.3804L0 26.3804L10.0243 6.01226L0.366763 6.01226L0.366763 0L20.2319 0L20.2319 0Z" transform="translate(318.63605 0.552124)" id="Z" fill="#2D86FE" fill-rule="evenodd" stroke="none" />
      <path d="M17.2979 0.0613721L17.2979 6.07363L6.84583 6.07363L6.84583 10L15.7698 10L15.7698 15.8896L6.84583 15.8896L6.84583 20.3681L17.2979 20.3681L17.2979 26.3804L0 26.3804L0 0L17.2979 0L17.2979 0.0613721Z" transform="translate(341.0683 0.49079895)" id="E" fill="#2D86FE" fill-rule="evenodd" stroke="none" />
      <path d="M22.0044 26.3804L14.364 26.3804L9.65749 17.546L6.78468 17.546L6.78468 26.3804L0 26.3804L0 0L11.9191 0C14.6085 0 16.7478 0.797538 18.337 2.33128C19.9262 3.92638 20.7208 6.07361 20.7208 8.773C20.7208 12.3926 19.3761 14.908 16.8089 16.3804L22.0044 26.3804L22.0044 26.3804ZM6.78467 5.95093L6.78467 11.4724L11.0633 11.4724C11.919 11.4724 12.5914 11.227 13.0193 10.7362C13.5082 10.2454 13.6916 9.57056 13.6916 8.71166C13.6916 7.85277 13.4471 7.17792 13.0193 6.68713C12.5303 6.19634 11.919 5.95093 11.0633 5.95093L6.78467 5.95093L6.78467 5.95093Z" transform="translate(361.36127 0.6134949)" id="R" fill="#2D86FE" fill-rule="evenodd" stroke="none" />
    </g>
  </g>
</svg>