<svg width="11" height="22" viewBox="0 0 11 22" fill="none" xmlns="http://www.w3.org/2000/svg">
<path d="M0.5 13.5C0.5 12.3954 1.39543 11.5 2.5 11.5H8.5C9.60457 11.5 10.5 12.3954 10.5 13.5V19.5C10.5 20.6046 9.60457 21.5 8.5 21.5H2.5C1.39543 21.5 0.5 20.6046 0.5 19.5V13.5Z" fill="#242424"/>
<rect x="2.5" y="13.5" width="6" height="6" rx="1" fill="#FF9000"/>
<rect x="2.5" y="13.5" width="6" height="6" rx="1" stroke="#FF9000"/>
<path d="M2.5 12H8.5V11H2.5V12ZM10 13.5V19.5H11V13.5H10ZM8.5 21H2.5V22H8.5V21ZM1 19.5V13.5H0V19.5H1ZM2.5 21C1.67157 21 1 20.3284 1 19.5H0C0 20.8807 1.11929 22 2.5 22V21ZM10 19.5C10 20.3284 9.32843 21 8.5 21V22C9.88071 22 11 20.8807 11 19.5H10ZM8.5 12C9.32843 12 10 12.6716 10 13.5H11C11 12.1193 9.88071 11 8.5 11V12ZM2.5 11C1.11929 11 0 12.1193 0 13.5H1C1 12.6716 1.67157 12 2.5 12V11Z" fill="black"/>
<path fill-rule="evenodd" clip-rule="evenodd" d="M5 21L5 12L6 12L6 21L5 21Z" fill="#B06D34"/>
<path fill-rule="evenodd" clip-rule="evenodd" d="M1 16H10V17H1V16Z" fill="#B06D34"/>
<path d="M9 14.5C7.677 14.5 7.0155 14.5 7.0155 14.5C5.5 14.5 5.5 18.5 4.00476 18.5C4.00476 18.5 3.33651 18.5 2 18.5" stroke="black"/>
<path d="M0.5 2.5C0.5 1.39543 1.39543 0.5 2.5 0.5H8.5C9.60457 0.5 10.5 1.39543 10.5 2.5V8.5C10.5 9.60457 9.60457 10.5 8.5 10.5H2.5C1.39543 10.5 0.5 9.60457 0.5 8.5V2.5Z" fill="#242424"/>
<path d="M2.5 1H8.5V0H2.5V1ZM10 2.5V8.5H11V2.5H10ZM8.5 10H2.5V11H8.5V10ZM1 8.5V2.5H0V8.5H1ZM2.5 10C1.67157 10 1 9.32843 1 8.5H0C0 9.88071 1.11929 11 2.5 11V10ZM10 8.5C10 9.32843 9.32843 10 8.5 10V11C9.88071 11 11 9.88071 11 8.5H10ZM8.5 1C9.32843 1 10 1.67157 10 2.5H11C11 1.11929 9.88071 0 8.5 0V1ZM2.5 0C1.11929 0 0 1.11929 0 2.5H1C1 1.67157 1.67157 1 2.5 1V0Z" fill="black"/>
<path fill-rule="evenodd" clip-rule="evenodd" d="M5 10L5 1L6 1L6 10L5 10Z" fill="#B06D34"/>
<path fill-rule="evenodd" clip-rule="evenodd" d="M1 5H10V6H1V5Z" fill="#B06D34"/>
<path d="M9 3.5C7.677 3.5 7.0155 3.5 7.0155 3.5C5.5 3.5 5.5 7.5 4.00476 7.5C4.00476 7.5 3.33651 7.5 2 7.5" stroke="#B4B4B4"/>
</svg>
