<?xml version="1.0" encoding="utf-8"?>
<svg width="12px" height="128px" viewBox="0 0 12 128" version="1.1" xmlns:xlink="http://www.w3.org/1999/xlink" xmlns="http://www.w3.org/2000/svg">
  <desc>Created with Lunacy</desc>
  <defs>
    <linearGradient x1="50%" y1="0%" x2="50%" y2="100%" id="gradient_1">
      <stop offset="0%" stop-color="#FFFFFF" />
      <stop offset="100%" stop-color="#D1D1D1" />
    </linearGradient>
    <rect width="12" height="128" id="artboard_1" />
    <clipPath id="clip_1">
      <use xlink:href="#artboard_1" clip-rule="evenodd" />
    </clipPath>
  </defs>
  <g id="bmp00160" clip-path="url(#clip_1)">
    <g id="Backgrounds" transform="translate(0 20)">
      <g id="Group-6" transform="translate(0 90)">
        <path d="M0 2L0 1C0 0.723858 0.0976311 0.488155 0.292893 0.292893C0.488155 0.0976311 0.723858 0 1 0L10 0C10.2761 0 10.5118 0.0976311 10.7071 0.292893C10.9024 0.488155 11 0.723858 11 1L11 10C11 10.2761 10.9024 10.5118 10.7071 10.7071C10.5118 10.9024 10.2761 11 10 11L1 11C0.723858 11 0.488155 10.9024 0.292893 10.7071C0.0976311 10.5118 0 10.2761 0 10L0 2Z" id="Rectangle#2" fill="url(#gradient_1)" stroke="none" />
      </g>
      <g id="Group-5" transform="translate(0 72)">
        <path d="M0 2L0 1C0 0.723858 0.0976311 0.488155 0.292893 0.292893C0.488155 0.0976311 0.723858 0 1 0L10 0C10.2761 0 10.5118 0.0976311 10.7071 0.292893C10.9024 0.488155 11 0.723858 11 1L11 10C11 10.2761 10.9024 10.5118 10.7071 10.7071C10.5118 10.9024 10.2761 11 10 11L1 11C0.723858 11 0.488155 10.9024 0.292893 10.7071C0.0976311 10.5118 0 10.2761 0 10L0 2Z" id="Rectangle#2" fill="url(#gradient_1)" stroke="none" />
      </g>
      <g id="Group-4" transform="translate(0 54)">
        <path d="M0 2L0 1C0 0.723858 0.0976311 0.488155 0.292893 0.292893C0.488155 0.0976311 0.723858 0 1 0L10 0C10.2761 0 10.5118 0.0976311 10.7071 0.292893C10.9024 0.488155 11 0.723858 11 1L11 10C11 10.2761 10.9024 10.5118 10.7071 10.7071C10.5118 10.9024 10.2761 11 10 11L1 11C0.723858 11 0.488155 10.9024 0.292893 10.7071C0.0976311 10.5118 0 10.2761 0 10L0 2Z" id="Rectangle#3" fill="url(#gradient_1)" stroke="none" />
      </g>
      <g id="Group-3" transform="translate(0 36)">
        <path d="M0 2L0 1C0 0.723858 0.0976311 0.488155 0.292893 0.292893C0.488155 0.0976311 0.723858 0 1 0L10 0C10.2761 0 10.5118 0.0976311 10.7071 0.292893C10.9024 0.488155 11 0.723858 11 1L11 10C11 10.2761 10.9024 10.5118 10.7071 10.7071C10.5118 10.9024 10.2761 11 10 11L1 11C0.723858 11 0.488155 10.9024 0.292893 10.7071C0.0976311 10.5118 0 10.2761 0 10L0 2Z" id="Rectangle#4" fill="url(#gradient_1)" stroke="none" />
      </g>
      <g id="Group-2" transform="translate(0 18)">
        <path d="M0 2L0 1C0 0.723858 0.0976311 0.488155 0.292893 0.292893C0.488155 0.0976311 0.723858 0 1 0L10 0C10.2761 0 10.5118 0.0976311 10.7071 0.292893C10.9024 0.488155 11 0.723858 11 1L11 10C11 10.2761 10.9024 10.5118 10.7071 10.7071C10.5118 10.9024 10.2761 11 10 11L1 11C0.723858 11 0.488155 10.9024 0.292893 10.7071C0.0976311 10.5118 0 10.2761 0 10L0 2Z" id="Rectangle#1" fill="url(#gradient_1)" stroke="none" />
      </g>
      <g id="Group-1">
        <path d="M0 2L0 1C0 0.723858 0.0976311 0.488155 0.292893 0.292893C0.488155 0.0976311 0.723858 0 1 0L10 0C10.2761 0 10.5118 0.0976311 10.7071 0.292893C10.9024 0.488155 11 0.723858 11 1L11 10C11 10.2761 10.9024 10.5118 10.7071 10.7071C10.5118 10.9024 10.2761 11 10 11L1 11C0.723858 11 0.488155 10.9024 0.292893 10.7071C0.0976311 10.5118 0 10.2761 0 10L0 2Z" id="Rectangle" fill="url(#gradient_1)" stroke="none" />
      </g>
    </g>
    <g id="Text" transform="translate(3.020996 22.897)">
      <path d="M2.177 1.869Q1.876 1.869 1.631 1.96L1.764 1.806L3.276 0L2.31 0Q2.114 0 1.96175 0.0734997Q1.8095 0.147 1.729 0.2485L0.581 1.799Q0 2.576 0 3.3285C0 3.59683 0.0414166 3.843 0.12425 4.067Q0.2485 4.403 0.48475 4.6445C0.64225 4.8055 0.834167 4.93092 1.0605 5.02075C1.28683 5.11058 1.54233 5.1555 1.827 5.1555Q2.2435 5.1555 2.5865 5.0155C2.81517 4.92217 3.01058 4.79558 3.17275 4.63575C3.33492 4.47592 3.46033 4.28925 3.549 4.07575Q3.682 3.7555 3.682 3.3985Q3.682 3.0065 3.55075 2.71775Q3.4195 2.429 3.206 2.24Q2.9925 2.051 2.723 1.96C2.54333 1.89933 2.36133 1.869 2.177 1.869ZM2.11925 4.235Q1.974 4.298 1.806 4.298Q1.61 4.298 1.4665 4.24025C1.37083 4.20175 1.2915 4.14633 1.2285 4.074Q1.134 3.9655 1.0885 3.815C1.05817 3.71467 1.043 3.6015 1.043 3.4755C1.043 3.3495 1.06167 3.23633 1.099 3.136C1.13633 3.03567 1.18825 2.94933 1.25475 2.877C1.32125 2.80467 1.4 2.74925 1.491 2.71075C1.582 2.67225 1.68233 2.653 1.792 2.653Q1.974 2.653 2.12275 2.709C2.22192 2.74633 2.3065 2.8 2.3765 2.87Q2.4815 2.975 2.53925 3.129C2.57775 3.23167 2.597 3.34833 2.597 3.479C2.597 3.59567 2.57658 3.70358 2.53575 3.80275C2.49492 3.90192 2.4395 3.98825 2.3695 4.06175C2.2995 4.13525 2.21608 4.193 2.11925 4.235Z" transform="translate(0.1360016 90.00323)" id="6" fill="#1E1E1E" fill-rule="evenodd" stroke="none" />
      <path d="M1.568 5.1555C1.85267 5.1555 2.11458 5.11059 2.35375 5.02075C2.59292 4.93092 2.79883 4.80434 2.9715 4.641C3.14417 4.47767 3.27892 4.28342 3.37575 4.05825C3.47258 3.83308 3.521 3.584 3.521 3.311C3.521 3.094 3.48542 2.89042 3.41425 2.70026C3.34308 2.51009 3.2375 2.34442 3.0975 2.20325C2.9575 2.06209 2.78483 1.95067 2.5795 1.869C2.37417 1.78734 2.13733 1.74651 1.869 1.74651C1.785 1.74651 1.69867 1.75059 1.61 1.75875C1.52133 1.76692 1.42917 1.77917 1.3335 1.7955L1.3335 1.7955L1.477 0.952003L2.695 0.952003C2.80933 0.952003 2.90733 0.939751 2.989 0.915253C3.07067 0.890755 3.13658 0.855751 3.18675 0.810249C3.23692 0.764755 3.27367 0.71167 3.297 0.651001C3.32033 0.59034 3.332 0.522667 3.332 0.448006L3.332 0.448006L3.332 0L0.721 0L0.287 2.55151L0.959 2.73351C1.17833 2.64717 1.40233 2.604 1.631 2.604C1.88767 2.604 2.086 2.66875 2.226 2.79826C2.366 2.92775 2.436 3.11617 2.436 3.3635C2.436 3.4895 2.42142 3.60792 2.39225 3.71875C2.36308 3.82958 2.31642 3.92642 2.25225 4.00925C2.18808 4.09209 2.10467 4.15742 2.002 4.20525C1.89933 4.25308 1.77567 4.277 1.631 4.277C1.48633 4.277 1.365 4.25834 1.267 4.221C1.169 4.18367 1.08325 4.14225 1.00975 4.09676C0.93625 4.05125 0.868583 4.00925 0.80675 3.97075C0.744917 3.93225 0.679 3.913 0.609 3.913C0.555333 3.913 0.505167 3.92526 0.4585 3.94975C0.411833 3.97425 0.371 4.00983 0.336 4.0565L0.336 4.0565L0 4.5045C0.091 4.59317 0.1925 4.67658 0.3045 4.75475C0.4165 4.83292 0.538417 4.90176 0.67025 4.96125C0.802083 5.02075 0.94325 5.068 1.09375 5.103C1.24425 5.138 1.40233 5.1555 1.568 5.1555L1.568 5.1555Z" transform="translate(0.1399994 72.00349)" id="5" fill="#1E1E1E" stroke="none" />
      <path d="M3.395 3.927L3.395 5.0995L2.45 5.0995L2.45 3.927L0.399 3.927Q0.2975 3.927 0.21525 3.864C0.160417 3.822 0.126 3.7695 0.112 3.7065L0 3.171L2.359 0L3.395 0L3.395 3.1185L3.92 3.1185L3.92 3.7275C3.92 3.78117 3.90192 3.82783 3.86575 3.8675Q3.8115 3.927 3.71 3.927L3.395 3.927ZM1.1375 3.1185L2.45 3.1185L2.45 1.78849C2.45 1.70683 2.45291 1.61874 2.45875 1.52425C2.46458 1.42974 2.47333 1.33233 2.485 1.23199L1.1375 3.1185Z" transform="translate(0 54.00349)" id="4" fill="#1E1E1E" fill-rule="evenodd" stroke="none" />
      <path d="M1.827 5.2115C2.06267 5.2115 2.289 5.17825 2.506 5.11175C2.723 5.04525 2.91375 4.9455 3.07825 4.8125C3.24275 4.6795 3.374 4.51266 3.472 4.312C3.57 4.11133 3.619 3.87566 3.619 3.605C3.619 3.03333 3.33667 2.6495 2.772 2.4535C2.89333 2.4115 3.00125 2.359 3.09575 2.296C3.19025 2.233 3.26958 2.15658 3.33375 2.06675C3.39792 1.97691 3.44633 1.87075 3.479 1.74825C3.51167 1.62575 3.528 1.484 3.528 1.323C3.528 1.14566 3.493 0.977081 3.423 0.817249C3.353 0.657413 3.25033 0.51683 3.115 0.3955C2.97967 0.274166 2.814 0.177914 2.618 0.106747C2.422 0.0355835 2.198 0 1.946 0C1.71267 0 1.4945 0.0309143 1.2915 0.0927467C1.0885 0.154583 0.90825 0.248497 0.75075 0.3745C0.59325 0.5005 0.461417 0.657997 0.35525 0.847C0.249083 1.036 0.177333 1.25766 0.14 1.512L0.14 1.512L0.714 1.6135C0.742 1.61816 0.769417 1.62167 0.79625 1.624C0.823083 1.62633 0.848167 1.6275 0.8715 1.6275C0.9695 1.6275 1.04708 1.60416 1.10425 1.5575C1.16142 1.51083 1.20867 1.435 1.246 1.33C1.26933 1.267 1.30025 1.20866 1.33875 1.155C1.37725 1.10133 1.42333 1.05466 1.477 1.015C1.53067 0.97533 1.59133 0.943832 1.659 0.920498C1.72667 0.897163 1.80133 0.885498 1.883 0.885498C2.08133 0.885498 2.22892 0.939747 2.32575 1.04825C2.42258 1.15675 2.471 1.31133 2.471 1.512C2.471 1.61 2.45933 1.69983 2.436 1.7815C2.41267 1.86317 2.36542 1.93258 2.29425 1.98975C2.22308 2.04692 2.12217 2.09183 1.9915 2.1245C1.86083 2.15717 1.68933 2.1735 1.477 2.1735L1.477 2.1735L1.477 2.9225C1.729 2.9225 1.92558 2.93941 2.06675 2.97325C2.20792 3.00708 2.3135 3.0555 2.3835 3.1185C2.4535 3.1815 2.49608 3.25675 2.51125 3.34425C2.52642 3.43175 2.534 3.53033 2.534 3.64C2.534 3.724 2.51883 3.80683 2.4885 3.8885C2.45817 3.97017 2.41325 4.04308 2.35375 4.10725C2.29425 4.17141 2.21958 4.22392 2.12975 4.26475C2.03992 4.30558 1.93433 4.326 1.813 4.326C1.65433 4.326 1.51608 4.28225 1.39825 4.19475C1.28042 4.10725 1.169 3.96666 1.064 3.773C1.03367 3.717 0.98875 3.67442 0.92925 3.64525C0.86975 3.61608 0.802667 3.6015 0.728 3.6015C0.688333 3.6015 0.648083 3.605 0.60725 3.612C0.566417 3.619 0.525 3.63183 0.483 3.6505L0.483 3.6505L0 3.8465C0.0816667 4.0845 0.177917 4.28983 0.28875 4.4625C0.399583 4.63517 0.5285 4.77692 0.6755 4.88775C0.8225 4.99858 0.9905 5.08025 1.1795 5.13275C1.3685 5.18525 1.58433 5.2115 1.827 5.2115L1.827 5.2115Z" transform="translate(0.2380066 35.94751)" id="3" fill="#1E1E1E" stroke="none" />
      <path d="M3.584 5.1555L3.584 4.5255C3.584 4.4205 3.55017 4.33592 3.4825 4.27175C3.41483 4.20758 3.32267 4.1755 3.206 4.1755L3.206 4.1755L2.254 4.1755C2.14433 4.1755 2.02708 4.18658 1.90225 4.20875C1.77742 4.23092 1.65083 4.26067 1.5225 4.298L1.5225 4.298L2.52 3.276C2.65533 3.13833 2.78308 3.00242 2.90325 2.86825C3.02342 2.73408 3.129 2.59525 3.22 2.45175C3.311 2.30825 3.38275 2.15717 3.43525 1.9985C3.48775 1.83983 3.514 1.66717 3.514 1.4805C3.514 1.2635 3.47608 1.06458 3.40025 0.883751C3.32442 0.702917 3.21533 0.547167 3.073 0.4165C2.93067 0.285833 2.75858 0.18375 2.55675 0.11025C2.35492 0.0367508 2.128 0 1.876 0C1.64267 0 1.4245 0.0309162 1.2215 0.0927505C1.0185 0.154583 0.83825 0.248501 0.68075 0.3745C0.52325 0.5005 0.391417 0.658001 0.28525 0.847C0.179083 1.036 0.107333 1.25767 0.07 1.512L0.07 1.512L0.644 1.6135C0.672 1.61817 0.699417 1.62167 0.72625 1.624C0.753083 1.62633 0.778167 1.6275 0.8015 1.6275C0.8995 1.6275 0.977083 1.60417 1.03425 1.5575C1.09142 1.51083 1.13867 1.435 1.176 1.33C1.19933 1.267 1.23025 1.20867 1.26875 1.155C1.30725 1.10133 1.35333 1.05467 1.407 1.015C1.46067 0.975334 1.52133 0.943834 1.589 0.9205C1.65667 0.897167 1.73133 0.8855 1.813 0.8855C2.01133 0.8855 2.15892 0.939751 2.25575 1.04825C2.35258 1.15675 2.401 1.3125 2.401 1.5155C2.401 1.63917 2.38583 1.75642 2.3555 1.86725C2.32517 1.97808 2.27967 2.08892 2.219 2.19975C2.15833 2.31058 2.08133 2.42317 1.988 2.5375C1.89467 2.65183 1.785 2.772 1.659 2.898L1.659 2.898L0.189 4.3785C0.119 4.4415 0.07 4.5115 0.042 4.5885C0.014 4.6655 0 4.73783 0 4.8055L0 4.8055L0 5.1555L3.584 5.1555L3.584 5.1555Z" transform="translate(0.2100067 17.94749)" id="2" fill="#1E1E1E" stroke="none" />
      <path d="M3.325 5.103L3.325 4.319L2.485 4.319L2.485 0L1.589 0L0 1.3335L0.343 1.7885C0.366333 1.81883 0.401917 1.84742 0.44975 1.87425C0.497583 1.90108 0.551833 1.9145 0.6125 1.9145C0.6475 1.9145 0.683667 1.90808 0.721 1.89525C0.758333 1.88242 0.795667 1.86083 0.833 1.8305L0.833 1.8305L1.4105 1.351C1.4035 1.48867 1.4 1.6205 1.4 1.7465L1.4 1.7465L1.4 4.319L0.42 4.319L0.42 5.103L3.325 5.103L3.325 5.103Z" transform="translate(0.4409943 0)" id="1" fill="#1E1E1E" stroke="none" />
    </g>
  </g>
</svg>