<?xml version="1.0" encoding="utf-8"?>
<svg width="13px" height="52px" viewBox="0 0 13 52" version="1.1" xmlns:xlink="http://www.w3.org/1999/xlink" xmlns="http://www.w3.org/2000/svg">
  <defs>
    <rect width="13" height="52" id="artboard_1" />
    <clipPath id="clip_1">
      <use xlink:href="#artboard_1" clip-rule="evenodd" />
    </clipPath>
  </defs>
  <g id="bmp00186" clip-path="url(#clip_1)">
    <path d="M12.2 4.33504C12.2 2.59771 10.7766 1.19 9.02188 1.19C7.95637 1.19 7.01692 1.70992 6.44 2.50574C5.86308 1.70992 4.92271 1.19 3.85812 1.19C2.10344 1.19 0.68 2.59771 0.68 4.33504C0.68 4.58088 0.712204 4.81945 0.765572 5.04891C1.20723 7.76143 4.25562 10.6242 6.44 11.41C8.62438 10.6242 11.6728 7.76143 12.1135 5.04891C12.1678 4.81945 12.2 4.58088 12.2 4.33504L12.2 4.33504Z" id="Shape" fill="#000000" fill-opacity="0" fill-rule="evenodd" stroke="#FF9000" stroke-width="1" />
    <path d="M12.1 17.335C12.1 15.5977 10.6766 14.19 8.92188 14.19C7.85637 14.19 6.91692 14.7099 6.34 15.5057C5.76308 14.7099 4.82271 14.19 3.75812 14.19C2.00344 14.19 0.58 15.5977 0.58 17.335C0.58 17.5809 0.612204 17.8194 0.665572 18.0489C1.10723 20.7614 4.15562 23.6242 6.34 24.41C8.52438 23.6242 11.5728 20.7614 12.0135 18.0489C12.0678 17.8194 12.1 17.5809 12.1 17.335L12.1 17.335Z" id="Shape" fill="#FFAAAA" fill-rule="evenodd" stroke="#FF9000" stroke-width="1" />
    <path d="M12.2 30.335C12.2 28.5977 10.7766 27.19 9.02188 27.19C7.95637 27.19 7.01692 27.7099 6.44 28.5057C5.86308 27.7099 4.92271 27.19 3.85812 27.19C2.10344 27.19 0.68 28.5977 0.68 30.335C0.68 30.5809 0.712204 30.8194 0.765572 31.0489C1.20723 33.7614 4.25562 36.6242 6.44 37.41C8.62438 36.6242 11.6728 33.7614 12.1135 31.0489C12.1678 30.8194 12.2 30.5809 12.2 30.335L12.2 30.335Z" id="Shape" fill="#DD2E44" fill-rule="evenodd" stroke="#FF3377" stroke-width="1" />
    <path d="M12.2 43.335C12.2 41.5977 10.7766 40.19 9.02188 40.19C7.95637 40.19 7.01692 40.7099 6.44 41.5057C5.86308 40.7099 4.92271 40.19 3.85812 40.19C2.10344 40.19 0.68 41.5977 0.68 43.335C0.68 43.5809 0.712204 43.8194 0.765572 44.0489C1.20723 46.7614 4.25562 49.6242 6.44 50.41C8.62438 49.6242 11.6728 46.7614 12.1135 44.0489C12.1678 43.8194 12.2 43.5809 12.2 43.335L12.2 43.335Z" id="Shape" fill="#DD2E44" fill-rule="evenodd" stroke="#FF9000" stroke-width="1" />
  </g>
</svg>