<?xml version="1.0" encoding="UTF-8"?>
<svg width="22px" height="30px" viewBox="0 0 22 30" version="1.1" xmlns="http://www.w3.org/2000/svg" xmlns:xlink="http://www.w3.org/1999/xlink">
    <!-- Generator: Sketch 63.1 (92452) - https://sketch.com -->
    <title>bmp00134</title>
    <desc>Created with Sketch.</desc>
    <g id="bmp00134" stroke="none" stroke-width="1" fill="none" fill-rule="evenodd">
        <g id="Group-3" transform="translate(4.000000, 4.000000)" fill="#FFFFFF">
            <g id="Group">
                <rect id="Rectangle" fill-opacity="0.48" x="0" y="0" width="14" height="7"></rect>
                <rect id="Rectangle" fill-opacity="0.423299" x="0" y="0" width="14" height="1"></rect>
                <rect id="Rectangle" fill-opacity="0.423299" x="0" y="6" width="14" height="1"></rect>
            </g>
        </g>
        <g id="Group-3" transform="translate(4.000000, 19.000000)">
            <g id="Group">
                <rect id="Rectangle" fill="#0055A7" x="0" y="0" width="14" height="7"></rect>
                <rect id="Rectangle" fill-opacity="0.423299" fill="#FFFFFF" x="0" y="0" width="14" height="1"></rect>
                <rect id="Rectangle" fill-opacity="0.423299" fill="#FFFFFF" x="0" y="6" width="14" height="1"></rect>
            </g>
        </g>
        <g id="Group-2-Copy" transform="translate(8.000000, 3.000000)" fill-rule="nonzero">
            <path d="M1.41075,7 L1.41075,4.17175 C1.41075,4.1065 1.4085,4.0350625 1.404,3.9574375 C1.3995,3.8798125 1.39275,3.801625 1.38375,3.722875 L1.38375,3.722875 L2.69325,6.254125 C2.73375,6.332875 2.7883125,6.3925 2.8569375,6.433 C2.9255625,6.4735 3.00375,6.49375 3.0915,6.49375 L3.0915,6.49375 L3.24675,6.49375 C3.3345,6.49375 3.4126875,6.4735 3.4813125,6.433 C3.5499375,6.3925 3.6045,6.332875 3.645,6.254125 L3.645,6.254125 L4.94775,3.72625 C4.93425,3.886 4.9275,4.0345 4.9275,4.17175 L4.9275,4.17175 L4.9275,7 L5.93325,7 L5.93325,2.082625 L5.0625,2.082625 C5.013,2.082625 4.9696875,2.08375 4.9325625,2.086 C4.8954375,2.08825 4.86225,2.095 4.833,2.10625 C4.80375,2.1175 4.7773125,2.1349375 4.7536875,2.1585625 C4.7300625,2.1821875 4.707,2.215375 4.6845,2.258125 L4.6845,2.258125 L3.42225,4.742125 C3.37725,4.829875 3.333375,4.9204375 3.290625,5.0138125 C3.247875,5.1071875 3.207375,5.203375 3.169125,5.302375 C3.130875,5.205625 3.0909375,5.111125 3.0493125,5.018875 C3.0076875,4.926625 2.964375,4.83775 2.919375,4.75225 L2.919375,4.75225 L1.65375,2.258125 C1.63125,2.215375 1.6081875,2.1821875 1.5845625,2.1585625 C1.5609375,2.1349375 1.5345,2.1175 1.50525,2.10625 C1.476,2.095 1.4428125,2.08825 1.4056875,2.086 C1.3685625,2.08375 1.32525,2.082625 1.27575,2.082625 L1.27575,2.082625 L0.405,2.082625 L0.405,7 L1.41075,7 Z" id="M" fill="#525355"></path>
            <path d="M1.41075,22 L1.41075,19.17175 C1.41075,19.1065 1.4085,19.0350625 1.404,18.9574375 C1.3995,18.8798125 1.39275,18.801625 1.38375,18.722875 L1.38375,18.722875 L2.69325,21.254125 C2.73375,21.332875 2.7883125,21.3925 2.8569375,21.433 C2.9255625,21.4735 3.00375,21.49375 3.0915,21.49375 L3.0915,21.49375 L3.24675,21.49375 C3.3345,21.49375 3.4126875,21.4735 3.4813125,21.433 C3.5499375,21.3925 3.6045,21.332875 3.645,21.254125 L3.645,21.254125 L4.94775,18.72625 C4.93425,18.886 4.9275,19.0345 4.9275,19.17175 L4.9275,19.17175 L4.9275,22 L5.93325,22 L5.93325,17.082625 L5.0625,17.082625 C5.013,17.082625 4.9696875,17.08375 4.9325625,17.086 C4.8954375,17.08825 4.86225,17.095 4.833,17.10625 C4.80375,17.1175 4.7773125,17.1349375 4.7536875,17.1585625 C4.7300625,17.1821875 4.707,17.215375 4.6845,17.258125 L4.6845,17.258125 L3.42225,19.742125 C3.37725,19.829875 3.333375,19.9204375 3.290625,20.0138125 C3.247875,20.1071875 3.207375,20.203375 3.169125,20.302375 C3.130875,20.205625 3.0909375,20.111125 3.0493125,20.018875 C3.0076875,19.926625 2.964375,19.83775 2.919375,19.75225 L2.919375,19.75225 L1.65375,17.258125 C1.63125,17.215375 1.6081875,17.1821875 1.5845625,17.1585625 C1.5609375,17.1349375 1.5345,17.1175 1.50525,17.10625 C1.476,17.095 1.4428125,17.08825 1.4056875,17.086 C1.3685625,17.08375 1.32525,17.082625 1.27575,17.082625 L1.27575,17.082625 L0.405,17.082625 L0.405,22 L1.41075,22 Z" id="M" fill="#FFFFFF"></path>
        </g>
    </g>
</svg>