<svg width="135" height="36" viewBox="0 0 135 36" fill="none" xmlns="http://www.w3.org/2000/svg">
<path d="M0.5 2.5C0.5 1.39543 1.39543 0.5 2.5 0.5H132.5C133.605 0.5 134.5 1.39543 134.5 2.5V9.5C134.5 10.6046 133.605 11.5 132.5 11.5H2.5C1.39543 11.5 0.5 10.6046 0.5 9.5V2.5Z" fill="#242424"/>
<rect x="2.5" y="2.5" width="42" height="7" rx="1" fill="#FF9000"/>
<rect x="2.5" y="2.5" width="42" height="7" rx="1" stroke="#FF9000"/>
<path d="M21.1879 3.172L19.3879 9H18.1639L17.0679 5.388C17.0466 5.332 17.0266 5.27067 17.0079 5.204C16.9892 5.13467 16.9706 5.06267 16.9519 4.988C16.9332 5.06267 16.9146 5.13467 16.8959 5.204C16.8772 5.27067 16.8572 5.332 16.8359 5.388L15.7239 9H14.4999L12.6999 3.172H13.8359C13.9532 3.172 14.0506 3.19867 14.1279 3.252C14.2079 3.30533 14.2599 3.376 14.2839 3.464L15.0839 6.504C15.1079 6.6 15.1319 6.70533 15.1559 6.82C15.1799 6.932 15.2039 7.04933 15.2279 7.172C15.2759 6.92133 15.3346 6.69867 15.4039 6.504L16.3479 3.464C16.3719 3.38933 16.4226 3.32267 16.4999 3.264C16.5799 3.20267 16.6759 3.172 16.7879 3.172H17.1879C17.3052 3.172 17.3999 3.2 17.4719 3.256C17.5439 3.30933 17.5986 3.37867 17.6359 3.464L18.5719 6.504C18.6412 6.69067 18.6999 6.90267 18.7479 7.14C18.7692 7.02 18.7906 6.908 18.8119 6.804C18.8359 6.69733 18.8599 6.59733 18.8839 6.504L19.6839 3.464C19.7052 3.38667 19.7559 3.31867 19.8359 3.26C19.9159 3.20133 20.0119 3.172 20.1239 3.172H21.1879ZM23.1161 7.312C22.8681 7.32267 22.6641 7.344 22.5041 7.376C22.3441 7.408 22.2174 7.448 22.1241 7.496C22.0308 7.544 21.9654 7.59867 21.9281 7.66C21.8934 7.72133 21.8761 7.788 21.8761 7.86C21.8761 8.00133 21.9148 8.10133 21.9921 8.16C22.0694 8.216 22.1828 8.244 22.3321 8.244C22.4921 8.244 22.6321 8.216 22.7521 8.16C22.8721 8.104 22.9934 8.01333 23.1161 7.888V7.312ZM20.8841 5.428C21.1348 5.20667 21.4121 5.04267 21.7161 4.936C22.0228 4.82667 22.3508 4.772 22.7001 4.772C22.9508 4.772 23.1761 4.81333 23.3761 4.896C23.5788 4.976 23.7494 5.08933 23.8881 5.236C24.0294 5.38 24.1374 5.552 24.2121 5.752C24.2868 5.952 24.3241 6.17067 24.3241 6.408V9H23.7561C23.6388 9 23.5494 8.984 23.4881 8.952C23.4294 8.92 23.3801 8.85333 23.3401 8.752L23.2521 8.524C23.1481 8.612 23.0481 8.68933 22.9521 8.756C22.8561 8.82267 22.7561 8.88 22.6521 8.928C22.5508 8.97333 22.4414 9.00667 22.3241 9.028C22.2094 9.052 22.0814 9.064 21.9401 9.064C21.7508 9.064 21.5788 9.04 21.4241 8.992C21.2694 8.94133 21.1374 8.868 21.0281 8.772C20.9214 8.676 20.8388 8.55733 20.7801 8.416C20.7214 8.272 20.6921 8.10667 20.6921 7.92C20.6921 7.77067 20.7294 7.62 20.8041 7.468C20.8788 7.31333 21.0081 7.17333 21.1921 7.048C21.3761 6.92 21.6241 6.81333 21.9361 6.728C22.2481 6.64267 22.6414 6.59467 23.1161 6.584V6.408C23.1161 6.16533 23.0654 5.99067 22.9641 5.884C22.8654 5.77467 22.7241 5.72 22.5401 5.72C22.3934 5.72 22.2734 5.736 22.1801 5.768C22.0868 5.8 22.0028 5.836 21.9281 5.876C21.8561 5.916 21.7854 5.952 21.7161 5.984C21.6468 6.016 21.5641 6.032 21.4681 6.032C21.3828 6.032 21.3108 6.01067 21.2521 5.968C21.1934 5.92533 21.1454 5.87467 21.1081 5.816L20.8841 5.428ZM26.1567 5.492C26.2847 5.268 26.4314 5.092 26.5967 4.964C26.7647 4.836 26.9567 4.772 27.1727 4.772C27.3594 4.772 27.5114 4.816 27.6287 4.904L27.5487 5.816C27.5354 5.87467 27.5127 5.91467 27.4807 5.936C27.4514 5.95733 27.4101 5.968 27.3567 5.968C27.3354 5.968 27.3074 5.96667 27.2727 5.964C27.2381 5.96133 27.2021 5.95867 27.1647 5.956C27.1274 5.95067 27.0887 5.94667 27.0487 5.944C27.0114 5.93867 26.9767 5.936 26.9447 5.936C26.7634 5.936 26.6181 5.984 26.5087 6.08C26.4021 6.176 26.3114 6.30933 26.2367 6.48V9H24.9967V4.852H25.7327C25.7941 4.852 25.8447 4.85733 25.8847 4.868C25.9274 4.87867 25.9621 4.896 25.9887 4.92C26.0181 4.94133 26.0394 4.97067 26.0527 5.008C26.0687 5.04533 26.0821 5.09067 26.0927 5.144L26.1567 5.492ZM27.9314 9V4.852H28.6994C28.8541 4.852 28.9554 4.92133 29.0034 5.06L29.0714 5.284C29.1407 5.212 29.2127 5.14667 29.2874 5.088C29.3621 5.02667 29.4421 4.97467 29.5274 4.932C29.6154 4.88667 29.7087 4.852 29.8074 4.828C29.9087 4.80133 30.0194 4.788 30.1394 4.788C30.3901 4.788 30.5967 4.85333 30.7594 4.984C30.9247 5.112 31.0501 5.284 31.1354 5.5C31.2047 5.372 31.2887 5.26267 31.3874 5.172C31.4887 5.08133 31.5967 5.008 31.7114 4.952C31.8287 4.896 31.9514 4.85467 32.0794 4.828C32.2101 4.80133 32.3394 4.788 32.4674 4.788C32.7047 4.788 32.9154 4.824 33.0994 4.896C33.2834 4.96533 33.4367 5.068 33.5594 5.204C33.6847 5.33733 33.7794 5.50267 33.8434 5.7C33.9074 5.89467 33.9394 6.116 33.9394 6.364V9H32.6994V6.364C32.6994 5.93467 32.5154 5.72 32.1474 5.72C31.9794 5.72 31.8394 5.776 31.7274 5.888C31.6181 5.99733 31.5634 6.156 31.5634 6.364V9H30.3234V6.364C30.3234 6.12667 30.2767 5.96 30.1834 5.864C30.0901 5.768 29.9527 5.72 29.7714 5.72C29.6594 5.72 29.5527 5.74533 29.4514 5.796C29.3527 5.84667 29.2594 5.91467 29.1714 6V9H27.9314Z" fill="black"/>
<g opacity="0.75">
<rect x="45.5" y="10" width="8" height="1" transform="rotate(-90 45.5 10)" fill="black"/>
</g>
<path d="M59.8753 3.172V9H59.1713C59.0673 9 58.9793 8.984 58.9073 8.952C58.8379 8.91733 58.7686 8.85867 58.6993 8.776L55.9513 5.3C55.9619 5.404 55.9686 5.50533 55.9713 5.604C55.9766 5.7 55.9793 5.79067 55.9793 5.876V9H54.7873V3.172H55.4993C55.5579 3.172 55.6073 3.17467 55.6473 3.18C55.6873 3.18533 55.7233 3.196 55.7553 3.212C55.7873 3.22533 55.8179 3.24533 55.8473 3.272C55.8766 3.29867 55.9099 3.33467 55.9473 3.38L58.7193 6.88C58.7059 6.768 58.6966 6.66 58.6913 6.556C58.6859 6.44933 58.6833 6.34933 58.6833 6.256V3.172H59.8753ZM63.197 6.428C63.197 6.32933 63.1837 6.23333 63.157 6.14C63.133 6.04667 63.0917 5.964 63.033 5.892C62.977 5.81733 62.9024 5.75733 62.809 5.712C62.7157 5.66667 62.6024 5.644 62.469 5.644C62.2344 5.644 62.0504 5.712 61.917 5.848C61.7837 5.98133 61.6957 6.17467 61.653 6.428H63.197ZM61.637 7.148C61.677 7.49467 61.7824 7.74667 61.953 7.904C62.1237 8.05867 62.3437 8.136 62.613 8.136C62.757 8.136 62.881 8.11867 62.985 8.084C63.089 8.04933 63.181 8.01067 63.261 7.968C63.3437 7.92533 63.4184 7.88667 63.485 7.852C63.5544 7.81733 63.6264 7.8 63.701 7.8C63.7997 7.8 63.8744 7.836 63.925 7.908L64.285 8.352C64.157 8.49867 64.0184 8.61867 63.869 8.712C63.7224 8.80267 63.5704 8.87467 63.413 8.928C63.2584 8.97867 63.1024 9.01333 62.945 9.032C62.7904 9.05333 62.6424 9.064 62.501 9.064C62.2104 9.064 61.937 9.01733 61.681 8.924C61.4277 8.828 61.205 8.68667 61.013 8.5C60.8237 8.31333 60.673 8.08133 60.561 7.804C60.4517 7.52667 60.397 7.204 60.397 6.836C60.397 6.55867 60.4437 6.296 60.537 6.048C60.633 5.8 60.769 5.58267 60.945 5.396C61.1237 5.20933 61.3384 5.06133 61.589 4.952C61.8424 4.84267 62.1277 4.788 62.445 4.788C62.7197 4.788 62.9704 4.83067 63.197 4.916C63.4264 5.00133 63.6224 5.12533 63.785 5.288C63.9504 5.45067 64.0784 5.65067 64.169 5.888C64.2624 6.12267 64.309 6.38933 64.309 6.688C64.309 6.78133 64.305 6.85733 64.297 6.916C64.289 6.97467 64.2744 7.02133 64.253 7.056C64.2317 7.09067 64.2024 7.11467 64.165 7.128C64.1304 7.14133 64.085 7.148 64.029 7.148H61.637ZM68.5295 4.852V9H67.7615C67.6069 9 67.5055 8.93067 67.4575 8.792L67.3855 8.552C67.3055 8.62933 67.2229 8.7 67.1375 8.764C67.0522 8.82533 66.9602 8.87867 66.8615 8.924C66.7655 8.96667 66.6602 9 66.5455 9.024C66.4335 9.05067 66.3109 9.064 66.1775 9.064C65.9509 9.064 65.7495 9.02533 65.5735 8.948C65.4002 8.868 65.2535 8.75733 65.1335 8.616C65.0135 8.47467 64.9229 8.308 64.8615 8.116C64.8002 7.924 64.7695 7.71333 64.7695 7.484V4.852H66.0095V7.484C66.0095 7.68933 66.0562 7.848 66.1495 7.96C66.2429 8.072 66.3802 8.128 66.5615 8.128C66.6975 8.128 66.8242 8.1 66.9415 8.044C67.0615 7.98533 67.1775 7.90667 67.2895 7.808V4.852H68.5295ZM70.736 9.064C70.5387 9.064 70.364 9.036 70.212 8.98C70.0627 8.92133 69.936 8.84 69.832 8.736C69.7307 8.62933 69.6534 8.50133 69.6 8.352C69.5467 8.20267 69.52 8.036 69.52 7.852V5.708H69.168C69.104 5.708 69.0494 5.688 69.004 5.648C68.9587 5.60533 68.936 5.544 68.936 5.464V4.98L69.596 4.852L69.84 3.84C69.872 3.712 69.9627 3.648 70.112 3.648H70.76V4.86H71.788V5.708H70.76V7.768C70.76 7.864 70.7827 7.944 70.828 8.008C70.876 8.06933 70.944 8.1 71.032 8.1C71.0774 8.1 71.1147 8.096 71.144 8.088C71.176 8.07733 71.2027 8.06667 71.224 8.056C71.248 8.04267 71.2694 8.032 71.288 8.024C71.3094 8.01333 71.3334 8.008 71.36 8.008C71.3974 8.008 71.4267 8.01733 71.448 8.036C71.472 8.052 71.496 8.07867 71.52 8.116L71.896 8.704C71.736 8.824 71.556 8.91467 71.356 8.976C71.156 9.03467 70.9494 9.064 70.736 9.064ZM73.3623 5.492C73.4903 5.268 73.637 5.092 73.8023 4.964C73.9703 4.836 74.1623 4.772 74.3783 4.772C74.565 4.772 74.717 4.816 74.8343 4.904L74.7543 5.816C74.741 5.87467 74.7183 5.91467 74.6863 5.936C74.657 5.95733 74.6157 5.968 74.5623 5.968C74.541 5.968 74.513 5.96667 74.4783 5.964C74.4437 5.96133 74.4077 5.95867 74.3703 5.956C74.333 5.95067 74.2943 5.94667 74.2543 5.944C74.217 5.93867 74.1823 5.936 74.1503 5.936C73.969 5.936 73.8237 5.984 73.7143 6.08C73.6077 6.176 73.517 6.30933 73.4423 6.48V9H72.2023V4.852H72.9383C72.9997 4.852 73.0503 4.85733 73.0903 4.868C73.133 4.87867 73.1677 4.896 73.1943 4.92C73.2237 4.94133 73.245 4.97067 73.2583 5.008C73.2743 5.04533 73.2877 5.09067 73.2983 5.144L73.3623 5.492ZM77.238 7.312C76.99 7.32267 76.786 7.344 76.626 7.376C76.466 7.408 76.3393 7.448 76.246 7.496C76.1526 7.544 76.0873 7.59867 76.05 7.66C76.0153 7.72133 75.998 7.788 75.998 7.86C75.998 8.00133 76.0366 8.10133 76.114 8.16C76.1913 8.216 76.3046 8.244 76.454 8.244C76.614 8.244 76.754 8.216 76.874 8.16C76.994 8.104 77.1153 8.01333 77.238 7.888V7.312ZM75.006 5.428C75.2566 5.20667 75.534 5.04267 75.838 4.936C76.1446 4.82667 76.4726 4.772 76.822 4.772C77.0726 4.772 77.298 4.81333 77.498 4.896C77.7006 4.976 77.8713 5.08933 78.01 5.236C78.1513 5.38 78.2593 5.552 78.334 5.752C78.4086 5.952 78.446 6.17067 78.446 6.408V9H77.878C77.7606 9 77.6713 8.984 77.61 8.952C77.5513 8.92 77.502 8.85333 77.462 8.752L77.374 8.524C77.27 8.612 77.17 8.68933 77.074 8.756C76.978 8.82267 76.878 8.88 76.774 8.928C76.6726 8.97333 76.5633 9.00667 76.446 9.028C76.3313 9.052 76.2033 9.064 76.062 9.064C75.8726 9.064 75.7006 9.04 75.546 8.992C75.3913 8.94133 75.2593 8.868 75.15 8.772C75.0433 8.676 74.9606 8.55733 74.902 8.416C74.8433 8.272 74.814 8.10667 74.814 7.92C74.814 7.77067 74.8513 7.62 74.926 7.468C75.0006 7.31333 75.13 7.17333 75.314 7.048C75.498 6.92 75.746 6.81333 76.058 6.728C76.37 6.64267 76.7633 6.59467 77.238 6.584V6.408C77.238 6.16533 77.1873 5.99067 77.086 5.884C76.9873 5.77467 76.846 5.72 76.662 5.72C76.5153 5.72 76.3953 5.736 76.302 5.768C76.2086 5.8 76.1246 5.836 76.05 5.876C75.978 5.916 75.9073 5.952 75.838 5.984C75.7686 6.016 75.686 6.032 75.59 6.032C75.5046 6.032 75.4326 6.01067 75.374 5.968C75.3153 5.92533 75.2673 5.87467 75.23 5.816L75.006 5.428ZM80.3586 3.012V9H79.1186V3.012H80.3586Z" fill="#B4B4B4"/>
<g opacity="0.75">
<rect x="88.5" y="10" width="8" height="1" transform="rotate(-90 88.5 10)" fill="black"/>
</g>
<path d="M103.5 7.98C103.679 7.98 103.824 7.95733 103.936 7.912C104.051 7.86667 104.14 7.808 104.204 7.736C104.268 7.664 104.312 7.58267 104.336 7.492C104.36 7.40133 104.372 7.30933 104.372 7.216C104.372 7.10933 104.357 7.01333 104.328 6.928C104.301 6.84267 104.253 6.77067 104.184 6.712C104.117 6.65333 104.028 6.608 103.916 6.576C103.804 6.544 103.663 6.528 103.492 6.528H102.548V7.98H103.5ZM102.548 4.184V5.624H103.252C103.401 5.624 103.536 5.61333 103.656 5.592C103.776 5.57067 103.877 5.53333 103.96 5.48C104.045 5.42667 104.109 5.35333 104.152 5.26C104.197 5.16667 104.22 5.04933 104.22 4.908C104.22 4.76933 104.203 4.65467 104.168 4.564C104.133 4.47067 104.08 4.396 104.008 4.34C103.936 4.284 103.844 4.244 103.732 4.22C103.623 4.196 103.492 4.184 103.34 4.184H102.548ZM103.34 3.172C103.743 3.172 104.085 3.20933 104.368 3.284C104.651 3.35867 104.881 3.464 105.06 3.6C105.239 3.736 105.368 3.90133 105.448 4.096C105.531 4.29067 105.572 4.508 105.572 4.748C105.572 4.87867 105.553 5.00533 105.516 5.128C105.479 5.248 105.42 5.36133 105.34 5.468C105.26 5.572 105.157 5.668 105.032 5.756C104.907 5.844 104.756 5.92 104.58 5.984C104.964 6.07733 105.248 6.228 105.432 6.436C105.616 6.644 105.708 6.91333 105.708 7.244C105.708 7.492 105.66 7.72267 105.564 7.936C105.468 8.14933 105.327 8.336 105.14 8.496C104.956 8.65333 104.728 8.77733 104.456 8.868C104.184 8.956 103.873 9 103.524 9H101.196V3.172H103.34ZM107.381 5.492C107.509 5.268 107.656 5.092 107.821 4.964C107.989 4.836 108.181 4.772 108.397 4.772C108.584 4.772 108.736 4.816 108.853 4.904L108.773 5.816C108.76 5.87467 108.737 5.91467 108.705 5.936C108.676 5.95733 108.634 5.968 108.581 5.968C108.56 5.968 108.532 5.96667 108.497 5.964C108.462 5.96133 108.426 5.95867 108.389 5.956C108.352 5.95067 108.313 5.94667 108.273 5.944C108.236 5.93867 108.201 5.936 108.169 5.936C107.988 5.936 107.842 5.984 107.733 6.08C107.626 6.176 107.536 6.30933 107.461 6.48V9H106.221V4.852H106.957C107.018 4.852 107.069 4.85733 107.109 4.868C107.152 4.87867 107.186 4.896 107.213 4.92C107.242 4.94133 107.264 4.97067 107.277 5.008C107.293 5.04533 107.306 5.09067 107.317 5.144L107.381 5.492ZM110.424 4.852V9H109.184V4.852H110.424ZM110.552 3.716C110.552 3.81467 110.532 3.908 110.492 3.996C110.452 4.08133 110.397 4.15733 110.328 4.224C110.258 4.288 110.177 4.34 110.084 4.38C109.993 4.41733 109.896 4.436 109.792 4.436C109.69 4.436 109.596 4.41733 109.508 4.38C109.42 4.34 109.341 4.288 109.272 4.224C109.205 4.15733 109.152 4.08133 109.112 3.996C109.074 3.908 109.056 3.81467 109.056 3.716C109.056 3.61467 109.074 3.52 109.112 3.432C109.152 3.344 109.205 3.26667 109.272 3.2C109.341 3.13333 109.42 3.08133 109.508 3.044C109.596 3.00667 109.69 2.988 109.792 2.988C109.896 2.988 109.993 3.00667 110.084 3.044C110.177 3.08133 110.258 3.13333 110.328 3.2C110.397 3.26667 110.452 3.344 110.492 3.432C110.532 3.52 110.552 3.61467 110.552 3.716ZM112.749 6.708C112.954 6.708 113.102 6.65733 113.193 6.556C113.286 6.452 113.333 6.31867 113.333 6.156C113.333 5.988 113.286 5.856 113.193 5.76C113.102 5.664 112.954 5.616 112.749 5.616C112.543 5.616 112.394 5.664 112.301 5.76C112.21 5.856 112.165 5.988 112.165 6.156C112.165 6.236 112.175 6.30933 112.197 6.376C112.221 6.44267 112.257 6.50133 112.305 6.552C112.353 6.6 112.413 6.63867 112.485 6.668C112.559 6.69467 112.647 6.708 112.749 6.708ZM113.709 9.152C113.709 9.05333 113.665 8.98267 113.577 8.94C113.489 8.89467 113.374 8.86267 113.233 8.844C113.091 8.82533 112.933 8.81467 112.757 8.812C112.583 8.80667 112.41 8.796 112.237 8.78C112.159 8.83333 112.095 8.89333 112.045 8.96C111.997 9.024 111.973 9.09733 111.973 9.18C111.973 9.23867 111.985 9.292 112.009 9.34C112.035 9.388 112.081 9.42933 112.145 9.464C112.209 9.49867 112.294 9.52533 112.401 9.544C112.51 9.56533 112.647 9.576 112.813 9.576C112.991 9.576 113.138 9.56533 113.253 9.544C113.367 9.52267 113.458 9.49333 113.525 9.456C113.594 9.41867 113.642 9.37333 113.669 9.32C113.695 9.26933 113.709 9.21333 113.709 9.152ZM114.933 4.98V5.432C114.933 5.50133 114.913 5.556 114.873 5.596C114.835 5.636 114.77 5.66667 114.677 5.688L114.377 5.756C114.393 5.81467 114.405 5.87467 114.413 5.936C114.423 5.99733 114.429 6.06133 114.429 6.128C114.429 6.336 114.385 6.52267 114.297 6.688C114.211 6.85333 114.093 6.99467 113.941 7.112C113.791 7.22667 113.614 7.316 113.409 7.38C113.203 7.44133 112.983 7.472 112.749 7.472C112.685 7.472 112.622 7.47067 112.561 7.468C112.499 7.46267 112.439 7.45467 112.381 7.444C112.29 7.5 112.245 7.56267 112.245 7.632C112.245 7.70133 112.282 7.752 112.357 7.784C112.431 7.81333 112.53 7.83467 112.653 7.848C112.775 7.85867 112.914 7.86667 113.069 7.872C113.226 7.87467 113.386 7.884 113.549 7.9C113.711 7.91333 113.87 7.93733 114.025 7.972C114.182 8.00667 114.322 8.06267 114.445 8.14C114.567 8.21733 114.666 8.32133 114.741 8.452C114.815 8.58 114.853 8.744 114.853 8.944C114.853 9.13067 114.807 9.31333 114.717 9.492C114.626 9.67067 114.493 9.82933 114.317 9.968C114.141 10.1067 113.925 10.2173 113.669 10.3C113.413 10.3853 113.119 10.428 112.789 10.428C112.463 10.428 112.182 10.3973 111.945 10.336C111.71 10.2747 111.514 10.1933 111.357 10.092C111.202 9.99333 111.087 9.87867 111.013 9.748C110.938 9.61733 110.901 9.48133 110.901 9.34C110.901 9.156 110.954 9.00267 111.061 8.88C111.167 8.75733 111.317 8.65867 111.509 8.584C111.407 8.52267 111.327 8.444 111.269 8.348C111.21 8.252 111.181 8.128 111.181 7.976C111.181 7.91467 111.191 7.85067 111.213 7.784C111.234 7.71467 111.267 7.648 111.313 7.584C111.361 7.51733 111.419 7.45467 111.489 7.396C111.558 7.33733 111.641 7.28533 111.737 7.24C111.521 7.12533 111.35 6.97467 111.225 6.788C111.099 6.59867 111.037 6.37867 111.037 6.128C111.037 5.92 111.081 5.73333 111.169 5.568C111.257 5.4 111.377 5.25867 111.529 5.144C111.683 5.02667 111.865 4.93733 112.073 4.876C112.281 4.812 112.506 4.78 112.749 4.78C113.101 4.78 113.413 4.84667 113.685 4.98H114.933ZM116.57 5.216C116.719 5.088 116.881 4.98533 117.054 4.908C117.23 4.828 117.439 4.788 117.682 4.788C117.909 4.788 118.109 4.828 118.282 4.908C118.458 4.98533 118.606 5.09467 118.726 5.236C118.846 5.37467 118.937 5.54133 118.998 5.736C119.059 5.928 119.09 6.13733 119.09 6.364V9H117.85V6.364C117.85 6.16133 117.803 6.004 117.71 5.892C117.617 5.77733 117.479 5.72 117.298 5.72C117.162 5.72 117.034 5.74933 116.914 5.808C116.797 5.864 116.682 5.94133 116.57 6.04V9H115.33V3.012H116.57V5.216ZM121.202 9.064C121.004 9.064 120.83 9.036 120.678 8.98C120.528 8.92133 120.402 8.84 120.298 8.736C120.196 8.62933 120.119 8.50133 120.066 8.352C120.012 8.20267 119.986 8.036 119.986 7.852V5.708H119.634C119.57 5.708 119.515 5.688 119.47 5.648C119.424 5.60533 119.402 5.544 119.402 5.464V4.98L120.062 4.852L120.306 3.84C120.338 3.712 120.428 3.648 120.578 3.648H121.226V4.86H122.254V5.708H121.226V7.768C121.226 7.864 121.248 7.944 121.294 8.008C121.342 8.06933 121.41 8.1 121.498 8.1C121.543 8.1 121.58 8.096 121.61 8.088C121.642 8.07733 121.668 8.06667 121.69 8.056C121.714 8.04267 121.735 8.032 121.754 8.024C121.775 8.01333 121.799 8.008 121.826 8.008C121.863 8.008 121.892 8.01733 121.914 8.036C121.938 8.052 121.962 8.07867 121.986 8.116L122.362 8.704C122.202 8.824 122.022 8.91467 121.822 8.976C121.622 9.03467 121.415 9.064 121.202 9.064Z" fill="#B4B4B4"/>
<path d="M2.5 1H132.5V0H2.5V1ZM134 2.5V9.5H135V2.5H134ZM132.5 11H2.5V12H132.5V11ZM1 9.5V2.5H0V9.5H1ZM2.5 11C1.67157 11 1 10.3284 1 9.5H0C0 10.8807 1.11929 12 2.5 12V11ZM134 9.5C134 10.3284 133.328 11 132.5 11V12C133.881 12 135 10.8807 135 9.5H134ZM132.5 1C133.328 1 134 1.67157 134 2.5H135C135 1.11929 133.881 0 132.5 0V1ZM2.5 0C1.11929 0 0 1.11929 0 2.5H1C1 1.67157 1.67157 1 2.5 1V0Z" fill="black"/>
<path d="M0.5 14.5C0.5 13.3954 1.39543 12.5 2.5 12.5H132.5C133.605 12.5 134.5 13.3954 134.5 14.5V21.5C134.5 22.6046 133.605 23.5 132.5 23.5H2.5C1.39543 23.5 0.5 22.6046 0.5 21.5V14.5Z" fill="#242424"/>
<path d="M21.1879 15.172L19.3879 21H18.1639L17.0679 17.388C17.0466 17.332 17.0266 17.2707 17.0079 17.204C16.9892 17.1347 16.9706 17.0627 16.9519 16.988C16.9332 17.0627 16.9146 17.1347 16.8959 17.204C16.8772 17.2707 16.8572 17.332 16.8359 17.388L15.7239 21H14.4999L12.6999 15.172H13.8359C13.9532 15.172 14.0506 15.1987 14.1279 15.252C14.2079 15.3053 14.2599 15.376 14.2839 15.464L15.0839 18.504C15.1079 18.6 15.1319 18.7053 15.1559 18.82C15.1799 18.932 15.2039 19.0493 15.2279 19.172C15.2759 18.9213 15.3346 18.6987 15.4039 18.504L16.3479 15.464C16.3719 15.3893 16.4226 15.3227 16.4999 15.264C16.5799 15.2027 16.6759 15.172 16.7879 15.172H17.1879C17.3052 15.172 17.3999 15.2 17.4719 15.256C17.5439 15.3093 17.5986 15.3787 17.6359 15.464L18.5719 18.504C18.6412 18.6907 18.6999 18.9027 18.7479 19.14C18.7692 19.02 18.7906 18.908 18.8119 18.804C18.8359 18.6973 18.8599 18.5973 18.8839 18.504L19.6839 15.464C19.7052 15.3867 19.7559 15.3187 19.8359 15.26C19.9159 15.2013 20.0119 15.172 20.1239 15.172H21.1879ZM23.1161 19.312C22.8681 19.3227 22.6641 19.344 22.5041 19.376C22.3441 19.408 22.2174 19.448 22.1241 19.496C22.0308 19.544 21.9654 19.5987 21.9281 19.66C21.8934 19.7213 21.8761 19.788 21.8761 19.86C21.8761 20.0013 21.9148 20.1013 21.9921 20.16C22.0694 20.216 22.1828 20.244 22.3321 20.244C22.4921 20.244 22.6321 20.216 22.7521 20.16C22.8721 20.104 22.9934 20.0133 23.1161 19.888V19.312ZM20.8841 17.428C21.1348 17.2067 21.4121 17.0427 21.7161 16.936C22.0228 16.8267 22.3508 16.772 22.7001 16.772C22.9508 16.772 23.1761 16.8133 23.3761 16.896C23.5788 16.976 23.7494 17.0893 23.8881 17.236C24.0294 17.38 24.1374 17.552 24.2121 17.752C24.2868 17.952 24.3241 18.1707 24.3241 18.408V21H23.7561C23.6388 21 23.5494 20.984 23.4881 20.952C23.4294 20.92 23.3801 20.8533 23.3401 20.752L23.2521 20.524C23.1481 20.612 23.0481 20.6893 22.9521 20.756C22.8561 20.8227 22.7561 20.88 22.6521 20.928C22.5508 20.9733 22.4414 21.0067 22.3241 21.028C22.2094 21.052 22.0814 21.064 21.9401 21.064C21.7508 21.064 21.5788 21.04 21.4241 20.992C21.2694 20.9413 21.1374 20.868 21.0281 20.772C20.9214 20.676 20.8388 20.5573 20.7801 20.416C20.7214 20.272 20.6921 20.1067 20.6921 19.92C20.6921 19.7707 20.7294 19.62 20.8041 19.468C20.8788 19.3133 21.0081 19.1733 21.1921 19.048C21.3761 18.92 21.6241 18.8133 21.9361 18.728C22.2481 18.6427 22.6414 18.5947 23.1161 18.584V18.408C23.1161 18.1653 23.0654 17.9907 22.9641 17.884C22.8654 17.7747 22.7241 17.72 22.5401 17.72C22.3934 17.72 22.2734 17.736 22.1801 17.768C22.0868 17.8 22.0028 17.836 21.9281 17.876C21.8561 17.916 21.7854 17.952 21.7161 17.984C21.6468 18.016 21.5641 18.032 21.4681 18.032C21.3828 18.032 21.3108 18.0107 21.2521 17.968C21.1934 17.9253 21.1454 17.8747 21.1081 17.816L20.8841 17.428ZM26.1567 17.492C26.2847 17.268 26.4314 17.092 26.5967 16.964C26.7647 16.836 26.9567 16.772 27.1727 16.772C27.3594 16.772 27.5114 16.816 27.6287 16.904L27.5487 17.816C27.5354 17.8747 27.5127 17.9147 27.4807 17.936C27.4514 17.9573 27.4101 17.968 27.3567 17.968C27.3354 17.968 27.3074 17.9667 27.2727 17.964C27.2381 17.9613 27.2021 17.9587 27.1647 17.956C27.1274 17.9507 27.0887 17.9467 27.0487 17.944C27.0114 17.9387 26.9767 17.936 26.9447 17.936C26.7634 17.936 26.6181 17.984 26.5087 18.08C26.4021 18.176 26.3114 18.3093 26.2367 18.48V21H24.9967V16.852H25.7327C25.7941 16.852 25.8447 16.8573 25.8847 16.868C25.9274 16.8787 25.9621 16.896 25.9887 16.92C26.0181 16.9413 26.0394 16.9707 26.0527 17.008C26.0687 17.0453 26.0821 17.0907 26.0927 17.144L26.1567 17.492ZM27.9314 21V16.852H28.6994C28.8541 16.852 28.9554 16.9213 29.0034 17.06L29.0714 17.284C29.1407 17.212 29.2127 17.1467 29.2874 17.088C29.3621 17.0267 29.4421 16.9747 29.5274 16.932C29.6154 16.8867 29.7087 16.852 29.8074 16.828C29.9087 16.8013 30.0194 16.788 30.1394 16.788C30.3901 16.788 30.5967 16.8533 30.7594 16.984C30.9247 17.112 31.0501 17.284 31.1354 17.5C31.2047 17.372 31.2887 17.2627 31.3874 17.172C31.4887 17.0813 31.5967 17.008 31.7114 16.952C31.8287 16.896 31.9514 16.8547 32.0794 16.828C32.2101 16.8013 32.3394 16.788 32.4674 16.788C32.7047 16.788 32.9154 16.824 33.0994 16.896C33.2834 16.9653 33.4367 17.068 33.5594 17.204C33.6847 17.3373 33.7794 17.5027 33.8434 17.7C33.9074 17.8947 33.9394 18.116 33.9394 18.364V21H32.6994V18.364C32.6994 17.9347 32.5154 17.72 32.1474 17.72C31.9794 17.72 31.8394 17.776 31.7274 17.888C31.6181 17.9973 31.5634 18.156 31.5634 18.364V21H30.3234V18.364C30.3234 18.1267 30.2767 17.96 30.1834 17.864C30.0901 17.768 29.9527 17.72 29.7714 17.72C29.6594 17.72 29.5527 17.7453 29.4514 17.796C29.3527 17.8467 29.2594 17.9147 29.1714 18V21H27.9314Z" fill="#B4B4B4"/>
<g opacity="0.75">
<rect x="45.5" y="22" width="8" height="1" transform="rotate(-90 45.5 22)" fill="black"/>
</g>
<rect x="47.5" y="14.5" width="40" height="7" rx="1" fill="#FF9000"/>
<rect x="47.5" y="14.5" width="40" height="7" rx="1" stroke="#FF9000"/>
<path d="M59.8753 15.172V21H59.1713C59.0673 21 58.9793 20.984 58.9073 20.952C58.8379 20.9173 58.7686 20.8587 58.6993 20.776L55.9513 17.3C55.9619 17.404 55.9686 17.5053 55.9713 17.604C55.9766 17.7 55.9793 17.7907 55.9793 17.876V21H54.7873V15.172H55.4993C55.5579 15.172 55.6073 15.1747 55.6473 15.18C55.6873 15.1853 55.7233 15.196 55.7553 15.212C55.7873 15.2253 55.8179 15.2453 55.8473 15.272C55.8766 15.2987 55.9099 15.3347 55.9473 15.38L58.7193 18.88C58.7059 18.768 58.6966 18.66 58.6913 18.556C58.6859 18.4493 58.6833 18.3493 58.6833 18.256V15.172H59.8753ZM63.197 18.428C63.197 18.3293 63.1837 18.2333 63.157 18.14C63.133 18.0467 63.0917 17.964 63.033 17.892C62.977 17.8173 62.9024 17.7573 62.809 17.712C62.7157 17.6667 62.6024 17.644 62.469 17.644C62.2344 17.644 62.0504 17.712 61.917 17.848C61.7837 17.9813 61.6957 18.1747 61.653 18.428H63.197ZM61.637 19.148C61.677 19.4947 61.7824 19.7467 61.953 19.904C62.1237 20.0587 62.3437 20.136 62.613 20.136C62.757 20.136 62.881 20.1187 62.985 20.084C63.089 20.0493 63.181 20.0107 63.261 19.968C63.3437 19.9253 63.4184 19.8867 63.485 19.852C63.5544 19.8173 63.6264 19.8 63.701 19.8C63.7997 19.8 63.8744 19.836 63.925 19.908L64.285 20.352C64.157 20.4987 64.0184 20.6187 63.869 20.712C63.7224 20.8027 63.5704 20.8747 63.413 20.928C63.2584 20.9787 63.1024 21.0133 62.945 21.032C62.7904 21.0533 62.6424 21.064 62.501 21.064C62.2104 21.064 61.937 21.0173 61.681 20.924C61.4277 20.828 61.205 20.6867 61.013 20.5C60.8237 20.3133 60.673 20.0813 60.561 19.804C60.4517 19.5267 60.397 19.204 60.397 18.836C60.397 18.5587 60.4437 18.296 60.537 18.048C60.633 17.8 60.769 17.5827 60.945 17.396C61.1237 17.2093 61.3384 17.0613 61.589 16.952C61.8424 16.8427 62.1277 16.788 62.445 16.788C62.7197 16.788 62.9704 16.8307 63.197 16.916C63.4264 17.0013 63.6224 17.1253 63.785 17.288C63.9504 17.4507 64.0784 17.6507 64.169 17.888C64.2624 18.1227 64.309 18.3893 64.309 18.688C64.309 18.7813 64.305 18.8573 64.297 18.916C64.289 18.9747 64.2744 19.0213 64.253 19.056C64.2317 19.0907 64.2024 19.1147 64.165 19.128C64.1304 19.1413 64.085 19.148 64.029 19.148H61.637ZM68.5295 16.852V21H67.7615C67.6069 21 67.5055 20.9307 67.4575 20.792L67.3855 20.552C67.3055 20.6293 67.2229 20.7 67.1375 20.764C67.0522 20.8253 66.9602 20.8787 66.8615 20.924C66.7655 20.9667 66.6602 21 66.5455 21.024C66.4335 21.0507 66.3109 21.064 66.1775 21.064C65.9509 21.064 65.7495 21.0253 65.5735 20.948C65.4002 20.868 65.2535 20.7573 65.1335 20.616C65.0135 20.4747 64.9229 20.308 64.8615 20.116C64.8002 19.924 64.7695 19.7133 64.7695 19.484V16.852H66.0095V19.484C66.0095 19.6893 66.0562 19.848 66.1495 19.96C66.2429 20.072 66.3802 20.128 66.5615 20.128C66.6975 20.128 66.8242 20.1 66.9415 20.044C67.0615 19.9853 67.1775 19.9067 67.2895 19.808V16.852H68.5295ZM70.736 21.064C70.5387 21.064 70.364 21.036 70.212 20.98C70.0627 20.9213 69.936 20.84 69.832 20.736C69.7307 20.6293 69.6534 20.5013 69.6 20.352C69.5467 20.2027 69.52 20.036 69.52 19.852V17.708H69.168C69.104 17.708 69.0494 17.688 69.004 17.648C68.9587 17.6053 68.936 17.544 68.936 17.464V16.98L69.596 16.852L69.84 15.84C69.872 15.712 69.9627 15.648 70.112 15.648H70.76V16.86H71.788V17.708H70.76V19.768C70.76 19.864 70.7827 19.944 70.828 20.008C70.876 20.0693 70.944 20.1 71.032 20.1C71.0774 20.1 71.1147 20.096 71.144 20.088C71.176 20.0773 71.2027 20.0667 71.224 20.056C71.248 20.0427 71.2694 20.032 71.288 20.024C71.3094 20.0133 71.3334 20.008 71.36 20.008C71.3974 20.008 71.4267 20.0173 71.448 20.036C71.472 20.052 71.496 20.0787 71.52 20.116L71.896 20.704C71.736 20.824 71.556 20.9147 71.356 20.976C71.156 21.0347 70.9494 21.064 70.736 21.064ZM73.3623 17.492C73.4903 17.268 73.637 17.092 73.8023 16.964C73.9703 16.836 74.1623 16.772 74.3783 16.772C74.565 16.772 74.717 16.816 74.8343 16.904L74.7543 17.816C74.741 17.8747 74.7183 17.9147 74.6863 17.936C74.657 17.9573 74.6157 17.968 74.5623 17.968C74.541 17.968 74.513 17.9667 74.4783 17.964C74.4437 17.9613 74.4077 17.9587 74.3703 17.956C74.333 17.9507 74.2943 17.9467 74.2543 17.944C74.217 17.9387 74.1823 17.936 74.1503 17.936C73.969 17.936 73.8237 17.984 73.7143 18.08C73.6077 18.176 73.517 18.3093 73.4423 18.48V21H72.2023V16.852H72.9383C72.9997 16.852 73.0503 16.8573 73.0903 16.868C73.133 16.8787 73.1677 16.896 73.1943 16.92C73.2237 16.9413 73.245 16.9707 73.2583 17.008C73.2743 17.0453 73.2877 17.0907 73.2983 17.144L73.3623 17.492ZM77.238 19.312C76.99 19.3227 76.786 19.344 76.626 19.376C76.466 19.408 76.3393 19.448 76.246 19.496C76.1526 19.544 76.0873 19.5987 76.05 19.66C76.0153 19.7213 75.998 19.788 75.998 19.86C75.998 20.0013 76.0366 20.1013 76.114 20.16C76.1913 20.216 76.3046 20.244 76.454 20.244C76.614 20.244 76.754 20.216 76.874 20.16C76.994 20.104 77.1153 20.0133 77.238 19.888V19.312ZM75.006 17.428C75.2566 17.2067 75.534 17.0427 75.838 16.936C76.1446 16.8267 76.4726 16.772 76.822 16.772C77.0726 16.772 77.298 16.8133 77.498 16.896C77.7006 16.976 77.8713 17.0893 78.01 17.236C78.1513 17.38 78.2593 17.552 78.334 17.752C78.4086 17.952 78.446 18.1707 78.446 18.408V21H77.878C77.7606 21 77.6713 20.984 77.61 20.952C77.5513 20.92 77.502 20.8533 77.462 20.752L77.374 20.524C77.27 20.612 77.17 20.6893 77.074 20.756C76.978 20.8227 76.878 20.88 76.774 20.928C76.6726 20.9733 76.5633 21.0067 76.446 21.028C76.3313 21.052 76.2033 21.064 76.062 21.064C75.8726 21.064 75.7006 21.04 75.546 20.992C75.3913 20.9413 75.2593 20.868 75.15 20.772C75.0433 20.676 74.9606 20.5573 74.902 20.416C74.8433 20.272 74.814 20.1067 74.814 19.92C74.814 19.7707 74.8513 19.62 74.926 19.468C75.0006 19.3133 75.13 19.1733 75.314 19.048C75.498 18.92 75.746 18.8133 76.058 18.728C76.37 18.6427 76.7633 18.5947 77.238 18.584V18.408C77.238 18.1653 77.1873 17.9907 77.086 17.884C76.9873 17.7747 76.846 17.72 76.662 17.72C76.5153 17.72 76.3953 17.736 76.302 17.768C76.2086 17.8 76.1246 17.836 76.05 17.876C75.978 17.916 75.9073 17.952 75.838 17.984C75.7686 18.016 75.686 18.032 75.59 18.032C75.5046 18.032 75.4326 18.0107 75.374 17.968C75.3153 17.9253 75.2673 17.8747 75.23 17.816L75.006 17.428ZM80.3586 15.012V21H79.1186V15.012H80.3586Z" fill="black"/>
<g opacity="0.75">
<rect x="88.5" y="22" width="8" height="1" transform="rotate(-90 88.5 22)" fill="black"/>
</g>
<path d="M103.5 19.98C103.679 19.98 103.824 19.9573 103.936 19.912C104.051 19.8667 104.14 19.808 104.204 19.736C104.268 19.664 104.312 19.5827 104.336 19.492C104.36 19.4013 104.372 19.3093 104.372 19.216C104.372 19.1093 104.357 19.0133 104.328 18.928C104.301 18.8427 104.253 18.7707 104.184 18.712C104.117 18.6533 104.028 18.608 103.916 18.576C103.804 18.544 103.663 18.528 103.492 18.528H102.548V19.98H103.5ZM102.548 16.184V17.624H103.252C103.401 17.624 103.536 17.6133 103.656 17.592C103.776 17.5707 103.877 17.5333 103.96 17.48C104.045 17.4267 104.109 17.3533 104.152 17.26C104.197 17.1667 104.22 17.0493 104.22 16.908C104.22 16.7693 104.203 16.6547 104.168 16.564C104.133 16.4707 104.08 16.396 104.008 16.34C103.936 16.284 103.844 16.244 103.732 16.22C103.623 16.196 103.492 16.184 103.34 16.184H102.548ZM103.34 15.172C103.743 15.172 104.085 15.2093 104.368 15.284C104.651 15.3587 104.881 15.464 105.06 15.6C105.239 15.736 105.368 15.9013 105.448 16.096C105.531 16.2907 105.572 16.508 105.572 16.748C105.572 16.8787 105.553 17.0053 105.516 17.128C105.479 17.248 105.42 17.3613 105.34 17.468C105.26 17.572 105.157 17.668 105.032 17.756C104.907 17.844 104.756 17.92 104.58 17.984C104.964 18.0773 105.248 18.228 105.432 18.436C105.616 18.644 105.708 18.9133 105.708 19.244C105.708 19.492 105.66 19.7227 105.564 19.936C105.468 20.1493 105.327 20.336 105.14 20.496C104.956 20.6533 104.728 20.7773 104.456 20.868C104.184 20.956 103.873 21 103.524 21H101.196V15.172H103.34ZM107.381 17.492C107.509 17.268 107.656 17.092 107.821 16.964C107.989 16.836 108.181 16.772 108.397 16.772C108.584 16.772 108.736 16.816 108.853 16.904L108.773 17.816C108.76 17.8747 108.737 17.9147 108.705 17.936C108.676 17.9573 108.634 17.968 108.581 17.968C108.56 17.968 108.532 17.9667 108.497 17.964C108.462 17.9613 108.426 17.9587 108.389 17.956C108.352 17.9507 108.313 17.9467 108.273 17.944C108.236 17.9387 108.201 17.936 108.169 17.936C107.988 17.936 107.842 17.984 107.733 18.08C107.626 18.176 107.536 18.3093 107.461 18.48V21H106.221V16.852H106.957C107.018 16.852 107.069 16.8573 107.109 16.868C107.152 16.8787 107.186 16.896 107.213 16.92C107.242 16.9413 107.264 16.9707 107.277 17.008C107.293 17.0453 107.306 17.0907 107.317 17.144L107.381 17.492ZM110.424 16.852V21H109.184V16.852H110.424ZM110.552 15.716C110.552 15.8147 110.532 15.908 110.492 15.996C110.452 16.0813 110.397 16.1573 110.328 16.224C110.258 16.288 110.177 16.34 110.084 16.38C109.993 16.4173 109.896 16.436 109.792 16.436C109.69 16.436 109.596 16.4173 109.508 16.38C109.42 16.34 109.341 16.288 109.272 16.224C109.205 16.1573 109.152 16.0813 109.112 15.996C109.074 15.908 109.056 15.8147 109.056 15.716C109.056 15.6147 109.074 15.52 109.112 15.432C109.152 15.344 109.205 15.2667 109.272 15.2C109.341 15.1333 109.42 15.0813 109.508 15.044C109.596 15.0067 109.69 14.988 109.792 14.988C109.896 14.988 109.993 15.0067 110.084 15.044C110.177 15.0813 110.258 15.1333 110.328 15.2C110.397 15.2667 110.452 15.344 110.492 15.432C110.532 15.52 110.552 15.6147 110.552 15.716ZM112.749 18.708C112.954 18.708 113.102 18.6573 113.193 18.556C113.286 18.452 113.333 18.3187 113.333 18.156C113.333 17.988 113.286 17.856 113.193 17.76C113.102 17.664 112.954 17.616 112.749 17.616C112.543 17.616 112.394 17.664 112.301 17.76C112.21 17.856 112.165 17.988 112.165 18.156C112.165 18.236 112.175 18.3093 112.197 18.376C112.221 18.4427 112.257 18.5013 112.305 18.552C112.353 18.6 112.413 18.6387 112.485 18.668C112.559 18.6947 112.647 18.708 112.749 18.708ZM113.709 21.152C113.709 21.0533 113.665 20.9827 113.577 20.94C113.489 20.8947 113.374 20.8627 113.233 20.844C113.091 20.8253 112.933 20.8147 112.757 20.812C112.583 20.8067 112.41 20.796 112.237 20.78C112.159 20.8333 112.095 20.8933 112.045 20.96C111.997 21.024 111.973 21.0973 111.973 21.18C111.973 21.2387 111.985 21.292 112.009 21.34C112.035 21.388 112.081 21.4293 112.145 21.464C112.209 21.4987 112.294 21.5253 112.401 21.544C112.51 21.5653 112.647 21.576 112.813 21.576C112.991 21.576 113.138 21.5653 113.253 21.544C113.367 21.5227 113.458 21.4933 113.525 21.456C113.594 21.4187 113.642 21.3733 113.669 21.32C113.695 21.2693 113.709 21.2133 113.709 21.152ZM114.933 16.98V17.432C114.933 17.5013 114.913 17.556 114.873 17.596C114.835 17.636 114.77 17.6667 114.677 17.688L114.377 17.756C114.393 17.8147 114.405 17.8747 114.413 17.936C114.423 17.9973 114.429 18.0613 114.429 18.128C114.429 18.336 114.385 18.5227 114.297 18.688C114.211 18.8533 114.093 18.9947 113.941 19.112C113.791 19.2267 113.614 19.316 113.409 19.38C113.203 19.4413 112.983 19.472 112.749 19.472C112.685 19.472 112.622 19.4707 112.561 19.468C112.499 19.4627 112.439 19.4547 112.381 19.444C112.29 19.5 112.245 19.5627 112.245 19.632C112.245 19.7013 112.282 19.752 112.357 19.784C112.431 19.8133 112.53 19.8347 112.653 19.848C112.775 19.8587 112.914 19.8667 113.069 19.872C113.226 19.8747 113.386 19.884 113.549 19.9C113.711 19.9133 113.87 19.9373 114.025 19.972C114.182 20.0067 114.322 20.0627 114.445 20.14C114.567 20.2173 114.666 20.3213 114.741 20.452C114.815 20.58 114.853 20.744 114.853 20.944C114.853 21.1307 114.807 21.3133 114.717 21.492C114.626 21.6707 114.493 21.8293 114.317 21.968C114.141 22.1067 113.925 22.2173 113.669 22.3C113.413 22.3853 113.119 22.428 112.789 22.428C112.463 22.428 112.182 22.3973 111.945 22.336C111.71 22.2747 111.514 22.1933 111.357 22.092C111.202 21.9933 111.087 21.8787 111.013 21.748C110.938 21.6173 110.901 21.4813 110.901 21.34C110.901 21.156 110.954 21.0027 111.061 20.88C111.167 20.7573 111.317 20.6587 111.509 20.584C111.407 20.5227 111.327 20.444 111.269 20.348C111.21 20.252 111.181 20.128 111.181 19.976C111.181 19.9147 111.191 19.8507 111.213 19.784C111.234 19.7147 111.267 19.648 111.313 19.584C111.361 19.5173 111.419 19.4547 111.489 19.396C111.558 19.3373 111.641 19.2853 111.737 19.24C111.521 19.1253 111.35 18.9747 111.225 18.788C111.099 18.5987 111.037 18.3787 111.037 18.128C111.037 17.92 111.081 17.7333 111.169 17.568C111.257 17.4 111.377 17.2587 111.529 17.144C111.683 17.0267 111.865 16.9373 112.073 16.876C112.281 16.812 112.506 16.78 112.749 16.78C113.101 16.78 113.413 16.8467 113.685 16.98H114.933ZM116.57 17.216C116.719 17.088 116.881 16.9853 117.054 16.908C117.23 16.828 117.439 16.788 117.682 16.788C117.909 16.788 118.109 16.828 118.282 16.908C118.458 16.9853 118.606 17.0947 118.726 17.236C118.846 17.3747 118.937 17.5413 118.998 17.736C119.059 17.928 119.09 18.1373 119.09 18.364V21H117.85V18.364C117.85 18.1613 117.803 18.004 117.71 17.892C117.617 17.7773 117.479 17.72 117.298 17.72C117.162 17.72 117.034 17.7493 116.914 17.808C116.797 17.864 116.682 17.9413 116.57 18.04V21H115.33V15.012H116.57V17.216ZM121.202 21.064C121.004 21.064 120.83 21.036 120.678 20.98C120.528 20.9213 120.402 20.84 120.298 20.736C120.196 20.6293 120.119 20.5013 120.066 20.352C120.012 20.2027 119.986 20.036 119.986 19.852V17.708H119.634C119.57 17.708 119.515 17.688 119.47 17.648C119.424 17.6053 119.402 17.544 119.402 17.464V16.98L120.062 16.852L120.306 15.84C120.338 15.712 120.428 15.648 120.578 15.648H121.226V16.86H122.254V17.708H121.226V19.768C121.226 19.864 121.248 19.944 121.294 20.008C121.342 20.0693 121.41 20.1 121.498 20.1C121.543 20.1 121.58 20.096 121.61 20.088C121.642 20.0773 121.668 20.0667 121.69 20.056C121.714 20.0427 121.735 20.032 121.754 20.024C121.775 20.0133 121.799 20.008 121.826 20.008C121.863 20.008 121.892 20.0173 121.914 20.036C121.938 20.052 121.962 20.0787 121.986 20.116L122.362 20.704C122.202 20.824 122.022 20.9147 121.822 20.976C121.622 21.0347 121.415 21.064 121.202 21.064Z" fill="#B4B4B4"/>
<path d="M2.5 13H132.5V12H2.5V13ZM134 14.5V21.5H135V14.5H134ZM132.5 23H2.5V24H132.5V23ZM1 21.5V14.5H0V21.5H1ZM2.5 23C1.67157 23 1 22.3284 1 21.5H0C0 22.8807 1.11929 24 2.5 24V23ZM134 21.5C134 22.3284 133.328 23 132.5 23V24C133.881 24 135 22.8807 135 21.5H134ZM132.5 13C133.328 13 134 13.6716 134 14.5H135C135 13.1193 133.881 12 132.5 12V13ZM2.5 12C1.11929 12 0 13.1193 0 14.5H1C1 13.6716 1.67157 13 2.5 13V12Z" fill="black"/>
<path d="M0.5 26.5C0.5 25.3954 1.39543 24.5 2.5 24.5H132.5C133.605 24.5 134.5 25.3954 134.5 26.5V33.5C134.5 34.6046 133.605 35.5 132.5 35.5H2.5C1.39543 35.5 0.5 34.6046 0.5 33.5V26.5Z" fill="#242424"/>
<path d="M21.1879 27.172L19.3879 33H18.1639L17.0679 29.388C17.0466 29.332 17.0266 29.2707 17.0079 29.204C16.9892 29.1347 16.9706 29.0627 16.9519 28.988C16.9332 29.0627 16.9146 29.1347 16.8959 29.204C16.8772 29.2707 16.8572 29.332 16.8359 29.388L15.7239 33H14.4999L12.6999 27.172H13.8359C13.9532 27.172 14.0506 27.1987 14.1279 27.252C14.2079 27.3053 14.2599 27.376 14.2839 27.464L15.0839 30.504C15.1079 30.6 15.1319 30.7053 15.1559 30.82C15.1799 30.932 15.2039 31.0493 15.2279 31.172C15.2759 30.9213 15.3346 30.6987 15.4039 30.504L16.3479 27.464C16.3719 27.3893 16.4226 27.3227 16.4999 27.264C16.5799 27.2027 16.6759 27.172 16.7879 27.172H17.1879C17.3052 27.172 17.3999 27.2 17.4719 27.256C17.5439 27.3093 17.5986 27.3787 17.6359 27.464L18.5719 30.504C18.6412 30.6907 18.6999 30.9027 18.7479 31.14C18.7692 31.02 18.7906 30.908 18.8119 30.804C18.8359 30.6973 18.8599 30.5973 18.8839 30.504L19.6839 27.464C19.7052 27.3867 19.7559 27.3187 19.8359 27.26C19.9159 27.2013 20.0119 27.172 20.1239 27.172H21.1879ZM23.1161 31.312C22.8681 31.3227 22.6641 31.344 22.5041 31.376C22.3441 31.408 22.2174 31.448 22.1241 31.496C22.0308 31.544 21.9654 31.5987 21.9281 31.66C21.8934 31.7213 21.8761 31.788 21.8761 31.86C21.8761 32.0013 21.9148 32.1013 21.9921 32.16C22.0694 32.216 22.1828 32.244 22.3321 32.244C22.4921 32.244 22.6321 32.216 22.7521 32.16C22.8721 32.104 22.9934 32.0133 23.1161 31.888V31.312ZM20.8841 29.428C21.1348 29.2067 21.4121 29.0427 21.7161 28.936C22.0228 28.8267 22.3508 28.772 22.7001 28.772C22.9508 28.772 23.1761 28.8133 23.3761 28.896C23.5788 28.976 23.7494 29.0893 23.8881 29.236C24.0294 29.38 24.1374 29.552 24.2121 29.752C24.2868 29.952 24.3241 30.1707 24.3241 30.408V33H23.7561C23.6388 33 23.5494 32.984 23.4881 32.952C23.4294 32.92 23.3801 32.8533 23.3401 32.752L23.2521 32.524C23.1481 32.612 23.0481 32.6893 22.9521 32.756C22.8561 32.8227 22.7561 32.88 22.6521 32.928C22.5508 32.9733 22.4414 33.0067 22.3241 33.028C22.2094 33.052 22.0814 33.064 21.9401 33.064C21.7508 33.064 21.5788 33.04 21.4241 32.992C21.2694 32.9413 21.1374 32.868 21.0281 32.772C20.9214 32.676 20.8388 32.5573 20.7801 32.416C20.7214 32.272 20.6921 32.1067 20.6921 31.92C20.6921 31.7707 20.7294 31.62 20.8041 31.468C20.8788 31.3133 21.0081 31.1733 21.1921 31.048C21.3761 30.92 21.6241 30.8133 21.9361 30.728C22.2481 30.6427 22.6414 30.5947 23.1161 30.584V30.408C23.1161 30.1653 23.0654 29.9907 22.9641 29.884C22.8654 29.7747 22.7241 29.72 22.5401 29.72C22.3934 29.72 22.2734 29.736 22.1801 29.768C22.0868 29.8 22.0028 29.836 21.9281 29.876C21.8561 29.916 21.7854 29.952 21.7161 29.984C21.6468 30.016 21.5641 30.032 21.4681 30.032C21.3828 30.032 21.3108 30.0107 21.2521 29.968C21.1934 29.9253 21.1454 29.8747 21.1081 29.816L20.8841 29.428ZM26.1567 29.492C26.2847 29.268 26.4314 29.092 26.5967 28.964C26.7647 28.836 26.9567 28.772 27.1727 28.772C27.3594 28.772 27.5114 28.816 27.6287 28.904L27.5487 29.816C27.5354 29.8747 27.5127 29.9147 27.4807 29.936C27.4514 29.9573 27.4101 29.968 27.3567 29.968C27.3354 29.968 27.3074 29.9667 27.2727 29.964C27.2381 29.9613 27.2021 29.9587 27.1647 29.956C27.1274 29.9507 27.0887 29.9467 27.0487 29.944C27.0114 29.9387 26.9767 29.936 26.9447 29.936C26.7634 29.936 26.6181 29.984 26.5087 30.08C26.4021 30.176 26.3114 30.3093 26.2367 30.48V33H24.9967V28.852H25.7327C25.7941 28.852 25.8447 28.8573 25.8847 28.868C25.9274 28.8787 25.9621 28.896 25.9887 28.92C26.0181 28.9413 26.0394 28.9707 26.0527 29.008C26.0687 29.0453 26.0821 29.0907 26.0927 29.144L26.1567 29.492ZM27.9314 33V28.852H28.6994C28.8541 28.852 28.9554 28.9213 29.0034 29.06L29.0714 29.284C29.1407 29.212 29.2127 29.1467 29.2874 29.088C29.3621 29.0267 29.4421 28.9747 29.5274 28.932C29.6154 28.8867 29.7087 28.852 29.8074 28.828C29.9087 28.8013 30.0194 28.788 30.1394 28.788C30.3901 28.788 30.5967 28.8533 30.7594 28.984C30.9247 29.112 31.0501 29.284 31.1354 29.5C31.2047 29.372 31.2887 29.2627 31.3874 29.172C31.4887 29.0813 31.5967 29.008 31.7114 28.952C31.8287 28.896 31.9514 28.8547 32.0794 28.828C32.2101 28.8013 32.3394 28.788 32.4674 28.788C32.7047 28.788 32.9154 28.824 33.0994 28.896C33.2834 28.9653 33.4367 29.068 33.5594 29.204C33.6847 29.3373 33.7794 29.5027 33.8434 29.7C33.9074 29.8947 33.9394 30.116 33.9394 30.364V33H32.6994V30.364C32.6994 29.9347 32.5154 29.72 32.1474 29.72C31.9794 29.72 31.8394 29.776 31.7274 29.888C31.6181 29.9973 31.5634 30.156 31.5634 30.364V33H30.3234V30.364C30.3234 30.1267 30.2767 29.96 30.1834 29.864C30.0901 29.768 29.9527 29.72 29.7714 29.72C29.6594 29.72 29.5527 29.7453 29.4514 29.796C29.3527 29.8467 29.2594 29.9147 29.1714 30V33H27.9314Z" fill="#B4B4B4"/>
<g opacity="0.75">
<rect x="45.5" y="34" width="8" height="1" transform="rotate(-90 45.5 34)" fill="black"/>
</g>
<path d="M59.8753 27.172V33H59.1713C59.0673 33 58.9793 32.984 58.9073 32.952C58.8379 32.9173 58.7686 32.8587 58.6993 32.776L55.9513 29.3C55.9619 29.404 55.9686 29.5053 55.9713 29.604C55.9766 29.7 55.9793 29.7907 55.9793 29.876V33H54.7873V27.172H55.4993C55.5579 27.172 55.6073 27.1747 55.6473 27.18C55.6873 27.1853 55.7233 27.196 55.7553 27.212C55.7873 27.2253 55.8179 27.2453 55.8473 27.272C55.8766 27.2987 55.9099 27.3347 55.9473 27.38L58.7193 30.88C58.7059 30.768 58.6966 30.66 58.6913 30.556C58.6859 30.4493 58.6833 30.3493 58.6833 30.256V27.172H59.8753ZM63.197 30.428C63.197 30.3293 63.1837 30.2333 63.157 30.14C63.133 30.0467 63.0917 29.964 63.033 29.892C62.977 29.8173 62.9024 29.7573 62.809 29.712C62.7157 29.6667 62.6024 29.644 62.469 29.644C62.2344 29.644 62.0504 29.712 61.917 29.848C61.7837 29.9813 61.6957 30.1747 61.653 30.428H63.197ZM61.637 31.148C61.677 31.4947 61.7824 31.7467 61.953 31.904C62.1237 32.0587 62.3437 32.136 62.613 32.136C62.757 32.136 62.881 32.1187 62.985 32.084C63.089 32.0493 63.181 32.0107 63.261 31.968C63.3437 31.9253 63.4184 31.8867 63.485 31.852C63.5544 31.8173 63.6264 31.8 63.701 31.8C63.7997 31.8 63.8744 31.836 63.925 31.908L64.285 32.352C64.157 32.4987 64.0184 32.6187 63.869 32.712C63.7224 32.8027 63.5704 32.8747 63.413 32.928C63.2584 32.9787 63.1024 33.0133 62.945 33.032C62.7904 33.0533 62.6424 33.064 62.501 33.064C62.2104 33.064 61.937 33.0173 61.681 32.924C61.4277 32.828 61.205 32.6867 61.013 32.5C60.8237 32.3133 60.673 32.0813 60.561 31.804C60.4517 31.5267 60.397 31.204 60.397 30.836C60.397 30.5587 60.4437 30.296 60.537 30.048C60.633 29.8 60.769 29.5827 60.945 29.396C61.1237 29.2093 61.3384 29.0613 61.589 28.952C61.8424 28.8427 62.1277 28.788 62.445 28.788C62.7197 28.788 62.9704 28.8307 63.197 28.916C63.4264 29.0013 63.6224 29.1253 63.785 29.288C63.9504 29.4507 64.0784 29.6507 64.169 29.888C64.2624 30.1227 64.309 30.3893 64.309 30.688C64.309 30.7813 64.305 30.8573 64.297 30.916C64.289 30.9747 64.2744 31.0213 64.253 31.056C64.2317 31.0907 64.2024 31.1147 64.165 31.128C64.1304 31.1413 64.085 31.148 64.029 31.148H61.637ZM68.5295 28.852V33H67.7615C67.6069 33 67.5055 32.9307 67.4575 32.792L67.3855 32.552C67.3055 32.6293 67.2229 32.7 67.1375 32.764C67.0522 32.8253 66.9602 32.8787 66.8615 32.924C66.7655 32.9667 66.6602 33 66.5455 33.024C66.4335 33.0507 66.3109 33.064 66.1775 33.064C65.9509 33.064 65.7495 33.0253 65.5735 32.948C65.4002 32.868 65.2535 32.7573 65.1335 32.616C65.0135 32.4747 64.9229 32.308 64.8615 32.116C64.8002 31.924 64.7695 31.7133 64.7695 31.484V28.852H66.0095V31.484C66.0095 31.6893 66.0562 31.848 66.1495 31.96C66.2429 32.072 66.3802 32.128 66.5615 32.128C66.6975 32.128 66.8242 32.1 66.9415 32.044C67.0615 31.9853 67.1775 31.9067 67.2895 31.808V28.852H68.5295ZM70.736 33.064C70.5387 33.064 70.364 33.036 70.212 32.98C70.0627 32.9213 69.936 32.84 69.832 32.736C69.7307 32.6293 69.6534 32.5013 69.6 32.352C69.5467 32.2027 69.52 32.036 69.52 31.852V29.708H69.168C69.104 29.708 69.0494 29.688 69.004 29.648C68.9587 29.6053 68.936 29.544 68.936 29.464V28.98L69.596 28.852L69.84 27.84C69.872 27.712 69.9627 27.648 70.112 27.648H70.76V28.86H71.788V29.708H70.76V31.768C70.76 31.864 70.7827 31.944 70.828 32.008C70.876 32.0693 70.944 32.1 71.032 32.1C71.0774 32.1 71.1147 32.096 71.144 32.088C71.176 32.0773 71.2027 32.0667 71.224 32.056C71.248 32.0427 71.2694 32.032 71.288 32.024C71.3094 32.0133 71.3334 32.008 71.36 32.008C71.3974 32.008 71.4267 32.0173 71.448 32.036C71.472 32.052 71.496 32.0787 71.52 32.116L71.896 32.704C71.736 32.824 71.556 32.9147 71.356 32.976C71.156 33.0347 70.9494 33.064 70.736 33.064ZM73.3623 29.492C73.4903 29.268 73.637 29.092 73.8023 28.964C73.9703 28.836 74.1623 28.772 74.3783 28.772C74.565 28.772 74.717 28.816 74.8343 28.904L74.7543 29.816C74.741 29.8747 74.7183 29.9147 74.6863 29.936C74.657 29.9573 74.6157 29.968 74.5623 29.968C74.541 29.968 74.513 29.9667 74.4783 29.964C74.4437 29.9613 74.4077 29.9587 74.3703 29.956C74.333 29.9507 74.2943 29.9467 74.2543 29.944C74.217 29.9387 74.1823 29.936 74.1503 29.936C73.969 29.936 73.8237 29.984 73.7143 30.08C73.6077 30.176 73.517 30.3093 73.4423 30.48V33H72.2023V28.852H72.9383C72.9997 28.852 73.0503 28.8573 73.0903 28.868C73.133 28.8787 73.1677 28.896 73.1943 28.92C73.2237 28.9413 73.245 28.9707 73.2583 29.008C73.2743 29.0453 73.2877 29.0907 73.2983 29.144L73.3623 29.492ZM77.238 31.312C76.99 31.3227 76.786 31.344 76.626 31.376C76.466 31.408 76.3393 31.448 76.246 31.496C76.1526 31.544 76.0873 31.5987 76.05 31.66C76.0153 31.7213 75.998 31.788 75.998 31.86C75.998 32.0013 76.0366 32.1013 76.114 32.16C76.1913 32.216 76.3046 32.244 76.454 32.244C76.614 32.244 76.754 32.216 76.874 32.16C76.994 32.104 77.1153 32.0133 77.238 31.888V31.312ZM75.006 29.428C75.2566 29.2067 75.534 29.0427 75.838 28.936C76.1446 28.8267 76.4726 28.772 76.822 28.772C77.0726 28.772 77.298 28.8133 77.498 28.896C77.7006 28.976 77.8713 29.0893 78.01 29.236C78.1513 29.38 78.2593 29.552 78.334 29.752C78.4086 29.952 78.446 30.1707 78.446 30.408V33H77.878C77.7606 33 77.6713 32.984 77.61 32.952C77.5513 32.92 77.502 32.8533 77.462 32.752L77.374 32.524C77.27 32.612 77.17 32.6893 77.074 32.756C76.978 32.8227 76.878 32.88 76.774 32.928C76.6726 32.9733 76.5633 33.0067 76.446 33.028C76.3313 33.052 76.2033 33.064 76.062 33.064C75.8726 33.064 75.7006 33.04 75.546 32.992C75.3913 32.9413 75.2593 32.868 75.15 32.772C75.0433 32.676 74.9606 32.5573 74.902 32.416C74.8433 32.272 74.814 32.1067 74.814 31.92C74.814 31.7707 74.8513 31.62 74.926 31.468C75.0006 31.3133 75.13 31.1733 75.314 31.048C75.498 30.92 75.746 30.8133 76.058 30.728C76.37 30.6427 76.7633 30.5947 77.238 30.584V30.408C77.238 30.1653 77.1873 29.9907 77.086 29.884C76.9873 29.7747 76.846 29.72 76.662 29.72C76.5153 29.72 76.3953 29.736 76.302 29.768C76.2086 29.8 76.1246 29.836 76.05 29.876C75.978 29.916 75.9073 29.952 75.838 29.984C75.7686 30.016 75.686 30.032 75.59 30.032C75.5046 30.032 75.4326 30.0107 75.374 29.968C75.3153 29.9253 75.2673 29.8747 75.23 29.816L75.006 29.428ZM80.3586 27.012V33H79.1186V27.012H80.3586Z" fill="#B4B4B4"/>
<g opacity="0.75">
<rect x="88.5" y="34" width="8" height="1" transform="rotate(-90 88.5 34)" fill="black"/>
</g>
<rect x="90.5" y="26.5" width="42" height="7" rx="1" fill="#FF9000"/>
<rect x="90.5" y="26.5" width="42" height="7" rx="1" stroke="#FF9000"/>
<path d="M103.5 31.98C103.679 31.98 103.824 31.9573 103.936 31.912C104.051 31.8667 104.14 31.808 104.204 31.736C104.268 31.664 104.312 31.5827 104.336 31.492C104.36 31.4013 104.372 31.3093 104.372 31.216C104.372 31.1093 104.357 31.0133 104.328 30.928C104.301 30.8427 104.253 30.7707 104.184 30.712C104.117 30.6533 104.028 30.608 103.916 30.576C103.804 30.544 103.663 30.528 103.492 30.528H102.548V31.98H103.5ZM102.548 28.184V29.624H103.252C103.401 29.624 103.536 29.6133 103.656 29.592C103.776 29.5707 103.877 29.5333 103.96 29.48C104.045 29.4267 104.109 29.3533 104.152 29.26C104.197 29.1667 104.22 29.0493 104.22 28.908C104.22 28.7693 104.203 28.6547 104.168 28.564C104.133 28.4707 104.08 28.396 104.008 28.34C103.936 28.284 103.844 28.244 103.732 28.22C103.623 28.196 103.492 28.184 103.34 28.184H102.548ZM103.34 27.172C103.743 27.172 104.085 27.2093 104.368 27.284C104.651 27.3587 104.881 27.464 105.06 27.6C105.239 27.736 105.368 27.9013 105.448 28.096C105.531 28.2907 105.572 28.508 105.572 28.748C105.572 28.8787 105.553 29.0053 105.516 29.128C105.479 29.248 105.42 29.3613 105.34 29.468C105.26 29.572 105.157 29.668 105.032 29.756C104.907 29.844 104.756 29.92 104.58 29.984C104.964 30.0773 105.248 30.228 105.432 30.436C105.616 30.644 105.708 30.9133 105.708 31.244C105.708 31.492 105.66 31.7227 105.564 31.936C105.468 32.1493 105.327 32.336 105.14 32.496C104.956 32.6533 104.728 32.7773 104.456 32.868C104.184 32.956 103.873 33 103.524 33H101.196V27.172H103.34ZM107.381 29.492C107.509 29.268 107.656 29.092 107.821 28.964C107.989 28.836 108.181 28.772 108.397 28.772C108.584 28.772 108.736 28.816 108.853 28.904L108.773 29.816C108.76 29.8747 108.737 29.9147 108.705 29.936C108.676 29.9573 108.634 29.968 108.581 29.968C108.56 29.968 108.532 29.9667 108.497 29.964C108.462 29.9613 108.426 29.9587 108.389 29.956C108.352 29.9507 108.313 29.9467 108.273 29.944C108.236 29.9387 108.201 29.936 108.169 29.936C107.988 29.936 107.842 29.984 107.733 30.08C107.626 30.176 107.536 30.3093 107.461 30.48V33H106.221V28.852H106.957C107.018 28.852 107.069 28.8573 107.109 28.868C107.152 28.8787 107.186 28.896 107.213 28.92C107.242 28.9413 107.264 28.9707 107.277 29.008C107.293 29.0453 107.306 29.0907 107.317 29.144L107.381 29.492ZM110.424 28.852V33H109.184V28.852H110.424ZM110.552 27.716C110.552 27.8147 110.532 27.908 110.492 27.996C110.452 28.0813 110.397 28.1573 110.328 28.224C110.258 28.288 110.177 28.34 110.084 28.38C109.993 28.4173 109.896 28.436 109.792 28.436C109.69 28.436 109.596 28.4173 109.508 28.38C109.42 28.34 109.341 28.288 109.272 28.224C109.205 28.1573 109.152 28.0813 109.112 27.996C109.074 27.908 109.056 27.8147 109.056 27.716C109.056 27.6147 109.074 27.52 109.112 27.432C109.152 27.344 109.205 27.2667 109.272 27.2C109.341 27.1333 109.42 27.0813 109.508 27.044C109.596 27.0067 109.69 26.988 109.792 26.988C109.896 26.988 109.993 27.0067 110.084 27.044C110.177 27.0813 110.258 27.1333 110.328 27.2C110.397 27.2667 110.452 27.344 110.492 27.432C110.532 27.52 110.552 27.6147 110.552 27.716ZM112.749 30.708C112.954 30.708 113.102 30.6573 113.193 30.556C113.286 30.452 113.333 30.3187 113.333 30.156C113.333 29.988 113.286 29.856 113.193 29.76C113.102 29.664 112.954 29.616 112.749 29.616C112.543 29.616 112.394 29.664 112.301 29.76C112.21 29.856 112.165 29.988 112.165 30.156C112.165 30.236 112.175 30.3093 112.197 30.376C112.221 30.4427 112.257 30.5013 112.305 30.552C112.353 30.6 112.413 30.6387 112.485 30.668C112.559 30.6947 112.647 30.708 112.749 30.708ZM113.709 33.152C113.709 33.0533 113.665 32.9827 113.577 32.94C113.489 32.8947 113.374 32.8627 113.233 32.844C113.091 32.8253 112.933 32.8147 112.757 32.812C112.583 32.8067 112.41 32.796 112.237 32.78C112.159 32.8333 112.095 32.8933 112.045 32.96C111.997 33.024 111.973 33.0973 111.973 33.18C111.973 33.2387 111.985 33.292 112.009 33.34C112.035 33.388 112.081 33.4293 112.145 33.464C112.209 33.4987 112.294 33.5253 112.401 33.544C112.51 33.5653 112.647 33.576 112.813 33.576C112.991 33.576 113.138 33.5653 113.253 33.544C113.367 33.5227 113.458 33.4933 113.525 33.456C113.594 33.4187 113.642 33.3733 113.669 33.32C113.695 33.2693 113.709 33.2133 113.709 33.152ZM114.933 28.98V29.432C114.933 29.5013 114.913 29.556 114.873 29.596C114.835 29.636 114.77 29.6667 114.677 29.688L114.377 29.756C114.393 29.8147 114.405 29.8747 114.413 29.936C114.423 29.9973 114.429 30.0613 114.429 30.128C114.429 30.336 114.385 30.5227 114.297 30.688C114.211 30.8533 114.093 30.9947 113.941 31.112C113.791 31.2267 113.614 31.316 113.409 31.38C113.203 31.4413 112.983 31.472 112.749 31.472C112.685 31.472 112.622 31.4707 112.561 31.468C112.499 31.4627 112.439 31.4547 112.381 31.444C112.29 31.5 112.245 31.5627 112.245 31.632C112.245 31.7013 112.282 31.752 112.357 31.784C112.431 31.8133 112.53 31.8347 112.653 31.848C112.775 31.8587 112.914 31.8667 113.069 31.872C113.226 31.8747 113.386 31.884 113.549 31.9C113.711 31.9133 113.87 31.9373 114.025 31.972C114.182 32.0067 114.322 32.0627 114.445 32.14C114.567 32.2173 114.666 32.3213 114.741 32.452C114.815 32.58 114.853 32.744 114.853 32.944C114.853 33.1307 114.807 33.3133 114.717 33.492C114.626 33.6707 114.493 33.8293 114.317 33.968C114.141 34.1067 113.925 34.2173 113.669 34.3C113.413 34.3853 113.119 34.428 112.789 34.428C112.463 34.428 112.182 34.3973 111.945 34.336C111.71 34.2747 111.514 34.1933 111.357 34.092C111.202 33.9933 111.087 33.8787 111.013 33.748C110.938 33.6173 110.901 33.4813 110.901 33.34C110.901 33.156 110.954 33.0027 111.061 32.88C111.167 32.7573 111.317 32.6587 111.509 32.584C111.407 32.5227 111.327 32.444 111.269 32.348C111.21 32.252 111.181 32.128 111.181 31.976C111.181 31.9147 111.191 31.8507 111.213 31.784C111.234 31.7147 111.267 31.648 111.313 31.584C111.361 31.5173 111.419 31.4547 111.489 31.396C111.558 31.3373 111.641 31.2853 111.737 31.24C111.521 31.1253 111.35 30.9747 111.225 30.788C111.099 30.5987 111.037 30.3787 111.037 30.128C111.037 29.92 111.081 29.7333 111.169 29.568C111.257 29.4 111.377 29.2587 111.529 29.144C111.683 29.0267 111.865 28.9373 112.073 28.876C112.281 28.812 112.506 28.78 112.749 28.78C113.101 28.78 113.413 28.8467 113.685 28.98H114.933ZM116.57 29.216C116.719 29.088 116.881 28.9853 117.054 28.908C117.23 28.828 117.439 28.788 117.682 28.788C117.909 28.788 118.109 28.828 118.282 28.908C118.458 28.9853 118.606 29.0947 118.726 29.236C118.846 29.3747 118.937 29.5413 118.998 29.736C119.059 29.928 119.09 30.1373 119.09 30.364V33H117.85V30.364C117.85 30.1613 117.803 30.004 117.71 29.892C117.617 29.7773 117.479 29.72 117.298 29.72C117.162 29.72 117.034 29.7493 116.914 29.808C116.797 29.864 116.682 29.9413 116.57 30.04V33H115.33V27.012H116.57V29.216ZM121.202 33.064C121.004 33.064 120.83 33.036 120.678 32.98C120.528 32.9213 120.402 32.84 120.298 32.736C120.196 32.6293 120.119 32.5013 120.066 32.352C120.012 32.2027 119.986 32.036 119.986 31.852V29.708H119.634C119.57 29.708 119.515 29.688 119.47 29.648C119.424 29.6053 119.402 29.544 119.402 29.464V28.98L120.062 28.852L120.306 27.84C120.338 27.712 120.428 27.648 120.578 27.648H121.226V28.86H122.254V29.708H121.226V31.768C121.226 31.864 121.248 31.944 121.294 32.008C121.342 32.0693 121.41 32.1 121.498 32.1C121.543 32.1 121.58 32.096 121.61 32.088C121.642 32.0773 121.668 32.0667 121.69 32.056C121.714 32.0427 121.735 32.032 121.754 32.024C121.775 32.0133 121.799 32.008 121.826 32.008C121.863 32.008 121.892 32.0173 121.914 32.036C121.938 32.052 121.962 32.0787 121.986 32.116L122.362 32.704C122.202 32.824 122.022 32.9147 121.822 32.976C121.622 33.0347 121.415 33.064 121.202 33.064Z" fill="black"/>
<path d="M2.5 25H132.5V24H2.5V25ZM134 26.5V33.5H135V26.5H134ZM132.5 35H2.5V36H132.5V35ZM1 33.5V26.5H0V33.5H1ZM2.5 35C1.67157 35 1 34.3284 1 33.5H0C0 34.8807 1.11929 36 2.5 36V35ZM134 33.5C134 34.3284 133.328 35 132.5 35V36C133.881 36 135 34.8807 135 33.5H134ZM132.5 25C133.328 25 134 25.6716 134 26.5H135C135 25.1193 133.881 24 132.5 24V25ZM2.5 24C1.11929 24 0 25.1193 0 26.5H1C1 25.6716 1.67157 25 2.5 25V24Z" fill="black"/>
</svg>
