<svg width="51" height="117" viewBox="0 0 51 117" fill="none" xmlns="http://www.w3.org/2000/svg">
<path d="M0.5 2.5C0.5 1.39543 1.39543 0.5 2.5 0.5H48.5C49.6046 0.5 50.5 1.39543 50.5 2.5V36.5C50.5 37.6046 49.6046 38.5 48.5 38.5H2.5C1.39543 38.5 0.5 37.6046 0.5 36.5V2.5Z" fill="#242424"/>
<rect width="46" height="10" transform="translate(2.5 2)" fill="#399DFF"/>
<rect x="2.5" y="2" width="46" height="10" rx="1" fill="#399DFF"/>
<rect x="2.5" y="2" width="46" height="10" rx="1" stroke="#399DFF"/>
<path d="M13.7762 5.712V7.188H15.7682V8.232H13.7762V10.5H12.4162V4.672H16.1682V5.712H13.7762ZM17.5387 6.992C17.6667 6.768 17.8134 6.592 17.9787 6.464C18.1467 6.336 18.3387 6.272 18.5547 6.272C18.7414 6.272 18.8934 6.316 19.0107 6.404L18.9307 7.316C18.9174 7.37467 18.8947 7.41467 18.8627 7.436C18.8334 7.45733 18.7921 7.468 18.7387 7.468C18.7174 7.468 18.6894 7.46667 18.6547 7.464C18.6201 7.46133 18.5841 7.45867 18.5467 7.456C18.5094 7.45067 18.4707 7.44667 18.4307 7.444C18.3934 7.43867 18.3587 7.436 18.3267 7.436C18.1454 7.436 18.0001 7.484 17.8907 7.58C17.7841 7.676 17.6934 7.80933 17.6187 7.98V10.5H16.3787V6.352H17.1147C17.1761 6.352 17.2267 6.35733 17.2667 6.368C17.3094 6.37867 17.3441 6.396 17.3707 6.42C17.4001 6.44133 17.4214 6.47067 17.4347 6.508C17.4507 6.54533 17.4641 6.59067 17.4747 6.644L17.5387 6.992ZM21.8231 7.928C21.8231 7.82933 21.8098 7.73333 21.7831 7.64C21.7591 7.54667 21.7178 7.464 21.6591 7.392C21.6031 7.31733 21.5285 7.25733 21.4351 7.212C21.3418 7.16667 21.2285 7.144 21.0951 7.144C20.8605 7.144 20.6765 7.212 20.5431 7.348C20.4098 7.48133 20.3218 7.67467 20.2791 7.928H21.8231ZM20.2631 8.648C20.3031 8.99467 20.4085 9.24667 20.5791 9.404C20.7498 9.55867 20.9698 9.636 21.2391 9.636C21.3831 9.636 21.5071 9.61867 21.6111 9.584C21.7151 9.54933 21.8071 9.51067 21.8871 9.468C21.9698 9.42533 22.0445 9.38667 22.1111 9.352C22.1805 9.31733 22.2525 9.3 22.3271 9.3C22.4258 9.3 22.5005 9.336 22.5511 9.408L22.9111 9.852C22.7831 9.99867 22.6445 10.1187 22.4951 10.212C22.3485 10.3027 22.1965 10.3747 22.0391 10.428C21.8845 10.4787 21.7285 10.5133 21.5711 10.532C21.4165 10.5533 21.2685 10.564 21.1271 10.564C20.8365 10.564 20.5631 10.5173 20.3071 10.424C20.0538 10.328 19.8311 10.1867 19.6391 10C19.4498 9.81333 19.2991 9.58133 19.1871 9.304C19.0778 9.02667 19.0231 8.704 19.0231 8.336C19.0231 8.05867 19.0698 7.796 19.1631 7.548C19.2591 7.3 19.3951 7.08267 19.5711 6.896C19.7498 6.70933 19.9645 6.56133 20.2151 6.452C20.4685 6.34267 20.7538 6.288 21.0711 6.288C21.3458 6.288 21.5965 6.33067 21.8231 6.416C22.0525 6.50133 22.2485 6.62533 22.4111 6.788C22.5765 6.95067 22.7045 7.15067 22.7951 7.388C22.8885 7.62267 22.9351 7.88933 22.9351 8.188C22.9351 8.28133 22.9311 8.35733 22.9231 8.416C22.9151 8.47467 22.9005 8.52133 22.8791 8.556C22.8578 8.59067 22.8285 8.61467 22.7911 8.628C22.7565 8.64133 22.7111 8.648 22.6551 8.648H20.2631ZM26.0156 7.928C26.0156 7.82933 26.0023 7.73333 25.9756 7.64C25.9516 7.54667 25.9103 7.464 25.8516 7.392C25.7956 7.31733 25.721 7.25733 25.6276 7.212C25.5343 7.16667 25.421 7.144 25.2876 7.144C25.053 7.144 24.869 7.212 24.7356 7.348C24.6023 7.48133 24.5143 7.67467 24.4716 7.928H26.0156ZM24.4556 8.648C24.4956 8.99467 24.601 9.24667 24.7716 9.404C24.9423 9.55867 25.1623 9.636 25.4316 9.636C25.5756 9.636 25.6996 9.61867 25.8036 9.584C25.9076 9.54933 25.9996 9.51067 26.0796 9.468C26.1623 9.42533 26.237 9.38667 26.3036 9.352C26.373 9.31733 26.445 9.3 26.5196 9.3C26.6183 9.3 26.693 9.336 26.7436 9.408L27.1036 9.852C26.9756 9.99867 26.837 10.1187 26.6876 10.212C26.541 10.3027 26.389 10.3747 26.2316 10.428C26.077 10.4787 25.921 10.5133 25.7636 10.532C25.609 10.5533 25.461 10.564 25.3196 10.564C25.029 10.564 24.7556 10.5173 24.4996 10.424C24.2463 10.328 24.0236 10.1867 23.8316 10C23.6423 9.81333 23.4916 9.58133 23.3796 9.304C23.2703 9.02667 23.2156 8.704 23.2156 8.336C23.2156 8.05867 23.2623 7.796 23.3556 7.548C23.4516 7.3 23.5876 7.08267 23.7636 6.896C23.9423 6.70933 24.157 6.56133 24.4076 6.452C24.661 6.34267 24.9463 6.288 25.2636 6.288C25.5383 6.288 25.789 6.33067 26.0156 6.416C26.245 6.50133 26.441 6.62533 26.6036 6.788C26.769 6.95067 26.897 7.15067 26.9876 7.388C27.081 7.62267 27.1276 7.88933 27.1276 8.188C27.1276 8.28133 27.1236 8.35733 27.1156 8.416C27.1076 8.47467 27.093 8.52133 27.0716 8.556C27.0503 8.59067 27.021 8.61467 26.9836 8.628C26.949 8.64133 26.9036 8.648 26.8476 8.648H24.4556ZM28.7881 6.992C28.9161 6.768 29.0628 6.592 29.2281 6.464C29.3961 6.336 29.5881 6.272 29.8041 6.272C29.9908 6.272 30.1428 6.316 30.2601 6.404L30.1801 7.316C30.1668 7.37467 30.1441 7.41467 30.1121 7.436C30.0828 7.45733 30.0415 7.468 29.9881 7.468C29.9668 7.468 29.9388 7.46667 29.9041 7.464C29.8695 7.46133 29.8335 7.45867 29.7961 7.456C29.7588 7.45067 29.7201 7.44667 29.6801 7.444C29.6428 7.43867 29.6081 7.436 29.5761 7.436C29.3948 7.436 29.2495 7.484 29.1401 7.58C29.0335 7.676 28.9428 7.80933 28.8681 7.98V10.5H27.6281V6.352H28.3641C28.4255 6.352 28.4761 6.35733 28.5161 6.368C28.5588 6.37867 28.5935 6.396 28.6201 6.42C28.6495 6.44133 28.6708 6.47067 28.6841 6.508C28.7001 6.54533 28.7135 6.59067 28.7241 6.644L28.7881 6.992ZM34.2828 6.352V10.5H33.5148C33.3601 10.5 33.2588 10.4307 33.2108 10.292L33.1388 10.052C33.0588 10.1293 32.9761 10.2 32.8908 10.264C32.8055 10.3253 32.7135 10.3787 32.6148 10.424C32.5188 10.4667 32.4135 10.5 32.2988 10.524C32.1868 10.5507 32.0641 10.564 31.9308 10.564C31.7041 10.564 31.5028 10.5253 31.3268 10.448C31.1535 10.368 31.0068 10.2573 30.8868 10.116C30.7668 9.97467 30.6761 9.808 30.6148 9.616C30.5535 9.424 30.5228 9.21333 30.5228 8.984V6.352H31.7628V8.984C31.7628 9.18933 31.8095 9.348 31.9028 9.46C31.9961 9.572 32.1335 9.628 32.3148 9.628C32.4508 9.628 32.5775 9.6 32.6948 9.544C32.8148 9.48533 32.9308 9.40667 33.0428 9.308V6.352H34.2828ZM36.1493 6.8C36.2293 6.72533 36.312 6.656 36.3973 6.592C36.4826 6.528 36.5733 6.47467 36.6693 6.432C36.768 6.38667 36.8733 6.352 36.9853 6.328C37.1 6.30133 37.224 6.288 37.3573 6.288C37.584 6.288 37.784 6.328 37.9573 6.408C38.1333 6.48533 38.2813 6.59467 38.4013 6.736C38.5213 6.87467 38.612 7.04133 38.6733 7.236C38.7346 7.428 38.7653 7.63733 38.7653 7.864V10.5H37.5253V7.864C37.5253 7.66133 37.4786 7.504 37.3853 7.392C37.292 7.27733 37.1546 7.22 36.9733 7.22C36.8373 7.22 36.7093 7.24933 36.5893 7.308C36.472 7.364 36.3573 7.44133 36.2453 7.54V10.5H35.0053V6.352H35.7733C35.928 6.352 36.0293 6.42133 36.0773 6.56L36.1493 6.8Z" fill="white"/>
<g opacity="0.75">
<rect x="3" y="13.75" width="1" height="45" transform="rotate(-90 3 13.75)" fill="black"/>
</g>
<path d="M8.97944 19.532H9.19544C9.39544 19.532 9.53944 19.4693 9.62744 19.344L10.9394 17.44C11.0168 17.3387 11.0994 17.2693 11.1874 17.232C11.2781 17.192 11.3901 17.172 11.5234 17.172H12.6994L10.9714 19.528C10.8488 19.6907 10.7168 19.808 10.5754 19.88C10.6768 19.9173 10.7688 19.9693 10.8514 20.036C10.9341 20.1027 11.0114 20.1893 11.0834 20.296L12.8434 23H11.6354C11.5581 23 11.4914 22.9947 11.4354 22.984C11.3821 22.9733 11.3354 22.9573 11.2954 22.936C11.2554 22.9147 11.2208 22.8893 11.1914 22.86C11.1621 22.828 11.1341 22.792 11.1074 22.752L9.78744 20.724C9.73944 20.6493 9.67811 20.5973 9.60344 20.568C9.53144 20.536 9.43277 20.52 9.30744 20.52H8.97944V23H7.62744V17.172H8.97944V19.532ZM15.3028 20.428C15.3028 20.3293 15.2895 20.2333 15.2628 20.14C15.2388 20.0467 15.1975 19.964 15.1388 19.892C15.0828 19.8173 15.0081 19.7573 14.9148 19.712C14.8215 19.6667 14.7081 19.644 14.5748 19.644C14.3401 19.644 14.1561 19.712 14.0228 19.848C13.8895 19.9813 13.8015 20.1747 13.7588 20.428H15.3028ZM13.7428 21.148C13.7828 21.4947 13.8881 21.7467 14.0588 21.904C14.2295 22.0587 14.4495 22.136 14.7188 22.136C14.8628 22.136 14.9868 22.1187 15.0908 22.084C15.1948 22.0493 15.2868 22.0107 15.3668 21.968C15.4495 21.9253 15.5241 21.8867 15.5908 21.852C15.6601 21.8173 15.7321 21.8 15.8068 21.8C15.9055 21.8 15.9801 21.836 16.0308 21.908L16.3908 22.352C16.2628 22.4987 16.1241 22.6187 15.9748 22.712C15.8281 22.8027 15.6761 22.8747 15.5188 22.928C15.3641 22.9787 15.2081 23.0133 15.0508 23.032C14.8961 23.0533 14.7481 23.064 14.6068 23.064C14.3161 23.064 14.0428 23.0173 13.7868 22.924C13.5335 22.828 13.3108 22.6867 13.1188 22.5C12.9295 22.3133 12.7788 22.0813 12.6668 21.804C12.5575 21.5267 12.5028 21.204 12.5028 20.836C12.5028 20.5587 12.5495 20.296 12.6428 20.048C12.7388 19.8 12.8748 19.5827 13.0508 19.396C13.2295 19.2093 13.4441 19.0613 13.6948 18.952C13.9481 18.8427 14.2335 18.788 14.5508 18.788C14.8255 18.788 15.0761 18.8307 15.3028 18.916C15.5321 19.0013 15.7281 19.1253 15.8908 19.288C16.0561 19.4507 16.1841 19.6507 16.2748 19.888C16.3681 20.1227 16.4148 20.3893 16.4148 20.688C16.4148 20.7813 16.4108 20.8573 16.4028 20.916C16.3948 20.9747 16.3801 21.0213 16.3588 21.056C16.3375 21.0907 16.3081 21.1147 16.2708 21.128C16.2361 21.1413 16.1908 21.148 16.1348 21.148H13.7428ZM20.7225 18.852L18.5065 24.076C18.4692 24.1587 18.4238 24.2187 18.3705 24.256C18.3172 24.296 18.2318 24.316 18.1145 24.316H17.1865L17.9865 22.636L16.3305 18.852H17.4265C17.5225 18.852 17.5958 18.8733 17.6465 18.916C17.6998 18.9587 17.7385 19.0093 17.7625 19.068L18.4425 20.856C18.5065 21.0187 18.5585 21.1853 18.5985 21.356C18.6278 21.2707 18.6572 21.1853 18.6865 21.1C18.7158 21.0147 18.7465 20.9307 18.7785 20.848L19.3945 19.068C19.4185 19.0067 19.4612 18.956 19.5225 18.916C19.5838 18.8733 19.6505 18.852 19.7225 18.852H20.7225ZM22.4512 23.064C22.2539 23.064 22.0792 23.036 21.9272 22.98C21.7779 22.9213 21.6512 22.84 21.5472 22.736C21.4459 22.6293 21.3685 22.5013 21.3152 22.352C21.2619 22.2027 21.2352 22.036 21.2352 21.852V19.708H20.8832C20.8192 19.708 20.7645 19.688 20.7192 19.648C20.6739 19.6053 20.6512 19.544 20.6512 19.464V18.98L21.3112 18.852L21.5552 17.84C21.5872 17.712 21.6779 17.648 21.8272 17.648H22.4752V18.86H23.5032V19.708H22.4752V21.768C22.4752 21.864 22.4979 21.944 22.5432 22.008C22.5912 22.0693 22.6592 22.1 22.7472 22.1C22.7925 22.1 22.8299 22.096 22.8592 22.088C22.8912 22.0773 22.9179 22.0667 22.9392 22.056C22.9632 22.0427 22.9845 22.032 23.0032 22.024C23.0245 22.0133 23.0485 22.008 23.0752 22.008C23.1125 22.008 23.1419 22.0173 23.1632 22.036C23.1872 22.052 23.2112 22.0787 23.2352 22.116L23.6112 22.704C23.4512 22.824 23.2712 22.9147 23.0712 22.976C22.8712 23.0347 22.6645 23.064 22.4512 23.064ZM25.0775 19.492C25.2055 19.268 25.3522 19.092 25.5175 18.964C25.6855 18.836 25.8775 18.772 26.0935 18.772C26.2802 18.772 26.4322 18.816 26.5495 18.904L26.4695 19.816C26.4562 19.8747 26.4335 19.9147 26.4015 19.936C26.3722 19.9573 26.3308 19.968 26.2775 19.968C26.2562 19.968 26.2282 19.9667 26.1935 19.964C26.1588 19.9613 26.1228 19.9587 26.0855 19.956C26.0482 19.9507 26.0095 19.9467 25.9695 19.944C25.9322 19.9387 25.8975 19.936 25.8655 19.936C25.6842 19.936 25.5388 19.984 25.4295 20.08C25.3228 20.176 25.2322 20.3093 25.1575 20.48V23H23.9175V18.852H24.6535C24.7148 18.852 24.7655 18.8573 24.8055 18.868C24.8482 18.8787 24.8828 18.896 24.9095 18.92C24.9388 18.9413 24.9602 18.9707 24.9735 19.008C24.9895 19.0453 25.0028 19.0907 25.0135 19.144L25.0775 19.492ZM28.1202 18.852V23H26.8802V18.852H28.1202ZM28.2482 17.716C28.2482 17.8147 28.2282 17.908 28.1882 17.996C28.1482 18.0813 28.0935 18.1573 28.0242 18.224C27.9549 18.288 27.8735 18.34 27.7802 18.38C27.6895 18.4173 27.5922 18.436 27.4882 18.436C27.3869 18.436 27.2922 18.4173 27.2042 18.38C27.1162 18.34 27.0375 18.288 26.9682 18.224C26.9015 18.1573 26.8482 18.0813 26.8082 17.996C26.7709 17.908 26.7522 17.8147 26.7522 17.716C26.7522 17.6147 26.7709 17.52 26.8082 17.432C26.8482 17.344 26.9015 17.2667 26.9682 17.2C27.0375 17.1333 27.1162 17.0813 27.2042 17.044C27.2922 17.0067 27.3869 16.988 27.4882 16.988C27.5922 16.988 27.6895 17.0067 27.7802 17.044C27.8735 17.0813 27.9549 17.1333 28.0242 17.2C28.0935 17.2667 28.1482 17.344 28.1882 17.432C28.2282 17.52 28.2482 17.6147 28.2482 17.716ZM30.445 20.708C30.6503 20.708 30.7983 20.6573 30.889 20.556C30.9823 20.452 31.029 20.3187 31.029 20.156C31.029 19.988 30.9823 19.856 30.889 19.76C30.7983 19.664 30.6503 19.616 30.445 19.616C30.2397 19.616 30.0903 19.664 29.997 19.76C29.9063 19.856 29.861 19.988 29.861 20.156C29.861 20.236 29.8717 20.3093 29.893 20.376C29.917 20.4427 29.953 20.5013 30.001 20.552C30.049 20.6 30.109 20.6387 30.181 20.668C30.2557 20.6947 30.3437 20.708 30.445 20.708ZM31.405 23.152C31.405 23.0533 31.361 22.9827 31.273 22.94C31.185 22.8947 31.0703 22.8627 30.929 22.844C30.7877 22.8253 30.629 22.8147 30.453 22.812C30.2797 22.8067 30.1063 22.796 29.933 22.78C29.8557 22.8333 29.7917 22.8933 29.741 22.96C29.693 23.024 29.669 23.0973 29.669 23.18C29.669 23.2387 29.681 23.292 29.705 23.34C29.7317 23.388 29.777 23.4293 29.841 23.464C29.905 23.4987 29.9903 23.5253 30.097 23.544C30.2063 23.5653 30.3437 23.576 30.509 23.576C30.6877 23.576 30.8343 23.5653 30.949 23.544C31.0637 23.5227 31.1543 23.4933 31.221 23.456C31.2903 23.4187 31.3383 23.3733 31.365 23.32C31.3917 23.2693 31.405 23.2133 31.405 23.152ZM32.629 18.98V19.432C32.629 19.5013 32.609 19.556 32.569 19.596C32.5317 19.636 32.4663 19.6667 32.373 19.688L32.073 19.756C32.089 19.8147 32.101 19.8747 32.109 19.936C32.1197 19.9973 32.125 20.0613 32.125 20.128C32.125 20.336 32.081 20.5227 31.993 20.688C31.9077 20.8533 31.789 20.9947 31.637 21.112C31.4877 21.2267 31.3103 21.316 31.105 21.38C30.8997 21.4413 30.6797 21.472 30.445 21.472C30.381 21.472 30.3183 21.4707 30.257 21.468C30.1957 21.4627 30.1357 21.4547 30.077 21.444C29.9863 21.5 29.941 21.5627 29.941 21.632C29.941 21.7013 29.9783 21.752 30.053 21.784C30.1277 21.8133 30.2263 21.8347 30.349 21.848C30.4717 21.8587 30.6103 21.8667 30.765 21.872C30.9223 21.8747 31.0823 21.884 31.245 21.9C31.4077 21.9133 31.5663 21.9373 31.721 21.972C31.8783 22.0067 32.0183 22.0627 32.141 22.14C32.2637 22.2173 32.3623 22.3213 32.437 22.452C32.5117 22.58 32.549 22.744 32.549 22.944C32.549 23.1307 32.5037 23.3133 32.413 23.492C32.3223 23.6707 32.189 23.8293 32.013 23.968C31.837 24.1067 31.621 24.2173 31.365 24.3C31.109 24.3853 30.8157 24.428 30.485 24.428C30.1597 24.428 29.8783 24.3973 29.641 24.336C29.4063 24.2747 29.2103 24.1933 29.053 24.092C28.8983 23.9933 28.7837 23.8787 28.709 23.748C28.6343 23.6173 28.597 23.4813 28.597 23.34C28.597 23.156 28.6503 23.0027 28.757 22.88C28.8637 22.7573 29.013 22.6587 29.205 22.584C29.1037 22.5227 29.0237 22.444 28.965 22.348C28.9063 22.252 28.877 22.128 28.877 21.976C28.877 21.9147 28.8877 21.8507 28.909 21.784C28.9303 21.7147 28.9637 21.648 29.009 21.584C29.057 21.5173 29.1157 21.4547 29.185 21.396C29.2543 21.3373 29.337 21.2853 29.433 21.24C29.217 21.1253 29.0463 20.9747 28.921 20.788C28.7957 20.5987 28.733 20.3787 28.733 20.128C28.733 19.92 28.777 19.7333 28.865 19.568C28.953 19.4 29.073 19.2587 29.225 19.144C29.3797 19.0267 29.561 18.9373 29.769 18.876C29.977 18.812 30.2023 18.78 30.445 18.78C30.797 18.78 31.109 18.8467 31.381 18.98H32.629ZM34.6063 20.708C34.8116 20.708 34.9596 20.6573 35.0503 20.556C35.1436 20.452 35.1903 20.3187 35.1903 20.156C35.1903 19.988 35.1436 19.856 35.0503 19.76C34.9596 19.664 34.8116 19.616 34.6063 19.616C34.4009 19.616 34.2516 19.664 34.1583 19.76C34.0676 19.856 34.0223 19.988 34.0223 20.156C34.0223 20.236 34.0329 20.3093 34.0543 20.376C34.0783 20.4427 34.1143 20.5013 34.1623 20.552C34.2103 20.6 34.2703 20.6387 34.3423 20.668C34.4169 20.6947 34.5049 20.708 34.6063 20.708ZM35.5663 23.152C35.5663 23.0533 35.5223 22.9827 35.4343 22.94C35.3463 22.8947 35.2316 22.8627 35.0903 22.844C34.9489 22.8253 34.7903 22.8147 34.6143 22.812C34.4409 22.8067 34.2676 22.796 34.0943 22.78C34.0169 22.8333 33.9529 22.8933 33.9023 22.96C33.8543 23.024 33.8303 23.0973 33.8303 23.18C33.8303 23.2387 33.8423 23.292 33.8663 23.34C33.8929 23.388 33.9383 23.4293 34.0023 23.464C34.0663 23.4987 34.1516 23.5253 34.2583 23.544C34.3676 23.5653 34.5049 23.576 34.6703 23.576C34.8489 23.576 34.9956 23.5653 35.1103 23.544C35.2249 23.5227 35.3156 23.4933 35.3823 23.456C35.4516 23.4187 35.4996 23.3733 35.5263 23.32C35.5529 23.2693 35.5663 23.2133 35.5663 23.152ZM36.7903 18.98V19.432C36.7903 19.5013 36.7703 19.556 36.7303 19.596C36.6929 19.636 36.6276 19.6667 36.5343 19.688L36.2343 19.756C36.2503 19.8147 36.2623 19.8747 36.2703 19.936C36.2809 19.9973 36.2863 20.0613 36.2863 20.128C36.2863 20.336 36.2423 20.5227 36.1543 20.688C36.0689 20.8533 35.9503 20.9947 35.7983 21.112C35.6489 21.2267 35.4716 21.316 35.2663 21.38C35.0609 21.4413 34.8409 21.472 34.6063 21.472C34.5423 21.472 34.4796 21.4707 34.4183 21.468C34.3569 21.4627 34.2969 21.4547 34.2383 21.444C34.1476 21.5 34.1023 21.5627 34.1023 21.632C34.1023 21.7013 34.1396 21.752 34.2143 21.784C34.2889 21.8133 34.3876 21.8347 34.5103 21.848C34.6329 21.8587 34.7716 21.8667 34.9263 21.872C35.0836 21.8747 35.2436 21.884 35.4063 21.9C35.5689 21.9133 35.7276 21.9373 35.8823 21.972C36.0396 22.0067 36.1796 22.0627 36.3023 22.14C36.4249 22.2173 36.5236 22.3213 36.5983 22.452C36.6729 22.58 36.7103 22.744 36.7103 22.944C36.7103 23.1307 36.6649 23.3133 36.5743 23.492C36.4836 23.6707 36.3503 23.8293 36.1743 23.968C35.9983 24.1067 35.7823 24.2173 35.5263 24.3C35.2703 24.3853 34.9769 24.428 34.6463 24.428C34.3209 24.428 34.0396 24.3973 33.8023 24.336C33.5676 24.2747 33.3716 24.1933 33.2143 24.092C33.0596 23.9933 32.9449 23.8787 32.8703 23.748C32.7956 23.6173 32.7583 23.4813 32.7583 23.34C32.7583 23.156 32.8116 23.0027 32.9183 22.88C33.0249 22.7573 33.1743 22.6587 33.3663 22.584C33.2649 22.5227 33.1849 22.444 33.1263 22.348C33.0676 22.252 33.0383 22.128 33.0383 21.976C33.0383 21.9147 33.0489 21.8507 33.0703 21.784C33.0916 21.7147 33.1249 21.648 33.1703 21.584C33.2183 21.5173 33.2769 21.4547 33.3463 21.396C33.4156 21.3373 33.4983 21.2853 33.5943 21.24C33.3783 21.1253 33.2076 20.9747 33.0823 20.788C32.9569 20.5987 32.8943 20.3787 32.8943 20.128C32.8943 19.92 32.9383 19.7333 33.0263 19.568C33.1143 19.4 33.2343 19.2587 33.3863 19.144C33.5409 19.0267 33.7223 18.9373 33.9303 18.876C34.1383 18.812 34.3636 18.78 34.6063 18.78C34.9583 18.78 35.2703 18.8467 35.5423 18.98H36.7903ZM39.6894 20.428C39.6894 20.3293 39.676 20.2333 39.6494 20.14C39.6254 20.0467 39.584 19.964 39.5254 19.892C39.4694 19.8173 39.3947 19.7573 39.3014 19.712C39.208 19.6667 39.0947 19.644 38.9614 19.644C38.7267 19.644 38.5427 19.712 38.4094 19.848C38.276 19.9813 38.188 20.1747 38.1454 20.428H39.6894ZM38.1294 21.148C38.1694 21.4947 38.2747 21.7467 38.4454 21.904C38.616 22.0587 38.836 22.136 39.1054 22.136C39.2494 22.136 39.3734 22.1187 39.4774 22.084C39.5814 22.0493 39.6734 22.0107 39.7534 21.968C39.836 21.9253 39.9107 21.8867 39.9774 21.852C40.0467 21.8173 40.1187 21.8 40.1934 21.8C40.292 21.8 40.3667 21.836 40.4174 21.908L40.7774 22.352C40.6494 22.4987 40.5107 22.6187 40.3614 22.712C40.2147 22.8027 40.0627 22.8747 39.9054 22.928C39.7507 22.9787 39.5947 23.0133 39.4374 23.032C39.2827 23.0533 39.1347 23.064 38.9934 23.064C38.7027 23.064 38.4294 23.0173 38.1734 22.924C37.92 22.828 37.6974 22.6867 37.5054 22.5C37.316 22.3133 37.1654 22.0813 37.0534 21.804C36.944 21.5267 36.8894 21.204 36.8894 20.836C36.8894 20.5587 36.936 20.296 37.0294 20.048C37.1254 19.8 37.2614 19.5827 37.4374 19.396C37.616 19.2093 37.8307 19.0613 38.0814 18.952C38.3347 18.8427 38.62 18.788 38.9374 18.788C39.212 18.788 39.4627 18.8307 39.6894 18.916C39.9187 19.0013 40.1147 19.1253 40.2774 19.288C40.4427 19.4507 40.5707 19.6507 40.6614 19.888C40.7547 20.1227 40.8014 20.3893 40.8014 20.688C40.8014 20.7813 40.7974 20.8573 40.7894 20.916C40.7814 20.9747 40.7667 21.0213 40.7454 21.056C40.724 21.0907 40.6947 21.1147 40.6574 21.128C40.6227 21.1413 40.5774 21.148 40.5214 21.148H38.1294ZM42.4619 19.492C42.5899 19.268 42.7365 19.092 42.9019 18.964C43.0699 18.836 43.2619 18.772 43.4779 18.772C43.6645 18.772 43.8165 18.816 43.9339 18.904L43.8539 19.816C43.8405 19.8747 43.8179 19.9147 43.7859 19.936C43.7565 19.9573 43.7152 19.968 43.6619 19.968C43.6405 19.968 43.6125 19.9667 43.5779 19.964C43.5432 19.9613 43.5072 19.9587 43.4699 19.956C43.4325 19.9507 43.3939 19.9467 43.3539 19.944C43.3165 19.9387 43.2819 19.936 43.2499 19.936C43.0685 19.936 42.9232 19.984 42.8139 20.08C42.7072 20.176 42.6165 20.3093 42.5419 20.48V23H41.3019V18.852H42.0379C42.0992 18.852 42.1499 18.8573 42.1899 18.868C42.2325 18.8787 42.2672 18.896 42.2939 18.92C42.3232 18.9413 42.3445 18.9707 42.3579 19.008C42.3739 19.0453 42.3872 19.0907 42.3979 19.144L42.4619 19.492Z" fill="#B4B4B4"/>
<g opacity="0.75">
<rect x="3" y="26.25" width="1" height="45" transform="rotate(-90 3 26.25)" fill="black"/>
</g>
<path d="M13.2913 32.412C13.4753 32.412 13.6313 32.3893 13.7593 32.344C13.8899 32.296 13.9966 32.2307 14.0793 32.148C14.1619 32.0653 14.2219 31.9693 14.2593 31.86C14.2966 31.748 14.3153 31.628 14.3153 31.5C14.3153 31.244 14.2313 31.044 14.0633 30.9C13.8979 30.756 13.6406 30.684 13.2913 30.684H12.7473V32.412H13.2913ZM16.1633 35.5H14.9393C14.7126 35.5 14.5499 35.4147 14.4513 35.244L13.4833 33.552C13.4379 33.48 13.3873 33.428 13.3313 33.396C13.2753 33.3613 13.1953 33.344 13.0913 33.344H12.7473V35.5H11.3953V29.672H13.2913C13.7126 29.672 14.0713 29.716 14.3673 29.804C14.6659 29.8893 14.9086 30.0093 15.0953 30.164C15.2846 30.3187 15.4219 30.5013 15.5073 30.712C15.5926 30.9227 15.6353 31.152 15.6353 31.4C15.6353 31.5893 15.6099 31.768 15.5593 31.936C15.5086 32.104 15.4339 32.26 15.3353 32.404C15.2366 32.5453 15.1139 32.672 14.9673 32.784C14.8233 32.896 14.6566 32.988 14.4673 33.06C14.5553 33.1053 14.6379 33.1627 14.7153 33.232C14.7926 33.2987 14.8619 33.3787 14.9233 33.472L16.1633 35.5ZM18.4588 33.812C18.2108 33.8227 18.0068 33.844 17.8468 33.876C17.6868 33.908 17.5601 33.948 17.4668 33.996C17.3734 34.044 17.3081 34.0987 17.2708 34.16C17.2361 34.2213 17.2188 34.288 17.2188 34.36C17.2188 34.5013 17.2574 34.6013 17.3348 34.66C17.4121 34.716 17.5254 34.744 17.6748 34.744C17.8348 34.744 17.9748 34.716 18.0948 34.66C18.2148 34.604 18.3361 34.5133 18.4588 34.388V33.812ZM16.2268 31.928C16.4774 31.7067 16.7548 31.5427 17.0588 31.436C17.3654 31.3267 17.6934 31.272 18.0428 31.272C18.2934 31.272 18.5188 31.3133 18.7188 31.396C18.9214 31.476 19.0921 31.5893 19.2308 31.736C19.3721 31.88 19.4801 32.052 19.5548 32.252C19.6294 32.452 19.6668 32.6707 19.6668 32.908V35.5H19.0988C18.9814 35.5 18.8921 35.484 18.8308 35.452C18.7721 35.42 18.7228 35.3533 18.6828 35.252L18.5948 35.024C18.4908 35.112 18.3908 35.1893 18.2948 35.256C18.1988 35.3227 18.0988 35.38 17.9948 35.428C17.8934 35.4733 17.7841 35.5067 17.6668 35.528C17.5521 35.552 17.4241 35.564 17.2828 35.564C17.0934 35.564 16.9214 35.54 16.7668 35.492C16.6121 35.4413 16.4801 35.368 16.3708 35.272C16.2641 35.176 16.1814 35.0573 16.1228 34.916C16.0641 34.772 16.0348 34.6067 16.0348 34.42C16.0348 34.2707 16.0721 34.12 16.1468 33.968C16.2214 33.8133 16.3508 33.6733 16.5348 33.548C16.7188 33.42 16.9668 33.3133 17.2788 33.228C17.5908 33.1427 17.9841 33.0947 18.4588 33.084V32.908C18.4588 32.6653 18.4081 32.4907 18.3068 32.384C18.2081 32.2747 18.0668 32.22 17.8828 32.22C17.7361 32.22 17.6161 32.236 17.5228 32.268C17.4294 32.3 17.3454 32.336 17.2708 32.376C17.1988 32.416 17.1281 32.452 17.0588 32.484C16.9894 32.516 16.9068 32.532 16.8108 32.532C16.7254 32.532 16.6534 32.5107 16.5948 32.468C16.5361 32.4253 16.4881 32.3747 16.4508 32.316L16.2268 31.928ZM21.4834 31.8C21.5634 31.7253 21.646 31.656 21.7314 31.592C21.8167 31.528 21.9074 31.4747 22.0034 31.432C22.102 31.3867 22.2074 31.352 22.3194 31.328C22.434 31.3013 22.558 31.288 22.6914 31.288C22.918 31.288 23.118 31.328 23.2914 31.408C23.4674 31.4853 23.6154 31.5947 23.7354 31.736C23.8554 31.8747 23.946 32.0413 24.0074 32.236C24.0687 32.428 24.0994 32.6373 24.0994 32.864V35.5H22.8594V32.864C22.8594 32.6613 22.8127 32.504 22.7194 32.392C22.626 32.2773 22.4887 32.22 22.3074 32.22C22.1714 32.22 22.0434 32.2493 21.9234 32.308C21.806 32.364 21.6914 32.4413 21.5794 32.54V35.5H20.3394V31.352H21.1074C21.262 31.352 21.3634 31.4213 21.4114 31.56L21.4834 31.8ZM27.2979 32.464C27.2045 32.36 27.1032 32.288 26.9939 32.248C26.8845 32.2053 26.7699 32.184 26.6499 32.184C26.5352 32.184 26.4299 32.2067 26.3339 32.252C26.2379 32.2973 26.1539 32.3707 26.0819 32.472C26.0125 32.5707 25.9579 32.7 25.9179 32.86C25.8779 33.02 25.8579 33.2133 25.8579 33.44C25.8579 33.6587 25.8739 33.8427 25.9059 33.992C25.9379 34.1413 25.9819 34.2627 26.0379 34.356C26.0965 34.4467 26.1659 34.512 26.2459 34.552C26.3259 34.592 26.4152 34.612 26.5139 34.612C26.6045 34.612 26.6859 34.604 26.7579 34.588C26.8325 34.5693 26.9005 34.544 26.9619 34.512C27.0232 34.48 27.0805 34.44 27.1339 34.392C27.1899 34.3413 27.2445 34.284 27.2979 34.22V32.464ZM28.5379 29.512V35.5H27.7699C27.6152 35.5 27.5139 35.4307 27.4659 35.292L27.3699 34.976C27.2872 35.064 27.2005 35.144 27.1099 35.216C27.0192 35.288 26.9205 35.3507 26.8139 35.404C26.7099 35.4547 26.5965 35.4933 26.4739 35.52C26.3539 35.5493 26.2232 35.564 26.0819 35.564C25.8659 35.564 25.6659 35.516 25.4819 35.42C25.2979 35.324 25.1392 35.1853 25.0059 35.004C24.8725 34.8227 24.7672 34.6013 24.6899 34.34C24.6152 34.076 24.5779 33.776 24.5779 33.44C24.5779 33.1307 24.6205 32.844 24.7059 32.58C24.7912 32.3133 24.9112 32.084 25.0659 31.892C25.2232 31.6973 25.4112 31.5453 25.6299 31.436C25.8485 31.3267 26.0899 31.272 26.3539 31.272C26.5699 31.272 26.7512 31.3027 26.8979 31.364C27.0445 31.4253 27.1779 31.508 27.2979 31.612V29.512H28.5379ZM31.1676 31.288C31.4823 31.288 31.769 31.3373 32.0276 31.436C32.2863 31.5347 32.5076 31.676 32.6916 31.86C32.8783 32.044 33.0223 32.268 33.1236 32.532C33.2276 32.7933 33.2796 33.088 33.2796 33.416C33.2796 33.7467 33.2276 34.0453 33.1236 34.312C33.0223 34.576 32.8783 34.8013 32.6916 34.988C32.5076 35.172 32.2863 35.3147 32.0276 35.416C31.769 35.5147 31.4823 35.564 31.1676 35.564C30.8503 35.564 30.561 35.5147 30.2996 35.416C30.041 35.3147 29.817 35.172 29.6276 34.988C29.441 34.8013 29.2956 34.576 29.1916 34.312C29.0903 34.0453 29.0396 33.7467 29.0396 33.416C29.0396 33.088 29.0903 32.7933 29.1916 32.532C29.2956 32.268 29.441 32.044 29.6276 31.86C29.817 31.676 30.041 31.5347 30.2996 31.436C30.561 31.3373 30.8503 31.288 31.1676 31.288ZM31.1676 34.644C31.453 34.644 31.6623 34.544 31.7956 34.344C31.9316 34.1413 31.9996 33.8347 31.9996 33.424C31.9996 33.0133 31.9316 32.708 31.7956 32.508C31.6623 32.308 31.453 32.208 31.1676 32.208C30.8743 32.208 30.6596 32.308 30.5236 32.508C30.3876 32.708 30.3196 33.0133 30.3196 33.424C30.3196 33.8347 30.3876 34.1413 30.5236 34.344C30.6596 34.544 30.8743 34.644 31.1676 34.644ZM33.7841 35.5V31.352H34.5521C34.7067 31.352 34.8081 31.4213 34.8561 31.56L34.9241 31.784C34.9934 31.712 35.0654 31.6467 35.1401 31.588C35.2147 31.5267 35.2947 31.4747 35.3801 31.432C35.4681 31.3867 35.5614 31.352 35.6601 31.328C35.7614 31.3013 35.8721 31.288 35.9921 31.288C36.2427 31.288 36.4494 31.3533 36.6121 31.484C36.7774 31.612 36.9027 31.784 36.9881 32C37.0574 31.872 37.1414 31.7627 37.2401 31.672C37.3414 31.5813 37.4494 31.508 37.5641 31.452C37.6814 31.396 37.8041 31.3547 37.9321 31.328C38.0627 31.3013 38.1921 31.288 38.3201 31.288C38.5574 31.288 38.7681 31.324 38.9521 31.396C39.1361 31.4653 39.2894 31.568 39.4121 31.704C39.5374 31.8373 39.6321 32.0027 39.6961 32.2C39.7601 32.3947 39.7921 32.616 39.7921 32.864V35.5H38.5521V32.864C38.5521 32.4347 38.3681 32.22 38.0001 32.22C37.8321 32.22 37.6921 32.276 37.5801 32.388C37.4707 32.4973 37.4161 32.656 37.4161 32.864V35.5H36.1761V32.864C36.1761 32.6267 36.1294 32.46 36.0361 32.364C35.9427 32.268 35.8054 32.22 35.6241 32.22C35.5121 32.22 35.4054 32.2453 35.3041 32.296C35.2054 32.3467 35.1121 32.4147 35.0241 32.5V35.5H33.7841Z" fill="#B4B4B4"/>
<path d="M2.5 1H48.5V0H2.5V1ZM50 2.5V36.5H51V2.5H50ZM48.5 38H2.5V39H48.5V38ZM1 36.5V2.5H0V36.5H1ZM2.5 38C1.67157 38 1 37.3284 1 36.5H0C0 37.8807 1.11929 39 2.5 39V38ZM50 36.5C50 37.3284 49.3284 38 48.5 38V39C49.8807 39 51 37.8807 51 36.5H50ZM48.5 1C49.3284 1 50 1.67157 50 2.5H51C51 1.11929 49.8807 0 48.5 0V1ZM2.5 0C1.11929 0 0 1.11929 0 2.5H1C1 1.67157 1.67157 1 2.5 1V0Z" fill="black"/>
<path d="M0.5 41.5C0.5 40.3954 1.39543 39.5 2.5 39.5H48.5C49.6046 39.5 50.5 40.3954 50.5 41.5V75.5C50.5 76.6046 49.6046 77.5 48.5 77.5H2.5C1.39543 77.5 0.5 76.6046 0.5 75.5V41.5Z" fill="#242424"/>
<path d="M13.7762 44.712V46.188H15.7682V47.232H13.7762V49.5H12.4162V43.672H16.1682V44.712H13.7762ZM17.5387 45.992C17.6667 45.768 17.8134 45.592 17.9787 45.464C18.1467 45.336 18.3387 45.272 18.5547 45.272C18.7414 45.272 18.8934 45.316 19.0107 45.404L18.9307 46.316C18.9174 46.3747 18.8947 46.4147 18.8627 46.436C18.8334 46.4573 18.7921 46.468 18.7387 46.468C18.7174 46.468 18.6894 46.4667 18.6547 46.464C18.6201 46.4613 18.5841 46.4587 18.5467 46.456C18.5094 46.4507 18.4707 46.4467 18.4307 46.444C18.3934 46.4387 18.3587 46.436 18.3267 46.436C18.1454 46.436 18.0001 46.484 17.8907 46.58C17.7841 46.676 17.6934 46.8093 17.6187 46.98V49.5H16.3787V45.352H17.1147C17.1761 45.352 17.2267 45.3573 17.2667 45.368C17.3094 45.3787 17.3441 45.396 17.3707 45.42C17.4001 45.4413 17.4214 45.4707 17.4347 45.508C17.4507 45.5453 17.4641 45.5907 17.4747 45.644L17.5387 45.992ZM21.8231 46.928C21.8231 46.8293 21.8098 46.7333 21.7831 46.64C21.7591 46.5467 21.7178 46.464 21.6591 46.392C21.6031 46.3173 21.5285 46.2573 21.4351 46.212C21.3418 46.1667 21.2285 46.144 21.0951 46.144C20.8605 46.144 20.6765 46.212 20.5431 46.348C20.4098 46.4813 20.3218 46.6747 20.2791 46.928H21.8231ZM20.2631 47.648C20.3031 47.9947 20.4085 48.2467 20.5791 48.404C20.7498 48.5587 20.9698 48.636 21.2391 48.636C21.3831 48.636 21.5071 48.6187 21.6111 48.584C21.7151 48.5493 21.8071 48.5107 21.8871 48.468C21.9698 48.4253 22.0445 48.3867 22.1111 48.352C22.1805 48.3173 22.2525 48.3 22.3271 48.3C22.4258 48.3 22.5005 48.336 22.5511 48.408L22.9111 48.852C22.7831 48.9987 22.6445 49.1187 22.4951 49.212C22.3485 49.3027 22.1965 49.3747 22.0391 49.428C21.8845 49.4787 21.7285 49.5133 21.5711 49.532C21.4165 49.5533 21.2685 49.564 21.1271 49.564C20.8365 49.564 20.5631 49.5173 20.3071 49.424C20.0538 49.328 19.8311 49.1867 19.6391 49C19.4498 48.8133 19.2991 48.5813 19.1871 48.304C19.0778 48.0267 19.0231 47.704 19.0231 47.336C19.0231 47.0587 19.0698 46.796 19.1631 46.548C19.2591 46.3 19.3951 46.0827 19.5711 45.896C19.7498 45.7093 19.9645 45.5613 20.2151 45.452C20.4685 45.3427 20.7538 45.288 21.0711 45.288C21.3458 45.288 21.5965 45.3307 21.8231 45.416C22.0525 45.5013 22.2485 45.6253 22.4111 45.788C22.5765 45.9507 22.7045 46.1507 22.7951 46.388C22.8885 46.6227 22.9351 46.8893 22.9351 47.188C22.9351 47.2813 22.9311 47.3573 22.9231 47.416C22.9151 47.4747 22.9005 47.5213 22.8791 47.556C22.8578 47.5907 22.8285 47.6147 22.7911 47.628C22.7565 47.6413 22.7111 47.648 22.6551 47.648H20.2631ZM26.0156 46.928C26.0156 46.8293 26.0023 46.7333 25.9756 46.64C25.9516 46.5467 25.9103 46.464 25.8516 46.392C25.7956 46.3173 25.721 46.2573 25.6276 46.212C25.5343 46.1667 25.421 46.144 25.2876 46.144C25.053 46.144 24.869 46.212 24.7356 46.348C24.6023 46.4813 24.5143 46.6747 24.4716 46.928H26.0156ZM24.4556 47.648C24.4956 47.9947 24.601 48.2467 24.7716 48.404C24.9423 48.5587 25.1623 48.636 25.4316 48.636C25.5756 48.636 25.6996 48.6187 25.8036 48.584C25.9076 48.5493 25.9996 48.5107 26.0796 48.468C26.1623 48.4253 26.237 48.3867 26.3036 48.352C26.373 48.3173 26.445 48.3 26.5196 48.3C26.6183 48.3 26.693 48.336 26.7436 48.408L27.1036 48.852C26.9756 48.9987 26.837 49.1187 26.6876 49.212C26.541 49.3027 26.389 49.3747 26.2316 49.428C26.077 49.4787 25.921 49.5133 25.7636 49.532C25.609 49.5533 25.461 49.564 25.3196 49.564C25.029 49.564 24.7556 49.5173 24.4996 49.424C24.2463 49.328 24.0236 49.1867 23.8316 49C23.6423 48.8133 23.4916 48.5813 23.3796 48.304C23.2703 48.0267 23.2156 47.704 23.2156 47.336C23.2156 47.0587 23.2623 46.796 23.3556 46.548C23.4516 46.3 23.5876 46.0827 23.7636 45.896C23.9423 45.7093 24.157 45.5613 24.4076 45.452C24.661 45.3427 24.9463 45.288 25.2636 45.288C25.5383 45.288 25.789 45.3307 26.0156 45.416C26.245 45.5013 26.441 45.6253 26.6036 45.788C26.769 45.9507 26.897 46.1507 26.9876 46.388C27.081 46.6227 27.1276 46.8893 27.1276 47.188C27.1276 47.2813 27.1236 47.3573 27.1156 47.416C27.1076 47.4747 27.093 47.5213 27.0716 47.556C27.0503 47.5907 27.021 47.6147 26.9836 47.628C26.949 47.6413 26.9036 47.648 26.8476 47.648H24.4556ZM28.7881 45.992C28.9161 45.768 29.0628 45.592 29.2281 45.464C29.3961 45.336 29.5881 45.272 29.8041 45.272C29.9908 45.272 30.1428 45.316 30.2601 45.404L30.1801 46.316C30.1668 46.3747 30.1441 46.4147 30.1121 46.436C30.0828 46.4573 30.0415 46.468 29.9881 46.468C29.9668 46.468 29.9388 46.4667 29.9041 46.464C29.8695 46.4613 29.8335 46.4587 29.7961 46.456C29.7588 46.4507 29.7201 46.4467 29.6801 46.444C29.6428 46.4387 29.6081 46.436 29.5761 46.436C29.3948 46.436 29.2495 46.484 29.1401 46.58C29.0335 46.676 28.9428 46.8093 28.8681 46.98V49.5H27.6281V45.352H28.3641C28.4255 45.352 28.4761 45.3573 28.5161 45.368C28.5588 45.3787 28.5935 45.396 28.6201 45.42C28.6495 45.4413 28.6708 45.4707 28.6841 45.508C28.7001 45.5453 28.7135 45.5907 28.7241 45.644L28.7881 45.992ZM34.2828 45.352V49.5H33.5148C33.3601 49.5 33.2588 49.4307 33.2108 49.292L33.1388 49.052C33.0588 49.1293 32.9761 49.2 32.8908 49.264C32.8055 49.3253 32.7135 49.3787 32.6148 49.424C32.5188 49.4667 32.4135 49.5 32.2988 49.524C32.1868 49.5507 32.0641 49.564 31.9308 49.564C31.7041 49.564 31.5028 49.5253 31.3268 49.448C31.1535 49.368 31.0068 49.2573 30.8868 49.116C30.7668 48.9747 30.6761 48.808 30.6148 48.616C30.5535 48.424 30.5228 48.2133 30.5228 47.984V45.352H31.7628V47.984C31.7628 48.1893 31.8095 48.348 31.9028 48.46C31.9961 48.572 32.1335 48.628 32.3148 48.628C32.4508 48.628 32.5775 48.6 32.6948 48.544C32.8148 48.4853 32.9308 48.4067 33.0428 48.308V45.352H34.2828ZM36.1493 45.8C36.2293 45.7253 36.312 45.656 36.3973 45.592C36.4826 45.528 36.5733 45.4747 36.6693 45.432C36.768 45.3867 36.8733 45.352 36.9853 45.328C37.1 45.3013 37.224 45.288 37.3573 45.288C37.584 45.288 37.784 45.328 37.9573 45.408C38.1333 45.4853 38.2813 45.5947 38.4013 45.736C38.5213 45.8747 38.612 46.0413 38.6733 46.236C38.7346 46.428 38.7653 46.6373 38.7653 46.864V49.5H37.5253V46.864C37.5253 46.6613 37.4786 46.504 37.3853 46.392C37.292 46.2773 37.1546 46.22 36.9733 46.22C36.8373 46.22 36.7093 46.2493 36.5893 46.308C36.472 46.364 36.3573 46.4413 36.2453 46.54V49.5H35.0053V45.352H35.7733C35.928 45.352 36.0293 45.4213 36.0773 45.56L36.1493 45.8Z" fill="#B4B4B4"/>
<g opacity="0.75">
<rect x="3" y="52.75" width="1" height="45" transform="rotate(-90 3 52.75)" fill="black"/>
</g>
<path d="M2.5 54.5C2.5 53.9477 2.94772 53.5 3.5 53.5H47.5C48.0523 53.5 48.5 53.9477 48.5 54.5V62.5C48.5 63.0523 48.0523 63.5 47.5 63.5H3.5C2.94772 63.5 2.5 63.0523 2.5 62.5V54.5Z" fill="#399DFF"/>
<rect x="2.5" y="53.5" width="46" height="10" rx="1" fill="#399DFF"/>
<rect x="2.5" y="53.5" width="46" height="10" rx="1" stroke="#399DFF"/>
<path d="M8.97944 58.532H9.19544C9.39544 58.532 9.53944 58.4693 9.62744 58.344L10.9394 56.44C11.0168 56.3387 11.0994 56.2693 11.1874 56.232C11.2781 56.192 11.3901 56.172 11.5234 56.172H12.6994L10.9714 58.528C10.8488 58.6907 10.7168 58.808 10.5754 58.88C10.6768 58.9173 10.7688 58.9693 10.8514 59.036C10.9341 59.1027 11.0114 59.1893 11.0834 59.296L12.8434 62H11.6354C11.5581 62 11.4914 61.9947 11.4354 61.984C11.3821 61.9733 11.3354 61.9573 11.2954 61.936C11.2554 61.9147 11.2208 61.8893 11.1914 61.86C11.1621 61.828 11.1341 61.792 11.1074 61.752L9.78744 59.724C9.73944 59.6493 9.67811 59.5973 9.60344 59.568C9.53144 59.536 9.43277 59.52 9.30744 59.52H8.97944V62H7.62744V56.172H8.97944V58.532ZM15.3028 59.428C15.3028 59.3293 15.2895 59.2333 15.2628 59.14C15.2388 59.0467 15.1975 58.964 15.1388 58.892C15.0828 58.8173 15.0081 58.7573 14.9148 58.712C14.8215 58.6667 14.7081 58.644 14.5748 58.644C14.3401 58.644 14.1561 58.712 14.0228 58.848C13.8895 58.9813 13.8015 59.1747 13.7588 59.428H15.3028ZM13.7428 60.148C13.7828 60.4947 13.8881 60.7467 14.0588 60.904C14.2295 61.0587 14.4495 61.136 14.7188 61.136C14.8628 61.136 14.9868 61.1187 15.0908 61.084C15.1948 61.0493 15.2868 61.0107 15.3668 60.968C15.4495 60.9253 15.5241 60.8867 15.5908 60.852C15.6601 60.8173 15.7321 60.8 15.8068 60.8C15.9055 60.8 15.9801 60.836 16.0308 60.908L16.3908 61.352C16.2628 61.4987 16.1241 61.6187 15.9748 61.712C15.8281 61.8027 15.6761 61.8747 15.5188 61.928C15.3641 61.9787 15.2081 62.0133 15.0508 62.032C14.8961 62.0533 14.7481 62.064 14.6068 62.064C14.3161 62.064 14.0428 62.0173 13.7868 61.924C13.5335 61.828 13.3108 61.6867 13.1188 61.5C12.9295 61.3133 12.7788 61.0813 12.6668 60.804C12.5575 60.5267 12.5028 60.204 12.5028 59.836C12.5028 59.5587 12.5495 59.296 12.6428 59.048C12.7388 58.8 12.8748 58.5827 13.0508 58.396C13.2295 58.2093 13.4441 58.0613 13.6948 57.952C13.9481 57.8427 14.2335 57.788 14.5508 57.788C14.8255 57.788 15.0761 57.8307 15.3028 57.916C15.5321 58.0013 15.7281 58.1253 15.8908 58.288C16.0561 58.4507 16.1841 58.6507 16.2748 58.888C16.3681 59.1227 16.4148 59.3893 16.4148 59.688C16.4148 59.7813 16.4108 59.8573 16.4028 59.916C16.3948 59.9747 16.3801 60.0213 16.3588 60.056C16.3375 60.0907 16.3081 60.1147 16.2708 60.128C16.2361 60.1413 16.1908 60.148 16.1348 60.148H13.7428ZM20.7225 57.852L18.5065 63.076C18.4692 63.1587 18.4238 63.2187 18.3705 63.256C18.3172 63.296 18.2318 63.316 18.1145 63.316H17.1865L17.9865 61.636L16.3305 57.852H17.4265C17.5225 57.852 17.5958 57.8733 17.6465 57.916C17.6998 57.9587 17.7385 58.0093 17.7625 58.068L18.4425 59.856C18.5065 60.0187 18.5585 60.1853 18.5985 60.356C18.6278 60.2707 18.6572 60.1853 18.6865 60.1C18.7158 60.0147 18.7465 59.9307 18.7785 59.848L19.3945 58.068C19.4185 58.0067 19.4612 57.956 19.5225 57.916C19.5838 57.8733 19.6505 57.852 19.7225 57.852H20.7225ZM22.4512 62.064C22.2539 62.064 22.0792 62.036 21.9272 61.98C21.7779 61.9213 21.6512 61.84 21.5472 61.736C21.4459 61.6293 21.3685 61.5013 21.3152 61.352C21.2619 61.2027 21.2352 61.036 21.2352 60.852V58.708H20.8832C20.8192 58.708 20.7645 58.688 20.7192 58.648C20.6739 58.6053 20.6512 58.544 20.6512 58.464V57.98L21.3112 57.852L21.5552 56.84C21.5872 56.712 21.6779 56.648 21.8272 56.648H22.4752V57.86H23.5032V58.708H22.4752V60.768C22.4752 60.864 22.4979 60.944 22.5432 61.008C22.5912 61.0693 22.6592 61.1 22.7472 61.1C22.7925 61.1 22.8299 61.096 22.8592 61.088C22.8912 61.0773 22.9179 61.0667 22.9392 61.056C22.9632 61.0427 22.9845 61.032 23.0032 61.024C23.0245 61.0133 23.0485 61.008 23.0752 61.008C23.1125 61.008 23.1419 61.0173 23.1632 61.036C23.1872 61.052 23.2112 61.0787 23.2352 61.116L23.6112 61.704C23.4512 61.824 23.2712 61.9147 23.0712 61.976C22.8712 62.0347 22.6645 62.064 22.4512 62.064ZM25.0775 58.492C25.2055 58.268 25.3522 58.092 25.5175 57.964C25.6855 57.836 25.8775 57.772 26.0935 57.772C26.2802 57.772 26.4322 57.816 26.5495 57.904L26.4695 58.816C26.4562 58.8747 26.4335 58.9147 26.4015 58.936C26.3722 58.9573 26.3308 58.968 26.2775 58.968C26.2562 58.968 26.2282 58.9667 26.1935 58.964C26.1588 58.9613 26.1228 58.9587 26.0855 58.956C26.0482 58.9507 26.0095 58.9467 25.9695 58.944C25.9322 58.9387 25.8975 58.936 25.8655 58.936C25.6842 58.936 25.5388 58.984 25.4295 59.08C25.3228 59.176 25.2322 59.3093 25.1575 59.48V62H23.9175V57.852H24.6535C24.7148 57.852 24.7655 57.8573 24.8055 57.868C24.8482 57.8787 24.8828 57.896 24.9095 57.92C24.9388 57.9413 24.9602 57.9707 24.9735 58.008C24.9895 58.0453 25.0028 58.0907 25.0135 58.144L25.0775 58.492ZM28.1202 57.852V62H26.8802V57.852H28.1202ZM28.2482 56.716C28.2482 56.8147 28.2282 56.908 28.1882 56.996C28.1482 57.0813 28.0935 57.1573 28.0242 57.224C27.9549 57.288 27.8735 57.34 27.7802 57.38C27.6895 57.4173 27.5922 57.436 27.4882 57.436C27.3869 57.436 27.2922 57.4173 27.2042 57.38C27.1162 57.34 27.0375 57.288 26.9682 57.224C26.9015 57.1573 26.8482 57.0813 26.8082 56.996C26.7709 56.908 26.7522 56.8147 26.7522 56.716C26.7522 56.6147 26.7709 56.52 26.8082 56.432C26.8482 56.344 26.9015 56.2667 26.9682 56.2C27.0375 56.1333 27.1162 56.0813 27.2042 56.044C27.2922 56.0067 27.3869 55.988 27.4882 55.988C27.5922 55.988 27.6895 56.0067 27.7802 56.044C27.8735 56.0813 27.9549 56.1333 28.0242 56.2C28.0935 56.2667 28.1482 56.344 28.1882 56.432C28.2282 56.52 28.2482 56.6147 28.2482 56.716ZM30.445 59.708C30.6503 59.708 30.7983 59.6573 30.889 59.556C30.9823 59.452 31.029 59.3187 31.029 59.156C31.029 58.988 30.9823 58.856 30.889 58.76C30.7983 58.664 30.6503 58.616 30.445 58.616C30.2397 58.616 30.0903 58.664 29.997 58.76C29.9063 58.856 29.861 58.988 29.861 59.156C29.861 59.236 29.8717 59.3093 29.893 59.376C29.917 59.4427 29.953 59.5013 30.001 59.552C30.049 59.6 30.109 59.6387 30.181 59.668C30.2557 59.6947 30.3437 59.708 30.445 59.708ZM31.405 62.152C31.405 62.0533 31.361 61.9827 31.273 61.94C31.185 61.8947 31.0703 61.8627 30.929 61.844C30.7877 61.8253 30.629 61.8147 30.453 61.812C30.2797 61.8067 30.1063 61.796 29.933 61.78C29.8557 61.8333 29.7917 61.8933 29.741 61.96C29.693 62.024 29.669 62.0973 29.669 62.18C29.669 62.2387 29.681 62.292 29.705 62.34C29.7317 62.388 29.777 62.4293 29.841 62.464C29.905 62.4987 29.9903 62.5253 30.097 62.544C30.2063 62.5653 30.3437 62.576 30.509 62.576C30.6877 62.576 30.8343 62.5653 30.949 62.544C31.0637 62.5227 31.1543 62.4933 31.221 62.456C31.2903 62.4187 31.3383 62.3733 31.365 62.32C31.3917 62.2693 31.405 62.2133 31.405 62.152ZM32.629 57.98V58.432C32.629 58.5013 32.609 58.556 32.569 58.596C32.5317 58.636 32.4663 58.6667 32.373 58.688L32.073 58.756C32.089 58.8147 32.101 58.8747 32.109 58.936C32.1197 58.9973 32.125 59.0613 32.125 59.128C32.125 59.336 32.081 59.5227 31.993 59.688C31.9077 59.8533 31.789 59.9947 31.637 60.112C31.4877 60.2267 31.3103 60.316 31.105 60.38C30.8997 60.4413 30.6797 60.472 30.445 60.472C30.381 60.472 30.3183 60.4707 30.257 60.468C30.1957 60.4627 30.1357 60.4547 30.077 60.444C29.9863 60.5 29.941 60.5627 29.941 60.632C29.941 60.7013 29.9783 60.752 30.053 60.784C30.1277 60.8133 30.2263 60.8347 30.349 60.848C30.4717 60.8587 30.6103 60.8667 30.765 60.872C30.9223 60.8747 31.0823 60.884 31.245 60.9C31.4077 60.9133 31.5663 60.9373 31.721 60.972C31.8783 61.0067 32.0183 61.0627 32.141 61.14C32.2637 61.2173 32.3623 61.3213 32.437 61.452C32.5117 61.58 32.549 61.744 32.549 61.944C32.549 62.1307 32.5037 62.3133 32.413 62.492C32.3223 62.6707 32.189 62.8293 32.013 62.968C31.837 63.1067 31.621 63.2173 31.365 63.3C31.109 63.3853 30.8157 63.428 30.485 63.428C30.1597 63.428 29.8783 63.3973 29.641 63.336C29.4063 63.2747 29.2103 63.1933 29.053 63.092C28.8983 62.9933 28.7837 62.8787 28.709 62.748C28.6343 62.6173 28.597 62.4813 28.597 62.34C28.597 62.156 28.6503 62.0027 28.757 61.88C28.8637 61.7573 29.013 61.6587 29.205 61.584C29.1037 61.5227 29.0237 61.444 28.965 61.348C28.9063 61.252 28.877 61.128 28.877 60.976C28.877 60.9147 28.8877 60.8507 28.909 60.784C28.9303 60.7147 28.9637 60.648 29.009 60.584C29.057 60.5173 29.1157 60.4547 29.185 60.396C29.2543 60.3373 29.337 60.2853 29.433 60.24C29.217 60.1253 29.0463 59.9747 28.921 59.788C28.7957 59.5987 28.733 59.3787 28.733 59.128C28.733 58.92 28.777 58.7333 28.865 58.568C28.953 58.4 29.073 58.2587 29.225 58.144C29.3797 58.0267 29.561 57.9373 29.769 57.876C29.977 57.812 30.2023 57.78 30.445 57.78C30.797 57.78 31.109 57.8467 31.381 57.98H32.629ZM34.6063 59.708C34.8116 59.708 34.9596 59.6573 35.0503 59.556C35.1436 59.452 35.1903 59.3187 35.1903 59.156C35.1903 58.988 35.1436 58.856 35.0503 58.76C34.9596 58.664 34.8116 58.616 34.6063 58.616C34.4009 58.616 34.2516 58.664 34.1583 58.76C34.0676 58.856 34.0223 58.988 34.0223 59.156C34.0223 59.236 34.0329 59.3093 34.0543 59.376C34.0783 59.4427 34.1143 59.5013 34.1623 59.552C34.2103 59.6 34.2703 59.6387 34.3423 59.668C34.4169 59.6947 34.5049 59.708 34.6063 59.708ZM35.5663 62.152C35.5663 62.0533 35.5223 61.9827 35.4343 61.94C35.3463 61.8947 35.2316 61.8627 35.0903 61.844C34.9489 61.8253 34.7903 61.8147 34.6143 61.812C34.4409 61.8067 34.2676 61.796 34.0943 61.78C34.0169 61.8333 33.9529 61.8933 33.9023 61.96C33.8543 62.024 33.8303 62.0973 33.8303 62.18C33.8303 62.2387 33.8423 62.292 33.8663 62.34C33.8929 62.388 33.9383 62.4293 34.0023 62.464C34.0663 62.4987 34.1516 62.5253 34.2583 62.544C34.3676 62.5653 34.5049 62.576 34.6703 62.576C34.8489 62.576 34.9956 62.5653 35.1103 62.544C35.2249 62.5227 35.3156 62.4933 35.3823 62.456C35.4516 62.4187 35.4996 62.3733 35.5263 62.32C35.5529 62.2693 35.5663 62.2133 35.5663 62.152ZM36.7903 57.98V58.432C36.7903 58.5013 36.7703 58.556 36.7303 58.596C36.6929 58.636 36.6276 58.6667 36.5343 58.688L36.2343 58.756C36.2503 58.8147 36.2623 58.8747 36.2703 58.936C36.2809 58.9973 36.2863 59.0613 36.2863 59.128C36.2863 59.336 36.2423 59.5227 36.1543 59.688C36.0689 59.8533 35.9503 59.9947 35.7983 60.112C35.6489 60.2267 35.4716 60.316 35.2663 60.38C35.0609 60.4413 34.8409 60.472 34.6063 60.472C34.5423 60.472 34.4796 60.4707 34.4183 60.468C34.3569 60.4627 34.2969 60.4547 34.2383 60.444C34.1476 60.5 34.1023 60.5627 34.1023 60.632C34.1023 60.7013 34.1396 60.752 34.2143 60.784C34.2889 60.8133 34.3876 60.8347 34.5103 60.848C34.6329 60.8587 34.7716 60.8667 34.9263 60.872C35.0836 60.8747 35.2436 60.884 35.4063 60.9C35.5689 60.9133 35.7276 60.9373 35.8823 60.972C36.0396 61.0067 36.1796 61.0627 36.3023 61.14C36.4249 61.2173 36.5236 61.3213 36.5983 61.452C36.6729 61.58 36.7103 61.744 36.7103 61.944C36.7103 62.1307 36.6649 62.3133 36.5743 62.492C36.4836 62.6707 36.3503 62.8293 36.1743 62.968C35.9983 63.1067 35.7823 63.2173 35.5263 63.3C35.2703 63.3853 34.9769 63.428 34.6463 63.428C34.3209 63.428 34.0396 63.3973 33.8023 63.336C33.5676 63.2747 33.3716 63.1933 33.2143 63.092C33.0596 62.9933 32.9449 62.8787 32.8703 62.748C32.7956 62.6173 32.7583 62.4813 32.7583 62.34C32.7583 62.156 32.8116 62.0027 32.9183 61.88C33.0249 61.7573 33.1743 61.6587 33.3663 61.584C33.2649 61.5227 33.1849 61.444 33.1263 61.348C33.0676 61.252 33.0383 61.128 33.0383 60.976C33.0383 60.9147 33.0489 60.8507 33.0703 60.784C33.0916 60.7147 33.1249 60.648 33.1703 60.584C33.2183 60.5173 33.2769 60.4547 33.3463 60.396C33.4156 60.3373 33.4983 60.2853 33.5943 60.24C33.3783 60.1253 33.2076 59.9747 33.0823 59.788C32.9569 59.5987 32.8943 59.3787 32.8943 59.128C32.8943 58.92 32.9383 58.7333 33.0263 58.568C33.1143 58.4 33.2343 58.2587 33.3863 58.144C33.5409 58.0267 33.7223 57.9373 33.9303 57.876C34.1383 57.812 34.3636 57.78 34.6063 57.78C34.9583 57.78 35.2703 57.8467 35.5423 57.98H36.7903ZM39.6894 59.428C39.6894 59.3293 39.676 59.2333 39.6494 59.14C39.6254 59.0467 39.584 58.964 39.5254 58.892C39.4694 58.8173 39.3947 58.7573 39.3014 58.712C39.208 58.6667 39.0947 58.644 38.9614 58.644C38.7267 58.644 38.5427 58.712 38.4094 58.848C38.276 58.9813 38.188 59.1747 38.1454 59.428H39.6894ZM38.1294 60.148C38.1694 60.4947 38.2747 60.7467 38.4454 60.904C38.616 61.0587 38.836 61.136 39.1054 61.136C39.2494 61.136 39.3734 61.1187 39.4774 61.084C39.5814 61.0493 39.6734 61.0107 39.7534 60.968C39.836 60.9253 39.9107 60.8867 39.9774 60.852C40.0467 60.8173 40.1187 60.8 40.1934 60.8C40.292 60.8 40.3667 60.836 40.4174 60.908L40.7774 61.352C40.6494 61.4987 40.5107 61.6187 40.3614 61.712C40.2147 61.8027 40.0627 61.8747 39.9054 61.928C39.7507 61.9787 39.5947 62.0133 39.4374 62.032C39.2827 62.0533 39.1347 62.064 38.9934 62.064C38.7027 62.064 38.4294 62.0173 38.1734 61.924C37.92 61.828 37.6974 61.6867 37.5054 61.5C37.316 61.3133 37.1654 61.0813 37.0534 60.804C36.944 60.5267 36.8894 60.204 36.8894 59.836C36.8894 59.5587 36.936 59.296 37.0294 59.048C37.1254 58.8 37.2614 58.5827 37.4374 58.396C37.616 58.2093 37.8307 58.0613 38.0814 57.952C38.3347 57.8427 38.62 57.788 38.9374 57.788C39.212 57.788 39.4627 57.8307 39.6894 57.916C39.9187 58.0013 40.1147 58.1253 40.2774 58.288C40.4427 58.4507 40.5707 58.6507 40.6614 58.888C40.7547 59.1227 40.8014 59.3893 40.8014 59.688C40.8014 59.7813 40.7974 59.8573 40.7894 59.916C40.7814 59.9747 40.7667 60.0213 40.7454 60.056C40.724 60.0907 40.6947 60.1147 40.6574 60.128C40.6227 60.1413 40.5774 60.148 40.5214 60.148H38.1294ZM42.4619 58.492C42.5899 58.268 42.7365 58.092 42.9019 57.964C43.0699 57.836 43.2619 57.772 43.4779 57.772C43.6645 57.772 43.8165 57.816 43.9339 57.904L43.8539 58.816C43.8405 58.8747 43.8179 58.9147 43.7859 58.936C43.7565 58.9573 43.7152 58.968 43.6619 58.968C43.6405 58.968 43.6125 58.9667 43.5779 58.964C43.5432 58.9613 43.5072 58.9587 43.4699 58.956C43.4325 58.9507 43.3939 58.9467 43.3539 58.944C43.3165 58.9387 43.2819 58.936 43.2499 58.936C43.0685 58.936 42.9232 58.984 42.8139 59.08C42.7072 59.176 42.6165 59.3093 42.5419 59.48V62H41.3019V57.852H42.0379C42.0992 57.852 42.1499 57.8573 42.1899 57.868C42.2325 57.8787 42.2672 57.896 42.2939 57.92C42.3232 57.9413 42.3445 57.9707 42.3579 58.008C42.3739 58.0453 42.3872 58.0907 42.3979 58.144L42.4619 58.492Z" fill="white"/>
<g opacity="0.75">
<rect x="3" y="65.25" width="1" height="45" transform="rotate(-90 3 65.25)" fill="black"/>
</g>
<path d="M13.2913 71.412C13.4753 71.412 13.6313 71.3893 13.7593 71.344C13.8899 71.296 13.9966 71.2307 14.0793 71.148C14.1619 71.0653 14.2219 70.9693 14.2593 70.86C14.2966 70.748 14.3153 70.628 14.3153 70.5C14.3153 70.244 14.2313 70.044 14.0633 69.9C13.8979 69.756 13.6406 69.684 13.2913 69.684H12.7473V71.412H13.2913ZM16.1633 74.5H14.9393C14.7126 74.5 14.5499 74.4147 14.4513 74.244L13.4833 72.552C13.4379 72.48 13.3873 72.428 13.3313 72.396C13.2753 72.3613 13.1953 72.344 13.0913 72.344H12.7473V74.5H11.3953V68.672H13.2913C13.7126 68.672 14.0713 68.716 14.3673 68.804C14.6659 68.8893 14.9086 69.0093 15.0953 69.164C15.2846 69.3187 15.4219 69.5013 15.5073 69.712C15.5926 69.9227 15.6353 70.152 15.6353 70.4C15.6353 70.5893 15.6099 70.768 15.5593 70.936C15.5086 71.104 15.4339 71.26 15.3353 71.404C15.2366 71.5453 15.1139 71.672 14.9673 71.784C14.8233 71.896 14.6566 71.988 14.4673 72.06C14.5553 72.1053 14.6379 72.1627 14.7153 72.232C14.7926 72.2987 14.8619 72.3787 14.9233 72.472L16.1633 74.5ZM18.4588 72.812C18.2108 72.8227 18.0068 72.844 17.8468 72.876C17.6868 72.908 17.5601 72.948 17.4668 72.996C17.3734 73.044 17.3081 73.0987 17.2708 73.16C17.2361 73.2213 17.2188 73.288 17.2188 73.36C17.2188 73.5013 17.2574 73.6013 17.3348 73.66C17.4121 73.716 17.5254 73.744 17.6748 73.744C17.8348 73.744 17.9748 73.716 18.0948 73.66C18.2148 73.604 18.3361 73.5133 18.4588 73.388V72.812ZM16.2268 70.928C16.4774 70.7067 16.7548 70.5427 17.0588 70.436C17.3654 70.3267 17.6934 70.272 18.0428 70.272C18.2934 70.272 18.5188 70.3133 18.7188 70.396C18.9214 70.476 19.0921 70.5893 19.2308 70.736C19.3721 70.88 19.4801 71.052 19.5548 71.252C19.6294 71.452 19.6668 71.6707 19.6668 71.908V74.5H19.0988C18.9814 74.5 18.8921 74.484 18.8308 74.452C18.7721 74.42 18.7228 74.3533 18.6828 74.252L18.5948 74.024C18.4908 74.112 18.3908 74.1893 18.2948 74.256C18.1988 74.3227 18.0988 74.38 17.9948 74.428C17.8934 74.4733 17.7841 74.5067 17.6668 74.528C17.5521 74.552 17.4241 74.564 17.2828 74.564C17.0934 74.564 16.9214 74.54 16.7668 74.492C16.6121 74.4413 16.4801 74.368 16.3708 74.272C16.2641 74.176 16.1814 74.0573 16.1228 73.916C16.0641 73.772 16.0348 73.6067 16.0348 73.42C16.0348 73.2707 16.0721 73.12 16.1468 72.968C16.2214 72.8133 16.3508 72.6733 16.5348 72.548C16.7188 72.42 16.9668 72.3133 17.2788 72.228C17.5908 72.1427 17.9841 72.0947 18.4588 72.084V71.908C18.4588 71.6653 18.4081 71.4907 18.3068 71.384C18.2081 71.2747 18.0668 71.22 17.8828 71.22C17.7361 71.22 17.6161 71.236 17.5228 71.268C17.4294 71.3 17.3454 71.336 17.2708 71.376C17.1988 71.416 17.1281 71.452 17.0588 71.484C16.9894 71.516 16.9068 71.532 16.8108 71.532C16.7254 71.532 16.6534 71.5107 16.5948 71.468C16.5361 71.4253 16.4881 71.3747 16.4508 71.316L16.2268 70.928ZM21.4834 70.8C21.5634 70.7253 21.646 70.656 21.7314 70.592C21.8167 70.528 21.9074 70.4747 22.0034 70.432C22.102 70.3867 22.2074 70.352 22.3194 70.328C22.434 70.3013 22.558 70.288 22.6914 70.288C22.918 70.288 23.118 70.328 23.2914 70.408C23.4674 70.4853 23.6154 70.5947 23.7354 70.736C23.8554 70.8747 23.946 71.0413 24.0074 71.236C24.0687 71.428 24.0994 71.6373 24.0994 71.864V74.5H22.8594V71.864C22.8594 71.6613 22.8127 71.504 22.7194 71.392C22.626 71.2773 22.4887 71.22 22.3074 71.22C22.1714 71.22 22.0434 71.2493 21.9234 71.308C21.806 71.364 21.6914 71.4413 21.5794 71.54V74.5H20.3394V70.352H21.1074C21.262 70.352 21.3634 70.4213 21.4114 70.56L21.4834 70.8ZM27.2979 71.464C27.2045 71.36 27.1032 71.288 26.9939 71.248C26.8845 71.2053 26.7699 71.184 26.6499 71.184C26.5352 71.184 26.4299 71.2067 26.3339 71.252C26.2379 71.2973 26.1539 71.3707 26.0819 71.472C26.0125 71.5707 25.9579 71.7 25.9179 71.86C25.8779 72.02 25.8579 72.2133 25.8579 72.44C25.8579 72.6587 25.8739 72.8427 25.9059 72.992C25.9379 73.1413 25.9819 73.2627 26.0379 73.356C26.0965 73.4467 26.1659 73.512 26.2459 73.552C26.3259 73.592 26.4152 73.612 26.5139 73.612C26.6045 73.612 26.6859 73.604 26.7579 73.588C26.8325 73.5693 26.9005 73.544 26.9619 73.512C27.0232 73.48 27.0805 73.44 27.1339 73.392C27.1899 73.3413 27.2445 73.284 27.2979 73.22V71.464ZM28.5379 68.512V74.5H27.7699C27.6152 74.5 27.5139 74.4307 27.4659 74.292L27.3699 73.976C27.2872 74.064 27.2005 74.144 27.1099 74.216C27.0192 74.288 26.9205 74.3507 26.8139 74.404C26.7099 74.4547 26.5965 74.4933 26.4739 74.52C26.3539 74.5493 26.2232 74.564 26.0819 74.564C25.8659 74.564 25.6659 74.516 25.4819 74.42C25.2979 74.324 25.1392 74.1853 25.0059 74.004C24.8725 73.8227 24.7672 73.6013 24.6899 73.34C24.6152 73.076 24.5779 72.776 24.5779 72.44C24.5779 72.1307 24.6205 71.844 24.7059 71.58C24.7912 71.3133 24.9112 71.084 25.0659 70.892C25.2232 70.6973 25.4112 70.5453 25.6299 70.436C25.8485 70.3267 26.0899 70.272 26.3539 70.272C26.5699 70.272 26.7512 70.3027 26.8979 70.364C27.0445 70.4253 27.1779 70.508 27.2979 70.612V68.512H28.5379ZM31.1676 70.288C31.4823 70.288 31.769 70.3373 32.0276 70.436C32.2863 70.5347 32.5076 70.676 32.6916 70.86C32.8783 71.044 33.0223 71.268 33.1236 71.532C33.2276 71.7933 33.2796 72.088 33.2796 72.416C33.2796 72.7467 33.2276 73.0453 33.1236 73.312C33.0223 73.576 32.8783 73.8013 32.6916 73.988C32.5076 74.172 32.2863 74.3147 32.0276 74.416C31.769 74.5147 31.4823 74.564 31.1676 74.564C30.8503 74.564 30.561 74.5147 30.2996 74.416C30.041 74.3147 29.817 74.172 29.6276 73.988C29.441 73.8013 29.2956 73.576 29.1916 73.312C29.0903 73.0453 29.0396 72.7467 29.0396 72.416C29.0396 72.088 29.0903 71.7933 29.1916 71.532C29.2956 71.268 29.441 71.044 29.6276 70.86C29.817 70.676 30.041 70.5347 30.2996 70.436C30.561 70.3373 30.8503 70.288 31.1676 70.288ZM31.1676 73.644C31.453 73.644 31.6623 73.544 31.7956 73.344C31.9316 73.1413 31.9996 72.8347 31.9996 72.424C31.9996 72.0133 31.9316 71.708 31.7956 71.508C31.6623 71.308 31.453 71.208 31.1676 71.208C30.8743 71.208 30.6596 71.308 30.5236 71.508C30.3876 71.708 30.3196 72.0133 30.3196 72.424C30.3196 72.8347 30.3876 73.1413 30.5236 73.344C30.6596 73.544 30.8743 73.644 31.1676 73.644ZM33.7841 74.5V70.352H34.5521C34.7067 70.352 34.8081 70.4213 34.8561 70.56L34.9241 70.784C34.9934 70.712 35.0654 70.6467 35.1401 70.588C35.2147 70.5267 35.2947 70.4747 35.3801 70.432C35.4681 70.3867 35.5614 70.352 35.6601 70.328C35.7614 70.3013 35.8721 70.288 35.9921 70.288C36.2427 70.288 36.4494 70.3533 36.6121 70.484C36.7774 70.612 36.9027 70.784 36.9881 71C37.0574 70.872 37.1414 70.7627 37.2401 70.672C37.3414 70.5813 37.4494 70.508 37.5641 70.452C37.6814 70.396 37.8041 70.3547 37.9321 70.328C38.0627 70.3013 38.1921 70.288 38.3201 70.288C38.5574 70.288 38.7681 70.324 38.9521 70.396C39.1361 70.4653 39.2894 70.568 39.4121 70.704C39.5374 70.8373 39.6321 71.0027 39.6961 71.2C39.7601 71.3947 39.7921 71.616 39.7921 71.864V74.5H38.5521V71.864C38.5521 71.4347 38.3681 71.22 38.0001 71.22C37.8321 71.22 37.6921 71.276 37.5801 71.388C37.4707 71.4973 37.4161 71.656 37.4161 71.864V74.5H36.1761V71.864C36.1761 71.6267 36.1294 71.46 36.0361 71.364C35.9427 71.268 35.8054 71.22 35.6241 71.22C35.5121 71.22 35.4054 71.2453 35.3041 71.296C35.2054 71.3467 35.1121 71.4147 35.0241 71.5V74.5H33.7841Z" fill="#B4B4B4"/>
<path d="M2.5 40H48.5V39H2.5V40ZM50 41.5V75.5H51V41.5H50ZM48.5 77H2.5V78H48.5V77ZM1 75.5V41.5H0V75.5H1ZM2.5 77C1.67157 77 1 76.3284 1 75.5H0C0 76.8807 1.11929 78 2.5 78V77ZM50 75.5C50 76.3284 49.3284 77 48.5 77V78C49.8807 78 51 76.8807 51 75.5H50ZM48.5 40C49.3284 40 50 40.6716 50 41.5H51C51 40.1193 49.8807 39 48.5 39V40ZM2.5 39C1.11929 39 0 40.1193 0 41.5H1C1 40.6716 1.67157 40 2.5 40V39Z" fill="black"/>
<path d="M0.5 80.5C0.5 79.3954 1.39543 78.5 2.5 78.5H48.5C49.6046 78.5 50.5 79.3954 50.5 80.5V114.5C50.5 115.605 49.6046 116.5 48.5 116.5H2.5C1.39543 116.5 0.5 115.605 0.5 114.5V80.5Z" fill="#242424"/>
<path d="M13.7762 83.712V85.188H15.7682V86.232H13.7762V88.5H12.4162V82.672H16.1682V83.712H13.7762ZM17.5387 84.992C17.6667 84.768 17.8134 84.592 17.9787 84.464C18.1467 84.336 18.3387 84.272 18.5547 84.272C18.7414 84.272 18.8934 84.316 19.0107 84.404L18.9307 85.316C18.9174 85.3747 18.8947 85.4147 18.8627 85.436C18.8334 85.4573 18.7921 85.468 18.7387 85.468C18.7174 85.468 18.6894 85.4667 18.6547 85.464C18.6201 85.4613 18.5841 85.4587 18.5467 85.456C18.5094 85.4507 18.4707 85.4467 18.4307 85.444C18.3934 85.4387 18.3587 85.436 18.3267 85.436C18.1454 85.436 18.0001 85.484 17.8907 85.58C17.7841 85.676 17.6934 85.8093 17.6187 85.98V88.5H16.3787V84.352H17.1147C17.1761 84.352 17.2267 84.3573 17.2667 84.368C17.3094 84.3787 17.3441 84.396 17.3707 84.42C17.4001 84.4413 17.4214 84.4707 17.4347 84.508C17.4507 84.5453 17.4641 84.5907 17.4747 84.644L17.5387 84.992ZM21.8231 85.928C21.8231 85.8293 21.8098 85.7333 21.7831 85.64C21.7591 85.5467 21.7178 85.464 21.6591 85.392C21.6031 85.3173 21.5285 85.2573 21.4351 85.212C21.3418 85.1667 21.2285 85.144 21.0951 85.144C20.8605 85.144 20.6765 85.212 20.5431 85.348C20.4098 85.4813 20.3218 85.6747 20.2791 85.928H21.8231ZM20.2631 86.648C20.3031 86.9947 20.4085 87.2467 20.5791 87.404C20.7498 87.5587 20.9698 87.636 21.2391 87.636C21.3831 87.636 21.5071 87.6187 21.6111 87.584C21.7151 87.5493 21.8071 87.5107 21.8871 87.468C21.9698 87.4253 22.0445 87.3867 22.1111 87.352C22.1805 87.3173 22.2525 87.3 22.3271 87.3C22.4258 87.3 22.5005 87.336 22.5511 87.408L22.9111 87.852C22.7831 87.9987 22.6445 88.1187 22.4951 88.212C22.3485 88.3027 22.1965 88.3747 22.0391 88.428C21.8845 88.4787 21.7285 88.5133 21.5711 88.532C21.4165 88.5533 21.2685 88.564 21.1271 88.564C20.8365 88.564 20.5631 88.5173 20.3071 88.424C20.0538 88.328 19.8311 88.1867 19.6391 88C19.4498 87.8133 19.2991 87.5813 19.1871 87.304C19.0778 87.0267 19.0231 86.704 19.0231 86.336C19.0231 86.0587 19.0698 85.796 19.1631 85.548C19.2591 85.3 19.3951 85.0827 19.5711 84.896C19.7498 84.7093 19.9645 84.5613 20.2151 84.452C20.4685 84.3427 20.7538 84.288 21.0711 84.288C21.3458 84.288 21.5965 84.3307 21.8231 84.416C22.0525 84.5013 22.2485 84.6253 22.4111 84.788C22.5765 84.9507 22.7045 85.1507 22.7951 85.388C22.8885 85.6227 22.9351 85.8893 22.9351 86.188C22.9351 86.2813 22.9311 86.3573 22.9231 86.416C22.9151 86.4747 22.9005 86.5213 22.8791 86.556C22.8578 86.5907 22.8285 86.6147 22.7911 86.628C22.7565 86.6413 22.7111 86.648 22.6551 86.648H20.2631ZM26.0156 85.928C26.0156 85.8293 26.0023 85.7333 25.9756 85.64C25.9516 85.5467 25.9103 85.464 25.8516 85.392C25.7956 85.3173 25.721 85.2573 25.6276 85.212C25.5343 85.1667 25.421 85.144 25.2876 85.144C25.053 85.144 24.869 85.212 24.7356 85.348C24.6023 85.4813 24.5143 85.6747 24.4716 85.928H26.0156ZM24.4556 86.648C24.4956 86.9947 24.601 87.2467 24.7716 87.404C24.9423 87.5587 25.1623 87.636 25.4316 87.636C25.5756 87.636 25.6996 87.6187 25.8036 87.584C25.9076 87.5493 25.9996 87.5107 26.0796 87.468C26.1623 87.4253 26.237 87.3867 26.3036 87.352C26.373 87.3173 26.445 87.3 26.5196 87.3C26.6183 87.3 26.693 87.336 26.7436 87.408L27.1036 87.852C26.9756 87.9987 26.837 88.1187 26.6876 88.212C26.541 88.3027 26.389 88.3747 26.2316 88.428C26.077 88.4787 25.921 88.5133 25.7636 88.532C25.609 88.5533 25.461 88.564 25.3196 88.564C25.029 88.564 24.7556 88.5173 24.4996 88.424C24.2463 88.328 24.0236 88.1867 23.8316 88C23.6423 87.8133 23.4916 87.5813 23.3796 87.304C23.2703 87.0267 23.2156 86.704 23.2156 86.336C23.2156 86.0587 23.2623 85.796 23.3556 85.548C23.4516 85.3 23.5876 85.0827 23.7636 84.896C23.9423 84.7093 24.157 84.5613 24.4076 84.452C24.661 84.3427 24.9463 84.288 25.2636 84.288C25.5383 84.288 25.789 84.3307 26.0156 84.416C26.245 84.5013 26.441 84.6253 26.6036 84.788C26.769 84.9507 26.897 85.1507 26.9876 85.388C27.081 85.6227 27.1276 85.8893 27.1276 86.188C27.1276 86.2813 27.1236 86.3573 27.1156 86.416C27.1076 86.4747 27.093 86.5213 27.0716 86.556C27.0503 86.5907 27.021 86.6147 26.9836 86.628C26.949 86.6413 26.9036 86.648 26.8476 86.648H24.4556ZM28.7881 84.992C28.9161 84.768 29.0628 84.592 29.2281 84.464C29.3961 84.336 29.5881 84.272 29.8041 84.272C29.9908 84.272 30.1428 84.316 30.2601 84.404L30.1801 85.316C30.1668 85.3747 30.1441 85.4147 30.1121 85.436C30.0828 85.4573 30.0415 85.468 29.9881 85.468C29.9668 85.468 29.9388 85.4667 29.9041 85.464C29.8695 85.4613 29.8335 85.4587 29.7961 85.456C29.7588 85.4507 29.7201 85.4467 29.6801 85.444C29.6428 85.4387 29.6081 85.436 29.5761 85.436C29.3948 85.436 29.2495 85.484 29.1401 85.58C29.0335 85.676 28.9428 85.8093 28.8681 85.98V88.5H27.6281V84.352H28.3641C28.4255 84.352 28.4761 84.3573 28.5161 84.368C28.5588 84.3787 28.5935 84.396 28.6201 84.42C28.6495 84.4413 28.6708 84.4707 28.6841 84.508C28.7001 84.5453 28.7135 84.5907 28.7241 84.644L28.7881 84.992ZM34.2828 84.352V88.5H33.5148C33.3601 88.5 33.2588 88.4307 33.2108 88.292L33.1388 88.052C33.0588 88.1293 32.9761 88.2 32.8908 88.264C32.8055 88.3253 32.7135 88.3787 32.6148 88.424C32.5188 88.4667 32.4135 88.5 32.2988 88.524C32.1868 88.5507 32.0641 88.564 31.9308 88.564C31.7041 88.564 31.5028 88.5253 31.3268 88.448C31.1535 88.368 31.0068 88.2573 30.8868 88.116C30.7668 87.9747 30.6761 87.808 30.6148 87.616C30.5535 87.424 30.5228 87.2133 30.5228 86.984V84.352H31.7628V86.984C31.7628 87.1893 31.8095 87.348 31.9028 87.46C31.9961 87.572 32.1335 87.628 32.3148 87.628C32.4508 87.628 32.5775 87.6 32.6948 87.544C32.8148 87.4853 32.9308 87.4067 33.0428 87.308V84.352H34.2828ZM36.1493 84.8C36.2293 84.7253 36.312 84.656 36.3973 84.592C36.4826 84.528 36.5733 84.4747 36.6693 84.432C36.768 84.3867 36.8733 84.352 36.9853 84.328C37.1 84.3013 37.224 84.288 37.3573 84.288C37.584 84.288 37.784 84.328 37.9573 84.408C38.1333 84.4853 38.2813 84.5947 38.4013 84.736C38.5213 84.8747 38.612 85.0413 38.6733 85.236C38.7346 85.428 38.7653 85.6373 38.7653 85.864V88.5H37.5253V85.864C37.5253 85.6613 37.4786 85.504 37.3853 85.392C37.292 85.2773 37.1546 85.22 36.9733 85.22C36.8373 85.22 36.7093 85.2493 36.5893 85.308C36.472 85.364 36.3573 85.4413 36.2453 85.54V88.5H35.0053V84.352H35.7733C35.928 84.352 36.0293 84.4213 36.0773 84.56L36.1493 84.8Z" fill="#B4B4B4"/>
<g opacity="0.75">
<rect x="3" y="91.75" width="1" height="45" transform="rotate(-90 3 91.75)" fill="black"/>
</g>
<path d="M8.97944 97.532H9.19544C9.39544 97.532 9.53944 97.4693 9.62744 97.344L10.9394 95.44C11.0168 95.3387 11.0994 95.2693 11.1874 95.232C11.2781 95.192 11.3901 95.172 11.5234 95.172H12.6994L10.9714 97.528C10.8488 97.6907 10.7168 97.808 10.5754 97.88C10.6768 97.9173 10.7688 97.9693 10.8514 98.036C10.9341 98.1027 11.0114 98.1893 11.0834 98.296L12.8434 101H11.6354C11.5581 101 11.4914 100.995 11.4354 100.984C11.3821 100.973 11.3354 100.957 11.2954 100.936C11.2554 100.915 11.2208 100.889 11.1914 100.86C11.1621 100.828 11.1341 100.792 11.1074 100.752L9.78744 98.724C9.73944 98.6493 9.67811 98.5973 9.60344 98.568C9.53144 98.536 9.43277 98.52 9.30744 98.52H8.97944V101H7.62744V95.172H8.97944V97.532ZM15.3028 98.428C15.3028 98.3293 15.2895 98.2333 15.2628 98.14C15.2388 98.0467 15.1975 97.964 15.1388 97.892C15.0828 97.8173 15.0081 97.7573 14.9148 97.712C14.8215 97.6667 14.7081 97.644 14.5748 97.644C14.3401 97.644 14.1561 97.712 14.0228 97.848C13.8895 97.9813 13.8015 98.1747 13.7588 98.428H15.3028ZM13.7428 99.148C13.7828 99.4947 13.8881 99.7467 14.0588 99.904C14.2295 100.059 14.4495 100.136 14.7188 100.136C14.8628 100.136 14.9868 100.119 15.0908 100.084C15.1948 100.049 15.2868 100.011 15.3668 99.968C15.4495 99.9253 15.5241 99.8867 15.5908 99.852C15.6601 99.8173 15.7321 99.8 15.8068 99.8C15.9055 99.8 15.9801 99.836 16.0308 99.908L16.3908 100.352C16.2628 100.499 16.1241 100.619 15.9748 100.712C15.8281 100.803 15.6761 100.875 15.5188 100.928C15.3641 100.979 15.2081 101.013 15.0508 101.032C14.8961 101.053 14.7481 101.064 14.6068 101.064C14.3161 101.064 14.0428 101.017 13.7868 100.924C13.5335 100.828 13.3108 100.687 13.1188 100.5C12.9295 100.313 12.7788 100.081 12.6668 99.804C12.5575 99.5267 12.5028 99.204 12.5028 98.836C12.5028 98.5587 12.5495 98.296 12.6428 98.048C12.7388 97.8 12.8748 97.5827 13.0508 97.396C13.2295 97.2093 13.4441 97.0613 13.6948 96.952C13.9481 96.8427 14.2335 96.788 14.5508 96.788C14.8255 96.788 15.0761 96.8307 15.3028 96.916C15.5321 97.0013 15.7281 97.1253 15.8908 97.288C16.0561 97.4507 16.1841 97.6507 16.2748 97.888C16.3681 98.1227 16.4148 98.3893 16.4148 98.688C16.4148 98.7813 16.4108 98.8573 16.4028 98.916C16.3948 98.9747 16.3801 99.0213 16.3588 99.056C16.3375 99.0907 16.3081 99.1147 16.2708 99.128C16.2361 99.1413 16.1908 99.148 16.1348 99.148H13.7428ZM20.7225 96.852L18.5065 102.076C18.4692 102.159 18.4238 102.219 18.3705 102.256C18.3172 102.296 18.2318 102.316 18.1145 102.316H17.1865L17.9865 100.636L16.3305 96.852H17.4265C17.5225 96.852 17.5958 96.8733 17.6465 96.916C17.6998 96.9587 17.7385 97.0093 17.7625 97.068L18.4425 98.856C18.5065 99.0187 18.5585 99.1853 18.5985 99.356C18.6278 99.2707 18.6572 99.1853 18.6865 99.1C18.7158 99.0147 18.7465 98.9307 18.7785 98.848L19.3945 97.068C19.4185 97.0067 19.4612 96.956 19.5225 96.916C19.5838 96.8733 19.6505 96.852 19.7225 96.852H20.7225ZM22.4512 101.064C22.2539 101.064 22.0792 101.036 21.9272 100.98C21.7779 100.921 21.6512 100.84 21.5472 100.736C21.4459 100.629 21.3685 100.501 21.3152 100.352C21.2619 100.203 21.2352 100.036 21.2352 99.852V97.708H20.8832C20.8192 97.708 20.7645 97.688 20.7192 97.648C20.6739 97.6053 20.6512 97.544 20.6512 97.464V96.98L21.3112 96.852L21.5552 95.84C21.5872 95.712 21.6779 95.648 21.8272 95.648H22.4752V96.86H23.5032V97.708H22.4752V99.768C22.4752 99.864 22.4979 99.944 22.5432 100.008C22.5912 100.069 22.6592 100.1 22.7472 100.1C22.7925 100.1 22.8299 100.096 22.8592 100.088C22.8912 100.077 22.9179 100.067 22.9392 100.056C22.9632 100.043 22.9845 100.032 23.0032 100.024C23.0245 100.013 23.0485 100.008 23.0752 100.008C23.1125 100.008 23.1419 100.017 23.1632 100.036C23.1872 100.052 23.2112 100.079 23.2352 100.116L23.6112 100.704C23.4512 100.824 23.2712 100.915 23.0712 100.976C22.8712 101.035 22.6645 101.064 22.4512 101.064ZM25.0775 97.492C25.2055 97.268 25.3522 97.092 25.5175 96.964C25.6855 96.836 25.8775 96.772 26.0935 96.772C26.2802 96.772 26.4322 96.816 26.5495 96.904L26.4695 97.816C26.4562 97.8747 26.4335 97.9147 26.4015 97.936C26.3722 97.9573 26.3308 97.968 26.2775 97.968C26.2562 97.968 26.2282 97.9667 26.1935 97.964C26.1588 97.9613 26.1228 97.9587 26.0855 97.956C26.0482 97.9507 26.0095 97.9467 25.9695 97.944C25.9322 97.9387 25.8975 97.936 25.8655 97.936C25.6842 97.936 25.5388 97.984 25.4295 98.08C25.3228 98.176 25.2322 98.3093 25.1575 98.48V101H23.9175V96.852H24.6535C24.7148 96.852 24.7655 96.8573 24.8055 96.868C24.8482 96.8787 24.8828 96.896 24.9095 96.92C24.9388 96.9413 24.9602 96.9707 24.9735 97.008C24.9895 97.0453 25.0028 97.0907 25.0135 97.144L25.0775 97.492ZM28.1202 96.852V101H26.8802V96.852H28.1202ZM28.2482 95.716C28.2482 95.8147 28.2282 95.908 28.1882 95.996C28.1482 96.0813 28.0935 96.1573 28.0242 96.224C27.9549 96.288 27.8735 96.34 27.7802 96.38C27.6895 96.4173 27.5922 96.436 27.4882 96.436C27.3869 96.436 27.2922 96.4173 27.2042 96.38C27.1162 96.34 27.0375 96.288 26.9682 96.224C26.9015 96.1573 26.8482 96.0813 26.8082 95.996C26.7709 95.908 26.7522 95.8147 26.7522 95.716C26.7522 95.6147 26.7709 95.52 26.8082 95.432C26.8482 95.344 26.9015 95.2667 26.9682 95.2C27.0375 95.1333 27.1162 95.0813 27.2042 95.044C27.2922 95.0067 27.3869 94.988 27.4882 94.988C27.5922 94.988 27.6895 95.0067 27.7802 95.044C27.8735 95.0813 27.9549 95.1333 28.0242 95.2C28.0935 95.2667 28.1482 95.344 28.1882 95.432C28.2282 95.52 28.2482 95.6147 28.2482 95.716ZM30.445 98.708C30.6503 98.708 30.7983 98.6573 30.889 98.556C30.9823 98.452 31.029 98.3187 31.029 98.156C31.029 97.988 30.9823 97.856 30.889 97.76C30.7983 97.664 30.6503 97.616 30.445 97.616C30.2397 97.616 30.0903 97.664 29.997 97.76C29.9063 97.856 29.861 97.988 29.861 98.156C29.861 98.236 29.8717 98.3093 29.893 98.376C29.917 98.4427 29.953 98.5013 30.001 98.552C30.049 98.6 30.109 98.6387 30.181 98.668C30.2557 98.6947 30.3437 98.708 30.445 98.708ZM31.405 101.152C31.405 101.053 31.361 100.983 31.273 100.94C31.185 100.895 31.0703 100.863 30.929 100.844C30.7877 100.825 30.629 100.815 30.453 100.812C30.2797 100.807 30.1063 100.796 29.933 100.78C29.8557 100.833 29.7917 100.893 29.741 100.96C29.693 101.024 29.669 101.097 29.669 101.18C29.669 101.239 29.681 101.292 29.705 101.34C29.7317 101.388 29.777 101.429 29.841 101.464C29.905 101.499 29.9903 101.525 30.097 101.544C30.2063 101.565 30.3437 101.576 30.509 101.576C30.6877 101.576 30.8343 101.565 30.949 101.544C31.0637 101.523 31.1543 101.493 31.221 101.456C31.2903 101.419 31.3383 101.373 31.365 101.32C31.3917 101.269 31.405 101.213 31.405 101.152ZM32.629 96.98V97.432C32.629 97.5013 32.609 97.556 32.569 97.596C32.5317 97.636 32.4663 97.6667 32.373 97.688L32.073 97.756C32.089 97.8147 32.101 97.8747 32.109 97.936C32.1197 97.9973 32.125 98.0613 32.125 98.128C32.125 98.336 32.081 98.5227 31.993 98.688C31.9077 98.8533 31.789 98.9947 31.637 99.112C31.4877 99.2267 31.3103 99.316 31.105 99.38C30.8997 99.4413 30.6797 99.472 30.445 99.472C30.381 99.472 30.3183 99.4707 30.257 99.468C30.1957 99.4627 30.1357 99.4547 30.077 99.444C29.9863 99.5 29.941 99.5627 29.941 99.632C29.941 99.7013 29.9783 99.752 30.053 99.784C30.1277 99.8133 30.2263 99.8347 30.349 99.848C30.4717 99.8587 30.6103 99.8667 30.765 99.872C30.9223 99.8747 31.0823 99.884 31.245 99.9C31.4077 99.9133 31.5663 99.9373 31.721 99.972C31.8783 100.007 32.0183 100.063 32.141 100.14C32.2637 100.217 32.3623 100.321 32.437 100.452C32.5117 100.58 32.549 100.744 32.549 100.944C32.549 101.131 32.5037 101.313 32.413 101.492C32.3223 101.671 32.189 101.829 32.013 101.968C31.837 102.107 31.621 102.217 31.365 102.3C31.109 102.385 30.8157 102.428 30.485 102.428C30.1597 102.428 29.8783 102.397 29.641 102.336C29.4063 102.275 29.2103 102.193 29.053 102.092C28.8983 101.993 28.7837 101.879 28.709 101.748C28.6343 101.617 28.597 101.481 28.597 101.34C28.597 101.156 28.6503 101.003 28.757 100.88C28.8637 100.757 29.013 100.659 29.205 100.584C29.1037 100.523 29.0237 100.444 28.965 100.348C28.9063 100.252 28.877 100.128 28.877 99.976C28.877 99.9147 28.8877 99.8507 28.909 99.784C28.9303 99.7147 28.9637 99.648 29.009 99.584C29.057 99.5173 29.1157 99.4547 29.185 99.396C29.2543 99.3373 29.337 99.2853 29.433 99.24C29.217 99.1253 29.0463 98.9747 28.921 98.788C28.7957 98.5987 28.733 98.3787 28.733 98.128C28.733 97.92 28.777 97.7333 28.865 97.568C28.953 97.4 29.073 97.2587 29.225 97.144C29.3797 97.0267 29.561 96.9373 29.769 96.876C29.977 96.812 30.2023 96.78 30.445 96.78C30.797 96.78 31.109 96.8467 31.381 96.98H32.629ZM34.6063 98.708C34.8116 98.708 34.9596 98.6573 35.0503 98.556C35.1436 98.452 35.1903 98.3187 35.1903 98.156C35.1903 97.988 35.1436 97.856 35.0503 97.76C34.9596 97.664 34.8116 97.616 34.6063 97.616C34.4009 97.616 34.2516 97.664 34.1583 97.76C34.0676 97.856 34.0223 97.988 34.0223 98.156C34.0223 98.236 34.0329 98.3093 34.0543 98.376C34.0783 98.4427 34.1143 98.5013 34.1623 98.552C34.2103 98.6 34.2703 98.6387 34.3423 98.668C34.4169 98.6947 34.5049 98.708 34.6063 98.708ZM35.5663 101.152C35.5663 101.053 35.5223 100.983 35.4343 100.94C35.3463 100.895 35.2316 100.863 35.0903 100.844C34.9489 100.825 34.7903 100.815 34.6143 100.812C34.4409 100.807 34.2676 100.796 34.0943 100.78C34.0169 100.833 33.9529 100.893 33.9023 100.96C33.8543 101.024 33.8303 101.097 33.8303 101.18C33.8303 101.239 33.8423 101.292 33.8663 101.34C33.8929 101.388 33.9383 101.429 34.0023 101.464C34.0663 101.499 34.1516 101.525 34.2583 101.544C34.3676 101.565 34.5049 101.576 34.6703 101.576C34.8489 101.576 34.9956 101.565 35.1103 101.544C35.2249 101.523 35.3156 101.493 35.3823 101.456C35.4516 101.419 35.4996 101.373 35.5263 101.32C35.5529 101.269 35.5663 101.213 35.5663 101.152ZM36.7903 96.98V97.432C36.7903 97.5013 36.7703 97.556 36.7303 97.596C36.6929 97.636 36.6276 97.6667 36.5343 97.688L36.2343 97.756C36.2503 97.8147 36.2623 97.8747 36.2703 97.936C36.2809 97.9973 36.2863 98.0613 36.2863 98.128C36.2863 98.336 36.2423 98.5227 36.1543 98.688C36.0689 98.8533 35.9503 98.9947 35.7983 99.112C35.6489 99.2267 35.4716 99.316 35.2663 99.38C35.0609 99.4413 34.8409 99.472 34.6063 99.472C34.5423 99.472 34.4796 99.4707 34.4183 99.468C34.3569 99.4627 34.2969 99.4547 34.2383 99.444C34.1476 99.5 34.1023 99.5627 34.1023 99.632C34.1023 99.7013 34.1396 99.752 34.2143 99.784C34.2889 99.8133 34.3876 99.8347 34.5103 99.848C34.6329 99.8587 34.7716 99.8667 34.9263 99.872C35.0836 99.8747 35.2436 99.884 35.4063 99.9C35.5689 99.9133 35.7276 99.9373 35.8823 99.972C36.0396 100.007 36.1796 100.063 36.3023 100.14C36.4249 100.217 36.5236 100.321 36.5983 100.452C36.6729 100.58 36.7103 100.744 36.7103 100.944C36.7103 101.131 36.6649 101.313 36.5743 101.492C36.4836 101.671 36.3503 101.829 36.1743 101.968C35.9983 102.107 35.7823 102.217 35.5263 102.3C35.2703 102.385 34.9769 102.428 34.6463 102.428C34.3209 102.428 34.0396 102.397 33.8023 102.336C33.5676 102.275 33.3716 102.193 33.2143 102.092C33.0596 101.993 32.9449 101.879 32.8703 101.748C32.7956 101.617 32.7583 101.481 32.7583 101.34C32.7583 101.156 32.8116 101.003 32.9183 100.88C33.0249 100.757 33.1743 100.659 33.3663 100.584C33.2649 100.523 33.1849 100.444 33.1263 100.348C33.0676 100.252 33.0383 100.128 33.0383 99.976C33.0383 99.9147 33.0489 99.8507 33.0703 99.784C33.0916 99.7147 33.1249 99.648 33.1703 99.584C33.2183 99.5173 33.2769 99.4547 33.3463 99.396C33.4156 99.3373 33.4983 99.2853 33.5943 99.24C33.3783 99.1253 33.2076 98.9747 33.0823 98.788C32.9569 98.5987 32.8943 98.3787 32.8943 98.128C32.8943 97.92 32.9383 97.7333 33.0263 97.568C33.1143 97.4 33.2343 97.2587 33.3863 97.144C33.5409 97.0267 33.7223 96.9373 33.9303 96.876C34.1383 96.812 34.3636 96.78 34.6063 96.78C34.9583 96.78 35.2703 96.8467 35.5423 96.98H36.7903ZM39.6894 98.428C39.6894 98.3293 39.676 98.2333 39.6494 98.14C39.6254 98.0467 39.584 97.964 39.5254 97.892C39.4694 97.8173 39.3947 97.7573 39.3014 97.712C39.208 97.6667 39.0947 97.644 38.9614 97.644C38.7267 97.644 38.5427 97.712 38.4094 97.848C38.276 97.9813 38.188 98.1747 38.1454 98.428H39.6894ZM38.1294 99.148C38.1694 99.4947 38.2747 99.7467 38.4454 99.904C38.616 100.059 38.836 100.136 39.1054 100.136C39.2494 100.136 39.3734 100.119 39.4774 100.084C39.5814 100.049 39.6734 100.011 39.7534 99.968C39.836 99.9253 39.9107 99.8867 39.9774 99.852C40.0467 99.8173 40.1187 99.8 40.1934 99.8C40.292 99.8 40.3667 99.836 40.4174 99.908L40.7774 100.352C40.6494 100.499 40.5107 100.619 40.3614 100.712C40.2147 100.803 40.0627 100.875 39.9054 100.928C39.7507 100.979 39.5947 101.013 39.4374 101.032C39.2827 101.053 39.1347 101.064 38.9934 101.064C38.7027 101.064 38.4294 101.017 38.1734 100.924C37.92 100.828 37.6974 100.687 37.5054 100.5C37.316 100.313 37.1654 100.081 37.0534 99.804C36.944 99.5267 36.8894 99.204 36.8894 98.836C36.8894 98.5587 36.936 98.296 37.0294 98.048C37.1254 97.8 37.2614 97.5827 37.4374 97.396C37.616 97.2093 37.8307 97.0613 38.0814 96.952C38.3347 96.8427 38.62 96.788 38.9374 96.788C39.212 96.788 39.4627 96.8307 39.6894 96.916C39.9187 97.0013 40.1147 97.1253 40.2774 97.288C40.4427 97.4507 40.5707 97.6507 40.6614 97.888C40.7547 98.1227 40.8014 98.3893 40.8014 98.688C40.8014 98.7813 40.7974 98.8573 40.7894 98.916C40.7814 98.9747 40.7667 99.0213 40.7454 99.056C40.724 99.0907 40.6947 99.1147 40.6574 99.128C40.6227 99.1413 40.5774 99.148 40.5214 99.148H38.1294ZM42.4619 97.492C42.5899 97.268 42.7365 97.092 42.9019 96.964C43.0699 96.836 43.2619 96.772 43.4779 96.772C43.6645 96.772 43.8165 96.816 43.9339 96.904L43.8539 97.816C43.8405 97.8747 43.8179 97.9147 43.7859 97.936C43.7565 97.9573 43.7152 97.968 43.6619 97.968C43.6405 97.968 43.6125 97.9667 43.5779 97.964C43.5432 97.9613 43.5072 97.9587 43.4699 97.956C43.4325 97.9507 43.3939 97.9467 43.3539 97.944C43.3165 97.9387 43.2819 97.936 43.2499 97.936C43.0685 97.936 42.9232 97.984 42.8139 98.08C42.7072 98.176 42.6165 98.3093 42.5419 98.48V101H41.3019V96.852H42.0379C42.0992 96.852 42.1499 96.8573 42.1899 96.868C42.2325 96.8787 42.2672 96.896 42.2939 96.92C42.3232 96.9413 42.3445 96.9707 42.3579 97.008C42.3739 97.0453 42.3872 97.0907 42.3979 97.144L42.4619 97.492Z" fill="#B4B4B4"/>
<g opacity="0.75">
<rect x="3" y="104.25" width="1" height="45" transform="rotate(-90 3 104.25)" fill="black"/>
</g>
<path d="M2.5 106C2.5 105.448 2.94772 105 3.5 105H47.5C48.0523 105 48.5 105.448 48.5 106V114C48.5 114.552 48.0523 115 47.5 115H3.5C2.94772 115 2.5 114.552 2.5 114V106Z" fill="#399DFF"/>
<rect x="2.5" y="105" width="46" height="10" rx="1" fill="#399DFF"/>
<rect x="2.5" y="105" width="46" height="10" rx="1" stroke="#399DFF"/>
<path d="M13.2913 110.412C13.4753 110.412 13.6313 110.389 13.7593 110.344C13.8899 110.296 13.9966 110.231 14.0793 110.148C14.1619 110.065 14.2219 109.969 14.2593 109.86C14.2966 109.748 14.3153 109.628 14.3153 109.5C14.3153 109.244 14.2313 109.044 14.0633 108.9C13.8979 108.756 13.6406 108.684 13.2913 108.684H12.7473V110.412H13.2913ZM16.1633 113.5H14.9393C14.7126 113.5 14.5499 113.415 14.4513 113.244L13.4833 111.552C13.4379 111.48 13.3873 111.428 13.3313 111.396C13.2753 111.361 13.1953 111.344 13.0913 111.344H12.7473V113.5H11.3953V107.672H13.2913C13.7126 107.672 14.0713 107.716 14.3673 107.804C14.6659 107.889 14.9086 108.009 15.0953 108.164C15.2846 108.319 15.4219 108.501 15.5073 108.712C15.5926 108.923 15.6353 109.152 15.6353 109.4C15.6353 109.589 15.6099 109.768 15.5593 109.936C15.5086 110.104 15.4339 110.26 15.3353 110.404C15.2366 110.545 15.1139 110.672 14.9673 110.784C14.8233 110.896 14.6566 110.988 14.4673 111.06C14.5553 111.105 14.6379 111.163 14.7153 111.232C14.7926 111.299 14.8619 111.379 14.9233 111.472L16.1633 113.5ZM18.4588 111.812C18.2108 111.823 18.0068 111.844 17.8468 111.876C17.6868 111.908 17.5601 111.948 17.4668 111.996C17.3734 112.044 17.3081 112.099 17.2708 112.16C17.2361 112.221 17.2188 112.288 17.2188 112.36C17.2188 112.501 17.2574 112.601 17.3348 112.66C17.4121 112.716 17.5254 112.744 17.6748 112.744C17.8348 112.744 17.9748 112.716 18.0948 112.66C18.2148 112.604 18.3361 112.513 18.4588 112.388V111.812ZM16.2268 109.928C16.4774 109.707 16.7548 109.543 17.0588 109.436C17.3654 109.327 17.6934 109.272 18.0428 109.272C18.2934 109.272 18.5188 109.313 18.7188 109.396C18.9214 109.476 19.0921 109.589 19.2308 109.736C19.3721 109.88 19.4801 110.052 19.5548 110.252C19.6294 110.452 19.6668 110.671 19.6668 110.908V113.5H19.0988C18.9814 113.5 18.8921 113.484 18.8308 113.452C18.7721 113.42 18.7228 113.353 18.6828 113.252L18.5948 113.024C18.4908 113.112 18.3908 113.189 18.2948 113.256C18.1988 113.323 18.0988 113.38 17.9948 113.428C17.8934 113.473 17.7841 113.507 17.6668 113.528C17.5521 113.552 17.4241 113.564 17.2828 113.564C17.0934 113.564 16.9214 113.54 16.7668 113.492C16.6121 113.441 16.4801 113.368 16.3708 113.272C16.2641 113.176 16.1814 113.057 16.1228 112.916C16.0641 112.772 16.0348 112.607 16.0348 112.42C16.0348 112.271 16.0721 112.12 16.1468 111.968C16.2214 111.813 16.3508 111.673 16.5348 111.548C16.7188 111.42 16.9668 111.313 17.2788 111.228C17.5908 111.143 17.9841 111.095 18.4588 111.084V110.908C18.4588 110.665 18.4081 110.491 18.3068 110.384C18.2081 110.275 18.0668 110.22 17.8828 110.22C17.7361 110.22 17.6161 110.236 17.5228 110.268C17.4294 110.3 17.3454 110.336 17.2708 110.376C17.1988 110.416 17.1281 110.452 17.0588 110.484C16.9894 110.516 16.9068 110.532 16.8108 110.532C16.7254 110.532 16.6534 110.511 16.5948 110.468C16.5361 110.425 16.4881 110.375 16.4508 110.316L16.2268 109.928ZM21.4834 109.8C21.5634 109.725 21.646 109.656 21.7314 109.592C21.8167 109.528 21.9074 109.475 22.0034 109.432C22.102 109.387 22.2074 109.352 22.3194 109.328C22.434 109.301 22.558 109.288 22.6914 109.288C22.918 109.288 23.118 109.328 23.2914 109.408C23.4674 109.485 23.6154 109.595 23.7354 109.736C23.8554 109.875 23.946 110.041 24.0074 110.236C24.0687 110.428 24.0994 110.637 24.0994 110.864V113.5H22.8594V110.864C22.8594 110.661 22.8127 110.504 22.7194 110.392C22.626 110.277 22.4887 110.22 22.3074 110.22C22.1714 110.22 22.0434 110.249 21.9234 110.308C21.806 110.364 21.6914 110.441 21.5794 110.54V113.5H20.3394V109.352H21.1074C21.262 109.352 21.3634 109.421 21.4114 109.56L21.4834 109.8ZM27.2979 110.464C27.2045 110.36 27.1032 110.288 26.9939 110.248C26.8845 110.205 26.7699 110.184 26.6499 110.184C26.5352 110.184 26.4299 110.207 26.3339 110.252C26.2379 110.297 26.1539 110.371 26.0819 110.472C26.0125 110.571 25.9579 110.7 25.9179 110.86C25.8779 111.02 25.8579 111.213 25.8579 111.44C25.8579 111.659 25.8739 111.843 25.9059 111.992C25.9379 112.141 25.9819 112.263 26.0379 112.356C26.0965 112.447 26.1659 112.512 26.2459 112.552C26.3259 112.592 26.4152 112.612 26.5139 112.612C26.6045 112.612 26.6859 112.604 26.7579 112.588C26.8325 112.569 26.9005 112.544 26.9619 112.512C27.0232 112.48 27.0805 112.44 27.1339 112.392C27.1899 112.341 27.2445 112.284 27.2979 112.22V110.464ZM28.5379 107.512V113.5H27.7699C27.6152 113.5 27.5139 113.431 27.4659 113.292L27.3699 112.976C27.2872 113.064 27.2005 113.144 27.1099 113.216C27.0192 113.288 26.9205 113.351 26.8139 113.404C26.7099 113.455 26.5965 113.493 26.4739 113.52C26.3539 113.549 26.2232 113.564 26.0819 113.564C25.8659 113.564 25.6659 113.516 25.4819 113.42C25.2979 113.324 25.1392 113.185 25.0059 113.004C24.8725 112.823 24.7672 112.601 24.6899 112.34C24.6152 112.076 24.5779 111.776 24.5779 111.44C24.5779 111.131 24.6205 110.844 24.7059 110.58C24.7912 110.313 24.9112 110.084 25.0659 109.892C25.2232 109.697 25.4112 109.545 25.6299 109.436C25.8485 109.327 26.0899 109.272 26.3539 109.272C26.5699 109.272 26.7512 109.303 26.8979 109.364C27.0445 109.425 27.1779 109.508 27.2979 109.612V107.512H28.5379ZM31.1676 109.288C31.4823 109.288 31.769 109.337 32.0276 109.436C32.2863 109.535 32.5076 109.676 32.6916 109.86C32.8783 110.044 33.0223 110.268 33.1236 110.532C33.2276 110.793 33.2796 111.088 33.2796 111.416C33.2796 111.747 33.2276 112.045 33.1236 112.312C33.0223 112.576 32.8783 112.801 32.6916 112.988C32.5076 113.172 32.2863 113.315 32.0276 113.416C31.769 113.515 31.4823 113.564 31.1676 113.564C30.8503 113.564 30.561 113.515 30.2996 113.416C30.041 113.315 29.817 113.172 29.6276 112.988C29.441 112.801 29.2956 112.576 29.1916 112.312C29.0903 112.045 29.0396 111.747 29.0396 111.416C29.0396 111.088 29.0903 110.793 29.1916 110.532C29.2956 110.268 29.441 110.044 29.6276 109.86C29.817 109.676 30.041 109.535 30.2996 109.436C30.561 109.337 30.8503 109.288 31.1676 109.288ZM31.1676 112.644C31.453 112.644 31.6623 112.544 31.7956 112.344C31.9316 112.141 31.9996 111.835 31.9996 111.424C31.9996 111.013 31.9316 110.708 31.7956 110.508C31.6623 110.308 31.453 110.208 31.1676 110.208C30.8743 110.208 30.6596 110.308 30.5236 110.508C30.3876 110.708 30.3196 111.013 30.3196 111.424C30.3196 111.835 30.3876 112.141 30.5236 112.344C30.6596 112.544 30.8743 112.644 31.1676 112.644ZM33.7841 113.5V109.352H34.5521C34.7067 109.352 34.8081 109.421 34.8561 109.56L34.9241 109.784C34.9934 109.712 35.0654 109.647 35.1401 109.588C35.2147 109.527 35.2947 109.475 35.3801 109.432C35.4681 109.387 35.5614 109.352 35.6601 109.328C35.7614 109.301 35.8721 109.288 35.9921 109.288C36.2427 109.288 36.4494 109.353 36.6121 109.484C36.7774 109.612 36.9027 109.784 36.9881 110C37.0574 109.872 37.1414 109.763 37.2401 109.672C37.3414 109.581 37.4494 109.508 37.5641 109.452C37.6814 109.396 37.8041 109.355 37.9321 109.328C38.0627 109.301 38.1921 109.288 38.3201 109.288C38.5574 109.288 38.7681 109.324 38.9521 109.396C39.1361 109.465 39.2894 109.568 39.4121 109.704C39.5374 109.837 39.6321 110.003 39.6961 110.2C39.7601 110.395 39.7921 110.616 39.7921 110.864V113.5H38.5521V110.864C38.5521 110.435 38.3681 110.22 38.0001 110.22C37.8321 110.22 37.6921 110.276 37.5801 110.388C37.4707 110.497 37.4161 110.656 37.4161 110.864V113.5H36.1761V110.864C36.1761 110.627 36.1294 110.46 36.0361 110.364C35.9427 110.268 35.8054 110.22 35.6241 110.22C35.5121 110.22 35.4054 110.245 35.3041 110.296C35.2054 110.347 35.1121 110.415 35.0241 110.5V113.5H33.7841Z" fill="white"/>
<path d="M2.5 79H48.5V78H2.5V79ZM50 80.5V114.5H51V80.5H50ZM48.5 116H2.5V117H48.5V116ZM1 114.5V80.5H0V114.5H1ZM2.5 116C1.67157 116 1 115.328 1 114.5H0C0 115.881 1.11929 117 2.5 117V116ZM50 114.5C50 115.328 49.3284 116 48.5 116V117C49.8807 117 51 115.881 51 114.5H50ZM48.5 79C49.3284 79 50 79.6716 50 80.5H51C51 79.1193 49.8807 78 48.5 78V79ZM2.5 78C1.11929 78 0 79.1193 0 80.5H1C1 79.6716 1.67157 79 2.5 79V78Z" fill="black"/>
</svg>
