<svg width="32" height="24" viewBox="0 0 32 24" fill="none" xmlns="http://www.w3.org/2000/svg">
<path d="M0.559998 2.5C0.559998 1.39543 1.45543 0.5 2.56 0.5H28.56C29.6646 0.5 30.56 1.39543 30.56 2.5V9.5C30.56 10.6046 29.6646 11.5 28.56 11.5H2.56C1.45543 11.5 0.559998 10.6046 0.559998 9.5V2.5Z" fill="#242424"/>
<path d="M10.0219 3.66C10.0219 3.72933 10.0099 3.79733 9.98594 3.864C9.9646 3.93067 9.93394 3.99333 9.89394 4.052L7.15794 7.96H9.93394V9H5.43794V8.48C5.43794 8.41867 5.4486 8.35867 5.46994 8.3C5.49127 8.23867 5.5206 8.18267 5.55794 8.132L8.30194 4.212H5.66194V3.172H10.0219V3.66ZM12.2645 4.788C12.5792 4.788 12.8658 4.83733 13.1245 4.936C13.3832 5.03467 13.6045 5.176 13.7885 5.36C13.9752 5.544 14.1192 5.768 14.2205 6.032C14.3245 6.29333 14.3765 6.588 14.3765 6.916C14.3765 7.24667 14.3245 7.54533 14.2205 7.812C14.1192 8.076 13.9752 8.30133 13.7885 8.488C13.6045 8.672 13.3832 8.81467 13.1245 8.916C12.8658 9.01467 12.5792 9.064 12.2645 9.064C11.9472 9.064 11.6578 9.01467 11.3965 8.916C11.1378 8.81467 10.9138 8.672 10.7245 8.488C10.5378 8.30133 10.3925 8.076 10.2885 7.812C10.1872 7.54533 10.1365 7.24667 10.1365 6.916C10.1365 6.588 10.1872 6.29333 10.2885 6.032C10.3925 5.768 10.5378 5.544 10.7245 5.36C10.9138 5.176 11.1378 5.03467 11.3965 4.936C11.6578 4.83733 11.9472 4.788 12.2645 4.788ZM12.2645 8.144C12.5498 8.144 12.7592 8.044 12.8925 7.844C13.0285 7.64133 13.0965 7.33467 13.0965 6.924C13.0965 6.51333 13.0285 6.208 12.8925 6.008C12.7592 5.808 12.5498 5.708 12.2645 5.708C11.9712 5.708 11.7565 5.808 11.6205 6.008C11.4845 6.208 11.4165 6.51333 11.4165 6.924C11.4165 7.33467 11.4845 7.64133 11.6205 7.844C11.7565 8.044 11.9712 8.144 12.2645 8.144ZM16.7929 4.788C17.1076 4.788 17.3943 4.83733 17.6529 4.936C17.9116 5.03467 18.1329 5.176 18.3169 5.36C18.5036 5.544 18.6476 5.768 18.7489 6.032C18.8529 6.29333 18.9049 6.588 18.9049 6.916C18.9049 7.24667 18.8529 7.54533 18.7489 7.812C18.6476 8.076 18.5036 8.30133 18.3169 8.488C18.1329 8.672 17.9116 8.81467 17.6529 8.916C17.3943 9.01467 17.1076 9.064 16.7929 9.064C16.4756 9.064 16.1863 9.01467 15.9249 8.916C15.6663 8.81467 15.4423 8.672 15.2529 8.488C15.0663 8.30133 14.9209 8.076 14.8169 7.812C14.7156 7.54533 14.6649 7.24667 14.6649 6.916C14.6649 6.588 14.7156 6.29333 14.8169 6.032C14.9209 5.768 15.0663 5.544 15.2529 5.36C15.4423 5.176 15.6663 5.03467 15.9249 4.936C16.1863 4.83733 16.4756 4.788 16.7929 4.788ZM16.7929 8.144C17.0783 8.144 17.2876 8.044 17.4209 7.844C17.5569 7.64133 17.6249 7.33467 17.6249 6.924C17.6249 6.51333 17.5569 6.208 17.4209 6.008C17.2876 5.808 17.0783 5.708 16.7929 5.708C16.4996 5.708 16.2849 5.808 16.1489 6.008C16.0129 6.208 15.9449 6.51333 15.9449 6.924C15.9449 7.33467 16.0129 7.64133 16.1489 7.844C16.2849 8.044 16.4996 8.144 16.7929 8.144ZM19.4094 9V4.852H20.1774C20.332 4.852 20.4334 4.92133 20.4814 5.06L20.5494 5.284C20.6187 5.212 20.6907 5.14667 20.7654 5.088C20.84 5.02667 20.92 4.97467 21.0054 4.932C21.0934 4.88667 21.1867 4.852 21.2854 4.828C21.3867 4.80133 21.4974 4.788 21.6174 4.788C21.868 4.788 22.0747 4.85333 22.2374 4.984C22.4027 5.112 22.528 5.284 22.6134 5.5C22.6827 5.372 22.7667 5.26267 22.8654 5.172C22.9667 5.08133 23.0747 5.008 23.1894 4.952C23.3067 4.896 23.4294 4.85467 23.5574 4.828C23.688 4.80133 23.8174 4.788 23.9454 4.788C24.1827 4.788 24.3934 4.824 24.5774 4.896C24.7614 4.96533 24.9147 5.068 25.0374 5.204C25.1627 5.33733 25.2574 5.50267 25.3214 5.7C25.3854 5.89467 25.4174 6.116 25.4174 6.364V9H24.1774V6.364C24.1774 5.93467 23.9934 5.72 23.6254 5.72C23.4574 5.72 23.3174 5.776 23.2054 5.888C23.096 5.99733 23.0414 6.156 23.0414 6.364V9H21.8014V6.364C21.8014 6.12667 21.7547 5.96 21.6614 5.864C21.568 5.768 21.4307 5.72 21.2494 5.72C21.1374 5.72 21.0307 5.74533 20.9294 5.796C20.8307 5.84667 20.7374 5.91467 20.6494 6V9H19.4094Z" fill="#B4B4B4"/>
<path d="M2.56 1H28.56V0H2.56V1ZM30.06 2.5V9.5H31.06V2.5H30.06ZM28.56 11H2.56V12H28.56V11ZM1.06 9.5V2.5H0.0599976V9.5H1.06ZM2.56 11C1.73157 11 1.06 10.3284 1.06 9.5H0.0599976C0.0599976 10.8807 1.17929 12 2.56 12V11ZM30.06 9.5C30.06 10.3284 29.3884 11 28.56 11V12C29.9407 12 31.06 10.8807 31.06 9.5H30.06ZM28.56 1C29.3884 1 30.06 1.67157 30.06 2.5H31.06C31.06 1.11929 29.9407 0 28.56 0V1ZM2.56 0C1.17929 0 0.0599976 1.11929 0.0599976 2.5H1.06C1.06 1.67157 1.73157 1 2.56 1V0Z" fill="black"/>
<path d="M0.560059 14.5C0.560059 13.3954 1.45549 12.5 2.56006 12.5H28.5601C29.6646 12.5 30.5601 13.3954 30.5601 14.5V21.5C30.5601 22.6046 29.6646 23.5 28.5601 23.5H2.56006C1.45549 23.5 0.560059 22.6046 0.560059 21.5V14.5Z" fill="#242424"/>
<rect x="2.56006" y="14.5" width="26" height="7" rx="1" fill="#FF9300"/>
<rect x="2.56006" y="14.5" width="26" height="7" rx="1" stroke="#FF9300"/>
<path d="M10.022 15.66C10.022 15.7293 10.01 15.7973 9.986 15.864C9.96466 15.9307 9.934 15.9933 9.894 16.052L7.158 19.96H9.934V21H5.438V20.48C5.438 20.4187 5.44866 20.3587 5.47 20.3C5.49133 20.2387 5.52066 20.1827 5.558 20.132L8.302 16.212H5.662V15.172H10.022V15.66ZM12.2646 16.788C12.5792 16.788 12.8659 16.8373 13.1246 16.936C13.3832 17.0347 13.6046 17.176 13.7886 17.36C13.9752 17.544 14.1192 17.768 14.2206 18.032C14.3246 18.2933 14.3766 18.588 14.3766 18.916C14.3766 19.2467 14.3246 19.5453 14.2206 19.812C14.1192 20.076 13.9752 20.3013 13.7886 20.488C13.6046 20.672 13.3832 20.8147 13.1246 20.916C12.8659 21.0147 12.5792 21.064 12.2646 21.064C11.9472 21.064 11.6579 21.0147 11.3966 20.916C11.1379 20.8147 10.9139 20.672 10.7246 20.488C10.5379 20.3013 10.3926 20.076 10.2886 19.812C10.1872 19.5453 10.1366 19.2467 10.1366 18.916C10.1366 18.588 10.1872 18.2933 10.2886 18.032C10.3926 17.768 10.5379 17.544 10.7246 17.36C10.9139 17.176 11.1379 17.0347 11.3966 16.936C11.6579 16.8373 11.9472 16.788 12.2646 16.788ZM12.2646 20.144C12.5499 20.144 12.7592 20.044 12.8926 19.844C13.0286 19.6413 13.0966 19.3347 13.0966 18.924C13.0966 18.5133 13.0286 18.208 12.8926 18.008C12.7592 17.808 12.5499 17.708 12.2646 17.708C11.9712 17.708 11.7566 17.808 11.6206 18.008C11.4846 18.208 11.4166 18.5133 11.4166 18.924C11.4166 19.3347 11.4846 19.6413 11.6206 19.844C11.7566 20.044 11.9712 20.144 12.2646 20.144ZM16.793 16.788C17.1077 16.788 17.3943 16.8373 17.653 16.936C17.9117 17.0347 18.133 17.176 18.317 17.36C18.5037 17.544 18.6477 17.768 18.749 18.032C18.853 18.2933 18.905 18.588 18.905 18.916C18.905 19.2467 18.853 19.5453 18.749 19.812C18.6477 20.076 18.5037 20.3013 18.317 20.488C18.133 20.672 17.9117 20.8147 17.653 20.916C17.3943 21.0147 17.1077 21.064 16.793 21.064C16.4757 21.064 16.1863 21.0147 15.925 20.916C15.6663 20.8147 15.4423 20.672 15.253 20.488C15.0663 20.3013 14.921 20.076 14.817 19.812C14.7157 19.5453 14.665 19.2467 14.665 18.916C14.665 18.588 14.7157 18.2933 14.817 18.032C14.921 17.768 15.0663 17.544 15.253 17.36C15.4423 17.176 15.6663 17.0347 15.925 16.936C16.1863 16.8373 16.4757 16.788 16.793 16.788ZM16.793 20.144C17.0783 20.144 17.2877 20.044 17.421 19.844C17.557 19.6413 17.625 19.3347 17.625 18.924C17.625 18.5133 17.557 18.208 17.421 18.008C17.2877 17.808 17.0783 17.708 16.793 17.708C16.4997 17.708 16.285 17.808 16.149 18.008C16.013 18.208 15.945 18.5133 15.945 18.924C15.945 19.3347 16.013 19.6413 16.149 19.844C16.285 20.044 16.4997 20.144 16.793 20.144ZM19.4094 21V16.852H20.1774C20.3321 16.852 20.4334 16.9213 20.4814 17.06L20.5494 17.284C20.6188 17.212 20.6908 17.1467 20.7654 17.088C20.8401 17.0267 20.9201 16.9747 21.0054 16.932C21.0934 16.8867 21.1868 16.852 21.2854 16.828C21.3868 16.8013 21.4974 16.788 21.6174 16.788C21.8681 16.788 22.0748 16.8533 22.2374 16.984C22.4028 17.112 22.5281 17.284 22.6134 17.5C22.6828 17.372 22.7668 17.2627 22.8654 17.172C22.9668 17.0813 23.0748 17.008 23.1894 16.952C23.3068 16.896 23.4294 16.8547 23.5574 16.828C23.6881 16.8013 23.8174 16.788 23.9454 16.788C24.1828 16.788 24.3934 16.824 24.5774 16.896C24.7614 16.9653 24.9148 17.068 25.0374 17.204C25.1628 17.3373 25.2574 17.5027 25.3214 17.7C25.3854 17.8947 25.4174 18.116 25.4174 18.364V21H24.1774V18.364C24.1774 17.9347 23.9934 17.72 23.6254 17.72C23.4574 17.72 23.3174 17.776 23.2054 17.888C23.0961 17.9973 23.0414 18.156 23.0414 18.364V21H21.8014V18.364C21.8014 18.1267 21.7548 17.96 21.6614 17.864C21.5681 17.768 21.4308 17.72 21.2494 17.72C21.1374 17.72 21.0308 17.7453 20.9294 17.796C20.8308 17.8467 20.7374 17.9147 20.6494 18V21H19.4094Z" fill="black"/>
<path d="M2.56006 13H28.5601V12H2.56006V13ZM30.0601 14.5V21.5H31.0601V14.5H30.0601ZM28.5601 23H2.56006V24H28.5601V23ZM1.06006 21.5V14.5H0.0600586V21.5H1.06006ZM2.56006 23C1.73163 23 1.06006 22.3284 1.06006 21.5H0.0600586C0.0600586 22.8807 1.17935 24 2.56006 24V23ZM30.0601 21.5C30.0601 22.3284 29.3885 23 28.5601 23V24C29.9408 24 31.0601 22.8807 31.0601 21.5H30.0601ZM28.5601 13C29.3885 13 30.0601 13.6716 30.0601 14.5H31.0601C31.0601 13.1193 29.9408 12 28.5601 12V13ZM2.56006 12C1.17935 12 0.0600586 13.1193 0.0600586 14.5H1.06006C1.06006 13.6716 1.73163 13 2.56006 13V12Z" fill="black"/>
</svg>
