<?xml version="1.0" encoding="utf-8"?>
<svg width="18px" height="198px" viewBox="0 0 18 198" version="1.1" xmlns:xlink="http://www.w3.org/1999/xlink" xmlns="http://www.w3.org/2000/svg">
  <desc>Created with Lunacy</desc>
  <defs>
    <rect width="18" height="198" id="artboard_1" />
    <clipPath id="clip_1">
      <use xlink:href="#artboard_1" clip-rule="evenodd" />
    </clipPath>
  </defs>
  <g id="bmp00169" clip-path="url(#clip_1)">
    <g id="Vintage-Ladder" transform="translate(5 182.92)">
      <path d="M0 10.2354L3.93477 0L0 10.2354L0 10.2354Z" transform="translate(4.065216 1.8251648)" id="Shape" fill="#000000" stroke="none" />
      <path d="M0 10.2354L3.93477 0" transform="translate(4.065216 1.8251648)" id="Shape" fill="none" stroke="#FFFFFF" stroke-width="1" stroke-linejoin="round" />
      <path d="M0 10.2555L3.88224 0L0 10.2555L0 10.2555Z" id="Shape" fill="#000000" stroke="none" />
      <path d="M0 10.2555L3.88224 0" id="Shape" fill="none" stroke="#FFFFFF" stroke-width="1" stroke-linejoin="round" />
      <path d="M0 0L3.50928 1.87944L0 0L0 0Z" transform="translate(3.3884277 2.0191495)" id="Shape" fill="#000000" stroke="none" />
      <path d="M0 0L3.50928 1.87944" transform="translate(3.3884277 2.0191495)" id="Shape" fill="none" stroke="#FFFFFF" stroke-width="1" stroke-linejoin="round" />
      <path d="M0 0L3.50924 1.87944L0 0L0 0Z" transform="translate(2.5592651 3.8533638)" id="Shape" fill="#000000" stroke="none" />
      <path d="M0 0L3.50924 1.87944" transform="translate(2.5592651 3.8533638)" id="Shape" fill="none" stroke="#FFFFFF" stroke-width="1" stroke-linejoin="round" />
      <path d="M0 0L3.50924 1.87945L0 0L0 0Z" transform="translate(1.8176575 5.9800415)" id="Shape" fill="#000000" stroke="none" />
      <path d="M0 0L3.50924 1.87945" transform="translate(1.8176575 5.9800415)" id="Shape" fill="none" stroke="#FFFFFF" stroke-width="1" stroke-linejoin="round" />
      <path d="M0 0L3.50925 1.87944L0 0L0 0Z" transform="translate(1.0944519 8.019303)" id="Shape" fill="#000000" stroke="none" />
      <path d="M0 0L3.50925 1.87944" transform="translate(1.0944519 8.019303)" id="Shape" fill="none" stroke="#FFFFFF" stroke-width="1" stroke-linejoin="round" />
    </g>
    <g id="S&amp;H" transform="translate(4.5599976 167)">
      <path d="M1 2.01009L2 2.01009L2 0L3 0L3 5.02522L2 5.02522L2 3.01513L1 3.01513L1 5.02522L0 5.02522L0 0L1 0L1 2.01009L1 2.01009Z" transform="translate(6 4.020233)" id="Shape" fill="#FFFFFF" stroke="none" />
      <path d="M0 9.04539L4 0" transform="translate(2.5 0)" id="Shape" fill="none" stroke="#FFFFFF" stroke-width="1" stroke-linejoin="round" />
      <path d="M2.497 0.0510527C2.497 0.0510527 0.345 -0.332878 0.346 1.00483C0.348 2.06816 2.502 2.14254 2.5 2.93954C2.497 4.44007 0 3.93956 0 3.93956" transform="translate(0 0.50268555)" id="Shape" fill="none" stroke="#FFFFFF" stroke-width="1" stroke-linejoin="round" />
    </g>
    <g id="Comb" transform="matrix(1 0 0 -1 3.5 157)">
      <path d="M0 0.013574C0 0.013574 2.00222 -0.468922 2.00222 4.49998L2.00089 4.49998C2.00089 -0.468922 3.72421 0.0127139 3.75 0.0126894" transform="matrix(1 0 0 -1 7 4.5)" id="3" fill="none" stroke="#FFFFFF" stroke-width="1" stroke-linejoin="round" />
      <path d="M0 0.0127682C0 0.0127682 2.00222 -0.469727 2.00222 4.49918L2.00089 4.49918C2.00089 -0.469727 4 0.0127682 4 0.0127682" transform="matrix(1 0 0 -1 3.25 4.499176)" id="2" fill="none" stroke="#FFFFFF" stroke-width="1" stroke-linejoin="round" />
      <path d="M0 0.023137C0.0437622 0.0232394 1.50222 -0.469736 1.50222 4.49917L1.50089 4.49917C1.50089 -0.469736 3.5 0.0127603 3.5 0.0127603" transform="matrix(1 0 0 -1 0 4.4992676)" id="1" fill="none" stroke="#FFFFFF" stroke-width="1" stroke-linejoin="round" />
    </g>
    <g id="Notch" transform="translate(4 134.5)">
      <path d="M0 0.0127705C0 0.0127705 5.00556 -0.469813 5.00556 4.5L5.00222 4.5C5.00222 -0.469813 10 0.0127705 10 0.0127705" id="Shape" fill="none" stroke="#FFFFFF" stroke-width="1" stroke-linejoin="round" />
    </g>
    <g id="Bandpass" transform="translate(4.5 116.49487)">
      <path d="M0 4.99112C0.0811462 -0.3693 4.446 0.00564733 4.446 0.00564733L4.45387 0.00564733C4.45387 0.00564733 9 0.058958 9 5" id="Shape" fill="none" stroke="#FFFFFF" stroke-width="1" stroke-linejoin="round" />
    </g>
    <g id="Highpass-24-dB/oct" transform="matrix(-1 0 0 1 14.000427 98)">
      <path d="M0 1L6.55 1L6.55 0L0 0L0 1L0 1Z" id="Shape-Copy" fill="#FFFFFF" stroke="none" />
      <path d="M0 0.00266558C3.10672 -0.104053 3 3.01782 3 5.02792" transform="translate(6.5 0.49917603)" id="Shape" fill="none" stroke="#FFFFFF" stroke-width="1" />
    </g>
    <g id="Highpass-12-dB/oct" transform="matrix(-1 0 0 1 14 80)">
      <path d="M0 1L3.75 1L3.75 0L0 0L0 1L0 1Z" id="Shape-Copy-2" fill="#FFFFFF" stroke="none" />
      <path d="M0 0.00299889C4.41917 -0.118492 5.99694 3.48319 6 5.01712" transform="translate(3.5 0.49806976)" id="Shape" fill="none" stroke="#FFFFFF" stroke-width="1" />
    </g>
    <g id="Legacy-Ladder" transform="translate(5 56.92)">
      <path d="M0 10.2354L3.93477 0L0 10.2354L0 10.2354Z" transform="translate(4.065216 1.8251648)" id="Shape" fill="#000000" stroke="none" />
      <path d="M0 10.2354L3.93477 0" transform="translate(4.065216 1.8251648)" id="Shape" fill="none" stroke="#FFFFFF" stroke-width="1" stroke-linejoin="round" />
      <path d="M0 10.2555L3.88224 0L0 10.2555L0 10.2555Z" id="Shape" fill="#000000" stroke="none" />
      <path d="M0 10.2555L3.88224 0" id="Shape" fill="none" stroke="#FFFFFF" stroke-width="1" stroke-linejoin="round" />
      <path d="M0 0L3.50928 1.87944L0 0L0 0Z" transform="translate(3.3884277 2.0191495)" id="Shape" fill="#000000" stroke="none" />
      <path d="M0 0L3.50928 1.87944" transform="translate(3.3884277 2.0191495)" id="Shape" fill="none" stroke="#FFFFFF" stroke-width="1" stroke-linejoin="round" />
      <path d="M0 0L3.50924 1.87944L0 0L0 0Z" transform="translate(2.5592651 3.8533638)" id="Shape" fill="#000000" stroke="none" />
      <path d="M0 0L3.50924 1.87944" transform="translate(2.5592651 3.8533638)" id="Shape" fill="none" stroke="#FFFFFF" stroke-width="1" stroke-linejoin="round" />
      <path d="M0 0L3.50924 1.87945L0 0L0 0Z" transform="translate(1.8176575 5.9800415)" id="Shape" fill="#000000" stroke="none" />
      <path d="M0 0L3.50924 1.87945" transform="translate(1.8176575 5.9800415)" id="Shape" fill="none" stroke="#FFFFFF" stroke-width="1" stroke-linejoin="round" />
      <path d="M0 0L3.50925 1.87944L0 0L0 0Z" transform="translate(1.0944519 8.019303)" id="Shape" fill="#000000" stroke="none" />
      <path d="M0 0L3.50925 1.87944" transform="translate(1.0944519 8.019303)" id="Shape" fill="none" stroke="#FFFFFF" stroke-width="1" stroke-linejoin="round" />
    </g>
    <g id="Lowpass-24-dB/oct" transform="translate(4 44.000046)">
      <path d="M0 1L6.55 1L6.55 0L0 0L0 1L0 1Z" id="Shape-Copy" fill="#FFFFFF" stroke="none" />
      <path d="M0 0.00266558C3.10672 -0.104053 3 3.01782 3 5.02792" transform="translate(6.5 0.49917603)" id="Shape" fill="none" stroke="#FFFFFF" stroke-width="1" />
    </g>
    <g id="Lowpass-12-dB/oct" transform="translate(4 26.010002)">
      <path d="M0 1L3.75 1L3.75 0L0 0L0 1L0 1Z" id="Shape-Copy-2" fill="#FFFFFF" stroke="none" />
      <path d="M0 0.00299889C4.41917 -0.118492 5.99694 3.48319 6 5.01712" transform="translate(3.5 0.49806976)" id="Shape" fill="none" stroke="#FFFFFF" stroke-width="1" />
    </g>
    <g id="Bypass" transform="translate(4 8.045456)">
      <path d="M0 1L10 1L10 0L0 0L0 1L0 1Z" id="Shape" fill="#FFFFFF" fill-rule="evenodd" stroke="none" />
    </g>
  </g>
</svg>