<svg width="34" height="36" viewBox="0 0 34 36" fill="none" xmlns="http://www.w3.org/2000/svg">
<path d="M0.5 2.5C0.5 1.39543 1.39543 0.5 2.5 0.5H31.5C32.6046 0.5 33.5 1.39543 33.5 2.5V15.5C33.5 16.6046 32.6046 17.5 31.5 17.5H2.5C1.39543 17.5 0.5 16.6046 0.5 15.5V2.5Z" fill="#242424"/>
<rect x="1.5" y="1.5" width="31" height="7" rx="1" fill="#FF9000"/>
<rect x="1.5" y="1.5" width="31" height="7" rx="1" stroke="#FF9000"/>
<path d="M8.85933 5.4485C8.85933 5.81717 8.79516 6.15783 8.66683 6.4705C8.54083 6.78083 8.36233 7.05033 8.13133 7.279C7.90033 7.50533 7.62149 7.68267 7.29483 7.811C6.97049 7.937 6.60999 8 6.21333 8H4.23233V2.9005H6.21333C6.60999 2.9005 6.97049 2.96467 7.29483 3.093C7.62149 3.22133 7.90033 3.39867 8.13133 3.625C8.36233 3.85133 8.54083 4.12083 8.66683 4.4335C8.79516 4.74383 8.85933 5.08217 8.85933 5.4485ZM7.64833 5.4485C7.64833 5.1965 7.61566 4.969 7.55033 4.766C7.48499 4.563 7.39049 4.3915 7.26683 4.2515C7.14549 4.10917 6.99616 4.00067 6.81883 3.926C6.64149 3.849 6.43966 3.8105 6.21333 3.8105H5.42233V7.09H6.21333C6.43966 7.09 6.64149 7.05267 6.81883 6.978C6.99616 6.901 7.14549 6.7925 7.26683 6.6525C7.39049 6.51017 7.48499 6.3375 7.55033 6.1345C7.61566 5.9315 7.64833 5.70283 7.64833 5.4485ZM10.6425 8H9.45252V2.9005H10.6425V8ZM13.9714 5.3575H15.7844V7.51C15.523 7.70133 15.2442 7.84017 14.9479 7.9265C14.6539 8.01283 14.3459 8.056 14.0239 8.056C13.6039 8.056 13.2212 7.99067 12.8759 7.86C12.5329 7.727 12.2389 7.545 11.9939 7.314C11.7489 7.08067 11.5599 6.80533 11.4269 6.488C11.2939 6.16833 11.2274 5.82183 11.2274 5.4485C11.2274 5.06817 11.2904 4.71933 11.4164 4.402C11.5424 4.08233 11.722 3.807 11.9554 3.576C12.191 3.345 12.4745 3.16533 12.8059 3.037C13.1395 2.90867 13.5117 2.8445 13.9224 2.8445C14.1347 2.8445 14.3342 2.862 14.5209 2.897C14.7075 2.932 14.879 2.97983 15.0354 3.0405C15.194 3.10117 15.3387 3.1735 15.4694 3.2575C15.6 3.3415 15.7167 3.4325 15.8194 3.5305L15.4764 4.052C15.4227 4.13367 15.3527 4.18383 15.2664 4.2025C15.1824 4.22117 15.0914 4.20017 14.9934 4.1395C14.9 4.0835 14.8114 4.03567 14.7274 3.996C14.6457 3.954 14.5617 3.92017 14.4754 3.8945C14.389 3.86883 14.298 3.85017 14.2024 3.8385C14.1067 3.82683 13.9994 3.821 13.8804 3.821C13.6587 3.821 13.4592 3.86067 13.2819 3.94C13.1045 4.017 12.9529 4.12667 12.8269 4.269C12.7032 4.41133 12.6075 4.58283 12.5399 4.7835C12.4722 4.98183 12.4384 5.2035 12.4384 5.4485C12.4384 5.71917 12.4757 5.9595 12.5504 6.1695C12.625 6.3795 12.73 6.55683 12.8654 6.7015C13.003 6.84617 13.1664 6.957 13.3554 7.034C13.5467 7.10867 13.7579 7.146 13.9889 7.146C14.1312 7.146 14.2595 7.132 14.3739 7.104C14.4905 7.076 14.6037 7.03867 14.7134 6.992V6.2185H14.2094C14.1347 6.2185 14.0764 6.19867 14.0344 6.159C13.9924 6.11933 13.9714 6.06917 13.9714 6.0085V5.3575ZM17.6649 8H16.4749V2.9005H17.6649V8ZM22.2083 3.8385H20.7733V8H19.5903V3.8385H18.1553V2.9005H22.2083V3.8385ZM24.9004 6.0505L24.4279 4.654C24.3929 4.56533 24.3555 4.4615 24.3159 4.3425C24.2762 4.22117 24.2365 4.0905 24.1969 3.9505C24.1619 4.09283 24.1245 4.22467 24.0849 4.346C24.0452 4.46733 24.0079 4.57233 23.9729 4.661L23.5039 6.0505H24.9004ZM26.7799 8H25.8629C25.7602 8 25.6774 7.97667 25.6144 7.93C25.5514 7.881 25.5035 7.81917 25.4709 7.7445L25.1699 6.8555H23.2309L22.9299 7.7445C22.9042 7.80983 22.8575 7.86933 22.7899 7.923C22.7245 7.97433 22.6429 8 22.5449 8H21.6209L23.5949 2.9005H24.8059L26.7799 8ZM30.1499 7.055V8H27.0769V2.9005H28.2599V7.055H30.1499Z" fill="black"/>
<path d="M5.59651 14.0505L5.12401 12.654C5.08901 12.5653 5.05167 12.4615 5.01201 12.3425C4.97234 12.2212 4.93267 12.0905 4.89301 11.9505C4.85801 12.0928 4.82067 12.2247 4.78101 12.346C4.74134 12.4673 4.70401 12.5723 4.66901 12.661L4.20001 14.0505H5.59651ZM7.47601 16H6.55901C6.45634 16 6.37351 15.9767 6.31051 15.93C6.24751 15.881 6.19967 15.8192 6.16701 15.7445L5.86601 14.8555H3.92701L3.62601 15.7445C3.60034 15.8098 3.55367 15.8693 3.48601 15.923C3.42067 15.9743 3.33901 16 3.24101 16H2.31701L4.29101 10.9005H5.50201L7.47601 16ZM12.2251 10.9005V16H11.6091C11.5181 16 11.4411 15.986 11.3781 15.958C11.3174 15.9277 11.2567 15.8763 11.1961 15.804L8.79157 12.7625C8.8009 12.8535 8.80674 12.9422 8.80907 13.0285C8.81374 13.1125 8.81607 13.1918 8.81607 13.2665V16H7.77307V10.9005H8.39607C8.4474 10.9005 8.49057 10.9028 8.52557 10.9075C8.56057 10.9122 8.59207 10.9215 8.62007 10.9355C8.64807 10.9472 8.6749 10.9647 8.70057 10.988C8.72624 11.0113 8.7554 11.0428 8.78807 11.0825L11.2136 14.145C11.2019 14.047 11.1937 13.9525 11.1891 13.8615C11.1844 13.7682 11.1821 13.6807 11.1821 13.599V10.9005H12.2251ZM15.8045 14.0505L15.332 12.654C15.297 12.5653 15.2596 12.4615 15.22 12.3425C15.1803 12.2212 15.1406 12.0905 15.101 11.9505C15.066 12.0928 15.0286 12.2247 14.989 12.346C14.9493 12.4673 14.912 12.5723 14.877 12.661L14.408 14.0505H15.8045ZM17.684 16H16.767C16.6643 16 16.5815 15.9767 16.5185 15.93C16.4555 15.881 16.4076 15.8192 16.375 15.7445L16.074 14.8555H14.135L13.834 15.7445C13.8083 15.8098 13.7616 15.8693 13.694 15.923C13.6286 15.9743 13.547 16 13.449 16H12.525L14.499 10.9005H15.71L17.684 16ZM21.054 15.055V16H17.981V10.9005H19.164V15.055H21.054ZM26.4357 13.4485C26.4357 13.8172 26.3716 14.1602 26.2432 14.4775C26.1172 14.7948 25.9387 15.0713 25.7077 15.307C25.4767 15.5403 25.1979 15.7235 24.8712 15.8565C24.5469 15.9895 24.1864 16.056 23.7897 16.056C23.3931 16.056 23.0314 15.9895 22.7047 15.8565C22.3781 15.7235 22.0981 15.5403 21.8647 15.307C21.6337 15.0713 21.4541 14.7948 21.3257 14.4775C21.1997 14.1602 21.1367 13.8172 21.1367 13.4485C21.1367 13.0798 21.1997 12.7368 21.3257 12.4195C21.4541 12.1022 21.6337 11.8268 21.8647 11.5935C22.0981 11.3602 22.3781 11.177 22.7047 11.044C23.0314 10.911 23.3931 10.8445 23.7897 10.8445C24.1864 10.8445 24.5469 10.9122 24.8712 11.0475C25.1979 11.1805 25.4767 11.3637 25.7077 11.597C25.9387 11.8303 26.1172 12.1057 26.2432 12.423C26.3716 12.7403 26.4357 13.0822 26.4357 13.4485ZM25.2247 13.4485C25.2247 13.1965 25.1921 12.9702 25.1267 12.7695C25.0614 12.5665 24.9669 12.395 24.8432 12.255C24.7219 12.115 24.5726 12.0077 24.3952 11.933C24.2179 11.8583 24.0161 11.821 23.7897 11.821C23.5611 11.821 23.3569 11.8583 23.1772 11.933C22.9999 12.0077 22.8494 12.115 22.7257 12.255C22.6044 12.395 22.5111 12.5665 22.4457 12.7695C22.3804 12.9702 22.3477 13.1965 22.3477 13.4485C22.3477 13.7028 22.3804 13.9315 22.4457 14.1345C22.5111 14.3352 22.6044 14.5055 22.7257 14.6455C22.8494 14.7855 22.9999 14.8928 23.1772 14.9675C23.3569 15.0398 23.5611 15.076 23.7897 15.076C24.0161 15.076 24.2179 15.0398 24.3952 14.9675C24.5726 14.8928 24.7219 14.7855 24.8432 14.6455C24.9669 14.5055 25.0614 14.3352 25.1267 14.1345C25.1921 13.9315 25.2247 13.7028 25.2247 13.4485ZM29.4769 13.3575H31.2899V15.51C31.0286 15.7013 30.7497 15.8402 30.4534 15.9265C30.1594 16.0128 29.8514 16.056 29.5294 16.056C29.1094 16.056 28.7267 15.9907 28.3814 15.86C28.0384 15.727 27.7444 15.545 27.4994 15.314C27.2544 15.0807 27.0654 14.8053 26.9324 14.488C26.7994 14.1683 26.7329 13.8218 26.7329 13.4485C26.7329 13.0682 26.7959 12.7193 26.9219 12.402C27.0479 12.0823 27.2276 11.807 27.4609 11.576C27.6966 11.345 27.9801 11.1653 28.3114 11.037C28.6451 10.9087 29.0172 10.8445 29.4279 10.8445C29.6402 10.8445 29.8397 10.862 30.0264 10.897C30.2131 10.932 30.3846 10.9798 30.5409 11.0405C30.6996 11.1012 30.8442 11.1735 30.9749 11.2575C31.1056 11.3415 31.2222 11.4325 31.3249 11.5305L30.9819 12.052C30.9282 12.1337 30.8582 12.1838 30.7719 12.2025C30.6879 12.2212 30.5969 12.2002 30.4989 12.1395C30.4056 12.0835 30.3169 12.0357 30.2329 11.996C30.1512 11.954 30.0672 11.9202 29.9809 11.8945C29.8946 11.8688 29.8036 11.8502 29.7079 11.8385C29.6122 11.8268 29.5049 11.821 29.3859 11.821C29.1642 11.821 28.9647 11.8607 28.7874 11.94C28.6101 12.017 28.4584 12.1267 28.3324 12.269C28.2087 12.4113 28.1131 12.5828 28.0454 12.7835C27.9777 12.9818 27.9439 13.2035 27.9439 13.4485C27.9439 13.7192 27.9812 13.9595 28.0559 14.1695C28.1306 14.3795 28.2356 14.5568 28.3709 14.7015C28.5086 14.8462 28.6719 14.957 28.8609 15.034C29.0522 15.1087 29.2634 15.146 29.4944 15.146C29.6367 15.146 29.7651 15.132 29.8794 15.104C29.9961 15.076 30.1092 15.0387 30.2189 14.992V14.2185H29.7149C29.6402 14.2185 29.5819 14.1987 29.5399 14.159C29.4979 14.1193 29.4769 14.0692 29.4769 14.0085V13.3575Z" fill="#B4B4B4"/>
<path d="M2.5 1H31.5V0H2.5V1ZM33 2.5V15.5H34V2.5H33ZM31.5 17H2.5V18H31.5V17ZM1 15.5V2.5H0V15.5H1ZM2.5 17C1.67157 17 1 16.3284 1 15.5H0C0 16.8807 1.11929 18 2.5 18V17ZM33 15.5C33 16.3284 32.3284 17 31.5 17V18C32.8807 18 34 16.8807 34 15.5H33ZM31.5 1C32.3284 1 33 1.67157 33 2.5H34C34 1.11929 32.8807 0 31.5 0V1ZM2.5 0C1.11929 0 0 1.11929 0 2.5H1C1 1.67157 1.67157 1 2.5 1V0Z" fill="black"/>
<path d="M0.5 20.5C0.5 19.3954 1.39543 18.5 2.5 18.5H31.5C32.6046 18.5 33.5 19.3954 33.5 20.5V33.5C33.5 34.6046 32.6046 35.5 31.5 35.5H2.5C1.39543 35.5 0.5 34.6046 0.5 33.5V20.5Z" fill="#242424"/>
<path d="M8.85933 23.4485C8.85933 23.8172 8.79516 24.1578 8.66683 24.4705C8.54083 24.7808 8.36233 25.0503 8.13133 25.279C7.90033 25.5053 7.62149 25.6827 7.29483 25.811C6.97049 25.937 6.60999 26 6.21333 26H4.23233V20.9005H6.21333C6.60999 20.9005 6.97049 20.9647 7.29483 21.093C7.62149 21.2213 7.90033 21.3987 8.13133 21.625C8.36233 21.8513 8.54083 22.1208 8.66683 22.4335C8.79516 22.7438 8.85933 23.0822 8.85933 23.4485ZM7.64833 23.4485C7.64833 23.1965 7.61566 22.969 7.55033 22.766C7.48499 22.563 7.39049 22.3915 7.26683 22.2515C7.14549 22.1092 6.99616 22.0007 6.81883 21.926C6.64149 21.849 6.43966 21.8105 6.21333 21.8105H5.42233V25.09H6.21333C6.43966 25.09 6.64149 25.0527 6.81883 24.978C6.99616 24.901 7.14549 24.7925 7.26683 24.6525C7.39049 24.5102 7.48499 24.3375 7.55033 24.1345C7.61566 23.9315 7.64833 23.7028 7.64833 23.4485ZM10.6425 26H9.45252V20.9005H10.6425V26ZM13.9714 23.3575H15.7844V25.51C15.523 25.7013 15.2442 25.8402 14.9479 25.9265C14.6539 26.0128 14.3459 26.056 14.0239 26.056C13.6039 26.056 13.2212 25.9907 12.8759 25.86C12.5329 25.727 12.2389 25.545 11.9939 25.314C11.7489 25.0807 11.5599 24.8053 11.4269 24.488C11.2939 24.1683 11.2274 23.8218 11.2274 23.4485C11.2274 23.0682 11.2904 22.7193 11.4164 22.402C11.5424 22.0823 11.722 21.807 11.9554 21.576C12.191 21.345 12.4745 21.1653 12.8059 21.037C13.1395 20.9087 13.5117 20.8445 13.9224 20.8445C14.1347 20.8445 14.3342 20.862 14.5209 20.897C14.7075 20.932 14.879 20.9798 15.0354 21.0405C15.194 21.1012 15.3387 21.1735 15.4694 21.2575C15.6 21.3415 15.7167 21.4325 15.8194 21.5305L15.4764 22.052C15.4227 22.1337 15.3527 22.1838 15.2664 22.2025C15.1824 22.2212 15.0914 22.2002 14.9934 22.1395C14.9 22.0835 14.8114 22.0357 14.7274 21.996C14.6457 21.954 14.5617 21.9202 14.4754 21.8945C14.389 21.8688 14.298 21.8502 14.2024 21.8385C14.1067 21.8268 13.9994 21.821 13.8804 21.821C13.6587 21.821 13.4592 21.8607 13.2819 21.94C13.1045 22.017 12.9529 22.1267 12.8269 22.269C12.7032 22.4113 12.6075 22.5828 12.5399 22.7835C12.4722 22.9818 12.4384 23.2035 12.4384 23.4485C12.4384 23.7192 12.4757 23.9595 12.5504 24.1695C12.625 24.3795 12.73 24.5568 12.8654 24.7015C13.003 24.8462 13.1664 24.957 13.3554 25.034C13.5467 25.1087 13.7579 25.146 13.9889 25.146C14.1312 25.146 14.2595 25.132 14.3739 25.104C14.4905 25.076 14.6037 25.0387 14.7134 24.992V24.2185H14.2094C14.1347 24.2185 14.0764 24.1987 14.0344 24.159C13.9924 24.1193 13.9714 24.0692 13.9714 24.0085V23.3575ZM17.6649 26H16.4749V20.9005H17.6649V26ZM22.2083 21.8385H20.7733V26H19.5903V21.8385H18.1553V20.9005H22.2083V21.8385ZM24.9004 24.0505L24.4279 22.654C24.3929 22.5653 24.3555 22.4615 24.3159 22.3425C24.2762 22.2212 24.2365 22.0905 24.1969 21.9505C24.1619 22.0928 24.1245 22.2247 24.0849 22.346C24.0452 22.4673 24.0079 22.5723 23.9729 22.661L23.5039 24.0505H24.9004ZM26.7799 26H25.8629C25.7602 26 25.6774 25.9767 25.6144 25.93C25.5514 25.881 25.5035 25.8192 25.4709 25.7445L25.1699 24.8555H23.2309L22.9299 25.7445C22.9042 25.8098 22.8575 25.8693 22.7899 25.923C22.7245 25.9743 22.6429 26 22.5449 26H21.6209L23.5949 20.9005H24.8059L26.7799 26ZM30.1499 25.055V26H27.0769V20.9005H28.2599V25.055H30.1499Z" fill="#B4B4B4"/>
<rect x="1.5" y="27.5" width="31" height="7" rx="1" fill="#FF9000"/>
<rect x="1.5" y="27.5" width="31" height="7" rx="1" stroke="#FF9000"/>
<path d="M5.59651 32.0505L5.12401 30.654C5.08901 30.5653 5.05167 30.4615 5.01201 30.3425C4.97234 30.2212 4.93267 30.0905 4.89301 29.9505C4.85801 30.0928 4.82067 30.2247 4.78101 30.346C4.74134 30.4673 4.70401 30.5723 4.66901 30.661L4.20001 32.0505H5.59651ZM7.47601 34H6.55901C6.45634 34 6.37351 33.9767 6.31051 33.93C6.24751 33.881 6.19967 33.8192 6.16701 33.7445L5.86601 32.8555H3.92701L3.62601 33.7445C3.60034 33.8098 3.55367 33.8693 3.48601 33.923C3.42067 33.9743 3.33901 34 3.24101 34H2.31701L4.29101 28.9005H5.50201L7.47601 34ZM12.2251 28.9005V34H11.6091C11.5181 34 11.4411 33.986 11.3781 33.958C11.3174 33.9277 11.2567 33.8763 11.1961 33.804L8.79157 30.7625C8.8009 30.8535 8.80674 30.9422 8.80907 31.0285C8.81374 31.1125 8.81607 31.1918 8.81607 31.2665V34H7.77307V28.9005H8.39607C8.4474 28.9005 8.49057 28.9028 8.52557 28.9075C8.56057 28.9122 8.59207 28.9215 8.62007 28.9355C8.64807 28.9472 8.6749 28.9647 8.70057 28.988C8.72624 29.0113 8.7554 29.0428 8.78807 29.0825L11.2136 32.145C11.2019 32.047 11.1937 31.9525 11.1891 31.8615C11.1844 31.7682 11.1821 31.6807 11.1821 31.599V28.9005H12.2251ZM15.8045 32.0505L15.332 30.654C15.297 30.5653 15.2596 30.4615 15.22 30.3425C15.1803 30.2212 15.1406 30.0905 15.101 29.9505C15.066 30.0928 15.0286 30.2247 14.989 30.346C14.9493 30.4673 14.912 30.5723 14.877 30.661L14.408 32.0505H15.8045ZM17.684 34H16.767C16.6643 34 16.5815 33.9767 16.5185 33.93C16.4555 33.881 16.4076 33.8192 16.375 33.7445L16.074 32.8555H14.135L13.834 33.7445C13.8083 33.8098 13.7616 33.8693 13.694 33.923C13.6286 33.9743 13.547 34 13.449 34H12.525L14.499 28.9005H15.71L17.684 34ZM21.054 33.055V34H17.981V28.9005H19.164V33.055H21.054ZM26.4357 31.4485C26.4357 31.8172 26.3716 32.1602 26.2432 32.4775C26.1172 32.7948 25.9387 33.0713 25.7077 33.307C25.4767 33.5403 25.1979 33.7235 24.8712 33.8565C24.5469 33.9895 24.1864 34.056 23.7897 34.056C23.3931 34.056 23.0314 33.9895 22.7047 33.8565C22.3781 33.7235 22.0981 33.5403 21.8647 33.307C21.6337 33.0713 21.4541 32.7948 21.3257 32.4775C21.1997 32.1602 21.1367 31.8172 21.1367 31.4485C21.1367 31.0798 21.1997 30.7368 21.3257 30.4195C21.4541 30.1022 21.6337 29.8268 21.8647 29.5935C22.0981 29.3602 22.3781 29.177 22.7047 29.044C23.0314 28.911 23.3931 28.8445 23.7897 28.8445C24.1864 28.8445 24.5469 28.9122 24.8712 29.0475C25.1979 29.1805 25.4767 29.3637 25.7077 29.597C25.9387 29.8303 26.1172 30.1057 26.2432 30.423C26.3716 30.7403 26.4357 31.0822 26.4357 31.4485ZM25.2247 31.4485C25.2247 31.1965 25.1921 30.9702 25.1267 30.7695C25.0614 30.5665 24.9669 30.395 24.8432 30.255C24.7219 30.115 24.5726 30.0077 24.3952 29.933C24.2179 29.8583 24.0161 29.821 23.7897 29.821C23.5611 29.821 23.3569 29.8583 23.1772 29.933C22.9999 30.0077 22.8494 30.115 22.7257 30.255C22.6044 30.395 22.5111 30.5665 22.4457 30.7695C22.3804 30.9702 22.3477 31.1965 22.3477 31.4485C22.3477 31.7028 22.3804 31.9315 22.4457 32.1345C22.5111 32.3352 22.6044 32.5055 22.7257 32.6455C22.8494 32.7855 22.9999 32.8928 23.1772 32.9675C23.3569 33.0398 23.5611 33.076 23.7897 33.076C24.0161 33.076 24.2179 33.0398 24.3952 32.9675C24.5726 32.8928 24.7219 32.7855 24.8432 32.6455C24.9669 32.5055 25.0614 32.3352 25.1267 32.1345C25.1921 31.9315 25.2247 31.7028 25.2247 31.4485ZM29.4769 31.3575H31.2899V33.51C31.0286 33.7013 30.7497 33.8402 30.4534 33.9265C30.1594 34.0128 29.8514 34.056 29.5294 34.056C29.1094 34.056 28.7267 33.9907 28.3814 33.86C28.0384 33.727 27.7444 33.545 27.4994 33.314C27.2544 33.0807 27.0654 32.8053 26.9324 32.488C26.7994 32.1683 26.7329 31.8218 26.7329 31.4485C26.7329 31.0682 26.7959 30.7193 26.9219 30.402C27.0479 30.0823 27.2276 29.807 27.4609 29.576C27.6966 29.345 27.9801 29.1653 28.3114 29.037C28.6451 28.9087 29.0172 28.8445 29.4279 28.8445C29.6402 28.8445 29.8397 28.862 30.0264 28.897C30.2131 28.932 30.3846 28.9798 30.5409 29.0405C30.6996 29.1012 30.8442 29.1735 30.9749 29.2575C31.1056 29.3415 31.2222 29.4325 31.3249 29.5305L30.9819 30.052C30.9282 30.1337 30.8582 30.1838 30.7719 30.2025C30.6879 30.2212 30.5969 30.2002 30.4989 30.1395C30.4056 30.0835 30.3169 30.0357 30.2329 29.996C30.1512 29.954 30.0672 29.9202 29.9809 29.8945C29.8946 29.8688 29.8036 29.8502 29.7079 29.8385C29.6122 29.8268 29.5049 29.821 29.3859 29.821C29.1642 29.821 28.9647 29.8607 28.7874 29.94C28.6101 30.017 28.4584 30.1267 28.3324 30.269C28.2087 30.4113 28.1131 30.5828 28.0454 30.7835C27.9777 30.9818 27.9439 31.2035 27.9439 31.4485C27.9439 31.7192 27.9812 31.9595 28.0559 32.1695C28.1306 32.3795 28.2356 32.5568 28.3709 32.7015C28.5086 32.8462 28.6719 32.957 28.8609 33.034C29.0522 33.1087 29.2634 33.146 29.4944 33.146C29.6367 33.146 29.7651 33.132 29.8794 33.104C29.9961 33.076 30.1092 33.0387 30.2189 32.992V32.2185H29.7149C29.6402 32.2185 29.5819 32.1987 29.5399 32.159C29.4979 32.1193 29.4769 32.0692 29.4769 32.0085V31.3575Z" fill="black"/>
<path d="M2.5 19H31.5V18H2.5V19ZM33 20.5V33.5H34V20.5H33ZM31.5 35H2.5V36H31.5V35ZM1 33.5V20.5H0V33.5H1ZM2.5 35C1.67157 35 1 34.3284 1 33.5H0C0 34.8807 1.11929 36 2.5 36V35ZM33 33.5C33 34.3284 32.3284 35 31.5 35V36C32.8807 36 34 34.8807 34 33.5H33ZM31.5 19C32.3284 19 33 19.6716 33 20.5H34C34 19.1193 32.8807 18 31.5 18V19ZM2.5 18C1.11929 18 0 19.1193 0 20.5H1C1 19.6716 1.67157 19 2.5 19V18Z" fill="black"/>
</svg>
