<?xml version="1.0" encoding="UTF-8"?>
<svg width="12px" height="108px" viewBox="0 0 12 108" version="1.1" xmlns="http://www.w3.org/2000/svg" xmlns:xlink="http://www.w3.org/1999/xlink">
    <!-- Generator: Sketch 63.1 (92452) - https://sketch.com -->
    <title>bmp00160</title>
    <desc>Created with Sketch.</desc>
    <defs>
        <linearGradient x1="50%" y1="0%" x2="50%" y2="100%" id="linearGradient-1">
            <stop stop-color="#0068D8" offset="0%"></stop>
            <stop stop-color="#0054AF" offset="100%"></stop>
        </linearGradient>
        <linearGradient x1="50%" y1="0%" x2="50%" y2="100%" id="linearGradient-2">
            <stop stop-color="#FFFFFF" offset="0%"></stop>
            <stop stop-color="#D1D1D1" offset="100%"></stop>
        </linearGradient>
    </defs>
    <g id="bmp00160" stroke="none" stroke-width="1" fill="none" fill-rule="evenodd">
        <g id="Stacked-Group" transform="translate(0.000000, 19.000000)">
            <rect id="Rectangle" fill="url(#linearGradient-1)" x="0" y="18" width="11" height="13"></rect>
            <g id="Group">
                <rect id="Rectangle" fill="url(#linearGradient-1)" x="0" y="0" width="11" height="13"></rect>
                <rect id="Rectangle" fill="url(#linearGradient-2)" x="0" y="1" width="11" height="11" rx="1"></rect>
                <rect id="Rectangle" fill="url(#linearGradient-2)" x="0" y="19" width="11" height="11" rx="1"></rect>
            </g>
            <g id="Group" transform="translate(0.000000, 72.000000)">
                <rect id="Rectangle" fill="url(#linearGradient-1)" x="0" y="0" width="11" height="13"></rect>
                <rect id="Rectangle" fill="url(#linearGradient-2)" x="0" y="1" width="11" height="11" rx="1"></rect>
            </g>
            <g id="Group" transform="translate(0.000000, 54.000000)">
                <rect id="Rectangle" fill="url(#linearGradient-1)" x="0" y="0" width="11" height="13"></rect>
                <rect id="Rectangle" fill="url(#linearGradient-2)" x="0" y="1" width="11" height="11" rx="1"></rect>
            </g>
            <g id="Group" transform="translate(0.000000, 36.000000)">
                <rect id="Rectangle" fill="url(#linearGradient-1)" x="0" y="0" width="11" height="13"></rect>
                <rect id="Rectangle" fill="url(#linearGradient-2)" x="0" y="1" width="11" height="11" rx="1"></rect>
            </g>
            <g id="Group" transform="translate(0.000000, 18.000000)"></g>
        </g>
        <g id="Font-Layer-Copy" transform="translate(3.000000, 23.000000)" fill="#1E1E1E" fill-rule="nonzero">
            <path d="M3.26171875,58.9082031 L3.26171875,57.7119141 L3.98291016,57.7119141 L3.98291016,57.175293 L3.26171875,57.175293 L3.26171875,54 L2.7421875,54 L0.5,57.1103516 L0.5,57.7119141 L2.64648438,57.7119141 L2.64648438,58.9082031 L3.26171875,58.9082031 Z M2.63623047,57.175293 L1.06738281,57.175293 L2.63623047,54.9570312 L2.63623047,57.175293 Z" id="4"></path>
            <path d="M2.07226562,76.9355469 C2.69889323,76.9355469 3.15519206,76.7589518 3.44116211,76.4057617 C3.72713216,76.0525716 3.87011719,75.644694 3.87011719,75.1821289 C3.87011719,74.737793 3.71402995,74.370931 3.40185547,74.081543 C3.08968099,73.7921549 2.70914714,73.6474609 2.26025391,73.6474609 C2.02099609,73.6474609 1.81022135,73.6850586 1.62792969,73.7602539 C1.52539062,73.8035482 1.41715495,73.8684896 1.30322266,73.9550781 L1.30322266,73.9550781 L1.51171875,72.5947266 L3.59326172,72.5947266 L3.59326172,72 L1.05029297,72 L0.677734375,74.6352539 L1.2109375,74.6660156 C1.31803385,74.5201823 1.44734701,74.40625 1.59887695,74.3242188 C1.7504069,74.2421875 1.93212891,74.2011719 2.14404297,74.2011719 C2.43570964,74.2011719 2.68579102,74.2945964 2.89428711,74.4814453 C3.1027832,74.6682943 3.20703125,74.9326172 3.20703125,75.2744141 C3.20703125,75.5569661 3.11930339,75.8144531 2.94384766,76.046875 C2.76839193,76.2792969 2.4983724,76.3955078 2.13378906,76.3955078 C1.94238281,76.3955078 1.77376302,76.3613281 1.62792969,76.2929688 C1.34309896,76.1585286 1.18017578,75.9158529 1.13916016,75.5649414 L1.13916016,75.5649414 L0.5,75.5649414 C0.536458333,76.0297852 0.707926432,76.3744303 1.0144043,76.598877 C1.32088216,76.8233236 1.6735026,76.9355469 2.07226562,76.9355469 Z" id="5"></path>
            <path d="M2.80810547,4.87402344 L2.80810547,0 L2.32275391,0 C2.23616536,0.378255208 2.10514323,0.618082682 1.9296875,0.719482422 C1.75423177,0.820882161 1.44433594,0.893229167 1,0.936523438 L1,0.936523438 L1,1.40820312 L2.15185547,1.40820312 L2.15185547,4.87402344 L2.80810547,4.87402344 Z" id="1"></path>
            <path d="M3.85986328,22.9116211 L3.85986328,22.3305664 L1.18701172,22.3305664 C1.24625651,22.0890299 1.3898112,21.8691406 1.61767578,21.6708984 C1.74527995,21.5592448 1.92073568,21.4418945 2.14404297,21.3188477 L2.14404297,21.3188477 L2.61230469,21.059082 C3.02473958,20.8289388 3.31070964,20.6329753 3.47021484,20.4711914 C3.74593099,20.1931966 3.88378906,19.8582357 3.88378906,19.4663086 C3.88378906,19.0948893 3.75447591,18.7576497 3.49584961,18.4545898 C3.23722331,18.1515299 2.82763672,18 2.26708984,18 C1.59261068,18 1.12207031,18.2369792 0.85546875,18.7109375 C0.705078125,18.9798177 0.626464844,19.3273112 0.619628906,19.753418 L0.619628906,19.753418 L1.24511719,19.753418 C1.25423177,19.4503581 1.30208333,19.2133789 1.38867188,19.0424805 C1.55045573,18.7234701 1.8421224,18.5639648 2.26367188,18.5639648 C2.5485026,18.5639648 2.77636719,18.6477051 2.94726562,18.8151855 C3.11816406,18.982666 3.20361328,19.2088216 3.20361328,19.4936523 C3.20361328,19.7374674 3.1101888,19.9539388 2.92333984,20.1430664 C2.80485026,20.2638346 2.59863281,20.409668 2.3046875,20.5805664 L2.3046875,20.5805664 L1.6484375,20.9599609 C1.20865885,21.2151693 0.913004557,21.4988607 0.761474609,21.8110352 C0.609944661,22.1232096 0.522786458,22.4900716 0.5,22.9116211 L0.5,22.9116211 L3.85986328,22.9116211 Z" id="2"></path>
            <path d="M2.15087891,41.034668 C2.71598307,41.034668 3.15234375,40.8876953 3.45996094,40.59375 C3.76757812,40.2998047 3.92138672,39.9192708 3.92138672,39.4521484 C3.92138672,39.1604818 3.84903971,38.9138184 3.7043457,38.7121582 C3.55965169,38.510498 3.3585612,38.374349 3.10107422,38.3037109 C3.26057943,38.2376302 3.39046224,38.1464844 3.49072266,38.0302734 C3.65250651,37.8434245 3.73339844,37.5996094 3.73339844,37.2988281 C3.73339844,36.8772786 3.59667969,36.5554199 3.32324219,36.333252 C3.04980469,36.111084 2.66357422,36 2.16455078,36 C1.53336589,36 1.09244792,36.2278646 0.841796875,36.6835938 C0.695963542,36.9388021 0.623046875,37.2486979 0.623046875,37.6132812 L0.623046875,37.6132812 L1.23144531,37.6132812 C1.24283854,37.3352865 1.29182943,37.1210938 1.37841797,36.9707031 C1.53564453,36.6972656 1.81933594,36.5605469 2.22949219,36.5605469 C2.45963542,36.5605469 2.66129557,36.6266276 2.83447266,36.7587891 C3.00764974,36.8909505 3.09423828,37.0789388 3.09423828,37.3227539 C3.09423828,37.6508789 2.96435547,37.8787435 2.70458984,38.0063477 C2.55647786,38.0792643 2.36735026,38.1157227 2.13720703,38.1157227 C2.08707682,38.1157227 2.04036458,38.1145833 1.99707031,38.1123047 C1.95377604,38.110026 1.90022786,38.1054688 1.83642578,38.0986328 L1.83642578,38.0986328 L1.83642578,38.6420898 C1.87972005,38.6398112 1.92244466,38.6381022 1.96459961,38.6369629 L1.96459961,38.6369629 L2.08935547,38.6352539 C2.45621745,38.6352539 2.74275716,38.702474 2.94897461,38.8369141 C3.15519206,38.9713542 3.25830078,39.207194 3.25830078,39.5444336 C3.25830078,39.8178711 3.16031901,40.0411784 2.96435547,40.2143555 C2.76839193,40.3875326 2.5086263,40.4741211 2.18505859,40.4741211 C1.76806641,40.4741211 1.47981771,40.3453776 1.3203125,40.0878906 C1.22916667,39.9443359 1.16992188,39.7141927 1.14257812,39.3974609 L1.14257812,39.3974609 L0.5,39.3974609 C0.5,39.8531901 0.630452474,40.2399902 0.891357422,40.5578613 C1.15226237,40.8757324 1.57210286,41.034668 2.15087891,41.034668 Z" id="3"></path>
        </g>
    </g>
</svg>