<?xml version="1.0" encoding="UTF-8"?>
<svg width="48px" height="300px" viewBox="0 0 48 300" version="1.1" xmlns="http://www.w3.org/2000/svg" xmlns:xlink="http://www.w3.org/1999/xlink">
    <title>bmp00105</title>
    <g id="bmp00105" stroke="none" stroke-width="1" fill="none" fill-rule="evenodd">
        <g id="Group" transform="translate(1.000000, 75.000000)">
            <g id="Group-2">
                <g id="Group-4-Copy" transform="translate(0.000000, 9.500000)" fill="#FFFFFF" fill-opacity="0.1">
                    <rect id="Rectangle" transform="translate(6.500000, 28.500000) rotate(-90.000000) translate(-6.500000, -28.500000) " x="6" y="25" width="1" height="7"></rect>
                    <rect id="Rectangle" transform="translate(6.500000, 56.500000) rotate(-90.000000) translate(-6.500000, -56.500000) " x="6" y="50" width="1" height="13"></rect>
                    <rect id="Rectangle-Copy" transform="translate(6.500000, 0.500000) rotate(-90.000000) translate(-6.500000, -0.500000) " x="6" y="-6" width="1" height="13"></rect>
                </g>
                <g id="Group-4-Copy" transform="translate(16.500000, 9.500000)" fill="#FFFFFF" fill-opacity="0.1">
                    <rect id="Rectangle" transform="translate(6.500000, 28.500000) rotate(-90.000000) translate(-6.500000, -28.500000) " x="6" y="25" width="1" height="7"></rect>
                    <rect id="Rectangle" transform="translate(6.500000, 56.500000) rotate(-90.000000) translate(-6.500000, -56.500000) " x="6" y="50" width="1" height="13"></rect>
                    <rect id="Rectangle-Copy" transform="translate(6.500000, 0.500000) rotate(-90.000000) translate(-6.500000, -0.500000) " x="6" y="-6" width="1" height="13"></rect>
                </g>
                <g id="Group-4-Copy" transform="translate(32.500000, 9.500000)" fill="#FFFFFF" fill-opacity="0.1">
                    <rect id="Rectangle" transform="translate(6.500000, 28.500000) rotate(-90.000000) translate(-6.500000, -28.500000) " x="6" y="25" width="1" height="7"></rect>
                    <rect id="Rectangle" transform="translate(6.500000, 56.500000) rotate(-90.000000) translate(-6.500000, -56.500000) " x="6" y="50" width="1" height="13"></rect>
                    <rect id="Rectangle-Copy" transform="translate(6.500000, 0.500000) rotate(-90.000000) translate(-6.500000, -0.500000) " x="6" y="-6" width="1" height="13"></rect>
                </g>
                <rect id="Rectangle" fill-opacity="0.1" fill="#FFFFFF" transform="translate(6.500000, 37.000000) rotate(-90.000000) translate(-6.500000, -37.000000) " x="-30" y="35.5" width="73" height="3" rx="1.5"></rect>
                <g id="Group-4" transform="translate(0.000000, 9.000000)" fill="#181818">
                    <rect id="Rectangle" transform="translate(6.500000, 28.500000) rotate(-90.000000) translate(-6.500000, -28.500000) " x="6" y="25" width="1" height="7"></rect>
                    <rect id="Rectangle" transform="translate(6.500000, 56.500000) rotate(-90.000000) translate(-6.500000, -56.500000) " x="6" y="50" width="1" height="13"></rect>
                    <rect id="Rectangle-Copy" transform="translate(6.500000, 0.500000) rotate(-90.000000) translate(-6.500000, -0.500000) " x="6" y="-6" width="1" height="13"></rect>
                </g>
                <rect id="Rectangle" stroke="#0F0F0F" fill="#1F1F1F" transform="translate(6.500000, 36.500000) rotate(-90.000000) translate(-6.500000, -36.500000) " x="-29.5" y="35.5" width="72" height="2" rx="1"></rect>
            </g>
            <g id="Group-2-Copy" transform="translate(16.500000, 0.000000)">
                <rect id="Rectangle" fill-opacity="0.1" fill="#FFFFFF" transform="translate(6.500000, 37.000000) rotate(-90.000000) translate(-6.500000, -37.000000) " x="-30" y="35.5" width="73" height="3" rx="1.5"></rect>
                <rect id="Rectangle" fill="#001428" transform="translate(6.500000, 37.500000) rotate(-90.000000) translate(-6.500000, -37.500000) " x="6" y="34" width="1" height="7"></rect>
                <rect id="Rectangle" fill="#001428" transform="translate(6.500000, 65.500000) rotate(-90.000000) translate(-6.500000, -65.500000) " x="6" y="59" width="1" height="13"></rect>
                <rect id="Rectangle-Copy" fill="#001428" transform="translate(6.500000, 9.500000) rotate(-90.000000) translate(-6.500000, -9.500000) " x="6" y="3" width="1" height="13"></rect>
                <rect id="Rectangle" stroke="#001427" fill="#737373" transform="translate(6.500000, 36.500000) rotate(-90.000000) translate(-6.500000, -36.500000) " x="-29.5" y="35.5" width="72" height="2" rx="1"></rect>
            </g>
            <g id="Group-2-Copy-2" transform="translate(32.500000, 0.000000)">
                <rect id="Rectangle" fill-opacity="0.1" fill="#FFFFFF" transform="translate(6.500000, 37.000000) rotate(-90.000000) translate(-6.500000, -37.000000) " x="-30" y="35.5" width="73" height="3" rx="1.5"></rect>
                <rect id="Rectangle" fill="#001428" transform="translate(6.500000, 37.500000) rotate(-90.000000) translate(-6.500000, -37.500000) " x="6" y="34" width="1" height="7"></rect>
                <rect id="Rectangle" fill="#001428" transform="translate(6.500000, 65.500000) rotate(-90.000000) translate(-6.500000, -65.500000) " x="6" y="59" width="1" height="13"></rect>
                <rect id="Rectangle-Copy" fill="#001428" transform="translate(6.500000, 9.500000) rotate(-90.000000) translate(-6.500000, -9.500000) " x="6" y="3" width="1" height="13"></rect>
                <rect id="Rectangle" stroke="#001427" fill="#2471DB" transform="translate(6.500000, 36.500000) rotate(-90.000000) translate(-6.500000, -36.500000) " x="-29.5" y="35.5" width="72" height="2" rx="1"></rect>
            </g>
        </g>
        <g id="Group-7" transform="translate(24.000000, 37.000000) rotate(-90.000000) translate(-24.000000, -37.000000) translate(-13.000000, 17.000000)">
            <rect id="Rectangle" fill-opacity="0.1" fill="#FFFFFF" x="0.5" y="2" width="73" height="3" rx="1.5"></rect>
            <g id="Group-3" transform="translate(7.000000, 0.000000)" fill="#FFFFFF" fill-opacity="0.1">
                <rect id="Rectangle" x="0.5" y="0" width="1" height="7"></rect>
                <rect id="Rectangle-Copy" x="56.5" y="3.061617e-17" width="1" height="7"></rect>
            </g>
            <g id="Group-3" transform="translate(7.000000, 16.500000)" fill="#FFFFFF" fill-opacity="0.1">
                <rect id="Rectangle" x="0.5" y="0" width="1" height="7"></rect>
                <rect id="Rectangle-Copy" x="56.5" y="3.061617e-17" width="1" height="7"></rect>
            </g>
            <g id="Group-3-Copy-2" transform="translate(7.000000, 32.500000)" fill="#FFFFFF" fill-opacity="0.1">
                <rect id="Rectangle" x="0.5" y="0" width="1" height="7"></rect>
                <rect id="Rectangle-Copy" x="56.5" y="3.061617e-17" width="1" height="7"></rect>
            </g>
            <g id="Group-3-Copy" transform="translate(8.000000, 0.000000)" fill="#181818">
                <rect id="Rectangle" x="0" y="0" width="1" height="7"></rect>
                <rect id="Rectangle-Copy" x="56" y="0" width="1" height="7"></rect>
            </g>
            <rect id="Rectangle" stroke="#0F0F0F" fill="#1F1F1F" x="1.5" y="2.5" width="72" height="2" rx="1"></rect>
        </g>
        <g id="Group-7-Copy" transform="translate(24.000000, 37.000000) rotate(-90.000000) translate(-24.000000, -37.000000) translate(-13.000000, 33.500000)">
            <rect id="Rectangle" fill-opacity="0.1" fill="#FFFFFF" x="0.5" y="2" width="73" height="3" rx="1.5"></rect>
            <rect id="Rectangle" fill="#001428" x="8" y="0" width="1" height="7"></rect>
            <rect id="Rectangle-Copy" fill="#001428" x="64" y="0" width="1" height="7"></rect>
            <rect id="Rectangle" stroke="#001427" fill="#737373" x="1.5" y="2.5" width="72" height="2" rx="1"></rect>
        </g>
        <g id="Group-7-Copy-2" transform="translate(40.000000, 37.000000) rotate(-90.000000) translate(-40.000000, -37.000000) translate(3.000000, 33.500000)">
            <rect id="Rectangle" fill-opacity="0.1" fill="#FFFFFF" x="0.5" y="2" width="73" height="3" rx="1.5"></rect>
            <rect id="Rectangle" fill="#001428" x="8" y="0" width="1" height="7"></rect>
            <rect id="Rectangle-Copy" fill="#001428" x="64" y="0" width="1" height="7"></rect>
            <rect id="Rectangle" stroke="#001427" fill="#2471DB" x="1.5" y="2.5" width="72" height="2" rx="1"></rect>
        </g>
        <g id="Group-7" transform="translate(24.000000, 178.500000) rotate(-90.000000) translate(-24.000000, -178.500000) translate(-4.500000, 158.500000)">
            <rect id="Rectangle" fill-opacity="0.1" fill="#FFFFFF" x="0.5" y="2" width="56" height="3" rx="1.5"></rect>
            <g id="Group-5" transform="translate(7.500000, -0.000000)" fill="#FFFFFF" fill-opacity="0.1">
                <rect id="Rectangle" x="0" y="0" width="1" height="7"></rect>
                <rect id="Rectangle-Copy" x="39" y="0" width="1" height="7"></rect>
            </g>
            <g id="Group-5" transform="translate(7.500000, 16.500000)" fill="#FFFFFF" fill-opacity="0.1">
                <rect id="Rectangle" x="0" y="0" width="1" height="7"></rect>
                <rect id="Rectangle-Copy" x="39" y="0" width="1" height="7"></rect>
            </g>
            <g id="Group-5-Copy" transform="translate(7.500000, 32.500000)" fill="#FFFFFF" fill-opacity="0.1">
                <rect id="Rectangle" x="0" y="0" width="1" height="7"></rect>
                <rect id="Rectangle-Copy" x="39" y="0" width="1" height="7"></rect>
            </g>
            <g id="Group-5" transform="translate(8.000000, 0.000000)" fill="#181818">
                <rect id="Rectangle" x="0" y="0" width="1" height="7"></rect>
                <rect id="Rectangle-Copy" x="39" y="0" width="1" height="7"></rect>
            </g>
            <rect id="Rectangle" stroke="#0F0F0F" fill="#1F1F1F" x="1.5" y="2.5" width="55" height="2" rx="1"></rect>
        </g>
        <g id="Group-7-Copy-3" transform="translate(24.000000, 178.500000) rotate(-90.000000) translate(-24.000000, -178.500000) translate(-4.500000, 175.000000)">
            <rect id="Rectangle" fill-opacity="0.1" fill="#FFFFFF" x="0.5" y="2" width="56" height="3" rx="1.5"></rect>
            <rect id="Rectangle" fill="#001428" x="8" y="0" width="1" height="7"></rect>
            <rect id="Rectangle-Copy" fill="#001428" x="47" y="0" width="1" height="7"></rect>
            <rect id="Rectangle" stroke="#001427" fill="#737373" x="1.5" y="2.5" width="55" height="2" rx="1"></rect>
        </g>
        <g id="Group-7-Copy-4" transform="translate(40.000000, 178.500000) rotate(-90.000000) translate(-40.000000, -178.500000) translate(11.500000, 175.000000)">
            <rect id="Rectangle" fill-opacity="0.1" fill="#FFFFFF" x="0.5" y="2" width="56" height="3" rx="1.5"></rect>
            <rect id="Rectangle" fill="#001428" x="8" y="0" width="1" height="7"></rect>
            <rect id="Rectangle-Copy" fill="#001428" x="47" y="0" width="1" height="7"></rect>
            <rect id="Rectangle" stroke="#001427" fill="#2471DB" x="1.5" y="2.5" width="55" height="2" rx="1"></rect>
        </g>
        <g id="Group-7" transform="translate(24.000000, 253.500000) rotate(-90.000000) translate(-24.000000, -253.500000) translate(-4.500000, 233.500000)">
            <rect id="Rectangle" fill-opacity="0.1" fill="#FFFFFF" x="0.5" y="2" width="56" height="3" rx="1.5"></rect>
            <g id="Group-6" transform="translate(7.500000, 0.000000)" fill="#FFFFFF" fill-opacity="0.1">
                <rect id="Rectangle" x="0" y="0" width="1" height="7"></rect>
                <rect id="Rectangle-Copy" x="39" y="0" width="1" height="7"></rect>
            </g>
            <g id="Group-6-Copy" transform="translate(7.500000, 16.500000)" fill="#FFFFFF" fill-opacity="0.1">
                <rect id="Rectangle" x="0" y="0" width="1" height="7"></rect>
                <rect id="Rectangle-Copy" x="39" y="0" width="1" height="7"></rect>
            </g>
            <g id="Group-6-Copy-2" transform="translate(7.500000, 32.500000)" fill="#FFFFFF" fill-opacity="0.1">
                <rect id="Rectangle" x="0" y="0" width="1" height="7"></rect>
                <rect id="Rectangle-Copy" x="39" y="0" width="1" height="7"></rect>
            </g>
            <g id="Group-6" transform="translate(8.000000, -0.000000)" fill="#181818">
                <rect id="Rectangle" x="0" y="0" width="1" height="7"></rect>
                <rect id="Rectangle-Copy" x="39" y="0" width="1" height="7"></rect>
            </g>
            <rect id="Rectangle" stroke="#0F0F0F" fill="#1F1F1F" x="1.5" y="2.5" width="55" height="2" rx="1"></rect>
        </g>
        <g id="Group-7-Copy-5" transform="translate(24.000000, 253.500000) rotate(-90.000000) translate(-24.000000, -253.500000) translate(-4.500000, 250.000000)">
            <rect id="Rectangle" fill-opacity="0.1" fill="#FFFFFF" x="0.5" y="2" width="56" height="3" rx="1.5"></rect>
            <rect id="Rectangle" fill="#001428" x="8" y="0" width="1" height="7"></rect>
            <rect id="Rectangle-Copy" fill="#001428" x="47" y="0" width="1" height="7"></rect>
            <rect id="Rectangle" stroke="#001427" fill="#737373" x="1.5" y="2.5" width="55" height="2" rx="1"></rect>
        </g>
        <g id="Group-7-Copy-6" transform="translate(40.000000, 253.500000) rotate(-90.000000) translate(-40.000000, -253.500000) translate(11.500000, 250.000000)">
            <rect id="Rectangle" fill-opacity="0.1" fill="#FFFFFF" x="0.5" y="2" width="56" height="3" rx="1.5"></rect>
            <rect id="Rectangle" fill="#001428" x="8" y="0" width="1" height="7"></rect>
            <rect id="Rectangle-Copy" fill="#001428" x="47" y="0" width="1" height="7"></rect>
            <rect id="Rectangle" stroke="#001427" fill="#2471DB" x="1.5" y="2.5" width="55" height="2" rx="1"></rect>
        </g>
    </g>
</svg>