<svg width="48" height="56" viewBox="0 0 48 56" fill="none" xmlns="http://www.w3.org/2000/svg">
<path d="M8.5 20C11.5376 20 14 17.3137 14 14C14 10.6863 11.5376 8 8.5 8C5.46243 8 3 10.6863 3 14C3 17.3137 5.46243 20 8.5 20Z" fill="url(#paint0_linear)"/>
<path d="M8.5 17C11.5376 17 14 14.5376 14 11.5C14 8.46243 11.5376 6 8.5 6C5.46243 6 3 8.46243 3 11.5C3 14.5376 5.46243 17 8.5 17Z" fill="url(#paint1_linear)"/>
<path opacity="0.5" d="M9.5 11.25L7.5 11.25C7.22386 11.25 7 11.4739 7 11.75C7 12.0261 7.22386 12.25 7.5 12.25L9.5 12.25C9.77614 12.25 10 12.0261 10 11.75C10 11.4739 9.77614 11.25 9.5 11.25Z" fill="#EEEEEE"/>
<path d="M9.5 11L7.5 11C7.22386 11 7 11.2239 7 11.5C7 11.7761 7.22386 12 7.5 12L9.5 12C9.77614 12 10 11.7761 10 11.5C10 11.2239 9.77614 11 9.5 11Z" fill="#1F1F1F"/>
<path d="M32.5 20C35.5376 20 38 17.3137 38 14C38 10.6863 35.5376 8 32.5 8C29.4624 8 27 10.6863 27 14C27 17.3137 29.4624 20 32.5 20Z" fill="url(#paint2_linear)"/>
<path d="M32.5 17C35.5376 17 38 14.5376 38 11.5C38 8.46243 35.5376 6 32.5 6C29.4624 6 27 8.46243 27 11.5C27 14.5376 29.4624 17 32.5 17Z" fill="url(#paint3_linear)"/>
<path opacity="0.5" d="M33.5 11.25L31.5 11.25C31.2239 11.25 31 11.4739 31 11.75C31 12.0261 31.2239 12.25 31.5 12.25L33.5 12.25C33.7761 12.25 34 12.0261 34 11.75C34 11.4739 33.7761 11.25 33.5 11.25Z" fill="#EEEEEE"/>
<path d="M33.5 11L31.5 11C31.2239 11 31 11.2239 31 11.5C31 11.7761 31.2239 12 31.5 12L33.5 12C33.7761 12 34 11.7761 34 11.5C34 11.2239 33.7761 11 33.5 11Z" fill="#1F1F1F"/>
<path d="M8.5 48C11.5376 48 14 45.3137 14 42C14 38.6863 11.5376 36 8.5 36C5.46243 36 3 38.6863 3 42C3 45.3137 5.46243 48 8.5 48Z" fill="url(#paint4_linear)"/>
<path d="M8.5 45C11.5376 45 14 42.5376 14 39.5C14 36.4624 11.5376 34 8.5 34C5.46243 34 3 36.4624 3 39.5C3 42.5376 5.46243 45 8.5 45Z" fill="url(#paint5_linear)"/>
<path opacity="0.5" d="M9.5 39.25L7.5 39.25C7.22386 39.25 7 39.4739 7 39.75C7 40.0261 7.22386 40.25 7.5 40.25L9.5 40.25C9.77614 40.25 10 40.0261 10 39.75C10 39.4739 9.77614 39.25 9.5 39.25Z" fill="#EEEEEE"/>
<path d="M9.5 39L7.5 39C7.22386 39 7 39.2239 7 39.5C7 39.7761 7.22386 40 7.5 40L9.5 40C9.77614 40 10 39.7761 10 39.5C10 39.2239 9.77614 39 9.5 39Z" fill="#1F1F1F"/>
<path d="M32.5 48C35.5376 48 38 45.3137 38 42C38 38.6863 35.5376 36 32.5 36C29.4624 36 27 38.6863 27 42C27 45.3137 29.4624 48 32.5 48Z" fill="url(#paint6_linear)"/>
<path d="M32.5 45C35.5376 45 38 42.5376 38 39.5C38 36.4624 35.5376 34 32.5 34C29.4624 34 27 36.4624 27 39.5C27 42.5376 29.4624 45 32.5 45Z" fill="url(#paint7_linear)"/>
<path opacity="0.5" d="M33.5 39.25L31.5 39.25C31.2239 39.25 31 39.4739 31 39.75C31 40.0261 31.2239 40.25 31.5 40.25L33.5 40.25C33.7761 40.25 34 40.0261 34 39.75C34 39.4739 33.7761 39.25 33.5 39.25Z" fill="#EEEEEE"/>
<path d="M33.5 39L31.5 39C31.2239 39 31 39.2239 31 39.5C31 39.7761 31.2239 40 31.5 40L33.5 40C33.7761 40 34 39.7761 34 39.5C34 39.2239 33.7761 39 33.5 39Z" fill="#1F1F1F"/>
<defs>
<linearGradient id="paint0_linear" x1="8.5" y1="14" x2="8.5" y2="20" gradientUnits="userSpaceOnUse">
<stop offset="0.520833"/>
<stop offset="1" stop-opacity="0"/>
</linearGradient>
<linearGradient id="paint1_linear" x1="8.5" y1="6" x2="8.5" y2="17" gradientUnits="userSpaceOnUse">
<stop stop-color="#FFBF00"/>
<stop offset="1" stop-color="#FF9000"/>
</linearGradient>
<linearGradient id="paint2_linear" x1="32.5" y1="14" x2="32.5" y2="20" gradientUnits="userSpaceOnUse">
<stop offset="0.520833"/>
<stop offset="1" stop-opacity="0"/>
</linearGradient>
<linearGradient id="paint3_linear" x1="32.5" y1="6" x2="32.5" y2="17" gradientUnits="userSpaceOnUse">
<stop stop-color="#8BCC56"/>
<stop offset="1" stop-color="#71A646"/>
</linearGradient>
<linearGradient id="paint4_linear" x1="8.5" y1="42" x2="8.5" y2="48" gradientUnits="userSpaceOnUse">
<stop offset="0.520833"/>
<stop offset="1" stop-opacity="0"/>
</linearGradient>
<linearGradient id="paint5_linear" x1="8.5" y1="34" x2="8.5" y2="45" gradientUnits="userSpaceOnUse">
<stop stop-color="#FFBF00"/>
<stop offset="1" stop-color="#FF9000"/>
</linearGradient>
<linearGradient id="paint6_linear" x1="32.5" y1="42" x2="32.5" y2="48" gradientUnits="userSpaceOnUse">
<stop offset="0.520833"/>
<stop offset="1" stop-opacity="0"/>
</linearGradient>
<linearGradient id="paint7_linear" x1="32.5" y1="34" x2="32.5" y2="45" gradientUnits="userSpaceOnUse">
<stop stop-color="#8BCC56"/>
<stop offset="1" stop-color="#71A646"/>
</linearGradient>
</defs>
</svg>
