<?xml version="1.0" encoding="UTF-8"?>
<svg width="43px" height="14px" viewBox="0 0 43 14" version="1.1" xmlns="http://www.w3.org/2000/svg" xmlns:xlink="http://www.w3.org/1999/xlink">
    <!-- Generator: Sketch 63.1 (92452) - https://sketch.com -->
    <title>bmp00125</title>
    <desc>Created with Sketch.</desc>
    <g id="bmp00125" stroke="none" stroke-width="1" fill="none" fill-rule="evenodd">
        <g id="Group" transform="translate(0.000000, 7.000000)" fill="#FFA01C">
            <rect id="Rectangle" x="0" y="0" width="43" height="7" rx="1"></rect>
        </g>
        <g id="Group-4" transform="translate(1.000000, 1.000000)"></g>
        <g id="Group-4" transform="translate(1.000000, 8.000000)"></g>
        <g id="Group-5-Copy" transform="translate(3.000000, -1.000000)" fill-rule="nonzero">
            <path d="M1.603,7 L1.603,4.83 L1.89,4.83 C1.99966667,4.83 2.08658333,4.84341667 2.15075,4.87025 C2.21491667,4.89708333 2.268,4.94316667 2.31,5.0085 L2.31,5.0085 L3.465,6.783 C3.48833333,6.818 3.51283333,6.84891667 3.5385,6.87575 C3.56416667,6.90258333 3.5945,6.92533333 3.6295,6.944 C3.6645,6.96266667 3.70591667,6.97666667 3.75375,6.986 C3.80158333,6.99533333 3.85933333,7 3.927,7 L3.927,7 L4.984,7 L3.444,4.634 C3.38333333,4.53833333 3.31625,4.46191667 3.24275,4.40475 C3.16925,4.34758333 3.08816667,4.30266667 2.9995,4.27 C3.06016667,4.23733333 3.11966667,4.1965 3.178,4.1475 C3.23633333,4.0985 3.29233333,4.03666667 3.346,3.962 L3.346,3.962 L4.858,1.9005 L3.829,1.9005 C3.71233333,1.9005 3.61375,1.91683333 3.53325,1.9495 C3.45275,1.98216667 3.381,2.044 3.318,2.135 L3.318,2.135 L2.17,3.801 C2.093,3.91066667 1.967,3.9655 1.792,3.9655 L1.792,3.9655 L1.603,3.9655 L1.603,1.9005 L0.42,1.9005 L0.42,7 L1.603,7 Z M8.601,7 L8.601,6.09 L6.508,6.09 L6.508,4.8755 L8.111,4.8755 L8.111,4.0005 L6.508,4.0005 L6.508,2.8105 L8.601,2.8105 L8.601,1.9005 L5.318,1.9005 L5.318,7 L8.601,7 Z M11.714,7 L11.714,5.061 L13.562,1.9005 L12.512,1.9005 C12.463,1.9005 12.4180833,1.90808333 12.37725,1.92325 C12.3364167,1.93841667 12.30025,1.95825 12.26875,1.98275 C12.23725,2.00725 12.20925,2.03466667 12.18475,2.065 C12.16025,2.09533333 12.141,2.12566667 12.127,2.156 L12.127,2.156 L11.413,3.64 C11.357,3.75666667 11.3045,3.86516667 11.2555,3.9655 C11.2065,4.06583333 11.1645,4.16616667 11.1295,4.2665 C11.0921667,4.1685 11.049,4.06933333 11,3.969 C10.951,3.86866667 10.8973333,3.759 10.839,3.64 L10.839,3.64 L10.118,2.156 C10.0806667,2.08133333 10.0316667,2.02008333 9.971,1.97225 C9.91033333,1.92441667 9.82866667,1.9005 9.726,1.9005 L9.726,1.9005 L8.683,1.9005 L10.531,5.061 L10.531,7 L11.714,7 Z M16.08,7 L16.08,2.8385 L17.515,2.8385 L17.515,1.9005 L13.462,1.9005 L13.462,2.8385 L14.897,2.8385 L14.897,7 L16.08,7 Z M19.088,7 L19.088,5.1135 L19.389,5.1135 C19.48,5.1135 19.5505833,5.1275 19.60075,5.1555 C19.6509167,5.1835 19.6946667,5.23016667 19.732,5.2955 L19.732,5.2955 L20.579,6.776 C20.6653333,6.92533333 20.8076667,7 21.006,7 L21.006,7 L22.077,7 L20.992,5.2255 C20.9406667,5.1415 20.8805833,5.07033333 20.81175,5.012 C20.7429167,4.95366667 20.6688333,4.90466667 20.5895,4.865 C20.7551667,4.802 20.9015833,4.7215 21.02875,4.6235 C21.1559167,4.5255 21.26325,4.41408333 21.35075,4.28925 C21.43825,4.16441667 21.5041667,4.0285 21.5485,3.8815 C21.5928333,3.7345 21.615,3.57816667 21.615,3.4125 C21.615,3.1955 21.5776667,2.99483333 21.503,2.8105 C21.4283333,2.62616667 21.30875,2.46633333 21.14425,2.331 C20.97975,2.19566667 20.7674167,2.09008333 20.50725,2.01425 C20.2470833,1.93841667 19.9326667,1.9005 19.564,1.9005 L19.564,1.9005 L17.905,1.9005 L17.905,7 L19.088,7 Z M19.564,4.298 L19.088,4.298 L19.088,2.786 L19.564,2.786 C19.8696667,2.786 20.0954167,2.849 20.24125,2.975 C20.3870833,3.101 20.46,3.276 20.46,3.5 C20.46,3.612 20.4436667,3.71641667 20.411,3.81325 C20.3783333,3.91008333 20.3258333,3.99466667 20.2535,4.067 C20.1811667,4.13933333 20.0884167,4.19591667 19.97525,4.23675 C19.8620833,4.27758333 19.725,4.298 19.564,4.298 L19.564,4.298 Z M22.971,7 C23.069,7 23.1518333,6.97375 23.2195,6.92125 C23.2871667,6.86875 23.3326667,6.80983333 23.356,6.7445 L23.356,6.7445 L23.657,5.8555 L25.596,5.8555 L25.897,6.7445 C25.9226667,6.81916667 25.96875,6.88041667 26.03525,6.92825 C26.10175,6.97608333 26.1863333,7 26.289,7 L26.289,7 L27.206,7 L25.232,1.9005 L24.021,1.9005 L22.047,7 L22.971,7 Z M25.323,5.0505 L23.93,5.0505 L24.399,3.661 C24.434,3.57233333 24.4713333,3.46733333 24.511,3.346 C24.5506667,3.22466667 24.5891667,3.09283333 24.6265,2.9505 C24.6661667,3.0905 24.7064167,3.22058333 24.74725,3.34075 C24.7880833,3.46091667 24.8236667,3.56533333 24.854,3.654 L24.854,3.654 L25.323,5.0505 Z M29.5,7.056 C29.9223333,7.056 30.2880833,6.98775 30.59725,6.85125 C30.9064167,6.71475 31.1636667,6.51233333 31.369,6.244 L31.369,6.244 L30.9,5.7505 C30.8743333,5.72483333 30.8475,5.70675 30.8195,5.69625 C30.7915,5.68575 30.7635,5.6805 30.7355,5.6805 C30.7005,5.6805 30.6666667,5.68808333 30.634,5.70325 C30.6013333,5.71841667 30.571,5.73766667 30.543,5.761 C30.473,5.82166667 30.4035833,5.87241667 30.33475,5.91325 C30.2659167,5.95408333 30.1935833,5.98733333 30.11775,6.013 C30.0419167,6.03866667 29.9596667,6.05675 29.871,6.06725 C29.7823333,6.07775 29.6843333,6.083 29.577,6.083 C29.3903333,6.083 29.2153333,6.04683333 29.052,5.9745 C28.8886667,5.90216667 28.74575,5.79658333 28.62325,5.65775 C28.50075,5.51891667 28.4039167,5.348 28.33275,5.145 C28.2615833,4.942 28.226,4.70983333 28.226,4.4485 C28.226,4.19883333 28.2615833,3.97366667 28.33275,3.773 C28.4039167,3.57233333 28.5030833,3.40141667 28.63025,3.26025 C28.7574167,3.11908333 28.9096667,3.01058333 29.087,2.93475 C29.2643333,2.85891667 29.4603333,2.821 29.675,2.821 C29.7986667,2.821 29.9065833,2.83033333 29.99875,2.849 C30.0909167,2.86766667 30.1714167,2.89041667 30.24025,2.91725 C30.3090833,2.94408333 30.3685833,2.97325 30.41875,3.00475 C30.4689167,3.03625 30.515,3.06541667 30.557,3.09225 C30.599,3.11908333 30.6386667,3.14183333 30.676,3.1605 C30.7133333,3.17916667 30.753,3.1885 30.795,3.1885 C30.858,3.1885 30.907,3.17508333 30.942,3.14825 C30.977,3.12141667 31.0073333,3.09166667 31.033,3.059 L31.033,3.059 L31.432,2.5235 C31.3363333,2.42316667 31.2266667,2.33158333 31.103,2.24875 C30.9793333,2.16591667 30.844,2.09475 30.697,2.03525 C30.55,1.97575 30.3919167,1.92908333 30.22275,1.89525 C30.0535833,1.86141667 29.8733333,1.8445 29.682,1.8445 C29.2876667,1.8445 28.9271667,1.90866667 28.6005,2.037 C28.2738333,2.16533333 27.99325,2.345 27.75875,2.576 C27.52425,2.807 27.3416667,3.08175 27.211,3.40025 C27.0803333,3.71875 27.015,4.06816667 27.015,4.4485 C27.015,4.82183333 27.0721667,5.16775 27.1865,5.48625 C27.3008333,5.80475 27.46475,6.08008333 27.67825,6.31225 C27.89175,6.54441667 28.1519167,6.72641667 28.45875,6.85825 C28.7655833,6.99008333 29.1126667,7.056 29.5,7.056 Z M32.991,7 L32.991,4.83 L33.278,4.83 C33.3876667,4.83 33.4745833,4.84341667 33.53875,4.87025 C33.6029167,4.89708333 33.656,4.94316667 33.698,5.0085 L33.698,5.0085 L34.853,6.783 C34.8763333,6.818 34.9008333,6.84891667 34.9265,6.87575 C34.9521667,6.90258333 34.9825,6.92533333 35.0175,6.944 C35.0525,6.96266667 35.0939167,6.97666667 35.14175,6.986 C35.1895833,6.99533333 35.2473333,7 35.315,7 L35.315,7 L36.372,7 L34.832,4.634 C34.7713333,4.53833333 34.70425,4.46191667 34.63075,4.40475 C34.55725,4.34758333 34.4761667,4.30266667 34.3875,4.27 C34.4481667,4.23733333 34.5076667,4.1965 34.566,4.1475 C34.6243333,4.0985 34.6803333,4.03666667 34.734,3.962 L34.734,3.962 L36.246,1.9005 L35.217,1.9005 C35.1003333,1.9005 35.00175,1.91683333 34.92125,1.9495 C34.84075,1.98216667 34.769,2.044 34.706,2.135 L34.706,2.135 L33.558,3.801 C33.481,3.91066667 33.355,3.9655 33.18,3.9655 L33.18,3.9655 L32.991,3.9655 L32.991,1.9005 L31.808,1.9005 L31.808,7 L32.991,7 Z" id="KEYTRACK" fill="#FFA01C"></path>
            <path d="M1.603,14 L1.603,11.83 L1.89,11.83 C1.99966667,11.83 2.08658333,11.8434167 2.15075,11.87025 C2.21491667,11.8970833 2.268,11.9431667 2.31,12.0085 L2.31,12.0085 L3.465,13.783 C3.48833333,13.818 3.51283333,13.8489167 3.5385,13.87575 C3.56416667,13.9025833 3.5945,13.9253333 3.6295,13.944 C3.6645,13.9626667 3.70591667,13.9766667 3.75375,13.986 C3.80158333,13.9953333 3.85933333,14 3.927,14 L3.927,14 L4.984,14 L3.444,11.634 C3.38333333,11.5383333 3.31625,11.4619167 3.24275,11.40475 C3.16925,11.3475833 3.08816667,11.3026667 2.9995,11.27 C3.06016667,11.2373333 3.11966667,11.1965 3.178,11.1475 C3.23633333,11.0985 3.29233333,11.0366667 3.346,10.962 L3.346,10.962 L4.858,8.9005 L3.829,8.9005 C3.71233333,8.9005 3.61375,8.91683333 3.53325,8.9495 C3.45275,8.98216667 3.381,9.044 3.318,9.135 L3.318,9.135 L2.17,10.801 C2.093,10.9106667 1.967,10.9655 1.792,10.9655 L1.792,10.9655 L1.603,10.9655 L1.603,8.9005 L0.42,8.9005 L0.42,14 L1.603,14 Z M8.601,14 L8.601,13.09 L6.508,13.09 L6.508,11.8755 L8.111,11.8755 L8.111,11.0005 L6.508,11.0005 L6.508,9.8105 L8.601,9.8105 L8.601,8.9005 L5.318,8.9005 L5.318,14 L8.601,14 Z M11.714,14 L11.714,12.061 L13.562,8.9005 L12.512,8.9005 C12.463,8.9005 12.4180833,8.90808333 12.37725,8.92325 C12.3364167,8.93841667 12.30025,8.95825 12.26875,8.98275 C12.23725,9.00725 12.20925,9.03466667 12.18475,9.065 C12.16025,9.09533333 12.141,9.12566667 12.127,9.156 L12.127,9.156 L11.413,10.64 C11.357,10.7566667 11.3045,10.8651667 11.2555,10.9655 C11.2065,11.0658333 11.1645,11.1661667 11.1295,11.2665 C11.0921667,11.1685 11.049,11.0693333 11,10.969 C10.951,10.8686667 10.8973333,10.759 10.839,10.64 L10.839,10.64 L10.118,9.156 C10.0806667,9.08133333 10.0316667,9.02008333 9.971,8.97225 C9.91033333,8.92441667 9.82866667,8.9005 9.726,8.9005 L9.726,8.9005 L8.683,8.9005 L10.531,12.061 L10.531,14 L11.714,14 Z M16.08,14 L16.08,9.8385 L17.515,9.8385 L17.515,8.9005 L13.462,8.9005 L13.462,9.8385 L14.897,9.8385 L14.897,14 L16.08,14 Z M19.088,14 L19.088,12.1135 L19.389,12.1135 C19.48,12.1135 19.5505833,12.1275 19.60075,12.1555 C19.6509167,12.1835 19.6946667,12.2301667 19.732,12.2955 L19.732,12.2955 L20.579,13.776 C20.6653333,13.9253333 20.8076667,14 21.006,14 L21.006,14 L22.077,14 L20.992,12.2255 C20.9406667,12.1415 20.8805833,12.0703333 20.81175,12.012 C20.7429167,11.9536667 20.6688333,11.9046667 20.5895,11.865 C20.7551667,11.802 20.9015833,11.7215 21.02875,11.6235 C21.1559167,11.5255 21.26325,11.4140833 21.35075,11.28925 C21.43825,11.1644167 21.5041667,11.0285 21.5485,10.8815 C21.5928333,10.7345 21.615,10.5781667 21.615,10.4125 C21.615,10.1955 21.5776667,9.99483333 21.503,9.8105 C21.4283333,9.62616667 21.30875,9.46633333 21.14425,9.331 C20.97975,9.19566667 20.7674167,9.09008333 20.50725,9.01425 C20.2470833,8.93841667 19.9326667,8.9005 19.564,8.9005 L19.564,8.9005 L17.905,8.9005 L17.905,14 L19.088,14 Z M19.564,11.298 L19.088,11.298 L19.088,9.786 L19.564,9.786 C19.8696667,9.786 20.0954167,9.849 20.24125,9.975 C20.3870833,10.101 20.46,10.276 20.46,10.5 C20.46,10.612 20.4436667,10.7164167 20.411,10.81325 C20.3783333,10.9100833 20.3258333,10.9946667 20.2535,11.067 C20.1811667,11.1393333 20.0884167,11.1959167 19.97525,11.23675 C19.8620833,11.2775833 19.725,11.298 19.564,11.298 L19.564,11.298 Z M22.971,14 C23.069,14 23.1518333,13.97375 23.2195,13.92125 C23.2871667,13.86875 23.3326667,13.8098333 23.356,13.7445 L23.356,13.7445 L23.657,12.8555 L25.596,12.8555 L25.897,13.7445 C25.9226667,13.8191667 25.96875,13.8804167 26.03525,13.92825 C26.10175,13.9760833 26.1863333,14 26.289,14 L26.289,14 L27.206,14 L25.232,8.9005 L24.021,8.9005 L22.047,14 L22.971,14 Z M25.323,12.0505 L23.93,12.0505 L24.399,10.661 C24.434,10.5723333 24.4713333,10.4673333 24.511,10.346 C24.5506667,10.2246667 24.5891667,10.0928333 24.6265,9.9505 C24.6661667,10.0905 24.7064167,10.2205833 24.74725,10.34075 C24.7880833,10.4609167 24.8236667,10.5653333 24.854,10.654 L24.854,10.654 L25.323,12.0505 Z M29.5,14.056 C29.9223333,14.056 30.2880833,13.98775 30.59725,13.85125 C30.9064167,13.71475 31.1636667,13.5123333 31.369,13.244 L31.369,13.244 L30.9,12.7505 C30.8743333,12.7248333 30.8475,12.70675 30.8195,12.69625 C30.7915,12.68575 30.7635,12.6805 30.7355,12.6805 C30.7005,12.6805 30.6666667,12.6880833 30.634,12.70325 C30.6013333,12.7184167 30.571,12.7376667 30.543,12.761 C30.473,12.8216667 30.4035833,12.8724167 30.33475,12.91325 C30.2659167,12.9540833 30.1935833,12.9873333 30.11775,13.013 C30.0419167,13.0386667 29.9596667,13.05675 29.871,13.06725 C29.7823333,13.07775 29.6843333,13.083 29.577,13.083 C29.3903333,13.083 29.2153333,13.0468333 29.052,12.9745 C28.8886667,12.9021667 28.74575,12.7965833 28.62325,12.65775 C28.50075,12.5189167 28.4039167,12.348 28.33275,12.145 C28.2615833,11.942 28.226,11.7098333 28.226,11.4485 C28.226,11.1988333 28.2615833,10.9736667 28.33275,10.773 C28.4039167,10.5723333 28.5030833,10.4014167 28.63025,10.26025 C28.7574167,10.1190833 28.9096667,10.0105833 29.087,9.93475 C29.2643333,9.85891667 29.4603333,9.821 29.675,9.821 C29.7986667,9.821 29.9065833,9.83033333 29.99875,9.849 C30.0909167,9.86766667 30.1714167,9.89041667 30.24025,9.91725 C30.3090833,9.94408333 30.3685833,9.97325 30.41875,10.00475 C30.4689167,10.03625 30.515,10.0654167 30.557,10.09225 C30.599,10.1190833 30.6386667,10.1418333 30.676,10.1605 C30.7133333,10.1791667 30.753,10.1885 30.795,10.1885 C30.858,10.1885 30.907,10.1750833 30.942,10.14825 C30.977,10.1214167 31.0073333,10.0916667 31.033,10.059 L31.033,10.059 L31.432,9.5235 C31.3363333,9.42316667 31.2266667,9.33158333 31.103,9.24875 C30.9793333,9.16591667 30.844,9.09475 30.697,9.03525 C30.55,8.97575 30.3919167,8.92908333 30.22275,8.89525 C30.0535833,8.86141667 29.8733333,8.8445 29.682,8.8445 C29.2876667,8.8445 28.9271667,8.90866667 28.6005,9.037 C28.2738333,9.16533333 27.99325,9.345 27.75875,9.576 C27.52425,9.807 27.3416667,10.08175 27.211,10.40025 C27.0803333,10.71875 27.015,11.0681667 27.015,11.4485 C27.015,11.8218333 27.0721667,12.16775 27.1865,12.48625 C27.3008333,12.80475 27.46475,13.0800833 27.67825,13.31225 C27.89175,13.5444167 28.1519167,13.7264167 28.45875,13.85825 C28.7655833,13.9900833 29.1126667,14.056 29.5,14.056 Z M32.991,14 L32.991,11.83 L33.278,11.83 C33.3876667,11.83 33.4745833,11.8434167 33.53875,11.87025 C33.6029167,11.8970833 33.656,11.9431667 33.698,12.0085 L33.698,12.0085 L34.853,13.783 C34.8763333,13.818 34.9008333,13.8489167 34.9265,13.87575 C34.9521667,13.9025833 34.9825,13.9253333 35.0175,13.944 C35.0525,13.9626667 35.0939167,13.9766667 35.14175,13.986 C35.1895833,13.9953333 35.2473333,14 35.315,14 L35.315,14 L36.372,14 L34.832,11.634 C34.7713333,11.5383333 34.70425,11.4619167 34.63075,11.40475 C34.55725,11.3475833 34.4761667,11.3026667 34.3875,11.27 C34.4481667,11.2373333 34.5076667,11.1965 34.566,11.1475 C34.6243333,11.0985 34.6803333,11.0366667 34.734,10.962 L34.734,10.962 L36.246,8.9005 L35.217,8.9005 C35.1003333,8.9005 35.00175,8.91683333 34.92125,8.9495 C34.84075,8.98216667 34.769,9.044 34.706,9.135 L34.706,9.135 L33.558,10.801 C33.481,10.9106667 33.355,10.9655 33.18,10.9655 L33.18,10.9655 L32.991,10.9655 L32.991,8.9005 L31.808,8.9005 L31.808,14 L32.991,14 Z" id="KEYTRACK" fill="#252525"></path>
        </g>
    </g>
</svg>