<?xml version="1.0" encoding="UTF-8"?>
<svg width="36px" height="132px" viewBox="0 0 36 132" version="1.1" xmlns="http://www.w3.org/2000/svg" xmlns:xlink="http://www.w3.org/1999/xlink">
    <!-- Generator: Sketch 63.1 (92452) - https://sketch.com -->
    <title>bmp00114</title>
    <desc>Created with Sketch.</desc>
    <defs>
        <rect id="path-1" x="0" y="0" width="36" height="33" rx="2"></rect>
        <filter x="-0.7%" y="-0.8%" width="101.4%" height="103.0%" filterUnits="objectBoundingBox" id="filter-2">
            <feOffset dx="0" dy="0.5" in="SourceAlpha" result="shadowOffsetOuter1"></feOffset>
            <feComposite in="shadowOffsetOuter1" in2="SourceAlpha" operator="out" result="shadowOffsetOuter1"></feComposite>
            <feColorMatrix values="0 0 0 0 1   0 0 0 0 1   0 0 0 0 1  0 0 0 0.05 0" type="matrix" in="shadowOffsetOuter1"></feColorMatrix>
        </filter>
        <rect id="path-3" x="0" y="0" width="36" height="33" rx="2"></rect>
        <filter x="-0.7%" y="-0.8%" width="101.4%" height="103.0%" filterUnits="objectBoundingBox" id="filter-4">
            <feOffset dx="0" dy="0.5" in="SourceAlpha" result="shadowOffsetOuter1"></feOffset>
            <feComposite in="shadowOffsetOuter1" in2="SourceAlpha" operator="out" result="shadowOffsetOuter1"></feComposite>
            <feColorMatrix values="0 0 0 0 1   0 0 0 0 1   0 0 0 0 1  0 0 0 0.05 0" type="matrix" in="shadowOffsetOuter1"></feColorMatrix>
        </filter>
        <rect id="path-5" x="0" y="0" width="36" height="33" rx="2"></rect>
        <filter x="-0.7%" y="-0.8%" width="101.4%" height="103.0%" filterUnits="objectBoundingBox" id="filter-6">
            <feOffset dx="0" dy="0.5" in="SourceAlpha" result="shadowOffsetOuter1"></feOffset>
            <feComposite in="shadowOffsetOuter1" in2="SourceAlpha" operator="out" result="shadowOffsetOuter1"></feComposite>
            <feColorMatrix values="0 0 0 0 1   0 0 0 0 1   0 0 0 0 1  0 0 0 0.05 0" type="matrix" in="shadowOffsetOuter1"></feColorMatrix>
        </filter>
        <rect id="path-7" x="0" y="0" width="36" height="33" rx="2"></rect>
        <filter x="-0.7%" y="-0.8%" width="101.4%" height="103.0%" filterUnits="objectBoundingBox" id="filter-8">
            <feOffset dx="0" dy="0.5" in="SourceAlpha" result="shadowOffsetOuter1"></feOffset>
            <feComposite in="shadowOffsetOuter1" in2="SourceAlpha" operator="out" result="shadowOffsetOuter1"></feComposite>
            <feColorMatrix values="0 0 0 0 1   0 0 0 0 1   0 0 0 0 1  0 0 0 0.05 0" type="matrix" in="shadowOffsetOuter1"></feColorMatrix>
        </filter>
    </defs>
    <g id="bmp00114" stroke="none" stroke-width="1" fill="none" fill-rule="evenodd">
        <g id="Single">
            <g id="Rectangle">
                <use fill="black" fill-opacity="1" filter="url(#filter-2)" xlink:href="#path-1"></use>
                <rect stroke="#0F0F0F" stroke-width="1" stroke-linejoin="square" fill="#242424" fill-rule="evenodd" x="0.5" y="0.5" width="35" height="32" rx="2"></rect>
            </g>
            <rect id="Rectangle" fill="#0F0F0F" x="2" y="8" width="32" height="1"></rect>
            <rect id="Rectangle" fill="#0F0F0F" x="2" y="16" width="32" height="1"></rect>
            <rect id="Rectangle" fill="#0F0F0F" x="2" y="24" width="32" height="1"></rect>
            <path d="M3,1 L33,1 C34.1045695,1 35,1.8954305 35,3 L35,8 L35,8 L1,8 L1,3 C1,1.8954305 1.8954305,1 3,1 Z" id="Rectangle" fill="#FF9A10"></path>
            <g id="Group-4-Copy" transform="translate(1.000000, 0.000000)" fill-rule="nonzero">
                <path d="M7.35,7.056 C7.63933333,7.056 7.89775,7.01225 8.12525,6.92475 C8.35275,6.83725 8.54408333,6.71708333 8.69925,6.56425 C8.85441667,6.41141667 8.97283333,6.23233333 9.0545,6.027 C9.13616667,5.82166667 9.177,5.60116667 9.177,5.3655 C9.177,5.15316667 9.14433333,4.97175 9.079,4.82125 C9.01366667,4.67075 8.92791667,4.543 8.82175,4.438 C8.71558333,4.333 8.59425,4.24666667 8.45775,4.179 C8.32125,4.11133333 8.18183333,4.05241667 8.0395,4.00225 C7.89716667,3.95208333 7.75775,3.90658333 7.62125,3.86575 C7.48475,3.82491667 7.36341667,3.78 7.25725,3.731 C7.15108333,3.682 7.06533333,3.62366667 7,3.556 C6.93466667,3.48833333 6.902,3.40316667 6.902,3.3005 C6.902,3.1395 6.95625,3.01175 7.06475,2.91725 C7.17325,2.82275 7.33833333,2.7755 7.56,2.7755 C7.68833333,2.7755 7.80266667,2.79241667 7.903,2.82625 C8.00333333,2.86008333 8.09258333,2.898 8.17075,2.94 C8.24891667,2.982 8.31891667,3.01991667 8.38075,3.05375 C8.44258333,3.08758333 8.50033333,3.1045 8.554,3.1045 C8.61466667,3.1045 8.66425,3.0905 8.70275,3.0625 C8.74125,3.0345 8.778,2.9925 8.813,2.9365 L8.813,2.9365 L9.107,2.387 C9.016,2.303 8.91275,2.22775 8.79725,2.16125 C8.68175,2.09475 8.5575,2.03758333 8.4245,1.98975 C8.2915,1.94191667 8.15091667,1.90575 8.00275,1.88125 C7.85458333,1.85675 7.70233333,1.8445 7.546,1.8445 C7.266,1.8445 7.0175,1.88708333 6.8005,1.97225 C6.5835,2.05741667 6.40033333,2.17116667 6.251,2.3135 C6.10166667,2.45583333 5.9885,2.618 5.9115,2.8 C5.8345,2.982 5.796,3.16866667 5.796,3.36 C5.796,3.598 5.82866667,3.79808333 5.894,3.96025 C5.95933333,4.12241667 6.04508333,4.25775 6.15125,4.36625 C6.25741667,4.47475 6.37816667,4.56225 6.5135,4.62875 C6.64883333,4.69525 6.78766667,4.75125 6.93,4.79675 C7.07233333,4.84225 7.21116667,4.88366667 7.3465,4.921 C7.48183333,4.95833333 7.60258333,5.0015 7.70875,5.0505 C7.81491667,5.0995 7.90066667,5.16133333 7.966,5.236 C8.03133333,5.31066667 8.064,5.4075 8.064,5.5265 C8.064,5.73183333 8.0045,5.88175 7.8855,5.97625 C7.7665,6.07075 7.59966667,6.118 7.385,6.118 C7.22633333,6.118 7.08866667,6.09583333 6.972,6.0515 C6.85533333,6.00716667 6.75208333,5.95816667 6.66225,5.9045 C6.57241667,5.85083333 6.49191667,5.80183333 6.42075,5.7575 C6.34958333,5.71316667 6.279,5.691 6.209,5.691 C6.15533333,5.691 6.10516667,5.70383333 6.0585,5.7295 C6.01183333,5.75516667 5.97566667,5.789 5.95,5.831 L5.95,5.831 L5.6,6.384 C5.70033333,6.48433333 5.81816667,6.57533333 5.9535,6.657 C6.08883333,6.73866667 6.2335,6.80925 6.3875,6.86875 C6.5415,6.92825 6.70075,6.97433333 6.86525,7.007 C7.02975,7.03966667 7.19133333,7.056 7.35,7.056 Z M11.06,7 L11.06,1.9005 L9.87,1.9005 L9.87,7 L11.06,7 Z M13.048,7 L13.048,4.2665 C13.048,4.19183333 13.0456667,4.11191667 13.041,4.02675 C13.0363333,3.94158333 13.0305,3.85466667 13.0235,3.766 L13.0235,3.766 L15.428,6.804 C15.4863333,6.87866667 15.547,6.93 15.61,6.958 C15.673,6.986 15.75,7 15.841,7 L15.841,7 L16.457,7 L16.457,1.9005 L15.414,1.9005 L15.414,4.599 C15.414,4.68066667 15.4163333,4.76758333 15.421,4.85975 C15.4256667,4.95191667 15.4326667,5.047 15.442,5.145 L15.442,5.145 L13.02,2.0825 C12.9873333,2.04283333 12.9581667,2.01133333 12.9325,1.988 C12.9068333,1.96466667 12.88,1.94658333 12.852,1.93375 C12.824,1.92091667 12.7925,1.91216667 12.7575,1.9075 C12.7225,1.90283333 12.6793333,1.9005 12.628,1.9005 L12.628,1.9005 L12.005,1.9005 L12.005,7 L13.048,7 Z M19.607,7.056 C19.8146667,7.056 20.0089167,7.0455 20.18975,7.0245 C20.3705833,7.0035 20.5409167,6.97083333 20.70075,6.9265 C20.8605833,6.88216667 21.0110833,6.82558333 21.15225,6.75675 C21.2934167,6.68791667 21.4293333,6.60566667 21.56,6.51 L21.56,6.51 L21.56,4.3575 L19.747,4.3575 L19.747,5.0085 C19.747,5.06916667 19.768,5.11933333 19.81,5.159 C19.852,5.19866667 19.9103333,5.2185 19.985,5.2185 L19.985,5.2185 L20.489,5.2185 L20.489,5.992 C20.377,6.03866667 20.258,6.076 20.132,6.104 C20.006,6.132 19.8613333,6.146 19.698,6.146 C19.4833333,6.146 19.2855833,6.10808333 19.10475,6.03225 C18.9239167,5.95641667 18.7675833,5.84616667 18.63575,5.7015 C18.5039167,5.55683333 18.4006667,5.3795 18.326,5.1695 C18.2513333,4.9595 18.214,4.71916667 18.214,4.4485 C18.214,4.2035 18.2478333,3.98125 18.3155,3.78175 C18.3831667,3.58225 18.4794167,3.41133333 18.60425,3.269 C18.7290833,3.12666667 18.8801667,3.01641667 19.0575,2.93825 C19.2348333,2.86008333 19.4343333,2.821 19.656,2.821 C19.775,2.821 19.8823333,2.82683333 19.978,2.8385 C20.0736667,2.85016667 20.1646667,2.86883333 20.251,2.8945 C20.3373333,2.92016667 20.4219167,2.95341667 20.50475,2.99425 C20.5875833,3.03508333 20.6756667,3.0835 20.769,3.1395 C20.8436667,3.18616667 20.916,3.2095 20.986,3.2095 C21.0396667,3.2095 21.08925,3.1955 21.13475,3.1675 C21.18025,3.1395 21.2193333,3.101 21.252,3.052 L21.252,3.052 L21.595,2.5305 C21.4923333,2.4325 21.3756667,2.3415 21.245,2.2575 C21.1143333,2.1735 20.97025,2.10116667 20.81275,2.0405 C20.65525,1.97983333 20.4831667,1.932 20.2965,1.897 C20.1098333,1.862 19.9103333,1.8445 19.698,1.8445 C19.2873333,1.8445 18.91575,1.90866667 18.58325,2.037 C18.25075,2.16533333 17.96725,2.345 17.73275,2.576 C17.49825,2.807 17.318,3.08175 17.192,3.40025 C17.066,3.71875 17.003,4.06816667 17.003,4.4485 C17.003,4.82183333 17.0689167,5.16775 17.20075,5.48625 C17.3325833,5.80475 17.5145833,6.08008333 17.74675,6.31225 C17.9789167,6.54441667 18.2536667,6.72641667 18.571,6.85825 C18.8883333,6.99008333 19.2336667,7.056 19.607,7.056 Z M25.354,7 L25.354,6.055 L23.464,6.055 L23.464,1.9005 L22.281,1.9005 L22.281,7 L25.354,7 Z M29.197,7 L29.197,6.09 L27.104,6.09 L27.104,4.8755 L28.707,4.8755 L28.707,4.0005 L27.104,4.0005 L27.104,2.8105 L29.197,2.8105 L29.197,1.9005 L25.914,1.9005 L25.914,7 L29.197,7 Z" id="SINGLE" fill="#252525"></path>
                <path d="M1.603,15 L1.603,12.83 L1.89,12.83 C1.99966667,12.83 2.08658333,12.8434167 2.15075,12.87025 C2.21491667,12.8970833 2.268,12.9431667 2.31,13.0085 L2.31,13.0085 L3.465,14.783 C3.48833333,14.818 3.51283333,14.8489167 3.5385,14.87575 C3.56416667,14.9025833 3.5945,14.9253333 3.6295,14.944 C3.6645,14.9626667 3.70591667,14.9766667 3.75375,14.986 C3.80158333,14.9953333 3.85933333,15 3.927,15 L3.927,15 L4.984,15 L3.444,12.634 C3.38333333,12.5383333 3.31625,12.4619167 3.24275,12.40475 C3.16925,12.3475833 3.08816667,12.3026667 2.9995,12.27 C3.06016667,12.2373333 3.11966667,12.1965 3.178,12.1475 C3.23633333,12.0985 3.29233333,12.0366667 3.346,11.962 L3.346,11.962 L4.858,9.9005 L3.829,9.9005 C3.71233333,9.9005 3.61375,9.91683333 3.53325,9.9495 C3.45275,9.98216667 3.381,10.044 3.318,10.135 L3.318,10.135 L2.17,11.801 C2.093,11.9106667 1.967,11.9655 1.792,11.9655 L1.792,11.9655 L1.603,11.9655 L1.603,9.9005 L0.42,9.9005 L0.42,15 L1.603,15 Z M8.699889,15 L8.699889,14.09 L6.606889,14.09 L6.606889,12.8755 L8.209889,12.8755 L8.209889,12.0005 L6.606889,12.0005 L6.606889,10.8105 L8.699889,10.8105 L8.699889,9.9005 L5.416889,9.9005 L5.416889,15 L8.699889,15 Z M11.911778,15 L11.911778,13.061 L13.759778,9.9005 L12.709778,9.9005 C12.660778,9.9005 12.6158613,9.90808333 12.575028,9.92325 C12.5341947,9.93841667 12.498028,9.95825 12.466528,9.98275 C12.435028,10.00725 12.407028,10.0346667 12.382528,10.065 C12.358028,10.0953333 12.338778,10.1256667 12.324778,10.156 L12.324778,10.156 L11.610778,11.64 C11.554778,11.7566667 11.502278,11.8651667 11.453278,11.9655 C11.404278,12.0658333 11.362278,12.1661667 11.327278,12.2665 C11.2899447,12.1685 11.246778,12.0693333 11.197778,11.969 C11.148778,11.8686667 11.0951113,11.759 11.036778,11.64 L11.036778,11.64 L10.315778,10.156 C10.2784447,10.0813333 10.2294447,10.0200833 10.168778,9.97225 C10.1081113,9.92441667 10.0264447,9.9005 9.923778,9.9005 L9.923778,9.9005 L8.880778,9.9005 L10.728778,13.061 L10.728778,15 L11.911778,15 Z M16.837556,15.056 C17.1268893,15.056 17.385306,15.01225 17.612806,14.92475 C17.840306,14.83725 18.0316393,14.7170833 18.186806,14.56425 C18.3419727,14.4114167 18.4603893,14.2323333 18.542056,14.027 C18.6237227,13.8216667 18.664556,13.6011667 18.664556,13.3655 C18.664556,13.1531667 18.6318893,12.97175 18.566556,12.82125 C18.5012227,12.67075 18.4154727,12.543 18.309306,12.438 C18.2031393,12.333 18.081806,12.2466667 17.945306,12.179 C17.808806,12.1113333 17.6693893,12.0524167 17.527056,12.00225 C17.3847227,11.9520833 17.245306,11.9065833 17.108806,11.86575 C16.972306,11.8249167 16.8509727,11.78 16.744806,11.731 C16.6386393,11.682 16.5528893,11.6236667 16.487556,11.556 C16.4222227,11.4883333 16.389556,11.4031667 16.389556,11.3005 C16.389556,11.1395 16.443806,11.01175 16.552306,10.91725 C16.660806,10.82275 16.8258893,10.7755 17.047556,10.7755 C17.1758893,10.7755 17.2902227,10.7924167 17.390556,10.82625 C17.4908893,10.8600833 17.5801393,10.898 17.658306,10.94 C17.7364727,10.982 17.8064727,11.0199167 17.868306,11.05375 C17.9301393,11.0875833 17.9878893,11.1045 18.041556,11.1045 C18.1022227,11.1045 18.151806,11.0905 18.190306,11.0625 C18.228806,11.0345 18.265556,10.9925 18.300556,10.9365 L18.300556,10.9365 L18.594556,10.387 C18.503556,10.303 18.400306,10.22775 18.284806,10.16125 C18.169306,10.09475 18.045056,10.0375833 17.912056,9.98975 C17.779056,9.94191667 17.6384727,9.90575 17.490306,9.88125 C17.3421393,9.85675 17.1898893,9.8445 17.033556,9.8445 C16.753556,9.8445 16.505056,9.88708333 16.288056,9.97225 C16.071056,10.0574167 15.8878893,10.1711667 15.738556,10.3135 C15.5892227,10.4558333 15.476056,10.618 15.399056,10.8 C15.322056,10.982 15.283556,11.1686667 15.283556,11.36 C15.283556,11.598 15.3162227,11.7980833 15.381556,11.96025 C15.4468893,12.1224167 15.5326393,12.25775 15.638806,12.36625 C15.7449727,12.47475 15.8657227,12.56225 16.001056,12.62875 C16.1363893,12.69525 16.2752227,12.75125 16.417556,12.79675 C16.5598893,12.84225 16.6987227,12.8836667 16.834056,12.921 C16.9693893,12.9583333 17.0901393,13.0015 17.196306,13.0505 C17.3024727,13.0995 17.3882227,13.1613333 17.453556,13.236 C17.5188893,13.3106667 17.551556,13.4075 17.551556,13.5265 C17.551556,13.7318333 17.492056,13.88175 17.373056,13.97625 C17.254056,14.07075 17.0872227,14.118 16.872556,14.118 C16.7138893,14.118 16.5762227,14.0958333 16.459556,14.0515 C16.3428893,14.0071667 16.2396393,13.9581667 16.149806,13.9045 C16.0599727,13.8508333 15.9794727,13.8018333 15.908306,13.7575 C15.8371393,13.7131667 15.766556,13.691 15.696556,13.691 C15.6428893,13.691 15.5927227,13.7038333 15.546056,13.7295 C15.4993893,13.7551667 15.4632227,13.789 15.437556,13.831 L15.437556,13.831 L15.087556,14.384 C15.1878893,14.4843333 15.3057227,14.5753333 15.441056,14.657 C15.5763893,14.7386667 15.721056,14.80925 15.875056,14.86875 C16.029056,14.92825 16.188306,14.9743333 16.352806,15.007 C16.517306,15.0396667 16.6788893,15.056 16.837556,15.056 Z M20.434445,15 L20.434445,13.2955 L21.050445,13.2955 C21.4027783,13.2955 21.7078617,13.2529167 21.965695,13.16775 C22.2235283,13.0825833 22.436445,12.9641667 22.604445,12.8125 C22.772445,12.6608333 22.8972783,12.4788333 22.978945,12.2665 C23.0606117,12.0541667 23.101445,11.8208333 23.101445,11.5665 C23.101445,11.3308333 23.0617783,11.1115 22.982445,10.9085 C22.9031117,10.7055 22.7800283,10.5293333 22.613195,10.38 C22.4463617,10.2306667 22.2340283,10.1134167 21.976195,10.02825 C21.7183617,9.94308333 21.4097783,9.9005 21.050445,9.9005 L21.050445,9.9005 L19.251445,9.9005 L19.251445,15 L20.434445,15 Z M21.050445,12.403 L20.434445,12.403 L20.434445,10.786 L21.050445,10.786 C21.1997783,10.786 21.328695,10.8046667 21.437195,10.842 C21.545695,10.8793333 21.6355283,10.9324167 21.706695,11.00125 C21.7778617,11.0700833 21.830945,11.1523333 21.865945,11.248 C21.900945,11.3436667 21.918445,11.4498333 21.918445,11.5665 C21.918445,11.8301667 21.8507783,12.0355 21.715445,12.1825 C21.5801117,12.3295 21.358445,12.403 21.050445,12.403 L21.050445,12.403 Z M26.789334,15 L26.789334,14.055 L24.899334,14.055 L24.899334,9.9005 L23.716334,9.9005 L23.716334,15 L26.789334,15 Z M28.643223,15 L28.643223,9.9005 L27.453223,9.9005 L27.453223,15 L28.643223,15 Z M31.855112,15 L31.855112,10.8385 L33.290112,10.8385 L33.290112,9.9005 L29.237112,9.9005 L29.237112,10.8385 L30.672112,10.8385 L30.672112,15 L31.855112,15 Z" id="KEYSPLIT" fill="#B4B4B4"></path>
                <path d="M4.611,23.056 C5.03333333,23.056 5.39908333,22.98775 5.70825,22.85125 C6.01741667,22.71475 6.27466667,22.5123333 6.48,22.244 L6.48,22.244 L6.011,21.7505 C5.98533333,21.7248333 5.9585,21.70675 5.9305,21.69625 C5.9025,21.68575 5.8745,21.6805 5.8465,21.6805 C5.8115,21.6805 5.77766667,21.6880833 5.745,21.70325 C5.71233333,21.7184167 5.682,21.7376667 5.654,21.761 C5.584,21.8216667 5.51458333,21.8724167 5.44575,21.91325 C5.37691667,21.9540833 5.30458333,21.9873333 5.22875,22.013 C5.15291667,22.0386667 5.07066667,22.05675 4.982,22.06725 C4.89333333,22.07775 4.79533333,22.083 4.688,22.083 C4.50133333,22.083 4.32633333,22.0468333 4.163,21.9745 C3.99966667,21.9021667 3.85675,21.7965833 3.73425,21.65775 C3.61175,21.5189167 3.51491667,21.348 3.44375,21.145 C3.37258333,20.942 3.337,20.7098333 3.337,20.4485 C3.337,20.1988333 3.37258333,19.9736667 3.44375,19.773 C3.51491667,19.5723333 3.61408333,19.4014167 3.74125,19.26025 C3.86841667,19.1190833 4.02066667,19.0105833 4.198,18.93475 C4.37533333,18.8589167 4.57133333,18.821 4.786,18.821 C4.90966667,18.821 5.01758333,18.8303333 5.10975,18.849 C5.20191667,18.8676667 5.28241667,18.8904167 5.35125,18.91725 C5.42008333,18.9440833 5.47958333,18.97325 5.52975,19.00475 C5.57991667,19.03625 5.626,19.0654167 5.668,19.09225 C5.71,19.1190833 5.74966667,19.1418333 5.787,19.1605 C5.82433333,19.1791667 5.864,19.1885 5.906,19.1885 C5.969,19.1885 6.018,19.1750833 6.053,19.14825 C6.088,19.1214167 6.11833333,19.0916667 6.144,19.059 L6.144,19.059 L6.543,18.5235 C6.44733333,18.4231667 6.33766667,18.3315833 6.214,18.24875 C6.09033333,18.1659167 5.955,18.09475 5.808,18.03525 C5.661,17.97575 5.50291667,17.9290833 5.33375,17.89525 C5.16458333,17.8614167 4.98433333,17.8445 4.793,17.8445 C4.39866667,17.8445 4.03816667,17.9086667 3.7115,18.037 C3.38483333,18.1653333 3.10425,18.345 2.86975,18.576 C2.63525,18.807 2.45266667,19.08175 2.322,19.40025 C2.19133333,19.71875 2.126,20.0681667 2.126,20.4485 C2.126,20.8218333 2.18316667,21.16775 2.2975,21.48625 C2.41183333,21.80475 2.57575,22.0800833 2.78925,22.31225 C3.00275,22.5444167 3.26291667,22.7264167 3.56975,22.85825 C3.87658333,22.9900833 4.22366667,23.056 4.611,23.056 Z M8.207889,23 L8.207889,20.844 L10.279889,20.844 L10.279889,23 L11.469889,23 L11.469889,17.9005 L10.279889,17.9005 L10.279889,20.032 L8.207889,20.032 L8.207889,17.9005 L7.017889,17.9005 L7.017889,23 L8.207889,23 Z M15.037667,23.056 C15.3270003,23.056 15.585417,23.01225 15.812917,22.92475 C16.040417,22.83725 16.2317503,22.7170833 16.386917,22.56425 C16.5420837,22.4114167 16.6605003,22.2323333 16.742167,22.027 C16.8238337,21.8216667 16.864667,21.6011667 16.864667,21.3655 C16.864667,21.1531667 16.8320003,20.97175 16.766667,20.82125 C16.7013337,20.67075 16.6155837,20.543 16.509417,20.438 C16.4032503,20.333 16.281917,20.2466667 16.145417,20.179 C16.008917,20.1113333 15.8695003,20.0524167 15.727167,20.00225 C15.5848337,19.9520833 15.445417,19.9065833 15.308917,19.86575 C15.172417,19.8249167 15.0510837,19.78 14.944917,19.731 C14.8387503,19.682 14.7530003,19.6236667 14.687667,19.556 C14.6223337,19.4883333 14.589667,19.4031667 14.589667,19.3005 C14.589667,19.1395 14.643917,19.01175 14.752417,18.91725 C14.860917,18.82275 15.0260003,18.7755 15.247667,18.7755 C15.3760003,18.7755 15.4903337,18.7924167 15.590667,18.82625 C15.6910003,18.8600833 15.7802503,18.898 15.858417,18.94 C15.9365837,18.982 16.0065837,19.0199167 16.068417,19.05375 C16.1302503,19.0875833 16.1880003,19.1045 16.241667,19.1045 C16.3023337,19.1045 16.351917,19.0905 16.390417,19.0625 C16.428917,19.0345 16.465667,18.9925 16.500667,18.9365 L16.500667,18.9365 L16.794667,18.387 C16.703667,18.303 16.600417,18.22775 16.484917,18.16125 C16.369417,18.09475 16.245167,18.0375833 16.112167,17.98975 C15.979167,17.9419167 15.8385837,17.90575 15.690417,17.88125 C15.5422503,17.85675 15.3900003,17.8445 15.233667,17.8445 C14.953667,17.8445 14.705167,17.8870833 14.488167,17.97225 C14.271167,18.0574167 14.0880003,18.1711667 13.938667,18.3135 C13.7893337,18.4558333 13.676167,18.618 13.599167,18.8 C13.522167,18.982 13.483667,19.1686667 13.483667,19.36 C13.483667,19.598 13.5163337,19.7980833 13.581667,19.96025 C13.6470003,20.1224167 13.7327503,20.25775 13.838917,20.36625 C13.9450837,20.47475 14.0658337,20.56225 14.201167,20.62875 C14.3365003,20.69525 14.4753337,20.75125 14.617667,20.79675 C14.7600003,20.84225 14.8988337,20.8836667 15.034167,20.921 C15.1695003,20.9583333 15.2902503,21.0015 15.396417,21.0505 C15.5025837,21.0995 15.5883337,21.1613333 15.653667,21.236 C15.7190003,21.3106667 15.751667,21.4075 15.751667,21.5265 C15.751667,21.7318333 15.692167,21.88175 15.573167,21.97625 C15.454167,22.07075 15.2873337,22.118 15.072667,22.118 C14.9140003,22.118 14.7763337,22.0958333 14.659667,22.0515 C14.5430003,22.0071667 14.4397503,21.9581667 14.349917,21.9045 C14.2600837,21.8508333 14.1795837,21.8018333 14.108417,21.7575 C14.0372503,21.7131667 13.966667,21.691 13.896667,21.691 C13.8430003,21.691 13.7928337,21.7038333 13.746167,21.7295 C13.6995003,21.7551667 13.6633337,21.789 13.637667,21.831 L13.637667,21.831 L13.287667,22.384 C13.3880003,22.4843333 13.5058337,22.5753333 13.641167,22.657 C13.7765003,22.7386667 13.921167,22.80925 14.075167,22.86875 C14.229167,22.92825 14.388417,22.9743333 14.552917,23.007 C14.717417,23.0396667 14.8790003,23.056 15.037667,23.056 Z M18.634556,23 L18.634556,21.2955 L19.250556,21.2955 C19.6028893,21.2955 19.9079727,21.2529167 20.165806,21.16775 C20.4236393,21.0825833 20.636556,20.9641667 20.804556,20.8125 C20.972556,20.6608333 21.0973893,20.4788333 21.179056,20.2665 C21.2607227,20.0541667 21.301556,19.8208333 21.301556,19.5665 C21.301556,19.3308333 21.2618893,19.1115 21.182556,18.9085 C21.1032227,18.7055 20.9801393,18.5293333 20.813306,18.38 C20.6464727,18.2306667 20.4341393,18.1134167 20.176306,18.02825 C19.9184727,17.9430833 19.6098893,17.9005 19.250556,17.9005 L19.250556,17.9005 L17.451556,17.9005 L17.451556,23 L18.634556,23 Z M19.250556,20.403 L18.634556,20.403 L18.634556,18.786 L19.250556,18.786 C19.3998893,18.786 19.528806,18.8046667 19.637306,18.842 C19.745806,18.8793333 19.8356393,18.9324167 19.906806,19.00125 C19.9779727,19.0700833 20.031056,19.1523333 20.066056,19.248 C20.101056,19.3436667 20.118556,19.4498333 20.118556,19.5665 C20.118556,19.8301667 20.0508893,20.0355 19.915556,20.1825 C19.7802227,20.3295 19.558556,20.403 19.250556,20.403 L19.250556,20.403 Z M24.989445,23 L24.989445,22.055 L23.099445,22.055 L23.099445,17.9005 L21.916445,17.9005 L21.916445,23 L24.989445,23 Z M26.843334,23 L26.843334,17.9005 L25.653334,17.9005 L25.653334,23 L26.843334,23 Z M30.055223,23 L30.055223,18.8385 L31.490223,18.8385 L31.490223,17.9005 L27.437223,17.9005 L27.437223,18.8385 L28.872223,18.8385 L28.872223,23 L30.055223,23 Z" id="CHSPLIT" fill="#B4B4B4"></path>
                <path d="M9.867,31 C10.2636667,31 10.62475,30.9364167 10.95025,30.80925 C11.27575,30.6820833 11.554,30.50475 11.785,30.27725 C12.016,30.04975 12.1950833,29.78025 12.32225,29.46875 C12.4494167,29.15725 12.513,28.8171667 12.513,28.4485 C12.513,28.0821667 12.4494167,27.74325 12.32225,27.43175 C12.1950833,27.12025 12.016,26.8513333 11.785,26.625 C11.554,26.3986667 11.27575,26.2213333 10.95025,26.093 C10.62475,25.9646667 10.2636667,25.9005 9.867,25.9005 L9.867,25.9005 L7.886,25.9005 L7.886,31 L9.867,31 Z M9.867,30.09 L9.076,30.09 L9.076,26.8105 L9.867,26.8105 C10.0933333,26.8105 10.2951667,26.8484167 10.4725,26.92425 C10.6498333,27.0000833 10.79975,27.1085833 10.92225,27.24975 C11.04475,27.3909167 11.1386667,27.563 11.204,27.766 C11.2693333,27.969 11.302,28.1965 11.302,28.4485 C11.302,28.7028333 11.2693333,28.9315 11.204,29.1345 C11.1386667,29.3375 11.04475,29.5095833 10.92225,29.65075 C10.79975,29.7919167 10.6498333,29.9004167 10.4725,29.97625 C10.2951667,30.0520833 10.0933333,30.09 9.867,30.09 L9.867,30.09 Z M15.201,31.056 C15.5393333,31.056 15.8438333,31.0035 16.1145,30.8985 C16.3851667,30.7935 16.615,30.6465 16.804,30.4575 C16.993,30.2685 17.13825,30.0433333 17.23975,29.782 C17.34125,29.5206667 17.392,29.2336667 17.392,28.921 L17.392,28.921 L17.392,25.9005 L16.209,25.9005 L16.209,28.921 C16.209,29.1006667 16.18625,29.2610833 16.14075,29.40225 C16.09525,29.5434167 16.0293333,29.663 15.943,29.761 C15.8566667,29.859 15.7510833,29.93425 15.62625,29.98675 C15.5014167,30.03925 15.3596667,30.0655 15.201,30.0655 C15.0423333,30.0655 14.9005833,30.03925 14.77575,29.98675 C14.6509167,29.93425 14.5453333,29.8584167 14.459,29.75925 C14.3726667,29.6600833 14.30675,29.5399167 14.26125,29.39875 C14.21575,29.2575833 14.193,29.0971667 14.193,28.9175 L14.193,28.9175 L14.193,25.9005 L13.01,25.9005 L13.01,28.921 C13.01,29.2336667 13.0601667,29.5206667 13.1605,29.782 C13.2608333,30.0433333 13.4055,30.2685 13.5945,30.4575 C13.7835,30.6465 14.0133333,30.7935 14.284,30.8985 C14.5546667,31.0035 14.8603333,31.056 15.201,31.056 Z M18.673,31 C18.771,31 18.8538333,30.97375 18.9215,30.92125 C18.9891667,30.86875 19.0346667,30.8098333 19.058,30.7445 L19.058,30.7445 L19.359,29.8555 L21.298,29.8555 L21.599,30.7445 C21.6246667,30.8191667 21.67075,30.8804167 21.73725,30.92825 C21.80375,30.9760833 21.8883333,31 21.991,31 L21.991,31 L22.908,31 L20.934,25.9005 L19.723,25.9005 L17.749,31 L18.673,31 Z M21.025,29.0505 L19.632,29.0505 L20.101,27.661 C20.136,27.5723333 20.1733333,27.4673333 20.213,27.346 C20.2526667,27.2246667 20.2911667,27.0928333 20.3285,26.9505 C20.3681667,27.0905 20.4084167,27.2205833 20.44925,27.34075 C20.4900833,27.4609167 20.5256667,27.5653333 20.556,27.654 L20.556,27.654 L21.025,29.0505 Z M26.394,31 L26.394,30.055 L24.504,30.055 L24.504,25.9005 L23.321,25.9005 L23.321,31 L26.394,31 Z" id="DUAL" fill="#B4B4B4"></path>
            </g>
        </g>
        <g id="Key-Split" transform="translate(0.000000, 33.000000)">
            <g id="Rectangle">
                <use fill="black" fill-opacity="1" filter="url(#filter-4)" xlink:href="#path-3"></use>
                <rect stroke="#0F0F0F" stroke-width="1" stroke-linejoin="square" fill="#242424" fill-rule="evenodd" x="0.5" y="0.5" width="35" height="32" rx="2"></rect>
            </g>
            <rect id="Rectangle" fill="#FF9A10" x="1" y="9" width="34" height="7"></rect>
            <rect id="Rectangle" fill="#0F0F0F" x="2" y="8" width="32" height="1"></rect>
            <rect id="Rectangle" fill="#0F0F0F" x="2" y="16" width="32" height="1"></rect>
            <rect id="Rectangle" fill="#0F0F0F" x="2" y="24" width="32" height="1"></rect>
            <g id="Group-3-Copy" transform="translate(1.000000, 0.000000)" fill-rule="nonzero">
                <path d="M7.35,7.056 C7.63933333,7.056 7.89775,7.01225 8.12525,6.92475 C8.35275,6.83725 8.54408333,6.71708333 8.69925,6.56425 C8.85441667,6.41141667 8.97283333,6.23233333 9.0545,6.027 C9.13616667,5.82166667 9.177,5.60116667 9.177,5.3655 C9.177,5.15316667 9.14433333,4.97175 9.079,4.82125 C9.01366667,4.67075 8.92791667,4.543 8.82175,4.438 C8.71558333,4.333 8.59425,4.24666667 8.45775,4.179 C8.32125,4.11133333 8.18183333,4.05241667 8.0395,4.00225 C7.89716667,3.95208333 7.75775,3.90658333 7.62125,3.86575 C7.48475,3.82491667 7.36341667,3.78 7.25725,3.731 C7.15108333,3.682 7.06533333,3.62366667 7,3.556 C6.93466667,3.48833333 6.902,3.40316667 6.902,3.3005 C6.902,3.1395 6.95625,3.01175 7.06475,2.91725 C7.17325,2.82275 7.33833333,2.7755 7.56,2.7755 C7.68833333,2.7755 7.80266667,2.79241667 7.903,2.82625 C8.00333333,2.86008333 8.09258333,2.898 8.17075,2.94 C8.24891667,2.982 8.31891667,3.01991667 8.38075,3.05375 C8.44258333,3.08758333 8.50033333,3.1045 8.554,3.1045 C8.61466667,3.1045 8.66425,3.0905 8.70275,3.0625 C8.74125,3.0345 8.778,2.9925 8.813,2.9365 L8.813,2.9365 L9.107,2.387 C9.016,2.303 8.91275,2.22775 8.79725,2.16125 C8.68175,2.09475 8.5575,2.03758333 8.4245,1.98975 C8.2915,1.94191667 8.15091667,1.90575 8.00275,1.88125 C7.85458333,1.85675 7.70233333,1.8445 7.546,1.8445 C7.266,1.8445 7.0175,1.88708333 6.8005,1.97225 C6.5835,2.05741667 6.40033333,2.17116667 6.251,2.3135 C6.10166667,2.45583333 5.9885,2.618 5.9115,2.8 C5.8345,2.982 5.796,3.16866667 5.796,3.36 C5.796,3.598 5.82866667,3.79808333 5.894,3.96025 C5.95933333,4.12241667 6.04508333,4.25775 6.15125,4.36625 C6.25741667,4.47475 6.37816667,4.56225 6.5135,4.62875 C6.64883333,4.69525 6.78766667,4.75125 6.93,4.79675 C7.07233333,4.84225 7.21116667,4.88366667 7.3465,4.921 C7.48183333,4.95833333 7.60258333,5.0015 7.70875,5.0505 C7.81491667,5.0995 7.90066667,5.16133333 7.966,5.236 C8.03133333,5.31066667 8.064,5.4075 8.064,5.5265 C8.064,5.73183333 8.0045,5.88175 7.8855,5.97625 C7.7665,6.07075 7.59966667,6.118 7.385,6.118 C7.22633333,6.118 7.08866667,6.09583333 6.972,6.0515 C6.85533333,6.00716667 6.75208333,5.95816667 6.66225,5.9045 C6.57241667,5.85083333 6.49191667,5.80183333 6.42075,5.7575 C6.34958333,5.71316667 6.279,5.691 6.209,5.691 C6.15533333,5.691 6.10516667,5.70383333 6.0585,5.7295 C6.01183333,5.75516667 5.97566667,5.789 5.95,5.831 L5.95,5.831 L5.6,6.384 C5.70033333,6.48433333 5.81816667,6.57533333 5.9535,6.657 C6.08883333,6.73866667 6.2335,6.80925 6.3875,6.86875 C6.5415,6.92825 6.70075,6.97433333 6.86525,7.007 C7.02975,7.03966667 7.19133333,7.056 7.35,7.056 Z M11.06,7 L11.06,1.9005 L9.87,1.9005 L9.87,7 L11.06,7 Z M13.048,7 L13.048,4.2665 C13.048,4.19183333 13.0456667,4.11191667 13.041,4.02675 C13.0363333,3.94158333 13.0305,3.85466667 13.0235,3.766 L13.0235,3.766 L15.428,6.804 C15.4863333,6.87866667 15.547,6.93 15.61,6.958 C15.673,6.986 15.75,7 15.841,7 L15.841,7 L16.457,7 L16.457,1.9005 L15.414,1.9005 L15.414,4.599 C15.414,4.68066667 15.4163333,4.76758333 15.421,4.85975 C15.4256667,4.95191667 15.4326667,5.047 15.442,5.145 L15.442,5.145 L13.02,2.0825 C12.9873333,2.04283333 12.9581667,2.01133333 12.9325,1.988 C12.9068333,1.96466667 12.88,1.94658333 12.852,1.93375 C12.824,1.92091667 12.7925,1.91216667 12.7575,1.9075 C12.7225,1.90283333 12.6793333,1.9005 12.628,1.9005 L12.628,1.9005 L12.005,1.9005 L12.005,7 L13.048,7 Z M19.607,7.056 C19.8146667,7.056 20.0089167,7.0455 20.18975,7.0245 C20.3705833,7.0035 20.5409167,6.97083333 20.70075,6.9265 C20.8605833,6.88216667 21.0110833,6.82558333 21.15225,6.75675 C21.2934167,6.68791667 21.4293333,6.60566667 21.56,6.51 L21.56,6.51 L21.56,4.3575 L19.747,4.3575 L19.747,5.0085 C19.747,5.06916667 19.768,5.11933333 19.81,5.159 C19.852,5.19866667 19.9103333,5.2185 19.985,5.2185 L19.985,5.2185 L20.489,5.2185 L20.489,5.992 C20.377,6.03866667 20.258,6.076 20.132,6.104 C20.006,6.132 19.8613333,6.146 19.698,6.146 C19.4833333,6.146 19.2855833,6.10808333 19.10475,6.03225 C18.9239167,5.95641667 18.7675833,5.84616667 18.63575,5.7015 C18.5039167,5.55683333 18.4006667,5.3795 18.326,5.1695 C18.2513333,4.9595 18.214,4.71916667 18.214,4.4485 C18.214,4.2035 18.2478333,3.98125 18.3155,3.78175 C18.3831667,3.58225 18.4794167,3.41133333 18.60425,3.269 C18.7290833,3.12666667 18.8801667,3.01641667 19.0575,2.93825 C19.2348333,2.86008333 19.4343333,2.821 19.656,2.821 C19.775,2.821 19.8823333,2.82683333 19.978,2.8385 C20.0736667,2.85016667 20.1646667,2.86883333 20.251,2.8945 C20.3373333,2.92016667 20.4219167,2.95341667 20.50475,2.99425 C20.5875833,3.03508333 20.6756667,3.0835 20.769,3.1395 C20.8436667,3.18616667 20.916,3.2095 20.986,3.2095 C21.0396667,3.2095 21.08925,3.1955 21.13475,3.1675 C21.18025,3.1395 21.2193333,3.101 21.252,3.052 L21.252,3.052 L21.595,2.5305 C21.4923333,2.4325 21.3756667,2.3415 21.245,2.2575 C21.1143333,2.1735 20.97025,2.10116667 20.81275,2.0405 C20.65525,1.97983333 20.4831667,1.932 20.2965,1.897 C20.1098333,1.862 19.9103333,1.8445 19.698,1.8445 C19.2873333,1.8445 18.91575,1.90866667 18.58325,2.037 C18.25075,2.16533333 17.96725,2.345 17.73275,2.576 C17.49825,2.807 17.318,3.08175 17.192,3.40025 C17.066,3.71875 17.003,4.06816667 17.003,4.4485 C17.003,4.82183333 17.0689167,5.16775 17.20075,5.48625 C17.3325833,5.80475 17.5145833,6.08008333 17.74675,6.31225 C17.9789167,6.54441667 18.2536667,6.72641667 18.571,6.85825 C18.8883333,6.99008333 19.2336667,7.056 19.607,7.056 Z M25.354,7 L25.354,6.055 L23.464,6.055 L23.464,1.9005 L22.281,1.9005 L22.281,7 L25.354,7 Z M29.197,7 L29.197,6.09 L27.104,6.09 L27.104,4.8755 L28.707,4.8755 L28.707,4.0005 L27.104,4.0005 L27.104,2.8105 L29.197,2.8105 L29.197,1.9005 L25.914,1.9005 L25.914,7 L29.197,7 Z" id="SINGLE" fill="#B4B4B4"></path>
                <path d="M1.603,15 L1.603,12.83 L1.89,12.83 C1.99966667,12.83 2.08658333,12.8434167 2.15075,12.87025 C2.21491667,12.8970833 2.268,12.9431667 2.31,13.0085 L2.31,13.0085 L3.465,14.783 C3.48833333,14.818 3.51283333,14.8489167 3.5385,14.87575 C3.56416667,14.9025833 3.5945,14.9253333 3.6295,14.944 C3.6645,14.9626667 3.70591667,14.9766667 3.75375,14.986 C3.80158333,14.9953333 3.85933333,15 3.927,15 L3.927,15 L4.984,15 L3.444,12.634 C3.38333333,12.5383333 3.31625,12.4619167 3.24275,12.40475 C3.16925,12.3475833 3.08816667,12.3026667 2.9995,12.27 C3.06016667,12.2373333 3.11966667,12.1965 3.178,12.1475 C3.23633333,12.0985 3.29233333,12.0366667 3.346,11.962 L3.346,11.962 L4.858,9.9005 L3.829,9.9005 C3.71233333,9.9005 3.61375,9.91683333 3.53325,9.9495 C3.45275,9.98216667 3.381,10.044 3.318,10.135 L3.318,10.135 L2.17,11.801 C2.093,11.9106667 1.967,11.9655 1.792,11.9655 L1.792,11.9655 L1.603,11.9655 L1.603,9.9005 L0.42,9.9005 L0.42,15 L1.603,15 Z M8.699889,15 L8.699889,14.09 L6.606889,14.09 L6.606889,12.8755 L8.209889,12.8755 L8.209889,12.0005 L6.606889,12.0005 L6.606889,10.8105 L8.699889,10.8105 L8.699889,9.9005 L5.416889,9.9005 L5.416889,15 L8.699889,15 Z M11.911778,15 L11.911778,13.061 L13.759778,9.9005 L12.709778,9.9005 C12.660778,9.9005 12.6158613,9.90808333 12.575028,9.92325 C12.5341947,9.93841667 12.498028,9.95825 12.466528,9.98275 C12.435028,10.00725 12.407028,10.0346667 12.382528,10.065 C12.358028,10.0953333 12.338778,10.1256667 12.324778,10.156 L12.324778,10.156 L11.610778,11.64 C11.554778,11.7566667 11.502278,11.8651667 11.453278,11.9655 C11.404278,12.0658333 11.362278,12.1661667 11.327278,12.2665 C11.2899447,12.1685 11.246778,12.0693333 11.197778,11.969 C11.148778,11.8686667 11.0951113,11.759 11.036778,11.64 L11.036778,11.64 L10.315778,10.156 C10.2784447,10.0813333 10.2294447,10.0200833 10.168778,9.97225 C10.1081113,9.92441667 10.0264447,9.9005 9.923778,9.9005 L9.923778,9.9005 L8.880778,9.9005 L10.728778,13.061 L10.728778,15 L11.911778,15 Z M16.837556,15.056 C17.1268893,15.056 17.385306,15.01225 17.612806,14.92475 C17.840306,14.83725 18.0316393,14.7170833 18.186806,14.56425 C18.3419727,14.4114167 18.4603893,14.2323333 18.542056,14.027 C18.6237227,13.8216667 18.664556,13.6011667 18.664556,13.3655 C18.664556,13.1531667 18.6318893,12.97175 18.566556,12.82125 C18.5012227,12.67075 18.4154727,12.543 18.309306,12.438 C18.2031393,12.333 18.081806,12.2466667 17.945306,12.179 C17.808806,12.1113333 17.6693893,12.0524167 17.527056,12.00225 C17.3847227,11.9520833 17.245306,11.9065833 17.108806,11.86575 C16.972306,11.8249167 16.8509727,11.78 16.744806,11.731 C16.6386393,11.682 16.5528893,11.6236667 16.487556,11.556 C16.4222227,11.4883333 16.389556,11.4031667 16.389556,11.3005 C16.389556,11.1395 16.443806,11.01175 16.552306,10.91725 C16.660806,10.82275 16.8258893,10.7755 17.047556,10.7755 C17.1758893,10.7755 17.2902227,10.7924167 17.390556,10.82625 C17.4908893,10.8600833 17.5801393,10.898 17.658306,10.94 C17.7364727,10.982 17.8064727,11.0199167 17.868306,11.05375 C17.9301393,11.0875833 17.9878893,11.1045 18.041556,11.1045 C18.1022227,11.1045 18.151806,11.0905 18.190306,11.0625 C18.228806,11.0345 18.265556,10.9925 18.300556,10.9365 L18.300556,10.9365 L18.594556,10.387 C18.503556,10.303 18.400306,10.22775 18.284806,10.16125 C18.169306,10.09475 18.045056,10.0375833 17.912056,9.98975 C17.779056,9.94191667 17.6384727,9.90575 17.490306,9.88125 C17.3421393,9.85675 17.1898893,9.8445 17.033556,9.8445 C16.753556,9.8445 16.505056,9.88708333 16.288056,9.97225 C16.071056,10.0574167 15.8878893,10.1711667 15.738556,10.3135 C15.5892227,10.4558333 15.476056,10.618 15.399056,10.8 C15.322056,10.982 15.283556,11.1686667 15.283556,11.36 C15.283556,11.598 15.3162227,11.7980833 15.381556,11.96025 C15.4468893,12.1224167 15.5326393,12.25775 15.638806,12.36625 C15.7449727,12.47475 15.8657227,12.56225 16.001056,12.62875 C16.1363893,12.69525 16.2752227,12.75125 16.417556,12.79675 C16.5598893,12.84225 16.6987227,12.8836667 16.834056,12.921 C16.9693893,12.9583333 17.0901393,13.0015 17.196306,13.0505 C17.3024727,13.0995 17.3882227,13.1613333 17.453556,13.236 C17.5188893,13.3106667 17.551556,13.4075 17.551556,13.5265 C17.551556,13.7318333 17.492056,13.88175 17.373056,13.97625 C17.254056,14.07075 17.0872227,14.118 16.872556,14.118 C16.7138893,14.118 16.5762227,14.0958333 16.459556,14.0515 C16.3428893,14.0071667 16.2396393,13.9581667 16.149806,13.9045 C16.0599727,13.8508333 15.9794727,13.8018333 15.908306,13.7575 C15.8371393,13.7131667 15.766556,13.691 15.696556,13.691 C15.6428893,13.691 15.5927227,13.7038333 15.546056,13.7295 C15.4993893,13.7551667 15.4632227,13.789 15.437556,13.831 L15.437556,13.831 L15.087556,14.384 C15.1878893,14.4843333 15.3057227,14.5753333 15.441056,14.657 C15.5763893,14.7386667 15.721056,14.80925 15.875056,14.86875 C16.029056,14.92825 16.188306,14.9743333 16.352806,15.007 C16.517306,15.0396667 16.6788893,15.056 16.837556,15.056 Z M20.434445,15 L20.434445,13.2955 L21.050445,13.2955 C21.4027783,13.2955 21.7078617,13.2529167 21.965695,13.16775 C22.2235283,13.0825833 22.436445,12.9641667 22.604445,12.8125 C22.772445,12.6608333 22.8972783,12.4788333 22.978945,12.2665 C23.0606117,12.0541667 23.101445,11.8208333 23.101445,11.5665 C23.101445,11.3308333 23.0617783,11.1115 22.982445,10.9085 C22.9031117,10.7055 22.7800283,10.5293333 22.613195,10.38 C22.4463617,10.2306667 22.2340283,10.1134167 21.976195,10.02825 C21.7183617,9.94308333 21.4097783,9.9005 21.050445,9.9005 L21.050445,9.9005 L19.251445,9.9005 L19.251445,15 L20.434445,15 Z M21.050445,12.403 L20.434445,12.403 L20.434445,10.786 L21.050445,10.786 C21.1997783,10.786 21.328695,10.8046667 21.437195,10.842 C21.545695,10.8793333 21.6355283,10.9324167 21.706695,11.00125 C21.7778617,11.0700833 21.830945,11.1523333 21.865945,11.248 C21.900945,11.3436667 21.918445,11.4498333 21.918445,11.5665 C21.918445,11.8301667 21.8507783,12.0355 21.715445,12.1825 C21.5801117,12.3295 21.358445,12.403 21.050445,12.403 L21.050445,12.403 Z M26.789334,15 L26.789334,14.055 L24.899334,14.055 L24.899334,9.9005 L23.716334,9.9005 L23.716334,15 L26.789334,15 Z M28.643223,15 L28.643223,9.9005 L27.453223,9.9005 L27.453223,15 L28.643223,15 Z M31.855112,15 L31.855112,10.8385 L33.290112,10.8385 L33.290112,9.9005 L29.237112,9.9005 L29.237112,10.8385 L30.672112,10.8385 L30.672112,15 L31.855112,15 Z" id="KEYSPLIT" fill="#252525"></path>
                <path d="M4.611,23.056 C5.03333333,23.056 5.39908333,22.98775 5.70825,22.85125 C6.01741667,22.71475 6.27466667,22.5123333 6.48,22.244 L6.48,22.244 L6.011,21.7505 C5.98533333,21.7248333 5.9585,21.70675 5.9305,21.69625 C5.9025,21.68575 5.8745,21.6805 5.8465,21.6805 C5.8115,21.6805 5.77766667,21.6880833 5.745,21.70325 C5.71233333,21.7184167 5.682,21.7376667 5.654,21.761 C5.584,21.8216667 5.51458333,21.8724167 5.44575,21.91325 C5.37691667,21.9540833 5.30458333,21.9873333 5.22875,22.013 C5.15291667,22.0386667 5.07066667,22.05675 4.982,22.06725 C4.89333333,22.07775 4.79533333,22.083 4.688,22.083 C4.50133333,22.083 4.32633333,22.0468333 4.163,21.9745 C3.99966667,21.9021667 3.85675,21.7965833 3.73425,21.65775 C3.61175,21.5189167 3.51491667,21.348 3.44375,21.145 C3.37258333,20.942 3.337,20.7098333 3.337,20.4485 C3.337,20.1988333 3.37258333,19.9736667 3.44375,19.773 C3.51491667,19.5723333 3.61408333,19.4014167 3.74125,19.26025 C3.86841667,19.1190833 4.02066667,19.0105833 4.198,18.93475 C4.37533333,18.8589167 4.57133333,18.821 4.786,18.821 C4.90966667,18.821 5.01758333,18.8303333 5.10975,18.849 C5.20191667,18.8676667 5.28241667,18.8904167 5.35125,18.91725 C5.42008333,18.9440833 5.47958333,18.97325 5.52975,19.00475 C5.57991667,19.03625 5.626,19.0654167 5.668,19.09225 C5.71,19.1190833 5.74966667,19.1418333 5.787,19.1605 C5.82433333,19.1791667 5.864,19.1885 5.906,19.1885 C5.969,19.1885 6.018,19.1750833 6.053,19.14825 C6.088,19.1214167 6.11833333,19.0916667 6.144,19.059 L6.144,19.059 L6.543,18.5235 C6.44733333,18.4231667 6.33766667,18.3315833 6.214,18.24875 C6.09033333,18.1659167 5.955,18.09475 5.808,18.03525 C5.661,17.97575 5.50291667,17.9290833 5.33375,17.89525 C5.16458333,17.8614167 4.98433333,17.8445 4.793,17.8445 C4.39866667,17.8445 4.03816667,17.9086667 3.7115,18.037 C3.38483333,18.1653333 3.10425,18.345 2.86975,18.576 C2.63525,18.807 2.45266667,19.08175 2.322,19.40025 C2.19133333,19.71875 2.126,20.0681667 2.126,20.4485 C2.126,20.8218333 2.18316667,21.16775 2.2975,21.48625 C2.41183333,21.80475 2.57575,22.0800833 2.78925,22.31225 C3.00275,22.5444167 3.26291667,22.7264167 3.56975,22.85825 C3.87658333,22.9900833 4.22366667,23.056 4.611,23.056 Z M8.207889,23 L8.207889,20.844 L10.279889,20.844 L10.279889,23 L11.469889,23 L11.469889,17.9005 L10.279889,17.9005 L10.279889,20.032 L8.207889,20.032 L8.207889,17.9005 L7.017889,17.9005 L7.017889,23 L8.207889,23 Z M15.037667,23.056 C15.3270003,23.056 15.585417,23.01225 15.812917,22.92475 C16.040417,22.83725 16.2317503,22.7170833 16.386917,22.56425 C16.5420837,22.4114167 16.6605003,22.2323333 16.742167,22.027 C16.8238337,21.8216667 16.864667,21.6011667 16.864667,21.3655 C16.864667,21.1531667 16.8320003,20.97175 16.766667,20.82125 C16.7013337,20.67075 16.6155837,20.543 16.509417,20.438 C16.4032503,20.333 16.281917,20.2466667 16.145417,20.179 C16.008917,20.1113333 15.8695003,20.0524167 15.727167,20.00225 C15.5848337,19.9520833 15.445417,19.9065833 15.308917,19.86575 C15.172417,19.8249167 15.0510837,19.78 14.944917,19.731 C14.8387503,19.682 14.7530003,19.6236667 14.687667,19.556 C14.6223337,19.4883333 14.589667,19.4031667 14.589667,19.3005 C14.589667,19.1395 14.643917,19.01175 14.752417,18.91725 C14.860917,18.82275 15.0260003,18.7755 15.247667,18.7755 C15.3760003,18.7755 15.4903337,18.7924167 15.590667,18.82625 C15.6910003,18.8600833 15.7802503,18.898 15.858417,18.94 C15.9365837,18.982 16.0065837,19.0199167 16.068417,19.05375 C16.1302503,19.0875833 16.1880003,19.1045 16.241667,19.1045 C16.3023337,19.1045 16.351917,19.0905 16.390417,19.0625 C16.428917,19.0345 16.465667,18.9925 16.500667,18.9365 L16.500667,18.9365 L16.794667,18.387 C16.703667,18.303 16.600417,18.22775 16.484917,18.16125 C16.369417,18.09475 16.245167,18.0375833 16.112167,17.98975 C15.979167,17.9419167 15.8385837,17.90575 15.690417,17.88125 C15.5422503,17.85675 15.3900003,17.8445 15.233667,17.8445 C14.953667,17.8445 14.705167,17.8870833 14.488167,17.97225 C14.271167,18.0574167 14.0880003,18.1711667 13.938667,18.3135 C13.7893337,18.4558333 13.676167,18.618 13.599167,18.8 C13.522167,18.982 13.483667,19.1686667 13.483667,19.36 C13.483667,19.598 13.5163337,19.7980833 13.581667,19.96025 C13.6470003,20.1224167 13.7327503,20.25775 13.838917,20.36625 C13.9450837,20.47475 14.0658337,20.56225 14.201167,20.62875 C14.3365003,20.69525 14.4753337,20.75125 14.617667,20.79675 C14.7600003,20.84225 14.8988337,20.8836667 15.034167,20.921 C15.1695003,20.9583333 15.2902503,21.0015 15.396417,21.0505 C15.5025837,21.0995 15.5883337,21.1613333 15.653667,21.236 C15.7190003,21.3106667 15.751667,21.4075 15.751667,21.5265 C15.751667,21.7318333 15.692167,21.88175 15.573167,21.97625 C15.454167,22.07075 15.2873337,22.118 15.072667,22.118 C14.9140003,22.118 14.7763337,22.0958333 14.659667,22.0515 C14.5430003,22.0071667 14.4397503,21.9581667 14.349917,21.9045 C14.2600837,21.8508333 14.1795837,21.8018333 14.108417,21.7575 C14.0372503,21.7131667 13.966667,21.691 13.896667,21.691 C13.8430003,21.691 13.7928337,21.7038333 13.746167,21.7295 C13.6995003,21.7551667 13.6633337,21.789 13.637667,21.831 L13.637667,21.831 L13.287667,22.384 C13.3880003,22.4843333 13.5058337,22.5753333 13.641167,22.657 C13.7765003,22.7386667 13.921167,22.80925 14.075167,22.86875 C14.229167,22.92825 14.388417,22.9743333 14.552917,23.007 C14.717417,23.0396667 14.8790003,23.056 15.037667,23.056 Z M18.634556,23 L18.634556,21.2955 L19.250556,21.2955 C19.6028893,21.2955 19.9079727,21.2529167 20.165806,21.16775 C20.4236393,21.0825833 20.636556,20.9641667 20.804556,20.8125 C20.972556,20.6608333 21.0973893,20.4788333 21.179056,20.2665 C21.2607227,20.0541667 21.301556,19.8208333 21.301556,19.5665 C21.301556,19.3308333 21.2618893,19.1115 21.182556,18.9085 C21.1032227,18.7055 20.9801393,18.5293333 20.813306,18.38 C20.6464727,18.2306667 20.4341393,18.1134167 20.176306,18.02825 C19.9184727,17.9430833 19.6098893,17.9005 19.250556,17.9005 L19.250556,17.9005 L17.451556,17.9005 L17.451556,23 L18.634556,23 Z M19.250556,20.403 L18.634556,20.403 L18.634556,18.786 L19.250556,18.786 C19.3998893,18.786 19.528806,18.8046667 19.637306,18.842 C19.745806,18.8793333 19.8356393,18.9324167 19.906806,19.00125 C19.9779727,19.0700833 20.031056,19.1523333 20.066056,19.248 C20.101056,19.3436667 20.118556,19.4498333 20.118556,19.5665 C20.118556,19.8301667 20.0508893,20.0355 19.915556,20.1825 C19.7802227,20.3295 19.558556,20.403 19.250556,20.403 L19.250556,20.403 Z M24.989445,23 L24.989445,22.055 L23.099445,22.055 L23.099445,17.9005 L21.916445,17.9005 L21.916445,23 L24.989445,23 Z M26.843334,23 L26.843334,17.9005 L25.653334,17.9005 L25.653334,23 L26.843334,23 Z M30.055223,23 L30.055223,18.8385 L31.490223,18.8385 L31.490223,17.9005 L27.437223,17.9005 L27.437223,18.8385 L28.872223,18.8385 L28.872223,23 L30.055223,23 Z" id="CHSPLIT" fill="#B4B4B4"></path>
                <path d="M9.867,31 C10.2636667,31 10.62475,30.9364167 10.95025,30.80925 C11.27575,30.6820833 11.554,30.50475 11.785,30.27725 C12.016,30.04975 12.1950833,29.78025 12.32225,29.46875 C12.4494167,29.15725 12.513,28.8171667 12.513,28.4485 C12.513,28.0821667 12.4494167,27.74325 12.32225,27.43175 C12.1950833,27.12025 12.016,26.8513333 11.785,26.625 C11.554,26.3986667 11.27575,26.2213333 10.95025,26.093 C10.62475,25.9646667 10.2636667,25.9005 9.867,25.9005 L9.867,25.9005 L7.886,25.9005 L7.886,31 L9.867,31 Z M9.867,30.09 L9.076,30.09 L9.076,26.8105 L9.867,26.8105 C10.0933333,26.8105 10.2951667,26.8484167 10.4725,26.92425 C10.6498333,27.0000833 10.79975,27.1085833 10.92225,27.24975 C11.04475,27.3909167 11.1386667,27.563 11.204,27.766 C11.2693333,27.969 11.302,28.1965 11.302,28.4485 C11.302,28.7028333 11.2693333,28.9315 11.204,29.1345 C11.1386667,29.3375 11.04475,29.5095833 10.92225,29.65075 C10.79975,29.7919167 10.6498333,29.9004167 10.4725,29.97625 C10.2951667,30.0520833 10.0933333,30.09 9.867,30.09 L9.867,30.09 Z M15.201,31.056 C15.5393333,31.056 15.8438333,31.0035 16.1145,30.8985 C16.3851667,30.7935 16.615,30.6465 16.804,30.4575 C16.993,30.2685 17.13825,30.0433333 17.23975,29.782 C17.34125,29.5206667 17.392,29.2336667 17.392,28.921 L17.392,28.921 L17.392,25.9005 L16.209,25.9005 L16.209,28.921 C16.209,29.1006667 16.18625,29.2610833 16.14075,29.40225 C16.09525,29.5434167 16.0293333,29.663 15.943,29.761 C15.8566667,29.859 15.7510833,29.93425 15.62625,29.98675 C15.5014167,30.03925 15.3596667,30.0655 15.201,30.0655 C15.0423333,30.0655 14.9005833,30.03925 14.77575,29.98675 C14.6509167,29.93425 14.5453333,29.8584167 14.459,29.75925 C14.3726667,29.6600833 14.30675,29.5399167 14.26125,29.39875 C14.21575,29.2575833 14.193,29.0971667 14.193,28.9175 L14.193,28.9175 L14.193,25.9005 L13.01,25.9005 L13.01,28.921 C13.01,29.2336667 13.0601667,29.5206667 13.1605,29.782 C13.2608333,30.0433333 13.4055,30.2685 13.5945,30.4575 C13.7835,30.6465 14.0133333,30.7935 14.284,30.8985 C14.5546667,31.0035 14.8603333,31.056 15.201,31.056 Z M18.673,31 C18.771,31 18.8538333,30.97375 18.9215,30.92125 C18.9891667,30.86875 19.0346667,30.8098333 19.058,30.7445 L19.058,30.7445 L19.359,29.8555 L21.298,29.8555 L21.599,30.7445 C21.6246667,30.8191667 21.67075,30.8804167 21.73725,30.92825 C21.80375,30.9760833 21.8883333,31 21.991,31 L21.991,31 L22.908,31 L20.934,25.9005 L19.723,25.9005 L17.749,31 L18.673,31 Z M21.025,29.0505 L19.632,29.0505 L20.101,27.661 C20.136,27.5723333 20.1733333,27.4673333 20.213,27.346 C20.2526667,27.2246667 20.2911667,27.0928333 20.3285,26.9505 C20.3681667,27.0905 20.4084167,27.2205833 20.44925,27.34075 C20.4900833,27.4609167 20.5256667,27.5653333 20.556,27.654 L20.556,27.654 L21.025,29.0505 Z M26.394,31 L26.394,30.055 L24.504,30.055 L24.504,25.9005 L23.321,25.9005 L23.321,31 L26.394,31 Z" id="DUAL" fill="#B4B4B4"></path>
            </g>
        </g>
        <g id="Ch-Split" transform="translate(0.000000, 66.000000)">
            <g id="Rectangle">
                <use fill="black" fill-opacity="1" filter="url(#filter-6)" xlink:href="#path-5"></use>
                <rect stroke="#0F0F0F" stroke-width="1" stroke-linejoin="square" fill="#242424" fill-rule="evenodd" x="0.5" y="0.5" width="35" height="32" rx="2"></rect>
            </g>
            <rect id="Rectangle" fill="#FF9A10" x="1" y="17" width="34" height="7"></rect>
            <rect id="Rectangle" fill="#0F0F0F" x="2" y="8" width="32" height="1"></rect>
            <rect id="Rectangle" fill="#0F0F0F" x="2" y="16" width="32" height="1"></rect>
            <rect id="Rectangle" fill="#0F0F0F" x="2" y="24" width="32" height="1"></rect>
            <g id="Group-2-Copy" transform="translate(1.000000, 0.000000)" fill-rule="nonzero">
                <path d="M7.35,7.056 C7.63933333,7.056 7.89775,7.01225 8.12525,6.92475 C8.35275,6.83725 8.54408333,6.71708333 8.69925,6.56425 C8.85441667,6.41141667 8.97283333,6.23233333 9.0545,6.027 C9.13616667,5.82166667 9.177,5.60116667 9.177,5.3655 C9.177,5.15316667 9.14433333,4.97175 9.079,4.82125 C9.01366667,4.67075 8.92791667,4.543 8.82175,4.438 C8.71558333,4.333 8.59425,4.24666667 8.45775,4.179 C8.32125,4.11133333 8.18183333,4.05241667 8.0395,4.00225 C7.89716667,3.95208333 7.75775,3.90658333 7.62125,3.86575 C7.48475,3.82491667 7.36341667,3.78 7.25725,3.731 C7.15108333,3.682 7.06533333,3.62366667 7,3.556 C6.93466667,3.48833333 6.902,3.40316667 6.902,3.3005 C6.902,3.1395 6.95625,3.01175 7.06475,2.91725 C7.17325,2.82275 7.33833333,2.7755 7.56,2.7755 C7.68833333,2.7755 7.80266667,2.79241667 7.903,2.82625 C8.00333333,2.86008333 8.09258333,2.898 8.17075,2.94 C8.24891667,2.982 8.31891667,3.01991667 8.38075,3.05375 C8.44258333,3.08758333 8.50033333,3.1045 8.554,3.1045 C8.61466667,3.1045 8.66425,3.0905 8.70275,3.0625 C8.74125,3.0345 8.778,2.9925 8.813,2.9365 L8.813,2.9365 L9.107,2.387 C9.016,2.303 8.91275,2.22775 8.79725,2.16125 C8.68175,2.09475 8.5575,2.03758333 8.4245,1.98975 C8.2915,1.94191667 8.15091667,1.90575 8.00275,1.88125 C7.85458333,1.85675 7.70233333,1.8445 7.546,1.8445 C7.266,1.8445 7.0175,1.88708333 6.8005,1.97225 C6.5835,2.05741667 6.40033333,2.17116667 6.251,2.3135 C6.10166667,2.45583333 5.9885,2.618 5.9115,2.8 C5.8345,2.982 5.796,3.16866667 5.796,3.36 C5.796,3.598 5.82866667,3.79808333 5.894,3.96025 C5.95933333,4.12241667 6.04508333,4.25775 6.15125,4.36625 C6.25741667,4.47475 6.37816667,4.56225 6.5135,4.62875 C6.64883333,4.69525 6.78766667,4.75125 6.93,4.79675 C7.07233333,4.84225 7.21116667,4.88366667 7.3465,4.921 C7.48183333,4.95833333 7.60258333,5.0015 7.70875,5.0505 C7.81491667,5.0995 7.90066667,5.16133333 7.966,5.236 C8.03133333,5.31066667 8.064,5.4075 8.064,5.5265 C8.064,5.73183333 8.0045,5.88175 7.8855,5.97625 C7.7665,6.07075 7.59966667,6.118 7.385,6.118 C7.22633333,6.118 7.08866667,6.09583333 6.972,6.0515 C6.85533333,6.00716667 6.75208333,5.95816667 6.66225,5.9045 C6.57241667,5.85083333 6.49191667,5.80183333 6.42075,5.7575 C6.34958333,5.71316667 6.279,5.691 6.209,5.691 C6.15533333,5.691 6.10516667,5.70383333 6.0585,5.7295 C6.01183333,5.75516667 5.97566667,5.789 5.95,5.831 L5.95,5.831 L5.6,6.384 C5.70033333,6.48433333 5.81816667,6.57533333 5.9535,6.657 C6.08883333,6.73866667 6.2335,6.80925 6.3875,6.86875 C6.5415,6.92825 6.70075,6.97433333 6.86525,7.007 C7.02975,7.03966667 7.19133333,7.056 7.35,7.056 Z M11.06,7 L11.06,1.9005 L9.87,1.9005 L9.87,7 L11.06,7 Z M13.048,7 L13.048,4.2665 C13.048,4.19183333 13.0456667,4.11191667 13.041,4.02675 C13.0363333,3.94158333 13.0305,3.85466667 13.0235,3.766 L13.0235,3.766 L15.428,6.804 C15.4863333,6.87866667 15.547,6.93 15.61,6.958 C15.673,6.986 15.75,7 15.841,7 L15.841,7 L16.457,7 L16.457,1.9005 L15.414,1.9005 L15.414,4.599 C15.414,4.68066667 15.4163333,4.76758333 15.421,4.85975 C15.4256667,4.95191667 15.4326667,5.047 15.442,5.145 L15.442,5.145 L13.02,2.0825 C12.9873333,2.04283333 12.9581667,2.01133333 12.9325,1.988 C12.9068333,1.96466667 12.88,1.94658333 12.852,1.93375 C12.824,1.92091667 12.7925,1.91216667 12.7575,1.9075 C12.7225,1.90283333 12.6793333,1.9005 12.628,1.9005 L12.628,1.9005 L12.005,1.9005 L12.005,7 L13.048,7 Z M19.607,7.056 C19.8146667,7.056 20.0089167,7.0455 20.18975,7.0245 C20.3705833,7.0035 20.5409167,6.97083333 20.70075,6.9265 C20.8605833,6.88216667 21.0110833,6.82558333 21.15225,6.75675 C21.2934167,6.68791667 21.4293333,6.60566667 21.56,6.51 L21.56,6.51 L21.56,4.3575 L19.747,4.3575 L19.747,5.0085 C19.747,5.06916667 19.768,5.11933333 19.81,5.159 C19.852,5.19866667 19.9103333,5.2185 19.985,5.2185 L19.985,5.2185 L20.489,5.2185 L20.489,5.992 C20.377,6.03866667 20.258,6.076 20.132,6.104 C20.006,6.132 19.8613333,6.146 19.698,6.146 C19.4833333,6.146 19.2855833,6.10808333 19.10475,6.03225 C18.9239167,5.95641667 18.7675833,5.84616667 18.63575,5.7015 C18.5039167,5.55683333 18.4006667,5.3795 18.326,5.1695 C18.2513333,4.9595 18.214,4.71916667 18.214,4.4485 C18.214,4.2035 18.2478333,3.98125 18.3155,3.78175 C18.3831667,3.58225 18.4794167,3.41133333 18.60425,3.269 C18.7290833,3.12666667 18.8801667,3.01641667 19.0575,2.93825 C19.2348333,2.86008333 19.4343333,2.821 19.656,2.821 C19.775,2.821 19.8823333,2.82683333 19.978,2.8385 C20.0736667,2.85016667 20.1646667,2.86883333 20.251,2.8945 C20.3373333,2.92016667 20.4219167,2.95341667 20.50475,2.99425 C20.5875833,3.03508333 20.6756667,3.0835 20.769,3.1395 C20.8436667,3.18616667 20.916,3.2095 20.986,3.2095 C21.0396667,3.2095 21.08925,3.1955 21.13475,3.1675 C21.18025,3.1395 21.2193333,3.101 21.252,3.052 L21.252,3.052 L21.595,2.5305 C21.4923333,2.4325 21.3756667,2.3415 21.245,2.2575 C21.1143333,2.1735 20.97025,2.10116667 20.81275,2.0405 C20.65525,1.97983333 20.4831667,1.932 20.2965,1.897 C20.1098333,1.862 19.9103333,1.8445 19.698,1.8445 C19.2873333,1.8445 18.91575,1.90866667 18.58325,2.037 C18.25075,2.16533333 17.96725,2.345 17.73275,2.576 C17.49825,2.807 17.318,3.08175 17.192,3.40025 C17.066,3.71875 17.003,4.06816667 17.003,4.4485 C17.003,4.82183333 17.0689167,5.16775 17.20075,5.48625 C17.3325833,5.80475 17.5145833,6.08008333 17.74675,6.31225 C17.9789167,6.54441667 18.2536667,6.72641667 18.571,6.85825 C18.8883333,6.99008333 19.2336667,7.056 19.607,7.056 Z M25.354,7 L25.354,6.055 L23.464,6.055 L23.464,1.9005 L22.281,1.9005 L22.281,7 L25.354,7 Z M29.197,7 L29.197,6.09 L27.104,6.09 L27.104,4.8755 L28.707,4.8755 L28.707,4.0005 L27.104,4.0005 L27.104,2.8105 L29.197,2.8105 L29.197,1.9005 L25.914,1.9005 L25.914,7 L29.197,7 Z" id="SINGLE" fill="#B4B4B4"></path>
                <path d="M1.603,15 L1.603,12.83 L1.89,12.83 C1.99966667,12.83 2.08658333,12.8434167 2.15075,12.87025 C2.21491667,12.8970833 2.268,12.9431667 2.31,13.0085 L2.31,13.0085 L3.465,14.783 C3.48833333,14.818 3.51283333,14.8489167 3.5385,14.87575 C3.56416667,14.9025833 3.5945,14.9253333 3.6295,14.944 C3.6645,14.9626667 3.70591667,14.9766667 3.75375,14.986 C3.80158333,14.9953333 3.85933333,15 3.927,15 L3.927,15 L4.984,15 L3.444,12.634 C3.38333333,12.5383333 3.31625,12.4619167 3.24275,12.40475 C3.16925,12.3475833 3.08816667,12.3026667 2.9995,12.27 C3.06016667,12.2373333 3.11966667,12.1965 3.178,12.1475 C3.23633333,12.0985 3.29233333,12.0366667 3.346,11.962 L3.346,11.962 L4.858,9.9005 L3.829,9.9005 C3.71233333,9.9005 3.61375,9.91683333 3.53325,9.9495 C3.45275,9.98216667 3.381,10.044 3.318,10.135 L3.318,10.135 L2.17,11.801 C2.093,11.9106667 1.967,11.9655 1.792,11.9655 L1.792,11.9655 L1.603,11.9655 L1.603,9.9005 L0.42,9.9005 L0.42,15 L1.603,15 Z M8.699889,15 L8.699889,14.09 L6.606889,14.09 L6.606889,12.8755 L8.209889,12.8755 L8.209889,12.0005 L6.606889,12.0005 L6.606889,10.8105 L8.699889,10.8105 L8.699889,9.9005 L5.416889,9.9005 L5.416889,15 L8.699889,15 Z M11.911778,15 L11.911778,13.061 L13.759778,9.9005 L12.709778,9.9005 C12.660778,9.9005 12.6158613,9.90808333 12.575028,9.92325 C12.5341947,9.93841667 12.498028,9.95825 12.466528,9.98275 C12.435028,10.00725 12.407028,10.0346667 12.382528,10.065 C12.358028,10.0953333 12.338778,10.1256667 12.324778,10.156 L12.324778,10.156 L11.610778,11.64 C11.554778,11.7566667 11.502278,11.8651667 11.453278,11.9655 C11.404278,12.0658333 11.362278,12.1661667 11.327278,12.2665 C11.2899447,12.1685 11.246778,12.0693333 11.197778,11.969 C11.148778,11.8686667 11.0951113,11.759 11.036778,11.64 L11.036778,11.64 L10.315778,10.156 C10.2784447,10.0813333 10.2294447,10.0200833 10.168778,9.97225 C10.1081113,9.92441667 10.0264447,9.9005 9.923778,9.9005 L9.923778,9.9005 L8.880778,9.9005 L10.728778,13.061 L10.728778,15 L11.911778,15 Z M16.837556,15.056 C17.1268893,15.056 17.385306,15.01225 17.612806,14.92475 C17.840306,14.83725 18.0316393,14.7170833 18.186806,14.56425 C18.3419727,14.4114167 18.4603893,14.2323333 18.542056,14.027 C18.6237227,13.8216667 18.664556,13.6011667 18.664556,13.3655 C18.664556,13.1531667 18.6318893,12.97175 18.566556,12.82125 C18.5012227,12.67075 18.4154727,12.543 18.309306,12.438 C18.2031393,12.333 18.081806,12.2466667 17.945306,12.179 C17.808806,12.1113333 17.6693893,12.0524167 17.527056,12.00225 C17.3847227,11.9520833 17.245306,11.9065833 17.108806,11.86575 C16.972306,11.8249167 16.8509727,11.78 16.744806,11.731 C16.6386393,11.682 16.5528893,11.6236667 16.487556,11.556 C16.4222227,11.4883333 16.389556,11.4031667 16.389556,11.3005 C16.389556,11.1395 16.443806,11.01175 16.552306,10.91725 C16.660806,10.82275 16.8258893,10.7755 17.047556,10.7755 C17.1758893,10.7755 17.2902227,10.7924167 17.390556,10.82625 C17.4908893,10.8600833 17.5801393,10.898 17.658306,10.94 C17.7364727,10.982 17.8064727,11.0199167 17.868306,11.05375 C17.9301393,11.0875833 17.9878893,11.1045 18.041556,11.1045 C18.1022227,11.1045 18.151806,11.0905 18.190306,11.0625 C18.228806,11.0345 18.265556,10.9925 18.300556,10.9365 L18.300556,10.9365 L18.594556,10.387 C18.503556,10.303 18.400306,10.22775 18.284806,10.16125 C18.169306,10.09475 18.045056,10.0375833 17.912056,9.98975 C17.779056,9.94191667 17.6384727,9.90575 17.490306,9.88125 C17.3421393,9.85675 17.1898893,9.8445 17.033556,9.8445 C16.753556,9.8445 16.505056,9.88708333 16.288056,9.97225 C16.071056,10.0574167 15.8878893,10.1711667 15.738556,10.3135 C15.5892227,10.4558333 15.476056,10.618 15.399056,10.8 C15.322056,10.982 15.283556,11.1686667 15.283556,11.36 C15.283556,11.598 15.3162227,11.7980833 15.381556,11.96025 C15.4468893,12.1224167 15.5326393,12.25775 15.638806,12.36625 C15.7449727,12.47475 15.8657227,12.56225 16.001056,12.62875 C16.1363893,12.69525 16.2752227,12.75125 16.417556,12.79675 C16.5598893,12.84225 16.6987227,12.8836667 16.834056,12.921 C16.9693893,12.9583333 17.0901393,13.0015 17.196306,13.0505 C17.3024727,13.0995 17.3882227,13.1613333 17.453556,13.236 C17.5188893,13.3106667 17.551556,13.4075 17.551556,13.5265 C17.551556,13.7318333 17.492056,13.88175 17.373056,13.97625 C17.254056,14.07075 17.0872227,14.118 16.872556,14.118 C16.7138893,14.118 16.5762227,14.0958333 16.459556,14.0515 C16.3428893,14.0071667 16.2396393,13.9581667 16.149806,13.9045 C16.0599727,13.8508333 15.9794727,13.8018333 15.908306,13.7575 C15.8371393,13.7131667 15.766556,13.691 15.696556,13.691 C15.6428893,13.691 15.5927227,13.7038333 15.546056,13.7295 C15.4993893,13.7551667 15.4632227,13.789 15.437556,13.831 L15.437556,13.831 L15.087556,14.384 C15.1878893,14.4843333 15.3057227,14.5753333 15.441056,14.657 C15.5763893,14.7386667 15.721056,14.80925 15.875056,14.86875 C16.029056,14.92825 16.188306,14.9743333 16.352806,15.007 C16.517306,15.0396667 16.6788893,15.056 16.837556,15.056 Z M20.434445,15 L20.434445,13.2955 L21.050445,13.2955 C21.4027783,13.2955 21.7078617,13.2529167 21.965695,13.16775 C22.2235283,13.0825833 22.436445,12.9641667 22.604445,12.8125 C22.772445,12.6608333 22.8972783,12.4788333 22.978945,12.2665 C23.0606117,12.0541667 23.101445,11.8208333 23.101445,11.5665 C23.101445,11.3308333 23.0617783,11.1115 22.982445,10.9085 C22.9031117,10.7055 22.7800283,10.5293333 22.613195,10.38 C22.4463617,10.2306667 22.2340283,10.1134167 21.976195,10.02825 C21.7183617,9.94308333 21.4097783,9.9005 21.050445,9.9005 L21.050445,9.9005 L19.251445,9.9005 L19.251445,15 L20.434445,15 Z M21.050445,12.403 L20.434445,12.403 L20.434445,10.786 L21.050445,10.786 C21.1997783,10.786 21.328695,10.8046667 21.437195,10.842 C21.545695,10.8793333 21.6355283,10.9324167 21.706695,11.00125 C21.7778617,11.0700833 21.830945,11.1523333 21.865945,11.248 C21.900945,11.3436667 21.918445,11.4498333 21.918445,11.5665 C21.918445,11.8301667 21.8507783,12.0355 21.715445,12.1825 C21.5801117,12.3295 21.358445,12.403 21.050445,12.403 L21.050445,12.403 Z M26.789334,15 L26.789334,14.055 L24.899334,14.055 L24.899334,9.9005 L23.716334,9.9005 L23.716334,15 L26.789334,15 Z M28.643223,15 L28.643223,9.9005 L27.453223,9.9005 L27.453223,15 L28.643223,15 Z M31.855112,15 L31.855112,10.8385 L33.290112,10.8385 L33.290112,9.9005 L29.237112,9.9005 L29.237112,10.8385 L30.672112,10.8385 L30.672112,15 L31.855112,15 Z" id="KEYSPLIT" fill="#B4B4B4"></path>
                <path d="M4.611,23.056 C5.03333333,23.056 5.39908333,22.98775 5.70825,22.85125 C6.01741667,22.71475 6.27466667,22.5123333 6.48,22.244 L6.48,22.244 L6.011,21.7505 C5.98533333,21.7248333 5.9585,21.70675 5.9305,21.69625 C5.9025,21.68575 5.8745,21.6805 5.8465,21.6805 C5.8115,21.6805 5.77766667,21.6880833 5.745,21.70325 C5.71233333,21.7184167 5.682,21.7376667 5.654,21.761 C5.584,21.8216667 5.51458333,21.8724167 5.44575,21.91325 C5.37691667,21.9540833 5.30458333,21.9873333 5.22875,22.013 C5.15291667,22.0386667 5.07066667,22.05675 4.982,22.06725 C4.89333333,22.07775 4.79533333,22.083 4.688,22.083 C4.50133333,22.083 4.32633333,22.0468333 4.163,21.9745 C3.99966667,21.9021667 3.85675,21.7965833 3.73425,21.65775 C3.61175,21.5189167 3.51491667,21.348 3.44375,21.145 C3.37258333,20.942 3.337,20.7098333 3.337,20.4485 C3.337,20.1988333 3.37258333,19.9736667 3.44375,19.773 C3.51491667,19.5723333 3.61408333,19.4014167 3.74125,19.26025 C3.86841667,19.1190833 4.02066667,19.0105833 4.198,18.93475 C4.37533333,18.8589167 4.57133333,18.821 4.786,18.821 C4.90966667,18.821 5.01758333,18.8303333 5.10975,18.849 C5.20191667,18.8676667 5.28241667,18.8904167 5.35125,18.91725 C5.42008333,18.9440833 5.47958333,18.97325 5.52975,19.00475 C5.57991667,19.03625 5.626,19.0654167 5.668,19.09225 C5.71,19.1190833 5.74966667,19.1418333 5.787,19.1605 C5.82433333,19.1791667 5.864,19.1885 5.906,19.1885 C5.969,19.1885 6.018,19.1750833 6.053,19.14825 C6.088,19.1214167 6.11833333,19.0916667 6.144,19.059 L6.144,19.059 L6.543,18.5235 C6.44733333,18.4231667 6.33766667,18.3315833 6.214,18.24875 C6.09033333,18.1659167 5.955,18.09475 5.808,18.03525 C5.661,17.97575 5.50291667,17.9290833 5.33375,17.89525 C5.16458333,17.8614167 4.98433333,17.8445 4.793,17.8445 C4.39866667,17.8445 4.03816667,17.9086667 3.7115,18.037 C3.38483333,18.1653333 3.10425,18.345 2.86975,18.576 C2.63525,18.807 2.45266667,19.08175 2.322,19.40025 C2.19133333,19.71875 2.126,20.0681667 2.126,20.4485 C2.126,20.8218333 2.18316667,21.16775 2.2975,21.48625 C2.41183333,21.80475 2.57575,22.0800833 2.78925,22.31225 C3.00275,22.5444167 3.26291667,22.7264167 3.56975,22.85825 C3.87658333,22.9900833 4.22366667,23.056 4.611,23.056 Z M8.207889,23 L8.207889,20.844 L10.279889,20.844 L10.279889,23 L11.469889,23 L11.469889,17.9005 L10.279889,17.9005 L10.279889,20.032 L8.207889,20.032 L8.207889,17.9005 L7.017889,17.9005 L7.017889,23 L8.207889,23 Z M15.037667,23.056 C15.3270003,23.056 15.585417,23.01225 15.812917,22.92475 C16.040417,22.83725 16.2317503,22.7170833 16.386917,22.56425 C16.5420837,22.4114167 16.6605003,22.2323333 16.742167,22.027 C16.8238337,21.8216667 16.864667,21.6011667 16.864667,21.3655 C16.864667,21.1531667 16.8320003,20.97175 16.766667,20.82125 C16.7013337,20.67075 16.6155837,20.543 16.509417,20.438 C16.4032503,20.333 16.281917,20.2466667 16.145417,20.179 C16.008917,20.1113333 15.8695003,20.0524167 15.727167,20.00225 C15.5848337,19.9520833 15.445417,19.9065833 15.308917,19.86575 C15.172417,19.8249167 15.0510837,19.78 14.944917,19.731 C14.8387503,19.682 14.7530003,19.6236667 14.687667,19.556 C14.6223337,19.4883333 14.589667,19.4031667 14.589667,19.3005 C14.589667,19.1395 14.643917,19.01175 14.752417,18.91725 C14.860917,18.82275 15.0260003,18.7755 15.247667,18.7755 C15.3760003,18.7755 15.4903337,18.7924167 15.590667,18.82625 C15.6910003,18.8600833 15.7802503,18.898 15.858417,18.94 C15.9365837,18.982 16.0065837,19.0199167 16.068417,19.05375 C16.1302503,19.0875833 16.1880003,19.1045 16.241667,19.1045 C16.3023337,19.1045 16.351917,19.0905 16.390417,19.0625 C16.428917,19.0345 16.465667,18.9925 16.500667,18.9365 L16.500667,18.9365 L16.794667,18.387 C16.703667,18.303 16.600417,18.22775 16.484917,18.16125 C16.369417,18.09475 16.245167,18.0375833 16.112167,17.98975 C15.979167,17.9419167 15.8385837,17.90575 15.690417,17.88125 C15.5422503,17.85675 15.3900003,17.8445 15.233667,17.8445 C14.953667,17.8445 14.705167,17.8870833 14.488167,17.97225 C14.271167,18.0574167 14.0880003,18.1711667 13.938667,18.3135 C13.7893337,18.4558333 13.676167,18.618 13.599167,18.8 C13.522167,18.982 13.483667,19.1686667 13.483667,19.36 C13.483667,19.598 13.5163337,19.7980833 13.581667,19.96025 C13.6470003,20.1224167 13.7327503,20.25775 13.838917,20.36625 C13.9450837,20.47475 14.0658337,20.56225 14.201167,20.62875 C14.3365003,20.69525 14.4753337,20.75125 14.617667,20.79675 C14.7600003,20.84225 14.8988337,20.8836667 15.034167,20.921 C15.1695003,20.9583333 15.2902503,21.0015 15.396417,21.0505 C15.5025837,21.0995 15.5883337,21.1613333 15.653667,21.236 C15.7190003,21.3106667 15.751667,21.4075 15.751667,21.5265 C15.751667,21.7318333 15.692167,21.88175 15.573167,21.97625 C15.454167,22.07075 15.2873337,22.118 15.072667,22.118 C14.9140003,22.118 14.7763337,22.0958333 14.659667,22.0515 C14.5430003,22.0071667 14.4397503,21.9581667 14.349917,21.9045 C14.2600837,21.8508333 14.1795837,21.8018333 14.108417,21.7575 C14.0372503,21.7131667 13.966667,21.691 13.896667,21.691 C13.8430003,21.691 13.7928337,21.7038333 13.746167,21.7295 C13.6995003,21.7551667 13.6633337,21.789 13.637667,21.831 L13.637667,21.831 L13.287667,22.384 C13.3880003,22.4843333 13.5058337,22.5753333 13.641167,22.657 C13.7765003,22.7386667 13.921167,22.80925 14.075167,22.86875 C14.229167,22.92825 14.388417,22.9743333 14.552917,23.007 C14.717417,23.0396667 14.8790003,23.056 15.037667,23.056 Z M18.634556,23 L18.634556,21.2955 L19.250556,21.2955 C19.6028893,21.2955 19.9079727,21.2529167 20.165806,21.16775 C20.4236393,21.0825833 20.636556,20.9641667 20.804556,20.8125 C20.972556,20.6608333 21.0973893,20.4788333 21.179056,20.2665 C21.2607227,20.0541667 21.301556,19.8208333 21.301556,19.5665 C21.301556,19.3308333 21.2618893,19.1115 21.182556,18.9085 C21.1032227,18.7055 20.9801393,18.5293333 20.813306,18.38 C20.6464727,18.2306667 20.4341393,18.1134167 20.176306,18.02825 C19.9184727,17.9430833 19.6098893,17.9005 19.250556,17.9005 L19.250556,17.9005 L17.451556,17.9005 L17.451556,23 L18.634556,23 Z M19.250556,20.403 L18.634556,20.403 L18.634556,18.786 L19.250556,18.786 C19.3998893,18.786 19.528806,18.8046667 19.637306,18.842 C19.745806,18.8793333 19.8356393,18.9324167 19.906806,19.00125 C19.9779727,19.0700833 20.031056,19.1523333 20.066056,19.248 C20.101056,19.3436667 20.118556,19.4498333 20.118556,19.5665 C20.118556,19.8301667 20.0508893,20.0355 19.915556,20.1825 C19.7802227,20.3295 19.558556,20.403 19.250556,20.403 L19.250556,20.403 Z M24.989445,23 L24.989445,22.055 L23.099445,22.055 L23.099445,17.9005 L21.916445,17.9005 L21.916445,23 L24.989445,23 Z M26.843334,23 L26.843334,17.9005 L25.653334,17.9005 L25.653334,23 L26.843334,23 Z M30.055223,23 L30.055223,18.8385 L31.490223,18.8385 L31.490223,17.9005 L27.437223,17.9005 L27.437223,18.8385 L28.872223,18.8385 L28.872223,23 L30.055223,23 Z" id="CHSPLIT" fill="#252525"></path>
                <path d="M9.867,31 C10.2636667,31 10.62475,30.9364167 10.95025,30.80925 C11.27575,30.6820833 11.554,30.50475 11.785,30.27725 C12.016,30.04975 12.1950833,29.78025 12.32225,29.46875 C12.4494167,29.15725 12.513,28.8171667 12.513,28.4485 C12.513,28.0821667 12.4494167,27.74325 12.32225,27.43175 C12.1950833,27.12025 12.016,26.8513333 11.785,26.625 C11.554,26.3986667 11.27575,26.2213333 10.95025,26.093 C10.62475,25.9646667 10.2636667,25.9005 9.867,25.9005 L9.867,25.9005 L7.886,25.9005 L7.886,31 L9.867,31 Z M9.867,30.09 L9.076,30.09 L9.076,26.8105 L9.867,26.8105 C10.0933333,26.8105 10.2951667,26.8484167 10.4725,26.92425 C10.6498333,27.0000833 10.79975,27.1085833 10.92225,27.24975 C11.04475,27.3909167 11.1386667,27.563 11.204,27.766 C11.2693333,27.969 11.302,28.1965 11.302,28.4485 C11.302,28.7028333 11.2693333,28.9315 11.204,29.1345 C11.1386667,29.3375 11.04475,29.5095833 10.92225,29.65075 C10.79975,29.7919167 10.6498333,29.9004167 10.4725,29.97625 C10.2951667,30.0520833 10.0933333,30.09 9.867,30.09 L9.867,30.09 Z M15.201,31.056 C15.5393333,31.056 15.8438333,31.0035 16.1145,30.8985 C16.3851667,30.7935 16.615,30.6465 16.804,30.4575 C16.993,30.2685 17.13825,30.0433333 17.23975,29.782 C17.34125,29.5206667 17.392,29.2336667 17.392,28.921 L17.392,28.921 L17.392,25.9005 L16.209,25.9005 L16.209,28.921 C16.209,29.1006667 16.18625,29.2610833 16.14075,29.40225 C16.09525,29.5434167 16.0293333,29.663 15.943,29.761 C15.8566667,29.859 15.7510833,29.93425 15.62625,29.98675 C15.5014167,30.03925 15.3596667,30.0655 15.201,30.0655 C15.0423333,30.0655 14.9005833,30.03925 14.77575,29.98675 C14.6509167,29.93425 14.5453333,29.8584167 14.459,29.75925 C14.3726667,29.6600833 14.30675,29.5399167 14.26125,29.39875 C14.21575,29.2575833 14.193,29.0971667 14.193,28.9175 L14.193,28.9175 L14.193,25.9005 L13.01,25.9005 L13.01,28.921 C13.01,29.2336667 13.0601667,29.5206667 13.1605,29.782 C13.2608333,30.0433333 13.4055,30.2685 13.5945,30.4575 C13.7835,30.6465 14.0133333,30.7935 14.284,30.8985 C14.5546667,31.0035 14.8603333,31.056 15.201,31.056 Z M18.673,31 C18.771,31 18.8538333,30.97375 18.9215,30.92125 C18.9891667,30.86875 19.0346667,30.8098333 19.058,30.7445 L19.058,30.7445 L19.359,29.8555 L21.298,29.8555 L21.599,30.7445 C21.6246667,30.8191667 21.67075,30.8804167 21.73725,30.92825 C21.80375,30.9760833 21.8883333,31 21.991,31 L21.991,31 L22.908,31 L20.934,25.9005 L19.723,25.9005 L17.749,31 L18.673,31 Z M21.025,29.0505 L19.632,29.0505 L20.101,27.661 C20.136,27.5723333 20.1733333,27.4673333 20.213,27.346 C20.2526667,27.2246667 20.2911667,27.0928333 20.3285,26.9505 C20.3681667,27.0905 20.4084167,27.2205833 20.44925,27.34075 C20.4900833,27.4609167 20.5256667,27.5653333 20.556,27.654 L20.556,27.654 L21.025,29.0505 Z M26.394,31 L26.394,30.055 L24.504,30.055 L24.504,25.9005 L23.321,25.9005 L23.321,31 L26.394,31 Z" id="DUAL" fill="#B4B4B4"></path>
            </g>
        </g>
        <g id="Ch-Split" transform="translate(0.000000, 99.000000)">
            <g id="Rectangle">
                <use fill="black" fill-opacity="1" filter="url(#filter-8)" xlink:href="#path-7"></use>
                <rect stroke="#0F0F0F" stroke-width="1" stroke-linejoin="square" fill="#242424" fill-rule="evenodd" x="0.5" y="0.5" width="35" height="32" rx="2"></rect>
            </g>
            <path d="M3,25 L33,25 C34.1045695,25 35,25.8954305 35,27 L35,32 L35,32 L1,32 L1,27 C1,25.8954305 1.8954305,25 3,25 Z" id="Rectangle" fill="#FF9A10" transform="translate(18.000000, 28.500000) rotate(-180.000000) translate(-18.000000, -28.500000) "></path>
            <rect id="Rectangle" fill="#0F0F0F" x="2" y="8" width="32" height="1"></rect>
            <rect id="Rectangle" fill="#0F0F0F" x="2" y="16" width="32" height="1"></rect>
            <rect id="Rectangle" fill="#0F0F0F" x="2" y="24" width="32" height="1"></rect>
            <g id="Group-Copy" transform="translate(1.000000, 0.000000)" fill-rule="nonzero">
                <path d="M7.35,7.056 C7.63933333,7.056 7.89775,7.01225 8.12525,6.92475 C8.35275,6.83725 8.54408333,6.71708333 8.69925,6.56425 C8.85441667,6.41141667 8.97283333,6.23233333 9.0545,6.027 C9.13616667,5.82166667 9.177,5.60116667 9.177,5.3655 C9.177,5.15316667 9.14433333,4.97175 9.079,4.82125 C9.01366667,4.67075 8.92791667,4.543 8.82175,4.438 C8.71558333,4.333 8.59425,4.24666667 8.45775,4.179 C8.32125,4.11133333 8.18183333,4.05241667 8.0395,4.00225 C7.89716667,3.95208333 7.75775,3.90658333 7.62125,3.86575 C7.48475,3.82491667 7.36341667,3.78 7.25725,3.731 C7.15108333,3.682 7.06533333,3.62366667 7,3.556 C6.93466667,3.48833333 6.902,3.40316667 6.902,3.3005 C6.902,3.1395 6.95625,3.01175 7.06475,2.91725 C7.17325,2.82275 7.33833333,2.7755 7.56,2.7755 C7.68833333,2.7755 7.80266667,2.79241667 7.903,2.82625 C8.00333333,2.86008333 8.09258333,2.898 8.17075,2.94 C8.24891667,2.982 8.31891667,3.01991667 8.38075,3.05375 C8.44258333,3.08758333 8.50033333,3.1045 8.554,3.1045 C8.61466667,3.1045 8.66425,3.0905 8.70275,3.0625 C8.74125,3.0345 8.778,2.9925 8.813,2.9365 L8.813,2.9365 L9.107,2.387 C9.016,2.303 8.91275,2.22775 8.79725,2.16125 C8.68175,2.09475 8.5575,2.03758333 8.4245,1.98975 C8.2915,1.94191667 8.15091667,1.90575 8.00275,1.88125 C7.85458333,1.85675 7.70233333,1.8445 7.546,1.8445 C7.266,1.8445 7.0175,1.88708333 6.8005,1.97225 C6.5835,2.05741667 6.40033333,2.17116667 6.251,2.3135 C6.10166667,2.45583333 5.9885,2.618 5.9115,2.8 C5.8345,2.982 5.796,3.16866667 5.796,3.36 C5.796,3.598 5.82866667,3.79808333 5.894,3.96025 C5.95933333,4.12241667 6.04508333,4.25775 6.15125,4.36625 C6.25741667,4.47475 6.37816667,4.56225 6.5135,4.62875 C6.64883333,4.69525 6.78766667,4.75125 6.93,4.79675 C7.07233333,4.84225 7.21116667,4.88366667 7.3465,4.921 C7.48183333,4.95833333 7.60258333,5.0015 7.70875,5.0505 C7.81491667,5.0995 7.90066667,5.16133333 7.966,5.236 C8.03133333,5.31066667 8.064,5.4075 8.064,5.5265 C8.064,5.73183333 8.0045,5.88175 7.8855,5.97625 C7.7665,6.07075 7.59966667,6.118 7.385,6.118 C7.22633333,6.118 7.08866667,6.09583333 6.972,6.0515 C6.85533333,6.00716667 6.75208333,5.95816667 6.66225,5.9045 C6.57241667,5.85083333 6.49191667,5.80183333 6.42075,5.7575 C6.34958333,5.71316667 6.279,5.691 6.209,5.691 C6.15533333,5.691 6.10516667,5.70383333 6.0585,5.7295 C6.01183333,5.75516667 5.97566667,5.789 5.95,5.831 L5.95,5.831 L5.6,6.384 C5.70033333,6.48433333 5.81816667,6.57533333 5.9535,6.657 C6.08883333,6.73866667 6.2335,6.80925 6.3875,6.86875 C6.5415,6.92825 6.70075,6.97433333 6.86525,7.007 C7.02975,7.03966667 7.19133333,7.056 7.35,7.056 Z M11.06,7 L11.06,1.9005 L9.87,1.9005 L9.87,7 L11.06,7 Z M13.048,7 L13.048,4.2665 C13.048,4.19183333 13.0456667,4.11191667 13.041,4.02675 C13.0363333,3.94158333 13.0305,3.85466667 13.0235,3.766 L13.0235,3.766 L15.428,6.804 C15.4863333,6.87866667 15.547,6.93 15.61,6.958 C15.673,6.986 15.75,7 15.841,7 L15.841,7 L16.457,7 L16.457,1.9005 L15.414,1.9005 L15.414,4.599 C15.414,4.68066667 15.4163333,4.76758333 15.421,4.85975 C15.4256667,4.95191667 15.4326667,5.047 15.442,5.145 L15.442,5.145 L13.02,2.0825 C12.9873333,2.04283333 12.9581667,2.01133333 12.9325,1.988 C12.9068333,1.96466667 12.88,1.94658333 12.852,1.93375 C12.824,1.92091667 12.7925,1.91216667 12.7575,1.9075 C12.7225,1.90283333 12.6793333,1.9005 12.628,1.9005 L12.628,1.9005 L12.005,1.9005 L12.005,7 L13.048,7 Z M19.607,7.056 C19.8146667,7.056 20.0089167,7.0455 20.18975,7.0245 C20.3705833,7.0035 20.5409167,6.97083333 20.70075,6.9265 C20.8605833,6.88216667 21.0110833,6.82558333 21.15225,6.75675 C21.2934167,6.68791667 21.4293333,6.60566667 21.56,6.51 L21.56,6.51 L21.56,4.3575 L19.747,4.3575 L19.747,5.0085 C19.747,5.06916667 19.768,5.11933333 19.81,5.159 C19.852,5.19866667 19.9103333,5.2185 19.985,5.2185 L19.985,5.2185 L20.489,5.2185 L20.489,5.992 C20.377,6.03866667 20.258,6.076 20.132,6.104 C20.006,6.132 19.8613333,6.146 19.698,6.146 C19.4833333,6.146 19.2855833,6.10808333 19.10475,6.03225 C18.9239167,5.95641667 18.7675833,5.84616667 18.63575,5.7015 C18.5039167,5.55683333 18.4006667,5.3795 18.326,5.1695 C18.2513333,4.9595 18.214,4.71916667 18.214,4.4485 C18.214,4.2035 18.2478333,3.98125 18.3155,3.78175 C18.3831667,3.58225 18.4794167,3.41133333 18.60425,3.269 C18.7290833,3.12666667 18.8801667,3.01641667 19.0575,2.93825 C19.2348333,2.86008333 19.4343333,2.821 19.656,2.821 C19.775,2.821 19.8823333,2.82683333 19.978,2.8385 C20.0736667,2.85016667 20.1646667,2.86883333 20.251,2.8945 C20.3373333,2.92016667 20.4219167,2.95341667 20.50475,2.99425 C20.5875833,3.03508333 20.6756667,3.0835 20.769,3.1395 C20.8436667,3.18616667 20.916,3.2095 20.986,3.2095 C21.0396667,3.2095 21.08925,3.1955 21.13475,3.1675 C21.18025,3.1395 21.2193333,3.101 21.252,3.052 L21.252,3.052 L21.595,2.5305 C21.4923333,2.4325 21.3756667,2.3415 21.245,2.2575 C21.1143333,2.1735 20.97025,2.10116667 20.81275,2.0405 C20.65525,1.97983333 20.4831667,1.932 20.2965,1.897 C20.1098333,1.862 19.9103333,1.8445 19.698,1.8445 C19.2873333,1.8445 18.91575,1.90866667 18.58325,2.037 C18.25075,2.16533333 17.96725,2.345 17.73275,2.576 C17.49825,2.807 17.318,3.08175 17.192,3.40025 C17.066,3.71875 17.003,4.06816667 17.003,4.4485 C17.003,4.82183333 17.0689167,5.16775 17.20075,5.48625 C17.3325833,5.80475 17.5145833,6.08008333 17.74675,6.31225 C17.9789167,6.54441667 18.2536667,6.72641667 18.571,6.85825 C18.8883333,6.99008333 19.2336667,7.056 19.607,7.056 Z M25.354,7 L25.354,6.055 L23.464,6.055 L23.464,1.9005 L22.281,1.9005 L22.281,7 L25.354,7 Z M29.197,7 L29.197,6.09 L27.104,6.09 L27.104,4.8755 L28.707,4.8755 L28.707,4.0005 L27.104,4.0005 L27.104,2.8105 L29.197,2.8105 L29.197,1.9005 L25.914,1.9005 L25.914,7 L29.197,7 Z" id="SINGLE" fill="#B4B4B4"></path>
                <path d="M1.603,15 L1.603,12.83 L1.89,12.83 C1.99966667,12.83 2.08658333,12.8434167 2.15075,12.87025 C2.21491667,12.8970833 2.268,12.9431667 2.31,13.0085 L2.31,13.0085 L3.465,14.783 C3.48833333,14.818 3.51283333,14.8489167 3.5385,14.87575 C3.56416667,14.9025833 3.5945,14.9253333 3.6295,14.944 C3.6645,14.9626667 3.70591667,14.9766667 3.75375,14.986 C3.80158333,14.9953333 3.85933333,15 3.927,15 L3.927,15 L4.984,15 L3.444,12.634 C3.38333333,12.5383333 3.31625,12.4619167 3.24275,12.40475 C3.16925,12.3475833 3.08816667,12.3026667 2.9995,12.27 C3.06016667,12.2373333 3.11966667,12.1965 3.178,12.1475 C3.23633333,12.0985 3.29233333,12.0366667 3.346,11.962 L3.346,11.962 L4.858,9.9005 L3.829,9.9005 C3.71233333,9.9005 3.61375,9.91683333 3.53325,9.9495 C3.45275,9.98216667 3.381,10.044 3.318,10.135 L3.318,10.135 L2.17,11.801 C2.093,11.9106667 1.967,11.9655 1.792,11.9655 L1.792,11.9655 L1.603,11.9655 L1.603,9.9005 L0.42,9.9005 L0.42,15 L1.603,15 Z M8.699889,15 L8.699889,14.09 L6.606889,14.09 L6.606889,12.8755 L8.209889,12.8755 L8.209889,12.0005 L6.606889,12.0005 L6.606889,10.8105 L8.699889,10.8105 L8.699889,9.9005 L5.416889,9.9005 L5.416889,15 L8.699889,15 Z M11.911778,15 L11.911778,13.061 L13.759778,9.9005 L12.709778,9.9005 C12.660778,9.9005 12.6158613,9.90808333 12.575028,9.92325 C12.5341947,9.93841667 12.498028,9.95825 12.466528,9.98275 C12.435028,10.00725 12.407028,10.0346667 12.382528,10.065 C12.358028,10.0953333 12.338778,10.1256667 12.324778,10.156 L12.324778,10.156 L11.610778,11.64 C11.554778,11.7566667 11.502278,11.8651667 11.453278,11.9655 C11.404278,12.0658333 11.362278,12.1661667 11.327278,12.2665 C11.2899447,12.1685 11.246778,12.0693333 11.197778,11.969 C11.148778,11.8686667 11.0951113,11.759 11.036778,11.64 L11.036778,11.64 L10.315778,10.156 C10.2784447,10.0813333 10.2294447,10.0200833 10.168778,9.97225 C10.1081113,9.92441667 10.0264447,9.9005 9.923778,9.9005 L9.923778,9.9005 L8.880778,9.9005 L10.728778,13.061 L10.728778,15 L11.911778,15 Z M16.837556,15.056 C17.1268893,15.056 17.385306,15.01225 17.612806,14.92475 C17.840306,14.83725 18.0316393,14.7170833 18.186806,14.56425 C18.3419727,14.4114167 18.4603893,14.2323333 18.542056,14.027 C18.6237227,13.8216667 18.664556,13.6011667 18.664556,13.3655 C18.664556,13.1531667 18.6318893,12.97175 18.566556,12.82125 C18.5012227,12.67075 18.4154727,12.543 18.309306,12.438 C18.2031393,12.333 18.081806,12.2466667 17.945306,12.179 C17.808806,12.1113333 17.6693893,12.0524167 17.527056,12.00225 C17.3847227,11.9520833 17.245306,11.9065833 17.108806,11.86575 C16.972306,11.8249167 16.8509727,11.78 16.744806,11.731 C16.6386393,11.682 16.5528893,11.6236667 16.487556,11.556 C16.4222227,11.4883333 16.389556,11.4031667 16.389556,11.3005 C16.389556,11.1395 16.443806,11.01175 16.552306,10.91725 C16.660806,10.82275 16.8258893,10.7755 17.047556,10.7755 C17.1758893,10.7755 17.2902227,10.7924167 17.390556,10.82625 C17.4908893,10.8600833 17.5801393,10.898 17.658306,10.94 C17.7364727,10.982 17.8064727,11.0199167 17.868306,11.05375 C17.9301393,11.0875833 17.9878893,11.1045 18.041556,11.1045 C18.1022227,11.1045 18.151806,11.0905 18.190306,11.0625 C18.228806,11.0345 18.265556,10.9925 18.300556,10.9365 L18.300556,10.9365 L18.594556,10.387 C18.503556,10.303 18.400306,10.22775 18.284806,10.16125 C18.169306,10.09475 18.045056,10.0375833 17.912056,9.98975 C17.779056,9.94191667 17.6384727,9.90575 17.490306,9.88125 C17.3421393,9.85675 17.1898893,9.8445 17.033556,9.8445 C16.753556,9.8445 16.505056,9.88708333 16.288056,9.97225 C16.071056,10.0574167 15.8878893,10.1711667 15.738556,10.3135 C15.5892227,10.4558333 15.476056,10.618 15.399056,10.8 C15.322056,10.982 15.283556,11.1686667 15.283556,11.36 C15.283556,11.598 15.3162227,11.7980833 15.381556,11.96025 C15.4468893,12.1224167 15.5326393,12.25775 15.638806,12.36625 C15.7449727,12.47475 15.8657227,12.56225 16.001056,12.62875 C16.1363893,12.69525 16.2752227,12.75125 16.417556,12.79675 C16.5598893,12.84225 16.6987227,12.8836667 16.834056,12.921 C16.9693893,12.9583333 17.0901393,13.0015 17.196306,13.0505 C17.3024727,13.0995 17.3882227,13.1613333 17.453556,13.236 C17.5188893,13.3106667 17.551556,13.4075 17.551556,13.5265 C17.551556,13.7318333 17.492056,13.88175 17.373056,13.97625 C17.254056,14.07075 17.0872227,14.118 16.872556,14.118 C16.7138893,14.118 16.5762227,14.0958333 16.459556,14.0515 C16.3428893,14.0071667 16.2396393,13.9581667 16.149806,13.9045 C16.0599727,13.8508333 15.9794727,13.8018333 15.908306,13.7575 C15.8371393,13.7131667 15.766556,13.691 15.696556,13.691 C15.6428893,13.691 15.5927227,13.7038333 15.546056,13.7295 C15.4993893,13.7551667 15.4632227,13.789 15.437556,13.831 L15.437556,13.831 L15.087556,14.384 C15.1878893,14.4843333 15.3057227,14.5753333 15.441056,14.657 C15.5763893,14.7386667 15.721056,14.80925 15.875056,14.86875 C16.029056,14.92825 16.188306,14.9743333 16.352806,15.007 C16.517306,15.0396667 16.6788893,15.056 16.837556,15.056 Z M20.434445,15 L20.434445,13.2955 L21.050445,13.2955 C21.4027783,13.2955 21.7078617,13.2529167 21.965695,13.16775 C22.2235283,13.0825833 22.436445,12.9641667 22.604445,12.8125 C22.772445,12.6608333 22.8972783,12.4788333 22.978945,12.2665 C23.0606117,12.0541667 23.101445,11.8208333 23.101445,11.5665 C23.101445,11.3308333 23.0617783,11.1115 22.982445,10.9085 C22.9031117,10.7055 22.7800283,10.5293333 22.613195,10.38 C22.4463617,10.2306667 22.2340283,10.1134167 21.976195,10.02825 C21.7183617,9.94308333 21.4097783,9.9005 21.050445,9.9005 L21.050445,9.9005 L19.251445,9.9005 L19.251445,15 L20.434445,15 Z M21.050445,12.403 L20.434445,12.403 L20.434445,10.786 L21.050445,10.786 C21.1997783,10.786 21.328695,10.8046667 21.437195,10.842 C21.545695,10.8793333 21.6355283,10.9324167 21.706695,11.00125 C21.7778617,11.0700833 21.830945,11.1523333 21.865945,11.248 C21.900945,11.3436667 21.918445,11.4498333 21.918445,11.5665 C21.918445,11.8301667 21.8507783,12.0355 21.715445,12.1825 C21.5801117,12.3295 21.358445,12.403 21.050445,12.403 L21.050445,12.403 Z M26.789334,15 L26.789334,14.055 L24.899334,14.055 L24.899334,9.9005 L23.716334,9.9005 L23.716334,15 L26.789334,15 Z M28.643223,15 L28.643223,9.9005 L27.453223,9.9005 L27.453223,15 L28.643223,15 Z M31.855112,15 L31.855112,10.8385 L33.290112,10.8385 L33.290112,9.9005 L29.237112,9.9005 L29.237112,10.8385 L30.672112,10.8385 L30.672112,15 L31.855112,15 Z" id="KEYSPLIT" fill="#B4B4B4"></path>
                <path d="M4.611,23.056 C5.03333333,23.056 5.39908333,22.98775 5.70825,22.85125 C6.01741667,22.71475 6.27466667,22.5123333 6.48,22.244 L6.48,22.244 L6.011,21.7505 C5.98533333,21.7248333 5.9585,21.70675 5.9305,21.69625 C5.9025,21.68575 5.8745,21.6805 5.8465,21.6805 C5.8115,21.6805 5.77766667,21.6880833 5.745,21.70325 C5.71233333,21.7184167 5.682,21.7376667 5.654,21.761 C5.584,21.8216667 5.51458333,21.8724167 5.44575,21.91325 C5.37691667,21.9540833 5.30458333,21.9873333 5.22875,22.013 C5.15291667,22.0386667 5.07066667,22.05675 4.982,22.06725 C4.89333333,22.07775 4.79533333,22.083 4.688,22.083 C4.50133333,22.083 4.32633333,22.0468333 4.163,21.9745 C3.99966667,21.9021667 3.85675,21.7965833 3.73425,21.65775 C3.61175,21.5189167 3.51491667,21.348 3.44375,21.145 C3.37258333,20.942 3.337,20.7098333 3.337,20.4485 C3.337,20.1988333 3.37258333,19.9736667 3.44375,19.773 C3.51491667,19.5723333 3.61408333,19.4014167 3.74125,19.26025 C3.86841667,19.1190833 4.02066667,19.0105833 4.198,18.93475 C4.37533333,18.8589167 4.57133333,18.821 4.786,18.821 C4.90966667,18.821 5.01758333,18.8303333 5.10975,18.849 C5.20191667,18.8676667 5.28241667,18.8904167 5.35125,18.91725 C5.42008333,18.9440833 5.47958333,18.97325 5.52975,19.00475 C5.57991667,19.03625 5.626,19.0654167 5.668,19.09225 C5.71,19.1190833 5.74966667,19.1418333 5.787,19.1605 C5.82433333,19.1791667 5.864,19.1885 5.906,19.1885 C5.969,19.1885 6.018,19.1750833 6.053,19.14825 C6.088,19.1214167 6.11833333,19.0916667 6.144,19.059 L6.144,19.059 L6.543,18.5235 C6.44733333,18.4231667 6.33766667,18.3315833 6.214,18.24875 C6.09033333,18.1659167 5.955,18.09475 5.808,18.03525 C5.661,17.97575 5.50291667,17.9290833 5.33375,17.89525 C5.16458333,17.8614167 4.98433333,17.8445 4.793,17.8445 C4.39866667,17.8445 4.03816667,17.9086667 3.7115,18.037 C3.38483333,18.1653333 3.10425,18.345 2.86975,18.576 C2.63525,18.807 2.45266667,19.08175 2.322,19.40025 C2.19133333,19.71875 2.126,20.0681667 2.126,20.4485 C2.126,20.8218333 2.18316667,21.16775 2.2975,21.48625 C2.41183333,21.80475 2.57575,22.0800833 2.78925,22.31225 C3.00275,22.5444167 3.26291667,22.7264167 3.56975,22.85825 C3.87658333,22.9900833 4.22366667,23.056 4.611,23.056 Z M8.207889,23 L8.207889,20.844 L10.279889,20.844 L10.279889,23 L11.469889,23 L11.469889,17.9005 L10.279889,17.9005 L10.279889,20.032 L8.207889,20.032 L8.207889,17.9005 L7.017889,17.9005 L7.017889,23 L8.207889,23 Z M15.037667,23.056 C15.3270003,23.056 15.585417,23.01225 15.812917,22.92475 C16.040417,22.83725 16.2317503,22.7170833 16.386917,22.56425 C16.5420837,22.4114167 16.6605003,22.2323333 16.742167,22.027 C16.8238337,21.8216667 16.864667,21.6011667 16.864667,21.3655 C16.864667,21.1531667 16.8320003,20.97175 16.766667,20.82125 C16.7013337,20.67075 16.6155837,20.543 16.509417,20.438 C16.4032503,20.333 16.281917,20.2466667 16.145417,20.179 C16.008917,20.1113333 15.8695003,20.0524167 15.727167,20.00225 C15.5848337,19.9520833 15.445417,19.9065833 15.308917,19.86575 C15.172417,19.8249167 15.0510837,19.78 14.944917,19.731 C14.8387503,19.682 14.7530003,19.6236667 14.687667,19.556 C14.6223337,19.4883333 14.589667,19.4031667 14.589667,19.3005 C14.589667,19.1395 14.643917,19.01175 14.752417,18.91725 C14.860917,18.82275 15.0260003,18.7755 15.247667,18.7755 C15.3760003,18.7755 15.4903337,18.7924167 15.590667,18.82625 C15.6910003,18.8600833 15.7802503,18.898 15.858417,18.94 C15.9365837,18.982 16.0065837,19.0199167 16.068417,19.05375 C16.1302503,19.0875833 16.1880003,19.1045 16.241667,19.1045 C16.3023337,19.1045 16.351917,19.0905 16.390417,19.0625 C16.428917,19.0345 16.465667,18.9925 16.500667,18.9365 L16.500667,18.9365 L16.794667,18.387 C16.703667,18.303 16.600417,18.22775 16.484917,18.16125 C16.369417,18.09475 16.245167,18.0375833 16.112167,17.98975 C15.979167,17.9419167 15.8385837,17.90575 15.690417,17.88125 C15.5422503,17.85675 15.3900003,17.8445 15.233667,17.8445 C14.953667,17.8445 14.705167,17.8870833 14.488167,17.97225 C14.271167,18.0574167 14.0880003,18.1711667 13.938667,18.3135 C13.7893337,18.4558333 13.676167,18.618 13.599167,18.8 C13.522167,18.982 13.483667,19.1686667 13.483667,19.36 C13.483667,19.598 13.5163337,19.7980833 13.581667,19.96025 C13.6470003,20.1224167 13.7327503,20.25775 13.838917,20.36625 C13.9450837,20.47475 14.0658337,20.56225 14.201167,20.62875 C14.3365003,20.69525 14.4753337,20.75125 14.617667,20.79675 C14.7600003,20.84225 14.8988337,20.8836667 15.034167,20.921 C15.1695003,20.9583333 15.2902503,21.0015 15.396417,21.0505 C15.5025837,21.0995 15.5883337,21.1613333 15.653667,21.236 C15.7190003,21.3106667 15.751667,21.4075 15.751667,21.5265 C15.751667,21.7318333 15.692167,21.88175 15.573167,21.97625 C15.454167,22.07075 15.2873337,22.118 15.072667,22.118 C14.9140003,22.118 14.7763337,22.0958333 14.659667,22.0515 C14.5430003,22.0071667 14.4397503,21.9581667 14.349917,21.9045 C14.2600837,21.8508333 14.1795837,21.8018333 14.108417,21.7575 C14.0372503,21.7131667 13.966667,21.691 13.896667,21.691 C13.8430003,21.691 13.7928337,21.7038333 13.746167,21.7295 C13.6995003,21.7551667 13.6633337,21.789 13.637667,21.831 L13.637667,21.831 L13.287667,22.384 C13.3880003,22.4843333 13.5058337,22.5753333 13.641167,22.657 C13.7765003,22.7386667 13.921167,22.80925 14.075167,22.86875 C14.229167,22.92825 14.388417,22.9743333 14.552917,23.007 C14.717417,23.0396667 14.8790003,23.056 15.037667,23.056 Z M18.634556,23 L18.634556,21.2955 L19.250556,21.2955 C19.6028893,21.2955 19.9079727,21.2529167 20.165806,21.16775 C20.4236393,21.0825833 20.636556,20.9641667 20.804556,20.8125 C20.972556,20.6608333 21.0973893,20.4788333 21.179056,20.2665 C21.2607227,20.0541667 21.301556,19.8208333 21.301556,19.5665 C21.301556,19.3308333 21.2618893,19.1115 21.182556,18.9085 C21.1032227,18.7055 20.9801393,18.5293333 20.813306,18.38 C20.6464727,18.2306667 20.4341393,18.1134167 20.176306,18.02825 C19.9184727,17.9430833 19.6098893,17.9005 19.250556,17.9005 L19.250556,17.9005 L17.451556,17.9005 L17.451556,23 L18.634556,23 Z M19.250556,20.403 L18.634556,20.403 L18.634556,18.786 L19.250556,18.786 C19.3998893,18.786 19.528806,18.8046667 19.637306,18.842 C19.745806,18.8793333 19.8356393,18.9324167 19.906806,19.00125 C19.9779727,19.0700833 20.031056,19.1523333 20.066056,19.248 C20.101056,19.3436667 20.118556,19.4498333 20.118556,19.5665 C20.118556,19.8301667 20.0508893,20.0355 19.915556,20.1825 C19.7802227,20.3295 19.558556,20.403 19.250556,20.403 L19.250556,20.403 Z M24.989445,23 L24.989445,22.055 L23.099445,22.055 L23.099445,17.9005 L21.916445,17.9005 L21.916445,23 L24.989445,23 Z M26.843334,23 L26.843334,17.9005 L25.653334,17.9005 L25.653334,23 L26.843334,23 Z M30.055223,23 L30.055223,18.8385 L31.490223,18.8385 L31.490223,17.9005 L27.437223,17.9005 L27.437223,18.8385 L28.872223,18.8385 L28.872223,23 L30.055223,23 Z" id="CHSPLIT" fill="#B4B4B4"></path>
                <path d="M9.867,31 C10.2636667,31 10.62475,30.9364167 10.95025,30.80925 C11.27575,30.6820833 11.554,30.50475 11.785,30.27725 C12.016,30.04975 12.1950833,29.78025 12.32225,29.46875 C12.4494167,29.15725 12.513,28.8171667 12.513,28.4485 C12.513,28.0821667 12.4494167,27.74325 12.32225,27.43175 C12.1950833,27.12025 12.016,26.8513333 11.785,26.625 C11.554,26.3986667 11.27575,26.2213333 10.95025,26.093 C10.62475,25.9646667 10.2636667,25.9005 9.867,25.9005 L9.867,25.9005 L7.886,25.9005 L7.886,31 L9.867,31 Z M9.867,30.09 L9.076,30.09 L9.076,26.8105 L9.867,26.8105 C10.0933333,26.8105 10.2951667,26.8484167 10.4725,26.92425 C10.6498333,27.0000833 10.79975,27.1085833 10.92225,27.24975 C11.04475,27.3909167 11.1386667,27.563 11.204,27.766 C11.2693333,27.969 11.302,28.1965 11.302,28.4485 C11.302,28.7028333 11.2693333,28.9315 11.204,29.1345 C11.1386667,29.3375 11.04475,29.5095833 10.92225,29.65075 C10.79975,29.7919167 10.6498333,29.9004167 10.4725,29.97625 C10.2951667,30.0520833 10.0933333,30.09 9.867,30.09 L9.867,30.09 Z M15.201,31.056 C15.5393333,31.056 15.8438333,31.0035 16.1145,30.8985 C16.3851667,30.7935 16.615,30.6465 16.804,30.4575 C16.993,30.2685 17.13825,30.0433333 17.23975,29.782 C17.34125,29.5206667 17.392,29.2336667 17.392,28.921 L17.392,28.921 L17.392,25.9005 L16.209,25.9005 L16.209,28.921 C16.209,29.1006667 16.18625,29.2610833 16.14075,29.40225 C16.09525,29.5434167 16.0293333,29.663 15.943,29.761 C15.8566667,29.859 15.7510833,29.93425 15.62625,29.98675 C15.5014167,30.03925 15.3596667,30.0655 15.201,30.0655 C15.0423333,30.0655 14.9005833,30.03925 14.77575,29.98675 C14.6509167,29.93425 14.5453333,29.8584167 14.459,29.75925 C14.3726667,29.6600833 14.30675,29.5399167 14.26125,29.39875 C14.21575,29.2575833 14.193,29.0971667 14.193,28.9175 L14.193,28.9175 L14.193,25.9005 L13.01,25.9005 L13.01,28.921 C13.01,29.2336667 13.0601667,29.5206667 13.1605,29.782 C13.2608333,30.0433333 13.4055,30.2685 13.5945,30.4575 C13.7835,30.6465 14.0133333,30.7935 14.284,30.8985 C14.5546667,31.0035 14.8603333,31.056 15.201,31.056 Z M18.673,31 C18.771,31 18.8538333,30.97375 18.9215,30.92125 C18.9891667,30.86875 19.0346667,30.8098333 19.058,30.7445 L19.058,30.7445 L19.359,29.8555 L21.298,29.8555 L21.599,30.7445 C21.6246667,30.8191667 21.67075,30.8804167 21.73725,30.92825 C21.80375,30.9760833 21.8883333,31 21.991,31 L21.991,31 L22.908,31 L20.934,25.9005 L19.723,25.9005 L17.749,31 L18.673,31 Z M21.025,29.0505 L19.632,29.0505 L20.101,27.661 C20.136,27.5723333 20.1733333,27.4673333 20.213,27.346 C20.2526667,27.2246667 20.2911667,27.0928333 20.3285,26.9505 C20.3681667,27.0905 20.4084167,27.2205833 20.44925,27.34075 C20.4900833,27.4609167 20.5256667,27.5653333 20.556,27.654 L20.556,27.654 L21.025,29.0505 Z M26.394,31 L26.394,30.055 L24.504,30.055 L24.504,25.9005 L23.321,25.9005 L23.321,31 L26.394,31 Z" id="DUAL" fill="#252525"></path>
            </g>
        </g>
    </g>
</svg>