<svg width="48" height="56" viewBox="0 0 48 56" fill="none" xmlns="http://www.w3.org/2000/svg">
<path d="M9 20C12.0376 20 14.5 17.3137 14.5 14C14.5 10.6863 12.0376 8 9 8C5.96243 8 3.5 10.6863 3.5 14C3.5 17.3137 5.96243 20 9 20Z" fill="url(#paint0_linear)"/>
<path d="M9 17C12.0376 17 14.5 14.5376 14.5 11.5C14.5 8.46243 12.0376 6 9 6C5.96243 6 3.5 8.46243 3.5 11.5C3.5 14.5376 5.96243 17 9 17Z" fill="url(#paint1_linear)"/>
<path opacity="0.5" d="M10 11.25L8 11.25C7.72386 11.25 7.5 11.4739 7.5 11.75C7.5 12.0261 7.72386 12.25 8 12.25L10 12.25C10.2761 12.25 10.5 12.0261 10.5 11.75C10.5 11.4739 10.2761 11.25 10 11.25Z" fill="#EEEEEE"/>
<path d="M10 11L8 11C7.72386 11 7.5 11.2239 7.5 11.5C7.5 11.7761 7.72386 12 8 12L10 12C10.2761 12 10.5 11.7761 10.5 11.5C10.5 11.2239 10.2761 11 10 11Z" fill="#1F1F1F"/>
<path d="M33 20C36.0376 20 38.5 17.3137 38.5 14C38.5 10.6863 36.0376 8 33 8C29.9624 8 27.5 10.6863 27.5 14C27.5 17.3137 29.9624 20 33 20Z" fill="url(#paint2_linear)"/>
<path d="M33 17C36.0376 17 38.5 14.5376 38.5 11.5C38.5 8.46243 36.0376 6 33 6C29.9624 6 27.5 8.46243 27.5 11.5C27.5 14.5376 29.9624 17 33 17Z" fill="url(#paint3_linear)"/>
<path opacity="0.5" d="M34 11.25L32 11.25C31.7239 11.25 31.5 11.4739 31.5 11.75C31.5 12.0261 31.7239 12.25 32 12.25L34 12.25C34.2761 12.25 34.5 12.0261 34.5 11.75C34.5 11.4739 34.2761 11.25 34 11.25Z" fill="#EEEEEE"/>
<path d="M34 11L32 11C31.7239 11 31.5 11.2239 31.5 11.5C31.5 11.7761 31.7239 12 32 12L34 12C34.2761 12 34.5 11.7761 34.5 11.5C34.5 11.2239 34.2761 11 34 11Z" fill="#1F1F1F"/>
<path d="M9 48C12.0376 48 14.5 45.3137 14.5 42C14.5 38.6863 12.0376 36 9 36C5.96243 36 3.5 38.6863 3.5 42C3.5 45.3137 5.96243 48 9 48Z" fill="url(#paint4_linear)"/>
<path d="M9 45C12.0376 45 14.5 42.5376 14.5 39.5C14.5 36.4624 12.0376 34 9 34C5.96243 34 3.5 36.4624 3.5 39.5C3.5 42.5376 5.96243 45 9 45Z" fill="url(#paint5_linear)"/>
<path opacity="0.5" d="M10 39.25L8 39.25C7.72386 39.25 7.5 39.4739 7.5 39.75C7.5 40.0261 7.72386 40.25 8 40.25L10 40.25C10.2761 40.25 10.5 40.0261 10.5 39.75C10.5 39.4739 10.2761 39.25 10 39.25Z" fill="#EEEEEE"/>
<path d="M10 39L8 39C7.72386 39 7.5 39.2239 7.5 39.5C7.5 39.7761 7.72386 40 8 40L10 40C10.2761 40 10.5 39.7761 10.5 39.5C10.5 39.2239 10.2761 39 10 39Z" fill="#1F1F1F"/>
<path d="M33 48C36.0376 48 38.5 45.3137 38.5 42C38.5 38.6863 36.0376 36 33 36C29.9624 36 27.5 38.6863 27.5 42C27.5 45.3137 29.9624 48 33 48Z" fill="url(#paint6_linear)"/>
<path d="M33 45C36.0376 45 38.5 42.5376 38.5 39.5C38.5 36.4624 36.0376 34 33 34C29.9624 34 27.5 36.4624 27.5 39.5C27.5 42.5376 29.9624 45 33 45Z" fill="url(#paint7_linear)"/>
<path opacity="0.5" d="M34 39.25L32 39.25C31.7239 39.25 31.5 39.4739 31.5 39.75C31.5 40.0261 31.7239 40.25 32 40.25L34 40.25C34.2761 40.25 34.5 40.0261 34.5 39.75C34.5 39.4739 34.2761 39.25 34 39.25Z" fill="#EEEEEE"/>
<path d="M34 39L32 39C31.7239 39 31.5 39.2239 31.5 39.5C31.5 39.7761 31.7239 40 32 40L34 40C34.2761 40 34.5 39.7761 34.5 39.5C34.5 39.2239 34.2761 39 34 39Z" fill="#1F1F1F"/>
<defs>
<linearGradient id="paint0_linear" x1="9" y1="14" x2="9" y2="20" gradientUnits="userSpaceOnUse">
<stop offset="0.520833"/>
<stop offset="1" stop-opacity="0"/>
</linearGradient>
<linearGradient id="paint1_linear" x1="9" y1="6" x2="9" y2="17" gradientUnits="userSpaceOnUse">
<stop stop-color="#FFBF00"/>
<stop offset="1" stop-color="#FF9000"/>
</linearGradient>
<linearGradient id="paint2_linear" x1="33" y1="14" x2="33" y2="20" gradientUnits="userSpaceOnUse">
<stop offset="0.520833"/>
<stop offset="1" stop-opacity="0"/>
</linearGradient>
<linearGradient id="paint3_linear" x1="33" y1="6" x2="33" y2="17" gradientUnits="userSpaceOnUse">
<stop stop-color="#8BCC56"/>
<stop offset="1" stop-color="#71A646"/>
</linearGradient>
<linearGradient id="paint4_linear" x1="9" y1="42" x2="9" y2="48" gradientUnits="userSpaceOnUse">
<stop offset="0.520833"/>
<stop offset="1" stop-opacity="0"/>
</linearGradient>
<linearGradient id="paint5_linear" x1="9" y1="34" x2="9" y2="45" gradientUnits="userSpaceOnUse">
<stop stop-color="#FFBF00"/>
<stop offset="1" stop-color="#FF9000"/>
</linearGradient>
<linearGradient id="paint6_linear" x1="33" y1="42" x2="33" y2="48" gradientUnits="userSpaceOnUse">
<stop offset="0.520833"/>
<stop offset="1" stop-opacity="0"/>
</linearGradient>
<linearGradient id="paint7_linear" x1="33" y1="34" x2="33" y2="45" gradientUnits="userSpaceOnUse">
<stop stop-color="#8BCC56"/>
<stop offset="1" stop-color="#71A646"/>
</linearGradient>
</defs>
</svg>
