<svg width="13" height="36" viewBox="0 0 13 36" fill="none" xmlns="http://www.w3.org/2000/svg">
<path d="M1.5 3.5C1.5 2.39543 2.39543 1.5 3.5 1.5H8.5C9.60457 1.5 10.5 2.39543 10.5 3.5V11.5C10.5 12.6046 9.60457 13.5 8.5 13.5H3.5C2.39543 13.5 1.5 12.6046 1.5 11.5V3.5Z" fill="#242424"/>
<path d="M3.5 2H8.5V1H3.5V2ZM10 3.5V11.5H11V3.5H10ZM8.5 13H3.5V14H8.5V13ZM2 11.5V3.5H1V11.5H2ZM3.5 13C2.67157 13 2 12.3284 2 11.5H1C1 12.8807 2.11929 14 3.5 14V13ZM10 11.5C10 12.3284 9.32843 13 8.5 13V14C9.88071 14 11 12.8807 11 11.5H10ZM8.5 2C9.32843 2 10 2.67157 10 3.5H11C11 2.11929 9.88071 1 8.5 1V2ZM3.5 1C2.11929 1 1 2.11929 1 3.5H2C2 2.67157 2.67157 2 3.5 2V1Z" fill="black"/>
<path fill-rule="evenodd" clip-rule="evenodd" d="M8.22361 7.05527L6.88941 8.38942C6.52089 8.75798 5.92382 8.75798 5.55527 8.38942L5.11058 7.94467L5.55527 7.50002L6.00001 7.94467C6.12285 8.06727 6.32216 8.06752 6.44476 7.94467L7.77886 6.61057C7.90141 6.48787 7.90141 6.2884 7.77886 6.16567L7.33416 5.72098C7.21156 5.59846 7.01202 5.59846 6.88941 5.72098L6.41311 6.19736C6.1923 6.06741 5.94134 6.01167 5.69289 6.02841L6.44476 5.27628C6.81327 4.90791 7.41062 4.90791 7.77886 5.27628L8.22361 5.72098C8.59213 6.08937 8.59213 6.6869 8.22361 7.05527ZM5.58659 8.80286L5.11056 9.27886C4.98772 9.40171 4.78841 9.40141 4.66586 9.27886L4.22113 8.83416C4.09829 8.71157 4.09829 8.51226 4.22113 8.38941L5.55526 7.05527C5.67782 6.93275 5.87746 6.93275 5.99998 7.05527L6.44473 7.50002L6.88938 7.05527L6.44473 6.61057C6.07616 6.2422 5.4791 6.2422 5.11057 6.61057L3.77641 7.94467C3.40786 8.31329 3.40786 8.91065 3.77641 9.27886L4.22113 9.72357C4.58938 10.0921 5.18672 10.0921 5.55526 9.72357L6.30708 8.97171C6.05863 8.98828 5.80833 8.93247 5.58659 8.80286Z" fill="#B4B4B4"/>
<path d="M1.5 21.5C1.5 20.3954 2.39543 19.5 3.5 19.5H8.5C9.60457 19.5 10.5 20.3954 10.5 21.5V29.5C10.5 30.6046 9.60457 31.5 8.5 31.5H3.5C2.39543 31.5 1.5 30.6046 1.5 29.5V21.5Z" fill="#242424"/>
<rect x="3.5" y="21.5" width="5" height="8" rx="0.5" fill="#FF9300"/>
<rect x="3.5" y="21.5" width="5" height="8" rx="0.5" stroke="#FF9300"/>
<path d="M3.5 20H8.5V19H3.5V20ZM10 21.5V29.5H11V21.5H10ZM8.5 31H3.5V32H8.5V31ZM2 29.5V21.5H1V29.5H2ZM3.5 31C2.67157 31 2 30.3284 2 29.5H1C1 30.8807 2.11929 32 3.5 32V31ZM10 29.5C10 30.3284 9.32843 31 8.5 31V32C9.88071 32 11 30.8807 11 29.5H10ZM8.5 20C9.32843 20 10 20.6716 10 21.5H11C11 20.1193 9.88071 19 8.5 19V20ZM3.5 19C2.11929 19 1 20.1193 1 21.5H2C2 20.6716 2.67157 20 3.5 20V19Z" fill="black"/>
<path fill-rule="evenodd" clip-rule="evenodd" d="M8.22361 25.0553L6.88941 26.3894C6.52089 26.758 5.92382 26.758 5.55527 26.3894L5.11058 25.9447L5.55527 25.5L6.00001 25.9447C6.12285 26.0673 6.32216 26.0675 6.44476 25.9447L7.77886 24.6106C7.90141 24.4879 7.90141 24.2884 7.77886 24.1657L7.33416 23.721C7.21156 23.5985 7.01202 23.5985 6.88941 23.721L6.41311 24.1974C6.1923 24.0674 5.94134 24.0117 5.69289 24.0284L6.44476 23.2763C6.81327 22.9079 7.41062 22.9079 7.77886 23.2763L8.22361 23.721C8.59213 24.0894 8.59213 24.6869 8.22361 25.0553ZM5.58659 26.8029L5.11056 27.2789C4.98772 27.4017 4.78841 27.4014 4.66586 27.2789L4.22113 26.8342C4.09829 26.7116 4.09829 26.5123 4.22113 26.3894L5.55526 25.0553C5.67782 24.9327 5.87746 24.9327 5.99998 25.0553L6.44473 25.5L6.88938 25.0553L6.44473 24.6106C6.07616 24.2422 5.4791 24.2422 5.11057 24.6106L3.77641 25.9447C3.40786 26.3133 3.40786 26.9106 3.77641 27.2789L4.22113 27.7236C4.58938 28.0921 5.18672 28.0921 5.55526 27.7236L6.30708 26.9717C6.05863 26.9883 5.80833 26.9325 5.58659 26.8029Z" fill="black"/>
</svg>
