<?xml version="1.0" encoding="UTF-8"?>
<svg width="450px" height="182px" viewBox="0 0 450 182" version="1.1" xmlns="http://www.w3.org/2000/svg" xmlns:xlink="http://www.w3.org/1999/xlink">
    <title>bmp00163</title>
    <defs>
        <rect id="path-1" x="96" y="31" width="340" height="21"></rect>
        <filter x="-0.1%" y="-1.2%" width="100.1%" height="104.8%" filterUnits="objectBoundingBox" id="filter-2">
            <feOffset dx="0" dy="0.5" in="SourceAlpha" result="shadowOffsetOuter1"></feOffset>
            <feComposite in="shadowOffsetOuter1" in2="SourceAlpha" operator="out" result="shadowOffsetOuter1"></feComposite>
            <feColorMatrix values="0 0 0 0 1   0 0 0 0 1   0 0 0 0 1  0 0 0 0.05 0" type="matrix" in="shadowOffsetOuter1"></feColorMatrix>
        </filter>
        <rect id="path-3" x="96" y="58" width="340" height="21"></rect>
        <filter x="-0.1%" y="-1.2%" width="100.1%" height="104.8%" filterUnits="objectBoundingBox" id="filter-4">
            <feOffset dx="0" dy="0.5" in="SourceAlpha" result="shadowOffsetOuter1"></feOffset>
            <feComposite in="shadowOffsetOuter1" in2="SourceAlpha" operator="out" result="shadowOffsetOuter1"></feComposite>
            <feColorMatrix values="0 0 0 0 1   0 0 0 0 1   0 0 0 0 1  0 0 0 0.05 0" type="matrix" in="shadowOffsetOuter1"></feColorMatrix>
        </filter>
        <rect id="path-5" x="96" y="85" width="340" height="21"></rect>
        <filter x="-0.1%" y="-1.2%" width="100.1%" height="104.8%" filterUnits="objectBoundingBox" id="filter-6">
            <feOffset dx="0" dy="0.5" in="SourceAlpha" result="shadowOffsetOuter1"></feOffset>
            <feComposite in="shadowOffsetOuter1" in2="SourceAlpha" operator="out" result="shadowOffsetOuter1"></feComposite>
            <feColorMatrix values="0 0 0 0 1   0 0 0 0 1   0 0 0 0 1  0 0 0 0.05 0" type="matrix" in="shadowOffsetOuter1"></feColorMatrix>
        </filter>
        <rect id="path-7" x="96" y="112" width="340" height="21"></rect>
        <filter x="-0.1%" y="-1.2%" width="100.1%" height="104.8%" filterUnits="objectBoundingBox" id="filter-8">
            <feOffset dx="0" dy="0.5" in="SourceAlpha" result="shadowOffsetOuter1"></feOffset>
            <feComposite in="shadowOffsetOuter1" in2="SourceAlpha" operator="out" result="shadowOffsetOuter1"></feComposite>
            <feColorMatrix values="0 0 0 0 1   0 0 0 0 1   0 0 0 0 1  0 0 0 0.05 0" type="matrix" in="shadowOffsetOuter1"></feColorMatrix>
        </filter>
        <linearGradient x1="50%" y1="0%" x2="50%" y2="100%" id="linearGradient-9">
            <stop stop-color="#484848" offset="0%"></stop>
            <stop stop-color="#353535" offset="100%"></stop>
        </linearGradient>
    </defs>
    <g id="bmp00163" stroke="none" stroke-width="1" fill="none" fill-rule="evenodd">
        <g id="button/smallButton" transform="translate(9.000000, 4.000000)" fill="#242424" stroke="#0F0F0F">
            <rect id="Rectangle" x="0.5" y="0.5" width="433" height="165" rx="2"></rect>
        </g>
        <g id="Rectangle">
            <use fill="black" fill-opacity="1" filter="url(#filter-2)" xlink:href="#path-1"></use>
            <rect stroke="#0F0F0F" stroke-width="1" stroke-linejoin="square" fill="#2E2E2E" fill-rule="evenodd" x="96.5" y="31.5" width="339" height="20"></rect>
        </g>
        <g id="Rectangle">
            <use fill="black" fill-opacity="1" filter="url(#filter-4)" xlink:href="#path-3"></use>
            <rect stroke="#0F0F0F" stroke-width="1" stroke-linejoin="square" fill="#2E2E2E" fill-rule="evenodd" x="96.5" y="58.5" width="339" height="20"></rect>
        </g>
        <g id="Rectangle">
            <use fill="black" fill-opacity="1" filter="url(#filter-6)" xlink:href="#path-5"></use>
            <rect stroke="#0F0F0F" stroke-width="1" stroke-linejoin="square" fill="#2E2E2E" fill-rule="evenodd" x="96.5" y="85.5" width="339" height="20"></rect>
        </g>
        <g id="Rectangle">
            <use fill="black" fill-opacity="1" filter="url(#filter-8)" xlink:href="#path-7"></use>
            <rect stroke="#0F0F0F" stroke-width="1" stroke-linejoin="square" fill="#2E2E2E" fill-rule="evenodd" x="96.5" y="112.5" width="339" height="20"></rect>
        </g>
        <rect id="Rectangle" stroke="#0F0F0F" fill="url(#linearGradient-9)" x="305.5" y="139.5" width="61" height="24" rx="2"></rect>
        <rect id="Rectangle" stroke="#0F0F0F" fill="url(#linearGradient-9)" x="373.5" y="139.5" width="61" height="24" rx="2"></rect>
        <g id="Group-Copy" transform="translate(34.000000, 11.000000)" fill="#B4B4B4" fill-rule="nonzero">
            <path d="M23.298,35 L23.298,29.672 C23.298,29.568 23.295,29.453 23.289,29.327 C23.283,29.201 23.274,29.074 23.262,28.946 L23.262,28.946 L27.798,34.724 C27.878,34.828 27.96,34.9 28.044,34.94 C28.128,34.98 28.234,35 28.362,35 L28.362,35 L29.196,35 L29.196,26.324 L27.774,26.324 L27.774,31.598 C27.774,31.714 27.777,31.839 27.783,31.973 C27.789,32.107 27.8,32.244 27.816,32.384 L27.816,32.384 L23.262,26.582 C23.218,26.526 23.178,26.481 23.142,26.447 C23.106,26.413 23.069,26.387 23.031,26.369 C22.993,26.351 22.95,26.339 22.902,26.333 C22.854,26.327 22.794,26.324 22.722,26.324 L22.722,26.324 L21.876,26.324 L21.876,35 L23.298,35 Z M32.296,35.096 C32.516,35.096 32.716,35.078 32.896,35.042 C33.076,35.006 33.246,34.952 33.406,34.88 C33.566,34.808 33.721,34.719 33.871,34.613 C34.021,34.507 34.174,34.384 34.33,34.244 L34.33,34.244 L34.462,34.682 C34.502,34.81 34.562,34.895 34.642,34.937 C34.722,34.979 34.832,35 34.972,35 L34.972,35 L35.638,35 L35.638,31.112 C35.638,30.764 35.587,30.444 35.485,30.152 C35.383,29.86 35.234,29.609 35.038,29.399 C34.842,29.189 34.603,29.025 34.321,28.907 C34.039,28.789 33.718,28.73 33.358,28.73 C32.358,28.73 31.504,29.054 30.796,29.702 L30.796,29.702 L31.066,30.176 C31.11,30.252 31.168,30.316 31.24,30.368 C31.312,30.42 31.398,30.446 31.498,30.446 C31.618,30.446 31.728,30.418 31.828,30.362 C31.928,30.306 32.037,30.243 32.155,30.173 C32.273,30.103 32.412,30.04 32.572,29.984 C32.732,29.928 32.932,29.9 33.172,29.9 C33.504,29.9 33.757,29.999 33.931,30.197 C34.105,30.395 34.192,30.7 34.192,31.112 L34.192,31.112 L34.192,31.472 C33.492,31.488 32.906,31.556 32.434,31.676 C31.962,31.796 31.584,31.947 31.3,32.129 C31.016,32.311 30.813,32.515 30.691,32.741 C30.569,32.967 30.508,33.196 30.508,33.428 C30.508,33.704 30.552,33.946 30.64,34.154 C30.728,34.362 30.851,34.536 31.009,34.676 C31.167,34.816 31.356,34.921 31.576,34.991 C31.796,35.061 32.036,35.096 32.296,35.096 Z M32.758,34.076 C32.51,34.076 32.309,34.02 32.155,33.908 C32.001,33.796 31.924,33.61 31.924,33.35 C31.924,33.218 31.961,33.096 32.035,32.984 C32.109,32.872 32.234,32.774 32.41,32.69 C32.586,32.606 32.819,32.537 33.109,32.483 C33.399,32.429 33.76,32.392 34.192,32.372 L34.192,32.372 L34.192,33.41 C34.084,33.522 33.977,33.619 33.871,33.701 C33.765,33.783 33.655,33.852 33.541,33.908 C33.427,33.964 33.306,34.006 33.178,34.034 C33.05,34.062 32.91,34.076 32.758,34.076 Z M38.528,35 L38.528,30.494 C38.688,30.31 38.861,30.165 39.047,30.059 C39.233,29.953 39.432,29.9 39.644,29.9 C39.968,29.9 40.213,29.994 40.379,30.182 C40.545,30.37 40.628,30.67 40.628,31.082 L40.628,31.082 L40.628,35 L42.116,35 L42.116,31.082 C42.116,30.89 42.144,30.72 42.2,30.572 C42.256,30.424 42.333,30.301 42.431,30.203 C42.529,30.105 42.643,30.03 42.773,29.978 C42.903,29.926 43.044,29.9 43.196,29.9 C43.528,29.9 43.78,29.999 43.952,30.197 C44.124,30.395 44.21,30.69 44.21,31.082 L44.21,31.082 L44.21,35 L45.692,35 L45.692,31.082 C45.692,30.71 45.645,30.38 45.551,30.092 C45.457,29.804 45.32,29.56 45.14,29.36 C44.96,29.16 44.738,29.008 44.474,28.904 C44.21,28.8 43.908,28.748 43.568,28.748 C43.372,28.748 43.177,28.77 42.983,28.814 C42.789,28.858 42.606,28.926 42.434,29.018 C42.262,29.11 42.104,29.229 41.96,29.375 C41.816,29.521 41.696,29.696 41.6,29.9 C41.476,29.552 41.289,29.273 41.039,29.063 C40.789,28.853 40.47,28.748 40.082,28.748 C39.898,28.748 39.729,28.769 39.575,28.811 C39.421,28.853 39.277,28.91 39.143,28.982 C39.009,29.054 38.883,29.14 38.765,29.24 C38.647,29.34 38.534,29.45 38.426,29.57 L38.426,29.57 L38.33,29.114 C38.27,28.934 38.144,28.844 37.952,28.844 L37.952,28.844 L37.046,28.844 L37.046,35 L38.528,35 Z M49.716,35.09 C49.932,35.09 50.155,35.074 50.385,35.042 C50.615,35.01 50.841,34.955 51.063,34.877 C51.285,34.799 51.498,34.695 51.702,34.565 C51.906,34.435 52.09,34.274 52.254,34.082 L52.254,34.082 L51.822,33.542 C51.79,33.498 51.752,33.464 51.708,33.44 C51.664,33.416 51.612,33.404 51.552,33.404 C51.46,33.404 51.365,33.432 51.267,33.488 C51.169,33.544 51.055,33.606 50.925,33.674 C50.795,33.742 50.643,33.804 50.469,33.86 C50.295,33.916 50.088,33.944 49.848,33.944 C49.36,33.944 48.968,33.796 48.672,33.5 C48.376,33.204 48.206,32.74 48.162,32.108 L48.162,32.108 L51.966,32.108 C52.034,32.108 52.09,32.099 52.134,32.081 C52.178,32.063 52.213,32.033 52.239,31.991 C52.265,31.949 52.283,31.891 52.293,31.817 C52.303,31.743 52.308,31.65 52.308,31.538 C52.308,31.094 52.242,30.699 52.11,30.353 C51.978,30.007 51.794,29.715 51.558,29.477 C51.322,29.239 51.041,29.058 50.715,28.934 C50.389,28.81 50.032,28.748 49.644,28.748 C49.184,28.748 48.771,28.828 48.405,28.988 C48.039,29.148 47.729,29.365 47.475,29.639 C47.221,29.913 47.026,30.235 46.89,30.605 C46.754,30.975 46.686,31.37 46.686,31.79 C46.686,32.33 46.764,32.805 46.92,33.215 C47.076,33.625 47.29,33.969 47.562,34.247 C47.834,34.525 48.154,34.735 48.522,34.877 C48.89,35.019 49.288,35.09 49.716,35.09 Z M50.976,31.214 L48.192,31.214 C48.26,30.766 48.416,30.42 48.66,30.176 C48.904,29.932 49.242,29.81 49.674,29.81 C49.894,29.81 50.086,29.847 50.25,29.921 C50.414,29.995 50.55,30.096 50.658,30.224 C50.766,30.352 50.846,30.501 50.898,30.671 C50.95,30.841 50.976,31.022 50.976,31.214 L50.976,31.214 Z" id="Name"></path>
            <path d="M8.23200001,61.096 C8.95200001,61.096 9.56900001,60.98 10.083,60.748 C10.597,60.516 11.03,60.182 11.382,59.746 L11.382,59.746 L10.746,59.056 C10.682,58.988 10.606,58.954 10.518,58.954 C10.466,58.954 10.418,58.965 10.374,58.987 C10.33,59.009 10.288,59.038 10.248,59.074 C10.116,59.194 9.98300001,59.295 9.84900001,59.377 C9.71500001,59.459 9.57300001,59.526 9.42300001,59.578 C9.27300001,59.63 9.10900001,59.668 8.93100001,59.692 C8.75300001,59.716 8.55400001,59.728 8.33400001,59.728 C7.96600001,59.728 7.62200001,59.659 7.30200001,59.521 C6.98200001,59.383 6.70400001,59.184 6.46800001,58.924 C6.23200001,58.664 6.04500001,58.344 5.90700001,57.964 C5.76900001,57.584 5.70000001,57.15 5.70000001,56.662 C5.70000001,56.19 5.76900001,55.765 5.90700001,55.387 C6.04500001,55.009 6.23700001,54.688 6.48300001,54.424 C6.72900001,54.16 7.02300001,53.957 7.36500001,53.815 C7.70700001,53.673 8.08200001,53.602 8.49000001,53.602 C8.83800001,53.602 9.12500001,53.638 9.35100001,53.71 C9.57700001,53.782 9.76400001,53.86 9.91200001,53.944 C10.06,54.028 10.182,54.106 10.278,54.178 C10.374,54.25 10.468,54.286 10.56,54.286 C10.648,54.286 10.717,54.268 10.767,54.232 C10.817,54.196 10.858,54.154 10.89,54.106 L10.89,54.106 L11.43,53.356 C11.086,53.016 10.673,52.743 10.191,52.537 C9.70900001,52.331 9.14600001,52.228 8.50200001,52.228 C7.84200001,52.228 7.23900001,52.337 6.69300001,52.555 C6.14700001,52.773 5.67800001,53.078 5.28600001,53.47 C4.89400001,53.862 4.59000001,54.329 4.37400001,54.871 C4.15800001,55.413 4.05000001,56.01 4.05000001,56.662 C4.05000001,57.306 4.14700001,57.9 4.34100001,58.444 C4.53500001,58.988 4.81400001,59.456 5.17800001,59.848 C5.54200001,60.24 5.98100001,60.546 6.49500001,60.766 C7.00900001,60.986 7.58800001,61.096 8.23200001,61.096 Z M13.948,61.096 C14.168,61.096 14.368,61.078 14.548,61.042 C14.728,61.006 14.898,60.952 15.058,60.88 C15.218,60.808 15.373,60.719 15.523,60.613 C15.673,60.507 15.826,60.384 15.982,60.244 L15.982,60.244 L16.114,60.682 C16.154,60.81 16.214,60.895 16.294,60.937 C16.374,60.979 16.484,61 16.624,61 L16.624,61 L17.29,61 L17.29,57.112 C17.29,56.764 17.239,56.444 17.137,56.152 C17.035,55.86 16.886,55.609 16.69,55.399 C16.494,55.189 16.255,55.025 15.973,54.907 C15.691,54.789 15.37,54.73 15.01,54.73 C14.01,54.73 13.156,55.054 12.448,55.702 L12.448,55.702 L12.718,56.176 C12.762,56.252 12.82,56.316 12.892,56.368 C12.964,56.42 13.05,56.446 13.15,56.446 C13.27,56.446 13.38,56.418 13.48,56.362 C13.58,56.306 13.689,56.243 13.807,56.173 C13.925,56.103 14.064,56.04 14.224,55.984 C14.384,55.928 14.584,55.9 14.824,55.9 C15.156,55.9 15.409,55.999 15.583,56.197 C15.757,56.395 15.844,56.7 15.844,57.112 L15.844,57.112 L15.844,57.472 C15.144,57.488 14.558,57.556 14.086,57.676 C13.614,57.796 13.236,57.947 12.952,58.129 C12.668,58.311 12.465,58.515 12.343,58.741 C12.221,58.967 12.16,59.196 12.16,59.428 C12.16,59.704 12.204,59.946 12.292,60.154 C12.38,60.362 12.503,60.536 12.661,60.676 C12.819,60.816 13.008,60.921 13.228,60.991 C13.448,61.061 13.688,61.096 13.948,61.096 Z M14.41,60.076 C14.162,60.076 13.961,60.02 13.807,59.908 C13.653,59.796 13.576,59.61 13.576,59.35 C13.576,59.218 13.613,59.096 13.687,58.984 C13.761,58.872 13.886,58.774 14.062,58.69 C14.238,58.606 14.471,58.537 14.761,58.483 C15.051,58.429 15.412,58.392 15.844,58.372 L15.844,58.372 L15.844,59.41 C15.736,59.522 15.629,59.619 15.523,59.701 C15.417,59.783 15.307,59.852 15.193,59.908 C15.079,59.964 14.958,60.006 14.83,60.034 C14.702,60.062 14.562,60.076 14.41,60.076 Z M20.72,61.096 C21.02,61.096 21.31,61.05 21.59,60.958 C21.87,60.866 22.118,60.73 22.334,60.55 L22.334,60.55 L21.89,59.83 C21.858,59.786 21.828,59.753 21.8,59.731 C21.772,59.709 21.736,59.698 21.692,59.698 C21.656,59.698 21.62,59.709 21.584,59.731 C21.548,59.753 21.507,59.776 21.461,59.8 C21.415,59.824 21.361,59.847 21.299,59.869 C21.237,59.891 21.16,59.902 21.068,59.902 C20.908,59.902 20.78,59.848 20.684,59.74 C20.588,59.632 20.54,59.482 20.54,59.29 L20.54,59.29 L20.54,55.954 L22.16,55.954 L22.16,54.898 L20.54,54.898 L20.54,52.96 L19.772,52.96 C19.684,52.96 19.611,52.982 19.553,53.026 C19.495,53.07 19.458,53.132 19.442,53.212 L19.442,53.212 L19.13,54.892 L18.14,55.054 L18.14,55.642 C18.14,55.746 18.169,55.824 18.227,55.876 C18.285,55.928 18.354,55.954 18.434,55.954 L18.434,55.954 L19.058,55.954 L19.058,59.392 C19.058,59.924 19.202,60.341 19.49,60.643 C19.778,60.945 20.188,61.096 20.72,61.096 Z M25.908,61.09 C26.124,61.09 26.347,61.074 26.577,61.042 C26.807,61.01 27.033,60.955 27.255,60.877 C27.477,60.799 27.69,60.695 27.894,60.565 C28.098,60.435 28.282,60.274 28.446,60.082 L28.446,60.082 L28.014,59.542 C27.982,59.498 27.944,59.464 27.9,59.44 C27.856,59.416 27.804,59.404 27.744,59.404 C27.652,59.404 27.557,59.432 27.459,59.488 C27.361,59.544 27.247,59.606 27.117,59.674 C26.987,59.742 26.835,59.804 26.661,59.86 C26.487,59.916 26.28,59.944 26.04,59.944 C25.552,59.944 25.16,59.796 24.864,59.5 C24.568,59.204 24.398,58.74 24.354,58.108 L24.354,58.108 L28.158,58.108 C28.226,58.108 28.282,58.099 28.326,58.081 C28.37,58.063 28.405,58.033 28.431,57.991 C28.457,57.949 28.475,57.891 28.485,57.817 C28.495,57.743 28.5,57.65 28.5,57.538 C28.5,57.094 28.434,56.699 28.302,56.353 C28.17,56.007 27.986,55.715 27.75,55.477 C27.514,55.239 27.233,55.058 26.907,54.934 C26.581,54.81 26.224,54.748 25.836,54.748 C25.376,54.748 24.963,54.828 24.597,54.988 C24.231,55.148 23.921,55.365 23.667,55.639 C23.413,55.913 23.218,56.235 23.082,56.605 C22.946,56.975 22.878,57.37 22.878,57.79 C22.878,58.33 22.956,58.805 23.112,59.215 C23.268,59.625 23.482,59.969 23.754,60.247 C24.026,60.525 24.346,60.735 24.714,60.877 C25.082,61.019 25.48,61.09 25.908,61.09 Z M27.168,57.214 L24.384,57.214 C24.452,56.766 24.608,56.42 24.852,56.176 C25.096,55.932 25.434,55.81 25.866,55.81 C26.086,55.81 26.278,55.847 26.442,55.921 C26.606,55.995 26.742,56.096 26.85,56.224 C26.958,56.352 27.038,56.501 27.09,56.671 C27.142,56.841 27.168,57.022 27.168,57.214 L27.168,57.214 Z M31.804,63.166 C32.276,63.166 32.696,63.105 33.064,62.983 C33.432,62.861 33.743,62.7 33.997,62.5 C34.251,62.3 34.445,62.072 34.579,61.816 C34.713,61.56 34.78,61.296 34.78,61.024 C34.78,60.732 34.723,60.493 34.609,60.307 C34.495,60.121 34.345,59.974 34.159,59.866 C33.973,59.758 33.762,59.679 33.526,59.629 C33.29,59.579 33.048,59.544 32.8,59.524 C32.552,59.504 32.31,59.491 32.074,59.485 C31.838,59.479 31.627,59.464 31.441,59.44 C31.255,59.416 31.105,59.375 30.991,59.317 C30.877,59.259 30.82,59.168 30.82,59.044 C30.82,58.9 30.916,58.77 31.108,58.654 C31.328,58.698 31.554,58.72 31.786,58.72 C32.13,58.72 32.449,58.673 32.743,58.579 C33.037,58.485 33.291,58.352 33.505,58.18 C33.719,58.008 33.887,57.799 34.009,57.553 C34.131,57.307 34.192,57.032 34.192,56.728 C34.192,56.6 34.181,56.478 34.159,56.362 C34.137,56.246 34.106,56.136 34.066,56.032 L34.066,56.032 L34.618,55.93 C34.734,55.91 34.816,55.874 34.864,55.822 C34.912,55.77 34.936,55.698 34.936,55.606 L34.936,55.606 L34.936,55.054 L33.166,55.054 C32.974,54.95 32.762,54.871 32.53,54.817 C32.298,54.763 32.05,54.736 31.786,54.736 C31.434,54.736 31.109,54.782 30.811,54.874 C30.513,54.966 30.255,55.099 30.037,55.273 C29.819,55.447 29.649,55.657 29.527,55.903 C29.405,56.149 29.344,56.424 29.344,56.728 C29.344,57.104 29.433,57.432 29.611,57.712 C29.789,57.992 30.034,58.216 30.346,58.384 C30.21,58.452 30.092,58.529 29.992,58.615 C29.892,58.701 29.809,58.792 29.743,58.888 C29.677,58.984 29.628,59.081 29.596,59.179 C29.564,59.277 29.548,59.372 29.548,59.464 C29.548,59.688 29.594,59.87 29.686,60.01 C29.778,60.15 29.9,60.262 30.052,60.346 C29.74,60.462 29.496,60.618 29.32,60.814 C29.144,61.01 29.056,61.252 29.056,61.54 C29.056,61.752 29.112,61.956 29.224,62.152 C29.336,62.348 29.505,62.521 29.731,62.671 C29.957,62.821 30.242,62.941 30.586,63.031 C30.93,63.121 31.336,63.166 31.804,63.166 Z M31.786,57.772 C31.606,57.772 31.447,57.747 31.309,57.697 C31.171,57.647 31.057,57.577 30.967,57.487 C30.877,57.397 30.809,57.29 30.763,57.166 C30.717,57.042 30.694,56.908 30.694,56.764 C30.694,56.46 30.785,56.219 30.967,56.041 C31.149,55.863 31.422,55.774 31.786,55.774 C32.15,55.774 32.423,55.863 32.605,56.041 C32.787,56.219 32.878,56.46 32.878,56.764 C32.878,56.912 32.855,57.048 32.809,57.172 C32.763,57.296 32.695,57.402 32.605,57.49 C32.515,57.578 32.402,57.647 32.266,57.697 C32.13,57.747 31.97,57.772 31.786,57.772 Z M31.828,62.11 C31.556,62.11 31.326,62.091 31.138,62.053 C30.95,62.015 30.797,61.962 30.679,61.894 C30.561,61.826 30.475,61.745 30.421,61.651 C30.367,61.557 30.34,61.456 30.34,61.348 C30.34,61.184 30.391,61.039 30.493,60.913 C30.595,60.787 30.73,60.678 30.898,60.586 C31.082,60.61 31.273,60.627 31.471,60.637 C31.669,60.647 31.861,60.657 32.047,60.667 C32.233,60.677 32.409,60.692 32.575,60.712 C32.741,60.732 32.886,60.763 33.01,60.805 C33.134,60.847 33.232,60.906 33.304,60.982 C33.376,61.058 33.412,61.156 33.412,61.276 C33.412,61.396 33.382,61.507 33.322,61.609 C33.262,61.711 33.167,61.799 33.037,61.873 C32.907,61.947 32.742,62.005 32.542,62.047 C32.342,62.089 32.104,62.11 31.828,62.11 Z M38.444,61.09 C38.904,61.09 39.321,61.016 39.695,60.868 C40.069,60.72 40.388,60.508 40.652,60.232 C40.916,59.956 41.12,59.622 41.264,59.23 C41.408,58.838 41.48,58.398 41.48,57.91 C41.48,57.426 41.408,56.988 41.264,56.596 C41.12,56.204 40.916,55.872 40.652,55.6 C40.388,55.328 40.069,55.118 39.695,54.97 C39.321,54.822 38.904,54.748 38.444,54.748 C37.984,54.748 37.566,54.822 37.19,54.97 C36.814,55.118 36.493,55.328 36.227,55.6 C35.961,55.872 35.755,56.204 35.609,56.596 C35.463,56.988 35.39,57.426 35.39,57.91 C35.39,58.398 35.463,58.838 35.609,59.23 C35.755,59.622 35.961,59.956 36.227,60.232 C36.493,60.508 36.814,60.72 37.19,60.868 C37.566,61.016 37.984,61.09 38.444,61.09 Z M38.444,59.95 C37.924,59.95 37.54,59.777 37.292,59.431 C37.044,59.085 36.92,58.582 36.92,57.922 C36.92,57.262 37.044,56.757 37.292,56.407 C37.54,56.057 37.924,55.882 38.444,55.882 C38.956,55.882 39.335,56.056 39.581,56.404 C39.827,56.752 39.95,57.258 39.95,57.922 C39.95,58.586 39.827,59.09 39.581,59.434 C39.335,59.778 38.956,59.95 38.444,59.95 Z M44.07,61 L44.07,57.166 C44.222,56.838 44.408,56.589 44.628,56.419 C44.848,56.249 45.112,56.164 45.42,56.164 C45.592,56.164 45.73,56.178 45.834,56.206 C45.938,56.234 46.02,56.248 46.08,56.248 C46.148,56.248 46.202,56.233 46.242,56.203 C46.282,56.173 46.308,56.122 46.32,56.05 L46.32,56.05 L46.512,54.94 C46.312,54.8 46.06,54.73 45.756,54.73 C45.388,54.73 45.056,54.84 44.76,55.06 C44.464,55.28 44.206,55.58 43.986,55.96 L43.986,55.96 L43.896,55.216 C43.876,55.08 43.836,54.984 43.776,54.928 C43.716,54.872 43.61,54.844 43.458,54.844 L43.458,54.844 L42.588,54.844 L42.588,61 L44.07,61 Z M49.132,63.01 C49.276,63.01 49.383,62.983 49.453,62.929 C49.523,62.875 49.58,62.796 49.624,62.692 L49.624,62.692 L52.978,54.844 L51.79,54.844 C51.698,54.844 51.615,54.87 51.541,54.922 C51.467,54.974 51.414,55.04 51.382,55.12 L51.382,55.12 L50.146,58.306 C50.102,58.418 50.061,58.528 50.023,58.636 C49.985,58.744 49.95,58.856 49.918,58.972 C49.894,58.86 49.866,58.748 49.834,58.636 C49.802,58.524 49.764,58.416 49.72,58.312 L49.72,58.312 L48.406,55.12 C48.374,55.048 48.326,54.984 48.262,54.928 C48.198,54.872 48.106,54.844 47.986,54.844 L47.986,54.844 L46.69,54.844 L49.18,60.544 L48.028,63.01 L49.132,63.01 Z" id="Category"></path>
            <path d="M15.892,89.096 C16.612,89.096 17.229,88.98 17.743,88.748 C18.257,88.516 18.69,88.182 19.042,87.746 L19.042,87.746 L18.406,87.056 C18.342,86.988 18.266,86.954 18.178,86.954 C18.126,86.954 18.078,86.965 18.034,86.987 C17.99,87.009 17.948,87.038 17.908,87.074 C17.776,87.194 17.643,87.295 17.509,87.377 C17.375,87.459 17.233,87.526 17.083,87.578 C16.933,87.63 16.769,87.668 16.591,87.692 C16.413,87.716 16.214,87.728 15.994,87.728 C15.626,87.728 15.282,87.659 14.962,87.521 C14.642,87.383 14.364,87.184 14.128,86.924 C13.892,86.664 13.705,86.344 13.567,85.964 C13.429,85.584 13.36,85.15 13.36,84.662 C13.36,84.19 13.429,83.765 13.567,83.387 C13.705,83.009 13.897,82.688 14.143,82.424 C14.389,82.16 14.683,81.957 15.025,81.815 C15.367,81.673 15.742,81.602 16.15,81.602 C16.498,81.602 16.785,81.638 17.011,81.71 C17.237,81.782 17.424,81.86 17.572,81.944 C17.72,82.028 17.842,82.106 17.938,82.178 C18.034,82.25 18.128,82.286 18.22,82.286 C18.308,82.286 18.377,82.268 18.427,82.232 C18.477,82.196 18.518,82.154 18.55,82.106 L18.55,82.106 L19.09,81.356 C18.746,81.016 18.333,80.743 17.851,80.537 C17.369,80.331 16.806,80.228 16.162,80.228 C15.502,80.228 14.899,80.337 14.353,80.555 C13.807,80.773 13.338,81.078 12.946,81.47 C12.554,81.862 12.25,82.329 12.034,82.871 C11.818,83.413 11.71,84.01 11.71,84.662 C11.71,85.306 11.807,85.9 12.001,86.444 C12.195,86.988 12.474,87.456 12.838,87.848 C13.202,88.24 13.641,88.546 14.155,88.766 C14.669,88.986 15.248,89.096 15.892,89.096 Z M21.608,89 L21.608,85.166 C21.76,84.838 21.946,84.589 22.166,84.419 C22.386,84.249 22.65,84.164 22.958,84.164 C23.13,84.164 23.268,84.178 23.372,84.206 C23.476,84.234 23.558,84.248 23.618,84.248 C23.686,84.248 23.74,84.233 23.78,84.203 C23.82,84.173 23.846,84.122 23.858,84.05 L23.858,84.05 L24.05,82.94 C23.85,82.8 23.598,82.73 23.294,82.73 C22.926,82.73 22.594,82.84 22.298,83.06 C22.002,83.28 21.744,83.58 21.524,83.96 L21.524,83.96 L21.434,83.216 C21.414,83.08 21.374,82.984 21.314,82.928 C21.254,82.872 21.148,82.844 20.996,82.844 L20.996,82.844 L20.126,82.844 L20.126,89 L21.608,89 Z M27.594,89.09 C27.81,89.09 28.033,89.074 28.263,89.042 C28.493,89.01 28.719,88.955 28.941,88.877 C29.163,88.799 29.376,88.695 29.58,88.565 C29.784,88.435 29.968,88.274 30.132,88.082 L30.132,88.082 L29.7,87.542 C29.668,87.498 29.63,87.464 29.586,87.44 C29.542,87.416 29.49,87.404 29.43,87.404 C29.338,87.404 29.243,87.432 29.145,87.488 C29.047,87.544 28.933,87.606 28.803,87.674 C28.673,87.742 28.521,87.804 28.347,87.86 C28.173,87.916 27.966,87.944 27.726,87.944 C27.238,87.944 26.846,87.796 26.55,87.5 C26.254,87.204 26.084,86.74 26.04,86.108 L26.04,86.108 L29.844,86.108 C29.912,86.108 29.968,86.099 30.012,86.081 C30.056,86.063 30.091,86.033 30.117,85.991 C30.143,85.949 30.161,85.891 30.171,85.817 C30.181,85.743 30.186,85.65 30.186,85.538 C30.186,85.094 30.12,84.699 29.988,84.353 C29.856,84.007 29.672,83.715 29.436,83.477 C29.2,83.239 28.919,83.058 28.593,82.934 C28.267,82.81 27.91,82.748 27.522,82.748 C27.062,82.748 26.649,82.828 26.283,82.988 C25.917,83.148 25.607,83.365 25.353,83.639 C25.099,83.913 24.904,84.235 24.768,84.605 C24.632,84.975 24.564,85.37 24.564,85.79 C24.564,86.33 24.642,86.805 24.798,87.215 C24.954,87.625 25.168,87.969 25.44,88.247 C25.712,88.525 26.032,88.735 26.4,88.877 C26.768,89.019 27.166,89.09 27.594,89.09 Z M28.854,85.214 L26.07,85.214 C26.138,84.766 26.294,84.42 26.538,84.176 C26.782,83.932 27.12,83.81 27.552,83.81 C27.772,83.81 27.964,83.847 28.128,83.921 C28.292,83.995 28.428,84.096 28.536,84.224 C28.644,84.352 28.724,84.501 28.776,84.671 C28.828,84.841 28.854,85.022 28.854,85.214 L28.854,85.214 Z M32.824,89.096 C33.044,89.096 33.244,89.078 33.424,89.042 C33.604,89.006 33.774,88.952 33.934,88.88 C34.094,88.808 34.249,88.719 34.399,88.613 C34.549,88.507 34.702,88.384 34.858,88.244 L34.858,88.244 L34.99,88.682 C35.03,88.81 35.09,88.895 35.17,88.937 C35.25,88.979 35.36,89 35.5,89 L35.5,89 L36.166,89 L36.166,85.112 C36.166,84.764 36.115,84.444 36.013,84.152 C35.911,83.86 35.762,83.609 35.566,83.399 C35.37,83.189 35.131,83.025 34.849,82.907 C34.567,82.789 34.246,82.73 33.886,82.73 C32.886,82.73 32.032,83.054 31.324,83.702 L31.324,83.702 L31.594,84.176 C31.638,84.252 31.696,84.316 31.768,84.368 C31.84,84.42 31.926,84.446 32.026,84.446 C32.146,84.446 32.256,84.418 32.356,84.362 C32.456,84.306 32.565,84.243 32.683,84.173 C32.801,84.103 32.94,84.04 33.1,83.984 C33.26,83.928 33.46,83.9 33.7,83.9 C34.032,83.9 34.285,83.999 34.459,84.197 C34.633,84.395 34.72,84.7 34.72,85.112 L34.72,85.112 L34.72,85.472 C34.02,85.488 33.434,85.556 32.962,85.676 C32.49,85.796 32.112,85.947 31.828,86.129 C31.544,86.311 31.341,86.515 31.219,86.741 C31.097,86.967 31.036,87.196 31.036,87.428 C31.036,87.704 31.08,87.946 31.168,88.154 C31.256,88.362 31.379,88.536 31.537,88.676 C31.695,88.816 31.884,88.921 32.104,88.991 C32.324,89.061 32.564,89.096 32.824,89.096 Z M33.286,88.076 C33.038,88.076 32.837,88.02 32.683,87.908 C32.529,87.796 32.452,87.61 32.452,87.35 C32.452,87.218 32.489,87.096 32.563,86.984 C32.637,86.872 32.762,86.774 32.938,86.69 C33.114,86.606 33.347,86.537 33.637,86.483 C33.927,86.429 34.288,86.392 34.72,86.372 L34.72,86.372 L34.72,87.41 C34.612,87.522 34.505,87.619 34.399,87.701 C34.293,87.783 34.183,87.852 34.069,87.908 C33.955,87.964 33.834,88.006 33.706,88.034 C33.578,88.062 33.438,88.076 33.286,88.076 Z M39.596,89.096 C39.896,89.096 40.186,89.05 40.466,88.958 C40.746,88.866 40.994,88.73 41.21,88.55 L41.21,88.55 L40.766,87.83 C40.734,87.786 40.704,87.753 40.676,87.731 C40.648,87.709 40.612,87.698 40.568,87.698 C40.532,87.698 40.496,87.709 40.46,87.731 C40.424,87.753 40.383,87.776 40.337,87.8 C40.291,87.824 40.237,87.847 40.175,87.869 C40.113,87.891 40.036,87.902 39.944,87.902 C39.784,87.902 39.656,87.848 39.56,87.74 C39.464,87.632 39.416,87.482 39.416,87.29 L39.416,87.29 L39.416,83.954 L41.036,83.954 L41.036,82.898 L39.416,82.898 L39.416,80.96 L38.648,80.96 C38.56,80.96 38.487,80.982 38.429,81.026 C38.371,81.07 38.334,81.132 38.318,81.212 L38.318,81.212 L38.006,82.892 L37.016,83.054 L37.016,83.642 C37.016,83.746 37.045,83.824 37.103,83.876 C37.161,83.928 37.23,83.954 37.31,83.954 L37.31,83.954 L37.934,83.954 L37.934,87.392 C37.934,87.924 38.078,88.341 38.366,88.643 C38.654,88.945 39.064,89.096 39.596,89.096 Z M44.796,89.09 C45.256,89.09 45.673,89.016 46.047,88.868 C46.421,88.72 46.74,88.508 47.004,88.232 C47.268,87.956 47.472,87.622 47.616,87.23 C47.76,86.838 47.832,86.398 47.832,85.91 C47.832,85.426 47.76,84.988 47.616,84.596 C47.472,84.204 47.268,83.872 47.004,83.6 C46.74,83.328 46.421,83.118 46.047,82.97 C45.673,82.822 45.256,82.748 44.796,82.748 C44.336,82.748 43.918,82.822 43.542,82.97 C43.166,83.118 42.845,83.328 42.579,83.6 C42.313,83.872 42.107,84.204 41.961,84.596 C41.815,84.988 41.742,85.426 41.742,85.91 C41.742,86.398 41.815,86.838 41.961,87.23 C42.107,87.622 42.313,87.956 42.579,88.232 C42.845,88.508 43.166,88.72 43.542,88.868 C43.918,89.016 44.336,89.09 44.796,89.09 Z M44.796,87.95 C44.276,87.95 43.892,87.777 43.644,87.431 C43.396,87.085 43.272,86.582 43.272,85.922 C43.272,85.262 43.396,84.757 43.644,84.407 C43.892,84.057 44.276,83.882 44.796,83.882 C45.308,83.882 45.687,84.056 45.933,84.404 C46.179,84.752 46.302,85.258 46.302,85.922 C46.302,86.586 46.179,87.09 45.933,87.434 C45.687,87.778 45.308,87.95 44.796,87.95 Z M50.422,89 L50.422,85.166 C50.574,84.838 50.76,84.589 50.98,84.419 C51.2,84.249 51.464,84.164 51.772,84.164 C51.944,84.164 52.082,84.178 52.186,84.206 C52.29,84.234 52.372,84.248 52.432,84.248 C52.5,84.248 52.554,84.233 52.594,84.203 C52.634,84.173 52.66,84.122 52.672,84.05 L52.672,84.05 L52.864,82.94 C52.664,82.8 52.412,82.73 52.108,82.73 C51.74,82.73 51.408,82.84 51.112,83.06 C50.816,83.28 50.558,83.58 50.338,83.96 L50.338,83.96 L50.248,83.216 C50.228,83.08 50.188,82.984 50.128,82.928 C50.068,82.872 49.962,82.844 49.81,82.844 L49.81,82.844 L48.94,82.844 L48.94,89 L50.422,89 Z" id="Creator"></path>
            <path d="M4.94800001,115.096 C5.66800001,115.096 6.28500001,114.98 6.79900001,114.748 C7.31300001,114.516 7.74600001,114.182 8.09800001,113.746 L8.09800001,113.746 L7.46200001,113.056 C7.39800001,112.988 7.32200001,112.954 7.23400001,112.954 C7.18200001,112.954 7.13400001,112.965 7.09000001,112.987 C7.04600001,113.009 7.00400001,113.038 6.96400001,113.074 C6.83200001,113.194 6.69900001,113.295 6.56500001,113.377 C6.43100001,113.459 6.28900001,113.526 6.13900001,113.578 C5.98900001,113.63 5.82500001,113.668 5.64700001,113.692 C5.46900001,113.716 5.27000001,113.728 5.05000001,113.728 C4.68200001,113.728 4.33800001,113.659 4.01800001,113.521 C3.69800001,113.383 3.42000001,113.184 3.18400001,112.924 C2.94800001,112.664 2.76100001,112.344 2.62300001,111.964 C2.48500001,111.584 2.41600001,111.15 2.41600001,110.662 C2.41600001,110.19 2.48500001,109.765 2.62300001,109.387 C2.76100001,109.009 2.95300001,108.688 3.19900001,108.424 C3.44500001,108.16 3.73900001,107.957 4.08100001,107.815 C4.42300001,107.673 4.79800001,107.602 5.20600001,107.602 C5.55400001,107.602 5.84100001,107.638 6.06700001,107.71 C6.29300001,107.782 6.48000001,107.86 6.62800001,107.944 C6.77600001,108.028 6.89800001,108.106 6.99400001,108.178 C7.09000001,108.25 7.18400001,108.286 7.27600001,108.286 C7.36400001,108.286 7.43300001,108.268 7.48300001,108.232 C7.53300001,108.196 7.57400001,108.154 7.60600001,108.106 L7.60600001,108.106 L8.14600001,107.356 C7.80200001,107.016 7.38900001,106.743 6.90700001,106.537 C6.42500001,106.331 5.86200001,106.228 5.21800001,106.228 C4.55800001,106.228 3.95500001,106.337 3.40900001,106.555 C2.86300001,106.773 2.39400001,107.078 2.00200001,107.47 C1.61000001,107.862 1.30600001,108.329 1.09000001,108.871 C0.874000005,109.413 0.766000005,110.01 0.766000005,110.662 C0.766000005,111.306 0.863000005,111.9 1.05700001,112.444 C1.25100001,112.988 1.53000001,113.456 1.89400001,113.848 C2.25800001,114.24 2.69700001,114.546 3.21100001,114.766 C3.72500001,114.986 4.30400001,115.096 4.94800001,115.096 Z M11.81,115.09 C12.27,115.09 12.687,115.016 13.061,114.868 C13.435,114.72 13.754,114.508 14.018,114.232 C14.282,113.956 14.486,113.622 14.63,113.23 C14.774,112.838 14.846,112.398 14.846,111.91 C14.846,111.426 14.774,110.988 14.63,110.596 C14.486,110.204 14.282,109.872 14.018,109.6 C13.754,109.328 13.435,109.118 13.061,108.97 C12.687,108.822 12.27,108.748 11.81,108.748 C11.35,108.748 10.932,108.822 10.556,108.97 C10.18,109.118 9.859,109.328 9.593,109.6 C9.327,109.872 9.121,110.204 8.975,110.596 C8.829,110.988 8.756,111.426 8.756,111.91 C8.756,112.398 8.829,112.838 8.975,113.23 C9.121,113.622 9.327,113.956 9.593,114.232 C9.859,114.508 10.18,114.72 10.556,114.868 C10.932,115.016 11.35,115.09 11.81,115.09 Z M11.81,113.95 C11.29,113.95 10.906,113.777 10.658,113.431 C10.41,113.085 10.286,112.582 10.286,111.922 C10.286,111.262 10.41,110.757 10.658,110.407 C10.906,110.057 11.29,109.882 11.81,109.882 C12.322,109.882 12.701,110.056 12.947,110.404 C13.193,110.752 13.316,111.258 13.316,111.922 C13.316,112.586 13.193,113.09 12.947,113.434 C12.701,113.778 12.322,113.95 11.81,113.95 Z M17.436,115 L17.436,110.494 C17.596,110.31 17.769,110.165 17.955,110.059 C18.141,109.953 18.34,109.9 18.552,109.9 C18.876,109.9 19.121,109.994 19.287,110.182 C19.453,110.37 19.536,110.67 19.536,111.082 L19.536,111.082 L19.536,115 L21.024,115 L21.024,111.082 C21.024,110.89 21.052,110.72 21.108,110.572 C21.164,110.424 21.241,110.301 21.339,110.203 C21.437,110.105 21.551,110.03 21.681,109.978 C21.811,109.926 21.952,109.9 22.104,109.9 C22.436,109.9 22.688,109.999 22.86,110.197 C23.032,110.395 23.118,110.69 23.118,111.082 L23.118,111.082 L23.118,115 L24.6,115 L24.6,111.082 C24.6,110.71 24.553,110.38 24.459,110.092 C24.365,109.804 24.228,109.56 24.048,109.36 C23.868,109.16 23.646,109.008 23.382,108.904 C23.118,108.8 22.816,108.748 22.476,108.748 C22.28,108.748 22.085,108.77 21.891,108.814 C21.697,108.858 21.514,108.926 21.342,109.018 C21.17,109.11 21.012,109.229 20.868,109.375 C20.724,109.521 20.604,109.696 20.508,109.9 C20.384,109.552 20.197,109.273 19.947,109.063 C19.697,108.853 19.378,108.748 18.99,108.748 C18.806,108.748 18.637,108.769 18.483,108.811 C18.329,108.853 18.185,108.91 18.051,108.982 C17.917,109.054 17.791,109.14 17.673,109.24 C17.555,109.34 17.442,109.45 17.334,109.57 L17.334,109.57 L17.238,109.114 C17.178,108.934 17.052,108.844 16.86,108.844 L16.86,108.844 L15.954,108.844 L15.954,115 L17.436,115 Z M27.49,115 L27.49,110.494 C27.65,110.31 27.823,110.165 28.009,110.059 C28.195,109.953 28.394,109.9 28.606,109.9 C28.93,109.9 29.175,109.994 29.341,110.182 C29.507,110.37 29.59,110.67 29.59,111.082 L29.59,111.082 L29.59,115 L31.078,115 L31.078,111.082 C31.078,110.89 31.106,110.72 31.162,110.572 C31.218,110.424 31.295,110.301 31.393,110.203 C31.491,110.105 31.605,110.03 31.735,109.978 C31.865,109.926 32.006,109.9 32.158,109.9 C32.49,109.9 32.742,109.999 32.914,110.197 C33.086,110.395 33.172,110.69 33.172,111.082 L33.172,111.082 L33.172,115 L34.654,115 L34.654,111.082 C34.654,110.71 34.607,110.38 34.513,110.092 C34.419,109.804 34.282,109.56 34.102,109.36 C33.922,109.16 33.7,109.008 33.436,108.904 C33.172,108.8 32.87,108.748 32.53,108.748 C32.334,108.748 32.139,108.77 31.945,108.814 C31.751,108.858 31.568,108.926 31.396,109.018 C31.224,109.11 31.066,109.229 30.922,109.375 C30.778,109.521 30.658,109.696 30.562,109.9 C30.438,109.552 30.251,109.273 30.001,109.063 C29.751,108.853 29.432,108.748 29.044,108.748 C28.86,108.748 28.691,108.769 28.537,108.811 C28.383,108.853 28.239,108.91 28.105,108.982 C27.971,109.054 27.845,109.14 27.727,109.24 C27.609,109.34 27.496,109.45 27.388,109.57 L27.388,109.57 L27.292,109.114 C27.232,108.934 27.106,108.844 26.914,108.844 L26.914,108.844 L26.008,108.844 L26.008,115 L27.49,115 Z M38.678,115.09 C38.894,115.09 39.117,115.074 39.347,115.042 C39.577,115.01 39.803,114.955 40.025,114.877 C40.247,114.799 40.46,114.695 40.664,114.565 C40.868,114.435 41.052,114.274 41.216,114.082 L41.216,114.082 L40.784,113.542 C40.752,113.498 40.714,113.464 40.67,113.44 C40.626,113.416 40.574,113.404 40.514,113.404 C40.422,113.404 40.327,113.432 40.229,113.488 C40.131,113.544 40.017,113.606 39.887,113.674 C39.757,113.742 39.605,113.804 39.431,113.86 C39.257,113.916 39.05,113.944 38.81,113.944 C38.322,113.944 37.93,113.796 37.634,113.5 C37.338,113.204 37.168,112.74 37.124,112.108 L37.124,112.108 L40.928,112.108 C40.996,112.108 41.052,112.099 41.096,112.081 C41.14,112.063 41.175,112.033 41.201,111.991 C41.227,111.949 41.245,111.891 41.255,111.817 C41.265,111.743 41.27,111.65 41.27,111.538 C41.27,111.094 41.204,110.699 41.072,110.353 C40.94,110.007 40.756,109.715 40.52,109.477 C40.284,109.239 40.003,109.058 39.677,108.934 C39.351,108.81 38.994,108.748 38.606,108.748 C38.146,108.748 37.733,108.828 37.367,108.988 C37.001,109.148 36.691,109.365 36.437,109.639 C36.183,109.913 35.988,110.235 35.852,110.605 C35.716,110.975 35.648,111.37 35.648,111.79 C35.648,112.33 35.726,112.805 35.882,113.215 C36.038,113.625 36.252,113.969 36.524,114.247 C36.796,114.525 37.116,114.735 37.484,114.877 C37.852,115.019 38.25,115.09 38.678,115.09 Z M39.938,111.214 L37.154,111.214 C37.222,110.766 37.378,110.42 37.622,110.176 C37.866,109.932 38.204,109.81 38.636,109.81 C38.856,109.81 39.048,109.847 39.212,109.921 C39.376,109.995 39.512,110.096 39.62,110.224 C39.728,110.352 39.808,110.501 39.86,110.671 C39.912,110.841 39.938,111.022 39.938,111.214 L39.938,111.214 Z M43.908,115 L43.908,110.548 C44.108,110.348 44.32,110.19 44.544,110.074 C44.768,109.958 45.008,109.9 45.264,109.9 C45.612,109.9 45.873,110.003 46.047,110.209 C46.221,110.415 46.308,110.706 46.308,111.082 L46.308,111.082 L46.308,115 L47.79,115 L47.79,111.082 C47.79,110.738 47.745,110.423 47.655,110.137 C47.565,109.851 47.433,109.605 47.259,109.399 C47.085,109.193 46.868,109.033 46.608,108.919 C46.348,108.805 46.05,108.748 45.714,108.748 C45.506,108.748 45.314,108.768 45.138,108.808 C44.962,108.848 44.797,108.906 44.643,108.982 C44.489,109.058 44.343,109.148 44.205,109.252 C44.067,109.356 43.936,109.472 43.812,109.6 L43.812,109.6 L43.71,109.114 C43.65,108.934 43.524,108.844 43.332,108.844 L43.332,108.844 L42.426,108.844 L42.426,115 L43.908,115 Z M51.22,115.096 C51.52,115.096 51.81,115.05 52.09,114.958 C52.37,114.866 52.618,114.73 52.834,114.55 L52.834,114.55 L52.39,113.83 C52.358,113.786 52.328,113.753 52.3,113.731 C52.272,113.709 52.236,113.698 52.192,113.698 C52.156,113.698 52.12,113.709 52.084,113.731 C52.048,113.753 52.007,113.776 51.961,113.8 C51.915,113.824 51.861,113.847 51.799,113.869 C51.737,113.891 51.66,113.902 51.568,113.902 C51.408,113.902 51.28,113.848 51.184,113.74 C51.088,113.632 51.04,113.482 51.04,113.29 L51.04,113.29 L51.04,109.954 L52.66,109.954 L52.66,108.898 L51.04,108.898 L51.04,106.96 L50.272,106.96 C50.184,106.96 50.111,106.982 50.053,107.026 C49.995,107.07 49.958,107.132 49.942,107.212 L49.942,107.212 L49.63,108.892 L48.64,109.054 L48.64,109.642 C48.64,109.746 48.669,109.824 48.727,109.876 C48.785,109.928 48.854,109.954 48.934,109.954 L48.934,109.954 L49.558,109.954 L49.558,113.392 C49.558,113.924 49.702,114.341 49.99,114.643 C50.278,114.945 50.688,115.096 51.22,115.096 Z" id="Comment"></path>
            <path d="M289.314,145.096 C290.034,145.096 290.651,144.98 291.165,144.748 C291.679,144.516 292.112,144.182 292.464,143.746 L292.464,143.746 L291.828,143.056 C291.764,142.988 291.688,142.954 291.6,142.954 C291.548,142.954 291.5,142.965 291.456,142.987 C291.412,143.009 291.37,143.038 291.33,143.074 C291.198,143.194 291.065,143.295 290.931,143.377 C290.797,143.459 290.655,143.526 290.505,143.578 C290.355,143.63 290.191,143.668 290.013,143.692 C289.835,143.716 289.636,143.728 289.416,143.728 C289.048,143.728 288.704,143.659 288.384,143.521 C288.064,143.383 287.786,143.184 287.55,142.924 C287.314,142.664 287.127,142.344 286.989,141.964 C286.851,141.584 286.782,141.15 286.782,140.662 C286.782,140.19 286.851,139.765 286.989,139.387 C287.127,139.009 287.319,138.688 287.565,138.424 C287.811,138.16 288.105,137.957 288.447,137.815 C288.789,137.673 289.164,137.602 289.572,137.602 C289.92,137.602 290.207,137.638 290.433,137.71 C290.659,137.782 290.846,137.86 290.994,137.944 C291.142,138.028 291.264,138.106 291.36,138.178 C291.456,138.25 291.55,138.286 291.642,138.286 C291.73,138.286 291.799,138.268 291.849,138.232 C291.899,138.196 291.94,138.154 291.972,138.106 L291.972,138.106 L292.512,137.356 C292.168,137.016 291.755,136.743 291.273,136.537 C290.791,136.331 290.228,136.228 289.584,136.228 C288.924,136.228 288.321,136.337 287.775,136.555 C287.229,136.773 286.76,137.078 286.368,137.47 C285.976,137.862 285.672,138.329 285.456,138.871 C285.24,139.413 285.132,140.01 285.132,140.662 C285.132,141.306 285.229,141.9 285.423,142.444 C285.617,142.988 285.896,143.456 286.26,143.848 C286.624,144.24 287.063,144.546 287.577,144.766 C288.091,144.986 288.67,145.096 289.314,145.096 Z M295.03,145.096 C295.25,145.096 295.45,145.078 295.63,145.042 C295.81,145.006 295.98,144.952 296.14,144.88 C296.3,144.808 296.455,144.719 296.605,144.613 C296.755,144.507 296.908,144.384 297.064,144.244 L297.064,144.244 L297.196,144.682 C297.236,144.81 297.296,144.895 297.376,144.937 C297.456,144.979 297.566,145 297.706,145 L297.706,145 L298.372,145 L298.372,141.112 C298.372,140.764 298.321,140.444 298.219,140.152 C298.117,139.86 297.968,139.609 297.772,139.399 C297.576,139.189 297.337,139.025 297.055,138.907 C296.773,138.789 296.452,138.73 296.092,138.73 C295.092,138.73 294.238,139.054 293.53,139.702 L293.53,139.702 L293.8,140.176 C293.844,140.252 293.902,140.316 293.974,140.368 C294.046,140.42 294.132,140.446 294.232,140.446 C294.352,140.446 294.462,140.418 294.562,140.362 C294.662,140.306 294.771,140.243 294.889,140.173 C295.007,140.103 295.146,140.04 295.306,139.984 C295.466,139.928 295.666,139.9 295.906,139.9 C296.238,139.9 296.491,139.999 296.665,140.197 C296.839,140.395 296.926,140.7 296.926,141.112 L296.926,141.112 L296.926,141.472 C296.226,141.488 295.64,141.556 295.168,141.676 C294.696,141.796 294.318,141.947 294.034,142.129 C293.75,142.311 293.547,142.515 293.425,142.741 C293.303,142.967 293.242,143.196 293.242,143.428 C293.242,143.704 293.286,143.946 293.374,144.154 C293.462,144.362 293.585,144.536 293.743,144.676 C293.901,144.816 294.09,144.921 294.31,144.991 C294.53,145.061 294.77,145.096 295.03,145.096 Z M295.492,144.076 C295.244,144.076 295.043,144.02 294.889,143.908 C294.735,143.796 294.658,143.61 294.658,143.35 C294.658,143.218 294.695,143.096 294.769,142.984 C294.843,142.872 294.968,142.774 295.144,142.69 C295.32,142.606 295.553,142.537 295.843,142.483 C296.133,142.429 296.494,142.392 296.926,142.372 L296.926,142.372 L296.926,143.41 C296.818,143.522 296.711,143.619 296.605,143.701 C296.499,143.783 296.389,143.852 296.275,143.908 C296.161,143.964 296.04,144.006 295.912,144.034 C295.784,144.062 295.644,144.076 295.492,144.076 Z M301.262,145 L301.262,140.548 C301.462,140.348 301.674,140.19 301.898,140.074 C302.122,139.958 302.362,139.9 302.618,139.9 C302.966,139.9 303.227,140.003 303.401,140.209 C303.575,140.415 303.662,140.706 303.662,141.082 L303.662,141.082 L303.662,145 L305.144,145 L305.144,141.082 C305.144,140.738 305.099,140.423 305.009,140.137 C304.919,139.851 304.787,139.605 304.613,139.399 C304.439,139.193 304.222,139.033 303.962,138.919 C303.702,138.805 303.404,138.748 303.068,138.748 C302.86,138.748 302.668,138.768 302.492,138.808 C302.316,138.848 302.151,138.906 301.997,138.982 C301.843,139.058 301.697,139.148 301.559,139.252 C301.421,139.356 301.29,139.472 301.166,139.6 L301.166,139.6 L301.064,139.114 C301.004,138.934 300.878,138.844 300.686,138.844 L300.686,138.844 L299.78,138.844 L299.78,145 L301.262,145 Z M308.904,145.09 C309.12,145.09 309.338,145.074 309.558,145.042 C309.778,145.01 309.991,144.955 310.197,144.877 C310.403,144.799 310.602,144.695 310.794,144.565 C310.986,144.435 311.164,144.274 311.328,144.082 L311.328,144.082 L310.902,143.542 C310.842,143.45 310.752,143.404 310.632,143.404 C310.54,143.404 310.457,143.433 310.383,143.491 C310.309,143.549 310.222,143.613 310.122,143.683 C310.022,143.753 309.899,143.817 309.753,143.875 C309.607,143.933 309.416,143.962 309.18,143.962 C308.944,143.962 308.732,143.917 308.544,143.827 C308.356,143.737 308.196,143.605 308.064,143.431 C307.932,143.257 307.831,143.042 307.761,142.786 C307.691,142.53 307.656,142.238 307.656,141.91 C307.656,141.594 307.688,141.311 307.752,141.061 C307.816,140.811 307.913,140.598 308.043,140.422 C308.173,140.246 308.336,140.111 308.532,140.017 C308.728,139.923 308.956,139.876 309.216,139.876 C309.42,139.876 309.591,139.899 309.729,139.945 C309.867,139.991 309.986,140.043 310.086,140.101 C310.186,140.159 310.272,140.211 310.344,140.257 C310.416,140.303 310.49,140.326 310.566,140.326 C310.646,140.326 310.707,140.31 310.749,140.278 C310.791,140.246 310.834,140.202 310.878,140.146 L310.878,140.146 L311.268,139.606 C310.992,139.33 310.681,139.118 310.335,138.97 C309.989,138.822 309.586,138.748 309.126,138.748 C308.642,138.748 308.214,138.828 307.842,138.988 C307.47,139.148 307.158,139.369 306.906,139.651 C306.654,139.933 306.463,140.267 306.333,140.653 C306.203,141.039 306.138,141.458 306.138,141.91 C306.138,142.414 306.211,142.863 306.357,143.257 C306.503,143.651 306.701,143.984 306.951,144.256 C307.201,144.528 307.494,144.735 307.83,144.877 C308.166,145.019 308.524,145.09 308.904,145.09 Z M314.842,145.09 C315.058,145.09 315.281,145.074 315.511,145.042 C315.741,145.01 315.967,144.955 316.189,144.877 C316.411,144.799 316.624,144.695 316.828,144.565 C317.032,144.435 317.216,144.274 317.38,144.082 L317.38,144.082 L316.948,143.542 C316.916,143.498 316.878,143.464 316.834,143.44 C316.79,143.416 316.738,143.404 316.678,143.404 C316.586,143.404 316.491,143.432 316.393,143.488 C316.295,143.544 316.181,143.606 316.051,143.674 C315.921,143.742 315.769,143.804 315.595,143.86 C315.421,143.916 315.214,143.944 314.974,143.944 C314.486,143.944 314.094,143.796 313.798,143.5 C313.502,143.204 313.332,142.74 313.288,142.108 L313.288,142.108 L317.092,142.108 C317.16,142.108 317.216,142.099 317.26,142.081 C317.304,142.063 317.339,142.033 317.365,141.991 C317.391,141.949 317.409,141.891 317.419,141.817 C317.429,141.743 317.434,141.65 317.434,141.538 C317.434,141.094 317.368,140.699 317.236,140.353 C317.104,140.007 316.92,139.715 316.684,139.477 C316.448,139.239 316.167,139.058 315.841,138.934 C315.515,138.81 315.158,138.748 314.77,138.748 C314.31,138.748 313.897,138.828 313.531,138.988 C313.165,139.148 312.855,139.365 312.601,139.639 C312.347,139.913 312.152,140.235 312.016,140.605 C311.88,140.975 311.812,141.37 311.812,141.79 C311.812,142.33 311.89,142.805 312.046,143.215 C312.202,143.625 312.416,143.969 312.688,144.247 C312.96,144.525 313.28,144.735 313.648,144.877 C314.016,145.019 314.414,145.09 314.842,145.09 Z M316.102,141.214 L313.318,141.214 C313.386,140.766 313.542,140.42 313.786,140.176 C314.03,139.932 314.368,139.81 314.8,139.81 C315.02,139.81 315.212,139.847 315.376,139.921 C315.54,139.995 315.676,140.096 315.784,140.224 C315.892,140.352 315.972,140.501 316.024,140.671 C316.076,140.841 316.102,141.022 316.102,141.214 L316.102,141.214 Z M320.168,145 L320.168,136.084 L318.686,136.084 L318.686,145 L320.168,145 Z" id="Cancel"></path>
            <path d="M365.936,145.096 C366.592,145.096 367.19,144.985 367.73,144.763 C368.27,144.541 368.732,144.232 369.116,143.836 C369.5,143.44 369.798,142.971 370.01,142.429 C370.222,141.887 370.328,141.298 370.328,140.662 C370.328,140.026 370.222,139.437 370.01,138.895 C369.798,138.353 369.5,137.885 369.116,137.491 C368.732,137.097 368.27,136.788 367.73,136.564 C367.19,136.34 366.592,136.228 365.936,136.228 C365.28,136.228 364.681,136.339 364.139,136.561 C363.597,136.783 363.133,137.092 362.747,137.488 C362.361,137.884 362.062,138.353 361.85,138.895 C361.638,139.437 361.532,140.026 361.532,140.662 C361.532,141.298 361.638,141.887 361.85,142.429 C362.062,142.971 362.361,143.44 362.747,143.836 C363.133,144.232 363.597,144.541 364.139,144.763 C364.681,144.985 365.28,145.096 365.936,145.096 Z M365.936,143.716 C365.512,143.716 365.13,143.646 364.79,143.506 C364.45,143.366 364.161,143.165 363.923,142.903 C363.685,142.641 363.502,142.321 363.374,141.943 C363.246,141.565 363.182,141.138 363.182,140.662 C363.182,140.186 363.246,139.759 363.374,139.381 C363.502,139.003 363.685,138.682 363.923,138.418 C364.161,138.154 364.45,137.952 364.79,137.812 C365.13,137.672 365.512,137.602 365.936,137.602 C366.36,137.602 366.741,137.672 367.079,137.812 C367.417,137.952 367.704,138.154 367.94,138.418 C368.176,138.682 368.357,139.003 368.483,139.381 C368.609,139.759 368.672,140.186 368.672,140.662 C368.672,141.138 368.609,141.565 368.483,141.943 C368.357,142.321 368.176,142.641 367.94,142.903 C367.704,143.165 367.417,143.366 367.079,143.506 C366.741,143.646 366.36,143.716 365.936,143.716 Z M373.218,145 L373.218,141.184 L373.728,141.184 C373.912,141.184 374.054,141.207 374.154,141.253 C374.254,141.299 374.344,141.374 374.424,141.478 L374.424,141.478 L376.878,144.682 C376.942,144.786 377.021,144.865 377.115,144.919 C377.209,144.973 377.352,145 377.544,145 L377.544,145 L378.972,145 L375.96,140.938 C375.86,140.802 375.757,140.69 375.651,140.602 C375.545,140.514 375.426,140.446 375.294,140.398 C375.39,140.35 375.48,140.288 375.564,140.212 C375.648,140.136 375.736,140.042 375.828,139.93 L375.828,139.93 L378.75,136.324 L377.358,136.324 C377.19,136.324 377.051,136.349 376.941,136.399 C376.831,136.449 376.726,136.538 376.626,136.666 L376.626,136.666 L374.232,139.696 C374.16,139.788 374.074,139.855 373.974,139.897 C373.874,139.939 373.748,139.96 373.596,139.96 L373.596,139.96 L373.218,139.96 L373.218,136.318 L371.604,136.318 L371.604,145 L373.218,145 Z" id="OK"></path>
            <path d="M157.577,11.112 C158.137,11.112 158.634,11.0268333 159.068,10.8565 C159.502,10.6861667 159.8695,10.4528333 160.1705,10.1565 C160.4715,9.86016667 160.700167,9.5125 160.8565,9.1135 C161.012833,8.7145 161.091,8.28633333 161.091,7.829 C161.091,7.409 161.0245,7.052 160.8915,6.758 C160.7585,6.464 160.582333,6.2155 160.363,6.0125 C160.143667,5.8095 159.894,5.6415 159.614,5.5085 C159.334,5.3755 159.048167,5.25883333 158.7565,5.1585 C158.464833,5.05816667 158.179,4.96366667 157.899,4.875 C157.619,4.78633333 157.369333,4.686 157.15,4.574 C156.930667,4.462 156.7545,4.32666667 156.6215,4.168 C156.4885,4.00933333 156.422,3.811 156.422,3.573 C156.422,3.38633333 156.454667,3.21483333 156.52,3.0585 C156.585333,2.90216667 156.6845,2.768 156.8175,2.656 C156.9505,2.544 157.113833,2.4565 157.3075,2.3935 C157.501167,2.3305 157.728667,2.299 157.99,2.299 C158.279333,2.299 158.530167,2.33516667 158.7425,2.4075 C158.954833,2.47983333 159.140333,2.56033333 159.299,2.649 C159.457667,2.73766667 159.595333,2.81816667 159.712,2.8905 C159.828667,2.96283333 159.933667,2.999 160.027,2.999 C160.120333,2.999 160.200833,2.978 160.2685,2.936 C160.336167,2.894 160.395667,2.82166667 160.447,2.719 L160.447,2.719 L160.909,1.83 C160.554333,1.494 160.125,1.23266667 159.621,1.046 C159.117,0.859333333 158.566333,0.766 157.969,0.766 C157.441667,0.766 156.972667,0.847666667 156.562,1.011 C156.151333,1.17433333 155.804833,1.39133333 155.5225,1.662 C155.240167,1.93266667 155.0255,2.243 154.8785,2.593 C154.7315,2.943 154.658,3.30233333 154.658,3.671 C154.658,4.133 154.7245,4.5215 154.8575,4.8365 C154.9905,5.1515 155.166667,5.414 155.386,5.624 C155.605333,5.834 155.855,6.00433333 156.135,6.135 C156.415,6.26566667 156.699667,6.37766667 156.989,6.471 C157.278333,6.56433333 157.563,6.65066667 157.843,6.73 C158.123,6.80933333 158.372667,6.90616667 158.592,7.0205 C158.811333,7.13483333 158.9875,7.276 159.1205,7.444 C159.2535,7.612 159.32,7.829 159.32,8.095 C159.32,8.571 159.173,8.93616667 158.879,9.1905 C158.585,9.44483333 158.169667,9.572 157.633,9.572 C157.283,9.572 156.983167,9.52416667 156.7335,9.4285 C156.483833,9.33283333 156.266833,9.22666667 156.0825,9.11 C155.898167,8.99333333 155.738333,8.88716667 155.603,8.7915 C155.467667,8.69583333 155.341667,8.648 155.225,8.648 C155.136333,8.648 155.055833,8.67016667 154.9835,8.7145 C154.911167,8.75883333 154.849333,8.81366667 154.798,8.879 L154.798,8.879 L154.252,9.782 C154.448,9.98266667 154.670833,10.1646667 154.9205,10.328 C155.170167,10.4913333 155.4385,10.6313333 155.7255,10.748 C156.0125,10.8646667 156.312333,10.9545 156.625,11.0175 C156.937667,11.0805 157.255,11.112 157.577,11.112 Z M165.134,11.112 C165.484,11.112 165.822333,11.0583333 166.149,10.951 C166.475667,10.8436667 166.765,10.685 167.017,10.475 L167.017,10.475 L166.499,9.635 C166.461667,9.58366667 166.426667,9.54516667 166.394,9.5195 C166.361333,9.49383333 166.319333,9.481 166.268,9.481 C166.226,9.481 166.184,9.49383333 166.142,9.5195 C166.1,9.54516667 166.052167,9.572 165.9985,9.6 C165.944833,9.628 165.881833,9.65483333 165.8095,9.6805 C165.737167,9.70616667 165.647333,9.719 165.54,9.719 C165.353333,9.719 165.204,9.656 165.092,9.53 C164.98,9.404 164.924,9.229 164.924,9.005 L164.924,9.005 L164.924,5.113 L166.814,5.113 L166.814,3.881 L164.924,3.881 L164.924,1.62 L164.028,1.62 C163.925333,1.62 163.840167,1.64566667 163.7725,1.697 C163.704833,1.74833333 163.661667,1.82066667 163.643,1.914 L163.643,1.914 L163.279,3.874 L162.124,4.063 L162.124,4.749 C162.124,4.87033333 162.157833,4.96133333 162.2255,5.022 C162.293167,5.08266667 162.373667,5.113 162.467,5.113 L162.467,5.113 L163.195,5.113 L163.195,9.124 C163.195,9.74466667 163.363,10.2311667 163.699,10.5835 C164.035,10.9358333 164.513333,11.112 165.134,11.112 Z M171.599,11.105 C172.135667,11.105 172.622167,11.0186667 173.0585,10.846 C173.494833,10.6733333 173.867,10.426 174.175,10.104 C174.483,9.782 174.721,9.39233333 174.889,8.935 C175.057,8.47766667 175.141,7.96433333 175.141,7.395 C175.141,6.83033333 175.057,6.31933333 174.889,5.862 C174.721,5.40466667 174.483,5.01733333 174.175,4.7 C173.867,4.38266667 173.494833,4.13766667 173.0585,3.965 C172.622167,3.79233333 172.135667,3.706 171.599,3.706 C171.062333,3.706 170.574667,3.79233333 170.136,3.965 C169.697333,4.13766667 169.322833,4.38266667 169.0125,4.7 C168.702167,5.01733333 168.461833,5.40466667 168.2915,5.862 C168.121167,6.31933333 168.036,6.83033333 168.036,7.395 C168.036,7.96433333 168.121167,8.47766667 168.2915,8.935 C168.461833,9.39233333 168.702167,9.782 169.0125,10.104 C169.322833,10.426 169.697333,10.6733333 170.136,10.846 C170.574667,11.0186667 171.062333,11.105 171.599,11.105 Z M171.599,9.775 C170.992333,9.775 170.544333,9.57316667 170.255,9.1695 C169.965667,8.76583333 169.821,8.179 169.821,7.409 C169.821,6.639 169.965667,6.04983333 170.255,5.6415 C170.544333,5.23316667 170.992333,5.029 171.599,5.029 C172.196333,5.029 172.6385,5.232 172.9255,5.638 C173.2125,6.044 173.356,6.63433333 173.356,7.409 C173.356,8.18366667 173.2125,8.77166667 172.9255,9.173 C172.6385,9.57433333 172.196333,9.775 171.599,9.775 Z M178.561,11 L178.561,6.527 C178.738333,6.14433333 178.955333,5.85383333 179.212,5.6555 C179.468667,5.45716667 179.776667,5.358 180.136,5.358 C180.336667,5.358 180.497667,5.37433333 180.619,5.407 C180.740333,5.43966667 180.836,5.456 180.906,5.456 C180.985333,5.456 181.048333,5.4385 181.095,5.4035 C181.141667,5.3685 181.172,5.309 181.186,5.225 L181.186,5.225 L181.41,3.93 C181.176667,3.76666667 180.882667,3.685 180.528,3.685 C180.098667,3.685 179.711333,3.81333333 179.366,4.07 C179.020667,4.32666667 178.719667,4.67666667 178.463,5.12 L178.463,5.12 L178.358,4.252 C178.334667,4.09333333 178.288,3.98133333 178.218,3.916 C178.148,3.85066667 178.024333,3.818 177.847,3.818 L177.847,3.818 L176.832,3.818 L176.832,11 L178.561,11 Z M185.943,11.105 C186.195,11.105 186.455167,11.0863333 186.7235,11.049 C186.991833,11.0116667 187.2555,10.9475 187.5145,10.8565 C187.7735,10.7655 188.022,10.6441667 188.26,10.4925 C188.498,10.3408333 188.712667,10.153 188.904,9.929 L188.904,9.929 L188.4,9.299 C188.362667,9.24766667 188.318333,9.208 188.267,9.18 C188.215667,9.152 188.155,9.138 188.085,9.138 C187.977667,9.138 187.866833,9.17066667 187.7525,9.236 C187.638167,9.30133333 187.505167,9.37366667 187.3535,9.453 C187.201833,9.53233333 187.0245,9.60466667 186.8215,9.67 C186.6185,9.73533333 186.377,9.768 186.097,9.768 C185.527667,9.768 185.070333,9.59533333 184.725,9.25 C184.379667,8.90466667 184.181333,8.36333333 184.13,7.626 L184.13,7.626 L188.568,7.626 C188.647333,7.626 188.712667,7.6155 188.764,7.5945 C188.815333,7.5735 188.856167,7.5385 188.8865,7.4895 C188.916833,7.4405 188.937833,7.37283333 188.9495,7.2865 C188.961167,7.20016667 188.967,7.09166667 188.967,6.961 C188.967,6.443 188.89,5.98216667 188.736,5.5785 C188.582,5.17483333 188.367333,4.83416667 188.092,4.5565 C187.816667,4.27883333 187.488833,4.06766667 187.1085,3.923 C186.728167,3.77833333 186.311667,3.706 185.859,3.706 C185.322333,3.706 184.8405,3.79933333 184.4135,3.986 C183.9865,4.17266667 183.624833,4.42583333 183.3285,4.7455 C183.032167,5.06516667 182.804667,5.44083333 182.646,5.8725 C182.487333,6.30416667 182.408,6.765 182.408,7.255 C182.408,7.885 182.499,8.43916667 182.681,8.9175 C182.863,9.39583333 183.112667,9.79716667 183.43,10.1215 C183.747333,10.4458333 184.120667,10.6908333 184.55,10.8565 C184.979333,11.0221667 185.443667,11.105 185.943,11.105 Z M187.413,6.583 L184.165,6.583 C184.244333,6.06033333 184.426333,5.65666667 184.711,5.372 C184.995667,5.08733333 185.39,4.945 185.894,4.945 C186.150667,4.945 186.374667,4.98816667 186.566,5.0745 C186.757333,5.16083333 186.916,5.27866667 187.042,5.428 C187.168,5.57733333 187.261333,5.75116667 187.322,5.9495 C187.382667,6.14783333 187.413,6.359 187.413,6.583 L187.413,6.583 Z M195.8,11 L195.8,7.437 L197.214,7.437 C197.872,7.437 198.446,7.35533333 198.936,7.192 C199.426,7.02866667 199.834333,6.8 200.161,6.506 C200.487667,6.212 200.732667,5.86083333 200.896,5.4525 C201.059333,5.04416667 201.141,4.595 201.141,4.105 C201.141,3.63366667 201.064,3.19966667 200.91,2.803 C200.756,2.40633333 200.518,2.06566667 200.196,1.781 C199.874,1.49633333 199.465667,1.27466667 198.971,1.116 C198.476333,0.957333333 197.890667,0.878 197.214,0.878 L197.214,0.878 L193.917,0.878 L193.917,11 L195.8,11 Z M197.214,5.967 L195.8,5.967 L195.8,2.334 L197.214,2.334 C197.559333,2.334 197.860333,2.37483333 198.117,2.4565 C198.373667,2.53816667 198.586,2.656 198.754,2.81 C198.922,2.964 199.048,3.15066667 199.132,3.37 C199.216,3.58933333 199.258,3.83433333 199.258,4.105 C199.258,4.38966667 199.216,4.6475 199.132,4.8785 C199.048,5.1095 198.922,5.3055 198.754,5.4665 C198.586,5.6275 198.373667,5.75116667 198.117,5.8375 C197.860333,5.92383333 197.559333,5.967 197.214,5.967 L197.214,5.967 Z M204.225,11.112 C204.481667,11.112 204.715,11.091 204.925,11.049 C205.135,11.007 205.333333,10.944 205.52,10.86 C205.706667,10.776 205.8875,10.6721667 206.0625,10.5485 C206.2375,10.4248333 206.416,10.2813333 206.598,10.118 L206.598,10.118 L206.752,10.629 C206.798667,10.7783333 206.868667,10.8775 206.962,10.9265 C207.055333,10.9755 207.183667,11 207.347,11 L207.347,11 L208.124,11 L208.124,6.464 C208.124,6.058 208.0645,5.68466667 207.9455,5.344 C207.8265,5.00333333 207.652667,4.7105 207.424,4.4655 C207.195333,4.2205 206.9165,4.02916667 206.5875,3.8915 C206.2585,3.75383333 205.884,3.685 205.464,3.685 C204.297333,3.685 203.301,4.063 202.475,4.819 L202.475,4.819 L202.79,5.372 C202.841333,5.46066667 202.909,5.53533333 202.993,5.596 C203.077,5.65666667 203.177333,5.687 203.294,5.687 C203.434,5.687 203.562333,5.65433333 203.679,5.589 C203.795667,5.52366667 203.922833,5.45016667 204.0605,5.3685 C204.198167,5.28683333 204.360333,5.21333333 204.547,5.148 C204.733667,5.08266667 204.967,5.05 205.247,5.05 C205.634333,5.05 205.9295,5.1655 206.1325,5.3965 C206.3355,5.6275 206.437,5.98333333 206.437,6.464 L206.437,6.464 L206.437,6.884 C205.620333,6.90266667 204.936667,6.982 204.386,7.122 C203.835333,7.262 203.394333,7.43816667 203.063,7.6505 C202.731667,7.86283333 202.494833,8.10083333 202.3525,8.3645 C202.210167,8.62816667 202.139,8.89533333 202.139,9.166 C202.139,9.488 202.190333,9.77033333 202.293,10.013 C202.395667,10.2556667 202.539167,10.4586667 202.7235,10.622 C202.907833,10.7853333 203.128333,10.9078333 203.385,10.9895 C203.641667,11.0711667 203.921667,11.112 204.225,11.112 Z M204.764,9.922 C204.474667,9.922 204.240167,9.85666667 204.0605,9.726 C203.880833,9.59533333 203.791,9.37833333 203.791,9.075 C203.791,8.921 203.834167,8.77866667 203.9205,8.648 C204.006833,8.51733333 204.152667,8.403 204.358,8.305 C204.563333,8.207 204.835167,8.1265 205.1735,8.0635 C205.511833,8.0005 205.933,7.95733333 206.437,7.934 L206.437,7.934 L206.437,9.145 C206.311,9.27566667 206.186167,9.38883333 206.0625,9.4845 C205.938833,9.58016667 205.8105,9.66066667 205.6775,9.726 C205.5445,9.79133333 205.403333,9.84033333 205.254,9.873 C205.104667,9.90566667 204.941333,9.922 204.764,9.922 Z M212.524,11.112 C212.874,11.112 213.212333,11.0583333 213.539,10.951 C213.865667,10.8436667 214.155,10.685 214.407,10.475 L214.407,10.475 L213.889,9.635 C213.851667,9.58366667 213.816667,9.54516667 213.784,9.5195 C213.751333,9.49383333 213.709333,9.481 213.658,9.481 C213.616,9.481 213.574,9.49383333 213.532,9.5195 C213.49,9.54516667 213.442167,9.572 213.3885,9.6 C213.334833,9.628 213.271833,9.65483333 213.1995,9.6805 C213.127167,9.70616667 213.037333,9.719 212.93,9.719 C212.743333,9.719 212.594,9.656 212.482,9.53 C212.37,9.404 212.314,9.229 212.314,9.005 L212.314,9.005 L212.314,5.113 L214.204,5.113 L214.204,3.881 L212.314,3.881 L212.314,1.62 L211.418,1.62 C211.315333,1.62 211.230167,1.64566667 211.1625,1.697 C211.094833,1.74833333 211.051667,1.82066667 211.033,1.914 L211.033,1.914 L210.669,3.874 L209.514,4.063 L209.514,4.749 C209.514,4.87033333 209.547833,4.96133333 209.6155,5.022 C209.683167,5.08266667 209.763667,5.113 209.857,5.113 L209.857,5.113 L210.585,5.113 L210.585,9.124 C210.585,9.74466667 210.753,10.2311667 211.089,10.5835 C211.425,10.9358333 211.903333,11.112 212.524,11.112 Z M218.667,11.105 C218.919,11.105 219.173333,11.0863333 219.43,11.049 C219.686667,11.0116667 219.935167,10.9475 220.1755,10.8565 C220.415833,10.7655 220.648,10.6441667 220.872,10.4925 C221.096,10.3408333 221.303667,10.153 221.495,9.929 L221.495,9.929 L220.998,9.299 C220.928,9.19166667 220.823,9.138 220.683,9.138 C220.575667,9.138 220.478833,9.17183333 220.3925,9.2395 C220.306167,9.30716667 220.204667,9.38183333 220.088,9.4635 C219.971333,9.54516667 219.827833,9.61983333 219.6575,9.6875 C219.487167,9.75516667 219.264333,9.789 218.989,9.789 C218.713667,9.789 218.466333,9.7365 218.247,9.6315 C218.027667,9.5265 217.841,9.3725 217.687,9.1695 C217.533,8.9665 217.415167,8.71566667 217.3335,8.417 C217.251833,8.11833333 217.211,7.77766667 217.211,7.395 C217.211,7.02633333 217.248333,6.69616667 217.323,6.4045 C217.397667,6.11283333 217.510833,5.86433333 217.6625,5.659 C217.814167,5.45366667 218.004333,5.29616667 218.233,5.1865 C218.461667,5.07683333 218.727667,5.022 219.031,5.022 C219.269,5.022 219.4685,5.04883333 219.6295,5.1025 C219.7905,5.15616667 219.929333,5.21683333 220.046,5.2845 C220.162667,5.35216667 220.263,5.41283333 220.347,5.4665 C220.431,5.52016667 220.517333,5.547 220.606,5.547 C220.699333,5.547 220.7705,5.52833333 220.8195,5.491 C220.8685,5.45366667 220.918667,5.40233333 220.97,5.337 L220.97,5.337 L221.425,4.707 C221.103,4.385 220.740167,4.13766667 220.3365,3.965 C219.932833,3.79233333 219.462667,3.706 218.926,3.706 C218.361333,3.706 217.862,3.79933333 217.428,3.986 C216.994,4.17266667 216.63,4.4305 216.336,4.7595 C216.042,5.0885 215.819167,5.47816667 215.6675,5.9285 C215.515833,6.37883333 215.44,6.86766667 215.44,7.395 C215.44,7.983 215.525167,8.50683333 215.6955,8.9665 C215.865833,9.42616667 216.096833,9.81466667 216.3885,10.132 C216.680167,10.4493333 217.022,10.6908333 217.414,10.8565 C217.806,11.0221667 218.223667,11.105 218.667,11.105 Z M224.67,11 L224.67,5.806 C224.903333,5.57266667 225.150667,5.38833333 225.412,5.253 C225.673333,5.11766667 225.953333,5.05 226.252,5.05 C226.658,5.05 226.9625,5.17016667 227.1655,5.4105 C227.3685,5.65083333 227.47,5.99033333 227.47,6.429 L227.47,6.429 L227.47,11 L229.199,11 L229.199,6.429 C229.199,6.02766667 229.1465,5.66016667 229.0415,5.3265 C228.9365,4.99283333 228.7825,4.70583333 228.5795,4.4655 C228.3765,4.22516667 228.123333,4.0385 227.82,3.9055 C227.516667,3.7725 227.169,3.706 226.777,3.706 C226.324333,3.706 225.93,3.78766667 225.594,3.951 C225.258,4.11433333 224.95,4.329 224.67,4.595 L224.67,4.595 L224.67,0.598 L222.941,0.598 L222.941,11 L224.67,11 Z" id="StorePatch"></path>
        </g>
    </g>
</svg>