<svg width="32" height="12" viewBox="0 0 32 12" fill="none" xmlns="http://www.w3.org/2000/svg">
<path d="M0.5 2.5C0.5 1.39543 1.39543 0.5 2.5 0.5H29.5C30.6046 0.5 31.5 1.39543 31.5 2.5V9.5C31.5 10.6046 30.6046 11.5 29.5 11.5H2.5C1.39543 11.5 0.5 10.6046 0.5 9.5V2.5Z" fill="#242424"/>
<path d="M2.5 1H29.5V0H2.5V1ZM31 2.5V9.5H32V2.5H31ZM29.5 11H2.5V12H29.5V11ZM1 9.5V2.5H0V9.5H1ZM2.5 11C1.67157 11 1 10.3284 1 9.5H0C0 10.8807 1.11929 12 2.5 12V11ZM31 9.5C31 10.3284 30.3284 11 29.5 11V12C30.8807 12 32 10.8807 32 9.5H31ZM29.5 1C30.3284 1 31 1.67157 31 2.5H32C32 1.11929 30.8807 0 29.5 0V1ZM2.5 0C1.11929 0 0 1.11929 0 2.5H1C1 1.67157 1.67157 1 2.5 1V0Z" fill="black"/>
</svg>
