<svg width="76" height="39" viewBox="0 0 76 39" fill="none" xmlns="http://www.w3.org/2000/svg">
<rect x="1" y="1" width="24" height="11" rx="1" fill="#FF9300"/>
<rect x="1" y="1" width="24" height="11" rx="1" stroke="#FF9300"/>
<path d="M14.8837 8.604V9.5H11.5637V8.604H12.6837V5.664C12.6837 5.58933 12.685 5.51467 12.6877 5.44C12.6904 5.36267 12.6944 5.28533 12.6997 5.208L12.0357 5.76C11.977 5.80533 11.9184 5.83333 11.8597 5.844C11.8037 5.852 11.7504 5.852 11.6997 5.844C11.649 5.83333 11.6037 5.816 11.5637 5.792C11.5237 5.76533 11.4944 5.73867 11.4757 5.712L11.0837 5.192L12.8997 3.668H13.9237V8.604H14.8837Z" fill="black"/>
<path d="M39.5837 8.38C39.717 8.38 39.8224 8.41733 39.8997 8.492C39.977 8.564 40.0157 8.66 40.0157 8.78V9.5H35.9197V9.1C35.9197 9.02267 35.9357 8.94 35.9677 8.852C35.9997 8.764 36.0557 8.684 36.1357 8.612L37.8157 6.92C37.9597 6.776 38.085 6.63867 38.1917 6.508C38.2984 6.37733 38.3864 6.24933 38.4557 6.124C38.525 5.996 38.577 5.86933 38.6117 5.744C38.6464 5.616 38.6637 5.48133 38.6637 5.34C38.6637 5.108 38.6077 4.93067 38.4957 4.808C38.3864 4.68267 38.2184 4.62 37.9917 4.62C37.8077 4.62 37.6517 4.66933 37.5237 4.768C37.3984 4.864 37.3117 4.984 37.2637 5.128C37.2077 5.27467 37.1344 5.372 37.0437 5.42C36.953 5.468 36.8237 5.47867 36.6557 5.452L35.9997 5.336C36.0424 5.04533 36.1237 4.792 36.2437 4.576C36.3664 4.36 36.517 4.18 36.6957 4.036C36.877 3.892 37.0837 3.78533 37.3157 3.716C37.5477 3.644 37.797 3.608 38.0637 3.608C38.3517 3.608 38.6104 3.65067 38.8397 3.736C39.0717 3.81867 39.269 3.93467 39.4317 4.084C39.5944 4.23333 39.7184 4.412 39.8037 4.62C39.8917 4.82533 39.9357 5.052 39.9357 5.3C39.9357 5.51333 39.905 5.71067 39.8437 5.892C39.785 6.07333 39.7037 6.24667 39.5997 6.412C39.4957 6.57467 39.3744 6.73333 39.2357 6.888C39.0997 7.04 38.9544 7.19467 38.7997 7.352L37.6597 8.52C37.8064 8.47467 37.9517 8.44 38.0957 8.416C38.2397 8.392 38.373 8.38 38.4957 8.38H39.5837Z" fill="#FF9000"/>
<path d="M61.0317 5.336C61.0744 5.04533 61.1557 4.792 61.2757 4.576C61.3984 4.36 61.549 4.18 61.7277 4.036C61.909 3.892 62.1157 3.78533 62.3477 3.716C62.5797 3.644 62.829 3.608 63.0957 3.608C63.3837 3.608 63.6397 3.64933 63.8637 3.732C64.0877 3.812 64.277 3.92133 64.4317 4.06C64.5864 4.19867 64.7037 4.36 64.7837 4.544C64.8637 4.72533 64.9037 4.91733 64.9037 5.12C64.9037 5.304 64.885 5.46667 64.8477 5.608C64.8104 5.74667 64.7544 5.868 64.6797 5.972C64.6077 6.07333 64.517 6.16 64.4077 6.232C64.301 6.30133 64.1784 6.36 64.0397 6.408C64.685 6.63467 65.0077 7.07467 65.0077 7.728C65.0077 8.03733 64.9517 8.30667 64.8397 8.536C64.7277 8.76533 64.577 8.956 64.3877 9.108C64.201 9.26 63.9837 9.37467 63.7357 9.452C63.4877 9.52667 63.229 9.564 62.9597 9.564C62.6824 9.564 62.4357 9.53467 62.2197 9.476C62.0037 9.41467 61.8117 9.32133 61.6437 9.196C61.4757 9.068 61.3277 8.90533 61.1997 8.708C61.0744 8.51067 60.965 8.276 60.8717 8.004L61.4237 7.78C61.5677 7.724 61.701 7.70933 61.8237 7.736C61.9464 7.76267 62.0344 7.824 62.0877 7.92C62.2077 8.14133 62.3344 8.30267 62.4677 8.404C62.6037 8.50267 62.7624 8.552 62.9437 8.552C63.0824 8.552 63.2024 8.52933 63.3037 8.484C63.4077 8.436 63.493 8.376 63.5597 8.304C63.629 8.22933 63.681 8.14533 63.7157 8.052C63.7504 7.95867 63.7677 7.864 63.7677 7.768C63.7677 7.64267 63.7584 7.53067 63.7397 7.432C63.7237 7.33067 63.6757 7.244 63.5957 7.172C63.5157 7.1 63.3944 7.04533 63.2317 7.008C63.0717 6.968 62.8477 6.948 62.5597 6.948V6.092C62.8024 6.092 62.9984 6.07333 63.1477 6.036C63.297 5.99867 63.4117 5.948 63.4917 5.884C63.5744 5.81733 63.629 5.73733 63.6557 5.644C63.6824 5.55067 63.6957 5.448 63.6957 5.336C63.6957 5.10667 63.6397 4.93067 63.5277 4.808C63.4184 4.68267 63.2504 4.62 63.0237 4.62C62.8397 4.62 62.6837 4.66933 62.5557 4.768C62.4304 4.864 62.3437 4.984 62.2957 5.128C62.2397 5.27467 62.1664 5.372 62.0757 5.42C61.985 5.468 61.8557 5.47867 61.6877 5.452L61.0317 5.336Z" fill="#FF9000"/>
<path d="M14.8837 21.604V22.5H11.5637V21.604H12.6837V18.664C12.6837 18.5893 12.685 18.5147 12.6877 18.44C12.6904 18.3627 12.6944 18.2853 12.6997 18.208L12.0357 18.76C11.977 18.8053 11.9184 18.8333 11.8597 18.844C11.8037 18.852 11.7504 18.852 11.6997 18.844C11.649 18.8333 11.6037 18.816 11.5637 18.792C11.5237 18.7653 11.4944 18.7387 11.4757 18.712L11.0837 18.192L12.8997 16.668H13.9237V21.604H14.8837Z" fill="#FF9000"/>
<rect x="26" y="14" width="24" height="11" rx="1" fill="#FF9300"/>
<rect x="26" y="14" width="24" height="11" rx="1" stroke="#FF9300"/>
<path d="M39.5837 21.38C39.717 21.38 39.8224 21.4173 39.8997 21.492C39.977 21.564 40.0157 21.66 40.0157 21.78V22.5H35.9197V22.1C35.9197 22.0227 35.9357 21.94 35.9677 21.852C35.9997 21.764 36.0557 21.684 36.1357 21.612L37.8157 19.92C37.9597 19.776 38.085 19.6387 38.1917 19.508C38.2984 19.3773 38.3864 19.2493 38.4557 19.124C38.525 18.996 38.577 18.8693 38.6117 18.744C38.6464 18.616 38.6637 18.4813 38.6637 18.34C38.6637 18.108 38.6077 17.9307 38.4957 17.808C38.3864 17.6827 38.2184 17.62 37.9917 17.62C37.8077 17.62 37.6517 17.6693 37.5237 17.768C37.3984 17.864 37.3117 17.984 37.2637 18.128C37.2077 18.2747 37.1344 18.372 37.0437 18.42C36.953 18.468 36.8237 18.4787 36.6557 18.452L35.9997 18.336C36.0424 18.0453 36.1237 17.792 36.2437 17.576C36.3664 17.36 36.517 17.18 36.6957 17.036C36.877 16.892 37.0837 16.7853 37.3157 16.716C37.5477 16.644 37.797 16.608 38.0637 16.608C38.3517 16.608 38.6104 16.6507 38.8397 16.736C39.0717 16.8187 39.269 16.9347 39.4317 17.084C39.5944 17.2333 39.7184 17.412 39.8037 17.62C39.8917 17.8253 39.9357 18.052 39.9357 18.3C39.9357 18.5133 39.905 18.7107 39.8437 18.892C39.785 19.0733 39.7037 19.2467 39.5997 19.412C39.4957 19.5747 39.3744 19.7333 39.2357 19.888C39.0997 20.04 38.9544 20.1947 38.7997 20.352L37.6597 21.52C37.8064 21.4747 37.9517 21.44 38.0957 21.416C38.2397 21.392 38.373 21.38 38.4957 21.38H39.5837Z" fill="black"/>
<path d="M61.0317 18.336C61.0744 18.0453 61.1557 17.792 61.2757 17.576C61.3984 17.36 61.549 17.18 61.7277 17.036C61.909 16.892 62.1157 16.7853 62.3477 16.716C62.5797 16.644 62.829 16.608 63.0957 16.608C63.3837 16.608 63.6397 16.6493 63.8637 16.732C64.0877 16.812 64.277 16.9213 64.4317 17.06C64.5864 17.1987 64.7037 17.36 64.7837 17.544C64.8637 17.7253 64.9037 17.9173 64.9037 18.12C64.9037 18.304 64.885 18.4667 64.8477 18.608C64.8104 18.7467 64.7544 18.868 64.6797 18.972C64.6077 19.0733 64.517 19.16 64.4077 19.232C64.301 19.3013 64.1784 19.36 64.0397 19.408C64.685 19.6347 65.0077 20.0747 65.0077 20.728C65.0077 21.0373 64.9517 21.3067 64.8397 21.536C64.7277 21.7653 64.577 21.956 64.3877 22.108C64.201 22.26 63.9837 22.3747 63.7357 22.452C63.4877 22.5267 63.229 22.564 62.9597 22.564C62.6824 22.564 62.4357 22.5347 62.2197 22.476C62.0037 22.4147 61.8117 22.3213 61.6437 22.196C61.4757 22.068 61.3277 21.9053 61.1997 21.708C61.0744 21.5107 60.965 21.276 60.8717 21.004L61.4237 20.78C61.5677 20.724 61.701 20.7093 61.8237 20.736C61.9464 20.7627 62.0344 20.824 62.0877 20.92C62.2077 21.1413 62.3344 21.3027 62.4677 21.404C62.6037 21.5027 62.7624 21.552 62.9437 21.552C63.0824 21.552 63.2024 21.5293 63.3037 21.484C63.4077 21.436 63.493 21.376 63.5597 21.304C63.629 21.2293 63.681 21.1453 63.7157 21.052C63.7504 20.9587 63.7677 20.864 63.7677 20.768C63.7677 20.6427 63.7584 20.5307 63.7397 20.432C63.7237 20.3307 63.6757 20.244 63.5957 20.172C63.5157 20.1 63.3944 20.0453 63.2317 20.008C63.0717 19.968 62.8477 19.948 62.5597 19.948V19.092C62.8024 19.092 62.9984 19.0733 63.1477 19.036C63.297 18.9987 63.4117 18.948 63.4917 18.884C63.5744 18.8173 63.629 18.7373 63.6557 18.644C63.6824 18.5507 63.6957 18.448 63.6957 18.336C63.6957 18.1067 63.6397 17.9307 63.5277 17.808C63.4184 17.6827 63.2504 17.62 63.0237 17.62C62.8397 17.62 62.6837 17.6693 62.5557 17.768C62.4304 17.864 62.3437 17.984 62.2957 18.128C62.2397 18.2747 62.1664 18.372 62.0757 18.42C61.985 18.468 61.8557 18.4787 61.6877 18.452L61.0317 18.336Z" fill="#FF9000"/>
<path d="M14.8837 34.604V35.5H11.5637V34.604H12.6837V31.664C12.6837 31.5893 12.685 31.5147 12.6877 31.44C12.6904 31.3627 12.6944 31.2853 12.6997 31.208L12.0357 31.76C11.977 31.8053 11.9184 31.8333 11.8597 31.844C11.8037 31.852 11.7504 31.852 11.6997 31.844C11.649 31.8333 11.6037 31.816 11.5637 31.792C11.5237 31.7653 11.4944 31.7387 11.4757 31.712L11.0837 31.192L12.8997 29.668H13.9237V34.604H14.8837Z" fill="#FF9000"/>
<path d="M39.5837 34.38C39.717 34.38 39.8224 34.4173 39.8997 34.492C39.977 34.564 40.0157 34.66 40.0157 34.78V35.5H35.9197V35.1C35.9197 35.0227 35.9357 34.94 35.9677 34.852C35.9997 34.764 36.0557 34.684 36.1357 34.612L37.8157 32.92C37.9597 32.776 38.085 32.6387 38.1917 32.508C38.2984 32.3773 38.3864 32.2493 38.4557 32.124C38.525 31.996 38.577 31.8693 38.6117 31.744C38.6464 31.616 38.6637 31.4813 38.6637 31.34C38.6637 31.108 38.6077 30.9307 38.4957 30.808C38.3864 30.6827 38.2184 30.62 37.9917 30.62C37.8077 30.62 37.6517 30.6693 37.5237 30.768C37.3984 30.864 37.3117 30.984 37.2637 31.128C37.2077 31.2747 37.1344 31.372 37.0437 31.42C36.953 31.468 36.8237 31.4787 36.6557 31.452L35.9997 31.336C36.0424 31.0453 36.1237 30.792 36.2437 30.576C36.3664 30.36 36.517 30.18 36.6957 30.036C36.877 29.892 37.0837 29.7853 37.3157 29.716C37.5477 29.644 37.797 29.608 38.0637 29.608C38.3517 29.608 38.6104 29.6507 38.8397 29.736C39.0717 29.8187 39.269 29.9347 39.4317 30.084C39.5944 30.2333 39.7184 30.412 39.8037 30.62C39.8917 30.8253 39.9357 31.052 39.9357 31.3C39.9357 31.5133 39.905 31.7107 39.8437 31.892C39.785 32.0733 39.7037 32.2467 39.5997 32.412C39.4957 32.5747 39.3744 32.7333 39.2357 32.888C39.0997 33.04 38.9544 33.1947 38.7997 33.352L37.6597 34.52C37.8064 34.4747 37.9517 34.44 38.0957 34.416C38.2397 34.392 38.373 34.38 38.4957 34.38H39.5837Z" fill="#FF9000"/>
<rect x="51" y="27" width="24" height="11" rx="1" fill="#FF9300"/>
<rect x="51" y="27" width="24" height="11" rx="1" stroke="#FF9300"/>
<path d="M61.0317 31.336C61.0744 31.0453 61.1557 30.792 61.2757 30.576C61.3984 30.36 61.549 30.18 61.7277 30.036C61.909 29.892 62.1157 29.7853 62.3477 29.716C62.5797 29.644 62.829 29.608 63.0957 29.608C63.3837 29.608 63.6397 29.6493 63.8637 29.732C64.0877 29.812 64.277 29.9213 64.4317 30.06C64.5864 30.1987 64.7037 30.36 64.7837 30.544C64.8637 30.7253 64.9037 30.9173 64.9037 31.12C64.9037 31.304 64.885 31.4667 64.8477 31.608C64.8104 31.7467 64.7544 31.868 64.6797 31.972C64.6077 32.0733 64.517 32.16 64.4077 32.232C64.301 32.3013 64.1784 32.36 64.0397 32.408C64.685 32.6347 65.0077 33.0747 65.0077 33.728C65.0077 34.0373 64.9517 34.3067 64.8397 34.536C64.7277 34.7653 64.577 34.956 64.3877 35.108C64.201 35.26 63.9837 35.3747 63.7357 35.452C63.4877 35.5267 63.229 35.564 62.9597 35.564C62.6824 35.564 62.4357 35.5347 62.2197 35.476C62.0037 35.4147 61.8117 35.3213 61.6437 35.196C61.4757 35.068 61.3277 34.9053 61.1997 34.708C61.0744 34.5107 60.965 34.276 60.8717 34.004L61.4237 33.78C61.5677 33.724 61.701 33.7093 61.8237 33.736C61.9464 33.7627 62.0344 33.824 62.0877 33.92C62.2077 34.1413 62.3344 34.3027 62.4677 34.404C62.6037 34.5027 62.7624 34.552 62.9437 34.552C63.0824 34.552 63.2024 34.5293 63.3037 34.484C63.4077 34.436 63.493 34.376 63.5597 34.304C63.629 34.2293 63.681 34.1453 63.7157 34.052C63.7504 33.9587 63.7677 33.864 63.7677 33.768C63.7677 33.6427 63.7584 33.5307 63.7397 33.432C63.7237 33.3307 63.6757 33.244 63.5957 33.172C63.5157 33.1 63.3944 33.0453 63.2317 33.008C63.0717 32.968 62.8477 32.948 62.5597 32.948V32.092C62.8024 32.092 62.9984 32.0733 63.1477 32.036C63.297 31.9987 63.4117 31.948 63.4917 31.884C63.5744 31.8173 63.629 31.7373 63.6557 31.644C63.6824 31.5507 63.6957 31.448 63.6957 31.336C63.6957 31.1067 63.6397 30.9307 63.5277 30.808C63.4184 30.6827 63.2504 30.62 63.0237 30.62C62.8397 30.62 62.6837 30.6693 62.5557 30.768C62.4304 30.864 62.3437 30.984 62.2957 31.128C62.2397 31.2747 62.1664 31.372 62.0757 31.42C61.985 31.468 61.8557 31.4787 61.6877 31.452L61.0317 31.336Z" fill="black"/>
</svg>
