<?xml version="1.0" encoding="utf-8"?>
<svg width="13px" height="11px" viewbox="0 0 13 11" version="1.1" xmlns:xlink="http://www.w3.org/1999/xlink" xmlns="http://www.w3.org/2000/svg">
  <defs>
    <rect width="13" height="11" id="artboard_1" />
    <clipPath id="clip_1">
      <use xlink:href="#artboard_1" clip-rule="evenodd" />
    </clipPath>
  </defs>
  <g id="bmp00178-Dark" clip-path="url(#clip_1)">
    <g id="LFO-Presets" transform="translate(0.5001221 0.5)">
      <path d="M1.999 0L10.001 0Q10.0992 0 10.1969 0.00962573Q10.2947 0.0192515 10.391 0.0384102Q10.4873 0.057569 10.5813 0.0860763Q10.6753 0.114584 10.766 0.152165Q10.8567 0.189746 10.9433 0.236039Q11.0299 0.282333 11.1116 0.336892Q11.1932 0.391452 11.2692 0.453752Q11.3451 0.516052 11.4145 0.585494Q11.4839 0.654935 11.5462 0.730848Q11.6085 0.806761 11.6631 0.888415Q11.7177 0.970069 11.764 1.05668Q11.8103 1.14329 11.8478 1.23402Q11.8854 1.32474 11.9139 1.41872Q11.9424 1.5127 11.9616 1.60901Q11.9807 1.70533 11.9904 1.80306Q12 1.9008 12 1.999L12 8.001Q12 8.09921 11.9904 8.19694Q11.9807 8.29467 11.9616 8.39098Q11.9424 8.4873 11.9139 8.58128Q11.8854 8.67525 11.8478 8.76598Q11.8103 8.85671 11.764 8.94332Q11.7177 9.02993 11.6631 9.11158Q11.6085 9.19324 11.5462 9.26915Q11.4839 9.34507 11.4145 9.41451Q11.3451 9.48395 11.2692 9.54625Q11.1932 9.60855 11.1116 9.66311Q11.0299 9.71767 10.9433 9.76396Q10.8567 9.81025 10.766 9.84783Q10.6753 9.88542 10.5813 9.91392Q10.4873 9.94243 10.391 9.96159Q10.2947 9.98075 10.1969 9.99037Q10.0992 10 10.001 10L1.999 10Q1.9008 10 1.80306 9.99037Q1.70533 9.98075 1.60901 9.96159Q1.5127 9.94243 1.41872 9.91392Q1.32474 9.88542 1.23402 9.84783Q1.14329 9.81025 1.05668 9.76396Q0.970069 9.71767 0.888415 9.66311Q0.806761 9.60855 0.730848 9.54625Q0.654935 9.48395 0.585494 9.41451Q0.516052 9.34507 0.453752 9.26915Q0.391452 9.19324 0.336892 9.11158Q0.282333 9.02993 0.236039 8.94332Q0.189746 8.85671 0.152165 8.76598Q0.114584 8.67525 0.0860763 8.58128Q0.057569 8.4873 0.0384102 8.39098Q0.0192515 8.29467 0.00962573 8.19694Q0 8.09921 0 8.001L0 1.999Q0 1.9008 0.00962573 1.80306Q0.0192515 1.70533 0.0384102 1.60901Q0.057569 1.5127 0.0860763 1.41872Q0.114584 1.32474 0.152165 1.23402Q0.189746 1.14329 0.236039 1.05668Q0.282333 0.970069 0.336892 0.888415Q0.391452 0.806761 0.453752 0.730848Q0.516052 0.654935 0.585494 0.585494Q0.654935 0.516052 0.730848 0.453752Q0.806761 0.391452 0.888415 0.336892Q0.970069 0.282333 1.05668 0.236039Q1.14329 0.189746 1.23402 0.152165Q1.32474 0.114584 1.41872 0.0860763Q1.5127 0.057569 1.60901 0.0384102Q1.70533 0.0192515 1.80306 0.00962573Q1.9008 0 1.999 0Z" id="BG" fill="#242424" fill-rule="evenodd" stroke="#0F0F0F" stroke-width="1" />
      <path d="M2.00001 0L6.97904 0.0115654L7.00001 1L2.02098 0.988435L2.00001 0L2.00001 0ZM0 3.05176e-05L1 3.05176e-05L1 1.00003L0 1.00003L0 3.05176e-05L0 3.05176e-05ZM6.97904 2.01157L2.00001 2L2.02099 2.98843L7.00001 3L6.97904 2.01157L6.97904 2.01157ZM0 2.00003L1 2.00003L1 3.00003L0 3.00003L0 2.00003L0 2.00003ZM2.00001 4L6.97904 4.01157L7.00001 5L2.02099 4.98843L2.00001 4L2.00001 4ZM1 4.00003L0 4.00003L0 5.00003L1 5.00003L1 4.00003L1 4.00003Z" transform="translate(2.499878 2.4999695)" id="Hamburger" fill="#D3D3D3" fill-rule="evenodd" stroke="none" />
    </g>
  </g>
</svg>