<?xml version="1.0" encoding="utf-8"?>
<svg width="45px" height="18px" viewbox="0 0 45 18" version="1.1" xmlns:xlink="http://www.w3.org/1999/xlink" xmlns="http://www.w3.org/2000/svg">
  <defs>
    <path d="M0 0L45 0L45 18L0 18L0 0Z" id="path_1" />
    <rect width="45" height="18" id="artboard_1" />
    <clipPath id="clip_1">
      <use xlink:href="#artboard_1" clip-rule="evenodd" />
    </clipPath>
    <clipPath id="mask_1">
      <use xlink:href="#path_1" />
    </clipPath>
  </defs>
  <g id="bmp00125" clip-path="url(#clip_1)">
    <path d="M0 0L45 0L45 18L0 18L0 0Z" id="Background" fill="none" fill-rule="evenodd" stroke="none" />
    <g clip-path="url(#mask_1)">
      <path d="M1.352 2.424L1.568 2.424C1.768 2.424 1.912 2.36133 2 2.236L3.312 0.331995C3.38934 0.230665 3.472 0.161325 3.56 0.123996C3.65067 0.0839953 3.76267 0.0639954 3.896 0.0639954L5.072 0.0639954L3.344 2.42C3.22134 2.58267 3.08934 2.7 2.948 2.772C3.04934 2.80933 3.14134 2.86133 3.224 2.928C3.30667 2.99467 3.384 3.08133 3.456 3.188L5.216 5.89199L4.008 5.89199C3.93067 5.89199 3.864 5.88666 3.808 5.876C3.75467 5.86533 3.708 5.84933 3.668 5.82799C3.628 5.80667 3.59334 5.78132 3.564 5.752C3.53467 5.72 3.50667 5.684 3.48 5.644L2.16 3.616C2.112 3.54133 2.05067 3.48933 1.976 3.46C1.904 3.428 1.80534 3.412 1.68 3.412L1.352 3.412L1.352 5.89199L0 5.89199L0 0.0639954L1.352 0.0639954L1.352 2.424L1.352 2.424ZM6.88844 1.104L6.88844 2.464L8.72049 2.464L8.72049 3.464L6.88844 3.464L6.88844 4.85199L9.28049 4.85199L9.28049 5.89199L5.52844 5.89199L5.52844 0.0639954L9.28049 0.0639954L9.28049 1.104L6.88844 1.104L6.88844 1.104ZM12.7864 3.676L12.7864 5.89199L11.4344 5.89199L11.4344 3.676L9.32239 0.0639954L10.5144 0.0639954C10.6317 0.0639954 10.7237 0.0919955 10.7904 0.147995C10.8597 0.201325 10.9171 0.270665 10.9624 0.355995L11.7864 2.052C11.8557 2.18533 11.9184 2.31067 11.9744 2.428C12.0304 2.54267 12.0797 2.656 12.1224 2.768C12.1624 2.65333 12.2077 2.53867 12.2584 2.424C12.3117 2.30667 12.3731 2.18267 12.4424 2.052L13.2584 0.355995C13.2771 0.321326 13.2997 0.286665 13.3264 0.251995C13.3531 0.217325 13.3837 0.186666 13.4184 0.159995C13.4557 0.130666 13.4971 0.107996 13.5424 0.0919955C13.5904 0.0733254 13.6424 0.0639954 13.6984 0.0639954L14.8984 0.0639954L12.7864 3.676L12.7864 3.676ZM19.4218 1.136L17.7818 1.136L17.7818 5.89199L16.4298 5.89199L16.4298 1.136L14.7898 1.136L14.7898 0.0639954L19.4218 0.0639954L19.4218 1.136L19.4218 1.136ZM21.8848 2.80399C22.0688 2.80399 22.2248 2.78132 22.3528 2.73599C22.4834 2.68799 22.5901 2.62266 22.6728 2.53999C22.7554 2.45732 22.8154 2.36132 22.8528 2.25199C22.8901 2.13999 22.9088 2.01999 22.9088 1.89199C22.9088 1.63599 22.8248 1.43599 22.6568 1.29199C22.4914 1.14799 22.2341 1.07599 21.8848 1.07599L21.3408 1.07599L21.3408 2.80399L21.8848 2.80399L21.8848 2.80399ZM24.7568 5.89199L23.5328 5.89199C23.3061 5.89199 23.1434 5.80667 23.0448 5.63599L22.0768 3.944C22.0314 3.872 21.9808 3.82 21.9248 3.788C21.8688 3.75333 21.7888 3.736 21.6848 3.736L21.3408 3.736L21.3408 5.89199L19.9888 5.89199L19.9888 0.0639954L21.8848 0.0639954C22.3061 0.0639954 22.6648 0.107996 22.9608 0.195995C23.2594 0.281325 23.5021 0.401325 23.6888 0.555995C23.8781 0.710665 24.0154 0.893325 24.1008 1.104C24.1861 1.31467 24.2288 1.544 24.2288 1.792C24.2288 1.98133 24.2034 2.16 24.1528 2.328C24.1021 2.496 24.0274 2.652 23.9288 2.79599C23.8301 2.93733 23.7074 3.064 23.5608 3.176C23.4168 3.288 23.2501 3.38 23.0608 3.452C23.1488 3.49733 23.2314 3.55467 23.3088 3.624C23.3861 3.69067 23.4554 3.77067 23.5168 3.864L24.7568 5.89199L24.7568 5.89199ZM28.2066 3.66401L27.6666 2.06801C27.6266 1.96668 27.5839 1.84801 27.5386 1.71201C27.4932 1.57334 27.4479 1.42401 27.4026 1.26401C27.3626 1.42668 27.3199 1.57734 27.2746 1.71601C27.2292 1.85468 27.1866 1.97468 27.1466 2.07601L26.6106 3.66401L28.2066 3.66401L28.2066 3.66401ZM30.3546 5.89199L29.3066 5.89199C29.1892 5.89199 29.0946 5.86533 29.0226 5.812C28.9506 5.75599 28.8959 5.68533 28.8586 5.6L28.5146 4.58399L26.2986 4.58399L25.9546 5.6C25.9252 5.67467 25.8719 5.74267 25.7946 5.804C25.7199 5.86267 25.6266 5.89199 25.5146 5.89199L24.4586 5.89199L26.7146 0.0639954L28.0986 0.0639954L30.3546 5.89199L30.3546 5.89199ZM34.4268 4.384C34.4588 4.384 34.4908 4.39067 34.5228 4.404C34.5548 4.41467 34.5854 4.43467 34.6148 4.464L35.1508 5.028C34.9161 5.33467 34.6214 5.56667 34.2668 5.724C33.9148 5.87867 33.4974 5.956 33.0148 5.956C32.5721 5.956 32.1748 5.88133 31.8228 5.732C31.4734 5.58 31.1761 5.372 30.9308 5.108C30.6881 4.84133 30.5014 4.52667 30.3708 4.164C30.2401 3.79867 30.1748 3.40267 30.1748 2.976C30.1748 2.54133 30.2454 2.14267 30.3868 1.78C30.5281 1.41467 30.7268 1.1 30.9828 0.836C31.2388 0.572 31.5454 0.36667 31.9028 0.22C32.2601 0.0733299 32.6534 0 33.0828 0C33.3014 0 33.5068 0.02 33.6988 0.0599999C33.8934 0.0973299 34.0748 0.15067 34.2428 0.22C34.4108 0.28667 34.5654 0.368 34.7068 0.464C34.8481 0.56 34.9734 0.664 35.0828 0.776L34.6268 1.388C34.5974 1.42533 34.5628 1.46 34.5228 1.492C34.4828 1.52133 34.4268 1.536 34.3548 1.536C34.3068 1.536 34.2614 1.52533 34.2188 1.504C34.1761 1.48267 34.1308 1.45733 34.0828 1.428C34.0348 1.396 33.9814 1.36267 33.9228 1.328C33.8668 1.29067 33.7988 1.25733 33.7188 1.228C33.6414 1.196 33.5494 1.16933 33.4428 1.148C33.3388 1.12667 33.2161 1.116 33.0748 1.116C32.8508 1.116 32.6454 1.15733 32.4588 1.24C32.2748 1.32267 32.1148 1.444 31.9788 1.604C31.8454 1.76133 31.7414 1.956 31.6668 2.188C31.5948 2.41733 31.5588 2.68 31.5588 2.976C31.5588 3.27467 31.5988 3.54 31.6788 3.772C31.7614 4.004 31.8721 4.2 32.0108 4.36C32.1521 4.51733 32.3161 4.63733 32.5028 4.72C32.6894 4.80267 32.8894 4.844 33.1028 4.844C33.2254 4.844 33.3374 4.83867 33.4388 4.828C33.5401 4.81467 33.6348 4.79467 33.7228 4.768C33.8108 4.73867 33.8934 4.70133 33.9708 4.656C34.0481 4.608 34.1268 4.548 34.2068 4.476C34.2388 4.44933 34.2734 4.428 34.3108 4.412C34.3481 4.39333 34.3868 4.384 34.4268 4.384L34.4268 4.384ZM36.973 2.424L37.189 2.424C37.389 2.424 37.533 2.36133 37.621 2.236L38.933 0.331995C39.0103 0.230665 39.093 0.161325 39.181 0.123996C39.2716 0.0839953 39.3836 0.0639954 39.517 0.0639954L40.693 0.0639954L38.965 2.42C38.8423 2.58267 38.7103 2.7 38.569 2.772C38.6703 2.80933 38.7623 2.86133 38.845 2.928C38.9276 2.99467 39.005 3.08133 39.077 3.188L40.837 5.89199L39.629 5.89199C39.5516 5.89199 39.485 5.88666 39.429 5.876C39.3756 5.86533 39.329 5.84933 39.289 5.82799C39.249 5.80667 39.2143 5.78132 39.185 5.752C39.1556 5.72 39.1276 5.684 39.101 5.644L37.781 3.616C37.733 3.54133 37.6716 3.48933 37.597 3.46C37.525 3.428 37.4263 3.412 37.301 3.412L36.973 3.412L36.973 5.89199L35.621 5.89199L35.621 0.0639954L36.973 0.0639954L36.973 2.424L36.973 2.424Z" transform="translate(2.4293213 1.6099854)" id="Shape" fill="#FF9000" fill-rule="evenodd" stroke="none" />
      <path d="M0 2L0 1C0 0.723858 0.0976311 0.488155 0.292893 0.292893C0.488155 0.0976311 0.723858 0 1 0L43 0C43.2761 0 43.5118 0.0976311 43.7071 0.292893C43.9024 0.488155 44 0.723858 44 1L44 7C44 7.27614 43.9024 7.51184 43.7071 7.70711C43.5118 7.90237 43.2761 8 43 8L1 8C0.723858 8 0.488155 7.90237 0.292893 7.70711C0.0976311 7.51184 0 7.27614 0 7L0 2Z" transform="translate(0.5 9.5)" id="Rectangle" fill="#FF9300" fill-rule="evenodd" stroke="none" />
      <path d="M1.352 2.424L1.568 2.424C1.768 2.424 1.912 2.3613 2 2.236L3.312 0.331995C3.38934 0.230696 3.472 0.161296 3.56 0.123996C3.65067 0.0839958 3.76267 0.0639954 3.896 0.0639954L5.072 0.0639954L3.344 2.42C3.22134 2.58269 3.08934 2.7 2.948 2.772C3.04934 2.8093 3.14134 2.8613 3.224 2.928C3.30667 2.9947 3.384 3.0813 3.456 3.18799L5.216 5.89199L4.008 5.89199C3.93067 5.89199 3.864 5.88669 3.808 5.87599C3.75467 5.8653 3.708 5.8493 3.668 5.828C3.628 5.80669 3.59334 5.78129 3.564 5.752C3.53467 5.71999 3.50667 5.684 3.48 5.644L2.16 3.616C2.112 3.54129 2.05067 3.48929 1.976 3.46C1.904 3.428 1.80534 3.412 1.68 3.412L1.352 3.412L1.352 5.89199L0 5.89199L0 0.0639954L1.352 0.0639954L1.352 2.424L1.352 2.424ZM6.88844 1.104L6.88844 2.46399L8.72049 2.46399L8.72049 3.46399L6.88844 3.46399L6.88844 4.85199L9.28049 4.85199L9.28049 5.89199L5.52844 5.89199L5.52844 0.0639954L9.28049 0.0639954L9.28049 1.104L6.88844 1.104L6.88844 1.104ZM12.7864 3.676L12.7864 5.89199L11.4344 5.89199L11.4344 3.676L9.32239 0.0639954L10.5144 0.0639954C10.6317 0.0639954 10.7237 0.0919952 10.7904 0.147995C10.8597 0.201296 10.9171 0.270696 10.9624 0.355995L11.7864 2.052C11.8557 2.18529 11.9184 2.3107 11.9744 2.428C12.0304 2.54269 12.0797 2.656 12.1224 2.768C12.1624 2.6533 12.2077 2.5387 12.2584 2.424C12.3117 2.30669 12.3731 2.1827 12.4424 2.052L13.2584 0.355995C13.2771 0.321296 13.2997 0.286695 13.3264 0.251995C13.3531 0.217296 13.3837 0.186695 13.4184 0.159995C13.4557 0.130695 13.4971 0.107995 13.5424 0.0919952C13.5904 0.0732956 13.6424 0.0639954 13.6984 0.0639954L14.8984 0.0639954L12.7864 3.676L12.7864 3.676ZM19.4218 1.136L17.7818 1.136L17.7818 5.89199L16.4298 5.89199L16.4298 1.136L14.7898 1.136L14.7898 0.0639954L19.4218 0.0639954L19.4218 1.136L19.4218 1.136ZM21.8848 2.80399C22.0688 2.80399 22.2248 2.78129 22.3528 2.73599C22.4834 2.68799 22.5901 2.62269 22.6728 2.53999C22.7554 2.45729 22.8154 2.36129 22.8528 2.25199C22.8901 2.13999 22.9088 2.01999 22.9088 1.89199C22.9088 1.63599 22.8248 1.43599 22.6568 1.29199C22.4914 1.14799 22.2341 1.07599 21.8848 1.07599L21.3408 1.07599L21.3408 2.80399L21.8848 2.80399L21.8848 2.80399ZM24.7568 5.89199L23.5328 5.89199C23.3061 5.89199 23.1434 5.80669 23.0448 5.63599L22.0768 3.944C22.0314 3.87199 21.9808 3.82 21.9248 3.788C21.8688 3.7533 21.7888 3.736 21.6848 3.736L21.3408 3.736L21.3408 5.89199L19.9888 5.89199L19.9888 0.0639954L21.8848 0.0639954C22.3061 0.0639954 22.6648 0.107995 22.9608 0.195995C23.2594 0.281296 23.5021 0.401296 23.6888 0.555995C23.8781 0.710695 24.0154 0.893295 24.1008 1.104C24.1861 1.3147 24.2288 1.544 24.2288 1.79199C24.2288 1.9813 24.2034 2.16 24.1528 2.328C24.1021 2.496 24.0274 2.652 23.9288 2.796C23.8301 2.93729 23.7074 3.064 23.5608 3.176C23.4168 3.288 23.2501 3.38 23.0608 3.452C23.1488 3.4973 23.2314 3.55469 23.3088 3.624C23.3861 3.6907 23.4554 3.7707 23.5168 3.864L24.7568 5.89199L24.7568 5.89199ZM28.2066 3.66401L27.6666 2.06801C27.6266 1.96671 27.5839 1.84801 27.5386 1.71201C27.4932 1.57331 27.4479 1.42401 27.4026 1.26401C27.3626 1.42671 27.3199 1.57731 27.2746 1.71601C27.2292 1.85471 27.1866 1.97471 27.1466 2.07601L26.6106 3.66401L28.2066 3.66401L28.2066 3.66401ZM30.3546 5.89199L29.3066 5.89199C29.1892 5.89199 29.0946 5.8653 29.0226 5.812C28.9506 5.756 28.8959 5.6853 28.8586 5.6L28.5146 4.584L26.2986 4.584L25.9546 5.6C25.9252 5.6747 25.8719 5.7427 25.7946 5.804C25.7199 5.86269 25.6266 5.89199 25.5146 5.89199L24.4586 5.89199L26.7146 0.0639954L28.0986 0.0639954L30.3546 5.89199L30.3546 5.89199ZM34.4268 4.384C34.4588 4.384 34.4908 4.3907 34.5228 4.404C34.5548 4.4147 34.5854 4.4347 34.6148 4.464L35.1508 5.028C34.9161 5.3347 34.6214 5.5667 34.2668 5.724C33.9148 5.8787 33.4974 5.956 33.0148 5.956C32.5721 5.956 32.1748 5.8813 31.8228 5.732C31.4734 5.58 31.1761 5.372 30.9308 5.108C30.6881 4.8413 30.5014 4.5267 30.3708 4.164C30.2401 3.7987 30.1748 3.4027 30.1748 2.976C30.1748 2.5413 30.2454 2.1427 30.3868 1.78C30.5281 1.4147 30.7268 1.1 30.9828 0.836001C31.2388 0.572001 31.5454 0.3667 31.9028 0.22C32.2601 0.0733004 32.6534 0 33.0828 0C33.3014 0 33.5068 0.0200005 33.6988 0.0600004C33.8934 0.0973005 34.0748 0.150701 34.2428 0.22C34.4108 0.2867 34.5654 0.368 34.7068 0.464C34.8481 0.56 34.9734 0.664001 35.0828 0.776L34.6268 1.388C34.5974 1.4253 34.5628 1.46 34.5228 1.492C34.4828 1.5213 34.4268 1.536 34.3548 1.536C34.3068 1.536 34.2614 1.5253 34.2188 1.504C34.1761 1.4827 34.1308 1.4573 34.0828 1.428C34.0348 1.396 33.9814 1.3627 33.9228 1.328C33.8668 1.2907 33.7988 1.2573 33.7188 1.228C33.6414 1.196 33.5494 1.1693 33.4428 1.148C33.3388 1.1267 33.2161 1.116 33.0748 1.116C32.8508 1.116 32.6454 1.1573 32.4588 1.24C32.2748 1.3227 32.1148 1.444 31.9788 1.604C31.8454 1.7613 31.7414 1.956 31.6668 2.188C31.5948 2.4173 31.5588 2.68 31.5588 2.976C31.5588 3.2747 31.5988 3.54 31.6788 3.772C31.7614 4.004 31.8721 4.2 32.0108 4.36C32.1521 4.5173 32.3161 4.6373 32.5028 4.72C32.6894 4.8027 32.8894 4.844 33.1028 4.844C33.2254 4.844 33.3374 4.8387 33.4388 4.828C33.5401 4.8147 33.6348 4.7947 33.7228 4.768C33.8108 4.7387 33.8934 4.7013 33.9708 4.656C34.0481 4.608 34.1268 4.548 34.2068 4.476C34.2388 4.4493 34.2734 4.428 34.3108 4.412C34.3481 4.3933 34.3868 4.384 34.4268 4.384L34.4268 4.384ZM36.973 2.424L37.189 2.424C37.389 2.424 37.533 2.3613 37.621 2.236L38.933 0.331995C39.0103 0.230696 39.093 0.161296 39.181 0.123996C39.2716 0.0839958 39.3836 0.0639954 39.517 0.0639954L40.693 0.0639954L38.965 2.42C38.8423 2.58269 38.7103 2.7 38.569 2.772C38.6703 2.8093 38.7623 2.8613 38.845 2.928C38.9276 2.9947 39.005 3.0813 39.077 3.18799L40.837 5.89199L39.629 5.89199C39.5516 5.89199 39.485 5.88669 39.429 5.87599C39.3756 5.8653 39.329 5.8493 39.289 5.828C39.249 5.80669 39.2143 5.78129 39.185 5.752C39.1556 5.71999 39.1276 5.684 39.101 5.644L37.781 3.616C37.733 3.54129 37.6716 3.48929 37.597 3.46C37.525 3.428 37.4263 3.412 37.301 3.412L36.973 3.412L36.973 5.89199L35.621 5.89199L35.621 0.0639954L36.973 0.0639954L36.973 2.424L36.973 2.424Z" transform="translate(2.4293213 10.609985)" id="Shape" fill="#000000" fill-rule="evenodd" stroke="none" />
      <path d="M0 2L0 1C0 0.723858 0.0976311 0.488155 0.292893 0.292893C0.488155 0.0976311 0.723858 0 1 0L43 0C43.2761 0 43.5118 0.0976311 43.7071 0.292893C43.9024 0.488155 44 0.723858 44 1L44 7C44 7.27614 43.9024 7.51184 43.7071 7.70711C43.5118 7.90237 43.2761 8 43 8L1 8C0.723858 8 0.488155 7.90237 0.292893 7.70711C0.0976311 7.51184 0 7.27614 0 7L0 2Z" transform="translate(0.5 9.5)" id="Rectangle" fill="none" fill-rule="evenodd" stroke="#FF9300" stroke-width="1" />
    </g>
  </g>
</svg>