<svg width="106" height="18" viewBox="0 0 106 18" fill="none" xmlns="http://www.w3.org/2000/svg">
<path d="M3 3.5H101V2.5H3V3.5ZM102.5 5V12H103.5V5H102.5ZM101 13.5H3V14.5H101V13.5ZM1.5 12V5H0.5V12H1.5ZM3 13.5C2.17157 13.5 1.5 12.8284 1.5 12H0.5C0.5 13.3807 1.61929 14.5 3 14.5V13.5ZM102.5 12C102.5 12.8284 101.828 13.5 101 13.5V14.5C102.381 14.5 103.5 13.3807 103.5 12H102.5ZM101 3.5C101.828 3.5 102.5 4.17157 102.5 5H103.5C103.5 3.61929 102.381 2.5 101 2.5V3.5ZM3 2.5C1.61929 2.5 0.5 3.61929 0.5 5H1.5C1.5 4.17157 2.17157 3.5 3 3.5V2.5Z" fill="#EEEEEE"/>
<path d="M96 10.5L93.5 7.5L98.5 7.5L96 10.5Z" fill="white"/>
</svg>
