<?xml version="1.0" encoding="UTF-8"?>
<svg width="51px" height="54px" viewBox="0 0 51 54" version="1.1" xmlns="http://www.w3.org/2000/svg" xmlns:xlink="http://www.w3.org/1999/xlink">
    <title>bmp00113</title>
    <g id="bmp00113" stroke="none" stroke-width="1" fill="none" fill-rule="evenodd">
        <g id="button/smallButton" fill="#242424" stroke="#0F0F0F">
            <rect id="Rectangle" x="0.5" y="0.5" width="50" height="26" rx="2"></rect>
        </g>
        <g id="button/smallButton" transform="translate(0.000000, 27.000000)" fill="#242424" stroke="#0F0F0F">
            <rect id="Rectangle" x="0.5" y="0.5" width="50" height="26" rx="2"></rect>
        </g>
        <rect id="Rectangle" fill="#FF9000" x="2" y="2" width="22" height="23" rx="1"></rect>
        <rect id="Rectangle" fill="#FF9000" x="27" y="29" width="22" height="23" rx="1"></rect>
        <g id="Group" transform="translate(7.000000, 2.000000)">
            <rect id="Rectangle" fill="#0F0F0F" x="18" y="0" width="1" height="23"></rect>
            <path d="M0.978027344,17 L5.1015625,6.26269531 L6.63232422,6.26269531 L11.0268555,17 L9.40820312,17 L8.15576172,13.7480469 L3.66601562,13.7480469 L2.48681641,17 L0.978027344,17 Z M4.07617188,12.5908203 L7.71630859,12.5908203 L6.59570312,9.6171875 C6.25390454,8.71386267 6.00000083,7.97168259 5.83398438,7.390625 C5.69726494,8.079105 5.50439578,8.76269192 5.25537109,9.44140625 L4.07617188,12.5908203 Z" id="A" fill="#000000"></path>
            <path d="M27.0986328,17 L27.0986328,6.26269531 L31.1269531,6.26269531 C31.9472697,6.26269531 32.6052221,6.3713368 33.1008301,6.58862305 C33.596438,6.80590929 33.9846177,7.1403786 34.2653809,7.59204102 C34.546144,8.04370343 34.6865234,8.51611082 34.6865234,9.00927734 C34.6865234,9.46826401 34.562013,9.9003886 34.3129883,10.3056641 C34.0639636,10.7109395 33.6879908,11.0380847 33.1850586,11.2871094 C33.8344759,11.47754 34.3337385,11.8022438 34.6828613,12.2612305 C35.0319842,12.7202171 35.206543,13.2622039 35.206543,13.887207 C35.206543,14.3901392 35.1003429,14.8576639 34.8879395,15.2897949 C34.675536,15.721926 34.4130875,16.0551746 34.1005859,16.2895508 C33.7880844,16.523927 33.3962426,16.7009271 32.9250488,16.8205566 C32.4538551,16.9401861 31.8764683,17 31.1928711,17 L27.0986328,17 Z M28.5195312,10.7744141 L30.8413086,10.7744141 C31.4711946,10.7744141 31.9228502,10.7329106 32.1962891,10.6499023 C32.557619,10.5424799 32.8298331,10.3642591 33.0129395,10.1152344 C33.1960458,9.86620969 33.2875977,9.55371282 33.2875977,9.17773438 C33.2875977,8.82128728 33.2021493,8.50756971 33.03125,8.23657227 C32.8603507,7.96557482 32.6162125,7.7800298 32.2988281,7.67993164 C31.9814437,7.57983348 31.4370156,7.52978516 30.6655273,7.52978516 L28.5195312,7.52978516 L28.5195312,10.7744141 Z M28.5195312,15.7329102 L31.1928711,15.7329102 C31.6518578,15.7329102 31.9741202,15.7158205 32.159668,15.6816406 C32.486818,15.6230466 32.7602528,15.5253913 32.9799805,15.3886719 C33.1997081,15.2519524 33.3803704,15.0529798 33.5219727,14.791748 C33.6635749,14.5305163 33.734375,14.2290056 33.734375,13.887207 C33.734375,13.4868144 33.631837,13.1389175 33.4267578,12.8435059 C33.2216787,12.5480942 32.9372577,12.3405768 32.5734863,12.2209473 C32.209715,12.1013178 31.6860386,12.0415039 31.0024414,12.0415039 L28.5195312,12.0415039 L28.5195312,15.7329102 Z" id="B" fill="#B4B4B4" fill-rule="nonzero"></path>
        </g>
        <g id="Group" transform="translate(7.000000, 29.000000)">
            <rect id="Rectangle" fill="#0F0F0F" x="18" y="0" width="1" height="23"></rect>
            <path d="M0.978027344,17 L5.1015625,6.26269531 L6.63232422,6.26269531 L11.0268555,17 L9.40820312,17 L8.15576172,13.7480469 L3.66601562,13.7480469 L2.48681641,17 L0.978027344,17 Z M4.07617188,12.5908203 L7.71630859,12.5908203 L6.59570312,9.6171875 C6.25390454,8.71386267 6.00000083,7.97168259 5.83398438,7.390625 C5.69726494,8.079105 5.50439578,8.76269192 5.25537109,9.44140625 L4.07617188,12.5908203 Z" id="A" fill="#B4B4B4" fill-rule="nonzero"></path>
            <path d="M27.0986328,17 L27.0986328,6.26269531 L31.1269531,6.26269531 C31.9472697,6.26269531 32.6052221,6.3713368 33.1008301,6.58862305 C33.596438,6.80590929 33.9846177,7.1403786 34.2653809,7.59204102 C34.546144,8.04370343 34.6865234,8.51611082 34.6865234,9.00927734 C34.6865234,9.46826401 34.562013,9.9003886 34.3129883,10.3056641 C34.0639636,10.7109395 33.6879908,11.0380847 33.1850586,11.2871094 C33.8344759,11.47754 34.3337385,11.8022438 34.6828613,12.2612305 C35.0319842,12.7202171 35.206543,13.2622039 35.206543,13.887207 C35.206543,14.3901392 35.1003429,14.8576639 34.8879395,15.2897949 C34.675536,15.721926 34.4130875,16.0551746 34.1005859,16.2895508 C33.7880844,16.523927 33.3962426,16.7009271 32.9250488,16.8205566 C32.4538551,16.9401861 31.8764683,17 31.1928711,17 L27.0986328,17 Z M28.5195312,10.7744141 L30.8413086,10.7744141 C31.4711946,10.7744141 31.9228502,10.7329106 32.1962891,10.6499023 C32.557619,10.5424799 32.8298331,10.3642591 33.0129395,10.1152344 C33.1960458,9.86620969 33.2875977,9.55371282 33.2875977,9.17773438 C33.2875977,8.82128728 33.2021493,8.50756971 33.03125,8.23657227 C32.8603507,7.96557482 32.6162125,7.7800298 32.2988281,7.67993164 C31.9814437,7.57983348 31.4370156,7.52978516 30.6655273,7.52978516 L28.5195312,7.52978516 L28.5195312,10.7744141 Z M28.5195312,15.7329102 L31.1928711,15.7329102 C31.6518578,15.7329102 31.9741202,15.7158205 32.159668,15.6816406 C32.486818,15.6230466 32.7602528,15.5253913 32.9799805,15.3886719 C33.1997081,15.2519524 33.3803704,15.0529798 33.5219727,14.791748 C33.6635749,14.5305163 33.734375,14.2290056 33.734375,13.887207 C33.734375,13.4868144 33.631837,13.1389175 33.4267578,12.8435059 C33.2216787,12.5480942 32.9372577,12.3405768 32.5734863,12.2209473 C32.209715,12.1013178 31.6860386,12.0415039 31.0024414,12.0415039 L28.5195312,12.0415039 L28.5195312,15.7329102 Z" id="B" fill="#000000"></path>
        </g>
        <g id="Group-2" transform="translate(8.000000, 5.000000)"></g>
        <g id="Group-2" transform="translate(8.000000, 32.000000)"></g>
        <g id="Font-Layer" transform="translate(8.000000, 4.000000)"></g>
    </g>
</svg>