<?xml version="1.0" encoding="utf-8"?>
<svg width="22px" height="30px" viewBox="0 0 22 30" version="1.1" xmlns:xlink="http://www.w3.org/1999/xlink" xmlns="http://www.w3.org/2000/svg">
  <desc>Created with Lunacy</desc>
  <defs>
    <rect width="22" height="30" id="artboard_1" />
    <clipPath id="clip_1">
      <use xlink:href="#artboard_1" clip-rule="evenodd" />
    </clipPath>
  </defs>
  <g id="bmp00134" clip-path="url(#clip_1)">
    <path d="M1.61538 0L12.3846 0C13.2767 0 14 0.783498 14 1.75L14 5.25C14 6.2165 13.2767 7 12.3846 7L1.61538 7C0.723229 7 0 6.2165 0 5.25L0 1.75C0 0.783498 0.723229 0 1.61538 0L1.61538 0Z" transform="translate(4 4)" id="Shape" fill="#242424" fill-rule="evenodd" stroke="#1D1D1D" stroke-width="1" />
    <path d="M12 0L2 0C0.89543 0 0 0.895399 0 2L0 5C0 6.1046 0.89543 7 2 7L12 7C13.1046 7 14 6.1046 14 5L14 2C14 0.895399 13.1046 0 12 0L12 0Z" transform="translate(4 19)" id="Shape" fill="#005CB6" fill-rule="evenodd" stroke="#1D1D1D" stroke-width="1" />
    <path d="M1.00575 4.91738L1.00575 2.08913C1.00575 2.02388 1.0035 1.95244 0.999 1.87482C0.9945 1.79719 0.98775 1.719 0.97875 1.64025L2.2882 4.17151C2.3287 4.25026 2.3833 4.30988 2.4519 4.35038C2.5206 4.39088 2.5987 4.41113 2.6865 4.41113L2.8417 4.41113C2.9295 4.41113 3.0077 4.39088 3.0763 4.35038C3.1449 4.30988 3.1995 4.25026 3.24 4.17151L4.5427 1.64363C4.5292 1.80338 4.5225 1.95188 4.5225 2.08913L4.5225 4.91738L5.5282 4.91738L5.5282 0L4.6575 0C4.608 0 4.5647 0.00112963 4.5276 0.00337982C4.4904 0.00563002 4.4572 0.0123796 4.428 0.0236297C4.3987 0.0348797 4.3723 0.05232 4.3487 0.0759397C4.3251 0.0995698 4.302 0.13275 4.2795 0.1755L3.0172 2.65951C2.9722 2.74725 2.9284 2.83782 2.8856 2.93119C2.8429 3.02457 2.8024 3.12076 2.7641 3.21976C2.7259 3.12301 2.6859 3.0285 2.6443 2.93625C2.6027 2.844 2.5594 2.75513 2.5144 2.66963L1.24875 0.1755C1.22625 0.13275 1.20319 0.0995698 1.17956 0.0759397C1.15594 0.05232 1.1295 0.0348797 1.10025 0.0236297C1.071 0.0123796 1.03781 0.00563002 1.00069 0.00337982C0.96356 0.00112963 0.92025 0 0.87075 0L0 0L0 4.91738L1.00575 4.91738L1.00575 4.91738Z" transform="translate(8.404999 5.082611)" id="Shape" fill="#B4B4B4" fill-rule="evenodd" stroke="none" />
    <path d="M1.00575 4.9174L1.00575 2.0891C1.00575 2.0239 1.0035 1.9525 0.999 1.8748C0.9945 1.7972 0.98775 1.719 0.97875 1.6403L2.2882 4.1715C2.3287 4.2503 2.3833 4.3099 2.4519 4.3504C2.5206 4.3909 2.5987 4.4111 2.6865 4.4111L2.8417 4.4111C2.9295 4.4111 3.0077 4.3909 3.0763 4.3504C3.1449 4.3099 3.1995 4.2503 3.24 4.1715L4.5427 1.6436C4.5292 1.8034 4.5225 1.9519 4.5225 2.0891L4.5225 4.9174L5.5282 4.9174L5.5282 0L4.6575 0C4.608 0 4.5647 0.00110054 4.5276 0.0034008C4.4904 0.00559998 4.4572 0.0123997 4.428 0.0235996C4.3987 0.0349007 4.3723 0.0522995 4.3487 0.0760002C4.3251 0.0995998 4.302 0.132801 4.2795 0.175501L3.0172 2.6595C2.9722 2.7473 2.9284 2.8378 2.8856 2.9312C2.8429 3.0246 2.8024 3.1208 2.7641 3.2198C2.7259 3.123 2.6859 3.0285 2.6443 2.9363C2.6027 2.844 2.5594 2.7552 2.5144 2.6697L1.24875 0.175501C1.22625 0.132801 1.20319 0.0995998 1.17956 0.0760002C1.15594 0.0522995 1.1295 0.0349007 1.10025 0.0235996C1.071 0.0123997 1.03781 0.00559998 1.00069 0.0034008C0.96356 0.00110054 0.92025 0 0.87075 0L0 0L0 4.9174L1.00575 4.9174L1.00575 4.9174Z" transform="translate(8.404999 20.082611)" id="Shape" fill="#E5E5E5" fill-rule="evenodd" stroke="none" />
  </g>
</svg>