<svg width="96" height="126" viewBox="0 0 96 126" fill="none" xmlns="http://www.w3.org/2000/svg">
<rect x="4.5" y="2" width="11" height="11" rx="1" fill="#FF9300"/>
<rect x="4.5" y="2" width="11" height="11" rx="1" stroke="#FF9300"/>
<path d="M6.65959 7.568H8.81959V8.568H6.65959V7.568ZM9.46778 6.336C9.51045 6.04533 9.59178 5.792 9.71178 5.576C9.83445 5.36 9.98511 5.18 10.1638 5.036C10.3451 4.892 10.5518 4.78533 10.7838 4.716C11.0158 4.644 11.2651 4.608 11.5318 4.608C11.8198 4.608 12.0758 4.64933 12.2998 4.732C12.5238 4.812 12.7131 4.92133 12.8678 5.06C13.0224 5.19867 13.1398 5.36 13.2198 5.544C13.2998 5.72533 13.3398 5.91733 13.3398 6.12C13.3398 6.304 13.3211 6.46667 13.2838 6.608C13.2464 6.74667 13.1904 6.868 13.1158 6.972C13.0438 7.07333 12.9531 7.16 12.8438 7.232C12.7371 7.30133 12.6144 7.36 12.4758 7.408C13.1211 7.63467 13.4438 8.07467 13.4438 8.728C13.4438 9.03733 13.3878 9.30667 13.2758 9.536C13.1638 9.76533 13.0131 9.956 12.8238 10.108C12.6371 10.26 12.4198 10.3747 12.1718 10.452C11.9238 10.5267 11.6651 10.564 11.3958 10.564C11.1184 10.564 10.8718 10.5347 10.6558 10.476C10.4398 10.4147 10.2478 10.3213 10.0798 10.196C9.91178 10.068 9.76378 9.90533 9.63578 9.708C9.51045 9.51067 9.40111 9.276 9.30778 9.004L9.85978 8.78C10.0038 8.724 10.1371 8.70933 10.2598 8.736C10.3824 8.76267 10.4704 8.824 10.5238 8.92C10.6438 9.14133 10.7704 9.30267 10.9038 9.404C11.0398 9.50267 11.1984 9.552 11.3798 9.552C11.5184 9.552 11.6384 9.52933 11.7398 9.484C11.8438 9.436 11.9291 9.376 11.9958 9.304C12.0651 9.22933 12.1171 9.14533 12.1518 9.052C12.1864 8.95867 12.2038 8.864 12.2038 8.768C12.2038 8.64267 12.1944 8.53067 12.1758 8.432C12.1598 8.33067 12.1118 8.244 12.0318 8.172C11.9518 8.1 11.8304 8.04533 11.6678 8.008C11.5078 7.968 11.2838 7.948 10.9958 7.948V7.092C11.2384 7.092 11.4344 7.07333 11.5838 7.036C11.7331 6.99867 11.8478 6.948 11.9278 6.884C12.0104 6.81733 12.0651 6.73733 12.0918 6.644C12.1184 6.55067 12.1318 6.448 12.1318 6.336C12.1318 6.10667 12.0758 5.93067 11.9638 5.808C11.8544 5.68267 11.6864 5.62 11.4598 5.62C11.2758 5.62 11.1198 5.66933 10.9918 5.768C10.8664 5.864 10.7798 5.984 10.7318 6.128C10.6758 6.27467 10.6024 6.372 10.5118 6.42C10.4211 6.468 10.2918 6.47867 10.1238 6.452L9.46778 6.336Z" fill="black"/>
<path d="M19.6596 7.568H21.8196V8.568H19.6596V7.568ZM26.0198 9.38C26.1531 9.38 26.2584 9.41733 26.3358 9.492C26.4131 9.564 26.4518 9.66 26.4518 9.78V10.5H22.3558V10.1C22.3558 10.0227 22.3718 9.94 22.4038 9.852C22.4358 9.764 22.4918 9.684 22.5718 9.612L24.2518 7.92C24.3958 7.776 24.5211 7.63867 24.6278 7.508C24.7344 7.37733 24.8224 7.24933 24.8918 7.124C24.9611 6.996 25.0131 6.86933 25.0478 6.744C25.0824 6.616 25.0998 6.48133 25.0998 6.34C25.0998 6.108 25.0438 5.93067 24.9318 5.808C24.8224 5.68267 24.6544 5.62 24.4278 5.62C24.2438 5.62 24.0878 5.66933 23.9598 5.768C23.8344 5.864 23.7478 5.984 23.6998 6.128C23.6438 6.27467 23.5704 6.372 23.4798 6.42C23.3891 6.468 23.2598 6.47867 23.0918 6.452L22.4358 6.336C22.4784 6.04533 22.5598 5.792 22.6798 5.576C22.8024 5.36 22.9531 5.18 23.1318 5.036C23.3131 4.892 23.5198 4.78533 23.7518 4.716C23.9838 4.644 24.2331 4.608 24.4998 4.608C24.7878 4.608 25.0464 4.65067 25.2758 4.736C25.5078 4.81867 25.7051 4.93467 25.8678 5.084C26.0304 5.23333 26.1544 5.412 26.2398 5.62C26.3278 5.82533 26.3718 6.052 26.3718 6.3C26.3718 6.51333 26.3411 6.71067 26.2798 6.892C26.2211 7.07333 26.1398 7.24667 26.0358 7.412C25.9318 7.57467 25.8104 7.73333 25.6718 7.888C25.5358 8.04 25.3904 8.19467 25.2358 8.352L24.0958 9.52C24.2424 9.47467 24.3878 9.44 24.5318 9.416C24.6758 9.392 24.8091 9.38 24.9318 9.38H26.0198Z" fill="#FF9000"/>
<path d="M32.6596 7.568H34.8196V8.568H32.6596V7.568ZM39.3198 9.604V10.5H35.9998V9.604H37.1198V6.664C37.1198 6.58933 37.1211 6.51467 37.1238 6.44C37.1264 6.36267 37.1304 6.28533 37.1358 6.208L36.4718 6.76C36.4131 6.80533 36.3544 6.83333 36.2958 6.844C36.2398 6.852 36.1864 6.852 36.1358 6.844C36.0851 6.83333 36.0398 6.816 35.9998 6.792C35.9598 6.76533 35.9304 6.73867 35.9118 6.712L35.5198 6.192L37.3358 4.668H38.3598V9.604H39.3198Z" fill="#FF9000"/>
<path d="M51.1597 7.584C51.1597 8.09333 51.105 8.53467 50.9957 8.908C50.8864 9.28133 50.7344 9.59067 50.5397 9.836C50.3477 10.0813 50.1184 10.264 49.8517 10.384C49.5877 10.504 49.301 10.564 48.9917 10.564C48.6824 10.564 48.3957 10.504 48.1317 10.384C47.8704 10.264 47.6437 10.0813 47.4517 9.836C47.2597 9.59067 47.109 9.28133 46.9997 8.908C46.893 8.53467 46.8397 8.09333 46.8397 7.584C46.8397 7.07467 46.893 6.63333 46.9997 6.26C47.109 5.88667 47.2597 5.57733 47.4517 5.332C47.6437 5.08667 47.8704 4.90533 48.1317 4.788C48.3957 4.668 48.6824 4.608 48.9917 4.608C49.301 4.608 49.5877 4.668 49.8517 4.788C50.1184 4.90533 50.3477 5.08667 50.5397 5.332C50.7344 5.57733 50.8864 5.88667 50.9957 6.26C51.105 6.63333 51.1597 7.07467 51.1597 7.584ZM49.8797 7.584C49.8797 7.18133 49.8544 6.852 49.8037 6.596C49.753 6.33733 49.685 6.13467 49.5997 5.988C49.517 5.84133 49.4224 5.74133 49.3157 5.688C49.209 5.632 49.101 5.604 48.9917 5.604C48.8824 5.604 48.7744 5.632 48.6677 5.688C48.5637 5.74133 48.4704 5.84133 48.3877 5.988C48.3077 6.13467 48.2424 6.33733 48.1917 6.596C48.1437 6.852 48.1197 7.18133 48.1197 7.584C48.1197 7.98933 48.1437 8.32 48.1917 8.576C48.2424 8.832 48.3077 9.03467 48.3877 9.184C48.4704 9.33067 48.5637 9.432 48.6677 9.488C48.7744 9.54133 48.8824 9.568 48.9917 9.568C49.101 9.568 49.209 9.54133 49.3157 9.488C49.4224 9.432 49.517 9.33067 49.5997 9.184C49.685 9.03467 49.753 8.832 49.8037 8.576C49.8544 8.32 49.8797 7.98933 49.8797 7.584Z" fill="#FF9000"/>
<path d="M61.7194 8.256H60.2394V9.848H59.2314V8.256H57.7594V7.368H59.2314V5.784H60.2394V7.368H61.7194V8.256ZM66.144 9.604V10.5H62.824V9.604H63.944V6.664C63.944 6.58933 63.9453 6.51467 63.948 6.44C63.9507 6.36267 63.9547 6.28533 63.96 6.208L63.296 6.76C63.2373 6.80533 63.1787 6.83333 63.12 6.844C63.064 6.852 63.0107 6.852 62.96 6.844C62.9093 6.83333 62.864 6.816 62.824 6.792C62.784 6.76533 62.7547 6.73867 62.736 6.712L62.344 6.192L64.16 4.668H65.184V9.604H66.144Z" fill="#FF9000"/>
<path d="M74.7194 8.256H73.2394V9.848H72.2314V8.256H70.7594V7.368H72.2314V5.784H73.2394V7.368H74.7194V8.256ZM78.844 9.38C78.9773 9.38 79.0827 9.41733 79.16 9.492C79.2373 9.564 79.276 9.66 79.276 9.78V10.5H75.18V10.1C75.18 10.0227 75.196 9.94 75.228 9.852C75.26 9.764 75.316 9.684 75.396 9.612L77.076 7.92C77.22 7.776 77.3453 7.63867 77.452 7.508C77.5587 7.37733 77.6467 7.24933 77.716 7.124C77.7853 6.996 77.8373 6.86933 77.872 6.744C77.9067 6.616 77.924 6.48133 77.924 6.34C77.924 6.108 77.868 5.93067 77.756 5.808C77.6467 5.68267 77.4787 5.62 77.252 5.62C77.068 5.62 76.912 5.66933 76.784 5.768C76.6587 5.864 76.572 5.984 76.524 6.128C76.468 6.27467 76.3947 6.372 76.304 6.42C76.2133 6.468 76.084 6.47867 75.916 6.452L75.26 6.336C75.3027 6.04533 75.384 5.792 75.504 5.576C75.6267 5.36 75.7773 5.18 75.956 5.036C76.1373 4.892 76.344 4.78533 76.576 4.716C76.808 4.644 77.0573 4.608 77.324 4.608C77.612 4.608 77.8707 4.65067 78.1 4.736C78.332 4.81867 78.5293 4.93467 78.692 5.084C78.8547 5.23333 78.9787 5.412 79.064 5.62C79.152 5.82533 79.196 6.052 79.196 6.3C79.196 6.51333 79.1653 6.71067 79.104 6.892C79.0453 7.07333 78.964 7.24667 78.86 7.412C78.756 7.57467 78.6347 7.73333 78.496 7.888C78.36 8.04 78.2147 8.19467 78.06 8.352L76.92 9.52C77.0667 9.47467 77.212 9.44 77.356 9.416C77.5 9.392 77.6333 9.38 77.756 9.38H78.844Z" fill="#FF9000"/>
<path d="M87.7194 8.256H86.2394V9.848H85.2314V8.256H83.7594V7.368H85.2314V5.784H86.2394V7.368H87.7194V8.256ZM88.292 6.336C88.3347 6.04533 88.416 5.792 88.536 5.576C88.6587 5.36 88.8093 5.18 88.988 5.036C89.1693 4.892 89.376 4.78533 89.608 4.716C89.84 4.644 90.0893 4.608 90.356 4.608C90.644 4.608 90.9 4.64933 91.124 4.732C91.348 4.812 91.5373 4.92133 91.692 5.06C91.8467 5.19867 91.964 5.36 92.044 5.544C92.124 5.72533 92.164 5.91733 92.164 6.12C92.164 6.304 92.1453 6.46667 92.108 6.608C92.0707 6.74667 92.0147 6.868 91.94 6.972C91.868 7.07333 91.7773 7.16 91.668 7.232C91.5613 7.30133 91.4387 7.36 91.3 7.408C91.9453 7.63467 92.268 8.07467 92.268 8.728C92.268 9.03733 92.212 9.30667 92.1 9.536C91.988 9.76533 91.8373 9.956 91.648 10.108C91.4613 10.26 91.244 10.3747 90.996 10.452C90.748 10.5267 90.4893 10.564 90.22 10.564C89.9427 10.564 89.696 10.5347 89.48 10.476C89.264 10.4147 89.072 10.3213 88.904 10.196C88.736 10.068 88.588 9.90533 88.46 9.708C88.3347 9.51067 88.2253 9.276 88.132 9.004L88.684 8.78C88.828 8.724 88.9613 8.70933 89.084 8.736C89.2067 8.76267 89.2947 8.824 89.348 8.92C89.468 9.14133 89.5947 9.30267 89.728 9.404C89.864 9.50267 90.0227 9.552 90.204 9.552C90.3427 9.552 90.4627 9.52933 90.564 9.484C90.668 9.436 90.7533 9.376 90.82 9.304C90.8893 9.22933 90.9413 9.14533 90.976 9.052C91.0107 8.95867 91.028 8.864 91.028 8.768C91.028 8.64267 91.0187 8.53067 91 8.432C90.984 8.33067 90.936 8.244 90.856 8.172C90.776 8.1 90.6547 8.04533 90.492 8.008C90.332 7.968 90.108 7.948 89.82 7.948V7.092C90.0627 7.092 90.2587 7.07333 90.408 7.036C90.5573 6.99867 90.672 6.948 90.752 6.884C90.8347 6.81733 90.8893 6.73733 90.916 6.644C90.9427 6.55067 90.956 6.448 90.956 6.336C90.956 6.10667 90.9 5.93067 90.788 5.808C90.6787 5.68267 90.5107 5.62 90.284 5.62C90.1 5.62 89.944 5.66933 89.816 5.768C89.6907 5.864 89.604 5.984 89.556 6.128C89.5 6.27467 89.4267 6.372 89.336 6.42C89.2453 6.468 89.116 6.47867 88.948 6.452L88.292 6.336Z" fill="#FF9000"/>
<path d="M6.65959 25.568H8.81959V26.568H6.65959V25.568ZM9.46778 24.336C9.51045 24.0453 9.59178 23.792 9.71178 23.576C9.83445 23.36 9.98511 23.18 10.1638 23.036C10.3451 22.892 10.5518 22.7853 10.7838 22.716C11.0158 22.644 11.2651 22.608 11.5318 22.608C11.8198 22.608 12.0758 22.6493 12.2998 22.732C12.5238 22.812 12.7131 22.9213 12.8678 23.06C13.0224 23.1987 13.1398 23.36 13.2198 23.544C13.2998 23.7253 13.3398 23.9173 13.3398 24.12C13.3398 24.304 13.3211 24.4667 13.2838 24.608C13.2464 24.7467 13.1904 24.868 13.1158 24.972C13.0438 25.0733 12.9531 25.16 12.8438 25.232C12.7371 25.3013 12.6144 25.36 12.4758 25.408C13.1211 25.6347 13.4438 26.0747 13.4438 26.728C13.4438 27.0373 13.3878 27.3067 13.2758 27.536C13.1638 27.7653 13.0131 27.956 12.8238 28.108C12.6371 28.26 12.4198 28.3747 12.1718 28.452C11.9238 28.5267 11.6651 28.564 11.3958 28.564C11.1184 28.564 10.8718 28.5347 10.6558 28.476C10.4398 28.4147 10.2478 28.3213 10.0798 28.196C9.91178 28.068 9.76378 27.9053 9.63578 27.708C9.51045 27.5107 9.40111 27.276 9.30778 27.004L9.85978 26.78C10.0038 26.724 10.1371 26.7093 10.2598 26.736C10.3824 26.7627 10.4704 26.824 10.5238 26.92C10.6438 27.1413 10.7704 27.3027 10.9038 27.404C11.0398 27.5027 11.1984 27.552 11.3798 27.552C11.5184 27.552 11.6384 27.5293 11.7398 27.484C11.8438 27.436 11.9291 27.376 11.9958 27.304C12.0651 27.2293 12.1171 27.1453 12.1518 27.052C12.1864 26.9587 12.2038 26.864 12.2038 26.768C12.2038 26.6427 12.1944 26.5307 12.1758 26.432C12.1598 26.3307 12.1118 26.244 12.0318 26.172C11.9518 26.1 11.8304 26.0453 11.6678 26.008C11.5078 25.968 11.2838 25.948 10.9958 25.948V25.092C11.2384 25.092 11.4344 25.0733 11.5838 25.036C11.7331 24.9987 11.8478 24.948 11.9278 24.884C12.0104 24.8173 12.0651 24.7373 12.0918 24.644C12.1184 24.5507 12.1318 24.448 12.1318 24.336C12.1318 24.1067 12.0758 23.9307 11.9638 23.808C11.8544 23.6827 11.6864 23.62 11.4598 23.62C11.2758 23.62 11.1198 23.6693 10.9918 23.768C10.8664 23.864 10.7798 23.984 10.7318 24.128C10.6758 24.2747 10.6024 24.372 10.5118 24.42C10.4211 24.468 10.2918 24.4787 10.1238 24.452L9.46778 24.336Z" fill="#FF9000"/>
<rect x="17.5" y="20" width="11" height="11" rx="1" fill="#FF9300"/>
<rect x="17.5" y="20" width="11" height="11" rx="1" stroke="#FF9300"/>
<path d="M19.6596 25.568H21.8196V26.568H19.6596V25.568ZM26.0198 27.38C26.1531 27.38 26.2584 27.4173 26.3358 27.492C26.4131 27.564 26.4518 27.66 26.4518 27.78V28.5H22.3558V28.1C22.3558 28.0227 22.3718 27.94 22.4038 27.852C22.4358 27.764 22.4918 27.684 22.5718 27.612L24.2518 25.92C24.3958 25.776 24.5211 25.6387 24.6278 25.508C24.7344 25.3773 24.8224 25.2493 24.8918 25.124C24.9611 24.996 25.0131 24.8693 25.0478 24.744C25.0824 24.616 25.0998 24.4813 25.0998 24.34C25.0998 24.108 25.0438 23.9307 24.9318 23.808C24.8224 23.6827 24.6544 23.62 24.4278 23.62C24.2438 23.62 24.0878 23.6693 23.9598 23.768C23.8344 23.864 23.7478 23.984 23.6998 24.128C23.6438 24.2747 23.5704 24.372 23.4798 24.42C23.3891 24.468 23.2598 24.4787 23.0918 24.452L22.4358 24.336C22.4784 24.0453 22.5598 23.792 22.6798 23.576C22.8024 23.36 22.9531 23.18 23.1318 23.036C23.3131 22.892 23.5198 22.7853 23.7518 22.716C23.9838 22.644 24.2331 22.608 24.4998 22.608C24.7878 22.608 25.0464 22.6507 25.2758 22.736C25.5078 22.8187 25.7051 22.9347 25.8678 23.084C26.0304 23.2333 26.1544 23.412 26.2398 23.62C26.3278 23.8253 26.3718 24.052 26.3718 24.3C26.3718 24.5133 26.3411 24.7107 26.2798 24.892C26.2211 25.0733 26.1398 25.2467 26.0358 25.412C25.9318 25.5747 25.8104 25.7333 25.6718 25.888C25.5358 26.04 25.3904 26.1947 25.2358 26.352L24.0958 27.52C24.2424 27.4747 24.3878 27.44 24.5318 27.416C24.6758 27.392 24.8091 27.38 24.9318 27.38H26.0198Z" fill="black"/>
<path d="M32.6596 25.568H34.8196V26.568H32.6596V25.568ZM39.3198 27.604V28.5H35.9998V27.604H37.1198V24.664C37.1198 24.5893 37.1211 24.5147 37.1238 24.44C37.1264 24.3627 37.1304 24.2853 37.1358 24.208L36.4718 24.76C36.4131 24.8053 36.3544 24.8333 36.2958 24.844C36.2398 24.852 36.1864 24.852 36.1358 24.844C36.0851 24.8333 36.0398 24.816 35.9998 24.792C35.9598 24.7653 35.9304 24.7387 35.9118 24.712L35.5198 24.192L37.3358 22.668H38.3598V27.604H39.3198Z" fill="#FF9000"/>
<path d="M51.1597 25.584C51.1597 26.0933 51.105 26.5347 50.9957 26.908C50.8864 27.2813 50.7344 27.5907 50.5397 27.836C50.3477 28.0813 50.1184 28.264 49.8517 28.384C49.5877 28.504 49.301 28.564 48.9917 28.564C48.6824 28.564 48.3957 28.504 48.1317 28.384C47.8704 28.264 47.6437 28.0813 47.4517 27.836C47.2597 27.5907 47.109 27.2813 46.9997 26.908C46.893 26.5347 46.8397 26.0933 46.8397 25.584C46.8397 25.0747 46.893 24.6333 46.9997 24.26C47.109 23.8867 47.2597 23.5773 47.4517 23.332C47.6437 23.0867 47.8704 22.9053 48.1317 22.788C48.3957 22.668 48.6824 22.608 48.9917 22.608C49.301 22.608 49.5877 22.668 49.8517 22.788C50.1184 22.9053 50.3477 23.0867 50.5397 23.332C50.7344 23.5773 50.8864 23.8867 50.9957 24.26C51.105 24.6333 51.1597 25.0747 51.1597 25.584ZM49.8797 25.584C49.8797 25.1813 49.8544 24.852 49.8037 24.596C49.753 24.3373 49.685 24.1347 49.5997 23.988C49.517 23.8413 49.4224 23.7413 49.3157 23.688C49.209 23.632 49.101 23.604 48.9917 23.604C48.8824 23.604 48.7744 23.632 48.6677 23.688C48.5637 23.7413 48.4704 23.8413 48.3877 23.988C48.3077 24.1347 48.2424 24.3373 48.1917 24.596C48.1437 24.852 48.1197 25.1813 48.1197 25.584C48.1197 25.9893 48.1437 26.32 48.1917 26.576C48.2424 26.832 48.3077 27.0347 48.3877 27.184C48.4704 27.3307 48.5637 27.432 48.6677 27.488C48.7744 27.5413 48.8824 27.568 48.9917 27.568C49.101 27.568 49.209 27.5413 49.3157 27.488C49.4224 27.432 49.517 27.3307 49.5997 27.184C49.685 27.0347 49.753 26.832 49.8037 26.576C49.8544 26.32 49.8797 25.9893 49.8797 25.584Z" fill="#FF9000"/>
<path d="M61.7194 26.256H60.2394V27.848H59.2314V26.256H57.7594V25.368H59.2314V23.784H60.2394V25.368H61.7194V26.256ZM66.144 27.604V28.5H62.824V27.604H63.944V24.664C63.944 24.5893 63.9453 24.5147 63.948 24.44C63.9507 24.3627 63.9547 24.2853 63.96 24.208L63.296 24.76C63.2373 24.8053 63.1787 24.8333 63.12 24.844C63.064 24.852 63.0107 24.852 62.96 24.844C62.9093 24.8333 62.864 24.816 62.824 24.792C62.784 24.7653 62.7547 24.7387 62.736 24.712L62.344 24.192L64.16 22.668H65.184V27.604H66.144Z" fill="#FF9000"/>
<path d="M74.7194 26.256H73.2394V27.848H72.2314V26.256H70.7594V25.368H72.2314V23.784H73.2394V25.368H74.7194V26.256ZM78.844 27.38C78.9773 27.38 79.0827 27.4173 79.16 27.492C79.2373 27.564 79.276 27.66 79.276 27.78V28.5H75.18V28.1C75.18 28.0227 75.196 27.94 75.228 27.852C75.26 27.764 75.316 27.684 75.396 27.612L77.076 25.92C77.22 25.776 77.3453 25.6387 77.452 25.508C77.5587 25.3773 77.6467 25.2493 77.716 25.124C77.7853 24.996 77.8373 24.8693 77.872 24.744C77.9067 24.616 77.924 24.4813 77.924 24.34C77.924 24.108 77.868 23.9307 77.756 23.808C77.6467 23.6827 77.4787 23.62 77.252 23.62C77.068 23.62 76.912 23.6693 76.784 23.768C76.6587 23.864 76.572 23.984 76.524 24.128C76.468 24.2747 76.3947 24.372 76.304 24.42C76.2133 24.468 76.084 24.4787 75.916 24.452L75.26 24.336C75.3027 24.0453 75.384 23.792 75.504 23.576C75.6267 23.36 75.7773 23.18 75.956 23.036C76.1373 22.892 76.344 22.7853 76.576 22.716C76.808 22.644 77.0573 22.608 77.324 22.608C77.612 22.608 77.8707 22.6507 78.1 22.736C78.332 22.8187 78.5293 22.9347 78.692 23.084C78.8547 23.2333 78.9787 23.412 79.064 23.62C79.152 23.8253 79.196 24.052 79.196 24.3C79.196 24.5133 79.1653 24.7107 79.104 24.892C79.0453 25.0733 78.964 25.2467 78.86 25.412C78.756 25.5747 78.6347 25.7333 78.496 25.888C78.36 26.04 78.2147 26.1947 78.06 26.352L76.92 27.52C77.0667 27.4747 77.212 27.44 77.356 27.416C77.5 27.392 77.6333 27.38 77.756 27.38H78.844Z" fill="#FF9000"/>
<path d="M87.7194 26.256H86.2394V27.848H85.2314V26.256H83.7594V25.368H85.2314V23.784H86.2394V25.368H87.7194V26.256ZM88.292 24.336C88.3347 24.0453 88.416 23.792 88.536 23.576C88.6587 23.36 88.8093 23.18 88.988 23.036C89.1693 22.892 89.376 22.7853 89.608 22.716C89.84 22.644 90.0893 22.608 90.356 22.608C90.644 22.608 90.9 22.6493 91.124 22.732C91.348 22.812 91.5373 22.9213 91.692 23.06C91.8467 23.1987 91.964 23.36 92.044 23.544C92.124 23.7253 92.164 23.9173 92.164 24.12C92.164 24.304 92.1453 24.4667 92.108 24.608C92.0707 24.7467 92.0147 24.868 91.94 24.972C91.868 25.0733 91.7773 25.16 91.668 25.232C91.5613 25.3013 91.4387 25.36 91.3 25.408C91.9453 25.6347 92.268 26.0747 92.268 26.728C92.268 27.0373 92.212 27.3067 92.1 27.536C91.988 27.7653 91.8373 27.956 91.648 28.108C91.4613 28.26 91.244 28.3747 90.996 28.452C90.748 28.5267 90.4893 28.564 90.22 28.564C89.9427 28.564 89.696 28.5347 89.48 28.476C89.264 28.4147 89.072 28.3213 88.904 28.196C88.736 28.068 88.588 27.9053 88.46 27.708C88.3347 27.5107 88.2253 27.276 88.132 27.004L88.684 26.78C88.828 26.724 88.9613 26.7093 89.084 26.736C89.2067 26.7627 89.2947 26.824 89.348 26.92C89.468 27.1413 89.5947 27.3027 89.728 27.404C89.864 27.5027 90.0227 27.552 90.204 27.552C90.3427 27.552 90.4627 27.5293 90.564 27.484C90.668 27.436 90.7533 27.376 90.82 27.304C90.8893 27.2293 90.9413 27.1453 90.976 27.052C91.0107 26.9587 91.028 26.864 91.028 26.768C91.028 26.6427 91.0187 26.5307 91 26.432C90.984 26.3307 90.936 26.244 90.856 26.172C90.776 26.1 90.6547 26.0453 90.492 26.008C90.332 25.968 90.108 25.948 89.82 25.948V25.092C90.0627 25.092 90.2587 25.0733 90.408 25.036C90.5573 24.9987 90.672 24.948 90.752 24.884C90.8347 24.8173 90.8893 24.7373 90.916 24.644C90.9427 24.5507 90.956 24.448 90.956 24.336C90.956 24.1067 90.9 23.9307 90.788 23.808C90.6787 23.6827 90.5107 23.62 90.284 23.62C90.1 23.62 89.944 23.6693 89.816 23.768C89.6907 23.864 89.604 23.984 89.556 24.128C89.5 24.2747 89.4267 24.372 89.336 24.42C89.2453 24.468 89.116 24.4787 88.948 24.452L88.292 24.336Z" fill="#FF9000"/>
<path d="M6.65959 43.568H8.81959V44.568H6.65959V43.568ZM9.46778 42.336C9.51045 42.0453 9.59178 41.792 9.71178 41.576C9.83445 41.36 9.98511 41.18 10.1638 41.036C10.3451 40.892 10.5518 40.7853 10.7838 40.716C11.0158 40.644 11.2651 40.608 11.5318 40.608C11.8198 40.608 12.0758 40.6493 12.2998 40.732C12.5238 40.812 12.7131 40.9213 12.8678 41.06C13.0224 41.1987 13.1398 41.36 13.2198 41.544C13.2998 41.7253 13.3398 41.9173 13.3398 42.12C13.3398 42.304 13.3211 42.4667 13.2838 42.608C13.2464 42.7467 13.1904 42.868 13.1158 42.972C13.0438 43.0733 12.9531 43.16 12.8438 43.232C12.7371 43.3013 12.6144 43.36 12.4758 43.408C13.1211 43.6347 13.4438 44.0747 13.4438 44.728C13.4438 45.0373 13.3878 45.3067 13.2758 45.536C13.1638 45.7653 13.0131 45.956 12.8238 46.108C12.6371 46.26 12.4198 46.3747 12.1718 46.452C11.9238 46.5267 11.6651 46.564 11.3958 46.564C11.1184 46.564 10.8718 46.5347 10.6558 46.476C10.4398 46.4147 10.2478 46.3213 10.0798 46.196C9.91178 46.068 9.76378 45.9053 9.63578 45.708C9.51045 45.5107 9.40111 45.276 9.30778 45.004L9.85978 44.78C10.0038 44.724 10.1371 44.7093 10.2598 44.736C10.3824 44.7627 10.4704 44.824 10.5238 44.92C10.6438 45.1413 10.7704 45.3027 10.9038 45.404C11.0398 45.5027 11.1984 45.552 11.3798 45.552C11.5184 45.552 11.6384 45.5293 11.7398 45.484C11.8438 45.436 11.9291 45.376 11.9958 45.304C12.0651 45.2293 12.1171 45.1453 12.1518 45.052C12.1864 44.9587 12.2038 44.864 12.2038 44.768C12.2038 44.6427 12.1944 44.5307 12.1758 44.432C12.1598 44.3307 12.1118 44.244 12.0318 44.172C11.9518 44.1 11.8304 44.0453 11.6678 44.008C11.5078 43.968 11.2838 43.948 10.9958 43.948V43.092C11.2384 43.092 11.4344 43.0733 11.5838 43.036C11.7331 42.9987 11.8478 42.948 11.9278 42.884C12.0104 42.8173 12.0651 42.7373 12.0918 42.644C12.1184 42.5507 12.1318 42.448 12.1318 42.336C12.1318 42.1067 12.0758 41.9307 11.9638 41.808C11.8544 41.6827 11.6864 41.62 11.4598 41.62C11.2758 41.62 11.1198 41.6693 10.9918 41.768C10.8664 41.864 10.7798 41.984 10.7318 42.128C10.6758 42.2747 10.6024 42.372 10.5118 42.42C10.4211 42.468 10.2918 42.4787 10.1238 42.452L9.46778 42.336Z" fill="#FF9000"/>
<path d="M19.6596 43.568H21.8196V44.568H19.6596V43.568ZM26.0198 45.38C26.1531 45.38 26.2584 45.4173 26.3358 45.492C26.4131 45.564 26.4518 45.66 26.4518 45.78V46.5H22.3558V46.1C22.3558 46.0227 22.3718 45.94 22.4038 45.852C22.4358 45.764 22.4918 45.684 22.5718 45.612L24.2518 43.92C24.3958 43.776 24.5211 43.6387 24.6278 43.508C24.7344 43.3773 24.8224 43.2493 24.8918 43.124C24.9611 42.996 25.0131 42.8693 25.0478 42.744C25.0824 42.616 25.0998 42.4813 25.0998 42.34C25.0998 42.108 25.0438 41.9307 24.9318 41.808C24.8224 41.6827 24.6544 41.62 24.4278 41.62C24.2438 41.62 24.0878 41.6693 23.9598 41.768C23.8344 41.864 23.7478 41.984 23.6998 42.128C23.6438 42.2747 23.5704 42.372 23.4798 42.42C23.3891 42.468 23.2598 42.4787 23.0918 42.452L22.4358 42.336C22.4784 42.0453 22.5598 41.792 22.6798 41.576C22.8024 41.36 22.9531 41.18 23.1318 41.036C23.3131 40.892 23.5198 40.7853 23.7518 40.716C23.9838 40.644 24.2331 40.608 24.4998 40.608C24.7878 40.608 25.0464 40.6507 25.2758 40.736C25.5078 40.8187 25.7051 40.9347 25.8678 41.084C26.0304 41.2333 26.1544 41.412 26.2398 41.62C26.3278 41.8253 26.3718 42.052 26.3718 42.3C26.3718 42.5133 26.3411 42.7107 26.2798 42.892C26.2211 43.0733 26.1398 43.2467 26.0358 43.412C25.9318 43.5747 25.8104 43.7333 25.6718 43.888C25.5358 44.04 25.3904 44.1947 25.2358 44.352L24.0958 45.52C24.2424 45.4747 24.3878 45.44 24.5318 45.416C24.6758 45.392 24.8091 45.38 24.9318 45.38H26.0198Z" fill="#FF9000"/>
<rect x="30.5" y="38" width="11" height="11" rx="1" fill="#FF9300"/>
<rect x="30.5" y="38" width="11" height="11" rx="1" stroke="#FF9300"/>
<path d="M32.6596 43.568H34.8196V44.568H32.6596V43.568ZM39.3198 45.604V46.5H35.9998V45.604H37.1198V42.664C37.1198 42.5893 37.1211 42.5147 37.1238 42.44C37.1264 42.3627 37.1304 42.2853 37.1358 42.208L36.4718 42.76C36.4131 42.8053 36.3544 42.8333 36.2958 42.844C36.2398 42.852 36.1864 42.852 36.1358 42.844C36.0851 42.8333 36.0398 42.816 35.9998 42.792C35.9598 42.7653 35.9304 42.7387 35.9118 42.712L35.5198 42.192L37.3358 40.668H38.3598V45.604H39.3198Z" fill="black"/>
<path d="M51.1597 43.584C51.1597 44.0933 51.105 44.5347 50.9957 44.908C50.8864 45.2813 50.7344 45.5907 50.5397 45.836C50.3477 46.0813 50.1184 46.264 49.8517 46.384C49.5877 46.504 49.301 46.564 48.9917 46.564C48.6824 46.564 48.3957 46.504 48.1317 46.384C47.8704 46.264 47.6437 46.0813 47.4517 45.836C47.2597 45.5907 47.109 45.2813 46.9997 44.908C46.893 44.5347 46.8397 44.0933 46.8397 43.584C46.8397 43.0747 46.893 42.6333 46.9997 42.26C47.109 41.8867 47.2597 41.5773 47.4517 41.332C47.6437 41.0867 47.8704 40.9053 48.1317 40.788C48.3957 40.668 48.6824 40.608 48.9917 40.608C49.301 40.608 49.5877 40.668 49.8517 40.788C50.1184 40.9053 50.3477 41.0867 50.5397 41.332C50.7344 41.5773 50.8864 41.8867 50.9957 42.26C51.105 42.6333 51.1597 43.0747 51.1597 43.584ZM49.8797 43.584C49.8797 43.1813 49.8544 42.852 49.8037 42.596C49.753 42.3373 49.685 42.1347 49.5997 41.988C49.517 41.8413 49.4224 41.7413 49.3157 41.688C49.209 41.632 49.101 41.604 48.9917 41.604C48.8824 41.604 48.7744 41.632 48.6677 41.688C48.5637 41.7413 48.4704 41.8413 48.3877 41.988C48.3077 42.1347 48.2424 42.3373 48.1917 42.596C48.1437 42.852 48.1197 43.1813 48.1197 43.584C48.1197 43.9893 48.1437 44.32 48.1917 44.576C48.2424 44.832 48.3077 45.0347 48.3877 45.184C48.4704 45.3307 48.5637 45.432 48.6677 45.488C48.7744 45.5413 48.8824 45.568 48.9917 45.568C49.101 45.568 49.209 45.5413 49.3157 45.488C49.4224 45.432 49.517 45.3307 49.5997 45.184C49.685 45.0347 49.753 44.832 49.8037 44.576C49.8544 44.32 49.8797 43.9893 49.8797 43.584Z" fill="#FF9000"/>
<path d="M61.7194 44.256H60.2394V45.848H59.2314V44.256H57.7594V43.368H59.2314V41.784H60.2394V43.368H61.7194V44.256ZM66.144 45.604V46.5H62.824V45.604H63.944V42.664C63.944 42.5893 63.9453 42.5147 63.948 42.44C63.9507 42.3627 63.9547 42.2853 63.96 42.208L63.296 42.76C63.2373 42.8053 63.1787 42.8333 63.12 42.844C63.064 42.852 63.0107 42.852 62.96 42.844C62.9093 42.8333 62.864 42.816 62.824 42.792C62.784 42.7653 62.7547 42.7387 62.736 42.712L62.344 42.192L64.16 40.668H65.184V45.604H66.144Z" fill="#FF9000"/>
<path d="M74.7194 44.256H73.2394V45.848H72.2314V44.256H70.7594V43.368H72.2314V41.784H73.2394V43.368H74.7194V44.256ZM78.844 45.38C78.9773 45.38 79.0827 45.4173 79.16 45.492C79.2373 45.564 79.276 45.66 79.276 45.78V46.5H75.18V46.1C75.18 46.0227 75.196 45.94 75.228 45.852C75.26 45.764 75.316 45.684 75.396 45.612L77.076 43.92C77.22 43.776 77.3453 43.6387 77.452 43.508C77.5587 43.3773 77.6467 43.2493 77.716 43.124C77.7853 42.996 77.8373 42.8693 77.872 42.744C77.9067 42.616 77.924 42.4813 77.924 42.34C77.924 42.108 77.868 41.9307 77.756 41.808C77.6467 41.6827 77.4787 41.62 77.252 41.62C77.068 41.62 76.912 41.6693 76.784 41.768C76.6587 41.864 76.572 41.984 76.524 42.128C76.468 42.2747 76.3947 42.372 76.304 42.42C76.2133 42.468 76.084 42.4787 75.916 42.452L75.26 42.336C75.3027 42.0453 75.384 41.792 75.504 41.576C75.6267 41.36 75.7773 41.18 75.956 41.036C76.1373 40.892 76.344 40.7853 76.576 40.716C76.808 40.644 77.0573 40.608 77.324 40.608C77.612 40.608 77.8707 40.6507 78.1 40.736C78.332 40.8187 78.5293 40.9347 78.692 41.084C78.8547 41.2333 78.9787 41.412 79.064 41.62C79.152 41.8253 79.196 42.052 79.196 42.3C79.196 42.5133 79.1653 42.7107 79.104 42.892C79.0453 43.0733 78.964 43.2467 78.86 43.412C78.756 43.5747 78.6347 43.7333 78.496 43.888C78.36 44.04 78.2147 44.1947 78.06 44.352L76.92 45.52C77.0667 45.4747 77.212 45.44 77.356 45.416C77.5 45.392 77.6333 45.38 77.756 45.38H78.844Z" fill="#FF9000"/>
<path d="M87.7194 44.256H86.2394V45.848H85.2314V44.256H83.7594V43.368H85.2314V41.784H86.2394V43.368H87.7194V44.256ZM88.292 42.336C88.3347 42.0453 88.416 41.792 88.536 41.576C88.6587 41.36 88.8093 41.18 88.988 41.036C89.1693 40.892 89.376 40.7853 89.608 40.716C89.84 40.644 90.0893 40.608 90.356 40.608C90.644 40.608 90.9 40.6493 91.124 40.732C91.348 40.812 91.5373 40.9213 91.692 41.06C91.8467 41.1987 91.964 41.36 92.044 41.544C92.124 41.7253 92.164 41.9173 92.164 42.12C92.164 42.304 92.1453 42.4667 92.108 42.608C92.0707 42.7467 92.0147 42.868 91.94 42.972C91.868 43.0733 91.7773 43.16 91.668 43.232C91.5613 43.3013 91.4387 43.36 91.3 43.408C91.9453 43.6347 92.268 44.0747 92.268 44.728C92.268 45.0373 92.212 45.3067 92.1 45.536C91.988 45.7653 91.8373 45.956 91.648 46.108C91.4613 46.26 91.244 46.3747 90.996 46.452C90.748 46.5267 90.4893 46.564 90.22 46.564C89.9427 46.564 89.696 46.5347 89.48 46.476C89.264 46.4147 89.072 46.3213 88.904 46.196C88.736 46.068 88.588 45.9053 88.46 45.708C88.3347 45.5107 88.2253 45.276 88.132 45.004L88.684 44.78C88.828 44.724 88.9613 44.7093 89.084 44.736C89.2067 44.7627 89.2947 44.824 89.348 44.92C89.468 45.1413 89.5947 45.3027 89.728 45.404C89.864 45.5027 90.0227 45.552 90.204 45.552C90.3427 45.552 90.4627 45.5293 90.564 45.484C90.668 45.436 90.7533 45.376 90.82 45.304C90.8893 45.2293 90.9413 45.1453 90.976 45.052C91.0107 44.9587 91.028 44.864 91.028 44.768C91.028 44.6427 91.0187 44.5307 91 44.432C90.984 44.3307 90.936 44.244 90.856 44.172C90.776 44.1 90.6547 44.0453 90.492 44.008C90.332 43.968 90.108 43.948 89.82 43.948V43.092C90.0627 43.092 90.2587 43.0733 90.408 43.036C90.5573 42.9987 90.672 42.948 90.752 42.884C90.8347 42.8173 90.8893 42.7373 90.916 42.644C90.9427 42.5507 90.956 42.448 90.956 42.336C90.956 42.1067 90.9 41.9307 90.788 41.808C90.6787 41.6827 90.5107 41.62 90.284 41.62C90.1 41.62 89.944 41.6693 89.816 41.768C89.6907 41.864 89.604 41.984 89.556 42.128C89.5 42.2747 89.4267 42.372 89.336 42.42C89.2453 42.468 89.116 42.4787 88.948 42.452L88.292 42.336Z" fill="#FF9000"/>
<path d="M6.65959 61.568H8.81959V62.568H6.65959V61.568ZM9.46778 60.336C9.51045 60.0453 9.59178 59.792 9.71178 59.576C9.83445 59.36 9.98511 59.18 10.1638 59.036C10.3451 58.892 10.5518 58.7853 10.7838 58.716C11.0158 58.644 11.2651 58.608 11.5318 58.608C11.8198 58.608 12.0758 58.6493 12.2998 58.732C12.5238 58.812 12.7131 58.9213 12.8678 59.06C13.0224 59.1987 13.1398 59.36 13.2198 59.544C13.2998 59.7253 13.3398 59.9173 13.3398 60.12C13.3398 60.304 13.3211 60.4667 13.2838 60.608C13.2464 60.7467 13.1904 60.868 13.1158 60.972C13.0438 61.0733 12.9531 61.16 12.8438 61.232C12.7371 61.3013 12.6144 61.36 12.4758 61.408C13.1211 61.6347 13.4438 62.0747 13.4438 62.728C13.4438 63.0373 13.3878 63.3067 13.2758 63.536C13.1638 63.7653 13.0131 63.956 12.8238 64.108C12.6371 64.26 12.4198 64.3747 12.1718 64.452C11.9238 64.5267 11.6651 64.564 11.3958 64.564C11.1184 64.564 10.8718 64.5347 10.6558 64.476C10.4398 64.4147 10.2478 64.3213 10.0798 64.196C9.91178 64.068 9.76378 63.9053 9.63578 63.708C9.51045 63.5107 9.40111 63.276 9.30778 63.004L9.85978 62.78C10.0038 62.724 10.1371 62.7093 10.2598 62.736C10.3824 62.7627 10.4704 62.824 10.5238 62.92C10.6438 63.1413 10.7704 63.3027 10.9038 63.404C11.0398 63.5027 11.1984 63.552 11.3798 63.552C11.5184 63.552 11.6384 63.5293 11.7398 63.484C11.8438 63.436 11.9291 63.376 11.9958 63.304C12.0651 63.2293 12.1171 63.1453 12.1518 63.052C12.1864 62.9587 12.2038 62.864 12.2038 62.768C12.2038 62.6427 12.1944 62.5307 12.1758 62.432C12.1598 62.3307 12.1118 62.244 12.0318 62.172C11.9518 62.1 11.8304 62.0453 11.6678 62.008C11.5078 61.968 11.2838 61.948 10.9958 61.948V61.092C11.2384 61.092 11.4344 61.0733 11.5838 61.036C11.7331 60.9987 11.8478 60.948 11.9278 60.884C12.0104 60.8173 12.0651 60.7373 12.0918 60.644C12.1184 60.5507 12.1318 60.448 12.1318 60.336C12.1318 60.1067 12.0758 59.9307 11.9638 59.808C11.8544 59.6827 11.6864 59.62 11.4598 59.62C11.2758 59.62 11.1198 59.6693 10.9918 59.768C10.8664 59.864 10.7798 59.984 10.7318 60.128C10.6758 60.2747 10.6024 60.372 10.5118 60.42C10.4211 60.468 10.2918 60.4787 10.1238 60.452L9.46778 60.336Z" fill="#FF9000"/>
<path d="M19.6596 61.568H21.8196V62.568H19.6596V61.568ZM26.0198 63.38C26.1531 63.38 26.2584 63.4173 26.3358 63.492C26.4131 63.564 26.4518 63.66 26.4518 63.78V64.5H22.3558V64.1C22.3558 64.0227 22.3718 63.94 22.4038 63.852C22.4358 63.764 22.4918 63.684 22.5718 63.612L24.2518 61.92C24.3958 61.776 24.5211 61.6387 24.6278 61.508C24.7344 61.3773 24.8224 61.2493 24.8918 61.124C24.9611 60.996 25.0131 60.8693 25.0478 60.744C25.0824 60.616 25.0998 60.4813 25.0998 60.34C25.0998 60.108 25.0438 59.9307 24.9318 59.808C24.8224 59.6827 24.6544 59.62 24.4278 59.62C24.2438 59.62 24.0878 59.6693 23.9598 59.768C23.8344 59.864 23.7478 59.984 23.6998 60.128C23.6438 60.2747 23.5704 60.372 23.4798 60.42C23.3891 60.468 23.2598 60.4787 23.0918 60.452L22.4358 60.336C22.4784 60.0453 22.5598 59.792 22.6798 59.576C22.8024 59.36 22.9531 59.18 23.1318 59.036C23.3131 58.892 23.5198 58.7853 23.7518 58.716C23.9838 58.644 24.2331 58.608 24.4998 58.608C24.7878 58.608 25.0464 58.6507 25.2758 58.736C25.5078 58.8187 25.7051 58.9347 25.8678 59.084C26.0304 59.2333 26.1544 59.412 26.2398 59.62C26.3278 59.8253 26.3718 60.052 26.3718 60.3C26.3718 60.5133 26.3411 60.7107 26.2798 60.892C26.2211 61.0733 26.1398 61.2467 26.0358 61.412C25.9318 61.5747 25.8104 61.7333 25.6718 61.888C25.5358 62.04 25.3904 62.1947 25.2358 62.352L24.0958 63.52C24.2424 63.4747 24.3878 63.44 24.5318 63.416C24.6758 63.392 24.8091 63.38 24.9318 63.38H26.0198Z" fill="#FF9000"/>
<path d="M32.6596 61.568H34.8196V62.568H32.6596V61.568ZM39.3198 63.604V64.5H35.9998V63.604H37.1198V60.664C37.1198 60.5893 37.1211 60.5147 37.1238 60.44C37.1264 60.3627 37.1304 60.2853 37.1358 60.208L36.4718 60.76C36.4131 60.8053 36.3544 60.8333 36.2958 60.844C36.2398 60.852 36.1864 60.852 36.1358 60.844C36.0851 60.8333 36.0398 60.816 35.9998 60.792C35.9598 60.7653 35.9304 60.7387 35.9118 60.712L35.5198 60.192L37.3358 58.668H38.3598V63.604H39.3198Z" fill="#FF9000"/>
<rect x="43.5" y="56" width="11" height="11" rx="1" fill="#FF9300"/>
<rect x="43.5" y="56" width="11" height="11" rx="1" stroke="#FF9300"/>
<path d="M51.1597 61.584C51.1597 62.0933 51.105 62.5347 50.9957 62.908C50.8864 63.2813 50.7344 63.5907 50.5397 63.836C50.3477 64.0813 50.1184 64.264 49.8517 64.384C49.5877 64.504 49.301 64.564 48.9917 64.564C48.6824 64.564 48.3957 64.504 48.1317 64.384C47.8704 64.264 47.6437 64.0813 47.4517 63.836C47.2597 63.5907 47.109 63.2813 46.9997 62.908C46.893 62.5347 46.8397 62.0933 46.8397 61.584C46.8397 61.0747 46.893 60.6333 46.9997 60.26C47.109 59.8867 47.2597 59.5773 47.4517 59.332C47.6437 59.0867 47.8704 58.9053 48.1317 58.788C48.3957 58.668 48.6824 58.608 48.9917 58.608C49.301 58.608 49.5877 58.668 49.8517 58.788C50.1184 58.9053 50.3477 59.0867 50.5397 59.332C50.7344 59.5773 50.8864 59.8867 50.9957 60.26C51.105 60.6333 51.1597 61.0747 51.1597 61.584ZM49.8797 61.584C49.8797 61.1813 49.8544 60.852 49.8037 60.596C49.753 60.3373 49.685 60.1347 49.5997 59.988C49.517 59.8413 49.4224 59.7413 49.3157 59.688C49.209 59.632 49.101 59.604 48.9917 59.604C48.8824 59.604 48.7744 59.632 48.6677 59.688C48.5637 59.7413 48.4704 59.8413 48.3877 59.988C48.3077 60.1347 48.2424 60.3373 48.1917 60.596C48.1437 60.852 48.1197 61.1813 48.1197 61.584C48.1197 61.9893 48.1437 62.32 48.1917 62.576C48.2424 62.832 48.3077 63.0347 48.3877 63.184C48.4704 63.3307 48.5637 63.432 48.6677 63.488C48.7744 63.5413 48.8824 63.568 48.9917 63.568C49.101 63.568 49.209 63.5413 49.3157 63.488C49.4224 63.432 49.517 63.3307 49.5997 63.184C49.685 63.0347 49.753 62.832 49.8037 62.576C49.8544 62.32 49.8797 61.9893 49.8797 61.584Z" fill="black"/>
<path d="M61.7194 62.256H60.2394V63.848H59.2314V62.256H57.7594V61.368H59.2314V59.784H60.2394V61.368H61.7194V62.256ZM66.144 63.604V64.5H62.824V63.604H63.944V60.664C63.944 60.5893 63.9453 60.5147 63.948 60.44C63.9507 60.3627 63.9547 60.2853 63.96 60.208L63.296 60.76C63.2373 60.8053 63.1787 60.8333 63.12 60.844C63.064 60.852 63.0107 60.852 62.96 60.844C62.9093 60.8333 62.864 60.816 62.824 60.792C62.784 60.7653 62.7547 60.7387 62.736 60.712L62.344 60.192L64.16 58.668H65.184V63.604H66.144Z" fill="#FF9000"/>
<path d="M74.7194 62.256H73.2394V63.848H72.2314V62.256H70.7594V61.368H72.2314V59.784H73.2394V61.368H74.7194V62.256ZM78.844 63.38C78.9773 63.38 79.0827 63.4173 79.16 63.492C79.2373 63.564 79.276 63.66 79.276 63.78V64.5H75.18V64.1C75.18 64.0227 75.196 63.94 75.228 63.852C75.26 63.764 75.316 63.684 75.396 63.612L77.076 61.92C77.22 61.776 77.3453 61.6387 77.452 61.508C77.5587 61.3773 77.6467 61.2493 77.716 61.124C77.7853 60.996 77.8373 60.8693 77.872 60.744C77.9067 60.616 77.924 60.4813 77.924 60.34C77.924 60.108 77.868 59.9307 77.756 59.808C77.6467 59.6827 77.4787 59.62 77.252 59.62C77.068 59.62 76.912 59.6693 76.784 59.768C76.6587 59.864 76.572 59.984 76.524 60.128C76.468 60.2747 76.3947 60.372 76.304 60.42C76.2133 60.468 76.084 60.4787 75.916 60.452L75.26 60.336C75.3027 60.0453 75.384 59.792 75.504 59.576C75.6267 59.36 75.7773 59.18 75.956 59.036C76.1373 58.892 76.344 58.7853 76.576 58.716C76.808 58.644 77.0573 58.608 77.324 58.608C77.612 58.608 77.8707 58.6507 78.1 58.736C78.332 58.8187 78.5293 58.9347 78.692 59.084C78.8547 59.2333 78.9787 59.412 79.064 59.62C79.152 59.8253 79.196 60.052 79.196 60.3C79.196 60.5133 79.1653 60.7107 79.104 60.892C79.0453 61.0733 78.964 61.2467 78.86 61.412C78.756 61.5747 78.6347 61.7333 78.496 61.888C78.36 62.04 78.2147 62.1947 78.06 62.352L76.92 63.52C77.0667 63.4747 77.212 63.44 77.356 63.416C77.5 63.392 77.6333 63.38 77.756 63.38H78.844Z" fill="#FF9000"/>
<path d="M87.7194 62.256H86.2394V63.848H85.2314V62.256H83.7594V61.368H85.2314V59.784H86.2394V61.368H87.7194V62.256ZM88.292 60.336C88.3347 60.0453 88.416 59.792 88.536 59.576C88.6587 59.36 88.8093 59.18 88.988 59.036C89.1693 58.892 89.376 58.7853 89.608 58.716C89.84 58.644 90.0893 58.608 90.356 58.608C90.644 58.608 90.9 58.6493 91.124 58.732C91.348 58.812 91.5373 58.9213 91.692 59.06C91.8467 59.1987 91.964 59.36 92.044 59.544C92.124 59.7253 92.164 59.9173 92.164 60.12C92.164 60.304 92.1453 60.4667 92.108 60.608C92.0707 60.7467 92.0147 60.868 91.94 60.972C91.868 61.0733 91.7773 61.16 91.668 61.232C91.5613 61.3013 91.4387 61.36 91.3 61.408C91.9453 61.6347 92.268 62.0747 92.268 62.728C92.268 63.0373 92.212 63.3067 92.1 63.536C91.988 63.7653 91.8373 63.956 91.648 64.108C91.4613 64.26 91.244 64.3747 90.996 64.452C90.748 64.5267 90.4893 64.564 90.22 64.564C89.9427 64.564 89.696 64.5347 89.48 64.476C89.264 64.4147 89.072 64.3213 88.904 64.196C88.736 64.068 88.588 63.9053 88.46 63.708C88.3347 63.5107 88.2253 63.276 88.132 63.004L88.684 62.78C88.828 62.724 88.9613 62.7093 89.084 62.736C89.2067 62.7627 89.2947 62.824 89.348 62.92C89.468 63.1413 89.5947 63.3027 89.728 63.404C89.864 63.5027 90.0227 63.552 90.204 63.552C90.3427 63.552 90.4627 63.5293 90.564 63.484C90.668 63.436 90.7533 63.376 90.82 63.304C90.8893 63.2293 90.9413 63.1453 90.976 63.052C91.0107 62.9587 91.028 62.864 91.028 62.768C91.028 62.6427 91.0187 62.5307 91 62.432C90.984 62.3307 90.936 62.244 90.856 62.172C90.776 62.1 90.6547 62.0453 90.492 62.008C90.332 61.968 90.108 61.948 89.82 61.948V61.092C90.0627 61.092 90.2587 61.0733 90.408 61.036C90.5573 60.9987 90.672 60.948 90.752 60.884C90.8347 60.8173 90.8893 60.7373 90.916 60.644C90.9427 60.5507 90.956 60.448 90.956 60.336C90.956 60.1067 90.9 59.9307 90.788 59.808C90.6787 59.6827 90.5107 59.62 90.284 59.62C90.1 59.62 89.944 59.6693 89.816 59.768C89.6907 59.864 89.604 59.984 89.556 60.128C89.5 60.2747 89.4267 60.372 89.336 60.42C89.2453 60.468 89.116 60.4787 88.948 60.452L88.292 60.336Z" fill="#FF9000"/>
<path d="M6.65959 79.568H8.81959V80.568H6.65959V79.568ZM9.46778 78.336C9.51045 78.0453 9.59178 77.792 9.71178 77.576C9.83445 77.36 9.98511 77.18 10.1638 77.036C10.3451 76.892 10.5518 76.7853 10.7838 76.716C11.0158 76.644 11.2651 76.608 11.5318 76.608C11.8198 76.608 12.0758 76.6493 12.2998 76.732C12.5238 76.812 12.7131 76.9213 12.8678 77.06C13.0224 77.1987 13.1398 77.36 13.2198 77.544C13.2998 77.7253 13.3398 77.9173 13.3398 78.12C13.3398 78.304 13.3211 78.4667 13.2838 78.608C13.2464 78.7467 13.1904 78.868 13.1158 78.972C13.0438 79.0733 12.9531 79.16 12.8438 79.232C12.7371 79.3013 12.6144 79.36 12.4758 79.408C13.1211 79.6347 13.4438 80.0747 13.4438 80.728C13.4438 81.0373 13.3878 81.3067 13.2758 81.536C13.1638 81.7653 13.0131 81.956 12.8238 82.108C12.6371 82.26 12.4198 82.3747 12.1718 82.452C11.9238 82.5267 11.6651 82.564 11.3958 82.564C11.1184 82.564 10.8718 82.5347 10.6558 82.476C10.4398 82.4147 10.2478 82.3213 10.0798 82.196C9.91178 82.068 9.76378 81.9053 9.63578 81.708C9.51045 81.5107 9.40111 81.276 9.30778 81.004L9.85978 80.78C10.0038 80.724 10.1371 80.7093 10.2598 80.736C10.3824 80.7627 10.4704 80.824 10.5238 80.92C10.6438 81.1413 10.7704 81.3027 10.9038 81.404C11.0398 81.5027 11.1984 81.552 11.3798 81.552C11.5184 81.552 11.6384 81.5293 11.7398 81.484C11.8438 81.436 11.9291 81.376 11.9958 81.304C12.0651 81.2293 12.1171 81.1453 12.1518 81.052C12.1864 80.9587 12.2038 80.864 12.2038 80.768C12.2038 80.6427 12.1944 80.5307 12.1758 80.432C12.1598 80.3307 12.1118 80.244 12.0318 80.172C11.9518 80.1 11.8304 80.0453 11.6678 80.008C11.5078 79.968 11.2838 79.948 10.9958 79.948V79.092C11.2384 79.092 11.4344 79.0733 11.5838 79.036C11.7331 78.9987 11.8478 78.948 11.9278 78.884C12.0104 78.8173 12.0651 78.7373 12.0918 78.644C12.1184 78.5507 12.1318 78.448 12.1318 78.336C12.1318 78.1067 12.0758 77.9307 11.9638 77.808C11.8544 77.6827 11.6864 77.62 11.4598 77.62C11.2758 77.62 11.1198 77.6693 10.9918 77.768C10.8664 77.864 10.7798 77.984 10.7318 78.128C10.6758 78.2747 10.6024 78.372 10.5118 78.42C10.4211 78.468 10.2918 78.4787 10.1238 78.452L9.46778 78.336Z" fill="#FF9000"/>
<path d="M19.6596 79.568H21.8196V80.568H19.6596V79.568ZM26.0198 81.38C26.1531 81.38 26.2584 81.4173 26.3358 81.492C26.4131 81.564 26.4518 81.66 26.4518 81.78V82.5H22.3558V82.1C22.3558 82.0227 22.3718 81.94 22.4038 81.852C22.4358 81.764 22.4918 81.684 22.5718 81.612L24.2518 79.92C24.3958 79.776 24.5211 79.6387 24.6278 79.508C24.7344 79.3773 24.8224 79.2493 24.8918 79.124C24.9611 78.996 25.0131 78.8693 25.0478 78.744C25.0824 78.616 25.0998 78.4813 25.0998 78.34C25.0998 78.108 25.0438 77.9307 24.9318 77.808C24.8224 77.6827 24.6544 77.62 24.4278 77.62C24.2438 77.62 24.0878 77.6693 23.9598 77.768C23.8344 77.864 23.7478 77.984 23.6998 78.128C23.6438 78.2747 23.5704 78.372 23.4798 78.42C23.3891 78.468 23.2598 78.4787 23.0918 78.452L22.4358 78.336C22.4784 78.0453 22.5598 77.792 22.6798 77.576C22.8024 77.36 22.9531 77.18 23.1318 77.036C23.3131 76.892 23.5198 76.7853 23.7518 76.716C23.9838 76.644 24.2331 76.608 24.4998 76.608C24.7878 76.608 25.0464 76.6507 25.2758 76.736C25.5078 76.8187 25.7051 76.9347 25.8678 77.084C26.0304 77.2333 26.1544 77.412 26.2398 77.62C26.3278 77.8253 26.3718 78.052 26.3718 78.3C26.3718 78.5133 26.3411 78.7107 26.2798 78.892C26.2211 79.0733 26.1398 79.2467 26.0358 79.412C25.9318 79.5747 25.8104 79.7333 25.6718 79.888C25.5358 80.04 25.3904 80.1947 25.2358 80.352L24.0958 81.52C24.2424 81.4747 24.3878 81.44 24.5318 81.416C24.6758 81.392 24.8091 81.38 24.9318 81.38H26.0198Z" fill="#FF9000"/>
<path d="M32.6596 79.568H34.8196V80.568H32.6596V79.568ZM39.3198 81.604V82.5H35.9998V81.604H37.1198V78.664C37.1198 78.5893 37.1211 78.5147 37.1238 78.44C37.1264 78.3627 37.1304 78.2853 37.1358 78.208L36.4718 78.76C36.4131 78.8053 36.3544 78.8333 36.2958 78.844C36.2398 78.852 36.1864 78.852 36.1358 78.844C36.0851 78.8333 36.0398 78.816 35.9998 78.792C35.9598 78.7653 35.9304 78.7387 35.9118 78.712L35.5198 78.192L37.3358 76.668H38.3598V81.604H39.3198Z" fill="#FF9000"/>
<path d="M51.1597 79.584C51.1597 80.0933 51.105 80.5347 50.9957 80.908C50.8864 81.2813 50.7344 81.5907 50.5397 81.836C50.3477 82.0813 50.1184 82.264 49.8517 82.384C49.5877 82.504 49.301 82.564 48.9917 82.564C48.6824 82.564 48.3957 82.504 48.1317 82.384C47.8704 82.264 47.6437 82.0813 47.4517 81.836C47.2597 81.5907 47.109 81.2813 46.9997 80.908C46.893 80.5347 46.8397 80.0933 46.8397 79.584C46.8397 79.0747 46.893 78.6333 46.9997 78.26C47.109 77.8867 47.2597 77.5773 47.4517 77.332C47.6437 77.0867 47.8704 76.9053 48.1317 76.788C48.3957 76.668 48.6824 76.608 48.9917 76.608C49.301 76.608 49.5877 76.668 49.8517 76.788C50.1184 76.9053 50.3477 77.0867 50.5397 77.332C50.7344 77.5773 50.8864 77.8867 50.9957 78.26C51.105 78.6333 51.1597 79.0747 51.1597 79.584ZM49.8797 79.584C49.8797 79.1813 49.8544 78.852 49.8037 78.596C49.753 78.3373 49.685 78.1347 49.5997 77.988C49.517 77.8413 49.4224 77.7413 49.3157 77.688C49.209 77.632 49.101 77.604 48.9917 77.604C48.8824 77.604 48.7744 77.632 48.6677 77.688C48.5637 77.7413 48.4704 77.8413 48.3877 77.988C48.3077 78.1347 48.2424 78.3373 48.1917 78.596C48.1437 78.852 48.1197 79.1813 48.1197 79.584C48.1197 79.9893 48.1437 80.32 48.1917 80.576C48.2424 80.832 48.3077 81.0347 48.3877 81.184C48.4704 81.3307 48.5637 81.432 48.6677 81.488C48.7744 81.5413 48.8824 81.568 48.9917 81.568C49.101 81.568 49.209 81.5413 49.3157 81.488C49.4224 81.432 49.517 81.3307 49.5997 81.184C49.685 81.0347 49.753 80.832 49.8037 80.576C49.8544 80.32 49.8797 79.9893 49.8797 79.584Z" fill="#FF9000"/>
<rect x="56.5" y="74" width="11" height="11" rx="1" fill="#FF9300"/>
<rect x="56.5" y="74" width="11" height="11" rx="1" stroke="#FF9300"/>
<path d="M61.7194 80.256H60.2394V81.848H59.2314V80.256H57.7594V79.368H59.2314V77.784H60.2394V79.368H61.7194V80.256ZM66.144 81.604V82.5H62.824V81.604H63.944V78.664C63.944 78.5893 63.9453 78.5147 63.948 78.44C63.9507 78.3627 63.9547 78.2853 63.96 78.208L63.296 78.76C63.2373 78.8053 63.1787 78.8333 63.12 78.844C63.064 78.852 63.0107 78.852 62.96 78.844C62.9093 78.8333 62.864 78.816 62.824 78.792C62.784 78.7653 62.7547 78.7387 62.736 78.712L62.344 78.192L64.16 76.668H65.184V81.604H66.144Z" fill="black"/>
<path d="M74.7194 80.256H73.2394V81.848H72.2314V80.256H70.7594V79.368H72.2314V77.784H73.2394V79.368H74.7194V80.256ZM78.844 81.38C78.9773 81.38 79.0827 81.4173 79.16 81.492C79.2373 81.564 79.276 81.66 79.276 81.78V82.5H75.18V82.1C75.18 82.0227 75.196 81.94 75.228 81.852C75.26 81.764 75.316 81.684 75.396 81.612L77.076 79.92C77.22 79.776 77.3453 79.6387 77.452 79.508C77.5587 79.3773 77.6467 79.2493 77.716 79.124C77.7853 78.996 77.8373 78.8693 77.872 78.744C77.9067 78.616 77.924 78.4813 77.924 78.34C77.924 78.108 77.868 77.9307 77.756 77.808C77.6467 77.6827 77.4787 77.62 77.252 77.62C77.068 77.62 76.912 77.6693 76.784 77.768C76.6587 77.864 76.572 77.984 76.524 78.128C76.468 78.2747 76.3947 78.372 76.304 78.42C76.2133 78.468 76.084 78.4787 75.916 78.452L75.26 78.336C75.3027 78.0453 75.384 77.792 75.504 77.576C75.6267 77.36 75.7773 77.18 75.956 77.036C76.1373 76.892 76.344 76.7853 76.576 76.716C76.808 76.644 77.0573 76.608 77.324 76.608C77.612 76.608 77.8707 76.6507 78.1 76.736C78.332 76.8187 78.5293 76.9347 78.692 77.084C78.8547 77.2333 78.9787 77.412 79.064 77.62C79.152 77.8253 79.196 78.052 79.196 78.3C79.196 78.5133 79.1653 78.7107 79.104 78.892C79.0453 79.0733 78.964 79.2467 78.86 79.412C78.756 79.5747 78.6347 79.7333 78.496 79.888C78.36 80.04 78.2147 80.1947 78.06 80.352L76.92 81.52C77.0667 81.4747 77.212 81.44 77.356 81.416C77.5 81.392 77.6333 81.38 77.756 81.38H78.844Z" fill="#FF9000"/>
<path d="M87.7194 80.256H86.2394V81.848H85.2314V80.256H83.7594V79.368H85.2314V77.784H86.2394V79.368H87.7194V80.256ZM88.292 78.336C88.3347 78.0453 88.416 77.792 88.536 77.576C88.6587 77.36 88.8093 77.18 88.988 77.036C89.1693 76.892 89.376 76.7853 89.608 76.716C89.84 76.644 90.0893 76.608 90.356 76.608C90.644 76.608 90.9 76.6493 91.124 76.732C91.348 76.812 91.5373 76.9213 91.692 77.06C91.8467 77.1987 91.964 77.36 92.044 77.544C92.124 77.7253 92.164 77.9173 92.164 78.12C92.164 78.304 92.1453 78.4667 92.108 78.608C92.0707 78.7467 92.0147 78.868 91.94 78.972C91.868 79.0733 91.7773 79.16 91.668 79.232C91.5613 79.3013 91.4387 79.36 91.3 79.408C91.9453 79.6347 92.268 80.0747 92.268 80.728C92.268 81.0373 92.212 81.3067 92.1 81.536C91.988 81.7653 91.8373 81.956 91.648 82.108C91.4613 82.26 91.244 82.3747 90.996 82.452C90.748 82.5267 90.4893 82.564 90.22 82.564C89.9427 82.564 89.696 82.5347 89.48 82.476C89.264 82.4147 89.072 82.3213 88.904 82.196C88.736 82.068 88.588 81.9053 88.46 81.708C88.3347 81.5107 88.2253 81.276 88.132 81.004L88.684 80.78C88.828 80.724 88.9613 80.7093 89.084 80.736C89.2067 80.7627 89.2947 80.824 89.348 80.92C89.468 81.1413 89.5947 81.3027 89.728 81.404C89.864 81.5027 90.0227 81.552 90.204 81.552C90.3427 81.552 90.4627 81.5293 90.564 81.484C90.668 81.436 90.7533 81.376 90.82 81.304C90.8893 81.2293 90.9413 81.1453 90.976 81.052C91.0107 80.9587 91.028 80.864 91.028 80.768C91.028 80.6427 91.0187 80.5307 91 80.432C90.984 80.3307 90.936 80.244 90.856 80.172C90.776 80.1 90.6547 80.0453 90.492 80.008C90.332 79.968 90.108 79.948 89.82 79.948V79.092C90.0627 79.092 90.2587 79.0733 90.408 79.036C90.5573 78.9987 90.672 78.948 90.752 78.884C90.8347 78.8173 90.8893 78.7373 90.916 78.644C90.9427 78.5507 90.956 78.448 90.956 78.336C90.956 78.1067 90.9 77.9307 90.788 77.808C90.6787 77.6827 90.5107 77.62 90.284 77.62C90.1 77.62 89.944 77.6693 89.816 77.768C89.6907 77.864 89.604 77.984 89.556 78.128C89.5 78.2747 89.4267 78.372 89.336 78.42C89.2453 78.468 89.116 78.4787 88.948 78.452L88.292 78.336Z" fill="#FF9000"/>
<path d="M6.65959 97.568H8.81959V98.568H6.65959V97.568ZM9.46778 96.336C9.51045 96.0453 9.59178 95.792 9.71178 95.576C9.83445 95.36 9.98511 95.18 10.1638 95.036C10.3451 94.892 10.5518 94.7853 10.7838 94.716C11.0158 94.644 11.2651 94.608 11.5318 94.608C11.8198 94.608 12.0758 94.6493 12.2998 94.732C12.5238 94.812 12.7131 94.9213 12.8678 95.06C13.0224 95.1987 13.1398 95.36 13.2198 95.544C13.2998 95.7253 13.3398 95.9173 13.3398 96.12C13.3398 96.304 13.3211 96.4667 13.2838 96.608C13.2464 96.7467 13.1904 96.868 13.1158 96.972C13.0438 97.0733 12.9531 97.16 12.8438 97.232C12.7371 97.3013 12.6144 97.36 12.4758 97.408C13.1211 97.6347 13.4438 98.0747 13.4438 98.728C13.4438 99.0373 13.3878 99.3067 13.2758 99.536C13.1638 99.7653 13.0131 99.956 12.8238 100.108C12.6371 100.26 12.4198 100.375 12.1718 100.452C11.9238 100.527 11.6651 100.564 11.3958 100.564C11.1184 100.564 10.8718 100.535 10.6558 100.476C10.4398 100.415 10.2478 100.321 10.0798 100.196C9.91178 100.068 9.76378 99.9053 9.63578 99.708C9.51045 99.5107 9.40111 99.276 9.30778 99.004L9.85978 98.78C10.0038 98.724 10.1371 98.7093 10.2598 98.736C10.3824 98.7627 10.4704 98.824 10.5238 98.92C10.6438 99.1413 10.7704 99.3027 10.9038 99.404C11.0398 99.5027 11.1984 99.552 11.3798 99.552C11.5184 99.552 11.6384 99.5293 11.7398 99.484C11.8438 99.436 11.9291 99.376 11.9958 99.304C12.0651 99.2293 12.1171 99.1453 12.1518 99.052C12.1864 98.9587 12.2038 98.864 12.2038 98.768C12.2038 98.6427 12.1944 98.5307 12.1758 98.432C12.1598 98.3307 12.1118 98.244 12.0318 98.172C11.9518 98.1 11.8304 98.0453 11.6678 98.008C11.5078 97.968 11.2838 97.948 10.9958 97.948V97.092C11.2384 97.092 11.4344 97.0733 11.5838 97.036C11.7331 96.9987 11.8478 96.948 11.9278 96.884C12.0104 96.8173 12.0651 96.7373 12.0918 96.644C12.1184 96.5507 12.1318 96.448 12.1318 96.336C12.1318 96.1067 12.0758 95.9307 11.9638 95.808C11.8544 95.6827 11.6864 95.62 11.4598 95.62C11.2758 95.62 11.1198 95.6693 10.9918 95.768C10.8664 95.864 10.7798 95.984 10.7318 96.128C10.6758 96.2747 10.6024 96.372 10.5118 96.42C10.4211 96.468 10.2918 96.4787 10.1238 96.452L9.46778 96.336Z" fill="#FF9000"/>
<path d="M19.6596 97.568H21.8196V98.568H19.6596V97.568ZM26.0198 99.38C26.1531 99.38 26.2584 99.4173 26.3358 99.492C26.4131 99.564 26.4518 99.66 26.4518 99.78V100.5H22.3558V100.1C22.3558 100.023 22.3718 99.94 22.4038 99.852C22.4358 99.764 22.4918 99.684 22.5718 99.612L24.2518 97.92C24.3958 97.776 24.5211 97.6387 24.6278 97.508C24.7344 97.3773 24.8224 97.2493 24.8918 97.124C24.9611 96.996 25.0131 96.8693 25.0478 96.744C25.0824 96.616 25.0998 96.4813 25.0998 96.34C25.0998 96.108 25.0438 95.9307 24.9318 95.808C24.8224 95.6827 24.6544 95.62 24.4278 95.62C24.2438 95.62 24.0878 95.6693 23.9598 95.768C23.8344 95.864 23.7478 95.984 23.6998 96.128C23.6438 96.2747 23.5704 96.372 23.4798 96.42C23.3891 96.468 23.2598 96.4787 23.0918 96.452L22.4358 96.336C22.4784 96.0453 22.5598 95.792 22.6798 95.576C22.8024 95.36 22.9531 95.18 23.1318 95.036C23.3131 94.892 23.5198 94.7853 23.7518 94.716C23.9838 94.644 24.2331 94.608 24.4998 94.608C24.7878 94.608 25.0464 94.6507 25.2758 94.736C25.5078 94.8187 25.7051 94.9347 25.8678 95.084C26.0304 95.2333 26.1544 95.412 26.2398 95.62C26.3278 95.8253 26.3718 96.052 26.3718 96.3C26.3718 96.5133 26.3411 96.7107 26.2798 96.892C26.2211 97.0733 26.1398 97.2467 26.0358 97.412C25.9318 97.5747 25.8104 97.7333 25.6718 97.888C25.5358 98.04 25.3904 98.1947 25.2358 98.352L24.0958 99.52C24.2424 99.4747 24.3878 99.44 24.5318 99.416C24.6758 99.392 24.8091 99.38 24.9318 99.38H26.0198Z" fill="#FF9000"/>
<path d="M32.6596 97.568H34.8196V98.568H32.6596V97.568ZM39.3198 99.604V100.5H35.9998V99.604H37.1198V96.664C37.1198 96.5893 37.1211 96.5147 37.1238 96.44C37.1264 96.3627 37.1304 96.2853 37.1358 96.208L36.4718 96.76C36.4131 96.8053 36.3544 96.8333 36.2958 96.844C36.2398 96.852 36.1864 96.852 36.1358 96.844C36.0851 96.8333 36.0398 96.816 35.9998 96.792C35.9598 96.7653 35.9304 96.7387 35.9118 96.712L35.5198 96.192L37.3358 94.668H38.3598V99.604H39.3198Z" fill="#FF9000"/>
<path d="M51.1597 97.584C51.1597 98.0933 51.105 98.5347 50.9957 98.908C50.8864 99.2813 50.7344 99.5907 50.5397 99.836C50.3477 100.081 50.1184 100.264 49.8517 100.384C49.5877 100.504 49.301 100.564 48.9917 100.564C48.6824 100.564 48.3957 100.504 48.1317 100.384C47.8704 100.264 47.6437 100.081 47.4517 99.836C47.2597 99.5907 47.109 99.2813 46.9997 98.908C46.893 98.5347 46.8397 98.0933 46.8397 97.584C46.8397 97.0747 46.893 96.6333 46.9997 96.26C47.109 95.8867 47.2597 95.5773 47.4517 95.332C47.6437 95.0867 47.8704 94.9053 48.1317 94.788C48.3957 94.668 48.6824 94.608 48.9917 94.608C49.301 94.608 49.5877 94.668 49.8517 94.788C50.1184 94.9053 50.3477 95.0867 50.5397 95.332C50.7344 95.5773 50.8864 95.8867 50.9957 96.26C51.105 96.6333 51.1597 97.0747 51.1597 97.584ZM49.8797 97.584C49.8797 97.1813 49.8544 96.852 49.8037 96.596C49.753 96.3373 49.685 96.1347 49.5997 95.988C49.517 95.8413 49.4224 95.7413 49.3157 95.688C49.209 95.632 49.101 95.604 48.9917 95.604C48.8824 95.604 48.7744 95.632 48.6677 95.688C48.5637 95.7413 48.4704 95.8413 48.3877 95.988C48.3077 96.1347 48.2424 96.3373 48.1917 96.596C48.1437 96.852 48.1197 97.1813 48.1197 97.584C48.1197 97.9893 48.1437 98.32 48.1917 98.576C48.2424 98.832 48.3077 99.0347 48.3877 99.184C48.4704 99.3307 48.5637 99.432 48.6677 99.488C48.7744 99.5413 48.8824 99.568 48.9917 99.568C49.101 99.568 49.209 99.5413 49.3157 99.488C49.4224 99.432 49.517 99.3307 49.5997 99.184C49.685 99.0347 49.753 98.832 49.8037 98.576C49.8544 98.32 49.8797 97.9893 49.8797 97.584Z" fill="#FF9000"/>
<path d="M61.7194 98.256H60.2394V99.848H59.2314V98.256H57.7594V97.368H59.2314V95.784H60.2394V97.368H61.7194V98.256ZM66.144 99.604V100.5H62.824V99.604H63.944V96.664C63.944 96.5893 63.9453 96.5147 63.948 96.44C63.9507 96.3627 63.9547 96.2853 63.96 96.208L63.296 96.76C63.2373 96.8053 63.1787 96.8333 63.12 96.844C63.064 96.852 63.0107 96.852 62.96 96.844C62.9093 96.8333 62.864 96.816 62.824 96.792C62.784 96.7653 62.7547 96.7387 62.736 96.712L62.344 96.192L64.16 94.668H65.184V99.604H66.144Z" fill="#FF9000"/>
<rect x="69.5" y="92" width="11" height="11" rx="1" fill="#FF9300"/>
<rect x="69.5" y="92" width="11" height="11" rx="1" stroke="#FF9300"/>
<path d="M74.7194 98.256H73.2394V99.848H72.2314V98.256H70.7594V97.368H72.2314V95.784H73.2394V97.368H74.7194V98.256ZM78.844 99.38C78.9773 99.38 79.0827 99.4173 79.16 99.492C79.2373 99.564 79.276 99.66 79.276 99.78V100.5H75.18V100.1C75.18 100.023 75.196 99.94 75.228 99.852C75.26 99.764 75.316 99.684 75.396 99.612L77.076 97.92C77.22 97.776 77.3453 97.6387 77.452 97.508C77.5587 97.3773 77.6467 97.2493 77.716 97.124C77.7853 96.996 77.8373 96.8693 77.872 96.744C77.9067 96.616 77.924 96.4813 77.924 96.34C77.924 96.108 77.868 95.9307 77.756 95.808C77.6467 95.6827 77.4787 95.62 77.252 95.62C77.068 95.62 76.912 95.6693 76.784 95.768C76.6587 95.864 76.572 95.984 76.524 96.128C76.468 96.2747 76.3947 96.372 76.304 96.42C76.2133 96.468 76.084 96.4787 75.916 96.452L75.26 96.336C75.3027 96.0453 75.384 95.792 75.504 95.576C75.6267 95.36 75.7773 95.18 75.956 95.036C76.1373 94.892 76.344 94.7853 76.576 94.716C76.808 94.644 77.0573 94.608 77.324 94.608C77.612 94.608 77.8707 94.6507 78.1 94.736C78.332 94.8187 78.5293 94.9347 78.692 95.084C78.8547 95.2333 78.9787 95.412 79.064 95.62C79.152 95.8253 79.196 96.052 79.196 96.3C79.196 96.5133 79.1653 96.7107 79.104 96.892C79.0453 97.0733 78.964 97.2467 78.86 97.412C78.756 97.5747 78.6347 97.7333 78.496 97.888C78.36 98.04 78.2147 98.1947 78.06 98.352L76.92 99.52C77.0667 99.4747 77.212 99.44 77.356 99.416C77.5 99.392 77.6333 99.38 77.756 99.38H78.844Z" fill="black"/>
<path d="M87.7194 98.256H86.2394V99.848H85.2314V98.256H83.7594V97.368H85.2314V95.784H86.2394V97.368H87.7194V98.256ZM88.292 96.336C88.3347 96.0453 88.416 95.792 88.536 95.576C88.6587 95.36 88.8093 95.18 88.988 95.036C89.1693 94.892 89.376 94.7853 89.608 94.716C89.84 94.644 90.0893 94.608 90.356 94.608C90.644 94.608 90.9 94.6493 91.124 94.732C91.348 94.812 91.5373 94.9213 91.692 95.06C91.8467 95.1987 91.964 95.36 92.044 95.544C92.124 95.7253 92.164 95.9173 92.164 96.12C92.164 96.304 92.1453 96.4667 92.108 96.608C92.0707 96.7467 92.0147 96.868 91.94 96.972C91.868 97.0733 91.7773 97.16 91.668 97.232C91.5613 97.3013 91.4387 97.36 91.3 97.408C91.9453 97.6347 92.268 98.0747 92.268 98.728C92.268 99.0373 92.212 99.3067 92.1 99.536C91.988 99.7653 91.8373 99.956 91.648 100.108C91.4613 100.26 91.244 100.375 90.996 100.452C90.748 100.527 90.4893 100.564 90.22 100.564C89.9427 100.564 89.696 100.535 89.48 100.476C89.264 100.415 89.072 100.321 88.904 100.196C88.736 100.068 88.588 99.9053 88.46 99.708C88.3347 99.5107 88.2253 99.276 88.132 99.004L88.684 98.78C88.828 98.724 88.9613 98.7093 89.084 98.736C89.2067 98.7627 89.2947 98.824 89.348 98.92C89.468 99.1413 89.5947 99.3027 89.728 99.404C89.864 99.5027 90.0227 99.552 90.204 99.552C90.3427 99.552 90.4627 99.5293 90.564 99.484C90.668 99.436 90.7533 99.376 90.82 99.304C90.8893 99.2293 90.9413 99.1453 90.976 99.052C91.0107 98.9587 91.028 98.864 91.028 98.768C91.028 98.6427 91.0187 98.5307 91 98.432C90.984 98.3307 90.936 98.244 90.856 98.172C90.776 98.1 90.6547 98.0453 90.492 98.008C90.332 97.968 90.108 97.948 89.82 97.948V97.092C90.0627 97.092 90.2587 97.0733 90.408 97.036C90.5573 96.9987 90.672 96.948 90.752 96.884C90.8347 96.8173 90.8893 96.7373 90.916 96.644C90.9427 96.5507 90.956 96.448 90.956 96.336C90.956 96.1067 90.9 95.9307 90.788 95.808C90.6787 95.6827 90.5107 95.62 90.284 95.62C90.1 95.62 89.944 95.6693 89.816 95.768C89.6907 95.864 89.604 95.984 89.556 96.128C89.5 96.2747 89.4267 96.372 89.336 96.42C89.2453 96.468 89.116 96.4787 88.948 96.452L88.292 96.336Z" fill="#FF9000"/>
<path d="M6.65959 115.568H8.81959V116.568H6.65959V115.568ZM9.46778 114.336C9.51045 114.045 9.59178 113.792 9.71178 113.576C9.83445 113.36 9.98511 113.18 10.1638 113.036C10.3451 112.892 10.5518 112.785 10.7838 112.716C11.0158 112.644 11.2651 112.608 11.5318 112.608C11.8198 112.608 12.0758 112.649 12.2998 112.732C12.5238 112.812 12.7131 112.921 12.8678 113.06C13.0224 113.199 13.1398 113.36 13.2198 113.544C13.2998 113.725 13.3398 113.917 13.3398 114.12C13.3398 114.304 13.3211 114.467 13.2838 114.608C13.2464 114.747 13.1904 114.868 13.1158 114.972C13.0438 115.073 12.9531 115.16 12.8438 115.232C12.7371 115.301 12.6144 115.36 12.4758 115.408C13.1211 115.635 13.4438 116.075 13.4438 116.728C13.4438 117.037 13.3878 117.307 13.2758 117.536C13.1638 117.765 13.0131 117.956 12.8238 118.108C12.6371 118.26 12.4198 118.375 12.1718 118.452C11.9238 118.527 11.6651 118.564 11.3958 118.564C11.1184 118.564 10.8718 118.535 10.6558 118.476C10.4398 118.415 10.2478 118.321 10.0798 118.196C9.91178 118.068 9.76378 117.905 9.63578 117.708C9.51045 117.511 9.40111 117.276 9.30778 117.004L9.85978 116.78C10.0038 116.724 10.1371 116.709 10.2598 116.736C10.3824 116.763 10.4704 116.824 10.5238 116.92C10.6438 117.141 10.7704 117.303 10.9038 117.404C11.0398 117.503 11.1984 117.552 11.3798 117.552C11.5184 117.552 11.6384 117.529 11.7398 117.484C11.8438 117.436 11.9291 117.376 11.9958 117.304C12.0651 117.229 12.1171 117.145 12.1518 117.052C12.1864 116.959 12.2038 116.864 12.2038 116.768C12.2038 116.643 12.1944 116.531 12.1758 116.432C12.1598 116.331 12.1118 116.244 12.0318 116.172C11.9518 116.1 11.8304 116.045 11.6678 116.008C11.5078 115.968 11.2838 115.948 10.9958 115.948V115.092C11.2384 115.092 11.4344 115.073 11.5838 115.036C11.7331 114.999 11.8478 114.948 11.9278 114.884C12.0104 114.817 12.0651 114.737 12.0918 114.644C12.1184 114.551 12.1318 114.448 12.1318 114.336C12.1318 114.107 12.0758 113.931 11.9638 113.808C11.8544 113.683 11.6864 113.62 11.4598 113.62C11.2758 113.62 11.1198 113.669 10.9918 113.768C10.8664 113.864 10.7798 113.984 10.7318 114.128C10.6758 114.275 10.6024 114.372 10.5118 114.42C10.4211 114.468 10.2918 114.479 10.1238 114.452L9.46778 114.336Z" fill="#FF9000"/>
<path d="M19.6596 115.568H21.8196V116.568H19.6596V115.568ZM26.0198 117.38C26.1531 117.38 26.2584 117.417 26.3358 117.492C26.4131 117.564 26.4518 117.66 26.4518 117.78V118.5H22.3558V118.1C22.3558 118.023 22.3718 117.94 22.4038 117.852C22.4358 117.764 22.4918 117.684 22.5718 117.612L24.2518 115.92C24.3958 115.776 24.5211 115.639 24.6278 115.508C24.7344 115.377 24.8224 115.249 24.8918 115.124C24.9611 114.996 25.0131 114.869 25.0478 114.744C25.0824 114.616 25.0998 114.481 25.0998 114.34C25.0998 114.108 25.0438 113.931 24.9318 113.808C24.8224 113.683 24.6544 113.62 24.4278 113.62C24.2438 113.62 24.0878 113.669 23.9598 113.768C23.8344 113.864 23.7478 113.984 23.6998 114.128C23.6438 114.275 23.5704 114.372 23.4798 114.42C23.3891 114.468 23.2598 114.479 23.0918 114.452L22.4358 114.336C22.4784 114.045 22.5598 113.792 22.6798 113.576C22.8024 113.36 22.9531 113.18 23.1318 113.036C23.3131 112.892 23.5198 112.785 23.7518 112.716C23.9838 112.644 24.2331 112.608 24.4998 112.608C24.7878 112.608 25.0464 112.651 25.2758 112.736C25.5078 112.819 25.7051 112.935 25.8678 113.084C26.0304 113.233 26.1544 113.412 26.2398 113.62C26.3278 113.825 26.3718 114.052 26.3718 114.3C26.3718 114.513 26.3411 114.711 26.2798 114.892C26.2211 115.073 26.1398 115.247 26.0358 115.412C25.9318 115.575 25.8104 115.733 25.6718 115.888C25.5358 116.04 25.3904 116.195 25.2358 116.352L24.0958 117.52C24.2424 117.475 24.3878 117.44 24.5318 117.416C24.6758 117.392 24.8091 117.38 24.9318 117.38H26.0198Z" fill="#FF9000"/>
<path d="M32.6596 115.568H34.8196V116.568H32.6596V115.568ZM39.3198 117.604V118.5H35.9998V117.604H37.1198V114.664C37.1198 114.589 37.1211 114.515 37.1238 114.44C37.1264 114.363 37.1304 114.285 37.1358 114.208L36.4718 114.76C36.4131 114.805 36.3544 114.833 36.2958 114.844C36.2398 114.852 36.1864 114.852 36.1358 114.844C36.0851 114.833 36.0398 114.816 35.9998 114.792C35.9598 114.765 35.9304 114.739 35.9118 114.712L35.5198 114.192L37.3358 112.668H38.3598V117.604H39.3198Z" fill="#FF9000"/>
<path d="M51.1597 115.584C51.1597 116.093 51.105 116.535 50.9957 116.908C50.8864 117.281 50.7344 117.591 50.5397 117.836C50.3477 118.081 50.1184 118.264 49.8517 118.384C49.5877 118.504 49.301 118.564 48.9917 118.564C48.6824 118.564 48.3957 118.504 48.1317 118.384C47.8704 118.264 47.6437 118.081 47.4517 117.836C47.2597 117.591 47.109 117.281 46.9997 116.908C46.893 116.535 46.8397 116.093 46.8397 115.584C46.8397 115.075 46.893 114.633 46.9997 114.26C47.109 113.887 47.2597 113.577 47.4517 113.332C47.6437 113.087 47.8704 112.905 48.1317 112.788C48.3957 112.668 48.6824 112.608 48.9917 112.608C49.301 112.608 49.5877 112.668 49.8517 112.788C50.1184 112.905 50.3477 113.087 50.5397 113.332C50.7344 113.577 50.8864 113.887 50.9957 114.26C51.105 114.633 51.1597 115.075 51.1597 115.584ZM49.8797 115.584C49.8797 115.181 49.8544 114.852 49.8037 114.596C49.753 114.337 49.685 114.135 49.5997 113.988C49.517 113.841 49.4224 113.741 49.3157 113.688C49.209 113.632 49.101 113.604 48.9917 113.604C48.8824 113.604 48.7744 113.632 48.6677 113.688C48.5637 113.741 48.4704 113.841 48.3877 113.988C48.3077 114.135 48.2424 114.337 48.1917 114.596C48.1437 114.852 48.1197 115.181 48.1197 115.584C48.1197 115.989 48.1437 116.32 48.1917 116.576C48.2424 116.832 48.3077 117.035 48.3877 117.184C48.4704 117.331 48.5637 117.432 48.6677 117.488C48.7744 117.541 48.8824 117.568 48.9917 117.568C49.101 117.568 49.209 117.541 49.3157 117.488C49.4224 117.432 49.517 117.331 49.5997 117.184C49.685 117.035 49.753 116.832 49.8037 116.576C49.8544 116.32 49.8797 115.989 49.8797 115.584Z" fill="#FF9000"/>
<path d="M61.7194 116.256H60.2394V117.848H59.2314V116.256H57.7594V115.368H59.2314V113.784H60.2394V115.368H61.7194V116.256ZM66.144 117.604V118.5H62.824V117.604H63.944V114.664C63.944 114.589 63.9453 114.515 63.948 114.44C63.9507 114.363 63.9547 114.285 63.96 114.208L63.296 114.76C63.2373 114.805 63.1787 114.833 63.12 114.844C63.064 114.852 63.0107 114.852 62.96 114.844C62.9093 114.833 62.864 114.816 62.824 114.792C62.784 114.765 62.7547 114.739 62.736 114.712L62.344 114.192L64.16 112.668H65.184V117.604H66.144Z" fill="#FF9000"/>
<path d="M74.7194 116.256H73.2394V117.848H72.2314V116.256H70.7594V115.368H72.2314V113.784H73.2394V115.368H74.7194V116.256ZM78.844 117.38C78.9773 117.38 79.0827 117.417 79.16 117.492C79.2373 117.564 79.276 117.66 79.276 117.78V118.5H75.18V118.1C75.18 118.023 75.196 117.94 75.228 117.852C75.26 117.764 75.316 117.684 75.396 117.612L77.076 115.92C77.22 115.776 77.3453 115.639 77.452 115.508C77.5587 115.377 77.6467 115.249 77.716 115.124C77.7853 114.996 77.8373 114.869 77.872 114.744C77.9067 114.616 77.924 114.481 77.924 114.34C77.924 114.108 77.868 113.931 77.756 113.808C77.6467 113.683 77.4787 113.62 77.252 113.62C77.068 113.62 76.912 113.669 76.784 113.768C76.6587 113.864 76.572 113.984 76.524 114.128C76.468 114.275 76.3947 114.372 76.304 114.42C76.2133 114.468 76.084 114.479 75.916 114.452L75.26 114.336C75.3027 114.045 75.384 113.792 75.504 113.576C75.6267 113.36 75.7773 113.18 75.956 113.036C76.1373 112.892 76.344 112.785 76.576 112.716C76.808 112.644 77.0573 112.608 77.324 112.608C77.612 112.608 77.8707 112.651 78.1 112.736C78.332 112.819 78.5293 112.935 78.692 113.084C78.8547 113.233 78.9787 113.412 79.064 113.62C79.152 113.825 79.196 114.052 79.196 114.3C79.196 114.513 79.1653 114.711 79.104 114.892C79.0453 115.073 78.964 115.247 78.86 115.412C78.756 115.575 78.6347 115.733 78.496 115.888C78.36 116.04 78.2147 116.195 78.06 116.352L76.92 117.52C77.0667 117.475 77.212 117.44 77.356 117.416C77.5 117.392 77.6333 117.38 77.756 117.38H78.844Z" fill="#FF9000"/>
<rect x="82.5" y="110" width="11" height="11" rx="1" fill="#FF9300"/>
<rect x="82.5" y="110" width="11" height="11" rx="1" stroke="#FF9300"/>
<path d="M87.7194 116.256H86.2394V117.848H85.2314V116.256H83.7594V115.368H85.2314V113.784H86.2394V115.368H87.7194V116.256ZM88.292 114.336C88.3347 114.045 88.416 113.792 88.536 113.576C88.6587 113.36 88.8093 113.18 88.988 113.036C89.1693 112.892 89.376 112.785 89.608 112.716C89.84 112.644 90.0893 112.608 90.356 112.608C90.644 112.608 90.9 112.649 91.124 112.732C91.348 112.812 91.5373 112.921 91.692 113.06C91.8467 113.199 91.964 113.36 92.044 113.544C92.124 113.725 92.164 113.917 92.164 114.12C92.164 114.304 92.1453 114.467 92.108 114.608C92.0707 114.747 92.0147 114.868 91.94 114.972C91.868 115.073 91.7773 115.16 91.668 115.232C91.5613 115.301 91.4387 115.36 91.3 115.408C91.9453 115.635 92.268 116.075 92.268 116.728C92.268 117.037 92.212 117.307 92.1 117.536C91.988 117.765 91.8373 117.956 91.648 118.108C91.4613 118.26 91.244 118.375 90.996 118.452C90.748 118.527 90.4893 118.564 90.22 118.564C89.9427 118.564 89.696 118.535 89.48 118.476C89.264 118.415 89.072 118.321 88.904 118.196C88.736 118.068 88.588 117.905 88.46 117.708C88.3347 117.511 88.2253 117.276 88.132 117.004L88.684 116.78C88.828 116.724 88.9613 116.709 89.084 116.736C89.2067 116.763 89.2947 116.824 89.348 116.92C89.468 117.141 89.5947 117.303 89.728 117.404C89.864 117.503 90.0227 117.552 90.204 117.552C90.3427 117.552 90.4627 117.529 90.564 117.484C90.668 117.436 90.7533 117.376 90.82 117.304C90.8893 117.229 90.9413 117.145 90.976 117.052C91.0107 116.959 91.028 116.864 91.028 116.768C91.028 116.643 91.0187 116.531 91 116.432C90.984 116.331 90.936 116.244 90.856 116.172C90.776 116.1 90.6547 116.045 90.492 116.008C90.332 115.968 90.108 115.948 89.82 115.948V115.092C90.0627 115.092 90.2587 115.073 90.408 115.036C90.5573 114.999 90.672 114.948 90.752 114.884C90.8347 114.817 90.8893 114.737 90.916 114.644C90.9427 114.551 90.956 114.448 90.956 114.336C90.956 114.107 90.9 113.931 90.788 113.808C90.6787 113.683 90.5107 113.62 90.284 113.62C90.1 113.62 89.944 113.669 89.816 113.768C89.6907 113.864 89.604 113.984 89.556 114.128C89.5 114.275 89.4267 114.372 89.336 114.42C89.2453 114.468 89.116 114.479 88.948 114.452L88.292 114.336Z" fill="black"/>
</svg>
