<?xml version="1.0" encoding="utf-8"?>
<svg width="32px" height="12px" viewBox="0 0 32 12" version="1.1" xmlns:xlink="http://www.w3.org/1999/xlink" xmlns="http://www.w3.org/2000/svg">
  <defs>
    <rect width="32" height="12" id="artboard_1" />
    <clipPath id="clip_1">
      <use xlink:href="#artboard_1" clip-rule="evenodd" />
    </clipPath>
  </defs>
  <g id="bmp00306-Copy" clip-path="url(#clip_1)">
    <path d="M1.999 0L29.001 0Q29.0992 0 29.1969 0.00962573Q29.2947 0.0192515 29.391 0.0384102Q29.4873 0.057569 29.5813 0.0860763Q29.6753 0.114584 29.766 0.152165Q29.8567 0.189746 29.9433 0.236039Q30.0299 0.282333 30.1116 0.336892Q30.1932 0.391452 30.2691 0.453752Q30.3451 0.516052 30.4145 0.585494Q30.4839 0.654935 30.5462 0.730848Q30.6085 0.806761 30.6631 0.888415Q30.7177 0.970069 30.764 1.05668Q30.8103 1.14329 30.8478 1.23402Q30.8854 1.32474 30.9139 1.41872Q30.9424 1.5127 30.9616 1.60901Q30.9807 1.70533 30.9904 1.80306Q31 1.9008 31 1.999L31 9.001Q31 9.09921 30.9904 9.19694Q30.9807 9.29467 30.9616 9.39099Q30.9424 9.4873 30.9139 9.58128Q30.8854 9.67525 30.8478 9.76598Q30.8103 9.85671 30.764 9.94332Q30.7177 10.0299 30.6631 10.1116Q30.6085 10.1932 30.5462 10.2692Q30.4839 10.3451 30.4145 10.4145Q30.3451 10.4839 30.2692 10.5462Q30.1932 10.6085 30.1116 10.6631Q30.0299 10.7177 29.9433 10.764Q29.8567 10.8103 29.766 10.8478Q29.6753 10.8854 29.5813 10.9139Q29.4873 10.9424 29.391 10.9616Q29.2947 10.9807 29.1969 10.9904Q29.0992 11 29.001 11L1.999 11Q1.9008 11 1.80306 10.9904Q1.70533 10.9807 1.60901 10.9616Q1.5127 10.9424 1.41872 10.9139Q1.32474 10.8854 1.23402 10.8478Q1.14329 10.8103 1.05668 10.764Q0.970069 10.7177 0.888415 10.6631Q0.806761 10.6085 0.730848 10.5462Q0.654935 10.4839 0.585494 10.4145Q0.516052 10.3451 0.453752 10.2692Q0.391452 10.1932 0.336892 10.1116Q0.282333 10.0299 0.236039 9.94332Q0.189746 9.85671 0.152165 9.76598Q0.114584 9.67525 0.0860763 9.58128Q0.057569 9.4873 0.0384102 9.39098Q0.0192515 9.29467 0.00962573 9.19694Q0 9.09921 0 9.001L0 1.999Q0 1.9008 0.00962573 1.80306Q0.0192515 1.70533 0.0384102 1.60901Q0.057569 1.5127 0.0860763 1.41872Q0.114584 1.32474 0.152165 1.23402Q0.189746 1.14329 0.236039 1.05668Q0.282333 0.970069 0.336892 0.888415Q0.391452 0.806761 0.453752 0.730848Q0.516052 0.654935 0.585494 0.585494Q0.654935 0.516052 0.730848 0.453752Q0.806761 0.391452 0.888415 0.336892Q0.970069 0.282333 1.05668 0.236039Q1.14329 0.189746 1.23402 0.152165Q1.32474 0.114584 1.41872 0.0860763Q1.5127 0.057569 1.60901 0.0384102Q1.70533 0.0192515 1.80306 0.00962573Q1.9008 0 1.999 0L1.999 0Z" transform="translate(0.5 0.5)" id="Rectangle" fill="#242424" fill-rule="evenodd" stroke="black" stroke-width="1" />
  </g>
</svg>