<?xml version="1.0" encoding="UTF-8"?>
<svg width="399px" height="84px" viewBox="0 0 399 84" version="1.1" xmlns="http://www.w3.org/2000/svg" xmlns:xlink="http://www.w3.org/1999/xlink">
    <title>bmp00154</title>
    <g id="bmp00154" stroke="none" stroke-width="1" fill="none" fill-rule="evenodd">
        <g id="Group-3" transform="translate(66.000000, 18.000000)" fill="#000000">
            <g id="Group">
                <rect id="Rectangle" x="0" y="0" width="1" height="6"></rect>
            </g>
        </g>
        <g id="Group-3" transform="translate(5.000000, 70.000000)">
            <g id="Group-2">
                <g id="Group-4" transform="translate(5.000000, 0.000000)"></g>
                <g id="Group-4" transform="translate(5.000000, 0.000000)"></g>
            </g>
        </g>
        <g id="Group-3" transform="translate(284.000000, 70.000000)">
            <g id="Group-2"></g>
        </g>
        <g id="Group-7" transform="translate(5.000000, 30.000000)">
            <rect id="Rectangle" fill-opacity="0.1" fill="#FFFFFF" x="0" y="3.5" width="123" height="3" rx="1.5"></rect>
            <g id="Group-5" transform="translate(5.000000, 0.500000)" fill="#FFFFFF" fill-opacity="0.1">
                <rect id="Rectangle" x="56" y="0" width="1" height="9"></rect>
                <rect id="Rectangle" x="0" y="0" width="1" height="9"></rect>
                <rect id="Rectangle" x="8" y="0" width="1" height="9"></rect>
                <rect id="Rectangle" x="16" y="0" width="1" height="9"></rect>
                <rect id="Rectangle" x="24" y="0" width="1" height="9"></rect>
                <rect id="Rectangle" x="32" y="0" width="1" height="9"></rect>
                <rect id="Rectangle-Copy" x="40" y="0" width="1" height="9"></rect>
                <rect id="Rectangle-Copy" x="48" y="0" width="1" height="9"></rect>
                <rect id="Rectangle" x="64" y="0" width="1" height="9"></rect>
                <rect id="Rectangle" x="72" y="0" width="1" height="9"></rect>
                <rect id="Rectangle" x="80" y="0" width="1" height="9"></rect>
                <rect id="Rectangle" x="88" y="0" width="1" height="9"></rect>
                <rect id="Rectangle" x="96" y="0" width="1" height="9"></rect>
                <rect id="Rectangle-Copy" x="104" y="0" width="1" height="9"></rect>
                <rect id="Rectangle-Copy" x="112" y="0" width="1" height="9"></rect>
            </g>
            <g id="Group-5-Copy" transform="translate(138.000000, 0.500000)" fill="#FFFFFF" fill-opacity="0.1">
                <rect id="Rectangle" x="56" y="0" width="1" height="9"></rect>
                <rect id="Rectangle" x="0" y="0" width="1" height="9"></rect>
                <rect id="Rectangle" x="8" y="0" width="1" height="9"></rect>
                <rect id="Rectangle" x="16" y="0" width="1" height="9"></rect>
                <rect id="Rectangle" x="24" y="0" width="1" height="9"></rect>
                <rect id="Rectangle" x="32" y="0" width="1" height="9"></rect>
                <rect id="Rectangle-Copy" x="40" y="0" width="1" height="9"></rect>
                <rect id="Rectangle-Copy" x="48" y="0" width="1" height="9"></rect>
                <rect id="Rectangle" x="64" y="0" width="1" height="9"></rect>
                <rect id="Rectangle" x="72" y="0" width="1" height="9"></rect>
                <rect id="Rectangle" x="80" y="0" width="1" height="9"></rect>
                <rect id="Rectangle" x="88" y="0" width="1" height="9"></rect>
                <rect id="Rectangle" x="96" y="0" width="1" height="9"></rect>
                <rect id="Rectangle-Copy" x="104" y="0" width="1" height="9"></rect>
                <rect id="Rectangle-Copy" x="112" y="0" width="1" height="9"></rect>
            </g>
            <g id="Group-5-Copy" transform="translate(271.000000, 0.500000)" fill="#FFFFFF" fill-opacity="0.1">
                <rect id="Rectangle" x="56" y="0" width="1" height="9"></rect>
                <rect id="Rectangle" x="0" y="0" width="1" height="9"></rect>
                <rect id="Rectangle" x="8" y="0" width="1" height="9"></rect>
                <rect id="Rectangle" x="16" y="0" width="1" height="9"></rect>
                <rect id="Rectangle" x="24" y="0" width="1" height="9"></rect>
                <rect id="Rectangle" x="32" y="0" width="1" height="9"></rect>
                <rect id="Rectangle-Copy" x="40" y="0" width="1" height="9"></rect>
                <rect id="Rectangle-Copy" x="48" y="0" width="1" height="9"></rect>
                <rect id="Rectangle" x="64" y="0" width="1" height="9"></rect>
                <rect id="Rectangle" x="72" y="0" width="1" height="9"></rect>
                <rect id="Rectangle" x="80" y="0" width="1" height="9"></rect>
                <rect id="Rectangle" x="88" y="0" width="1" height="9"></rect>
                <rect id="Rectangle" x="96" y="0" width="1" height="9"></rect>
                <rect id="Rectangle-Copy" x="104" y="0" width="1" height="9"></rect>
                <rect id="Rectangle-Copy" x="112" y="0" width="1" height="9"></rect>
            </g>
            <g id="Group-5" transform="translate(5.000000, 42.500000)" fill="#FFFFFF" fill-opacity="0.1">
                <rect id="Rectangle" x="56" y="0" width="1" height="9"></rect>
                <rect id="Rectangle" x="0" y="0" width="1" height="9"></rect>
                <rect id="Rectangle" x="8" y="0" width="1" height="9"></rect>
                <rect id="Rectangle" x="16" y="0" width="1" height="9"></rect>
                <rect id="Rectangle" x="24" y="0" width="1" height="9"></rect>
                <rect id="Rectangle" x="32" y="0" width="1" height="9"></rect>
                <rect id="Rectangle-Copy" x="40" y="0" width="1" height="9"></rect>
                <rect id="Rectangle-Copy" x="48" y="0" width="1" height="9"></rect>
                <rect id="Rectangle" x="64" y="0" width="1" height="9"></rect>
                <rect id="Rectangle" x="72" y="0" width="1" height="9"></rect>
                <rect id="Rectangle" x="80" y="0" width="1" height="9"></rect>
                <rect id="Rectangle" x="88" y="0" width="1" height="9"></rect>
                <rect id="Rectangle" x="96" y="0" width="1" height="9"></rect>
                <rect id="Rectangle-Copy" x="104" y="0" width="1" height="9"></rect>
                <rect id="Rectangle-Copy" x="112" y="0" width="1" height="9"></rect>
            </g>
            <g id="Group-5-Copy" transform="translate(138.000000, 42.500000)" fill="#FFFFFF" fill-opacity="0.1">
                <rect id="Rectangle" x="56" y="0" width="1" height="9"></rect>
                <rect id="Rectangle" x="0" y="0" width="1" height="9"></rect>
                <rect id="Rectangle" x="8" y="0" width="1" height="9"></rect>
                <rect id="Rectangle" x="16" y="0" width="1" height="9"></rect>
                <rect id="Rectangle" x="24" y="0" width="1" height="9"></rect>
                <rect id="Rectangle" x="32" y="0" width="1" height="9"></rect>
                <rect id="Rectangle-Copy" x="40" y="0" width="1" height="9"></rect>
                <rect id="Rectangle-Copy" x="48" y="0" width="1" height="9"></rect>
                <rect id="Rectangle" x="64" y="0" width="1" height="9"></rect>
                <rect id="Rectangle" x="72" y="0" width="1" height="9"></rect>
                <rect id="Rectangle" x="80" y="0" width="1" height="9"></rect>
                <rect id="Rectangle" x="88" y="0" width="1" height="9"></rect>
                <rect id="Rectangle" x="96" y="0" width="1" height="9"></rect>
                <rect id="Rectangle-Copy" x="104" y="0" width="1" height="9"></rect>
                <rect id="Rectangle-Copy" x="112" y="0" width="1" height="9"></rect>
            </g>
            <g id="Group-5-Copy" transform="translate(271.000000, 42.500000)" fill="#FFFFFF" fill-opacity="0.1">
                <rect id="Rectangle" x="56" y="0" width="1" height="9"></rect>
                <rect id="Rectangle" x="0" y="0" width="1" height="9"></rect>
                <rect id="Rectangle" x="8" y="0" width="1" height="9"></rect>
                <rect id="Rectangle" x="16" y="0" width="1" height="9"></rect>
                <rect id="Rectangle" x="24" y="0" width="1" height="9"></rect>
                <rect id="Rectangle" x="32" y="0" width="1" height="9"></rect>
                <rect id="Rectangle-Copy" x="40" y="0" width="1" height="9"></rect>
                <rect id="Rectangle-Copy" x="48" y="0" width="1" height="9"></rect>
                <rect id="Rectangle" x="64" y="0" width="1" height="9"></rect>
                <rect id="Rectangle" x="72" y="0" width="1" height="9"></rect>
                <rect id="Rectangle" x="80" y="0" width="1" height="9"></rect>
                <rect id="Rectangle" x="88" y="0" width="1" height="9"></rect>
                <rect id="Rectangle" x="96" y="0" width="1" height="9"></rect>
                <rect id="Rectangle-Copy" x="104" y="0" width="1" height="9"></rect>
                <rect id="Rectangle-Copy" x="112" y="0" width="1" height="9"></rect>
            </g>
            <rect id="Rectangle" fill="#181818" x="61" y="0" width="1" height="9"></rect>
            <rect id="Rectangle" fill="#181818" x="5" y="0" width="1" height="9"></rect>
            <rect id="Rectangle" fill="#181818" x="13" y="0" width="1" height="9"></rect>
            <rect id="Rectangle" fill="#181818" x="21" y="0" width="1" height="9"></rect>
            <rect id="Rectangle" fill="#181818" x="29" y="0" width="1" height="9"></rect>
            <rect id="Rectangle" fill="#181818" x="37" y="0" width="1" height="9"></rect>
            <rect id="Rectangle-Copy" fill="#181818" x="45" y="0" width="1" height="9"></rect>
            <rect id="Rectangle-Copy" fill="#181818" x="53" y="0" width="1" height="9"></rect>
            <rect id="Rectangle" fill="#181818" x="69" y="0" width="1" height="9"></rect>
            <rect id="Rectangle" fill="#181818" x="77" y="0" width="1" height="9"></rect>
            <rect id="Rectangle" fill="#181818" x="85" y="0" width="1" height="9"></rect>
            <rect id="Rectangle" fill="#181818" x="93" y="0" width="1" height="9"></rect>
            <rect id="Rectangle" fill="#181818" x="101" y="0" width="1" height="9"></rect>
            <rect id="Rectangle-Copy" fill="#181818" x="109" y="0" width="1" height="9"></rect>
            <rect id="Rectangle-Copy" fill="#181818" x="117" y="0" width="1" height="9"></rect>
            <rect id="Rectangle" stroke="#0F0F0F" fill="#1F1F1F" x="0.5" y="3.5" width="122" height="2" rx="1"></rect>
        </g>
        <g id="Group-7-Copy-6" transform="translate(138.000000, 30.000000)">
            <rect id="Rectangle" fill-opacity="0.1" fill="#FFFFFF" x="0" y="3.5" width="123" height="3" rx="1.5"></rect>
            <rect id="Rectangle" fill="#001428" x="61" y="0" width="1" height="9"></rect>
            <rect id="Rectangle" fill="#001428" x="5" y="0" width="1" height="9"></rect>
            <rect id="Rectangle" fill="#001428" x="13" y="0" width="1" height="9"></rect>
            <rect id="Rectangle" fill="#001428" x="21" y="0" width="1" height="9"></rect>
            <rect id="Rectangle" fill="#001428" x="29" y="0" width="1" height="9"></rect>
            <rect id="Rectangle" fill="#001428" x="37" y="0" width="1" height="9"></rect>
            <rect id="Rectangle-Copy" fill="#001428" x="45" y="0" width="1" height="9"></rect>
            <rect id="Rectangle-Copy" fill="#001428" x="53" y="0" width="1" height="9"></rect>
            <rect id="Rectangle" fill="#001428" x="69" y="0" width="1" height="9"></rect>
            <rect id="Rectangle" fill="#001428" x="77" y="0" width="1" height="9"></rect>
            <rect id="Rectangle" fill="#001428" x="85" y="0" width="1" height="9"></rect>
            <rect id="Rectangle" fill="#001428" x="93" y="0" width="1" height="9"></rect>
            <rect id="Rectangle" fill="#001428" x="101" y="0" width="1" height="9"></rect>
            <rect id="Rectangle-Copy" fill="#001428" x="109" y="0" width="1" height="9"></rect>
            <rect id="Rectangle-Copy" fill="#001428" x="117" y="0" width="1" height="9"></rect>
            <rect id="Rectangle" stroke="#001427" fill="#737373" x="0.5" y="3.5" width="122" height="2" rx="1"></rect>
        </g>
        <g id="Group-7" transform="translate(5.000000, 14.000000)">
            <rect id="Rectangle" fill-opacity="0.1" fill="#FFFFFF" x="0" y="5.5" width="123" height="3" rx="1.5"></rect>
            <g id="Group-6" transform="translate(5.000000, 0.500000)" fill="#FFFFFF" fill-opacity="0.1">
                <rect id="Rectangle" x="0" y="0" width="1" height="13"></rect>
                <rect id="Rectangle-Copy" x="112" y="0" width="1" height="13"></rect>
                <rect id="Rectangle" x="56" y="3" width="1" height="7"></rect>
            </g>
            <g id="Group-6" transform="translate(5.000000, 42.500000)" fill="#FFFFFF" fill-opacity="0.1">
                <rect id="Rectangle" x="0" y="0" width="1" height="13"></rect>
                <rect id="Rectangle-Copy" x="112" y="0" width="1" height="13"></rect>
                <rect id="Rectangle" x="56" y="3" width="1" height="7"></rect>
            </g>
            <g id="Group-6" transform="translate(138.000000, 42.500000)" fill="#FFFFFF" fill-opacity="0.1">
                <rect id="Rectangle" x="0" y="0" width="1" height="13"></rect>
                <rect id="Rectangle-Copy" x="112" y="0" width="1" height="13"></rect>
                <rect id="Rectangle" x="56" y="3" width="1" height="7"></rect>
            </g>
            <g id="Group-6" transform="translate(271.000000, 42.500000)" fill="#FFFFFF" fill-opacity="0.1">
                <rect id="Rectangle" x="0" y="0" width="1" height="13"></rect>
                <rect id="Rectangle-Copy" x="112" y="0" width="1" height="13"></rect>
                <rect id="Rectangle" x="56" y="3" width="1" height="7"></rect>
            </g>
            <g id="Group-6" transform="translate(138.000000, 0.500000)" fill="#FFFFFF" fill-opacity="0.1">
                <rect id="Rectangle" x="0" y="0" width="1" height="13"></rect>
                <rect id="Rectangle-Copy" x="112" y="0" width="1" height="13"></rect>
                <rect id="Rectangle" x="56" y="3" width="1" height="7"></rect>
            </g>
            <g id="Group-6" transform="translate(271.000000, 0.500000)" fill="#FFFFFF" fill-opacity="0.1">
                <rect id="Rectangle" x="0" y="0" width="1" height="13"></rect>
                <rect id="Rectangle-Copy" x="112" y="0" width="1" height="13"></rect>
                <rect id="Rectangle" x="56" y="3" width="1" height="7"></rect>
            </g>
            <rect id="Rectangle" fill="#181818" x="61" y="3" width="1" height="7"></rect>
            <rect id="Rectangle" fill="#181818" x="5" y="0" width="1" height="13"></rect>
            <rect id="Rectangle-Copy" fill="#181818" x="117" y="0" width="1" height="13"></rect>
            <rect id="Rectangle" stroke="#0F0F0F" fill="#1F1F1F" x="0.5" y="5.5" width="122" height="2" rx="1"></rect>
        </g>
        <g id="Group-7-Copy-5" transform="translate(138.000000, 14.000000)">
            <rect id="Rectangle" fill-opacity="0.1" fill="#FFFFFF" x="0" y="5.5" width="123" height="3" rx="1.5"></rect>
            <rect id="Rectangle" fill="#001428" x="61" y="3" width="1" height="7"></rect>
            <rect id="Rectangle" fill="#001428" x="5" y="0" width="1" height="13"></rect>
            <rect id="Rectangle-Copy" fill="#001428" x="117" y="0" width="1" height="13"></rect>
            <rect id="Rectangle" stroke="#001427" fill="#737373" x="0.5" y="5.5" width="122" height="2" rx="1"></rect>
        </g>
        <g id="Group-7" transform="translate(5.000000, 3.000000)">
            <rect id="Rectangle" fill-opacity="0.1" fill="#FFFFFF" x="0" y="2.5" width="123" height="3" rx="1.5"></rect>
            <g id="Group-8" transform="translate(5.000000, 0.500000)" fill="#FFFFFF" fill-opacity="0.1">
                <rect id="Rectangle" x="0" y="0" width="1" height="7"></rect>
                <rect id="Rectangle-Copy" x="112" y="0" width="1" height="7"></rect>
            </g>
            <g id="Group-8" transform="translate(5.000000, 42.500000)" fill="#FFFFFF" fill-opacity="0.1">
                <rect id="Rectangle" x="0" y="0" width="1" height="7"></rect>
                <rect id="Rectangle-Copy" x="112" y="0" width="1" height="7"></rect>
            </g>
            <g id="Group-8" transform="translate(138.000000, 42.500000)" fill="#FFFFFF" fill-opacity="0.1">
                <rect id="Rectangle" x="0" y="0" width="1" height="7"></rect>
                <rect id="Rectangle-Copy" x="112" y="0" width="1" height="7"></rect>
            </g>
            <g id="Group-8" transform="translate(138.000000, 0.500000)" fill="#FFFFFF" fill-opacity="0.1">
                <rect id="Rectangle" x="0" y="0" width="1" height="7"></rect>
                <rect id="Rectangle-Copy" x="112" y="0" width="1" height="7"></rect>
            </g>
            <g id="Group-8" transform="translate(271.000000, 42.500000)" fill="#FFFFFF" fill-opacity="0.1">
                <rect id="Rectangle" x="0" y="0" width="1" height="7"></rect>
                <rect id="Rectangle-Copy" x="112" y="0" width="1" height="7"></rect>
            </g>
            <g id="Group-8" transform="translate(271.000000, 0.500000)" fill="#FFFFFF" fill-opacity="0.1">
                <rect id="Rectangle" x="0" y="0" width="1" height="7"></rect>
                <rect id="Rectangle-Copy" x="112" y="0" width="1" height="7"></rect>
            </g>
            <rect id="Rectangle" fill="#181818" x="5" y="0" width="1" height="7"></rect>
            <rect id="Rectangle-Copy" fill="#181818" x="117" y="0" width="1" height="7"></rect>
            <rect id="Rectangle" stroke="#0F0F0F" fill="#1F1F1F" x="0.5" y="2.5" width="122" height="2" rx="1"></rect>
        </g>
        <g id="Group-7-Copy-4" transform="translate(138.000000, 3.000000)">
            <rect id="Rectangle" fill-opacity="0.1" fill="#FFFFFF" x="0" y="2.5" width="123" height="3" rx="1.5"></rect>
            <rect id="Rectangle" fill="#001428" x="5" y="0" width="1" height="7"></rect>
            <rect id="Rectangle-Copy" fill="#001428" x="117" y="0" width="1" height="7"></rect>
            <rect id="Rectangle" stroke="#001427" fill="#737373" x="0.5" y="2.5" width="122" height="2" rx="1"></rect>
        </g>
        <g id="Group-7-Copy-3" transform="translate(5.000000, 72.000000)">
            <rect id="Rectangle" fill-opacity="0.1" fill="#FFFFFF" x="0" y="3.5" width="123" height="3" rx="1.5"></rect>
            <rect id="Rectangle" fill="#181818" x="61" y="0" width="1" height="9"></rect>
            <rect id="Rectangle" fill="#181818" x="5" y="0" width="1" height="9"></rect>
            <rect id="Rectangle" fill="#181818" x="13" y="0" width="1" height="9"></rect>
            <rect id="Rectangle" fill="#181818" x="21" y="0" width="1" height="9"></rect>
            <rect id="Rectangle" fill="#181818" x="29" y="0" width="1" height="9"></rect>
            <rect id="Rectangle" fill="#181818" x="37" y="0" width="1" height="9"></rect>
            <rect id="Rectangle-Copy" fill="#181818" x="45" y="0" width="1" height="9"></rect>
            <rect id="Rectangle-Copy" fill="#181818" x="53" y="0" width="1" height="9"></rect>
            <rect id="Rectangle" fill="#181818" x="69" y="0" width="1" height="9"></rect>
            <rect id="Rectangle" fill="#181818" x="77" y="0" width="1" height="9"></rect>
            <rect id="Rectangle" fill="#181818" x="85" y="0" width="1" height="9"></rect>
            <rect id="Rectangle" fill="#181818" x="93" y="0" width="1" height="9"></rect>
            <rect id="Rectangle" fill="#181818" x="101" y="0" width="1" height="9"></rect>
            <rect id="Rectangle-Copy" fill="#181818" x="109" y="0" width="1" height="9"></rect>
            <rect id="Rectangle-Copy" fill="#181818" x="117" y="0" width="1" height="9"></rect>
            <rect id="Rectangle" stroke="#0F0F0F" fill="#1F1F1F" x="0.5" y="3.5" width="122" height="2" rx="1"></rect>
        </g>
        <g id="Group-7-Copy-2" transform="translate(5.000000, 56.000000)">
            <rect id="Rectangle" fill-opacity="0.1" fill="#FFFFFF" x="0" y="5.5" width="123" height="3" rx="1.5"></rect>
            <rect id="Rectangle" fill="#181818" x="61" y="3" width="1" height="7"></rect>
            <rect id="Rectangle" fill="#181818" x="5" y="0" width="1" height="13"></rect>
            <rect id="Rectangle-Copy" fill="#181818" x="117" y="0" width="1" height="13"></rect>
            <rect id="Rectangle" stroke="#0F0F0F" fill="#1F1F1F" x="0.5" y="5.5" width="122" height="2" rx="1"></rect>
        </g>
        <g id="Group-7-Copy" transform="translate(5.000000, 45.000000)">
            <rect id="Rectangle" fill-opacity="0.1" fill="#FFFFFF" x="0" y="2.5" width="123" height="3" rx="1.5"></rect>
            <rect id="Rectangle" fill="#181818" x="5" y="0" width="1" height="7"></rect>
            <rect id="Rectangle-Copy" fill="#181818" x="117" y="0" width="1" height="7"></rect>
            <rect id="Rectangle" stroke="#0F0F0F" fill="#1F1F1F" x="0.5" y="2.5" width="122" height="2" rx="1"></rect>
        </g>
        <g id="Group-7-Copy-9" transform="translate(271.000000, 72.000000)">
            <rect id="Rectangle" fill-opacity="0.4" fill="#001E3C" x="0" y="2" width="123" height="5" rx="2.5"></rect>
            <rect id="Rectangle" fill="#001428" x="61" y="0" width="1" height="9"></rect>
            <rect id="Rectangle" fill="#001428" x="5" y="0" width="1" height="9"></rect>
            <rect id="Rectangle" fill="#001428" x="13" y="0" width="1" height="9"></rect>
            <rect id="Rectangle" fill="#001428" x="21" y="0" width="1" height="9"></rect>
            <rect id="Rectangle" fill="#001428" x="29" y="0" width="1" height="9"></rect>
            <rect id="Rectangle" fill="#001428" x="37" y="0" width="1" height="9"></rect>
            <rect id="Rectangle-Copy" fill="#001428" x="45" y="0" width="1" height="9"></rect>
            <rect id="Rectangle-Copy" fill="#001428" x="53" y="0" width="1" height="9"></rect>
            <rect id="Rectangle" fill="#001428" x="69" y="0" width="1" height="9"></rect>
            <rect id="Rectangle" fill="#001428" x="77" y="0" width="1" height="9"></rect>
            <rect id="Rectangle" fill="#001428" x="85" y="0" width="1" height="9"></rect>
            <rect id="Rectangle" fill="#001428" x="93" y="0" width="1" height="9"></rect>
            <rect id="Rectangle" fill="#001428" x="101" y="0" width="1" height="9"></rect>
            <rect id="Rectangle-Copy" fill="#001428" x="109" y="0" width="1" height="9"></rect>
            <rect id="Rectangle-Copy" fill="#001428" x="117" y="0" width="1" height="9"></rect>
            <rect id="Rectangle" stroke="#001427" fill="#2471DB" x="0.5" y="3.5" width="122" height="2" rx="1"></rect>
        </g>
        <g id="Group-7-Copy-8" transform="translate(271.000000, 56.000000)">
            <rect id="Rectangle" fill-opacity="0.4" fill="#001E3C" x="0" y="4" width="123" height="5" rx="2.5"></rect>
            <rect id="Rectangle" fill="#001428" x="61" y="3" width="1" height="7"></rect>
            <rect id="Rectangle" fill="#001428" x="5" y="0" width="1" height="13"></rect>
            <rect id="Rectangle-Copy" fill="#001428" x="117" y="0" width="1" height="13"></rect>
            <rect id="Rectangle" stroke="#001427" fill="#2471DB" x="0.5" y="5.5" width="122" height="2" rx="1"></rect>
        </g>
        <g id="Group-7-Copy-7" transform="translate(271.000000, 45.000000)">
            <rect id="Rectangle" fill-opacity="0.4" fill="#001E3C" x="0" y="1" width="123" height="5" rx="2.5"></rect>
            <rect id="Rectangle" fill="#001428" x="5" y="0" width="1" height="7"></rect>
            <rect id="Rectangle-Copy" fill="#001428" x="117" y="0" width="1" height="7"></rect>
            <rect id="Rectangle" stroke="#001427" fill="#2471DB" x="0.5" y="2.5" width="122" height="2" rx="1"></rect>
        </g>
        <g id="Group-7-Copy-12" transform="translate(271.000000, 30.000000)">
            <rect id="Rectangle" fill-opacity="0.4" fill="#001E3C" x="0" y="2" width="123" height="5" rx="2.5"></rect>
            <rect id="Rectangle" fill="#001428" x="61" y="0" width="1" height="9"></rect>
            <rect id="Rectangle" fill="#001428" x="5" y="0" width="1" height="9"></rect>
            <rect id="Rectangle" fill="#001428" x="13" y="0" width="1" height="9"></rect>
            <rect id="Rectangle" fill="#001428" x="21" y="0" width="1" height="9"></rect>
            <rect id="Rectangle" fill="#001428" x="29" y="0" width="1" height="9"></rect>
            <rect id="Rectangle" fill="#001428" x="37" y="0" width="1" height="9"></rect>
            <rect id="Rectangle-Copy" fill="#001428" x="45" y="0" width="1" height="9"></rect>
            <rect id="Rectangle-Copy" fill="#001428" x="53" y="0" width="1" height="9"></rect>
            <rect id="Rectangle" fill="#001428" x="69" y="0" width="1" height="9"></rect>
            <rect id="Rectangle" fill="#001428" x="77" y="0" width="1" height="9"></rect>
            <rect id="Rectangle" fill="#001428" x="85" y="0" width="1" height="9"></rect>
            <rect id="Rectangle" fill="#001428" x="93" y="0" width="1" height="9"></rect>
            <rect id="Rectangle" fill="#001428" x="101" y="0" width="1" height="9"></rect>
            <rect id="Rectangle-Copy" fill="#001428" x="109" y="0" width="1" height="9"></rect>
            <rect id="Rectangle-Copy" fill="#001428" x="117" y="0" width="1" height="9"></rect>
            <rect id="Rectangle" stroke="#001427" fill="#2471DB" x="0.5" y="3.5" width="122" height="2" rx="1"></rect>
        </g>
        <g id="Group-7-Copy-11" transform="translate(271.000000, 14.000000)">
            <rect id="Rectangle" fill-opacity="0.4" fill="#001E3C" x="0" y="4" width="123" height="5" rx="2.5"></rect>
            <rect id="Rectangle" fill="#001428" x="61" y="3" width="1" height="7"></rect>
            <rect id="Rectangle" fill="#001428" x="5" y="0" width="1" height="13"></rect>
            <rect id="Rectangle-Copy" fill="#001428" x="117" y="0" width="1" height="13"></rect>
            <rect id="Rectangle" stroke="#001427" fill="#2471DB" x="0.5" y="5.5" width="122" height="2" rx="1"></rect>
        </g>
        <g id="Group-7-Copy-10" transform="translate(271.000000, 3.000000)">
            <rect id="Rectangle" fill-opacity="0.4" fill="#001E3C" x="0" y="1" width="123" height="5" rx="2.5"></rect>
            <rect id="Rectangle" fill="#001428" x="5" y="0" width="1" height="7"></rect>
            <rect id="Rectangle-Copy" fill="#001428" x="117" y="0" width="1" height="7"></rect>
            <rect id="Rectangle" stroke="#001427" fill="#2471DB" x="0.5" y="2.5" width="122" height="2" rx="1"></rect>
        </g>
        <g id="Group-7-Copy-15" transform="translate(138.000000, 72.000000)">
            <rect id="Rectangle" fill-opacity="0.1" fill="#FFFFFF" x="0" y="3.5" width="123" height="3" rx="1.5"></rect>
            <rect id="Rectangle" fill="#001428" x="61" y="0" width="1" height="9"></rect>
            <rect id="Rectangle" fill="#001428" x="5" y="0" width="1" height="9"></rect>
            <rect id="Rectangle" fill="#001428" x="13" y="0" width="1" height="9"></rect>
            <rect id="Rectangle" fill="#001428" x="21" y="0" width="1" height="9"></rect>
            <rect id="Rectangle" fill="#001428" x="29" y="0" width="1" height="9"></rect>
            <rect id="Rectangle" fill="#001428" x="37" y="0" width="1" height="9"></rect>
            <rect id="Rectangle-Copy" fill="#001428" x="45" y="0" width="1" height="9"></rect>
            <rect id="Rectangle-Copy" fill="#001428" x="53" y="0" width="1" height="9"></rect>
            <rect id="Rectangle" fill="#001428" x="69" y="0" width="1" height="9"></rect>
            <rect id="Rectangle" fill="#001428" x="77" y="0" width="1" height="9"></rect>
            <rect id="Rectangle" fill="#001428" x="85" y="0" width="1" height="9"></rect>
            <rect id="Rectangle" fill="#001428" x="93" y="0" width="1" height="9"></rect>
            <rect id="Rectangle" fill="#001428" x="101" y="0" width="1" height="9"></rect>
            <rect id="Rectangle-Copy" fill="#001428" x="109" y="0" width="1" height="9"></rect>
            <rect id="Rectangle-Copy" fill="#001428" x="117" y="0" width="1" height="9"></rect>
            <rect id="Rectangle" stroke="#001427" fill="#737373" x="0.5" y="3.5" width="122" height="2" rx="1"></rect>
        </g>
        <g id="Group-7-Copy-14" transform="translate(138.000000, 56.000000)">
            <rect id="Rectangle" fill-opacity="0.1" fill="#FFFFFF" x="0" y="5.5" width="123" height="3" rx="1.5"></rect>
            <rect id="Rectangle" fill="#001428" x="61" y="3" width="1" height="7"></rect>
            <rect id="Rectangle" fill="#001428" x="5" y="0" width="1" height="13"></rect>
            <rect id="Rectangle-Copy" fill="#001428" x="117" y="0" width="1" height="13"></rect>
            <rect id="Rectangle" stroke="#001427" fill="#737373" x="0.5" y="5.5" width="122" height="2" rx="1"></rect>
        </g>
        <g id="Group-7-Copy-13" transform="translate(138.000000, 45.000000)">
            <rect id="Rectangle" fill-opacity="0.1" fill="#FFFFFF" x="0" y="2.5" width="123" height="3" rx="1.5"></rect>
            <rect id="Rectangle" fill="#001428" x="5" y="0" width="1" height="7"></rect>
            <rect id="Rectangle-Copy" fill="#001428" x="117" y="0" width="1" height="7"></rect>
            <rect id="Rectangle" stroke="#001427" fill="#737373" x="0.5" y="2.5" width="122" height="2" rx="1"></rect>
        </g>
    </g>
</svg>