<svg width="48" height="282" viewBox="0 0 48 282" fill="none" xmlns="http://www.w3.org/2000/svg">
<g opacity="0.1">
<path d="M5 273.5L5 274.5L7 274.5L7 273.5L5 273.5Z" fill="#EEEEEE"/>
<path d="M10 273.5L10 274.5L12 274.5L12 273.5L10 273.5Z" fill="#EEEEEE"/>
<path d="M5 234.5L5 235.5L7 235.5L7 234.5L5 234.5Z" fill="#EEEEEE"/>
<path d="M10 234.5L10 235.5L12 235.5L12 234.5L10 234.5Z" fill="#EEEEEE"/>
<path fill-rule="evenodd" clip-rule="evenodd" d="M8.5 230.5C8.77614 230.5 9 230.724 9 231V278C9 278.276 8.77614 278.5 8.5 278.5C8.22386 278.5 8 278.276 8 278V231C8 230.724 8.22386 230.5 8.5 230.5Z" fill="#EEEEEE"/>
<path fill-rule="evenodd" clip-rule="evenodd" d="M8.5 230C9.05228 230 9.5 230.448 9.5 231V278C9.5 278.552 9.05228 279 8.5 279V279C7.94772 279 7.5 278.552 7.5 278L7.5 231C7.5 230.448 7.94772 230 8.5 230V230Z" stroke="#EEEEEE"/>
</g>
<path d="M4.5 273L4.5 274L6.5 274L6.5 273L4.5 273Z" fill="black"/>
<path d="M9.5 273L9.5 274L11.5 274L11.5 273L9.5 273Z" fill="black"/>
<path d="M4.5 234L4.5 235L6.5 235L6.5 234L4.5 234Z" fill="black"/>
<path d="M9.5 234L9.5 235L11.5 235L11.5 234L9.5 234Z" fill="black"/>
<path fill-rule="evenodd" clip-rule="evenodd" d="M8 230C8.27614 230 8.5 230.224 8.5 230.5V277.5C8.5 277.776 8.27614 278 8 278C7.72386 278 7.5 277.776 7.5 277.5L7.5 230.5C7.5 230.224 7.72386 230 8 230Z" fill="#1F1F1F"/>
<path fill-rule="evenodd" clip-rule="evenodd" d="M8 229.5C8.55228 229.5 9 229.948 9 230.5V277.5C9 278.052 8.55228 278.5 8 278.5V278.5C7.44772 278.5 7 278.052 7 277.5L7 230.5C7 229.948 7.44772 229.5 8 229.5V229.5Z" stroke="black"/>
<g opacity="0.1">
<path d="M21 273.5L21 274.5L23 274.5L23 273.5L21 273.5Z" fill="#EEEEEE"/>
<path d="M26 273.5L26 274.5L28 274.5L28 273.5L26 273.5Z" fill="#EEEEEE"/>
<path d="M21 234.5L21 235.5L23 235.5L23 234.5L21 234.5Z" fill="#EEEEEE"/>
<path d="M26 234.5L26 235.5L28 235.5L28 234.5L26 234.5Z" fill="#EEEEEE"/>
<path fill-rule="evenodd" clip-rule="evenodd" d="M24.5 230.5C24.7761 230.5 25 230.724 25 231V278C25 278.276 24.7761 278.5 24.5 278.5C24.2239 278.5 24 278.276 24 278V231C24 230.724 24.2239 230.5 24.5 230.5Z" fill="#EEEEEE"/>
<path fill-rule="evenodd" clip-rule="evenodd" d="M24.5 230C25.0523 230 25.5 230.448 25.5 231V278C25.5 278.552 25.0523 279 24.5 279V279C23.9477 279 23.5 278.552 23.5 278V231C23.5 230.448 23.9477 230 24.5 230V230Z" stroke="#EEEEEE"/>
</g>
<path d="M20.5 273L20.5 274L22.5 274L22.5 273L20.5 273Z" fill="black"/>
<path d="M25.5 273L25.5 274L27.5 274L27.5 273L25.5 273Z" fill="black"/>
<path d="M20.5 234L20.5 235L22.5 235L22.5 234L20.5 234Z" fill="black"/>
<path d="M25.5 234L25.5 235L27.5 235L27.5 234L25.5 234Z" fill="black"/>
<path fill-rule="evenodd" clip-rule="evenodd" d="M24 230C24.2761 230 24.5 230.224 24.5 230.5V277.5C24.5 277.776 24.2761 278 24 278C23.7239 278 23.5 277.776 23.5 277.5V230.5C23.5 230.224 23.7239 230 24 230Z" fill="#737373"/>
<path fill-rule="evenodd" clip-rule="evenodd" d="M24 229.5C24.5523 229.5 25 229.948 25 230.5V277.5C25 278.052 24.5523 278.5 24 278.5V278.5C23.4477 278.5 23 278.052 23 277.5V230.5C23 229.948 23.4477 229.5 24 229.5V229.5Z" stroke="black"/>
<g opacity="0.1">
<path d="M37 273.5L37 274.5L39 274.5L39 273.5L37 273.5Z" fill="#EEEEEE"/>
<path d="M42 273.5L42 274.5L44 274.5L44 273.5L42 273.5Z" fill="#EEEEEE"/>
<path d="M37 234.5L37 235.5L39 235.5L39 234.5L37 234.5Z" fill="#EEEEEE"/>
<path d="M42 234.5L42 235.5L44 235.5L44 234.5L42 234.5Z" fill="#EEEEEE"/>
<path fill-rule="evenodd" clip-rule="evenodd" d="M40.5 230.5C40.7761 230.5 41 230.724 41 231V278C41 278.276 40.7761 278.5 40.5 278.5C40.2239 278.5 40 278.276 40 278V231C40 230.724 40.2239 230.5 40.5 230.5Z" fill="#EEEEEE"/>
<path fill-rule="evenodd" clip-rule="evenodd" d="M40.5 230C41.0523 230 41.5 230.448 41.5 231V278C41.5 278.552 41.0523 279 40.5 279V279C39.9477 279 39.5 278.552 39.5 278V231C39.5 230.448 39.9477 230 40.5 230V230Z" stroke="#EEEEEE"/>
</g>
<path d="M36.5 273L36.5 274L38.5 274L38.5 273L36.5 273Z" fill="black"/>
<path d="M41.5 273L41.5 274L43.5 274L43.5 273L41.5 273Z" fill="black"/>
<path d="M36.5 234L36.5 235L38.5 235L38.5 234L36.5 234Z" fill="black"/>
<path d="M41.5 234L41.5 235L43.5 235L43.5 234L41.5 234Z" fill="black"/>
<path fill-rule="evenodd" clip-rule="evenodd" d="M40 230C40.2761 230 40.5 230.224 40.5 230.5V277.5C40.5 277.776 40.2761 278 40 278C39.7239 278 39.5 277.776 39.5 277.5V230.5C39.5 230.224 39.7239 230 40 230Z" fill="#2471DB"/>
<path fill-rule="evenodd" clip-rule="evenodd" d="M40 229.5C40.5523 229.5 41 229.948 41 230.5V277.5C41 278.052 40.5523 278.5 40 278.5V278.5C39.4477 278.5 39 278.052 39 277.5V230.5C39 229.948 39.4477 229.5 40 229.5V229.5Z" stroke="black"/>
<path fill-rule="evenodd" clip-rule="evenodd" d="M40 229.5C41.1046 229.5 42 230.395 42 231.5V276.5C42 277.605 41.1046 278.5 40 278.5V278.5C38.8954 278.5 38 277.605 38 276.5V231.5C38 230.395 38.8954 229.5 40 229.5V229.5Z" stroke="#001E3C" stroke-opacity="0.5"/>
<g opacity="0.1">
<path d="M5 198.5L5 199.5L7 199.5L7 198.5L5 198.5Z" fill="#EEEEEE"/>
<path d="M10 198.5L10 199.5L12 199.5L12 198.5L10 198.5Z" fill="#EEEEEE"/>
<path d="M5 159.5L5 160.5L7 160.5L7 159.5L5 159.5Z" fill="#EEEEEE"/>
<path d="M10 159.5L10 160.5L12 160.5L12 159.5L10 159.5Z" fill="#EEEEEE"/>
<path fill-rule="evenodd" clip-rule="evenodd" d="M8.5 155.5C8.77614 155.5 9 155.724 9 156V203C9 203.276 8.77614 203.5 8.5 203.5C8.22386 203.5 8 203.276 8 203V156C8 155.724 8.22386 155.5 8.5 155.5Z" fill="#EEEEEE"/>
<path fill-rule="evenodd" clip-rule="evenodd" d="M8.5 155C9.05228 155 9.5 155.448 9.5 156V203C9.5 203.552 9.05228 204 8.5 204V204C7.94772 204 7.5 203.552 7.5 203L7.5 156C7.5 155.448 7.94772 155 8.5 155V155Z" stroke="#EEEEEE"/>
</g>
<path d="M4.5 198L4.5 199L6.5 199L6.5 198L4.5 198Z" fill="black"/>
<path d="M9.5 198L9.5 199L11.5 199L11.5 198L9.5 198Z" fill="black"/>
<path d="M4.5 159L4.5 160L6.5 160L6.5 159L4.5 159Z" fill="black"/>
<path d="M9.5 159L9.5 160L11.5 160L11.5 159L9.5 159Z" fill="black"/>
<path fill-rule="evenodd" clip-rule="evenodd" d="M8 155C8.27614 155 8.5 155.224 8.5 155.5V202.5C8.5 202.776 8.27614 203 8 203C7.72386 203 7.5 202.776 7.5 202.5L7.5 155.5C7.5 155.224 7.72386 155 8 155Z" fill="#1F1F1F"/>
<path fill-rule="evenodd" clip-rule="evenodd" d="M8 154.5C8.55228 154.5 9 154.948 9 155.5V202.5C9 203.052 8.55228 203.5 8 203.5V203.5C7.44772 203.5 7 203.052 7 202.5L7 155.5C7 154.948 7.44772 154.5 8 154.5V154.5Z" stroke="black"/>
<g opacity="0.1">
<path d="M21 198.5L21 199.5L23 199.5L23 198.5L21 198.5Z" fill="#EEEEEE"/>
<path d="M26 198.5L26 199.5L28 199.5L28 198.5L26 198.5Z" fill="#EEEEEE"/>
<path d="M21 159.5L21 160.5L23 160.5L23 159.5L21 159.5Z" fill="#EEEEEE"/>
<path d="M26 159.5L26 160.5L28 160.5L28 159.5L26 159.5Z" fill="#EEEEEE"/>
<path fill-rule="evenodd" clip-rule="evenodd" d="M24.5 155.5C24.7761 155.5 25 155.724 25 156V203C25 203.276 24.7761 203.5 24.5 203.5C24.2239 203.5 24 203.276 24 203V156C24 155.724 24.2239 155.5 24.5 155.5Z" fill="#EEEEEE"/>
<path fill-rule="evenodd" clip-rule="evenodd" d="M24.5 155C25.0523 155 25.5 155.448 25.5 156V203C25.5 203.552 25.0523 204 24.5 204V204C23.9477 204 23.5 203.552 23.5 203V156C23.5 155.448 23.9477 155 24.5 155V155Z" stroke="#EEEEEE"/>
</g>
<path d="M20.5 198L20.5 199L22.5 199L22.5 198L20.5 198Z" fill="black"/>
<path d="M25.5 198L25.5 199L27.5 199L27.5 198L25.5 198Z" fill="black"/>
<path d="M20.5 159L20.5 160L22.5 160L22.5 159L20.5 159Z" fill="black"/>
<path d="M25.5 159L25.5 160L27.5 160L27.5 159L25.5 159Z" fill="black"/>
<path fill-rule="evenodd" clip-rule="evenodd" d="M24 155C24.2761 155 24.5 155.224 24.5 155.5V202.5C24.5 202.776 24.2761 203 24 203C23.7239 203 23.5 202.776 23.5 202.5V155.5C23.5 155.224 23.7239 155 24 155Z" fill="#737373"/>
<path fill-rule="evenodd" clip-rule="evenodd" d="M24 154.5C24.5523 154.5 25 154.948 25 155.5V202.5C25 203.052 24.5523 203.5 24 203.5V203.5C23.4477 203.5 23 203.052 23 202.5V155.5C23 154.948 23.4477 154.5 24 154.5V154.5Z" stroke="black"/>
<g opacity="0.1">
<path d="M37 198.5L37 199.5L39 199.5L39 198.5L37 198.5Z" fill="#EEEEEE"/>
<path d="M42 198.5L42 199.5L44 199.5L44 198.5L42 198.5Z" fill="#EEEEEE"/>
<path d="M37 159.5L37 160.5L39 160.5L39 159.5L37 159.5Z" fill="#EEEEEE"/>
<path d="M42 159.5L42 160.5L44 160.5L44 159.5L42 159.5Z" fill="#EEEEEE"/>
<path fill-rule="evenodd" clip-rule="evenodd" d="M40.5 155.5C40.7761 155.5 41 155.724 41 156V203C41 203.276 40.7761 203.5 40.5 203.5C40.2239 203.5 40 203.276 40 203V156C40 155.724 40.2239 155.5 40.5 155.5Z" fill="#EEEEEE"/>
<path fill-rule="evenodd" clip-rule="evenodd" d="M40.5 155C41.0523 155 41.5 155.448 41.5 156V203C41.5 203.552 41.0523 204 40.5 204V204C39.9477 204 39.5 203.552 39.5 203V156C39.5 155.448 39.9477 155 40.5 155V155Z" stroke="#EEEEEE"/>
</g>
<path d="M36.5 198L36.5 199L38.5 199L38.5 198L36.5 198Z" fill="black"/>
<path d="M41.5 198L41.5 199L43.5 199L43.5 198L41.5 198Z" fill="black"/>
<path d="M36.5 159L36.5 160L38.5 160L38.5 159L36.5 159Z" fill="black"/>
<path d="M41.5 159L41.5 160L43.5 160L43.5 159L41.5 159Z" fill="black"/>
<path fill-rule="evenodd" clip-rule="evenodd" d="M40 155C40.2761 155 40.5 155.224 40.5 155.5V202.5C40.5 202.776 40.2761 203 40 203C39.7239 203 39.5 202.776 39.5 202.5V155.5C39.5 155.224 39.7239 155 40 155Z" fill="#2471DB"/>
<path fill-rule="evenodd" clip-rule="evenodd" d="M40 154.5C40.5523 154.5 41 154.948 41 155.5V202.5C41 203.052 40.5523 203.5 40 203.5V203.5C39.4477 203.5 39 203.052 39 202.5V155.5C39 154.948 39.4477 154.5 40 154.5V154.5Z" stroke="black"/>
<path fill-rule="evenodd" clip-rule="evenodd" d="M40 154.5C41.1046 154.5 42 155.395 42 156.5V201.5C42 202.605 41.1046 203.5 40 203.5V203.5C38.8954 203.5 38 202.605 38 201.5V156.5C38 155.395 38.8954 154.5 40 154.5V154.5Z" stroke="#001E3C" stroke-opacity="0.5"/>
<g opacity="0.1">
<path d="M5 65.5L5 66.5L7 66.5L7 65.5L5 65.5Z" fill="#EEEEEE"/>
<path d="M10 65.5L10 66.5L12 66.5L12 65.5L10 65.5Z" fill="#EEEEEE"/>
<path d="M5 9.5L5 10.5L7 10.5L7 9.5L5 9.5Z" fill="#EEEEEE"/>
<path d="M10 9.5L10 10.5L12 10.5L12 9.5L10 9.5Z" fill="#EEEEEE"/>
<path fill-rule="evenodd" clip-rule="evenodd" d="M8.5 5.5C8.77614 5.5 9 5.72386 9 6.00001L9 70C9 70.2761 8.77614 70.5 8.5 70.5C8.22386 70.5 8 70.2761 8 70L8 6C8 5.72386 8.22386 5.5 8.5 5.5Z" fill="#EEEEEE"/>
<path fill-rule="evenodd" clip-rule="evenodd" d="M8.5 5C9.05228 5 9.5 5.44771 9.5 6L9.5 70C9.5 70.5523 9.05228 71 8.5 71V71C7.94772 71 7.5 70.5523 7.5 70L7.5 6C7.5 5.44771 7.94772 5 8.5 5V5Z" stroke="#EEEEEE"/>
</g>
<path d="M4.5 65L4.5 66L6.5 66L6.5 65L4.5 65Z" fill="black"/>
<path d="M9.5 65L9.5 66L11.5 66L11.5 65L9.5 65Z" fill="black"/>
<path d="M4.5 9L4.5 10L6.5 10L6.5 9L4.5 9Z" fill="black"/>
<path d="M9.5 9L9.5 10L11.5 10L11.5 9L9.5 9Z" fill="black"/>
<path fill-rule="evenodd" clip-rule="evenodd" d="M8 5C8.27614 5 8.5 5.22386 8.5 5.50001L8.5 69.5C8.5 69.7761 8.27614 70 8 70C7.72386 70 7.5 69.7761 7.5 69.5L7.5 5.5C7.5 5.22386 7.72386 5 8 5Z" fill="#1F1F1F"/>
<path fill-rule="evenodd" clip-rule="evenodd" d="M8 4.5C8.55228 4.5 9 4.94771 9 5.5L9 69.5C9 70.0523 8.55228 70.5 8 70.5V70.5C7.44772 70.5 7 70.0523 7 69.5L7 5.5C7 4.94771 7.44772 4.5 8 4.5V4.5Z" stroke="black"/>
<g opacity="0.1">
<path d="M21 65.5L21 66.5L23 66.5L23 65.5L21 65.5Z" fill="#EEEEEE"/>
<path d="M26 65.5L26 66.5L28 66.5L28 65.5L26 65.5Z" fill="#EEEEEE"/>
<path d="M21 9.5L21 10.5L23 10.5L23 9.5L21 9.5Z" fill="#EEEEEE"/>
<path d="M26 9.5L26 10.5L28 10.5L28 9.5L26 9.5Z" fill="#EEEEEE"/>
<path fill-rule="evenodd" clip-rule="evenodd" d="M24.5 5.5C24.7761 5.5 25 5.72386 25 6.00001L25 70C25 70.2761 24.7761 70.5 24.5 70.5C24.2239 70.5 24 70.2761 24 70L24 6C24 5.72386 24.2239 5.5 24.5 5.5Z" fill="#EEEEEE"/>
<path fill-rule="evenodd" clip-rule="evenodd" d="M24.5 5C25.0523 5 25.5 5.44771 25.5 6L25.5 70C25.5 70.5523 25.0523 71 24.5 71V71C23.9477 71 23.5 70.5523 23.5 70L23.5 6C23.5 5.44771 23.9477 5 24.5 5V5Z" stroke="#EEEEEE"/>
</g>
<path d="M20.5 65L20.5 66L22.5 66L22.5 65L20.5 65Z" fill="black"/>
<path d="M25.5 65L25.5 66L27.5 66L27.5 65L25.5 65Z" fill="black"/>
<path d="M20.5 9L20.5 10L22.5 10L22.5 9L20.5 9Z" fill="black"/>
<path d="M25.5 9L25.5 10L27.5 10L27.5 9L25.5 9Z" fill="black"/>
<path fill-rule="evenodd" clip-rule="evenodd" d="M24 5C24.2761 5 24.5 5.22386 24.5 5.50001L24.5 69.5C24.5 69.7761 24.2761 70 24 70C23.7239 70 23.5 69.7761 23.5 69.5L23.5 5.5C23.5 5.22386 23.7239 5 24 5Z" fill="#737373"/>
<path fill-rule="evenodd" clip-rule="evenodd" d="M24 4.5C24.5523 4.5 25 4.94771 25 5.5L25 69.5C25 70.0523 24.5523 70.5 24 70.5V70.5C23.4477 70.5 23 70.0523 23 69.5L23 5.5C23 4.94771 23.4477 4.5 24 4.5V4.5Z" stroke="black"/>
<g opacity="0.1">
<path d="M37 65.5L37 66.5L39 66.5L39 65.5L37 65.5Z" fill="#EEEEEE"/>
<path d="M42 65.5L42 66.5L44 66.5L44 65.5L42 65.5Z" fill="#EEEEEE"/>
<path d="M37 9.5L37 10.5L39 10.5L39 9.5L37 9.5Z" fill="#EEEEEE"/>
<path d="M42 9.5L42 10.5L44 10.5L44 9.5L42 9.5Z" fill="#EEEEEE"/>
<path fill-rule="evenodd" clip-rule="evenodd" d="M40.5 5.5C40.7761 5.5 41 5.72386 41 6.00001L41 70C41 70.2761 40.7761 70.5 40.5 70.5C40.2239 70.5 40 70.2761 40 70L40 6C40 5.72386 40.2239 5.5 40.5 5.5Z" fill="#EEEEEE"/>
<path fill-rule="evenodd" clip-rule="evenodd" d="M40.5 5C41.0523 5 41.5 5.44771 41.5 6L41.5 70C41.5 70.5523 41.0523 71 40.5 71V71C39.9477 71 39.5 70.5523 39.5 70L39.5 6C39.5 5.44771 39.9477 5 40.5 5V5Z" stroke="#EEEEEE"/>
</g>
<path d="M36.5 65L36.5 66L38.5 66L38.5 65L36.5 65Z" fill="black"/>
<path d="M41.5 65L41.5 66L43.5 66L43.5 65L41.5 65Z" fill="black"/>
<path d="M36.5 9L36.5 10L38.5 10L38.5 9L36.5 9Z" fill="black"/>
<path d="M41.5 9L41.5 10L43.5 10L43.5 9L41.5 9Z" fill="black"/>
<path fill-rule="evenodd" clip-rule="evenodd" d="M40 5C40.2761 5 40.5 5.22386 40.5 5.50001L40.5 69.5C40.5 69.7761 40.2761 70 40 70C39.7239 70 39.5 69.7761 39.5 69.5L39.5 5.5C39.5 5.22386 39.7239 5 40 5Z" fill="#2471DB"/>
<path fill-rule="evenodd" clip-rule="evenodd" d="M40 4.5C40.5523 4.5 41 4.94771 41 5.5L41 69.5C41 70.0523 40.5523 70.5 40 70.5V70.5C39.4477 70.5 39 70.0523 39 69.5L39 5.5C39 4.94771 39.4477 4.5 40 4.5V4.5Z" stroke="black"/>
<path fill-rule="evenodd" clip-rule="evenodd" d="M40 4.5C41.1046 4.5 42 5.39543 42 6.5L42 68.5C42 69.6046 41.1046 70.5 40 70.5V70.5C38.8954 70.5 38 69.6046 38 68.5L38 6.5C38 5.39543 38.8954 4.5 40 4.5V4.5Z" stroke="#001E3C" stroke-opacity="0.5"/>
<g opacity="0.1">
<path d="M5 140.5L5 141.5L7 141.5L7 140.5L5 140.5Z" fill="#EEEEEE"/>
<path d="M10 140.5L10 141.5L12 141.5L12 140.5L10 140.5Z" fill="#EEEEEE"/>
<path d="M5 84.5L5 85.5L7 85.5L7 84.5L5 84.5Z" fill="#EEEEEE"/>
<path d="M10 84.5L10 85.5L12 85.5L12 84.5L10 84.5Z" fill="#EEEEEE"/>
<path fill-rule="evenodd" clip-rule="evenodd" d="M8.5 80.5C8.77614 80.5 9 80.7239 9 81L9 145C9 145.276 8.77614 145.5 8.5 145.5C8.22386 145.5 8 145.276 8 145L8 81C8 80.7239 8.22386 80.5 8.5 80.5Z" fill="#EEEEEE"/>
<path fill-rule="evenodd" clip-rule="evenodd" d="M8.5 80C9.05228 80 9.5 80.4477 9.5 81L9.5 145C9.5 145.552 9.05228 146 8.5 146V146C7.94772 146 7.5 145.552 7.5 145L7.5 81C7.5 80.4477 7.94772 80 8.5 80V80Z" stroke="#EEEEEE"/>
</g>
<g opacity="0.1">
<path d="M5.5 113.5V112.5L7 112.5V113.5L5.5 113.5Z" fill="#EEEEEE"/>
<path d="M10 113.5V112.5L11.5 112.5V113.5L10 113.5Z" fill="#EEEEEE"/>
<path d="M3 85.5V84.5L5 84.5V85.5L3 85.5Z" fill="#EEEEEE"/>
<path d="M12 85.5V84.5L14 84.5V85.5L12 85.5Z" fill="#EEEEEE"/>
<path d="M3 141.5V140.5L5 140.5V141.5L3 141.5Z" fill="#EEEEEE"/>
<path d="M12 141.5V140.5L14 140.5V141.5L12 141.5Z" fill="#EEEEEE"/>
</g>
<path d="M5 113V112L6.5 112V113L5 113Z" fill="black"/>
<path d="M9.5 113V112L11 112V113L9.5 113Z" fill="black"/>
<path d="M2.5 85V84L4.5 84V85L2.5 85Z" fill="black"/>
<path d="M11.5 85V84L13.5 84V85L11.5 85Z" fill="black"/>
<path d="M2.5 141V140L4.5 140V141L2.5 141Z" fill="black"/>
<path d="M11.5 141V140L13.5 140V141L11.5 141Z" fill="black"/>
<path d="M4.5 140L4.5 141L6.5 141L6.5 140L4.5 140Z" fill="black"/>
<path d="M9.5 140L9.5 141L11.5 141L11.5 140L9.5 140Z" fill="black"/>
<path d="M4.5 84L4.5 85L6.5 85L6.5 84L4.5 84Z" fill="black"/>
<path d="M9.5 84L9.5 85L11.5 85L11.5 84L9.5 84Z" fill="black"/>
<path fill-rule="evenodd" clip-rule="evenodd" d="M8 80C8.27614 80 8.5 80.2239 8.5 80.5L8.5 144.5C8.5 144.776 8.27614 145 8 145C7.72386 145 7.5 144.776 7.5 144.5L7.5 80.5C7.5 80.2239 7.72386 80 8 80Z" fill="#1F1F1F"/>
<path fill-rule="evenodd" clip-rule="evenodd" d="M8 79.5C8.55228 79.5 9 79.9477 9 80.5L9 144.5C9 145.052 8.55228 145.5 8 145.5V145.5C7.44772 145.5 7 145.052 7 144.5L7 80.5C7 79.9477 7.44772 79.5 8 79.5V79.5Z" stroke="black"/>
<g opacity="0.1">
<path d="M21 140.5L21 141.5L23 141.5L23 140.5L21 140.5Z" fill="#EEEEEE"/>
<path d="M26 140.5L26 141.5L28 141.5L28 140.5L26 140.5Z" fill="#EEEEEE"/>
<path d="M21 84.5L21 85.5L23 85.5L23 84.5L21 84.5Z" fill="#EEEEEE"/>
<path d="M26 84.5L26 85.5L28 85.5L28 84.5L26 84.5Z" fill="#EEEEEE"/>
<path fill-rule="evenodd" clip-rule="evenodd" d="M24.5 80.5C24.7761 80.5 25 80.7239 25 81L25 145C25 145.276 24.7761 145.5 24.5 145.5C24.2239 145.5 24 145.276 24 145L24 81C24 80.7239 24.2239 80.5 24.5 80.5Z" fill="#EEEEEE"/>
<path fill-rule="evenodd" clip-rule="evenodd" d="M24.5 80C25.0523 80 25.5 80.4477 25.5 81L25.5 145C25.5 145.552 25.0523 146 24.5 146V146C23.9477 146 23.5 145.552 23.5 145L23.5 81C23.5 80.4477 23.9477 80 24.5 80V80Z" stroke="#EEEEEE"/>
</g>
<g opacity="0.1">
<path d="M21.5 113.5V112.5L23 112.5V113.5L21.5 113.5Z" fill="#EEEEEE"/>
<path d="M26 113.5V112.5L27.5 112.5V113.5L26 113.5Z" fill="#EEEEEE"/>
<path d="M19 85.5V84.5L21 84.5V85.5L19 85.5Z" fill="#EEEEEE"/>
<path d="M28 85.5V84.5L30 84.5V85.5L28 85.5Z" fill="#EEEEEE"/>
<path d="M19 141.5V140.5L21 140.5V141.5L19 141.5Z" fill="#EEEEEE"/>
<path d="M28 141.5V140.5L30 140.5V141.5L28 141.5Z" fill="#EEEEEE"/>
</g>
<path d="M21 113V112L22.5 112V113L21 113Z" fill="black"/>
<path d="M25.5 113V112L27 112V113L25.5 113Z" fill="black"/>
<path d="M18.5 85V84L20.5 84V85L18.5 85Z" fill="black"/>
<path d="M27.5 85V84L29.5 84V85L27.5 85Z" fill="black"/>
<path d="M18.5 141V140L20.5 140V141L18.5 141Z" fill="black"/>
<path d="M27.5 141V140L29.5 140V141L27.5 141Z" fill="black"/>
<path d="M20.5 140L20.5 141L22.5 141L22.5 140L20.5 140Z" fill="black"/>
<path d="M25.5 140L25.5 141L27.5 141L27.5 140L25.5 140Z" fill="black"/>
<path d="M20.5 84L20.5 85L22.5 85L22.5 84L20.5 84Z" fill="black"/>
<path d="M25.5 84L25.5 85L27.5 85L27.5 84L25.5 84Z" fill="black"/>
<path fill-rule="evenodd" clip-rule="evenodd" d="M24 80C24.2761 80 24.5 80.2239 24.5 80.5L24.5 144.5C24.5 144.776 24.2761 145 24 145C23.7239 145 23.5 144.776 23.5 144.5L23.5 80.5C23.5 80.2239 23.7239 80 24 80Z" fill="#737373"/>
<path fill-rule="evenodd" clip-rule="evenodd" d="M24 79.5C24.5523 79.5 25 79.9477 25 80.5L25 144.5C25 145.052 24.5523 145.5 24 145.5V145.5C23.4477 145.5 23 145.052 23 144.5L23 80.5C23 79.9477 23.4477 79.5 24 79.5V79.5Z" stroke="black"/>
<g opacity="0.1">
<path d="M37 140.5L37 141.5L39 141.5L39 140.5L37 140.5Z" fill="#EEEEEE"/>
<path d="M42 140.5L42 141.5L44 141.5L44 140.5L42 140.5Z" fill="#EEEEEE"/>
<path d="M37 84.5L37 85.5L39 85.5L39 84.5L37 84.5Z" fill="#EEEEEE"/>
<path d="M42 84.5L42 85.5L44 85.5L44 84.5L42 84.5Z" fill="#EEEEEE"/>
<path fill-rule="evenodd" clip-rule="evenodd" d="M40.5 80.5C40.7761 80.5 41 80.7239 41 81L41 145C41 145.276 40.7761 145.5 40.5 145.5C40.2239 145.5 40 145.276 40 145L40 81C40 80.7239 40.2239 80.5 40.5 80.5Z" fill="#EEEEEE"/>
<path fill-rule="evenodd" clip-rule="evenodd" d="M40.5 80C41.0523 80 41.5 80.4477 41.5 81L41.5 145C41.5 145.552 41.0523 146 40.5 146V146C39.9477 146 39.5 145.552 39.5 145L39.5 81C39.5 80.4477 39.9477 80 40.5 80V80Z" stroke="#EEEEEE"/>
</g>
<g opacity="0.1">
<path d="M37.5 113.5V112.5L39 112.5V113.5L37.5 113.5Z" fill="#EEEEEE"/>
<path d="M42 113.5V112.5L43.5 112.5V113.5L42 113.5Z" fill="#EEEEEE"/>
<path d="M35 85.5V84.5L37 84.5V85.5L35 85.5Z" fill="#EEEEEE"/>
<path d="M44 85.5V84.5L46 84.5V85.5L44 85.5Z" fill="#EEEEEE"/>
<path d="M35 141.5V140.5L37 140.5V141.5L35 141.5Z" fill="#EEEEEE"/>
<path d="M44 141.5V140.5L46 140.5V141.5L44 141.5Z" fill="#EEEEEE"/>
</g>
<path d="M37 113V112L38.5 112V113L37 113Z" fill="black"/>
<path d="M41.5 113V112L43 112V113L41.5 113Z" fill="black"/>
<path d="M34.5 85V84L36.5 84V85L34.5 85Z" fill="black"/>
<path d="M43.5 85V84L45.5 84V85L43.5 85Z" fill="black"/>
<path d="M34.5 141V140L36.5 140V141L34.5 141Z" fill="black"/>
<path d="M43.5 141V140L45.5 140V141L43.5 141Z" fill="black"/>
<path d="M36.5 140L36.5 141L38.5 141L38.5 140L36.5 140Z" fill="black"/>
<path d="M41.5 140L41.5 141L43.5 141L43.5 140L41.5 140Z" fill="black"/>
<path d="M36.5 84L36.5 85L38.5 85L38.5 84L36.5 84Z" fill="black"/>
<path d="M41.5 84L41.5 85L43.5 85L43.5 84L41.5 84Z" fill="black"/>
<path fill-rule="evenodd" clip-rule="evenodd" d="M40 80C40.2761 80 40.5 80.2239 40.5 80.5L40.5 144.5C40.5 144.776 40.2761 145 40 145C39.7239 145 39.5 144.776 39.5 144.5L39.5 80.5C39.5 80.2239 39.7239 80 40 80Z" fill="#2471DB"/>
<path fill-rule="evenodd" clip-rule="evenodd" d="M40 79.5C40.5523 79.5 41 79.9477 41 80.5L41 144.5C41 145.052 40.5523 145.5 40 145.5V145.5C39.4477 145.5 39 145.052 39 144.5L39 80.5C39 79.9477 39.4477 79.5 40 79.5V79.5Z" stroke="black"/>
<path fill-rule="evenodd" clip-rule="evenodd" d="M40 79.5C41.1046 79.5 42 80.3954 42 81.5L42 143.5C42 144.605 41.1046 145.5 40 145.5V145.5C38.8954 145.5 38 144.605 38 143.5L38 81.5C38 80.3954 38.8954 79.5 40 79.5V79.5Z" stroke="#001E3C" stroke-opacity="0.5"/>
</svg>
