<?xml version="1.0" encoding="UTF-8"?>
<svg width="20px" height="140px" viewBox="0 0 20 140" version="1.1" xmlns="http://www.w3.org/2000/svg" xmlns:xlink="http://www.w3.org/1999/xlink">
    <!-- Generator: Sketch 63.1 (92452) - https://sketch.com -->
    <title>bmp00145</title>
    <desc>Created with Sketch.</desc>
    <g id="bmp00145" stroke="none" stroke-width="1" fill="none" fill-rule="evenodd">
        <path d="M20,14 L-7.10542736e-15,14 C4.47949219,4.66666667 11.1461589,0 20,0 C20,0 20,4.66666667 20,14 Z" id="Path-5" fill="#0055A7"></path>
        <path d="M20,42 C6.66666667,42 -1.77635684e-15,42 -1.77635684e-15,42 C8,42 14.6666667,37.3333333 20,28 L20,42 Z" id="Path-5" fill="#0055A7"></path>
        <polygon id="Path-4" fill="#0055A7" points="0 28 20 14 20 28"></polygon>
        <polygon id="Path-6" fill="#0055A7" points="0 42 0 56 20 56 20 49"></polygon>
        <path d="M-3.55271368e-15,56 L-3.55271368e-15,70 L20,70 C20,65.3333333 20,63 20,63 C14,63 7.33333333,60.6666667 -3.55271368e-15,56 Z" id="Path-7" fill="#0055A7"></path>
        <path d="M-2.84217094e-14,70 L-2.84217094e-14,84 L20,84 C20,79.3333333 20,77 20,77 C9.33333333,77 2.66666667,74.6666667 -2.84217094e-14,70 Z" id="Path-9" fill="#0055A7"></path>
        <polygon id="Path-10" fill="#0055A7" points="0 91 0 98 20 98"></polygon>
        <path d="M0,105 C0,105 0,107.333333 0,112 L20,112 C9.33333333,110.833333 2.66666667,108.5 0,105 Z" id="Path-11" fill="#0055A7"></path>
        <path d="M0,119 C0,119 0,121.333333 0,126 L20,126 C9.33333333,124.833333 2.66666667,122.5 0,119 Z" id="Path-11" fill="#0055A7"></path>
        <g id="Group-66" transform="translate(1.000000, 84.000000)" fill="#FF9A10" fill-opacity="0.5">
            <rect id="Rectangle" x="12" y="28" width="6" height="14"></rect>
            <rect id="Rectangle" x="6" y="14" width="6" height="14"></rect>
            <rect id="Rectangle" x="0" y="0" width="6" height="14"></rect>
        </g>
        <g id="Group-66" transform="translate(1.000000, 42.000000)" fill="#FF9A10" fill-opacity="0.5">
            <rect id="Rectangle" x="12" y="28" width="6" height="14"></rect>
            <rect id="Rectangle" x="6" y="14" width="6" height="14"></rect>
            <rect id="Rectangle" x="0" y="0" width="6" height="14"></rect>
        </g>
        <g id="Group-66" transform="translate(1.000000, 0.000000)" fill="#FF9A10" fill-opacity="0.5">
            <rect id="Rectangle" x="12" y="28" width="6" height="14"></rect>
            <rect id="Rectangle" x="6" y="14" width="6" height="14"></rect>
            <rect id="Rectangle" x="0" y="0" width="6" height="14"></rect>
        </g>
    </g>
</svg>