<?xml version="1.0" encoding="UTF-8"?>
<svg width="119px" height="51px" viewBox="0 0 119 51" version="1.1" xmlns="http://www.w3.org/2000/svg" xmlns:xlink="http://www.w3.org/1999/xlink">
    <title>bmp00137</title>
    <g id="bmp00137" stroke="none" stroke-width="1" fill="none" fill-rule="evenodd">
        <g id="Group-4">
            <circle id="Oval" stroke="#FF9000" cx="75.5" cy="25.5" r="4"></circle>
            <path d="M76,24 L76,25 L77,25 L77,26 L76,26 L76,27 L75,27 L75,26 L74,26 L74,25 L75,25 L75,24 L76,24 Z" id="Combined-Shape" fill="#FFFFFF"></path>
            <rect id="Rectangle" stroke="#FF9000" x="17.5" y="0.5" width="18" height="10"></rect>
            <rect id="Rectangle" stroke="#FF9000" x="43.5" y="0.5" width="18" height="10"></rect>
            <rect id="Rectangle" stroke="#FF9000" x="17.5" y="20.5" width="18" height="10"></rect>
            <rect id="Rectangle" stroke="#FF9000" x="43.5" y="20.5" width="18" height="10"></rect>
            <rect id="Rectangle" stroke="#FF9000" x="88.5" y="10.5" width="18" height="10"></rect>
            <rect id="Rectangle" stroke="#FF9000" x="88.5" y="30.5" width="18" height="10"></rect>
            <rect id="Rectangle" fill="#FF9000" x="61" y="5" width="5" height="1"></rect>
            <rect id="Rectangle" fill="#FF9000" x="65" y="5" width="1" height="23"></rect>
            <rect id="Rectangle" fill="#FF9000" x="19" y="13" width="47" height="1"></rect>
            <rect id="Rectangle" stroke="#FF9000" x="17.5" y="40.5" width="18" height="10"></rect>
            <rect id="Rectangle" stroke="#FF9000" x="43.5" y="40.5" width="18" height="10"></rect>
            <rect id="Rectangle" stroke="#FF9000" x="0.5" y="0.5" width="9" height="10"></rect>
            <rect id="Rectangle" stroke="#FF9000" x="0.5" y="40.5" width="9" height="10"></rect>
            <g id="Group-3" transform="translate(9.000000, 3.000000)"></g>
            <g id="Group-3" transform="translate(19.500000, 16.000000) rotate(-270.000000) translate(-19.500000, -16.000000) translate(16.500000, 13.500000)"></g>
            <g id="Group-3" transform="translate(45.500000, 16.000000) rotate(-270.000000) translate(-45.500000, -16.000000) translate(42.500000, 13.500000)"></g>
            <g id="Group-3" transform="translate(32.500000, 35.000000) scale(1, -1) rotate(-270.000000) translate(-32.500000, -35.000000) translate(29.500000, 19.500000)"></g>
            <g id="Group-3" transform="translate(45.500000, 35.000000) scale(1, -1) rotate(-270.000000) translate(-45.500000, -35.000000) translate(42.500000, 32.500000)"></g>
            <g id="Group-3" transform="translate(35.000000, 3.000000)"></g>
            <g id="Group-3" transform="translate(112.000000, 23.000000)"></g>
            <g id="Group-3" transform="translate(10.000000, 43.000000)"></g>
            <g id="Group-3" transform="translate(35.000000, 43.000000)"></g>
            <rect id="Rectangle" fill="#FF9000" x="20" y="37" width="46" height="1"></rect>
            <rect id="Rectangle" fill="#FF9000" x="65" y="29" width="1" height="17"></rect>
            <g id="Group-15" transform="translate(65.000000, 27.000000)" fill="#FF9000">
                <rect id="Rectangle" x="0" y="2" width="1" height="1"></rect>
                <rect id="Rectangle" x="0" y="0" width="1" height="2"></rect>
            </g>
            <rect id="Rectangle" fill="#FF9000" x="61" y="45" width="5" height="1"></rect>
            <rect id="Rectangle" fill="#FF9000" x="61" y="25" width="5" height="1"></rect>
            <rect id="Rectangle" fill="#FF9000" x="63" y="25" width="4" height="1"></rect>
            <rect id="Rectangle" fill="#FF9000" x="80" y="25" width="3" height="1"></rect>
            <rect id="Rectangle" fill="#FF9000" x="82" y="15" width="1" height="11"></rect>
            <rect id="Rectangle" fill="#FF9000" x="82" y="15" width="7" height="1"></rect>
            <rect id="Rectangle" fill="#FF9000" x="106" y="15" width="4" height="1"></rect>
            <rect id="Rectangle" fill="#FF9000" x="109" y="16" width="1" height="10"></rect>
            <rect id="Rectangle" fill="#FF9000" x="85" y="25" width="25" height="1"></rect>
            <rect id="Rectangle" fill="#FF9000" x="85" y="25" width="1" height="11"></rect>
            <rect id="Rectangle" fill="#FF9000" x="85" y="35" width="4" height="1"></rect>
            <rect id="Rectangle" fill="#FF9000" x="106" y="35" width="7" height="1"></rect>
            <rect id="Rectangle" fill="#FF9000" x="112" y="25" width="1" height="11"></rect>
        </g>
        <path d="M12,3 L16,5.5 L12,8 L12,6 L10,6 L10,5 L12,5 L12,3 Z" id="Combined-Shape" fill="#FF9000" transform="translate(13.000000, 5.500000) rotate(-360.000000) translate(-13.000000, -5.500000) "></path>
        <path d="M18.5,13.5 L22.5,16 L18.5,18.5 L18.5,16.5 L16.5,16.5 L16.5,15.5 L18.5,15.5 L18.5,13.5 Z" id="Combined-Shape" fill="#FF9000" transform="translate(19.500000, 16.000000) rotate(-270.000000) translate(-19.500000, -16.000000) "></path>
        <path d="M44.5,13.5 L48.5,16 L44.5,18.5 L44.5,16.5 L42.5,16.5 L42.5,15.5 L44.5,15.5 L44.5,13.5 Z" id="Combined-Shape" fill="#FF9000" transform="translate(45.500000, 16.000000) rotate(-270.000000) translate(-45.500000, -16.000000) "></path>
        <path d="M67,23 L70,25.5 L67,28 L66.999,26 L65,26 L65,25 L67,25 L67,23 Z" id="Combined-Shape" fill="#FF9000"></path>
        <path d="M18.5,32.5 L22.5,35 L18.5,37.5 L18.5,35.5 L16.5,35.5 L16.5,34.5 L18.5,34.5 L18.5,32.5 Z" id="Combined-Shape" fill="#FF9000" transform="translate(19.500000, 35.000000) rotate(-90.000000) translate(-19.500000, -35.000000) "></path>
        <path d="M39,23 L42,25.5 L39,28 L39,26 L36,26 L36,25 L39,25 L39,23 Z" id="Combined-Shape" fill="#FF9000" transform="translate(39.000000, 25.500000) rotate(-360.000000) translate(-39.000000, -25.500000) "></path>
        <path d="M44.5,32.5 L48.5,35 L44.5,37.5 L44.5,35.5 L42.5,35.5 L42.5,34.5 L44.5,34.5 L44.5,32.5 Z" id="Combined-Shape" fill="#FF9000" transform="translate(45.500000, 35.000000) rotate(-90.000000) translate(-45.500000, -35.000000) "></path>
        <path d="M38,3 L42,5.5 L38,8 L38,6 L36,6 L36,5 L38,5 L38,3 Z" id="Combined-Shape" fill="#FF9000" transform="translate(39.000000, 5.500000) rotate(-360.000000) translate(-39.000000, -5.500000) "></path>
        <path d="M12,43 L16,45.5 L12,48 L12,46 L10,46 L10,45 L12,45 L12,43 Z" id="Combined-Shape" fill="#FF9000" transform="translate(13.000000, 45.500000) rotate(-360.000000) translate(-13.000000, -45.500000) "></path>
        <path d="M38,43 L42,45.5 L38,48 L38,46 L36,46 L36,45 L38,45 L38,43 Z" id="Combined-Shape" fill="#FF9000" transform="translate(39.000000, 45.500000) rotate(-360.000000) translate(-39.000000, -45.500000) "></path>
        <path d="M114,23 L118,25.5 L114,28 L114,26 L112,26 L112,25 L114,25 L114,23 Z" id="Combined-Shape" fill="#FF9000" transform="translate(115.000000, 25.500000) rotate(-360.000000) translate(-115.000000, -25.500000) "></path>
        <g id="Text-Copy" transform="translate(2.000000, 1.000000)" fill="#FFFFFF" fill-rule="nonzero">
            <path d="M1.431,7 C1.529,7 1.61183333,6.97375 1.6795,6.92125 C1.74716667,6.86875 1.79266667,6.80983333 1.816,6.7445 L1.816,6.7445 L2.117,5.8555 L4.056,5.8555 L4.357,6.7445 C4.38266667,6.81916667 4.42875,6.88041667 4.49525,6.92825 C4.56175,6.97608333 4.64633333,7 4.749,7 L4.749,7 L5.666,7 L3.692,1.9005 L2.481,1.9005 L0.507,7 L1.431,7 Z M3.783,5.0505 L2.39,5.0505 L2.859,3.661 C2.894,3.57233333 2.93133333,3.46733333 2.971,3.346 C3.01066667,3.22466667 3.04916667,3.09283333 3.0865,2.9505 C3.12616667,3.0905 3.16641667,3.22058333 3.20725,3.34075 C3.24808333,3.46091667 3.28366667,3.56533333 3.314,3.654 L3.314,3.654 L3.783,5.0505 Z" id="A"></path>
            <path d="M2.957,47 C3.26266667,47 3.5345,46.9609167 3.7725,46.88275 C4.0105,46.8045833 4.21058333,46.6960833 4.37275,46.55725 C4.53491667,46.4184167 4.658,46.2556667 4.742,46.069 C4.826,45.8823333 4.868,45.6805 4.868,45.4635 C4.868,45.1765 4.7875,44.9414167 4.6265,44.75825 C4.4655,44.5750833 4.217,44.4426667 3.881,44.361 C4.035,44.305 4.16683333,44.2390833 4.2765,44.16325 C4.38616667,44.0874167 4.476,44.0028333 4.546,43.9095 C4.616,43.8161667 4.66733333,43.7164167 4.7,43.61025 C4.73266667,43.5040833 4.749,43.3938333 4.749,43.2795 C4.749,43.0695 4.71341667,42.8793333 4.64225,42.709 C4.57108333,42.5386667 4.45733333,42.394 4.301,42.275 C4.14466667,42.156 3.94283333,42.0638333 3.6955,41.9985 C3.44816667,41.9331667 3.14833333,41.9005 2.796,41.9005 L2.796,41.9005 L0.92,41.9005 L0.92,47 L2.957,47 Z M2.719,44.046 L2.103,44.046 L2.103,42.786 L2.796,42.786 C2.929,42.786 3.04391667,42.7965 3.14075,42.8175 C3.23758333,42.8385 3.3175,42.8735 3.3805,42.9225 C3.4435,42.9715 3.49016667,43.03625 3.5205,43.11675 C3.55083333,43.19725 3.566,43.2981667 3.566,43.4195 C3.566,43.5431667 3.54675,43.6458333 3.50825,43.7275 C3.46975,43.8091667 3.41375,43.8733333 3.34025,43.92 C3.26675,43.9666667 3.1775,43.9993333 3.0725,44.018 C2.9675,44.0366667 2.84966667,44.046 2.719,44.046 L2.719,44.046 Z M2.936,46.1075 L2.103,46.1075 L2.103,44.837 L2.929,44.837 C3.07833333,44.837 3.202,44.851 3.3,44.879 C3.398,44.907 3.47675,44.9466667 3.53625,44.998 C3.59575,45.0493333 3.63775,45.1123333 3.66225,45.187 C3.68675,45.2616667 3.699,45.3456667 3.699,45.439 C3.699,45.5206667 3.6885,45.6011667 3.6675,45.6805 C3.6465,45.7598333 3.608,45.831 3.552,45.894 C3.496,45.957 3.41841667,46.0083333 3.31925,46.048 C3.22008333,46.0876667 3.09233333,46.1075 2.936,46.1075 L2.936,46.1075 Z" id="B"></path>
        </g>
    </g>
</svg>