<svg width="22" height="30" viewBox="0 0 22 30" fill="none" xmlns="http://www.w3.org/2000/svg">
<rect x="2.5" y="3" width="15" height="8" rx="1" fill="#242424"/>
<rect x="2.5" y="3" width="15" height="8" rx="1" stroke="black"/>
<path d="M11.373 5.4365C11.338 5.4925 11.3007 5.5345 11.261 5.5625C11.2237 5.5905 11.1747 5.6045 11.114 5.6045C11.0603 5.6045 11.002 5.58817 10.939 5.5555C10.8783 5.5205 10.8083 5.482 10.729 5.44C10.652 5.398 10.5633 5.36067 10.463 5.328C10.3627 5.293 10.2483 5.2755 10.12 5.2755C9.89835 5.2755 9.73268 5.32333 9.62301 5.419C9.51568 5.51233 9.46201 5.6395 9.46201 5.8005C9.46201 5.90317 9.49468 5.98833 9.56001 6.056C9.62535 6.12367 9.71051 6.182 9.81551 6.231C9.92285 6.28 10.0442 6.3255 10.1795 6.3675C10.3172 6.40717 10.4572 6.45267 10.5995 6.504C10.7418 6.553 10.8807 6.61133 11.016 6.679C11.1537 6.74667 11.275 6.833 11.38 6.938C11.4873 7.043 11.5737 7.17133 11.639 7.323C11.7043 7.47233 11.737 7.65317 11.737 7.8655C11.737 8.10117 11.6962 8.32167 11.6145 8.527C11.5328 8.73233 11.4138 8.912 11.2575 9.066C11.1035 9.21767 10.9122 9.33783 10.6835 9.4265C10.4572 9.51283 10.1993 9.556 9.91001 9.556C9.75135 9.556 9.58918 9.53967 9.42351 9.507C9.26018 9.47433 9.10151 9.42883 8.94751 9.3705C8.79351 9.30983 8.64885 9.23867 8.51351 9.157C8.37818 9.07533 8.26035 8.98433 8.16001 8.884L8.51001 8.331C8.53801 8.29133 8.57418 8.25867 8.61851 8.233C8.66518 8.205 8.71535 8.191 8.76901 8.191C8.83901 8.191 8.90901 8.21317 8.97901 8.2575C9.05135 8.30183 9.13185 8.35083 9.22051 8.4045C9.31151 8.45817 9.41535 8.50717 9.53201 8.5515C9.64868 8.59583 9.78635 8.618 9.94501 8.618C10.1597 8.618 10.3265 8.57133 10.4455 8.478C10.5645 8.38233 10.624 8.23183 10.624 8.0265C10.624 7.9075 10.5913 7.81067 10.526 7.736C10.4607 7.66133 10.3743 7.5995 10.267 7.5505C10.162 7.5015 10.0418 7.45833 9.90651 7.421C9.77118 7.38367 9.63235 7.34283 9.49001 7.2985C9.34768 7.25183 9.20885 7.19583 9.07351 7.1305C8.93818 7.06283 8.81685 6.97533 8.70951 6.868C8.60451 6.75833 8.51935 6.623 8.45401 6.462C8.38868 6.29867 8.35601 6.098 8.35601 5.86C8.35601 5.66867 8.39451 5.482 8.47151 5.3C8.54851 5.118 8.66168 4.95583 8.81101 4.8135C8.96035 4.67117 9.14351 4.558 9.36051 4.474C9.57751 4.38767 9.82601 4.3445 10.106 4.3445C10.2623 4.3445 10.414 4.35733 10.561 4.383C10.7103 4.40633 10.8515 4.4425 10.9845 4.4915C11.1175 4.53817 11.2412 4.59533 11.3555 4.663C11.4722 4.72833 11.576 4.803 11.667 4.887L11.373 5.4365Z" fill="#B4B4B4"/>
<rect x="2.5" y="18" width="15" height="8" rx="1" fill="#FF9300"/>
<rect x="2.5" y="18" width="15" height="8" rx="1" stroke="black"/>
<path d="M11.373 20.4365C11.338 20.4925 11.3007 20.5345 11.261 20.5625C11.2237 20.5905 11.1747 20.6045 11.114 20.6045C11.0603 20.6045 11.002 20.5882 10.939 20.5555C10.8783 20.5205 10.8083 20.482 10.729 20.44C10.652 20.398 10.5633 20.3607 10.463 20.328C10.3627 20.293 10.2483 20.2755 10.12 20.2755C9.89835 20.2755 9.73268 20.3233 9.62301 20.419C9.51568 20.5123 9.46201 20.6395 9.46201 20.8005C9.46201 20.9032 9.49468 20.9883 9.56001 21.056C9.62535 21.1237 9.71051 21.182 9.81551 21.231C9.92285 21.28 10.0442 21.3255 10.1795 21.3675C10.3172 21.4072 10.4572 21.4527 10.5995 21.504C10.7418 21.553 10.8807 21.6113 11.016 21.679C11.1537 21.7467 11.275 21.833 11.38 21.938C11.4873 22.043 11.5737 22.1713 11.639 22.323C11.7043 22.4723 11.737 22.6532 11.737 22.8655C11.737 23.1012 11.6962 23.3217 11.6145 23.527C11.5328 23.7323 11.4138 23.912 11.2575 24.066C11.1035 24.2177 10.9122 24.3378 10.6835 24.4265C10.4572 24.5128 10.1993 24.556 9.91001 24.556C9.75135 24.556 9.58918 24.5397 9.42351 24.507C9.26018 24.4743 9.10151 24.4288 8.94751 24.3705C8.79351 24.3098 8.64885 24.2387 8.51351 24.157C8.37818 24.0753 8.26035 23.9843 8.16001 23.884L8.51001 23.331C8.53801 23.2913 8.57418 23.2587 8.61851 23.233C8.66518 23.205 8.71535 23.191 8.76901 23.191C8.83901 23.191 8.90901 23.2132 8.97901 23.2575C9.05135 23.3018 9.13185 23.3508 9.22051 23.4045C9.31151 23.4582 9.41535 23.5072 9.53201 23.5515C9.64868 23.5958 9.78635 23.618 9.94501 23.618C10.1597 23.618 10.3265 23.5713 10.4455 23.478C10.5645 23.3823 10.624 23.2318 10.624 23.0265C10.624 22.9075 10.5913 22.8107 10.526 22.736C10.4607 22.6613 10.3743 22.5995 10.267 22.5505C10.162 22.5015 10.0418 22.4583 9.90651 22.421C9.77118 22.3837 9.63235 22.3428 9.49001 22.2985C9.34768 22.2518 9.20885 22.1958 9.07351 22.1305C8.93818 22.0628 8.81685 21.9753 8.70951 21.868C8.60451 21.7583 8.51935 21.623 8.45401 21.462C8.38868 21.2987 8.35601 21.098 8.35601 20.86C8.35601 20.6687 8.39451 20.482 8.47151 20.3C8.54851 20.118 8.66168 19.9558 8.81101 19.8135C8.96035 19.6712 9.14351 19.558 9.36051 19.474C9.57751 19.3877 9.82601 19.3445 10.106 19.3445C10.2623 19.3445 10.414 19.3573 10.561 19.383C10.7103 19.4063 10.8515 19.4425 10.9845 19.4915C11.1175 19.5382 11.2412 19.5953 11.3555 19.663C11.4722 19.7283 11.576 19.803 11.667 19.887L11.373 20.4365Z" fill="black"/>
</svg>
