<svg width="135" height="108" viewBox="0 0 135 108" fill="none" xmlns="http://www.w3.org/2000/svg">
<path d="M0.5 2.5C0.5 1.39543 1.39543 0.5 2.5 0.5H132.5C133.605 0.5 134.5 1.39543 134.5 2.5V24.5C134.5 25.6046 133.605 26.5 132.5 26.5H2.5C1.39543 26.5 0.5 25.6046 0.5 24.5V2.5Z" fill="#242424"/>
<rect x="2.5" y="2.5" width="30" height="22" rx="1" fill="#FF9000"/>
<rect x="2.5" y="2.5" width="30" height="22" rx="1" stroke="#FF9000"/>
<path d="M17.8206 14.084C17.8206 14.5053 17.7472 14.8973 17.6006 15.26C17.4566 15.6227 17.2526 15.9387 16.9886 16.208C16.7246 16.4747 16.4059 16.684 16.0326 16.836C15.6619 16.988 15.2499 17.064 14.7966 17.064C14.3432 17.064 13.9299 16.988 13.5566 16.836C13.1832 16.684 12.8632 16.4747 12.5966 16.208C12.3326 15.9387 12.1272 15.6227 11.9806 15.26C11.8366 14.8973 11.7646 14.5053 11.7646 14.084C11.7646 13.6627 11.8366 13.2707 11.9806 12.908C12.1272 12.5453 12.3326 12.2307 12.5966 11.964C12.8632 11.6973 13.1832 11.488 13.5566 11.336C13.9299 11.184 14.3432 11.108 14.7966 11.108C15.2499 11.108 15.6619 11.1853 16.0326 11.34C16.4059 11.492 16.7246 11.7013 16.9886 11.968C17.2526 12.2347 17.4566 12.5493 17.6006 12.912C17.7472 13.2747 17.8206 13.6653 17.8206 14.084ZM16.4366 14.084C16.4366 13.796 16.3992 13.5373 16.3246 13.308C16.2499 13.076 16.1419 12.88 16.0006 12.72C15.8619 12.56 15.6912 12.4373 15.4886 12.352C15.2859 12.2667 15.0552 12.224 14.7966 12.224C14.5352 12.224 14.3019 12.2667 14.0966 12.352C13.8939 12.4373 13.7219 12.56 13.5806 12.72C13.4419 12.88 13.3352 13.076 13.2606 13.308C13.1859 13.5373 13.1486 13.796 13.1486 14.084C13.1486 14.3747 13.1859 14.636 13.2606 14.868C13.3352 15.0973 13.4419 15.292 13.5806 15.452C13.7219 15.612 13.8939 15.7347 14.0966 15.82C14.3019 15.9027 14.5352 15.944 14.7966 15.944C15.0552 15.944 15.2859 15.9027 15.4886 15.82C15.6912 15.7347 15.8619 15.612 16.0006 15.452C16.1419 15.292 16.2499 15.0973 16.3246 14.868C16.3992 14.636 16.4366 14.3747 16.4366 14.084ZM18.6055 17V13.704L18.3335 13.648C18.2402 13.6267 18.1642 13.5933 18.1055 13.548C18.0495 13.5027 18.0215 13.436 18.0215 13.348V12.86H18.6055V12.704C18.6055 12.4667 18.6428 12.252 18.7175 12.06C18.7948 11.8653 18.9042 11.7 19.0455 11.564C19.1895 11.428 19.3642 11.324 19.5695 11.252C19.7748 11.1773 20.0082 11.14 20.2695 11.14C20.3708 11.14 20.4642 11.1467 20.5495 11.16C20.6348 11.1707 20.7242 11.188 20.8175 11.212L20.7935 11.816C20.7882 11.9013 20.7522 11.9613 20.6855 11.996C20.6215 12.028 20.5548 12.044 20.4855 12.044C20.3762 12.044 20.2788 12.0547 20.1935 12.076C20.1082 12.0973 20.0362 12.1347 19.9775 12.188C19.9215 12.2413 19.8788 12.3133 19.8495 12.404C19.8202 12.492 19.8055 12.604 19.8055 12.74V12.86H21.2615V12.548C21.2615 12.3107 21.2988 12.096 21.3735 11.904C21.4508 11.712 21.5602 11.548 21.7015 11.412C21.8455 11.276 22.0202 11.1707 22.2255 11.096C22.4308 11.0213 22.6642 10.984 22.9255 10.984C23.0268 10.984 23.1202 10.9907 23.2055 11.004C23.2908 11.0147 23.3802 11.0333 23.4735 11.06L23.4495 11.664C23.4468 11.7067 23.4362 11.7427 23.4175 11.772C23.3988 11.7987 23.3735 11.8213 23.3415 11.84C23.3122 11.856 23.2802 11.868 23.2455 11.876C23.2108 11.884 23.1762 11.888 23.1415 11.888C23.0322 11.888 22.9348 11.8987 22.8495 11.92C22.7642 11.9413 22.6922 11.98 22.6335 12.036C22.5775 12.0893 22.5348 12.1613 22.5055 12.252C22.4762 12.34 22.4615 12.452 22.4615 12.588V12.86H23.4335V13.708H22.5015V17H21.2615V13.708H19.8455V17H18.6055Z" fill="black"/>
<g opacity="0.75">
<rect x="33.5" y="25" width="23" height="1" transform="rotate(-90 33.5 25)" fill="black"/>
</g>
<path d="M46.0148 12.356C45.9748 12.42 45.9321 12.468 45.8868 12.5C45.8441 12.532 45.7881 12.548 45.7188 12.548C45.6574 12.548 45.5908 12.5293 45.5188 12.492C45.4494 12.452 45.3694 12.408 45.2788 12.36C45.1908 12.312 45.0894 12.2693 44.9748 12.232C44.8601 12.192 44.7294 12.172 44.5828 12.172C44.3294 12.172 44.1401 12.2267 44.0148 12.336C43.8921 12.4427 43.8308 12.588 43.8308 12.772C43.8308 12.8893 43.8681 12.9867 43.9428 13.064C44.0174 13.1413 44.1148 13.208 44.2348 13.264C44.3574 13.32 44.4961 13.372 44.6508 13.42C44.8081 13.4653 44.9681 13.5173 45.1308 13.576C45.2934 13.632 45.4521 13.6987 45.6068 13.776C45.7641 13.8533 45.9028 13.952 46.0228 14.072C46.1454 14.192 46.2441 14.3387 46.3188 14.512C46.3934 14.6827 46.4308 14.8893 46.4308 15.132C46.4308 15.4013 46.3841 15.6533 46.2908 15.888C46.1974 16.1227 46.0614 16.328 45.8828 16.504C45.7068 16.6773 45.4881 16.8147 45.2268 16.916C44.9681 17.0147 44.6734 17.064 44.3428 17.064C44.1614 17.064 43.9761 17.0453 43.7868 17.008C43.6001 16.9707 43.4188 16.9187 43.2428 16.852C43.0668 16.7827 42.9014 16.7013 42.7468 16.608C42.5921 16.5147 42.4574 16.4107 42.3428 16.296L42.7428 15.664C42.7748 15.6187 42.8161 15.5813 42.8668 15.552C42.9201 15.52 42.9774 15.504 43.0388 15.504C43.1188 15.504 43.1988 15.5293 43.2788 15.58C43.3614 15.6307 43.4534 15.6867 43.5548 15.748C43.6588 15.8093 43.7774 15.8653 43.9108 15.916C44.0441 15.9667 44.2014 15.992 44.3828 15.992C44.6281 15.992 44.8188 15.9387 44.9548 15.832C45.0908 15.7227 45.1588 15.5507 45.1588 15.316C45.1588 15.18 45.1214 15.0693 45.0468 14.984C44.9721 14.8987 44.8734 14.828 44.7508 14.772C44.6308 14.716 44.4934 14.6667 44.3388 14.624C44.1841 14.5813 44.0254 14.5347 43.8628 14.484C43.7001 14.4307 43.5414 14.3667 43.3868 14.292C43.2321 14.2147 43.0934 14.1147 42.9708 13.992C42.8508 13.8667 42.7534 13.712 42.6788 13.528C42.6041 13.3413 42.5668 13.112 42.5668 12.84C42.5668 12.6213 42.6108 12.408 42.6988 12.2C42.7868 11.992 42.9161 11.8067 43.0868 11.644C43.2574 11.4813 43.4668 11.352 43.7148 11.256C43.9628 11.1573 44.2468 11.108 44.5668 11.108C44.7454 11.108 44.9188 11.1227 45.0868 11.152C45.2574 11.1787 45.4188 11.22 45.5708 11.276C45.7228 11.3293 45.8641 11.3947 45.9948 11.472C46.1281 11.5467 46.2468 11.632 46.3508 11.728L46.0148 12.356ZM49.5405 14.428C49.5405 14.3293 49.5271 14.2333 49.5005 14.14C49.4765 14.0467 49.4351 13.964 49.3765 13.892C49.3205 13.8173 49.2458 13.7573 49.1525 13.712C49.0591 13.6667 48.9458 13.644 48.8125 13.644C48.5778 13.644 48.3938 13.712 48.2605 13.848C48.1271 13.9813 48.0391 14.1747 47.9965 14.428H49.5405ZM47.9805 15.148C48.0205 15.4947 48.1258 15.7467 48.2965 15.904C48.4671 16.0587 48.6871 16.136 48.9565 16.136C49.1005 16.136 49.2245 16.1187 49.3285 16.084C49.4325 16.0493 49.5245 16.0107 49.6045 15.968C49.6871 15.9253 49.7618 15.8867 49.8285 15.852C49.8978 15.8173 49.9698 15.8 50.0445 15.8C50.1431 15.8 50.2178 15.836 50.2685 15.908L50.6285 16.352C50.5005 16.4987 50.3618 16.6187 50.2125 16.712C50.0658 16.8027 49.9138 16.8747 49.7565 16.928C49.6018 16.9787 49.4458 17.0133 49.2885 17.032C49.1338 17.0533 48.9858 17.064 48.8445 17.064C48.5538 17.064 48.2805 17.0173 48.0245 16.924C47.7711 16.828 47.5485 16.6867 47.3565 16.5C47.1671 16.3133 47.0165 16.0813 46.9045 15.804C46.7951 15.5267 46.7405 15.204 46.7405 14.836C46.7405 14.5587 46.7871 14.296 46.8805 14.048C46.9765 13.8 47.1125 13.5827 47.2885 13.396C47.4671 13.2093 47.6818 13.0613 47.9325 12.952C48.1858 12.8427 48.4711 12.788 48.7885 12.788C49.0631 12.788 49.3138 12.8307 49.5405 12.916C49.7698 13.0013 49.9658 13.1253 50.1285 13.288C50.2938 13.4507 50.4218 13.6507 50.5125 13.888C50.6058 14.1227 50.6525 14.3893 50.6525 14.688C50.6525 14.7813 50.6485 14.8573 50.6405 14.916C50.6325 14.9747 50.6178 15.0213 50.5965 15.056C50.5751 15.0907 50.5458 15.1147 50.5085 15.128C50.4738 15.1413 50.4285 15.148 50.3725 15.148H47.9805ZM52.297 13.3C52.377 13.2253 52.4596 13.156 52.545 13.092C52.6303 13.028 52.721 12.9747 52.817 12.932C52.9156 12.8867 53.021 12.852 53.133 12.828C53.2476 12.8013 53.3716 12.788 53.505 12.788C53.7316 12.788 53.9316 12.828 54.105 12.908C54.281 12.9853 54.429 13.0947 54.549 13.236C54.669 13.3747 54.7596 13.5413 54.821 13.736C54.8823 13.928 54.913 14.1373 54.913 14.364V17H53.673V14.364C53.673 14.1613 53.6263 14.004 53.533 13.892C53.4396 13.7773 53.3023 13.72 53.121 13.72C52.985 13.72 52.857 13.7493 52.737 13.808C52.6196 13.864 52.505 13.9413 52.393 14.04V17H51.153V12.852H51.921C52.0756 12.852 52.177 12.9213 52.225 13.06L52.297 13.3ZM58.1115 13.964C58.0181 13.86 57.9168 13.788 57.8075 13.748C57.6981 13.7053 57.5835 13.684 57.4635 13.684C57.3488 13.684 57.2435 13.7067 57.1475 13.752C57.0515 13.7973 56.9675 13.8707 56.8955 13.972C56.8261 14.0707 56.7715 14.2 56.7315 14.36C56.6915 14.52 56.6715 14.7133 56.6715 14.94C56.6715 15.1587 56.6875 15.3427 56.7195 15.492C56.7515 15.6413 56.7955 15.7627 56.8515 15.856C56.9101 15.9467 56.9795 16.012 57.0595 16.052C57.1395 16.092 57.2288 16.112 57.3275 16.112C57.4181 16.112 57.4995 16.104 57.5715 16.088C57.6461 16.0693 57.7141 16.044 57.7755 16.012C57.8368 15.98 57.8941 15.94 57.9475 15.892C58.0035 15.8413 58.0581 15.784 58.1115 15.72V13.964ZM59.3515 11.012V17H58.5835C58.4288 17 58.3275 16.9307 58.2795 16.792L58.1835 16.476C58.1008 16.564 58.0141 16.644 57.9235 16.716C57.8328 16.788 57.7341 16.8507 57.6275 16.904C57.5235 16.9547 57.4101 16.9933 57.2875 17.02C57.1675 17.0493 57.0368 17.064 56.8955 17.064C56.6795 17.064 56.4795 17.016 56.2955 16.92C56.1115 16.824 55.9528 16.6853 55.8195 16.504C55.6861 16.3227 55.5808 16.1013 55.5035 15.84C55.4288 15.576 55.3915 15.276 55.3915 14.94C55.3915 14.6307 55.4341 14.344 55.5195 14.08C55.6048 13.8133 55.7248 13.584 55.8795 13.392C56.0368 13.1973 56.2248 13.0453 56.4435 12.936C56.6621 12.8267 56.9035 12.772 57.1675 12.772C57.3835 12.772 57.5648 12.8027 57.7115 12.864C57.8581 12.9253 57.9915 13.008 58.1115 13.112V11.012H59.3515Z" fill="#B4B4B4"/>
<g opacity="0.75">
<rect x="67" y="25" width="23" height="1" transform="rotate(-90 67 25)" fill="black"/>
</g>
<path d="M75.8354 8.356C75.7954 8.42 75.7527 8.468 75.7074 8.5C75.6647 8.532 75.6087 8.548 75.5394 8.548C75.4781 8.548 75.4114 8.52933 75.3394 8.492C75.2701 8.452 75.1901 8.408 75.0994 8.36C75.0114 8.312 74.9101 8.26933 74.7954 8.232C74.6807 8.192 74.5501 8.172 74.4034 8.172C74.1501 8.172 73.9607 8.22667 73.8354 8.336C73.7127 8.44267 73.6514 8.588 73.6514 8.772C73.6514 8.88933 73.6887 8.98667 73.7634 9.064C73.8381 9.14133 73.9354 9.208 74.0554 9.264C74.1781 9.32 74.3167 9.372 74.4714 9.42C74.6287 9.46533 74.7887 9.51733 74.9514 9.576C75.1141 9.632 75.2727 9.69867 75.4274 9.776C75.5847 9.85333 75.7234 9.952 75.8434 10.072C75.9661 10.192 76.0647 10.3387 76.1394 10.512C76.2141 10.6827 76.2514 10.8893 76.2514 11.132C76.2514 11.4013 76.2047 11.6533 76.1114 11.888C76.0181 12.1227 75.8821 12.328 75.7034 12.504C75.5274 12.6773 75.3087 12.8147 75.0474 12.916C74.7887 13.0147 74.4941 13.064 74.1634 13.064C73.9821 13.064 73.7967 13.0453 73.6074 13.008C73.4207 12.9707 73.2394 12.9187 73.0634 12.852C72.8874 12.7827 72.7221 12.7013 72.5674 12.608C72.4127 12.5147 72.2781 12.4107 72.1634 12.296L72.5634 11.664C72.5954 11.6187 72.6367 11.5813 72.6874 11.552C72.7407 11.52 72.7981 11.504 72.8594 11.504C72.9394 11.504 73.0194 11.5293 73.0994 11.58C73.1821 11.6307 73.2741 11.6867 73.3754 11.748C73.4794 11.8093 73.5981 11.8653 73.7314 11.916C73.8647 11.9667 74.0221 11.992 74.2034 11.992C74.4487 11.992 74.6394 11.9387 74.7754 11.832C74.9114 11.7227 74.9794 11.5507 74.9794 11.316C74.9794 11.18 74.9421 11.0693 74.8674 10.984C74.7927 10.8987 74.6941 10.828 74.5714 10.772C74.4514 10.716 74.3141 10.6667 74.1594 10.624C74.0047 10.5813 73.8461 10.5347 73.6834 10.484C73.5207 10.4307 73.3621 10.3667 73.2074 10.292C73.0527 10.2147 72.9141 10.1147 72.7914 9.992C72.6714 9.86667 72.5741 9.712 72.4994 9.528C72.4247 9.34133 72.3874 9.112 72.3874 8.84C72.3874 8.62133 72.4314 8.408 72.5194 8.2C72.6074 7.992 72.7367 7.80667 72.9074 7.644C73.0781 7.48133 73.2874 7.352 73.5354 7.256C73.7834 7.15733 74.0674 7.108 74.3874 7.108C74.5661 7.108 74.7394 7.12267 74.9074 7.152C75.0781 7.17867 75.2394 7.22 75.3914 7.276C75.5434 7.32933 75.6847 7.39467 75.8154 7.472C75.9487 7.54667 76.0674 7.632 76.1714 7.728L75.8354 8.356ZM79.3611 10.428C79.3611 10.3293 79.3478 10.2333 79.3211 10.14C79.2971 10.0467 79.2558 9.964 79.1971 9.892C79.1411 9.81733 79.0664 9.75733 78.9731 9.712C78.8798 9.66667 78.7664 9.644 78.6331 9.644C78.3984 9.644 78.2144 9.712 78.0811 9.848C77.9478 9.98133 77.8598 10.1747 77.8171 10.428H79.3611ZM77.8011 11.148C77.8411 11.4947 77.9464 11.7467 78.1171 11.904C78.2878 12.0587 78.5078 12.136 78.7771 12.136C78.9211 12.136 79.0451 12.1187 79.1491 12.084C79.2531 12.0493 79.3451 12.0107 79.4251 11.968C79.5078 11.9253 79.5824 11.8867 79.6491 11.852C79.7184 11.8173 79.7904 11.8 79.8651 11.8C79.9638 11.8 80.0384 11.836 80.0891 11.908L80.4491 12.352C80.3211 12.4987 80.1824 12.6187 80.0331 12.712C79.8864 12.8027 79.7344 12.8747 79.5771 12.928C79.4224 12.9787 79.2664 13.0133 79.1091 13.032C78.9544 13.0533 78.8064 13.064 78.6651 13.064C78.3744 13.064 78.1011 13.0173 77.8451 12.924C77.5918 12.828 77.3691 12.6867 77.1771 12.5C76.9878 12.3133 76.8371 12.0813 76.7251 11.804C76.6158 11.5267 76.5611 11.204 76.5611 10.836C76.5611 10.5587 76.6078 10.296 76.7011 10.048C76.7971 9.8 76.9331 9.58267 77.1091 9.396C77.2878 9.20933 77.5024 9.06133 77.7531 8.952C78.0064 8.84267 78.2918 8.788 78.6091 8.788C78.8838 8.788 79.1344 8.83067 79.3611 8.916C79.5904 9.00133 79.7864 9.12533 79.9491 9.288C80.1144 9.45067 80.2424 9.65067 80.3331 9.888C80.4264 10.1227 80.4731 10.3893 80.4731 10.688C80.4731 10.7813 80.4691 10.8573 80.4611 10.916C80.4531 10.9747 80.4384 11.0213 80.4171 11.056C80.3958 11.0907 80.3664 11.1147 80.3291 11.128C80.2944 11.1413 80.2491 11.148 80.1931 11.148H77.8011ZM82.1176 9.3C82.1976 9.22533 82.2803 9.156 82.3656 9.092C82.4509 9.028 82.5416 8.97467 82.6376 8.932C82.7363 8.88667 82.8416 8.852 82.9536 8.828C83.0683 8.80133 83.1923 8.788 83.3256 8.788C83.5523 8.788 83.7523 8.828 83.9256 8.908C84.1016 8.98533 84.2496 9.09467 84.3696 9.236C84.4896 9.37467 84.5803 9.54133 84.6416 9.736C84.7029 9.928 84.7336 10.1373 84.7336 10.364V13H83.4936V10.364C83.4936 10.1613 83.4469 10.004 83.3536 9.892C83.2603 9.77733 83.1229 9.72 82.9416 9.72C82.8056 9.72 82.6776 9.74933 82.5576 9.808C82.4403 9.864 82.3256 9.94133 82.2136 10.04V13H80.9736V8.852H81.7416C81.8963 8.852 81.9976 8.92133 82.0456 9.06L82.1176 9.3ZM87.9321 9.964C87.8388 9.86 87.7374 9.788 87.6281 9.748C87.5188 9.70533 87.4041 9.684 87.2841 9.684C87.1694 9.684 87.0641 9.70667 86.9681 9.752C86.8721 9.79733 86.7881 9.87067 86.7161 9.972C86.6468 10.0707 86.5921 10.2 86.5521 10.36C86.5121 10.52 86.4921 10.7133 86.4921 10.94C86.4921 11.1587 86.5081 11.3427 86.5401 11.492C86.5721 11.6413 86.6161 11.7627 86.6721 11.856C86.7308 11.9467 86.8001 12.012 86.8801 12.052C86.9601 12.092 87.0494 12.112 87.1481 12.112C87.2388 12.112 87.3201 12.104 87.3921 12.088C87.4668 12.0693 87.5348 12.044 87.5961 12.012C87.6574 11.98 87.7148 11.94 87.7681 11.892C87.8241 11.8413 87.8788 11.784 87.9321 11.72V9.964ZM89.1721 7.012V13H88.4041C88.2494 13 88.1481 12.9307 88.1001 12.792L88.0041 12.476C87.9214 12.564 87.8348 12.644 87.7441 12.716C87.6534 12.788 87.5548 12.8507 87.4481 12.904C87.3441 12.9547 87.2308 12.9933 87.1081 13.02C86.9881 13.0493 86.8574 13.064 86.7161 13.064C86.5001 13.064 86.3001 13.016 86.1161 12.92C85.9321 12.824 85.7734 12.6853 85.6401 12.504C85.5068 12.3227 85.4014 12.1013 85.3241 11.84C85.2494 11.576 85.2121 11.276 85.2121 10.94C85.2121 10.6307 85.2548 10.344 85.3401 10.08C85.4254 9.81333 85.5454 9.584 85.7001 9.392C85.8574 9.19733 86.0454 9.04533 86.2641 8.936C86.4828 8.82667 86.7241 8.772 86.9881 8.772C87.2041 8.772 87.3854 8.80267 87.5321 8.864C87.6788 8.92533 87.8121 9.008 87.9321 9.112V7.012H89.1721ZM93.1054 10.416C92.9587 10.5387 92.8547 10.6707 92.7934 10.812C92.7321 10.9507 92.7014 11.0987 92.7014 11.256C92.7014 11.384 92.7201 11.5 92.7574 11.604C92.7974 11.708 92.8534 11.7973 92.9254 11.872C92.9974 11.9467 93.0827 12.0053 93.1814 12.048C93.2827 12.088 93.3947 12.108 93.5174 12.108C93.6961 12.108 93.8627 12.0853 94.0174 12.04C94.1721 11.992 94.3161 11.9253 94.4494 11.84L93.1054 10.416ZM97.0934 13H95.8694C95.8081 13 95.7534 12.9973 95.7054 12.992C95.6574 12.984 95.6121 12.972 95.5694 12.956C95.5294 12.94 95.4907 12.9173 95.4534 12.888C95.4161 12.8587 95.3761 12.8213 95.3334 12.776L95.0814 12.512C94.8281 12.688 94.5507 12.824 94.2494 12.92C93.9507 13.016 93.6321 13.064 93.2934 13.064C93.0614 13.064 92.8334 13.024 92.6094 12.944C92.3881 12.864 92.1907 12.7507 92.0174 12.604C91.8441 12.4547 91.7041 12.2747 91.5974 12.064C91.4907 11.8533 91.4374 11.6173 91.4374 11.356C91.4374 11.18 91.4641 11.0133 91.5174 10.856C91.5734 10.6987 91.6507 10.5533 91.7494 10.42C91.8507 10.284 91.9694 10.1613 92.1054 10.052C92.2414 9.94 92.3921 9.84267 92.5574 9.76C92.4294 9.56533 92.3374 9.37467 92.2814 9.188C92.2254 9.00133 92.1974 8.82 92.1974 8.644C92.1974 8.436 92.2347 8.24 92.3094 8.056C92.3867 7.86933 92.4974 7.70667 92.6414 7.568C92.7881 7.42667 92.9667 7.31467 93.1774 7.232C93.3907 7.14933 93.6347 7.108 93.9094 7.108C94.1681 7.108 94.3961 7.14667 94.5934 7.224C94.7907 7.29867 94.9574 7.39867 95.0934 7.524C95.2294 7.64667 95.3361 7.78933 95.4134 7.952C95.4907 8.11467 95.5387 8.28133 95.5574 8.452L94.7574 8.612C94.6161 8.644 94.5121 8.588 94.4454 8.444C94.3841 8.30533 94.3121 8.2 94.2294 8.128C94.1494 8.056 94.0427 8.02 93.9094 8.02C93.8161 8.02 93.7347 8.03733 93.6654 8.072C93.5961 8.10667 93.5374 8.152 93.4894 8.208C93.4441 8.264 93.4094 8.32933 93.3854 8.404C93.3614 8.47867 93.3494 8.556 93.3494 8.636C93.3494 8.70533 93.3547 8.772 93.3654 8.836C93.3787 8.89733 93.4001 8.96133 93.4294 9.028C93.4587 9.092 93.4974 9.15867 93.5454 9.228C93.5961 9.29733 93.6587 9.37333 93.7334 9.456L95.1734 10.972C95.2454 10.8147 95.3041 10.6493 95.3494 10.476C95.3947 10.3 95.4241 10.12 95.4374 9.936C95.4454 9.86133 95.4707 9.80267 95.5134 9.76C95.5561 9.71733 95.6134 9.696 95.6854 9.696H96.4694C96.4694 10.0827 96.4174 10.4453 96.3134 10.784C96.2094 11.1227 96.0627 11.432 95.8734 11.712L97.0934 13ZM76.5038 17.98H78.5758V20.44C78.2772 20.6587 77.9585 20.8173 77.6198 20.916C77.2838 21.0147 76.9318 21.064 76.5638 21.064C76.0838 21.064 75.6465 20.9893 75.2518 20.84C74.8598 20.688 74.5238 20.48 74.2438 20.216C73.9638 19.9493 73.7478 19.6347 73.5958 19.272C73.4438 18.9067 73.3678 18.5107 73.3678 18.084C73.3678 17.6493 73.4398 17.2507 73.5838 16.888C73.7278 16.5227 73.9332 16.208 74.1998 15.944C74.4692 15.68 74.7932 15.4747 75.1718 15.328C75.5532 15.1813 75.9785 15.108 76.4478 15.108C76.6905 15.108 76.9185 15.128 77.1318 15.168C77.3452 15.208 77.5412 15.2627 77.7198 15.332C77.9012 15.4013 78.0665 15.484 78.2158 15.58C78.3652 15.676 78.4985 15.78 78.6158 15.892L78.2238 16.488C78.1625 16.5813 78.0825 16.6387 77.9838 16.66C77.8878 16.6813 77.7838 16.6573 77.6718 16.588C77.5652 16.524 77.4638 16.4693 77.3678 16.424C77.2745 16.376 77.1785 16.3373 77.0798 16.308C76.9812 16.2787 76.8772 16.2573 76.7678 16.244C76.6585 16.2307 76.5358 16.224 76.3998 16.224C76.1465 16.224 75.9185 16.2693 75.7158 16.36C75.5132 16.448 75.3398 16.5733 75.1958 16.736C75.0545 16.8987 74.9452 17.0947 74.8678 17.324C74.7905 17.5507 74.7518 17.804 74.7518 18.084C74.7518 18.3933 74.7945 18.668 74.8798 18.908C74.9652 19.148 75.0852 19.3507 75.2398 19.516C75.3972 19.6813 75.5838 19.808 75.7998 19.896C76.0185 19.9813 76.2598 20.024 76.5238 20.024C76.6865 20.024 76.8332 20.008 76.9638 19.976C77.0972 19.944 77.2265 19.9013 77.3518 19.848V18.964H76.7758C76.6905 18.964 76.6238 18.9413 76.5758 18.896C76.5278 18.8507 76.5038 18.7933 76.5038 18.724V17.98ZM80.4611 15.012V21H79.2211V15.012H80.4611ZM83.0912 16.788C83.4059 16.788 83.6926 16.8373 83.9512 16.936C84.2099 17.0347 84.4312 17.176 84.6152 17.36C84.8019 17.544 84.9459 17.768 85.0472 18.032C85.1512 18.2933 85.2032 18.588 85.2032 18.916C85.2032 19.2467 85.1512 19.5453 85.0472 19.812C84.9459 20.076 84.8019 20.3013 84.6152 20.488C84.4312 20.672 84.2099 20.8147 83.9512 20.916C83.6926 21.0147 83.4059 21.064 83.0912 21.064C82.7739 21.064 82.4846 21.0147 82.2232 20.916C81.9646 20.8147 81.7406 20.672 81.5512 20.488C81.3646 20.3013 81.2192 20.076 81.1152 19.812C81.0139 19.5453 80.9632 19.2467 80.9632 18.916C80.9632 18.588 81.0139 18.2933 81.1152 18.032C81.2192 17.768 81.3646 17.544 81.5512 17.36C81.7406 17.176 81.9646 17.0347 82.2232 16.936C82.4846 16.8373 82.7739 16.788 83.0912 16.788ZM83.0912 20.144C83.3766 20.144 83.5859 20.044 83.7192 19.844C83.8552 19.6413 83.9232 19.3347 83.9232 18.924C83.9232 18.5133 83.8552 18.208 83.7192 18.008C83.5859 17.808 83.3766 17.708 83.0912 17.708C82.7979 17.708 82.5832 17.808 82.4472 18.008C82.3112 18.208 82.2432 18.5133 82.2432 18.924C82.2432 19.3347 82.3112 19.6413 82.4472 19.844C82.5832 20.044 82.7979 20.144 83.0912 20.144ZM86.9477 19.872C87.041 19.9733 87.1423 20.0453 87.2517 20.088C87.361 20.1307 87.4717 20.152 87.5837 20.152C87.701 20.152 87.809 20.1307 87.9077 20.088C88.0063 20.0427 88.0903 19.9707 88.1597 19.872C88.2317 19.7707 88.2877 19.6387 88.3277 19.476C88.3677 19.3107 88.3877 19.108 88.3877 18.868C88.3877 18.66 88.3717 18.484 88.3397 18.34C88.3103 18.1933 88.265 18.0747 88.2037 17.984C88.145 17.8907 88.0703 17.824 87.9797 17.784C87.8917 17.7413 87.7903 17.72 87.6757 17.72C87.5237 17.72 87.3917 17.7533 87.2797 17.82C87.1677 17.8867 87.057 17.984 86.9477 18.112V19.872ZM86.9477 17.292C87.1077 17.14 87.2823 17.0187 87.4717 16.928C87.6637 16.8347 87.877 16.788 88.1117 16.788C88.3463 16.788 88.5597 16.836 88.7517 16.932C88.9437 17.028 89.1077 17.1653 89.2437 17.344C89.3797 17.52 89.4837 17.7333 89.5557 17.984C89.6303 18.2347 89.6677 18.5147 89.6677 18.824C89.6677 19.16 89.625 19.4653 89.5397 19.74C89.4543 20.0147 89.333 20.2507 89.1757 20.448C89.021 20.6427 88.8357 20.7947 88.6197 20.904C88.4037 21.0107 88.165 21.064 87.9037 21.064C87.7783 21.064 87.6663 21.052 87.5677 21.028C87.469 21.004 87.3783 20.9707 87.2957 20.928C87.213 20.8827 87.137 20.8293 87.0677 20.768C87.001 20.7067 86.9357 20.64 86.8717 20.568L86.8277 20.776C86.8063 20.8613 86.7717 20.92 86.7237 20.952C86.6757 20.984 86.6117 21 86.5317 21H85.7077V15.012H86.9477V17.292ZM92.3214 19.312C92.0734 19.3227 91.8694 19.344 91.7094 19.376C91.5494 19.408 91.4227 19.448 91.3294 19.496C91.2361 19.544 91.1707 19.5987 91.1334 19.66C91.0987 19.7213 91.0814 19.788 91.0814 19.86C91.0814 20.0013 91.1201 20.1013 91.1974 20.16C91.2747 20.216 91.3881 20.244 91.5374 20.244C91.6974 20.244 91.8374 20.216 91.9574 20.16C92.0774 20.104 92.1987 20.0133 92.3214 19.888V19.312ZM90.0894 17.428C90.3401 17.2067 90.6174 17.0427 90.9214 16.936C91.2281 16.8267 91.5561 16.772 91.9054 16.772C92.1561 16.772 92.3814 16.8133 92.5814 16.896C92.7841 16.976 92.9547 17.0893 93.0934 17.236C93.2347 17.38 93.3427 17.552 93.4174 17.752C93.4921 17.952 93.5294 18.1707 93.5294 18.408V21H92.9614C92.8441 21 92.7547 20.984 92.6934 20.952C92.6347 20.92 92.5854 20.8533 92.5454 20.752L92.4574 20.524C92.3534 20.612 92.2534 20.6893 92.1574 20.756C92.0614 20.8227 91.9614 20.88 91.8574 20.928C91.7561 20.9733 91.6467 21.0067 91.5294 21.028C91.4147 21.052 91.2867 21.064 91.1454 21.064C90.9561 21.064 90.7841 21.04 90.6294 20.992C90.4747 20.9413 90.3427 20.868 90.2334 20.772C90.1267 20.676 90.0441 20.5573 89.9854 20.416C89.9267 20.272 89.8974 20.1067 89.8974 19.92C89.8974 19.7707 89.9347 19.62 90.0094 19.468C90.0841 19.3133 90.2134 19.1733 90.3974 19.048C90.5814 18.92 90.8294 18.8133 91.1414 18.728C91.4534 18.6427 91.8467 18.5947 92.3214 18.584V18.408C92.3214 18.1653 92.2707 17.9907 92.1694 17.884C92.0707 17.7747 91.9294 17.72 91.7454 17.72C91.5987 17.72 91.4787 17.736 91.3854 17.768C91.2921 17.8 91.2081 17.836 91.1334 17.876C91.0614 17.916 90.9907 17.952 90.9214 17.984C90.8521 18.016 90.7694 18.032 90.6734 18.032C90.5881 18.032 90.5161 18.0107 90.4574 17.968C90.3987 17.9253 90.3507 17.8747 90.3134 17.816L90.0894 17.428ZM95.442 15.012V21H94.202V15.012H95.442Z" fill="#B4B4B4"/>
<path opacity="0.5" d="M101.5 2H100.5V25H101.5V2Z" fill="black"/>
<path d="M116.842 14.772L116.302 13.176C116.262 13.0747 116.219 12.956 116.174 12.82C116.129 12.6813 116.083 12.532 116.038 12.372C115.998 12.5347 115.955 12.6853 115.91 12.824C115.865 12.9627 115.822 13.0827 115.782 13.184L115.246 14.772H116.842ZM118.99 17H117.942C117.825 17 117.73 16.9733 117.658 16.92C117.586 16.864 117.531 16.7933 117.494 16.708L117.15 15.692H114.934L114.59 16.708C114.561 16.7827 114.507 16.8507 114.43 16.912C114.355 16.9707 114.262 17 114.15 17H113.094L115.35 11.172H116.734L118.99 17ZM120.426 11.012V17H119.186V11.012H120.426ZM122.384 11.012V17H121.144V11.012H122.384Z" fill="#B4B4B4"/>
<path d="M2.5 1H132.5V0H2.5V1ZM134 2.5V24.5H135V2.5H134ZM132.5 26H2.5V27H132.5V26ZM1 24.5V2.5H0V24.5H1ZM2.5 26C1.67157 26 1 25.3284 1 24.5H0C0 25.8807 1.11929 27 2.5 27V26ZM134 24.5C134 25.3284 133.328 26 132.5 26V27C133.881 27 135 25.8807 135 24.5H134ZM132.5 1C133.328 1 134 1.67157 134 2.5H135C135 1.11929 133.881 0 132.5 0V1ZM2.5 0C1.11929 0 0 1.11929 0 2.5H1C1 1.67157 1.67157 1 2.5 1V0Z" fill="black"/>
<path d="M0.5 29.5C0.5 28.3954 1.39543 27.5 2.5 27.5H132.5C133.605 27.5 134.5 28.3954 134.5 29.5V51.5C134.5 52.6046 133.605 53.5 132.5 53.5H2.5C1.39543 53.5 0.5 52.6046 0.5 51.5V29.5Z" fill="#242424"/>
<path d="M17.8206 41.084C17.8206 41.5053 17.7472 41.8973 17.6006 42.26C17.4566 42.6227 17.2526 42.9387 16.9886 43.208C16.7246 43.4747 16.4059 43.684 16.0326 43.836C15.6619 43.988 15.2499 44.064 14.7966 44.064C14.3432 44.064 13.9299 43.988 13.5566 43.836C13.1832 43.684 12.8632 43.4747 12.5966 43.208C12.3326 42.9387 12.1272 42.6227 11.9806 42.26C11.8366 41.8973 11.7646 41.5053 11.7646 41.084C11.7646 40.6627 11.8366 40.2707 11.9806 39.908C12.1272 39.5453 12.3326 39.2307 12.5966 38.964C12.8632 38.6973 13.1832 38.488 13.5566 38.336C13.9299 38.184 14.3432 38.108 14.7966 38.108C15.2499 38.108 15.6619 38.1853 16.0326 38.34C16.4059 38.492 16.7246 38.7013 16.9886 38.968C17.2526 39.2347 17.4566 39.5493 17.6006 39.912C17.7472 40.2747 17.8206 40.6653 17.8206 41.084ZM16.4366 41.084C16.4366 40.796 16.3992 40.5373 16.3246 40.308C16.2499 40.076 16.1419 39.88 16.0006 39.72C15.8619 39.56 15.6912 39.4373 15.4886 39.352C15.2859 39.2667 15.0552 39.224 14.7966 39.224C14.5352 39.224 14.3019 39.2667 14.0966 39.352C13.8939 39.4373 13.7219 39.56 13.5806 39.72C13.4419 39.88 13.3352 40.076 13.2606 40.308C13.1859 40.5373 13.1486 40.796 13.1486 41.084C13.1486 41.3747 13.1859 41.636 13.2606 41.868C13.3352 42.0973 13.4419 42.292 13.5806 42.452C13.7219 42.612 13.8939 42.7347 14.0966 42.82C14.3019 42.9027 14.5352 42.944 14.7966 42.944C15.0552 42.944 15.2859 42.9027 15.4886 42.82C15.6912 42.7347 15.8619 42.612 16.0006 42.452C16.1419 42.292 16.2499 42.0973 16.3246 41.868C16.3992 41.636 16.4366 41.3747 16.4366 41.084ZM18.6055 44V40.704L18.3335 40.648C18.2402 40.6267 18.1642 40.5933 18.1055 40.548C18.0495 40.5027 18.0215 40.436 18.0215 40.348V39.86H18.6055V39.704C18.6055 39.4667 18.6428 39.252 18.7175 39.06C18.7948 38.8653 18.9042 38.7 19.0455 38.564C19.1895 38.428 19.3642 38.324 19.5695 38.252C19.7748 38.1773 20.0082 38.14 20.2695 38.14C20.3708 38.14 20.4642 38.1467 20.5495 38.16C20.6348 38.1707 20.7242 38.188 20.8175 38.212L20.7935 38.816C20.7882 38.9013 20.7522 38.9613 20.6855 38.996C20.6215 39.028 20.5548 39.044 20.4855 39.044C20.3762 39.044 20.2788 39.0547 20.1935 39.076C20.1082 39.0973 20.0362 39.1347 19.9775 39.188C19.9215 39.2413 19.8788 39.3133 19.8495 39.404C19.8202 39.492 19.8055 39.604 19.8055 39.74V39.86H21.2615V39.548C21.2615 39.3107 21.2988 39.096 21.3735 38.904C21.4508 38.712 21.5602 38.548 21.7015 38.412C21.8455 38.276 22.0202 38.1707 22.2255 38.096C22.4308 38.0213 22.6642 37.984 22.9255 37.984C23.0268 37.984 23.1202 37.9907 23.2055 38.004C23.2908 38.0147 23.3802 38.0333 23.4735 38.06L23.4495 38.664C23.4468 38.7067 23.4362 38.7427 23.4175 38.772C23.3988 38.7987 23.3735 38.8213 23.3415 38.84C23.3122 38.856 23.2802 38.868 23.2455 38.876C23.2108 38.884 23.1762 38.888 23.1415 38.888C23.0322 38.888 22.9348 38.8987 22.8495 38.92C22.7642 38.9413 22.6922 38.98 22.6335 39.036C22.5775 39.0893 22.5348 39.1613 22.5055 39.252C22.4762 39.34 22.4615 39.452 22.4615 39.588V39.86H23.4335V40.708H22.5015V44H21.2615V40.708H19.8455V44H18.6055Z" fill="#B4B4B4"/>
<g opacity="0.75">
<rect x="33.5" y="52" width="23" height="1" transform="rotate(-90 33.5 52)" fill="black"/>
</g>
<rect x="36" y="29.5" width="30" height="22" rx="1" fill="#FF9000"/>
<rect x="36" y="29.5" width="30" height="22" rx="1" stroke="#FF9000"/>
<path d="M46.0148 39.356C45.9748 39.42 45.9321 39.468 45.8868 39.5C45.8441 39.532 45.7881 39.548 45.7188 39.548C45.6574 39.548 45.5908 39.5293 45.5188 39.492C45.4494 39.452 45.3694 39.408 45.2788 39.36C45.1908 39.312 45.0894 39.2693 44.9748 39.232C44.8601 39.192 44.7294 39.172 44.5828 39.172C44.3294 39.172 44.1401 39.2267 44.0148 39.336C43.8921 39.4427 43.8308 39.588 43.8308 39.772C43.8308 39.8893 43.8681 39.9867 43.9428 40.064C44.0174 40.1413 44.1148 40.208 44.2348 40.264C44.3574 40.32 44.4961 40.372 44.6508 40.42C44.8081 40.4653 44.9681 40.5173 45.1308 40.576C45.2934 40.632 45.4521 40.6987 45.6068 40.776C45.7641 40.8533 45.9028 40.952 46.0228 41.072C46.1454 41.192 46.2441 41.3387 46.3188 41.512C46.3934 41.6827 46.4308 41.8893 46.4308 42.132C46.4308 42.4013 46.3841 42.6533 46.2908 42.888C46.1974 43.1227 46.0614 43.328 45.8828 43.504C45.7068 43.6773 45.4881 43.8147 45.2268 43.916C44.9681 44.0147 44.6734 44.064 44.3428 44.064C44.1614 44.064 43.9761 44.0453 43.7868 44.008C43.6001 43.9707 43.4188 43.9187 43.2428 43.852C43.0668 43.7827 42.9014 43.7013 42.7468 43.608C42.5921 43.5147 42.4574 43.4107 42.3428 43.296L42.7428 42.664C42.7748 42.6187 42.8161 42.5813 42.8668 42.552C42.9201 42.52 42.9774 42.504 43.0388 42.504C43.1188 42.504 43.1988 42.5293 43.2788 42.58C43.3614 42.6307 43.4534 42.6867 43.5548 42.748C43.6588 42.8093 43.7774 42.8653 43.9108 42.916C44.0441 42.9667 44.2014 42.992 44.3828 42.992C44.6281 42.992 44.8188 42.9387 44.9548 42.832C45.0908 42.7227 45.1588 42.5507 45.1588 42.316C45.1588 42.18 45.1214 42.0693 45.0468 41.984C44.9721 41.8987 44.8734 41.828 44.7508 41.772C44.6308 41.716 44.4934 41.6667 44.3388 41.624C44.1841 41.5813 44.0254 41.5347 43.8628 41.484C43.7001 41.4307 43.5414 41.3667 43.3868 41.292C43.2321 41.2147 43.0934 41.1147 42.9708 40.992C42.8508 40.8667 42.7534 40.712 42.6788 40.528C42.6041 40.3413 42.5668 40.112 42.5668 39.84C42.5668 39.6213 42.6108 39.408 42.6988 39.2C42.7868 38.992 42.9161 38.8067 43.0868 38.644C43.2574 38.4813 43.4668 38.352 43.7148 38.256C43.9628 38.1573 44.2468 38.108 44.5668 38.108C44.7454 38.108 44.9188 38.1227 45.0868 38.152C45.2574 38.1787 45.4188 38.22 45.5708 38.276C45.7228 38.3293 45.8641 38.3947 45.9948 38.472C46.1281 38.5467 46.2468 38.632 46.3508 38.728L46.0148 39.356ZM49.5405 41.428C49.5405 41.3293 49.5271 41.2333 49.5005 41.14C49.4765 41.0467 49.4351 40.964 49.3765 40.892C49.3205 40.8173 49.2458 40.7573 49.1525 40.712C49.0591 40.6667 48.9458 40.644 48.8125 40.644C48.5778 40.644 48.3938 40.712 48.2605 40.848C48.1271 40.9813 48.0391 41.1747 47.9965 41.428H49.5405ZM47.9805 42.148C48.0205 42.4947 48.1258 42.7467 48.2965 42.904C48.4671 43.0587 48.6871 43.136 48.9565 43.136C49.1005 43.136 49.2245 43.1187 49.3285 43.084C49.4325 43.0493 49.5245 43.0107 49.6045 42.968C49.6871 42.9253 49.7618 42.8867 49.8285 42.852C49.8978 42.8173 49.9698 42.8 50.0445 42.8C50.1431 42.8 50.2178 42.836 50.2685 42.908L50.6285 43.352C50.5005 43.4987 50.3618 43.6187 50.2125 43.712C50.0658 43.8027 49.9138 43.8747 49.7565 43.928C49.6018 43.9787 49.4458 44.0133 49.2885 44.032C49.1338 44.0533 48.9858 44.064 48.8445 44.064C48.5538 44.064 48.2805 44.0173 48.0245 43.924C47.7711 43.828 47.5485 43.6867 47.3565 43.5C47.1671 43.3133 47.0165 43.0813 46.9045 42.804C46.7951 42.5267 46.7405 42.204 46.7405 41.836C46.7405 41.5587 46.7871 41.296 46.8805 41.048C46.9765 40.8 47.1125 40.5827 47.2885 40.396C47.4671 40.2093 47.6818 40.0613 47.9325 39.952C48.1858 39.8427 48.4711 39.788 48.7885 39.788C49.0631 39.788 49.3138 39.8307 49.5405 39.916C49.7698 40.0013 49.9658 40.1253 50.1285 40.288C50.2938 40.4507 50.4218 40.6507 50.5125 40.888C50.6058 41.1227 50.6525 41.3893 50.6525 41.688C50.6525 41.7813 50.6485 41.8573 50.6405 41.916C50.6325 41.9747 50.6178 42.0213 50.5965 42.056C50.5751 42.0907 50.5458 42.1147 50.5085 42.128C50.4738 42.1413 50.4285 42.148 50.3725 42.148H47.9805ZM52.297 40.3C52.377 40.2253 52.4596 40.156 52.545 40.092C52.6303 40.028 52.721 39.9747 52.817 39.932C52.9156 39.8867 53.021 39.852 53.133 39.828C53.2476 39.8013 53.3716 39.788 53.505 39.788C53.7316 39.788 53.9316 39.828 54.105 39.908C54.281 39.9853 54.429 40.0947 54.549 40.236C54.669 40.3747 54.7596 40.5413 54.821 40.736C54.8823 40.928 54.913 41.1373 54.913 41.364V44H53.673V41.364C53.673 41.1613 53.6263 41.004 53.533 40.892C53.4396 40.7773 53.3023 40.72 53.121 40.72C52.985 40.72 52.857 40.7493 52.737 40.808C52.6196 40.864 52.505 40.9413 52.393 41.04V44H51.153V39.852H51.921C52.0756 39.852 52.177 39.9213 52.225 40.06L52.297 40.3ZM58.1115 40.964C58.0181 40.86 57.9168 40.788 57.8075 40.748C57.6981 40.7053 57.5835 40.684 57.4635 40.684C57.3488 40.684 57.2435 40.7067 57.1475 40.752C57.0515 40.7973 56.9675 40.8707 56.8955 40.972C56.8261 41.0707 56.7715 41.2 56.7315 41.36C56.6915 41.52 56.6715 41.7133 56.6715 41.94C56.6715 42.1587 56.6875 42.3427 56.7195 42.492C56.7515 42.6413 56.7955 42.7627 56.8515 42.856C56.9101 42.9467 56.9795 43.012 57.0595 43.052C57.1395 43.092 57.2288 43.112 57.3275 43.112C57.4181 43.112 57.4995 43.104 57.5715 43.088C57.6461 43.0693 57.7141 43.044 57.7755 43.012C57.8368 42.98 57.8941 42.94 57.9475 42.892C58.0035 42.8413 58.0581 42.784 58.1115 42.72V40.964ZM59.3515 38.012V44H58.5835C58.4288 44 58.3275 43.9307 58.2795 43.792L58.1835 43.476C58.1008 43.564 58.0141 43.644 57.9235 43.716C57.8328 43.788 57.7341 43.8507 57.6275 43.904C57.5235 43.9547 57.4101 43.9933 57.2875 44.02C57.1675 44.0493 57.0368 44.064 56.8955 44.064C56.6795 44.064 56.4795 44.016 56.2955 43.92C56.1115 43.824 55.9528 43.6853 55.8195 43.504C55.6861 43.3227 55.5808 43.1013 55.5035 42.84C55.4288 42.576 55.3915 42.276 55.3915 41.94C55.3915 41.6307 55.4341 41.344 55.5195 41.08C55.6048 40.8133 55.7248 40.584 55.8795 40.392C56.0368 40.1973 56.2248 40.0453 56.4435 39.936C56.6621 39.8267 56.9035 39.772 57.1675 39.772C57.3835 39.772 57.5648 39.8027 57.7115 39.864C57.8581 39.9253 57.9915 40.008 58.1115 40.112V38.012H59.3515Z" fill="black"/>
<g opacity="0.75">
<rect x="67" y="52" width="23" height="1" transform="rotate(-90 67 52)" fill="black"/>
</g>
<path d="M75.8354 35.356C75.7954 35.42 75.7527 35.468 75.7074 35.5C75.6647 35.532 75.6087 35.548 75.5394 35.548C75.4781 35.548 75.4114 35.5293 75.3394 35.492C75.2701 35.452 75.1901 35.408 75.0994 35.36C75.0114 35.312 74.9101 35.2693 74.7954 35.232C74.6807 35.192 74.5501 35.172 74.4034 35.172C74.1501 35.172 73.9607 35.2267 73.8354 35.336C73.7127 35.4427 73.6514 35.588 73.6514 35.772C73.6514 35.8893 73.6887 35.9867 73.7634 36.064C73.8381 36.1413 73.9354 36.208 74.0554 36.264C74.1781 36.32 74.3167 36.372 74.4714 36.42C74.6287 36.4653 74.7887 36.5173 74.9514 36.576C75.1141 36.632 75.2727 36.6987 75.4274 36.776C75.5847 36.8533 75.7234 36.952 75.8434 37.072C75.9661 37.192 76.0647 37.3387 76.1394 37.512C76.2141 37.6827 76.2514 37.8893 76.2514 38.132C76.2514 38.4013 76.2047 38.6533 76.1114 38.888C76.0181 39.1227 75.8821 39.328 75.7034 39.504C75.5274 39.6773 75.3087 39.8147 75.0474 39.916C74.7887 40.0147 74.4941 40.064 74.1634 40.064C73.9821 40.064 73.7967 40.0453 73.6074 40.008C73.4207 39.9707 73.2394 39.9187 73.0634 39.852C72.8874 39.7827 72.7221 39.7013 72.5674 39.608C72.4127 39.5147 72.2781 39.4107 72.1634 39.296L72.5634 38.664C72.5954 38.6187 72.6367 38.5813 72.6874 38.552C72.7407 38.52 72.7981 38.504 72.8594 38.504C72.9394 38.504 73.0194 38.5293 73.0994 38.58C73.1821 38.6307 73.2741 38.6867 73.3754 38.748C73.4794 38.8093 73.5981 38.8653 73.7314 38.916C73.8647 38.9667 74.0221 38.992 74.2034 38.992C74.4487 38.992 74.6394 38.9387 74.7754 38.832C74.9114 38.7227 74.9794 38.5507 74.9794 38.316C74.9794 38.18 74.9421 38.0693 74.8674 37.984C74.7927 37.8987 74.6941 37.828 74.5714 37.772C74.4514 37.716 74.3141 37.6667 74.1594 37.624C74.0047 37.5813 73.8461 37.5347 73.6834 37.484C73.5207 37.4307 73.3621 37.3667 73.2074 37.292C73.0527 37.2147 72.9141 37.1147 72.7914 36.992C72.6714 36.8667 72.5741 36.712 72.4994 36.528C72.4247 36.3413 72.3874 36.112 72.3874 35.84C72.3874 35.6213 72.4314 35.408 72.5194 35.2C72.6074 34.992 72.7367 34.8067 72.9074 34.644C73.0781 34.4813 73.2874 34.352 73.5354 34.256C73.7834 34.1573 74.0674 34.108 74.3874 34.108C74.5661 34.108 74.7394 34.1227 74.9074 34.152C75.0781 34.1787 75.2394 34.22 75.3914 34.276C75.5434 34.3293 75.6847 34.3947 75.8154 34.472C75.9487 34.5467 76.0674 34.632 76.1714 34.728L75.8354 35.356ZM79.3611 37.428C79.3611 37.3293 79.3478 37.2333 79.3211 37.14C79.2971 37.0467 79.2558 36.964 79.1971 36.892C79.1411 36.8173 79.0664 36.7573 78.9731 36.712C78.8798 36.6667 78.7664 36.644 78.6331 36.644C78.3984 36.644 78.2144 36.712 78.0811 36.848C77.9478 36.9813 77.8598 37.1747 77.8171 37.428H79.3611ZM77.8011 38.148C77.8411 38.4947 77.9464 38.7467 78.1171 38.904C78.2878 39.0587 78.5078 39.136 78.7771 39.136C78.9211 39.136 79.0451 39.1187 79.1491 39.084C79.2531 39.0493 79.3451 39.0107 79.4251 38.968C79.5078 38.9253 79.5824 38.8867 79.6491 38.852C79.7184 38.8173 79.7904 38.8 79.8651 38.8C79.9638 38.8 80.0384 38.836 80.0891 38.908L80.4491 39.352C80.3211 39.4987 80.1824 39.6187 80.0331 39.712C79.8864 39.8027 79.7344 39.8747 79.5771 39.928C79.4224 39.9787 79.2664 40.0133 79.1091 40.032C78.9544 40.0533 78.8064 40.064 78.6651 40.064C78.3744 40.064 78.1011 40.0173 77.8451 39.924C77.5918 39.828 77.3691 39.6867 77.1771 39.5C76.9878 39.3133 76.8371 39.0813 76.7251 38.804C76.6158 38.5267 76.5611 38.204 76.5611 37.836C76.5611 37.5587 76.6078 37.296 76.7011 37.048C76.7971 36.8 76.9331 36.5827 77.1091 36.396C77.2878 36.2093 77.5024 36.0613 77.7531 35.952C78.0064 35.8427 78.2918 35.788 78.6091 35.788C78.8838 35.788 79.1344 35.8307 79.3611 35.916C79.5904 36.0013 79.7864 36.1253 79.9491 36.288C80.1144 36.4507 80.2424 36.6507 80.3331 36.888C80.4264 37.1227 80.4731 37.3893 80.4731 37.688C80.4731 37.7813 80.4691 37.8573 80.4611 37.916C80.4531 37.9747 80.4384 38.0213 80.4171 38.056C80.3958 38.0907 80.3664 38.1147 80.3291 38.128C80.2944 38.1413 80.2491 38.148 80.1931 38.148H77.8011ZM82.1176 36.3C82.1976 36.2253 82.2803 36.156 82.3656 36.092C82.4509 36.028 82.5416 35.9747 82.6376 35.932C82.7363 35.8867 82.8416 35.852 82.9536 35.828C83.0683 35.8013 83.1923 35.788 83.3256 35.788C83.5523 35.788 83.7523 35.828 83.9256 35.908C84.1016 35.9853 84.2496 36.0947 84.3696 36.236C84.4896 36.3747 84.5803 36.5413 84.6416 36.736C84.7029 36.928 84.7336 37.1373 84.7336 37.364V40H83.4936V37.364C83.4936 37.1613 83.4469 37.004 83.3536 36.892C83.2603 36.7773 83.1229 36.72 82.9416 36.72C82.8056 36.72 82.6776 36.7493 82.5576 36.808C82.4403 36.864 82.3256 36.9413 82.2136 37.04V40H80.9736V35.852H81.7416C81.8963 35.852 81.9976 35.9213 82.0456 36.06L82.1176 36.3ZM87.9321 36.964C87.8388 36.86 87.7374 36.788 87.6281 36.748C87.5188 36.7053 87.4041 36.684 87.2841 36.684C87.1694 36.684 87.0641 36.7067 86.9681 36.752C86.8721 36.7973 86.7881 36.8707 86.7161 36.972C86.6468 37.0707 86.5921 37.2 86.5521 37.36C86.5121 37.52 86.4921 37.7133 86.4921 37.94C86.4921 38.1587 86.5081 38.3427 86.5401 38.492C86.5721 38.6413 86.6161 38.7627 86.6721 38.856C86.7308 38.9467 86.8001 39.012 86.8801 39.052C86.9601 39.092 87.0494 39.112 87.1481 39.112C87.2388 39.112 87.3201 39.104 87.3921 39.088C87.4668 39.0693 87.5348 39.044 87.5961 39.012C87.6574 38.98 87.7148 38.94 87.7681 38.892C87.8241 38.8413 87.8788 38.784 87.9321 38.72V36.964ZM89.1721 34.012V40H88.4041C88.2494 40 88.1481 39.9307 88.1001 39.792L88.0041 39.476C87.9214 39.564 87.8348 39.644 87.7441 39.716C87.6534 39.788 87.5548 39.8507 87.4481 39.904C87.3441 39.9547 87.2308 39.9933 87.1081 40.02C86.9881 40.0493 86.8574 40.064 86.7161 40.064C86.5001 40.064 86.3001 40.016 86.1161 39.92C85.9321 39.824 85.7734 39.6853 85.6401 39.504C85.5068 39.3227 85.4014 39.1013 85.3241 38.84C85.2494 38.576 85.2121 38.276 85.2121 37.94C85.2121 37.6307 85.2548 37.344 85.3401 37.08C85.4254 36.8133 85.5454 36.584 85.7001 36.392C85.8574 36.1973 86.0454 36.0453 86.2641 35.936C86.4828 35.8267 86.7241 35.772 86.9881 35.772C87.2041 35.772 87.3854 35.8027 87.5321 35.864C87.6788 35.9253 87.8121 36.008 87.9321 36.112V34.012H89.1721ZM93.1054 37.416C92.9587 37.5387 92.8547 37.6707 92.7934 37.812C92.7321 37.9507 92.7014 38.0987 92.7014 38.256C92.7014 38.384 92.7201 38.5 92.7574 38.604C92.7974 38.708 92.8534 38.7973 92.9254 38.872C92.9974 38.9467 93.0827 39.0053 93.1814 39.048C93.2827 39.088 93.3947 39.108 93.5174 39.108C93.6961 39.108 93.8627 39.0853 94.0174 39.04C94.1721 38.992 94.3161 38.9253 94.4494 38.84L93.1054 37.416ZM97.0934 40H95.8694C95.8081 40 95.7534 39.9973 95.7054 39.992C95.6574 39.984 95.6121 39.972 95.5694 39.956C95.5294 39.94 95.4907 39.9173 95.4534 39.888C95.4161 39.8587 95.3761 39.8213 95.3334 39.776L95.0814 39.512C94.8281 39.688 94.5507 39.824 94.2494 39.92C93.9507 40.016 93.6321 40.064 93.2934 40.064C93.0614 40.064 92.8334 40.024 92.6094 39.944C92.3881 39.864 92.1907 39.7507 92.0174 39.604C91.8441 39.4547 91.7041 39.2747 91.5974 39.064C91.4907 38.8533 91.4374 38.6173 91.4374 38.356C91.4374 38.18 91.4641 38.0133 91.5174 37.856C91.5734 37.6987 91.6507 37.5533 91.7494 37.42C91.8507 37.284 91.9694 37.1613 92.1054 37.052C92.2414 36.94 92.3921 36.8427 92.5574 36.76C92.4294 36.5653 92.3374 36.3747 92.2814 36.188C92.2254 36.0013 92.1974 35.82 92.1974 35.644C92.1974 35.436 92.2347 35.24 92.3094 35.056C92.3867 34.8693 92.4974 34.7067 92.6414 34.568C92.7881 34.4267 92.9667 34.3147 93.1774 34.232C93.3907 34.1493 93.6347 34.108 93.9094 34.108C94.1681 34.108 94.3961 34.1467 94.5934 34.224C94.7907 34.2987 94.9574 34.3987 95.0934 34.524C95.2294 34.6467 95.3361 34.7893 95.4134 34.952C95.4907 35.1147 95.5387 35.2813 95.5574 35.452L94.7574 35.612C94.6161 35.644 94.5121 35.588 94.4454 35.444C94.3841 35.3053 94.3121 35.2 94.2294 35.128C94.1494 35.056 94.0427 35.02 93.9094 35.02C93.8161 35.02 93.7347 35.0373 93.6654 35.072C93.5961 35.1067 93.5374 35.152 93.4894 35.208C93.4441 35.264 93.4094 35.3293 93.3854 35.404C93.3614 35.4787 93.3494 35.556 93.3494 35.636C93.3494 35.7053 93.3547 35.772 93.3654 35.836C93.3787 35.8973 93.4001 35.9613 93.4294 36.028C93.4587 36.092 93.4974 36.1587 93.5454 36.228C93.5961 36.2973 93.6587 36.3733 93.7334 36.456L95.1734 37.972C95.2454 37.8147 95.3041 37.6493 95.3494 37.476C95.3947 37.3 95.4241 37.12 95.4374 36.936C95.4454 36.8613 95.4707 36.8027 95.5134 36.76C95.5561 36.7173 95.6134 36.696 95.6854 36.696H96.4694C96.4694 37.0827 96.4174 37.4453 96.3134 37.784C96.2094 38.1227 96.0627 38.432 95.8734 38.712L97.0934 40ZM76.5038 44.98H78.5758V47.44C78.2772 47.6587 77.9585 47.8173 77.6198 47.916C77.2838 48.0147 76.9318 48.064 76.5638 48.064C76.0838 48.064 75.6465 47.9893 75.2518 47.84C74.8598 47.688 74.5238 47.48 74.2438 47.216C73.9638 46.9493 73.7478 46.6347 73.5958 46.272C73.4438 45.9067 73.3678 45.5107 73.3678 45.084C73.3678 44.6493 73.4398 44.2507 73.5838 43.888C73.7278 43.5227 73.9332 43.208 74.1998 42.944C74.4692 42.68 74.7932 42.4747 75.1718 42.328C75.5532 42.1813 75.9785 42.108 76.4478 42.108C76.6905 42.108 76.9185 42.128 77.1318 42.168C77.3452 42.208 77.5412 42.2627 77.7198 42.332C77.9012 42.4013 78.0665 42.484 78.2158 42.58C78.3652 42.676 78.4985 42.78 78.6158 42.892L78.2238 43.488C78.1625 43.5813 78.0825 43.6387 77.9838 43.66C77.8878 43.6813 77.7838 43.6573 77.6718 43.588C77.5652 43.524 77.4638 43.4693 77.3678 43.424C77.2745 43.376 77.1785 43.3373 77.0798 43.308C76.9812 43.2787 76.8772 43.2573 76.7678 43.244C76.6585 43.2307 76.5358 43.224 76.3998 43.224C76.1465 43.224 75.9185 43.2693 75.7158 43.36C75.5132 43.448 75.3398 43.5733 75.1958 43.736C75.0545 43.8987 74.9452 44.0947 74.8678 44.324C74.7905 44.5507 74.7518 44.804 74.7518 45.084C74.7518 45.3933 74.7945 45.668 74.8798 45.908C74.9652 46.148 75.0852 46.3507 75.2398 46.516C75.3972 46.6813 75.5838 46.808 75.7998 46.896C76.0185 46.9813 76.2598 47.024 76.5238 47.024C76.6865 47.024 76.8332 47.008 76.9638 46.976C77.0972 46.944 77.2265 46.9013 77.3518 46.848V45.964H76.7758C76.6905 45.964 76.6238 45.9413 76.5758 45.896C76.5278 45.8507 76.5038 45.7933 76.5038 45.724V44.98ZM80.4611 42.012V48H79.2211V42.012H80.4611ZM83.0912 43.788C83.4059 43.788 83.6926 43.8373 83.9512 43.936C84.2099 44.0347 84.4312 44.176 84.6152 44.36C84.8019 44.544 84.9459 44.768 85.0472 45.032C85.1512 45.2933 85.2032 45.588 85.2032 45.916C85.2032 46.2467 85.1512 46.5453 85.0472 46.812C84.9459 47.076 84.8019 47.3013 84.6152 47.488C84.4312 47.672 84.2099 47.8147 83.9512 47.916C83.6926 48.0147 83.4059 48.064 83.0912 48.064C82.7739 48.064 82.4846 48.0147 82.2232 47.916C81.9646 47.8147 81.7406 47.672 81.5512 47.488C81.3646 47.3013 81.2192 47.076 81.1152 46.812C81.0139 46.5453 80.9632 46.2467 80.9632 45.916C80.9632 45.588 81.0139 45.2933 81.1152 45.032C81.2192 44.768 81.3646 44.544 81.5512 44.36C81.7406 44.176 81.9646 44.0347 82.2232 43.936C82.4846 43.8373 82.7739 43.788 83.0912 43.788ZM83.0912 47.144C83.3766 47.144 83.5859 47.044 83.7192 46.844C83.8552 46.6413 83.9232 46.3347 83.9232 45.924C83.9232 45.5133 83.8552 45.208 83.7192 45.008C83.5859 44.808 83.3766 44.708 83.0912 44.708C82.7979 44.708 82.5832 44.808 82.4472 45.008C82.3112 45.208 82.2432 45.5133 82.2432 45.924C82.2432 46.3347 82.3112 46.6413 82.4472 46.844C82.5832 47.044 82.7979 47.144 83.0912 47.144ZM86.9477 46.872C87.041 46.9733 87.1423 47.0453 87.2517 47.088C87.361 47.1307 87.4717 47.152 87.5837 47.152C87.701 47.152 87.809 47.1307 87.9077 47.088C88.0063 47.0427 88.0903 46.9707 88.1597 46.872C88.2317 46.7707 88.2877 46.6387 88.3277 46.476C88.3677 46.3107 88.3877 46.108 88.3877 45.868C88.3877 45.66 88.3717 45.484 88.3397 45.34C88.3103 45.1933 88.265 45.0747 88.2037 44.984C88.145 44.8907 88.0703 44.824 87.9797 44.784C87.8917 44.7413 87.7903 44.72 87.6757 44.72C87.5237 44.72 87.3917 44.7533 87.2797 44.82C87.1677 44.8867 87.057 44.984 86.9477 45.112V46.872ZM86.9477 44.292C87.1077 44.14 87.2823 44.0187 87.4717 43.928C87.6637 43.8347 87.877 43.788 88.1117 43.788C88.3463 43.788 88.5597 43.836 88.7517 43.932C88.9437 44.028 89.1077 44.1653 89.2437 44.344C89.3797 44.52 89.4837 44.7333 89.5557 44.984C89.6303 45.2347 89.6677 45.5147 89.6677 45.824C89.6677 46.16 89.625 46.4653 89.5397 46.74C89.4543 47.0147 89.333 47.2507 89.1757 47.448C89.021 47.6427 88.8357 47.7947 88.6197 47.904C88.4037 48.0107 88.165 48.064 87.9037 48.064C87.7783 48.064 87.6663 48.052 87.5677 48.028C87.469 48.004 87.3783 47.9707 87.2957 47.928C87.213 47.8827 87.137 47.8293 87.0677 47.768C87.001 47.7067 86.9357 47.64 86.8717 47.568L86.8277 47.776C86.8063 47.8613 86.7717 47.92 86.7237 47.952C86.6757 47.984 86.6117 48 86.5317 48H85.7077V42.012H86.9477V44.292ZM92.3214 46.312C92.0734 46.3227 91.8694 46.344 91.7094 46.376C91.5494 46.408 91.4227 46.448 91.3294 46.496C91.2361 46.544 91.1707 46.5987 91.1334 46.66C91.0987 46.7213 91.0814 46.788 91.0814 46.86C91.0814 47.0013 91.1201 47.1013 91.1974 47.16C91.2747 47.216 91.3881 47.244 91.5374 47.244C91.6974 47.244 91.8374 47.216 91.9574 47.16C92.0774 47.104 92.1987 47.0133 92.3214 46.888V46.312ZM90.0894 44.428C90.3401 44.2067 90.6174 44.0427 90.9214 43.936C91.2281 43.8267 91.5561 43.772 91.9054 43.772C92.1561 43.772 92.3814 43.8133 92.5814 43.896C92.7841 43.976 92.9547 44.0893 93.0934 44.236C93.2347 44.38 93.3427 44.552 93.4174 44.752C93.4921 44.952 93.5294 45.1707 93.5294 45.408V48H92.9614C92.8441 48 92.7547 47.984 92.6934 47.952C92.6347 47.92 92.5854 47.8533 92.5454 47.752L92.4574 47.524C92.3534 47.612 92.2534 47.6893 92.1574 47.756C92.0614 47.8227 91.9614 47.88 91.8574 47.928C91.7561 47.9733 91.6467 48.0067 91.5294 48.028C91.4147 48.052 91.2867 48.064 91.1454 48.064C90.9561 48.064 90.7841 48.04 90.6294 47.992C90.4747 47.9413 90.3427 47.868 90.2334 47.772C90.1267 47.676 90.0441 47.5573 89.9854 47.416C89.9267 47.272 89.8974 47.1067 89.8974 46.92C89.8974 46.7707 89.9347 46.62 90.0094 46.468C90.0841 46.3133 90.2134 46.1733 90.3974 46.048C90.5814 45.92 90.8294 45.8133 91.1414 45.728C91.4534 45.6427 91.8467 45.5947 92.3214 45.584V45.408C92.3214 45.1653 92.2707 44.9907 92.1694 44.884C92.0707 44.7747 91.9294 44.72 91.7454 44.72C91.5987 44.72 91.4787 44.736 91.3854 44.768C91.2921 44.8 91.2081 44.836 91.1334 44.876C91.0614 44.916 90.9907 44.952 90.9214 44.984C90.8521 45.016 90.7694 45.032 90.6734 45.032C90.5881 45.032 90.5161 45.0107 90.4574 44.968C90.3987 44.9253 90.3507 44.8747 90.3134 44.816L90.0894 44.428ZM95.442 42.012V48H94.202V42.012H95.442Z" fill="#B4B4B4"/>
<path opacity="0.5" d="M101.5 29H100.5V52H101.5V29Z" fill="black"/>
<path d="M116.842 41.772L116.302 40.176C116.262 40.0747 116.219 39.956 116.174 39.82C116.129 39.6813 116.083 39.532 116.038 39.372C115.998 39.5347 115.955 39.6853 115.91 39.824C115.865 39.9627 115.822 40.0827 115.782 40.184L115.246 41.772H116.842ZM118.99 44H117.942C117.825 44 117.73 43.9733 117.658 43.92C117.586 43.864 117.531 43.7933 117.494 43.708L117.15 42.692H114.934L114.59 43.708C114.561 43.7827 114.507 43.8507 114.43 43.912C114.355 43.9707 114.262 44 114.15 44H113.094L115.35 38.172H116.734L118.99 44ZM120.426 38.012V44H119.186V38.012H120.426ZM122.384 38.012V44H121.144V38.012H122.384Z" fill="#B4B4B4"/>
<path d="M2.5 28H132.5V27H2.5V28ZM134 29.5V51.5H135V29.5H134ZM132.5 53H2.5V54H132.5V53ZM1 51.5V29.5H0V51.5H1ZM2.5 53C1.67157 53 1 52.3284 1 51.5H0C0 52.8807 1.11929 54 2.5 54V53ZM134 51.5C134 52.3284 133.328 53 132.5 53V54C133.881 54 135 52.8807 135 51.5H134ZM132.5 28C133.328 28 134 28.6716 134 29.5H135C135 28.1193 133.881 27 132.5 27V28ZM2.5 27C1.11929 27 0 28.1193 0 29.5H1C1 28.6716 1.67157 28 2.5 28V27Z" fill="black"/>
<path d="M0.5 56.5C0.5 55.3954 1.39543 54.5 2.5 54.5H132.5C133.605 54.5 134.5 55.3954 134.5 56.5V78.5C134.5 79.6046 133.605 80.5 132.5 80.5H2.5C1.39543 80.5 0.5 79.6046 0.5 78.5V56.5Z" fill="#242424"/>
<path d="M17.8206 68.084C17.8206 68.5053 17.7472 68.8973 17.6006 69.26C17.4566 69.6227 17.2526 69.9387 16.9886 70.208C16.7246 70.4747 16.4059 70.684 16.0326 70.836C15.6619 70.988 15.2499 71.064 14.7966 71.064C14.3432 71.064 13.9299 70.988 13.5566 70.836C13.1832 70.684 12.8632 70.4747 12.5966 70.208C12.3326 69.9387 12.1272 69.6227 11.9806 69.26C11.8366 68.8973 11.7646 68.5053 11.7646 68.084C11.7646 67.6627 11.8366 67.2707 11.9806 66.908C12.1272 66.5453 12.3326 66.2307 12.5966 65.964C12.8632 65.6973 13.1832 65.488 13.5566 65.336C13.9299 65.184 14.3432 65.108 14.7966 65.108C15.2499 65.108 15.6619 65.1853 16.0326 65.34C16.4059 65.492 16.7246 65.7013 16.9886 65.968C17.2526 66.2347 17.4566 66.5493 17.6006 66.912C17.7472 67.2747 17.8206 67.6653 17.8206 68.084ZM16.4366 68.084C16.4366 67.796 16.3992 67.5373 16.3246 67.308C16.2499 67.076 16.1419 66.88 16.0006 66.72C15.8619 66.56 15.6912 66.4373 15.4886 66.352C15.2859 66.2667 15.0552 66.224 14.7966 66.224C14.5352 66.224 14.3019 66.2667 14.0966 66.352C13.8939 66.4373 13.7219 66.56 13.5806 66.72C13.4419 66.88 13.3352 67.076 13.2606 67.308C13.1859 67.5373 13.1486 67.796 13.1486 68.084C13.1486 68.3747 13.1859 68.636 13.2606 68.868C13.3352 69.0973 13.4419 69.292 13.5806 69.452C13.7219 69.612 13.8939 69.7347 14.0966 69.82C14.3019 69.9027 14.5352 69.944 14.7966 69.944C15.0552 69.944 15.2859 69.9027 15.4886 69.82C15.6912 69.7347 15.8619 69.612 16.0006 69.452C16.1419 69.292 16.2499 69.0973 16.3246 68.868C16.3992 68.636 16.4366 68.3747 16.4366 68.084ZM18.6055 71V67.704L18.3335 67.648C18.2402 67.6267 18.1642 67.5933 18.1055 67.548C18.0495 67.5027 18.0215 67.436 18.0215 67.348V66.86H18.6055V66.704C18.6055 66.4667 18.6428 66.252 18.7175 66.06C18.7948 65.8653 18.9042 65.7 19.0455 65.564C19.1895 65.428 19.3642 65.324 19.5695 65.252C19.7748 65.1773 20.0082 65.14 20.2695 65.14C20.3708 65.14 20.4642 65.1467 20.5495 65.16C20.6348 65.1707 20.7242 65.188 20.8175 65.212L20.7935 65.816C20.7882 65.9013 20.7522 65.9613 20.6855 65.996C20.6215 66.028 20.5548 66.044 20.4855 66.044C20.3762 66.044 20.2788 66.0547 20.1935 66.076C20.1082 66.0973 20.0362 66.1347 19.9775 66.188C19.9215 66.2413 19.8788 66.3133 19.8495 66.404C19.8202 66.492 19.8055 66.604 19.8055 66.74V66.86H21.2615V66.548C21.2615 66.3107 21.2988 66.096 21.3735 65.904C21.4508 65.712 21.5602 65.548 21.7015 65.412C21.8455 65.276 22.0202 65.1707 22.2255 65.096C22.4308 65.0213 22.6642 64.984 22.9255 64.984C23.0268 64.984 23.1202 64.9907 23.2055 65.004C23.2908 65.0147 23.3802 65.0333 23.4735 65.06L23.4495 65.664C23.4468 65.7067 23.4362 65.7427 23.4175 65.772C23.3988 65.7987 23.3735 65.8213 23.3415 65.84C23.3122 65.856 23.2802 65.868 23.2455 65.876C23.2108 65.884 23.1762 65.888 23.1415 65.888C23.0322 65.888 22.9348 65.8987 22.8495 65.92C22.7642 65.9413 22.6922 65.98 22.6335 66.036C22.5775 66.0893 22.5348 66.1613 22.5055 66.252C22.4762 66.34 22.4615 66.452 22.4615 66.588V66.86H23.4335V67.708H22.5015V71H21.2615V67.708H19.8455V71H18.6055Z" fill="#B4B4B4"/>
<g opacity="0.75">
<rect x="33.5" y="79" width="23" height="1" transform="rotate(-90 33.5 79)" fill="black"/>
</g>
<path d="M46.0148 66.356C45.9748 66.42 45.9321 66.468 45.8868 66.5C45.8441 66.532 45.7881 66.548 45.7188 66.548C45.6574 66.548 45.5908 66.5293 45.5188 66.492C45.4494 66.452 45.3694 66.408 45.2788 66.36C45.1908 66.312 45.0894 66.2693 44.9748 66.232C44.8601 66.192 44.7294 66.172 44.5828 66.172C44.3294 66.172 44.1401 66.2267 44.0148 66.336C43.8921 66.4427 43.8308 66.588 43.8308 66.772C43.8308 66.8893 43.8681 66.9867 43.9428 67.064C44.0174 67.1413 44.1148 67.208 44.2348 67.264C44.3574 67.32 44.4961 67.372 44.6508 67.42C44.8081 67.4653 44.9681 67.5173 45.1308 67.576C45.2934 67.632 45.4521 67.6987 45.6068 67.776C45.7641 67.8533 45.9028 67.952 46.0228 68.072C46.1454 68.192 46.2441 68.3387 46.3188 68.512C46.3934 68.6827 46.4308 68.8893 46.4308 69.132C46.4308 69.4013 46.3841 69.6533 46.2908 69.888C46.1974 70.1227 46.0614 70.328 45.8828 70.504C45.7068 70.6773 45.4881 70.8147 45.2268 70.916C44.9681 71.0147 44.6734 71.064 44.3428 71.064C44.1614 71.064 43.9761 71.0453 43.7868 71.008C43.6001 70.9707 43.4188 70.9187 43.2428 70.852C43.0668 70.7827 42.9014 70.7013 42.7468 70.608C42.5921 70.5147 42.4574 70.4107 42.3428 70.296L42.7428 69.664C42.7748 69.6187 42.8161 69.5813 42.8668 69.552C42.9201 69.52 42.9774 69.504 43.0388 69.504C43.1188 69.504 43.1988 69.5293 43.2788 69.58C43.3614 69.6307 43.4534 69.6867 43.5548 69.748C43.6588 69.8093 43.7774 69.8653 43.9108 69.916C44.0441 69.9667 44.2014 69.992 44.3828 69.992C44.6281 69.992 44.8188 69.9387 44.9548 69.832C45.0908 69.7227 45.1588 69.5507 45.1588 69.316C45.1588 69.18 45.1214 69.0693 45.0468 68.984C44.9721 68.8987 44.8734 68.828 44.7508 68.772C44.6308 68.716 44.4934 68.6667 44.3388 68.624C44.1841 68.5813 44.0254 68.5347 43.8628 68.484C43.7001 68.4307 43.5414 68.3667 43.3868 68.292C43.2321 68.2147 43.0934 68.1147 42.9708 67.992C42.8508 67.8667 42.7534 67.712 42.6788 67.528C42.6041 67.3413 42.5668 67.112 42.5668 66.84C42.5668 66.6213 42.6108 66.408 42.6988 66.2C42.7868 65.992 42.9161 65.8067 43.0868 65.644C43.2574 65.4813 43.4668 65.352 43.7148 65.256C43.9628 65.1573 44.2468 65.108 44.5668 65.108C44.7454 65.108 44.9188 65.1227 45.0868 65.152C45.2574 65.1787 45.4188 65.22 45.5708 65.276C45.7228 65.3293 45.8641 65.3947 45.9948 65.472C46.1281 65.5467 46.2468 65.632 46.3508 65.728L46.0148 66.356ZM49.5405 68.428C49.5405 68.3293 49.5271 68.2333 49.5005 68.14C49.4765 68.0467 49.4351 67.964 49.3765 67.892C49.3205 67.8173 49.2458 67.7573 49.1525 67.712C49.0591 67.6667 48.9458 67.644 48.8125 67.644C48.5778 67.644 48.3938 67.712 48.2605 67.848C48.1271 67.9813 48.0391 68.1747 47.9965 68.428H49.5405ZM47.9805 69.148C48.0205 69.4947 48.1258 69.7467 48.2965 69.904C48.4671 70.0587 48.6871 70.136 48.9565 70.136C49.1005 70.136 49.2245 70.1187 49.3285 70.084C49.4325 70.0493 49.5245 70.0107 49.6045 69.968C49.6871 69.9253 49.7618 69.8867 49.8285 69.852C49.8978 69.8173 49.9698 69.8 50.0445 69.8C50.1431 69.8 50.2178 69.836 50.2685 69.908L50.6285 70.352C50.5005 70.4987 50.3618 70.6187 50.2125 70.712C50.0658 70.8027 49.9138 70.8747 49.7565 70.928C49.6018 70.9787 49.4458 71.0133 49.2885 71.032C49.1338 71.0533 48.9858 71.064 48.8445 71.064C48.5538 71.064 48.2805 71.0173 48.0245 70.924C47.7711 70.828 47.5485 70.6867 47.3565 70.5C47.1671 70.3133 47.0165 70.0813 46.9045 69.804C46.7951 69.5267 46.7405 69.204 46.7405 68.836C46.7405 68.5587 46.7871 68.296 46.8805 68.048C46.9765 67.8 47.1125 67.5827 47.2885 67.396C47.4671 67.2093 47.6818 67.0613 47.9325 66.952C48.1858 66.8427 48.4711 66.788 48.7885 66.788C49.0631 66.788 49.3138 66.8307 49.5405 66.916C49.7698 67.0013 49.9658 67.1253 50.1285 67.288C50.2938 67.4507 50.4218 67.6507 50.5125 67.888C50.6058 68.1227 50.6525 68.3893 50.6525 68.688C50.6525 68.7813 50.6485 68.8573 50.6405 68.916C50.6325 68.9747 50.6178 69.0213 50.5965 69.056C50.5751 69.0907 50.5458 69.1147 50.5085 69.128C50.4738 69.1413 50.4285 69.148 50.3725 69.148H47.9805ZM52.297 67.3C52.377 67.2253 52.4596 67.156 52.545 67.092C52.6303 67.028 52.721 66.9747 52.817 66.932C52.9156 66.8867 53.021 66.852 53.133 66.828C53.2476 66.8013 53.3716 66.788 53.505 66.788C53.7316 66.788 53.9316 66.828 54.105 66.908C54.281 66.9853 54.429 67.0947 54.549 67.236C54.669 67.3747 54.7596 67.5413 54.821 67.736C54.8823 67.928 54.913 68.1373 54.913 68.364V71H53.673V68.364C53.673 68.1613 53.6263 68.004 53.533 67.892C53.4396 67.7773 53.3023 67.72 53.121 67.72C52.985 67.72 52.857 67.7493 52.737 67.808C52.6196 67.864 52.505 67.9413 52.393 68.04V71H51.153V66.852H51.921C52.0756 66.852 52.177 66.9213 52.225 67.06L52.297 67.3ZM58.1115 67.964C58.0181 67.86 57.9168 67.788 57.8075 67.748C57.6981 67.7053 57.5835 67.684 57.4635 67.684C57.3488 67.684 57.2435 67.7067 57.1475 67.752C57.0515 67.7973 56.9675 67.8707 56.8955 67.972C56.8261 68.0707 56.7715 68.2 56.7315 68.36C56.6915 68.52 56.6715 68.7133 56.6715 68.94C56.6715 69.1587 56.6875 69.3427 56.7195 69.492C56.7515 69.6413 56.7955 69.7627 56.8515 69.856C56.9101 69.9467 56.9795 70.012 57.0595 70.052C57.1395 70.092 57.2288 70.112 57.3275 70.112C57.4181 70.112 57.4995 70.104 57.5715 70.088C57.6461 70.0693 57.7141 70.044 57.7755 70.012C57.8368 69.98 57.8941 69.94 57.9475 69.892C58.0035 69.8413 58.0581 69.784 58.1115 69.72V67.964ZM59.3515 65.012V71H58.5835C58.4288 71 58.3275 70.9307 58.2795 70.792L58.1835 70.476C58.1008 70.564 58.0141 70.644 57.9235 70.716C57.8328 70.788 57.7341 70.8507 57.6275 70.904C57.5235 70.9547 57.4101 70.9933 57.2875 71.02C57.1675 71.0493 57.0368 71.064 56.8955 71.064C56.6795 71.064 56.4795 71.016 56.2955 70.92C56.1115 70.824 55.9528 70.6853 55.8195 70.504C55.6861 70.3227 55.5808 70.1013 55.5035 69.84C55.4288 69.576 55.3915 69.276 55.3915 68.94C55.3915 68.6307 55.4341 68.344 55.5195 68.08C55.6048 67.8133 55.7248 67.584 55.8795 67.392C56.0368 67.1973 56.2248 67.0453 56.4435 66.936C56.6621 66.8267 56.9035 66.772 57.1675 66.772C57.3835 66.772 57.5648 66.8027 57.7115 66.864C57.8581 66.9253 57.9915 67.008 58.1115 67.112V65.012H59.3515Z" fill="#B4B4B4"/>
<g opacity="0.75">
<rect x="67" y="79" width="23" height="1" transform="rotate(-90 67 79)" fill="black"/>
</g>
<rect x="69.5" y="56.5" width="30" height="22" rx="1" fill="#FF9000"/>
<rect x="69.5" y="56.5" width="30" height="22" rx="1" stroke="#FF9000"/>
<path d="M75.8354 62.356C75.7954 62.42 75.7527 62.468 75.7074 62.5C75.6647 62.532 75.6087 62.548 75.5394 62.548C75.4781 62.548 75.4114 62.5293 75.3394 62.492C75.2701 62.452 75.1901 62.408 75.0994 62.36C75.0114 62.312 74.9101 62.2693 74.7954 62.232C74.6807 62.192 74.5501 62.172 74.4034 62.172C74.1501 62.172 73.9607 62.2267 73.8354 62.336C73.7127 62.4427 73.6514 62.588 73.6514 62.772C73.6514 62.8893 73.6887 62.9867 73.7634 63.064C73.8381 63.1413 73.9354 63.208 74.0554 63.264C74.1781 63.32 74.3167 63.372 74.4714 63.42C74.6287 63.4653 74.7887 63.5173 74.9514 63.576C75.1141 63.632 75.2727 63.6987 75.4274 63.776C75.5847 63.8533 75.7234 63.952 75.8434 64.072C75.9661 64.192 76.0647 64.3387 76.1394 64.512C76.2141 64.6827 76.2514 64.8893 76.2514 65.132C76.2514 65.4013 76.2047 65.6533 76.1114 65.888C76.0181 66.1227 75.8821 66.328 75.7034 66.504C75.5274 66.6773 75.3087 66.8147 75.0474 66.916C74.7887 67.0147 74.4941 67.064 74.1634 67.064C73.9821 67.064 73.7967 67.0453 73.6074 67.008C73.4207 66.9707 73.2394 66.9187 73.0634 66.852C72.8874 66.7827 72.7221 66.7013 72.5674 66.608C72.4127 66.5147 72.2781 66.4107 72.1634 66.296L72.5634 65.664C72.5954 65.6187 72.6367 65.5813 72.6874 65.552C72.7407 65.52 72.7981 65.504 72.8594 65.504C72.9394 65.504 73.0194 65.5293 73.0994 65.58C73.1821 65.6307 73.2741 65.6867 73.3754 65.748C73.4794 65.8093 73.5981 65.8653 73.7314 65.916C73.8647 65.9667 74.0221 65.992 74.2034 65.992C74.4487 65.992 74.6394 65.9387 74.7754 65.832C74.9114 65.7227 74.9794 65.5507 74.9794 65.316C74.9794 65.18 74.9421 65.0693 74.8674 64.984C74.7927 64.8987 74.6941 64.828 74.5714 64.772C74.4514 64.716 74.3141 64.6667 74.1594 64.624C74.0047 64.5813 73.8461 64.5347 73.6834 64.484C73.5207 64.4307 73.3621 64.3667 73.2074 64.292C73.0527 64.2147 72.9141 64.1147 72.7914 63.992C72.6714 63.8667 72.5741 63.712 72.4994 63.528C72.4247 63.3413 72.3874 63.112 72.3874 62.84C72.3874 62.6213 72.4314 62.408 72.5194 62.2C72.6074 61.992 72.7367 61.8067 72.9074 61.644C73.0781 61.4813 73.2874 61.352 73.5354 61.256C73.7834 61.1573 74.0674 61.108 74.3874 61.108C74.5661 61.108 74.7394 61.1227 74.9074 61.152C75.0781 61.1787 75.2394 61.22 75.3914 61.276C75.5434 61.3293 75.6847 61.3947 75.8154 61.472C75.9487 61.5467 76.0674 61.632 76.1714 61.728L75.8354 62.356ZM79.3611 64.428C79.3611 64.3293 79.3478 64.2333 79.3211 64.14C79.2971 64.0467 79.2558 63.964 79.1971 63.892C79.1411 63.8173 79.0664 63.7573 78.9731 63.712C78.8798 63.6667 78.7664 63.644 78.6331 63.644C78.3984 63.644 78.2144 63.712 78.0811 63.848C77.9478 63.9813 77.8598 64.1747 77.8171 64.428H79.3611ZM77.8011 65.148C77.8411 65.4947 77.9464 65.7467 78.1171 65.904C78.2878 66.0587 78.5078 66.136 78.7771 66.136C78.9211 66.136 79.0451 66.1187 79.1491 66.084C79.2531 66.0493 79.3451 66.0107 79.4251 65.968C79.5078 65.9253 79.5824 65.8867 79.6491 65.852C79.7184 65.8173 79.7904 65.8 79.8651 65.8C79.9638 65.8 80.0384 65.836 80.0891 65.908L80.4491 66.352C80.3211 66.4987 80.1824 66.6187 80.0331 66.712C79.8864 66.8027 79.7344 66.8747 79.5771 66.928C79.4224 66.9787 79.2664 67.0133 79.1091 67.032C78.9544 67.0533 78.8064 67.064 78.6651 67.064C78.3744 67.064 78.1011 67.0173 77.8451 66.924C77.5918 66.828 77.3691 66.6867 77.1771 66.5C76.9878 66.3133 76.8371 66.0813 76.7251 65.804C76.6158 65.5267 76.5611 65.204 76.5611 64.836C76.5611 64.5587 76.6078 64.296 76.7011 64.048C76.7971 63.8 76.9331 63.5827 77.1091 63.396C77.2878 63.2093 77.5024 63.0613 77.7531 62.952C78.0064 62.8427 78.2918 62.788 78.6091 62.788C78.8838 62.788 79.1344 62.8307 79.3611 62.916C79.5904 63.0013 79.7864 63.1253 79.9491 63.288C80.1144 63.4507 80.2424 63.6507 80.3331 63.888C80.4264 64.1227 80.4731 64.3893 80.4731 64.688C80.4731 64.7813 80.4691 64.8573 80.4611 64.916C80.4531 64.9747 80.4384 65.0213 80.4171 65.056C80.3958 65.0907 80.3664 65.1147 80.3291 65.128C80.2944 65.1413 80.2491 65.148 80.1931 65.148H77.8011ZM82.1176 63.3C82.1976 63.2253 82.2803 63.156 82.3656 63.092C82.4509 63.028 82.5416 62.9747 82.6376 62.932C82.7363 62.8867 82.8416 62.852 82.9536 62.828C83.0683 62.8013 83.1923 62.788 83.3256 62.788C83.5523 62.788 83.7523 62.828 83.9256 62.908C84.1016 62.9853 84.2496 63.0947 84.3696 63.236C84.4896 63.3747 84.5803 63.5413 84.6416 63.736C84.7029 63.928 84.7336 64.1373 84.7336 64.364V67H83.4936V64.364C83.4936 64.1613 83.4469 64.004 83.3536 63.892C83.2603 63.7773 83.1229 63.72 82.9416 63.72C82.8056 63.72 82.6776 63.7493 82.5576 63.808C82.4403 63.864 82.3256 63.9413 82.2136 64.04V67H80.9736V62.852H81.7416C81.8963 62.852 81.9976 62.9213 82.0456 63.06L82.1176 63.3ZM87.9321 63.964C87.8388 63.86 87.7374 63.788 87.6281 63.748C87.5188 63.7053 87.4041 63.684 87.2841 63.684C87.1694 63.684 87.0641 63.7067 86.9681 63.752C86.8721 63.7973 86.7881 63.8707 86.7161 63.972C86.6468 64.0707 86.5921 64.2 86.5521 64.36C86.5121 64.52 86.4921 64.7133 86.4921 64.94C86.4921 65.1587 86.5081 65.3427 86.5401 65.492C86.5721 65.6413 86.6161 65.7627 86.6721 65.856C86.7308 65.9467 86.8001 66.012 86.8801 66.052C86.9601 66.092 87.0494 66.112 87.1481 66.112C87.2388 66.112 87.3201 66.104 87.3921 66.088C87.4668 66.0693 87.5348 66.044 87.5961 66.012C87.6574 65.98 87.7148 65.94 87.7681 65.892C87.8241 65.8413 87.8788 65.784 87.9321 65.72V63.964ZM89.1721 61.012V67H88.4041C88.2494 67 88.1481 66.9307 88.1001 66.792L88.0041 66.476C87.9214 66.564 87.8348 66.644 87.7441 66.716C87.6534 66.788 87.5548 66.8507 87.4481 66.904C87.3441 66.9547 87.2308 66.9933 87.1081 67.02C86.9881 67.0493 86.8574 67.064 86.7161 67.064C86.5001 67.064 86.3001 67.016 86.1161 66.92C85.9321 66.824 85.7734 66.6853 85.6401 66.504C85.5068 66.3227 85.4014 66.1013 85.3241 65.84C85.2494 65.576 85.2121 65.276 85.2121 64.94C85.2121 64.6307 85.2548 64.344 85.3401 64.08C85.4254 63.8133 85.5454 63.584 85.7001 63.392C85.8574 63.1973 86.0454 63.0453 86.2641 62.936C86.4828 62.8267 86.7241 62.772 86.9881 62.772C87.2041 62.772 87.3854 62.8027 87.5321 62.864C87.6788 62.9253 87.8121 63.008 87.9321 63.112V61.012H89.1721ZM93.1054 64.416C92.9587 64.5387 92.8547 64.6707 92.7934 64.812C92.7321 64.9507 92.7014 65.0987 92.7014 65.256C92.7014 65.384 92.7201 65.5 92.7574 65.604C92.7974 65.708 92.8534 65.7973 92.9254 65.872C92.9974 65.9467 93.0827 66.0053 93.1814 66.048C93.2827 66.088 93.3947 66.108 93.5174 66.108C93.6961 66.108 93.8627 66.0853 94.0174 66.04C94.1721 65.992 94.3161 65.9253 94.4494 65.84L93.1054 64.416ZM97.0934 67H95.8694C95.8081 67 95.7534 66.9973 95.7054 66.992C95.6574 66.984 95.6121 66.972 95.5694 66.956C95.5294 66.94 95.4907 66.9173 95.4534 66.888C95.4161 66.8587 95.3761 66.8213 95.3334 66.776L95.0814 66.512C94.8281 66.688 94.5507 66.824 94.2494 66.92C93.9507 67.016 93.6321 67.064 93.2934 67.064C93.0614 67.064 92.8334 67.024 92.6094 66.944C92.3881 66.864 92.1907 66.7507 92.0174 66.604C91.8441 66.4547 91.7041 66.2747 91.5974 66.064C91.4907 65.8533 91.4374 65.6173 91.4374 65.356C91.4374 65.18 91.4641 65.0133 91.5174 64.856C91.5734 64.6987 91.6507 64.5533 91.7494 64.42C91.8507 64.284 91.9694 64.1613 92.1054 64.052C92.2414 63.94 92.3921 63.8427 92.5574 63.76C92.4294 63.5653 92.3374 63.3747 92.2814 63.188C92.2254 63.0013 92.1974 62.82 92.1974 62.644C92.1974 62.436 92.2347 62.24 92.3094 62.056C92.3867 61.8693 92.4974 61.7067 92.6414 61.568C92.7881 61.4267 92.9667 61.3147 93.1774 61.232C93.3907 61.1493 93.6347 61.108 93.9094 61.108C94.1681 61.108 94.3961 61.1467 94.5934 61.224C94.7907 61.2987 94.9574 61.3987 95.0934 61.524C95.2294 61.6467 95.3361 61.7893 95.4134 61.952C95.4907 62.1147 95.5387 62.2813 95.5574 62.452L94.7574 62.612C94.6161 62.644 94.5121 62.588 94.4454 62.444C94.3841 62.3053 94.3121 62.2 94.2294 62.128C94.1494 62.056 94.0427 62.02 93.9094 62.02C93.8161 62.02 93.7347 62.0373 93.6654 62.072C93.5961 62.1067 93.5374 62.152 93.4894 62.208C93.4441 62.264 93.4094 62.3293 93.3854 62.404C93.3614 62.4787 93.3494 62.556 93.3494 62.636C93.3494 62.7053 93.3547 62.772 93.3654 62.836C93.3787 62.8973 93.4001 62.9613 93.4294 63.028C93.4587 63.092 93.4974 63.1587 93.5454 63.228C93.5961 63.2973 93.6587 63.3733 93.7334 63.456L95.1734 64.972C95.2454 64.8147 95.3041 64.6493 95.3494 64.476C95.3947 64.3 95.4241 64.12 95.4374 63.936C95.4454 63.8613 95.4707 63.8027 95.5134 63.76C95.5561 63.7173 95.6134 63.696 95.6854 63.696H96.4694C96.4694 64.0827 96.4174 64.4453 96.3134 64.784C96.2094 65.1227 96.0627 65.432 95.8734 65.712L97.0934 67ZM76.5038 71.98H78.5758V74.44C78.2772 74.6587 77.9585 74.8173 77.6198 74.916C77.2838 75.0147 76.9318 75.064 76.5638 75.064C76.0838 75.064 75.6465 74.9893 75.2518 74.84C74.8598 74.688 74.5238 74.48 74.2438 74.216C73.9638 73.9493 73.7478 73.6347 73.5958 73.272C73.4438 72.9067 73.3678 72.5107 73.3678 72.084C73.3678 71.6493 73.4398 71.2507 73.5838 70.888C73.7278 70.5227 73.9332 70.208 74.1998 69.944C74.4692 69.68 74.7932 69.4747 75.1718 69.328C75.5532 69.1813 75.9785 69.108 76.4478 69.108C76.6905 69.108 76.9185 69.128 77.1318 69.168C77.3452 69.208 77.5412 69.2627 77.7198 69.332C77.9012 69.4013 78.0665 69.484 78.2158 69.58C78.3652 69.676 78.4985 69.78 78.6158 69.892L78.2238 70.488C78.1625 70.5813 78.0825 70.6387 77.9838 70.66C77.8878 70.6813 77.7838 70.6573 77.6718 70.588C77.5652 70.524 77.4638 70.4693 77.3678 70.424C77.2745 70.376 77.1785 70.3373 77.0798 70.308C76.9812 70.2787 76.8772 70.2573 76.7678 70.244C76.6585 70.2307 76.5358 70.224 76.3998 70.224C76.1465 70.224 75.9185 70.2693 75.7158 70.36C75.5132 70.448 75.3398 70.5733 75.1958 70.736C75.0545 70.8987 74.9452 71.0947 74.8678 71.324C74.7905 71.5507 74.7518 71.804 74.7518 72.084C74.7518 72.3933 74.7945 72.668 74.8798 72.908C74.9652 73.148 75.0852 73.3507 75.2398 73.516C75.3972 73.6813 75.5838 73.808 75.7998 73.896C76.0185 73.9813 76.2598 74.024 76.5238 74.024C76.6865 74.024 76.8332 74.008 76.9638 73.976C77.0972 73.944 77.2265 73.9013 77.3518 73.848V72.964H76.7758C76.6905 72.964 76.6238 72.9413 76.5758 72.896C76.5278 72.8507 76.5038 72.7933 76.5038 72.724V71.98ZM80.4611 69.012V75H79.2211V69.012H80.4611ZM83.0912 70.788C83.4059 70.788 83.6926 70.8373 83.9512 70.936C84.2099 71.0347 84.4312 71.176 84.6152 71.36C84.8019 71.544 84.9459 71.768 85.0472 72.032C85.1512 72.2933 85.2032 72.588 85.2032 72.916C85.2032 73.2467 85.1512 73.5453 85.0472 73.812C84.9459 74.076 84.8019 74.3013 84.6152 74.488C84.4312 74.672 84.2099 74.8147 83.9512 74.916C83.6926 75.0147 83.4059 75.064 83.0912 75.064C82.7739 75.064 82.4846 75.0147 82.2232 74.916C81.9646 74.8147 81.7406 74.672 81.5512 74.488C81.3646 74.3013 81.2192 74.076 81.1152 73.812C81.0139 73.5453 80.9632 73.2467 80.9632 72.916C80.9632 72.588 81.0139 72.2933 81.1152 72.032C81.2192 71.768 81.3646 71.544 81.5512 71.36C81.7406 71.176 81.9646 71.0347 82.2232 70.936C82.4846 70.8373 82.7739 70.788 83.0912 70.788ZM83.0912 74.144C83.3766 74.144 83.5859 74.044 83.7192 73.844C83.8552 73.6413 83.9232 73.3347 83.9232 72.924C83.9232 72.5133 83.8552 72.208 83.7192 72.008C83.5859 71.808 83.3766 71.708 83.0912 71.708C82.7979 71.708 82.5832 71.808 82.4472 72.008C82.3112 72.208 82.2432 72.5133 82.2432 72.924C82.2432 73.3347 82.3112 73.6413 82.4472 73.844C82.5832 74.044 82.7979 74.144 83.0912 74.144ZM86.9477 73.872C87.041 73.9733 87.1423 74.0453 87.2517 74.088C87.361 74.1307 87.4717 74.152 87.5837 74.152C87.701 74.152 87.809 74.1307 87.9077 74.088C88.0063 74.0427 88.0903 73.9707 88.1597 73.872C88.2317 73.7707 88.2877 73.6387 88.3277 73.476C88.3677 73.3107 88.3877 73.108 88.3877 72.868C88.3877 72.66 88.3717 72.484 88.3397 72.34C88.3103 72.1933 88.265 72.0747 88.2037 71.984C88.145 71.8907 88.0703 71.824 87.9797 71.784C87.8917 71.7413 87.7903 71.72 87.6757 71.72C87.5237 71.72 87.3917 71.7533 87.2797 71.82C87.1677 71.8867 87.057 71.984 86.9477 72.112V73.872ZM86.9477 71.292C87.1077 71.14 87.2823 71.0187 87.4717 70.928C87.6637 70.8347 87.877 70.788 88.1117 70.788C88.3463 70.788 88.5597 70.836 88.7517 70.932C88.9437 71.028 89.1077 71.1653 89.2437 71.344C89.3797 71.52 89.4837 71.7333 89.5557 71.984C89.6303 72.2347 89.6677 72.5147 89.6677 72.824C89.6677 73.16 89.625 73.4653 89.5397 73.74C89.4543 74.0147 89.333 74.2507 89.1757 74.448C89.021 74.6427 88.8357 74.7947 88.6197 74.904C88.4037 75.0107 88.165 75.064 87.9037 75.064C87.7783 75.064 87.6663 75.052 87.5677 75.028C87.469 75.004 87.3783 74.9707 87.2957 74.928C87.213 74.8827 87.137 74.8293 87.0677 74.768C87.001 74.7067 86.9357 74.64 86.8717 74.568L86.8277 74.776C86.8063 74.8613 86.7717 74.92 86.7237 74.952C86.6757 74.984 86.6117 75 86.5317 75H85.7077V69.012H86.9477V71.292ZM92.3214 73.312C92.0734 73.3227 91.8694 73.344 91.7094 73.376C91.5494 73.408 91.4227 73.448 91.3294 73.496C91.2361 73.544 91.1707 73.5987 91.1334 73.66C91.0987 73.7213 91.0814 73.788 91.0814 73.86C91.0814 74.0013 91.1201 74.1013 91.1974 74.16C91.2747 74.216 91.3881 74.244 91.5374 74.244C91.6974 74.244 91.8374 74.216 91.9574 74.16C92.0774 74.104 92.1987 74.0133 92.3214 73.888V73.312ZM90.0894 71.428C90.3401 71.2067 90.6174 71.0427 90.9214 70.936C91.2281 70.8267 91.5561 70.772 91.9054 70.772C92.1561 70.772 92.3814 70.8133 92.5814 70.896C92.7841 70.976 92.9547 71.0893 93.0934 71.236C93.2347 71.38 93.3427 71.552 93.4174 71.752C93.4921 71.952 93.5294 72.1707 93.5294 72.408V75H92.9614C92.8441 75 92.7547 74.984 92.6934 74.952C92.6347 74.92 92.5854 74.8533 92.5454 74.752L92.4574 74.524C92.3534 74.612 92.2534 74.6893 92.1574 74.756C92.0614 74.8227 91.9614 74.88 91.8574 74.928C91.7561 74.9733 91.6467 75.0067 91.5294 75.028C91.4147 75.052 91.2867 75.064 91.1454 75.064C90.9561 75.064 90.7841 75.04 90.6294 74.992C90.4747 74.9413 90.3427 74.868 90.2334 74.772C90.1267 74.676 90.0441 74.5573 89.9854 74.416C89.9267 74.272 89.8974 74.1067 89.8974 73.92C89.8974 73.7707 89.9347 73.62 90.0094 73.468C90.0841 73.3133 90.2134 73.1733 90.3974 73.048C90.5814 72.92 90.8294 72.8133 91.1414 72.728C91.4534 72.6427 91.8467 72.5947 92.3214 72.584V72.408C92.3214 72.1653 92.2707 71.9907 92.1694 71.884C92.0707 71.7747 91.9294 71.72 91.7454 71.72C91.5987 71.72 91.4787 71.736 91.3854 71.768C91.2921 71.8 91.2081 71.836 91.1334 71.876C91.0614 71.916 90.9907 71.952 90.9214 71.984C90.8521 72.016 90.7694 72.032 90.6734 72.032C90.5881 72.032 90.5161 72.0107 90.4574 71.968C90.3987 71.9253 90.3507 71.8747 90.3134 71.816L90.0894 71.428ZM95.442 69.012V75H94.202V69.012H95.442Z" fill="black"/>
<path opacity="0.5" d="M101.5 56H100.5V79H101.5V56Z" fill="black"/>
<path d="M116.842 68.772L116.302 67.176C116.262 67.0747 116.219 66.956 116.174 66.82C116.129 66.6813 116.083 66.532 116.038 66.372C115.998 66.5347 115.955 66.6853 115.91 66.824C115.865 66.9627 115.822 67.0827 115.782 67.184L115.246 68.772H116.842ZM118.99 71H117.942C117.825 71 117.73 70.9733 117.658 70.92C117.586 70.864 117.531 70.7933 117.494 70.708L117.15 69.692H114.934L114.59 70.708C114.561 70.7827 114.507 70.8507 114.43 70.912C114.355 70.9707 114.262 71 114.15 71H113.094L115.35 65.172H116.734L118.99 71ZM120.426 65.012V71H119.186V65.012H120.426ZM122.384 65.012V71H121.144V65.012H122.384Z" fill="#B4B4B4"/>
<path d="M2.5 55H132.5V54H2.5V55ZM134 56.5V78.5H135V56.5H134ZM132.5 80H2.5V81H132.5V80ZM1 78.5V56.5H0V78.5H1ZM2.5 80C1.67157 80 1 79.3284 1 78.5H0C0 79.8807 1.11929 81 2.5 81V80ZM134 78.5C134 79.3284 133.328 80 132.5 80V81C133.881 81 135 79.8807 135 78.5H134ZM132.5 55C133.328 55 134 55.6716 134 56.5H135C135 55.1193 133.881 54 132.5 54V55ZM2.5 54C1.11929 54 0 55.1193 0 56.5H1C1 55.6716 1.67157 55 2.5 55V54Z" fill="black"/>
<path d="M0.5 83.5C0.5 82.3954 1.39543 81.5 2.5 81.5H132.5C133.605 81.5 134.5 82.3954 134.5 83.5V105.5C134.5 106.605 133.605 107.5 132.5 107.5H2.5C1.39543 107.5 0.5 106.605 0.5 105.5V83.5Z" fill="#242424"/>
<path d="M17.8206 95.084C17.8206 95.5053 17.7472 95.8973 17.6006 96.26C17.4566 96.6227 17.2526 96.9387 16.9886 97.208C16.7246 97.4747 16.4059 97.684 16.0326 97.836C15.6619 97.988 15.2499 98.064 14.7966 98.064C14.3432 98.064 13.9299 97.988 13.5566 97.836C13.1832 97.684 12.8632 97.4747 12.5966 97.208C12.3326 96.9387 12.1272 96.6227 11.9806 96.26C11.8366 95.8973 11.7646 95.5053 11.7646 95.084C11.7646 94.6627 11.8366 94.2707 11.9806 93.908C12.1272 93.5453 12.3326 93.2307 12.5966 92.964C12.8632 92.6973 13.1832 92.488 13.5566 92.336C13.9299 92.184 14.3432 92.108 14.7966 92.108C15.2499 92.108 15.6619 92.1853 16.0326 92.34C16.4059 92.492 16.7246 92.7013 16.9886 92.968C17.2526 93.2347 17.4566 93.5493 17.6006 93.912C17.7472 94.2747 17.8206 94.6653 17.8206 95.084ZM16.4366 95.084C16.4366 94.796 16.3992 94.5373 16.3246 94.308C16.2499 94.076 16.1419 93.88 16.0006 93.72C15.8619 93.56 15.6912 93.4373 15.4886 93.352C15.2859 93.2667 15.0552 93.224 14.7966 93.224C14.5352 93.224 14.3019 93.2667 14.0966 93.352C13.8939 93.4373 13.7219 93.56 13.5806 93.72C13.4419 93.88 13.3352 94.076 13.2606 94.308C13.1859 94.5373 13.1486 94.796 13.1486 95.084C13.1486 95.3747 13.1859 95.636 13.2606 95.868C13.3352 96.0973 13.4419 96.292 13.5806 96.452C13.7219 96.612 13.8939 96.7347 14.0966 96.82C14.3019 96.9027 14.5352 96.944 14.7966 96.944C15.0552 96.944 15.2859 96.9027 15.4886 96.82C15.6912 96.7347 15.8619 96.612 16.0006 96.452C16.1419 96.292 16.2499 96.0973 16.3246 95.868C16.3992 95.636 16.4366 95.3747 16.4366 95.084ZM18.6055 98V94.704L18.3335 94.648C18.2402 94.6267 18.1642 94.5933 18.1055 94.548C18.0495 94.5027 18.0215 94.436 18.0215 94.348V93.86H18.6055V93.704C18.6055 93.4667 18.6428 93.252 18.7175 93.06C18.7948 92.8653 18.9042 92.7 19.0455 92.564C19.1895 92.428 19.3642 92.324 19.5695 92.252C19.7748 92.1773 20.0082 92.14 20.2695 92.14C20.3708 92.14 20.4642 92.1467 20.5495 92.16C20.6348 92.1707 20.7242 92.188 20.8175 92.212L20.7935 92.816C20.7882 92.9013 20.7522 92.9613 20.6855 92.996C20.6215 93.028 20.5548 93.044 20.4855 93.044C20.3762 93.044 20.2788 93.0547 20.1935 93.076C20.1082 93.0973 20.0362 93.1347 19.9775 93.188C19.9215 93.2413 19.8788 93.3133 19.8495 93.404C19.8202 93.492 19.8055 93.604 19.8055 93.74V93.86H21.2615V93.548C21.2615 93.3107 21.2988 93.096 21.3735 92.904C21.4508 92.712 21.5602 92.548 21.7015 92.412C21.8455 92.276 22.0202 92.1707 22.2255 92.096C22.4308 92.0213 22.6642 91.984 22.9255 91.984C23.0268 91.984 23.1202 91.9907 23.2055 92.004C23.2908 92.0147 23.3802 92.0333 23.4735 92.06L23.4495 92.664C23.4468 92.7067 23.4362 92.7427 23.4175 92.772C23.3988 92.7987 23.3735 92.8213 23.3415 92.84C23.3122 92.856 23.2802 92.868 23.2455 92.876C23.2108 92.884 23.1762 92.888 23.1415 92.888C23.0322 92.888 22.9348 92.8987 22.8495 92.92C22.7642 92.9413 22.6922 92.98 22.6335 93.036C22.5775 93.0893 22.5348 93.1613 22.5055 93.252C22.4762 93.34 22.4615 93.452 22.4615 93.588V93.86H23.4335V94.708H22.5015V98H21.2615V94.708H19.8455V98H18.6055Z" fill="#B4B4B4"/>
<g opacity="0.75">
<rect x="33.5" y="106" width="23" height="1" transform="rotate(-90 33.5 106)" fill="black"/>
</g>
<path d="M46.0148 93.356C45.9748 93.42 45.9321 93.468 45.8868 93.5C45.8441 93.532 45.7881 93.548 45.7188 93.548C45.6574 93.548 45.5908 93.5293 45.5188 93.492C45.4494 93.452 45.3694 93.408 45.2788 93.36C45.1908 93.312 45.0894 93.2693 44.9748 93.232C44.8601 93.192 44.7294 93.172 44.5828 93.172C44.3294 93.172 44.1401 93.2267 44.0148 93.336C43.8921 93.4427 43.8308 93.588 43.8308 93.772C43.8308 93.8893 43.8681 93.9867 43.9428 94.064C44.0174 94.1413 44.1148 94.208 44.2348 94.264C44.3574 94.32 44.4961 94.372 44.6508 94.42C44.8081 94.4653 44.9681 94.5173 45.1308 94.576C45.2934 94.632 45.4521 94.6987 45.6068 94.776C45.7641 94.8533 45.9028 94.952 46.0228 95.072C46.1454 95.192 46.2441 95.3387 46.3188 95.512C46.3934 95.6827 46.4308 95.8893 46.4308 96.132C46.4308 96.4013 46.3841 96.6533 46.2908 96.888C46.1974 97.1227 46.0614 97.328 45.8828 97.504C45.7068 97.6773 45.4881 97.8147 45.2268 97.916C44.9681 98.0147 44.6734 98.064 44.3428 98.064C44.1614 98.064 43.9761 98.0453 43.7868 98.008C43.6001 97.9707 43.4188 97.9187 43.2428 97.852C43.0668 97.7827 42.9014 97.7013 42.7468 97.608C42.5921 97.5147 42.4574 97.4107 42.3428 97.296L42.7428 96.664C42.7748 96.6187 42.8161 96.5813 42.8668 96.552C42.9201 96.52 42.9774 96.504 43.0388 96.504C43.1188 96.504 43.1988 96.5293 43.2788 96.58C43.3614 96.6307 43.4534 96.6867 43.5548 96.748C43.6588 96.8093 43.7774 96.8653 43.9108 96.916C44.0441 96.9667 44.2014 96.992 44.3828 96.992C44.6281 96.992 44.8188 96.9387 44.9548 96.832C45.0908 96.7227 45.1588 96.5507 45.1588 96.316C45.1588 96.18 45.1214 96.0693 45.0468 95.984C44.9721 95.8987 44.8734 95.828 44.7508 95.772C44.6308 95.716 44.4934 95.6667 44.3388 95.624C44.1841 95.5813 44.0254 95.5347 43.8628 95.484C43.7001 95.4307 43.5414 95.3667 43.3868 95.292C43.2321 95.2147 43.0934 95.1147 42.9708 94.992C42.8508 94.8667 42.7534 94.712 42.6788 94.528C42.6041 94.3413 42.5668 94.112 42.5668 93.84C42.5668 93.6213 42.6108 93.408 42.6988 93.2C42.7868 92.992 42.9161 92.8067 43.0868 92.644C43.2574 92.4813 43.4668 92.352 43.7148 92.256C43.9628 92.1573 44.2468 92.108 44.5668 92.108C44.7454 92.108 44.9188 92.1227 45.0868 92.152C45.2574 92.1787 45.4188 92.22 45.5708 92.276C45.7228 92.3293 45.8641 92.3947 45.9948 92.472C46.1281 92.5467 46.2468 92.632 46.3508 92.728L46.0148 93.356ZM49.5405 95.428C49.5405 95.3293 49.5271 95.2333 49.5005 95.14C49.4765 95.0467 49.4351 94.964 49.3765 94.892C49.3205 94.8173 49.2458 94.7573 49.1525 94.712C49.0591 94.6667 48.9458 94.644 48.8125 94.644C48.5778 94.644 48.3938 94.712 48.2605 94.848C48.1271 94.9813 48.0391 95.1747 47.9965 95.428H49.5405ZM47.9805 96.148C48.0205 96.4947 48.1258 96.7467 48.2965 96.904C48.4671 97.0587 48.6871 97.136 48.9565 97.136C49.1005 97.136 49.2245 97.1187 49.3285 97.084C49.4325 97.0493 49.5245 97.0107 49.6045 96.968C49.6871 96.9253 49.7618 96.8867 49.8285 96.852C49.8978 96.8173 49.9698 96.8 50.0445 96.8C50.1431 96.8 50.2178 96.836 50.2685 96.908L50.6285 97.352C50.5005 97.4987 50.3618 97.6187 50.2125 97.712C50.0658 97.8027 49.9138 97.8747 49.7565 97.928C49.6018 97.9787 49.4458 98.0133 49.2885 98.032C49.1338 98.0533 48.9858 98.064 48.8445 98.064C48.5538 98.064 48.2805 98.0173 48.0245 97.924C47.7711 97.828 47.5485 97.6867 47.3565 97.5C47.1671 97.3133 47.0165 97.0813 46.9045 96.804C46.7951 96.5267 46.7405 96.204 46.7405 95.836C46.7405 95.5587 46.7871 95.296 46.8805 95.048C46.9765 94.8 47.1125 94.5827 47.2885 94.396C47.4671 94.2093 47.6818 94.0613 47.9325 93.952C48.1858 93.8427 48.4711 93.788 48.7885 93.788C49.0631 93.788 49.3138 93.8307 49.5405 93.916C49.7698 94.0013 49.9658 94.1253 50.1285 94.288C50.2938 94.4507 50.4218 94.6507 50.5125 94.888C50.6058 95.1227 50.6525 95.3893 50.6525 95.688C50.6525 95.7813 50.6485 95.8573 50.6405 95.916C50.6325 95.9747 50.6178 96.0213 50.5965 96.056C50.5751 96.0907 50.5458 96.1147 50.5085 96.128C50.4738 96.1413 50.4285 96.148 50.3725 96.148H47.9805ZM52.297 94.3C52.377 94.2253 52.4596 94.156 52.545 94.092C52.6303 94.028 52.721 93.9747 52.817 93.932C52.9156 93.8867 53.021 93.852 53.133 93.828C53.2476 93.8013 53.3716 93.788 53.505 93.788C53.7316 93.788 53.9316 93.828 54.105 93.908C54.281 93.9853 54.429 94.0947 54.549 94.236C54.669 94.3747 54.7596 94.5413 54.821 94.736C54.8823 94.928 54.913 95.1373 54.913 95.364V98H53.673V95.364C53.673 95.1613 53.6263 95.004 53.533 94.892C53.4396 94.7773 53.3023 94.72 53.121 94.72C52.985 94.72 52.857 94.7493 52.737 94.808C52.6196 94.864 52.505 94.9413 52.393 95.04V98H51.153V93.852H51.921C52.0756 93.852 52.177 93.9213 52.225 94.06L52.297 94.3ZM58.1115 94.964C58.0181 94.86 57.9168 94.788 57.8075 94.748C57.6981 94.7053 57.5835 94.684 57.4635 94.684C57.3488 94.684 57.2435 94.7067 57.1475 94.752C57.0515 94.7973 56.9675 94.8707 56.8955 94.972C56.8261 95.0707 56.7715 95.2 56.7315 95.36C56.6915 95.52 56.6715 95.7133 56.6715 95.94C56.6715 96.1587 56.6875 96.3427 56.7195 96.492C56.7515 96.6413 56.7955 96.7627 56.8515 96.856C56.9101 96.9467 56.9795 97.012 57.0595 97.052C57.1395 97.092 57.2288 97.112 57.3275 97.112C57.4181 97.112 57.4995 97.104 57.5715 97.088C57.6461 97.0693 57.7141 97.044 57.7755 97.012C57.8368 96.98 57.8941 96.94 57.9475 96.892C58.0035 96.8413 58.0581 96.784 58.1115 96.72V94.964ZM59.3515 92.012V98H58.5835C58.4288 98 58.3275 97.9307 58.2795 97.792L58.1835 97.476C58.1008 97.564 58.0141 97.644 57.9235 97.716C57.8328 97.788 57.7341 97.8507 57.6275 97.904C57.5235 97.9547 57.4101 97.9933 57.2875 98.02C57.1675 98.0493 57.0368 98.064 56.8955 98.064C56.6795 98.064 56.4795 98.016 56.2955 97.92C56.1115 97.824 55.9528 97.6853 55.8195 97.504C55.6861 97.3227 55.5808 97.1013 55.5035 96.84C55.4288 96.576 55.3915 96.276 55.3915 95.94C55.3915 95.6307 55.4341 95.344 55.5195 95.08C55.6048 94.8133 55.7248 94.584 55.8795 94.392C56.0368 94.1973 56.2248 94.0453 56.4435 93.936C56.6621 93.8267 56.9035 93.772 57.1675 93.772C57.3835 93.772 57.5648 93.8027 57.7115 93.864C57.8581 93.9253 57.9915 94.008 58.1115 94.112V92.012H59.3515Z" fill="#B4B4B4"/>
<g opacity="0.75">
<rect x="67" y="106" width="23" height="1" transform="rotate(-90 67 106)" fill="black"/>
</g>
<path d="M75.8354 89.356C75.7954 89.42 75.7527 89.468 75.7074 89.5C75.6647 89.532 75.6087 89.548 75.5394 89.548C75.4781 89.548 75.4114 89.5293 75.3394 89.492C75.2701 89.452 75.1901 89.408 75.0994 89.36C75.0114 89.312 74.9101 89.2693 74.7954 89.232C74.6807 89.192 74.5501 89.172 74.4034 89.172C74.1501 89.172 73.9607 89.2267 73.8354 89.336C73.7127 89.4427 73.6514 89.588 73.6514 89.772C73.6514 89.8893 73.6887 89.9867 73.7634 90.064C73.8381 90.1413 73.9354 90.208 74.0554 90.264C74.1781 90.32 74.3167 90.372 74.4714 90.42C74.6287 90.4653 74.7887 90.5173 74.9514 90.576C75.1141 90.632 75.2727 90.6987 75.4274 90.776C75.5847 90.8533 75.7234 90.952 75.8434 91.072C75.9661 91.192 76.0647 91.3387 76.1394 91.512C76.2141 91.6827 76.2514 91.8893 76.2514 92.132C76.2514 92.4013 76.2047 92.6533 76.1114 92.888C76.0181 93.1227 75.8821 93.328 75.7034 93.504C75.5274 93.6773 75.3087 93.8147 75.0474 93.916C74.7887 94.0147 74.4941 94.064 74.1634 94.064C73.9821 94.064 73.7967 94.0453 73.6074 94.008C73.4207 93.9707 73.2394 93.9187 73.0634 93.852C72.8874 93.7827 72.7221 93.7013 72.5674 93.608C72.4127 93.5147 72.2781 93.4107 72.1634 93.296L72.5634 92.664C72.5954 92.6187 72.6367 92.5813 72.6874 92.552C72.7407 92.52 72.7981 92.504 72.8594 92.504C72.9394 92.504 73.0194 92.5293 73.0994 92.58C73.1821 92.6307 73.2741 92.6867 73.3754 92.748C73.4794 92.8093 73.5981 92.8653 73.7314 92.916C73.8647 92.9667 74.0221 92.992 74.2034 92.992C74.4487 92.992 74.6394 92.9387 74.7754 92.832C74.9114 92.7227 74.9794 92.5507 74.9794 92.316C74.9794 92.18 74.9421 92.0693 74.8674 91.984C74.7927 91.8987 74.6941 91.828 74.5714 91.772C74.4514 91.716 74.3141 91.6667 74.1594 91.624C74.0047 91.5813 73.8461 91.5347 73.6834 91.484C73.5207 91.4307 73.3621 91.3667 73.2074 91.292C73.0527 91.2147 72.9141 91.1147 72.7914 90.992C72.6714 90.8667 72.5741 90.712 72.4994 90.528C72.4247 90.3413 72.3874 90.112 72.3874 89.84C72.3874 89.6213 72.4314 89.408 72.5194 89.2C72.6074 88.992 72.7367 88.8067 72.9074 88.644C73.0781 88.4813 73.2874 88.352 73.5354 88.256C73.7834 88.1573 74.0674 88.108 74.3874 88.108C74.5661 88.108 74.7394 88.1227 74.9074 88.152C75.0781 88.1787 75.2394 88.22 75.3914 88.276C75.5434 88.3293 75.6847 88.3947 75.8154 88.472C75.9487 88.5467 76.0674 88.632 76.1714 88.728L75.8354 89.356ZM79.3611 91.428C79.3611 91.3293 79.3478 91.2333 79.3211 91.14C79.2971 91.0467 79.2558 90.964 79.1971 90.892C79.1411 90.8173 79.0664 90.7573 78.9731 90.712C78.8798 90.6667 78.7664 90.644 78.6331 90.644C78.3984 90.644 78.2144 90.712 78.0811 90.848C77.9478 90.9813 77.8598 91.1747 77.8171 91.428H79.3611ZM77.8011 92.148C77.8411 92.4947 77.9464 92.7467 78.1171 92.904C78.2878 93.0587 78.5078 93.136 78.7771 93.136C78.9211 93.136 79.0451 93.1187 79.1491 93.084C79.2531 93.0493 79.3451 93.0107 79.4251 92.968C79.5078 92.9253 79.5824 92.8867 79.6491 92.852C79.7184 92.8173 79.7904 92.8 79.8651 92.8C79.9638 92.8 80.0384 92.836 80.0891 92.908L80.4491 93.352C80.3211 93.4987 80.1824 93.6187 80.0331 93.712C79.8864 93.8027 79.7344 93.8747 79.5771 93.928C79.4224 93.9787 79.2664 94.0133 79.1091 94.032C78.9544 94.0533 78.8064 94.064 78.6651 94.064C78.3744 94.064 78.1011 94.0173 77.8451 93.924C77.5918 93.828 77.3691 93.6867 77.1771 93.5C76.9878 93.3133 76.8371 93.0813 76.7251 92.804C76.6158 92.5267 76.5611 92.204 76.5611 91.836C76.5611 91.5587 76.6078 91.296 76.7011 91.048C76.7971 90.8 76.9331 90.5827 77.1091 90.396C77.2878 90.2093 77.5024 90.0613 77.7531 89.952C78.0064 89.8427 78.2918 89.788 78.6091 89.788C78.8838 89.788 79.1344 89.8307 79.3611 89.916C79.5904 90.0013 79.7864 90.1253 79.9491 90.288C80.1144 90.4507 80.2424 90.6507 80.3331 90.888C80.4264 91.1227 80.4731 91.3893 80.4731 91.688C80.4731 91.7813 80.4691 91.8573 80.4611 91.916C80.4531 91.9747 80.4384 92.0213 80.4171 92.056C80.3958 92.0907 80.3664 92.1147 80.3291 92.128C80.2944 92.1413 80.2491 92.148 80.1931 92.148H77.8011ZM82.1176 90.3C82.1976 90.2253 82.2803 90.156 82.3656 90.092C82.4509 90.028 82.5416 89.9747 82.6376 89.932C82.7363 89.8867 82.8416 89.852 82.9536 89.828C83.0683 89.8013 83.1923 89.788 83.3256 89.788C83.5523 89.788 83.7523 89.828 83.9256 89.908C84.1016 89.9853 84.2496 90.0947 84.3696 90.236C84.4896 90.3747 84.5803 90.5413 84.6416 90.736C84.7029 90.928 84.7336 91.1373 84.7336 91.364V94H83.4936V91.364C83.4936 91.1613 83.4469 91.004 83.3536 90.892C83.2603 90.7773 83.1229 90.72 82.9416 90.72C82.8056 90.72 82.6776 90.7493 82.5576 90.808C82.4403 90.864 82.3256 90.9413 82.2136 91.04V94H80.9736V89.852H81.7416C81.8963 89.852 81.9976 89.9213 82.0456 90.06L82.1176 90.3ZM87.9321 90.964C87.8388 90.86 87.7374 90.788 87.6281 90.748C87.5188 90.7053 87.4041 90.684 87.2841 90.684C87.1694 90.684 87.0641 90.7067 86.9681 90.752C86.8721 90.7973 86.7881 90.8707 86.7161 90.972C86.6468 91.0707 86.5921 91.2 86.5521 91.36C86.5121 91.52 86.4921 91.7133 86.4921 91.94C86.4921 92.1587 86.5081 92.3427 86.5401 92.492C86.5721 92.6413 86.6161 92.7627 86.6721 92.856C86.7308 92.9467 86.8001 93.012 86.8801 93.052C86.9601 93.092 87.0494 93.112 87.1481 93.112C87.2388 93.112 87.3201 93.104 87.3921 93.088C87.4668 93.0693 87.5348 93.044 87.5961 93.012C87.6574 92.98 87.7148 92.94 87.7681 92.892C87.8241 92.8413 87.8788 92.784 87.9321 92.72V90.964ZM89.1721 88.012V94H88.4041C88.2494 94 88.1481 93.9307 88.1001 93.792L88.0041 93.476C87.9214 93.564 87.8348 93.644 87.7441 93.716C87.6534 93.788 87.5548 93.8507 87.4481 93.904C87.3441 93.9547 87.2308 93.9933 87.1081 94.02C86.9881 94.0493 86.8574 94.064 86.7161 94.064C86.5001 94.064 86.3001 94.016 86.1161 93.92C85.9321 93.824 85.7734 93.6853 85.6401 93.504C85.5068 93.3227 85.4014 93.1013 85.3241 92.84C85.2494 92.576 85.2121 92.276 85.2121 91.94C85.2121 91.6307 85.2548 91.344 85.3401 91.08C85.4254 90.8133 85.5454 90.584 85.7001 90.392C85.8574 90.1973 86.0454 90.0453 86.2641 89.936C86.4828 89.8267 86.7241 89.772 86.9881 89.772C87.2041 89.772 87.3854 89.8027 87.5321 89.864C87.6788 89.9253 87.8121 90.008 87.9321 90.112V88.012H89.1721ZM93.1054 91.416C92.9587 91.5387 92.8547 91.6707 92.7934 91.812C92.7321 91.9507 92.7014 92.0987 92.7014 92.256C92.7014 92.384 92.7201 92.5 92.7574 92.604C92.7974 92.708 92.8534 92.7973 92.9254 92.872C92.9974 92.9467 93.0827 93.0053 93.1814 93.048C93.2827 93.088 93.3947 93.108 93.5174 93.108C93.6961 93.108 93.8627 93.0853 94.0174 93.04C94.1721 92.992 94.3161 92.9253 94.4494 92.84L93.1054 91.416ZM97.0934 94H95.8694C95.8081 94 95.7534 93.9973 95.7054 93.992C95.6574 93.984 95.6121 93.972 95.5694 93.956C95.5294 93.94 95.4907 93.9173 95.4534 93.888C95.4161 93.8587 95.3761 93.8213 95.3334 93.776L95.0814 93.512C94.8281 93.688 94.5507 93.824 94.2494 93.92C93.9507 94.016 93.6321 94.064 93.2934 94.064C93.0614 94.064 92.8334 94.024 92.6094 93.944C92.3881 93.864 92.1907 93.7507 92.0174 93.604C91.8441 93.4547 91.7041 93.2747 91.5974 93.064C91.4907 92.8533 91.4374 92.6173 91.4374 92.356C91.4374 92.18 91.4641 92.0133 91.5174 91.856C91.5734 91.6987 91.6507 91.5533 91.7494 91.42C91.8507 91.284 91.9694 91.1613 92.1054 91.052C92.2414 90.94 92.3921 90.8427 92.5574 90.76C92.4294 90.5653 92.3374 90.3747 92.2814 90.188C92.2254 90.0013 92.1974 89.82 92.1974 89.644C92.1974 89.436 92.2347 89.24 92.3094 89.056C92.3867 88.8693 92.4974 88.7067 92.6414 88.568C92.7881 88.4267 92.9667 88.3147 93.1774 88.232C93.3907 88.1493 93.6347 88.108 93.9094 88.108C94.1681 88.108 94.3961 88.1467 94.5934 88.224C94.7907 88.2987 94.9574 88.3987 95.0934 88.524C95.2294 88.6467 95.3361 88.7893 95.4134 88.952C95.4907 89.1147 95.5387 89.2813 95.5574 89.452L94.7574 89.612C94.6161 89.644 94.5121 89.588 94.4454 89.444C94.3841 89.3053 94.3121 89.2 94.2294 89.128C94.1494 89.056 94.0427 89.02 93.9094 89.02C93.8161 89.02 93.7347 89.0373 93.6654 89.072C93.5961 89.1067 93.5374 89.152 93.4894 89.208C93.4441 89.264 93.4094 89.3293 93.3854 89.404C93.3614 89.4787 93.3494 89.556 93.3494 89.636C93.3494 89.7053 93.3547 89.772 93.3654 89.836C93.3787 89.8973 93.4001 89.9613 93.4294 90.028C93.4587 90.092 93.4974 90.1587 93.5454 90.228C93.5961 90.2973 93.6587 90.3733 93.7334 90.456L95.1734 91.972C95.2454 91.8147 95.3041 91.6493 95.3494 91.476C95.3947 91.3 95.4241 91.12 95.4374 90.936C95.4454 90.8613 95.4707 90.8027 95.5134 90.76C95.5561 90.7173 95.6134 90.696 95.6854 90.696H96.4694C96.4694 91.0827 96.4174 91.4453 96.3134 91.784C96.2094 92.1227 96.0627 92.432 95.8734 92.712L97.0934 94ZM76.5038 98.98H78.5758V101.44C78.2772 101.659 77.9585 101.817 77.6198 101.916C77.2838 102.015 76.9318 102.064 76.5638 102.064C76.0838 102.064 75.6465 101.989 75.2518 101.84C74.8598 101.688 74.5238 101.48 74.2438 101.216C73.9638 100.949 73.7478 100.635 73.5958 100.272C73.4438 99.9067 73.3678 99.5107 73.3678 99.084C73.3678 98.6493 73.4398 98.2507 73.5838 97.888C73.7278 97.5227 73.9332 97.208 74.1998 96.944C74.4692 96.68 74.7932 96.4747 75.1718 96.328C75.5532 96.1813 75.9785 96.108 76.4478 96.108C76.6905 96.108 76.9185 96.128 77.1318 96.168C77.3452 96.208 77.5412 96.2627 77.7198 96.332C77.9012 96.4013 78.0665 96.484 78.2158 96.58C78.3652 96.676 78.4985 96.78 78.6158 96.892L78.2238 97.488C78.1625 97.5813 78.0825 97.6387 77.9838 97.66C77.8878 97.6813 77.7838 97.6573 77.6718 97.588C77.5652 97.524 77.4638 97.4693 77.3678 97.424C77.2745 97.376 77.1785 97.3373 77.0798 97.308C76.9812 97.2787 76.8772 97.2573 76.7678 97.244C76.6585 97.2307 76.5358 97.224 76.3998 97.224C76.1465 97.224 75.9185 97.2693 75.7158 97.36C75.5132 97.448 75.3398 97.5733 75.1958 97.736C75.0545 97.8987 74.9452 98.0947 74.8678 98.324C74.7905 98.5507 74.7518 98.804 74.7518 99.084C74.7518 99.3933 74.7945 99.668 74.8798 99.908C74.9652 100.148 75.0852 100.351 75.2398 100.516C75.3972 100.681 75.5838 100.808 75.7998 100.896C76.0185 100.981 76.2598 101.024 76.5238 101.024C76.6865 101.024 76.8332 101.008 76.9638 100.976C77.0972 100.944 77.2265 100.901 77.3518 100.848V99.964H76.7758C76.6905 99.964 76.6238 99.9413 76.5758 99.896C76.5278 99.8507 76.5038 99.7933 76.5038 99.724V98.98ZM80.4611 96.012V102H79.2211V96.012H80.4611ZM83.0912 97.788C83.4059 97.788 83.6926 97.8373 83.9512 97.936C84.2099 98.0347 84.4312 98.176 84.6152 98.36C84.8019 98.544 84.9459 98.768 85.0472 99.032C85.1512 99.2933 85.2032 99.588 85.2032 99.916C85.2032 100.247 85.1512 100.545 85.0472 100.812C84.9459 101.076 84.8019 101.301 84.6152 101.488C84.4312 101.672 84.2099 101.815 83.9512 101.916C83.6926 102.015 83.4059 102.064 83.0912 102.064C82.7739 102.064 82.4846 102.015 82.2232 101.916C81.9646 101.815 81.7406 101.672 81.5512 101.488C81.3646 101.301 81.2192 101.076 81.1152 100.812C81.0139 100.545 80.9632 100.247 80.9632 99.916C80.9632 99.588 81.0139 99.2933 81.1152 99.032C81.2192 98.768 81.3646 98.544 81.5512 98.36C81.7406 98.176 81.9646 98.0347 82.2232 97.936C82.4846 97.8373 82.7739 97.788 83.0912 97.788ZM83.0912 101.144C83.3766 101.144 83.5859 101.044 83.7192 100.844C83.8552 100.641 83.9232 100.335 83.9232 99.924C83.9232 99.5133 83.8552 99.208 83.7192 99.008C83.5859 98.808 83.3766 98.708 83.0912 98.708C82.7979 98.708 82.5832 98.808 82.4472 99.008C82.3112 99.208 82.2432 99.5133 82.2432 99.924C82.2432 100.335 82.3112 100.641 82.4472 100.844C82.5832 101.044 82.7979 101.144 83.0912 101.144ZM86.9477 100.872C87.041 100.973 87.1423 101.045 87.2517 101.088C87.361 101.131 87.4717 101.152 87.5837 101.152C87.701 101.152 87.809 101.131 87.9077 101.088C88.0063 101.043 88.0903 100.971 88.1597 100.872C88.2317 100.771 88.2877 100.639 88.3277 100.476C88.3677 100.311 88.3877 100.108 88.3877 99.868C88.3877 99.66 88.3717 99.484 88.3397 99.34C88.3103 99.1933 88.265 99.0747 88.2037 98.984C88.145 98.8907 88.0703 98.824 87.9797 98.784C87.8917 98.7413 87.7903 98.72 87.6757 98.72C87.5237 98.72 87.3917 98.7533 87.2797 98.82C87.1677 98.8867 87.057 98.984 86.9477 99.112V100.872ZM86.9477 98.292C87.1077 98.14 87.2823 98.0187 87.4717 97.928C87.6637 97.8347 87.877 97.788 88.1117 97.788C88.3463 97.788 88.5597 97.836 88.7517 97.932C88.9437 98.028 89.1077 98.1653 89.2437 98.344C89.3797 98.52 89.4837 98.7333 89.5557 98.984C89.6303 99.2347 89.6677 99.5147 89.6677 99.824C89.6677 100.16 89.625 100.465 89.5397 100.74C89.4543 101.015 89.333 101.251 89.1757 101.448C89.021 101.643 88.8357 101.795 88.6197 101.904C88.4037 102.011 88.165 102.064 87.9037 102.064C87.7783 102.064 87.6663 102.052 87.5677 102.028C87.469 102.004 87.3783 101.971 87.2957 101.928C87.213 101.883 87.137 101.829 87.0677 101.768C87.001 101.707 86.9357 101.64 86.8717 101.568L86.8277 101.776C86.8063 101.861 86.7717 101.92 86.7237 101.952C86.6757 101.984 86.6117 102 86.5317 102H85.7077V96.012H86.9477V98.292ZM92.3214 100.312C92.0734 100.323 91.8694 100.344 91.7094 100.376C91.5494 100.408 91.4227 100.448 91.3294 100.496C91.2361 100.544 91.1707 100.599 91.1334 100.66C91.0987 100.721 91.0814 100.788 91.0814 100.86C91.0814 101.001 91.1201 101.101 91.1974 101.16C91.2747 101.216 91.3881 101.244 91.5374 101.244C91.6974 101.244 91.8374 101.216 91.9574 101.16C92.0774 101.104 92.1987 101.013 92.3214 100.888V100.312ZM90.0894 98.428C90.3401 98.2067 90.6174 98.0427 90.9214 97.936C91.2281 97.8267 91.5561 97.772 91.9054 97.772C92.1561 97.772 92.3814 97.8133 92.5814 97.896C92.7841 97.976 92.9547 98.0893 93.0934 98.236C93.2347 98.38 93.3427 98.552 93.4174 98.752C93.4921 98.952 93.5294 99.1707 93.5294 99.408V102H92.9614C92.8441 102 92.7547 101.984 92.6934 101.952C92.6347 101.92 92.5854 101.853 92.5454 101.752L92.4574 101.524C92.3534 101.612 92.2534 101.689 92.1574 101.756C92.0614 101.823 91.9614 101.88 91.8574 101.928C91.7561 101.973 91.6467 102.007 91.5294 102.028C91.4147 102.052 91.2867 102.064 91.1454 102.064C90.9561 102.064 90.7841 102.04 90.6294 101.992C90.4747 101.941 90.3427 101.868 90.2334 101.772C90.1267 101.676 90.0441 101.557 89.9854 101.416C89.9267 101.272 89.8974 101.107 89.8974 100.92C89.8974 100.771 89.9347 100.62 90.0094 100.468C90.0841 100.313 90.2134 100.173 90.3974 100.048C90.5814 99.92 90.8294 99.8133 91.1414 99.728C91.4534 99.6427 91.8467 99.5947 92.3214 99.584V99.408C92.3214 99.1653 92.2707 98.9907 92.1694 98.884C92.0707 98.7747 91.9294 98.72 91.7454 98.72C91.5987 98.72 91.4787 98.736 91.3854 98.768C91.2921 98.8 91.2081 98.836 91.1334 98.876C91.0614 98.916 90.9907 98.952 90.9214 98.984C90.8521 99.016 90.7694 99.032 90.6734 99.032C90.5881 99.032 90.5161 99.0107 90.4574 98.968C90.3987 98.9253 90.3507 98.8747 90.3134 98.816L90.0894 98.428ZM95.442 96.012V102H94.202V96.012H95.442Z" fill="#B4B4B4"/>
<path opacity="0.5" d="M101.5 83H100.5V106H101.5V83Z" fill="black"/>
<rect x="103" y="83.5" width="30" height="22" rx="1" fill="#FF9000"/>
<rect x="103" y="83.5" width="30" height="22" rx="1" stroke="#FF9000"/>
<path d="M116.842 95.772L116.302 94.176C116.262 94.0747 116.219 93.956 116.174 93.82C116.129 93.6813 116.083 93.532 116.038 93.372C115.998 93.5347 115.955 93.6853 115.91 93.824C115.865 93.9627 115.822 94.0827 115.782 94.184L115.246 95.772H116.842ZM118.99 98H117.942C117.825 98 117.73 97.9733 117.658 97.92C117.586 97.864 117.531 97.7933 117.494 97.708L117.15 96.692H114.934L114.59 97.708C114.561 97.7827 114.507 97.8507 114.43 97.912C114.355 97.9707 114.262 98 114.15 98H113.094L115.35 92.172H116.734L118.99 98ZM120.426 92.012V98H119.186V92.012H120.426ZM122.384 92.012V98H121.144V92.012H122.384Z" fill="black"/>
<path d="M2.5 82H132.5V81H2.5V82ZM134 83.5V105.5H135V83.5H134ZM132.5 107H2.5V108H132.5V107ZM1 105.5V83.5H0V105.5H1ZM2.5 107C1.67157 107 1 106.328 1 105.5H0C0 106.881 1.11929 108 2.5 108V107ZM134 105.5C134 106.328 133.328 107 132.5 107V108C133.881 108 135 106.881 135 105.5H134ZM132.5 82C133.328 82 134 82.6716 134 83.5H135C135 82.1193 133.881 81 132.5 81V82ZM2.5 81C1.11929 81 0 82.1193 0 83.5H1C1 82.6716 1.67157 82 2.5 82V81Z" fill="black"/>
</svg>
