<svg width="37" height="12" viewBox="0 0 37 12" fill="none" xmlns="http://www.w3.org/2000/svg">
<path d="M0.5 2.5C0.5 1.39543 1.39543 0.5 2.5 0.5H34.5C35.6046 0.5 36.5 1.39543 36.5 2.5V9.5C36.5 10.6046 35.6046 11.5 34.5 11.5H2.5C1.39543 11.5 0.5 10.6046 0.5 9.5V2.5Z" fill="#242424"/>
<path d="M14.0187 4.356C13.9787 4.42 13.936 4.468 13.8907 4.5C13.848 4.532 13.792 4.548 13.7227 4.548C13.6614 4.548 13.5947 4.52933 13.5227 4.492C13.4534 4.452 13.3734 4.408 13.2827 4.36C13.1947 4.312 13.0934 4.26933 12.9787 4.232C12.864 4.192 12.7334 4.172 12.5867 4.172C12.3334 4.172 12.144 4.22667 12.0187 4.336C11.896 4.44267 11.8347 4.588 11.8347 4.772C11.8347 4.88933 11.872 4.98667 11.9467 5.064C12.0214 5.14133 12.1187 5.208 12.2387 5.264C12.3614 5.32 12.5 5.372 12.6547 5.42C12.812 5.46533 12.972 5.51733 13.1347 5.576C13.2974 5.632 13.456 5.69867 13.6107 5.776C13.768 5.85333 13.9067 5.952 14.0267 6.072C14.1494 6.192 14.248 6.33867 14.3227 6.512C14.3974 6.68267 14.4347 6.88933 14.4347 7.132C14.4347 7.40133 14.388 7.65333 14.2947 7.888C14.2014 8.12267 14.0654 8.328 13.8867 8.504C13.7107 8.67733 13.492 8.81467 13.2307 8.916C12.972 9.01467 12.6774 9.064 12.3467 9.064C12.1654 9.064 11.98 9.04533 11.7907 9.008C11.604 8.97067 11.4227 8.91867 11.2467 8.852C11.0707 8.78267 10.9054 8.70133 10.7507 8.608C10.596 8.51467 10.4614 8.41067 10.3467 8.296L10.7467 7.664C10.7787 7.61867 10.82 7.58133 10.8707 7.552C10.924 7.52 10.9814 7.504 11.0427 7.504C11.1227 7.504 11.2027 7.52933 11.2827 7.58C11.3654 7.63067 11.4574 7.68667 11.5587 7.748C11.6627 7.80933 11.7814 7.86533 11.9147 7.916C12.048 7.96667 12.2054 7.992 12.3867 7.992C12.632 7.992 12.8227 7.93867 12.9587 7.832C13.0947 7.72267 13.1627 7.55067 13.1627 7.316C13.1627 7.18 13.1254 7.06933 13.0507 6.984C12.976 6.89867 12.8774 6.828 12.7547 6.772C12.6347 6.716 12.4974 6.66667 12.3427 6.624C12.188 6.58133 12.0294 6.53467 11.8667 6.484C11.704 6.43067 11.5454 6.36667 11.3907 6.292C11.236 6.21467 11.0974 6.11467 10.9747 5.992C10.8547 5.86667 10.7574 5.712 10.6827 5.528C10.608 5.34133 10.5707 5.112 10.5707 4.84C10.5707 4.62133 10.6147 4.408 10.7027 4.2C10.7907 3.992 10.92 3.80667 11.0907 3.644C11.2614 3.48133 11.4707 3.352 11.7187 3.256C11.9667 3.15733 12.2507 3.108 12.5707 3.108C12.7494 3.108 12.9227 3.12267 13.0907 3.152C13.2614 3.17867 13.4227 3.22 13.5747 3.276C13.7267 3.32933 13.868 3.39467 13.9987 3.472C14.132 3.54667 14.2507 3.632 14.3547 3.728L14.0187 4.356ZM17.0497 7.312C16.8017 7.32267 16.5977 7.344 16.4377 7.376C16.2777 7.408 16.151 7.448 16.0577 7.496C15.9644 7.544 15.899 7.59867 15.8617 7.66C15.827 7.72133 15.8097 7.788 15.8097 7.86C15.8097 8.00133 15.8484 8.10133 15.9257 8.16C16.003 8.216 16.1164 8.244 16.2657 8.244C16.4257 8.244 16.5657 8.216 16.6857 8.16C16.8057 8.104 16.927 8.01333 17.0497 7.888V7.312ZM14.8177 5.428C15.0684 5.20667 15.3457 5.04267 15.6497 4.936C15.9564 4.82667 16.2844 4.772 16.6337 4.772C16.8844 4.772 17.1097 4.81333 17.3097 4.896C17.5124 4.976 17.683 5.08933 17.8217 5.236C17.963 5.38 18.071 5.552 18.1457 5.752C18.2204 5.952 18.2577 6.17067 18.2577 6.408V9H17.6897C17.5724 9 17.483 8.984 17.4217 8.952C17.363 8.92 17.3137 8.85333 17.2737 8.752L17.1857 8.524C17.0817 8.612 16.9817 8.68933 16.8857 8.756C16.7897 8.82267 16.6897 8.88 16.5857 8.928C16.4844 8.97333 16.375 9.00667 16.2577 9.028C16.143 9.052 16.015 9.064 15.8737 9.064C15.6844 9.064 15.5124 9.04 15.3577 8.992C15.203 8.94133 15.071 8.868 14.9617 8.772C14.855 8.676 14.7724 8.55733 14.7137 8.416C14.655 8.272 14.6257 8.10667 14.6257 7.92C14.6257 7.77067 14.663 7.62 14.7377 7.468C14.8124 7.31333 14.9417 7.17333 15.1257 7.048C15.3097 6.92 15.5577 6.81333 15.8697 6.728C16.1817 6.64267 16.575 6.59467 17.0497 6.584V6.408C17.0497 6.16533 16.999 5.99067 16.8977 5.884C16.799 5.77467 16.6577 5.72 16.4737 5.72C16.327 5.72 16.207 5.736 16.1137 5.768C16.0204 5.8 15.9364 5.836 15.8617 5.876C15.7897 5.916 15.719 5.952 15.6497 5.984C15.5804 6.016 15.4977 6.032 15.4017 6.032C15.3164 6.032 15.2444 6.01067 15.1857 5.968C15.127 5.92533 15.079 5.87467 15.0417 5.816L14.8177 5.428ZM22.7289 4.852L21.1209 9H19.9929L18.3849 4.852H19.4169C19.5049 4.852 19.5783 4.87333 19.6369 4.916C19.6983 4.956 19.7396 5.00667 19.7609 5.068L20.3369 6.928C20.3876 7.08 20.4316 7.228 20.4689 7.372C20.5089 7.516 20.5436 7.66 20.5729 7.804C20.6316 7.516 20.7129 7.224 20.8169 6.928L21.4169 5.068C21.4383 5.00667 21.4783 4.956 21.5369 4.916C21.5956 4.87333 21.6649 4.852 21.7449 4.852H22.7289ZM25.4528 6.428C25.4528 6.32933 25.4395 6.23333 25.4128 6.14C25.3888 6.04667 25.3475 5.964 25.2888 5.892C25.2328 5.81733 25.1581 5.75733 25.0648 5.712C24.9715 5.66667 24.8581 5.644 24.7248 5.644C24.4901 5.644 24.3061 5.712 24.1728 5.848C24.0395 5.98133 23.9515 6.17467 23.9088 6.428H25.4528ZM23.8928 7.148C23.9328 7.49467 24.0381 7.74667 24.2088 7.904C24.3795 8.05867 24.5995 8.136 24.8688 8.136C25.0128 8.136 25.1368 8.11867 25.2408 8.084C25.3448 8.04933 25.4368 8.01067 25.5168 7.968C25.5995 7.92533 25.6741 7.88667 25.7408 7.852C25.8101 7.81733 25.8821 7.8 25.9568 7.8C26.0555 7.8 26.1301 7.836 26.1808 7.908L26.5408 8.352C26.4128 8.49867 26.2741 8.61867 26.1248 8.712C25.9781 8.80267 25.8261 8.87467 25.6688 8.928C25.5141 8.97867 25.3581 9.01333 25.2008 9.032C25.0461 9.05333 24.8981 9.064 24.7568 9.064C24.4661 9.064 24.1928 9.01733 23.9368 8.924C23.6835 8.828 23.4608 8.68667 23.2688 8.5C23.0795 8.31333 22.9288 8.08133 22.8168 7.804C22.7075 7.52667 22.6528 7.204 22.6528 6.836C22.6528 6.55867 22.6995 6.296 22.7928 6.048C22.8888 5.8 23.0248 5.58267 23.2008 5.396C23.3795 5.20933 23.5941 5.06133 23.8448 4.952C24.0981 4.84267 24.3835 4.788 24.7008 4.788C24.9755 4.788 25.2261 4.83067 25.4528 4.916C25.6821 5.00133 25.8781 5.12533 26.0408 5.288C26.2061 5.45067 26.3341 5.65067 26.4248 5.888C26.5181 6.12267 26.5648 6.38933 26.5648 6.688C26.5648 6.78133 26.5608 6.85733 26.5528 6.916C26.5448 6.97467 26.5301 7.02133 26.5088 7.056C26.4875 7.09067 26.4581 7.11467 26.4208 7.128C26.3861 7.14133 26.3408 7.148 26.2848 7.148H23.8928Z" fill="#B4B4B4"/>
<path d="M2.5 1H34.5V0H2.5V1ZM36 2.5V9.5H37V2.5H36ZM34.5 11H2.5V12H34.5V11ZM1 9.5V2.5H0V9.5H1ZM2.5 11C1.67157 11 1 10.3284 1 9.5H0C0 10.8807 1.11929 12 2.5 12V11ZM36 9.5C36 10.3284 35.3284 11 34.5 11V12C35.8807 12 37 10.8807 37 9.5H36ZM34.5 1C35.3284 1 36 1.67157 36 2.5H37C37 1.11929 35.8807 0 34.5 0V1ZM2.5 0C1.11929 0 0 1.11929 0 2.5H1C1 1.67157 1.67157 1 2.5 1V0Z" fill="black"/>
</svg>
