<?xml version="1.0" encoding="utf-8"?>
<svg width="49px" height="24px" viewBox="0 0 49 24" version="1.1" xmlns:xlink="http://www.w3.org/1999/xlink" xmlns="http://www.w3.org/2000/svg">
  <desc>Created with Lunacy</desc>
  <defs>
    <rect width="49" height="24" id="artboard_1" />
    <clipPath id="clip_1">
      <use xlink:href="#artboard_1" clip-rule="evenodd" />
    </clipPath>
  </defs>
  <g id="bmp00304" clip-path="url(#clip_1)">
    <g id="On" transform="translate(0.5 12.5)">
      <path d="M1.999 0L46.001 0Q46.0992 0 46.1969 0.00962573Q46.2947 0.0192515 46.391 0.0384102Q46.4873 0.057569 46.5813 0.0860763Q46.6752 0.114584 46.766 0.152165Q46.8567 0.189746 46.9433 0.236039Q47.0299 0.282333 47.1116 0.336892Q47.1932 0.391452 47.2691 0.453752Q47.3451 0.516052 47.4145 0.585494Q47.4839 0.654935 47.5462 0.730848Q47.6085 0.806761 47.6631 0.888415Q47.7177 0.970069 47.764 1.05668Q47.8102 1.14329 47.8478 1.23402Q47.8854 1.32474 47.9139 1.41872Q47.9424 1.5127 47.9616 1.60901Q47.9807 1.70533 47.9904 1.80306Q48 1.9008 48 1.999L48 9.001Q48 9.09921 47.9904 9.19694Q47.9807 9.29467 47.9616 9.39099Q47.9424 9.4873 47.9139 9.58128Q47.8854 9.67525 47.8478 9.76598Q47.8102 9.85671 47.764 9.94332Q47.7177 10.0299 47.6631 10.1116Q47.6085 10.1932 47.5462 10.2692Q47.4839 10.3451 47.4145 10.4145Q47.3451 10.4839 47.2692 10.5462Q47.1932 10.6085 47.1116 10.6631Q47.0299 10.7177 46.9433 10.764Q46.8567 10.8103 46.766 10.8478Q46.6753 10.8854 46.5813 10.9139Q46.4873 10.9424 46.391 10.9616Q46.2947 10.9807 46.1969 10.9904Q46.0992 11 46.001 11L1.999 11Q1.9008 11 1.80306 10.9904Q1.70533 10.9807 1.60901 10.9616Q1.5127 10.9424 1.41872 10.9139Q1.32474 10.8854 1.23402 10.8478Q1.14329 10.8103 1.05668 10.764Q0.970069 10.7177 0.888415 10.6631Q0.806761 10.6085 0.730848 10.5462Q0.654935 10.4839 0.585494 10.4145Q0.516052 10.3451 0.453752 10.2692Q0.391452 10.1932 0.336892 10.1116Q0.282333 10.0299 0.236039 9.94332Q0.189746 9.85671 0.152165 9.76598Q0.114584 9.67525 0.0860763 9.58128Q0.057569 9.4873 0.0384102 9.39098Q0.0192515 9.29467 0.00962573 9.19694Q0 9.09921 0 9.001L0 1.999Q0 1.9008 0.00962573 1.80306Q0.0192515 1.70533 0.0384102 1.60901Q0.057569 1.5127 0.0860763 1.41872Q0.114584 1.32474 0.152165 1.23402Q0.189746 1.14329 0.236039 1.05668Q0.282333 0.970069 0.336892 0.888415Q0.391452 0.806761 0.453752 0.730848Q0.516052 0.654935 0.585494 0.585494Q0.654935 0.516052 0.730848 0.453752Q0.806761 0.391452 0.888415 0.336892Q0.970069 0.282333 1.05668 0.236039Q1.14329 0.189746 1.23402 0.152165Q1.32474 0.114584 1.41872 0.0860763Q1.5127 0.057569 1.60901 0.0384102Q1.70533 0.0192515 1.80306 0.00962573Q1.9008 0 1.999 0Z" id="Rectangle" fill="#242424" fill-rule="evenodd" stroke="#0F0F0F" stroke-width="1" />
      <path d="M0.999 0L44.001 0Q44.0994 0 44.1959 0.0191955Q44.2924 0.038391 44.3833 0.0760443Q44.4742 0.113698 44.556 0.168362Q44.6378 0.223026 44.7074 0.2926Q44.777 0.362175 44.8316 0.443985Q44.8863 0.525796 44.924 0.616699Q44.9616 0.707602 44.9808 0.804105Q45 0.900607 45 0.999L45 7.001Q45 7.09939 44.9808 7.19589Q44.9616 7.2924 44.924 7.3833Q44.8863 7.4742 44.8316 7.55601Q44.777 7.63782 44.7074 7.7074Q44.6378 7.77697 44.556 7.83164Q44.4742 7.8863 44.3833 7.92395Q44.2924 7.96161 44.1959 7.9808Q44.0994 8 44.001 8L0.999 8Q0.900607 8 0.804105 7.9808Q0.707602 7.96161 0.616699 7.92395Q0.525796 7.8863 0.443985 7.83164Q0.362175 7.77697 0.2926 7.7074Q0.223026 7.63782 0.168362 7.55601Q0.113698 7.4742 0.0760443 7.3833Q0.038391 7.2924 0.0191955 7.19589Q0 7.09939 0 7.001L0 0.999Q0 0.900607 0.0191955 0.804105Q0.038391 0.707602 0.0760443 0.616699Q0.113698 0.525796 0.168362 0.443985Q0.223026 0.362175 0.2926 0.2926Q0.362175 0.223026 0.443985 0.168362Q0.525796 0.113698 0.616699 0.0760443Q0.707602 0.038391 0.804105 0.0191955Q0.900607 0 0.999 0L0.999 0Z" transform="translate(1.5 1.5)" id="Selection" fill="#FF9000" fill-rule="evenodd" stroke="none" />
      <g id="Horizontal" fill="#151515" transform="translate(2.78 0)">
        <path d="M41.7195 8.7535L41.7195 2.0665L40.608 2.0665L40.608 8.7535L41.7195 8.7535ZM17.2575 3.061Q17.316 2.935 17.316 2.791Q17.316 2.6425 17.2575 2.512Q17.199 2.3815 17.1022 2.287Q17.0055 2.1925 16.875 2.13625Q16.7445 2.08 16.596 2.08Q16.452 2.08 16.3237 2.13625Q16.1955 2.1925 16.101 2.287Q16.0065 2.3815 15.9502 2.512Q15.894 2.6425 15.894 2.791Q15.894 2.935 15.9502 3.061Q16.0065 3.187 16.101 3.2815Q16.1955 3.376 16.3237 3.43225Q16.452 3.4885 16.596 3.4885Q16.7445 3.4885 16.875 3.43225Q17.0055 3.376 17.1022 3.2815Q17.199 3.187 17.2575 3.061ZM6.21 8.7535L6.21 2.2465L4.995 2.2465L4.995 5.0455L1.9395 5.0455L1.9395 2.2465L0.7245 2.2465L0.7245 8.7535L1.9395 8.7535L1.9395 5.9095L4.995 5.9095L4.995 8.7535L6.21 8.7535ZM33.2932 8.48575Q33.615 8.8255 34.218 8.8255Q34.5555 8.8255 34.8705 8.722Q35.1855 8.6185 35.4285 8.416L35.0955 7.876Q35.0595 7.8265 35.028 7.80175Q34.9965 7.777 34.947 7.777Q34.9065 7.777 34.866 7.80175Q34.8255 7.8265 34.7737 7.8535Q34.722 7.8805 34.6522 7.90525Q34.5825 7.93 34.479 7.93Q34.2945 7.93 34.1887 7.8085Q34.083 7.687 34.083 7.471L34.083 4.969L35.316 4.969L35.316 4.177L34.083 4.177L34.083 2.7235L33.507 2.7235Q33.408 2.7235 33.345 2.773Q33.282 2.8225 33.2595 2.9125L33.0255 4.1725L32.283 4.294L32.283 4.735Q32.283 4.852 32.346 4.9105Q32.409 4.969 32.499 4.969L32.9715 4.969L32.9715 7.5475Q32.9715 8.146 33.2932 8.48575ZM13.7025 4.9375Q13.9185 4.5235 14.2155 4.28725Q14.5125 4.051 14.9175 4.051Q15.237 4.051 15.4305 4.1905L15.3585 5.023Q15.336 5.104 15.2932 5.13775Q15.2505 5.1715 15.1785 5.1715Q15.111 5.1715 14.9782 5.149Q14.8455 5.1265 14.7195 5.1265Q14.535 5.1265 14.391 5.1805Q14.247 5.2345 14.1322 5.33575Q14.0175 5.437 13.9297 5.581Q13.842 5.725 13.7655 5.9095L13.7655 8.7535L12.654 8.7535L12.654 4.1365L13.3065 4.1365Q13.4775 4.1365 13.545 4.19725Q13.6125 4.258 13.635 4.4155L13.7025 4.9375ZM35.919 4.78Q36.7155 4.051 37.836 4.051Q38.241 4.051 38.5605 4.18375Q38.88 4.3165 39.1005 4.55275Q39.321 4.789 39.4357 5.1175Q39.5505 5.446 39.5505 5.8375L39.5505 8.7535L39.0465 8.7535Q38.889 8.7535 38.8035 8.70625Q38.718 8.659 38.6685 8.515L38.5695 8.182Q38.394 8.3395 38.2275 8.45875Q38.061 8.578 37.881 8.659Q37.701 8.74 37.4962 8.78275Q37.2915 8.8255 37.044 8.8255Q36.7515 8.8255 36.504 8.74675Q36.2565 8.668 36.0765 8.5105Q35.8965 8.353 35.7975 8.119Q35.6985 7.885 35.6985 7.5745Q35.6985 7.399 35.757 7.22575Q35.8155 7.0525 35.9482 6.895Q36.081 6.7375 36.2925 6.598Q36.504 6.4585 36.8122 6.355Q37.1205 6.2515 37.53 6.18625Q37.9395 6.121 38.466 6.1075L38.466 5.8375Q38.466 5.374 38.268 5.15125Q38.07 4.9285 37.6965 4.9285Q37.4265 4.9285 37.2487 4.9915Q37.071 5.0545 36.936 5.13325Q36.801 5.212 36.6907 5.275Q36.5805 5.338 36.4455 5.338Q36.3285 5.338 36.2475 5.27725Q36.1665 5.2165 36.117 5.1355L35.919 4.78ZM10.4603 4.231Q10.0395 4.0645 9.5265 4.0645Q9.009 4.0645 8.586 4.231Q8.163 4.3975 7.86375 4.7035Q7.5645 5.0095 7.40025 5.4505Q7.236 5.8915 7.236 6.436Q7.236 6.985 7.40025 7.426Q7.5645 7.867 7.86375 8.1775Q8.163 8.488 8.586 8.6545Q9.009 8.821 9.5265 8.821Q10.0395 8.821 10.4603 8.6545Q10.881 8.488 11.1803 8.1775Q11.4795 7.867 11.6415 7.426Q11.8035 6.985 11.8035 6.436Q11.8035 5.8915 11.6415 5.4505Q11.4795 5.0095 11.1803 4.7035Q10.881 4.3975 10.4603 4.231ZM25.4092 4.231Q24.9885 4.0645 24.4755 4.0645Q23.958 4.0645 23.535 4.231Q23.112 4.3975 22.8127 4.7035Q22.5135 5.0095 22.3492 5.4505Q22.185 5.8915 22.185 6.436Q22.185 6.985 22.3492 7.426Q22.5135 7.867 22.8127 8.1775Q23.112 8.488 23.535 8.6545Q23.958 8.821 24.4755 8.821Q24.9885 8.821 25.4092 8.6545Q25.83 8.488 26.1292 8.1775Q26.4285 7.867 26.5905 7.426Q26.7525 6.985 26.7525 6.436Q26.7525 5.8915 26.5905 5.4505Q26.4285 5.0095 26.1292 4.7035Q25.83 4.3975 25.4092 4.231ZM28.6425 4.7035Q28.782 4.564 28.9372 4.44475Q29.0925 4.3255 29.2657 4.24225Q29.439 4.159 29.637 4.11175Q29.835 4.0645 30.069 4.0645Q30.447 4.0645 30.7395 4.19275Q31.032 4.321 31.2277 4.55275Q31.4235 4.7845 31.5247 5.10625Q31.626 5.428 31.626 5.815L31.626 8.7535L30.5145 8.7535L30.5145 5.815Q30.5145 5.392 30.321 5.16025Q30.1275 4.9285 29.7315 4.9285Q29.4435 4.9285 29.1915 5.059Q28.9395 5.1895 28.7145 5.4145L28.7145 8.7535L27.603 8.7535L27.603 4.1365L28.2825 4.1365Q28.4985 4.1365 28.566 4.339L28.6425 4.7035ZM16.047 8.7535L17.163 8.7535L17.163 4.1365L16.047 4.1365L16.047 8.7535ZM21.6135 4.5955Q21.6135 4.7125 21.573 4.825Q21.5325 4.9375 21.465 5.0095L19.2735 7.8985L21.546 7.8985L21.546 8.7535L17.982 8.7535L17.982 8.29Q17.982 8.2135 18.018 8.10775Q18.054 8.002 18.126 7.9075L20.34 4.987L18.1125 4.987L18.1125 4.1365L21.6135 4.1365L21.6135 4.5955ZM10.3793 7.579Q10.1025 7.966 9.5265 7.966Q8.9415 7.966 8.66025 7.57675Q8.379 7.1875 8.379 6.445Q8.379 5.7025 8.66025 5.30875Q8.9415 4.915 9.5265 4.915Q10.1025 4.915 10.3793 5.3065Q10.656 5.698 10.656 6.445Q10.656 7.192 10.3793 7.579ZM25.3282 7.579Q25.0515 7.966 24.4755 7.966Q23.8905 7.966 23.6092 7.57675Q23.328 7.1875 23.328 6.445Q23.328 5.7025 23.6092 5.30875Q23.8905 4.915 24.4755 4.915Q25.0515 4.915 25.3282 5.3065Q25.605 5.698 25.605 6.445Q25.605 7.192 25.3282 7.579ZM38.466 6.7825Q37.9845 6.805 37.656 6.86575Q37.3275 6.9265 37.1295 7.021Q36.9315 7.1155 36.846 7.2415Q36.7605 7.3675 36.7605 7.516Q36.7605 7.8085 36.9337 7.9345Q37.107 8.0605 37.386 8.0605Q37.728 8.0605 37.9777 7.93675Q38.2275 7.813 38.466 7.561L38.466 6.7825Z" />
      </g>
    </g>
    <g id="Off" transform="translate(0.5 0.5)">
      <path d="M1.999 0L46.001 0Q46.0992 0 46.1969 0.00962573Q46.2947 0.0192515 46.391 0.0384102Q46.4873 0.057569 46.5813 0.0860763Q46.6752 0.114584 46.766 0.152165Q46.8567 0.189746 46.9433 0.236039Q47.0299 0.282333 47.1116 0.336892Q47.1932 0.391452 47.2691 0.453752Q47.3451 0.516052 47.4145 0.585494Q47.4839 0.654935 47.5462 0.730848Q47.6085 0.806761 47.6631 0.888415Q47.7177 0.970069 47.764 1.05668Q47.8102 1.14329 47.8478 1.23402Q47.8854 1.32474 47.9139 1.41872Q47.9424 1.5127 47.9616 1.60901Q47.9807 1.70533 47.9904 1.80306Q48 1.9008 48 1.999L48 9.001Q48 9.09921 47.9904 9.19694Q47.9807 9.29467 47.9616 9.39099Q47.9424 9.4873 47.9139 9.58128Q47.8854 9.67525 47.8478 9.76598Q47.8102 9.85671 47.764 9.94332Q47.7177 10.0299 47.6631 10.1116Q47.6085 10.1932 47.5462 10.2692Q47.4839 10.3451 47.4145 10.4145Q47.3451 10.4839 47.2692 10.5462Q47.1932 10.6085 47.1116 10.6631Q47.0299 10.7177 46.9433 10.764Q46.8567 10.8103 46.766 10.8478Q46.6753 10.8854 46.5813 10.9139Q46.4873 10.9424 46.391 10.9616Q46.2947 10.9807 46.1969 10.9904Q46.0992 11 46.001 11L1.999 11Q1.9008 11 1.80306 10.9904Q1.70533 10.9807 1.60901 10.9616Q1.5127 10.9424 1.41872 10.9139Q1.32474 10.8854 1.23402 10.8478Q1.14329 10.8103 1.05668 10.764Q0.970069 10.7177 0.888415 10.6631Q0.806761 10.6085 0.730848 10.5462Q0.654935 10.4839 0.585494 10.4145Q0.516052 10.3451 0.453752 10.2692Q0.391452 10.1932 0.336892 10.1116Q0.282333 10.0299 0.236039 9.94332Q0.189746 9.85671 0.152165 9.76598Q0.114584 9.67525 0.0860763 9.58128Q0.057569 9.4873 0.0384102 9.39098Q0.0192515 9.29467 0.00962573 9.19694Q0 9.09921 0 9.001L0 1.999Q0 1.9008 0.00962573 1.80306Q0.0192515 1.70533 0.0384102 1.60901Q0.057569 1.5127 0.0860763 1.41872Q0.114584 1.32474 0.152165 1.23402Q0.189746 1.14329 0.236039 1.05668Q0.282333 0.970069 0.336892 0.888415Q0.391452 0.806761 0.453752 0.730848Q0.516052 0.654935 0.585494 0.585494Q0.654935 0.516052 0.730848 0.453752Q0.806761 0.391452 0.888415 0.336892Q0.970069 0.282333 1.05668 0.236039Q1.14329 0.189746 1.23402 0.152165Q1.32474 0.114584 1.41872 0.0860763Q1.5127 0.057569 1.60901 0.0384102Q1.70533 0.0192515 1.80306 0.00962573Q1.9008 0 1.999 0Z" id="Rectangle" fill="#242424" fill-rule="evenodd" stroke="#0F0F0F" stroke-width="1" />
      <g id="Horizontal" fill="#B4B4B4" transform="translate(2.78 0)">
        <path d="M41.7195 8.7535L41.7195 2.0665L40.608 2.0665L40.608 8.7535L41.7195 8.7535ZM17.2575 3.061Q17.316 2.935 17.316 2.791Q17.316 2.6425 17.2575 2.512Q17.199 2.3815 17.1022 2.287Q17.0055 2.1925 16.875 2.13625Q16.7445 2.08 16.596 2.08Q16.452 2.08 16.3237 2.13625Q16.1955 2.1925 16.101 2.287Q16.0065 2.3815 15.9502 2.512Q15.894 2.6425 15.894 2.791Q15.894 2.935 15.9502 3.061Q16.0065 3.187 16.101 3.2815Q16.1955 3.376 16.3237 3.43225Q16.452 3.4885 16.596 3.4885Q16.7445 3.4885 16.875 3.43225Q17.0055 3.376 17.1022 3.2815Q17.199 3.187 17.2575 3.061ZM6.21 8.7535L6.21 2.2465L4.995 2.2465L4.995 5.0455L1.9395 5.0455L1.9395 2.2465L0.7245 2.2465L0.7245 8.7535L1.9395 8.7535L1.9395 5.9095L4.995 5.9095L4.995 8.7535L6.21 8.7535ZM33.2932 8.48575Q33.615 8.8255 34.218 8.8255Q34.5555 8.8255 34.8705 8.722Q35.1855 8.6185 35.4285 8.416L35.0955 7.876Q35.0595 7.8265 35.028 7.80175Q34.9965 7.777 34.947 7.777Q34.9065 7.777 34.866 7.80175Q34.8255 7.8265 34.7737 7.8535Q34.722 7.8805 34.6522 7.90525Q34.5825 7.93 34.479 7.93Q34.2945 7.93 34.1887 7.8085Q34.083 7.687 34.083 7.471L34.083 4.969L35.316 4.969L35.316 4.177L34.083 4.177L34.083 2.7235L33.507 2.7235Q33.408 2.7235 33.345 2.773Q33.282 2.8225 33.2595 2.9125L33.0255 4.1725L32.283 4.294L32.283 4.735Q32.283 4.852 32.346 4.9105Q32.409 4.969 32.499 4.969L32.9715 4.969L32.9715 7.5475Q32.9715 8.146 33.2932 8.48575ZM13.7025 4.9375Q13.9185 4.5235 14.2155 4.28725Q14.5125 4.051 14.9175 4.051Q15.237 4.051 15.4305 4.1905L15.3585 5.023Q15.336 5.104 15.2932 5.13775Q15.2505 5.1715 15.1785 5.1715Q15.111 5.1715 14.9782 5.149Q14.8455 5.1265 14.7195 5.1265Q14.535 5.1265 14.391 5.1805Q14.247 5.2345 14.1322 5.33575Q14.0175 5.437 13.9297 5.581Q13.842 5.725 13.7655 5.9095L13.7655 8.7535L12.654 8.7535L12.654 4.1365L13.3065 4.1365Q13.4775 4.1365 13.545 4.19725Q13.6125 4.258 13.635 4.4155L13.7025 4.9375ZM35.919 4.78Q36.7155 4.051 37.836 4.051Q38.241 4.051 38.5605 4.18375Q38.88 4.3165 39.1005 4.55275Q39.321 4.789 39.4357 5.1175Q39.5505 5.446 39.5505 5.8375L39.5505 8.7535L39.0465 8.7535Q38.889 8.7535 38.8035 8.70625Q38.718 8.659 38.6685 8.515L38.5695 8.182Q38.394 8.3395 38.2275 8.45875Q38.061 8.578 37.881 8.659Q37.701 8.74 37.4962 8.78275Q37.2915 8.8255 37.044 8.8255Q36.7515 8.8255 36.504 8.74675Q36.2565 8.668 36.0765 8.5105Q35.8965 8.353 35.7975 8.119Q35.6985 7.885 35.6985 7.5745Q35.6985 7.399 35.757 7.22575Q35.8155 7.0525 35.9482 6.895Q36.081 6.7375 36.2925 6.598Q36.504 6.4585 36.8122 6.355Q37.1205 6.2515 37.53 6.18625Q37.9395 6.121 38.466 6.1075L38.466 5.8375Q38.466 5.374 38.268 5.15125Q38.07 4.9285 37.6965 4.9285Q37.4265 4.9285 37.2487 4.9915Q37.071 5.0545 36.936 5.13325Q36.801 5.212 36.6907 5.275Q36.5805 5.338 36.4455 5.338Q36.3285 5.338 36.2475 5.27725Q36.1665 5.2165 36.117 5.1355L35.919 4.78ZM10.4603 4.231Q10.0395 4.0645 9.5265 4.0645Q9.009 4.0645 8.586 4.231Q8.163 4.3975 7.86375 4.7035Q7.5645 5.0095 7.40025 5.4505Q7.236 5.8915 7.236 6.436Q7.236 6.985 7.40025 7.426Q7.5645 7.867 7.86375 8.1775Q8.163 8.488 8.586 8.6545Q9.009 8.821 9.5265 8.821Q10.0395 8.821 10.4603 8.6545Q10.881 8.488 11.1803 8.1775Q11.4795 7.867 11.6415 7.426Q11.8035 6.985 11.8035 6.436Q11.8035 5.8915 11.6415 5.4505Q11.4795 5.0095 11.1803 4.7035Q10.881 4.3975 10.4603 4.231ZM25.4092 4.231Q24.9885 4.0645 24.4755 4.0645Q23.958 4.0645 23.535 4.231Q23.112 4.3975 22.8127 4.7035Q22.5135 5.0095 22.3492 5.4505Q22.185 5.8915 22.185 6.436Q22.185 6.985 22.3492 7.426Q22.5135 7.867 22.8127 8.1775Q23.112 8.488 23.535 8.6545Q23.958 8.821 24.4755 8.821Q24.9885 8.821 25.4092 8.6545Q25.83 8.488 26.1292 8.1775Q26.4285 7.867 26.5905 7.426Q26.7525 6.985 26.7525 6.436Q26.7525 5.8915 26.5905 5.4505Q26.4285 5.0095 26.1292 4.7035Q25.83 4.3975 25.4092 4.231ZM28.6425 4.7035Q28.782 4.564 28.9372 4.44475Q29.0925 4.3255 29.2657 4.24225Q29.439 4.159 29.637 4.11175Q29.835 4.0645 30.069 4.0645Q30.447 4.0645 30.7395 4.19275Q31.032 4.321 31.2277 4.55275Q31.4235 4.7845 31.5247 5.10625Q31.626 5.428 31.626 5.815L31.626 8.7535L30.5145 8.7535L30.5145 5.815Q30.5145 5.392 30.321 5.16025Q30.1275 4.9285 29.7315 4.9285Q29.4435 4.9285 29.1915 5.059Q28.9395 5.1895 28.7145 5.4145L28.7145 8.7535L27.603 8.7535L27.603 4.1365L28.2825 4.1365Q28.4985 4.1365 28.566 4.339L28.6425 4.7035ZM16.047 8.7535L17.163 8.7535L17.163 4.1365L16.047 4.1365L16.047 8.7535ZM21.6135 4.5955Q21.6135 4.7125 21.573 4.825Q21.5325 4.9375 21.465 5.0095L19.2735 7.8985L21.546 7.8985L21.546 8.7535L17.982 8.7535L17.982 8.29Q17.982 8.2135 18.018 8.10775Q18.054 8.002 18.126 7.9075L20.34 4.987L18.1125 4.987L18.1125 4.1365L21.6135 4.1365L21.6135 4.5955ZM10.3793 7.579Q10.1025 7.966 9.5265 7.966Q8.9415 7.966 8.66025 7.57675Q8.379 7.1875 8.379 6.445Q8.379 5.7025 8.66025 5.30875Q8.9415 4.915 9.5265 4.915Q10.1025 4.915 10.3793 5.3065Q10.656 5.698 10.656 6.445Q10.656 7.192 10.3793 7.579ZM25.3282 7.579Q25.0515 7.966 24.4755 7.966Q23.8905 7.966 23.6092 7.57675Q23.328 7.1875 23.328 6.445Q23.328 5.7025 23.6092 5.30875Q23.8905 4.915 24.4755 4.915Q25.0515 4.915 25.3282 5.3065Q25.605 5.698 25.605 6.445Q25.605 7.192 25.3282 7.579ZM38.466 6.7825Q37.9845 6.805 37.656 6.86575Q37.3275 6.9265 37.1295 7.021Q36.9315 7.1155 36.846 7.2415Q36.7605 7.3675 36.7605 7.516Q36.7605 7.8085 36.9337 7.9345Q37.107 8.0605 37.386 8.0605Q37.728 8.0605 37.9777 7.93675Q38.2275 7.813 38.466 7.561L38.466 6.7825Z" />
      </g>
    </g>
  </g>
</svg>