<svg width="94" height="42" viewBox="0 0 94 42" fill="none" xmlns="http://www.w3.org/2000/svg">
<path d="M0.5 2.5C0.5 1.39543 1.39543 0.5 2.5 0.5H91.5C92.6046 0.5 93.5 1.39543 93.5 2.5V11.5C93.5 12.6046 92.6046 13.5 91.5 13.5H2.5C1.39543 13.5 0.5 12.6046 0.5 11.5V2.5Z" fill="#242424"/>
<rect x="2.5" y="2.5" width="28" height="9" rx="1" fill="#399DFF"/>
<rect x="2.5" y="2.5" width="28" height="9" rx="1" stroke="#399DFF"/>
<path d="M9.68556 5.356C9.64556 5.42 9.6029 5.468 9.55756 5.5C9.5149 5.532 9.4589 5.548 9.38956 5.548C9.32823 5.548 9.26156 5.52933 9.18956 5.492C9.12023 5.452 9.04023 5.408 8.94956 5.36C8.86156 5.312 8.76023 5.26933 8.64556 5.232C8.5309 5.192 8.40023 5.172 8.25356 5.172C8.00023 5.172 7.8109 5.22667 7.68556 5.336C7.5629 5.44267 7.50156 5.588 7.50156 5.772C7.50156 5.88933 7.5389 5.98667 7.61356 6.064C7.68823 6.14133 7.78556 6.208 7.90556 6.264C8.02823 6.32 8.1669 6.372 8.32156 6.42C8.4789 6.46533 8.6389 6.51733 8.80156 6.576C8.96423 6.632 9.1229 6.69867 9.27756 6.776C9.4349 6.85333 9.57356 6.952 9.69356 7.072C9.81623 7.192 9.9149 7.33867 9.98956 7.512C10.0642 7.68267 10.1016 7.88933 10.1016 8.132C10.1016 8.40133 10.0549 8.65333 9.96156 8.888C9.86823 9.12267 9.73223 9.328 9.55356 9.504C9.37756 9.67733 9.1589 9.81467 8.89756 9.916C8.6389 10.0147 8.34423 10.064 8.01356 10.064C7.83223 10.064 7.6469 10.0453 7.45756 10.008C7.2709 9.97067 7.08956 9.91867 6.91356 9.852C6.73756 9.78267 6.57223 9.70133 6.41756 9.608C6.2629 9.51467 6.12823 9.41067 6.01356 9.296L6.41356 8.664C6.44556 8.61867 6.4869 8.58133 6.53756 8.552C6.5909 8.52 6.64823 8.504 6.70956 8.504C6.78956 8.504 6.86956 8.52933 6.94956 8.58C7.03223 8.63067 7.12423 8.68667 7.22556 8.748C7.32956 8.80933 7.44823 8.86533 7.58156 8.916C7.7149 8.96667 7.87223 8.992 8.05356 8.992C8.2989 8.992 8.48956 8.93867 8.62556 8.832C8.76156 8.72267 8.82956 8.55067 8.82956 8.316C8.82956 8.18 8.79223 8.06933 8.71756 7.984C8.6429 7.89867 8.54423 7.828 8.42156 7.772C8.30156 7.716 8.16423 7.66667 8.00956 7.624C7.8549 7.58133 7.69623 7.53467 7.53356 7.484C7.3709 7.43067 7.21223 7.36667 7.05756 7.292C6.9029 7.21467 6.76423 7.11467 6.64156 6.992C6.52156 6.86667 6.42423 6.712 6.34956 6.528C6.2749 6.34133 6.23756 6.112 6.23756 5.84C6.23756 5.62133 6.28156 5.408 6.36956 5.2C6.45756 4.992 6.5869 4.80667 6.75756 4.644C6.92823 4.48133 7.13756 4.352 7.38556 4.256C7.63356 4.15733 7.91756 4.108 8.23756 4.108C8.41623 4.108 8.58956 4.12267 8.75756 4.152C8.92823 4.17867 9.08956 4.22 9.24156 4.276C9.39356 4.32933 9.5349 4.39467 9.66556 4.472C9.7989 4.54667 9.91756 4.632 10.0216 4.728L9.68556 5.356ZM11.8993 5.852V10H10.6593V5.852H11.8993ZM12.0273 4.716C12.0273 4.81467 12.0073 4.908 11.9673 4.996C11.9273 5.08133 11.8726 5.15733 11.8033 5.224C11.7339 5.288 11.6526 5.34 11.5593 5.38C11.4686 5.41733 11.3713 5.436 11.2673 5.436C11.1659 5.436 11.0713 5.41733 10.9833 5.38C10.8953 5.34 10.8166 5.288 10.7473 5.224C10.6806 5.15733 10.6273 5.08133 10.5873 4.996C10.5499 4.908 10.5313 4.81467 10.5313 4.716C10.5313 4.61467 10.5499 4.52 10.5873 4.432C10.6273 4.344 10.6806 4.26667 10.7473 4.2C10.8166 4.13333 10.8953 4.08133 10.9833 4.044C11.0713 4.00667 11.1659 3.988 11.2673 3.988C11.3713 3.988 11.4686 4.00667 11.5593 4.044C11.6526 4.08133 11.7339 4.13333 11.8033 4.2C11.8726 4.26667 11.9273 4.344 11.9673 4.432C12.0073 4.52 12.0273 4.61467 12.0273 4.716ZM13.7881 6.3C13.8681 6.22533 13.9507 6.156 14.0361 6.092C14.1214 6.028 14.2121 5.97467 14.3081 5.932C14.4067 5.88667 14.5121 5.852 14.6241 5.828C14.7387 5.80133 14.8627 5.788 14.9961 5.788C15.2227 5.788 15.4227 5.828 15.5961 5.908C15.7721 5.98533 15.9201 6.09467 16.0401 6.236C16.1601 6.37467 16.2507 6.54133 16.3121 6.736C16.3734 6.928 16.4041 7.13733 16.4041 7.364V10H15.1641V7.364C15.1641 7.16133 15.1174 7.004 15.0241 6.892C14.9307 6.77733 14.7934 6.72 14.6121 6.72C14.4761 6.72 14.3481 6.74933 14.2281 6.808C14.1107 6.864 13.9961 6.94133 13.8841 7.04V10H12.6441V5.852H13.4121C13.5667 5.852 13.6681 5.92133 13.7161 6.06L13.7881 6.3ZM18.6666 7.708C18.8719 7.708 19.0199 7.65733 19.1106 7.556C19.2039 7.452 19.2506 7.31867 19.2506 7.156C19.2506 6.988 19.2039 6.856 19.1106 6.76C19.0199 6.664 18.8719 6.616 18.6666 6.616C18.4612 6.616 18.3119 6.664 18.2186 6.76C18.1279 6.856 18.0826 6.988 18.0826 7.156C18.0826 7.236 18.0932 7.30933 18.1146 7.376C18.1386 7.44267 18.1746 7.50133 18.2226 7.552C18.2706 7.6 18.3306 7.63867 18.4026 7.668C18.4772 7.69467 18.5652 7.708 18.6666 7.708ZM19.6266 10.152C19.6266 10.0533 19.5826 9.98267 19.4946 9.94C19.4066 9.89467 19.2919 9.86267 19.1506 9.844C19.0092 9.82533 18.8506 9.81467 18.6746 9.812C18.5012 9.80667 18.3279 9.796 18.1546 9.78C18.0772 9.83333 18.0132 9.89333 17.9626 9.96C17.9146 10.024 17.8906 10.0973 17.8906 10.18C17.8906 10.2387 17.9026 10.292 17.9266 10.34C17.9532 10.388 17.9986 10.4293 18.0626 10.464C18.1266 10.4987 18.2119 10.5253 18.3186 10.544C18.4279 10.5653 18.5652 10.576 18.7306 10.576C18.9092 10.576 19.0559 10.5653 19.1706 10.544C19.2852 10.5227 19.3759 10.4933 19.4426 10.456C19.5119 10.4187 19.5599 10.3733 19.5866 10.32C19.6132 10.2693 19.6266 10.2133 19.6266 10.152ZM20.8506 5.98V6.432C20.8506 6.50133 20.8306 6.556 20.7906 6.596C20.7532 6.636 20.6879 6.66667 20.5946 6.688L20.2946 6.756C20.3106 6.81467 20.3226 6.87467 20.3306 6.936C20.3412 6.99733 20.3466 7.06133 20.3466 7.128C20.3466 7.336 20.3026 7.52267 20.2146 7.688C20.1292 7.85333 20.0106 7.99467 19.8586 8.112C19.7092 8.22667 19.5319 8.316 19.3266 8.38C19.1212 8.44133 18.9012 8.472 18.6666 8.472C18.6026 8.472 18.5399 8.47067 18.4786 8.468C18.4172 8.46267 18.3572 8.45467 18.2986 8.444C18.2079 8.5 18.1626 8.56267 18.1626 8.632C18.1626 8.70133 18.1999 8.752 18.2746 8.784C18.3492 8.81333 18.4479 8.83467 18.5706 8.848C18.6932 8.85867 18.8319 8.86667 18.9866 8.872C19.1439 8.87467 19.3039 8.884 19.4666 8.9C19.6292 8.91333 19.7879 8.93733 19.9426 8.972C20.0999 9.00667 20.2399 9.06267 20.3626 9.14C20.4852 9.21733 20.5839 9.32133 20.6586 9.452C20.7332 9.58 20.7706 9.744 20.7706 9.944C20.7706 10.1307 20.7252 10.3133 20.6346 10.492C20.5439 10.6707 20.4106 10.8293 20.2346 10.968C20.0586 11.1067 19.8426 11.2173 19.5866 11.3C19.3306 11.3853 19.0372 11.428 18.7066 11.428C18.3812 11.428 18.0999 11.3973 17.8626 11.336C17.6279 11.2747 17.4319 11.1933 17.2746 11.092C17.1199 10.9933 17.0052 10.8787 16.9306 10.748C16.8559 10.6173 16.8186 10.4813 16.8186 10.34C16.8186 10.156 16.8719 10.0027 16.9786 9.88C17.0852 9.75733 17.2346 9.65867 17.4266 9.584C17.3252 9.52267 17.2452 9.444 17.1866 9.348C17.1279 9.252 17.0986 9.128 17.0986 8.976C17.0986 8.91467 17.1092 8.85067 17.1306 8.784C17.1519 8.71467 17.1852 8.648 17.2306 8.584C17.2786 8.51733 17.3372 8.45467 17.4066 8.396C17.4759 8.33733 17.5586 8.28533 17.6546 8.24C17.4386 8.12533 17.2679 7.97467 17.1426 7.788C17.0172 7.59867 16.9546 7.37867 16.9546 7.128C16.9546 6.92 16.9986 6.73333 17.0866 6.568C17.1746 6.4 17.2946 6.25867 17.4466 6.144C17.6012 6.02667 17.7826 5.93733 17.9906 5.876C18.1986 5.812 18.4239 5.78 18.6666 5.78C19.0186 5.78 19.3306 5.84667 19.6026 5.98H20.8506ZM22.4878 4.012V10H21.2478V4.012H22.4878ZM25.7859 7.428C25.7859 7.32933 25.7726 7.23333 25.7459 7.14C25.7219 7.04667 25.6806 6.964 25.6219 6.892C25.5659 6.81733 25.4913 6.75733 25.3979 6.712C25.3046 6.66667 25.1913 6.644 25.0579 6.644C24.8233 6.644 24.6393 6.712 24.5059 6.848C24.3726 6.98133 24.2846 7.17467 24.2419 7.428H25.7859ZM24.2259 8.148C24.2659 8.49467 24.3713 8.74667 24.5419 8.904C24.7126 9.05867 24.9326 9.136 25.2019 9.136C25.3459 9.136 25.4699 9.11867 25.5739 9.084C25.6779 9.04933 25.7699 9.01067 25.8499 8.968C25.9326 8.92533 26.0073 8.88667 26.0739 8.852C26.1433 8.81733 26.2153 8.8 26.2899 8.8C26.3886 8.8 26.4633 8.836 26.5139 8.908L26.8739 9.352C26.7459 9.49867 26.6073 9.61867 26.4579 9.712C26.3113 9.80267 26.1593 9.87467 26.0019 9.928C25.8473 9.97867 25.6913 10.0133 25.5339 10.032C25.3793 10.0533 25.2313 10.064 25.0899 10.064C24.7993 10.064 24.5259 10.0173 24.2699 9.924C24.0166 9.828 23.7939 9.68667 23.6019 9.5C23.4126 9.31333 23.2619 9.08133 23.1499 8.804C23.0406 8.52667 22.9859 8.204 22.9859 7.836C22.9859 7.55867 23.0326 7.296 23.1259 7.048C23.2219 6.8 23.3579 6.58267 23.5339 6.396C23.7126 6.20933 23.9273 6.06133 24.1779 5.952C24.4313 5.84267 24.7166 5.788 25.0339 5.788C25.3086 5.788 25.5593 5.83067 25.7859 5.916C26.0153 6.00133 26.2113 6.12533 26.3739 6.288C26.5393 6.45067 26.6673 6.65067 26.7579 6.888C26.8513 7.12267 26.8979 7.38933 26.8979 7.688C26.8979 7.78133 26.8939 7.85733 26.8859 7.916C26.8779 7.97467 26.8633 8.02133 26.8419 8.056C26.8206 8.09067 26.7913 8.11467 26.7539 8.128C26.7193 8.14133 26.6739 8.148 26.6179 8.148H24.2259Z" fill="white"/>
<g opacity="0.75">
<rect x="31.5" y="12" width="10" height="1" transform="rotate(-90 31.5 12)" fill="black"/>
</g>
<path d="M42.5109 5.356C42.4709 5.42 42.4282 5.468 42.3829 5.5C42.3402 5.532 42.2842 5.548 42.2149 5.548C42.1535 5.548 42.0869 5.52933 42.0149 5.492C41.9455 5.452 41.8655 5.408 41.7749 5.36C41.6869 5.312 41.5855 5.26933 41.4709 5.232C41.3562 5.192 41.2255 5.172 41.0789 5.172C40.8255 5.172 40.6362 5.22667 40.5109 5.336C40.3882 5.44267 40.3269 5.588 40.3269 5.772C40.3269 5.88933 40.3642 5.98667 40.4389 6.064C40.5135 6.14133 40.6109 6.208 40.7309 6.264C40.8535 6.32 40.9922 6.372 41.1469 6.42C41.3042 6.46533 41.4642 6.51733 41.6269 6.576C41.7895 6.632 41.9482 6.69867 42.1029 6.776C42.2602 6.85333 42.3989 6.952 42.5189 7.072C42.6415 7.192 42.7402 7.33867 42.8149 7.512C42.8895 7.68267 42.9269 7.88933 42.9269 8.132C42.9269 8.40133 42.8802 8.65333 42.7869 8.888C42.6935 9.12267 42.5575 9.328 42.3789 9.504C42.2029 9.67733 41.9842 9.81467 41.7229 9.916C41.4642 10.0147 41.1695 10.064 40.8389 10.064C40.6575 10.064 40.4722 10.0453 40.2829 10.008C40.0962 9.97067 39.9149 9.91867 39.7389 9.852C39.5629 9.78267 39.3975 9.70133 39.2429 9.608C39.0882 9.51467 38.9535 9.41067 38.8389 9.296L39.2389 8.664C39.2709 8.61867 39.3122 8.58133 39.3629 8.552C39.4162 8.52 39.4735 8.504 39.5349 8.504C39.6149 8.504 39.6949 8.52933 39.7749 8.58C39.8575 8.63067 39.9495 8.68667 40.0509 8.748C40.1549 8.80933 40.2735 8.86533 40.4069 8.916C40.5402 8.96667 40.6975 8.992 40.8789 8.992C41.1242 8.992 41.3149 8.93867 41.4509 8.832C41.5869 8.72267 41.6549 8.55067 41.6549 8.316C41.6549 8.18 41.6175 8.06933 41.5429 7.984C41.4682 7.89867 41.3695 7.828 41.2469 7.772C41.1269 7.716 40.9895 7.66667 40.8349 7.624C40.6802 7.58133 40.5215 7.53467 40.3589 7.484C40.1962 7.43067 40.0375 7.36667 39.8829 7.292C39.7282 7.21467 39.5895 7.11467 39.4669 6.992C39.3469 6.86667 39.2495 6.712 39.1749 6.528C39.1002 6.34133 39.0629 6.112 39.0629 5.84C39.0629 5.62133 39.1069 5.408 39.1949 5.2C39.2829 4.992 39.4122 4.80667 39.5829 4.644C39.7535 4.48133 39.9629 4.352 40.2109 4.256C40.4589 4.15733 40.7429 4.108 41.0629 4.108C41.2415 4.108 41.4149 4.12267 41.5829 4.152C41.7535 4.17867 41.9149 4.22 42.0669 4.276C42.2189 4.32933 42.3602 4.39467 42.4909 4.472C42.6242 4.54667 42.7429 4.632 42.8469 4.728L42.5109 5.356ZM44.6497 6.216C44.799 6.088 44.9604 5.98533 45.1337 5.908C45.3097 5.828 45.519 5.788 45.7617 5.788C45.9884 5.788 46.1884 5.828 46.3617 5.908C46.5377 5.98533 46.6857 6.09467 46.8057 6.236C46.9257 6.37467 47.0164 6.54133 47.0777 6.736C47.139 6.928 47.1697 7.13733 47.1697 7.364V10H45.9297V7.364C45.9297 7.16133 45.883 7.004 45.7897 6.892C45.6964 6.77733 45.559 6.72 45.3777 6.72C45.2417 6.72 45.1137 6.74933 44.9937 6.808C44.8764 6.864 44.7617 6.94133 44.6497 7.04V10H43.4097V4.012H44.6497V6.216ZM49.1202 5.852V10H47.8802V5.852H49.1202ZM49.2482 4.716C49.2482 4.81467 49.2282 4.908 49.1882 4.996C49.1482 5.08133 49.0935 5.15733 49.0242 5.224C48.9549 5.288 48.8735 5.34 48.7802 5.38C48.6895 5.41733 48.5922 5.436 48.4882 5.436C48.3869 5.436 48.2922 5.41733 48.2042 5.38C48.1162 5.34 48.0375 5.288 47.9682 5.224C47.9015 5.15733 47.8482 5.08133 47.8082 4.996C47.7709 4.908 47.7522 4.81467 47.7522 4.716C47.7522 4.61467 47.7709 4.52 47.8082 4.432C47.8482 4.344 47.9015 4.26667 47.9682 4.2C48.0375 4.13333 48.1162 4.08133 48.2042 4.044C48.2922 4.00667 48.3869 3.988 48.4882 3.988C48.5922 3.988 48.6895 4.00667 48.7802 4.044C48.8735 4.08133 48.9549 4.13333 49.0242 4.2C49.0935 4.26667 49.1482 4.344 49.1882 4.432C49.2282 4.52 49.2482 4.61467 49.2482 4.716ZM54.129 6.708V8.768C54.129 8.864 54.1517 8.944 54.197 9.008C54.245 9.06933 54.313 9.1 54.401 9.1C54.4463 9.1 54.4837 9.096 54.513 9.088C54.545 9.07733 54.5717 9.06667 54.593 9.056C54.617 9.04267 54.6383 9.032 54.657 9.024C54.6783 9.01333 54.7023 9.008 54.729 9.008C54.7663 9.008 54.7957 9.01733 54.817 9.036C54.841 9.052 54.865 9.07867 54.889 9.116L55.265 9.704C55.105 9.824 54.925 9.91467 54.725 9.976C54.525 10.0347 54.3183 10.064 54.105 10.064C53.9077 10.064 53.733 10.036 53.581 9.98C53.4317 9.92133 53.305 9.84 53.201 9.736C53.0997 9.62933 53.0223 9.50133 52.969 9.352C52.9157 9.20267 52.889 9.036 52.889 8.852V6.708H51.413V10H50.173V6.704L49.901 6.648C49.8077 6.62667 49.7317 6.59333 49.673 6.548C49.617 6.50267 49.589 6.436 49.589 6.348V5.86H50.173V5.624C50.173 5.38667 50.2103 5.172 50.285 4.98C50.3623 4.788 50.4717 4.624 50.613 4.488C50.757 4.352 50.9317 4.24667 51.137 4.172C51.3423 4.09733 51.5757 4.06 51.837 4.06C51.9383 4.06 52.0317 4.06667 52.117 4.08C52.2023 4.09067 52.2917 4.10933 52.385 4.136L52.361 4.74C52.3583 4.78267 52.3477 4.81867 52.329 4.848C52.3103 4.87467 52.285 4.89733 52.253 4.916C52.2237 4.932 52.1917 4.944 52.157 4.952C52.1223 4.96 52.0877 4.964 52.053 4.964C51.9437 4.964 51.8463 4.97467 51.761 4.996C51.6757 5.01733 51.6037 5.056 51.545 5.112C51.489 5.16533 51.4463 5.23733 51.417 5.328C51.3877 5.416 51.373 5.528 51.373 5.664V5.86H52.961L53.209 4.84C53.241 4.712 53.3317 4.648 53.481 4.648H54.129V5.86H55.157V6.708H54.129Z" fill="#B4B4B4"/>
<g opacity="0.75">
<rect x="61.5" y="12" width="10" height="1" transform="rotate(-90 61.5 12)" fill="black"/>
</g>
<path d="M73.6922 7.084C73.6922 7.50533 73.6188 7.89467 73.4722 8.252C73.3282 8.60667 73.1242 8.91467 72.8602 9.176C72.5962 9.43467 72.2775 9.63733 71.9042 9.784C71.5335 9.928 71.1215 10 70.6682 10H68.4042V4.172H70.6682C71.1215 4.172 71.5335 4.24533 71.9042 4.392C72.2775 4.53867 72.5962 4.74133 72.8602 5C73.1242 5.25867 73.3282 5.56667 73.4722 5.924C73.6188 6.27867 73.6922 6.66533 73.6922 7.084ZM72.3082 7.084C72.3082 6.796 72.2708 6.536 72.1962 6.304C72.1215 6.072 72.0135 5.876 71.8722 5.716C71.7335 5.55333 71.5628 5.42933 71.3602 5.344C71.1575 5.256 70.9268 5.212 70.6682 5.212H69.7642V8.96H70.6682C70.9268 8.96 71.1575 8.91733 71.3602 8.832C71.5628 8.744 71.7335 8.62 71.8722 8.46C72.0135 8.29733 72.1215 8.1 72.1962 7.868C72.2708 7.636 72.3082 7.37467 72.3082 7.084ZM75.3236 6.492C75.4516 6.268 75.5983 6.092 75.7636 5.964C75.9316 5.836 76.1236 5.772 76.3396 5.772C76.5263 5.772 76.6783 5.816 76.7956 5.904L76.7156 6.816C76.7023 6.87467 76.6796 6.91467 76.6476 6.936C76.6183 6.95733 76.5769 6.968 76.5236 6.968C76.5023 6.968 76.4743 6.96667 76.4396 6.964C76.4049 6.96133 76.3689 6.95867 76.3316 6.956C76.2943 6.95067 76.2556 6.94667 76.2156 6.944C76.1783 6.93867 76.1436 6.936 76.1116 6.936C75.9303 6.936 75.7849 6.984 75.6756 7.08C75.5689 7.176 75.4783 7.30933 75.4036 7.48V10H74.1636V5.852H74.8996C74.9609 5.852 75.0116 5.85733 75.0516 5.868C75.0943 5.87867 75.1289 5.896 75.1556 5.92C75.1849 5.94133 75.2063 5.97067 75.2196 6.008C75.2356 6.04533 75.2489 6.09067 75.2596 6.144L75.3236 6.492ZM79.1992 8.312C78.9512 8.32267 78.7472 8.344 78.5872 8.376C78.4272 8.408 78.3006 8.448 78.2072 8.496C78.1139 8.544 78.0486 8.59867 78.0112 8.66C77.9766 8.72133 77.9592 8.788 77.9592 8.86C77.9592 9.00133 77.9979 9.10133 78.0752 9.16C78.1526 9.216 78.2659 9.244 78.4152 9.244C78.5752 9.244 78.7152 9.216 78.8352 9.16C78.9552 9.104 79.0766 9.01333 79.1992 8.888V8.312ZM76.9672 6.428C77.2179 6.20667 77.4952 6.04267 77.7992 5.936C78.1059 5.82667 78.4339 5.772 78.7832 5.772C79.0339 5.772 79.2592 5.81333 79.4592 5.896C79.6619 5.976 79.8326 6.08933 79.9712 6.236C80.1126 6.38 80.2206 6.552 80.2952 6.752C80.3699 6.952 80.4072 7.17067 80.4072 7.408V10H79.8392C79.7219 10 79.6326 9.984 79.5712 9.952C79.5126 9.92 79.4632 9.85333 79.4232 9.752L79.3352 9.524C79.2312 9.612 79.1312 9.68933 79.0352 9.756C78.9392 9.82267 78.8392 9.88 78.7352 9.928C78.6339 9.97333 78.5246 10.0067 78.4072 10.028C78.2926 10.052 78.1646 10.064 78.0232 10.064C77.8339 10.064 77.6619 10.04 77.5072 9.992C77.3526 9.94133 77.2206 9.868 77.1112 9.772C77.0046 9.676 76.9219 9.55733 76.8632 9.416C76.8046 9.272 76.7752 9.10667 76.7752 8.92C76.7752 8.77067 76.8126 8.62 76.8872 8.468C76.9619 8.31333 77.0912 8.17333 77.2752 8.048C77.4592 7.92 77.7072 7.81333 78.0192 7.728C78.3312 7.64267 78.7246 7.59467 79.1992 7.584V7.408C79.1992 7.16533 79.1486 6.99067 79.0472 6.884C78.9486 6.77467 78.8072 6.72 78.6232 6.72C78.4766 6.72 78.3566 6.736 78.2632 6.768C78.1699 6.8 78.0859 6.836 78.0112 6.876C77.9392 6.916 77.8686 6.952 77.7992 6.984C77.7299 7.016 77.6472 7.032 77.5512 7.032C77.4659 7.032 77.3939 7.01067 77.3352 6.968C77.2766 6.92533 77.2286 6.87467 77.1912 6.816L76.9672 6.428ZM87.137 5.852L85.849 10H84.841C84.7876 10 84.7423 9.984 84.705 9.952C84.6676 9.92 84.6383 9.86667 84.617 9.792L84.025 7.724C83.9956 7.63067 83.969 7.53867 83.945 7.448C83.9236 7.35733 83.9036 7.26533 83.885 7.172C83.8663 7.26533 83.845 7.35867 83.821 7.452C83.7996 7.54533 83.7743 7.63867 83.745 7.732L83.145 9.792C83.105 9.93067 83.017 10 82.881 10H81.921L80.633 5.852H81.625C81.713 5.852 81.7863 5.87333 81.845 5.916C81.9063 5.956 81.9476 6.00667 81.969 6.068L82.385 7.928C82.4196 8.06933 82.4503 8.20667 82.477 8.34C82.5036 8.47067 82.5276 8.60267 82.549 8.736C82.5836 8.60267 82.6196 8.47067 82.657 8.34C82.697 8.20667 82.7396 8.06933 82.785 7.928L83.305 6.064C83.3263 6.00267 83.3663 5.952 83.425 5.912C83.4836 5.86933 83.553 5.848 83.633 5.848H84.185C84.273 5.848 84.3463 5.86933 84.405 5.912C84.4663 5.952 84.5076 6.00267 84.529 6.064L85.025 7.928C85.065 8.06933 85.1036 8.20667 85.141 8.34C85.181 8.47333 85.217 8.608 85.249 8.744C85.2703 8.61067 85.2956 8.47733 85.325 8.344C85.3543 8.21067 85.3876 8.072 85.425 7.928L85.865 6.068C85.8863 6.00667 85.9263 5.956 85.985 5.916C86.0436 5.87333 86.113 5.852 86.193 5.852H87.137Z" fill="#B4B4B4"/>
<path d="M2.5 1H91.5V0H2.5V1ZM93 2.5V11.5H94V2.5H93ZM91.5 13H2.5V14H91.5V13ZM1 11.5V2.5H0V11.5H1ZM2.5 13C1.67157 13 1 12.3284 1 11.5H0C0 12.8807 1.11929 14 2.5 14V13ZM93 11.5C93 12.3284 92.3284 13 91.5 13V14C92.8807 14 94 12.8807 94 11.5H93ZM91.5 1C92.3284 1 93 1.67157 93 2.5H94C94 1.11929 92.8807 0 91.5 0V1ZM2.5 0C1.11929 0 0 1.11929 0 2.5H1C1 1.67157 1.67157 1 2.5 1V0Z" fill="black"/>
<path d="M0.5 16.5C0.5 15.3954 1.39543 14.5 2.5 14.5H91.5C92.6046 14.5 93.5 15.3954 93.5 16.5V25.5C93.5 26.6046 92.6046 27.5 91.5 27.5H2.5C1.39543 27.5 0.5 26.6046 0.5 25.5V16.5Z" fill="#242424"/>
<path d="M9.68556 19.356C9.64556 19.42 9.6029 19.468 9.55756 19.5C9.5149 19.532 9.4589 19.548 9.38956 19.548C9.32823 19.548 9.26156 19.5293 9.18956 19.492C9.12023 19.452 9.04023 19.408 8.94956 19.36C8.86156 19.312 8.76023 19.2693 8.64556 19.232C8.5309 19.192 8.40023 19.172 8.25356 19.172C8.00023 19.172 7.8109 19.2267 7.68556 19.336C7.5629 19.4427 7.50156 19.588 7.50156 19.772C7.50156 19.8893 7.5389 19.9867 7.61356 20.064C7.68823 20.1413 7.78556 20.208 7.90556 20.264C8.02823 20.32 8.1669 20.372 8.32156 20.42C8.4789 20.4653 8.6389 20.5173 8.80156 20.576C8.96423 20.632 9.1229 20.6987 9.27756 20.776C9.4349 20.8533 9.57356 20.952 9.69356 21.072C9.81623 21.192 9.9149 21.3387 9.98956 21.512C10.0642 21.6827 10.1016 21.8893 10.1016 22.132C10.1016 22.4013 10.0549 22.6533 9.96156 22.888C9.86823 23.1227 9.73223 23.328 9.55356 23.504C9.37756 23.6773 9.1589 23.8147 8.89756 23.916C8.6389 24.0147 8.34423 24.064 8.01356 24.064C7.83223 24.064 7.6469 24.0453 7.45756 24.008C7.2709 23.9707 7.08956 23.9187 6.91356 23.852C6.73756 23.7827 6.57223 23.7013 6.41756 23.608C6.2629 23.5147 6.12823 23.4107 6.01356 23.296L6.41356 22.664C6.44556 22.6187 6.4869 22.5813 6.53756 22.552C6.5909 22.52 6.64823 22.504 6.70956 22.504C6.78956 22.504 6.86956 22.5293 6.94956 22.58C7.03223 22.6307 7.12423 22.6867 7.22556 22.748C7.32956 22.8093 7.44823 22.8653 7.58156 22.916C7.7149 22.9667 7.87223 22.992 8.05356 22.992C8.2989 22.992 8.48956 22.9387 8.62556 22.832C8.76156 22.7227 8.82956 22.5507 8.82956 22.316C8.82956 22.18 8.79223 22.0693 8.71756 21.984C8.6429 21.8987 8.54423 21.828 8.42156 21.772C8.30156 21.716 8.16423 21.6667 8.00956 21.624C7.8549 21.5813 7.69623 21.5347 7.53356 21.484C7.3709 21.4307 7.21223 21.3667 7.05756 21.292C6.9029 21.2147 6.76423 21.1147 6.64156 20.992C6.52156 20.8667 6.42423 20.712 6.34956 20.528C6.2749 20.3413 6.23756 20.112 6.23756 19.84C6.23756 19.6213 6.28156 19.408 6.36956 19.2C6.45756 18.992 6.5869 18.8067 6.75756 18.644C6.92823 18.4813 7.13756 18.352 7.38556 18.256C7.63356 18.1573 7.91756 18.108 8.23756 18.108C8.41623 18.108 8.58956 18.1227 8.75756 18.152C8.92823 18.1787 9.08956 18.22 9.24156 18.276C9.39356 18.3293 9.5349 18.3947 9.66556 18.472C9.7989 18.5467 9.91756 18.632 10.0216 18.728L9.68556 19.356ZM11.8993 19.852V24H10.6593V19.852H11.8993ZM12.0273 18.716C12.0273 18.8147 12.0073 18.908 11.9673 18.996C11.9273 19.0813 11.8726 19.1573 11.8033 19.224C11.7339 19.288 11.6526 19.34 11.5593 19.38C11.4686 19.4173 11.3713 19.436 11.2673 19.436C11.1659 19.436 11.0713 19.4173 10.9833 19.38C10.8953 19.34 10.8166 19.288 10.7473 19.224C10.6806 19.1573 10.6273 19.0813 10.5873 18.996C10.5499 18.908 10.5313 18.8147 10.5313 18.716C10.5313 18.6147 10.5499 18.52 10.5873 18.432C10.6273 18.344 10.6806 18.2667 10.7473 18.2C10.8166 18.1333 10.8953 18.0813 10.9833 18.044C11.0713 18.0067 11.1659 17.988 11.2673 17.988C11.3713 17.988 11.4686 18.0067 11.5593 18.044C11.6526 18.0813 11.7339 18.1333 11.8033 18.2C11.8726 18.2667 11.9273 18.344 11.9673 18.432C12.0073 18.52 12.0273 18.6147 12.0273 18.716ZM13.7881 20.3C13.8681 20.2253 13.9507 20.156 14.0361 20.092C14.1214 20.028 14.2121 19.9747 14.3081 19.932C14.4067 19.8867 14.5121 19.852 14.6241 19.828C14.7387 19.8013 14.8627 19.788 14.9961 19.788C15.2227 19.788 15.4227 19.828 15.5961 19.908C15.7721 19.9853 15.9201 20.0947 16.0401 20.236C16.1601 20.3747 16.2507 20.5413 16.3121 20.736C16.3734 20.928 16.4041 21.1373 16.4041 21.364V24H15.1641V21.364C15.1641 21.1613 15.1174 21.004 15.0241 20.892C14.9307 20.7773 14.7934 20.72 14.6121 20.72C14.4761 20.72 14.3481 20.7493 14.2281 20.808C14.1107 20.864 13.9961 20.9413 13.8841 21.04V24H12.6441V19.852H13.4121C13.5667 19.852 13.6681 19.9213 13.7161 20.06L13.7881 20.3ZM18.6666 21.708C18.8719 21.708 19.0199 21.6573 19.1106 21.556C19.2039 21.452 19.2506 21.3187 19.2506 21.156C19.2506 20.988 19.2039 20.856 19.1106 20.76C19.0199 20.664 18.8719 20.616 18.6666 20.616C18.4612 20.616 18.3119 20.664 18.2186 20.76C18.1279 20.856 18.0826 20.988 18.0826 21.156C18.0826 21.236 18.0932 21.3093 18.1146 21.376C18.1386 21.4427 18.1746 21.5013 18.2226 21.552C18.2706 21.6 18.3306 21.6387 18.4026 21.668C18.4772 21.6947 18.5652 21.708 18.6666 21.708ZM19.6266 24.152C19.6266 24.0533 19.5826 23.9827 19.4946 23.94C19.4066 23.8947 19.2919 23.8627 19.1506 23.844C19.0092 23.8253 18.8506 23.8147 18.6746 23.812C18.5012 23.8067 18.3279 23.796 18.1546 23.78C18.0772 23.8333 18.0132 23.8933 17.9626 23.96C17.9146 24.024 17.8906 24.0973 17.8906 24.18C17.8906 24.2387 17.9026 24.292 17.9266 24.34C17.9532 24.388 17.9986 24.4293 18.0626 24.464C18.1266 24.4987 18.2119 24.5253 18.3186 24.544C18.4279 24.5653 18.5652 24.576 18.7306 24.576C18.9092 24.576 19.0559 24.5653 19.1706 24.544C19.2852 24.5227 19.3759 24.4933 19.4426 24.456C19.5119 24.4187 19.5599 24.3733 19.5866 24.32C19.6132 24.2693 19.6266 24.2133 19.6266 24.152ZM20.8506 19.98V20.432C20.8506 20.5013 20.8306 20.556 20.7906 20.596C20.7532 20.636 20.6879 20.6667 20.5946 20.688L20.2946 20.756C20.3106 20.8147 20.3226 20.8747 20.3306 20.936C20.3412 20.9973 20.3466 21.0613 20.3466 21.128C20.3466 21.336 20.3026 21.5227 20.2146 21.688C20.1292 21.8533 20.0106 21.9947 19.8586 22.112C19.7092 22.2267 19.5319 22.316 19.3266 22.38C19.1212 22.4413 18.9012 22.472 18.6666 22.472C18.6026 22.472 18.5399 22.4707 18.4786 22.468C18.4172 22.4627 18.3572 22.4547 18.2986 22.444C18.2079 22.5 18.1626 22.5627 18.1626 22.632C18.1626 22.7013 18.1999 22.752 18.2746 22.784C18.3492 22.8133 18.4479 22.8347 18.5706 22.848C18.6932 22.8587 18.8319 22.8667 18.9866 22.872C19.1439 22.8747 19.3039 22.884 19.4666 22.9C19.6292 22.9133 19.7879 22.9373 19.9426 22.972C20.0999 23.0067 20.2399 23.0627 20.3626 23.14C20.4852 23.2173 20.5839 23.3213 20.6586 23.452C20.7332 23.58 20.7706 23.744 20.7706 23.944C20.7706 24.1307 20.7252 24.3133 20.6346 24.492C20.5439 24.6707 20.4106 24.8293 20.2346 24.968C20.0586 25.1067 19.8426 25.2173 19.5866 25.3C19.3306 25.3853 19.0372 25.428 18.7066 25.428C18.3812 25.428 18.0999 25.3973 17.8626 25.336C17.6279 25.2747 17.4319 25.1933 17.2746 25.092C17.1199 24.9933 17.0052 24.8787 16.9306 24.748C16.8559 24.6173 16.8186 24.4813 16.8186 24.34C16.8186 24.156 16.8719 24.0027 16.9786 23.88C17.0852 23.7573 17.2346 23.6587 17.4266 23.584C17.3252 23.5227 17.2452 23.444 17.1866 23.348C17.1279 23.252 17.0986 23.128 17.0986 22.976C17.0986 22.9147 17.1092 22.8507 17.1306 22.784C17.1519 22.7147 17.1852 22.648 17.2306 22.584C17.2786 22.5173 17.3372 22.4547 17.4066 22.396C17.4759 22.3373 17.5586 22.2853 17.6546 22.24C17.4386 22.1253 17.2679 21.9747 17.1426 21.788C17.0172 21.5987 16.9546 21.3787 16.9546 21.128C16.9546 20.92 16.9986 20.7333 17.0866 20.568C17.1746 20.4 17.2946 20.2587 17.4466 20.144C17.6012 20.0267 17.7826 19.9373 17.9906 19.876C18.1986 19.812 18.4239 19.78 18.6666 19.78C19.0186 19.78 19.3306 19.8467 19.6026 19.98H20.8506ZM22.4878 18.012V24H21.2478V18.012H22.4878ZM25.7859 21.428C25.7859 21.3293 25.7726 21.2333 25.7459 21.14C25.7219 21.0467 25.6806 20.964 25.6219 20.892C25.5659 20.8173 25.4913 20.7573 25.3979 20.712C25.3046 20.6667 25.1913 20.644 25.0579 20.644C24.8233 20.644 24.6393 20.712 24.5059 20.848C24.3726 20.9813 24.2846 21.1747 24.2419 21.428H25.7859ZM24.2259 22.148C24.2659 22.4947 24.3713 22.7467 24.5419 22.904C24.7126 23.0587 24.9326 23.136 25.2019 23.136C25.3459 23.136 25.4699 23.1187 25.5739 23.084C25.6779 23.0493 25.7699 23.0107 25.8499 22.968C25.9326 22.9253 26.0073 22.8867 26.0739 22.852C26.1433 22.8173 26.2153 22.8 26.2899 22.8C26.3886 22.8 26.4633 22.836 26.5139 22.908L26.8739 23.352C26.7459 23.4987 26.6073 23.6187 26.4579 23.712C26.3113 23.8027 26.1593 23.8747 26.0019 23.928C25.8473 23.9787 25.6913 24.0133 25.5339 24.032C25.3793 24.0533 25.2313 24.064 25.0899 24.064C24.7993 24.064 24.5259 24.0173 24.2699 23.924C24.0166 23.828 23.7939 23.6867 23.6019 23.5C23.4126 23.3133 23.2619 23.0813 23.1499 22.804C23.0406 22.5267 22.9859 22.204 22.9859 21.836C22.9859 21.5587 23.0326 21.296 23.1259 21.048C23.2219 20.8 23.3579 20.5827 23.5339 20.396C23.7126 20.2093 23.9273 20.0613 24.1779 19.952C24.4313 19.8427 24.7166 19.788 25.0339 19.788C25.3086 19.788 25.5593 19.8307 25.7859 19.916C26.0153 20.0013 26.2113 20.1253 26.3739 20.288C26.5393 20.4507 26.6673 20.6507 26.7579 20.888C26.8513 21.1227 26.8979 21.3893 26.8979 21.688C26.8979 21.7813 26.8939 21.8573 26.8859 21.916C26.8779 21.9747 26.8633 22.0213 26.8419 22.056C26.8206 22.0907 26.7913 22.1147 26.7539 22.128C26.7193 22.1413 26.6739 22.148 26.6179 22.148H24.2259Z" fill="#B4B4B4"/>
<g opacity="0.75">
<rect x="31.5" y="26" width="10" height="1" transform="rotate(-90 31.5 26)" fill="black"/>
</g>
<rect x="33.5" y="16.5" width="27" height="9" rx="1" fill="#399DFF"/>
<rect x="33.5" y="16.5" width="27" height="9" rx="1" stroke="#399DFF"/>
<path d="M42.5109 19.356C42.4709 19.42 42.4282 19.468 42.3829 19.5C42.3402 19.532 42.2842 19.548 42.2149 19.548C42.1535 19.548 42.0869 19.5293 42.0149 19.492C41.9455 19.452 41.8655 19.408 41.7749 19.36C41.6869 19.312 41.5855 19.2693 41.4709 19.232C41.3562 19.192 41.2255 19.172 41.0789 19.172C40.8255 19.172 40.6362 19.2267 40.5109 19.336C40.3882 19.4427 40.3269 19.588 40.3269 19.772C40.3269 19.8893 40.3642 19.9867 40.4389 20.064C40.5135 20.1413 40.6109 20.208 40.7309 20.264C40.8535 20.32 40.9922 20.372 41.1469 20.42C41.3042 20.4653 41.4642 20.5173 41.6269 20.576C41.7895 20.632 41.9482 20.6987 42.1029 20.776C42.2602 20.8533 42.3989 20.952 42.5189 21.072C42.6415 21.192 42.7402 21.3387 42.8149 21.512C42.8895 21.6827 42.9269 21.8893 42.9269 22.132C42.9269 22.4013 42.8802 22.6533 42.7869 22.888C42.6935 23.1227 42.5575 23.328 42.3789 23.504C42.2029 23.6773 41.9842 23.8147 41.7229 23.916C41.4642 24.0147 41.1695 24.064 40.8389 24.064C40.6575 24.064 40.4722 24.0453 40.2829 24.008C40.0962 23.9707 39.9149 23.9187 39.7389 23.852C39.5629 23.7827 39.3975 23.7013 39.2429 23.608C39.0882 23.5147 38.9535 23.4107 38.8389 23.296L39.2389 22.664C39.2709 22.6187 39.3122 22.5813 39.3629 22.552C39.4162 22.52 39.4735 22.504 39.5349 22.504C39.6149 22.504 39.6949 22.5293 39.7749 22.58C39.8575 22.6307 39.9495 22.6867 40.0509 22.748C40.1549 22.8093 40.2735 22.8653 40.4069 22.916C40.5402 22.9667 40.6975 22.992 40.8789 22.992C41.1242 22.992 41.3149 22.9387 41.4509 22.832C41.5869 22.7227 41.6549 22.5507 41.6549 22.316C41.6549 22.18 41.6175 22.0693 41.5429 21.984C41.4682 21.8987 41.3695 21.828 41.2469 21.772C41.1269 21.716 40.9895 21.6667 40.8349 21.624C40.6802 21.5813 40.5215 21.5347 40.3589 21.484C40.1962 21.4307 40.0375 21.3667 39.8829 21.292C39.7282 21.2147 39.5895 21.1147 39.4669 20.992C39.3469 20.8667 39.2495 20.712 39.1749 20.528C39.1002 20.3413 39.0629 20.112 39.0629 19.84C39.0629 19.6213 39.1069 19.408 39.1949 19.2C39.2829 18.992 39.4122 18.8067 39.5829 18.644C39.7535 18.4813 39.9629 18.352 40.2109 18.256C40.4589 18.1573 40.7429 18.108 41.0629 18.108C41.2415 18.108 41.4149 18.1227 41.5829 18.152C41.7535 18.1787 41.9149 18.22 42.0669 18.276C42.2189 18.3293 42.3602 18.3947 42.4909 18.472C42.6242 18.5467 42.7429 18.632 42.8469 18.728L42.5109 19.356ZM44.6497 20.216C44.799 20.088 44.9604 19.9853 45.1337 19.908C45.3097 19.828 45.519 19.788 45.7617 19.788C45.9884 19.788 46.1884 19.828 46.3617 19.908C46.5377 19.9853 46.6857 20.0947 46.8057 20.236C46.9257 20.3747 47.0164 20.5413 47.0777 20.736C47.139 20.928 47.1697 21.1373 47.1697 21.364V24H45.9297V21.364C45.9297 21.1613 45.883 21.004 45.7897 20.892C45.6964 20.7773 45.559 20.72 45.3777 20.72C45.2417 20.72 45.1137 20.7493 44.9937 20.808C44.8764 20.864 44.7617 20.9413 44.6497 21.04V24H43.4097V18.012H44.6497V20.216ZM49.1202 19.852V24H47.8802V19.852H49.1202ZM49.2482 18.716C49.2482 18.8147 49.2282 18.908 49.1882 18.996C49.1482 19.0813 49.0935 19.1573 49.0242 19.224C48.9549 19.288 48.8735 19.34 48.7802 19.38C48.6895 19.4173 48.5922 19.436 48.4882 19.436C48.3869 19.436 48.2922 19.4173 48.2042 19.38C48.1162 19.34 48.0375 19.288 47.9682 19.224C47.9015 19.1573 47.8482 19.0813 47.8082 18.996C47.7709 18.908 47.7522 18.8147 47.7522 18.716C47.7522 18.6147 47.7709 18.52 47.8082 18.432C47.8482 18.344 47.9015 18.2667 47.9682 18.2C48.0375 18.1333 48.1162 18.0813 48.2042 18.044C48.2922 18.0067 48.3869 17.988 48.4882 17.988C48.5922 17.988 48.6895 18.0067 48.7802 18.044C48.8735 18.0813 48.9549 18.1333 49.0242 18.2C49.0935 18.2667 49.1482 18.344 49.1882 18.432C49.2282 18.52 49.2482 18.6147 49.2482 18.716ZM54.129 20.708V22.768C54.129 22.864 54.1517 22.944 54.197 23.008C54.245 23.0693 54.313 23.1 54.401 23.1C54.4463 23.1 54.4837 23.096 54.513 23.088C54.545 23.0773 54.5717 23.0667 54.593 23.056C54.617 23.0427 54.6383 23.032 54.657 23.024C54.6783 23.0133 54.7023 23.008 54.729 23.008C54.7663 23.008 54.7957 23.0173 54.817 23.036C54.841 23.052 54.865 23.0787 54.889 23.116L55.265 23.704C55.105 23.824 54.925 23.9147 54.725 23.976C54.525 24.0347 54.3183 24.064 54.105 24.064C53.9077 24.064 53.733 24.036 53.581 23.98C53.4317 23.9213 53.305 23.84 53.201 23.736C53.0997 23.6293 53.0223 23.5013 52.969 23.352C52.9157 23.2027 52.889 23.036 52.889 22.852V20.708H51.413V24H50.173V20.704L49.901 20.648C49.8077 20.6267 49.7317 20.5933 49.673 20.548C49.617 20.5027 49.589 20.436 49.589 20.348V19.86H50.173V19.624C50.173 19.3867 50.2103 19.172 50.285 18.98C50.3623 18.788 50.4717 18.624 50.613 18.488C50.757 18.352 50.9317 18.2467 51.137 18.172C51.3423 18.0973 51.5757 18.06 51.837 18.06C51.9383 18.06 52.0317 18.0667 52.117 18.08C52.2023 18.0907 52.2917 18.1093 52.385 18.136L52.361 18.74C52.3583 18.7827 52.3477 18.8187 52.329 18.848C52.3103 18.8747 52.285 18.8973 52.253 18.916C52.2237 18.932 52.1917 18.944 52.157 18.952C52.1223 18.96 52.0877 18.964 52.053 18.964C51.9437 18.964 51.8463 18.9747 51.761 18.996C51.6757 19.0173 51.6037 19.056 51.545 19.112C51.489 19.1653 51.4463 19.2373 51.417 19.328C51.3877 19.416 51.373 19.528 51.373 19.664V19.86H52.961L53.209 18.84C53.241 18.712 53.3317 18.648 53.481 18.648H54.129V19.86H55.157V20.708H54.129Z" fill="white"/>
<g opacity="0.75">
<rect x="61.5" y="26" width="10" height="1" transform="rotate(-90 61.5 26)" fill="black"/>
</g>
<path d="M73.6922 21.084C73.6922 21.5053 73.6188 21.8947 73.4722 22.252C73.3282 22.6067 73.1242 22.9147 72.8602 23.176C72.5962 23.4347 72.2775 23.6373 71.9042 23.784C71.5335 23.928 71.1215 24 70.6682 24H68.4042V18.172H70.6682C71.1215 18.172 71.5335 18.2453 71.9042 18.392C72.2775 18.5387 72.5962 18.7413 72.8602 19C73.1242 19.2587 73.3282 19.5667 73.4722 19.924C73.6188 20.2787 73.6922 20.6653 73.6922 21.084ZM72.3082 21.084C72.3082 20.796 72.2708 20.536 72.1962 20.304C72.1215 20.072 72.0135 19.876 71.8722 19.716C71.7335 19.5533 71.5628 19.4293 71.3602 19.344C71.1575 19.256 70.9268 19.212 70.6682 19.212H69.7642V22.96H70.6682C70.9268 22.96 71.1575 22.9173 71.3602 22.832C71.5628 22.744 71.7335 22.62 71.8722 22.46C72.0135 22.2973 72.1215 22.1 72.1962 21.868C72.2708 21.636 72.3082 21.3747 72.3082 21.084ZM75.3236 20.492C75.4516 20.268 75.5983 20.092 75.7636 19.964C75.9316 19.836 76.1236 19.772 76.3396 19.772C76.5263 19.772 76.6783 19.816 76.7956 19.904L76.7156 20.816C76.7023 20.8747 76.6796 20.9147 76.6476 20.936C76.6183 20.9573 76.5769 20.968 76.5236 20.968C76.5023 20.968 76.4743 20.9667 76.4396 20.964C76.4049 20.9613 76.3689 20.9587 76.3316 20.956C76.2943 20.9507 76.2556 20.9467 76.2156 20.944C76.1783 20.9387 76.1436 20.936 76.1116 20.936C75.9303 20.936 75.7849 20.984 75.6756 21.08C75.5689 21.176 75.4783 21.3093 75.4036 21.48V24H74.1636V19.852H74.8996C74.9609 19.852 75.0116 19.8573 75.0516 19.868C75.0943 19.8787 75.1289 19.896 75.1556 19.92C75.1849 19.9413 75.2063 19.9707 75.2196 20.008C75.2356 20.0453 75.2489 20.0907 75.2596 20.144L75.3236 20.492ZM79.1992 22.312C78.9512 22.3227 78.7472 22.344 78.5872 22.376C78.4272 22.408 78.3006 22.448 78.2072 22.496C78.1139 22.544 78.0486 22.5987 78.0112 22.66C77.9766 22.7213 77.9592 22.788 77.9592 22.86C77.9592 23.0013 77.9979 23.1013 78.0752 23.16C78.1526 23.216 78.2659 23.244 78.4152 23.244C78.5752 23.244 78.7152 23.216 78.8352 23.16C78.9552 23.104 79.0766 23.0133 79.1992 22.888V22.312ZM76.9672 20.428C77.2179 20.2067 77.4952 20.0427 77.7992 19.936C78.1059 19.8267 78.4339 19.772 78.7832 19.772C79.0339 19.772 79.2592 19.8133 79.4592 19.896C79.6619 19.976 79.8326 20.0893 79.9712 20.236C80.1126 20.38 80.2206 20.552 80.2952 20.752C80.3699 20.952 80.4072 21.1707 80.4072 21.408V24H79.8392C79.7219 24 79.6326 23.984 79.5712 23.952C79.5126 23.92 79.4632 23.8533 79.4232 23.752L79.3352 23.524C79.2312 23.612 79.1312 23.6893 79.0352 23.756C78.9392 23.8227 78.8392 23.88 78.7352 23.928C78.6339 23.9733 78.5246 24.0067 78.4072 24.028C78.2926 24.052 78.1646 24.064 78.0232 24.064C77.8339 24.064 77.6619 24.04 77.5072 23.992C77.3526 23.9413 77.2206 23.868 77.1112 23.772C77.0046 23.676 76.9219 23.5573 76.8632 23.416C76.8046 23.272 76.7752 23.1067 76.7752 22.92C76.7752 22.7707 76.8126 22.62 76.8872 22.468C76.9619 22.3133 77.0912 22.1733 77.2752 22.048C77.4592 21.92 77.7072 21.8133 78.0192 21.728C78.3312 21.6427 78.7246 21.5947 79.1992 21.584V21.408C79.1992 21.1653 79.1486 20.9907 79.0472 20.884C78.9486 20.7747 78.8072 20.72 78.6232 20.72C78.4766 20.72 78.3566 20.736 78.2632 20.768C78.1699 20.8 78.0859 20.836 78.0112 20.876C77.9392 20.916 77.8686 20.952 77.7992 20.984C77.7299 21.016 77.6472 21.032 77.5512 21.032C77.4659 21.032 77.3939 21.0107 77.3352 20.968C77.2766 20.9253 77.2286 20.8747 77.1912 20.816L76.9672 20.428ZM87.137 19.852L85.849 24H84.841C84.7876 24 84.7423 23.984 84.705 23.952C84.6676 23.92 84.6383 23.8667 84.617 23.792L84.025 21.724C83.9956 21.6307 83.969 21.5387 83.945 21.448C83.9236 21.3573 83.9036 21.2653 83.885 21.172C83.8663 21.2653 83.845 21.3587 83.821 21.452C83.7996 21.5453 83.7743 21.6387 83.745 21.732L83.145 23.792C83.105 23.9307 83.017 24 82.881 24H81.921L80.633 19.852H81.625C81.713 19.852 81.7863 19.8733 81.845 19.916C81.9063 19.956 81.9476 20.0067 81.969 20.068L82.385 21.928C82.4196 22.0693 82.4503 22.2067 82.477 22.34C82.5036 22.4707 82.5276 22.6027 82.549 22.736C82.5836 22.6027 82.6196 22.4707 82.657 22.34C82.697 22.2067 82.7396 22.0693 82.785 21.928L83.305 20.064C83.3263 20.0027 83.3663 19.952 83.425 19.912C83.4836 19.8693 83.553 19.848 83.633 19.848H84.185C84.273 19.848 84.3463 19.8693 84.405 19.912C84.4663 19.952 84.5076 20.0027 84.529 20.064L85.025 21.928C85.065 22.0693 85.1036 22.2067 85.141 22.34C85.181 22.4733 85.217 22.608 85.249 22.744C85.2703 22.6107 85.2956 22.4773 85.325 22.344C85.3543 22.2107 85.3876 22.072 85.425 21.928L85.865 20.068C85.8863 20.0067 85.9263 19.956 85.985 19.916C86.0436 19.8733 86.113 19.852 86.193 19.852H87.137Z" fill="#B4B4B4"/>
<path d="M2.5 15H91.5V14H2.5V15ZM93 16.5V25.5H94V16.5H93ZM91.5 27H2.5V28H91.5V27ZM1 25.5V16.5H0V25.5H1ZM2.5 27C1.67157 27 1 26.3284 1 25.5H0C0 26.8807 1.11929 28 2.5 28V27ZM93 25.5C93 26.3284 92.3284 27 91.5 27V28C92.8807 28 94 26.8807 94 25.5H93ZM91.5 15C92.3284 15 93 15.6716 93 16.5H94C94 15.1193 92.8807 14 91.5 14V15ZM2.5 14C1.11929 14 0 15.1193 0 16.5H1C1 15.6716 1.67157 15 2.5 15V14Z" fill="black"/>
<path d="M0.5 30.5C0.5 29.3954 1.39543 28.5 2.5 28.5H91.5C92.6046 28.5 93.5 29.3954 93.5 30.5V39.5C93.5 40.6046 92.6046 41.5 91.5 41.5H2.5C1.39543 41.5 0.5 40.6046 0.5 39.5V30.5Z" fill="#242424"/>
<path d="M9.68556 33.356C9.64556 33.42 9.6029 33.468 9.55756 33.5C9.5149 33.532 9.4589 33.548 9.38956 33.548C9.32823 33.548 9.26156 33.5293 9.18956 33.492C9.12023 33.452 9.04023 33.408 8.94956 33.36C8.86156 33.312 8.76023 33.2693 8.64556 33.232C8.5309 33.192 8.40023 33.172 8.25356 33.172C8.00023 33.172 7.8109 33.2267 7.68556 33.336C7.5629 33.4427 7.50156 33.588 7.50156 33.772C7.50156 33.8893 7.5389 33.9867 7.61356 34.064C7.68823 34.1413 7.78556 34.208 7.90556 34.264C8.02823 34.32 8.1669 34.372 8.32156 34.42C8.4789 34.4653 8.6389 34.5173 8.80156 34.576C8.96423 34.632 9.1229 34.6987 9.27756 34.776C9.4349 34.8533 9.57356 34.952 9.69356 35.072C9.81623 35.192 9.9149 35.3387 9.98956 35.512C10.0642 35.6827 10.1016 35.8893 10.1016 36.132C10.1016 36.4013 10.0549 36.6533 9.96156 36.888C9.86823 37.1227 9.73223 37.328 9.55356 37.504C9.37756 37.6773 9.1589 37.8147 8.89756 37.916C8.6389 38.0147 8.34423 38.064 8.01356 38.064C7.83223 38.064 7.6469 38.0453 7.45756 38.008C7.2709 37.9707 7.08956 37.9187 6.91356 37.852C6.73756 37.7827 6.57223 37.7013 6.41756 37.608C6.2629 37.5147 6.12823 37.4107 6.01356 37.296L6.41356 36.664C6.44556 36.6187 6.4869 36.5813 6.53756 36.552C6.5909 36.52 6.64823 36.504 6.70956 36.504C6.78956 36.504 6.86956 36.5293 6.94956 36.58C7.03223 36.6307 7.12423 36.6867 7.22556 36.748C7.32956 36.8093 7.44823 36.8653 7.58156 36.916C7.7149 36.9667 7.87223 36.992 8.05356 36.992C8.2989 36.992 8.48956 36.9387 8.62556 36.832C8.76156 36.7227 8.82956 36.5507 8.82956 36.316C8.82956 36.18 8.79223 36.0693 8.71756 35.984C8.6429 35.8987 8.54423 35.828 8.42156 35.772C8.30156 35.716 8.16423 35.6667 8.00956 35.624C7.8549 35.5813 7.69623 35.5347 7.53356 35.484C7.3709 35.4307 7.21223 35.3667 7.05756 35.292C6.9029 35.2147 6.76423 35.1147 6.64156 34.992C6.52156 34.8667 6.42423 34.712 6.34956 34.528C6.2749 34.3413 6.23756 34.112 6.23756 33.84C6.23756 33.6213 6.28156 33.408 6.36956 33.2C6.45756 32.992 6.5869 32.8067 6.75756 32.644C6.92823 32.4813 7.13756 32.352 7.38556 32.256C7.63356 32.1573 7.91756 32.108 8.23756 32.108C8.41623 32.108 8.58956 32.1227 8.75756 32.152C8.92823 32.1787 9.08956 32.22 9.24156 32.276C9.39356 32.3293 9.5349 32.3947 9.66556 32.472C9.7989 32.5467 9.91756 32.632 10.0216 32.728L9.68556 33.356ZM11.8993 33.852V38H10.6593V33.852H11.8993ZM12.0273 32.716C12.0273 32.8147 12.0073 32.908 11.9673 32.996C11.9273 33.0813 11.8726 33.1573 11.8033 33.224C11.7339 33.288 11.6526 33.34 11.5593 33.38C11.4686 33.4173 11.3713 33.436 11.2673 33.436C11.1659 33.436 11.0713 33.4173 10.9833 33.38C10.8953 33.34 10.8166 33.288 10.7473 33.224C10.6806 33.1573 10.6273 33.0813 10.5873 32.996C10.5499 32.908 10.5313 32.8147 10.5313 32.716C10.5313 32.6147 10.5499 32.52 10.5873 32.432C10.6273 32.344 10.6806 32.2667 10.7473 32.2C10.8166 32.1333 10.8953 32.0813 10.9833 32.044C11.0713 32.0067 11.1659 31.988 11.2673 31.988C11.3713 31.988 11.4686 32.0067 11.5593 32.044C11.6526 32.0813 11.7339 32.1333 11.8033 32.2C11.8726 32.2667 11.9273 32.344 11.9673 32.432C12.0073 32.52 12.0273 32.6147 12.0273 32.716ZM13.7881 34.3C13.8681 34.2253 13.9507 34.156 14.0361 34.092C14.1214 34.028 14.2121 33.9747 14.3081 33.932C14.4067 33.8867 14.5121 33.852 14.6241 33.828C14.7387 33.8013 14.8627 33.788 14.9961 33.788C15.2227 33.788 15.4227 33.828 15.5961 33.908C15.7721 33.9853 15.9201 34.0947 16.0401 34.236C16.1601 34.3747 16.2507 34.5413 16.3121 34.736C16.3734 34.928 16.4041 35.1373 16.4041 35.364V38H15.1641V35.364C15.1641 35.1613 15.1174 35.004 15.0241 34.892C14.9307 34.7773 14.7934 34.72 14.6121 34.72C14.4761 34.72 14.3481 34.7493 14.2281 34.808C14.1107 34.864 13.9961 34.9413 13.8841 35.04V38H12.6441V33.852H13.4121C13.5667 33.852 13.6681 33.9213 13.7161 34.06L13.7881 34.3ZM18.6666 35.708C18.8719 35.708 19.0199 35.6573 19.1106 35.556C19.2039 35.452 19.2506 35.3187 19.2506 35.156C19.2506 34.988 19.2039 34.856 19.1106 34.76C19.0199 34.664 18.8719 34.616 18.6666 34.616C18.4612 34.616 18.3119 34.664 18.2186 34.76C18.1279 34.856 18.0826 34.988 18.0826 35.156C18.0826 35.236 18.0932 35.3093 18.1146 35.376C18.1386 35.4427 18.1746 35.5013 18.2226 35.552C18.2706 35.6 18.3306 35.6387 18.4026 35.668C18.4772 35.6947 18.5652 35.708 18.6666 35.708ZM19.6266 38.152C19.6266 38.0533 19.5826 37.9827 19.4946 37.94C19.4066 37.8947 19.2919 37.8627 19.1506 37.844C19.0092 37.8253 18.8506 37.8147 18.6746 37.812C18.5012 37.8067 18.3279 37.796 18.1546 37.78C18.0772 37.8333 18.0132 37.8933 17.9626 37.96C17.9146 38.024 17.8906 38.0973 17.8906 38.18C17.8906 38.2387 17.9026 38.292 17.9266 38.34C17.9532 38.388 17.9986 38.4293 18.0626 38.464C18.1266 38.4987 18.2119 38.5253 18.3186 38.544C18.4279 38.5653 18.5652 38.576 18.7306 38.576C18.9092 38.576 19.0559 38.5653 19.1706 38.544C19.2852 38.5227 19.3759 38.4933 19.4426 38.456C19.5119 38.4187 19.5599 38.3733 19.5866 38.32C19.6132 38.2693 19.6266 38.2133 19.6266 38.152ZM20.8506 33.98V34.432C20.8506 34.5013 20.8306 34.556 20.7906 34.596C20.7532 34.636 20.6879 34.6667 20.5946 34.688L20.2946 34.756C20.3106 34.8147 20.3226 34.8747 20.3306 34.936C20.3412 34.9973 20.3466 35.0613 20.3466 35.128C20.3466 35.336 20.3026 35.5227 20.2146 35.688C20.1292 35.8533 20.0106 35.9947 19.8586 36.112C19.7092 36.2267 19.5319 36.316 19.3266 36.38C19.1212 36.4413 18.9012 36.472 18.6666 36.472C18.6026 36.472 18.5399 36.4707 18.4786 36.468C18.4172 36.4627 18.3572 36.4547 18.2986 36.444C18.2079 36.5 18.1626 36.5627 18.1626 36.632C18.1626 36.7013 18.1999 36.752 18.2746 36.784C18.3492 36.8133 18.4479 36.8347 18.5706 36.848C18.6932 36.8587 18.8319 36.8667 18.9866 36.872C19.1439 36.8747 19.3039 36.884 19.4666 36.9C19.6292 36.9133 19.7879 36.9373 19.9426 36.972C20.0999 37.0067 20.2399 37.0627 20.3626 37.14C20.4852 37.2173 20.5839 37.3213 20.6586 37.452C20.7332 37.58 20.7706 37.744 20.7706 37.944C20.7706 38.1307 20.7252 38.3133 20.6346 38.492C20.5439 38.6707 20.4106 38.8293 20.2346 38.968C20.0586 39.1067 19.8426 39.2173 19.5866 39.3C19.3306 39.3853 19.0372 39.428 18.7066 39.428C18.3812 39.428 18.0999 39.3973 17.8626 39.336C17.6279 39.2747 17.4319 39.1933 17.2746 39.092C17.1199 38.9933 17.0052 38.8787 16.9306 38.748C16.8559 38.6173 16.8186 38.4813 16.8186 38.34C16.8186 38.156 16.8719 38.0027 16.9786 37.88C17.0852 37.7573 17.2346 37.6587 17.4266 37.584C17.3252 37.5227 17.2452 37.444 17.1866 37.348C17.1279 37.252 17.0986 37.128 17.0986 36.976C17.0986 36.9147 17.1092 36.8507 17.1306 36.784C17.1519 36.7147 17.1852 36.648 17.2306 36.584C17.2786 36.5173 17.3372 36.4547 17.4066 36.396C17.4759 36.3373 17.5586 36.2853 17.6546 36.24C17.4386 36.1253 17.2679 35.9747 17.1426 35.788C17.0172 35.5987 16.9546 35.3787 16.9546 35.128C16.9546 34.92 16.9986 34.7333 17.0866 34.568C17.1746 34.4 17.2946 34.2587 17.4466 34.144C17.6012 34.0267 17.7826 33.9373 17.9906 33.876C18.1986 33.812 18.4239 33.78 18.6666 33.78C19.0186 33.78 19.3306 33.8467 19.6026 33.98H20.8506ZM22.4878 32.012V38H21.2478V32.012H22.4878ZM25.7859 35.428C25.7859 35.3293 25.7726 35.2333 25.7459 35.14C25.7219 35.0467 25.6806 34.964 25.6219 34.892C25.5659 34.8173 25.4913 34.7573 25.3979 34.712C25.3046 34.6667 25.1913 34.644 25.0579 34.644C24.8233 34.644 24.6393 34.712 24.5059 34.848C24.3726 34.9813 24.2846 35.1747 24.2419 35.428H25.7859ZM24.2259 36.148C24.2659 36.4947 24.3713 36.7467 24.5419 36.904C24.7126 37.0587 24.9326 37.136 25.2019 37.136C25.3459 37.136 25.4699 37.1187 25.5739 37.084C25.6779 37.0493 25.7699 37.0107 25.8499 36.968C25.9326 36.9253 26.0073 36.8867 26.0739 36.852C26.1433 36.8173 26.2153 36.8 26.2899 36.8C26.3886 36.8 26.4633 36.836 26.5139 36.908L26.8739 37.352C26.7459 37.4987 26.6073 37.6187 26.4579 37.712C26.3113 37.8027 26.1593 37.8747 26.0019 37.928C25.8473 37.9787 25.6913 38.0133 25.5339 38.032C25.3793 38.0533 25.2313 38.064 25.0899 38.064C24.7993 38.064 24.5259 38.0173 24.2699 37.924C24.0166 37.828 23.7939 37.6867 23.6019 37.5C23.4126 37.3133 23.2619 37.0813 23.1499 36.804C23.0406 36.5267 22.9859 36.204 22.9859 35.836C22.9859 35.5587 23.0326 35.296 23.1259 35.048C23.2219 34.8 23.3579 34.5827 23.5339 34.396C23.7126 34.2093 23.9273 34.0613 24.1779 33.952C24.4313 33.8427 24.7166 33.788 25.0339 33.788C25.3086 33.788 25.5593 33.8307 25.7859 33.916C26.0153 34.0013 26.2113 34.1253 26.3739 34.288C26.5393 34.4507 26.6673 34.6507 26.7579 34.888C26.8513 35.1227 26.8979 35.3893 26.8979 35.688C26.8979 35.7813 26.8939 35.8573 26.8859 35.916C26.8779 35.9747 26.8633 36.0213 26.8419 36.056C26.8206 36.0907 26.7913 36.1147 26.7539 36.128C26.7193 36.1413 26.6739 36.148 26.6179 36.148H24.2259Z" fill="#B4B4B4"/>
<g opacity="0.75">
<rect x="31.5" y="40" width="10" height="1" transform="rotate(-90 31.5 40)" fill="black"/>
</g>
<path d="M42.5109 33.356C42.4709 33.42 42.4282 33.468 42.3829 33.5C42.3402 33.532 42.2842 33.548 42.2149 33.548C42.1535 33.548 42.0869 33.5293 42.0149 33.492C41.9455 33.452 41.8655 33.408 41.7749 33.36C41.6869 33.312 41.5855 33.2693 41.4709 33.232C41.3562 33.192 41.2255 33.172 41.0789 33.172C40.8255 33.172 40.6362 33.2267 40.5109 33.336C40.3882 33.4427 40.3269 33.588 40.3269 33.772C40.3269 33.8893 40.3642 33.9867 40.4389 34.064C40.5135 34.1413 40.6109 34.208 40.7309 34.264C40.8535 34.32 40.9922 34.372 41.1469 34.42C41.3042 34.4653 41.4642 34.5173 41.6269 34.576C41.7895 34.632 41.9482 34.6987 42.1029 34.776C42.2602 34.8533 42.3989 34.952 42.5189 35.072C42.6415 35.192 42.7402 35.3387 42.8149 35.512C42.8895 35.6827 42.9269 35.8893 42.9269 36.132C42.9269 36.4013 42.8802 36.6533 42.7869 36.888C42.6935 37.1227 42.5575 37.328 42.3789 37.504C42.2029 37.6773 41.9842 37.8147 41.7229 37.916C41.4642 38.0147 41.1695 38.064 40.8389 38.064C40.6575 38.064 40.4722 38.0453 40.2829 38.008C40.0962 37.9707 39.9149 37.9187 39.7389 37.852C39.5629 37.7827 39.3975 37.7013 39.2429 37.608C39.0882 37.5147 38.9535 37.4107 38.8389 37.296L39.2389 36.664C39.2709 36.6187 39.3122 36.5813 39.3629 36.552C39.4162 36.52 39.4735 36.504 39.5349 36.504C39.6149 36.504 39.6949 36.5293 39.7749 36.58C39.8575 36.6307 39.9495 36.6867 40.0509 36.748C40.1549 36.8093 40.2735 36.8653 40.4069 36.916C40.5402 36.9667 40.6975 36.992 40.8789 36.992C41.1242 36.992 41.3149 36.9387 41.4509 36.832C41.5869 36.7227 41.6549 36.5507 41.6549 36.316C41.6549 36.18 41.6175 36.0693 41.5429 35.984C41.4682 35.8987 41.3695 35.828 41.2469 35.772C41.1269 35.716 40.9895 35.6667 40.8349 35.624C40.6802 35.5813 40.5215 35.5347 40.3589 35.484C40.1962 35.4307 40.0375 35.3667 39.8829 35.292C39.7282 35.2147 39.5895 35.1147 39.4669 34.992C39.3469 34.8667 39.2495 34.712 39.1749 34.528C39.1002 34.3413 39.0629 34.112 39.0629 33.84C39.0629 33.6213 39.1069 33.408 39.1949 33.2C39.2829 32.992 39.4122 32.8067 39.5829 32.644C39.7535 32.4813 39.9629 32.352 40.2109 32.256C40.4589 32.1573 40.7429 32.108 41.0629 32.108C41.2415 32.108 41.4149 32.1227 41.5829 32.152C41.7535 32.1787 41.9149 32.22 42.0669 32.276C42.2189 32.3293 42.3602 32.3947 42.4909 32.472C42.6242 32.5467 42.7429 32.632 42.8469 32.728L42.5109 33.356ZM44.6497 34.216C44.799 34.088 44.9604 33.9853 45.1337 33.908C45.3097 33.828 45.519 33.788 45.7617 33.788C45.9884 33.788 46.1884 33.828 46.3617 33.908C46.5377 33.9853 46.6857 34.0947 46.8057 34.236C46.9257 34.3747 47.0164 34.5413 47.0777 34.736C47.139 34.928 47.1697 35.1373 47.1697 35.364V38H45.9297V35.364C45.9297 35.1613 45.883 35.004 45.7897 34.892C45.6964 34.7773 45.559 34.72 45.3777 34.72C45.2417 34.72 45.1137 34.7493 44.9937 34.808C44.8764 34.864 44.7617 34.9413 44.6497 35.04V38H43.4097V32.012H44.6497V34.216ZM49.1202 33.852V38H47.8802V33.852H49.1202ZM49.2482 32.716C49.2482 32.8147 49.2282 32.908 49.1882 32.996C49.1482 33.0813 49.0935 33.1573 49.0242 33.224C48.9549 33.288 48.8735 33.34 48.7802 33.38C48.6895 33.4173 48.5922 33.436 48.4882 33.436C48.3869 33.436 48.2922 33.4173 48.2042 33.38C48.1162 33.34 48.0375 33.288 47.9682 33.224C47.9015 33.1573 47.8482 33.0813 47.8082 32.996C47.7709 32.908 47.7522 32.8147 47.7522 32.716C47.7522 32.6147 47.7709 32.52 47.8082 32.432C47.8482 32.344 47.9015 32.2667 47.9682 32.2C48.0375 32.1333 48.1162 32.0813 48.2042 32.044C48.2922 32.0067 48.3869 31.988 48.4882 31.988C48.5922 31.988 48.6895 32.0067 48.7802 32.044C48.8735 32.0813 48.9549 32.1333 49.0242 32.2C49.0935 32.2667 49.1482 32.344 49.1882 32.432C49.2282 32.52 49.2482 32.6147 49.2482 32.716ZM54.129 34.708V36.768C54.129 36.864 54.1517 36.944 54.197 37.008C54.245 37.0693 54.313 37.1 54.401 37.1C54.4463 37.1 54.4837 37.096 54.513 37.088C54.545 37.0773 54.5717 37.0667 54.593 37.056C54.617 37.0427 54.6383 37.032 54.657 37.024C54.6783 37.0133 54.7023 37.008 54.729 37.008C54.7663 37.008 54.7957 37.0173 54.817 37.036C54.841 37.052 54.865 37.0787 54.889 37.116L55.265 37.704C55.105 37.824 54.925 37.9147 54.725 37.976C54.525 38.0347 54.3183 38.064 54.105 38.064C53.9077 38.064 53.733 38.036 53.581 37.98C53.4317 37.9213 53.305 37.84 53.201 37.736C53.0997 37.6293 53.0223 37.5013 52.969 37.352C52.9157 37.2027 52.889 37.036 52.889 36.852V34.708H51.413V38H50.173V34.704L49.901 34.648C49.8077 34.6267 49.7317 34.5933 49.673 34.548C49.617 34.5027 49.589 34.436 49.589 34.348V33.86H50.173V33.624C50.173 33.3867 50.2103 33.172 50.285 32.98C50.3623 32.788 50.4717 32.624 50.613 32.488C50.757 32.352 50.9317 32.2467 51.137 32.172C51.3423 32.0973 51.5757 32.06 51.837 32.06C51.9383 32.06 52.0317 32.0667 52.117 32.08C52.2023 32.0907 52.2917 32.1093 52.385 32.136L52.361 32.74C52.3583 32.7827 52.3477 32.8187 52.329 32.848C52.3103 32.8747 52.285 32.8973 52.253 32.916C52.2237 32.932 52.1917 32.944 52.157 32.952C52.1223 32.96 52.0877 32.964 52.053 32.964C51.9437 32.964 51.8463 32.9747 51.761 32.996C51.6757 33.0173 51.6037 33.056 51.545 33.112C51.489 33.1653 51.4463 33.2373 51.417 33.328C51.3877 33.416 51.373 33.528 51.373 33.664V33.86H52.961L53.209 32.84C53.241 32.712 53.3317 32.648 53.481 32.648H54.129V33.86H55.157V34.708H54.129Z" fill="#B4B4B4"/>
<g opacity="0.75">
<rect x="61.5" y="40" width="10" height="1" transform="rotate(-90 61.5 40)" fill="black"/>
</g>
<rect x="63.5" y="30.5" width="28" height="9" rx="1" fill="#399DFF"/>
<rect x="63.5" y="30.5" width="28" height="9" rx="1" stroke="#399DFF"/>
<path d="M73.6922 35.084C73.6922 35.5053 73.6188 35.8947 73.4722 36.252C73.3282 36.6067 73.1242 36.9147 72.8602 37.176C72.5962 37.4347 72.2775 37.6373 71.9042 37.784C71.5335 37.928 71.1215 38 70.6682 38H68.4042V32.172H70.6682C71.1215 32.172 71.5335 32.2453 71.9042 32.392C72.2775 32.5387 72.5962 32.7413 72.8602 33C73.1242 33.2587 73.3282 33.5667 73.4722 33.924C73.6188 34.2787 73.6922 34.6653 73.6922 35.084ZM72.3082 35.084C72.3082 34.796 72.2708 34.536 72.1962 34.304C72.1215 34.072 72.0135 33.876 71.8722 33.716C71.7335 33.5533 71.5628 33.4293 71.3602 33.344C71.1575 33.256 70.9268 33.212 70.6682 33.212H69.7642V36.96H70.6682C70.9268 36.96 71.1575 36.9173 71.3602 36.832C71.5628 36.744 71.7335 36.62 71.8722 36.46C72.0135 36.2973 72.1215 36.1 72.1962 35.868C72.2708 35.636 72.3082 35.3747 72.3082 35.084ZM75.3236 34.492C75.4516 34.268 75.5983 34.092 75.7636 33.964C75.9316 33.836 76.1236 33.772 76.3396 33.772C76.5263 33.772 76.6783 33.816 76.7956 33.904L76.7156 34.816C76.7023 34.8747 76.6796 34.9147 76.6476 34.936C76.6183 34.9573 76.5769 34.968 76.5236 34.968C76.5023 34.968 76.4743 34.9667 76.4396 34.964C76.4049 34.9613 76.3689 34.9587 76.3316 34.956C76.2943 34.9507 76.2556 34.9467 76.2156 34.944C76.1783 34.9387 76.1436 34.936 76.1116 34.936C75.9303 34.936 75.7849 34.984 75.6756 35.08C75.5689 35.176 75.4783 35.3093 75.4036 35.48V38H74.1636V33.852H74.8996C74.9609 33.852 75.0116 33.8573 75.0516 33.868C75.0943 33.8787 75.1289 33.896 75.1556 33.92C75.1849 33.9413 75.2063 33.9707 75.2196 34.008C75.2356 34.0453 75.2489 34.0907 75.2596 34.144L75.3236 34.492ZM79.1992 36.312C78.9512 36.3227 78.7472 36.344 78.5872 36.376C78.4272 36.408 78.3006 36.448 78.2072 36.496C78.1139 36.544 78.0486 36.5987 78.0112 36.66C77.9766 36.7213 77.9592 36.788 77.9592 36.86C77.9592 37.0013 77.9979 37.1013 78.0752 37.16C78.1526 37.216 78.2659 37.244 78.4152 37.244C78.5752 37.244 78.7152 37.216 78.8352 37.16C78.9552 37.104 79.0766 37.0133 79.1992 36.888V36.312ZM76.9672 34.428C77.2179 34.2067 77.4952 34.0427 77.7992 33.936C78.1059 33.8267 78.4339 33.772 78.7832 33.772C79.0339 33.772 79.2592 33.8133 79.4592 33.896C79.6619 33.976 79.8326 34.0893 79.9712 34.236C80.1126 34.38 80.2206 34.552 80.2952 34.752C80.3699 34.952 80.4072 35.1707 80.4072 35.408V38H79.8392C79.7219 38 79.6326 37.984 79.5712 37.952C79.5126 37.92 79.4632 37.8533 79.4232 37.752L79.3352 37.524C79.2312 37.612 79.1312 37.6893 79.0352 37.756C78.9392 37.8227 78.8392 37.88 78.7352 37.928C78.6339 37.9733 78.5246 38.0067 78.4072 38.028C78.2926 38.052 78.1646 38.064 78.0232 38.064C77.8339 38.064 77.6619 38.04 77.5072 37.992C77.3526 37.9413 77.2206 37.868 77.1112 37.772C77.0046 37.676 76.9219 37.5573 76.8632 37.416C76.8046 37.272 76.7752 37.1067 76.7752 36.92C76.7752 36.7707 76.8126 36.62 76.8872 36.468C76.9619 36.3133 77.0912 36.1733 77.2752 36.048C77.4592 35.92 77.7072 35.8133 78.0192 35.728C78.3312 35.6427 78.7246 35.5947 79.1992 35.584V35.408C79.1992 35.1653 79.1486 34.9907 79.0472 34.884C78.9486 34.7747 78.8072 34.72 78.6232 34.72C78.4766 34.72 78.3566 34.736 78.2632 34.768C78.1699 34.8 78.0859 34.836 78.0112 34.876C77.9392 34.916 77.8686 34.952 77.7992 34.984C77.7299 35.016 77.6472 35.032 77.5512 35.032C77.4659 35.032 77.3939 35.0107 77.3352 34.968C77.2766 34.9253 77.2286 34.8747 77.1912 34.816L76.9672 34.428ZM87.137 33.852L85.849 38H84.841C84.7876 38 84.7423 37.984 84.705 37.952C84.6676 37.92 84.6383 37.8667 84.617 37.792L84.025 35.724C83.9956 35.6307 83.969 35.5387 83.945 35.448C83.9236 35.3573 83.9036 35.2653 83.885 35.172C83.8663 35.2653 83.845 35.3587 83.821 35.452C83.7996 35.5453 83.7743 35.6387 83.745 35.732L83.145 37.792C83.105 37.9307 83.017 38 82.881 38H81.921L80.633 33.852H81.625C81.713 33.852 81.7863 33.8733 81.845 33.916C81.9063 33.956 81.9476 34.0067 81.969 34.068L82.385 35.928C82.4196 36.0693 82.4503 36.2067 82.477 36.34C82.5036 36.4707 82.5276 36.6027 82.549 36.736C82.5836 36.6027 82.6196 36.4707 82.657 36.34C82.697 36.2067 82.7396 36.0693 82.785 35.928L83.305 34.064C83.3263 34.0027 83.3663 33.952 83.425 33.912C83.4836 33.8693 83.553 33.848 83.633 33.848H84.185C84.273 33.848 84.3463 33.8693 84.405 33.912C84.4663 33.952 84.5076 34.0027 84.529 34.064L85.025 35.928C85.065 36.0693 85.1036 36.2067 85.141 36.34C85.181 36.4733 85.217 36.608 85.249 36.744C85.2703 36.6107 85.2956 36.4773 85.325 36.344C85.3543 36.2107 85.3876 36.072 85.425 35.928L85.865 34.068C85.8863 34.0067 85.9263 33.956 85.985 33.916C86.0436 33.8733 86.113 33.852 86.193 33.852H87.137Z" fill="white"/>
<path d="M2.5 29H91.5V28H2.5V29ZM93 30.5V39.5H94V30.5H93ZM91.5 41H2.5V42H91.5V41ZM1 39.5V30.5H0V39.5H1ZM2.5 41C1.67157 41 1 40.3284 1 39.5H0C0 40.8807 1.11929 42 2.5 42V41ZM93 39.5C93 40.3284 92.3284 41 91.5 41V42C92.8807 42 94 40.8807 94 39.5H93ZM91.5 29C92.3284 29 93 29.6716 93 30.5H94C94 29.1193 92.8807 28 91.5 28V29ZM2.5 28C1.11929 28 0 29.1193 0 30.5H1C1 29.6716 1.67157 29 2.5 29V28Z" fill="black"/>
</svg>
