<?xml version="1.0" encoding="utf-8"?>
<svg width="25px" height="12px" viewBox="0 0 25 12" version="1.1" xmlns:xlink="http://www.w3.org/1999/xlink" xmlns="http://www.w3.org/2000/svg">
  <desc>Created with Lunacy</desc>
  <defs>
    <rect width="25" height="12" id="artboard_1" />
    <clipPath id="clip_1">
      <use xlink:href="#artboard_1" clip-rule="evenodd" />
    </clipPath>
  </defs>
  <g id="bmp00175" clip-path="url(#clip_1)">
    <path d="M1.999 0L23.001 0Q23.0992 0 23.1969 0.00962573Q23.2947 0.0192515 23.391 0.0384102Q23.4873 0.057569 23.5813 0.0860763Q23.6753 0.114584 23.766 0.152165Q23.8567 0.189746 23.9433 0.236039Q24.0299 0.282333 24.1116 0.336892Q24.1932 0.391452 24.2692 0.453752Q24.3451 0.516052 24.4145 0.585494Q24.4839 0.654935 24.5462 0.730848Q24.6085 0.806761 24.6631 0.888415Q24.7177 0.970069 24.764 1.05668Q24.8103 1.14329 24.8478 1.23402Q24.8854 1.32474 24.9139 1.41872Q24.9424 1.5127 24.9616 1.60901Q24.9807 1.70533 24.9904 1.80306Q25 1.9008 25 1.999L25 8.001Q25 8.09921 24.9904 8.19694Q24.9807 8.29467 24.9616 8.39098Q24.9424 8.4873 24.9139 8.58128Q24.8854 8.67525 24.8478 8.76598Q24.8103 8.85671 24.764 8.94332Q24.7177 9.02993 24.6631 9.11158Q24.6085 9.19324 24.5462 9.26915Q24.4839 9.34507 24.4145 9.41451Q24.3451 9.48395 24.2692 9.54625Q24.1932 9.60855 24.1116 9.66311Q24.0299 9.71767 23.9433 9.76396Q23.8567 9.81025 23.766 9.84783Q23.6753 9.88542 23.5813 9.91392Q23.4873 9.94243 23.391 9.96159Q23.2947 9.98075 23.1969 9.99037Q23.0992 10 23.001 10L1.999 10Q1.9008 10 1.80306 9.99037Q1.70533 9.98075 1.60901 9.96159Q1.5127 9.94243 1.41872 9.91392Q1.32474 9.88542 1.23402 9.84783Q1.14329 9.81025 1.05668 9.76396Q0.970069 9.71767 0.888415 9.66311Q0.806761 9.60855 0.730848 9.54625Q0.654935 9.48395 0.585494 9.41451Q0.516052 9.34507 0.453752 9.26915Q0.391452 9.19324 0.336892 9.11158Q0.282333 9.02993 0.236039 8.94332Q0.189746 8.85671 0.152165 8.76598Q0.114584 8.67525 0.0860763 8.58128Q0.057569 8.4873 0.0384102 8.39098Q0.0192515 8.29467 0.00962573 8.19694Q0 8.09921 0 8.001L0 1.999Q0 1.9008 0.00962573 1.80306Q0.0192515 1.70533 0.0384102 1.60901Q0.057569 1.5127 0.0860763 1.41872Q0.114584 1.32474 0.152165 1.23402Q0.189746 1.14329 0.236039 1.05668Q0.282333 0.970069 0.336892 0.888415Q0.391452 0.806761 0.453752 0.730848Q0.516052 0.654935 0.585494 0.585494Q0.654935 0.516052 0.730848 0.453752Q0.806761 0.391452 0.888415 0.336892Q0.970069 0.282333 1.05668 0.236039Q1.14329 0.189746 1.23402 0.152165Q1.32474 0.114584 1.41872 0.0860763Q1.5127 0.057569 1.60901 0.0384102Q1.70533 0.0192515 1.80306 0.00962573Q1.9008 0 1.999 0L1.999 0Z" transform="translate(0 1.5)" id="Shadow" fill="#FFFFFF" fill-opacity="0.101960786" fill-rule="evenodd" stroke="none" />
    <path d="M1.999 0L22.001 0Q22.0992 0 22.1969 0.00962573Q22.2947 0.0192515 22.391 0.0384102Q22.4873 0.057569 22.5813 0.0860763Q22.6753 0.114584 22.766 0.152165Q22.8567 0.189746 22.9433 0.236039Q23.0299 0.282333 23.1116 0.336892Q23.1932 0.391452 23.2691 0.453752Q23.3451 0.516052 23.4145 0.585494Q23.4839 0.654935 23.5462 0.730848Q23.6085 0.806761 23.6631 0.888415Q23.7177 0.970069 23.764 1.05668Q23.8103 1.14329 23.8478 1.23402Q23.8854 1.32474 23.9139 1.41872Q23.9424 1.5127 23.9616 1.60901Q23.9807 1.70533 23.9904 1.80306Q24 1.9008 24 1.999L24 8.001Q24 8.09921 23.9904 8.19694Q23.9807 8.29467 23.9616 8.39098Q23.9424 8.4873 23.9139 8.58128Q23.8854 8.67525 23.8478 8.76598Q23.8103 8.85671 23.764 8.94332Q23.7177 9.02993 23.6631 9.11158Q23.6085 9.19324 23.5462 9.26915Q23.4839 9.34507 23.4145 9.41451Q23.3451 9.48395 23.2691 9.54625Q23.1932 9.60855 23.1116 9.66311Q23.0299 9.71767 22.9433 9.76396Q22.8567 9.81025 22.766 9.84783Q22.6753 9.88542 22.5813 9.91392Q22.4873 9.94243 22.391 9.96159Q22.2947 9.98075 22.1969 9.99037Q22.0992 10 22.001 10L1.999 10Q1.9008 10 1.80306 9.99037Q1.70533 9.98075 1.60901 9.96159Q1.5127 9.94243 1.41872 9.91392Q1.32474 9.88542 1.23402 9.84783Q1.14329 9.81025 1.05668 9.76396Q0.970069 9.71767 0.888415 9.66311Q0.806761 9.60855 0.730848 9.54625Q0.654935 9.48395 0.585494 9.41451Q0.516052 9.34507 0.453752 9.26915Q0.391452 9.19324 0.336892 9.11158Q0.282333 9.02993 0.236039 8.94332Q0.189746 8.85671 0.152165 8.76598Q0.114584 8.67525 0.0860763 8.58128Q0.057569 8.4873 0.0384102 8.39098Q0.0192515 8.29467 0.00962573 8.19694Q0 8.09921 0 8.001L0 1.999Q0 1.9008 0.00962573 1.80306Q0.0192515 1.70533 0.0384102 1.60901Q0.057569 1.5127 0.0860763 1.41872Q0.114584 1.32474 0.152165 1.23402Q0.189746 1.14329 0.236039 1.05668Q0.282333 0.970069 0.336892 0.888415Q0.391452 0.806761 0.453752 0.730848Q0.516052 0.654935 0.585494 0.585494Q0.654935 0.516052 0.730848 0.453752Q0.806761 0.391452 0.888415 0.336892Q0.970069 0.282333 1.05668 0.236039Q1.14329 0.189746 1.23402 0.152165Q1.32474 0.114584 1.41872 0.0860763Q1.5127 0.057569 1.60901 0.0384102Q1.70533 0.0192515 1.80306 0.00962573Q1.9008 0 1.999 0Z" transform="translate(0.5 0.5)" id="Background" fill="#242424" fill-rule="evenodd" stroke="#0F0F0F" stroke-width="1" />
  </g>
</svg>