<?xml version="1.0" encoding="UTF-8"?>
<svg width="904px" height="542px" viewBox="0 0 904 542" version="1.1" xmlns="http://www.w3.org/2000/svg" xmlns:xlink="http://www.w3.org/1999/xlink">
    <title>bmp00158</title>
    <g id="bmp00158" stroke="none" stroke-width="1" fill="none" fill-rule="evenodd">
        <rect id="Rectangle" fill="#000000" x="0" y="0" width="904" height="542"></rect>
        <rect id="Rectangle" fill="#0E0E0E" x="0" y="413" width="561" height="129"></rect>
        <g id="SurgeClassicLogo_White" transform="translate(104.000000, 207.000000)" fill="#FFFFFF">
            <g id="Group" transform="translate(0.083333, 14.000000)" fill-rule="nonzero">
                <g transform="translate(0.778427, 0.414999)">
                    <path d="M60.5960725,20.8228027 C55.4316629,17.1947646 50.1791401,15.376046 44.8385042,15.376046 C34.1131758,15.376046 28.748064,19.2672579 28.748064,27.0402826 C28.748064,30.334654 31.5970559,34.2634621 37.2950395,38.836106 L47.3742048,47.0414876 C50.4924313,49.6074317 52.6512035,51.4731456 53.8505213,52.6480284 C55.0547344,53.8229112 56.3225847,55.4583481 57.6589675,57.554339 C58.9904551,59.6456304 59.9939659,61.7604195 60.6597097,63.8987062 C61.3303487,66.0369929 61.6632206,68.2128759 61.6632206,70.4357542 C61.6632206,79.0264973 58.3149209,85.737428 51.6134264,90.5638466 C44.916827,95.3949647 36.2229962,97.8058242 25.5417244,97.8058242 C16.774466,97.8058242 8.4967251,95.9918052 0.703606526,92.3590675 L6.31347706,75.8872105 C12.2758002,80.2013801 19.1975776,82.358465 27.0788093,82.358465 C31.8418146,82.358465 35.7922208,81.385662 38.930028,79.4447556 C42.0678352,77.4991497 43.6342911,74.7311258 43.6342911,71.1406839 C43.6342911,67.5972373 40.7852993,63.6872273 35.0922108,59.4106539 L24.606746,51.3979531 C21.4053015,48.9213001 19.2318438,47.1260792 18.0961632,46.0169898 C16.9653778,44.9032009 15.7709551,43.3570551 14.5275807,41.3691534 C13.2793111,39.3812517 12.3443326,37.3416551 11.7226454,35.2456641 C11.1009582,33.1543727 10.787667,30.9972879 10.787667,28.7744096 C10.787667,20.1413707 13.7688286,13.3035527 19.7360469,8.26095567 C25.69837,3.21835864 33.5110693,0.699409883 43.1692495,0.699409883 C46.3755891,0.699409883 50.4679554,1.05187473 55.4561387,1.75680442 C60.4394269,2.4617341 63.9345818,3.26065442 65.9367084,4.15826489 L60.5960725,20.8228027 Z" id="Path"></path>
                    <path d="M147.65676,67.2964673 C145.786803,76.954004 141.116806,84.4544559 133.636978,89.7931234 C126.162046,95.1364905 116.900375,97.8058242 105.861756,97.8058242 C96.6490362,97.8058242 89.1398378,95.6816361 83.3292651,91.4285603 C77.5186924,87.1754845 74.6158536,81.3104695 74.6158536,73.8335153 C74.6158536,71.5683412 74.8606124,69.1527822 75.3501299,66.5915376 L87.6370191,2.30195004 L105.528884,2.30195004 L93.0412923,66.2719695 C92.8210094,67.4233547 92.7084204,68.6405333 92.7084204,69.9235053 C92.7084204,74.1530834 94.069279,77.4239572 96.781206,79.731427 C99.4980281,82.0388969 103.193885,83.190282 107.863882,83.190282 C113.8311,83.190282 118.794808,81.6347372 122.755004,78.5142484 C126.715201,75.3937597 129.231321,71.0137965 130.298469,65.374359 L142.516826,2.30195004 L160.144351,2.30195004 L147.65676,67.2964673 Z" id="Path"></path>
                    <path d="M213.291266,54.6030334 L235.123746,96.2032841 L215.562627,96.2032841 L196.867954,57.3616582 C193.83784,57.3193625 190.122403,57.1454798 185.716745,56.8494093 L178.17328,96.2032841 L160.276521,96.2032841 L178.17328,2.30195004 C191.16997,1.65811426 199.69247,1.33854613 203.740779,1.33854613 C214.289881,1.33854613 222.626364,3.29355114 228.745333,7.20356114 C234.869197,11.1135711 237.928681,16.7671072 237.928681,24.1594699 C237.928681,31.6787199 235.691587,38.2063688 231.217397,43.7424167 C226.743207,49.2737649 220.766198,52.8971035 213.291266,54.6030334 Z M193.328742,16.7248115 L188.320978,43.0045903 C190.944792,43.2583649 193.284686,43.3899518 195.330869,43.3899518 C212.155585,43.3899518 220.565496,38.2580637 220.565496,28.0036865 C220.565496,23.6895168 218.954983,20.6207229 215.729063,18.8067038 C212.498247,16.9879852 207.147821,16.0809757 199.667994,16.0809757 C199.046307,16.0809757 196.931591,16.2971541 193.328742,16.7248115 Z" id="Shape"></path>
                    <path d="M322.5222,87.6783344 C312.462616,94.4315608 300.151251,97.8058242 285.597895,97.8058242 C274.38305,97.8058242 265.268234,94.3563683 258.258343,87.4574564 C251.248453,80.553845 247.743507,71.8033178 247.743507,61.2058748 C247.743507,42.6192287 253.074353,27.8861982 263.731149,17.0114829 C274.39284,6.13676755 288.916824,0.699409883 307.298206,0.699409883 C317.269678,0.699409883 324.680973,2.83299707 329.532091,7.10957052 L324.323625,21.0154835 C317.778776,17.2135627 311.258403,15.3149521 304.762506,15.3149521 C293.00919,15.3149521 283.571293,19.4458401 276.453709,27.7170151 C269.331229,35.9834906 265.767542,46.3365579 265.767542,58.7715176 C265.767542,66.4646503 267.97037,72.4565526 272.380923,76.7519242 C276.786581,81.0472958 282.817436,83.190282 290.47349,83.190282 C296.837217,83.190282 302.403031,81.5031503 307.166036,78.1288869 L310.700353,59.5422407 L297.150508,59.5422407 L299.818379,45.5658348 L330.599239,45.5658348 L322.5222,87.6783344 Z" id="Path"></path>
                    <polygon id="Path" points="415.52563 16.9127927 370.460649 16.9127927 366.387863 38.5165379 398.700914 38.5165379 395.964511 52.4882443 363.646565 52.4882443 358.17376 81.5924414 402.504464 81.5924414 399.635892 96.2032841 337.408428 96.2032841 355.437357 2.30195004 418.399098 2.30195004"></polygon>
                </g>
            </g>
            <g id="Group" transform="translate(438.083333, 0.000000)">
                <g transform="translate(0.044201, 0.186786)" id="Shape">
                    <path d="M255.089454,0.851960003 L231.143024,127.446448 L0.537865113,127.446448 L24.4842958,0.851960003 L255.089454,0.851960003 Z M224.620216,32.5635978 L166.556909,87.4230297 L145.294112,66.9218981 L100.068046,108.394679 L74.1830846,86.5996236 L45.768141,109.041641 L34.6652648,95.0416368 L74.5430072,63.5421521 L99.5649961,84.6104257 L145.601414,42.3919579 L166.683198,62.718746 L212.319702,19.5970521 C216.419873,23.9199342 220.520044,28.2407157 224.620216,32.5635978 Z"></path>
                </g>
            </g>
        </g>
    </g>
</svg>