<svg width="94" height="42" viewBox="0 0 94 42" fill="none" xmlns="http://www.w3.org/2000/svg">
<path d="M0.5 2.5C0.5 1.39543 1.39543 0.5 2.5 0.5H91.5C92.6046 0.5 93.5 1.39543 93.5 2.5V11.5C93.5 12.6046 92.6046 13.5 91.5 13.5H2.5C1.39543 13.5 0.5 12.6046 0.5 11.5V2.5Z" fill="#242424"/>
<rect x="2.5" y="2.5" width="28" height="9" rx="1" fill="#399DFF"/>
<rect x="2.5" y="2.5" width="28" height="9" rx="1" stroke="#399DFF"/>
<path d="M16.8206 7.084C16.8206 7.50533 16.7472 7.89733 16.6006 8.26C16.4566 8.62267 16.2526 8.93867 15.9886 9.208C15.7246 9.47467 15.4059 9.684 15.0326 9.836C14.6619 9.988 14.2499 10.064 13.7966 10.064C13.3432 10.064 12.9299 9.988 12.5566 9.836C12.1832 9.684 11.8632 9.47467 11.5966 9.208C11.3326 8.93867 11.1272 8.62267 10.9806 8.26C10.8366 7.89733 10.7646 7.50533 10.7646 7.084C10.7646 6.66267 10.8366 6.27067 10.9806 5.908C11.1272 5.54533 11.3326 5.23067 11.5966 4.964C11.8632 4.69733 12.1832 4.488 12.5566 4.336C12.9299 4.184 13.3432 4.108 13.7966 4.108C14.2499 4.108 14.6619 4.18533 15.0326 4.34C15.4059 4.492 15.7246 4.70133 15.9886 4.968C16.2526 5.23467 16.4566 5.54933 16.6006 5.912C16.7472 6.27467 16.8206 6.66533 16.8206 7.084ZM15.4366 7.084C15.4366 6.796 15.3992 6.53733 15.3246 6.308C15.2499 6.076 15.1419 5.88 15.0006 5.72C14.8619 5.56 14.6912 5.43733 14.4886 5.352C14.2859 5.26667 14.0552 5.224 13.7966 5.224C13.5352 5.224 13.3019 5.26667 13.0966 5.352C12.8939 5.43733 12.7219 5.56 12.5806 5.72C12.4419 5.88 12.3352 6.076 12.2606 6.308C12.1859 6.53733 12.1486 6.796 12.1486 7.084C12.1486 7.37467 12.1859 7.636 12.2606 7.868C12.3352 8.09733 12.4419 8.292 12.5806 8.452C12.7219 8.612 12.8939 8.73467 13.0966 8.82C13.3019 8.90267 13.5352 8.944 13.7966 8.944C14.0552 8.944 14.2859 8.90267 14.4886 8.82C14.6912 8.73467 14.8619 8.612 15.0006 8.452C15.1419 8.292 15.2499 8.09733 15.3246 7.868C15.3992 7.636 15.4366 7.37467 15.4366 7.084ZM17.6055 10V6.704L17.3335 6.648C17.2402 6.62667 17.1642 6.59333 17.1055 6.548C17.0495 6.50267 17.0215 6.436 17.0215 6.348V5.86H17.6055V5.704C17.6055 5.46667 17.6428 5.252 17.7175 5.06C17.7948 4.86533 17.9042 4.7 18.0455 4.564C18.1895 4.428 18.3642 4.324 18.5695 4.252C18.7748 4.17733 19.0082 4.14 19.2695 4.14C19.3708 4.14 19.4642 4.14667 19.5495 4.16C19.6348 4.17067 19.7242 4.188 19.8175 4.212L19.7935 4.816C19.7882 4.90133 19.7522 4.96133 19.6855 4.996C19.6215 5.028 19.5548 5.044 19.4855 5.044C19.3762 5.044 19.2788 5.05467 19.1935 5.076C19.1082 5.09733 19.0362 5.13467 18.9775 5.188C18.9215 5.24133 18.8788 5.31333 18.8495 5.404C18.8202 5.492 18.8055 5.604 18.8055 5.74V5.86H20.2615V5.548C20.2615 5.31067 20.2988 5.096 20.3735 4.904C20.4508 4.712 20.5602 4.548 20.7015 4.412C20.8455 4.276 21.0202 4.17067 21.2255 4.096C21.4308 4.02133 21.6642 3.984 21.9255 3.984C22.0268 3.984 22.1202 3.99067 22.2055 4.004C22.2908 4.01467 22.3802 4.03333 22.4735 4.06L22.4495 4.664C22.4468 4.70667 22.4362 4.74267 22.4175 4.772C22.3988 4.79867 22.3735 4.82133 22.3415 4.84C22.3122 4.856 22.2802 4.868 22.2455 4.876C22.2108 4.884 22.1762 4.888 22.1415 4.888C22.0322 4.888 21.9348 4.89867 21.8495 4.92C21.7642 4.94133 21.6922 4.98 21.6335 5.036C21.5775 5.08933 21.5348 5.16133 21.5055 5.252C21.4762 5.34 21.4615 5.452 21.4615 5.588V5.86H22.4335V6.708H21.5015V10H20.2615V6.708H18.8455V10H17.6055Z" fill="white"/>
<path opacity="0.5" d="M32.5 2H31.5V12H32.5V2Z" fill="black"/>
<path d="M47.8362 7.084C47.8362 7.50533 47.7629 7.89733 47.6162 8.26C47.4722 8.62267 47.2682 8.93867 47.0042 9.208C46.7402 9.47467 46.4215 9.684 46.0482 9.836C45.6775 9.988 45.2655 10.064 44.8122 10.064C44.3589 10.064 43.9455 9.988 43.5722 9.836C43.1989 9.684 42.8789 9.47467 42.6122 9.208C42.3482 8.93867 42.1429 8.62267 41.9962 8.26C41.8522 7.89733 41.7802 7.50533 41.7802 7.084C41.7802 6.66267 41.8522 6.27067 41.9962 5.908C42.1429 5.54533 42.3482 5.23067 42.6122 4.964C42.8789 4.69733 43.1989 4.488 43.5722 4.336C43.9455 4.184 44.3589 4.108 44.8122 4.108C45.2655 4.108 45.6775 4.18533 46.0482 4.34C46.4215 4.492 46.7402 4.70133 47.0042 4.968C47.2682 5.23467 47.4722 5.54933 47.6162 5.912C47.7629 6.27467 47.8362 6.66533 47.8362 7.084ZM46.4522 7.084C46.4522 6.796 46.4149 6.53733 46.3402 6.308C46.2655 6.076 46.1575 5.88 46.0162 5.72C45.8775 5.56 45.7069 5.43733 45.5042 5.352C45.3015 5.26667 45.0709 5.224 44.8122 5.224C44.5509 5.224 44.3175 5.26667 44.1122 5.352C43.9095 5.43733 43.7375 5.56 43.5962 5.72C43.4575 5.88 43.3509 6.076 43.2762 6.308C43.2015 6.53733 43.1642 6.796 43.1642 7.084C43.1642 7.37467 43.2015 7.636 43.2762 7.868C43.3509 8.09733 43.4575 8.292 43.5962 8.452C43.7375 8.612 43.9095 8.73467 44.1122 8.82C44.3175 8.90267 44.5509 8.944 44.8122 8.944C45.0709 8.944 45.3015 8.90267 45.5042 8.82C45.7069 8.73467 45.8775 8.612 46.0162 8.452C46.1575 8.292 46.2655 8.09733 46.3402 7.868C46.4149 7.636 46.4522 7.37467 46.4522 7.084ZM49.4493 6.3C49.5293 6.22533 49.612 6.156 49.6973 6.092C49.7826 6.028 49.8733 5.97467 49.9693 5.932C50.068 5.88667 50.1733 5.852 50.2853 5.828C50.4 5.80133 50.524 5.788 50.6573 5.788C50.884 5.788 51.084 5.828 51.2573 5.908C51.4333 5.98533 51.5813 6.09467 51.7013 6.236C51.8213 6.37467 51.912 6.54133 51.9733 6.736C52.0346 6.928 52.0653 7.13733 52.0653 7.364V10H50.8253V7.364C50.8253 7.16133 50.7786 7.004 50.6853 6.892C50.592 6.77733 50.4546 6.72 50.2733 6.72C50.1373 6.72 50.0093 6.74933 49.8893 6.808C49.772 6.864 49.6573 6.94133 49.5453 7.04V10H48.3053V5.852H49.0733C49.228 5.852 49.3293 5.92133 49.3773 6.06L49.4493 6.3Z" fill="#B4B4B4"/>
<path opacity="0.5" d="M62.5 2H61.5V12H62.5V2Z" fill="black"/>
<path d="M72.4424 6.98H74.5144V9.44C74.2158 9.65867 73.8971 9.81733 73.5584 9.916C73.2224 10.0147 72.8704 10.064 72.5024 10.064C72.0224 10.064 71.5851 9.98933 71.1904 9.84C70.7984 9.688 70.4624 9.48 70.1824 9.216C69.9024 8.94933 69.6864 8.63467 69.5344 8.272C69.3824 7.90667 69.3064 7.51067 69.3064 7.084C69.3064 6.64933 69.3784 6.25067 69.5224 5.888C69.6664 5.52267 69.8718 5.208 70.1384 4.944C70.4078 4.68 70.7318 4.47467 71.1104 4.328C71.4918 4.18133 71.9171 4.108 72.3864 4.108C72.6291 4.108 72.8571 4.128 73.0704 4.168C73.2838 4.208 73.4798 4.26267 73.6584 4.332C73.8398 4.40133 74.0051 4.484 74.1544 4.58C74.3038 4.676 74.4371 4.78 74.5544 4.892L74.1624 5.488C74.1011 5.58133 74.0211 5.63867 73.9224 5.66C73.8264 5.68133 73.7224 5.65733 73.6104 5.588C73.5038 5.524 73.4024 5.46933 73.3064 5.424C73.2131 5.376 73.1171 5.33733 73.0184 5.308C72.9198 5.27867 72.8158 5.25733 72.7064 5.244C72.5971 5.23067 72.4744 5.224 72.3384 5.224C72.0851 5.224 71.8571 5.26933 71.6544 5.36C71.4518 5.448 71.2784 5.57333 71.1344 5.736C70.9931 5.89867 70.8838 6.09467 70.8064 6.324C70.7291 6.55067 70.6904 6.804 70.6904 7.084C70.6904 7.39333 70.7331 7.668 70.8184 7.908C70.9038 8.148 71.0238 8.35067 71.1784 8.516C71.3358 8.68133 71.5224 8.808 71.7384 8.896C71.9571 8.98133 72.1984 9.024 72.4624 9.024C72.6251 9.024 72.7718 9.008 72.9024 8.976C73.0358 8.944 73.1651 8.90133 73.2904 8.848V7.964H72.7144C72.6291 7.964 72.5624 7.94133 72.5144 7.896C72.4664 7.85067 72.4424 7.79333 72.4424 7.724V6.98ZM77.2997 8.312C77.0517 8.32267 76.8477 8.344 76.6877 8.376C76.5277 8.408 76.401 8.448 76.3077 8.496C76.2144 8.544 76.149 8.59867 76.1117 8.66C76.077 8.72133 76.0597 8.788 76.0597 8.86C76.0597 9.00133 76.0984 9.10133 76.1757 9.16C76.253 9.216 76.3664 9.244 76.5157 9.244C76.6757 9.244 76.8157 9.216 76.9357 9.16C77.0557 9.104 77.177 9.01333 77.2997 8.888V8.312ZM75.0677 6.428C75.3184 6.20667 75.5957 6.04267 75.8997 5.936C76.2064 5.82667 76.5344 5.772 76.8837 5.772C77.1344 5.772 77.3597 5.81333 77.5597 5.896C77.7624 5.976 77.933 6.08933 78.0717 6.236C78.213 6.38 78.321 6.552 78.3957 6.752C78.4704 6.952 78.5077 7.17067 78.5077 7.408V10H77.9397C77.8224 10 77.733 9.984 77.6717 9.952C77.613 9.92 77.5637 9.85333 77.5237 9.752L77.4357 9.524C77.3317 9.612 77.2317 9.68933 77.1357 9.756C77.0397 9.82267 76.9397 9.88 76.8357 9.928C76.7344 9.97333 76.625 10.0067 76.5077 10.028C76.393 10.052 76.265 10.064 76.1237 10.064C75.9344 10.064 75.7624 10.04 75.6077 9.992C75.453 9.94133 75.321 9.868 75.2117 9.772C75.105 9.676 75.0224 9.55733 74.9637 9.416C74.905 9.272 74.8757 9.10667 74.8757 8.92C74.8757 8.77067 74.913 8.62 74.9877 8.468C75.0624 8.31333 75.1917 8.17333 75.3757 8.048C75.5597 7.92 75.8077 7.81333 76.1197 7.728C76.4317 7.64267 76.825 7.59467 77.2997 7.584V7.408C77.2997 7.16533 77.249 6.99067 77.1477 6.884C77.049 6.77467 76.9077 6.72 76.7237 6.72C76.577 6.72 76.457 6.736 76.3637 6.768C76.2704 6.8 76.1864 6.836 76.1117 6.876C76.0397 6.916 75.969 6.952 75.8997 6.984C75.8304 7.016 75.7477 7.032 75.6517 7.032C75.5664 7.032 75.4944 7.01067 75.4357 6.968C75.377 6.92533 75.329 6.87467 75.2917 6.816L75.0677 6.428ZM80.6018 10.064C80.4045 10.064 80.2298 10.036 80.0778 9.98C79.9285 9.92133 79.8018 9.84 79.6978 9.736C79.5965 9.62933 79.5191 9.50133 79.4658 9.352C79.4125 9.20267 79.3858 9.036 79.3858 8.852V6.708H79.0338C78.9698 6.708 78.9151 6.688 78.8698 6.648C78.8245 6.60533 78.8018 6.544 78.8018 6.464V5.98L79.4618 5.852L79.7058 4.84C79.7378 4.712 79.8285 4.648 79.9778 4.648H80.6258V5.86H81.6538V6.708H80.6258V8.768C80.6258 8.864 80.6485 8.944 80.6938 9.008C80.7418 9.06933 80.8098 9.1 80.8978 9.1C80.9431 9.1 80.9805 9.096 81.0098 9.088C81.0418 9.07733 81.0685 9.06667 81.0898 9.056C81.1138 9.04267 81.1351 9.032 81.1538 9.024C81.1751 9.01333 81.1991 9.008 81.2258 9.008C81.2631 9.008 81.2925 9.01733 81.3138 9.036C81.3378 9.052 81.3618 9.07867 81.3858 9.116L81.7618 9.704C81.6018 9.824 81.4218 9.91467 81.2218 9.976C81.0218 10.0347 80.8151 10.064 80.6018 10.064ZM84.6091 7.428C84.6091 7.32933 84.5957 7.23333 84.5691 7.14C84.5451 7.04667 84.5037 6.964 84.4451 6.892C84.3891 6.81733 84.3144 6.75733 84.2211 6.712C84.1277 6.66667 84.0144 6.644 83.8811 6.644C83.6464 6.644 83.4624 6.712 83.3291 6.848C83.1957 6.98133 83.1077 7.17467 83.0651 7.428H84.6091ZM83.0491 8.148C83.0891 8.49467 83.1944 8.74667 83.3651 8.904C83.5357 9.05867 83.7557 9.136 84.0251 9.136C84.1691 9.136 84.2931 9.11867 84.3971 9.084C84.5011 9.04933 84.5931 9.01067 84.6731 8.968C84.7557 8.92533 84.8304 8.88667 84.8971 8.852C84.9664 8.81733 85.0384 8.8 85.1131 8.8C85.2117 8.8 85.2864 8.836 85.3371 8.908L85.6971 9.352C85.5691 9.49867 85.4304 9.61867 85.2811 9.712C85.1344 9.80267 84.9824 9.87467 84.8251 9.928C84.6704 9.97867 84.5144 10.0133 84.3571 10.032C84.2024 10.0533 84.0544 10.064 83.9131 10.064C83.6224 10.064 83.3491 10.0173 83.0931 9.924C82.8397 9.828 82.6171 9.68667 82.4251 9.5C82.2357 9.31333 82.0851 9.08133 81.9731 8.804C81.8637 8.52667 81.8091 8.204 81.8091 7.836C81.8091 7.55867 81.8557 7.296 81.9491 7.048C82.0451 6.8 82.1811 6.58267 82.3571 6.396C82.5357 6.20933 82.7504 6.06133 83.0011 5.952C83.2544 5.84267 83.5397 5.788 83.8571 5.788C84.1317 5.788 84.3824 5.83067 84.6091 5.916C84.8384 6.00133 85.0344 6.12533 85.1971 6.288C85.3624 6.45067 85.4904 6.65067 85.5811 6.888C85.6744 7.12267 85.7211 7.38933 85.7211 7.688C85.7211 7.78133 85.7171 7.85733 85.7091 7.916C85.7011 7.97467 85.6864 8.02133 85.6651 8.056C85.6437 8.09067 85.6144 8.11467 85.5771 8.128C85.5424 8.14133 85.4971 8.148 85.4411 8.148H83.0491Z" fill="#B4B4B4"/>
<path d="M2.5 1H91.5V0H2.5V1ZM93 2.5V11.5H94V2.5H93ZM91.5 13H2.5V14H91.5V13ZM1 11.5V2.5H0V11.5H1ZM2.5 13C1.67157 13 1 12.3284 1 11.5H0C0 12.8807 1.11929 14 2.5 14V13ZM93 11.5C93 12.3284 92.3284 13 91.5 13V14C92.8807 14 94 12.8807 94 11.5H93ZM91.5 1C92.3284 1 93 1.67157 93 2.5H94C94 1.11929 92.8807 0 91.5 0V1ZM2.5 0C1.11929 0 0 1.11929 0 2.5H1C1 1.67157 1.67157 1 2.5 1V0Z" fill="black"/>
<path d="M0.5 16.5C0.5 15.3954 1.39543 14.5 2.5 14.5H91.5C92.6046 14.5 93.5 15.3954 93.5 16.5V25.5C93.5 26.6046 92.6046 27.5 91.5 27.5H2.5C1.39543 27.5 0.5 26.6046 0.5 25.5V16.5Z" fill="#242424"/>
<path d="M16.8206 21.084C16.8206 21.5053 16.7472 21.8973 16.6006 22.26C16.4566 22.6227 16.2526 22.9387 15.9886 23.208C15.7246 23.4747 15.4059 23.684 15.0326 23.836C14.6619 23.988 14.2499 24.064 13.7966 24.064C13.3432 24.064 12.9299 23.988 12.5566 23.836C12.1832 23.684 11.8632 23.4747 11.5966 23.208C11.3326 22.9387 11.1272 22.6227 10.9806 22.26C10.8366 21.8973 10.7646 21.5053 10.7646 21.084C10.7646 20.6627 10.8366 20.2707 10.9806 19.908C11.1272 19.5453 11.3326 19.2307 11.5966 18.964C11.8632 18.6973 12.1832 18.488 12.5566 18.336C12.9299 18.184 13.3432 18.108 13.7966 18.108C14.2499 18.108 14.6619 18.1853 15.0326 18.34C15.4059 18.492 15.7246 18.7013 15.9886 18.968C16.2526 19.2347 16.4566 19.5493 16.6006 19.912C16.7472 20.2747 16.8206 20.6653 16.8206 21.084ZM15.4366 21.084C15.4366 20.796 15.3992 20.5373 15.3246 20.308C15.2499 20.076 15.1419 19.88 15.0006 19.72C14.8619 19.56 14.6912 19.4373 14.4886 19.352C14.2859 19.2667 14.0552 19.224 13.7966 19.224C13.5352 19.224 13.3019 19.2667 13.0966 19.352C12.8939 19.4373 12.7219 19.56 12.5806 19.72C12.4419 19.88 12.3352 20.076 12.2606 20.308C12.1859 20.5373 12.1486 20.796 12.1486 21.084C12.1486 21.3747 12.1859 21.636 12.2606 21.868C12.3352 22.0973 12.4419 22.292 12.5806 22.452C12.7219 22.612 12.8939 22.7347 13.0966 22.82C13.3019 22.9027 13.5352 22.944 13.7966 22.944C14.0552 22.944 14.2859 22.9027 14.4886 22.82C14.6912 22.7347 14.8619 22.612 15.0006 22.452C15.1419 22.292 15.2499 22.0973 15.3246 21.868C15.3992 21.636 15.4366 21.3747 15.4366 21.084ZM17.6055 24V20.704L17.3335 20.648C17.2402 20.6267 17.1642 20.5933 17.1055 20.548C17.0495 20.5027 17.0215 20.436 17.0215 20.348V19.86H17.6055V19.704C17.6055 19.4667 17.6428 19.252 17.7175 19.06C17.7948 18.8653 17.9042 18.7 18.0455 18.564C18.1895 18.428 18.3642 18.324 18.5695 18.252C18.7748 18.1773 19.0082 18.14 19.2695 18.14C19.3708 18.14 19.4642 18.1467 19.5495 18.16C19.6348 18.1707 19.7242 18.188 19.8175 18.212L19.7935 18.816C19.7882 18.9013 19.7522 18.9613 19.6855 18.996C19.6215 19.028 19.5548 19.044 19.4855 19.044C19.3762 19.044 19.2788 19.0547 19.1935 19.076C19.1082 19.0973 19.0362 19.1347 18.9775 19.188C18.9215 19.2413 18.8788 19.3133 18.8495 19.404C18.8202 19.492 18.8055 19.604 18.8055 19.74V19.86H20.2615V19.548C20.2615 19.3107 20.2988 19.096 20.3735 18.904C20.4508 18.712 20.5602 18.548 20.7015 18.412C20.8455 18.276 21.0202 18.1707 21.2255 18.096C21.4308 18.0213 21.6642 17.984 21.9255 17.984C22.0268 17.984 22.1202 17.9907 22.2055 18.004C22.2908 18.0147 22.3802 18.0333 22.4735 18.06L22.4495 18.664C22.4468 18.7067 22.4362 18.7427 22.4175 18.772C22.3988 18.7987 22.3735 18.8213 22.3415 18.84C22.3122 18.856 22.2802 18.868 22.2455 18.876C22.2108 18.884 22.1762 18.888 22.1415 18.888C22.0322 18.888 21.9348 18.8987 21.8495 18.92C21.7642 18.9413 21.6922 18.98 21.6335 19.036C21.5775 19.0893 21.5348 19.1613 21.5055 19.252C21.4762 19.34 21.4615 19.452 21.4615 19.588V19.86H22.4335V20.708H21.5015V24H20.2615V20.708H18.8455V24H17.6055Z" fill="#B4B4B4"/>
<path opacity="0.5" d="M32.5 16H31.5V26H32.5V16Z" fill="black"/>
<rect x="33.5" y="16.5" width="27" height="9" rx="1" fill="#399DFF"/>
<rect x="33.5" y="16.5" width="27" height="9" rx="1" stroke="#399DFF"/>
<path d="M47.8362 21.084C47.8362 21.5053 47.7629 21.8973 47.6162 22.26C47.4722 22.6227 47.2682 22.9387 47.0042 23.208C46.7402 23.4747 46.4215 23.684 46.0482 23.836C45.6775 23.988 45.2655 24.064 44.8122 24.064C44.3589 24.064 43.9455 23.988 43.5722 23.836C43.1989 23.684 42.8789 23.4747 42.6122 23.208C42.3482 22.9387 42.1429 22.6227 41.9962 22.26C41.8522 21.8973 41.7802 21.5053 41.7802 21.084C41.7802 20.6627 41.8522 20.2707 41.9962 19.908C42.1429 19.5453 42.3482 19.2307 42.6122 18.964C42.8789 18.6973 43.1989 18.488 43.5722 18.336C43.9455 18.184 44.3589 18.108 44.8122 18.108C45.2655 18.108 45.6775 18.1853 46.0482 18.34C46.4215 18.492 46.7402 18.7013 47.0042 18.968C47.2682 19.2347 47.4722 19.5493 47.6162 19.912C47.7629 20.2747 47.8362 20.6653 47.8362 21.084ZM46.4522 21.084C46.4522 20.796 46.4149 20.5373 46.3402 20.308C46.2655 20.076 46.1575 19.88 46.0162 19.72C45.8775 19.56 45.7069 19.4373 45.5042 19.352C45.3015 19.2667 45.0709 19.224 44.8122 19.224C44.5509 19.224 44.3175 19.2667 44.1122 19.352C43.9095 19.4373 43.7375 19.56 43.5962 19.72C43.4575 19.88 43.3509 20.076 43.2762 20.308C43.2015 20.5373 43.1642 20.796 43.1642 21.084C43.1642 21.3747 43.2015 21.636 43.2762 21.868C43.3509 22.0973 43.4575 22.292 43.5962 22.452C43.7375 22.612 43.9095 22.7347 44.1122 22.82C44.3175 22.9027 44.5509 22.944 44.8122 22.944C45.0709 22.944 45.3015 22.9027 45.5042 22.82C45.7069 22.7347 45.8775 22.612 46.0162 22.452C46.1575 22.292 46.2655 22.0973 46.3402 21.868C46.4149 21.636 46.4522 21.3747 46.4522 21.084ZM49.4493 20.3C49.5293 20.2253 49.612 20.156 49.6973 20.092C49.7826 20.028 49.8733 19.9747 49.9693 19.932C50.068 19.8867 50.1733 19.852 50.2853 19.828C50.4 19.8013 50.524 19.788 50.6573 19.788C50.884 19.788 51.084 19.828 51.2573 19.908C51.4333 19.9853 51.5813 20.0947 51.7013 20.236C51.8213 20.3747 51.912 20.5413 51.9733 20.736C52.0346 20.928 52.0653 21.1373 52.0653 21.364V24H50.8253V21.364C50.8253 21.1613 50.7786 21.004 50.6853 20.892C50.592 20.7773 50.4546 20.72 50.2733 20.72C50.1373 20.72 50.0093 20.7493 49.8893 20.808C49.772 20.864 49.6573 20.9413 49.5453 21.04V24H48.3053V19.852H49.0733C49.228 19.852 49.3293 19.9213 49.3773 20.06L49.4493 20.3Z" fill="white"/>
<path opacity="0.5" d="M62.5 16H61.5V26H62.5V16Z" fill="black"/>
<path d="M72.4424 20.98H74.5144V23.44C74.2158 23.6587 73.8971 23.8173 73.5584 23.916C73.2224 24.0147 72.8704 24.064 72.5024 24.064C72.0224 24.064 71.5851 23.9893 71.1904 23.84C70.7984 23.688 70.4624 23.48 70.1824 23.216C69.9024 22.9493 69.6864 22.6347 69.5344 22.272C69.3824 21.9067 69.3064 21.5107 69.3064 21.084C69.3064 20.6493 69.3784 20.2507 69.5224 19.888C69.6664 19.5227 69.8718 19.208 70.1384 18.944C70.4078 18.68 70.7318 18.4747 71.1104 18.328C71.4918 18.1813 71.9171 18.108 72.3864 18.108C72.6291 18.108 72.8571 18.128 73.0704 18.168C73.2838 18.208 73.4798 18.2627 73.6584 18.332C73.8398 18.4013 74.0051 18.484 74.1544 18.58C74.3038 18.676 74.4371 18.78 74.5544 18.892L74.1624 19.488C74.1011 19.5813 74.0211 19.6387 73.9224 19.66C73.8264 19.6813 73.7224 19.6573 73.6104 19.588C73.5038 19.524 73.4024 19.4693 73.3064 19.424C73.2131 19.376 73.1171 19.3373 73.0184 19.308C72.9198 19.2787 72.8158 19.2573 72.7064 19.244C72.5971 19.2307 72.4744 19.224 72.3384 19.224C72.0851 19.224 71.8571 19.2693 71.6544 19.36C71.4518 19.448 71.2784 19.5733 71.1344 19.736C70.9931 19.8987 70.8838 20.0947 70.8064 20.324C70.7291 20.5507 70.6904 20.804 70.6904 21.084C70.6904 21.3933 70.7331 21.668 70.8184 21.908C70.9038 22.148 71.0238 22.3507 71.1784 22.516C71.3358 22.6813 71.5224 22.808 71.7384 22.896C71.9571 22.9813 72.1984 23.024 72.4624 23.024C72.6251 23.024 72.7718 23.008 72.9024 22.976C73.0358 22.944 73.1651 22.9013 73.2904 22.848V21.964H72.7144C72.6291 21.964 72.5624 21.9413 72.5144 21.896C72.4664 21.8507 72.4424 21.7933 72.4424 21.724V20.98ZM77.2997 22.312C77.0517 22.3227 76.8477 22.344 76.6877 22.376C76.5277 22.408 76.401 22.448 76.3077 22.496C76.2144 22.544 76.149 22.5987 76.1117 22.66C76.077 22.7213 76.0597 22.788 76.0597 22.86C76.0597 23.0013 76.0984 23.1013 76.1757 23.16C76.253 23.216 76.3664 23.244 76.5157 23.244C76.6757 23.244 76.8157 23.216 76.9357 23.16C77.0557 23.104 77.177 23.0133 77.2997 22.888V22.312ZM75.0677 20.428C75.3184 20.2067 75.5957 20.0427 75.8997 19.936C76.2064 19.8267 76.5344 19.772 76.8837 19.772C77.1344 19.772 77.3597 19.8133 77.5597 19.896C77.7624 19.976 77.933 20.0893 78.0717 20.236C78.213 20.38 78.321 20.552 78.3957 20.752C78.4704 20.952 78.5077 21.1707 78.5077 21.408V24H77.9397C77.8224 24 77.733 23.984 77.6717 23.952C77.613 23.92 77.5637 23.8533 77.5237 23.752L77.4357 23.524C77.3317 23.612 77.2317 23.6893 77.1357 23.756C77.0397 23.8227 76.9397 23.88 76.8357 23.928C76.7344 23.9733 76.625 24.0067 76.5077 24.028C76.393 24.052 76.265 24.064 76.1237 24.064C75.9344 24.064 75.7624 24.04 75.6077 23.992C75.453 23.9413 75.321 23.868 75.2117 23.772C75.105 23.676 75.0224 23.5573 74.9637 23.416C74.905 23.272 74.8757 23.1067 74.8757 22.92C74.8757 22.7707 74.913 22.62 74.9877 22.468C75.0624 22.3133 75.1917 22.1733 75.3757 22.048C75.5597 21.92 75.8077 21.8133 76.1197 21.728C76.4317 21.6427 76.825 21.5947 77.2997 21.584V21.408C77.2997 21.1653 77.249 20.9907 77.1477 20.884C77.049 20.7747 76.9077 20.72 76.7237 20.72C76.577 20.72 76.457 20.736 76.3637 20.768C76.2704 20.8 76.1864 20.836 76.1117 20.876C76.0397 20.916 75.969 20.952 75.8997 20.984C75.8304 21.016 75.7477 21.032 75.6517 21.032C75.5664 21.032 75.4944 21.0107 75.4357 20.968C75.377 20.9253 75.329 20.8747 75.2917 20.816L75.0677 20.428ZM80.6018 24.064C80.4045 24.064 80.2298 24.036 80.0778 23.98C79.9285 23.9213 79.8018 23.84 79.6978 23.736C79.5965 23.6293 79.5191 23.5013 79.4658 23.352C79.4125 23.2027 79.3858 23.036 79.3858 22.852V20.708H79.0338C78.9698 20.708 78.9151 20.688 78.8698 20.648C78.8245 20.6053 78.8018 20.544 78.8018 20.464V19.98L79.4618 19.852L79.7058 18.84C79.7378 18.712 79.8285 18.648 79.9778 18.648H80.6258V19.86H81.6538V20.708H80.6258V22.768C80.6258 22.864 80.6485 22.944 80.6938 23.008C80.7418 23.0693 80.8098 23.1 80.8978 23.1C80.9431 23.1 80.9805 23.096 81.0098 23.088C81.0418 23.0773 81.0685 23.0667 81.0898 23.056C81.1138 23.0427 81.1351 23.032 81.1538 23.024C81.1751 23.0133 81.1991 23.008 81.2258 23.008C81.2631 23.008 81.2925 23.0173 81.3138 23.036C81.3378 23.052 81.3618 23.0787 81.3858 23.116L81.7618 23.704C81.6018 23.824 81.4218 23.9147 81.2218 23.976C81.0218 24.0347 80.8151 24.064 80.6018 24.064ZM84.6091 21.428C84.6091 21.3293 84.5957 21.2333 84.5691 21.14C84.5451 21.0467 84.5037 20.964 84.4451 20.892C84.3891 20.8173 84.3144 20.7573 84.2211 20.712C84.1277 20.6667 84.0144 20.644 83.8811 20.644C83.6464 20.644 83.4624 20.712 83.3291 20.848C83.1957 20.9813 83.1077 21.1747 83.0651 21.428H84.6091ZM83.0491 22.148C83.0891 22.4947 83.1944 22.7467 83.3651 22.904C83.5357 23.0587 83.7557 23.136 84.0251 23.136C84.1691 23.136 84.2931 23.1187 84.3971 23.084C84.5011 23.0493 84.5931 23.0107 84.6731 22.968C84.7557 22.9253 84.8304 22.8867 84.8971 22.852C84.9664 22.8173 85.0384 22.8 85.1131 22.8C85.2117 22.8 85.2864 22.836 85.3371 22.908L85.6971 23.352C85.5691 23.4987 85.4304 23.6187 85.2811 23.712C85.1344 23.8027 84.9824 23.8747 84.8251 23.928C84.6704 23.9787 84.5144 24.0133 84.3571 24.032C84.2024 24.0533 84.0544 24.064 83.9131 24.064C83.6224 24.064 83.3491 24.0173 83.0931 23.924C82.8397 23.828 82.6171 23.6867 82.4251 23.5C82.2357 23.3133 82.0851 23.0813 81.9731 22.804C81.8637 22.5267 81.8091 22.204 81.8091 21.836C81.8091 21.5587 81.8557 21.296 81.9491 21.048C82.0451 20.8 82.1811 20.5827 82.3571 20.396C82.5357 20.2093 82.7504 20.0613 83.0011 19.952C83.2544 19.8427 83.5397 19.788 83.8571 19.788C84.1317 19.788 84.3824 19.8307 84.6091 19.916C84.8384 20.0013 85.0344 20.1253 85.1971 20.288C85.3624 20.4507 85.4904 20.6507 85.5811 20.888C85.6744 21.1227 85.7211 21.3893 85.7211 21.688C85.7211 21.7813 85.7171 21.8573 85.7091 21.916C85.7011 21.9747 85.6864 22.0213 85.6651 22.056C85.6437 22.0907 85.6144 22.1147 85.5771 22.128C85.5424 22.1413 85.4971 22.148 85.4411 22.148H83.0491Z" fill="#B4B4B4"/>
<path d="M2.5 15H91.5V14H2.5V15ZM93 16.5V25.5H94V16.5H93ZM91.5 27H2.5V28H91.5V27ZM1 25.5V16.5H0V25.5H1ZM2.5 27C1.67157 27 1 26.3284 1 25.5H0C0 26.8807 1.11929 28 2.5 28V27ZM93 25.5C93 26.3284 92.3284 27 91.5 27V28C92.8807 28 94 26.8807 94 25.5H93ZM91.5 15C92.3284 15 93 15.6716 93 16.5H94C94 15.1193 92.8807 14 91.5 14V15ZM2.5 14C1.11929 14 0 15.1193 0 16.5H1C1 15.6716 1.67157 15 2.5 15V14Z" fill="black"/>
<path d="M0.5 30.5C0.5 29.3954 1.39543 28.5 2.5 28.5H91.5C92.6046 28.5 93.5 29.3954 93.5 30.5V39.5C93.5 40.6046 92.6046 41.5 91.5 41.5H2.5C1.39543 41.5 0.5 40.6046 0.5 39.5V30.5Z" fill="#242424"/>
<path d="M16.8206 35.084C16.8206 35.5053 16.7472 35.8973 16.6006 36.26C16.4566 36.6227 16.2526 36.9387 15.9886 37.208C15.7246 37.4747 15.4059 37.684 15.0326 37.836C14.6619 37.988 14.2499 38.064 13.7966 38.064C13.3432 38.064 12.9299 37.988 12.5566 37.836C12.1832 37.684 11.8632 37.4747 11.5966 37.208C11.3326 36.9387 11.1272 36.6227 10.9806 36.26C10.8366 35.8973 10.7646 35.5053 10.7646 35.084C10.7646 34.6627 10.8366 34.2707 10.9806 33.908C11.1272 33.5453 11.3326 33.2307 11.5966 32.964C11.8632 32.6973 12.1832 32.488 12.5566 32.336C12.9299 32.184 13.3432 32.108 13.7966 32.108C14.2499 32.108 14.6619 32.1853 15.0326 32.34C15.4059 32.492 15.7246 32.7013 15.9886 32.968C16.2526 33.2347 16.4566 33.5493 16.6006 33.912C16.7472 34.2747 16.8206 34.6653 16.8206 35.084ZM15.4366 35.084C15.4366 34.796 15.3992 34.5373 15.3246 34.308C15.2499 34.076 15.1419 33.88 15.0006 33.72C14.8619 33.56 14.6912 33.4373 14.4886 33.352C14.2859 33.2667 14.0552 33.224 13.7966 33.224C13.5352 33.224 13.3019 33.2667 13.0966 33.352C12.8939 33.4373 12.7219 33.56 12.5806 33.72C12.4419 33.88 12.3352 34.076 12.2606 34.308C12.1859 34.5373 12.1486 34.796 12.1486 35.084C12.1486 35.3747 12.1859 35.636 12.2606 35.868C12.3352 36.0973 12.4419 36.292 12.5806 36.452C12.7219 36.612 12.8939 36.7347 13.0966 36.82C13.3019 36.9027 13.5352 36.944 13.7966 36.944C14.0552 36.944 14.2859 36.9027 14.4886 36.82C14.6912 36.7347 14.8619 36.612 15.0006 36.452C15.1419 36.292 15.2499 36.0973 15.3246 35.868C15.3992 35.636 15.4366 35.3747 15.4366 35.084ZM17.6055 38V34.704L17.3335 34.648C17.2402 34.6267 17.1642 34.5933 17.1055 34.548C17.0495 34.5027 17.0215 34.436 17.0215 34.348V33.86H17.6055V33.704C17.6055 33.4667 17.6428 33.252 17.7175 33.06C17.7948 32.8653 17.9042 32.7 18.0455 32.564C18.1895 32.428 18.3642 32.324 18.5695 32.252C18.7748 32.1773 19.0082 32.14 19.2695 32.14C19.3708 32.14 19.4642 32.1467 19.5495 32.16C19.6348 32.1707 19.7242 32.188 19.8175 32.212L19.7935 32.816C19.7882 32.9013 19.7522 32.9613 19.6855 32.996C19.6215 33.028 19.5548 33.044 19.4855 33.044C19.3762 33.044 19.2788 33.0547 19.1935 33.076C19.1082 33.0973 19.0362 33.1347 18.9775 33.188C18.9215 33.2413 18.8788 33.3133 18.8495 33.404C18.8202 33.492 18.8055 33.604 18.8055 33.74V33.86H20.2615V33.548C20.2615 33.3107 20.2988 33.096 20.3735 32.904C20.4508 32.712 20.5602 32.548 20.7015 32.412C20.8455 32.276 21.0202 32.1707 21.2255 32.096C21.4308 32.0213 21.6642 31.984 21.9255 31.984C22.0268 31.984 22.1202 31.9907 22.2055 32.004C22.2908 32.0147 22.3802 32.0333 22.4735 32.06L22.4495 32.664C22.4468 32.7067 22.4362 32.7427 22.4175 32.772C22.3988 32.7987 22.3735 32.8213 22.3415 32.84C22.3122 32.856 22.2802 32.868 22.2455 32.876C22.2108 32.884 22.1762 32.888 22.1415 32.888C22.0322 32.888 21.9348 32.8987 21.8495 32.92C21.7642 32.9413 21.6922 32.98 21.6335 33.036C21.5775 33.0893 21.5348 33.1613 21.5055 33.252C21.4762 33.34 21.4615 33.452 21.4615 33.588V33.86H22.4335V34.708H21.5015V38H20.2615V34.708H18.8455V38H17.6055Z" fill="#B4B4B4"/>
<path opacity="0.5" d="M32.5 30H31.5V40H32.5V30Z" fill="black"/>
<path d="M47.8362 35.084C47.8362 35.5053 47.7629 35.8973 47.6162 36.26C47.4722 36.6227 47.2682 36.9387 47.0042 37.208C46.7402 37.4747 46.4215 37.684 46.0482 37.836C45.6775 37.988 45.2655 38.064 44.8122 38.064C44.3589 38.064 43.9455 37.988 43.5722 37.836C43.1989 37.684 42.8789 37.4747 42.6122 37.208C42.3482 36.9387 42.1429 36.6227 41.9962 36.26C41.8522 35.8973 41.7802 35.5053 41.7802 35.084C41.7802 34.6627 41.8522 34.2707 41.9962 33.908C42.1429 33.5453 42.3482 33.2307 42.6122 32.964C42.8789 32.6973 43.1989 32.488 43.5722 32.336C43.9455 32.184 44.3589 32.108 44.8122 32.108C45.2655 32.108 45.6775 32.1853 46.0482 32.34C46.4215 32.492 46.7402 32.7013 47.0042 32.968C47.2682 33.2347 47.4722 33.5493 47.6162 33.912C47.7629 34.2747 47.8362 34.6653 47.8362 35.084ZM46.4522 35.084C46.4522 34.796 46.4149 34.5373 46.3402 34.308C46.2655 34.076 46.1575 33.88 46.0162 33.72C45.8775 33.56 45.7069 33.4373 45.5042 33.352C45.3015 33.2667 45.0709 33.224 44.8122 33.224C44.5509 33.224 44.3175 33.2667 44.1122 33.352C43.9095 33.4373 43.7375 33.56 43.5962 33.72C43.4575 33.88 43.3509 34.076 43.2762 34.308C43.2015 34.5373 43.1642 34.796 43.1642 35.084C43.1642 35.3747 43.2015 35.636 43.2762 35.868C43.3509 36.0973 43.4575 36.292 43.5962 36.452C43.7375 36.612 43.9095 36.7347 44.1122 36.82C44.3175 36.9027 44.5509 36.944 44.8122 36.944C45.0709 36.944 45.3015 36.9027 45.5042 36.82C45.7069 36.7347 45.8775 36.612 46.0162 36.452C46.1575 36.292 46.2655 36.0973 46.3402 35.868C46.4149 35.636 46.4522 35.3747 46.4522 35.084ZM49.4493 34.3C49.5293 34.2253 49.612 34.156 49.6973 34.092C49.7826 34.028 49.8733 33.9747 49.9693 33.932C50.068 33.8867 50.1733 33.852 50.2853 33.828C50.4 33.8013 50.524 33.788 50.6573 33.788C50.884 33.788 51.084 33.828 51.2573 33.908C51.4333 33.9853 51.5813 34.0947 51.7013 34.236C51.8213 34.3747 51.912 34.5413 51.9733 34.736C52.0346 34.928 52.0653 35.1373 52.0653 35.364V38H50.8253V35.364C50.8253 35.1613 50.7786 35.004 50.6853 34.892C50.592 34.7773 50.4546 34.72 50.2733 34.72C50.1373 34.72 50.0093 34.7493 49.8893 34.808C49.772 34.864 49.6573 34.9413 49.5453 35.04V38H48.3053V33.852H49.0733C49.228 33.852 49.3293 33.9213 49.3773 34.06L49.4493 34.3Z" fill="#B4B4B4"/>
<path opacity="0.5" d="M62.5 30H61.5V40H62.5V30Z" fill="black"/>
<rect x="63.5" y="30.5" width="28" height="9" rx="1" fill="#399DFF"/>
<rect x="63.5" y="30.5" width="28" height="9" rx="1" stroke="#399DFF"/>
<path d="M72.4424 34.98H74.5144V37.44C74.2158 37.6587 73.8971 37.8173 73.5584 37.916C73.2224 38.0147 72.8704 38.064 72.5024 38.064C72.0224 38.064 71.5851 37.9893 71.1904 37.84C70.7984 37.688 70.4624 37.48 70.1824 37.216C69.9024 36.9493 69.6864 36.6347 69.5344 36.272C69.3824 35.9067 69.3064 35.5107 69.3064 35.084C69.3064 34.6493 69.3784 34.2507 69.5224 33.888C69.6664 33.5227 69.8718 33.208 70.1384 32.944C70.4078 32.68 70.7318 32.4747 71.1104 32.328C71.4918 32.1813 71.9171 32.108 72.3864 32.108C72.6291 32.108 72.8571 32.128 73.0704 32.168C73.2838 32.208 73.4798 32.2627 73.6584 32.332C73.8398 32.4013 74.0051 32.484 74.1544 32.58C74.3038 32.676 74.4371 32.78 74.5544 32.892L74.1624 33.488C74.1011 33.5813 74.0211 33.6387 73.9224 33.66C73.8264 33.6813 73.7224 33.6573 73.6104 33.588C73.5038 33.524 73.4024 33.4693 73.3064 33.424C73.2131 33.376 73.1171 33.3373 73.0184 33.308C72.9198 33.2787 72.8158 33.2573 72.7064 33.244C72.5971 33.2307 72.4744 33.224 72.3384 33.224C72.0851 33.224 71.8571 33.2693 71.6544 33.36C71.4518 33.448 71.2784 33.5733 71.1344 33.736C70.9931 33.8987 70.8838 34.0947 70.8064 34.324C70.7291 34.5507 70.6904 34.804 70.6904 35.084C70.6904 35.3933 70.7331 35.668 70.8184 35.908C70.9038 36.148 71.0238 36.3507 71.1784 36.516C71.3358 36.6813 71.5224 36.808 71.7384 36.896C71.9571 36.9813 72.1984 37.024 72.4624 37.024C72.6251 37.024 72.7718 37.008 72.9024 36.976C73.0358 36.944 73.1651 36.9013 73.2904 36.848V35.964H72.7144C72.6291 35.964 72.5624 35.9413 72.5144 35.896C72.4664 35.8507 72.4424 35.7933 72.4424 35.724V34.98ZM77.2997 36.312C77.0517 36.3227 76.8477 36.344 76.6877 36.376C76.5277 36.408 76.401 36.448 76.3077 36.496C76.2144 36.544 76.149 36.5987 76.1117 36.66C76.077 36.7213 76.0597 36.788 76.0597 36.86C76.0597 37.0013 76.0984 37.1013 76.1757 37.16C76.253 37.216 76.3664 37.244 76.5157 37.244C76.6757 37.244 76.8157 37.216 76.9357 37.16C77.0557 37.104 77.177 37.0133 77.2997 36.888V36.312ZM75.0677 34.428C75.3184 34.2067 75.5957 34.0427 75.8997 33.936C76.2064 33.8267 76.5344 33.772 76.8837 33.772C77.1344 33.772 77.3597 33.8133 77.5597 33.896C77.7624 33.976 77.933 34.0893 78.0717 34.236C78.213 34.38 78.321 34.552 78.3957 34.752C78.4704 34.952 78.5077 35.1707 78.5077 35.408V38H77.9397C77.8224 38 77.733 37.984 77.6717 37.952C77.613 37.92 77.5637 37.8533 77.5237 37.752L77.4357 37.524C77.3317 37.612 77.2317 37.6893 77.1357 37.756C77.0397 37.8227 76.9397 37.88 76.8357 37.928C76.7344 37.9733 76.625 38.0067 76.5077 38.028C76.393 38.052 76.265 38.064 76.1237 38.064C75.9344 38.064 75.7624 38.04 75.6077 37.992C75.453 37.9413 75.321 37.868 75.2117 37.772C75.105 37.676 75.0224 37.5573 74.9637 37.416C74.905 37.272 74.8757 37.1067 74.8757 36.92C74.8757 36.7707 74.913 36.62 74.9877 36.468C75.0624 36.3133 75.1917 36.1733 75.3757 36.048C75.5597 35.92 75.8077 35.8133 76.1197 35.728C76.4317 35.6427 76.825 35.5947 77.2997 35.584V35.408C77.2997 35.1653 77.249 34.9907 77.1477 34.884C77.049 34.7747 76.9077 34.72 76.7237 34.72C76.577 34.72 76.457 34.736 76.3637 34.768C76.2704 34.8 76.1864 34.836 76.1117 34.876C76.0397 34.916 75.969 34.952 75.8997 34.984C75.8304 35.016 75.7477 35.032 75.6517 35.032C75.5664 35.032 75.4944 35.0107 75.4357 34.968C75.377 34.9253 75.329 34.8747 75.2917 34.816L75.0677 34.428ZM80.6018 38.064C80.4045 38.064 80.2298 38.036 80.0778 37.98C79.9285 37.9213 79.8018 37.84 79.6978 37.736C79.5965 37.6293 79.5191 37.5013 79.4658 37.352C79.4125 37.2027 79.3858 37.036 79.3858 36.852V34.708H79.0338C78.9698 34.708 78.9151 34.688 78.8698 34.648C78.8245 34.6053 78.8018 34.544 78.8018 34.464V33.98L79.4618 33.852L79.7058 32.84C79.7378 32.712 79.8285 32.648 79.9778 32.648H80.6258V33.86H81.6538V34.708H80.6258V36.768C80.6258 36.864 80.6485 36.944 80.6938 37.008C80.7418 37.0693 80.8098 37.1 80.8978 37.1C80.9431 37.1 80.9805 37.096 81.0098 37.088C81.0418 37.0773 81.0685 37.0667 81.0898 37.056C81.1138 37.0427 81.1351 37.032 81.1538 37.024C81.1751 37.0133 81.1991 37.008 81.2258 37.008C81.2631 37.008 81.2925 37.0173 81.3138 37.036C81.3378 37.052 81.3618 37.0787 81.3858 37.116L81.7618 37.704C81.6018 37.824 81.4218 37.9147 81.2218 37.976C81.0218 38.0347 80.8151 38.064 80.6018 38.064ZM84.6091 35.428C84.6091 35.3293 84.5957 35.2333 84.5691 35.14C84.5451 35.0467 84.5037 34.964 84.4451 34.892C84.3891 34.8173 84.3144 34.7573 84.2211 34.712C84.1277 34.6667 84.0144 34.644 83.8811 34.644C83.6464 34.644 83.4624 34.712 83.3291 34.848C83.1957 34.9813 83.1077 35.1747 83.0651 35.428H84.6091ZM83.0491 36.148C83.0891 36.4947 83.1944 36.7467 83.3651 36.904C83.5357 37.0587 83.7557 37.136 84.0251 37.136C84.1691 37.136 84.2931 37.1187 84.3971 37.084C84.5011 37.0493 84.5931 37.0107 84.6731 36.968C84.7557 36.9253 84.8304 36.8867 84.8971 36.852C84.9664 36.8173 85.0384 36.8 85.1131 36.8C85.2117 36.8 85.2864 36.836 85.3371 36.908L85.6971 37.352C85.5691 37.4987 85.4304 37.6187 85.2811 37.712C85.1344 37.8027 84.9824 37.8747 84.8251 37.928C84.6704 37.9787 84.5144 38.0133 84.3571 38.032C84.2024 38.0533 84.0544 38.064 83.9131 38.064C83.6224 38.064 83.3491 38.0173 83.0931 37.924C82.8397 37.828 82.6171 37.6867 82.4251 37.5C82.2357 37.3133 82.0851 37.0813 81.9731 36.804C81.8637 36.5267 81.8091 36.204 81.8091 35.836C81.8091 35.5587 81.8557 35.296 81.9491 35.048C82.0451 34.8 82.1811 34.5827 82.3571 34.396C82.5357 34.2093 82.7504 34.0613 83.0011 33.952C83.2544 33.8427 83.5397 33.788 83.8571 33.788C84.1317 33.788 84.3824 33.8307 84.6091 33.916C84.8384 34.0013 85.0344 34.1253 85.1971 34.288C85.3624 34.4507 85.4904 34.6507 85.5811 34.888C85.6744 35.1227 85.7211 35.3893 85.7211 35.688C85.7211 35.7813 85.7171 35.8573 85.7091 35.916C85.7011 35.9747 85.6864 36.0213 85.6651 36.056C85.6437 36.0907 85.6144 36.1147 85.5771 36.128C85.5424 36.1413 85.4971 36.148 85.4411 36.148H83.0491Z" fill="white"/>
<path d="M2.5 29H91.5V28H2.5V29ZM93 30.5V39.5H94V30.5H93ZM91.5 41H2.5V42H91.5V41ZM1 39.5V30.5H0V39.5H1ZM2.5 41C1.67157 41 1 40.3284 1 39.5H0C0 40.8807 1.11929 42 2.5 42V41ZM93 39.5C93 40.3284 92.3284 41 91.5 41V42C92.8807 42 94 40.8807 94 39.5H93ZM91.5 29C92.3284 29 93 29.6716 93 30.5H94C94 29.1193 92.8807 28 91.5 28V29ZM2.5 28C1.11929 28 0 29.1193 0 30.5H1C1 29.6716 1.67157 29 2.5 29V28Z" fill="black"/>
</svg>
