<svg width="30" height="13" viewBox="0 0 30 13" fill="none" xmlns="http://www.w3.org/2000/svg">
<path d="M0.652176 2.54166C0.652176 1.43709 1.54761 0.541656 2.65218 0.541656H27.3478C28.4524 0.541656 29.3478 1.43709 29.3478 2.54166V10.4583C29.3478 11.5629 28.4524 12.4583 27.3478 12.4583H2.65217C1.5476 12.4583 0.652176 11.5629 0.652176 10.4583V2.54166Z" fill="#242424"/>
<path d="M2.65218 1.04166H27.3478V0.0416565H2.65218V1.04166ZM28.8478 2.54166V10.4583H29.8478V2.54166H28.8478ZM27.3478 11.9583H2.65217V12.9583H27.3478V11.9583ZM1.15218 10.4583V2.54166H0.152176V10.4583H1.15218ZM2.65217 11.9583C1.82375 11.9583 1.15218 11.2867 1.15218 10.4583H0.152176C0.152176 11.839 1.27146 12.9583 2.65217 12.9583V11.9583ZM28.8478 10.4583C28.8478 11.2867 28.1763 11.9583 27.3478 11.9583V12.9583C28.7285 12.9583 29.8478 11.839 29.8478 10.4583H28.8478ZM27.3478 1.04166C28.1763 1.04166 28.8478 1.71323 28.8478 2.54166H29.8478C29.8478 1.16095 28.7285 0.0416565 27.3478 0.0416565V1.04166ZM2.65218 0.0416565C1.27146 0.0416565 0.152176 1.16095 0.152176 2.54166H1.15218C1.15218 1.71323 1.82375 1.04166 2.65218 1.04166V0.0416565Z" fill="black"/>
</svg>
