<?xml version="1.0" encoding="utf-8"?>
<svg width="12px" height="36px" viewBox="0 0 12 36" version="1.1" xmlns:xlink="http://www.w3.org/1999/xlink" xmlns="http://www.w3.org/2000/svg">
  <desc>Created with Lunacy</desc>
  <defs>
    <linearGradient x1="0.5" y1="0" x2="0.5" y2="1" id="gradient_1">
      <stop offset="0" stop-color="#FFBF00" />
      <stop offset="1" stop-color="#FF9000" />
    </linearGradient>
    <path d="M0 0L12 0L12 36L0 36L0 0Z" id="path_1" />
    <rect width="12" height="36" id="artboard_1" />
    <clipPath id="clip_1">
      <use xlink:href="#artboard_1" clip-rule="evenodd" />
    </clipPath>
    <clipPath id="mask_1">
      <use xlink:href="#path_1" />
    </clipPath>
  </defs>
  <g id="Artboard" clip-path="url(#clip_1)">
    <use xlink:href="#artboard_1" stroke="none" fill="#FFFFFF" fill-opacity="0" />
    <g id="bmp00121">
      <path d="M0 0L12 0L12 36L0 36L0 0Z" id="Background" fill="none" stroke="none" />
      <g clip-path="url(#mask_1)">
        <g id="bmp00121" transform="translate(0 1)">
          <g id="R-Thumb">
            <g id="Rectangle">
              <path d="M0 4L0 2C0 1.44772 0.195262 0.976311 0.585786 0.585786C0.976311 0.195262 1.44772 0 2 0L8 0C8.55228 0 9.02369 0.195262 9.41421 0.585786C9.80474 0.976311 10 1.44772 10 2L10 11C10 11.5523 9.80474 12.0237 9.41421 12.4142C9.02369 12.8047 8.55228 13 8 13L2 13C1.44772 13 0.976311 12.8047 0.585786 12.4142C0.195262 12.0237 0 11.5523 0 11L0 4Z" id="Rectangle" fill="#000000" stroke="none" />
              <path d="M0 4L0 2C0 1.44772 0.195262 0.976311 0.585786 0.585786C0.976311 0.195262 1.44772 0 2 0L7 0C7.55228 0 8.02369 0.195262 8.41421 0.585786C8.80474 0.976311 9 1.44772 9 2L9 10C9 10.5523 8.80474 11.0237 8.41421 11.4142C8.02369 11.8047 7.55228 12 7 12L2 12C1.44772 12 0.976311 11.8047 0.585786 11.4142C0.195262 11.0237 0 10.5523 0 10L0 4Z" transform="translate(0.5 0.5)" id="Rectangle" fill="#242424" stroke="#0F0F0F" stroke-width="1" />
            </g>
          </g>
          <g id="R-Thumb----Orange" transform="translate(0 18)">
            <path d="M0 4L0 2C0 1.44772 0.195262 0.976311 0.585786 0.585786C0.976311 0.195262 1.44772 0 2 0L8 0C8.55228 0 9.02369 0.195262 9.41421 0.585786C9.80474 0.976311 10 1.44772 10 2L10 11C10 11.5523 9.80474 12.0237 9.41421 12.4142C9.02369 12.8047 8.55228 13 8 13L2 13C1.44772 13 0.976311 12.8047 0.585786 12.4142C0.195262 12.0237 0 11.5523 0 11L0 4Z" id="Rectangle#1" fill="url(#gradient_1)" stroke="none" />
          </g>
          <path d="M3.23428 6.17842L2.53452 6.17842L2.53452 3.36229L0 3.36229L0 2.72226L2.53452 2.72226L2.53452 0L3.23428 0L3.23428 2.72226L5.82 2.72226L5.82 3.36229L3.23428 3.36229L3.23428 6.17842L3.23428 6.17842Z" transform="translate(2.099976 21.3808)" id="Shape" fill="#000000" fill-rule="evenodd" stroke="none" />
          <path d="M3.23428 6.17842L2.53452 6.17842L2.53452 3.36229L0 3.36229L0 2.72226L2.53452 2.72226L2.53452 0L3.23428 0L3.23428 2.72226L5.82 2.72226L5.82 3.36229L3.23428 3.36229L3.23428 6.17842L3.23428 6.17842Z" transform="translate(2.099976 3.380798)" id="Shape-Copy" fill="#B4B4B4" stroke="none" />
        </g>
      </g>
    </g>
  </g>
</svg>