<?xml version="1.0" encoding="UTF-8"?>
<svg width="96px" height="126px" viewBox="0 0 96 126" version="1.1" xmlns="http://www.w3.org/2000/svg" xmlns:xlink="http://www.w3.org/1999/xlink">
    <title>bmp00117</title>
    <g id="bmp00117" stroke="none" stroke-width="1" fill="none" fill-rule="evenodd">
        <g id="Group-12-Copy" transform="translate(3.000000, 2.000000)">
            <g id="Group" fill="#FF9000">
                <rect id="Rectangle" x="0" y="0" width="12" height="11" rx="1"></rect>
                <rect id="Rectangle" x="13" y="18" width="12" height="11" rx="1"></rect>
                <rect id="Rectangle" x="25" y="36" width="12" height="11" rx="1"></rect>
                <rect id="Rectangle" x="39" y="54" width="12" height="11" rx="1"></rect>
                <rect id="Rectangle" x="52" y="72" width="12" height="11" rx="1"></rect>
                <rect id="Rectangle" x="65" y="90" width="12" height="11" rx="1"></rect>
                <rect id="Rectangle" x="77" y="108" width="12" height="11" rx="1"></rect>
            </g>
            <g id="Stacked-Group-2" transform="translate(2.000000, 3.000000)">
                <g id="Numbers"></g>
                <g id="Numbers" transform="translate(0.000000, 108.000000)">
                    <g id="Group-4" transform="translate(81.000000, 0.000000)"></g>
                </g>
                <g id="Numbers" transform="translate(0.000000, 90.000000)">
                    <g id="Group-3" transform="translate(69.000000, 0.000000)"></g>
                </g>
                <g id="Numbers" transform="translate(0.000000, 72.000000)"></g>
                <g id="Numbers" transform="translate(0.000000, 54.000000)"></g>
                <g id="Numbers" transform="translate(0.000000, 36.000000)">
                    <g id="Group-2" transform="translate(30.000000, 0.000000)"></g>
                </g>
                <g id="Numbers" transform="translate(0.000000, 18.000000)"></g>
            </g>
            <path d="M5.254,6.3095 L5.254,5.4345 L3.364,5.4345 L3.364,6.3095 L5.254,6.3095 Z M8.2352222,8.056 C8.47088887,8.056 8.6972222,8.02275 8.9142222,7.95625 C9.1312222,7.88975 9.3219722,7.79 9.4864722,7.657 C9.6509722,7.524 9.7822222,7.35716667 9.8802222,7.1565 C9.9782222,6.95583333 10.0272222,6.72016667 10.0272222,6.4495 C10.0272222,5.87783333 9.74488887,5.49283333 9.1802222,5.2945 C9.30155553,5.2525 9.4094722,5.20058333 9.5039722,5.13875 C9.5984722,5.07691667 9.67780553,5.00108333 9.7419722,4.91125 C9.80613887,4.82141667 9.85455553,4.71525 9.8872222,4.59275 C9.91988887,4.47025 9.9362222,4.3285 9.9362222,4.1675 C9.9362222,3.99016667 9.9012222,3.82158333 9.8312222,3.66175 C9.7612222,3.50191667 9.65855553,3.36133333 9.5232222,3.24 C9.38788887,3.11866667 9.2222222,3.02241667 9.0262222,2.95125 C8.8302222,2.88008333 8.6062222,2.8445 8.3542222,2.8445 C8.12088887,2.8445 7.9027222,2.87541667 7.6997222,2.93725 C7.4967222,2.99908333 7.3164722,3.093 7.1589722,3.219 C7.0014722,3.345 6.86963887,3.5025 6.7634722,3.6915 C6.65730553,3.8805 6.58555553,4.10216667 6.5482222,4.3565 L6.5482222,4.3565 L7.1222222,4.458 C7.2692222,4.48133333 7.38238887,4.472 7.4617222,4.43 C7.54105553,4.388 7.6052222,4.30283333 7.6542222,4.1745 C7.6962222,4.0485 7.77263887,3.94291667 7.8834722,3.85775 C7.99430553,3.77258333 8.1302222,3.73 8.2912222,3.73 C8.48955553,3.73 8.63713887,3.78425 8.7339722,3.89275 C8.83080553,4.00125 8.8792222,4.15583333 8.8792222,4.3565 C8.8792222,4.4545 8.86755553,4.54433333 8.8442222,4.626 C8.82088887,4.70766667 8.77363887,4.77708333 8.7024722,4.83425 C8.63130553,4.89141667 8.53038887,4.93633333 8.3997222,4.969 C8.26905553,5.00166667 8.09755553,5.018 7.8852222,5.018 L7.8852222,5.018 L7.8852222,5.767 C8.1372222,5.767 8.33380553,5.78391667 8.4749722,5.81775 C8.61613887,5.85158333 8.7217222,5.9 8.7917222,5.963 C8.8617222,6.026 8.90430553,6.10125 8.9194722,6.18875 C8.93463887,6.27625 8.9422222,6.37483333 8.9422222,6.4845 C8.9422222,6.5685 8.92705553,6.65133333 8.8967222,6.733 C8.86638887,6.81466667 8.8214722,6.88758333 8.7619722,6.95175 C8.7024722,7.01591667 8.62780553,7.06841667 8.5379722,7.10925 C8.44813887,7.15008333 8.34255553,7.1705 8.2212222,7.1705 C8.06255553,7.1705 7.92430553,7.12675 7.8064722,7.03925 C7.68863887,6.95175 7.5772222,6.81116667 7.4722222,6.6175 C7.42555553,6.5335 7.34855553,6.47983333 7.2412222,6.4565 C7.13388887,6.43316667 7.0172222,6.446 6.8912222,6.495 L6.8912222,6.495 L6.4082222,6.691 C6.48988887,6.929 6.58613887,7.13433333 6.6969722,7.307 C6.80780553,7.47966667 6.9367222,7.62141667 7.0837222,7.73225 C7.2307222,7.84308333 7.3987222,7.92475 7.5877222,7.97725 C7.7767222,8.02975 7.99255553,8.056 8.2352222,8.056 Z" id="-3" fill="#1D1D1D" fill-rule="nonzero"></path>
            <path d="M18.254,6.3095 L18.254,5.4345 L16.364,5.4345 L16.364,6.3095 L18.254,6.3095 Z M23.0342222,8 L23.0342222,7.37 C23.0342222,7.265 23.0003889,7.18041667 22.9327222,7.11625 C22.8650555,7.05208333 22.7728889,7.02 22.6562222,7.02 L22.6562222,7.02 L21.7042222,7.02 C21.5968889,7.02 21.4802222,7.0305 21.3542222,7.0515 C21.2282222,7.0725 21.1010555,7.10283333 20.9727222,7.1425 L20.9727222,7.1425 L21.9702222,6.1205 C22.1055555,5.98283333 22.2333055,5.84691667 22.3534722,5.71275 C22.4736389,5.57858333 22.5792222,5.43975 22.6702222,5.29625 C22.7612222,5.15275 22.8329722,5.00166667 22.8854722,4.843 C22.9379722,4.68433333 22.9642222,4.51166667 22.9642222,4.325 C22.9642222,4.108 22.9263055,3.90908333 22.8504722,3.72825 C22.7746389,3.54741667 22.6655555,3.39166667 22.5232222,3.261 C22.3808889,3.13033333 22.2088055,3.02825 22.0069722,2.95475 C21.8051389,2.88125 21.5782222,2.8445 21.3262222,2.8445 C21.0928889,2.8445 20.8747222,2.87541667 20.6717222,2.93725 C20.4687222,2.99908333 20.2884722,3.093 20.1309722,3.219 C19.9734722,3.345 19.8416389,3.5025 19.7354722,3.6915 C19.6293055,3.8805 19.5575555,4.10216667 19.5202222,4.3565 L19.5202222,4.3565 L20.0942222,4.458 C20.2412222,4.48133333 20.3543889,4.472 20.4337222,4.43 C20.5130555,4.388 20.5772222,4.30283333 20.6262222,4.1745 C20.6682222,4.0485 20.7446389,3.94291667 20.8554722,3.85775 C20.9663055,3.77258333 21.1022222,3.73 21.2632222,3.73 C21.4615555,3.73 21.6091389,3.78425 21.7059722,3.89275 C21.8028055,4.00125 21.8512222,4.157 21.8512222,4.36 C21.8512222,4.48366667 21.8360555,4.60091667 21.8057222,4.71175 C21.7753889,4.82258333 21.7298889,4.93341667 21.6692222,5.04425 C21.6085555,5.15508333 21.5315555,5.26766667 21.4382222,5.382 C21.3448889,5.49633333 21.2352222,5.6165 21.1092222,5.7425 L21.1092222,5.7425 L19.6392222,7.223 C19.5692222,7.286 19.5202222,7.356 19.4922222,7.433 C19.4642222,7.51 19.4502222,7.58233333 19.4502222,7.65 L19.4502222,7.65 L19.4502222,8 L23.0342222,8 Z" id="-2" fill="#FF9000" fill-rule="nonzero"></path>
            <path d="M69.4675,7.4295 L69.4675,6.0365 L70.7625,6.0365 L70.7625,5.2595 L69.4675,5.2595 L69.4675,3.8735 L68.5855,3.8735 L68.5855,5.2595 L67.2975,5.2595 L67.2975,6.0365 L68.5855,6.0365 L68.5855,7.4295 L69.4675,7.4295 Z M75.4762222,8 L75.4762222,7.37 C75.4762222,7.265 75.4423889,7.18041667 75.3747222,7.11625 C75.3070555,7.05208333 75.2148889,7.02 75.0982222,7.02 L75.0982222,7.02 L74.1462222,7.02 C74.0388889,7.02 73.9222222,7.0305 73.7962222,7.0515 C73.6702222,7.0725 73.5430555,7.10283333 73.4147222,7.1425 L73.4147222,7.1425 L74.4122222,6.1205 C74.5475555,5.98283333 74.6753055,5.84691667 74.7954722,5.71275 C74.9156389,5.57858333 75.0212222,5.43975 75.1122222,5.29625 C75.2032222,5.15275 75.2749722,5.00166667 75.3274722,4.843 C75.3799722,4.68433333 75.4062222,4.51166667 75.4062222,4.325 C75.4062222,4.108 75.3683055,3.90908333 75.2924722,3.72825 C75.2166389,3.54741667 75.1075555,3.39166667 74.9652222,3.261 C74.8228889,3.13033333 74.6508055,3.02825 74.4489722,2.95475 C74.2471389,2.88125 74.0202222,2.8445 73.7682222,2.8445 C73.5348889,2.8445 73.3167222,2.87541667 73.1137222,2.93725 C72.9107222,2.99908333 72.7304722,3.093 72.5729722,3.219 C72.4154722,3.345 72.2836389,3.5025 72.1774722,3.6915 C72.0713055,3.8805 71.9995555,4.10216667 71.9622222,4.3565 L71.9622222,4.3565 L72.5362222,4.458 C72.6832222,4.48133333 72.7963889,4.472 72.8757222,4.43 C72.9550555,4.388 73.0192222,4.30283333 73.0682222,4.1745 C73.1102222,4.0485 73.1866389,3.94291667 73.2974722,3.85775 C73.4083055,3.77258333 73.5442222,3.73 73.7052222,3.73 C73.9035555,3.73 74.0511389,3.78425 74.1479722,3.89275 C74.2448055,4.00125 74.2932222,4.157 74.2932222,4.36 C74.2932222,4.48366667 74.2780555,4.60091667 74.2477222,4.71175 C74.2173889,4.82258333 74.1718889,4.93341667 74.1112222,5.04425 C74.0505555,5.15508333 73.9735555,5.26766667 73.8802222,5.382 C73.7868889,5.49633333 73.6772222,5.6165 73.5512222,5.7425 L73.5512222,5.7425 L72.0812222,7.223 C72.0112222,7.286 71.9622222,7.356 71.9342222,7.433 C71.9062222,7.51 71.8922222,7.58233333 71.8922222,7.65 L71.8922222,7.65 L71.8922222,8 L75.4762222,8 Z" id="+2" fill="#FF9000" fill-rule="nonzero"></path>
            <path d="M81.4675,7.4295 L81.4675,6.0365 L82.7625,6.0365 L82.7625,5.2595 L81.4675,5.2595 L81.4675,3.8735 L80.5855,3.8735 L80.5855,5.2595 L79.2975,5.2595 L79.2975,6.0365 L80.5855,6.0365 L80.5855,7.4295 L81.4675,7.4295 Z M85.6772222,8.056 C85.9128889,8.056 86.1392222,8.02275 86.3562222,7.95625 C86.5732222,7.88975 86.7639722,7.79 86.9284722,7.657 C87.0929722,7.524 87.2242222,7.35716667 87.3222222,7.1565 C87.4202222,6.95583333 87.4692222,6.72016667 87.4692222,6.4495 C87.4692222,5.87783333 87.1868889,5.49283333 86.6222222,5.2945 C86.7435555,5.2525 86.8514722,5.20058333 86.9459722,5.13875 C87.0404722,5.07691667 87.1198055,5.00108333 87.1839722,4.91125 C87.2481389,4.82141667 87.2965555,4.71525 87.3292222,4.59275 C87.3618889,4.47025 87.3782222,4.3285 87.3782222,4.1675 C87.3782222,3.99016667 87.3432222,3.82158333 87.2732222,3.66175 C87.2032222,3.50191667 87.1005555,3.36133333 86.9652222,3.24 C86.8298889,3.11866667 86.6642222,3.02241667 86.4682222,2.95125 C86.2722222,2.88008333 86.0482222,2.8445 85.7962222,2.8445 C85.5628889,2.8445 85.3447222,2.87541667 85.1417222,2.93725 C84.9387222,2.99908333 84.7584722,3.093 84.6009722,3.219 C84.4434722,3.345 84.3116389,3.5025 84.2054722,3.6915 C84.0993055,3.8805 84.0275555,4.10216667 83.9902222,4.3565 L83.9902222,4.3565 L84.5642222,4.458 C84.7112222,4.48133333 84.8243889,4.472 84.9037222,4.43 C84.9830555,4.388 85.0472222,4.30283333 85.0962222,4.1745 C85.1382222,4.0485 85.2146389,3.94291667 85.3254722,3.85775 C85.4363055,3.77258333 85.5722222,3.73 85.7332222,3.73 C85.9315555,3.73 86.0791389,3.78425 86.1759722,3.89275 C86.2728055,4.00125 86.3212222,4.15583333 86.3212222,4.3565 C86.3212222,4.4545 86.3095555,4.54433333 86.2862222,4.626 C86.2628889,4.70766667 86.2156389,4.77708333 86.1444722,4.83425 C86.0733055,4.89141667 85.9723889,4.93633333 85.8417222,4.969 C85.7110555,5.00166667 85.5395555,5.018 85.3272222,5.018 L85.3272222,5.018 L85.3272222,5.767 C85.5792222,5.767 85.7758055,5.78391667 85.9169722,5.81775 C86.0581389,5.85158333 86.1637222,5.9 86.2337222,5.963 C86.3037222,6.026 86.3463055,6.10125 86.3614722,6.18875 C86.3766389,6.27625 86.3842222,6.37483333 86.3842222,6.4845 C86.3842222,6.5685 86.3690555,6.65133333 86.3387222,6.733 C86.3083889,6.81466667 86.2634722,6.88758333 86.2039722,6.95175 C86.1444722,7.01591667 86.0698055,7.06841667 85.9799722,7.10925 C85.8901389,7.15008333 85.7845555,7.1705 85.6632222,7.1705 C85.5045555,7.1705 85.3663055,7.12675 85.2484722,7.03925 C85.1306389,6.95175 85.0192222,6.81116667 84.9142222,6.6175 C84.8675555,6.5335 84.7905555,6.47983333 84.6832222,6.4565 C84.5758889,6.43316667 84.4592222,6.446 84.3332222,6.495 L84.3332222,6.495 L83.8502222,6.691 C83.9318889,6.929 84.0281389,7.13433333 84.1389722,7.307 C84.2498055,7.47966667 84.3787222,7.62141667 84.5257222,7.73225 C84.6727222,7.84308333 84.8407222,7.92475 85.0297222,7.97725 C85.2187222,8.02975 85.4345555,8.056 85.6772222,8.056 Z" id="+3" fill="#FF9000" fill-rule="nonzero"></path>
            <path d="M30.254,6.3095 L30.254,5.4345 L28.364,5.4345 L28.364,6.3095 L30.254,6.3095 Z M34.9187222,8 L34.9187222,7.216 L34.0787222,7.216 L34.0787222,2.897 L33.1827222,2.897 L31.5937222,4.2305 L31.9367222,4.6855 C31.9530555,4.70883333 31.9787222,4.73158333 32.0137222,4.75375 C32.0487222,4.77591667 32.0883889,4.79108333 32.1327222,4.79925 C32.1770555,4.80741667 32.2243055,4.80741667 32.2744722,4.79925 C32.3246389,4.79108333 32.3753889,4.76716667 32.4267222,4.7275 L32.4267222,4.7275 L33.0077222,4.2445 C33.0030555,4.31216667 32.9995555,4.37925 32.9972222,4.44575 C32.9948889,4.51225 32.9937222,4.57816667 32.9937222,4.6435 L32.9937222,4.6435 L32.9937222,7.216 L32.0137222,7.216 L32.0137222,8 L34.9187222,8 Z" id="-1" fill="#FF9000" fill-rule="nonzero"></path>
            <path d="M45.023,8.056 C45.2936667,8.056 45.5450833,8.0035 45.77725,7.8985 C46.0094167,7.7935 46.2100833,7.63366667 46.37925,7.419 C46.5484167,7.20433333 46.6808333,6.93366667 46.7765,6.607 C46.8721667,6.28033333 46.92,5.89416667 46.92,5.4485 C46.92,5.00283333 46.8721667,4.61666667 46.7765,4.29 C46.6808333,3.96333333 46.5484167,3.69266667 46.37925,3.478 C46.2100833,3.26333333 46.0094167,3.10408333 45.77725,3.00025 C45.5450833,2.89641667 45.2936667,2.8445 45.023,2.8445 C44.7523333,2.8445 44.5020833,2.89641667 44.27225,3.00025 C44.0424167,3.10408333 43.8435,3.26333333 43.6755,3.478 C43.5075,3.69266667 43.37625,3.96333333 43.28175,4.29 C43.18725,4.61666667 43.14,5.00283333 43.14,5.4485 C43.14,5.89416667 43.18725,6.28033333 43.28175,6.607 C43.37625,6.93366667 43.5075,7.20433333 43.6755,7.419 C43.8435,7.63366667 44.0424167,7.7935 44.27225,7.8985 C44.5020833,8.0035 44.7523333,8.056 45.023,8.056 Z M45.023,7.1845 C44.9273333,7.1845 44.8334167,7.16058333 44.74125,7.11275 C44.6490833,7.06491667 44.5674167,6.97625 44.49625,6.84675 C44.4250833,6.71725 44.3679167,6.5405 44.32475,6.3165 C44.2815833,6.0925 44.26,5.80316667 44.26,5.4485 C44.26,5.09616667 44.2815833,4.80741667 44.32475,4.58225 C44.3679167,4.35708333 44.4250833,4.18033333 44.49625,4.052 C44.5674167,3.92366667 44.6490833,3.83558333 44.74125,3.78775 C44.8334167,3.73991667 44.9273333,3.716 45.023,3.716 C45.1186667,3.716 45.2131667,3.73991667 45.3065,3.78775 C45.3998333,3.83558333 45.48325,3.92366667 45.55675,4.052 C45.63025,4.18033333 45.6891667,4.35708333 45.7335,4.58225 C45.7778333,4.80741667 45.8,5.09616667 45.8,5.4485 C45.8,5.80316667 45.7778333,6.0925 45.7335,6.3165 C45.6891667,6.5405 45.63025,6.71725 45.55675,6.84675 C45.48325,6.97625 45.3998333,7.06491667 45.3065,7.11275 C45.2131667,7.16058333 45.1186667,7.1845 45.023,7.1845 Z" id="0" fill="#FF9000" fill-rule="nonzero"></path>
            <path d="M56.4675,7.4295 L56.4675,6.0365 L57.7625,6.0365 L57.7625,5.2595 L56.4675,5.2595 L56.4675,3.8735 L55.5855,3.8735 L55.5855,5.2595 L54.2975,5.2595 L54.2975,6.0365 L55.5855,6.0365 L55.5855,7.4295 L56.4675,7.4295 Z M62.3607222,8 L62.3607222,7.216 L61.5207222,7.216 L61.5207222,2.897 L60.6247222,2.897 L59.0357222,4.2305 L59.3787222,4.6855 C59.3950555,4.70883333 59.4207222,4.73158333 59.4557222,4.75375 C59.4907222,4.77591667 59.5303889,4.79108333 59.5747222,4.79925 C59.6190555,4.80741667 59.6663055,4.80741667 59.7164722,4.79925 C59.7666389,4.79108333 59.8173889,4.76716667 59.8687222,4.7275 L59.8687222,4.7275 L60.4497222,4.2445 C60.4450555,4.31216667 60.4415555,4.37925 60.4392222,4.44575 C60.4368889,4.51225 60.4357222,4.57816667 60.4357222,4.6435 L60.4357222,4.6435 L60.4357222,7.216 L59.4557222,7.216 L59.4557222,8 L62.3607222,8 Z" id="+1" fill="#FF9000" fill-rule="nonzero"></path>
            <path d="M5.254,24.3095 L5.254,23.4345 L3.364,23.4345 L3.364,24.3095 L5.254,24.3095 Z M8.2352222,26.056 C8.47088887,26.056 8.6972222,26.02275 8.9142222,25.95625 C9.1312222,25.88975 9.3219722,25.79 9.4864722,25.657 C9.6509722,25.524 9.7822222,25.3571667 9.8802222,25.1565 C9.9782222,24.9558333 10.0272222,24.7201667 10.0272222,24.4495 C10.0272222,23.8778333 9.74488887,23.4928333 9.1802222,23.2945 C9.30155553,23.2525 9.4094722,23.2005833 9.5039722,23.13875 C9.5984722,23.0769167 9.67780553,23.0010833 9.7419722,22.91125 C9.80613887,22.8214167 9.85455553,22.71525 9.8872222,22.59275 C9.91988887,22.47025 9.9362222,22.3285 9.9362222,22.1675 C9.9362222,21.9901667 9.9012222,21.8215833 9.8312222,21.66175 C9.7612222,21.5019167 9.65855553,21.3613333 9.5232222,21.24 C9.38788887,21.1186667 9.2222222,21.0224167 9.0262222,20.95125 C8.8302222,20.8800833 8.6062222,20.8445 8.3542222,20.8445 C8.12088887,20.8445 7.9027222,20.8754167 7.6997222,20.93725 C7.4967222,20.9990833 7.3164722,21.093 7.1589722,21.219 C7.0014722,21.345 6.86963887,21.5025 6.7634722,21.6915 C6.65730553,21.8805 6.58555553,22.1021667 6.5482222,22.3565 L6.5482222,22.3565 L7.1222222,22.458 C7.2692222,22.4813333 7.38238887,22.472 7.4617222,22.43 C7.54105553,22.388 7.6052222,22.3028333 7.6542222,22.1745 C7.6962222,22.0485 7.77263887,21.9429167 7.8834722,21.85775 C7.99430553,21.7725833 8.1302222,21.73 8.2912222,21.73 C8.48955553,21.73 8.63713887,21.78425 8.7339722,21.89275 C8.83080553,22.00125 8.8792222,22.1558333 8.8792222,22.3565 C8.8792222,22.4545 8.86755553,22.5443333 8.8442222,22.626 C8.82088887,22.7076667 8.77363887,22.7770833 8.7024722,22.83425 C8.63130553,22.8914167 8.53038887,22.9363333 8.3997222,22.969 C8.26905553,23.0016667 8.09755553,23.018 7.8852222,23.018 L7.8852222,23.018 L7.8852222,23.767 C8.1372222,23.767 8.33380553,23.7839167 8.4749722,23.81775 C8.61613887,23.8515833 8.7217222,23.9 8.7917222,23.963 C8.8617222,24.026 8.90430553,24.10125 8.9194722,24.18875 C8.93463887,24.27625 8.9422222,24.3748333 8.9422222,24.4845 C8.9422222,24.5685 8.92705553,24.6513333 8.8967222,24.733 C8.86638887,24.8146667 8.8214722,24.8875833 8.7619722,24.95175 C8.7024722,25.0159167 8.62780553,25.0684167 8.5379722,25.10925 C8.44813887,25.1500833 8.34255553,25.1705 8.2212222,25.1705 C8.06255553,25.1705 7.92430553,25.12675 7.8064722,25.03925 C7.68863887,24.95175 7.5772222,24.8111667 7.4722222,24.6175 C7.42555553,24.5335 7.34855553,24.4798333 7.2412222,24.4565 C7.13388887,24.4331667 7.0172222,24.446 6.8912222,24.495 L6.8912222,24.495 L6.4082222,24.691 C6.48988887,24.929 6.58613887,25.1343333 6.6969722,25.307 C6.80780553,25.4796667 6.9367222,25.6214167 7.0837222,25.73225 C7.2307222,25.8430833 7.3987222,25.92475 7.5877222,25.97725 C7.7767222,26.02975 7.99255553,26.056 8.2352222,26.056 Z" id="-3" fill="#FF9000" fill-rule="nonzero"></path>
            <path d="M18.254,24.3095 L18.254,23.4345 L16.364,23.4345 L16.364,24.3095 L18.254,24.3095 Z M23.0342222,26 L23.0342222,25.37 C23.0342222,25.265 23.0003889,25.1804167 22.9327222,25.11625 C22.8650555,25.0520833 22.7728889,25.02 22.6562222,25.02 L22.6562222,25.02 L21.7042222,25.02 C21.5968889,25.02 21.4802222,25.0305 21.3542222,25.0515 C21.2282222,25.0725 21.1010555,25.1028333 20.9727222,25.1425 L20.9727222,25.1425 L21.9702222,24.1205 C22.1055555,23.9828333 22.2333055,23.8469167 22.3534722,23.71275 C22.4736389,23.5785833 22.5792222,23.43975 22.6702222,23.29625 C22.7612222,23.15275 22.8329722,23.0016667 22.8854722,22.843 C22.9379722,22.6843333 22.9642222,22.5116667 22.9642222,22.325 C22.9642222,22.108 22.9263055,21.9090833 22.8504722,21.72825 C22.7746389,21.5474167 22.6655555,21.3916667 22.5232222,21.261 C22.3808889,21.1303333 22.2088055,21.02825 22.0069722,20.95475 C21.8051389,20.88125 21.5782222,20.8445 21.3262222,20.8445 C21.0928889,20.8445 20.8747222,20.8754167 20.6717222,20.93725 C20.4687222,20.9990833 20.2884722,21.093 20.1309722,21.219 C19.9734722,21.345 19.8416389,21.5025 19.7354722,21.6915 C19.6293055,21.8805 19.5575555,22.1021667 19.5202222,22.3565 L19.5202222,22.3565 L20.0942222,22.458 C20.2412222,22.4813333 20.3543889,22.472 20.4337222,22.43 C20.5130555,22.388 20.5772222,22.3028333 20.6262222,22.1745 C20.6682222,22.0485 20.7446389,21.9429167 20.8554722,21.85775 C20.9663055,21.7725833 21.1022222,21.73 21.2632222,21.73 C21.4615555,21.73 21.6091389,21.78425 21.7059722,21.89275 C21.8028055,22.00125 21.8512222,22.157 21.8512222,22.36 C21.8512222,22.4836667 21.8360555,22.6009167 21.8057222,22.71175 C21.7753889,22.8225833 21.7298889,22.9334167 21.6692222,23.04425 C21.6085555,23.1550833 21.5315555,23.2676667 21.4382222,23.382 C21.3448889,23.4963333 21.2352222,23.6165 21.1092222,23.7425 L21.1092222,23.7425 L19.6392222,25.223 C19.5692222,25.286 19.5202222,25.356 19.4922222,25.433 C19.4642222,25.51 19.4502222,25.5823333 19.4502222,25.65 L19.4502222,25.65 L19.4502222,26 L23.0342222,26 Z" id="-2" fill="#1E1E1E" fill-rule="nonzero"></path>
            <path d="M69.4675,25.4295 L69.4675,24.0365 L70.7625,24.0365 L70.7625,23.2595 L69.4675,23.2595 L69.4675,21.8735 L68.5855,21.8735 L68.5855,23.2595 L67.2975,23.2595 L67.2975,24.0365 L68.5855,24.0365 L68.5855,25.4295 L69.4675,25.4295 Z M75.4762222,26 L75.4762222,25.37 C75.4762222,25.265 75.4423889,25.1804167 75.3747222,25.11625 C75.3070555,25.0520833 75.2148889,25.02 75.0982222,25.02 L75.0982222,25.02 L74.1462222,25.02 C74.0388889,25.02 73.9222222,25.0305 73.7962222,25.0515 C73.6702222,25.0725 73.5430555,25.1028333 73.4147222,25.1425 L73.4147222,25.1425 L74.4122222,24.1205 C74.5475555,23.9828333 74.6753055,23.8469167 74.7954722,23.71275 C74.9156389,23.5785833 75.0212222,23.43975 75.1122222,23.29625 C75.2032222,23.15275 75.2749722,23.0016667 75.3274722,22.843 C75.3799722,22.6843333 75.4062222,22.5116667 75.4062222,22.325 C75.4062222,22.108 75.3683055,21.9090833 75.2924722,21.72825 C75.2166389,21.5474167 75.1075555,21.3916667 74.9652222,21.261 C74.8228889,21.1303333 74.6508055,21.02825 74.4489722,20.95475 C74.2471389,20.88125 74.0202222,20.8445 73.7682222,20.8445 C73.5348889,20.8445 73.3167222,20.8754167 73.1137222,20.93725 C72.9107222,20.9990833 72.7304722,21.093 72.5729722,21.219 C72.4154722,21.345 72.2836389,21.5025 72.1774722,21.6915 C72.0713055,21.8805 71.9995555,22.1021667 71.9622222,22.3565 L71.9622222,22.3565 L72.5362222,22.458 C72.6832222,22.4813333 72.7963889,22.472 72.8757222,22.43 C72.9550555,22.388 73.0192222,22.3028333 73.0682222,22.1745 C73.1102222,22.0485 73.1866389,21.9429167 73.2974722,21.85775 C73.4083055,21.7725833 73.5442222,21.73 73.7052222,21.73 C73.9035555,21.73 74.0511389,21.78425 74.1479722,21.89275 C74.2448055,22.00125 74.2932222,22.157 74.2932222,22.36 C74.2932222,22.4836667 74.2780555,22.6009167 74.2477222,22.71175 C74.2173889,22.8225833 74.1718889,22.9334167 74.1112222,23.04425 C74.0505555,23.1550833 73.9735555,23.2676667 73.8802222,23.382 C73.7868889,23.4963333 73.6772222,23.6165 73.5512222,23.7425 L73.5512222,23.7425 L72.0812222,25.223 C72.0112222,25.286 71.9622222,25.356 71.9342222,25.433 C71.9062222,25.51 71.8922222,25.5823333 71.8922222,25.65 L71.8922222,25.65 L71.8922222,26 L75.4762222,26 Z" id="+2" fill="#FF9000" fill-rule="nonzero"></path>
            <path d="M81.4675,25.4295 L81.4675,24.0365 L82.7625,24.0365 L82.7625,23.2595 L81.4675,23.2595 L81.4675,21.8735 L80.5855,21.8735 L80.5855,23.2595 L79.2975,23.2595 L79.2975,24.0365 L80.5855,24.0365 L80.5855,25.4295 L81.4675,25.4295 Z M85.6772222,26.056 C85.9128889,26.056 86.1392222,26.02275 86.3562222,25.95625 C86.5732222,25.88975 86.7639722,25.79 86.9284722,25.657 C87.0929722,25.524 87.2242222,25.3571667 87.3222222,25.1565 C87.4202222,24.9558333 87.4692222,24.7201667 87.4692222,24.4495 C87.4692222,23.8778333 87.1868889,23.4928333 86.6222222,23.2945 C86.7435555,23.2525 86.8514722,23.2005833 86.9459722,23.13875 C87.0404722,23.0769167 87.1198055,23.0010833 87.1839722,22.91125 C87.2481389,22.8214167 87.2965555,22.71525 87.3292222,22.59275 C87.3618889,22.47025 87.3782222,22.3285 87.3782222,22.1675 C87.3782222,21.9901667 87.3432222,21.8215833 87.2732222,21.66175 C87.2032222,21.5019167 87.1005555,21.3613333 86.9652222,21.24 C86.8298889,21.1186667 86.6642222,21.0224167 86.4682222,20.95125 C86.2722222,20.8800833 86.0482222,20.8445 85.7962222,20.8445 C85.5628889,20.8445 85.3447222,20.8754167 85.1417222,20.93725 C84.9387222,20.9990833 84.7584722,21.093 84.6009722,21.219 C84.4434722,21.345 84.3116389,21.5025 84.2054722,21.6915 C84.0993055,21.8805 84.0275555,22.1021667 83.9902222,22.3565 L83.9902222,22.3565 L84.5642222,22.458 C84.7112222,22.4813333 84.8243889,22.472 84.9037222,22.43 C84.9830555,22.388 85.0472222,22.3028333 85.0962222,22.1745 C85.1382222,22.0485 85.2146389,21.9429167 85.3254722,21.85775 C85.4363055,21.7725833 85.5722222,21.73 85.7332222,21.73 C85.9315555,21.73 86.0791389,21.78425 86.1759722,21.89275 C86.2728055,22.00125 86.3212222,22.1558333 86.3212222,22.3565 C86.3212222,22.4545 86.3095555,22.5443333 86.2862222,22.626 C86.2628889,22.7076667 86.2156389,22.7770833 86.1444722,22.83425 C86.0733055,22.8914167 85.9723889,22.9363333 85.8417222,22.969 C85.7110555,23.0016667 85.5395555,23.018 85.3272222,23.018 L85.3272222,23.018 L85.3272222,23.767 C85.5792222,23.767 85.7758055,23.7839167 85.9169722,23.81775 C86.0581389,23.8515833 86.1637222,23.9 86.2337222,23.963 C86.3037222,24.026 86.3463055,24.10125 86.3614722,24.18875 C86.3766389,24.27625 86.3842222,24.3748333 86.3842222,24.4845 C86.3842222,24.5685 86.3690555,24.6513333 86.3387222,24.733 C86.3083889,24.8146667 86.2634722,24.8875833 86.2039722,24.95175 C86.1444722,25.0159167 86.0698055,25.0684167 85.9799722,25.10925 C85.8901389,25.1500833 85.7845555,25.1705 85.6632222,25.1705 C85.5045555,25.1705 85.3663055,25.12675 85.2484722,25.03925 C85.1306389,24.95175 85.0192222,24.8111667 84.9142222,24.6175 C84.8675555,24.5335 84.7905555,24.4798333 84.6832222,24.4565 C84.5758889,24.4331667 84.4592222,24.446 84.3332222,24.495 L84.3332222,24.495 L83.8502222,24.691 C83.9318889,24.929 84.0281389,25.1343333 84.1389722,25.307 C84.2498055,25.4796667 84.3787222,25.6214167 84.5257222,25.73225 C84.6727222,25.8430833 84.8407222,25.92475 85.0297222,25.97725 C85.2187222,26.02975 85.4345555,26.056 85.6772222,26.056 Z" id="+3" fill="#FF9000" fill-rule="nonzero"></path>
            <path d="M30.254,24.3095 L30.254,23.4345 L28.364,23.4345 L28.364,24.3095 L30.254,24.3095 Z M34.9187222,26 L34.9187222,25.216 L34.0787222,25.216 L34.0787222,20.897 L33.1827222,20.897 L31.5937222,22.2305 L31.9367222,22.6855 C31.9530555,22.7088333 31.9787222,22.7315833 32.0137222,22.75375 C32.0487222,22.7759167 32.0883889,22.7910833 32.1327222,22.79925 C32.1770555,22.8074167 32.2243055,22.8074167 32.2744722,22.79925 C32.3246389,22.7910833 32.3753889,22.7671667 32.4267222,22.7275 L32.4267222,22.7275 L33.0077222,22.2445 C33.0030555,22.3121667 32.9995555,22.37925 32.9972222,22.44575 C32.9948889,22.51225 32.9937222,22.5781667 32.9937222,22.6435 L32.9937222,22.6435 L32.9937222,25.216 L32.0137222,25.216 L32.0137222,26 L34.9187222,26 Z" id="-1" fill="#FF9000" fill-rule="nonzero"></path>
            <path d="M45.023,26.056 C45.2936667,26.056 45.5450833,26.0035 45.77725,25.8985 C46.0094167,25.7935 46.2100833,25.6336667 46.37925,25.419 C46.5484167,25.2043333 46.6808333,24.9336667 46.7765,24.607 C46.8721667,24.2803333 46.92,23.8941667 46.92,23.4485 C46.92,23.0028333 46.8721667,22.6166667 46.7765,22.29 C46.6808333,21.9633333 46.5484167,21.6926667 46.37925,21.478 C46.2100833,21.2633333 46.0094167,21.1040833 45.77725,21.00025 C45.5450833,20.8964167 45.2936667,20.8445 45.023,20.8445 C44.7523333,20.8445 44.5020833,20.8964167 44.27225,21.00025 C44.0424167,21.1040833 43.8435,21.2633333 43.6755,21.478 C43.5075,21.6926667 43.37625,21.9633333 43.28175,22.29 C43.18725,22.6166667 43.14,23.0028333 43.14,23.4485 C43.14,23.8941667 43.18725,24.2803333 43.28175,24.607 C43.37625,24.9336667 43.5075,25.2043333 43.6755,25.419 C43.8435,25.6336667 44.0424167,25.7935 44.27225,25.8985 C44.5020833,26.0035 44.7523333,26.056 45.023,26.056 Z M45.023,25.1845 C44.9273333,25.1845 44.8334167,25.1605833 44.74125,25.11275 C44.6490833,25.0649167 44.5674167,24.97625 44.49625,24.84675 C44.4250833,24.71725 44.3679167,24.5405 44.32475,24.3165 C44.2815833,24.0925 44.26,23.8031667 44.26,23.4485 C44.26,23.0961667 44.2815833,22.8074167 44.32475,22.58225 C44.3679167,22.3570833 44.4250833,22.1803333 44.49625,22.052 C44.5674167,21.9236667 44.6490833,21.8355833 44.74125,21.78775 C44.8334167,21.7399167 44.9273333,21.716 45.023,21.716 C45.1186667,21.716 45.2131667,21.7399167 45.3065,21.78775 C45.3998333,21.8355833 45.48325,21.9236667 45.55675,22.052 C45.63025,22.1803333 45.6891667,22.3570833 45.7335,22.58225 C45.7778333,22.8074167 45.8,23.0961667 45.8,23.4485 C45.8,23.8031667 45.7778333,24.0925 45.7335,24.3165 C45.6891667,24.5405 45.63025,24.71725 45.55675,24.84675 C45.48325,24.97625 45.3998333,25.0649167 45.3065,25.11275 C45.2131667,25.1605833 45.1186667,25.1845 45.023,25.1845 Z" id="0" fill="#FF9000" fill-rule="nonzero"></path>
            <path d="M56.4675,25.4295 L56.4675,24.0365 L57.7625,24.0365 L57.7625,23.2595 L56.4675,23.2595 L56.4675,21.8735 L55.5855,21.8735 L55.5855,23.2595 L54.2975,23.2595 L54.2975,24.0365 L55.5855,24.0365 L55.5855,25.4295 L56.4675,25.4295 Z M62.3607222,26 L62.3607222,25.216 L61.5207222,25.216 L61.5207222,20.897 L60.6247222,20.897 L59.0357222,22.2305 L59.3787222,22.6855 C59.3950555,22.7088333 59.4207222,22.7315833 59.4557222,22.75375 C59.4907222,22.7759167 59.5303889,22.7910833 59.5747222,22.79925 C59.6190555,22.8074167 59.6663055,22.8074167 59.7164722,22.79925 C59.7666389,22.7910833 59.8173889,22.7671667 59.8687222,22.7275 L59.8687222,22.7275 L60.4497222,22.2445 C60.4450555,22.3121667 60.4415555,22.37925 60.4392222,22.44575 C60.4368889,22.51225 60.4357222,22.5781667 60.4357222,22.6435 L60.4357222,22.6435 L60.4357222,25.216 L59.4557222,25.216 L59.4557222,26 L62.3607222,26 Z" id="+1" fill="#FF9000" fill-rule="nonzero"></path>
            <path d="M5.254,42.3095 L5.254,41.4345 L3.364,41.4345 L3.364,42.3095 L5.254,42.3095 Z M8.2352222,44.056 C8.47088887,44.056 8.6972222,44.02275 8.9142222,43.95625 C9.1312222,43.88975 9.3219722,43.79 9.4864722,43.657 C9.6509722,43.524 9.7822222,43.3571667 9.8802222,43.1565 C9.9782222,42.9558333 10.0272222,42.7201667 10.0272222,42.4495 C10.0272222,41.8778333 9.74488887,41.4928333 9.1802222,41.2945 C9.30155553,41.2525 9.4094722,41.2005833 9.5039722,41.13875 C9.5984722,41.0769167 9.67780553,41.0010833 9.7419722,40.91125 C9.80613887,40.8214167 9.85455553,40.71525 9.8872222,40.59275 C9.91988887,40.47025 9.9362222,40.3285 9.9362222,40.1675 C9.9362222,39.9901667 9.9012222,39.8215833 9.8312222,39.66175 C9.7612222,39.5019167 9.65855553,39.3613333 9.5232222,39.24 C9.38788887,39.1186667 9.2222222,39.0224167 9.0262222,38.95125 C8.8302222,38.8800833 8.6062222,38.8445 8.3542222,38.8445 C8.12088887,38.8445 7.9027222,38.8754167 7.6997222,38.93725 C7.4967222,38.9990833 7.3164722,39.093 7.1589722,39.219 C7.0014722,39.345 6.86963887,39.5025 6.7634722,39.6915 C6.65730553,39.8805 6.58555553,40.1021667 6.5482222,40.3565 L6.5482222,40.3565 L7.1222222,40.458 C7.2692222,40.4813333 7.38238887,40.472 7.4617222,40.43 C7.54105553,40.388 7.6052222,40.3028333 7.6542222,40.1745 C7.6962222,40.0485 7.77263887,39.9429167 7.8834722,39.85775 C7.99430553,39.7725833 8.1302222,39.73 8.2912222,39.73 C8.48955553,39.73 8.63713887,39.78425 8.7339722,39.89275 C8.83080553,40.00125 8.8792222,40.1558333 8.8792222,40.3565 C8.8792222,40.4545 8.86755553,40.5443333 8.8442222,40.626 C8.82088887,40.7076667 8.77363887,40.7770833 8.7024722,40.83425 C8.63130553,40.8914167 8.53038887,40.9363333 8.3997222,40.969 C8.26905553,41.0016667 8.09755553,41.018 7.8852222,41.018 L7.8852222,41.018 L7.8852222,41.767 C8.1372222,41.767 8.33380553,41.7839167 8.4749722,41.81775 C8.61613887,41.8515833 8.7217222,41.9 8.7917222,41.963 C8.8617222,42.026 8.90430553,42.10125 8.9194722,42.18875 C8.93463887,42.27625 8.9422222,42.3748333 8.9422222,42.4845 C8.9422222,42.5685 8.92705553,42.6513333 8.8967222,42.733 C8.86638887,42.8146667 8.8214722,42.8875833 8.7619722,42.95175 C8.7024722,43.0159167 8.62780553,43.0684167 8.5379722,43.10925 C8.44813887,43.1500833 8.34255553,43.1705 8.2212222,43.1705 C8.06255553,43.1705 7.92430553,43.12675 7.8064722,43.03925 C7.68863887,42.95175 7.5772222,42.8111667 7.4722222,42.6175 C7.42555553,42.5335 7.34855553,42.4798333 7.2412222,42.4565 C7.13388887,42.4331667 7.0172222,42.446 6.8912222,42.495 L6.8912222,42.495 L6.4082222,42.691 C6.48988887,42.929 6.58613887,43.1343333 6.6969722,43.307 C6.80780553,43.4796667 6.9367222,43.6214167 7.0837222,43.73225 C7.2307222,43.8430833 7.3987222,43.92475 7.5877222,43.97725 C7.7767222,44.02975 7.99255553,44.056 8.2352222,44.056 Z" id="-3" fill="#FF9000" fill-rule="nonzero"></path>
            <path d="M18.254,42.3095 L18.254,41.4345 L16.364,41.4345 L16.364,42.3095 L18.254,42.3095 Z M23.0342222,44 L23.0342222,43.37 C23.0342222,43.265 23.0003889,43.1804167 22.9327222,43.11625 C22.8650555,43.0520833 22.7728889,43.02 22.6562222,43.02 L22.6562222,43.02 L21.7042222,43.02 C21.5968889,43.02 21.4802222,43.0305 21.3542222,43.0515 C21.2282222,43.0725 21.1010555,43.1028333 20.9727222,43.1425 L20.9727222,43.1425 L21.9702222,42.1205 C22.1055555,41.9828333 22.2333055,41.8469167 22.3534722,41.71275 C22.4736389,41.5785833 22.5792222,41.43975 22.6702222,41.29625 C22.7612222,41.15275 22.8329722,41.0016667 22.8854722,40.843 C22.9379722,40.6843333 22.9642222,40.5116667 22.9642222,40.325 C22.9642222,40.108 22.9263055,39.9090833 22.8504722,39.72825 C22.7746389,39.5474167 22.6655555,39.3916667 22.5232222,39.261 C22.3808889,39.1303333 22.2088055,39.02825 22.0069722,38.95475 C21.8051389,38.88125 21.5782222,38.8445 21.3262222,38.8445 C21.0928889,38.8445 20.8747222,38.8754167 20.6717222,38.93725 C20.4687222,38.9990833 20.2884722,39.093 20.1309722,39.219 C19.9734722,39.345 19.8416389,39.5025 19.7354722,39.6915 C19.6293055,39.8805 19.5575555,40.1021667 19.5202222,40.3565 L19.5202222,40.3565 L20.0942222,40.458 C20.2412222,40.4813333 20.3543889,40.472 20.4337222,40.43 C20.5130555,40.388 20.5772222,40.3028333 20.6262222,40.1745 C20.6682222,40.0485 20.7446389,39.9429167 20.8554722,39.85775 C20.9663055,39.7725833 21.1022222,39.73 21.2632222,39.73 C21.4615555,39.73 21.6091389,39.78425 21.7059722,39.89275 C21.8028055,40.00125 21.8512222,40.157 21.8512222,40.36 C21.8512222,40.4836667 21.8360555,40.6009167 21.8057222,40.71175 C21.7753889,40.8225833 21.7298889,40.9334167 21.6692222,41.04425 C21.6085555,41.1550833 21.5315555,41.2676667 21.4382222,41.382 C21.3448889,41.4963333 21.2352222,41.6165 21.1092222,41.7425 L21.1092222,41.7425 L19.6392222,43.223 C19.5692222,43.286 19.5202222,43.356 19.4922222,43.433 C19.4642222,43.51 19.4502222,43.5823333 19.4502222,43.65 L19.4502222,43.65 L19.4502222,44 L23.0342222,44 Z" id="-2" fill="#FF9000" fill-rule="nonzero"></path>
            <path d="M69.4675,43.4295 L69.4675,42.0365 L70.7625,42.0365 L70.7625,41.2595 L69.4675,41.2595 L69.4675,39.8735 L68.5855,39.8735 L68.5855,41.2595 L67.2975,41.2595 L67.2975,42.0365 L68.5855,42.0365 L68.5855,43.4295 L69.4675,43.4295 Z M75.4762222,44 L75.4762222,43.37 C75.4762222,43.265 75.4423889,43.1804167 75.3747222,43.11625 C75.3070555,43.0520833 75.2148889,43.02 75.0982222,43.02 L75.0982222,43.02 L74.1462222,43.02 C74.0388889,43.02 73.9222222,43.0305 73.7962222,43.0515 C73.6702222,43.0725 73.5430555,43.1028333 73.4147222,43.1425 L73.4147222,43.1425 L74.4122222,42.1205 C74.5475555,41.9828333 74.6753055,41.8469167 74.7954722,41.71275 C74.9156389,41.5785833 75.0212222,41.43975 75.1122222,41.29625 C75.2032222,41.15275 75.2749722,41.0016667 75.3274722,40.843 C75.3799722,40.6843333 75.4062222,40.5116667 75.4062222,40.325 C75.4062222,40.108 75.3683055,39.9090833 75.2924722,39.72825 C75.2166389,39.5474167 75.1075555,39.3916667 74.9652222,39.261 C74.8228889,39.1303333 74.6508055,39.02825 74.4489722,38.95475 C74.2471389,38.88125 74.0202222,38.8445 73.7682222,38.8445 C73.5348889,38.8445 73.3167222,38.8754167 73.1137222,38.93725 C72.9107222,38.9990833 72.7304722,39.093 72.5729722,39.219 C72.4154722,39.345 72.2836389,39.5025 72.1774722,39.6915 C72.0713055,39.8805 71.9995555,40.1021667 71.9622222,40.3565 L71.9622222,40.3565 L72.5362222,40.458 C72.6832222,40.4813333 72.7963889,40.472 72.8757222,40.43 C72.9550555,40.388 73.0192222,40.3028333 73.0682222,40.1745 C73.1102222,40.0485 73.1866389,39.9429167 73.2974722,39.85775 C73.4083055,39.7725833 73.5442222,39.73 73.7052222,39.73 C73.9035555,39.73 74.0511389,39.78425 74.1479722,39.89275 C74.2448055,40.00125 74.2932222,40.157 74.2932222,40.36 C74.2932222,40.4836667 74.2780555,40.6009167 74.2477222,40.71175 C74.2173889,40.8225833 74.1718889,40.9334167 74.1112222,41.04425 C74.0505555,41.1550833 73.9735555,41.2676667 73.8802222,41.382 C73.7868889,41.4963333 73.6772222,41.6165 73.5512222,41.7425 L73.5512222,41.7425 L72.0812222,43.223 C72.0112222,43.286 71.9622222,43.356 71.9342222,43.433 C71.9062222,43.51 71.8922222,43.5823333 71.8922222,43.65 L71.8922222,43.65 L71.8922222,44 L75.4762222,44 Z" id="+2" fill="#FF9000" fill-rule="nonzero"></path>
            <path d="M81.4675,43.4295 L81.4675,42.0365 L82.7625,42.0365 L82.7625,41.2595 L81.4675,41.2595 L81.4675,39.8735 L80.5855,39.8735 L80.5855,41.2595 L79.2975,41.2595 L79.2975,42.0365 L80.5855,42.0365 L80.5855,43.4295 L81.4675,43.4295 Z M85.6772222,44.056 C85.9128889,44.056 86.1392222,44.02275 86.3562222,43.95625 C86.5732222,43.88975 86.7639722,43.79 86.9284722,43.657 C87.0929722,43.524 87.2242222,43.3571667 87.3222222,43.1565 C87.4202222,42.9558333 87.4692222,42.7201667 87.4692222,42.4495 C87.4692222,41.8778333 87.1868889,41.4928333 86.6222222,41.2945 C86.7435555,41.2525 86.8514722,41.2005833 86.9459722,41.13875 C87.0404722,41.0769167 87.1198055,41.0010833 87.1839722,40.91125 C87.2481389,40.8214167 87.2965555,40.71525 87.3292222,40.59275 C87.3618889,40.47025 87.3782222,40.3285 87.3782222,40.1675 C87.3782222,39.9901667 87.3432222,39.8215833 87.2732222,39.66175 C87.2032222,39.5019167 87.1005555,39.3613333 86.9652222,39.24 C86.8298889,39.1186667 86.6642222,39.0224167 86.4682222,38.95125 C86.2722222,38.8800833 86.0482222,38.8445 85.7962222,38.8445 C85.5628889,38.8445 85.3447222,38.8754167 85.1417222,38.93725 C84.9387222,38.9990833 84.7584722,39.093 84.6009722,39.219 C84.4434722,39.345 84.3116389,39.5025 84.2054722,39.6915 C84.0993055,39.8805 84.0275555,40.1021667 83.9902222,40.3565 L83.9902222,40.3565 L84.5642222,40.458 C84.7112222,40.4813333 84.8243889,40.472 84.9037222,40.43 C84.9830555,40.388 85.0472222,40.3028333 85.0962222,40.1745 C85.1382222,40.0485 85.2146389,39.9429167 85.3254722,39.85775 C85.4363055,39.7725833 85.5722222,39.73 85.7332222,39.73 C85.9315555,39.73 86.0791389,39.78425 86.1759722,39.89275 C86.2728055,40.00125 86.3212222,40.1558333 86.3212222,40.3565 C86.3212222,40.4545 86.3095555,40.5443333 86.2862222,40.626 C86.2628889,40.7076667 86.2156389,40.7770833 86.1444722,40.83425 C86.0733055,40.8914167 85.9723889,40.9363333 85.8417222,40.969 C85.7110555,41.0016667 85.5395555,41.018 85.3272222,41.018 L85.3272222,41.018 L85.3272222,41.767 C85.5792222,41.767 85.7758055,41.7839167 85.9169722,41.81775 C86.0581389,41.8515833 86.1637222,41.9 86.2337222,41.963 C86.3037222,42.026 86.3463055,42.10125 86.3614722,42.18875 C86.3766389,42.27625 86.3842222,42.3748333 86.3842222,42.4845 C86.3842222,42.5685 86.3690555,42.6513333 86.3387222,42.733 C86.3083889,42.8146667 86.2634722,42.8875833 86.2039722,42.95175 C86.1444722,43.0159167 86.0698055,43.0684167 85.9799722,43.10925 C85.8901389,43.1500833 85.7845555,43.1705 85.6632222,43.1705 C85.5045555,43.1705 85.3663055,43.12675 85.2484722,43.03925 C85.1306389,42.95175 85.0192222,42.8111667 84.9142222,42.6175 C84.8675555,42.5335 84.7905555,42.4798333 84.6832222,42.4565 C84.5758889,42.4331667 84.4592222,42.446 84.3332222,42.495 L84.3332222,42.495 L83.8502222,42.691 C83.9318889,42.929 84.0281389,43.1343333 84.1389722,43.307 C84.2498055,43.4796667 84.3787222,43.6214167 84.5257222,43.73225 C84.6727222,43.8430833 84.8407222,43.92475 85.0297222,43.97725 C85.2187222,44.02975 85.4345555,44.056 85.6772222,44.056 Z" id="+3" fill="#FF9000" fill-rule="nonzero"></path>
            <path d="M30.254,42.3095 L30.254,41.4345 L28.364,41.4345 L28.364,42.3095 L30.254,42.3095 Z M34.9187222,44 L34.9187222,43.216 L34.0787222,43.216 L34.0787222,38.897 L33.1827222,38.897 L31.5937222,40.2305 L31.9367222,40.6855 C31.9530555,40.7088333 31.9787222,40.7315833 32.0137222,40.75375 C32.0487222,40.7759167 32.0883889,40.7910833 32.1327222,40.79925 C32.1770555,40.8074167 32.2243055,40.8074167 32.2744722,40.79925 C32.3246389,40.7910833 32.3753889,40.7671667 32.4267222,40.7275 L32.4267222,40.7275 L33.0077222,40.2445 C33.0030555,40.3121667 32.9995555,40.37925 32.9972222,40.44575 C32.9948889,40.51225 32.9937222,40.5781667 32.9937222,40.6435 L32.9937222,40.6435 L32.9937222,43.216 L32.0137222,43.216 L32.0137222,44 L34.9187222,44 Z" id="-1" fill="#1D1D1D" fill-rule="nonzero"></path>
            <path d="M45.023,44.056 C45.2936667,44.056 45.5450833,44.0035 45.77725,43.8985 C46.0094167,43.7935 46.2100833,43.6336667 46.37925,43.419 C46.5484167,43.2043333 46.6808333,42.9336667 46.7765,42.607 C46.8721667,42.2803333 46.92,41.8941667 46.92,41.4485 C46.92,41.0028333 46.8721667,40.6166667 46.7765,40.29 C46.6808333,39.9633333 46.5484167,39.6926667 46.37925,39.478 C46.2100833,39.2633333 46.0094167,39.1040833 45.77725,39.00025 C45.5450833,38.8964167 45.2936667,38.8445 45.023,38.8445 C44.7523333,38.8445 44.5020833,38.8964167 44.27225,39.00025 C44.0424167,39.1040833 43.8435,39.2633333 43.6755,39.478 C43.5075,39.6926667 43.37625,39.9633333 43.28175,40.29 C43.18725,40.6166667 43.14,41.0028333 43.14,41.4485 C43.14,41.8941667 43.18725,42.2803333 43.28175,42.607 C43.37625,42.9336667 43.5075,43.2043333 43.6755,43.419 C43.8435,43.6336667 44.0424167,43.7935 44.27225,43.8985 C44.5020833,44.0035 44.7523333,44.056 45.023,44.056 Z M45.023,43.1845 C44.9273333,43.1845 44.8334167,43.1605833 44.74125,43.11275 C44.6490833,43.0649167 44.5674167,42.97625 44.49625,42.84675 C44.4250833,42.71725 44.3679167,42.5405 44.32475,42.3165 C44.2815833,42.0925 44.26,41.8031667 44.26,41.4485 C44.26,41.0961667 44.2815833,40.8074167 44.32475,40.58225 C44.3679167,40.3570833 44.4250833,40.1803333 44.49625,40.052 C44.5674167,39.9236667 44.6490833,39.8355833 44.74125,39.78775 C44.8334167,39.7399167 44.9273333,39.716 45.023,39.716 C45.1186667,39.716 45.2131667,39.7399167 45.3065,39.78775 C45.3998333,39.8355833 45.48325,39.9236667 45.55675,40.052 C45.63025,40.1803333 45.6891667,40.3570833 45.7335,40.58225 C45.7778333,40.8074167 45.8,41.0961667 45.8,41.4485 C45.8,41.8031667 45.7778333,42.0925 45.7335,42.3165 C45.6891667,42.5405 45.63025,42.71725 45.55675,42.84675 C45.48325,42.97625 45.3998333,43.0649167 45.3065,43.11275 C45.2131667,43.1605833 45.1186667,43.1845 45.023,43.1845 Z" id="0" fill="#FF9000" fill-rule="nonzero"></path>
            <path d="M56.4675,43.4295 L56.4675,42.0365 L57.7625,42.0365 L57.7625,41.2595 L56.4675,41.2595 L56.4675,39.8735 L55.5855,39.8735 L55.5855,41.2595 L54.2975,41.2595 L54.2975,42.0365 L55.5855,42.0365 L55.5855,43.4295 L56.4675,43.4295 Z M62.3607222,44 L62.3607222,43.216 L61.5207222,43.216 L61.5207222,38.897 L60.6247222,38.897 L59.0357222,40.2305 L59.3787222,40.6855 C59.3950555,40.7088333 59.4207222,40.7315833 59.4557222,40.75375 C59.4907222,40.7759167 59.5303889,40.7910833 59.5747222,40.79925 C59.6190555,40.8074167 59.6663055,40.8074167 59.7164722,40.79925 C59.7666389,40.7910833 59.8173889,40.7671667 59.8687222,40.7275 L59.8687222,40.7275 L60.4497222,40.2445 C60.4450555,40.3121667 60.4415555,40.37925 60.4392222,40.44575 C60.4368889,40.51225 60.4357222,40.5781667 60.4357222,40.6435 L60.4357222,40.6435 L60.4357222,43.216 L59.4557222,43.216 L59.4557222,44 L62.3607222,44 Z" id="+1" fill="#FF9000" fill-rule="nonzero"></path>
            <path d="M5.254,60.3095 L5.254,59.4345 L3.364,59.4345 L3.364,60.3095 L5.254,60.3095 Z M8.2352222,62.056 C8.47088887,62.056 8.6972222,62.02275 8.9142222,61.95625 C9.1312222,61.88975 9.3219722,61.79 9.4864722,61.657 C9.6509722,61.524 9.7822222,61.3571667 9.8802222,61.1565 C9.9782222,60.9558333 10.0272222,60.7201667 10.0272222,60.4495 C10.0272222,59.8778333 9.74488887,59.4928333 9.1802222,59.2945 C9.30155553,59.2525 9.4094722,59.2005833 9.5039722,59.13875 C9.5984722,59.0769167 9.67780553,59.0010833 9.7419722,58.91125 C9.80613887,58.8214167 9.85455553,58.71525 9.8872222,58.59275 C9.91988887,58.47025 9.9362222,58.3285 9.9362222,58.1675 C9.9362222,57.9901667 9.9012222,57.8215833 9.8312222,57.66175 C9.7612222,57.5019167 9.65855553,57.3613333 9.5232222,57.24 C9.38788887,57.1186667 9.2222222,57.0224167 9.0262222,56.95125 C8.8302222,56.8800833 8.6062222,56.8445 8.3542222,56.8445 C8.12088887,56.8445 7.9027222,56.8754167 7.6997222,56.93725 C7.4967222,56.9990833 7.3164722,57.093 7.1589722,57.219 C7.0014722,57.345 6.86963887,57.5025 6.7634722,57.6915 C6.65730553,57.8805 6.58555553,58.1021667 6.5482222,58.3565 L6.5482222,58.3565 L7.1222222,58.458 C7.2692222,58.4813333 7.38238887,58.472 7.4617222,58.43 C7.54105553,58.388 7.6052222,58.3028333 7.6542222,58.1745 C7.6962222,58.0485 7.77263887,57.9429167 7.8834722,57.85775 C7.99430553,57.7725833 8.1302222,57.73 8.2912222,57.73 C8.48955553,57.73 8.63713887,57.78425 8.7339722,57.89275 C8.83080553,58.00125 8.8792222,58.1558333 8.8792222,58.3565 C8.8792222,58.4545 8.86755553,58.5443333 8.8442222,58.626 C8.82088887,58.7076667 8.77363887,58.7770833 8.7024722,58.83425 C8.63130553,58.8914167 8.53038887,58.9363333 8.3997222,58.969 C8.26905553,59.0016667 8.09755553,59.018 7.8852222,59.018 L7.8852222,59.018 L7.8852222,59.767 C8.1372222,59.767 8.33380553,59.7839167 8.4749722,59.81775 C8.61613887,59.8515833 8.7217222,59.9 8.7917222,59.963 C8.8617222,60.026 8.90430553,60.10125 8.9194722,60.18875 C8.93463887,60.27625 8.9422222,60.3748333 8.9422222,60.4845 C8.9422222,60.5685 8.92705553,60.6513333 8.8967222,60.733 C8.86638887,60.8146667 8.8214722,60.8875833 8.7619722,60.95175 C8.7024722,61.0159167 8.62780553,61.0684167 8.5379722,61.10925 C8.44813887,61.1500833 8.34255553,61.1705 8.2212222,61.1705 C8.06255553,61.1705 7.92430553,61.12675 7.8064722,61.03925 C7.68863887,60.95175 7.5772222,60.8111667 7.4722222,60.6175 C7.42555553,60.5335 7.34855553,60.4798333 7.2412222,60.4565 C7.13388887,60.4331667 7.0172222,60.446 6.8912222,60.495 L6.8912222,60.495 L6.4082222,60.691 C6.48988887,60.929 6.58613887,61.1343333 6.6969722,61.307 C6.80780553,61.4796667 6.9367222,61.6214167 7.0837222,61.73225 C7.2307222,61.8430833 7.3987222,61.92475 7.5877222,61.97725 C7.7767222,62.02975 7.99255553,62.056 8.2352222,62.056 Z" id="-3" fill="#FF9000" fill-rule="nonzero"></path>
            <path d="M18.254,60.3095 L18.254,59.4345 L16.364,59.4345 L16.364,60.3095 L18.254,60.3095 Z M23.0342222,62 L23.0342222,61.37 C23.0342222,61.265 23.0003889,61.1804167 22.9327222,61.11625 C22.8650555,61.0520833 22.7728889,61.02 22.6562222,61.02 L22.6562222,61.02 L21.7042222,61.02 C21.5968889,61.02 21.4802222,61.0305 21.3542222,61.0515 C21.2282222,61.0725 21.1010555,61.1028333 20.9727222,61.1425 L20.9727222,61.1425 L21.9702222,60.1205 C22.1055555,59.9828333 22.2333055,59.8469167 22.3534722,59.71275 C22.4736389,59.5785833 22.5792222,59.43975 22.6702222,59.29625 C22.7612222,59.15275 22.8329722,59.0016667 22.8854722,58.843 C22.9379722,58.6843333 22.9642222,58.5116667 22.9642222,58.325 C22.9642222,58.108 22.9263055,57.9090833 22.8504722,57.72825 C22.7746389,57.5474167 22.6655555,57.3916667 22.5232222,57.261 C22.3808889,57.1303333 22.2088055,57.02825 22.0069722,56.95475 C21.8051389,56.88125 21.5782222,56.8445 21.3262222,56.8445 C21.0928889,56.8445 20.8747222,56.8754167 20.6717222,56.93725 C20.4687222,56.9990833 20.2884722,57.093 20.1309722,57.219 C19.9734722,57.345 19.8416389,57.5025 19.7354722,57.6915 C19.6293055,57.8805 19.5575555,58.1021667 19.5202222,58.3565 L19.5202222,58.3565 L20.0942222,58.458 C20.2412222,58.4813333 20.3543889,58.472 20.4337222,58.43 C20.5130555,58.388 20.5772222,58.3028333 20.6262222,58.1745 C20.6682222,58.0485 20.7446389,57.9429167 20.8554722,57.85775 C20.9663055,57.7725833 21.1022222,57.73 21.2632222,57.73 C21.4615555,57.73 21.6091389,57.78425 21.7059722,57.89275 C21.8028055,58.00125 21.8512222,58.157 21.8512222,58.36 C21.8512222,58.4836667 21.8360555,58.6009167 21.8057222,58.71175 C21.7753889,58.8225833 21.7298889,58.9334167 21.6692222,59.04425 C21.6085555,59.1550833 21.5315555,59.2676667 21.4382222,59.382 C21.3448889,59.4963333 21.2352222,59.6165 21.1092222,59.7425 L21.1092222,59.7425 L19.6392222,61.223 C19.5692222,61.286 19.5202222,61.356 19.4922222,61.433 C19.4642222,61.51 19.4502222,61.5823333 19.4502222,61.65 L19.4502222,61.65 L19.4502222,62 L23.0342222,62 Z" id="-2" fill="#FF9000" fill-rule="nonzero"></path>
            <path d="M69.4675,61.4295 L69.4675,60.0365 L70.7625,60.0365 L70.7625,59.2595 L69.4675,59.2595 L69.4675,57.8735 L68.5855,57.8735 L68.5855,59.2595 L67.2975,59.2595 L67.2975,60.0365 L68.5855,60.0365 L68.5855,61.4295 L69.4675,61.4295 Z M75.4762222,62 L75.4762222,61.37 C75.4762222,61.265 75.4423889,61.1804167 75.3747222,61.11625 C75.3070555,61.0520833 75.2148889,61.02 75.0982222,61.02 L75.0982222,61.02 L74.1462222,61.02 C74.0388889,61.02 73.9222222,61.0305 73.7962222,61.0515 C73.6702222,61.0725 73.5430555,61.1028333 73.4147222,61.1425 L73.4147222,61.1425 L74.4122222,60.1205 C74.5475555,59.9828333 74.6753055,59.8469167 74.7954722,59.71275 C74.9156389,59.5785833 75.0212222,59.43975 75.1122222,59.29625 C75.2032222,59.15275 75.2749722,59.0016667 75.3274722,58.843 C75.3799722,58.6843333 75.4062222,58.5116667 75.4062222,58.325 C75.4062222,58.108 75.3683055,57.9090833 75.2924722,57.72825 C75.2166389,57.5474167 75.1075555,57.3916667 74.9652222,57.261 C74.8228889,57.1303333 74.6508055,57.02825 74.4489722,56.95475 C74.2471389,56.88125 74.0202222,56.8445 73.7682222,56.8445 C73.5348889,56.8445 73.3167222,56.8754167 73.1137222,56.93725 C72.9107222,56.9990833 72.7304722,57.093 72.5729722,57.219 C72.4154722,57.345 72.2836389,57.5025 72.1774722,57.6915 C72.0713055,57.8805 71.9995555,58.1021667 71.9622222,58.3565 L71.9622222,58.3565 L72.5362222,58.458 C72.6832222,58.4813333 72.7963889,58.472 72.8757222,58.43 C72.9550555,58.388 73.0192222,58.3028333 73.0682222,58.1745 C73.1102222,58.0485 73.1866389,57.9429167 73.2974722,57.85775 C73.4083055,57.7725833 73.5442222,57.73 73.7052222,57.73 C73.9035555,57.73 74.0511389,57.78425 74.1479722,57.89275 C74.2448055,58.00125 74.2932222,58.157 74.2932222,58.36 C74.2932222,58.4836667 74.2780555,58.6009167 74.2477222,58.71175 C74.2173889,58.8225833 74.1718889,58.9334167 74.1112222,59.04425 C74.0505555,59.1550833 73.9735555,59.2676667 73.8802222,59.382 C73.7868889,59.4963333 73.6772222,59.6165 73.5512222,59.7425 L73.5512222,59.7425 L72.0812222,61.223 C72.0112222,61.286 71.9622222,61.356 71.9342222,61.433 C71.9062222,61.51 71.8922222,61.5823333 71.8922222,61.65 L71.8922222,61.65 L71.8922222,62 L75.4762222,62 Z" id="+2" fill="#FF9000" fill-rule="nonzero"></path>
            <path d="M81.4675,61.4295 L81.4675,60.0365 L82.7625,60.0365 L82.7625,59.2595 L81.4675,59.2595 L81.4675,57.8735 L80.5855,57.8735 L80.5855,59.2595 L79.2975,59.2595 L79.2975,60.0365 L80.5855,60.0365 L80.5855,61.4295 L81.4675,61.4295 Z M85.6772222,62.056 C85.9128889,62.056 86.1392222,62.02275 86.3562222,61.95625 C86.5732222,61.88975 86.7639722,61.79 86.9284722,61.657 C87.0929722,61.524 87.2242222,61.3571667 87.3222222,61.1565 C87.4202222,60.9558333 87.4692222,60.7201667 87.4692222,60.4495 C87.4692222,59.8778333 87.1868889,59.4928333 86.6222222,59.2945 C86.7435555,59.2525 86.8514722,59.2005833 86.9459722,59.13875 C87.0404722,59.0769167 87.1198055,59.0010833 87.1839722,58.91125 C87.2481389,58.8214167 87.2965555,58.71525 87.3292222,58.59275 C87.3618889,58.47025 87.3782222,58.3285 87.3782222,58.1675 C87.3782222,57.9901667 87.3432222,57.8215833 87.2732222,57.66175 C87.2032222,57.5019167 87.1005555,57.3613333 86.9652222,57.24 C86.8298889,57.1186667 86.6642222,57.0224167 86.4682222,56.95125 C86.2722222,56.8800833 86.0482222,56.8445 85.7962222,56.8445 C85.5628889,56.8445 85.3447222,56.8754167 85.1417222,56.93725 C84.9387222,56.9990833 84.7584722,57.093 84.6009722,57.219 C84.4434722,57.345 84.3116389,57.5025 84.2054722,57.6915 C84.0993055,57.8805 84.0275555,58.1021667 83.9902222,58.3565 L83.9902222,58.3565 L84.5642222,58.458 C84.7112222,58.4813333 84.8243889,58.472 84.9037222,58.43 C84.9830555,58.388 85.0472222,58.3028333 85.0962222,58.1745 C85.1382222,58.0485 85.2146389,57.9429167 85.3254722,57.85775 C85.4363055,57.7725833 85.5722222,57.73 85.7332222,57.73 C85.9315555,57.73 86.0791389,57.78425 86.1759722,57.89275 C86.2728055,58.00125 86.3212222,58.1558333 86.3212222,58.3565 C86.3212222,58.4545 86.3095555,58.5443333 86.2862222,58.626 C86.2628889,58.7076667 86.2156389,58.7770833 86.1444722,58.83425 C86.0733055,58.8914167 85.9723889,58.9363333 85.8417222,58.969 C85.7110555,59.0016667 85.5395555,59.018 85.3272222,59.018 L85.3272222,59.018 L85.3272222,59.767 C85.5792222,59.767 85.7758055,59.7839167 85.9169722,59.81775 C86.0581389,59.8515833 86.1637222,59.9 86.2337222,59.963 C86.3037222,60.026 86.3463055,60.10125 86.3614722,60.18875 C86.3766389,60.27625 86.3842222,60.3748333 86.3842222,60.4845 C86.3842222,60.5685 86.3690555,60.6513333 86.3387222,60.733 C86.3083889,60.8146667 86.2634722,60.8875833 86.2039722,60.95175 C86.1444722,61.0159167 86.0698055,61.0684167 85.9799722,61.10925 C85.8901389,61.1500833 85.7845555,61.1705 85.6632222,61.1705 C85.5045555,61.1705 85.3663055,61.12675 85.2484722,61.03925 C85.1306389,60.95175 85.0192222,60.8111667 84.9142222,60.6175 C84.8675555,60.5335 84.7905555,60.4798333 84.6832222,60.4565 C84.5758889,60.4331667 84.4592222,60.446 84.3332222,60.495 L84.3332222,60.495 L83.8502222,60.691 C83.9318889,60.929 84.0281389,61.1343333 84.1389722,61.307 C84.2498055,61.4796667 84.3787222,61.6214167 84.5257222,61.73225 C84.6727222,61.8430833 84.8407222,61.92475 85.0297222,61.97725 C85.2187222,62.02975 85.4345555,62.056 85.6772222,62.056 Z" id="+3" fill="#FF9000" fill-rule="nonzero"></path>
            <path d="M30.254,60.3095 L30.254,59.4345 L28.364,59.4345 L28.364,60.3095 L30.254,60.3095 Z M34.9187222,62 L34.9187222,61.216 L34.0787222,61.216 L34.0787222,56.897 L33.1827222,56.897 L31.5937222,58.2305 L31.9367222,58.6855 C31.9530555,58.7088333 31.9787222,58.7315833 32.0137222,58.75375 C32.0487222,58.7759167 32.0883889,58.7910833 32.1327222,58.79925 C32.1770555,58.8074167 32.2243055,58.8074167 32.2744722,58.79925 C32.3246389,58.7910833 32.3753889,58.7671667 32.4267222,58.7275 L32.4267222,58.7275 L33.0077222,58.2445 C33.0030555,58.3121667 32.9995555,58.37925 32.9972222,58.44575 C32.9948889,58.51225 32.9937222,58.5781667 32.9937222,58.6435 L32.9937222,58.6435 L32.9937222,61.216 L32.0137222,61.216 L32.0137222,62 L34.9187222,62 Z" id="-1" fill="#FF9000" fill-rule="nonzero"></path>
            <path d="M45.023,62.056 C45.2936667,62.056 45.5450833,62.0035 45.77725,61.8985 C46.0094167,61.7935 46.2100833,61.6336667 46.37925,61.419 C46.5484167,61.2043333 46.6808333,60.9336667 46.7765,60.607 C46.8721667,60.2803333 46.92,59.8941667 46.92,59.4485 C46.92,59.0028333 46.8721667,58.6166667 46.7765,58.29 C46.6808333,57.9633333 46.5484167,57.6926667 46.37925,57.478 C46.2100833,57.2633333 46.0094167,57.1040833 45.77725,57.00025 C45.5450833,56.8964167 45.2936667,56.8445 45.023,56.8445 C44.7523333,56.8445 44.5020833,56.8964167 44.27225,57.00025 C44.0424167,57.1040833 43.8435,57.2633333 43.6755,57.478 C43.5075,57.6926667 43.37625,57.9633333 43.28175,58.29 C43.18725,58.6166667 43.14,59.0028333 43.14,59.4485 C43.14,59.8941667 43.18725,60.2803333 43.28175,60.607 C43.37625,60.9336667 43.5075,61.2043333 43.6755,61.419 C43.8435,61.6336667 44.0424167,61.7935 44.27225,61.8985 C44.5020833,62.0035 44.7523333,62.056 45.023,62.056 Z M45.023,61.1845 C44.9273333,61.1845 44.8334167,61.1605833 44.74125,61.11275 C44.6490833,61.0649167 44.5674167,60.97625 44.49625,60.84675 C44.4250833,60.71725 44.3679167,60.5405 44.32475,60.3165 C44.2815833,60.0925 44.26,59.8031667 44.26,59.4485 C44.26,59.0961667 44.2815833,58.8074167 44.32475,58.58225 C44.3679167,58.3570833 44.4250833,58.1803333 44.49625,58.052 C44.5674167,57.9236667 44.6490833,57.8355833 44.74125,57.78775 C44.8334167,57.7399167 44.9273333,57.716 45.023,57.716 C45.1186667,57.716 45.2131667,57.7399167 45.3065,57.78775 C45.3998333,57.8355833 45.48325,57.9236667 45.55675,58.052 C45.63025,58.1803333 45.6891667,58.3570833 45.7335,58.58225 C45.7778333,58.8074167 45.8,59.0961667 45.8,59.4485 C45.8,59.8031667 45.7778333,60.0925 45.7335,60.3165 C45.6891667,60.5405 45.63025,60.71725 45.55675,60.84675 C45.48325,60.97625 45.3998333,61.0649167 45.3065,61.11275 C45.2131667,61.1605833 45.1186667,61.1845 45.023,61.1845 Z" id="0" fill="#1D1D1D" fill-rule="nonzero"></path>
            <path d="M56.4675,61.4295 L56.4675,60.0365 L57.7625,60.0365 L57.7625,59.2595 L56.4675,59.2595 L56.4675,57.8735 L55.5855,57.8735 L55.5855,59.2595 L54.2975,59.2595 L54.2975,60.0365 L55.5855,60.0365 L55.5855,61.4295 L56.4675,61.4295 Z M62.3607222,62 L62.3607222,61.216 L61.5207222,61.216 L61.5207222,56.897 L60.6247222,56.897 L59.0357222,58.2305 L59.3787222,58.6855 C59.3950555,58.7088333 59.4207222,58.7315833 59.4557222,58.75375 C59.4907222,58.7759167 59.5303889,58.7910833 59.5747222,58.79925 C59.6190555,58.8074167 59.6663055,58.8074167 59.7164722,58.79925 C59.7666389,58.7910833 59.8173889,58.7671667 59.8687222,58.7275 L59.8687222,58.7275 L60.4497222,58.2445 C60.4450555,58.3121667 60.4415555,58.37925 60.4392222,58.44575 C60.4368889,58.51225 60.4357222,58.5781667 60.4357222,58.6435 L60.4357222,58.6435 L60.4357222,61.216 L59.4557222,61.216 L59.4557222,62 L62.3607222,62 Z" id="+1" fill="#FF9000" fill-rule="nonzero"></path>
            <path d="M5.254,78.3095 L5.254,77.4345 L3.364,77.4345 L3.364,78.3095 L5.254,78.3095 Z M8.2352222,80.056 C8.47088887,80.056 8.6972222,80.02275 8.9142222,79.95625 C9.1312222,79.88975 9.3219722,79.79 9.4864722,79.657 C9.6509722,79.524 9.7822222,79.3571667 9.8802222,79.1565 C9.9782222,78.9558333 10.0272222,78.7201667 10.0272222,78.4495 C10.0272222,77.8778333 9.74488887,77.4928333 9.1802222,77.2945 C9.30155553,77.2525 9.4094722,77.2005833 9.5039722,77.13875 C9.5984722,77.0769167 9.67780553,77.0010833 9.7419722,76.91125 C9.80613887,76.8214167 9.85455553,76.71525 9.8872222,76.59275 C9.91988887,76.47025 9.9362222,76.3285 9.9362222,76.1675 C9.9362222,75.9901667 9.9012222,75.8215833 9.8312222,75.66175 C9.7612222,75.5019167 9.65855553,75.3613333 9.5232222,75.24 C9.38788887,75.1186667 9.2222222,75.0224167 9.0262222,74.95125 C8.8302222,74.8800833 8.6062222,74.8445 8.3542222,74.8445 C8.12088887,74.8445 7.9027222,74.8754167 7.6997222,74.93725 C7.4967222,74.9990833 7.3164722,75.093 7.1589722,75.219 C7.0014722,75.345 6.86963887,75.5025 6.7634722,75.6915 C6.65730553,75.8805 6.58555553,76.1021667 6.5482222,76.3565 L6.5482222,76.3565 L7.1222222,76.458 C7.2692222,76.4813333 7.38238887,76.472 7.4617222,76.43 C7.54105553,76.388 7.6052222,76.3028333 7.6542222,76.1745 C7.6962222,76.0485 7.77263887,75.9429167 7.8834722,75.85775 C7.99430553,75.7725833 8.1302222,75.73 8.2912222,75.73 C8.48955553,75.73 8.63713887,75.78425 8.7339722,75.89275 C8.83080553,76.00125 8.8792222,76.1558333 8.8792222,76.3565 C8.8792222,76.4545 8.86755553,76.5443333 8.8442222,76.626 C8.82088887,76.7076667 8.77363887,76.7770833 8.7024722,76.83425 C8.63130553,76.8914167 8.53038887,76.9363333 8.3997222,76.969 C8.26905553,77.0016667 8.09755553,77.018 7.8852222,77.018 L7.8852222,77.018 L7.8852222,77.767 C8.1372222,77.767 8.33380553,77.7839167 8.4749722,77.81775 C8.61613887,77.8515833 8.7217222,77.9 8.7917222,77.963 C8.8617222,78.026 8.90430553,78.10125 8.9194722,78.18875 C8.93463887,78.27625 8.9422222,78.3748333 8.9422222,78.4845 C8.9422222,78.5685 8.92705553,78.6513333 8.8967222,78.733 C8.86638887,78.8146667 8.8214722,78.8875833 8.7619722,78.95175 C8.7024722,79.0159167 8.62780553,79.0684167 8.5379722,79.10925 C8.44813887,79.1500833 8.34255553,79.1705 8.2212222,79.1705 C8.06255553,79.1705 7.92430553,79.12675 7.8064722,79.03925 C7.68863887,78.95175 7.5772222,78.8111667 7.4722222,78.6175 C7.42555553,78.5335 7.34855553,78.4798333 7.2412222,78.4565 C7.13388887,78.4331667 7.0172222,78.446 6.8912222,78.495 L6.8912222,78.495 L6.4082222,78.691 C6.48988887,78.929 6.58613887,79.1343333 6.6969722,79.307 C6.80780553,79.4796667 6.9367222,79.6214167 7.0837222,79.73225 C7.2307222,79.8430833 7.3987222,79.92475 7.5877222,79.97725 C7.7767222,80.02975 7.99255553,80.056 8.2352222,80.056 Z" id="-3" fill="#FF9000" fill-rule="nonzero"></path>
            <path d="M18.254,78.3095 L18.254,77.4345 L16.364,77.4345 L16.364,78.3095 L18.254,78.3095 Z M23.0342222,80 L23.0342222,79.37 C23.0342222,79.265 23.0003889,79.1804167 22.9327222,79.11625 C22.8650555,79.0520833 22.7728889,79.02 22.6562222,79.02 L22.6562222,79.02 L21.7042222,79.02 C21.5968889,79.02 21.4802222,79.0305 21.3542222,79.0515 C21.2282222,79.0725 21.1010555,79.1028333 20.9727222,79.1425 L20.9727222,79.1425 L21.9702222,78.1205 C22.1055555,77.9828333 22.2333055,77.8469167 22.3534722,77.71275 C22.4736389,77.5785833 22.5792222,77.43975 22.6702222,77.29625 C22.7612222,77.15275 22.8329722,77.0016667 22.8854722,76.843 C22.9379722,76.6843333 22.9642222,76.5116667 22.9642222,76.325 C22.9642222,76.108 22.9263055,75.9090833 22.8504722,75.72825 C22.7746389,75.5474167 22.6655555,75.3916667 22.5232222,75.261 C22.3808889,75.1303333 22.2088055,75.02825 22.0069722,74.95475 C21.8051389,74.88125 21.5782222,74.8445 21.3262222,74.8445 C21.0928889,74.8445 20.8747222,74.8754167 20.6717222,74.93725 C20.4687222,74.9990833 20.2884722,75.093 20.1309722,75.219 C19.9734722,75.345 19.8416389,75.5025 19.7354722,75.6915 C19.6293055,75.8805 19.5575555,76.1021667 19.5202222,76.3565 L19.5202222,76.3565 L20.0942222,76.458 C20.2412222,76.4813333 20.3543889,76.472 20.4337222,76.43 C20.5130555,76.388 20.5772222,76.3028333 20.6262222,76.1745 C20.6682222,76.0485 20.7446389,75.9429167 20.8554722,75.85775 C20.9663055,75.7725833 21.1022222,75.73 21.2632222,75.73 C21.4615555,75.73 21.6091389,75.78425 21.7059722,75.89275 C21.8028055,76.00125 21.8512222,76.157 21.8512222,76.36 C21.8512222,76.4836667 21.8360555,76.6009167 21.8057222,76.71175 C21.7753889,76.8225833 21.7298889,76.9334167 21.6692222,77.04425 C21.6085555,77.1550833 21.5315555,77.2676667 21.4382222,77.382 C21.3448889,77.4963333 21.2352222,77.6165 21.1092222,77.7425 L21.1092222,77.7425 L19.6392222,79.223 C19.5692222,79.286 19.5202222,79.356 19.4922222,79.433 C19.4642222,79.51 19.4502222,79.5823333 19.4502222,79.65 L19.4502222,79.65 L19.4502222,80 L23.0342222,80 Z" id="-2" fill="#FF9000" fill-rule="nonzero"></path>
            <path d="M69.4675,79.4295 L69.4675,78.0365 L70.7625,78.0365 L70.7625,77.2595 L69.4675,77.2595 L69.4675,75.8735 L68.5855,75.8735 L68.5855,77.2595 L67.2975,77.2595 L67.2975,78.0365 L68.5855,78.0365 L68.5855,79.4295 L69.4675,79.4295 Z M75.4762222,80 L75.4762222,79.37 C75.4762222,79.265 75.4423889,79.1804167 75.3747222,79.11625 C75.3070555,79.0520833 75.2148889,79.02 75.0982222,79.02 L75.0982222,79.02 L74.1462222,79.02 C74.0388889,79.02 73.9222222,79.0305 73.7962222,79.0515 C73.6702222,79.0725 73.5430555,79.1028333 73.4147222,79.1425 L73.4147222,79.1425 L74.4122222,78.1205 C74.5475555,77.9828333 74.6753055,77.8469167 74.7954722,77.71275 C74.9156389,77.5785833 75.0212222,77.43975 75.1122222,77.29625 C75.2032222,77.15275 75.2749722,77.0016667 75.3274722,76.843 C75.3799722,76.6843333 75.4062222,76.5116667 75.4062222,76.325 C75.4062222,76.108 75.3683055,75.9090833 75.2924722,75.72825 C75.2166389,75.5474167 75.1075555,75.3916667 74.9652222,75.261 C74.8228889,75.1303333 74.6508055,75.02825 74.4489722,74.95475 C74.2471389,74.88125 74.0202222,74.8445 73.7682222,74.8445 C73.5348889,74.8445 73.3167222,74.8754167 73.1137222,74.93725 C72.9107222,74.9990833 72.7304722,75.093 72.5729722,75.219 C72.4154722,75.345 72.2836389,75.5025 72.1774722,75.6915 C72.0713055,75.8805 71.9995555,76.1021667 71.9622222,76.3565 L71.9622222,76.3565 L72.5362222,76.458 C72.6832222,76.4813333 72.7963889,76.472 72.8757222,76.43 C72.9550555,76.388 73.0192222,76.3028333 73.0682222,76.1745 C73.1102222,76.0485 73.1866389,75.9429167 73.2974722,75.85775 C73.4083055,75.7725833 73.5442222,75.73 73.7052222,75.73 C73.9035555,75.73 74.0511389,75.78425 74.1479722,75.89275 C74.2448055,76.00125 74.2932222,76.157 74.2932222,76.36 C74.2932222,76.4836667 74.2780555,76.6009167 74.2477222,76.71175 C74.2173889,76.8225833 74.1718889,76.9334167 74.1112222,77.04425 C74.0505555,77.1550833 73.9735555,77.2676667 73.8802222,77.382 C73.7868889,77.4963333 73.6772222,77.6165 73.5512222,77.7425 L73.5512222,77.7425 L72.0812222,79.223 C72.0112222,79.286 71.9622222,79.356 71.9342222,79.433 C71.9062222,79.51 71.8922222,79.5823333 71.8922222,79.65 L71.8922222,79.65 L71.8922222,80 L75.4762222,80 Z" id="+2" fill="#FF9000" fill-rule="nonzero"></path>
            <path d="M81.4675,79.4295 L81.4675,78.0365 L82.7625,78.0365 L82.7625,77.2595 L81.4675,77.2595 L81.4675,75.8735 L80.5855,75.8735 L80.5855,77.2595 L79.2975,77.2595 L79.2975,78.0365 L80.5855,78.0365 L80.5855,79.4295 L81.4675,79.4295 Z M85.6772222,80.056 C85.9128889,80.056 86.1392222,80.02275 86.3562222,79.95625 C86.5732222,79.88975 86.7639722,79.79 86.9284722,79.657 C87.0929722,79.524 87.2242222,79.3571667 87.3222222,79.1565 C87.4202222,78.9558333 87.4692222,78.7201667 87.4692222,78.4495 C87.4692222,77.8778333 87.1868889,77.4928333 86.6222222,77.2945 C86.7435555,77.2525 86.8514722,77.2005833 86.9459722,77.13875 C87.0404722,77.0769167 87.1198055,77.0010833 87.1839722,76.91125 C87.2481389,76.8214167 87.2965555,76.71525 87.3292222,76.59275 C87.3618889,76.47025 87.3782222,76.3285 87.3782222,76.1675 C87.3782222,75.9901667 87.3432222,75.8215833 87.2732222,75.66175 C87.2032222,75.5019167 87.1005555,75.3613333 86.9652222,75.24 C86.8298889,75.1186667 86.6642222,75.0224167 86.4682222,74.95125 C86.2722222,74.8800833 86.0482222,74.8445 85.7962222,74.8445 C85.5628889,74.8445 85.3447222,74.8754167 85.1417222,74.93725 C84.9387222,74.9990833 84.7584722,75.093 84.6009722,75.219 C84.4434722,75.345 84.3116389,75.5025 84.2054722,75.6915 C84.0993055,75.8805 84.0275555,76.1021667 83.9902222,76.3565 L83.9902222,76.3565 L84.5642222,76.458 C84.7112222,76.4813333 84.8243889,76.472 84.9037222,76.43 C84.9830555,76.388 85.0472222,76.3028333 85.0962222,76.1745 C85.1382222,76.0485 85.2146389,75.9429167 85.3254722,75.85775 C85.4363055,75.7725833 85.5722222,75.73 85.7332222,75.73 C85.9315555,75.73 86.0791389,75.78425 86.1759722,75.89275 C86.2728055,76.00125 86.3212222,76.1558333 86.3212222,76.3565 C86.3212222,76.4545 86.3095555,76.5443333 86.2862222,76.626 C86.2628889,76.7076667 86.2156389,76.7770833 86.1444722,76.83425 C86.0733055,76.8914167 85.9723889,76.9363333 85.8417222,76.969 C85.7110555,77.0016667 85.5395555,77.018 85.3272222,77.018 L85.3272222,77.018 L85.3272222,77.767 C85.5792222,77.767 85.7758055,77.7839167 85.9169722,77.81775 C86.0581389,77.8515833 86.1637222,77.9 86.2337222,77.963 C86.3037222,78.026 86.3463055,78.10125 86.3614722,78.18875 C86.3766389,78.27625 86.3842222,78.3748333 86.3842222,78.4845 C86.3842222,78.5685 86.3690555,78.6513333 86.3387222,78.733 C86.3083889,78.8146667 86.2634722,78.8875833 86.2039722,78.95175 C86.1444722,79.0159167 86.0698055,79.0684167 85.9799722,79.10925 C85.8901389,79.1500833 85.7845555,79.1705 85.6632222,79.1705 C85.5045555,79.1705 85.3663055,79.12675 85.2484722,79.03925 C85.1306389,78.95175 85.0192222,78.8111667 84.9142222,78.6175 C84.8675555,78.5335 84.7905555,78.4798333 84.6832222,78.4565 C84.5758889,78.4331667 84.4592222,78.446 84.3332222,78.495 L84.3332222,78.495 L83.8502222,78.691 C83.9318889,78.929 84.0281389,79.1343333 84.1389722,79.307 C84.2498055,79.4796667 84.3787222,79.6214167 84.5257222,79.73225 C84.6727222,79.8430833 84.8407222,79.92475 85.0297222,79.97725 C85.2187222,80.02975 85.4345555,80.056 85.6772222,80.056 Z" id="+3" fill="#FF9000" fill-rule="nonzero"></path>
            <path d="M30.254,78.3095 L30.254,77.4345 L28.364,77.4345 L28.364,78.3095 L30.254,78.3095 Z M34.9187222,80 L34.9187222,79.216 L34.0787222,79.216 L34.0787222,74.897 L33.1827222,74.897 L31.5937222,76.2305 L31.9367222,76.6855 C31.9530555,76.7088333 31.9787222,76.7315833 32.0137222,76.75375 C32.0487222,76.7759167 32.0883889,76.7910833 32.1327222,76.79925 C32.1770555,76.8074167 32.2243055,76.8074167 32.2744722,76.79925 C32.3246389,76.7910833 32.3753889,76.7671667 32.4267222,76.7275 L32.4267222,76.7275 L33.0077222,76.2445 C33.0030555,76.3121667 32.9995555,76.37925 32.9972222,76.44575 C32.9948889,76.51225 32.9937222,76.5781667 32.9937222,76.6435 L32.9937222,76.6435 L32.9937222,79.216 L32.0137222,79.216 L32.0137222,80 L34.9187222,80 Z" id="-1" fill="#FF9000" fill-rule="nonzero"></path>
            <path d="M45.023,80.056 C45.2936667,80.056 45.5450833,80.0035 45.77725,79.8985 C46.0094167,79.7935 46.2100833,79.6336667 46.37925,79.419 C46.5484167,79.2043333 46.6808333,78.9336667 46.7765,78.607 C46.8721667,78.2803333 46.92,77.8941667 46.92,77.4485 C46.92,77.0028333 46.8721667,76.6166667 46.7765,76.29 C46.6808333,75.9633333 46.5484167,75.6926667 46.37925,75.478 C46.2100833,75.2633333 46.0094167,75.1040833 45.77725,75.00025 C45.5450833,74.8964167 45.2936667,74.8445 45.023,74.8445 C44.7523333,74.8445 44.5020833,74.8964167 44.27225,75.00025 C44.0424167,75.1040833 43.8435,75.2633333 43.6755,75.478 C43.5075,75.6926667 43.37625,75.9633333 43.28175,76.29 C43.18725,76.6166667 43.14,77.0028333 43.14,77.4485 C43.14,77.8941667 43.18725,78.2803333 43.28175,78.607 C43.37625,78.9336667 43.5075,79.2043333 43.6755,79.419 C43.8435,79.6336667 44.0424167,79.7935 44.27225,79.8985 C44.5020833,80.0035 44.7523333,80.056 45.023,80.056 Z M45.023,79.1845 C44.9273333,79.1845 44.8334167,79.1605833 44.74125,79.11275 C44.6490833,79.0649167 44.5674167,78.97625 44.49625,78.84675 C44.4250833,78.71725 44.3679167,78.5405 44.32475,78.3165 C44.2815833,78.0925 44.26,77.8031667 44.26,77.4485 C44.26,77.0961667 44.2815833,76.8074167 44.32475,76.58225 C44.3679167,76.3570833 44.4250833,76.1803333 44.49625,76.052 C44.5674167,75.9236667 44.6490833,75.8355833 44.74125,75.78775 C44.8334167,75.7399167 44.9273333,75.716 45.023,75.716 C45.1186667,75.716 45.2131667,75.7399167 45.3065,75.78775 C45.3998333,75.8355833 45.48325,75.9236667 45.55675,76.052 C45.63025,76.1803333 45.6891667,76.3570833 45.7335,76.58225 C45.7778333,76.8074167 45.8,77.0961667 45.8,77.4485 C45.8,77.8031667 45.7778333,78.0925 45.7335,78.3165 C45.6891667,78.5405 45.63025,78.71725 45.55675,78.84675 C45.48325,78.97625 45.3998333,79.0649167 45.3065,79.11275 C45.2131667,79.1605833 45.1186667,79.1845 45.023,79.1845 Z" id="0" fill="#FF9000" fill-rule="nonzero"></path>
            <path d="M56.4675,79.4295 L56.4675,78.0365 L57.7625,78.0365 L57.7625,77.2595 L56.4675,77.2595 L56.4675,75.8735 L55.5855,75.8735 L55.5855,77.2595 L54.2975,77.2595 L54.2975,78.0365 L55.5855,78.0365 L55.5855,79.4295 L56.4675,79.4295 Z M62.3607222,80 L62.3607222,79.216 L61.5207222,79.216 L61.5207222,74.897 L60.6247222,74.897 L59.0357222,76.2305 L59.3787222,76.6855 C59.3950555,76.7088333 59.4207222,76.7315833 59.4557222,76.75375 C59.4907222,76.7759167 59.5303889,76.7910833 59.5747222,76.79925 C59.6190555,76.8074167 59.6663055,76.8074167 59.7164722,76.79925 C59.7666389,76.7910833 59.8173889,76.7671667 59.8687222,76.7275 L59.8687222,76.7275 L60.4497222,76.2445 C60.4450555,76.3121667 60.4415555,76.37925 60.4392222,76.44575 C60.4368889,76.51225 60.4357222,76.5781667 60.4357222,76.6435 L60.4357222,76.6435 L60.4357222,79.216 L59.4557222,79.216 L59.4557222,80 L62.3607222,80 Z" id="+1" fill="#1D1D1D" fill-rule="nonzero"></path>
            <path d="M5.254,96.3095 L5.254,95.4345 L3.364,95.4345 L3.364,96.3095 L5.254,96.3095 Z M8.2352222,98.056 C8.47088887,98.056 8.6972222,98.02275 8.9142222,97.95625 C9.1312222,97.88975 9.3219722,97.79 9.4864722,97.657 C9.6509722,97.524 9.7822222,97.3571667 9.8802222,97.1565 C9.9782222,96.9558333 10.0272222,96.7201667 10.0272222,96.4495 C10.0272222,95.8778333 9.74488887,95.4928333 9.1802222,95.2945 C9.30155553,95.2525 9.4094722,95.2005833 9.5039722,95.13875 C9.5984722,95.0769167 9.67780553,95.0010833 9.7419722,94.91125 C9.80613887,94.8214167 9.85455553,94.71525 9.8872222,94.59275 C9.91988887,94.47025 9.9362222,94.3285 9.9362222,94.1675 C9.9362222,93.9901667 9.9012222,93.8215833 9.8312222,93.66175 C9.7612222,93.5019167 9.65855553,93.3613333 9.5232222,93.24 C9.38788887,93.1186667 9.2222222,93.0224167 9.0262222,92.95125 C8.8302222,92.8800833 8.6062222,92.8445 8.3542222,92.8445 C8.12088887,92.8445 7.9027222,92.8754167 7.6997222,92.93725 C7.4967222,92.9990833 7.3164722,93.093 7.1589722,93.219 C7.0014722,93.345 6.86963887,93.5025 6.7634722,93.6915 C6.65730553,93.8805 6.58555553,94.1021667 6.5482222,94.3565 L6.5482222,94.3565 L7.1222222,94.458 C7.2692222,94.4813333 7.38238887,94.472 7.4617222,94.43 C7.54105553,94.388 7.6052222,94.3028333 7.6542222,94.1745 C7.6962222,94.0485 7.77263887,93.9429167 7.8834722,93.85775 C7.99430553,93.7725833 8.1302222,93.73 8.2912222,93.73 C8.48955553,93.73 8.63713887,93.78425 8.7339722,93.89275 C8.83080553,94.00125 8.8792222,94.1558333 8.8792222,94.3565 C8.8792222,94.4545 8.86755553,94.5443333 8.8442222,94.626 C8.82088887,94.7076667 8.77363887,94.7770833 8.7024722,94.83425 C8.63130553,94.8914167 8.53038887,94.9363333 8.3997222,94.969 C8.26905553,95.0016667 8.09755553,95.018 7.8852222,95.018 L7.8852222,95.018 L7.8852222,95.767 C8.1372222,95.767 8.33380553,95.7839167 8.4749722,95.81775 C8.61613887,95.8515833 8.7217222,95.9 8.7917222,95.963 C8.8617222,96.026 8.90430553,96.10125 8.9194722,96.18875 C8.93463887,96.27625 8.9422222,96.3748333 8.9422222,96.4845 C8.9422222,96.5685 8.92705553,96.6513333 8.8967222,96.733 C8.86638887,96.8146667 8.8214722,96.8875833 8.7619722,96.95175 C8.7024722,97.0159167 8.62780553,97.0684167 8.5379722,97.10925 C8.44813887,97.1500833 8.34255553,97.1705 8.2212222,97.1705 C8.06255553,97.1705 7.92430553,97.12675 7.8064722,97.03925 C7.68863887,96.95175 7.5772222,96.8111667 7.4722222,96.6175 C7.42555553,96.5335 7.34855553,96.4798333 7.2412222,96.4565 C7.13388887,96.4331667 7.0172222,96.446 6.8912222,96.495 L6.8912222,96.495 L6.4082222,96.691 C6.48988887,96.929 6.58613887,97.1343333 6.6969722,97.307 C6.80780553,97.4796667 6.9367222,97.6214167 7.0837222,97.73225 C7.2307222,97.8430833 7.3987222,97.92475 7.5877222,97.97725 C7.7767222,98.02975 7.99255553,98.056 8.2352222,98.056 Z" id="-3" fill="#FF9000" fill-rule="nonzero"></path>
            <path d="M18.254,96.3095 L18.254,95.4345 L16.364,95.4345 L16.364,96.3095 L18.254,96.3095 Z M23.0342222,98 L23.0342222,97.37 C23.0342222,97.265 23.0003889,97.1804167 22.9327222,97.11625 C22.8650555,97.0520833 22.7728889,97.02 22.6562222,97.02 L22.6562222,97.02 L21.7042222,97.02 C21.5968889,97.02 21.4802222,97.0305 21.3542222,97.0515 C21.2282222,97.0725 21.1010555,97.1028333 20.9727222,97.1425 L20.9727222,97.1425 L21.9702222,96.1205 C22.1055555,95.9828333 22.2333055,95.8469167 22.3534722,95.71275 C22.4736389,95.5785833 22.5792222,95.43975 22.6702222,95.29625 C22.7612222,95.15275 22.8329722,95.0016667 22.8854722,94.843 C22.9379722,94.6843333 22.9642222,94.5116667 22.9642222,94.325 C22.9642222,94.108 22.9263055,93.9090833 22.8504722,93.72825 C22.7746389,93.5474167 22.6655555,93.3916667 22.5232222,93.261 C22.3808889,93.1303333 22.2088055,93.02825 22.0069722,92.95475 C21.8051389,92.88125 21.5782222,92.8445 21.3262222,92.8445 C21.0928889,92.8445 20.8747222,92.8754167 20.6717222,92.93725 C20.4687222,92.9990833 20.2884722,93.093 20.1309722,93.219 C19.9734722,93.345 19.8416389,93.5025 19.7354722,93.6915 C19.6293055,93.8805 19.5575555,94.1021667 19.5202222,94.3565 L19.5202222,94.3565 L20.0942222,94.458 C20.2412222,94.4813333 20.3543889,94.472 20.4337222,94.43 C20.5130555,94.388 20.5772222,94.3028333 20.6262222,94.1745 C20.6682222,94.0485 20.7446389,93.9429167 20.8554722,93.85775 C20.9663055,93.7725833 21.1022222,93.73 21.2632222,93.73 C21.4615555,93.73 21.6091389,93.78425 21.7059722,93.89275 C21.8028055,94.00125 21.8512222,94.157 21.8512222,94.36 C21.8512222,94.4836667 21.8360555,94.6009167 21.8057222,94.71175 C21.7753889,94.8225833 21.7298889,94.9334167 21.6692222,95.04425 C21.6085555,95.1550833 21.5315555,95.2676667 21.4382222,95.382 C21.3448889,95.4963333 21.2352222,95.6165 21.1092222,95.7425 L21.1092222,95.7425 L19.6392222,97.223 C19.5692222,97.286 19.5202222,97.356 19.4922222,97.433 C19.4642222,97.51 19.4502222,97.5823333 19.4502222,97.65 L19.4502222,97.65 L19.4502222,98 L23.0342222,98 Z" id="-2" fill="#FF9000" fill-rule="nonzero"></path>
            <path d="M69.4675,97.4295 L69.4675,96.0365 L70.7625,96.0365 L70.7625,95.2595 L69.4675,95.2595 L69.4675,93.8735 L68.5855,93.8735 L68.5855,95.2595 L67.2975,95.2595 L67.2975,96.0365 L68.5855,96.0365 L68.5855,97.4295 L69.4675,97.4295 Z M75.4762222,98 L75.4762222,97.37 C75.4762222,97.265 75.4423889,97.1804167 75.3747222,97.11625 C75.3070555,97.0520833 75.2148889,97.02 75.0982222,97.02 L75.0982222,97.02 L74.1462222,97.02 C74.0388889,97.02 73.9222222,97.0305 73.7962222,97.0515 C73.6702222,97.0725 73.5430555,97.1028333 73.4147222,97.1425 L73.4147222,97.1425 L74.4122222,96.1205 C74.5475555,95.9828333 74.6753055,95.8469167 74.7954722,95.71275 C74.9156389,95.5785833 75.0212222,95.43975 75.1122222,95.29625 C75.2032222,95.15275 75.2749722,95.0016667 75.3274722,94.843 C75.3799722,94.6843333 75.4062222,94.5116667 75.4062222,94.325 C75.4062222,94.108 75.3683055,93.9090833 75.2924722,93.72825 C75.2166389,93.5474167 75.1075555,93.3916667 74.9652222,93.261 C74.8228889,93.1303333 74.6508055,93.02825 74.4489722,92.95475 C74.2471389,92.88125 74.0202222,92.8445 73.7682222,92.8445 C73.5348889,92.8445 73.3167222,92.8754167 73.1137222,92.93725 C72.9107222,92.9990833 72.7304722,93.093 72.5729722,93.219 C72.4154722,93.345 72.2836389,93.5025 72.1774722,93.6915 C72.0713055,93.8805 71.9995555,94.1021667 71.9622222,94.3565 L71.9622222,94.3565 L72.5362222,94.458 C72.6832222,94.4813333 72.7963889,94.472 72.8757222,94.43 C72.9550555,94.388 73.0192222,94.3028333 73.0682222,94.1745 C73.1102222,94.0485 73.1866389,93.9429167 73.2974722,93.85775 C73.4083055,93.7725833 73.5442222,93.73 73.7052222,93.73 C73.9035555,93.73 74.0511389,93.78425 74.1479722,93.89275 C74.2448055,94.00125 74.2932222,94.157 74.2932222,94.36 C74.2932222,94.4836667 74.2780555,94.6009167 74.2477222,94.71175 C74.2173889,94.8225833 74.1718889,94.9334167 74.1112222,95.04425 C74.0505555,95.1550833 73.9735555,95.2676667 73.8802222,95.382 C73.7868889,95.4963333 73.6772222,95.6165 73.5512222,95.7425 L73.5512222,95.7425 L72.0812222,97.223 C72.0112222,97.286 71.9622222,97.356 71.9342222,97.433 C71.9062222,97.51 71.8922222,97.5823333 71.8922222,97.65 L71.8922222,97.65 L71.8922222,98 L75.4762222,98 Z" id="+2" fill="#1E1E1E" fill-rule="nonzero"></path>
            <path d="M81.4675,97.4295 L81.4675,96.0365 L82.7625,96.0365 L82.7625,95.2595 L81.4675,95.2595 L81.4675,93.8735 L80.5855,93.8735 L80.5855,95.2595 L79.2975,95.2595 L79.2975,96.0365 L80.5855,96.0365 L80.5855,97.4295 L81.4675,97.4295 Z M85.6772222,98.056 C85.9128889,98.056 86.1392222,98.02275 86.3562222,97.95625 C86.5732222,97.88975 86.7639722,97.79 86.9284722,97.657 C87.0929722,97.524 87.2242222,97.3571667 87.3222222,97.1565 C87.4202222,96.9558333 87.4692222,96.7201667 87.4692222,96.4495 C87.4692222,95.8778333 87.1868889,95.4928333 86.6222222,95.2945 C86.7435555,95.2525 86.8514722,95.2005833 86.9459722,95.13875 C87.0404722,95.0769167 87.1198055,95.0010833 87.1839722,94.91125 C87.2481389,94.8214167 87.2965555,94.71525 87.3292222,94.59275 C87.3618889,94.47025 87.3782222,94.3285 87.3782222,94.1675 C87.3782222,93.9901667 87.3432222,93.8215833 87.2732222,93.66175 C87.2032222,93.5019167 87.1005555,93.3613333 86.9652222,93.24 C86.8298889,93.1186667 86.6642222,93.0224167 86.4682222,92.95125 C86.2722222,92.8800833 86.0482222,92.8445 85.7962222,92.8445 C85.5628889,92.8445 85.3447222,92.8754167 85.1417222,92.93725 C84.9387222,92.9990833 84.7584722,93.093 84.6009722,93.219 C84.4434722,93.345 84.3116389,93.5025 84.2054722,93.6915 C84.0993055,93.8805 84.0275555,94.1021667 83.9902222,94.3565 L83.9902222,94.3565 L84.5642222,94.458 C84.7112222,94.4813333 84.8243889,94.472 84.9037222,94.43 C84.9830555,94.388 85.0472222,94.3028333 85.0962222,94.1745 C85.1382222,94.0485 85.2146389,93.9429167 85.3254722,93.85775 C85.4363055,93.7725833 85.5722222,93.73 85.7332222,93.73 C85.9315555,93.73 86.0791389,93.78425 86.1759722,93.89275 C86.2728055,94.00125 86.3212222,94.1558333 86.3212222,94.3565 C86.3212222,94.4545 86.3095555,94.5443333 86.2862222,94.626 C86.2628889,94.7076667 86.2156389,94.7770833 86.1444722,94.83425 C86.0733055,94.8914167 85.9723889,94.9363333 85.8417222,94.969 C85.7110555,95.0016667 85.5395555,95.018 85.3272222,95.018 L85.3272222,95.018 L85.3272222,95.767 C85.5792222,95.767 85.7758055,95.7839167 85.9169722,95.81775 C86.0581389,95.8515833 86.1637222,95.9 86.2337222,95.963 C86.3037222,96.026 86.3463055,96.10125 86.3614722,96.18875 C86.3766389,96.27625 86.3842222,96.3748333 86.3842222,96.4845 C86.3842222,96.5685 86.3690555,96.6513333 86.3387222,96.733 C86.3083889,96.8146667 86.2634722,96.8875833 86.2039722,96.95175 C86.1444722,97.0159167 86.0698055,97.0684167 85.9799722,97.10925 C85.8901389,97.1500833 85.7845555,97.1705 85.6632222,97.1705 C85.5045555,97.1705 85.3663055,97.12675 85.2484722,97.03925 C85.1306389,96.95175 85.0192222,96.8111667 84.9142222,96.6175 C84.8675555,96.5335 84.7905555,96.4798333 84.6832222,96.4565 C84.5758889,96.4331667 84.4592222,96.446 84.3332222,96.495 L84.3332222,96.495 L83.8502222,96.691 C83.9318889,96.929 84.0281389,97.1343333 84.1389722,97.307 C84.2498055,97.4796667 84.3787222,97.6214167 84.5257222,97.73225 C84.6727222,97.8430833 84.8407222,97.92475 85.0297222,97.97725 C85.2187222,98.02975 85.4345555,98.056 85.6772222,98.056 Z" id="+3" fill="#FF9000" fill-rule="nonzero"></path>
            <path d="M30.254,96.3095 L30.254,95.4345 L28.364,95.4345 L28.364,96.3095 L30.254,96.3095 Z M34.9187222,98 L34.9187222,97.216 L34.0787222,97.216 L34.0787222,92.897 L33.1827222,92.897 L31.5937222,94.2305 L31.9367222,94.6855 C31.9530555,94.7088333 31.9787222,94.7315833 32.0137222,94.75375 C32.0487222,94.7759167 32.0883889,94.7910833 32.1327222,94.79925 C32.1770555,94.8074167 32.2243055,94.8074167 32.2744722,94.79925 C32.3246389,94.7910833 32.3753889,94.7671667 32.4267222,94.7275 L32.4267222,94.7275 L33.0077222,94.2445 C33.0030555,94.3121667 32.9995555,94.37925 32.9972222,94.44575 C32.9948889,94.51225 32.9937222,94.5781667 32.9937222,94.6435 L32.9937222,94.6435 L32.9937222,97.216 L32.0137222,97.216 L32.0137222,98 L34.9187222,98 Z" id="-1" fill="#FF9000" fill-rule="nonzero"></path>
            <path d="M45.023,98.056 C45.2936667,98.056 45.5450833,98.0035 45.77725,97.8985 C46.0094167,97.7935 46.2100833,97.6336667 46.37925,97.419 C46.5484167,97.2043333 46.6808333,96.9336667 46.7765,96.607 C46.8721667,96.2803333 46.92,95.8941667 46.92,95.4485 C46.92,95.0028333 46.8721667,94.6166667 46.7765,94.29 C46.6808333,93.9633333 46.5484167,93.6926667 46.37925,93.478 C46.2100833,93.2633333 46.0094167,93.1040833 45.77725,93.00025 C45.5450833,92.8964167 45.2936667,92.8445 45.023,92.8445 C44.7523333,92.8445 44.5020833,92.8964167 44.27225,93.00025 C44.0424167,93.1040833 43.8435,93.2633333 43.6755,93.478 C43.5075,93.6926667 43.37625,93.9633333 43.28175,94.29 C43.18725,94.6166667 43.14,95.0028333 43.14,95.4485 C43.14,95.8941667 43.18725,96.2803333 43.28175,96.607 C43.37625,96.9336667 43.5075,97.2043333 43.6755,97.419 C43.8435,97.6336667 44.0424167,97.7935 44.27225,97.8985 C44.5020833,98.0035 44.7523333,98.056 45.023,98.056 Z M45.023,97.1845 C44.9273333,97.1845 44.8334167,97.1605833 44.74125,97.11275 C44.6490833,97.0649167 44.5674167,96.97625 44.49625,96.84675 C44.4250833,96.71725 44.3679167,96.5405 44.32475,96.3165 C44.2815833,96.0925 44.26,95.8031667 44.26,95.4485 C44.26,95.0961667 44.2815833,94.8074167 44.32475,94.58225 C44.3679167,94.3570833 44.4250833,94.1803333 44.49625,94.052 C44.5674167,93.9236667 44.6490833,93.8355833 44.74125,93.78775 C44.8334167,93.7399167 44.9273333,93.716 45.023,93.716 C45.1186667,93.716 45.2131667,93.7399167 45.3065,93.78775 C45.3998333,93.8355833 45.48325,93.9236667 45.55675,94.052 C45.63025,94.1803333 45.6891667,94.3570833 45.7335,94.58225 C45.7778333,94.8074167 45.8,95.0961667 45.8,95.4485 C45.8,95.8031667 45.7778333,96.0925 45.7335,96.3165 C45.6891667,96.5405 45.63025,96.71725 45.55675,96.84675 C45.48325,96.97625 45.3998333,97.0649167 45.3065,97.11275 C45.2131667,97.1605833 45.1186667,97.1845 45.023,97.1845 Z" id="0" fill="#FF9000" fill-rule="nonzero"></path>
            <path d="M56.4675,97.4295 L56.4675,96.0365 L57.7625,96.0365 L57.7625,95.2595 L56.4675,95.2595 L56.4675,93.8735 L55.5855,93.8735 L55.5855,95.2595 L54.2975,95.2595 L54.2975,96.0365 L55.5855,96.0365 L55.5855,97.4295 L56.4675,97.4295 Z M62.3607222,98 L62.3607222,97.216 L61.5207222,97.216 L61.5207222,92.897 L60.6247222,92.897 L59.0357222,94.2305 L59.3787222,94.6855 C59.3950555,94.7088333 59.4207222,94.7315833 59.4557222,94.75375 C59.4907222,94.7759167 59.5303889,94.7910833 59.5747222,94.79925 C59.6190555,94.8074167 59.6663055,94.8074167 59.7164722,94.79925 C59.7666389,94.7910833 59.8173889,94.7671667 59.8687222,94.7275 L59.8687222,94.7275 L60.4497222,94.2445 C60.4450555,94.3121667 60.4415555,94.37925 60.4392222,94.44575 C60.4368889,94.51225 60.4357222,94.5781667 60.4357222,94.6435 L60.4357222,94.6435 L60.4357222,97.216 L59.4557222,97.216 L59.4557222,98 L62.3607222,98 Z" id="+1" fill="#FF9000" fill-rule="nonzero"></path>
            <path d="M5.254,114.3095 L5.254,113.4345 L3.364,113.4345 L3.364,114.3095 L5.254,114.3095 Z M8.2352222,116.056 C8.47088887,116.056 8.6972222,116.02275 8.9142222,115.95625 C9.1312222,115.88975 9.3219722,115.79 9.4864722,115.657 C9.6509722,115.524 9.7822222,115.357167 9.8802222,115.1565 C9.9782222,114.955833 10.0272222,114.720167 10.0272222,114.4495 C10.0272222,113.877833 9.74488887,113.492833 9.1802222,113.2945 C9.30155553,113.2525 9.4094722,113.200583 9.5039722,113.13875 C9.5984722,113.076917 9.67780553,113.001083 9.7419722,112.91125 C9.80613887,112.821417 9.85455553,112.71525 9.8872222,112.59275 C9.91988887,112.47025 9.9362222,112.3285 9.9362222,112.1675 C9.9362222,111.990167 9.9012222,111.821583 9.8312222,111.66175 C9.7612222,111.501917 9.65855553,111.361333 9.5232222,111.24 C9.38788887,111.118667 9.2222222,111.022417 9.0262222,110.95125 C8.8302222,110.880083 8.6062222,110.8445 8.3542222,110.8445 C8.12088887,110.8445 7.9027222,110.875417 7.6997222,110.93725 C7.4967222,110.999083 7.3164722,111.093 7.1589722,111.219 C7.0014722,111.345 6.86963887,111.5025 6.7634722,111.6915 C6.65730553,111.8805 6.58555553,112.102167 6.5482222,112.3565 L6.5482222,112.3565 L7.1222222,112.458 C7.2692222,112.481333 7.38238887,112.472 7.4617222,112.43 C7.54105553,112.388 7.6052222,112.302833 7.6542222,112.1745 C7.6962222,112.0485 7.77263887,111.942917 7.8834722,111.85775 C7.99430553,111.772583 8.1302222,111.73 8.2912222,111.73 C8.48955553,111.73 8.63713887,111.78425 8.7339722,111.89275 C8.83080553,112.00125 8.8792222,112.155833 8.8792222,112.3565 C8.8792222,112.4545 8.86755553,112.544333 8.8442222,112.626 C8.82088887,112.707667 8.77363887,112.777083 8.7024722,112.83425 C8.63130553,112.891417 8.53038887,112.936333 8.3997222,112.969 C8.26905553,113.001667 8.09755553,113.018 7.8852222,113.018 L7.8852222,113.018 L7.8852222,113.767 C8.1372222,113.767 8.33380553,113.783917 8.4749722,113.81775 C8.61613887,113.851583 8.7217222,113.9 8.7917222,113.963 C8.8617222,114.026 8.90430553,114.10125 8.9194722,114.18875 C8.93463887,114.27625 8.9422222,114.374833 8.9422222,114.4845 C8.9422222,114.5685 8.92705553,114.651333 8.8967222,114.733 C8.86638887,114.814667 8.8214722,114.887583 8.7619722,114.95175 C8.7024722,115.015917 8.62780553,115.068417 8.5379722,115.10925 C8.44813887,115.150083 8.34255553,115.1705 8.2212222,115.1705 C8.06255553,115.1705 7.92430553,115.12675 7.8064722,115.03925 C7.68863887,114.95175 7.5772222,114.811167 7.4722222,114.6175 C7.42555553,114.5335 7.34855553,114.479833 7.2412222,114.4565 C7.13388887,114.433167 7.0172222,114.446 6.8912222,114.495 L6.8912222,114.495 L6.4082222,114.691 C6.48988887,114.929 6.58613887,115.134333 6.6969722,115.307 C6.80780553,115.479667 6.9367222,115.621417 7.0837222,115.73225 C7.2307222,115.843083 7.3987222,115.92475 7.5877222,115.97725 C7.7767222,116.02975 7.99255553,116.056 8.2352222,116.056 Z" id="-3" fill="#FF9000" fill-rule="nonzero"></path>
            <path d="M18.254,114.3095 L18.254,113.4345 L16.364,113.4345 L16.364,114.3095 L18.254,114.3095 Z M23.0342222,116 L23.0342222,115.37 C23.0342222,115.265 23.0003889,115.180417 22.9327222,115.11625 C22.8650555,115.052083 22.7728889,115.02 22.6562222,115.02 L22.6562222,115.02 L21.7042222,115.02 C21.5968889,115.02 21.4802222,115.0305 21.3542222,115.0515 C21.2282222,115.0725 21.1010555,115.102833 20.9727222,115.1425 L20.9727222,115.1425 L21.9702222,114.1205 C22.1055555,113.982833 22.2333055,113.846917 22.3534722,113.71275 C22.4736389,113.578583 22.5792222,113.43975 22.6702222,113.29625 C22.7612222,113.15275 22.8329722,113.001667 22.8854722,112.843 C22.9379722,112.684333 22.9642222,112.511667 22.9642222,112.325 C22.9642222,112.108 22.9263055,111.909083 22.8504722,111.72825 C22.7746389,111.547417 22.6655555,111.391667 22.5232222,111.261 C22.3808889,111.130333 22.2088055,111.02825 22.0069722,110.95475 C21.8051389,110.88125 21.5782222,110.8445 21.3262222,110.8445 C21.0928889,110.8445 20.8747222,110.875417 20.6717222,110.93725 C20.4687222,110.999083 20.2884722,111.093 20.1309722,111.219 C19.9734722,111.345 19.8416389,111.5025 19.7354722,111.6915 C19.6293055,111.8805 19.5575555,112.102167 19.5202222,112.3565 L19.5202222,112.3565 L20.0942222,112.458 C20.2412222,112.481333 20.3543889,112.472 20.4337222,112.43 C20.5130555,112.388 20.5772222,112.302833 20.6262222,112.1745 C20.6682222,112.0485 20.7446389,111.942917 20.8554722,111.85775 C20.9663055,111.772583 21.1022222,111.73 21.2632222,111.73 C21.4615555,111.73 21.6091389,111.78425 21.7059722,111.89275 C21.8028055,112.00125 21.8512222,112.157 21.8512222,112.36 C21.8512222,112.483667 21.8360555,112.600917 21.8057222,112.71175 C21.7753889,112.822583 21.7298889,112.933417 21.6692222,113.04425 C21.6085555,113.155083 21.5315555,113.267667 21.4382222,113.382 C21.3448889,113.496333 21.2352222,113.6165 21.1092222,113.7425 L21.1092222,113.7425 L19.6392222,115.223 C19.5692222,115.286 19.5202222,115.356 19.4922222,115.433 C19.4642222,115.51 19.4502222,115.582333 19.4502222,115.65 L19.4502222,115.65 L19.4502222,116 L23.0342222,116 Z" id="-2" fill="#FF9000" fill-rule="nonzero"></path>
            <path d="M69.4675,115.4295 L69.4675,114.0365 L70.7625,114.0365 L70.7625,113.2595 L69.4675,113.2595 L69.4675,111.8735 L68.5855,111.8735 L68.5855,113.2595 L67.2975,113.2595 L67.2975,114.0365 L68.5855,114.0365 L68.5855,115.4295 L69.4675,115.4295 Z M75.4762222,116 L75.4762222,115.37 C75.4762222,115.265 75.4423889,115.180417 75.3747222,115.11625 C75.3070555,115.052083 75.2148889,115.02 75.0982222,115.02 L75.0982222,115.02 L74.1462222,115.02 C74.0388889,115.02 73.9222222,115.0305 73.7962222,115.0515 C73.6702222,115.0725 73.5430555,115.102833 73.4147222,115.1425 L73.4147222,115.1425 L74.4122222,114.1205 C74.5475555,113.982833 74.6753055,113.846917 74.7954722,113.71275 C74.9156389,113.578583 75.0212222,113.43975 75.1122222,113.29625 C75.2032222,113.15275 75.2749722,113.001667 75.3274722,112.843 C75.3799722,112.684333 75.4062222,112.511667 75.4062222,112.325 C75.4062222,112.108 75.3683055,111.909083 75.2924722,111.72825 C75.2166389,111.547417 75.1075555,111.391667 74.9652222,111.261 C74.8228889,111.130333 74.6508055,111.02825 74.4489722,110.95475 C74.2471389,110.88125 74.0202222,110.8445 73.7682222,110.8445 C73.5348889,110.8445 73.3167222,110.875417 73.1137222,110.93725 C72.9107222,110.999083 72.7304722,111.093 72.5729722,111.219 C72.4154722,111.345 72.2836389,111.5025 72.1774722,111.6915 C72.0713055,111.8805 71.9995555,112.102167 71.9622222,112.3565 L71.9622222,112.3565 L72.5362222,112.458 C72.6832222,112.481333 72.7963889,112.472 72.8757222,112.43 C72.9550555,112.388 73.0192222,112.302833 73.0682222,112.1745 C73.1102222,112.0485 73.1866389,111.942917 73.2974722,111.85775 C73.4083055,111.772583 73.5442222,111.73 73.7052222,111.73 C73.9035555,111.73 74.0511389,111.78425 74.1479722,111.89275 C74.2448055,112.00125 74.2932222,112.157 74.2932222,112.36 C74.2932222,112.483667 74.2780555,112.600917 74.2477222,112.71175 C74.2173889,112.822583 74.1718889,112.933417 74.1112222,113.04425 C74.0505555,113.155083 73.9735555,113.267667 73.8802222,113.382 C73.7868889,113.496333 73.6772222,113.6165 73.5512222,113.7425 L73.5512222,113.7425 L72.0812222,115.223 C72.0112222,115.286 71.9622222,115.356 71.9342222,115.433 C71.9062222,115.51 71.8922222,115.582333 71.8922222,115.65 L71.8922222,115.65 L71.8922222,116 L75.4762222,116 Z" id="+2" fill="#FF9000" fill-rule="nonzero"></path>
            <path d="M81.4675,115.4295 L81.4675,114.0365 L82.7625,114.0365 L82.7625,113.2595 L81.4675,113.2595 L81.4675,111.8735 L80.5855,111.8735 L80.5855,113.2595 L79.2975,113.2595 L79.2975,114.0365 L80.5855,114.0365 L80.5855,115.4295 L81.4675,115.4295 Z M85.6772222,116.056 C85.9128889,116.056 86.1392222,116.02275 86.3562222,115.95625 C86.5732222,115.88975 86.7639722,115.79 86.9284722,115.657 C87.0929722,115.524 87.2242222,115.357167 87.3222222,115.1565 C87.4202222,114.955833 87.4692222,114.720167 87.4692222,114.4495 C87.4692222,113.877833 87.1868889,113.492833 86.6222222,113.2945 C86.7435555,113.2525 86.8514722,113.200583 86.9459722,113.13875 C87.0404722,113.076917 87.1198055,113.001083 87.1839722,112.91125 C87.2481389,112.821417 87.2965555,112.71525 87.3292222,112.59275 C87.3618889,112.47025 87.3782222,112.3285 87.3782222,112.1675 C87.3782222,111.990167 87.3432222,111.821583 87.2732222,111.66175 C87.2032222,111.501917 87.1005555,111.361333 86.9652222,111.24 C86.8298889,111.118667 86.6642222,111.022417 86.4682222,110.95125 C86.2722222,110.880083 86.0482222,110.8445 85.7962222,110.8445 C85.5628889,110.8445 85.3447222,110.875417 85.1417222,110.93725 C84.9387222,110.999083 84.7584722,111.093 84.6009722,111.219 C84.4434722,111.345 84.3116389,111.5025 84.2054722,111.6915 C84.0993055,111.8805 84.0275555,112.102167 83.9902222,112.3565 L83.9902222,112.3565 L84.5642222,112.458 C84.7112222,112.481333 84.8243889,112.472 84.9037222,112.43 C84.9830555,112.388 85.0472222,112.302833 85.0962222,112.1745 C85.1382222,112.0485 85.2146389,111.942917 85.3254722,111.85775 C85.4363055,111.772583 85.5722222,111.73 85.7332222,111.73 C85.9315555,111.73 86.0791389,111.78425 86.1759722,111.89275 C86.2728055,112.00125 86.3212222,112.155833 86.3212222,112.3565 C86.3212222,112.4545 86.3095555,112.544333 86.2862222,112.626 C86.2628889,112.707667 86.2156389,112.777083 86.1444722,112.83425 C86.0733055,112.891417 85.9723889,112.936333 85.8417222,112.969 C85.7110555,113.001667 85.5395555,113.018 85.3272222,113.018 L85.3272222,113.018 L85.3272222,113.767 C85.5792222,113.767 85.7758055,113.783917 85.9169722,113.81775 C86.0581389,113.851583 86.1637222,113.9 86.2337222,113.963 C86.3037222,114.026 86.3463055,114.10125 86.3614722,114.18875 C86.3766389,114.27625 86.3842222,114.374833 86.3842222,114.4845 C86.3842222,114.5685 86.3690555,114.651333 86.3387222,114.733 C86.3083889,114.814667 86.2634722,114.887583 86.2039722,114.95175 C86.1444722,115.015917 86.0698055,115.068417 85.9799722,115.10925 C85.8901389,115.150083 85.7845555,115.1705 85.6632222,115.1705 C85.5045555,115.1705 85.3663055,115.12675 85.2484722,115.03925 C85.1306389,114.95175 85.0192222,114.811167 84.9142222,114.6175 C84.8675555,114.5335 84.7905555,114.479833 84.6832222,114.4565 C84.5758889,114.433167 84.4592222,114.446 84.3332222,114.495 L84.3332222,114.495 L83.8502222,114.691 C83.9318889,114.929 84.0281389,115.134333 84.1389722,115.307 C84.2498055,115.479667 84.3787222,115.621417 84.5257222,115.73225 C84.6727222,115.843083 84.8407222,115.92475 85.0297222,115.97725 C85.2187222,116.02975 85.4345555,116.056 85.6772222,116.056 Z" id="+3" fill="#1D1D1D" fill-rule="nonzero"></path>
            <path d="M30.254,114.3095 L30.254,113.4345 L28.364,113.4345 L28.364,114.3095 L30.254,114.3095 Z M34.9187222,116 L34.9187222,115.216 L34.0787222,115.216 L34.0787222,110.897 L33.1827222,110.897 L31.5937222,112.2305 L31.9367222,112.6855 C31.9530555,112.708833 31.9787222,112.731583 32.0137222,112.75375 C32.0487222,112.775917 32.0883889,112.791083 32.1327222,112.79925 C32.1770555,112.807417 32.2243055,112.807417 32.2744722,112.79925 C32.3246389,112.791083 32.3753889,112.767167 32.4267222,112.7275 L32.4267222,112.7275 L33.0077222,112.2445 C33.0030555,112.312167 32.9995555,112.37925 32.9972222,112.44575 C32.9948889,112.51225 32.9937222,112.578167 32.9937222,112.6435 L32.9937222,112.6435 L32.9937222,115.216 L32.0137222,115.216 L32.0137222,116 L34.9187222,116 Z" id="-1" fill="#FF9000" fill-rule="nonzero"></path>
            <path d="M45.023,116.056 C45.2936667,116.056 45.5450833,116.0035 45.77725,115.8985 C46.0094167,115.7935 46.2100833,115.633667 46.37925,115.419 C46.5484167,115.204333 46.6808333,114.933667 46.7765,114.607 C46.8721667,114.280333 46.92,113.894167 46.92,113.4485 C46.92,113.002833 46.8721667,112.616667 46.7765,112.29 C46.6808333,111.963333 46.5484167,111.692667 46.37925,111.478 C46.2100833,111.263333 46.0094167,111.104083 45.77725,111.00025 C45.5450833,110.896417 45.2936667,110.8445 45.023,110.8445 C44.7523333,110.8445 44.5020833,110.896417 44.27225,111.00025 C44.0424167,111.104083 43.8435,111.263333 43.6755,111.478 C43.5075,111.692667 43.37625,111.963333 43.28175,112.29 C43.18725,112.616667 43.14,113.002833 43.14,113.4485 C43.14,113.894167 43.18725,114.280333 43.28175,114.607 C43.37625,114.933667 43.5075,115.204333 43.6755,115.419 C43.8435,115.633667 44.0424167,115.7935 44.27225,115.8985 C44.5020833,116.0035 44.7523333,116.056 45.023,116.056 Z M45.023,115.1845 C44.9273333,115.1845 44.8334167,115.160583 44.74125,115.11275 C44.6490833,115.064917 44.5674167,114.97625 44.49625,114.84675 C44.4250833,114.71725 44.3679167,114.5405 44.32475,114.3165 C44.2815833,114.0925 44.26,113.803167 44.26,113.4485 C44.26,113.096167 44.2815833,112.807417 44.32475,112.58225 C44.3679167,112.357083 44.4250833,112.180333 44.49625,112.052 C44.5674167,111.923667 44.6490833,111.835583 44.74125,111.78775 C44.8334167,111.739917 44.9273333,111.716 45.023,111.716 C45.1186667,111.716 45.2131667,111.739917 45.3065,111.78775 C45.3998333,111.835583 45.48325,111.923667 45.55675,112.052 C45.63025,112.180333 45.6891667,112.357083 45.7335,112.58225 C45.7778333,112.807417 45.8,113.096167 45.8,113.4485 C45.8,113.803167 45.7778333,114.0925 45.7335,114.3165 C45.6891667,114.5405 45.63025,114.71725 45.55675,114.84675 C45.48325,114.97625 45.3998333,115.064917 45.3065,115.11275 C45.2131667,115.160583 45.1186667,115.1845 45.023,115.1845 Z" id="0" fill="#FF9000" fill-rule="nonzero"></path>
            <path d="M56.4675,115.4295 L56.4675,114.0365 L57.7625,114.0365 L57.7625,113.2595 L56.4675,113.2595 L56.4675,111.8735 L55.5855,111.8735 L55.5855,113.2595 L54.2975,113.2595 L54.2975,114.0365 L55.5855,114.0365 L55.5855,115.4295 L56.4675,115.4295 Z M62.3607222,116 L62.3607222,115.216 L61.5207222,115.216 L61.5207222,110.897 L60.6247222,110.897 L59.0357222,112.2305 L59.3787222,112.6855 C59.3950555,112.708833 59.4207222,112.731583 59.4557222,112.75375 C59.4907222,112.775917 59.5303889,112.791083 59.5747222,112.79925 C59.6190555,112.807417 59.6663055,112.807417 59.7164722,112.79925 C59.7666389,112.791083 59.8173889,112.767167 59.8687222,112.7275 L59.8687222,112.7275 L60.4497222,112.2445 C60.4450555,112.312167 60.4415555,112.37925 60.4392222,112.44575 C60.4368889,112.51225 60.4357222,112.578167 60.4357222,112.6435 L60.4357222,112.6435 L60.4357222,115.216 L59.4557222,115.216 L59.4557222,116 L62.3607222,116 Z" id="+1" fill="#FF9000" fill-rule="nonzero"></path>
        </g>
    </g>
</svg>