<svg width="45" height="18" viewBox="0 0 45 18" fill="none" xmlns="http://www.w3.org/2000/svg">
<path d="M3.50641 4.912C3.69041 4.912 3.84641 4.88933 3.97441 4.844C4.10507 4.796 4.21174 4.73067 4.29441 4.648C4.37707 4.56533 4.43707 4.46933 4.47441 4.36C4.51174 4.248 4.53041 4.128 4.53041 4C4.53041 3.744 4.44641 3.544 4.27841 3.4C4.11307 3.256 3.85574 3.184 3.50641 3.184H2.96241V4.912H3.50641ZM6.37841 8H5.15441C4.92774 8 4.76507 7.91467 4.66641 7.744L3.69841 6.052C3.65307 5.98 3.60241 5.928 3.54641 5.896C3.49041 5.86133 3.41041 5.844 3.30641 5.844H2.96241V8H1.61041V2.172H3.50641C3.92774 2.172 4.28641 2.216 4.58241 2.304C4.88107 2.38933 5.12374 2.50933 5.31041 2.664C5.49974 2.81867 5.63707 3.00133 5.72241 3.212C5.80774 3.42267 5.85041 3.652 5.85041 3.9C5.85041 4.08933 5.82507 4.268 5.77441 4.436C5.72374 4.604 5.64907 4.76 5.55041 4.904C5.45174 5.04533 5.32907 5.172 5.18241 5.284C5.03841 5.396 4.87174 5.488 4.68241 5.56C4.77041 5.60533 4.85307 5.66267 4.93041 5.732C5.00774 5.79867 5.07707 5.87867 5.13841 5.972L6.37841 8ZM8.10822 3.212V4.572H9.94022V5.572H8.10822V6.96H10.5002V8H6.74822V2.172H10.5002V3.212H8.10822ZM15.4022 3.244H13.7622V8H12.4102V3.244H10.7702V2.172H15.4022V3.244ZM17.8652 4.912C18.0492 4.912 18.2052 4.88933 18.3332 4.844C18.4638 4.796 18.5705 4.73067 18.6532 4.648C18.7358 4.56533 18.7958 4.46933 18.8332 4.36C18.8705 4.248 18.8892 4.128 18.8892 4C18.8892 3.744 18.8052 3.544 18.6372 3.4C18.4718 3.256 18.2145 3.184 17.8652 3.184H17.3212V4.912H17.8652ZM20.7372 8H19.5132C19.2865 8 19.1238 7.91467 19.0252 7.744L18.0572 6.052C18.0118 5.98 17.9612 5.928 17.9052 5.896C17.8492 5.86133 17.7692 5.844 17.6652 5.844H17.3212V8H15.9692V2.172H17.8652C18.2865 2.172 18.6452 2.216 18.9412 2.304C19.2398 2.38933 19.4825 2.50933 19.6692 2.664C19.8585 2.81867 19.9958 3.00133 20.0812 3.212C20.1665 3.42267 20.2092 3.652 20.2092 3.9C20.2092 4.08933 20.1838 4.268 20.1332 4.436C20.0825 4.604 20.0078 4.76 19.9092 4.904C19.8105 5.04533 19.6878 5.172 19.5412 5.284C19.3972 5.396 19.2305 5.488 19.0412 5.56C19.1292 5.60533 19.2118 5.66267 19.2892 5.732C19.3665 5.79867 19.4358 5.87867 19.4972 5.972L20.7372 8ZM22.467 8H21.107V2.172H22.467V8ZM26.2713 4.98H28.3433V7.44C28.0447 7.65867 27.726 7.81733 27.3873 7.916C27.0513 8.01467 26.6993 8.064 26.3313 8.064C25.8513 8.064 25.414 7.98933 25.0193 7.84C24.6273 7.688 24.2913 7.48 24.0113 7.216C23.7313 6.94933 23.5153 6.63467 23.3633 6.272C23.2113 5.90667 23.1353 5.51067 23.1353 5.084C23.1353 4.64933 23.2073 4.25067 23.3513 3.888C23.4953 3.52267 23.7007 3.208 23.9673 2.944C24.2367 2.68 24.5607 2.47467 24.9393 2.328C25.3207 2.18133 25.746 2.108 26.2153 2.108C26.458 2.108 26.686 2.128 26.8993 2.168C27.1127 2.208 27.3087 2.26267 27.4873 2.332C27.6687 2.40133 27.834 2.484 27.9833 2.58C28.1327 2.676 28.266 2.78 28.3833 2.892L27.9913 3.488C27.93 3.58133 27.85 3.63867 27.7513 3.66C27.6553 3.68133 27.5513 3.65733 27.4393 3.588C27.3327 3.524 27.2313 3.46933 27.1353 3.424C27.042 3.376 26.946 3.33733 26.8473 3.308C26.7487 3.27867 26.6447 3.25733 26.5353 3.244C26.426 3.23067 26.3033 3.224 26.1673 3.224C25.914 3.224 25.686 3.26933 25.4833 3.36C25.2807 3.448 25.1073 3.57333 24.9633 3.736C24.822 3.89867 24.7127 4.09467 24.6353 4.324C24.558 4.55067 24.5193 4.804 24.5193 5.084C24.5193 5.39333 24.562 5.668 24.6473 5.908C24.7327 6.148 24.8527 6.35067 25.0073 6.516C25.1647 6.68133 25.3513 6.808 25.5673 6.896C25.786 6.98133 26.0273 7.024 26.2913 7.024C26.454 7.024 26.6007 7.008 26.7313 6.976C26.8647 6.944 26.994 6.90133 27.1193 6.848V5.964H26.5433C26.458 5.964 26.3913 5.94133 26.3433 5.896C26.2953 5.85067 26.2713 5.79333 26.2713 5.724V4.98ZM31.9326 4.98H34.0046V7.44C33.7059 7.65867 33.3873 7.81733 33.0486 7.916C32.7126 8.01467 32.3606 8.064 31.9926 8.064C31.5126 8.064 31.0753 7.98933 30.6806 7.84C30.2886 7.688 29.9526 7.48 29.6726 7.216C29.3926 6.94933 29.1766 6.63467 29.0246 6.272C28.8726 5.90667 28.7966 5.51067 28.7966 5.084C28.7966 4.64933 28.8686 4.25067 29.0126 3.888C29.1566 3.52267 29.3619 3.208 29.6286 2.944C29.8979 2.68 30.2219 2.47467 30.6006 2.328C30.9819 2.18133 31.4073 2.108 31.8766 2.108C32.1193 2.108 32.3473 2.128 32.5606 2.168C32.7739 2.208 32.9699 2.26267 33.1486 2.332C33.3299 2.40133 33.4953 2.484 33.6446 2.58C33.7939 2.676 33.9273 2.78 34.0446 2.892L33.6526 3.488C33.5913 3.58133 33.5113 3.63867 33.4126 3.66C33.3166 3.68133 33.2126 3.65733 33.1006 3.588C32.9939 3.524 32.8926 3.46933 32.7966 3.424C32.7033 3.376 32.6073 3.33733 32.5086 3.308C32.4099 3.27867 32.3059 3.25733 32.1966 3.244C32.0873 3.23067 31.9646 3.224 31.8286 3.224C31.5753 3.224 31.3473 3.26933 31.1446 3.36C30.9419 3.448 30.7686 3.57333 30.6246 3.736C30.4833 3.89867 30.3739 4.09467 30.2966 4.324C30.2193 4.55067 30.1806 4.804 30.1806 5.084C30.1806 5.39333 30.2233 5.668 30.3086 5.908C30.3939 6.148 30.5139 6.35067 30.6686 6.516C30.8259 6.68133 31.0126 6.808 31.2286 6.896C31.4473 6.98133 31.6886 7.024 31.9526 7.024C32.1153 7.024 32.2619 7.008 32.3926 6.976C32.5259 6.944 32.6553 6.90133 32.7806 6.848V5.964H32.2046C32.1193 5.964 32.0526 5.94133 32.0046 5.896C31.9566 5.85067 31.9326 5.79333 31.9326 5.724V4.98ZM36.1538 3.212V4.572H37.9858V5.572H36.1538V6.96H38.5458V8H34.7938V2.172H38.5458V3.212H36.1538ZM41.1558 4.912C41.3398 4.912 41.4958 4.88933 41.6238 4.844C41.7544 4.796 41.8611 4.73067 41.9438 4.648C42.0264 4.56533 42.0864 4.46933 42.1238 4.36C42.1611 4.248 42.1798 4.128 42.1798 4C42.1798 3.744 42.0958 3.544 41.9278 3.4C41.7624 3.256 41.5051 3.184 41.1558 3.184H40.6118V4.912H41.1558ZM44.0278 8H42.8038C42.5771 8 42.4144 7.91467 42.3158 7.744L41.3478 6.052C41.3024 5.98 41.2518 5.928 41.1958 5.896C41.1398 5.86133 41.0598 5.844 40.9558 5.844H40.6118V8H39.2598V2.172H41.1558C41.5771 2.172 41.9358 2.216 42.2318 2.304C42.5304 2.38933 42.7731 2.50933 42.9598 2.664C43.1491 2.81867 43.2864 3.00133 43.3718 3.212C43.4571 3.42267 43.4998 3.652 43.4998 3.9C43.4998 4.08933 43.4744 4.268 43.4238 4.436C43.3731 4.604 43.2984 4.76 43.1998 4.904C43.1011 5.04533 42.9784 5.172 42.8318 5.284C42.6878 5.396 42.5211 5.488 42.3318 5.56C42.4198 5.60533 42.5024 5.66267 42.5798 5.732C42.6571 5.79867 42.7264 5.87867 42.7878 5.972L44.0278 8Z" fill="#FF9000"/>
<rect x="0.5" y="9.5" width="44" height="8" rx="1" fill="#FF9300"/>
<rect x="0.5" y="9.5" width="44" height="8" rx="1" stroke="#FF9300"/>
<path d="M3.50641 13.912C3.69041 13.912 3.84641 13.8893 3.97441 13.844C4.10507 13.796 4.21174 13.7307 4.29441 13.648C4.37707 13.5653 4.43707 13.4693 4.47441 13.36C4.51174 13.248 4.53041 13.128 4.53041 13C4.53041 12.744 4.44641 12.544 4.27841 12.4C4.11307 12.256 3.85574 12.184 3.50641 12.184H2.96241V13.912H3.50641ZM6.37841 17H5.15441C4.92774 17 4.76507 16.9147 4.66641 16.744L3.69841 15.052C3.65307 14.98 3.60241 14.928 3.54641 14.896C3.49041 14.8613 3.41041 14.844 3.30641 14.844H2.96241V17H1.61041V11.172H3.50641C3.92774 11.172 4.28641 11.216 4.58241 11.304C4.88107 11.3893 5.12374 11.5093 5.31041 11.664C5.49974 11.8187 5.63707 12.0013 5.72241 12.212C5.80774 12.4227 5.85041 12.652 5.85041 12.9C5.85041 13.0893 5.82507 13.268 5.77441 13.436C5.72374 13.604 5.64907 13.76 5.55041 13.904C5.45174 14.0453 5.32907 14.172 5.18241 14.284C5.03841 14.396 4.87174 14.488 4.68241 14.56C4.77041 14.6053 4.85307 14.6627 4.93041 14.732C5.00774 14.7987 5.07707 14.8787 5.13841 14.972L6.37841 17ZM8.10822 12.212V13.572H9.94022V14.572H8.10822V15.96H10.5002V17H6.74822V11.172H10.5002V12.212H8.10822ZM15.4022 12.244H13.7622V17H12.4102V12.244H10.7702V11.172H15.4022V12.244ZM17.8652 13.912C18.0492 13.912 18.2052 13.8893 18.3332 13.844C18.4638 13.796 18.5705 13.7307 18.6532 13.648C18.7358 13.5653 18.7958 13.4693 18.8332 13.36C18.8705 13.248 18.8892 13.128 18.8892 13C18.8892 12.744 18.8052 12.544 18.6372 12.4C18.4718 12.256 18.2145 12.184 17.8652 12.184H17.3212V13.912H17.8652ZM20.7372 17H19.5132C19.2865 17 19.1238 16.9147 19.0252 16.744L18.0572 15.052C18.0118 14.98 17.9612 14.928 17.9052 14.896C17.8492 14.8613 17.7692 14.844 17.6652 14.844H17.3212V17H15.9692V11.172H17.8652C18.2865 11.172 18.6452 11.216 18.9412 11.304C19.2398 11.3893 19.4825 11.5093 19.6692 11.664C19.8585 11.8187 19.9958 12.0013 20.0812 12.212C20.1665 12.4227 20.2092 12.652 20.2092 12.9C20.2092 13.0893 20.1838 13.268 20.1332 13.436C20.0825 13.604 20.0078 13.76 19.9092 13.904C19.8105 14.0453 19.6878 14.172 19.5412 14.284C19.3972 14.396 19.2305 14.488 19.0412 14.56C19.1292 14.6053 19.2118 14.6627 19.2892 14.732C19.3665 14.7987 19.4358 14.8787 19.4972 14.972L20.7372 17ZM22.467 17H21.107V11.172H22.467V17ZM26.2713 13.98H28.3433V16.44C28.0447 16.6587 27.726 16.8173 27.3873 16.916C27.0513 17.0147 26.6993 17.064 26.3313 17.064C25.8513 17.064 25.414 16.9893 25.0193 16.84C24.6273 16.688 24.2913 16.48 24.0113 16.216C23.7313 15.9493 23.5153 15.6347 23.3633 15.272C23.2113 14.9067 23.1353 14.5107 23.1353 14.084C23.1353 13.6493 23.2073 13.2507 23.3513 12.888C23.4953 12.5227 23.7007 12.208 23.9673 11.944C24.2367 11.68 24.5607 11.4747 24.9393 11.328C25.3207 11.1813 25.746 11.108 26.2153 11.108C26.458 11.108 26.686 11.128 26.8993 11.168C27.1127 11.208 27.3087 11.2627 27.4873 11.332C27.6687 11.4013 27.834 11.484 27.9833 11.58C28.1327 11.676 28.266 11.78 28.3833 11.892L27.9913 12.488C27.93 12.5813 27.85 12.6387 27.7513 12.66C27.6553 12.6813 27.5513 12.6573 27.4393 12.588C27.3327 12.524 27.2313 12.4693 27.1353 12.424C27.042 12.376 26.946 12.3373 26.8473 12.308C26.7487 12.2787 26.6447 12.2573 26.5353 12.244C26.426 12.2307 26.3033 12.224 26.1673 12.224C25.914 12.224 25.686 12.2693 25.4833 12.36C25.2807 12.448 25.1073 12.5733 24.9633 12.736C24.822 12.8987 24.7127 13.0947 24.6353 13.324C24.558 13.5507 24.5193 13.804 24.5193 14.084C24.5193 14.3933 24.562 14.668 24.6473 14.908C24.7327 15.148 24.8527 15.3507 25.0073 15.516C25.1647 15.6813 25.3513 15.808 25.5673 15.896C25.786 15.9813 26.0273 16.024 26.2913 16.024C26.454 16.024 26.6007 16.008 26.7313 15.976C26.8647 15.944 26.994 15.9013 27.1193 15.848V14.964H26.5433C26.458 14.964 26.3913 14.9413 26.3433 14.896C26.2953 14.8507 26.2713 14.7933 26.2713 14.724V13.98ZM31.9326 13.98H34.0046V16.44C33.7059 16.6587 33.3873 16.8173 33.0486 16.916C32.7126 17.0147 32.3606 17.064 31.9926 17.064C31.5126 17.064 31.0753 16.9893 30.6806 16.84C30.2886 16.688 29.9526 16.48 29.6726 16.216C29.3926 15.9493 29.1766 15.6347 29.0246 15.272C28.8726 14.9067 28.7966 14.5107 28.7966 14.084C28.7966 13.6493 28.8686 13.2507 29.0126 12.888C29.1566 12.5227 29.3619 12.208 29.6286 11.944C29.8979 11.68 30.2219 11.4747 30.6006 11.328C30.9819 11.1813 31.4073 11.108 31.8766 11.108C32.1193 11.108 32.3473 11.128 32.5606 11.168C32.7739 11.208 32.9699 11.2627 33.1486 11.332C33.3299 11.4013 33.4953 11.484 33.6446 11.58C33.7939 11.676 33.9273 11.78 34.0446 11.892L33.6526 12.488C33.5913 12.5813 33.5113 12.6387 33.4126 12.66C33.3166 12.6813 33.2126 12.6573 33.1006 12.588C32.9939 12.524 32.8926 12.4693 32.7966 12.424C32.7033 12.376 32.6073 12.3373 32.5086 12.308C32.4099 12.2787 32.3059 12.2573 32.1966 12.244C32.0873 12.2307 31.9646 12.224 31.8286 12.224C31.5753 12.224 31.3473 12.2693 31.1446 12.36C30.9419 12.448 30.7686 12.5733 30.6246 12.736C30.4833 12.8987 30.3739 13.0947 30.2966 13.324C30.2193 13.5507 30.1806 13.804 30.1806 14.084C30.1806 14.3933 30.2233 14.668 30.3086 14.908C30.3939 15.148 30.5139 15.3507 30.6686 15.516C30.8259 15.6813 31.0126 15.808 31.2286 15.896C31.4473 15.9813 31.6886 16.024 31.9526 16.024C32.1153 16.024 32.2619 16.008 32.3926 15.976C32.5259 15.944 32.6553 15.9013 32.7806 15.848V14.964H32.2046C32.1193 14.964 32.0526 14.9413 32.0046 14.896C31.9566 14.8507 31.9326 14.7933 31.9326 14.724V13.98ZM36.1538 12.212V13.572H37.9858V14.572H36.1538V15.96H38.5458V17H34.7938V11.172H38.5458V12.212H36.1538ZM41.1558 13.912C41.3398 13.912 41.4958 13.8893 41.6238 13.844C41.7544 13.796 41.8611 13.7307 41.9438 13.648C42.0264 13.5653 42.0864 13.4693 42.1238 13.36C42.1611 13.248 42.1798 13.128 42.1798 13C42.1798 12.744 42.0958 12.544 41.9278 12.4C41.7624 12.256 41.5051 12.184 41.1558 12.184H40.6118V13.912H41.1558ZM44.0278 17H42.8038C42.5771 17 42.4144 16.9147 42.3158 16.744L41.3478 15.052C41.3024 14.98 41.2518 14.928 41.1958 14.896C41.1398 14.8613 41.0598 14.844 40.9558 14.844H40.6118V17H39.2598V11.172H41.1558C41.5771 11.172 41.9358 11.216 42.2318 11.304C42.5304 11.3893 42.7731 11.5093 42.9598 11.664C43.1491 11.8187 43.2864 12.0013 43.3718 12.212C43.4571 12.4227 43.4998 12.652 43.4998 12.9C43.4998 13.0893 43.4744 13.268 43.4238 13.436C43.3731 13.604 43.2984 13.76 43.1998 13.904C43.1011 14.0453 42.9784 14.172 42.8318 14.284C42.6878 14.396 42.5211 14.488 42.3318 14.56C42.4198 14.6053 42.5024 14.6627 42.5798 14.732C42.6571 14.7987 42.7264 14.8787 42.7878 14.972L44.0278 17Z" fill="black"/>
</svg>
