<svg width="18" height="26" viewBox="0 0 18 26" fill="none" xmlns="http://www.w3.org/2000/svg">
<path d="M1 4C1 2.34315 2.34315 1 4 1H17V12H4C2.34315 12 1 10.6569 1 9V4Z" fill="#242424"/>
<path d="M1 4C1 2.34315 2.34315 1 4 1H17V12H4C2.34315 12 1 10.6569 1 9V4Z" stroke="black"/>
<path d="M9.24997 5C8.0229 5 6.93692 5.55697 6.25278 6.41454L5 5.23525V9H9.00025L7.63931 7.71927C8.00092 6.68702 9.03217 5.94116 10.2499 5.94116C11.7695 5.94116 13 7.10018 13 8.52948C13 6.57998 11.3212 5 9.24997 5Z" fill="#B4B4B4"/>
<path d="M3 17.5C3 16.3954 3.89543 15.5 5 15.5H15V23.5H5C3.89543 23.5 3 22.6046 3 21.5V17.5Z" fill="#399DFF"/>
<path d="M9.24997 17.5C8.0229 17.5 6.93692 18.057 6.25278 18.9145L5 17.7353V21.5H9.00025L7.63931 20.2193C8.00092 19.187 9.03217 18.4412 10.2499 18.4412C11.7695 18.4412 13 19.6002 13 21.0295C13 19.08 11.3212 17.5 9.24997 17.5Z" fill="white"/>
</svg>
