<svg width="120" height="52" viewBox="0 0 120 52" fill="none" xmlns="http://www.w3.org/2000/svg">
<rect x="17.5" y="0.5" width="18" height="10" stroke="#A0A0A0"/>
<rect x="0.5" y="0.5" width="9" height="10" stroke="#A0A0A0"/>
<rect x="0.5" y="40.5" width="9" height="10" stroke="#A0A0A0"/>
<rect x="17.5" y="20.5" width="18" height="10" stroke="#A0A0A0"/>
<rect x="17.5" y="40.5" width="18" height="10" stroke="#A0A0A0"/>
<rect x="43.5" y="0.5" width="18" height="10" stroke="#A0A0A0"/>
<rect x="43.5" y="20.5" width="18" height="10" stroke="#A0A0A0"/>
<rect x="88.5" y="10.5" width="18" height="10" stroke="#A0A0A0"/>
<rect x="88.5" y="30.5" width="18" height="10" stroke="#A0A0A0"/>
<rect x="43.5" y="40.5" width="18" height="10" stroke="#A0A0A0"/>
<path fill-rule="evenodd" clip-rule="evenodd" d="M12 3L16 5.5L12 8V6H10V5H12V3Z" fill="#A0A0A0"/>
<path fill-rule="evenodd" clip-rule="evenodd" d="M12 43L16 45.5L12 48V46H10V45H12V43Z" fill="#A0A0A0"/>
<path fill-rule="evenodd" clip-rule="evenodd" d="M38 3L42 5.5L38 8V6H36V5H38V3Z" fill="#A0A0A0"/>
<path fill-rule="evenodd" clip-rule="evenodd" d="M66.5 23L70.5 25.5L66.5 28V26H64.5V25H66.5V23Z" fill="#A0A0A0"/>
<path fill-rule="evenodd" clip-rule="evenodd" d="M29 15.5L26.5 19.5L24 15.5L26 15.5L26 13.5L27 13.5L27 15.5L29 15.5Z" fill="#A0A0A0"/>
<path fill-rule="evenodd" clip-rule="evenodd" d="M24 35.5L26.5 31.5L29 35.5L27 35.5L27 37.5L26 37.5L26 35.5L24 35.5Z" fill="#A0A0A0"/>
<path fill-rule="evenodd" clip-rule="evenodd" d="M55 15.5L52.5 19.5L50 15.5L52 15.5L52 13.5L53 13.5L53 15.5L55 15.5Z" fill="#A0A0A0"/>
<path fill-rule="evenodd" clip-rule="evenodd" d="M78 15.5L75.5 19.5L73 15.5L75 15.5L75 13.5L76 13.5L76 15.5L78 15.5Z" fill="#A0A0A0"/>
<path fill-rule="evenodd" clip-rule="evenodd" d="M100 23L97.5 27L95 23L97 23L97 21L98 21L98 23L100 23Z" fill="#A0A0A0"/>
<path fill-rule="evenodd" clip-rule="evenodd" d="M50 35.5L52.5 31.5L55 35.5L53 35.5L53 37.5L52 37.5L52 35.5L50 35.5Z" fill="#A0A0A0"/>
<path fill-rule="evenodd" clip-rule="evenodd" d="M73 35.5L75.5 31.5L78 35.5L76 35.5L76 37.5L75 37.5L75 35.5L73 35.5Z" fill="#A0A0A0"/>
<path fill-rule="evenodd" clip-rule="evenodd" d="M38 43L42 45.5L38 48V46H36V45H38V43Z" fill="#A0A0A0"/>
<path fill-rule="evenodd" clip-rule="evenodd" d="M115 23L119 25.5L115 28V26H113V25H115V23Z" fill="#A0A0A0"/>
<path d="M62 5.5H75.5V13.5M67.5 6V13.5H26M26 37.5H67.5V45M62 45.5H75.5V37.5M80 25.5H83.5V15.5H88" stroke="#A0A0A0"/>
<circle cx="75.5" cy="25.5" r="4" stroke="#A0A0A0"/>
<rect x="37" y="25" width="1" height="1" fill="#A0A0A0"/>
<rect x="39" y="25" width="1" height="1" fill="#A0A0A0"/>
<rect x="41" y="25" width="2" height="1" fill="#A0A0A0"/>
<rect x="63" y="25" width="1" height="1" fill="#A0A0A0"/>
<path fill-rule="evenodd" clip-rule="evenodd" d="M76 24H75V25H74V26H75V27H76V26H77V25H76V24Z" fill="#EEEEEE"/>
<path d="M107 35.5H111.5V25.5H113" stroke="#A0A0A0"/>
<path d="M5.80732 6.089L5.19132 4.4055C5.16099 4.33083 5.12949 4.24217 5.09682 4.1395C5.06416 4.03683 5.03149 3.926 4.99882 3.807C4.96849 3.926 4.93699 4.038 4.90432 4.143C4.87166 4.24567 4.84016 4.3355 4.80982 4.4125L4.19732 6.089H5.80732ZM7.46982 8H6.74182C6.66016 8 6.59366 7.98017 6.54232 7.9405C6.49099 7.8985 6.45249 7.84717 6.42682 7.7865L6.04882 6.754H3.95232L3.57432 7.7865C3.55566 7.84017 3.51949 7.88917 3.46582 7.9335C3.41216 7.97783 3.34566 8 3.26632 8H2.53132L4.52282 2.939H5.48182L7.46982 8Z" fill="white"/>
<path d="M5.15329 47.265C5.32829 47.265 5.47529 47.244 5.59429 47.202C5.71329 47.16 5.80779 47.104 5.87779 47.034C5.95012 46.964 6.00146 46.8823 6.03179 46.789C6.06446 46.6957 6.08079 46.5965 6.08079 46.4915C6.08079 46.3818 6.06329 46.2838 6.02829 46.1975C5.99329 46.1088 5.93846 46.0342 5.86379 45.9735C5.78912 45.9105 5.69229 45.8627 5.57329 45.83C5.45662 45.7973 5.31546 45.781 5.14979 45.781H4.20129V47.265H5.15329ZM4.20129 43.667V45.13H4.95029C5.27229 45.13 5.51496 45.0717 5.67829 44.955C5.84396 44.8383 5.92679 44.6528 5.92679 44.3985C5.92679 44.1348 5.85212 43.947 5.70279 43.835C5.55346 43.723 5.32012 43.667 5.00279 43.667H4.20129ZM5.00279 42.939C5.33412 42.939 5.61762 42.9705 5.85329 43.0335C6.08896 43.0965 6.28146 43.1863 6.43079 43.303C6.58246 43.4197 6.69329 43.5608 6.76329 43.7265C6.83329 43.8922 6.86829 44.0788 6.86829 44.2865C6.86829 44.4055 6.85079 44.5198 6.81579 44.6295C6.78079 44.7368 6.72596 44.8383 6.65129 44.934C6.57896 45.0273 6.48562 45.1125 6.37129 45.1895C6.25929 45.2665 6.12512 45.3318 5.96879 45.3855C6.66412 45.5418 7.01179 45.9175 7.01179 46.5125C7.01179 46.7272 6.97096 46.9255 6.88929 47.1075C6.80762 47.2895 6.68862 47.447 6.53229 47.58C6.37596 47.7107 6.18346 47.8133 5.95479 47.888C5.72612 47.9627 5.46479 48 5.17079 48H3.25979V42.939H5.00279Z" fill="white"/>
</svg>
