<svg width="16" height="24" viewBox="0 0 16 24" fill="none" xmlns="http://www.w3.org/2000/svg">
<path d="M0.5 2.5C0.5 1.39543 1.39543 0.5 2.5 0.5H15.5V11.5H2.5C1.39543 11.5 0.5 10.6046 0.5 9.5V2.5Z" fill="#242424"/>
<path d="M15.5 0.5H16V0H15.5V0.5ZM15.5 11.5V12H16V11.5H15.5ZM2.5 1H15.5V0H2.5V1ZM15 0.5V11.5H16V0.5H15ZM15.5 11H2.5V12H15.5V11ZM1 9.5V2.5H0V9.5H1ZM2.5 11C1.67157 11 1 10.3284 1 9.5H0C0 10.8807 1.11929 12 2.5 12V11ZM2.5 0C1.11929 0 0 1.11929 0 2.5H1C1 1.67157 1.67157 1 2.5 1V0Z" fill="black"/>
<path d="M8.24997 4C7.0229 4 5.93692 4.55697 5.25278 5.41454L4 4.23525V8H8.00025L6.63931 6.71927C7.00092 5.68702 8.03217 4.94116 9.24989 4.94116C10.7695 4.94116 12 6.10018 12 7.52948C12 5.57998 10.3212 4 8.24997 4Z" fill="#B4B4B4"/>
<path d="M0.5 14.5C0.5 13.3954 1.39543 12.5 2.5 12.5H15.5V23.5H2.5C1.39543 23.5 0.5 22.6046 0.5 21.5V14.5Z" fill="#242424"/>
<path d="M2.5 15.5C2.5 14.9477 2.94772 14.5 3.5 14.5H13.5V21.5H3.5C2.94771 21.5 2.5 21.0523 2.5 20.5V15.5Z" fill="#242424"/>
<path d="M2.5 15.5C2.5 14.9477 2.94772 14.5 3.5 14.5H13.5V21.5H3.5C2.94771 21.5 2.5 21.0523 2.5 20.5V15.5Z" stroke="#242424"/>
<path d="M15.5 12.5H16V12H15.5V12.5ZM15.5 23.5V24H16V23.5H15.5ZM2.5 13H15.5V12H2.5V13ZM15 12.5V23.5H16V12.5H15ZM15.5 23H2.5V24H15.5V23ZM1 21.5V14.5H0V21.5H1ZM2.5 23C1.67157 23 1 22.3284 1 21.5H0C0 22.8807 1.11929 24 2.5 24V23ZM2.5 12C1.11929 12 0 13.1193 0 14.5H1C1 13.6716 1.67157 13 2.5 13V12Z" fill="black"/>
<path d="M8.24997 16C7.0229 16 5.93692 16.557 5.25278 17.4145L4 16.2353V20H8.00025L6.63931 18.7193C7.00092 17.687 8.03217 16.9412 9.24989 16.9412C10.7695 16.9412 12 18.1002 12 19.5295C12 17.58 10.3212 16 8.24997 16Z" fill="#B4B4B4"/>
</svg>
