<svg width="90" height="28" viewBox="0 0 90 28" fill="none" xmlns="http://www.w3.org/2000/svg">
<path d="M0.5 2.5C0.5 1.39543 1.39543 0.5 2.5 0.5H87.5C88.6046 0.5 89.5 1.39543 89.5 2.5V11.5C89.5 12.6046 88.6046 13.5 87.5 13.5H2.5C1.39543 13.5 0.5 12.6046 0.5 11.5V2.5Z" fill="#242424"/>
<rect x="2.5" y="2.5" width="41" height="9" rx="1" fill="#399DFF"/>
<rect x="2.5" y="2.5" width="41" height="9" rx="1" stroke="#399DFF"/>
<path d="M8.78931 5.212V6.572H10.6213V7.572H8.78931V8.96H11.1813V10H7.42931V4.172H11.1813V5.212H8.78931ZM12.8328 6.3C12.9128 6.22533 12.9954 6.156 13.0808 6.092C13.1661 6.028 13.2568 5.97467 13.3528 5.932C13.4514 5.88667 13.5568 5.852 13.6688 5.828C13.7834 5.80133 13.9074 5.788 14.0408 5.788C14.2674 5.788 14.4674 5.828 14.6408 5.908C14.8168 5.98533 14.9648 6.09467 15.0848 6.236C15.2048 6.37467 15.2954 6.54133 15.3568 6.736C15.4181 6.928 15.4488 7.13733 15.4488 7.364V10H14.2088V7.364C14.2088 7.16133 14.1621 7.004 14.0688 6.892C13.9754 6.77733 13.8381 6.72 13.6568 6.72C13.5208 6.72 13.3928 6.74933 13.2728 6.808C13.1554 6.864 13.0408 6.94133 12.9288 7.04V10H11.6888V5.852H12.4568C12.6114 5.852 12.7128 5.92133 12.7608 6.06L12.8328 6.3ZM19.9377 5.852L18.3297 10H17.2017L15.5937 5.852H16.6257C16.7137 5.852 16.787 5.87333 16.8457 5.916C16.907 5.956 16.9484 6.00667 16.9697 6.068L17.5457 7.928C17.5964 8.08 17.6404 8.228 17.6777 8.372C17.7177 8.516 17.7524 8.66 17.7817 8.804C17.8404 8.516 17.9217 8.224 18.0257 7.928L18.6257 6.068C18.647 6.00667 18.687 5.956 18.7457 5.916C18.8044 5.87333 18.8737 5.852 18.9537 5.852H19.9377ZM22.6616 7.428C22.6616 7.32933 22.6482 7.23333 22.6216 7.14C22.5976 7.04667 22.5562 6.964 22.4976 6.892C22.4416 6.81733 22.3669 6.75733 22.2736 6.712C22.1802 6.66667 22.0669 6.644 21.9336 6.644C21.6989 6.644 21.5149 6.712 21.3816 6.848C21.2482 6.98133 21.1602 7.17467 21.1176 7.428H22.6616ZM21.1016 8.148C21.1416 8.49467 21.2469 8.74667 21.4176 8.904C21.5882 9.05867 21.8082 9.136 22.0776 9.136C22.2216 9.136 22.3456 9.11867 22.4496 9.084C22.5536 9.04933 22.6456 9.01067 22.7256 8.968C22.8082 8.92533 22.8829 8.88667 22.9496 8.852C23.0189 8.81733 23.0909 8.8 23.1656 8.8C23.2642 8.8 23.3389 8.836 23.3896 8.908L23.7496 9.352C23.6216 9.49867 23.4829 9.61867 23.3336 9.712C23.1869 9.80267 23.0349 9.87467 22.8776 9.928C22.7229 9.97867 22.5669 10.0133 22.4096 10.032C22.2549 10.0533 22.1069 10.064 21.9656 10.064C21.6749 10.064 21.4016 10.0173 21.1456 9.924C20.8922 9.828 20.6696 9.68667 20.4776 9.5C20.2882 9.31333 20.1376 9.08133 20.0256 8.804C19.9162 8.52667 19.8616 8.204 19.8616 7.836C19.8616 7.55867 19.9082 7.296 20.0016 7.048C20.0976 6.8 20.2336 6.58267 20.4096 6.396C20.5882 6.20933 20.8029 6.06133 21.0536 5.952C21.3069 5.84267 21.5922 5.788 21.9096 5.788C22.1842 5.788 22.4349 5.83067 22.6616 5.916C22.8909 6.00133 23.0869 6.12533 23.2496 6.288C23.4149 6.45067 23.5429 6.65067 23.6336 6.888C23.7269 7.12267 23.7736 7.38933 23.7736 7.688C23.7736 7.78133 23.7696 7.85733 23.7616 7.916C23.7536 7.97467 23.7389 8.02133 23.7176 8.056C23.6962 8.09067 23.6669 8.11467 23.6296 8.128C23.5949 8.14133 23.5496 8.148 23.4936 8.148H21.1016ZM25.5141 4.012V10H24.2741V4.012H25.5141ZM28.1442 5.788C28.4589 5.788 28.7455 5.83733 29.0042 5.936C29.2629 6.03467 29.4842 6.176 29.6682 6.36C29.8549 6.544 29.9989 6.768 30.1002 7.032C30.2042 7.29333 30.2562 7.588 30.2562 7.916C30.2562 8.24667 30.2042 8.54533 30.1002 8.812C29.9989 9.076 29.8549 9.30133 29.6682 9.488C29.4842 9.672 29.2629 9.81467 29.0042 9.916C28.7455 10.0147 28.4589 10.064 28.1442 10.064C27.8269 10.064 27.5375 10.0147 27.2762 9.916C27.0175 9.81467 26.7935 9.672 26.6042 9.488C26.4175 9.30133 26.2722 9.076 26.1682 8.812C26.0669 8.54533 26.0162 8.24667 26.0162 7.916C26.0162 7.588 26.0669 7.29333 26.1682 7.032C26.2722 6.768 26.4175 6.544 26.6042 6.36C26.7935 6.176 27.0175 6.03467 27.2762 5.936C27.5375 5.83733 27.8269 5.788 28.1442 5.788ZM28.1442 9.144C28.4295 9.144 28.6389 9.044 28.7722 8.844C28.9082 8.64133 28.9762 8.33467 28.9762 7.924C28.9762 7.51333 28.9082 7.208 28.7722 7.008C28.6389 6.808 28.4295 6.708 28.1442 6.708C27.8509 6.708 27.6362 6.808 27.5002 7.008C27.3642 7.208 27.2962 7.51333 27.2962 7.924C27.2962 8.33467 27.3642 8.64133 27.5002 8.844C27.6362 9.044 27.8509 9.144 28.1442 9.144ZM32.0006 8.872C32.094 8.97333 32.1953 9.04533 32.3046 9.088C32.414 9.13067 32.5286 9.152 32.6486 9.152C32.7633 9.152 32.8686 9.12933 32.9646 9.084C33.0606 9.03867 33.1433 8.96667 33.2126 8.868C33.2846 8.76667 33.3406 8.636 33.3806 8.476C33.4206 8.316 33.4406 8.12133 33.4406 7.892C33.4406 7.67333 33.4246 7.48933 33.3926 7.34C33.3606 7.19067 33.3153 7.07067 33.2566 6.98C33.2006 6.88667 33.1326 6.82 33.0526 6.78C32.9726 6.74 32.8833 6.72 32.7846 6.72C32.6033 6.72 32.454 6.75333 32.3366 6.82C32.2193 6.88667 32.1073 6.984 32.0006 7.112V8.872ZM31.9246 6.364C32.0873 6.19067 32.2713 6.04933 32.4766 5.94C32.6846 5.828 32.9313 5.772 33.2166 5.772C33.4326 5.772 33.6326 5.82 33.8166 5.916C34.0006 6.012 34.1593 6.15067 34.2926 6.332C34.426 6.51333 34.53 6.736 34.6046 7C34.682 7.26133 34.7206 7.55867 34.7206 7.892C34.7206 8.204 34.6766 8.492 34.5886 8.756C34.5033 9.02 34.382 9.24933 34.2246 9.444C34.07 9.63867 33.8833 9.79067 33.6646 9.9C33.4486 10.0093 33.2086 10.064 32.9446 10.064C32.7286 10.064 32.5473 10.0333 32.4006 9.972C32.254 9.91067 32.1206 9.828 32.0006 9.724V11.316H30.7606V5.852H31.5286C31.6833 5.852 31.7846 5.92133 31.8326 6.06L31.9246 6.364ZM37.8222 7.428C37.8222 7.32933 37.8089 7.23333 37.7822 7.14C37.7582 7.04667 37.7169 6.964 37.6582 6.892C37.6022 6.81733 37.5275 6.75733 37.4342 6.712C37.3409 6.66667 37.2275 6.644 37.0942 6.644C36.8595 6.644 36.6755 6.712 36.5422 6.848C36.4089 6.98133 36.3209 7.17467 36.2782 7.428H37.8222ZM36.2622 8.148C36.3022 8.49467 36.4075 8.74667 36.5782 8.904C36.7489 9.05867 36.9689 9.136 37.2382 9.136C37.3822 9.136 37.5062 9.11867 37.6102 9.084C37.7142 9.04933 37.8062 9.01067 37.8862 8.968C37.9689 8.92533 38.0435 8.88667 38.1102 8.852C38.1795 8.81733 38.2515 8.8 38.3262 8.8C38.4249 8.8 38.4995 8.836 38.5502 8.908L38.9102 9.352C38.7822 9.49867 38.6435 9.61867 38.4942 9.712C38.3475 9.80267 38.1955 9.87467 38.0382 9.928C37.8835 9.97867 37.7275 10.0133 37.5702 10.032C37.4155 10.0533 37.2675 10.064 37.1262 10.064C36.8355 10.064 36.5622 10.0173 36.3062 9.924C36.0529 9.828 35.8302 9.68667 35.6382 9.5C35.4489 9.31333 35.2982 9.08133 35.1862 8.804C35.0769 8.52667 35.0222 8.204 35.0222 7.836C35.0222 7.55867 35.0689 7.296 35.1622 7.048C35.2582 6.8 35.3942 6.58267 35.5702 6.396C35.7489 6.20933 35.9635 6.06133 36.2142 5.952C36.4675 5.84267 36.7529 5.788 37.0702 5.788C37.3449 5.788 37.5955 5.83067 37.8222 5.916C38.0515 6.00133 38.2475 6.12533 38.4102 6.288C38.5755 6.45067 38.7035 6.65067 38.7942 6.888C38.8875 7.12267 38.9342 7.38933 38.9342 7.688C38.9342 7.78133 38.9302 7.85733 38.9222 7.916C38.9142 7.97467 38.8995 8.02133 38.8782 8.056C38.8569 8.09067 38.8275 8.11467 38.7902 8.128C38.7555 8.14133 38.7102 8.148 38.6542 8.148H36.2622Z" fill="white"/>
<g opacity="0.75">
<rect x="44.5" y="12" width="10" height="1" transform="rotate(-90 44.5 12)" fill="black"/>
</g>
<path d="M63.5983 8.92V10H60.0863V4.172H61.4383V8.92H63.5983ZM65.5295 5.212V6.688H67.5215V7.732H65.5295V10H64.1695V4.172H67.9215V5.212H65.5295ZM74.246 7.084C74.246 7.50533 74.1727 7.89733 74.026 8.26C73.882 8.62267 73.678 8.93867 73.414 9.208C73.15 9.47467 72.8314 9.684 72.458 9.836C72.0874 9.988 71.6754 10.064 71.222 10.064C70.7687 10.064 70.3554 9.988 69.982 9.836C69.6087 9.684 69.2887 9.47467 69.022 9.208C68.758 8.93867 68.5527 8.62267 68.406 8.26C68.262 7.89733 68.19 7.50533 68.19 7.084C68.19 6.66267 68.262 6.27067 68.406 5.908C68.5527 5.54533 68.758 5.23067 69.022 4.964C69.2887 4.69733 69.6087 4.488 69.982 4.336C70.3554 4.184 70.7687 4.108 71.222 4.108C71.6754 4.108 72.0874 4.18533 72.458 4.34C72.8314 4.492 73.15 4.70133 73.414 4.968C73.678 5.23467 73.882 5.54933 74.026 5.912C74.1727 6.27467 74.246 6.66533 74.246 7.084ZM72.862 7.084C72.862 6.796 72.8247 6.53733 72.75 6.308C72.6754 6.076 72.5674 5.88 72.426 5.72C72.2874 5.56 72.1167 5.43733 71.914 5.352C71.7114 5.26667 71.4807 5.224 71.222 5.224C70.9607 5.224 70.7274 5.26667 70.522 5.352C70.3194 5.43733 70.1474 5.56 70.006 5.72C69.8674 5.88 69.7607 6.076 69.686 6.308C69.6114 6.53733 69.574 6.796 69.574 7.084C69.574 7.37467 69.6114 7.636 69.686 7.868C69.7607 8.09733 69.8674 8.292 70.006 8.452C70.1474 8.612 70.3194 8.73467 70.522 8.82C70.7274 8.90267 70.9607 8.944 71.222 8.944C71.4807 8.944 71.7114 8.90267 71.914 8.82C72.1167 8.73467 72.2874 8.612 72.426 8.452C72.5674 8.292 72.6754 8.09733 72.75 7.868C72.8247 7.636 72.862 7.37467 72.862 7.084Z" fill="#B4B4B4"/>
<path d="M2.5 1H87.5V0H2.5V1ZM89 2.5V11.5H90V2.5H89ZM87.5 13H2.5V14H87.5V13ZM1 11.5V2.5H0V11.5H1ZM2.5 13C1.67157 13 1 12.3284 1 11.5H0C0 12.8807 1.11929 14 2.5 14V13ZM89 11.5C89 12.3284 88.3284 13 87.5 13V14C88.8807 14 90 12.8807 90 11.5H89ZM87.5 1C88.3284 1 89 1.67157 89 2.5H90C90 1.11929 88.8807 0 87.5 0V1ZM2.5 0C1.11929 0 0 1.11929 0 2.5H1C1 1.67157 1.67157 1 2.5 1V0Z" fill="black"/>
<path d="M0.5 16.5C0.5 15.3954 1.39543 14.5 2.5 14.5H87.5C88.6046 14.5 89.5 15.3954 89.5 16.5V25.5C89.5 26.6046 88.6046 27.5 87.5 27.5H2.5C1.39543 27.5 0.5 26.6046 0.5 25.5V16.5Z" fill="#242424"/>
<path d="M8.78931 19.212V20.572H10.6213V21.572H8.78931V22.96H11.1813V24H7.42931V18.172H11.1813V19.212H8.78931ZM12.8328 20.3C12.9128 20.2253 12.9954 20.156 13.0808 20.092C13.1661 20.028 13.2568 19.9747 13.3528 19.932C13.4514 19.8867 13.5568 19.852 13.6688 19.828C13.7834 19.8013 13.9074 19.788 14.0408 19.788C14.2674 19.788 14.4674 19.828 14.6408 19.908C14.8168 19.9853 14.9648 20.0947 15.0848 20.236C15.2048 20.3747 15.2954 20.5413 15.3568 20.736C15.4181 20.928 15.4488 21.1373 15.4488 21.364V24H14.2088V21.364C14.2088 21.1613 14.1621 21.004 14.0688 20.892C13.9754 20.7773 13.8381 20.72 13.6568 20.72C13.5208 20.72 13.3928 20.7493 13.2728 20.808C13.1554 20.864 13.0408 20.9413 12.9288 21.04V24H11.6888V19.852H12.4568C12.6114 19.852 12.7128 19.9213 12.7608 20.06L12.8328 20.3ZM19.9377 19.852L18.3297 24H17.2017L15.5937 19.852H16.6257C16.7137 19.852 16.787 19.8733 16.8457 19.916C16.907 19.956 16.9484 20.0067 16.9697 20.068L17.5457 21.928C17.5964 22.08 17.6404 22.228 17.6777 22.372C17.7177 22.516 17.7524 22.66 17.7817 22.804C17.8404 22.516 17.9217 22.224 18.0257 21.928L18.6257 20.068C18.647 20.0067 18.687 19.956 18.7457 19.916C18.8044 19.8733 18.8737 19.852 18.9537 19.852H19.9377ZM22.6616 21.428C22.6616 21.3293 22.6482 21.2333 22.6216 21.14C22.5976 21.0467 22.5562 20.964 22.4976 20.892C22.4416 20.8173 22.3669 20.7573 22.2736 20.712C22.1802 20.6667 22.0669 20.644 21.9336 20.644C21.6989 20.644 21.5149 20.712 21.3816 20.848C21.2482 20.9813 21.1602 21.1747 21.1176 21.428H22.6616ZM21.1016 22.148C21.1416 22.4947 21.2469 22.7467 21.4176 22.904C21.5882 23.0587 21.8082 23.136 22.0776 23.136C22.2216 23.136 22.3456 23.1187 22.4496 23.084C22.5536 23.0493 22.6456 23.0107 22.7256 22.968C22.8082 22.9253 22.8829 22.8867 22.9496 22.852C23.0189 22.8173 23.0909 22.8 23.1656 22.8C23.2642 22.8 23.3389 22.836 23.3896 22.908L23.7496 23.352C23.6216 23.4987 23.4829 23.6187 23.3336 23.712C23.1869 23.8027 23.0349 23.8747 22.8776 23.928C22.7229 23.9787 22.5669 24.0133 22.4096 24.032C22.2549 24.0533 22.1069 24.064 21.9656 24.064C21.6749 24.064 21.4016 24.0173 21.1456 23.924C20.8922 23.828 20.6696 23.6867 20.4776 23.5C20.2882 23.3133 20.1376 23.0813 20.0256 22.804C19.9162 22.5267 19.8616 22.204 19.8616 21.836C19.8616 21.5587 19.9082 21.296 20.0016 21.048C20.0976 20.8 20.2336 20.5827 20.4096 20.396C20.5882 20.2093 20.8029 20.0613 21.0536 19.952C21.3069 19.8427 21.5922 19.788 21.9096 19.788C22.1842 19.788 22.4349 19.8307 22.6616 19.916C22.8909 20.0013 23.0869 20.1253 23.2496 20.288C23.4149 20.4507 23.5429 20.6507 23.6336 20.888C23.7269 21.1227 23.7736 21.3893 23.7736 21.688C23.7736 21.7813 23.7696 21.8573 23.7616 21.916C23.7536 21.9747 23.7389 22.0213 23.7176 22.056C23.6962 22.0907 23.6669 22.1147 23.6296 22.128C23.5949 22.1413 23.5496 22.148 23.4936 22.148H21.1016ZM25.5141 18.012V24H24.2741V18.012H25.5141ZM28.1442 19.788C28.4589 19.788 28.7455 19.8373 29.0042 19.936C29.2629 20.0347 29.4842 20.176 29.6682 20.36C29.8549 20.544 29.9989 20.768 30.1002 21.032C30.2042 21.2933 30.2562 21.588 30.2562 21.916C30.2562 22.2467 30.2042 22.5453 30.1002 22.812C29.9989 23.076 29.8549 23.3013 29.6682 23.488C29.4842 23.672 29.2629 23.8147 29.0042 23.916C28.7455 24.0147 28.4589 24.064 28.1442 24.064C27.8269 24.064 27.5375 24.0147 27.2762 23.916C27.0175 23.8147 26.7935 23.672 26.6042 23.488C26.4175 23.3013 26.2722 23.076 26.1682 22.812C26.0669 22.5453 26.0162 22.2467 26.0162 21.916C26.0162 21.588 26.0669 21.2933 26.1682 21.032C26.2722 20.768 26.4175 20.544 26.6042 20.36C26.7935 20.176 27.0175 20.0347 27.2762 19.936C27.5375 19.8373 27.8269 19.788 28.1442 19.788ZM28.1442 23.144C28.4295 23.144 28.6389 23.044 28.7722 22.844C28.9082 22.6413 28.9762 22.3347 28.9762 21.924C28.9762 21.5133 28.9082 21.208 28.7722 21.008C28.6389 20.808 28.4295 20.708 28.1442 20.708C27.8509 20.708 27.6362 20.808 27.5002 21.008C27.3642 21.208 27.2962 21.5133 27.2962 21.924C27.2962 22.3347 27.3642 22.6413 27.5002 22.844C27.6362 23.044 27.8509 23.144 28.1442 23.144ZM32.0006 22.872C32.094 22.9733 32.1953 23.0453 32.3046 23.088C32.414 23.1307 32.5286 23.152 32.6486 23.152C32.7633 23.152 32.8686 23.1293 32.9646 23.084C33.0606 23.0387 33.1433 22.9667 33.2126 22.868C33.2846 22.7667 33.3406 22.636 33.3806 22.476C33.4206 22.316 33.4406 22.1213 33.4406 21.892C33.4406 21.6733 33.4246 21.4893 33.3926 21.34C33.3606 21.1907 33.3153 21.0707 33.2566 20.98C33.2006 20.8867 33.1326 20.82 33.0526 20.78C32.9726 20.74 32.8833 20.72 32.7846 20.72C32.6033 20.72 32.454 20.7533 32.3366 20.82C32.2193 20.8867 32.1073 20.984 32.0006 21.112V22.872ZM31.9246 20.364C32.0873 20.1907 32.2713 20.0493 32.4766 19.94C32.6846 19.828 32.9313 19.772 33.2166 19.772C33.4326 19.772 33.6326 19.82 33.8166 19.916C34.0006 20.012 34.1593 20.1507 34.2926 20.332C34.426 20.5133 34.53 20.736 34.6046 21C34.682 21.2613 34.7206 21.5587 34.7206 21.892C34.7206 22.204 34.6766 22.492 34.5886 22.756C34.5033 23.02 34.382 23.2493 34.2246 23.444C34.07 23.6387 33.8833 23.7907 33.6646 23.9C33.4486 24.0093 33.2086 24.064 32.9446 24.064C32.7286 24.064 32.5473 24.0333 32.4006 23.972C32.254 23.9107 32.1206 23.828 32.0006 23.724V25.316H30.7606V19.852H31.5286C31.6833 19.852 31.7846 19.9213 31.8326 20.06L31.9246 20.364ZM37.8222 21.428C37.8222 21.3293 37.8089 21.2333 37.7822 21.14C37.7582 21.0467 37.7169 20.964 37.6582 20.892C37.6022 20.8173 37.5275 20.7573 37.4342 20.712C37.3409 20.6667 37.2275 20.644 37.0942 20.644C36.8595 20.644 36.6755 20.712 36.5422 20.848C36.4089 20.9813 36.3209 21.1747 36.2782 21.428H37.8222ZM36.2622 22.148C36.3022 22.4947 36.4075 22.7467 36.5782 22.904C36.7489 23.0587 36.9689 23.136 37.2382 23.136C37.3822 23.136 37.5062 23.1187 37.6102 23.084C37.7142 23.0493 37.8062 23.0107 37.8862 22.968C37.9689 22.9253 38.0435 22.8867 38.1102 22.852C38.1795 22.8173 38.2515 22.8 38.3262 22.8C38.4249 22.8 38.4995 22.836 38.5502 22.908L38.9102 23.352C38.7822 23.4987 38.6435 23.6187 38.4942 23.712C38.3475 23.8027 38.1955 23.8747 38.0382 23.928C37.8835 23.9787 37.7275 24.0133 37.5702 24.032C37.4155 24.0533 37.2675 24.064 37.1262 24.064C36.8355 24.064 36.5622 24.0173 36.3062 23.924C36.0529 23.828 35.8302 23.6867 35.6382 23.5C35.4489 23.3133 35.2982 23.0813 35.1862 22.804C35.0769 22.5267 35.0222 22.204 35.0222 21.836C35.0222 21.5587 35.0689 21.296 35.1622 21.048C35.2582 20.8 35.3942 20.5827 35.5702 20.396C35.7489 20.2093 35.9635 20.0613 36.2142 19.952C36.4675 19.8427 36.7529 19.788 37.0702 19.788C37.3449 19.788 37.5955 19.8307 37.8222 19.916C38.0515 20.0013 38.2475 20.1253 38.4102 20.288C38.5755 20.4507 38.7035 20.6507 38.7942 20.888C38.8875 21.1227 38.9342 21.3893 38.9342 21.688C38.9342 21.7813 38.9302 21.8573 38.9222 21.916C38.9142 21.9747 38.8995 22.0213 38.8782 22.056C38.8569 22.0907 38.8275 22.1147 38.7902 22.128C38.7555 22.1413 38.7102 22.148 38.6542 22.148H36.2622Z" fill="#B4B4B4"/>
<g opacity="0.75">
<rect x="44.5" y="26" width="10" height="1" transform="rotate(-90 44.5 26)" fill="black"/>
</g>
<rect x="46.5" y="16.5" width="41" height="9" rx="1" fill="#399DFF"/>
<rect x="46.5" y="16.5" width="41" height="9" rx="1" stroke="#399DFF"/>
<path d="M63.5983 22.92V24H60.0863V18.172H61.4383V22.92H63.5983ZM65.5295 19.212V20.688H67.5215V21.732H65.5295V24H64.1695V18.172H67.9215V19.212H65.5295ZM74.246 21.084C74.246 21.5053 74.1727 21.8973 74.026 22.26C73.882 22.6227 73.678 22.9387 73.414 23.208C73.15 23.4747 72.8314 23.684 72.458 23.836C72.0874 23.988 71.6754 24.064 71.222 24.064C70.7687 24.064 70.3554 23.988 69.982 23.836C69.6087 23.684 69.2887 23.4747 69.022 23.208C68.758 22.9387 68.5527 22.6227 68.406 22.26C68.262 21.8973 68.19 21.5053 68.19 21.084C68.19 20.6627 68.262 20.2707 68.406 19.908C68.5527 19.5453 68.758 19.2307 69.022 18.964C69.2887 18.6973 69.6087 18.488 69.982 18.336C70.3554 18.184 70.7687 18.108 71.222 18.108C71.6754 18.108 72.0874 18.1853 72.458 18.34C72.8314 18.492 73.15 18.7013 73.414 18.968C73.678 19.2347 73.882 19.5493 74.026 19.912C74.1727 20.2747 74.246 20.6653 74.246 21.084ZM72.862 21.084C72.862 20.796 72.8247 20.5373 72.75 20.308C72.6754 20.076 72.5674 19.88 72.426 19.72C72.2874 19.56 72.1167 19.4373 71.914 19.352C71.7114 19.2667 71.4807 19.224 71.222 19.224C70.9607 19.224 70.7274 19.2667 70.522 19.352C70.3194 19.4373 70.1474 19.56 70.006 19.72C69.8674 19.88 69.7607 20.076 69.686 20.308C69.6114 20.5373 69.574 20.796 69.574 21.084C69.574 21.3747 69.6114 21.636 69.686 21.868C69.7607 22.0973 69.8674 22.292 70.006 22.452C70.1474 22.612 70.3194 22.7347 70.522 22.82C70.7274 22.9027 70.9607 22.944 71.222 22.944C71.4807 22.944 71.7114 22.9027 71.914 22.82C72.1167 22.7347 72.2874 22.612 72.426 22.452C72.5674 22.292 72.6754 22.0973 72.75 21.868C72.8247 21.636 72.862 21.3747 72.862 21.084Z" fill="white"/>
<path d="M2.5 15H87.5V14H2.5V15ZM89 16.5V25.5H90V16.5H89ZM87.5 27H2.5V28H87.5V27ZM1 25.5V16.5H0V25.5H1ZM2.5 27C1.67157 27 1 26.3284 1 25.5H0C0 26.8807 1.11929 28 2.5 28V27ZM89 25.5C89 26.3284 88.3284 27 87.5 27V28C88.8807 28 90 26.8807 90 25.5H89ZM87.5 15C88.3284 15 89 15.6716 89 16.5H90C90 15.1193 88.8807 14 87.5 14V15ZM2.5 14C1.11929 14 0 15.1193 0 16.5H1C1 15.6716 1.67157 15 2.5 15V14Z" fill="black"/>
</svg>
