<svg width="28" height="24" viewBox="0 0 28 24" fill="none" xmlns="http://www.w3.org/2000/svg">
<defs>
<linearGradient id="paint0_linear" x1="8.5" y1="14" x2="8.5" y2="20" gradientUnits="userSpaceOnUse">
<stop offset="0.520833"/>
<stop offset="1" stop-opacity="0"/>
</linearGradient>
<linearGradient id="paint1_linear" x1="8.5" y1="6" x2="8.5" y2="17" gradientUnits="userSpaceOnUse">
<stop stop-color="#FFBF00"/>
<stop offset="1" stop-color="#FF9000"/>
</linearGradient>
</defs>
<path d="M8.5 20C11.5376 20 14 17.3137 14 14C14 10.6863 11.5376 8 8.5 8C5.46243 8 3 10.6863 3 14C3 17.3137 5.46243 20 8.5 20Z" fill="url(#paint0_linear)"/>
<path d="M8.5 17C11.5376 17 14 14.5376 14 11.5C14 8.46243 11.5376 6 8.5 6C5.46243 6 3 8.46243 3 11.5C3 14.5376 5.46243 17 8.5 17Z" fill="url(#paint1_linear)"/>
<path d="M11.5 11.5C11.5 13.1569 10.1569 14.5 8.5 14.5C6.84315 14.5 5.5 13.1569 5.5 11.5C5.5 9.84315 6.84315 8.5 8.5 8.5C10.1569 8.5 11.5 9.84315 11.5 11.5Z" fill="#EEEEEE" stroke="#979797"/>
<path opacity="0.2" d="M9.5 11.25L7.5 11.25C7.22386 11.25 7 11.4739 7 11.75C7 12.0261 7.22386 12.25 7.5 12.25L9.5 12.25C9.77614 12.25 10 12.0261 10 11.75C10 11.4739 9.77614 11.25 9.5 11.25Z" fill="#EEEEEE"/>
<path d="M9.5 11L7.5 11C7.22386 11 7 11.2239 7 11.5C7 11.7761 7.22386 12 7.5 12L9.5 12C9.77614 12 10 11.7761 10 11.5C10 11.2239 9.77614 11 9.5 11Z" fill="#1F1F1F"/>
</svg>
