<svg width="32" height="24" viewBox="0 0 32 24" fill="none" xmlns="http://www.w3.org/2000/svg">
<path d="M2 8C2 9.10457 2.89543 10 4 10L14 10L14 2L4 2C2.89543 2 2 2.89543 2 4L2 8Z" fill="#399DFF"/>
<g clip-path="url(#clip0)">
<path fill-rule="evenodd" clip-rule="evenodd" d="M8 9L4 6L8 3L8 5L12 5L12 7L8 7L8 9Z" fill="white"/>
</g>
<path d="M30 20C30 21.1046 29.1046 22 28 22L18 22L18 14L28 14C29.1046 14 30 14.8954 30 16L30 20Z" fill="#399DFF"/>
<g clip-path="url(#clip1)">
<path fill-rule="evenodd" clip-rule="evenodd" d="M24 21L28 18L24 15L24 17L20 17L20 19L24 19L24 21Z" fill="white"/>
</g>
<defs>
<clipPath id="clip0">
<path d="M14 10L4 10C2.89543 10 2 9.10457 2 8L2 4C2 2.89543 2.89543 2 4 2L14 2L14 10Z" fill="white"/>
</clipPath>
<clipPath id="clip1">
<path d="M18 22L28 22C29.1046 22 30 21.1046 30 20L30 16C30 14.8954 29.1046 14 28 14L18 14L18 22Z" fill="white"/>
</clipPath>
</defs>
</svg>
