<svg width="50" height="282" viewBox="0 0 50 282" fill="none" xmlns="http://www.w3.org/2000/svg">
<rect x="1" y="55.25" width="48" height="7" rx="1" fill="#FF9000"/>
<rect x="1" y="55.25" width="48" height="7" rx="1" stroke="white"/>
<path d="M7.7265 56.6505V61.75H6.6835V58.817C6.6835 58.7493 6.68467 58.6758 6.687 58.5965C6.69167 58.5172 6.69867 58.4367 6.708 58.355L5.3535 60.9765C5.3115 61.0582 5.25433 61.12 5.182 61.162C5.112 61.204 5.0315 61.225 4.9405 61.225H4.7795C4.6885 61.225 4.60683 61.204 4.5345 61.162C4.4645 61.12 4.4085 61.0582 4.3665 60.9765L3.012 58.348C3.019 58.432 3.02483 58.5148 3.0295 58.5965C3.03417 58.6758 3.0365 58.7493 3.0365 58.817V61.75H1.9935V56.6505H2.8965C2.94783 56.6505 2.99217 56.6517 3.0295 56.654C3.06917 56.6563 3.10417 56.6633 3.1345 56.675C3.16483 56.6867 3.19167 56.7053 3.215 56.731C3.24067 56.7543 3.26517 56.7882 3.2885 56.8325L4.601 59.419C4.64767 59.5077 4.692 59.5998 4.734 59.6955C4.77833 59.7912 4.82033 59.8892 4.86 59.9895C4.89967 59.8868 4.9405 59.7865 4.9825 59.6885C5.02683 59.5905 5.0735 59.4972 5.1225 59.4085L6.4315 56.8325C6.45483 56.7882 6.47817 56.7543 6.5015 56.731C6.52717 56.7053 6.55517 56.6867 6.5855 56.675C6.61583 56.6633 6.64967 56.6563 6.687 56.654C6.72667 56.6517 6.77217 56.6505 6.8235 56.6505H7.7265ZM13.6132 59.1985C13.6132 59.5672 13.5491 59.9102 13.4207 60.2275C13.2947 60.5448 13.1162 60.8213 12.8852 61.057C12.6542 61.2903 12.3754 61.4735 12.0487 61.6065C11.7244 61.7395 11.3639 61.806 10.9672 61.806C10.5706 61.806 10.2089 61.7395 9.88223 61.6065C9.55556 61.4735 9.27556 61.2903 9.04223 61.057C8.81123 60.8213 8.63156 60.5448 8.50323 60.2275C8.37723 59.9102 8.31423 59.5672 8.31423 59.1985C8.31423 58.8298 8.37723 58.4868 8.50323 58.1695C8.63156 57.8522 8.81123 57.5768 9.04223 57.3435C9.27556 57.1102 9.55556 56.927 9.88223 56.794C10.2089 56.661 10.5706 56.5945 10.9672 56.5945C11.3639 56.5945 11.7244 56.6622 12.0487 56.7975C12.3754 56.9305 12.6542 57.1137 12.8852 57.347C13.1162 57.5803 13.2947 57.8557 13.4207 58.173C13.5491 58.4903 13.6132 58.8322 13.6132 59.1985ZM12.4022 59.1985C12.4022 58.9465 12.3696 58.7202 12.3042 58.5195C12.2389 58.3165 12.1444 58.145 12.0207 58.005C11.8994 57.865 11.7501 57.7577 11.5727 57.683C11.3954 57.6083 11.1936 57.571 10.9672 57.571C10.7386 57.571 10.5344 57.6083 10.3547 57.683C10.1774 57.7577 10.0269 57.865 9.90323 58.005C9.78189 58.145 9.68856 58.3165 9.62323 58.5195C9.55789 58.7202 9.52523 58.9465 9.52523 59.1985C9.52523 59.4528 9.55789 59.6815 9.62323 59.8845C9.68856 60.0852 9.78189 60.2555 9.90323 60.3955C10.0269 60.5355 10.1774 60.6428 10.3547 60.7175C10.5344 60.7898 10.7386 60.826 10.9672 60.826C11.1936 60.826 11.3954 60.7898 11.5727 60.7175C11.7501 60.6428 11.8994 60.5355 12.0207 60.3955C12.1444 60.2555 12.2389 60.0852 12.3042 59.8845C12.3696 59.6815 12.4022 59.4528 12.4022 59.1985ZM18.6564 56.6505V61.75H18.0404C17.9494 61.75 17.8724 61.736 17.8094 61.708C17.7487 61.6777 17.6881 61.6263 17.6274 61.554L15.2229 58.5125C15.2322 58.6035 15.2381 58.6922 15.2404 58.7785C15.2451 58.8625 15.2474 58.9418 15.2474 59.0165V61.75H14.2044V56.6505H14.8274C14.8787 56.6505 14.9219 56.6528 14.9569 56.6575C14.9919 56.6622 15.0234 56.6715 15.0514 56.6855C15.0794 56.6972 15.1062 56.7147 15.1319 56.738C15.1576 56.7613 15.1867 56.7928 15.2194 56.8325L17.6449 59.895C17.6332 59.797 17.6251 59.7025 17.6204 59.6115C17.6157 59.5182 17.6134 59.4307 17.6134 59.349V56.6505H18.6564ZM24.5458 59.1985C24.5458 59.5672 24.4816 59.9102 24.3533 60.2275C24.2273 60.5448 24.0488 60.8213 23.8178 61.057C23.5868 61.2903 23.308 61.4735 22.9813 61.6065C22.657 61.7395 22.2965 61.806 21.8998 61.806C21.5031 61.806 21.1415 61.7395 20.8148 61.6065C20.4881 61.4735 20.2081 61.2903 19.9748 61.057C19.7438 60.8213 19.5641 60.5448 19.4358 60.2275C19.3098 59.9102 19.2468 59.5672 19.2468 59.1985C19.2468 58.8298 19.3098 58.4868 19.4358 58.1695C19.5641 57.8522 19.7438 57.5768 19.9748 57.3435C20.2081 57.1102 20.4881 56.927 20.8148 56.794C21.1415 56.661 21.5031 56.5945 21.8998 56.5945C22.2965 56.5945 22.657 56.6622 22.9813 56.7975C23.308 56.9305 23.5868 57.1137 23.8178 57.347C24.0488 57.5803 24.2273 57.8557 24.3533 58.173C24.4816 58.4903 24.5458 58.8322 24.5458 59.1985ZM23.3348 59.1985C23.3348 58.9465 23.3021 58.7202 23.2368 58.5195C23.1715 58.3165 23.077 58.145 22.9533 58.005C22.832 57.865 22.6826 57.7577 22.5053 57.683C22.328 57.6083 22.1261 57.571 21.8998 57.571C21.6711 57.571 21.467 57.6083 21.2873 57.683C21.11 57.7577 20.9595 57.865 20.8358 58.005C20.7145 58.145 20.6211 58.3165 20.5558 58.5195C20.4905 58.7202 20.4578 58.9465 20.4578 59.1985C20.4578 59.4528 20.4905 59.6815 20.5558 59.8845C20.6211 60.0852 20.7145 60.2555 20.8358 60.3955C20.9595 60.5355 21.11 60.6428 21.2873 60.7175C21.467 60.7898 21.6711 60.826 21.8998 60.826C22.1261 60.826 22.328 60.7898 22.5053 60.7175C22.6826 60.6428 22.832 60.5355 22.9533 60.3955C23.077 60.2555 23.1715 60.0852 23.2368 59.8845C23.3021 59.6815 23.3348 59.4528 23.3348 59.1985Z" fill="black"/>
<rect x="1" y="110" width="48" height="7" rx="1" fill="#FF9000"/>
<rect x="1" y="110" width="48" height="7" rx="1" stroke="white"/>
<path d="M7.7265 111.4V116.5H6.6835V113.567C6.6835 113.499 6.68467 113.426 6.687 113.346C6.69167 113.267 6.69867 113.187 6.708 113.105L5.3535 115.726C5.3115 115.808 5.25433 115.87 5.182 115.912C5.112 115.954 5.0315 115.975 4.9405 115.975H4.7795C4.6885 115.975 4.60683 115.954 4.5345 115.912C4.4645 115.87 4.4085 115.808 4.3665 115.726L3.012 113.098C3.019 113.182 3.02483 113.265 3.0295 113.346C3.03417 113.426 3.0365 113.499 3.0365 113.567V116.5H1.9935V111.4H2.8965C2.94783 111.4 2.99217 111.402 3.0295 111.404C3.06917 111.406 3.10417 111.413 3.1345 111.425C3.16483 111.437 3.19167 111.455 3.215 111.481C3.24067 111.504 3.26517 111.538 3.2885 111.582L4.601 114.169C4.64767 114.258 4.692 114.35 4.734 114.445C4.77833 114.541 4.82033 114.639 4.86 114.739C4.89967 114.637 4.9405 114.536 4.9825 114.438C5.02683 114.34 5.0735 114.247 5.1225 114.158L6.4315 111.582C6.45483 111.538 6.47817 111.504 6.5015 111.481C6.52717 111.455 6.55517 111.437 6.5855 111.425C6.61583 111.413 6.64967 111.406 6.687 111.404C6.72667 111.402 6.77217 111.4 6.8235 111.4H7.7265ZM13.6132 113.948C13.6132 114.317 13.5491 114.66 13.4207 114.977C13.2947 115.295 13.1162 115.571 12.8852 115.807C12.6542 116.04 12.3754 116.223 12.0487 116.356C11.7244 116.49 11.3639 116.556 10.9672 116.556C10.5706 116.556 10.2089 116.49 9.88223 116.356C9.55556 116.223 9.27556 116.04 9.04223 115.807C8.81123 115.571 8.63156 115.295 8.50323 114.977C8.37723 114.66 8.31423 114.317 8.31423 113.948C8.31423 113.58 8.37723 113.237 8.50323 112.919C8.63156 112.602 8.81123 112.327 9.04223 112.093C9.27556 111.86 9.55556 111.677 9.88223 111.544C10.2089 111.411 10.5706 111.344 10.9672 111.344C11.3639 111.344 11.7244 111.412 12.0487 111.547C12.3754 111.68 12.6542 111.864 12.8852 112.097C13.1162 112.33 13.2947 112.606 13.4207 112.923C13.5491 113.24 13.6132 113.582 13.6132 113.948ZM12.4022 113.948C12.4022 113.696 12.3696 113.47 12.3042 113.269C12.2389 113.066 12.1444 112.895 12.0207 112.755C11.8994 112.615 11.7501 112.508 11.5727 112.433C11.3954 112.358 11.1936 112.321 10.9672 112.321C10.7386 112.321 10.5344 112.358 10.3547 112.433C10.1774 112.508 10.0269 112.615 9.90323 112.755C9.78189 112.895 9.68856 113.066 9.62323 113.269C9.55789 113.47 9.52523 113.696 9.52523 113.948C9.52523 114.203 9.55789 114.431 9.62323 114.634C9.68856 114.835 9.78189 115.005 9.90323 115.145C10.0269 115.285 10.1774 115.393 10.3547 115.467C10.5344 115.54 10.7386 115.576 10.9672 115.576C11.1936 115.576 11.3954 115.54 11.5727 115.467C11.7501 115.393 11.8994 115.285 12.0207 115.145C12.1444 115.005 12.2389 114.835 12.3042 114.634C12.3696 114.431 12.4022 114.203 12.4022 113.948ZM18.6564 111.4V116.5H18.0404C17.9494 116.5 17.8724 116.486 17.8094 116.458C17.7487 116.428 17.6881 116.376 17.6274 116.304L15.2229 113.262C15.2322 113.353 15.2381 113.442 15.2404 113.528C15.2451 113.612 15.2474 113.692 15.2474 113.766V116.5H14.2044V111.4H14.8274C14.8787 111.4 14.9219 111.403 14.9569 111.407C14.9919 111.412 15.0234 111.421 15.0514 111.435C15.0794 111.447 15.1062 111.465 15.1319 111.488C15.1576 111.511 15.1867 111.543 15.2194 111.582L17.6449 114.645C17.6332 114.547 17.6251 114.452 17.6204 114.361C17.6157 114.268 17.6134 114.181 17.6134 114.099V111.4H18.6564ZM24.5458 113.948C24.5458 114.317 24.4816 114.66 24.3533 114.977C24.2273 115.295 24.0488 115.571 23.8178 115.807C23.5868 116.04 23.308 116.223 22.9813 116.356C22.657 116.49 22.2965 116.556 21.8998 116.556C21.5031 116.556 21.1415 116.49 20.8148 116.356C20.4881 116.223 20.2081 116.04 19.9748 115.807C19.7438 115.571 19.5641 115.295 19.4358 114.977C19.3098 114.66 19.2468 114.317 19.2468 113.948C19.2468 113.58 19.3098 113.237 19.4358 112.919C19.5641 112.602 19.7438 112.327 19.9748 112.093C20.2081 111.86 20.4881 111.677 20.8148 111.544C21.1415 111.411 21.5031 111.344 21.8998 111.344C22.2965 111.344 22.657 111.412 22.9813 111.547C23.308 111.68 23.5868 111.864 23.8178 112.097C24.0488 112.33 24.2273 112.606 24.3533 112.923C24.4816 113.24 24.5458 113.582 24.5458 113.948ZM23.3348 113.948C23.3348 113.696 23.3021 113.47 23.2368 113.269C23.1715 113.066 23.077 112.895 22.9533 112.755C22.832 112.615 22.6826 112.508 22.5053 112.433C22.328 112.358 22.1261 112.321 21.8998 112.321C21.6711 112.321 21.467 112.358 21.2873 112.433C21.11 112.508 20.9595 112.615 20.8358 112.755C20.7145 112.895 20.6211 113.066 20.5558 113.269C20.4905 113.47 20.4578 113.696 20.4578 113.948C20.4578 114.203 20.4905 114.431 20.5558 114.634C20.6211 114.835 20.7145 115.005 20.8358 115.145C20.9595 115.285 21.11 115.393 21.2873 115.467C21.467 115.54 21.6711 115.576 21.8998 115.576C22.1261 115.576 22.328 115.54 22.5053 115.467C22.6826 115.393 22.832 115.285 22.9533 115.145C23.077 115.005 23.1715 114.835 23.2368 114.634C23.3021 114.431 23.3348 114.203 23.3348 113.948ZM29.4696 112.436C29.4346 112.492 29.3973 112.534 29.3576 112.562C29.3203 112.59 29.2713 112.604 29.2106 112.604C29.1569 112.604 29.0986 112.588 29.0356 112.555C28.9749 112.52 28.9049 112.482 28.8256 112.44C28.7486 112.398 28.6599 112.361 28.5596 112.328C28.4593 112.293 28.3449 112.275 28.2166 112.275C27.9949 112.275 27.8293 112.323 27.7196 112.419C27.6123 112.512 27.5586 112.639 27.5586 112.8C27.5586 112.903 27.5913 112.988 27.6566 113.056C27.7219 113.124 27.8071 113.182 27.9121 113.231C28.0194 113.28 28.1408 113.325 28.2761 113.367C28.4138 113.407 28.5538 113.453 28.6961 113.504C28.8384 113.553 28.9773 113.611 29.1126 113.679C29.2503 113.747 29.3716 113.833 29.4766 113.938C29.5839 114.043 29.6703 114.171 29.7356 114.323C29.8009 114.472 29.8336 114.653 29.8336 114.865C29.8336 115.101 29.7928 115.322 29.7111 115.527C29.6294 115.732 29.5104 115.912 29.3541 116.066C29.2001 116.218 29.0088 116.338 28.7801 116.426C28.5538 116.513 28.2959 116.556 28.0066 116.556C27.8479 116.556 27.6858 116.54 27.5201 116.507C27.3568 116.474 27.1981 116.429 27.0441 116.37C26.8901 116.31 26.7454 116.239 26.6101 116.157C26.4748 116.075 26.3569 115.984 26.2566 115.884L26.6066 115.331C26.6346 115.291 26.6708 115.259 26.7151 115.233C26.7618 115.205 26.8119 115.191 26.8656 115.191C26.9356 115.191 27.0056 115.213 27.0756 115.257C27.1479 115.302 27.2284 115.351 27.3171 115.404C27.4081 115.458 27.5119 115.507 27.6286 115.551C27.7453 115.596 27.8829 115.618 28.0416 115.618C28.2563 115.618 28.4231 115.571 28.5421 115.478C28.6611 115.382 28.7206 115.232 28.7206 115.026C28.7206 114.907 28.6879 114.811 28.6226 114.736C28.5573 114.661 28.4709 114.599 28.3636 114.55C28.2586 114.501 28.1384 114.458 28.0031 114.421C27.8678 114.384 27.7289 114.343 27.5866 114.298C27.4443 114.252 27.3054 114.196 27.1701 114.13C27.0348 114.063 26.9134 113.975 26.8061 113.868C26.7011 113.758 26.6159 113.623 26.5506 113.462C26.4853 113.299 26.4526 113.098 26.4526 112.86C26.4526 112.669 26.4911 112.482 26.5681 112.3C26.6451 112.118 26.7583 111.956 26.9076 111.813C27.0569 111.671 27.2401 111.558 27.4571 111.474C27.6741 111.388 27.9226 111.344 28.2026 111.344C28.3589 111.344 28.5106 111.357 28.6576 111.383C28.8069 111.406 28.9481 111.442 29.0811 111.491C29.2141 111.538 29.3378 111.595 29.4521 111.663C29.5688 111.728 29.6726 111.803 29.7636 111.887L29.4696 112.436ZM34.0876 112.338H32.6526V116.5H31.4696V112.338H30.0346V111.4H34.0876V112.338Z" fill="black"/>
<rect x="1" y="164.75" width="48" height="7" rx="1" fill="#FF9000"/>
<rect x="1" y="164.75" width="48" height="7" rx="1" stroke="white"/>
<path d="M7.7265 166.15V171.25H6.6835V168.317C6.6835 168.249 6.68467 168.176 6.687 168.096C6.69167 168.017 6.69867 167.937 6.708 167.855L5.3535 170.476C5.3115 170.558 5.25433 170.62 5.182 170.662C5.112 170.704 5.0315 170.725 4.9405 170.725H4.7795C4.6885 170.725 4.60683 170.704 4.5345 170.662C4.4645 170.62 4.4085 170.558 4.3665 170.476L3.012 167.848C3.019 167.932 3.02483 168.015 3.0295 168.096C3.03417 168.176 3.0365 168.249 3.0365 168.317V171.25H1.9935V166.15H2.8965C2.94783 166.15 2.99217 166.152 3.0295 166.154C3.06917 166.156 3.10417 166.163 3.1345 166.175C3.16483 166.187 3.19167 166.205 3.215 166.231C3.24067 166.254 3.26517 166.288 3.2885 166.332L4.601 168.919C4.64767 169.008 4.692 169.1 4.734 169.195C4.77833 169.291 4.82033 169.389 4.86 169.489C4.89967 169.387 4.9405 169.286 4.9825 169.188C5.02683 169.09 5.0735 168.997 5.1225 168.908L6.4315 166.332C6.45483 166.288 6.47817 166.254 6.5015 166.231C6.52717 166.205 6.55517 166.187 6.5855 166.175C6.61583 166.163 6.64967 166.156 6.687 166.154C6.72667 166.152 6.77217 166.15 6.8235 166.15H7.7265ZM13.6132 168.698C13.6132 169.067 13.5491 169.41 13.4207 169.727C13.2947 170.045 13.1162 170.321 12.8852 170.557C12.6542 170.79 12.3754 170.973 12.0487 171.106C11.7244 171.24 11.3639 171.306 10.9672 171.306C10.5706 171.306 10.2089 171.24 9.88223 171.106C9.55556 170.973 9.27556 170.79 9.04223 170.557C8.81123 170.321 8.63156 170.045 8.50323 169.727C8.37723 169.41 8.31423 169.067 8.31423 168.698C8.31423 168.33 8.37723 167.987 8.50323 167.669C8.63156 167.352 8.81123 167.077 9.04223 166.843C9.27556 166.61 9.55556 166.427 9.88223 166.294C10.2089 166.161 10.5706 166.094 10.9672 166.094C11.3639 166.094 11.7244 166.162 12.0487 166.297C12.3754 166.43 12.6542 166.614 12.8852 166.847C13.1162 167.08 13.2947 167.356 13.4207 167.673C13.5491 167.99 13.6132 168.332 13.6132 168.698ZM12.4022 168.698C12.4022 168.446 12.3696 168.22 12.3042 168.019C12.2389 167.816 12.1444 167.645 12.0207 167.505C11.8994 167.365 11.7501 167.258 11.5727 167.183C11.3954 167.108 11.1936 167.071 10.9672 167.071C10.7386 167.071 10.5344 167.108 10.3547 167.183C10.1774 167.258 10.0269 167.365 9.90323 167.505C9.78189 167.645 9.68856 167.816 9.62323 168.019C9.55789 168.22 9.52523 168.446 9.52523 168.698C9.52523 168.953 9.55789 169.181 9.62323 169.384C9.68856 169.585 9.78189 169.755 9.90323 169.895C10.0269 170.035 10.1774 170.143 10.3547 170.217C10.5344 170.29 10.7386 170.326 10.9672 170.326C11.1936 170.326 11.3954 170.29 11.5727 170.217C11.7501 170.143 11.8994 170.035 12.0207 169.895C12.1444 169.755 12.2389 169.585 12.3042 169.384C12.3696 169.181 12.4022 168.953 12.4022 168.698ZM18.6564 166.15V171.25H18.0404C17.9494 171.25 17.8724 171.236 17.8094 171.208C17.7487 171.178 17.6881 171.126 17.6274 171.054L15.2229 168.012C15.2322 168.103 15.2381 168.192 15.2404 168.278C15.2451 168.362 15.2474 168.442 15.2474 168.516V171.25H14.2044V166.15H14.8274C14.8787 166.15 14.9219 166.153 14.9569 166.157C14.9919 166.162 15.0234 166.171 15.0514 166.185C15.0794 166.197 15.1062 166.215 15.1319 166.238C15.1576 166.261 15.1867 166.293 15.2194 166.332L17.6449 169.395C17.6332 169.297 17.6251 169.202 17.6204 169.111C17.6157 169.018 17.6134 168.931 17.6134 168.849V166.15H18.6564ZM24.5458 168.698C24.5458 169.067 24.4816 169.41 24.3533 169.727C24.2273 170.045 24.0488 170.321 23.8178 170.557C23.5868 170.79 23.308 170.973 22.9813 171.106C22.657 171.24 22.2965 171.306 21.8998 171.306C21.5031 171.306 21.1415 171.24 20.8148 171.106C20.4881 170.973 20.2081 170.79 19.9748 170.557C19.7438 170.321 19.5641 170.045 19.4358 169.727C19.3098 169.41 19.2468 169.067 19.2468 168.698C19.2468 168.33 19.3098 167.987 19.4358 167.669C19.5641 167.352 19.7438 167.077 19.9748 166.843C20.2081 166.61 20.4881 166.427 20.8148 166.294C21.1415 166.161 21.5031 166.094 21.8998 166.094C22.2965 166.094 22.657 166.162 22.9813 166.297C23.308 166.43 23.5868 166.614 23.8178 166.847C24.0488 167.08 24.2273 167.356 24.3533 167.673C24.4816 167.99 24.5458 168.332 24.5458 168.698ZM23.3348 168.698C23.3348 168.446 23.3021 168.22 23.2368 168.019C23.1715 167.816 23.077 167.645 22.9533 167.505C22.832 167.365 22.6826 167.258 22.5053 167.183C22.328 167.108 22.1261 167.071 21.8998 167.071C21.6711 167.071 21.467 167.108 21.2873 167.183C21.11 167.258 20.9595 167.365 20.8358 167.505C20.7145 167.645 20.6211 167.816 20.5558 168.019C20.4905 168.22 20.4578 168.446 20.4578 168.698C20.4578 168.953 20.4905 169.181 20.5558 169.384C20.6211 169.585 20.7145 169.755 20.8358 169.895C20.9595 170.035 21.11 170.143 21.2873 170.217C21.467 170.29 21.6711 170.326 21.8998 170.326C22.1261 170.326 22.328 170.29 22.5053 170.217C22.6826 170.143 22.832 170.035 22.9533 169.895C23.077 169.755 23.1715 169.585 23.2368 169.384C23.3021 169.181 23.3348 168.953 23.3348 168.698ZM27.8421 167.06V168.352H29.5851V169.265H27.8421V171.25H26.6521V166.15H29.9351V167.06H27.8421ZM32.3109 168.653C32.6189 168.653 32.8406 168.579 32.9759 168.432C33.1113 168.285 33.1789 168.08 33.1789 167.816C33.1789 167.7 33.1614 167.594 33.1264 167.498C33.0914 167.402 33.0378 167.321 32.9654 167.253C32.8954 167.183 32.8056 167.129 32.6959 167.092C32.5886 167.055 32.4603 167.036 32.3109 167.036H31.6949V168.653H32.3109ZM32.3109 166.15C32.6703 166.15 32.9783 166.194 33.2349 166.28C33.4939 166.364 33.7063 166.481 33.8719 166.63C34.0399 166.779 34.1636 166.955 34.2429 167.158C34.3223 167.361 34.3619 167.581 34.3619 167.816C34.3619 168.071 34.3211 168.304 34.2394 168.516C34.1578 168.729 34.0329 168.911 33.8649 169.062C33.6969 169.214 33.4834 169.333 33.2244 169.419C32.9678 169.503 32.6633 169.545 32.3109 169.545H31.6949V171.25H30.5119V166.15H32.3109Z" fill="black"/>
<rect x="1" y="219.5" width="48" height="7" rx="1" fill="#FF9000"/>
<rect x="1" y="219.5" width="48" height="7" rx="1" stroke="white"/>
<path d="M7.7265 220.9V226H6.6835V223.067C6.6835 222.999 6.68467 222.926 6.687 222.846C6.69167 222.767 6.69867 222.687 6.708 222.605L5.3535 225.226C5.3115 225.308 5.25433 225.37 5.182 225.412C5.112 225.454 5.0315 225.475 4.9405 225.475H4.7795C4.6885 225.475 4.60683 225.454 4.5345 225.412C4.4645 225.37 4.4085 225.308 4.3665 225.226L3.012 222.598C3.019 222.682 3.02483 222.765 3.0295 222.846C3.03417 222.926 3.0365 222.999 3.0365 223.067V226H1.9935V220.9H2.8965C2.94783 220.9 2.99217 220.902 3.0295 220.904C3.06917 220.906 3.10417 220.913 3.1345 220.925C3.16483 220.937 3.19167 220.955 3.215 220.981C3.24067 221.004 3.26517 221.038 3.2885 221.082L4.601 223.669C4.64767 223.758 4.692 223.85 4.734 223.945C4.77833 224.041 4.82033 224.139 4.86 224.239C4.89967 224.137 4.9405 224.036 4.9825 223.938C5.02683 223.84 5.0735 223.747 5.1225 223.658L6.4315 221.082C6.45483 221.038 6.47817 221.004 6.5015 220.981C6.52717 220.955 6.55517 220.937 6.5855 220.925C6.61583 220.913 6.64967 220.906 6.687 220.904C6.72667 220.902 6.77217 220.9 6.8235 220.9H7.7265ZM13.6132 223.448C13.6132 223.817 13.5491 224.16 13.4207 224.477C13.2947 224.795 13.1162 225.071 12.8852 225.307C12.6542 225.54 12.3754 225.723 12.0487 225.856C11.7244 225.99 11.3639 226.056 10.9672 226.056C10.5706 226.056 10.2089 225.99 9.88223 225.856C9.55556 225.723 9.27556 225.54 9.04223 225.307C8.81123 225.071 8.63156 224.795 8.50323 224.477C8.37723 224.16 8.31423 223.817 8.31423 223.448C8.31423 223.08 8.37723 222.737 8.50323 222.419C8.63156 222.102 8.81123 221.827 9.04223 221.593C9.27556 221.36 9.55556 221.177 9.88223 221.044C10.2089 220.911 10.5706 220.844 10.9672 220.844C11.3639 220.844 11.7244 220.912 12.0487 221.047C12.3754 221.18 12.6542 221.364 12.8852 221.597C13.1162 221.83 13.2947 222.106 13.4207 222.423C13.5491 222.74 13.6132 223.082 13.6132 223.448ZM12.4022 223.448C12.4022 223.196 12.3696 222.97 12.3042 222.769C12.2389 222.566 12.1444 222.395 12.0207 222.255C11.8994 222.115 11.7501 222.008 11.5727 221.933C11.3954 221.858 11.1936 221.821 10.9672 221.821C10.7386 221.821 10.5344 221.858 10.3547 221.933C10.1774 222.008 10.0269 222.115 9.90323 222.255C9.78189 222.395 9.68856 222.566 9.62323 222.769C9.55789 222.97 9.52523 223.196 9.52523 223.448C9.52523 223.703 9.55789 223.931 9.62323 224.134C9.68856 224.335 9.78189 224.505 9.90323 224.645C10.0269 224.785 10.1774 224.893 10.3547 224.967C10.5344 225.04 10.7386 225.076 10.9672 225.076C11.1936 225.076 11.3954 225.04 11.5727 224.967C11.7501 224.893 11.8994 224.785 12.0207 224.645C12.1444 224.505 12.2389 224.335 12.3042 224.134C12.3696 223.931 12.4022 223.703 12.4022 223.448ZM18.6564 220.9V226H18.0404C17.9494 226 17.8724 225.986 17.8094 225.958C17.7487 225.928 17.6881 225.876 17.6274 225.804L15.2229 222.762C15.2322 222.853 15.2381 222.942 15.2404 223.028C15.2451 223.112 15.2474 223.192 15.2474 223.266V226H14.2044V220.9H14.8274C14.8787 220.9 14.9219 220.903 14.9569 220.907C14.9919 220.912 15.0234 220.921 15.0514 220.935C15.0794 220.947 15.1062 220.965 15.1319 220.988C15.1576 221.011 15.1867 221.043 15.2194 221.082L17.6449 224.145C17.6332 224.047 17.6251 223.952 17.6204 223.861C17.6157 223.768 17.6134 223.681 17.6134 223.599V220.9H18.6564ZM24.5458 223.448C24.5458 223.817 24.4816 224.16 24.3533 224.477C24.2273 224.795 24.0488 225.071 23.8178 225.307C23.5868 225.54 23.308 225.723 22.9813 225.856C22.657 225.99 22.2965 226.056 21.8998 226.056C21.5031 226.056 21.1415 225.99 20.8148 225.856C20.4881 225.723 20.2081 225.54 19.9748 225.307C19.7438 225.071 19.5641 224.795 19.4358 224.477C19.3098 224.16 19.2468 223.817 19.2468 223.448C19.2468 223.08 19.3098 222.737 19.4358 222.419C19.5641 222.102 19.7438 221.827 19.9748 221.593C20.2081 221.36 20.4881 221.177 20.8148 221.044C21.1415 220.911 21.5031 220.844 21.8998 220.844C22.2965 220.844 22.657 220.912 22.9813 221.047C23.308 221.18 23.5868 221.364 23.8178 221.597C24.0488 221.83 24.2273 222.106 24.3533 222.423C24.4816 222.74 24.5458 223.082 24.5458 223.448ZM23.3348 223.448C23.3348 223.196 23.3021 222.97 23.2368 222.769C23.1715 222.566 23.077 222.395 22.9533 222.255C22.832 222.115 22.6826 222.008 22.5053 221.933C22.328 221.858 22.1261 221.821 21.8998 221.821C21.6711 221.821 21.467 221.858 21.2873 221.933C21.11 222.008 20.9595 222.115 20.8358 222.255C20.7145 222.395 20.6211 222.566 20.5558 222.769C20.4905 222.97 20.4578 223.196 20.4578 223.448C20.4578 223.703 20.4905 223.931 20.5558 224.134C20.6211 224.335 20.7145 224.505 20.8358 224.645C20.9595 224.785 21.11 224.893 21.2873 224.967C21.467 225.04 21.6711 225.076 21.8998 225.076C22.1261 225.076 22.328 225.04 22.5053 224.967C22.6826 224.893 22.832 224.785 22.9533 224.645C23.077 224.505 23.1715 224.335 23.2368 224.134C23.3021 223.931 23.3348 223.703 23.3348 223.448ZM29.4696 221.936C29.4346 221.992 29.3973 222.034 29.3576 222.062C29.3203 222.09 29.2713 222.104 29.2106 222.104C29.1569 222.104 29.0986 222.088 29.0356 222.055C28.9749 222.02 28.9049 221.982 28.8256 221.94C28.7486 221.898 28.6599 221.861 28.5596 221.828C28.4593 221.793 28.3449 221.775 28.2166 221.775C27.9949 221.775 27.8293 221.823 27.7196 221.919C27.6123 222.012 27.5586 222.139 27.5586 222.3C27.5586 222.403 27.5913 222.488 27.6566 222.556C27.7219 222.624 27.8071 222.682 27.9121 222.731C28.0194 222.78 28.1408 222.825 28.2761 222.867C28.4138 222.907 28.5538 222.953 28.6961 223.004C28.8384 223.053 28.9773 223.111 29.1126 223.179C29.2503 223.247 29.3716 223.333 29.4766 223.438C29.5839 223.543 29.6703 223.671 29.7356 223.823C29.8009 223.972 29.8336 224.153 29.8336 224.365C29.8336 224.601 29.7928 224.822 29.7111 225.027C29.6294 225.232 29.5104 225.412 29.3541 225.566C29.2001 225.718 29.0088 225.838 28.7801 225.926C28.5538 226.013 28.2959 226.056 28.0066 226.056C27.8479 226.056 27.6858 226.04 27.5201 226.007C27.3568 225.974 27.1981 225.929 27.0441 225.87C26.8901 225.81 26.7454 225.739 26.6101 225.657C26.4748 225.575 26.3569 225.484 26.2566 225.384L26.6066 224.831C26.6346 224.791 26.6708 224.759 26.7151 224.733C26.7618 224.705 26.8119 224.691 26.8656 224.691C26.9356 224.691 27.0056 224.713 27.0756 224.757C27.1479 224.802 27.2284 224.851 27.3171 224.904C27.4081 224.958 27.5119 225.007 27.6286 225.051C27.7453 225.096 27.8829 225.118 28.0416 225.118C28.2563 225.118 28.4231 225.071 28.5421 224.978C28.6611 224.882 28.7206 224.732 28.7206 224.526C28.7206 224.407 28.6879 224.311 28.6226 224.236C28.5573 224.161 28.4709 224.099 28.3636 224.05C28.2586 224.001 28.1384 223.958 28.0031 223.921C27.8678 223.884 27.7289 223.843 27.5866 223.798C27.4443 223.752 27.3054 223.696 27.1701 223.63C27.0348 223.563 26.9134 223.475 26.8061 223.368C26.7011 223.258 26.6159 223.123 26.5506 222.962C26.4853 222.799 26.4526 222.598 26.4526 222.36C26.4526 222.169 26.4911 221.982 26.5681 221.8C26.6451 221.618 26.7583 221.456 26.9076 221.313C27.0569 221.171 27.2401 221.058 27.4571 220.974C27.6741 220.888 27.9226 220.844 28.2026 220.844C28.3589 220.844 28.5106 220.857 28.6576 220.883C28.8069 220.906 28.9481 220.942 29.0811 220.991C29.2141 221.038 29.3378 221.095 29.4521 221.163C29.5688 221.228 29.6726 221.303 29.7636 221.387L29.4696 221.936ZM34.0876 221.838H32.6526V226H31.4696V221.838H30.0346V220.9H34.0876V221.838ZM37.8527 224.036H36.5577V225.429H35.6757V224.036H34.3877V223.259H35.6757V221.873H36.5577V223.259H37.8527V224.036ZM39.7292 221.81V223.102H41.4722V224.015H39.7292V226H38.5392V220.9H41.8222V221.81H39.7292ZM44.1981 223.403C44.5061 223.403 44.7278 223.329 44.8631 223.182C44.9984 223.035 45.0661 222.83 45.0661 222.566C45.0661 222.45 45.0486 222.344 45.0136 222.248C44.9786 222.152 44.9249 222.071 44.8526 222.003C44.7826 221.933 44.6928 221.879 44.5831 221.842C44.4758 221.805 44.3474 221.786 44.1981 221.786H43.5821V223.403H44.1981ZM44.1981 220.9C44.5574 220.9 44.8654 220.944 45.1221 221.03C45.3811 221.114 45.5934 221.231 45.7591 221.38C45.9271 221.529 46.0508 221.705 46.1301 221.908C46.2094 222.111 46.2491 222.331 46.2491 222.566C46.2491 222.821 46.2083 223.054 46.1266 223.266C46.0449 223.479 45.9201 223.661 45.7521 223.812C45.5841 223.964 45.3706 224.083 45.1116 224.169C44.8549 224.253 44.5504 224.295 44.1981 224.295H43.5821V226H42.3991V220.9H44.1981Z" fill="black"/>
<rect x="1" y="274.25" width="48" height="7" rx="1" fill="#FF9000"/>
<rect x="1" y="274.25" width="48" height="7" rx="1" stroke="white"/>
<path d="M5.0665 279.805V280.75H1.9935V275.65H3.1765V279.805H5.0665ZM8.26123 278.8L7.78873 277.404C7.75373 277.315 7.7164 277.211 7.67673 277.092C7.63707 276.971 7.5974 276.84 7.55773 276.7C7.52273 276.843 7.4854 276.975 7.44573 277.096C7.40607 277.217 7.36873 277.322 7.33373 277.411L6.86473 278.8H8.26123ZM10.1407 280.75H9.22373C9.12107 280.75 9.03823 280.727 8.97523 280.68C8.91223 280.631 8.8644 280.569 8.83173 280.494L8.53073 279.605H6.59173L6.29073 280.494C6.26507 280.56 6.2184 280.619 6.15073 280.673C6.0854 280.724 6.00373 280.75 5.90573 280.75H4.98173L6.95573 275.65H8.16673L10.1407 280.75ZM13.6033 276.588H12.1683V280.75H10.9853V276.588H9.55027V275.65H13.6033V276.588ZM17.4202 279.43C17.4482 279.43 17.4762 279.436 17.5042 279.448C17.5322 279.457 17.559 279.475 17.5847 279.5L18.0537 279.994C17.8484 280.262 17.5905 280.465 17.2802 280.603C16.9722 280.738 16.607 280.806 16.1847 280.806C15.7974 280.806 15.4497 280.741 15.1417 280.61C14.836 280.477 14.5759 280.295 14.3612 280.064C14.1489 279.831 13.9855 279.555 13.8712 279.238C13.7569 278.918 13.6997 278.572 13.6997 278.198C13.6997 277.818 13.7615 277.469 13.8852 277.152C14.0089 276.832 14.1827 276.557 14.4067 276.326C14.6307 276.095 14.899 275.915 15.2117 275.787C15.5244 275.659 15.8685 275.594 16.2442 275.594C16.4355 275.594 16.6152 275.612 16.7832 275.647C16.9535 275.68 17.1122 275.726 17.2592 275.787C17.4062 275.845 17.5415 275.916 17.6652 276C17.7889 276.084 17.8985 276.175 17.9942 276.273L17.5952 276.809C17.5695 276.842 17.5392 276.872 17.5042 276.9C17.4692 276.926 17.4202 276.938 17.3572 276.938C17.3152 276.938 17.2755 276.929 17.2382 276.91C17.2009 276.892 17.1612 276.87 17.1192 276.844C17.0772 276.816 17.0305 276.787 16.9792 276.756C16.9302 276.724 16.8707 276.695 16.8007 276.669C16.733 276.641 16.6525 276.618 16.5592 276.599C16.4682 276.58 16.3609 276.571 16.2372 276.571C16.0412 276.571 15.8615 276.607 15.6982 276.679C15.5372 276.752 15.3972 276.858 15.2782 276.998C15.1615 277.136 15.0705 277.306 15.0052 277.509C14.9422 277.71 14.9107 277.939 14.9107 278.198C14.9107 278.46 14.9457 278.692 15.0157 278.895C15.088 279.098 15.1849 279.269 15.3062 279.409C15.4299 279.547 15.5734 279.652 15.7367 279.724C15.9 279.797 16.075 279.833 16.2617 279.833C16.369 279.833 16.467 279.828 16.5557 279.819C16.6444 279.807 16.7272 279.79 16.8042 279.766C16.8812 279.741 16.9535 279.708 17.0212 279.668C17.0889 279.626 17.1577 279.574 17.2277 279.511C17.2557 279.488 17.286 279.469 17.3187 279.455C17.3514 279.439 17.3852 279.43 17.4202 279.43ZM22.9171 275.65V280.75H21.7271V278.594H19.6551V280.75H18.4651V275.65H19.6551V277.782H21.7271V275.65H22.9171Z" fill="black"/>
<rect x="1" y="0.5" width="48" height="7" rx="1" fill="#FF9000"/>
<rect x="1" y="0.5" width="48" height="7" rx="1" stroke="white"/>
<path d="M3.7925 4.403C4.1005 4.403 4.32217 4.3295 4.4575 4.1825C4.59283 4.0355 4.6605 3.83017 4.6605 3.5665C4.6605 3.44983 4.643 3.34367 4.608 3.248C4.573 3.15233 4.51933 3.07067 4.447 3.003C4.377 2.933 4.28717 2.87933 4.1775 2.842C4.07017 2.80467 3.94183 2.786 3.7925 2.786H3.1765V4.403H3.7925ZM3.7925 1.9005C4.15183 1.9005 4.45983 1.94367 4.7165 2.03C4.9755 2.114 5.18783 2.23067 5.3535 2.38C5.5215 2.52933 5.64517 2.7055 5.7245 2.9085C5.80383 3.1115 5.8435 3.33083 5.8435 3.5665C5.8435 3.82083 5.80267 4.05417 5.721 4.2665C5.63933 4.47883 5.5145 4.66083 5.3465 4.8125C5.1785 4.96417 4.965 5.08317 4.706 5.1695C4.44933 5.2535 4.14483 5.2955 3.7925 5.2955H3.1765V7H1.9935V1.9005H3.7925ZM11.3437 4.4485C11.3437 4.81717 11.2795 5.16017 11.1512 5.4775C11.0252 5.79483 10.8467 6.07133 10.6157 6.307C10.3847 6.54033 10.1059 6.7235 9.7792 6.8565C9.45486 6.9895 9.09436 7.056 8.6977 7.056C8.30103 7.056 7.93936 6.9895 7.6127 6.8565C7.28603 6.7235 7.00603 6.54033 6.7727 6.307C6.5417 6.07133 6.36203 5.79483 6.2337 5.4775C6.1077 5.16017 6.0447 4.81717 6.0447 4.4485C6.0447 4.07983 6.1077 3.73683 6.2337 3.4195C6.36203 3.10217 6.5417 2.82683 6.7727 2.5935C7.00603 2.36017 7.28603 2.177 7.6127 2.044C7.93936 1.911 8.30103 1.8445 8.6977 1.8445C9.09436 1.8445 9.45486 1.91217 9.7792 2.0475C10.1059 2.1805 10.3847 2.36367 10.6157 2.597C10.8467 2.83033 11.0252 3.10567 11.1512 3.423C11.2795 3.74033 11.3437 4.08217 11.3437 4.4485ZM10.1327 4.4485C10.1327 4.1965 10.1 3.97017 10.0347 3.7695C9.96936 3.5665 9.87486 3.395 9.7512 3.255C9.62986 3.115 9.48053 3.00767 9.3032 2.933C9.12586 2.85833 8.92403 2.821 8.6977 2.821C8.46903 2.821 8.26486 2.85833 8.0852 2.933C7.90786 3.00767 7.75736 3.115 7.6337 3.255C7.51236 3.395 7.41903 3.5665 7.3537 3.7695C7.28836 3.97017 7.2557 4.1965 7.2557 4.4485C7.2557 4.70283 7.28836 4.9315 7.3537 5.1345C7.41903 5.33517 7.51236 5.5055 7.6337 5.6455C7.75736 5.7855 7.90786 5.89283 8.0852 5.9675C8.26486 6.03983 8.46903 6.076 8.6977 6.076C8.92403 6.076 9.12586 6.03983 9.3032 5.9675C9.48053 5.89283 9.62986 5.7855 9.7512 5.6455C9.87486 5.5055 9.96936 5.33517 10.0347 5.1345C10.1 4.9315 10.1327 4.70283 10.1327 4.4485ZM15.0079 6.055V7H11.9349V1.9005H13.1179V6.055H15.0079ZM17.2807 5.061V7H16.0977V5.061L14.2497 1.9005H15.2927C15.3953 1.9005 15.4758 1.925 15.5342 1.974C15.5948 2.02067 15.645 2.08133 15.6847 2.156L16.4057 3.64C16.4663 3.75667 16.5212 3.86633 16.5702 3.969C16.6192 4.06933 16.6623 4.1685 16.6997 4.2665C16.7347 4.16617 16.7743 4.06583 16.8187 3.9655C16.8653 3.86283 16.919 3.75433 16.9797 3.64L17.6937 2.156C17.71 2.12567 17.7298 2.09533 17.7532 2.065C17.7765 2.03467 17.8033 2.00783 17.8337 1.9845C17.8663 1.95883 17.9025 1.939 17.9422 1.925C17.9842 1.90867 18.0297 1.9005 18.0787 1.9005H19.1287L17.2807 5.061Z" fill="black"/>
</svg>
