<?xml version="1.0" encoding="UTF-8"?>
<svg width="34px" height="30px" viewBox="0 0 34 30" version="1.1" xmlns="http://www.w3.org/2000/svg" xmlns:xlink="http://www.w3.org/1999/xlink">
    <title>hoverOn00162</title>
    <g id="hoverOn00162" stroke="none" stroke-width="1" fill="none" fill-rule="evenodd">
        <g id="Analog" transform="translate(1.000000, 23.000000)" fill="#FF9000" stroke="#FFFFFF">
            <path d="M31.5,0.5 L0.5,0.5 L1,5.5 L31.5,5 L31.5,0.5 Z" id="Rectangle"></path>
        </g>
        <g id="Analog" opacity="0.500999814" transform="translate(3.000000, 9.000000)"></g>
        <g id="Digital" transform="translate(1.000000, 1.000000)" fill="#FF9000" stroke="#FFFFFF">
            <path d="M31,0.5 L0.5,1 L0.5,5.5 L31.5,5.5 L31,0.5 Z" id="Rectangle"></path>
        </g>
        <g id="Digital" opacity="0.500999814" transform="translate(0.000000, 15.000000)"></g>
        <g id="Group-5-Copy" transform="translate(2.000000, 1.000000)" fill="#000000" fill-rule="nonzero">
            <path d="M3.401,5.6055 C3.79766667,5.6055 4.15875,5.54191667 4.48425,5.41475 C4.80975,5.28758333 5.088,5.11025 5.319,4.88275 C5.55,4.65525 5.72908333,4.38575 5.85625,4.07425 C5.98341667,3.76275 6.047,3.42266667 6.047,3.054 C6.047,2.68766667 5.98341667,2.34875 5.85625,2.03725 C5.72908333,1.72575 5.55,1.45683333 5.319,1.2305 C5.088,1.00416667 4.80975,0.826833333 4.48425,0.6985 C4.15875,0.570166667 3.79766667,0.506 3.401,0.506 L3.401,0.506 L1.42,0.506 L1.42,5.6055 L3.401,5.6055 Z M3.401,4.6955 L2.61,4.6955 L2.61,1.416 L3.401,1.416 C3.62733333,1.416 3.82916667,1.45391667 4.0065,1.52975 C4.18383333,1.60558333 4.33375,1.71408333 4.45625,1.85525 C4.57875,1.99641667 4.67266667,2.1685 4.738,2.3715 C4.80333333,2.5745 4.836,2.802 4.836,3.054 C4.836,3.30833333 4.80333333,3.537 4.738,3.74 C4.67266667,3.943 4.57875,4.11508333 4.45625,4.25625 C4.33375,4.39741667 4.18383333,4.50591667 4.0065,4.58175 C3.82916667,4.65758333 3.62733333,4.6955 3.401,4.6955 L3.401,4.6955 Z M7.909,5.6055 L7.909,0.506 L6.719,0.506 L6.719,5.6055 L7.909,5.6055 Z M11.164,5.6615 C11.3716667,5.6615 11.5659167,5.651 11.74675,5.63 C11.9275833,5.609 12.0979167,5.57633333 12.25775,5.532 C12.4175833,5.48766667 12.5680833,5.43108333 12.70925,5.36225 C12.8504167,5.29341667 12.9863333,5.21116667 13.117,5.1155 L13.117,5.1155 L13.117,2.963 L11.304,2.963 L11.304,3.614 C11.304,3.67466667 11.325,3.72483333 11.367,3.7645 C11.409,3.80416667 11.4673333,3.824 11.542,3.824 L11.542,3.824 L12.046,3.824 L12.046,4.5975 C11.934,4.64416667 11.815,4.6815 11.689,4.7095 C11.563,4.7375 11.4183333,4.7515 11.255,4.7515 C11.0403333,4.7515 10.8425833,4.71358333 10.66175,4.63775 C10.4809167,4.56191667 10.3245833,4.45166667 10.19275,4.307 C10.0609167,4.16233333 9.95766667,3.985 9.883,3.775 C9.80833333,3.565 9.771,3.32466667 9.771,3.054 C9.771,2.809 9.80483333,2.58675 9.8725,2.38725 C9.94016667,2.18775 10.0364167,2.01683333 10.16125,1.8745 C10.2860833,1.73216667 10.4371667,1.62191667 10.6145,1.54375 C10.7918333,1.46558333 10.9913333,1.4265 11.213,1.4265 C11.332,1.4265 11.4393333,1.43233333 11.535,1.444 C11.6306667,1.45566667 11.7216667,1.47433333 11.808,1.5 C11.8943333,1.52566667 11.9789167,1.55891667 12.06175,1.59975 C12.1445833,1.64058333 12.2326667,1.689 12.326,1.745 C12.4006667,1.79166667 12.473,1.815 12.543,1.815 C12.5966667,1.815 12.64625,1.801 12.69175,1.773 C12.73725,1.745 12.7763333,1.7065 12.809,1.6575 L12.809,1.6575 L13.152,1.136 C13.0493333,1.038 12.9326667,0.947 12.802,0.863 C12.6713333,0.779 12.52725,0.706666667 12.36975,0.646 C12.21225,0.585333333 12.0401667,0.5375 11.8535,0.5025 C11.6668333,0.4675 11.4673333,0.45 11.255,0.45 C10.8443333,0.45 10.47275,0.514166667 10.14025,0.6425 C9.80775,0.770833333 9.52425,0.9505 9.28975,1.1815 C9.05525,1.4125 8.875,1.68725 8.749,2.00575 C8.623,2.32425 8.56,2.67366667 8.56,3.054 C8.56,3.42733333 8.62591667,3.77325 8.75775,4.09175 C8.88958333,4.41025 9.07158333,4.68558333 9.30375,4.91775 C9.53591667,5.14991667 9.81066667,5.33191667 10.128,5.46375 C10.4453333,5.59558333 10.7906667,5.6615 11.164,5.6615 Z M15.133,5.6055 L15.133,0.506 L13.943,0.506 L13.943,5.6055 L15.133,5.6055 Z M18.346,5.6055 L18.346,1.444 L19.781,1.444 L19.781,0.506 L15.728,0.506 L15.728,1.444 L17.163,1.444 L17.163,5.6055 L18.346,5.6055 Z M20.782,5.6055 C20.88,5.6055 20.9628333,5.57925 21.0305,5.52675 C21.0981667,5.47425 21.1436667,5.41533333 21.167,5.35 L21.167,5.35 L21.468,4.461 L23.407,4.461 L23.708,5.35 C23.7336667,5.42466667 23.77975,5.48591667 23.84625,5.53375 C23.91275,5.58158333 23.9973333,5.6055 24.1,5.6055 L24.1,5.6055 L25.017,5.6055 L23.043,0.506 L21.832,0.506 L19.858,5.6055 L20.782,5.6055 Z M23.134,3.656 L21.741,3.656 L22.21,2.2665 C22.245,2.17783333 22.2823333,2.07283333 22.322,1.9515 C22.3616667,1.83016667 22.4001667,1.69833333 22.4375,1.556 C22.4771667,1.696 22.5174167,1.82608333 22.55825,1.94625 C22.5990833,2.06641667 22.6346667,2.17083333 22.665,2.2595 L22.665,2.2595 L23.134,3.656 Z M28.503,5.6055 L28.503,4.6605 L26.613,4.6605 L26.613,0.506 L25.43,0.506 L25.43,5.6055 L28.503,5.6055 Z" id="DIGITAL"></path>
            <path d="M0.931,27.5555 C1.029,27.5555 1.11183333,27.52925 1.1795,27.47675 C1.24716667,27.42425 1.29266667,27.3653333 1.316,27.3 L1.316,27.3 L1.617,26.411 L3.556,26.411 L3.857,27.3 C3.88266667,27.3746667 3.92875,27.4359167 3.99525,27.48375 C4.06175,27.5315833 4.14633333,27.5555 4.249,27.5555 L4.249,27.5555 L5.166,27.5555 L3.192,22.456 L1.981,22.456 L0.007,27.5555 L0.931,27.5555 Z M3.283,25.606 L1.89,25.606 L2.359,24.2165 C2.394,24.1278333 2.43133333,24.0228333 2.471,23.9015 C2.51066667,23.7801667 2.54916667,23.6483333 2.5865,23.506 C2.62616667,23.646 2.66641667,23.7760833 2.70725,23.89625 C2.74808333,24.0164167 2.78366667,24.1208333 2.814,24.2095 L2.814,24.2095 L3.283,25.606 Z M6.622,27.5555 L6.622,24.822 C6.622,24.7473333 6.61966667,24.6674167 6.615,24.58225 C6.61033333,24.4970833 6.6045,24.4101667 6.5975,24.3215 L6.5975,24.3215 L9.002,27.3595 C9.06033333,27.4341667 9.121,27.4855 9.184,27.5135 C9.247,27.5415 9.324,27.5555 9.415,27.5555 L9.415,27.5555 L10.031,27.5555 L10.031,22.456 L8.988,22.456 L8.988,25.1545 C8.988,25.2361667 8.99033333,25.3230833 8.995,25.41525 C8.99966667,25.5074167 9.00666667,25.6025 9.016,25.7005 L9.016,25.7005 L6.594,22.638 C6.56133333,22.5983333 6.53216667,22.5668333 6.5065,22.5435 C6.48083333,22.5201667 6.454,22.5020833 6.426,22.48925 C6.398,22.4764167 6.3665,22.4676667 6.3315,22.463 C6.2965,22.4583333 6.25333333,22.456 6.202,22.456 L6.202,22.456 L5.579,22.456 L5.579,27.5555 L6.622,27.5555 Z M11.382,27.5555 C11.48,27.5555 11.5628333,27.52925 11.6305,27.47675 C11.6981667,27.42425 11.7436667,27.3653333 11.767,27.3 L11.767,27.3 L12.068,26.411 L14.007,26.411 L14.308,27.3 C14.3336667,27.3746667 14.37975,27.4359167 14.44625,27.48375 C14.51275,27.5315833 14.5973333,27.5555 14.7,27.5555 L14.7,27.5555 L15.617,27.5555 L13.643,22.456 L12.432,22.456 L10.458,27.5555 L11.382,27.5555 Z M13.734,25.606 L12.341,25.606 L12.81,24.2165 C12.845,24.1278333 12.8823333,24.0228333 12.922,23.9015 C12.9616667,23.7801667 13.0001667,23.6483333 13.0375,23.506 C13.0771667,23.646 13.1174167,23.7760833 13.15825,23.89625 C13.1990833,24.0164167 13.2346667,24.1208333 13.265,24.2095 L13.265,24.2095 L13.734,25.606 Z M19.103,27.5555 L19.103,26.6105 L17.213,26.6105 L17.213,22.456 L16.03,22.456 L16.03,27.5555 L19.103,27.5555 Z M22.05,27.6115 C22.4466667,27.6115 22.80775,27.545 23.13325,27.412 C23.45875,27.279 23.737,27.09525 23.968,26.86075 C24.199,26.62625 24.3780833,26.3503333 24.50525,26.033 C24.6324167,25.7156667 24.696,25.3726667 24.696,25.004 C24.696,24.6376667 24.6324167,24.2958333 24.50525,23.9785 C24.3780833,23.6611667 24.199,23.3858333 23.968,23.1525 C23.737,22.9191667 23.45875,22.7354167 23.13325,22.60125 C22.80775,22.4670833 22.4466667,22.4 22.05,22.4 C21.6533333,22.4 21.2916667,22.4665 20.965,22.5995 C20.6383333,22.7325 20.3589167,22.9156667 20.12675,23.149 C19.8945833,23.3823333 19.7149167,23.6576667 19.58775,23.975 C19.4605833,24.2923333 19.397,24.6353333 19.397,25.004 C19.397,25.3726667 19.4605833,25.7156667 19.58775,26.033 C19.7149167,26.3503333 19.8945833,26.62625 20.12675,26.86075 C20.3589167,27.09525 20.6383333,27.279 20.965,27.412 C21.2916667,27.545 21.6533333,27.6115 22.05,27.6115 Z M22.05,26.6315 C21.8213333,26.6315 21.61775,26.59475 21.43925,26.52125 C21.26075,26.44775 21.11025,26.341 20.98775,26.201 C20.86525,26.061 20.7713333,25.8900833 20.706,25.68825 C20.6406667,25.4864167 20.608,25.2583333 20.608,25.004 C20.608,24.752 20.6406667,24.5250833 20.706,24.32325 C20.7713333,24.1214167 20.86525,23.9505 20.98775,23.8105 C21.11025,23.6705 21.26075,23.5631667 21.43925,23.4885 C21.61775,23.4138333 21.8213333,23.3765 22.05,23.3765 C22.2763333,23.3765 22.4781667,23.4138333 22.6555,23.4885 C22.8328333,23.5631667 22.98275,23.6705 23.10525,23.8105 C23.22775,23.9505 23.3216667,24.1214167 23.387,24.32325 C23.4523333,24.5250833 23.485,24.752 23.485,25.004 C23.485,25.2583333 23.4523333,25.4864167 23.387,25.68825 C23.3216667,25.8900833 23.22775,26.061 23.10525,26.201 C22.98275,26.341 22.8328333,26.44775 22.6555,26.52125 C22.4781667,26.59475 22.2763333,26.6315 22.05,26.6315 Z M27.573,27.6115 C27.7806667,27.6115 27.9749167,27.601 28.15575,27.58 C28.3365833,27.559 28.5069167,27.5263333 28.66675,27.482 C28.8265833,27.4376667 28.9770833,27.3810833 29.11825,27.31225 C29.2594167,27.2434167 29.3953333,27.1611667 29.526,27.0655 L29.526,27.0655 L29.526,24.913 L27.713,24.913 L27.713,25.564 C27.713,25.6246667 27.734,25.6748333 27.776,25.7145 C27.818,25.7541667 27.8763333,25.774 27.951,25.774 L27.951,25.774 L28.455,25.774 L28.455,26.5475 C28.343,26.5941667 28.224,26.6315 28.098,26.6595 C27.972,26.6875 27.8273333,26.7015 27.664,26.7015 C27.4493333,26.7015 27.2515833,26.6635833 27.07075,26.58775 C26.8899167,26.5119167 26.7335833,26.4016667 26.60175,26.257 C26.4699167,26.1123333 26.3666667,25.935 26.292,25.725 C26.2173333,25.515 26.18,25.2746667 26.18,25.004 C26.18,24.759 26.2138333,24.53675 26.2815,24.33725 C26.3491667,24.13775 26.4454167,23.9668333 26.57025,23.8245 C26.6950833,23.6821667 26.8461667,23.5719167 27.0235,23.49375 C27.2008333,23.4155833 27.4003333,23.3765 27.622,23.3765 C27.741,23.3765 27.8483333,23.3823333 27.944,23.394 C28.0396667,23.4056667 28.1306667,23.4243333 28.217,23.45 C28.3033333,23.4756667 28.3879167,23.5089167 28.47075,23.54975 C28.5535833,23.5905833 28.6416667,23.639 28.735,23.695 C28.8096667,23.7416667 28.882,23.765 28.952,23.765 C29.0056667,23.765 29.05525,23.751 29.10075,23.723 C29.14625,23.695 29.1853333,23.6565 29.218,23.6075 L29.218,23.6075 L29.561,23.086 C29.4583333,22.988 29.3416667,22.897 29.211,22.813 C29.0803333,22.729 28.93625,22.6566667 28.77875,22.596 C28.62125,22.5353333 28.4491667,22.4875 28.2625,22.4525 C28.0758333,22.4175 27.8763333,22.4 27.664,22.4 C27.2533333,22.4 26.88175,22.4641667 26.54925,22.5925 C26.21675,22.7208333 25.93325,22.9005 25.69875,23.1315 C25.46425,23.3625 25.284,23.63725 25.158,23.95575 C25.032,24.27425 24.969,24.6236667 24.969,25.004 C24.969,25.3773333 25.0349167,25.72325 25.16675,26.04175 C25.2985833,26.36025 25.4805833,26.6355833 25.71275,26.86775 C25.9449167,27.0999167 26.2196667,27.2819167 26.537,27.41375 C26.8543333,27.5455833 27.1996667,27.6115 27.573,27.6115 Z" id="ANALOG"></path>
        </g>
    </g>
</svg>