<?xml version="1.0" encoding="utf-8"?>
<svg width="45px" height="18px" viewbox="0 0 45 18" version="1.1" xmlns:xlink="http://www.w3.org/1999/xlink" xmlns="http://www.w3.org/2000/svg">
  <defs>
    <path d="M0 0L45 0L45 18L0 18L0 0Z" transform="translate(0 -3.0517578E-05)" id="path_1" />
    <rect width="45" height="18" id="artboard_1" />
    <clipPath id="clip_1">
      <use xlink:href="#artboard_1" clip-rule="evenodd" />
    </clipPath>
    <clipPath id="mask_1">
      <use xlink:href="#path_1" />
    </clipPath>
  </defs>
  <g id="hover00126" clip-path="url(#clip_1)">
    <path d="M0 0L45 0L45 18L0 18L0 0Z" transform="translate(0 -3.0517578E-05)" id="Background" fill="none" fill-rule="evenodd" stroke="none" />
    <g clip-path="url(#mask_1)">
      <path d="M0 2L0 1C0 0.723858 0.0976311 0.488155 0.292893 0.292893C0.488155 0.0976311 0.723858 0 1 0L43 0C43.2761 0 43.5118 0.0976311 43.7071 0.292893C43.9024 0.488155 44 0.723858 44 1L44 7C44 7.27614 43.9024 7.51184 43.7071 7.70711C43.5118 7.90237 43.2761 8 43 8L1 8C0.723858 8 0.488155 7.90237 0.292893 7.70711C0.0976311 7.51184 0 7.27614 0 7L0 2Z" transform="translate(0.5 0.49996948)" id="Rectangle" fill="#399DFF" fill-rule="evenodd" stroke="none" />
      <path d="M1.89599 2.80399C2.07999 2.80399 2.23599 2.78132 2.36399 2.73599C2.49465 2.68799 2.60132 2.62266 2.68399 2.53999C2.76665 2.45732 2.82665 2.36132 2.86399 2.25199C2.90132 2.13999 2.91999 2.01999 2.91999 1.89199C2.91999 1.63599 2.83599 1.43599 2.66799 1.29199C2.50265 1.14799 2.24532 1.07599 1.89599 1.07599L1.35199 1.07599L1.35199 2.80399L1.89599 2.80399L1.89599 2.80399ZM4.768 5.89199L3.544 5.89199C3.31733 5.89199 3.15466 5.80667 3.056 5.63599L2.088 3.944C2.04266 3.872 1.992 3.82 1.936 3.788C1.88 3.75333 1.8 3.736 1.696 3.736L1.352 3.736L1.352 5.89199L0 5.89199L0 0.0639954L1.896 0.0639954C2.31733 0.0639954 2.676 0.107996 2.972 0.195995C3.27066 0.281325 3.51333 0.401325 3.7 0.555995C3.88933 0.710665 4.02666 0.893325 4.112 1.104C4.19733 1.31467 4.24 1.544 4.24 1.792C4.24 1.98133 4.21466 2.16 4.164 2.328C4.11333 2.496 4.03866 2.652 3.94 2.79599C3.84133 2.93733 3.71866 3.064 3.572 3.176C3.428 3.288 3.26133 3.38 3.072 3.452C3.16 3.49733 3.24266 3.55467 3.32 3.624C3.39733 3.69067 3.46666 3.77067 3.528 3.864L4.768 5.89199L4.768 5.89199ZM6.49782 1.104L6.49782 2.464L8.32982 2.464L8.32982 3.464L6.49782 3.464L6.49782 4.85199L8.8898 4.85199L8.8898 5.89199L5.13782 5.89199L5.13782 0.0639954L8.8898 0.0639954L8.8898 1.104L6.49782 1.104L6.49782 1.104ZM13.7918 1.136L12.1518 1.136L12.1518 5.89199L10.7998 5.89199L10.7998 1.136L9.15979 1.136L9.15979 0.0639954L13.7918 0.0639954L13.7918 1.136L13.7918 1.136ZM16.2548 2.80399C16.4388 2.80399 16.5948 2.78132 16.7228 2.73599C16.8534 2.68799 16.9601 2.62266 17.0428 2.53999C17.1254 2.45732 17.1854 2.36132 17.2228 2.25199C17.2601 2.13999 17.2788 2.01999 17.2788 1.89199C17.2788 1.63599 17.1948 1.43599 17.0268 1.29199C16.8614 1.14799 16.6041 1.07599 16.2548 1.07599L15.7108 1.07599L15.7108 2.80399L16.2548 2.80399L16.2548 2.80399ZM19.1268 5.89199L17.9028 5.89199C17.6761 5.89199 17.5134 5.80667 17.4148 5.63599L16.4468 3.944C16.4014 3.872 16.3508 3.82 16.2948 3.788C16.2388 3.75333 16.1588 3.736 16.0548 3.736L15.7108 3.736L15.7108 5.89199L14.3588 5.89199L14.3588 0.0639954L16.2548 0.0639954C16.6761 0.0639954 17.0348 0.107996 17.3308 0.195995C17.6294 0.281325 17.8721 0.401325 18.0588 0.555995C18.2481 0.710665 18.3854 0.893325 18.4708 1.104C18.5561 1.31467 18.5988 1.544 18.5988 1.792C18.5988 1.98133 18.5734 2.16 18.5228 2.328C18.4721 2.496 18.3974 2.652 18.2988 2.79599C18.2001 2.93733 18.0774 3.064 17.9308 3.176C17.7868 3.288 17.6201 3.38 17.4308 3.452C17.5188 3.49733 17.6014 3.55467 17.6788 3.624C17.7561 3.69067 17.8254 3.77067 17.8868 3.864L19.1268 5.89199L19.1268 5.89199ZM20.8566 5.89199L19.4966 5.89199L19.4966 0.0639954L20.8566 0.0639954L20.8566 5.89199L20.8566 5.89199ZM24.6609 2.872L26.7329 2.872L26.7329 5.332C26.4343 5.55067 26.1156 5.70933 25.7769 5.808C25.4409 5.90667 25.0889 5.956 24.7209 5.956C24.2409 5.956 23.8036 5.88133 23.4089 5.732C23.0169 5.58 22.6809 5.372 22.4009 5.108C22.1209 4.84133 21.9049 4.52667 21.7529 4.164C21.6009 3.79867 21.5249 3.40267 21.5249 2.976C21.5249 2.54133 21.5969 2.14267 21.7409 1.78C21.8849 1.41467 22.0903 1.1 22.3569 0.836C22.6263 0.572 22.9503 0.36667 23.3289 0.22C23.7103 0.0733299 24.1356 0 24.6049 0C24.8476 0 25.0756 0.02 25.2889 0.0599999C25.5023 0.0999999 25.6983 0.15467 25.8769 0.224C26.0583 0.29333 26.2236 0.376 26.3729 0.472C26.5223 0.568 26.6556 0.672 26.7729 0.784L26.3809 1.38C26.3196 1.47333 26.2396 1.53067 26.1409 1.552C26.0449 1.57333 25.9409 1.54933 25.8289 1.48C25.7223 1.416 25.6209 1.36133 25.5249 1.316C25.4316 1.268 25.3356 1.22933 25.2369 1.2C25.1383 1.17067 25.0343 1.14933 24.9249 1.136C24.8156 1.12267 24.6929 1.116 24.5569 1.116C24.3036 1.116 24.0756 1.16133 23.8729 1.252C23.6703 1.34 23.4969 1.46533 23.3529 1.628C23.2116 1.79067 23.1023 1.98667 23.0249 2.216C22.9476 2.44267 22.9089 2.696 22.9089 2.976C22.9089 3.28533 22.9516 3.56 23.0369 3.8C23.1223 4.04 23.2423 4.24267 23.3969 4.408C23.5543 4.57333 23.7409 4.7 23.9569 4.788C24.1756 4.87333 24.4169 4.916 24.6809 4.916C24.8436 4.916 24.9903 4.9 25.1209 4.868C25.2543 4.836 25.3836 4.79333 25.5089 4.74L25.5089 3.856L24.9329 3.856C24.8476 3.856 24.7809 3.83333 24.7329 3.788C24.6849 3.74267 24.6609 3.68533 24.6609 3.616L24.6609 2.872L24.6609 2.872ZM30.3222 2.872L32.3942 2.872L32.3942 5.332C32.0955 5.55067 31.7769 5.70933 31.4382 5.808C31.1022 5.90667 30.7502 5.956 30.3822 5.956C29.9022 5.956 29.4649 5.88133 29.0702 5.732C28.6782 5.58 28.3422 5.372 28.0622 5.108C27.7822 4.84133 27.5662 4.52667 27.4142 4.164C27.2622 3.79867 27.1862 3.40267 27.1862 2.976C27.1862 2.54133 27.2582 2.14267 27.4022 1.78C27.5462 1.41467 27.7515 1.1 28.0182 0.836C28.2875 0.572 28.6115 0.36667 28.9902 0.22C29.3715 0.0733299 29.7969 0 30.2662 0C30.5089 0 30.7369 0.02 30.9502 0.0599999C31.1635 0.0999999 31.3595 0.15467 31.5382 0.224C31.7195 0.29333 31.8849 0.376 32.0342 0.472C32.1835 0.568 32.3169 0.672 32.4342 0.784L32.0422 1.38C31.9809 1.47333 31.9009 1.53067 31.8022 1.552C31.7062 1.57333 31.6022 1.54933 31.4902 1.48C31.3835 1.416 31.2822 1.36133 31.1862 1.316C31.0929 1.268 30.9969 1.22933 30.8982 1.2C30.7995 1.17067 30.6955 1.14933 30.5862 1.136C30.4769 1.12267 30.3542 1.116 30.2182 1.116C29.9649 1.116 29.7369 1.16133 29.5342 1.252C29.3315 1.34 29.1582 1.46533 29.0142 1.628C28.8729 1.79067 28.7635 1.98667 28.6862 2.216C28.6089 2.44267 28.5702 2.696 28.5702 2.976C28.5702 3.28533 28.6129 3.56 28.6982 3.8C28.7835 4.04 28.9035 4.24267 29.0582 4.408C29.2155 4.57333 29.4022 4.7 29.6182 4.788C29.8369 4.87333 30.0782 4.916 30.3422 4.916C30.5049 4.916 30.6515 4.9 30.7822 4.868C30.9155 4.836 31.0449 4.79333 31.1702 4.74L31.1702 3.856L30.5942 3.856C30.5089 3.856 30.4422 3.83333 30.3942 3.788C30.3462 3.74267 30.3222 3.68533 30.3222 3.616L30.3222 2.872L30.3222 2.872ZM34.5434 1.104L34.5434 2.464L36.3754 2.464L36.3754 3.464L34.5434 3.464L34.5434 4.85199L36.9354 4.85199L36.9354 5.89199L33.1834 5.89199L33.1834 0.0639954L36.9354 0.0639954L36.9354 1.104L34.5434 1.104L34.5434 1.104ZM39.5454 2.80399C39.7294 2.80399 39.8854 2.78132 40.0134 2.73599C40.144 2.68799 40.2507 2.62266 40.3334 2.53999C40.416 2.45732 40.476 2.36132 40.5134 2.25199C40.5507 2.13999 40.5694 2.01999 40.5694 1.89199C40.5694 1.63599 40.4854 1.43599 40.3174 1.29199C40.152 1.14799 39.8947 1.07599 39.5454 1.07599L39.0014 1.07599L39.0014 2.80399L39.5454 2.80399L39.5454 2.80399ZM42.4174 5.89199L41.1934 5.89199C40.9667 5.89199 40.804 5.80667 40.7054 5.63599L39.7374 3.944C39.692 3.872 39.6414 3.82 39.5854 3.788C39.5294 3.75333 39.4494 3.736 39.3454 3.736L39.0014 3.736L39.0014 5.89199L37.6494 5.89199L37.6494 0.0639954L39.5454 0.0639954C39.9667 0.0639954 40.3254 0.107996 40.6214 0.195995C40.92 0.281325 41.1627 0.401325 41.3494 0.555995C41.5387 0.710665 41.676 0.893325 41.7614 1.104C41.8467 1.31467 41.8894 1.544 41.8894 1.792C41.8894 1.98133 41.864 2.16 41.8134 2.328C41.7627 2.496 41.688 2.652 41.5894 2.79599C41.4907 2.93733 41.368 3.064 41.2214 3.176C41.0774 3.288 40.9107 3.38 40.7214 3.452C40.8094 3.49733 40.892 3.55467 40.9694 3.624C41.0467 3.69067 41.116 3.77067 41.1774 3.864L42.4174 5.89199L42.4174 5.89199Z" transform="translate(1.6104126 1.6099548)" id="Shape" fill="#FFFFFF" fill-rule="evenodd" stroke="none" />
      <path d="M0 2L0 1C0 0.723858 0.0976311 0.488155 0.292893 0.292893C0.488155 0.0976311 0.723858 0 1 0L43 0C43.2761 0 43.5118 0.0976311 43.7071 0.292893C43.9024 0.488155 44 0.723858 44 1L44 7C44 7.27614 43.9024 7.51184 43.7071 7.70711C43.5118 7.90237 43.2761 8 43 8L1 8C0.723858 8 0.488155 7.90237 0.292893 7.70711C0.0976311 7.51184 0 7.27614 0 7L0 2Z" transform="translate(0.5 0.49996948)" id="Rectangle" fill="none" fill-rule="evenodd" stroke="#399DFF" stroke-width="1" />
      <path d="M0 2L0 1C0 0.723858 0.0976311 0.488155 0.292893 0.292893C0.488155 0.0976311 0.723858 0 1 0L43 0C43.2761 0 43.5118 0.0976311 43.7071 0.292893C43.9024 0.488155 44 0.723858 44 1L44 7C44 7.27614 43.9024 7.51184 43.7071 7.70711C43.5118 7.90237 43.2761 8 43 8L1 8C0.723858 8 0.488155 7.90237 0.292893 7.70711C0.0976311 7.51184 0 7.27614 0 7L0 2Z" transform="translate(0.5 9.4999695)" id="Rectangle" fill="#FF9300" fill-rule="evenodd" stroke="none" />
      <path d="M1.89599 2.80399C2.07999 2.80399 2.23599 2.78129 2.36399 2.73599C2.49465 2.68799 2.60132 2.62269 2.68399 2.53999C2.76665 2.45729 2.82665 2.36129 2.86399 2.25199C2.90132 2.13999 2.91999 2.01999 2.91999 1.89199C2.91999 1.63599 2.83599 1.43599 2.66799 1.29199C2.50265 1.14799 2.24532 1.07599 1.89599 1.07599L1.35199 1.07599L1.35199 2.80399L1.89599 2.80399L1.89599 2.80399ZM4.768 5.89199L3.544 5.89199C3.31733 5.89199 3.15466 5.80669 3.056 5.63599L2.088 3.944C2.04266 3.87199 1.992 3.82 1.936 3.788C1.88 3.7533 1.8 3.736 1.696 3.736L1.352 3.736L1.352 5.89199L0 5.89199L0 0.0639954L1.896 0.0639954C2.31733 0.0639954 2.676 0.107995 2.972 0.195995C3.27066 0.281296 3.51333 0.401296 3.7 0.555995C3.88933 0.710695 4.02666 0.893295 4.112 1.104C4.19733 1.3147 4.24 1.544 4.24 1.79199C4.24 1.9813 4.21466 2.16 4.164 2.328C4.11333 2.496 4.03866 2.652 3.94 2.796C3.84133 2.93729 3.71866 3.064 3.572 3.176C3.428 3.288 3.26133 3.38 3.072 3.452C3.16 3.4973 3.24266 3.55469 3.32 3.624C3.39733 3.6907 3.46666 3.7707 3.528 3.864L4.768 5.89199L4.768 5.89199ZM6.49782 1.104L6.49782 2.46399L8.32982 2.46399L8.32982 3.46399L6.49782 3.46399L6.49782 4.85199L8.8898 4.85199L8.8898 5.89199L5.13782 5.89199L5.13782 0.0639954L8.8898 0.0639954L8.8898 1.104L6.49782 1.104L6.49782 1.104ZM13.7918 1.136L12.1518 1.136L12.1518 5.89199L10.7998 5.89199L10.7998 1.136L9.15979 1.136L9.15979 0.0639954L13.7918 0.0639954L13.7918 1.136L13.7918 1.136ZM16.2548 2.80399C16.4388 2.80399 16.5948 2.78129 16.7228 2.73599C16.8534 2.68799 16.9601 2.62269 17.0428 2.53999C17.1254 2.45729 17.1854 2.36129 17.2228 2.25199C17.2601 2.13999 17.2788 2.01999 17.2788 1.89199C17.2788 1.63599 17.1948 1.43599 17.0268 1.29199C16.8614 1.14799 16.6041 1.07599 16.2548 1.07599L15.7108 1.07599L15.7108 2.80399L16.2548 2.80399L16.2548 2.80399ZM19.1268 5.89199L17.9028 5.89199C17.6761 5.89199 17.5134 5.80669 17.4148 5.63599L16.4468 3.944C16.4014 3.87199 16.3508 3.82 16.2948 3.788C16.2388 3.7533 16.1588 3.736 16.0548 3.736L15.7108 3.736L15.7108 5.89199L14.3588 5.89199L14.3588 0.0639954L16.2548 0.0639954C16.6761 0.0639954 17.0348 0.107995 17.3308 0.195995C17.6294 0.281296 17.8721 0.401296 18.0588 0.555995C18.2481 0.710695 18.3854 0.893295 18.4708 1.104C18.5561 1.3147 18.5988 1.544 18.5988 1.79199C18.5988 1.9813 18.5734 2.16 18.5228 2.328C18.4721 2.496 18.3974 2.652 18.2988 2.796C18.2001 2.93729 18.0774 3.064 17.9308 3.176C17.7868 3.288 17.6201 3.38 17.4308 3.452C17.5188 3.4973 17.6014 3.55469 17.6788 3.624C17.7561 3.6907 17.8254 3.7707 17.8868 3.864L19.1268 5.89199L19.1268 5.89199ZM20.8566 5.89199L19.4966 5.89199L19.4966 0.0639954L20.8566 0.0639954L20.8566 5.89199L20.8566 5.89199ZM24.6609 2.872L26.7329 2.872L26.7329 5.332C26.4343 5.5507 26.1156 5.7093 25.7769 5.808C25.4409 5.9067 25.0889 5.956 24.7209 5.956C24.2409 5.956 23.8036 5.8813 23.4089 5.732C23.0169 5.58 22.6809 5.372 22.4009 5.108C22.1209 4.8413 21.9049 4.5267 21.7529 4.164C21.6009 3.7987 21.5249 3.4027 21.5249 2.976C21.5249 2.5413 21.5969 2.1427 21.7409 1.78C21.8849 1.4147 22.0903 1.1 22.3569 0.836001C22.6263 0.572001 22.9503 0.3667 23.3289 0.22C23.7103 0.0733004 24.1356 0 24.6049 0C24.8476 0 25.0756 0.0200005 25.2889 0.0600004C25.5023 0.1 25.6983 0.1547 25.8769 0.224C26.0583 0.293301 26.2236 0.376 26.3729 0.472C26.5223 0.568 26.6556 0.672 26.7729 0.784L26.3809 1.38C26.3196 1.4733 26.2396 1.5307 26.1409 1.552C26.0449 1.5733 25.9409 1.5493 25.8289 1.48C25.7223 1.416 25.6209 1.3613 25.5249 1.316C25.4316 1.268 25.3356 1.2293 25.2369 1.2C25.1383 1.1707 25.0343 1.1493 24.9249 1.136C24.8156 1.1227 24.6929 1.116 24.5569 1.116C24.3036 1.116 24.0756 1.1613 23.8729 1.252C23.6703 1.34 23.4969 1.4653 23.3529 1.628C23.2116 1.7907 23.1023 1.9867 23.0249 2.216C22.9476 2.4427 22.9089 2.696 22.9089 2.976C22.9089 3.2853 22.9516 3.56 23.0369 3.8C23.1223 4.04 23.2423 4.2427 23.3969 4.408C23.5543 4.5733 23.7409 4.7 23.9569 4.788C24.1756 4.8733 24.4169 4.916 24.6809 4.916C24.8436 4.916 24.9903 4.9 25.1209 4.868C25.2543 4.836 25.3836 4.7933 25.5089 4.74L25.5089 3.856L24.9329 3.856C24.8476 3.856 24.7809 3.8333 24.7329 3.788C24.6849 3.7427 24.6609 3.6853 24.6609 3.616L24.6609 2.872L24.6609 2.872ZM30.3222 2.872L32.3942 2.872L32.3942 5.332C32.0955 5.5507 31.7769 5.7093 31.4382 5.808C31.1022 5.9067 30.7502 5.956 30.3822 5.956C29.9022 5.956 29.4649 5.8813 29.0702 5.732C28.6782 5.58 28.3422 5.372 28.0622 5.108C27.7822 4.8413 27.5662 4.5267 27.4142 4.164C27.2622 3.7987 27.1862 3.4027 27.1862 2.976C27.1862 2.5413 27.2582 2.1427 27.4022 1.78C27.5462 1.4147 27.7515 1.1 28.0182 0.836001C28.2875 0.572001 28.6115 0.3667 28.9902 0.22C29.3715 0.0733004 29.7969 0 30.2662 0C30.5089 0 30.7369 0.0200005 30.9502 0.0600004C31.1635 0.1 31.3595 0.1547 31.5382 0.224C31.7195 0.293301 31.8849 0.376 32.0342 0.472C32.1835 0.568 32.3169 0.672 32.4342 0.784L32.0422 1.38C31.9809 1.4733 31.9009 1.5307 31.8022 1.552C31.7062 1.5733 31.6022 1.5493 31.4902 1.48C31.3835 1.416 31.2822 1.3613 31.1862 1.316C31.0929 1.268 30.9969 1.2293 30.8982 1.2C30.7995 1.1707 30.6955 1.1493 30.5862 1.136C30.4769 1.1227 30.3542 1.116 30.2182 1.116C29.9649 1.116 29.7369 1.1613 29.5342 1.252C29.3315 1.34 29.1582 1.4653 29.0142 1.628C28.8729 1.7907 28.7635 1.9867 28.6862 2.216C28.6089 2.4427 28.5702 2.696 28.5702 2.976C28.5702 3.2853 28.6129 3.56 28.6982 3.8C28.7835 4.04 28.9035 4.2427 29.0582 4.408C29.2155 4.5733 29.4022 4.7 29.6182 4.788C29.8369 4.8733 30.0782 4.916 30.3422 4.916C30.5049 4.916 30.6515 4.9 30.7822 4.868C30.9155 4.836 31.0449 4.7933 31.1702 4.74L31.1702 3.856L30.5942 3.856C30.5089 3.856 30.4422 3.8333 30.3942 3.788C30.3462 3.7427 30.3222 3.6853 30.3222 3.616L30.3222 2.872L30.3222 2.872ZM34.5434 1.104L34.5434 2.46399L36.3754 2.46399L36.3754 3.46399L34.5434 3.46399L34.5434 4.85199L36.9354 4.85199L36.9354 5.89199L33.1834 5.89199L33.1834 0.0639954L36.9354 0.0639954L36.9354 1.104L34.5434 1.104L34.5434 1.104ZM39.5454 2.80399C39.7294 2.80399 39.8854 2.78129 40.0134 2.73599C40.144 2.68799 40.2507 2.62269 40.3334 2.53999C40.416 2.45729 40.476 2.36129 40.5134 2.25199C40.5507 2.13999 40.5694 2.01999 40.5694 1.89199C40.5694 1.63599 40.4854 1.43599 40.3174 1.29199C40.152 1.14799 39.8947 1.07599 39.5454 1.07599L39.0014 1.07599L39.0014 2.80399L39.5454 2.80399L39.5454 2.80399ZM42.4174 5.89199L41.1934 5.89199C40.9667 5.89199 40.804 5.80669 40.7054 5.63599L39.7374 3.944C39.692 3.87199 39.6414 3.82 39.5854 3.788C39.5294 3.7533 39.4494 3.736 39.3454 3.736L39.0014 3.736L39.0014 5.89199L37.6494 5.89199L37.6494 0.0639954L39.5454 0.0639954C39.9667 0.0639954 40.3254 0.107995 40.6214 0.195995C40.92 0.281296 41.1627 0.401296 41.3494 0.555995C41.5387 0.710695 41.676 0.893295 41.7614 1.104C41.8467 1.3147 41.8894 1.544 41.8894 1.79199C41.8894 1.9813 41.864 2.16 41.8134 2.328C41.7627 2.496 41.688 2.652 41.5894 2.796C41.4907 2.93729 41.368 3.064 41.2214 3.176C41.0774 3.288 40.9107 3.38 40.7214 3.452C40.8094 3.4973 40.892 3.55469 40.9694 3.624C41.0467 3.6907 41.116 3.7707 41.1774 3.864L42.4174 5.89199L42.4174 5.89199Z" transform="translate(1.6104126 10.609955)" id="Shape" fill="#000000" fill-rule="evenodd" stroke="none" />
      <path d="M0 2L0 1C0 0.723858 0.0976311 0.488155 0.292893 0.292893C0.488155 0.0976311 0.723858 0 1 0L43 0C43.2761 0 43.5118 0.0976311 43.7071 0.292893C43.9024 0.488155 44 0.723858 44 1L44 7C44 7.27614 43.9024 7.51184 43.7071 7.70711C43.5118 7.90237 43.2761 8 43 8L1 8C0.723858 8 0.488155 7.90237 0.292893 7.70711C0.0976311 7.51184 0 7.27614 0 7L0 2Z" transform="translate(0.5 9.4999695)" id="Rectangle" fill="none" fill-rule="evenodd" stroke="#FFFFFF" stroke-width="1" />
    </g>
  </g>
</svg>