<?xml version="1.0" encoding="UTF-8"?>
<svg width="50px" height="282px" viewBox="0 0 50 282" version="1.1" xmlns="http://www.w3.org/2000/svg" xmlns:xlink="http://www.w3.org/1999/xlink">
    <title>hover00123</title>
    <g id="hover00123" stroke="none" stroke-width="1" fill="none" fill-rule="evenodd">
        <g id="Group-6" transform="translate(0.000000, 47.000000)">
            <g id="Group-10">
                <rect id="Rectangle" fill="#399DFF" x="1" y="173" width="48" height="7" rx="1"></rect>
                <rect id="Rectangle" fill="#399DFF" x="1" y="228" width="48" height="7" rx="1"></rect>
                <rect id="Rectangle" fill="#399DFF" x="1" y="8" width="48" height="7" rx="1"></rect>
                <rect id="Rectangle" fill="#399DFF" x="1" y="63" width="48" height="7" rx="1"></rect>
                <rect id="Rectangle" fill="#399DFF" x="1" y="118" width="48" height="7" rx="1"></rect>
                <g id="Group-11" transform="translate(2.000000, 1.000000)"></g>
            </g>
        </g>
        <g id="Stacked-Group">
            <rect id="Rectangle" fill="#399DFF" x="1" y="0" width="48" height="7" rx="1"></rect>
            <g id="Group" transform="translate(0.000000, 40.000000)"></g>
        </g>
        <g id="Stacked-Group-2" transform="translate(0.000000, 55.000000)">
            <g id="Group-2"></g>
        </g>
        <g id="Stacked-Group-3" transform="translate(0.000000, 110.000000)">
            <g id="Stacked-Group">
                <g id="Group-3"></g>
            </g>
        </g>
        <g id="Stacked-Group-3" transform="translate(0.000000, 165.000000)">
            <g id="Group-4"></g>
        </g>
        <g id="Stacked-Group">
            <g id="Group-8">
                <g id="Group-7"></g>
            </g>
            <g id="Group-8" transform="translate(2.000000, 1.000000)">
                <g id="Group-7"></g>
            </g>
            <g id="Group-8" transform="translate(2.000000, 189.000000)">
                <g id="Group-7"></g>
            </g>
            <g id="Group-8" transform="translate(2.000000, 48.000000)">
                <g id="Group-7"></g>
            </g>
            <g id="Group-8" transform="translate(2.000000, 142.000000)">
                <g id="Group-7"></g>
            </g>
            <g id="Group-8" transform="translate(2.000000, 236.000000)">
                <g id="Group-7"></g>
            </g>
        </g>
        <g id="Group-16-Copy" transform="translate(2.000000, 0.000000)" fill="#FFFFFF" fill-rule="nonzero">
            <path d="M1.505,6 L1.505,4.2185 L2.2085,4.2185 C2.5375,4.2185 2.82508333,4.17766667 3.07125,4.096 C3.31741667,4.01433333 3.52216667,3.9 3.6855,3.753 C3.84883333,3.606 3.97133333,3.43041667 4.053,3.22625 C4.13466667,3.02208333 4.1755,2.7975 4.1755,2.5525 C4.1755,2.31683333 4.13641667,2.09983333 4.05825,1.9015 C3.98008333,1.70316667 3.8605,1.53283333 3.6995,1.3905 C3.5385,1.24816667 3.33433333,1.13733333 3.087,1.058 C2.83966667,0.978666667 2.54683333,0.939 2.2085,0.939 L2.2085,0.939 L0.5635,0.939 L0.5635,6 L1.505,6 Z M2.2085,3.4835 L1.505,3.4835 L1.505,1.667 L2.2085,1.667 C2.3835,1.667 2.53516667,1.68741667 2.6635,1.72825 C2.79183333,1.76908333 2.898,1.828 2.982,1.905 C3.066,1.982 3.129,2.07533333 3.171,2.185 C3.213,2.29466667 3.234,2.41716667 3.234,2.5525 C3.234,2.69483333 3.213,2.82375 3.171,2.93925 C3.129,3.05475 3.06541667,3.15275 2.98025,3.23325 C2.89508333,3.31375 2.78833333,3.37558333 2.66,3.41875 C2.53166667,3.46191667 2.38116667,3.4835 2.2085,3.4835 L2.2085,3.4835 Z M7.161,6.056 C7.546,6.056 7.896,5.99125 8.211,5.86175 C8.526,5.73225 8.7955,5.552 9.0195,5.321 C9.2435,5.09 9.41675,4.81641667 9.53925,4.50025 C9.66175,4.18408333 9.723,3.8405 9.723,3.4695 C9.723,3.22216667 9.69558333,2.9865 9.64075,2.7625 C9.58591667,2.5385 9.506,2.33083333 9.401,2.1395 C9.296,1.94816667 9.16825,1.77491667 9.01775,1.61975 C8.86725,1.46458333 8.6975,1.33275 8.5085,1.22425 C8.3195,1.11575 8.11183333,1.03175 7.8855,0.97225 C7.65916667,0.91275 7.41766667,0.883 7.161,0.883 C6.77833333,0.883 6.4295,0.94775 6.1145,1.07725 C5.7995,1.20675 5.52941667,1.387 5.30425,1.618 C5.07908333,1.849 4.90466667,2.12258333 4.781,2.43875 C4.65733333,2.75491667 4.5955,3.0985 4.5955,3.4695 C4.5955,3.8405 4.65733333,4.18408333 4.781,4.50025 C4.90466667,4.81641667 5.07908333,5.09 5.30425,5.321 C5.52941667,5.552 5.7995,5.73225 6.1145,5.86175 C6.4295,5.99125 6.77833333,6.056 7.161,6.056 Z M7.161,5.251 C6.91366667,5.251 6.69141667,5.21016667 6.49425,5.1285 C6.29708333,5.04683333 6.12908333,4.92958333 5.99025,4.77675 C5.85141667,4.62391667 5.74466667,4.43725 5.67,4.21675 C5.59533333,3.99625 5.558,3.74716667 5.558,3.4695 C5.558,3.19183333 5.59533333,2.94275 5.67,2.72225 C5.74466667,2.50175 5.85141667,2.3145 5.99025,2.1605 C6.12908333,2.0065 6.29708333,1.88866667 6.49425,1.807 C6.69141667,1.72533333 6.91366667,1.6845 7.161,1.6845 C7.40833333,1.6845 7.63058333,1.72533333 7.82775,1.807 C8.02491667,1.88866667 8.19233333,2.0065 8.33,2.1605 C8.46766667,2.3145 8.57383333,2.50175 8.6485,2.72225 C8.72316667,2.94275 8.7605,3.19183333 8.7605,3.4695 C8.7605,3.74716667 8.72316667,3.99625 8.6485,4.21675 C8.57383333,4.43725 8.46766667,4.62391667 8.33,4.77675 C8.19233333,4.92958333 8.02491667,5.04683333 7.82775,5.1285 C7.63058333,5.21016667 7.40833333,5.251 7.161,5.251 Z M13.517,6 L13.517,5.223 L11.494,5.223 L11.494,0.939 L10.5525,0.939 L10.5525,6 L13.517,6 Z M15.6975,6 L15.6975,4.04 L17.542,0.939 L16.709,0.939 C16.6296667,0.939 16.5643333,0.961166667 16.513,1.0055 C16.4616667,1.04983333 16.4231667,1.09766667 16.3975,1.149 L16.3975,1.149 L15.477,2.8395 C15.4256667,2.93983333 15.3801667,3.03433333 15.3405,3.123 C15.3008333,3.21166667 15.2658333,3.30033333 15.2355,3.389 C15.2028333,3.30033333 15.1660833,3.21166667 15.12525,3.123 C15.0844167,3.03433333 15.0371667,2.93983333 14.9835,2.8395 L14.9835,2.8395 L14.0595,1.149 C14.0268333,1.08833333 13.9865833,1.03816667 13.93875,0.9985 C13.8909167,0.958833333 13.8261667,0.939 13.7445,0.939 L13.7445,0.939 L12.915,0.939 L14.7595,4.04 L14.7595,6 L15.6975,6 Z" id="POLY"></path>
            <path d="M1.393,61 L1.393,57.731 C1.393,57.668 1.39066667,57.5991667 1.386,57.5245 C1.38133333,57.4498333 1.3755,57.374 1.3685,57.297 L1.3685,57.297 L2.9155,60.181 C2.98783333,60.3186667 3.09866667,60.3875 3.248,60.3875 L3.248,60.3875 L3.381,60.3875 C3.53033333,60.3875 3.64116667,60.3186667 3.7135,60.181 L3.7135,60.181 L5.243,57.3075 C5.229,57.4591667 5.222,57.6003333 5.222,57.731 L5.222,57.731 L5.222,61 L6.0515,61 L6.0515,55.939 L5.341,55.939 C5.299,55.939 5.26283333,55.9401667 5.2325,55.9425 C5.20216667,55.9448333 5.17475,55.9506667 5.15025,55.96 C5.12575,55.9693333 5.103,55.9845 5.082,56.0055 C5.061,56.0265 5.04116667,56.0545 5.0225,56.0895 L5.0225,56.0895 L3.528,58.893 C3.48833333,58.9676667 3.451,59.04525 3.416,59.12575 C3.381,59.20625 3.34716667,59.2896667 3.3145,59.376 C3.28183333,59.292 3.24858333,59.2103333 3.21475,59.131 C3.18091667,59.0516667 3.14416667,58.9746667 3.1045,58.9 L3.1045,58.9 L1.589,56.0895 C1.57033333,56.0545 1.55108333,56.0265 1.53125,56.0055 C1.51141667,55.9845 1.48925,55.9693333 1.46475,55.96 C1.44025,55.9506667 1.41283333,55.9448333 1.3825,55.9425 C1.35216667,55.9401667 1.316,55.939 1.274,55.939 L1.274,55.939 L0.5635,55.939 L0.5635,61 L1.393,61 Z M9.443,61.056 C9.828,61.056 10.178,60.99125 10.493,60.86175 C10.808,60.73225 11.0775,60.552 11.3015,60.321 C11.5255,60.09 11.69875,59.8164167 11.82125,59.50025 C11.94375,59.1840833 12.005,58.8405 12.005,58.4695 C12.005,58.2221667 11.9775833,57.9865 11.92275,57.7625 C11.8679167,57.5385 11.788,57.3308333 11.683,57.1395 C11.578,56.9481667 11.45025,56.7749167 11.29975,56.61975 C11.14925,56.4645833 10.9795,56.33275 10.7905,56.22425 C10.6015,56.11575 10.3938333,56.03175 10.1675,55.97225 C9.94116667,55.91275 9.69966667,55.883 9.443,55.883 C9.06033333,55.883 8.7115,55.94775 8.3965,56.07725 C8.0815,56.20675 7.81141667,56.387 7.58625,56.618 C7.36108333,56.849 7.18666667,57.1225833 7.063,57.43875 C6.93933333,57.7549167 6.8775,58.0985 6.8775,58.4695 C6.8775,58.8405 6.93933333,59.1840833 7.063,59.50025 C7.18666667,59.8164167 7.36108333,60.09 7.58625,60.321 C7.81141667,60.552 8.0815,60.73225 8.3965,60.86175 C8.7115,60.99125 9.06033333,61.056 9.443,61.056 Z M9.443,60.251 C9.19566667,60.251 8.97341667,60.2101667 8.77625,60.1285 C8.57908333,60.0468333 8.41108333,59.9295833 8.27225,59.77675 C8.13341667,59.6239167 8.02666667,59.43725 7.952,59.21675 C7.87733333,58.99625 7.84,58.7471667 7.84,58.4695 C7.84,58.1918333 7.87733333,57.94275 7.952,57.72225 C8.02666667,57.50175 8.13341667,57.3145 8.27225,57.1605 C8.41108333,57.0065 8.57908333,56.8886667 8.77625,56.807 C8.97341667,56.7253333 9.19566667,56.6845 9.443,56.6845 C9.69033333,56.6845 9.91258333,56.7253333 10.10975,56.807 C10.3069167,56.8886667 10.4743333,57.0065 10.612,57.1605 C10.7496667,57.3145 10.8558333,57.50175 10.9305,57.72225 C11.0051667,57.94275 11.0425,58.1918333 11.0425,58.4695 C11.0425,58.7471667 11.0051667,58.99625 10.9305,59.21675 C10.8558333,59.43725 10.7496667,59.6239167 10.612,59.77675 C10.4743333,59.9295833 10.3069167,60.0468333 10.10975,60.1285 C9.91258333,60.2101667 9.69033333,60.251 9.443,60.251 Z M13.664,61 L13.664,57.892 C13.664,57.7613333 13.657,57.619 13.643,57.465 L13.643,57.465 L16.2855,60.839 C16.3321667,60.8973333 16.3805833,60.93875 16.43075,60.96325 C16.4809167,60.98775 16.5433333,61 16.618,61 L16.618,61 L17.101,61 L17.101,55.939 L16.2715,55.939 L16.2715,59.0155 C16.2715,59.0831667 16.2738333,59.1566667 16.2785,59.236 C16.2831667,59.3153333 16.289,59.3958333 16.296,59.4775 L16.296,59.4775 L13.643,56.0895 C13.6173333,56.0568333 13.594,56.0305833 13.573,56.01075 C13.552,55.9909167 13.5304167,55.97575 13.50825,55.96525 C13.4860833,55.95475 13.4604167,55.94775 13.43125,55.94425 C13.4020833,55.94075 13.3676667,55.939 13.328,55.939 L13.328,55.939 L12.8345,55.939 L12.8345,61 L13.664,61 Z M20.4925,61.056 C20.8775,61.056 21.2275,60.99125 21.5425,60.86175 C21.8575,60.73225 22.127,60.552 22.351,60.321 C22.575,60.09 22.74825,59.8164167 22.87075,59.50025 C22.99325,59.1840833 23.0545,58.8405 23.0545,58.4695 C23.0545,58.2221667 23.0270833,57.9865 22.97225,57.7625 C22.9174167,57.5385 22.8375,57.3308333 22.7325,57.1395 C22.6275,56.9481667 22.49975,56.7749167 22.34925,56.61975 C22.19875,56.4645833 22.029,56.33275 21.84,56.22425 C21.651,56.11575 21.4433333,56.03175 21.217,55.97225 C20.9906667,55.91275 20.7491667,55.883 20.4925,55.883 C20.1098333,55.883 19.761,55.94775 19.446,56.07725 C19.131,56.20675 18.8609167,56.387 18.63575,56.618 C18.4105833,56.849 18.2361667,57.1225833 18.1125,57.43875 C17.9888333,57.7549167 17.927,58.0985 17.927,58.4695 C17.927,58.8405 17.9888333,59.1840833 18.1125,59.50025 C18.2361667,59.8164167 18.4105833,60.09 18.63575,60.321 C18.8609167,60.552 19.131,60.73225 19.446,60.86175 C19.761,60.99125 20.1098333,61.056 20.4925,61.056 Z M20.4925,60.251 C20.2451667,60.251 20.0229167,60.2101667 19.82575,60.1285 C19.6285833,60.0468333 19.4605833,59.9295833 19.32175,59.77675 C19.1829167,59.6239167 19.0761667,59.43725 19.0015,59.21675 C18.9268333,58.99625 18.8895,58.7471667 18.8895,58.4695 C18.8895,58.1918333 18.9268333,57.94275 19.0015,57.72225 C19.0761667,57.50175 19.1829167,57.3145 19.32175,57.1605 C19.4605833,57.0065 19.6285833,56.8886667 19.82575,56.807 C20.0229167,56.7253333 20.2451667,56.6845 20.4925,56.6845 C20.7398333,56.6845 20.9620833,56.7253333 21.15925,56.807 C21.3564167,56.8886667 21.5238333,57.0065 21.6615,57.1605 C21.7991667,57.3145 21.9053333,57.50175 21.98,57.72225 C22.0546667,57.94275 22.092,58.1918333 22.092,58.4695 C22.092,58.7471667 22.0546667,58.99625 21.98,59.21675 C21.9053333,59.43725 21.7991667,59.6239167 21.6615,59.77675 C21.5238333,59.9295833 21.3564167,60.0468333 21.15925,60.1285 C20.9620833,60.2101667 20.7398333,60.251 20.4925,60.251 Z" id="MONO"></path>
            <path d="M1.393,116 L1.393,112.731 C1.393,112.668 1.39066667,112.599167 1.386,112.5245 C1.38133333,112.449833 1.3755,112.374 1.3685,112.297 L1.3685,112.297 L2.9155,115.181 C2.98783333,115.318667 3.09866667,115.3875 3.248,115.3875 L3.248,115.3875 L3.381,115.3875 C3.53033333,115.3875 3.64116667,115.318667 3.7135,115.181 L3.7135,115.181 L5.243,112.3075 C5.229,112.459167 5.222,112.600333 5.222,112.731 L5.222,112.731 L5.222,116 L6.0515,116 L6.0515,110.939 L5.341,110.939 C5.299,110.939 5.26283333,110.940167 5.2325,110.9425 C5.20216667,110.944833 5.17475,110.950667 5.15025,110.96 C5.12575,110.969333 5.103,110.9845 5.082,111.0055 C5.061,111.0265 5.04116667,111.0545 5.0225,111.0895 L5.0225,111.0895 L3.528,113.893 C3.48833333,113.967667 3.451,114.04525 3.416,114.12575 C3.381,114.20625 3.34716667,114.289667 3.3145,114.376 C3.28183333,114.292 3.24858333,114.210333 3.21475,114.131 C3.18091667,114.051667 3.14416667,113.974667 3.1045,113.9 L3.1045,113.9 L1.589,111.0895 C1.57033333,111.0545 1.55108333,111.0265 1.53125,111.0055 C1.51141667,110.9845 1.48925,110.969333 1.46475,110.96 C1.44025,110.950667 1.41283333,110.944833 1.3825,110.9425 C1.35216667,110.940167 1.316,110.939 1.274,110.939 L1.274,110.939 L0.5635,110.939 L0.5635,116 L1.393,116 Z M9.443,116.056 C9.828,116.056 10.178,115.99125 10.493,115.86175 C10.808,115.73225 11.0775,115.552 11.3015,115.321 C11.5255,115.09 11.69875,114.816417 11.82125,114.50025 C11.94375,114.184083 12.005,113.8405 12.005,113.4695 C12.005,113.222167 11.9775833,112.9865 11.92275,112.7625 C11.8679167,112.5385 11.788,112.330833 11.683,112.1395 C11.578,111.948167 11.45025,111.774917 11.29975,111.61975 C11.14925,111.464583 10.9795,111.33275 10.7905,111.22425 C10.6015,111.11575 10.3938333,111.03175 10.1675,110.97225 C9.94116667,110.91275 9.69966667,110.883 9.443,110.883 C9.06033333,110.883 8.7115,110.94775 8.3965,111.07725 C8.0815,111.20675 7.81141667,111.387 7.58625,111.618 C7.36108333,111.849 7.18666667,112.122583 7.063,112.43875 C6.93933333,112.754917 6.8775,113.0985 6.8775,113.4695 C6.8775,113.8405 6.93933333,114.184083 7.063,114.50025 C7.18666667,114.816417 7.36108333,115.09 7.58625,115.321 C7.81141667,115.552 8.0815,115.73225 8.3965,115.86175 C8.7115,115.99125 9.06033333,116.056 9.443,116.056 Z M9.443,115.251 C9.19566667,115.251 8.97341667,115.210167 8.77625,115.1285 C8.57908333,115.046833 8.41108333,114.929583 8.27225,114.77675 C8.13341667,114.623917 8.02666667,114.43725 7.952,114.21675 C7.87733333,113.99625 7.84,113.747167 7.84,113.4695 C7.84,113.191833 7.87733333,112.94275 7.952,112.72225 C8.02666667,112.50175 8.13341667,112.3145 8.27225,112.1605 C8.41108333,112.0065 8.57908333,111.888667 8.77625,111.807 C8.97341667,111.725333 9.19566667,111.6845 9.443,111.6845 C9.69033333,111.6845 9.91258333,111.725333 10.10975,111.807 C10.3069167,111.888667 10.4743333,112.0065 10.612,112.1605 C10.7496667,112.3145 10.8558333,112.50175 10.9305,112.72225 C11.0051667,112.94275 11.0425,113.191833 11.0425,113.4695 C11.0425,113.747167 11.0051667,113.99625 10.9305,114.21675 C10.8558333,114.43725 10.7496667,114.623917 10.612,114.77675 C10.4743333,114.929583 10.3069167,115.046833 10.10975,115.1285 C9.91258333,115.210167 9.69033333,115.251 9.443,115.251 Z M13.664,116 L13.664,112.892 C13.664,112.761333 13.657,112.619 13.643,112.465 L13.643,112.465 L16.2855,115.839 C16.3321667,115.897333 16.3805833,115.93875 16.43075,115.96325 C16.4809167,115.98775 16.5433333,116 16.618,116 L16.618,116 L17.101,116 L17.101,110.939 L16.2715,110.939 L16.2715,114.0155 C16.2715,114.083167 16.2738333,114.156667 16.2785,114.236 C16.2831667,114.315333 16.289,114.395833 16.296,114.4775 L16.296,114.4775 L13.643,111.0895 C13.6173333,111.056833 13.594,111.030583 13.573,111.01075 C13.552,110.990917 13.5304167,110.97575 13.50825,110.96525 C13.4860833,110.95475 13.4604167,110.94775 13.43125,110.94425 C13.4020833,110.94075 13.3676667,110.939 13.328,110.939 L13.328,110.939 L12.8345,110.939 L12.8345,116 L13.664,116 Z M20.4925,116.056 C20.8775,116.056 21.2275,115.99125 21.5425,115.86175 C21.8575,115.73225 22.127,115.552 22.351,115.321 C22.575,115.09 22.74825,114.816417 22.87075,114.50025 C22.99325,114.184083 23.0545,113.8405 23.0545,113.4695 C23.0545,113.222167 23.0270833,112.9865 22.97225,112.7625 C22.9174167,112.5385 22.8375,112.330833 22.7325,112.1395 C22.6275,111.948167 22.49975,111.774917 22.34925,111.61975 C22.19875,111.464583 22.029,111.33275 21.84,111.22425 C21.651,111.11575 21.4433333,111.03175 21.217,110.97225 C20.9906667,110.91275 20.7491667,110.883 20.4925,110.883 C20.1098333,110.883 19.761,110.94775 19.446,111.07725 C19.131,111.20675 18.8609167,111.387 18.63575,111.618 C18.4105833,111.849 18.2361667,112.122583 18.1125,112.43875 C17.9888333,112.754917 17.927,113.0985 17.927,113.4695 C17.927,113.8405 17.9888333,114.184083 18.1125,114.50025 C18.2361667,114.816417 18.4105833,115.09 18.63575,115.321 C18.8609167,115.552 19.131,115.73225 19.446,115.86175 C19.761,115.99125 20.1098333,116.056 20.4925,116.056 Z M20.4925,115.251 C20.2451667,115.251 20.0229167,115.210167 19.82575,115.1285 C19.6285833,115.046833 19.4605833,114.929583 19.32175,114.77675 C19.1829167,114.623917 19.0761667,114.43725 19.0015,114.21675 C18.9268333,113.99625 18.8895,113.747167 18.8895,113.4695 C18.8895,113.191833 18.9268333,112.94275 19.0015,112.72225 C19.0761667,112.50175 19.1829167,112.3145 19.32175,112.1605 C19.4605833,112.0065 19.6285833,111.888667 19.82575,111.807 C20.0229167,111.725333 20.2451667,111.6845 20.4925,111.6845 C20.7398333,111.6845 20.9620833,111.725333 21.15925,111.807 C21.3564167,111.888667 21.5238333,112.0065 21.6615,112.1605 C21.7991667,112.3145 21.9053333,112.50175 21.98,112.72225 C22.0546667,112.94275 22.092,113.191833 22.092,113.4695 C22.092,113.747167 22.0546667,113.99625 21.98,114.21675 C21.9053333,114.43725 21.7991667,114.623917 21.6615,114.77675 C21.5238333,114.929583 21.3564167,115.046833 21.15925,115.1285 C20.9620833,115.210167 20.7398333,115.251 20.4925,115.251 Z M26.8485,116.056 C27.1285,116.056 27.377,116.013417 27.594,115.92825 C27.811,115.843083 27.99475,115.726417 28.14525,115.57825 C28.29575,115.430083 28.4100833,115.25625 28.48825,115.05675 C28.5664167,114.85725 28.6055,114.643167 28.6055,114.4145 C28.6055,114.2045 28.57225,114.026 28.50575,113.879 C28.43925,113.732 28.3511667,113.60775 28.2415,113.50625 C28.1318333,113.40475 28.007,113.32075 27.867,113.25425 C27.727,113.18775 27.5835,113.129417 27.4365,113.07925 C27.2895,113.029083 27.146,112.981833 27.006,112.9375 C26.866,112.893167 26.7411667,112.843 26.6315,112.787 C26.5218333,112.731 26.43375,112.663333 26.36725,112.584 C26.30075,112.504667 26.2675,112.4055 26.2675,112.2865 C26.2675,112.193167 26.2838333,112.107417 26.3165,112.02925 C26.3491667,111.951083 26.39875,111.884 26.46525,111.828 C26.53175,111.772 26.614,111.72825 26.712,111.69675 C26.81,111.66525 26.9243333,111.6495 27.055,111.6495 C27.1996667,111.6495 27.3250833,111.667583 27.43125,111.70375 C27.5374167,111.739917 27.6301667,111.780167 27.7095,111.8245 C27.7888333,111.868833 27.8570833,111.909083 27.91425,111.94525 C27.9714167,111.981417 28.0245,111.9995 28.0735,111.9995 C28.1201667,111.9995 28.15925,111.988417 28.19075,111.96625 C28.22225,111.944083 28.252,111.9085 28.28,111.8595 L28.28,111.8595 L28.5145,111.415 C28.3371667,111.247 28.1225,111.116333 27.8705,111.023 C27.6185,110.929667 27.3431667,110.883 27.0445,110.883 C26.7785,110.883 26.5428333,110.923833 26.3375,111.0055 C26.1321667,111.087167 25.9595,111.195667 25.8195,111.331 C25.6795,111.466333 25.57275,111.6215 25.49925,111.7965 C25.42575,111.9715 25.389,112.151167 25.389,112.3355 C25.389,112.5665 25.42225,112.76075 25.48875,112.91825 C25.55525,113.07575 25.6433333,113.207 25.753,113.312 C25.8626667,113.417 25.9875,113.502167 26.1275,113.5675 C26.2675,113.632833 26.4098333,113.688833 26.5545,113.7355 C26.6991667,113.782167 26.8415,113.825333 26.9815,113.865 C27.1215,113.904667 27.2463333,113.953083 27.356,114.01025 C27.4656667,114.067417 27.55375,114.138 27.62025,114.222 C27.68675,114.306 27.72,114.4145 27.72,114.5475 C27.72,114.7855 27.6465,114.968083 27.4995,115.09525 C27.3525,115.222417 27.1448333,115.286 26.8765,115.286 C26.7015,115.286 26.5515833,115.262083 26.42675,115.21425 C26.3019167,115.166417 26.1928333,115.113333 26.0995,115.055 C26.0061667,114.996667 25.9256667,114.943583 25.858,114.89575 C25.7903333,114.847917 25.7273333,114.824 25.669,114.824 C25.627,114.824 25.5873333,114.835083 25.55,114.85725 C25.5126667,114.879417 25.4823333,114.906833 25.459,114.9395 L25.459,114.9395 L25.1825,115.391 C25.2805,115.491333 25.3925,115.582333 25.5185,115.664 C25.6445,115.745667 25.77925,115.815667 25.92275,115.874 C26.06625,115.932333 26.2161667,115.97725 26.3725,116.00875 C26.5288333,116.04025 26.6875,116.056 26.8485,116.056 Z M31.4335,116 L31.4335,111.7125 L32.9595,111.7125 L32.9595,110.939 L28.966,110.939 L28.966,111.7125 L30.492,111.7125 L30.492,116 L31.4335,116 Z" id="MONOST"></path>
            <path d="M1.393,171 L1.393,167.731 C1.393,167.668 1.39066667,167.599167 1.386,167.5245 C1.38133333,167.449833 1.3755,167.374 1.3685,167.297 L1.3685,167.297 L2.9155,170.181 C2.98783333,170.318667 3.09866667,170.3875 3.248,170.3875 L3.248,170.3875 L3.381,170.3875 C3.53033333,170.3875 3.64116667,170.318667 3.7135,170.181 L3.7135,170.181 L5.243,167.3075 C5.229,167.459167 5.222,167.600333 5.222,167.731 L5.222,167.731 L5.222,171 L6.0515,171 L6.0515,165.939 L5.341,165.939 C5.299,165.939 5.26283333,165.940167 5.2325,165.9425 C5.20216667,165.944833 5.17475,165.950667 5.15025,165.96 C5.12575,165.969333 5.103,165.9845 5.082,166.0055 C5.061,166.0265 5.04116667,166.0545 5.0225,166.0895 L5.0225,166.0895 L3.528,168.893 C3.48833333,168.967667 3.451,169.04525 3.416,169.12575 C3.381,169.20625 3.34716667,169.289667 3.3145,169.376 C3.28183333,169.292 3.24858333,169.210333 3.21475,169.131 C3.18091667,169.051667 3.14416667,168.974667 3.1045,168.9 L3.1045,168.9 L1.589,166.0895 C1.57033333,166.0545 1.55108333,166.0265 1.53125,166.0055 C1.51141667,165.9845 1.48925,165.969333 1.46475,165.96 C1.44025,165.950667 1.41283333,165.944833 1.3825,165.9425 C1.35216667,165.940167 1.316,165.939 1.274,165.939 L1.274,165.939 L0.5635,165.939 L0.5635,171 L1.393,171 Z M9.443,171.056 C9.828,171.056 10.178,170.99125 10.493,170.86175 C10.808,170.73225 11.0775,170.552 11.3015,170.321 C11.5255,170.09 11.69875,169.816417 11.82125,169.50025 C11.94375,169.184083 12.005,168.8405 12.005,168.4695 C12.005,168.222167 11.9775833,167.9865 11.92275,167.7625 C11.8679167,167.5385 11.788,167.330833 11.683,167.1395 C11.578,166.948167 11.45025,166.774917 11.29975,166.61975 C11.14925,166.464583 10.9795,166.33275 10.7905,166.22425 C10.6015,166.11575 10.3938333,166.03175 10.1675,165.97225 C9.94116667,165.91275 9.69966667,165.883 9.443,165.883 C9.06033333,165.883 8.7115,165.94775 8.3965,166.07725 C8.0815,166.20675 7.81141667,166.387 7.58625,166.618 C7.36108333,166.849 7.18666667,167.122583 7.063,167.43875 C6.93933333,167.754917 6.8775,168.0985 6.8775,168.4695 C6.8775,168.8405 6.93933333,169.184083 7.063,169.50025 C7.18666667,169.816417 7.36108333,170.09 7.58625,170.321 C7.81141667,170.552 8.0815,170.73225 8.3965,170.86175 C8.7115,170.99125 9.06033333,171.056 9.443,171.056 Z M9.443,170.251 C9.19566667,170.251 8.97341667,170.210167 8.77625,170.1285 C8.57908333,170.046833 8.41108333,169.929583 8.27225,169.77675 C8.13341667,169.623917 8.02666667,169.43725 7.952,169.21675 C7.87733333,168.99625 7.84,168.747167 7.84,168.4695 C7.84,168.191833 7.87733333,167.94275 7.952,167.72225 C8.02666667,167.50175 8.13341667,167.3145 8.27225,167.1605 C8.41108333,167.0065 8.57908333,166.888667 8.77625,166.807 C8.97341667,166.725333 9.19566667,166.6845 9.443,166.6845 C9.69033333,166.6845 9.91258333,166.725333 10.10975,166.807 C10.3069167,166.888667 10.4743333,167.0065 10.612,167.1605 C10.7496667,167.3145 10.8558333,167.50175 10.9305,167.72225 C11.0051667,167.94275 11.0425,168.191833 11.0425,168.4695 C11.0425,168.747167 11.0051667,168.99625 10.9305,169.21675 C10.8558333,169.43725 10.7496667,169.623917 10.612,169.77675 C10.4743333,169.929583 10.3069167,170.046833 10.10975,170.1285 C9.91258333,170.210167 9.69033333,170.251 9.443,170.251 Z M13.664,171 L13.664,167.892 C13.664,167.761333 13.657,167.619 13.643,167.465 L13.643,167.465 L16.2855,170.839 C16.3321667,170.897333 16.3805833,170.93875 16.43075,170.96325 C16.4809167,170.98775 16.5433333,171 16.618,171 L16.618,171 L17.101,171 L17.101,165.939 L16.2715,165.939 L16.2715,169.0155 C16.2715,169.083167 16.2738333,169.156667 16.2785,169.236 C16.2831667,169.315333 16.289,169.395833 16.296,169.4775 L16.296,169.4775 L13.643,166.0895 C13.6173333,166.056833 13.594,166.030583 13.573,166.01075 C13.552,165.990917 13.5304167,165.97575 13.50825,165.96525 C13.4860833,165.95475 13.4604167,165.94775 13.43125,165.94425 C13.4020833,165.94075 13.3676667,165.939 13.328,165.939 L13.328,165.939 L12.8345,165.939 L12.8345,171 L13.664,171 Z M20.4925,171.056 C20.8775,171.056 21.2275,170.99125 21.5425,170.86175 C21.8575,170.73225 22.127,170.552 22.351,170.321 C22.575,170.09 22.74825,169.816417 22.87075,169.50025 C22.99325,169.184083 23.0545,168.8405 23.0545,168.4695 C23.0545,168.222167 23.0270833,167.9865 22.97225,167.7625 C22.9174167,167.5385 22.8375,167.330833 22.7325,167.1395 C22.6275,166.948167 22.49975,166.774917 22.34925,166.61975 C22.19875,166.464583 22.029,166.33275 21.84,166.22425 C21.651,166.11575 21.4433333,166.03175 21.217,165.97225 C20.9906667,165.91275 20.7491667,165.883 20.4925,165.883 C20.1098333,165.883 19.761,165.94775 19.446,166.07725 C19.131,166.20675 18.8609167,166.387 18.63575,166.618 C18.4105833,166.849 18.2361667,167.122583 18.1125,167.43875 C17.9888333,167.754917 17.927,168.0985 17.927,168.4695 C17.927,168.8405 17.9888333,169.184083 18.1125,169.50025 C18.2361667,169.816417 18.4105833,170.09 18.63575,170.321 C18.8609167,170.552 19.131,170.73225 19.446,170.86175 C19.761,170.99125 20.1098333,171.056 20.4925,171.056 Z M20.4925,170.251 C20.2451667,170.251 20.0229167,170.210167 19.82575,170.1285 C19.6285833,170.046833 19.4605833,169.929583 19.32175,169.77675 C19.1829167,169.623917 19.0761667,169.43725 19.0015,169.21675 C18.9268333,168.99625 18.8895,168.747167 18.8895,168.4695 C18.8895,168.191833 18.9268333,167.94275 19.0015,167.72225 C19.0761667,167.50175 19.1829167,167.3145 19.32175,167.1605 C19.4605833,167.0065 19.6285833,166.888667 19.82575,166.807 C20.0229167,166.725333 20.2451667,166.6845 20.4925,166.6845 C20.7398333,166.6845 20.9620833,166.725333 21.15925,166.807 C21.3564167,166.888667 21.5238333,167.0065 21.6615,167.1605 C21.7991667,167.3145 21.9053333,167.50175 21.98,167.72225 C22.0546667,167.94275 22.092,168.191833 22.092,168.4695 C22.092,168.747167 22.0546667,168.99625 21.98,169.21675 C21.9053333,169.43725 21.7991667,169.623917 21.6615,169.77675 C21.5238333,169.929583 21.3564167,170.046833 21.15925,170.1285 C20.9620833,170.210167 20.7398333,170.251 20.4925,170.251 Z M26.53,171 L26.53,168.9385 L28.427,168.9385 L28.427,168.186 L26.53,168.186 L26.53,166.688 L28.777,166.688 L28.777,165.939 L25.585,165.939 L25.585,171 L26.53,171 Z M30.4885,171 L30.4885,169.2185 L31.192,169.2185 C31.521,169.2185 31.8085833,169.177667 32.05475,169.096 C32.3009167,169.014333 32.5056667,168.9 32.669,168.753 C32.8323333,168.606 32.9548333,168.430417 33.0365,168.22625 C33.1181667,168.022083 33.159,167.7975 33.159,167.5525 C33.159,167.316833 33.1199167,167.099833 33.04175,166.9015 C32.9635833,166.703167 32.844,166.532833 32.683,166.3905 C32.522,166.248167 32.3178333,166.137333 32.0705,166.058 C31.8231667,165.978667 31.5303333,165.939 31.192,165.939 L31.192,165.939 L29.547,165.939 L29.547,171 L30.4885,171 Z M31.192,168.4835 L30.4885,168.4835 L30.4885,166.667 L31.192,166.667 C31.367,166.667 31.5186667,166.687417 31.647,166.72825 C31.7753333,166.769083 31.8815,166.828 31.9655,166.905 C32.0495,166.982 32.1125,167.075333 32.1545,167.185 C32.1965,167.294667 32.2175,167.417167 32.2175,167.5525 C32.2175,167.694833 32.1965,167.82375 32.1545,167.93925 C32.1125,168.05475 32.0489167,168.15275 31.96375,168.23325 C31.8785833,168.31375 31.7718333,168.375583 31.6435,168.41875 C31.5151667,168.461917 31.3646667,168.4835 31.192,168.4835 L31.192,168.4835 Z" id="MONOFP"></path>
            <path d="M1.393,226 L1.393,222.731 C1.393,222.668 1.39066667,222.599167 1.386,222.5245 C1.38133333,222.449833 1.3755,222.374 1.3685,222.297 L1.3685,222.297 L2.9155,225.181 C2.98783333,225.318667 3.09866667,225.3875 3.248,225.3875 L3.248,225.3875 L3.381,225.3875 C3.53033333,225.3875 3.64116667,225.318667 3.7135,225.181 L3.7135,225.181 L5.243,222.3075 C5.229,222.459167 5.222,222.600333 5.222,222.731 L5.222,222.731 L5.222,226 L6.0515,226 L6.0515,220.939 L5.341,220.939 C5.299,220.939 5.26283333,220.940167 5.2325,220.9425 C5.20216667,220.944833 5.17475,220.950667 5.15025,220.96 C5.12575,220.969333 5.103,220.9845 5.082,221.0055 C5.061,221.0265 5.04116667,221.0545 5.0225,221.0895 L5.0225,221.0895 L3.528,223.893 C3.48833333,223.967667 3.451,224.04525 3.416,224.12575 C3.381,224.20625 3.34716667,224.289667 3.3145,224.376 C3.28183333,224.292 3.24858333,224.210333 3.21475,224.131 C3.18091667,224.051667 3.14416667,223.974667 3.1045,223.9 L3.1045,223.9 L1.589,221.0895 C1.57033333,221.0545 1.55108333,221.0265 1.53125,221.0055 C1.51141667,220.9845 1.48925,220.969333 1.46475,220.96 C1.44025,220.950667 1.41283333,220.944833 1.3825,220.9425 C1.35216667,220.940167 1.316,220.939 1.274,220.939 L1.274,220.939 L0.5635,220.939 L0.5635,226 L1.393,226 Z M9.243,226.056 C9.628,226.056 9.978,225.99125 10.293,225.86175 C10.608,225.73225 10.8775,225.552 11.1015,225.321 C11.3255,225.09 11.49875,224.816417 11.62125,224.50025 C11.74375,224.184083 11.805,223.8405 11.805,223.4695 C11.805,223.222167 11.7775833,222.9865 11.72275,222.7625 C11.6679167,222.5385 11.588,222.330833 11.483,222.1395 C11.378,221.948167 11.25025,221.774917 11.09975,221.61975 C10.94925,221.464583 10.7795,221.33275 10.5905,221.22425 C10.4015,221.11575 10.1938333,221.03175 9.9675,220.97225 C9.74116666,220.91275 9.49966666,220.883 9.243,220.883 C8.86033333,220.883 8.5115,220.94775 8.1965,221.07725 C7.8815,221.20675 7.61141666,221.387 7.38625,221.618 C7.16108333,221.849 6.98666666,222.122583 6.863,222.43875 C6.73933333,222.754917 6.6775,223.0985 6.6775,223.4695 C6.6775,223.8405 6.73933333,224.184083 6.863,224.50025 C6.98666666,224.816417 7.16108333,225.09 7.38625,225.321 C7.61141666,225.552 7.8815,225.73225 8.1965,225.86175 C8.5115,225.99125 8.86033333,226.056 9.243,226.056 Z M9.243,225.251 C8.99566666,225.251 8.77341666,225.210167 8.57625,225.1285 C8.37908333,225.046833 8.21108333,224.929583 8.07225,224.77675 C7.93341666,224.623917 7.82666666,224.43725 7.752,224.21675 C7.67733333,223.99625 7.64,223.747167 7.64,223.4695 C7.64,223.191833 7.67733333,222.94275 7.752,222.72225 C7.82666666,222.50175 7.93341666,222.3145 8.07225,222.1605 C8.21108333,222.0065 8.37908333,221.888667 8.57625,221.807 C8.77341666,221.725333 8.99566666,221.6845 9.243,221.6845 C9.49033333,221.6845 9.71258333,221.725333 9.90975,221.807 C10.1069167,221.888667 10.2743333,222.0065 10.412,222.1605 C10.5496667,222.3145 10.6558333,222.50175 10.7305,222.72225 C10.8051667,222.94275 10.8425,223.191833 10.8425,223.4695 C10.8425,223.747167 10.8051667,223.99625 10.7305,224.21675 C10.6558333,224.43725 10.5496667,224.623917 10.412,224.77675 C10.2743333,224.929583 10.1069167,225.046833 9.90975,225.1285 C9.71258333,225.210167 9.49033333,225.251 9.243,225.251 Z M13.264,226 L13.264,222.892 C13.264,222.761333 13.257,222.619 13.243,222.465 L13.243,222.465 L15.8855,225.839 C15.9321667,225.897333 15.9805833,225.93875 16.03075,225.96325 C16.0809167,225.98775 16.1433333,226 16.218,226 L16.218,226 L16.701,226 L16.701,220.939 L15.8715,220.939 L15.8715,224.0155 C15.8715,224.083167 15.8738333,224.156667 15.8785,224.236 C15.8831667,224.315333 15.889,224.395833 15.896,224.4775 L15.896,224.4775 L13.243,221.0895 C13.2173333,221.056833 13.194,221.030583 13.173,221.01075 C13.152,220.990917 13.1304167,220.97575 13.10825,220.96525 C13.0860833,220.95475 13.0604167,220.94775 13.03125,220.94425 C13.0020833,220.94075 12.9676667,220.939 12.928,220.939 L12.928,220.939 L12.4345,220.939 L12.4345,226 L13.264,226 Z M19.8925,226.056 C20.2775,226.056 20.6275,225.99125 20.9425,225.86175 C21.2575,225.73225 21.527,225.552 21.751,225.321 C21.975,225.09 22.14825,224.816417 22.27075,224.50025 C22.39325,224.184083 22.4545,223.8405 22.4545,223.4695 C22.4545,223.222167 22.4270833,222.9865 22.37225,222.7625 C22.3174167,222.5385 22.2375,222.330833 22.1325,222.1395 C22.0275,221.948167 21.89975,221.774917 21.74925,221.61975 C21.59875,221.464583 21.429,221.33275 21.24,221.22425 C21.051,221.11575 20.8433333,221.03175 20.617,220.97225 C20.3906667,220.91275 20.1491667,220.883 19.8925,220.883 C19.5098333,220.883 19.161,220.94775 18.846,221.07725 C18.531,221.20675 18.2609167,221.387 18.03575,221.618 C17.8105833,221.849 17.6361667,222.122583 17.5125,222.43875 C17.3888333,222.754917 17.327,223.0985 17.327,223.4695 C17.327,223.8405 17.3888333,224.184083 17.5125,224.50025 C17.6361667,224.816417 17.8105833,225.09 18.03575,225.321 C18.2609167,225.552 18.531,225.73225 18.846,225.86175 C19.161,225.99125 19.5098333,226.056 19.8925,226.056 Z M19.8925,225.251 C19.6451667,225.251 19.4229167,225.210167 19.22575,225.1285 C19.0285833,225.046833 18.8605833,224.929583 18.72175,224.77675 C18.5829167,224.623917 18.4761667,224.43725 18.4015,224.21675 C18.3268333,223.99625 18.2895,223.747167 18.2895,223.4695 C18.2895,223.191833 18.3268333,222.94275 18.4015,222.72225 C18.4761667,222.50175 18.5829167,222.3145 18.72175,222.1605 C18.8605833,222.0065 19.0285833,221.888667 19.22575,221.807 C19.4229167,221.725333 19.6451667,221.6845 19.8925,221.6845 C20.1398333,221.6845 20.3620833,221.725333 20.55925,221.807 C20.7564167,221.888667 20.9238333,222.0065 21.0615,222.1605 C21.1991667,222.3145 21.3053333,222.50175 21.38,222.72225 C21.4546667,222.94275 21.492,223.191833 21.492,223.4695 C21.492,223.747167 21.4546667,223.99625 21.38,224.21675 C21.3053333,224.43725 21.1991667,224.623917 21.0615,224.77675 C20.9238333,224.929583 20.7564167,225.046833 20.55925,225.1285 C20.3620833,225.210167 20.1398333,225.251 19.8925,225.251 Z M25.8485,226.056 C26.1285,226.056 26.377,226.013417 26.594,225.92825 C26.811,225.843083 26.99475,225.726417 27.14525,225.57825 C27.29575,225.430083 27.4100833,225.25625 27.48825,225.05675 C27.5664167,224.85725 27.6055,224.643167 27.6055,224.4145 C27.6055,224.2045 27.57225,224.026 27.50575,223.879 C27.43925,223.732 27.3511667,223.60775 27.2415,223.50625 C27.1318333,223.40475 27.007,223.32075 26.867,223.25425 C26.727,223.18775 26.5835,223.129417 26.4365,223.07925 C26.2895,223.029083 26.146,222.981833 26.006,222.9375 C25.866,222.893167 25.7411667,222.843 25.6315,222.787 C25.5218333,222.731 25.43375,222.663333 25.36725,222.584 C25.30075,222.504667 25.2675,222.4055 25.2675,222.2865 C25.2675,222.193167 25.2838333,222.107417 25.3165,222.02925 C25.3491667,221.951083 25.39875,221.884 25.46525,221.828 C25.53175,221.772 25.614,221.72825 25.712,221.69675 C25.81,221.66525 25.9243333,221.6495 26.055,221.6495 C26.1996667,221.6495 26.3250833,221.667583 26.43125,221.70375 C26.5374167,221.739917 26.6301667,221.780167 26.7095,221.8245 C26.7888333,221.868833 26.8570833,221.909083 26.91425,221.94525 C26.9714167,221.981417 27.0245,221.9995 27.0735,221.9995 C27.1201667,221.9995 27.15925,221.988417 27.19075,221.96625 C27.22225,221.944083 27.252,221.9085 27.28,221.8595 L27.28,221.8595 L27.5145,221.415 C27.3371667,221.247 27.1225,221.116333 26.8705,221.023 C26.6185,220.929667 26.3431667,220.883 26.0445,220.883 C25.7785,220.883 25.5428333,220.923833 25.3375,221.0055 C25.1321667,221.087167 24.9595,221.195667 24.8195,221.331 C24.6795,221.466333 24.57275,221.6215 24.49925,221.7965 C24.42575,221.9715 24.389,222.151167 24.389,222.3355 C24.389,222.5665 24.42225,222.76075 24.48875,222.91825 C24.55525,223.07575 24.6433333,223.207 24.753,223.312 C24.8626667,223.417 24.9875,223.502167 25.1275,223.5675 C25.2675,223.632833 25.4098333,223.688833 25.5545,223.7355 C25.6991667,223.782167 25.8415,223.825333 25.9815,223.865 C26.1215,223.904667 26.2463333,223.953083 26.356,224.01025 C26.4656667,224.067417 26.55375,224.138 26.62025,224.222 C26.68675,224.306 26.72,224.4145 26.72,224.5475 C26.72,224.7855 26.6465,224.968083 26.4995,225.09525 C26.3525,225.222417 26.1448333,225.286 25.8765,225.286 C25.7015,225.286 25.5515833,225.262083 25.42675,225.21425 C25.3019167,225.166417 25.1928333,225.113333 25.0995,225.055 C25.0061667,224.996667 24.9256667,224.943583 24.858,224.89575 C24.7903333,224.847917 24.7273333,224.824 24.669,224.824 C24.627,224.824 24.5873333,224.835083 24.55,224.85725 C24.5126667,224.879417 24.4823333,224.906833 24.459,224.9395 L24.459,224.9395 L24.1825,225.391 C24.2805,225.491333 24.3925,225.582333 24.5185,225.664 C24.6445,225.745667 24.77925,225.815667 24.92275,225.874 C25.06625,225.932333 25.2161667,225.97725 25.3725,226.00875 C25.5288333,226.04025 25.6875,226.056 25.8485,226.056 Z M30.2335,226 L30.2335,221.7125 L31.7595,221.7125 L31.7595,220.939 L27.766,220.939 L27.766,221.7125 L29.292,221.7125 L29.292,226 L30.2335,226 Z M35.3285,225.412 L35.3285,223.97 L36.6865,223.97 L36.6865,223.3295 L35.3285,223.3295 L35.3285,221.8945 L34.625,221.8945 L34.625,223.3295 L33.274,223.3295 L33.274,223.97 L34.625,223.97 L34.625,225.412 L35.3285,225.412 Z M39.818,226 L39.818,223.9385 L41.715,223.9385 L41.715,223.186 L39.818,223.186 L39.818,221.688 L42.065,221.688 L42.065,220.939 L38.873,220.939 L38.873,226 L39.818,226 Z M43.5765,226 L43.5765,224.2185 L44.28,224.2185 C44.609,224.2185 44.8965833,224.177667 45.14275,224.096 C45.3889166,224.014333 45.5936666,223.9 45.757,223.753 C45.9203333,223.606 46.0428333,223.430417 46.1245,223.22625 C46.2061666,223.022083 46.247,222.7975 46.247,222.5525 C46.247,222.316833 46.2079166,222.099833 46.12975,221.9015 C46.0515833,221.703167 45.932,221.532833 45.771,221.3905 C45.61,221.248167 45.4058333,221.137333 45.1585,221.058 C44.9111666,220.978667 44.6183333,220.939 44.28,220.939 L44.28,220.939 L42.635,220.939 L42.635,226 L43.5765,226 Z M44.28,223.4835 L43.5765,223.4835 L43.5765,221.667 L44.28,221.667 C44.455,221.667 44.6066666,221.687417 44.735,221.72825 C44.8633333,221.769083 44.9695,221.828 45.0535,221.905 C45.1375,221.982 45.2005,222.075333 45.2425,222.185 C45.2845,222.294667 45.3055,222.417167 45.3055,222.5525 C45.3055,222.694833 45.2845,222.82375 45.2425,222.93925 C45.2005,223.05475 45.1369166,223.15275 45.05175,223.23325 C44.9665833,223.31375 44.8598333,223.375583 44.7315,223.41875 C44.6031666,223.461917 44.4526666,223.4835 44.28,223.4835 L44.28,223.4835 Z" id="MONOST+FP"></path>
            <path d="M3.528,281 L3.528,280.223 L1.505,280.223 L1.505,275.939 L0.5635,275.939 L0.5635,281 L3.528,281 Z M4.133,281 C4.21233333,281 4.27883333,280.977833 4.3325,280.9335 C4.38616666,280.889167 4.42233333,280.840167 4.441,280.7865 L4.441,280.7865 L4.819,279.754 L6.9155,279.754 L7.2935,280.7865 C7.31916666,280.847167 7.35766666,280.897917 7.409,280.93875 C7.46033333,280.979583 7.52683333,281 7.6085,281 L7.6085,281 L8.3365,281 L6.3485,275.939 L5.3895,275.939 L3.398,281 L4.133,281 Z M6.674,279.089 L5.064,279.089 L5.6765,277.4125 C5.70683333,277.3355 5.73833333,277.245083 5.771,277.14125 C5.80366666,277.037417 5.83516666,276.926 5.8655,276.807 C5.89816666,276.926 5.93083333,277.036833 5.9635,277.1395 C5.99616666,277.242167 6.02766666,277.330833 6.058,277.4055 L6.058,277.4055 L6.674,279.089 Z M10.177,281 L10.177,276.7125 L11.703,276.7125 L11.703,275.939 L7.70949999,275.939 L7.70949999,276.7125 L9.23549999,276.7125 L9.23549999,281 L10.177,281 Z M14.1455,281.056 C14.5655,281.056 14.9254167,280.988333 15.22525,280.853 C15.5250833,280.717667 15.7776667,280.522833 15.983,280.2685 L15.983,280.2685 L15.612,279.866 C15.5723333,279.826333 15.5268333,279.8065 15.4755,279.8065 C15.4475,279.8065 15.4206667,279.812917 15.395,279.82575 C15.3693333,279.838583 15.3448333,279.8555 15.3215,279.8765 C15.2445,279.9465 15.1669167,280.005417 15.08875,280.05325 C15.0105833,280.101083 14.92775,280.140167 14.84025,280.1705 C14.75275,280.200833 14.6570833,280.223 14.55325,280.237 C14.4494167,280.251 14.3333333,280.258 14.205,280.258 C13.9903333,280.258 13.7896667,280.21775 13.603,280.13725 C13.4163333,280.05675 13.2541667,279.940667 13.1165,279.789 C12.9788333,279.637333 12.86975,279.450667 12.78925,279.229 C12.70875,279.007333 12.6685,278.754167 12.6685,278.4695 C12.6685,278.187167 12.7058333,277.93575 12.7805,277.71525 C12.8551667,277.49475 12.9601667,277.308083 13.0955,277.15525 C13.2308333,277.002417 13.3924167,276.88575 13.58025,276.80525 C13.7680833,276.72475 13.9751667,276.6845 14.2015,276.6845 C14.3345,276.6845 14.45175,276.694417 14.55325,276.71425 C14.65475,276.734083 14.744,276.758583 14.821,276.78775 C14.898,276.816917 14.9656667,276.849 15.024,276.884 C15.0823333,276.919 15.1336667,276.951083 15.178,276.98025 C15.2223333,277.009417 15.2631667,277.033917 15.3005,277.05375 C15.3378333,277.073583 15.374,277.0835 15.409,277.0835 C15.4603333,277.0835 15.5005833,277.073 15.52975,277.052 C15.5589167,277.031 15.5828333,277.0065 15.6015,276.9785 L15.6015,276.9785 L15.9165,276.541 C15.7158333,276.345 15.4725833,276.186333 15.18675,276.065 C14.9009167,275.943667 14.5736667,275.883 14.205,275.883 C13.834,275.883 13.4956667,275.946583 13.19,276.07375 C12.8843333,276.200917 12.62125,276.378833 12.40075,276.6075 C12.18025,276.836167 12.0093333,277.108583 11.888,277.42475 C11.7666667,277.740917 11.706,278.089167 11.706,278.4695 C11.706,278.845167 11.7625833,279.191667 11.87575,279.509 C11.9889167,279.826333 12.1516667,280.099333 12.364,280.328 C12.5763333,280.556667 12.8324167,280.735167 13.13225,280.8635 C13.4320833,280.991833 13.7698333,281.056 14.1455,281.056 Z M17.3755,281 L17.3755,278.788 L19.752,278.788 L19.752,281 L20.697,281 L20.697,275.939 L19.752,275.939 L19.752,278.116 L17.3755,278.116 L17.3755,275.939 L16.4305,275.939 L16.4305,281 L17.3755,281 Z" id="LATCH"></path>
        </g>
    </g>
</svg>