<svg width="134" height="416" viewBox="0 0 134 416" fill="none" xmlns="http://www.w3.org/2000/svg">
<rect x="2" y="44" width="15" height="6" rx="1" fill="#FF9300"/>
<rect x="2" y="44" width="15" height="6" rx="1" stroke="white"/>
<path d="M8.89524 45.4365C8.86024 45.4925 8.82291 45.5345 8.78324 45.5625C8.74591 45.5905 8.69691 45.6045 8.63624 45.6045C8.58257 45.6045 8.52424 45.5882 8.46124 45.5555C8.40057 45.5205 8.33057 45.482 8.25124 45.44C8.17424 45.398 8.08557 45.3607 7.98524 45.328C7.88491 45.293 7.77057 45.2755 7.64224 45.2755C7.42057 45.2755 7.25491 45.3233 7.14524 45.419C7.0379 45.5123 6.98424 45.6395 6.98424 45.8005C6.98424 45.9032 7.01691 45.9883 7.08224 46.056C7.14757 46.1237 7.23274 46.182 7.33774 46.231C7.44507 46.28 7.56641 46.3255 7.70174 46.3675C7.83941 46.4072 7.97941 46.4527 8.12174 46.504C8.26407 46.553 8.40291 46.6113 8.53824 46.679C8.67591 46.7467 8.79724 46.833 8.90224 46.938C9.00957 47.043 9.09591 47.1713 9.16124 47.323C9.22657 47.4723 9.25924 47.6532 9.25924 47.8655C9.25924 48.1012 9.21841 48.3217 9.13674 48.527C9.05507 48.7323 8.93607 48.912 8.77974 49.066C8.62574 49.2177 8.43441 49.3378 8.20574 49.4265C7.9794 49.5128 7.72157 49.556 7.43224 49.556C7.27357 49.556 7.11141 49.5397 6.94574 49.507C6.78241 49.4743 6.62374 49.4288 6.46974 49.3705C6.31574 49.3098 6.17107 49.2387 6.03574 49.157C5.9004 49.0753 5.78257 48.9843 5.68224 48.884L6.03224 48.331C6.06024 48.2913 6.0964 48.2587 6.14074 48.233C6.1874 48.205 6.23757 48.191 6.29124 48.191C6.36124 48.191 6.43124 48.2132 6.50124 48.2575C6.57357 48.3018 6.65407 48.3508 6.74274 48.4045C6.83374 48.4582 6.93757 48.5072 7.05424 48.5515C7.17091 48.5958 7.30857 48.618 7.46724 48.618C7.68191 48.618 7.84874 48.5713 7.96774 48.478C8.08674 48.3823 8.14624 48.2318 8.14624 48.0265C8.14624 47.9075 8.11357 47.8107 8.04824 47.736C7.98291 47.6613 7.89657 47.5995 7.78924 47.5505C7.68424 47.5015 7.56407 47.4583 7.42874 47.421C7.2934 47.3837 7.15457 47.3428 7.01224 47.2985C6.8699 47.2518 6.73107 47.1958 6.59574 47.1305C6.4604 47.0628 6.33907 46.9753 6.23174 46.868C6.12674 46.7583 6.04157 46.623 5.97624 46.462C5.9109 46.2987 5.87824 46.098 5.87824 45.86C5.87824 45.6687 5.91674 45.482 5.99374 45.3C6.07074 45.118 6.1839 44.9558 6.33324 44.8135C6.48257 44.6712 6.66574 44.558 6.88274 44.474C7.09974 44.3877 7.34824 44.3445 7.62824 44.3445C7.78457 44.3445 7.93624 44.3573 8.08324 44.383C8.23257 44.4063 8.37374 44.4425 8.50674 44.4915C8.63974 44.5382 8.76341 44.5953 8.87774 44.663C8.99441 44.7283 9.09824 44.803 9.18924 44.887L8.89524 45.4365ZM13.0337 48.716V49.5H10.1287V48.716H11.1087V46.1435C11.1087 46.0782 11.1099 46.0128 11.1122 45.9475C11.1145 45.8798 11.118 45.8122 11.1227 45.7445L10.5417 46.2275C10.4904 46.2672 10.439 46.2917 10.3877 46.301C10.3387 46.308 10.292 46.308 10.2477 46.301C10.2034 46.2917 10.1637 46.2765 10.1287 46.2555C10.0937 46.2322 10.068 46.2088 10.0517 46.1855L9.70872 45.7305L11.2977 44.397H12.1937V48.716H13.0337Z" fill="black"/>
<rect x="18.5" y="96" width="15" height="6" rx="1" fill="#FF9300"/>
<rect x="18.5" y="96" width="15" height="6" rx="1" stroke="white"/>
<path d="M25.3952 97.4365C25.3602 97.4925 25.3229 97.5345 25.2832 97.5625C25.2459 97.5905 25.1969 97.6045 25.1362 97.6045C25.0826 97.6045 25.0242 97.5882 24.9612 97.5555C24.9006 97.5205 24.8306 97.482 24.7512 97.44C24.6742 97.398 24.5856 97.3607 24.4852 97.328C24.3849 97.293 24.2706 97.2755 24.1422 97.2755C23.9206 97.2755 23.7549 97.3233 23.6452 97.419C23.5379 97.5123 23.4842 97.6395 23.4842 97.8005C23.4842 97.9032 23.5169 97.9883 23.5822 98.056C23.6476 98.1237 23.7327 98.182 23.8377 98.231C23.9451 98.28 24.0664 98.3255 24.2017 98.3675C24.3394 98.4072 24.4794 98.4527 24.6217 98.504C24.7641 98.553 24.9029 98.6113 25.0382 98.679C25.1759 98.7467 25.2972 98.833 25.4022 98.938C25.5096 99.043 25.5959 99.1713 25.6612 99.323C25.7266 99.4723 25.7592 99.6532 25.7592 99.8655C25.7592 100.101 25.7184 100.322 25.6367 100.527C25.5551 100.732 25.4361 100.912 25.2797 101.066C25.1257 101.218 24.9344 101.338 24.7057 101.426C24.4794 101.513 24.2216 101.556 23.9322 101.556C23.7736 101.556 23.6114 101.54 23.4457 101.507C23.2824 101.474 23.1237 101.429 22.9697 101.37C22.8157 101.31 22.6711 101.239 22.5357 101.157C22.4004 101.075 22.2826 100.984 22.1822 100.884L22.5322 100.331C22.5602 100.291 22.5964 100.259 22.6407 100.233C22.6874 100.205 22.7376 100.191 22.7912 100.191C22.8612 100.191 22.9312 100.213 23.0012 100.257C23.0736 100.302 23.1541 100.351 23.2427 100.404C23.3337 100.458 23.4376 100.507 23.5542 100.551C23.6709 100.596 23.8086 100.618 23.9672 100.618C24.1819 100.618 24.3487 100.571 24.4677 100.478C24.5867 100.382 24.6462 100.232 24.6462 100.026C24.6462 99.9075 24.6136 99.8107 24.5482 99.736C24.4829 99.6613 24.3966 99.5995 24.2892 99.5505C24.1842 99.5015 24.0641 99.4583 23.9287 99.421C23.7934 99.3837 23.6546 99.3428 23.5122 99.2985C23.3699 99.2518 23.2311 99.1958 23.0957 99.1305C22.9604 99.0628 22.8391 98.9753 22.7317 98.868C22.6267 98.7583 22.5416 98.623 22.4762 98.462C22.4109 98.2987 22.3782 98.098 22.3782 97.86C22.3782 97.6687 22.4167 97.482 22.4937 97.3C22.5707 97.118 22.6839 96.9558 22.8332 96.8135C22.9826 96.6712 23.1657 96.558 23.3827 96.474C23.5997 96.3877 23.8482 96.3445 24.1282 96.3445C24.2846 96.3445 24.4362 96.3573 24.5832 96.383C24.7326 96.4063 24.8737 96.4425 25.0067 96.4915C25.1397 96.5382 25.2634 96.5953 25.3777 96.663C25.4944 96.7283 25.5982 96.803 25.6892 96.887L25.3952 97.4365ZM29.2712 100.52C29.3879 100.52 29.48 100.553 29.5477 100.618C29.6154 100.681 29.6492 100.765 29.6492 100.87V101.5H26.0652V101.15C26.0652 101.082 26.0792 101.01 26.1072 100.933C26.1352 100.856 26.1842 100.786 26.2542 100.723L27.7242 99.2425C27.8502 99.1165 27.9599 98.9963 28.0532 98.882C28.1465 98.7677 28.2235 98.6557 28.2842 98.546C28.3449 98.434 28.3904 98.3232 28.4207 98.2135C28.451 98.1015 28.4662 97.9837 28.4662 97.86C28.4662 97.657 28.4172 97.5018 28.3192 97.3945C28.2235 97.2848 28.0765 97.23 27.8782 97.23C27.7172 97.23 27.5807 97.2732 27.4687 97.3595C27.359 97.4435 27.2832 97.5485 27.2412 97.6745C27.1922 97.8028 27.128 97.888 27.0487 97.93C26.9694 97.972 26.8562 97.9813 26.7092 97.958L26.1352 97.8565C26.1725 97.6022 26.2437 97.3805 26.3487 97.1915C26.456 97.0025 26.5879 96.845 26.7442 96.719C26.9029 96.593 27.0837 96.4997 27.2867 96.439C27.4897 96.376 27.7079 96.3445 27.9412 96.3445C28.1932 96.3445 28.4195 96.3818 28.6202 96.4565C28.8232 96.5288 28.9959 96.6303 29.1382 96.761C29.2805 96.8917 29.389 97.048 29.4637 97.23C29.5407 97.4097 29.5792 97.608 29.5792 97.825C29.5792 98.0117 29.5524 98.1843 29.4987 98.343C29.4474 98.5017 29.3762 98.6533 29.2852 98.798C29.1942 98.9403 29.088 99.0792 28.9667 99.2145C28.8477 99.3475 28.7205 99.4828 28.5852 99.6205L27.5877 100.642C27.716 100.603 27.8432 100.572 27.9692 100.551C28.0952 100.53 28.2119 100.52 28.3192 100.52H29.2712Z" fill="black"/>
<rect x="35" y="148" width="15" height="6" rx="1" fill="#FF9300"/>
<rect x="35" y="148" width="15" height="6" rx="1" stroke="white"/>
<path d="M41.8952 149.436C41.8602 149.492 41.8229 149.534 41.7832 149.562C41.7459 149.59 41.6969 149.604 41.6362 149.604C41.5826 149.604 41.5242 149.588 41.4612 149.555C41.4006 149.52 41.3306 149.482 41.2512 149.44C41.1742 149.398 41.0856 149.361 40.9852 149.328C40.8849 149.293 40.7706 149.275 40.6422 149.275C40.4206 149.275 40.2549 149.323 40.1452 149.419C40.0379 149.512 39.9842 149.639 39.9842 149.8C39.9842 149.903 40.0169 149.988 40.0822 150.056C40.1476 150.124 40.2327 150.182 40.3377 150.231C40.4451 150.28 40.5664 150.325 40.7017 150.367C40.8394 150.407 40.9794 150.453 41.1217 150.504C41.2641 150.553 41.4029 150.611 41.5382 150.679C41.6759 150.747 41.7972 150.833 41.9022 150.938C42.0096 151.043 42.0959 151.171 42.1612 151.323C42.2266 151.472 42.2592 151.653 42.2592 151.865C42.2592 152.101 42.2184 152.322 42.1367 152.527C42.0551 152.732 41.9361 152.912 41.7797 153.066C41.6257 153.218 41.4344 153.338 41.2057 153.426C40.9794 153.513 40.7216 153.556 40.4322 153.556C40.2736 153.556 40.1114 153.54 39.9457 153.507C39.7824 153.474 39.6237 153.429 39.4697 153.37C39.3157 153.31 39.1711 153.239 39.0357 153.157C38.9004 153.075 38.7826 152.984 38.6822 152.884L39.0322 152.331C39.0602 152.291 39.0964 152.259 39.1407 152.233C39.1874 152.205 39.2376 152.191 39.2912 152.191C39.3612 152.191 39.4312 152.213 39.5012 152.257C39.5736 152.302 39.6541 152.351 39.7427 152.404C39.8337 152.458 39.9376 152.507 40.0542 152.551C40.1709 152.596 40.3086 152.618 40.4672 152.618C40.6819 152.618 40.8487 152.571 40.9677 152.478C41.0867 152.382 41.1462 152.232 41.1462 152.026C41.1462 151.907 41.1136 151.811 41.0482 151.736C40.9829 151.661 40.8966 151.599 40.7892 151.55C40.6842 151.501 40.5641 151.458 40.4287 151.421C40.2934 151.384 40.1546 151.343 40.0122 151.298C39.8699 151.252 39.7311 151.196 39.5957 151.13C39.4604 151.063 39.3391 150.975 39.2317 150.868C39.1267 150.758 39.0416 150.623 38.9762 150.462C38.9109 150.299 38.8782 150.098 38.8782 149.86C38.8782 149.669 38.9167 149.482 38.9937 149.3C39.0707 149.118 39.1839 148.956 39.3332 148.813C39.4826 148.671 39.6657 148.558 39.8827 148.474C40.0997 148.388 40.3482 148.344 40.6282 148.344C40.7846 148.344 40.9362 148.357 41.0832 148.383C41.2326 148.406 41.3737 148.442 41.5067 148.491C41.6397 148.538 41.7634 148.595 41.8777 148.663C41.9944 148.728 42.0982 148.803 42.1892 148.887L41.8952 149.436ZM42.6632 149.856C42.7005 149.602 42.7717 149.38 42.8767 149.191C42.984 149.002 43.1159 148.845 43.2722 148.719C43.4309 148.593 43.6117 148.5 43.8147 148.439C44.0177 148.376 44.2359 148.344 44.4692 148.344C44.7212 148.344 44.9452 148.381 45.1412 148.453C45.3372 148.523 45.5029 148.619 45.6382 148.74C45.7735 148.861 45.8762 149.002 45.9462 149.163C46.0162 149.322 46.0512 149.49 46.0512 149.667C46.0512 149.828 46.0349 149.971 46.0022 150.094C45.9695 150.216 45.9205 150.322 45.8552 150.413C45.7922 150.502 45.7129 150.577 45.6172 150.64C45.5239 150.701 45.4165 150.752 45.2952 150.794C45.8599 150.993 46.1422 151.378 46.1422 151.949C46.1422 152.22 46.0932 152.456 45.9952 152.656C45.8972 152.857 45.7654 153.024 45.5997 153.157C45.4364 153.29 45.2462 153.39 45.0292 153.458C44.8122 153.523 44.5859 153.556 44.3502 153.556C44.1075 153.556 43.8917 153.53 43.7027 153.479C43.5137 153.425 43.3457 153.344 43.1987 153.234C43.0517 153.122 42.9222 152.98 42.8102 152.807C42.7005 152.634 42.6049 152.429 42.5232 152.191L43.0062 151.995C43.1322 151.946 43.2489 151.933 43.3562 151.956C43.4635 151.98 43.5405 152.033 43.5872 152.117C43.6922 152.311 43.803 152.452 43.9197 152.541C44.0387 152.627 44.1775 152.67 44.3362 152.67C44.4575 152.67 44.5625 152.651 44.6512 152.611C44.7422 152.569 44.8169 152.516 44.8752 152.453C44.9359 152.388 44.9814 152.315 45.0117 152.233C45.042 152.151 45.0572 152.068 45.0572 151.984C45.0572 151.875 45.049 151.777 45.0327 151.69C45.0187 151.602 44.9767 151.526 44.9067 151.463C44.8367 151.4 44.7305 151.352 44.5882 151.319C44.4482 151.284 44.2522 151.267 44.0002 151.267V150.518C44.2125 150.518 44.384 150.502 44.5147 150.469C44.6454 150.436 44.7457 150.392 44.8157 150.336C44.888 150.278 44.9359 150.208 44.9592 150.126C44.9825 150.044 44.9942 149.954 44.9942 149.856C44.9942 149.656 44.9452 149.502 44.8472 149.394C44.7515 149.285 44.6045 149.23 44.4062 149.23C44.2452 149.23 44.1087 149.273 43.9967 149.359C43.887 149.443 43.8112 149.548 43.7692 149.674C43.7202 149.803 43.656 149.888 43.5767 149.93C43.4974 149.972 43.3842 149.981 43.2372 149.958L42.6632 149.856Z" fill="black"/>
<rect x="51.5" y="200" width="15" height="6" rx="1" fill="#FF9300"/>
<rect x="51.5" y="200" width="15" height="6" rx="1" stroke="white"/>
<path d="M59.4801 202.948C59.4801 203.317 59.416 203.658 59.2876 203.97C59.1616 204.281 58.9831 204.55 58.7521 204.779C58.5211 205.005 58.2423 205.183 57.9156 205.311C57.5913 205.437 57.2308 205.5 56.8341 205.5H54.8531V200.4H56.8341C57.2308 200.4 57.5913 200.465 57.9156 200.593C58.2423 200.721 58.5211 200.899 58.7521 201.125C58.9831 201.351 59.1616 201.621 59.2876 201.933C59.416 202.244 59.4801 202.582 59.4801 202.948ZM58.2691 202.948C58.2691 202.696 58.2365 202.469 58.1711 202.266C58.1058 202.063 58.0113 201.891 57.8876 201.751C57.7663 201.609 57.617 201.501 57.4396 201.426C57.2623 201.349 57.0605 201.31 56.8341 201.31H56.0431V204.59H56.8341C57.0605 204.59 57.2623 204.553 57.4396 204.478C57.617 204.401 57.7663 204.292 57.8876 204.152C58.0113 204.01 58.1058 203.837 58.1711 203.634C58.2365 203.431 58.2691 203.203 58.2691 202.948ZM63.2583 204.716V205.5H60.3533V204.716H61.3333V202.143C61.3333 202.078 61.3345 202.013 61.3368 201.947C61.3392 201.88 61.3427 201.812 61.3473 201.744L60.7663 202.227C60.715 202.267 60.6637 202.292 60.6123 202.301C60.5633 202.308 60.5167 202.308 60.4723 202.301C60.428 202.292 60.3883 202.276 60.3533 202.255C60.3183 202.232 60.2927 202.209 60.2763 202.185L59.9333 201.73L61.5223 200.397H62.4183V204.716H63.2583Z" fill="black"/>
<rect x="68" y="252" width="15" height="6" rx="1" fill="#FF9300"/>
<rect x="68" y="252" width="15" height="6" rx="1" stroke="white"/>
<path d="M75.9801 254.948C75.9801 255.317 75.916 255.658 75.7876 255.97C75.6616 256.281 75.4831 256.55 75.2521 256.779C75.0211 257.005 74.7423 257.183 74.4156 257.311C74.0913 257.437 73.7308 257.5 73.3341 257.5H71.3531V252.4H73.3341C73.7308 252.4 74.0913 252.465 74.4156 252.593C74.7423 252.721 75.0211 252.899 75.2521 253.125C75.4831 253.351 75.6616 253.621 75.7876 253.933C75.916 254.244 75.9801 254.582 75.9801 254.948ZM74.7691 254.948C74.7691 254.696 74.7365 254.469 74.6711 254.266C74.6058 254.063 74.5113 253.891 74.3876 253.751C74.2663 253.609 74.117 253.501 73.9396 253.426C73.7623 253.349 73.5605 253.31 73.3341 253.31H72.5431V256.59H73.3341C73.5605 256.59 73.7623 256.553 73.9396 256.478C74.117 256.401 74.2663 256.292 74.3876 256.152C74.5113 256.01 74.6058 255.837 74.6711 255.634C74.7365 255.431 74.7691 255.203 74.7691 254.948ZM79.4958 256.52C79.6125 256.52 79.7047 256.553 79.7723 256.618C79.84 256.681 79.8738 256.765 79.8738 256.87V257.5H76.2898V257.15C76.2898 257.082 76.3038 257.01 76.3318 256.933C76.3598 256.856 76.4088 256.786 76.4788 256.723L77.9488 255.242C78.0748 255.116 78.1845 254.996 78.2778 254.882C78.3712 254.768 78.4482 254.656 78.5088 254.546C78.5695 254.434 78.615 254.323 78.6453 254.213C78.6757 254.101 78.6908 253.984 78.6908 253.86C78.6908 253.657 78.6418 253.502 78.5438 253.394C78.4482 253.285 78.3012 253.23 78.1028 253.23C77.9418 253.23 77.8053 253.273 77.6933 253.359C77.5837 253.443 77.5078 253.548 77.4658 253.674C77.4168 253.803 77.3527 253.888 77.2733 253.93C77.194 253.972 77.0808 253.981 76.9338 253.958L76.3598 253.856C76.3972 253.602 76.4683 253.38 76.5733 253.191C76.6807 253.002 76.8125 252.845 76.9688 252.719C77.1275 252.593 77.3083 252.5 77.5113 252.439C77.7143 252.376 77.9325 252.344 78.1658 252.344C78.4178 252.344 78.6442 252.382 78.8448 252.456C79.0478 252.529 79.2205 252.63 79.3628 252.761C79.5052 252.892 79.6137 253.048 79.6883 253.23C79.7653 253.41 79.8038 253.608 79.8038 253.825C79.8038 254.012 79.777 254.184 79.7233 254.343C79.672 254.502 79.6008 254.653 79.5098 254.798C79.4188 254.94 79.3127 255.079 79.1913 255.214C79.0723 255.347 78.9452 255.483 78.8098 255.62L77.8123 256.642C77.9407 256.603 78.0678 256.572 78.1938 256.551C78.3198 256.53 78.4365 256.52 78.5438 256.52H79.4958Z" fill="black"/>
<rect x="84.5" y="304" width="15" height="6" rx="1" fill="#FF9300"/>
<rect x="84.5" y="304" width="15" height="6" rx="1" stroke="white"/>
<path d="M90.4352 308.555V309.5H87.3622V304.4H88.5452V308.555H90.4352ZM90.3816 306.934H92.2716V307.809H90.3816V306.934ZM94.6832 306.798C94.8442 306.798 94.9807 306.778 95.0927 306.738C95.2071 306.696 95.3004 306.639 95.3727 306.567C95.4451 306.495 95.4976 306.411 95.5302 306.315C95.5629 306.217 95.5792 306.112 95.5792 306C95.5792 305.776 95.5057 305.601 95.3587 305.475C95.2141 305.349 94.9889 305.286 94.6832 305.286H94.2072V306.798H94.6832ZM97.1962 309.5H96.1252C95.9269 309.5 95.7846 309.425 95.6982 309.276L94.8512 307.795C94.8116 307.732 94.7672 307.687 94.7182 307.659C94.6692 307.629 94.5992 307.613 94.5082 307.613H94.2072V309.5H93.0242V304.4H94.6832C95.0519 304.4 95.3657 304.439 95.6247 304.516C95.8861 304.591 96.0984 304.696 96.2617 304.831C96.4274 304.966 96.5476 305.126 96.6222 305.31C96.6969 305.495 96.7342 305.695 96.7342 305.912C96.7342 306.078 96.7121 306.234 96.6677 306.381C96.6234 306.528 96.5581 306.665 96.4717 306.791C96.3854 306.915 96.2781 307.025 96.1497 307.123C96.0237 307.221 95.8779 307.302 95.7122 307.365C95.7892 307.405 95.8616 307.455 95.9292 307.515C95.9969 307.574 96.0576 307.644 96.1112 307.725L97.1962 309.5Z" fill="black"/>
<rect x="101" y="356" width="18" height="6" rx="1" fill="#FF9300"/>
<rect x="101" y="356" width="18" height="6" rx="1" stroke="white"/>
<path d="M103.673 358.798C103.834 358.798 103.97 358.778 104.082 358.738C104.197 358.696 104.29 358.639 104.362 358.567C104.435 358.495 104.487 358.411 104.52 358.315C104.552 358.217 104.569 358.112 104.569 358C104.569 357.776 104.495 357.601 104.348 357.475C104.204 357.349 103.978 357.286 103.673 357.286H103.197V358.798H103.673ZM106.186 361.5H105.115C104.916 361.5 104.774 361.425 104.688 361.276L103.841 359.795C103.801 359.732 103.757 359.687 103.708 359.659C103.659 359.629 103.589 359.613 103.498 359.613H103.197V361.5H102.014V356.4H103.673C104.041 356.4 104.355 356.439 104.614 356.516C104.876 356.591 105.088 356.696 105.251 356.831C105.417 356.966 105.537 357.126 105.612 357.31C105.686 357.495 105.724 357.695 105.724 357.912C105.724 358.078 105.702 358.234 105.657 358.381C105.613 358.528 105.548 358.665 105.461 358.791C105.375 358.915 105.268 359.025 105.139 359.123C105.013 359.221 104.867 359.302 104.702 359.365C104.779 359.405 104.851 359.455 104.919 359.515C104.986 359.574 105.047 359.644 105.101 359.725L106.186 361.5ZM107.699 361.5H106.509V356.4H107.699V361.5ZM113.03 356.4V361.5H112.414C112.323 361.5 112.246 361.486 112.183 361.458C112.123 361.428 112.062 361.376 112.001 361.304L109.597 358.262C109.606 358.353 109.612 358.442 109.614 358.528C109.619 358.612 109.621 358.692 109.621 358.766V361.5H108.578V356.4H109.201C109.253 356.4 109.296 356.403 109.331 356.407C109.366 356.412 109.397 356.421 109.425 356.435C109.453 356.447 109.48 356.465 109.506 356.488C109.531 356.511 109.561 356.543 109.593 356.582L112.019 359.645C112.007 359.547 111.999 359.452 111.994 359.361C111.99 359.268 111.987 359.181 111.987 359.099V356.4H113.03ZM116.365 358.857H118.178V361.01C117.916 361.201 117.637 361.34 117.341 361.426C117.047 361.513 116.739 361.556 116.417 361.556C115.997 361.556 115.614 361.491 115.269 361.36C114.926 361.227 114.632 361.045 114.387 360.814C114.142 360.581 113.953 360.305 113.82 359.988C113.687 359.668 113.621 359.322 113.621 358.948C113.621 358.568 113.684 358.219 113.81 357.902C113.936 357.582 114.115 357.307 114.349 357.076C114.584 356.845 114.868 356.665 115.199 356.537C115.533 356.409 115.905 356.344 116.316 356.344C116.528 356.344 116.727 356.362 116.914 356.397C117.101 356.432 117.272 356.48 117.429 356.54C117.587 356.601 117.732 356.673 117.863 356.757C117.993 356.841 118.11 356.932 118.213 357.03L117.87 357.552C117.816 357.634 117.746 357.684 117.66 357.702C117.576 357.721 117.485 357.7 117.387 357.639C117.293 357.583 117.205 357.536 117.121 357.496C117.039 357.454 116.955 357.42 116.869 357.394C116.782 357.369 116.691 357.35 116.596 357.338C116.5 357.327 116.393 357.321 116.274 357.321C116.052 357.321 115.852 357.361 115.675 357.44C115.498 357.517 115.346 357.627 115.22 357.769C115.096 357.911 115.001 358.083 114.933 358.283C114.865 358.482 114.832 358.703 114.832 358.948C114.832 359.219 114.869 359.459 114.944 359.669C115.018 359.879 115.123 360.057 115.259 360.201C115.396 360.346 115.56 360.457 115.749 360.534C115.94 360.609 116.151 360.646 116.382 360.646C116.524 360.646 116.653 360.632 116.767 360.604C116.884 360.576 116.997 360.539 117.107 360.492V359.718H116.603C116.528 359.718 116.47 359.699 116.428 359.659C116.386 359.619 116.365 359.569 116.365 359.508V358.857Z" fill="black"/>
<rect x="121.5" y="408" width="10" height="6" rx="1" fill="#FF9300"/>
<rect x="121.5" y="408" width="10" height="6" rx="1" stroke="white"/>
<path fill-rule="evenodd" clip-rule="evenodd" d="M125 411.5V413.5L122 411L125 408.5V410.5H128V408.5L131 411L128 413.5V411.5H125Z" fill="black"/>
</svg>
