<?xml version="1.0" encoding="utf-8"?>
<svg width="43px" height="14px" viewBox="0 0 43 14" version="1.1" xmlns:xlink="http://www.w3.org/1999/xlink" xmlns="http://www.w3.org/2000/svg">
  <desc>Created with Lunacy</desc>
  <defs>
    <rect width="43" height="14" id="artboard_1" />
    <clipPath id="clip_1">
      <use xlink:href="#artboard_1" clip-rule="evenodd" />
    </clipPath>
  </defs>
  <g id="hover00176" clip-path="url(#clip_1)">
    <path d="M0 4.36364L0 2.18182C0 1.57933 0.195251 1.06507 0.585785 0.639038C0.976318 0.213001 1.44772 0 2 0L41 0C41.5523 0 42.0237 0.213001 42.4142 0.639038C42.8047 1.06507 43 1.57933 43 2.18182L43 9.81818C43 10.4207 42.8047 10.9349 42.4142 11.3609C42.0237 11.7869 41.5523 12 41 12L2 12C1.44772 12 0.976318 11.7869 0.585785 11.3609C0.195251 10.9349 0 10.4207 0 9.81818L0 4.36364L0 4.36364L0 4.36364L0 4.36364L0 4.36364L0 4.36364Z" transform="translate(0 1.5)" id="Shadow" fill="#FFFFFF" fill-opacity="0.101960786" fill-rule="evenodd" stroke="none" />
    <path d="M0 4.4L0 2.2C0 1.59249 0.195251 1.07395 0.585785 0.644363C0.976318 0.214776 1.44772 0 2 0L40 0C40.5523 0 41.0237 0.214776 41.4142 0.644363C41.8047 1.07395 42 1.59249 42 2.2L42 8.8C42 9.40751 41.8047 9.92605 41.4142 10.3556C41.0237 10.7852 40.5523 11 40 11L2 11C1.44772 11 0.976318 10.7852 0.585785 10.3556C0.195251 9.92605 0 9.40751 0 8.8L0 4.4L0 4.4L0 4.4L0 4.4L0 4.4L0 4.4Z" transform="translate(0.5 1.5)" id="Background" fill="#242424" fill-rule="evenodd" stroke="#0F0F0F" stroke-width="1" />
    <path d="M0.999 0L38.001 0Q38.0994 0 38.1959 0.0191955Q38.2924 0.038391 38.3833 0.0760443Q38.4742 0.113698 38.556 0.168362Q38.6378 0.223026 38.7074 0.2926Q38.777 0.362175 38.8316 0.443985Q38.8863 0.525796 38.924 0.616699Q38.9616 0.707602 38.9808 0.804105Q39 0.900607 39 0.999L39 7.001Q39 7.09939 38.9808 7.19589Q38.9616 7.2924 38.924 7.3833Q38.8863 7.4742 38.8316 7.55601Q38.777 7.63782 38.7074 7.7074Q38.6378 7.77697 38.556 7.83164Q38.4742 7.8863 38.3833 7.92395Q38.2924 7.96161 38.1959 7.9808Q38.0994 8 38.001 8L0.999 8Q0.900607 8 0.804105 7.9808Q0.707602 7.96161 0.616699 7.92395Q0.525796 7.8863 0.443985 7.83164Q0.362175 7.77697 0.2926 7.7074Q0.223026 7.63782 0.168362 7.55601Q0.113698 7.4742 0.0760443 7.3833Q0.038391 7.2924 0.0191955 7.19589Q0 7.09939 0 7.001L0 0.999Q0 0.900607 0.0191955 0.804105Q0.038391 0.707602 0.0760443 0.616699Q0.113698 0.525796 0.168362 0.443985Q0.223026 0.362175 0.2926 0.2926Q0.362175 0.223026 0.443985 0.168362Q0.525796 0.113698 0.616699 0.0760443Q0.707602 0.038391 0.804105 0.0191955Q0.900607 0 0.999 0L0.999 0Z" transform="translate(2 3)" id="Fill" fill="#399DFF" fill-rule="evenodd" stroke="none" />
  </g>
</svg>