<svg width="18" height="288" viewBox="0 0 18 288" fill="none" xmlns="http://www.w3.org/2000/svg">
<path fill-rule="evenodd" clip-rule="evenodd" d="M3 9.5H15V8.5H3V9.5Z" fill="#399DFF"/>
<path d="M7.53782 26.0874C12.3895 26.1067 13.9887 29.6776 13.9916 31L15 30.9974C14.9956 29.0171 12.8547 24.8931 7.28155 25.0021H3V26.0894H7.24682C7.26152 26.089 7.27622 26.0897 7.29087 26.0894H7.53782V26.0874Z" fill="#399DFF"/>
<path fill-rule="evenodd" clip-rule="evenodd" d="M10 44H3V43H10C11.3139 43 12.5974 43.2883 13.5437 44.2492C14.4867 45.2067 15 46.736 15 49H14C14 46.864 13.5133 45.6433 12.8313 44.9508C12.1526 44.2617 11.1861 44 10 44Z" fill="#399DFF"/>
<path fill-rule="evenodd" clip-rule="evenodd" d="M9.06942 60.4795L9.42954 59.5282L12.5258 61.1864L12.1611 62.1352L9.06942 60.4795ZM8.71239 61.4226L8.27513 62.5777L11.3566 64.228L11.7994 63.076L8.71239 61.4226ZM7.51129 64.5955L7.91809 63.5209L10.9949 65.1687L10.5829 66.2405L7.51129 64.5955ZM7.15425 65.5387L6.46764 67.3524L5.53241 66.9984L9.41465 56.7429L10.3499 57.0969L9.78658 58.585L12.8875 60.2457L13.5333 58.5657L14.4667 58.9245L10.5319 69.1599L9.59854 68.8011L10.2213 67.1812L7.15425 65.5387Z" fill="#399DFF"/>
<path d="M10.4622 80.0874C5.61047 80.1067 4.01134 83.6776 4.0084 85L3 84.9974C3.0044 83.0171 5.14529 78.8931 10.7185 79.0021H15V80.0894H10.7532C10.7385 80.089 10.7238 80.0897 10.7091 80.0894H10.4622V80.0874Z" fill="#399DFF"/>
<path fill-rule="evenodd" clip-rule="evenodd" d="M8 98H15V97H8C6.68615 97 5.40257 97.2883 4.45626 98.2492C3.51326 99.2067 3 100.736 3 103H4C4 100.864 4.48674 99.6433 5.16874 98.9508C5.84743 98.2617 6.81385 98 8 98Z" fill="#399DFF"/>
<path fill-rule="evenodd" clip-rule="evenodd" d="M5.00577 117.855C4.25511 118.897 4 120.163 4 121H3C3 120.003 3.29489 118.519 4.19423 117.27C5.11193 115.996 6.63704 115 9 115C11.363 115 12.8881 115.996 13.8058 117.27C14.7051 118.519 15 120.003 15 121H14C14 120.163 13.7449 118.897 12.9942 117.855C12.2619 116.838 11.037 116 9 116C6.96296 116 5.73807 116.838 5.00577 117.855Z" fill="#399DFF"/>
<path fill-rule="evenodd" clip-rule="evenodd" d="M6.61327 134.697C6.00115 134.289 5.16251 134 4 134V133C5.33749 133 6.37385 133.336 7.16798 133.865C7.95897 134.393 8.48006 135.092 8.82221 135.776C8.88763 135.907 8.94669 136.038 9 136.167C9.05332 136.038 9.11237 135.907 9.17779 135.776C9.51994 135.092 10.041 134.393 10.832 133.865C11.6261 133.336 12.6625 133 14 133V134C12.8375 134 11.9989 134.289 11.3867 134.697C10.7715 135.107 10.3551 135.658 10.0722 136.224C9.78839 136.791 9.64399 137.365 9.57132 137.801C9.53519 138.018 9.51731 138.197 9.50849 138.321C9.50409 138.382 9.50197 138.43 9.50094 138.461C9.50043 138.476 9.5002 138.487 9.50009 138.494L9.5 138.499L9.5 138.5L9.5 138.5C9.5 138.501 9.5 138.501 9.5 138.501L9.5 138.501L9.5 138.5C9.49977 138.776 9.276 139 9 139C8.72412 139 8.50043 138.777 8.5 138.501L8.5 138.501C8.5 138.501 8.5 138.501 8.5 138.5L8.49991 138.494C8.4998 138.487 8.49957 138.476 8.49906 138.461C8.49803 138.43 8.49591 138.382 8.49151 138.321C8.48269 138.197 8.46481 138.018 8.42868 137.801C8.35601 137.365 8.21161 136.791 7.92779 136.224C7.64494 135.658 7.22853 135.107 6.61327 134.697Z" fill="#399DFF"/>
<path d="M3 151C4 151 5 152.4 5 156C5 152.4 6 151 7 151C8 151 9 152 9 156C9 154.333 9.4 151 11 151C12.6 151 13 154.333 13 156C13 154.333 13.4 151 15 151" stroke="#399DFF" stroke-linejoin="round"/>
<path d="M5.10811 169.859C5.08011 169.908 5.04978 169.945 5.01711 169.968C4.98678 169.989 4.94828 169.999 4.90161 169.999C4.85261 169.999 4.79894 169.982 4.74061 169.947C4.68461 169.91 4.61694 169.869 4.53761 169.824C4.45828 169.78 4.36494 169.74 4.25761 169.705C4.15261 169.668 4.02778 169.649 3.88311 169.649C3.75244 169.649 3.63811 169.666 3.54011 169.698C3.44211 169.729 3.35928 169.772 3.29161 169.828C3.22628 169.884 3.17728 169.952 3.14461 170.031C3.11194 170.108 3.09561 170.193 3.09561 170.286C3.09561 170.405 3.12828 170.505 3.19361 170.584C3.26128 170.663 3.34994 170.731 3.45961 170.787C3.56928 170.843 3.69411 170.893 3.83411 170.937C3.97411 170.982 4.11761 171.03 4.26461 171.081C4.41161 171.13 4.55511 171.188 4.69511 171.256C4.83511 171.321 4.95994 171.405 5.06961 171.508C5.17928 171.608 5.26678 171.732 5.33211 171.879C5.39978 172.026 5.43361 172.204 5.43361 172.414C5.43361 172.643 5.39394 172.858 5.31461 173.058C5.23761 173.257 5.12328 173.431 4.97161 173.58C4.82228 173.727 4.63911 173.844 4.42211 173.93C4.20511 174.014 3.95661 174.056 3.67661 174.056C3.51561 174.056 3.35694 174.04 3.20061 174.007C3.04428 173.977 2.89378 173.932 2.74911 173.874C2.60678 173.816 2.47261 173.746 2.34661 173.664C2.22061 173.582 2.10861 173.491 2.01061 173.391L2.28711 172.939C2.31044 172.907 2.34078 172.88 2.37811 172.859C2.41544 172.836 2.45511 172.824 2.49711 172.824C2.55544 172.824 2.61844 172.848 2.68611 172.897C2.75378 172.944 2.83428 172.997 2.92761 173.055C3.02094 173.113 3.12944 173.167 3.25311 173.216C3.37911 173.263 3.52961 173.286 3.70461 173.286C3.97294 173.286 4.18061 173.223 4.32761 173.097C4.47461 172.969 4.54811 172.785 4.54811 172.547C4.54811 172.414 4.51428 172.306 4.44661 172.222C4.38128 172.138 4.29378 172.068 4.18411 172.012C4.07444 171.954 3.94961 171.905 3.80961 171.865C3.66961 171.825 3.52728 171.782 3.38261 171.735C3.23794 171.689 3.09561 171.633 2.95561 171.567C2.81561 171.502 2.69078 171.417 2.58111 171.312C2.47144 171.207 2.38278 171.076 2.31511 170.92C2.24978 170.761 2.21711 170.566 2.21711 170.335C2.21711 170.151 2.25328 169.971 2.32561 169.796C2.40028 169.621 2.50761 169.466 2.64761 169.331C2.78761 169.196 2.96028 169.087 3.16561 169.005C3.37094 168.924 3.60661 168.883 3.87261 168.883C4.17128 168.883 4.44661 168.93 4.69861 169.023C4.95061 169.116 5.16528 169.247 5.34261 169.415L5.10811 169.859ZM7.36441 171.634C7.17774 171.755 7.04124 171.893 6.95491 172.047C6.87091 172.199 6.82891 172.362 6.82891 172.537C6.82891 172.665 6.85107 172.781 6.89541 172.883C6.93974 172.986 6.99924 173.074 7.07391 173.146C7.15091 173.216 7.23957 173.271 7.33991 173.31C7.44257 173.348 7.55107 173.366 7.66541 173.366C7.87074 173.366 8.05857 173.335 8.22891 173.272C8.39924 173.207 8.55324 173.117 8.69091 173.002L7.36441 171.634ZM10.7349 174H9.88791C9.79924 174 9.72691 173.989 9.67091 173.968C9.61724 173.947 9.56007 173.903 9.49941 173.835L9.14941 173.475C8.92774 173.657 8.67924 173.799 8.40391 173.902C8.12857 174.005 7.83107 174.056 7.51141 174.056C7.31774 174.056 7.12641 174.023 6.93741 173.958C6.75074 173.89 6.58391 173.793 6.43691 173.667C6.28991 173.541 6.17091 173.39 6.07991 173.212C5.99124 173.033 5.94691 172.831 5.94691 172.607C5.94691 172.448 5.97257 172.299 6.02391 172.159C6.07524 172.017 6.14641 171.885 6.23741 171.763C6.32841 171.642 6.43691 171.534 6.56291 171.438C6.68891 171.34 6.82657 171.256 6.97591 171.186C6.84991 171.011 6.75891 170.841 6.70291 170.675C6.64691 170.507 6.61891 170.34 6.61891 170.174C6.61891 169.999 6.65041 169.834 6.71341 169.677C6.77874 169.519 6.87207 169.381 6.99341 169.264C7.11474 169.148 7.26407 169.056 7.44141 168.988C7.61874 168.918 7.81941 168.883 8.04341 168.883C8.24874 168.883 8.43191 168.914 8.59291 168.977C8.75624 169.04 8.89507 169.124 9.00941 169.229C9.12607 169.334 9.21707 169.455 9.28241 169.59C9.35007 169.725 9.38974 169.865 9.40141 170.01L8.85191 170.126C8.74924 170.146 8.67457 170.102 8.62791 169.992C8.60691 169.932 8.57891 169.875 8.54391 169.821C8.51124 169.765 8.47157 169.717 8.42491 169.677C8.37824 169.635 8.32341 169.603 8.26041 169.579C8.19741 169.554 8.12507 169.541 8.04341 169.541C7.94541 169.541 7.85791 169.558 7.78091 169.593C7.70391 169.626 7.63857 169.672 7.58491 169.73C7.53357 169.786 7.49391 169.852 7.46591 169.929C7.43791 170.004 7.42391 170.083 7.42391 170.167C7.42391 170.237 7.43091 170.305 7.44491 170.37C7.45891 170.436 7.48224 170.501 7.51491 170.566C7.54757 170.632 7.58957 170.699 7.64091 170.769C7.69457 170.837 7.75991 170.911 7.83691 170.99L9.18091 172.386C9.25791 172.239 9.31974 172.084 9.36641 171.921C9.41307 171.758 9.44341 171.592 9.45741 171.424C9.46441 171.37 9.48307 171.327 9.51341 171.294C9.54374 171.262 9.58574 171.245 9.63941 171.245H10.1784C10.1761 171.553 10.1317 171.847 10.0454 172.127C9.95907 172.407 9.83541 172.665 9.67441 172.901L10.7349 174ZM15.5868 168.939V174H14.6418V171.788H12.2653V174H11.3203V168.939H12.2653V171.116H14.6418V168.939H15.5868Z" fill="#399DFF"/>
<path fill-rule="evenodd" clip-rule="evenodd" d="M9.0914 186.479L9.45151 185.528L12.5478 187.186L12.1831 188.135L9.0914 186.479ZM8.73436 187.423L8.2971 188.578L11.3785 190.228L11.8214 189.076L8.73436 187.423ZM7.53326 190.595L7.94006 189.521L11.0169 191.169L10.6049 192.241L7.53326 190.595ZM7.17622 191.539L6.48961 193.352L5.55438 192.998L9.43662 182.743L10.3719 183.097L9.80855 184.585L12.9094 186.246L13.5553 184.566L14.4887 184.925L10.5539 195.16L9.62051 194.801L10.2432 193.181L7.17622 191.539Z" fill="#399DFF"/>
<path d="M6.76416 182.885L5.30416 186.5H4.69666L3.23666 182.885H3.77666C3.83499 182.885 3.88249 182.899 3.91916 182.927C3.95583 182.956 3.98333 182.992 4.00166 183.037L4.85416 185.242C4.88249 185.314 4.90916 185.393 4.93416 185.48C4.96083 185.565 4.98583 185.654 5.00916 185.747C5.02916 185.654 5.05083 185.565 5.07416 185.48C5.09749 185.393 5.12333 185.314 5.15166 185.242L5.99916 183.037C6.01249 182.999 6.03833 182.964 6.07666 182.932C6.11666 182.901 6.16499 182.885 6.22166 182.885H6.76416Z" fill="#399DFF"/>
<path fill-rule="evenodd" clip-rule="evenodd" d="M6.61327 206.697C6.00115 206.289 5.16251 206 4 206V205C5.33749 205 6.37385 205.336 7.16798 205.865C7.95897 206.393 8.48006 207.092 8.82221 207.776C8.88763 207.907 8.94669 208.038 9 208.167C9.05332 208.038 9.11237 207.907 9.17779 207.776C9.51994 207.092 10.041 206.393 10.832 205.865C11.6261 205.336 12.6625 205 14 205V206C12.8375 206 11.9989 206.289 11.3867 206.697C10.7715 207.107 10.3551 207.658 10.0722 208.224C9.78839 208.791 9.64399 209.365 9.57132 209.801C9.53519 210.018 9.51731 210.197 9.50849 210.321C9.50409 210.382 9.50197 210.43 9.50094 210.461C9.50043 210.476 9.5002 210.487 9.50009 210.494L9.5 210.499L9.5 210.5L9.5 210.5C9.5 210.501 9.5 210.501 9.5 210.501L9.5 210.501L9.5 210.5C9.49977 210.776 9.276 211 9 211C8.72412 211 8.50043 210.777 8.5 210.501L8.5 210.501C8.5 210.501 8.5 210.501 8.5 210.5L8.49991 210.494C8.4998 210.487 8.49957 210.476 8.49906 210.461C8.49803 210.43 8.49591 210.382 8.49151 210.321C8.48269 210.197 8.46481 210.018 8.42868 209.801C8.35601 209.365 8.21161 208.791 7.92779 208.224C7.64494 207.658 7.22853 207.107 6.61327 206.697Z" fill="#399DFF"/>
<path d="M10.4622 206.087C5.61047 206.107 4.01134 209.678 4.0084 211L3 210.997C3.0044 209.017 5.14529 204.893 10.7185 205.002H15V206.089H10.7532C10.7385 206.089 10.7238 206.09 10.7091 206.089H10.4622V206.087Z" fill="#FF9000"/>
<path d="M7.53782 206.087C12.3895 206.107 13.9887 209.678 13.9916 211L15 210.997C14.9956 209.017 12.8547 204.893 7.28155 205.002H3V206.089H7.24682C7.26152 206.089 7.27622 206.09 7.29087 206.089H7.53782V206.087Z" fill="#399DFF"/>
<path d="M5.29629 202.192C5.29629 202.457 5.25212 202.703 5.16379 202.93C5.07712 203.155 4.95379 203.35 4.79379 203.515C4.63379 203.68 4.44129 203.809 4.21629 203.902C3.99129 203.994 3.74129 204.04 3.46629 204.04C3.19296 204.04 2.94379 203.994 2.71879 203.902C2.49379 203.809 2.30046 203.68 2.13879 203.515C1.97879 203.35 1.85462 203.155 1.76629 202.93C1.67796 202.703 1.63379 202.457 1.63379 202.192C1.63379 201.927 1.67796 201.682 1.76629 201.457C1.85462 201.231 1.97879 201.035 2.13879 200.87C2.30046 200.705 2.49379 200.577 2.71879 200.485C2.94379 200.392 3.19296 200.345 3.46629 200.345C3.64962 200.345 3.82212 200.367 3.98379 200.41C4.14546 200.452 4.29379 200.512 4.42879 200.59C4.56379 200.667 4.68462 200.761 4.79129 200.872C4.89962 200.982 4.99129 201.106 5.06629 201.242C5.14129 201.379 5.19796 201.527 5.23629 201.687C5.27629 201.847 5.29629 202.016 5.29629 202.192ZM4.60879 202.192C4.60879 201.994 4.58212 201.817 4.52879 201.66C4.47546 201.502 4.39962 201.367 4.30129 201.257C4.20296 201.147 4.08296 201.063 3.94129 201.005C3.80129 200.947 3.64296 200.917 3.46629 200.917C3.28962 200.917 3.13046 200.947 2.98879 201.005C2.84879 201.063 2.72879 201.147 2.62879 201.257C2.53046 201.367 2.45462 201.502 2.40129 201.66C2.34796 201.817 2.32129 201.994 2.32129 202.192C2.32129 202.391 2.34796 202.569 2.40129 202.727C2.45462 202.884 2.53046 203.017 2.62879 203.127C2.72879 203.236 2.84879 203.319 2.98879 203.377C3.13046 203.436 3.28962 203.465 3.46629 203.465C3.64296 203.465 3.80129 203.436 3.94129 203.377C4.08296 203.319 4.20296 203.236 4.30129 203.127C4.39962 203.017 4.47546 202.884 4.52879 202.727C4.58212 202.569 4.60879 202.391 4.60879 202.192ZM7.23938 203.475C7.36438 203.475 7.46938 203.46 7.55438 203.43C7.63938 203.4 7.70688 203.36 7.75688 203.31C7.80854 203.26 7.84521 203.202 7.86688 203.135C7.89021 203.068 7.90188 202.997 7.90188 202.922C7.90188 202.844 7.88938 202.774 7.86438 202.712C7.83938 202.649 7.80021 202.596 7.74688 202.552C7.69354 202.507 7.62438 202.473 7.53938 202.45C7.45604 202.427 7.35521 202.415 7.23688 202.415H6.55938V203.475H7.23938ZM6.55938 200.905V201.95H7.09438C7.32438 201.95 7.49771 201.908 7.61438 201.825C7.73271 201.742 7.79188 201.609 7.79188 201.427C7.79188 201.239 7.73854 201.105 7.63188 201.025C7.52521 200.945 7.35854 200.905 7.13188 200.905H6.55938ZM7.13188 200.385C7.36854 200.385 7.57104 200.407 7.73938 200.452C7.90771 200.497 8.04521 200.562 8.15188 200.645C8.26021 200.728 8.33938 200.829 8.38938 200.947C8.43938 201.066 8.46438 201.199 8.46438 201.347C8.46438 201.432 8.45188 201.514 8.42688 201.592C8.40188 201.669 8.36271 201.742 8.30937 201.81C8.25771 201.877 8.19104 201.937 8.10938 201.992C8.02938 202.047 7.93354 202.094 7.82188 202.132C8.31854 202.244 8.56688 202.512 8.56688 202.937C8.56688 203.091 8.53771 203.232 8.47938 203.362C8.42104 203.492 8.33604 203.605 8.22438 203.7C8.11271 203.793 7.97521 203.867 7.81188 203.92C7.64854 203.973 7.46188 204 7.25188 204H5.88688V200.385H7.13188ZM9.06039 202.232H10.3554V202.747H9.06039V202.232ZM13.8634 204H13.1934C13.1468 204 13.1093 203.988 13.0809 203.965C13.0543 203.942 13.0326 203.915 13.0159 203.885L12.1784 202.497C12.1651 202.539 12.1493 202.575 12.1309 202.605L11.3284 203.885C11.3084 203.913 11.2851 203.94 11.2584 203.965C11.2334 203.988 11.2001 204 11.1584 204H10.5309L11.7309 202.14L10.5784 200.385H11.2484C11.2951 200.385 11.3284 200.392 11.3484 200.405C11.3701 200.417 11.3901 200.437 11.4084 200.465L12.2309 201.79C12.2476 201.748 12.2676 201.707 12.2909 201.665L13.0459 200.477C13.0643 200.446 13.0843 200.422 13.1059 200.407C13.1276 200.392 13.1551 200.385 13.1884 200.385H13.8309L12.6684 202.112L13.8634 204ZM15.6318 202.09C15.5618 202.005 15.4851 201.945 15.4018 201.91C15.3201 201.875 15.2318 201.857 15.1368 201.857C15.0435 201.857 14.9593 201.875 14.8843 201.91C14.8093 201.945 14.7451 201.998 14.6918 202.07C14.6385 202.14 14.5976 202.23 14.5693 202.34C14.541 202.448 14.5268 202.577 14.5268 202.725C14.5268 202.875 14.5385 203.002 14.5618 203.107C14.5868 203.211 14.6218 203.296 14.6668 203.362C14.7118 203.427 14.7668 203.475 14.8318 203.505C14.8968 203.533 14.9693 203.547 15.0493 203.547C15.1776 203.547 15.2868 203.521 15.3768 203.467C15.4668 203.414 15.5518 203.338 15.6318 203.24V202.09ZM16.2493 200.285V204H15.8718C15.7901 204 15.7385 203.962 15.7168 203.887L15.6643 203.64C15.561 203.758 15.4418 203.854 15.3068 203.927C15.1735 204.001 15.0176 204.038 14.8393 204.038C14.6993 204.038 14.571 204.008 14.4543 203.95C14.3376 203.892 14.2368 203.807 14.1518 203.697C14.0685 203.586 14.0035 203.448 13.9568 203.285C13.9118 203.122 13.8893 202.935 13.8893 202.725C13.8893 202.535 13.9151 202.358 13.9668 202.195C14.0185 202.032 14.0926 201.89 14.1893 201.77C14.286 201.65 14.4018 201.557 14.5368 201.49C14.6718 201.422 14.8235 201.387 14.9918 201.387C15.1351 201.387 15.2576 201.41 15.3593 201.455C15.461 201.5 15.5518 201.561 15.6318 201.637V200.285H16.2493Z" fill="#399DFF"/>
<path fill-rule="evenodd" clip-rule="evenodd" d="M10 224H3V223H10C11.3139 223 12.5974 223.288 13.5437 224.249C14.4867 225.207 15 226.736 15 229H14C14 226.864 13.5133 225.643 12.8313 224.951C12.1526 224.262 11.1861 224 10 224Z" fill="#399DFF"/>
<path d="M5.29629 220.192C5.29629 220.457 5.25212 220.703 5.16379 220.93C5.07712 221.155 4.95379 221.35 4.79379 221.515C4.63379 221.68 4.44129 221.809 4.21629 221.902C3.99129 221.994 3.74129 222.04 3.46629 222.04C3.19296 222.04 2.94379 221.994 2.71879 221.902C2.49379 221.809 2.30046 221.68 2.13879 221.515C1.97879 221.35 1.85462 221.155 1.76629 220.93C1.67796 220.703 1.63379 220.457 1.63379 220.192C1.63379 219.927 1.67796 219.682 1.76629 219.457C1.85462 219.231 1.97879 219.035 2.13879 218.87C2.30046 218.705 2.49379 218.577 2.71879 218.485C2.94379 218.392 3.19296 218.345 3.46629 218.345C3.64962 218.345 3.82212 218.367 3.98379 218.41C4.14546 218.452 4.29379 218.512 4.42879 218.59C4.56379 218.667 4.68462 218.761 4.79129 218.872C4.89962 218.982 4.99129 219.106 5.06629 219.242C5.14129 219.379 5.19796 219.527 5.23629 219.687C5.27629 219.847 5.29629 220.016 5.29629 220.192ZM4.60879 220.192C4.60879 219.994 4.58212 219.817 4.52879 219.66C4.47546 219.502 4.39962 219.367 4.30129 219.257C4.20296 219.147 4.08296 219.063 3.94129 219.005C3.80129 218.947 3.64296 218.917 3.46629 218.917C3.28962 218.917 3.13046 218.947 2.98879 219.005C2.84879 219.063 2.72879 219.147 2.62879 219.257C2.53046 219.367 2.45462 219.502 2.40129 219.66C2.34796 219.817 2.32129 219.994 2.32129 220.192C2.32129 220.391 2.34796 220.569 2.40129 220.727C2.45462 220.884 2.53046 221.017 2.62879 221.127C2.72879 221.236 2.84879 221.319 2.98879 221.377C3.13046 221.436 3.28962 221.465 3.46629 221.465C3.64296 221.465 3.80129 221.436 3.94129 221.377C4.08296 221.319 4.20296 221.236 4.30129 221.127C4.39962 221.017 4.47546 220.884 4.52879 220.727C4.58212 220.569 4.60879 220.391 4.60879 220.192ZM7.23938 221.475C7.36438 221.475 7.46938 221.46 7.55438 221.43C7.63938 221.4 7.70688 221.36 7.75688 221.31C7.80854 221.26 7.84521 221.202 7.86688 221.135C7.89021 221.068 7.90188 220.997 7.90188 220.922C7.90188 220.844 7.88938 220.774 7.86438 220.712C7.83938 220.649 7.80021 220.596 7.74688 220.552C7.69354 220.507 7.62438 220.473 7.53938 220.45C7.45604 220.427 7.35521 220.415 7.23688 220.415H6.55938V221.475H7.23938ZM6.55938 218.905V219.95H7.09438C7.32438 219.95 7.49771 219.908 7.61438 219.825C7.73271 219.742 7.79188 219.609 7.79188 219.427C7.79188 219.239 7.73854 219.105 7.63188 219.025C7.52521 218.945 7.35854 218.905 7.13188 218.905H6.55938ZM7.13188 218.385C7.36854 218.385 7.57104 218.407 7.73938 218.452C7.90771 218.497 8.04521 218.562 8.15188 218.645C8.26021 218.728 8.33938 218.829 8.38938 218.947C8.43938 219.066 8.46438 219.199 8.46438 219.347C8.46438 219.432 8.45188 219.514 8.42688 219.592C8.40188 219.669 8.36271 219.742 8.30937 219.81C8.25771 219.877 8.19104 219.937 8.10938 219.992C8.02938 220.047 7.93354 220.094 7.82188 220.132C8.31854 220.244 8.56688 220.512 8.56688 220.937C8.56688 221.091 8.53771 221.232 8.47938 221.362C8.42104 221.492 8.33604 221.605 8.22438 221.7C8.11271 221.793 7.97521 221.867 7.81188 221.92C7.64854 221.973 7.46188 222 7.25188 222H5.88688V218.385H7.13188ZM9.06039 220.232H10.3554V220.747H9.06039V220.232ZM13.8634 222H13.1934C13.1468 222 13.1093 221.988 13.0809 221.965C13.0543 221.942 13.0326 221.915 13.0159 221.885L12.1784 220.497C12.1651 220.539 12.1493 220.575 12.1309 220.605L11.3284 221.885C11.3084 221.913 11.2851 221.94 11.2584 221.965C11.2334 221.988 11.2001 222 11.1584 222H10.5309L11.7309 220.14L10.5784 218.385H11.2484C11.2951 218.385 11.3284 218.392 11.3484 218.405C11.3701 218.417 11.3901 218.437 11.4084 218.465L12.2309 219.79C12.2476 219.748 12.2676 219.707 12.2909 219.665L13.0459 218.477C13.0643 218.446 13.0843 218.422 13.1059 218.407C13.1276 218.392 13.1551 218.385 13.1884 218.385H13.8309L12.6684 220.112L13.8634 222ZM15.6318 220.09C15.5618 220.005 15.4851 219.945 15.4018 219.91C15.3201 219.875 15.2318 219.857 15.1368 219.857C15.0435 219.857 14.9593 219.875 14.8843 219.91C14.8093 219.945 14.7451 219.998 14.6918 220.07C14.6385 220.14 14.5976 220.23 14.5693 220.34C14.541 220.448 14.5268 220.577 14.5268 220.725C14.5268 220.875 14.5385 221.002 14.5618 221.107C14.5868 221.211 14.6218 221.296 14.6668 221.362C14.7118 221.427 14.7668 221.475 14.8318 221.505C14.8968 221.533 14.9693 221.547 15.0493 221.547C15.1776 221.547 15.2868 221.521 15.3768 221.467C15.4668 221.414 15.5518 221.338 15.6318 221.24V220.09ZM16.2493 218.285V222H15.8718C15.7901 222 15.7385 221.962 15.7168 221.887L15.6643 221.64C15.561 221.758 15.4418 221.854 15.3068 221.927C15.1735 222.001 15.0176 222.038 14.8393 222.038C14.6993 222.038 14.571 222.008 14.4543 221.95C14.3376 221.892 14.2368 221.807 14.1518 221.697C14.0685 221.586 14.0035 221.448 13.9568 221.285C13.9118 221.122 13.8893 220.935 13.8893 220.725C13.8893 220.535 13.9151 220.358 13.9668 220.195C14.0185 220.032 14.0926 219.89 14.1893 219.77C14.286 219.65 14.4018 219.557 14.5368 219.49C14.6718 219.422 14.8235 219.387 14.9918 219.387C15.1351 219.387 15.2576 219.41 15.3593 219.455C15.461 219.5 15.5518 219.561 15.6318 219.637V218.285H16.2493Z" fill="#399DFF"/>
<path d="M7.53782 242.087C12.3895 242.107 13.9887 245.678 13.9916 247L15 246.997C14.9956 245.017 12.8547 240.893 7.28155 241.002H3V242.089H7.24682C7.26152 242.089 7.27622 242.09 7.29087 242.089H7.53782V242.087Z" fill="#399DFF"/>
<path d="M8.24156 237.042C8.22156 237.077 8.1999 237.103 8.17656 237.12C8.1549 237.135 8.1274 237.142 8.09406 237.142C8.05906 237.142 8.02073 237.13 7.97906 237.105C7.93906 237.078 7.89073 237.049 7.83406 237.017C7.7774 236.986 7.71073 236.957 7.63406 236.932C7.55906 236.906 7.4699 236.892 7.36656 236.892C7.27323 236.892 7.19156 236.904 7.12156 236.927C7.05156 236.949 6.9924 236.98 6.94406 237.02C6.8974 237.06 6.8624 237.108 6.83906 237.165C6.81573 237.22 6.80406 237.281 6.80406 237.347C6.80406 237.432 6.8274 237.503 6.87406 237.56C6.9224 237.617 6.98573 237.665 7.06406 237.705C7.1424 237.745 7.23156 237.781 7.33156 237.812C7.43156 237.844 7.53406 237.878 7.63906 237.915C7.74406 237.95 7.84656 237.992 7.94656 238.04C8.04656 238.087 8.13573 238.147 8.21406 238.22C8.2924 238.292 8.3549 238.38 8.40156 238.485C8.4499 238.59 8.47406 238.717 8.47406 238.867C8.47406 239.031 8.44573 239.184 8.38906 239.327C8.33406 239.469 8.2524 239.593 8.14406 239.7C8.0374 239.805 7.90656 239.888 7.75156 239.95C7.59656 240.01 7.41906 240.04 7.21906 240.04C7.10406 240.04 6.99073 240.028 6.87906 240.005C6.7674 239.983 6.6599 239.952 6.55656 239.91C6.4549 239.868 6.35906 239.818 6.26906 239.76C6.17906 239.702 6.09906 239.637 6.02906 239.565L6.22656 239.242C6.24323 239.219 6.2649 239.2 6.29156 239.185C6.31823 239.168 6.34656 239.16 6.37656 239.16C6.41823 239.16 6.46323 239.177 6.51156 239.212C6.5599 239.246 6.6174 239.283 6.68406 239.325C6.75073 239.367 6.82823 239.405 6.91656 239.44C7.00656 239.473 7.11406 239.49 7.23906 239.49C7.43073 239.49 7.57906 239.445 7.68406 239.355C7.78906 239.263 7.84156 239.132 7.84156 238.962C7.84156 238.867 7.8174 238.79 7.76906 238.73C7.7224 238.67 7.6599 238.62 7.58156 238.58C7.50323 238.538 7.41406 238.503 7.31406 238.475C7.21406 238.447 7.1124 238.416 7.00906 238.382C6.90573 238.349 6.80406 238.309 6.70406 238.262C6.60406 238.216 6.5149 238.155 6.43656 238.08C6.35823 238.005 6.2949 237.912 6.24656 237.8C6.1999 237.687 6.17656 237.547 6.17656 237.382C6.17656 237.251 6.2024 237.122 6.25406 236.997C6.3074 236.872 6.38406 236.762 6.48406 236.665C6.58406 236.568 6.7074 236.491 6.85406 236.432C7.00073 236.374 7.16906 236.345 7.35906 236.345C7.5724 236.345 7.76906 236.378 7.94906 236.445C8.12906 236.512 8.2824 236.605 8.40906 236.725L8.24156 237.042ZM9.7332 237.9H9.8907C9.95404 237.9 10.0065 237.892 10.0482 237.875C10.0899 237.857 10.1257 237.828 10.1557 237.79L11.1532 236.527C11.1949 236.474 11.2382 236.437 11.2832 236.417C11.3299 236.396 11.3882 236.385 11.4582 236.385H12.0382L10.8207 237.887C10.749 237.979 10.6749 238.044 10.5982 238.082C10.6532 238.102 10.7024 238.131 10.7457 238.167C10.7907 238.202 10.8332 238.249 10.8732 238.307L12.1282 240H11.5357C11.4557 240 11.3957 239.989 11.3557 239.967C11.3174 239.944 11.2849 239.911 11.2582 239.867L10.2357 238.532C10.204 238.487 10.1674 238.456 10.1257 238.438C10.084 238.419 10.024 238.41 9.9457 238.41H9.7332V240H9.0607V236.385H9.7332V237.9Z" fill="#399DFF"/>
<path d="M10.4622 260.087C5.61047 260.107 4.01134 263.678 4.0084 265L3 264.997C3.0044 263.017 5.14529 258.893 10.7185 259.002H15V260.089H10.7532C10.7385 260.089 10.7238 260.09 10.7091 260.089H10.4622V260.087Z" fill="#399DFF"/>
<path d="M8.24156 255.042C8.22156 255.077 8.1999 255.103 8.17656 255.12C8.1549 255.135 8.1274 255.142 8.09406 255.142C8.05906 255.142 8.02073 255.13 7.97906 255.105C7.93906 255.078 7.89073 255.049 7.83406 255.017C7.7774 254.986 7.71073 254.957 7.63406 254.932C7.55906 254.906 7.4699 254.892 7.36656 254.892C7.27323 254.892 7.19156 254.904 7.12156 254.927C7.05156 254.949 6.9924 254.98 6.94406 255.02C6.8974 255.06 6.8624 255.108 6.83906 255.165C6.81573 255.22 6.80406 255.281 6.80406 255.347C6.80406 255.432 6.8274 255.503 6.87406 255.56C6.9224 255.617 6.98573 255.665 7.06406 255.705C7.1424 255.745 7.23156 255.781 7.33156 255.812C7.43156 255.844 7.53406 255.878 7.63906 255.915C7.74406 255.95 7.84656 255.992 7.94656 256.04C8.04656 256.087 8.13573 256.147 8.21406 256.22C8.2924 256.292 8.3549 256.38 8.40156 256.485C8.4499 256.59 8.47406 256.717 8.47406 256.867C8.47406 257.031 8.44573 257.184 8.38906 257.327C8.33406 257.469 8.2524 257.593 8.14406 257.7C8.0374 257.805 7.90656 257.888 7.75156 257.95C7.59656 258.01 7.41906 258.04 7.21906 258.04C7.10406 258.04 6.99073 258.028 6.87906 258.005C6.7674 257.983 6.6599 257.952 6.55656 257.91C6.4549 257.868 6.35906 257.818 6.26906 257.76C6.17906 257.702 6.09906 257.637 6.02906 257.565L6.22656 257.242C6.24323 257.219 6.2649 257.2 6.29156 257.185C6.31823 257.168 6.34656 257.16 6.37656 257.16C6.41823 257.16 6.46323 257.177 6.51156 257.212C6.5599 257.246 6.6174 257.283 6.68406 257.325C6.75073 257.367 6.82823 257.405 6.91656 257.44C7.00656 257.473 7.11406 257.49 7.23906 257.49C7.43073 257.49 7.57906 257.445 7.68406 257.355C7.78906 257.263 7.84156 257.132 7.84156 256.962C7.84156 256.867 7.8174 256.79 7.76906 256.73C7.7224 256.67 7.6599 256.62 7.58156 256.58C7.50323 256.538 7.41406 256.503 7.31406 256.475C7.21406 256.447 7.1124 256.416 7.00906 256.382C6.90573 256.349 6.80406 256.309 6.70406 256.262C6.60406 256.216 6.5149 256.155 6.43656 256.08C6.35823 256.005 6.2949 255.912 6.24656 255.8C6.1999 255.687 6.17656 255.547 6.17656 255.382C6.17656 255.251 6.2024 255.122 6.25406 254.997C6.3074 254.872 6.38406 254.762 6.48406 254.665C6.58406 254.568 6.7074 254.491 6.85406 254.432C7.00073 254.374 7.16906 254.345 7.35906 254.345C7.5724 254.345 7.76906 254.378 7.94906 254.445C8.12906 254.512 8.2824 254.605 8.40906 254.725L8.24156 255.042ZM9.7332 255.9H9.8907C9.95404 255.9 10.0065 255.892 10.0482 255.875C10.0899 255.857 10.1257 255.828 10.1557 255.79L11.1532 254.527C11.1949 254.474 11.2382 254.437 11.2832 254.417C11.3299 254.396 11.3882 254.385 11.4582 254.385H12.0382L10.8207 255.887C10.749 255.979 10.6749 256.044 10.5982 256.082C10.6532 256.102 10.7024 256.131 10.7457 256.167C10.7907 256.202 10.8332 256.249 10.8732 256.307L12.1282 258H11.5357C11.4557 258 11.3957 257.989 11.3557 257.967C11.3174 257.944 11.2849 257.911 11.2582 257.867L10.2357 256.532C10.204 256.487 10.1674 256.456 10.1257 256.438C10.084 256.419 10.024 256.41 9.9457 256.41H9.7332V258H9.0607V254.385H9.7332V255.9Z" fill="#399DFF"/>
<path fill-rule="evenodd" clip-rule="evenodd" d="M9.0914 276.479L9.45151 275.528L12.5478 277.186L12.1831 278.135L9.0914 276.479ZM8.73436 277.423L8.2971 278.578L11.3785 280.228L11.8214 279.076L8.73436 277.423ZM7.53326 280.595L7.94006 279.521L11.0169 281.169L10.6049 282.241L7.53326 280.595ZM7.17622 281.539L6.48961 283.352L5.55438 282.998L9.43662 272.743L10.3719 273.097L9.80855 274.585L12.9094 276.246L13.5553 274.566L14.4887 274.925L10.5539 285.16L9.62051 284.801L10.2432 283.181L7.17622 281.539Z" fill="#399DFF"/>
<path d="M6.71064 274.692C6.71064 274.957 6.66648 275.201 6.57814 275.422C6.48981 275.644 6.36564 275.835 6.20564 275.995C6.04564 276.155 5.85314 276.279 5.62814 276.367C5.40314 276.456 5.15314 276.5 4.87814 276.5H3.50064V272.885H4.87814C5.15314 272.885 5.40314 272.93 5.62814 273.02C5.85314 273.108 6.04564 273.232 6.20564 273.392C6.36564 273.551 6.48981 273.741 6.57814 273.962C6.66648 274.184 6.71064 274.427 6.71064 274.692ZM6.02064 274.692C6.02064 274.494 5.99398 274.317 5.94064 274.16C5.88898 274.002 5.81314 273.868 5.71314 273.76C5.61481 273.65 5.49481 273.566 5.35314 273.507C5.21314 273.449 5.05481 273.42 4.87814 273.42H4.17564V275.965H4.87814C5.05481 275.965 5.21314 275.936 5.35314 275.877C5.49481 275.819 5.61481 275.736 5.71314 275.627C5.81314 275.517 5.88898 275.384 5.94064 275.227C5.99398 275.069 6.02064 274.891 6.02064 274.692Z" fill="#399DFF"/>
</svg>
