<?xml version="1.0" encoding="utf-8"?>
<svg width="134px" height="208px" viewBox="0 0 134 208" version="1.1" xmlns:xlink="http://www.w3.org/1999/xlink" xmlns="http://www.w3.org/2000/svg">
  <desc>Created with Lunacy</desc>
  <defs>
    <rect width="134" height="208" id="artboard_1" />
    <clipPath id="clip_1">
      <use xlink:href="#artboard_1" clip-rule="evenodd" />
    </clipPath>
  </defs>
  <g id="hover00151" clip-path="url(#clip_1)">
    <g id="Backgrounds" transform="translate(1 43)">
      <path d="M0 2.33333L0 1.16667C0 0.844501 0.0991808 0.569515 0.297542 0.341709C0.495904 0.113903 0.735347 0 1.01587 0L30.9841 0C31.2647 0 31.5041 0.113903 31.7025 0.341709C31.9008 0.569515 32 0.844501 32 1.16667L32 5.83333C32 6.1555 31.9008 6.43049 31.7025 6.65829C31.5041 6.8861 31.2647 7 30.9841 7L1.01587 7C0.735347 7 0.495904 6.8861 0.297542 6.65829C0.0991808 6.43049 0 6.1555 0 5.83333L0 2.33333Z" transform="translate(97.5 156)" id="2&gt;1&lt;3" fill="#399DFF" fill-rule="evenodd" stroke="none" />
      <path d="M0 2L0 1C0 0.723858 0.0976311 0.488155 0.292893 0.292893C0.488155 0.0976311 0.723858 0 1 0L31.5 0C31.7761 0 32.0118 0.0976311 32.2071 0.292893C32.4024 0.488155 32.5 0.723858 32.5 1L32.5 6C32.5 6.27614 32.4024 6.51184 32.2071 6.70711C32.0118 6.90237 31.7761 7 31.5 7L1 7C0.723858 7 0.488155 6.90237 0.292893 6.70711C0.0976311 6.51184 0 6.27614 0 6L0 2Z" transform="translate(65 104)" id="3&gt;2&gt;1" fill="#399DFF" fill-rule="evenodd" stroke="none" />
      <path d="M0 2.33333L0 1.16667C0 0.844501 0.0991808 0.569515 0.297542 0.341709C0.495904 0.113903 0.735347 0 1.01587 0L30.9841 0C31.2647 0 31.5041 0.113903 31.7025 0.341709C31.9008 0.569515 32 0.844501 32 1.16667L32 5.83333C32 6.1555 31.9008 6.43049 31.7025 6.65829C31.5041 6.8861 31.2647 7 30.9841 7L1.01587 7C0.735347 7 0.495904 6.8861 0.297542 6.65829C0.0991808 6.43049 0 6.1555 0 5.83333L0 2.33333Z" transform="translate(32.5 52)" id="2&gt;1" fill="#399DFF" fill-rule="evenodd" stroke="none" />
      <path d="M0 2L0 1C0 0.723858 0.0976311 0.488155 0.292893 0.292893C0.488155 0.0976311 0.723858 0 1 0L31.5 0C31.7761 0 32.0118 0.0976311 32.2071 0.292893C32.4024 0.488155 32.5 0.723858 32.5 1L32.5 6C32.5 6.27614 32.4024 6.51184 32.2071 6.70711C32.0118 6.90237 31.7761 7 31.5 7L1 7C0.723858 7 0.488155 6.90237 0.292893 6.70711C0.0976311 6.51184 0 6.27614 0 6L0 2Z" id="No-FM" fill="#399DFF" fill-rule="evenodd" stroke="none" />
    </g>
    <g id="2&gt;1&lt;3" transform="translate(103.23102 199.84448)">
      <path d="M1.827 5.2115C2.06267 5.2115 2.28899 5.17825 2.506 5.11176C2.723 5.04526 2.91375 4.9455 3.07825 4.8125C3.24274 4.6795 3.374 4.51266 3.472 4.312C3.57 4.11133 3.619 3.87567 3.619 3.605C3.619 3.03334 3.33666 2.64951 2.772 2.45351C2.89333 2.4115 3.00124 2.35901 3.09575 2.29601C3.19025 2.233 3.26958 2.15659 3.33375 2.06676C3.39791 1.97691 3.44633 1.87076 3.479 1.74825C3.51167 1.62575 3.528 1.48401 3.528 1.323C3.528 1.14568 3.493 0.977081 3.423 0.817246C3.353 0.657425 3.25033 0.516831 3.115 0.395508C2.97967 0.27417 2.814 0.177917 2.618 0.10675C2.422 0.0355835 2.198 0 1.946 0C1.71266 0 1.4945 0.0309143 1.2915 0.0927582C1.0885 0.154587 0.908249 0.248505 0.750748 0.374496C0.593246 0.500504 0.46141 0.658005 0.355247 0.847C0.249077 1.036 0.17733 1.25768 0.139999 1.51201L0.139999 1.51201L0.713997 1.61349C0.741997 1.61816 0.769417 1.62167 0.796249 1.62401C0.823082 1.62634 0.848167 1.6275 0.871498 1.6275C0.969498 1.6275 1.04708 1.60417 1.10425 1.5575C1.16142 1.51083 1.20866 1.435 1.24599 1.33C1.26933 1.267 1.30025 1.20866 1.33875 1.155C1.37725 1.10133 1.42333 1.05467 1.477 1.015C1.53066 0.975342 1.59133 0.943832 1.659 0.920502C1.72666 0.897171 1.80133 0.885498 1.883 0.885498C2.08133 0.885498 2.22891 0.939758 2.32574 1.04825C2.42258 1.15675 2.471 1.31134 2.471 1.51201C2.471 1.61 2.45933 1.69983 2.436 1.78151C2.41267 1.86317 2.36542 1.93259 2.29425 1.98975C2.22308 2.04692 2.12216 2.09184 1.9915 2.1245C1.86083 2.15717 1.68933 2.17351 1.477 2.17351L1.477 2.17351L1.477 2.9225C1.729 2.9225 1.92558 2.93942 2.06675 2.97325C2.20792 3.00708 2.3135 3.0555 2.3835 3.1185C2.4535 3.1815 2.49608 3.25676 2.51125 3.34425C2.52641 3.43175 2.534 3.53033 2.534 3.64C2.534 3.724 2.51883 3.80684 2.48849 3.8885C2.45817 3.97017 2.41325 4.04309 2.35374 4.10725C2.29425 4.17142 2.21958 4.22392 2.12975 4.26476C2.03992 4.30559 1.93433 4.326 1.813 4.326C1.65433 4.326 1.51608 4.28226 1.39825 4.19475C1.28041 4.10725 1.169 3.96667 1.064 3.77299C1.03366 3.717 0.988747 3.67442 0.929245 3.64525C0.869751 3.61609 0.802666 3.6015 0.727997 3.6015C0.688332 3.6015 0.648079 3.605 0.607246 3.612C0.566414 3.619 0.524994 3.63184 0.482994 3.6505L0.482994 3.6505L0 3.8465C0.081665 4.0845 0.177917 4.28984 0.28875 4.46251C0.399582 4.63516 0.528496 4.77692 0.675499 4.88776C0.822494 4.99858 0.990494 5.08025 1.1795 5.13275C1.3685 5.18526 1.58433 5.2115 1.827 5.2115L1.827 5.2115Z" transform="translate(20.027985 0)" id="3" fill="#FFFFFF" fill-rule="evenodd" stroke="none" />
      <path d="M2.5 0L5 3L0 3L2.5 0Z" transform="matrix(-1.1924881E-08 1 1 1.1924881E-08 14.768982 0.15551758)" id="&lt;" fill="#FFFFFF" fill-rule="evenodd" stroke="none" />
      <path d="M3.325 5.103L3.325 4.319L2.485 4.319L2.485 0L1.589 0L0 1.3335L0.343002 1.7885C0.366333 1.81883 0.401917 1.84741 0.449753 1.87425C0.497582 1.90108 0.551834 1.91449 0.612503 1.91449C0.647499 1.91449 0.68367 1.90808 0.721001 1.89525C0.758331 1.88242 0.79567 1.86082 0.833 1.83049L0.833 1.83049L1.4105 1.351C1.4035 1.48866 1.4 1.6205 1.4 1.74649L1.4 1.74649L1.4 4.319L0.420006 4.319L0.420006 5.103L3.325 5.103L3.325 5.103Z" transform="translate(10.230988 0.052505493)" id="1" fill="#FFFFFF" fill-rule="evenodd" stroke="none" />
      <path d="M2.5 0L5 3L0 3L2.5 0Z" transform="matrix(1.1924881E-08 1 -1 1.1924881E-08 8.768982 0.15551758)" id="&gt;" fill="#FFFFFF" fill-rule="evenodd" stroke="none" />
      <path d="M3.584 5.1555L3.584 4.5255C3.584 4.4205 3.55016 4.33592 3.4825 4.27176C3.41483 4.20758 3.32266 4.17551 3.20599 4.17551L3.20599 4.17551L2.254 4.17551C2.14433 4.17551 2.02708 4.18658 1.90224 4.20876C1.77741 4.23093 1.65083 4.26067 1.5225 4.298L1.5225 4.298L2.52 3.276C2.65533 3.13834 2.78308 3.00243 2.90324 2.86826C3.02341 2.73409 3.129 2.59525 3.21999 2.45175C3.311 2.30826 3.38274 2.15717 3.43525 1.9985C3.48775 1.83983 3.514 1.66718 3.514 1.4805C3.514 1.2635 3.47608 1.06459 3.40025 0.883759C3.32442 0.702927 3.21533 0.547165 3.073 0.416504C2.93066 0.285843 2.75858 0.183746 2.55675 0.110245C2.35491 0.0367584 2.128 0 1.876 0C1.64266 0 1.4245 0.0309143 1.2215 0.0927582C1.01849 0.154587 0.838249 0.248505 0.680748 0.374496C0.523247 0.500504 0.391411 0.658005 0.285248 0.847C0.179077 1.036 0.10733 1.25768 0.0699997 1.51201L0.0699997 1.51201L0.643997 1.61349C0.671997 1.61816 0.699417 1.62167 0.72625 1.62401C0.753082 1.62634 0.77816 1.6275 0.801498 1.6275C0.899498 1.6275 0.977081 1.60417 1.03425 1.5575C1.09142 1.51083 1.13866 1.435 1.17599 1.33C1.19933 1.267 1.23025 1.20866 1.26875 1.155C1.30725 1.10133 1.35333 1.05467 1.407 1.015C1.46066 0.975342 1.52133 0.943832 1.589 0.920502C1.65666 0.897171 1.73133 0.885498 1.813 0.885498C2.01133 0.885498 2.15891 0.939758 2.25575 1.04825C2.35258 1.15675 2.401 1.3125 2.401 1.5155C2.401 1.63918 2.38583 1.75642 2.3555 1.86725C2.32516 1.97809 2.27966 2.08891 2.21899 2.19975C2.15833 2.31059 2.08133 2.42317 1.988 2.53751C1.89466 2.65184 1.785 2.772 1.659 2.89799L1.659 2.89799L0.188995 4.37851C0.118996 4.4415 0.0699997 4.51151 0.0419998 4.5885C0.0139999 4.6655 0 4.73784 0 4.8055L0 4.8055L0 5.1555L3.584 5.1555L3.584 5.1555Z" id="2" fill="#FFFFFF" fill-rule="evenodd" stroke="none" />
    </g>
    <g id="3&gt;2&gt;1" transform="translate(70.259 147.84448)">
      <path d="M3.325 5.103L3.325 4.319L2.485 4.319L2.485 0L1.589 0L0 1.3335L0.343002 1.7885C0.366333 1.81883 0.401917 1.84741 0.449753 1.87424C0.497589 1.90108 0.551834 1.9145 0.612503 1.9145C0.647499 1.9145 0.68367 1.90808 0.721001 1.89525C0.758339 1.88242 0.79567 1.86083 0.833 1.8305L0.833 1.8305L1.4105 1.351C1.4035 1.48866 1.4 1.6205 1.4 1.7465L1.4 1.7465L1.4 4.319L0.420006 4.319L0.420006 5.103L3.325 5.103L3.325 5.103Z" transform="translate(21.203003 0.052505493)" id="1" fill="#FFFFFF" fill-rule="evenodd" stroke="none" />
      <path d="M2.5 0L5 3L0 3L2.5 0Z" transform="matrix(1.1924881E-08 1 -1 1.1924881E-08 19.740997 0.15551758)" id="&gt;" fill="#FFFFFF" fill-rule="evenodd" stroke="none" />
      <path d="M3.584 5.1555L3.584 4.52551C3.584 4.4205 3.55016 4.33592 3.4825 4.27175C3.41483 4.20759 3.32266 4.1755 3.20599 4.1755L3.20599 4.1755L2.254 4.1755C2.14433 4.1755 2.02708 4.18658 1.90224 4.20876C1.77741 4.23092 1.65083 4.26067 1.5225 4.298L1.5225 4.298L2.52 3.276C2.65533 3.13834 2.78308 3.00242 2.90324 2.86826C3.02341 2.73409 3.129 2.59525 3.21999 2.45175C3.311 2.30825 3.38274 2.15717 3.43525 1.9985C3.48775 1.83984 3.514 1.66717 3.514 1.4805C3.514 1.2635 3.47608 1.06458 3.40025 0.883751C3.32442 0.702919 3.21533 0.547173 3.073 0.416504C2.93066 0.285835 2.75858 0.183754 2.55675 0.110252C2.35491 0.0367508 2.128 0 1.876 0C1.64266 0 1.4245 0.0309219 1.2215 0.0927505C1.01849 0.154587 0.838249 0.248505 0.680748 0.374504C0.523247 0.500504 0.391411 0.658005 0.285248 0.847C0.179077 1.036 0.10733 1.25767 0.0699997 1.512L0.0699997 1.512L0.643997 1.6135C0.671997 1.61817 0.699417 1.62167 0.72625 1.624C0.753082 1.62634 0.77816 1.6275 0.801498 1.6275C0.899498 1.6275 0.977081 1.60417 1.03425 1.5575C1.09142 1.51083 1.13866 1.43501 1.17599 1.33C1.19933 1.26701 1.23025 1.20867 1.26875 1.155C1.30725 1.10133 1.35333 1.05467 1.407 1.015C1.46066 0.975334 1.52133 0.943832 1.589 0.920502C1.65666 0.897171 1.73133 0.885506 1.813 0.885506C2.01133 0.885506 2.15891 0.939751 2.25575 1.04826C2.35258 1.15675 2.401 1.3125 2.401 1.5155C2.401 1.63917 2.38583 1.75642 2.3555 1.86725C2.32516 1.97809 2.27966 2.08892 2.21899 2.19975C2.15833 2.31059 2.08133 2.42317 1.988 2.53751C1.89466 2.65183 1.785 2.772 1.659 2.898L1.659 2.898L0.188995 4.3785C0.118996 4.44151 0.0699997 4.51151 0.0419998 4.5885C0.0139999 4.6655 0 4.73784 0 4.8055L0 4.8055L0 5.1555L3.584 5.1555L3.584 5.1555Z" transform="translate(10.972015 0)" id="2" fill="#FFFFFF" fill-rule="evenodd" stroke="none" />
      <path d="M2.5 0L5 3L0 3L2.5 0Z" transform="matrix(1.1924881E-08 1 -1 1.1924881E-08 8.740997 0.15551758)" id="&gt;" fill="#FFFFFF" fill-rule="evenodd" stroke="none" />
      <path d="M1.827 5.2115C2.06266 5.2115 2.28899 5.17825 2.506 5.11176C2.723 5.04525 2.91375 4.9455 3.07825 4.8125C3.24274 4.6795 3.374 4.51267 3.472 4.312C3.57 4.11134 3.619 3.87567 3.619 3.605C3.619 3.03333 3.33666 2.64951 2.772 2.4535C2.89333 2.4115 3.00124 2.359 3.09575 2.29601C3.19025 2.233 3.26958 2.15659 3.33375 2.06675C3.39791 1.97692 3.44633 1.87075 3.479 1.74825C3.51167 1.62576 3.528 1.484 3.528 1.32301C3.528 1.14567 3.493 0.977089 3.423 0.817253C3.353 0.657417 3.25033 0.516838 3.115 0.3955C2.97967 0.27417 2.814 0.177917 2.618 0.10675C2.422 0.0355835 2.198 0 1.946 0C1.71266 0 1.4945 0.0309219 1.2915 0.0927505C1.0885 0.154587 0.908249 0.248505 0.750748 0.374504C0.593246 0.500504 0.46141 0.658005 0.355247 0.847C0.249077 1.036 0.17733 1.25767 0.139999 1.512L0.139999 1.512L0.713997 1.6135C0.741997 1.61817 0.769417 1.62167 0.796249 1.624C0.823082 1.62634 0.848167 1.6275 0.871498 1.6275C0.969498 1.6275 1.04708 1.60417 1.10425 1.5575C1.16142 1.51083 1.20866 1.43501 1.24599 1.33C1.26933 1.26701 1.30025 1.20867 1.33875 1.155C1.37725 1.10133 1.42333 1.05467 1.477 1.015C1.53066 0.975334 1.59133 0.943832 1.659 0.920502C1.72666 0.897171 1.80133 0.885506 1.883 0.885506C2.08133 0.885506 2.22891 0.939751 2.32574 1.04826C2.42258 1.15675 2.471 1.31133 2.471 1.512C2.471 1.61 2.45933 1.69984 2.436 1.7815C2.41267 1.86317 2.36542 1.93259 2.29425 1.98975C2.22308 2.04692 2.12216 2.09184 1.9915 2.1245C1.86083 2.15717 1.68933 2.1735 1.477 2.1735L1.477 2.1735L1.477 2.9225C1.729 2.9225 1.92558 2.93942 2.06675 2.97325C2.20792 3.00709 2.3135 3.0555 2.3835 3.1185C2.4535 3.1815 2.49608 3.25675 2.51125 3.34425C2.52641 3.43176 2.534 3.53033 2.534 3.64C2.534 3.724 2.51883 3.80684 2.48849 3.8885C2.45816 3.97017 2.41325 4.04308 2.35374 4.10725C2.29425 4.17142 2.21958 4.22392 2.12975 4.26476C2.03992 4.30559 1.93433 4.326 1.813 4.326C1.65433 4.326 1.51608 4.28225 1.39825 4.19476C1.28041 4.10725 1.169 3.96667 1.064 3.773C1.03366 3.717 0.988747 3.67442 0.929245 3.64526C0.869751 3.61609 0.802666 3.6015 0.727997 3.6015C0.688332 3.6015 0.648079 3.605 0.607246 3.612C0.566414 3.619 0.524994 3.63184 0.482994 3.65051L0.482994 3.65051L0 3.8465C0.081665 4.0845 0.177917 4.28983 0.28875 4.4625C0.399582 4.63517 0.528496 4.77692 0.675499 4.88775C0.822494 4.99859 0.990494 5.08025 1.1795 5.13275C1.3685 5.18525 1.58433 5.2115 1.827 5.2115L1.827 5.2115Z" id="3" fill="#FFFFFF" fill-rule="evenodd" stroke="none" />
    </g>
    <g id="2&gt;1" transform="translate(42.230988 95.84448)">
      <path d="M3.325 5.103L3.325 4.319L2.485 4.319L2.485 0L1.589 0L0 1.3335L0.342999 1.7885C0.366333 1.81883 0.401917 1.84741 0.449749 1.87424C0.497582 1.90108 0.55183 1.9145 0.612499 1.9145C0.647499 1.9145 0.683666 1.90808 0.720997 1.89525C0.758331 1.88242 0.795666 1.86083 0.832996 1.8305L0.832996 1.8305L1.4105 1.351C1.4035 1.48866 1.4 1.6205 1.4 1.7465L1.4 1.7465L1.4 4.319L0.419998 4.319L0.419998 5.103L3.325 5.103L3.325 5.103Z" transform="translate(11.231018 0.052505493)" id="1" fill="#FFFFFF" fill-rule="evenodd" stroke="none" />
      <path d="M2.5 0L5 3L0 3L2.5 0Z" transform="matrix(1.1924881E-08 1 -1 1.1924881E-08 8.769012 0.15551758)" id="&gt;" fill="#FFFFFF" fill-rule="evenodd" stroke="none" />
      <path d="M3.584 5.1555L3.584 4.52551C3.584 4.4205 3.55017 4.33592 3.4825 4.27175C3.41483 4.20759 3.32267 4.1755 3.206 4.1755L3.206 4.1755L2.254 4.1755C2.14433 4.1755 2.02708 4.18658 1.90225 4.20876C1.77742 4.23092 1.65083 4.26067 1.5225 4.298L1.5225 4.298L2.52 3.276C2.65533 3.13834 2.78309 3.00242 2.90325 2.86826C3.02342 2.73409 3.129 2.59525 3.22 2.45175C3.311 2.30825 3.38275 2.15717 3.43525 1.9985C3.48775 1.83984 3.514 1.66717 3.514 1.4805C3.514 1.2635 3.47609 1.06458 3.40025 0.883751C3.32442 0.702919 3.21534 0.547173 3.073 0.416504C2.93067 0.285835 2.75858 0.183754 2.55675 0.110252C2.35492 0.0367508 2.128 0 1.876 0C1.64267 0 1.4245 0.0309219 1.2215 0.0927505C1.0185 0.154587 0.838249 0.248505 0.680752 0.374504C0.523251 0.500504 0.391418 0.658005 0.285252 0.847C0.179085 1.036 0.107334 1.25767 0.0699997 1.512L0.0699997 1.512L0.644001 1.6135C0.672001 1.61817 0.699417 1.62167 0.72625 1.624C0.753086 1.62634 0.778168 1.6275 0.801502 1.6275C0.899502 1.6275 0.977085 1.60417 1.03425 1.5575C1.09142 1.51083 1.13867 1.43501 1.176 1.33C1.19933 1.26701 1.23025 1.20867 1.26875 1.155C1.30725 1.10133 1.35333 1.05467 1.407 1.015C1.46067 0.975334 1.52134 0.943832 1.589 0.920502C1.65667 0.897171 1.73133 0.885506 1.813 0.885506C2.01133 0.885506 2.15892 0.939751 2.25575 1.04826C2.35258 1.15675 2.401 1.3125 2.401 1.5155C2.401 1.63917 2.38583 1.75642 2.3555 1.86725C2.32517 1.97809 2.27967 2.08892 2.219 2.19975C2.15833 2.31059 2.08133 2.42317 1.988 2.53751C1.89467 2.65183 1.785 2.772 1.659 2.898L1.659 2.898L0.188999 4.3785C0.118999 4.44151 0.0699997 4.51151 0.0419998 4.5885C0.0139999 4.6655 0 4.73784 0 4.8055L0 4.8055L0 5.1555L3.584 5.1555L3.584 5.1555Z" id="2" fill="#FFFFFF" fill-rule="evenodd" stroke="none" />
    </g>
    <path d="M7.679 5.2115Q8.274 5.2115 8.76225 5.012C9.08775 4.879 9.366 4.69525 9.597 4.46075C9.828 4.22625 10.0071 3.95033 10.1342 3.633C10.2614 3.31567 10.325 2.97267 10.325 2.604Q10.325 2.0545 10.1342 1.5785C10.0071 1.26117 9.828 0.985834 9.597 0.752501C9.366 0.519167 9.08775 0.335417 8.76225 0.20125Q8.274 0 7.679 0Q7.084 0 6.594 0.1995C6.26733 0.3325 5.98792 0.515667 5.75575 0.749001C5.52358 0.982334 5.34392 1.25767 5.21675 1.575C5.08958 1.89233 5.026 2.23533 5.026 2.604C5.026 2.97267 5.08958 3.31567 5.21675 3.633C5.34392 3.95033 5.52358 4.22625 5.75575 4.46075Q6.104 4.8125 6.594 5.012Q7.084 5.2115 7.679 5.2115ZM13.433 5.1555L13.433 3.171L15.176 3.171L15.176 2.2575L13.433 2.2575L13.433 0.966L15.526 0.966L15.526 0.0559998L12.243 0.0559998L12.243 5.1555L13.433 5.1555ZM17.185 2.2225L17.185 5.1555L16.142 5.1555L16.142 0.0559998L17.045 0.0559998C17.0963 0.0559998 17.1412 0.0571661 17.1797 0.0594997Q17.2375 0.0629988 17.283 0.0804996C17.3133 0.0921659 17.3407 0.11025 17.3652 0.134749C17.3897 0.159249 17.4137 0.193666 17.437 0.238L18.7495 2.8245C18.7962 2.91317 18.8411 3.00533 18.8842 3.101C18.9274 3.19667 18.9688 3.29467 19.0085 3.395C19.0482 3.29233 19.0902 3.19258 19.1345 3.09575C19.1788 2.99892 19.2243 2.905 19.271 2.814L20.58 0.238C20.6033 0.193666 20.6272 0.159249 20.6517 0.134749C20.6762 0.11025 20.7037 0.0921659 20.734 0.0804996C20.7643 0.0688324 20.7987 0.0618324 20.8372 0.0594997C20.8757 0.0571661 20.9207 0.0559998 20.972 0.0559998L21.875 0.0559998L21.875 5.1555L20.832 5.1555L20.832 2.2225C20.832 2.08017 20.839 1.92617 20.853 1.7605L19.502 4.382C19.46 4.46367 19.4034 4.5255 19.3322 4.5675Q19.2255 4.6305 19.089 4.6305L18.928 4.6305Q18.7915 4.6305 18.6847 4.5675C18.6136 4.5255 18.557 4.46367 18.515 4.382L17.157 1.757C17.1663 1.83867 17.1733 1.91975 17.178 2.00025C17.1827 2.08075 17.185 2.15483 17.185 2.2225ZM1.043 2.422L1.043 5.1555L0 5.1555L0 0.0560007L0.623 0.0560007C0.674333 0.0560007 0.7175 0.0583334 0.7525 0.0630007C0.7875 0.067667 0.819 0.076417 0.847 0.0892506C0.875 0.102084 0.901833 0.120167 0.9275 0.1435C0.953167 0.166834 0.982333 0.198334 1.015 0.238001L3.437 3.3005C3.42767 3.2025 3.42067 3.10742 3.416 3.01525C3.41133 2.92308 3.409 2.83617 3.409 2.7545L3.409 0.0560007L4.452 0.0560007L4.452 5.1555L3.836 5.1555Q3.6995 5.1555 3.605 5.1135C3.542 5.0855 3.48133 5.03417 3.423 4.9595L1.0185 1.9215C1.0255 2.01017 1.03133 2.09708 1.036 2.18225C1.04067 2.26742 1.043 2.34733 1.043 2.422ZM7.06825 4.12125Q7.336 4.2315 7.679 4.2315C7.90533 4.2315 8.10717 4.19475 8.2845 4.12125C8.46183 4.04775 8.61175 3.941 8.73425 3.801C8.85675 3.661 8.95067 3.49008 9.016 3.28825C9.08133 3.08642 9.114 2.85833 9.114 2.604C9.114 2.352 9.08133 2.12508 9.016 1.92325C8.95067 1.72142 8.85675 1.5505 8.73425 1.4105C8.61175 1.2705 8.46183 1.16317 8.2845 1.0885C8.10717 1.01383 7.90533 0.976501 7.679 0.976501Q7.336 0.976501 7.06825 1.0885C6.88975 1.16317 6.73925 1.2705 6.61675 1.4105C6.49425 1.5505 6.40033 1.72142 6.335 1.92325C6.26967 2.12508 6.237 2.352 6.237 2.604C6.237 2.85833 6.26967 3.08642 6.335 3.28825C6.40033 3.49008 6.49425 3.661 6.61675 3.801C6.73925 3.941 6.88975 4.04775 7.06825 4.12125Z" transform="translate(6.419998 43.844482)" id="No-FM" fill="#FFFFFF" fill-rule="evenodd" stroke="none" />
  </g>
</svg>