<svg width="51" height="117" viewBox="0 0 51 117" fill="none" xmlns="http://www.w3.org/2000/svg">
<rect x="2.5" y="2" width="46" height="10" rx="1" fill="#399DFF"/>
<rect x="2.5" y="2" width="46" height="10" rx="1" stroke="white"/>
<path d="M13.7762 5.712V7.188H15.7682V8.232H13.7762V10.5H12.4162V4.672H16.1682V5.712H13.7762ZM17.5387 6.992C17.6667 6.768 17.8134 6.592 17.9787 6.464C18.1467 6.336 18.3387 6.272 18.5547 6.272C18.7414 6.272 18.8934 6.316 19.0107 6.404L18.9307 7.316C18.9174 7.37467 18.8947 7.41467 18.8627 7.436C18.8334 7.45733 18.7921 7.468 18.7387 7.468C18.7174 7.468 18.6894 7.46667 18.6547 7.464C18.6201 7.46133 18.5841 7.45867 18.5467 7.456C18.5094 7.45067 18.4707 7.44667 18.4307 7.444C18.3934 7.43867 18.3587 7.436 18.3267 7.436C18.1454 7.436 18.0001 7.484 17.8907 7.58C17.7841 7.676 17.6934 7.80933 17.6187 7.98V10.5H16.3787V6.352H17.1147C17.1761 6.352 17.2267 6.35733 17.2667 6.368C17.3094 6.37867 17.3441 6.396 17.3707 6.42C17.4001 6.44133 17.4214 6.47067 17.4347 6.508C17.4507 6.54533 17.4641 6.59067 17.4747 6.644L17.5387 6.992ZM21.8231 7.928C21.8231 7.82933 21.8098 7.73333 21.7831 7.64C21.7591 7.54667 21.7178 7.464 21.6591 7.392C21.6031 7.31733 21.5285 7.25733 21.4351 7.212C21.3418 7.16667 21.2285 7.144 21.0951 7.144C20.8605 7.144 20.6765 7.212 20.5431 7.348C20.4098 7.48133 20.3218 7.67467 20.2791 7.928H21.8231ZM20.2631 8.648C20.3031 8.99467 20.4085 9.24667 20.5791 9.404C20.7498 9.55867 20.9698 9.636 21.2391 9.636C21.3831 9.636 21.5071 9.61867 21.6111 9.584C21.7151 9.54933 21.8071 9.51067 21.8871 9.468C21.9698 9.42533 22.0445 9.38667 22.1111 9.352C22.1805 9.31733 22.2525 9.3 22.3271 9.3C22.4258 9.3 22.5005 9.336 22.5511 9.408L22.9111 9.852C22.7831 9.99867 22.6445 10.1187 22.4951 10.212C22.3485 10.3027 22.1965 10.3747 22.0391 10.428C21.8845 10.4787 21.7285 10.5133 21.5711 10.532C21.4165 10.5533 21.2685 10.564 21.1271 10.564C20.8365 10.564 20.5631 10.5173 20.3071 10.424C20.0538 10.328 19.8311 10.1867 19.6391 10C19.4498 9.81333 19.2991 9.58133 19.1871 9.304C19.0778 9.02667 19.0231 8.704 19.0231 8.336C19.0231 8.05867 19.0698 7.796 19.1631 7.548C19.2591 7.3 19.3951 7.08267 19.5711 6.896C19.7498 6.70933 19.9645 6.56133 20.2151 6.452C20.4685 6.34267 20.7538 6.288 21.0711 6.288C21.3458 6.288 21.5965 6.33067 21.8231 6.416C22.0525 6.50133 22.2485 6.62533 22.4111 6.788C22.5765 6.95067 22.7045 7.15067 22.7951 7.388C22.8885 7.62267 22.9351 7.88933 22.9351 8.188C22.9351 8.28133 22.9311 8.35733 22.9231 8.416C22.9151 8.47467 22.9005 8.52133 22.8791 8.556C22.8578 8.59067 22.8285 8.61467 22.7911 8.628C22.7565 8.64133 22.7111 8.648 22.6551 8.648H20.2631ZM26.0156 7.928C26.0156 7.82933 26.0023 7.73333 25.9756 7.64C25.9516 7.54667 25.9103 7.464 25.8516 7.392C25.7956 7.31733 25.721 7.25733 25.6276 7.212C25.5343 7.16667 25.421 7.144 25.2876 7.144C25.053 7.144 24.869 7.212 24.7356 7.348C24.6023 7.48133 24.5143 7.67467 24.4716 7.928H26.0156ZM24.4556 8.648C24.4956 8.99467 24.601 9.24667 24.7716 9.404C24.9423 9.55867 25.1623 9.636 25.4316 9.636C25.5756 9.636 25.6996 9.61867 25.8036 9.584C25.9076 9.54933 25.9996 9.51067 26.0796 9.468C26.1623 9.42533 26.237 9.38667 26.3036 9.352C26.373 9.31733 26.445 9.3 26.5196 9.3C26.6183 9.3 26.693 9.336 26.7436 9.408L27.1036 9.852C26.9756 9.99867 26.837 10.1187 26.6876 10.212C26.541 10.3027 26.389 10.3747 26.2316 10.428C26.077 10.4787 25.921 10.5133 25.7636 10.532C25.609 10.5533 25.461 10.564 25.3196 10.564C25.029 10.564 24.7556 10.5173 24.4996 10.424C24.2463 10.328 24.0236 10.1867 23.8316 10C23.6423 9.81333 23.4916 9.58133 23.3796 9.304C23.2703 9.02667 23.2156 8.704 23.2156 8.336C23.2156 8.05867 23.2623 7.796 23.3556 7.548C23.4516 7.3 23.5876 7.08267 23.7636 6.896C23.9423 6.70933 24.157 6.56133 24.4076 6.452C24.661 6.34267 24.9463 6.288 25.2636 6.288C25.5383 6.288 25.789 6.33067 26.0156 6.416C26.245 6.50133 26.441 6.62533 26.6036 6.788C26.769 6.95067 26.897 7.15067 26.9876 7.388C27.081 7.62267 27.1276 7.88933 27.1276 8.188C27.1276 8.28133 27.1236 8.35733 27.1156 8.416C27.1076 8.47467 27.093 8.52133 27.0716 8.556C27.0503 8.59067 27.021 8.61467 26.9836 8.628C26.949 8.64133 26.9036 8.648 26.8476 8.648H24.4556ZM28.7881 6.992C28.9161 6.768 29.0628 6.592 29.2281 6.464C29.3961 6.336 29.5881 6.272 29.8041 6.272C29.9908 6.272 30.1428 6.316 30.2601 6.404L30.1801 7.316C30.1668 7.37467 30.1441 7.41467 30.1121 7.436C30.0828 7.45733 30.0415 7.468 29.9881 7.468C29.9668 7.468 29.9388 7.46667 29.9041 7.464C29.8695 7.46133 29.8335 7.45867 29.7961 7.456C29.7588 7.45067 29.7201 7.44667 29.6801 7.444C29.6428 7.43867 29.6081 7.436 29.5761 7.436C29.3948 7.436 29.2495 7.484 29.1401 7.58C29.0335 7.676 28.9428 7.80933 28.8681 7.98V10.5H27.6281V6.352H28.3641C28.4255 6.352 28.4761 6.35733 28.5161 6.368C28.5588 6.37867 28.5935 6.396 28.6201 6.42C28.6495 6.44133 28.6708 6.47067 28.6841 6.508C28.7001 6.54533 28.7135 6.59067 28.7241 6.644L28.7881 6.992ZM34.2828 6.352V10.5H33.5148C33.3601 10.5 33.2588 10.4307 33.2108 10.292L33.1388 10.052C33.0588 10.1293 32.9761 10.2 32.8908 10.264C32.8055 10.3253 32.7135 10.3787 32.6148 10.424C32.5188 10.4667 32.4135 10.5 32.2988 10.524C32.1868 10.5507 32.0641 10.564 31.9308 10.564C31.7041 10.564 31.5028 10.5253 31.3268 10.448C31.1535 10.368 31.0068 10.2573 30.8868 10.116C30.7668 9.97467 30.6761 9.808 30.6148 9.616C30.5535 9.424 30.5228 9.21333 30.5228 8.984V6.352H31.7628V8.984C31.7628 9.18933 31.8095 9.348 31.9028 9.46C31.9961 9.572 32.1335 9.628 32.3148 9.628C32.4508 9.628 32.5775 9.6 32.6948 9.544C32.8148 9.48533 32.9308 9.40667 33.0428 9.308V6.352H34.2828ZM36.1493 6.8C36.2293 6.72533 36.312 6.656 36.3973 6.592C36.4826 6.528 36.5733 6.47467 36.6693 6.432C36.768 6.38667 36.8733 6.352 36.9853 6.328C37.1 6.30133 37.224 6.288 37.3573 6.288C37.584 6.288 37.784 6.328 37.9573 6.408C38.1333 6.48533 38.2813 6.59467 38.4013 6.736C38.5213 6.87467 38.612 7.04133 38.6733 7.236C38.7346 7.428 38.7653 7.63733 38.7653 7.864V10.5H37.5253V7.864C37.5253 7.66133 37.4786 7.504 37.3853 7.392C37.292 7.27733 37.1546 7.22 36.9733 7.22C36.8373 7.22 36.7093 7.24933 36.5893 7.308C36.472 7.364 36.3573 7.44133 36.2453 7.54V10.5H35.0053V6.352H35.7733C35.928 6.352 36.0293 6.42133 36.0773 6.56L36.1493 6.8Z" fill="white"/>
<rect x="2.5" y="53.5" width="46" height="10" rx="1" fill="#399DFF"/>
<rect x="2.5" y="53.5" width="46" height="10" rx="1" stroke="white"/>
<path d="M8.97944 58.532H9.19544C9.39544 58.532 9.53944 58.4693 9.62744 58.344L10.9394 56.44C11.0168 56.3387 11.0994 56.2693 11.1874 56.232C11.2781 56.192 11.3901 56.172 11.5234 56.172H12.6994L10.9714 58.528C10.8488 58.6907 10.7168 58.808 10.5754 58.88C10.6768 58.9173 10.7688 58.9693 10.8514 59.036C10.9341 59.1027 11.0114 59.1893 11.0834 59.296L12.8434 62H11.6354C11.5581 62 11.4914 61.9947 11.4354 61.984C11.3821 61.9733 11.3354 61.9573 11.2954 61.936C11.2554 61.9147 11.2208 61.8893 11.1914 61.86C11.1621 61.828 11.1341 61.792 11.1074 61.752L9.78744 59.724C9.73944 59.6493 9.67811 59.5973 9.60344 59.568C9.53144 59.536 9.43277 59.52 9.30744 59.52H8.97944V62H7.62744V56.172H8.97944V58.532ZM15.3028 59.428C15.3028 59.3293 15.2895 59.2333 15.2628 59.14C15.2388 59.0467 15.1975 58.964 15.1388 58.892C15.0828 58.8173 15.0081 58.7573 14.9148 58.712C14.8215 58.6667 14.7081 58.644 14.5748 58.644C14.3401 58.644 14.1561 58.712 14.0228 58.848C13.8895 58.9813 13.8015 59.1747 13.7588 59.428H15.3028ZM13.7428 60.148C13.7828 60.4947 13.8881 60.7467 14.0588 60.904C14.2295 61.0587 14.4495 61.136 14.7188 61.136C14.8628 61.136 14.9868 61.1187 15.0908 61.084C15.1948 61.0493 15.2868 61.0107 15.3668 60.968C15.4495 60.9253 15.5241 60.8867 15.5908 60.852C15.6601 60.8173 15.7321 60.8 15.8068 60.8C15.9055 60.8 15.9801 60.836 16.0308 60.908L16.3908 61.352C16.2628 61.4987 16.1241 61.6187 15.9748 61.712C15.8281 61.8027 15.6761 61.8747 15.5188 61.928C15.3641 61.9787 15.2081 62.0133 15.0508 62.032C14.8961 62.0533 14.7481 62.064 14.6068 62.064C14.3161 62.064 14.0428 62.0173 13.7868 61.924C13.5335 61.828 13.3108 61.6867 13.1188 61.5C12.9295 61.3133 12.7788 61.0813 12.6668 60.804C12.5575 60.5267 12.5028 60.204 12.5028 59.836C12.5028 59.5587 12.5495 59.296 12.6428 59.048C12.7388 58.8 12.8748 58.5827 13.0508 58.396C13.2295 58.2093 13.4441 58.0613 13.6948 57.952C13.9481 57.8427 14.2335 57.788 14.5508 57.788C14.8255 57.788 15.0761 57.8307 15.3028 57.916C15.5321 58.0013 15.7281 58.1253 15.8908 58.288C16.0561 58.4507 16.1841 58.6507 16.2748 58.888C16.3681 59.1227 16.4148 59.3893 16.4148 59.688C16.4148 59.7813 16.4108 59.8573 16.4028 59.916C16.3948 59.9747 16.3801 60.0213 16.3588 60.056C16.3375 60.0907 16.3081 60.1147 16.2708 60.128C16.2361 60.1413 16.1908 60.148 16.1348 60.148H13.7428ZM20.7225 57.852L18.5065 63.076C18.4692 63.1587 18.4238 63.2187 18.3705 63.256C18.3172 63.296 18.2318 63.316 18.1145 63.316H17.1865L17.9865 61.636L16.3305 57.852H17.4265C17.5225 57.852 17.5958 57.8733 17.6465 57.916C17.6998 57.9587 17.7385 58.0093 17.7625 58.068L18.4425 59.856C18.5065 60.0187 18.5585 60.1853 18.5985 60.356C18.6278 60.2707 18.6572 60.1853 18.6865 60.1C18.7158 60.0147 18.7465 59.9307 18.7785 59.848L19.3945 58.068C19.4185 58.0067 19.4612 57.956 19.5225 57.916C19.5838 57.8733 19.6505 57.852 19.7225 57.852H20.7225ZM22.4512 62.064C22.2539 62.064 22.0792 62.036 21.9272 61.98C21.7779 61.9213 21.6512 61.84 21.5472 61.736C21.4459 61.6293 21.3685 61.5013 21.3152 61.352C21.2619 61.2027 21.2352 61.036 21.2352 60.852V58.708H20.8832C20.8192 58.708 20.7645 58.688 20.7192 58.648C20.6739 58.6053 20.6512 58.544 20.6512 58.464V57.98L21.3112 57.852L21.5552 56.84C21.5872 56.712 21.6779 56.648 21.8272 56.648H22.4752V57.86H23.5032V58.708H22.4752V60.768C22.4752 60.864 22.4979 60.944 22.5432 61.008C22.5912 61.0693 22.6592 61.1 22.7472 61.1C22.7925 61.1 22.8299 61.096 22.8592 61.088C22.8912 61.0773 22.9179 61.0667 22.9392 61.056C22.9632 61.0427 22.9845 61.032 23.0032 61.024C23.0245 61.0133 23.0485 61.008 23.0752 61.008C23.1125 61.008 23.1419 61.0173 23.1632 61.036C23.1872 61.052 23.2112 61.0787 23.2352 61.116L23.6112 61.704C23.4512 61.824 23.2712 61.9147 23.0712 61.976C22.8712 62.0347 22.6645 62.064 22.4512 62.064ZM25.0775 58.492C25.2055 58.268 25.3522 58.092 25.5175 57.964C25.6855 57.836 25.8775 57.772 26.0935 57.772C26.2802 57.772 26.4322 57.816 26.5495 57.904L26.4695 58.816C26.4562 58.8747 26.4335 58.9147 26.4015 58.936C26.3722 58.9573 26.3308 58.968 26.2775 58.968C26.2562 58.968 26.2282 58.9667 26.1935 58.964C26.1588 58.9613 26.1228 58.9587 26.0855 58.956C26.0482 58.9507 26.0095 58.9467 25.9695 58.944C25.9322 58.9387 25.8975 58.936 25.8655 58.936C25.6842 58.936 25.5388 58.984 25.4295 59.08C25.3228 59.176 25.2322 59.3093 25.1575 59.48V62H23.9175V57.852H24.6535C24.7148 57.852 24.7655 57.8573 24.8055 57.868C24.8482 57.8787 24.8828 57.896 24.9095 57.92C24.9388 57.9413 24.9602 57.9707 24.9735 58.008C24.9895 58.0453 25.0028 58.0907 25.0135 58.144L25.0775 58.492ZM28.1202 57.852V62H26.8802V57.852H28.1202ZM28.2482 56.716C28.2482 56.8147 28.2282 56.908 28.1882 56.996C28.1482 57.0813 28.0935 57.1573 28.0242 57.224C27.9549 57.288 27.8735 57.34 27.7802 57.38C27.6895 57.4173 27.5922 57.436 27.4882 57.436C27.3869 57.436 27.2922 57.4173 27.2042 57.38C27.1162 57.34 27.0375 57.288 26.9682 57.224C26.9015 57.1573 26.8482 57.0813 26.8082 56.996C26.7709 56.908 26.7522 56.8147 26.7522 56.716C26.7522 56.6147 26.7709 56.52 26.8082 56.432C26.8482 56.344 26.9015 56.2667 26.9682 56.2C27.0375 56.1333 27.1162 56.0813 27.2042 56.044C27.2922 56.0067 27.3869 55.988 27.4882 55.988C27.5922 55.988 27.6895 56.0067 27.7802 56.044C27.8735 56.0813 27.9549 56.1333 28.0242 56.2C28.0935 56.2667 28.1482 56.344 28.1882 56.432C28.2282 56.52 28.2482 56.6147 28.2482 56.716ZM30.445 59.708C30.6503 59.708 30.7983 59.6573 30.889 59.556C30.9823 59.452 31.029 59.3187 31.029 59.156C31.029 58.988 30.9823 58.856 30.889 58.76C30.7983 58.664 30.6503 58.616 30.445 58.616C30.2397 58.616 30.0903 58.664 29.997 58.76C29.9063 58.856 29.861 58.988 29.861 59.156C29.861 59.236 29.8717 59.3093 29.893 59.376C29.917 59.4427 29.953 59.5013 30.001 59.552C30.049 59.6 30.109 59.6387 30.181 59.668C30.2557 59.6947 30.3437 59.708 30.445 59.708ZM31.405 62.152C31.405 62.0533 31.361 61.9827 31.273 61.94C31.185 61.8947 31.0703 61.8627 30.929 61.844C30.7877 61.8253 30.629 61.8147 30.453 61.812C30.2797 61.8067 30.1063 61.796 29.933 61.78C29.8557 61.8333 29.7917 61.8933 29.741 61.96C29.693 62.024 29.669 62.0973 29.669 62.18C29.669 62.2387 29.681 62.292 29.705 62.34C29.7317 62.388 29.777 62.4293 29.841 62.464C29.905 62.4987 29.9903 62.5253 30.097 62.544C30.2063 62.5653 30.3437 62.576 30.509 62.576C30.6877 62.576 30.8343 62.5653 30.949 62.544C31.0637 62.5227 31.1543 62.4933 31.221 62.456C31.2903 62.4187 31.3383 62.3733 31.365 62.32C31.3917 62.2693 31.405 62.2133 31.405 62.152ZM32.629 57.98V58.432C32.629 58.5013 32.609 58.556 32.569 58.596C32.5317 58.636 32.4663 58.6667 32.373 58.688L32.073 58.756C32.089 58.8147 32.101 58.8747 32.109 58.936C32.1197 58.9973 32.125 59.0613 32.125 59.128C32.125 59.336 32.081 59.5227 31.993 59.688C31.9077 59.8533 31.789 59.9947 31.637 60.112C31.4877 60.2267 31.3103 60.316 31.105 60.38C30.8997 60.4413 30.6797 60.472 30.445 60.472C30.381 60.472 30.3183 60.4707 30.257 60.468C30.1957 60.4627 30.1357 60.4547 30.077 60.444C29.9863 60.5 29.941 60.5627 29.941 60.632C29.941 60.7013 29.9783 60.752 30.053 60.784C30.1277 60.8133 30.2263 60.8347 30.349 60.848C30.4717 60.8587 30.6103 60.8667 30.765 60.872C30.9223 60.8747 31.0823 60.884 31.245 60.9C31.4077 60.9133 31.5663 60.9373 31.721 60.972C31.8783 61.0067 32.0183 61.0627 32.141 61.14C32.2637 61.2173 32.3623 61.3213 32.437 61.452C32.5117 61.58 32.549 61.744 32.549 61.944C32.549 62.1307 32.5037 62.3133 32.413 62.492C32.3223 62.6707 32.189 62.8293 32.013 62.968C31.837 63.1067 31.621 63.2173 31.365 63.3C31.109 63.3853 30.8157 63.428 30.485 63.428C30.1597 63.428 29.8783 63.3973 29.641 63.336C29.4063 63.2747 29.2103 63.1933 29.053 63.092C28.8983 62.9933 28.7837 62.8787 28.709 62.748C28.6343 62.6173 28.597 62.4813 28.597 62.34C28.597 62.156 28.6503 62.0027 28.757 61.88C28.8637 61.7573 29.013 61.6587 29.205 61.584C29.1037 61.5227 29.0237 61.444 28.965 61.348C28.9063 61.252 28.877 61.128 28.877 60.976C28.877 60.9147 28.8877 60.8507 28.909 60.784C28.9303 60.7147 28.9637 60.648 29.009 60.584C29.057 60.5173 29.1157 60.4547 29.185 60.396C29.2543 60.3373 29.337 60.2853 29.433 60.24C29.217 60.1253 29.0463 59.9747 28.921 59.788C28.7957 59.5987 28.733 59.3787 28.733 59.128C28.733 58.92 28.777 58.7333 28.865 58.568C28.953 58.4 29.073 58.2587 29.225 58.144C29.3797 58.0267 29.561 57.9373 29.769 57.876C29.977 57.812 30.2023 57.78 30.445 57.78C30.797 57.78 31.109 57.8467 31.381 57.98H32.629ZM34.6063 59.708C34.8116 59.708 34.9596 59.6573 35.0503 59.556C35.1436 59.452 35.1903 59.3187 35.1903 59.156C35.1903 58.988 35.1436 58.856 35.0503 58.76C34.9596 58.664 34.8116 58.616 34.6063 58.616C34.4009 58.616 34.2516 58.664 34.1583 58.76C34.0676 58.856 34.0223 58.988 34.0223 59.156C34.0223 59.236 34.0329 59.3093 34.0543 59.376C34.0783 59.4427 34.1143 59.5013 34.1623 59.552C34.2103 59.6 34.2703 59.6387 34.3423 59.668C34.4169 59.6947 34.5049 59.708 34.6063 59.708ZM35.5663 62.152C35.5663 62.0533 35.5223 61.9827 35.4343 61.94C35.3463 61.8947 35.2316 61.8627 35.0903 61.844C34.9489 61.8253 34.7903 61.8147 34.6143 61.812C34.4409 61.8067 34.2676 61.796 34.0943 61.78C34.0169 61.8333 33.9529 61.8933 33.9023 61.96C33.8543 62.024 33.8303 62.0973 33.8303 62.18C33.8303 62.2387 33.8423 62.292 33.8663 62.34C33.8929 62.388 33.9383 62.4293 34.0023 62.464C34.0663 62.4987 34.1516 62.5253 34.2583 62.544C34.3676 62.5653 34.5049 62.576 34.6703 62.576C34.8489 62.576 34.9956 62.5653 35.1103 62.544C35.2249 62.5227 35.3156 62.4933 35.3823 62.456C35.4516 62.4187 35.4996 62.3733 35.5263 62.32C35.5529 62.2693 35.5663 62.2133 35.5663 62.152ZM36.7903 57.98V58.432C36.7903 58.5013 36.7703 58.556 36.7303 58.596C36.6929 58.636 36.6276 58.6667 36.5343 58.688L36.2343 58.756C36.2503 58.8147 36.2623 58.8747 36.2703 58.936C36.2809 58.9973 36.2863 59.0613 36.2863 59.128C36.2863 59.336 36.2423 59.5227 36.1543 59.688C36.0689 59.8533 35.9503 59.9947 35.7983 60.112C35.6489 60.2267 35.4716 60.316 35.2663 60.38C35.0609 60.4413 34.8409 60.472 34.6063 60.472C34.5423 60.472 34.4796 60.4707 34.4183 60.468C34.3569 60.4627 34.2969 60.4547 34.2383 60.444C34.1476 60.5 34.1023 60.5627 34.1023 60.632C34.1023 60.7013 34.1396 60.752 34.2143 60.784C34.2889 60.8133 34.3876 60.8347 34.5103 60.848C34.6329 60.8587 34.7716 60.8667 34.9263 60.872C35.0836 60.8747 35.2436 60.884 35.4063 60.9C35.5689 60.9133 35.7276 60.9373 35.8823 60.972C36.0396 61.0067 36.1796 61.0627 36.3023 61.14C36.4249 61.2173 36.5236 61.3213 36.5983 61.452C36.6729 61.58 36.7103 61.744 36.7103 61.944C36.7103 62.1307 36.6649 62.3133 36.5743 62.492C36.4836 62.6707 36.3503 62.8293 36.1743 62.968C35.9983 63.1067 35.7823 63.2173 35.5263 63.3C35.2703 63.3853 34.9769 63.428 34.6463 63.428C34.3209 63.428 34.0396 63.3973 33.8023 63.336C33.5676 63.2747 33.3716 63.1933 33.2143 63.092C33.0596 62.9933 32.9449 62.8787 32.8703 62.748C32.7956 62.6173 32.7583 62.4813 32.7583 62.34C32.7583 62.156 32.8116 62.0027 32.9183 61.88C33.0249 61.7573 33.1743 61.6587 33.3663 61.584C33.2649 61.5227 33.1849 61.444 33.1263 61.348C33.0676 61.252 33.0383 61.128 33.0383 60.976C33.0383 60.9147 33.0489 60.8507 33.0703 60.784C33.0916 60.7147 33.1249 60.648 33.1703 60.584C33.2183 60.5173 33.2769 60.4547 33.3463 60.396C33.4156 60.3373 33.4983 60.2853 33.5943 60.24C33.3783 60.1253 33.2076 59.9747 33.0823 59.788C32.9569 59.5987 32.8943 59.3787 32.8943 59.128C32.8943 58.92 32.9383 58.7333 33.0263 58.568C33.1143 58.4 33.2343 58.2587 33.3863 58.144C33.5409 58.0267 33.7223 57.9373 33.9303 57.876C34.1383 57.812 34.3636 57.78 34.6063 57.78C34.9583 57.78 35.2703 57.8467 35.5423 57.98H36.7903ZM39.6894 59.428C39.6894 59.3293 39.676 59.2333 39.6494 59.14C39.6254 59.0467 39.584 58.964 39.5254 58.892C39.4694 58.8173 39.3947 58.7573 39.3014 58.712C39.208 58.6667 39.0947 58.644 38.9614 58.644C38.7267 58.644 38.5427 58.712 38.4094 58.848C38.276 58.9813 38.188 59.1747 38.1454 59.428H39.6894ZM38.1294 60.148C38.1694 60.4947 38.2747 60.7467 38.4454 60.904C38.616 61.0587 38.836 61.136 39.1054 61.136C39.2494 61.136 39.3734 61.1187 39.4774 61.084C39.5814 61.0493 39.6734 61.0107 39.7534 60.968C39.836 60.9253 39.9107 60.8867 39.9774 60.852C40.0467 60.8173 40.1187 60.8 40.1934 60.8C40.292 60.8 40.3667 60.836 40.4174 60.908L40.7774 61.352C40.6494 61.4987 40.5107 61.6187 40.3614 61.712C40.2147 61.8027 40.0627 61.8747 39.9054 61.928C39.7507 61.9787 39.5947 62.0133 39.4374 62.032C39.2827 62.0533 39.1347 62.064 38.9934 62.064C38.7027 62.064 38.4294 62.0173 38.1734 61.924C37.92 61.828 37.6974 61.6867 37.5054 61.5C37.316 61.3133 37.1654 61.0813 37.0534 60.804C36.944 60.5267 36.8894 60.204 36.8894 59.836C36.8894 59.5587 36.936 59.296 37.0294 59.048C37.1254 58.8 37.2614 58.5827 37.4374 58.396C37.616 58.2093 37.8307 58.0613 38.0814 57.952C38.3347 57.8427 38.62 57.788 38.9374 57.788C39.212 57.788 39.4627 57.8307 39.6894 57.916C39.9187 58.0013 40.1147 58.1253 40.2774 58.288C40.4427 58.4507 40.5707 58.6507 40.6614 58.888C40.7547 59.1227 40.8014 59.3893 40.8014 59.688C40.8014 59.7813 40.7974 59.8573 40.7894 59.916C40.7814 59.9747 40.7667 60.0213 40.7454 60.056C40.724 60.0907 40.6947 60.1147 40.6574 60.128C40.6227 60.1413 40.5774 60.148 40.5214 60.148H38.1294ZM42.4619 58.492C42.5899 58.268 42.7365 58.092 42.9019 57.964C43.0699 57.836 43.2619 57.772 43.4779 57.772C43.6645 57.772 43.8165 57.816 43.9339 57.904L43.8539 58.816C43.8405 58.8747 43.8179 58.9147 43.7859 58.936C43.7565 58.9573 43.7152 58.968 43.6619 58.968C43.6405 58.968 43.6125 58.9667 43.5779 58.964C43.5432 58.9613 43.5072 58.9587 43.4699 58.956C43.4325 58.9507 43.3939 58.9467 43.3539 58.944C43.3165 58.9387 43.2819 58.936 43.2499 58.936C43.0685 58.936 42.9232 58.984 42.8139 59.08C42.7072 59.176 42.6165 59.3093 42.5419 59.48V62H41.3019V57.852H42.0379C42.0992 57.852 42.1499 57.8573 42.1899 57.868C42.2325 57.8787 42.2672 57.896 42.2939 57.92C42.3232 57.9413 42.3445 57.9707 42.3579 58.008C42.3739 58.0453 42.3872 58.0907 42.3979 58.144L42.4619 58.492Z" fill="white"/>
<rect x="2.5" y="105" width="46" height="10" rx="1" fill="#399DFF"/>
<rect x="2.5" y="105" width="46" height="10" rx="1" stroke="white"/>
<path d="M13.2913 110.412C13.4753 110.412 13.6313 110.389 13.7593 110.344C13.8899 110.296 13.9966 110.231 14.0793 110.148C14.1619 110.065 14.2219 109.969 14.2593 109.86C14.2966 109.748 14.3153 109.628 14.3153 109.5C14.3153 109.244 14.2313 109.044 14.0633 108.9C13.8979 108.756 13.6406 108.684 13.2913 108.684H12.7473V110.412H13.2913ZM16.1633 113.5H14.9393C14.7126 113.5 14.5499 113.415 14.4513 113.244L13.4833 111.552C13.4379 111.48 13.3873 111.428 13.3313 111.396C13.2753 111.361 13.1953 111.344 13.0913 111.344H12.7473V113.5H11.3953V107.672H13.2913C13.7126 107.672 14.0713 107.716 14.3673 107.804C14.6659 107.889 14.9086 108.009 15.0953 108.164C15.2846 108.319 15.4219 108.501 15.5073 108.712C15.5926 108.923 15.6353 109.152 15.6353 109.4C15.6353 109.589 15.6099 109.768 15.5593 109.936C15.5086 110.104 15.4339 110.26 15.3353 110.404C15.2366 110.545 15.1139 110.672 14.9673 110.784C14.8233 110.896 14.6566 110.988 14.4673 111.06C14.5553 111.105 14.6379 111.163 14.7153 111.232C14.7926 111.299 14.8619 111.379 14.9233 111.472L16.1633 113.5ZM18.4588 111.812C18.2108 111.823 18.0068 111.844 17.8468 111.876C17.6868 111.908 17.5601 111.948 17.4668 111.996C17.3734 112.044 17.3081 112.099 17.2708 112.16C17.2361 112.221 17.2188 112.288 17.2188 112.36C17.2188 112.501 17.2574 112.601 17.3348 112.66C17.4121 112.716 17.5254 112.744 17.6748 112.744C17.8348 112.744 17.9748 112.716 18.0948 112.66C18.2148 112.604 18.3361 112.513 18.4588 112.388V111.812ZM16.2268 109.928C16.4774 109.707 16.7548 109.543 17.0588 109.436C17.3654 109.327 17.6934 109.272 18.0428 109.272C18.2934 109.272 18.5188 109.313 18.7188 109.396C18.9214 109.476 19.0921 109.589 19.2308 109.736C19.3721 109.88 19.4801 110.052 19.5548 110.252C19.6294 110.452 19.6668 110.671 19.6668 110.908V113.5H19.0988C18.9814 113.5 18.8921 113.484 18.8308 113.452C18.7721 113.42 18.7228 113.353 18.6828 113.252L18.5948 113.024C18.4908 113.112 18.3908 113.189 18.2948 113.256C18.1988 113.323 18.0988 113.38 17.9948 113.428C17.8934 113.473 17.7841 113.507 17.6668 113.528C17.5521 113.552 17.4241 113.564 17.2828 113.564C17.0934 113.564 16.9214 113.54 16.7668 113.492C16.6121 113.441 16.4801 113.368 16.3708 113.272C16.2641 113.176 16.1814 113.057 16.1228 112.916C16.0641 112.772 16.0348 112.607 16.0348 112.42C16.0348 112.271 16.0721 112.12 16.1468 111.968C16.2214 111.813 16.3508 111.673 16.5348 111.548C16.7188 111.42 16.9668 111.313 17.2788 111.228C17.5908 111.143 17.9841 111.095 18.4588 111.084V110.908C18.4588 110.665 18.4081 110.491 18.3068 110.384C18.2081 110.275 18.0668 110.22 17.8828 110.22C17.7361 110.22 17.6161 110.236 17.5228 110.268C17.4294 110.3 17.3454 110.336 17.2708 110.376C17.1988 110.416 17.1281 110.452 17.0588 110.484C16.9894 110.516 16.9068 110.532 16.8108 110.532C16.7254 110.532 16.6534 110.511 16.5948 110.468C16.5361 110.425 16.4881 110.375 16.4508 110.316L16.2268 109.928ZM21.4834 109.8C21.5634 109.725 21.646 109.656 21.7314 109.592C21.8167 109.528 21.9074 109.475 22.0034 109.432C22.102 109.387 22.2074 109.352 22.3194 109.328C22.434 109.301 22.558 109.288 22.6914 109.288C22.918 109.288 23.118 109.328 23.2914 109.408C23.4674 109.485 23.6154 109.595 23.7354 109.736C23.8554 109.875 23.946 110.041 24.0074 110.236C24.0687 110.428 24.0994 110.637 24.0994 110.864V113.5H22.8594V110.864C22.8594 110.661 22.8127 110.504 22.7194 110.392C22.626 110.277 22.4887 110.22 22.3074 110.22C22.1714 110.22 22.0434 110.249 21.9234 110.308C21.806 110.364 21.6914 110.441 21.5794 110.54V113.5H20.3394V109.352H21.1074C21.262 109.352 21.3634 109.421 21.4114 109.56L21.4834 109.8ZM27.2979 110.464C27.2045 110.36 27.1032 110.288 26.9939 110.248C26.8845 110.205 26.7699 110.184 26.6499 110.184C26.5352 110.184 26.4299 110.207 26.3339 110.252C26.2379 110.297 26.1539 110.371 26.0819 110.472C26.0125 110.571 25.9579 110.7 25.9179 110.86C25.8779 111.02 25.8579 111.213 25.8579 111.44C25.8579 111.659 25.8739 111.843 25.9059 111.992C25.9379 112.141 25.9819 112.263 26.0379 112.356C26.0965 112.447 26.1659 112.512 26.2459 112.552C26.3259 112.592 26.4152 112.612 26.5139 112.612C26.6045 112.612 26.6859 112.604 26.7579 112.588C26.8325 112.569 26.9005 112.544 26.9619 112.512C27.0232 112.48 27.0805 112.44 27.1339 112.392C27.1899 112.341 27.2445 112.284 27.2979 112.22V110.464ZM28.5379 107.512V113.5H27.7699C27.6152 113.5 27.5139 113.431 27.4659 113.292L27.3699 112.976C27.2872 113.064 27.2005 113.144 27.1099 113.216C27.0192 113.288 26.9205 113.351 26.8139 113.404C26.7099 113.455 26.5965 113.493 26.4739 113.52C26.3539 113.549 26.2232 113.564 26.0819 113.564C25.8659 113.564 25.6659 113.516 25.4819 113.42C25.2979 113.324 25.1392 113.185 25.0059 113.004C24.8725 112.823 24.7672 112.601 24.6899 112.34C24.6152 112.076 24.5779 111.776 24.5779 111.44C24.5779 111.131 24.6205 110.844 24.7059 110.58C24.7912 110.313 24.9112 110.084 25.0659 109.892C25.2232 109.697 25.4112 109.545 25.6299 109.436C25.8485 109.327 26.0899 109.272 26.3539 109.272C26.5699 109.272 26.7512 109.303 26.8979 109.364C27.0445 109.425 27.1779 109.508 27.2979 109.612V107.512H28.5379ZM31.1676 109.288C31.4823 109.288 31.769 109.337 32.0276 109.436C32.2863 109.535 32.5076 109.676 32.6916 109.86C32.8783 110.044 33.0223 110.268 33.1236 110.532C33.2276 110.793 33.2796 111.088 33.2796 111.416C33.2796 111.747 33.2276 112.045 33.1236 112.312C33.0223 112.576 32.8783 112.801 32.6916 112.988C32.5076 113.172 32.2863 113.315 32.0276 113.416C31.769 113.515 31.4823 113.564 31.1676 113.564C30.8503 113.564 30.561 113.515 30.2996 113.416C30.041 113.315 29.817 113.172 29.6276 112.988C29.441 112.801 29.2956 112.576 29.1916 112.312C29.0903 112.045 29.0396 111.747 29.0396 111.416C29.0396 111.088 29.0903 110.793 29.1916 110.532C29.2956 110.268 29.441 110.044 29.6276 109.86C29.817 109.676 30.041 109.535 30.2996 109.436C30.561 109.337 30.8503 109.288 31.1676 109.288ZM31.1676 112.644C31.453 112.644 31.6623 112.544 31.7956 112.344C31.9316 112.141 31.9996 111.835 31.9996 111.424C31.9996 111.013 31.9316 110.708 31.7956 110.508C31.6623 110.308 31.453 110.208 31.1676 110.208C30.8743 110.208 30.6596 110.308 30.5236 110.508C30.3876 110.708 30.3196 111.013 30.3196 111.424C30.3196 111.835 30.3876 112.141 30.5236 112.344C30.6596 112.544 30.8743 112.644 31.1676 112.644ZM33.7841 113.5V109.352H34.5521C34.7067 109.352 34.8081 109.421 34.8561 109.56L34.9241 109.784C34.9934 109.712 35.0654 109.647 35.1401 109.588C35.2147 109.527 35.2947 109.475 35.3801 109.432C35.4681 109.387 35.5614 109.352 35.6601 109.328C35.7614 109.301 35.8721 109.288 35.9921 109.288C36.2427 109.288 36.4494 109.353 36.6121 109.484C36.7774 109.612 36.9027 109.784 36.9881 110C37.0574 109.872 37.1414 109.763 37.2401 109.672C37.3414 109.581 37.4494 109.508 37.5641 109.452C37.6814 109.396 37.8041 109.355 37.9321 109.328C38.0627 109.301 38.1921 109.288 38.3201 109.288C38.5574 109.288 38.7681 109.324 38.9521 109.396C39.1361 109.465 39.2894 109.568 39.4121 109.704C39.5374 109.837 39.6321 110.003 39.6961 110.2C39.7601 110.395 39.7921 110.616 39.7921 110.864V113.5H38.5521V110.864C38.5521 110.435 38.3681 110.22 38.0001 110.22C37.8321 110.22 37.6921 110.276 37.5801 110.388C37.4707 110.497 37.4161 110.656 37.4161 110.864V113.5H36.1761V110.864C36.1761 110.627 36.1294 110.46 36.0361 110.364C35.9427 110.268 35.8054 110.22 35.6241 110.22C35.5121 110.22 35.4054 110.245 35.3041 110.296C35.2054 110.347 35.1121 110.415 35.0241 110.5V113.5H33.7841Z" fill="white"/>
</svg>
