<svg width="134" height="208" viewBox="0 0 134 208" fill="none" xmlns="http://www.w3.org/2000/svg">
<path fill-rule="evenodd" clip-rule="evenodd" d="M28 188V190L24 187.5L28 185V187H39V188H28Z" fill="#FF9A11" fill-opacity="0.5"/>
<path fill-rule="evenodd" clip-rule="evenodd" d="M58 188V190L54 187.5L58 185V187H69V188H58Z" fill="#FF9A11" fill-opacity="0.5"/>
<path d="M32 188H31V195.863H32V188Z" fill="#FF9A11" fill-opacity="0.5"/>
<path d="M77 195.85H31V197.012H77V195.85Z" fill="#FF9A11" fill-opacity="0.5"/>
<path d="M77 194.01H76V195.895H77V194.01Z" fill="#FF9A11" fill-opacity="0.5"/>
<rect x="99.5115" y="200" width="30" height="6" rx="1" fill="#399DFF"/>
<path d="M106.144 204.716V205.5H103.239V204.716H104.219V202.143C104.219 202.078 104.22 202.013 104.222 201.947C104.225 201.88 104.228 201.812 104.233 201.744L103.652 202.227C103.6 202.267 103.549 202.292 103.498 202.301C103.449 202.308 103.402 202.308 103.358 202.301C103.313 202.292 103.274 202.276 103.239 202.255C103.204 202.232 103.178 202.209 103.162 202.185L102.819 201.73L104.408 200.397H105.304V204.716H106.144ZM115.897 204.52C116.014 204.52 116.106 204.553 116.174 204.618C116.241 204.681 116.275 204.765 116.275 204.87V205.5H112.691V205.15C112.691 205.082 112.705 205.01 112.733 204.933C112.761 204.856 112.81 204.786 112.88 204.723L114.35 203.242C114.476 203.116 114.586 202.996 114.679 202.882C114.773 202.768 114.85 202.656 114.91 202.546C114.971 202.434 115.016 202.323 115.047 202.213C115.077 202.101 115.092 201.984 115.092 201.86C115.092 201.657 115.043 201.502 114.945 201.394C114.85 201.285 114.703 201.23 114.504 201.23C114.343 201.23 114.207 201.273 114.095 201.359C113.985 201.443 113.909 201.548 113.867 201.674C113.818 201.803 113.754 201.888 113.675 201.93C113.595 201.972 113.482 201.981 113.335 201.958L112.761 201.856C112.799 201.602 112.87 201.38 112.975 201.191C113.082 201.002 113.214 200.845 113.37 200.719C113.529 200.593 113.71 200.5 113.913 200.439C114.116 200.376 114.334 200.344 114.567 200.344C114.819 200.344 115.046 200.382 115.246 200.456C115.449 200.529 115.622 200.63 115.764 200.761C115.907 200.892 116.015 201.048 116.09 201.23C116.167 201.41 116.205 201.608 116.205 201.825C116.205 202.012 116.178 202.184 116.125 202.343C116.073 202.502 116.002 202.653 115.911 202.798C115.82 202.94 115.714 203.079 115.593 203.214C115.474 203.347 115.347 203.483 115.211 203.62L114.214 204.642C114.342 204.603 114.469 204.572 114.595 204.551C114.721 204.53 114.838 204.52 114.945 204.52H115.897ZM122.805 201.856C122.843 201.602 122.914 201.38 123.019 201.191C123.126 201.002 123.258 200.845 123.414 200.719C123.573 200.593 123.754 200.5 123.957 200.439C124.16 200.376 124.378 200.344 124.611 200.344C124.863 200.344 125.087 200.381 125.283 200.453C125.479 200.523 125.645 200.619 125.78 200.74C125.916 200.861 126.018 201.002 126.088 201.163C126.158 201.322 126.193 201.49 126.193 201.667C126.193 201.828 126.177 201.971 126.144 202.094C126.112 202.216 126.063 202.322 125.997 202.413C125.934 202.502 125.855 202.577 125.759 202.64C125.666 202.701 125.559 202.752 125.437 202.794C126.002 202.993 126.284 203.378 126.284 203.949C126.284 204.22 126.235 204.456 126.137 204.656C126.039 204.857 125.907 205.024 125.742 205.157C125.578 205.29 125.388 205.39 125.171 205.458C124.954 205.523 124.728 205.556 124.492 205.556C124.25 205.556 124.034 205.53 123.845 205.479C123.656 205.425 123.488 205.344 123.341 205.234C123.194 205.122 123.064 204.98 122.952 204.807C122.843 204.634 122.747 204.429 122.665 204.191L123.148 203.995C123.274 203.946 123.391 203.933 123.498 203.956C123.606 203.98 123.683 204.033 123.729 204.117C123.834 204.311 123.945 204.452 124.062 204.541C124.181 204.627 124.32 204.67 124.478 204.67C124.6 204.67 124.705 204.651 124.793 204.611C124.884 204.569 124.959 204.516 125.017 204.453C125.078 204.388 125.123 204.315 125.154 204.233C125.184 204.151 125.199 204.068 125.199 203.984C125.199 203.875 125.191 203.777 125.175 203.69C125.161 203.602 125.119 203.526 125.049 203.463C124.979 203.4 124.873 203.352 124.73 203.319C124.59 203.284 124.394 203.267 124.142 203.267V202.518C124.355 202.518 124.526 202.502 124.657 202.469C124.787 202.436 124.888 202.392 124.958 202.336C125.03 202.278 125.078 202.208 125.101 202.126C125.125 202.044 125.136 201.954 125.136 201.856C125.136 201.656 125.087 201.502 124.989 201.394C124.894 201.285 124.747 201.23 124.548 201.23C124.387 201.23 124.251 201.273 124.139 201.359C124.029 201.443 123.953 201.548 123.911 201.674C123.862 201.803 123.798 201.888 123.719 201.93C123.639 201.972 123.526 201.981 123.379 201.958L122.805 201.856Z" fill="white"/>
<rect x="99.5115" y="200" width="30" height="6" rx="1" stroke="#399DFF"/>
<path d="M110.761 203L107.949 205.143L107.949 200.857L110.761 203Z" fill="white"/>
<path d="M118.261 203L121.074 200.857L121.074 205.143L118.261 203Z" fill="white"/>
<path fill-rule="evenodd" clip-rule="evenodd" d="M28 136V138L24 135.5L28 133V135H39V136H28Z" fill="#FF9A11" fill-opacity="0.5"/>
<path fill-rule="evenodd" clip-rule="evenodd" d="M58 136V138L54 135.5L58 133V135H69V136H58Z" fill="#FF9A11" fill-opacity="0.5"/>
<rect x="67.5115" y="148" width="30" height="6" rx="1" fill="#399DFF"/>
<path d="M74.1437 152.716V153.5H71.2387V152.716H72.2187V150.143C72.2187 150.078 72.2199 150.013 72.2222 149.947C72.2245 149.88 72.228 149.812 72.2327 149.744L71.6517 150.227C71.6004 150.267 71.549 150.292 71.4977 150.301C71.4487 150.308 71.402 150.308 71.3577 150.301C71.3134 150.292 71.2737 150.276 71.2387 150.255C71.2037 150.232 71.178 150.209 71.1617 150.185L70.8187 149.73L72.4077 148.397H73.3037V152.716H74.1437ZM83.8972 152.52C84.0139 152.52 84.106 152.553 84.1737 152.618C84.2414 152.681 84.2752 152.765 84.2752 152.87V153.5H80.6912V153.15C80.6912 153.082 80.7052 153.01 80.7332 152.933C80.7612 152.856 80.8102 152.786 80.8802 152.723L82.3502 151.242C82.4762 151.116 82.5859 150.996 82.6792 150.882C82.7725 150.768 82.8495 150.656 82.9102 150.546C82.9709 150.434 83.0164 150.323 83.0467 150.213C83.077 150.101 83.0922 149.984 83.0922 149.86C83.0922 149.657 83.0432 149.502 82.9452 149.394C82.8495 149.285 82.7025 149.23 82.5042 149.23C82.3432 149.23 82.2067 149.273 82.0947 149.359C81.985 149.443 81.9092 149.548 81.8672 149.674C81.8182 149.803 81.754 149.888 81.6747 149.93C81.5954 149.972 81.4822 149.981 81.3352 149.958L80.7612 149.856C80.7985 149.602 80.8697 149.38 80.9747 149.191C81.082 149.002 81.2139 148.845 81.3702 148.719C81.5289 148.593 81.7097 148.5 81.9127 148.439C82.1157 148.376 82.3339 148.344 82.5672 148.344C82.8192 148.344 83.0455 148.382 83.2462 148.456C83.4492 148.529 83.6219 148.63 83.7642 148.761C83.9065 148.892 84.015 149.048 84.0897 149.23C84.1667 149.41 84.2052 149.608 84.2052 149.825C84.2052 150.012 84.1784 150.184 84.1247 150.343C84.0734 150.502 84.0022 150.653 83.9112 150.798C83.8202 150.94 83.714 151.079 83.5927 151.214C83.4737 151.347 83.3465 151.483 83.2112 151.62L82.2137 152.642C82.342 152.603 82.4692 152.572 82.5952 152.551C82.7212 152.53 82.8379 152.52 82.9452 152.52H83.8972ZM90.8052 149.856C90.8426 149.602 90.9137 149.38 91.0187 149.191C91.1261 149.002 91.2579 148.845 91.4142 148.719C91.5729 148.593 91.7537 148.5 91.9567 148.439C92.1597 148.376 92.3779 148.344 92.6112 148.344C92.8632 148.344 93.0872 148.381 93.2832 148.453C93.4792 148.523 93.6449 148.619 93.7802 148.74C93.9156 148.861 94.0182 149.002 94.0882 149.163C94.1582 149.322 94.1932 149.49 94.1932 149.667C94.1932 149.828 94.1769 149.971 94.1442 150.094C94.1116 150.216 94.0626 150.322 93.9972 150.413C93.9342 150.502 93.8549 150.577 93.7592 150.64C93.6659 150.701 93.5586 150.752 93.4372 150.794C94.0019 150.993 94.2842 151.378 94.2842 151.949C94.2842 152.22 94.2352 152.456 94.1372 152.656C94.0392 152.857 93.9074 153.024 93.7417 153.157C93.5784 153.29 93.3882 153.39 93.1712 153.458C92.9542 153.523 92.7279 153.556 92.4922 153.556C92.2496 153.556 92.0337 153.53 91.8447 153.479C91.6557 153.425 91.4877 153.344 91.3407 153.234C91.1937 153.122 91.0642 152.98 90.9522 152.807C90.8426 152.634 90.7469 152.429 90.6652 152.191L91.1482 151.995C91.2742 151.946 91.3909 151.933 91.4982 151.956C91.6056 151.98 91.6826 152.033 91.7292 152.117C91.8342 152.311 91.9451 152.452 92.0617 152.541C92.1807 152.627 92.3196 152.67 92.4782 152.67C92.5996 152.67 92.7046 152.651 92.7932 152.611C92.8842 152.569 92.9589 152.516 93.0172 152.453C93.0779 152.388 93.1234 152.315 93.1537 152.233C93.1841 152.151 93.1992 152.068 93.1992 151.984C93.1992 151.875 93.1911 151.777 93.1747 151.69C93.1607 151.602 93.1187 151.526 93.0487 151.463C92.9787 151.4 92.8726 151.352 92.7302 151.319C92.5902 151.284 92.3942 151.267 92.1422 151.267V150.518C92.3546 150.518 92.5261 150.502 92.6567 150.469C92.7874 150.436 92.8877 150.392 92.9577 150.336C93.0301 150.278 93.0779 150.208 93.1012 150.126C93.1246 150.044 93.1362 149.954 93.1362 149.856C93.1362 149.656 93.0872 149.502 92.9892 149.394C92.8936 149.285 92.7466 149.23 92.5482 149.23C92.3872 149.23 92.2507 149.273 92.1387 149.359C92.0291 149.443 91.9532 149.548 91.9112 149.674C91.8622 149.803 91.7981 149.888 91.7187 149.93C91.6394 149.972 91.5262 149.981 91.3792 149.958L90.8052 149.856Z" fill="white"/>
<rect x="67.5115" y="148" width="30" height="6" rx="1" stroke="#399DFF"/>
<path d="M78.7615 151L75.949 153.143L75.949 148.857L78.7615 151Z" fill="white"/>
<path d="M89.074 151L86.2615 153.143L86.2615 148.857L89.074 151Z" fill="white"/>
<path fill-rule="evenodd" clip-rule="evenodd" d="M28 84V86L24 83.5L28 81V83H39V84H28Z" fill="#FF9A11" fill-opacity="0.5"/>
<rect x="35.5115" y="96" width="30" height="6" rx="1" fill="#399DFF"/>
<path d="M47.9093 100.716V101.5H45.0043V100.716H45.9843V98.1435C45.9843 98.0782 45.9854 98.0128 45.9878 97.9475C45.9901 97.8798 45.9936 97.8122 45.9983 97.7445L45.4173 98.2275C45.3659 98.2672 45.3146 98.2917 45.2633 98.301C45.2143 98.308 45.1676 98.308 45.1233 98.301C45.0789 98.2917 45.0393 98.2765 45.0043 98.2555C44.9693 98.2322 44.9436 98.2088 44.9273 98.1855L44.5843 97.7305L46.1733 96.397H47.0693V100.716H47.9093ZM56.1477 100.52C56.2643 100.52 56.3565 100.553 56.4242 100.618C56.4918 100.681 56.5257 100.765 56.5257 100.87V101.5H52.9417V101.15C52.9417 101.082 52.9557 101.01 52.9837 100.933C53.0117 100.856 53.0607 100.786 53.1307 100.723L54.6007 99.2425C54.7267 99.1165 54.8363 98.9963 54.9297 98.882C55.023 98.7677 55.1 98.6557 55.1607 98.546C55.2213 98.434 55.2668 98.3232 55.2972 98.2135C55.3275 98.1015 55.3427 97.9837 55.3427 97.86C55.3427 97.657 55.2937 97.5018 55.1957 97.3945C55.1 97.2848 54.953 97.23 54.7547 97.23C54.5937 97.23 54.4572 97.2732 54.3452 97.3595C54.2355 97.4435 54.1597 97.5485 54.1177 97.6745C54.0687 97.8028 54.0045 97.888 53.9252 97.93C53.8458 97.972 53.7327 97.9813 53.5857 97.958L53.0117 97.8565C53.049 97.6022 53.1202 97.3805 53.2252 97.1915C53.3325 97.0025 53.4643 96.845 53.6207 96.719C53.7793 96.593 53.9602 96.4997 54.1632 96.439C54.3662 96.376 54.5843 96.3445 54.8177 96.3445C55.0697 96.3445 55.296 96.3818 55.4967 96.4565C55.6997 96.5288 55.8723 96.6303 56.0147 96.761C56.157 96.8917 56.2655 97.048 56.3402 97.23C56.4172 97.4097 56.4557 97.608 56.4557 97.825C56.4557 98.0117 56.4288 98.1843 56.3752 98.343C56.3238 98.5017 56.2527 98.6533 56.1617 98.798C56.0707 98.9403 55.9645 99.0792 55.8432 99.2145C55.7242 99.3475 55.597 99.4828 55.4617 99.6205L54.4642 100.642C54.5925 100.603 54.7197 100.572 54.8457 100.551C54.9717 100.53 55.0883 100.52 55.1957 100.52H56.1477Z" fill="white"/>
<rect x="35.5115" y="96" width="30" height="6" rx="1" stroke="#399DFF"/>
<path d="M52.3865 99L49.574 101.143L49.574 96.8571L52.3865 99Z" fill="white"/>
<rect x="3.5" y="44" width="30" height="6" rx="1" fill="#399DFF"/>
<path d="M11.9319 44.4005V49.5H11.3159C11.2249 49.5 11.1479 49.486 11.0849 49.458C11.0242 49.4277 10.9635 49.3763 10.9029 49.304L8.49837 46.2625C8.5077 46.3535 8.51353 46.4422 8.51587 46.5285C8.52053 46.6125 8.52287 46.6918 8.52287 46.7665V49.5H7.47987V44.4005H8.10287C8.1542 44.4005 8.19737 44.4028 8.23237 44.4075C8.26737 44.4122 8.29887 44.4215 8.32687 44.4355C8.35487 44.4472 8.3817 44.4647 8.40737 44.488C8.43303 44.5113 8.4622 44.5428 8.49487 44.5825L10.9204 47.645C10.9087 47.547 10.9005 47.4525 10.8959 47.3615C10.8912 47.2682 10.8889 47.1807 10.8889 47.099V44.4005H11.9319ZM17.8213 46.9485C17.8213 47.3172 17.7571 47.6602 17.6288 47.9775C17.5028 48.2948 17.3243 48.5713 17.0933 48.807C16.8623 49.0403 16.5834 49.2235 16.2568 49.3565C15.9324 49.4895 15.5719 49.556 15.1753 49.556C14.7786 49.556 14.4169 49.4895 14.0903 49.3565C13.7636 49.2235 13.4836 49.0403 13.2503 48.807C13.0193 48.5713 12.8396 48.2948 12.7113 47.9775C12.5853 47.6602 12.5223 47.3172 12.5223 46.9485C12.5223 46.5798 12.5853 46.2368 12.7113 45.9195C12.8396 45.6022 13.0193 45.3268 13.2503 45.0935C13.4836 44.8602 13.7636 44.677 14.0903 44.544C14.4169 44.411 14.7786 44.3445 15.1753 44.3445C15.5719 44.3445 15.9324 44.4122 16.2568 44.5475C16.5834 44.6805 16.8623 44.8637 17.0933 45.097C17.3243 45.3303 17.5028 45.6057 17.6288 45.923C17.7571 46.2403 17.8213 46.5822 17.8213 46.9485ZM16.6103 46.9485C16.6103 46.6965 16.5776 46.4702 16.5123 46.2695C16.4469 46.0665 16.3524 45.895 16.2288 45.755C16.1074 45.615 15.9581 45.5077 15.7808 45.433C15.6034 45.3583 15.4016 45.321 15.1753 45.321C14.9466 45.321 14.7424 45.3583 14.5628 45.433C14.3854 45.5077 14.2349 45.615 14.1113 45.755C13.9899 45.895 13.8966 46.0665 13.8313 46.2695C13.7659 46.4702 13.7333 46.6965 13.7333 46.9485C13.7333 47.2028 13.7659 47.4315 13.8313 47.6345C13.8966 47.8352 13.9899 48.0055 14.1113 48.1455C14.2349 48.2855 14.3854 48.3928 14.5628 48.4675C14.7424 48.5398 14.9466 48.576 15.1753 48.576C15.4016 48.576 15.6034 48.5398 15.7808 48.4675C15.9581 48.3928 16.1074 48.2855 16.2288 48.1455C16.3524 48.0055 16.4469 47.8352 16.5123 47.6345C16.5776 47.4315 16.6103 47.2028 16.6103 46.9485ZM21.1176 45.3105V46.602H22.8606V47.5155H21.1176V49.5H19.9276V44.4005H23.2106V45.3105H21.1176ZM29.5204 44.4005V49.5H28.4774V46.567C28.4774 46.4993 28.4786 46.4258 28.4809 46.3465C28.4856 46.2672 28.4926 46.1867 28.5019 46.105L27.1474 48.7265C27.1054 48.8082 27.0482 48.87 26.9759 48.912C26.9059 48.954 26.8254 48.975 26.7344 48.975H26.5734C26.4824 48.975 26.4007 48.954 26.3284 48.912C26.2584 48.87 26.2024 48.8082 26.1604 48.7265L24.8059 46.098C24.8129 46.182 24.8187 46.2648 24.8234 46.3465C24.8281 46.4258 24.8304 46.4993 24.8304 46.567V49.5H23.7874V44.4005H24.6904C24.7417 44.4005 24.7861 44.4017 24.8234 44.404C24.8631 44.4063 24.8981 44.4133 24.9284 44.425C24.9587 44.4367 24.9856 44.4553 25.0089 44.481C25.0346 44.5043 25.0591 44.5382 25.0824 44.5825L26.3949 47.169C26.4416 47.2577 26.4859 47.3498 26.5279 47.4455C26.5722 47.5412 26.6142 47.6392 26.6539 47.7395C26.6936 47.6368 26.7344 47.5365 26.7764 47.4385C26.8207 47.3405 26.8674 47.2472 26.9164 47.1585L28.2254 44.5825C28.2487 44.5382 28.2721 44.5043 28.2954 44.481C28.3211 44.4553 28.3491 44.4367 28.3794 44.425C28.4097 44.4133 28.4436 44.4063 28.4809 44.404C28.5206 44.4017 28.5661 44.4005 28.6174 44.4005H29.5204Z" fill="white"/>
<rect x="3.5" y="44" width="30" height="6" rx="1" stroke="#399DFF"/>
</svg>
