<?xml version="1.0" encoding="utf-8"?>
<svg width="94px" height="36px" viewBox="0 0 94 36" version="1.1" xmlns:xlink="http://www.w3.org/1999/xlink" xmlns="http://www.w3.org/2000/svg">
  <desc>Created with Lunacy</desc>
  <defs>
    <rect width="94" height="36" id="artboard_1" />
    <clipPath id="clip_1">
      <use xlink:href="#artboard_1" clip-rule="evenodd" />
    </clipPath>
  </defs>
  <g id="hoverOn00305" clip-path="url(#clip_1)">
    <path d="M0.999 0L27.001 0Q27.0994 0 27.1959 0.0191955Q27.2924 0.038391 27.3833 0.0760443Q27.4742 0.113698 27.556 0.168362Q27.6378 0.223026 27.7074 0.2926Q27.777 0.362175 27.8316 0.443985Q27.8863 0.525796 27.924 0.616699Q27.9616 0.707602 27.9808 0.804105Q28 0.900607 28 0.999L28 7.001Q28 7.09939 27.9808 7.19589Q27.9616 7.2924 27.924 7.3833Q27.8863 7.4742 27.8316 7.55601Q27.777 7.63782 27.7074 7.7074Q27.6378 7.77697 27.556 7.83164Q27.4742 7.8863 27.3833 7.92395Q27.2924 7.96161 27.1959 7.9808Q27.0994 8 27.001 8L0.999 8Q0.900607 8 0.804105 7.9808Q0.707602 7.96161 0.616699 7.92395Q0.525796 7.8863 0.443985 7.83164Q0.362175 7.77697 0.2926 7.7074Q0.223026 7.63782 0.168362 7.55601Q0.113698 7.4742 0.0760443 7.3833Q0.038391 7.2924 0.0191955 7.19589Q0 7.09939 0 7.001L0 0.999Q0 0.900607 0.0191955 0.804105Q0.038391 0.707602 0.0760443 0.616699Q0.113698 0.525796 0.168362 0.443985Q0.223026 0.362175 0.2926 0.2926Q0.362175 0.223026 0.443985 0.168362Q0.525796 0.113698 0.616699 0.0760443Q0.707602 0.038391 0.804105 0.0191955Q0.900607 0 0.999 0L0.999 0Z" transform="translate(64 26)" id="Selection" fill="#FF9000" fill-rule="evenodd" stroke="#FFFFFF" stroke-width="1" />
    <path d="M0.999 0L27.001 0Q27.0994 0 27.1959 0.0191955Q27.2924 0.038391 27.3833 0.0760443Q27.4742 0.113698 27.556 0.168362Q27.6378 0.223026 27.7074 0.2926Q27.777 0.362175 27.8316 0.443985Q27.8863 0.525796 27.924 0.616699Q27.9616 0.707602 27.9808 0.804105Q28 0.900607 28 0.999L28 7.001Q28 7.09939 27.9808 7.19589Q27.9616 7.2924 27.924 7.3833Q27.8863 7.4742 27.8316 7.55601Q27.777 7.63782 27.7074 7.7074Q27.6378 7.77697 27.556 7.83164Q27.4742 7.8863 27.3833 7.92395Q27.2924 7.96161 27.1959 7.9808Q27.0994 8 27.001 8L0.999 8Q0.900607 8 0.804105 7.9808Q0.707602 7.96161 0.616699 7.92395Q0.525796 7.8863 0.443985 7.83164Q0.362175 7.77697 0.2926 7.7074Q0.223026 7.63782 0.168362 7.55601Q0.113698 7.4742 0.0760443 7.3833Q0.038391 7.2924 0.0191955 7.19589Q0 7.09939 0 7.001L0 0.999Q0 0.900607 0.0191955 0.804105Q0.038391 0.707602 0.0760443 0.616699Q0.113698 0.525796 0.168362 0.443985Q0.223026 0.362175 0.2926 0.2926Q0.362175 0.223026 0.443985 0.168362Q0.525796 0.113698 0.616699 0.0760443Q0.707602 0.038391 0.804105 0.0191955Q0.900607 0 0.999 0L0.999 0Z" transform="translate(33 14)" id="Selection" fill="#FF9000" fill-rule="evenodd" stroke="#FFFFFF" stroke-width="1" />
    <path d="M0.999 0L27.001 0Q27.0994 0 27.1959 0.0191955Q27.2924 0.038391 27.3833 0.0760443Q27.4742 0.113698 27.556 0.168362Q27.6378 0.223026 27.7074 0.2926Q27.777 0.362175 27.8316 0.443985Q27.8863 0.525796 27.924 0.616699Q27.9616 0.707602 27.9808 0.804105Q28 0.900607 28 0.999L28 7.001Q28 7.09939 27.9808 7.19589Q27.9616 7.2924 27.924 7.3833Q27.8863 7.4742 27.8316 7.55601Q27.777 7.63782 27.7074 7.7074Q27.6378 7.77697 27.556 7.83164Q27.4742 7.8863 27.3833 7.92395Q27.2924 7.96161 27.1959 7.9808Q27.0994 8 27.001 8L0.999 8Q0.900607 8 0.804105 7.9808Q0.707602 7.96161 0.616699 7.92395Q0.525796 7.8863 0.443985 7.83164Q0.362175 7.77697 0.2926 7.7074Q0.223026 7.63782 0.168362 7.55601Q0.113698 7.4742 0.0760443 7.3833Q0.038391 7.2924 0.0191955 7.19589Q0 7.09939 0 7.001L0 0.999Q0 0.900607 0.0191955 0.804105Q0.038391 0.707602 0.0760443 0.616699Q0.113698 0.525796 0.168362 0.443985Q0.223026 0.362175 0.2926 0.2926Q0.362175 0.223026 0.443985 0.168362Q0.525796 0.113698 0.616699 0.0760443Q0.707602 0.038391 0.804105 0.0191955Q0.900607 0 0.999 0L0.999 0Z" transform="translate(2 2)" id="Selection" fill="#FF9000" fill-rule="evenodd" stroke="#FFFFFF" stroke-width="1" />
    <g id="Gate" fill="#151515" transform="translate(67.81 24.5)">
      <path d="M6.075 8.1145L6.075 5.5495L4.0005 5.5495L4.0005 6.148Q4.0005 6.238 4.059 6.29425Q4.1175 6.3505 4.221 6.3505L5.1255 6.3505L5.1255 7.6375Q4.824 7.7905 4.51125 7.876Q4.1985 7.9615 3.798 7.9615Q3.2625 7.9615 2.82825 7.795Q2.394 7.6285 2.088 7.31125Q1.782 6.994 1.6155 6.53725Q1.449 6.0805 1.449 5.5Q1.449 4.951 1.6065 4.5055Q1.764 4.06 2.0565 3.74725Q2.349 3.4345 2.76075 3.26575Q3.1725 3.097 3.6855 3.097Q4.023 3.097 4.2705 3.14425Q4.518 3.1915 4.707 3.26575Q4.896 3.34 5.04225 3.4255Q5.1885 3.511 5.319 3.5875Q5.4495 3.6685 5.562 3.6415Q5.6745 3.6145 5.7465 3.502L6.048 3.0205Q5.8455 2.8315 5.6025 2.6785Q5.3595 2.5255 5.0715 2.4175Q4.7835 2.3095 4.44825 2.24875Q4.113 2.188 3.7215 2.188Q2.952 2.188 2.3355 2.42875Q1.719 2.6695 1.2825 3.10825Q0.846 3.547 0.612 4.15675Q0.378 4.7665 0.378 5.5Q0.378 6.229 0.621 6.8365Q0.864 7.444 1.314 7.88275Q1.764 8.3215 2.40075 8.56675Q3.0375 8.812 3.825 8.812Q5.1075 8.812 6.075 8.1145ZM13.6355 8.812Q13.064 8.812 12.7558 8.49025Q12.4475 8.1685 12.4475 7.5835L12.4475 4.9105L11.9435 4.9105Q11.8625 4.9105 11.804 4.85875Q11.7455 4.807 11.7455 4.7035L11.7455 4.312L12.488 4.204L12.6995 2.8765Q12.722 2.8 12.776 2.75275Q12.83 2.7055 12.92 2.7055L13.415 2.7055L13.415 4.213L14.6885 4.213L14.6885 4.9105L13.415 4.9105L13.415 7.516Q13.415 7.7635 13.5365 7.894Q13.658 8.0245 13.8605 8.0245Q13.973 8.0245 14.054 7.99525Q14.135 7.966 14.1935 7.93225Q14.252 7.8985 14.2948 7.86925Q14.3375 7.84 14.378 7.84Q14.459 7.84 14.5085 7.93L14.7965 8.4025Q14.5715 8.6005 14.2655 8.70625Q13.9595 8.812 13.6355 8.812ZM9.133 4.0645Q8.0575 4.0645 7.279 4.789L7.4545 5.104Q7.4995 5.1805 7.56925 5.23225Q7.639 5.284 7.738 5.284Q7.8595 5.284 7.9675 5.21425Q8.0755 5.1445 8.215 5.0635Q8.3545 4.9825 8.5435 4.91275Q8.7325 4.843 9.0115 4.843Q9.421 4.843 9.6325 5.086Q9.844 5.329 9.844 5.824L9.844 6.13Q9.061 6.148 8.52775 6.2785Q7.9945 6.409 7.66825 6.60925Q7.342 6.8095 7.20025 7.0615Q7.0585 7.3135 7.0585 7.579Q7.0585 7.8895 7.15975 8.119Q7.261 8.3485 7.4365 8.50375Q7.612 8.659 7.85275 8.7355Q8.0935 8.812 8.3725 8.812Q8.6245 8.812 8.83375 8.76925Q9.043 8.7265 9.22525 8.641Q9.4075 8.5555 9.5785 8.43175Q9.7495 8.308 9.925 8.1505L10.0195 8.524Q10.069 8.6545 10.141 8.69725Q10.213 8.74 10.3525 8.74L10.7845 8.74L10.7845 5.824Q10.7845 5.4325 10.6742 5.11075Q10.564 4.789 10.3548 4.555Q10.1455 4.321 9.83725 4.19275Q9.529 4.0645 9.133 4.0645ZM16.527 7.19875Q16.4235 6.913 16.4055 6.5215L19.353 6.5215Q19.4835 6.5215 19.533 6.445Q19.5825 6.3685 19.5825 6.1435Q19.5825 5.653 19.4363 5.26825Q19.29 4.8835 19.029 4.618Q18.768 4.3525 18.408 4.21525Q18.048 4.078 17.625 4.078Q17.1165 4.078 16.7138 4.25575Q16.311 4.4335 16.0298 4.7395Q15.7485 5.0455 15.5978 5.4595Q15.447 5.8735 15.447 6.3505Q15.447 6.949 15.6158 7.408Q15.7845 7.867 16.0837 8.1775Q16.383 8.488 16.7903 8.64775Q17.1975 8.8075 17.6745 8.8075Q17.9175 8.8075 18.174 8.76925Q18.4305 8.731 18.6735 8.64325Q18.9165 8.5555 19.1325 8.416Q19.3485 8.2765 19.5195 8.074L19.245 7.7185Q19.182 7.6285 19.065 7.6285Q18.975 7.6285 18.867 7.69375Q18.759 7.759 18.606 7.83775Q18.453 7.9165 18.246 7.98175Q18.039 8.047 17.7555 8.047Q17.4585 8.047 17.2178 7.95475Q16.977 7.8625 16.8038 7.6735Q16.6305 7.4845 16.527 7.19875ZM18.6443 5.47525Q18.714 5.6845 18.714 5.9275L16.4325 5.9275Q16.5135 5.383 16.815 5.0815Q17.1165 4.78 17.643 4.78Q17.904 4.78 18.1042 4.86775Q18.3045 4.9555 18.4395 5.11075Q18.5745 5.266 18.6443 5.47525ZM8.971 6.81625Q9.3265 6.751 9.844 6.733L9.844 7.5835Q9.5875 7.8535 9.31525 7.99525Q9.043 8.137 8.665 8.137Q8.5165 8.137 8.39275 8.10325Q8.269 8.0695 8.17675 7.99525Q8.0845 7.921 8.03275 7.80625Q7.981 7.6915 7.981 7.5295Q7.981 7.363 8.07775 7.2235Q8.1745 7.084 8.395 6.98275Q8.6155 6.8815 8.971 6.81625Z" />
    </g>
    <g id="On" fill="#151515" transform="translate(40.309998 12.5)">
      <path d="M6.624 6.8275Q6.858 6.22 6.858 5.5Q6.858 4.78 6.624 4.1725Q6.39 3.565 5.96475 3.124Q5.5395 2.683 4.94325 2.4355Q4.347 2.188 3.618 2.188Q2.8935 2.188 2.29725 2.4355Q1.701 2.683 1.2735 3.124Q0.846 3.565 0.612 4.1725Q0.378 4.78 0.378 5.5Q0.378 6.22 0.612 6.8275Q0.846 7.435 1.2735 7.87375Q1.701 8.3125 2.29725 8.56Q2.8935 8.8075 3.618 8.8075Q4.347 8.8075 4.94325 8.56Q5.5395 8.3125 5.96475 7.87375Q6.39 7.435 6.624 6.8275ZM5.63175 4.4965Q5.7825 4.942 5.7825 5.5Q5.7825 6.0625 5.63175 6.508Q5.481 6.9535 5.19975 7.26175Q4.9185 7.57 4.518 7.73425Q4.1175 7.8985 3.618 7.8985Q3.123 7.8985 2.7225 7.73425Q2.322 7.57 2.0385 7.26175Q1.755 6.9535 1.602 6.508Q1.449 6.0625 1.449 5.5Q1.449 4.942 1.602 4.4965Q1.755 4.051 2.0385 3.7405Q2.322 3.43 2.7225 3.2635Q3.123 3.097 3.618 3.097Q4.1175 3.097 4.518 3.2635Q4.9185 3.43 5.19975 3.7405Q5.481 4.051 5.63175 4.4965ZM9.29275 4.48075Q9.133 4.6045 8.9845 4.7575L8.917 4.3345Q8.863 4.15 8.665 4.15L8.08 4.15L8.08 8.74L9.0475 8.74L9.0475 5.3965Q9.2905 5.14 9.56725 4.9915Q9.844 4.843 10.168 4.843Q10.6045 4.843 10.8183 5.0995Q11.032 5.356 11.032 5.8195L11.032 8.74L11.995 8.74L11.995 5.8195Q11.995 5.4325 11.896 5.11075Q11.797 4.789 11.6012 4.5595Q11.4055 4.33 11.1198 4.204Q10.834 4.078 10.456 4.078Q10.2175 4.078 10.015 4.1275Q9.8125 4.177 9.6325 4.267Q9.4525 4.357 9.29275 4.48075Z" />
    </g>
    <g id="Off" fill="#151515" transform="translate(8.809998 0.5)">
      <path d="M8.3905 8.74L8.3905 4.9195L7.9405 4.8565Q7.828 4.834 7.75825 4.7755Q7.6885 4.717 7.6885 4.609L7.6885 4.213L8.3905 4.213L8.3905 3.826Q8.3905 3.4345 8.50525 3.124Q8.62 2.8135 8.83375 2.5975Q9.0475 2.3815 9.3535 2.26675Q9.6595 2.152 10.042 2.152Q10.1995 2.152 10.3413 2.1745Q10.483 2.197 10.618 2.242L10.6 2.728Q10.591 2.8495 10.4808 2.872Q10.3705 2.8945 10.204 2.8945Q10.0015 2.8945 9.8395 2.94175Q9.6775 2.989 9.56275 3.1015Q9.448 3.214 9.38725 3.3985Q9.3265 3.583 9.3265 3.8575L9.3265 4.213L10.582 4.213L10.582 4.9105L9.358 4.9105L9.358 8.74L8.3905 8.74ZM11.831 4.9195L11.831 8.74L12.7985 8.74L12.7985 4.9105L14.0225 4.9105L14.0225 4.213L12.767 4.213L12.767 3.8575Q12.767 3.583 12.8278 3.3985Q12.8885 3.214 13.0033 3.1015Q13.118 2.989 13.28 2.94175Q13.442 2.8945 13.6445 2.8945Q13.811 2.8945 13.9213 2.872Q14.0315 2.8495 14.0405 2.728L14.0585 2.242Q13.9235 2.197 13.7817 2.1745Q13.64 2.152 13.4825 2.152Q13.1 2.152 12.794 2.26675Q12.488 2.3815 12.2743 2.5975Q12.0605 2.8135 11.9458 3.124Q11.831 3.4345 11.831 3.826L11.831 4.213L11.129 4.213L11.129 4.609Q11.129 4.717 11.1987 4.7755Q11.2685 4.834 11.381 4.8565L11.831 4.9195ZM6.858 5.5Q6.858 6.22 6.624 6.8275Q6.39 7.435 5.96475 7.87375Q5.5395 8.3125 4.94325 8.56Q4.347 8.8075 3.618 8.8075Q2.8935 8.8075 2.29725 8.56Q1.701 8.3125 1.2735 7.87375Q0.846 7.435 0.612 6.8275Q0.378 6.22 0.378 5.5Q0.378 4.78 0.612 4.1725Q0.846 3.565 1.2735 3.124Q1.701 2.683 2.29725 2.4355Q2.8935 2.188 3.618 2.188Q4.347 2.188 4.94325 2.4355Q5.5395 2.683 5.96475 3.124Q6.39 3.565 6.624 4.1725Q6.858 4.78 6.858 5.5ZM5.7825 5.5Q5.7825 4.942 5.63175 4.4965Q5.481 4.051 5.19975 3.7405Q4.9185 3.43 4.518 3.2635Q4.1175 3.097 3.618 3.097Q3.123 3.097 2.7225 3.2635Q2.322 3.43 2.0385 3.7405Q1.755 4.051 1.602 4.4965Q1.449 4.942 1.449 5.5Q1.449 6.0625 1.602 6.508Q1.755 6.9535 2.0385 7.26175Q2.322 7.57 2.7225 7.73425Q3.123 7.8985 3.618 7.8985Q4.1175 7.8985 4.518 7.73425Q4.9185 7.57 5.19975 7.26175Q5.481 6.9535 5.63175 6.508Q5.7825 6.0625 5.7825 5.5Z" />
    </g>
  </g>
</svg>