<?xml version="1.0" encoding="utf-8"?>
<svg width="13px" height="11px" viewbox="0 0 13 11" version="1.1" xmlns:xlink="http://www.w3.org/1999/xlink" xmlns="http://www.w3.org/2000/svg">
  <defs>
    <rect width="13" height="11" id="artboard_1" />
    <clipPath id="clip_1">
      <use xlink:href="#artboard_1" clip-rule="evenodd" />
    </clipPath>
  </defs>
  <g id="hover00178-Dark" clip-path="url(#clip_1)">
    <g id="LFO-Presets" transform="translate(2 2)">
      <path d="M0.999 0L8.001 0Q8.09939 0 8.1959 0.0191955Q8.2924 0.038391 8.3833 0.0760443Q8.4742 0.113698 8.55602 0.168362Q8.63783 0.223026 8.7074 0.2926Q8.77697 0.362175 8.83164 0.443985Q8.8863 0.525796 8.92395 0.616699Q8.96161 0.707602 8.9808 0.804105Q9 0.900607 9 0.999L9 6.001Q9 6.09939 8.9808 6.19589Q8.96161 6.2924 8.92395 6.3833Q8.8863 6.4742 8.83164 6.55601Q8.77697 6.63782 8.7074 6.7074Q8.63783 6.77697 8.55601 6.83164Q8.4742 6.8863 8.3833 6.92395Q8.2924 6.96161 8.1959 6.9808Q8.09939 7 8.001 7L0.999 7Q0.900607 7 0.804105 6.9808Q0.707602 6.96161 0.616699 6.92395Q0.525796 6.8863 0.443985 6.83164Q0.362175 6.77697 0.2926 6.7074Q0.223026 6.63782 0.168362 6.55601Q0.113698 6.4742 0.0760443 6.3833Q0.038391 6.2924 0.0191955 6.19589Q0 6.09939 0 6.001L0 0.999Q0 0.900607 0.0191955 0.804105Q0.038391 0.707602 0.0760443 0.616699Q0.113698 0.525796 0.168362 0.443985Q0.223026 0.362175 0.2926 0.2926Q0.362175 0.223026 0.443985 0.168362Q0.525796 0.113698 0.616699 0.0760443Q0.707602 0.038391 0.804105 0.0191955Q0.900607 0 0.999 0Z" id="Fill" fill="#FF9000" fill-rule="evenodd" stroke="none" />
      <path d="M2.00001 0L6.97904 0.0115654L7.00001 1L2.02098 0.988435L2.00001 0L2.00001 0ZM0 3.05176e-05L1 3.05176e-05L1 1.00003L0 1.00003L0 3.05176e-05L0 3.05176e-05ZM6.97904 2.01157L2.00001 2L2.02099 2.98843L7.00001 3L6.97904 2.01157L6.97904 2.01157ZM0 2.00003L1 2.00003L1 3.00003L0 3.00003L0 2.00003L0 2.00003ZM2.00001 4L6.97904 4.01157L7.00001 5L2.02099 4.98843L2.00001 4L2.00001 4ZM1 4.00003L0 4.00003L0 5.00003L1 5.00003L1 4.00003L1 4.00003Z" transform="translate(1 0.9999695)" id="Hamburger" fill="#000000" fill-rule="evenodd" stroke="none" />
    </g>
  </g>
</svg>