<?xml version="1.0" encoding="utf-8"?>
<svg width="44px" height="14px" viewBox="0 0 44 14" version="1.1" xmlns:xlink="http://www.w3.org/1999/xlink" xmlns="http://www.w3.org/2000/svg">
  <desc>Created with Lunacy</desc>
  <defs>
    <rect width="44" height="14" id="artboard_1" />
    <clipPath id="clip_1">
      <use xlink:href="#artboard_1" clip-rule="evenodd" />
    </clipPath>
  </defs>
  <g id="hover00126" clip-path="url(#clip_1)">
    <path d="M0 2L0 1C0 0.723858 0.0976311 0.488155 0.292893 0.292893C0.488155 0.0976311 0.723858 0 1 0L41 0C41.2761 0 41.5118 0.0976311 41.7071 0.292893C41.9024 0.488155 42 0.723858 42 1L42 5C42 5.27614 41.9024 5.51184 41.7071 5.70711C41.5118 5.90237 41.2761 6 41 6L1 6C0.723858 6 0.488155 5.90237 0.292893 5.70711C0.0976311 5.51184 0 5.27614 0 5L0 2Z" transform="translate(0.4999587 7.499983)" id="On-BG" fill="#FF9000" fill-rule="evenodd" stroke="#FFFFFF" stroke-width="1" />
    <path d="M1.183 5.1555L1.183 3.269L1.484 3.269C1.575 3.269 1.64558 3.283 1.69575 3.311C1.74592 3.339 1.78967 3.38567 1.827 3.451L1.827 3.451L2.674 4.9315C2.76033 5.08083 2.90267 5.1555 3.101 5.1555L3.101 5.1555L4.172 5.1555L3.087 3.381C3.03567 3.297 2.97558 3.22583 2.90675 3.1675C2.83792 3.10917 2.76383 3.06017 2.6845 3.0205C2.85017 2.9575 2.99658 2.877 3.12375 2.779C3.25092 2.681 3.35825 2.56958 3.44575 2.44475C3.53325 2.31992 3.59917 2.184 3.6435 2.037C3.68783 1.89 3.71 1.73367 3.71 1.568C3.71 1.351 3.67267 1.15033 3.598 0.966C3.52333 0.781666 3.40375 0.621833 3.23925 0.4865C3.07475 0.351166 2.86242 0.245583 2.60225 0.16975C2.34208 0.0939164 2.02767 0.0559998 1.659 0.0559998L1.659 0.0559998L0 0.0559998L0 5.1555L1.183 5.1555L1.183 5.1555ZM1.659 2.4535L1.183 2.4535L1.183 0.9415L1.659 0.9415C1.96467 0.9415 2.19042 1.0045 2.33625 1.1305C2.48208 1.2565 2.555 1.4315 2.555 1.6555C2.555 1.7675 2.53867 1.87192 2.506 1.96875C2.47333 2.06558 2.42083 2.15017 2.3485 2.2225C2.27617 2.29483 2.18342 2.35142 2.07025 2.39225C1.95708 2.43308 1.82 2.4535 1.659 2.4535L1.659 2.4535L1.659 2.4535ZM7.838 5.1555L7.838 4.2455L5.745 4.2455L5.745 3.031L7.348 3.031L7.348 2.156L5.745 2.156L5.745 0.966L7.838 0.966L7.838 0.0559998L4.555 0.0559998L4.555 5.1555L7.838 5.1555L7.838 5.1555ZM10.678 5.1555L10.678 0.994L12.113 0.994L12.113 0.0559998L8.06 0.0559998L8.06 0.994L9.495 0.994L9.495 5.1555L10.678 5.1555L10.678 5.1555ZM13.686 5.1555L13.686 3.269L13.987 3.269C14.078 3.269 14.1486 3.283 14.1987 3.311C14.2489 3.339 14.2927 3.38567 14.33 3.451L14.33 3.451L15.177 4.9315C15.2633 5.08083 15.4057 5.1555 15.604 5.1555L15.604 5.1555L16.675 5.1555L15.59 3.381C15.5387 3.297 15.4786 3.22583 15.4097 3.1675C15.3409 3.10917 15.2668 3.06017 15.1875 3.0205C15.3532 2.9575 15.4996 2.877 15.6267 2.779C15.7539 2.681 15.8612 2.56958 15.9487 2.44475C16.0362 2.31992 16.1022 2.184 16.1465 2.037C16.1908 1.89 16.213 1.73367 16.213 1.568C16.213 1.351 16.1757 1.15033 16.101 0.966C16.0263 0.781666 15.9067 0.621833 15.7423 0.4865C15.5777 0.351166 15.3654 0.245583 15.1052 0.16975C14.8451 0.0939164 14.5307 0.0559998 14.162 0.0559998L14.162 0.0559998L12.503 0.0559998L12.503 5.1555L13.686 5.1555L13.686 5.1555ZM14.162 2.4535L13.686 2.4535L13.686 0.9415L14.162 0.9415C14.4677 0.9415 14.6934 1.0045 14.8393 1.1305C14.9851 1.2565 15.058 1.4315 15.058 1.6555C15.058 1.7675 15.0417 1.87192 15.009 1.96875C14.9763 2.06558 14.9238 2.15017 14.8515 2.2225C14.7792 2.29483 14.6864 2.35142 14.5732 2.39225C14.4601 2.43308 14.323 2.4535 14.162 2.4535L14.162 2.4535L14.162 2.4535ZM18.353 5.1555L18.353 0.0559998L17.163 0.0559998L17.163 5.1555L18.353 5.1555L18.353 5.1555ZM21.508 5.2115C21.7157 5.2115 21.9099 5.201 22.0907 5.18C22.2716 5.159 22.4419 5.12633 22.6017 5.082C22.7616 5.03767 22.9121 4.98108 23.0532 4.91225C23.1944 4.84342 23.3303 4.76117 23.461 4.6655L23.461 4.6655L23.461 2.513L21.648 2.513L21.648 3.164C21.648 3.22467 21.669 3.27483 21.711 3.3145C21.753 3.35417 21.8113 3.374 21.886 3.374L21.886 3.374L22.39 3.374L22.39 4.1475C22.278 4.19417 22.159 4.2315 22.033 4.2595C21.907 4.2875 21.7623 4.3015 21.599 4.3015C21.3843 4.3015 21.1866 4.26358 21.0058 4.18775C20.8249 4.11192 20.6686 4.00167 20.5368 3.857C20.4049 3.71233 20.3017 3.535 20.227 3.325C20.1523 3.115 20.115 2.87467 20.115 2.604C20.115 2.359 20.1488 2.13675 20.2165 1.93725C20.2842 1.73775 20.3804 1.56683 20.5052 1.4245C20.6301 1.28217 20.7812 1.17192 20.9585 1.09375C21.1358 1.01558 21.3353 0.9765 21.557 0.9765C21.676 0.9765 21.7833 0.982334 21.879 0.994C21.9747 1.00567 22.0657 1.02433 22.152 1.05C22.2383 1.07567 22.3229 1.10892 22.4058 1.14975C22.4886 1.19058 22.5767 1.239 22.67 1.295C22.7447 1.34167 22.817 1.365 22.887 1.365C22.9407 1.365 22.9902 1.351 23.0357 1.323C23.0812 1.295 23.1203 1.2565 23.153 1.2075L23.153 1.2075L23.496 0.686C23.3933 0.588 23.2767 0.497 23.146 0.413C23.0153 0.329 22.8713 0.256667 22.7138 0.196C22.5562 0.135333 22.3842 0.0875001 22.1975 0.0524998C22.0108 0.0174999 21.8113 0 21.599 0C21.1883 0 20.8167 0.0641665 20.4842 0.1925C20.1518 0.320833 19.8682 0.5005 19.6337 0.7315C19.3993 0.9625 19.219 1.23725 19.093 1.55575C18.967 1.87425 18.904 2.22367 18.904 2.604C18.904 2.97733 18.9699 3.32325 19.1017 3.64175C19.2336 3.96025 19.4156 4.23558 19.6478 4.46775C19.8799 4.69992 20.1547 4.88192 20.472 5.01375C20.7893 5.14558 21.1347 5.2115 21.508 5.2115L21.508 5.2115ZM26.392 5.2115C26.5997 5.2115 26.7939 5.201 26.9748 5.18C27.1556 5.159 27.3259 5.12633 27.4858 5.082C27.6456 5.03767 27.7961 4.98108 27.9373 4.91225C28.0784 4.84342 28.2143 4.76117 28.345 4.6655L28.345 4.6655L28.345 2.513L26.532 2.513L26.532 3.164C26.532 3.22467 26.553 3.27483 26.595 3.3145C26.637 3.35417 26.6953 3.374 26.77 3.374L26.77 3.374L27.274 3.374L27.274 4.1475C27.162 4.19417 27.043 4.2315 26.917 4.2595C26.791 4.2875 26.6463 4.3015 26.483 4.3015C26.2683 4.3015 26.0706 4.26358 25.8897 4.18775C25.7089 4.11192 25.5526 4.00167 25.4207 3.857C25.2889 3.71233 25.1857 3.535 25.111 3.325C25.0363 3.115 24.999 2.87467 24.999 2.604C24.999 2.359 25.0328 2.13675 25.1005 1.93725C25.1682 1.73775 25.2644 1.56683 25.3892 1.4245C25.5141 1.28217 25.6652 1.17192 25.8425 1.09375C26.0198 1.01558 26.2193 0.9765 26.441 0.9765C26.56 0.9765 26.6673 0.982334 26.763 0.994C26.8587 1.00567 26.9497 1.02433 27.036 1.05C27.1223 1.07567 27.2069 1.10892 27.2897 1.14975C27.3726 1.19058 27.4607 1.239 27.554 1.295C27.6287 1.34167 27.701 1.365 27.771 1.365C27.8247 1.365 27.8743 1.351 27.9198 1.323C27.9653 1.295 28.0043 1.2565 28.037 1.2075L28.037 1.2075L28.38 0.686C28.2773 0.588 28.1607 0.497 28.03 0.413C27.8993 0.329 27.7552 0.256667 27.5977 0.196C27.4403 0.135333 27.2682 0.0875001 27.0815 0.0524998C26.8948 0.0174999 26.6953 0 26.483 0C26.0723 0 25.7008 0.0641665 25.3682 0.1925C25.0357 0.320833 24.7523 0.5005 24.5177 0.7315C24.2833 0.9625 24.103 1.23725 23.977 1.55575C23.851 1.87425 23.788 2.22367 23.788 2.604C23.788 2.97733 23.8539 3.32325 23.9858 3.64175C24.1176 3.96025 24.2996 4.23558 24.5317 4.46775C24.7639 4.69992 25.0387 4.88192 25.356 5.01375C25.6733 5.14558 26.0187 5.2115 26.392 5.2115L26.392 5.2115ZM32.249 5.1555L32.249 4.2455L30.156 4.2455L30.156 3.031L31.759 3.031L31.759 2.156L30.156 2.156L30.156 0.966L32.249 0.966L32.249 0.0559998L28.966 0.0559998L28.966 5.1555L32.249 5.1555L32.249 5.1555ZM34.004 5.1555L34.004 3.269L34.305 3.269C34.396 3.269 34.4666 3.283 34.5167 3.311C34.5669 3.339 34.6107 3.38567 34.648 3.451L34.648 3.451L35.495 4.9315C35.5813 5.08083 35.7237 5.1555 35.922 5.1555L35.922 5.1555L36.993 5.1555L35.908 3.381C35.8567 3.297 35.7966 3.22583 35.7277 3.1675C35.6589 3.10917 35.5848 3.06017 35.5055 3.0205C35.6712 2.9575 35.8176 2.877 35.9447 2.779C36.0719 2.681 36.1792 2.56958 36.2667 2.44475C36.3542 2.31992 36.4202 2.184 36.4645 2.037C36.5088 1.89 36.531 1.73367 36.531 1.568C36.531 1.351 36.4937 1.15033 36.419 0.966C36.3443 0.781666 36.2247 0.621833 36.0602 0.4865C35.8957 0.351166 35.6834 0.245583 35.4232 0.16975C35.1631 0.0939164 34.8487 0.0559998 34.48 0.0559998L34.48 0.0559998L32.821 0.0559998L32.821 5.1555L34.004 5.1555L34.004 5.1555ZM34.48 2.4535L34.004 2.4535L34.004 0.9415L34.48 0.9415C34.7857 0.9415 35.0114 1.0045 35.1572 1.1305C35.3031 1.2565 35.376 1.4315 35.376 1.6555C35.376 1.7675 35.3597 1.87192 35.327 1.96875C35.2943 2.06558 35.2418 2.15017 35.1695 2.2225C35.0972 2.29483 35.0044 2.35142 34.8912 2.39225C34.7781 2.43308 34.641 2.4535 34.48 2.4535L34.48 2.4535L34.48 2.4535Z" transform="translate(3.4199588 7.844483)" id="RETRIGGER" fill="#000000" fill-rule="evenodd" stroke="none" />
    <path d="M0 2L0 1C0 0.723858 0.0976311 0.488155 0.292893 0.292893C0.488155 0.0976311 0.723858 0 1 0L42 0C42.2761 0 42.5118 0.0976311 42.7071 0.292893C42.9024 0.488155 43 0.723858 43 1L43 6C43 6.27614 42.9024 6.51184 42.7071 6.70711C42.5118 6.90237 42.2761 7 42 7L1 7C0.723858 7 0.488155 6.90237 0.292893 6.70711C0.0976311 6.51184 0 6.27614 0 6L0 2Z" transform="translate(-4.130602E-05 -1.7166138E-05)" id="Off-BG" fill="#399DFF" fill-rule="evenodd" stroke="none" />
    <path d="M1.183 5.1555L1.183 3.269L1.484 3.269C1.575 3.269 1.64558 3.283 1.69575 3.311C1.74592 3.339 1.78967 3.38567 1.827 3.451L1.827 3.451L2.674 4.9315C2.76033 5.08083 2.90267 5.1555 3.101 5.1555L3.101 5.1555L4.172 5.1555L3.087 3.381C3.03567 3.297 2.97558 3.22583 2.90675 3.1675C2.83792 3.10917 2.76383 3.06017 2.6845 3.0205C2.85017 2.9575 2.99658 2.877 3.12375 2.779C3.25092 2.681 3.35825 2.56958 3.44575 2.44475C3.53325 2.31992 3.59917 2.184 3.6435 2.037C3.68783 1.89 3.71 1.73367 3.71 1.568C3.71 1.351 3.67267 1.15033 3.598 0.966C3.52333 0.781667 3.40375 0.621833 3.23925 0.4865C3.07475 0.351167 2.86242 0.245583 2.60225 0.16975C2.34208 0.0939167 2.02767 0.056 1.659 0.056L1.659 0.056L0 0.056L0 5.1555L1.183 5.1555L1.183 5.1555ZM1.659 2.4535L1.183 2.4535L1.183 0.9415L1.659 0.9415C1.96467 0.9415 2.19042 1.0045 2.33625 1.1305C2.48208 1.2565 2.555 1.4315 2.555 1.6555C2.555 1.7675 2.53867 1.87192 2.506 1.96875C2.47333 2.06558 2.42083 2.15017 2.3485 2.2225C2.27617 2.29483 2.18342 2.35142 2.07025 2.39225C1.95708 2.43308 1.82 2.4535 1.659 2.4535L1.659 2.4535L1.659 2.4535ZM7.838 5.1555L7.838 4.2455L5.745 4.2455L5.745 3.031L7.348 3.031L7.348 2.156L5.745 2.156L5.745 0.966L7.838 0.966L7.838 0.056L4.555 0.056L4.555 5.1555L7.838 5.1555L7.838 5.1555ZM10.678 5.1555L10.678 0.994L12.113 0.994L12.113 0.056L8.06 0.056L8.06 0.994L9.495 0.994L9.495 5.1555L10.678 5.1555L10.678 5.1555ZM13.686 5.1555L13.686 3.269L13.987 3.269C14.078 3.269 14.1486 3.283 14.1987 3.311C14.2489 3.339 14.2927 3.38567 14.33 3.451L14.33 3.451L15.177 4.9315C15.2633 5.08083 15.4057 5.1555 15.604 5.1555L15.604 5.1555L16.675 5.1555L15.59 3.381C15.5387 3.297 15.4786 3.22583 15.4097 3.1675C15.3409 3.10917 15.2668 3.06017 15.1875 3.0205C15.3532 2.9575 15.4996 2.877 15.6267 2.779C15.7539 2.681 15.8612 2.56958 15.9487 2.44475C16.0362 2.31992 16.1022 2.184 16.1465 2.037C16.1908 1.89 16.213 1.73367 16.213 1.568C16.213 1.351 16.1757 1.15033 16.101 0.966C16.0263 0.781667 15.9067 0.621833 15.7423 0.4865C15.5777 0.351167 15.3654 0.245583 15.1052 0.16975C14.8451 0.0939167 14.5307 0.056 14.162 0.056L14.162 0.056L12.503 0.056L12.503 5.1555L13.686 5.1555L13.686 5.1555ZM14.162 2.4535L13.686 2.4535L13.686 0.9415L14.162 0.9415C14.4677 0.9415 14.6934 1.0045 14.8393 1.1305C14.9851 1.2565 15.058 1.4315 15.058 1.6555C15.058 1.7675 15.0417 1.87192 15.009 1.96875C14.9763 2.06558 14.9238 2.15017 14.8515 2.2225C14.7792 2.29483 14.6864 2.35142 14.5732 2.39225C14.4601 2.43308 14.323 2.4535 14.162 2.4535L14.162 2.4535L14.162 2.4535ZM18.353 5.1555L18.353 0.056L17.163 0.056L17.163 5.1555L18.353 5.1555L18.353 5.1555ZM21.508 5.2115C21.7157 5.2115 21.9099 5.201 22.0907 5.18C22.2716 5.159 22.4419 5.12633 22.6017 5.082C22.7616 5.03767 22.9121 4.98108 23.0532 4.91225C23.1944 4.84342 23.3303 4.76117 23.461 4.6655L23.461 4.6655L23.461 2.513L21.648 2.513L21.648 3.164C21.648 3.22467 21.669 3.27483 21.711 3.3145C21.753 3.35417 21.8113 3.374 21.886 3.374L21.886 3.374L22.39 3.374L22.39 4.1475C22.278 4.19417 22.159 4.2315 22.033 4.2595C21.907 4.2875 21.7623 4.3015 21.599 4.3015C21.3843 4.3015 21.1866 4.26358 21.0058 4.18775C20.8249 4.11192 20.6686 4.00167 20.5368 3.857C20.4049 3.71233 20.3017 3.535 20.227 3.325C20.1523 3.115 20.115 2.87467 20.115 2.604C20.115 2.359 20.1488 2.13675 20.2165 1.93725C20.2842 1.73775 20.3804 1.56683 20.5052 1.4245C20.6301 1.28217 20.7812 1.17192 20.9585 1.09375C21.1358 1.01558 21.3353 0.9765 21.557 0.9765C21.676 0.9765 21.7833 0.982333 21.879 0.994C21.9747 1.00567 22.0657 1.02433 22.152 1.05C22.2383 1.07567 22.3229 1.10892 22.4058 1.14975C22.4886 1.19058 22.5767 1.239 22.67 1.295C22.7447 1.34167 22.817 1.365 22.887 1.365C22.9407 1.365 22.9902 1.351 23.0357 1.323C23.0812 1.295 23.1203 1.2565 23.153 1.2075L23.153 1.2075L23.496 0.686C23.3933 0.588 23.2767 0.497 23.146 0.413C23.0153 0.329 22.8713 0.256667 22.7138 0.196C22.5562 0.135333 22.3842 0.0875 22.1975 0.0525C22.0108 0.0175 21.8113 0 21.599 0C21.1883 0 20.8167 0.0641667 20.4842 0.1925C20.1518 0.320833 19.8682 0.5005 19.6337 0.7315C19.3993 0.9625 19.219 1.23725 19.093 1.55575C18.967 1.87425 18.904 2.22367 18.904 2.604C18.904 2.97733 18.9699 3.32325 19.1017 3.64175C19.2336 3.96025 19.4156 4.23558 19.6478 4.46775C19.8799 4.69992 20.1547 4.88192 20.472 5.01375C20.7893 5.14558 21.1347 5.2115 21.508 5.2115L21.508 5.2115ZM26.392 5.2115C26.5997 5.2115 26.7939 5.201 26.9748 5.18C27.1556 5.159 27.3259 5.12633 27.4858 5.082C27.6456 5.03767 27.7961 4.98108 27.9373 4.91225C28.0784 4.84342 28.2143 4.76117 28.345 4.6655L28.345 4.6655L28.345 2.513L26.532 2.513L26.532 3.164C26.532 3.22467 26.553 3.27483 26.595 3.3145C26.637 3.35417 26.6953 3.374 26.77 3.374L26.77 3.374L27.274 3.374L27.274 4.1475C27.162 4.19417 27.043 4.2315 26.917 4.2595C26.791 4.2875 26.6463 4.3015 26.483 4.3015C26.2683 4.3015 26.0706 4.26358 25.8897 4.18775C25.7089 4.11192 25.5526 4.00167 25.4207 3.857C25.2889 3.71233 25.1857 3.535 25.111 3.325C25.0363 3.115 24.999 2.87467 24.999 2.604C24.999 2.359 25.0328 2.13675 25.1005 1.93725C25.1682 1.73775 25.2644 1.56683 25.3892 1.4245C25.5141 1.28217 25.6652 1.17192 25.8425 1.09375C26.0198 1.01558 26.2193 0.9765 26.441 0.9765C26.56 0.9765 26.6673 0.982333 26.763 0.994C26.8587 1.00567 26.9497 1.02433 27.036 1.05C27.1223 1.07567 27.2069 1.10892 27.2897 1.14975C27.3726 1.19058 27.4607 1.239 27.554 1.295C27.6287 1.34167 27.701 1.365 27.771 1.365C27.8247 1.365 27.8743 1.351 27.9198 1.323C27.9653 1.295 28.0043 1.2565 28.037 1.2075L28.037 1.2075L28.38 0.686C28.2773 0.588 28.1607 0.497 28.03 0.413C27.8993 0.329 27.7552 0.256667 27.5977 0.196C27.4403 0.135333 27.2682 0.0875 27.0815 0.0525C26.8948 0.0175 26.6953 0 26.483 0C26.0723 0 25.7008 0.0641667 25.3682 0.1925C25.0357 0.320833 24.7523 0.5005 24.5177 0.7315C24.2833 0.9625 24.103 1.23725 23.977 1.55575C23.851 1.87425 23.788 2.22367 23.788 2.604C23.788 2.97733 23.8539 3.32325 23.9858 3.64175C24.1176 3.96025 24.2996 4.23558 24.5317 4.46775C24.7639 4.69992 25.0387 4.88192 25.356 5.01375C25.6733 5.14558 26.0187 5.2115 26.392 5.2115L26.392 5.2115ZM32.249 5.1555L32.249 4.2455L30.156 4.2455L30.156 3.031L31.759 3.031L31.759 2.156L30.156 2.156L30.156 0.966L32.249 0.966L32.249 0.056L28.966 0.056L28.966 5.1555L32.249 5.1555L32.249 5.1555ZM34.004 5.1555L34.004 3.269L34.305 3.269C34.396 3.269 34.4666 3.283 34.5167 3.311C34.5669 3.339 34.6107 3.38567 34.648 3.451L34.648 3.451L35.495 4.9315C35.5813 5.08083 35.7237 5.1555 35.922 5.1555L35.922 5.1555L36.993 5.1555L35.908 3.381C35.8567 3.297 35.7966 3.22583 35.7277 3.1675C35.6589 3.10917 35.5848 3.06017 35.5055 3.0205C35.6712 2.9575 35.8176 2.877 35.9447 2.779C36.0719 2.681 36.1792 2.56958 36.2667 2.44475C36.3542 2.31992 36.4202 2.184 36.4645 2.037C36.5088 1.89 36.531 1.73367 36.531 1.568C36.531 1.351 36.4937 1.15033 36.419 0.966C36.3443 0.781667 36.2247 0.621833 36.0602 0.4865C35.8957 0.351167 35.6834 0.245583 35.4232 0.16975C35.1631 0.0939167 34.8487 0.056 34.48 0.056L34.48 0.056L32.821 0.056L32.821 5.1555L34.004 5.1555L34.004 5.1555ZM34.48 2.4535L34.004 2.4535L34.004 0.9415L34.48 0.9415C34.7857 0.9415 35.0114 1.0045 35.1572 1.1305C35.3031 1.2565 35.376 1.4315 35.376 1.6555C35.376 1.7675 35.3597 1.87192 35.327 1.96875C35.2943 2.06558 35.2418 2.15017 35.1695 2.2225C35.0972 2.29483 35.0044 2.35142 34.8912 2.39225C34.7781 2.43308 34.641 2.4535 34.48 2.4535L34.48 2.4535L34.48 2.4535Z" transform="translate(3.4199588 0.84448284)" id="RETRIGGER" fill="#FFFFFF" fill-rule="evenodd" stroke="none" />
  </g>
</svg>