<?xml version="1.0" encoding="utf-8"?>
<svg width="44px" height="14px" viewBox="0 0 44 14" version="1.1" xmlns:xlink="http://www.w3.org/1999/xlink" xmlns="http://www.w3.org/2000/svg">
  <desc>Created with Lunacy</desc>
  <defs>
    <rect width="44" height="14" id="artboard_1" />
    <clipPath id="clip_1">
      <use xlink:href="#artboard_1" clip-rule="evenodd" />
    </clipPath>
  </defs>
  <g id="hover00125" clip-path="url(#clip_1)">
    <g id="Off-BG">
      <path d="M0 2L0 1C0 0.723858 0.0976311 0.488155 0.292893 0.292893C0.488155 0.0976311 0.723858 0 1 0L42 0C42.2761 0 42.5118 0.0976311 42.7071 0.292893C42.9024 0.488155 43 0.723858 43 1L43 6C43 6.27614 42.9024 6.51184 42.7071 6.70711C42.5118 6.90237 42.2761 7 42 7L1 7C0.723858 7 0.488155 6.90237 0.292893 6.70711C0.0976311 6.51184 0 6.27614 0 6L0 2Z" id="Rectangle" fill="#399DFF" fill-rule="evenodd" stroke="none" />
    </g>
    <g id="Off-Text" transform="translate(3.419983 0.84451294)">
      <path d="M1.183 5.1555L1.183 2.9855L1.47 2.9855C1.57967 2.9855 1.66658 2.99892 1.73075 3.02575C1.79492 3.05258 1.848 3.09867 1.89 3.164L1.89 3.164L3.045 4.9385C3.06833 4.9735 3.09283 5.00442 3.1185 5.03125C3.14417 5.05808 3.1745 5.08083 3.2095 5.0995C3.2445 5.11817 3.28592 5.13217 3.33375 5.1415C3.38158 5.15083 3.43933 5.1555 3.507 5.1555L3.507 5.1555L4.564 5.1555L3.024 2.7895C2.96333 2.69383 2.89625 2.61742 2.82275 2.56025C2.74925 2.50308 2.66817 2.45817 2.5795 2.4255C2.64017 2.39283 2.69967 2.352 2.758 2.303C2.81633 2.254 2.87233 2.19217 2.926 2.1175L2.926 2.1175L4.438 0.056L3.409 0.056C3.29233 0.056 3.19375 0.0723333 3.11325 0.105C3.03275 0.137667 2.961 0.1995 2.898 0.2905L2.898 0.2905L1.75 1.9565C1.673 2.06617 1.547 2.121 1.372 2.121L1.372 2.121L1.183 2.121L1.183 0.056L0 0.056L0 5.1555L1.183 5.1555L1.183 5.1555ZM8.181 5.1555L8.181 4.2455L6.088 4.2455L6.088 3.031L7.691 3.031L7.691 2.156L6.088 2.156L6.088 0.966L8.181 0.966L8.181 0.056L4.898 0.056L4.898 5.1555L8.181 5.1555L8.181 5.1555ZM11.294 5.1555L11.294 3.2165L13.142 0.056L12.092 0.056C12.043 0.056 11.9981 0.0635833 11.9572 0.07875C11.9164 0.0939167 11.8802 0.11375 11.8488 0.13825C11.8173 0.16275 11.7893 0.190167 11.7647 0.2205C11.7402 0.250833 11.721 0.281167 11.707 0.3115L11.707 0.3115L10.993 1.7955C10.937 1.91217 10.8845 2.02067 10.8355 2.121C10.7865 2.22133 10.7445 2.32167 10.7095 2.422C10.6722 2.324 10.629 2.22483 10.58 2.1245C10.531 2.02417 10.4773 1.9145 10.419 1.7955L10.419 1.7955L9.698 0.3115C9.66067 0.236833 9.61167 0.175583 9.551 0.12775C9.49033 0.0799167 9.40867 0.056 9.306 0.056L9.306 0.056L8.263 0.056L10.111 3.2165L10.111 5.1555L11.294 5.1555L11.294 5.1555ZM15.66 5.1555L15.66 0.994L17.095 0.994L17.095 0.056L13.042 0.056L13.042 0.994L14.477 0.994L14.477 5.1555L15.66 5.1555L15.66 5.1555ZM18.668 5.1555L18.668 3.269L18.969 3.269C19.06 3.269 19.1306 3.283 19.1807 3.311C19.2309 3.339 19.2747 3.38567 19.312 3.451L19.312 3.451L20.159 4.9315C20.2453 5.08083 20.3877 5.1555 20.586 5.1555L20.586 5.1555L21.657 5.1555L20.572 3.381C20.5207 3.297 20.4606 3.22583 20.3918 3.1675C20.3229 3.10917 20.2488 3.06017 20.1695 3.0205C20.3352 2.9575 20.4816 2.877 20.6087 2.779C20.7359 2.681 20.8433 2.56958 20.9307 2.44475C21.0182 2.31992 21.0842 2.184 21.1285 2.037C21.1728 1.89 21.195 1.73367 21.195 1.568C21.195 1.351 21.1577 1.15033 21.083 0.966C21.0083 0.781667 20.8888 0.621833 20.7243 0.4865C20.5597 0.351167 20.3474 0.245583 20.0872 0.16975C19.8271 0.0939167 19.5127 0.056 19.144 0.056L19.144 0.056L17.485 0.056L17.485 5.1555L18.668 5.1555L18.668 5.1555ZM19.144 2.4535L18.668 2.4535L18.668 0.9415L19.144 0.9415C19.4497 0.9415 19.6754 1.0045 19.8212 1.1305C19.9671 1.2565 20.04 1.4315 20.04 1.6555C20.04 1.7675 20.0237 1.87192 19.991 1.96875C19.9583 2.06558 19.9058 2.15017 19.8335 2.2225C19.7612 2.29483 19.6684 2.35142 19.5553 2.39225C19.4421 2.43308 19.305 2.4535 19.144 2.4535L19.144 2.4535L19.144 2.4535ZM22.551 5.1555C22.649 5.1555 22.7318 5.12925 22.7995 5.07675C22.8672 5.02425 22.9127 4.96533 22.936 4.9L22.936 4.9L23.237 4.011L25.176 4.011L25.477 4.9C25.5027 4.97467 25.5487 5.03592 25.6152 5.08375C25.6817 5.13158 25.7663 5.1555 25.869 5.1555L25.869 5.1555L26.786 5.1555L24.812 0.056L23.601 0.056L21.627 5.1555L22.551 5.1555L22.551 5.1555ZM24.903 3.206L23.51 3.206L23.979 1.8165C24.014 1.72783 24.0513 1.62283 24.091 1.5015C24.1307 1.38017 24.1692 1.24833 24.2065 1.106C24.2462 1.246 24.2864 1.37608 24.3272 1.49625C24.3681 1.61642 24.4037 1.72083 24.434 1.8095L24.434 1.8095L24.903 3.206L24.903 3.206ZM29.08 5.2115C29.5023 5.2115 29.8681 5.14325 30.1773 5.00675C30.4864 4.87025 30.7437 4.66783 30.949 4.3995L30.949 4.3995L30.48 3.906C30.4543 3.88033 30.4275 3.86225 30.3995 3.85175C30.3715 3.84125 30.3435 3.836 30.3155 3.836C30.2805 3.836 30.2467 3.84358 30.214 3.85875C30.1813 3.87392 30.151 3.89317 30.123 3.9165C30.053 3.97717 29.9836 4.02792 29.9147 4.06875C29.8459 4.10958 29.7736 4.14283 29.6978 4.1685C29.6219 4.19417 29.5397 4.21225 29.451 4.22275C29.3623 4.23325 29.2643 4.2385 29.157 4.2385C28.9703 4.2385 28.7953 4.20233 28.632 4.13C28.4687 4.05767 28.3258 3.95208 28.2032 3.81325C28.0807 3.67442 27.9839 3.5035 27.9128 3.3005C27.8416 3.0975 27.806 2.86533 27.806 2.604C27.806 2.35433 27.8416 2.12917 27.9128 1.9285C27.9839 1.72783 28.0831 1.55692 28.2103 1.41575C28.3374 1.27458 28.4897 1.16608 28.667 1.09025C28.8443 1.01442 29.0403 0.9765 29.255 0.9765C29.3787 0.9765 29.4866 0.985833 29.5787 1.0045C29.6709 1.02317 29.7514 1.04592 29.8202 1.07275C29.8891 1.09958 29.9486 1.12875 29.9988 1.16025C30.0489 1.19175 30.095 1.22092 30.137 1.24775C30.179 1.27458 30.2187 1.29733 30.256 1.316C30.2933 1.33467 30.333 1.344 30.375 1.344C30.438 1.344 30.487 1.33058 30.522 1.30375C30.557 1.27692 30.5873 1.24717 30.613 1.2145L30.613 1.2145L31.012 0.679C30.9163 0.578667 30.8067 0.487083 30.683 0.40425C30.5593 0.321417 30.424 0.25025 30.277 0.19075C30.13 0.13125 29.9719 0.0845833 29.8027 0.05075C29.6336 0.0169166 29.4533 0 29.262 0C28.8677 0 28.5072 0.0641667 28.1805 0.1925C27.8538 0.320833 27.5732 0.5005 27.3388 0.7315C27.1042 0.9625 26.9217 1.23725 26.791 1.55575C26.6603 1.87425 26.595 2.22367 26.595 2.604C26.595 2.97733 26.6522 3.32325 26.7665 3.64175C26.8808 3.96025 27.0448 4.23558 27.2582 4.46775C27.4718 4.69992 27.7319 4.88192 28.0387 5.01375C28.3456 5.14558 28.6927 5.2115 29.08 5.2115L29.08 5.2115ZM32.571 5.1555L32.571 2.9855L32.858 2.9855C32.9677 2.9855 33.0546 2.99892 33.1188 3.02575C33.1829 3.05258 33.236 3.09867 33.278 3.164L33.278 3.164L34.433 4.9385C34.4563 4.9735 34.4808 5.00442 34.5065 5.03125C34.5322 5.05808 34.5625 5.08083 34.5975 5.0995C34.6325 5.11817 34.6739 5.13217 34.7218 5.1415C34.7696 5.15083 34.8273 5.1555 34.895 5.1555L34.895 5.1555L35.952 5.1555L34.412 2.7895C34.3513 2.69383 34.2843 2.61742 34.2108 2.56025C34.1373 2.50308 34.0562 2.45817 33.9675 2.4255C34.0282 2.39283 34.0877 2.352 34.146 2.303C34.2043 2.254 34.2603 2.19217 34.314 2.1175L34.314 2.1175L35.826 0.056L34.797 0.056C34.6803 0.056 34.5818 0.0723333 34.5013 0.105C34.4208 0.137667 34.349 0.1995 34.286 0.2905L34.286 0.2905L33.138 1.9565C33.061 2.06617 32.935 2.121 32.76 2.121L32.76 2.121L32.571 2.121L32.571 0.056L31.388 0.056L31.388 5.1555L32.571 5.1555L32.571 5.1555Z" id="KEYTRACK" fill="#FFFFFF" fill-rule="evenodd" stroke="none" />
    </g>
    <g id="On-BG" transform="translate(0.5 7.4770203)">
      <path d="M0 2L0 1C0 0.723858 0.0976311 0.488155 0.292893 0.292893C0.488155 0.0976311 0.723858 0 1 0L41 0C41.2761 0 41.5118 0.0976311 41.7071 0.292893C41.9024 0.488155 42 0.723858 42 1L42 5C42 5.27614 41.9024 5.51184 41.7071 5.70711C41.5118 5.90237 41.2761 6 41 6L1 6C0.723858 6 0.488155 5.90237 0.292893 5.70711C0.0976311 5.51184 0 5.27614 0 5L0 2Z" id="Rectangle" fill="#FF9000" fill-rule="evenodd" stroke="#FFFFFF" stroke-width="1" />
    </g>
    <g id="On-Text" transform="translate(3.42 7.821533)">
      <path d="M1.183 5.1555L1.183 2.9855L1.47 2.9855C1.57967 2.9855 1.66658 2.99892 1.73075 3.02575C1.79492 3.05258 1.848 3.09867 1.89 3.164L1.89 3.164L3.045 4.9385C3.06833 4.9735 3.09283 5.00442 3.1185 5.03125C3.14417 5.05808 3.1745 5.08083 3.2095 5.0995C3.2445 5.11817 3.28592 5.13217 3.33375 5.1415C3.38158 5.15083 3.43933 5.1555 3.507 5.1555L3.507 5.1555L4.564 5.1555L3.024 2.7895C2.96333 2.69383 2.89625 2.61742 2.82275 2.56025C2.74925 2.50308 2.66817 2.45817 2.5795 2.4255C2.64017 2.39283 2.69967 2.352 2.758 2.303C2.81633 2.254 2.87233 2.19217 2.926 2.1175L2.926 2.1175L4.438 0.0559998L3.409 0.0559998C3.29233 0.0559998 3.19375 0.0723333 3.11325 0.105C3.03275 0.137667 2.961 0.1995 2.898 0.2905L2.898 0.2905L1.75 1.9565C1.673 2.06617 1.547 2.121 1.372 2.121L1.372 2.121L1.183 2.121L1.183 0.0559998L0 0.0559998L0 5.1555L1.183 5.1555L1.183 5.1555ZM8.18101 5.1555L8.18101 4.2455L6.08801 4.2455L6.08801 3.031L7.69101 3.031L7.69101 2.156L6.08801 2.156L6.08801 0.966L8.18101 0.966L8.18101 0.0559998L4.89801 0.0559998L4.89801 5.1555L8.18101 5.1555L8.18101 5.1555ZM11.294 5.1555L11.294 3.2165L13.142 0.0559998L12.092 0.0559998C12.043 0.0559998 11.9981 0.0635834 11.9572 0.0787501C11.9164 0.0939164 11.8802 0.11375 11.8488 0.13825C11.8173 0.16275 11.7893 0.190167 11.7647 0.2205C11.7402 0.250833 11.721 0.281167 11.707 0.3115L11.707 0.3115L10.993 1.7955C10.937 1.91217 10.8845 2.02067 10.8355 2.121C10.7865 2.22133 10.7445 2.32167 10.7095 2.422C10.6722 2.324 10.629 2.22483 10.58 2.1245C10.531 2.02417 10.4773 1.9145 10.419 1.7955L10.419 1.7955L9.698 0.3115C9.66067 0.236833 9.61167 0.175583 9.551 0.12775C9.49033 0.0799165 9.40867 0.0559998 9.306 0.0559998L9.306 0.0559998L8.263 0.0559998L10.111 3.2165L10.111 5.1555L11.294 5.1555L11.294 5.1555ZM15.66 5.1555L15.66 0.994L17.095 0.994L17.095 0.0559998L13.042 0.0559998L13.042 0.994L14.477 0.994L14.477 5.1555L15.66 5.1555L15.66 5.1555ZM18.668 5.1555L18.668 3.269L18.969 3.269C19.06 3.269 19.1306 3.283 19.1808 3.311C19.2309 3.339 19.2747 3.38567 19.312 3.451L19.312 3.451L20.159 4.9315C20.2453 5.08083 20.3877 5.1555 20.586 5.1555L20.586 5.1555L21.657 5.1555L20.572 3.381C20.5207 3.297 20.4606 3.22583 20.3918 3.1675C20.3229 3.10917 20.2488 3.06017 20.1695 3.0205C20.3352 2.9575 20.4816 2.877 20.6088 2.779C20.7359 2.681 20.8433 2.56958 20.9308 2.44475C21.0183 2.31992 21.0842 2.184 21.1285 2.037C21.1728 1.89 21.195 1.73367 21.195 1.568C21.195 1.351 21.1577 1.15033 21.083 0.966C21.0083 0.781666 20.8888 0.621833 20.7243 0.4865C20.5598 0.351166 20.3474 0.245583 20.0873 0.16975C19.8271 0.0939164 19.5127 0.0559998 19.144 0.0559998L19.144 0.0559998L17.485 0.0559998L17.485 5.1555L18.668 5.1555L18.668 5.1555ZM19.144 2.4535L18.668 2.4535L18.668 0.941498L19.144 0.941498C19.4497 0.941498 19.6754 1.0045 19.8212 1.1305C19.9671 1.2565 20.04 1.4315 20.04 1.6555C20.04 1.7675 20.0237 1.87191 19.991 1.96875C19.9583 2.06558 19.9058 2.15016 19.8335 2.2225C19.7612 2.29483 19.6684 2.35141 19.5553 2.39225C19.4421 2.43308 19.305 2.4535 19.144 2.4535L19.144 2.4535L19.144 2.4535ZM22.551 5.1555C22.649 5.1555 22.7318 5.12925 22.7995 5.07675C22.8672 5.02425 22.9127 4.96533 22.936 4.9L22.936 4.9L23.237 4.011L25.176 4.011L25.477 4.9C25.5027 4.97467 25.5488 5.03592 25.6153 5.08375C25.6818 5.13158 25.7663 5.1555 25.869 5.1555L25.869 5.1555L26.786 5.1555L24.812 0.0559998L23.601 0.0559998L21.627 5.1555L22.551 5.1555L22.551 5.1555ZM24.903 3.20599L23.51 3.20599L23.979 1.81649C24.014 1.72782 24.0513 1.62282 24.091 1.50149C24.1307 1.38015 24.1692 1.24832 24.2065 1.10599C24.2462 1.24599 24.2864 1.37607 24.3273 1.49624C24.3681 1.6164 24.4037 1.72082 24.434 1.80949L24.434 1.80949L24.903 3.20599L24.903 3.20599ZM29.08 5.2115C29.5023 5.2115 29.8681 5.14325 30.1773 5.00675C30.4864 4.87025 30.7437 4.66783 30.949 4.3995L30.949 4.3995L30.48 3.906C30.4543 3.88033 30.4275 3.86225 30.3995 3.85175C30.3715 3.84125 30.3435 3.836 30.3155 3.836C30.2805 3.836 30.2467 3.84358 30.214 3.85875C30.1813 3.87392 30.151 3.89317 30.123 3.9165C30.053 3.97717 29.9836 4.02792 29.9147 4.06875C29.8459 4.10958 29.7736 4.14283 29.6978 4.1685C29.6219 4.19417 29.5397 4.21225 29.451 4.22275C29.3623 4.23325 29.2643 4.2385 29.157 4.2385C28.9703 4.2385 28.7953 4.20233 28.632 4.13C28.4687 4.05767 28.3258 3.95208 28.2033 3.81325C28.0808 3.67442 27.9839 3.5035 27.9128 3.3005C27.8416 3.0975 27.806 2.86533 27.806 2.604C27.806 2.35433 27.8416 2.12917 27.9128 1.9285C27.9839 1.72783 28.0831 1.55692 28.2103 1.41575C28.3374 1.27458 28.4897 1.16608 28.667 1.09025C28.8443 1.01442 29.0403 0.9765 29.255 0.9765C29.3787 0.9765 29.4866 0.985834 29.5788 1.0045C29.6709 1.02317 29.7514 1.04592 29.8203 1.07275C29.8891 1.09958 29.9486 1.12875 29.9988 1.16025C30.0489 1.19175 30.095 1.22092 30.137 1.24775C30.179 1.27458 30.2187 1.29733 30.256 1.316C30.2933 1.33467 30.333 1.344 30.375 1.344C30.438 1.344 30.487 1.33058 30.522 1.30375C30.557 1.27692 30.5873 1.24717 30.613 1.2145L30.613 1.2145L31.012 0.679C30.9163 0.578666 30.8067 0.487083 30.683 0.40425C30.5593 0.321416 30.424 0.25025 30.277 0.19075C30.13 0.13125 29.9719 0.0845833 29.8027 0.0507498C29.6336 0.0169168 29.4533 0 29.262 0C28.8677 0 28.5072 0.0641665 28.1805 0.1925C27.8538 0.320833 27.5733 0.5005 27.3388 0.7315C27.1043 0.9625 26.9217 1.23725 26.791 1.55575C26.6603 1.87425 26.595 2.22367 26.595 2.604C26.595 2.97733 26.6522 3.32325 26.7665 3.64175C26.8808 3.96025 27.0448 4.23558 27.2583 4.46775C27.4718 4.69992 27.7319 4.88192 28.0388 5.01375C28.3456 5.14558 28.6927 5.2115 29.08 5.2115L29.08 5.2115ZM32.571 5.1555L32.571 2.9855L32.858 2.9855C32.9677 2.9855 33.0546 2.99892 33.1188 3.02575C33.1829 3.05258 33.236 3.09867 33.278 3.164L33.278 3.164L34.433 4.9385C34.4563 4.9735 34.4808 5.00442 34.5065 5.03125C34.5322 5.05808 34.5625 5.08083 34.5975 5.0995C34.6325 5.11817 34.6739 5.13217 34.7218 5.1415C34.7696 5.15083 34.8273 5.1555 34.895 5.1555L34.895 5.1555L35.952 5.1555L34.412 2.7895C34.3513 2.69383 34.2843 2.61742 34.2108 2.56025C34.1373 2.50308 34.0562 2.45817 33.9675 2.4255C34.0282 2.39283 34.0877 2.352 34.146 2.303C34.2043 2.254 34.2603 2.19217 34.314 2.1175L34.314 2.1175L35.826 0.0559998L34.797 0.0559998C34.6803 0.0559998 34.5818 0.0723333 34.5013 0.105C34.4208 0.137667 34.349 0.1995 34.286 0.2905L34.286 0.2905L33.138 1.9565C33.061 2.06617 32.935 2.121 32.76 2.121L32.76 2.121L32.571 2.121L32.571 0.0559998L31.388 0.0559998L31.388 5.1555L32.571 5.1555L32.571 5.1555Z" id="KEYTRACK" fill="#000000" fill-rule="evenodd" stroke="none" />
    </g>
  </g>
</svg>