<?xml version="1.0" encoding="UTF-8"?>
<svg width="96px" height="126px" viewBox="0 0 96 126" version="1.1" xmlns="http://www.w3.org/2000/svg" xmlns:xlink="http://www.w3.org/1999/xlink">
    <title>hoverOn00118</title>
    <g id="hoverOn00118" stroke="none" stroke-width="1" fill="none" fill-rule="evenodd">
        <g id="Group-12-Copy" transform="translate(2.000000, -720.000000)">
            <g id="Group" transform="translate(1.000000, 0.000000)" fill="#FFFFFF" stroke="#000000">
                <rect id="Rectangle" x="0" y="722" width="12" height="11" rx="1"></rect>
                <rect id="Rectangle" x="13" y="740" width="12" height="11" rx="1"></rect>
                <rect id="Rectangle" x="25" y="758" width="12" height="11" rx="1"></rect>
                <rect id="Rectangle" x="39" y="776" width="12" height="11" rx="1"></rect>
                <rect id="Rectangle" x="52" y="794" width="12" height="11" rx="1"></rect>
                <rect id="Rectangle" x="65" y="812" width="12" height="11" rx="1"></rect>
                <rect id="Rectangle" x="77" y="830" width="12" height="11" rx="1"></rect>
            </g>
            <g id="Stacked-Group-2" transform="translate(3.000000, 725.000000)">
                <g id="Numbers"></g>
                <g id="Numbers" transform="translate(0.000000, 108.000000)">
                    <g id="Group-4" transform="translate(81.000000, 0.000000)"></g>
                </g>
                <g id="Numbers" transform="translate(0.000000, 90.000000)">
                    <g id="Group-3" transform="translate(69.000000, 0.000000)"></g>
                </g>
                <g id="Numbers" transform="translate(0.000000, 72.000000)"></g>
                <g id="Numbers" transform="translate(0.000000, 54.000000)"></g>
                <g id="Numbers" transform="translate(0.000000, 36.000000)">
                    <g id="Group-2" transform="translate(30.000000, 0.000000)"></g>
                </g>
                <g id="Numbers" transform="translate(0.000000, 18.000000)"></g>
            </g>
            <path d="M6.254,728.3095 L6.254,727.4345 L4.364,727.4345 L4.364,728.3095 L6.254,728.3095 Z M9.2352222,730.056 C9.47088887,730.056 9.6972222,730.02275 9.9142222,729.95625 C10.1312222,729.88975 10.3219722,729.79 10.4864722,729.657 C10.6509722,729.524 10.7822222,729.357167 10.8802222,729.1565 C10.9782222,728.955833 11.0272222,728.720167 11.0272222,728.4495 C11.0272222,727.877833 10.7448889,727.492833 10.1802222,727.2945 C10.3015555,727.2525 10.4094722,727.200583 10.5039722,727.13875 C10.5984722,727.076917 10.6778055,727.001083 10.7419722,726.91125 C10.8061389,726.821417 10.8545555,726.71525 10.8872222,726.59275 C10.9198889,726.47025 10.9362222,726.3285 10.9362222,726.1675 C10.9362222,725.990167 10.9012222,725.821583 10.8312222,725.66175 C10.7612222,725.501917 10.6585555,725.361333 10.5232222,725.24 C10.3878889,725.118667 10.2222222,725.022417 10.0262222,724.95125 C9.8302222,724.880083 9.6062222,724.8445 9.3542222,724.8445 C9.12088887,724.8445 8.9027222,724.875417 8.6997222,724.93725 C8.4967222,724.999083 8.3164722,725.093 8.1589722,725.219 C8.0014722,725.345 7.86963887,725.5025 7.7634722,725.6915 C7.65730553,725.8805 7.58555553,726.102167 7.5482222,726.3565 L7.5482222,726.3565 L8.1222222,726.458 C8.2692222,726.481333 8.38238887,726.472 8.4617222,726.43 C8.54105553,726.388 8.6052222,726.302833 8.6542222,726.1745 C8.6962222,726.0485 8.77263887,725.942917 8.8834722,725.85775 C8.99430553,725.772583 9.1302222,725.73 9.2912222,725.73 C9.48955553,725.73 9.63713887,725.78425 9.7339722,725.89275 C9.83080553,726.00125 9.8792222,726.155833 9.8792222,726.3565 C9.8792222,726.4545 9.86755553,726.544333 9.8442222,726.626 C9.82088887,726.707667 9.77363887,726.777083 9.7024722,726.83425 C9.63130553,726.891417 9.53038887,726.936333 9.3997222,726.969 C9.26905553,727.001667 9.09755553,727.018 8.8852222,727.018 L8.8852222,727.018 L8.8852222,727.767 C9.1372222,727.767 9.33380553,727.783917 9.4749722,727.81775 C9.61613887,727.851583 9.7217222,727.9 9.7917222,727.963 C9.8617222,728.026 9.90430553,728.10125 9.9194722,728.18875 C9.93463887,728.27625 9.9422222,728.374833 9.9422222,728.4845 C9.9422222,728.5685 9.92705553,728.651333 9.8967222,728.733 C9.86638887,728.814667 9.8214722,728.887583 9.7619722,728.95175 C9.7024722,729.015917 9.62780553,729.068417 9.5379722,729.10925 C9.44813887,729.150083 9.34255553,729.1705 9.2212222,729.1705 C9.06255553,729.1705 8.92430553,729.12675 8.8064722,729.03925 C8.68863887,728.95175 8.5772222,728.811167 8.4722222,728.6175 C8.42555553,728.5335 8.34855553,728.479833 8.2412222,728.4565 C8.13388887,728.433167 8.0172222,728.446 7.8912222,728.495 L7.8912222,728.495 L7.4082222,728.691 C7.48988887,728.929 7.58613887,729.134333 7.6969722,729.307 C7.80780553,729.479667 7.9367222,729.621417 8.0837222,729.73225 C8.2307222,729.843083 8.3987222,729.92475 8.5877222,729.97725 C8.7767222,730.02975 8.99255553,730.056 9.2352222,730.056 Z" id="-3" fill="#1D1D1D" fill-rule="nonzero"></path>
            <path d="M19.254,746.3095 L19.254,745.4345 L17.364,745.4345 L17.364,746.3095 L19.254,746.3095 Z M24.0342222,748 L24.0342222,747.37 C24.0342222,747.265 24.0003889,747.180417 23.9327222,747.11625 C23.8650555,747.052083 23.7728889,747.02 23.6562222,747.02 L23.6562222,747.02 L22.7042222,747.02 C22.5968889,747.02 22.4802222,747.0305 22.3542222,747.0515 C22.2282222,747.0725 22.1010555,747.102833 21.9727222,747.1425 L21.9727222,747.1425 L22.9702222,746.1205 C23.1055555,745.982833 23.2333055,745.846917 23.3534722,745.71275 C23.4736389,745.578583 23.5792222,745.43975 23.6702222,745.29625 C23.7612222,745.15275 23.8329722,745.001667 23.8854722,744.843 C23.9379722,744.684333 23.9642222,744.511667 23.9642222,744.325 C23.9642222,744.108 23.9263055,743.909083 23.8504722,743.72825 C23.7746389,743.547417 23.6655555,743.391667 23.5232222,743.261 C23.3808889,743.130333 23.2088055,743.02825 23.0069722,742.95475 C22.8051389,742.88125 22.5782222,742.8445 22.3262222,742.8445 C22.0928889,742.8445 21.8747222,742.875417 21.6717222,742.93725 C21.4687222,742.999083 21.2884722,743.093 21.1309722,743.219 C20.9734722,743.345 20.8416389,743.5025 20.7354722,743.6915 C20.6293055,743.8805 20.5575555,744.102167 20.5202222,744.3565 L20.5202222,744.3565 L21.0942222,744.458 C21.2412222,744.481333 21.3543889,744.472 21.4337222,744.43 C21.5130555,744.388 21.5772222,744.302833 21.6262222,744.1745 C21.6682222,744.0485 21.7446389,743.942917 21.8554722,743.85775 C21.9663055,743.772583 22.1022222,743.73 22.2632222,743.73 C22.4615555,743.73 22.6091389,743.78425 22.7059722,743.89275 C22.8028055,744.00125 22.8512222,744.157 22.8512222,744.36 C22.8512222,744.483667 22.8360555,744.600917 22.8057222,744.71175 C22.7753889,744.822583 22.7298889,744.933417 22.6692222,745.04425 C22.6085555,745.155083 22.5315555,745.267667 22.4382222,745.382 C22.3448889,745.496333 22.2352222,745.6165 22.1092222,745.7425 L22.1092222,745.7425 L20.6392222,747.223 C20.5692222,747.286 20.5202222,747.356 20.4922222,747.433 C20.4642222,747.51 20.4502222,747.582333 20.4502222,747.65 L20.4502222,747.65 L20.4502222,748 L24.0342222,748 Z" id="-2" fill="#1E1E1E" fill-rule="nonzero"></path>
            <path d="M31.254,764.3095 L31.254,763.4345 L29.364,763.4345 L29.364,764.3095 L31.254,764.3095 Z M35.9187222,766 L35.9187222,765.216 L35.0787222,765.216 L35.0787222,760.897 L34.1827222,760.897 L32.5937222,762.2305 L32.9367222,762.6855 C32.9530555,762.708833 32.9787222,762.731583 33.0137222,762.75375 C33.0487222,762.775917 33.0883889,762.791083 33.1327222,762.79925 C33.1770555,762.807417 33.2243055,762.807417 33.2744722,762.79925 C33.3246389,762.791083 33.3753889,762.767167 33.4267222,762.7275 L33.4267222,762.7275 L34.0077222,762.2445 C34.0030555,762.312167 33.9995555,762.37925 33.9972222,762.44575 C33.9948889,762.51225 33.9937222,762.578167 33.9937222,762.6435 L33.9937222,762.6435 L33.9937222,765.216 L33.0137222,765.216 L33.0137222,766 L35.9187222,766 Z" id="-1" fill="#1D1D1D" fill-rule="nonzero"></path>
            <path d="M46.023,784.056 C46.2936667,784.056 46.5450833,784.0035 46.77725,783.8985 C47.0094167,783.7935 47.2100833,783.633667 47.37925,783.419 C47.5484167,783.204333 47.6808333,782.933667 47.7765,782.607 C47.8721667,782.280333 47.92,781.894167 47.92,781.4485 C47.92,781.002833 47.8721667,780.616667 47.7765,780.29 C47.6808333,779.963333 47.5484167,779.692667 47.37925,779.478 C47.2100833,779.263333 47.0094167,779.104083 46.77725,779.00025 C46.5450833,778.896417 46.2936667,778.8445 46.023,778.8445 C45.7523333,778.8445 45.5020833,778.896417 45.27225,779.00025 C45.0424167,779.104083 44.8435,779.263333 44.6755,779.478 C44.5075,779.692667 44.37625,779.963333 44.28175,780.29 C44.18725,780.616667 44.14,781.002833 44.14,781.4485 C44.14,781.894167 44.18725,782.280333 44.28175,782.607 C44.37625,782.933667 44.5075,783.204333 44.6755,783.419 C44.8435,783.633667 45.0424167,783.7935 45.27225,783.8985 C45.5020833,784.0035 45.7523333,784.056 46.023,784.056 Z M46.023,783.1845 C45.9273333,783.1845 45.8334167,783.160583 45.74125,783.11275 C45.6490833,783.064917 45.5674167,782.97625 45.49625,782.84675 C45.4250833,782.71725 45.3679167,782.5405 45.32475,782.3165 C45.2815833,782.0925 45.26,781.803167 45.26,781.4485 C45.26,781.096167 45.2815833,780.807417 45.32475,780.58225 C45.3679167,780.357083 45.4250833,780.180333 45.49625,780.052 C45.5674167,779.923667 45.6490833,779.835583 45.74125,779.78775 C45.8334167,779.739917 45.9273333,779.716 46.023,779.716 C46.1186667,779.716 46.2131667,779.739917 46.3065,779.78775 C46.3998333,779.835583 46.48325,779.923667 46.55675,780.052 C46.63025,780.180333 46.6891667,780.357083 46.7335,780.58225 C46.7778333,780.807417 46.8,781.096167 46.8,781.4485 C46.8,781.803167 46.7778333,782.0925 46.7335,782.3165 C46.6891667,782.5405 46.63025,782.71725 46.55675,782.84675 C46.48325,782.97625 46.3998333,783.064917 46.3065,783.11275 C46.2131667,783.160583 46.1186667,783.1845 46.023,783.1845 Z" id="0" fill="#1D1D1D" fill-rule="nonzero"></path>
            <path d="M57.4675,801.4295 L57.4675,800.0365 L58.7625,800.0365 L58.7625,799.2595 L57.4675,799.2595 L57.4675,797.8735 L56.5855,797.8735 L56.5855,799.2595 L55.2975,799.2595 L55.2975,800.0365 L56.5855,800.0365 L56.5855,801.4295 L57.4675,801.4295 Z M63.3607222,802 L63.3607222,801.216 L62.5207222,801.216 L62.5207222,796.897 L61.6247222,796.897 L60.0357222,798.2305 L60.3787222,798.6855 C60.3950555,798.708833 60.4207222,798.731583 60.4557222,798.75375 C60.4907222,798.775917 60.5303889,798.791083 60.5747222,798.79925 C60.6190555,798.807417 60.6663055,798.807417 60.7164722,798.79925 C60.7666389,798.791083 60.8173889,798.767167 60.8687222,798.7275 L60.8687222,798.7275 L61.4497222,798.2445 C61.4450555,798.312167 61.4415555,798.37925 61.4392222,798.44575 C61.4368889,798.51225 61.4357222,798.578167 61.4357222,798.6435 L61.4357222,798.6435 L61.4357222,801.216 L60.4557222,801.216 L60.4557222,802 L63.3607222,802 Z" id="+1" fill="#1D1D1D" fill-rule="nonzero"></path>
            <path d="M70.4675,819.4295 L70.4675,818.0365 L71.7625,818.0365 L71.7625,817.2595 L70.4675,817.2595 L70.4675,815.8735 L69.5855,815.8735 L69.5855,817.2595 L68.2975,817.2595 L68.2975,818.0365 L69.5855,818.0365 L69.5855,819.4295 L70.4675,819.4295 Z M76.4762222,820 L76.4762222,819.37 C76.4762222,819.265 76.4423889,819.180417 76.3747222,819.11625 C76.3070555,819.052083 76.2148889,819.02 76.0982222,819.02 L76.0982222,819.02 L75.1462222,819.02 C75.0388889,819.02 74.9222222,819.0305 74.7962222,819.0515 C74.6702222,819.0725 74.5430555,819.102833 74.4147222,819.1425 L74.4147222,819.1425 L75.4122222,818.1205 C75.5475555,817.982833 75.6753055,817.846917 75.7954722,817.71275 C75.9156389,817.578583 76.0212222,817.43975 76.1122222,817.29625 C76.2032222,817.15275 76.2749722,817.001667 76.3274722,816.843 C76.3799722,816.684333 76.4062222,816.511667 76.4062222,816.325 C76.4062222,816.108 76.3683055,815.909083 76.2924722,815.72825 C76.2166389,815.547417 76.1075555,815.391667 75.9652222,815.261 C75.8228889,815.130333 75.6508055,815.02825 75.4489722,814.95475 C75.2471389,814.88125 75.0202222,814.8445 74.7682222,814.8445 C74.5348889,814.8445 74.3167222,814.875417 74.1137222,814.93725 C73.9107222,814.999083 73.7304722,815.093 73.5729722,815.219 C73.4154722,815.345 73.2836389,815.5025 73.1774722,815.6915 C73.0713055,815.8805 72.9995555,816.102167 72.9622222,816.3565 L72.9622222,816.3565 L73.5362222,816.458 C73.6832222,816.481333 73.7963889,816.472 73.8757222,816.43 C73.9550555,816.388 74.0192222,816.302833 74.0682222,816.1745 C74.1102222,816.0485 74.1866389,815.942917 74.2974722,815.85775 C74.4083055,815.772583 74.5442222,815.73 74.7052222,815.73 C74.9035555,815.73 75.0511389,815.78425 75.1479722,815.89275 C75.2448055,816.00125 75.2932222,816.157 75.2932222,816.36 C75.2932222,816.483667 75.2780555,816.600917 75.2477222,816.71175 C75.2173889,816.822583 75.1718889,816.933417 75.1112222,817.04425 C75.0505555,817.155083 74.9735555,817.267667 74.8802222,817.382 C74.7868889,817.496333 74.6772222,817.6165 74.5512222,817.7425 L74.5512222,817.7425 L73.0812222,819.223 C73.0112222,819.286 72.9622222,819.356 72.9342222,819.433 C72.9062222,819.51 72.8922222,819.582333 72.8922222,819.65 L72.8922222,819.65 L72.8922222,820 L76.4762222,820 Z" id="+2" fill="#1E1E1E" fill-rule="nonzero"></path>
            <path d="M82.4675,837.4295 L82.4675,836.0365 L83.7625,836.0365 L83.7625,835.2595 L82.4675,835.2595 L82.4675,833.8735 L81.5855,833.8735 L81.5855,835.2595 L80.2975,835.2595 L80.2975,836.0365 L81.5855,836.0365 L81.5855,837.4295 L82.4675,837.4295 Z M86.6772222,838.056 C86.9128889,838.056 87.1392222,838.02275 87.3562222,837.95625 C87.5732222,837.88975 87.7639722,837.79 87.9284722,837.657 C88.0929722,837.524 88.2242222,837.357167 88.3222222,837.1565 C88.4202222,836.955833 88.4692222,836.720167 88.4692222,836.4495 C88.4692222,835.877833 88.1868889,835.492833 87.6222222,835.2945 C87.7435555,835.2525 87.8514722,835.200583 87.9459722,835.13875 C88.0404722,835.076917 88.1198055,835.001083 88.1839722,834.91125 C88.2481389,834.821417 88.2965555,834.71525 88.3292222,834.59275 C88.3618889,834.47025 88.3782222,834.3285 88.3782222,834.1675 C88.3782222,833.990167 88.3432222,833.821583 88.2732222,833.66175 C88.2032222,833.501917 88.1005555,833.361333 87.9652222,833.24 C87.8298889,833.118667 87.6642222,833.022417 87.4682222,832.95125 C87.2722222,832.880083 87.0482222,832.8445 86.7962222,832.8445 C86.5628889,832.8445 86.3447222,832.875417 86.1417222,832.93725 C85.9387222,832.999083 85.7584722,833.093 85.6009722,833.219 C85.4434722,833.345 85.3116389,833.5025 85.2054722,833.6915 C85.0993055,833.8805 85.0275555,834.102167 84.9902222,834.3565 L84.9902222,834.3565 L85.5642222,834.458 C85.7112222,834.481333 85.8243889,834.472 85.9037222,834.43 C85.9830555,834.388 86.0472222,834.302833 86.0962222,834.1745 C86.1382222,834.0485 86.2146389,833.942917 86.3254722,833.85775 C86.4363055,833.772583 86.5722222,833.73 86.7332222,833.73 C86.9315555,833.73 87.0791389,833.78425 87.1759722,833.89275 C87.2728055,834.00125 87.3212222,834.155833 87.3212222,834.3565 C87.3212222,834.4545 87.3095555,834.544333 87.2862222,834.626 C87.2628889,834.707667 87.2156389,834.777083 87.1444722,834.83425 C87.0733055,834.891417 86.9723889,834.936333 86.8417222,834.969 C86.7110555,835.001667 86.5395555,835.018 86.3272222,835.018 L86.3272222,835.018 L86.3272222,835.767 C86.5792222,835.767 86.7758055,835.783917 86.9169722,835.81775 C87.0581389,835.851583 87.1637222,835.9 87.2337222,835.963 C87.3037222,836.026 87.3463055,836.10125 87.3614722,836.18875 C87.3766389,836.27625 87.3842222,836.374833 87.3842222,836.4845 C87.3842222,836.5685 87.3690555,836.651333 87.3387222,836.733 C87.3083889,836.814667 87.2634722,836.887583 87.2039722,836.95175 C87.1444722,837.015917 87.0698055,837.068417 86.9799722,837.10925 C86.8901389,837.150083 86.7845555,837.1705 86.6632222,837.1705 C86.5045555,837.1705 86.3663055,837.12675 86.2484722,837.03925 C86.1306389,836.95175 86.0192222,836.811167 85.9142222,836.6175 C85.8675555,836.5335 85.7905555,836.479833 85.6832222,836.4565 C85.5758889,836.433167 85.4592222,836.446 85.3332222,836.495 L85.3332222,836.495 L84.8502222,836.691 C84.9318889,836.929 85.0281389,837.134333 85.1389722,837.307 C85.2498055,837.479667 85.3787222,837.621417 85.5257222,837.73225 C85.6727222,837.843083 85.8407222,837.92475 86.0297222,837.97725 C86.2187222,838.02975 86.4345555,838.056 86.6772222,838.056 Z" id="+3" fill="#1D1D1D" fill-rule="nonzero"></path>
        </g>
    </g>
</svg>