<svg width="40" height="84" viewBox="0 0 40 84" fill="none" xmlns="http://www.w3.org/2000/svg">
<rect x="2.5" y="2.5" width="35" height="16" rx="1" fill="#399DFF"/>
<rect x="2.5" y="2.5" width="35" height="16" rx="1" stroke="#399DFF"/>
<path d="M21.8453 12.632L20.4373 8.784C20.368 8.61333 20.296 8.41067 20.2213 8.176C20.1466 7.94133 20.072 7.688 19.9973 7.416C19.928 7.688 19.856 7.944 19.7813 8.184C19.7066 8.41867 19.6346 8.624 19.5653 8.8L18.1653 12.632H21.8453ZM25.6453 17H23.9813C23.7946 17 23.6426 16.9547 23.5253 16.864C23.408 16.768 23.32 16.6507 23.2613 16.512L22.3973 14.152H17.6053L16.7413 16.512C16.6986 16.6347 16.616 16.7467 16.4933 16.848C16.3706 16.9493 16.2186 17 16.0373 17H14.3573L18.9093 5.432H21.1013L25.6453 17Z" fill="white"/>
<rect x="2.5" y="65.5" width="35" height="16" rx="1" fill="#399DFF"/>
<rect x="2.5" y="65.5" width="35" height="16" rx="1" stroke="#399DFF"/>
<path d="M20.3504 78.32C20.7504 78.32 21.0864 78.272 21.3584 78.176C21.6304 78.08 21.8464 77.952 22.0064 77.792C22.1717 77.632 22.289 77.4453 22.3584 77.232C22.433 77.0187 22.4704 76.792 22.4704 76.552C22.4704 76.3013 22.4304 76.0773 22.3504 75.88C22.2704 75.6773 22.145 75.5067 21.9744 75.368C21.8037 75.224 21.5824 75.1147 21.3104 75.04C21.0437 74.9653 20.721 74.928 20.3424 74.928H18.1744V78.32H20.3504ZM18.1744 70.096V73.44H19.8864C20.6224 73.44 21.177 73.3067 21.5504 73.04C21.929 72.7733 22.1184 72.3493 22.1184 71.768C22.1184 71.1653 21.9477 70.736 21.6064 70.48C21.265 70.224 20.7317 70.096 20.0064 70.096H18.1744ZM20.0064 68.432C20.7637 68.432 21.4117 68.504 21.9504 68.648C22.489 68.792 22.929 68.9973 23.2704 69.264C23.617 69.5307 23.8704 69.8533 24.0304 70.232C24.1904 70.6107 24.2704 71.0373 24.2704 71.512C24.2704 71.784 24.2304 72.0453 24.1504 72.296C24.0704 72.5413 23.945 72.7733 23.7744 72.992C23.609 73.2053 23.3957 73.4 23.1344 73.576C22.8784 73.752 22.5717 73.9013 22.2144 74.024C23.8037 74.3813 24.5984 75.24 24.5984 76.6C24.5984 77.0907 24.505 77.544 24.3184 77.96C24.1317 78.376 23.8597 78.736 23.5024 79.04C23.145 79.3387 22.705 79.5733 22.1824 79.744C21.6597 79.9147 21.0624 80 20.3904 80H16.0224V68.432H20.0064Z" fill="white"/>
</svg>
