<?xml version="1.0" encoding="UTF-8"?>
<svg width="129px" height="180px" viewBox="0 0 129 180" version="1.1" xmlns="http://www.w3.org/2000/svg" xmlns:xlink="http://www.w3.org/1999/xlink">
    <title>hoverOn00108</title>
    <g id="hoverOn00108" stroke="none" stroke-width="1" fill="none" fill-rule="evenodd">
        <g id="Stacked-Group" transform="translate(3.000000, 1.000000)"></g>
        <g id="Stacked-Group-2" transform="translate(4.000000, 2.000000)">
            <g id="Group">
                <rect id="Rectangle" stroke="#000000" fill="#FFFFFF" x="0" y="0" width="11" height="11" rx="1"></rect>
                <g id="Group-57" transform="translate(13.000000, 5.000000)"></g>
            </g>
            <g id="Group" transform="translate(108.000000, 162.000000)" fill="#FFFFFF" stroke="#000000">
                <rect id="Rectangle" x="0" y="0" width="11" height="11" rx="1"></rect>
            </g>
            <g id="Group" transform="translate(60.000000, 90.000000)" fill="#FFFFFF" stroke="#000000">
                <rect id="Rectangle" x="0" y="0" width="11" height="11" rx="1"></rect>
            </g>
            <g id="Group" transform="translate(48.000000, 72.000000)" fill="#FFFFFF" stroke="#000000">
                <rect id="Rectangle" x="0" y="0" width="11" height="11" rx="1"></rect>
            </g>
            <g id="Group" transform="translate(36.000000, 54.000000)" fill="#FFFFFF" stroke="#000000">
                <rect id="Rectangle" x="0" y="0" width="11" height="11" rx="1"></rect>
            </g>
            <g id="Group" transform="translate(24.000000, 36.000000)" fill="#FFFFFF" stroke="#000000">
                <rect id="Rectangle" x="0" y="0" width="11" height="11" rx="1"></rect>
            </g>
            <g id="Group" transform="translate(12.000000, 18.000000)" fill="#FFFFFF" stroke="#000000">
                <rect id="Rectangle" x="0" y="0" width="11" height="11" rx="1"></rect>
            </g>
            <g id="Group" transform="translate(96.000000, 144.000000)" fill="#FFFFFF" stroke="#000000">
                <rect id="Rectangle" x="0" y="0" width="11" height="11" rx="1"></rect>
            </g>
            <g id="Group" transform="translate(84.000000, 126.000000)" fill="#FFFFFF" stroke="#000000">
                <rect id="Rectangle" x="0" y="0" width="11" height="11" rx="1"></rect>
            </g>
            <g id="Group" transform="translate(72.000000, 108.000000)" fill="#FFFFFF" stroke="#000000">
                <rect id="Rectangle" x="0" y="0" width="11" height="11" rx="1"></rect>
            </g>
        </g>
        <g id="Group-68" transform="translate(5.000000, 7.000000)">
            <polygon id="Fill-3" fill="#000000" points="0 1 9 1 9 0 0 0"></polygon>
            <g id="Group-2" transform="translate(96.000000, 144.000000)" stroke="#000000">
                <path d="M0.5,0 C0.5,0.581261171 0.5,1.41510393 0.5,2.50152829 C0.508361583,4.1671761 0.841694917,5 1.5,5 C3,5 2,0.5 3.5,0.5 C5,0.5 3.996551,5 5.5,5 C7.003449,5 6,0.5 7.5,0.5 C8.51279659,0.5 8.51279659,3 8.51279659,5.5" id="Stroke-11"></path>
            </g>
        </g>
        <g id="Group-68" transform="translate(17.000000, 25.000000)" stroke="#000000" stroke-linejoin="round">
            <path d="M0.0012,0.5 L3.71547144,0.5 C3.71547144,0.5 6.5012,1.56432361 6.5012,5" id="Stroke-4"></path>
        </g>
        <g id="Group-68" transform="translate(29.000000, 39.000000)">
            <path d="M0.0012,4.5 L3.71547144,4.5 C3.71547144,4.5 6.5012,5.56432361 6.5012,9" id="Stroke-5" stroke="#000000" stroke-linejoin="round"></path>
            <polygon id="Fill-21" fill="#000000" points="5.9803 0.019 7.0097 0.019 7.0097 2.005 7.9803 2.005 7.9803 1.019 9.0097 1.019 9.0097 4.02 7.9803 4.02 7.9803 3.034 5.9942 3.034 5.9942 3.02 5.9803 3.02"></polygon>
        </g>
        <g id="Group-68" transform="translate(41.000000, 57.000000)">
            <path d="M0.0012,4.5 L3.71547144,4.5 C3.71547144,4.5 6.5012,5.56432361 6.5012,9" id="Stroke-6" stroke="#000000" stroke-linejoin="round"></path>
            <polygon id="Fill-23" fill="#000000" points="5.9976 3.021 6.0013 3.021 6.0013 0 6.9915 0 6.9915 3.021 9.0005 3.021 9.0005 4.011 6.9915 4.011 6.9915 4.015 6.0013 4.015 6.0013 4.011 5.9976 4.011"></polygon>
        </g>
        <g id="Group-68" transform="translate(55.000000, 79.000000)" stroke="#000000" stroke-linejoin="round">
            <path d="M0.512207031,0.5 L4.51220703,0.5 C5.92205811,0.5 7,4.56072998 7,5" id="Stroke-6" transform="translate(3.756104, 2.750000) scale(-1, 1) translate(-3.756104, -2.750000) "></path>
        </g>
        <g id="Group-68" transform="translate(64.000000, 93.000000)">
            <path d="M3.51220703,4.5 L7.51220703,4.5 C8.92205811,4.5 10,8.56072998 10,9" id="Stroke-6" stroke="#000000" stroke-linejoin="round" transform="translate(6.756104, 6.750000) scale(-1, 1) translate(-6.756104, -6.750000) "></path>
            <polygon id="Fill-22" fill="#000000" points="0.9803 0.019 2.0097 0.019 2.0097 2.005 2.9803 2.005 2.9803 1.019 4.0097 1.019 4.0097 4.02 2.9803 4.02 2.9803 3.034 0.9942 3.034 0.9942 3.02 0.9803 3.02"></polygon>
        </g>
        <g id="Group-68" transform="translate(77.000000, 115.000000)" stroke="#000000" stroke-linejoin="round">
            <path d="M0.5,4.99205649 C0.5,1.56244484 4.45172353,0.5 4.45172353,0.5 L4.45897255,0.5 C4.45897255,0.5 8.5,1.57138129 8.5,5" id="Stroke-10"></path>
        </g>
        <g id="Group-68" transform="translate(89.000000, 133.000000)" stroke="#000000" stroke-linejoin="round">
            <path d="M0,0.51279299 C0,0.51279299 4.50490316,0.0297536859 4.50490316,5 L4.50180116,5 C4.50180116,0.0297536859 9,0.51279299 9,0.51279299" id="Stroke-9"></path>
        </g>
        <g id="Group-68" transform="translate(101.000000, 151.000000)">
            <g id="Group-69" transform="translate(18.000000, 0.000000)"></g>
        </g>
        <g id="Group-68" transform="translate(101.000000, 165.000000)">
            <path d="M14.5151,0.448 C14.5151,0.448 12.4281,0.048 12.4291,1.444 C12.4311,2.554 14.5201,2.631 14.5181014,3.463 C14.5151,5.029 12.0931,4.507 12.0931,4.507" id="Fill-18" fill-opacity="0" fill="#FF9D1F"></path>
            <path d="M14.4969057,0.550610502 C14.4969057,0.550610502 12.3453606,0.169259103 12.3463915,1.50017549 C12.3484534,2.55842562 14.5020604,2.63183576 14.5,3.42504668 C14.4969057,4.9180374 12,4.42037383 12,4.42037383" id="Stroke-19" stroke="#000000" stroke-linejoin="round"></path>
            <line x1="14.5" y1="9" x2="18.5" y2="-3.90312782e-18" id="Stroke-20" stroke="#000000" stroke-linejoin="round"></line>
            <g id="Group-69" transform="translate(18.000000, 4.000000)" fill="#000000">
                <path d="M3,5 L2,5 L2,3 L1,3 L1,5 L0,5 L0,0 L1,0 L1,2 L2,2 L2,0 L3,0 L3,5 Z" id="Combined-Shape"></path>
            </g>
        </g>
    </g>
</svg>