<svg width="22" height="30" viewBox="0 0 22 30" fill="none" xmlns="http://www.w3.org/2000/svg">
<rect x="2" y="3" width="15" height="8" rx="1" fill="#399DFF"/>
<rect x="2" y="3" width="15" height="8" rx="1" stroke="black"/>
<path d="M10.873 5.4365C10.838 5.4925 10.8007 5.5345 10.761 5.5625C10.7237 5.5905 10.6747 5.6045 10.614 5.6045C10.5603 5.6045 10.502 5.58817 10.439 5.5555C10.3783 5.5205 10.3083 5.482 10.229 5.44C10.152 5.398 10.0633 5.36067 9.96301 5.328C9.86268 5.293 9.74835 5.2755 9.62001 5.2755C9.39835 5.2755 9.23268 5.32333 9.12301 5.419C9.01568 5.51233 8.96201 5.6395 8.96201 5.8005C8.96201 5.90317 8.99468 5.98833 9.06001 6.056C9.12535 6.12367 9.21051 6.182 9.31551 6.231C9.42285 6.28 9.54418 6.3255 9.67951 6.3675C9.81718 6.40717 9.95718 6.45267 10.0995 6.504C10.2418 6.553 10.3807 6.61133 10.516 6.679C10.6537 6.74667 10.775 6.833 10.88 6.938C10.9873 7.043 11.0737 7.17133 11.139 7.323C11.2043 7.47233 11.237 7.65317 11.237 7.8655C11.237 8.10117 11.1962 8.32167 11.1145 8.527C11.0328 8.73233 10.9138 8.912 10.7575 9.066C10.6035 9.21767 10.4122 9.33783 10.1835 9.4265C9.95718 9.51283 9.69935 9.556 9.41001 9.556C9.25135 9.556 9.08918 9.53967 8.92351 9.507C8.76018 9.47433 8.60151 9.42883 8.44751 9.3705C8.29351 9.30983 8.14885 9.23867 8.01351 9.157C7.87818 9.07533 7.76035 8.98433 7.66001 8.884L8.01001 8.331C8.03801 8.29133 8.07418 8.25867 8.11851 8.233C8.16518 8.205 8.21535 8.191 8.26901 8.191C8.33901 8.191 8.40901 8.21317 8.47901 8.2575C8.55135 8.30183 8.63185 8.35083 8.72051 8.4045C8.81151 8.45817 8.91535 8.50717 9.03201 8.5515C9.14868 8.59583 9.28635 8.618 9.44501 8.618C9.65968 8.618 9.82651 8.57133 9.94551 8.478C10.0645 8.38233 10.124 8.23183 10.124 8.0265C10.124 7.9075 10.0913 7.81067 10.026 7.736C9.96068 7.66133 9.87435 7.5995 9.76701 7.5505C9.66201 7.5015 9.54185 7.45833 9.40651 7.421C9.27118 7.38367 9.13235 7.34283 8.99001 7.2985C8.84768 7.25183 8.70885 7.19583 8.57351 7.1305C8.43818 7.06283 8.31685 6.97533 8.20951 6.868C8.10451 6.75833 8.01935 6.623 7.95401 6.462C7.88868 6.29867 7.85601 6.098 7.85601 5.86C7.85601 5.66867 7.89451 5.482 7.97151 5.3C8.04851 5.118 8.16168 4.95583 8.31101 4.8135C8.46035 4.67117 8.64351 4.558 8.86051 4.474C9.07751 4.38767 9.32601 4.3445 9.60601 4.3445C9.76235 4.3445 9.91401 4.35733 10.061 4.383C10.2103 4.40633 10.3515 4.4425 10.4845 4.4915C10.6175 4.53817 10.7412 4.59533 10.8555 4.663C10.9722 4.72833 11.076 4.803 11.167 4.887L10.873 5.4365Z" fill="white"/>
<rect x="2" y="18" width="15" height="8" rx="1" fill="#FF9300"/>
<rect x="2" y="18" width="15" height="8" rx="1" stroke="white"/>
<path d="M10.873 20.4365C10.838 20.4925 10.8007 20.5345 10.761 20.5625C10.7237 20.5905 10.6747 20.6045 10.614 20.6045C10.5603 20.6045 10.502 20.5882 10.439 20.5555C10.3783 20.5205 10.3083 20.482 10.229 20.44C10.152 20.398 10.0633 20.3607 9.96301 20.328C9.86268 20.293 9.74835 20.2755 9.62001 20.2755C9.39835 20.2755 9.23268 20.3233 9.12301 20.419C9.01568 20.5123 8.96201 20.6395 8.96201 20.8005C8.96201 20.9032 8.99468 20.9883 9.06001 21.056C9.12535 21.1237 9.21051 21.182 9.31551 21.231C9.42285 21.28 9.54418 21.3255 9.67951 21.3675C9.81718 21.4072 9.95718 21.4527 10.0995 21.504C10.2418 21.553 10.3807 21.6113 10.516 21.679C10.6537 21.7467 10.775 21.833 10.88 21.938C10.9873 22.043 11.0737 22.1713 11.139 22.323C11.2043 22.4723 11.237 22.6532 11.237 22.8655C11.237 23.1012 11.1962 23.3217 11.1145 23.527C11.0328 23.7323 10.9138 23.912 10.7575 24.066C10.6035 24.2177 10.4122 24.3378 10.1835 24.4265C9.95718 24.5128 9.69935 24.556 9.41001 24.556C9.25135 24.556 9.08918 24.5397 8.92351 24.507C8.76018 24.4743 8.60151 24.4288 8.44751 24.3705C8.29351 24.3098 8.14885 24.2387 8.01351 24.157C7.87818 24.0753 7.76035 23.9843 7.66001 23.884L8.01001 23.331C8.03801 23.2913 8.07418 23.2587 8.11851 23.233C8.16518 23.205 8.21535 23.191 8.26901 23.191C8.33901 23.191 8.40901 23.2132 8.47901 23.2575C8.55135 23.3018 8.63185 23.3508 8.72051 23.4045C8.81151 23.4582 8.91535 23.5072 9.03201 23.5515C9.14868 23.5958 9.28635 23.618 9.44501 23.618C9.65968 23.618 9.82651 23.5713 9.94551 23.478C10.0645 23.3823 10.124 23.2318 10.124 23.0265C10.124 22.9075 10.0913 22.8107 10.026 22.736C9.96068 22.6613 9.87435 22.5995 9.76701 22.5505C9.66201 22.5015 9.54185 22.4583 9.40651 22.421C9.27118 22.3837 9.13235 22.3428 8.99001 22.2985C8.84768 22.2518 8.70885 22.1958 8.57351 22.1305C8.43818 22.0628 8.31685 21.9753 8.20951 21.868C8.10451 21.7583 8.01935 21.623 7.95401 21.462C7.88868 21.2987 7.85601 21.098 7.85601 20.86C7.85601 20.6687 7.89451 20.482 7.97151 20.3C8.04851 20.118 8.16168 19.9558 8.31101 19.8135C8.46035 19.6712 8.64351 19.558 8.86051 19.474C9.07751 19.3877 9.32601 19.3445 9.60601 19.3445C9.76235 19.3445 9.91401 19.3573 10.061 19.383C10.2103 19.4063 10.3515 19.4425 10.4845 19.4915C10.6175 19.5382 10.7412 19.5953 10.8555 19.663C10.9722 19.7283 11.076 19.803 11.167 19.887L10.873 20.4365Z" fill="black"/>
</svg>
