<?xml version="1.0" encoding="UTF-8"?>
<svg width="96px" height="126px" viewBox="0 0 96 126" version="1.1" xmlns="http://www.w3.org/2000/svg" xmlns:xlink="http://www.w3.org/1999/xlink">
    <title>hover00117</title>
    <g id="hover00117" stroke="none" stroke-width="1" fill="none" fill-rule="evenodd">
        <g id="Group-12-Copy" transform="translate(3.000000, 2.000000)">
            <g id="Group" fill="#399DFF">
                <rect id="Rectangle" x="0" y="0" width="12" height="11" rx="1"></rect>
                <rect id="Rectangle" x="13" y="18" width="12" height="11" rx="1"></rect>
                <rect id="Rectangle" x="25" y="36" width="12" height="11" rx="1"></rect>
                <rect id="Rectangle" x="39" y="54" width="12" height="11" rx="1"></rect>
                <rect id="Rectangle" x="52" y="72" width="12" height="11" rx="1"></rect>
                <rect id="Rectangle" x="65" y="90" width="12" height="11" rx="1"></rect>
                <rect id="Rectangle" x="77" y="108" width="12" height="11" rx="1"></rect>
            </g>
            <g id="Stacked-Group-2" transform="translate(2.000000, 3.000000)">
                <g id="Numbers"></g>
                <g id="Numbers" transform="translate(0.000000, 108.000000)">
                    <g id="Group-4" transform="translate(81.000000, 0.000000)"></g>
                </g>
                <g id="Numbers" transform="translate(0.000000, 90.000000)">
                    <g id="Group-3" transform="translate(69.000000, 0.000000)"></g>
                </g>
                <g id="Numbers" transform="translate(0.000000, 72.000000)"></g>
                <g id="Numbers" transform="translate(0.000000, 54.000000)"></g>
                <g id="Numbers" transform="translate(0.000000, 36.000000)">
                    <g id="Group-2" transform="translate(30.000000, 0.000000)"></g>
                </g>
                <g id="Numbers" transform="translate(0.000000, 18.000000)"></g>
            </g>
            <path d="M5.254,6.3095 L5.254,5.4345 L3.364,5.4345 L3.364,6.3095 L5.254,6.3095 Z M8.2352222,8.056 C8.47088887,8.056 8.6972222,8.02275 8.9142222,7.95625 C9.1312222,7.88975 9.3219722,7.79 9.4864722,7.657 C9.6509722,7.524 9.7822222,7.35716667 9.8802222,7.1565 C9.9782222,6.95583333 10.0272222,6.72016667 10.0272222,6.4495 C10.0272222,5.87783333 9.74488887,5.49283333 9.1802222,5.2945 C9.30155553,5.2525 9.4094722,5.20058333 9.5039722,5.13875 C9.5984722,5.07691667 9.67780553,5.00108333 9.7419722,4.91125 C9.80613887,4.82141667 9.85455553,4.71525 9.8872222,4.59275 C9.91988887,4.47025 9.9362222,4.3285 9.9362222,4.1675 C9.9362222,3.99016667 9.9012222,3.82158333 9.8312222,3.66175 C9.7612222,3.50191667 9.65855553,3.36133333 9.5232222,3.24 C9.38788887,3.11866667 9.2222222,3.02241667 9.0262222,2.95125 C8.8302222,2.88008333 8.6062222,2.8445 8.3542222,2.8445 C8.12088887,2.8445 7.9027222,2.87541667 7.6997222,2.93725 C7.4967222,2.99908333 7.3164722,3.093 7.1589722,3.219 C7.0014722,3.345 6.86963887,3.5025 6.7634722,3.6915 C6.65730553,3.8805 6.58555553,4.10216667 6.5482222,4.3565 L6.5482222,4.3565 L7.1222222,4.458 C7.2692222,4.48133333 7.38238887,4.472 7.4617222,4.43 C7.54105553,4.388 7.6052222,4.30283333 7.6542222,4.1745 C7.6962222,4.0485 7.77263887,3.94291667 7.8834722,3.85775 C7.99430553,3.77258333 8.1302222,3.73 8.2912222,3.73 C8.48955553,3.73 8.63713887,3.78425 8.7339722,3.89275 C8.83080553,4.00125 8.8792222,4.15583333 8.8792222,4.3565 C8.8792222,4.4545 8.86755553,4.54433333 8.8442222,4.626 C8.82088887,4.70766667 8.77363887,4.77708333 8.7024722,4.83425 C8.63130553,4.89141667 8.53038887,4.93633333 8.3997222,4.969 C8.26905553,5.00166667 8.09755553,5.018 7.8852222,5.018 L7.8852222,5.018 L7.8852222,5.767 C8.1372222,5.767 8.33380553,5.78391667 8.4749722,5.81775 C8.61613887,5.85158333 8.7217222,5.9 8.7917222,5.963 C8.8617222,6.026 8.90430553,6.10125 8.9194722,6.18875 C8.93463887,6.27625 8.9422222,6.37483333 8.9422222,6.4845 C8.9422222,6.5685 8.92705553,6.65133333 8.8967222,6.733 C8.86638887,6.81466667 8.8214722,6.88758333 8.7619722,6.95175 C8.7024722,7.01591667 8.62780553,7.06841667 8.5379722,7.10925 C8.44813887,7.15008333 8.34255553,7.1705 8.2212222,7.1705 C8.06255553,7.1705 7.92430553,7.12675 7.8064722,7.03925 C7.68863887,6.95175 7.5772222,6.81116667 7.4722222,6.6175 C7.42555553,6.5335 7.34855553,6.47983333 7.2412222,6.4565 C7.13388887,6.43316667 7.0172222,6.446 6.8912222,6.495 L6.8912222,6.495 L6.4082222,6.691 C6.48988887,6.929 6.58613887,7.13433333 6.6969722,7.307 C6.80780553,7.47966667 6.9367222,7.62141667 7.0837222,7.73225 C7.2307222,7.84308333 7.3987222,7.92475 7.5877222,7.97725 C7.7767222,8.02975 7.99255553,8.056 8.2352222,8.056 Z" id="-3" fill="#FFFFFF" fill-rule="nonzero"></path>
            <path d="M18.254,24.3095 L18.254,23.4345 L16.364,23.4345 L16.364,24.3095 L18.254,24.3095 Z M23.0342222,26 L23.0342222,25.37 C23.0342222,25.265 23.0003889,25.1804167 22.9327222,25.11625 C22.8650555,25.0520833 22.7728889,25.02 22.6562222,25.02 L22.6562222,25.02 L21.7042222,25.02 C21.5968889,25.02 21.4802222,25.0305 21.3542222,25.0515 C21.2282222,25.0725 21.1010555,25.1028333 20.9727222,25.1425 L20.9727222,25.1425 L21.9702222,24.1205 C22.1055555,23.9828333 22.2333055,23.8469167 22.3534722,23.71275 C22.4736389,23.5785833 22.5792222,23.43975 22.6702222,23.29625 C22.7612222,23.15275 22.8329722,23.0016667 22.8854722,22.843 C22.9379722,22.6843333 22.9642222,22.5116667 22.9642222,22.325 C22.9642222,22.108 22.9263055,21.9090833 22.8504722,21.72825 C22.7746389,21.5474167 22.6655555,21.3916667 22.5232222,21.261 C22.3808889,21.1303333 22.2088055,21.02825 22.0069722,20.95475 C21.8051389,20.88125 21.5782222,20.8445 21.3262222,20.8445 C21.0928889,20.8445 20.8747222,20.8754167 20.6717222,20.93725 C20.4687222,20.9990833 20.2884722,21.093 20.1309722,21.219 C19.9734722,21.345 19.8416389,21.5025 19.7354722,21.6915 C19.6293055,21.8805 19.5575555,22.1021667 19.5202222,22.3565 L19.5202222,22.3565 L20.0942222,22.458 C20.2412222,22.4813333 20.3543889,22.472 20.4337222,22.43 C20.5130555,22.388 20.5772222,22.3028333 20.6262222,22.1745 C20.6682222,22.0485 20.7446389,21.9429167 20.8554722,21.85775 C20.9663055,21.7725833 21.1022222,21.73 21.2632222,21.73 C21.4615555,21.73 21.6091389,21.78425 21.7059722,21.89275 C21.8028055,22.00125 21.8512222,22.157 21.8512222,22.36 C21.8512222,22.4836667 21.8360555,22.6009167 21.8057222,22.71175 C21.7753889,22.8225833 21.7298889,22.9334167 21.6692222,23.04425 C21.6085555,23.1550833 21.5315555,23.2676667 21.4382222,23.382 C21.3448889,23.4963333 21.2352222,23.6165 21.1092222,23.7425 L21.1092222,23.7425 L19.6392222,25.223 C19.5692222,25.286 19.5202222,25.356 19.4922222,25.433 C19.4642222,25.51 19.4502222,25.5823333 19.4502222,25.65 L19.4502222,25.65 L19.4502222,26 L23.0342222,26 Z" id="-2" fill="#FFFFFF" fill-rule="nonzero"></path>
            <path d="M30.254,42.3095 L30.254,41.4345 L28.364,41.4345 L28.364,42.3095 L30.254,42.3095 Z M34.9187222,44 L34.9187222,43.216 L34.0787222,43.216 L34.0787222,38.897 L33.1827222,38.897 L31.5937222,40.2305 L31.9367222,40.6855 C31.9530555,40.7088333 31.9787222,40.7315833 32.0137222,40.75375 C32.0487222,40.7759167 32.0883889,40.7910833 32.1327222,40.79925 C32.1770555,40.8074167 32.2243055,40.8074167 32.2744722,40.79925 C32.3246389,40.7910833 32.3753889,40.7671667 32.4267222,40.7275 L32.4267222,40.7275 L33.0077222,40.2445 C33.0030555,40.3121667 32.9995555,40.37925 32.9972222,40.44575 C32.9948889,40.51225 32.9937222,40.5781667 32.9937222,40.6435 L32.9937222,40.6435 L32.9937222,43.216 L32.0137222,43.216 L32.0137222,44 L34.9187222,44 Z" id="-1" fill="#FFFFFF" fill-rule="nonzero"></path>
            <path d="M45.023,62.056 C45.2936667,62.056 45.5450833,62.0035 45.77725,61.8985 C46.0094167,61.7935 46.2100833,61.6336667 46.37925,61.419 C46.5484167,61.2043333 46.6808333,60.9336667 46.7765,60.607 C46.8721667,60.2803333 46.92,59.8941667 46.92,59.4485 C46.92,59.0028333 46.8721667,58.6166667 46.7765,58.29 C46.6808333,57.9633333 46.5484167,57.6926667 46.37925,57.478 C46.2100833,57.2633333 46.0094167,57.1040833 45.77725,57.00025 C45.5450833,56.8964167 45.2936667,56.8445 45.023,56.8445 C44.7523333,56.8445 44.5020833,56.8964167 44.27225,57.00025 C44.0424167,57.1040833 43.8435,57.2633333 43.6755,57.478 C43.5075,57.6926667 43.37625,57.9633333 43.28175,58.29 C43.18725,58.6166667 43.14,59.0028333 43.14,59.4485 C43.14,59.8941667 43.18725,60.2803333 43.28175,60.607 C43.37625,60.9336667 43.5075,61.2043333 43.6755,61.419 C43.8435,61.6336667 44.0424167,61.7935 44.27225,61.8985 C44.5020833,62.0035 44.7523333,62.056 45.023,62.056 Z M45.023,61.1845 C44.9273333,61.1845 44.8334167,61.1605833 44.74125,61.11275 C44.6490833,61.0649167 44.5674167,60.97625 44.49625,60.84675 C44.4250833,60.71725 44.3679167,60.5405 44.32475,60.3165 C44.2815833,60.0925 44.26,59.8031667 44.26,59.4485 C44.26,59.0961667 44.2815833,58.8074167 44.32475,58.58225 C44.3679167,58.3570833 44.4250833,58.1803333 44.49625,58.052 C44.5674167,57.9236667 44.6490833,57.8355833 44.74125,57.78775 C44.8334167,57.7399167 44.9273333,57.716 45.023,57.716 C45.1186667,57.716 45.2131667,57.7399167 45.3065,57.78775 C45.3998333,57.8355833 45.48325,57.9236667 45.55675,58.052 C45.63025,58.1803333 45.6891667,58.3570833 45.7335,58.58225 C45.7778333,58.8074167 45.8,59.0961667 45.8,59.4485 C45.8,59.8031667 45.7778333,60.0925 45.7335,60.3165 C45.6891667,60.5405 45.63025,60.71725 45.55675,60.84675 C45.48325,60.97625 45.3998333,61.0649167 45.3065,61.11275 C45.2131667,61.1605833 45.1186667,61.1845 45.023,61.1845 Z" id="0" fill="#FFFFFF" fill-rule="nonzero"></path>
            <path d="M56.4675,79.4295 L56.4675,78.0365 L57.7625,78.0365 L57.7625,77.2595 L56.4675,77.2595 L56.4675,75.8735 L55.5855,75.8735 L55.5855,77.2595 L54.2975,77.2595 L54.2975,78.0365 L55.5855,78.0365 L55.5855,79.4295 L56.4675,79.4295 Z M62.3607222,80 L62.3607222,79.216 L61.5207222,79.216 L61.5207222,74.897 L60.6247222,74.897 L59.0357222,76.2305 L59.3787222,76.6855 C59.3950555,76.7088333 59.4207222,76.7315833 59.4557222,76.75375 C59.4907222,76.7759167 59.5303889,76.7910833 59.5747222,76.79925 C59.6190555,76.8074167 59.6663055,76.8074167 59.7164722,76.79925 C59.7666389,76.7910833 59.8173889,76.7671667 59.8687222,76.7275 L59.8687222,76.7275 L60.4497222,76.2445 C60.4450555,76.3121667 60.4415555,76.37925 60.4392222,76.44575 C60.4368889,76.51225 60.4357222,76.5781667 60.4357222,76.6435 L60.4357222,76.6435 L60.4357222,79.216 L59.4557222,79.216 L59.4557222,80 L62.3607222,80 Z" id="+1" fill="#FFFFFF" fill-rule="nonzero"></path>
            <path d="M69.4675,97.4295 L69.4675,96.0365 L70.7625,96.0365 L70.7625,95.2595 L69.4675,95.2595 L69.4675,93.8735 L68.5855,93.8735 L68.5855,95.2595 L67.2975,95.2595 L67.2975,96.0365 L68.5855,96.0365 L68.5855,97.4295 L69.4675,97.4295 Z M75.4762222,98 L75.4762222,97.37 C75.4762222,97.265 75.4423889,97.1804167 75.3747222,97.11625 C75.3070555,97.0520833 75.2148889,97.02 75.0982222,97.02 L75.0982222,97.02 L74.1462222,97.02 C74.0388889,97.02 73.9222222,97.0305 73.7962222,97.0515 C73.6702222,97.0725 73.5430555,97.1028333 73.4147222,97.1425 L73.4147222,97.1425 L74.4122222,96.1205 C74.5475555,95.9828333 74.6753055,95.8469167 74.7954722,95.71275 C74.9156389,95.5785833 75.0212222,95.43975 75.1122222,95.29625 C75.2032222,95.15275 75.2749722,95.0016667 75.3274722,94.843 C75.3799722,94.6843333 75.4062222,94.5116667 75.4062222,94.325 C75.4062222,94.108 75.3683055,93.9090833 75.2924722,93.72825 C75.2166389,93.5474167 75.1075555,93.3916667 74.9652222,93.261 C74.8228889,93.1303333 74.6508055,93.02825 74.4489722,92.95475 C74.2471389,92.88125 74.0202222,92.8445 73.7682222,92.8445 C73.5348889,92.8445 73.3167222,92.8754167 73.1137222,92.93725 C72.9107222,92.9990833 72.7304722,93.093 72.5729722,93.219 C72.4154722,93.345 72.2836389,93.5025 72.1774722,93.6915 C72.0713055,93.8805 71.9995555,94.1021667 71.9622222,94.3565 L71.9622222,94.3565 L72.5362222,94.458 C72.6832222,94.4813333 72.7963889,94.472 72.8757222,94.43 C72.9550555,94.388 73.0192222,94.3028333 73.0682222,94.1745 C73.1102222,94.0485 73.1866389,93.9429167 73.2974722,93.85775 C73.4083055,93.7725833 73.5442222,93.73 73.7052222,93.73 C73.9035555,93.73 74.0511389,93.78425 74.1479722,93.89275 C74.2448055,94.00125 74.2932222,94.157 74.2932222,94.36 C74.2932222,94.4836667 74.2780555,94.6009167 74.2477222,94.71175 C74.2173889,94.8225833 74.1718889,94.9334167 74.1112222,95.04425 C74.0505555,95.1550833 73.9735555,95.2676667 73.8802222,95.382 C73.7868889,95.4963333 73.6772222,95.6165 73.5512222,95.7425 L73.5512222,95.7425 L72.0812222,97.223 C72.0112222,97.286 71.9622222,97.356 71.9342222,97.433 C71.9062222,97.51 71.8922222,97.5823333 71.8922222,97.65 L71.8922222,97.65 L71.8922222,98 L75.4762222,98 Z" id="+2" fill="#FFFFFF" fill-rule="nonzero"></path>
            <path d="M81.4675,115.4295 L81.4675,114.0365 L82.7625,114.0365 L82.7625,113.2595 L81.4675,113.2595 L81.4675,111.8735 L80.5855,111.8735 L80.5855,113.2595 L79.2975,113.2595 L79.2975,114.0365 L80.5855,114.0365 L80.5855,115.4295 L81.4675,115.4295 Z M85.6772222,116.056 C85.9128889,116.056 86.1392222,116.02275 86.3562222,115.95625 C86.5732222,115.88975 86.7639722,115.79 86.9284722,115.657 C87.0929722,115.524 87.2242222,115.357167 87.3222222,115.1565 C87.4202222,114.955833 87.4692222,114.720167 87.4692222,114.4495 C87.4692222,113.877833 87.1868889,113.492833 86.6222222,113.2945 C86.7435555,113.2525 86.8514722,113.200583 86.9459722,113.13875 C87.0404722,113.076917 87.1198055,113.001083 87.1839722,112.91125 C87.2481389,112.821417 87.2965555,112.71525 87.3292222,112.59275 C87.3618889,112.47025 87.3782222,112.3285 87.3782222,112.1675 C87.3782222,111.990167 87.3432222,111.821583 87.2732222,111.66175 C87.2032222,111.501917 87.1005555,111.361333 86.9652222,111.24 C86.8298889,111.118667 86.6642222,111.022417 86.4682222,110.95125 C86.2722222,110.880083 86.0482222,110.8445 85.7962222,110.8445 C85.5628889,110.8445 85.3447222,110.875417 85.1417222,110.93725 C84.9387222,110.999083 84.7584722,111.093 84.6009722,111.219 C84.4434722,111.345 84.3116389,111.5025 84.2054722,111.6915 C84.0993055,111.8805 84.0275555,112.102167 83.9902222,112.3565 L83.9902222,112.3565 L84.5642222,112.458 C84.7112222,112.481333 84.8243889,112.472 84.9037222,112.43 C84.9830555,112.388 85.0472222,112.302833 85.0962222,112.1745 C85.1382222,112.0485 85.2146389,111.942917 85.3254722,111.85775 C85.4363055,111.772583 85.5722222,111.73 85.7332222,111.73 C85.9315555,111.73 86.0791389,111.78425 86.1759722,111.89275 C86.2728055,112.00125 86.3212222,112.155833 86.3212222,112.3565 C86.3212222,112.4545 86.3095555,112.544333 86.2862222,112.626 C86.2628889,112.707667 86.2156389,112.777083 86.1444722,112.83425 C86.0733055,112.891417 85.9723889,112.936333 85.8417222,112.969 C85.7110555,113.001667 85.5395555,113.018 85.3272222,113.018 L85.3272222,113.018 L85.3272222,113.767 C85.5792222,113.767 85.7758055,113.783917 85.9169722,113.81775 C86.0581389,113.851583 86.1637222,113.9 86.2337222,113.963 C86.3037222,114.026 86.3463055,114.10125 86.3614722,114.18875 C86.3766389,114.27625 86.3842222,114.374833 86.3842222,114.4845 C86.3842222,114.5685 86.3690555,114.651333 86.3387222,114.733 C86.3083889,114.814667 86.2634722,114.887583 86.2039722,114.95175 C86.1444722,115.015917 86.0698055,115.068417 85.9799722,115.10925 C85.8901389,115.150083 85.7845555,115.1705 85.6632222,115.1705 C85.5045555,115.1705 85.3663055,115.12675 85.2484722,115.03925 C85.1306389,114.95175 85.0192222,114.811167 84.9142222,114.6175 C84.8675555,114.5335 84.7905555,114.479833 84.6832222,114.4565 C84.5758889,114.433167 84.4592222,114.446 84.3332222,114.495 L84.3332222,114.495 L83.8502222,114.691 C83.9318889,114.929 84.0281389,115.134333 84.1389722,115.307 C84.2498055,115.479667 84.3787222,115.621417 84.5257222,115.73225 C84.6727222,115.843083 84.8407222,115.92475 85.0297222,115.97725 C85.2187222,116.02975 85.4345555,116.056 85.6772222,116.056 Z" id="+3" fill="#FFFFFF" fill-rule="nonzero"></path>
        </g>
    </g>
</svg>