<?xml version="1.0" encoding="UTF-8"?>
<svg width="43px" height="14px" viewBox="0 0 43 14" version="1.1" xmlns="http://www.w3.org/2000/svg" xmlns:xlink="http://www.w3.org/1999/xlink">
    <title>hoverOn00126</title>
    <g id="hoverOn00126" stroke="none" stroke-width="1" fill="none" fill-rule="evenodd">
        <g id="Group-4" transform="translate(1.000000, 1.000000)"></g>
        <g id="Group-4" transform="translate(0.000000, 7.000000)" fill="#FF9000" stroke="#FFFFFF">
            <rect id="Rectangle" x="0.5" y="0.5" width="42" height="6" rx="1"></rect>
        </g>
        <g id="Group-7-Copy" transform="translate(3.000000, 7.000000)" fill="#000000" fill-rule="nonzero">
            <path d="M1.603,6 L1.603,4.1135 L1.904,4.1135 C1.995,4.1135 2.06558333,4.1275 2.11575,4.1555 C2.16591667,4.1835 2.20966667,4.23016667 2.247,4.2955 L2.247,4.2955 L3.094,5.776 C3.18033333,5.92533333 3.32266667,6 3.521,6 L3.521,6 L4.592,6 L3.507,4.2255 C3.45566667,4.1415 3.39558333,4.07033333 3.32675,4.012 C3.25791667,3.95366667 3.18383333,3.90466667 3.1045,3.865 C3.27016667,3.802 3.41658333,3.7215 3.54375,3.6235 C3.67091667,3.5255 3.77825,3.41408333 3.86575,3.28925 C3.95325,3.16441667 4.01916667,3.0285 4.0635,2.8815 C4.10783333,2.7345 4.13,2.57816667 4.13,2.4125 C4.13,2.1955 4.09266667,1.99483333 4.018,1.8105 C3.94333333,1.62616667 3.82375,1.46633333 3.65925,1.331 C3.49475,1.19566667 3.28241667,1.09008333 3.02225,1.01425 C2.76208333,0.938416667 2.44766667,0.9005 2.079,0.9005 L2.079,0.9005 L0.42,0.9005 L0.42,6 L1.603,6 Z M2.079,3.298 L1.603,3.298 L1.603,1.786 L2.079,1.786 C2.38466667,1.786 2.61041667,1.849 2.75625,1.975 C2.90208333,2.101 2.975,2.276 2.975,2.5 C2.975,2.612 2.95866667,2.71641667 2.926,2.81325 C2.89333333,2.91008333 2.84083333,2.99466667 2.7685,3.067 C2.69616667,3.13933333 2.60341667,3.19591667 2.49025,3.23675 C2.37708333,3.27758333 2.24,3.298 2.079,3.298 L2.079,3.298 Z M8.258,6 L8.258,5.09 L6.165,5.09 L6.165,3.8755 L7.768,3.8755 L7.768,3.0005 L6.165,3.0005 L6.165,1.8105 L8.258,1.8105 L8.258,0.9005 L4.975,0.9005 L4.975,6 L8.258,6 Z M11.098,6 L11.098,1.8385 L12.533,1.8385 L12.533,0.9005 L8.48,0.9005 L8.48,1.8385 L9.915,1.8385 L9.915,6 L11.098,6 Z M14.106,6 L14.106,4.1135 L14.407,4.1135 C14.498,4.1135 14.5685833,4.1275 14.61875,4.1555 C14.6689167,4.1835 14.7126667,4.23016667 14.75,4.2955 L14.75,4.2955 L15.597,5.776 C15.6833333,5.92533333 15.8256667,6 16.024,6 L16.024,6 L17.095,6 L16.01,4.2255 C15.9586667,4.1415 15.8985833,4.07033333 15.82975,4.012 C15.7609167,3.95366667 15.6868333,3.90466667 15.6075,3.865 C15.7731667,3.802 15.9195833,3.7215 16.04675,3.6235 C16.1739167,3.5255 16.28125,3.41408333 16.36875,3.28925 C16.45625,3.16441667 16.5221667,3.0285 16.5665,2.8815 C16.6108333,2.7345 16.633,2.57816667 16.633,2.4125 C16.633,2.1955 16.5956667,1.99483333 16.521,1.8105 C16.4463333,1.62616667 16.32675,1.46633333 16.16225,1.331 C15.99775,1.19566667 15.7854167,1.09008333 15.52525,1.01425 C15.2650833,0.938416667 14.9506667,0.9005 14.582,0.9005 L14.582,0.9005 L12.923,0.9005 L12.923,6 L14.106,6 Z M14.582,3.298 L14.106,3.298 L14.106,1.786 L14.582,1.786 C14.8876667,1.786 15.1134167,1.849 15.25925,1.975 C15.4050833,2.101 15.478,2.276 15.478,2.5 C15.478,2.612 15.4616667,2.71641667 15.429,2.81325 C15.3963333,2.91008333 15.3438333,2.99466667 15.2715,3.067 C15.1991667,3.13933333 15.1064167,3.19591667 14.99325,3.23675 C14.8800833,3.27758333 14.743,3.298 14.582,3.298 L14.582,3.298 Z M18.773,6 L18.773,0.9005 L17.583,0.9005 L17.583,6 L18.773,6 Z M21.928,6.056 C22.1356667,6.056 22.3299167,6.0455 22.51075,6.0245 C22.6915833,6.0035 22.8619167,5.97083333 23.02175,5.9265 C23.1815833,5.88216667 23.3320833,5.82558333 23.47325,5.75675 C23.6144167,5.68791667 23.7503333,5.60566667 23.881,5.51 L23.881,5.51 L23.881,3.3575 L22.068,3.3575 L22.068,4.0085 C22.068,4.06916667 22.089,4.11933333 22.131,4.159 C22.173,4.19866667 22.2313333,4.2185 22.306,4.2185 L22.306,4.2185 L22.81,4.2185 L22.81,4.992 C22.698,5.03866667 22.579,5.076 22.453,5.104 C22.327,5.132 22.1823333,5.146 22.019,5.146 C21.8043333,5.146 21.6065833,5.10808333 21.42575,5.03225 C21.2449167,4.95641667 21.0885833,4.84616667 20.95675,4.7015 C20.8249167,4.55683333 20.7216667,4.3795 20.647,4.1695 C20.5723333,3.9595 20.535,3.71916667 20.535,3.4485 C20.535,3.2035 20.5688333,2.98125 20.6365,2.78175 C20.7041667,2.58225 20.8004167,2.41133333 20.92525,2.269 C21.0500833,2.12666667 21.2011667,2.01641667 21.3785,1.93825 C21.5558333,1.86008333 21.7553333,1.821 21.977,1.821 C22.096,1.821 22.2033333,1.82683333 22.299,1.8385 C22.3946667,1.85016667 22.4856667,1.86883333 22.572,1.8945 C22.6583333,1.92016667 22.7429167,1.95341667 22.82575,1.99425 C22.9085833,2.03508333 22.9966667,2.0835 23.09,2.1395 C23.1646667,2.18616667 23.237,2.2095 23.307,2.2095 C23.3606667,2.2095 23.41025,2.1955 23.45575,2.1675 C23.50125,2.1395 23.5403333,2.101 23.573,2.052 L23.573,2.052 L23.916,1.5305 C23.8133333,1.4325 23.6966667,1.3415 23.566,1.2575 C23.4353333,1.1735 23.29125,1.10116667 23.13375,1.0405 C22.97625,0.979833333 22.8041667,0.932 22.6175,0.897 C22.4308333,0.862 22.2313333,0.8445 22.019,0.8445 C21.6083333,0.8445 21.23675,0.908666667 20.90425,1.037 C20.57175,1.16533333 20.28825,1.345 20.05375,1.576 C19.81925,1.807 19.639,2.08175 19.513,2.40025 C19.387,2.71875 19.324,3.06816667 19.324,3.4485 C19.324,3.82183333 19.3899167,4.16775 19.52175,4.48625 C19.6535833,4.80475 19.8355833,5.08008333 20.06775,5.31225 C20.2999167,5.54441667 20.5746667,5.72641667 20.892,5.85825 C21.2093333,5.99008333 21.5546667,6.056 21.928,6.056 Z M26.812,6.056 C27.0196667,6.056 27.2139167,6.0455 27.39475,6.0245 C27.5755833,6.0035 27.7459167,5.97083333 27.90575,5.9265 C28.0655833,5.88216667 28.2160833,5.82558333 28.35725,5.75675 C28.4984167,5.68791667 28.6343333,5.60566667 28.765,5.51 L28.765,5.51 L28.765,3.3575 L26.952,3.3575 L26.952,4.0085 C26.952,4.06916667 26.973,4.11933333 27.015,4.159 C27.057,4.19866667 27.1153333,4.2185 27.19,4.2185 L27.19,4.2185 L27.694,4.2185 L27.694,4.992 C27.582,5.03866667 27.463,5.076 27.337,5.104 C27.211,5.132 27.0663333,5.146 26.903,5.146 C26.6883333,5.146 26.4905833,5.10808333 26.30975,5.03225 C26.1289167,4.95641667 25.9725833,4.84616667 25.84075,4.7015 C25.7089167,4.55683333 25.6056667,4.3795 25.531,4.1695 C25.4563333,3.9595 25.419,3.71916667 25.419,3.4485 C25.419,3.2035 25.4528333,2.98125 25.5205,2.78175 C25.5881667,2.58225 25.6844167,2.41133333 25.80925,2.269 C25.9340833,2.12666667 26.0851667,2.01641667 26.2625,1.93825 C26.4398333,1.86008333 26.6393333,1.821 26.861,1.821 C26.98,1.821 27.0873333,1.82683333 27.183,1.8385 C27.2786667,1.85016667 27.3696667,1.86883333 27.456,1.8945 C27.5423333,1.92016667 27.6269167,1.95341667 27.70975,1.99425 C27.7925833,2.03508333 27.8806667,2.0835 27.974,2.1395 C28.0486667,2.18616667 28.121,2.2095 28.191,2.2095 C28.2446667,2.2095 28.29425,2.1955 28.33975,2.1675 C28.38525,2.1395 28.4243333,2.101 28.457,2.052 L28.457,2.052 L28.8,1.5305 C28.6973333,1.4325 28.5806667,1.3415 28.45,1.2575 C28.3193333,1.1735 28.17525,1.10116667 28.01775,1.0405 C27.86025,0.979833333 27.6881667,0.932 27.5015,0.897 C27.3148333,0.862 27.1153333,0.8445 26.903,0.8445 C26.4923333,0.8445 26.12075,0.908666667 25.78825,1.037 C25.45575,1.16533333 25.17225,1.345 24.93775,1.576 C24.70325,1.807 24.523,2.08175 24.397,2.40025 C24.271,2.71875 24.208,3.06816667 24.208,3.4485 C24.208,3.82183333 24.2739167,4.16775 24.40575,4.48625 C24.5375833,4.80475 24.7195833,5.08008333 24.95175,5.31225 C25.1839167,5.54441667 25.4586667,5.72641667 25.776,5.85825 C26.0933333,5.99008333 26.4386667,6.056 26.812,6.056 Z M32.669,6 L32.669,5.09 L30.576,5.09 L30.576,3.8755 L32.179,3.8755 L32.179,3.0005 L30.576,3.0005 L30.576,1.8105 L32.669,1.8105 L32.669,0.9005 L29.386,0.9005 L29.386,6 L32.669,6 Z M34.424,6 L34.424,4.1135 L34.725,4.1135 C34.816,4.1135 34.8865833,4.1275 34.93675,4.1555 C34.9869167,4.1835 35.0306667,4.23016667 35.068,4.2955 L35.068,4.2955 L35.915,5.776 C36.0013333,5.92533333 36.1436667,6 36.342,6 L36.342,6 L37.413,6 L36.328,4.2255 C36.2766667,4.1415 36.2165833,4.07033333 36.14775,4.012 C36.0789167,3.95366667 36.0048333,3.90466667 35.9255,3.865 C36.0911667,3.802 36.2375833,3.7215 36.36475,3.6235 C36.4919167,3.5255 36.59925,3.41408333 36.68675,3.28925 C36.77425,3.16441667 36.8401667,3.0285 36.8845,2.8815 C36.9288333,2.7345 36.951,2.57816667 36.951,2.4125 C36.951,2.1955 36.9136667,1.99483333 36.839,1.8105 C36.7643333,1.62616667 36.64475,1.46633333 36.48025,1.331 C36.31575,1.19566667 36.1034167,1.09008333 35.84325,1.01425 C35.5830833,0.938416667 35.2686667,0.9005 34.9,0.9005 L34.9,0.9005 L33.241,0.9005 L33.241,6 L34.424,6 Z M34.9,3.298 L34.424,3.298 L34.424,1.786 L34.9,1.786 C35.2056667,1.786 35.4314167,1.849 35.57725,1.975 C35.7230833,2.101 35.796,2.276 35.796,2.5 C35.796,2.612 35.7796667,2.71641667 35.747,2.81325 C35.7143333,2.91008333 35.6618333,2.99466667 35.5895,3.067 C35.5171667,3.13933333 35.4244167,3.19591667 35.31125,3.23675 C35.1980833,3.27758333 35.061,3.298 34.9,3.298 L34.9,3.298 Z" id="RETRIGGER"></path>
        </g>
    </g>
</svg>