<svg width="37" height="12" viewBox="0 0 37 12" fill="none" xmlns="http://www.w3.org/2000/svg">
<rect x="2.5" y="2.5" width="32" height="7" rx="1" fill="#399DFF"/>
<rect x="2.5" y="2.5" width="32" height="7" rx="1" stroke="#399DFF"/>
<path d="M12.9107 4.356C12.8707 4.42 12.8281 4.468 12.7827 4.5C12.7401 4.532 12.6841 4.548 12.6147 4.548C12.5534 4.548 12.4867 4.52933 12.4147 4.492C12.3454 4.452 12.2654 4.408 12.1747 4.36C12.0867 4.312 11.9854 4.26933 11.8707 4.232C11.7561 4.192 11.6254 4.172 11.4787 4.172C11.2254 4.172 11.0361 4.22667 10.9107 4.336C10.7881 4.44267 10.7267 4.588 10.7267 4.772C10.7267 4.88933 10.7641 4.98667 10.8387 5.064C10.9134 5.14133 11.0107 5.208 11.1307 5.264C11.2534 5.32 11.3921 5.372 11.5467 5.42C11.7041 5.46533 11.8641 5.51733 12.0267 5.576C12.1894 5.632 12.3481 5.69867 12.5027 5.776C12.6601 5.85333 12.7987 5.952 12.9187 6.072C13.0414 6.192 13.1401 6.33867 13.2147 6.512C13.2894 6.68267 13.3267 6.88933 13.3267 7.132C13.3267 7.40133 13.2801 7.65333 13.1867 7.888C13.0934 8.12267 12.9574 8.328 12.7787 8.504C12.6027 8.67733 12.3841 8.81467 12.1227 8.916C11.8641 9.01467 11.5694 9.064 11.2387 9.064C11.0574 9.064 10.8721 9.04533 10.6827 9.008C10.4961 8.97067 10.3147 8.91867 10.1387 8.852C9.96272 8.78267 9.79739 8.70133 9.64272 8.608C9.48805 8.51467 9.35339 8.41067 9.23872 8.296L9.63872 7.664C9.67072 7.61867 9.71205 7.58133 9.76272 7.552C9.81605 7.52 9.87339 7.504 9.93472 7.504C10.0147 7.504 10.0947 7.52933 10.1747 7.58C10.2574 7.63067 10.3494 7.68667 10.4507 7.748C10.5547 7.80933 10.6734 7.86533 10.8067 7.916C10.9401 7.96667 11.0974 7.992 11.2787 7.992C11.5241 7.992 11.7147 7.93867 11.8507 7.832C11.9867 7.72267 12.0547 7.55067 12.0547 7.316C12.0547 7.18 12.0174 7.06933 11.9427 6.984C11.8681 6.89867 11.7694 6.828 11.6467 6.772C11.5267 6.716 11.3894 6.66667 11.2347 6.624C11.0801 6.58133 10.9214 6.53467 10.7587 6.484C10.5961 6.43067 10.4374 6.36667 10.2827 6.292C10.1281 6.21467 9.98939 6.11467 9.86672 5.992C9.74672 5.86667 9.64939 5.712 9.57472 5.528C9.50005 5.34133 9.46272 5.112 9.46272 4.84C9.46272 4.62133 9.50672 4.408 9.59472 4.2C9.68272 3.992 9.81205 3.80667 9.98272 3.644C10.1534 3.48133 10.3627 3.352 10.6107 3.256C10.8587 3.15733 11.1427 3.108 11.4627 3.108C11.6414 3.108 11.8147 3.12267 11.9827 3.152C12.1534 3.17867 12.3147 3.22 12.4667 3.276C12.6187 3.32933 12.7601 3.39467 12.8907 3.472C13.0241 3.54667 13.1427 3.632 13.2467 3.728L12.9107 4.356ZM15.1607 9.064C14.9634 9.064 14.7887 9.036 14.6367 8.98C14.4874 8.92133 14.3607 8.84 14.2567 8.736C14.1554 8.62933 14.0781 8.50133 14.0247 8.352C13.9714 8.20267 13.9447 8.036 13.9447 7.852V5.708H13.5927C13.5287 5.708 13.4741 5.688 13.4287 5.648C13.3834 5.60533 13.3607 5.544 13.3607 5.464V4.98L14.0207 4.852L14.2647 3.84C14.2967 3.712 14.3874 3.648 14.5367 3.648H15.1847V4.86H16.2127V5.708H15.1847V7.768C15.1847 7.864 15.2074 7.944 15.2527 8.008C15.3007 8.06933 15.3687 8.1 15.4567 8.1C15.5021 8.1 15.5394 8.096 15.5687 8.088C15.6007 8.07733 15.6274 8.06667 15.6487 8.056C15.6727 8.04267 15.6941 8.032 15.7127 8.024C15.7341 8.01333 15.7581 8.008 15.7847 8.008C15.8221 8.008 15.8514 8.01733 15.8727 8.036C15.8967 8.052 15.9207 8.07867 15.9447 8.116L16.3207 8.704C16.1607 8.824 15.9807 8.91467 15.7807 8.976C15.5807 9.03467 15.3741 9.064 15.1607 9.064ZM18.5 4.788C18.8146 4.788 19.1013 4.83733 19.36 4.936C19.6186 5.03467 19.84 5.176 20.024 5.36C20.2106 5.544 20.3546 5.768 20.456 6.032C20.56 6.29333 20.612 6.588 20.612 6.916C20.612 7.24667 20.56 7.54533 20.456 7.812C20.3546 8.076 20.2106 8.30133 20.024 8.488C19.84 8.672 19.6186 8.81467 19.36 8.916C19.1013 9.01467 18.8146 9.064 18.5 9.064C18.1826 9.064 17.8933 9.01467 17.632 8.916C17.3733 8.81467 17.1493 8.672 16.96 8.488C16.7733 8.30133 16.628 8.076 16.524 7.812C16.4226 7.54533 16.372 7.24667 16.372 6.916C16.372 6.588 16.4226 6.29333 16.524 6.032C16.628 5.768 16.7733 5.544 16.96 5.36C17.1493 5.176 17.3733 5.03467 17.632 4.936C17.8933 4.83733 18.1826 4.788 18.5 4.788ZM18.5 8.144C18.7853 8.144 18.9946 8.044 19.128 7.844C19.264 7.64133 19.332 7.33467 19.332 6.924C19.332 6.51333 19.264 6.208 19.128 6.008C18.9946 5.808 18.7853 5.708 18.5 5.708C18.2066 5.708 17.992 5.808 17.856 6.008C17.72 6.208 17.652 6.51333 17.652 6.924C17.652 7.33467 17.72 7.64133 17.856 7.844C17.992 8.044 18.2066 8.144 18.5 8.144ZM22.2764 5.492C22.4044 5.268 22.5511 5.092 22.7164 4.964C22.8844 4.836 23.0764 4.772 23.2924 4.772C23.4791 4.772 23.6311 4.816 23.7484 4.904L23.6684 5.816C23.6551 5.87467 23.6324 5.91467 23.6004 5.936C23.5711 5.95733 23.5297 5.968 23.4764 5.968C23.4551 5.968 23.4271 5.96667 23.3924 5.964C23.3577 5.96133 23.3217 5.95867 23.2844 5.956C23.2471 5.95067 23.2084 5.94667 23.1684 5.944C23.1311 5.93867 23.0964 5.936 23.0644 5.936C22.8831 5.936 22.7377 5.984 22.6284 6.08C22.5217 6.176 22.4311 6.30933 22.3564 6.48V9H21.1164V4.852H21.8524C21.9137 4.852 21.9644 4.85733 22.0044 4.868C22.0471 4.87867 22.0817 4.896 22.1084 4.92C22.1377 4.94133 22.1591 4.97067 22.1724 5.008C22.1884 5.04533 22.2017 5.09067 22.2124 5.144L22.2764 5.492ZM26.5608 6.428C26.5608 6.32933 26.5474 6.23333 26.5208 6.14C26.4968 6.04667 26.4554 5.964 26.3968 5.892C26.3408 5.81733 26.2661 5.75733 26.1728 5.712C26.0794 5.66667 25.9661 5.644 25.8328 5.644C25.5981 5.644 25.4141 5.712 25.2808 5.848C25.1474 5.98133 25.0594 6.17467 25.0168 6.428H26.5608ZM25.0008 7.148C25.0408 7.49467 25.1461 7.74667 25.3168 7.904C25.4874 8.05867 25.7074 8.136 25.9768 8.136C26.1208 8.136 26.2448 8.11867 26.3488 8.084C26.4528 8.04933 26.5448 8.01067 26.6248 7.968C26.7074 7.92533 26.7821 7.88667 26.8488 7.852C26.9181 7.81733 26.9901 7.8 27.0648 7.8C27.1634 7.8 27.2381 7.836 27.2888 7.908L27.6488 8.352C27.5208 8.49867 27.3821 8.61867 27.2328 8.712C27.0861 8.80267 26.9341 8.87467 26.7768 8.928C26.6221 8.97867 26.4661 9.01333 26.3088 9.032C26.1541 9.05333 26.0061 9.064 25.8648 9.064C25.5741 9.064 25.3008 9.01733 25.0448 8.924C24.7914 8.828 24.5688 8.68667 24.3768 8.5C24.1874 8.31333 24.0368 8.08133 23.9248 7.804C23.8154 7.52667 23.7608 7.204 23.7608 6.836C23.7608 6.55867 23.8074 6.296 23.9008 6.048C23.9968 5.8 24.1328 5.58267 24.3088 5.396C24.4874 5.20933 24.7021 5.06133 24.9528 4.952C25.2061 4.84267 25.4914 4.788 25.8088 4.788C26.0834 4.788 26.3341 4.83067 26.5608 4.916C26.7901 5.00133 26.9861 5.12533 27.1488 5.288C27.3141 5.45067 27.4421 5.65067 27.5328 5.888C27.6261 6.12267 27.6728 6.38933 27.6728 6.688C27.6728 6.78133 27.6688 6.85733 27.6608 6.916C27.6528 6.97467 27.6381 7.02133 27.6168 7.056C27.5954 7.09067 27.5661 7.11467 27.5288 7.128C27.4941 7.14133 27.4488 7.148 27.3928 7.148H25.0008Z" fill="white"/>
</svg>
