<svg width="74" height="39" viewBox="0 0 74 39" fill="none" xmlns="http://www.w3.org/2000/svg">
<rect x="1" y="1" width="23" height="11" rx="1" fill="#399DFF"/>
<rect x="1" y="1" width="23" height="11" rx="1" stroke="#399DFF"/>
<path d="M14.3837 8.604V9.5H11.0637V8.604H12.1837V5.664C12.1837 5.58933 12.185 5.51467 12.1877 5.44C12.1904 5.36267 12.1944 5.28533 12.1997 5.208L11.5357 5.76C11.477 5.80533 11.4184 5.83333 11.3597 5.844C11.3037 5.852 11.2504 5.852 11.1997 5.844C11.149 5.83333 11.1037 5.816 11.0637 5.792C11.0237 5.76533 10.9944 5.73867 10.9757 5.712L10.5837 5.192L12.3997 3.668H13.4237V8.604H14.3837Z" fill="white"/>
<rect x="25.75" y="14" width="23" height="11" rx="1" fill="#399DFF"/>
<rect x="25.75" y="14" width="23" height="11" rx="1" stroke="#399DFF"/>
<path d="M38.8337 21.38C38.967 21.38 39.0724 21.4173 39.1497 21.492C39.227 21.564 39.2657 21.66 39.2657 21.78V22.5H35.1697V22.1C35.1697 22.0227 35.1857 21.94 35.2177 21.852C35.2497 21.764 35.3057 21.684 35.3857 21.612L37.0657 19.92C37.2097 19.776 37.335 19.6387 37.4417 19.508C37.5484 19.3773 37.6364 19.2493 37.7057 19.124C37.775 18.996 37.827 18.8693 37.8617 18.744C37.8964 18.616 37.9137 18.4813 37.9137 18.34C37.9137 18.108 37.8577 17.9307 37.7457 17.808C37.6364 17.6827 37.4684 17.62 37.2417 17.62C37.0577 17.62 36.9017 17.6693 36.7737 17.768C36.6484 17.864 36.5617 17.984 36.5137 18.128C36.4577 18.2747 36.3844 18.372 36.2937 18.42C36.203 18.468 36.0737 18.4787 35.9057 18.452L35.2497 18.336C35.2924 18.0453 35.3737 17.792 35.4937 17.576C35.6164 17.36 35.767 17.18 35.9457 17.036C36.127 16.892 36.3337 16.7853 36.5657 16.716C36.7977 16.644 37.047 16.608 37.3137 16.608C37.6017 16.608 37.8604 16.6507 38.0897 16.736C38.3217 16.8187 38.519 16.9347 38.6817 17.084C38.8444 17.2333 38.9684 17.412 39.0537 17.62C39.1417 17.8253 39.1857 18.052 39.1857 18.3C39.1857 18.5133 39.155 18.7107 39.0937 18.892C39.035 19.0733 38.9537 19.2467 38.8497 19.412C38.7457 19.5747 38.6244 19.7333 38.4857 19.888C38.3497 20.04 38.2044 20.1947 38.0497 20.352L36.9097 21.52C37.0564 21.4747 37.2017 21.44 37.3457 21.416C37.4897 21.392 37.623 21.38 37.7457 21.38H38.8337Z" fill="white"/>
<rect x="50.5" y="27" width="23" height="11" rx="1" fill="#399DFF"/>
<rect x="50.5" y="27" width="23" height="11" rx="1" stroke="#399DFF"/>
<path d="M60.0317 31.336C60.0744 31.0453 60.1557 30.792 60.2757 30.576C60.3984 30.36 60.549 30.18 60.7277 30.036C60.909 29.892 61.1157 29.7853 61.3477 29.716C61.5797 29.644 61.829 29.608 62.0957 29.608C62.3837 29.608 62.6397 29.6493 62.8637 29.732C63.0877 29.812 63.277 29.9213 63.4317 30.06C63.5864 30.1987 63.7037 30.36 63.7837 30.544C63.8637 30.7253 63.9037 30.9173 63.9037 31.12C63.9037 31.304 63.885 31.4667 63.8477 31.608C63.8104 31.7467 63.7544 31.868 63.6797 31.972C63.6077 32.0733 63.517 32.16 63.4077 32.232C63.301 32.3013 63.1784 32.36 63.0397 32.408C63.685 32.6347 64.0077 33.0747 64.0077 33.728C64.0077 34.0373 63.9517 34.3067 63.8397 34.536C63.7277 34.7653 63.577 34.956 63.3877 35.108C63.201 35.26 62.9837 35.3747 62.7357 35.452C62.4877 35.5267 62.229 35.564 61.9597 35.564C61.6824 35.564 61.4357 35.5347 61.2197 35.476C61.0037 35.4147 60.8117 35.3213 60.6437 35.196C60.4757 35.068 60.3277 34.9053 60.1997 34.708C60.0744 34.5107 59.965 34.276 59.8717 34.004L60.4237 33.78C60.5677 33.724 60.701 33.7093 60.8237 33.736C60.9464 33.7627 61.0344 33.824 61.0877 33.92C61.2077 34.1413 61.3344 34.3027 61.4677 34.404C61.6037 34.5027 61.7624 34.552 61.9437 34.552C62.0824 34.552 62.2024 34.5293 62.3037 34.484C62.4077 34.436 62.493 34.376 62.5597 34.304C62.629 34.2293 62.681 34.1453 62.7157 34.052C62.7504 33.9587 62.7677 33.864 62.7677 33.768C62.7677 33.6427 62.7584 33.5307 62.7397 33.432C62.7237 33.3307 62.6757 33.244 62.5957 33.172C62.5157 33.1 62.3944 33.0453 62.2317 33.008C62.0717 32.968 61.8477 32.948 61.5597 32.948V32.092C61.8024 32.092 61.9984 32.0733 62.1477 32.036C62.297 31.9987 62.4117 31.948 62.4917 31.884C62.5744 31.8173 62.629 31.7373 62.6557 31.644C62.6824 31.5507 62.6957 31.448 62.6957 31.336C62.6957 31.1067 62.6397 30.9307 62.5277 30.808C62.4184 30.6827 62.2504 30.62 62.0237 30.62C61.8397 30.62 61.6837 30.6693 61.5557 30.768C61.4304 30.864 61.3437 30.984 61.2957 31.128C61.2397 31.2747 61.1664 31.372 61.0757 31.42C60.985 31.468 60.8557 31.4787 60.6877 31.452L60.0317 31.336Z" fill="white"/>
</svg>
