<svg width="51" height="28" viewBox="0 0 51 28" fill="none" xmlns="http://www.w3.org/2000/svg">
<rect x="2.5" y="2.5" width="46" height="9" rx="1" fill="#FF9000"/>
<rect x="2.5" y="2.5" width="46" height="9" rx="1" stroke="#FF9000"/>
<path d="M13.3808 8.932C13.5622 8.932 13.7235 8.90267 13.8648 8.844C14.0088 8.78267 14.1302 8.696 14.2288 8.584C14.3275 8.472 14.4022 8.336 14.4528 8.176C14.5062 8.01333 14.5328 7.82933 14.5328 7.624V4.172H15.8848V7.624C15.8848 7.98133 15.8262 8.30933 15.7088 8.608C15.5942 8.90667 15.4288 9.164 15.2128 9.38C14.9968 9.596 14.7342 9.764 14.4248 9.884C14.1155 10.004 13.7675 10.064 13.3808 10.064C12.9915 10.064 12.6422 10.004 12.3328 9.884C12.0235 9.764 11.7608 9.596 11.5448 9.38C11.3288 9.164 11.1635 8.90667 11.0488 8.608C10.9342 8.30933 10.8768 7.98133 10.8768 7.624V4.172H12.2288V7.62C12.2288 7.82533 12.2542 8.00933 12.3048 8.172C12.3582 8.332 12.4342 8.46933 12.5328 8.584C12.6315 8.696 12.7515 8.78267 12.8928 8.844C13.0368 8.90267 13.1995 8.932 13.3808 8.932ZM17.6804 6.3C17.7604 6.22533 17.8431 6.156 17.9284 6.092C18.0137 6.028 18.1044 5.97467 18.2004 5.932C18.2991 5.88667 18.4044 5.852 18.5164 5.828C18.6311 5.80133 18.7551 5.788 18.8884 5.788C19.1151 5.788 19.3151 5.828 19.4884 5.908C19.6644 5.98533 19.8124 6.09467 19.9324 6.236C20.0524 6.37467 20.1431 6.54133 20.2044 6.736C20.2657 6.928 20.2964 7.13733 20.2964 7.364V10H19.0564V7.364C19.0564 7.16133 19.0097 7.004 18.9164 6.892C18.8231 6.77733 18.6857 6.72 18.5044 6.72C18.3684 6.72 18.2404 6.74933 18.1204 6.808C18.0031 6.864 17.8884 6.94133 17.7764 7.04V10H16.5364V5.852H17.3044C17.4591 5.852 17.5604 5.92133 17.6084 6.06L17.6804 6.3ZM22.2469 5.852V10H21.0069V5.852H22.2469ZM22.3749 4.716C22.3749 4.81467 22.3549 4.908 22.3149 4.996C22.2749 5.08133 22.2202 5.15733 22.1509 5.224C22.0816 5.288 22.0002 5.34 21.9069 5.38C21.8162 5.41733 21.7189 5.436 21.6149 5.436C21.5136 5.436 21.4189 5.41733 21.3309 5.38C21.2429 5.34 21.1642 5.288 21.0949 5.224C21.0282 5.15733 20.9749 5.08133 20.9349 4.996C20.8976 4.908 20.8789 4.81467 20.8789 4.716C20.8789 4.61467 20.8976 4.52 20.9349 4.432C20.9749 4.344 21.0282 4.26667 21.0949 4.2C21.1642 4.13333 21.2429 4.08133 21.3309 4.044C21.4189 4.00667 21.5136 3.988 21.6149 3.988C21.7189 3.988 21.8162 4.00667 21.9069 4.044C22.0002 4.08133 22.0816 4.13333 22.1509 4.2C22.2202 4.26667 22.2749 4.344 22.3149 4.432C22.3549 4.52 22.3749 4.61467 22.3749 4.716ZM24.2317 8.872C24.3251 8.97333 24.4264 9.04533 24.5357 9.088C24.6451 9.13067 24.7597 9.152 24.8797 9.152C24.9944 9.152 25.0997 9.12933 25.1957 9.084C25.2917 9.03867 25.3744 8.96667 25.4437 8.868C25.5157 8.76667 25.5717 8.636 25.6117 8.476C25.6517 8.316 25.6717 8.12133 25.6717 7.892C25.6717 7.67333 25.6557 7.48933 25.6237 7.34C25.5917 7.19067 25.5464 7.07067 25.4877 6.98C25.4317 6.88667 25.3637 6.82 25.2837 6.78C25.2037 6.74 25.1144 6.72 25.0157 6.72C24.8344 6.72 24.6851 6.75333 24.5677 6.82C24.4504 6.88667 24.3384 6.984 24.2317 7.112V8.872ZM24.1557 6.364C24.3184 6.19067 24.5024 6.04933 24.7077 5.94C24.9157 5.828 25.1624 5.772 25.4477 5.772C25.6637 5.772 25.8637 5.82 26.0477 5.916C26.2317 6.012 26.3904 6.15067 26.5237 6.332C26.6571 6.51333 26.7611 6.736 26.8357 7C26.9131 7.26133 26.9517 7.55867 26.9517 7.892C26.9517 8.204 26.9077 8.492 26.8197 8.756C26.7344 9.02 26.6131 9.24933 26.4557 9.444C26.3011 9.63867 26.1144 9.79067 25.8957 9.9C25.6797 10.0093 25.4397 10.064 25.1757 10.064C24.9597 10.064 24.7784 10.0333 24.6317 9.972C24.4851 9.91067 24.3517 9.828 24.2317 9.724V11.316H22.9917V5.852H23.7597C23.9144 5.852 24.0157 5.92133 24.0637 6.06L24.1557 6.364ZM29.3853 5.788C29.6999 5.788 29.9866 5.83733 30.2453 5.936C30.5039 6.03467 30.7253 6.176 30.9093 6.36C31.0959 6.544 31.2399 6.768 31.3413 7.032C31.4453 7.29333 31.4973 7.588 31.4973 7.916C31.4973 8.24667 31.4453 8.54533 31.3413 8.812C31.2399 9.076 31.0959 9.30133 30.9093 9.488C30.7253 9.672 30.5039 9.81467 30.2453 9.916C29.9866 10.0147 29.6999 10.064 29.3853 10.064C29.0679 10.064 28.7786 10.0147 28.5173 9.916C28.2586 9.81467 28.0346 9.672 27.8453 9.488C27.6586 9.30133 27.5133 9.076 27.4093 8.812C27.3079 8.54533 27.2573 8.24667 27.2573 7.916C27.2573 7.588 27.3079 7.29333 27.4093 7.032C27.5133 6.768 27.6586 6.544 27.8453 6.36C28.0346 6.176 28.2586 6.03467 28.5173 5.936C28.7786 5.83733 29.0679 5.788 29.3853 5.788ZM29.3853 9.144C29.6706 9.144 29.8799 9.044 30.0133 8.844C30.1493 8.64133 30.2173 8.33467 30.2173 7.924C30.2173 7.51333 30.1493 7.208 30.0133 7.008C29.8799 6.808 29.6706 6.708 29.3853 6.708C29.0919 6.708 28.8773 6.808 28.7413 7.008C28.6053 7.208 28.5373 7.51333 28.5373 7.924C28.5373 8.33467 28.6053 8.64133 28.7413 8.844C28.8773 9.044 29.0919 9.144 29.3853 9.144ZM33.2417 4.012V10H32.0017V4.012H33.2417ZM36.0998 8.312C35.8518 8.32267 35.6478 8.344 35.4878 8.376C35.3278 8.408 35.2012 8.448 35.1078 8.496C35.0145 8.544 34.9492 8.59867 34.9118 8.66C34.8772 8.72133 34.8598 8.788 34.8598 8.86C34.8598 9.00133 34.8985 9.10133 34.9758 9.16C35.0532 9.216 35.1665 9.244 35.3158 9.244C35.4758 9.244 35.6158 9.216 35.7358 9.16C35.8558 9.104 35.9772 9.01333 36.0998 8.888V8.312ZM33.8678 6.428C34.1185 6.20667 34.3958 6.04267 34.6998 5.936C35.0065 5.82667 35.3345 5.772 35.6838 5.772C35.9345 5.772 36.1598 5.81333 36.3598 5.896C36.5625 5.976 36.7332 6.08933 36.8718 6.236C37.0132 6.38 37.1212 6.552 37.1958 6.752C37.2705 6.952 37.3078 7.17067 37.3078 7.408V10H36.7398C36.6225 10 36.5332 9.984 36.4718 9.952C36.4132 9.92 36.3638 9.85333 36.3238 9.752L36.2358 9.524C36.1318 9.612 36.0318 9.68933 35.9358 9.756C35.8398 9.82267 35.7398 9.88 35.6358 9.928C35.5345 9.97333 35.4252 10.0067 35.3078 10.028C35.1932 10.052 35.0652 10.064 34.9238 10.064C34.7345 10.064 34.5625 10.04 34.4078 9.992C34.2532 9.94133 34.1212 9.868 34.0118 9.772C33.9052 9.676 33.8225 9.55733 33.7638 9.416C33.7052 9.272 33.6758 9.10667 33.6758 8.92C33.6758 8.77067 33.7132 8.62 33.7878 8.468C33.8625 8.31333 33.9918 8.17333 34.1758 8.048C34.3598 7.92 34.6078 7.81333 34.9198 7.728C35.2318 7.64267 35.6252 7.59467 36.0998 7.584V7.408C36.0998 7.16533 36.0492 6.99067 35.9478 6.884C35.8492 6.77467 35.7078 6.72 35.5238 6.72C35.3772 6.72 35.2572 6.736 35.1638 6.768C35.0705 6.8 34.9865 6.836 34.9118 6.876C34.8398 6.916 34.7692 6.952 34.6998 6.984C34.6305 7.016 34.5478 7.032 34.4518 7.032C34.3665 7.032 34.2945 7.01067 34.2358 6.968C34.1772 6.92533 34.1292 6.87467 34.0918 6.816L33.8678 6.428ZM39.1405 6.492C39.2685 6.268 39.4151 6.092 39.5805 5.964C39.7485 5.836 39.9405 5.772 40.1565 5.772C40.3431 5.772 40.4951 5.816 40.6125 5.904L40.5325 6.816C40.5191 6.87467 40.4965 6.91467 40.4645 6.936C40.4351 6.95733 40.3938 6.968 40.3405 6.968C40.3191 6.968 40.2911 6.96667 40.2565 6.964C40.2218 6.96133 40.1858 6.95867 40.1485 6.956C40.1111 6.95067 40.0725 6.94667 40.0325 6.944C39.9951 6.93867 39.9605 6.936 39.9285 6.936C39.7471 6.936 39.6018 6.984 39.4925 7.08C39.3858 7.176 39.2951 7.30933 39.2205 7.48V10H37.9805V5.852H38.7165C38.7778 5.852 38.8285 5.85733 38.8685 5.868C38.9111 5.87867 38.9458 5.896 38.9725 5.92C39.0018 5.94133 39.0231 5.97067 39.0365 6.008C39.0525 6.04533 39.0658 6.09067 39.0765 6.144L39.1405 6.492Z" fill="black"/>
<rect x="1.5" y="15.5" width="48" height="11" rx="1" fill="#399DFF"/>
<rect x="1.5" y="15.5" width="48" height="11" rx="1" stroke="white"/>
<path d="M13.3808 22.932C13.5622 22.932 13.7235 22.9027 13.8648 22.844C14.0088 22.7827 14.1302 22.696 14.2288 22.584C14.3275 22.472 14.4022 22.336 14.4528 22.176C14.5062 22.0133 14.5328 21.8293 14.5328 21.624V18.172H15.8848V21.624C15.8848 21.9813 15.8262 22.3093 15.7088 22.608C15.5942 22.9067 15.4288 23.164 15.2128 23.38C14.9968 23.596 14.7342 23.764 14.4248 23.884C14.1155 24.004 13.7675 24.064 13.3808 24.064C12.9915 24.064 12.6422 24.004 12.3328 23.884C12.0235 23.764 11.7608 23.596 11.5448 23.38C11.3288 23.164 11.1635 22.9067 11.0488 22.608C10.9342 22.3093 10.8768 21.9813 10.8768 21.624V18.172H12.2288V21.62C12.2288 21.8253 12.2542 22.0093 12.3048 22.172C12.3582 22.332 12.4342 22.4693 12.5328 22.584C12.6315 22.696 12.7515 22.7827 12.8928 22.844C13.0368 22.9027 13.1995 22.932 13.3808 22.932ZM17.6804 20.3C17.7604 20.2253 17.8431 20.156 17.9284 20.092C18.0137 20.028 18.1044 19.9747 18.2004 19.932C18.2991 19.8867 18.4044 19.852 18.5164 19.828C18.6311 19.8013 18.7551 19.788 18.8884 19.788C19.1151 19.788 19.3151 19.828 19.4884 19.908C19.6644 19.9853 19.8124 20.0947 19.9324 20.236C20.0524 20.3747 20.1431 20.5413 20.2044 20.736C20.2657 20.928 20.2964 21.1373 20.2964 21.364V24H19.0564V21.364C19.0564 21.1613 19.0097 21.004 18.9164 20.892C18.8231 20.7773 18.6857 20.72 18.5044 20.72C18.3684 20.72 18.2404 20.7493 18.1204 20.808C18.0031 20.864 17.8884 20.9413 17.7764 21.04V24H16.5364V19.852H17.3044C17.4591 19.852 17.5604 19.9213 17.6084 20.06L17.6804 20.3ZM22.2469 19.852V24H21.0069V19.852H22.2469ZM22.3749 18.716C22.3749 18.8147 22.3549 18.908 22.3149 18.996C22.2749 19.0813 22.2202 19.1573 22.1509 19.224C22.0816 19.288 22.0002 19.34 21.9069 19.38C21.8162 19.4173 21.7189 19.436 21.6149 19.436C21.5136 19.436 21.4189 19.4173 21.3309 19.38C21.2429 19.34 21.1642 19.288 21.0949 19.224C21.0282 19.1573 20.9749 19.0813 20.9349 18.996C20.8976 18.908 20.8789 18.8147 20.8789 18.716C20.8789 18.6147 20.8976 18.52 20.9349 18.432C20.9749 18.344 21.0282 18.2667 21.0949 18.2C21.1642 18.1333 21.2429 18.0813 21.3309 18.044C21.4189 18.0067 21.5136 17.988 21.6149 17.988C21.7189 17.988 21.8162 18.0067 21.9069 18.044C22.0002 18.0813 22.0816 18.1333 22.1509 18.2C22.2202 18.2667 22.2749 18.344 22.3149 18.432C22.3549 18.52 22.3749 18.6147 22.3749 18.716ZM24.2317 22.872C24.3251 22.9733 24.4264 23.0453 24.5357 23.088C24.6451 23.1307 24.7597 23.152 24.8797 23.152C24.9944 23.152 25.0997 23.1293 25.1957 23.084C25.2917 23.0387 25.3744 22.9667 25.4437 22.868C25.5157 22.7667 25.5717 22.636 25.6117 22.476C25.6517 22.316 25.6717 22.1213 25.6717 21.892C25.6717 21.6733 25.6557 21.4893 25.6237 21.34C25.5917 21.1907 25.5464 21.0707 25.4877 20.98C25.4317 20.8867 25.3637 20.82 25.2837 20.78C25.2037 20.74 25.1144 20.72 25.0157 20.72C24.8344 20.72 24.6851 20.7533 24.5677 20.82C24.4504 20.8867 24.3384 20.984 24.2317 21.112V22.872ZM24.1557 20.364C24.3184 20.1907 24.5024 20.0493 24.7077 19.94C24.9157 19.828 25.1624 19.772 25.4477 19.772C25.6637 19.772 25.8637 19.82 26.0477 19.916C26.2317 20.012 26.3904 20.1507 26.5237 20.332C26.6571 20.5133 26.7611 20.736 26.8357 21C26.9131 21.2613 26.9517 21.5587 26.9517 21.892C26.9517 22.204 26.9077 22.492 26.8197 22.756C26.7344 23.02 26.6131 23.2493 26.4557 23.444C26.3011 23.6387 26.1144 23.7907 25.8957 23.9C25.6797 24.0093 25.4397 24.064 25.1757 24.064C24.9597 24.064 24.7784 24.0333 24.6317 23.972C24.4851 23.9107 24.3517 23.828 24.2317 23.724V25.316H22.9917V19.852H23.7597C23.9144 19.852 24.0157 19.9213 24.0637 20.06L24.1557 20.364ZM29.3853 19.788C29.6999 19.788 29.9866 19.8373 30.2453 19.936C30.5039 20.0347 30.7253 20.176 30.9093 20.36C31.0959 20.544 31.2399 20.768 31.3413 21.032C31.4453 21.2933 31.4973 21.588 31.4973 21.916C31.4973 22.2467 31.4453 22.5453 31.3413 22.812C31.2399 23.076 31.0959 23.3013 30.9093 23.488C30.7253 23.672 30.5039 23.8147 30.2453 23.916C29.9866 24.0147 29.6999 24.064 29.3853 24.064C29.0679 24.064 28.7786 24.0147 28.5173 23.916C28.2586 23.8147 28.0346 23.672 27.8453 23.488C27.6586 23.3013 27.5133 23.076 27.4093 22.812C27.3079 22.5453 27.2573 22.2467 27.2573 21.916C27.2573 21.588 27.3079 21.2933 27.4093 21.032C27.5133 20.768 27.6586 20.544 27.8453 20.36C28.0346 20.176 28.2586 20.0347 28.5173 19.936C28.7786 19.8373 29.0679 19.788 29.3853 19.788ZM29.3853 23.144C29.6706 23.144 29.8799 23.044 30.0133 22.844C30.1493 22.6413 30.2173 22.3347 30.2173 21.924C30.2173 21.5133 30.1493 21.208 30.0133 21.008C29.8799 20.808 29.6706 20.708 29.3853 20.708C29.0919 20.708 28.8773 20.808 28.7413 21.008C28.6053 21.208 28.5373 21.5133 28.5373 21.924C28.5373 22.3347 28.6053 22.6413 28.7413 22.844C28.8773 23.044 29.0919 23.144 29.3853 23.144ZM33.2417 18.012V24H32.0017V18.012H33.2417ZM36.0998 22.312C35.8518 22.3227 35.6478 22.344 35.4878 22.376C35.3278 22.408 35.2012 22.448 35.1078 22.496C35.0145 22.544 34.9492 22.5987 34.9118 22.66C34.8772 22.7213 34.8598 22.788 34.8598 22.86C34.8598 23.0013 34.8985 23.1013 34.9758 23.16C35.0532 23.216 35.1665 23.244 35.3158 23.244C35.4758 23.244 35.6158 23.216 35.7358 23.16C35.8558 23.104 35.9772 23.0133 36.0998 22.888V22.312ZM33.8678 20.428C34.1185 20.2067 34.3958 20.0427 34.6998 19.936C35.0065 19.8267 35.3345 19.772 35.6838 19.772C35.9345 19.772 36.1598 19.8133 36.3598 19.896C36.5625 19.976 36.7332 20.0893 36.8718 20.236C37.0132 20.38 37.1212 20.552 37.1958 20.752C37.2705 20.952 37.3078 21.1707 37.3078 21.408V24H36.7398C36.6225 24 36.5332 23.984 36.4718 23.952C36.4132 23.92 36.3638 23.8533 36.3238 23.752L36.2358 23.524C36.1318 23.612 36.0318 23.6893 35.9358 23.756C35.8398 23.8227 35.7398 23.88 35.6358 23.928C35.5345 23.9733 35.4252 24.0067 35.3078 24.028C35.1932 24.052 35.0652 24.064 34.9238 24.064C34.7345 24.064 34.5625 24.04 34.4078 23.992C34.2532 23.9413 34.1212 23.868 34.0118 23.772C33.9052 23.676 33.8225 23.5573 33.7638 23.416C33.7052 23.272 33.6758 23.1067 33.6758 22.92C33.6758 22.7707 33.7132 22.62 33.7878 22.468C33.8625 22.3133 33.9918 22.1733 34.1758 22.048C34.3598 21.92 34.6078 21.8133 34.9198 21.728C35.2318 21.6427 35.6252 21.5947 36.0998 21.584V21.408C36.0998 21.1653 36.0492 20.9907 35.9478 20.884C35.8492 20.7747 35.7078 20.72 35.5238 20.72C35.3772 20.72 35.2572 20.736 35.1638 20.768C35.0705 20.8 34.9865 20.836 34.9118 20.876C34.8398 20.916 34.7692 20.952 34.6998 20.984C34.6305 21.016 34.5478 21.032 34.4518 21.032C34.3665 21.032 34.2945 21.0107 34.2358 20.968C34.1772 20.9253 34.1292 20.8747 34.0918 20.816L33.8678 20.428ZM39.1405 20.492C39.2685 20.268 39.4151 20.092 39.5805 19.964C39.7485 19.836 39.9405 19.772 40.1565 19.772C40.3431 19.772 40.4951 19.816 40.6125 19.904L40.5325 20.816C40.5191 20.8747 40.4965 20.9147 40.4645 20.936C40.4351 20.9573 40.3938 20.968 40.3405 20.968C40.3191 20.968 40.2911 20.9667 40.2565 20.964C40.2218 20.9613 40.1858 20.9587 40.1485 20.956C40.1111 20.9507 40.0725 20.9467 40.0325 20.944C39.9951 20.9387 39.9605 20.936 39.9285 20.936C39.7471 20.936 39.6018 20.984 39.4925 21.08C39.3858 21.176 39.2951 21.3093 39.2205 21.48V24H37.9805V19.852H38.7165C38.7778 19.852 38.8285 19.8573 38.8685 19.868C38.9111 19.8787 38.9458 19.896 38.9725 19.92C39.0018 19.9413 39.0231 19.9707 39.0365 20.008C39.0525 20.0453 39.0658 20.0907 39.0765 20.144L39.1405 20.492Z" fill="white"/>
</svg>
