<?xml version="1.0" encoding="utf-8"?>
<svg width="51px" height="760px" viewBox="0 0 51 760" version="1.1" xmlns:xlink="http://www.w3.org/1999/xlink" xmlns="http://www.w3.org/2000/svg">
  <desc>Created with Lunacy</desc>
  <defs>
    <rect width="51" height="760" id="artboard_1" />
    <clipPath id="clip_1">
      <use xlink:href="#artboard_1" clip-rule="evenodd" />
    </clipPath>
  </defs>
  <g id="hoverOn00166" clip-path="url(#clip_1)">
    <g id="Type:-Formula" transform="translate(27 746)">
      <path d="M0 1.19209e-07L22 0L22 12L0 12L0 1.19209e-07Z" id="Selected-Type" fill="#2E86FE" stroke="#FFFFFF" stroke-width="1" />
      <g id="f=ax+b" fill="#E5E5E5" transform="translate(0.75 1.75)">
        <path d="M2.80957 4.66309L3.15234 3.30957L3.56543 3.30957L3.66797 2.9668L3.24316 2.9668Q3.4248 2.22559 3.72363 1.88281Q3.90527 1.66895 4.07813 1.66895Q4.11328 1.66895 4.13525 1.68945Q4.15723 1.70996 4.15723 1.74219Q4.15723 1.77148 4.10889 1.85352Q4.06055 1.93555 4.06055 2.00879Q4.06055 2.11133 4.13672 2.18457Q4.21289 2.25781 4.33008 2.25781Q4.45605 2.25781 4.54102 2.16846Q4.62598 2.0791 4.62598 1.92676Q4.62598 1.75391 4.49854 1.64551Q4.37109 1.53711 4.08984 1.53711Q3.65039 1.53711 3.29297 1.79492Q2.93555 2.05273 2.61328 2.64746Q2.50195 2.85254 2.40234 2.91113Q2.30273 2.96973 2.08301 2.9668L1.98633 3.30957L2.39355 3.30957L1.7959 5.65039Q1.64648 6.22754 1.59375 6.3623Q1.51758 6.55859 1.3623 6.69629Q1.30078 6.75195 1.21289 6.75195Q1.18945 6.75195 1.17188 6.7373L1.15723 6.7168Q1.15723 6.70215 1.20117 6.65674Q1.24512 6.61133 1.24512 6.51758Q1.24512 6.41504 1.1748 6.34766Q1.10449 6.28027 0.972656 6.28027Q0.814453 6.28027 0.717773 6.36816Q0.621094 6.45605 0.621094 6.57617Q0.621094 6.70508 0.738281 6.80029Q0.855469 6.89551 1.10449 6.89551Q1.5 6.89551 1.80615 6.68896Q2.1123 6.48242 2.34082 6.05176Q2.56934 5.62109 2.80957 4.66309ZM17.8066 3.30371L18.3135 1.53711L18.1377 1.53711L17.1592 1.70996L17.127 1.82715Q17.2939 1.81836 17.376 1.87695Q17.4346 1.91797 17.4346 1.98828Q17.4346 2.07031 17.3701 2.29004L16.4736 5.39844Q17.0127 5.68262 17.4961 5.68262Q18.1465 5.68262 18.6563 5.13477Q19.2305 4.51367 19.2305 3.72266Q19.2305 3.3916 19.0562 3.13818Q18.8818 2.88477 18.5303 2.88477Q18.3486 2.88477 18.1934 2.96826Q18.0381 3.05176 17.8066 3.30371ZM13.2334 3.4209L14.6426 3.4209L14.6426 2.01465L15.0264 2.01465L15.0264 3.4209L16.4355 3.4209L16.4355 3.80762L15.0264 3.80762L15.0264 5.20215L14.6426 5.20215L14.6426 3.80762L13.2334 3.80762L13.2334 3.4209ZM9.87305 2.92578L9.30469 4.87402L9.24609 5.11133Q9.2373 5.15527 9.2373 5.17578Q9.2373 5.21094 9.26221 5.2373Q9.28711 5.26367 9.31348 5.26367Q9.375 5.26367 9.4834 5.16992Q9.52734 5.13184 9.69434 4.90039L9.79688 4.95313Q9.58887 5.33398 9.35303 5.5083Q9.11719 5.68262 8.84473 5.68262Q8.67773 5.68262 8.58984 5.59619Q8.50195 5.50977 8.50195 5.37793Q8.50195 5.26367 8.5957 4.95313L8.66602 4.71582Q8.32617 5.29883 8.0127 5.54199Q7.83105 5.68262 7.62598 5.68262Q7.35645 5.68262 7.23633 5.46143Q7.11621 5.24023 7.11621 4.96191Q7.11621 4.54883 7.36816 4.01416Q7.62012 3.47949 8.03027 3.1543Q8.36719 2.88477 8.66309 2.88477Q8.82715 2.88477 8.92676 2.97998Q9.02637 3.0752 9.07324 3.32715L9.17871 2.9668L9.87305 2.92578ZM11.2939 2.88477L10.2715 3.06055L10.251 3.17188Q10.3652 3.14844 10.4443 3.14844Q10.5967 3.14844 10.6963 3.28027Q10.8545 3.48535 11.1357 4.52832Q10.916 4.82422 10.834 4.91504Q10.6992 5.06152 10.6113 5.10547Q10.5439 5.14063 10.459 5.14063Q10.3945 5.14063 10.248 5.07031Q10.1484 5.02344 10.0693 5.02344Q9.91992 5.02344 9.82324 5.12012Q9.72656 5.2168 9.72656 5.36621Q9.72656 5.50684 9.81592 5.59473Q9.90527 5.68262 10.0576 5.68262Q10.2041 5.68262 10.333 5.62109Q10.4619 5.55957 10.6567 5.35889Q10.8516 5.1582 11.1943 4.72168Q11.3262 5.1377 11.4229 5.32666Q11.5195 5.51563 11.644 5.59912Q11.7686 5.68262 11.9561 5.68262Q12.1377 5.68262 12.3252 5.55078Q12.5713 5.38086 12.8291 4.96484L12.7236 4.90332Q12.5479 5.14941 12.4629 5.21094Q12.4072 5.24902 12.3311 5.24902Q12.2402 5.24902 12.1523 5.13477Q12.0029 4.94141 11.7539 4.0625Q11.9766 3.66992 12.1289 3.5498Q12.2402 3.46191 12.3633 3.46191Q12.4102 3.46191 12.5317 3.49561Q12.6533 3.5293 12.7471 3.5293Q12.876 3.5293 12.9624 3.43994Q13.0488 3.35059 13.0488 3.20996Q13.0488 3.06055 12.9624 2.97266Q12.876 2.88477 12.7148 2.88477Q12.5713 2.88477 12.4438 2.95361Q12.3164 3.02246 12.1201 3.25098Q11.9736 3.4209 11.6865 3.8457Q11.5723 3.32129 11.2939 2.88477ZM7.01953 2.95215L3.81445 2.95215L3.81445 3.33301L7.01953 3.33301L7.01953 2.95215ZM8.93555 3.48242Q8.93555 3.24512 8.8623 3.13965Q8.80957 3.06641 8.71875 3.06641Q8.62793 3.06641 8.53125 3.1543Q8.33496 3.33594 8.10791 3.89111Q7.88086 4.44629 7.88086 4.85059Q7.88086 5.00586 7.93213 5.07471Q7.9834 5.14355 8.04492 5.14355Q8.17676 5.14355 8.31152 4.99121Q8.50488 4.77441 8.66016 4.46094Q8.93555 3.91016 8.93555 3.48242ZM17.4375 5.51563Q17.3262 5.51563 17.1885 5.42773L17.5869 4.05078Q17.707 3.63184 17.8096 3.50293Q17.9619 3.30371 18.167 3.30371Q18.29 3.30371 18.3838 3.41211Q18.4775 3.52051 18.4775 3.72852Q18.4775 4.09473 18.3545 4.46387Q18.2314 4.83301 18.0483 5.09375Q17.8652 5.35449 17.6982 5.4541Q17.5928 5.51563 17.4375 5.51563ZM7.01953 3.91016L3.81445 3.91016L3.81445 4.29102L7.01953 4.29102L7.01953 3.91016Z" />
      </g>
    </g>
    <g id="Type:-Multi-Segment-Envelope" transform="translate(2 670)">
      <path d="M0 1.19209e-07L22 0L22 12L0 12L0 1.19209e-07Z" id="Selected-Type" fill="#399DFF" stroke="#FFFFFF" stroke-width="1" />
      <g id="MSEG" transform="translate(2.149994 1.2999878)">
        <path d="M0 8.00839C4.0763 8.20453 2.94979 -0.305252 7.00001 0.00846688M16 1.00845C11.4326 0.525339 11 5.50846 11 5.50846M7.00002 0.00848389C7.00002 0.00848389 7.70762 5.40396 11 5.50848" transform="translate(0.8499918 0.6915283)" id="Curve" fill="none" stroke="#E5E5E5" stroke-width="1" stroke-linecap="round" stroke-linejoin="round" />
        <g id="Dots">
          <path d="M0 0.75C0 0.335786 0.335786 0 0.75 0C1.16421 0 1.5 0.335786 1.5 0.75C1.5 1.16421 1.16421 1.5 0.75 1.5C0.335786 1.5 0 1.16421 0 0.75Z" transform="translate(0 8)" id="Ellipse" fill="#399DFF" stroke="#E5E5E5" stroke-width="0.4" />
          <path d="M0 0.75C0 0.335786 0.335787 0 0.75 0C1.16421 0 1.5 0.335786 1.5 0.75C1.5 1.16421 1.16421 1.5 0.75 1.5C0.335787 1.5 0 1.16421 0 0.75Z" transform="translate(7 0)" id="Ellipse-Copy" fill="#399DFF" stroke="#E5E5E5" stroke-width="0.4" />
          <path d="M0 0.75C0 0.335786 0.335786 0 0.75 0C1.16421 0 1.5 0.335786 1.5 0.75C1.5 1.16421 1.16421 1.5 0.75 1.5C0.335786 1.5 0 1.16421 0 0.75Z" transform="translate(10.899994 5.299988)" id="Ellipse-Copy-2" fill="#399DFF" stroke="#E5E5E5" stroke-width="0.4" />
          <path d="M0 0.75C0 0.335786 0.335786 0 0.75 0C1.16421 0 1.5 0.335786 1.5 0.75C1.5 1.16421 1.16421 1.5 0.75 1.5C0.335786 1.5 0 1.16421 0 0.75Z" transform="translate(16.200012 1)" id="Ellipse-Copy-3" fill="#399DFF" stroke="#E5E5E5" stroke-width="0.4" />
        </g>
      </g>
    </g>
    <g id="Type:-Step-Sequencer" transform="translate(27 579)">
      <path d="M0 1.19209e-07L22 0L22 12L0 12L0 1.19209e-07Z" id="Selected-Type" fill="#399DFF" stroke="#FFFFFF" stroke-width="1" />
      <path d="M0 0L2 0L2 5L0 5L0 0ZM16.8 0L18.8 0L18.8 5L16.8 5L16.8 0ZM4.10001 2L2.10001 2L2.10001 5L4.10001 5L4.10001 2ZM16.7 2L14.7 2L14.7 5L16.7 5L16.7 2ZM4.20001 4.75L6.20001 4.75L6.20001 5.25L4.20001 5.25L4.20001 4.75ZM14.6 4.75L12.6 4.75L12.6 5.25L14.6 5.25L14.6 4.75ZM6.30002 5L8.30002 5L8.30002 8L6.30002 8L6.30002 5ZM10.4 5L8.39999 5L8.39999 10L10.4 10L10.4 5ZM10.5 5L12.5 5L12.5 8L10.5 8L10.5 5Z" transform="matrix(1 0 0 -1 1.6000061 11)" id="Step-Seq" fill="#E5E5E5" fill-rule="evenodd" stroke="none" />
    </g>
    <g id="Type:-Envelope" transform="translate(2 503)">
      <path d="M0 1.19209e-07L22 0L22 12L0 12L0 1.19209e-07Z" id="Selected-Type" fill="#399DFF" stroke="#FFFFFF" stroke-width="1" />
      <path d="M0 8L3 0M13 4L6 4M3 0L6 4M13 4L16 8" transform="translate(3 2)" id="Envelope" fill="none" stroke="#E5E5E5" stroke-width="1" stroke-linecap="round" stroke-linejoin="round" />
    </g>
    <g id="Type:-Sample&amp;Hold" transform="translate(27 412)">
      <path d="M0 1.19209e-07L22 0L22 12L0 12L0 1.19209e-07Z" id="Selected-Type" fill="#399DFF" stroke="#FFFFFF" stroke-width="1" />
      <path d="M2 4L2 0M10 7L10 1M4 0L4 3M14 2L14 3.5M6 3L6 8M12 3.5L12 7M16 2L16 6M8 1L8 8M2 0L4 0M4 3L6 3M6 8L8 8M8 1L10 1M12 3.5L14 3.5M14 2L16 2M0 4L2 4M16 6L18 6M10 7L12 7" transform="translate(2 2)" id="S&amp;H" fill="none" stroke="#E5E5E5" stroke-width="1" stroke-linecap="round" stroke-linejoin="round" />
    </g>
    <g id="Type:-Noise" transform="translate(2 336)">
      <path d="M0 1.19209e-07L22 0L22 12L0 12L0 1.19209e-07Z" id="Selected-Type" fill="#399DFF" stroke="#FFFFFF" stroke-width="1" />
      <path d="M0 4.07566C0.0432625 3.05364 0.745124 -0.503559 1 0.0756635C1.25488 0.654886 1.40018 6.00897 1.90018 7.00896C2.40018 8.00896 2.53032 3.5071 3 4.07566C3.46968 4.64421 3.31225 9.80232 3.77889 9.28318C4.24553 8.76404 4.44472 2.87754 5 2.07565C5.55528 1.27377 5.4648 6.34199 6 6.07565C6.5352 5.80931 6.64079 0.510294 7.14079 1.01029C7.64079 1.51029 7.5352 7.05931 8 8.07565C8.46481 9.09199 8.50617 4.79849 9 5.07565C9.49383 5.35282 9.51721 9.81183 10 9.07565C10.4828 8.33947 10.4312 2.88093 10.9312 2.13093C11.4312 1.38093 11.5221 6.34757 12 6.07565C12.4779 5.80373 12.3428 0.543257 12.8428 1.04326C13.3428 1.54326 13.4607 7.06755 14 8.07565C14.5393 9.08375 14.5148 5.35056 15 5.07565C15.4853 4.80074 15.4411 8.226 15.9411 6.976C16.441 5.72601 16.4853 0.800751 17 0.0756635C17.5147 -0.649424 18 4.07566 18 4.07566" transform="translate(2 1.9243469)" id="Noise" fill="none" stroke="#E5E5E5" stroke-width="0.75" />
    </g>
    <g id="Type:-Sawtooth" transform="translate(27 245)">
      <path d="M0 1.19209e-07L22 0L22 12L0 12L0 1.19209e-07Z" id="Selected-Type" fill="#399DFF" stroke="#FFFFFF" stroke-width="1" />
      <path d="M0 8L0 0M8 0L8 8M0 0L8 8M8 0L16 8" transform="translate(3 2)" id="Sawtooth" fill="none" stroke="#E5E5E5" stroke-width="1" stroke-linecap="round" stroke-linejoin="round" />
    </g>
    <g id="Type:-Square" transform="translate(2 169)">
      <path d="M0 1.19209e-07L22 0L22 12L0 12L0 1.19209e-07Z" id="Selected-Type" fill="#399DFF" stroke="#FFFFFF" stroke-width="1" />
      <path d="M0 8L0 0M8 0L8 8M16 0L16 8M0 0L8 0M8 8L16 8" transform="translate(3 2)" id="Square" fill="none" stroke="#E5E5E5" stroke-width="1" stroke-linecap="round" stroke-linejoin="round" />
    </g>
    <g id="Type:-Triangle" transform="translate(27 78)">
      <path d="M0 1.19209e-07L22 0L22 12L0 12L0 1.19209e-07Z" id="Selected-Type" fill="#399DFF" stroke="#FFFFFF" stroke-width="1" />
      <path d="M12.3 8L16.3 4M4.29999 0L12.3 8M0 4L4.3 0" transform="translate(2.7000122 2)" id="Triangle" fill="none" stroke="#E5E5E5" stroke-width="1" stroke-linecap="round" />
    </g>
    <g id="Type:-Sine" transform="translate(2 1.9999999)">
      <path d="M0 1.19209e-07L22 0L22 12L0 12L0 1.19209e-07Z" id="Selected-Type" fill="#399DFF" stroke="#FFFFFF" stroke-width="1" />
      <path d="M0 4.0154C0.550892 -0.470438 4.3 0.0154009 4.3 0.0154009M8.3 4.0308C7.74911 -0.455041 3.80001 0.015399 3.80001 0.015399M8.3 4C8.85089 8.48583 12.6951 8.02706 12.8 8.0154M16.6 4.00126C16.0491 8.4871 12.1 8.01666 12.1 8.01666" transform="translate(2.699997 1.9846002)" id="Sine" fill="none" stroke="#E5E5E5" stroke-width="1" stroke-linecap="round" />
    </g>
  </g>
</svg>