<svg width="51" height="760" viewBox="0 0 51 760" fill="none" xmlns="http://www.w3.org/2000/svg">
<rect x="2.5" y="2.5" width="21" height="11" rx="1" fill="#FF9000"/>
<rect x="2.5" y="2.5" width="21" height="11" rx="1" stroke="#FF9000"/>
<path d="M4.7 8.0154C5.25089 3.52956 9 4.0154 9 4.0154M13 8.0308C12.4491 3.54496 8.5 4.0154 8.5 4.0154M13 8C13.5509 12.4858 17.3951 12.0271 17.5 12.0154M21.3 8.00126C20.7491 12.4871 16.8 12.0167 16.8 12.0167" stroke="black" stroke-linecap="round"/>
<rect x="27.5" y="78.5" width="21" height="11" rx="1" fill="#FF9000"/>
<rect x="27.5" y="78.5" width="21" height="11" rx="1" stroke="#FF9000"/>
<path d="M46.55 84.0156L42.55 88.0156L34.55 80.0156L30.25 84.0156" stroke="black" stroke-linecap="round"/>
<rect x="2.5" y="169.5" width="21" height="11" rx="1" fill="#FF9000"/>
<rect x="2.5" y="169.5" width="21" height="11" rx="1" stroke="#FF9000"/>
<path d="M5 178.534L5 171.534H13L13 178.534L21 178.534L21 171.534" stroke="black" stroke-linecap="round" stroke-linejoin="round"/>
<rect width="21" height="11" transform="translate(27.5 245.5)" fill="#FF9000"/>
<rect x="27.5" y="245.5" width="21" height="11" rx="1" fill="#FF9000"/>
<rect x="27.5" y="245.5" width="21" height="11" rx="1" stroke="#FF9000"/>
<path d="M38.4 247.016L46.4 255.016M30.4 255.016L30.4 247.016L30.4 255.016ZM38.4 247.016L38.4 255.016L38.4 247.016ZM30.4 247.016L38.4 255.016L30.4 247.016Z" stroke="black" stroke-linecap="round" stroke-linejoin="round"/>
<rect width="21" height="11" transform="translate(2.5 336.5)" fill="#FF9000"/>
<rect x="2.5" y="336.5" width="21" height="11" rx="1" fill="#FF9000"/>
<rect x="2.5" y="336.5" width="21" height="11" rx="1" stroke="#FF9000"/>
<path d="M4 341.109C4.04326 340.087 4.74512 336.53 5 337.109C5.25488 337.689 5.40018 343.043 5.90018 344.043C6.40018 345.043 6.53032 340.541 7 341.109C7.46968 341.678 7.31225 346.836 7.77889 346.317C8.24553 345.798 8.44472 339.911 9 339.109C9.55528 338.307 9.4648 343.376 10 343.109C10.5352 342.843 10.6408 337.544 11.1408 338.044C11.6408 338.544 11.5352 344.093 12 345.109C12.4648 346.126 12.5062 341.832 13 342.109C13.4938 342.387 13.5172 346.846 14 346.109C14.4828 345.373 14.4312 339.915 14.9312 339.165C15.4312 338.415 15.5221 343.381 16 343.109C16.4779 342.837 16.3428 337.577 16.8428 338.077C17.3428 338.577 17.4607 344.101 18 345.109C18.5393 346.117 18.5148 342.384 19 342.109C19.4853 341.834 19.4411 345.26 19.9411 344.01C20.441 342.76 20.4853 337.834 21 337.109C21.5147 336.384 22 341.109 22 341.109" stroke="black" stroke-width="0.75"/>
<rect x="27.5" y="412.5" width="21" height="11" rx="1" fill="#FF9000"/>
<rect x="27.5" y="412.5" width="21" height="11" rx="1" stroke="#FF9000"/>
<path d="M39.4 421.016H41.4M31.4 418.016L31.4 414.016L31.4 418.016ZM39.4 421.016L39.4 415.016L39.4 421.016ZM33.4 414.016L33.4 417.016L33.4 414.016ZM43.4 416.016L43.4 417.516L43.4 416.016ZM35.4 417.016L35.4 422.016L35.4 417.016ZM41.4 417.516L41.4 421.016L41.4 417.516ZM45.4 416.016L45.4 420.016L45.4 416.016ZM37.4 415.016L37.4 422.016L37.4 415.016ZM31.4 414.016H33.4H31.4ZM33.4 417.016H35.4H33.4ZM35.4 422.016H37.4H35.4ZM37.4 415.016H39.4H37.4ZM41.4 417.516H43.4H41.4ZM43.4 416.016H45.4H43.4ZM29.4 418.016H31.4H29.4ZM45.4 420.016L47.4 420.016L45.4 420.016Z" stroke="black" stroke-linecap="round" stroke-linejoin="round"/>
<rect x="2.5" y="503.5" width="21" height="11" rx="1" fill="#FF9000"/>
<rect x="2.5" y="503.5" width="21" height="11" rx="1" stroke="#FF9000"/>
<path d="M18 508.854L21 512.854M5 512.854L8 504.854L5 512.854ZM18 508.854H11H18ZM8 504.854L11 508.854L8 504.854Z" stroke="black" stroke-linecap="round" stroke-linejoin="round"/>
<rect x="27.5" y="579.5" width="21" height="11" rx="1" fill="#FF9000"/>
<rect x="27.5" y="579.5" width="21" height="11" rx="1" stroke="#FF9000"/>
<path fill-rule="evenodd" clip-rule="evenodd" d="M29 590.016H31L31 585.016H29L29 590.016ZM45.8 590.016H47.8L47.8 585.016H45.8L45.8 590.016ZM33.1 588.016H31.1L31.1 585.016H33.1L33.1 588.016ZM45.7 588.016H43.7L43.7 585.016H45.7L45.7 588.016ZM33.2 585.266H35.2V584.766H33.2V585.266ZM43.6 585.266H41.6V584.766H43.6V585.266ZM35.3 585.016H37.3L37.3 582.016H35.3L35.3 585.016ZM39.4 585.016H37.4L37.4 580.016H39.4L39.4 585.016ZM39.5 585.016H41.5L41.5 582.016H39.5L39.5 585.016Z" fill="black"/>
<rect width="21" height="11" transform="translate(2.5 670.5)" fill="#FF9000"/>
<rect x="2.5" y="670.5" width="21" height="11" rx="1" fill="#FF9000"/>
<rect x="2.5" y="670.5" width="21" height="11" rx="1" stroke="#FF9000"/>
<path fill-rule="evenodd" clip-rule="evenodd" d="M11 672.5C11 672.224 11.2239 672 11.5 672C11.7761 672 12 672.224 12 672.5C12 672.776 11.7761 673 11.5 673C11.2239 673 11 672.776 11 672.5ZM11.0088 673.371C10.5784 673.525 10.2346 673.82 9.93023 674.223C9.44741 674.862 9.09614 675.731 8.71428 676.686L8.69941 676.723C8.33538 677.633 7.93961 678.622 7.36773 679.379C6.88225 680.022 6.25208 680.52 5.39899 680.688C5.2365 681.021 4.895 681.25 4.5 681.25C3.94772 681.25 3.5 680.802 3.5 680.25C3.5 679.698 3.94772 679.25 4.5 679.25C4.84065 679.25 5.14151 679.42 5.32208 679.68C5.8332 679.548 6.22662 679.231 6.56986 678.777C7.05268 678.138 7.40395 677.269 7.78581 676.314L7.80068 676.277C8.16471 675.367 8.56048 674.377 9.13236 673.62C9.49607 673.139 9.94098 672.738 10.5 672.497C10.5016 671.946 10.9487 671.5 11.5 671.5C12.0523 671.5 12.5 671.948 12.5 672.5C12.5 672.668 12.4586 672.826 12.3855 672.965C12.4311 673.068 12.4851 673.187 12.5469 673.32C12.7611 673.779 13.0655 674.387 13.4288 674.993C13.7945 675.602 14.2076 676.188 14.6349 676.615C14.8268 676.807 15.0067 676.952 15.173 677.055C15.2755 677.019 15.3855 677 15.5 677C15.5217 677 15.5432 677.001 15.5645 677.002C15.5975 676.94 15.6335 676.874 15.6723 676.804C15.9151 676.367 16.2727 675.781 16.7304 675.193C17.4048 674.326 18.36 673.371 19.5431 672.959C19.6678 672.548 20.0491 672.25 20.5 672.25C21.0523 672.25 21.5 672.698 21.5 673.25C21.5 673.802 21.0523 674.25 20.5 674.25C20.2149 674.25 19.9577 674.131 19.7755 673.939C18.9176 674.271 18.1489 674.998 17.5197 675.807C17.1024 676.343 16.7725 676.883 16.5465 677.29C16.4909 677.39 16.4418 677.481 16.3994 677.562C16.4639 677.695 16.5 677.843 16.5 678C16.5 678.552 16.0523 679 15.5 679C14.9477 679 14.5 678.552 14.5 678C14.5 677.938 14.5056 677.878 14.5162 677.82C14.3049 677.674 14.108 677.502 13.9277 677.322C13.4175 676.812 12.9556 676.148 12.5713 675.507C12.1846 674.863 11.864 674.221 11.6407 673.743C11.6004 673.656 11.5631 673.575 11.5292 673.5C11.5195 673.5 11.5098 673.5 11.5 673.5C11.3215 673.5 11.1539 673.453 11.0088 673.371ZM4.5 679.75C4.22386 679.75 4 679.974 4 680.25C4 680.526 4.22386 680.75 4.5 680.75C4.77614 680.75 5 680.526 5 680.25C5 679.974 4.77614 679.75 4.5 679.75ZM15.5 677.5C15.2239 677.5 15 677.724 15 678C15 678.276 15.2239 678.5 15.5 678.5C15.7761 678.5 16 678.276 16 678C16 677.724 15.7761 677.5 15.5 677.5ZM20 673.25C20 672.974 20.2239 672.75 20.5 672.75C20.7761 672.75 21 672.974 21 673.25C21 673.526 20.7761 673.75 20.5 673.75C20.2239 673.75 20 673.526 20 673.25Z" fill="black"/>
<rect x="27.5" y="746.5" width="21" height="11" rx="1" fill="#FF9000"/>
<rect x="27.5" y="746.5" width="21" height="11" rx="1" stroke="#FF9000"/>
<path d="M31.2838 753.142L31.6265 751.788H32.0396L32.1422 751.445H31.7174C31.8385 750.951 31.9986 750.59 32.1978 750.361C32.3189 750.219 32.4371 750.147 32.5523 750.147C32.5758 750.147 32.5948 750.154 32.6094 750.168C32.6241 750.182 32.6314 750.199 32.6314 750.221C32.6314 750.24 32.6153 750.277 32.5831 750.332C32.5509 750.387 32.5347 750.438 32.5347 750.487C32.5347 750.556 32.5601 750.614 32.6109 750.663C32.6617 750.712 32.7262 750.736 32.8043 750.736C32.8883 750.736 32.9586 750.707 33.0152 750.647C33.0719 750.587 33.1002 750.507 33.1002 750.405C33.1002 750.29 33.0577 750.196 32.9727 750.124C32.8878 750.052 32.7515 750.016 32.564 750.016C32.2711 750.016 32.0054 750.102 31.7672 750.273C31.5289 750.445 31.3023 750.729 31.0875 751.126C31.0133 751.263 30.9429 751.351 30.8765 751.39C30.8101 751.429 30.7037 751.447 30.5572 751.445L30.4605 751.788H30.8677L30.2701 754.129C30.1705 754.514 30.1031 754.751 30.0679 754.841C30.0172 754.972 29.94 755.083 29.8365 755.175C29.7955 755.212 29.7457 755.23 29.6871 755.23C29.6715 755.23 29.6578 755.226 29.6461 755.216L29.6314 755.195C29.6314 755.186 29.6461 755.166 29.6754 755.135C29.7047 755.105 29.7193 755.059 29.7193 754.996C29.7193 754.928 29.6959 754.871 29.649 754.826C29.6021 754.781 29.5347 754.759 29.4469 754.759C29.3414 754.759 29.2564 754.788 29.192 754.847C29.1275 754.905 29.0953 754.975 29.0953 755.055C29.0953 755.141 29.1344 755.215 29.2125 755.279C29.2906 755.342 29.4127 755.374 29.5787 755.374C29.8424 755.374 30.0762 755.305 30.2803 755.167C30.4844 755.03 30.6627 754.817 30.815 754.53C30.9674 754.243 31.1236 753.78 31.2838 753.142ZM46.2808 751.782L46.7877 750.016H46.6119L45.6334 750.188L45.6012 750.306C45.7125 750.3 45.7955 750.316 45.8502 750.355C45.8893 750.383 45.9088 750.42 45.9088 750.467C45.9088 750.521 45.8873 750.622 45.8443 750.769L44.9478 753.877C45.3072 754.066 45.648 754.161 45.9703 754.161C46.4039 754.161 46.7906 753.979 47.1305 753.613C47.5133 753.199 47.7047 752.729 47.7047 752.201C47.7047 751.98 47.6466 751.786 47.5304 751.617C47.4141 751.448 47.2388 751.363 47.0045 751.363C46.8834 751.363 46.7711 751.391 46.6676 751.447C46.5641 751.502 46.4351 751.614 46.2808 751.782ZM41.7076 751.899H43.1168V750.493H43.5006V751.899H44.9097V752.286H43.5006L43.5006 753.681H43.1168L43.1168 752.286H41.7076V751.899ZM38.3472 751.404L37.7789 753.353L37.7203 753.59C37.7144 753.619 37.7115 753.641 37.7115 753.654C37.7115 753.678 37.7198 753.698 37.7364 753.716C37.753 753.733 37.7701 753.742 37.7877 753.742C37.8287 753.742 37.8853 753.711 37.9576 753.648C37.9869 753.623 38.0572 753.533 38.1685 753.379L38.2711 753.432C38.1324 753.686 37.9845 753.871 37.8272 753.987C37.67 754.103 37.5006 754.161 37.3189 754.161C37.2076 754.161 37.1226 754.132 37.064 754.075C37.0054 754.017 36.9761 753.944 36.9761 753.856C36.9761 753.78 37.0074 753.639 37.0699 753.432L37.1402 753.194C36.9137 753.583 36.6959 753.858 36.4869 754.021C36.3658 754.114 36.2369 754.161 36.1002 754.161C35.9205 754.161 35.7906 754.087 35.7105 753.94C35.6304 753.792 35.5904 753.626 35.5904 753.44C35.5904 753.165 35.6744 752.849 35.8424 752.493C36.0103 752.136 36.231 751.85 36.5045 751.633C36.7291 751.453 36.94 751.363 37.1373 751.363C37.2467 751.363 37.3346 751.395 37.401 751.458C37.4674 751.522 37.5162 751.638 37.5474 751.806L37.6529 751.445L38.3472 751.404ZM39.7681 751.363L38.7457 751.539L38.7252 751.65C38.8013 751.635 38.8658 751.627 38.9185 751.627C39.0201 751.627 39.1041 751.671 39.1705 751.759C39.276 751.896 39.4224 752.312 39.6099 753.007C39.4634 753.204 39.3629 753.333 39.3082 753.394C39.2183 753.491 39.1441 753.555 39.0855 753.584C39.0406 753.607 38.9898 753.619 38.9332 753.619C38.8902 753.619 38.8199 753.596 38.7222 753.549C38.6558 753.518 38.5962 753.502 38.5435 753.502C38.4439 753.502 38.3619 753.534 38.2974 753.599C38.233 753.663 38.2008 753.745 38.2008 753.845C38.2008 753.938 38.2305 754.015 38.2901 754.073C38.3497 754.132 38.4302 754.161 38.5318 754.161C38.6295 754.161 38.7213 754.141 38.8072 754.1C38.8931 754.059 39.001 753.971 39.1309 753.837C39.2608 753.704 39.44 753.491 39.6685 753.2C39.7564 753.478 39.8326 753.679 39.8971 753.805C39.9615 753.931 40.0352 754.022 40.1182 754.078C40.2013 754.133 40.3053 754.161 40.4303 754.161C40.5514 754.161 40.6744 754.117 40.7994 754.029C40.9635 753.916 41.1314 753.721 41.3033 753.443L41.1978 753.382C41.0807 753.546 40.9938 753.648 40.9371 753.689C40.9 753.715 40.856 753.728 40.8053 753.728C40.7447 753.728 40.6851 753.689 40.6265 753.613C40.5269 753.484 40.3941 753.127 40.2281 752.541C40.3766 752.279 40.5016 752.108 40.6031 752.028C40.6773 751.97 40.7554 751.94 40.8375 751.94C40.8688 751.94 40.9249 751.952 41.0059 751.974C41.087 751.997 41.1588 752.008 41.2213 752.008C41.3072 752.008 41.379 751.978 41.4366 751.918C41.4942 751.859 41.523 751.782 41.523 751.688C41.523 751.589 41.4942 751.51 41.4366 751.451C41.379 751.393 41.2965 751.363 41.189 751.363C41.0933 751.363 41.003 751.386 40.918 751.432C40.8331 751.478 40.7252 751.577 40.5943 751.729C40.4966 751.843 40.3521 752.041 40.1607 752.324C40.0846 751.975 39.9537 751.654 39.7681 751.363ZM35.4937 751.431H32.2886V751.812H35.4937V751.431ZM37.4097 751.961C37.4097 751.803 37.3853 751.688 37.3365 751.618C37.3013 751.569 37.2535 751.545 37.1929 751.545C37.1324 751.545 37.0699 751.574 37.0054 751.633C36.8746 751.754 36.7335 752 36.5821 752.37C36.4307 752.74 36.3551 753.06 36.3551 753.329C36.3551 753.433 36.3721 753.507 36.4063 753.553C36.4405 753.599 36.4781 753.622 36.5191 753.622C36.607 753.622 36.6959 753.571 36.7857 753.47C36.9146 753.325 37.0308 753.148 37.1344 752.939C37.318 752.572 37.4097 752.246 37.4097 751.961ZM45.9117 753.994C45.8375 753.994 45.7545 753.965 45.6627 753.906L46.0611 752.529C46.1412 752.25 46.2154 752.067 46.2838 751.981C46.3853 751.849 46.5045 751.782 46.6412 751.782C46.7232 751.782 46.7955 751.818 46.858 751.891C46.9205 751.963 46.9517 752.068 46.9517 752.207C46.9517 752.451 46.9107 752.696 46.8287 752.942C46.7466 753.188 46.6446 753.398 46.5225 753.572C46.4004 753.746 46.2837 753.866 46.1724 753.933C46.1021 753.974 46.0152 753.994 45.9117 753.994ZM35.4937 752.389H32.2886V752.77H35.4937V752.389Z" fill="black"/>
</svg>
