<?xml version="1.0" encoding="UTF-8"?>
<svg width="22px" height="30px" viewBox="0 0 22 30" version="1.1" xmlns="http://www.w3.org/2000/svg" xmlns:xlink="http://www.w3.org/1999/xlink">
    <title>hover00132</title>
    <g id="hover00132" stroke="none" stroke-width="1" fill="none" fill-rule="evenodd">
        <g id="Group-3" transform="translate(4.000000, 4.000000)" fill="#399DFF">
            <g id="Group">
                <rect id="Rectangle" x="0" y="0" width="14" height="7"></rect>
            </g>
        </g>
        <g id="Group-3" transform="translate(4.000000, 19.000000)" fill="#FF9000" stroke="#FFFFFF">
            <g id="Group">
                <rect id="Combined-Shape" x="0.5" y="0.5" width="13" height="6"></rect>
            </g>
        </g>
        <g id="Group-4-Copy" transform="translate(9.000000, 5.000000)" fill="#FFFFFF" fill-rule="nonzero">
            <path d="M1.73475,20.054 C2.01375,20.054 2.2629375,20.0118125 2.4823125,19.9274375 C2.7016875,19.8430625 2.8861875,19.7271875 3.0358125,19.5798125 C3.1854375,19.4324375 3.299625,19.25975 3.378375,19.06175 C3.457125,18.86375 3.4965,18.651125 3.4965,18.423875 C3.4965,18.219125 3.465,18.0441875 3.402,17.8990625 C3.339,17.7539375 3.2563125,17.63075 3.1539375,17.5295 C3.0515625,17.42825 2.9345625,17.345 2.8029375,17.27975 C2.6713125,17.2145 2.536875,17.1576875 2.399625,17.1093125 C2.262375,17.0609375 2.1279375,17.0170625 1.9963125,16.9776875 C1.8646875,16.9383125 1.7476875,16.895 1.6453125,16.84775 C1.5429375,16.8005 1.46025,16.74425 1.39725,16.679 C1.33425,16.61375 1.30275,16.531625 1.30275,16.432625 C1.30275,16.277375 1.3550625,16.1541875 1.4596875,16.0630625 C1.5643125,15.9719375 1.7235,15.926375 1.93725,15.926375 C2.061,15.926375 2.17125,15.9426875 2.268,15.9753125 C2.36475,16.0079375 2.4508125,16.0445 2.5261875,16.085 C2.6015625,16.1255 2.6690625,16.1620625 2.7286875,16.1946875 C2.7883125,16.2273125 2.844,16.243625 2.89575,16.243625 C2.95425,16.243625 3.0020625,16.230125 3.0391875,16.203125 C3.0763125,16.176125 3.11175,16.135625 3.1455,16.081625 L3.1455,16.081625 L3.429,15.55175 C3.34125,15.47075 3.2416875,15.3981875 3.1303125,15.3340625 C3.0189375,15.2699375 2.899125,15.2148125 2.770875,15.1686875 C2.642625,15.1225625 2.5070625,15.0876875 2.3641875,15.0640625 C2.2213125,15.0404375 2.0745,15.028625 1.92375,15.028625 C1.65375,15.028625 1.414125,15.0696875 1.204875,15.1518125 C0.995625,15.2339375 0.819,15.343625 0.675,15.480875 C0.531,15.618125 0.421875,15.7745 0.347625,15.95 C0.273375,16.1255 0.23625,16.3055 0.23625,16.49 C0.23625,16.7195 0.26775,16.9124375 0.33075,17.0688125 C0.39375,17.2251875 0.4764375,17.3556875 0.5788125,17.4603125 C0.6811875,17.5649375 0.797625,17.6493125 0.928125,17.7134375 C1.058625,17.7775625 1.1925,17.8315625 1.32975,17.8754375 C1.467,17.9193125 1.600875,17.95925 1.731375,17.99525 C1.861875,18.03125 1.9783125,18.072875 2.0806875,18.120125 C2.1830625,18.167375 2.26575,18.227 2.32875,18.299 C2.39175,18.371 2.42325,18.464375 2.42325,18.579125 C2.42325,18.777125 2.365875,18.9216875 2.251125,19.0128125 C2.136375,19.1039375 1.9755,19.1495 1.7685,19.1495 C1.6155,19.1495 1.48275,19.128125 1.37025,19.085375 C1.25775,19.042625 1.1581875,18.995375 1.0715625,18.943625 C0.9849375,18.891875 0.9073125,18.844625 0.8386875,18.801875 C0.7700625,18.759125 0.702,18.73775 0.6345,18.73775 C0.58275,18.73775 0.534375,18.750125 0.489375,18.774875 C0.444375,18.799625 0.4095,18.83225 0.38475,18.87275 L0.38475,18.87275 L0.04725,19.406 C0.144,19.50275 0.257625,19.5905 0.388125,19.66925 C0.518625,19.748 0.658125,19.8160625 0.806625,19.8734375 C0.955125,19.9308125 1.1086875,19.97525 1.2673125,20.00675 C1.4259375,20.03825 1.58175,20.054 1.73475,20.054 Z" id="S"></path>
            <path d="M1.73475,5.054 C2.01375,5.054 2.2629375,5.0118125 2.4823125,4.9274375 C2.7016875,4.8430625 2.8861875,4.7271875 3.0358125,4.5798125 C3.1854375,4.4324375 3.299625,4.25975 3.378375,4.06175 C3.457125,3.86375 3.4965,3.651125 3.4965,3.423875 C3.4965,3.219125 3.465,3.0441875 3.402,2.8990625 C3.339,2.7539375 3.2563125,2.63075 3.1539375,2.5295 C3.0515625,2.42825 2.9345625,2.345 2.8029375,2.27975 C2.6713125,2.2145 2.536875,2.1576875 2.399625,2.1093125 C2.262375,2.0609375 2.1279375,2.0170625 1.9963125,1.9776875 C1.8646875,1.9383125 1.7476875,1.895 1.6453125,1.84775 C1.5429375,1.8005 1.46025,1.74425 1.39725,1.679 C1.33425,1.61375 1.30275,1.531625 1.30275,1.432625 C1.30275,1.277375 1.3550625,1.1541875 1.4596875,1.0630625 C1.5643125,0.9719375 1.7235,0.926375 1.93725,0.926375 C2.061,0.926375 2.17125,0.9426875 2.268,0.9753125 C2.36475,1.0079375 2.4508125,1.0445 2.5261875,1.085 C2.6015625,1.1255 2.6690625,1.1620625 2.7286875,1.1946875 C2.7883125,1.2273125 2.844,1.243625 2.89575,1.243625 C2.95425,1.243625 3.0020625,1.230125 3.0391875,1.203125 C3.0763125,1.176125 3.11175,1.135625 3.1455,1.081625 L3.1455,1.081625 L3.429,0.55175 C3.34125,0.47075 3.2416875,0.3981875 3.1303125,0.3340625 C3.0189375,0.2699375 2.899125,0.2148125 2.770875,0.1686875 C2.642625,0.1225625 2.5070625,0.0876875 2.3641875,0.0640625 C2.2213125,0.0404375 2.0745,0.028625 1.92375,0.028625 C1.65375,0.028625 1.414125,0.0696875 1.204875,0.1518125 C0.995625,0.2339375 0.819,0.343625 0.675,0.480875 C0.531,0.618125 0.421875,0.7745 0.347625,0.95 C0.273375,1.1255 0.23625,1.3055 0.23625,1.49 C0.23625,1.7195 0.26775,1.9124375 0.33075,2.0688125 C0.39375,2.2251875 0.4764375,2.3556875 0.5788125,2.4603125 C0.6811875,2.5649375 0.797625,2.6493125 0.928125,2.7134375 C1.058625,2.7775625 1.1925,2.8315625 1.32975,2.8754375 C1.467,2.9193125 1.600875,2.95925 1.731375,2.99525 C1.861875,3.03125 1.9783125,3.072875 2.0806875,3.120125 C2.1830625,3.167375 2.26575,3.227 2.32875,3.299 C2.39175,3.371 2.42325,3.464375 2.42325,3.579125 C2.42325,3.777125 2.365875,3.9216875 2.251125,4.0128125 C2.136375,4.1039375 1.9755,4.1495 1.7685,4.1495 C1.6155,4.1495 1.48275,4.128125 1.37025,4.085375 C1.25775,4.042625 1.1581875,3.995375 1.0715625,3.943625 C0.9849375,3.891875 0.9073125,3.844625 0.8386875,3.801875 C0.7700625,3.759125 0.702,3.73775 0.6345,3.73775 C0.58275,3.73775 0.534375,3.750125 0.489375,3.774875 C0.444375,3.799625 0.4095,3.83225 0.38475,3.87275 L0.38475,3.87275 L0.04725,4.406 C0.144,4.50275 0.257625,4.5905 0.388125,4.66925 C0.518625,4.748 0.658125,4.8160625 0.806625,4.8734375 C0.955125,4.9308125 1.1086875,4.97525 1.2673125,5.00675 C1.4259375,5.03825 1.58175,5.054 1.73475,5.054 Z" id="S"></path>
        </g>
    </g>
</svg>