<?xml version="1.0" encoding="utf-8"?>
<svg width="49px" height="144px" viewbox="0 0 49 144" version="1.1" xmlns:xlink="http://www.w3.org/1999/xlink" xmlns="http://www.w3.org/2000/svg">
  <defs>
    <path d="M0 0L49 0L49 144L0 144L0 0Z" id="path_1" />
    <rect width="49" height="144" id="artboard_1" />
    <clipPath id="clip_1">
      <use xlink:href="#artboard_1" clip-rule="evenodd" />
    </clipPath>
    <clipPath id="mask_1">
      <use xlink:href="#path_1" />
    </clipPath>
  </defs>
  <g id="hover00119" clip-path="url(#clip_1)">
    <path d="M0 0L49 0L49 144L0 144L0 0Z" id="Background" fill="none" fill-rule="evenodd" stroke="none" />
    <g clip-path="url(#mask_1)">
      <path d="M0 2L0 1C0 0.723858 0.0976311 0.488155 0.292893 0.292893C0.488155 0.0976311 0.723858 0 1 0L47 0C47.2761 0 47.5118 0.0976311 47.7071 0.292893C47.9024 0.488155 48 0.723858 48 1L48 10C48 10.2761 47.9024 10.5118 47.7071 10.7071C47.5118 10.9024 47.2761 11 47 11L1 11C0.723858 11 0.488155 10.9024 0.292893 10.7071C0.0976311 10.5118 0 10.2761 0 10L0 2Z" transform="translate(0.5 2)" id="Rectangle" fill="#399DFF" fill-rule="evenodd" stroke="none" />
      <path d="M4.252 4.384C4.284 4.384 4.316 4.39067 4.348 4.404C4.38 4.41467 4.4107 4.43467 4.44 4.464L4.976 5.028C4.7413 5.33467 4.4467 5.5667 4.092 5.724C3.74 5.8787 3.3227 5.956 2.84 5.956C2.39733 5.956 2 5.8813 1.648 5.732C1.29867 5.58 1.00133 5.372 0.756 5.108C0.51333 4.84133 0.32667 4.52667 0.196 4.164C0.06533 3.79867 0 3.40267 0 2.976C0 2.54133 0.0706701 2.14267 0.212 1.78C0.35333 1.41467 0.552 1.1 0.808001 0.836C1.064 0.572 1.37067 0.36667 1.728 0.22C2.08533 0.0733304 2.47867 0 2.908 0C3.1267 0 3.332 0.02 3.524 0.0600004C3.7187 0.0973301 3.9 0.15067 4.068 0.22C4.236 0.28667 4.3907 0.368 4.532 0.464C4.6733 0.56 4.7987 0.664 4.908 0.776L4.452 1.388C4.4227 1.42533 4.388 1.46 4.348 1.492C4.308 1.52133 4.252 1.536 4.18 1.536C4.132 1.536 4.0867 1.52533 4.044 1.504C4.0013 1.48267 3.956 1.45733 3.908 1.428C3.86 1.396 3.8067 1.36267 3.748 1.328C3.692 1.29067 3.624 1.25733 3.544 1.228C3.4667 1.196 3.3747 1.16933 3.268 1.148C3.164 1.12667 3.0413 1.116 2.9 1.116C2.676 1.116 2.47067 1.15733 2.284 1.24C2.1 1.32267 1.94 1.444 1.804 1.604C1.67067 1.76133 1.56667 1.956 1.492 2.188C1.42 2.41733 1.384 2.68 1.384 2.976C1.384 3.27467 1.424 3.54 1.504 3.772C1.58667 4.004 1.69733 4.2 1.836 4.36C1.97733 4.51733 2.14133 4.63733 2.328 4.72C2.51467 4.80267 2.7147 4.844 2.928 4.844C3.0507 4.844 3.1627 4.83867 3.264 4.828C3.3653 4.81467 3.46 4.79467 3.548 4.768C3.636 4.73867 3.7187 4.70133 3.796 4.656C3.8733 4.608 3.952 4.548 4.032 4.476C4.064 4.44933 4.0987 4.428 4.136 4.412C4.1733 4.39333 4.212 4.384 4.252 4.384L4.252 4.384ZM8.9582 4.812L8.9582 5.89199L5.4462 5.89199L5.4462 0.0639954L6.7982 0.0639954L6.7982 4.812L8.9582 4.812L8.9582 4.812ZM12.6093 3.66401L12.0693 2.06801C12.0293 1.96668 11.9866 1.84801 11.9413 1.71201C11.896 1.57334 11.8506 1.42401 11.8053 1.26401C11.7653 1.42668 11.7226 1.57734 11.6773 1.71601C11.632 1.85468 11.5893 1.97468 11.5493 2.07601L11.0133 3.66401L12.6093 3.66401L12.6093 3.66401ZM14.7573 5.89199L13.7093 5.89199C13.592 5.89199 13.4973 5.86529 13.4253 5.812C13.3533 5.756 13.2986 5.6853 13.2613 5.6L12.9173 4.584L10.7013 4.584L10.3573 5.6C10.328 5.6747 10.2746 5.7427 10.1973 5.804C10.1226 5.8627 10.0293 5.89199 9.9173 5.89199L8.8613 5.89199L11.1173 0.0639954L12.5013 0.0639954L14.7573 5.89199L14.7573 5.89199ZM18.3168 1.248C18.2768 1.312 18.2341 1.36 18.1888 1.392C18.1461 1.424 18.0901 1.44 18.0208 1.44C17.9595 1.44 17.8928 1.42133 17.8208 1.384C17.7515 1.344 17.6715 1.3 17.5808 1.252C17.4928 1.204 17.3915 1.16133 17.2768 1.124C17.1621 1.084 17.0315 1.064 16.8848 1.064C16.6315 1.064 16.4421 1.11867 16.3168 1.228C16.1941 1.33467 16.1328 1.48 16.1328 1.664C16.1328 1.78133 16.1701 1.87867 16.2448 1.956C16.3195 2.03333 16.4168 2.1 16.5368 2.156C16.6595 2.212 16.7981 2.264 16.9528 2.312C17.1101 2.35733 17.2701 2.40933 17.4328 2.468C17.5955 2.524 17.7541 2.59067 17.9088 2.668C18.0661 2.74533 18.2048 2.844 18.3248 2.964C18.4475 3.084 18.5461 3.23067 18.6208 3.404C18.6955 3.57467 18.7328 3.78133 18.7328 4.024C18.7328 4.29333 18.6861 4.54533 18.5928 4.78C18.4995 5.01467 18.3635 5.22 18.1848 5.396C18.0088 5.5693 17.7901 5.7067 17.5288 5.808C17.2701 5.9067 16.9755 5.956 16.6448 5.956C16.4635 5.956 16.2781 5.9373 16.0888 5.9C15.9021 5.8627 15.7208 5.8107 15.5448 5.744C15.3688 5.6747 15.2035 5.5933 15.0488 5.5C14.8941 5.4067 14.7595 5.30267 14.6448 5.188L15.0448 4.556C15.0768 4.51067 15.1181 4.47333 15.1688 4.444C15.2221 4.412 15.2795 4.396 15.3408 4.396C15.4208 4.396 15.5008 4.42133 15.5808 4.472C15.6635 4.52267 15.7555 4.57867 15.8568 4.64C15.9608 4.70133 16.0795 4.75733 16.2128 4.808C16.3461 4.85867 16.5035 4.884 16.6848 4.884C16.9301 4.884 17.1208 4.83067 17.2568 4.724C17.3928 4.61467 17.4608 4.44267 17.4608 4.208C17.4608 4.072 17.4235 3.96133 17.3488 3.876C17.2741 3.79067 17.1755 3.72 17.0528 3.664C16.9328 3.608 16.7955 3.55867 16.6408 3.516C16.4861 3.47333 16.3275 3.42667 16.1648 3.376C16.0021 3.32267 15.8435 3.25867 15.6888 3.184C15.5341 3.10667 15.3955 3.00667 15.2728 2.884C15.1528 2.75867 15.0555 2.604 14.9808 2.42C14.9061 2.23333 14.8688 2.004 14.8688 1.732C14.8688 1.51333 14.9128 1.3 15.0008 1.092C15.0888 0.884 15.2181 0.69867 15.3888 0.536C15.5595 0.37333 15.7688 0.244 16.0168 0.148C16.2648 0.0493302 16.5488 0 16.8688 0C17.0475 0 17.2208 0.0146704 17.3888 0.0440001C17.5595 0.0706701 17.7208 0.112 17.8728 0.168C18.0248 0.22133 18.1661 0.28667 18.2968 0.364C18.4301 0.43867 18.5488 0.524 18.6528 0.62L18.3168 1.248L18.3168 1.248ZM22.6265 1.248C22.5865 1.312 22.5438 1.36 22.4985 1.392C22.4558 1.424 22.3998 1.44 22.3305 1.44C22.2692 1.44 22.2025 1.42133 22.1305 1.384C22.0612 1.344 21.9812 1.3 21.8905 1.252C21.8025 1.204 21.7012 1.16133 21.5865 1.124C21.4718 1.084 21.3412 1.064 21.1945 1.064C20.9412 1.064 20.7518 1.11867 20.6265 1.228C20.5038 1.33467 20.4425 1.48 20.4425 1.664C20.4425 1.78133 20.4798 1.87867 20.5545 1.956C20.6292 2.03333 20.7265 2.1 20.8465 2.156C20.9692 2.212 21.1078 2.264 21.2625 2.312C21.4198 2.35733 21.5798 2.40933 21.7425 2.468C21.9052 2.524 22.0638 2.59067 22.2185 2.668C22.3758 2.74533 22.5145 2.844 22.6345 2.964C22.7572 3.084 22.8558 3.23067 22.9305 3.404C23.0052 3.57467 23.0425 3.78133 23.0425 4.024C23.0425 4.29333 22.9958 4.54533 22.9025 4.78C22.8092 5.01467 22.6732 5.22 22.4945 5.396C22.3185 5.5693 22.0998 5.7067 21.8385 5.808C21.5798 5.9067 21.2852 5.956 20.9545 5.956C20.7732 5.956 20.5878 5.9373 20.3985 5.9C20.2118 5.8627 20.0305 5.8107 19.8545 5.744C19.6785 5.6747 19.5132 5.5933 19.3585 5.5C19.2038 5.4067 19.0692 5.30267 18.9545 5.188L19.3545 4.556C19.3865 4.51067 19.4278 4.47333 19.4785 4.444C19.5318 4.412 19.5892 4.396 19.6505 4.396C19.7305 4.396 19.8105 4.42133 19.8905 4.472C19.9732 4.52267 20.0652 4.57867 20.1665 4.64C20.2705 4.70133 20.3892 4.75733 20.5225 4.808C20.6558 4.85867 20.8132 4.884 20.9945 4.884C21.2398 4.884 21.4305 4.83067 21.5665 4.724C21.7025 4.61467 21.7705 4.44267 21.7705 4.208C21.7705 4.072 21.7332 3.96133 21.6585 3.876C21.5838 3.79067 21.4852 3.72 21.3625 3.664C21.2425 3.608 21.1052 3.55867 20.9505 3.516C20.7958 3.47333 20.6372 3.42667 20.4745 3.376C20.3118 3.32267 20.1532 3.25867 19.9985 3.184C19.8438 3.10667 19.7052 3.00667 19.5825 2.884C19.4625 2.75867 19.3652 2.604 19.2905 2.42C19.2158 2.23333 19.1785 2.004 19.1785 1.732C19.1785 1.51333 19.2225 1.3 19.3105 1.092C19.3985 0.884 19.5278 0.69867 19.6985 0.536C19.8692 0.37333 20.0785 0.244 20.3265 0.148C20.5745 0.0493302 20.8585 0 21.1785 0C21.3572 0 21.5305 0.0146704 21.6985 0.0440001C21.8692 0.0706701 22.0305 0.112 22.1825 0.168C22.3345 0.22133 22.4758 0.28667 22.6065 0.364C22.7398 0.43867 22.8585 0.524 22.9625 0.62L22.6265 1.248L22.6265 1.248ZM25.0762 5.89199L23.7162 5.89199L23.7162 0.0639954L25.0762 0.0639954L25.0762 5.89199L25.0762 5.89199ZM30.0086 4.384C30.0406 4.384 30.0726 4.39067 30.1046 4.404C30.1366 4.41467 30.1672 4.43467 30.1966 4.464L30.7326 5.028C30.4979 5.33467 30.2032 5.5667 29.8486 5.724C29.4966 5.8787 29.0792 5.956 28.5966 5.956C28.1539 5.956 27.7566 5.8813 27.4046 5.732C27.0552 5.58 26.7579 5.372 26.5126 5.108C26.2699 4.84133 26.0832 4.52667 25.9526 4.164C25.8219 3.79867 25.7566 3.40267 25.7566 2.976C25.7566 2.54133 25.8272 2.14267 25.9686 1.78C26.1099 1.41467 26.3086 1.1 26.5646 0.836C26.8206 0.572 27.1272 0.36667 27.4846 0.22C27.8419 0.0733304 28.2352 0 28.6646 0C28.8832 0 29.0886 0.02 29.2806 0.0600004C29.4752 0.0973301 29.6566 0.15067 29.8246 0.22C29.9926 0.28667 30.1472 0.368 30.2886 0.464C30.4299 0.56 30.5552 0.664 30.6646 0.776L30.2086 1.388C30.1792 1.42533 30.1446 1.46 30.1046 1.492C30.0646 1.52133 30.0086 1.536 29.9366 1.536C29.8886 1.536 29.8432 1.52533 29.8006 1.504C29.7579 1.48267 29.7126 1.45733 29.6646 1.428C29.6166 1.396 29.5632 1.36267 29.5046 1.328C29.4486 1.29067 29.3806 1.25733 29.3006 1.228C29.2232 1.196 29.1312 1.16933 29.0246 1.148C28.9206 1.12667 28.7979 1.116 28.6566 1.116C28.4326 1.116 28.2272 1.15733 28.0406 1.24C27.8566 1.32267 27.6966 1.444 27.5606 1.604C27.4272 1.76133 27.3232 1.956 27.2486 2.188C27.1766 2.41733 27.1406 2.68 27.1406 2.976C27.1406 3.27467 27.1806 3.54 27.2606 3.772C27.3432 4.004 27.4539 4.2 27.5926 4.36C27.7339 4.51733 27.8979 4.63733 28.0846 4.72C28.2712 4.80267 28.4712 4.844 28.6846 4.844C28.8072 4.844 28.9192 4.83867 29.0206 4.828C29.1219 4.81467 29.2166 4.79467 29.3046 4.768C29.3926 4.73867 29.4752 4.70133 29.5526 4.656C29.6299 4.608 29.7086 4.548 29.7886 4.476C29.8206 4.44933 29.8552 4.428 29.8926 4.412C29.9299 4.39333 29.9686 4.384 30.0086 4.384L30.0086 4.384Z" transform="translate(7.4100037 4.6080017)" id="Shape" fill="#FFFFFF" fill-rule="evenodd" stroke="none" />
      <path d="M0 2L0 1C0 0.723858 0.0976311 0.488155 0.292893 0.292893C0.488155 0.0976311 0.723858 0 1 0L47 0C47.2761 0 47.5118 0.0976311 47.7071 0.292893C47.9024 0.488155 48 0.723858 48 1L48 10C48 10.2761 47.9024 10.5118 47.7071 10.7071C47.5118 10.9024 47.2761 11 47 11L1 11C0.723858 11 0.488155 10.9024 0.292893 10.7071C0.0976311 10.5118 0 10.2761 0 10L0 2Z" transform="translate(0.5 2)" id="Rectangle" fill="none" fill-rule="evenodd" stroke="#399DFF" stroke-width="1" />
      <path d="M2.5 3L0 0L5 0L2.5 3L2.5 3Z" transform="translate(43.5 7)" id="Shape" fill="#FFFFFF" fill-rule="evenodd" stroke="none" />
      <path d="M0 2L0 1C0 0.723858 0.0976311 0.488155 0.292893 0.292893C0.488155 0.0976311 0.723858 0 1 0L47 0C47.2761 0 47.5118 0.0976311 47.7071 0.292893C47.9024 0.488155 48 0.723858 48 1L48 10C48 10.2761 47.9024 10.5118 47.7071 10.7071C47.5118 10.9024 47.2761 11 47 11L1 11C0.723858 11 0.488155 10.9024 0.292893 10.7071C0.0976311 10.5118 0 10.2761 0 10L0 2Z" transform="translate(0.5 20)" id="Rectangle" fill="#399DFF" fill-rule="evenodd" stroke="none" />
      <path d="M3.672 1.248C3.632 1.312 3.5893 1.36 3.544 1.392C3.5013 1.424 3.4453 1.44 3.376 1.44C3.3147 1.44 3.248 1.4213 3.176 1.384C3.1067 1.344 3.0267 1.3 2.936 1.252C2.848 1.204 2.7467 1.1613 2.632 1.124C2.5173 1.084 2.3867 1.064 2.24 1.064C1.9867 1.064 1.7973 1.1187 1.672 1.228C1.5493 1.3347 1.488 1.48 1.488 1.664C1.488 1.7813 1.5253 1.8787 1.6 1.956C1.6747 2.0333 1.772 2.1 1.892 2.156C2.0147 2.212 2.1533 2.264 2.308 2.312C2.4653 2.3573 2.6253 2.4093 2.788 2.468C2.9507 2.524 3.1093 2.5907 3.264 2.668C3.4213 2.7453 3.56 2.844 3.68 2.964C3.8027 3.084 3.9013 3.2307 3.976 3.404C4.0507 3.5747 4.088 3.7813 4.088 4.024C4.088 4.2933 4.0413 4.5453 3.948 4.78C3.8547 5.0147 3.7187 5.22 3.54 5.396C3.364 5.5693 3.1453 5.7067 2.884 5.808C2.6253 5.9067 2.3307 5.956 2 5.956C1.8187 5.956 1.6333 5.9373 1.444 5.9C1.2573 5.8627 1.076 5.8107 0.9 5.744C0.724 5.6747 0.5587 5.5933 0.403999 5.5C0.2493 5.4067 0.114699 5.3027 0 5.188L0.4 4.556C0.432 4.5107 0.4733 4.4733 0.524 4.444C0.5773 4.412 0.6347 4.396 0.696 4.396C0.776 4.396 0.856 4.4213 0.936 4.472C1.0187 4.5227 1.1107 4.5787 1.212 4.64C1.316 4.7013 1.4347 4.7573 1.568 4.808C1.7013 4.8587 1.8587 4.884 2.04 4.884C2.2853 4.884 2.476 4.8307 2.612 4.724C2.748 4.6147 2.816 4.4427 2.816 4.208C2.816 4.072 2.7787 3.9613 2.704 3.876C2.6293 3.7907 2.5307 3.72 2.408 3.664C2.288 3.608 2.1507 3.5587 1.996 3.516C1.8413 3.4733 1.6827 3.4267 1.52 3.376C1.3573 3.3227 1.1987 3.2587 1.044 3.184C0.889299 3.1067 0.7507 3.0067 0.627999 2.884C0.507999 2.7587 0.4107 2.604 0.335999 2.42C0.2613 2.2333 0.224 2.004 0.224 1.732C0.224 1.5133 0.268 1.3 0.356 1.092C0.443999 0.884001 0.573299 0.6987 0.743999 0.535999C0.9147 0.373301 1.124 0.243999 1.372 0.148001C1.62 0.0493012 1.904 0 2.224 0C2.4027 0 2.576 0.0146999 2.744 0.0440006C2.9147 0.0706997 3.076 0.112 3.228 0.167999C3.38 0.2213 3.5213 0.286699 3.652 0.364C3.7853 0.4387 3.904 0.524 4.008 0.620001L3.672 1.248L3.672 1.248ZM6.12169 5.89199L4.76169 5.89199L4.76169 0.0639954L6.12169 0.0639954L6.12169 5.89199L6.12169 5.89199ZM12.2141 0.0639954L12.2141 5.89199L11.5101 5.89199C11.4061 5.89199 11.3181 5.87599 11.2461 5.84399C11.1767 5.80929 11.1074 5.75069 11.0381 5.66799L8.2901 2.19199C8.3007 2.29599 8.3074 2.39729 8.3101 2.49599C8.3154 2.592 8.3181 2.6827 8.3181 2.76799L8.3181 5.89199L7.1261 5.89199L7.1261 0.0639954L7.8381 0.0639954C7.8967 0.0639954 7.9461 0.0666943 7.9861 0.0719948C8.0261 0.0772953 8.0621 0.0879936 8.0941 0.103994C8.1261 0.117294 8.1567 0.137295 8.1861 0.163994C8.2154 0.190695 8.2487 0.226694 8.2861 0.271994L11.0581 3.77199C11.0447 3.65999 11.0354 3.55199 11.0301 3.44799C11.0247 3.3413 11.0221 3.24129 11.0221 3.14799L11.0221 0.0639954L12.2141 0.0639954L12.2141 0.0639954ZM14.5848 1.10399L14.5848 2.46399L16.4168 2.46399L16.4168 3.46399L14.5848 3.46399L14.5848 4.85199L16.9768 4.85199L16.9768 5.89199L13.2248 5.89199L13.2248 0.0639954L16.9768 0.0639954L16.9768 1.10399L14.5848 1.10399L14.5848 1.10399Z" transform="translate(14.10199 22.608002)" id="Shape" fill="#FFFFFF" fill-rule="evenodd" stroke="none" />
      <path d="M0 2L0 1C0 0.723858 0.0976311 0.488155 0.292893 0.292893C0.488155 0.0976311 0.723858 0 1 0L47 0C47.2761 0 47.5118 0.0976311 47.7071 0.292893C47.9024 0.488155 48 0.723858 48 1L48 10C48 10.2761 47.9024 10.5118 47.7071 10.7071C47.5118 10.9024 47.2761 11 47 11L1 11C0.723858 11 0.488155 10.9024 0.292893 10.7071C0.0976311 10.5118 0 10.2761 0 10L0 2Z" transform="translate(0.5 20)" id="Rectangle" fill="none" fill-rule="evenodd" stroke="#399DFF" stroke-width="1" />
      <path d="M2.5 3L0 0L5 0L2.5 3L2.5 3Z" transform="translate(43.5 25)" id="Shape" fill="#FFFFFF" fill-rule="evenodd" stroke="none" />
      <path d="M0 2L0 1C0 0.723858 0.0976311 0.488155 0.292893 0.292893C0.488155 0.0976311 0.723858 0 1 0L47 0C47.2761 0 47.5118 0.0976311 47.7071 0.292893C47.9024 0.488155 48 0.723858 48 1L48 10C48 10.2761 47.9024 10.5118 47.7071 10.7071C47.5118 10.9024 47.2761 11 47 11L1 11C0.723858 11 0.488155 10.9024 0.292893 10.7071C0.0976311 10.5118 0 10.2761 0 10L0 2Z" transform="translate(0.5 38)" id="Rectangle" fill="#399DFF" fill-rule="evenodd" stroke="none" />
      <path d="M8.488 0L6.688 5.828L5.464 5.828L4.368 2.216C4.3466 2.16 4.3266 2.0987 4.308 2.032C4.2893 1.9627 4.2706 1.8907 4.252 1.816C4.2333 1.8907 4.2146 1.9627 4.196 2.032C4.1773 2.0987 4.1573 2.16 4.136 2.216L3.024 5.828L1.8 5.828L0 0L1.136 0C1.2533 0 1.3506 0.0266991 1.428 0.079998C1.508 0.133301 1.56 0.203999 1.584 0.292L2.384 3.332C2.408 3.428 2.432 3.5333 2.456 3.648C2.48 3.76 2.504 3.8773 2.528 4C2.576 3.7493 2.6346 3.5267 2.704 3.332L3.648 0.292C3.672 0.2173 3.7226 0.1507 3.8 0.0919991C3.88 0.0307007 3.976 0 4.088 0L4.488 0C4.6053 0 4.7 0.0279999 4.772 0.0839996C4.844 0.137299 4.8986 0.206699 4.936 0.292L5.872 3.332C5.9413 3.5187 6 3.7307 6.048 3.968C6.0693 3.848 6.0906 3.736 6.112 3.632C6.136 3.5253 6.16 3.4253 6.184 3.332L6.984 0.292C7.0053 0.214699 7.056 0.146698 7.136 0.0879974C7.216 0.0293007 7.312 0 7.424 0L8.488 0L8.488 0ZM13.1394 1.072L11.4994 1.072L11.4994 5.828L10.1474 5.828L10.1474 1.072L8.50739 1.072L8.50739 0L13.1394 0L13.1394 1.072L13.1394 1.072Z" transform="translate(16.046204 40.671997)" id="Shape" fill="#FFFFFF" fill-rule="evenodd" stroke="none" />
      <path d="M0 2L0 1C0 0.723858 0.0976311 0.488155 0.292893 0.292893C0.488155 0.0976311 0.723858 0 1 0L47 0C47.2761 0 47.5118 0.0976311 47.7071 0.292893C47.9024 0.488155 48 0.723858 48 1L48 10C48 10.2761 47.9024 10.5118 47.7071 10.7071C47.5118 10.9024 47.2761 11 47 11L1 11C0.723858 11 0.488155 10.9024 0.292893 10.7071C0.0976311 10.5118 0 10.2761 0 10L0 2Z" transform="translate(0.5 38)" id="Rectangle" fill="none" fill-rule="evenodd" stroke="#399DFF" stroke-width="1" />
      <path d="M2.5 3L0 0L5 0L2.5 3L2.5 3Z" transform="translate(43.5 43)" id="Shape" fill="#FFFFFF" fill-rule="evenodd" stroke="none" />
      <path d="M0 2L0 1C0 0.723858 0.0976311 0.488155 0.292893 0.292893C0.488155 0.0976311 0.723858 0 1 0L47 0C47.2761 0 47.5118 0.0976311 47.7071 0.292893C47.9024 0.488155 48 0.723858 48 1L48 10C48 10.2761 47.9024 10.5118 47.7071 10.7071C47.5118 10.9024 47.2761 11 47 11L1 11C0.723858 11 0.488155 10.9024 0.292893 10.7071C0.0976311 10.5118 0 10.2761 0 10L0 2Z" transform="translate(0.5 56)" id="Rectangle" fill="#399DFF" fill-rule="evenodd" stroke="none" />
      <path d="M3.672 1.248C3.632 1.312 3.58934 1.36 3.544 1.392C3.50134 1.424 3.44534 1.44 3.376 1.44C3.31467 1.44 3.248 1.4213 3.176 1.384C3.10667 1.344 3.02667 1.3 2.936 1.252C2.848 1.204 2.74667 1.1613 2.632 1.124C2.51734 1.084 2.38667 1.064 2.24 1.064C1.98667 1.064 1.79734 1.1187 1.672 1.228C1.54934 1.3347 1.488 1.48 1.488 1.664C1.488 1.7813 1.52534 1.8787 1.6 1.956C1.67467 2.0333 1.772 2.1 1.892 2.156C2.01467 2.212 2.15334 2.264 2.308 2.312C2.46534 2.3573 2.62534 2.4093 2.788 2.468C2.95067 2.524 3.10934 2.5907 3.264 2.668C3.42134 2.7453 3.56 2.844 3.68 2.964C3.80267 3.084 3.90134 3.2307 3.976 3.404C4.05067 3.5747 4.088 3.7813 4.088 4.024C4.088 4.2933 4.04134 4.5453 3.94801 4.78C3.85467 5.0147 3.71867 5.22 3.54 5.396C3.364 5.5693 3.14534 5.7067 2.884 5.808C2.62534 5.9067 2.33067 5.956 2 5.956C1.81867 5.956 1.63334 5.9373 1.444 5.9C1.25734 5.8627 1.076 5.8107 0.9 5.744C0.724 5.6747 0.55867 5.5933 0.404 5.5C0.24934 5.4067 0.11467 5.3027 0 5.188L0.4 4.556C0.432 4.5107 0.47334 4.4733 0.524 4.444C0.57734 4.412 0.63467 4.396 0.696 4.396C0.776 4.396 0.856 4.4213 0.936 4.472C1.01867 4.5227 1.11067 4.5787 1.212 4.64C1.316 4.7013 1.43467 4.7573 1.568 4.808C1.70134 4.8587 1.85867 4.884 2.04 4.884C2.28534 4.884 2.476 4.8307 2.612 4.724C2.748 4.6147 2.816 4.4427 2.816 4.208C2.816 4.072 2.77867 3.9613 2.704 3.876C2.62934 3.7907 2.53067 3.72 2.408 3.664C2.288 3.608 2.15067 3.5587 1.996 3.516C1.84134 3.4733 1.68267 3.4267 1.52 3.376C1.35734 3.3227 1.19867 3.2587 1.044 3.184C0.88934 3.1067 0.75067 3.0067 0.628 2.884C0.508 2.7587 0.41067 2.604 0.336 2.42C0.26134 2.2333 0.224 2.004 0.224 1.732C0.224 1.5133 0.268 1.3 0.356 1.092C0.444 0.883999 0.57334 0.6987 0.744 0.535999C0.91467 0.373299 1.124 0.243999 1.372 0.147999C1.62 0.0492973 1.904 0 2.224 0C2.40267 0 2.576 0.014698 2.744 0.0439987C2.91467 0.0706978 3.076 0.112 3.228 0.167999C3.38 0.221298 3.52134 0.286697 3.652 0.363998C3.78534 0.438698 3.904 0.523998 4.00801 0.619999L3.672 1.248L3.672 1.248ZM6.10169 3.30801C5.95503 3.43071 5.85103 3.56271 5.78969 3.70401C5.72836 3.84271 5.69769 3.99072 5.69769 4.14801C5.69769 4.27601 5.71636 4.39201 5.75369 4.49601C5.79369 4.60001 5.84969 4.68931 5.92169 4.76402C5.99369 4.83871 6.07903 4.89731 6.17769 4.94001C6.27903 4.98001 6.39103 5.00002 6.51369 5.00002C6.69236 5.00002 6.85903 4.97731 7.01369 4.93201C7.16836 4.88401 7.31236 4.81731 7.44569 4.73201L6.10169 3.30801L6.10169 3.30801ZM10.0897 5.892L8.86571 5.892C8.80431 5.892 8.74971 5.8893 8.70171 5.884C8.65371 5.876 8.60831 5.864 8.56571 5.848C8.52571 5.832 8.48701 5.8093 8.44971 5.78C8.41231 5.7507 8.3723 5.71329 8.32971 5.668L8.07771 5.404C7.82436 5.58 7.54703 5.716 7.24569 5.812C6.94703 5.908 6.62836 5.956 6.28969 5.956C6.05769 5.956 5.82969 5.916 5.60569 5.836C5.38436 5.756 5.18703 5.6427 5.01369 5.49599C4.84036 5.3467 4.70036 5.1667 4.59369 4.956C4.48703 4.7453 4.43369 4.5093 4.43369 4.248C4.43369 4.072 4.46036 3.9053 4.51369 3.748C4.56969 3.5907 4.64703 3.4453 4.74569 3.312C4.84703 3.176 4.96569 3.0533 5.10169 2.944C5.23769 2.832 5.38836 2.7347 5.55369 2.652C5.42569 2.4573 5.33369 2.2667 5.27769 2.08C5.22169 1.8933 5.19369 1.712 5.19369 1.536C5.19369 1.328 5.23103 1.132 5.30569 0.947998C5.38303 0.761299 5.49369 0.598698 5.63769 0.459999C5.78436 0.318699 5.96303 0.206699 6.17369 0.123997C6.38703 0.0412979 6.63103 0 6.90568 0C7.16436 0 7.39236 0.0387001 7.58969 0.115997C7.78702 0.190697 7.95369 0.290699 8.0897 0.415997C8.22571 0.5387 8.33231 0.681297 8.40971 0.843998C8.48701 1.0067 8.53501 1.1733 8.55371 1.344L7.75369 1.504C7.61236 1.536 7.50836 1.48 7.44169 1.336C7.38036 1.1973 7.30836 1.092 7.22569 1.02C7.14569 0.947998 7.03903 0.911999 6.90568 0.911999C6.81236 0.911999 6.73103 0.929298 6.66169 0.963997C6.59236 0.998699 6.53369 1.044 6.48568 1.1C6.44036 1.156 6.40568 1.2213 6.38169 1.296C6.35769 1.3707 6.34569 1.448 6.34569 1.528C6.34569 1.5973 6.35103 1.664 6.36169 1.728C6.37503 1.7893 6.39636 1.8533 6.42569 1.92C6.45503 1.984 6.49369 2.0507 6.54169 2.12C6.59236 2.1893 6.65503 2.2653 6.72969 2.348L8.16971 3.864C8.2417 3.7067 8.3003 3.5413 8.34571 3.368C8.391 3.192 8.42031 3.012 8.43371 2.828C8.44171 2.7533 8.46701 2.6947 8.5097 2.652C8.55231 2.6093 8.6097 2.588 8.68171 2.588L9.46571 2.588C9.46571 2.9747 9.41371 3.3373 9.30971 3.676C9.20571 4.0147 9.05901 4.324 8.86971 4.604L10.0897 5.892L10.0897 5.892ZM15.5969 0.0639954L15.5969 5.89199L14.2369 5.89199L14.2369 3.42799L11.8689 3.42799L11.8689 5.89199L10.5089 5.89199L10.5089 0.0639954L11.8689 0.0639954L11.8689 2.5L14.2369 2.5L14.2369 0.0639954L15.5969 0.0639954L15.5969 0.0639954ZM23.4272 0.0639954L23.4272 5.89199L22.7232 5.89199C22.6192 5.89199 22.5312 5.876 22.4592 5.844C22.3898 5.80929 22.3205 5.7507 22.2512 5.668L19.5032 2.19199C19.5138 2.29599 19.5205 2.39729 19.5232 2.49599C19.5285 2.592 19.5312 2.68269 19.5312 2.76799L19.5312 5.89199L18.3392 5.89199L18.3392 0.0639954L19.0512 0.0639954C19.1098 0.0639954 19.1592 0.0666962 19.1992 0.0719948C19.2392 0.0772934 19.2752 0.0879936 19.3072 0.103996C19.3392 0.117294 19.3698 0.137295 19.3992 0.163994C19.4285 0.190693 19.4618 0.226696 19.4992 0.271996L22.2712 3.772C22.2578 3.66 22.2485 3.55199 22.2432 3.44799C22.2378 3.34129 22.2352 3.24129 22.2352 3.14799L22.2352 0.0639954L23.4272 0.0639954L23.4272 0.0639954ZM30.1579 2.976C30.1579 3.3973 30.0846 3.7893 29.9379 4.152C29.7939 4.5147 29.5899 4.8307 29.3259 5.1C29.0619 5.3667 28.7433 5.576 28.3699 5.728C27.9993 5.88 27.5873 5.956 27.1339 5.956C26.6806 5.956 26.2673 5.88 25.8939 5.728C25.5206 5.576 25.2006 5.3667 24.9339 5.1C24.6699 4.8307 24.4646 4.5147 24.3179 4.152C24.1739 3.7893 24.1019 3.3973 24.1019 2.976C24.1019 2.5547 24.1739 2.1627 24.3179 1.8C24.4646 1.4373 24.6699 1.1227 24.9339 0.855999C25.2006 0.589298 25.5206 0.379997 25.8939 0.227997C26.2673 0.0759964 26.6806 0 27.1339 0C27.5873 0 27.9993 0.0772972 28.3699 0.231998C28.7433 0.383999 29.0619 0.5933 29.3259 0.859997C29.5899 1.1267 29.7939 1.4413 29.9379 1.804C30.0846 2.1667 30.1579 2.5573 30.1579 2.976L30.1579 2.976ZM28.7739 2.976C28.7739 2.688 28.7366 2.4293 28.6619 2.2C28.5873 1.968 28.4793 1.772 28.3379 1.612C28.1993 1.452 28.0286 1.3293 27.8259 1.244C27.6233 1.1587 27.3926 1.116 27.1339 1.116C26.8726 1.116 26.6393 1.1587 26.4339 1.244C26.2313 1.3293 26.0593 1.452 25.9179 1.612C25.7793 1.772 25.6726 1.968 25.5979 2.2C25.5233 2.4293 25.4859 2.688 25.4859 2.976C25.4859 3.2667 25.5233 3.528 25.5979 3.76C25.6726 3.9893 25.7793 4.184 25.9179 4.344C26.0593 4.504 26.2313 4.6267 26.4339 4.712C26.6393 4.7947 26.8726 4.836 27.1339 4.836C27.3926 4.836 27.6233 4.7947 27.8259 4.712C28.0286 4.6267 28.1993 4.504 28.3379 4.344C28.4793 4.184 28.5873 3.9893 28.6619 3.76C28.7366 3.528 28.7739 3.2667 28.7739 2.976L28.7739 2.976ZM32.1936 5.89199L30.8336 5.89199L30.8336 0.0639954L32.1936 0.0639954L32.1936 5.89199L32.1936 5.89199ZM36.4179 1.248C36.3779 1.312 36.3353 1.36 36.2899 1.392C36.2473 1.424 36.1913 1.44 36.1219 1.44C36.0606 1.44 35.9939 1.4213 35.9219 1.384C35.8526 1.344 35.7726 1.3 35.6819 1.252C35.5939 1.204 35.4926 1.1613 35.3779 1.124C35.2633 1.084 35.1326 1.064 34.9859 1.064C34.7326 1.064 34.5433 1.1187 34.4179 1.228C34.2953 1.3347 34.2339 1.48 34.2339 1.664C34.2339 1.7813 34.2713 1.8787 34.3459 1.956C34.4206 2.0333 34.5179 2.1 34.6379 2.156C34.7606 2.212 34.8993 2.264 35.0539 2.312C35.2113 2.3573 35.3713 2.4093 35.5339 2.468C35.6966 2.524 35.8553 2.5907 36.0099 2.668C36.1673 2.7453 36.3059 2.844 36.4259 2.964C36.5486 3.084 36.6473 3.2307 36.7219 3.404C36.7966 3.5747 36.8339 3.7813 36.8339 4.024C36.8339 4.2933 36.7873 4.5453 36.6939 4.78C36.6006 5.0147 36.4646 5.22 36.2859 5.396C36.1099 5.5693 35.8913 5.7067 35.6299 5.808C35.3713 5.9067 35.0766 5.956 34.7459 5.956C34.5646 5.956 34.3793 5.9373 34.1899 5.9C34.0033 5.8627 33.8219 5.8107 33.6459 5.744C33.4699 5.6747 33.3046 5.5933 33.1499 5.5C32.9953 5.4067 32.8606 5.3027 32.7459 5.188L33.1459 4.556C33.1779 4.5107 33.2193 4.4733 33.2699 4.444C33.3233 4.412 33.3806 4.396 33.4419 4.396C33.5219 4.396 33.6019 4.4213 33.6819 4.472C33.7646 4.5227 33.8566 4.5787 33.9579 4.64C34.0619 4.7013 34.1806 4.7573 34.3139 4.808C34.4473 4.8587 34.6046 4.884 34.7859 4.884C35.0313 4.884 35.2219 4.8307 35.3579 4.724C35.4939 4.6147 35.5619 4.4427 35.5619 4.208C35.5619 4.072 35.5246 3.9613 35.4499 3.876C35.3753 3.7907 35.2766 3.72 35.1539 3.664C35.0339 3.608 34.8966 3.5587 34.7419 3.516C34.5873 3.4733 34.4286 3.4267 34.2659 3.376C34.1033 3.3227 33.9446 3.2587 33.7899 3.184C33.6353 3.1067 33.4966 3.0067 33.3739 2.884C33.2539 2.7587 33.1566 2.604 33.0819 2.42C33.0073 2.2333 32.9699 2.004 32.9699 1.732C32.9699 1.5133 33.0139 1.3 33.1019 1.092C33.1899 0.883999 33.3193 0.6987 33.4899 0.535999C33.6606 0.373299 33.8699 0.243999 34.1179 0.147999C34.3659 0.0492973 34.6499 0 34.9699 0C35.1486 0 35.3219 0.014698 35.4899 0.0439987C35.6606 0.0706978 35.8219 0.112 35.9739 0.167999C36.1259 0.221298 36.2673 0.286697 36.3979 0.363998C36.5313 0.438698 36.6499 0.523998 36.7539 0.619999L36.4179 1.248L36.4179 1.248ZM38.8676 1.104L38.8676 2.46399L40.6996 2.46399L40.6996 3.46399L38.8676 3.46399L38.8676 4.85199L41.2596 4.85199L41.2596 5.89199L37.5076 5.89199L37.5076 0.0639954L41.2596 0.0639954L41.2596 1.104L38.8676 1.104L38.8676 1.104Z" transform="translate(1.9606018 58.608)" id="Shape" fill="#FFFFFF" fill-rule="evenodd" stroke="none" />
      <path d="M0 2L0 1C0 0.723858 0.0976311 0.488155 0.292893 0.292893C0.488155 0.0976311 0.723858 0 1 0L47 0C47.2761 0 47.5118 0.0976311 47.7071 0.292893C47.9024 0.488155 48 0.723858 48 1L48 10C48 10.2761 47.9024 10.5118 47.7071 10.7071C47.5118 10.9024 47.2761 11 47 11L1 11C0.723858 11 0.488155 10.9024 0.292893 10.7071C0.0976311 10.5118 0 10.2761 0 10L0 2Z" transform="translate(0.5 56)" id="Rectangle" fill="none" fill-rule="evenodd" stroke="#399DFF" stroke-width="1" />
      <path d="M2.5 3L0 0L5 0L2.5 3L2.5 3Z" transform="translate(43.5 61)" id="Shape" fill="#FFFFFF" fill-rule="evenodd" stroke="none" />
      <path d="M0 2L0 1C0 0.723858 0.0976311 0.488155 0.292893 0.292893C0.488155 0.0976311 0.723858 0 1 0L47 0C47.2761 0 47.5118 0.0976311 47.7071 0.292893C47.9024 0.488155 48 0.723858 48 1L48 10C48 10.2761 47.9024 10.5118 47.7071 10.7071C47.5118 10.9024 47.2761 11 47 11L1 11C0.723858 11 0.488155 10.9024 0.292893 10.7071C0.0976311 10.5118 0 10.2761 0 10L0 2Z" transform="translate(0.5 74)" id="Rectangle" fill="#399DFF" fill-rule="evenodd" stroke="none" />
      <path d="M3.74801 3.66401L3.20801 2.06801C3.16801 1.96671 3.12534 1.84801 3.08001 1.71201C3.03467 1.5733 2.98934 1.424 2.94401 1.26401C2.90401 1.4267 2.86134 1.57731 2.81601 1.716C2.77067 1.85471 2.72801 1.97471 2.68801 2.076L2.15201 3.66401L3.74801 3.66401L3.74801 3.66401ZM5.89596 5.892L4.848 5.892C4.73066 5.892 4.636 5.8653 4.564 5.812C4.492 5.756 4.43733 5.6853 4.4 5.6L4.056 4.584L1.84 4.584L1.496 5.6C1.46666 5.6747 1.41333 5.7427 1.336 5.804C1.26133 5.8627 1.168 5.892 1.056 5.892L0 5.892L2.256 0.0639954L3.64 0.0639954L5.89596 5.892L5.89596 5.892ZM8.51904 4.824C8.70035 4.824 8.86174 4.7947 9.00305 4.736C9.14705 4.6747 9.26834 4.588 9.36705 4.476C9.46574 4.364 9.54035 4.228 9.59105 4.068C9.64435 3.9053 9.67105 3.7213 9.67105 3.516L9.67105 0.0639954L11.023 0.0639954L11.023 3.516C11.023 3.8733 10.9643 4.2013 10.847 4.5C10.7323 4.7987 10.567 5.056 10.351 5.272C10.135 5.488 9.87234 5.656 9.56304 5.776C9.25375 5.896 8.90574 5.956 8.51904 5.956C8.12974 5.956 7.78034 5.896 7.47104 5.776C7.16175 5.656 6.89904 5.488 6.68305 5.272C6.46704 5.056 6.30174 4.7987 6.18705 4.5C6.07234 4.2013 6.01505 3.8733 6.01505 3.516L6.01505 0.0639954L7.36705 0.0639954L7.36705 3.512C7.36705 3.7173 7.39234 3.9013 7.44304 4.064C7.49634 4.224 7.57234 4.3613 7.67105 4.476C7.76974 4.588 7.88974 4.6747 8.03104 4.736C8.17505 4.7947 8.33774 4.824 8.51904 4.824L8.51904 4.824ZM17.2473 2.976C17.2473 3.3973 17.174 3.7867 17.0273 4.144C16.8833 4.4987 16.6793 4.8067 16.4153 5.068C16.1513 5.3267 15.8326 5.5293 15.4593 5.67599C15.0886 5.82 14.6766 5.892 14.2233 5.892L11.9593 5.892L11.9593 0.0639954L14.2233 0.0639954C14.6766 0.0639954 15.0886 0.137299 15.4593 0.283997C15.8326 0.430695 16.1513 0.633301 16.4153 0.891998C16.6793 1.1507 16.8833 1.4587 17.0273 1.816C17.174 2.1707 17.2473 2.5573 17.2473 2.976L17.2473 2.976ZM15.8633 2.97601C15.8633 2.688 15.826 2.42801 15.7513 2.19601C15.6766 1.964 15.5686 1.76801 15.4273 1.60801C15.2886 1.4453 15.118 1.3213 14.9153 1.23601C14.7126 1.148 14.482 1.104 14.2233 1.104L13.3193 1.104L13.3193 4.85201L14.2233 4.85201C14.482 4.85201 14.7126 4.8093 14.9153 4.72401C15.118 4.63601 15.2886 4.51201 15.4273 4.35201C15.5686 4.18931 15.6766 3.992 15.7513 3.76C15.826 3.52801 15.8633 3.26671 15.8633 2.97601L15.8633 2.97601ZM19.2852 5.892L17.9252 5.892L17.9252 0.0639954L19.2852 0.0639954L19.2852 5.892L19.2852 5.892ZM26.0096 2.976C26.0096 3.3973 25.9363 3.7893 25.7896 4.152C25.6456 4.5147 25.4416 4.8307 25.1776 5.1C24.9136 5.3667 24.5949 5.576 24.2216 5.728C23.8509 5.88 23.4389 5.956 22.9856 5.956C22.5323 5.956 22.1189 5.88 21.7456 5.728C21.3723 5.576 21.0523 5.3667 20.7856 5.1C20.5216 4.8307 20.3163 4.5147 20.1696 4.152C20.0256 3.7893 19.9536 3.3973 19.9536 2.976C19.9536 2.5547 20.0256 2.1627 20.1696 1.8C20.3163 1.4373 20.5216 1.1227 20.7856 0.855995C21.0523 0.589302 21.3723 0.379997 21.7456 0.227997C22.1189 0.0759964 22.5323 0 22.9856 0C23.4389 0 23.8509 0.077301 24.2216 0.231995C24.5949 0.383995 24.9136 0.5933 25.1776 0.860001C25.4416 1.1267 25.6456 1.4413 25.7896 1.804C25.9363 2.16669 26.0096 2.5573 26.0096 2.976L26.0096 2.976ZM24.6256 2.976C24.6256 2.688 24.5883 2.4293 24.5136 2.2C24.4389 1.96799 24.3309 1.772 24.1896 1.612C24.0509 1.452 23.8803 1.3293 23.6776 1.244C23.4749 1.1587 23.2443 1.116 22.9856 1.116C22.7243 1.116 22.4909 1.1587 22.2856 1.244C22.0829 1.3293 21.9109 1.452 21.7696 1.612C21.6309 1.772 21.5243 1.96799 21.4496 2.2C21.3749 2.4293 21.3376 2.688 21.3376 2.976C21.3376 3.2667 21.3749 3.528 21.4496 3.75999C21.5243 3.9893 21.6309 4.184 21.7696 4.344C21.9109 4.504 22.0829 4.6267 22.2856 4.712C22.4909 4.7947 22.7243 4.836 22.9856 4.836C23.2443 4.836 23.4749 4.7947 23.6776 4.712C23.8803 4.6267 24.0509 4.504 24.1896 4.344C24.3309 4.184 24.4389 3.9893 24.5136 3.75999C24.5883 3.528 24.6256 3.2667 24.6256 2.976L24.6256 2.976ZM29.7767 5.892L28.4167 5.892L28.4167 0.0639954L29.7767 0.0639954L29.7767 5.892L29.7767 5.892ZM35.8692 0.0639954L35.8692 5.892L35.1652 5.892C35.0612 5.892 34.9732 5.876 34.9012 5.844C34.8318 5.8093 34.7625 5.7507 34.6932 5.668L31.9452 2.192C31.9558 2.296 31.9625 2.3973 31.9652 2.49599C31.9705 2.592 31.9732 2.6827 31.9732 2.768L31.9732 5.892L30.7812 5.892L30.7812 0.0639954L31.4932 0.0639954C31.5518 0.0639954 31.6012 0.0666962 31.6412 0.0719986C31.6812 0.077301 31.7172 0.0879974 31.7492 0.103996C31.7812 0.117302 31.8118 0.137299 31.8412 0.164001C31.8705 0.190697 31.9038 0.2267 31.9412 0.271996L34.7132 3.772C34.6998 3.66 34.6905 3.552 34.6852 3.448C34.6798 3.3413 34.6772 3.2413 34.6772 3.14799L34.6772 0.0639954L35.8692 0.0639954L35.8692 0.0639954Z" transform="translate(4.3994446 76.608)" id="Shape" fill="#FFFFFF" fill-rule="evenodd" stroke="none" />
      <path d="M0 2L0 1C0 0.723858 0.0976311 0.488155 0.292893 0.292893C0.488155 0.0976311 0.723858 0 1 0L47 0C47.2761 0 47.5118 0.0976311 47.7071 0.292893C47.9024 0.488155 48 0.723858 48 1L48 10C48 10.2761 47.9024 10.5118 47.7071 10.7071C47.5118 10.9024 47.2761 11 47 11L1 11C0.723858 11 0.488155 10.9024 0.292893 10.7071C0.0976311 10.5118 0 10.2761 0 10L0 2Z" transform="translate(0.5 74)" id="Rectangle" fill="none" fill-rule="evenodd" stroke="#399DFF" stroke-width="1" />
      <path d="M2.5 3L0 0L5 0L2.5 3L2.5 3Z" transform="translate(43.5 79)" id="Shape" fill="#FFFFFF" fill-rule="evenodd" stroke="none" />
      <path d="M0 2L0 1C0 0.723858 0.0976311 0.488155 0.292893 0.292893C0.488155 0.0976311 0.723858 0 1 0L47 0C47.2761 0 47.5118 0.0976311 47.7071 0.292893C47.9024 0.488155 48 0.723858 48 1L48 10C48 10.2761 47.9024 10.5118 47.7071 10.7071C47.5118 10.9024 47.2761 11 47 11L1 11C0.723858 11 0.488155 10.9024 0.292893 10.7071C0.0976311 10.5118 0 10.2761 0 10L0 2Z" transform="translate(0.5 92)" id="Rectangle" fill="#399DFF" fill-rule="evenodd" stroke="none" />
      <path d="M1.36 1.104L1.36 2.58L3.352 2.58L3.352 3.624L1.36 3.624L1.36 5.892L0 5.892L0 0.0639954L3.752 0.0639954L3.752 1.104L1.36 1.104L1.36 1.104ZM10.9632 0.0639954L10.9632 5.892L9.77119 5.892L9.77119 2.54C9.77119 2.4627 9.77259 2.3787 9.77519 2.288C9.78059 2.1973 9.78859 2.1053 9.79919 2.012L8.25119 5.008C8.20319 5.1013 8.13789 5.172 8.05519 5.22C7.97519 5.268 7.88319 5.292 7.77919 5.292L7.59519 5.292C7.49119 5.292 7.39789 5.268 7.31519 5.22C7.23519 5.172 7.17119 5.1013 7.12319 5.008L5.57519 2.004C5.58319 2.1 5.58989 2.19469 5.59519 2.288C5.60059 2.3787 5.60319 2.4627 5.60319 2.54L5.60319 5.892L4.41119 5.892L4.41119 0.0639954L5.44319 0.0639954C5.50189 0.0639954 5.55259 0.0653 5.59519 0.0680008C5.64059 0.0707016 5.68059 0.0786972 5.71519 0.0919952C5.74989 0.105301 5.78059 0.126701 5.80719 0.155998C5.83659 0.182701 5.86459 0.221298 5.89119 0.271996L7.39119 3.228C7.44459 3.3293 7.49519 3.4347 7.54319 3.544C7.59389 3.6533 7.64189 3.7653 7.68719 3.88C7.73259 3.7627 7.77919 3.64799 7.82719 3.536C7.87789 3.424 7.93119 3.3173 7.98719 3.216L9.48319 0.271996C9.50989 0.221298 9.53659 0.182701 9.56319 0.155998C9.59259 0.126701 9.62459 0.105301 9.65919 0.0919952C9.69389 0.0786972 9.73259 0.0707016 9.77519 0.0680008C9.82059 0.0653 9.87259 0.0639954 9.93119 0.0639954L10.9632 0.0639954L10.9632 0.0639954ZM11.7589 1.728C11.8016 1.4373 11.8829 1.184 12.0029 0.967995C12.1256 0.751999 12.2763 0.571999 12.4549 0.428001C12.6363 0.283997 12.8429 0.177299 13.0749 0.108002C13.3069 0.0359955 13.5563 0 13.8229 0C14.1109 0 14.3669 0.0412979 14.5909 0.124001C14.8149 0.203995 15.0043 0.313301 15.1589 0.451996C15.3136 0.590698 15.4309 0.751999 15.5109 0.935997C15.5909 1.1173 15.6309 1.3093 15.6309 1.512C15.6309 1.696 15.6123 1.8587 15.5749 2C15.5376 2.13869 15.4816 2.25999 15.4069 2.364C15.3349 2.4653 15.2443 2.552 15.1349 2.624C15.0283 2.6933 14.9056 2.752 14.7669 2.8C15.4123 3.0267 15.7349 3.4667 15.7349 4.12C15.7349 4.4293 15.6789 4.6987 15.5669 4.928C15.4549 5.1573 15.3043 5.348 15.1149 5.5C14.9283 5.652 14.7109 5.767 14.4629 5.844C14.2149 5.919 13.9563 5.956 13.6869 5.956C13.4096 5.956 13.1629 5.927 12.9469 5.868C12.7309 5.807 12.5389 5.713 12.3709 5.588C12.2029 5.46 12.0549 5.29729 11.9269 5.1C11.8016 4.90269 11.6923 4.668 11.5989 4.396L12.1509 4.172C12.2949 4.116 12.4283 4.1013 12.5509 4.128C12.6736 4.1547 12.7616 4.216 12.8149 4.312C12.9349 4.53329 13.0616 4.69469 13.1949 4.796C13.3309 4.8947 13.4896 4.944 13.6709 4.944C13.8096 4.944 13.9296 4.9213 14.0309 4.876C14.1349 4.828 14.2203 4.768 14.2869 4.696C14.3563 4.6213 14.4083 4.5373 14.4429 4.444C14.4776 4.3507 14.4949 4.256 14.4949 4.16C14.4949 4.0347 14.4856 3.9227 14.4669 3.824C14.4509 3.7227 14.4029 3.636 14.3229 3.564C14.2429 3.492 14.1216 3.4373 13.9589 3.4C13.7989 3.36 13.5749 3.34 13.2869 3.34L13.2869 2.484C13.5296 2.484 13.7256 2.4653 13.8749 2.428C14.0243 2.3907 14.1389 2.34 14.2189 2.276C14.3016 2.2093 14.3563 2.1293 14.3829 2.036C14.4096 1.9427 14.4229 1.84 14.4229 1.728C14.4229 1.4987 14.3669 1.3227 14.2549 1.2C14.1456 1.0747 13.9776 1.012 13.7509 1.012C13.5669 1.012 13.4109 1.06129 13.2829 1.16C13.1576 1.256 13.0709 1.376 13.0229 1.52C12.9669 1.66669 12.8936 1.764 12.8029 1.812C12.7123 1.86 12.5829 1.8707 12.4149 1.844L11.7589 1.728L11.7589 1.728Z" transform="translate(14.927612 94.608)" id="Shape" fill="#FFFFFF" fill-rule="evenodd" stroke="none" />
      <path d="M0 2L0 1C0 0.723858 0.0976311 0.488155 0.292893 0.292893C0.488155 0.0976311 0.723858 0 1 0L47 0C47.2761 0 47.5118 0.0976311 47.7071 0.292893C47.9024 0.488155 48 0.723858 48 1L48 10C48 10.2761 47.9024 10.5118 47.7071 10.7071C47.5118 10.9024 47.2761 11 47 11L1 11C0.723858 11 0.488155 10.9024 0.292893 10.7071C0.0976311 10.5118 0 10.2761 0 10L0 2Z" transform="translate(0.5 92)" id="Rectangle" fill="none" fill-rule="evenodd" stroke="#399DFF" stroke-width="1" />
      <path d="M2.5 3L0 0L5 0L2.5 3L2.5 3Z" transform="translate(43.5 97)" id="Shape" fill="#FFFFFF" fill-rule="evenodd" stroke="none" />
      <path d="M0 2L0 1C0 0.723858 0.0976311 0.488155 0.292893 0.292893C0.488155 0.0976311 0.723858 0 1 0L47 0C47.2761 0 47.5118 0.0976311 47.7071 0.292893C47.9024 0.488155 48 0.723858 48 1L48 10C48 10.2761 47.9024 10.5118 47.7071 10.7071C47.5118 10.9024 47.2761 11 47 11L1 11C0.723858 11 0.488155 10.9024 0.292893 10.7071C0.0976311 10.5118 0 10.2761 0 10L0 2Z" transform="translate(0.5 110)" id="Rectangle" fill="#399DFF" fill-rule="evenodd" stroke="none" />
      <path d="M1.36 1.104L1.36 2.58L3.352 2.58L3.352 3.624L1.36 3.624L1.36 5.892L0 5.892L0 0.0639954L3.752 0.0639954L3.752 1.104L1.36 1.104L1.36 1.104ZM10.9632 0.0639954L10.9632 5.892L9.77119 5.892L9.77119 2.54C9.77119 2.463 9.77259 2.379 9.77519 2.288C9.78059 2.197 9.78859 2.105 9.79919 2.012L8.25119 5.008C8.20319 5.101 8.13789 5.172 8.05519 5.22C7.97519 5.268 7.88319 5.292 7.77919 5.292L7.59519 5.292C7.49119 5.292 7.39789 5.268 7.31519 5.22C7.23519 5.172 7.17119 5.101 7.12319 5.008L5.57519 2.004C5.58319 2.1 5.58989 2.195 5.59519 2.288C5.60059 2.379 5.60319 2.463 5.60319 2.54L5.60319 5.892L4.41119 5.892L4.41119 0.0639954L5.44319 0.0639954C5.50189 0.0639954 5.55259 0.0649948 5.59519 0.0680008C5.64059 0.0709991 5.68059 0.0789948 5.71519 0.0919952C5.74989 0.104996 5.78059 0.126999 5.80719 0.155998C5.83659 0.182999 5.86459 0.221001 5.89119 0.271996L7.39119 3.228C7.44459 3.32899 7.49519 3.435 7.54319 3.544C7.59389 3.653 7.64189 3.765 7.68719 3.88C7.73259 3.763 7.77919 3.64799 7.82719 3.536C7.87789 3.424 7.93119 3.317 7.98719 3.216L9.48319 0.271996C9.50989 0.221001 9.53659 0.182999 9.56319 0.155998C9.59259 0.126999 9.62459 0.104996 9.65919 0.0919952C9.69389 0.0789948 9.73259 0.0709991 9.77519 0.0680008C9.82059 0.0649948 9.87259 0.0639954 9.93119 0.0639954L10.9632 0.0639954L10.9632 0.0639954ZM15.3109 4.772C15.4443 4.772 15.5496 4.809 15.6269 4.884C15.7043 4.956 15.7429 5.052 15.7429 5.172L15.7429 5.892L11.6469 5.892L11.6469 5.492C11.6469 5.415 11.6629 5.332 11.6949 5.244C11.7269 5.156 11.7829 5.076 11.8629 5.004L13.5429 3.312C13.6869 3.168 13.8123 3.031 13.9189 2.9C14.0256 2.769 14.1136 2.641 14.1829 2.516C14.2523 2.388 14.3043 2.261 14.3389 2.136C14.3736 2.008 14.3909 1.873 14.3909 1.73199C14.3909 1.5 14.3349 1.323 14.2229 1.2C14.1136 1.075 13.9456 1.012 13.7189 1.012C13.5349 1.012 13.3789 1.061 13.2509 1.16C13.1256 1.256 13.0389 1.376 12.9909 1.52C12.9349 1.667 12.8616 1.764 12.7709 1.812C12.6803 1.86 12.5509 1.87099 12.3829 1.844L11.7269 1.728C11.7696 1.437 11.8509 1.184 11.9709 0.967995C12.0936 0.751999 12.2443 0.571999 12.4229 0.428001C12.6043 0.283997 12.8109 0.177002 13.0429 0.108002C13.2749 0.0359955 13.5243 0 13.7909 0C14.0789 0 14.3376 0.0429993 14.5669 0.127998C14.7989 0.210999 14.9963 0.326996 15.1589 0.475998C15.3216 0.625 15.4456 0.804001 15.5309 1.012C15.6189 1.217 15.6629 1.444 15.6629 1.692C15.6629 1.905 15.6323 2.103 15.5709 2.284C15.5123 2.465 15.4309 2.639 15.3269 2.804C15.2229 2.967 15.1016 3.125 14.9629 3.28C14.8269 3.432 14.6816 3.587 14.5269 3.744L13.3869 4.91199C13.5336 4.867 13.6789 4.832 13.8229 4.808C13.9669 4.784 14.1003 4.772 14.2229 4.772L15.3109 4.772L15.3109 4.772Z" transform="translate(14.927612 112.608)" id="Shape" fill="#FFFFFF" fill-rule="evenodd" stroke="none" />
      <path d="M0 2L0 1C0 0.723858 0.0976311 0.488155 0.292893 0.292893C0.488155 0.0976311 0.723858 0 1 0L47 0C47.2761 0 47.5118 0.0976311 47.7071 0.292893C47.9024 0.488155 48 0.723858 48 1L48 10C48 10.2761 47.9024 10.5118 47.7071 10.7071C47.5118 10.9024 47.2761 11 47 11L1 11C0.723858 11 0.488155 10.9024 0.292893 10.7071C0.0976311 10.5118 0 10.2761 0 10L0 2Z" transform="translate(0.5 110)" id="Rectangle" fill="none" fill-rule="evenodd" stroke="#399DFF" stroke-width="1" />
      <path d="M2.5 3L0 0L5 0L2.5 3L2.5 3Z" transform="translate(43.5 115)" id="Shape" fill="#FFFFFF" fill-rule="evenodd" stroke="none" />
      <path d="M0 2L0 1C0 0.723858 0.0976311 0.488155 0.292893 0.292893C0.488155 0.0976311 0.723858 0 1 0L47 0C47.2761 0 47.5118 0.0976311 47.7071 0.292893C47.9024 0.488155 48 0.723858 48 1L48 10C48 10.2761 47.9024 10.5118 47.7071 10.7071C47.5118 10.9024 47.2761 11 47 11L1 11C0.723858 11 0.488155 10.9024 0.292893 10.7071C0.0976311 10.5118 0 10.2761 0 10L0 2Z" transform="translate(0.5 128)" id="Rectangle" fill="#399DFF" fill-rule="evenodd" stroke="none" />
      <path d="M8.48799 0.0639954L6.68799 5.892L5.464 5.892L4.368 2.28C4.34667 2.224 4.32667 2.16299 4.308 2.09599C4.28934 2.02699 4.27067 1.955 4.252 1.88C4.23334 1.955 4.21467 2.02699 4.196 2.09599C4.17734 2.16299 4.15734 2.224 4.136 2.28L3.024 5.892L1.8 5.892L0 0.0639954L1.136 0.0639954C1.25334 0.0639954 1.35067 0.0910034 1.428 0.143997C1.508 0.196991 1.56 0.268005 1.584 0.356003L2.384 3.396C2.408 3.492 2.432 3.597 2.456 3.71201C2.48 3.82401 2.504 3.94099 2.528 4.064C2.576 3.813 2.63467 3.591 2.704 3.396L3.648 0.356003C3.672 0.281006 3.72267 0.214996 3.8 0.156006C3.88 0.0950012 3.976 0.0639954 4.088 0.0639954L4.488 0.0639954C4.60534 0.0639954 4.7 0.0919952 4.772 0.147995C4.844 0.201004 4.89867 0.270996 4.936 0.356003L5.872 3.396C5.94134 3.58299 6 3.795 6.048 4.032C6.06934 3.912 6.09067 3.8 6.112 3.696C6.13599 3.589 6.15999 3.489 6.18399 3.396L6.98399 0.356003C7.00529 0.278992 7.05599 0.210999 7.13599 0.151993C7.21599 0.0930023 7.31199 0.0639954 7.42399 0.0639954L8.48799 0.0639954L8.48799 0.0639954ZM10.3115 5.892L8.95148 5.892L8.95148 0.0639954L10.3115 0.0639954L10.3115 5.892L10.3115 5.892ZM16.4038 0.0639954L16.4038 5.892L15.6998 5.892C15.5958 5.892 15.5078 5.87599 15.4358 5.84399C15.3665 5.80901 15.2972 5.75099 15.2278 5.668L12.4798 2.192C12.4905 2.29601 12.4972 2.397 12.4998 2.496C12.5052 2.592 12.5078 2.683 12.5078 2.76801L12.5078 5.892L11.3158 5.892L11.3158 0.0639954L12.0278 0.0639954C12.0865 0.0639954 12.1358 0.0670013 12.1758 0.071991C12.2158 0.0769958 12.2518 0.0879974 12.2838 0.104004C12.3158 0.117004 12.3465 0.136993 12.3758 0.164001C12.4052 0.190994 12.4385 0.227005 12.4758 0.272003L15.2478 3.772C15.2345 3.66 15.2252 3.552 15.2198 3.448C15.2145 3.341 15.2118 3.241 15.2118 3.14799L15.2118 0.0639954L16.4038 0.0639954L16.4038 0.0639954ZM22.7026 2.976C22.7026 3.397 22.6292 3.787 22.4826 4.144C22.3386 4.49899 22.1346 4.80699 21.8706 5.06799C21.6066 5.327 21.2879 5.52899 20.9146 5.67599C20.5439 5.81999 20.1319 5.892 19.6786 5.892L17.4146 5.892L17.4146 0.0639954L19.6786 0.0639954C20.1319 0.0639954 20.5439 0.136993 20.9146 0.283997C21.2879 0.431 21.6066 0.632996 21.8706 0.891998C22.1346 1.151 22.3386 1.459 22.4826 1.81599C22.6292 2.17101 22.7026 2.55699 22.7026 2.976L22.7026 2.976ZM21.3186 2.976C21.3186 2.688 21.2812 2.42799 21.2066 2.196C21.1319 1.964 21.0239 1.76801 20.8826 1.608C20.7439 1.44499 20.5732 1.321 20.3706 1.23599C20.1679 1.14799 19.9372 1.104 19.6786 1.104L18.7746 1.104L18.7746 4.85201L19.6786 4.85201C19.9372 4.85201 20.1679 4.80901 20.3706 4.724C20.5732 4.636 20.7439 4.51199 20.8826 4.35201C21.0239 4.189 21.1319 3.992 21.2066 3.75999C21.2812 3.528 21.3186 3.267 21.3186 2.976L21.3186 2.976ZM29.1005 2.976C29.1005 3.397 29.0272 3.789 28.8805 4.15199C28.7365 4.515 28.5325 4.83099 28.2685 5.09999C28.0045 5.367 27.6858 5.576 27.3125 5.728C26.9418 5.88001 26.5298 5.95599 26.0765 5.95599C25.6232 5.95599 25.2098 5.88001 24.8365 5.728C24.4632 5.576 24.1432 5.367 23.8765 5.09999C23.6125 4.83099 23.4072 4.515 23.2605 4.15199C23.1165 3.789 23.0445 3.397 23.0445 2.976C23.0445 2.55499 23.1165 2.16299 23.2605 1.8C23.4072 1.437 23.6125 1.123 23.8765 0.856003C24.1432 0.589005 24.4632 0.380005 24.8365 0.227997C25.2098 0.076004 25.6232 0 26.0765 0C26.5298 0 26.9418 0.0769958 27.3125 0.231995C27.6858 0.384003 28.0045 0.593002 28.2685 0.860001C28.5325 1.127 28.7365 1.44099 28.8805 1.804C29.0272 2.16699 29.1005 2.55699 29.1005 2.976L29.1005 2.976ZM27.7165 2.976C27.7165 2.688 27.6792 2.429 27.6045 2.2C27.5298 1.968 27.4218 1.772 27.2805 1.612C27.1418 1.452 26.9712 1.32899 26.7685 1.244C26.5658 1.159 26.3352 1.116 26.0765 1.116C25.8152 1.116 25.5818 1.159 25.3765 1.244C25.1738 1.32899 25.0018 1.452 24.8605 1.612C24.7218 1.772 24.6152 1.968 24.5405 2.2C24.4658 2.429 24.4285 2.688 24.4285 2.976C24.4285 3.267 24.4658 3.528 24.5405 3.75999C24.6152 3.989 24.7218 4.18401 24.8605 4.34399C25.0018 4.504 25.1738 4.627 25.3765 4.71201C25.5818 4.795 25.8152 4.836 26.0765 4.836C26.3352 4.836 26.5658 4.795 26.7685 4.71201C26.9712 4.627 27.1418 4.504 27.2805 4.34399C27.4218 4.18401 27.5298 3.989 27.6045 3.75999C27.6792 3.528 27.7165 3.267 27.7165 2.976L27.7165 2.976ZM37.5677 0.0639954L35.7677 5.892L34.5437 5.892L33.4477 2.28C33.4264 2.224 33.4064 2.16299 33.3877 2.09599C33.369 2.02699 33.3504 1.955 33.3317 1.88C33.313 1.955 33.2944 2.02699 33.2757 2.09599C33.257 2.16299 33.237 2.224 33.2157 2.28L32.1037 5.892L30.8797 5.892L29.0797 0.0639954L30.2157 0.0639954C30.333 0.0639954 30.4304 0.0910034 30.5077 0.143997C30.5877 0.196991 30.6397 0.268005 30.6637 0.356003L31.4637 3.396C31.4877 3.492 31.5117 3.597 31.5357 3.71201C31.5597 3.82401 31.5837 3.94099 31.6077 4.064C31.6557 3.813 31.7144 3.591 31.7837 3.396L32.7277 0.356003C32.7517 0.281006 32.8024 0.214996 32.8797 0.156006C32.9597 0.0950012 33.0557 0.0639954 33.1677 0.0639954L33.5677 0.0639954C33.685 0.0639954 33.7797 0.0919952 33.8517 0.147995C33.9237 0.201004 33.9784 0.270996 34.0157 0.356003L34.9517 3.396C35.021 3.58299 35.0797 3.795 35.1277 4.032C35.149 3.912 35.1704 3.8 35.1917 3.696C35.2157 3.589 35.2397 3.489 35.2637 3.396L36.0637 0.356003C36.085 0.278992 36.1357 0.210999 36.2157 0.151993C36.2957 0.0930023 36.3917 0.0639954 36.5037 0.0639954L37.5677 0.0639954L37.5677 0.0639954Z" transform="translate(3.8838196 130.608)" id="Shape" fill="#FFFFFF" fill-rule="evenodd" stroke="none" />
      <path d="M0 2L0 1C0 0.723858 0.0976311 0.488155 0.292893 0.292893C0.488155 0.0976311 0.723858 0 1 0L47 0C47.2761 0 47.5118 0.0976311 47.7071 0.292893C47.9024 0.488155 48 0.723858 48 1L48 10C48 10.2761 47.9024 10.5118 47.7071 10.7071C47.5118 10.9024 47.2761 11 47 11L1 11C0.723858 11 0.488155 10.9024 0.292893 10.7071C0.0976311 10.5118 0 10.2761 0 10L0 2Z" transform="translate(0.5 128)" id="Rectangle" fill="none" fill-rule="evenodd" stroke="#399DFF" stroke-width="1" />
      <path d="M2.5 3L0 0L5 0L2.5 3L2.5 3Z" transform="translate(43.5 133)" id="Shape" fill="#FFFFFF" fill-rule="evenodd" stroke="none" />
    </g>
  </g>
</svg>