<svg width="22" height="30" viewBox="0 0 22 30" fill="none" xmlns="http://www.w3.org/2000/svg">
<rect x="2.5" y="2" width="15" height="8" rx="1" fill="#FF9300"/>
<rect x="2.5" y="2" width="15" height="8" rx="1" stroke="black"/>
<path d="M12.8666 3.4005V8.5H11.8236V5.567C11.8236 5.49933 11.8248 5.42583 11.8271 5.3465C11.8318 5.26717 11.8388 5.18667 11.8481 5.105L10.4936 7.7265C10.4516 7.80817 10.3945 7.87 10.3221 7.912C10.2521 7.954 10.1716 7.975 10.0806 7.975H9.91964C9.82864 7.975 9.74697 7.954 9.67464 7.912C9.60464 7.87 9.54864 7.80817 9.50664 7.7265L8.15214 5.098C8.15914 5.182 8.16497 5.26483 8.16964 5.3465C8.1743 5.42583 8.17664 5.49933 8.17664 5.567V8.5H7.13364V3.4005H8.03664C8.08797 3.4005 8.1323 3.40167 8.16964 3.404C8.2093 3.40633 8.2443 3.41333 8.27464 3.425C8.30497 3.43667 8.3318 3.45533 8.35514 3.481C8.3808 3.50433 8.4053 3.53817 8.42864 3.5825L9.74114 6.169C9.7878 6.25767 9.83214 6.34983 9.87414 6.4455C9.91847 6.54117 9.96047 6.63917 10.0001 6.7395C10.0398 6.63683 10.0806 6.5365 10.1226 6.4385C10.167 6.3405 10.2136 6.24717 10.2626 6.1585L11.5716 3.5825C11.595 3.53817 11.6183 3.50433 11.6416 3.481C11.6673 3.45533 11.6953 3.43667 11.7256 3.425C11.756 3.41333 11.7898 3.40633 11.8271 3.404C11.8668 3.40167 11.9123 3.4005 11.9636 3.4005H12.8666Z" fill="white"/>
<rect x="2.5" y="17" width="15" height="8" rx="1" fill="#399DFF"/>
<rect x="2.5" y="17" width="15" height="8" rx="1" stroke="white"/>
<path d="M12.8666 18.4005V23.5H11.8236V20.567C11.8236 20.4993 11.8248 20.4258 11.8271 20.3465C11.8318 20.2672 11.8388 20.1867 11.8481 20.105L10.4936 22.7265C10.4516 22.8082 10.3945 22.87 10.3221 22.912C10.2521 22.954 10.1716 22.975 10.0806 22.975H9.91964C9.82864 22.975 9.74697 22.954 9.67464 22.912C9.60464 22.87 9.54864 22.8082 9.50664 22.7265L8.15214 20.098C8.15914 20.182 8.16497 20.2648 8.16964 20.3465C8.1743 20.4258 8.17664 20.4993 8.17664 20.567V23.5H7.13364V18.4005H8.03664C8.08797 18.4005 8.1323 18.4017 8.16964 18.404C8.2093 18.4063 8.2443 18.4133 8.27464 18.425C8.30497 18.4367 8.3318 18.4553 8.35514 18.481C8.3808 18.5043 8.4053 18.5382 8.42864 18.5825L9.74114 21.169C9.7878 21.2577 9.83214 21.3498 9.87414 21.4455C9.91847 21.5412 9.96047 21.6392 10.0001 21.7395C10.0398 21.6368 10.0806 21.5365 10.1226 21.4385C10.167 21.3405 10.2136 21.2472 10.2626 21.1585L11.5716 18.5825C11.595 18.5382 11.6183 18.5043 11.6416 18.481C11.6673 18.4553 11.6953 18.4367 11.7256 18.425C11.756 18.4133 11.7898 18.4063 11.8271 18.404C11.8668 18.4017 11.9123 18.4005 11.9636 18.4005H12.8666Z" fill="white"/>
</svg>
