<?xml version="1.0" encoding="UTF-8"?>
<svg width="51px" height="117px" viewBox="0 0 51 117" version="1.1" xmlns="http://www.w3.org/2000/svg" xmlns:xlink="http://www.w3.org/1999/xlink">
    <title>hoverOn00146</title>
    <g id="hoverOn00146" stroke="none" stroke-width="1" fill="none" fill-rule="evenodd">
        <g id="Group" transform="translate(3.000000, 4.000000)"></g>
        <g id="Group" transform="translate(3.000000, 82.000000)"></g>
        <g id="Group" transform="translate(3.000000, 43.000000)"></g>
        <g id="Font-Layer-Copy" transform="translate(2.000000, 2.000000)">
            <path d="M1,0 L46,0 C46.5522847,-1.01453063e-16 47,0.44771525 47,1 L47,10 L47,10 L0,10 L0,1 C-6.76353751e-17,0.44771525 0.44771525,1.01453063e-16 1,0 Z" id="Rectangle" stroke="#FFFFFF" fill="#399DFF"></path>
            <path d="M1,103 L46,103 C46.5522847,103 47,103.447715 47,104 L47,113 L47,113 L0,113 L0,104 C-6.76353751e-17,103.447715 0.44771525,103 1,103 Z" id="Rectangle" stroke="#FFFFFF" fill="#399DFF" transform="translate(23.500000, 108.000000) rotate(-180.000000) translate(-23.500000, -108.000000) "></path>
            <rect id="Rectangle" stroke="#FFFFFF" fill="#399DFF" x="0" y="52" width="47" height="9"></rect>
            <path d="M7.8765,9 L7.8765,6.3495 L10.311,6.3495 L10.311,5.382 L7.8765,5.382 L7.8765,3.456 L10.761,3.456 L10.761,2.493 L6.657,2.493 L6.657,9 L7.8765,9 Z M12.689,9 L12.689,6.1245 C12.803,5.8785 12.9425,5.69175 13.1075,5.56425 C13.2725,5.43675 13.4705,5.373 13.7015,5.373 C13.8305,5.373 13.934,5.3835 14.012,5.4045 C14.09,5.4255 14.1515,5.436 14.1965,5.436 C14.2475,5.436 14.288,5.42475 14.318,5.40225 C14.348,5.37975 14.3675,5.3415 14.3765,5.2875 L14.3765,5.2875 L14.5205,4.455 C14.3705,4.35 14.1815,4.2975 13.9535,4.2975 C13.6775,4.2975 13.4285,4.38 13.2065,4.545 C12.9845,4.71 12.791,4.935 12.626,5.22 L12.626,5.22 L12.5585,4.662 C12.5435,4.56 12.5135,4.488 12.4685,4.446 C12.4235,4.404 12.344,4.383 12.23,4.383 L12.23,4.383 L11.5775,4.383 L11.5775,9 L12.689,9 Z M17.416,9.0675 C17.578,9.0675 17.74525,9.0555 17.91775,9.0315 C18.09025,9.0075 18.25975,8.96625 18.42625,8.90775 C18.59275,8.84925 18.7525,8.77125 18.9055,8.67375 C19.0585,8.57625 19.1965,8.4555 19.3195,8.3115 L19.3195,8.3115 L18.9955,7.9065 C18.9715,7.8735 18.943,7.848 18.91,7.83 C18.877,7.812 18.838,7.803 18.793,7.803 C18.724,7.803 18.65275,7.824 18.57925,7.866 C18.50575,7.908 18.42025,7.9545 18.32275,8.0055 C18.22525,8.0565 18.11125,8.103 17.98075,8.145 C17.85025,8.187 17.695,8.208 17.515,8.208 C17.149,8.208 16.855,8.097 16.633,7.875 C16.411,7.653 16.2835,7.305 16.2505,6.831 L16.2505,6.831 L19.1035,6.831 C19.1545,6.831 19.1965,6.82425 19.2295,6.81075 C19.2625,6.79725 19.28875,6.77475 19.30825,6.74325 C19.32775,6.71175 19.34125,6.66825 19.34875,6.61275 C19.35625,6.55725 19.36,6.4875 19.36,6.4035 C19.36,6.0705 19.3105,5.77425 19.2115,5.51475 C19.1125,5.25525 18.9745,5.03625 18.7975,4.85775 C18.6205,4.67925 18.40975,4.5435 18.16525,4.4505 C17.92075,4.3575 17.653,4.311 17.362,4.311 C17.017,4.311 16.70725,4.371 16.43275,4.491 C16.15825,4.611 15.92575,4.77375 15.73525,4.97925 C15.54475,5.18475 15.3985,5.42625 15.2965,5.70375 C15.1945,5.98125 15.1435,6.2775 15.1435,6.5925 C15.1435,6.9975 15.202,7.35375 15.319,7.66125 C15.436,7.96875 15.5965,8.22675 15.8005,8.43525 C16.0045,8.64375 16.2445,8.80125 16.5205,8.90775 C16.7965,9.01425 17.095,9.0675 17.416,9.0675 Z M18.361,6.1605 L16.273,6.1605 C16.324,5.8245 16.441,5.565 16.624,5.382 C16.807,5.199 17.0605,5.1075 17.3845,5.1075 C17.5495,5.1075 17.6935,5.13525 17.8165,5.19075 C17.9395,5.24625 18.0415,5.322 18.1225,5.418 C18.2035,5.514 18.2635,5.62575 18.3025,5.75325 C18.3415,5.88075 18.361,6.0165 18.361,6.1605 L18.361,6.1605 Z M22.4265,9.0675 C22.5885,9.0675 22.75575,9.0555 22.92825,9.0315 C23.10075,9.0075 23.27025,8.96625 23.43675,8.90775 C23.60325,8.84925 23.763,8.77125 23.916,8.67375 C24.069,8.57625 24.207,8.4555 24.33,8.3115 L24.33,8.3115 L24.006,7.9065 C23.982,7.8735 23.9535,7.848 23.9205,7.83 C23.8875,7.812 23.8485,7.803 23.8035,7.803 C23.7345,7.803 23.66325,7.824 23.58975,7.866 C23.51625,7.908 23.43075,7.9545 23.33325,8.0055 C23.23575,8.0565 23.12175,8.103 22.99125,8.145 C22.86075,8.187 22.7055,8.208 22.5255,8.208 C22.1595,8.208 21.8655,8.097 21.6435,7.875 C21.4215,7.653 21.294,7.305 21.261,6.831 L21.261,6.831 L24.114,6.831 C24.165,6.831 24.207,6.82425 24.24,6.81075 C24.273,6.79725 24.29925,6.77475 24.31875,6.74325 C24.33825,6.71175 24.35175,6.66825 24.35925,6.61275 C24.36675,6.55725 24.3705,6.4875 24.3705,6.4035 C24.3705,6.0705 24.321,5.77425 24.222,5.51475 C24.123,5.25525 23.985,5.03625 23.808,4.85775 C23.631,4.67925 23.42025,4.5435 23.17575,4.4505 C22.93125,4.3575 22.6635,4.311 22.3725,4.311 C22.0275,4.311 21.71775,4.371 21.44325,4.491 C21.16875,4.611 20.93625,4.77375 20.74575,4.97925 C20.55525,5.18475 20.409,5.42625 20.307,5.70375 C20.205,5.98125 20.154,6.2775 20.154,6.5925 C20.154,6.9975 20.2125,7.35375 20.3295,7.66125 C20.4465,7.96875 20.607,8.22675 20.811,8.43525 C21.015,8.64375 21.255,8.80125 21.531,8.90775 C21.807,9.01425 22.1055,9.0675 22.4265,9.0675 Z M23.3715,6.1605 L21.2835,6.1605 C21.3345,5.8245 21.4515,5.565 21.6345,5.382 C21.8175,5.199 22.071,5.1075 22.395,5.1075 C22.56,5.1075 22.704,5.13525 22.827,5.19075 C22.95,5.24625 23.052,5.322 23.133,5.418 C23.214,5.514 23.274,5.62575 23.313,5.75325 C23.352,5.88075 23.3715,6.0165 23.3715,6.1605 L23.3715,6.1605 Z M26.5865,9 L26.5865,6.1245 C26.7005,5.8785 26.84,5.69175 27.005,5.56425 C27.17,5.43675 27.368,5.373 27.599,5.373 C27.728,5.373 27.8315,5.3835 27.9095,5.4045 C27.9875,5.4255 28.049,5.436 28.094,5.436 C28.145,5.436 28.1855,5.42475 28.2155,5.40225 C28.2455,5.37975 28.265,5.3415 28.274,5.2875 L28.274,5.2875 L28.418,4.455 C28.268,4.35 28.079,4.2975 27.851,4.2975 C27.575,4.2975 27.326,4.38 27.104,4.545 C26.882,4.71 26.6885,4.935 26.5235,5.22 L26.5235,5.22 L26.456,4.662 C26.441,4.56 26.411,4.488 26.366,4.446 C26.321,4.404 26.2415,4.383 26.1275,4.383 L26.1275,4.383 L25.475,4.383 L25.475,9 L26.5865,9 Z M30.814,9.072 C30.967,9.072 31.11025,9.05625 31.24375,9.02475 C31.37725,8.99325 31.50175,8.94975 31.61725,8.89425 C31.73275,8.83875 31.8415,8.77125 31.9435,8.69175 C32.0455,8.61225 32.1445,8.5245 32.2405,8.4285 L32.2405,8.4285 L32.317,8.7975 C32.362,8.9325 32.4565,9 32.6005,9 L32.6005,9 L33.28,9 L33.28,4.383 L32.1685,4.383 L32.1685,7.722 C32.0185,7.872 31.8595,7.98975 31.6915,8.07525 C31.5235,8.16075 31.3435,8.2035 31.1515,8.2035 C30.8905,8.2035 30.69475,8.12625 30.56425,7.97175 C30.43375,7.81725 30.3685,7.599 30.3685,7.317 L30.3685,7.317 L30.3685,4.383 L29.257,4.383 L29.257,7.317 C29.257,7.575 29.29075,7.81125 29.35825,8.02575 C29.42575,8.24025 29.5255,8.4255 29.6575,8.5815 C29.7895,8.7375 29.95225,8.85825 30.14575,8.94375 C30.33925,9.02925 30.562,9.072 30.814,9.072 Z M35.7795,9 L35.7795,5.661 C35.9295,5.511 36.0885,5.3925 36.2565,5.3055 C36.4245,5.2185 36.6045,5.175 36.7965,5.175 C37.0575,5.175 37.25325,5.25225 37.38375,5.40675 C37.51425,5.56125 37.5795,5.7795 37.5795,6.0615 L37.5795,6.0615 L37.5795,9 L38.691,9 L38.691,6.0615 C38.691,5.8035 38.65725,5.56725 38.58975,5.35275 C38.52225,5.13825 38.42325,4.95375 38.29275,4.79925 C38.16225,4.64475 37.9995,4.52475 37.8045,4.43925 C37.6095,4.35375 37.386,4.311 37.134,4.311 C36.978,4.311 36.834,4.326 36.702,4.356 C36.57,4.386 36.44625,4.4295 36.33075,4.4865 C36.21525,4.5435 36.10575,4.611 36.00225,4.689 C35.89875,4.767 35.8005,4.854 35.7075,4.95 L35.7075,4.95 L35.631,4.5855 C35.586,4.4505 35.4915,4.383 35.3475,4.383 L35.3475,4.383 L34.668,4.383 L34.668,9 L35.7795,9 Z" id="Freerun" fill="#E5E5E5" fill-rule="nonzero"></path>
            <path d="M2.908,60 L2.908,57.138 L3.2905,57.138 C3.4285,57.138 3.535,57.15525 3.61,57.18975 C3.685,57.22425 3.7525,57.2805 3.8125,57.3585 L3.8125,57.3585 L5.653,59.7615 C5.701,59.8395 5.76025,59.89875 5.83075,59.93925 C5.90125,59.97975 6.0085,60 6.1525,60 L6.1525,60 L7.2235,60 L4.9645,56.9535 C4.8895,56.8515 4.81225,56.7675 4.73275,56.7015 C4.65325,56.6355 4.564,56.5845 4.465,56.5485 C4.537,56.5125 4.6045,56.466 4.6675,56.409 C4.7305,56.352 4.7965,56.2815 4.8655,56.1975 L4.8655,56.1975 L7.057,53.493 L6.013,53.493 C5.887,53.493 5.78275,53.51175 5.70025,53.54925 C5.61775,53.58675 5.539,53.6535 5.464,53.7495 L5.464,53.7495 L3.6685,56.022 C3.6145,56.091 3.55,56.14125 3.475,56.17275 C3.4,56.20425 3.3055,56.22 3.1915,56.22 L3.1915,56.22 L2.908,56.22 L2.908,53.4885 L1.6975,53.4885 L1.6975,60 L2.908,60 Z M9.9445,60.0675 C10.1065,60.0675 10.27375,60.0555 10.44625,60.0315 C10.61875,60.0075 10.78825,59.96625 10.95475,59.90775 C11.12125,59.84925 11.281,59.77125 11.434,59.67375 C11.587,59.57625 11.725,59.4555 11.848,59.3115 L11.848,59.3115 L11.524,58.9065 C11.5,58.8735 11.4715,58.848 11.4385,58.83 C11.4055,58.812 11.3665,58.803 11.3215,58.803 C11.2525,58.803 11.18125,58.824 11.10775,58.866 C11.03425,58.908 10.94875,58.9545 10.85125,59.0055 C10.75375,59.0565 10.63975,59.103 10.50925,59.145 C10.37875,59.187 10.2235,59.208 10.0435,59.208 C9.6775,59.208 9.3835,59.097 9.1615,58.875 C8.9395,58.653 8.812,58.305 8.779,57.831 L8.779,57.831 L11.632,57.831 C11.683,57.831 11.725,57.82425 11.758,57.81075 C11.791,57.79725 11.81725,57.77475 11.83675,57.74325 C11.85625,57.71175 11.86975,57.66825 11.87725,57.61275 C11.88475,57.55725 11.8885,57.4875 11.8885,57.4035 C11.8885,57.0705 11.839,56.77425 11.74,56.51475 C11.641,56.25525 11.503,56.03625 11.326,55.85775 C11.149,55.67925 10.93825,55.5435 10.69375,55.4505 C10.44925,55.3575 10.1815,55.311 9.8905,55.311 C9.5455,55.311 9.23575,55.371 8.96125,55.491 C8.68675,55.611 8.45425,55.77375 8.26375,55.97925 C8.07325,56.18475 7.927,56.42625 7.825,56.70375 C7.723,56.98125 7.672,57.2775 7.672,57.5925 C7.672,57.9975 7.7305,58.35375 7.8475,58.66125 C7.9645,58.96875 8.125,59.22675 8.329,59.43525 C8.533,59.64375 8.773,59.80125 9.049,59.90775 C9.325,60.01425 9.6235,60.0675 9.9445,60.0675 Z M10.8895,57.1605 L8.8015,57.1605 C8.8525,56.8245 8.9695,56.565 9.1525,56.382 C9.3355,56.199 9.589,56.1075 9.913,56.1075 C10.078,56.1075 10.222,56.13525 10.345,56.19075 C10.468,56.24625 10.57,56.322 10.651,56.418 C10.732,56.514 10.792,56.62575 10.831,56.75325 C10.87,56.88075 10.8895,57.0165 10.8895,57.1605 L10.8895,57.1605 Z M14.2135,61.5075 C14.3215,61.5075 14.40175,61.48725 14.45425,61.44675 C14.50675,61.40625 14.5495,61.347 14.5825,61.269 L14.5825,61.269 L17.098,55.383 L16.207,55.383 C16.138,55.383 16.07575,55.4025 16.02025,55.4415 C15.96475,55.4805 15.925,55.53 15.901,55.59 L15.901,55.59 L14.974,57.9795 C14.941,58.0635 14.91025,58.146 14.88175,58.227 C14.85325,58.308 14.827,58.392 14.803,58.479 C14.785,58.395 14.764,58.311 14.74,58.227 C14.716,58.143 14.6875,58.062 14.6545,57.984 L14.6545,57.984 L13.669,55.59 C13.645,55.536 13.609,55.488 13.561,55.446 C13.513,55.404 13.444,55.383 13.354,55.383 L13.354,55.383 L12.382,55.383 L14.2495,59.658 L13.3855,61.5075 L14.2135,61.5075 Z M19.5625,60.072 C19.7875,60.072 20.005,60.0375 20.215,59.9685 C20.425,59.8995 20.611,59.7975 20.773,59.6625 L20.773,59.6625 L20.44,59.1225 C20.416,59.0895 20.3935,59.06475 20.3725,59.04825 C20.3515,59.03175 20.3245,59.0235 20.2915,59.0235 C20.2645,59.0235 20.2375,59.03175 20.2105,59.04825 C20.1835,59.06475 20.15275,59.082 20.11825,59.1 C20.08375,59.118 20.04325,59.13525 19.99675,59.15175 C19.95025,59.16825 19.8925,59.1765 19.8235,59.1765 C19.7035,59.1765 19.6075,59.136 19.5355,59.055 C19.4635,58.974 19.4275,58.8615 19.4275,58.7175 L19.4275,58.7175 L19.4275,56.2155 L20.6425,56.2155 L20.6425,55.4235 L19.4275,55.4235 L19.4275,53.97 L18.8515,53.97 C18.7855,53.97 18.73075,53.9865 18.68725,54.0195 C18.64375,54.0525 18.616,54.099 18.604,54.159 L18.604,54.159 L18.37,55.419 L17.6275,55.5405 L17.6275,55.9815 C17.6275,56.0595 17.64925,56.118 17.69275,56.157 C17.73625,56.196 17.788,56.2155 17.848,56.2155 L17.848,56.2155 L18.316,56.2155 L18.316,58.794 C18.316,59.193 18.424,59.50575 18.64,59.73225 C18.856,59.95875 19.1635,60.072 19.5625,60.072 Z M22.9405,60 L22.9405,57.1245 C23.0545,56.8785 23.194,56.69175 23.359,56.56425 C23.524,56.43675 23.722,56.373 23.953,56.373 C24.082,56.373 24.1855,56.3835 24.2635,56.4045 C24.3415,56.4255 24.403,56.436 24.448,56.436 C24.499,56.436 24.5395,56.42475 24.5695,56.40225 C24.5995,56.37975 24.619,56.3415 24.628,56.2875 L24.628,56.2875 L24.772,55.455 C24.622,55.35 24.433,55.2975 24.205,55.2975 C23.929,55.2975 23.68,55.38 23.458,55.545 C23.236,55.71 23.0425,55.935 22.8775,56.22 L22.8775,56.22 L22.81,55.662 C22.795,55.56 22.765,55.488 22.72,55.446 C22.675,55.404 22.5955,55.383 22.4815,55.383 L22.4815,55.383 L21.829,55.383 L21.829,60 L22.9405,60 Z M26.4355,54.735 C26.5345,54.735 26.6275,54.71625 26.7145,54.67875 C26.8015,54.64125 26.87725,54.591 26.94175,54.528 C27.00625,54.465 27.058,54.3915 27.097,54.3075 C27.136,54.2235 27.1555,54.1335 27.1555,54.0375 C27.1555,53.9385 27.136,53.8455 27.097,53.7585 C27.058,53.6715 27.00625,53.5965 26.94175,53.5335 C26.87725,53.4705 26.8015,53.42025 26.7145,53.38275 C26.6275,53.34525 26.5345,53.3265 26.4355,53.3265 C26.3395,53.3265 26.24875,53.34525 26.16325,53.38275 C26.07775,53.42025 26.0035,53.4705 25.9405,53.5335 C25.8775,53.5965 25.82725,53.6715 25.78975,53.7585 C25.75225,53.8455 25.7335,53.9385 25.7335,54.0375 C25.7335,54.1335 25.75225,54.2235 25.78975,54.3075 C25.82725,54.3915 25.8775,54.465 25.9405,54.528 C26.0035,54.591 26.07775,54.64125 26.16325,54.67875 C26.24875,54.71625 26.3395,54.735 26.4355,54.735 Z M26.989,60 L26.989,55.383 L25.8775,55.383 L25.8775,60 L26.989,60 Z M30.1555,61.6245 C30.5095,61.6245 30.8245,61.57875 31.1005,61.48725 C31.3765,61.39575 31.60975,61.275 31.80025,61.125 C31.99075,60.975 32.13625,60.804 32.23675,60.612 C32.33725,60.42 32.3875,60.222 32.3875,60.018 C32.3875,59.799 32.34475,59.61975 32.25925,59.48025 C32.17375,59.34075 32.06125,59.2305 31.92175,59.1495 C31.78225,59.0685 31.624,59.00925 31.447,58.97175 C31.27,58.93425 31.0885,58.908 30.9025,58.893 C30.7165,58.878 30.535,58.86825 30.358,58.86375 C30.181,58.85925 30.02275,58.848 29.88325,58.83 C29.74375,58.812 29.63125,58.78125 29.54575,58.73775 C29.46025,58.69425 29.4175,58.626 29.4175,58.533 C29.4175,58.425 29.4895,58.3275 29.6335,58.2405 C29.7985,58.2735 29.968,58.29 30.142,58.29 C30.4,58.29 30.63925,58.25475 30.85975,58.18425 C31.08025,58.11375 31.27075,58.014 31.43125,57.885 C31.59175,57.756 31.71775,57.59925 31.80925,57.41475 C31.90075,57.23025 31.9465,57.024 31.9465,56.796 C31.9465,56.7 31.93825,56.6085 31.92175,56.5215 C31.90525,56.4345 31.882,56.352 31.852,56.274 L31.852,56.274 L32.266,56.1975 C32.353,56.1825 32.4145,56.1555 32.4505,56.1165 C32.4865,56.0775 32.5045,56.0235 32.5045,55.9545 L32.5045,55.9545 L32.5045,55.5405 L31.177,55.5405 C31.033,55.4625 30.874,55.40325 30.7,55.36275 C30.526,55.32225 30.34,55.302 30.142,55.302 C29.878,55.302 29.63425,55.3365 29.41075,55.4055 C29.18725,55.4745 28.99375,55.57425 28.83025,55.70475 C28.66675,55.83525 28.53925,55.99275 28.44775,56.17725 C28.35625,56.36175 28.3105,56.568 28.3105,56.796 C28.3105,57.078 28.37725,57.324 28.51075,57.534 C28.64425,57.744 28.828,57.912 29.062,58.038 C28.96,58.089 28.8715,58.14675 28.7965,58.21125 C28.7215,58.27575 28.65925,58.344 28.60975,58.416 C28.56025,58.488 28.5235,58.56075 28.4995,58.63425 C28.4755,58.70775 28.4635,58.779 28.4635,58.848 C28.4635,59.016 28.498,59.1525 28.567,59.2575 C28.636,59.3625 28.7275,59.4465 28.8415,59.5095 C28.6075,59.5965 28.4245,59.7135 28.2925,59.8605 C28.1605,60.0075 28.0945,60.189 28.0945,60.405 C28.0945,60.564 28.1365,60.717 28.2205,60.864 C28.3045,61.011 28.43125,61.14075 28.60075,61.25325 C28.77025,61.36575 28.984,61.45575 29.242,61.52325 C29.5,61.59075 29.8045,61.6245 30.1555,61.6245 Z M30.142,57.579 C30.007,57.579 29.88775,57.56025 29.78425,57.52275 C29.68075,57.48525 29.59525,57.43275 29.52775,57.36525 C29.46025,57.29775 29.40925,57.2175 29.37475,57.1245 C29.34025,57.0315 29.323,56.931 29.323,56.823 C29.323,56.595 29.39125,56.41425 29.52775,56.28075 C29.66425,56.14725 29.869,56.0805 30.142,56.0805 C30.415,56.0805 30.61975,56.14725 30.75625,56.28075 C30.89275,56.41425 30.961,56.595 30.961,56.823 C30.961,56.934 30.94375,57.036 30.90925,57.129 C30.87475,57.222 30.82375,57.3015 30.75625,57.3675 C30.68875,57.4335 30.604,57.48525 30.502,57.52275 C30.4,57.56025 30.28,57.579 30.142,57.579 Z M30.1735,60.8325 C29.9695,60.8325 29.797,60.81825 29.656,60.78975 C29.515,60.76125 29.40025,60.7215 29.31175,60.6705 C29.22325,60.6195 29.15875,60.55875 29.11825,60.48825 C29.07775,60.41775 29.0575,60.342 29.0575,60.261 C29.0575,60.138 29.09575,60.02925 29.17225,59.93475 C29.24875,59.84025 29.35,59.7585 29.476,59.6895 C29.614,59.7075 29.75725,59.72025 29.90575,59.72775 C30.05425,59.73525 30.19825,59.74275 30.33775,59.75025 C30.47725,59.75775 30.60925,59.769 30.73375,59.784 C30.85825,59.799 30.967,59.82225 31.06,59.85375 C31.153,59.88525 31.2265,59.9295 31.2805,59.9865 C31.3345,60.0435 31.3615,60.117 31.3615,60.207 C31.3615,60.297 31.339,60.38025 31.294,60.45675 C31.249,60.53325 31.17775,60.59925 31.08025,60.65475 C30.98275,60.71025 30.859,60.75375 30.709,60.78525 C30.559,60.81675 30.3805,60.8325 30.1735,60.8325 Z M35.113,61.6245 C35.467,61.6245 35.782,61.57875 36.058,61.48725 C36.334,61.39575 36.56725,61.275 36.75775,61.125 C36.94825,60.975 37.09375,60.804 37.19425,60.612 C37.29475,60.42 37.345,60.222 37.345,60.018 C37.345,59.799 37.30225,59.61975 37.21675,59.48025 C37.13125,59.34075 37.01875,59.2305 36.87925,59.1495 C36.73975,59.0685 36.5815,59.00925 36.4045,58.97175 C36.2275,58.93425 36.046,58.908 35.86,58.893 C35.674,58.878 35.4925,58.86825 35.3155,58.86375 C35.1385,58.85925 34.98025,58.848 34.84075,58.83 C34.70125,58.812 34.58875,58.78125 34.50325,58.73775 C34.41775,58.69425 34.375,58.626 34.375,58.533 C34.375,58.425 34.447,58.3275 34.591,58.2405 C34.756,58.2735 34.9255,58.29 35.0995,58.29 C35.3575,58.29 35.59675,58.25475 35.81725,58.18425 C36.03775,58.11375 36.22825,58.014 36.38875,57.885 C36.54925,57.756 36.67525,57.59925 36.76675,57.41475 C36.85825,57.23025 36.904,57.024 36.904,56.796 C36.904,56.7 36.89575,56.6085 36.87925,56.5215 C36.86275,56.4345 36.8395,56.352 36.8095,56.274 L36.8095,56.274 L37.2235,56.1975 C37.3105,56.1825 37.372,56.1555 37.408,56.1165 C37.444,56.0775 37.462,56.0235 37.462,55.9545 L37.462,55.9545 L37.462,55.5405 L36.1345,55.5405 C35.9905,55.4625 35.8315,55.40325 35.6575,55.36275 C35.4835,55.32225 35.2975,55.302 35.0995,55.302 C34.8355,55.302 34.59175,55.3365 34.36825,55.4055 C34.14475,55.4745 33.95125,55.57425 33.78775,55.70475 C33.62425,55.83525 33.49675,55.99275 33.40525,56.17725 C33.31375,56.36175 33.268,56.568 33.268,56.796 C33.268,57.078 33.33475,57.324 33.46825,57.534 C33.60175,57.744 33.7855,57.912 34.0195,58.038 C33.9175,58.089 33.829,58.14675 33.754,58.21125 C33.679,58.27575 33.61675,58.344 33.56725,58.416 C33.51775,58.488 33.481,58.56075 33.457,58.63425 C33.433,58.70775 33.421,58.779 33.421,58.848 C33.421,59.016 33.4555,59.1525 33.5245,59.2575 C33.5935,59.3625 33.685,59.4465 33.799,59.5095 C33.565,59.5965 33.382,59.7135 33.25,59.8605 C33.118,60.0075 33.052,60.189 33.052,60.405 C33.052,60.564 33.094,60.717 33.178,60.864 C33.262,61.011 33.38875,61.14075 33.55825,61.25325 C33.72775,61.36575 33.9415,61.45575 34.1995,61.52325 C34.4575,61.59075 34.762,61.6245 35.113,61.6245 Z M35.0995,57.579 C34.9645,57.579 34.84525,57.56025 34.74175,57.52275 C34.63825,57.48525 34.55275,57.43275 34.48525,57.36525 C34.41775,57.29775 34.36675,57.2175 34.33225,57.1245 C34.29775,57.0315 34.2805,56.931 34.2805,56.823 C34.2805,56.595 34.34875,56.41425 34.48525,56.28075 C34.62175,56.14725 34.8265,56.0805 35.0995,56.0805 C35.3725,56.0805 35.57725,56.14725 35.71375,56.28075 C35.85025,56.41425 35.9185,56.595 35.9185,56.823 C35.9185,56.934 35.90125,57.036 35.86675,57.129 C35.83225,57.222 35.78125,57.3015 35.71375,57.3675 C35.64625,57.4335 35.5615,57.48525 35.4595,57.52275 C35.3575,57.56025 35.2375,57.579 35.0995,57.579 Z M35.131,60.8325 C34.927,60.8325 34.7545,60.81825 34.6135,60.78975 C34.4725,60.76125 34.35775,60.7215 34.26925,60.6705 C34.18075,60.6195 34.11625,60.55875 34.07575,60.48825 C34.03525,60.41775 34.015,60.342 34.015,60.261 C34.015,60.138 34.05325,60.02925 34.12975,59.93475 C34.20625,59.84025 34.3075,59.7585 34.4335,59.6895 C34.5715,59.7075 34.71475,59.72025 34.86325,59.72775 C35.01175,59.73525 35.15575,59.74275 35.29525,59.75025 C35.43475,59.75775 35.56675,59.769 35.69125,59.784 C35.81575,59.799 35.9245,59.82225 36.0175,59.85375 C36.1105,59.88525 36.184,59.9295 36.238,59.9865 C36.292,60.0435 36.319,60.117 36.319,60.207 C36.319,60.297 36.2965,60.38025 36.2515,60.45675 C36.2065,60.53325 36.13525,60.59925 36.03775,60.65475 C35.94025,60.71025 35.8165,60.75375 35.6665,60.78525 C35.5165,60.81675 35.338,60.8325 35.131,60.8325 Z M40.4215,60.0675 C40.5835,60.0675 40.75075,60.0555 40.92325,60.0315 C41.09575,60.0075 41.26525,59.96625 41.43175,59.90775 C41.59825,59.84925 41.758,59.77125 41.911,59.67375 C42.064,59.57625 42.202,59.4555 42.325,59.3115 L42.325,59.3115 L42.001,58.9065 C41.977,58.8735 41.9485,58.848 41.9155,58.83 C41.8825,58.812 41.8435,58.803 41.7985,58.803 C41.7295,58.803 41.65825,58.824 41.58475,58.866 C41.51125,58.908 41.42575,58.9545 41.32825,59.0055 C41.23075,59.0565 41.11675,59.103 40.98625,59.145 C40.85575,59.187 40.7005,59.208 40.5205,59.208 C40.1545,59.208 39.8605,59.097 39.6385,58.875 C39.4165,58.653 39.289,58.305 39.256,57.831 L39.256,57.831 L42.109,57.831 C42.16,57.831 42.202,57.82425 42.235,57.81075 C42.268,57.79725 42.29425,57.77475 42.31375,57.74325 C42.33325,57.71175 42.34675,57.66825 42.35425,57.61275 C42.36175,57.55725 42.3655,57.4875 42.3655,57.4035 C42.3655,57.0705 42.316,56.77425 42.217,56.51475 C42.118,56.25525 41.98,56.03625 41.803,55.85775 C41.626,55.67925 41.41525,55.5435 41.17075,55.4505 C40.92625,55.3575 40.6585,55.311 40.3675,55.311 C40.0225,55.311 39.71275,55.371 39.43825,55.491 C39.16375,55.611 38.93125,55.77375 38.74075,55.97925 C38.55025,56.18475 38.404,56.42625 38.302,56.70375 C38.2,56.98125 38.149,57.2775 38.149,57.5925 C38.149,57.9975 38.2075,58.35375 38.3245,58.66125 C38.4415,58.96875 38.602,59.22675 38.806,59.43525 C39.01,59.64375 39.25,59.80125 39.526,59.90775 C39.802,60.01425 40.1005,60.0675 40.4215,60.0675 Z M41.3665,57.1605 L39.2785,57.1605 C39.3295,56.8245 39.4465,56.565 39.6295,56.382 C39.8125,56.199 40.066,56.1075 40.39,56.1075 C40.555,56.1075 40.699,56.13525 40.822,56.19075 C40.945,56.24625 41.047,56.322 41.128,56.418 C41.209,56.514 41.269,56.62575 41.308,56.75325 C41.347,56.88075 41.3665,57.0165 41.3665,57.1605 L41.3665,57.1605 Z M44.6815,60 L44.6815,57.1245 C44.7955,56.8785 44.935,56.69175 45.1,56.56425 C45.265,56.43675 45.463,56.373 45.694,56.373 C45.823,56.373 45.9265,56.3835 46.0045,56.4045 C46.0825,56.4255 46.144,56.436 46.189,56.436 C46.24,56.436 46.2805,56.42475 46.3105,56.40225 C46.3405,56.37975 46.36,56.3415 46.369,56.2875 L46.369,56.2875 L46.513,55.455 C46.363,55.35 46.174,55.2975 45.946,55.2975 C45.67,55.2975 45.421,55.38 45.199,55.545 C44.977,55.71 44.7835,55.935 44.6185,56.22 L44.6185,56.22 L44.551,55.662 C44.536,55.56 44.506,55.488 44.461,55.446 C44.416,55.404 44.3365,55.383 44.2225,55.383 L44.2225,55.383 L43.57,55.383 L43.57,60 L44.6815,60 Z" id="Keytrigger" fill="#E5E5E5" fill-rule="nonzero"></path>
            <path d="M6.908,111 L6.908,108.4575 L7.4255,108.4575 C7.5455,108.4575 7.63625,108.474 7.69775,108.507 C7.75925,108.54 7.8155,108.5955 7.8665,108.6735 L7.8665,108.6735 L9.2345,110.757 C9.2855,110.835 9.34775,110.895 9.42125,110.937 C9.49475,110.979 9.584,111 9.689,111 L9.689,111 L10.778,111 L9.149,108.597 C9.038,108.435 8.906,108.3105 8.753,108.2235 C8.981,108.1515 9.18425,108.0555 9.36275,107.9355 C9.54125,107.8155 9.69125,107.676 9.81275,107.517 C9.93425,107.358 10.02725,107.181 10.09175,106.986 C10.15625,106.791 10.1885,106.584 10.1885,106.365 C10.1885,106.089 10.14125,105.83625 10.04675,105.60675 C9.95225,105.37725 9.80375,105.18 9.60125,105.015 C9.39875,104.85 9.13925,104.72175 8.82275,104.63025 C8.50625,104.53875 8.126,104.493 7.682,104.493 L7.682,104.493 L5.6975,104.493 L5.6975,111 L6.908,111 Z M7.664,107.589 L6.908,107.589 L6.908,105.429 L7.682,105.429 C8.129,105.429 8.46125,105.5175 8.67875,105.6945 C8.89625,105.8715 9.005,106.125 9.005,106.455 C9.005,106.62 8.978,106.7715 8.924,106.9095 C8.87,107.0475 8.78825,107.16675 8.67875,107.26725 C8.56925,107.36775 8.42975,107.4465 8.26025,107.5035 C8.09075,107.5605 7.892,107.589 7.664,107.589 L7.664,107.589 Z M12.9005,111.072 C13.0655,111.072 13.2155,111.0585 13.3505,111.0315 C13.4855,111.0045 13.613,110.964 13.733,110.91 C13.853,110.856 13.96925,110.78925 14.08175,110.70975 C14.19425,110.63025 14.309,110.538 14.426,110.433 L14.426,110.433 L14.525,110.7615 C14.555,110.8575 14.6,110.92125 14.66,110.95275 C14.72,110.98425 14.8025,111 14.9075,111 L14.9075,111 L15.407,111 L15.407,108.084 C15.407,107.823 15.36875,107.583 15.29225,107.364 C15.21575,107.145 15.104,106.95675 14.957,106.79925 C14.81,106.64175 14.63075,106.51875 14.41925,106.43025 C14.20775,106.34175 13.967,106.2975 13.697,106.2975 C12.947,106.2975 12.3065,106.5405 11.7755,107.0265 L11.7755,107.0265 L11.978,107.382 C12.011,107.439 12.0545,107.487 12.1085,107.526 C12.1625,107.565 12.227,107.5845 12.302,107.5845 C12.392,107.5845 12.4745,107.5635 12.5495,107.5215 C12.6245,107.4795 12.70625,107.43225 12.79475,107.37975 C12.88325,107.32725 12.9875,107.28 13.1075,107.238 C13.2275,107.196 13.3775,107.175 13.5575,107.175 C13.8065,107.175 13.99625,107.24925 14.12675,107.39775 C14.25725,107.54625 14.3225,107.775 14.3225,108.084 L14.3225,108.084 L14.3225,108.354 C13.7975,108.366 13.358,108.417 13.004,108.507 C12.65,108.597 12.3665,108.71025 12.1535,108.84675 C11.9405,108.98325 11.78825,109.13625 11.69675,109.30575 C11.60525,109.47525 11.5595,109.647 11.5595,109.821 C11.5595,110.028 11.5925,110.2095 11.6585,110.3655 C11.7245,110.5215 11.81675,110.652 11.93525,110.757 C12.05375,110.862 12.1955,110.94075 12.3605,110.99325 C12.5255,111.04575 12.7055,111.072 12.9005,111.072 Z M13.247,110.307 C13.061,110.307 12.91025,110.265 12.79475,110.181 C12.67925,110.097 12.6215,109.9575 12.6215,109.7625 C12.6215,109.6635 12.64925,109.572 12.70475,109.488 C12.76025,109.404 12.854,109.3305 12.986,109.2675 C13.118,109.2045 13.29275,109.15275 13.51025,109.11225 C13.72775,109.07175 13.9985,109.044 14.3225,109.029 L14.3225,109.029 L14.3225,109.8075 C14.2415,109.8915 14.16125,109.96425 14.08175,110.02575 C14.00225,110.08725 13.91975,110.139 13.83425,110.181 C13.74875,110.223 13.658,110.2545 13.562,110.2755 C13.466,110.2965 13.361,110.307 13.247,110.307 Z M17.912,111 L17.912,107.661 C18.062,107.511 18.221,107.3925 18.389,107.3055 C18.557,107.2185 18.737,107.175 18.929,107.175 C19.19,107.175 19.38575,107.25225 19.51625,107.40675 C19.64675,107.56125 19.712,107.7795 19.712,108.0615 L19.712,108.0615 L19.712,111 L20.8235,111 L20.8235,108.0615 C20.8235,107.8035 20.78975,107.56725 20.72225,107.35275 C20.65475,107.13825 20.55575,106.95375 20.42525,106.79925 C20.29475,106.64475 20.132,106.52475 19.937,106.43925 C19.742,106.35375 19.5185,106.311 19.2665,106.311 C19.1105,106.311 18.9665,106.326 18.8345,106.356 C18.7025,106.386 18.57875,106.4295 18.46325,106.4865 C18.34775,106.5435 18.23825,106.611 18.13475,106.689 C18.03125,106.767 17.933,106.854 17.84,106.95 L17.84,106.95 L17.7635,106.5855 C17.7185,106.4505 17.624,106.383 17.48,106.383 L17.48,106.383 L16.8005,106.383 L16.8005,111 L17.912,111 Z M23.6075,111.0675 C23.7695,111.0675 23.92025,111.05025 24.05975,111.01575 C24.19925,110.98125 24.32975,110.9325 24.45125,110.8695 C24.57275,110.8065 24.686,110.7315 24.791,110.6445 C24.896,110.5575 24.9965,110.46 25.0925,110.352 L25.0925,110.352 L25.1825,110.7975 C25.2275,110.9325 25.322,111 25.466,111 L25.466,111 L26.1455,111 L26.1455,104.313 L25.034,104.313 L25.034,106.752 C24.89,106.614 24.7265,106.50375 24.5435,106.42125 C24.3605,106.33875 24.14,106.2975 23.882,106.2975 C23.579,106.2975 23.306,106.35825 23.063,106.47975 C22.82,106.60125 22.6115,106.77 22.4375,106.986 C22.2635,107.202 22.13,107.457 22.037,107.751 C21.944,108.045 21.8975,108.363 21.8975,108.705 C21.8975,109.083 21.93875,109.419 22.02125,109.713 C22.10375,110.007 22.22075,110.25375 22.37225,110.45325 C22.52375,110.65275 22.7045,110.805 22.9145,110.91 C23.1245,111.015 23.3555,111.0675 23.6075,111.0675 Z M23.9855,110.1855 C23.8415,110.1855 23.711,110.15925 23.594,110.10675 C23.477,110.05425 23.378,109.96875 23.297,109.85025 C23.216,109.73175 23.15375,109.57875 23.11025,109.39125 C23.06675,109.20375 23.045,108.975 23.045,108.705 C23.045,108.438 23.0705,108.20625 23.1215,108.00975 C23.1725,107.81325 23.24525,107.65125 23.33975,107.52375 C23.43425,107.39625 23.54975,107.301 23.68625,107.238 C23.82275,107.175 23.975,107.1435 24.143,107.1435 C24.314,107.1435 24.47375,107.175 24.62225,107.238 C24.77075,107.301 24.908,107.409 25.034,107.562 L25.034,107.562 L25.034,109.632 C24.89,109.809 24.737,109.9455 24.575,110.0415 C24.413,110.1375 24.2165,110.1855 23.9855,110.1855 Z M29.618,111.0675 C29.963,111.0675 30.27575,111.012 30.55625,110.901 C30.83675,110.79 31.076,110.631 31.274,110.424 C31.472,110.217 31.625,109.9665 31.733,109.6725 C31.841,109.3785 31.895,109.0485 31.895,108.6825 C31.895,108.3195 31.841,107.991 31.733,107.697 C31.625,107.403 31.472,107.154 31.274,106.95 C31.076,106.746 30.83675,106.5885 30.55625,106.4775 C30.27575,106.3665 29.963,106.311 29.618,106.311 C29.273,106.311 28.9595,106.3665 28.6775,106.4775 C28.3955,106.5885 28.15475,106.746 27.95525,106.95 C27.75575,107.154 27.60125,107.403 27.49175,107.697 C27.38225,107.991 27.3275,108.3195 27.3275,108.6825 C27.3275,109.0485 27.38225,109.3785 27.49175,109.6725 C27.60125,109.9665 27.75575,110.217 27.95525,110.424 C28.15475,110.631 28.3955,110.79 28.6775,110.901 C28.9595,111.012 29.273,111.0675 29.618,111.0675 Z M29.618,110.2125 C29.228,110.2125 28.94,110.08275 28.754,109.82325 C28.568,109.56375 28.475,109.1865 28.475,108.6915 C28.475,108.1965 28.568,107.81775 28.754,107.55525 C28.94,107.29275 29.228,107.1615 29.618,107.1615 C30.002,107.1615 30.28625,107.292 30.47075,107.553 C30.65525,107.814 30.7475,108.1935 30.7475,108.6915 C30.7475,109.1895 30.65525,109.5675 30.47075,109.8255 C30.28625,110.0835 30.002,110.2125 29.618,110.2125 Z M34.175,111 L34.175,107.6205 C34.295,107.4825 34.42475,107.37375 34.56425,107.29425 C34.70375,107.21475 34.853,107.175 35.012,107.175 C35.255,107.175 35.43875,107.2455 35.56325,107.3865 C35.68775,107.5275 35.75,107.7525 35.75,108.0615 L35.75,108.0615 L35.75,111 L36.866,111 L36.866,108.0615 C36.866,107.9175 36.887,107.79 36.929,107.679 C36.971,107.568 37.02875,107.47575 37.10225,107.40225 C37.17575,107.32875 37.26125,107.2725 37.35875,107.2335 C37.45625,107.1945 37.562,107.175 37.676,107.175 C37.925,107.175 38.114,107.24925 38.243,107.39775 C38.372,107.54625 38.4365,107.7675 38.4365,108.0615 L38.4365,108.0615 L38.4365,111 L39.548,111 L39.548,108.0615 C39.548,107.7825 39.51275,107.535 39.44225,107.319 C39.37175,107.103 39.269,106.92 39.134,106.77 C38.999,106.62 38.8325,106.506 38.6345,106.428 C38.4365,106.35 38.21,106.311 37.955,106.311 C37.808,106.311 37.66175,106.3275 37.51625,106.3605 C37.37075,106.3935 37.2335,106.4445 37.1045,106.5135 C36.9755,106.5825 36.857,106.67175 36.749,106.78125 C36.641,106.89075 36.551,107.022 36.479,107.175 C36.386,106.914 36.24575,106.70475 36.05825,106.54725 C35.87075,106.38975 35.6315,106.311 35.3405,106.311 C35.2025,106.311 35.07575,106.32675 34.96025,106.35825 C34.84475,106.38975 34.73675,106.4325 34.63625,106.4865 C34.53575,106.5405 34.44125,106.605 34.35275,106.68 C34.26425,106.755 34.1795,106.8375 34.0985,106.9275 L34.0985,106.9275 L34.0265,106.5855 C33.9815,106.4505 33.887,106.383 33.743,106.383 L33.743,106.383 L33.0635,106.383 L33.0635,111 L34.175,111 Z" id="Random" fill="#E5E5E5" fill-rule="nonzero"></path>
        </g>
    </g>
</svg>