<?xml version="1.0" encoding="UTF-8"?>
<svg width="135px" height="108px" viewBox="0 0 135 108" version="1.1" xmlns="http://www.w3.org/2000/svg" xmlns:xlink="http://www.w3.org/1999/xlink">
    <title>hover00144</title>
    <g id="hover00144" stroke="none" stroke-width="1" fill="none" fill-rule="evenodd">
        <g id="Group" transform="translate(2.000000, 2.000000)" fill="#399DFF">
            <rect id="Rectangle" x="0" y="0" width="31" height="23" rx="1"></rect>
            <rect id="Rectangle" x="34" y="27" width="30" height="23" rx="1"></rect>
            <rect id="Rectangle" x="67" y="54" width="30" height="23" rx="1"></rect>
            <rect id="Rectangle" x="100" y="81" width="31" height="23" rx="1"></rect>
        </g>
        <g id="Stacked-Group-Copy" transform="translate(10.000000, 10.000000)" fill="#FFFFFF" fill-rule="nonzero">
            <path d="M3.6045,7.072 C4.0965,7.072 4.545,6.98875 4.95,6.82225 C5.355,6.65575 5.7015,6.424 5.9895,6.127 C6.2775,5.83 6.501,5.47825 6.66,5.07175 C6.819,4.66525 6.8985,4.2235 6.8985,3.7465 C6.8985,3.2695 6.819,2.82775 6.66,2.42125 C6.501,2.01475 6.2775,1.66375 5.9895,1.36825 C5.7015,1.07275 5.355,0.841 4.95,0.673 C4.545,0.505 4.0965,0.421 3.6045,0.421 C3.1125,0.421 2.66325,0.50425 2.25675,0.67075 C1.85025,0.83725 1.50225,1.069 1.21275,1.366 C0.92325,1.663 0.699,2.01475 0.54,2.42125 C0.381,2.82775 0.3015,3.2695 0.3015,3.7465 C0.3015,4.2235 0.381,4.66525 0.54,5.07175 C0.699,5.47825 0.92325,5.83 1.21275,6.127 C1.50225,6.424 1.85025,6.65575 2.25675,6.82225 C2.66325,6.98875 3.1125,7.072 3.6045,7.072 Z M3.6045,6.037 C3.2865,6.037 3,5.9845 2.745,5.8795 C2.49,5.7745 2.27325,5.62375 2.09475,5.42725 C1.91625,5.23075 1.779,4.99075 1.683,4.70725 C1.587,4.42375 1.539,4.1035 1.539,3.7465 C1.539,3.3895 1.587,3.06925 1.683,2.78575 C1.779,2.50225 1.91625,2.2615 2.09475,2.0635 C2.27325,1.8655 2.49,1.714 2.745,1.609 C3,1.504 3.2865,1.4515 3.6045,1.4515 C3.9225,1.4515 4.20825,1.504 4.46175,1.609 C4.71525,1.714 4.9305,1.8655 5.1075,2.0635 C5.2845,2.2615 5.42025,2.50225 5.51475,2.78575 C5.60925,3.06925 5.6565,3.3895 5.6565,3.7465 C5.6565,4.1035 5.60925,4.42375 5.51475,4.70725 C5.42025,4.99075 5.2845,5.23075 5.1075,5.42725 C4.9305,5.62375 4.71525,5.7745 4.46175,5.8795 C4.20825,5.9845 3.9225,6.037 3.6045,6.037 Z M9.79899999,7 L9.79899999,3.2155 L10.9645,3.2155 L10.9645,2.4235 L9.76299999,2.4235 L9.76299999,2.1175 C9.76299999,1.9465 9.78174999,1.80325 9.81924999,1.68775 C9.85674999,1.57225 9.91149999,1.47925 9.98349999,1.40875 C10.0555,1.33825 10.14325,1.28875 10.24675,1.26025 C10.35025,1.23175 10.468,1.2175 10.6,1.2175 C10.699,1.2175 10.786,1.207 10.861,1.186 C10.936,1.165 10.9765,1.111 10.9825,1.024 L10.9825,1.024 L11.005,0.466 C10.822,0.409 10.624,0.3805 10.411,0.3805 C10.144,0.3805 9.90399999,0.4195 9.69099999,0.4975 C9.47799999,0.5755 9.29724999,0.688 9.14874999,0.835 C9.00024999,0.982 8.88624999,1.1605 8.80674999,1.3705 C8.72724999,1.5805 8.68749999,1.8175 8.68749999,2.0815 L8.68749999,2.0815 L8.68749999,2.4235 L7.99899999,2.4235 L7.99899999,2.878 C7.99899999,2.959 8.02524999,3.022 8.07774999,3.067 C8.13024999,3.112 8.19999999,3.142 8.28699999,3.157 L8.28699999,3.157 L8.68749999,3.22 L8.68749999,7 L9.79899999,7 Z M13.6535,7 L13.6535,3.2155 L14.819,3.2155 L14.819,2.4235 L13.6175,2.4235 L13.6175,2.1175 C13.6175,1.9465 13.63625,1.80325 13.67375,1.68775 C13.71125,1.57225 13.766,1.47925 13.838,1.40875 C13.91,1.33825 13.99775,1.28875 14.10125,1.26025 C14.20475,1.23175 14.3225,1.2175 14.4545,1.2175 C14.5535,1.2175 14.6405,1.207 14.7155,1.186 C14.7905,1.165 14.831,1.111 14.837,1.024 L14.837,1.024 L14.8595,0.466 C14.6765,0.409 14.4785,0.3805 14.2655,0.3805 C13.9985,0.3805 13.7585,0.4195 13.5455,0.4975 C13.3325,0.5755 13.15175,0.688 13.00325,0.835 C12.85475,0.982 12.74075,1.1605 12.66125,1.3705 C12.58175,1.5805 12.542,1.8175 12.542,2.0815 L12.542,2.0815 L12.542,2.4235 L11.8535,2.4235 L11.8535,2.878 C11.8535,2.959 11.87975,3.022 11.93225,3.067 C11.98475,3.112 12.0545,3.142 12.1415,3.157 L12.1415,3.157 L12.542,3.22 L12.542,7 L13.6535,7 Z" id="Off"></path>
            <path d="M101.9675,88 C102.0695,88 102.15575,87.9715 102.22625,87.9145 C102.29675,87.8575 102.344,87.7945 102.368,87.7255 L102.368,87.7255 L102.854,86.398 L105.5495,86.398 L106.0355,87.7255 C106.0655,87.8035 106.11425,87.86875 106.18175,87.92125 C106.24925,87.97375 106.3355,88 106.4405,88 L106.4405,88 L107.3765,88 L104.8205,81.493 L103.583,81.493 L101.027,88 L101.9675,88 Z M105.239,85.543 L103.1645,85.543 L103.9565,83.3875 C103.9955,83.2885 104.03525,83.173 104.07575,83.041 C104.11625,82.909 104.1575,82.7665 104.1995,82.6135 C104.2415,82.7665 104.28425,82.90825 104.32775,83.03875 C104.37125,83.16925 104.411,83.2825 104.447,83.3785 L104.447,83.3785 L105.239,85.543 Z M109.8675,88 L109.8675,81.313 L108.756,81.313 L108.756,88 L109.8675,88 Z M113.0065,88 L113.0065,81.313 L111.895,81.313 L111.895,88 L113.0065,88 Z" id="All"></path>
            <path d="M63.2995,55.072 C63.6595,55.072 63.979,55.01725 64.258,54.90775 C64.537,54.79825 64.77325,54.64825 64.96675,54.45775 C65.16025,54.26725 65.30725,54.04375 65.40775,53.78725 C65.50825,53.53075 65.5585,53.2555 65.5585,52.9615 C65.5585,52.6915 65.51575,52.462 65.43025,52.273 C65.34475,52.084 65.2315,51.92425 65.0905,51.79375 C64.9495,51.66325 64.789,51.55525 64.609,51.46975 C64.429,51.38425 64.24525,51.30925 64.05775,51.24475 C63.87025,51.18025 63.6865,51.1195 63.5065,51.0625 C63.3265,51.0055 63.166,50.941 63.025,50.869 C62.884,50.797 62.77075,50.71 62.68525,50.608 C62.59975,50.506 62.557,50.3785 62.557,50.2255 C62.557,50.1055 62.578,49.99525 62.62,49.89475 C62.662,49.79425 62.72575,49.708 62.81125,49.636 C62.89675,49.564 63.00175,49.50775 63.12625,49.46725 C63.25075,49.42675 63.397,49.4065 63.565,49.4065 C63.751,49.4065 63.91225,49.42975 64.04875,49.47625 C64.18525,49.52275 64.3045,49.5745 64.4065,49.6315 C64.5085,49.6885 64.597,49.74025 64.672,49.78675 C64.747,49.83325 64.8145,49.8565 64.8745,49.8565 C64.9345,49.8565 64.98625,49.843 65.02975,49.816 C65.07325,49.789 65.1115,49.7425 65.1445,49.6765 L65.1445,49.6765 L65.4415,49.105 C65.2135,48.889 64.9375,48.721 64.6135,48.601 C64.2895,48.481 63.9355,48.421 63.5515,48.421 C63.2125,48.421 62.911,48.4735 62.647,48.5785 C62.383,48.6835 62.16025,48.823 61.97875,48.997 C61.79725,49.171 61.65925,49.3705 61.56475,49.5955 C61.47025,49.8205 61.423,50.0515 61.423,50.2885 C61.423,50.5855 61.46575,50.83525 61.55125,51.03775 C61.63675,51.24025 61.75,51.409 61.891,51.544 C62.032,51.679 62.1925,51.7885 62.3725,51.8725 C62.5525,51.9565 62.7355,52.0285 62.9215,52.0885 C63.1075,52.1485 63.2905,52.204 63.4705,52.255 C63.6505,52.306 63.811,52.36825 63.952,52.44175 C64.093,52.51525 64.20625,52.606 64.29175,52.714 C64.37725,52.822 64.42,52.9615 64.42,53.1325 C64.42,53.4385 64.3255,53.67325 64.1365,53.83675 C63.9475,54.00025 63.6805,54.082 63.3355,54.082 C63.1105,54.082 62.91775,54.05125 62.75725,53.98975 C62.59675,53.92825 62.45725,53.86 62.33875,53.785 C62.22025,53.71 62.1175,53.64175 62.0305,53.58025 C61.9435,53.51875 61.8625,53.488 61.7875,53.488 C61.7305,53.488 61.67875,53.50225 61.63225,53.53075 C61.58575,53.55925 61.546,53.5945 61.513,53.6365 L61.513,53.6365 L61.162,54.217 C61.288,54.346 61.43125,54.463 61.59175,54.568 C61.75225,54.673 61.92475,54.763 62.10925,54.838 C62.29375,54.913 62.4865,54.97075 62.6875,55.01125 C62.8885,55.05175 63.0925,55.072 63.2995,55.072 Z M67.8845,55.0675 C68.0465,55.0675 68.21375,55.0555 68.38625,55.0315 C68.55875,55.0075 68.72825,54.96625 68.89475,54.90775 C69.06125,54.84925 69.221,54.77125 69.374,54.67375 C69.527,54.57625 69.665,54.4555 69.788,54.3115 L69.788,54.3115 L69.464,53.9065 C69.44,53.8735 69.4115,53.848 69.3785,53.83 C69.3455,53.812 69.3065,53.803 69.2615,53.803 C69.1925,53.803 69.12125,53.824 69.04775,53.866 C68.97425,53.908 68.88875,53.9545 68.79125,54.0055 C68.69375,54.0565 68.57975,54.103 68.44925,54.145 C68.31875,54.187 68.1635,54.208 67.9835,54.208 C67.6175,54.208 67.3235,54.097 67.1015,53.875 C66.8795,53.653 66.752,53.305 66.719,52.831 L66.719,52.831 L69.572,52.831 C69.623,52.831 69.665,52.82425 69.698,52.81075 C69.731,52.79725 69.75725,52.77475 69.77675,52.74325 C69.79625,52.71175 69.80975,52.66825 69.81725,52.61275 C69.82475,52.55725 69.8285,52.4875 69.8285,52.4035 C69.8285,52.0705 69.779,51.77425 69.68,51.51475 C69.581,51.25525 69.443,51.03625 69.266,50.85775 C69.089,50.67925 68.87825,50.5435 68.63375,50.4505 C68.38925,50.3575 68.1215,50.311 67.8305,50.311 C67.4855,50.311 67.17575,50.371 66.90125,50.491 C66.62675,50.611 66.39425,50.77375 66.20375,50.97925 C66.01325,51.18475 65.867,51.42625 65.765,51.70375 C65.663,51.98125 65.612,52.2775 65.612,52.5925 C65.612,52.9975 65.6705,53.35375 65.7875,53.66125 C65.9045,53.96875 66.065,54.22675 66.269,54.43525 C66.473,54.64375 66.713,54.80125 66.989,54.90775 C67.265,55.01425 67.5635,55.0675 67.8845,55.0675 Z M68.8295,52.1605 L66.7415,52.1605 C66.7925,51.8245 66.9095,51.565 67.0925,51.382 C67.2755,51.199 67.529,51.1075 67.853,51.1075 C68.018,51.1075 68.162,51.13525 68.285,51.19075 C68.408,51.24625 68.51,51.322 68.591,51.418 C68.672,51.514 68.732,51.62575 68.771,51.75325 C68.81,51.88075 68.8295,52.0165 68.8295,52.1605 L68.8295,52.1605 Z M71.3445,55 L71.3445,51.661 C71.4945,51.511 71.6535,51.3925 71.8215,51.3055 C71.9895,51.2185 72.1695,51.175 72.3615,51.175 C72.6225,51.175 72.81825,51.25225 72.94875,51.40675 C73.07925,51.56125 73.1445,51.7795 73.1445,52.0615 L73.1445,52.0615 L73.1445,55 L74.256,55 L74.256,52.0615 C74.256,51.8035 74.22225,51.56725 74.15475,51.35275 C74.08725,51.13825 73.98825,50.95375 73.85775,50.79925 C73.72725,50.64475 73.5645,50.52475 73.3695,50.43925 C73.1745,50.35375 72.951,50.311 72.699,50.311 C72.543,50.311 72.399,50.326 72.267,50.356 C72.135,50.386 72.01125,50.4295 71.89575,50.4865 C71.78025,50.5435 71.67075,50.611 71.56725,50.689 C71.46375,50.767 71.3655,50.854 71.2725,50.95 L71.2725,50.95 L71.196,50.5855 C71.151,50.4505 71.0565,50.383 70.9125,50.383 L70.9125,50.383 L70.233,50.383 L70.233,55 L71.3445,55 Z M76.24,55.0675 C76.402,55.0675 76.55275,55.05025 76.69225,55.01575 C76.83175,54.98125 76.96225,54.9325 77.08375,54.8695 C77.20525,54.8065 77.3185,54.7315 77.4235,54.6445 C77.5285,54.5575 77.629,54.46 77.725,54.352 L77.725,54.352 L77.815,54.7975 C77.86,54.9325 77.9545,55 78.0985,55 L78.0985,55 L78.778,55 L78.778,48.313 L77.6665,48.313 L77.6665,50.752 C77.5225,50.614 77.359,50.50375 77.176,50.42125 C76.993,50.33875 76.7725,50.2975 76.5145,50.2975 C76.2115,50.2975 75.9385,50.35825 75.6955,50.47975 C75.4525,50.60125 75.244,50.77 75.07,50.986 C74.896,51.202 74.7625,51.457 74.6695,51.751 C74.5765,52.045 74.53,52.363 74.53,52.705 C74.53,53.083 74.57125,53.419 74.65375,53.713 C74.73625,54.007 74.85325,54.25375 75.00475,54.45325 C75.15625,54.65275 75.337,54.805 75.547,54.91 C75.757,55.015 75.988,55.0675 76.24,55.0675 Z M76.618,54.1855 C76.474,54.1855 76.3435,54.15925 76.2265,54.10675 C76.1095,54.05425 76.0105,53.96875 75.9295,53.85025 C75.8485,53.73175 75.78625,53.57875 75.74275,53.39125 C75.69925,53.20375 75.6775,52.975 75.6775,52.705 C75.6775,52.438 75.703,52.20625 75.754,52.00975 C75.805,51.81325 75.87775,51.65125 75.97225,51.52375 C76.06675,51.39625 76.18225,51.301 76.31875,51.238 C76.45525,51.175 76.6075,51.1435 76.7755,51.1435 C76.9465,51.1435 77.10625,51.175 77.25475,51.238 C77.40325,51.301 77.5405,51.409 77.6665,51.562 L77.6665,51.562 L77.6665,53.632 C77.5225,53.809 77.3695,53.9455 77.2075,54.0415 C77.0455,54.1375 76.849,54.1855 76.618,54.1855 Z M83.1735,54.244 L83.1735,52.39 L84.924,52.39 L84.924,51.5665 L83.1735,51.5665 L83.1735,49.7215 L82.2735,49.7215 L82.2735,51.5665 L80.532,51.5665 L80.532,52.39 L82.2735,52.39 L82.2735,54.244 L83.1735,54.244 Z M62.7235,66.3 L62.7235,62.097 C62.7235,62.016 62.72125,61.92825 62.71675,61.83375 C62.71225,61.73925 62.704,61.6425 62.692,61.5435 L62.692,61.5435 L64.6855,65.247 C64.7305,65.331 64.789,65.39625 64.861,65.44275 C64.933,65.48925 65.017,65.5125 65.113,65.5125 L65.113,65.5125 L65.2795,65.5125 C65.3755,65.5125 65.4595,65.48925 65.5315,65.44275 C65.6035,65.39625 65.662,65.331 65.707,65.247 L65.707,65.247 L67.6735,61.557 C67.6645,61.653 67.65775,61.7475 67.65325,61.8405 C67.64875,61.9335 67.6465,62.019 67.6465,62.097 L67.6465,62.097 L67.6465,66.3 L68.713,66.3 L68.713,59.793 L67.7995,59.793 C67.7455,59.793 67.699,59.7945 67.66,59.7975 C67.621,59.8005 67.58575,59.808 67.55425,59.82 C67.52275,59.832 67.49425,59.8515 67.46875,59.8785 C67.44325,59.9055 67.4185,59.9415 67.3945,59.9865 L67.3945,59.9865 L65.4685,63.591 C65.4175,63.687 65.3695,63.7875 65.3245,63.8925 C65.2795,63.9975 65.236,64.104 65.194,64.212 C65.152,64.107 65.10925,64.00275 65.06575,63.89925 C65.02225,63.79575 64.975,63.696 64.924,63.6 L64.924,63.6 L62.98,59.9865 C62.956,59.9415 62.9305,59.9055 62.9035,59.8785 C62.8765,59.8515 62.84725,59.832 62.81575,59.82 C62.78425,59.808 62.749,59.8005 62.71,59.7975 C62.671,59.7945 62.6245,59.793 62.5705,59.793 L62.5705,59.793 L61.657,59.793 L61.657,66.3 L62.7235,66.3 Z M70.5755,66.372 C70.7405,66.372 70.8905,66.3585 71.0255,66.3315 C71.1605,66.3045 71.288,66.264 71.408,66.21 C71.528,66.156 71.64425,66.08925 71.75675,66.00975 C71.86925,65.93025 71.984,65.838 72.101,65.733 L72.101,65.733 L72.2,66.0615 C72.23,66.1575 72.275,66.22125 72.335,66.25275 C72.395,66.28425 72.4775,66.3 72.5825,66.3 L72.5825,66.3 L73.082,66.3 L73.082,63.384 C73.082,63.123 73.04375,62.883 72.96725,62.664 C72.89075,62.445 72.779,62.25675 72.632,62.09925 C72.485,61.94175 72.30575,61.81875 72.09425,61.73025 C71.88275,61.64175 71.642,61.5975 71.372,61.5975 C70.622,61.5975 69.9815,61.8405 69.4505,62.3265 L69.4505,62.3265 L69.653,62.682 C69.686,62.739 69.7295,62.787 69.7835,62.826 C69.8375,62.865 69.902,62.8845 69.977,62.8845 C70.067,62.8845 70.1495,62.8635 70.2245,62.8215 C70.2995,62.7795 70.38125,62.73225 70.46975,62.67975 C70.55825,62.62725 70.6625,62.58 70.7825,62.538 C70.9025,62.496 71.0525,62.475 71.2325,62.475 C71.4815,62.475 71.67125,62.54925 71.80175,62.69775 C71.93225,62.84625 71.9975,63.075 71.9975,63.384 L71.9975,63.384 L71.9975,63.654 C71.4725,63.666 71.033,63.717 70.679,63.807 C70.325,63.897 70.0415,64.01025 69.8285,64.14675 C69.6155,64.28325 69.46325,64.43625 69.37175,64.60575 C69.28025,64.77525 69.2345,64.947 69.2345,65.121 C69.2345,65.328 69.2675,65.5095 69.3335,65.6655 C69.3995,65.8215 69.49175,65.952 69.61025,66.057 C69.72875,66.162 69.8705,66.24075 70.0355,66.29325 C70.2005,66.34575 70.3805,66.372 70.5755,66.372 Z M70.922,65.607 C70.736,65.607 70.58525,65.565 70.46975,65.481 C70.35425,65.397 70.2965,65.2575 70.2965,65.0625 C70.2965,64.9635 70.32425,64.872 70.37975,64.788 C70.43525,64.704 70.529,64.6305 70.661,64.5675 C70.793,64.5045 70.96775,64.45275 71.18525,64.41225 C71.40275,64.37175 71.6735,64.344 71.9975,64.329 L71.9975,64.329 L71.9975,65.1075 C71.9165,65.1915 71.83625,65.26425 71.75675,65.32575 C71.67725,65.38725 71.59475,65.439 71.50925,65.481 C71.42375,65.523 71.333,65.5545 71.237,65.5755 C71.141,65.5965 71.036,65.607 70.922,65.607 Z M74.8725,66.372 C75.1695,66.372 75.43275,66.33375 75.66225,66.25725 C75.89175,66.18075 76.0845,66.07425 76.2405,65.93775 C76.3965,65.80125 76.515,65.63925 76.596,65.45175 C76.677,65.26425 76.7175,65.0595 76.7175,64.8375 C76.7175,64.6515 76.68525,64.4925 76.62075,64.3605 C76.55625,64.2285 76.47075,64.11525 76.36425,64.02075 C76.25775,63.92625 76.137,63.84825 76.002,63.78675 C75.867,63.72525 75.729,63.6705 75.588,63.6225 C75.447,63.5745 75.309,63.53025 75.174,63.48975 C75.039,63.44925 74.91825,63.4035 74.81175,63.3525 C74.70525,63.3015 74.61975,63.24225 74.55525,63.17475 C74.49075,63.10725 74.4585,63.024 74.4585,62.925 C74.4585,62.775 74.5215,62.6535 74.6475,62.5605 C74.7735,62.4675 74.946,62.421 75.165,62.421 C75.306,62.421 75.42825,62.436 75.53175,62.466 C75.63525,62.496 75.7275,62.52975 75.8085,62.56725 C75.8895,62.60475 75.96075,62.6385 76.02225,62.6685 C76.08375,62.6985 76.1415,62.7135 76.1955,62.7135 C76.2465,62.7135 76.2885,62.70375 76.3215,62.68425 C76.3545,62.66475 76.386,62.631 76.416,62.583 L76.416,62.583 L76.668,62.1825 C76.494,62.0115 76.2765,61.8735 76.0155,61.7685 C75.7545,61.6635 75.465,61.611 75.147,61.611 C74.862,61.611 74.61075,61.64925 74.39325,61.72575 C74.17575,61.80225 73.99425,61.90425 73.84875,62.03175 C73.70325,62.15925 73.593,62.3085 73.518,62.4795 C73.443,62.6505 73.4055,62.8305 73.4055,63.0195 C73.4055,63.2235 73.43775,63.3975 73.50225,63.5415 C73.56675,63.6855 73.65225,63.807 73.75875,63.906 C73.86525,64.005 73.98675,64.08675 74.12325,64.15125 C74.25975,64.21575 74.39925,64.272 74.54175,64.32 C74.68425,64.368 74.82375,64.41225 74.96025,64.45275 C75.09675,64.49325 75.21825,64.539 75.32475,64.59 C75.43125,64.641 75.51675,64.701 75.58125,64.77 C75.64575,64.839 75.678,64.9275 75.678,65.0355 C75.678,65.1075 75.66375,65.17725 75.63525,65.24475 C75.60675,65.31225 75.56175,65.3715 75.50025,65.4225 C75.43875,65.4735 75.36075,65.51475 75.26625,65.54625 C75.17175,65.57775 75.0585,65.5935 74.9265,65.5935 C74.7585,65.5935 74.61975,65.574 74.51025,65.535 C74.40075,65.496 74.3055,65.454 74.2245,65.409 C74.1435,65.364 74.07225,65.322 74.01075,65.283 C73.94925,65.244 73.884,65.2245 73.815,65.2245 C73.746,65.2245 73.689,65.238 73.644,65.265 C73.599,65.292 73.56,65.331 73.527,65.382 L73.527,65.382 L73.2705,65.805 C73.3605,65.886 73.46475,65.961 73.58325,66.03 C73.70175,66.099 73.83075,66.159 73.97025,66.21 C74.10975,66.261 74.25525,66.30075 74.40675,66.32925 C74.55825,66.35775 74.7135,66.372 74.8725,66.372 Z M78.625,66.372 C78.85,66.372 79.0675,66.3375 79.2775,66.2685 C79.4875,66.1995 79.6735,66.0975 79.8355,65.9625 L79.8355,65.9625 L79.5025,65.4225 C79.4785,65.3895 79.456,65.36475 79.435,65.34825 C79.414,65.33175 79.387,65.3235 79.354,65.3235 C79.327,65.3235 79.3,65.33175 79.273,65.34825 C79.246,65.36475 79.21525,65.382 79.18075,65.4 C79.14625,65.418 79.10575,65.43525 79.05925,65.45175 C79.01275,65.46825 78.955,65.4765 78.886,65.4765 C78.766,65.4765 78.67,65.436 78.598,65.355 C78.526,65.274 78.49,65.1615 78.49,65.0175 L78.49,65.0175 L78.49,62.5155 L79.705,62.5155 L79.705,61.7235 L78.49,61.7235 L78.49,60.27 L77.914,60.27 C77.848,60.27 77.79325,60.2865 77.74975,60.3195 C77.70625,60.3525 77.6785,60.399 77.6665,60.459 L77.6665,60.459 L77.4325,61.719 L76.69,61.8405 L76.69,62.2815 C76.69,62.3595 76.71175,62.418 76.75525,62.457 C76.79875,62.496 76.8505,62.5155 76.9105,62.5155 L76.9105,62.5155 L77.3785,62.5155 L77.3785,65.094 C77.3785,65.493 77.4865,65.80575 77.7025,66.03225 C77.9185,66.25875 78.226,66.372 78.625,66.372 Z M82.0535,66.3675 C82.2155,66.3675 82.38275,66.3555 82.55525,66.3315 C82.72775,66.3075 82.89725,66.26625 83.06375,66.20775 C83.23025,66.14925 83.39,66.07125 83.543,65.97375 C83.696,65.87625 83.834,65.7555 83.957,65.6115 L83.957,65.6115 L83.633,65.2065 C83.609,65.1735 83.5805,65.148 83.5475,65.13 C83.5145,65.112 83.4755,65.103 83.4305,65.103 C83.3615,65.103 83.29025,65.124 83.21675,65.166 C83.14325,65.208 83.05775,65.2545 82.96025,65.3055 C82.86275,65.3565 82.74875,65.403 82.61825,65.445 C82.48775,65.487 82.3325,65.508 82.1525,65.508 C81.7865,65.508 81.4925,65.397 81.2705,65.175 C81.0485,64.953 80.921,64.605 80.888,64.131 L80.888,64.131 L83.741,64.131 C83.792,64.131 83.834,64.12425 83.867,64.11075 C83.9,64.09725 83.92625,64.07475 83.94575,64.04325 C83.96525,64.01175 83.97875,63.96825 83.98625,63.91275 C83.99375,63.85725 83.9975,63.7875 83.9975,63.7035 C83.9975,63.3705 83.948,63.07425 83.849,62.81475 C83.75,62.55525 83.612,62.33625 83.435,62.15775 C83.258,61.97925 83.04725,61.8435 82.80275,61.7505 C82.55825,61.6575 82.2905,61.611 81.9995,61.611 C81.6545,61.611 81.34475,61.671 81.07025,61.791 C80.79575,61.911 80.56325,62.07375 80.37275,62.27925 C80.18225,62.48475 80.036,62.72625 79.934,63.00375 C79.832,63.28125 79.781,63.5775 79.781,63.8925 C79.781,64.2975 79.8395,64.65375 79.9565,64.96125 C80.0735,65.26875 80.234,65.52675 80.438,65.73525 C80.642,65.94375 80.882,66.10125 81.158,66.20775 C81.434,66.31425 81.7325,66.3675 82.0535,66.3675 Z M82.9985,63.4605 L80.9105,63.4605 C80.9615,63.1245 81.0785,62.865 81.2615,62.682 C81.4445,62.499 81.698,62.4075 82.022,62.4075 C82.187,62.4075 82.331,62.43525 82.454,62.49075 C82.577,62.54625 82.679,62.622 82.76,62.718 C82.841,62.814 82.901,62.92575 82.94,63.05325 C82.979,63.18075 82.9985,63.3165 82.9985,63.4605 L82.9985,63.4605 Z M85.5135,66.3 L85.5135,63.4245 C85.6275,63.1785 85.767,62.99175 85.932,62.86425 C86.097,62.73675 86.295,62.673 86.526,62.673 C86.655,62.673 86.7585,62.6835 86.8365,62.7045 C86.9145,62.7255 86.976,62.736 87.021,62.736 C87.072,62.736 87.1125,62.72475 87.1425,62.70225 C87.1725,62.67975 87.192,62.6415 87.201,62.5875 L87.201,62.5875 L87.345,61.755 C87.195,61.65 87.006,61.5975 86.778,61.5975 C86.502,61.5975 86.253,61.68 86.031,61.845 C85.809,62.01 85.6155,62.235 85.4505,62.52 L85.4505,62.52 L85.383,61.962 C85.368,61.86 85.338,61.788 85.293,61.746 C85.248,61.704 85.1685,61.683 85.0545,61.683 L85.0545,61.683 L84.402,61.683 L84.402,66.3 L85.5135,66.3 Z" id="Send+Master"></path>
            <path d="M32.2995,34.072 C32.6595,34.072 32.979,34.01725 33.258,33.90775 C33.537,33.79825 33.77325,33.64825 33.96675,33.45775 C34.16025,33.26725 34.30725,33.04375 34.40775,32.78725 C34.50825,32.53075 34.5585,32.2555 34.5585,31.9615 C34.5585,31.6915 34.51575,31.462 34.43025,31.273 C34.34475,31.084 34.2315,30.92425 34.0905,30.79375 C33.9495,30.66325 33.789,30.55525 33.609,30.46975 C33.429,30.38425 33.24525,30.30925 33.05775,30.24475 C32.87025,30.18025 32.6865,30.1195 32.5065,30.0625 C32.3265,30.0055 32.166,29.941 32.025,29.869 C31.884,29.797 31.77075,29.71 31.68525,29.608 C31.59975,29.506 31.557,29.3785 31.557,29.2255 C31.557,29.1055 31.578,28.99525 31.62,28.89475 C31.662,28.79425 31.72575,28.708 31.81125,28.636 C31.89675,28.564 32.00175,28.50775 32.12625,28.46725 C32.25075,28.42675 32.397,28.4065 32.565,28.4065 C32.751,28.4065 32.91225,28.42975 33.04875,28.47625 C33.18525,28.52275 33.3045,28.5745 33.4065,28.6315 C33.5085,28.6885 33.597,28.74025 33.672,28.78675 C33.747,28.83325 33.8145,28.8565 33.8745,28.8565 C33.9345,28.8565 33.98625,28.843 34.02975,28.816 C34.07325,28.789 34.1115,28.7425 34.1445,28.6765 L34.1445,28.6765 L34.4415,28.105 C34.2135,27.889 33.9375,27.721 33.6135,27.601 C33.2895,27.481 32.9355,27.421 32.5515,27.421 C32.2125,27.421 31.911,27.4735 31.647,27.5785 C31.383,27.6835 31.16025,27.823 30.97875,27.997 C30.79725,28.171 30.65925,28.3705 30.56475,28.5955 C30.47025,28.8205 30.423,29.0515 30.423,29.2885 C30.423,29.5855 30.46575,29.83525 30.55125,30.03775 C30.63675,30.24025 30.75,30.409 30.891,30.544 C31.032,30.679 31.1925,30.7885 31.3725,30.8725 C31.5525,30.9565 31.7355,31.0285 31.9215,31.0885 C32.1075,31.1485 32.2905,31.204 32.4705,31.255 C32.6505,31.306 32.811,31.36825 32.952,31.44175 C33.093,31.51525 33.20625,31.606 33.29175,31.714 C33.37725,31.822 33.42,31.9615 33.42,32.1325 C33.42,32.4385 33.3255,32.67325 33.1365,32.83675 C32.9475,33.00025 32.6805,33.082 32.3355,33.082 C32.1105,33.082 31.91775,33.05125 31.75725,32.98975 C31.59675,32.92825 31.45725,32.86 31.33875,32.785 C31.22025,32.71 31.1175,32.64175 31.0305,32.58025 C30.9435,32.51875 30.8625,32.488 30.7875,32.488 C30.7305,32.488 30.67875,32.50225 30.63225,32.53075 C30.58575,32.55925 30.546,32.5945 30.513,32.6365 L30.513,32.6365 L30.162,33.217 C30.288,33.346 30.43125,33.463 30.59175,33.568 C30.75225,33.673 30.92475,33.763 31.10925,33.838 C31.29375,33.913 31.4865,33.97075 31.6875,34.01125 C31.8885,34.05175 32.0925,34.072 32.2995,34.072 Z M38.0845,34.0675 C38.2465,34.0675 38.41375,34.0555 38.58625,34.0315 C38.75875,34.0075 38.92825,33.96625 39.09475,33.90775 C39.26125,33.84925 39.421,33.77125 39.574,33.67375 C39.727,33.57625 39.865,33.4555 39.988,33.3115 L39.988,33.3115 L39.664,32.9065 C39.64,32.8735 39.6115,32.848 39.5785,32.83 C39.5455,32.812 39.5065,32.803 39.4615,32.803 C39.3925,32.803 39.32125,32.824 39.24775,32.866 C39.17425,32.908 39.08875,32.9545 38.99125,33.0055 C38.89375,33.0565 38.77975,33.103 38.64925,33.145 C38.51875,33.187 38.3635,33.208 38.1835,33.208 C37.8175,33.208 37.5235,33.097 37.3015,32.875 C37.0795,32.653 36.952,32.305 36.919,31.831 L36.919,31.831 L39.772,31.831 C39.823,31.831 39.865,31.82425 39.898,31.81075 C39.931,31.79725 39.95725,31.77475 39.97675,31.74325 C39.99625,31.71175 40.00975,31.66825 40.01725,31.61275 C40.02475,31.55725 40.0285,31.4875 40.0285,31.4035 C40.0285,31.0705 39.979,30.77425 39.88,30.51475 C39.781,30.25525 39.643,30.03625 39.466,29.85775 C39.289,29.67925 39.07825,29.5435 38.83375,29.4505 C38.58925,29.3575 38.3215,29.311 38.0305,29.311 C37.6855,29.311 37.37575,29.371 37.10125,29.491 C36.82675,29.611 36.59425,29.77375 36.40375,29.97925 C36.21325,30.18475 36.067,30.42625 35.965,30.70375 C35.863,30.98125 35.812,31.2775 35.812,31.5925 C35.812,31.9975 35.8705,32.35375 35.9875,32.66125 C36.1045,32.96875 36.265,33.22675 36.469,33.43525 C36.673,33.64375 36.913,33.80125 37.189,33.90775 C37.465,34.01425 37.7635,34.0675 38.0845,34.0675 Z M39.0295,31.1605 L36.9415,31.1605 C36.9925,30.8245 37.1095,30.565 37.2925,30.382 C37.4755,30.199 37.729,30.1075 38.053,30.1075 C38.218,30.1075 38.362,30.13525 38.485,30.19075 C38.608,30.24625 38.71,30.322 38.791,30.418 C38.872,30.514 38.932,30.62575 38.971,30.75325 C39.01,30.88075 39.0295,31.0165 39.0295,31.1605 L39.0295,31.1605 Z M42.7445,34 L42.7445,30.661 C42.8945,30.511 43.0535,30.3925 43.2215,30.3055 C43.3895,30.2185 43.5695,30.175 43.7615,30.175 C44.0225,30.175 44.21825,30.25225 44.34875,30.40675 C44.47925,30.56125 44.5445,30.7795 44.5445,31.0615 L44.5445,31.0615 L44.5445,34 L45.656,34 L45.656,31.0615 C45.656,30.8035 45.62225,30.56725 45.55475,30.35275 C45.48725,30.13825 45.38825,29.95375 45.25775,29.79925 C45.12725,29.64475 44.9645,29.52475 44.7695,29.43925 C44.5745,29.35375 44.351,29.311 44.099,29.311 C43.943,29.311 43.799,29.326 43.667,29.356 C43.535,29.386 43.41125,29.4295 43.29575,29.4865 C43.18025,29.5435 43.07075,29.611 42.96725,29.689 C42.86375,29.767 42.7655,29.854 42.6725,29.95 L42.6725,29.95 L42.596,29.5855 C42.551,29.4505 42.4565,29.383 42.3125,29.383 L42.3125,29.383 L41.633,29.383 L41.633,34 L42.7445,34 Z M48.84,34.0675 C49.002,34.0675 49.15275,34.05025 49.29225,34.01575 C49.43175,33.98125 49.56225,33.9325 49.68375,33.8695 C49.80525,33.8065 49.9185,33.7315 50.0235,33.6445 C50.1285,33.5575 50.229,33.46 50.325,33.352 L50.325,33.352 L50.415,33.7975 C50.46,33.9325 50.5545,34 50.6985,34 L50.6985,34 L51.378,34 L51.378,27.313 L50.2665,27.313 L50.2665,29.752 C50.1225,29.614 49.959,29.50375 49.776,29.42125 C49.593,29.33875 49.3725,29.2975 49.1145,29.2975 C48.8115,29.2975 48.5385,29.35825 48.2955,29.47975 C48.0525,29.60125 47.844,29.77 47.67,29.986 C47.496,30.202 47.3625,30.457 47.2695,30.751 C47.1765,31.045 47.13,31.363 47.13,31.705 C47.13,32.083 47.17125,32.419 47.25375,32.713 C47.33625,33.007 47.45325,33.25375 47.60475,33.45325 C47.75625,33.65275 47.937,33.805 48.147,33.91 C48.357,34.015 48.588,34.0675 48.84,34.0675 Z M49.218,33.1855 C49.074,33.1855 48.9435,33.15925 48.8265,33.10675 C48.7095,33.05425 48.6105,32.96875 48.5295,32.85025 C48.4485,32.73175 48.38625,32.57875 48.34275,32.39125 C48.29925,32.20375 48.2775,31.975 48.2775,31.705 C48.2775,31.438 48.303,31.20625 48.354,31.00975 C48.405,30.81325 48.47775,30.65125 48.57225,30.52375 C48.66675,30.39625 48.78225,30.301 48.91875,30.238 C49.05525,30.175 49.2075,30.1435 49.3755,30.1435 C49.5465,30.1435 49.70625,30.175 49.85475,30.238 C50.00325,30.301 50.1405,30.409 50.2665,30.562 L50.2665,30.562 L50.2665,32.632 C50.1225,32.809 49.9695,32.9455 49.8075,33.0415 C49.6455,33.1375 49.449,33.1855 49.218,33.1855 Z" id="Send"></path>
        </g>
    </g>
</svg>