<svg width="47" height="20" viewBox="0 0 47 20" fill="none" xmlns="http://www.w3.org/2000/svg">
<rect x="1.5" y="1" width="44" height="8" rx="1" fill="#399DFF"/>
<rect x="1.5" y="1" width="44" height="8" rx="1" stroke="#399DFF"/>
<path d="M4.78131 5.032H4.99731C5.19731 5.032 5.34131 4.96933 5.42931 4.844L6.74131 2.94C6.81865 2.83867 6.90131 2.76933 6.98931 2.732C7.07998 2.692 7.19198 2.672 7.32531 2.672H8.50131L6.77331 5.028C6.65065 5.19067 6.51865 5.308 6.37731 5.38C6.47865 5.41733 6.57065 5.46933 6.65331 5.536C6.73598 5.60267 6.81331 5.68933 6.88531 5.796L8.64531 8.5H7.43731C7.35998 8.5 7.29331 8.49467 7.23731 8.484C7.18398 8.47333 7.13731 8.45733 7.09731 8.436C7.05731 8.41467 7.02265 8.38933 6.99331 8.36C6.96398 8.328 6.93598 8.292 6.90931 8.252L5.58931 6.224C5.54131 6.14933 5.47998 6.09733 5.40531 6.068C5.33331 6.036 5.23465 6.02 5.10931 6.02H4.78131V8.5H3.42931V2.672H4.78131V5.032ZM10.3178 3.712V5.072H12.1498V6.072H10.3178V7.46H12.7098V8.5H8.95775V2.672H12.7098V3.712H10.3178ZM16.2157 6.284V8.5H14.8637V6.284L12.7517 2.672H13.9437C14.061 2.672 14.153 2.7 14.2197 2.756C14.289 2.80933 14.3464 2.87867 14.3917 2.964L15.2157 4.66C15.285 4.79333 15.3477 4.91867 15.4037 5.036C15.4597 5.15067 15.509 5.264 15.5517 5.376C15.5917 5.26133 15.637 5.14667 15.6877 5.032C15.741 4.91467 15.8024 4.79067 15.8717 4.66L16.6877 2.964C16.7064 2.92933 16.729 2.89467 16.7557 2.86C16.7824 2.82533 16.813 2.79467 16.8477 2.768C16.885 2.73867 16.9264 2.716 16.9717 2.7C17.0197 2.68133 17.0717 2.672 17.1277 2.672H18.3277L16.2157 6.284ZM22.8511 3.744H21.2111V8.5H19.8591V3.744H18.2191V2.672H22.8511V3.744ZM25.3141 5.412C25.4981 5.412 25.6541 5.38933 25.7821 5.344C25.9127 5.296 26.0194 5.23067 26.1021 5.148C26.1847 5.06533 26.2447 4.96933 26.2821 4.86C26.3194 4.748 26.3381 4.628 26.3381 4.5C26.3381 4.244 26.2541 4.044 26.0861 3.9C25.9207 3.756 25.6634 3.684 25.3141 3.684H24.7701V5.412H25.3141ZM28.1861 8.5H26.9621C26.7354 8.5 26.5727 8.41467 26.4741 8.244L25.5061 6.552C25.4607 6.48 25.4101 6.428 25.3541 6.396C25.2981 6.36133 25.2181 6.344 25.1141 6.344H24.7701V8.5H23.4181V2.672H25.3141C25.7354 2.672 26.0941 2.716 26.3901 2.804C26.6887 2.88933 26.9314 3.00933 27.1181 3.164C27.3074 3.31867 27.4447 3.50133 27.5301 3.712C27.6154 3.92267 27.6581 4.152 27.6581 4.4C27.6581 4.58933 27.6327 4.768 27.5821 4.936C27.5314 5.104 27.4567 5.26 27.3581 5.404C27.2594 5.54533 27.1367 5.672 26.9901 5.784C26.8461 5.896 26.6794 5.988 26.4901 6.06C26.5781 6.10533 26.6607 6.16267 26.7381 6.232C26.8154 6.29867 26.8847 6.37867 26.9461 6.472L28.1861 8.5ZM31.6359 6.272L31.0959 4.676C31.0559 4.57467 31.0132 4.456 30.9679 4.32C30.9225 4.18133 30.8772 4.032 30.8319 3.872C30.7919 4.03467 30.7492 4.18533 30.7039 4.324C30.6585 4.46267 30.6159 4.58267 30.5759 4.684L30.0399 6.272H31.6359ZM33.7839 8.5H32.7359C32.6185 8.5 32.5239 8.47333 32.4519 8.42C32.3799 8.364 32.3252 8.29333 32.2879 8.208L31.9439 7.192H29.7279L29.3839 8.208C29.3545 8.28267 29.3012 8.35067 29.2239 8.412C29.1492 8.47067 29.0559 8.5 28.9439 8.5H27.8879L30.1439 2.672H31.5279L33.7839 8.5ZM37.8561 6.992C37.8881 6.992 37.9201 6.99867 37.9521 7.012C37.9841 7.02267 38.0147 7.04267 38.0441 7.072L38.5801 7.636C38.3454 7.94267 38.0507 8.17467 37.6961 8.332C37.3441 8.48667 36.9267 8.564 36.4441 8.564C36.0014 8.564 35.6041 8.48933 35.2521 8.34C34.9027 8.188 34.6054 7.98 34.3601 7.716C34.1174 7.44933 33.9307 7.13467 33.8001 6.772C33.6694 6.40667 33.6041 6.01067 33.6041 5.584C33.6041 5.14933 33.6747 4.75067 33.8161 4.388C33.9574 4.02267 34.1561 3.708 34.4121 3.444C34.6681 3.18 34.9747 2.97467 35.3321 2.828C35.6894 2.68133 36.0827 2.608 36.5121 2.608C36.7307 2.608 36.9361 2.628 37.1281 2.668C37.3227 2.70533 37.5041 2.75867 37.6721 2.828C37.8401 2.89467 37.9947 2.976 38.1361 3.072C38.2774 3.168 38.4027 3.272 38.5121 3.384L38.0561 3.996C38.0267 4.03333 37.9921 4.068 37.9521 4.1C37.9121 4.12933 37.8561 4.144 37.7841 4.144C37.7361 4.144 37.6907 4.13333 37.6481 4.112C37.6054 4.09067 37.5601 4.06533 37.5121 4.036C37.4641 4.004 37.4107 3.97067 37.3521 3.936C37.2961 3.89867 37.2281 3.86533 37.1481 3.836C37.0707 3.804 36.9787 3.77733 36.8721 3.756C36.7681 3.73467 36.6454 3.724 36.5041 3.724C36.2801 3.724 36.0747 3.76533 35.8881 3.848C35.7041 3.93067 35.5441 4.052 35.4081 4.212C35.2747 4.36933 35.1707 4.564 35.0961 4.796C35.0241 5.02533 34.9881 5.288 34.9881 5.584C34.9881 5.88267 35.0281 6.148 35.1081 6.38C35.1907 6.612 35.3014 6.808 35.4401 6.968C35.5814 7.12533 35.7454 7.24533 35.9321 7.328C36.1187 7.41067 36.3187 7.452 36.5321 7.452C36.6547 7.452 36.7667 7.44667 36.8681 7.436C36.9694 7.42267 37.0641 7.40267 37.1521 7.376C37.2401 7.34667 37.3227 7.30933 37.4001 7.264C37.4774 7.216 37.5561 7.156 37.6361 7.084C37.6681 7.05733 37.7027 7.036 37.7401 7.02C37.7774 7.00133 37.8161 6.992 37.8561 6.992ZM40.4023 5.032H40.6183C40.8183 5.032 40.9623 4.96933 41.0503 4.844L42.3623 2.94C42.4396 2.83867 42.5223 2.76933 42.6103 2.732C42.7009 2.692 42.8129 2.672 42.9463 2.672H44.1223L42.3943 5.028C42.2716 5.19067 42.1396 5.308 41.9983 5.38C42.0996 5.41733 42.1916 5.46933 42.2743 5.536C42.3569 5.60267 42.4343 5.68933 42.5063 5.796L44.2663 8.5H43.0583C42.9809 8.5 42.9143 8.49467 42.8583 8.484C42.8049 8.47333 42.7583 8.45733 42.7183 8.436C42.6783 8.41467 42.6436 8.38933 42.6143 8.36C42.5849 8.328 42.5569 8.292 42.5303 8.252L41.2103 6.224C41.1623 6.14933 41.1009 6.09733 41.0263 6.068C40.9543 6.036 40.8556 6.02 40.7303 6.02H40.4023V8.5H39.0503V2.672H40.4023V5.032Z" fill="white"/>
<rect x="1.5" y="11" width="44" height="8" rx="1" fill="#FF9300"/>
<rect x="1.5" y="11" width="44" height="8" rx="1" stroke="white"/>
<path d="M4.78131 15.032H4.99731C5.19731 15.032 5.34131 14.9693 5.42931 14.844L6.74131 12.94C6.81865 12.8387 6.90131 12.7693 6.98931 12.732C7.07998 12.692 7.19198 12.672 7.32531 12.672H8.50131L6.77331 15.028C6.65065 15.1907 6.51865 15.308 6.37731 15.38C6.47865 15.4173 6.57065 15.4693 6.65331 15.536C6.73598 15.6027 6.81331 15.6893 6.88531 15.796L8.64531 18.5H7.43731C7.35998 18.5 7.29331 18.4947 7.23731 18.484C7.18398 18.4733 7.13731 18.4573 7.09731 18.436C7.05731 18.4147 7.02265 18.3893 6.99331 18.36C6.96398 18.328 6.93598 18.292 6.90931 18.252L5.58931 16.224C5.54131 16.1493 5.47998 16.0973 5.40531 16.068C5.33331 16.036 5.23465 16.02 5.10931 16.02H4.78131V18.5H3.42931V12.672H4.78131V15.032ZM10.3178 13.712V15.072H12.1498V16.072H10.3178V17.46H12.7098V18.5H8.95775V12.672H12.7098V13.712H10.3178ZM16.2157 16.284V18.5H14.8637V16.284L12.7517 12.672H13.9437C14.061 12.672 14.153 12.7 14.2197 12.756C14.289 12.8093 14.3464 12.8787 14.3917 12.964L15.2157 14.66C15.285 14.7933 15.3477 14.9187 15.4037 15.036C15.4597 15.1507 15.509 15.264 15.5517 15.376C15.5917 15.2613 15.637 15.1467 15.6877 15.032C15.741 14.9147 15.8024 14.7907 15.8717 14.66L16.6877 12.964C16.7064 12.9293 16.729 12.8947 16.7557 12.86C16.7824 12.8253 16.813 12.7947 16.8477 12.768C16.885 12.7387 16.9264 12.716 16.9717 12.7C17.0197 12.6813 17.0717 12.672 17.1277 12.672H18.3277L16.2157 16.284ZM22.8511 13.744H21.2111V18.5H19.8591V13.744H18.2191V12.672H22.8511V13.744ZM25.3141 15.412C25.4981 15.412 25.6541 15.3893 25.7821 15.344C25.9127 15.296 26.0194 15.2307 26.1021 15.148C26.1847 15.0653 26.2447 14.9693 26.2821 14.86C26.3194 14.748 26.3381 14.628 26.3381 14.5C26.3381 14.244 26.2541 14.044 26.0861 13.9C25.9207 13.756 25.6634 13.684 25.3141 13.684H24.7701V15.412H25.3141ZM28.1861 18.5H26.9621C26.7354 18.5 26.5727 18.4147 26.4741 18.244L25.5061 16.552C25.4607 16.48 25.4101 16.428 25.3541 16.396C25.2981 16.3613 25.2181 16.344 25.1141 16.344H24.7701V18.5H23.4181V12.672H25.3141C25.7354 12.672 26.0941 12.716 26.3901 12.804C26.6887 12.8893 26.9314 13.0093 27.1181 13.164C27.3074 13.3187 27.4447 13.5013 27.5301 13.712C27.6154 13.9227 27.6581 14.152 27.6581 14.4C27.6581 14.5893 27.6327 14.768 27.5821 14.936C27.5314 15.104 27.4567 15.26 27.3581 15.404C27.2594 15.5453 27.1367 15.672 26.9901 15.784C26.8461 15.896 26.6794 15.988 26.4901 16.06C26.5781 16.1053 26.6607 16.1627 26.7381 16.232C26.8154 16.2987 26.8847 16.3787 26.9461 16.472L28.1861 18.5ZM31.6359 16.272L31.0959 14.676C31.0559 14.5747 31.0132 14.456 30.9679 14.32C30.9225 14.1813 30.8772 14.032 30.8319 13.872C30.7919 14.0347 30.7492 14.1853 30.7039 14.324C30.6585 14.4627 30.6159 14.5827 30.5759 14.684L30.0399 16.272H31.6359ZM33.7839 18.5H32.7359C32.6185 18.5 32.5239 18.4733 32.4519 18.42C32.3799 18.364 32.3252 18.2933 32.2879 18.208L31.9439 17.192H29.7279L29.3839 18.208C29.3545 18.2827 29.3012 18.3507 29.2239 18.412C29.1492 18.4707 29.0559 18.5 28.9439 18.5H27.8879L30.1439 12.672H31.5279L33.7839 18.5ZM37.8561 16.992C37.8881 16.992 37.9201 16.9987 37.9521 17.012C37.9841 17.0227 38.0147 17.0427 38.0441 17.072L38.5801 17.636C38.3454 17.9427 38.0507 18.1747 37.6961 18.332C37.3441 18.4867 36.9267 18.564 36.4441 18.564C36.0014 18.564 35.6041 18.4893 35.2521 18.34C34.9027 18.188 34.6054 17.98 34.3601 17.716C34.1174 17.4493 33.9307 17.1347 33.8001 16.772C33.6694 16.4067 33.6041 16.0107 33.6041 15.584C33.6041 15.1493 33.6747 14.7507 33.8161 14.388C33.9574 14.0227 34.1561 13.708 34.4121 13.444C34.6681 13.18 34.9747 12.9747 35.3321 12.828C35.6894 12.6813 36.0827 12.608 36.5121 12.608C36.7307 12.608 36.9361 12.628 37.1281 12.668C37.3227 12.7053 37.5041 12.7587 37.6721 12.828C37.8401 12.8947 37.9947 12.976 38.1361 13.072C38.2774 13.168 38.4027 13.272 38.5121 13.384L38.0561 13.996C38.0267 14.0333 37.9921 14.068 37.9521 14.1C37.9121 14.1293 37.8561 14.144 37.7841 14.144C37.7361 14.144 37.6907 14.1333 37.6481 14.112C37.6054 14.0907 37.5601 14.0653 37.5121 14.036C37.4641 14.004 37.4107 13.9707 37.3521 13.936C37.2961 13.8987 37.2281 13.8653 37.1481 13.836C37.0707 13.804 36.9787 13.7773 36.8721 13.756C36.7681 13.7347 36.6454 13.724 36.5041 13.724C36.2801 13.724 36.0747 13.7653 35.8881 13.848C35.7041 13.9307 35.5441 14.052 35.4081 14.212C35.2747 14.3693 35.1707 14.564 35.0961 14.796C35.0241 15.0253 34.9881 15.288 34.9881 15.584C34.9881 15.8827 35.0281 16.148 35.1081 16.38C35.1907 16.612 35.3014 16.808 35.4401 16.968C35.5814 17.1253 35.7454 17.2453 35.9321 17.328C36.1187 17.4107 36.3187 17.452 36.5321 17.452C36.6547 17.452 36.7667 17.4467 36.8681 17.436C36.9694 17.4227 37.0641 17.4027 37.1521 17.376C37.2401 17.3467 37.3227 17.3093 37.4001 17.264C37.4774 17.216 37.5561 17.156 37.6361 17.084C37.6681 17.0573 37.7027 17.036 37.7401 17.02C37.7774 17.0013 37.8161 16.992 37.8561 16.992ZM40.4023 15.032H40.6183C40.8183 15.032 40.9623 14.9693 41.0503 14.844L42.3623 12.94C42.4396 12.8387 42.5223 12.7693 42.6103 12.732C42.7009 12.692 42.8129 12.672 42.9463 12.672H44.1223L42.3943 15.028C42.2716 15.1907 42.1396 15.308 41.9983 15.38C42.0996 15.4173 42.1916 15.4693 42.2743 15.536C42.3569 15.6027 42.4343 15.6893 42.5063 15.796L44.2663 18.5H43.0583C42.9809 18.5 42.9143 18.4947 42.8583 18.484C42.8049 18.4733 42.7583 18.4573 42.7183 18.436C42.6783 18.4147 42.6436 18.3893 42.6143 18.36C42.5849 18.328 42.5569 18.292 42.5303 18.252L41.2103 16.224C41.1623 16.1493 41.1009 16.0973 41.0263 16.068C40.9543 16.036 40.8556 16.02 40.7303 16.02H40.4023V18.5H39.0503V12.672H40.4023V15.032Z" fill="black"/>
</svg>
