<?xml version="1.0" encoding="UTF-8"?>
<svg width="28px" height="282px" viewBox="0 0 28 282" version="1.1" xmlns="http://www.w3.org/2000/svg" xmlns:xlink="http://www.w3.org/1999/xlink">
    <title>hoverOn00120</title>
    <g id="hoverOn00120" stroke="none" stroke-width="1" fill="none" fill-rule="evenodd">
        <g id="Group-6" transform="translate(0.000000, 220.000000)">
            <rect id="Rectangle" stroke="#FFFFFF" fill="#FF9000" x="1.5" y="0.5" width="25" height="6" rx="1"></rect>
            <g id="Group-5" transform="translate(0.000000, 8.000000)"></g>
            <rect id="Rectangle" stroke="#FFFFFF" fill="#FF9000" x="1.5" y="55.5" width="25" height="6" rx="1"></rect>
        </g>
        <g id="Group-6">
            <rect id="Rectangle" stroke="#FFFFFF" fill="#FF9000" x="1.5" y="0.5" width="25" height="6" rx="1"></rect>
            <g id="Group-2" transform="translate(0.000000, 8.000000)"></g>
            <g id="Group-5" transform="translate(0.000000, 8.000000)"></g>
        </g>
        <g id="Group-6" transform="translate(0.000000, 55.000000)" fill="#FF9000" stroke="#FFFFFF">
            <rect id="Rectangle" x="1.5" y="0.5" width="25" height="6" rx="1"></rect>
            <rect id="Rectangle" x="1.5" y="55.5" width="25" height="6" rx="1"></rect>
        </g>
        <g id="Group-6" transform="translate(0.000000, 118.000000)">
            <rect id="Rectangle" stroke="#FFFFFF" fill="#FF9000" x="1.5" y="47.5" width="25" height="6" rx="1"></rect>
            <g id="Group-5" transform="translate(0.000000, 8.000000)"></g>
        </g>
        <g id="Group-9" transform="translate(4.000000, 1.000000)"></g>
        <g id="Group-9" transform="translate(4.000000, 56.000000)"></g>
        <g id="Group-9" transform="translate(4.000000, 95.000000)"></g>
        <g id="Group-9" transform="translate(4.000000, 142.000000)"></g>
        <g id="Group-9" transform="translate(4.000000, 189.000000)"></g>
        <g id="Group-9" transform="translate(4.000000, 236.000000)">
            <g id="Group-11"></g>
        </g>
        <g id="Stacked-Group-2-Copy" transform="translate(3.000000, 0.000000)" fill="#000000" fill-rule="nonzero">
            <g id="Stacked-Group-2" transform="translate(4.000000, 0.000000)">
                <path d="M3.07475,6.056 C3.45741667,6.056 3.80625,5.99125 4.12125,5.86175 C4.43625,5.73225 4.70575,5.552 4.92975,5.321 C5.15375,5.09 5.32758333,4.81641667 5.45125,4.50025 C5.57491667,4.18408333 5.63675,3.8405 5.63675,3.4695 C5.63675,3.0985 5.57491667,2.75491667 5.45125,2.43875 C5.32758333,2.12258333 5.15375,1.84958333 4.92975,1.61975 C4.70575,1.38991667 4.43625,1.20966667 4.12125,1.079 C3.80625,0.948333333 3.45741667,0.883 3.07475,0.883 C2.69208333,0.883 2.34266667,0.94775 2.0265,1.07725 C1.71033333,1.20675 1.43966667,1.387 1.2145,1.618 C0.989333333,1.849 0.814916667,2.12258333 0.69125,2.43875 C0.567583333,2.75491667 0.50575,3.0985 0.50575,3.4695 C0.50575,3.8405 0.567583333,4.18408333 0.69125,4.50025 C0.814916667,4.81641667 0.989333333,5.09 1.2145,5.321 C1.43966667,5.552 1.71033333,5.73225 2.0265,5.86175 C2.34266667,5.99125 2.69208333,6.056 3.07475,6.056 Z M3.07475,5.251 C2.82741667,5.251 2.60458333,5.21016667 2.40625,5.1285 C2.20791667,5.04683333 2.03933333,4.92958333 1.9005,4.77675 C1.76166667,4.62391667 1.65491667,4.43725 1.58025,4.21675 C1.50558333,3.99625 1.46825,3.74716667 1.46825,3.4695 C1.46825,3.19183333 1.50558333,2.94275 1.58025,2.72225 C1.65491667,2.50175 1.76166667,2.3145 1.9005,2.1605 C2.03933333,2.0065 2.20791667,1.88866667 2.40625,1.807 C2.60458333,1.72533333 2.82741667,1.6845 3.07475,1.6845 C3.32208333,1.6845 3.54433333,1.72533333 3.7415,1.807 C3.93866667,1.88866667 4.10608333,2.0065 4.24375,2.1605 C4.38141667,2.3145 4.487,2.50175 4.5605,2.72225 C4.634,2.94275 4.67075,3.19183333 4.67075,3.4695 C4.67075,3.74716667 4.634,3.99625 4.5605,4.21675 C4.487,4.43725 4.38141667,4.62391667 4.24375,4.77675 C4.10608333,4.92958333 3.93866667,5.04683333 3.7415,5.1285 C3.54433333,5.21016667 3.32208333,5.251 3.07475,5.251 Z M7.32725,6 L7.32725,3.9385 L9.22075,3.9385 L9.22075,3.186 L7.32725,3.186 L7.32725,1.688 L9.57075,1.688 L9.57075,0.939 L6.37875,0.939 L6.37875,6 L7.32725,6 Z M11.25775,6 L11.25775,3.9385 L13.15125,3.9385 L13.15125,3.186 L11.25775,3.186 L11.25775,1.688 L13.50125,1.688 L13.50125,0.939 L10.30925,0.939 L10.30925,6 L11.25775,6 Z" id="OFF"></path>
            </g>
            <g id="Stacked-Group-2" transform="translate(2.000000, 55.000000)">
                <path d="M2.06475,6.056 C2.34475,6.056 2.59325,6.01341667 2.81025,5.92825 C3.02725,5.84308333 3.211,5.72641667 3.3615,5.57825 C3.512,5.43008333 3.62633333,5.25625 3.7045,5.05675 C3.78266667,4.85725 3.82175,4.64316667 3.82175,4.4145 C3.82175,4.2045 3.7885,4.026 3.722,3.879 C3.6555,3.732 3.56741667,3.60775 3.45775,3.50625 C3.34808333,3.40475 3.22325,3.32075 3.08325,3.25425 C2.94325,3.18775 2.80033333,3.12941667 2.6545,3.07925 C2.50866667,3.02908333 2.36575,2.98183333 2.22575,2.9375 C2.08575,2.89316667 1.96091667,2.843 1.85125,2.787 C1.74158333,2.731 1.6535,2.66333333 1.587,2.584 C1.5205,2.50466667 1.48725,2.4055 1.48725,2.2865 C1.48725,2.19316667 1.50358333,2.10741667 1.53625,2.02925 C1.56891667,1.95108333 1.6185,1.884 1.685,1.828 C1.7515,1.772 1.83316667,1.72825 1.93,1.69675 C2.02683333,1.66525 2.14058333,1.6495 2.27125,1.6495 C2.41591667,1.6495 2.54133333,1.66758333 2.6475,1.70375 C2.75366667,1.73991667 2.84641667,1.78016667 2.92575,1.8245 C3.00508333,1.86883333 3.07391667,1.90908333 3.13225,1.94525 C3.19058333,1.98141667 3.24308333,1.9995 3.28975,1.9995 C3.33641667,1.9995 3.37666667,1.989 3.4105,1.968 C3.44433333,1.947 3.47408333,1.91083333 3.49975,1.8595 L3.49975,1.8595 L3.73075,1.415 C3.55341667,1.247 3.33875,1.11633333 3.08675,1.023 C2.83475,0.929666667 2.55941667,0.883 2.26075,0.883 C1.99708333,0.883 1.76258333,0.923833333 1.55725,1.0055 C1.35191667,1.08716667 1.17866667,1.19566667 1.0375,1.331 C0.896333333,1.46633333 0.789,1.6215 0.7155,1.7965 C0.642,1.9715 0.60525,2.15116667 0.60525,2.3355 C0.60525,2.5665 0.6385,2.76075 0.705,2.91825 C0.7715,3.07575 0.859583333,3.207 0.96925,3.312 C1.07891667,3.417 1.20375,3.50216667 1.34375,3.5675 C1.48375,3.63283333 1.62608333,3.68883333 1.77075,3.7355 C1.91541667,3.78216667 2.05775,3.82533333 2.19775,3.865 C2.33775,3.90466667 2.46258333,3.95308333 2.57225,4.01025 C2.68191667,4.06741667 2.77,4.138 2.8365,4.222 C2.903,4.306 2.93625,4.4145 2.93625,4.5475 C2.93625,4.7855 2.86275,4.96808333 2.71575,5.09525 C2.56875,5.22241667 2.36108333,5.286 2.09275,5.286 C1.91775,5.286 1.76783333,5.26208333 1.643,5.21425 C1.51816667,5.16641667 1.40966667,5.11333333 1.3175,5.055 C1.22533333,4.99666667 1.14541667,4.94358333 1.07775,4.89575 C1.01008333,4.84791667 0.947083333,4.824 0.88875,4.824 C0.844416667,4.824 0.804166667,4.83508333 0.768,4.85725 C0.731833333,4.87941667 0.700916667,4.90683333 0.67525,4.9395 L0.67525,4.9395 L0.40225,5.391 C0.50025,5.49133333 0.611666667,5.58233333 0.7365,5.664 C0.861333333,5.74566667 0.9955,5.81566667 1.139,5.874 C1.2825,5.93233333 1.43241667,5.97725 1.58875,6.00875 C1.74508333,6.04025 1.90375,6.056 2.06475,6.056 Z M6.83525,6.056 C7.21791667,6.056 7.56675,5.99125 7.88175,5.86175 C8.19675,5.73225 8.46625,5.552 8.69025,5.321 C8.91425,5.09 9.08808333,4.81641667 9.21175,4.50025 C9.33541667,4.18408333 9.39725,3.8405 9.39725,3.4695 C9.39725,3.0985 9.33541667,2.75491667 9.21175,2.43875 C9.08808333,2.12258333 8.91425,1.84958333 8.69025,1.61975 C8.46625,1.38991667 8.19675,1.20966667 7.88175,1.079 C7.56675,0.948333333 7.21791667,0.883 6.83525,0.883 C6.45258333,0.883 6.10316667,0.94775 5.787,1.07725 C5.47083333,1.20675 5.20016667,1.387 4.975,1.618 C4.74983333,1.849 4.57541667,2.12258333 4.45175,2.43875 C4.32808333,2.75491667 4.26625,3.0985 4.26625,3.4695 C4.26625,3.8405 4.32808333,4.18408333 4.45175,4.50025 C4.57541667,4.81641667 4.74983333,5.09 4.975,5.321 C5.20016667,5.552 5.47083333,5.73225 5.787,5.86175 C6.10316667,5.99125 6.45258333,6.056 6.83525,6.056 Z M6.83525,5.251 C6.58791667,5.251 6.36508333,5.21016667 6.16675,5.1285 C5.96841667,5.04683333 5.79983333,4.92958333 5.661,4.77675 C5.52216667,4.62391667 5.41541667,4.43725 5.34075,4.21675 C5.26608333,3.99625 5.22875,3.74716667 5.22875,3.4695 C5.22875,3.19183333 5.26608333,2.94275 5.34075,2.72225 C5.41541667,2.50175 5.52216667,2.3145 5.661,2.1605 C5.79983333,2.0065 5.96841667,1.88866667 6.16675,1.807 C6.36508333,1.72533333 6.58791667,1.6845 6.83525,1.6845 C7.08258333,1.6845 7.30483333,1.72533333 7.502,1.807 C7.69916667,1.88866667 7.86658333,2.0065 8.00425,2.1605 C8.14191667,2.3145 8.2475,2.50175 8.321,2.72225 C8.3945,2.94275 8.43125,3.19183333 8.43125,3.4695 C8.43125,3.74716667 8.3945,3.99625 8.321,4.21675 C8.2475,4.43725 8.14191667,4.62391667 8.00425,4.77675 C7.86658333,4.92958333 7.69916667,5.04683333 7.502,5.1285 C7.30483333,5.21016667 7.08258333,5.251 6.83525,5.251 Z M11.08775,6 L11.08775,3.9385 L12.98125,3.9385 L12.98125,3.186 L11.08775,3.186 L11.08775,1.688 L13.33125,1.688 L13.33125,0.939 L10.13925,0.939 L10.13925,6 L11.08775,6 Z M16.11375,6 L16.11375,1.7125 L17.63625,1.7125 L17.63625,0.939 L13.64275,0.939 L13.64275,1.7125 L15.17225,1.7125 L15.17225,6 L16.11375,6 Z" id="SOFT"></path>
            </g>
            <g id="Stacked-Group-2" transform="translate(0.000000, 110.000000)">
                <path d="M1.91975,6 L1.91975,3.788 L4.29275,3.788 L4.29275,6 L5.24125,6 L5.24125,0.939 L4.29275,0.939 L4.29275,3.116 L1.91975,3.116 L1.91975,0.939 L0.97125,0.939 L0.97125,6 L1.91975,6 Z M6.50475,6 C6.58408333,6 6.65116667,5.97783333 6.706,5.9335 C6.76083333,5.88916667 6.79758333,5.84016667 6.81625,5.7865 L6.81625,5.7865 L7.19425,4.754 L9.29075,4.754 L9.66875,5.7865 C9.69208333,5.84716667 9.73,5.89791667 9.7825,5.93875 C9.835,5.97958333 9.90208333,6 9.98375,6 L9.98375,6 L10.71175,6 L8.72375,0.939 L7.76125,0.939 L5.77325,6 L6.50475,6 Z M9.04925,4.089 L7.43575,4.089 L8.05175,2.4125 C8.08208333,2.3355 8.113,2.24566667 8.1445,2.143 C8.176,2.04033333 8.20808333,1.9295 8.24075,1.8105 C8.27341667,1.9295 8.30666667,2.03975 8.3405,2.14125 C8.37433333,2.24275 8.40525,2.33083333 8.43325,2.4055 L8.43325,2.4055 L9.04925,4.089 Z M12.20625,6 L12.20625,4.0225 L12.60875,4.0225 C12.7020833,4.0225 12.7726667,4.03533333 12.8205,4.061 C12.8683333,4.08666667 12.9120833,4.12983333 12.95175,4.1905 L12.95175,4.1905 L14.01575,5.811 C14.0554167,5.87166667 14.1038333,5.91833333 14.161,5.951 C14.2181667,5.98366667 14.2875833,6 14.36925,6 L14.36925,6 L15.21625,6 L13.94925,4.131 C13.8629167,4.005 13.76025,3.90816667 13.64125,3.8405 C13.8185833,3.7845 13.9766667,3.70983333 14.1155,3.6165 C14.2543333,3.52316667 14.371,3.41466667 14.4655,3.291 C14.56,3.16733333 14.6323333,3.02966667 14.6825,2.878 C14.7326667,2.72633333 14.75775,2.56533333 14.75775,2.395 C14.75775,2.18033333 14.721,1.98375 14.6475,1.80525 C14.574,1.62675 14.4585,1.47333333 14.301,1.345 C14.1435,1.21666667 13.9416667,1.11691667 13.6955,1.04575 C13.4493333,0.974583333 13.1535833,0.939 12.80825,0.939 L12.80825,0.939 L11.26475,0.939 L11.26475,6 L12.20625,6 Z M12.79425,3.347 L12.20625,3.347 L12.20625,1.667 L12.80825,1.667 C13.1559167,1.667 13.4143333,1.73583333 13.5835,1.8735 C13.7526667,2.01116667 13.83725,2.20833333 13.83725,2.465 C13.83725,2.59333333 13.81625,2.71116667 13.77425,2.8185 C13.73225,2.92583333 13.6686667,3.01858333 13.5835,3.09675 C13.4983333,3.17491667 13.3898333,3.23616667 13.258,3.2805 C13.1261667,3.32483333 12.9715833,3.347 12.79425,3.347 L12.79425,3.347 Z M17.75025,6 C18.1329167,6 18.48175,5.93816667 18.79675,5.8145 C19.11175,5.69083333 19.38125,5.517 19.60525,5.293 C19.82925,5.069 20.0030833,4.80183333 20.12675,4.4915 C20.2504167,4.18116667 20.31225,3.8405 20.31225,3.4695 C20.31225,3.0985 20.2504167,2.75783333 20.12675,2.4475 C20.0030833,2.13716667 19.82925,1.87058333 19.60525,1.64775 C19.38125,1.42491667 19.11175,1.25108333 18.79675,1.12625 C18.48175,1.00141667 18.1329167,0.939 17.75025,0.939 L17.75025,0.939 L15.81825,0.939 L15.81825,6 L17.75025,6 Z M17.75025,5.251 L16.76675,5.251 L16.76675,1.688 L17.75025,1.688 C17.9975833,1.688 18.2198333,1.72883333 18.417,1.8105 C18.6141667,1.89216667 18.7815833,2.00941667 18.91925,2.16225 C19.0569167,2.31508333 19.1630833,2.50175 19.23775,2.72225 C19.3124167,2.94275 19.34975,3.19183333 19.34975,3.4695 C19.34975,3.74716667 19.3124167,3.99625 19.23775,4.21675 C19.1630833,4.43725 19.0569167,4.62391667 18.91925,4.77675 C18.7815833,4.92958333 18.6141667,5.04683333 18.417,5.1285 C18.2198333,5.21016667 17.9975833,5.251 17.75025,5.251 L17.75025,5.251 Z" id="HARD"></path>
            </g>
            <g id="Stacked-Group-2" transform="translate(0.000000, 165.000000)">
                <path d="M0.844,6 C0.923333333,6 0.990416667,5.97783333 1.04525,5.9335 C1.10008333,5.88916667 1.13683333,5.84016667 1.1555,5.7865 L1.1555,5.7865 L1.5335,4.754 L3.63,4.754 L4.008,5.7865 C4.03133333,5.84716667 4.06925,5.89791667 4.12175,5.93875 C4.17425,5.97958333 4.24133333,6 4.323,6 L4.323,6 L5.051,6 L3.063,0.939 L2.1005,0.939 L0.1125,6 L0.844,6 Z M3.3885,4.089 L1.775,4.089 L2.391,2.4125 C2.42133333,2.3355 2.45225,2.24566667 2.48375,2.143 C2.51525,2.04033333 2.54733333,1.9295 2.58,1.8105 C2.61266667,1.9295 2.64591667,2.03975 2.67975,2.14125 C2.71358333,2.24275 2.7445,2.33083333 2.7725,2.4055 L2.7725,2.4055 L3.3885,4.089 Z M6.85,6.056 C7.13,6.056 7.3785,6.01341667 7.5955,5.92825 C7.8125,5.84308333 7.99625,5.72641667 8.14675,5.57825 C8.29725,5.43008333 8.41158333,5.25625 8.48975,5.05675 C8.56791667,4.85725 8.607,4.64316667 8.607,4.4145 C8.607,4.2045 8.57375,4.026 8.50725,3.879 C8.44075,3.732 8.35266667,3.60775 8.243,3.50625 C8.13333333,3.40475 8.0085,3.32075 7.8685,3.25425 C7.7285,3.18775 7.58558333,3.12941667 7.43975,3.07925 C7.29391667,3.02908333 7.151,2.98183333 7.011,2.9375 C6.871,2.89316667 6.74616667,2.843 6.6365,2.787 C6.52683333,2.731 6.43875,2.66333333 6.37225,2.584 C6.30575,2.50466667 6.2725,2.4055 6.2725,2.2865 C6.2725,2.19316667 6.28883333,2.10741667 6.3215,2.02925 C6.35416667,1.95108333 6.40375,1.884 6.47025,1.828 C6.53675,1.772 6.61841667,1.72825 6.71525,1.69675 C6.81208333,1.66525 6.92583333,1.6495 7.0565,1.6495 C7.20116667,1.6495 7.32658333,1.66758333 7.43275,1.70375 C7.53891667,1.73991667 7.63166667,1.78016667 7.711,1.8245 C7.79033333,1.86883333 7.85916667,1.90908333 7.9175,1.94525 C7.97583333,1.98141667 8.02833333,1.9995 8.075,1.9995 C8.12166667,1.9995 8.16191667,1.989 8.19575,1.968 C8.22958333,1.947 8.25933333,1.91083333 8.285,1.8595 L8.285,1.8595 L8.516,1.415 C8.33866667,1.247 8.124,1.11633333 7.872,1.023 C7.62,0.929666667 7.34466667,0.883 7.046,0.883 C6.78233333,0.883 6.54783333,0.923833333 6.3425,1.0055 C6.13716667,1.08716667 5.96391667,1.19566667 5.82275,1.331 C5.68158333,1.46633333 5.57425,1.6215 5.50075,1.7965 C5.42725,1.9715 5.3905,2.15116667 5.3905,2.3355 C5.3905,2.5665 5.42375,2.76075 5.49025,2.91825 C5.55675,3.07575 5.64483333,3.207 5.7545,3.312 C5.86416667,3.417 5.989,3.50216667 6.129,3.5675 C6.269,3.63283333 6.41133333,3.68883333 6.556,3.7355 C6.70066667,3.78216667 6.843,3.82533333 6.983,3.865 C7.123,3.90466667 7.24783333,3.95308333 7.3575,4.01025 C7.46716667,4.06741667 7.55525,4.138 7.62175,4.222 C7.68825,4.306 7.7215,4.4145 7.7215,4.5475 C7.7215,4.7855 7.648,4.96808333 7.501,5.09525 C7.354,5.22241667 7.14633333,5.286 6.878,5.286 C6.703,5.286 6.55308333,5.26208333 6.42825,5.21425 C6.30341667,5.16641667 6.19491667,5.11333333 6.10275,5.055 C6.01058333,4.99666667 5.93066667,4.94358333 5.863,4.89575 C5.79533333,4.84791667 5.73233333,4.824 5.674,4.824 C5.62966667,4.824 5.58941667,4.83508333 5.55325,4.85725 C5.51708333,4.87941667 5.48616667,4.90683333 5.4605,4.9395 L5.4605,4.9395 L5.1875,5.391 C5.2855,5.49133333 5.39691667,5.58233333 5.52175,5.664 C5.64658333,5.74566667 5.78075,5.81566667 5.92425,5.874 C6.06775,5.93233333 6.21766667,5.97725 6.374,6.00875 C6.53033333,6.04025 6.689,6.056 6.85,6.056 Z M11.5785,6 L11.5785,4.033 L13.4195,0.939 L12.5865,0.939 C12.5071667,0.939 12.4418333,0.961166667 12.3905,1.0055 C12.3391667,1.04983333 12.3006667,1.09766667 12.275,1.149 L12.275,1.149 L11.3545,2.8395 C11.3008333,2.9375 11.25475,3.03141667 11.21625,3.12125 C11.17775,3.21108333 11.1433333,3.30033333 11.113,3.389 C11.0803333,3.30266667 11.0441667,3.21458333 11.0045,3.12475 C10.9648333,3.03491667 10.9181667,2.93983333 10.8645,2.8395 L10.8645,2.8395 L9.937,1.149 C9.90433333,1.08833333 9.86408333,1.03816667 9.81625,0.9985 C9.76841667,0.958833333 9.70366667,0.939 9.622,0.939 L9.622,0.939 L8.7925,0.939 L10.637,4.033 L10.637,6 L11.5785,6 Z M14.739,6 L14.739,2.731 C14.739,2.668 14.73725,2.59975 14.73375,2.52625 C14.73025,2.45275 14.7238333,2.3775 14.7145,2.3005 L14.7145,2.3005 L16.265,5.181 C16.3,5.24633333 16.3455,5.29708333 16.4015,5.33325 C16.4575,5.36941667 16.5228333,5.3875 16.5975,5.3875 L16.5975,5.3875 L16.727,5.3875 C16.8016667,5.3875 16.867,5.36941667 16.923,5.33325 C16.979,5.29708333 17.0245,5.24633333 17.0595,5.181 L17.0595,5.181 L18.589,2.311 C18.582,2.38566667 18.57675,2.45916667 18.57325,2.5315 C18.56975,2.60383333 18.568,2.67033333 18.568,2.731 L18.568,2.731 L18.568,6 L19.3975,6 L19.3975,0.939 L18.687,0.939 C18.645,0.939 18.6088333,0.940166667 18.5785,0.9425 C18.5481667,0.944833333 18.52075,0.950666667 18.49625,0.96 C18.47175,0.969333333 18.4495833,0.9845 18.42975,1.0055 C18.4099167,1.0265 18.3906667,1.0545 18.372,1.0895 L18.372,1.0895 L16.874,3.893 C16.8343333,3.96766667 16.797,4.04583333 16.762,4.1275 C16.727,4.20916667 16.6931667,4.292 16.6605,4.376 C16.6278333,4.29433333 16.5945833,4.21325 16.56075,4.13275 C16.5269167,4.05225 16.4901667,3.97466667 16.4505,3.9 L16.4505,3.9 L14.9385,1.0895 C14.9198333,1.0545 14.9,1.0265 14.879,1.0055 C14.858,0.9845 14.83525,0.969333333 14.81075,0.96 C14.78625,0.950666667 14.7588333,0.944833333 14.7285,0.9425 C14.6981667,0.940166667 14.662,0.939 14.62,0.939 L14.62,0.939 L13.9095,0.939 L13.9095,6 L14.739,6 Z" id="ASYM"></path>
            </g>
            <g id="Stacked-Group-2" transform="translate(2.000000, 220.000000)">
                <path d="M2.162,6.056 C2.442,6.056 2.6905,6.01341667 2.9075,5.92825 C3.1245,5.84308333 3.30825,5.72641667 3.45875,5.57825 C3.60925,5.43008333 3.72358333,5.25625 3.80175,5.05675 C3.87991667,4.85725 3.919,4.64316667 3.919,4.4145 C3.919,4.2045 3.88575,4.026 3.81925,3.879 C3.75275,3.732 3.66466667,3.60775 3.555,3.50625 C3.44533333,3.40475 3.3205,3.32075 3.1805,3.25425 C3.0405,3.18775 2.89758333,3.12941667 2.75175,3.07925 C2.60591667,3.02908333 2.463,2.98183333 2.323,2.9375 C2.183,2.89316667 2.05816667,2.843 1.9485,2.787 C1.83883333,2.731 1.75075,2.66333333 1.68425,2.584 C1.61775,2.50466667 1.5845,2.4055 1.5845,2.2865 C1.5845,2.19316667 1.60083333,2.10741667 1.6335,2.02925 C1.66616667,1.95108333 1.71575,1.884 1.78225,1.828 C1.84875,1.772 1.93041667,1.72825 2.02725,1.69675 C2.12408333,1.66525 2.23783333,1.6495 2.3685,1.6495 C2.51316667,1.6495 2.63858333,1.66758333 2.74475,1.70375 C2.85091667,1.73991667 2.94366667,1.78016667 3.023,1.8245 C3.10233333,1.86883333 3.17116667,1.90908333 3.2295,1.94525 C3.28783333,1.98141667 3.34033333,1.9995 3.387,1.9995 C3.43366667,1.9995 3.47391667,1.989 3.50775,1.968 C3.54158333,1.947 3.57133333,1.91083333 3.597,1.8595 L3.597,1.8595 L3.828,1.415 C3.65066667,1.247 3.436,1.11633333 3.184,1.023 C2.932,0.929666667 2.65666667,0.883 2.358,0.883 C2.09433333,0.883 1.85983333,0.923833333 1.6545,1.0055 C1.44916667,1.08716667 1.27591667,1.19566667 1.13475,1.331 C0.993583333,1.46633333 0.88625,1.6215 0.81275,1.7965 C0.73925,1.9715 0.7025,2.15116667 0.7025,2.3355 C0.7025,2.5665 0.73575,2.76075 0.80225,2.91825 C0.86875,3.07575 0.956833333,3.207 1.0665,3.312 C1.17616667,3.417 1.301,3.50216667 1.441,3.5675 C1.581,3.63283333 1.72333333,3.68883333 1.868,3.7355 C2.01266667,3.78216667 2.155,3.82533333 2.295,3.865 C2.435,3.90466667 2.55983333,3.95308333 2.6695,4.01025 C2.77916667,4.06741667 2.86725,4.138 2.93375,4.222 C3.00025,4.306 3.0335,4.4145 3.0335,4.5475 C3.0335,4.7855 2.96,4.96808333 2.813,5.09525 C2.666,5.22241667 2.45833333,5.286 2.19,5.286 C2.015,5.286 1.86508333,5.26208333 1.74025,5.21425 C1.61541667,5.16641667 1.50691667,5.11333333 1.41475,5.055 C1.32258333,4.99666667 1.24266667,4.94358333 1.175,4.89575 C1.10733333,4.84791667 1.04433333,4.824 0.986,4.824 C0.941666667,4.824 0.901416667,4.83508333 0.86525,4.85725 C0.829083333,4.87941667 0.798166667,4.90683333 0.7725,4.9395 L0.7725,4.9395 L0.4995,5.391 C0.5975,5.49133333 0.708916667,5.58233333 0.83375,5.664 C0.958583333,5.74566667 1.09275,5.81566667 1.23625,5.874 C1.37975,5.93233333 1.52966667,5.97725 1.686,6.00875 C1.84233333,6.04025 2.001,6.056 2.162,6.056 Z M5.7005,6 L5.7005,0.939 L4.7555,0.939 L4.7555,6 L5.7005,6 Z M7.6675,6 L7.6675,2.892 C7.6675,2.83133333 7.66575,2.76425 7.66225,2.69075 C7.65875,2.61725 7.6535,2.54316667 7.6465,2.4685 L7.6465,2.4685 L10.2925,5.839 C10.3391667,5.89966667 10.387,5.94166667 10.436,5.965 C10.485,5.98833333 10.5468333,6 10.6215,6 L10.6215,6 L11.108,6 L11.108,0.939 L10.2785,0.939 L10.2785,4.0155 C10.2785,4.08316667 10.28025,4.15608333 10.28375,4.23425 C10.28725,4.31241667 10.2936667,4.39233333 10.303,4.474 L10.303,4.474 L7.6465,1.0895 C7.62083333,1.05683333 7.5975,1.03058333 7.5765,1.01075 C7.5555,0.990916667 7.53391667,0.97575 7.51175,0.96525 C7.48958333,0.95475 7.4645,0.94775 7.4365,0.94425 C7.4085,0.94075 7.3735,0.939 7.3315,0.939 L7.3315,0.939 L6.838,0.939 L6.838,6 L7.6675,6 Z M15.322,6 L15.322,5.2475 L13.0785,5.2475 L13.0785,3.816 L14.846,3.816 L14.846,3.0915 L13.0785,3.0915 L13.0785,1.688 L15.322,1.688 L15.322,0.939 L12.13,0.939 L12.13,6 L15.322,6 Z" id="SINE"></path>
            </g>
            <g id="Stacked-Group-2" transform="translate(3.000000, 275.000000)">
                <path d="M2.59825,6 C2.98091667,6 3.32975,5.93816667 3.64475,5.8145 C3.95975,5.69083333 4.22925,5.517 4.45325,5.293 C4.67725,5.069 4.85108333,4.80183333 4.97475,4.4915 C5.09841667,4.18116667 5.16025,3.8405 5.16025,3.4695 C5.16025,3.0985 5.09841667,2.75783333 4.97475,2.4475 C4.85108333,2.13716667 4.67725,1.87058333 4.45325,1.64775 C4.22925,1.42491667 3.95975,1.25108333 3.64475,1.12625 C3.32975,1.00141667 2.98091667,0.939 2.59825,0.939 L2.59825,0.939 L0.66625,0.939 L0.66625,6 L2.59825,6 Z M2.59825,5.251 L1.61475,5.251 L1.61475,1.688 L2.59825,1.688 C2.84558333,1.688 3.06783333,1.72883333 3.265,1.8105 C3.46216667,1.89216667 3.62958333,2.00941667 3.76725,2.16225 C3.90491667,2.31508333 4.01108333,2.50175 4.08575,2.72225 C4.16041667,2.94275 4.19775,3.19183333 4.19775,3.4695 C4.19775,3.74716667 4.16041667,3.99625 4.08575,4.21675 C4.01108333,4.43725 3.90491667,4.62391667 3.76725,4.77675 C3.62958333,4.92958333 3.46216667,5.04683333 3.265,5.1285 C3.06783333,5.21016667 2.84558333,5.251 2.59825,5.251 L2.59825,5.251 Z M6.95925,6 L6.95925,0.939 L6.01425,0.939 L6.01425,6 L6.95925,6 Z M10.34725,6.056 C10.5549167,6.056 10.7485833,6.04491667 10.92825,6.02275 C11.1079167,6.00058333 11.2765,5.96733333 11.434,5.923 C11.5915,5.87866667 11.7396667,5.82208333 11.8785,5.75325 C12.0173333,5.68441667 12.1509167,5.60333333 12.27925,5.51 L12.27925,5.51 L12.27925,3.4625 L10.59575,3.4625 L10.59575,3.9945 C10.59575,4.0435 10.61325,4.08491667 10.64825,4.11875 C10.68325,4.15258333 10.7310833,4.1695 10.79175,4.1695 L10.79175,4.1695 L11.42525,4.1695 L11.42525,5.09 C11.2829167,5.15766667 11.133,5.21075 10.9755,5.24925 C10.818,5.28775 10.6330833,5.307 10.42075,5.307 C10.1804167,5.307 9.95875,5.26558333 9.75575,5.18275 C9.55275,5.09991667 9.37775,4.98033333 9.23075,4.824 C9.08375,4.66766667 8.96941667,4.47575 8.88775,4.24825 C8.80608333,4.02075 8.76525,3.76116667 8.76525,3.4695 C8.76525,3.19883333 8.80375,2.95383333 8.88075,2.7345 C8.95775,2.51516667 9.06741667,2.32733333 9.20975,2.171 C9.35208333,2.01466667 9.52416667,1.8945 9.726,1.8105 C9.92783333,1.7265 10.1535833,1.6845 10.40325,1.6845 C10.55725,1.6845 10.6931667,1.695 10.811,1.716 C10.9288333,1.737 11.035,1.76383333 11.1295,1.7965 C11.224,1.82916667 11.3103333,1.86766667 11.3885,1.912 C11.4666667,1.95633333 11.5430833,2.00066667 11.61775,2.045 C11.6760833,2.08233333 11.73325,2.101 11.78925,2.101 C11.8779167,2.101 11.9490833,2.05783333 12.00275,1.9715 L12.00275,1.9715 L12.27575,1.5445 C12.06575,1.3485 11.8096667,1.18925 11.5075,1.06675 C11.2053333,0.94425 10.84775,0.883 10.43475,0.883 C10.0310833,0.883 9.66708333,0.946 9.34275,1.072 C9.01841667,1.198 8.7425,1.37533333 8.515,1.604 C8.2875,1.83266667 8.11191667,2.10566667 7.98825,2.423 C7.86458333,2.74033333 7.80275,3.08916667 7.80275,3.4695 C7.80275,3.84516667 7.86633333,4.19166667 7.9935,4.509 C8.12066667,4.82633333 8.29741667,5.09933333 8.52375,5.328 C8.75008333,5.55666667 9.01841667,5.73516667 9.32875,5.8635 C9.63908333,5.99183333 9.97858333,6.056 10.34725,6.056 Z M14.21825,6 L14.21825,0.939 L13.27325,0.939 L13.27325,6 L14.21825,6 Z" id="DIGI"></path>
            </g>
        </g>
    </g>
</svg>