<?xml version="1.0" encoding="utf-8"?>
<svg width="12px" height="36px" viewBox="0 0 12 36" version="1.1" xmlns:xlink="http://www.w3.org/1999/xlink" xmlns="http://www.w3.org/2000/svg">
  <desc>Created with Lunacy</desc>
  <defs>
    <path d="M0 0L12 0L12 36L0 36L0 0Z" id="path_1" />
    <rect width="12" height="36" id="artboard_1" />
    <clipPath id="clip_1">
      <use xlink:href="#artboard_1" clip-rule="evenodd" />
    </clipPath>
    <clipPath id="mask_1">
      <use xlink:href="#path_1" />
    </clipPath>
  </defs>
  <g id="Artboard-2" clip-path="url(#clip_1)">
    <use xlink:href="#artboard_1" stroke="none" fill="#FFFFFF" fill-opacity="0" />
    <g id="hover00121" transform="translate(0 -3.051758E-05)">
      <path d="M0 0L12 0L12 36L0 36L0 0Z" id="Background" fill="none" stroke="none" />
      <g clip-path="url(#mask_1)">
        <g id="hover00121" transform="translate(0 1)">
          <g id="R-Thumb">
            <path d="M0 4L0 2C0 1.44772 0.195262 0.976311 0.585786 0.585786C0.976311 0.195262 1.44772 0 2 0L8 0C8.55228 0 9.02369 0.195262 9.41421 0.585786C9.80474 0.976311 10 1.44772 10 2L10 11C10 11.5523 9.80474 12.0237 9.41421 12.4142C9.02369 12.8047 8.55228 13 8 13L2 13C1.44772 13 0.976311 12.8047 0.585786 12.4142C0.195262 12.0237 0 11.5523 0 11L0 4Z" id="Rectangle" fill="#399DFF" stroke="none" />
          </g>
          <g id="R-Thumb----Orange" transform="translate(0.5 18.5)">
            <path d="M0 4L0 2C0 1.44772 0.195262 0.976311 0.585786 0.585786C0.976311 0.195262 1.44772 0 2 0L7 0C7.55228 0 8.02369 0.195262 8.41421 0.585786C8.80474 0.976311 9 1.44772 9 2L9 10C9 10.5523 8.80474 11.0237 8.41421 11.4142C8.02369 11.8047 7.55228 12 7 12L2 12C1.44772 12 0.976311 11.8047 0.585786 11.4142C0.195262 11.0237 0 10.5523 0 10L0 4Z" id="Rectangle#1" fill="#FF9000" stroke="#FFFFFF" stroke-width="1" />
          </g>
          <g id="Link-Copy" transform="translate(1.929993 3.410004)">
            <g id="Group">
              <path d="M4.15882 4.15883L5.79589 2.52182C6.24807 2.06983 6.24807 1.33666 5.7959 0.884642L5.25019 0.338995C4.79836 -0.112998 4.06541 -0.112998 3.61324 0.338995L2.69069 1.26186C2.99554 1.24133 3.30347 1.30971 3.5744 1.46916L4.15882 0.884642C4.30927 0.734312 4.55411 0.734312 4.70454 0.884642L5.25019 1.43029C5.40055 1.58087 5.40055 1.82563 5.25019 1.97618L3.61324 3.61312C3.46281 3.76385 3.21825 3.76355 3.06753 3.61312L2.52184 3.06753L1.9762 3.61312L2.52184 4.15883C2.97405 4.61106 3.70665 4.61106 4.15882 4.15883ZM1.97616 5.25018L2.56026 4.66612C2.83234 4.82516 3.13946 4.89363 3.4443 4.87331L2.52181 5.79584C2.06962 6.24807 1.33668 6.24807 0.884829 5.79584L0.339157 5.25018C-0.113052 4.79838 -0.113052 4.06542 0.339157 3.61312L1.97617 1.97617C2.42837 1.52418 3.16097 1.52418 3.6132 1.97617L4.15879 2.52182L3.6132 3.06753L3.06749 2.52182C2.91715 2.37149 2.6722 2.37149 2.52181 2.52182L0.884829 4.15882C0.734105 4.30955 0.734105 4.55411 0.884829 4.70453L1.43051 5.25018C1.58088 5.40055 1.82544 5.40092 1.97616 5.25018Z" id="Shape" fill="#FFFFFF" fill-rule="evenodd" stroke="none" />
            </g>
          </g>
          <g id="Link" transform="translate(1.929993 21.41)">
            <g id="Group">
              <path d="M4.15879 4.15883L5.79586 2.52182C6.24804 2.06983 6.24804 1.33666 5.79587 0.884642L5.25016 0.338995C4.79833 -0.112998 4.06538 -0.112998 3.61321 0.338995L2.69066 1.26186C2.99551 1.24133 3.30344 1.30971 3.57437 1.46916L4.15879 0.884642C4.30924 0.734312 4.55408 0.734312 4.70451 0.884642L5.25016 1.43029C5.40052 1.58087 5.40052 1.82563 5.25016 1.97618L3.61321 3.61312C3.46278 3.76385 3.21822 3.76355 3.0675 3.61312L2.52181 3.06753L1.97617 3.61312L2.52181 4.15883C2.97402 4.61106 3.70662 4.61106 4.15879 4.15883ZM1.97616 5.25017L2.56026 4.66611C2.83234 4.82515 3.13946 4.89362 3.4443 4.8733L2.52181 5.79583C2.06962 6.24806 1.33668 6.24806 0.884829 5.79583L0.339157 5.25017C-0.113052 4.79837 -0.113052 4.06541 0.339157 3.61311L1.97617 1.97616C2.42837 1.52417 3.16097 1.52417 3.6132 1.97616L4.15879 2.52181L3.6132 3.06752L3.06749 2.52181C2.91715 2.37148 2.6722 2.37148 2.52181 2.52181L0.884829 4.15881C0.734105 4.30954 0.734105 4.5541 0.884829 4.70452L1.43051 5.25017C1.58088 5.40054 1.82544 5.40091 1.97616 5.25017Z" id="Shape" fill="#000000" fill-rule="evenodd" stroke="none" />
            </g>
          </g>
        </g>
      </g>
    </g>
  </g>
</svg>