<?xml version="1.0" encoding="UTF-8"?>
<svg width="37px" height="12px" viewBox="0 0 37 12" version="1.1" xmlns="http://www.w3.org/2000/svg" xmlns:xlink="http://www.w3.org/1999/xlink">
    <title>hover00148</title>
    <g id="hover00148" stroke="none" stroke-width="1" fill="none" fill-rule="evenodd">
        <g id="button/smallButton" transform="translate(1.000000, 1.000000)" fill="#399DFF">
            <rect id="Rectangle" x="0" y="0" width="35" height="10" rx="2"></rect>
        </g>
        <path d="M6.40429688,6.93017578 L7.20849609,6.85986328 C7.24658222,7.18213052 7.33520438,7.44653217 7.47436523,7.65307617 C7.61352609,7.85962017 7.82958838,8.02661069 8.12255859,8.15405273 C8.41552881,8.28149478 8.74511536,8.34521484 9.11132812,8.34521484 C9.43652506,8.34521484 9.72363157,8.29687548 9.97265625,8.20019531 C10.2216809,8.10351514 10.4069818,7.97094811 10.5285645,7.80249023 C10.6501471,7.63403236 10.7109375,7.45019631 10.7109375,7.25097656 C10.7109375,7.04882711 10.6523443,6.87231521 10.5351562,6.72143555 C10.4179682,6.57055589 10.2246107,6.44384817 9.95507812,6.34130859 C9.7822257,6.27392544 9.3999053,6.16919016 8.80810547,6.02709961 C8.21630563,5.88500906 7.801759,5.75097719 7.56445312,5.625 C7.2568344,5.46386638 7.02758865,5.26391721 6.87670898,5.02514648 C6.72582932,4.78637576 6.65039062,4.51904445 6.65039062,4.22314453 C6.65039062,3.89794759 6.74267486,3.59399555 6.92724609,3.3112793 C7.11181733,3.02856304 7.38134588,2.81396558 7.73583984,2.66748047 C8.0903338,2.52099536 8.48437283,2.44775391 8.91796875,2.44775391 C9.3955102,2.44775391 9.81664857,2.52465743 10.1813965,2.6784668 C10.5461444,2.83227616 10.8266592,3.05859226 11.0229492,3.35742188 C11.2192393,3.65625149 11.324707,3.99462702 11.3393555,4.37255859 L10.5219727,4.43408203 C10.4780271,4.02685343 10.329347,3.71923932 10.0759277,3.51123047 C9.8225085,3.30322162 9.44824466,3.19921875 8.953125,3.19921875 C8.43749742,3.19921875 8.06176876,3.29370023 7.82592773,3.48266602 C7.59008671,3.6716318 7.47216797,3.89941273 7.47216797,4.16601562 C7.47216797,4.39746209 7.55566323,4.58788988 7.72265625,4.73730469 C7.88671957,4.8867195 8.31518208,5.03979414 9.00805664,5.1965332 C9.7009312,5.35327227 10.1762682,5.49023379 10.434082,5.60742188 C10.8090839,5.7802743 11.0859366,5.99926625 11.2646484,6.2644043 C11.4433603,6.52954234 11.5327148,6.83495921 11.5327148,7.18066406 C11.5327148,7.52343921 11.4345713,7.84643403 11.2382812,8.1496582 C11.0419912,8.45288238 10.7600116,8.68871986 10.392334,8.85717773 C10.0246564,9.02563561 9.61084214,9.10986328 9.15087891,9.10986328 C8.56786818,9.10986328 8.07934767,9.02490319 7.68530273,8.85498047 C7.2912578,8.68505774 6.98217885,8.42944507 6.75805664,8.08813477 C6.53393443,7.74682447 6.41601568,7.360842 6.40429688,6.93017578 Z M15.0832422,8.29248047 L15.1975,8.99121094 C14.9748426,9.03808617 14.7756259,9.06152344 14.5998437,9.06152344 C14.3127329,9.06152344 14.0900789,9.01611374 13.931875,8.92529297 C13.7736711,8.8344722 13.6623441,8.71508863 13.5978906,8.56713867 C13.5334372,8.41918871 13.5012109,8.10791253 13.5012109,7.63330078 L13.5012109,4.94824219 L12.9211328,4.94824219 L12.9211328,4.33300781 L13.5012109,4.33300781 L13.5012109,3.17724609 L14.287832,2.70263672 L14.287832,4.33300781 L15.0832422,4.33300781 L15.0832422,4.94824219 L14.287832,4.94824219 L14.287832,7.67724609 C14.287832,7.90283316 14.3017479,8.04785124 14.3295801,8.11230469 C14.3574122,8.17675813 14.4028219,8.22802715 14.4658105,8.26611328 C14.5287991,8.30419941 14.6188861,8.32324219 14.7360742,8.32324219 C14.8239653,8.32324219 14.9396868,8.31298838 15.0832422,8.29248047 Z M16.3222461,6.66650391 C16.3222461,5.80224177 16.562478,5.16211146 17.0429492,4.74609375 C17.4443184,4.4003889 17.9335713,4.22753906 18.5107226,4.22753906 C19.1523274,4.22753906 19.6767362,4.43774204 20.0839648,4.8581543 C20.4911934,5.27856656 20.6948047,5.85937129 20.6948047,6.60058594 C20.6948047,7.20117488 20.6047177,7.67358226 20.424541,8.01782227 C20.2443643,8.36206227 19.9821599,8.62939358 19.6379199,8.81982422 C19.2936799,9.01025486 18.9179512,9.10546875 18.5107226,9.10546875 C17.8573991,9.10546875 17.3293282,8.89599819 16.9264941,8.47705078 C16.5236601,8.05810337 16.3222461,7.45459378 16.3222461,6.66650391 Z M17.1352344,6.66650391 C17.1352344,7.26416314 17.2656041,7.71166844 17.5263476,8.0090332 C17.7870911,8.30639797 18.1152128,8.45507812 18.5107226,8.45507812 C18.9033027,8.45507812 19.2299596,8.30566556 19.4907031,8.00683594 C19.7514466,7.70800632 19.8818164,7.25244447 19.8818164,6.64013672 C19.8818164,6.0629854 19.7507142,5.62573391 19.4885058,5.32836914 C19.2262975,5.03100437 18.900373,4.88232422 18.5107226,4.88232422 C18.1152128,4.88232422 17.7870911,5.03027196 17.5263476,5.32617188 C17.2656041,5.62207179 17.1352344,6.06884467 17.1352344,6.66650391 Z M22.3732617,9 L22.3732617,4.33300781 L23.0851758,4.33300781 L23.0851758,5.04052734 C23.2668173,4.709471 23.4345402,4.49121146 23.5883496,4.38574219 C23.7421589,4.28027291 23.9113467,4.22753906 24.0959179,4.22753906 C24.3625208,4.22753906 24.6335142,4.31249915 24.9089062,4.48242188 L24.6364453,5.21630859 C24.4430849,5.10205021 24.2497275,5.04492188 24.0563672,5.04492188 C23.8835147,5.04492188 23.7282428,5.09692331 23.5905468,5.20092773 C23.4528508,5.30493216 23.3547073,5.44921783 23.2961133,5.63378906 C23.2082222,5.91504047 23.1642773,6.22265458 23.1642773,6.55664062 L23.1642773,9 L22.3732617,9 Z M29.3339453,7.49707031 L30.1513281,7.59814453 C30.0224212,8.07568598 29.783654,8.44628774 29.4350195,8.70996094 C29.0863849,8.97363413 28.6410769,9.10546875 28.099082,9.10546875 C27.4164614,9.10546875 26.875207,8.89526577 26.4753027,8.47485352 C26.0753984,8.05444126 25.8754492,7.46484754 25.8754492,6.70605469 C25.8754492,5.92089451 26.0775956,5.31152561 26.4818945,4.87792969 C26.8861934,4.44433377 27.4106022,4.22753906 28.0551367,4.22753906 C28.6791632,4.22753906 29.1889238,4.43993928 29.5844336,4.86474609 C29.9799433,5.28955291 30.1776953,5.88720318 30.1776953,6.65771484 C30.1776953,6.70459008 30.1762304,6.77490188 30.1733007,6.86865234 L26.692832,6.86865234 C26.722129,7.38135022 26.8671471,7.77392442 27.1278906,8.04638672 C27.3886341,8.31884902 27.7138261,8.45507812 28.1034765,8.45507812 C28.393517,8.45507812 28.6410732,8.37890701 28.8461523,8.2265625 C29.0512315,8.07421799 29.2138275,7.83105636 29.3339453,7.49707031 Z M26.7367773,6.21826172 L29.3427343,6.21826172 C29.3075779,5.82568163 29.2079695,5.53125098 29.0439062,5.33496094 C28.7919518,5.03027191 28.4652949,4.87792969 28.0639257,4.87792969 C27.7006427,4.87792969 27.3952258,4.9995105 27.147666,5.24267578 C26.9001061,5.48584106 26.7631446,5.81103312 26.7367773,6.21826172 Z" id="Store" fill="#FFFFFF" fill-rule="nonzero"></path>
    </g>
</svg>