<svg width="50" height="15" viewBox="0 0 50 15" fill="none" xmlns="http://www.w3.org/2000/svg">
<rect x="2.5" y="2.5" width="45" height="10" rx="1" fill="#399DFF"/>
<rect x="2.5" y="2.5" width="45" height="10" rx="1" stroke="#399DFF"/>
<path d="M25.4038 3.715V11H23.9138V6.81C23.9138 6.71333 23.9155 6.60833 23.9188 6.495C23.9255 6.38167 23.9355 6.26667 23.9488 6.15L22.0138 9.895C21.9538 10.0117 21.8721 10.1 21.7688 10.16C21.6688 10.22 21.5538 10.25 21.4238 10.25H21.1938C21.0638 10.25 20.9471 10.22 20.8438 10.16C20.7438 10.1 20.6638 10.0117 20.6038 9.895L18.6688 6.14C18.6788 6.26 18.6871 6.37833 18.6938 6.495C18.7005 6.60833 18.7038 6.71333 18.7038 6.81V11H17.2138V3.715H18.5038C18.5771 3.715 18.6405 3.71667 18.6938 3.72C18.7505 3.72333 18.8005 3.73333 18.8438 3.75C18.8871 3.76667 18.9255 3.79333 18.9588 3.83C18.9955 3.86333 19.0305 3.91167 19.0638 3.975L20.9388 7.67C21.0055 7.79667 21.0688 7.92833 21.1288 8.065C21.1921 8.20167 21.2521 8.34167 21.3088 8.485C21.3655 8.33833 21.4238 8.195 21.4838 8.055C21.5471 7.915 21.6138 7.78167 21.6838 7.655L23.5538 3.975C23.5871 3.91167 23.6205 3.86333 23.6538 3.83C23.6905 3.79333 23.7305 3.76667 23.7738 3.75C23.8171 3.73333 23.8655 3.72333 23.9188 3.72C23.9755 3.71667 24.0405 3.715 24.1138 3.715H25.4038ZM29.7021 7.785C29.7021 7.66167 29.6855 7.54167 29.6521 7.425C29.6221 7.30833 29.5705 7.205 29.4971 7.115C29.4271 7.02167 29.3338 6.94667 29.2171 6.89C29.1005 6.83333 28.9588 6.805 28.7921 6.805C28.4988 6.805 28.2688 6.89 28.1021 7.06C27.9355 7.22667 27.8255 7.46833 27.7721 7.785H29.7021ZM27.7521 8.685C27.8021 9.11833 27.9338 9.43333 28.1471 9.63C28.3605 9.82333 28.6355 9.92 28.9721 9.92C29.1521 9.92 29.3071 9.89833 29.4371 9.855C29.5671 9.81167 29.6821 9.76333 29.7821 9.71C29.8855 9.65667 29.9788 9.60833 30.0621 9.565C30.1488 9.52167 30.2388 9.5 30.3321 9.5C30.4555 9.5 30.5488 9.545 30.6121 9.635L31.0621 10.19C30.9021 10.3733 30.7288 10.5233 30.5421 10.64C30.3588 10.7533 30.1688 10.8433 29.9721 10.91C29.7788 10.9733 29.5838 11.0167 29.3871 11.04C29.1938 11.0667 29.0088 11.08 28.8321 11.08C28.4688 11.08 28.1271 11.0217 27.8071 10.905C27.4905 10.785 27.2121 10.6083 26.9721 10.375C26.7355 10.1417 26.5471 9.85167 26.4071 9.505C26.2705 9.15833 26.2021 8.755 26.2021 8.295C26.2021 7.94833 26.2605 7.62 26.3771 7.31C26.4971 7 26.6671 6.72833 26.8871 6.495C27.1105 6.26167 27.3788 6.07667 27.6921 5.94C28.0088 5.80333 28.3655 5.735 28.7621 5.735C29.1055 5.735 29.4188 5.78833 29.7021 5.895C29.9888 6.00167 30.2338 6.15667 30.4371 6.36C30.6438 6.56333 30.8038 6.81333 30.9171 7.11C31.0338 7.40333 31.0921 7.73667 31.0921 8.11C31.0921 8.22667 31.0871 8.32167 31.0771 8.395C31.0671 8.46833 31.0488 8.52667 31.0221 8.57C30.9955 8.61333 30.9588 8.64333 30.9121 8.66C30.8688 8.67667 30.8121 8.685 30.7421 8.685H27.7521ZM33.2978 6.375C33.3978 6.28167 33.5011 6.195 33.6078 6.115C33.7144 6.035 33.8278 5.96833 33.9478 5.915C34.0711 5.85833 34.2028 5.815 34.3428 5.785C34.4861 5.75167 34.6411 5.735 34.8078 5.735C35.0911 5.735 35.3411 5.785 35.5578 5.885C35.7778 5.98167 35.9628 6.11833 36.1128 6.295C36.2628 6.46833 36.3761 6.67667 36.4528 6.92C36.5294 7.16 36.5678 7.42167 36.5678 7.705V11H35.0178V7.705C35.0178 7.45167 34.9594 7.255 34.8428 7.115C34.7261 6.97167 34.5544 6.9 34.3278 6.9C34.1578 6.9 33.9978 6.93667 33.8478 7.01C33.7011 7.08 33.5578 7.17667 33.4178 7.3V11H31.8678V5.815H32.8278C33.0211 5.815 33.1478 5.90167 33.2078 6.075L33.2978 6.375ZM42.2209 5.815V11H41.2609C41.0676 11 40.9409 10.9133 40.8809 10.74L40.7909 10.44C40.6909 10.5367 40.5876 10.625 40.4809 10.705C40.3742 10.7817 40.2592 10.8483 40.1359 10.905C40.0159 10.9583 39.8842 11 39.7409 11.03C39.6009 11.0633 39.4476 11.08 39.2809 11.08C38.9976 11.08 38.7459 11.0317 38.5259 10.935C38.3092 10.835 38.1259 10.6967 37.9759 10.52C37.8259 10.3433 37.7126 10.135 37.6359 9.895C37.5592 9.655 37.5209 9.39167 37.5209 9.105V5.815H39.0709V9.105C39.0709 9.36167 39.1292 9.56 39.2459 9.7C39.3626 9.84 39.5342 9.91 39.7609 9.91C39.9309 9.91 40.0892 9.875 40.2359 9.805C40.3859 9.73167 40.5309 9.63333 40.6709 9.51V5.815H42.2209Z" fill="white"/>
<path d="M11.0566 4.83896L13.125 5.91513V3.75H6.21356C5.88733 3.75 5.625 3.94939 5.625 4.19734V8.36912L7.04092 8.67331C7.11491 8.68865 7.1889 8.65542 7.21244 8.60174L7.56558 7.63037C7.58913 7.56135 7.69675 7.53067 7.77747 7.57157L11.1642 9.34305C11.292 9.40951 11.1979 9.56288 11.0499 9.52965L8.44002 8.97495C8.36603 8.95961 8.28868 8.99284 8.27186 9.04908L7.92545 10.0205C7.90191 10.0895 7.79092 10.1201 7.71357 10.0792L5.625 8.98006V11.25H12.4893C12.8391 11.25 13.1216 11.0327 13.1216 10.7694V6.53885L11.7225 6.24233C11.6485 6.22699 11.5746 6.26022 11.5544 6.31391L11.1911 7.28783C11.1642 7.35685 11.06 7.38497 10.9793 7.34662L7.58913 5.5726C7.46132 5.50613 7.55549 5.35276 7.70348 5.38599L10.3133 5.9407C10.3873 5.95603 10.4613 5.9228 10.4815 5.86912L10.8447 4.89519C10.8716 4.82873 10.9759 4.79806 11.0566 4.83896Z" fill="#FF9000"/>
</svg>
