<svg width="16" height="24" viewBox="0 0 16 24" fill="none" xmlns="http://www.w3.org/2000/svg">
<path d="M13.5 3.5C13.5 2.94772 13.0523 2.5 12.5 2.5H2.5V9.5H12.5C13.0523 9.5 13.5 9.05228 13.5 8.5V3.5Z" fill="#399DFF"/>
<path d="M13.5 3.5C13.5 2.94772 13.0523 2.5 12.5 2.5H2.5V9.5H12.5C13.0523 9.5 13.5 9.05228 13.5 8.5V3.5Z" stroke="#399DFF"/>
<path d="M7.75003 4C8.9771 4 10.0631 4.55697 10.7472 5.41454L12 4.23525V8H7.99975L9.36069 6.71927C8.99908 5.68702 7.96783 4.94116 6.75011 4.94116C5.2305 4.94116 4 6.10018 4 7.52948C3.99998 5.57998 5.67883 4 7.75003 4Z" fill="white"/>
</svg>
