<?xml version="1.0" encoding="utf-8"?>
<svg width="49px" height="24px" viewBox="0 0 49 24" version="1.1" xmlns:xlink="http://www.w3.org/1999/xlink" xmlns="http://www.w3.org/2000/svg">
  <desc>Created with Lunacy</desc>
  <defs>
    <rect width="49" height="24" id="artboard_1" />
    <clipPath id="clip_1">
      <use xlink:href="#artboard_1" clip-rule="evenodd" />
    </clipPath>
  </defs>
  <g id="hover00304" clip-path="url(#clip_1)">
    <g id="On" transform="translate(2 12.5)">
      <path d="M0.999 0L44.001 0Q44.0994 0 44.1959 0.0191955Q44.2924 0.038391 44.3833 0.0760443Q44.4742 0.113698 44.556 0.168362Q44.6378 0.223026 44.7074 0.2926Q44.777 0.362175 44.8316 0.443985Q44.8863 0.525796 44.924 0.616699Q44.9616 0.707602 44.9808 0.804105Q45 0.900607 45 0.999L45 7.001Q45 7.09939 44.9808 7.19589Q44.9616 7.2924 44.924 7.3833Q44.8863 7.4742 44.8316 7.55601Q44.777 7.63782 44.7074 7.7074Q44.6378 7.77697 44.556 7.83164Q44.4742 7.8863 44.3833 7.92395Q44.2924 7.96161 44.1959 7.9808Q44.0994 8 44.001 8L0.999 8Q0.900607 8 0.804105 7.9808Q0.707602 7.96161 0.616699 7.92395Q0.525796 7.8863 0.443985 7.83164Q0.362175 7.77697 0.2926 7.7074Q0.223026 7.63782 0.168362 7.55601Q0.113698 7.4742 0.0760443 7.3833Q0.038391 7.2924 0.0191955 7.19589Q0 7.09939 0 7.001L0 0.999Q0 0.900607 0.0191955 0.804105Q0.038391 0.707602 0.0760443 0.616699Q0.113698 0.525796 0.168362 0.443985Q0.223026 0.362175 0.2926 0.2926Q0.362175 0.223026 0.443985 0.168362Q0.525796 0.113698 0.616699 0.0760443Q0.707602 0.038391 0.804105 0.0191955Q0.900607 0 0.999 0L0.999 0Z" transform="translate(0 1.5)" id="Selection" fill="#FF9000" fill-rule="evenodd" stroke="#FFFFFF" stroke-width="1" />
      <g id="Horizontal" fill="#151515" transform="translate(1.5 0)">
        <path d="M41.274 8.74L41.274 2.08L40.3065 2.08L40.3065 8.74L41.274 8.74ZM17.0752 3.0115Q17.127 2.8945 17.127 2.764Q17.127 2.629 17.0752 2.512Q17.0235 2.395 16.9335 2.30725Q16.8435 2.2195 16.7242 2.16775Q16.605 2.116 16.47 2.116Q16.3395 2.116 16.2247 2.16775Q16.11 2.2195 16.0245 2.30725Q15.939 2.395 15.8872 2.512Q15.8355 2.629 15.8355 2.764Q15.8355 2.8945 15.8872 3.0115Q15.939 3.1285 16.0245 3.21625Q16.11 3.304 16.2247 3.35575Q16.3395 3.4075 16.47 3.4075Q16.605 3.4075 16.7242 3.35575Q16.8435 3.304 16.9335 3.21625Q17.0235 3.1285 17.0752 3.0115ZM6.1335 8.74L6.1335 2.26L5.0805 2.26L5.0805 5.095L1.827 5.095L1.827 2.26L0.7695 2.26L0.7695 8.74L1.827 8.74L1.827 5.8555L5.0805 5.8555L5.0805 8.74L6.1335 8.74ZM33.0682 8.49025Q33.3765 8.812 33.948 8.812Q34.272 8.812 34.578 8.70625Q34.884 8.6005 35.109 8.4025L34.821 7.93Q34.7715 7.84 34.6905 7.84Q34.65 7.84 34.6073 7.86925Q34.5645 7.8985 34.506 7.93225Q34.4475 7.966 34.3665 7.99525Q34.2855 8.0245 34.173 8.0245Q33.9705 8.0245 33.849 7.894Q33.7275 7.7635 33.7275 7.516L33.7275 4.9105L35.001 4.9105L35.001 4.213L33.7275 4.213L33.7275 2.7055L33.2325 2.7055Q33.1425 2.7055 33.0885 2.75275Q33.0345 2.8 33.012 2.8765L32.8005 4.204L32.058 4.312L32.058 4.7035Q32.058 4.807 32.1165 4.85875Q32.175 4.9105 32.256 4.9105L32.76 4.9105L32.76 7.5835Q32.76 8.1685 33.0682 8.49025ZM13.5495 5.0005Q13.7655 4.564 14.0715 4.31425Q14.3775 4.0645 14.805 4.0645Q14.9535 4.0645 15.084 4.09825Q15.2145 4.132 15.318 4.1995L15.2505 4.9285Q15.2325 5.005 15.1942 5.03425Q15.156 5.0635 15.093 5.0635Q15.0255 5.0635 14.8995 5.03875Q14.7735 5.014 14.634 5.014Q14.4315 5.014 14.2762 5.0725Q14.121 5.131 13.9972 5.2435Q13.8735 5.356 13.779 5.518Q13.6845 5.68 13.6035 5.887L13.6035 8.74L12.636 8.74L12.636 4.15L13.1985 4.15Q13.3515 4.15 13.41 4.20625Q13.4685 4.2625 13.491 4.402L13.5495 5.0005ZM35.6535 4.789Q36.432 4.0645 37.5075 4.0645Q37.9035 4.0645 38.2118 4.19275Q38.52 4.321 38.7292 4.555Q38.9385 4.789 39.0487 5.11075Q39.159 5.4325 39.159 5.824L39.159 8.74L38.727 8.74Q38.5875 8.74 38.5155 8.69725Q38.4435 8.6545 38.394 8.524L38.2995 8.1505Q38.124 8.308 37.953 8.43175Q37.782 8.5555 37.5997 8.641Q37.4175 8.7265 37.2082 8.76925Q36.999 8.812 36.747 8.812Q36.468 8.812 36.2272 8.7355Q35.9865 8.659 35.811 8.50375Q35.6355 8.3485 35.5342 8.119Q35.433 7.8895 35.433 7.579Q35.433 7.3135 35.5747 7.0615Q35.7165 6.8095 36.0427 6.60925Q36.369 6.409 36.9022 6.2785Q37.4355 6.148 38.2185 6.13L38.2185 5.824Q38.2185 5.329 38.007 5.086Q37.7955 4.843 37.386 4.843Q37.107 4.843 36.918 4.91275Q36.729 4.9825 36.5895 5.0635Q36.45 5.1445 36.342 5.21425Q36.234 5.284 36.1125 5.284Q36.0135 5.284 35.9437 5.23225Q35.874 5.1805 35.829 5.104L35.6535 4.789ZM10.4018 4.2445Q9.99 4.078 9.4815 4.078Q8.9685 4.078 8.55675 4.2445Q8.145 4.411 7.8525 4.717Q7.56 5.023 7.4025 5.4595Q7.245 5.896 7.245 6.4405Q7.245 6.985 7.4025 7.4215Q7.56 7.858 7.8525 8.16625Q8.145 8.4745 8.55675 8.641Q8.9685 8.8075 9.4815 8.8075Q9.99 8.8075 10.4018 8.641Q10.8135 8.4745 11.1038 8.16625Q11.394 7.858 11.5515 7.4215Q11.709 6.985 11.709 6.4405Q11.709 5.896 11.5515 5.4595Q11.394 5.023 11.1038 4.717Q10.8135 4.411 10.4018 4.2445ZM25.1932 4.2445Q24.7815 4.078 24.273 4.078Q23.76 4.078 23.3482 4.2445Q22.9365 4.411 22.644 4.717Q22.3515 5.023 22.194 5.4595Q22.0365 5.896 22.0365 6.4405Q22.0365 6.985 22.194 7.4215Q22.3515 7.858 22.644 8.16625Q22.9365 8.4745 23.3482 8.641Q23.76 8.8075 24.273 8.8075Q24.7815 8.8075 25.1932 8.641Q25.605 8.4745 25.8953 8.16625Q26.1855 7.858 26.343 7.4215Q26.5005 6.985 26.5005 6.4405Q26.5005 5.896 26.343 5.4595Q26.1855 5.023 25.8953 4.717Q25.605 4.411 25.1932 4.2445ZM28.332 4.7575Q28.4805 4.6045 28.6402 4.48075Q28.8 4.357 28.98 4.267Q29.16 4.177 29.3625 4.1275Q29.565 4.078 29.8035 4.078Q30.1815 4.078 30.4672 4.204Q30.753 4.33 30.9487 4.5595Q31.1445 4.789 31.2435 5.11075Q31.3425 5.4325 31.3425 5.8195L31.3425 8.74L30.3795 8.74L30.3795 5.8195Q30.3795 5.356 30.1657 5.0995Q29.952 4.843 29.5155 4.843Q29.1915 4.843 28.9147 4.9915Q28.638 5.14 28.395 5.3965L28.395 8.74L27.4275 8.74L27.4275 4.15L28.0125 4.15Q28.2105 4.15 28.2645 4.3345L28.332 4.7575ZM15.9975 8.74L16.965 8.74L16.965 4.15L15.9975 4.15L15.9975 8.74ZM21.42 4.555Q21.42 4.6585 21.3862 4.7575Q21.3525 4.8565 21.2895 4.924L18.963 7.9885L21.3435 7.9885L21.3435 8.74L17.8425 8.74L17.8425 8.335Q17.8425 8.2675 17.874 8.173Q17.9055 8.0785 17.9685 7.993L20.313 4.9015L17.9775 4.9015L17.9775 4.15L21.42 4.15L21.42 4.555ZM10.4063 7.63525Q10.1025 8.0515 9.4815 8.0515Q8.8515 8.0515 8.5455 7.63525Q8.2395 7.219 8.2395 6.445Q8.2395 5.671 8.5455 5.25025Q8.8515 4.8295 9.4815 4.8295Q10.1025 4.8295 10.4063 5.25025Q10.71 5.671 10.71 6.445Q10.71 7.219 10.4063 7.63525ZM25.1978 7.63525Q24.894 8.0515 24.273 8.0515Q23.643 8.0515 23.337 7.63525Q23.031 7.219 23.031 6.445Q23.031 5.671 23.337 5.25025Q23.643 4.8295 24.273 4.8295Q24.894 4.8295 25.1978 5.25025Q25.5015 5.671 25.5015 6.445Q25.5015 7.219 25.1978 7.63525ZM38.2185 6.733Q37.701 6.751 37.3455 6.81625Q36.99 6.8815 36.7695 6.98275Q36.549 7.084 36.4522 7.2235Q36.3555 7.363 36.3555 7.5295Q36.3555 7.6915 36.4072 7.80625Q36.459 7.921 36.5512 7.99525Q36.6435 8.0695 36.7673 8.10325Q36.891 8.137 37.0395 8.137Q37.4175 8.137 37.6898 7.99525Q37.962 7.8535 38.2185 7.5835L38.2185 6.733Z" />
      </g>
    </g>
    <path d="M0.999 0L44.001 0Q44.0994 0 44.1959 0.0191955Q44.2924 0.038391 44.3833 0.0760443Q44.4742 0.113698 44.556 0.168362Q44.6378 0.223026 44.7074 0.2926Q44.777 0.362175 44.8316 0.443985Q44.8863 0.525796 44.924 0.616699Q44.9616 0.707602 44.9808 0.804105Q45 0.900607 45 0.999L45 7.001Q45 7.09939 44.9808 7.19589Q44.9616 7.2924 44.924 7.3833Q44.8863 7.4742 44.8316 7.55601Q44.777 7.63782 44.7074 7.7074Q44.6378 7.77697 44.556 7.83164Q44.4742 7.8863 44.3833 7.92395Q44.2924 7.96161 44.1959 7.9808Q44.0994 8 44.001 8L0.999 8Q0.900607 8 0.804105 7.9808Q0.707602 7.96161 0.616699 7.92395Q0.525796 7.8863 0.443985 7.83164Q0.362175 7.77697 0.2926 7.7074Q0.223026 7.63782 0.168362 7.55601Q0.113698 7.4742 0.0760443 7.3833Q0.038391 7.2924 0.0191955 7.19589Q0 7.09939 0 7.001L0 0.999Q0 0.900607 0.0191955 0.804105Q0.038391 0.707602 0.0760443 0.616699Q0.113698 0.525796 0.168362 0.443985Q0.223026 0.362175 0.2926 0.2926Q0.362175 0.223026 0.443985 0.168362Q0.525796 0.113698 0.616699 0.0760443Q0.707602 0.038391 0.804105 0.0191955Q0.900607 0 0.999 0L0.999 0Z" transform="translate(2 2)" id="Selection-Copy" fill="#399DFF" fill-rule="evenodd" stroke="none" />
    <g id="Off" transform="translate(3.5 0.5)">
      <g id="Horizontal" fill="#FFFFFF">
        <path d="M41.274 8.74L41.274 2.08L40.3065 2.08L40.3065 8.74L41.274 8.74ZM17.0752 3.0115Q17.127 2.8945 17.127 2.764Q17.127 2.629 17.0752 2.512Q17.0235 2.395 16.9335 2.30725Q16.8435 2.2195 16.7242 2.16775Q16.605 2.116 16.47 2.116Q16.3395 2.116 16.2247 2.16775Q16.11 2.2195 16.0245 2.30725Q15.939 2.395 15.8872 2.512Q15.8355 2.629 15.8355 2.764Q15.8355 2.8945 15.8872 3.0115Q15.939 3.1285 16.0245 3.21625Q16.11 3.304 16.2247 3.35575Q16.3395 3.4075 16.47 3.4075Q16.605 3.4075 16.7242 3.35575Q16.8435 3.304 16.9335 3.21625Q17.0235 3.1285 17.0752 3.0115ZM6.1335 8.74L6.1335 2.26L5.0805 2.26L5.0805 5.095L1.827 5.095L1.827 2.26L0.7695 2.26L0.7695 8.74L1.827 8.74L1.827 5.8555L5.0805 5.8555L5.0805 8.74L6.1335 8.74ZM33.0682 8.49025Q33.3765 8.812 33.948 8.812Q34.272 8.812 34.578 8.70625Q34.884 8.6005 35.109 8.4025L34.821 7.93Q34.7715 7.84 34.6905 7.84Q34.65 7.84 34.6073 7.86925Q34.5645 7.8985 34.506 7.93225Q34.4475 7.966 34.3665 7.99525Q34.2855 8.0245 34.173 8.0245Q33.9705 8.0245 33.849 7.894Q33.7275 7.7635 33.7275 7.516L33.7275 4.9105L35.001 4.9105L35.001 4.213L33.7275 4.213L33.7275 2.7055L33.2325 2.7055Q33.1425 2.7055 33.0885 2.75275Q33.0345 2.8 33.012 2.8765L32.8005 4.204L32.058 4.312L32.058 4.7035Q32.058 4.807 32.1165 4.85875Q32.175 4.9105 32.256 4.9105L32.76 4.9105L32.76 7.5835Q32.76 8.1685 33.0682 8.49025ZM13.5495 5.0005Q13.7655 4.564 14.0715 4.31425Q14.3775 4.0645 14.805 4.0645Q14.9535 4.0645 15.084 4.09825Q15.2145 4.132 15.318 4.1995L15.2505 4.9285Q15.2325 5.005 15.1942 5.03425Q15.156 5.0635 15.093 5.0635Q15.0255 5.0635 14.8995 5.03875Q14.7735 5.014 14.634 5.014Q14.4315 5.014 14.2762 5.0725Q14.121 5.131 13.9972 5.2435Q13.8735 5.356 13.779 5.518Q13.6845 5.68 13.6035 5.887L13.6035 8.74L12.636 8.74L12.636 4.15L13.1985 4.15Q13.3515 4.15 13.41 4.20625Q13.4685 4.2625 13.491 4.402L13.5495 5.0005ZM35.6535 4.789Q36.432 4.0645 37.5075 4.0645Q37.9035 4.0645 38.2118 4.19275Q38.52 4.321 38.7292 4.555Q38.9385 4.789 39.0487 5.11075Q39.159 5.4325 39.159 5.824L39.159 8.74L38.727 8.74Q38.5875 8.74 38.5155 8.69725Q38.4435 8.6545 38.394 8.524L38.2995 8.1505Q38.124 8.308 37.953 8.43175Q37.782 8.5555 37.5997 8.641Q37.4175 8.7265 37.2082 8.76925Q36.999 8.812 36.747 8.812Q36.468 8.812 36.2272 8.7355Q35.9865 8.659 35.811 8.50375Q35.6355 8.3485 35.5342 8.119Q35.433 7.8895 35.433 7.579Q35.433 7.3135 35.5747 7.0615Q35.7165 6.8095 36.0427 6.60925Q36.369 6.409 36.9022 6.2785Q37.4355 6.148 38.2185 6.13L38.2185 5.824Q38.2185 5.329 38.007 5.086Q37.7955 4.843 37.386 4.843Q37.107 4.843 36.918 4.91275Q36.729 4.9825 36.5895 5.0635Q36.45 5.1445 36.342 5.21425Q36.234 5.284 36.1125 5.284Q36.0135 5.284 35.9437 5.23225Q35.874 5.1805 35.829 5.104L35.6535 4.789ZM10.4018 4.2445Q9.99 4.078 9.4815 4.078Q8.9685 4.078 8.55675 4.2445Q8.145 4.411 7.8525 4.717Q7.56 5.023 7.4025 5.4595Q7.245 5.896 7.245 6.4405Q7.245 6.985 7.4025 7.4215Q7.56 7.858 7.8525 8.16625Q8.145 8.4745 8.55675 8.641Q8.9685 8.8075 9.4815 8.8075Q9.99 8.8075 10.4018 8.641Q10.8135 8.4745 11.1038 8.16625Q11.394 7.858 11.5515 7.4215Q11.709 6.985 11.709 6.4405Q11.709 5.896 11.5515 5.4595Q11.394 5.023 11.1038 4.717Q10.8135 4.411 10.4018 4.2445ZM25.1932 4.2445Q24.7815 4.078 24.273 4.078Q23.76 4.078 23.3482 4.2445Q22.9365 4.411 22.644 4.717Q22.3515 5.023 22.194 5.4595Q22.0365 5.896 22.0365 6.4405Q22.0365 6.985 22.194 7.4215Q22.3515 7.858 22.644 8.16625Q22.9365 8.4745 23.3482 8.641Q23.76 8.8075 24.273 8.8075Q24.7815 8.8075 25.1932 8.641Q25.605 8.4745 25.8953 8.16625Q26.1855 7.858 26.343 7.4215Q26.5005 6.985 26.5005 6.4405Q26.5005 5.896 26.343 5.4595Q26.1855 5.023 25.8953 4.717Q25.605 4.411 25.1932 4.2445ZM28.332 4.7575Q28.4805 4.6045 28.6402 4.48075Q28.8 4.357 28.98 4.267Q29.16 4.177 29.3625 4.1275Q29.565 4.078 29.8035 4.078Q30.1815 4.078 30.4672 4.204Q30.753 4.33 30.9487 4.5595Q31.1445 4.789 31.2435 5.11075Q31.3425 5.4325 31.3425 5.8195L31.3425 8.74L30.3795 8.74L30.3795 5.8195Q30.3795 5.356 30.1657 5.0995Q29.952 4.843 29.5155 4.843Q29.1915 4.843 28.9147 4.9915Q28.638 5.14 28.395 5.3965L28.395 8.74L27.4275 8.74L27.4275 4.15L28.0125 4.15Q28.2105 4.15 28.2645 4.3345L28.332 4.7575ZM15.9975 8.74L16.965 8.74L16.965 4.15L15.9975 4.15L15.9975 8.74ZM21.42 4.555Q21.42 4.6585 21.3862 4.7575Q21.3525 4.8565 21.2895 4.924L18.963 7.9885L21.3435 7.9885L21.3435 8.74L17.8425 8.74L17.8425 8.335Q17.8425 8.2675 17.874 8.173Q17.9055 8.0785 17.9685 7.993L20.313 4.9015L17.9775 4.9015L17.9775 4.15L21.42 4.15L21.42 4.555ZM10.4063 7.63525Q10.1025 8.0515 9.4815 8.0515Q8.8515 8.0515 8.5455 7.63525Q8.2395 7.219 8.2395 6.445Q8.2395 5.671 8.5455 5.25025Q8.8515 4.8295 9.4815 4.8295Q10.1025 4.8295 10.4063 5.25025Q10.71 5.671 10.71 6.445Q10.71 7.219 10.4063 7.63525ZM25.1978 7.63525Q24.894 8.0515 24.273 8.0515Q23.643 8.0515 23.337 7.63525Q23.031 7.219 23.031 6.445Q23.031 5.671 23.337 5.25025Q23.643 4.8295 24.273 4.8295Q24.894 4.8295 25.1978 5.25025Q25.5015 5.671 25.5015 6.445Q25.5015 7.219 25.1978 7.63525ZM38.2185 6.733Q37.701 6.751 37.3455 6.81625Q36.99 6.8815 36.7695 6.98275Q36.549 7.084 36.4522 7.2235Q36.3555 7.363 36.3555 7.5295Q36.3555 7.6915 36.4072 7.80625Q36.459 7.921 36.5512 7.99525Q36.6435 8.0695 36.7673 8.10325Q36.891 8.137 37.0395 8.137Q37.4175 8.137 37.6898 7.99525Q37.962 7.8535 38.2185 7.5835L38.2185 6.733Z" />
      </g>
    </g>
  </g>
</svg>