<?xml version="1.0" encoding="utf-8"?>
<svg width="12px" height="306px" viewBox="0 0 12 306" version="1.1" xmlns:xlink="http://www.w3.org/1999/xlink" xmlns="http://www.w3.org/2000/svg">
  <desc>Created with Lunacy</desc>
  <defs>
    <rect width="12" height="306" id="artboard_1" />
    <clipPath id="clip_1">
      <use xlink:href="#artboard_1" clip-rule="evenodd" />
    </clipPath>
  </defs>
  <g id="hover00160" clip-path="url(#clip_1)">
    <g id="Backgrounds" transform="translate(-4.9591064E-05 19.999897)">
      <g id="Group-16" transform="translate(0 270)">
        <path d="M0 2L0 1C0 0.723862 0.0976311 0.488152 0.292893 0.292892C0.488155 0.0976334 0.723858 0 1 0L10 0C10.2761 0 10.5118 0.0976334 10.7071 0.292892C10.9024 0.488152 11 0.723862 11 1L11 10C11 10.2761 10.9024 10.5118 10.7071 10.7071C10.5118 10.9024 10.2761 11 10 11L1 11C0.723858 11 0.488155 10.9024 0.292893 10.7071C0.0976311 10.5118 0 10.2761 0 10L0 2L0 2L0 2Z" id="Rectangle#2" fill="#399DFF" fill-rule="evenodd" stroke="none" />
      </g>
      <g id="Group-15" transform="translate(0 252.00002)">
        <path d="M0 2L0 1C0 0.723862 0.0976311 0.488152 0.292893 0.292892C0.488155 0.0976334 0.723858 0 1 0L10 0C10.2761 0 10.5118 0.0976334 10.7071 0.292892C10.9024 0.488152 11 0.723862 11 1L11 10C11 10.2761 10.9024 10.5118 10.7071 10.7071C10.5118 10.9024 10.2761 11 10 11L1 11C0.723858 11 0.488155 10.9024 0.292893 10.7071C0.0976311 10.5118 0 10.2761 0 10L0 2L0 2L0 2Z" id="Rectangle#3" fill="#399DFF" fill-rule="evenodd" stroke="none" />
      </g>
      <g id="Group-14" transform="translate(0 234.00002)">
        <path d="M0 2L0 1C0 0.723862 0.0976311 0.488152 0.292893 0.292892C0.488155 0.0976334 0.723858 0 1 0L10 0C10.2761 0 10.5118 0.0976334 10.7071 0.292892C10.9024 0.488152 11 0.723862 11 1L11 10C11 10.2761 10.9024 10.5118 10.7071 10.7071C10.5118 10.9024 10.2761 11 10 11L1 11C0.723858 11 0.488155 10.9024 0.292893 10.7071C0.0976311 10.5118 0 10.2761 0 10L0 2L0 2L0 2Z" id="Rectangle#4" fill="#399DFF" fill-rule="evenodd" stroke="none" />
      </g>
      <g id="Group-13" transform="translate(0 216)">
        <path d="M0 2L0 1C0 0.723858 0.0976311 0.488155 0.292893 0.292892C0.488155 0.0976296 0.723858 0 1 0L10 0C10.2761 0 10.5118 0.0976296 10.7071 0.292892C10.9024 0.488155 11 0.723858 11 1L11 10C11 10.2761 10.9024 10.5118 10.7071 10.7071C10.5118 10.9024 10.2761 11 10 11L1 11C0.723858 11 0.488155 10.9024 0.292893 10.7071C0.0976311 10.5118 0 10.2761 0 10L0 2L0 2L0 2Z" id="Rectangle#5" fill="#399DFF" fill-rule="evenodd" stroke="none" />
      </g>
      <g id="Group-12" transform="translate(0 198)">
        <path d="M0 2L0 1C0 0.723862 0.0976311 0.488152 0.292893 0.292892C0.488155 0.0976334 0.723858 0 1 0L10 0C10.2761 0 10.5118 0.0976334 10.7071 0.292892C10.9024 0.488152 11 0.723862 11 1L11 10C11 10.2761 10.9024 10.5118 10.7071 10.7071C10.5118 10.9024 10.2761 11 10 11L1 11C0.723858 11 0.488155 10.9024 0.292893 10.7071C0.0976311 10.5118 0 10.2761 0 10L0 2L0 2L0 2Z" id="Rectangle#2" fill="#399DFF" fill-rule="evenodd" stroke="none" />
      </g>
      <g id="Group-11" transform="translate(0 180)">
        <path d="M0 2L0 1C0 0.723862 0.0976311 0.488152 0.292893 0.292892C0.488155 0.0976334 0.723858 0 1 0L10 0C10.2761 0 10.5118 0.0976334 10.7071 0.292892C10.9024 0.488152 11 0.723862 11 1L11 10C11 10.2761 10.9024 10.5118 10.7071 10.7071C10.5118 10.9024 10.2761 11 10 11L1 11C0.723858 11 0.488155 10.9024 0.292893 10.7071C0.0976311 10.5118 0 10.2761 0 10L0 2L0 2L0 2Z" id="Rectangle#3" fill="#399DFF" fill-rule="evenodd" stroke="none" />
      </g>
      <g id="Group-10" transform="translate(0 162)">
        <path d="M0 2L0 1C0 0.723862 0.0976311 0.488152 0.292893 0.292892C0.488155 0.0976334 0.723858 0 1 0L10 0C10.2761 0 10.5118 0.0976334 10.7071 0.292892C10.9024 0.488152 11 0.723862 11 1L11 10C11 10.2761 10.9024 10.5118 10.7071 10.7071C10.5118 10.9024 10.2761 11 10 11L1 11C0.723858 11 0.488155 10.9024 0.292893 10.7071C0.0976311 10.5118 0 10.2761 0 10L0 2L0 2L0 2Z" id="Rectangle#4" fill="#399DFF" fill-rule="evenodd" stroke="none" />
      </g>
      <g id="Group-9" transform="translate(0 144)">
        <path d="M0 2L0 1C0 0.723858 0.0976311 0.488155 0.292893 0.292892C0.488155 0.0976296 0.723858 0 1 0L10 0C10.2761 0 10.5118 0.0976296 10.7071 0.292892C10.9024 0.488155 11 0.723858 11 1L11 10C11 10.2761 10.9024 10.5118 10.7071 10.7071C10.5118 10.9024 10.2761 11 10 11L1 11C0.723858 11 0.488155 10.9024 0.292893 10.7071C0.0976311 10.5118 0 10.2761 0 10L0 2L0 2L0 2Z" id="Rectangle#5" fill="#399DFF" fill-rule="evenodd" stroke="none" />
      </g>
      <g id="Group-8" transform="translate(0 126)">
        <path d="M0 2L0 1C0 0.723858 0.0976311 0.488155 0.292893 0.292892C0.488155 0.0976296 0.723858 0 1 0L10 0C10.2761 0 10.5118 0.0976296 10.7071 0.292892C10.9024 0.488155 11 0.723858 11 1L11 10C11 10.2761 10.9024 10.5118 10.7071 10.7071C10.5118 10.9024 10.2761 11 10 11L1 11C0.723858 11 0.488155 10.9024 0.292893 10.7071C0.0976311 10.5118 0 10.2761 0 10L0 2L0 2L0 2Z" id="Rectangle#1" fill="#399DFF" fill-rule="evenodd" stroke="none" />
      </g>
      <g id="Group-7" transform="translate(0 108)">
        <path d="M0 2L0 1C0 0.723858 0.0976311 0.488155 0.292893 0.292892C0.488155 0.0976315 0.723858 0 1 0L10 0C10.2761 0 10.5118 0.0976315 10.7071 0.292892C10.9024 0.488155 11 0.723858 11 1L11 10C11 10.2761 10.9024 10.5118 10.7071 10.7071C10.5118 10.9024 10.2761 11 10 11L1 11C0.723858 11 0.488155 10.9024 0.292893 10.7071C0.0976311 10.5118 0 10.2761 0 10L0 2L0 2L0 2Z" id="Rectangle" fill="#399DFF" fill-rule="evenodd" stroke="none" />
      </g>
      <g id="Group-6" transform="translate(0 90)">
        <path d="M0 2L0 1C0 0.723862 0.0976311 0.488152 0.292893 0.292892C0.488155 0.0976334 0.723858 0 1 0L10 0C10.2761 0 10.5118 0.0976334 10.7071 0.292892C10.9024 0.488152 11 0.723862 11 1L11 10C11 10.2761 10.9024 10.5118 10.7071 10.7071C10.5118 10.9024 10.2761 11 10 11L1 11C0.723858 11 0.488155 10.9024 0.292893 10.7071C0.0976311 10.5118 0 10.2761 0 10L0 2L0 2L0 2Z" id="Rectangle#2" fill="#399DFF" fill-rule="evenodd" stroke="none" />
      </g>
      <g id="Group-5" transform="translate(0 72)">
        <path d="M0 2L0 1C0 0.723862 0.0976311 0.488152 0.292893 0.292892C0.488155 0.0976334 0.723858 0 1 0L10 0C10.2761 0 10.5118 0.0976334 10.7071 0.292892C10.9024 0.488152 11 0.723862 11 1L11 10C11 10.2761 10.9024 10.5118 10.7071 10.7071C10.5118 10.9024 10.2761 11 10 11L1 11C0.723858 11 0.488155 10.9024 0.292893 10.7071C0.0976311 10.5118 0 10.2761 0 10L0 2L0 2L0 2Z" id="Rectangle#3" fill="#399DFF" fill-rule="evenodd" stroke="none" />
      </g>
      <g id="Group-4" transform="translate(0 53.999996)">
        <path d="M0 2L0 1C0 0.723862 0.0976311 0.488152 0.292893 0.292892C0.488155 0.0976334 0.723858 0 1 0L10 0C10.2761 0 10.5118 0.0976334 10.7071 0.292892C10.9024 0.488152 11 0.723862 11 1L11 10C11 10.2761 10.9024 10.5118 10.7071 10.7071C10.5118 10.9024 10.2761 11 10 11L1 11C0.723858 11 0.488155 10.9024 0.292893 10.7071C0.0976311 10.5118 0 10.2761 0 10L0 2L0 2L0 2Z" id="Rectangle#4" fill="#399DFF" fill-rule="evenodd" stroke="none" />
      </g>
      <g id="Group-3" transform="translate(0 36)">
        <path d="M0 2L0 1C0 0.723858 0.0976311 0.488155 0.292893 0.292892C0.488155 0.0976296 0.723858 0 1 0L10 0C10.2761 0 10.5118 0.0976296 10.7071 0.292892C10.9024 0.488155 11 0.723858 11 1L11 10C11 10.2761 10.9024 10.5118 10.7071 10.7071C10.5118 10.9024 10.2761 11 10 11L1 11C0.723858 11 0.488155 10.9024 0.292893 10.7071C0.0976311 10.5118 0 10.2761 0 10L0 2L0 2L0 2Z" id="Rectangle#5" fill="#399DFF" fill-rule="evenodd" stroke="none" />
      </g>
      <g id="Group-2" transform="translate(0 18)">
        <path d="M0 2L0 1C0 0.723858 0.0976311 0.488155 0.292893 0.292892C0.488155 0.0976296 0.723858 0 1 0L10 0C10.2761 0 10.5118 0.0976296 10.7071 0.292892C10.9024 0.488155 11 0.723858 11 1L11 10C11 10.2761 10.9024 10.5118 10.7071 10.7071C10.5118 10.9024 10.2761 11 10 11L1 11C0.723858 11 0.488155 10.9024 0.292893 10.7071C0.0976311 10.5118 0 10.2761 0 10L0 2L0 2L0 2Z" id="Rectangle#1" fill="#399DFF" fill-rule="evenodd" stroke="none" />
      </g>
      <g id="Group-1">
        <path d="M0 2L0 1C0 0.723858 0.0976311 0.488155 0.292893 0.292892C0.488155 0.0976315 0.723858 0 1 0L10 0C10.2761 0 10.5118 0.0976315 10.7071 0.292892C10.9024 0.488155 11 0.723858 11 1L11 10C11 10.2761 10.9024 10.5118 10.7071 10.7071C10.5118 10.9024 10.2761 11 10 11L1 11C0.723858 11 0.488155 10.9024 0.292893 10.7071C0.0976311 10.5118 0 10.2761 0 10L0 2L0 2L0 2Z" id="Rectangle" fill="#399DFF" fill-rule="evenodd" stroke="none" />
      </g>
    </g>
    <g id="1-2-3-4-5-6-7-8-9-10-11-12-13" transform="translate(1.39 21.45)">
      <g id="1" fill="#FFFFFF">
        <path d="M5.6757 5.89645L5.6757 6.54857L2.8557 6.54857L2.8557 5.89645L3.88852 5.89645L3.88852 2.92487Q3.88852 2.74862 3.8991 2.5618L3.1659 3.17515Q3.10245 3.2245 3.04076 3.23684Q2.97907 3.24917 2.92444 3.2386Q2.8698 3.22803 2.8275 3.20159Q2.7852 3.17515 2.76405 3.14342L2.4891 2.76625L4.04362 1.44437L4.7592 1.44437L4.7592 5.89645L5.6757 5.89645Z" />
      </g>
      <g id="2" fill="#FFFFFF">
        <path d="M5.48535 23.7378Q5.62635 23.7378 5.70919 23.8171Q5.79203 23.8965 5.79203 24.0269L5.79203 24.5486L2.29522 24.5486L2.29522 24.2595Q2.29522 24.1714 2.33224 24.0745Q2.36925 23.9775 2.45032 23.9L3.9978 22.349Q4.19167 22.1516 4.34501 21.9718Q4.49835 21.792 4.60057 21.6158Q4.7028 21.4395 4.75744 21.258Q4.81207 21.0764 4.81207 20.8755Q4.81207 20.6922 4.7592 20.553Q4.70632 20.4137 4.60939 20.3186Q4.51245 20.2234 4.37674 20.1758Q4.24102 20.1282 4.07183 20.1282Q3.91672 20.1282 3.78454 20.1723Q3.65235 20.2163 3.55012 20.2957Q3.4479 20.375 3.3774 20.4807Q3.3069 20.5865 3.27165 20.7134Q3.21172 20.8755 3.11655 20.9284Q3.02137 20.9813 2.8416 20.9531L2.38335 20.872Q2.43622 20.5054 2.5878 20.2287Q2.73937 19.952 2.96674 19.7669Q3.1941 19.5819 3.48844 19.4884Q3.78277 19.395 4.12117 19.395Q4.47367 19.395 4.76625 19.499Q5.05882 19.603 5.2668 19.7933Q5.47477 19.9837 5.5911 20.2516Q5.70742 20.5195 5.70743 20.8473Q5.70743 21.1293 5.62459 21.369Q5.54175 21.6087 5.40251 21.8273Q5.26327 22.0458 5.07645 22.2503Q4.88962 22.4547 4.68517 22.6662L3.53602 23.84Q3.7017 23.7907 3.86561 23.7643Q4.02952 23.7378 4.17758 23.7378L5.48535 23.7378Z" />
      </g>
      <g id="3" fill="#FFFFFF">
        <path d="M2.40802 38.872Q2.4609 38.5054 2.61247 38.2287Q2.76405 37.952 2.99141 37.7669Q3.21877 37.5819 3.51311 37.4884Q3.80745 37.395 4.14585 37.395Q4.49835 37.395 4.78211 37.4955Q5.06588 37.596 5.2668 37.774Q5.46772 37.952 5.57524 38.1917Q5.68275 38.4314 5.68275 38.7099Q5.68275 38.9531 5.62811 39.1381Q5.57347 39.3232 5.47125 39.4607Q5.36903 39.5982 5.21745 39.6933Q5.06588 39.7885 4.87552 39.852Q5.33377 39.9965 5.55937 40.2926Q5.78498 40.5887 5.78498 41.0364Q5.78498 41.4171 5.64397 41.7096Q5.50297 42.0022 5.26328 42.2014Q5.02357 42.4005 4.70809 42.5028Q4.3926 42.605 4.0401 42.605Q3.65587 42.605 3.37035 42.5168Q3.08482 42.4287 2.87332 42.256Q2.66182 42.0833 2.51377 41.833Q2.36572 41.5827 2.25997 41.2549L2.6442 41.0963Q2.79577 41.0328 2.92796 41.0628Q3.06015 41.0928 3.12007 41.2056Q3.18352 41.3289 3.25931 41.4488Q3.3351 41.5686 3.44085 41.662Q3.5466 41.7555 3.68936 41.8136Q3.83212 41.8718 4.02952 41.8718Q4.2516 41.8718 4.41727 41.7995Q4.58295 41.7273 4.69399 41.6109Q4.80502 41.4946 4.85966 41.3518Q4.9143 41.2091 4.9143 41.0646Q4.9143 40.8813 4.87552 40.7314Q4.83675 40.5816 4.71338 40.4759Q4.59 40.3701 4.35911 40.3102Q4.12823 40.2503 3.74047 40.2503L3.74047 39.6299Q4.06125 39.6264 4.27275 39.57Q4.48425 39.5135 4.60939 39.4131Q4.73452 39.3126 4.78387 39.1716Q4.83322 39.0306 4.83323 38.8614Q4.83322 38.5019 4.6323 38.3151Q4.43137 38.1282 4.0965 38.1282Q3.9414 38.1282 3.81097 38.1723Q3.68055 38.2164 3.57656 38.2957Q3.47257 38.375 3.40207 38.4807Q3.33157 38.5865 3.29632 38.7134Q3.2364 38.8755 3.13946 38.9284Q3.04252 38.9813 2.86627 38.9531L2.40802 38.872Z" />
      </g>
      <g id="4" fill="#FFFFFF">
        <path d="M4.53712 58.6275L4.53712 56.9601Q4.53712 56.7239 4.56885 56.4384L2.98612 58.6275L4.53712 58.6275ZM5.93655 58.6275L5.93655 59.1315Q5.93655 59.202 5.89073 59.2531Q5.8449 59.3043 5.7603 59.3043L5.295 59.3043L5.295 60.5486L4.53712 60.5486L4.53712 59.3043L2.38687 59.3043Q2.29875 59.3043 2.23177 59.2496Q2.1648 59.195 2.14717 59.1139L2.05552 58.6733L4.47015 55.4479L5.295 55.4479L5.295 58.6275L5.93655 58.6275Z" />
      </g>
      <g id="5" fill="#FFFFFF">
        <path d="M3.45847 75.302Q3.62767 75.2668 3.78277 75.2509Q3.93787 75.2351 4.0824 75.2351Q4.48425 75.2351 4.79093 75.3549Q5.0976 75.4748 5.30557 75.6863Q5.51355 75.8978 5.6193 76.1815Q5.72505 76.4653 5.72505 76.7931Q5.72505 77.1985 5.58229 77.5334Q5.43952 77.8682 5.18573 78.1062Q4.93192 78.3441 4.58471 78.4745Q4.2375 78.605 3.8286 78.605Q3.5889 78.605 3.37387 78.5556Q3.15885 78.5063 2.97026 78.4234Q2.78167 78.3406 2.62129 78.2331Q2.4609 78.1256 2.334 78.0057L2.6019 77.6356Q2.6865 77.5158 2.82397 77.5158Q2.9121 77.5158 3.00375 77.5722Q3.0954 77.6285 3.21349 77.6955Q3.33157 77.7625 3.49196 77.8189Q3.65235 77.8753 3.87795 77.8753Q4.11765 77.8753 4.30095 77.7978Q4.48425 77.7202 4.60586 77.581Q4.72748 77.4417 4.78916 77.2496Q4.85085 77.0575 4.85085 76.8319Q4.85085 76.416 4.60939 76.1815Q4.36792 75.9471 3.89557 75.9471Q3.5325 75.9471 3.1518 76.0811L2.60895 75.926L3.03195 73.4514L5.5488 73.4514L5.5488 73.8215Q5.5488 74.0084 5.43248 74.1247Q5.31615 74.241 5.03767 74.241L3.63825 74.241L3.45847 75.302Z" />
      </g>
      <g id="6" fill="#FFFFFF">
        <path d="M3.86737 93.302L3.69112 93.5206Q3.83917 93.4466 4.01014 93.406Q4.1811 93.3655 4.3785 93.3655Q4.66755 93.3655 4.94074 93.4607Q5.21392 93.5559 5.4219 93.748Q5.62988 93.9401 5.75677 94.2256Q5.88367 94.5111 5.88368 94.8918Q5.88368 95.2478 5.75325 95.5598Q5.62282 95.8718 5.38665 96.1044Q5.15047 96.3371 4.81736 96.471Q4.48425 96.605 4.0824 96.605Q3.6735 96.605 3.3492 96.4745Q3.0249 96.3441 2.79577 96.1097Q2.56665 95.8753 2.44504 95.5457Q2.32342 95.2161 2.32342 94.8143Q2.32342 94.4547 2.46971 94.0758Q2.616 93.6969 2.92267 93.2879L4.1388 91.6559Q4.20225 91.5713 4.32386 91.5114Q4.44547 91.4514 4.6041 91.4514L5.3796 91.4514L3.86737 93.302ZM4.06477 95.8929Q4.27275 95.8929 4.44724 95.8224Q4.62173 95.7519 4.74686 95.625Q4.872 95.4981 4.9425 95.3272Q5.013 95.1562 5.013 94.9553Q5.013 94.7367 4.94602 94.5622Q4.87905 94.3877 4.75567 94.2661Q4.6323 94.1445 4.45957 94.0811Q4.28685 94.0176 4.07887 94.0176Q3.8709 94.0176 3.7017 94.0881Q3.5325 94.1586 3.41265 94.2838Q3.2928 94.4089 3.22582 94.5799Q3.15885 94.7508 3.15885 94.9482Q3.15885 95.1597 3.21701 95.3342Q3.27517 95.5087 3.38974 95.6321Q3.5043 95.7555 3.6735 95.8242Q3.8427 95.8929 4.06477 95.8929Z" />
      </g>
      <g id="7" fill="#FFFFFF">
        <path d="M5.87663 109.451L5.87663 109.829Q5.87663 109.998 5.84137 110.102Q5.80612 110.206 5.77087 110.276L3.83917 114.252Q3.77925 114.376 3.66997 114.462Q3.5607 114.549 3.3774 114.549L2.74642 114.549L4.7169 110.653Q4.78387 110.534 4.84909 110.433Q4.9143 110.333 4.99537 110.241L2.55607 110.241Q2.475 110.241 2.41507 110.181Q2.35515 110.121 2.35515 110.04L2.35515 109.451L5.87663 109.451Z" />
      </g>
      <g id="8" fill="#FFFFFF">
        <path d="M4.07183 131.925Q4.28685 131.925 4.449 131.863Q4.61115 131.801 4.72219 131.692Q4.83322 131.583 4.88962 131.431Q4.94602 131.28 4.94602 131.103Q4.94602 130.684 4.71338 130.469Q4.48072 130.254 4.07183 130.254Q3.66292 130.254 3.43027 130.469Q3.19762 130.684 3.19762 131.103Q3.19762 131.28 3.25402 131.431Q3.31042 131.583 3.42146 131.692Q3.5325 131.801 3.69465 131.863Q3.8568 131.925 4.07183 131.925ZM4.07183 128.051Q3.87795 128.051 3.73695 128.111Q3.59595 128.171 3.50254 128.271Q3.40912 128.371 3.36506 128.502Q3.321 128.632 3.321 128.777Q3.321 128.928 3.35801 129.071Q3.39502 129.214 3.48315 129.325Q3.57127 129.436 3.7158 129.503Q3.86032 129.57 4.07183 129.57Q4.28332 129.57 4.42785 129.503Q4.57237 129.436 4.6605 129.325Q4.74862 129.214 4.78564 129.071Q4.82265 128.928 4.82265 128.777Q4.82265 128.632 4.77682 128.502Q4.731 128.371 4.63935 128.271Q4.5477 128.171 4.4067 128.111Q4.2657 128.051 4.07183 128.051ZM4.93192 129.891Q5.39723 130.042 5.6193 130.354Q5.84137 130.666 5.84137 131.117Q5.84137 131.456 5.71271 131.731Q5.58405 132.006 5.3514 132.2Q5.11875 132.393 4.79269 132.499Q4.46662 132.605 4.07183 132.605Q3.67702 132.605 3.35096 132.499Q3.0249 132.393 2.79225 132.2Q2.5596 132.006 2.43094 131.731Q2.30227 131.456 2.30227 131.117Q2.30227 130.666 2.52435 130.354Q2.74642 130.042 3.21172 129.891Q2.8416 129.736 2.65654 129.45Q2.47147 129.165 2.47147 128.763Q2.47147 128.474 2.58956 128.223Q2.70765 127.973 2.91915 127.788Q3.13065 127.603 3.42499 127.499Q3.71932 127.395 4.07183 127.395Q4.42432 127.395 4.71866 127.499Q5.013 127.603 5.2245 127.788Q5.436 127.973 5.55409 128.223Q5.67217 128.474 5.67217 128.763Q5.67217 129.165 5.48711 129.45Q5.30205 129.736 4.93192 129.891Z" />
      </g>
      <g id="9" fill="#FFFFFF">
        <path d="M3.19057 146.981Q3.19057 147.408 3.41089 147.632Q3.6312 147.855 4.03657 147.855Q4.24807 147.855 4.41375 147.789Q4.57942 147.722 4.69222 147.605Q4.80503 147.489 4.86319 147.33Q4.92135 147.172 4.92135 146.988Q4.92135 146.78 4.8579 146.616Q4.79445 146.453 4.67812 146.34Q4.5618 146.227 4.40141 146.167Q4.24102 146.107 4.05067 146.107Q3.85327 146.107 3.69465 146.172Q3.53602 146.238 3.42322 146.354Q3.31042 146.47 3.2505 146.631Q3.19057 146.791 3.19057 146.981ZM4.34678 148.571Q4.4067 148.497 4.45957 148.427Q4.51245 148.356 4.5618 148.286Q4.38555 148.398 4.17405 148.456Q3.96255 148.515 3.7299 148.515Q3.46552 148.515 3.21172 148.423Q2.95792 148.331 2.76052 148.146Q2.56312 147.961 2.44151 147.688Q2.3199 147.415 2.3199 147.048Q2.3199 146.706 2.4468 146.407Q2.5737 146.107 2.80282 145.881Q3.03195 145.656 3.35272 145.525Q3.6735 145.395 4.06125 145.395Q4.45253 145.395 4.76449 145.518Q5.07645 145.642 5.29676 145.864Q5.51708 146.086 5.63516 146.396Q5.75325 146.706 5.75325 147.076Q5.75325 147.313 5.71271 147.524Q5.67217 147.736 5.59815 147.931Q5.52412 148.127 5.41838 148.314Q5.31262 148.501 5.1822 148.684L4.01542 150.348Q3.9555 150.432 3.83565 150.49Q3.7158 150.549 3.56422 150.549L2.76405 150.549L4.34678 148.571Z" />
      </g>
      <g id="10" fill="#FFFFFF">
        <path d="M7.84181 167.158Q7.98457 166.666 7.98458 166Q7.98457 165.33 7.84181 164.84Q7.69905 164.35 7.44701 164.03Q7.19497 163.709 6.85129 163.552Q6.5076 163.395 6.10927 163.395Q5.71095 163.395 5.37079 163.552Q5.03063 163.709 4.78035 164.03Q4.53008 164.35 4.38908 164.84Q4.24808 165.33 4.24808 166Q4.24808 166.666 4.38908 167.158Q4.53008 167.65 4.78035 167.97Q5.03063 168.291 5.37079 168.448Q5.71095 168.605 6.10927 168.605Q6.5076 168.605 6.85129 168.448Q7.19497 168.291 7.44701 167.97Q7.69905 167.65 7.84181 167.158ZM3.6312 168.549L3.6312 167.896L2.7147 167.896L2.7147 163.444L1.99913 163.444L0.4446 164.766L0.71955 165.143Q0.7407 165.175 0.783 165.202Q0.8253 165.228 0.879937 165.239Q0.934575 165.249 0.996262 165.237Q1.05795 165.225 1.1214 165.175L1.8546 164.562Q1.84402 164.749 1.84402 164.925L1.84402 167.896L0.8112 167.896L0.8112 168.549L3.6312 168.549ZM7.00463 165.084Q7.0857 165.447 7.0857 166Q7.0857 166.553 7.00463 166.917Q6.92355 167.28 6.78784 167.495Q6.65213 167.71 6.47587 167.796Q6.29962 167.882 6.10927 167.882Q5.92245 167.882 5.74796 167.796Q5.57347 167.71 5.43953 167.495Q5.30557 167.28 5.22626 166.917Q5.14695 166.553 5.14695 166Q5.14695 165.447 5.22626 165.084Q5.30557 164.72 5.43953 164.505Q5.57347 164.29 5.74796 164.204Q5.92245 164.118 6.10927 164.118Q6.29962 164.118 6.47587 164.204Q6.65213 164.29 6.78784 164.505Q6.92355 164.72 7.00463 165.084Z" />
      </g>
      <g id="11" fill="#FFFFFF">
        <path d="M3.6312 186.549L3.6312 185.896L2.7147 185.896L2.7147 181.444L1.99913 181.444L0.4446 182.766L0.71955 183.143Q0.7407 183.175 0.783 183.202Q0.8253 183.228 0.879937 183.239Q0.934575 183.249 0.996262 183.237Q1.05795 183.225 1.1214 183.175L1.8546 182.562Q1.84402 182.749 1.84402 182.925L1.84402 185.896L0.8112 185.896L0.8112 186.549L3.6312 186.549ZM7.7202 186.549L7.7202 185.896L6.8037 185.896L6.8037 181.444L6.08813 181.444L4.5336 182.766L4.80855 183.143Q4.8297 183.175 4.872 183.202Q4.9143 183.228 4.96894 183.239Q5.02357 183.249 5.08526 183.237Q5.14695 183.225 5.2104 183.175L5.9436 182.562Q5.93303 182.749 5.93303 182.925L5.93303 185.896L4.9002 185.896L4.9002 186.549L7.7202 186.549Z" />
      </g>
      <g id="12" fill="#FFFFFF">
        <path d="M7.75369 203.817Q7.67085 203.738 7.52985 203.738L6.22208 203.738Q6.07403 203.738 5.91011 203.764Q5.7462 203.791 5.58053 203.84L6.72968 202.666Q6.93412 202.455 7.12095 202.25Q7.30778 202.046 7.44701 201.827Q7.58625 201.609 7.66909 201.369Q7.75193 201.129 7.75193 200.847Q7.75192 200.52 7.6356 200.252Q7.51928 199.984 7.3113 199.793Q7.10332 199.603 6.81075 199.499Q6.51818 199.395 6.16568 199.395Q5.82728 199.395 5.53294 199.488Q5.2386 199.582 5.01124 199.767Q4.78387 199.952 4.6323 200.229Q4.48072 200.505 4.42785 200.872L4.8861 200.953Q5.06588 200.981 5.16105 200.928Q5.25623 200.876 5.31615 200.713Q5.3514 200.586 5.4219 200.481Q5.4924 200.375 5.59462 200.296Q5.69685 200.216 5.82904 200.172Q5.96123 200.128 6.11633 200.128Q6.28553 200.128 6.42124 200.176Q6.55695 200.223 6.65389 200.319Q6.75082 200.414 6.8037 200.553Q6.85658 200.692 6.85658 200.876Q6.85658 201.076 6.80194 201.258Q6.7473 201.44 6.64507 201.616Q6.54285 201.792 6.38951 201.972Q6.23618 202.152 6.0423 202.349L4.49482 203.9Q4.41375 203.978 4.37674 204.074Q4.33973 204.171 4.33973 204.26L4.33973 204.549L7.83653 204.549L7.83653 204.027Q7.83653 203.896 7.75369 203.817ZM3.6312 204.549L3.6312 203.896L2.7147 203.896L2.7147 199.444L1.99913 199.444L0.4446 200.766L0.71955 201.143Q0.7407 201.175 0.783 201.202Q0.8253 201.228 0.879937 201.239Q0.934575 201.249 0.996262 201.237Q1.05795 201.225 1.1214 201.175L1.8546 200.562Q1.84402 200.749 1.84402 200.925L1.84402 203.896L0.8112 203.896L0.8112 204.549L3.6312 204.549Z" />
      </g>
      <g id="13" fill="#FFFFFF">
        <path d="M4.65698 218.229Q4.5054 218.505 4.45253 218.872L4.91078 218.953Q5.08703 218.981 5.18396 218.928Q5.2809 218.876 5.34083 218.713Q5.37607 218.586 5.44658 218.481Q5.51708 218.375 5.62106 218.296Q5.72505 218.216 5.85548 218.172Q5.9859 218.128 6.141 218.128Q6.47587 218.128 6.6768 218.315Q6.87773 218.502 6.87773 218.861Q6.87772 219.031 6.82838 219.172Q6.77903 219.313 6.65389 219.413Q6.52875 219.514 6.31725 219.57Q6.10575 219.626 5.78498 219.63L5.78498 220.25Q6.17273 220.25 6.40361 220.31Q6.6345 220.37 6.75788 220.476Q6.88125 220.582 6.92002 220.731Q6.9588 220.881 6.9588 221.065Q6.9588 221.209 6.90416 221.352Q6.84952 221.495 6.73849 221.611Q6.62745 221.727 6.46178 221.8Q6.2961 221.872 6.07403 221.872Q5.87663 221.872 5.73386 221.814Q5.5911 221.755 5.48535 221.662Q5.3796 221.569 5.30381 221.449Q5.22802 221.329 5.16458 221.206Q5.10465 221.093 4.97246 221.063Q4.84027 221.033 4.6887 221.096L4.30447 221.255Q4.41022 221.583 4.55828 221.833Q4.70633 222.083 4.91783 222.256Q5.12932 222.429 5.41485 222.517Q5.70038 222.605 6.0846 222.605Q6.4371 222.605 6.75259 222.503Q7.06808 222.401 7.30778 222.201Q7.54747 222.002 7.68848 221.71Q7.82948 221.417 7.82948 221.036Q7.82948 220.589 7.60388 220.293Q7.37827 219.996 6.92002 219.852Q7.11038 219.789 7.26195 219.693Q7.41353 219.598 7.51575 219.461Q7.61797 219.323 7.67261 219.138Q7.72725 218.953 7.72725 218.71Q7.72725 218.431 7.61974 218.192Q7.51223 217.952 7.3113 217.774Q7.11038 217.596 6.82661 217.495Q6.54285 217.395 6.19035 217.395Q5.85195 217.395 5.55761 217.488Q5.26328 217.582 5.03591 217.767Q4.80855 217.952 4.65698 218.229ZM3.6312 222.549L3.6312 221.896L2.7147 221.896L2.7147 217.444L1.99913 217.444L0.4446 218.766L0.71955 219.143Q0.7407 219.175 0.783 219.202Q0.8253 219.228 0.879937 219.239Q0.934575 219.249 0.996262 219.237Q1.05795 219.225 1.1214 219.175L1.8546 218.562Q1.84402 218.749 1.84402 218.925L1.84402 221.896L0.8112 221.896L0.8112 222.549L3.6312 222.549Z" />
      </g>
      <g id="14" fill="#FFFFFF">
        <path d="M3.6312 240.549L3.6312 239.896L2.7147 239.896L2.7147 235.444L1.99913 235.444L0.4446 236.766L0.71955 237.143Q0.7407 237.175 0.783 237.202Q0.8253 237.228 0.879937 237.239Q0.934575 237.249 0.996262 237.237Q1.05795 237.225 1.1214 237.175L1.8546 236.562Q1.84402 236.749 1.84402 236.925L1.84402 239.896L0.8112 239.896L0.8112 240.549L3.6312 240.549ZM7.98105 239.132L7.98105 238.627L7.3395 238.627L7.3395 235.448L6.51465 235.448L4.10003 238.673L4.19168 239.114Q4.2093 239.195 4.27628 239.25Q4.34325 239.304 4.43138 239.304L6.58162 239.304L6.58162 240.549L7.3395 240.549L7.3395 239.304L7.8048 239.304Q7.8894 239.304 7.93523 239.253Q7.98105 239.202 7.98105 239.132ZM6.58162 236.96L6.58162 238.627L5.03063 238.627L6.61335 236.438Q6.58162 236.724 6.58162 236.96Z" />
      </g>
      <g id="15" fill="#FFFFFF">
        <path d="M3.6312 258.549L3.6312 257.896L2.7147 257.896L2.7147 253.444L1.99913 253.444L0.4446 254.766L0.71955 255.143Q0.7407 255.175 0.783 255.202Q0.8253 255.228 0.879937 255.239Q0.934575 255.249 0.996262 255.237Q1.05795 255.225 1.1214 255.175L1.8546 254.562Q1.84402 254.749 1.84402 254.925L1.84402 257.896L0.8112 257.896L0.8112 258.549L3.6312 258.549ZM5.82728 255.251Q5.67218 255.267 5.50297 255.302L5.68275 254.241L7.08218 254.241Q7.36065 254.241 7.47698 254.125Q7.5933 254.008 7.5933 253.822L7.5933 253.451L5.07645 253.451L4.65345 255.926L5.1963 256.081Q5.577 255.947 5.94007 255.947Q6.41243 255.947 6.65389 256.182Q6.89535 256.416 6.89535 256.832Q6.89535 257.057 6.83366 257.25Q6.77198 257.442 6.65036 257.581Q6.52875 257.72 6.34545 257.798Q6.16215 257.875 5.92245 257.875Q5.69685 257.875 5.53646 257.819Q5.37607 257.763 5.25799 257.696Q5.1399 257.629 5.04825 257.572Q4.9566 257.516 4.86847 257.516Q4.731 257.516 4.6464 257.636L4.3785 258.006Q4.5054 258.126 4.66579 258.233Q4.82618 258.341 5.01476 258.423Q5.20335 258.506 5.41838 258.556Q5.6334 258.605 5.8731 258.605Q6.282 258.605 6.62921 258.475Q6.97643 258.344 7.23023 258.106Q7.48403 257.868 7.62679 257.533Q7.76955 257.199 7.76955 256.793Q7.76955 256.465 7.6638 256.182Q7.55805 255.898 7.35008 255.686Q7.1421 255.475 6.83543 255.355Q6.52875 255.235 6.1269 255.235Q5.98238 255.235 5.82728 255.251Z" />
      </g>
      <g id="16" fill="#FFFFFF">
        <path d="M3.6312 276.549L3.6312 275.896L2.7147 275.896L2.7147 271.444L1.99913 271.444L0.4446 272.766L0.71955 273.143Q0.7407 273.175 0.783 273.202Q0.8253 273.228 0.879937 273.239Q0.934575 273.249 0.996262 273.237Q1.05795 273.225 1.1214 273.175L1.8546 272.562Q1.84402 272.749 1.84402 272.925L1.84402 275.896L0.8112 275.896L0.8112 276.549L3.6312 276.549ZM5.73563 273.521L5.91188 273.302L7.4241 271.451L6.6486 271.451Q6.48997 271.451 6.36836 271.511Q6.24675 271.571 6.1833 271.656L4.96718 273.288Q4.6605 273.697 4.51421 274.076Q4.36793 274.455 4.36793 274.814Q4.36793 275.216 4.48954 275.546Q4.61115 275.875 4.84028 276.11Q5.0694 276.344 5.3937 276.475Q5.718 276.605 6.1269 276.605Q6.52875 276.605 6.86186 276.471Q7.19497 276.337 7.43115 276.104Q7.66733 275.872 7.79775 275.56Q7.92818 275.248 7.92818 274.892Q7.92817 274.511 7.80128 274.226Q7.67438 273.94 7.4664 273.748Q7.25842 273.556 6.98524 273.461Q6.71205 273.366 6.423 273.366Q6.2256 273.366 6.05464 273.406Q5.88368 273.447 5.73563 273.521ZM6.49174 275.822Q6.31725 275.893 6.10927 275.893Q5.8872 275.893 5.718 275.824Q5.5488 275.755 5.43424 275.632Q5.31967 275.509 5.26151 275.334Q5.20335 275.16 5.20335 274.948Q5.20335 274.751 5.27033 274.58Q5.3373 274.409 5.45715 274.284Q5.577 274.159 5.7462 274.088Q5.9154 274.018 6.12337 274.018Q6.33135 274.018 6.50408 274.081Q6.6768 274.145 6.80018 274.266Q6.92355 274.388 6.99053 274.562Q7.0575 274.737 7.0575 274.955Q7.0575 275.156 6.987 275.327Q6.9165 275.498 6.79136 275.625Q6.66623 275.752 6.49174 275.822Z" />
      </g>
    </g>
  </g>
</svg>