<svg width="56" height="48" viewBox="0 0 56 48" fill="none" xmlns="http://www.w3.org/2000/svg">
<path d="M11.5 17C14.5376 17 17 14.3137 17 11C17 7.68629 14.5376 5 11.5 5C8.46243 5 6 7.68629 6 11C6 14.3137 8.46243 17 11.5 17Z" fill="url(#paint0_linear)"/>
<path opacity="0.3" d="M11.5 17C16.1944 17 20 13.1944 20 8.5C20 3.80558 16.1944 0 11.5 0C6.80558 0 3 3.80558 3 8.5C3 13.1944 6.80558 17 11.5 17Z" fill="url(#paint1_linear)"/>
<path d="M11.5 14C14.5376 14 17 11.5376 17 8.5C17 5.46243 14.5376 3 11.5 3C8.46243 3 6 5.46243 6 8.5C6 11.5376 8.46243 14 11.5 14Z" fill="url(#paint2_linear)"/>
<path opacity="0.2" d="M11 7.75L11 9.75C11 10.0261 11.2239 10.25 11.5 10.25C11.7761 10.25 12 10.0261 12 9.75L12 7.75C12 7.47386 11.7761 7.25 11.5 7.25C11.2239 7.25 11 7.47386 11 7.75Z" fill="#EEEEEE"/>
<path d="M11 7.5L11 9.5C11 9.77614 11.2239 10 11.5 10C11.7761 10 12 9.77614 12 9.5L12 7.5C12 7.22386 11.7761 7 11.5 7C11.2239 7 11 7.22386 11 7.5Z" fill="#1F1F1F"/>
<path d="M11.5 41C14.5376 41 17 38.3137 17 35C17 31.6863 14.5376 29 11.5 29C8.46243 29 6 31.6863 6 35C6 38.3137 8.46243 41 11.5 41Z" fill="url(#paint3_linear)"/>
<path opacity="0.3" d="M11.5 41C16.1944 41 20 37.1944 20 32.5C20 27.8056 16.1944 24 11.5 24C6.80558 24 3 27.8056 3 32.5C3 37.1944 6.80558 41 11.5 41Z" fill="url(#paint4_linear)"/>
<path d="M11.5 38C14.5376 38 17 35.5376 17 32.5C17 29.4624 14.5376 27 11.5 27C8.46243 27 6 29.4624 6 32.5C6 35.5376 8.46243 38 11.5 38Z" fill="url(#paint5_linear)"/>
<path opacity="0.2" d="M11 31.75L11 33.75C11 34.0261 11.2239 34.25 11.5 34.25C11.7761 34.25 12 34.0261 12 33.75L12 31.75C12 31.4739 11.7761 31.25 11.5 31.25C11.2239 31.25 11 31.4739 11 31.75Z" fill="#EEEEEE"/>
<path d="M11 31.5L11 33.5C11 33.7761 11.2239 34 11.5 34C11.7761 34 12 33.7761 12 33.5L12 31.5C12 31.2239 11.7761 31 11.5 31C11.2239 31 11 31.2239 11 31.5Z" fill="#1F1F1F"/>
<path d="M39.5 17C42.5376 17 45 14.3137 45 11C45 7.68629 42.5376 5 39.5 5C36.4624 5 34 7.68629 34 11C34 14.3137 36.4624 17 39.5 17Z" fill="url(#paint6_linear)"/>
<path opacity="0.3" d="M39.5 17C44.1944 17 48 13.1944 48 8.5C48 3.80558 44.1944 0 39.5 0C34.8056 0 31 3.80558 31 8.5C31 13.1944 34.8056 17 39.5 17Z" fill="url(#paint7_linear)"/>
<path d="M39.5 14C42.5376 14 45 11.5376 45 8.5C45 5.46243 42.5376 3 39.5 3C36.4624 3 34 5.46243 34 8.5C34 11.5376 36.4624 14 39.5 14Z" fill="url(#paint8_linear)"/>
<path opacity="0.2" d="M39 7.75L39 9.75C39 10.0261 39.2239 10.25 39.5 10.25C39.7761 10.25 40 10.0261 40 9.75L40 7.75C40 7.47386 39.7761 7.25 39.5 7.25C39.2239 7.25 39 7.47386 39 7.75Z" fill="#EEEEEE"/>
<path d="M39 7.5L39 9.5C39 9.77614 39.2239 10 39.5 10C39.7761 10 40 9.77614 40 9.5L40 7.5C40 7.22386 39.7761 7 39.5 7C39.2239 7 39 7.22386 39 7.5Z" fill="#1F1F1F"/>
<path d="M39.5 41C42.5376 41 45 38.3137 45 35C45 31.6863 42.5376 29 39.5 29C36.4624 29 34 31.6863 34 35C34 38.3137 36.4624 41 39.5 41Z" fill="url(#paint9_linear)"/>
<path opacity="0.3" d="M39.5 41C44.1944 41 48 37.1944 48 32.5C48 27.8056 44.1944 24 39.5 24C34.8056 24 31 27.8056 31 32.5C31 37.1944 34.8056 41 39.5 41Z" fill="url(#paint10_linear)"/>
<path d="M39.5 38C42.5376 38 45 35.5376 45 32.5C45 29.4624 42.5376 27 39.5 27C36.4624 27 34 29.4624 34 32.5C34 35.5376 36.4624 38 39.5 38Z" fill="url(#paint11_linear)"/>
<path opacity="0.2" d="M39 31.75L39 33.75C39 34.0261 39.2239 34.25 39.5 34.25C39.7761 34.25 40 34.0261 40 33.75L40 31.75C40 31.4739 39.7761 31.25 39.5 31.25C39.2239 31.25 39 31.4739 39 31.75Z" fill="#EEEEEE"/>
<path d="M39 31.5L39 33.5C39 33.7761 39.2239 34 39.5 34C39.7761 34 40 33.7761 40 33.5L40 31.5C40 31.2239 39.7761 31 39.5 31C39.2239 31 39 31.2239 39 31.5Z" fill="#1F1F1F"/>
<defs>
<linearGradient id="paint0_linear" x1="11.5" y1="11" x2="11.5" y2="17" gradientUnits="userSpaceOnUse">
<stop offset="0.520833"/>
<stop offset="1" stop-opacity="0"/>
</linearGradient>
<linearGradient id="paint1_linear" x1="11.5" y1="0" x2="11.5" y2="17" gradientUnits="userSpaceOnUse">
<stop stop-color="#E0E0E0"/>
<stop offset="1" stop-color="#A0A0A0"/>
</linearGradient>
<linearGradient id="paint2_linear" x1="11.5" y1="3" x2="11.5" y2="14" gradientUnits="userSpaceOnUse">
<stop stop-color="#E0E0E0"/>
<stop offset="1" stop-color="#A0A0A0"/>
</linearGradient>
<linearGradient id="paint3_linear" x1="11.5" y1="35" x2="11.5" y2="41" gradientUnits="userSpaceOnUse">
<stop offset="0.520833"/>
<stop offset="1" stop-opacity="0"/>
</linearGradient>
<linearGradient id="paint4_linear" x1="11.5" y1="24" x2="11.5" y2="41" gradientUnits="userSpaceOnUse">
<stop stop-color="#E0E0E0"/>
<stop offset="1" stop-color="#A0A0A0"/>
</linearGradient>
<linearGradient id="paint5_linear" x1="11.5" y1="27" x2="11.5" y2="38" gradientUnits="userSpaceOnUse">
<stop stop-color="#E0E0E0"/>
<stop offset="1" stop-color="#A0A0A0"/>
</linearGradient>
<linearGradient id="paint6_linear" x1="39.5" y1="11" x2="39.5" y2="17" gradientUnits="userSpaceOnUse">
<stop offset="0.520833"/>
<stop offset="1" stop-opacity="0"/>
</linearGradient>
<linearGradient id="paint7_linear" x1="39.5" y1="0" x2="39.5" y2="17" gradientUnits="userSpaceOnUse">
<stop stop-color="#8BCC56"/>
<stop offset="1" stop-color="#71A646"/>
</linearGradient>
<linearGradient id="paint8_linear" x1="39.5" y1="3" x2="39.5" y2="14" gradientUnits="userSpaceOnUse">
<stop stop-color="#8BCC56"/>
<stop offset="1" stop-color="#71A646"/>
</linearGradient>
<linearGradient id="paint9_linear" x1="39.5" y1="35" x2="39.5" y2="41" gradientUnits="userSpaceOnUse">
<stop offset="0.520833"/>
<stop offset="1" stop-opacity="0"/>
</linearGradient>
<linearGradient id="paint10_linear" x1="39.5" y1="24" x2="39.5" y2="41" gradientUnits="userSpaceOnUse">
<stop stop-color="#8BCC56"/>
<stop offset="1" stop-color="#71A646"/>
</linearGradient>
<linearGradient id="paint11_linear" x1="39.5" y1="27" x2="39.5" y2="38" gradientUnits="userSpaceOnUse">
<stop stop-color="#8BCC56"/>
<stop offset="1" stop-color="#71A646"/>
</linearGradient>
</defs>
</svg>
