<svg width="18" height="22" viewBox="0 0 18 22" fill="none" xmlns="http://www.w3.org/2000/svg">
<rect x="1.5" y="1.5" width="15" height="8" rx="1" fill="#399DFF"/>
<rect x="1.5" y="1.5" width="15" height="8" rx="1" stroke="black"/>
<path d="M10.373 3.9365C10.338 3.9925 10.3007 4.0345 10.261 4.0625C10.2237 4.0905 10.1747 4.1045 10.114 4.1045C10.0603 4.1045 10.002 4.08817 9.93901 4.0555C9.87835 4.0205 9.80835 3.982 9.72901 3.94C9.65201 3.898 9.56335 3.86067 9.46301 3.828C9.36268 3.793 9.24835 3.7755 9.12001 3.7755C8.89835 3.7755 8.73268 3.82333 8.62301 3.919C8.51568 4.01233 8.46201 4.1395 8.46201 4.3005C8.46201 4.40317 8.49468 4.48833 8.56001 4.556C8.62535 4.62367 8.71051 4.682 8.81551 4.731C8.92285 4.78 9.04418 4.8255 9.17951 4.8675C9.31718 4.90717 9.45718 4.95267 9.59951 5.004C9.74185 5.053 9.88068 5.11133 10.016 5.179C10.1537 5.24667 10.275 5.333 10.38 5.438C10.4873 5.543 10.5737 5.67133 10.639 5.823C10.7043 5.97233 10.737 6.15317 10.737 6.3655C10.737 6.60117 10.6962 6.82167 10.6145 7.027C10.5328 7.23233 10.4138 7.412 10.2575 7.566C10.1035 7.71767 9.91218 7.83783 9.68351 7.9265C9.45718 8.01283 9.19935 8.056 8.91001 8.056C8.75135 8.056 8.58918 8.03967 8.42351 8.007C8.26018 7.97433 8.10151 7.92883 7.94751 7.8705C7.79351 7.80983 7.64885 7.73867 7.51351 7.657C7.37818 7.57533 7.26035 7.48433 7.16001 7.384L7.51001 6.831C7.53801 6.79133 7.57418 6.75867 7.61851 6.733C7.66518 6.705 7.71535 6.691 7.76901 6.691C7.83901 6.691 7.90901 6.71317 7.97901 6.7575C8.05135 6.80183 8.13185 6.85083 8.22051 6.9045C8.31151 6.95817 8.41535 7.00717 8.53201 7.0515C8.64868 7.09583 8.78635 7.118 8.94501 7.118C9.15968 7.118 9.32651 7.07133 9.44551 6.978C9.56451 6.88233 9.62401 6.73183 9.62401 6.5265C9.62401 6.4075 9.59135 6.31067 9.52601 6.236C9.46068 6.16133 9.37435 6.0995 9.26701 6.0505C9.16201 6.0015 9.04185 5.95833 8.90651 5.921C8.77118 5.88367 8.63235 5.84283 8.49001 5.7985C8.34768 5.75183 8.20885 5.69583 8.07351 5.6305C7.93818 5.56283 7.81685 5.47533 7.70951 5.368C7.60451 5.25833 7.51935 5.123 7.45401 4.962C7.38868 4.79867 7.35601 4.598 7.35601 4.36C7.35601 4.16867 7.39451 3.982 7.47151 3.8C7.54851 3.618 7.66168 3.45583 7.81101 3.3135C7.96035 3.17117 8.14351 3.058 8.36051 2.974C8.57751 2.88767 8.82601 2.8445 9.10601 2.8445C9.26235 2.8445 9.41401 2.85733 9.56101 2.883C9.71035 2.90633 9.85151 2.9425 9.98451 2.9915C10.1175 3.03817 10.2412 3.09533 10.3555 3.163C10.4722 3.22833 10.576 3.303 10.667 3.387L10.373 3.9365Z" fill="white"/>
<rect x="1.5" y="12.5" width="15" height="8" rx="1" fill="#FF9300"/>
<rect x="1.5" y="12.5" width="15" height="8" rx="1" stroke="white"/>
<path d="M10.373 14.9365C10.338 14.9925 10.3007 15.0345 10.261 15.0625C10.2237 15.0905 10.1747 15.1045 10.114 15.1045C10.0603 15.1045 10.002 15.0882 9.93901 15.0555C9.87835 15.0205 9.80835 14.982 9.72901 14.94C9.65201 14.898 9.56335 14.8607 9.46301 14.828C9.36268 14.793 9.24835 14.7755 9.12001 14.7755C8.89835 14.7755 8.73268 14.8233 8.62301 14.919C8.51568 15.0123 8.46201 15.1395 8.46201 15.3005C8.46201 15.4032 8.49468 15.4883 8.56001 15.556C8.62535 15.6237 8.71051 15.682 8.81551 15.731C8.92285 15.78 9.04418 15.8255 9.17951 15.8675C9.31718 15.9072 9.45718 15.9527 9.59951 16.004C9.74185 16.053 9.88068 16.1113 10.016 16.179C10.1537 16.2467 10.275 16.333 10.38 16.438C10.4873 16.543 10.5737 16.6713 10.639 16.823C10.7043 16.9723 10.737 17.1532 10.737 17.3655C10.737 17.6012 10.6962 17.8217 10.6145 18.027C10.5328 18.2323 10.4138 18.412 10.2575 18.566C10.1035 18.7177 9.91218 18.8378 9.68351 18.9265C9.45718 19.0128 9.19935 19.056 8.91001 19.056C8.75135 19.056 8.58918 19.0397 8.42351 19.007C8.26018 18.9743 8.10151 18.9288 7.94751 18.8705C7.79351 18.8098 7.64885 18.7387 7.51351 18.657C7.37818 18.5753 7.26035 18.4843 7.16001 18.384L7.51001 17.831C7.53801 17.7913 7.57418 17.7587 7.61851 17.733C7.66518 17.705 7.71535 17.691 7.76901 17.691C7.83901 17.691 7.90901 17.7132 7.97901 17.7575C8.05135 17.8018 8.13185 17.8508 8.22051 17.9045C8.31151 17.9582 8.41535 18.0072 8.53201 18.0515C8.64868 18.0958 8.78635 18.118 8.94501 18.118C9.15968 18.118 9.32651 18.0713 9.44551 17.978C9.56451 17.8823 9.62401 17.7318 9.62401 17.5265C9.62401 17.4075 9.59135 17.3107 9.52601 17.236C9.46068 17.1613 9.37435 17.0995 9.26701 17.0505C9.16201 17.0015 9.04185 16.9583 8.90651 16.921C8.77118 16.8837 8.63235 16.8428 8.49001 16.7985C8.34768 16.7518 8.20885 16.6958 8.07351 16.6305C7.93818 16.5628 7.81685 16.4753 7.70951 16.368C7.60451 16.2583 7.51935 16.123 7.45401 15.962C7.38868 15.7987 7.35601 15.598 7.35601 15.36C7.35601 15.1687 7.39451 14.982 7.47151 14.8C7.54851 14.618 7.66168 14.4558 7.81101 14.3135C7.96035 14.1712 8.14351 14.058 8.36051 13.974C8.57751 13.8877 8.82601 13.8445 9.10601 13.8445C9.26235 13.8445 9.41401 13.8573 9.56101 13.883C9.71035 13.9063 9.85151 13.9425 9.98451 13.9915C10.1175 14.0382 10.2412 14.0953 10.3555 14.163C10.4722 14.2283 10.576 14.303 10.667 14.387L10.373 14.9365Z" fill="black"/>
</svg>
