<?xml version="1.0" encoding="utf-8"?>
<svg width="22px" height="30px" viewBox="0 0 22 30" version="1.1" xmlns="http://www.w3.org/2000/svg">
  <g id="bmp00134" stroke="none" stroke-width="1" fill="none" fill-rule="evenodd">
    <rect id="Rectangle" fill-opacity="0.54" fill="#FFFFFF" x="4" y="4" width="14" height="7"/>
    <rect id="Rectangle" fill-opacity="0.523299" fill="#FFFFFF" x="4" y="4" width="14" height="1"/>
    <rect id="Rectangle" fill-opacity="0.523299" fill="#FFFFFF" x="4" y="10" width="14" height="1"/>
    <rect id="Rectangle" fill="#59abf6" x="4" y="19" width="14" height="7"/>
    <rect id="Rectangle" fill-opacity="0.423299" fill="#FFFFFF" x="4" y="19" width="14" height="1"/>
    <rect id="Rectangle" fill-opacity="0.423299" fill="#FFFFFF" x="4" y="25" width="14" height="1"/>
    <path d="M13.913,5.102875 L13.913,10 L13.018625,10 L13.018625,6.992875 C13.018625,6.92987468 13.0203125,6.86237536 13.0236875,6.790375 C13.0270625,6.71837464 13.03325,6.64525037 13.04225,6.571 L11.641625,9.227125 C11.5651246,9.37337573 11.4470008,9.4465 11.28725,9.4465 L11.1455,9.4465 C11.0667496,9.4465 10.9970003,9.42793769 10.93625,9.3908125 C10.8754997,9.35368731 10.8271252,9.29912536 10.791125,9.227125 L9.38375,6.560875 C9.39050003,6.63962539 9.39612498,6.71556213 9.400625,6.7886875 C9.40512502,6.86181287 9.407375,6.92987468 9.407375,6.992875 L9.407375,10 L8.513,10 L8.513,5.102875 L9.2825,5.102875 C9.32525021,5.102875 9.36349983,5.10399999 9.39725,5.10625 C9.43100017,5.10850001 9.46081237,5.11468745 9.4866875,5.1248125 C9.51256263,5.13493755 9.53618739,5.15068739 9.5575625,5.1720625 C9.57893761,5.19343761 9.5997499,5.22324981 9.62,5.2615 L10.99025,7.87375 C11.0330002,7.95250039 11.0729373,8.03349958 11.1100625,8.11675 C11.1471877,8.20000042 11.1826248,8.28549956 11.216375,8.37325 C11.2501252,8.28324955 11.2855623,8.19550043 11.3226875,8.11 C11.3598127,8.02449957 11.3997498,7.94237539 11.4425,7.863625 L12.802625,5.2615 C12.8228751,5.22324981 12.8442499,5.19343761 12.86675,5.1720625 C12.8892501,5.15068739 12.9134374,5.13493755 12.9393125,5.1248125 C12.9651876,5.11468745 12.9944373,5.10850001 13.0270625,5.10625 C13.0596877,5.10399999 13.0984998,5.102875 13.1435,5.102875 L13.913,5.102875 Z" id="M" fill="#656560" fill-rule="nonzero"/>
    <path d="M13.913,20.102875 L13.913,25 L13.018625,25 L13.018625,21.992875 C13.018625,21.9298747 13.0203125,21.8623754 13.0236875,21.790375 C13.0270625,21.7183746 13.03325,21.6452504 13.04225,21.571 L11.641625,24.227125 C11.5651246,24.3733757 11.4470008,24.4465 11.28725,24.4465 L11.1455,24.4465 C11.0667496,24.4465 10.9970003,24.4279377 10.93625,24.3908125 C10.8754997,24.3536873 10.8271252,24.2991254 10.791125,24.227125 L9.38375,21.560875 C9.39050003,21.6396254 9.39612498,21.7155621 9.400625,21.7886875 C9.40512502,21.8618129 9.407375,21.9298747 9.407375,21.992875 L9.407375,25 L8.513,25 L8.513,20.102875 L9.2825,20.102875 C9.32525021,20.102875 9.36349983,20.104 9.39725,20.10625 C9.43100017,20.1085 9.46081237,20.1146874 9.4866875,20.1248125 C9.51256263,20.1349376 9.53618739,20.1506874 9.5575625,20.1720625 C9.57893761,20.1934376 9.5997499,20.2232498 9.62,20.2615 L10.99025,22.87375 C11.0330002,22.9525004 11.0729373,23.0334996 11.1100625,23.11675 C11.1471877,23.2000004 11.1826248,23.2854996 11.216375,23.37325 C11.2501252,23.2832496 11.2855623,23.1955004 11.3226875,23.11 C11.3598127,23.0244996 11.3997498,22.9423754 11.4425,22.863625 L12.802625,20.2615 C12.8228751,20.2232498 12.8442499,20.1934376 12.86675,20.1720625 C12.8892501,20.1506874 12.9134374,20.1349376 12.9393125,20.1248125 C12.9651876,20.1146874 12.9944373,20.1085 13.0270625,20.10625 C13.0596877,20.104 13.0984998,20.102875 13.1435,20.102875 L13.913,20.102875 Z" id="M" fill="#FFFFFF" fill-rule="nonzero"/>
  </g>
</svg>