<svg width="28" height="306" viewBox="0 0 28 306" fill="none" xmlns="http://www.w3.org/2000/svg">
<rect x="1.75" y="2" width="25" height="7" rx="1" fill="#FF9000"/>
<rect x="1.75" y="2" width="25" height="7" rx="1" stroke="white"/>
<path d="M13.0381 5.9485C13.0381 6.31717 12.9739 6.66017 12.8456 6.9775C12.7196 7.29483 12.5411 7.57133 12.3101 7.807C12.0791 8.04033 11.8002 8.2235 11.4736 8.3565C11.1492 8.4895 10.7887 8.556 10.3921 8.556C9.9954 8.556 9.63374 8.4895 9.30707 8.3565C8.9804 8.2235 8.7004 8.04033 8.46707 7.807C8.23607 7.57133 8.0564 7.29483 7.92807 6.9775C7.80207 6.66017 7.73907 6.31717 7.73907 5.9485C7.73907 5.57983 7.80207 5.23683 7.92807 4.9195C8.0564 4.60217 8.23607 4.32683 8.46707 4.0935C8.7004 3.86017 8.9804 3.677 9.30707 3.544C9.63374 3.411 9.9954 3.3445 10.3921 3.3445C10.7887 3.3445 11.1492 3.41217 11.4736 3.5475C11.8002 3.6805 12.0791 3.86367 12.3101 4.097C12.5411 4.33033 12.7196 4.60567 12.8456 4.923C12.9739 5.24033 13.0381 5.58217 13.0381 5.9485ZM11.8271 5.9485C11.8271 5.6965 11.7944 5.47017 11.7291 5.2695C11.6637 5.0665 11.5692 4.895 11.4456 4.755C11.3242 4.615 11.1749 4.50767 10.9976 4.433C10.8202 4.35833 10.6184 4.321 10.3921 4.321C10.1634 4.321 9.95924 4.35833 9.77957 4.433C9.60224 4.50767 9.45174 4.615 9.32807 4.755C9.20674 4.895 9.1134 5.0665 9.04807 5.2695C8.98274 5.47017 8.95007 5.6965 8.95007 5.9485C8.95007 6.20283 8.98274 6.4315 9.04807 6.6345C9.1134 6.83517 9.20674 7.0055 9.32807 7.1455C9.45174 7.2855 9.60224 7.39283 9.77957 7.4675C9.95924 7.53983 10.1634 7.576 10.3921 7.576C10.6184 7.576 10.8202 7.53983 10.9976 7.4675C11.1749 7.39283 11.3242 7.2855 11.4456 7.1455C11.5692 7.0055 11.6637 6.83517 11.7291 6.6345C11.7944 6.4315 11.8271 6.20283 11.8271 5.9485ZM14.8192 4.3105V5.602H16.5622V6.5155H14.8192V8.5H13.6292V3.4005H16.9122V4.3105H14.8192ZM18.6791 4.3105V5.602H20.4221V6.5155H18.6791V8.5H17.4891V3.4005H20.7721V4.3105H18.6791Z" fill="black"/>
<rect x="1.75" y="61" width="25" height="7" rx="1" fill="#FF9000"/>
<rect x="1.75" y="61" width="25" height="7" rx="1" stroke="white"/>
<path d="M8.81469 63.4365C8.77969 63.4925 8.74236 63.5345 8.70269 63.5625C8.66536 63.5905 8.61636 63.6045 8.55569 63.6045C8.50203 63.6045 8.44369 63.5882 8.38069 63.5555C8.32003 63.5205 8.25003 63.482 8.17069 63.44C8.09369 63.398 8.00503 63.3607 7.90469 63.328C7.80436 63.293 7.69003 63.2755 7.56169 63.2755C7.34003 63.2755 7.17436 63.3233 7.06469 63.419C6.95736 63.5123 6.90369 63.6395 6.90369 63.8005C6.90369 63.9032 6.93636 63.9883 7.00169 64.056C7.06703 64.1237 7.15219 64.182 7.25719 64.231C7.36453 64.28 7.48586 64.3255 7.62119 64.3675C7.75886 64.4072 7.89886 64.4527 8.04119 64.504C8.18353 64.553 8.32236 64.6113 8.45769 64.679C8.59536 64.7467 8.71669 64.833 8.82169 64.938C8.92903 65.043 9.01536 65.1713 9.08069 65.323C9.14603 65.4723 9.17869 65.6532 9.17869 65.8655C9.17869 66.1012 9.13786 66.3217 9.05619 66.527C8.97453 66.7323 8.85553 66.912 8.69919 67.066C8.54519 67.2177 8.35386 67.3378 8.12519 67.4265C7.89886 67.5128 7.64103 67.556 7.35169 67.556C7.19303 67.556 7.03086 67.5397 6.86519 67.507C6.70186 67.4743 6.54319 67.4288 6.38919 67.3705C6.23519 67.3098 6.09053 67.2387 5.95519 67.157C5.81986 67.0753 5.70203 66.9843 5.60169 66.884L5.95169 66.331C5.97969 66.2913 6.01586 66.2587 6.06019 66.233C6.10686 66.205 6.15703 66.191 6.21069 66.191C6.28069 66.191 6.35069 66.2132 6.42069 66.2575C6.49303 66.3018 6.57353 66.3508 6.66219 66.4045C6.75319 66.4582 6.85703 66.5072 6.97369 66.5515C7.09036 66.5958 7.22803 66.618 7.38669 66.618C7.60136 66.618 7.76819 66.5713 7.88719 66.478C8.00619 66.3823 8.06569 66.2318 8.06569 66.0265C8.06569 65.9075 8.03303 65.8107 7.96769 65.736C7.90236 65.6613 7.81603 65.5995 7.70869 65.5505C7.60369 65.5015 7.48353 65.4583 7.34819 65.421C7.21286 65.3837 7.07403 65.3428 6.93169 65.2985C6.78936 65.2518 6.65053 65.1958 6.51519 65.1305C6.37986 65.0628 6.25853 64.9753 6.15119 64.868C6.04619 64.7583 5.96103 64.623 5.89569 64.462C5.83036 64.2987 5.79769 64.098 5.79769 63.86C5.79769 63.6687 5.83619 63.482 5.91319 63.3C5.99019 63.118 6.10336 62.9558 6.25269 62.8135C6.40203 62.6712 6.58519 62.558 6.80219 62.474C7.01919 62.3877 7.26769 62.3445 7.54769 62.3445C7.70403 62.3445 7.85569 62.3573 8.00269 62.383C8.15203 62.4063 8.29319 62.4425 8.42619 62.4915C8.55919 62.5382 8.68286 62.5953 8.79719 62.663C8.91386 62.7283 9.01769 62.803 9.10869 62.887L8.81469 63.4365ZM14.7732 64.9485C14.7732 65.3172 14.709 65.6602 14.5807 65.9775C14.4547 66.2948 14.2762 66.5713 14.0452 66.807C13.8142 67.0403 13.5353 67.2235 13.2087 67.3565C12.8843 67.4895 12.5238 67.556 12.1272 67.556C11.7305 67.556 11.3688 67.4895 11.0422 67.3565C10.7155 67.2235 10.4355 67.0403 10.2022 66.807C9.97117 66.5713 9.7915 66.2948 9.66317 65.9775C9.53717 65.6602 9.47417 65.3172 9.47417 64.9485C9.47417 64.5798 9.53717 64.2368 9.66317 63.9195C9.7915 63.6022 9.97117 63.3268 10.2022 63.0935C10.4355 62.8602 10.7155 62.677 11.0422 62.544C11.3688 62.411 11.7305 62.3445 12.1272 62.3445C12.5238 62.3445 12.8843 62.4122 13.2087 62.5475C13.5353 62.6805 13.8142 62.8637 14.0452 63.097C14.2762 63.3303 14.4547 63.6057 14.5807 63.923C14.709 64.2403 14.7732 64.5822 14.7732 64.9485ZM13.5622 64.9485C13.5622 64.6965 13.5295 64.4702 13.4642 64.2695C13.3988 64.0665 13.3043 63.895 13.1807 63.755C13.0593 63.615 12.91 63.5077 12.7327 63.433C12.5553 63.3583 12.3535 63.321 12.1272 63.321C11.8985 63.321 11.6943 63.3583 11.5147 63.433C11.3373 63.5077 11.1868 63.615 11.0632 63.755C10.9418 63.895 10.8485 64.0665 10.7832 64.2695C10.7178 64.4702 10.6852 64.6965 10.6852 64.9485C10.6852 65.2028 10.7178 65.4315 10.7832 65.6345C10.8485 65.8352 10.9418 66.0055 11.0632 66.1455C11.1868 66.2855 11.3373 66.3928 11.5147 66.4675C11.6943 66.5398 11.8985 66.576 12.1272 66.576C12.3535 66.576 12.5553 66.5398 12.7327 66.4675C12.91 66.3928 13.0593 66.2855 13.1807 66.1455C13.3043 66.0055 13.3988 65.8352 13.4642 65.6345C13.5295 65.4315 13.5622 65.2028 13.5622 64.9485ZM16.5543 63.3105V64.602H18.2973V65.5155H16.5543V67.5H15.3643V62.4005H18.6473V63.3105H16.5543ZM22.8887 63.3385H21.4537V67.5H20.2707V63.3385H18.8357V62.4005H22.8887V63.3385Z" fill="black"/>
<rect x="1.75" y="120" width="25" height="7" rx="1" fill="#FF9000"/>
<rect x="1.75" y="120" width="25" height="7" rx="1" stroke="white"/>
<path d="M9.18113 121.4V126.5H7.99113V124.344H5.91913V126.5H4.72913V121.4H5.91913V123.532H7.99113V121.4H9.18113ZM12.7605 124.55L12.288 123.154C12.253 123.065 12.2157 122.961 12.176 122.842C12.1364 122.721 12.0967 122.59 12.057 122.45C12.022 122.593 11.9847 122.725 11.945 122.846C11.9054 122.967 11.868 123.072 11.833 123.161L11.364 124.55H12.7605ZM14.64 126.5H13.723C13.6204 126.5 13.5375 126.477 13.4745 126.43C13.4115 126.381 13.3637 126.319 13.331 126.244L13.03 125.355H11.091L10.79 126.244C10.7644 126.31 10.7177 126.369 10.65 126.423C10.5847 126.474 10.503 126.5 10.405 126.5H9.48103L11.455 121.4H12.666L14.64 126.5ZM16.5961 123.798C16.7571 123.798 16.8936 123.778 17.0056 123.738C17.1199 123.696 17.2133 123.639 17.2856 123.567C17.3579 123.495 17.4104 123.411 17.4431 123.315C17.4758 123.217 17.4921 123.112 17.4921 123C17.4921 122.776 17.4186 122.601 17.2716 122.475C17.1269 122.349 16.9018 122.286 16.5961 122.286H16.1201V123.798H16.5961ZM19.1091 126.5H18.0381C17.8398 126.5 17.6974 126.425 17.6111 126.276L16.7641 124.795C16.7244 124.732 16.6801 124.687 16.6311 124.659C16.5821 124.629 16.5121 124.613 16.4211 124.613H16.1201V126.5H14.9371V121.4H16.5961C16.9648 121.4 17.2786 121.439 17.5376 121.516C17.7989 121.591 18.0113 121.696 18.1746 121.831C18.3403 121.966 18.4604 122.126 18.5351 122.31C18.6098 122.495 18.6471 122.695 18.6471 122.912C18.6471 123.078 18.6249 123.234 18.5806 123.381C18.5363 123.528 18.4709 123.665 18.3846 123.791C18.2983 123.915 18.1909 124.025 18.0626 124.123C17.9366 124.221 17.7908 124.302 17.6251 124.365C17.7021 124.405 17.7744 124.455 17.8421 124.515C17.9098 124.574 17.9704 124.644 18.0241 124.725L19.1091 126.5ZM24.0597 123.948C24.0597 124.317 23.9955 124.658 23.8672 124.97C23.7412 125.281 23.5627 125.55 23.3317 125.779C23.1007 126.005 22.8218 126.183 22.4952 126.311C22.1708 126.437 21.8103 126.5 21.4137 126.5H19.4327V121.4H21.4137C21.8103 121.4 22.1708 121.465 22.4952 121.593C22.8218 121.721 23.1007 121.899 23.3317 122.125C23.5627 122.351 23.7412 122.621 23.8672 122.933C23.9955 123.244 24.0597 123.582 24.0597 123.948ZM22.8487 123.948C22.8487 123.696 22.816 123.469 22.7507 123.266C22.6853 123.063 22.5908 122.891 22.4672 122.751C22.3458 122.609 22.1965 122.501 22.0192 122.426C21.8418 122.349 21.64 122.31 21.4137 122.31H20.6227V125.59H21.4137C21.64 125.59 21.8418 125.553 22.0192 125.478C22.1965 125.401 22.3458 125.292 22.4672 125.152C22.5908 125.01 22.6853 124.837 22.7507 124.634C22.816 124.431 22.8487 124.203 22.8487 123.948Z" fill="black"/>
<rect x="1.75" y="179" width="25" height="7" rx="1" fill="#FF9000"/>
<rect x="1.75" y="179" width="25" height="7" rx="1" stroke="white"/>
<path d="M7.53008 183.55L7.05758 182.154C7.02258 182.065 6.98525 181.961 6.94558 181.842C6.90592 181.721 6.86625 181.59 6.82658 181.45C6.79158 181.593 6.75425 181.725 6.71458 181.846C6.67492 181.967 6.63758 182.072 6.60258 182.161L6.13358 183.55H7.53008ZM9.40958 185.5H8.49258C8.38992 185.5 8.30708 185.477 8.24408 185.43C8.18108 185.381 8.13325 185.319 8.10058 185.244L7.79958 184.355H5.86058L5.55958 185.244C5.53392 185.31 5.48725 185.369 5.41958 185.423C5.35425 185.474 5.27258 185.5 5.17458 185.5H4.25058L6.22458 180.4H7.43558L9.40958 185.5ZM12.5241 181.436C12.4891 181.492 12.4518 181.534 12.4121 181.562C12.3748 181.59 12.3258 181.604 12.2651 181.604C12.2115 181.604 12.1531 181.588 12.0901 181.555C12.0295 181.52 11.9595 181.482 11.8801 181.44C11.8031 181.398 11.7145 181.361 11.6141 181.328C11.5138 181.293 11.3995 181.275 11.2711 181.275C11.0495 181.275 10.8838 181.323 10.7741 181.419C10.6668 181.512 10.6131 181.639 10.6131 181.8C10.6131 181.903 10.6458 181.988 10.7111 182.056C10.7765 182.124 10.8616 182.182 10.9666 182.231C11.074 182.28 11.1953 182.325 11.3306 182.367C11.4683 182.407 11.6083 182.453 11.7506 182.504C11.893 182.553 12.0318 182.611 12.1671 182.679C12.3048 182.747 12.4261 182.833 12.5311 182.938C12.6385 183.043 12.7248 183.171 12.7901 183.323C12.8555 183.472 12.8881 183.653 12.8881 183.865C12.8881 184.101 12.8473 184.322 12.7656 184.527C12.684 184.732 12.565 184.912 12.4086 185.066C12.2546 185.218 12.0633 185.338 11.8346 185.426C11.6083 185.513 11.3505 185.556 11.0611 185.556C10.9025 185.556 10.7403 185.54 10.5746 185.507C10.4113 185.474 10.2526 185.429 10.0986 185.37C9.94464 185.31 9.79998 185.239 9.66464 185.157C9.52931 185.075 9.41148 184.984 9.31114 184.884L9.66114 184.331C9.68914 184.291 9.72531 184.259 9.76964 184.233C9.81631 184.205 9.86648 184.191 9.92014 184.191C9.99014 184.191 10.0601 184.213 10.1301 184.257C10.2025 184.302 10.283 184.351 10.3716 184.404C10.4626 184.458 10.5665 184.507 10.6831 184.551C10.7998 184.596 10.9375 184.618 11.0961 184.618C11.3108 184.618 11.4776 184.571 11.5966 184.478C11.7156 184.382 11.7751 184.232 11.7751 184.026C11.7751 183.907 11.7425 183.811 11.6771 183.736C11.6118 183.661 11.5255 183.599 11.4181 183.55C11.3131 183.501 11.193 183.458 11.0576 183.421C10.9223 183.384 10.7835 183.343 10.6411 183.298C10.4988 183.252 10.36 183.196 10.2246 183.13C10.0893 183.063 9.96798 182.975 9.86064 182.868C9.75564 182.758 9.67048 182.623 9.60514 182.462C9.53981 182.299 9.50714 182.098 9.50714 181.86C9.50714 181.669 9.54564 181.482 9.62264 181.3C9.69964 181.118 9.81281 180.956 9.96214 180.813C10.1115 180.671 10.2946 180.558 10.5116 180.474C10.7286 180.388 10.9771 180.344 11.2571 180.344C11.4135 180.344 11.5651 180.357 11.7121 180.383C11.8615 180.406 12.0026 180.442 12.1356 180.491C12.2686 180.538 12.3923 180.595 12.5066 180.663C12.6233 180.728 12.7271 180.803 12.8181 180.887L12.5241 181.436ZM15.7907 183.561V185.5H14.6077V183.561L12.7597 180.4H13.8027C13.9054 180.4 13.9859 180.425 14.0442 180.474C14.1049 180.521 14.1551 180.581 14.1947 180.656L14.9157 182.14C14.9764 182.257 15.0312 182.366 15.0802 182.469C15.1292 182.569 15.1724 182.668 15.2097 182.766C15.2447 182.666 15.2844 182.566 15.3287 182.465C15.3754 182.363 15.4291 182.254 15.4897 182.14L16.2037 180.656C16.2201 180.626 16.2399 180.595 16.2632 180.565C16.2866 180.535 16.3134 180.508 16.3437 180.484C16.3764 180.459 16.4126 180.439 16.4522 180.425C16.4942 180.409 16.5397 180.4 16.5887 180.4H17.6387L15.7907 183.561ZM23.6652 180.4V185.5H22.6222V182.567C22.6222 182.499 22.6234 182.426 22.6257 182.346C22.6304 182.267 22.6374 182.187 22.6467 182.105L21.2922 184.726C21.2502 184.808 21.193 184.87 21.1207 184.912C21.0507 184.954 20.9702 184.975 20.8792 184.975H20.7182C20.6272 184.975 20.5455 184.954 20.4732 184.912C20.4032 184.87 20.3472 184.808 20.3052 184.726L18.9507 182.098C18.9577 182.182 18.9635 182.265 18.9682 182.346C18.9729 182.426 18.9752 182.499 18.9752 182.567V185.5H17.9322V180.4H18.8352C18.8865 180.4 18.9309 180.402 18.9682 180.404C19.0079 180.406 19.0429 180.413 19.0732 180.425C19.1035 180.437 19.1304 180.455 19.1537 180.481C19.1794 180.504 19.2039 180.538 19.2272 180.582L20.5397 183.169C20.5864 183.258 20.6307 183.35 20.6727 183.445C20.717 183.541 20.759 183.639 20.7987 183.739C20.8384 183.637 20.8792 183.536 20.9212 183.438C20.9655 183.34 21.0122 183.247 21.0612 183.158L22.3702 180.582C22.3935 180.538 22.4169 180.504 22.4402 180.481C22.4659 180.455 22.4939 180.437 22.5242 180.425C22.5545 180.413 22.5884 180.406 22.6257 180.404C22.6654 180.402 22.7109 180.4 22.7622 180.4H23.6652Z" fill="black"/>
<rect x="1.75" y="238" width="25" height="7" rx="1" fill="#FF9000"/>
<rect x="1.75" y="238" width="25" height="7" rx="1" stroke="white"/>
<path d="M9.96655 240.436C9.93155 240.492 9.89421 240.534 9.85455 240.562C9.81721 240.59 9.76821 240.604 9.70755 240.604C9.65388 240.604 9.59555 240.588 9.53255 240.555C9.47188 240.52 9.40188 240.482 9.32255 240.44C9.24555 240.398 9.15688 240.361 9.05655 240.328C8.95621 240.293 8.84188 240.275 8.71355 240.275C8.49188 240.275 8.32621 240.323 8.21655 240.419C8.10921 240.512 8.05555 240.639 8.05555 240.8C8.05555 240.903 8.08821 240.988 8.15355 241.056C8.21888 241.124 8.30405 241.182 8.40905 241.231C8.51638 241.28 8.63771 241.325 8.77305 241.367C8.91071 241.407 9.05071 241.453 9.19305 241.504C9.33538 241.553 9.47421 241.611 9.60955 241.679C9.74721 241.747 9.86855 241.833 9.97355 241.938C10.0809 242.043 10.1672 242.171 10.2325 242.323C10.2979 242.472 10.3305 242.653 10.3305 242.865C10.3305 243.101 10.2897 243.322 10.208 243.527C10.1264 243.732 10.0074 243.912 9.85105 244.066C9.69705 244.218 9.50571 244.338 9.27705 244.426C9.05071 244.513 8.79288 244.556 8.50355 244.556C8.34488 244.556 8.18271 244.54 8.01705 244.507C7.85371 244.474 7.69505 244.429 7.54105 244.37C7.38705 244.31 7.24238 244.239 7.10705 244.157C6.97171 244.075 6.85388 243.984 6.75355 243.884L7.10355 243.331C7.13155 243.291 7.16771 243.259 7.21205 243.233C7.25871 243.205 7.30888 243.191 7.36255 243.191C7.43255 243.191 7.50255 243.213 7.57255 243.257C7.64488 243.302 7.72538 243.351 7.81405 243.404C7.90505 243.458 8.00888 243.507 8.12555 243.551C8.24221 243.596 8.37988 243.618 8.53855 243.618C8.75321 243.618 8.92005 243.571 9.03905 243.478C9.15805 243.382 9.21755 243.232 9.21755 243.026C9.21755 242.907 9.18488 242.811 9.11955 242.736C9.05421 242.661 8.96788 242.599 8.86055 242.55C8.75555 242.501 8.63538 242.458 8.50005 242.421C8.36471 242.384 8.22588 242.343 8.08355 242.298C7.94121 242.252 7.80238 242.196 7.66705 242.13C7.53171 242.063 7.41038 241.975 7.30305 241.868C7.19805 241.758 7.11288 241.623 7.04755 241.462C6.98221 241.299 6.94955 241.098 6.94955 240.86C6.94955 240.669 6.98805 240.482 7.06505 240.3C7.14205 240.118 7.25521 239.956 7.40455 239.813C7.55388 239.671 7.73705 239.558 7.95405 239.474C8.17105 239.388 8.41955 239.344 8.69955 239.344C8.85588 239.344 9.00755 239.357 9.15455 239.383C9.30388 239.406 9.44505 239.442 9.57805 239.491C9.71105 239.538 9.83471 239.595 9.94905 239.663C10.0657 239.728 10.1695 239.803 10.2605 239.887L9.96655 240.436ZM12.11 244.5H10.92V239.4H12.11V244.5ZM17.4409 239.4V244.5H16.8249C16.7339 244.5 16.6569 244.486 16.5939 244.458C16.5332 244.428 16.4725 244.376 16.4119 244.304L14.0074 241.262C14.0167 241.353 14.0225 241.442 14.0249 241.528C14.0295 241.612 14.0319 241.692 14.0319 241.766V244.5H12.9889V239.4H13.6119C13.6632 239.4 13.7064 239.403 13.7414 239.407C13.7764 239.412 13.8079 239.421 13.8359 239.435C13.8639 239.447 13.8907 239.465 13.9164 239.488C13.942 239.511 13.9712 239.543 14.0039 239.582L16.4294 242.645C16.4177 242.547 16.4095 242.452 16.4049 242.361C16.4002 242.268 16.3979 242.181 16.3979 242.099V239.4H17.4409ZM19.5153 240.31V241.5H21.1183V242.375H19.5153V243.59H21.6083V244.5H18.3253V239.4H21.6083V240.31H19.5153Z" fill="black"/>
<rect x="1.75" y="297" width="25" height="7" rx="1" fill="#FF9000"/>
<rect x="1.75" y="297" width="25" height="7" rx="1" stroke="white"/>
<path d="M12.1623 300.948C12.1623 301.317 12.0981 301.658 11.9698 301.97C11.8438 302.281 11.6653 302.55 11.4343 302.779C11.2033 303.005 10.9244 303.183 10.5978 303.311C10.2734 303.437 9.91294 303.5 9.51628 303.5H7.53528V298.4H9.51628C9.91294 298.4 10.2734 298.465 10.5978 298.593C10.9244 298.721 11.2033 298.899 11.4343 299.125C11.6653 299.351 11.8438 299.621 11.9698 299.933C12.0981 300.244 12.1623 300.582 12.1623 300.948ZM10.9513 300.948C10.9513 300.696 10.9186 300.469 10.8533 300.266C10.7879 300.063 10.6934 299.891 10.5698 299.751C10.4484 299.609 10.2991 299.501 10.1218 299.426C9.94444 299.349 9.74261 299.31 9.51628 299.31H8.72528V302.59H9.51628C9.74261 302.59 9.94444 302.553 10.1218 302.478C10.2991 302.401 10.4484 302.292 10.5698 302.152C10.6934 302.01 10.7879 301.837 10.8533 301.634C10.9186 301.431 10.9513 301.203 10.9513 300.948ZM13.9455 303.5H12.7555V298.4H13.9455V303.5ZM17.2743 300.857H19.0873V303.01C18.826 303.201 18.5471 303.34 18.2508 303.426C17.9568 303.513 17.6488 303.556 17.3268 303.556C16.9068 303.556 16.5241 303.491 16.1788 303.36C15.8358 303.227 15.5418 303.045 15.2968 302.814C15.0518 302.581 14.8628 302.305 14.7298 301.988C14.5968 301.668 14.5303 301.322 14.5303 300.948C14.5303 300.568 14.5933 300.219 14.7193 299.902C14.8453 299.582 15.025 299.307 15.2583 299.076C15.494 298.845 15.7775 298.665 16.1088 298.537C16.4425 298.409 16.8146 298.344 17.2253 298.344C17.4376 298.344 17.6371 298.362 17.8238 298.397C18.0105 298.432 18.182 298.48 18.3383 298.54C18.497 298.601 18.6416 298.673 18.7723 298.757C18.903 298.841 19.0196 298.932 19.1223 299.03L18.7793 299.552C18.7256 299.634 18.6556 299.684 18.5693 299.702C18.4853 299.721 18.3943 299.7 18.2963 299.639C18.203 299.583 18.1143 299.536 18.0303 299.496C17.9486 299.454 17.8646 299.42 17.7783 299.394C17.692 299.369 17.601 299.35 17.5053 299.338C17.4096 299.327 17.3023 299.321 17.1833 299.321C16.9616 299.321 16.7621 299.361 16.5848 299.44C16.4075 299.517 16.2558 299.627 16.1298 299.769C16.0061 299.911 15.9105 300.083 15.8428 300.283C15.7751 300.482 15.7413 300.703 15.7413 300.948C15.7413 301.219 15.7786 301.459 15.8533 301.669C15.928 301.879 16.033 302.057 16.1683 302.201C16.306 302.346 16.4693 302.457 16.6583 302.534C16.8496 302.609 17.0608 302.646 17.2918 302.646C17.4341 302.646 17.5625 302.632 17.6768 302.604C17.7935 302.576 17.9066 302.539 18.0163 302.492V301.718H17.5123C17.4376 301.718 17.3793 301.699 17.3373 301.659C17.2953 301.619 17.2743 301.569 17.2743 301.508V300.857ZM20.9679 303.5H19.7779V298.4H20.9679V303.5Z" fill="black"/>
</svg>
