<svg width="96" height="126" viewBox="0 0 96 126" fill="none" xmlns="http://www.w3.org/2000/svg">
<rect x="4.5" y="2" width="11" height="11" rx="1" fill="#FF9300"/>
<rect x="4.5" y="2" width="11" height="11" rx="1" stroke="white"/>
<path d="M6.65959 7.568H8.81959V8.568H6.65959V7.568ZM9.46778 6.336C9.51045 6.04533 9.59178 5.792 9.71178 5.576C9.83445 5.36 9.98511 5.18 10.1638 5.036C10.3451 4.892 10.5518 4.78533 10.7838 4.716C11.0158 4.644 11.2651 4.608 11.5318 4.608C11.8198 4.608 12.0758 4.64933 12.2998 4.732C12.5238 4.812 12.7131 4.92133 12.8678 5.06C13.0224 5.19867 13.1398 5.36 13.2198 5.544C13.2998 5.72533 13.3398 5.91733 13.3398 6.12C13.3398 6.304 13.3211 6.46667 13.2838 6.608C13.2464 6.74667 13.1904 6.868 13.1158 6.972C13.0438 7.07333 12.9531 7.16 12.8438 7.232C12.7371 7.30133 12.6144 7.36 12.4758 7.408C13.1211 7.63467 13.4438 8.07467 13.4438 8.728C13.4438 9.03733 13.3878 9.30667 13.2758 9.536C13.1638 9.76533 13.0131 9.956 12.8238 10.108C12.6371 10.26 12.4198 10.3747 12.1718 10.452C11.9238 10.5267 11.6651 10.564 11.3958 10.564C11.1184 10.564 10.8718 10.5347 10.6558 10.476C10.4398 10.4147 10.2478 10.3213 10.0798 10.196C9.91178 10.068 9.76378 9.90533 9.63578 9.708C9.51045 9.51067 9.40111 9.276 9.30778 9.004L9.85978 8.78C10.0038 8.724 10.1371 8.70933 10.2598 8.736C10.3824 8.76267 10.4704 8.824 10.5238 8.92C10.6438 9.14133 10.7704 9.30267 10.9038 9.404C11.0398 9.50267 11.1984 9.552 11.3798 9.552C11.5184 9.552 11.6384 9.52933 11.7398 9.484C11.8438 9.436 11.9291 9.376 11.9958 9.304C12.0651 9.22933 12.1171 9.14533 12.1518 9.052C12.1864 8.95867 12.2038 8.864 12.2038 8.768C12.2038 8.64267 12.1944 8.53067 12.1758 8.432C12.1598 8.33067 12.1118 8.244 12.0318 8.172C11.9518 8.1 11.8304 8.04533 11.6678 8.008C11.5078 7.968 11.2838 7.948 10.9958 7.948V7.092C11.2384 7.092 11.4344 7.07333 11.5838 7.036C11.7331 6.99867 11.8478 6.948 11.9278 6.884C12.0104 6.81733 12.0651 6.73733 12.0918 6.644C12.1184 6.55067 12.1318 6.448 12.1318 6.336C12.1318 6.10667 12.0758 5.93067 11.9638 5.808C11.8544 5.68267 11.6864 5.62 11.4598 5.62C11.2758 5.62 11.1198 5.66933 10.9918 5.768C10.8664 5.864 10.7798 5.984 10.7318 6.128C10.6758 6.27467 10.6024 6.372 10.5118 6.42C10.4211 6.468 10.2918 6.47867 10.1238 6.452L9.46778 6.336Z" fill="black"/>
<rect x="17.5" y="20" width="11" height="11" rx="1" fill="#FF9300"/>
<rect x="17.5" y="20" width="11" height="11" rx="1" stroke="white"/>
<path d="M19.6596 25.568H21.8196V26.568H19.6596V25.568ZM26.0198 27.38C26.1531 27.38 26.2584 27.4173 26.3358 27.492C26.4131 27.564 26.4518 27.66 26.4518 27.78V28.5H22.3558V28.1C22.3558 28.0227 22.3718 27.94 22.4038 27.852C22.4358 27.764 22.4918 27.684 22.5718 27.612L24.2518 25.92C24.3958 25.776 24.5211 25.6387 24.6278 25.508C24.7344 25.3773 24.8224 25.2493 24.8918 25.124C24.9611 24.996 25.0131 24.8693 25.0478 24.744C25.0824 24.616 25.0998 24.4813 25.0998 24.34C25.0998 24.108 25.0438 23.9307 24.9318 23.808C24.8224 23.6827 24.6544 23.62 24.4278 23.62C24.2438 23.62 24.0878 23.6693 23.9598 23.768C23.8344 23.864 23.7478 23.984 23.6998 24.128C23.6438 24.2747 23.5704 24.372 23.4798 24.42C23.3891 24.468 23.2598 24.4787 23.0918 24.452L22.4358 24.336C22.4784 24.0453 22.5598 23.792 22.6798 23.576C22.8024 23.36 22.9531 23.18 23.1318 23.036C23.3131 22.892 23.5198 22.7853 23.7518 22.716C23.9838 22.644 24.2331 22.608 24.4998 22.608C24.7878 22.608 25.0464 22.6507 25.2758 22.736C25.5078 22.8187 25.7051 22.9347 25.8678 23.084C26.0304 23.2333 26.1544 23.412 26.2398 23.62C26.3278 23.8253 26.3718 24.052 26.3718 24.3C26.3718 24.5133 26.3411 24.7107 26.2798 24.892C26.2211 25.0733 26.1398 25.2467 26.0358 25.412C25.9318 25.5747 25.8104 25.7333 25.6718 25.888C25.5358 26.04 25.3904 26.1947 25.2358 26.352L24.0958 27.52C24.2424 27.4747 24.3878 27.44 24.5318 27.416C24.6758 27.392 24.8091 27.38 24.9318 27.38H26.0198Z" fill="black"/>
<rect x="30.5" y="38" width="11" height="11" rx="1" fill="#FF9300"/>
<rect x="30.5" y="38" width="11" height="11" rx="1" stroke="white"/>
<path d="M32.6596 43.568H34.8196V44.568H32.6596V43.568ZM39.3198 45.604V46.5H35.9998V45.604H37.1198V42.664C37.1198 42.5893 37.1211 42.5147 37.1238 42.44C37.1264 42.3627 37.1304 42.2853 37.1358 42.208L36.4718 42.76C36.4131 42.8053 36.3544 42.8333 36.2958 42.844C36.2398 42.852 36.1864 42.852 36.1358 42.844C36.0851 42.8333 36.0398 42.816 35.9998 42.792C35.9598 42.7653 35.9304 42.7387 35.9118 42.712L35.5198 42.192L37.3358 40.668H38.3598V45.604H39.3198Z" fill="black"/>
<rect x="43.5" y="56" width="11" height="11" rx="1" fill="#FF9300"/>
<rect x="43.5" y="56" width="11" height="11" rx="1" stroke="white"/>
<path d="M51.1597 61.584C51.1597 62.0933 51.105 62.5347 50.9957 62.908C50.8864 63.2813 50.7344 63.5907 50.5397 63.836C50.3477 64.0813 50.1184 64.264 49.8517 64.384C49.5877 64.504 49.301 64.564 48.9917 64.564C48.6824 64.564 48.3957 64.504 48.1317 64.384C47.8704 64.264 47.6437 64.0813 47.4517 63.836C47.2597 63.5907 47.109 63.2813 46.9997 62.908C46.893 62.5347 46.8397 62.0933 46.8397 61.584C46.8397 61.0747 46.893 60.6333 46.9997 60.26C47.109 59.8867 47.2597 59.5773 47.4517 59.332C47.6437 59.0867 47.8704 58.9053 48.1317 58.788C48.3957 58.668 48.6824 58.608 48.9917 58.608C49.301 58.608 49.5877 58.668 49.8517 58.788C50.1184 58.9053 50.3477 59.0867 50.5397 59.332C50.7344 59.5773 50.8864 59.8867 50.9957 60.26C51.105 60.6333 51.1597 61.0747 51.1597 61.584ZM49.8797 61.584C49.8797 61.1813 49.8544 60.852 49.8037 60.596C49.753 60.3373 49.685 60.1347 49.5997 59.988C49.517 59.8413 49.4224 59.7413 49.3157 59.688C49.209 59.632 49.101 59.604 48.9917 59.604C48.8824 59.604 48.7744 59.632 48.6677 59.688C48.5637 59.7413 48.4704 59.8413 48.3877 59.988C48.3077 60.1347 48.2424 60.3373 48.1917 60.596C48.1437 60.852 48.1197 61.1813 48.1197 61.584C48.1197 61.9893 48.1437 62.32 48.1917 62.576C48.2424 62.832 48.3077 63.0347 48.3877 63.184C48.4704 63.3307 48.5637 63.432 48.6677 63.488C48.7744 63.5413 48.8824 63.568 48.9917 63.568C49.101 63.568 49.209 63.5413 49.3157 63.488C49.4224 63.432 49.517 63.3307 49.5997 63.184C49.685 63.0347 49.753 62.832 49.8037 62.576C49.8544 62.32 49.8797 61.9893 49.8797 61.584Z" fill="black"/>
<rect x="56.5" y="74" width="11" height="11" rx="1" fill="#FF9300"/>
<rect x="56.5" y="74" width="11" height="11" rx="1" stroke="white"/>
<path d="M61.7194 80.256H60.2394V81.848H59.2314V80.256H57.7594V79.368H59.2314V77.784H60.2394V79.368H61.7194V80.256ZM66.144 81.604V82.5H62.824V81.604H63.944V78.664C63.944 78.5893 63.9453 78.5147 63.948 78.44C63.9507 78.3627 63.9547 78.2853 63.96 78.208L63.296 78.76C63.2373 78.8053 63.1787 78.8333 63.12 78.844C63.064 78.852 63.0107 78.852 62.96 78.844C62.9093 78.8333 62.864 78.816 62.824 78.792C62.784 78.7653 62.7547 78.7387 62.736 78.712L62.344 78.192L64.16 76.668H65.184V81.604H66.144Z" fill="black"/>
<rect x="69.5" y="92" width="11" height="11" rx="1" fill="#FF9300"/>
<rect x="69.5" y="92" width="11" height="11" rx="1" stroke="white"/>
<path d="M74.7194 98.256H73.2394V99.848H72.2314V98.256H70.7594V97.368H72.2314V95.784H73.2394V97.368H74.7194V98.256ZM78.844 99.38C78.9773 99.38 79.0827 99.4173 79.16 99.492C79.2373 99.564 79.276 99.66 79.276 99.78V100.5H75.18V100.1C75.18 100.023 75.196 99.94 75.228 99.852C75.26 99.764 75.316 99.684 75.396 99.612L77.076 97.92C77.22 97.776 77.3453 97.6387 77.452 97.508C77.5587 97.3773 77.6467 97.2493 77.716 97.124C77.7853 96.996 77.8373 96.8693 77.872 96.744C77.9067 96.616 77.924 96.4813 77.924 96.34C77.924 96.108 77.868 95.9307 77.756 95.808C77.6467 95.6827 77.4787 95.62 77.252 95.62C77.068 95.62 76.912 95.6693 76.784 95.768C76.6587 95.864 76.572 95.984 76.524 96.128C76.468 96.2747 76.3947 96.372 76.304 96.42C76.2133 96.468 76.084 96.4787 75.916 96.452L75.26 96.336C75.3027 96.0453 75.384 95.792 75.504 95.576C75.6267 95.36 75.7773 95.18 75.956 95.036C76.1373 94.892 76.344 94.7853 76.576 94.716C76.808 94.644 77.0573 94.608 77.324 94.608C77.612 94.608 77.8707 94.6507 78.1 94.736C78.332 94.8187 78.5293 94.9347 78.692 95.084C78.8547 95.2333 78.9787 95.412 79.064 95.62C79.152 95.8253 79.196 96.052 79.196 96.3C79.196 96.5133 79.1653 96.7107 79.104 96.892C79.0453 97.0733 78.964 97.2467 78.86 97.412C78.756 97.5747 78.6347 97.7333 78.496 97.888C78.36 98.04 78.2147 98.1947 78.06 98.352L76.92 99.52C77.0667 99.4747 77.212 99.44 77.356 99.416C77.5 99.392 77.6333 99.38 77.756 99.38H78.844Z" fill="black"/>
<rect x="82.5" y="110" width="11" height="11" rx="1" fill="#FF9300"/>
<rect x="82.5" y="110" width="11" height="11" rx="1" stroke="white"/>
<path d="M87.7194 116.256H86.2394V117.848H85.2314V116.256H83.7594V115.368H85.2314V113.784H86.2394V115.368H87.7194V116.256ZM88.292 114.336C88.3347 114.045 88.416 113.792 88.536 113.576C88.6587 113.36 88.8093 113.18 88.988 113.036C89.1693 112.892 89.376 112.785 89.608 112.716C89.84 112.644 90.0893 112.608 90.356 112.608C90.644 112.608 90.9 112.649 91.124 112.732C91.348 112.812 91.5373 112.921 91.692 113.06C91.8467 113.199 91.964 113.36 92.044 113.544C92.124 113.725 92.164 113.917 92.164 114.12C92.164 114.304 92.1453 114.467 92.108 114.608C92.0707 114.747 92.0147 114.868 91.94 114.972C91.868 115.073 91.7773 115.16 91.668 115.232C91.5613 115.301 91.4387 115.36 91.3 115.408C91.9453 115.635 92.268 116.075 92.268 116.728C92.268 117.037 92.212 117.307 92.1 117.536C91.988 117.765 91.8373 117.956 91.648 118.108C91.4613 118.26 91.244 118.375 90.996 118.452C90.748 118.527 90.4893 118.564 90.22 118.564C89.9427 118.564 89.696 118.535 89.48 118.476C89.264 118.415 89.072 118.321 88.904 118.196C88.736 118.068 88.588 117.905 88.46 117.708C88.3347 117.511 88.2253 117.276 88.132 117.004L88.684 116.78C88.828 116.724 88.9613 116.709 89.084 116.736C89.2067 116.763 89.2947 116.824 89.348 116.92C89.468 117.141 89.5947 117.303 89.728 117.404C89.864 117.503 90.0227 117.552 90.204 117.552C90.3427 117.552 90.4627 117.529 90.564 117.484C90.668 117.436 90.7533 117.376 90.82 117.304C90.8893 117.229 90.9413 117.145 90.976 117.052C91.0107 116.959 91.028 116.864 91.028 116.768C91.028 116.643 91.0187 116.531 91 116.432C90.984 116.331 90.936 116.244 90.856 116.172C90.776 116.1 90.6547 116.045 90.492 116.008C90.332 115.968 90.108 115.948 89.82 115.948V115.092C90.0627 115.092 90.2587 115.073 90.408 115.036C90.5573 114.999 90.672 114.948 90.752 114.884C90.8347 114.817 90.8893 114.737 90.916 114.644C90.9427 114.551 90.956 114.448 90.956 114.336C90.956 114.107 90.9 113.931 90.788 113.808C90.6787 113.683 90.5107 113.62 90.284 113.62C90.1 113.62 89.944 113.669 89.816 113.768C89.6907 113.864 89.604 113.984 89.556 114.128C89.5 114.275 89.4267 114.372 89.336 114.42C89.2453 114.468 89.116 114.479 88.948 114.452L88.292 114.336Z" fill="black"/>
</svg>
