<svg width="76" height="39" viewBox="0 0 76 39" fill="none" xmlns="http://www.w3.org/2000/svg">
<rect x="1" y="1" width="24" height="11" rx="1" fill="#FF9300"/>
<path d="M14.8837 8.604V9.5H11.5637V8.604H12.6837V5.664C12.6837 5.58933 12.685 5.51467 12.6877 5.44C12.6904 5.36267 12.6944 5.28533 12.6997 5.208L12.0357 5.76C11.977 5.80533 11.9184 5.83333 11.8597 5.844C11.8037 5.852 11.7504 5.852 11.6997 5.844C11.649 5.83333 11.6037 5.816 11.5637 5.792C11.5237 5.76533 11.4944 5.73867 11.4757 5.712L11.0837 5.192L12.8997 3.668H13.9237V8.604H14.8837Z" fill="black"/>
<rect x="1" y="1" width="24" height="11" rx="1" stroke="white"/>
<rect x="26" y="14" width="24" height="11" rx="1" fill="#FF9300"/>
<path d="M39.5837 21.38C39.717 21.38 39.8224 21.4173 39.8997 21.492C39.977 21.564 40.0157 21.66 40.0157 21.78V22.5H35.9197V22.1C35.9197 22.0227 35.9357 21.94 35.9677 21.852C35.9997 21.764 36.0557 21.684 36.1357 21.612L37.8157 19.92C37.9597 19.776 38.085 19.6387 38.1917 19.508C38.2984 19.3773 38.3864 19.2493 38.4557 19.124C38.525 18.996 38.577 18.8693 38.6117 18.744C38.6464 18.616 38.6637 18.4813 38.6637 18.34C38.6637 18.108 38.6077 17.9307 38.4957 17.808C38.3864 17.6827 38.2184 17.62 37.9917 17.62C37.8077 17.62 37.6517 17.6693 37.5237 17.768C37.3984 17.864 37.3117 17.984 37.2637 18.128C37.2077 18.2747 37.1344 18.372 37.0437 18.42C36.953 18.468 36.8237 18.4787 36.6557 18.452L35.9997 18.336C36.0424 18.0453 36.1237 17.792 36.2437 17.576C36.3664 17.36 36.517 17.18 36.6957 17.036C36.877 16.892 37.0837 16.7853 37.3157 16.716C37.5477 16.644 37.797 16.608 38.0637 16.608C38.3517 16.608 38.6104 16.6507 38.8397 16.736C39.0717 16.8187 39.269 16.9347 39.4317 17.084C39.5944 17.2333 39.7184 17.412 39.8037 17.62C39.8917 17.8253 39.9357 18.052 39.9357 18.3C39.9357 18.5133 39.905 18.7107 39.8437 18.892C39.785 19.0733 39.7037 19.2467 39.5997 19.412C39.4957 19.5747 39.3744 19.7333 39.2357 19.888C39.0997 20.04 38.9544 20.1947 38.7997 20.352L37.6597 21.52C37.8064 21.4747 37.9517 21.44 38.0957 21.416C38.2397 21.392 38.373 21.38 38.4957 21.38H39.5837Z" fill="black"/>
<rect x="26" y="14" width="24" height="11" rx="1" stroke="white"/>
<rect x="51" y="27" width="24" height="11" rx="1" fill="#FF9300"/>
<path d="M61.0317 31.336C61.0744 31.0453 61.1557 30.792 61.2757 30.576C61.3984 30.36 61.549 30.18 61.7277 30.036C61.909 29.892 62.1157 29.7853 62.3477 29.716C62.5797 29.644 62.829 29.608 63.0957 29.608C63.3837 29.608 63.6397 29.6493 63.8637 29.732C64.0877 29.812 64.277 29.9213 64.4317 30.06C64.5864 30.1987 64.7037 30.36 64.7837 30.544C64.8637 30.7253 64.9037 30.9173 64.9037 31.12C64.9037 31.304 64.885 31.4667 64.8477 31.608C64.8104 31.7467 64.7544 31.868 64.6797 31.972C64.6077 32.0733 64.517 32.16 64.4077 32.232C64.301 32.3013 64.1784 32.36 64.0397 32.408C64.685 32.6347 65.0077 33.0747 65.0077 33.728C65.0077 34.0373 64.9517 34.3067 64.8397 34.536C64.7277 34.7653 64.577 34.956 64.3877 35.108C64.201 35.26 63.9837 35.3747 63.7357 35.452C63.4877 35.5267 63.229 35.564 62.9597 35.564C62.6824 35.564 62.4357 35.5347 62.2197 35.476C62.0037 35.4147 61.8117 35.3213 61.6437 35.196C61.4757 35.068 61.3277 34.9053 61.1997 34.708C61.0744 34.5107 60.965 34.276 60.8717 34.004L61.4237 33.78C61.5677 33.724 61.701 33.7093 61.8237 33.736C61.9464 33.7627 62.0344 33.824 62.0877 33.92C62.2077 34.1413 62.3344 34.3027 62.4677 34.404C62.6037 34.5027 62.7624 34.552 62.9437 34.552C63.0824 34.552 63.2024 34.5293 63.3037 34.484C63.4077 34.436 63.493 34.376 63.5597 34.304C63.629 34.2293 63.681 34.1453 63.7157 34.052C63.7504 33.9587 63.7677 33.864 63.7677 33.768C63.7677 33.6427 63.7584 33.5307 63.7397 33.432C63.7237 33.3307 63.6757 33.244 63.5957 33.172C63.5157 33.1 63.3944 33.0453 63.2317 33.008C63.0717 32.968 62.8477 32.948 62.5597 32.948V32.092C62.8024 32.092 62.9984 32.0733 63.1477 32.036C63.297 31.9987 63.4117 31.948 63.4917 31.884C63.5744 31.8173 63.629 31.7373 63.6557 31.644C63.6824 31.5507 63.6957 31.448 63.6957 31.336C63.6957 31.1067 63.6397 30.9307 63.5277 30.808C63.4184 30.6827 63.2504 30.62 63.0237 30.62C62.8397 30.62 62.6837 30.6693 62.5557 30.768C62.4304 30.864 62.3437 30.984 62.2957 31.128C62.2397 31.2747 62.1664 31.372 62.0757 31.42C61.985 31.468 61.8557 31.4787 61.6877 31.452L61.0317 31.336Z" fill="black"/>
<rect x="51" y="27" width="24" height="11" rx="1" stroke="white"/>
</svg>
