<?xml version="1.0" encoding="utf-8"?>
<svg width="31px" height="24px" viewBox="0 0 31 24" version="1.1" xmlns:xlink="http://www.w3.org/1999/xlink" xmlns="http://www.w3.org/2000/svg">
  <desc>Created with Lunacy</desc>
  <defs>
    <rect width="31" height="24" id="artboard_1" />
    <clipPath id="clip_1">
      <use xlink:href="#artboard_1" clip-rule="evenodd" />
    </clipPath>
  </defs>
  <g id="hover00172" clip-path="url(#clip_1)">
    <path d="M0 2L0 1C0 0.723858 0.0940151 0.488155 0.282045 0.292893C0.470075 0.0976311 0.697048 0 0.962963 0L25.037 0C25.3029 0 25.5299 0.0976311 25.718 0.292893C25.906 0.488155 26 0.723858 26 1L26 6C26 6.27614 25.906 6.51184 25.718 6.70711C25.5299 6.90237 25.3029 7 25.037 7L0.962963 7C0.697048 7 0.470075 6.90237 0.282045 6.70711C0.0940151 6.51184 0 6.27614 0 6L0 2Z" transform="translate(2.5 14.5)" id="On-Fill" fill="#FF9000" fill-rule="evenodd" stroke="#FFFFFF" stroke-width="1" />
    <path d="M0 2.28571L0 1.14286C0 0.827266 0.0976311 0.557892 0.292893 0.334735C0.488155 0.111578 0.723858 0 1 0L26 0C26.2761 0 26.5118 0.111578 26.7071 0.334735C26.9024 0.557892 27 0.827266 27 1.14286L27 6.85714C27 7.17273 26.9024 7.44211 26.7071 7.66526C26.5118 7.88842 26.2761 8 26 8L1 8C0.723858 8 0.488155 7.88842 0.292893 7.66526C0.0976311 7.44211 0 7.17273 0 6.85714L0 2.28571Z" transform="translate(1.999939 2)" id="Off-Fill" fill="#399DFF" fill-rule="evenodd" stroke="none" />
    <g id="Zoom" transform="translate(3.3999329 12.5)">
      <path d="M5.92225 2.88775Q6.01225 2.74825 6.01225 2.59975L6.01225 2.27575L1.29625 2.27575L1.29625 2.98675L4.86925 2.98675L1.21075 8.12575Q1.17475 8.18425 1.15 8.24725Q1.12525 8.31025 1.12525 8.38225L1.12525 8.72425L5.95825 8.72425L5.95825 8.01325L2.27275 8.01325L5.92225 2.88775ZM9.56075 4.26025Q9.16025 4.09375 8.66075 4.09375Q8.15675 4.09375 7.754 4.26025Q7.35125 4.42675 7.06775 4.73275Q6.78425 5.03875 6.6335 5.473Q6.48275 5.90725 6.48275 6.44275Q6.48275 6.98275 6.6335 7.41475Q6.78425 7.84675 7.06775 8.15275Q7.35125 8.45875 7.754 8.623Q8.15675 8.78725 8.66075 8.78725Q9.16025 8.78725 9.56075 8.623Q9.96125 8.45875 10.2448 8.15275Q10.5283 7.84675 10.679 7.41475Q10.8298 6.98275 10.8298 6.44275Q10.8298 5.90725 10.679 5.473Q10.5283 5.03875 10.2448 4.73275Q9.96125 4.42675 9.56075 4.26025ZM13.5638 4.09375Q14.0632 4.09375 14.4638 4.26025Q14.8643 4.42675 15.1478 4.73275Q15.4313 5.03875 15.582 5.473Q15.7328 5.90725 15.7328 6.44275Q15.7327 6.98275 15.582 7.41475Q15.4313 7.84675 15.1478 8.15275Q14.8643 8.45875 14.4638 8.623Q14.0633 8.78725 13.5638 8.78725Q13.0598 8.78725 12.657 8.623Q12.2543 8.45875 11.9708 8.15275Q11.6873 7.84675 11.5365 7.41475Q11.3858 6.98275 11.3858 6.44275Q11.3858 5.90725 11.5365 5.473Q11.6873 5.03875 11.9708 4.73275Q12.2543 4.42675 12.657 4.26025Q13.0598 4.09375 13.5638 4.09375ZM16.5452 4.16575L16.5452 8.72425L17.3507 8.72425L17.3507 5.32675Q17.5623 5.05225 17.8143 4.8925Q18.0662 4.73275 18.3633 4.73275Q18.7863 4.73275 19.0068 5.00275Q19.2273 5.27275 19.2273 5.82175L19.2273 8.72425L20.0328 8.72425L20.0328 5.82175Q20.0328 5.55175 20.1115 5.347Q20.1903 5.14225 20.3253 5.00725Q20.4603 4.87225 20.638 4.8025Q20.8158 4.73275 21.0138 4.73275Q21.4548 4.73275 21.6888 5.0095Q21.9228 5.28625 21.9228 5.82175L21.9228 8.72425L22.7283 8.72425L22.7283 5.82175Q22.7283 5.40775 22.6248 5.086Q22.5212 4.76425 22.3255 4.54375Q22.1297 4.32325 21.8485 4.2085Q21.5672 4.09375 21.2073 4.09375Q20.9823 4.09375 20.764 4.14775Q20.5457 4.20175 20.3523 4.31875Q20.1588 4.43575 20.0035 4.61575Q19.8483 4.79575 19.7493 5.04325Q19.6233 4.60675 19.3375 4.35025Q19.0518 4.09375 18.5928 4.09375Q18.1788 4.09375 17.8638 4.29175Q17.5487 4.48975 17.2968 4.80025L17.2383 4.33225Q17.1978 4.16575 17.0268 4.16575L16.5452 4.16575ZM9.66875 7.7095Q9.33575 8.16175 8.66075 8.16175Q7.97675 8.16175 7.6415 7.7095Q7.30625 7.25725 7.30625 6.44725Q7.30625 6.04225 7.3895 5.7205Q7.47275 5.39875 7.6415 5.17825Q7.81025 4.95775 8.0645 4.84075Q8.31875 4.72375 8.66075 4.72375Q9.33575 4.72375 9.66875 5.17825Q10.0018 5.63275 10.0018 6.44725Q10.0018 7.25725 9.66875 7.7095ZM13.5638 8.16175Q14.2388 8.16175 14.5718 7.7095Q14.9048 7.25725 14.9048 6.44725Q14.9048 5.63275 14.5718 5.17825Q14.2388 4.72375 13.5638 4.72375Q13.2218 4.72375 12.9675 4.84075Q12.7133 4.95775 12.5445 5.17825Q12.3758 5.39875 12.2925 5.7205Q12.2093 6.04225 12.2093 6.44725Q12.2093 7.25725 12.5445 7.7095Q12.8798 8.16175 13.5638 8.16175Z" />
    </g>
    <g id="Zoom" fill="#FFFFFF" transform="translate(3.3999329 0.5)">
      <path d="M5.92225 2.88775Q6.01225 2.74825 6.01225 2.59975L6.01225 2.27575L1.29625 2.27575L1.29625 2.98675L4.86925 2.98675L1.21075 8.12575Q1.17475 8.18425 1.15 8.24725Q1.12525 8.31025 1.12525 8.38225L1.12525 8.72425L5.95825 8.72425L5.95825 8.01325L2.27275 8.01325L5.92225 2.88775ZM9.56075 4.26025Q9.16025 4.09375 8.66075 4.09375Q8.15675 4.09375 7.754 4.26025Q7.35125 4.42675 7.06775 4.73275Q6.78425 5.03875 6.6335 5.473Q6.48275 5.90725 6.48275 6.44275Q6.48275 6.98275 6.6335 7.41475Q6.78425 7.84675 7.06775 8.15275Q7.35125 8.45875 7.754 8.623Q8.15675 8.78725 8.66075 8.78725Q9.16025 8.78725 9.56075 8.623Q9.96125 8.45875 10.2448 8.15275Q10.5283 7.84675 10.679 7.41475Q10.8298 6.98275 10.8298 6.44275Q10.8298 5.90725 10.679 5.473Q10.5283 5.03875 10.2448 4.73275Q9.96125 4.42675 9.56075 4.26025ZM13.5638 4.09375Q14.0632 4.09375 14.4638 4.26025Q14.8643 4.42675 15.1478 4.73275Q15.4313 5.03875 15.582 5.473Q15.7328 5.90725 15.7328 6.44275Q15.7327 6.98275 15.582 7.41475Q15.4313 7.84675 15.1478 8.15275Q14.8643 8.45875 14.4638 8.623Q14.0633 8.78725 13.5638 8.78725Q13.0598 8.78725 12.657 8.623Q12.2543 8.45875 11.9708 8.15275Q11.6873 7.84675 11.5365 7.41475Q11.3858 6.98275 11.3858 6.44275Q11.3858 5.90725 11.5365 5.473Q11.6873 5.03875 11.9708 4.73275Q12.2543 4.42675 12.657 4.26025Q13.0598 4.09375 13.5638 4.09375ZM16.5452 4.16575L16.5452 8.72425L17.3507 8.72425L17.3507 5.32675Q17.5623 5.05225 17.8143 4.8925Q18.0662 4.73275 18.3633 4.73275Q18.7863 4.73275 19.0068 5.00275Q19.2273 5.27275 19.2273 5.82175L19.2273 8.72425L20.0328 8.72425L20.0328 5.82175Q20.0328 5.55175 20.1115 5.347Q20.1903 5.14225 20.3253 5.00725Q20.4603 4.87225 20.638 4.8025Q20.8158 4.73275 21.0138 4.73275Q21.4548 4.73275 21.6888 5.0095Q21.9228 5.28625 21.9228 5.82175L21.9228 8.72425L22.7283 8.72425L22.7283 5.82175Q22.7283 5.40775 22.6248 5.086Q22.5212 4.76425 22.3255 4.54375Q22.1297 4.32325 21.8485 4.2085Q21.5672 4.09375 21.2073 4.09375Q20.9823 4.09375 20.764 4.14775Q20.5457 4.20175 20.3523 4.31875Q20.1588 4.43575 20.0035 4.61575Q19.8483 4.79575 19.7493 5.04325Q19.6233 4.60675 19.3375 4.35025Q19.0518 4.09375 18.5928 4.09375Q18.1788 4.09375 17.8638 4.29175Q17.5487 4.48975 17.2968 4.80025L17.2383 4.33225Q17.1978 4.16575 17.0268 4.16575L16.5452 4.16575ZM9.66875 7.7095Q9.33575 8.16175 8.66075 8.16175Q7.97675 8.16175 7.6415 7.7095Q7.30625 7.25725 7.30625 6.44725Q7.30625 6.04225 7.3895 5.7205Q7.47275 5.39875 7.6415 5.17825Q7.81025 4.95775 8.0645 4.84075Q8.31875 4.72375 8.66075 4.72375Q9.33575 4.72375 9.66875 5.17825Q10.0018 5.63275 10.0018 6.44725Q10.0018 7.25725 9.66875 7.7095ZM13.5638 8.16175Q14.2388 8.16175 14.5718 7.7095Q14.9048 7.25725 14.9048 6.44725Q14.9048 5.63275 14.5718 5.17825Q14.2388 4.72375 13.5638 4.72375Q13.2218 4.72375 12.9675 4.84075Q12.7133 4.95775 12.5445 5.17825Q12.3758 5.39875 12.2925 5.7205Q12.2093 6.04225 12.2093 6.44725Q12.2093 7.25725 12.5445 7.7095Q12.8798 8.16175 13.5638 8.16175Z" />
    </g>
  </g>
</svg>