<?xml version="1.0" encoding="UTF-8"?>
<svg width="51px" height="30px" viewBox="0 0 51 30" version="1.1" xmlns="http://www.w3.org/2000/svg" xmlns:xlink="http://www.w3.org/1999/xlink">
    <title>hoverOn00152</title>
    <g id="hoverOn00152" stroke="none" stroke-width="1" fill="none" fill-rule="evenodd">
        <rect id="Rectangle" stroke="#FFFFFF" fill="#399DFF" x="2" y="17" width="47" height="11" rx="1"></rect>
        <g id="Group-Copy" transform="translate(6.000000, 19.000000)" fill="#E5E5E5" fill-rule="nonzero">
            <path d="M3.276,7.072 C3.693,7.072 4.068,7.00525 4.401,6.87175 C4.734,6.73825 5.0175,6.55225 5.2515,6.31375 C5.4855,6.07525 5.66475,5.79175 5.78925,5.46325 C5.91375,5.13475 5.976,4.777 5.976,4.39 L5.976,4.39 L5.976,0.493 L4.7655,0.493 L4.7655,4.39 C4.7655,4.639 4.73175,4.864 4.66425,5.065 C4.59675,5.266 4.49925,5.437 4.37175,5.578 C4.24425,5.719 4.08825,5.8285 3.90375,5.9065 C3.71925,5.9845 3.51,6.0235 3.276,6.0235 C3.042,6.0235 2.83275,5.9845 2.64825,5.9065 C2.46375,5.8285 2.3085,5.71825 2.1825,5.57575 C2.0565,5.43325 1.95975,5.2615 1.89225,5.0605 C1.82475,4.8595 1.791,4.6345 1.791,4.3855 L1.791,4.3855 L1.791,0.493 L0.5805,0.493 L0.5805,4.39 C0.5805,4.777 0.64275,5.13475 0.76725,5.46325 C0.89175,5.79175 1.07025,6.07525 1.30275,6.31375 C1.53525,6.55225 1.818,6.73825 2.151,6.87175 C2.484,7.00525 2.859,7.072 3.276,7.072 Z M8.85750002,7 L8.85750002,3.661 C9.00750002,3.511 9.16650002,3.3925 9.33450002,3.3055 C9.50250002,3.2185 9.68250002,3.175 9.87450002,3.175 C10.1355,3.175 10.33125,3.25225 10.46175,3.40675 C10.59225,3.56125 10.6575,3.7795 10.6575,4.0615 L10.6575,4.0615 L10.6575,7 L11.769,7 L11.769,4.0615 C11.769,3.8035 11.73525,3.56725 11.66775,3.35275 C11.60025,3.13825 11.50125,2.95375 11.37075,2.79925 C11.24025,2.64475 11.0775,2.52475 10.8825,2.43925 C10.6875,2.35375 10.464,2.311 10.212,2.311 C10.056,2.311 9.91200002,2.326 9.78000002,2.356 C9.64800002,2.386 9.52425002,2.4295 9.40875002,2.4865 C9.29325002,2.5435 9.18375002,2.611 9.08025002,2.689 C8.97675002,2.767 8.87850002,2.854 8.78550002,2.95 L8.78550002,2.95 L8.70900002,2.5855 C8.66400002,2.4505 8.56950002,2.383 8.42550002,2.383 L8.42550002,2.383 L7.74600002,2.383 L7.74600002,7 L8.85750002,7 Z M14.0925,1.735 C14.1915,1.735 14.2845,1.71625 14.3715,1.67875 C14.4585,1.64125 14.53425,1.591 14.59875,1.528 C14.66325,1.465 14.715,1.3915 14.754,1.3075 C14.793,1.2235 14.8125,1.1335 14.8125,1.0375 C14.8125,0.9385 14.793,0.8455 14.754,0.7585 C14.715,0.6715 14.66325,0.5965 14.59875,0.5335 C14.53425,0.4705 14.4585,0.42025 14.3715,0.38275 C14.2845,0.34525 14.1915,0.3265 14.0925,0.3265 C13.9965,0.3265 13.90575,0.34525 13.82025,0.38275 C13.73475,0.42025 13.6605,0.4705 13.5975,0.5335 C13.5345,0.5965 13.48425,0.6715 13.44675,0.7585 C13.40925,0.8455 13.3905,0.9385 13.3905,1.0375 C13.3905,1.1335 13.40925,1.2235 13.44675,1.3075 C13.48425,1.3915 13.5345,1.465 13.5975,1.528 C13.6605,1.591 13.73475,1.64125 13.82025,1.67875 C13.90575,1.71625 13.9965,1.735 14.0925,1.735 Z M14.646,7 L14.646,2.383 L13.5345,2.383 L13.5345,7 L14.646,7 Z M17.6130001,8.5075 L17.6130001,6.6175 C17.7570001,6.7585 17.9197501,6.86875 18.1012501,6.94825 C18.2827501,7.02775 18.5040001,7.0675 18.7650001,7.0675 C19.0680001,7.0675 19.3417501,7.00675 19.5862501,6.88525 C19.8307501,6.76375 20.0392501,6.595 20.2117501,6.379 C20.3842501,6.163 20.5170001,5.908 20.6100001,5.614 C20.7030001,5.32 20.7495001,5.0005 20.7495001,4.6555 C20.7495001,4.2775 20.7082501,3.94225 20.6257501,3.64975 C20.5432501,3.35725 20.4262501,3.11125 20.2747501,2.91175 C20.1232501,2.71225 19.9432501,2.56 19.7347501,2.455 C19.5262501,2.35 19.2960001,2.2975 19.0440001,2.2975 C18.7200001,2.2975 18.4372501,2.3635 18.1957501,2.4955 C17.9542501,2.6275 17.7405001,2.8 17.5545001,3.013 L17.5545001,3.013 L17.4645001,2.5855 C17.4495001,2.5165 17.4165001,2.4655 17.3655001,2.4325 C17.3145001,2.3995 17.2530001,2.383 17.1810001,2.383 L17.1810001,2.383 L16.5015001,2.383 L16.5015001,8.5075 L17.6130001,8.5075 Z M18.5040001,6.2215 C18.3330001,6.2215 18.1732501,6.19075 18.0247501,6.12925 C17.8762501,6.06775 17.7390001,5.959 17.6130001,5.803 L17.6130001,5.803 L17.6130001,3.733 C17.7540001,3.556 17.9062501,3.41875 18.0697501,3.32125 C18.2332501,3.22375 18.4305001,3.175 18.6615001,3.175 C18.8085001,3.175 18.9397501,3.202 19.0552501,3.256 C19.1707501,3.31 19.2690001,3.3955 19.3500001,3.5125 C19.4310001,3.6295 19.4932501,3.78175 19.5367501,3.96925 C19.5802501,4.15675 19.6020001,4.3855 19.6020001,4.6555 C19.6020001,4.9225 19.5765001,5.15425 19.5255001,5.35075 C19.4745001,5.54725 19.4017501,5.71 19.3072501,5.839 C19.2127501,5.968 19.0972501,6.064 18.9607501,6.127 C18.8242501,6.19 18.6720001,6.2215 18.5040001,6.2215 Z M24.1620001,7.0675 C24.5070001,7.0675 24.8197501,7.012 25.1002501,6.901 C25.3807501,6.79 25.6200001,6.631 25.8180001,6.424 C26.0160001,6.217 26.1690001,5.9665 26.2770001,5.6725 C26.3850001,5.3785 26.4390001,5.0485 26.4390001,4.6825 C26.4390001,4.3195 26.3850001,3.991 26.2770001,3.697 C26.1690001,3.403 26.0160001,3.154 25.8180001,2.95 C25.6200001,2.746 25.3807501,2.5885 25.1002501,2.4775 C24.8197501,2.3665 24.5070001,2.311 24.1620001,2.311 C23.8170001,2.311 23.5035001,2.3665 23.2215001,2.4775 C22.9395001,2.5885 22.6987501,2.746 22.4992501,2.95 C22.2997501,3.154 22.1452501,3.403 22.0357501,3.697 C21.9262501,3.991 21.8715001,4.3195 21.8715001,4.6825 C21.8715001,5.0485 21.9262501,5.3785 22.0357501,5.6725 C22.1452501,5.9665 22.2997501,6.217 22.4992501,6.424 C22.6987501,6.631 22.9395001,6.79 23.2215001,6.901 C23.5035001,7.012 23.8170001,7.0675 24.1620001,7.0675 Z M24.1620001,6.2125 C23.7720001,6.2125 23.4840001,6.08275 23.2980001,5.82325 C23.1120001,5.56375 23.0190001,5.1865 23.0190001,4.6915 C23.0190001,4.1965 23.1120001,3.81775 23.2980001,3.55525 C23.4840001,3.29275 23.7720001,3.1615 24.1620001,3.1615 C24.5460001,3.1615 24.8302501,3.292 25.0147501,3.553 C25.1992501,3.814 25.2915001,4.1935 25.2915001,4.6915 C25.2915001,5.1895 25.1992501,5.5675 25.0147501,5.8255 C24.8302501,6.0835 24.5460001,6.2125 24.1620001,6.2125 Z M29.0910001,7 L29.0910001,0.313 L27.9795001,0.313 L27.9795001,7 L29.0910001,7 Z M32.0580001,7.072 C32.2230001,7.072 32.3730001,7.0585 32.5080001,7.0315 C32.6430001,7.0045 32.7705001,6.964 32.8905001,6.91 C33.0105001,6.856 33.1267501,6.78925 33.2392501,6.70975 C33.3517501,6.63025 33.4665001,6.538 33.5835001,6.433 L33.5835001,6.433 L33.6825001,6.7615 C33.7125001,6.8575 33.7575001,6.92125 33.8175001,6.95275 C33.8775001,6.98425 33.9600001,7 34.0650001,7 L34.0650001,7 L34.5645001,7 L34.5645001,4.084 C34.5645001,3.823 34.5262501,3.583 34.4497501,3.364 C34.3732501,3.145 34.2615001,2.95675 34.1145001,2.79925 C33.9675001,2.64175 33.7882501,2.51875 33.5767501,2.43025 C33.3652501,2.34175 33.1245001,2.2975 32.8545001,2.2975 C32.1045001,2.2975 31.4640001,2.5405 30.9330001,3.0265 L30.9330001,3.0265 L31.1355001,3.382 C31.1685001,3.439 31.2120001,3.487 31.2660001,3.526 C31.3200001,3.565 31.3845001,3.5845 31.4595001,3.5845 C31.5495001,3.5845 31.6320001,3.5635 31.7070001,3.5215 C31.7820001,3.4795 31.8637501,3.43225 31.9522501,3.37975 C32.0407501,3.32725 32.1450001,3.28 32.2650001,3.238 C32.3850001,3.196 32.5350001,3.175 32.7150001,3.175 C32.9640001,3.175 33.1537501,3.24925 33.2842501,3.39775 C33.4147501,3.54625 33.4800001,3.775 33.4800001,4.084 L33.4800001,4.084 L33.4800001,4.354 C32.9550001,4.366 32.5155001,4.417 32.1615001,4.507 C31.8075001,4.597 31.5240001,4.71025 31.3110001,4.84675 C31.0980001,4.98325 30.9457501,5.13625 30.8542501,5.30575 C30.7627501,5.47525 30.7170001,5.647 30.7170001,5.821 C30.7170001,6.028 30.7500001,6.2095 30.8160001,6.3655 C30.8820001,6.5215 30.9742501,6.652 31.0927501,6.757 C31.2112501,6.862 31.3530001,6.94075 31.5180001,6.99325 C31.6830001,7.04575 31.8630001,7.072 32.0580001,7.072 Z M32.4045001,6.307 C32.2185001,6.307 32.0677501,6.265 31.9522501,6.181 C31.8367501,6.097 31.7790001,5.9575 31.7790001,5.7625 C31.7790001,5.6635 31.8067501,5.572 31.8622501,5.488 C31.9177501,5.404 32.0115001,5.3305 32.1435001,5.2675 C32.2755001,5.2045 32.4502501,5.15275 32.6677501,5.11225 C32.8852501,5.07175 33.1560001,5.044 33.4800001,5.029 L33.4800001,5.029 L33.4800001,5.8075 C33.3990001,5.8915 33.3187501,5.96425 33.2392501,6.02575 C33.1597501,6.08725 33.0772501,6.139 32.9917501,6.181 C32.9062501,6.223 32.8155001,6.2545 32.7195001,6.2755 C32.6235001,6.2965 32.5185001,6.307 32.4045001,6.307 Z M37.3695002,7 L37.3695002,4.1245 C37.4835002,3.8785 37.6230002,3.69175 37.7880002,3.56425 C37.9530002,3.43675 38.1510002,3.373 38.3820002,3.373 C38.5110002,3.373 38.6145002,3.3835 38.6925002,3.4045 C38.7705002,3.4255 38.8320002,3.436 38.8770002,3.436 C38.9280002,3.436 38.9685002,3.42475 38.9985002,3.40225 C39.0285002,3.37975 39.0480002,3.3415 39.0570002,3.2875 L39.0570002,3.2875 L39.2010002,2.455 C39.0510002,2.35 38.8620002,2.2975 38.6340002,2.2975 C38.3580002,2.2975 38.1090002,2.38 37.8870002,2.545 C37.6650002,2.71 37.4715002,2.935 37.3065002,3.22 L37.3065002,3.22 L37.2390002,2.662 C37.2240002,2.56 37.1940002,2.488 37.1490002,2.446 C37.1040002,2.404 37.0245002,2.383 36.9105002,2.383 L36.9105002,2.383 L36.2580002,2.383 L36.2580002,7 L37.3695002,7 Z" id="Unipolar"></path>
        </g>
    </g>
</svg>