<?xml version="1.0" encoding="utf-8"?>
<svg width="31px" height="22px" viewBox="0 0 31 22" version="1.1" xmlns:xlink="http://www.w3.org/1999/xlink" xmlns="http://www.w3.org/2000/svg">
  <desc>Created with Lunacy</desc>
  <defs>
    <path d="M0 0L31 0L31 22L0 22L0 0Z" id="path_1" />
    <rect width="31" height="22" id="artboard_1" />
    <clipPath id="clip_1">
      <use xlink:href="#artboard_1" clip-rule="evenodd" />
    </clipPath>
    <clipPath id="mask_1">
      <use xlink:href="#path_1" />
    </clipPath>
  </defs>
  <g id="StatusTune" clip-path="url(#clip_1)">
    <g id="StatusButton" transform="translate(-6.103516E-05 -1.525879E-05)">
      <path d="M0 0L31 0L31 22L0 22L0 0Z" id="Background" fill="none" stroke="none" />
      <g clip-path="url(#mask_1)">
        <g id="StatusButton" transform="translate(0.5 1.525879E-05)">
          <g id="button/smallButton" transform="translate(0 0.4999847)">
            <path d="M0 4L0 2C0 1.44772 0.195262 0.976311 0.585786 0.585786C0.976311 0.195262 1.44772 0 2 0L28 0C28.5523 0 29.0237 0.195262 29.4142 0.585786C29.8047 0.976311 30 1.44772 30 2L30 8C30 8.55228 29.8047 9.02369 29.4142 9.41421C29.0237 9.80474 28.5523 10 28 10L2 10C1.44772 10 0.976311 9.80474 0.585786 9.41421C0.195262 9.02369 0 8.55228 0 8L0 4Z" id="Rectangle" fill="#242424" stroke="#0F0F0F" stroke-width="1" />
          </g>
          <g id="button/smallButton#1" transform="translate(0 11.49998)">
            <path d="M0 4L0 2C0 1.44772 0.195262 0.976311 0.585786 0.585786C0.976311 0.195262 1.44772 0 2 0L28 0C28.5523 0 29.0237 0.195262 29.4142 0.585786C29.8047 0.976311 30 1.44772 30 2L30 8C30 8.55228 29.8047 9.02369 29.4142 9.41421C29.0237 9.80474 28.5523 10 28 10L2 10C1.44772 10 0.976311 9.80474 0.585786 9.41421C0.195262 9.02369 0 8.55228 0 8L0 4Z" id="Rectangle#1" fill="#242424" stroke="#0F0F0F" stroke-width="1" />
          </g>
          <path d="M0 2L0 1C0 0.723858 0.0976311 0.488155 0.292893 0.292893C0.488155 0.0976311 0.723858 0 1 0L26 0C26.2761 0 26.5118 0.0976311 26.7071 0.292893C26.9024 0.488155 27 0.723858 27 1L27 6C27 6.27614 26.9024 6.51184 26.7071 6.70711C26.5118 6.90237 26.2761 7 26 7L1 7C0.723858 7 0.488155 6.90237 0.292893 6.70711C0.0976311 6.51184 0 6.27614 0 6L0 2Z" transform="translate(1.5 12.99998)" id="Rectangle#2" fill="#FF9000" stroke="none" />
          <g id="Tune" transform="translate(2.899994 11)">
            <path d="M5.443 3.00925L7.531 3.00925L7.531 2.27575L2.482 2.27575L2.482 3.00925L4.5745 3.00925L4.5745 8.72425L5.443 8.72425L5.443 3.00925ZM13.6695 4.82725Q13.818 4.66075 13.9845 4.52575Q14.151 4.39075 14.3378 4.294Q14.5245 4.19725 14.7338 4.1455Q14.943 4.09375 15.186 4.09375Q15.5595 4.09375 15.8453 4.2175Q16.131 4.34125 16.3223 4.5685Q16.5135 4.79575 16.6125 5.11525Q16.7115 5.43475 16.7115 5.82175L16.7115 8.72425L15.906 8.72425L15.906 5.82175Q15.906 5.30425 15.6698 5.0185Q15.4335 4.73275 14.952 4.73275Q14.5965 4.73275 14.2883 4.90375Q13.98 5.07475 13.719 5.36725L13.719 8.72425L12.9135 8.72425L12.9135 4.16575L13.395 4.16575Q13.566 4.16575 13.6065 4.33225L13.6695 4.82725ZM21.079 8.398Q21.286 8.26525 21.4345 8.08525L21.2095 7.79275Q21.1555 7.71625 21.0565 7.71625Q20.98 7.71625 20.8743 7.786Q20.7685 7.85575 20.611 7.93675Q20.4535 8.01775 20.2353 8.0875Q20.017 8.15725 19.7155 8.15725Q19.3915 8.15725 19.1305 8.0515Q18.8695 7.94575 18.6805 7.732Q18.4915 7.51825 18.3858 7.19875Q18.28 6.87925 18.2665 6.44725L21.313 6.44725Q21.4255 6.44725 21.466 6.38425Q21.5065 6.32125 21.5065 6.13225Q21.5065 5.64625 21.3625 5.266Q21.2185 4.88575 20.9643 4.627Q20.71 4.36825 20.3613 4.231Q20.0125 4.09375 19.603 4.09375Q19.108 4.09375 18.712 4.267Q18.316 4.44025 18.0415 4.744Q17.767 5.04775 17.6208 5.46175Q17.4745 5.87575 17.4745 6.35275Q17.4745 6.94225 17.6365 7.39675Q17.7985 7.85125 18.0888 8.1595Q18.379 8.46775 18.7773 8.6275Q19.1755 8.78725 19.648 8.78725Q19.8955 8.78725 20.1475 8.7445Q20.3995 8.70175 20.6358 8.61625Q20.872 8.53075 21.079 8.398ZM11.8445 8.72425L11.8445 4.16575L11.0435 4.16575L11.0435 7.52275Q10.7825 7.81975 10.4743 7.9885Q10.166 8.15725 9.8105 8.15725Q9.3245 8.15725 9.08825 7.87375Q8.852 7.59025 8.852 7.07275L8.852 4.16575L8.051 4.16575L8.051 7.07275Q8.051 7.45975 8.14775 7.77925Q8.2445 8.09875 8.438 8.32375Q8.6315 8.54875 8.91725 8.6725Q9.203 8.79625 9.5765 8.79625Q10.0535 8.79625 10.4225 8.596Q10.7915 8.39575 11.0885 8.06725L11.1515 8.55775Q11.1965 8.72425 11.3675 8.72425L11.8445 8.72425ZM20.7078 5.437Q20.7865 5.66875 20.7865 5.94775L18.2935 5.94775Q18.3745 5.35375 18.7098 5.0185Q19.045 4.68325 19.621 4.68325Q19.8955 4.68325 20.1115 4.7755Q20.3275 4.86775 20.4783 5.0365Q20.629 5.20525 20.7078 5.437Z" />
          </g>
          <g id="Tune" fill="#B4B4B4" transform="translate(2.899994 0)">
            <path d="M5.443 3.00925L7.531 3.00925L7.531 2.27575L2.482 2.27575L2.482 3.00925L4.5745 3.00925L4.5745 8.72425L5.443 8.72425L5.443 3.00925ZM13.6695 4.82725Q13.818 4.66075 13.9845 4.52575Q14.151 4.39075 14.3378 4.294Q14.5245 4.19725 14.7338 4.1455Q14.943 4.09375 15.186 4.09375Q15.5595 4.09375 15.8453 4.2175Q16.131 4.34125 16.3223 4.5685Q16.5135 4.79575 16.6125 5.11525Q16.7115 5.43475 16.7115 5.82175L16.7115 8.72425L15.906 8.72425L15.906 5.82175Q15.906 5.30425 15.6698 5.0185Q15.4335 4.73275 14.952 4.73275Q14.5965 4.73275 14.2883 4.90375Q13.98 5.07475 13.719 5.36725L13.719 8.72425L12.9135 8.72425L12.9135 4.16575L13.395 4.16575Q13.566 4.16575 13.6065 4.33225L13.6695 4.82725ZM21.079 8.398Q21.286 8.26525 21.4345 8.08525L21.2095 7.79275Q21.1555 7.71625 21.0565 7.71625Q20.98 7.71625 20.8743 7.786Q20.7685 7.85575 20.611 7.93675Q20.4535 8.01775 20.2353 8.0875Q20.017 8.15725 19.7155 8.15725Q19.3915 8.15725 19.1305 8.0515Q18.8695 7.94575 18.6805 7.732Q18.4915 7.51825 18.3858 7.19875Q18.28 6.87925 18.2665 6.44725L21.313 6.44725Q21.4255 6.44725 21.466 6.38425Q21.5065 6.32125 21.5065 6.13225Q21.5065 5.64625 21.3625 5.266Q21.2185 4.88575 20.9643 4.627Q20.71 4.36825 20.3613 4.231Q20.0125 4.09375 19.603 4.09375Q19.108 4.09375 18.712 4.267Q18.316 4.44025 18.0415 4.744Q17.767 5.04775 17.6208 5.46175Q17.4745 5.87575 17.4745 6.35275Q17.4745 6.94225 17.6365 7.39675Q17.7985 7.85125 18.0888 8.1595Q18.379 8.46775 18.7773 8.6275Q19.1755 8.78725 19.648 8.78725Q19.8955 8.78725 20.1475 8.7445Q20.3995 8.70175 20.6358 8.61625Q20.872 8.53075 21.079 8.398ZM11.8445 8.72425L11.8445 4.16575L11.0435 4.16575L11.0435 7.52275Q10.7825 7.81975 10.4743 7.9885Q10.166 8.15725 9.8105 8.15725Q9.3245 8.15725 9.08825 7.87375Q8.852 7.59025 8.852 7.07275L8.852 4.16575L8.051 4.16575L8.051 7.07275Q8.051 7.45975 8.14775 7.77925Q8.2445 8.09875 8.438 8.32375Q8.6315 8.54875 8.91725 8.6725Q9.203 8.79625 9.5765 8.79625Q10.0535 8.79625 10.4225 8.596Q10.7915 8.39575 11.0885 8.06725L11.1515 8.55775Q11.1965 8.72425 11.3675 8.72425L11.8445 8.72425ZM20.7078 5.437Q20.7865 5.66875 20.7865 5.94775L18.2935 5.94775Q18.3745 5.35375 18.7098 5.0185Q19.045 4.68325 19.621 4.68325Q19.8955 4.68325 20.1115 4.7755Q20.3275 4.86775 20.4783 5.0365Q20.629 5.20525 20.7078 5.437Z" />
          </g>
        </g>
      </g>
    </g>
  </g>
</svg>