<?xml version="1.0" encoding="utf-8"?>
<svg width="31px" height="22px" viewBox="0 0 31 22" version="1.1" xmlns:xlink="http://www.w3.org/1999/xlink" xmlns="http://www.w3.org/2000/svg">
  <desc>Created with Lunacy</desc>
  <defs>
    <path d="M0 0L31 0L31 22L0 22L0 0Z" id="path_1" />
    <rect width="31" height="22" id="artboard_1" />
    <clipPath id="clip_1">
      <use xlink:href="#artboard_1" clip-rule="evenodd" />
    </clipPath>
    <clipPath id="mask_1">
      <use xlink:href="#path_1" />
    </clipPath>
  </defs>
  <g id="StatusMPE" clip-path="url(#clip_1)">
    <g id="StatusButton" transform="translate(-6.103516E-05 -1.525879E-05)">
      <path d="M0 0L31 0L31 22L0 22L0 0Z" id="Background" fill="none" stroke="none" />
      <g clip-path="url(#mask_1)">
        <g id="StatusButton" transform="translate(0.5 1.525879E-05)">
          <g id="button/smallButton" transform="translate(0 0.4999847)">
            <path d="M0 4L0 2C0 1.44772 0.195262 0.976311 0.585786 0.585786C0.976311 0.195262 1.44772 0 2 0L28 0C28.5523 0 29.0237 0.195262 29.4142 0.585786C29.8047 0.976311 30 1.44772 30 2L30 8C30 8.55228 29.8047 9.02369 29.4142 9.41421C29.0237 9.80474 28.5523 10 28 10L2 10C1.44772 10 0.976311 9.80474 0.585786 9.41421C0.195262 9.02369 0 8.55228 0 8L0 4Z" id="Rectangle" fill="#242424" stroke="#0F0F0F" stroke-width="1" />
          </g>
          <g id="button/smallButton#1" transform="translate(0 11.49998)">
            <path d="M0 4L0 2C0 1.44772 0.195262 0.976311 0.585786 0.585786C0.976311 0.195262 1.44772 0 2 0L28 0C28.5523 0 29.0237 0.195262 29.4142 0.585786C29.8047 0.976311 30 1.44772 30 2L30 8C30 8.55228 29.8047 9.02369 29.4142 9.41421C29.0237 9.80474 28.5523 10 28 10L2 10C1.44772 10 0.976311 9.80474 0.585786 9.41421C0.195262 9.02369 0 8.55228 0 8L0 4Z" id="Rectangle#1" fill="#242424" stroke="#0F0F0F" stroke-width="1" />
          </g>
          <path d="M0 2L0 1C0 0.723858 0.0976311 0.488155 0.292893 0.292893C0.488155 0.0976311 0.723858 0 1 0L26 0C26.2761 0 26.5118 0.0976311 26.7071 0.292893C26.9024 0.488155 27 0.723858 27 1L27 6C27 6.27614 26.9024 6.51184 26.7071 6.70711C26.5118 6.90237 26.2761 7 26 7L1 7C0.723858 7 0.488155 6.90237 0.292893 6.70711C0.0976311 6.51184 0 6.27614 0 6L0 2Z" transform="translate(1.5 12.99998)" id="Rectangle#2" fill="#FF9000" stroke="none" />
          <g id="MPE" transform="translate(2.700012 11)">
            <path d="M10.3538 2.27575L10.3538 8.72425L9.58875 8.72425L9.58875 3.98575Q9.58875 3.89125 9.5955 3.78325Q9.60225 3.67525 9.61125 3.56275L7.39725 7.59475Q7.29375 7.79725 7.08225 7.79725L6.95625 7.79725Q6.74475 7.79725 6.64125 7.59475L4.38225 3.54475Q4.40925 3.78325 4.40925 3.98575L4.40925 8.72425L3.64425 8.72425L3.64425 2.27575L4.28775 2.27575Q4.40475 2.27575 4.46775 2.29825Q4.53075 2.32075 4.58925 2.42425L6.81675 6.39325Q6.87075 6.50125 6.9225 6.61825Q6.97425 6.73525 7.01925 6.85675Q7.06425 6.73525 7.11375 6.616Q7.16325 6.49675 7.22175 6.38875L9.40875 2.42425Q9.46275 2.32075 9.528 2.29825Q9.59325 2.27575 9.71025 2.27575L10.3538 2.27575ZM13.7043 2.27575Q14.3162 2.27575 14.7685 2.4175Q15.2207 2.55925 15.5177 2.82025Q15.8147 3.08125 15.961 3.45025Q16.1073 3.81925 16.1073 4.27375Q16.1073 4.72375 15.9497 5.09725Q15.7922 5.47075 15.4885 5.74075Q15.1848 6.01075 14.737 6.1615Q14.2893 6.31225 13.7043 6.31225L12.6693 6.31225L12.6693 8.72425L11.8007 8.72425L11.8007 2.27575L13.7043 2.27575ZM20.9788 8.72425L20.9833 8.01325L17.8783 8.01325L17.8783 5.81275L20.3893 5.81275L20.3893 5.12875L17.8783 5.12875L17.8783 2.98675L20.9788 2.98675L20.9788 2.27575L17.0053 2.27575L17.0053 8.72425L20.9788 8.72425ZM13.7043 5.61925Q14.0778 5.61925 14.3635 5.52025Q14.6493 5.42125 14.845 5.2435Q15.0408 5.06575 15.1398 4.81825Q15.2387 4.57075 15.2388 4.27375Q15.2387 3.65725 14.8585 3.31075Q14.4783 2.96425 13.7043 2.96425L12.6693 2.96425L12.6693 5.61925L13.7043 5.61925Z" />
          </g>
          <g id="MPE" fill="#B4B4B4" transform="translate(2.700012 0)">
            <path d="M10.3538 2.27575L10.3538 8.72425L9.58875 8.72425L9.58875 3.98575Q9.58875 3.89125 9.5955 3.78325Q9.60225 3.67525 9.61125 3.56275L7.39725 7.59475Q7.29375 7.79725 7.08225 7.79725L6.95625 7.79725Q6.74475 7.79725 6.64125 7.59475L4.38225 3.54475Q4.40925 3.78325 4.40925 3.98575L4.40925 8.72425L3.64425 8.72425L3.64425 2.27575L4.28775 2.27575Q4.40475 2.27575 4.46775 2.29825Q4.53075 2.32075 4.58925 2.42425L6.81675 6.39325Q6.87075 6.50125 6.9225 6.61825Q6.97425 6.73525 7.01925 6.85675Q7.06425 6.73525 7.11375 6.616Q7.16325 6.49675 7.22175 6.38875L9.40875 2.42425Q9.46275 2.32075 9.528 2.29825Q9.59325 2.27575 9.71025 2.27575L10.3538 2.27575ZM13.7043 2.27575Q14.3162 2.27575 14.7685 2.4175Q15.2207 2.55925 15.5177 2.82025Q15.8147 3.08125 15.961 3.45025Q16.1073 3.81925 16.1073 4.27375Q16.1073 4.72375 15.9497 5.09725Q15.7922 5.47075 15.4885 5.74075Q15.1848 6.01075 14.737 6.1615Q14.2893 6.31225 13.7043 6.31225L12.6693 6.31225L12.6693 8.72425L11.8007 8.72425L11.8007 2.27575L13.7043 2.27575ZM20.9788 8.72425L20.9833 8.01325L17.8783 8.01325L17.8783 5.81275L20.3893 5.81275L20.3893 5.12875L17.8783 5.12875L17.8783 2.98675L20.9788 2.98675L20.9788 2.27575L17.0053 2.27575L17.0053 8.72425L20.9788 8.72425ZM13.7043 5.61925Q14.0778 5.61925 14.3635 5.52025Q14.6493 5.42125 14.845 5.2435Q15.0408 5.06575 15.1398 4.81825Q15.2387 4.57075 15.2388 4.27375Q15.2387 3.65725 14.8585 3.31075Q14.4783 2.96425 13.7043 2.96425L12.6693 2.96425L12.6693 5.61925L13.7043 5.61925Z" />
          </g>
        </g>
      </g>
    </g>
  </g>
</svg>