<?xml version="1.0" encoding="utf-8"?>
<svg width="24px" height="28px" viewBox="0 0 24 28" version="1.1" xmlns="http://www.w3.org/2000/svg">
  <title>bmp00157</title>
  <desc>Created with Sketch.</desc>
  <g id="bmp00157" stroke="none" stroke-width="1" fill="none" fill-rule="evenodd"/>
  <path d="M 6.901 9.257 L 6.901 13.737 L 6.311 13.737 L 6.311 9.257 L 4.731 9.257 L 4.731 8.737 L 8.481 8.737 L 8.481 9.257 L 6.901 9.257 ZM 12.054 12.407 C 12.054 12.847 11.894 13.19 11.574 13.437 C 11.254 13.684 10.82 13.807 10.274 13.807 C 9.68 13.807 9.224 13.73 8.904 13.577 L 8.904 13.017 C 9.11 13.104 9.334 13.17 9.574 13.217 C 9.814 13.27 10.054 13.297 10.294 13.297 C 10.68 13.297 10.974 13.224 11.174 13.077 C 11.367 12.93 11.464 12.727 11.464 12.467 C 11.464 12.294 11.427 12.15 11.354 12.037 C 11.287 11.924 11.174 11.82 11.014 11.727 C 10.847 11.634 10.597 11.53 10.264 11.417 C 9.804 11.25 9.474 11.05 9.274 10.817 C 9.074 10.59 8.974 10.294 8.974 9.927 C 8.974 9.54 9.117 9.234 9.404 9.007 C 9.697 8.78 10.08 8.667 10.554 8.667 C 11.047 8.667 11.504 8.757 11.924 8.937 L 11.744 9.447 C 11.33 9.274 10.93 9.187 10.544 9.187 C 10.23 9.187 9.987 9.254 9.814 9.387 C 9.647 9.52 9.564 9.704 9.564 9.937 C 9.564 10.11 9.594 10.25 9.654 10.357 C 9.72 10.47 9.827 10.574 9.974 10.667 C 10.127 10.76 10.36 10.86 10.674 10.967 C 11.2 11.16 11.56 11.364 11.754 11.577 C 11.954 11.79 12.054 12.067 12.054 12.407 Z" transform="matrix(1, 0, 0, 1, 0, 0)" style="fill: rgb(32, 32, 32); white-space: pre;"/>
</svg>