<?xml version="1.0" encoding="utf-8"?>
<svg width="28px" height="24px" viewBox="0 0 28 24" version="1.1" xmlns="http://www.w3.org/2000/svg">
  <title>bmp00153</title>
  <desc>Created with Sketch.</desc>
  <g id="bmp00153" stroke="none" stroke-width="1" fill="none" fill-rule="evenodd"/>
  <path d="M 9.995 6.244 L 9.995 10.724 L 9.405 10.724 L 9.405 6.244 L 7.825 6.244 L 7.825 5.724 L 11.575 5.724 L 11.575 6.244 L 9.995 6.244 ZM 15.148 9.394 C 15.148 9.834 14.988 10.177 14.668 10.424 C 14.348 10.671 13.914 10.794 13.368 10.794 C 12.774 10.794 12.318 10.717 11.998 10.564 L 11.998 10.004 C 12.204 10.091 12.428 10.157 12.668 10.204 C 12.908 10.257 13.148 10.284 13.388 10.284 C 13.774 10.284 14.068 10.211 14.268 10.064 C 14.461 9.917 14.558 9.714 14.558 9.454 C 14.558 9.281 14.521 9.137 14.448 9.024 C 14.381 8.911 14.268 8.807 14.108 8.714 C 13.941 8.621 13.691 8.517 13.358 8.404 C 12.898 8.237 12.568 8.037 12.368 7.804 C 12.168 7.577 12.068 7.281 12.068 6.914 C 12.068 6.527 12.211 6.221 12.498 5.994 C 12.791 5.767 13.174 5.654 13.648 5.654 C 14.141 5.654 14.598 5.744 15.018 5.924 L 14.838 6.434 C 14.424 6.261 14.024 6.174 13.638 6.174 C 13.324 6.174 13.081 6.241 12.908 6.374 C 12.741 6.507 12.658 6.691 12.658 6.924 C 12.658 7.097 12.688 7.237 12.748 7.344 C 12.814 7.457 12.921 7.561 13.068 7.654 C 13.221 7.747 13.454 7.847 13.768 7.954 C 14.294 8.147 14.654 8.351 14.848 8.564 C 15.048 8.777 15.148 9.054 15.148 9.394 Z" transform="matrix(1, 0, 0, 1, 0, 0)" style="fill: rgb(32, 32, 32); white-space: pre;"/>
</svg>