<?xml version="1.0" encoding="utf-8"?>
<svg width="32" height="24" viewBox="0 0 32 24" fill="none" xmlns="http://www.w3.org/2000/svg">
  <path d="M0.559998 3.5C0.559998 1.84315 1.90314 0.5 3.56 0.5H27.56C29.2169 0.5 30.56 1.84315 30.56 3.5V8.5C30.56 10.1569 29.2169 11.5 27.56 11.5H3.56C1.90314 11.5 0.559998 10.1569 0.559998 8.5V3.5Z" fill="#E3E3E3"/>
  <path d="M3.56 1H27.56V0H3.56V1ZM30.06 3.5V8.5H31.06V3.5H30.06ZM27.56 11H3.56V12H27.56V11ZM1.06 8.5V3.5H0.0599976V8.5H1.06ZM3.56 11C2.17929 11 1.06 9.88071 1.06 8.5H0.0599976C0.0599976 10.433 1.627 12 3.56 12V11ZM30.06 8.5C30.06 9.88071 28.9407 11 27.56 11V12C29.493 12 31.06 10.433 31.06 8.5H30.06ZM27.56 1C28.9407 1 30.06 2.11929 30.06 3.5H31.06C31.06 1.567 29.493 0 27.56 0V1ZM3.56 0C1.627 0 0.0599976 1.567 0.0599976 3.5H1.06C1.06 2.11929 2.17929 1 3.56 1V0Z" fill="#979797"/>
  <path d="M0.560059 15.5C0.560059 13.8431 1.9032 12.5 3.56006 12.5H27.5601C29.2169 12.5 30.5601 13.8431 30.5601 15.5V20.5C30.5601 22.1569 29.2169 23.5 27.5601 23.5H3.56006C1.90321 23.5 0.560059 22.1569 0.560059 20.5V15.5Z" fill="#E3E3E3"/>
  <rect x="2.56006" y="14.5" width="26" height="7" rx="1" fill="#FF9300"/>
  <rect x="2.56006" y="14.5" width="26" height="7" rx="1" stroke="#FF9300"/>
  <path d="M3.56006 13H27.5601V12H3.56006V13ZM30.0601 15.5V20.5H31.0601V15.5H30.0601ZM27.5601 23H3.56006V24H27.5601V23ZM1.06006 20.5V15.5H0.0600586V20.5H1.06006ZM3.56006 23C2.17935 23 1.06006 21.8807 1.06006 20.5H0.0600586C0.0600586 22.433 1.62706 24 3.56006 24V23ZM30.0601 20.5C30.0601 21.8807 28.9408 23 27.5601 23V24C29.4931 24 31.0601 22.433 31.0601 20.5H30.0601ZM27.5601 13C28.9408 13 30.0601 14.1193 30.0601 15.5H31.0601C31.0601 13.567 29.4931 12 27.5601 12V13ZM3.56006 12C1.62706 12 0.0600586 13.567 0.0600586 15.5H1.06006C1.06006 14.1193 2.17935 13 3.56006 13V12Z" fill="#979797"/>
  <path style="fill: rgb(216, 216, 216); stroke: rgb(0, 0, 0);" d="M 7.718 6.014 C 8.963 5.937 10.199 5.775 11.448 5.711 C 14.817 5.54 18.283 5.417 21.566 6.212 C 22.725 6.492 23.917 6.256 25.082 6.441 C 25.202 6.46 26.203 6.696 26.19 6.727"/>
  <path style="fill: rgb(216, 216, 216); stroke: rgb(0, 0, 0);" d="M 6.344 5.31 C 7.039 4.711 7.457 3.877 8.067 3.203 C 8.276 2.971 8.772 2.777 9.043 2.571"/>
  <path style="fill: rgb(216, 216, 216); stroke: rgb(0, 0, 0);" d="M 6.44 5.986 C 6.704 6.235 6.906 6.551 7.155 6.817 C 7.669 7.364 8.266 7.828 8.786 8.368 C 8.871 8.456 9.541 9.379 9.652 9.268"/>
  <path style="fill: rgb(216, 216, 216); stroke: rgb(0, 0, 0);" d="M 7.659 18.03 C 8.904 17.953 10.14 17.791 11.389 17.727 C 14.758 17.556 18.224 17.433 21.507 18.228 C 22.666 18.508 23.858 18.272 25.023 18.457 C 25.143 18.476 26.144 18.712 26.131 18.743"/>
  <path style="fill: rgb(216, 216, 216); stroke: rgb(0, 0, 0);" d="M 6.285 17.326 C 6.98 16.727 7.398 15.893 8.008 15.219 C 8.217 14.987 8.713 14.793 8.984 14.587"/>
  <path style="fill: rgb(216, 216, 216); stroke: rgb(0, 0, 0);" d="M 6.381 18.002 C 6.645 18.251 6.847 18.567 7.096 18.833 C 7.61 19.38 8.207 19.844 8.727 20.384 C 8.812 20.472 9.482 21.395 9.593 21.284"/>
</svg>