<svg width="139" height="57" viewBox="0 0 139 57" fill="none" xmlns="http://www.w3.org/2000/svg">
<path fill-rule="evenodd" clip-rule="evenodd" d="M35 4L38 6L35 8V6.5H34V5.5H35V4Z" fill="black"/>
<path fill-rule="evenodd" clip-rule="evenodd" d="M58 4L61 6L58 8V6.5H57V5.5H58V4Z" fill="black"/>
<path fill-rule="evenodd" clip-rule="evenodd" d="M81 4L84 6L81 8V6.5H80V5.5H81V4Z" fill="black"/>
<path fill-rule="evenodd" clip-rule="evenodd" d="M35 49L38 51L35 53V51.5H34V50.5H35V49Z" fill="black"/>
<path fill-rule="evenodd" clip-rule="evenodd" d="M58 49L61 51L58 53V51.5H57V50.5H58V49Z" fill="black"/>
<path fill-rule="evenodd" clip-rule="evenodd" d="M81 49L84 51L81 53V51.5H80V50.5H81V49Z" fill="black"/>
<path fill-rule="evenodd" clip-rule="evenodd" d="M26.5 20L24.5 23L22.5 20H24V19H25V20H26.5Z" fill="black"/>
<path fill-rule="evenodd" clip-rule="evenodd" d="M49.5 20L47.5 23L45.5 20H47V19H48V20H49.5Z" fill="black"/>
<path fill-rule="evenodd" clip-rule="evenodd" d="M72.5 20L70.5 23L68.5 20H70V19H71V20H72.5Z" fill="black"/>
<path fill-rule="evenodd" clip-rule="evenodd" d="M95.5 20L93.5 23L91.5 20H93V19H94V20H95.5Z" fill="black"/>
<path fill-rule="evenodd" clip-rule="evenodd" d="M22.5 37L24.5 34L26.5 37H25V38H24V37H22.5Z" fill="black"/>
<path fill-rule="evenodd" clip-rule="evenodd" d="M45.5 37L47.5 34L49.5 37H48V38H47V37H45.5Z" fill="black"/>
<path fill-rule="evenodd" clip-rule="evenodd" d="M68.5 37L70.5 34L72.5 37H71V38H70V37H68.5Z" fill="black"/>
<path fill-rule="evenodd" clip-rule="evenodd" d="M91.5 37L93.5 34L95.5 37H94V38H93V37H91.5Z" fill="black"/>
<path fill-rule="evenodd" clip-rule="evenodd" d="M112.5 21.5L110.5 24.5L108.5 21.5H110V20.5H111V21.5H112.5Z" fill="black"/>
<path fill-rule="evenodd" clip-rule="evenodd" d="M108.5 35.5L110.5 32.5L112.5 35.5H111V36.5H110V35.5H108.5Z" fill="black"/>
<path fill-rule="evenodd" clip-rule="evenodd" d="M104 26.5L107 28.5L104 30.5V29H103V28H104V26.5Z" fill="black"/>
<path fill-rule="evenodd" clip-rule="evenodd" d="M117.75 3.5L120 5.5L117.75 7.5V6H117V5H117.75V3.5Z" fill="black"/>
<path fill-rule="evenodd" clip-rule="evenodd" d="M131.5 12L129.5 15L127.5 12H129V11H130V12H131.5Z" fill="black"/>
<path fill-rule="evenodd" clip-rule="evenodd" d="M131.5 27L129.5 30L127.5 27H129V26H130V27H131.5Z" fill="black"/>
<path fill-rule="evenodd" clip-rule="evenodd" d="M131.5 42L129.5 45L127.5 42H129V41H130V42H131.5Z" fill="black"/>
<rect x="34.5" y="28" width="1" height="1" fill="black"/>
<rect x="36.5" y="28" width="1" height="1" fill="black"/>
<rect x="57.5" y="28" width="1" height="1" fill="black"/>
<rect x="59.5" y="28" width="1" height="1" fill="black"/>
<rect x="80.5" y="28" width="1" height="1" fill="black"/>
<rect x="82.5" y="28" width="1" height="1" fill="black"/>
<path d="M24 16.5H24.5M24.5 16.5V19M24.5 16.5H47.5M47.5 16.5V19M47.5 16.5H70.5M70.5 16.5V19M70.5 16.5H93.5M93.5 16.5H110.5M93.5 16.5V19M103 5.5H110.5M110.5 5V20.5" stroke="black"/>
<path d="M24 39.5005H24.5M24.5 39.5005V37.0005M24.5 39.5005H47.5M47.5 39.5005V37.0005M47.5 39.5005H70.5M70.5 39.5005V37.0005M70.5 39.5005H93.5M93.5 39.5005H110.5M93.5 39.5005V37.0005M103 51H110.5V35.5" stroke="black"/>
<path d="M119 5.5H116.5V28.5H114.5" stroke="black"/>
<line x1="13" y1="6" x2="15" y2="6" stroke="black"/>
<line x1="13" y1="51" x2="15" y2="51" stroke="black"/>
<path d="M110.5 32C112.433 32 114 30.433 114 28.5C114 26.567 112.433 25 110.5 25C108.567 25 107 26.567 107 28.5C107 30.433 108.567 32 110.5 32Z" fill="#EEEEEE" stroke="black"/>
<path fill-rule="evenodd" clip-rule="evenodd" d="M110.072 26.5H110.929V28.0726L112.5 28.0714L112.5 28.9286L110.929 28.9298V30.5001H110.072V28.9304L108.501 28.9315L108.5 28.0744L110.072 28.0732V26.5Z" fill="black"/>
</svg>
