<svg width="18" height="26" viewBox="0 0 18 26" fill="none" xmlns="http://www.w3.org/2000/svg">
<path d="M1 4C1 2.34315 2.34315 1 4 1H17V12H4C2.34315 12 1 10.6569 1 9V4Z" fill="#E3E3E3"/>
<path d="M17 1H17.5V0.5H17V1ZM17 12V12.5H17.5V12H17ZM4 1.5H17V0.5H4V1.5ZM16.5 1V12H17.5V1H16.5ZM17 11.5H4V12.5H17V11.5ZM1.5 9V4H0.5V9H1.5ZM4 11.5C2.61929 11.5 1.5 10.3807 1.5 9H0.5C0.5 10.933 2.067 12.5 4 12.5V11.5ZM4 0.5C2.067 0.5 0.5 2.067 0.5 4H1.5C1.5 2.61929 2.61929 1.5 4 1.5V0.5Z" fill="#979797"/>
<path d="M9.24997 4.5C8.0229 4.5 6.93692 5.05697 6.25278 5.91454L5 4.73525V8.5H9.00025L7.63931 7.21927C8.00092 6.18702 9.03217 5.44116 10.2499 5.44116C11.7695 5.44116 13 6.60018 13 8.02948C13 6.07998 11.3212 4.5 9.24997 4.5Z" fill="black"/>
<path d="M3 17.5C3 16.3954 3.89543 15.5 5 15.5H15V23.5H5C3.89543 23.5 3 22.6046 3 21.5V17.5Z" fill="#F1BB72"/>
<path d="M9.24997 17.5C8.0229 17.5 6.93692 18.057 6.25278 18.9145L5 17.7353V21.5H9.00025L7.63931 20.2193C8.00092 19.187 9.03217 18.4412 10.2499 18.4412C11.7695 18.4412 13 19.6002 13 21.0295C13 19.08 11.3212 17.5 9.24997 17.5Z" fill="black"/>
</svg>
