<svg width="18" height="22" viewBox="0 0 18 22" fill="none" xmlns="http://www.w3.org/2000/svg">
<path d="M1.5 14.5C1.5 13.3954 2.39543 12.5 3.5 12.5H14.5C15.6046 12.5 16.5 13.3954 16.5 14.5V18.5C16.5 19.6046 15.6046 20.5 14.5 20.5H3.5C2.39543 20.5 1.5 19.6046 1.5 18.5V14.5Z" fill="#FF9300"/>
<path d="M10.373 15.4365C10.338 15.4925 10.3007 15.5345 10.261 15.5625C10.2237 15.5905 10.1747 15.6045 10.114 15.6045C10.0603 15.6045 10.002 15.5882 9.93901 15.5555C9.87835 15.5205 9.80835 15.482 9.72901 15.44C9.65201 15.398 9.56335 15.3607 9.46301 15.328C9.36268 15.293 9.24835 15.2755 9.12001 15.2755C8.89835 15.2755 8.73268 15.3233 8.62301 15.419C8.51568 15.5123 8.46201 15.6395 8.46201 15.8005C8.46201 15.9032 8.49468 15.9883 8.56001 16.056C8.62535 16.1237 8.71051 16.182 8.81551 16.231C8.92285 16.28 9.04418 16.3255 9.17951 16.3675C9.31718 16.4072 9.45718 16.4527 9.59951 16.504C9.74185 16.553 9.88068 16.6113 10.016 16.679C10.1537 16.7467 10.275 16.833 10.38 16.938C10.4873 17.043 10.5737 17.1713 10.639 17.323C10.7043 17.4723 10.737 17.6532 10.737 17.8655C10.737 18.1012 10.6962 18.3217 10.6145 18.527C10.5328 18.7323 10.4138 18.912 10.2575 19.066C10.1035 19.2177 9.91218 19.3378 9.68351 19.4265C9.45718 19.5128 9.19935 19.556 8.91001 19.556C8.75135 19.556 8.58918 19.5397 8.42351 19.507C8.26018 19.4743 8.10151 19.4288 7.94751 19.3705C7.79351 19.3098 7.64885 19.2387 7.51351 19.157C7.37818 19.0753 7.26035 18.9843 7.16001 18.884L7.51001 18.331C7.53801 18.2913 7.57418 18.2587 7.61851 18.233C7.66518 18.205 7.71535 18.191 7.76901 18.191C7.83901 18.191 7.90901 18.2132 7.97901 18.2575C8.05135 18.3018 8.13185 18.3508 8.22051 18.4045C8.31151 18.4582 8.41535 18.5072 8.53201 18.5515C8.64868 18.5958 8.78635 18.618 8.94501 18.618C9.15968 18.618 9.32651 18.5713 9.44551 18.478C9.56451 18.3823 9.62401 18.2318 9.62401 18.0265C9.62401 17.9075 9.59135 17.8107 9.52601 17.736C9.46068 17.6613 9.37435 17.5995 9.26701 17.5505C9.16201 17.5015 9.04185 17.4583 8.90651 17.421C8.77118 17.3837 8.63235 17.3428 8.49001 17.2985C8.34768 17.2518 8.20885 17.1958 8.07351 17.1305C7.93818 17.0628 7.81685 16.9753 7.70951 16.868C7.60451 16.7583 7.51935 16.623 7.45401 16.462C7.38868 16.2987 7.35601 16.098 7.35601 15.86C7.35601 15.6687 7.39451 15.482 7.47151 15.3C7.54851 15.118 7.66168 14.9558 7.81101 14.8135C7.96035 14.6712 8.14351 14.558 8.36051 14.474C8.57751 14.3877 8.82601 14.3445 9.10601 14.3445C9.26235 14.3445 9.41401 14.3573 9.56101 14.383C9.71035 14.4063 9.85151 14.4425 9.98451 14.4915C10.1175 14.5382 10.2412 14.5953 10.3555 14.663C10.4722 14.7283 10.576 14.803 10.667 14.887L10.373 15.4365Z" fill="#EEEEEE"/>
<path d="M1.5 3.5C1.5 2.39543 2.39543 1.5 3.5 1.5H14.5C15.6046 1.5 16.5 2.39543 16.5 3.5V7.5C16.5 8.60457 15.6046 9.5 14.5 9.5H3.5C2.39543 9.5 1.5 8.60457 1.5 7.5V3.5Z" fill="#E3E3E3"/>
<path d="M10.373 4.4365C10.338 4.4925 10.3007 4.5345 10.261 4.5625C10.2237 4.5905 10.1747 4.6045 10.114 4.6045C10.0603 4.6045 10.002 4.58817 9.93901 4.5555C9.87835 4.5205 9.80835 4.482 9.72901 4.44C9.65201 4.398 9.56335 4.36067 9.46301 4.328C9.36268 4.293 9.24835 4.2755 9.12001 4.2755C8.89835 4.2755 8.73268 4.32333 8.62301 4.419C8.51568 4.51233 8.46201 4.6395 8.46201 4.8005C8.46201 4.90317 8.49468 4.98833 8.56001 5.056C8.62535 5.12367 8.71051 5.182 8.81551 5.231C8.92285 5.28 9.04418 5.3255 9.17951 5.3675C9.31718 5.40717 9.45718 5.45267 9.59951 5.504C9.74185 5.553 9.88068 5.61133 10.016 5.679C10.1537 5.74667 10.275 5.833 10.38 5.938C10.4873 6.043 10.5737 6.17133 10.639 6.323C10.7043 6.47233 10.737 6.65317 10.737 6.8655C10.737 7.10117 10.6962 7.32167 10.6145 7.527C10.5328 7.73233 10.4138 7.912 10.2575 8.066C10.1035 8.21767 9.91218 8.33783 9.68351 8.4265C9.45718 8.51283 9.19935 8.556 8.91001 8.556C8.75135 8.556 8.58918 8.53967 8.42351 8.507C8.26018 8.47433 8.10151 8.42883 7.94751 8.3705C7.79351 8.30983 7.64885 8.23867 7.51351 8.157C7.37818 8.07533 7.26035 7.98433 7.16001 7.884L7.51001 7.331C7.53801 7.29133 7.57418 7.25867 7.61851 7.233C7.66518 7.205 7.71535 7.191 7.76901 7.191C7.83901 7.191 7.90901 7.21317 7.97901 7.2575C8.05135 7.30183 8.13185 7.35083 8.22051 7.4045C8.31151 7.45817 8.41535 7.50717 8.53201 7.5515C8.64868 7.59583 8.78635 7.618 8.94501 7.618C9.15968 7.618 9.32651 7.57133 9.44551 7.478C9.56451 7.38233 9.62401 7.23183 9.62401 7.0265C9.62401 6.9075 9.59135 6.81067 9.52601 6.736C9.46068 6.66133 9.37435 6.5995 9.26701 6.5505C9.16201 6.5015 9.04185 6.45833 8.90651 6.421C8.77118 6.38367 8.63235 6.34283 8.49001 6.2985C8.34768 6.25183 8.20885 6.19583 8.07351 6.1305C7.93818 6.06283 7.81685 5.97533 7.70951 5.868C7.60451 5.75833 7.51935 5.623 7.45401 5.462C7.38868 5.29867 7.35601 5.098 7.35601 4.86C7.35601 4.66867 7.39451 4.482 7.47151 4.3C7.54851 4.118 7.66168 3.95583 7.81101 3.8135C7.96035 3.67117 8.14351 3.558 8.36051 3.474C8.57751 3.38767 8.82601 3.3445 9.10601 3.3445C9.26235 3.3445 9.41401 3.35733 9.56101 3.383C9.71035 3.40633 9.85151 3.4425 9.98451 3.4915C10.1175 3.53817 10.2412 3.59533 10.3555 3.663C10.4722 3.72833 10.576 3.803 10.667 3.887L10.373 4.4365Z" fill="#393B45"/>
</svg>
