<?xml version="1.0" encoding="utf-8"?>
<svg width="11px" height="22px" viewBox="0 0 11 22" version="1.1" xmlns:xlink="http://www.w3.org/1999/xlink" xmlns="http://www.w3.org/2000/svg">
  <defs>
    <rect width="11" height="22" id="artboard_1" />
    <clipPath id="clip_1">
      <use xlink:href="#artboard_1" clip-rule="evenodd" />
    </clipPath>
  </defs>
  <g id="bmp00191" clip-path="url(#clip_1)">
    <path d="M0.5 3.5C0.5 1.84315 1.84315 0.5 3.5 0.5L7.5 0.5C9.15685 0.5 10.5 1.84315 10.5 3.5L10.5 7.5C10.5 9.15685 9.15685 10.5 7.5 10.5L3.5 10.5C1.84315 10.5 0.5 9.15685 0.5 7.5L0.5 3.5L0.5 3.5Z" id="Shape" fill="#E3E3E3" fill-rule="evenodd" stroke="#979797" stroke-width="1" />
    <path d="M0.5 14.5C0.5 12.8431 1.84315 11.5 3.5 11.5L7.5 11.5C9.15685 11.5 10.5 12.8431 10.5 14.5L10.5 18.5C10.5 20.1569 9.15685 21.5 7.5 21.5L3.5 21.5C1.84315 21.5 0.5 20.1569 0.5 18.5L0.5 14.5L0.5 14.5Z" id="Shape" fill="#E3E3E3" fill-rule="evenodd" stroke="#979797" stroke-width="1" />
    <path d="M2 15C2 13.8954 2.89543 13 4 13L7 13C8.10457 13 9 13.8954 9 15L9 18C9 19.1046 8.10457 20 7 20L4 20C2.89543 20 2 19.1046 2 18L2 15L2 15Z" id="Shape" fill="#FF9000" fill-rule="evenodd" stroke="none" />
    <path d="M2 14.9808L5 14.9808C5 14.9808 5.32544 13.6313 6 13.5C6.67456 13.3687 7.06819 14.4939 7.06819 14.4939L8 19.5" id="Shape" fill="none" stroke="#000000" stroke-width="1" />
    <path d="M2 3.98151L5 3.98151C5 3.98151 5.32544 2.63196 6 2.50066C6.67456 2.36936 7.06819 3.49455 7.06819 3.49455L8 8.50066" id="Shape" fill="none" fill-rule="evenodd" stroke="#000000" stroke-width="1" />
  </g>
</svg>