<svg width="96" height="126" viewBox="0 0 96 126" fill="none" xmlns="http://www.w3.org/2000/svg">
<rect x="4.5" y="2" width="11" height="11" fill="#FF9A10"/>
<rect x="4.5" y="2" width="11" height="11" stroke="#FF9A10"/>
<path d="M6.7035 7.672H8.7755V8.496H6.7035V7.672ZM9.54388 6.328C9.58388 6.05067 9.66121 5.808 9.77588 5.6C9.89054 5.38933 10.0332 5.21467 10.2039 5.076C10.3772 4.93467 10.5745 4.82933 10.7959 4.76C11.0199 4.688 11.2599 4.652 11.5159 4.652C11.7825 4.652 12.0225 4.69067 12.2359 4.768C12.4519 4.84267 12.6359 4.948 12.7879 5.084C12.9399 5.21733 13.0559 5.37467 13.1359 5.556C13.2185 5.73733 13.2599 5.93333 13.2599 6.144C13.2599 6.328 13.2385 6.49067 13.1959 6.632C13.1559 6.77067 13.0972 6.892 13.0199 6.996C12.9425 7.1 12.8465 7.188 12.7319 7.26C12.6172 7.332 12.4879 7.392 12.3439 7.44C12.6905 7.54933 12.9492 7.716 13.1199 7.94C13.2905 8.164 13.3759 8.44533 13.3759 8.784C13.3759 9.072 13.3225 9.32667 13.2159 9.548C13.1092 9.76933 12.9652 9.956 12.7839 10.108C12.6025 10.2573 12.3919 10.3707 12.1519 10.448C11.9145 10.5253 11.6625 10.564 11.3959 10.564C11.1052 10.564 10.8519 10.5307 10.6359 10.464C10.4199 10.3973 10.2319 10.2987 10.0719 10.168C9.91188 10.0373 9.77588 9.87733 9.66388 9.688C9.55188 9.49867 9.45588 9.28 9.37588 9.032L9.81188 8.852C9.92654 8.804 10.0332 8.792 10.1319 8.816C10.2332 8.83733 10.3065 8.89067 10.3519 8.976C10.3999 9.06933 10.4519 9.16133 10.5079 9.252C10.5665 9.34267 10.6359 9.424 10.7159 9.496C10.7959 9.56533 10.8892 9.62267 10.9959 9.668C11.1052 9.71067 11.2345 9.732 11.3839 9.732C11.5519 9.732 11.6985 9.70533 11.8239 9.652C11.9492 9.596 12.0532 9.524 12.1359 9.436C12.2212 9.348 12.2839 9.25067 12.3239 9.144C12.3665 9.03467 12.3879 8.92533 12.3879 8.816C12.3879 8.67733 12.3732 8.552 12.3439 8.44C12.3145 8.32533 12.2532 8.228 12.1599 8.148C12.0665 8.068 11.9319 8.00533 11.7559 7.96C11.5825 7.91467 11.3492 7.892 11.0559 7.892V7.188C11.2985 7.18533 11.4999 7.16267 11.6599 7.12C11.8199 7.07733 11.9465 7.01867 12.0399 6.944C12.1359 6.86667 12.2025 6.77467 12.2399 6.668C12.2772 6.56133 12.2959 6.444 12.2959 6.316C12.2959 6.044 12.2199 5.83733 12.0679 5.696C11.9159 5.55467 11.7132 5.484 11.4599 5.484C11.3425 5.484 11.2345 5.50133 11.1359 5.536C11.0372 5.568 10.9479 5.61467 10.8679 5.676C10.7905 5.73467 10.7252 5.804 10.6719 5.884C10.6185 5.964 10.5785 6.052 10.5519 6.148C10.5065 6.27067 10.4465 6.352 10.3719 6.392C10.2999 6.432 10.1972 6.44133 10.0639 6.42L9.54388 6.328Z" fill="#1D1D1D"/>
<rect x="17.5" y="2" width="11" height="11" fill="#2F1C04"/>
<rect x="17.5" y="2" width="11" height="11" stroke="#2F1C04"/>
<path d="M19.7035 7.672H21.7755V8.496H19.7035V7.672ZM26.0359 9.58C26.1425 9.58 26.2265 9.61067 26.2879 9.672C26.3519 9.73067 26.3839 9.80933 26.3839 9.908V10.5H22.4159V10.172C22.4159 10.1053 22.4292 10.036 22.4559 9.964C22.4852 9.88933 22.5305 9.82267 22.5919 9.764L24.3479 8.004C24.4945 7.85467 24.6252 7.712 24.7399 7.576C24.8572 7.44 24.9545 7.30533 25.0319 7.172C25.1092 7.03867 25.1679 6.904 25.2079 6.768C25.2505 6.62933 25.2719 6.484 25.2719 6.332C25.2719 6.19333 25.2519 6.072 25.2119 5.968C25.1719 5.86133 25.1145 5.772 25.0399 5.7C24.9679 5.628 24.8799 5.57467 24.7759 5.54C24.6745 5.50267 24.5599 5.484 24.4319 5.484C24.3145 5.484 24.2052 5.50133 24.1039 5.536C24.0052 5.568 23.9172 5.61467 23.8399 5.676C23.7625 5.73467 23.6972 5.804 23.6439 5.884C23.5905 5.964 23.5505 6.052 23.5239 6.148C23.4785 6.27067 23.4199 6.352 23.3479 6.392C23.2759 6.432 23.1719 6.44133 23.0359 6.42L22.5159 6.328C22.5559 6.05067 22.6332 5.808 22.7479 5.6C22.8625 5.38933 23.0052 5.21467 23.1759 5.076C23.3492 4.93467 23.5465 4.82933 23.7679 4.76C23.9919 4.688 24.2319 4.652 24.4879 4.652C24.7545 4.652 24.9985 4.692 25.2199 4.772C25.4412 4.84933 25.6305 4.96 25.7879 5.104C25.9452 5.248 26.0679 5.42133 26.1559 5.624C26.2439 5.82667 26.2879 6.052 26.2879 6.3C26.2879 6.51333 26.2559 6.71067 26.1919 6.892C26.1305 7.07333 26.0465 7.24667 25.9399 7.412C25.8359 7.57733 25.7132 7.73733 25.5719 7.892C25.4305 8.04667 25.2825 8.204 25.1279 8.364L23.8239 9.696C23.9492 9.65867 24.0732 9.63067 24.1959 9.612C24.3212 9.59067 24.4399 9.58 24.5519 9.58H26.0359Z" fill="#FF9000"/>
<rect x="30.5" y="2" width="11" height="11" fill="#2F1C04"/>
<rect x="30.5" y="2" width="11" height="11" stroke="#2F1C04"/>
<path d="M32.7035 7.672H34.7755V8.496H32.7035V7.672ZM39.2519 9.76V10.5H36.0519V9.76H37.2239V6.388C37.2239 6.25467 37.2279 6.11733 37.2359 5.976L36.4039 6.672C36.3559 6.70933 36.3079 6.73333 36.2599 6.744C36.2145 6.752 36.1705 6.752 36.1279 6.744C36.0879 6.736 36.0519 6.72267 36.0199 6.704C35.9879 6.68267 35.9639 6.66 35.9479 6.636L35.6359 6.208L37.3999 4.708H38.2119V9.76H39.2519Z" fill="#FF9000"/>
<rect x="43.5" y="2" width="11" height="11" fill="#2F1C04"/>
<rect x="43.5" y="2" width="11" height="11" stroke="#2F1C04"/>
<path d="M51.1197 7.608C51.1197 8.112 51.065 8.55067 50.9557 8.924C50.849 9.29467 50.6997 9.60133 50.5077 9.844C50.3184 10.0867 50.093 10.268 49.8317 10.388C49.573 10.5053 49.293 10.564 48.9917 10.564C48.6904 10.564 48.4104 10.5053 48.1517 10.388C47.8957 10.268 47.673 10.0867 47.4837 9.844C47.2944 9.60133 47.1464 9.29467 47.0397 8.924C46.933 8.55067 46.8797 8.112 46.8797 7.608C46.8797 7.10133 46.933 6.66267 47.0397 6.292C47.1464 5.92133 47.2944 5.61467 47.4837 5.372C47.673 5.12933 47.8957 4.94933 48.1517 4.832C48.4104 4.712 48.6904 4.652 48.9917 4.652C49.293 4.652 49.573 4.712 49.8317 4.832C50.093 4.94933 50.3184 5.12933 50.5077 5.372C50.6997 5.61467 50.849 5.92133 50.9557 6.292C51.065 6.66267 51.1197 7.10133 51.1197 7.608ZM50.0997 7.608C50.0997 7.18933 50.069 6.84267 50.0077 6.568C49.9464 6.29333 49.8637 6.07467 49.7597 5.912C49.6584 5.74933 49.541 5.636 49.4077 5.572C49.2744 5.50533 49.1357 5.472 48.9917 5.472C48.8504 5.472 48.713 5.50533 48.5797 5.572C48.449 5.636 48.333 5.74933 48.2317 5.912C48.1304 6.07467 48.049 6.29333 47.9877 6.568C47.929 6.84267 47.8997 7.18933 47.8997 7.608C47.8997 8.02667 47.929 8.37333 47.9877 8.648C48.049 8.92267 48.1304 9.14133 48.2317 9.304C48.333 9.46667 48.449 9.58133 48.5797 9.648C48.713 9.712 48.8504 9.744 48.9917 9.744C49.1357 9.744 49.2744 9.712 49.4077 9.648C49.541 9.58133 49.6584 9.46667 49.7597 9.304C49.8637 9.14133 49.9464 8.92267 50.0077 8.648C50.069 8.37333 50.0997 8.02667 50.0997 7.608Z" fill="#FF9000"/>
<rect x="56.5" y="2" width="11" height="11" fill="#2F1C04"/>
<rect x="56.5" y="2" width="11" height="11" stroke="#2F1C04"/>
<path d="M61.6914 8.18H60.1394V9.828H59.3354V8.18H57.7914V7.448H59.3354V5.808H60.1394V7.448H61.6914V8.18ZM66.08 9.76V10.5H62.88V9.76H64.052V6.388C64.052 6.25467 64.056 6.11733 64.064 5.976L63.232 6.672C63.184 6.70933 63.136 6.73333 63.088 6.744C63.0427 6.752 62.9987 6.752 62.956 6.744C62.916 6.736 62.88 6.72267 62.848 6.704C62.816 6.68267 62.792 6.66 62.776 6.636L62.464 6.208L64.228 4.708H65.04V9.76H66.08Z" fill="#FF9000"/>
<rect x="69.5" y="2" width="11" height="11" fill="#2F1C04"/>
<rect x="69.5" y="2" width="11" height="11" stroke="#2F1C04"/>
<path d="M74.6914 8.18H73.1394V9.828H72.3354V8.18H70.7914V7.448H72.3354V5.808H73.1394V7.448H74.6914V8.18ZM78.864 9.58C78.9707 9.58 79.0547 9.61067 79.116 9.672C79.18 9.73067 79.212 9.80933 79.212 9.908V10.5H75.244V10.172C75.244 10.1053 75.2573 10.036 75.284 9.964C75.3133 9.88933 75.3587 9.82267 75.42 9.764L77.176 8.004C77.3227 7.85467 77.4533 7.712 77.568 7.576C77.6853 7.44 77.7827 7.30533 77.86 7.172C77.9373 7.03867 77.996 6.904 78.036 6.768C78.0787 6.62933 78.1 6.484 78.1 6.332C78.1 6.19333 78.08 6.072 78.04 5.968C78 5.86133 77.9427 5.772 77.868 5.7C77.796 5.628 77.708 5.57467 77.604 5.54C77.5027 5.50267 77.388 5.484 77.26 5.484C77.1427 5.484 77.0333 5.50133 76.932 5.536C76.8333 5.568 76.7453 5.61467 76.668 5.676C76.5907 5.73467 76.5253 5.804 76.472 5.884C76.4187 5.964 76.3787 6.052 76.352 6.148C76.3067 6.27067 76.248 6.352 76.176 6.392C76.104 6.432 76 6.44133 75.864 6.42L75.344 6.328C75.384 6.05067 75.4613 5.808 75.576 5.6C75.6907 5.38933 75.8333 5.21467 76.004 5.076C76.1773 4.93467 76.3747 4.82933 76.596 4.76C76.82 4.688 77.06 4.652 77.316 4.652C77.5827 4.652 77.8267 4.692 78.048 4.772C78.2693 4.84933 78.4587 4.96 78.616 5.104C78.7733 5.248 78.896 5.42133 78.984 5.624C79.072 5.82667 79.116 6.052 79.116 6.3C79.116 6.51333 79.084 6.71067 79.02 6.892C78.9587 7.07333 78.8747 7.24667 78.768 7.412C78.664 7.57733 78.5413 7.73733 78.4 7.892C78.2587 8.04667 78.1107 8.204 77.956 8.364L76.652 9.696C76.7773 9.65867 76.9013 9.63067 77.024 9.612C77.1493 9.59067 77.268 9.58 77.38 9.58H78.864Z" fill="#FF9000"/>
<rect x="82.5" y="2" width="11" height="11" fill="#2F1C04"/>
<rect x="82.5" y="2" width="11" height="11" stroke="#2F1C04"/>
<path d="M87.6914 8.18H86.1394V9.828H85.3354V8.18H83.7914V7.448H85.3354V5.808H86.1394V7.448H87.6914V8.18ZM88.372 6.328C88.412 6.05067 88.4893 5.808 88.604 5.6C88.7187 5.38933 88.8613 5.21467 89.032 5.076C89.2053 4.93467 89.4027 4.82933 89.624 4.76C89.848 4.688 90.088 4.652 90.344 4.652C90.6107 4.652 90.8507 4.69067 91.064 4.768C91.28 4.84267 91.464 4.948 91.616 5.084C91.768 5.21733 91.884 5.37467 91.964 5.556C92.0467 5.73733 92.088 5.93333 92.088 6.144C92.088 6.328 92.0667 6.49067 92.024 6.632C91.984 6.77067 91.9253 6.892 91.848 6.996C91.7707 7.1 91.6747 7.188 91.56 7.26C91.4453 7.332 91.316 7.392 91.172 7.44C91.5187 7.54933 91.7773 7.716 91.948 7.94C92.1187 8.164 92.204 8.44533 92.204 8.784C92.204 9.072 92.1507 9.32667 92.044 9.548C91.9373 9.76933 91.7933 9.956 91.612 10.108C91.4307 10.2573 91.22 10.3707 90.98 10.448C90.7427 10.5253 90.4907 10.564 90.224 10.564C89.9333 10.564 89.68 10.5307 89.464 10.464C89.248 10.3973 89.06 10.2987 88.9 10.168C88.74 10.0373 88.604 9.87733 88.492 9.688C88.38 9.49867 88.284 9.28 88.204 9.032L88.64 8.852C88.7547 8.804 88.8613 8.792 88.96 8.816C89.0613 8.83733 89.1347 8.89067 89.18 8.976C89.228 9.06933 89.28 9.16133 89.336 9.252C89.3947 9.34267 89.464 9.424 89.544 9.496C89.624 9.56533 89.7173 9.62267 89.824 9.668C89.9333 9.71067 90.0627 9.732 90.212 9.732C90.38 9.732 90.5267 9.70533 90.652 9.652C90.7773 9.596 90.8813 9.524 90.964 9.436C91.0493 9.348 91.112 9.25067 91.152 9.144C91.1947 9.03467 91.216 8.92533 91.216 8.816C91.216 8.67733 91.2013 8.552 91.172 8.44C91.1427 8.32533 91.0813 8.228 90.988 8.148C90.8947 8.068 90.76 8.00533 90.584 7.96C90.4107 7.91467 90.1773 7.892 89.884 7.892V7.188C90.1267 7.18533 90.328 7.16267 90.488 7.12C90.648 7.07733 90.7747 7.01867 90.868 6.944C90.964 6.86667 91.0307 6.77467 91.068 6.668C91.1053 6.56133 91.124 6.444 91.124 6.316C91.124 6.044 91.048 5.83733 90.896 5.696C90.744 5.55467 90.5413 5.484 90.288 5.484C90.1707 5.484 90.0627 5.50133 89.964 5.536C89.8653 5.568 89.776 5.61467 89.696 5.676C89.6187 5.73467 89.5533 5.804 89.5 5.884C89.4467 5.964 89.4067 6.052 89.38 6.148C89.3347 6.27067 89.2747 6.352 89.2 6.392C89.128 6.432 89.0253 6.44133 88.892 6.42L88.372 6.328Z" fill="#FF9000"/>
<rect x="4.5" y="20" width="11" height="11" fill="#2F1C04"/>
<rect x="4.5" y="20" width="11" height="11" stroke="#2F1C04"/>
<path d="M6.7035 25.672H8.7755V26.496H6.7035V25.672ZM9.54388 24.328C9.58388 24.0507 9.66121 23.808 9.77588 23.6C9.89054 23.3893 10.0332 23.2147 10.2039 23.076C10.3772 22.9347 10.5745 22.8293 10.7959 22.76C11.0199 22.688 11.2599 22.652 11.5159 22.652C11.7825 22.652 12.0225 22.6907 12.2359 22.768C12.4519 22.8427 12.6359 22.948 12.7879 23.084C12.9399 23.2173 13.0559 23.3747 13.1359 23.556C13.2185 23.7373 13.2599 23.9333 13.2599 24.144C13.2599 24.328 13.2385 24.4907 13.1959 24.632C13.1559 24.7707 13.0972 24.892 13.0199 24.996C12.9425 25.1 12.8465 25.188 12.7319 25.26C12.6172 25.332 12.4879 25.392 12.3439 25.44C12.6905 25.5493 12.9492 25.716 13.1199 25.94C13.2905 26.164 13.3759 26.4453 13.3759 26.784C13.3759 27.072 13.3225 27.3267 13.2159 27.548C13.1092 27.7693 12.9652 27.956 12.7839 28.108C12.6025 28.2573 12.3919 28.3707 12.1519 28.448C11.9145 28.5253 11.6625 28.564 11.3959 28.564C11.1052 28.564 10.8519 28.5307 10.6359 28.464C10.4199 28.3973 10.2319 28.2987 10.0719 28.168C9.91188 28.0373 9.77588 27.8773 9.66388 27.688C9.55188 27.4987 9.45588 27.28 9.37588 27.032L9.81188 26.852C9.92654 26.804 10.0332 26.792 10.1319 26.816C10.2332 26.8373 10.3065 26.8907 10.3519 26.976C10.3999 27.0693 10.4519 27.1613 10.5079 27.252C10.5665 27.3427 10.6359 27.424 10.7159 27.496C10.7959 27.5653 10.8892 27.6227 10.9959 27.668C11.1052 27.7107 11.2345 27.732 11.3839 27.732C11.5519 27.732 11.6985 27.7053 11.8239 27.652C11.9492 27.596 12.0532 27.524 12.1359 27.436C12.2212 27.348 12.2839 27.2507 12.3239 27.144C12.3665 27.0347 12.3879 26.9253 12.3879 26.816C12.3879 26.6773 12.3732 26.552 12.3439 26.44C12.3145 26.3253 12.2532 26.228 12.1599 26.148C12.0665 26.068 11.9319 26.0053 11.7559 25.96C11.5825 25.9147 11.3492 25.892 11.0559 25.892V25.188C11.2985 25.1853 11.4999 25.1627 11.6599 25.12C11.8199 25.0773 11.9465 25.0187 12.0399 24.944C12.1359 24.8667 12.2025 24.7747 12.2399 24.668C12.2772 24.5613 12.2959 24.444 12.2959 24.316C12.2959 24.044 12.2199 23.8373 12.0679 23.696C11.9159 23.5547 11.7132 23.484 11.4599 23.484C11.3425 23.484 11.2345 23.5013 11.1359 23.536C11.0372 23.568 10.9479 23.6147 10.8679 23.676C10.7905 23.7347 10.7252 23.804 10.6719 23.884C10.6185 23.964 10.5785 24.052 10.5519 24.148C10.5065 24.2707 10.4465 24.352 10.3719 24.392C10.2999 24.432 10.1972 24.4413 10.0639 24.42L9.54388 24.328Z" fill="#FF9000"/>
<rect x="17.5" y="20" width="11" height="11" fill="#FF9A10"/>
<rect x="17.5" y="20" width="11" height="11" stroke="#FF9A10"/>
<path d="M19.7035 25.672H21.7755V26.496H19.7035V25.672ZM26.0359 27.58C26.1425 27.58 26.2265 27.6107 26.2879 27.672C26.3519 27.7307 26.3839 27.8093 26.3839 27.908V28.5H22.4159V28.172C22.4159 28.1053 22.4292 28.036 22.4559 27.964C22.4852 27.8893 22.5305 27.8227 22.5919 27.764L24.3479 26.004C24.4945 25.8547 24.6252 25.712 24.7399 25.576C24.8572 25.44 24.9545 25.3053 25.0319 25.172C25.1092 25.0387 25.1679 24.904 25.2079 24.768C25.2505 24.6293 25.2719 24.484 25.2719 24.332C25.2719 24.1933 25.2519 24.072 25.2119 23.968C25.1719 23.8613 25.1145 23.772 25.0399 23.7C24.9679 23.628 24.8799 23.5747 24.7759 23.54C24.6745 23.5027 24.5599 23.484 24.4319 23.484C24.3145 23.484 24.2052 23.5013 24.1039 23.536C24.0052 23.568 23.9172 23.6147 23.8399 23.676C23.7625 23.7347 23.6972 23.804 23.6439 23.884C23.5905 23.964 23.5505 24.052 23.5239 24.148C23.4785 24.2707 23.4199 24.352 23.3479 24.392C23.2759 24.432 23.1719 24.4413 23.0359 24.42L22.5159 24.328C22.5559 24.0507 22.6332 23.808 22.7479 23.6C22.8625 23.3893 23.0052 23.2147 23.1759 23.076C23.3492 22.9347 23.5465 22.8293 23.7679 22.76C23.9919 22.688 24.2319 22.652 24.4879 22.652C24.7545 22.652 24.9985 22.692 25.2199 22.772C25.4412 22.8493 25.6305 22.96 25.7879 23.104C25.9452 23.248 26.0679 23.4213 26.1559 23.624C26.2439 23.8267 26.2879 24.052 26.2879 24.3C26.2879 24.5133 26.2559 24.7107 26.1919 24.892C26.1305 25.0733 26.0465 25.2467 25.9399 25.412C25.8359 25.5773 25.7132 25.7373 25.5719 25.892C25.4305 26.0467 25.2825 26.204 25.1279 26.364L23.8239 27.696C23.9492 27.6587 24.0732 27.6307 24.1959 27.612C24.3212 27.5907 24.4399 27.58 24.5519 27.58H26.0359Z" fill="#1D1D1D"/>
<rect x="30.5" y="20" width="11" height="11" fill="#2F1C04"/>
<rect x="30.5" y="20" width="11" height="11" stroke="#2F1C04"/>
<path d="M32.7035 25.672H34.7755V26.496H32.7035V25.672ZM39.2519 27.76V28.5H36.0519V27.76H37.2239V24.388C37.2239 24.2547 37.2279 24.1173 37.2359 23.976L36.4039 24.672C36.3559 24.7093 36.3079 24.7333 36.2599 24.744C36.2145 24.752 36.1705 24.752 36.1279 24.744C36.0879 24.736 36.0519 24.7227 36.0199 24.704C35.9879 24.6827 35.9639 24.66 35.9479 24.636L35.6359 24.208L37.3999 22.708H38.2119V27.76H39.2519Z" fill="#FF9000"/>
<rect x="43.5" y="20" width="11" height="11" fill="#2F1C04"/>
<rect x="43.5" y="20" width="11" height="11" stroke="#2F1C04"/>
<path d="M51.1197 25.608C51.1197 26.112 51.065 26.5507 50.9557 26.924C50.849 27.2947 50.6997 27.6013 50.5077 27.844C50.3184 28.0867 50.093 28.268 49.8317 28.388C49.573 28.5053 49.293 28.564 48.9917 28.564C48.6904 28.564 48.4104 28.5053 48.1517 28.388C47.8957 28.268 47.673 28.0867 47.4837 27.844C47.2944 27.6013 47.1464 27.2947 47.0397 26.924C46.933 26.5507 46.8797 26.112 46.8797 25.608C46.8797 25.1013 46.933 24.6627 47.0397 24.292C47.1464 23.9213 47.2944 23.6147 47.4837 23.372C47.673 23.1293 47.8957 22.9493 48.1517 22.832C48.4104 22.712 48.6904 22.652 48.9917 22.652C49.293 22.652 49.573 22.712 49.8317 22.832C50.093 22.9493 50.3184 23.1293 50.5077 23.372C50.6997 23.6147 50.849 23.9213 50.9557 24.292C51.065 24.6627 51.1197 25.1013 51.1197 25.608ZM50.0997 25.608C50.0997 25.1893 50.069 24.8427 50.0077 24.568C49.9464 24.2933 49.8637 24.0747 49.7597 23.912C49.6584 23.7493 49.541 23.636 49.4077 23.572C49.2744 23.5053 49.1357 23.472 48.9917 23.472C48.8504 23.472 48.713 23.5053 48.5797 23.572C48.449 23.636 48.333 23.7493 48.2317 23.912C48.1304 24.0747 48.049 24.2933 47.9877 24.568C47.929 24.8427 47.8997 25.1893 47.8997 25.608C47.8997 26.0267 47.929 26.3733 47.9877 26.648C48.049 26.9227 48.1304 27.1413 48.2317 27.304C48.333 27.4667 48.449 27.5813 48.5797 27.648C48.713 27.712 48.8504 27.744 48.9917 27.744C49.1357 27.744 49.2744 27.712 49.4077 27.648C49.541 27.5813 49.6584 27.4667 49.7597 27.304C49.8637 27.1413 49.9464 26.9227 50.0077 26.648C50.069 26.3733 50.0997 26.0267 50.0997 25.608Z" fill="#FF9000"/>
<rect x="56.5" y="20" width="11" height="11" fill="#2F1C04"/>
<rect x="56.5" y="20" width="11" height="11" stroke="#2F1C04"/>
<path d="M61.6914 26.18H60.1394V27.828H59.3354V26.18H57.7914V25.448H59.3354V23.808H60.1394V25.448H61.6914V26.18ZM66.08 27.76V28.5H62.88V27.76H64.052V24.388C64.052 24.2547 64.056 24.1173 64.064 23.976L63.232 24.672C63.184 24.7093 63.136 24.7333 63.088 24.744C63.0427 24.752 62.9987 24.752 62.956 24.744C62.916 24.736 62.88 24.7227 62.848 24.704C62.816 24.6827 62.792 24.66 62.776 24.636L62.464 24.208L64.228 22.708H65.04V27.76H66.08Z" fill="#FF9000"/>
<rect x="69.5" y="20" width="11" height="11" fill="#2F1C04"/>
<rect x="69.5" y="20" width="11" height="11" stroke="#2F1C04"/>
<path d="M74.6914 26.18H73.1394V27.828H72.3354V26.18H70.7914V25.448H72.3354V23.808H73.1394V25.448H74.6914V26.18ZM78.864 27.58C78.9707 27.58 79.0547 27.6107 79.116 27.672C79.18 27.7307 79.212 27.8093 79.212 27.908V28.5H75.244V28.172C75.244 28.1053 75.2573 28.036 75.284 27.964C75.3133 27.8893 75.3587 27.8227 75.42 27.764L77.176 26.004C77.3227 25.8547 77.4533 25.712 77.568 25.576C77.6853 25.44 77.7827 25.3053 77.86 25.172C77.9373 25.0387 77.996 24.904 78.036 24.768C78.0787 24.6293 78.1 24.484 78.1 24.332C78.1 24.1933 78.08 24.072 78.04 23.968C78 23.8613 77.9427 23.772 77.868 23.7C77.796 23.628 77.708 23.5747 77.604 23.54C77.5027 23.5027 77.388 23.484 77.26 23.484C77.1427 23.484 77.0333 23.5013 76.932 23.536C76.8333 23.568 76.7453 23.6147 76.668 23.676C76.5907 23.7347 76.5253 23.804 76.472 23.884C76.4187 23.964 76.3787 24.052 76.352 24.148C76.3067 24.2707 76.248 24.352 76.176 24.392C76.104 24.432 76 24.4413 75.864 24.42L75.344 24.328C75.384 24.0507 75.4613 23.808 75.576 23.6C75.6907 23.3893 75.8333 23.2147 76.004 23.076C76.1773 22.9347 76.3747 22.8293 76.596 22.76C76.82 22.688 77.06 22.652 77.316 22.652C77.5827 22.652 77.8267 22.692 78.048 22.772C78.2693 22.8493 78.4587 22.96 78.616 23.104C78.7733 23.248 78.896 23.4213 78.984 23.624C79.072 23.8267 79.116 24.052 79.116 24.3C79.116 24.5133 79.084 24.7107 79.02 24.892C78.9587 25.0733 78.8747 25.2467 78.768 25.412C78.664 25.5773 78.5413 25.7373 78.4 25.892C78.2587 26.0467 78.1107 26.204 77.956 26.364L76.652 27.696C76.7773 27.6587 76.9013 27.6307 77.024 27.612C77.1493 27.5907 77.268 27.58 77.38 27.58H78.864Z" fill="#FF9000"/>
<rect x="82.5" y="20" width="11" height="11" fill="#2F1C04"/>
<rect x="82.5" y="20" width="11" height="11" stroke="#2F1C04"/>
<path d="M87.6914 26.18H86.1394V27.828H85.3354V26.18H83.7914V25.448H85.3354V23.808H86.1394V25.448H87.6914V26.18ZM88.372 24.328C88.412 24.0507 88.4893 23.808 88.604 23.6C88.7187 23.3893 88.8613 23.2147 89.032 23.076C89.2053 22.9347 89.4027 22.8293 89.624 22.76C89.848 22.688 90.088 22.652 90.344 22.652C90.6107 22.652 90.8507 22.6907 91.064 22.768C91.28 22.8427 91.464 22.948 91.616 23.084C91.768 23.2173 91.884 23.3747 91.964 23.556C92.0467 23.7373 92.088 23.9333 92.088 24.144C92.088 24.328 92.0667 24.4907 92.024 24.632C91.984 24.7707 91.9253 24.892 91.848 24.996C91.7707 25.1 91.6747 25.188 91.56 25.26C91.4453 25.332 91.316 25.392 91.172 25.44C91.5187 25.5493 91.7773 25.716 91.948 25.94C92.1187 26.164 92.204 26.4453 92.204 26.784C92.204 27.072 92.1507 27.3267 92.044 27.548C91.9373 27.7693 91.7933 27.956 91.612 28.108C91.4307 28.2573 91.22 28.3707 90.98 28.448C90.7427 28.5253 90.4907 28.564 90.224 28.564C89.9333 28.564 89.68 28.5307 89.464 28.464C89.248 28.3973 89.06 28.2987 88.9 28.168C88.74 28.0373 88.604 27.8773 88.492 27.688C88.38 27.4987 88.284 27.28 88.204 27.032L88.64 26.852C88.7547 26.804 88.8613 26.792 88.96 26.816C89.0613 26.8373 89.1347 26.8907 89.18 26.976C89.228 27.0693 89.28 27.1613 89.336 27.252C89.3947 27.3427 89.464 27.424 89.544 27.496C89.624 27.5653 89.7173 27.6227 89.824 27.668C89.9333 27.7107 90.0627 27.732 90.212 27.732C90.38 27.732 90.5267 27.7053 90.652 27.652C90.7773 27.596 90.8813 27.524 90.964 27.436C91.0493 27.348 91.112 27.2507 91.152 27.144C91.1947 27.0347 91.216 26.9253 91.216 26.816C91.216 26.6773 91.2013 26.552 91.172 26.44C91.1427 26.3253 91.0813 26.228 90.988 26.148C90.8947 26.068 90.76 26.0053 90.584 25.96C90.4107 25.9147 90.1773 25.892 89.884 25.892V25.188C90.1267 25.1853 90.328 25.1627 90.488 25.12C90.648 25.0773 90.7747 25.0187 90.868 24.944C90.964 24.8667 91.0307 24.7747 91.068 24.668C91.1053 24.5613 91.124 24.444 91.124 24.316C91.124 24.044 91.048 23.8373 90.896 23.696C90.744 23.5547 90.5413 23.484 90.288 23.484C90.1707 23.484 90.0627 23.5013 89.964 23.536C89.8653 23.568 89.776 23.6147 89.696 23.676C89.6187 23.7347 89.5533 23.804 89.5 23.884C89.4467 23.964 89.4067 24.052 89.38 24.148C89.3347 24.2707 89.2747 24.352 89.2 24.392C89.128 24.432 89.0253 24.4413 88.892 24.42L88.372 24.328Z" fill="#FF9000"/>
<rect x="4.5" y="38" width="11" height="11" fill="#2F1C04"/>
<rect x="4.5" y="38" width="11" height="11" stroke="#2F1C04"/>
<path d="M6.7035 43.672H8.7755V44.496H6.7035V43.672ZM9.54388 42.328C9.58388 42.0507 9.66121 41.808 9.77588 41.6C9.89054 41.3893 10.0332 41.2147 10.2039 41.076C10.3772 40.9347 10.5745 40.8293 10.7959 40.76C11.0199 40.688 11.2599 40.652 11.5159 40.652C11.7825 40.652 12.0225 40.6907 12.2359 40.768C12.4519 40.8427 12.6359 40.948 12.7879 41.084C12.9399 41.2173 13.0559 41.3747 13.1359 41.556C13.2185 41.7373 13.2599 41.9333 13.2599 42.144C13.2599 42.328 13.2385 42.4907 13.1959 42.632C13.1559 42.7707 13.0972 42.892 13.0199 42.996C12.9425 43.1 12.8465 43.188 12.7319 43.26C12.6172 43.332 12.4879 43.392 12.3439 43.44C12.6905 43.5493 12.9492 43.716 13.1199 43.94C13.2905 44.164 13.3759 44.4453 13.3759 44.784C13.3759 45.072 13.3225 45.3267 13.2159 45.548C13.1092 45.7693 12.9652 45.956 12.7839 46.108C12.6025 46.2573 12.3919 46.3707 12.1519 46.448C11.9145 46.5253 11.6625 46.564 11.3959 46.564C11.1052 46.564 10.8519 46.5307 10.6359 46.464C10.4199 46.3973 10.2319 46.2987 10.0719 46.168C9.91188 46.0373 9.77588 45.8773 9.66388 45.688C9.55188 45.4987 9.45588 45.28 9.37588 45.032L9.81188 44.852C9.92654 44.804 10.0332 44.792 10.1319 44.816C10.2332 44.8373 10.3065 44.8907 10.3519 44.976C10.3999 45.0693 10.4519 45.1613 10.5079 45.252C10.5665 45.3427 10.6359 45.424 10.7159 45.496C10.7959 45.5653 10.8892 45.6227 10.9959 45.668C11.1052 45.7107 11.2345 45.732 11.3839 45.732C11.5519 45.732 11.6985 45.7053 11.8239 45.652C11.9492 45.596 12.0532 45.524 12.1359 45.436C12.2212 45.348 12.2839 45.2507 12.3239 45.144C12.3665 45.0347 12.3879 44.9253 12.3879 44.816C12.3879 44.6773 12.3732 44.552 12.3439 44.44C12.3145 44.3253 12.2532 44.228 12.1599 44.148C12.0665 44.068 11.9319 44.0053 11.7559 43.96C11.5825 43.9147 11.3492 43.892 11.0559 43.892V43.188C11.2985 43.1853 11.4999 43.1627 11.6599 43.12C11.8199 43.0773 11.9465 43.0187 12.0399 42.944C12.1359 42.8667 12.2025 42.7747 12.2399 42.668C12.2772 42.5613 12.2959 42.444 12.2959 42.316C12.2959 42.044 12.2199 41.8373 12.0679 41.696C11.9159 41.5547 11.7132 41.484 11.4599 41.484C11.3425 41.484 11.2345 41.5013 11.1359 41.536C11.0372 41.568 10.9479 41.6147 10.8679 41.676C10.7905 41.7347 10.7252 41.804 10.6719 41.884C10.6185 41.964 10.5785 42.052 10.5519 42.148C10.5065 42.2707 10.4465 42.352 10.3719 42.392C10.2999 42.432 10.1972 42.4413 10.0639 42.42L9.54388 42.328Z" fill="#FF9000"/>
<rect x="17.5" y="38" width="11" height="11" fill="#2F1C04"/>
<rect x="17.5" y="38" width="11" height="11" stroke="#2F1C04"/>
<path d="M19.7035 43.672H21.7755V44.496H19.7035V43.672ZM26.0359 45.58C26.1425 45.58 26.2265 45.6107 26.2879 45.672C26.3519 45.7307 26.3839 45.8093 26.3839 45.908V46.5H22.4159V46.172C22.4159 46.1053 22.4292 46.036 22.4559 45.964C22.4852 45.8893 22.5305 45.8227 22.5919 45.764L24.3479 44.004C24.4945 43.8547 24.6252 43.712 24.7399 43.576C24.8572 43.44 24.9545 43.3053 25.0319 43.172C25.1092 43.0387 25.1679 42.904 25.2079 42.768C25.2505 42.6293 25.2719 42.484 25.2719 42.332C25.2719 42.1933 25.2519 42.072 25.2119 41.968C25.1719 41.8613 25.1145 41.772 25.0399 41.7C24.9679 41.628 24.8799 41.5747 24.7759 41.54C24.6745 41.5027 24.5599 41.484 24.4319 41.484C24.3145 41.484 24.2052 41.5013 24.1039 41.536C24.0052 41.568 23.9172 41.6147 23.8399 41.676C23.7625 41.7347 23.6972 41.804 23.6439 41.884C23.5905 41.964 23.5505 42.052 23.5239 42.148C23.4785 42.2707 23.4199 42.352 23.3479 42.392C23.2759 42.432 23.1719 42.4413 23.0359 42.42L22.5159 42.328C22.5559 42.0507 22.6332 41.808 22.7479 41.6C22.8625 41.3893 23.0052 41.2147 23.1759 41.076C23.3492 40.9347 23.5465 40.8293 23.7679 40.76C23.9919 40.688 24.2319 40.652 24.4879 40.652C24.7545 40.652 24.9985 40.692 25.2199 40.772C25.4412 40.8493 25.6305 40.96 25.7879 41.104C25.9452 41.248 26.0679 41.4213 26.1559 41.624C26.2439 41.8267 26.2879 42.052 26.2879 42.3C26.2879 42.5133 26.2559 42.7107 26.1919 42.892C26.1305 43.0733 26.0465 43.2467 25.9399 43.412C25.8359 43.5773 25.7132 43.7373 25.5719 43.892C25.4305 44.0467 25.2825 44.204 25.1279 44.364L23.8239 45.696C23.9492 45.6587 24.0732 45.6307 24.1959 45.612C24.3212 45.5907 24.4399 45.58 24.5519 45.58H26.0359Z" fill="#FF9000"/>
<rect x="30.5" y="38" width="11" height="11" fill="#FF9A10"/>
<rect x="30.5" y="38" width="11" height="11" stroke="#FF9A10"/>
<path d="M32.7035 43.672H34.7755V44.496H32.7035V43.672ZM39.2519 45.76V46.5H36.0519V45.76H37.2239V42.388C37.2239 42.2547 37.2279 42.1173 37.2359 41.976L36.4039 42.672C36.3559 42.7093 36.3079 42.7333 36.2599 42.744C36.2145 42.752 36.1705 42.752 36.1279 42.744C36.0879 42.736 36.0519 42.7227 36.0199 42.704C35.9879 42.6827 35.9639 42.66 35.9479 42.636L35.6359 42.208L37.3999 40.708H38.2119V45.76H39.2519Z" fill="#1D1D1D"/>
<rect x="43.5" y="38" width="11" height="11" fill="#2F1C04"/>
<rect x="43.5" y="38" width="11" height="11" stroke="#2F1C04"/>
<path d="M51.1197 43.608C51.1197 44.112 51.065 44.5507 50.9557 44.924C50.849 45.2947 50.6997 45.6013 50.5077 45.844C50.3184 46.0867 50.093 46.268 49.8317 46.388C49.573 46.5053 49.293 46.564 48.9917 46.564C48.6904 46.564 48.4104 46.5053 48.1517 46.388C47.8957 46.268 47.673 46.0867 47.4837 45.844C47.2944 45.6013 47.1464 45.2947 47.0397 44.924C46.933 44.5507 46.8797 44.112 46.8797 43.608C46.8797 43.1013 46.933 42.6627 47.0397 42.292C47.1464 41.9213 47.2944 41.6147 47.4837 41.372C47.673 41.1293 47.8957 40.9493 48.1517 40.832C48.4104 40.712 48.6904 40.652 48.9917 40.652C49.293 40.652 49.573 40.712 49.8317 40.832C50.093 40.9493 50.3184 41.1293 50.5077 41.372C50.6997 41.6147 50.849 41.9213 50.9557 42.292C51.065 42.6627 51.1197 43.1013 51.1197 43.608ZM50.0997 43.608C50.0997 43.1893 50.069 42.8427 50.0077 42.568C49.9464 42.2933 49.8637 42.0747 49.7597 41.912C49.6584 41.7493 49.541 41.636 49.4077 41.572C49.2744 41.5053 49.1357 41.472 48.9917 41.472C48.8504 41.472 48.713 41.5053 48.5797 41.572C48.449 41.636 48.333 41.7493 48.2317 41.912C48.1304 42.0747 48.049 42.2933 47.9877 42.568C47.929 42.8427 47.8997 43.1893 47.8997 43.608C47.8997 44.0267 47.929 44.3733 47.9877 44.648C48.049 44.9227 48.1304 45.1413 48.2317 45.304C48.333 45.4667 48.449 45.5813 48.5797 45.648C48.713 45.712 48.8504 45.744 48.9917 45.744C49.1357 45.744 49.2744 45.712 49.4077 45.648C49.541 45.5813 49.6584 45.4667 49.7597 45.304C49.8637 45.1413 49.9464 44.9227 50.0077 44.648C50.069 44.3733 50.0997 44.0267 50.0997 43.608Z" fill="#FF9000"/>
<rect x="56.5" y="38" width="11" height="11" fill="#2F1C04"/>
<rect x="56.5" y="38" width="11" height="11" stroke="#2F1C04"/>
<path d="M61.6914 44.18H60.1394V45.828H59.3354V44.18H57.7914V43.448H59.3354V41.808H60.1394V43.448H61.6914V44.18ZM66.08 45.76V46.5H62.88V45.76H64.052V42.388C64.052 42.2547 64.056 42.1173 64.064 41.976L63.232 42.672C63.184 42.7093 63.136 42.7333 63.088 42.744C63.0427 42.752 62.9987 42.752 62.956 42.744C62.916 42.736 62.88 42.7227 62.848 42.704C62.816 42.6827 62.792 42.66 62.776 42.636L62.464 42.208L64.228 40.708H65.04V45.76H66.08Z" fill="#FF9000"/>
<rect x="69.5" y="38" width="11" height="11" fill="#2F1C04"/>
<rect x="69.5" y="38" width="11" height="11" stroke="#2F1C04"/>
<path d="M74.6914 44.18H73.1394V45.828H72.3354V44.18H70.7914V43.448H72.3354V41.808H73.1394V43.448H74.6914V44.18ZM78.864 45.58C78.9707 45.58 79.0547 45.6107 79.116 45.672C79.18 45.7307 79.212 45.8093 79.212 45.908V46.5H75.244V46.172C75.244 46.1053 75.2573 46.036 75.284 45.964C75.3133 45.8893 75.3587 45.8227 75.42 45.764L77.176 44.004C77.3227 43.8547 77.4533 43.712 77.568 43.576C77.6853 43.44 77.7827 43.3053 77.86 43.172C77.9373 43.0387 77.996 42.904 78.036 42.768C78.0787 42.6293 78.1 42.484 78.1 42.332C78.1 42.1933 78.08 42.072 78.04 41.968C78 41.8613 77.9427 41.772 77.868 41.7C77.796 41.628 77.708 41.5747 77.604 41.54C77.5027 41.5027 77.388 41.484 77.26 41.484C77.1427 41.484 77.0333 41.5013 76.932 41.536C76.8333 41.568 76.7453 41.6147 76.668 41.676C76.5907 41.7347 76.5253 41.804 76.472 41.884C76.4187 41.964 76.3787 42.052 76.352 42.148C76.3067 42.2707 76.248 42.352 76.176 42.392C76.104 42.432 76 42.4413 75.864 42.42L75.344 42.328C75.384 42.0507 75.4613 41.808 75.576 41.6C75.6907 41.3893 75.8333 41.2147 76.004 41.076C76.1773 40.9347 76.3747 40.8293 76.596 40.76C76.82 40.688 77.06 40.652 77.316 40.652C77.5827 40.652 77.8267 40.692 78.048 40.772C78.2693 40.8493 78.4587 40.96 78.616 41.104C78.7733 41.248 78.896 41.4213 78.984 41.624C79.072 41.8267 79.116 42.052 79.116 42.3C79.116 42.5133 79.084 42.7107 79.02 42.892C78.9587 43.0733 78.8747 43.2467 78.768 43.412C78.664 43.5773 78.5413 43.7373 78.4 43.892C78.2587 44.0467 78.1107 44.204 77.956 44.364L76.652 45.696C76.7773 45.6587 76.9013 45.6307 77.024 45.612C77.1493 45.5907 77.268 45.58 77.38 45.58H78.864Z" fill="#FF9000"/>
<rect x="82.5" y="38" width="11" height="11" fill="#2F1C04"/>
<rect x="82.5" y="38" width="11" height="11" stroke="#2F1C04"/>
<path d="M87.6914 44.18H86.1394V45.828H85.3354V44.18H83.7914V43.448H85.3354V41.808H86.1394V43.448H87.6914V44.18ZM88.372 42.328C88.412 42.0507 88.4893 41.808 88.604 41.6C88.7187 41.3893 88.8613 41.2147 89.032 41.076C89.2053 40.9347 89.4027 40.8293 89.624 40.76C89.848 40.688 90.088 40.652 90.344 40.652C90.6107 40.652 90.8507 40.6907 91.064 40.768C91.28 40.8427 91.464 40.948 91.616 41.084C91.768 41.2173 91.884 41.3747 91.964 41.556C92.0467 41.7373 92.088 41.9333 92.088 42.144C92.088 42.328 92.0667 42.4907 92.024 42.632C91.984 42.7707 91.9253 42.892 91.848 42.996C91.7707 43.1 91.6747 43.188 91.56 43.26C91.4453 43.332 91.316 43.392 91.172 43.44C91.5187 43.5493 91.7773 43.716 91.948 43.94C92.1187 44.164 92.204 44.4453 92.204 44.784C92.204 45.072 92.1507 45.3267 92.044 45.548C91.9373 45.7693 91.7933 45.956 91.612 46.108C91.4307 46.2573 91.22 46.3707 90.98 46.448C90.7427 46.5253 90.4907 46.564 90.224 46.564C89.9333 46.564 89.68 46.5307 89.464 46.464C89.248 46.3973 89.06 46.2987 88.9 46.168C88.74 46.0373 88.604 45.8773 88.492 45.688C88.38 45.4987 88.284 45.28 88.204 45.032L88.64 44.852C88.7547 44.804 88.8613 44.792 88.96 44.816C89.0613 44.8373 89.1347 44.8907 89.18 44.976C89.228 45.0693 89.28 45.1613 89.336 45.252C89.3947 45.3427 89.464 45.424 89.544 45.496C89.624 45.5653 89.7173 45.6227 89.824 45.668C89.9333 45.7107 90.0627 45.732 90.212 45.732C90.38 45.732 90.5267 45.7053 90.652 45.652C90.7773 45.596 90.8813 45.524 90.964 45.436C91.0493 45.348 91.112 45.2507 91.152 45.144C91.1947 45.0347 91.216 44.9253 91.216 44.816C91.216 44.6773 91.2013 44.552 91.172 44.44C91.1427 44.3253 91.0813 44.228 90.988 44.148C90.8947 44.068 90.76 44.0053 90.584 43.96C90.4107 43.9147 90.1773 43.892 89.884 43.892V43.188C90.1267 43.1853 90.328 43.1627 90.488 43.12C90.648 43.0773 90.7747 43.0187 90.868 42.944C90.964 42.8667 91.0307 42.7747 91.068 42.668C91.1053 42.5613 91.124 42.444 91.124 42.316C91.124 42.044 91.048 41.8373 90.896 41.696C90.744 41.5547 90.5413 41.484 90.288 41.484C90.1707 41.484 90.0627 41.5013 89.964 41.536C89.8653 41.568 89.776 41.6147 89.696 41.676C89.6187 41.7347 89.5533 41.804 89.5 41.884C89.4467 41.964 89.4067 42.052 89.38 42.148C89.3347 42.2707 89.2747 42.352 89.2 42.392C89.128 42.432 89.0253 42.4413 88.892 42.42L88.372 42.328Z" fill="#FF9000"/>
<rect x="4.5" y="56" width="11" height="11" fill="#2F1C04"/>
<rect x="4.5" y="56" width="11" height="11" stroke="#2F1C04"/>
<path d="M6.7035 61.672H8.7755V62.496H6.7035V61.672ZM9.54388 60.328C9.58388 60.0507 9.66121 59.808 9.77588 59.6C9.89054 59.3893 10.0332 59.2147 10.2039 59.076C10.3772 58.9347 10.5745 58.8293 10.7959 58.76C11.0199 58.688 11.2599 58.652 11.5159 58.652C11.7825 58.652 12.0225 58.6907 12.2359 58.768C12.4519 58.8427 12.6359 58.948 12.7879 59.084C12.9399 59.2173 13.0559 59.3747 13.1359 59.556C13.2185 59.7373 13.2599 59.9333 13.2599 60.144C13.2599 60.328 13.2385 60.4907 13.1959 60.632C13.1559 60.7707 13.0972 60.892 13.0199 60.996C12.9425 61.1 12.8465 61.188 12.7319 61.26C12.6172 61.332 12.4879 61.392 12.3439 61.44C12.6905 61.5493 12.9492 61.716 13.1199 61.94C13.2905 62.164 13.3759 62.4453 13.3759 62.784C13.3759 63.072 13.3225 63.3267 13.2159 63.548C13.1092 63.7693 12.9652 63.956 12.7839 64.108C12.6025 64.2573 12.3919 64.3707 12.1519 64.448C11.9145 64.5253 11.6625 64.564 11.3959 64.564C11.1052 64.564 10.8519 64.5307 10.6359 64.464C10.4199 64.3973 10.2319 64.2987 10.0719 64.168C9.91188 64.0373 9.77588 63.8773 9.66388 63.688C9.55188 63.4987 9.45588 63.28 9.37588 63.032L9.81188 62.852C9.92654 62.804 10.0332 62.792 10.1319 62.816C10.2332 62.8373 10.3065 62.8907 10.3519 62.976C10.3999 63.0693 10.4519 63.1613 10.5079 63.252C10.5665 63.3427 10.6359 63.424 10.7159 63.496C10.7959 63.5653 10.8892 63.6227 10.9959 63.668C11.1052 63.7107 11.2345 63.732 11.3839 63.732C11.5519 63.732 11.6985 63.7053 11.8239 63.652C11.9492 63.596 12.0532 63.524 12.1359 63.436C12.2212 63.348 12.2839 63.2507 12.3239 63.144C12.3665 63.0347 12.3879 62.9253 12.3879 62.816C12.3879 62.6773 12.3732 62.552 12.3439 62.44C12.3145 62.3253 12.2532 62.228 12.1599 62.148C12.0665 62.068 11.9319 62.0053 11.7559 61.96C11.5825 61.9147 11.3492 61.892 11.0559 61.892V61.188C11.2985 61.1853 11.4999 61.1627 11.6599 61.12C11.8199 61.0773 11.9465 61.0187 12.0399 60.944C12.1359 60.8667 12.2025 60.7747 12.2399 60.668C12.2772 60.5613 12.2959 60.444 12.2959 60.316C12.2959 60.044 12.2199 59.8373 12.0679 59.696C11.9159 59.5547 11.7132 59.484 11.4599 59.484C11.3425 59.484 11.2345 59.5013 11.1359 59.536C11.0372 59.568 10.9479 59.6147 10.8679 59.676C10.7905 59.7347 10.7252 59.804 10.6719 59.884C10.6185 59.964 10.5785 60.052 10.5519 60.148C10.5065 60.2707 10.4465 60.352 10.3719 60.392C10.2999 60.432 10.1972 60.4413 10.0639 60.42L9.54388 60.328Z" fill="#FF9000"/>
<rect x="17.5" y="56" width="11" height="11" fill="#2F1C04"/>
<rect x="17.5" y="56" width="11" height="11" stroke="#2F1C04"/>
<path d="M19.7035 61.672H21.7755V62.496H19.7035V61.672ZM26.0359 63.58C26.1425 63.58 26.2265 63.6107 26.2879 63.672C26.3519 63.7307 26.3839 63.8093 26.3839 63.908V64.5H22.4159V64.172C22.4159 64.1053 22.4292 64.036 22.4559 63.964C22.4852 63.8893 22.5305 63.8227 22.5919 63.764L24.3479 62.004C24.4945 61.8547 24.6252 61.712 24.7399 61.576C24.8572 61.44 24.9545 61.3053 25.0319 61.172C25.1092 61.0387 25.1679 60.904 25.2079 60.768C25.2505 60.6293 25.2719 60.484 25.2719 60.332C25.2719 60.1933 25.2519 60.072 25.2119 59.968C25.1719 59.8613 25.1145 59.772 25.0399 59.7C24.9679 59.628 24.8799 59.5747 24.7759 59.54C24.6745 59.5027 24.5599 59.484 24.4319 59.484C24.3145 59.484 24.2052 59.5013 24.1039 59.536C24.0052 59.568 23.9172 59.6147 23.8399 59.676C23.7625 59.7347 23.6972 59.804 23.6439 59.884C23.5905 59.964 23.5505 60.052 23.5239 60.148C23.4785 60.2707 23.4199 60.352 23.3479 60.392C23.2759 60.432 23.1719 60.4413 23.0359 60.42L22.5159 60.328C22.5559 60.0507 22.6332 59.808 22.7479 59.6C22.8625 59.3893 23.0052 59.2147 23.1759 59.076C23.3492 58.9347 23.5465 58.8293 23.7679 58.76C23.9919 58.688 24.2319 58.652 24.4879 58.652C24.7545 58.652 24.9985 58.692 25.2199 58.772C25.4412 58.8493 25.6305 58.96 25.7879 59.104C25.9452 59.248 26.0679 59.4213 26.1559 59.624C26.2439 59.8267 26.2879 60.052 26.2879 60.3C26.2879 60.5133 26.2559 60.7107 26.1919 60.892C26.1305 61.0733 26.0465 61.2467 25.9399 61.412C25.8359 61.5773 25.7132 61.7373 25.5719 61.892C25.4305 62.0467 25.2825 62.204 25.1279 62.364L23.8239 63.696C23.9492 63.6587 24.0732 63.6307 24.1959 63.612C24.3212 63.5907 24.4399 63.58 24.5519 63.58H26.0359Z" fill="#FF9000"/>
<rect x="30.5" y="56" width="11" height="11" fill="#2F1C04"/>
<rect x="30.5" y="56" width="11" height="11" stroke="#2F1C04"/>
<path d="M32.7035 61.672H34.7755V62.496H32.7035V61.672ZM39.2519 63.76V64.5H36.0519V63.76H37.2239V60.388C37.2239 60.2547 37.2279 60.1173 37.2359 59.976L36.4039 60.672C36.3559 60.7093 36.3079 60.7333 36.2599 60.744C36.2145 60.752 36.1705 60.752 36.1279 60.744C36.0879 60.736 36.0519 60.7227 36.0199 60.704C35.9879 60.6827 35.9639 60.66 35.9479 60.636L35.6359 60.208L37.3999 58.708H38.2119V63.76H39.2519Z" fill="#FF9000"/>
<rect x="43.5" y="56" width="11" height="11" fill="#FF9A10"/>
<rect x="43.5" y="56" width="11" height="11" stroke="#FF9A10"/>
<path d="M51.1197 61.608C51.1197 62.112 51.065 62.5507 50.9557 62.924C50.849 63.2947 50.6997 63.6013 50.5077 63.844C50.3184 64.0867 50.093 64.268 49.8317 64.388C49.573 64.5053 49.293 64.564 48.9917 64.564C48.6904 64.564 48.4104 64.5053 48.1517 64.388C47.8957 64.268 47.673 64.0867 47.4837 63.844C47.2944 63.6013 47.1464 63.2947 47.0397 62.924C46.933 62.5507 46.8797 62.112 46.8797 61.608C46.8797 61.1013 46.933 60.6627 47.0397 60.292C47.1464 59.9213 47.2944 59.6147 47.4837 59.372C47.673 59.1293 47.8957 58.9493 48.1517 58.832C48.4104 58.712 48.6904 58.652 48.9917 58.652C49.293 58.652 49.573 58.712 49.8317 58.832C50.093 58.9493 50.3184 59.1293 50.5077 59.372C50.6997 59.6147 50.849 59.9213 50.9557 60.292C51.065 60.6627 51.1197 61.1013 51.1197 61.608ZM50.0997 61.608C50.0997 61.1893 50.069 60.8427 50.0077 60.568C49.9464 60.2933 49.8637 60.0747 49.7597 59.912C49.6584 59.7493 49.541 59.636 49.4077 59.572C49.2744 59.5053 49.1357 59.472 48.9917 59.472C48.8504 59.472 48.713 59.5053 48.5797 59.572C48.449 59.636 48.333 59.7493 48.2317 59.912C48.1304 60.0747 48.049 60.2933 47.9877 60.568C47.929 60.8427 47.8997 61.1893 47.8997 61.608C47.8997 62.0267 47.929 62.3733 47.9877 62.648C48.049 62.9227 48.1304 63.1413 48.2317 63.304C48.333 63.4667 48.449 63.5813 48.5797 63.648C48.713 63.712 48.8504 63.744 48.9917 63.744C49.1357 63.744 49.2744 63.712 49.4077 63.648C49.541 63.5813 49.6584 63.4667 49.7597 63.304C49.8637 63.1413 49.9464 62.9227 50.0077 62.648C50.069 62.3733 50.0997 62.0267 50.0997 61.608Z" fill="#1D1D1D"/>
<rect x="56.5" y="56" width="11" height="11" fill="#2F1C04"/>
<rect x="56.5" y="56" width="11" height="11" stroke="#2F1C04"/>
<path d="M61.6914 62.18H60.1394V63.828H59.3354V62.18H57.7914V61.448H59.3354V59.808H60.1394V61.448H61.6914V62.18ZM66.08 63.76V64.5H62.88V63.76H64.052V60.388C64.052 60.2547 64.056 60.1173 64.064 59.976L63.232 60.672C63.184 60.7093 63.136 60.7333 63.088 60.744C63.0427 60.752 62.9987 60.752 62.956 60.744C62.916 60.736 62.88 60.7227 62.848 60.704C62.816 60.6827 62.792 60.66 62.776 60.636L62.464 60.208L64.228 58.708H65.04V63.76H66.08Z" fill="#FF9000"/>
<rect x="69.5" y="56" width="11" height="11" fill="#2F1C04"/>
<rect x="69.5" y="56" width="11" height="11" stroke="#2F1C04"/>
<path d="M74.6914 62.18H73.1394V63.828H72.3354V62.18H70.7914V61.448H72.3354V59.808H73.1394V61.448H74.6914V62.18ZM78.864 63.58C78.9707 63.58 79.0547 63.6107 79.116 63.672C79.18 63.7307 79.212 63.8093 79.212 63.908V64.5H75.244V64.172C75.244 64.1053 75.2573 64.036 75.284 63.964C75.3133 63.8893 75.3587 63.8227 75.42 63.764L77.176 62.004C77.3227 61.8547 77.4533 61.712 77.568 61.576C77.6853 61.44 77.7827 61.3053 77.86 61.172C77.9373 61.0387 77.996 60.904 78.036 60.768C78.0787 60.6293 78.1 60.484 78.1 60.332C78.1 60.1933 78.08 60.072 78.04 59.968C78 59.8613 77.9427 59.772 77.868 59.7C77.796 59.628 77.708 59.5747 77.604 59.54C77.5027 59.5027 77.388 59.484 77.26 59.484C77.1427 59.484 77.0333 59.5013 76.932 59.536C76.8333 59.568 76.7453 59.6147 76.668 59.676C76.5907 59.7347 76.5253 59.804 76.472 59.884C76.4187 59.964 76.3787 60.052 76.352 60.148C76.3067 60.2707 76.248 60.352 76.176 60.392C76.104 60.432 76 60.4413 75.864 60.42L75.344 60.328C75.384 60.0507 75.4613 59.808 75.576 59.6C75.6907 59.3893 75.8333 59.2147 76.004 59.076C76.1773 58.9347 76.3747 58.8293 76.596 58.76C76.82 58.688 77.06 58.652 77.316 58.652C77.5827 58.652 77.8267 58.692 78.048 58.772C78.2693 58.8493 78.4587 58.96 78.616 59.104C78.7733 59.248 78.896 59.4213 78.984 59.624C79.072 59.8267 79.116 60.052 79.116 60.3C79.116 60.5133 79.084 60.7107 79.02 60.892C78.9587 61.0733 78.8747 61.2467 78.768 61.412C78.664 61.5773 78.5413 61.7373 78.4 61.892C78.2587 62.0467 78.1107 62.204 77.956 62.364L76.652 63.696C76.7773 63.6587 76.9013 63.6307 77.024 63.612C77.1493 63.5907 77.268 63.58 77.38 63.58H78.864Z" fill="#FF9000"/>
<rect x="82.5" y="56" width="11" height="11" fill="#2F1C04"/>
<rect x="82.5" y="56" width="11" height="11" stroke="#2F1C04"/>
<path d="M87.6914 62.18H86.1394V63.828H85.3354V62.18H83.7914V61.448H85.3354V59.808H86.1394V61.448H87.6914V62.18ZM88.372 60.328C88.412 60.0507 88.4893 59.808 88.604 59.6C88.7187 59.3893 88.8613 59.2147 89.032 59.076C89.2053 58.9347 89.4027 58.8293 89.624 58.76C89.848 58.688 90.088 58.652 90.344 58.652C90.6107 58.652 90.8507 58.6907 91.064 58.768C91.28 58.8427 91.464 58.948 91.616 59.084C91.768 59.2173 91.884 59.3747 91.964 59.556C92.0467 59.7373 92.088 59.9333 92.088 60.144C92.088 60.328 92.0667 60.4907 92.024 60.632C91.984 60.7707 91.9253 60.892 91.848 60.996C91.7707 61.1 91.6747 61.188 91.56 61.26C91.4453 61.332 91.316 61.392 91.172 61.44C91.5187 61.5493 91.7773 61.716 91.948 61.94C92.1187 62.164 92.204 62.4453 92.204 62.784C92.204 63.072 92.1507 63.3267 92.044 63.548C91.9373 63.7693 91.7933 63.956 91.612 64.108C91.4307 64.2573 91.22 64.3707 90.98 64.448C90.7427 64.5253 90.4907 64.564 90.224 64.564C89.9333 64.564 89.68 64.5307 89.464 64.464C89.248 64.3973 89.06 64.2987 88.9 64.168C88.74 64.0373 88.604 63.8773 88.492 63.688C88.38 63.4987 88.284 63.28 88.204 63.032L88.64 62.852C88.7547 62.804 88.8613 62.792 88.96 62.816C89.0613 62.8373 89.1347 62.8907 89.18 62.976C89.228 63.0693 89.28 63.1613 89.336 63.252C89.3947 63.3427 89.464 63.424 89.544 63.496C89.624 63.5653 89.7173 63.6227 89.824 63.668C89.9333 63.7107 90.0627 63.732 90.212 63.732C90.38 63.732 90.5267 63.7053 90.652 63.652C90.7773 63.596 90.8813 63.524 90.964 63.436C91.0493 63.348 91.112 63.2507 91.152 63.144C91.1947 63.0347 91.216 62.9253 91.216 62.816C91.216 62.6773 91.2013 62.552 91.172 62.44C91.1427 62.3253 91.0813 62.228 90.988 62.148C90.8947 62.068 90.76 62.0053 90.584 61.96C90.4107 61.9147 90.1773 61.892 89.884 61.892V61.188C90.1267 61.1853 90.328 61.1627 90.488 61.12C90.648 61.0773 90.7747 61.0187 90.868 60.944C90.964 60.8667 91.0307 60.7747 91.068 60.668C91.1053 60.5613 91.124 60.444 91.124 60.316C91.124 60.044 91.048 59.8373 90.896 59.696C90.744 59.5547 90.5413 59.484 90.288 59.484C90.1707 59.484 90.0627 59.5013 89.964 59.536C89.8653 59.568 89.776 59.6147 89.696 59.676C89.6187 59.7347 89.5533 59.804 89.5 59.884C89.4467 59.964 89.4067 60.052 89.38 60.148C89.3347 60.2707 89.2747 60.352 89.2 60.392C89.128 60.432 89.0253 60.4413 88.892 60.42L88.372 60.328Z" fill="#FF9000"/>
<rect x="4.5" y="74" width="11" height="11" fill="#2F1C04"/>
<rect x="4.5" y="74" width="11" height="11" stroke="#2F1C04"/>
<path d="M6.7035 79.672H8.7755V80.496H6.7035V79.672ZM9.54388 78.328C9.58388 78.0507 9.66121 77.808 9.77588 77.6C9.89054 77.3893 10.0332 77.2147 10.2039 77.076C10.3772 76.9347 10.5745 76.8293 10.7959 76.76C11.0199 76.688 11.2599 76.652 11.5159 76.652C11.7825 76.652 12.0225 76.6907 12.2359 76.768C12.4519 76.8427 12.6359 76.948 12.7879 77.084C12.9399 77.2173 13.0559 77.3747 13.1359 77.556C13.2185 77.7373 13.2599 77.9333 13.2599 78.144C13.2599 78.328 13.2385 78.4907 13.1959 78.632C13.1559 78.7707 13.0972 78.892 13.0199 78.996C12.9425 79.1 12.8465 79.188 12.7319 79.26C12.6172 79.332 12.4879 79.392 12.3439 79.44C12.6905 79.5493 12.9492 79.716 13.1199 79.94C13.2905 80.164 13.3759 80.4453 13.3759 80.784C13.3759 81.072 13.3225 81.3267 13.2159 81.548C13.1092 81.7693 12.9652 81.956 12.7839 82.108C12.6025 82.2573 12.3919 82.3707 12.1519 82.448C11.9145 82.5253 11.6625 82.564 11.3959 82.564C11.1052 82.564 10.8519 82.5307 10.6359 82.464C10.4199 82.3973 10.2319 82.2987 10.0719 82.168C9.91188 82.0373 9.77588 81.8773 9.66388 81.688C9.55188 81.4987 9.45588 81.28 9.37588 81.032L9.81188 80.852C9.92654 80.804 10.0332 80.792 10.1319 80.816C10.2332 80.8373 10.3065 80.8907 10.3519 80.976C10.3999 81.0693 10.4519 81.1613 10.5079 81.252C10.5665 81.3427 10.6359 81.424 10.7159 81.496C10.7959 81.5653 10.8892 81.6227 10.9959 81.668C11.1052 81.7107 11.2345 81.732 11.3839 81.732C11.5519 81.732 11.6985 81.7053 11.8239 81.652C11.9492 81.596 12.0532 81.524 12.1359 81.436C12.2212 81.348 12.2839 81.2507 12.3239 81.144C12.3665 81.0347 12.3879 80.9253 12.3879 80.816C12.3879 80.6773 12.3732 80.552 12.3439 80.44C12.3145 80.3253 12.2532 80.228 12.1599 80.148C12.0665 80.068 11.9319 80.0053 11.7559 79.96C11.5825 79.9147 11.3492 79.892 11.0559 79.892V79.188C11.2985 79.1853 11.4999 79.1627 11.6599 79.12C11.8199 79.0773 11.9465 79.0187 12.0399 78.944C12.1359 78.8667 12.2025 78.7747 12.2399 78.668C12.2772 78.5613 12.2959 78.444 12.2959 78.316C12.2959 78.044 12.2199 77.8373 12.0679 77.696C11.9159 77.5547 11.7132 77.484 11.4599 77.484C11.3425 77.484 11.2345 77.5013 11.1359 77.536C11.0372 77.568 10.9479 77.6147 10.8679 77.676C10.7905 77.7347 10.7252 77.804 10.6719 77.884C10.6185 77.964 10.5785 78.052 10.5519 78.148C10.5065 78.2707 10.4465 78.352 10.3719 78.392C10.2999 78.432 10.1972 78.4413 10.0639 78.42L9.54388 78.328Z" fill="#FF9000"/>
<rect x="17.5" y="74" width="11" height="11" fill="#2F1C04"/>
<rect x="17.5" y="74" width="11" height="11" stroke="#2F1C04"/>
<path d="M19.7035 79.672H21.7755V80.496H19.7035V79.672ZM26.0359 81.58C26.1425 81.58 26.2265 81.6107 26.2879 81.672C26.3519 81.7307 26.3839 81.8093 26.3839 81.908V82.5H22.4159V82.172C22.4159 82.1053 22.4292 82.036 22.4559 81.964C22.4852 81.8893 22.5305 81.8227 22.5919 81.764L24.3479 80.004C24.4945 79.8547 24.6252 79.712 24.7399 79.576C24.8572 79.44 24.9545 79.3053 25.0319 79.172C25.1092 79.0387 25.1679 78.904 25.2079 78.768C25.2505 78.6293 25.2719 78.484 25.2719 78.332C25.2719 78.1933 25.2519 78.072 25.2119 77.968C25.1719 77.8613 25.1145 77.772 25.0399 77.7C24.9679 77.628 24.8799 77.5747 24.7759 77.54C24.6745 77.5027 24.5599 77.484 24.4319 77.484C24.3145 77.484 24.2052 77.5013 24.1039 77.536C24.0052 77.568 23.9172 77.6147 23.8399 77.676C23.7625 77.7347 23.6972 77.804 23.6439 77.884C23.5905 77.964 23.5505 78.052 23.5239 78.148C23.4785 78.2707 23.4199 78.352 23.3479 78.392C23.2759 78.432 23.1719 78.4413 23.0359 78.42L22.5159 78.328C22.5559 78.0507 22.6332 77.808 22.7479 77.6C22.8625 77.3893 23.0052 77.2147 23.1759 77.076C23.3492 76.9347 23.5465 76.8293 23.7679 76.76C23.9919 76.688 24.2319 76.652 24.4879 76.652C24.7545 76.652 24.9985 76.692 25.2199 76.772C25.4412 76.8493 25.6305 76.96 25.7879 77.104C25.9452 77.248 26.0679 77.4213 26.1559 77.624C26.2439 77.8267 26.2879 78.052 26.2879 78.3C26.2879 78.5133 26.2559 78.7107 26.1919 78.892C26.1305 79.0733 26.0465 79.2467 25.9399 79.412C25.8359 79.5773 25.7132 79.7373 25.5719 79.892C25.4305 80.0467 25.2825 80.204 25.1279 80.364L23.8239 81.696C23.9492 81.6587 24.0732 81.6307 24.1959 81.612C24.3212 81.5907 24.4399 81.58 24.5519 81.58H26.0359Z" fill="#FF9000"/>
<rect x="30.5" y="74" width="11" height="11" fill="#2F1C04"/>
<rect x="30.5" y="74" width="11" height="11" stroke="#2F1C04"/>
<path d="M32.7035 79.672H34.7755V80.496H32.7035V79.672ZM39.2519 81.76V82.5H36.0519V81.76H37.2239V78.388C37.2239 78.2547 37.2279 78.1173 37.2359 77.976L36.4039 78.672C36.3559 78.7093 36.3079 78.7333 36.2599 78.744C36.2145 78.752 36.1705 78.752 36.1279 78.744C36.0879 78.736 36.0519 78.7227 36.0199 78.704C35.9879 78.6827 35.9639 78.66 35.9479 78.636L35.6359 78.208L37.3999 76.708H38.2119V81.76H39.2519Z" fill="#FF9000"/>
<rect x="43.5" y="74" width="11" height="11" fill="#2F1C04"/>
<rect x="43.5" y="74" width="11" height="11" stroke="#2F1C04"/>
<path d="M51.1197 79.608C51.1197 80.112 51.065 80.5507 50.9557 80.924C50.849 81.2947 50.6997 81.6013 50.5077 81.844C50.3184 82.0867 50.093 82.268 49.8317 82.388C49.573 82.5053 49.293 82.564 48.9917 82.564C48.6904 82.564 48.4104 82.5053 48.1517 82.388C47.8957 82.268 47.673 82.0867 47.4837 81.844C47.2944 81.6013 47.1464 81.2947 47.0397 80.924C46.933 80.5507 46.8797 80.112 46.8797 79.608C46.8797 79.1013 46.933 78.6627 47.0397 78.292C47.1464 77.9213 47.2944 77.6147 47.4837 77.372C47.673 77.1293 47.8957 76.9493 48.1517 76.832C48.4104 76.712 48.6904 76.652 48.9917 76.652C49.293 76.652 49.573 76.712 49.8317 76.832C50.093 76.9493 50.3184 77.1293 50.5077 77.372C50.6997 77.6147 50.849 77.9213 50.9557 78.292C51.065 78.6627 51.1197 79.1013 51.1197 79.608ZM50.0997 79.608C50.0997 79.1893 50.069 78.8427 50.0077 78.568C49.9464 78.2933 49.8637 78.0747 49.7597 77.912C49.6584 77.7493 49.541 77.636 49.4077 77.572C49.2744 77.5053 49.1357 77.472 48.9917 77.472C48.8504 77.472 48.713 77.5053 48.5797 77.572C48.449 77.636 48.333 77.7493 48.2317 77.912C48.1304 78.0747 48.049 78.2933 47.9877 78.568C47.929 78.8427 47.8997 79.1893 47.8997 79.608C47.8997 80.0267 47.929 80.3733 47.9877 80.648C48.049 80.9227 48.1304 81.1413 48.2317 81.304C48.333 81.4667 48.449 81.5813 48.5797 81.648C48.713 81.712 48.8504 81.744 48.9917 81.744C49.1357 81.744 49.2744 81.712 49.4077 81.648C49.541 81.5813 49.6584 81.4667 49.7597 81.304C49.8637 81.1413 49.9464 80.9227 50.0077 80.648C50.069 80.3733 50.0997 80.0267 50.0997 79.608Z" fill="#FF9000"/>
<rect x="56.5" y="74" width="11" height="11" fill="#FF9A10"/>
<rect x="56.5" y="74" width="11" height="11" stroke="#FF9A10"/>
<path d="M61.6914 80.18H60.1394V81.828H59.3354V80.18H57.7914V79.448H59.3354V77.808H60.1394V79.448H61.6914V80.18ZM66.08 81.76V82.5H62.88V81.76H64.052V78.388C64.052 78.2547 64.056 78.1173 64.064 77.976L63.232 78.672C63.184 78.7093 63.136 78.7333 63.088 78.744C63.0427 78.752 62.9987 78.752 62.956 78.744C62.916 78.736 62.88 78.7227 62.848 78.704C62.816 78.6827 62.792 78.66 62.776 78.636L62.464 78.208L64.228 76.708H65.04V81.76H66.08Z" fill="#1D1D1D"/>
<rect x="69.5" y="74" width="11" height="11" fill="#2F1C04"/>
<rect x="69.5" y="74" width="11" height="11" stroke="#2F1C04"/>
<path d="M74.6914 80.18H73.1394V81.828H72.3354V80.18H70.7914V79.448H72.3354V77.808H73.1394V79.448H74.6914V80.18ZM78.864 81.58C78.9707 81.58 79.0547 81.6107 79.116 81.672C79.18 81.7307 79.212 81.8093 79.212 81.908V82.5H75.244V82.172C75.244 82.1053 75.2573 82.036 75.284 81.964C75.3133 81.8893 75.3587 81.8227 75.42 81.764L77.176 80.004C77.3227 79.8547 77.4533 79.712 77.568 79.576C77.6853 79.44 77.7827 79.3053 77.86 79.172C77.9373 79.0387 77.996 78.904 78.036 78.768C78.0787 78.6293 78.1 78.484 78.1 78.332C78.1 78.1933 78.08 78.072 78.04 77.968C78 77.8613 77.9427 77.772 77.868 77.7C77.796 77.628 77.708 77.5747 77.604 77.54C77.5027 77.5027 77.388 77.484 77.26 77.484C77.1427 77.484 77.0333 77.5013 76.932 77.536C76.8333 77.568 76.7453 77.6147 76.668 77.676C76.5907 77.7347 76.5253 77.804 76.472 77.884C76.4187 77.964 76.3787 78.052 76.352 78.148C76.3067 78.2707 76.248 78.352 76.176 78.392C76.104 78.432 76 78.4413 75.864 78.42L75.344 78.328C75.384 78.0507 75.4613 77.808 75.576 77.6C75.6907 77.3893 75.8333 77.2147 76.004 77.076C76.1773 76.9347 76.3747 76.8293 76.596 76.76C76.82 76.688 77.06 76.652 77.316 76.652C77.5827 76.652 77.8267 76.692 78.048 76.772C78.2693 76.8493 78.4587 76.96 78.616 77.104C78.7733 77.248 78.896 77.4213 78.984 77.624C79.072 77.8267 79.116 78.052 79.116 78.3C79.116 78.5133 79.084 78.7107 79.02 78.892C78.9587 79.0733 78.8747 79.2467 78.768 79.412C78.664 79.5773 78.5413 79.7373 78.4 79.892C78.2587 80.0467 78.1107 80.204 77.956 80.364L76.652 81.696C76.7773 81.6587 76.9013 81.6307 77.024 81.612C77.1493 81.5907 77.268 81.58 77.38 81.58H78.864Z" fill="#FF9000"/>
<rect x="82.5" y="74" width="11" height="11" fill="#2F1C04"/>
<rect x="82.5" y="74" width="11" height="11" stroke="#2F1C04"/>
<path d="M87.6914 80.18H86.1394V81.828H85.3354V80.18H83.7914V79.448H85.3354V77.808H86.1394V79.448H87.6914V80.18ZM88.372 78.328C88.412 78.0507 88.4893 77.808 88.604 77.6C88.7187 77.3893 88.8613 77.2147 89.032 77.076C89.2053 76.9347 89.4027 76.8293 89.624 76.76C89.848 76.688 90.088 76.652 90.344 76.652C90.6107 76.652 90.8507 76.6907 91.064 76.768C91.28 76.8427 91.464 76.948 91.616 77.084C91.768 77.2173 91.884 77.3747 91.964 77.556C92.0467 77.7373 92.088 77.9333 92.088 78.144C92.088 78.328 92.0667 78.4907 92.024 78.632C91.984 78.7707 91.9253 78.892 91.848 78.996C91.7707 79.1 91.6747 79.188 91.56 79.26C91.4453 79.332 91.316 79.392 91.172 79.44C91.5187 79.5493 91.7773 79.716 91.948 79.94C92.1187 80.164 92.204 80.4453 92.204 80.784C92.204 81.072 92.1507 81.3267 92.044 81.548C91.9373 81.7693 91.7933 81.956 91.612 82.108C91.4307 82.2573 91.22 82.3707 90.98 82.448C90.7427 82.5253 90.4907 82.564 90.224 82.564C89.9333 82.564 89.68 82.5307 89.464 82.464C89.248 82.3973 89.06 82.2987 88.9 82.168C88.74 82.0373 88.604 81.8773 88.492 81.688C88.38 81.4987 88.284 81.28 88.204 81.032L88.64 80.852C88.7547 80.804 88.8613 80.792 88.96 80.816C89.0613 80.8373 89.1347 80.8907 89.18 80.976C89.228 81.0693 89.28 81.1613 89.336 81.252C89.3947 81.3427 89.464 81.424 89.544 81.496C89.624 81.5653 89.7173 81.6227 89.824 81.668C89.9333 81.7107 90.0627 81.732 90.212 81.732C90.38 81.732 90.5267 81.7053 90.652 81.652C90.7773 81.596 90.8813 81.524 90.964 81.436C91.0493 81.348 91.112 81.2507 91.152 81.144C91.1947 81.0347 91.216 80.9253 91.216 80.816C91.216 80.6773 91.2013 80.552 91.172 80.44C91.1427 80.3253 91.0813 80.228 90.988 80.148C90.8947 80.068 90.76 80.0053 90.584 79.96C90.4107 79.9147 90.1773 79.892 89.884 79.892V79.188C90.1267 79.1853 90.328 79.1627 90.488 79.12C90.648 79.0773 90.7747 79.0187 90.868 78.944C90.964 78.8667 91.0307 78.7747 91.068 78.668C91.1053 78.5613 91.124 78.444 91.124 78.316C91.124 78.044 91.048 77.8373 90.896 77.696C90.744 77.5547 90.5413 77.484 90.288 77.484C90.1707 77.484 90.0627 77.5013 89.964 77.536C89.8653 77.568 89.776 77.6147 89.696 77.676C89.6187 77.7347 89.5533 77.804 89.5 77.884C89.4467 77.964 89.4067 78.052 89.38 78.148C89.3347 78.2707 89.2747 78.352 89.2 78.392C89.128 78.432 89.0253 78.4413 88.892 78.42L88.372 78.328Z" fill="#FF9000"/>
<rect x="4.5" y="92" width="11" height="11" fill="#2F1C04"/>
<rect x="4.5" y="92" width="11" height="11" stroke="#2F1C04"/>
<path d="M6.7035 97.672H8.7755V98.496H6.7035V97.672ZM9.54388 96.328C9.58388 96.0507 9.66121 95.808 9.77588 95.6C9.89054 95.3893 10.0332 95.2147 10.2039 95.076C10.3772 94.9347 10.5745 94.8293 10.7959 94.76C11.0199 94.688 11.2599 94.652 11.5159 94.652C11.7825 94.652 12.0225 94.6907 12.2359 94.768C12.4519 94.8427 12.6359 94.948 12.7879 95.084C12.9399 95.2173 13.0559 95.3747 13.1359 95.556C13.2185 95.7373 13.2599 95.9333 13.2599 96.144C13.2599 96.328 13.2385 96.4907 13.1959 96.632C13.1559 96.7707 13.0972 96.892 13.0199 96.996C12.9425 97.1 12.8465 97.188 12.7319 97.26C12.6172 97.332 12.4879 97.392 12.3439 97.44C12.6905 97.5493 12.9492 97.716 13.1199 97.94C13.2905 98.164 13.3759 98.4453 13.3759 98.784C13.3759 99.072 13.3225 99.3267 13.2159 99.548C13.1092 99.7693 12.9652 99.956 12.7839 100.108C12.6025 100.257 12.3919 100.371 12.1519 100.448C11.9145 100.525 11.6625 100.564 11.3959 100.564C11.1052 100.564 10.8519 100.531 10.6359 100.464C10.4199 100.397 10.2319 100.299 10.0719 100.168C9.91188 100.037 9.77588 99.8773 9.66388 99.688C9.55188 99.4987 9.45588 99.28 9.37588 99.032L9.81188 98.852C9.92654 98.804 10.0332 98.792 10.1319 98.816C10.2332 98.8373 10.3065 98.8907 10.3519 98.976C10.3999 99.0693 10.4519 99.1613 10.5079 99.252C10.5665 99.3427 10.6359 99.424 10.7159 99.496C10.7959 99.5653 10.8892 99.6227 10.9959 99.668C11.1052 99.7107 11.2345 99.732 11.3839 99.732C11.5519 99.732 11.6985 99.7053 11.8239 99.652C11.9492 99.596 12.0532 99.524 12.1359 99.436C12.2212 99.348 12.2839 99.2507 12.3239 99.144C12.3665 99.0347 12.3879 98.9253 12.3879 98.816C12.3879 98.6773 12.3732 98.552 12.3439 98.44C12.3145 98.3253 12.2532 98.228 12.1599 98.148C12.0665 98.068 11.9319 98.0053 11.7559 97.96C11.5825 97.9147 11.3492 97.892 11.0559 97.892V97.188C11.2985 97.1853 11.4999 97.1627 11.6599 97.12C11.8199 97.0773 11.9465 97.0187 12.0399 96.944C12.1359 96.8667 12.2025 96.7747 12.2399 96.668C12.2772 96.5613 12.2959 96.444 12.2959 96.316C12.2959 96.044 12.2199 95.8373 12.0679 95.696C11.9159 95.5547 11.7132 95.484 11.4599 95.484C11.3425 95.484 11.2345 95.5013 11.1359 95.536C11.0372 95.568 10.9479 95.6147 10.8679 95.676C10.7905 95.7347 10.7252 95.804 10.6719 95.884C10.6185 95.964 10.5785 96.052 10.5519 96.148C10.5065 96.2707 10.4465 96.352 10.3719 96.392C10.2999 96.432 10.1972 96.4413 10.0639 96.42L9.54388 96.328Z" fill="#FF9000"/>
<rect x="17.5" y="92" width="11" height="11" fill="#2F1C04"/>
<rect x="17.5" y="92" width="11" height="11" stroke="#2F1C04"/>
<path d="M19.7035 97.672H21.7755V98.496H19.7035V97.672ZM26.0359 99.58C26.1425 99.58 26.2265 99.6107 26.2879 99.672C26.3519 99.7307 26.3839 99.8093 26.3839 99.908V100.5H22.4159V100.172C22.4159 100.105 22.4292 100.036 22.4559 99.964C22.4852 99.8893 22.5305 99.8227 22.5919 99.764L24.3479 98.004C24.4945 97.8547 24.6252 97.712 24.7399 97.576C24.8572 97.44 24.9545 97.3053 25.0319 97.172C25.1092 97.0387 25.1679 96.904 25.2079 96.768C25.2505 96.6293 25.2719 96.484 25.2719 96.332C25.2719 96.1933 25.2519 96.072 25.2119 95.968C25.1719 95.8613 25.1145 95.772 25.0399 95.7C24.9679 95.628 24.8799 95.5747 24.7759 95.54C24.6745 95.5027 24.5599 95.484 24.4319 95.484C24.3145 95.484 24.2052 95.5013 24.1039 95.536C24.0052 95.568 23.9172 95.6147 23.8399 95.676C23.7625 95.7347 23.6972 95.804 23.6439 95.884C23.5905 95.964 23.5505 96.052 23.5239 96.148C23.4785 96.2707 23.4199 96.352 23.3479 96.392C23.2759 96.432 23.1719 96.4413 23.0359 96.42L22.5159 96.328C22.5559 96.0507 22.6332 95.808 22.7479 95.6C22.8625 95.3893 23.0052 95.2147 23.1759 95.076C23.3492 94.9347 23.5465 94.8293 23.7679 94.76C23.9919 94.688 24.2319 94.652 24.4879 94.652C24.7545 94.652 24.9985 94.692 25.2199 94.772C25.4412 94.8493 25.6305 94.96 25.7879 95.104C25.9452 95.248 26.0679 95.4213 26.1559 95.624C26.2439 95.8267 26.2879 96.052 26.2879 96.3C26.2879 96.5133 26.2559 96.7107 26.1919 96.892C26.1305 97.0733 26.0465 97.2467 25.9399 97.412C25.8359 97.5773 25.7132 97.7373 25.5719 97.892C25.4305 98.0467 25.2825 98.204 25.1279 98.364L23.8239 99.696C23.9492 99.6587 24.0732 99.6307 24.1959 99.612C24.3212 99.5907 24.4399 99.58 24.5519 99.58H26.0359Z" fill="#FF9000"/>
<rect x="30.5" y="92" width="11" height="11" fill="#2F1C04"/>
<rect x="30.5" y="92" width="11" height="11" stroke="#2F1C04"/>
<path d="M32.7035 97.672H34.7755V98.496H32.7035V97.672ZM39.2519 99.76V100.5H36.0519V99.76H37.2239V96.388C37.2239 96.2547 37.2279 96.1173 37.2359 95.976L36.4039 96.672C36.3559 96.7093 36.3079 96.7333 36.2599 96.744C36.2145 96.752 36.1705 96.752 36.1279 96.744C36.0879 96.736 36.0519 96.7227 36.0199 96.704C35.9879 96.6827 35.9639 96.66 35.9479 96.636L35.6359 96.208L37.3999 94.708H38.2119V99.76H39.2519Z" fill="#FF9000"/>
<rect x="43.5" y="92" width="11" height="11" fill="#2F1C04"/>
<rect x="43.5" y="92" width="11" height="11" stroke="#2F1C04"/>
<path d="M51.1197 97.608C51.1197 98.112 51.065 98.5507 50.9557 98.924C50.849 99.2947 50.6997 99.6013 50.5077 99.844C50.3184 100.087 50.093 100.268 49.8317 100.388C49.573 100.505 49.293 100.564 48.9917 100.564C48.6904 100.564 48.4104 100.505 48.1517 100.388C47.8957 100.268 47.673 100.087 47.4837 99.844C47.2944 99.6013 47.1464 99.2947 47.0397 98.924C46.933 98.5507 46.8797 98.112 46.8797 97.608C46.8797 97.1013 46.933 96.6627 47.0397 96.292C47.1464 95.9213 47.2944 95.6147 47.4837 95.372C47.673 95.1293 47.8957 94.9493 48.1517 94.832C48.4104 94.712 48.6904 94.652 48.9917 94.652C49.293 94.652 49.573 94.712 49.8317 94.832C50.093 94.9493 50.3184 95.1293 50.5077 95.372C50.6997 95.6147 50.849 95.9213 50.9557 96.292C51.065 96.6627 51.1197 97.1013 51.1197 97.608ZM50.0997 97.608C50.0997 97.1893 50.069 96.8427 50.0077 96.568C49.9464 96.2933 49.8637 96.0747 49.7597 95.912C49.6584 95.7493 49.541 95.636 49.4077 95.572C49.2744 95.5053 49.1357 95.472 48.9917 95.472C48.8504 95.472 48.713 95.5053 48.5797 95.572C48.449 95.636 48.333 95.7493 48.2317 95.912C48.1304 96.0747 48.049 96.2933 47.9877 96.568C47.929 96.8427 47.8997 97.1893 47.8997 97.608C47.8997 98.0267 47.929 98.3733 47.9877 98.648C48.049 98.9227 48.1304 99.1413 48.2317 99.304C48.333 99.4667 48.449 99.5813 48.5797 99.648C48.713 99.712 48.8504 99.744 48.9917 99.744C49.1357 99.744 49.2744 99.712 49.4077 99.648C49.541 99.5813 49.6584 99.4667 49.7597 99.304C49.8637 99.1413 49.9464 98.9227 50.0077 98.648C50.069 98.3733 50.0997 98.0267 50.0997 97.608Z" fill="#FF9000"/>
<rect x="56.5" y="92" width="11" height="11" fill="#2F1C04"/>
<rect x="56.5" y="92" width="11" height="11" stroke="#2F1C04"/>
<path d="M61.6914 98.18H60.1394V99.828H59.3354V98.18H57.7914V97.448H59.3354V95.808H60.1394V97.448H61.6914V98.18ZM66.08 99.76V100.5H62.88V99.76H64.052V96.388C64.052 96.2547 64.056 96.1173 64.064 95.976L63.232 96.672C63.184 96.7093 63.136 96.7333 63.088 96.744C63.0427 96.752 62.9987 96.752 62.956 96.744C62.916 96.736 62.88 96.7227 62.848 96.704C62.816 96.6827 62.792 96.66 62.776 96.636L62.464 96.208L64.228 94.708H65.04V99.76H66.08Z" fill="#FF9000"/>
<rect x="69.5" y="92" width="11" height="11" fill="#FF9A10"/>
<rect x="69.5" y="92" width="11" height="11" stroke="#FF9A10"/>
<path d="M74.6914 98.18H73.1394V99.828H72.3354V98.18H70.7914V97.448H72.3354V95.808H73.1394V97.448H74.6914V98.18ZM78.864 99.58C78.9707 99.58 79.0547 99.6107 79.116 99.672C79.18 99.7307 79.212 99.8093 79.212 99.908V100.5H75.244V100.172C75.244 100.105 75.2573 100.036 75.284 99.964C75.3133 99.8893 75.3587 99.8227 75.42 99.764L77.176 98.004C77.3227 97.8547 77.4533 97.712 77.568 97.576C77.6853 97.44 77.7827 97.3053 77.86 97.172C77.9373 97.0387 77.996 96.904 78.036 96.768C78.0787 96.6293 78.1 96.484 78.1 96.332C78.1 96.1933 78.08 96.072 78.04 95.968C78 95.8613 77.9427 95.772 77.868 95.7C77.796 95.628 77.708 95.5747 77.604 95.54C77.5027 95.5027 77.388 95.484 77.26 95.484C77.1427 95.484 77.0333 95.5013 76.932 95.536C76.8333 95.568 76.7453 95.6147 76.668 95.676C76.5907 95.7347 76.5253 95.804 76.472 95.884C76.4187 95.964 76.3787 96.052 76.352 96.148C76.3067 96.2707 76.248 96.352 76.176 96.392C76.104 96.432 76 96.4413 75.864 96.42L75.344 96.328C75.384 96.0507 75.4613 95.808 75.576 95.6C75.6907 95.3893 75.8333 95.2147 76.004 95.076C76.1773 94.9347 76.3747 94.8293 76.596 94.76C76.82 94.688 77.06 94.652 77.316 94.652C77.5827 94.652 77.8267 94.692 78.048 94.772C78.2693 94.8493 78.4587 94.96 78.616 95.104C78.7733 95.248 78.896 95.4213 78.984 95.624C79.072 95.8267 79.116 96.052 79.116 96.3C79.116 96.5133 79.084 96.7107 79.02 96.892C78.9587 97.0733 78.8747 97.2467 78.768 97.412C78.664 97.5773 78.5413 97.7373 78.4 97.892C78.2587 98.0467 78.1107 98.204 77.956 98.364L76.652 99.696C76.7773 99.6587 76.9013 99.6307 77.024 99.612C77.1493 99.5907 77.268 99.58 77.38 99.58H78.864Z" fill="#1D1D1D"/>
<rect x="82.5" y="92" width="11" height="11" fill="#2F1C04"/>
<rect x="82.5" y="92" width="11" height="11" stroke="#2F1C04"/>
<path d="M87.6914 98.18H86.1394V99.828H85.3354V98.18H83.7914V97.448H85.3354V95.808H86.1394V97.448H87.6914V98.18ZM88.372 96.328C88.412 96.0507 88.4893 95.808 88.604 95.6C88.7187 95.3893 88.8613 95.2147 89.032 95.076C89.2053 94.9347 89.4027 94.8293 89.624 94.76C89.848 94.688 90.088 94.652 90.344 94.652C90.6107 94.652 90.8507 94.6907 91.064 94.768C91.28 94.8427 91.464 94.948 91.616 95.084C91.768 95.2173 91.884 95.3747 91.964 95.556C92.0467 95.7373 92.088 95.9333 92.088 96.144C92.088 96.328 92.0667 96.4907 92.024 96.632C91.984 96.7707 91.9253 96.892 91.848 96.996C91.7707 97.1 91.6747 97.188 91.56 97.26C91.4453 97.332 91.316 97.392 91.172 97.44C91.5187 97.5493 91.7773 97.716 91.948 97.94C92.1187 98.164 92.204 98.4453 92.204 98.784C92.204 99.072 92.1507 99.3267 92.044 99.548C91.9373 99.7693 91.7933 99.956 91.612 100.108C91.4307 100.257 91.22 100.371 90.98 100.448C90.7427 100.525 90.4907 100.564 90.224 100.564C89.9333 100.564 89.68 100.531 89.464 100.464C89.248 100.397 89.06 100.299 88.9 100.168C88.74 100.037 88.604 99.8773 88.492 99.688C88.38 99.4987 88.284 99.28 88.204 99.032L88.64 98.852C88.7547 98.804 88.8613 98.792 88.96 98.816C89.0613 98.8373 89.1347 98.8907 89.18 98.976C89.228 99.0693 89.28 99.1613 89.336 99.252C89.3947 99.3427 89.464 99.424 89.544 99.496C89.624 99.5653 89.7173 99.6227 89.824 99.668C89.9333 99.7107 90.0627 99.732 90.212 99.732C90.38 99.732 90.5267 99.7053 90.652 99.652C90.7773 99.596 90.8813 99.524 90.964 99.436C91.0493 99.348 91.112 99.2507 91.152 99.144C91.1947 99.0347 91.216 98.9253 91.216 98.816C91.216 98.6773 91.2013 98.552 91.172 98.44C91.1427 98.3253 91.0813 98.228 90.988 98.148C90.8947 98.068 90.76 98.0053 90.584 97.96C90.4107 97.9147 90.1773 97.892 89.884 97.892V97.188C90.1267 97.1853 90.328 97.1627 90.488 97.12C90.648 97.0773 90.7747 97.0187 90.868 96.944C90.964 96.8667 91.0307 96.7747 91.068 96.668C91.1053 96.5613 91.124 96.444 91.124 96.316C91.124 96.044 91.048 95.8373 90.896 95.696C90.744 95.5547 90.5413 95.484 90.288 95.484C90.1707 95.484 90.0627 95.5013 89.964 95.536C89.8653 95.568 89.776 95.6147 89.696 95.676C89.6187 95.7347 89.5533 95.804 89.5 95.884C89.4467 95.964 89.4067 96.052 89.38 96.148C89.3347 96.2707 89.2747 96.352 89.2 96.392C89.128 96.432 89.0253 96.4413 88.892 96.42L88.372 96.328Z" fill="#FF9000"/>
<rect x="4.5" y="110" width="11" height="11" fill="#2F1C04"/>
<rect x="4.5" y="110" width="11" height="11" stroke="#2F1C04"/>
<path d="M6.7035 115.672H8.7755V116.496H6.7035V115.672ZM9.54388 114.328C9.58388 114.051 9.66121 113.808 9.77588 113.6C9.89054 113.389 10.0332 113.215 10.2039 113.076C10.3772 112.935 10.5745 112.829 10.7959 112.76C11.0199 112.688 11.2599 112.652 11.5159 112.652C11.7825 112.652 12.0225 112.691 12.2359 112.768C12.4519 112.843 12.6359 112.948 12.7879 113.084C12.9399 113.217 13.0559 113.375 13.1359 113.556C13.2185 113.737 13.2599 113.933 13.2599 114.144C13.2599 114.328 13.2385 114.491 13.1959 114.632C13.1559 114.771 13.0972 114.892 13.0199 114.996C12.9425 115.1 12.8465 115.188 12.7319 115.26C12.6172 115.332 12.4879 115.392 12.3439 115.44C12.6905 115.549 12.9492 115.716 13.1199 115.94C13.2905 116.164 13.3759 116.445 13.3759 116.784C13.3759 117.072 13.3225 117.327 13.2159 117.548C13.1092 117.769 12.9652 117.956 12.7839 118.108C12.6025 118.257 12.3919 118.371 12.1519 118.448C11.9145 118.525 11.6625 118.564 11.3959 118.564C11.1052 118.564 10.8519 118.531 10.6359 118.464C10.4199 118.397 10.2319 118.299 10.0719 118.168C9.91188 118.037 9.77588 117.877 9.66388 117.688C9.55188 117.499 9.45588 117.28 9.37588 117.032L9.81188 116.852C9.92654 116.804 10.0332 116.792 10.1319 116.816C10.2332 116.837 10.3065 116.891 10.3519 116.976C10.3999 117.069 10.4519 117.161 10.5079 117.252C10.5665 117.343 10.6359 117.424 10.7159 117.496C10.7959 117.565 10.8892 117.623 10.9959 117.668C11.1052 117.711 11.2345 117.732 11.3839 117.732C11.5519 117.732 11.6985 117.705 11.8239 117.652C11.9492 117.596 12.0532 117.524 12.1359 117.436C12.2212 117.348 12.2839 117.251 12.3239 117.144C12.3665 117.035 12.3879 116.925 12.3879 116.816C12.3879 116.677 12.3732 116.552 12.3439 116.44C12.3145 116.325 12.2532 116.228 12.1599 116.148C12.0665 116.068 11.9319 116.005 11.7559 115.96C11.5825 115.915 11.3492 115.892 11.0559 115.892V115.188C11.2985 115.185 11.4999 115.163 11.6599 115.12C11.8199 115.077 11.9465 115.019 12.0399 114.944C12.1359 114.867 12.2025 114.775 12.2399 114.668C12.2772 114.561 12.2959 114.444 12.2959 114.316C12.2959 114.044 12.2199 113.837 12.0679 113.696C11.9159 113.555 11.7132 113.484 11.4599 113.484C11.3425 113.484 11.2345 113.501 11.1359 113.536C11.0372 113.568 10.9479 113.615 10.8679 113.676C10.7905 113.735 10.7252 113.804 10.6719 113.884C10.6185 113.964 10.5785 114.052 10.5519 114.148C10.5065 114.271 10.4465 114.352 10.3719 114.392C10.2999 114.432 10.1972 114.441 10.0639 114.42L9.54388 114.328Z" fill="#FF9000"/>
<rect x="17.5" y="110" width="11" height="11" fill="#2F1C04"/>
<rect x="17.5" y="110" width="11" height="11" stroke="#2F1C04"/>
<path d="M19.7035 115.672H21.7755V116.496H19.7035V115.672ZM26.0359 117.58C26.1425 117.58 26.2265 117.611 26.2879 117.672C26.3519 117.731 26.3839 117.809 26.3839 117.908V118.5H22.4159V118.172C22.4159 118.105 22.4292 118.036 22.4559 117.964C22.4852 117.889 22.5305 117.823 22.5919 117.764L24.3479 116.004C24.4945 115.855 24.6252 115.712 24.7399 115.576C24.8572 115.44 24.9545 115.305 25.0319 115.172C25.1092 115.039 25.1679 114.904 25.2079 114.768C25.2505 114.629 25.2719 114.484 25.2719 114.332C25.2719 114.193 25.2519 114.072 25.2119 113.968C25.1719 113.861 25.1145 113.772 25.0399 113.7C24.9679 113.628 24.8799 113.575 24.7759 113.54C24.6745 113.503 24.5599 113.484 24.4319 113.484C24.3145 113.484 24.2052 113.501 24.1039 113.536C24.0052 113.568 23.9172 113.615 23.8399 113.676C23.7625 113.735 23.6972 113.804 23.6439 113.884C23.5905 113.964 23.5505 114.052 23.5239 114.148C23.4785 114.271 23.4199 114.352 23.3479 114.392C23.2759 114.432 23.1719 114.441 23.0359 114.42L22.5159 114.328C22.5559 114.051 22.6332 113.808 22.7479 113.6C22.8625 113.389 23.0052 113.215 23.1759 113.076C23.3492 112.935 23.5465 112.829 23.7679 112.76C23.9919 112.688 24.2319 112.652 24.4879 112.652C24.7545 112.652 24.9985 112.692 25.2199 112.772C25.4412 112.849 25.6305 112.96 25.7879 113.104C25.9452 113.248 26.0679 113.421 26.1559 113.624C26.2439 113.827 26.2879 114.052 26.2879 114.3C26.2879 114.513 26.2559 114.711 26.1919 114.892C26.1305 115.073 26.0465 115.247 25.9399 115.412C25.8359 115.577 25.7132 115.737 25.5719 115.892C25.4305 116.047 25.2825 116.204 25.1279 116.364L23.8239 117.696C23.9492 117.659 24.0732 117.631 24.1959 117.612C24.3212 117.591 24.4399 117.58 24.5519 117.58H26.0359Z" fill="#FF9000"/>
<rect x="30.5" y="110" width="11" height="11" fill="#2F1C04"/>
<rect x="30.5" y="110" width="11" height="11" stroke="#2F1C04"/>
<path d="M32.7035 115.672H34.7755V116.496H32.7035V115.672ZM39.2519 117.76V118.5H36.0519V117.76H37.2239V114.388C37.2239 114.255 37.2279 114.117 37.2359 113.976L36.4039 114.672C36.3559 114.709 36.3079 114.733 36.2599 114.744C36.2145 114.752 36.1705 114.752 36.1279 114.744C36.0879 114.736 36.0519 114.723 36.0199 114.704C35.9879 114.683 35.9639 114.66 35.9479 114.636L35.6359 114.208L37.3999 112.708H38.2119V117.76H39.2519Z" fill="#FF9000"/>
<rect x="43.5" y="110" width="11" height="11" fill="#2F1C04"/>
<rect x="43.5" y="110" width="11" height="11" stroke="#2F1C04"/>
<path d="M51.1197 115.608C51.1197 116.112 51.065 116.551 50.9557 116.924C50.849 117.295 50.6997 117.601 50.5077 117.844C50.3184 118.087 50.093 118.268 49.8317 118.388C49.573 118.505 49.293 118.564 48.9917 118.564C48.6904 118.564 48.4104 118.505 48.1517 118.388C47.8957 118.268 47.673 118.087 47.4837 117.844C47.2944 117.601 47.1464 117.295 47.0397 116.924C46.933 116.551 46.8797 116.112 46.8797 115.608C46.8797 115.101 46.933 114.663 47.0397 114.292C47.1464 113.921 47.2944 113.615 47.4837 113.372C47.673 113.129 47.8957 112.949 48.1517 112.832C48.4104 112.712 48.6904 112.652 48.9917 112.652C49.293 112.652 49.573 112.712 49.8317 112.832C50.093 112.949 50.3184 113.129 50.5077 113.372C50.6997 113.615 50.849 113.921 50.9557 114.292C51.065 114.663 51.1197 115.101 51.1197 115.608ZM50.0997 115.608C50.0997 115.189 50.069 114.843 50.0077 114.568C49.9464 114.293 49.8637 114.075 49.7597 113.912C49.6584 113.749 49.541 113.636 49.4077 113.572C49.2744 113.505 49.1357 113.472 48.9917 113.472C48.8504 113.472 48.713 113.505 48.5797 113.572C48.449 113.636 48.333 113.749 48.2317 113.912C48.1304 114.075 48.049 114.293 47.9877 114.568C47.929 114.843 47.8997 115.189 47.8997 115.608C47.8997 116.027 47.929 116.373 47.9877 116.648C48.049 116.923 48.1304 117.141 48.2317 117.304C48.333 117.467 48.449 117.581 48.5797 117.648C48.713 117.712 48.8504 117.744 48.9917 117.744C49.1357 117.744 49.2744 117.712 49.4077 117.648C49.541 117.581 49.6584 117.467 49.7597 117.304C49.8637 117.141 49.9464 116.923 50.0077 116.648C50.069 116.373 50.0997 116.027 50.0997 115.608Z" fill="#FF9000"/>
<rect x="56.5" y="110" width="11" height="11" fill="#2F1C04"/>
<rect x="56.5" y="110" width="11" height="11" stroke="#2F1C04"/>
<path d="M61.6914 116.18H60.1394V117.828H59.3354V116.18H57.7914V115.448H59.3354V113.808H60.1394V115.448H61.6914V116.18ZM66.08 117.76V118.5H62.88V117.76H64.052V114.388C64.052 114.255 64.056 114.117 64.064 113.976L63.232 114.672C63.184 114.709 63.136 114.733 63.088 114.744C63.0427 114.752 62.9987 114.752 62.956 114.744C62.916 114.736 62.88 114.723 62.848 114.704C62.816 114.683 62.792 114.66 62.776 114.636L62.464 114.208L64.228 112.708H65.04V117.76H66.08Z" fill="#FF9000"/>
<rect x="69.5" y="110" width="11" height="11" fill="#2F1C04"/>
<rect x="69.5" y="110" width="11" height="11" stroke="#2F1C04"/>
<path d="M74.6914 116.18H73.1394V117.828H72.3354V116.18H70.7914V115.448H72.3354V113.808H73.1394V115.448H74.6914V116.18ZM78.864 117.58C78.9707 117.58 79.0547 117.611 79.116 117.672C79.18 117.731 79.212 117.809 79.212 117.908V118.5H75.244V118.172C75.244 118.105 75.2573 118.036 75.284 117.964C75.3133 117.889 75.3587 117.823 75.42 117.764L77.176 116.004C77.3227 115.855 77.4533 115.712 77.568 115.576C77.6853 115.44 77.7827 115.305 77.86 115.172C77.9373 115.039 77.996 114.904 78.036 114.768C78.0787 114.629 78.1 114.484 78.1 114.332C78.1 114.193 78.08 114.072 78.04 113.968C78 113.861 77.9427 113.772 77.868 113.7C77.796 113.628 77.708 113.575 77.604 113.54C77.5027 113.503 77.388 113.484 77.26 113.484C77.1427 113.484 77.0333 113.501 76.932 113.536C76.8333 113.568 76.7453 113.615 76.668 113.676C76.5907 113.735 76.5253 113.804 76.472 113.884C76.4187 113.964 76.3787 114.052 76.352 114.148C76.3067 114.271 76.248 114.352 76.176 114.392C76.104 114.432 76 114.441 75.864 114.42L75.344 114.328C75.384 114.051 75.4613 113.808 75.576 113.6C75.6907 113.389 75.8333 113.215 76.004 113.076C76.1773 112.935 76.3747 112.829 76.596 112.76C76.82 112.688 77.06 112.652 77.316 112.652C77.5827 112.652 77.8267 112.692 78.048 112.772C78.2693 112.849 78.4587 112.96 78.616 113.104C78.7733 113.248 78.896 113.421 78.984 113.624C79.072 113.827 79.116 114.052 79.116 114.3C79.116 114.513 79.084 114.711 79.02 114.892C78.9587 115.073 78.8747 115.247 78.768 115.412C78.664 115.577 78.5413 115.737 78.4 115.892C78.2587 116.047 78.1107 116.204 77.956 116.364L76.652 117.696C76.7773 117.659 76.9013 117.631 77.024 117.612C77.1493 117.591 77.268 117.58 77.38 117.58H78.864Z" fill="#FF9000"/>
<rect x="82.5" y="110" width="11" height="11" fill="#FF9A10"/>
<rect x="82.5" y="110" width="11" height="11" stroke="#FF9A10"/>
<path d="M87.6914 116.18H86.1394V117.828H85.3354V116.18H83.7914V115.448H85.3354V113.808H86.1394V115.448H87.6914V116.18ZM88.372 114.328C88.412 114.051 88.4893 113.808 88.604 113.6C88.7187 113.389 88.8613 113.215 89.032 113.076C89.2053 112.935 89.4027 112.829 89.624 112.76C89.848 112.688 90.088 112.652 90.344 112.652C90.6107 112.652 90.8507 112.691 91.064 112.768C91.28 112.843 91.464 112.948 91.616 113.084C91.768 113.217 91.884 113.375 91.964 113.556C92.0467 113.737 92.088 113.933 92.088 114.144C92.088 114.328 92.0667 114.491 92.024 114.632C91.984 114.771 91.9253 114.892 91.848 114.996C91.7707 115.1 91.6747 115.188 91.56 115.26C91.4453 115.332 91.316 115.392 91.172 115.44C91.5187 115.549 91.7773 115.716 91.948 115.94C92.1187 116.164 92.204 116.445 92.204 116.784C92.204 117.072 92.1507 117.327 92.044 117.548C91.9373 117.769 91.7933 117.956 91.612 118.108C91.4307 118.257 91.22 118.371 90.98 118.448C90.7427 118.525 90.4907 118.564 90.224 118.564C89.9333 118.564 89.68 118.531 89.464 118.464C89.248 118.397 89.06 118.299 88.9 118.168C88.74 118.037 88.604 117.877 88.492 117.688C88.38 117.499 88.284 117.28 88.204 117.032L88.64 116.852C88.7547 116.804 88.8613 116.792 88.96 116.816C89.0613 116.837 89.1347 116.891 89.18 116.976C89.228 117.069 89.28 117.161 89.336 117.252C89.3947 117.343 89.464 117.424 89.544 117.496C89.624 117.565 89.7173 117.623 89.824 117.668C89.9333 117.711 90.0627 117.732 90.212 117.732C90.38 117.732 90.5267 117.705 90.652 117.652C90.7773 117.596 90.8813 117.524 90.964 117.436C91.0493 117.348 91.112 117.251 91.152 117.144C91.1947 117.035 91.216 116.925 91.216 116.816C91.216 116.677 91.2013 116.552 91.172 116.44C91.1427 116.325 91.0813 116.228 90.988 116.148C90.8947 116.068 90.76 116.005 90.584 115.96C90.4107 115.915 90.1773 115.892 89.884 115.892V115.188C90.1267 115.185 90.328 115.163 90.488 115.12C90.648 115.077 90.7747 115.019 90.868 114.944C90.964 114.867 91.0307 114.775 91.068 114.668C91.1053 114.561 91.124 114.444 91.124 114.316C91.124 114.044 91.048 113.837 90.896 113.696C90.744 113.555 90.5413 113.484 90.288 113.484C90.1707 113.484 90.0627 113.501 89.964 113.536C89.8653 113.568 89.776 113.615 89.696 113.676C89.6187 113.735 89.5533 113.804 89.5 113.884C89.4467 113.964 89.4067 114.052 89.38 114.148C89.3347 114.271 89.2747 114.352 89.2 114.392C89.128 114.432 89.0253 114.441 88.892 114.42L88.372 114.328Z" fill="#1D1D1D"/>
</svg>
