<svg width="16" height="24" viewBox="0 0 16 24" fill="none" xmlns="http://www.w3.org/2000/svg">
<path d="M15.5 3.5C15.5 1.84315 14.1569 0.5 12.5 0.5H0.5V11.5H12.5C14.1569 11.5 15.5 10.1569 15.5 8.5V3.5Z" fill="#E3E3E3"/>
<path d="M0.5 0.5H0V0H0.5V0.5ZM0.5 11.5V12H0V11.5H0.5ZM12.5 1H0.5V0H12.5V1ZM1 0.5V11.5H0V0.5H1ZM0.5 11H12.5V12H0.5V11ZM15 8.5V3.5H16V8.5H15ZM12.5 11C13.8807 11 15 9.88071 15 8.5H16C16 10.433 14.433 12 12.5 12V11ZM12.5 0C14.433 0 16 1.567 16 3.5H15C15 2.11929 13.8807 1 12.5 1V0Z" fill="#979797"/>
<path d="M7.75003 4C8.9771 4 10.0631 4.55697 10.7472 5.41454L12 4.23525V8H7.99975L9.36069 6.71927C8.99908 5.68702 7.96783 4.94116 6.75011 4.94116C5.2305 4.94116 4 6.10018 4 7.52948C3.99998 5.57998 5.67883 4 7.75003 4Z" fill="black"/>
<path d="M15.5 15.5C15.5 13.8431 14.1569 12.5 12.5 12.5H0.5V23.5H12.5C14.1569 23.5 15.5 22.1569 15.5 20.5V15.5Z" fill="#E3E3E3"/>
<path d="M0.5 12.5H0V12H0.5V12.5ZM0.5 23.5V24H0V23.5H0.5ZM12.5 13H0.5V12H12.5V13ZM1 12.5V23.5H0V12.5H1ZM0.5 23H12.5V24H0.5V23ZM15 20.5V15.5H16V20.5H15ZM12.5 23C13.8807 23 15 21.8807 15 20.5H16C16 22.433 14.433 24 12.5 24V23ZM12.5 12C14.433 12 16 13.567 16 15.5H15C15 14.1193 13.8807 13 12.5 13V12Z" fill="#979797"/>
<path d="M7.75003 16C8.9771 16 10.0631 16.557 10.7472 17.4145L12 16.2353V20H7.99975L9.36069 18.7193C8.99908 17.687 7.96783 16.9412 6.75011 16.9412C5.2305 16.9412 4 18.1002 4 19.5295C3.99998 17.58 5.67883 16 7.75003 16Z" fill="black"/>
</svg>
