<?xml version="1.0" encoding="utf-8"?>
<svg width="13px" height="26px" viewBox="0 0 13 26" version="1.1" xmlns:xlink="http://www.w3.org/1999/xlink" xmlns="http://www.w3.org/2000/svg">
  <defs>
    <rect width="13" height="26" id="artboard_1" />
    <clipPath id="clip_1">
      <use xlink:href="#artboard_1" clip-rule="evenodd" />
    </clipPath>
  </defs>
  <g id="bmp00187" clip-path="url(#clip_1)">
    <g id="Group" transform="translate(0.9909401 0.99995923)">
      <path d="M8.24636 7.3919L7.39219 8.24608L5.89707 6.75096L6.75125 5.89679L8.24636 7.3919Z" id="Shape" fill="#9AAAB4" fill-rule="evenodd" stroke="none" />
      <path d="M10.4498 8.74143L8.67405 6.96572C8.43816 6.72982 8.05577 6.72982 7.81988 6.96572L6.9657 7.81989C6.7298 8.05579 6.7298 8.43818 6.9657 8.67407L8.74141 10.4498C9.2132 10.9219 9.97857 10.9219 10.4504 10.4498C10.9215 9.97829 10.9212 9.21322 10.4498 8.74143L10.4498 8.74143Z" id="Shape" fill="#66757F" fill-rule="evenodd" stroke="none" />
      <path d="M0 4.07758C0 1.8256 1.82559 0 4.07757 0C6.32955 0 8.15514 1.8256 8.15514 4.07758C8.15514 6.32957 6.32955 8.15516 4.07757 8.15516C1.82559 8.15516 0 6.32957 0 4.07758Z" id="Circle" fill="#8899A6" fill-rule="evenodd" stroke="none" />
      <path d="M1.20817 4.07758C1.20817 2.49285 2.49284 1.20817 4.07757 1.20817C5.6623 1.20817 6.94697 2.49285 6.94697 4.07758C6.94697 5.66231 5.6623 6.94699 4.07757 6.94699C2.49284 6.94699 1.20817 5.66231 1.20817 4.07758Z" id="Circle" fill="#BBDDF5" fill-rule="evenodd" stroke="none" />
    </g>
    <g id="Group" transform="translate(0.99644005 13.999959)">
      <path d="M8.24636 7.3919L7.39219 8.24608L5.89707 6.75096L6.75125 5.89679L8.24636 7.3919Z" id="Shape" fill="#9AAAB4" fill-rule="evenodd" stroke="none" />
      <path d="M10.4498 8.74143L8.67405 6.96571C8.43816 6.72982 8.05577 6.72982 7.81988 6.96571L6.9657 7.81989C6.7298 8.05579 6.7298 8.43817 6.9657 8.67407L8.74141 10.4498C9.2132 10.9219 9.97857 10.9219 10.4504 10.4498C10.9215 9.97829 10.9212 9.21322 10.4498 8.74143L10.4498 8.74143Z" id="Shape" fill="#66757F" fill-rule="evenodd" stroke="none" />
      <path d="M0 4.07758C0 1.8256 1.82559 0 4.07757 0C6.32955 0 8.15514 1.8256 8.15514 4.07758C8.15514 6.32957 6.32955 8.15516 4.07757 8.15516C1.82559 8.15516 0 6.32957 0 4.07758Z" id="Circle" fill="#8899A6" fill-rule="evenodd" stroke="none" />
      <path d="M1.20817 4.07758C1.20817 2.49285 2.49284 1.20817 4.07757 1.20817C5.6623 1.20817 6.94697 2.49285 6.94697 4.07758C6.94697 5.66231 5.6623 6.94699 4.07757 6.94699C2.49284 6.94699 1.20817 5.66231 1.20817 4.07758Z" id="Circle" fill="#FF9000" fill-rule="evenodd" stroke="none" />
    </g>
  </g>
</svg>