<svg width="75" height="144" viewBox="0 0 75 144" fill="none" xmlns="http://www.w3.org/2000/svg">
<path fill-rule="evenodd" clip-rule="evenodd" d="M58.0671 116H56.0671V118.999L53.5 119.001L57.0671 123.281L60.6346 119H58.0671V116Z" fill="#2E86FE" stroke="#123462"/>
<path fill-rule="evenodd" clip-rule="evenodd" d="M58.0671 132H56.0671V134.999L53.5 135.001L57.0671 139.281L60.6346 135H58.0671V132Z" fill="#113363" stroke="#FF9000"/>
<path fill-rule="evenodd" clip-rule="evenodd" d="M1.5 0.5H73.5V15.5H1.5V0.5Z" fill="#EEEEEE" stroke="#2E86FE"/>
<path fill-rule="evenodd" clip-rule="evenodd" d="M1.5 16.5H73.5V31.5H1.5V16.5Z" fill="#EEEEEE" stroke="#2E86FE"/>
<path fill-rule="evenodd" clip-rule="evenodd" d="M1 33H74V47H1V33Z" fill="#2E86FE"/>
<path fill-rule="evenodd" clip-rule="evenodd" d="M1 49H74V63H1V49Z" fill="#2E86FE"/>
<path fill-rule="evenodd" clip-rule="evenodd" d="M1 81H74V95H1V81Z" fill="#ADFF6B"/>
<path fill-rule="evenodd" clip-rule="evenodd" d="M2.5 98.5H72.5V109.5H2.5V98.5Z" stroke="white" stroke-opacity="0.278431"/>
<path fill-rule="evenodd" clip-rule="evenodd" d="M1.5 97.5H73.5V110.5H1.5V97.5Z" stroke="white" stroke-opacity="0.501961"/>
<path fill-rule="evenodd" clip-rule="evenodd" d="M74.5 96.5H0.5V111.5H74.5V96.5Z" stroke="white" stroke-opacity="0.278431"/>
</svg>
