<?xml version="1.0" encoding="utf-8"?>
<svg width="11" height="22" viewBox="0 0 11 22" fill="none" xmlns="http://www.w3.org/2000/svg">
  <path fill-rule="evenodd" clip-rule="evenodd" d="M0.5 3.5C0.5 1.84315 1.84315 0.5 3.5 0.5H7.5C9.15685 0.5 10.5 1.84315 10.5 3.5V7.5C10.5 9.15685 9.15685 10.5 7.5 10.5H3.5C1.84315 10.5 0.5 9.15685 0.5 7.5V3.5Z" fill="#E3E3E3" stroke="#979797"/>
  <path fill-rule="evenodd" clip-rule="evenodd" d="M5 10L5 1L6 1L6 10L5 10Z" fill="#B4B4B4"/>
  <path fill-rule="evenodd" clip-rule="evenodd" d="M1 5H10V6H1V5Z" fill="#B4B4B4"/>
  <path fill-rule="evenodd" clip-rule="evenodd" d="M0.5 14.5C0.5 12.8431 1.84315 11.5 3.5 11.5H7.5C9.15685 11.5 10.5 12.8431 10.5 14.5V18.5C10.5 20.1569 9.15685 21.5 7.5 21.5H3.5C1.84315 21.5 0.5 20.1569 0.5 18.5V14.5Z" fill="#E3E3E3" stroke="#979797"/>
  <path fill-rule="evenodd" clip-rule="evenodd" d="M2 15C2 13.8954 2.89543 13 4 13H7C8.10457 13 9 13.8954 9 15V18C9 19.1046 8.10457 20 7 20H4C2.89543 20 2 19.1046 2 18V15Z" fill="#FF9000"/>
  <path fill-rule="evenodd" clip-rule="evenodd" d="M5 21L5 12L6 12L6 21L5 21Z" fill="#B4B4B4"/>
  <path fill-rule="evenodd" clip-rule="evenodd" d="M1 16H10V17H1V16Z" fill="#B4B4B4"/>
  <path style="stroke: rgb(0, 0, 0);" d="M 1.353 3.785 L 4.251 3.829 L 6.347 1.918 L 7.354 3.225 L 9.019 8.624"/>
  <path style="stroke: rgb(0, 0, 0);" d="M 1.906 15.465 L 4.804 15.509 L 6.9 13.598 L 7.907 14.905 L 9.572 20.304"/>
</svg>