<svg width="48" height="281" viewBox="0 0 48 281" fill="none" xmlns="http://www.w3.org/2000/svg">
<path d="M9 65L9 10L15 10L9 65Z" fill="#B6B6BA"/>
<path d="M1 10L1 9L15 9L15 10L1 10Z" fill="#F5F5F6"/>
<path d="M1 66L1 65L15 65L15 66L1 66Z" fill="#F5F5F6"/>
<path d="M8 5L8 70" stroke="#F5F5F6" stroke-width="2"/>
<path d="M9 115.225L9 85L15 85L9 115.225Z" fill="#B6B6BA"/>
<path d="M7 109.775L6.99999 140L1 140L7 109.775Z" fill="#B6B6BA"/>
<path d="M12 112L12 113L4 113L4 112L12 112Z" fill="#F5F5F6"/>
<path d="M1 85L1 84L15 84L15 85L1 85Z" fill="#F5F5F6"/>
<path d="M1 141L1 140L15 140L15 141L1 141Z" fill="#F5F5F6"/>
<path d="M8 80L8 145" stroke="#F5F5F6" stroke-width="2"/>
<path d="M9 198L9 160L15 160L9 198Z" fill="#98999B"/>
<path d="M1 160L1 159L15 159L15 160L1 160Z" fill="black"/>
<path d="M1 199L1 198L15 198L15 199L1 199Z" fill="black"/>
<path d="M8 155L8 203" stroke="black" stroke-width="2"/>
<path d="M9 273L9 235L15 235L9 273Z" fill="#98999B"/>
<path d="M1 235L1 234L15 234L15 235L1 235Z" fill="black"/>
<path d="M1 274L1 273L15 273L15 274L1 274Z" fill="black"/>
<path d="M8 230L8 278" stroke="black" stroke-width="2"/>
<path d="M25 65L25 10L31 10L25 65Z" fill="#606986"/>
<path d="M17 10L17 9L31 9L31 10L17 10Z" fill="#9DAADD"/>
<path d="M17 66L17 65L31 65L31 66L17 66Z" fill="#9DAADD"/>
<path d="M24 5L24 70" stroke="#9DAADD" stroke-width="2"/>
<path d="M25 115.225L25 85L31 85L25 115.225Z" fill="#606986"/>
<path d="M23 109.775L23 140L17 140L23 109.775Z" fill="#606986"/>
<path d="M28 112L28 113L20 113L20 112L28 112Z" fill="#9DAADD"/>
<path d="M17 85L17 84L31 84L31 85L17 85Z" fill="#9DAADD"/>
<path d="M17 141L17 140L31 140L31 141L17 141Z" fill="#9DAADD"/>
<path d="M24 80L24 145" stroke="#9DAADD" stroke-width="2"/>
<path d="M25 198L25 160L31 160L25 198Z" fill="#8795CA"/>
<path d="M17 160L17 159L31 159L31 160L17 160Z" fill="#5E72BA"/>
<path d="M17 199L17 198L31 198L31 199L17 199Z" fill="#5E72BA"/>
<path d="M24 155L24 203" stroke="#5E72BA" stroke-width="2"/>
<path d="M25 273L25 235L31 235L25 273Z" fill="#8795CA"/>
<path d="M17 235L17 234L31 234L31 235L17 235Z" fill="#5E72BA"/>
<path d="M17 274L17 273L31 273L31 274L17 274Z" fill="#5E72BA"/>
<path d="M24 230L24 278" stroke="#5E72BA" stroke-width="2"/>
<path d="M41 65L41 10L47 10L41 65Z" fill="#2E86FE"/>
<path d="M33 10L33 9L47 9L47 10L33 10Z" fill="#74AEFE"/>
<path d="M33 66L33 65L47 65L47 66L33 66Z" fill="#74AEFE"/>
<path d="M40 5L40 70" stroke="#74AEFE" stroke-width="2"/>
<path d="M41 115.225L41 85L47 85L41 115.225Z" fill="#2E86FE"/>
<path d="M39 109.775L39 140L33 140L39 109.775Z" fill="#2E86FE"/>
<path d="M44 112L44 113L36 113L36 112L44 112Z" fill="#74AEFE"/>
<path d="M33 85L33 84L47 84L47 85L33 85Z" fill="#74AEFE"/>
<path d="M33 141L33 140L47 140L47 141L33 141Z" fill="#74AEFE"/>
<path d="M40 80L40 145" stroke="#74AEFE" stroke-width="2"/>
<path d="M41 198L41 160L47 160L41 198Z" fill="#3C8DFC"/>
<path d="M33 160L33 159L47 159L47 160L33 160Z" fill="#1437B8"/>
<path d="M33 199L33 198L47 198L47 199L33 199Z" fill="#1437B8"/>
<path d="M40 155L40 203" stroke="#1437B8" stroke-width="2"/>
<path d="M41 273L41 235L47 235L41 273Z" fill="#3C8DFC"/>
<path d="M33 235L33 234L47 234L47 235L33 235Z" fill="#1437B8"/>
<path d="M33 274L33 273L47 273L47 274L33 274Z" fill="#1437B8"/>
<path d="M40 230L40 278" stroke="#1437B8" stroke-width="2"/>
</svg>
