<svg width="399" height="84" viewBox="0 0 399 84" fill="none" xmlns="http://www.w3.org/2000/svg">
<path d="M144 -8.74228e-08L143 0L143 14L144 14L144 -8.74228e-08Z" fill="#2B3E80"/>
<path d="M256 -8.74228e-08L255 0L255 14L256 14L256 -8.74228e-08Z" fill="#2B3E80"/>
<path d="M139 7L260 7" stroke="#2B3E80" stroke-width="2"/>
<path d="M144 6H255V0L144 6Z" fill="#7B8ECE"/>
<path d="M144 14H143V28H144V14Z" fill="#2B3E80"/>
<path d="M256 14H255V28H256V14Z" fill="#2B3E80"/>
<path d="M139 21L260 21" stroke="#2B3E80" stroke-width="2"/>
<path d="M199 20L255 20L255 14L199 20Z" fill="#7B8ECE"/>
<path d="M200 22L144 22L144 28L200 22Z" fill="#7B8ECE"/>
<path d="M200 17H199V25H200V17Z" fill="#2B3E80"/>
<path d="M139 35L260 35" stroke="#2B3E80" stroke-width="2"/>
<path d="M199 34L255 34L255 30L199 34Z" fill="#7B8ECE"/>
<path d="M200 36L144 36L144 40L200 36Z" fill="#7B8ECE"/>
<path d="M144 36H143V40H144V36Z" fill="#2B3E80"/>
<path d="M152 36H151V39.4991L152 39.4349V36Z" fill="#2B3E80"/>
<path d="M160 36H159V38.9274L160 38.8574V36Z" fill="#2B3E80"/>
<path d="M168 36H167V38.3594L168 38.2852V36Z" fill="#2B3E80"/>
<path d="M176 36H175V37.7891L176 37.7148V36Z" fill="#2B3E80"/>
<path d="M184 36H183V37.2148L184 37.1445V36Z" fill="#2B3E80"/>
<path d="M192 36H191V36.6484L192 36.5703V36Z" fill="#2B3E80"/>
<path d="M255 34H256V30L255 30V34Z" fill="#2B3E80"/>
<path d="M247 34H248V30.4954L247 30.5677V34Z" fill="#2B3E80"/>
<path d="M239 34H240V31.0677L239 31.1401V34Z" fill="#2B3E80"/>
<path d="M231 34L232 34V31.6467L231 31.7059V34Z" fill="#2B3E80"/>
<path d="M223 34L224 34V32.2125L223 32.2783V34Z" fill="#2B3E80"/>
<path d="M215 34L216 34V32.7783L215 32.8506V34Z" fill="#2B3E80"/>
<path d="M207 34L208 34V33.3507L207 33.423V34Z" fill="#2B3E80"/>
<path d="M200 31H199V39H200V31Z" fill="#2B3E80"/>
<path d="M277 -8.74228e-08L276 0L276 14L277 14L277 -8.74228e-08Z" fill="#1437B8"/>
<path d="M389 -8.74228e-08L388 0L388 14L389 14L389 -8.74228e-08Z" fill="#1437B8"/>
<path d="M272 7L393 7" stroke="#1437B8" stroke-width="2"/>
<path d="M277 6H388V0L277 6Z" fill="#3C8DFC"/>
<path d="M277 14H276V28H277V14Z" fill="#1437B8"/>
<path d="M389 14H388V28H389V14Z" fill="#1437B8"/>
<path d="M272 21L393 21" stroke="#1437B8" stroke-width="2"/>
<path d="M332 20L388 20L388 14L332 20Z" fill="#3C8DFC"/>
<path d="M333 22L277 22L277 28L333 22Z" fill="#3C8DFC"/>
<path d="M333 17H332V25H333V17Z" fill="#1437B8"/>
<path d="M272 35L393 35" stroke="#1437B8" stroke-width="2"/>
<path d="M332 34L388 34L388 30L332 34Z" fill="#3C8DFC"/>
<path d="M333 36L277 36L277 40L333 36Z" fill="#3C8DFC"/>
<path d="M277 36H276V40H277V36Z" fill="#1437B8"/>
<path d="M285 36H284V39.4991L285 39.4349V36Z" fill="#1437B8"/>
<path d="M293 36H292V38.9274L293 38.8574V36Z" fill="#1437B8"/>
<path d="M301 36H300V38.3594L301 38.2852V36Z" fill="#1437B8"/>
<path d="M309 36H308V37.7891L309 37.7148V36Z" fill="#1437B8"/>
<path d="M317 36H316V37.2148L317 37.1445V36Z" fill="#1437B8"/>
<path d="M325 36H324V36.6484L325 36.5703V36Z" fill="#1437B8"/>
<path d="M388 34H389V30L388 30V34Z" fill="#1437B8"/>
<path d="M380 34H381V30.4954L380 30.5677V34Z" fill="#1437B8"/>
<path d="M372 34H373V31.0677L372 31.1401V34Z" fill="#1437B8"/>
<path d="M364 34L365 34V31.6467L364 31.7059V34Z" fill="#1437B8"/>
<path d="M356 34L357 34V32.2125L356 32.2783V34Z" fill="#1437B8"/>
<path d="M348 34L349 34V32.7783L348 32.8506V34Z" fill="#1437B8"/>
<path d="M340 34L341 34V33.3507L340 33.423V34Z" fill="#1437B8"/>
<path d="M333 31H332V39H333V31Z" fill="#1437B8"/>
<path d="M11 42L10 42L10 56L11 56L11 42Z" fill="#F5F5F6"/>
<path d="M123 42L122 42L122 56L123 56L123 42Z" fill="#F5F5F6"/>
<path d="M6 49L127 49" stroke="#F5F5F6" stroke-width="2"/>
<path d="M11 48H122V42L11 48Z" fill="#B6B6BA"/>
<path d="M11 56H10V70H11V56Z" fill="#F5F5F6"/>
<path d="M123 56H122V70H123V56Z" fill="#F5F5F6"/>
<path d="M6 63L127 63" stroke="#F5F5F6" stroke-width="2"/>
<path d="M66 62L122 62L122 56L66 62Z" fill="#B6B6BA"/>
<path d="M67 64L11 64L11 70L67 64Z" fill="#B6B6BA"/>
<path d="M67 59H66V67H67V59Z" fill="#F5F5F6"/>
<path d="M6 77L127 77" stroke="#F5F5F6" stroke-width="2"/>
<path d="M66 76L122 76L122 72L66 76Z" fill="#B6B6BA"/>
<path d="M67 78L11 78L11 82L67 78Z" fill="#B6B6BA"/>
<path d="M11 78H10V82H11V78Z" fill="#F5F5F6"/>
<path d="M19 78H18V81.4991L19 81.4349V78Z" fill="#F5F5F6"/>
<path d="M27 78H26V80.9274L27 80.8574V78Z" fill="#F5F5F6"/>
<path d="M35 78H34V80.3594L35 80.2852V78Z" fill="#F5F5F6"/>
<path d="M43 78H42V79.7891L43 79.7148V78Z" fill="#F5F5F6"/>
<path d="M51 78H50V79.2148L51 79.1445V78Z" fill="#F5F5F6"/>
<path d="M59 78H58V78.6484L59 78.5703V78Z" fill="#F5F5F6"/>
<path d="M122 76H123V72L122 72V76Z" fill="#F5F5F6"/>
<path d="M114 76H115V72.4954L114 72.5677V76Z" fill="#F5F5F6"/>
<path d="M106 76H107V73.0677L106 73.1401V76Z" fill="#F5F5F6"/>
<path d="M98 76L99 76V73.6467L98 73.7059V76Z" fill="#F5F5F6"/>
<path d="M90 76L91 76V74.2125L90 74.2783V76Z" fill="#F5F5F6"/>
<path d="M82 76L83 76V74.7783L82 74.8506V76Z" fill="#F5F5F6"/>
<path d="M74 76L75 76V75.3507L74 75.423V76Z" fill="#F5F5F6"/>
<path d="M67 73H66V81H67V73Z" fill="#F5F5F6"/>
<path d="M144 42L143 42L143 56L144 56L144 42Z" fill="#9DAADD"/>
<path d="M256 42L255 42L255 56L256 56L256 42Z" fill="#9DAADD"/>
<path d="M139 49L260 49" stroke="#9DAADD" stroke-width="2"/>
<path d="M144 48H255V42L144 48Z" fill="#D0D6ED"/>
<path d="M144 56H143V70H144V56Z" fill="#9DAADD"/>
<path d="M256 56H255V70H256V56Z" fill="#9DAADD"/>
<path d="M139 63L260 63" stroke="#9DAADD" stroke-width="2"/>
<path d="M199 62L255 62L255 56L199 62Z" fill="#D0D6ED"/>
<path d="M200 64L144 64L144 70L200 64Z" fill="#D0D6ED"/>
<path d="M200 59H199V67H200V59Z" fill="#9DAADD"/>
<path d="M139 77L260 77" stroke="#9DAADD" stroke-width="2"/>
<path d="M199 76L255 76L255 72L199 76Z" fill="#D0D6ED"/>
<path d="M200 78L144 78L144 82L200 78Z" fill="#D0D6ED"/>
<path d="M144 78H143V82H144V78Z" fill="#9DAADD"/>
<path d="M152 78H151V81.4991L152 81.4349V78Z" fill="#9DAADD"/>
<path d="M160 78H159V80.9274L160 80.8574V78Z" fill="#9DAADD"/>
<path d="M168 78H167V80.3594L168 80.2852V78Z" fill="#9DAADD"/>
<path d="M176 78H175V79.7891L176 79.7148V78Z" fill="#9DAADD"/>
<path d="M184 78H183V79.2148L184 79.1445V78Z" fill="#9DAADD"/>
<path d="M192 78H191V78.6484L192 78.5703V78Z" fill="#9DAADD"/>
<path d="M255 76H256V72L255 72V76Z" fill="#9DAADD"/>
<path d="M247 76H248V72.4954L247 72.5677V76Z" fill="#9DAADD"/>
<path d="M239 76H240V73.0677L239 73.1401V76Z" fill="#9DAADD"/>
<path d="M231 76L232 76V73.6467L231 73.7059V76Z" fill="#9DAADD"/>
<path d="M223 76L224 76V74.2125L223 74.2783V76Z" fill="#9DAADD"/>
<path d="M215 76L216 76V74.7783L215 74.8506V76Z" fill="#9DAADD"/>
<path d="M207 76L208 76V75.3507L207 75.423V76Z" fill="#9DAADD"/>
<path d="M200 73H199V81H200V73Z" fill="#9DAADD"/>
<path d="M277 42L276 42L276 56L277 56L277 42Z" fill="#74AEFE"/>
<path d="M389 42L388 42L388 56L389 56L389 42Z" fill="#74AEFE"/>
<path d="M272 49L393 49" stroke="#74AEFE" stroke-width="2"/>
<path d="M277 48H388V42L277 48Z" fill="#2E86FE"/>
<path d="M277 56H276V70H277V56Z" fill="#74AEFE"/>
<path d="M389 56H388V70H389V56Z" fill="#74AEFE"/>
<path d="M272 63L393 63" stroke="#74AEFE" stroke-width="2"/>
<path d="M332 62L388 62L388 56L332 62Z" fill="#2E86FE"/>
<path d="M333 64L277 64L277 70L333 64Z" fill="#2E86FE"/>
<path d="M333 59H332V67H333V59Z" fill="#74AEFE"/>
<path d="M272 77L393 77" stroke="#74AEFE" stroke-width="2"/>
<path d="M332 76L388 76L388 72L332 76Z" fill="#2E86FE"/>
<path d="M333 78L277 78L277 82L333 78Z" fill="#2E86FE"/>
<path d="M277 78H276V82H277V78Z" fill="#74AEFE"/>
<path d="M285 78H284V81.4991L285 81.4349V78Z" fill="#74AEFE"/>
<path d="M293 78H292V80.9274L293 80.8574V78Z" fill="#74AEFE"/>
<path d="M301 78H300V80.3594L301 80.2852V78Z" fill="#74AEFE"/>
<path d="M309 78H308V79.7891L309 79.7148V78Z" fill="#74AEFE"/>
<path d="M317 78H316V79.2148L317 79.1445V78Z" fill="#74AEFE"/>
<path d="M325 78H324V78.6484L325 78.5703V78Z" fill="#74AEFE"/>
<path d="M388 76H389V72L388 72V76Z" fill="#74AEFE"/>
<path d="M380 76H381V72.4954L380 72.5677V76Z" fill="#74AEFE"/>
<path d="M372 76H373V73.0677L372 73.1401V76Z" fill="#74AEFE"/>
<path d="M364 76L365 76V73.6467L364 73.7059V76Z" fill="#74AEFE"/>
<path d="M356 76L357 76V74.2125L356 74.2783V76Z" fill="#74AEFE"/>
<path d="M348 76L349 76V74.7783L348 74.8506V76Z" fill="#74AEFE"/>
<path d="M340 76L341 76V75.3507L340 75.423V76Z" fill="#74AEFE"/>
<path d="M333 73H332V81H333V73Z" fill="#74AEFE"/>
<path d="M11 -8.74228e-08L10 0L10 14L11 14L11 -8.74228e-08Z" fill="black"/>
<path d="M123 -8.74228e-08L122 0L122 14L123 14L123 -8.74228e-08Z" fill="black"/>
<path d="M6 7L127 7" stroke="black" stroke-width="2"/>
<path d="M11 6H122V0L11 6Z" fill="#98999B"/>
<path d="M11 14H10V28H11V14Z" fill="black"/>
<path d="M123 14H122V28H123V14Z" fill="black"/>
<path d="M6 21L127 21" stroke="black" stroke-width="2"/>
<path d="M66 20L122 20L122 14L66 20Z" fill="#98999B"/>
<path d="M67 22L11 22L11 28L67 22Z" fill="#98999B"/>
<path d="M67 17H66V25H67V17Z" fill="black"/>
<path d="M6 35L127 35" stroke="black" stroke-width="2"/>
<path d="M66 34L122 34L122 30L66 34Z" fill="#98999B"/>
<path d="M67 36L11 36L11 40L67 36Z" fill="#98999B"/>
<path d="M11 36H10V40H11V36Z" fill="black"/>
<path d="M19 36H18V39.4991L19 39.4349V36Z" fill="black"/>
<path d="M27 36H26V38.9274L27 38.8574V36Z" fill="black"/>
<path d="M35 36H34V38.3594L35 38.2852V36Z" fill="black"/>
<path d="M43 36H42V37.7891L43 37.7148V36Z" fill="black"/>
<path d="M51 36H50V37.2148L51 37.1445V36Z" fill="black"/>
<path d="M59 36H58V36.6484L59 36.5703V36Z" fill="black"/>
<path d="M122 34H123V30L122 30V34Z" fill="black"/>
<path d="M114 34H115V30.4954L114 30.5677V34Z" fill="black"/>
<path d="M106 34H107V31.0677L106 31.1401V34Z" fill="black"/>
<path d="M98 34L99 34V31.6467L98 31.7059V34Z" fill="black"/>
<path d="M90 34L91 34V32.2125L90 32.2783V34Z" fill="black"/>
<path d="M82 34L83 34V32.7783L82 32.8506V34Z" fill="black"/>
<path d="M74 34L75 34V33.3507L74 33.423V34Z" fill="black"/>
<path d="M67 31H66V39H67V31Z" fill="black"/>
</svg>
