<?xml version="1.0" encoding="utf-8"?>
<svg width="32" height="24" viewBox="0 0 32 24" fill="none" xmlns="http://www.w3.org/2000/svg">
  <path d="M0.559998 3.5C0.559998 1.84315 1.90314 0.5 3.56 0.5H27.56C29.2169 0.5 30.56 1.84315 30.56 3.5V8.5C30.56 10.1569 29.2169 11.5 27.56 11.5H3.56C1.90314 11.5 0.559998 10.1569 0.559998 8.5V3.5Z" fill="#E3E3E3"/>
  <path d="M3.56 1H27.56V0H3.56V1ZM30.06 3.5V8.5H31.06V3.5H30.06ZM27.56 11H3.56V12H27.56V11ZM1.06 8.5V3.5H0.0599976V8.5H1.06ZM3.56 11C2.17929 11 1.06 9.88071 1.06 8.5H0.0599976C0.0599976 10.433 1.627 12 3.56 12V11ZM30.06 8.5C30.06 9.88071 28.9407 11 27.56 11V12C29.493 12 31.06 10.433 31.06 8.5H30.06ZM27.56 1C28.9407 1 30.06 2.11929 30.06 3.5H31.06C31.06 1.567 29.493 0 27.56 0V1ZM3.56 0C1.627 0 0.0599976 1.567 0.0599976 3.5H1.06C1.06 2.11929 2.17929 1 3.56 1V0Z" fill="#979797"/>
  <path d="M0.560059 15.5C0.560059 13.8431 1.9032 12.5 3.56006 12.5H27.5601C29.2169 12.5 30.5601 13.8431 30.5601 15.5V20.5C30.5601 22.1569 29.2169 23.5 27.5601 23.5H3.56006C1.90321 23.5 0.560059 22.1569 0.560059 20.5V15.5Z" fill="#E3E3E3"/>
  <rect x="2.56006" y="14.5" width="26" height="7" rx="1" fill="#FF9300"/>
  <rect x="2.56006" y="14.5" width="26" height="7" rx="1" stroke="#FF9300"/>
  <path d="M3.56006 13H27.5601V12H3.56006V13ZM30.0601 15.5V20.5H31.0601V15.5H30.0601ZM27.5601 23H3.56006V24H27.5601V23ZM1.06006 20.5V15.5H0.0600586V20.5H1.06006ZM3.56006 23C2.17935 23 1.06006 21.8807 1.06006 20.5H0.0600586C0.0600586 22.433 1.62706 24 3.56006 24V23ZM30.0601 20.5C30.0601 21.8807 28.9408 23 27.5601 23V24C29.4931 24 31.0601 22.433 31.0601 20.5H30.0601ZM27.5601 13C28.9408 13 30.0601 14.1193 30.0601 15.5H31.0601C31.0601 13.567 29.4931 12 27.5601 12V13ZM3.56006 12C1.62706 12 0.0600586 13.567 0.0600586 15.5H1.06006C1.06006 14.1193 2.17935 13 3.56006 13V12Z" fill="#979797"/>
  <path style="fill: rgb(216, 216, 216); stroke: rgb(0, 0, 0);" d="M 4.943 5.41 C 6.151 5.41 7.39 5.327 8.593 5.44 C 10.127 5.585 11.63 5.956 13.161 6.103 C 14.932 6.273 16.685 6.161 18.458 6.161 C 19.4 6.161 20.325 6.332 21.272 6.332 C 21.395 6.332 22.057 6.261 22.057 6.507"/>
  <path style="fill: rgb(216, 216, 216); stroke: rgb(0, 0, 0);" d="M 19.825 1.673 C 20.741 2.7 21.651 3.727 22.488 4.822 C 22.729 5.137 22.971 5.448 23.198 5.773 C 23.285 5.898 23.366 6.027 23.462 6.145 C 23.498 6.188 23.594 6.338 23.572 6.342"/>
  <path style="fill: rgb(216, 216, 216); stroke: rgb(0, 0, 0);" d="M 20.205 10.052 C 20.532 9.127 21.561 8.575 22.209 7.901 C 22.523 7.575 22.862 6.937 23.335 6.802"/>
  <path style="fill: rgb(216, 216, 216); stroke: rgb(0, 0, 0);" d="M 6.143 17.388 C 7.351 17.388 8.59 17.305 9.793 17.418 C 11.327 17.563 12.83 17.934 14.361 18.081 C 16.132 18.251 17.885 18.139 19.658 18.139 C 20.6 18.139 21.525 18.31 22.472 18.31 C 22.595 18.31 23.257 18.239 23.257 18.485"/>
  <path style="fill: rgb(216, 216, 216); stroke: rgb(0, 0, 0);" d="M 21.025 13.651 C 21.941 14.678 22.851 15.705 23.688 16.8 C 23.929 17.115 24.171 17.426 24.398 17.751 C 24.485 17.876 24.566 18.005 24.662 18.123 C 24.698 18.166 24.794 18.316 24.772 18.32"/>
  <path style="fill: rgb(216, 216, 216); stroke: rgb(0, 0, 0);" d="M 21.405 22.03 C 21.732 21.105 22.761 20.553 23.409 19.879 C 23.723 19.553 24.062 18.915 24.535 18.78"/>
  <path style="fill: rgb(216, 216, 216); stroke: rgb(0, 0, 0);" d="M 4.943 5.41 C 6.151 5.41 7.39 5.327 8.593 5.44 C 10.127 5.585 11.63 5.956 13.161 6.103 C 14.932 6.273 16.685 6.161 18.458 6.161 C 19.4 6.161 20.325 6.332 21.272 6.332 C 21.395 6.332 22.057 6.261 22.057 6.507" transform="matrix(1, 0, 0, 1, 1.20045, 11.981991)"/>
  <path style="fill: rgb(216, 216, 216); stroke: rgb(0, 0, 0);" d="M 19.825 1.673 C 20.741 2.7 21.651 3.727 22.488 4.822 C 22.729 5.137 22.971 5.448 23.198 5.773 C 23.285 5.898 23.366 6.027 23.462 6.145 C 23.498 6.188 23.594 6.338 23.572 6.342" transform="matrix(1, 0, 0, 1, 1.20045, 11.981991)"/>
  <path style="fill: rgb(216, 216, 216); stroke: rgb(0, 0, 0);" d="M 20.205 10.052 C 20.532 9.127 21.561 8.575 22.209 7.901 C 22.523 7.575 22.862 6.937 23.335 6.802" transform="matrix(1, 0, 0, 1, 1.20045, 11.981991)"/>
</svg>