<svg width="13" height="52" viewBox="0 0 13 52" fill="none" xmlns="http://www.w3.org/2000/svg">
<path fill-rule="evenodd" clip-rule="evenodd" d="M12.2001 4.33504C12.2001 2.59771 10.7767 1.19 9.02193 1.19C7.95642 1.19 7.01697 1.70992 6.44005 2.50574C5.86313 1.70992 4.92276 1.19 3.85817 1.19C2.10349 1.19 0.680054 2.59771 0.680054 4.33504C0.680054 4.58088 0.712258 4.81945 0.765626 5.04891C1.20728 7.76143 4.25567 10.6242 6.44005 11.41C8.62443 10.6242 11.6729 7.76143 12.1136 5.04891C12.1679 4.81945 12.2001 4.58088 12.2001 4.33504Z" stroke="#FF9000"/>
<path fill-rule="evenodd" clip-rule="evenodd" d="M12.1 17.335C12.1 15.5977 10.6766 14.19 8.92184 14.19C7.85633 14.19 6.91688 14.7099 6.33996 15.5057C5.76304 14.7099 4.82267 14.19 3.75808 14.19C2.0034 14.19 0.579956 15.5977 0.579956 17.335C0.579956 17.5809 0.61216 17.8194 0.665528 18.0489C1.10719 20.7614 4.15558 23.6242 6.33996 24.41C8.52434 23.6242 11.5728 20.7614 12.0135 18.0489C12.0678 17.8194 12.1 17.5809 12.1 17.335Z" fill="#FFAAAA" stroke="#FF9000"/>
<path fill-rule="evenodd" clip-rule="evenodd" d="M12.2001 30.335C12.2001 28.5977 10.7767 27.19 9.02193 27.19C7.95642 27.19 7.01697 27.7099 6.44005 28.5057C5.86313 27.7099 4.92276 27.19 3.85817 27.19C2.10349 27.19 0.680054 28.5977 0.680054 30.335C0.680054 30.5809 0.712258 30.8194 0.765626 31.0489C1.20728 33.7614 4.25567 36.6242 6.44005 37.41C8.62443 36.6242 11.6729 33.7614 12.1136 31.0489C12.1679 30.8194 12.2001 30.5809 12.2001 30.335Z" fill="#DD2E44" stroke="#FF3377"/>
<path fill-rule="evenodd" clip-rule="evenodd" d="M12.2001 43.335C12.2001 41.5977 10.7767 40.19 9.02193 40.19C7.95642 40.19 7.01697 40.7099 6.44005 41.5057C5.86313 40.7099 4.92276 40.19 3.85817 40.19C2.10349 40.19 0.680054 41.5977 0.680054 43.335C0.680054 43.5809 0.712258 43.8194 0.765626 44.0489C1.20728 46.7614 4.25567 49.6242 6.44005 50.41C8.62443 49.6242 11.6729 46.7614 12.1136 44.0489C12.1679 43.8194 12.2001 43.5809 12.2001 43.335Z" fill="#DD2E44" stroke="#FF9000"/>
</svg>
