<svg width="16" height="24" viewBox="0 0 16 24" fill="none" xmlns="http://www.w3.org/2000/svg">
<path d="M0.5 3.5C0.5 1.84315 1.84315 0.5 3.5 0.5H15.5V11.5H3.5C1.84315 11.5 0.5 10.1569 0.5 8.5V3.5Z" fill="#E3E3E3"/>
<path d="M15.5 0.5H16V0H15.5V0.5ZM15.5 11.5V12H16V11.5H15.5ZM3.5 1H15.5V0H3.5V1ZM15 0.5V11.5H16V0.5H15ZM15.5 11H3.5V12H15.5V11ZM1 8.5V3.5H0V8.5H1ZM3.5 11C2.11929 11 1 9.88071 1 8.5H0C0 10.433 1.567 12 3.5 12V11ZM3.5 0C1.567 0 0 1.567 0 3.5H1C1 2.11929 2.11929 1 3.5 1V0Z" fill="#979797"/>
<path d="M8.24997 4C7.0229 4 5.93692 4.55697 5.25278 5.41454L4 4.23525V8H8.00025L6.63931 6.71927C7.00092 5.68702 8.03217 4.94116 9.24989 4.94116C10.7695 4.94116 12 6.10018 12 7.52948C12 5.57998 10.3212 4 8.24997 4Z" fill="black"/>
<path d="M0.5 15.5C0.5 13.8431 1.84315 12.5 3.5 12.5H15.5V23.5H3.5C1.84315 23.5 0.5 22.1569 0.5 20.5V15.5Z" fill="#E3E3E3"/>
<path d="M15.5 12.5H16V12H15.5V12.5ZM15.5 23.5V24H16V23.5H15.5ZM3.5 13H15.5V12H3.5V13ZM15 12.5V23.5H16V12.5H15ZM15.5 23H3.5V24H15.5V23ZM1 20.5V15.5H0V20.5H1ZM3.5 23C2.11929 23 1 21.8807 1 20.5H0C0 22.433 1.567 24 3.5 24V23ZM3.5 12C1.567 12 0 13.567 0 15.5H1C1 14.1193 2.11929 13 3.5 13V12Z" fill="#979797"/>
<path d="M8.24997 16C7.0229 16 5.93692 16.557 5.25278 17.4145L4 16.2353V20H8.00025L6.63931 18.7193C7.00092 17.687 8.03217 16.9412 9.24989 16.9412C10.7695 16.9412 12 18.1002 12 19.5295C12 17.58 10.3212 16 8.24997 16Z" fill="black"/>
</svg>
