<svg width="20" height="180" viewBox="0 0 20 180" fill="none" xmlns="http://www.w3.org/2000/svg">
<path d="M0 2C0 1.44772 0.447715 1 1 1H20V17H1C0.447715 17 0 16.5523 0 16V2Z" fill="#606269"/>
<path fill-rule="evenodd" clip-rule="evenodd" d="M20 17H0C4.4795 6.33337 11.146 1 20 1V17Z" fill="#D8D8D8"/>
<path opacity="0.35" d="M6 1H0V17H6V1Z" fill="#FF9000"/>
<rect width="20" height="16" transform="translate(0 19)" fill="#606269"/>
<path fill-rule="evenodd" clip-rule="evenodd" d="M0 35L20 19V35H0Z" fill="#D8D8D8"/>
<path opacity="0.35" d="M13 19H7V35H13V19Z" fill="#FF9000"/>
<rect width="20" height="16" transform="translate(0 37)" fill="#606269"/>
<path fill-rule="evenodd" clip-rule="evenodd" d="M20 53H0C8 53 14.667 47.6666 20 37V53Z" fill="#D8D8D8"/>
<path opacity="0.35" d="M20 37H14V53H20V37Z" fill="#FF9000"/>
<rect width="20" height="16" transform="translate(0 55)" fill="#606269"/>
<path fill-rule="evenodd" clip-rule="evenodd" d="M0 55V71H20V63L0 55Z" fill="#D8D8D8"/>
<path opacity="0.35" d="M6 55H0V71H6V55Z" fill="#FF9000"/>
<rect width="20" height="16" transform="translate(0 73)" fill="#606269"/>
<path fill-rule="evenodd" clip-rule="evenodd" d="M0 73V89H20V81C14 81 7.333 78.3334 0 73H0Z" fill="#D8D8D8"/>
<path opacity="0.35" d="M13 73H7V89H13V73Z" fill="#FF9000"/>
<rect width="20" height="16" transform="translate(0 91)" fill="#606269"/>
<path fill-rule="evenodd" clip-rule="evenodd" d="M0 91V107H20V99C9.333 99 2.667 96.3334 0 91H0Z" fill="#D8D8D8"/>
<path opacity="0.35" d="M20 91H14V107H20V91Z" fill="#FF9000"/>
<rect width="20" height="16" transform="translate(0 109)" fill="#606269"/>
<path fill-rule="evenodd" clip-rule="evenodd" d="M0 117V125H20L0 117Z" fill="#D8D8D8"/>
<path opacity="0.35" d="M6 109H0V125H6V109Z" fill="#FF9000"/>
<rect width="20" height="16" transform="translate(0 127)" fill="#606269"/>
<path fill-rule="evenodd" clip-rule="evenodd" d="M0 135V143H20C9.282 140.621 3.333 138.243 0 135Z" fill="#D8D8D8"/>
<path opacity="0.35" d="M13 127H7V143H13V127Z" fill="#FF9000"/>
<path d="M0 145H19C19.5523 145 20 145.448 20 146V160C20 160.552 19.5523 161 19 161H0V145Z" fill="#606269"/>
<path fill-rule="evenodd" clip-rule="evenodd" d="M0 153V161H20C9.333 159.667 2.667 157 0 153Z" fill="#D8D8D8"/>
<path opacity="0.35" d="M20 145H14V161H20V145Z" fill="#FF9000"/>
<rect width="20" height="16" transform="translate(0 163)" fill="#606269"/>
<rect y="171" width="20" height="8" fill="#D8D8D8"/>
</svg>
