<?xml version="1.0" encoding="utf-8"?>
<svg viewBox="0 0 40 80" xmlns="http://www.w3.org/2000/svg">
  <g transform="matrix(0.5, 0, 0, 0.5, -17, -20)" style="">
    <path fill="#D99E82" d="M 71.421 74.701 C 70.774 72.6 69.716 68.642 69.096 67.135 C 68.595 65.919 68.127 64.697 67.552 64.121 C 66.977 63.546 65.999 63.591 65.409 64.179 C 65.409 64.179 62.94 65.854 62.055 66.962 C 60.947 67.844 59.27 70.319 59.27 70.319 C 58.68 70.909 58.635 71.886 59.21 72.462 C 59.786 73.037 61.008 73.505 62.225 74.006 C 63.731 74.626 67.69 75.682 69.791 76.331 C 70.15 76.441 71.531 75.06 71.421 74.701 Z"/>
    <path fill="#EA596E" d="M 49.842 46.411 C 50.993 47.562 50.993 49.427 49.842 50.578 L 45.675 54.746 C 44.524 55.896 42.657 55.896 41.508 54.746 L 37.34 50.578 C 36.19 49.427 36.19 47.562 37.34 46.411 L 41.507 42.244 C 42.657 41.093 44.523 41.093 45.674 42.244 L 49.842 46.411 Z"/>
    <path fill="#FFCC4D" d="M 67.552 64.121 L 63.382 68.291 L 59.219 72.456 L 43.591 56.829 L 51.926 48.495 L 67.552 64.121 Z"/>
    <path fill="#292F33" d="M 68.277 75.866 C 68.277 75.866 70.986 77.355 71.718 76.623 C 72.45 75.891 70.953 73.188 70.953 73.188 C 70.953 73.188 68.387 73.236 68.277 75.866 Z"/>
    <path fill="#CCD6DD" d="M 38.382 51.62 L 46.717 43.285 L 51.925 48.494 L 43.591 56.829 Z"/>
    <path fill="#99AAB5" d="M 39.424 52.661 L 47.758 44.327 L 48.8 45.369 L 40.466 53.703 Z M 41.507 54.747 L 49.842 46.412 L 50.884 47.454 L 42.549 55.788 Z"/>
  </g>
  <g transform="matrix(0.5, 0, 0, 0.5, 3, -20)" style="">
    <path fill="#D99E82" d="M 71.421 74.701 C 70.774 72.6 69.716 68.642 69.096 67.135 C 68.595 65.919 68.127 64.697 67.552 64.121 C 66.977 63.546 65.999 63.591 65.409 64.179 C 65.409 64.179 62.94 65.854 62.055 66.962 C 60.947 67.844 59.27 70.319 59.27 70.319 C 58.68 70.909 58.635 71.886 59.21 72.462 C 59.786 73.037 61.008 73.505 62.225 74.006 C 63.731 74.626 67.69 75.682 69.791 76.331 C 70.15 76.441 71.531 75.06 71.421 74.701 Z"/>
    <path fill="#EA596E" d="M 49.842 46.411 C 50.993 47.562 50.993 49.427 49.842 50.578 L 45.675 54.746 C 44.524 55.896 42.657 55.896 41.508 54.746 L 37.34 50.578 C 36.19 49.427 36.19 47.562 37.34 46.411 L 41.507 42.244 C 42.657 41.093 44.523 41.093 45.674 42.244 L 49.842 46.411 Z"/>
    <path fill="#FFEE8D" d="M 67.552 64.121 L 63.382 68.291 L 59.219 72.456 L 43.591 56.829 L 51.926 48.495 L 67.552 64.121 Z"/>
    <path fill="#292F33" d="M 68.277 75.866 C 68.277 75.866 70.986 77.355 71.718 76.623 C 72.45 75.891 70.953 73.188 70.953 73.188 C 70.953 73.188 68.387 73.236 68.277 75.866 Z"/>
    <path fill="#CCD6DD" d="M 38.382 51.62 L 46.717 43.285 L 51.925 48.494 L 43.591 56.829 Z"/>
    <path fill="#99AAB5" d="M 39.424 52.661 L 47.758 44.327 L 48.8 45.369 L 40.466 53.703 Z M 41.507 54.747 L 49.842 46.412 L 50.884 47.454 L 42.549 55.788 Z"/>
  </g>
  <g transform="matrix(0.5, 0, 0, 0.5, -36.338573, 33.075691)">
    <path fill="#8899A6" d="M 84.587 25.942 C 84.587 25.942 82.587 25.942 82.587 27.942 L 82.587 39.942 C 82.587 41.942 84.587 41.942 84.587 41.942 L 90.587 41.942 L 98.587 49.942 C 98.587 49.942 99.587 50.942 100.587 50.942 L 101.587 50.942 C 101.587 50.942 102.587 50.942 102.587 49.942 L 102.587 17.942 C 102.587 17.942 102.587 16.942 101.587 16.942 L 100.587 16.942 C 99.587 16.942 98.587 17.942 98.587 17.942 L 90.587 25.942 L 84.587 25.942 Z"/>
    <path fill="#CCD6DD" d="M 90.587 41.942 L 98.587 49.942 C 98.587 49.942 99.587 50.942 100.587 50.942 L 101.587 50.942 C 101.587 50.942 102.587 50.942 102.587 49.942 L 102.587 17.942 C 102.587 17.942 102.587 16.942 101.587 16.942 L 100.587 16.942 C 99.587 16.942 98.587 17.942 98.587 17.942 L 90.587 25.942 L 90.587 41.942 Z"/>
  </g>
  <g style="" transform="matrix(0.25, 0, 0, 0.25, -31.189976, 59.733818)">
    <path fill="#8899A6" d="M 148.759 23.375 C 148.759 23.375 144.759 23.375 144.759 27.375 L 144.759 51.375 C 144.759 55.375 148.759 55.375 148.759 55.375 L 160.759 55.375 L 176.759 71.375 C 176.759 71.375 178.759 73.375 180.759 73.375 L 182.759 73.375 C 182.759 73.375 184.759 73.375 184.759 71.375 L 184.759 7.375 C 184.759 7.375 184.759 5.375 182.759 5.375 L 180.759 5.375 C 178.759 5.375 176.759 7.375 176.759 7.375 L 160.759 23.375 L 148.759 23.375 Z"/>
    <path fill="#CCD6DD" d="M 160.759 55.375 L 176.759 71.375 C 176.759 71.375 178.759 73.375 180.759 73.375 L 182.759 73.375 C 182.759 73.375 184.759 73.375 184.759 71.375 L 184.759 7.375 C 184.759 7.375 184.759 5.375 182.759 5.375 L 180.759 5.375 C 178.759 5.375 176.759 7.375 176.759 7.375 L 160.759 23.375 L 160.759 55.375 Z"/>
    <path fill="#DD2E44" d="M 192.765 69.381 L 138.753 15.369 C 137.651 14.267 137.651 12.483 138.753 11.381 L 138.765 11.369 C 139.867 10.267 141.651 10.267 142.753 11.369 L 196.765 65.381 C 197.867 66.483 197.867 68.267 196.765 69.369 L 196.753 69.381 C 195.651 70.483 193.867 70.483 192.765 69.381 Z"/>
  </g>
  <g transform="matrix(0.5, 0, 0, 0.5, -16.547613, 33.049164)">
    <path fill="#8899A6" d="M 84.587 25.942 C 84.587 25.942 82.587 25.942 82.587 27.942 L 82.587 39.942 C 82.587 41.942 84.587 41.942 84.587 41.942 L 90.587 41.942 L 98.587 49.942 C 98.587 49.942 99.587 50.942 100.587 50.942 L 101.587 50.942 C 101.587 50.942 102.587 50.942 102.587 49.942 L 102.587 17.942 C 102.587 17.942 102.587 16.942 101.587 16.942 L 100.587 16.942 C 99.587 16.942 98.587 17.942 98.587 17.942 L 90.587 25.942 L 84.587 25.942 Z"/>
    <path fill="#DDDDDD" d="M 90.587 41.942 L 98.587 49.942 C 98.587 49.942 99.587 50.942 100.587 50.942 L 101.587 50.942 C 101.587 50.942 102.587 50.942 102.587 49.942 L 102.587 17.942 C 102.587 17.942 102.587 16.942 101.587 16.942 L 100.587 16.942 C 99.587 16.942 98.587 17.942 98.587 17.942 L 90.587 25.942 L 90.587 41.942 Z"/>
  </g>
  <g style="" transform="matrix(0.25, 0, 0, 0.25, -11.904319, 59.465778)">
    <path fill="#8899A6" d="M 148.759 23.375 C 148.759 23.375 144.759 23.375 144.759 27.375 L 144.759 51.375 C 144.759 55.375 148.759 55.375 148.759 55.375 L 160.759 55.375 L 176.759 71.375 C 176.759 71.375 178.759 73.375 180.759 73.375 L 182.759 73.375 C 182.759 73.375 184.759 73.375 184.759 71.375 L 184.759 7.375 C 184.759 7.375 184.759 5.375 182.759 5.375 L 180.759 5.375 C 178.759 5.375 176.759 7.375 176.759 7.375 L 160.759 23.375 L 148.759 23.375 Z"/>
    <path fill="#CCD6DD" d="M 160.759 55.375 L 176.759 71.375 C 176.759 71.375 178.759 73.375 180.759 73.375 L 182.759 73.375 C 182.759 73.375 184.759 73.375 184.759 71.375 L 184.759 7.375 C 184.759 7.375 184.759 5.375 182.759 5.375 L 180.759 5.375 C 178.759 5.375 176.759 7.375 176.759 7.375 L 160.759 23.375 L 160.759 55.375 Z"/>
    <path fill="#FF2E44" d="M 192.765 69.381 L 138.753 15.369 C 137.651 14.267 137.651 12.483 138.753 11.381 L 138.765 11.369 C 139.867 10.267 141.651 10.267 142.753 11.369 L 196.765 65.381 C 197.867 66.483 197.867 68.267 196.765 69.369 L 196.753 69.381 C 195.651 70.483 193.867 70.483 192.765 69.381 Z"/>
  </g>
  <path fill="#DD2E44" d="M21.533 18.002L33.768 5.768c.976-.976.976-2.559 0-3.535-.977-.977-2.559-.977-3.535 0L17.998 14.467 5.764 2.233c-.976-.977-2.56-.977-3.535 0-.977.976-.977 2.559 0 3.535l12.234 12.234L2.201 30.265c-.977.977-.977 2.559 0 3.535.488.488 1.128.732 1.768.732s1.28-.244 1.768-.732l12.262-12.263 12.234 12.234c.488.488 1.128.732 1.768.732.64 0 1.279-.244 1.768-.732.976-.977.976-2.559 0-3.535L21.533 18.002z" transform="matrix(.5, 0, 0, .5, 0, 20)"/>
  <path fill="#FF4466" d="M21.533 18.002L33.768 5.768c.976-.976.976-2.559 0-3.535-.977-.977-2.559-.977-3.535 0L17.998 14.467 5.764 2.233c-.976-.977-2.56-.977-3.535 0-.977.976-.977 2.559 0 3.535l12.234 12.234L2.201 30.265c-.977.977-.977 2.559 0 3.535.488.488 1.128.732 1.768.732s1.28-.244 1.768-.732l12.262-12.263 12.234 12.234c.488.488 1.128.732 1.768.732.64 0 1.279-.244 1.768-.732.976-.977.976-2.559 0-3.535L21.533 18.002z" transform="matrix(0.5, 0, 0, 0.5, 20, 20)"/>
</svg>