<svg width="133" height="18" viewBox="0 0 133 18" fill="none" xmlns="http://www.w3.org/2000/svg">
<path d="M2 4C2 2.89543 2.89543 2 4 2H128C129.105 2 130 2.89543 130 4V14C130 15.1046 129.105 16 128 16H4C2.89543 16 2 15.1046 2 14V4Z" fill="#EEEEEE"/>
<path d="M4 2.5H128V1.5H4V2.5ZM129.5 4V14H130.5V4H129.5ZM128 15.5H4V16.5H128V15.5ZM2.5 14V4H1.5V14H2.5ZM4 15.5C3.17157 15.5 2.5 14.8284 2.5 14H1.5C1.5 15.3807 2.61929 16.5 4 16.5V15.5ZM129.5 14C129.5 14.8284 128.828 15.5 128 15.5V16.5C129.381 16.5 130.5 15.3807 130.5 14H129.5ZM128 2.5C128.828 2.5 129.5 3.17157 129.5 4H130.5C130.5 2.61929 129.381 1.5 128 1.5V2.5ZM4 1.5C2.61929 1.5 1.5 2.61929 1.5 4H2.5C2.5 3.17157 3.17157 2.5 4 2.5V1.5Z" fill="#979797"/>
<path d="M123.5 11L121 8L126 8L123.5 11Z" fill="black"/>
</svg>
