<svg width="34" height="36" viewBox="0 0 34 36" fill="none" xmlns="http://www.w3.org/2000/svg">
<path d="M0.5 2.5C0.5 1.39543 1.39543 0.5 2.5 0.5H31.5C32.6046 0.5 33.5 1.39543 33.5 2.5V15.5C33.5 16.6046 32.6046 17.5 31.5 17.5H2.5C1.39543 17.5 0.5 16.6046 0.5 15.5V2.5Z" fill="#E3E3E3"/>
<path d="M1.5 2.5C1.5 1.94772 1.94772 1.5 2.5 1.5H31.5C32.0523 1.5 32.5 1.94772 32.5 2.5V8.5H1.5V2.5Z" fill="#FF9300"/>
<path d="M1.5 2.5C1.5 1.94772 1.94772 1.5 2.5 1.5H31.5C32.0523 1.5 32.5 1.94772 32.5 2.5V8.5H1.5V2.5Z" stroke="#FF9300"/>
<path d="M8.99115 5.4695C8.99115 5.8405 8.92932 6.18117 8.80565 6.4915C8.68199 6.80183 8.50815 7.069 8.28415 7.293C8.06015 7.517 7.79065 7.69083 7.47565 7.8145C7.16065 7.93817 6.81065 8 6.42565 8H4.49715V2.939H6.42565C6.81065 2.939 7.16065 3.002 7.47565 3.128C7.79065 3.25167 8.06015 3.4255 8.28415 3.6495C8.50815 3.87117 8.68199 4.13717 8.80565 4.4475C8.92932 4.75783 8.99115 5.0985 8.99115 5.4695ZM8.02515 5.4695C8.02515 5.19183 7.98782 4.94333 7.91315 4.724C7.84082 4.50233 7.73465 4.31567 7.59465 4.164C7.45699 4.01 7.28899 3.89217 7.09065 3.8105C6.89465 3.72883 6.67299 3.688 6.42565 3.688H5.44215V7.251H6.42565C6.67299 7.251 6.89465 7.21017 7.09065 7.1285C7.28899 7.04683 7.45699 6.93017 7.59465 6.7785C7.73465 6.6245 7.84082 6.43783 7.91315 6.2185C7.98782 5.99683 8.02515 5.74717 8.02515 5.4695ZM10.6623 8H9.71735V2.939H10.6623V8ZM15.8625 5.4625V7.51C15.6058 7.699 15.3316 7.83783 15.04 7.9265C14.7506 8.01283 14.4403 8.056 14.109 8.056C13.696 8.056 13.3215 7.99183 12.9855 7.8635C12.6518 7.73517 12.366 7.55667 12.128 7.328C11.8923 7.09933 11.7103 6.82633 11.582 6.509C11.4536 6.19167 11.3895 5.84517 11.3895 5.4695C11.3895 5.08917 11.4513 4.74033 11.575 4.423C11.6986 4.10567 11.8736 3.83267 12.1 3.604C12.3286 3.37533 12.6051 3.198 12.9295 3.072C13.2538 2.946 13.6178 2.883 14.0215 2.883C14.2268 2.883 14.4181 2.89933 14.5955 2.932C14.7751 2.96467 14.9408 3.01017 15.0925 3.0685C15.2465 3.1245 15.3865 3.19333 15.5125 3.275C15.6385 3.35667 15.754 3.4465 15.859 3.5445L15.5895 3.9715C15.5475 4.03917 15.4926 4.08117 15.425 4.0975C15.3573 4.1115 15.2838 4.094 15.2045 4.045C15.1275 4.00067 15.0505 3.95633 14.9735 3.912C14.8965 3.86767 14.8101 3.82917 14.7145 3.7965C14.6211 3.76383 14.515 3.737 14.396 3.716C14.2793 3.695 14.144 3.6845 13.99 3.6845C13.7403 3.6845 13.514 3.7265 13.311 3.8105C13.1103 3.8945 12.9388 4.01467 12.7965 4.171C12.6541 4.32733 12.5445 4.51517 12.4675 4.7345C12.3905 4.95383 12.352 5.19883 12.352 5.4695C12.352 5.75883 12.3928 6.01783 12.4745 6.2465C12.5585 6.47283 12.6751 6.66533 12.8245 6.824C12.9761 6.98033 13.1581 7.1005 13.3705 7.1845C13.5828 7.26617 13.8196 7.307 14.081 7.307C14.2676 7.307 14.4345 7.28717 14.5815 7.2475C14.7285 7.20783 14.872 7.15417 15.012 7.0865V6.1695H14.375C14.3143 6.1695 14.2665 6.15317 14.2315 6.1205C14.1988 6.0855 14.1825 6.0435 14.1825 5.9945V5.4625H15.8625ZM17.6096 8H16.6646V2.939H17.6096V8ZM22.1727 3.7125H20.6467V8H19.7052V3.7125H18.1792V2.939H22.1727V3.7125ZM24.9118 6.089L24.2958 4.4055C24.2654 4.33083 24.2339 4.24217 24.2013 4.1395C24.1686 4.03683 24.1359 3.926 24.1033 3.807C24.0729 3.926 24.0414 4.038 24.0088 4.143C23.9761 4.24567 23.9446 4.3355 23.9143 4.4125L23.3018 6.089H24.9118ZM26.5743 8H25.8463C25.7646 8 25.6981 7.98017 25.6468 7.9405C25.5954 7.8985 25.5569 7.84717 25.5313 7.7865L25.1533 6.754H23.0568L22.6788 7.7865C22.6601 7.84017 22.6239 7.88917 22.5703 7.9335C22.5166 7.97783 22.4501 8 22.3708 8H21.6358L23.6273 2.939H24.5863L26.5743 8ZM29.9576 7.223V8H26.9931V2.939H27.9346V7.223H29.9576Z" fill="black"/>
<path d="M5.84717 14.089L5.23117 12.4055C5.20083 12.3308 5.16933 12.2422 5.13667 12.1395C5.104 12.0368 5.07133 11.926 5.03867 11.807C5.00833 11.926 4.97683 12.038 4.94417 12.143C4.9115 12.2457 4.88 12.3355 4.84967 12.4125L4.23717 14.089H5.84717ZM7.50967 16H6.78167C6.7 16 6.6335 15.9802 6.58217 15.9405C6.53083 15.8985 6.49233 15.8472 6.46667 15.7865L6.08867 14.754H3.99217L3.61417 15.7865C3.5955 15.8402 3.55933 15.8892 3.50567 15.9335C3.452 15.9778 3.3855 16 3.30617 16H2.57117L4.56267 10.939H5.52167L7.50967 16ZM12.195 10.939V16H11.712C11.6374 16 11.5744 15.9883 11.523 15.965C11.474 15.9393 11.4262 15.8973 11.3795 15.839L8.73702 12.465C8.75102 12.619 8.75802 12.7613 8.75802 12.892V16H7.92852V10.939H8.42202C8.46169 10.939 8.49552 10.9413 8.52352 10.946C8.55385 10.9483 8.57952 10.9553 8.60052 10.967C8.62385 10.9763 8.64602 10.9915 8.66702 11.0125C8.68802 11.0312 8.71135 11.0568 8.73702 11.0895L11.39 14.4775C11.383 14.3958 11.3772 14.3153 11.3725 14.236C11.3679 14.1567 11.3655 14.0832 11.3655 14.0155V10.939H12.195ZM15.8911 14.089L15.2751 12.4055C15.2447 12.3308 15.2132 12.2422 15.1806 12.1395C15.1479 12.0368 15.1152 11.926 15.0826 11.807C15.0522 11.926 15.0207 12.038 14.9881 12.143C14.9554 12.2457 14.9239 12.3355 14.8936 12.4125L14.2811 14.089H15.8911ZM17.5536 16H16.8256C16.7439 16 16.6774 15.9802 16.6261 15.9405C16.5747 15.8985 16.5362 15.8472 16.5106 15.7865L16.1326 14.754H14.0361L13.6581 15.7865C13.6394 15.8402 13.6032 15.8892 13.5496 15.9335C13.4959 15.9778 13.4294 16 13.3501 16H12.6151L14.6066 10.939H15.5656L17.5536 16ZM20.9369 15.223V16H17.9724V10.939H18.9139V15.223H20.9369ZM26.1529 13.4695C26.1529 13.8405 26.0911 14.1847 25.9674 14.502C25.8461 14.817 25.6734 15.09 25.4494 15.321C25.2254 15.552 24.9559 15.7328 24.6409 15.8635C24.3259 15.9918 23.9759 16.056 23.5909 16.056C23.2082 16.056 22.8594 15.9918 22.5444 15.8635C22.2294 15.7328 21.9587 15.552 21.7324 15.321C21.5084 15.09 21.3346 14.817 21.2109 14.502C21.0872 14.1847 21.0254 13.8405 21.0254 13.4695C21.0254 13.0985 21.0872 12.7555 21.2109 12.4405C21.3346 12.1232 21.5084 11.849 21.7324 11.618C21.9587 11.387 22.2294 11.2073 22.5444 11.079C22.8594 10.9483 23.2082 10.883 23.5909 10.883C23.8476 10.883 24.0891 10.9133 24.3154 10.974C24.5417 11.0323 24.7494 11.1163 24.9384 11.226C25.1274 11.3333 25.2966 11.4652 25.4459 11.6215C25.5976 11.7755 25.7259 11.9482 25.8309 12.1395C25.9359 12.3308 26.0152 12.5385 26.0689 12.7625C26.1249 12.9865 26.1529 13.2222 26.1529 13.4695ZM25.1904 13.4695C25.1904 13.1918 25.1531 12.9433 25.0784 12.724C25.0037 12.5023 24.8976 12.3145 24.7599 12.1605C24.6222 12.0065 24.4542 11.8887 24.2559 11.807C24.0599 11.7253 23.8382 11.6845 23.5909 11.6845C23.3436 11.6845 23.1207 11.7253 22.9224 11.807C22.7264 11.8887 22.5584 12.0065 22.4184 12.1605C22.2807 12.3145 22.1746 12.5023 22.0999 12.724C22.0252 12.9433 21.9879 13.1918 21.9879 13.4695C21.9879 13.7472 22.0252 13.9968 22.0999 14.2185C22.1746 14.4378 22.2807 14.6245 22.4184 14.7785C22.5584 14.9302 22.7264 15.0468 22.9224 15.1285C23.1207 15.2102 23.3436 15.251 23.5909 15.251C23.8382 15.251 24.0599 15.2102 24.2559 15.1285C24.4542 15.0468 24.6222 14.9302 24.7599 14.7785C24.8976 14.6245 25.0037 14.4378 25.0784 14.2185C25.1531 13.9968 25.1904 13.7472 25.1904 13.4695ZM31.0467 13.4625V15.51C30.7901 15.699 30.5159 15.8378 30.2242 15.9265C29.9349 16.0128 29.6246 16.056 29.2932 16.056C28.8802 16.056 28.5057 15.9918 28.1697 15.8635C27.8361 15.7352 27.5502 15.5567 27.3122 15.328C27.0766 15.0993 26.8946 14.8263 26.7662 14.509C26.6379 14.1917 26.5737 13.8452 26.5737 13.4695C26.5737 13.0892 26.6356 12.7403 26.7592 12.423C26.8829 12.1057 27.0579 11.8327 27.2842 11.604C27.5129 11.3753 27.7894 11.198 28.1137 11.072C28.4381 10.946 28.8021 10.883 29.2057 10.883C29.4111 10.883 29.6024 10.8993 29.7797 10.932C29.9594 10.9647 30.1251 11.0102 30.2767 11.0685C30.4307 11.1245 30.5707 11.1933 30.6967 11.275C30.8227 11.3567 30.9382 11.4465 31.0432 11.5445L30.7737 11.9715C30.7317 12.0392 30.6769 12.0812 30.6092 12.0975C30.5416 12.1115 30.4681 12.094 30.3887 12.045C30.3117 12.0007 30.2347 11.9563 30.1577 11.912C30.0807 11.8677 29.9944 11.8292 29.8987 11.7965C29.8054 11.7638 29.6992 11.737 29.5802 11.716C29.4636 11.695 29.3282 11.6845 29.1742 11.6845C28.9246 11.6845 28.6982 11.7265 28.4952 11.8105C28.2946 11.8945 28.1231 12.0147 27.9807 12.171C27.8384 12.3273 27.7287 12.5152 27.6517 12.7345C27.5747 12.9538 27.5362 13.1988 27.5362 13.4695C27.5362 13.7588 27.5771 14.0178 27.6587 14.2465C27.7427 14.4728 27.8594 14.6653 28.0087 14.824C28.1604 14.9803 28.3424 15.1005 28.5547 15.1845C28.7671 15.2662 29.0039 15.307 29.2652 15.307C29.4519 15.307 29.6187 15.2872 29.7657 15.2475C29.9127 15.2078 30.0562 15.1542 30.1962 15.0865V14.1695H29.5592C29.4986 14.1695 29.4507 14.1532 29.4157 14.1205C29.3831 14.0855 29.3667 14.0435 29.3667 13.9945V13.4625H31.0467Z" fill="black"/>
<path d="M2.5 1H31.5V0H2.5V1ZM33 2.5V15.5H34V2.5H33ZM31.5 17H2.5V18H31.5V17ZM1 15.5V2.5H0V15.5H1ZM2.5 17C1.67157 17 1 16.3284 1 15.5H0C0 16.8807 1.11929 18 2.5 18V17ZM33 15.5C33 16.3284 32.3284 17 31.5 17V18C32.8807 18 34 16.8807 34 15.5H33ZM31.5 1C32.3284 1 33 1.67157 33 2.5H34C34 1.11929 32.8807 0 31.5 0V1ZM2.5 0C1.11929 0 0 1.11929 0 2.5H1C1 1.67157 1.67157 1 2.5 1V0Z" fill="#979797"/>
<path d="M0.5 20.5C0.5 19.3954 1.39543 18.5 2.5 18.5H31.5C32.6046 18.5 33.5 19.3954 33.5 20.5V33.5C33.5 34.6046 32.6046 35.5 31.5 35.5H2.5C1.39543 35.5 0.5 34.6046 0.5 33.5V20.5Z" fill="#E3E3E3"/>
<path d="M8.99115 23.4695C8.99115 23.8405 8.92932 24.1812 8.80565 24.4915C8.68199 24.8018 8.50815 25.069 8.28415 25.293C8.06015 25.517 7.79065 25.6908 7.47565 25.8145C7.16065 25.9382 6.81065 26 6.42565 26H4.49715V20.939H6.42565C6.81065 20.939 7.16065 21.002 7.47565 21.128C7.79065 21.2517 8.06015 21.4255 8.28415 21.6495C8.50815 21.8712 8.68199 22.1372 8.80565 22.4475C8.92932 22.7578 8.99115 23.0985 8.99115 23.4695ZM8.02515 23.4695C8.02515 23.1918 7.98782 22.9433 7.91315 22.724C7.84082 22.5023 7.73465 22.3157 7.59465 22.164C7.45699 22.01 7.28899 21.8922 7.09065 21.8105C6.89465 21.7288 6.67299 21.688 6.42565 21.688H5.44215V25.251H6.42565C6.67299 25.251 6.89465 25.2102 7.09065 25.1285C7.28899 25.0468 7.45699 24.9302 7.59465 24.7785C7.73465 24.6245 7.84082 24.4378 7.91315 24.2185C7.98782 23.9968 8.02515 23.7472 8.02515 23.4695ZM10.6623 26H9.71735V20.939H10.6623V26ZM15.8625 23.4625V25.51C15.6058 25.699 15.3316 25.8378 15.04 25.9265C14.7506 26.0128 14.4403 26.056 14.109 26.056C13.696 26.056 13.3215 25.9918 12.9855 25.8635C12.6518 25.7352 12.366 25.5567 12.128 25.328C11.8923 25.0993 11.7103 24.8263 11.582 24.509C11.4536 24.1917 11.3895 23.8452 11.3895 23.4695C11.3895 23.0892 11.4513 22.7403 11.575 22.423C11.6986 22.1057 11.8736 21.8327 12.1 21.604C12.3286 21.3753 12.6051 21.198 12.9295 21.072C13.2538 20.946 13.6178 20.883 14.0215 20.883C14.2268 20.883 14.4181 20.8993 14.5955 20.932C14.7751 20.9647 14.9408 21.0102 15.0925 21.0685C15.2465 21.1245 15.3865 21.1933 15.5125 21.275C15.6385 21.3567 15.754 21.4465 15.859 21.5445L15.5895 21.9715C15.5475 22.0392 15.4926 22.0812 15.425 22.0975C15.3573 22.1115 15.2838 22.094 15.2045 22.045C15.1275 22.0007 15.0505 21.9563 14.9735 21.912C14.8965 21.8677 14.8101 21.8292 14.7145 21.7965C14.6211 21.7638 14.515 21.737 14.396 21.716C14.2793 21.695 14.144 21.6845 13.99 21.6845C13.7403 21.6845 13.514 21.7265 13.311 21.8105C13.1103 21.8945 12.9388 22.0147 12.7965 22.171C12.6541 22.3273 12.5445 22.5152 12.4675 22.7345C12.3905 22.9538 12.352 23.1988 12.352 23.4695C12.352 23.7588 12.3928 24.0178 12.4745 24.2465C12.5585 24.4728 12.6751 24.6653 12.8245 24.824C12.9761 24.9803 13.1581 25.1005 13.3705 25.1845C13.5828 25.2662 13.8196 25.307 14.081 25.307C14.2676 25.307 14.4345 25.2872 14.5815 25.2475C14.7285 25.2078 14.872 25.1542 15.012 25.0865V24.1695H14.375C14.3143 24.1695 14.2665 24.1532 14.2315 24.1205C14.1988 24.0855 14.1825 24.0435 14.1825 23.9945V23.4625H15.8625ZM17.6096 26H16.6646V20.939H17.6096V26ZM22.1727 21.7125H20.6467V26H19.7052V21.7125H18.1792V20.939H22.1727V21.7125ZM24.9118 24.089L24.2958 22.4055C24.2654 22.3308 24.2339 22.2422 24.2013 22.1395C24.1686 22.0368 24.1359 21.926 24.1033 21.807C24.0729 21.926 24.0414 22.038 24.0088 22.143C23.9761 22.2457 23.9446 22.3355 23.9143 22.4125L23.3018 24.089H24.9118ZM26.5743 26H25.8463C25.7646 26 25.6981 25.9802 25.6468 25.9405C25.5954 25.8985 25.5569 25.8472 25.5313 25.7865L25.1533 24.754H23.0568L22.6788 25.7865C22.6601 25.8402 22.6239 25.8892 22.5703 25.9335C22.5166 25.9778 22.4501 26 22.3708 26H21.6358L23.6273 20.939H24.5863L26.5743 26ZM29.9576 25.223V26H26.9931V20.939H27.9346V25.223H29.9576Z" fill="black"/>
<path d="M1.5 27.5H32.5V33.5C32.5 34.0523 32.0523 34.5 31.5 34.5H2.5C1.94772 34.5 1.5 34.0523 1.5 33.5V27.5Z" fill="#FF9300"/>
<path d="M1.5 27.5H32.5V33.5C32.5 34.0523 32.0523 34.5 31.5 34.5H2.5C1.94772 34.5 1.5 34.0523 1.5 33.5V27.5Z" stroke="#FF9300"/>
<path d="M5.84717 32.089L5.23117 30.4055C5.20083 30.3308 5.16933 30.2422 5.13667 30.1395C5.104 30.0368 5.07133 29.926 5.03867 29.807C5.00833 29.926 4.97683 30.038 4.94417 30.143C4.9115 30.2457 4.88 30.3355 4.84967 30.4125L4.23717 32.089H5.84717ZM7.50967 34H6.78167C6.7 34 6.6335 33.9802 6.58217 33.9405C6.53083 33.8985 6.49233 33.8472 6.46667 33.7865L6.08867 32.754H3.99217L3.61417 33.7865C3.5955 33.8402 3.55933 33.8892 3.50567 33.9335C3.452 33.9778 3.3855 34 3.30617 34H2.57117L4.56267 28.939H5.52167L7.50967 34ZM12.195 28.939V34H11.712C11.6374 34 11.5744 33.9883 11.523 33.965C11.474 33.9393 11.4262 33.8973 11.3795 33.839L8.73702 30.465C8.75102 30.619 8.75802 30.7613 8.75802 30.892V34H7.92852V28.939H8.42202C8.46169 28.939 8.49552 28.9413 8.52352 28.946C8.55385 28.9483 8.57952 28.9553 8.60052 28.967C8.62385 28.9763 8.64602 28.9915 8.66702 29.0125C8.68802 29.0312 8.71135 29.0568 8.73702 29.0895L11.39 32.4775C11.383 32.3958 11.3772 32.3153 11.3725 32.236C11.3679 32.1567 11.3655 32.0832 11.3655 32.0155V28.939H12.195ZM15.8911 32.089L15.2751 30.4055C15.2447 30.3308 15.2132 30.2422 15.1806 30.1395C15.1479 30.0368 15.1152 29.926 15.0826 29.807C15.0522 29.926 15.0207 30.038 14.9881 30.143C14.9554 30.2457 14.9239 30.3355 14.8936 30.4125L14.2811 32.089H15.8911ZM17.5536 34H16.8256C16.7439 34 16.6774 33.9802 16.6261 33.9405C16.5747 33.8985 16.5362 33.8472 16.5106 33.7865L16.1326 32.754H14.0361L13.6581 33.7865C13.6394 33.8402 13.6032 33.8892 13.5496 33.9335C13.4959 33.9778 13.4294 34 13.3501 34H12.6151L14.6066 28.939H15.5656L17.5536 34ZM20.9369 33.223V34H17.9724V28.939H18.9139V33.223H20.9369ZM26.1529 31.4695C26.1529 31.8405 26.0911 32.1847 25.9674 32.502C25.8461 32.817 25.6734 33.09 25.4494 33.321C25.2254 33.552 24.9559 33.7328 24.6409 33.8635C24.3259 33.9918 23.9759 34.056 23.5909 34.056C23.2082 34.056 22.8594 33.9918 22.5444 33.8635C22.2294 33.7328 21.9587 33.552 21.7324 33.321C21.5084 33.09 21.3346 32.817 21.2109 32.502C21.0872 32.1847 21.0254 31.8405 21.0254 31.4695C21.0254 31.0985 21.0872 30.7555 21.2109 30.4405C21.3346 30.1232 21.5084 29.849 21.7324 29.618C21.9587 29.387 22.2294 29.2073 22.5444 29.079C22.8594 28.9483 23.2082 28.883 23.5909 28.883C23.8476 28.883 24.0891 28.9133 24.3154 28.974C24.5417 29.0323 24.7494 29.1163 24.9384 29.226C25.1274 29.3333 25.2966 29.4652 25.4459 29.6215C25.5976 29.7755 25.7259 29.9482 25.8309 30.1395C25.9359 30.3308 26.0152 30.5385 26.0689 30.7625C26.1249 30.9865 26.1529 31.2222 26.1529 31.4695ZM25.1904 31.4695C25.1904 31.1918 25.1531 30.9433 25.0784 30.724C25.0037 30.5023 24.8976 30.3145 24.7599 30.1605C24.6222 30.0065 24.4542 29.8887 24.2559 29.807C24.0599 29.7253 23.8382 29.6845 23.5909 29.6845C23.3436 29.6845 23.1207 29.7253 22.9224 29.807C22.7264 29.8887 22.5584 30.0065 22.4184 30.1605C22.2807 30.3145 22.1746 30.5023 22.0999 30.724C22.0252 30.9433 21.9879 31.1918 21.9879 31.4695C21.9879 31.7472 22.0252 31.9968 22.0999 32.2185C22.1746 32.4378 22.2807 32.6245 22.4184 32.7785C22.5584 32.9302 22.7264 33.0468 22.9224 33.1285C23.1207 33.2102 23.3436 33.251 23.5909 33.251C23.8382 33.251 24.0599 33.2102 24.2559 33.1285C24.4542 33.0468 24.6222 32.9302 24.7599 32.7785C24.8976 32.6245 25.0037 32.4378 25.0784 32.2185C25.1531 31.9968 25.1904 31.7472 25.1904 31.4695ZM31.0467 31.4625V33.51C30.7901 33.699 30.5159 33.8378 30.2242 33.9265C29.9349 34.0128 29.6246 34.056 29.2932 34.056C28.8802 34.056 28.5057 33.9918 28.1697 33.8635C27.8361 33.7352 27.5502 33.5567 27.3122 33.328C27.0766 33.0993 26.8946 32.8263 26.7662 32.509C26.6379 32.1917 26.5737 31.8452 26.5737 31.4695C26.5737 31.0892 26.6356 30.7403 26.7592 30.423C26.8829 30.1057 27.0579 29.8327 27.2842 29.604C27.5129 29.3753 27.7894 29.198 28.1137 29.072C28.4381 28.946 28.8021 28.883 29.2057 28.883C29.4111 28.883 29.6024 28.8993 29.7797 28.932C29.9594 28.9647 30.1251 29.0102 30.2767 29.0685C30.4307 29.1245 30.5707 29.1933 30.6967 29.275C30.8227 29.3567 30.9382 29.4465 31.0432 29.5445L30.7737 29.9715C30.7317 30.0392 30.6769 30.0812 30.6092 30.0975C30.5416 30.1115 30.4681 30.094 30.3887 30.045C30.3117 30.0007 30.2347 29.9563 30.1577 29.912C30.0807 29.8677 29.9944 29.8292 29.8987 29.7965C29.8054 29.7638 29.6992 29.737 29.5802 29.716C29.4636 29.695 29.3282 29.6845 29.1742 29.6845C28.9246 29.6845 28.6982 29.7265 28.4952 29.8105C28.2946 29.8945 28.1231 30.0147 27.9807 30.171C27.8384 30.3273 27.7287 30.5152 27.6517 30.7345C27.5747 30.9538 27.5362 31.1988 27.5362 31.4695C27.5362 31.7588 27.5771 32.0178 27.6587 32.2465C27.7427 32.4728 27.8594 32.6653 28.0087 32.824C28.1604 32.9803 28.3424 33.1005 28.5547 33.1845C28.7671 33.2662 29.0039 33.307 29.2652 33.307C29.4519 33.307 29.6187 33.2872 29.7657 33.2475C29.9127 33.2078 30.0562 33.1542 30.1962 33.0865V32.1695H29.5592C29.4986 32.1695 29.4507 32.1532 29.4157 32.1205C29.3831 32.0855 29.3667 32.0435 29.3667 31.9945V31.4625H31.0467Z" fill="black"/>
<path d="M2.5 19H31.5V18H2.5V19ZM33 20.5V33.5H34V20.5H33ZM31.5 35H2.5V36H31.5V35ZM1 33.5V20.5H0V33.5H1ZM2.5 35C1.67157 35 1 34.3284 1 33.5H0C0 34.8807 1.11929 36 2.5 36V35ZM33 33.5C33 34.3284 32.3284 35 31.5 35V36C32.8807 36 34 34.8807 34 33.5H33ZM31.5 19C32.3284 19 33 19.6716 33 20.5H34C34 19.1193 32.8807 18 31.5 18V19ZM2.5 18C1.11929 18 0 19.1193 0 20.5H1C1 19.6716 1.67157 19 2.5 19V18Z" fill="#979797"/>
</svg>
