<?xml version="1.0" encoding="utf-8"?>
<svg viewBox="0 0 13 26" xmlns="http://www.w3.org/2000/svg">
  <g style="" transform="matrix(0.33, 0, 0, 0.33, -1, 0.4)">
    <path fill="#9AAAB4" d="M 31.82 23.927 L 28.992 26.755 L 24.042 21.805 L 26.87 18.977 Z"/>
    <path fill="#66757F" d="M 39.115 28.395 L 33.236 22.516 C 32.455 21.735 31.189 21.735 30.408 22.516 L 27.58 25.344 C 26.799 26.125 26.799 27.391 27.58 28.172 L 33.459 34.051 C 35.021 35.614 37.555 35.614 39.117 34.051 C 40.677 32.49 40.676 29.957 39.115 28.395 Z"/>
    <circle fill="#8899A6" cx="18.018" cy="12.954" r="13.5"/>
    <circle fill="#BBDDF5" cx="18.018" cy="12.954" r="9.5"/>
  </g>
  <g style="" transform="matrix(0.33, 0, 0, 0.33, -1, 13.4)">
    <path fill="#9AAAB4" d="M 31.82 23.927 L 28.992 26.755 L 24.042 21.805 L 26.87 18.977 Z"/>
    <path fill="#66757F" d="M 39.115 28.395 L 33.236 22.516 C 32.455 21.735 31.189 21.735 30.408 22.516 L 27.58 25.344 C 26.799 26.125 26.799 27.391 27.58 28.172 L 33.459 34.051 C 35.021 35.614 37.555 35.614 39.117 34.051 C 40.677 32.49 40.676 29.957 39.115 28.395 Z"/>
    <circle fill="#8899A6" cx="18.018" cy="12.954" r="13.5"/>
    <circle fill="#FF9000" cx="18.018" cy="12.954" r="9.5"/>
  </g>
</svg>