<?xml version="1.0" encoding="utf-8"?>
<svg width="10" height="10" viewBox="0 0 10 10" version="1.1" xmlns="http://www.w3.org/2000/svg">
  <defs>
    <rect width="13" height="52" id="artboard_1"/>
    <clipPath id="clip_1">
      <rect width="13" height="52" transform="matrix(1, 0, 0, 1, 0, 0)" clip-rule="evenodd"/>
    </clipPath>
  </defs>
  <g id="bmp00186" clip-path="url(#clip_1)" transform="matrix(0.772363, 0, 0, 0.836507, 0.094928, -0.214622)" style="">
    <path d="M 12.251 4.22 C 12.251 2.483 10.827 1.075 9.073 1.075 C 8.007 1.075 7.068 1.595 6.491 2.391 C 5.914 1.595 4.973 1.075 3.909 1.075 C 2.154 1.075 0.731 2.483 0.731 4.22 C 0.731 4.466 0.763 4.704 0.816 4.934 C 1.258 7.646 4.306 10.509 6.491 11.295 C 8.675 10.509 11.723 7.646 12.164 4.934 C 12.218 4.704 12.251 4.466 12.251 4.22 L 12.251 4.22 Z" id="Shape" fill="#DD2E44" fill-rule="evenodd" stroke="#FFFFFF" stroke-width="1"/>
  </g>
</svg>