<svg width="106" height="18" viewBox="0 0 106 18" fill="none" xmlns="http://www.w3.org/2000/svg">
<path d="M4 2.5H100V1.5H4V2.5ZM102.5 5V13H103.5V5H102.5ZM100 15.5H4V16.5H100V15.5ZM1.5 13V5H0.5V13H1.5ZM4 15.5C2.61929 15.5 1.5 14.3807 1.5 13H0.5C0.5 14.933 2.06701 16.5 4 16.5V15.5ZM102.5 13C102.5 14.3807 101.381 15.5 100 15.5V16.5C101.933 16.5 103.5 14.933 103.5 13H102.5ZM100 2.5C101.381 2.5 102.5 3.61929 102.5 5H103.5C103.5 3.067 101.933 1.5 100 1.5V2.5ZM4 1.5C2.067 1.5 0.5 3.067 0.5 5H1.5C1.5 3.61929 2.61929 2.5 4 2.5V1.5Z" fill="#979797"/>
<path d="M96 10.5L93.5 7.5L98.5 7.5L96 10.5Z" fill="#FF9000"/>
</svg>
