<svg width="94" height="42" viewBox="0 0 94 42" fill="none" xmlns="http://www.w3.org/2000/svg">
<path d="M0.5 3.5C0.5 1.84315 1.84315 0.5 3.5 0.5H90.5C92.1569 0.5 93.5 1.84315 93.5 3.5V10.5C93.5 12.1569 92.1569 13.5 90.5 13.5H3.5C1.84315 13.5 0.5 12.1569 0.5 10.5V3.5Z" fill="#E3E3E3"/>
<rect x="2.5" y="2.5" width="28" height="9" rx="1" fill="#FF9A10"/>
<rect x="2.5" y="2.5" width="28" height="9" rx="1" stroke="#FF9A10"/>
<path d="M9.82088 5.268C9.78888 5.324 9.75421 5.36533 9.71688 5.392C9.68221 5.416 9.63821 5.428 9.58488 5.428C9.52888 5.428 9.46754 5.408 9.40088 5.368C9.33688 5.32533 9.25954 5.27867 9.16888 5.228C9.07821 5.17733 8.97154 5.132 8.84888 5.092C8.72888 5.04933 8.58621 5.028 8.42088 5.028C8.27154 5.028 8.14088 5.04667 8.02888 5.084C7.91688 5.11867 7.82221 5.168 7.74488 5.232C7.67021 5.296 7.61421 5.37333 7.57688 5.464C7.53954 5.552 7.52088 5.64933 7.52088 5.756C7.52088 5.892 7.55821 6.00533 7.63288 6.096C7.71021 6.18667 7.81154 6.264 7.93688 6.328C8.06221 6.392 8.20488 6.44933 8.36488 6.5C8.52488 6.55067 8.68888 6.60533 8.85688 6.664C9.02488 6.72 9.18888 6.78667 9.34888 6.864C9.50888 6.93867 9.65154 7.03467 9.77688 7.152C9.90221 7.26667 10.0022 7.408 10.0769 7.576C10.1542 7.744 10.1929 7.948 10.1929 8.188C10.1929 8.44933 10.1475 8.69467 10.0569 8.924C9.96888 9.15067 9.83821 9.34933 9.66488 9.52C9.49421 9.688 9.28488 9.82133 9.03688 9.92C8.78888 10.016 8.50488 10.064 8.18488 10.064C8.00088 10.064 7.81954 10.0453 7.64088 10.008C7.46221 9.97333 7.29021 9.92267 7.12488 9.856C6.96221 9.78933 6.80888 9.70933 6.66488 9.616C6.52088 9.52267 6.39288 9.41867 6.28088 9.304L6.59688 8.788C6.62354 8.75067 6.65821 8.72 6.70088 8.696C6.74354 8.66933 6.78888 8.656 6.83688 8.656C6.90354 8.656 6.97554 8.684 7.05288 8.74C7.13021 8.79333 7.22221 8.85333 7.32888 8.92C7.43554 8.98667 7.55954 9.048 7.70088 9.104C7.84488 9.15733 8.01688 9.184 8.21688 9.184C8.52354 9.184 8.76088 9.112 8.92888 8.968C9.09688 8.82133 9.18088 8.612 9.18088 8.34C9.18088 8.188 9.14221 8.064 9.06488 7.968C8.99021 7.872 8.89021 7.792 8.76488 7.728C8.63954 7.66133 8.49688 7.60533 8.33688 7.56C8.17688 7.51467 8.01421 7.46533 7.84888 7.412C7.68354 7.35867 7.52088 7.29467 7.36088 7.22C7.20088 7.14533 7.05821 7.048 6.93288 6.928C6.80754 6.808 6.70621 6.65867 6.62888 6.48C6.55421 6.29867 6.51688 6.076 6.51688 5.812C6.51688 5.60133 6.55821 5.396 6.64088 5.196C6.72621 4.996 6.84888 4.81867 7.00888 4.664C7.16888 4.50933 7.36621 4.38533 7.60088 4.292C7.83554 4.19867 8.10488 4.152 8.40888 4.152C8.75021 4.152 9.06488 4.20533 9.35288 4.312C9.64088 4.41867 9.88621 4.568 10.0889 4.76L9.82088 5.268ZM11.8639 5.896V10H10.8719V5.896H11.8639ZM11.9999 4.7C11.9999 4.78533 11.9825 4.86533 11.9479 4.94C11.9132 5.01467 11.8665 5.08 11.8079 5.136C11.7519 5.192 11.6852 5.23733 11.6079 5.272C11.5305 5.304 11.4479 5.32 11.3599 5.32C11.2745 5.32 11.1932 5.304 11.1159 5.272C11.0412 5.23733 10.9759 5.192 10.9199 5.136C10.8639 5.08 10.8185 5.01467 10.7839 4.94C10.7519 4.86533 10.7359 4.78533 10.7359 4.7C10.7359 4.612 10.7519 4.52933 10.7839 4.452C10.8185 4.37467 10.8639 4.308 10.9199 4.252C10.9759 4.196 11.0412 4.152 11.1159 4.12C11.1932 4.08533 11.2745 4.068 11.3599 4.068C11.4479 4.068 11.5305 4.08533 11.6079 4.12C11.6852 4.152 11.7519 4.196 11.8079 4.252C11.8665 4.308 11.9132 4.37467 11.9479 4.452C11.9825 4.52933 11.9999 4.612 11.9999 4.7ZM13.6751 6.4C13.7578 6.31733 13.8445 6.24133 13.9351 6.172C14.0285 6.1 14.1258 6.04 14.2271 5.992C14.3311 5.94133 14.4418 5.90267 14.5591 5.876C14.6765 5.84667 14.8045 5.832 14.9431 5.832C15.1671 5.832 15.3658 5.87067 15.5391 5.948C15.7125 6.02267 15.8565 6.12933 15.9711 6.268C16.0885 6.404 16.1765 6.568 16.2351 6.76C16.2965 6.94933 16.3271 7.15867 16.3271 7.388V10H15.3391V7.388C15.3391 7.13733 15.2818 6.944 15.1671 6.808C15.0525 6.66933 14.8778 6.6 14.6431 6.6C14.4725 6.6 14.3125 6.63867 14.1631 6.716C14.0138 6.79333 13.8725 6.89867 13.7391 7.032V10H12.7511V5.896H13.3551C13.4831 5.896 13.5671 5.956 13.6071 6.076L13.6751 6.4ZM18.6468 7.848C18.7694 7.848 18.8761 7.832 18.9668 7.8C19.0574 7.76533 19.1321 7.71867 19.1908 7.66C19.2521 7.60133 19.2974 7.53067 19.3268 7.448C19.3588 7.36533 19.3748 7.27467 19.3748 7.176C19.3748 6.97333 19.3134 6.81333 19.1908 6.696C19.0708 6.576 18.8894 6.516 18.6468 6.516C18.4041 6.516 18.2214 6.576 18.0988 6.696C17.9788 6.81333 17.9188 6.97333 17.9188 7.176C17.9188 7.272 17.9334 7.36133 17.9628 7.444C17.9948 7.52667 18.0401 7.59867 18.0988 7.66C18.1601 7.71867 18.2361 7.76533 18.3268 7.8C18.4201 7.832 18.5268 7.848 18.6468 7.848ZM19.7628 10.184C19.7628 10.104 19.7388 10.0387 19.6908 9.988C19.6428 9.93733 19.5774 9.89867 19.4948 9.872C19.4121 9.84267 19.3148 9.82133 19.2028 9.808C19.0934 9.79467 18.9761 9.78533 18.8508 9.78C18.7281 9.772 18.6001 9.76533 18.4668 9.76C18.3361 9.75467 18.2081 9.744 18.0828 9.728C17.9734 9.78933 17.8841 9.86133 17.8148 9.944C17.7481 10.0267 17.7148 10.1227 17.7148 10.232C17.7148 10.304 17.7321 10.3707 17.7668 10.432C17.8041 10.496 17.8614 10.5507 17.9388 10.596C18.0188 10.6413 18.1214 10.676 18.2468 10.7C18.3721 10.7267 18.5254 10.74 18.7068 10.74C18.8908 10.74 19.0494 10.7253 19.1828 10.696C19.3161 10.6693 19.4254 10.6307 19.5108 10.58C19.5988 10.532 19.6628 10.4733 19.7028 10.404C19.7428 10.3373 19.7628 10.264 19.7628 10.184ZM20.7468 6.036V6.404C20.7468 6.52133 20.6761 6.59333 20.5348 6.62L20.1668 6.688C20.2228 6.82933 20.2508 6.984 20.2508 7.152C20.2508 7.35467 20.2094 7.53867 20.1268 7.704C20.0468 7.86667 19.9348 8.00533 19.7908 8.12C19.6468 8.23467 19.4761 8.324 19.2788 8.388C19.0841 8.44933 18.8734 8.48 18.6468 8.48C18.5668 8.48 18.4894 8.476 18.4148 8.468C18.3401 8.46 18.2668 8.44933 18.1948 8.436C18.0668 8.51333 18.0028 8.6 18.0028 8.696C18.0028 8.77867 18.0401 8.84 18.1148 8.88C18.1921 8.91733 18.2934 8.944 18.4188 8.96C18.5441 8.976 18.6868 8.98667 18.8468 8.992C19.0068 8.99467 19.1708 9.00267 19.3388 9.016C19.5068 9.02933 19.6708 9.05333 19.8308 9.088C19.9908 9.12 20.1334 9.172 20.2588 9.244C20.3841 9.316 20.4841 9.41467 20.5588 9.54C20.6361 9.66267 20.6748 9.82133 20.6748 10.016C20.6748 10.1973 20.6294 10.3733 20.5388 10.544C20.4508 10.7147 20.3214 10.8667 20.1508 11C19.9828 11.1333 19.7748 11.24 19.5268 11.32C19.2814 11.4027 19.0014 11.444 18.6868 11.444C18.3774 11.444 18.1081 11.4133 17.8788 11.352C17.6494 11.2933 17.4588 11.2133 17.3068 11.112C17.1548 11.0133 17.0414 10.8987 16.9668 10.768C16.8921 10.6373 16.8548 10.5013 16.8548 10.36C16.8548 10.168 16.9121 10.008 17.0268 9.88C17.1441 9.74933 17.3041 9.64533 17.5068 9.568C17.3974 9.512 17.3108 9.43733 17.2468 9.344C17.1828 9.25067 17.1508 9.128 17.1508 8.976C17.1508 8.91467 17.1614 8.852 17.1828 8.788C17.2068 8.72133 17.2401 8.656 17.2828 8.592C17.3281 8.528 17.3841 8.468 17.4508 8.412C17.5174 8.35333 17.5961 8.30133 17.6868 8.256C17.4788 8.144 17.3148 7.99467 17.1948 7.808C17.0774 7.62133 17.0188 7.40267 17.0188 7.152C17.0188 6.94933 17.0588 6.76667 17.1388 6.604C17.2214 6.43867 17.3348 6.29867 17.4788 6.184C17.6254 6.06667 17.7974 5.97733 17.9948 5.916C18.1948 5.85467 18.4121 5.824 18.6468 5.824C18.8228 5.824 18.9881 5.84267 19.1428 5.88C19.2974 5.91467 19.4388 5.96667 19.5668 6.036H20.7468ZM22.2533 4.056V10H21.2653V4.056H22.2533ZM25.7617 7.476C25.7617 7.348 25.743 7.228 25.7057 7.116C25.671 7.00133 25.6177 6.90133 25.5457 6.816C25.4737 6.73067 25.3817 6.664 25.2697 6.616C25.1604 6.56533 25.0324 6.54 24.8857 6.54C24.6004 6.54 24.375 6.62133 24.2097 6.784C24.047 6.94667 23.943 7.17733 23.8977 7.476H25.7617ZM23.8777 8.072C23.8937 8.28267 23.931 8.46533 23.9897 8.62C24.0484 8.772 24.1257 8.89867 24.2217 9C24.3177 9.09867 24.431 9.17333 24.5617 9.224C24.695 9.272 24.8417 9.296 25.0017 9.296C25.1617 9.296 25.299 9.27733 25.4137 9.24C25.531 9.20267 25.6324 9.16133 25.7177 9.116C25.8057 9.07067 25.8817 9.02933 25.9457 8.992C26.0124 8.95467 26.0764 8.936 26.1377 8.936C26.2204 8.936 26.2817 8.96667 26.3217 9.028L26.6057 9.388C26.4964 9.516 26.3737 9.624 26.2377 9.712C26.1017 9.79733 25.959 9.86667 25.8097 9.92C25.663 9.97067 25.5124 10.0067 25.3577 10.028C25.2057 10.0493 25.0577 10.06 24.9137 10.06C24.6284 10.06 24.363 10.0133 24.1177 9.92C23.8724 9.824 23.659 9.684 23.4777 9.5C23.2964 9.31333 23.1537 9.084 23.0497 8.812C22.9457 8.53733 22.8937 8.22 22.8937 7.86C22.8937 7.58 22.939 7.31733 23.0297 7.072C23.1204 6.824 23.2497 6.60933 23.4177 6.428C23.5884 6.244 23.795 6.09867 24.0377 5.992C24.283 5.88533 24.559 5.832 24.8657 5.832C25.1244 5.832 25.363 5.87333 25.5817 5.956C25.8004 6.03867 25.9884 6.16 26.1457 6.32C26.303 6.47733 26.4257 6.672 26.5137 6.904C26.6044 7.13333 26.6497 7.396 26.6497 7.692C26.6497 7.84133 26.6337 7.94267 26.6017 7.996C26.5697 8.04667 26.5084 8.072 26.4177 8.072H23.8777Z" fill="black"/>
<g opacity="0.75">
<rect x="31.5" y="12" width="10" height="1" transform="rotate(-90 31.5 12)" fill="#979797"/>
</g>
<path d="M42.6345 5.268C42.6025 5.324 42.5678 5.36533 42.5305 5.392C42.4958 5.416 42.4518 5.428 42.3985 5.428C42.3425 5.428 42.2811 5.408 42.2145 5.368C42.1505 5.32533 42.0731 5.27867 41.9825 5.228C41.8918 5.17733 41.7851 5.132 41.6625 5.092C41.5425 5.04933 41.3998 5.028 41.2345 5.028C41.0851 5.028 40.9545 5.04667 40.8425 5.084C40.7305 5.11867 40.6358 5.168 40.5585 5.232C40.4838 5.296 40.4278 5.37333 40.3905 5.464C40.3531 5.552 40.3345 5.64933 40.3345 5.756C40.3345 5.892 40.3718 6.00533 40.4465 6.096C40.5238 6.18667 40.6251 6.264 40.7505 6.328C40.8758 6.392 41.0185 6.44933 41.1785 6.5C41.3385 6.55067 41.5025 6.60533 41.6705 6.664C41.8385 6.72 42.0025 6.78667 42.1625 6.864C42.3225 6.93867 42.4651 7.03467 42.5905 7.152C42.7158 7.26667 42.8158 7.408 42.8905 7.576C42.9678 7.744 43.0065 7.948 43.0065 8.188C43.0065 8.44933 42.9611 8.69467 42.8705 8.924C42.7825 9.15067 42.6518 9.34933 42.4785 9.52C42.3078 9.688 42.0985 9.82133 41.8505 9.92C41.6025 10.016 41.3185 10.064 40.9985 10.064C40.8145 10.064 40.6331 10.0453 40.4545 10.008C40.2758 9.97333 40.1038 9.92267 39.9385 9.856C39.7758 9.78933 39.6225 9.70933 39.4785 9.616C39.3345 9.52267 39.2065 9.41867 39.0945 9.304L39.4105 8.788C39.4371 8.75067 39.4718 8.72 39.5145 8.696C39.5571 8.66933 39.6025 8.656 39.6505 8.656C39.7171 8.656 39.7891 8.684 39.8665 8.74C39.9438 8.79333 40.0358 8.85333 40.1425 8.92C40.2491 8.98667 40.3731 9.048 40.5145 9.104C40.6585 9.15733 40.8305 9.184 41.0305 9.184C41.3371 9.184 41.5745 9.112 41.7425 8.968C41.9105 8.82133 41.9945 8.612 41.9945 8.34C41.9945 8.188 41.9558 8.064 41.8785 7.968C41.8038 7.872 41.7038 7.792 41.5785 7.728C41.4531 7.66133 41.3105 7.60533 41.1505 7.56C40.9905 7.51467 40.8278 7.46533 40.6625 7.412C40.4971 7.35867 40.3345 7.29467 40.1745 7.22C40.0145 7.14533 39.8718 7.048 39.7465 6.928C39.6211 6.808 39.5198 6.65867 39.4425 6.48C39.3678 6.29867 39.3305 6.076 39.3305 5.812C39.3305 5.60133 39.3718 5.396 39.4545 5.196C39.5398 4.996 39.6625 4.81867 39.8225 4.664C39.9825 4.50933 40.1798 4.38533 40.4145 4.292C40.6491 4.19867 40.9185 4.152 41.2225 4.152C41.5638 4.152 41.8785 4.20533 42.1665 4.312C42.4545 4.41867 42.6998 4.568 42.9025 4.76L42.6345 5.268ZM44.6024 6.336C44.7624 6.18667 44.9384 6.06533 45.1304 5.972C45.3224 5.87867 45.5477 5.832 45.8064 5.832C46.0304 5.832 46.2291 5.87067 46.4024 5.948C46.5757 6.02267 46.7197 6.12933 46.8344 6.268C46.9517 6.404 47.0397 6.568 47.0984 6.76C47.1597 6.94933 47.1904 7.15867 47.1904 7.388V10H46.2024V7.388C46.2024 7.13733 46.1451 6.944 46.0304 6.808C45.9157 6.66933 45.7411 6.6 45.5064 6.6C45.3357 6.6 45.1757 6.63867 45.0264 6.716C44.8771 6.79333 44.7357 6.89867 44.6024 7.032V10H43.6144V4.056H44.6024V6.336ZM49.034 5.896V10H48.042V5.896H49.034ZM49.17 4.7C49.17 4.78533 49.1527 4.86533 49.118 4.94C49.0834 5.01467 49.0367 5.08 48.978 5.136C48.922 5.192 48.8554 5.23733 48.778 5.272C48.7007 5.304 48.618 5.32 48.53 5.32C48.4447 5.32 48.3634 5.304 48.286 5.272C48.2114 5.23733 48.146 5.192 48.09 5.136C48.034 5.08 47.9887 5.01467 47.954 4.94C47.922 4.86533 47.906 4.78533 47.906 4.7C47.906 4.612 47.922 4.52933 47.954 4.452C47.9887 4.37467 48.034 4.308 48.09 4.252C48.146 4.196 48.2114 4.152 48.286 4.12C48.3634 4.08533 48.4447 4.068 48.53 4.068C48.618 4.068 48.7007 4.08533 48.778 4.12C48.8554 4.152 48.922 4.196 48.978 4.252C49.0367 4.308 49.0834 4.37467 49.118 4.452C49.1527 4.52933 49.17 4.612 49.17 4.7ZM53.8533 6.636V8.86C53.8533 8.988 53.8853 9.088 53.9493 9.16C54.0133 9.232 54.0986 9.268 54.2053 9.268C54.2666 9.268 54.3173 9.26133 54.3573 9.248C54.3999 9.232 54.4359 9.216 54.4653 9.2C54.4973 9.184 54.5253 9.16933 54.5493 9.156C54.5733 9.14 54.5973 9.132 54.6213 9.132C54.6506 9.132 54.6746 9.14 54.6933 9.156C54.7119 9.16933 54.7319 9.19067 54.7533 9.22L55.0493 9.7C54.9053 9.82 54.7399 9.91067 54.5533 9.972C54.3693 10.0333 54.1773 10.064 53.9773 10.064C53.6199 10.064 53.3453 9.964 53.1533 9.764C52.9613 9.56133 52.8653 9.28267 52.8653 8.928V6.636H51.1973V10H50.2093V6.64L49.8533 6.584C49.7759 6.568 49.7133 6.54133 49.6653 6.504C49.6199 6.464 49.5973 6.408 49.5973 6.336V5.932H50.2093V5.628C50.2093 5.39333 50.2439 5.18267 50.3133 4.996C50.3853 4.80933 50.4866 4.65067 50.6173 4.52C50.7506 4.38933 50.9119 4.28933 51.1013 4.22C51.2906 4.15067 51.5039 4.116 51.7413 4.116C51.9306 4.116 52.1066 4.14133 52.2693 4.192L52.2493 4.688C52.2466 4.72533 52.2359 4.756 52.2173 4.78C52.1986 4.80133 52.1733 4.81867 52.1413 4.832C52.1119 4.84267 52.0773 4.85067 52.0373 4.856C51.9973 4.85867 51.9546 4.86 51.9093 4.86C51.7919 4.86 51.6866 4.87333 51.5933 4.9C51.5026 4.924 51.4253 4.968 51.3613 5.032C51.2973 5.09333 51.2479 5.176 51.2133 5.28C51.1813 5.38133 51.1653 5.508 51.1653 5.66V5.932H52.9093L53.1213 4.808C53.1346 4.75467 53.1599 4.71333 53.1973 4.684C53.2346 4.65467 53.2826 4.64 53.3413 4.64H53.8533V5.932H54.9493V6.636H53.8533Z" fill="black"/>
<g opacity="0.75">
<rect x="61.5" y="12" width="10" height="1" transform="rotate(-90 61.5 12)" fill="#979797"/>
</g>
<path d="M73.7647 7.108C73.7647 7.532 73.694 7.92133 73.5527 8.276C73.4114 8.63067 73.2127 8.936 72.9567 9.192C72.7007 9.448 72.3927 9.64667 72.0327 9.788C71.6727 9.92933 71.2727 10 70.8327 10H68.6287V4.216H70.8327C71.2727 4.216 71.6727 4.288 72.0327 4.432C72.3927 4.57333 72.7007 4.772 72.9567 5.028C73.2127 5.28133 73.4114 5.58533 73.5527 5.94C73.694 6.29467 73.7647 6.684 73.7647 7.108ZM72.6607 7.108C72.6607 6.79067 72.618 6.50667 72.5327 6.256C72.45 6.00267 72.3287 5.78933 72.1687 5.616C72.0114 5.44 71.8194 5.30533 71.5927 5.212C71.3687 5.11867 71.1154 5.072 70.8327 5.072H69.7087V9.144H70.8327C71.1154 9.144 71.3687 9.09733 71.5927 9.004C71.8194 8.91067 72.0114 8.77733 72.1687 8.604C72.3287 8.428 72.45 8.21467 72.5327 7.964C72.618 7.71067 72.6607 7.42533 72.6607 7.108ZM75.3003 6.608C75.4283 6.36267 75.5803 6.17067 75.7563 6.032C75.9323 5.89067 76.1403 5.82 76.3803 5.82C76.5696 5.82 76.7216 5.86133 76.8363 5.944L76.7723 6.684C76.759 6.732 76.739 6.76667 76.7123 6.788C76.6883 6.80667 76.655 6.816 76.6123 6.816C76.5723 6.816 76.5123 6.80933 76.4323 6.796C76.355 6.78267 76.279 6.776 76.2043 6.776C76.095 6.776 75.9976 6.792 75.9123 6.824C75.827 6.856 75.7496 6.90267 75.6803 6.964C75.6136 7.02267 75.5536 7.09467 75.5003 7.18C75.4496 7.26533 75.4016 7.36267 75.3563 7.472V10H74.3683V5.896H74.9483C75.0496 5.896 75.1203 5.91467 75.1603 5.952C75.2003 5.98667 75.227 6.05067 75.2403 6.144L75.3003 6.608ZM79.346 8.248C79.0607 8.26133 78.8207 8.28667 78.626 8.324C78.4313 8.35867 78.2753 8.404 78.158 8.46C78.0407 8.516 77.9567 8.58133 77.906 8.656C77.8553 8.73067 77.83 8.812 77.83 8.9C77.83 9.07333 77.8807 9.19733 77.982 9.272C78.086 9.34667 78.2207 9.384 78.386 9.384C78.5887 9.384 78.7633 9.348 78.91 9.276C79.0593 9.20133 79.2047 9.08933 79.346 8.94V8.248ZM77.082 6.468C77.554 6.036 78.122 5.82 78.786 5.82C79.026 5.82 79.2407 5.86 79.43 5.94C79.6193 6.01733 79.7793 6.12667 79.91 6.268C80.0407 6.40667 80.1393 6.57333 80.206 6.768C80.2753 6.96267 80.31 7.176 80.31 7.408V10H79.862C79.7687 10 79.6967 9.98667 79.646 9.96C79.5953 9.93067 79.5553 9.87333 79.526 9.788L79.438 9.492C79.334 9.58533 79.2327 9.668 79.134 9.74C79.0353 9.80933 78.9327 9.868 78.826 9.916C78.7193 9.964 78.6047 10 78.482 10.024C78.362 10.0507 78.2287 10.064 78.082 10.064C77.9087 10.064 77.7487 10.0413 77.602 9.996C77.4553 9.948 77.3287 9.87733 77.222 9.784C77.1153 9.69067 77.0327 9.57467 76.974 9.436C76.9153 9.29733 76.886 9.136 76.886 8.952C76.886 8.848 76.9033 8.74533 76.938 8.644C76.9727 8.54 77.0287 8.44133 77.106 8.348C77.186 8.25467 77.2887 8.16667 77.414 8.084C77.5393 8.00133 77.6927 7.92933 77.874 7.868C78.058 7.80667 78.2713 7.75733 78.514 7.72C78.7567 7.68 79.034 7.656 79.346 7.648V7.408C79.346 7.13333 79.2873 6.93067 79.17 6.8C79.0527 6.66667 78.8833 6.6 78.662 6.6C78.502 6.6 78.3687 6.61867 78.262 6.656C78.158 6.69333 78.066 6.736 77.986 6.784C77.906 6.82933 77.8327 6.87067 77.766 6.908C77.702 6.94533 77.63 6.964 77.55 6.964C77.4807 6.964 77.422 6.94667 77.374 6.912C77.326 6.87467 77.2873 6.832 77.258 6.784L77.082 6.468ZM86.9414 5.896L85.6374 10H84.8454C84.7548 10 84.6921 9.94133 84.6574 9.824L83.9214 7.452C83.8974 7.372 83.8748 7.29333 83.8534 7.216C83.8348 7.136 83.8188 7.056 83.8054 6.976C83.7894 7.056 83.7708 7.13733 83.7494 7.22C83.7308 7.3 83.7094 7.38 83.6854 7.46L82.9374 9.824C82.9054 9.94133 82.8348 10 82.7254 10H81.9654L80.6654 5.896H81.4534C81.5254 5.896 81.5868 5.91333 81.6374 5.948C81.6881 5.98267 81.7214 6.02667 81.7374 6.08L82.3254 8.272C82.3548 8.392 82.3801 8.50933 82.4014 8.624C82.4254 8.73867 82.4454 8.85333 82.4614 8.968C82.4908 8.85333 82.5214 8.73867 82.5534 8.624C82.5881 8.50933 82.6241 8.392 82.6614 8.272L83.3414 6.072C83.3574 6.01867 83.3881 5.97467 83.4334 5.94C83.4814 5.90533 83.5388 5.888 83.6054 5.888H84.0414C84.1108 5.888 84.1694 5.90533 84.2174 5.94C84.2681 5.97467 84.3014 6.01867 84.3174 6.072L84.9774 8.272C85.0121 8.392 85.0441 8.51067 85.0734 8.628C85.1054 8.74267 85.1361 8.85733 85.1654 8.972C85.2001 8.74533 85.2494 8.512 85.3134 8.272L85.9174 6.08C85.9361 6.02667 85.9694 5.98267 86.0174 5.948C86.0654 5.91333 86.1228 5.896 86.1894 5.896H86.9414Z" fill="black"/>
<path d="M3.5 1H90.5V0H3.5V1ZM93 3.5V10.5H94V3.5H93ZM90.5 13H3.5V14H90.5V13ZM1 10.5V3.5H0V10.5H1ZM3.5 13C2.11929 13 1 11.8807 1 10.5H0C0 12.433 1.56701 14 3.5 14V13ZM93 10.5C93 11.8807 91.8807 13 90.5 13V14C92.433 14 94 12.433 94 10.5H93ZM90.5 1C91.8807 1 93 2.11929 93 3.5H94C94 1.567 92.433 0 90.5 0V1ZM3.5 0C1.567 0 0 1.567 0 3.5H1C1 2.11929 2.11929 1 3.5 1V0Z" fill="#979797"/>
<path d="M0.5 17.5C0.5 15.8431 1.84315 14.5 3.5 14.5H90.5C92.1569 14.5 93.5 15.8431 93.5 17.5V24.5C93.5 26.1569 92.1569 27.5 90.5 27.5H3.5C1.84315 27.5 0.5 26.1569 0.5 24.5V17.5Z" fill="#E3E3E3"/>
<path d="M9.82088 19.268C9.78888 19.324 9.75421 19.3653 9.71688 19.392C9.68221 19.416 9.63821 19.428 9.58488 19.428C9.52888 19.428 9.46754 19.408 9.40088 19.368C9.33688 19.3253 9.25954 19.2787 9.16888 19.228C9.07821 19.1773 8.97154 19.132 8.84888 19.092C8.72888 19.0493 8.58621 19.028 8.42088 19.028C8.27154 19.028 8.14088 19.0467 8.02888 19.084C7.91688 19.1187 7.82221 19.168 7.74488 19.232C7.67021 19.296 7.61421 19.3733 7.57688 19.464C7.53954 19.552 7.52088 19.6493 7.52088 19.756C7.52088 19.892 7.55821 20.0053 7.63288 20.096C7.71021 20.1867 7.81154 20.264 7.93688 20.328C8.06221 20.392 8.20488 20.4493 8.36488 20.5C8.52488 20.5507 8.68888 20.6053 8.85688 20.664C9.02488 20.72 9.18888 20.7867 9.34888 20.864C9.50888 20.9387 9.65154 21.0347 9.77688 21.152C9.90221 21.2667 10.0022 21.408 10.0769 21.576C10.1542 21.744 10.1929 21.948 10.1929 22.188C10.1929 22.4493 10.1475 22.6947 10.0569 22.924C9.96888 23.1507 9.83821 23.3493 9.66488 23.52C9.49421 23.688 9.28488 23.8213 9.03688 23.92C8.78888 24.016 8.50488 24.064 8.18488 24.064C8.00088 24.064 7.81954 24.0453 7.64088 24.008C7.46221 23.9733 7.29021 23.9227 7.12488 23.856C6.96221 23.7893 6.80888 23.7093 6.66488 23.616C6.52088 23.5227 6.39288 23.4187 6.28088 23.304L6.59688 22.788C6.62354 22.7507 6.65821 22.72 6.70088 22.696C6.74354 22.6693 6.78888 22.656 6.83688 22.656C6.90354 22.656 6.97554 22.684 7.05288 22.74C7.13021 22.7933 7.22221 22.8533 7.32888 22.92C7.43554 22.9867 7.55954 23.048 7.70088 23.104C7.84488 23.1573 8.01688 23.184 8.21688 23.184C8.52354 23.184 8.76088 23.112 8.92888 22.968C9.09688 22.8213 9.18088 22.612 9.18088 22.34C9.18088 22.188 9.14221 22.064 9.06488 21.968C8.99021 21.872 8.89021 21.792 8.76488 21.728C8.63954 21.6613 8.49688 21.6053 8.33688 21.56C8.17688 21.5147 8.01421 21.4653 7.84888 21.412C7.68354 21.3587 7.52088 21.2947 7.36088 21.22C7.20088 21.1453 7.05821 21.048 6.93288 20.928C6.80754 20.808 6.70621 20.6587 6.62888 20.48C6.55421 20.2987 6.51688 20.076 6.51688 19.812C6.51688 19.6013 6.55821 19.396 6.64088 19.196C6.72621 18.996 6.84888 18.8187 7.00888 18.664C7.16888 18.5093 7.36621 18.3853 7.60088 18.292C7.83554 18.1987 8.10488 18.152 8.40888 18.152C8.75021 18.152 9.06488 18.2053 9.35288 18.312C9.64088 18.4187 9.88621 18.568 10.0889 18.76L9.82088 19.268ZM11.8639 19.896V24H10.8719V19.896H11.8639ZM11.9999 18.7C11.9999 18.7853 11.9825 18.8653 11.9479 18.94C11.9132 19.0147 11.8665 19.08 11.8079 19.136C11.7519 19.192 11.6852 19.2373 11.6079 19.272C11.5305 19.304 11.4479 19.32 11.3599 19.32C11.2745 19.32 11.1932 19.304 11.1159 19.272C11.0412 19.2373 10.9759 19.192 10.9199 19.136C10.8639 19.08 10.8185 19.0147 10.7839 18.94C10.7519 18.8653 10.7359 18.7853 10.7359 18.7C10.7359 18.612 10.7519 18.5293 10.7839 18.452C10.8185 18.3747 10.8639 18.308 10.9199 18.252C10.9759 18.196 11.0412 18.152 11.1159 18.12C11.1932 18.0853 11.2745 18.068 11.3599 18.068C11.4479 18.068 11.5305 18.0853 11.6079 18.12C11.6852 18.152 11.7519 18.196 11.8079 18.252C11.8665 18.308 11.9132 18.3747 11.9479 18.452C11.9825 18.5293 11.9999 18.612 11.9999 18.7ZM13.6751 20.4C13.7578 20.3173 13.8445 20.2413 13.9351 20.172C14.0285 20.1 14.1258 20.04 14.2271 19.992C14.3311 19.9413 14.4418 19.9027 14.5591 19.876C14.6765 19.8467 14.8045 19.832 14.9431 19.832C15.1671 19.832 15.3658 19.8707 15.5391 19.948C15.7125 20.0227 15.8565 20.1293 15.9711 20.268C16.0885 20.404 16.1765 20.568 16.2351 20.76C16.2965 20.9493 16.3271 21.1587 16.3271 21.388V24H15.3391V21.388C15.3391 21.1373 15.2818 20.944 15.1671 20.808C15.0525 20.6693 14.8778 20.6 14.6431 20.6C14.4725 20.6 14.3125 20.6387 14.1631 20.716C14.0138 20.7933 13.8725 20.8987 13.7391 21.032V24H12.7511V19.896H13.3551C13.4831 19.896 13.5671 19.956 13.6071 20.076L13.6751 20.4ZM18.6468 21.848C18.7694 21.848 18.8761 21.832 18.9668 21.8C19.0574 21.7653 19.1321 21.7187 19.1908 21.66C19.2521 21.6013 19.2974 21.5307 19.3268 21.448C19.3588 21.3653 19.3748 21.2747 19.3748 21.176C19.3748 20.9733 19.3134 20.8133 19.1908 20.696C19.0708 20.576 18.8894 20.516 18.6468 20.516C18.4041 20.516 18.2214 20.576 18.0988 20.696C17.9788 20.8133 17.9188 20.9733 17.9188 21.176C17.9188 21.272 17.9334 21.3613 17.9628 21.444C17.9948 21.5267 18.0401 21.5987 18.0988 21.66C18.1601 21.7187 18.2361 21.7653 18.3268 21.8C18.4201 21.832 18.5268 21.848 18.6468 21.848ZM19.7628 24.184C19.7628 24.104 19.7388 24.0387 19.6908 23.988C19.6428 23.9373 19.5774 23.8987 19.4948 23.872C19.4121 23.8427 19.3148 23.8213 19.2028 23.808C19.0934 23.7947 18.9761 23.7853 18.8508 23.78C18.7281 23.772 18.6001 23.7653 18.4668 23.76C18.3361 23.7547 18.2081 23.744 18.0828 23.728C17.9734 23.7893 17.8841 23.8613 17.8148 23.944C17.7481 24.0267 17.7148 24.1227 17.7148 24.232C17.7148 24.304 17.7321 24.3707 17.7668 24.432C17.8041 24.496 17.8614 24.5507 17.9388 24.596C18.0188 24.6413 18.1214 24.676 18.2468 24.7C18.3721 24.7267 18.5254 24.74 18.7068 24.74C18.8908 24.74 19.0494 24.7253 19.1828 24.696C19.3161 24.6693 19.4254 24.6307 19.5108 24.58C19.5988 24.532 19.6628 24.4733 19.7028 24.404C19.7428 24.3373 19.7628 24.264 19.7628 24.184ZM20.7468 20.036V20.404C20.7468 20.5213 20.6761 20.5933 20.5348 20.62L20.1668 20.688C20.2228 20.8293 20.2508 20.984 20.2508 21.152C20.2508 21.3547 20.2094 21.5387 20.1268 21.704C20.0468 21.8667 19.9348 22.0053 19.7908 22.12C19.6468 22.2347 19.4761 22.324 19.2788 22.388C19.0841 22.4493 18.8734 22.48 18.6468 22.48C18.5668 22.48 18.4894 22.476 18.4148 22.468C18.3401 22.46 18.2668 22.4493 18.1948 22.436C18.0668 22.5133 18.0028 22.6 18.0028 22.696C18.0028 22.7787 18.0401 22.84 18.1148 22.88C18.1921 22.9173 18.2934 22.944 18.4188 22.96C18.5441 22.976 18.6868 22.9867 18.8468 22.992C19.0068 22.9947 19.1708 23.0027 19.3388 23.016C19.5068 23.0293 19.6708 23.0533 19.8308 23.088C19.9908 23.12 20.1334 23.172 20.2588 23.244C20.3841 23.316 20.4841 23.4147 20.5588 23.54C20.6361 23.6627 20.6748 23.8213 20.6748 24.016C20.6748 24.1973 20.6294 24.3733 20.5388 24.544C20.4508 24.7147 20.3214 24.8667 20.1508 25C19.9828 25.1333 19.7748 25.24 19.5268 25.32C19.2814 25.4027 19.0014 25.444 18.6868 25.444C18.3774 25.444 18.1081 25.4133 17.8788 25.352C17.6494 25.2933 17.4588 25.2133 17.3068 25.112C17.1548 25.0133 17.0414 24.8987 16.9668 24.768C16.8921 24.6373 16.8548 24.5013 16.8548 24.36C16.8548 24.168 16.9121 24.008 17.0268 23.88C17.1441 23.7493 17.3041 23.6453 17.5068 23.568C17.3974 23.512 17.3108 23.4373 17.2468 23.344C17.1828 23.2507 17.1508 23.128 17.1508 22.976C17.1508 22.9147 17.1614 22.852 17.1828 22.788C17.2068 22.7213 17.2401 22.656 17.2828 22.592C17.3281 22.528 17.3841 22.468 17.4508 22.412C17.5174 22.3533 17.5961 22.3013 17.6868 22.256C17.4788 22.144 17.3148 21.9947 17.1948 21.808C17.0774 21.6213 17.0188 21.4027 17.0188 21.152C17.0188 20.9493 17.0588 20.7667 17.1388 20.604C17.2214 20.4387 17.3348 20.2987 17.4788 20.184C17.6254 20.0667 17.7974 19.9773 17.9948 19.916C18.1948 19.8547 18.4121 19.824 18.6468 19.824C18.8228 19.824 18.9881 19.8427 19.1428 19.88C19.2974 19.9147 19.4388 19.9667 19.5668 20.036H20.7468ZM22.2533 18.056V24H21.2653V18.056H22.2533ZM25.7617 21.476C25.7617 21.348 25.743 21.228 25.7057 21.116C25.671 21.0013 25.6177 20.9013 25.5457 20.816C25.4737 20.7307 25.3817 20.664 25.2697 20.616C25.1604 20.5653 25.0324 20.54 24.8857 20.54C24.6004 20.54 24.375 20.6213 24.2097 20.784C24.047 20.9467 23.943 21.1773 23.8977 21.476H25.7617ZM23.8777 22.072C23.8937 22.2827 23.931 22.4653 23.9897 22.62C24.0484 22.772 24.1257 22.8987 24.2217 23C24.3177 23.0987 24.431 23.1733 24.5617 23.224C24.695 23.272 24.8417 23.296 25.0017 23.296C25.1617 23.296 25.299 23.2773 25.4137 23.24C25.531 23.2027 25.6324 23.1613 25.7177 23.116C25.8057 23.0707 25.8817 23.0293 25.9457 22.992C26.0124 22.9547 26.0764 22.936 26.1377 22.936C26.2204 22.936 26.2817 22.9667 26.3217 23.028L26.6057 23.388C26.4964 23.516 26.3737 23.624 26.2377 23.712C26.1017 23.7973 25.959 23.8667 25.8097 23.92C25.663 23.9707 25.5124 24.0067 25.3577 24.028C25.2057 24.0493 25.0577 24.06 24.9137 24.06C24.6284 24.06 24.363 24.0133 24.1177 23.92C23.8724 23.824 23.659 23.684 23.4777 23.5C23.2964 23.3133 23.1537 23.084 23.0497 22.812C22.9457 22.5373 22.8937 22.22 22.8937 21.86C22.8937 21.58 22.939 21.3173 23.0297 21.072C23.1204 20.824 23.2497 20.6093 23.4177 20.428C23.5884 20.244 23.795 20.0987 24.0377 19.992C24.283 19.8853 24.559 19.832 24.8657 19.832C25.1244 19.832 25.363 19.8733 25.5817 19.956C25.8004 20.0387 25.9884 20.16 26.1457 20.32C26.303 20.4773 26.4257 20.672 26.5137 20.904C26.6044 21.1333 26.6497 21.396 26.6497 21.692C26.6497 21.8413 26.6337 21.9427 26.6017 21.996C26.5697 22.0467 26.5084 22.072 26.4177 22.072H23.8777Z" fill="black"/>
<g opacity="0.75">
<rect x="31.5" y="26" width="10" height="1" transform="rotate(-90 31.5 26)" fill="#979797"/>
</g>
<rect x="33.5" y="16.5" width="27" height="9" rx="1" fill="#FF9A10"/>
<rect x="33.5" y="16.5" width="27" height="9" rx="1" stroke="#FF9A10"/>
<path d="M42.6345 19.268C42.6025 19.324 42.5678 19.3653 42.5305 19.392C42.4958 19.416 42.4518 19.428 42.3985 19.428C42.3425 19.428 42.2811 19.408 42.2145 19.368C42.1505 19.3253 42.0731 19.2787 41.9825 19.228C41.8918 19.1773 41.7851 19.132 41.6625 19.092C41.5425 19.0493 41.3998 19.028 41.2345 19.028C41.0851 19.028 40.9545 19.0467 40.8425 19.084C40.7305 19.1187 40.6358 19.168 40.5585 19.232C40.4838 19.296 40.4278 19.3733 40.3905 19.464C40.3531 19.552 40.3345 19.6493 40.3345 19.756C40.3345 19.892 40.3718 20.0053 40.4465 20.096C40.5238 20.1867 40.6251 20.264 40.7505 20.328C40.8758 20.392 41.0185 20.4493 41.1785 20.5C41.3385 20.5507 41.5025 20.6053 41.6705 20.664C41.8385 20.72 42.0025 20.7867 42.1625 20.864C42.3225 20.9387 42.4651 21.0347 42.5905 21.152C42.7158 21.2667 42.8158 21.408 42.8905 21.576C42.9678 21.744 43.0065 21.948 43.0065 22.188C43.0065 22.4493 42.9611 22.6947 42.8705 22.924C42.7825 23.1507 42.6518 23.3493 42.4785 23.52C42.3078 23.688 42.0985 23.8213 41.8505 23.92C41.6025 24.016 41.3185 24.064 40.9985 24.064C40.8145 24.064 40.6331 24.0453 40.4545 24.008C40.2758 23.9733 40.1038 23.9227 39.9385 23.856C39.7758 23.7893 39.6225 23.7093 39.4785 23.616C39.3345 23.5227 39.2065 23.4187 39.0945 23.304L39.4105 22.788C39.4371 22.7507 39.4718 22.72 39.5145 22.696C39.5571 22.6693 39.6025 22.656 39.6505 22.656C39.7171 22.656 39.7891 22.684 39.8665 22.74C39.9438 22.7933 40.0358 22.8533 40.1425 22.92C40.2491 22.9867 40.3731 23.048 40.5145 23.104C40.6585 23.1573 40.8305 23.184 41.0305 23.184C41.3371 23.184 41.5745 23.112 41.7425 22.968C41.9105 22.8213 41.9945 22.612 41.9945 22.34C41.9945 22.188 41.9558 22.064 41.8785 21.968C41.8038 21.872 41.7038 21.792 41.5785 21.728C41.4531 21.6613 41.3105 21.6053 41.1505 21.56C40.9905 21.5147 40.8278 21.4653 40.6625 21.412C40.4971 21.3587 40.3345 21.2947 40.1745 21.22C40.0145 21.1453 39.8718 21.048 39.7465 20.928C39.6211 20.808 39.5198 20.6587 39.4425 20.48C39.3678 20.2987 39.3305 20.076 39.3305 19.812C39.3305 19.6013 39.3718 19.396 39.4545 19.196C39.5398 18.996 39.6625 18.8187 39.8225 18.664C39.9825 18.5093 40.1798 18.3853 40.4145 18.292C40.6491 18.1987 40.9185 18.152 41.2225 18.152C41.5638 18.152 41.8785 18.2053 42.1665 18.312C42.4545 18.4187 42.6998 18.568 42.9025 18.76L42.6345 19.268ZM44.6024 20.336C44.7624 20.1867 44.9384 20.0653 45.1304 19.972C45.3224 19.8787 45.5477 19.832 45.8064 19.832C46.0304 19.832 46.2291 19.8707 46.4024 19.948C46.5757 20.0227 46.7197 20.1293 46.8344 20.268C46.9517 20.404 47.0397 20.568 47.0984 20.76C47.1597 20.9493 47.1904 21.1587 47.1904 21.388V24H46.2024V21.388C46.2024 21.1373 46.1451 20.944 46.0304 20.808C45.9157 20.6693 45.7411 20.6 45.5064 20.6C45.3357 20.6 45.1757 20.6387 45.0264 20.716C44.8771 20.7933 44.7357 20.8987 44.6024 21.032V24H43.6144V18.056H44.6024V20.336ZM49.034 19.896V24H48.042V19.896H49.034ZM49.17 18.7C49.17 18.7853 49.1527 18.8653 49.118 18.94C49.0834 19.0147 49.0367 19.08 48.978 19.136C48.922 19.192 48.8554 19.2373 48.778 19.272C48.7007 19.304 48.618 19.32 48.53 19.32C48.4447 19.32 48.3634 19.304 48.286 19.272C48.2114 19.2373 48.146 19.192 48.09 19.136C48.034 19.08 47.9887 19.0147 47.954 18.94C47.922 18.8653 47.906 18.7853 47.906 18.7C47.906 18.612 47.922 18.5293 47.954 18.452C47.9887 18.3747 48.034 18.308 48.09 18.252C48.146 18.196 48.2114 18.152 48.286 18.12C48.3634 18.0853 48.4447 18.068 48.53 18.068C48.618 18.068 48.7007 18.0853 48.778 18.12C48.8554 18.152 48.922 18.196 48.978 18.252C49.0367 18.308 49.0834 18.3747 49.118 18.452C49.1527 18.5293 49.17 18.612 49.17 18.7ZM53.8533 20.636V22.86C53.8533 22.988 53.8853 23.088 53.9493 23.16C54.0133 23.232 54.0986 23.268 54.2053 23.268C54.2666 23.268 54.3173 23.2613 54.3573 23.248C54.3999 23.232 54.4359 23.216 54.4653 23.2C54.4973 23.184 54.5253 23.1693 54.5493 23.156C54.5733 23.14 54.5973 23.132 54.6213 23.132C54.6506 23.132 54.6746 23.14 54.6933 23.156C54.7119 23.1693 54.7319 23.1907 54.7533 23.22L55.0493 23.7C54.9053 23.82 54.7399 23.9107 54.5533 23.972C54.3693 24.0333 54.1773 24.064 53.9773 24.064C53.6199 24.064 53.3453 23.964 53.1533 23.764C52.9613 23.5613 52.8653 23.2827 52.8653 22.928V20.636H51.1973V24H50.2093V20.64L49.8533 20.584C49.7759 20.568 49.7133 20.5413 49.6653 20.504C49.6199 20.464 49.5973 20.408 49.5973 20.336V19.932H50.2093V19.628C50.2093 19.3933 50.2439 19.1827 50.3133 18.996C50.3853 18.8093 50.4866 18.6507 50.6173 18.52C50.7506 18.3893 50.9119 18.2893 51.1013 18.22C51.2906 18.1507 51.5039 18.116 51.7413 18.116C51.9306 18.116 52.1066 18.1413 52.2693 18.192L52.2493 18.688C52.2466 18.7253 52.2359 18.756 52.2173 18.78C52.1986 18.8013 52.1733 18.8187 52.1413 18.832C52.1119 18.8427 52.0773 18.8507 52.0373 18.856C51.9973 18.8587 51.9546 18.86 51.9093 18.86C51.7919 18.86 51.6866 18.8733 51.5933 18.9C51.5026 18.924 51.4253 18.968 51.3613 19.032C51.2973 19.0933 51.2479 19.176 51.2133 19.28C51.1813 19.3813 51.1653 19.508 51.1653 19.66V19.932H52.9093L53.1213 18.808C53.1346 18.7547 53.1599 18.7133 53.1973 18.684C53.2346 18.6547 53.2826 18.64 53.3413 18.64H53.8533V19.932H54.9493V20.636H53.8533Z" fill="black"/>
<g opacity="0.75">
<rect x="61.5" y="26" width="10" height="1" transform="rotate(-90 61.5 26)" fill="#979797"/>
</g>
<path d="M73.7647 21.108C73.7647 21.532 73.694 21.9213 73.5527 22.276C73.4114 22.6307 73.2127 22.936 72.9567 23.192C72.7007 23.448 72.3927 23.6467 72.0327 23.788C71.6727 23.9293 71.2727 24 70.8327 24H68.6287V18.216H70.8327C71.2727 18.216 71.6727 18.288 72.0327 18.432C72.3927 18.5733 72.7007 18.772 72.9567 19.028C73.2127 19.2813 73.4114 19.5853 73.5527 19.94C73.694 20.2947 73.7647 20.684 73.7647 21.108ZM72.6607 21.108C72.6607 20.7907 72.618 20.5067 72.5327 20.256C72.45 20.0027 72.3287 19.7893 72.1687 19.616C72.0114 19.44 71.8194 19.3053 71.5927 19.212C71.3687 19.1187 71.1154 19.072 70.8327 19.072H69.7087V23.144H70.8327C71.1154 23.144 71.3687 23.0973 71.5927 23.004C71.8194 22.9107 72.0114 22.7773 72.1687 22.604C72.3287 22.428 72.45 22.2147 72.5327 21.964C72.618 21.7107 72.6607 21.4253 72.6607 21.108ZM75.3003 20.608C75.4283 20.3627 75.5803 20.1707 75.7563 20.032C75.9323 19.8907 76.1403 19.82 76.3803 19.82C76.5696 19.82 76.7216 19.8613 76.8363 19.944L76.7723 20.684C76.759 20.732 76.739 20.7667 76.7123 20.788C76.6883 20.8067 76.655 20.816 76.6123 20.816C76.5723 20.816 76.5123 20.8093 76.4323 20.796C76.355 20.7827 76.279 20.776 76.2043 20.776C76.095 20.776 75.9976 20.792 75.9123 20.824C75.827 20.856 75.7496 20.9027 75.6803 20.964C75.6136 21.0227 75.5536 21.0947 75.5003 21.18C75.4496 21.2653 75.4016 21.3627 75.3563 21.472V24H74.3683V19.896H74.9483C75.0496 19.896 75.1203 19.9147 75.1603 19.952C75.2003 19.9867 75.227 20.0507 75.2403 20.144L75.3003 20.608ZM79.346 22.248C79.0607 22.2613 78.8207 22.2867 78.626 22.324C78.4313 22.3587 78.2753 22.404 78.158 22.46C78.0407 22.516 77.9567 22.5813 77.906 22.656C77.8553 22.7307 77.83 22.812 77.83 22.9C77.83 23.0733 77.8807 23.1973 77.982 23.272C78.086 23.3467 78.2207 23.384 78.386 23.384C78.5887 23.384 78.7633 23.348 78.91 23.276C79.0593 23.2013 79.2047 23.0893 79.346 22.94V22.248ZM77.082 20.468C77.554 20.036 78.122 19.82 78.786 19.82C79.026 19.82 79.2407 19.86 79.43 19.94C79.6193 20.0173 79.7793 20.1267 79.91 20.268C80.0407 20.4067 80.1393 20.5733 80.206 20.768C80.2753 20.9627 80.31 21.176 80.31 21.408V24H79.862C79.7687 24 79.6967 23.9867 79.646 23.96C79.5953 23.9307 79.5553 23.8733 79.526 23.788L79.438 23.492C79.334 23.5853 79.2327 23.668 79.134 23.74C79.0353 23.8093 78.9327 23.868 78.826 23.916C78.7193 23.964 78.6047 24 78.482 24.024C78.362 24.0507 78.2287 24.064 78.082 24.064C77.9087 24.064 77.7487 24.0413 77.602 23.996C77.4553 23.948 77.3287 23.8773 77.222 23.784C77.1153 23.6907 77.0327 23.5747 76.974 23.436C76.9153 23.2973 76.886 23.136 76.886 22.952C76.886 22.848 76.9033 22.7453 76.938 22.644C76.9727 22.54 77.0287 22.4413 77.106 22.348C77.186 22.2547 77.2887 22.1667 77.414 22.084C77.5393 22.0013 77.6927 21.9293 77.874 21.868C78.058 21.8067 78.2713 21.7573 78.514 21.72C78.7567 21.68 79.034 21.656 79.346 21.648V21.408C79.346 21.1333 79.2873 20.9307 79.17 20.8C79.0527 20.6667 78.8833 20.6 78.662 20.6C78.502 20.6 78.3687 20.6187 78.262 20.656C78.158 20.6933 78.066 20.736 77.986 20.784C77.906 20.8293 77.8327 20.8707 77.766 20.908C77.702 20.9453 77.63 20.964 77.55 20.964C77.4807 20.964 77.422 20.9467 77.374 20.912C77.326 20.8747 77.2873 20.832 77.258 20.784L77.082 20.468ZM86.9414 19.896L85.6374 24H84.8454C84.7548 24 84.6921 23.9413 84.6574 23.824L83.9214 21.452C83.8974 21.372 83.8748 21.2933 83.8534 21.216C83.8348 21.136 83.8188 21.056 83.8054 20.976C83.7894 21.056 83.7708 21.1373 83.7494 21.22C83.7308 21.3 83.7094 21.38 83.6854 21.46L82.9374 23.824C82.9054 23.9413 82.8348 24 82.7254 24H81.9654L80.6654 19.896H81.4534C81.5254 19.896 81.5868 19.9133 81.6374 19.948C81.6881 19.9827 81.7214 20.0267 81.7374 20.08L82.3254 22.272C82.3548 22.392 82.3801 22.5093 82.4014 22.624C82.4254 22.7387 82.4454 22.8533 82.4614 22.968C82.4908 22.8533 82.5214 22.7387 82.5534 22.624C82.5881 22.5093 82.6241 22.392 82.6614 22.272L83.3414 20.072C83.3574 20.0187 83.3881 19.9747 83.4334 19.94C83.4814 19.9053 83.5388 19.888 83.6054 19.888H84.0414C84.1108 19.888 84.1694 19.9053 84.2174 19.94C84.2681 19.9747 84.3014 20.0187 84.3174 20.072L84.9774 22.272C85.0121 22.392 85.0441 22.5107 85.0734 22.628C85.1054 22.7427 85.1361 22.8573 85.1654 22.972C85.2001 22.7453 85.2494 22.512 85.3134 22.272L85.9174 20.08C85.9361 20.0267 85.9694 19.9827 86.0174 19.948C86.0654 19.9133 86.1228 19.896 86.1894 19.896H86.9414Z" fill="black"/>
<path d="M3.5 15H90.5V14H3.5V15ZM93 17.5V24.5H94V17.5H93ZM90.5 27H3.5V28H90.5V27ZM1 24.5V17.5H0V24.5H1ZM3.5 27C2.11929 27 1 25.8807 1 24.5H0C0 26.433 1.56701 28 3.5 28V27ZM93 24.5C93 25.8807 91.8807 27 90.5 27V28C92.433 28 94 26.433 94 24.5H93ZM90.5 15C91.8807 15 93 16.1193 93 17.5H94C94 15.567 92.433 14 90.5 14V15ZM3.5 14C1.567 14 0 15.567 0 17.5H1C1 16.1193 2.11929 15 3.5 15V14Z" fill="#979797"/>
<path d="M0.5 31.5C0.5 29.8431 1.84315 28.5 3.5 28.5H90.5C92.1569 28.5 93.5 29.8431 93.5 31.5V38.5C93.5 40.1569 92.1569 41.5 90.5 41.5H3.5C1.84315 41.5 0.5 40.1569 0.5 38.5V31.5Z" fill="#E3E3E3"/>
<path d="M9.82088 33.268C9.78888 33.324 9.75421 33.3653 9.71688 33.392C9.68221 33.416 9.63821 33.428 9.58488 33.428C9.52888 33.428 9.46754 33.408 9.40088 33.368C9.33688 33.3253 9.25954 33.2787 9.16888 33.228C9.07821 33.1773 8.97154 33.132 8.84888 33.092C8.72888 33.0493 8.58621 33.028 8.42088 33.028C8.27154 33.028 8.14088 33.0467 8.02888 33.084C7.91688 33.1187 7.82221 33.168 7.74488 33.232C7.67021 33.296 7.61421 33.3733 7.57688 33.464C7.53954 33.552 7.52088 33.6493 7.52088 33.756C7.52088 33.892 7.55821 34.0053 7.63288 34.096C7.71021 34.1867 7.81154 34.264 7.93688 34.328C8.06221 34.392 8.20488 34.4493 8.36488 34.5C8.52488 34.5507 8.68888 34.6053 8.85688 34.664C9.02488 34.72 9.18888 34.7867 9.34888 34.864C9.50888 34.9387 9.65154 35.0347 9.77688 35.152C9.90221 35.2667 10.0022 35.408 10.0769 35.576C10.1542 35.744 10.1929 35.948 10.1929 36.188C10.1929 36.4493 10.1475 36.6947 10.0569 36.924C9.96888 37.1507 9.83821 37.3493 9.66488 37.52C9.49421 37.688 9.28488 37.8213 9.03688 37.92C8.78888 38.016 8.50488 38.064 8.18488 38.064C8.00088 38.064 7.81954 38.0453 7.64088 38.008C7.46221 37.9733 7.29021 37.9227 7.12488 37.856C6.96221 37.7893 6.80888 37.7093 6.66488 37.616C6.52088 37.5227 6.39288 37.4187 6.28088 37.304L6.59688 36.788C6.62354 36.7507 6.65821 36.72 6.70088 36.696C6.74354 36.6693 6.78888 36.656 6.83688 36.656C6.90354 36.656 6.97554 36.684 7.05288 36.74C7.13021 36.7933 7.22221 36.8533 7.32888 36.92C7.43554 36.9867 7.55954 37.048 7.70088 37.104C7.84488 37.1573 8.01688 37.184 8.21688 37.184C8.52354 37.184 8.76088 37.112 8.92888 36.968C9.09688 36.8213 9.18088 36.612 9.18088 36.34C9.18088 36.188 9.14221 36.064 9.06488 35.968C8.99021 35.872 8.89021 35.792 8.76488 35.728C8.63954 35.6613 8.49688 35.6053 8.33688 35.56C8.17688 35.5147 8.01421 35.4653 7.84888 35.412C7.68354 35.3587 7.52088 35.2947 7.36088 35.22C7.20088 35.1453 7.05821 35.048 6.93288 34.928C6.80754 34.808 6.70621 34.6587 6.62888 34.48C6.55421 34.2987 6.51688 34.076 6.51688 33.812C6.51688 33.6013 6.55821 33.396 6.64088 33.196C6.72621 32.996 6.84888 32.8187 7.00888 32.664C7.16888 32.5093 7.36621 32.3853 7.60088 32.292C7.83554 32.1987 8.10488 32.152 8.40888 32.152C8.75021 32.152 9.06488 32.2053 9.35288 32.312C9.64088 32.4187 9.88621 32.568 10.0889 32.76L9.82088 33.268ZM11.8639 33.896V38H10.8719V33.896H11.8639ZM11.9999 32.7C11.9999 32.7853 11.9825 32.8653 11.9479 32.94C11.9132 33.0147 11.8665 33.08 11.8079 33.136C11.7519 33.192 11.6852 33.2373 11.6079 33.272C11.5305 33.304 11.4479 33.32 11.3599 33.32C11.2745 33.32 11.1932 33.304 11.1159 33.272C11.0412 33.2373 10.9759 33.192 10.9199 33.136C10.8639 33.08 10.8185 33.0147 10.7839 32.94C10.7519 32.8653 10.7359 32.7853 10.7359 32.7C10.7359 32.612 10.7519 32.5293 10.7839 32.452C10.8185 32.3747 10.8639 32.308 10.9199 32.252C10.9759 32.196 11.0412 32.152 11.1159 32.12C11.1932 32.0853 11.2745 32.068 11.3599 32.068C11.4479 32.068 11.5305 32.0853 11.6079 32.12C11.6852 32.152 11.7519 32.196 11.8079 32.252C11.8665 32.308 11.9132 32.3747 11.9479 32.452C11.9825 32.5293 11.9999 32.612 11.9999 32.7ZM13.6751 34.4C13.7578 34.3173 13.8445 34.2413 13.9351 34.172C14.0285 34.1 14.1258 34.04 14.2271 33.992C14.3311 33.9413 14.4418 33.9027 14.5591 33.876C14.6765 33.8467 14.8045 33.832 14.9431 33.832C15.1671 33.832 15.3658 33.8707 15.5391 33.948C15.7125 34.0227 15.8565 34.1293 15.9711 34.268C16.0885 34.404 16.1765 34.568 16.2351 34.76C16.2965 34.9493 16.3271 35.1587 16.3271 35.388V38H15.3391V35.388C15.3391 35.1373 15.2818 34.944 15.1671 34.808C15.0525 34.6693 14.8778 34.6 14.6431 34.6C14.4725 34.6 14.3125 34.6387 14.1631 34.716C14.0138 34.7933 13.8725 34.8987 13.7391 35.032V38H12.7511V33.896H13.3551C13.4831 33.896 13.5671 33.956 13.6071 34.076L13.6751 34.4ZM18.6468 35.848C18.7694 35.848 18.8761 35.832 18.9668 35.8C19.0574 35.7653 19.1321 35.7187 19.1908 35.66C19.2521 35.6013 19.2974 35.5307 19.3268 35.448C19.3588 35.3653 19.3748 35.2747 19.3748 35.176C19.3748 34.9733 19.3134 34.8133 19.1908 34.696C19.0708 34.576 18.8894 34.516 18.6468 34.516C18.4041 34.516 18.2214 34.576 18.0988 34.696C17.9788 34.8133 17.9188 34.9733 17.9188 35.176C17.9188 35.272 17.9334 35.3613 17.9628 35.444C17.9948 35.5267 18.0401 35.5987 18.0988 35.66C18.1601 35.7187 18.2361 35.7653 18.3268 35.8C18.4201 35.832 18.5268 35.848 18.6468 35.848ZM19.7628 38.184C19.7628 38.104 19.7388 38.0387 19.6908 37.988C19.6428 37.9373 19.5774 37.8987 19.4948 37.872C19.4121 37.8427 19.3148 37.8213 19.2028 37.808C19.0934 37.7947 18.9761 37.7853 18.8508 37.78C18.7281 37.772 18.6001 37.7653 18.4668 37.76C18.3361 37.7547 18.2081 37.744 18.0828 37.728C17.9734 37.7893 17.8841 37.8613 17.8148 37.944C17.7481 38.0267 17.7148 38.1227 17.7148 38.232C17.7148 38.304 17.7321 38.3707 17.7668 38.432C17.8041 38.496 17.8614 38.5507 17.9388 38.596C18.0188 38.6413 18.1214 38.676 18.2468 38.7C18.3721 38.7267 18.5254 38.74 18.7068 38.74C18.8908 38.74 19.0494 38.7253 19.1828 38.696C19.3161 38.6693 19.4254 38.6307 19.5108 38.58C19.5988 38.532 19.6628 38.4733 19.7028 38.404C19.7428 38.3373 19.7628 38.264 19.7628 38.184ZM20.7468 34.036V34.404C20.7468 34.5213 20.6761 34.5933 20.5348 34.62L20.1668 34.688C20.2228 34.8293 20.2508 34.984 20.2508 35.152C20.2508 35.3547 20.2094 35.5387 20.1268 35.704C20.0468 35.8667 19.9348 36.0053 19.7908 36.12C19.6468 36.2347 19.4761 36.324 19.2788 36.388C19.0841 36.4493 18.8734 36.48 18.6468 36.48C18.5668 36.48 18.4894 36.476 18.4148 36.468C18.3401 36.46 18.2668 36.4493 18.1948 36.436C18.0668 36.5133 18.0028 36.6 18.0028 36.696C18.0028 36.7787 18.0401 36.84 18.1148 36.88C18.1921 36.9173 18.2934 36.944 18.4188 36.96C18.5441 36.976 18.6868 36.9867 18.8468 36.992C19.0068 36.9947 19.1708 37.0027 19.3388 37.016C19.5068 37.0293 19.6708 37.0533 19.8308 37.088C19.9908 37.12 20.1334 37.172 20.2588 37.244C20.3841 37.316 20.4841 37.4147 20.5588 37.54C20.6361 37.6627 20.6748 37.8213 20.6748 38.016C20.6748 38.1973 20.6294 38.3733 20.5388 38.544C20.4508 38.7147 20.3214 38.8667 20.1508 39C19.9828 39.1333 19.7748 39.24 19.5268 39.32C19.2814 39.4027 19.0014 39.444 18.6868 39.444C18.3774 39.444 18.1081 39.4133 17.8788 39.352C17.6494 39.2933 17.4588 39.2133 17.3068 39.112C17.1548 39.0133 17.0414 38.8987 16.9668 38.768C16.8921 38.6373 16.8548 38.5013 16.8548 38.36C16.8548 38.168 16.9121 38.008 17.0268 37.88C17.1441 37.7493 17.3041 37.6453 17.5068 37.568C17.3974 37.512 17.3108 37.4373 17.2468 37.344C17.1828 37.2507 17.1508 37.128 17.1508 36.976C17.1508 36.9147 17.1614 36.852 17.1828 36.788C17.2068 36.7213 17.2401 36.656 17.2828 36.592C17.3281 36.528 17.3841 36.468 17.4508 36.412C17.5174 36.3533 17.5961 36.3013 17.6868 36.256C17.4788 36.144 17.3148 35.9947 17.1948 35.808C17.0774 35.6213 17.0188 35.4027 17.0188 35.152C17.0188 34.9493 17.0588 34.7667 17.1388 34.604C17.2214 34.4387 17.3348 34.2987 17.4788 34.184C17.6254 34.0667 17.7974 33.9773 17.9948 33.916C18.1948 33.8547 18.4121 33.824 18.6468 33.824C18.8228 33.824 18.9881 33.8427 19.1428 33.88C19.2974 33.9147 19.4388 33.9667 19.5668 34.036H20.7468ZM22.2533 32.056V38H21.2653V32.056H22.2533ZM25.7617 35.476C25.7617 35.348 25.743 35.228 25.7057 35.116C25.671 35.0013 25.6177 34.9013 25.5457 34.816C25.4737 34.7307 25.3817 34.664 25.2697 34.616C25.1604 34.5653 25.0324 34.54 24.8857 34.54C24.6004 34.54 24.375 34.6213 24.2097 34.784C24.047 34.9467 23.943 35.1773 23.8977 35.476H25.7617ZM23.8777 36.072C23.8937 36.2827 23.931 36.4653 23.9897 36.62C24.0484 36.772 24.1257 36.8987 24.2217 37C24.3177 37.0987 24.431 37.1733 24.5617 37.224C24.695 37.272 24.8417 37.296 25.0017 37.296C25.1617 37.296 25.299 37.2773 25.4137 37.24C25.531 37.2027 25.6324 37.1613 25.7177 37.116C25.8057 37.0707 25.8817 37.0293 25.9457 36.992C26.0124 36.9547 26.0764 36.936 26.1377 36.936C26.2204 36.936 26.2817 36.9667 26.3217 37.028L26.6057 37.388C26.4964 37.516 26.3737 37.624 26.2377 37.712C26.1017 37.7973 25.959 37.8667 25.8097 37.92C25.663 37.9707 25.5124 38.0067 25.3577 38.028C25.2057 38.0493 25.0577 38.06 24.9137 38.06C24.6284 38.06 24.363 38.0133 24.1177 37.92C23.8724 37.824 23.659 37.684 23.4777 37.5C23.2964 37.3133 23.1537 37.084 23.0497 36.812C22.9457 36.5373 22.8937 36.22 22.8937 35.86C22.8937 35.58 22.939 35.3173 23.0297 35.072C23.1204 34.824 23.2497 34.6093 23.4177 34.428C23.5884 34.244 23.795 34.0987 24.0377 33.992C24.283 33.8853 24.559 33.832 24.8657 33.832C25.1244 33.832 25.363 33.8733 25.5817 33.956C25.8004 34.0387 25.9884 34.16 26.1457 34.32C26.303 34.4773 26.4257 34.672 26.5137 34.904C26.6044 35.1333 26.6497 35.396 26.6497 35.692C26.6497 35.8413 26.6337 35.9427 26.6017 35.996C26.5697 36.0467 26.5084 36.072 26.4177 36.072H23.8777Z" fill="black"/>
<g opacity="0.75">
<rect x="31.5" y="40" width="10" height="1" transform="rotate(-90 31.5 40)" fill="#979797"/>
</g>
<path d="M42.6345 33.268C42.6025 33.324 42.5678 33.3653 42.5305 33.392C42.4958 33.416 42.4518 33.428 42.3985 33.428C42.3425 33.428 42.2811 33.408 42.2145 33.368C42.1505 33.3253 42.0731 33.2787 41.9825 33.228C41.8918 33.1773 41.7851 33.132 41.6625 33.092C41.5425 33.0493 41.3998 33.028 41.2345 33.028C41.0851 33.028 40.9545 33.0467 40.8425 33.084C40.7305 33.1187 40.6358 33.168 40.5585 33.232C40.4838 33.296 40.4278 33.3733 40.3905 33.464C40.3531 33.552 40.3345 33.6493 40.3345 33.756C40.3345 33.892 40.3718 34.0053 40.4465 34.096C40.5238 34.1867 40.6251 34.264 40.7505 34.328C40.8758 34.392 41.0185 34.4493 41.1785 34.5C41.3385 34.5507 41.5025 34.6053 41.6705 34.664C41.8385 34.72 42.0025 34.7867 42.1625 34.864C42.3225 34.9387 42.4651 35.0347 42.5905 35.152C42.7158 35.2667 42.8158 35.408 42.8905 35.576C42.9678 35.744 43.0065 35.948 43.0065 36.188C43.0065 36.4493 42.9611 36.6947 42.8705 36.924C42.7825 37.1507 42.6518 37.3493 42.4785 37.52C42.3078 37.688 42.0985 37.8213 41.8505 37.92C41.6025 38.016 41.3185 38.064 40.9985 38.064C40.8145 38.064 40.6331 38.0453 40.4545 38.008C40.2758 37.9733 40.1038 37.9227 39.9385 37.856C39.7758 37.7893 39.6225 37.7093 39.4785 37.616C39.3345 37.5227 39.2065 37.4187 39.0945 37.304L39.4105 36.788C39.4371 36.7507 39.4718 36.72 39.5145 36.696C39.5571 36.6693 39.6025 36.656 39.6505 36.656C39.7171 36.656 39.7891 36.684 39.8665 36.74C39.9438 36.7933 40.0358 36.8533 40.1425 36.92C40.2491 36.9867 40.3731 37.048 40.5145 37.104C40.6585 37.1573 40.8305 37.184 41.0305 37.184C41.3371 37.184 41.5745 37.112 41.7425 36.968C41.9105 36.8213 41.9945 36.612 41.9945 36.34C41.9945 36.188 41.9558 36.064 41.8785 35.968C41.8038 35.872 41.7038 35.792 41.5785 35.728C41.4531 35.6613 41.3105 35.6053 41.1505 35.56C40.9905 35.5147 40.8278 35.4653 40.6625 35.412C40.4971 35.3587 40.3345 35.2947 40.1745 35.22C40.0145 35.1453 39.8718 35.048 39.7465 34.928C39.6211 34.808 39.5198 34.6587 39.4425 34.48C39.3678 34.2987 39.3305 34.076 39.3305 33.812C39.3305 33.6013 39.3718 33.396 39.4545 33.196C39.5398 32.996 39.6625 32.8187 39.8225 32.664C39.9825 32.5093 40.1798 32.3853 40.4145 32.292C40.6491 32.1987 40.9185 32.152 41.2225 32.152C41.5638 32.152 41.8785 32.2053 42.1665 32.312C42.4545 32.4187 42.6998 32.568 42.9025 32.76L42.6345 33.268ZM44.6024 34.336C44.7624 34.1867 44.9384 34.0653 45.1304 33.972C45.3224 33.8787 45.5477 33.832 45.8064 33.832C46.0304 33.832 46.2291 33.8707 46.4024 33.948C46.5757 34.0227 46.7197 34.1293 46.8344 34.268C46.9517 34.404 47.0397 34.568 47.0984 34.76C47.1597 34.9493 47.1904 35.1587 47.1904 35.388V38H46.2024V35.388C46.2024 35.1373 46.1451 34.944 46.0304 34.808C45.9157 34.6693 45.7411 34.6 45.5064 34.6C45.3357 34.6 45.1757 34.6387 45.0264 34.716C44.8771 34.7933 44.7357 34.8987 44.6024 35.032V38H43.6144V32.056H44.6024V34.336ZM49.034 33.896V38H48.042V33.896H49.034ZM49.17 32.7C49.17 32.7853 49.1527 32.8653 49.118 32.94C49.0834 33.0147 49.0367 33.08 48.978 33.136C48.922 33.192 48.8554 33.2373 48.778 33.272C48.7007 33.304 48.618 33.32 48.53 33.32C48.4447 33.32 48.3634 33.304 48.286 33.272C48.2114 33.2373 48.146 33.192 48.09 33.136C48.034 33.08 47.9887 33.0147 47.954 32.94C47.922 32.8653 47.906 32.7853 47.906 32.7C47.906 32.612 47.922 32.5293 47.954 32.452C47.9887 32.3747 48.034 32.308 48.09 32.252C48.146 32.196 48.2114 32.152 48.286 32.12C48.3634 32.0853 48.4447 32.068 48.53 32.068C48.618 32.068 48.7007 32.0853 48.778 32.12C48.8554 32.152 48.922 32.196 48.978 32.252C49.0367 32.308 49.0834 32.3747 49.118 32.452C49.1527 32.5293 49.17 32.612 49.17 32.7ZM53.8533 34.636V36.86C53.8533 36.988 53.8853 37.088 53.9493 37.16C54.0133 37.232 54.0986 37.268 54.2053 37.268C54.2666 37.268 54.3173 37.2613 54.3573 37.248C54.3999 37.232 54.4359 37.216 54.4653 37.2C54.4973 37.184 54.5253 37.1693 54.5493 37.156C54.5733 37.14 54.5973 37.132 54.6213 37.132C54.6506 37.132 54.6746 37.14 54.6933 37.156C54.7119 37.1693 54.7319 37.1907 54.7533 37.22L55.0493 37.7C54.9053 37.82 54.7399 37.9107 54.5533 37.972C54.3693 38.0333 54.1773 38.064 53.9773 38.064C53.6199 38.064 53.3453 37.964 53.1533 37.764C52.9613 37.5613 52.8653 37.2827 52.8653 36.928V34.636H51.1973V38H50.2093V34.64L49.8533 34.584C49.7759 34.568 49.7133 34.5413 49.6653 34.504C49.6199 34.464 49.5973 34.408 49.5973 34.336V33.932H50.2093V33.628C50.2093 33.3933 50.2439 33.1827 50.3133 32.996C50.3853 32.8093 50.4866 32.6507 50.6173 32.52C50.7506 32.3893 50.9119 32.2893 51.1013 32.22C51.2906 32.1507 51.5039 32.116 51.7413 32.116C51.9306 32.116 52.1066 32.1413 52.2693 32.192L52.2493 32.688C52.2466 32.7253 52.2359 32.756 52.2173 32.78C52.1986 32.8013 52.1733 32.8187 52.1413 32.832C52.1119 32.8427 52.0773 32.8507 52.0373 32.856C51.9973 32.8587 51.9546 32.86 51.9093 32.86C51.7919 32.86 51.6866 32.8733 51.5933 32.9C51.5026 32.924 51.4253 32.968 51.3613 33.032C51.2973 33.0933 51.2479 33.176 51.2133 33.28C51.1813 33.3813 51.1653 33.508 51.1653 33.66V33.932H52.9093L53.1213 32.808C53.1346 32.7547 53.1599 32.7133 53.1973 32.684C53.2346 32.6547 53.2826 32.64 53.3413 32.64H53.8533V33.932H54.9493V34.636H53.8533Z" fill="black"/>
<g opacity="0.75">
<rect x="61.5" y="40" width="10" height="1" transform="rotate(-90 61.5 40)" fill="#979797"/>
</g>
<rect x="63.5" y="30.5" width="28" height="9" rx="1" fill="#FF9A10"/>
<rect x="63.5" y="30.5" width="28" height="9" rx="1" stroke="#FF9A10"/>
<path d="M73.7647 35.108C73.7647 35.532 73.694 35.9213 73.5527 36.276C73.4114 36.6307 73.2127 36.936 72.9567 37.192C72.7007 37.448 72.3927 37.6467 72.0327 37.788C71.6727 37.9293 71.2727 38 70.8327 38H68.6287V32.216H70.8327C71.2727 32.216 71.6727 32.288 72.0327 32.432C72.3927 32.5733 72.7007 32.772 72.9567 33.028C73.2127 33.2813 73.4114 33.5853 73.5527 33.94C73.694 34.2947 73.7647 34.684 73.7647 35.108ZM72.6607 35.108C72.6607 34.7907 72.618 34.5067 72.5327 34.256C72.45 34.0027 72.3287 33.7893 72.1687 33.616C72.0114 33.44 71.8194 33.3053 71.5927 33.212C71.3687 33.1187 71.1154 33.072 70.8327 33.072H69.7087V37.144H70.8327C71.1154 37.144 71.3687 37.0973 71.5927 37.004C71.8194 36.9107 72.0114 36.7773 72.1687 36.604C72.3287 36.428 72.45 36.2147 72.5327 35.964C72.618 35.7107 72.6607 35.4253 72.6607 35.108ZM75.3003 34.608C75.4283 34.3627 75.5803 34.1707 75.7563 34.032C75.9323 33.8907 76.1403 33.82 76.3803 33.82C76.5696 33.82 76.7216 33.8613 76.8363 33.944L76.7723 34.684C76.759 34.732 76.739 34.7667 76.7123 34.788C76.6883 34.8067 76.655 34.816 76.6123 34.816C76.5723 34.816 76.5123 34.8093 76.4323 34.796C76.355 34.7827 76.279 34.776 76.2043 34.776C76.095 34.776 75.9976 34.792 75.9123 34.824C75.827 34.856 75.7496 34.9027 75.6803 34.964C75.6136 35.0227 75.5536 35.0947 75.5003 35.18C75.4496 35.2653 75.4016 35.3627 75.3563 35.472V38H74.3683V33.896H74.9483C75.0496 33.896 75.1203 33.9147 75.1603 33.952C75.2003 33.9867 75.227 34.0507 75.2403 34.144L75.3003 34.608ZM79.346 36.248C79.0607 36.2613 78.8207 36.2867 78.626 36.324C78.4313 36.3587 78.2753 36.404 78.158 36.46C78.0407 36.516 77.9567 36.5813 77.906 36.656C77.8553 36.7307 77.83 36.812 77.83 36.9C77.83 37.0733 77.8807 37.1973 77.982 37.272C78.086 37.3467 78.2207 37.384 78.386 37.384C78.5887 37.384 78.7633 37.348 78.91 37.276C79.0593 37.2013 79.2047 37.0893 79.346 36.94V36.248ZM77.082 34.468C77.554 34.036 78.122 33.82 78.786 33.82C79.026 33.82 79.2407 33.86 79.43 33.94C79.6193 34.0173 79.7793 34.1267 79.91 34.268C80.0407 34.4067 80.1393 34.5733 80.206 34.768C80.2753 34.9627 80.31 35.176 80.31 35.408V38H79.862C79.7687 38 79.6967 37.9867 79.646 37.96C79.5953 37.9307 79.5553 37.8733 79.526 37.788L79.438 37.492C79.334 37.5853 79.2327 37.668 79.134 37.74C79.0353 37.8093 78.9327 37.868 78.826 37.916C78.7193 37.964 78.6047 38 78.482 38.024C78.362 38.0507 78.2287 38.064 78.082 38.064C77.9087 38.064 77.7487 38.0413 77.602 37.996C77.4553 37.948 77.3287 37.8773 77.222 37.784C77.1153 37.6907 77.0327 37.5747 76.974 37.436C76.9153 37.2973 76.886 37.136 76.886 36.952C76.886 36.848 76.9033 36.7453 76.938 36.644C76.9727 36.54 77.0287 36.4413 77.106 36.348C77.186 36.2547 77.2887 36.1667 77.414 36.084C77.5393 36.0013 77.6927 35.9293 77.874 35.868C78.058 35.8067 78.2713 35.7573 78.514 35.72C78.7567 35.68 79.034 35.656 79.346 35.648V35.408C79.346 35.1333 79.2873 34.9307 79.17 34.8C79.0527 34.6667 78.8833 34.6 78.662 34.6C78.502 34.6 78.3687 34.6187 78.262 34.656C78.158 34.6933 78.066 34.736 77.986 34.784C77.906 34.8293 77.8327 34.8707 77.766 34.908C77.702 34.9453 77.63 34.964 77.55 34.964C77.4807 34.964 77.422 34.9467 77.374 34.912C77.326 34.8747 77.2873 34.832 77.258 34.784L77.082 34.468ZM86.9414 33.896L85.6374 38H84.8454C84.7548 38 84.6921 37.9413 84.6574 37.824L83.9214 35.452C83.8974 35.372 83.8748 35.2933 83.8534 35.216C83.8348 35.136 83.8188 35.056 83.8054 34.976C83.7894 35.056 83.7708 35.1373 83.7494 35.22C83.7308 35.3 83.7094 35.38 83.6854 35.46L82.9374 37.824C82.9054 37.9413 82.8348 38 82.7254 38H81.9654L80.6654 33.896H81.4534C81.5254 33.896 81.5868 33.9133 81.6374 33.948C81.6881 33.9827 81.7214 34.0267 81.7374 34.08L82.3254 36.272C82.3548 36.392 82.3801 36.5093 82.4014 36.624C82.4254 36.7387 82.4454 36.8533 82.4614 36.968C82.4908 36.8533 82.5214 36.7387 82.5534 36.624C82.5881 36.5093 82.6241 36.392 82.6614 36.272L83.3414 34.072C83.3574 34.0187 83.3881 33.9747 83.4334 33.94C83.4814 33.9053 83.5388 33.888 83.6054 33.888H84.0414C84.1108 33.888 84.1694 33.9053 84.2174 33.94C84.2681 33.9747 84.3014 34.0187 84.3174 34.072L84.9774 36.272C85.0121 36.392 85.0441 36.5107 85.0734 36.628C85.1054 36.7427 85.1361 36.8573 85.1654 36.972C85.2001 36.7453 85.2494 36.512 85.3134 36.272L85.9174 34.08C85.9361 34.0267 85.9694 33.9827 86.0174 33.948C86.0654 33.9133 86.1228 33.896 86.1894 33.896H86.9414Z" fill="black"/>
<path d="M3.5 29H90.5V28H3.5V29ZM93 31.5V38.5H94V31.5H93ZM90.5 41H3.5V42H90.5V41ZM1 38.5V31.5H0V38.5H1ZM3.5 41C2.11929 41 1 39.8807 1 38.5H0C0 40.433 1.56701 42 3.5 42V41ZM93 38.5C93 39.8807 91.8807 41 90.5 41V42C92.433 42 94 40.433 94 38.5H93ZM90.5 29C91.8807 29 93 30.1193 93 31.5H94C94 29.567 92.433 28 90.5 28V29ZM3.5 28C1.567 28 0 29.567 0 31.5H1C1 30.1193 2.11929 29 3.5 29V28Z" fill="#979797"/>
</svg>
