<svg width="11" height="22" viewBox="0 0 11 22" fill="none" xmlns="http://www.w3.org/2000/svg">
<path d="M0.5 3.5C0.5 1.84315 1.84315 0.5 3.5 0.5H7.5C9.15685 0.5 10.5 1.84315 10.5 3.5V7.5C10.5 9.15685 9.15685 10.5 7.5 10.5H3.5C1.84315 10.5 0.5 9.15685 0.5 7.5V3.5Z" fill="#E3E3E3"/>
<path d="M3.5 1H7.5V0H3.5V1ZM10 3.5V7.5H11V3.5H10ZM7.5 10H3.5V11H7.5V10ZM1 7.5V3.5H0V7.5H1ZM3.5 10C2.11929 10 1 8.88071 1 7.5H0C0 9.433 1.567 11 3.5 11V10ZM10 7.5C10 8.88071 8.88071 10 7.5 10V11C9.433 11 11 9.433 11 7.5H10ZM7.5 1C8.88071 1 10 2.11929 10 3.5H11C11 1.567 9.433 0 7.5 0V1ZM3.5 0C1.567 0 0 1.567 0 3.5H1C1 2.11929 2.11929 1 3.5 1V0Z" fill="#979797"/>
<path fill-rule="evenodd" clip-rule="evenodd" d="M6.2751 3L3.40025 5.84901L5.12516 7.55842L8 4.70941L6.2751 3ZM4.62627 8L3 6.38824V8H4.62627Z" fill="black"/>
<path d="M0.5 14.5C0.5 12.8431 1.84315 11.5 3.5 11.5H7.5C9.15685 11.5 10.5 12.8431 10.5 14.5V18.5C10.5 20.1569 9.15685 21.5 7.5 21.5H3.5C1.84315 21.5 0.5 20.1569 0.5 18.5V14.5Z" fill="#E3E3E3"/>
<rect x="2.5" y="13.5" width="6" height="6" rx="1" fill="#FF9A10"/>
<rect x="2.5" y="13.5" width="6" height="6" rx="1" stroke="#FF9A10"/>
<path d="M3.5 12H7.5V11H3.5V12ZM10 14.5V18.5H11V14.5H10ZM7.5 21H3.5V22H7.5V21ZM1 18.5V14.5H0V18.5H1ZM3.5 21C2.11929 21 1 19.8807 1 18.5H0C0 20.433 1.567 22 3.5 22V21ZM10 18.5C10 19.8807 8.88071 21 7.5 21V22C9.433 22 11 20.433 11 18.5H10ZM7.5 12C8.88071 12 10 13.1193 10 14.5H11C11 12.567 9.433 11 7.5 11V12ZM3.5 11C1.567 11 0 12.567 0 14.5H1C1 13.1193 2.11929 12 3.5 12V11Z" fill="#979797"/>
<path fill-rule="evenodd" clip-rule="evenodd" d="M6.2751 14L3.40025 16.849L5.12516 18.5584L8 15.7094L6.2751 14ZM4.62627 19L3 17.3882V19H4.62627Z" fill="black"/>
</svg>
