<svg width="94" height="42" viewBox="0 0 94 42" fill="none" xmlns="http://www.w3.org/2000/svg">
<rect x="2.5" y="2.5" width="28" height="9" rx="1" fill="#F1BB72"/>
<rect x="2.5" y="2.5" width="28" height="9" rx="1" stroke="#F1BB72"/>
<path d="M16.7825 7.108C16.7825 7.532 16.7118 7.92533 16.5705 8.288C16.4318 8.648 16.2345 8.96 15.9785 9.224C15.7225 9.488 15.4145 9.69467 15.0545 9.844C14.6945 9.99067 14.2945 10.064 13.8545 10.064C13.4172 10.064 13.0185 9.99067 12.6585 9.844C12.2985 9.69467 11.9892 9.488 11.7305 9.224C11.4745 8.96 11.2758 8.648 11.1345 8.288C10.9932 7.92533 10.9225 7.532 10.9225 7.108C10.9225 6.684 10.9932 6.292 11.1345 5.932C11.2758 5.56933 11.4745 5.256 11.7305 4.992C11.9892 4.728 12.2985 4.52267 12.6585 4.376C13.0185 4.22667 13.4172 4.152 13.8545 4.152C14.1478 4.152 14.4238 4.18667 14.6825 4.256C14.9412 4.32267 15.1785 4.41867 15.3945 4.544C15.6105 4.66667 15.8038 4.81733 15.9745 4.996C16.1478 5.172 16.2945 5.36933 16.4145 5.588C16.5345 5.80667 16.6252 6.044 16.6865 6.3C16.7505 6.556 16.7825 6.82533 16.7825 7.108ZM15.6825 7.108C15.6825 6.79067 15.6398 6.50667 15.5545 6.256C15.4692 6.00267 15.3478 5.788 15.1905 5.612C15.0332 5.436 14.8412 5.30133 14.6145 5.208C14.3905 5.11467 14.1372 5.068 13.8545 5.068C13.5718 5.068 13.3172 5.11467 13.0905 5.208C12.8665 5.30133 12.6745 5.436 12.5145 5.612C12.3572 5.788 12.2358 6.00267 12.1505 6.256C12.0652 6.50667 12.0225 6.79067 12.0225 7.108C12.0225 7.42533 12.0652 7.71067 12.1505 7.964C12.2358 8.21467 12.3572 8.428 12.5145 8.604C12.6745 8.77733 12.8665 8.91067 13.0905 9.004C13.3172 9.09733 13.5718 9.144 13.8545 9.144C14.1372 9.144 14.3905 9.09733 14.6145 9.004C14.8412 8.91067 15.0332 8.77733 15.1905 8.604C15.3478 8.428 15.4692 8.21467 15.5545 7.964C15.6398 7.71067 15.6825 7.42533 15.6825 7.108ZM17.6926 10V6.64L17.3366 6.584C17.2592 6.568 17.1966 6.54133 17.1486 6.504C17.1032 6.464 17.0806 6.408 17.0806 6.336V5.932H17.6926V5.7C17.6926 5.46533 17.7272 5.25467 17.7966 5.068C17.8686 4.88133 17.9699 4.72267 18.1006 4.592C18.2339 4.46133 18.3952 4.36133 18.5846 4.292C18.7739 4.22267 18.9872 4.188 19.2246 4.188C19.4139 4.188 19.5899 4.21333 19.7526 4.264L19.7326 4.756C19.7299 4.79333 19.7192 4.824 19.7006 4.848C19.6819 4.872 19.6566 4.89067 19.6246 4.904C19.5952 4.91467 19.5606 4.92267 19.5206 4.928C19.4806 4.93067 19.4379 4.932 19.3926 4.932C19.2752 4.932 19.1699 4.94533 19.0766 4.972C18.9859 4.996 18.9086 5.04 18.8446 5.104C18.7806 5.16533 18.7312 5.248 18.6966 5.352C18.6646 5.45333 18.6486 5.58 18.6486 5.732V5.932H20.2846V5.568C20.2846 5.33333 20.3192 5.12267 20.3886 4.936C20.4606 4.74933 20.5619 4.59067 20.6926 4.46C20.8259 4.32933 20.9872 4.22933 21.1766 4.16C21.3659 4.09067 21.5792 4.056 21.8166 4.056C21.9099 4.056 21.9992 4.06267 22.0846 4.076C22.1726 4.08667 22.2592 4.104 22.3446 4.128L22.3206 4.624C22.3152 4.70133 22.2792 4.75067 22.2126 4.772C22.1486 4.79067 22.0726 4.8 21.9846 4.8C21.8672 4.8 21.7619 4.81333 21.6686 4.84C21.5779 4.864 21.5006 4.908 21.4366 4.972C21.3726 5.03333 21.3232 5.116 21.2886 5.22C21.2566 5.32133 21.2406 5.448 21.2406 5.6V5.932H22.3046V6.636H21.2726V10H20.2846V6.636H18.6806V10H17.6926Z" fill="black"/>
<rect x="33.5" y="16.5" width="27" height="9" rx="1" fill="#F1BB72"/>
<rect x="33.5" y="16.5" width="27" height="9" rx="1" stroke="#F1BB72"/>
<path d="M47.7669 21.108C47.7669 21.532 47.6962 21.9253 47.5549 22.288C47.4162 22.648 47.2189 22.96 46.9629 23.224C46.7069 23.488 46.3989 23.6947 46.0389 23.844C45.6789 23.9907 45.2789 24.064 44.8389 24.064C44.4015 24.064 44.0029 23.9907 43.6429 23.844C43.2829 23.6947 42.9735 23.488 42.7149 23.224C42.4589 22.96 42.2602 22.648 42.1189 22.288C41.9775 21.9253 41.9069 21.532 41.9069 21.108C41.9069 20.684 41.9775 20.292 42.1189 19.932C42.2602 19.5693 42.4589 19.256 42.7149 18.992C42.9735 18.728 43.2829 18.5227 43.6429 18.376C44.0029 18.2267 44.4015 18.152 44.8389 18.152C45.1322 18.152 45.4082 18.1867 45.6669 18.256C45.9255 18.3227 46.1629 18.4187 46.3789 18.544C46.5949 18.6667 46.7882 18.8173 46.9589 18.996C47.1322 19.172 47.2789 19.3693 47.3989 19.588C47.5189 19.8067 47.6095 20.044 47.6709 20.3C47.7349 20.556 47.7669 20.8253 47.7669 21.108ZM46.6669 21.108C46.6669 20.7907 46.6242 20.5067 46.5389 20.256C46.4535 20.0027 46.3322 19.788 46.1749 19.612C46.0175 19.436 45.8255 19.3013 45.5989 19.208C45.3749 19.1147 45.1215 19.068 44.8389 19.068C44.5562 19.068 44.3015 19.1147 44.0749 19.208C43.8509 19.3013 43.6589 19.436 43.4989 19.612C43.3415 19.788 43.2202 20.0027 43.1349 20.256C43.0495 20.5067 43.0069 20.7907 43.0069 21.108C43.0069 21.4253 43.0495 21.7107 43.1349 21.964C43.2202 22.2147 43.3415 22.428 43.4989 22.604C43.6589 22.7773 43.8509 22.9107 44.0749 23.004C44.3015 23.0973 44.5562 23.144 44.8389 23.144C45.1215 23.144 45.3749 23.0973 45.5989 23.004C45.8255 22.9107 46.0175 22.7773 46.1749 22.604C46.3322 22.428 46.4535 22.2147 46.5389 21.964C46.6242 21.7107 46.6669 21.4253 46.6669 21.108ZM49.2895 20.4C49.3722 20.3173 49.4588 20.2413 49.5495 20.172C49.6428 20.1 49.7402 20.04 49.8415 19.992C49.9455 19.9413 50.0562 19.9027 50.1735 19.876C50.2908 19.8467 50.4188 19.832 50.5575 19.832C50.7815 19.832 50.9802 19.8707 51.1535 19.948C51.3268 20.0227 51.4708 20.1293 51.5855 20.268C51.7028 20.404 51.7908 20.568 51.8495 20.76C51.9108 20.9493 51.9415 21.1587 51.9415 21.388V24H50.9535V21.388C50.9535 21.1373 50.8962 20.944 50.7815 20.808C50.6668 20.6693 50.4922 20.6 50.2575 20.6C50.0868 20.6 49.9268 20.6387 49.7775 20.716C49.6282 20.7933 49.4868 20.8987 49.3535 21.032V24H48.3655V19.896H48.9695C49.0975 19.896 49.1815 19.956 49.2215 20.076L49.2895 20.4Z" fill="black"/>
<rect x="63.5" y="30.5" width="28" height="9" rx="1" fill="#F1BB72"/>
<rect x="63.5" y="30.5" width="28" height="9" rx="1" stroke="#F1BB72"/>
<path d="M74.5842 35.1V37.44C74.2909 37.656 73.9775 37.8147 73.6442 37.916C73.3135 38.0147 72.9589 38.064 72.5802 38.064C72.1082 38.064 71.6802 37.9907 71.2962 37.844C70.9149 37.6973 70.5882 37.4933 70.3162 37.232C70.0469 36.9707 69.8389 36.6587 69.6922 36.296C69.5455 35.9333 69.4722 35.5373 69.4722 35.108C69.4722 34.6733 69.5429 34.2747 69.6842 33.912C69.8255 33.5493 70.0255 33.2373 70.2842 32.976C70.5455 32.7147 70.8615 32.512 71.2322 32.368C71.6029 32.224 72.0189 32.152 72.4802 32.152C72.7149 32.152 72.9335 32.1707 73.1362 32.208C73.3415 32.2453 73.5309 32.2973 73.7042 32.364C73.8802 32.428 74.0402 32.5067 74.1842 32.6C74.3282 32.6933 74.4602 32.796 74.5802 32.908L74.2722 33.396C74.2242 33.4733 74.1615 33.5213 74.0842 33.54C74.0069 33.556 73.9229 33.536 73.8322 33.48C73.7442 33.4293 73.6562 33.3787 73.5682 33.328C73.4802 33.2773 73.3815 33.2333 73.2722 33.196C73.1655 33.1587 73.0442 33.128 72.9082 33.104C72.7749 33.08 72.6202 33.068 72.4442 33.068C72.1589 33.068 71.9002 33.116 71.6682 33.212C71.4389 33.308 71.2429 33.4453 71.0802 33.624C70.9175 33.8027 70.7922 34.0173 70.7042 34.268C70.6162 34.5187 70.5722 34.7987 70.5722 35.108C70.5722 35.4387 70.6189 35.7347 70.7122 35.996C70.8082 36.2547 70.9415 36.4747 71.1122 36.656C71.2855 36.8347 71.4935 36.972 71.7362 37.068C71.9789 37.1613 72.2495 37.208 72.5482 37.208C72.7615 37.208 72.9522 37.1853 73.1202 37.14C73.2882 37.0947 73.4522 37.0333 73.6122 36.956V35.908H72.8842C72.8149 35.908 72.7602 35.8893 72.7202 35.852C72.6829 35.812 72.6642 35.764 72.6642 35.708V35.1H74.5842ZM77.4973 36.248C77.2119 36.2613 76.9719 36.2867 76.7773 36.324C76.5826 36.3587 76.4266 36.404 76.3093 36.46C76.1919 36.516 76.1079 36.5813 76.0573 36.656C76.0066 36.7307 75.9813 36.812 75.9813 36.9C75.9813 37.0733 76.0319 37.1973 76.1333 37.272C76.2373 37.3467 76.3719 37.384 76.5373 37.384C76.7399 37.384 76.9146 37.348 77.0613 37.276C77.2106 37.2013 77.3559 37.0893 77.4973 36.94V36.248ZM75.2333 34.468C75.7053 34.036 76.2733 33.82 76.9373 33.82C77.1773 33.82 77.3919 33.86 77.5813 33.94C77.7706 34.0173 77.9306 34.1267 78.0613 34.268C78.1919 34.4067 78.2906 34.5733 78.3573 34.768C78.4266 34.9627 78.4613 35.176 78.4613 35.408V38H78.0133C77.9199 38 77.8479 37.9867 77.7973 37.96C77.7466 37.9307 77.7066 37.8733 77.6773 37.788L77.5893 37.492C77.4853 37.5853 77.3839 37.668 77.2853 37.74C77.1866 37.8093 77.0839 37.868 76.9773 37.916C76.8706 37.964 76.7559 38 76.6333 38.024C76.5133 38.0507 76.3799 38.064 76.2333 38.064C76.0599 38.064 75.8999 38.0413 75.7533 37.996C75.6066 37.948 75.4799 37.8773 75.3733 37.784C75.2666 37.6907 75.1839 37.5747 75.1253 37.436C75.0666 37.2973 75.0373 37.136 75.0373 36.952C75.0373 36.848 75.0546 36.7453 75.0893 36.644C75.1239 36.54 75.1799 36.4413 75.2573 36.348C75.3373 36.2547 75.4399 36.1667 75.5653 36.084C75.6906 36.0013 75.8439 35.9293 76.0253 35.868C76.2093 35.8067 76.4226 35.7573 76.6653 35.72C76.9079 35.68 77.1853 35.656 77.4973 35.648V35.408C77.4973 35.1333 77.4386 34.9307 77.3213 34.8C77.2039 34.6667 77.0346 34.6 76.8133 34.6C76.6533 34.6 76.5199 34.6187 76.4133 34.656C76.3093 34.6933 76.2173 34.736 76.1373 34.784C76.0573 34.8293 75.9839 34.8707 75.9173 34.908C75.8533 34.9453 75.7813 34.964 75.7013 34.964C75.6319 34.964 75.5733 34.9467 75.5253 34.912C75.4773 34.8747 75.4386 34.832 75.4093 34.784L75.2333 34.468ZM80.5851 38.064C80.2277 38.064 79.9531 37.964 79.7611 37.764C79.5717 37.5613 79.4771 37.2827 79.4771 36.928V34.636H79.0571C79.0037 34.636 78.9584 34.6187 78.9211 34.584C78.8837 34.5493 78.8651 34.4973 78.8651 34.428V34.036L79.5251 33.928L79.7331 32.808C79.7464 32.7547 79.7717 32.7133 79.8091 32.684C79.8464 32.6547 79.8944 32.64 79.9531 32.64H80.4651V33.932H81.5611V34.636H80.4651V36.86C80.4651 36.988 80.4957 37.088 80.5571 37.16C80.6211 37.232 80.7077 37.268 80.8171 37.268C80.8784 37.268 80.9291 37.2613 80.9691 37.248C81.0117 37.232 81.0477 37.216 81.0771 37.2C81.1091 37.184 81.1371 37.1693 81.1611 37.156C81.1851 37.14 81.2091 37.132 81.2331 37.132C81.2624 37.132 81.2864 37.14 81.3051 37.156C81.3237 37.1693 81.3437 37.1907 81.3651 37.22L81.6611 37.7C81.5171 37.82 81.3517 37.9107 81.1651 37.972C80.9784 38.0333 80.7851 38.064 80.5851 38.064ZM84.6864 35.476C84.6864 35.348 84.6677 35.228 84.6304 35.116C84.5957 35.0013 84.5424 34.9013 84.4704 34.816C84.3984 34.7307 84.3064 34.664 84.1944 34.616C84.085 34.5653 83.957 34.54 83.8104 34.54C83.525 34.54 83.2997 34.6213 83.1344 34.784C82.9717 34.9467 82.8677 35.1773 82.8224 35.476H84.6864ZM82.8024 36.072C82.8184 36.2827 82.8557 36.4653 82.9144 36.62C82.973 36.772 83.0504 36.8987 83.1464 37C83.2424 37.0987 83.3557 37.1733 83.4864 37.224C83.6197 37.272 83.7664 37.296 83.9264 37.296C84.0864 37.296 84.2237 37.2773 84.3384 37.24C84.4557 37.2027 84.557 37.1613 84.6424 37.116C84.7304 37.0707 84.8064 37.0293 84.8704 36.992C84.937 36.9547 85.001 36.936 85.0624 36.936C85.145 36.936 85.2064 36.9667 85.2464 37.028L85.5304 37.388C85.421 37.516 85.2984 37.624 85.1624 37.712C85.0264 37.7973 84.8837 37.8667 84.7344 37.92C84.5877 37.9707 84.437 38.0067 84.2824 38.028C84.1304 38.0493 83.9824 38.06 83.8384 38.06C83.553 38.06 83.2877 38.0133 83.0424 37.92C82.797 37.824 82.5837 37.684 82.4024 37.5C82.221 37.3133 82.0784 37.084 81.9744 36.812C81.8704 36.5373 81.8184 36.22 81.8184 35.86C81.8184 35.58 81.8637 35.3173 81.9544 35.072C82.045 34.824 82.1744 34.6093 82.3424 34.428C82.513 34.244 82.7197 34.0987 82.9624 33.992C83.2077 33.8853 83.4837 33.832 83.7904 33.832C84.049 33.832 84.2877 33.8733 84.5064 33.956C84.725 34.0387 84.913 34.16 85.0704 34.32C85.2277 34.4773 85.3504 34.672 85.4384 34.904C85.529 35.1333 85.5744 35.396 85.5744 35.692C85.5744 35.8413 85.5584 35.9427 85.5264 35.996C85.4944 36.0467 85.433 36.072 85.3424 36.072H82.8024Z" fill="black"/>
</svg>
