<svg width="47" height="20" viewBox="0 0 47 20" fill="none" xmlns="http://www.w3.org/2000/svg">
<rect x="1.5" y="1" width="44" height="8" fill="#2F1C04"/>
<rect x="1.5" y="1" width="44" height="8" stroke="#2F1C04"/>
<path d="M4.66887 5.468C4.87154 5.468 5.04754 5.44267 5.19687 5.392C5.34887 5.34133 5.47287 5.272 5.56887 5.184C5.66754 5.09333 5.74087 4.98667 5.78887 4.864C5.83687 4.74133 5.86087 4.60667 5.86087 4.46C5.86087 4.16667 5.76354 3.94133 5.56887 3.784C5.37687 3.62667 5.08221 3.548 4.68487 3.548H3.99687V5.468H4.66887ZM7.43687 8.5H6.46487C6.28087 8.5 6.14754 8.428 6.06487 8.284L4.84887 6.432C4.80354 6.36267 4.75287 6.31333 4.69687 6.284C4.64354 6.25467 4.56354 6.24 4.45687 6.24H3.99687V8.5H2.92087V2.716H4.68487C5.07687 2.716 5.41287 2.75733 5.69287 2.84C5.97554 2.92 6.20621 3.03333 6.38487 3.18C6.56621 3.32667 6.69954 3.50267 6.78487 3.708C6.87021 3.91067 6.91287 4.13467 6.91287 4.38C6.91287 4.57467 6.88354 4.75867 6.82487 4.932C6.76887 5.10533 6.68621 5.26267 6.57687 5.404C6.47021 5.54533 6.33687 5.66933 6.17687 5.776C6.01954 5.88267 5.83954 5.96667 5.63687 6.028C5.70621 6.068 5.77021 6.116 5.82887 6.172C5.88754 6.22533 5.94087 6.28933 5.98887 6.364L7.43687 8.5ZM9.0215 3.572V5.176H11.0455V6.004H9.0215V7.64H11.5895V8.5H7.9415V2.716H11.5895V3.572H9.0215ZM16.4631 3.6H14.7191V8.5H13.6431V3.6H11.8991V2.716H16.4631V3.6ZM18.8479 5.468C19.0506 5.468 19.2266 5.44267 19.3759 5.392C19.5279 5.34133 19.6519 5.272 19.7479 5.184C19.8466 5.09333 19.9199 4.98667 19.9679 4.864C20.0159 4.74133 20.0399 4.60667 20.0399 4.46C20.0399 4.16667 19.9426 3.94133 19.7479 3.784C19.5559 3.62667 19.2613 3.548 18.8639 3.548H18.1759V5.468H18.8479ZM21.6159 8.5H20.6439C20.4599 8.5 20.3266 8.428 20.2439 8.284L19.0279 6.432C18.9826 6.36267 18.9319 6.31333 18.8759 6.284C18.8226 6.25467 18.7426 6.24 18.6359 6.24H18.1759V8.5H17.0999V2.716H18.8639C19.2559 2.716 19.5919 2.75733 19.8719 2.84C20.1546 2.92 20.3853 3.03333 20.5639 3.18C20.7453 3.32667 20.8786 3.50267 20.9639 3.708C21.0493 3.91067 21.0919 4.13467 21.0919 4.38C21.0919 4.57467 21.0626 4.75867 21.0039 4.932C20.9479 5.10533 20.8653 5.26267 20.7559 5.404C20.6493 5.54533 20.5159 5.66933 20.3559 5.776C20.1986 5.88267 20.0186 5.96667 19.8159 6.028C19.8853 6.068 19.9493 6.116 20.0079 6.172C20.0666 6.22533 20.1199 6.28933 20.1679 6.364L21.6159 8.5ZM23.2006 8.5H22.1206V2.716H23.2006V8.5ZM29.1436 5.6V7.94C28.8502 8.156 28.5369 8.31467 28.2036 8.416C27.8729 8.51467 27.5182 8.564 27.1396 8.564C26.6676 8.564 26.2396 8.49067 25.8556 8.344C25.4742 8.19733 25.1476 7.99333 24.8756 7.732C24.6062 7.47067 24.3982 7.15867 24.2516 6.796C24.1049 6.43333 24.0316 6.03733 24.0316 5.608C24.0316 5.17333 24.1022 4.77467 24.2436 4.412C24.3849 4.04933 24.5849 3.73733 24.8436 3.476C25.1049 3.21467 25.4209 3.012 25.7916 2.868C26.1622 2.724 26.5782 2.652 27.0396 2.652C27.2742 2.652 27.4929 2.67067 27.6956 2.708C27.9009 2.74533 28.0902 2.79733 28.2636 2.864C28.4396 2.928 28.5996 3.00667 28.7436 3.1C28.8876 3.19333 29.0196 3.296 29.1396 3.408L28.8316 3.896C28.7836 3.97333 28.7209 4.02133 28.6436 4.04C28.5662 4.056 28.4822 4.036 28.3916 3.98C28.3036 3.92933 28.2156 3.87867 28.1276 3.828C28.0396 3.77733 27.9409 3.73333 27.8316 3.696C27.7249 3.65867 27.6036 3.628 27.4676 3.604C27.3342 3.58 27.1796 3.568 27.0036 3.568C26.7182 3.568 26.4596 3.616 26.2276 3.712C25.9982 3.808 25.8022 3.94533 25.6396 4.124C25.4769 4.30267 25.3516 4.51733 25.2636 4.768C25.1756 5.01867 25.1316 5.29867 25.1316 5.608C25.1316 5.93867 25.1782 6.23467 25.2716 6.496C25.3676 6.75467 25.5009 6.97467 25.6716 7.156C25.8449 7.33467 26.0529 7.472 26.2956 7.568C26.5382 7.66133 26.8089 7.708 27.1076 7.708C27.3209 7.708 27.5116 7.68533 27.6796 7.64C27.8476 7.59467 28.0116 7.53333 28.1716 7.456V6.408H27.4436C27.3742 6.408 27.3196 6.38933 27.2796 6.352C27.2422 6.312 27.2236 6.264 27.2236 6.208V5.6H29.1436ZM34.8283 5.6V7.94C34.5349 8.156 34.2216 8.31467 33.8883 8.416C33.5576 8.51467 33.2029 8.564 32.8243 8.564C32.3523 8.564 31.9243 8.49067 31.5403 8.344C31.1589 8.19733 30.8323 7.99333 30.5603 7.732C30.2909 7.47067 30.0829 7.15867 29.9363 6.796C29.7896 6.43333 29.7163 6.03733 29.7163 5.608C29.7163 5.17333 29.7869 4.77467 29.9283 4.412C30.0696 4.04933 30.2696 3.73733 30.5283 3.476C30.7896 3.21467 31.1056 3.012 31.4763 2.868C31.8469 2.724 32.2629 2.652 32.7243 2.652C32.9589 2.652 33.1776 2.67067 33.3803 2.708C33.5856 2.74533 33.7749 2.79733 33.9483 2.864C34.1243 2.928 34.2843 3.00667 34.4283 3.1C34.5723 3.19333 34.7043 3.296 34.8243 3.408L34.5163 3.896C34.4683 3.97333 34.4056 4.02133 34.3283 4.04C34.2509 4.056 34.1669 4.036 34.0763 3.98C33.9883 3.92933 33.9003 3.87867 33.8123 3.828C33.7243 3.77733 33.6256 3.73333 33.5163 3.696C33.4096 3.65867 33.2883 3.628 33.1523 3.604C33.0189 3.58 32.8643 3.568 32.6883 3.568C32.4029 3.568 32.1443 3.616 31.9123 3.712C31.6829 3.808 31.4869 3.94533 31.3243 4.124C31.1616 4.30267 31.0363 4.51733 30.9483 4.768C30.8603 5.01867 30.8163 5.29867 30.8163 5.608C30.8163 5.93867 30.8629 6.23467 30.9563 6.496C31.0523 6.75467 31.1856 6.97467 31.3563 7.156C31.5296 7.33467 31.7376 7.472 31.9803 7.568C32.2229 7.66133 32.4936 7.708 32.7923 7.708C33.0056 7.708 33.1963 7.68533 33.3643 7.64C33.5323 7.59467 33.6963 7.53333 33.8563 7.456V6.408H33.1283C33.0589 6.408 33.0043 6.38933 32.9643 6.352C32.9269 6.312 32.9083 6.264 32.9083 6.208V5.6H34.8283ZM36.8249 3.572V5.176H38.8489V6.004H36.8249V7.64H39.3929V8.5H35.7449V2.716H39.3929V3.572H36.8249ZM41.9745 5.468C42.1772 5.468 42.3532 5.44267 42.5025 5.392C42.6545 5.34133 42.7785 5.272 42.8745 5.184C42.9732 5.09333 43.0465 4.98667 43.0945 4.864C43.1425 4.74133 43.1665 4.60667 43.1665 4.46C43.1665 4.16667 43.0692 3.94133 42.8745 3.784C42.6825 3.62667 42.3878 3.548 41.9905 3.548H41.3025V5.468H41.9745ZM44.7425 8.5H43.7705C43.5865 8.5 43.4532 8.428 43.3705 8.284L42.1545 6.432C42.1092 6.36267 42.0585 6.31333 42.0025 6.284C41.9492 6.25467 41.8692 6.24 41.7625 6.24H41.3025V8.5H40.2265V2.716H41.9905C42.3825 2.716 42.7185 2.75733 42.9985 2.84C43.2812 2.92 43.5118 3.03333 43.6905 3.18C43.8718 3.32667 44.0052 3.50267 44.0905 3.708C44.1758 3.91067 44.2185 4.13467 44.2185 4.38C44.2185 4.57467 44.1892 4.75867 44.1305 4.932C44.0745 5.10533 43.9918 5.26267 43.8825 5.404C43.7758 5.54533 43.6425 5.66933 43.4825 5.776C43.3252 5.88267 43.1452 5.96667 42.9425 6.028C43.0118 6.068 43.0758 6.116 43.1345 6.172C43.1932 6.22533 43.2465 6.28933 43.2945 6.364L44.7425 8.5Z" fill="white"/>
<rect x="1.5" y="11" width="44" height="8" fill="#FF9300"/>
<rect x="1.5" y="11" width="44" height="8" stroke="#FF9300"/>
<path d="M4.66887 15.468C4.87154 15.468 5.04754 15.4427 5.19687 15.392C5.34887 15.3413 5.47287 15.272 5.56887 15.184C5.66754 15.0933 5.74087 14.9867 5.78887 14.864C5.83687 14.7413 5.86087 14.6067 5.86087 14.46C5.86087 14.1667 5.76354 13.9413 5.56887 13.784C5.37687 13.6267 5.08221 13.548 4.68487 13.548H3.99687V15.468H4.66887ZM7.43687 18.5H6.46487C6.28087 18.5 6.14754 18.428 6.06487 18.284L4.84887 16.432C4.80354 16.3627 4.75287 16.3133 4.69687 16.284C4.64354 16.2547 4.56354 16.24 4.45687 16.24H3.99687V18.5H2.92087V12.716H4.68487C5.07687 12.716 5.41287 12.7573 5.69287 12.84C5.97554 12.92 6.20621 13.0333 6.38487 13.18C6.56621 13.3267 6.69954 13.5027 6.78487 13.708C6.87021 13.9107 6.91287 14.1347 6.91287 14.38C6.91287 14.5747 6.88354 14.7587 6.82487 14.932C6.76887 15.1053 6.68621 15.2627 6.57687 15.404C6.47021 15.5453 6.33687 15.6693 6.17687 15.776C6.01954 15.8827 5.83954 15.9667 5.63687 16.028C5.70621 16.068 5.77021 16.116 5.82887 16.172C5.88754 16.2253 5.94087 16.2893 5.98887 16.364L7.43687 18.5ZM9.0215 13.572V15.176H11.0455V16.004H9.0215V17.64H11.5895V18.5H7.9415V12.716H11.5895V13.572H9.0215ZM16.4631 13.6H14.7191V18.5H13.6431V13.6H11.8991V12.716H16.4631V13.6ZM18.8479 15.468C19.0506 15.468 19.2266 15.4427 19.3759 15.392C19.5279 15.3413 19.6519 15.272 19.7479 15.184C19.8466 15.0933 19.9199 14.9867 19.9679 14.864C20.0159 14.7413 20.0399 14.6067 20.0399 14.46C20.0399 14.1667 19.9426 13.9413 19.7479 13.784C19.5559 13.6267 19.2613 13.548 18.8639 13.548H18.1759V15.468H18.8479ZM21.6159 18.5H20.6439C20.4599 18.5 20.3266 18.428 20.2439 18.284L19.0279 16.432C18.9826 16.3627 18.9319 16.3133 18.8759 16.284C18.8226 16.2547 18.7426 16.24 18.6359 16.24H18.1759V18.5H17.0999V12.716H18.8639C19.2559 12.716 19.5919 12.7573 19.8719 12.84C20.1546 12.92 20.3853 13.0333 20.5639 13.18C20.7453 13.3267 20.8786 13.5027 20.9639 13.708C21.0493 13.9107 21.0919 14.1347 21.0919 14.38C21.0919 14.5747 21.0626 14.7587 21.0039 14.932C20.9479 15.1053 20.8653 15.2627 20.7559 15.404C20.6493 15.5453 20.5159 15.6693 20.3559 15.776C20.1986 15.8827 20.0186 15.9667 19.8159 16.028C19.8853 16.068 19.9493 16.116 20.0079 16.172C20.0666 16.2253 20.1199 16.2893 20.1679 16.364L21.6159 18.5ZM23.2006 18.5H22.1206V12.716H23.2006V18.5ZM29.1436 15.6V17.94C28.8502 18.156 28.5369 18.3147 28.2036 18.416C27.8729 18.5147 27.5182 18.564 27.1396 18.564C26.6676 18.564 26.2396 18.4907 25.8556 18.344C25.4742 18.1973 25.1476 17.9933 24.8756 17.732C24.6062 17.4707 24.3982 17.1587 24.2516 16.796C24.1049 16.4333 24.0316 16.0373 24.0316 15.608C24.0316 15.1733 24.1022 14.7747 24.2436 14.412C24.3849 14.0493 24.5849 13.7373 24.8436 13.476C25.1049 13.2147 25.4209 13.012 25.7916 12.868C26.1622 12.724 26.5782 12.652 27.0396 12.652C27.2742 12.652 27.4929 12.6707 27.6956 12.708C27.9009 12.7453 28.0902 12.7973 28.2636 12.864C28.4396 12.928 28.5996 13.0067 28.7436 13.1C28.8876 13.1933 29.0196 13.296 29.1396 13.408L28.8316 13.896C28.7836 13.9733 28.7209 14.0213 28.6436 14.04C28.5662 14.056 28.4822 14.036 28.3916 13.98C28.3036 13.9293 28.2156 13.8787 28.1276 13.828C28.0396 13.7773 27.9409 13.7333 27.8316 13.696C27.7249 13.6587 27.6036 13.628 27.4676 13.604C27.3342 13.58 27.1796 13.568 27.0036 13.568C26.7182 13.568 26.4596 13.616 26.2276 13.712C25.9982 13.808 25.8022 13.9453 25.6396 14.124C25.4769 14.3027 25.3516 14.5173 25.2636 14.768C25.1756 15.0187 25.1316 15.2987 25.1316 15.608C25.1316 15.9387 25.1782 16.2347 25.2716 16.496C25.3676 16.7547 25.5009 16.9747 25.6716 17.156C25.8449 17.3347 26.0529 17.472 26.2956 17.568C26.5382 17.6613 26.8089 17.708 27.1076 17.708C27.3209 17.708 27.5116 17.6853 27.6796 17.64C27.8476 17.5947 28.0116 17.5333 28.1716 17.456V16.408H27.4436C27.3742 16.408 27.3196 16.3893 27.2796 16.352C27.2422 16.312 27.2236 16.264 27.2236 16.208V15.6H29.1436ZM34.8283 15.6V17.94C34.5349 18.156 34.2216 18.3147 33.8883 18.416C33.5576 18.5147 33.2029 18.564 32.8243 18.564C32.3523 18.564 31.9243 18.4907 31.5403 18.344C31.1589 18.1973 30.8323 17.9933 30.5603 17.732C30.2909 17.4707 30.0829 17.1587 29.9363 16.796C29.7896 16.4333 29.7163 16.0373 29.7163 15.608C29.7163 15.1733 29.7869 14.7747 29.9283 14.412C30.0696 14.0493 30.2696 13.7373 30.5283 13.476C30.7896 13.2147 31.1056 13.012 31.4763 12.868C31.8469 12.724 32.2629 12.652 32.7243 12.652C32.9589 12.652 33.1776 12.6707 33.3803 12.708C33.5856 12.7453 33.7749 12.7973 33.9483 12.864C34.1243 12.928 34.2843 13.0067 34.4283 13.1C34.5723 13.1933 34.7043 13.296 34.8243 13.408L34.5163 13.896C34.4683 13.9733 34.4056 14.0213 34.3283 14.04C34.2509 14.056 34.1669 14.036 34.0763 13.98C33.9883 13.9293 33.9003 13.8787 33.8123 13.828C33.7243 13.7773 33.6256 13.7333 33.5163 13.696C33.4096 13.6587 33.2883 13.628 33.1523 13.604C33.0189 13.58 32.8643 13.568 32.6883 13.568C32.4029 13.568 32.1443 13.616 31.9123 13.712C31.6829 13.808 31.4869 13.9453 31.3243 14.124C31.1616 14.3027 31.0363 14.5173 30.9483 14.768C30.8603 15.0187 30.8163 15.2987 30.8163 15.608C30.8163 15.9387 30.8629 16.2347 30.9563 16.496C31.0523 16.7547 31.1856 16.9747 31.3563 17.156C31.5296 17.3347 31.7376 17.472 31.9803 17.568C32.2229 17.6613 32.4936 17.708 32.7923 17.708C33.0056 17.708 33.1963 17.6853 33.3643 17.64C33.5323 17.5947 33.6963 17.5333 33.8563 17.456V16.408H33.1283C33.0589 16.408 33.0043 16.3893 32.9643 16.352C32.9269 16.312 32.9083 16.264 32.9083 16.208V15.6H34.8283ZM36.8249 13.572V15.176H38.8489V16.004H36.8249V17.64H39.3929V18.5H35.7449V12.716H39.3929V13.572H36.8249ZM41.9745 15.468C42.1772 15.468 42.3532 15.4427 42.5025 15.392C42.6545 15.3413 42.7785 15.272 42.8745 15.184C42.9732 15.0933 43.0465 14.9867 43.0945 14.864C43.1425 14.7413 43.1665 14.6067 43.1665 14.46C43.1665 14.1667 43.0692 13.9413 42.8745 13.784C42.6825 13.6267 42.3878 13.548 41.9905 13.548H41.3025V15.468H41.9745ZM44.7425 18.5H43.7705C43.5865 18.5 43.4532 18.428 43.3705 18.284L42.1545 16.432C42.1092 16.3627 42.0585 16.3133 42.0025 16.284C41.9492 16.2547 41.8692 16.24 41.7625 16.24H41.3025V18.5H40.2265V12.716H41.9905C42.3825 12.716 42.7185 12.7573 42.9985 12.84C43.2812 12.92 43.5118 13.0333 43.6905 13.18C43.8718 13.3267 44.0052 13.5027 44.0905 13.708C44.1758 13.9107 44.2185 14.1347 44.2185 14.38C44.2185 14.5747 44.1892 14.7587 44.1305 14.932C44.0745 15.1053 43.9918 15.2627 43.8825 15.404C43.7758 15.5453 43.6425 15.6693 43.4825 15.776C43.3252 15.8827 43.1452 15.9667 42.9425 16.028C43.0118 16.068 43.0758 16.116 43.1345 16.172C43.1932 16.2253 43.2465 16.2893 43.2945 16.364L44.7425 18.5Z" fill="white"/>
</svg>
