<svg width="94" height="42" viewBox="0 0 94 42" fill="none" xmlns="http://www.w3.org/2000/svg">
<rect x="2.5" y="2.5" width="28" height="9" rx="1" fill="#F1BB72"/>
<rect x="2.5" y="2.5" width="28" height="9" rx="1" stroke="#F1BB72"/>
<path d="M9.82088 5.268C9.78888 5.324 9.75421 5.36533 9.71688 5.392C9.68221 5.416 9.63821 5.428 9.58488 5.428C9.52888 5.428 9.46754 5.408 9.40088 5.368C9.33688 5.32533 9.25954 5.27867 9.16888 5.228C9.07821 5.17733 8.97154 5.132 8.84888 5.092C8.72888 5.04933 8.58621 5.028 8.42088 5.028C8.27154 5.028 8.14088 5.04667 8.02888 5.084C7.91688 5.11867 7.82221 5.168 7.74488 5.232C7.67021 5.296 7.61421 5.37333 7.57688 5.464C7.53954 5.552 7.52088 5.64933 7.52088 5.756C7.52088 5.892 7.55821 6.00533 7.63288 6.096C7.71021 6.18667 7.81154 6.264 7.93688 6.328C8.06221 6.392 8.20488 6.44933 8.36488 6.5C8.52488 6.55067 8.68888 6.60533 8.85688 6.664C9.02488 6.72 9.18888 6.78667 9.34888 6.864C9.50888 6.93867 9.65154 7.03467 9.77688 7.152C9.90221 7.26667 10.0022 7.408 10.0769 7.576C10.1542 7.744 10.1929 7.948 10.1929 8.188C10.1929 8.44933 10.1475 8.69467 10.0569 8.924C9.96888 9.15067 9.83821 9.34933 9.66488 9.52C9.49421 9.688 9.28488 9.82133 9.03688 9.92C8.78888 10.016 8.50488 10.064 8.18488 10.064C8.00088 10.064 7.81954 10.0453 7.64088 10.008C7.46221 9.97333 7.29021 9.92267 7.12488 9.856C6.96221 9.78933 6.80888 9.70933 6.66488 9.616C6.52088 9.52267 6.39288 9.41867 6.28088 9.304L6.59688 8.788C6.62354 8.75067 6.65821 8.72 6.70088 8.696C6.74354 8.66933 6.78888 8.656 6.83688 8.656C6.90354 8.656 6.97554 8.684 7.05288 8.74C7.13021 8.79333 7.22221 8.85333 7.32888 8.92C7.43554 8.98667 7.55954 9.048 7.70088 9.104C7.84488 9.15733 8.01688 9.184 8.21688 9.184C8.52354 9.184 8.76088 9.112 8.92888 8.968C9.09688 8.82133 9.18088 8.612 9.18088 8.34C9.18088 8.188 9.14221 8.064 9.06488 7.968C8.99021 7.872 8.89021 7.792 8.76488 7.728C8.63954 7.66133 8.49688 7.60533 8.33688 7.56C8.17688 7.51467 8.01421 7.46533 7.84888 7.412C7.68354 7.35867 7.52088 7.29467 7.36088 7.22C7.20088 7.14533 7.05821 7.048 6.93288 6.928C6.80754 6.808 6.70621 6.65867 6.62888 6.48C6.55421 6.29867 6.51688 6.076 6.51688 5.812C6.51688 5.60133 6.55821 5.396 6.64088 5.196C6.72621 4.996 6.84888 4.81867 7.00888 4.664C7.16888 4.50933 7.36621 4.38533 7.60088 4.292C7.83554 4.19867 8.10488 4.152 8.40888 4.152C8.75021 4.152 9.06488 4.20533 9.35288 4.312C9.64088 4.41867 9.88621 4.568 10.0889 4.76L9.82088 5.268ZM11.8639 5.896V10H10.8719V5.896H11.8639ZM11.9999 4.7C11.9999 4.78533 11.9825 4.86533 11.9479 4.94C11.9132 5.01467 11.8665 5.08 11.8079 5.136C11.7519 5.192 11.6852 5.23733 11.6079 5.272C11.5305 5.304 11.4479 5.32 11.3599 5.32C11.2745 5.32 11.1932 5.304 11.1159 5.272C11.0412 5.23733 10.9759 5.192 10.9199 5.136C10.8639 5.08 10.8185 5.01467 10.7839 4.94C10.7519 4.86533 10.7359 4.78533 10.7359 4.7C10.7359 4.612 10.7519 4.52933 10.7839 4.452C10.8185 4.37467 10.8639 4.308 10.9199 4.252C10.9759 4.196 11.0412 4.152 11.1159 4.12C11.1932 4.08533 11.2745 4.068 11.3599 4.068C11.4479 4.068 11.5305 4.08533 11.6079 4.12C11.6852 4.152 11.7519 4.196 11.8079 4.252C11.8665 4.308 11.9132 4.37467 11.9479 4.452C11.9825 4.52933 11.9999 4.612 11.9999 4.7ZM13.6751 6.4C13.7578 6.31733 13.8445 6.24133 13.9351 6.172C14.0285 6.1 14.1258 6.04 14.2271 5.992C14.3311 5.94133 14.4418 5.90267 14.5591 5.876C14.6765 5.84667 14.8045 5.832 14.9431 5.832C15.1671 5.832 15.3658 5.87067 15.5391 5.948C15.7125 6.02267 15.8565 6.12933 15.9711 6.268C16.0885 6.404 16.1765 6.568 16.2351 6.76C16.2965 6.94933 16.3271 7.15867 16.3271 7.388V10H15.3391V7.388C15.3391 7.13733 15.2818 6.944 15.1671 6.808C15.0525 6.66933 14.8778 6.6 14.6431 6.6C14.4725 6.6 14.3125 6.63867 14.1631 6.716C14.0138 6.79333 13.8725 6.89867 13.7391 7.032V10H12.7511V5.896H13.3551C13.4831 5.896 13.5671 5.956 13.6071 6.076L13.6751 6.4ZM18.6468 7.848C18.7694 7.848 18.8761 7.832 18.9668 7.8C19.0574 7.76533 19.1321 7.71867 19.1908 7.66C19.2521 7.60133 19.2974 7.53067 19.3268 7.448C19.3588 7.36533 19.3748 7.27467 19.3748 7.176C19.3748 6.97333 19.3134 6.81333 19.1908 6.696C19.0708 6.576 18.8894 6.516 18.6468 6.516C18.4041 6.516 18.2214 6.576 18.0988 6.696C17.9788 6.81333 17.9188 6.97333 17.9188 7.176C17.9188 7.272 17.9334 7.36133 17.9628 7.444C17.9948 7.52667 18.0401 7.59867 18.0988 7.66C18.1601 7.71867 18.2361 7.76533 18.3268 7.8C18.4201 7.832 18.5268 7.848 18.6468 7.848ZM19.7628 10.184C19.7628 10.104 19.7388 10.0387 19.6908 9.988C19.6428 9.93733 19.5774 9.89867 19.4948 9.872C19.4121 9.84267 19.3148 9.82133 19.2028 9.808C19.0934 9.79467 18.9761 9.78533 18.8508 9.78C18.7281 9.772 18.6001 9.76533 18.4668 9.76C18.3361 9.75467 18.2081 9.744 18.0828 9.728C17.9734 9.78933 17.8841 9.86133 17.8148 9.944C17.7481 10.0267 17.7148 10.1227 17.7148 10.232C17.7148 10.304 17.7321 10.3707 17.7668 10.432C17.8041 10.496 17.8614 10.5507 17.9388 10.596C18.0188 10.6413 18.1214 10.676 18.2468 10.7C18.3721 10.7267 18.5254 10.74 18.7068 10.74C18.8908 10.74 19.0494 10.7253 19.1828 10.696C19.3161 10.6693 19.4254 10.6307 19.5108 10.58C19.5988 10.532 19.6628 10.4733 19.7028 10.404C19.7428 10.3373 19.7628 10.264 19.7628 10.184ZM20.7468 6.036V6.404C20.7468 6.52133 20.6761 6.59333 20.5348 6.62L20.1668 6.688C20.2228 6.82933 20.2508 6.984 20.2508 7.152C20.2508 7.35467 20.2094 7.53867 20.1268 7.704C20.0468 7.86667 19.9348 8.00533 19.7908 8.12C19.6468 8.23467 19.4761 8.324 19.2788 8.388C19.0841 8.44933 18.8734 8.48 18.6468 8.48C18.5668 8.48 18.4894 8.476 18.4148 8.468C18.3401 8.46 18.2668 8.44933 18.1948 8.436C18.0668 8.51333 18.0028 8.6 18.0028 8.696C18.0028 8.77867 18.0401 8.84 18.1148 8.88C18.1921 8.91733 18.2934 8.944 18.4188 8.96C18.5441 8.976 18.6868 8.98667 18.8468 8.992C19.0068 8.99467 19.1708 9.00267 19.3388 9.016C19.5068 9.02933 19.6708 9.05333 19.8308 9.088C19.9908 9.12 20.1334 9.172 20.2588 9.244C20.3841 9.316 20.4841 9.41467 20.5588 9.54C20.6361 9.66267 20.6748 9.82133 20.6748 10.016C20.6748 10.1973 20.6294 10.3733 20.5388 10.544C20.4508 10.7147 20.3214 10.8667 20.1508 11C19.9828 11.1333 19.7748 11.24 19.5268 11.32C19.2814 11.4027 19.0014 11.444 18.6868 11.444C18.3774 11.444 18.1081 11.4133 17.8788 11.352C17.6494 11.2933 17.4588 11.2133 17.3068 11.112C17.1548 11.0133 17.0414 10.8987 16.9668 10.768C16.8921 10.6373 16.8548 10.5013 16.8548 10.36C16.8548 10.168 16.9121 10.008 17.0268 9.88C17.1441 9.74933 17.3041 9.64533 17.5068 9.568C17.3974 9.512 17.3108 9.43733 17.2468 9.344C17.1828 9.25067 17.1508 9.128 17.1508 8.976C17.1508 8.91467 17.1614 8.852 17.1828 8.788C17.2068 8.72133 17.2401 8.656 17.2828 8.592C17.3281 8.528 17.3841 8.468 17.4508 8.412C17.5174 8.35333 17.5961 8.30133 17.6868 8.256C17.4788 8.144 17.3148 7.99467 17.1948 7.808C17.0774 7.62133 17.0188 7.40267 17.0188 7.152C17.0188 6.94933 17.0588 6.76667 17.1388 6.604C17.2214 6.43867 17.3348 6.29867 17.4788 6.184C17.6254 6.06667 17.7974 5.97733 17.9948 5.916C18.1948 5.85467 18.4121 5.824 18.6468 5.824C18.8228 5.824 18.9881 5.84267 19.1428 5.88C19.2974 5.91467 19.4388 5.96667 19.5668 6.036H20.7468ZM22.2533 4.056V10H21.2653V4.056H22.2533ZM25.7617 7.476C25.7617 7.348 25.743 7.228 25.7057 7.116C25.671 7.00133 25.6177 6.90133 25.5457 6.816C25.4737 6.73067 25.3817 6.664 25.2697 6.616C25.1604 6.56533 25.0324 6.54 24.8857 6.54C24.6004 6.54 24.375 6.62133 24.2097 6.784C24.047 6.94667 23.943 7.17733 23.8977 7.476H25.7617ZM23.8777 8.072C23.8937 8.28267 23.931 8.46533 23.9897 8.62C24.0484 8.772 24.1257 8.89867 24.2217 9C24.3177 9.09867 24.431 9.17333 24.5617 9.224C24.695 9.272 24.8417 9.296 25.0017 9.296C25.1617 9.296 25.299 9.27733 25.4137 9.24C25.531 9.20267 25.6324 9.16133 25.7177 9.116C25.8057 9.07067 25.8817 9.02933 25.9457 8.992C26.0124 8.95467 26.0764 8.936 26.1377 8.936C26.2204 8.936 26.2817 8.96667 26.3217 9.028L26.6057 9.388C26.4964 9.516 26.3737 9.624 26.2377 9.712C26.1017 9.79733 25.959 9.86667 25.8097 9.92C25.663 9.97067 25.5124 10.0067 25.3577 10.028C25.2057 10.0493 25.0577 10.06 24.9137 10.06C24.6284 10.06 24.363 10.0133 24.1177 9.92C23.8724 9.824 23.659 9.684 23.4777 9.5C23.2964 9.31333 23.1537 9.084 23.0497 8.812C22.9457 8.53733 22.8937 8.22 22.8937 7.86C22.8937 7.58 22.939 7.31733 23.0297 7.072C23.1204 6.824 23.2497 6.60933 23.4177 6.428C23.5884 6.244 23.795 6.09867 24.0377 5.992C24.283 5.88533 24.559 5.832 24.8657 5.832C25.1244 5.832 25.363 5.87333 25.5817 5.956C25.8004 6.03867 25.9884 6.16 26.1457 6.32C26.303 6.47733 26.4257 6.672 26.5137 6.904C26.6044 7.13333 26.6497 7.396 26.6497 7.692C26.6497 7.84133 26.6337 7.94267 26.6017 7.996C26.5697 8.04667 26.5084 8.072 26.4177 8.072H23.8777Z" fill="black"/>
<rect x="33.5" y="16.5" width="27" height="9" rx="1" fill="#F1BB72"/>
<rect x="33.5" y="16.5" width="27" height="9" rx="1" stroke="#F1BB72"/>
<path d="M42.6345 19.268C42.6025 19.324 42.5678 19.3653 42.5305 19.392C42.4958 19.416 42.4518 19.428 42.3985 19.428C42.3425 19.428 42.2811 19.408 42.2145 19.368C42.1505 19.3253 42.0731 19.2787 41.9825 19.228C41.8918 19.1773 41.7851 19.132 41.6625 19.092C41.5425 19.0493 41.3998 19.028 41.2345 19.028C41.0851 19.028 40.9545 19.0467 40.8425 19.084C40.7305 19.1187 40.6358 19.168 40.5585 19.232C40.4838 19.296 40.4278 19.3733 40.3905 19.464C40.3531 19.552 40.3345 19.6493 40.3345 19.756C40.3345 19.892 40.3718 20.0053 40.4465 20.096C40.5238 20.1867 40.6251 20.264 40.7505 20.328C40.8758 20.392 41.0185 20.4493 41.1785 20.5C41.3385 20.5507 41.5025 20.6053 41.6705 20.664C41.8385 20.72 42.0025 20.7867 42.1625 20.864C42.3225 20.9387 42.4651 21.0347 42.5905 21.152C42.7158 21.2667 42.8158 21.408 42.8905 21.576C42.9678 21.744 43.0065 21.948 43.0065 22.188C43.0065 22.4493 42.9611 22.6947 42.8705 22.924C42.7825 23.1507 42.6518 23.3493 42.4785 23.52C42.3078 23.688 42.0985 23.8213 41.8505 23.92C41.6025 24.016 41.3185 24.064 40.9985 24.064C40.8145 24.064 40.6331 24.0453 40.4545 24.008C40.2758 23.9733 40.1038 23.9227 39.9385 23.856C39.7758 23.7893 39.6225 23.7093 39.4785 23.616C39.3345 23.5227 39.2065 23.4187 39.0945 23.304L39.4105 22.788C39.4371 22.7507 39.4718 22.72 39.5145 22.696C39.5571 22.6693 39.6025 22.656 39.6505 22.656C39.7171 22.656 39.7891 22.684 39.8665 22.74C39.9438 22.7933 40.0358 22.8533 40.1425 22.92C40.2491 22.9867 40.3731 23.048 40.5145 23.104C40.6585 23.1573 40.8305 23.184 41.0305 23.184C41.3371 23.184 41.5745 23.112 41.7425 22.968C41.9105 22.8213 41.9945 22.612 41.9945 22.34C41.9945 22.188 41.9558 22.064 41.8785 21.968C41.8038 21.872 41.7038 21.792 41.5785 21.728C41.4531 21.6613 41.3105 21.6053 41.1505 21.56C40.9905 21.5147 40.8278 21.4653 40.6625 21.412C40.4971 21.3587 40.3345 21.2947 40.1745 21.22C40.0145 21.1453 39.8718 21.048 39.7465 20.928C39.6211 20.808 39.5198 20.6587 39.4425 20.48C39.3678 20.2987 39.3305 20.076 39.3305 19.812C39.3305 19.6013 39.3718 19.396 39.4545 19.196C39.5398 18.996 39.6625 18.8187 39.8225 18.664C39.9825 18.5093 40.1798 18.3853 40.4145 18.292C40.6491 18.1987 40.9185 18.152 41.2225 18.152C41.5638 18.152 41.8785 18.2053 42.1665 18.312C42.4545 18.4187 42.6998 18.568 42.9025 18.76L42.6345 19.268ZM44.6024 20.336C44.7624 20.1867 44.9384 20.0653 45.1304 19.972C45.3224 19.8787 45.5477 19.832 45.8064 19.832C46.0304 19.832 46.2291 19.8707 46.4024 19.948C46.5757 20.0227 46.7197 20.1293 46.8344 20.268C46.9517 20.404 47.0397 20.568 47.0984 20.76C47.1597 20.9493 47.1904 21.1587 47.1904 21.388V24H46.2024V21.388C46.2024 21.1373 46.1451 20.944 46.0304 20.808C45.9157 20.6693 45.7411 20.6 45.5064 20.6C45.3357 20.6 45.1757 20.6387 45.0264 20.716C44.8771 20.7933 44.7357 20.8987 44.6024 21.032V24H43.6144V18.056H44.6024V20.336ZM49.034 19.896V24H48.042V19.896H49.034ZM49.17 18.7C49.17 18.7853 49.1527 18.8653 49.118 18.94C49.0834 19.0147 49.0367 19.08 48.978 19.136C48.922 19.192 48.8554 19.2373 48.778 19.272C48.7007 19.304 48.618 19.32 48.53 19.32C48.4447 19.32 48.3634 19.304 48.286 19.272C48.2114 19.2373 48.146 19.192 48.09 19.136C48.034 19.08 47.9887 19.0147 47.954 18.94C47.922 18.8653 47.906 18.7853 47.906 18.7C47.906 18.612 47.922 18.5293 47.954 18.452C47.9887 18.3747 48.034 18.308 48.09 18.252C48.146 18.196 48.2114 18.152 48.286 18.12C48.3634 18.0853 48.4447 18.068 48.53 18.068C48.618 18.068 48.7007 18.0853 48.778 18.12C48.8554 18.152 48.922 18.196 48.978 18.252C49.0367 18.308 49.0834 18.3747 49.118 18.452C49.1527 18.5293 49.17 18.612 49.17 18.7ZM53.8533 20.636V22.86C53.8533 22.988 53.8853 23.088 53.9493 23.16C54.0133 23.232 54.0986 23.268 54.2053 23.268C54.2666 23.268 54.3173 23.2613 54.3573 23.248C54.3999 23.232 54.4359 23.216 54.4653 23.2C54.4973 23.184 54.5253 23.1693 54.5493 23.156C54.5733 23.14 54.5973 23.132 54.6213 23.132C54.6506 23.132 54.6746 23.14 54.6933 23.156C54.7119 23.1693 54.7319 23.1907 54.7533 23.22L55.0493 23.7C54.9053 23.82 54.7399 23.9107 54.5533 23.972C54.3693 24.0333 54.1773 24.064 53.9773 24.064C53.6199 24.064 53.3453 23.964 53.1533 23.764C52.9613 23.5613 52.8653 23.2827 52.8653 22.928V20.636H51.1973V24H50.2093V20.64L49.8533 20.584C49.7759 20.568 49.7133 20.5413 49.6653 20.504C49.6199 20.464 49.5973 20.408 49.5973 20.336V19.932H50.2093V19.628C50.2093 19.3933 50.2439 19.1827 50.3133 18.996C50.3853 18.8093 50.4866 18.6507 50.6173 18.52C50.7506 18.3893 50.9119 18.2893 51.1013 18.22C51.2906 18.1507 51.5039 18.116 51.7413 18.116C51.9306 18.116 52.1066 18.1413 52.2693 18.192L52.2493 18.688C52.2466 18.7253 52.2359 18.756 52.2173 18.78C52.1986 18.8013 52.1733 18.8187 52.1413 18.832C52.1119 18.8427 52.0773 18.8507 52.0373 18.856C51.9973 18.8587 51.9546 18.86 51.9093 18.86C51.7919 18.86 51.6866 18.8733 51.5933 18.9C51.5026 18.924 51.4253 18.968 51.3613 19.032C51.2973 19.0933 51.2479 19.176 51.2133 19.28C51.1813 19.3813 51.1653 19.508 51.1653 19.66V19.932H52.9093L53.1213 18.808C53.1346 18.7547 53.1599 18.7133 53.1973 18.684C53.2346 18.6547 53.2826 18.64 53.3413 18.64H53.8533V19.932H54.9493V20.636H53.8533Z" fill="black"/>
<rect x="63.5" y="30.5" width="28" height="9" rx="1" fill="#F1BB72"/>
<rect x="63.5" y="30.5" width="28" height="9" rx="1" stroke="#F1BB72"/>
<path d="M73.7647 35.108C73.7647 35.532 73.694 35.9213 73.5527 36.276C73.4114 36.6307 73.2127 36.936 72.9567 37.192C72.7007 37.448 72.3927 37.6467 72.0327 37.788C71.6727 37.9293 71.2727 38 70.8327 38H68.6287V32.216H70.8327C71.2727 32.216 71.6727 32.288 72.0327 32.432C72.3927 32.5733 72.7007 32.772 72.9567 33.028C73.2127 33.2813 73.4114 33.5853 73.5527 33.94C73.694 34.2947 73.7647 34.684 73.7647 35.108ZM72.6607 35.108C72.6607 34.7907 72.618 34.5067 72.5327 34.256C72.45 34.0027 72.3287 33.7893 72.1687 33.616C72.0114 33.44 71.8194 33.3053 71.5927 33.212C71.3687 33.1187 71.1154 33.072 70.8327 33.072H69.7087V37.144H70.8327C71.1154 37.144 71.3687 37.0973 71.5927 37.004C71.8194 36.9107 72.0114 36.7773 72.1687 36.604C72.3287 36.428 72.45 36.2147 72.5327 35.964C72.618 35.7107 72.6607 35.4253 72.6607 35.108ZM75.3003 34.608C75.4283 34.3627 75.5803 34.1707 75.7563 34.032C75.9323 33.8907 76.1403 33.82 76.3803 33.82C76.5696 33.82 76.7216 33.8613 76.8363 33.944L76.7723 34.684C76.759 34.732 76.739 34.7667 76.7123 34.788C76.6883 34.8067 76.655 34.816 76.6123 34.816C76.5723 34.816 76.5123 34.8093 76.4323 34.796C76.355 34.7827 76.279 34.776 76.2043 34.776C76.095 34.776 75.9976 34.792 75.9123 34.824C75.827 34.856 75.7496 34.9027 75.6803 34.964C75.6136 35.0227 75.5536 35.0947 75.5003 35.18C75.4496 35.2653 75.4016 35.3627 75.3563 35.472V38H74.3683V33.896H74.9483C75.0496 33.896 75.1203 33.9147 75.1603 33.952C75.2003 33.9867 75.227 34.0507 75.2403 34.144L75.3003 34.608ZM79.346 36.248C79.0607 36.2613 78.8207 36.2867 78.626 36.324C78.4313 36.3587 78.2753 36.404 78.158 36.46C78.0407 36.516 77.9567 36.5813 77.906 36.656C77.8553 36.7307 77.83 36.812 77.83 36.9C77.83 37.0733 77.8807 37.1973 77.982 37.272C78.086 37.3467 78.2207 37.384 78.386 37.384C78.5887 37.384 78.7633 37.348 78.91 37.276C79.0593 37.2013 79.2047 37.0893 79.346 36.94V36.248ZM77.082 34.468C77.554 34.036 78.122 33.82 78.786 33.82C79.026 33.82 79.2407 33.86 79.43 33.94C79.6193 34.0173 79.7793 34.1267 79.91 34.268C80.0407 34.4067 80.1393 34.5733 80.206 34.768C80.2753 34.9627 80.31 35.176 80.31 35.408V38H79.862C79.7687 38 79.6967 37.9867 79.646 37.96C79.5953 37.9307 79.5553 37.8733 79.526 37.788L79.438 37.492C79.334 37.5853 79.2327 37.668 79.134 37.74C79.0353 37.8093 78.9327 37.868 78.826 37.916C78.7193 37.964 78.6047 38 78.482 38.024C78.362 38.0507 78.2287 38.064 78.082 38.064C77.9087 38.064 77.7487 38.0413 77.602 37.996C77.4553 37.948 77.3287 37.8773 77.222 37.784C77.1153 37.6907 77.0327 37.5747 76.974 37.436C76.9153 37.2973 76.886 37.136 76.886 36.952C76.886 36.848 76.9033 36.7453 76.938 36.644C76.9727 36.54 77.0287 36.4413 77.106 36.348C77.186 36.2547 77.2887 36.1667 77.414 36.084C77.5393 36.0013 77.6927 35.9293 77.874 35.868C78.058 35.8067 78.2713 35.7573 78.514 35.72C78.7567 35.68 79.034 35.656 79.346 35.648V35.408C79.346 35.1333 79.2873 34.9307 79.17 34.8C79.0527 34.6667 78.8833 34.6 78.662 34.6C78.502 34.6 78.3687 34.6187 78.262 34.656C78.158 34.6933 78.066 34.736 77.986 34.784C77.906 34.8293 77.8327 34.8707 77.766 34.908C77.702 34.9453 77.63 34.964 77.55 34.964C77.4807 34.964 77.422 34.9467 77.374 34.912C77.326 34.8747 77.2873 34.832 77.258 34.784L77.082 34.468ZM86.9414 33.896L85.6374 38H84.8454C84.7548 38 84.6921 37.9413 84.6574 37.824L83.9214 35.452C83.8974 35.372 83.8748 35.2933 83.8534 35.216C83.8348 35.136 83.8188 35.056 83.8054 34.976C83.7894 35.056 83.7708 35.1373 83.7494 35.22C83.7308 35.3 83.7094 35.38 83.6854 35.46L82.9374 37.824C82.9054 37.9413 82.8348 38 82.7254 38H81.9654L80.6654 33.896H81.4534C81.5254 33.896 81.5868 33.9133 81.6374 33.948C81.6881 33.9827 81.7214 34.0267 81.7374 34.08L82.3254 36.272C82.3548 36.392 82.3801 36.5093 82.4014 36.624C82.4254 36.7387 82.4454 36.8533 82.4614 36.968C82.4908 36.8533 82.5214 36.7387 82.5534 36.624C82.5881 36.5093 82.6241 36.392 82.6614 36.272L83.3414 34.072C83.3574 34.0187 83.3881 33.9747 83.4334 33.94C83.4814 33.9053 83.5388 33.888 83.6054 33.888H84.0414C84.1108 33.888 84.1694 33.9053 84.2174 33.94C84.2681 33.9747 84.3014 34.0187 84.3174 34.072L84.9774 36.272C85.0121 36.392 85.0441 36.5107 85.0734 36.628C85.1054 36.7427 85.1361 36.8573 85.1654 36.972C85.2001 36.7453 85.2494 36.512 85.3134 36.272L85.9174 34.08C85.9361 34.0267 85.9694 33.9827 86.0174 33.948C86.0654 33.9133 86.1228 33.896 86.1894 33.896H86.9414Z" fill="black"/>
</svg>
