<svg width="47" height="20" viewBox="0 0 47 20" fill="none" xmlns="http://www.w3.org/2000/svg">
<rect x="1.5" y="1" width="44" height="8" fill="#2F1C04"/>
<rect x="1.5" y="1" width="44" height="8" stroke="#2F1C04"/>
<path d="M4.95641 5.14H5.20841C5.30974 5.14 5.39374 5.12667 5.46041 5.1C5.52707 5.07067 5.58441 5.02533 5.63241 4.964L7.22841 2.944C7.29507 2.85867 7.36441 2.8 7.43641 2.768C7.51107 2.73333 7.60441 2.716 7.71641 2.716H8.64441L6.69641 5.12C6.58174 5.26667 6.46307 5.37067 6.34041 5.432C6.42841 5.464 6.50707 5.50933 6.57641 5.568C6.64841 5.624 6.71641 5.69867 6.78041 5.792L8.78841 8.5H7.84041C7.71241 8.5 7.61641 8.48267 7.55241 8.448C7.49107 8.41067 7.43907 8.35733 7.39641 8.288L5.76041 6.152C5.70974 6.08 5.65107 6.02933 5.58441 6C5.51774 5.97067 5.42174 5.956 5.29641 5.956H4.95641V8.5H3.88041V2.716H4.95641V5.14ZM10.3248 3.572V5.176H12.3488V6.004H10.3248V7.64H12.8928V8.5H9.24478V2.716H12.8928V3.572H10.3248ZM16.2103 6.26V8.5H15.1383V6.26L13.0303 2.716H13.9783C14.0717 2.716 14.145 2.73867 14.1983 2.784C14.2543 2.82933 14.301 2.88667 14.3383 2.956L15.3943 4.888C15.4557 5.00267 15.509 5.11067 15.5543 5.212C15.6023 5.31333 15.645 5.41467 15.6823 5.516C15.717 5.41467 15.757 5.31333 15.8023 5.212C15.8477 5.11067 15.8997 5.00267 15.9583 4.888L17.0103 2.956C17.0397 2.89733 17.0837 2.84267 17.1423 2.792C17.201 2.74133 17.2757 2.716 17.3663 2.716H18.3183L16.2103 6.26ZM22.8338 3.6H21.0898V8.5H20.0138V3.6H18.2698V2.716H22.8338V3.6ZM25.2187 5.468C25.4214 5.468 25.5974 5.44267 25.7467 5.392C25.8987 5.34133 26.0227 5.272 26.1187 5.184C26.2174 5.09333 26.2907 4.98667 26.3387 4.864C26.3867 4.74133 26.4107 4.60667 26.4107 4.46C26.4107 4.16667 26.3134 3.94133 26.1187 3.784C25.9267 3.62667 25.6321 3.548 25.2347 3.548H24.5467V5.468H25.2187ZM27.9867 8.5H27.0147C26.8307 8.5 26.6974 8.428 26.6147 8.284L25.3987 6.432C25.3534 6.36267 25.3027 6.31333 25.2467 6.284C25.1934 6.25467 25.1134 6.24 25.0067 6.24H24.5467V8.5H23.4707V2.716H25.2347C25.6267 2.716 25.9627 2.75733 26.2427 2.84C26.5254 2.92 26.7561 3.03333 26.9347 3.18C27.1161 3.32667 27.2494 3.50267 27.3347 3.708C27.4201 3.91067 27.4627 4.13467 27.4627 4.38C27.4627 4.57467 27.4334 4.75867 27.3747 4.932C27.3187 5.10533 27.2361 5.26267 27.1267 5.404C27.0201 5.54533 26.8867 5.66933 26.7267 5.776C26.5694 5.88267 26.3894 5.96667 26.1867 6.028C26.2561 6.068 26.3201 6.116 26.3787 6.172C26.4374 6.22533 26.4907 6.28933 26.5387 6.364L27.9867 8.5ZM31.5473 6.316L30.8433 4.392C30.8087 4.30667 30.7727 4.20533 30.7353 4.088C30.698 3.97067 30.6607 3.844 30.6233 3.708C30.5887 3.844 30.5527 3.972 30.5153 4.092C30.478 4.20933 30.442 4.312 30.4073 4.4L29.7073 6.316H31.5473ZM33.4473 8.5H32.6153C32.522 8.5 32.446 8.47733 32.3873 8.432C32.3287 8.384 32.2847 8.32533 32.2553 8.256L31.8233 7.076H29.4273L28.9953 8.256C28.974 8.31733 28.9327 8.37333 28.8713 8.424C28.81 8.47467 28.734 8.5 28.6433 8.5H27.8033L30.0793 2.716H31.1753L33.4473 8.5ZM37.7262 7.136C37.7848 7.136 37.8368 7.15867 37.8822 7.204L38.3062 7.664C38.0715 7.95467 37.7822 8.17733 37.4382 8.332C37.0968 8.48667 36.6862 8.564 36.2062 8.564C35.7768 8.564 35.3902 8.49067 35.0462 8.344C34.7048 8.19733 34.4128 7.99333 34.1702 7.732C33.9275 7.47067 33.7408 7.15867 33.6102 6.796C33.4822 6.43333 33.4182 6.03733 33.4182 5.608C33.4182 5.17333 33.4875 4.776 33.6262 4.416C33.7648 4.05333 33.9595 3.74133 34.2102 3.48C34.4635 3.21867 34.7648 3.016 35.1142 2.872C35.4635 2.72533 35.8502 2.652 36.2742 2.652C36.6955 2.652 37.0688 2.72133 37.3942 2.86C37.7222 2.99867 38.0008 3.18 38.2302 3.404L37.8702 3.904C37.8488 3.936 37.8208 3.964 37.7862 3.988C37.7542 4.012 37.7088 4.024 37.6502 4.024C37.6102 4.024 37.5688 4.01333 37.5262 3.992C37.4835 3.968 37.4368 3.94 37.3862 3.908C37.3355 3.87333 37.2768 3.836 37.2102 3.796C37.1435 3.756 37.0662 3.72 36.9782 3.688C36.8902 3.65333 36.7875 3.62533 36.6702 3.604C36.5555 3.58 36.4222 3.568 36.2702 3.568C36.0115 3.568 35.7742 3.61467 35.5582 3.708C35.3448 3.79867 35.1608 3.932 35.0062 4.108C34.8515 4.28133 34.7315 4.49467 34.6462 4.748C34.5608 4.99867 34.5182 5.28533 34.5182 5.608C34.5182 5.93333 34.5635 6.22267 34.6542 6.476C34.7475 6.72933 34.8728 6.94267 35.0302 7.116C35.1875 7.28933 35.3728 7.42267 35.5862 7.516C35.7995 7.60667 36.0288 7.652 36.2742 7.652C36.4208 7.652 36.5528 7.644 36.6702 7.628C36.7902 7.612 36.8995 7.58667 36.9982 7.552C37.0995 7.51733 37.1942 7.47333 37.2822 7.42C37.3728 7.364 37.4622 7.296 37.5502 7.216C37.5768 7.192 37.6048 7.17333 37.6342 7.16C37.6635 7.144 37.6942 7.136 37.7262 7.136ZM39.9992 5.14H40.2512C40.3526 5.14 40.4366 5.12667 40.5032 5.1C40.5699 5.07067 40.6272 5.02533 40.6752 4.964L42.2712 2.944C42.3379 2.85867 42.4072 2.8 42.4792 2.768C42.5539 2.73333 42.6472 2.716 42.7592 2.716H43.6872L41.7392 5.12C41.6246 5.26667 41.5059 5.37067 41.3832 5.432C41.4712 5.464 41.5499 5.50933 41.6192 5.568C41.6912 5.624 41.7592 5.69867 41.8232 5.792L43.8312 8.5H42.8832C42.7552 8.5 42.6592 8.48267 42.5952 8.448C42.5339 8.41067 42.4819 8.35733 42.4392 8.288L40.8032 6.152C40.7526 6.08 40.6939 6.02933 40.6272 6C40.5606 5.97067 40.4646 5.956 40.3392 5.956H39.9992V8.5H38.9232V2.716H39.9992V5.14Z" fill="white"/>
<rect x="1.5" y="11" width="44" height="8" fill="#FF9300"/>
<rect x="1.5" y="11" width="44" height="8" stroke="#FF9300"/>
<path d="M4.95641 15.14H5.20841C5.30974 15.14 5.39374 15.1267 5.46041 15.1C5.52707 15.0707 5.58441 15.0253 5.63241 14.964L7.22841 12.944C7.29507 12.8587 7.36441 12.8 7.43641 12.768C7.51107 12.7333 7.60441 12.716 7.71641 12.716H8.64441L6.69641 15.12C6.58174 15.2667 6.46307 15.3707 6.34041 15.432C6.42841 15.464 6.50707 15.5093 6.57641 15.568C6.64841 15.624 6.71641 15.6987 6.78041 15.792L8.78841 18.5H7.84041C7.71241 18.5 7.61641 18.4827 7.55241 18.448C7.49107 18.4107 7.43907 18.3573 7.39641 18.288L5.76041 16.152C5.70974 16.08 5.65107 16.0293 5.58441 16C5.51774 15.9707 5.42174 15.956 5.29641 15.956H4.95641V18.5H3.88041V12.716H4.95641V15.14ZM10.3248 13.572V15.176H12.3488V16.004H10.3248V17.64H12.8928V18.5H9.24478V12.716H12.8928V13.572H10.3248ZM16.2103 16.26V18.5H15.1383V16.26L13.0303 12.716H13.9783C14.0717 12.716 14.145 12.7387 14.1983 12.784C14.2543 12.8293 14.301 12.8867 14.3383 12.956L15.3943 14.888C15.4557 15.0027 15.509 15.1107 15.5543 15.212C15.6023 15.3133 15.645 15.4147 15.6823 15.516C15.717 15.4147 15.757 15.3133 15.8023 15.212C15.8477 15.1107 15.8997 15.0027 15.9583 14.888L17.0103 12.956C17.0397 12.8973 17.0837 12.8427 17.1423 12.792C17.201 12.7413 17.2757 12.716 17.3663 12.716H18.3183L16.2103 16.26ZM22.8338 13.6H21.0898V18.5H20.0138V13.6H18.2698V12.716H22.8338V13.6ZM25.2187 15.468C25.4214 15.468 25.5974 15.4427 25.7467 15.392C25.8987 15.3413 26.0227 15.272 26.1187 15.184C26.2174 15.0933 26.2907 14.9867 26.3387 14.864C26.3867 14.7413 26.4107 14.6067 26.4107 14.46C26.4107 14.1667 26.3134 13.9413 26.1187 13.784C25.9267 13.6267 25.6321 13.548 25.2347 13.548H24.5467V15.468H25.2187ZM27.9867 18.5H27.0147C26.8307 18.5 26.6974 18.428 26.6147 18.284L25.3987 16.432C25.3534 16.3627 25.3027 16.3133 25.2467 16.284C25.1934 16.2547 25.1134 16.24 25.0067 16.24H24.5467V18.5H23.4707V12.716H25.2347C25.6267 12.716 25.9627 12.7573 26.2427 12.84C26.5254 12.92 26.7561 13.0333 26.9347 13.18C27.1161 13.3267 27.2494 13.5027 27.3347 13.708C27.4201 13.9107 27.4627 14.1347 27.4627 14.38C27.4627 14.5747 27.4334 14.7587 27.3747 14.932C27.3187 15.1053 27.2361 15.2627 27.1267 15.404C27.0201 15.5453 26.8867 15.6693 26.7267 15.776C26.5694 15.8827 26.3894 15.9667 26.1867 16.028C26.2561 16.068 26.3201 16.116 26.3787 16.172C26.4374 16.2253 26.4907 16.2893 26.5387 16.364L27.9867 18.5ZM31.5473 16.316L30.8433 14.392C30.8087 14.3067 30.7727 14.2053 30.7353 14.088C30.698 13.9707 30.6607 13.844 30.6233 13.708C30.5887 13.844 30.5527 13.972 30.5153 14.092C30.478 14.2093 30.442 14.312 30.4073 14.4L29.7073 16.316H31.5473ZM33.4473 18.5H32.6153C32.522 18.5 32.446 18.4773 32.3873 18.432C32.3287 18.384 32.2847 18.3253 32.2553 18.256L31.8233 17.076H29.4273L28.9953 18.256C28.974 18.3173 28.9327 18.3733 28.8713 18.424C28.81 18.4747 28.734 18.5 28.6433 18.5H27.8033L30.0793 12.716H31.1753L33.4473 18.5ZM37.7262 17.136C37.7848 17.136 37.8368 17.1587 37.8822 17.204L38.3062 17.664C38.0715 17.9547 37.7822 18.1773 37.4382 18.332C37.0968 18.4867 36.6862 18.564 36.2062 18.564C35.7768 18.564 35.3902 18.4907 35.0462 18.344C34.7048 18.1973 34.4128 17.9933 34.1702 17.732C33.9275 17.4707 33.7408 17.1587 33.6102 16.796C33.4822 16.4333 33.4182 16.0373 33.4182 15.608C33.4182 15.1733 33.4875 14.776 33.6262 14.416C33.7648 14.0533 33.9595 13.7413 34.2102 13.48C34.4635 13.2187 34.7648 13.016 35.1142 12.872C35.4635 12.7253 35.8502 12.652 36.2742 12.652C36.6955 12.652 37.0688 12.7213 37.3942 12.86C37.7222 12.9987 38.0008 13.18 38.2302 13.404L37.8702 13.904C37.8488 13.936 37.8208 13.964 37.7862 13.988C37.7542 14.012 37.7088 14.024 37.6502 14.024C37.6102 14.024 37.5688 14.0133 37.5262 13.992C37.4835 13.968 37.4368 13.94 37.3862 13.908C37.3355 13.8733 37.2768 13.836 37.2102 13.796C37.1435 13.756 37.0662 13.72 36.9782 13.688C36.8902 13.6533 36.7875 13.6253 36.6702 13.604C36.5555 13.58 36.4222 13.568 36.2702 13.568C36.0115 13.568 35.7742 13.6147 35.5582 13.708C35.3448 13.7987 35.1608 13.932 35.0062 14.108C34.8515 14.2813 34.7315 14.4947 34.6462 14.748C34.5608 14.9987 34.5182 15.2853 34.5182 15.608C34.5182 15.9333 34.5635 16.2227 34.6542 16.476C34.7475 16.7293 34.8728 16.9427 35.0302 17.116C35.1875 17.2893 35.3728 17.4227 35.5862 17.516C35.7995 17.6067 36.0288 17.652 36.2742 17.652C36.4208 17.652 36.5528 17.644 36.6702 17.628C36.7902 17.612 36.8995 17.5867 36.9982 17.552C37.0995 17.5173 37.1942 17.4733 37.2822 17.42C37.3728 17.364 37.4622 17.296 37.5502 17.216C37.5768 17.192 37.6048 17.1733 37.6342 17.16C37.6635 17.144 37.6942 17.136 37.7262 17.136ZM39.9992 15.14H40.2512C40.3526 15.14 40.4366 15.1267 40.5032 15.1C40.5699 15.0707 40.6272 15.0253 40.6752 14.964L42.2712 12.944C42.3379 12.8587 42.4072 12.8 42.4792 12.768C42.5539 12.7333 42.6472 12.716 42.7592 12.716H43.6872L41.7392 15.12C41.6246 15.2667 41.5059 15.3707 41.3832 15.432C41.4712 15.464 41.5499 15.5093 41.6192 15.568C41.6912 15.624 41.7592 15.6987 41.8232 15.792L43.8312 18.5H42.8832C42.7552 18.5 42.6592 18.4827 42.5952 18.448C42.5339 18.4107 42.4819 18.3573 42.4392 18.288L40.8032 16.152C40.7526 16.08 40.6939 16.0293 40.6272 16C40.5606 15.9707 40.4646 15.956 40.3392 15.956H39.9992V18.5H38.9232V12.716H39.9992V15.14Z" fill="white"/>
</svg>
