<svg width="51" height="28" viewBox="0 0 51 28" fill="none" xmlns="http://www.w3.org/2000/svg">
<rect x="2.5" y="2.5" width="46" height="9" rx="1" fill="#F1BB72"/>
<rect x="2.5" y="2.5" width="46" height="9" rx="1" stroke="#F1BB72"/>
<path d="M13.6303 9.132C13.8383 9.132 14.0236 9.09733 14.1863 9.028C14.3516 8.95867 14.4903 8.86133 14.6023 8.736C14.7143 8.61067 14.7996 8.45867 14.8583 8.28C14.9196 8.10133 14.9503 7.90133 14.9503 7.68V4.216H16.0263V7.68C16.0263 8.024 15.9703 8.34267 15.8583 8.636C15.7489 8.92667 15.5903 9.17867 15.3823 9.392C15.1769 9.60267 14.9263 9.768 14.6303 9.888C14.3343 10.0053 14.0009 10.064 13.6303 10.064C13.2569 10.064 12.9223 10.0053 12.6263 9.888C12.3303 9.768 12.0783 9.60267 11.8703 9.392C11.6649 9.17867 11.5063 8.92667 11.3943 8.636C11.2849 8.34267 11.2303 8.024 11.2303 7.68V4.216H12.3063V7.676C12.3063 7.89733 12.3356 8.09733 12.3943 8.276C12.4556 8.45467 12.5423 8.608 12.6543 8.736C12.7689 8.86133 12.9076 8.95867 13.0703 9.028C13.2356 9.09733 13.4223 9.132 13.6303 9.132ZM17.755 6.4C17.8376 6.31733 17.9243 6.24133 18.015 6.172C18.1083 6.1 18.2056 6.04 18.307 5.992C18.411 5.94133 18.5216 5.90267 18.639 5.876C18.7563 5.84667 18.8843 5.832 19.023 5.832C19.247 5.832 19.4456 5.87067 19.619 5.948C19.7923 6.02267 19.9363 6.12933 20.051 6.268C20.1683 6.404 20.2563 6.568 20.315 6.76C20.3763 6.94933 20.407 7.15867 20.407 7.388V10H19.419V7.388C19.419 7.13733 19.3616 6.944 19.247 6.808C19.1323 6.66933 18.9576 6.6 18.723 6.6C18.5523 6.6 18.3923 6.63867 18.243 6.716C18.0936 6.79333 17.9523 6.89867 17.819 7.032V10H16.831V5.896H17.435C17.563 5.896 17.647 5.956 17.687 6.076L17.755 6.4ZM22.2506 5.896V10H21.2586V5.896H22.2506ZM22.3866 4.7C22.3866 4.78533 22.3693 4.86533 22.3346 4.94C22.2999 5.01467 22.2533 5.08 22.1946 5.136C22.1386 5.192 22.0719 5.23733 21.9946 5.272C21.9173 5.304 21.8346 5.32 21.7466 5.32C21.6613 5.32 21.5799 5.304 21.5026 5.272C21.4279 5.23733 21.3626 5.192 21.3066 5.136C21.2506 5.08 21.2053 5.01467 21.1706 4.94C21.1386 4.86533 21.1226 4.78533 21.1226 4.7C21.1226 4.612 21.1386 4.52933 21.1706 4.452C21.2053 4.37467 21.2506 4.308 21.3066 4.252C21.3626 4.196 21.4279 4.152 21.5026 4.12C21.5799 4.08533 21.6613 4.068 21.7466 4.068C21.8346 4.068 21.9173 4.08533 21.9946 4.12C22.0719 4.152 22.1386 4.196 22.1946 4.252C22.2533 4.308 22.2999 4.37467 22.3346 4.452C22.3693 4.52933 22.3866 4.612 22.3866 4.7ZM24.1258 8.936C24.2378 9.072 24.3592 9.168 24.4898 9.224C24.6232 9.28 24.7672 9.308 24.9218 9.308C25.0712 9.308 25.2058 9.28 25.3258 9.224C25.4458 9.168 25.5472 9.08267 25.6298 8.968C25.7152 8.85333 25.7805 8.70933 25.8258 8.536C25.8712 8.36 25.8938 8.15333 25.8938 7.916C25.8938 7.676 25.8738 7.47333 25.8338 7.308C25.7965 7.14 25.7418 7.004 25.6698 6.9C25.5978 6.796 25.5098 6.72 25.4058 6.672C25.3045 6.624 25.1885 6.6 25.0578 6.6C24.8525 6.6 24.6778 6.644 24.5338 6.732C24.3898 6.81733 24.2538 6.93867 24.1258 7.096V8.936ZM24.0738 6.456C24.2418 6.26667 24.4325 6.11333 24.6458 5.996C24.8592 5.87867 25.1098 5.82 25.3978 5.82C25.6218 5.82 25.8258 5.86667 26.0098 5.96C26.1965 6.05333 26.3565 6.18933 26.4898 6.368C26.6258 6.544 26.7298 6.76267 26.8018 7.024C26.8765 7.28267 26.9138 7.58 26.9138 7.916C26.9138 8.22267 26.8725 8.50667 26.7898 8.768C26.7072 9.02933 26.5885 9.256 26.4338 9.448C26.2818 9.64 26.0965 9.79067 25.8778 9.9C25.6618 10.0067 25.4192 10.06 25.1498 10.06C24.9205 10.06 24.7245 10.0253 24.5618 9.956C24.3992 9.884 24.2538 9.78533 24.1258 9.66V11.34H23.1378V5.896H23.7418C23.8698 5.896 23.9538 5.956 23.9938 6.076L24.0738 6.456ZM29.3807 5.832C29.6847 5.832 29.9607 5.88133 30.2087 5.98C30.4594 6.07867 30.6727 6.21867 30.8487 6.4C31.0274 6.58133 31.1647 6.80267 31.2607 7.064C31.3567 7.32533 31.4047 7.61733 31.4047 7.94C31.4047 8.26533 31.3567 8.55867 31.2607 8.82C31.1647 9.08133 31.0274 9.304 30.8487 9.488C30.6727 9.672 30.4594 9.81333 30.2087 9.912C29.9607 10.0107 29.6847 10.06 29.3807 10.06C29.0741 10.06 28.7954 10.0107 28.5447 9.912C28.2941 9.81333 28.0794 9.672 27.9007 9.488C27.7247 9.304 27.5874 9.08133 27.4887 8.82C27.3927 8.55867 27.3447 8.26533 27.3447 7.94C27.3447 7.61733 27.3927 7.32533 27.4887 7.064C27.5874 6.80267 27.7247 6.58133 27.9007 6.4C28.0794 6.21867 28.2941 6.07867 28.5447 5.98C28.7954 5.88133 29.0741 5.832 29.3807 5.832ZM29.3807 9.3C29.7221 9.3 29.9741 9.18533 30.1367 8.956C30.3021 8.72667 30.3847 8.39067 30.3847 7.948C30.3847 7.50533 30.3021 7.168 30.1367 6.936C29.9741 6.704 29.7221 6.588 29.3807 6.588C29.0341 6.588 28.7767 6.70533 28.6087 6.94C28.4434 7.172 28.3607 7.508 28.3607 7.948C28.3607 8.388 28.4434 8.724 28.6087 8.956C28.7767 9.18533 29.0341 9.3 29.3807 9.3ZM33.0385 4.056V10H32.0505V4.056H33.0385ZM36.0708 8.248C35.7855 8.26133 35.5455 8.28667 35.3508 8.324C35.1562 8.35867 35.0002 8.404 34.8828 8.46C34.7655 8.516 34.6815 8.58133 34.6308 8.656C34.5802 8.73067 34.5548 8.812 34.5548 8.9C34.5548 9.07333 34.6055 9.19733 34.7068 9.272C34.8108 9.34667 34.9455 9.384 35.1108 9.384C35.3135 9.384 35.4882 9.348 35.6348 9.276C35.7842 9.20133 35.9295 9.08933 36.0708 8.94V8.248ZM33.8068 6.468C34.2788 6.036 34.8468 5.82 35.5108 5.82C35.7508 5.82 35.9655 5.86 36.1548 5.94C36.3442 6.01733 36.5042 6.12667 36.6348 6.268C36.7655 6.40667 36.8642 6.57333 36.9308 6.768C37.0002 6.96267 37.0348 7.176 37.0348 7.408V10H36.5868C36.4935 10 36.4215 9.98667 36.3708 9.96C36.3202 9.93067 36.2802 9.87333 36.2508 9.788L36.1628 9.492C36.0588 9.58533 35.9575 9.668 35.8588 9.74C35.7602 9.80933 35.6575 9.868 35.5508 9.916C35.4442 9.964 35.3295 10 35.2068 10.024C35.0868 10.0507 34.9535 10.064 34.8068 10.064C34.6335 10.064 34.4735 10.0413 34.3268 9.996C34.1802 9.948 34.0535 9.87733 33.9468 9.784C33.8402 9.69067 33.7575 9.57467 33.6988 9.436C33.6402 9.29733 33.6108 9.136 33.6108 8.952C33.6108 8.848 33.6282 8.74533 33.6628 8.644C33.6975 8.54 33.7535 8.44133 33.8308 8.348C33.9108 8.25467 34.0135 8.16667 34.1388 8.084C34.2642 8.00133 34.4175 7.92933 34.5988 7.868C34.7828 7.80667 34.9962 7.75733 35.2388 7.72C35.4815 7.68 35.7588 7.656 36.0708 7.648V7.408C36.0708 7.13333 36.0122 6.93067 35.8948 6.8C35.7775 6.66667 35.6082 6.6 35.3868 6.6C35.2268 6.6 35.0935 6.61867 34.9868 6.656C34.8828 6.69333 34.7908 6.736 34.7108 6.784C34.6308 6.82933 34.5575 6.87067 34.4908 6.908C34.4268 6.94533 34.3548 6.964 34.2748 6.964C34.2055 6.964 34.1468 6.94667 34.0988 6.912C34.0508 6.87467 34.0122 6.832 33.9828 6.784L33.8068 6.468ZM38.7773 6.608C38.9053 6.36267 39.0573 6.17067 39.2333 6.032C39.4093 5.89067 39.6173 5.82 39.8573 5.82C40.0467 5.82 40.1987 5.86133 40.3133 5.944L40.2493 6.684C40.236 6.732 40.216 6.76667 40.1893 6.788C40.1653 6.80667 40.132 6.816 40.0893 6.816C40.0493 6.816 39.9893 6.80933 39.9093 6.796C39.832 6.78267 39.756 6.776 39.6813 6.776C39.572 6.776 39.4747 6.792 39.3893 6.824C39.304 6.856 39.2267 6.90267 39.1573 6.964C39.0907 7.02267 39.0307 7.09467 38.9773 7.18C38.9267 7.26533 38.8787 7.36267 38.8333 7.472V10H37.8453V5.896H38.4253C38.5267 5.896 38.5973 5.91467 38.6373 5.952C38.6773 5.98667 38.704 6.05067 38.7173 6.144L38.7773 6.608Z" fill="black"/>
<rect x="1.5" y="15.5" width="48" height="11" rx="1" fill="#804900"/>
<rect x="1.5" y="15.5" width="48" height="11" rx="1" stroke="#804900"/>
<path d="M13.6303 23.132C13.8383 23.132 14.0236 23.0973 14.1863 23.028C14.3516 22.9587 14.4903 22.8613 14.6023 22.736C14.7143 22.6107 14.7996 22.4587 14.8583 22.28C14.9196 22.1013 14.9503 21.9013 14.9503 21.68V18.216H16.0263V21.68C16.0263 22.024 15.9703 22.3427 15.8583 22.636C15.7489 22.9267 15.5903 23.1787 15.3823 23.392C15.1769 23.6027 14.9263 23.768 14.6303 23.888C14.3343 24.0053 14.0009 24.064 13.6303 24.064C13.2569 24.064 12.9223 24.0053 12.6263 23.888C12.3303 23.768 12.0783 23.6027 11.8703 23.392C11.6649 23.1787 11.5063 22.9267 11.3943 22.636C11.2849 22.3427 11.2303 22.024 11.2303 21.68V18.216H12.3063V21.676C12.3063 21.8973 12.3356 22.0973 12.3943 22.276C12.4556 22.4547 12.5423 22.608 12.6543 22.736C12.7689 22.8613 12.9076 22.9587 13.0703 23.028C13.2356 23.0973 13.4223 23.132 13.6303 23.132ZM17.755 20.4C17.8376 20.3173 17.9243 20.2413 18.015 20.172C18.1083 20.1 18.2056 20.04 18.307 19.992C18.411 19.9413 18.5216 19.9027 18.639 19.876C18.7563 19.8467 18.8843 19.832 19.023 19.832C19.247 19.832 19.4456 19.8707 19.619 19.948C19.7923 20.0227 19.9363 20.1293 20.051 20.268C20.1683 20.404 20.2563 20.568 20.315 20.76C20.3763 20.9493 20.407 21.1587 20.407 21.388V24H19.419V21.388C19.419 21.1373 19.3616 20.944 19.247 20.808C19.1323 20.6693 18.9576 20.6 18.723 20.6C18.5523 20.6 18.3923 20.6387 18.243 20.716C18.0936 20.7933 17.9523 20.8987 17.819 21.032V24H16.831V19.896H17.435C17.563 19.896 17.647 19.956 17.687 20.076L17.755 20.4ZM22.2506 19.896V24H21.2586V19.896H22.2506ZM22.3866 18.7C22.3866 18.7853 22.3693 18.8653 22.3346 18.94C22.2999 19.0147 22.2533 19.08 22.1946 19.136C22.1386 19.192 22.0719 19.2373 21.9946 19.272C21.9173 19.304 21.8346 19.32 21.7466 19.32C21.6613 19.32 21.5799 19.304 21.5026 19.272C21.4279 19.2373 21.3626 19.192 21.3066 19.136C21.2506 19.08 21.2053 19.0147 21.1706 18.94C21.1386 18.8653 21.1226 18.7853 21.1226 18.7C21.1226 18.612 21.1386 18.5293 21.1706 18.452C21.2053 18.3747 21.2506 18.308 21.3066 18.252C21.3626 18.196 21.4279 18.152 21.5026 18.12C21.5799 18.0853 21.6613 18.068 21.7466 18.068C21.8346 18.068 21.9173 18.0853 21.9946 18.12C22.0719 18.152 22.1386 18.196 22.1946 18.252C22.2533 18.308 22.2999 18.3747 22.3346 18.452C22.3693 18.5293 22.3866 18.612 22.3866 18.7ZM24.1258 22.936C24.2378 23.072 24.3592 23.168 24.4898 23.224C24.6232 23.28 24.7672 23.308 24.9218 23.308C25.0712 23.308 25.2058 23.28 25.3258 23.224C25.4458 23.168 25.5472 23.0827 25.6298 22.968C25.7152 22.8533 25.7805 22.7093 25.8258 22.536C25.8712 22.36 25.8938 22.1533 25.8938 21.916C25.8938 21.676 25.8738 21.4733 25.8338 21.308C25.7965 21.14 25.7418 21.004 25.6698 20.9C25.5978 20.796 25.5098 20.72 25.4058 20.672C25.3045 20.624 25.1885 20.6 25.0578 20.6C24.8525 20.6 24.6778 20.644 24.5338 20.732C24.3898 20.8173 24.2538 20.9387 24.1258 21.096V22.936ZM24.0738 20.456C24.2418 20.2667 24.4325 20.1133 24.6458 19.996C24.8592 19.8787 25.1098 19.82 25.3978 19.82C25.6218 19.82 25.8258 19.8667 26.0098 19.96C26.1965 20.0533 26.3565 20.1893 26.4898 20.368C26.6258 20.544 26.7298 20.7627 26.8018 21.024C26.8765 21.2827 26.9138 21.58 26.9138 21.916C26.9138 22.2227 26.8725 22.5067 26.7898 22.768C26.7072 23.0293 26.5885 23.256 26.4338 23.448C26.2818 23.64 26.0965 23.7907 25.8778 23.9C25.6618 24.0067 25.4192 24.06 25.1498 24.06C24.9205 24.06 24.7245 24.0253 24.5618 23.956C24.3992 23.884 24.2538 23.7853 24.1258 23.66V25.34H23.1378V19.896H23.7418C23.8698 19.896 23.9538 19.956 23.9938 20.076L24.0738 20.456ZM29.3807 19.832C29.6847 19.832 29.9607 19.8813 30.2087 19.98C30.4594 20.0787 30.6727 20.2187 30.8487 20.4C31.0274 20.5813 31.1647 20.8027 31.2607 21.064C31.3567 21.3253 31.4047 21.6173 31.4047 21.94C31.4047 22.2653 31.3567 22.5587 31.2607 22.82C31.1647 23.0813 31.0274 23.304 30.8487 23.488C30.6727 23.672 30.4594 23.8133 30.2087 23.912C29.9607 24.0107 29.6847 24.06 29.3807 24.06C29.0741 24.06 28.7954 24.0107 28.5447 23.912C28.2941 23.8133 28.0794 23.672 27.9007 23.488C27.7247 23.304 27.5874 23.0813 27.4887 22.82C27.3927 22.5587 27.3447 22.2653 27.3447 21.94C27.3447 21.6173 27.3927 21.3253 27.4887 21.064C27.5874 20.8027 27.7247 20.5813 27.9007 20.4C28.0794 20.2187 28.2941 20.0787 28.5447 19.98C28.7954 19.8813 29.0741 19.832 29.3807 19.832ZM29.3807 23.3C29.7221 23.3 29.9741 23.1853 30.1367 22.956C30.3021 22.7267 30.3847 22.3907 30.3847 21.948C30.3847 21.5053 30.3021 21.168 30.1367 20.936C29.9741 20.704 29.7221 20.588 29.3807 20.588C29.0341 20.588 28.7767 20.7053 28.6087 20.94C28.4434 21.172 28.3607 21.508 28.3607 21.948C28.3607 22.388 28.4434 22.724 28.6087 22.956C28.7767 23.1853 29.0341 23.3 29.3807 23.3ZM33.0385 18.056V24H32.0505V18.056H33.0385ZM36.0708 22.248C35.7855 22.2613 35.5455 22.2867 35.3508 22.324C35.1562 22.3587 35.0002 22.404 34.8828 22.46C34.7655 22.516 34.6815 22.5813 34.6308 22.656C34.5802 22.7307 34.5548 22.812 34.5548 22.9C34.5548 23.0733 34.6055 23.1973 34.7068 23.272C34.8108 23.3467 34.9455 23.384 35.1108 23.384C35.3135 23.384 35.4882 23.348 35.6348 23.276C35.7842 23.2013 35.9295 23.0893 36.0708 22.94V22.248ZM33.8068 20.468C34.2788 20.036 34.8468 19.82 35.5108 19.82C35.7508 19.82 35.9655 19.86 36.1548 19.94C36.3442 20.0173 36.5042 20.1267 36.6348 20.268C36.7655 20.4067 36.8642 20.5733 36.9308 20.768C37.0002 20.9627 37.0348 21.176 37.0348 21.408V24H36.5868C36.4935 24 36.4215 23.9867 36.3708 23.96C36.3202 23.9307 36.2802 23.8733 36.2508 23.788L36.1628 23.492C36.0588 23.5853 35.9575 23.668 35.8588 23.74C35.7602 23.8093 35.6575 23.868 35.5508 23.916C35.4442 23.964 35.3295 24 35.2068 24.024C35.0868 24.0507 34.9535 24.064 34.8068 24.064C34.6335 24.064 34.4735 24.0413 34.3268 23.996C34.1802 23.948 34.0535 23.8773 33.9468 23.784C33.8402 23.6907 33.7575 23.5747 33.6988 23.436C33.6402 23.2973 33.6108 23.136 33.6108 22.952C33.6108 22.848 33.6282 22.7453 33.6628 22.644C33.6975 22.54 33.7535 22.4413 33.8308 22.348C33.9108 22.2547 34.0135 22.1667 34.1388 22.084C34.2642 22.0013 34.4175 21.9293 34.5988 21.868C34.7828 21.8067 34.9962 21.7573 35.2388 21.72C35.4815 21.68 35.7588 21.656 36.0708 21.648V21.408C36.0708 21.1333 36.0122 20.9307 35.8948 20.8C35.7775 20.6667 35.6082 20.6 35.3868 20.6C35.2268 20.6 35.0935 20.6187 34.9868 20.656C34.8828 20.6933 34.7908 20.736 34.7108 20.784C34.6308 20.8293 34.5575 20.8707 34.4908 20.908C34.4268 20.9453 34.3548 20.964 34.2748 20.964C34.2055 20.964 34.1468 20.9467 34.0988 20.912C34.0508 20.8747 34.0122 20.832 33.9828 20.784L33.8068 20.468ZM38.7773 20.608C38.9053 20.3627 39.0573 20.1707 39.2333 20.032C39.4093 19.8907 39.6173 19.82 39.8573 19.82C40.0467 19.82 40.1987 19.8613 40.3133 19.944L40.2493 20.684C40.236 20.732 40.216 20.7667 40.1893 20.788C40.1653 20.8067 40.132 20.816 40.0893 20.816C40.0493 20.816 39.9893 20.8093 39.9093 20.796C39.832 20.7827 39.756 20.776 39.6813 20.776C39.572 20.776 39.4747 20.792 39.3893 20.824C39.304 20.856 39.2267 20.9027 39.1573 20.964C39.0907 21.0227 39.0307 21.0947 38.9773 21.18C38.9267 21.2653 38.8787 21.3627 38.8333 21.472V24H37.8453V19.896H38.4253C38.5267 19.896 38.5973 19.9147 38.6373 19.952C38.6773 19.9867 38.704 20.0507 38.7173 20.144L38.7773 20.608Z" fill="#FF9300"/>
</svg>
