<svg width="134" height="208" viewBox="0 0 134 208" fill="none" xmlns="http://www.w3.org/2000/svg">
<rect x="99.5115" y="200" width="30" height="6" fill="#2F1C04"/>
<rect x="99.5115" y="200" width="30" height="6" stroke="#2F1C04"/>
<path d="M105.571 204.695C105.664 204.695 105.737 204.722 105.791 204.775C105.847 204.827 105.875 204.896 105.875 204.982V205.5H102.403V205.213C102.403 205.155 102.415 205.094 102.438 205.031C102.464 204.966 102.503 204.907 102.557 204.856L104.094 203.316C104.222 203.185 104.336 203.06 104.437 202.941C104.539 202.822 104.624 202.705 104.692 202.588C104.76 202.471 104.811 202.353 104.846 202.234C104.883 202.113 104.902 201.986 104.902 201.853C104.902 201.732 104.885 201.625 104.85 201.534C104.815 201.441 104.764 201.363 104.699 201.3C104.636 201.237 104.559 201.19 104.468 201.16C104.379 201.127 104.279 201.111 104.167 201.111C104.064 201.111 103.969 201.126 103.88 201.156C103.794 201.184 103.717 201.225 103.649 201.279C103.581 201.33 103.524 201.391 103.478 201.461C103.431 201.531 103.396 201.608 103.373 201.692C103.333 201.799 103.282 201.87 103.219 201.905C103.156 201.94 103.065 201.949 102.946 201.93L102.491 201.849C102.526 201.607 102.593 201.394 102.694 201.212C102.794 201.028 102.919 200.875 103.068 200.754C103.22 200.63 103.392 200.538 103.586 200.477C103.782 200.414 103.992 200.383 104.216 200.383C104.449 200.383 104.663 200.418 104.857 200.488C105.05 200.556 105.216 200.652 105.354 200.778C105.491 200.904 105.599 201.056 105.676 201.233C105.753 201.411 105.791 201.608 105.791 201.825C105.791 202.012 105.763 202.184 105.707 202.343C105.653 202.502 105.58 202.653 105.487 202.798C105.396 202.943 105.288 203.083 105.165 203.218C105.041 203.353 104.911 203.491 104.776 203.631L103.635 204.796C103.745 204.764 103.853 204.739 103.961 204.723C104.07 204.704 104.174 204.695 104.272 204.695H105.571ZM116.104 204.852V205.5H113.304V204.852H114.329V201.902C114.329 201.785 114.333 201.665 114.34 201.541L113.612 202.15C113.57 202.183 113.528 202.204 113.486 202.213C113.446 202.22 113.408 202.22 113.37 202.213C113.335 202.206 113.304 202.195 113.276 202.178C113.248 202.16 113.227 202.14 113.213 202.119L112.94 201.744L114.483 200.432H115.194V204.852H116.104ZM123.203 201.849C123.238 201.607 123.306 201.394 123.406 201.212C123.507 201.028 123.632 200.875 123.781 200.754C123.933 200.63 124.105 200.538 124.299 200.477C124.495 200.414 124.705 200.383 124.929 200.383C125.162 200.383 125.372 200.417 125.559 200.484C125.748 200.55 125.909 200.642 126.042 200.761C126.175 200.878 126.276 201.015 126.346 201.174C126.419 201.333 126.455 201.504 126.455 201.688C126.455 201.849 126.436 201.992 126.399 202.115C126.364 202.237 126.313 202.343 126.245 202.434C126.177 202.525 126.093 202.602 125.993 202.665C125.893 202.728 125.779 202.78 125.653 202.822C125.957 202.918 126.183 203.064 126.332 203.26C126.482 203.456 126.556 203.702 126.556 203.998C126.556 204.25 126.51 204.473 126.416 204.667C126.323 204.861 126.197 205.024 126.038 205.157C125.88 205.288 125.695 205.387 125.485 205.454C125.278 205.522 125.057 205.556 124.824 205.556C124.57 205.556 124.348 205.527 124.159 205.468C123.97 205.41 123.805 205.324 123.665 205.209C123.525 205.095 123.406 204.955 123.308 204.789C123.21 204.624 123.126 204.432 123.056 204.215L123.438 204.058C123.538 204.016 123.632 204.005 123.718 204.026C123.807 204.045 123.871 204.092 123.91 204.166C123.952 204.248 123.998 204.329 124.047 204.408C124.098 204.487 124.159 204.558 124.229 204.621C124.299 204.682 124.381 204.732 124.474 204.772C124.57 204.809 124.683 204.828 124.813 204.828C124.96 204.828 125.089 204.805 125.198 204.758C125.308 204.709 125.399 204.646 125.471 204.569C125.546 204.492 125.601 204.407 125.636 204.313C125.673 204.218 125.692 204.122 125.692 204.026C125.692 203.905 125.679 203.795 125.653 203.697C125.628 203.597 125.574 203.512 125.492 203.442C125.411 203.372 125.293 203.317 125.139 203.277C124.987 203.238 124.783 203.218 124.526 203.218V202.602C124.739 202.6 124.915 202.58 125.055 202.542C125.195 202.505 125.306 202.454 125.387 202.388C125.471 202.321 125.53 202.24 125.562 202.147C125.595 202.054 125.611 201.951 125.611 201.839C125.611 201.601 125.545 201.42 125.412 201.296C125.279 201.173 125.102 201.111 124.88 201.111C124.777 201.111 124.683 201.126 124.596 201.156C124.51 201.184 124.432 201.225 124.362 201.279C124.294 201.33 124.237 201.391 124.19 201.461C124.144 201.531 124.109 201.608 124.085 201.692C124.046 201.799 123.993 201.87 123.928 201.905C123.865 201.94 123.775 201.949 123.658 201.93L123.203 201.849Z" fill="white"/>
<path d="M110.761 203L107.949 205.143L107.949 200.857L110.761 203Z" fill="white"/>
<path d="M118.261 203L121.074 200.857L121.074 205.143L118.261 203Z" fill="white"/>
<path opacity="0.5" d="M38 188H37V197.012H83V193H82V196H38V188Z" fill="#FF9000"/>
<g opacity="0.5">
<path fill-rule="evenodd" clip-rule="evenodd" d="M29 188L29 190L25 187.5L29 185L29 187L29 188Z" fill="#FF9000"/>
<path d="M45 188L28.5 188L28.5 187L45 187L45 188Z" fill="#FF9000"/>
</g>
<rect x="67.5115" y="148" width="30" height="6" fill="#2F1C04"/>
<rect x="67.5115" y="148" width="30" height="6" stroke="#2F1C04"/>
<path d="M70.5151 149.849C70.5501 149.607 70.6177 149.394 70.7181 149.212C70.8184 149.028 70.9432 148.875 71.0926 148.754C71.2442 148.63 71.4169 148.538 71.6106 148.477C71.8066 148.414 72.0166 148.383 72.2406 148.383C72.4739 148.383 72.6839 148.417 72.8706 148.484C73.0596 148.55 73.2206 148.642 73.3536 148.761C73.4866 148.878 73.5881 149.015 73.6581 149.174C73.7304 149.333 73.7666 149.504 73.7666 149.688C73.7666 149.849 73.7479 149.992 73.7106 150.115C73.6756 150.237 73.6242 150.343 73.5566 150.434C73.4889 150.525 73.4049 150.602 73.3046 150.665C73.2042 150.728 73.0911 150.78 72.9651 150.822C73.2684 150.918 73.4947 151.064 73.6441 151.26C73.7934 151.456 73.8681 151.702 73.8681 151.998C73.8681 152.25 73.8214 152.473 73.7281 152.667C73.6347 152.861 73.5087 153.024 73.3501 153.157C73.1914 153.288 73.0071 153.387 72.7971 153.454C72.5894 153.522 72.3689 153.556 72.1356 153.556C71.8812 153.556 71.6596 153.527 71.4706 153.468C71.2816 153.41 71.1171 153.324 70.9771 153.209C70.8371 153.095 70.7181 152.955 70.6201 152.789C70.5221 152.624 70.4381 152.432 70.3681 152.215L70.7496 152.058C70.8499 152.016 70.9432 152.005 71.0296 152.026C71.1182 152.045 71.1824 152.092 71.2221 152.166C71.2641 152.248 71.3096 152.329 71.3586 152.408C71.4099 152.487 71.4706 152.558 71.5406 152.621C71.6106 152.682 71.6922 152.732 71.7856 152.772C71.8812 152.809 71.9944 152.828 72.1251 152.828C72.2721 152.828 72.4004 152.805 72.5101 152.758C72.6197 152.709 72.7107 152.646 72.7831 152.569C72.8577 152.492 72.9126 152.407 72.9476 152.313C72.9849 152.218 73.0036 152.122 73.0036 152.026C73.0036 151.905 72.9907 151.795 72.9651 151.697C72.9394 151.597 72.8857 151.512 72.8041 151.442C72.7224 151.372 72.6046 151.317 72.4506 151.277C72.2989 151.238 72.0947 151.218 71.8381 151.218V150.602C72.0504 150.6 72.2266 150.58 72.3666 150.542C72.5066 150.505 72.6174 150.454 72.6991 150.388C72.7831 150.321 72.8414 150.24 72.8741 150.147C72.9067 150.054 72.9231 149.951 72.9231 149.839C72.9231 149.601 72.8566 149.42 72.7236 149.296C72.5906 149.173 72.4132 149.111 72.1916 149.111C72.0889 149.111 71.9944 149.126 71.9081 149.156C71.8217 149.184 71.7436 149.225 71.6736 149.279C71.6059 149.33 71.5487 149.391 71.5021 149.461C71.4554 149.531 71.4204 149.608 71.3971 149.692C71.3574 149.799 71.3049 149.87 71.2396 149.905C71.1766 149.94 71.0867 149.949 70.9701 149.93L70.5151 149.849ZM83.9147 152.695C84.008 152.695 84.0815 152.722 84.1352 152.775C84.1912 152.827 84.2192 152.896 84.2192 152.982V153.5H80.7472V153.213C80.7472 153.155 80.7589 153.094 80.7822 153.031C80.8079 152.966 80.8475 152.907 80.9012 152.856L82.4377 151.316C82.566 151.185 82.6804 151.06 82.7807 150.941C82.8834 150.822 82.9685 150.705 83.0362 150.588C83.1039 150.471 83.1552 150.353 83.1902 150.234C83.2275 150.113 83.2462 149.986 83.2462 149.853C83.2462 149.732 83.2287 149.625 83.1937 149.534C83.1587 149.441 83.1085 149.363 83.0432 149.3C82.9802 149.237 82.9032 149.19 82.8122 149.16C82.7235 149.127 82.6232 149.111 82.5112 149.111C82.4085 149.111 82.3129 149.126 82.2242 149.156C82.1379 149.184 82.0609 149.225 81.9932 149.279C81.9255 149.33 81.8684 149.391 81.8217 149.461C81.775 149.531 81.74 149.608 81.7167 149.692C81.677 149.799 81.6257 149.87 81.5627 149.905C81.4997 149.94 81.4087 149.949 81.2897 149.93L80.8347 149.849C80.8697 149.607 80.9374 149.394 81.0377 149.212C81.138 149.028 81.2629 148.875 81.4122 148.754C81.5639 148.63 81.7365 148.538 81.9302 148.477C82.1262 148.414 82.3362 148.383 82.5602 148.383C82.7935 148.383 83.007 148.418 83.2007 148.488C83.3944 148.556 83.56 148.652 83.6977 148.778C83.8354 148.904 83.9427 149.056 84.0197 149.233C84.0967 149.411 84.1352 149.608 84.1352 149.825C84.1352 150.012 84.1072 150.184 84.0512 150.343C83.9975 150.502 83.924 150.653 83.8307 150.798C83.7397 150.943 83.6324 151.083 83.5087 151.218C83.385 151.353 83.2555 151.491 83.1202 151.631L81.9792 152.796C82.0889 152.764 82.1974 152.739 82.3047 152.723C82.4144 152.704 82.5182 152.695 82.6162 152.695H83.9147ZM94.4478 152.852V153.5H91.6478V152.852H92.6733V149.902C92.6733 149.785 92.6768 149.665 92.6838 149.541L91.9558 150.15C91.9138 150.183 91.8718 150.204 91.8298 150.213C91.7902 150.22 91.7517 150.22 91.7143 150.213C91.6793 150.206 91.6478 150.195 91.6198 150.178C91.5918 150.16 91.5708 150.14 91.5568 150.119L91.2838 149.744L92.8273 148.432H93.5378V152.852H94.4478Z" fill="white"/>
<path d="M78.7615 151L75.949 153.143L75.949 148.857L78.7615 151Z" fill="white"/>
<path d="M89.074 151L86.2615 153.143L86.2615 148.857L89.074 151Z" fill="white"/>
<g opacity="0.5">
<path fill-rule="evenodd" clip-rule="evenodd" d="M61 136L61 138L57 135.5L61 133L61 135L61 136Z" fill="#FF9000"/>
<path d="M77 136L60.5 136L60.5 135L77 135L77 136Z" fill="#FF9000"/>
</g>
<g opacity="0.5">
<path fill-rule="evenodd" clip-rule="evenodd" d="M29 136L29 138L25 135.5L29 133L29 135L29 136Z" fill="#FF9000"/>
<path d="M45 136L28.5 136L28.5 135L45 135L45 136Z" fill="#FF9000"/>
</g>
<rect x="35.5115" y="96" width="30" height="6" fill="#2F1C04"/>
<rect x="35.5115" y="96" width="30" height="6" stroke="#2F1C04"/>
<path d="M47.5412 100.695C47.6345 100.695 47.708 100.722 47.7617 100.775C47.8177 100.827 47.8457 100.896 47.8457 100.982V101.5H44.3737V101.213C44.3737 101.155 44.3854 101.094 44.4087 101.031C44.4344 100.966 44.474 100.907 44.5277 100.856L46.0642 99.316C46.1925 99.1853 46.3069 99.0605 46.4072 98.9415C46.5099 98.8225 46.595 98.7047 46.6627 98.588C46.7304 98.4713 46.7817 98.3535 46.8167 98.2345C46.854 98.1132 46.8727 97.986 46.8727 97.853C46.8727 97.7317 46.8552 97.6255 46.8202 97.5345C46.7852 97.4412 46.735 97.363 46.6697 97.3C46.6067 97.237 46.5297 97.1903 46.4387 97.16C46.35 97.1273 46.2497 97.111 46.1377 97.111C46.035 97.111 45.9394 97.1262 45.8507 97.1565C45.7644 97.1845 45.6874 97.2253 45.6197 97.279C45.552 97.3303 45.4949 97.391 45.4482 97.461C45.4015 97.531 45.3665 97.608 45.3432 97.692C45.3035 97.7993 45.2522 97.8705 45.1892 97.9055C45.1262 97.9405 45.0352 97.9487 44.9162 97.93L44.4612 97.8495C44.4962 97.6068 44.5639 97.3945 44.6642 97.2125C44.7645 97.0282 44.8894 96.8753 45.0387 96.754C45.1904 96.6303 45.363 96.5382 45.5567 96.4775C45.7527 96.4145 45.9627 96.383 46.1867 96.383C46.42 96.383 46.6335 96.418 46.8272 96.488C47.0209 96.5557 47.1865 96.6525 47.3242 96.7785C47.4619 96.9045 47.5692 97.0562 47.6462 97.2335C47.7232 97.4108 47.7617 97.608 47.7617 97.825C47.7617 98.0117 47.7337 98.1843 47.6777 98.343C47.624 98.5017 47.5505 98.6533 47.4572 98.798C47.3662 98.9427 47.2589 99.0827 47.1352 99.218C47.0115 99.3533 46.882 99.491 46.7467 99.631L45.6057 100.796C45.7154 100.764 45.8239 100.739 45.9312 100.723C46.0409 100.704 46.1447 100.695 46.2427 100.695H47.5412ZM56.4772 100.852V101.5H53.6772V100.852H54.7027V97.902C54.7027 97.7853 54.7062 97.6652 54.7132 97.5415L53.9852 98.1505C53.9432 98.1832 53.9012 98.2042 53.8592 98.2135C53.8195 98.2205 53.781 98.2205 53.7437 98.2135C53.7087 98.2065 53.6772 98.1948 53.6492 98.1785C53.6212 98.1598 53.6002 98.14 53.5862 98.119L53.3132 97.7445L54.8567 96.432H55.5672V100.852H56.4772Z" fill="white"/>
<path d="M52.3865 99L49.574 101.143L49.574 96.8571L52.3865 99Z" fill="white"/>
<g opacity="0.5">
<path fill-rule="evenodd" clip-rule="evenodd" d="M29 84L29 86L25 83.5L29 81L29 83L29 84Z" fill="#FF9000"/>
<path d="M45 84L28.5 84L28.5 83L45 83L45 84Z" fill="#FF9000"/>
</g>
<rect x="3.5" y="44" width="30" height="6" fill="#2F1C04"/>
<rect x="3.5" y="44" width="30" height="6" stroke="#2F1C04"/>
<path d="M11.8745 44.439V49.5H11.3915C11.3168 49.5 11.2538 49.4883 11.2025 49.465C11.1535 49.4393 11.1056 49.3973 11.059 49.339L8.41647 45.965C8.43047 46.119 8.43747 46.2613 8.43747 46.392V49.5H7.60797V44.439H8.10147C8.14114 44.439 8.17497 44.4413 8.20297 44.446C8.23331 44.4483 8.25897 44.4553 8.27997 44.467C8.30331 44.4763 8.32547 44.4915 8.34647 44.5125C8.36747 44.5312 8.39081 44.5568 8.41647 44.5895L11.0695 47.9775C11.0625 47.8958 11.0566 47.8153 11.052 47.736C11.0473 47.6567 11.045 47.5832 11.045 47.5155V44.439H11.8745ZM17.723 46.9695C17.723 47.3405 17.6612 47.6847 17.5375 48.002C17.4162 48.317 17.2435 48.59 17.0195 48.821C16.7955 49.052 16.526 49.2328 16.211 49.3635C15.896 49.4918 15.546 49.556 15.161 49.556C14.7784 49.556 14.4295 49.4918 14.1145 49.3635C13.7995 49.2328 13.5289 49.052 13.3025 48.821C13.0785 48.59 12.9047 48.317 12.781 48.002C12.6574 47.6847 12.5955 47.3405 12.5955 46.9695C12.5955 46.5985 12.6574 46.2555 12.781 45.9405C12.9047 45.6232 13.0785 45.349 13.3025 45.118C13.5289 44.887 13.7995 44.7073 14.1145 44.579C14.4295 44.4483 14.7784 44.383 15.161 44.383C15.4177 44.383 15.6592 44.4133 15.8855 44.474C16.1119 44.5323 16.3195 44.6163 16.5085 44.726C16.6975 44.8333 16.8667 44.9652 17.016 45.1215C17.1677 45.2755 17.296 45.4482 17.401 45.6395C17.506 45.8308 17.5854 46.0385 17.639 46.2625C17.695 46.4865 17.723 46.7222 17.723 46.9695ZM16.7605 46.9695C16.7605 46.6918 16.7232 46.4433 16.6485 46.224C16.5739 46.0023 16.4677 45.8145 16.33 45.6605C16.1924 45.5065 16.0244 45.3887 15.826 45.307C15.63 45.2253 15.4084 45.1845 15.161 45.1845C14.9137 45.1845 14.6909 45.2253 14.4925 45.307C14.2965 45.3887 14.1285 45.5065 13.9885 45.6605C13.8509 45.8145 13.7447 46.0023 13.67 46.224C13.5954 46.4433 13.558 46.6918 13.558 46.9695C13.558 47.2472 13.5954 47.4968 13.67 47.7185C13.7447 47.9378 13.8509 48.1245 13.9885 48.2785C14.1285 48.4302 14.2965 48.5468 14.4925 48.6285C14.6909 48.7102 14.9137 48.751 15.161 48.751C15.4084 48.751 15.63 48.7102 15.826 48.6285C16.0244 48.5468 16.1924 48.4302 16.33 48.2785C16.4677 48.1245 16.5739 47.9378 16.6485 47.7185C16.7232 47.4968 16.7605 47.2472 16.7605 46.9695ZM20.987 45.188V46.686H22.884V47.4385H20.987V49.5H20.042V44.439H23.234V45.188H20.987ZM29.3898 44.439V49.5H28.5603V46.231C28.5603 46.1003 28.5673 45.9592 28.5813 45.8075L27.0518 48.681C26.9795 48.8187 26.8687 48.8875 26.7193 48.8875H26.5863C26.437 48.8875 26.3262 48.8187 26.2538 48.681L24.7068 45.797C24.7138 45.874 24.7197 45.9498 24.7243 46.0245C24.729 46.0992 24.7313 46.168 24.7313 46.231V49.5H23.9018V44.439H24.6123C24.6543 44.439 24.6905 44.4402 24.7208 44.4425C24.7512 44.4448 24.778 44.4507 24.8013 44.46C24.827 44.4693 24.8492 44.4845 24.8678 44.5055C24.8888 44.5265 24.9087 44.5545 24.9273 44.5895L26.4428 47.4C26.4825 47.4747 26.5187 47.5517 26.5513 47.631C26.5863 47.7103 26.6202 47.792 26.6528 47.876C26.6855 47.7897 26.7193 47.7068 26.7543 47.6275C26.7893 47.5458 26.8267 47.4677 26.8663 47.393L28.3608 44.5895C28.3795 44.5545 28.3993 44.5265 28.4203 44.5055C28.4413 44.4845 28.4635 44.4693 28.4868 44.46C28.5125 44.4507 28.5405 44.4448 28.5708 44.4425C28.6012 44.4402 28.6373 44.439 28.6793 44.439H29.3898Z" fill="white"/>
</svg>
