<svg width="135" height="108" viewBox="0 0 135 108" fill="none" xmlns="http://www.w3.org/2000/svg">
<rect x="2.5" y="2.5" width="29" height="22" rx="1" fill="#F1BB72"/>
<rect x="2.5" y="2.5" width="29" height="22" rx="1" stroke="#F1BB72"/>
<path d="M17.2825 14.108C17.2825 14.532 17.2118 14.9253 17.0705 15.288C16.9318 15.648 16.7345 15.96 16.4785 16.224C16.2225 16.488 15.9145 16.6947 15.5545 16.844C15.1945 16.9907 14.7945 17.064 14.3545 17.064C13.9172 17.064 13.5185 16.9907 13.1585 16.844C12.7985 16.6947 12.4892 16.488 12.2305 16.224C11.9745 15.96 11.7758 15.648 11.6345 15.288C11.4932 14.9253 11.4225 14.532 11.4225 14.108C11.4225 13.684 11.4932 13.292 11.6345 12.932C11.7758 12.5693 11.9745 12.256 12.2305 11.992C12.4892 11.728 12.7985 11.5227 13.1585 11.376C13.5185 11.2267 13.9172 11.152 14.3545 11.152C14.6478 11.152 14.9238 11.1867 15.1825 11.256C15.4412 11.3227 15.6785 11.4187 15.8945 11.544C16.1105 11.6667 16.3038 11.8173 16.4745 11.996C16.6478 12.172 16.7945 12.3693 16.9145 12.588C17.0345 12.8067 17.1252 13.044 17.1865 13.3C17.2505 13.556 17.2825 13.8253 17.2825 14.108ZM16.1825 14.108C16.1825 13.7907 16.1398 13.5067 16.0545 13.256C15.9692 13.0027 15.8478 12.788 15.6905 12.612C15.5332 12.436 15.3412 12.3013 15.1145 12.208C14.8905 12.1147 14.6372 12.068 14.3545 12.068C14.0718 12.068 13.8172 12.1147 13.5905 12.208C13.3665 12.3013 13.1745 12.436 13.0145 12.612C12.8572 12.788 12.7358 13.0027 12.6505 13.256C12.5652 13.5067 12.5225 13.7907 12.5225 14.108C12.5225 14.4253 12.5652 14.7107 12.6505 14.964C12.7358 15.2147 12.8572 15.428 13.0145 15.604C13.1745 15.7773 13.3665 15.9107 13.5905 16.004C13.8172 16.0973 14.0718 16.144 14.3545 16.144C14.6372 16.144 14.8905 16.0973 15.1145 16.004C15.3412 15.9107 15.5332 15.7773 15.6905 15.604C15.8478 15.428 15.9692 15.2147 16.0545 14.964C16.1398 14.7107 16.1825 14.4253 16.1825 14.108ZM18.1926 17V13.64L17.8366 13.584C17.7592 13.568 17.6966 13.5413 17.6486 13.504C17.6032 13.464 17.5806 13.408 17.5806 13.336V12.932H18.1926V12.7C18.1926 12.4653 18.2272 12.2547 18.2966 12.068C18.3686 11.8813 18.4699 11.7227 18.6006 11.592C18.7339 11.4613 18.8952 11.3613 19.0846 11.292C19.2739 11.2227 19.4872 11.188 19.7246 11.188C19.9139 11.188 20.0899 11.2133 20.2526 11.264L20.2326 11.756C20.2299 11.7933 20.2192 11.824 20.2006 11.848C20.1819 11.872 20.1566 11.8907 20.1246 11.904C20.0952 11.9147 20.0606 11.9227 20.0206 11.928C19.9806 11.9307 19.9379 11.932 19.8926 11.932C19.7752 11.932 19.6699 11.9453 19.5766 11.972C19.4859 11.996 19.4086 12.04 19.3446 12.104C19.2806 12.1653 19.2312 12.248 19.1966 12.352C19.1646 12.4533 19.1486 12.58 19.1486 12.732V12.932H20.7846V12.568C20.7846 12.3333 20.8192 12.1227 20.8886 11.936C20.9606 11.7493 21.0619 11.5907 21.1926 11.46C21.3259 11.3293 21.4872 11.2293 21.6766 11.16C21.8659 11.0907 22.0792 11.056 22.3166 11.056C22.4099 11.056 22.4992 11.0627 22.5846 11.076C22.6726 11.0867 22.7592 11.104 22.8446 11.128L22.8206 11.624C22.8152 11.7013 22.7792 11.7507 22.7126 11.772C22.6486 11.7907 22.5726 11.8 22.4846 11.8C22.3672 11.8 22.2619 11.8133 22.1686 11.84C22.0779 11.864 22.0006 11.908 21.9366 11.972C21.8726 12.0333 21.8232 12.116 21.7886 12.22C21.7566 12.3213 21.7406 12.448 21.7406 12.6V12.932H22.8046V13.636H21.7726V17H20.7846V13.636H19.1806V17H18.1926Z" fill="black"/>
<rect x="35.5" y="29.5" width="30" height="22" rx="1" fill="#F1BB72"/>
<rect x="35.5" y="29.5" width="30" height="22" rx="1" stroke="#F1BB72"/>
<path d="M45.5524 39.268C45.5204 39.324 45.4858 39.3653 45.4484 39.392C45.4138 39.416 45.3698 39.428 45.3164 39.428C45.2604 39.428 45.1991 39.408 45.1324 39.368C45.0684 39.3253 44.9911 39.2787 44.9004 39.228C44.8098 39.1773 44.7031 39.132 44.5804 39.092C44.4604 39.0493 44.3178 39.028 44.1524 39.028C44.0031 39.028 43.8724 39.0467 43.7604 39.084C43.6484 39.1187 43.5538 39.168 43.4764 39.232C43.4018 39.296 43.3458 39.3733 43.3084 39.464C43.2711 39.552 43.2524 39.6493 43.2524 39.756C43.2524 39.892 43.2898 40.0053 43.3644 40.096C43.4418 40.1867 43.5431 40.264 43.6684 40.328C43.7938 40.392 43.9364 40.4493 44.0964 40.5C44.2564 40.5507 44.4204 40.6053 44.5884 40.664C44.7564 40.72 44.9204 40.7867 45.0804 40.864C45.2404 40.9387 45.3831 41.0347 45.5084 41.152C45.6338 41.2667 45.7338 41.408 45.8084 41.576C45.8858 41.744 45.9244 41.948 45.9244 42.188C45.9244 42.4493 45.8791 42.6947 45.7884 42.924C45.7004 43.1507 45.5698 43.3493 45.3964 43.52C45.2258 43.688 45.0164 43.8213 44.7684 43.92C44.5204 44.016 44.2364 44.064 43.9164 44.064C43.7324 44.064 43.5511 44.0453 43.3724 44.008C43.1938 43.9733 43.0218 43.9227 42.8564 43.856C42.6938 43.7893 42.5404 43.7093 42.3964 43.616C42.2524 43.5227 42.1244 43.4187 42.0124 43.304L42.3284 42.788C42.3551 42.7507 42.3898 42.72 42.4324 42.696C42.4751 42.6693 42.5204 42.656 42.5684 42.656C42.6351 42.656 42.7071 42.684 42.7844 42.74C42.8618 42.7933 42.9538 42.8533 43.0604 42.92C43.1671 42.9867 43.2911 43.048 43.4324 43.104C43.5764 43.1573 43.7484 43.184 43.9484 43.184C44.2551 43.184 44.4924 43.112 44.6604 42.968C44.8284 42.8213 44.9124 42.612 44.9124 42.34C44.9124 42.188 44.8738 42.064 44.7964 41.968C44.7218 41.872 44.6218 41.792 44.4964 41.728C44.3711 41.6613 44.2284 41.6053 44.0684 41.56C43.9084 41.5147 43.7458 41.4653 43.5804 41.412C43.4151 41.3587 43.2524 41.2947 43.0924 41.22C42.9324 41.1453 42.7898 41.048 42.6644 40.928C42.5391 40.808 42.4378 40.6587 42.3604 40.48C42.2858 40.2987 42.2484 40.076 42.2484 39.812C42.2484 39.6013 42.2898 39.396 42.3724 39.196C42.4578 38.996 42.5804 38.8187 42.7404 38.664C42.9004 38.5093 43.0978 38.3853 43.3324 38.292C43.5671 38.1987 43.8364 38.152 44.1404 38.152C44.4818 38.152 44.7964 38.2053 45.0844 38.312C45.3724 38.4187 45.6178 38.568 45.8204 38.76L45.5524 39.268ZM49.2154 41.476C49.2154 41.348 49.1968 41.228 49.1594 41.116C49.1248 41.0013 49.0714 40.9013 48.9994 40.816C48.9274 40.7307 48.8354 40.664 48.7234 40.616C48.6141 40.5653 48.4861 40.54 48.3394 40.54C48.0541 40.54 47.8288 40.6213 47.6634 40.784C47.5008 40.9467 47.3968 41.1773 47.3514 41.476H49.2154ZM47.3314 42.072C47.3474 42.2827 47.3848 42.4653 47.4434 42.62C47.5021 42.772 47.5794 42.8987 47.6754 43C47.7714 43.0987 47.8848 43.1733 48.0154 43.224C48.1488 43.272 48.2954 43.296 48.4554 43.296C48.6154 43.296 48.7528 43.2773 48.8674 43.24C48.9848 43.2027 49.0861 43.1613 49.1714 43.116C49.2594 43.0707 49.3354 43.0293 49.3994 42.992C49.4661 42.9547 49.5301 42.936 49.5914 42.936C49.6741 42.936 49.7354 42.9667 49.7754 43.028L50.0594 43.388C49.9501 43.516 49.8274 43.624 49.6914 43.712C49.5554 43.7973 49.4128 43.8667 49.2634 43.92C49.1168 43.9707 48.9661 44.0067 48.8114 44.028C48.6594 44.0493 48.5114 44.06 48.3674 44.06C48.0821 44.06 47.8168 44.0133 47.5714 43.92C47.3261 43.824 47.1128 43.684 46.9314 43.5C46.7501 43.3133 46.6074 43.084 46.5034 42.812C46.3994 42.5373 46.3474 42.22 46.3474 41.86C46.3474 41.58 46.3928 41.3173 46.4834 41.072C46.5741 40.824 46.7034 40.6093 46.8714 40.428C47.0421 40.244 47.2488 40.0987 47.4914 39.992C47.7368 39.8853 48.0128 39.832 48.3194 39.832C48.5781 39.832 48.8168 39.8733 49.0354 39.956C49.2541 40.0387 49.4421 40.16 49.5994 40.32C49.7568 40.4773 49.8794 40.672 49.9674 40.904C50.0581 41.1333 50.1034 41.396 50.1034 41.692C50.1034 41.8413 50.0874 41.9427 50.0554 41.996C50.0234 42.0467 49.9621 42.072 49.8714 42.072H47.3314ZM51.6489 40.4C51.7315 40.3173 51.8182 40.2413 51.9089 40.172C52.0022 40.1 52.0995 40.04 52.2009 39.992C52.3049 39.9413 52.4155 39.9027 52.5329 39.876C52.6502 39.8467 52.7782 39.832 52.9169 39.832C53.1409 39.832 53.3395 39.8707 53.5129 39.948C53.6862 40.0227 53.8302 40.1293 53.9449 40.268C54.0622 40.404 54.1502 40.568 54.2089 40.76C54.2702 40.9493 54.3009 41.1587 54.3009 41.388V44H53.3129V41.388C53.3129 41.1373 53.2555 40.944 53.1409 40.808C53.0262 40.6693 52.8515 40.6 52.6169 40.6C52.4462 40.6 52.2862 40.6387 52.1369 40.716C51.9875 40.7933 51.8462 40.8987 51.7129 41.032V44H50.7249V39.896H51.3289C51.4569 39.896 51.5409 39.956 51.5809 40.076L51.6489 40.4ZM57.6965 40.944C57.5845 40.808 57.4618 40.712 57.3285 40.656C57.1978 40.6 57.0565 40.572 56.9045 40.572C56.7552 40.572 56.6205 40.6 56.5005 40.656C56.3805 40.712 56.2778 40.7973 56.1925 40.912C56.1072 41.024 56.0418 41.168 55.9965 41.344C55.9512 41.5173 55.9285 41.7227 55.9285 41.96C55.9285 42.2 55.9472 42.404 55.9845 42.572C56.0245 42.7373 56.0805 42.8733 56.1525 42.98C56.2245 43.084 56.3125 43.16 56.4165 43.208C56.5205 43.2533 56.6365 43.276 56.7645 43.276C56.9698 43.276 57.1445 43.2333 57.2885 43.148C57.4325 43.0627 57.5685 42.9413 57.6965 42.784V40.944ZM58.6845 38.056V44H58.0805C57.9498 44 57.8672 43.94 57.8325 43.82L57.7485 43.424C57.5832 43.6133 57.3925 43.7667 57.1765 43.884C56.9632 44.0013 56.7138 44.06 56.4285 44.06C56.2045 44.06 55.9992 44.0133 55.8125 43.92C55.6258 43.8267 55.4645 43.692 55.3285 43.516C55.1952 43.3373 55.0912 43.1173 55.0165 42.856C54.9445 42.5947 54.9085 42.296 54.9085 41.96C54.9085 41.656 54.9498 41.3733 55.0325 41.112C55.1152 40.8507 55.2338 40.624 55.3885 40.432C55.5432 40.24 55.7285 40.0907 55.9445 39.984C56.1605 39.8747 56.4032 39.82 56.6725 39.82C56.9018 39.82 57.0978 39.856 57.2605 39.928C57.4232 40 57.5685 40.0973 57.6965 40.22V38.056H58.6845Z" fill="black"/>
<rect x="69.5" y="56.5" width="30" height="22" rx="1" fill="#F1BB72"/>
<rect x="69.5" y="56.5" width="30" height="22" rx="1" stroke="#F1BB72"/>
<path d="M75.8652 61.268C75.8332 61.324 75.7986 61.3653 75.7612 61.392C75.7266 61.416 75.6826 61.428 75.6292 61.428C75.5732 61.428 75.5119 61.408 75.4452 61.368C75.3812 61.3253 75.3039 61.2787 75.2132 61.228C75.1226 61.1773 75.0159 61.132 74.8932 61.092C74.7732 61.0493 74.6306 61.028 74.4652 61.028C74.3159 61.028 74.1852 61.0467 74.0732 61.084C73.9612 61.1187 73.8666 61.168 73.7892 61.232C73.7146 61.296 73.6586 61.3733 73.6212 61.464C73.5839 61.552 73.5652 61.6493 73.5652 61.756C73.5652 61.892 73.6026 62.0053 73.6772 62.096C73.7546 62.1867 73.8559 62.264 73.9812 62.328C74.1066 62.392 74.2492 62.4493 74.4092 62.5C74.5692 62.5507 74.7332 62.6053 74.9012 62.664C75.0692 62.72 75.2332 62.7867 75.3932 62.864C75.5532 62.9387 75.6959 63.0347 75.8212 63.152C75.9466 63.2667 76.0466 63.408 76.1212 63.576C76.1986 63.744 76.2372 63.948 76.2372 64.188C76.2372 64.4493 76.1919 64.6947 76.1012 64.924C76.0132 65.1507 75.8826 65.3493 75.7092 65.52C75.5386 65.688 75.3292 65.8213 75.0812 65.92C74.8332 66.016 74.5492 66.064 74.2292 66.064C74.0452 66.064 73.8639 66.0453 73.6852 66.008C73.5066 65.9733 73.3346 65.9227 73.1692 65.856C73.0066 65.7893 72.8532 65.7093 72.7092 65.616C72.5652 65.5227 72.4372 65.4187 72.3252 65.304L72.6412 64.788C72.6679 64.7507 72.7026 64.72 72.7452 64.696C72.7879 64.6693 72.8332 64.656 72.8812 64.656C72.9479 64.656 73.0199 64.684 73.0972 64.74C73.1746 64.7933 73.2666 64.8533 73.3732 64.92C73.4799 64.9867 73.6039 65.048 73.7452 65.104C73.8892 65.1573 74.0612 65.184 74.2612 65.184C74.5679 65.184 74.8052 65.112 74.9732 64.968C75.1412 64.8213 75.2252 64.612 75.2252 64.34C75.2252 64.188 75.1866 64.064 75.1092 63.968C75.0346 63.872 74.9346 63.792 74.8092 63.728C74.6839 63.6613 74.5412 63.6053 74.3812 63.56C74.2212 63.5147 74.0586 63.4653 73.8932 63.412C73.7279 63.3587 73.5652 63.2947 73.4052 63.22C73.2452 63.1453 73.1026 63.048 72.9772 62.928C72.8519 62.808 72.7506 62.6587 72.6732 62.48C72.5986 62.2987 72.5612 62.076 72.5612 61.812C72.5612 61.6013 72.6026 61.396 72.6852 61.196C72.7706 60.996 72.8932 60.8187 73.0532 60.664C73.2132 60.5093 73.4106 60.3853 73.6452 60.292C73.8799 60.1987 74.1492 60.152 74.4532 60.152C74.7946 60.152 75.1092 60.2053 75.3972 60.312C75.6852 60.4187 75.9306 60.568 76.1332 60.76L75.8652 61.268ZM79.5282 63.476C79.5282 63.348 79.5096 63.228 79.4722 63.116C79.4376 63.0013 79.3842 62.9013 79.3122 62.816C79.2402 62.7307 79.1482 62.664 79.0362 62.616C78.9269 62.5653 78.7989 62.54 78.6522 62.54C78.3669 62.54 78.1416 62.6213 77.9762 62.784C77.8136 62.9467 77.7096 63.1773 77.6642 63.476H79.5282ZM77.6442 64.072C77.6602 64.2827 77.6976 64.4653 77.7562 64.62C77.8149 64.772 77.8922 64.8987 77.9882 65C78.0842 65.0987 78.1976 65.1733 78.3282 65.224C78.4616 65.272 78.6082 65.296 78.7682 65.296C78.9282 65.296 79.0656 65.2773 79.1802 65.24C79.2976 65.2027 79.3989 65.1613 79.4842 65.116C79.5722 65.0707 79.6483 65.0293 79.7122 64.992C79.7789 64.9547 79.8429 64.936 79.9042 64.936C79.9869 64.936 80.0482 64.9667 80.0882 65.028L80.3722 65.388C80.2629 65.516 80.1403 65.624 80.0043 65.712C79.8682 65.7973 79.7256 65.8667 79.5762 65.92C79.4296 65.9707 79.2789 66.0067 79.1242 66.028C78.9722 66.0493 78.8242 66.06 78.6802 66.06C78.3949 66.06 78.1296 66.0133 77.8842 65.92C77.6389 65.824 77.4256 65.684 77.2442 65.5C77.0629 65.3133 76.9202 65.084 76.8162 64.812C76.7122 64.5373 76.6602 64.22 76.6602 63.86C76.6602 63.58 76.7056 63.3173 76.7962 63.072C76.8869 62.824 77.0162 62.6093 77.1842 62.428C77.3549 62.244 77.5616 62.0987 77.8042 61.992C78.0496 61.8853 78.3256 61.832 78.6322 61.832C78.8909 61.832 79.1296 61.8733 79.3482 61.956C79.5669 62.0387 79.7549 62.16 79.9123 62.32C80.0696 62.4773 80.1922 62.672 80.2803 62.904C80.3709 63.1333 80.4162 63.396 80.4162 63.692C80.4162 63.8413 80.4002 63.9427 80.3682 63.996C80.3362 64.0467 80.2749 64.072 80.1842 64.072H77.6442ZM81.9617 62.4C82.0444 62.3173 82.131 62.2413 82.2217 62.172C82.315 62.1 82.4124 62.04 82.5137 61.992C82.6177 61.9413 82.7284 61.9027 82.8457 61.876C82.963 61.8467 83.091 61.832 83.2297 61.832C83.4537 61.832 83.6524 61.8707 83.8257 61.948C83.999 62.0227 84.143 62.1293 84.2577 62.268C84.375 62.404 84.463 62.568 84.5217 62.76C84.583 62.9493 84.6137 63.1587 84.6137 63.388V66H83.6257V63.388C83.6257 63.1373 83.5684 62.944 83.4537 62.808C83.339 62.6693 83.1644 62.6 82.9297 62.6C82.759 62.6 82.599 62.6387 82.4497 62.716C82.3004 62.7933 82.159 62.8987 82.0257 63.032V66H81.0377V61.896H81.6417C81.7697 61.896 81.8537 61.956 81.8937 62.076L81.9617 62.4ZM88.0093 62.944C87.8973 62.808 87.7746 62.712 87.6413 62.656C87.5106 62.6 87.3693 62.572 87.2173 62.572C87.068 62.572 86.9333 62.6 86.8133 62.656C86.6933 62.712 86.5906 62.7973 86.5053 62.912C86.42 63.024 86.3546 63.168 86.3093 63.344C86.264 63.5173 86.2413 63.7227 86.2413 63.96C86.2413 64.2 86.26 64.404 86.2973 64.572C86.3373 64.7373 86.3933 64.8733 86.4653 64.98C86.5373 65.084 86.6253 65.16 86.7293 65.208C86.8333 65.2533 86.9493 65.276 87.0773 65.276C87.2826 65.276 87.4573 65.2333 87.6013 65.148C87.7453 65.0627 87.8813 64.9413 88.0093 64.784V62.944ZM88.9973 60.056V66H88.3933C88.2626 66 88.18 65.94 88.1453 65.82L88.0613 65.424C87.896 65.6133 87.7053 65.7667 87.4893 65.884C87.276 66.0013 87.0266 66.06 86.7413 66.06C86.5173 66.06 86.312 66.0133 86.1253 65.92C85.9386 65.8267 85.7773 65.692 85.6413 65.516C85.508 65.3373 85.404 65.1173 85.3293 64.856C85.2573 64.5947 85.2213 64.296 85.2213 63.96C85.2213 63.656 85.2626 63.3733 85.3453 63.112C85.428 62.8507 85.5466 62.624 85.7013 62.432C85.856 62.24 86.0413 62.0907 86.2573 61.984C86.4733 61.8747 86.716 61.82 86.9853 61.82C87.2146 61.82 87.4106 61.856 87.5733 61.928C87.736 62 87.8813 62.0973 88.0093 62.22V60.056H88.9973ZM93.1017 63.296C92.8884 63.4347 92.7324 63.592 92.6337 63.768C92.5377 63.9413 92.4897 64.128 92.4897 64.328C92.4897 64.4747 92.515 64.6067 92.5657 64.724C92.6164 64.8413 92.6844 64.9413 92.7697 65.024C92.8577 65.104 92.959 65.1667 93.0737 65.212C93.191 65.2547 93.315 65.276 93.4457 65.276C93.6804 65.276 93.895 65.24 94.0897 65.168C94.2844 65.0933 94.4604 64.9907 94.6177 64.86L93.1017 63.296ZM96.9537 66H95.9857C95.8844 66 95.8017 65.988 95.7377 65.964C95.6764 65.94 95.611 65.8893 95.5417 65.812L95.1417 65.4C94.8884 65.608 94.6044 65.7707 94.2897 65.888C93.975 66.0053 93.635 66.064 93.2697 66.064C93.0484 66.064 92.8297 66.0267 92.6137 65.952C92.4004 65.8747 92.2097 65.764 92.0417 65.62C91.8737 65.476 91.7377 65.3027 91.6337 65.1C91.5324 64.8947 91.4817 64.664 91.4817 64.408C91.4817 64.2267 91.511 64.056 91.5697 63.896C91.6284 63.7333 91.7097 63.5827 91.8137 63.444C91.9177 63.3053 92.0417 63.1813 92.1857 63.072C92.3297 62.96 92.487 62.864 92.6577 62.784C92.5137 62.584 92.4097 62.3893 92.3457 62.2C92.2817 62.008 92.2497 61.8173 92.2497 61.628C92.2497 61.428 92.2857 61.2387 92.3577 61.06C92.4324 60.8787 92.539 60.7213 92.6777 60.588C92.8164 60.4547 92.987 60.3493 93.1897 60.272C93.3924 60.192 93.6217 60.152 93.8777 60.152C94.1124 60.152 94.3217 60.188 94.5057 60.26C94.6924 60.332 94.851 60.428 94.9817 60.548C95.115 60.668 95.219 60.8053 95.2937 60.96C95.371 61.1147 95.4164 61.2747 95.4297 61.44L94.8017 61.572C94.6844 61.596 94.599 61.5453 94.5457 61.42C94.5217 61.3507 94.4897 61.2853 94.4497 61.224C94.4124 61.16 94.367 61.1053 94.3137 61.06C94.2604 61.012 94.1977 60.9747 94.1257 60.948C94.0537 60.9187 93.971 60.904 93.8777 60.904C93.7657 60.904 93.6657 60.924 93.5777 60.964C93.4897 61.0013 93.415 61.0533 93.3537 61.12C93.295 61.184 93.2497 61.26 93.2177 61.348C93.1857 61.4333 93.1697 61.524 93.1697 61.62C93.1697 61.7 93.1777 61.7773 93.1937 61.852C93.2097 61.9267 93.2364 62.0013 93.2737 62.076C93.311 62.1507 93.359 62.228 93.4177 62.308C93.479 62.3853 93.5537 62.4693 93.6417 62.56L95.1777 64.156C95.2657 63.988 95.3364 63.8107 95.3897 63.624C95.443 63.4373 95.4777 63.248 95.4937 63.056C95.5017 62.9947 95.523 62.9453 95.5577 62.908C95.5924 62.8707 95.6404 62.852 95.7017 62.852H96.3177C96.315 63.204 96.2644 63.54 96.1657 63.86C96.067 64.18 95.9257 64.4747 95.7417 64.744L96.9537 66ZM78.7354 73.1V75.44C78.4421 75.656 78.1288 75.8147 77.7954 75.916C77.4648 76.0147 77.1101 76.064 76.7314 76.064C76.2594 76.064 75.8314 75.9907 75.4474 75.844C75.0661 75.6973 74.7394 75.4933 74.4674 75.232C74.1981 74.9707 73.9901 74.6587 73.8434 74.296C73.6968 73.9333 73.6234 73.5373 73.6234 73.108C73.6234 72.6733 73.6941 72.2747 73.8354 71.912C73.9768 71.5493 74.1768 71.2373 74.4354 70.976C74.6968 70.7147 75.0128 70.512 75.3834 70.368C75.7541 70.224 76.1701 70.152 76.6314 70.152C76.8661 70.152 77.0848 70.1707 77.2874 70.208C77.4928 70.2453 77.6821 70.2973 77.8554 70.364C78.0314 70.428 78.1914 70.5067 78.3354 70.6C78.4794 70.6933 78.6114 70.796 78.7314 70.908L78.4234 71.396C78.3754 71.4733 78.3128 71.5213 78.2354 71.54C78.1581 71.556 78.0741 71.536 77.9834 71.48C77.8954 71.4293 77.8074 71.3787 77.7194 71.328C77.6314 71.2773 77.5328 71.2333 77.4234 71.196C77.3168 71.1587 77.1954 71.128 77.0594 71.104C76.9261 71.08 76.7714 71.068 76.5954 71.068C76.3101 71.068 76.0514 71.116 75.8194 71.212C75.5901 71.308 75.3941 71.4453 75.2314 71.624C75.0688 71.8027 74.9434 72.0173 74.8554 72.268C74.7674 72.5187 74.7234 72.7987 74.7234 73.108C74.7234 73.4387 74.7701 73.7347 74.8634 73.996C74.9594 74.2547 75.0928 74.4747 75.2634 74.656C75.4368 74.8347 75.6448 74.972 75.8874 75.068C76.1301 75.1613 76.4008 75.208 76.6994 75.208C76.9128 75.208 77.1034 75.1853 77.2714 75.14C77.4394 75.0947 77.6034 75.0333 77.7634 74.956V73.908H77.0354C76.9661 73.908 76.9114 73.8893 76.8714 73.852C76.8341 73.812 76.8154 73.764 76.8154 73.708V73.1H78.7354ZM80.4805 70.056V76H79.4925V70.056H80.4805ZM83.1609 71.832C83.4649 71.832 83.7409 71.8813 83.9889 71.98C84.2395 72.0787 84.4529 72.2187 84.6289 72.4C84.8075 72.5813 84.9449 72.8027 85.0409 73.064C85.1369 73.3253 85.1849 73.6173 85.1849 73.94C85.1849 74.2653 85.1369 74.5587 85.0409 74.82C84.9449 75.0813 84.8075 75.304 84.6289 75.488C84.4529 75.672 84.2395 75.8133 83.9889 75.912C83.7409 76.0107 83.4649 76.06 83.1609 76.06C82.8542 76.06 82.5755 76.0107 82.3249 75.912C82.0742 75.8133 81.8595 75.672 81.6809 75.488C81.5049 75.304 81.3675 75.0813 81.2689 74.82C81.1729 74.5587 81.1249 74.2653 81.1249 73.94C81.1249 73.6173 81.1729 73.3253 81.2689 73.064C81.3675 72.8027 81.5049 72.5813 81.6809 72.4C81.8595 72.2187 82.0742 72.0787 82.3249 71.98C82.5755 71.8813 82.8542 71.832 83.1609 71.832ZM83.1609 75.3C83.5022 75.3 83.7542 75.1853 83.9169 74.956C84.0822 74.7267 84.1649 74.3907 84.1649 73.948C84.1649 73.5053 84.0822 73.168 83.9169 72.936C83.7542 72.704 83.5022 72.588 83.1609 72.588C82.8142 72.588 82.5569 72.7053 82.3889 72.94C82.2235 73.172 82.1409 73.508 82.1409 73.948C82.1409 74.388 82.2235 74.724 82.3889 74.956C82.5569 75.1853 82.8142 75.3 83.1609 75.3ZM86.8066 74.936C86.9186 75.072 87.04 75.168 87.1706 75.224C87.304 75.28 87.444 75.308 87.5906 75.308C87.7426 75.308 87.8786 75.2813 87.9986 75.228C88.1213 75.172 88.2253 75.0867 88.3106 74.972C88.396 74.8547 88.4613 74.7067 88.5066 74.528C88.552 74.3467 88.5746 74.1307 88.5746 73.88C88.5746 73.4293 88.5 73.104 88.3506 72.904C88.2013 72.7013 87.9866 72.6 87.7066 72.6C87.5173 72.6 87.352 72.644 87.2106 72.732C87.0693 72.8173 86.9346 72.9387 86.8066 73.096V74.936ZM86.8066 72.4C86.972 72.2267 87.1546 72.0893 87.3546 71.988C87.5573 71.884 87.788 71.832 88.0466 71.832C88.284 71.832 88.4973 71.8787 88.6866 71.972C88.8786 72.0653 89.0413 72.2 89.1746 72.376C89.3106 72.5493 89.4146 72.76 89.4866 73.008C89.5586 73.256 89.5946 73.5347 89.5946 73.844C89.5946 74.1773 89.5533 74.48 89.4706 74.752C89.388 75.024 89.2693 75.2573 89.1146 75.452C88.9626 75.644 88.7786 75.7933 88.5626 75.9C88.3466 76.0067 88.1066 76.06 87.8426 76.06C87.7146 76.06 87.5986 76.0467 87.4946 76.02C87.3906 75.996 87.2946 75.9613 87.2066 75.916C87.1186 75.8707 87.0373 75.816 86.9626 75.752C86.8906 75.6853 86.8213 75.612 86.7546 75.532L86.7106 75.808C86.6946 75.8773 86.6666 75.9267 86.6266 75.956C86.5893 75.9853 86.5373 76 86.4706 76H85.8186V70.056H86.8066V72.4ZM92.4057 74.248C92.1204 74.2613 91.8804 74.2867 91.6857 74.324C91.491 74.3587 91.335 74.404 91.2177 74.46C91.1004 74.516 91.0164 74.5813 90.9657 74.656C90.915 74.7307 90.8897 74.812 90.8897 74.9C90.8897 75.0733 90.9404 75.1973 91.0417 75.272C91.1457 75.3467 91.2804 75.384 91.4457 75.384C91.6484 75.384 91.823 75.348 91.9697 75.276C92.119 75.2013 92.2644 75.0893 92.4057 74.94V74.248ZM90.1417 72.468C90.6137 72.036 91.1817 71.82 91.8457 71.82C92.0857 71.82 92.3004 71.86 92.4897 71.94C92.679 72.0173 92.839 72.1267 92.9697 72.268C93.1004 72.4067 93.199 72.5733 93.2657 72.768C93.335 72.9627 93.3697 73.176 93.3697 73.408V76H92.9217C92.8284 76 92.7564 75.9867 92.7057 75.96C92.655 75.9307 92.615 75.8733 92.5857 75.788L92.4977 75.492C92.3937 75.5853 92.2924 75.668 92.1937 75.74C92.095 75.8093 91.9924 75.868 91.8857 75.916C91.779 75.964 91.6644 76 91.5417 76.024C91.4217 76.0507 91.2884 76.064 91.1417 76.064C90.9684 76.064 90.8084 76.0413 90.6617 75.996C90.515 75.948 90.3884 75.8773 90.2817 75.784C90.175 75.6907 90.0924 75.5747 90.0337 75.436C89.975 75.2973 89.9457 75.136 89.9457 74.952C89.9457 74.848 89.963 74.7453 89.9977 74.644C90.0324 74.54 90.0884 74.4413 90.1657 74.348C90.2457 74.2547 90.3484 74.1667 90.4737 74.084C90.599 74.0013 90.7524 73.9293 90.9337 73.868C91.1177 73.8067 91.331 73.7573 91.5737 73.72C91.8164 73.68 92.0937 73.656 92.4057 73.648V73.408C92.4057 73.1333 92.347 72.9307 92.2297 72.8C92.1124 72.6667 91.943 72.6 91.7217 72.6C91.5617 72.6 91.4284 72.6187 91.3217 72.656C91.2177 72.6933 91.1257 72.736 91.0457 72.784C90.9657 72.8293 90.8924 72.8707 90.8257 72.908C90.7617 72.9453 90.6897 72.964 90.6097 72.964C90.5404 72.964 90.4817 72.9467 90.4337 72.912C90.3857 72.8747 90.347 72.832 90.3177 72.784L90.1417 72.468ZM95.1802 70.056V76H94.1922V70.056H95.1802Z" fill="black"/>
<rect x="103.5" y="83.5" width="29" height="22" rx="1" fill="#F1BB72"/>
<rect x="103.5" y="83.5" width="29" height="22" rx="1" stroke="#F1BB72"/>
<path d="M117.062 95.816L116.358 93.892C116.324 93.8067 116.288 93.7053 116.25 93.588C116.213 93.4707 116.176 93.344 116.138 93.208C116.104 93.344 116.068 93.472 116.03 93.592C115.993 93.7093 115.957 93.812 115.922 93.9L115.222 95.816H117.062ZM118.962 98H118.13C118.037 98 117.961 97.9773 117.902 97.932C117.844 97.884 117.8 97.8253 117.77 97.756L117.338 96.576H114.942L114.51 97.756C114.489 97.8173 114.448 97.8733 114.386 97.924C114.325 97.9747 114.249 98 114.158 98H113.318L115.594 92.216H116.69L118.962 98ZM120.277 92.056V98H119.289V92.056H120.277ZM122.141 92.056V98H121.153V92.056H122.141Z" fill="black"/>
</svg>
