<svg width="56" height="48" viewBox="0 0 56 48" fill="none" xmlns="http://www.w3.org/2000/svg">
<path d="M2.49988 7.49982C2.49988 4.73839 4.73845 2.49982 7.49988 2.49982H15.4999C18.2613 2.49982 20.4999 4.73839 20.4999 7.49982L20.4999 10.4998C20.4999 13.2612 18.2613 15.4998 15.4999 15.4998H7.49988C4.73845 15.4998 2.49988 13.2612 2.49988 10.4998L2.49988 7.49982Z" fill="#CFCFCF"/>
<path fill-rule="evenodd" clip-rule="evenodd" d="M18 4.5L7.14309 4.5C5.96031 4.5 5 5.57586 5 6.90096L5 13.5L15.8569 13.5C17.0397 13.5 18 12.4239 18 11.0988L18 4.5Z" fill="#CFCFCF"/>
<path d="M10.9999 13.9998L10.9999 3.99982L11.9999 3.99982L11.9999 13.9998H10.9999Z" fill="#FF9300"/>
<path d="M7.49988 2.49982C4.73845 2.49982 2.49988 4.73839 2.49988 7.49982L2.49988 10.4998C2.49988 13.2612 4.73845 15.4998 7.49988 15.4998H15.4999C18.2613 15.4998 20.4999 13.2612 20.4999 10.4998L20.4999 7.49982C20.4999 4.73839 18.2613 2.49982 15.4999 2.49982L7.49988 2.49982Z" stroke="black"/>
<path d="M2.49988 31.4998C2.49988 28.7384 4.73845 26.4998 7.49988 26.4998H15.4999C18.2613 26.4998 20.4999 28.7384 20.4999 31.4998L20.4999 34.4998C20.4999 37.2612 18.2613 39.4998 15.4999 39.4998H7.49988C4.73845 39.4998 2.49988 37.2612 2.49988 34.4998L2.49988 31.4998Z" fill="#CFCFCF"/>
<path fill-rule="evenodd" clip-rule="evenodd" d="M18 28.5L7.14309 28.5C5.96031 28.5 5 29.5759 5 30.901L5 37.5L15.8569 37.5C17.0397 37.5 18 36.4239 18 35.0988L18 28.5Z" fill="#CFCFCF"/>
<path d="M10.9999 37.9998L10.9999 27.9998L11.9999 27.9998L11.9999 37.9998H10.9999Z" fill="#FF9300"/>
<path d="M7.49988 26.4998C4.73845 26.4998 2.49988 28.7384 2.49988 31.4998L2.49988 34.4998C2.49988 37.2612 4.73845 39.4998 7.49988 39.4998H15.4999C18.2613 39.4998 20.4999 37.2612 20.4999 34.4998L20.4999 31.4998C20.4999 28.7384 18.2613 26.4998 15.4999 26.4998L7.49988 26.4998Z" stroke="black"/>
<path d="M30.4999 7.49982C30.4999 4.73839 32.7385 2.49982 35.4999 2.49982H43.4999C46.2613 2.49982 48.4999 4.73839 48.4999 7.49982L48.4999 10.4998C48.4999 13.2612 46.2613 15.4998 43.4999 15.4998H35.4999C32.7385 15.4998 30.4999 13.2612 30.4999 10.4998L30.4999 7.49982Z" fill="#CFCFCF"/>
<path fill-rule="evenodd" clip-rule="evenodd" d="M46 4.5L35.1431 4.5C33.9603 4.5 33 5.57586 33 6.90096L33 13.5L43.8569 13.5C45.0397 13.5 46 12.4239 46 11.0988L46 4.5Z" fill="#CFCFCF"/>
<path d="M48.5 7.5C48.5 4.73858 46.2614 2.5 43.5 2.5L35.5 2.5C32.7386 2.5 30.5 4.73858 30.5 7.5L30.5 10.5C30.5 13.2614 32.7386 15.5 35.5 15.5L43.5 15.5C46.2614 15.5 48.5 13.2614 48.5 10.5L48.5 7.5Z" fill="#4487F6"/>
<path d="M38.9999 13.9998L38.9999 3.99982L39.9999 3.99982L39.9999 13.9998H38.9999Z" fill="#FF9300"/>
<path d="M35.4999 2.49982C32.7385 2.49982 30.4999 4.73839 30.4999 7.49982L30.4999 10.4998C30.4999 13.2612 32.7385 15.4998 35.4999 15.4998H43.4999C46.2613 15.4998 48.4999 13.2612 48.4999 10.4998L48.4999 7.49982C48.4999 4.73839 46.2613 2.49982 43.4999 2.49982L35.4999 2.49982Z" stroke="black"/>
<path d="M30.4999 31.4998C30.4999 28.7384 32.7385 26.4998 35.4999 26.4998H43.4999C46.2613 26.4998 48.4999 28.7384 48.4999 31.4998L48.4999 34.4998C48.4999 37.2612 46.2613 39.4998 43.4999 39.4998H35.4999C32.7385 39.4998 30.4999 37.2612 30.4999 34.4998L30.4999 31.4998Z" fill="#CFCFCF"/>
<path fill-rule="evenodd" clip-rule="evenodd" d="M46 28.5L35.1431 28.5C33.9603 28.5 33 29.5759 33 30.901L33 37.5L43.8569 37.5C45.0397 37.5 46 36.4239 46 35.0988L46 28.5Z" fill="#CFCFCF"/>
<path d="M48.5 31.5C48.5 28.7386 46.2614 26.5 43.5 26.5L35.5 26.5C32.7386 26.5 30.5 28.7386 30.5 31.5L30.5 34.5C30.5 37.2614 32.7386 39.5 35.5 39.5L43.5 39.5C46.2614 39.5 48.5 37.2614 48.5 34.5L48.5 31.5Z" fill="#4487F6"/>
<path d="M38.9999 37.9998L38.9999 27.9998L39.9999 27.9998L39.9999 37.9998H38.9999Z" fill="#FF9300"/>
<path d="M35.4999 26.4998C32.7385 26.4998 30.4999 28.7384 30.4999 31.4998L30.4999 34.4998C30.4999 37.2612 32.7385 39.4998 35.4999 39.4998H43.4999C46.2613 39.4998 48.4999 37.2612 48.4999 34.4998L48.4999 31.4998C48.4999 28.7384 46.2613 26.4998 43.4999 26.4998L35.4999 26.4998Z" stroke="black"/>
</svg>
