<svg width="135" height="36" viewBox="0 0 135 36" fill="none" xmlns="http://www.w3.org/2000/svg">
<rect x="2.5" y="2.5" width="42" height="7" rx="1" fill="#804900"/>
<rect x="2.5" y="2.5" width="42" height="7" rx="1" stroke="#804900"/>
<path d="M21.188 3.216L19.392 9H18.42L17.156 5.048C17.1213 4.952 17.0893 4.83467 17.06 4.696C17.044 4.76267 17.028 4.82533 17.012 4.884C16.996 4.94267 16.9786 4.99733 16.96 5.048L15.684 9H14.708L12.916 3.216H13.816C13.9093 3.216 13.9866 3.23867 14.048 3.284C14.112 3.32667 14.1546 3.38533 14.176 3.46L15.16 6.92C15.1813 7.00533 15.2013 7.09867 15.22 7.2C15.2413 7.29867 15.2626 7.40267 15.284 7.512C15.3053 7.4 15.328 7.29467 15.352 7.196C15.3786 7.09733 15.4066 7.00533 15.436 6.92L16.572 3.46C16.5933 3.39867 16.6346 3.34267 16.696 3.292C16.76 3.24133 16.8373 3.216 16.928 3.216H17.244C17.3373 3.216 17.4133 3.23867 17.472 3.284C17.5306 3.32933 17.5746 3.388 17.604 3.46L18.736 6.92C18.792 7.08533 18.8426 7.276 18.888 7.492C18.9226 7.28133 18.9613 7.09067 19.004 6.92L19.988 3.46C20.004 3.39333 20.044 3.336 20.108 3.288C20.1746 3.24 20.2533 3.216 20.344 3.216H21.188ZM23.298 7.248C23.0127 7.26133 22.7727 7.28667 22.578 7.324C22.3834 7.35867 22.2274 7.404 22.11 7.46C21.9927 7.516 21.9087 7.58133 21.858 7.656C21.8074 7.73067 21.782 7.812 21.782 7.9C21.782 8.07333 21.8327 8.19733 21.934 8.272C22.038 8.34667 22.1727 8.384 22.338 8.384C22.5407 8.384 22.7154 8.348 22.862 8.276C23.0114 8.20133 23.1567 8.08933 23.298 7.94V7.248ZM21.034 5.468C21.506 5.036 22.074 4.82 22.738 4.82C22.978 4.82 23.1927 4.86 23.382 4.94C23.5714 5.01733 23.7314 5.12667 23.862 5.268C23.9927 5.40667 24.0914 5.57333 24.158 5.768C24.2274 5.96267 24.262 6.176 24.262 6.408V9H23.814C23.7207 9 23.6487 8.98667 23.598 8.96C23.5474 8.93067 23.5074 8.87333 23.478 8.788L23.39 8.492C23.286 8.58533 23.1847 8.668 23.086 8.74C22.9874 8.80933 22.8847 8.868 22.778 8.916C22.6714 8.964 22.5567 9 22.434 9.024C22.314 9.05067 22.1807 9.064 22.034 9.064C21.8607 9.064 21.7007 9.04133 21.554 8.996C21.4074 8.948 21.2807 8.87733 21.174 8.784C21.0674 8.69067 20.9847 8.57467 20.926 8.436C20.8674 8.29733 20.838 8.136 20.838 7.952C20.838 7.848 20.8554 7.74533 20.89 7.644C20.9247 7.54 20.9807 7.44133 21.058 7.348C21.138 7.25467 21.2407 7.16667 21.366 7.084C21.4914 7.00133 21.6447 6.92933 21.826 6.868C22.01 6.80667 22.2234 6.75733 22.466 6.72C22.7087 6.68 22.986 6.656 23.298 6.648V6.408C23.298 6.13333 23.2394 5.93067 23.122 5.8C23.0047 5.66667 22.8354 5.6 22.614 5.6C22.454 5.6 22.3207 5.61867 22.214 5.656C22.11 5.69333 22.018 5.736 21.938 5.784C21.858 5.82933 21.7847 5.87067 21.718 5.908C21.654 5.94533 21.582 5.964 21.502 5.964C21.4327 5.964 21.374 5.94667 21.326 5.912C21.278 5.87467 21.2394 5.832 21.21 5.784L21.034 5.468ZM26.0045 5.608C26.1325 5.36267 26.2845 5.17067 26.4605 5.032C26.6365 4.89067 26.8445 4.82 27.0845 4.82C27.2739 4.82 27.4259 4.86133 27.5405 4.944L27.4765 5.684C27.4632 5.732 27.4432 5.76667 27.4165 5.788C27.3925 5.80667 27.3592 5.816 27.3165 5.816C27.2765 5.816 27.2165 5.80933 27.1365 5.796C27.0592 5.78267 26.9832 5.776 26.9085 5.776C26.7992 5.776 26.7019 5.792 26.6165 5.824C26.5312 5.856 26.4539 5.90267 26.3845 5.964C26.3179 6.02267 26.2579 6.09467 26.2045 6.18C26.1539 6.26533 26.1059 6.36267 26.0605 6.472V9H25.0725V4.896H25.6525C25.7539 4.896 25.8245 4.91467 25.8645 4.952C25.9045 4.98667 25.9312 5.05067 25.9445 5.144L26.0045 5.608ZM27.9369 9V4.896H28.5409C28.6689 4.896 28.7529 4.956 28.7929 5.076L28.8569 5.38C28.9289 5.3 29.0036 5.22667 29.0809 5.16C29.1609 5.09333 29.2449 5.036 29.3329 4.988C29.4236 4.94 29.5196 4.90267 29.6209 4.876C29.7249 4.84667 29.8382 4.832 29.9609 4.832C30.2196 4.832 30.4316 4.90267 30.5969 5.044C30.7649 5.18267 30.8902 5.368 30.9729 5.6C31.0369 5.464 31.1169 5.348 31.2129 5.252C31.3089 5.15333 31.4142 5.07333 31.5289 5.012C31.6436 4.95067 31.7649 4.90533 31.8929 4.876C32.0236 4.84667 32.1542 4.832 32.2849 4.832C32.5116 4.832 32.7129 4.86667 32.8889 4.936C33.0649 5.00533 33.2129 5.10667 33.3329 5.24C33.4529 5.37333 33.5436 5.536 33.6049 5.728C33.6689 5.92 33.7009 6.14 33.7009 6.388V9H32.7129V6.388C32.7129 6.12667 32.6556 5.93067 32.5409 5.8C32.4262 5.66667 32.2582 5.6 32.0369 5.6C31.9356 5.6 31.8409 5.61733 31.7529 5.652C31.6676 5.68667 31.5916 5.73733 31.5249 5.804C31.4609 5.868 31.4102 5.94933 31.3729 6.048C31.3356 6.14667 31.3169 6.26 31.3169 6.388V9H30.3249V6.388C30.3249 6.11333 30.2689 5.91333 30.1569 5.788C30.0476 5.66267 29.8862 5.6 29.6729 5.6C29.5289 5.6 29.3942 5.636 29.2689 5.708C29.1462 5.77733 29.0316 5.87333 28.9249 5.996V9H27.9369Z" fill="#FF9300"/>
<rect x="47.5" y="14.5" width="40" height="7" rx="1" fill="#804900"/>
<rect x="47.5" y="14.5" width="40" height="7" rx="1" stroke="#804900"/>
<path d="M59.9894 15.216V21H59.4374C59.352 21 59.28 20.9867 59.2214 20.96C59.1654 20.9307 59.1107 20.8827 59.0574 20.816L56.0374 16.96C56.0534 17.136 56.0614 17.2987 56.0614 17.448V21H55.1134V15.216H55.6774C55.7227 15.216 55.7614 15.2187 55.7934 15.224C55.828 15.2267 55.8574 15.2347 55.8814 15.248C55.908 15.2587 55.9334 15.276 55.9574 15.3C55.9814 15.3213 56.008 15.3507 56.0374 15.388L59.0694 19.26C59.0614 19.1667 59.0547 19.0747 59.0494 18.984C59.044 18.8933 59.0414 18.8093 59.0414 18.732V15.216H59.9894ZM63.5204 18.476C63.5204 18.348 63.5018 18.228 63.4644 18.116C63.4298 18.0013 63.3764 17.9013 63.3044 17.816C63.2324 17.7307 63.1404 17.664 63.0284 17.616C62.9191 17.5653 62.7911 17.54 62.6444 17.54C62.3591 17.54 62.1338 17.6213 61.9684 17.784C61.8058 17.9467 61.7018 18.1773 61.6564 18.476H63.5204ZM61.6364 19.072C61.6524 19.2827 61.6898 19.4653 61.7484 19.62C61.8071 19.772 61.8844 19.8987 61.9804 20C62.0764 20.0987 62.1898 20.1733 62.3204 20.224C62.4538 20.272 62.6004 20.296 62.7604 20.296C62.9204 20.296 63.0578 20.2773 63.1724 20.24C63.2898 20.2027 63.3911 20.1613 63.4764 20.116C63.5644 20.0707 63.6404 20.0293 63.7044 19.992C63.7711 19.9547 63.8351 19.936 63.8964 19.936C63.9791 19.936 64.0404 19.9667 64.0804 20.028L64.3644 20.388C64.2551 20.516 64.1324 20.624 63.9964 20.712C63.8604 20.7973 63.7178 20.8667 63.5684 20.92C63.4218 20.9707 63.2711 21.0067 63.1164 21.028C62.9644 21.0493 62.8164 21.06 62.6724 21.06C62.3871 21.06 62.1218 21.0133 61.8764 20.92C61.6311 20.824 61.4178 20.684 61.2364 20.5C61.0551 20.3133 60.9124 20.084 60.8084 19.812C60.7044 19.5373 60.6524 19.22 60.6524 18.86C60.6524 18.58 60.6978 18.3173 60.7884 18.072C60.8791 17.824 61.0084 17.6093 61.1764 17.428C61.3471 17.244 61.5538 17.0987 61.7964 16.992C62.0418 16.8853 62.3178 16.832 62.6244 16.832C62.8831 16.832 63.1218 16.8733 63.3404 16.956C63.5591 17.0387 63.7471 17.16 63.9044 17.32C64.0618 17.4773 64.1844 17.672 64.2724 17.904C64.3631 18.1333 64.4084 18.396 64.4084 18.692C64.4084 18.8413 64.3924 18.9427 64.3604 18.996C64.3284 19.0467 64.2671 19.072 64.1764 19.072H61.6364ZM68.5659 16.896V21H67.9619C67.8312 21 67.7485 20.94 67.7139 20.82L67.6459 20.492C67.4779 20.6627 67.2925 20.8013 67.0899 20.908C66.8872 21.012 66.6485 21.064 66.3739 21.064C66.1499 21.064 65.9512 21.0267 65.7779 20.952C65.6072 20.8747 65.4632 20.7667 65.3459 20.628C65.2285 20.4893 65.1392 20.3253 65.0779 20.136C65.0192 19.944 64.9899 19.7333 64.9899 19.504V16.896H65.9779V19.504C65.9779 19.7547 66.0352 19.9493 66.1499 20.088C66.2672 20.224 66.4419 20.292 66.6739 20.292C66.8445 20.292 67.0045 20.2547 67.1539 20.18C67.3032 20.1027 67.4445 19.9973 67.5779 19.864V16.896H68.5659ZM70.7935 21.064C70.4362 21.064 70.1615 20.964 69.9695 20.764C69.7802 20.5613 69.6855 20.2827 69.6855 19.928V17.636H69.2655C69.2122 17.636 69.1668 17.6187 69.1295 17.584C69.0922 17.5493 69.0735 17.4973 69.0735 17.428V17.036L69.7335 16.928L69.9415 15.808C69.9548 15.7547 69.9802 15.7133 70.0175 15.684C70.0548 15.6547 70.1028 15.64 70.1615 15.64H70.6735V16.932H71.7695V17.636H70.6735V19.86C70.6735 19.988 70.7042 20.088 70.7655 20.16C70.8295 20.232 70.9162 20.268 71.0255 20.268C71.0868 20.268 71.1375 20.2613 71.1775 20.248C71.2202 20.232 71.2562 20.216 71.2855 20.2C71.3175 20.184 71.3455 20.1693 71.3695 20.156C71.3935 20.14 71.4175 20.132 71.4415 20.132C71.4708 20.132 71.4948 20.14 71.5135 20.156C71.5322 20.1693 71.5522 20.1907 71.5735 20.22L71.8695 20.7C71.7255 20.82 71.5602 20.9107 71.3735 20.972C71.1868 21.0333 70.9935 21.064 70.7935 21.064ZM73.2141 17.608C73.3421 17.3627 73.4941 17.1707 73.6701 17.032C73.8461 16.8907 74.0541 16.82 74.2941 16.82C74.4834 16.82 74.6354 16.8613 74.7501 16.944L74.6861 17.684C74.6727 17.732 74.6527 17.7667 74.6261 17.788C74.6021 17.8067 74.5687 17.816 74.5261 17.816C74.4861 17.816 74.4261 17.8093 74.3461 17.796C74.2687 17.7827 74.1927 17.776 74.1181 17.776C74.0087 17.776 73.9114 17.792 73.8261 17.824C73.7407 17.856 73.6634 17.9027 73.5941 17.964C73.5274 18.0227 73.4674 18.0947 73.4141 18.18C73.3634 18.2653 73.3154 18.3627 73.2701 18.472V21H72.2821V16.896H72.8621C72.9634 16.896 73.0341 16.9147 73.0741 16.952C73.1141 16.9867 73.1407 17.0507 73.1541 17.144L73.2141 17.608ZM77.2597 19.248C76.9744 19.2613 76.7344 19.2867 76.5397 19.324C76.3451 19.3587 76.1891 19.404 76.0717 19.46C75.9544 19.516 75.8704 19.5813 75.8197 19.656C75.7691 19.7307 75.7437 19.812 75.7437 19.9C75.7437 20.0733 75.7944 20.1973 75.8957 20.272C75.9997 20.3467 76.1344 20.384 76.2997 20.384C76.5024 20.384 76.6771 20.348 76.8237 20.276C76.9731 20.2013 77.1184 20.0893 77.2597 19.94V19.248ZM74.9957 17.468C75.4677 17.036 76.0357 16.82 76.6997 16.82C76.9397 16.82 77.1544 16.86 77.3437 16.94C77.5331 17.0173 77.6931 17.1267 77.8237 17.268C77.9544 17.4067 78.0531 17.5733 78.1197 17.768C78.1891 17.9627 78.2237 18.176 78.2237 18.408V21H77.7757C77.6824 21 77.6104 20.9867 77.5597 20.96C77.5091 20.9307 77.4691 20.8733 77.4397 20.788L77.3517 20.492C77.2477 20.5853 77.1464 20.668 77.0477 20.74C76.9491 20.8093 76.8464 20.868 76.7397 20.916C76.6331 20.964 76.5184 21 76.3957 21.024C76.2757 21.0507 76.1424 21.064 75.9957 21.064C75.8224 21.064 75.6624 21.0413 75.5157 20.996C75.3691 20.948 75.2424 20.8773 75.1357 20.784C75.0291 20.6907 74.9464 20.5747 74.8877 20.436C74.8291 20.2973 74.7997 20.136 74.7997 19.952C74.7997 19.848 74.8171 19.7453 74.8517 19.644C74.8864 19.54 74.9424 19.4413 75.0197 19.348C75.0997 19.2547 75.2024 19.1667 75.3277 19.084C75.4531 19.0013 75.6064 18.9293 75.7877 18.868C75.9717 18.8067 76.1851 18.7573 76.4277 18.72C76.6704 18.68 76.9477 18.656 77.2597 18.648V18.408C77.2597 18.1333 77.2011 17.9307 77.0837 17.8C76.9664 17.6667 76.7971 17.6 76.5757 17.6C76.4157 17.6 76.2824 17.6187 76.1757 17.656C76.0717 17.6933 75.9797 17.736 75.8997 17.784C75.8197 17.8293 75.7464 17.8707 75.6797 17.908C75.6157 17.9453 75.5437 17.964 75.4637 17.964C75.3944 17.964 75.3357 17.9467 75.2877 17.912C75.2397 17.8747 75.2011 17.832 75.1717 17.784L74.9957 17.468ZM80.0342 15.056V21H79.0462V15.056H80.0342Z" fill="#FF9300"/>
<rect x="90.5" y="26.5" width="42" height="7" rx="1" fill="#804900"/>
<rect x="90.5" y="26.5" width="42" height="7" rx="1" stroke="#804900"/>
<path d="M103.674 32.16C103.874 32.16 104.042 32.136 104.178 32.088C104.314 32.04 104.422 31.976 104.502 31.896C104.585 31.816 104.644 31.7227 104.678 31.616C104.716 31.5093 104.734 31.396 104.734 31.276C104.734 31.1507 104.714 31.0387 104.674 30.94C104.634 30.8387 104.572 30.7533 104.486 30.684C104.401 30.612 104.29 30.5573 104.154 30.52C104.021 30.4827 103.86 30.464 103.67 30.464H102.586V32.16H103.674ZM102.586 28.048V29.72H103.442C103.81 29.72 104.088 29.6533 104.274 29.52C104.464 29.3867 104.558 29.1747 104.558 28.884C104.558 28.5827 104.473 28.368 104.302 28.24C104.132 28.112 103.865 28.048 103.502 28.048H102.586ZM103.502 27.216C103.881 27.216 104.205 27.252 104.474 27.324C104.744 27.396 104.964 27.4987 105.134 27.632C105.308 27.7653 105.434 27.9267 105.514 28.116C105.594 28.3053 105.634 28.5187 105.634 28.756C105.634 28.892 105.614 29.0227 105.574 29.148C105.534 29.2707 105.472 29.3867 105.386 29.496C105.304 29.6027 105.197 29.7 105.066 29.788C104.938 29.876 104.785 29.9507 104.606 30.012C105.401 30.1907 105.798 30.62 105.798 31.3C105.798 31.5453 105.752 31.772 105.658 31.98C105.565 32.188 105.429 32.368 105.25 32.52C105.072 32.6693 104.852 32.7867 104.59 32.872C104.329 32.9573 104.03 33 103.694 33H101.51V27.216H103.502ZM107.354 29.608C107.482 29.3627 107.634 29.1707 107.81 29.032C107.986 28.8907 108.194 28.82 108.434 28.82C108.623 28.82 108.775 28.8613 108.89 28.944L108.826 29.684C108.813 29.732 108.793 29.7667 108.766 29.788C108.742 29.8067 108.709 29.816 108.666 29.816C108.626 29.816 108.566 29.8093 108.486 29.796C108.409 29.7827 108.333 29.776 108.258 29.776C108.149 29.776 108.051 29.792 107.966 29.824C107.881 29.856 107.803 29.9027 107.734 29.964C107.667 30.0227 107.607 30.0947 107.554 30.18C107.503 30.2653 107.455 30.3627 107.41 30.472V33H106.422V28.896H107.002C107.103 28.896 107.174 28.9147 107.214 28.952C107.254 28.9867 107.281 29.0507 107.294 29.144L107.354 29.608ZM110.31 28.896V33H109.318V28.896H110.31ZM110.446 27.7C110.446 27.7853 110.429 27.8653 110.394 27.94C110.36 28.0147 110.313 28.08 110.254 28.136C110.198 28.192 110.132 28.2373 110.054 28.272C109.977 28.304 109.894 28.32 109.806 28.32C109.721 28.32 109.64 28.304 109.562 28.272C109.488 28.2373 109.422 28.192 109.366 28.136C109.31 28.08 109.265 28.0147 109.23 27.94C109.198 27.8653 109.182 27.7853 109.182 27.7C109.182 27.612 109.198 27.5293 109.23 27.452C109.265 27.3747 109.31 27.308 109.366 27.252C109.422 27.196 109.488 27.152 109.562 27.12C109.64 27.0853 109.721 27.068 109.806 27.068C109.894 27.068 109.977 27.0853 110.054 27.12C110.132 27.152 110.198 27.196 110.254 27.252C110.313 27.308 110.36 27.3747 110.394 27.452C110.429 27.5293 110.446 27.612 110.446 27.7ZM112.698 30.848C112.82 30.848 112.927 30.832 113.018 30.8C113.108 30.7653 113.183 30.7187 113.242 30.66C113.303 30.6013 113.348 30.5307 113.378 30.448C113.41 30.3653 113.426 30.2747 113.426 30.176C113.426 29.9733 113.364 29.8133 113.242 29.696C113.122 29.576 112.94 29.516 112.698 29.516C112.455 29.516 112.272 29.576 112.15 29.696C112.03 29.8133 111.97 29.9733 111.97 30.176C111.97 30.272 111.984 30.3613 112.014 30.444C112.046 30.5267 112.091 30.5987 112.15 30.66C112.211 30.7187 112.287 30.7653 112.378 30.8C112.471 30.832 112.578 30.848 112.698 30.848ZM113.814 33.184C113.814 33.104 113.79 33.0387 113.742 32.988C113.694 32.9373 113.628 32.8987 113.546 32.872C113.463 32.8427 113.366 32.8213 113.254 32.808C113.144 32.7947 113.027 32.7853 112.902 32.78C112.779 32.772 112.651 32.7653 112.518 32.76C112.387 32.7547 112.259 32.744 112.134 32.728C112.024 32.7893 111.935 32.8613 111.866 32.944C111.799 33.0267 111.766 33.1227 111.766 33.232C111.766 33.304 111.783 33.3707 111.818 33.432C111.855 33.496 111.912 33.5507 111.99 33.596C112.07 33.6413 112.172 33.676 112.298 33.7C112.423 33.7267 112.576 33.74 112.758 33.74C112.942 33.74 113.1 33.7253 113.234 33.696C113.367 33.6693 113.476 33.6307 113.562 33.58C113.65 33.532 113.714 33.4733 113.754 33.404C113.794 33.3373 113.814 33.264 113.814 33.184ZM114.798 29.036V29.404C114.798 29.5213 114.727 29.5933 114.586 29.62L114.218 29.688C114.274 29.8293 114.302 29.984 114.302 30.152C114.302 30.3547 114.26 30.5387 114.178 30.704C114.098 30.8667 113.986 31.0053 113.842 31.12C113.698 31.2347 113.527 31.324 113.33 31.388C113.135 31.4493 112.924 31.48 112.698 31.48C112.618 31.48 112.54 31.476 112.466 31.468C112.391 31.46 112.318 31.4493 112.246 31.436C112.118 31.5133 112.054 31.6 112.054 31.696C112.054 31.7787 112.091 31.84 112.166 31.88C112.243 31.9173 112.344 31.944 112.47 31.96C112.595 31.976 112.738 31.9867 112.898 31.992C113.058 31.9947 113.222 32.0027 113.39 32.016C113.558 32.0293 113.722 32.0533 113.882 32.088C114.042 32.12 114.184 32.172 114.31 32.244C114.435 32.316 114.535 32.4147 114.61 32.54C114.687 32.6627 114.726 32.8213 114.726 33.016C114.726 33.1973 114.68 33.3733 114.59 33.544C114.502 33.7147 114.372 33.8667 114.202 34C114.034 34.1333 113.826 34.24 113.578 34.32C113.332 34.4027 113.052 34.444 112.738 34.444C112.428 34.444 112.159 34.4133 111.93 34.352C111.7 34.2933 111.51 34.2133 111.358 34.112C111.206 34.0133 111.092 33.8987 111.018 33.768C110.943 33.6373 110.906 33.5013 110.906 33.36C110.906 33.168 110.963 33.008 111.078 32.88C111.195 32.7493 111.355 32.6453 111.558 32.568C111.448 32.512 111.362 32.4373 111.298 32.344C111.234 32.2507 111.202 32.128 111.202 31.976C111.202 31.9147 111.212 31.852 111.234 31.788C111.258 31.7213 111.291 31.656 111.334 31.592C111.379 31.528 111.435 31.468 111.502 31.412C111.568 31.3533 111.647 31.3013 111.738 31.256C111.53 31.144 111.366 30.9947 111.246 30.808C111.128 30.6213 111.07 30.4027 111.07 30.152C111.07 29.9493 111.11 29.7667 111.19 29.604C111.272 29.4387 111.386 29.2987 111.53 29.184C111.676 29.0667 111.848 28.9773 112.046 28.916C112.246 28.8547 112.463 28.824 112.698 28.824C112.874 28.824 113.039 28.8427 113.194 28.88C113.348 28.9147 113.49 28.9667 113.618 29.036H114.798ZM116.292 29.336C116.452 29.1867 116.628 29.0653 116.82 28.972C117.012 28.8787 117.237 28.832 117.496 28.832C117.72 28.832 117.919 28.8707 118.092 28.948C118.265 29.0227 118.409 29.1293 118.524 29.268C118.641 29.404 118.729 29.568 118.788 29.76C118.849 29.9493 118.88 30.1587 118.88 30.388V33H117.892V30.388C117.892 30.1373 117.835 29.944 117.72 29.808C117.605 29.6693 117.431 29.6 117.196 29.6C117.025 29.6 116.865 29.6387 116.716 29.716C116.567 29.7933 116.425 29.8987 116.292 30.032V33H115.304V27.056H116.292V29.336ZM121.013 33.064C120.656 33.064 120.381 32.964 120.189 32.764C120 32.5613 119.905 32.2827 119.905 31.928V29.636H119.485C119.432 29.636 119.386 29.6187 119.349 29.584C119.312 29.5493 119.293 29.4973 119.293 29.428V29.036L119.953 28.928L120.161 27.808C120.174 27.7547 120.2 27.7133 120.237 27.684C120.274 27.6547 120.322 27.64 120.381 27.64H120.893V28.932H121.989V29.636H120.893V31.86C120.893 31.988 120.924 32.088 120.985 32.16C121.049 32.232 121.136 32.268 121.245 32.268C121.306 32.268 121.357 32.2613 121.397 32.248C121.44 32.232 121.476 32.216 121.505 32.2C121.537 32.184 121.565 32.1693 121.589 32.156C121.613 32.14 121.637 32.132 121.661 32.132C121.69 32.132 121.714 32.14 121.733 32.156C121.752 32.1693 121.772 32.1907 121.793 32.22L122.089 32.7C121.945 32.82 121.78 32.9107 121.593 32.972C121.406 33.0333 121.213 33.064 121.013 33.064Z" fill="#FF9300"/>
</svg>
