<svg width="76" height="39" viewBox="0 0 76 39" fill="none" xmlns="http://www.w3.org/2000/svg">
<rect x="1" y="1" width="24" height="11" fill="#2F1C04"/>
<rect x="1" y="1" width="24" height="11" stroke="#2F1C04"/>
<path d="M14.8197 8.76V9.5H11.6197V8.76H12.7917V5.388C12.7917 5.25467 12.7957 5.11733 12.8037 4.976L11.9717 5.672C11.9237 5.70933 11.8757 5.73333 11.8277 5.744C11.7824 5.752 11.7384 5.752 11.6957 5.744C11.6557 5.736 11.6197 5.72267 11.5877 5.704C11.5557 5.68267 11.5317 5.66 11.5157 5.636L11.2037 5.208L12.9677 3.708H13.7797V8.76H14.8197Z" fill="white"/>
<rect x="26" y="14" width="24" height="11" fill="#2F1C04"/>
<rect x="26" y="14" width="24" height="11" stroke="#2F1C04"/>
<path d="M39.6037 21.58C39.7104 21.58 39.7944 21.6107 39.8557 21.672C39.9197 21.7307 39.9517 21.8093 39.9517 21.908V22.5H35.9837V22.172C35.9837 22.1053 35.997 22.036 36.0237 21.964C36.053 21.8893 36.0984 21.8227 36.1597 21.764L37.9157 20.004C38.0624 19.8547 38.193 19.712 38.3077 19.576C38.425 19.44 38.5224 19.3053 38.5997 19.172C38.677 19.0387 38.7357 18.904 38.7757 18.768C38.8184 18.6293 38.8397 18.484 38.8397 18.332C38.8397 18.1933 38.8197 18.072 38.7797 17.968C38.7397 17.8613 38.6824 17.772 38.6077 17.7C38.5357 17.628 38.4477 17.5747 38.3437 17.54C38.2424 17.5027 38.1277 17.484 37.9997 17.484C37.8824 17.484 37.773 17.5013 37.6717 17.536C37.573 17.568 37.485 17.6147 37.4077 17.676C37.3304 17.7347 37.265 17.804 37.2117 17.884C37.1584 17.964 37.1184 18.052 37.0917 18.148C37.0464 18.2707 36.9877 18.352 36.9157 18.392C36.8437 18.432 36.7397 18.4413 36.6037 18.42L36.0837 18.328C36.1237 18.0507 36.201 17.808 36.3157 17.6C36.4304 17.3893 36.573 17.2147 36.7437 17.076C36.917 16.9347 37.1144 16.8293 37.3357 16.76C37.5597 16.688 37.7997 16.652 38.0557 16.652C38.3224 16.652 38.5664 16.692 38.7877 16.772C39.009 16.8493 39.1984 16.96 39.3557 17.104C39.513 17.248 39.6357 17.4213 39.7237 17.624C39.8117 17.8267 39.8557 18.052 39.8557 18.3C39.8557 18.5133 39.8237 18.7107 39.7597 18.892C39.6984 19.0733 39.6144 19.2467 39.5077 19.412C39.4037 19.5773 39.281 19.7373 39.1397 19.892C38.9984 20.0467 38.8504 20.204 38.6957 20.364L37.3917 21.696C37.517 21.6587 37.641 21.6307 37.7637 21.612C37.889 21.5907 38.0077 21.58 38.1197 21.58H39.6037Z" fill="white"/>
<rect x="51" y="27" width="24" height="11" fill="#2F1C04"/>
<rect x="51" y="27" width="24" height="11" stroke="#2F1C04"/>
<path d="M61.1117 31.328C61.1517 31.0507 61.229 30.808 61.3437 30.6C61.4584 30.3893 61.601 30.2147 61.7717 30.076C61.945 29.9347 62.1424 29.8293 62.3637 29.76C62.5877 29.688 62.8277 29.652 63.0837 29.652C63.3504 29.652 63.5904 29.6907 63.8037 29.768C64.0197 29.8427 64.2037 29.948 64.3557 30.084C64.5077 30.2173 64.6237 30.3747 64.7037 30.556C64.7864 30.7373 64.8277 30.9333 64.8277 31.144C64.8277 31.328 64.8064 31.4907 64.7637 31.632C64.7237 31.7707 64.665 31.892 64.5877 31.996C64.5104 32.1 64.4144 32.188 64.2997 32.26C64.185 32.332 64.0557 32.392 63.9117 32.44C64.2584 32.5493 64.517 32.716 64.6877 32.94C64.8584 33.164 64.9437 33.4453 64.9437 33.784C64.9437 34.072 64.8904 34.3267 64.7837 34.548C64.677 34.7693 64.533 34.956 64.3517 35.108C64.1704 35.2573 63.9597 35.3707 63.7197 35.448C63.4824 35.5253 63.2304 35.564 62.9637 35.564C62.673 35.564 62.4197 35.5307 62.2037 35.464C61.9877 35.3973 61.7997 35.2987 61.6397 35.168C61.4797 35.0373 61.3437 34.8773 61.2317 34.688C61.1197 34.4987 61.0237 34.28 60.9437 34.032L61.3797 33.852C61.4944 33.804 61.601 33.792 61.6997 33.816C61.801 33.8373 61.8744 33.8907 61.9197 33.976C61.9677 34.0693 62.0197 34.1613 62.0757 34.252C62.1344 34.3427 62.2037 34.424 62.2837 34.496C62.3637 34.5653 62.457 34.6227 62.5637 34.668C62.673 34.7107 62.8024 34.732 62.9517 34.732C63.1197 34.732 63.2664 34.7053 63.3917 34.652C63.517 34.596 63.621 34.524 63.7037 34.436C63.789 34.348 63.8517 34.2507 63.8917 34.144C63.9344 34.0347 63.9557 33.9253 63.9557 33.816C63.9557 33.6773 63.941 33.552 63.9117 33.44C63.8824 33.3253 63.821 33.228 63.7277 33.148C63.6344 33.068 63.4997 33.0053 63.3237 32.96C63.1504 32.9147 62.917 32.892 62.6237 32.892V32.188C62.8664 32.1853 63.0677 32.1627 63.2277 32.12C63.3877 32.0773 63.5144 32.0187 63.6077 31.944C63.7037 31.8667 63.7704 31.7747 63.8077 31.668C63.845 31.5613 63.8637 31.444 63.8637 31.316C63.8637 31.044 63.7877 30.8373 63.6357 30.696C63.4837 30.5547 63.281 30.484 63.0277 30.484C62.9104 30.484 62.8024 30.5013 62.7037 30.536C62.605 30.568 62.5157 30.6147 62.4357 30.676C62.3584 30.7347 62.293 30.804 62.2397 30.884C62.1864 30.964 62.1464 31.052 62.1197 31.148C62.0744 31.2707 62.0144 31.352 61.9397 31.392C61.8677 31.432 61.765 31.4413 61.6317 31.42L61.1117 31.328Z" fill="white"/>
</svg>
