<svg width="40" height="168" viewBox="0 0 40 168" fill="none" xmlns="http://www.w3.org/2000/svg">
<path d="M2.5 3.5C2.5 2.94772 2.94772 2.5 3.5 2.5H36.5C37.0523 2.5 37.5 2.94772 37.5 3.5V8.5H2.5V3.5Z" fill="#804900"/>
<path d="M2.5 3.5C2.5 2.94772 2.94772 2.5 3.5 2.5H36.5C37.0523 2.5 37.5 2.94772 37.5 3.5V8.5H2.5V3.5Z" stroke="#804900"/>
<path d="M14.1558 3.8595C14.1278 3.9085 14.0974 3.94467 14.0648 3.968C14.0344 3.989 13.9959 3.9995 13.9493 3.9995C13.9003 3.9995 13.8466 3.982 13.7883 3.947C13.7323 3.90967 13.6646 3.86883 13.5853 3.8245C13.5059 3.78017 13.4126 3.7405 13.3053 3.7055C13.2003 3.66817 13.0754 3.6495 12.9308 3.6495C12.8001 3.6495 12.6858 3.66583 12.5878 3.6985C12.4898 3.72883 12.4069 3.772 12.3393 3.828C12.2739 3.884 12.2249 3.95167 12.1923 4.031C12.1596 4.108 12.1433 4.19317 12.1433 4.2865C12.1433 4.4055 12.1759 4.50467 12.2413 4.584C12.3089 4.66333 12.3976 4.731 12.5073 4.787C12.6169 4.843 12.7418 4.89317 12.8818 4.9375C13.0218 4.98183 13.1653 5.02967 13.3123 5.081C13.4593 5.13 13.6028 5.18833 13.7428 5.256C13.8828 5.32133 14.0076 5.40533 14.1173 5.508C14.2269 5.60833 14.3144 5.732 14.3798 5.879C14.4474 6.026 14.4813 6.2045 14.4813 6.4145C14.4813 6.64317 14.4416 6.85783 14.3623 7.0585C14.2853 7.25683 14.1709 7.43067 14.0193 7.58C13.8699 7.727 13.6868 7.84367 13.4698 7.93C13.2528 8.014 13.0043 8.056 12.7243 8.056C12.5633 8.056 12.4046 8.03967 12.2483 8.007C12.0919 7.97667 11.9414 7.93233 11.7968 7.874C11.6544 7.81567 11.5203 7.74567 11.3943 7.664C11.2683 7.58233 11.1563 7.49133 11.0583 7.391L11.3348 6.9395C11.3581 6.90683 11.3884 6.88 11.4258 6.859C11.4631 6.83567 11.5028 6.824 11.5448 6.824C11.6031 6.824 11.6661 6.8485 11.7338 6.8975C11.8014 6.94417 11.8819 6.99667 11.9753 7.055C12.0686 7.11333 12.1771 7.167 12.3008 7.216C12.4268 7.26267 12.5773 7.286 12.7523 7.286C13.0206 7.286 13.2283 7.223 13.3753 7.097C13.5223 6.96867 13.5958 6.7855 13.5958 6.5475C13.5958 6.4145 13.5619 6.306 13.4943 6.222C13.4289 6.138 13.3414 6.068 13.2318 6.012C13.1221 5.95367 12.9973 5.90467 12.8573 5.865C12.7173 5.82533 12.5749 5.78217 12.4303 5.7355C12.2856 5.68883 12.1433 5.63283 12.0033 5.5675C11.8633 5.50217 11.7384 5.417 11.6288 5.312C11.5191 5.207 11.4304 5.07633 11.3628 4.92C11.2974 4.76133 11.2648 4.5665 11.2648 4.3355C11.2648 4.15117 11.3009 3.9715 11.3733 3.7965C11.4479 3.6215 11.5553 3.46633 11.6953 3.331C11.8353 3.19567 12.0079 3.08717 12.2133 3.0055C12.4186 2.92383 12.6543 2.883 12.9203 2.883C13.2189 2.883 13.4943 2.92967 13.7463 3.023C13.9983 3.11633 14.2129 3.247 14.3903 3.415L14.1558 3.8595ZM15.9434 4.409V8H15.0754V4.409H15.9434ZM16.0624 3.3625C16.0624 3.43717 16.0472 3.50717 16.0169 3.5725C15.9866 3.63783 15.9457 3.695 15.8944 3.744C15.8454 3.793 15.7871 3.83267 15.7194 3.863C15.6517 3.891 15.5794 3.905 15.5024 3.905C15.4277 3.905 15.3566 3.891 15.2889 3.863C15.2236 3.83267 15.1664 3.793 15.1174 3.744C15.0684 3.695 15.0287 3.63783 14.9984 3.5725C14.9704 3.50717 14.9564 3.43717 14.9564 3.3625C14.9564 3.2855 14.9704 3.21317 14.9984 3.1455C15.0287 3.07783 15.0684 3.0195 15.1174 2.9705C15.1664 2.9215 15.2236 2.883 15.2889 2.855C15.3566 2.82467 15.4277 2.8095 15.5024 2.8095C15.5794 2.8095 15.6517 2.82467 15.7194 2.855C15.7871 2.883 15.8454 2.9215 15.8944 2.9705C15.9457 3.0195 15.9866 3.07783 16.0169 3.1455C16.0472 3.21317 16.0624 3.2855 16.0624 3.3625ZM17.5282 4.85C17.6006 4.77767 17.6764 4.71117 17.7557 4.6505C17.8374 4.5875 17.9226 4.535 18.0112 4.493C18.1022 4.44867 18.1991 4.41483 18.3017 4.3915C18.4044 4.36583 18.5164 4.353 18.6377 4.353C18.8337 4.353 19.0076 4.38683 19.1592 4.4545C19.3109 4.51983 19.4369 4.61317 19.5372 4.7345C19.6399 4.8535 19.7169 4.997 19.7682 5.165C19.8219 5.33067 19.8487 5.51383 19.8487 5.7145V8H18.9842V5.7145C18.9842 5.49517 18.9341 5.326 18.8337 5.207C18.7334 5.08567 18.5806 5.025 18.3752 5.025C18.2259 5.025 18.0859 5.05883 17.9552 5.1265C17.8246 5.19417 17.7009 5.28633 17.5842 5.403V8H16.7197V4.409H17.2482C17.3602 4.409 17.4337 4.4615 17.4687 4.5665L17.5282 4.85ZM21.8784 6.117C21.9857 6.117 22.0791 6.103 22.1584 6.075C22.2377 6.04467 22.3031 6.00383 22.3544 5.9525C22.4081 5.90117 22.4477 5.83933 22.4734 5.767C22.5014 5.69467 22.5154 5.61533 22.5154 5.529C22.5154 5.35167 22.4617 5.21167 22.3544 5.109C22.2494 5.004 22.0907 4.9515 21.8784 4.9515C21.6661 4.9515 21.5062 5.004 21.3989 5.109C21.2939 5.21167 21.2414 5.35167 21.2414 5.529C21.2414 5.613 21.2542 5.69117 21.2799 5.7635C21.3079 5.83583 21.3476 5.89883 21.3989 5.9525C21.4526 6.00383 21.5191 6.04467 21.5984 6.075C21.6801 6.103 21.7734 6.117 21.8784 6.117ZM22.8549 8.161C22.8549 8.091 22.8339 8.03383 22.7919 7.9895C22.7499 7.94517 22.6927 7.91133 22.6204 7.888C22.5481 7.86233 22.4629 7.84367 22.3649 7.832C22.2692 7.82033 22.1666 7.81217 22.0569 7.8075C21.9496 7.8005 21.8376 7.79467 21.7209 7.79C21.6066 7.78533 21.4946 7.776 21.3849 7.762C21.2892 7.81567 21.2111 7.87867 21.1504 7.951C21.0921 8.02333 21.0629 8.10733 21.0629 8.203C21.0629 8.266 21.0781 8.32433 21.1084 8.378C21.1411 8.434 21.1912 8.48183 21.2589 8.5215C21.3289 8.56117 21.4187 8.5915 21.5284 8.6125C21.6381 8.63583 21.7722 8.6475 21.9309 8.6475C22.0919 8.6475 22.2307 8.63467 22.3474 8.609C22.4641 8.58567 22.5597 8.55183 22.6344 8.5075C22.7114 8.4655 22.7674 8.41417 22.8024 8.3535C22.8374 8.29517 22.8549 8.231 22.8549 8.161ZM23.7159 4.5315V4.8535C23.7159 4.95617 23.6541 5.01917 23.5304 5.0425L23.2084 5.102C23.2574 5.22567 23.2819 5.361 23.2819 5.508C23.2819 5.68533 23.2457 5.84633 23.1734 5.991C23.1034 6.13333 23.0054 6.25467 22.8794 6.355C22.7534 6.45533 22.6041 6.5335 22.4314 6.5895C22.2611 6.64317 22.0767 6.67 21.8784 6.67C21.8084 6.67 21.7407 6.6665 21.6754 6.6595C21.6101 6.6525 21.5459 6.64317 21.4829 6.6315C21.3709 6.69917 21.3149 6.775 21.3149 6.859C21.3149 6.93133 21.3476 6.985 21.4129 7.02C21.4806 7.05267 21.5692 7.076 21.6789 7.09C21.7886 7.104 21.9134 7.11333 22.0534 7.118C22.1934 7.12033 22.3369 7.12733 22.4839 7.139C22.6309 7.15067 22.7744 7.17167 22.9144 7.202C23.0544 7.23 23.1792 7.2755 23.2889 7.3385C23.3986 7.4015 23.4861 7.48783 23.5514 7.5975C23.6191 7.70483 23.6529 7.84367 23.6529 8.014C23.6529 8.17267 23.6132 8.32667 23.5339 8.476C23.4569 8.62533 23.3437 8.75833 23.1944 8.875C23.0474 8.99167 22.8654 9.085 22.6484 9.155C22.4337 9.22733 22.1887 9.2635 21.9134 9.2635C21.6427 9.2635 21.4071 9.23667 21.2064 9.183C21.0057 9.13167 20.8389 9.06167 20.7059 8.973C20.5729 8.88667 20.4737 8.78633 20.4084 8.672C20.3431 8.55767 20.3104 8.43867 20.3104 8.315C20.3104 8.147 20.3606 8.007 20.4609 7.895C20.5636 7.78067 20.7036 7.68967 20.8809 7.622C20.7852 7.573 20.7094 7.50767 20.6534 7.426C20.5974 7.34433 20.5694 7.237 20.5694 7.104C20.5694 7.05033 20.5787 6.9955 20.5974 6.9395C20.6184 6.88117 20.6476 6.824 20.6849 6.768C20.7246 6.712 20.7736 6.6595 20.8319 6.6105C20.8902 6.55917 20.9591 6.51367 21.0384 6.474C20.8564 6.376 20.7129 6.24533 20.6079 6.082C20.5052 5.91867 20.4539 5.72733 20.4539 5.508C20.4539 5.33067 20.4889 5.17083 20.5589 5.0285C20.6312 4.88383 20.7304 4.76133 20.8564 4.661C20.9847 4.55833 21.1352 4.48017 21.3079 4.4265C21.4829 4.37283 21.6731 4.346 21.8784 4.346C22.0324 4.346 22.1771 4.36233 22.3124 4.395C22.4477 4.42533 22.5714 4.47083 22.6834 4.5315H23.7159ZM25.0341 2.799V8H24.1696V2.799H25.0341ZM28.104 5.7915C28.104 5.6795 28.0876 5.5745 28.055 5.4765C28.0246 5.37617 27.978 5.28867 27.915 5.214C27.852 5.13933 27.7715 5.081 27.6735 5.039C27.5778 4.99467 27.4658 4.9725 27.3375 4.9725C27.0878 4.9725 26.8906 5.04367 26.746 5.186C26.6036 5.32833 26.5126 5.53017 26.473 5.7915H28.104ZM26.4555 6.313C26.4695 6.49733 26.5021 6.65717 26.5535 6.7925C26.6048 6.9255 26.6725 7.03633 26.7565 7.125C26.8405 7.21133 26.9396 7.27667 27.054 7.321C27.1706 7.363 27.299 7.384 27.439 7.384C27.579 7.384 27.6991 7.36767 27.7995 7.335C27.9021 7.30233 27.9908 7.26617 28.0655 7.2265C28.1425 7.18683 28.209 7.15067 28.265 7.118C28.3233 7.08533 28.3793 7.069 28.433 7.069C28.5053 7.069 28.559 7.09583 28.594 7.1495L28.8425 7.4645C28.7468 7.5765 28.6395 7.671 28.5205 7.748C28.4015 7.82267 28.2766 7.88333 28.146 7.93C28.0176 7.97433 27.8858 8.00583 27.7505 8.0245C27.6175 8.04317 27.488 8.0525 27.362 8.0525C27.1123 8.0525 26.8801 8.01167 26.6655 7.93C26.4508 7.846 26.2641 7.7235 26.1055 7.5625C25.9468 7.39917 25.822 7.1985 25.731 6.9605C25.64 6.72017 25.5945 6.4425 25.5945 6.1275C25.5945 5.8825 25.6341 5.65267 25.7135 5.438C25.7928 5.221 25.906 5.03317 26.053 4.8745C26.2023 4.7135 26.3831 4.58633 26.5955 4.493C26.8101 4.39967 27.0516 4.353 27.32 4.353C27.5463 4.353 27.7551 4.38917 27.9465 4.4615C28.1378 4.53383 28.3023 4.64 28.44 4.78C28.5776 4.91767 28.685 5.088 28.762 5.291C28.8413 5.49167 28.881 5.7215 28.881 5.9805C28.881 6.11117 28.867 6.19983 28.839 6.2465C28.811 6.29083 28.7573 6.313 28.678 6.313H26.4555Z" fill="#FF9300"/>
<rect x="2.5" y="54.75" width="35" height="6" fill="#804900"/>
<rect x="2.5" y="54.75" width="35" height="6" stroke="#804900"/>
<path d="M8.29414 57.31H8.51464C8.60331 57.31 8.67681 57.2983 8.73514 57.275C8.79347 57.2493 8.84364 57.2097 8.88564 57.156L10.2821 55.3885C10.3405 55.3138 10.4011 55.2625 10.4641 55.2345C10.5295 55.2042 10.6111 55.189 10.7091 55.189H11.5211L9.81664 57.2925C9.71631 57.4208 9.61247 57.5118 9.50514 57.5655C9.58214 57.5935 9.65097 57.6332 9.71164 57.6845C9.77464 57.7335 9.83414 57.7988 9.89014 57.8805L11.6471 60.25H10.8176C10.7056 60.25 10.6216 60.2348 10.5656 60.2045C10.512 60.1718 10.4665 60.1252 10.4291 60.0645L8.99764 58.1955C8.95331 58.1325 8.90197 58.0882 8.84364 58.0625C8.78531 58.0368 8.70131 58.024 8.59164 58.024H8.29414V60.25H7.35264V55.189H8.29414V57.31ZM13.9637 58.0415C13.9637 57.9295 13.9474 57.8245 13.9147 57.7265C13.8844 57.6262 13.8377 57.5387 13.7747 57.464C13.7117 57.3893 13.6312 57.331 13.5332 57.289C13.4375 57.2447 13.3255 57.2225 13.1972 57.2225C12.9475 57.2225 12.7504 57.2937 12.6057 57.436C12.4634 57.5783 12.3724 57.7802 12.3327 58.0415H13.9637ZM12.3152 58.563C12.3292 58.7473 12.3619 58.9072 12.4132 59.0425C12.4645 59.1755 12.5322 59.2863 12.6162 59.375C12.7002 59.4613 12.7994 59.5267 12.9137 59.571C13.0304 59.613 13.1587 59.634 13.2987 59.634C13.4387 59.634 13.5589 59.6177 13.6592 59.585C13.7619 59.5523 13.8505 59.5162 13.9252 59.4765C14.0022 59.4368 14.0687 59.4007 14.1247 59.368C14.183 59.3353 14.239 59.319 14.2927 59.319C14.365 59.319 14.4187 59.3458 14.4537 59.3995L14.7022 59.7145C14.6065 59.8265 14.4992 59.921 14.3802 59.998C14.2612 60.0727 14.1364 60.1333 14.0057 60.18C13.8774 60.2243 13.7455 60.2558 13.6102 60.2745C13.4772 60.2932 13.3477 60.3025 13.2217 60.3025C12.972 60.3025 12.7399 60.2617 12.5252 60.18C12.3105 60.096 12.1239 59.9735 11.9652 59.8125C11.8065 59.6492 11.6817 59.4485 11.5907 59.2105C11.4997 58.9702 11.4542 58.6925 11.4542 58.3775C11.4542 58.1325 11.4939 57.9027 11.5732 57.688C11.6525 57.471 11.7657 57.2832 11.9127 57.1245C12.062 56.9635 12.2429 56.8363 12.4552 56.743C12.6699 56.6497 12.9114 56.603 13.1797 56.603C13.406 56.603 13.6149 56.6392 13.8062 56.7115C13.9975 56.7838 14.162 56.89 14.2997 57.03C14.4374 57.1677 14.5447 57.338 14.6217 57.541C14.701 57.7417 14.7407 57.9715 14.7407 58.2305C14.7407 58.3612 14.7267 58.4498 14.6987 58.4965C14.6707 58.5408 14.617 58.563 14.5377 58.563H12.3152ZM18.4439 56.659L16.4874 61.237C16.4618 61.2977 16.4279 61.3432 16.3859 61.3735C16.3463 61.4062 16.2844 61.4225 16.2004 61.4225H15.5564L16.2284 59.9805L14.7759 56.659H15.5354C15.6031 56.659 15.6556 56.6753 15.6929 56.708C15.7326 56.7407 15.7618 56.778 15.7804 56.82L16.5434 58.682C16.5691 58.745 16.5901 58.808 16.6064 58.871C16.6251 58.934 16.6426 58.9982 16.6589 59.0635C16.6799 58.9982 16.7009 58.934 16.7219 58.871C16.7429 58.8057 16.7663 58.7415 16.7919 58.6785L17.5129 56.82C17.5316 56.7733 17.5619 56.7348 17.6039 56.7045C17.6483 56.6742 17.6973 56.659 17.7509 56.659H18.4439ZM23.0192 56.1095C22.9912 56.1585 22.9609 56.1947 22.9282 56.218C22.8979 56.239 22.8594 56.2495 22.8127 56.2495C22.7637 56.2495 22.7101 56.232 22.6517 56.197C22.5957 56.1597 22.5281 56.1188 22.4487 56.0745C22.3694 56.0302 22.2761 55.9905 22.1687 55.9555C22.0637 55.9182 21.9389 55.8995 21.7942 55.8995C21.6636 55.8995 21.5492 55.9158 21.4512 55.9485C21.3532 55.9788 21.2704 56.022 21.2027 56.078C21.1374 56.134 21.0884 56.2017 21.0557 56.281C21.0231 56.358 21.0067 56.4432 21.0067 56.5365C21.0067 56.6555 21.0394 56.7547 21.1047 56.834C21.1724 56.9133 21.2611 56.981 21.3707 57.037C21.4804 57.093 21.6052 57.1432 21.7452 57.1875C21.8852 57.2318 22.0287 57.2797 22.1757 57.331C22.3227 57.38 22.4662 57.4383 22.6062 57.506C22.7462 57.5713 22.8711 57.6553 22.9807 57.758C23.0904 57.8583 23.1779 57.982 23.2432 58.129C23.3109 58.276 23.3447 58.4545 23.3447 58.6645C23.3447 58.8932 23.3051 59.1078 23.2257 59.3085C23.1487 59.5068 23.0344 59.6807 22.8827 59.83C22.7334 59.977 22.5502 60.0937 22.3332 60.18C22.1162 60.264 21.8677 60.306 21.5877 60.306C21.4267 60.306 21.2681 60.2897 21.1117 60.257C20.9554 60.2267 20.8049 60.1823 20.6602 60.124C20.5179 60.0657 20.3837 59.9957 20.2577 59.914C20.1317 59.8323 20.0197 59.7413 19.9217 59.641L20.1982 59.1895C20.2216 59.1568 20.2519 59.13 20.2892 59.109C20.3266 59.0857 20.3662 59.074 20.4082 59.074C20.4666 59.074 20.5296 59.0985 20.5972 59.1475C20.6649 59.1942 20.7454 59.2467 20.8387 59.305C20.9321 59.3633 21.0406 59.417 21.1642 59.466C21.2902 59.5127 21.4407 59.536 21.6157 59.536C21.8841 59.536 22.0917 59.473 22.2387 59.347C22.3857 59.2187 22.4592 59.0355 22.4592 58.7975C22.4592 58.6645 22.4254 58.556 22.3577 58.472C22.2924 58.388 22.2049 58.318 22.0952 58.262C21.9856 58.2037 21.8607 58.1547 21.7207 58.115C21.5807 58.0753 21.4384 58.0322 21.2937 57.9855C21.1491 57.9388 21.0067 57.8828 20.8667 57.8175C20.7267 57.7522 20.6019 57.667 20.4922 57.562C20.3826 57.457 20.2939 57.3263 20.2262 57.17C20.1609 57.0113 20.1282 56.8165 20.1282 56.5855C20.1282 56.4012 20.1644 56.2215 20.2367 56.0465C20.3114 55.8715 20.4187 55.7163 20.5587 55.581C20.6987 55.4457 20.8714 55.3372 21.0767 55.2555C21.2821 55.1738 21.5177 55.133 21.7837 55.133C22.0824 55.133 22.3577 55.1797 22.6097 55.273C22.8617 55.3663 23.0764 55.497 23.2537 55.665L23.0192 56.1095ZM24.7207 59.319C24.8187 59.438 24.9248 59.522 25.0392 59.571C25.1558 59.62 25.2818 59.6445 25.4172 59.6445C25.5478 59.6445 25.6657 59.62 25.7707 59.571C25.8757 59.522 25.9643 59.4473 26.0367 59.347C26.1113 59.2467 26.1685 59.1207 26.2082 58.969C26.2478 58.815 26.2677 58.6342 26.2677 58.4265C26.2677 58.2165 26.2502 58.0392 26.2152 57.8945C26.1825 57.7475 26.1347 57.6285 26.0717 57.5375C26.0087 57.4465 25.9317 57.38 25.8407 57.338C25.752 57.296 25.6505 57.275 25.5362 57.275C25.3565 57.275 25.2037 57.3135 25.0777 57.3905C24.9517 57.4652 24.8327 57.5713 24.7207 57.709V59.319ZM24.6752 57.149C24.8222 56.9833 24.989 56.8492 25.1757 56.7465C25.3623 56.6438 25.5817 56.5925 25.8337 56.5925C26.0297 56.5925 26.2082 56.6333 26.3692 56.715C26.5325 56.7967 26.6725 56.9157 26.7892 57.072C26.9082 57.226 26.9992 57.4173 27.0622 57.646C27.1275 57.8723 27.1602 58.1325 27.1602 58.4265C27.1602 58.6948 27.124 58.9433 27.0517 59.172C26.9793 59.4007 26.8755 59.599 26.7402 59.767C26.6072 59.935 26.445 60.0668 26.2537 60.1625C26.0647 60.2558 25.8523 60.3025 25.6167 60.3025C25.416 60.3025 25.2445 60.2722 25.1022 60.2115C24.9598 60.1485 24.8327 60.0622 24.7207 59.9525V61.4225H23.8562V56.659H24.3847C24.4967 56.659 24.5702 56.7115 24.6052 56.8165L24.6752 57.149ZM28.6047 55.049V60.25H27.7402V55.049H28.6047ZM30.257 56.659V60.25H29.389V56.659H30.257ZM30.376 55.6125C30.376 55.6872 30.3609 55.7572 30.3305 55.8225C30.3002 55.8878 30.2594 55.945 30.208 55.994C30.159 56.043 30.1007 56.0827 30.033 56.113C29.9654 56.141 29.893 56.155 29.816 56.155C29.7414 56.155 29.6702 56.141 29.6025 56.113C29.5372 56.0827 29.48 56.043 29.431 55.994C29.382 55.945 29.3424 55.8878 29.312 55.8225C29.284 55.7572 29.27 55.6872 29.27 55.6125C29.27 55.5355 29.284 55.4632 29.312 55.3955C29.3424 55.3278 29.382 55.2695 29.431 55.2205C29.48 55.1715 29.5372 55.133 29.6025 55.105C29.6702 55.0747 29.7414 55.0595 29.816 55.0595C29.893 55.0595 29.9654 55.0747 30.033 55.105C30.1007 55.133 30.159 55.1715 30.208 55.2205C30.2594 55.2695 30.3002 55.3278 30.3305 55.3955C30.3609 55.4632 30.376 55.5355 30.376 55.6125ZM32.2304 60.306C31.9177 60.306 31.6774 60.2185 31.5094 60.0435C31.3437 59.8662 31.2609 59.6223 31.2609 59.312V57.3065H30.8934C30.8467 57.3065 30.807 57.2913 30.7744 57.261C30.7417 57.2307 30.7254 57.1852 30.7254 57.1245V56.7815L31.3029 56.687L31.4849 55.707C31.4965 55.6603 31.5187 55.6242 31.5514 55.5985C31.584 55.5728 31.626 55.56 31.6774 55.56H32.1254V56.6905H33.0844V57.3065H32.1254V59.2525C32.1254 59.3645 32.1522 59.452 32.2059 59.515C32.2619 59.578 32.3377 59.6095 32.4334 59.6095C32.487 59.6095 32.5314 59.6037 32.5664 59.592C32.6037 59.578 32.6352 59.564 32.6609 59.55C32.6889 59.536 32.7134 59.5232 32.7344 59.5115C32.7554 59.4975 32.7764 59.4905 32.7974 59.4905C32.823 59.4905 32.844 59.4975 32.8604 59.5115C32.8767 59.5232 32.8942 59.5418 32.9129 59.5675L33.1719 59.9875C33.0459 60.0925 32.9012 60.1718 32.7379 60.2255C32.5745 60.2792 32.4054 60.306 32.2304 60.306Z" fill="#FF9300"/>
<rect x="2.5" y="107" width="35" height="6" fill="#804900"/>
<rect x="2.5" y="107" width="35" height="6" stroke="#804900"/>
<path d="M8.68289 111.306C8.73422 111.306 8.77972 111.326 8.81939 111.366L9.19039 111.768C8.98505 112.023 8.73189 112.218 8.43089 112.353C8.13222 112.488 7.77289 112.556 7.35289 112.556C6.97722 112.556 6.63889 112.492 6.33789 112.363C6.03922 112.235 5.78372 112.057 5.57139 111.828C5.35905 111.599 5.19572 111.326 5.08139 111.009C4.96939 110.692 4.91339 110.345 4.91339 109.969C4.91339 109.589 4.97405 109.241 5.09539 108.926C5.21672 108.609 5.38705 108.336 5.60639 108.107C5.82805 107.879 6.09172 107.701 6.39739 107.575C6.70305 107.447 7.04139 107.383 7.41239 107.383C7.78105 107.383 8.10772 107.444 8.39239 107.565C8.67939 107.686 8.92322 107.845 9.12389 108.041L8.80889 108.478C8.79022 108.506 8.76572 108.531 8.73539 108.552C8.70739 108.573 8.66772 108.583 8.61639 108.583C8.58139 108.583 8.54522 108.574 8.50789 108.555C8.47055 108.534 8.42972 108.51 8.38539 108.482C8.34105 108.452 8.28972 108.419 8.23139 108.384C8.17305 108.349 8.10539 108.317 8.02839 108.289C7.95139 108.259 7.86155 108.235 7.75889 108.216C7.65855 108.195 7.54189 108.184 7.40889 108.184C7.18255 108.184 6.97489 108.225 6.78589 108.307C6.59922 108.386 6.43822 108.503 6.30289 108.657C6.16755 108.809 6.06255 108.995 5.98789 109.217C5.91322 109.436 5.87589 109.687 5.87589 109.969C5.87589 110.254 5.91555 110.507 5.99489 110.729C6.07655 110.951 6.18622 111.137 6.32389 111.289C6.46155 111.441 6.62372 111.557 6.81039 111.639C6.99705 111.718 7.19772 111.758 7.41239 111.758C7.54072 111.758 7.65622 111.751 7.75889 111.737C7.86389 111.723 7.95955 111.701 8.04589 111.67C8.13455 111.64 8.21739 111.602 8.29439 111.555C8.37372 111.506 8.45189 111.446 8.52889 111.376C8.55222 111.355 8.57672 111.339 8.60239 111.327C8.62805 111.313 8.65489 111.306 8.68289 111.306ZM10.4583 109.294C10.5983 109.163 10.7523 109.057 10.9203 108.975C11.0883 108.894 11.2855 108.853 11.5118 108.853C11.7078 108.853 11.8816 108.887 12.0333 108.954C12.185 109.02 12.311 109.113 12.4113 109.234C12.514 109.353 12.591 109.497 12.6423 109.665C12.696 109.831 12.7228 110.014 12.7228 110.214V112.5H11.8583V110.214C11.8583 109.995 11.8081 109.826 11.7078 109.707C11.6075 109.586 11.4546 109.525 11.2493 109.525C11.1 109.525 10.96 109.559 10.8293 109.626C10.6986 109.694 10.575 109.786 10.4583 109.903V112.5H9.59382V107.299H10.4583V109.294ZM15.337 110.967C15.0873 110.979 14.8773 111.001 14.707 111.033C14.5367 111.064 14.4002 111.103 14.2975 111.152C14.1948 111.201 14.1213 111.259 14.077 111.324C14.0327 111.389 14.0105 111.46 14.0105 111.537C14.0105 111.689 14.0548 111.798 14.1435 111.863C14.2345 111.928 14.3523 111.961 14.497 111.961C14.6743 111.961 14.8272 111.929 14.9555 111.866C15.0862 111.801 15.2133 111.703 15.337 111.572V110.967ZM13.356 109.409C13.769 109.031 14.266 108.842 14.847 108.842C15.057 108.842 15.2448 108.877 15.4105 108.947C15.5762 109.015 15.7162 109.111 15.8305 109.234C15.9448 109.356 16.0312 109.502 16.0895 109.672C16.1502 109.842 16.1805 110.029 16.1805 110.232V112.5H15.7885C15.7068 112.5 15.6438 112.488 15.5995 112.465C15.5552 112.439 15.5202 112.389 15.4945 112.314L15.4175 112.055C15.3265 112.137 15.2378 112.209 15.1515 112.272C15.0652 112.333 14.9753 112.384 14.882 112.426C14.7887 112.468 14.6883 112.5 14.581 112.521C14.476 112.544 14.3593 112.556 14.231 112.556C14.0793 112.556 13.9393 112.536 13.811 112.496C13.6827 112.454 13.5718 112.393 13.4785 112.311C13.3852 112.229 13.3128 112.128 13.2615 112.006C13.2102 111.885 13.1845 111.744 13.1845 111.583C13.1845 111.492 13.1997 111.402 13.23 111.313C13.2603 111.222 13.3093 111.136 13.377 111.054C13.447 110.973 13.5368 110.896 13.6465 110.823C13.7562 110.751 13.8903 110.688 14.049 110.634C14.21 110.581 14.3967 110.538 14.609 110.505C14.8213 110.47 15.064 110.449 15.337 110.442V110.232C15.337 109.992 15.2857 109.814 15.183 109.7C15.0803 109.583 14.9322 109.525 14.7385 109.525C14.5985 109.525 14.4818 109.541 14.3885 109.574C14.2975 109.607 14.217 109.644 14.147 109.686C14.077 109.726 14.0128 109.762 13.9545 109.794C13.8985 109.827 13.8355 109.843 13.7655 109.843C13.7048 109.843 13.6535 109.828 13.6115 109.798C13.5695 109.765 13.5357 109.728 13.51 109.686L13.356 109.409ZM17.6982 109.35C17.7705 109.278 17.8463 109.211 17.9257 109.15C18.0073 109.087 18.0925 109.035 18.1812 108.993C18.2722 108.949 18.369 108.915 18.4717 108.891C18.5743 108.866 18.6863 108.853 18.8077 108.853C19.0037 108.853 19.1775 108.887 19.3292 108.954C19.4808 109.02 19.6068 109.113 19.7072 109.234C19.8098 109.353 19.8868 109.497 19.9382 109.665C19.9918 109.831 20.0187 110.014 20.0187 110.214V112.5H19.1542V110.214C19.1542 109.995 19.104 109.826 19.0037 109.707C18.9033 109.586 18.7505 109.525 18.5452 109.525C18.3958 109.525 18.2558 109.559 18.1252 109.626C17.9945 109.694 17.8708 109.786 17.7542 109.903V112.5H16.8897V108.909H17.4182C17.5302 108.909 17.6037 108.961 17.6387 109.066L17.6982 109.35ZM25.1645 108.359C25.1365 108.408 25.1062 108.445 25.0735 108.468C25.0432 108.489 25.0047 108.499 24.958 108.499C24.909 108.499 24.8553 108.482 24.797 108.447C24.741 108.41 24.6733 108.369 24.594 108.324C24.5147 108.28 24.4213 108.24 24.314 108.205C24.209 108.168 24.0842 108.149 23.9395 108.149C23.8088 108.149 23.6945 108.166 23.5965 108.198C23.4985 108.229 23.4157 108.272 23.348 108.328C23.2827 108.384 23.2337 108.452 23.201 108.531C23.1683 108.608 23.152 108.693 23.152 108.786C23.152 108.905 23.1847 109.005 23.25 109.084C23.3177 109.163 23.4063 109.231 23.516 109.287C23.6257 109.343 23.7505 109.393 23.8905 109.437C24.0305 109.482 24.174 109.53 24.321 109.581C24.468 109.63 24.6115 109.688 24.7515 109.756C24.8915 109.821 25.0163 109.905 25.126 110.008C25.2357 110.108 25.3232 110.232 25.3885 110.379C25.4562 110.526 25.49 110.704 25.49 110.914C25.49 111.143 25.4503 111.358 25.371 111.558C25.294 111.757 25.1797 111.931 25.028 112.08C24.8787 112.227 24.6955 112.344 24.4785 112.43C24.2615 112.514 24.013 112.556 23.733 112.556C23.572 112.556 23.4133 112.54 23.257 112.507C23.1007 112.477 22.9502 112.432 22.8055 112.374C22.6632 112.316 22.529 112.246 22.403 112.164C22.277 112.082 22.165 111.991 22.067 111.891L22.3435 111.439C22.3668 111.407 22.3972 111.38 22.4345 111.359C22.4718 111.336 22.5115 111.324 22.5535 111.324C22.6118 111.324 22.6748 111.348 22.7425 111.397C22.8102 111.444 22.8907 111.497 22.984 111.555C23.0773 111.613 23.1858 111.667 23.3095 111.716C23.4355 111.763 23.586 111.786 23.761 111.786C24.0293 111.786 24.237 111.723 24.384 111.597C24.531 111.469 24.6045 111.285 24.6045 111.047C24.6045 110.914 24.5707 110.806 24.503 110.722C24.4377 110.638 24.3502 110.568 24.2405 110.512C24.1308 110.454 24.006 110.405 23.866 110.365C23.726 110.325 23.5837 110.282 23.439 110.235C23.2943 110.189 23.152 110.133 23.012 110.067C22.872 110.002 22.7472 109.917 22.6375 109.812C22.5278 109.707 22.4392 109.576 22.3715 109.42C22.3062 109.261 22.2735 109.066 22.2735 108.835C22.2735 108.651 22.3097 108.471 22.382 108.296C22.4567 108.121 22.564 107.966 22.704 107.831C22.844 107.696 23.0167 107.587 23.222 107.505C23.4273 107.424 23.663 107.383 23.929 107.383C24.2277 107.383 24.503 107.43 24.755 107.523C25.007 107.616 25.2217 107.747 25.399 107.915L25.1645 108.359ZM26.8659 111.569C26.9639 111.688 27.0701 111.772 27.1844 111.821C27.3011 111.87 27.4271 111.894 27.5624 111.894C27.6931 111.894 27.8109 111.87 27.9159 111.821C28.0209 111.772 28.1096 111.697 28.1819 111.597C28.2566 111.497 28.3138 111.371 28.3534 111.219C28.3931 111.065 28.4129 110.884 28.4129 110.676C28.4129 110.466 28.3954 110.289 28.3604 110.144C28.3278 109.997 28.2799 109.878 28.2169 109.787C28.1539 109.696 28.0769 109.63 27.9859 109.588C27.8973 109.546 27.7958 109.525 27.6814 109.525C27.5018 109.525 27.3489 109.563 27.2229 109.64C27.0969 109.715 26.9779 109.821 26.8659 109.959V111.569ZM26.8204 109.399C26.9674 109.233 27.1343 109.099 27.3209 108.996C27.5076 108.894 27.7269 108.842 27.9789 108.842C28.1749 108.842 28.3534 108.883 28.5144 108.965C28.6778 109.047 28.8178 109.166 28.9344 109.322C29.0534 109.476 29.1444 109.667 29.2074 109.896C29.2728 110.122 29.3054 110.382 29.3054 110.676C29.3054 110.945 29.2693 111.193 29.1969 111.422C29.1246 111.651 29.0208 111.849 28.8854 112.017C28.7524 112.185 28.5903 112.317 28.3989 112.412C28.2099 112.506 27.9976 112.553 27.7619 112.553C27.5613 112.553 27.3898 112.522 27.2474 112.461C27.1051 112.398 26.9779 112.312 26.8659 112.202V113.673H26.0014V108.909H26.5299C26.6419 108.909 26.7154 108.961 26.7504 109.066L26.8204 109.399ZM30.7499 107.299V112.5H29.8854V107.299H30.7499ZM32.4023 108.909V112.5H31.5343V108.909H32.4023ZM32.5213 107.862C32.5213 107.937 32.5061 108.007 32.4758 108.072C32.4454 108.138 32.4046 108.195 32.3533 108.244C32.3043 108.293 32.2459 108.333 32.1783 108.363C32.1106 108.391 32.0383 108.405 31.9613 108.405C31.8866 108.405 31.8154 108.391 31.7478 108.363C31.6824 108.333 31.6253 108.293 31.5763 108.244C31.5273 108.195 31.4876 108.138 31.4573 108.072C31.4293 108.007 31.4153 107.937 31.4153 107.862C31.4153 107.785 31.4293 107.713 31.4573 107.645C31.4876 107.578 31.5273 107.519 31.5763 107.47C31.6253 107.421 31.6824 107.383 31.7478 107.355C31.8154 107.325 31.8866 107.309 31.9613 107.309C32.0383 107.309 32.1106 107.325 32.1783 107.355C32.2459 107.383 32.3043 107.421 32.3533 107.47C32.4046 107.519 32.4454 107.578 32.4758 107.645C32.5061 107.713 32.5213 107.785 32.5213 107.862ZM34.3756 112.556C34.063 112.556 33.8226 112.468 33.6546 112.293C33.489 112.116 33.4061 111.872 33.4061 111.562V109.556H33.0386C32.992 109.556 32.9523 109.541 32.9196 109.511C32.887 109.481 32.8706 109.435 32.8706 109.374V109.031L33.4481 108.937L33.6301 107.957C33.6418 107.91 33.664 107.874 33.6966 107.848C33.7293 107.823 33.7713 107.81 33.8226 107.81H34.2706V108.94H35.2296V109.556H34.2706V111.502C34.2706 111.614 34.2975 111.702 34.3511 111.765C34.4071 111.828 34.483 111.859 34.5786 111.859C34.6323 111.859 34.6766 111.854 34.7116 111.842C34.749 111.828 34.7805 111.814 34.8061 111.8C34.8341 111.786 34.8586 111.773 34.8796 111.761C34.9006 111.747 34.9216 111.74 34.9426 111.74C34.9683 111.74 34.9893 111.747 35.0056 111.761C35.022 111.773 35.0395 111.792 35.0581 111.817L35.3171 112.237C35.1911 112.342 35.0465 112.422 34.8831 112.475C34.7198 112.529 34.5506 112.556 34.3756 112.556Z" fill="#FF9300"/>
<path d="M2.5 159.25H37.5V164.25C37.5 164.802 37.0523 165.25 36.5 165.25H3.5C2.94772 165.25 2.5 164.802 2.5 164.25V159.25Z" fill="#804900"/>
<path d="M2.5 159.25H37.5V164.25C37.5 164.802 37.0523 165.25 36.5 165.25H3.5C2.94772 165.25 2.5 164.802 2.5 164.25V159.25Z" stroke="#804900"/>
<path d="M17.9552 162.219C17.9552 162.59 17.8934 162.931 17.7697 163.241C17.6461 163.552 17.4722 163.819 17.2482 164.043C17.0242 164.267 16.7547 164.441 16.4397 164.564C16.1247 164.688 15.7747 164.75 15.3897 164.75H13.4612V159.689H15.3897C15.7747 159.689 16.1247 159.752 16.4397 159.878C16.7547 160.002 17.0242 160.175 17.2482 160.399C17.4722 160.621 17.6461 160.887 17.7697 161.197C17.8934 161.508 17.9552 161.848 17.9552 162.219ZM16.9892 162.219C16.9892 161.942 16.9519 161.693 16.8772 161.474C16.8049 161.252 16.6987 161.066 16.5587 160.914C16.4211 160.76 16.2531 160.642 16.0547 160.56C15.8587 160.479 15.6371 160.438 15.3897 160.438H14.4062V164.001H15.3897C15.6371 164.001 15.8587 163.96 16.0547 163.878C16.2531 163.797 16.4211 163.68 16.5587 163.528C16.6987 163.374 16.8049 163.188 16.8772 162.968C16.9519 162.747 16.9892 162.497 16.9892 162.219ZM21.5911 161.159V164.75H21.0626C20.9482 164.75 20.8759 164.697 20.8456 164.592L20.7861 164.305C20.6391 164.455 20.4769 164.576 20.2996 164.669C20.1222 164.76 19.9134 164.806 19.6731 164.806C19.4771 164.806 19.3032 164.773 19.1516 164.708C19.0022 164.64 18.8762 164.546 18.7736 164.424C18.6709 164.303 18.5927 164.16 18.5391 163.994C18.4877 163.826 18.4621 163.642 18.4621 163.441V161.159H19.3266V163.441C19.3266 163.66 19.3767 163.831 19.4771 163.952C19.5797 164.071 19.7326 164.13 19.9356 164.13C20.0849 164.13 20.2249 164.098 20.3556 164.032C20.4862 163.965 20.6099 163.873 20.7266 163.756V161.159H21.5911ZM24.2402 163.217C23.9906 163.229 23.7806 163.251 23.6102 163.283C23.4399 163.314 23.3034 163.353 23.2007 163.402C23.0981 163.451 23.0246 163.509 22.9802 163.574C22.9359 163.639 22.9137 163.71 22.9137 163.787C22.9137 163.939 22.9581 164.048 23.0467 164.113C23.1377 164.178 23.2556 164.211 23.4002 164.211C23.5776 164.211 23.7304 164.179 23.8587 164.116C23.9894 164.051 24.1166 163.953 24.2402 163.822V163.217ZM22.2592 161.659C22.6722 161.281 23.1692 161.092 23.7502 161.092C23.9602 161.092 24.1481 161.127 24.3137 161.197C24.4794 161.265 24.6194 161.361 24.7337 161.484C24.8481 161.606 24.9344 161.752 24.9927 161.922C25.0534 162.092 25.0837 162.279 25.0837 162.482V164.75H24.6917C24.6101 164.75 24.5471 164.738 24.5027 164.715C24.4584 164.689 24.4234 164.639 24.3977 164.564L24.3207 164.305C24.2297 164.387 24.1411 164.459 24.0547 164.522C23.9684 164.583 23.8786 164.634 23.7852 164.676C23.6919 164.718 23.5916 164.75 23.4842 164.771C23.3792 164.794 23.2626 164.806 23.1342 164.806C22.9826 164.806 22.8426 164.786 22.7142 164.746C22.5859 164.704 22.4751 164.643 22.3817 164.561C22.2884 164.479 22.2161 164.378 22.1647 164.256C22.1134 164.135 22.0877 163.994 22.0877 163.833C22.0877 163.742 22.1029 163.652 22.1332 163.563C22.1636 163.472 22.2126 163.386 22.2802 163.304C22.3502 163.223 22.4401 163.146 22.5497 163.073C22.6594 163.001 22.7936 162.938 22.9522 162.884C23.1132 162.831 23.2999 162.788 23.5122 162.755C23.7246 162.72 23.9672 162.699 24.2402 162.692V162.482C24.2402 162.242 24.1889 162.064 24.0862 161.95C23.9836 161.833 23.8354 161.775 23.6417 161.775C23.5017 161.775 23.3851 161.791 23.2917 161.824C23.2007 161.857 23.1202 161.894 23.0502 161.936C22.9802 161.976 22.9161 162.012 22.8577 162.044C22.8017 162.077 22.7387 162.093 22.6687 162.093C22.6081 162.093 22.5567 162.078 22.5147 162.048C22.4727 162.015 22.4389 161.978 22.4132 161.936L22.2592 161.659ZM26.6679 159.549V164.75H25.8034V159.549H26.6679Z" fill="#FF9300"/>
</svg>
