<svg width="51" height="117" viewBox="0 0 51 117" fill="none" xmlns="http://www.w3.org/2000/svg">
<path d="M2.5 3.5C2.5 2.94772 2.94772 2.5 3.5 2.5H47.5C48.0523 2.5 48.5 2.94772 48.5 3.5V11H2.5V3.5Z" fill="#F1BB72"/>
<path d="M2.5 3.5C2.5 2.94772 2.94772 2.5 3.5 2.5H47.5C48.0523 2.5 48.5 2.94772 48.5 3.5V11H2.5V3.5Z" stroke="#F1BB72"/>
<path d="M13.7637 5.072V6.784H15.9317V7.644H13.7637V10H12.6837V4.216H16.3317V5.072H13.7637ZM17.5506 6.608C17.6786 6.36267 17.8306 6.17067 18.0066 6.032C18.1826 5.89067 18.3906 5.82 18.6306 5.82C18.82 5.82 18.972 5.86133 19.0866 5.944L19.0226 6.684C19.0093 6.732 18.9893 6.76667 18.9626 6.788C18.9386 6.80667 18.9053 6.816 18.8626 6.816C18.8226 6.816 18.7626 6.80933 18.6826 6.796C18.6053 6.78267 18.5293 6.776 18.4546 6.776C18.3453 6.776 18.248 6.792 18.1626 6.824C18.0773 6.856 18 6.90267 17.9306 6.964C17.864 7.02267 17.804 7.09467 17.7506 7.18C17.7 7.26533 17.652 7.36267 17.6066 7.472V10H16.6186V5.896H17.1986C17.3 5.896 17.3706 5.91467 17.4106 5.952C17.4506 5.98667 17.4773 6.05067 17.4906 6.144L17.5506 6.608ZM22.0098 7.476C22.0098 7.348 21.9911 7.228 21.9538 7.116C21.9191 7.00133 21.8658 6.90133 21.7938 6.816C21.7218 6.73067 21.6298 6.664 21.5178 6.616C21.4085 6.56533 21.2805 6.54 21.1338 6.54C20.8485 6.54 20.6231 6.62133 20.4578 6.784C20.2951 6.94667 20.1911 7.17733 20.1458 7.476H22.0098ZM20.1258 8.072C20.1418 8.28267 20.1791 8.46533 20.2378 8.62C20.2965 8.772 20.3738 8.89867 20.4698 9C20.5658 9.09867 20.6791 9.17333 20.8098 9.224C20.9431 9.272 21.0898 9.296 21.2498 9.296C21.4098 9.296 21.5471 9.27733 21.6618 9.24C21.7791 9.20267 21.8805 9.16133 21.9658 9.116C22.0538 9.07067 22.1298 9.02933 22.1938 8.992C22.2605 8.95467 22.3245 8.936 22.3858 8.936C22.4685 8.936 22.5298 8.96667 22.5698 9.028L22.8538 9.388C22.7445 9.516 22.6218 9.624 22.4858 9.712C22.3498 9.79733 22.2071 9.86667 22.0578 9.92C21.9111 9.97067 21.7605 10.0067 21.6058 10.028C21.4538 10.0493 21.3058 10.06 21.1618 10.06C20.8765 10.06 20.6111 10.0133 20.3658 9.92C20.1205 9.824 19.9071 9.684 19.7258 9.5C19.5445 9.31333 19.4018 9.084 19.2978 8.812C19.1938 8.53733 19.1418 8.22 19.1418 7.86C19.1418 7.58 19.1871 7.31733 19.2778 7.072C19.3685 6.824 19.4978 6.60933 19.6658 6.428C19.8365 6.244 20.0431 6.09867 20.2858 5.992C20.5311 5.88533 20.8071 5.832 21.1138 5.832C21.3725 5.832 21.6111 5.87333 21.8298 5.956C22.0485 6.03867 22.2365 6.16 22.3938 6.32C22.5511 6.47733 22.6738 6.672 22.7618 6.904C22.8525 7.13333 22.8978 7.396 22.8978 7.692C22.8978 7.84133 22.8818 7.94267 22.8498 7.996C22.8178 8.04667 22.7565 8.072 22.6658 8.072H20.1258ZM26.1633 7.476C26.1633 7.348 26.1446 7.228 26.1073 7.116C26.0726 7.00133 26.0193 6.90133 25.9473 6.816C25.8753 6.73067 25.7833 6.664 25.6713 6.616C25.5619 6.56533 25.4339 6.54 25.2873 6.54C25.0019 6.54 24.7766 6.62133 24.6113 6.784C24.4486 6.94667 24.3446 7.17733 24.2993 7.476H26.1633ZM24.2793 8.072C24.2953 8.28267 24.3326 8.46533 24.3913 8.62C24.4499 8.772 24.5273 8.89867 24.6233 9C24.7193 9.09867 24.8326 9.17333 24.9633 9.224C25.0966 9.272 25.2433 9.296 25.4033 9.296C25.5633 9.296 25.7006 9.27733 25.8153 9.24C25.9326 9.20267 26.0339 9.16133 26.1193 9.116C26.2073 9.07067 26.2833 9.02933 26.3473 8.992C26.4139 8.95467 26.4779 8.936 26.5393 8.936C26.6219 8.936 26.6833 8.96667 26.7233 9.028L27.0073 9.388C26.8979 9.516 26.7753 9.624 26.6393 9.712C26.5033 9.79733 26.3606 9.86667 26.2113 9.92C26.0646 9.97067 25.9139 10.0067 25.7593 10.028C25.6073 10.0493 25.4593 10.06 25.3153 10.06C25.0299 10.06 24.7646 10.0133 24.5193 9.92C24.2739 9.824 24.0606 9.684 23.8793 9.5C23.6979 9.31333 23.5553 9.084 23.4513 8.812C23.3473 8.53733 23.2952 8.22 23.2952 7.86C23.2952 7.58 23.3406 7.31733 23.4313 7.072C23.5219 6.824 23.6513 6.60933 23.8193 6.428C23.9899 6.244 24.1966 6.09867 24.4393 5.992C24.6846 5.88533 24.9606 5.832 25.2673 5.832C25.5259 5.832 25.7646 5.87333 25.9833 5.956C26.2019 6.03867 26.3899 6.16 26.5473 6.32C26.7046 6.47733 26.8273 6.672 26.9153 6.904C27.0059 7.13333 27.0512 7.396 27.0512 7.692C27.0512 7.84133 27.0353 7.94267 27.0033 7.996C26.9713 8.04667 26.9099 8.072 26.8193 8.072H24.2793ZM28.6047 6.608C28.7327 6.36267 28.8847 6.17067 29.0607 6.032C29.2367 5.89067 29.4447 5.82 29.6847 5.82C29.874 5.82 30.026 5.86133 30.1407 5.944L30.0767 6.684C30.0634 6.732 30.0434 6.76667 30.0167 6.788C29.9927 6.80667 29.9594 6.816 29.9167 6.816C29.8767 6.816 29.8167 6.80933 29.7367 6.796C29.6594 6.78267 29.5834 6.776 29.5087 6.776C29.3994 6.776 29.302 6.792 29.2167 6.824C29.1314 6.856 29.054 6.90267 28.9847 6.964C28.918 7.02267 28.858 7.09467 28.8047 7.18C28.754 7.26533 28.706 7.36267 28.6607 7.472V10H27.6727V5.896H28.2527C28.354 5.896 28.4247 5.91467 28.4647 5.952C28.5047 5.98667 28.5314 6.05067 28.5447 6.144L28.6047 6.608ZM34.0731 5.896V10H33.4691C33.3384 10 33.2557 9.94 33.2211 9.82L33.1531 9.492C32.9851 9.66267 32.7997 9.80133 32.5971 9.908C32.3944 10.012 32.1557 10.064 31.8811 10.064C31.6571 10.064 31.4584 10.0267 31.2851 9.952C31.1144 9.87467 30.9704 9.76667 30.8531 9.628C30.7357 9.48933 30.6464 9.32533 30.5851 9.136C30.5264 8.944 30.4971 8.73333 30.4971 8.504V5.896H31.4851V8.504C31.4851 8.75467 31.5424 8.94933 31.6571 9.088C31.7744 9.224 31.9491 9.292 32.1811 9.292C32.3517 9.292 32.5117 9.25467 32.6611 9.18C32.8104 9.10267 32.9517 8.99733 33.0851 8.864V5.896H34.0731ZM35.8567 6.4C35.9394 6.31733 36.026 6.24133 36.1167 6.172C36.21 6.1 36.3074 6.04 36.4087 5.992C36.5127 5.94133 36.6234 5.90267 36.7407 5.876C36.858 5.84667 36.986 5.832 37.1247 5.832C37.3487 5.832 37.5474 5.87067 37.7207 5.948C37.894 6.02267 38.038 6.12933 38.1527 6.268C38.27 6.404 38.358 6.568 38.4167 6.76C38.478 6.94933 38.5087 7.15867 38.5087 7.388V10H37.5207V7.388C37.5207 7.13733 37.4634 6.944 37.3487 6.808C37.234 6.66933 37.0594 6.6 36.8247 6.6C36.654 6.6 36.494 6.63867 36.3447 6.716C36.1954 6.79333 36.054 6.89867 35.9207 7.032V10H34.9327V5.896H35.5367C35.6647 5.896 35.7487 5.956 35.7887 6.076L35.8567 6.4Z" fill="black"/>
<rect x="2.5" y="54" width="46" height="9" fill="#F1BB72"/>
<rect x="2.5" y="54" width="46" height="9" stroke="#F1BB72"/>
<path d="M9.16625 58.14H9.41825C9.51958 58.14 9.60358 58.1267 9.67025 58.1C9.73692 58.0707 9.79425 58.0253 9.84225 57.964L11.4383 55.944C11.5049 55.8587 11.5743 55.8 11.6463 55.768C11.7209 55.7333 11.8143 55.716 11.9263 55.716H12.8543L10.9063 58.12C10.7916 58.2667 10.6729 58.3707 10.5503 58.432C10.6383 58.464 10.7169 58.5093 10.7863 58.568C10.8583 58.624 10.9263 58.6987 10.9903 58.792L12.9983 61.5H12.0503C11.9223 61.5 11.8263 61.4827 11.7623 61.448C11.7009 61.4107 11.6489 61.3573 11.6063 61.288L9.97025 59.152C9.91958 59.08 9.86092 59.0293 9.79425 59C9.72758 58.9707 9.63158 58.956 9.50625 58.956H9.16625V61.5H8.09025V55.716H9.16625V58.14ZM15.6458 58.976C15.6458 58.848 15.6271 58.728 15.5898 58.616C15.5551 58.5013 15.5018 58.4013 15.4298 58.316C15.3578 58.2307 15.2658 58.164 15.1538 58.116C15.0444 58.0653 14.9164 58.04 14.7698 58.04C14.4844 58.04 14.2591 58.1213 14.0938 58.284C13.9311 58.4467 13.8271 58.6773 13.7818 58.976H15.6458ZM13.7618 59.572C13.7778 59.7827 13.8151 59.9653 13.8738 60.12C13.9324 60.272 14.0098 60.3987 14.1058 60.5C14.2018 60.5987 14.3151 60.6733 14.4458 60.724C14.5791 60.772 14.7258 60.796 14.8858 60.796C15.0458 60.796 15.1831 60.7773 15.2978 60.74C15.4151 60.7027 15.5164 60.6613 15.6018 60.616C15.6898 60.5707 15.7658 60.5293 15.8298 60.492C15.8964 60.4547 15.9604 60.436 16.0218 60.436C16.1044 60.436 16.1658 60.4667 16.2058 60.528L16.4898 60.888C16.3804 61.016 16.2578 61.124 16.1218 61.212C15.9858 61.2973 15.8431 61.3667 15.6938 61.42C15.5471 61.4707 15.3964 61.5067 15.2418 61.528C15.0898 61.5493 14.9418 61.56 14.7978 61.56C14.5124 61.56 14.2471 61.5133 14.0018 61.42C13.7564 61.324 13.5431 61.184 13.3618 61C13.1804 60.8133 13.0378 60.584 12.9338 60.312C12.8298 60.0373 12.7778 59.72 12.7778 59.36C12.7778 59.08 12.8231 58.8173 12.9138 58.572C13.0044 58.324 13.1338 58.1093 13.3018 57.928C13.4724 57.744 13.6791 57.5987 13.9218 57.492C14.1671 57.3853 14.4431 57.332 14.7498 57.332C15.0084 57.332 15.2471 57.3733 15.4658 57.456C15.6844 57.5387 15.8724 57.66 16.0298 57.82C16.1871 57.9773 16.3098 58.172 16.3978 58.404C16.4884 58.6333 16.5338 58.896 16.5338 59.192C16.5338 59.3413 16.5178 59.4427 16.4858 59.496C16.4538 59.5467 16.3924 59.572 16.3018 59.572H13.7618ZM20.766 57.396L18.53 62.628C18.5007 62.6973 18.462 62.7493 18.414 62.784C18.3687 62.8213 18.298 62.84 18.202 62.84H17.466L18.234 61.192L16.574 57.396H17.442C17.5193 57.396 17.5793 57.4147 17.622 57.452C17.6673 57.4893 17.7007 57.532 17.722 57.58L18.594 59.708C18.6233 59.78 18.6473 59.852 18.666 59.924C18.6873 59.996 18.7073 60.0693 18.726 60.144C18.75 60.0693 18.774 59.996 18.798 59.924C18.822 59.8493 18.8487 59.776 18.878 59.704L19.702 57.58C19.7233 57.5267 19.758 57.4827 19.806 57.448C19.8567 57.4133 19.9127 57.396 19.974 57.396H20.766ZM22.5048 61.564C22.1474 61.564 21.8728 61.464 21.6808 61.264C21.4914 61.0613 21.3968 60.7827 21.3968 60.428V58.136H20.9768C20.9234 58.136 20.8781 58.1187 20.8408 58.084C20.8034 58.0493 20.7848 57.9973 20.7848 57.928V57.536L21.4448 57.428L21.6528 56.308C21.6661 56.2547 21.6914 56.2133 21.7288 56.184C21.7661 56.1547 21.8141 56.14 21.8728 56.14H22.3848V57.432H23.4808V58.136H22.3848V60.36C22.3848 60.488 22.4154 60.588 22.4768 60.66C22.5408 60.732 22.6274 60.768 22.7368 60.768C22.7981 60.768 22.8488 60.7613 22.8888 60.748C22.9314 60.732 22.9674 60.716 22.9968 60.7C23.0288 60.684 23.0568 60.6693 23.0808 60.656C23.1048 60.64 23.1288 60.632 23.1528 60.632C23.1821 60.632 23.2061 60.64 23.2248 60.656C23.2434 60.6693 23.2634 60.6907 23.2848 60.72L23.5808 61.2C23.4368 61.32 23.2714 61.4107 23.0848 61.472C22.8981 61.5333 22.7048 61.564 22.5048 61.564ZM24.9253 58.108C25.0533 57.8627 25.2053 57.6707 25.3813 57.532C25.5573 57.3907 25.7653 57.32 26.0053 57.32C26.1946 57.32 26.3466 57.3613 26.4613 57.444L26.3973 58.184C26.384 58.232 26.364 58.2667 26.3373 58.288C26.3133 58.3067 26.28 58.316 26.2373 58.316C26.1973 58.316 26.1373 58.3093 26.0573 58.296C25.98 58.2827 25.904 58.276 25.8293 58.276C25.72 58.276 25.6226 58.292 25.5373 58.324C25.452 58.356 25.3746 58.4027 25.3053 58.464C25.2386 58.5227 25.1786 58.5947 25.1253 58.68C25.0746 58.7653 25.0266 58.8627 24.9813 58.972V61.5H23.9933V57.396H24.5733C24.6746 57.396 24.7453 57.4147 24.7853 57.452C24.8253 57.4867 24.852 57.5507 24.8653 57.644L24.9253 58.108ZM27.8817 57.396V61.5H26.8897V57.396H27.8817ZM28.0177 56.2C28.0177 56.2853 28.0004 56.3653 27.9657 56.44C27.931 56.5147 27.8844 56.58 27.8257 56.636C27.7697 56.692 27.703 56.7373 27.6257 56.772C27.5484 56.804 27.4657 56.82 27.3777 56.82C27.2924 56.82 27.211 56.804 27.1337 56.772C27.059 56.7373 26.9937 56.692 26.9377 56.636C26.8817 56.58 26.8364 56.5147 26.8017 56.44C26.7697 56.3653 26.7537 56.2853 26.7537 56.2C26.7537 56.112 26.7697 56.0293 26.8017 55.952C26.8364 55.8747 26.8817 55.808 26.9377 55.752C26.9937 55.696 27.059 55.652 27.1337 55.62C27.211 55.5853 27.2924 55.568 27.3777 55.568C27.4657 55.568 27.5484 55.5853 27.6257 55.62C27.703 55.652 27.7697 55.696 27.8257 55.752C27.8844 55.808 27.931 55.8747 27.9657 55.952C28.0004 56.0293 28.0177 56.112 28.0177 56.2ZM30.2689 59.348C30.3916 59.348 30.4983 59.332 30.5889 59.3C30.6796 59.2653 30.7543 59.2187 30.8129 59.16C30.8743 59.1013 30.9196 59.0307 30.9489 58.948C30.9809 58.8653 30.9969 58.7747 30.9969 58.676C30.9969 58.4733 30.9356 58.3133 30.8129 58.196C30.6929 58.076 30.5116 58.016 30.2689 58.016C30.0263 58.016 29.8436 58.076 29.7209 58.196C29.6009 58.3133 29.5409 58.4733 29.5409 58.676C29.5409 58.772 29.5556 58.8613 29.5849 58.944C29.6169 59.0267 29.6623 59.0987 29.7209 59.16C29.7823 59.2187 29.8583 59.2653 29.9489 59.3C30.0423 59.332 30.1489 59.348 30.2689 59.348ZM31.3849 61.684C31.3849 61.604 31.3609 61.5387 31.3129 61.488C31.2649 61.4373 31.1996 61.3987 31.1169 61.372C31.0343 61.3427 30.9369 61.3213 30.8249 61.308C30.7156 61.2947 30.5983 61.2853 30.4729 61.28C30.3503 61.272 30.2223 61.2653 30.0889 61.26C29.9583 61.2547 29.8303 61.244 29.7049 61.228C29.5956 61.2893 29.5063 61.3613 29.4369 61.444C29.3703 61.5267 29.3369 61.6227 29.3369 61.732C29.3369 61.804 29.3543 61.8707 29.3889 61.932C29.4263 61.996 29.4836 62.0507 29.5609 62.096C29.6409 62.1413 29.7436 62.176 29.8689 62.2C29.9943 62.2267 30.1476 62.24 30.3289 62.24C30.5129 62.24 30.6716 62.2253 30.8049 62.196C30.9383 62.1693 31.0476 62.1307 31.1329 62.08C31.2209 62.032 31.2849 61.9733 31.3249 61.904C31.3649 61.8373 31.3849 61.764 31.3849 61.684ZM32.3689 57.536V57.904C32.3689 58.0213 32.2983 58.0933 32.1569 58.12L31.7889 58.188C31.8449 58.3293 31.8729 58.484 31.8729 58.652C31.8729 58.8547 31.8316 59.0387 31.7489 59.204C31.6689 59.3667 31.5569 59.5053 31.4129 59.62C31.2689 59.7347 31.0983 59.824 30.9009 59.888C30.7063 59.9493 30.4956 59.98 30.2689 59.98C30.1889 59.98 30.1116 59.976 30.0369 59.968C29.9623 59.96 29.8889 59.9493 29.8169 59.936C29.6889 60.0133 29.6249 60.1 29.6249 60.196C29.6249 60.2787 29.6623 60.34 29.7369 60.38C29.8143 60.4173 29.9156 60.444 30.0409 60.46C30.1663 60.476 30.3089 60.4867 30.4689 60.492C30.6289 60.4947 30.7929 60.5027 30.9609 60.516C31.1289 60.5293 31.2929 60.5533 31.4529 60.588C31.6129 60.62 31.7556 60.672 31.8809 60.744C32.0063 60.816 32.1063 60.9147 32.1809 61.04C32.2583 61.1627 32.2969 61.3213 32.2969 61.516C32.2969 61.6973 32.2516 61.8733 32.1609 62.044C32.0729 62.2147 31.9436 62.3667 31.7729 62.5C31.6049 62.6333 31.3969 62.74 31.1489 62.82C30.9036 62.9027 30.6236 62.944 30.3089 62.944C29.9996 62.944 29.7303 62.9133 29.5009 62.852C29.2716 62.7933 29.0809 62.7133 28.9289 62.612C28.7769 62.5133 28.6636 62.3987 28.5889 62.268C28.5143 62.1373 28.4769 62.0013 28.4769 61.86C28.4769 61.668 28.5343 61.508 28.6489 61.38C28.7663 61.2493 28.9263 61.1453 29.1289 61.068C29.0196 61.012 28.9329 60.9373 28.8689 60.844C28.8049 60.7507 28.7729 60.628 28.7729 60.476C28.7729 60.4147 28.7836 60.352 28.8049 60.288C28.8289 60.2213 28.8623 60.156 28.9049 60.092C28.9503 60.028 29.0063 59.968 29.0729 59.912C29.1396 59.8533 29.2183 59.8013 29.3089 59.756C29.1009 59.644 28.9369 59.4947 28.8169 59.308C28.6996 59.1213 28.6409 58.9027 28.6409 58.652C28.6409 58.4493 28.6809 58.2667 28.7609 58.104C28.8436 57.9387 28.9569 57.7987 29.1009 57.684C29.2476 57.5667 29.4196 57.4773 29.6169 57.416C29.8169 57.3547 30.0343 57.324 30.2689 57.324C30.4449 57.324 30.6103 57.3427 30.7649 57.38C30.9196 57.4147 31.0609 57.4667 31.1889 57.536H32.3689ZM34.3677 59.348C34.4904 59.348 34.597 59.332 34.6877 59.3C34.7784 59.2653 34.853 59.2187 34.9117 59.16C34.973 59.1013 35.0184 59.0307 35.0477 58.948C35.0797 58.8653 35.0957 58.7747 35.0957 58.676C35.0957 58.4733 35.0344 58.3133 34.9117 58.196C34.7917 58.076 34.6104 58.016 34.3677 58.016C34.125 58.016 33.9424 58.076 33.8197 58.196C33.6997 58.3133 33.6397 58.4733 33.6397 58.676C33.6397 58.772 33.6544 58.8613 33.6837 58.944C33.7157 59.0267 33.761 59.0987 33.8197 59.16C33.881 59.2187 33.957 59.2653 34.0477 59.3C34.141 59.332 34.2477 59.348 34.3677 59.348ZM35.4837 61.684C35.4837 61.604 35.4597 61.5387 35.4117 61.488C35.3637 61.4373 35.2984 61.3987 35.2157 61.372C35.133 61.3427 35.0357 61.3213 34.9237 61.308C34.8144 61.2947 34.697 61.2853 34.5717 61.28C34.449 61.272 34.321 61.2653 34.1877 61.26C34.057 61.2547 33.929 61.244 33.8037 61.228C33.6944 61.2893 33.605 61.3613 33.5357 61.444C33.469 61.5267 33.4357 61.6227 33.4357 61.732C33.4357 61.804 33.453 61.8707 33.4877 61.932C33.525 61.996 33.5824 62.0507 33.6597 62.096C33.7397 62.1413 33.8424 62.176 33.9677 62.2C34.093 62.2267 34.2464 62.24 34.4277 62.24C34.6117 62.24 34.7704 62.2253 34.9037 62.196C35.037 62.1693 35.1464 62.1307 35.2317 62.08C35.3197 62.032 35.3837 61.9733 35.4237 61.904C35.4637 61.8373 35.4837 61.764 35.4837 61.684ZM36.4677 57.536V57.904C36.4677 58.0213 36.397 58.0933 36.2557 58.12L35.8877 58.188C35.9437 58.3293 35.9717 58.484 35.9717 58.652C35.9717 58.8547 35.9304 59.0387 35.8477 59.204C35.7677 59.3667 35.6557 59.5053 35.5117 59.62C35.3677 59.7347 35.197 59.824 34.9997 59.888C34.805 59.9493 34.5944 59.98 34.3677 59.98C34.2877 59.98 34.2104 59.976 34.1357 59.968C34.061 59.96 33.9877 59.9493 33.9157 59.936C33.7877 60.0133 33.7237 60.1 33.7237 60.196C33.7237 60.2787 33.761 60.34 33.8357 60.38C33.913 60.4173 34.0144 60.444 34.1397 60.46C34.265 60.476 34.4077 60.4867 34.5677 60.492C34.7277 60.4947 34.8917 60.5027 35.0597 60.516C35.2277 60.5293 35.3917 60.5533 35.5517 60.588C35.7117 60.62 35.8544 60.672 35.9797 60.744C36.105 60.816 36.205 60.9147 36.2797 61.04C36.357 61.1627 36.3957 61.3213 36.3957 61.516C36.3957 61.6973 36.3504 61.8733 36.2597 62.044C36.1717 62.2147 36.0424 62.3667 35.8717 62.5C35.7037 62.6333 35.4957 62.74 35.2477 62.82C35.0024 62.9027 34.7224 62.944 34.4077 62.944C34.0984 62.944 33.829 62.9133 33.5997 62.852C33.3704 62.7933 33.1797 62.7133 33.0277 62.612C32.8757 62.5133 32.7624 62.3987 32.6877 62.268C32.613 62.1373 32.5757 62.0013 32.5757 61.86C32.5757 61.668 32.633 61.508 32.7477 61.38C32.865 61.2493 33.025 61.1453 33.2277 61.068C33.1184 61.012 33.0317 60.9373 32.9677 60.844C32.9037 60.7507 32.8717 60.628 32.8717 60.476C32.8717 60.4147 32.8824 60.352 32.9037 60.288C32.9277 60.2213 32.961 60.156 33.0037 60.092C33.049 60.028 33.105 59.968 33.1717 59.912C33.2384 59.8533 33.317 59.8013 33.4077 59.756C33.1997 59.644 33.0357 59.4947 32.9157 59.308C32.7984 59.1213 32.7397 58.9027 32.7397 58.652C32.7397 58.4493 32.7797 58.2667 32.8597 58.104C32.9424 57.9387 33.0557 57.7987 33.1997 57.684C33.3464 57.5667 33.5184 57.4773 33.7157 57.416C33.9157 57.3547 34.133 57.324 34.3677 57.324C34.5437 57.324 34.709 57.3427 34.8637 57.38C35.0184 57.4147 35.1597 57.4667 35.2877 57.536H36.4677ZM39.5479 58.976C39.5479 58.848 39.5293 58.728 39.4919 58.616C39.4573 58.5013 39.4039 58.4013 39.3319 58.316C39.2599 58.2307 39.1679 58.164 39.0559 58.116C38.9466 58.0653 38.8186 58.04 38.6719 58.04C38.3866 58.04 38.1613 58.1213 37.9959 58.284C37.8333 58.4467 37.7293 58.6773 37.6839 58.976H39.5479ZM37.6639 59.572C37.6799 59.7827 37.7173 59.9653 37.7759 60.12C37.8346 60.272 37.9119 60.3987 38.0079 60.5C38.1039 60.5987 38.2173 60.6733 38.3479 60.724C38.4813 60.772 38.6279 60.796 38.7879 60.796C38.9479 60.796 39.0853 60.7773 39.1999 60.74C39.3173 60.7027 39.4186 60.6613 39.5039 60.616C39.5919 60.5707 39.6679 60.5293 39.7319 60.492C39.7986 60.4547 39.8626 60.436 39.9239 60.436C40.0066 60.436 40.0679 60.4667 40.1079 60.528L40.3919 60.888C40.2826 61.016 40.1599 61.124 40.0239 61.212C39.8879 61.2973 39.7453 61.3667 39.5959 61.42C39.4493 61.4707 39.2986 61.5067 39.1439 61.528C38.9919 61.5493 38.8439 61.56 38.6999 61.56C38.4146 61.56 38.1493 61.5133 37.9039 61.42C37.6586 61.324 37.4453 61.184 37.2639 61C37.0826 60.8133 36.9399 60.584 36.8359 60.312C36.7319 60.0373 36.6799 59.72 36.6799 59.36C36.6799 59.08 36.7253 58.8173 36.8159 58.572C36.9066 58.324 37.0359 58.1093 37.2039 57.928C37.3746 57.744 37.5813 57.5987 37.8239 57.492C38.0693 57.3853 38.3453 57.332 38.6519 57.332C38.9106 57.332 39.1493 57.3733 39.3679 57.456C39.5866 57.5387 39.7746 57.66 39.9319 57.82C40.0893 57.9773 40.2119 58.172 40.2999 58.404C40.3906 58.6333 40.4359 58.896 40.4359 59.192C40.4359 59.3413 40.4199 59.4427 40.3879 59.496C40.3559 59.5467 40.2946 59.572 40.2039 59.572H37.6639ZM41.9894 58.108C42.1174 57.8627 42.2694 57.6707 42.4454 57.532C42.6214 57.3907 42.8294 57.32 43.0694 57.32C43.2587 57.32 43.4107 57.3613 43.5254 57.444L43.4614 58.184C43.448 58.232 43.428 58.2667 43.4014 58.288C43.3774 58.3067 43.344 58.316 43.3014 58.316C43.2614 58.316 43.2014 58.3093 43.1214 58.296C43.044 58.2827 42.968 58.276 42.8934 58.276C42.784 58.276 42.6867 58.292 42.6014 58.324C42.516 58.356 42.4387 58.4027 42.3694 58.464C42.3027 58.5227 42.2427 58.5947 42.1894 58.68C42.1387 58.7653 42.0907 58.8627 42.0454 58.972V61.5H41.0574V57.396H41.6374C41.7387 57.396 41.8094 57.4147 41.8494 57.452C41.8894 57.4867 41.916 57.5507 41.9294 57.644L41.9894 58.108Z" fill="black"/>
<path d="M2.5 106H48.5V113.5C48.5 114.052 48.0523 114.5 47.5 114.5H3.5C2.94772 114.5 2.5 114.052 2.5 113.5V106Z" fill="#F1BB72"/>
<path d="M2.5 106H48.5V113.5C48.5 114.052 48.0523 114.5 47.5 114.5H3.5C2.94772 114.5 2.5 114.052 2.5 113.5V106Z" stroke="#F1BB72"/>
<path d="M13.4459 110.468C13.6486 110.468 13.8246 110.443 13.9739 110.392C14.1259 110.341 14.2499 110.272 14.3459 110.184C14.4446 110.093 14.5179 109.987 14.5659 109.864C14.6139 109.741 14.6379 109.607 14.6379 109.46C14.6379 109.167 14.5406 108.941 14.3459 108.784C14.1539 108.627 13.8592 108.548 13.4619 108.548H12.7739V110.468H13.4459ZM16.2139 113.5H15.2419C15.0579 113.5 14.9246 113.428 14.8419 113.284L13.6259 111.432C13.5806 111.363 13.5299 111.313 13.4739 111.284C13.4206 111.255 13.3406 111.24 13.2339 111.24H12.7739V113.5H11.6979V107.716H13.4619C13.8539 107.716 14.1899 107.757 14.4699 107.84C14.7526 107.92 14.9832 108.033 15.1619 108.18C15.3432 108.327 15.4766 108.503 15.5619 108.708C15.6472 108.911 15.6899 109.135 15.6899 109.38C15.6899 109.575 15.6606 109.759 15.6019 109.932C15.5459 110.105 15.4632 110.263 15.3539 110.404C15.2472 110.545 15.1139 110.669 14.9539 110.776C14.7966 110.883 14.6166 110.967 14.4139 111.028C14.4832 111.068 14.5472 111.116 14.6059 111.172C14.6646 111.225 14.7179 111.289 14.7659 111.364L16.2139 113.5ZM18.668 111.748C18.3827 111.761 18.1427 111.787 17.948 111.824C17.7534 111.859 17.5974 111.904 17.48 111.96C17.3627 112.016 17.2787 112.081 17.228 112.156C17.1774 112.231 17.152 112.312 17.152 112.4C17.152 112.573 17.2027 112.697 17.304 112.772C17.408 112.847 17.5427 112.884 17.708 112.884C17.9107 112.884 18.0854 112.848 18.232 112.776C18.3814 112.701 18.5267 112.589 18.668 112.44V111.748ZM16.404 109.968C16.876 109.536 17.444 109.32 18.108 109.32C18.348 109.32 18.5627 109.36 18.752 109.44C18.9414 109.517 19.1014 109.627 19.232 109.768C19.3627 109.907 19.4614 110.073 19.528 110.268C19.5974 110.463 19.632 110.676 19.632 110.908V113.5H19.184C19.0907 113.5 19.0187 113.487 18.968 113.46C18.9174 113.431 18.8774 113.373 18.848 113.288L18.76 112.992C18.656 113.085 18.5547 113.168 18.456 113.24C18.3574 113.309 18.2547 113.368 18.148 113.416C18.0414 113.464 17.9267 113.5 17.804 113.524C17.684 113.551 17.5507 113.564 17.404 113.564C17.2307 113.564 17.0707 113.541 16.924 113.496C16.7774 113.448 16.6507 113.377 16.544 113.284C16.4374 113.191 16.3547 113.075 16.296 112.936C16.2374 112.797 16.208 112.636 16.208 112.452C16.208 112.348 16.2254 112.245 16.26 112.144C16.2947 112.04 16.3507 111.941 16.428 111.848C16.508 111.755 16.6107 111.667 16.736 111.584C16.8614 111.501 17.0147 111.429 17.196 111.368C17.38 111.307 17.5934 111.257 17.836 111.22C18.0787 111.18 18.356 111.156 18.668 111.148V110.908C18.668 110.633 18.6094 110.431 18.492 110.3C18.3747 110.167 18.2054 110.1 17.984 110.1C17.824 110.1 17.6907 110.119 17.584 110.156C17.48 110.193 17.388 110.236 17.308 110.284C17.228 110.329 17.1547 110.371 17.088 110.408C17.024 110.445 16.952 110.464 16.872 110.464C16.8027 110.464 16.744 110.447 16.696 110.412C16.648 110.375 16.6094 110.332 16.58 110.284L16.404 109.968ZM21.3665 109.9C21.4492 109.817 21.5359 109.741 21.6265 109.672C21.7199 109.6 21.8172 109.54 21.9185 109.492C22.0225 109.441 22.1332 109.403 22.2505 109.376C22.3679 109.347 22.4959 109.332 22.6345 109.332C22.8585 109.332 23.0572 109.371 23.2305 109.448C23.4039 109.523 23.5479 109.629 23.6625 109.768C23.7799 109.904 23.8679 110.068 23.9265 110.26C23.9879 110.449 24.0185 110.659 24.0185 110.888V113.5H23.0305V110.888C23.0305 110.637 22.9732 110.444 22.8585 110.308C22.7439 110.169 22.5692 110.1 22.3345 110.1C22.1639 110.1 22.0039 110.139 21.8545 110.216C21.7052 110.293 21.5639 110.399 21.4305 110.532V113.5H20.4425V109.396H21.0465C21.1745 109.396 21.2585 109.456 21.2985 109.576L21.3665 109.9ZM27.4142 110.444C27.3022 110.308 27.1795 110.212 27.0462 110.156C26.9155 110.1 26.7742 110.072 26.6222 110.072C26.4728 110.072 26.3382 110.1 26.2182 110.156C26.0982 110.212 25.9955 110.297 25.9102 110.412C25.8248 110.524 25.7595 110.668 25.7142 110.844C25.6688 111.017 25.6462 111.223 25.6462 111.46C25.6462 111.7 25.6648 111.904 25.7022 112.072C25.7422 112.237 25.7982 112.373 25.8702 112.48C25.9422 112.584 26.0302 112.66 26.1342 112.708C26.2382 112.753 26.3542 112.776 26.4822 112.776C26.6875 112.776 26.8622 112.733 27.0062 112.648C27.1502 112.563 27.2862 112.441 27.4142 112.284V110.444ZM28.4022 107.556V113.5H27.7982C27.6675 113.5 27.5848 113.44 27.5502 113.32L27.4662 112.924C27.3008 113.113 27.1102 113.267 26.8942 113.384C26.6808 113.501 26.4315 113.56 26.1462 113.56C25.9222 113.56 25.7168 113.513 25.5302 113.42C25.3435 113.327 25.1822 113.192 25.0462 113.016C24.9128 112.837 24.8088 112.617 24.7342 112.356C24.6622 112.095 24.6262 111.796 24.6262 111.46C24.6262 111.156 24.6675 110.873 24.7502 110.612C24.8328 110.351 24.9515 110.124 25.1062 109.932C25.2608 109.74 25.4462 109.591 25.6622 109.484C25.8782 109.375 26.1208 109.32 26.3902 109.32C26.6195 109.32 26.8155 109.356 26.9782 109.428C27.1408 109.5 27.2862 109.597 27.4142 109.72V107.556H28.4022ZM31.0732 109.332C31.3772 109.332 31.6532 109.381 31.9012 109.48C32.1519 109.579 32.3652 109.719 32.5412 109.9C32.7199 110.081 32.8572 110.303 32.9532 110.564C33.0492 110.825 33.0972 111.117 33.0972 111.44C33.0972 111.765 33.0492 112.059 32.9532 112.32C32.8572 112.581 32.7199 112.804 32.5412 112.988C32.3652 113.172 32.1519 113.313 31.9012 113.412C31.6532 113.511 31.3772 113.56 31.0732 113.56C30.7666 113.56 30.4879 113.511 30.2372 113.412C29.9866 113.313 29.7719 113.172 29.5932 112.988C29.4172 112.804 29.2799 112.581 29.1812 112.32C29.0852 112.059 29.0372 111.765 29.0372 111.44C29.0372 111.117 29.0852 110.825 29.1812 110.564C29.2799 110.303 29.4172 110.081 29.5932 109.9C29.7719 109.719 29.9866 109.579 30.2372 109.48C30.4879 109.381 30.7666 109.332 31.0732 109.332ZM31.0732 112.8C31.4146 112.8 31.6666 112.685 31.8292 112.456C31.9946 112.227 32.0772 111.891 32.0772 111.448C32.0772 111.005 31.9946 110.668 31.8292 110.436C31.6666 110.204 31.4146 110.088 31.0732 110.088C30.7266 110.088 30.4692 110.205 30.3012 110.44C30.1359 110.672 30.0532 111.008 30.0532 111.448C30.0532 111.888 30.1359 112.224 30.3012 112.456C30.4692 112.685 30.7266 112.8 31.0732 112.8ZM33.731 113.5V109.396H34.335C34.463 109.396 34.547 109.456 34.587 109.576L34.651 109.88C34.723 109.8 34.7976 109.727 34.875 109.66C34.955 109.593 35.039 109.536 35.127 109.488C35.2176 109.44 35.3136 109.403 35.415 109.376C35.519 109.347 35.6323 109.332 35.755 109.332C36.0136 109.332 36.2256 109.403 36.391 109.544C36.559 109.683 36.6843 109.868 36.767 110.1C36.831 109.964 36.911 109.848 37.007 109.752C37.103 109.653 37.2083 109.573 37.323 109.512C37.4376 109.451 37.559 109.405 37.687 109.376C37.8176 109.347 37.9483 109.332 38.079 109.332C38.3056 109.332 38.507 109.367 38.683 109.436C38.859 109.505 39.007 109.607 39.127 109.74C39.247 109.873 39.3376 110.036 39.399 110.228C39.463 110.42 39.495 110.64 39.495 110.888V113.5H38.507V110.888C38.507 110.627 38.4496 110.431 38.335 110.3C38.2203 110.167 38.0523 110.1 37.831 110.1C37.7296 110.1 37.635 110.117 37.547 110.152C37.4616 110.187 37.3856 110.237 37.319 110.304C37.255 110.368 37.2043 110.449 37.167 110.548C37.1296 110.647 37.111 110.76 37.111 110.888V113.5H36.119V110.888C36.119 110.613 36.063 110.413 35.951 110.288C35.8416 110.163 35.6803 110.1 35.467 110.1C35.323 110.1 35.1883 110.136 35.063 110.208C34.9403 110.277 34.8256 110.373 34.719 110.496V113.5H33.731Z" fill="black"/>
</svg>
