<svg width="12" height="306" viewBox="0 0 12 306" fill="none" xmlns="http://www.w3.org/2000/svg">
<rect x="0.5" y="20" width="11" height="11" fill="#FF9300"/>
<rect x="0.5" y="20" width="11" height="11" stroke="#FF9300"/>
<path d="M7.81969 27.76V28.5H4.61969V27.76H5.79169V24.388C5.79169 24.2547 5.79569 24.1173 5.80369 23.976L4.97169 24.672C4.92369 24.7093 4.87569 24.7333 4.82769 24.744C4.78235 24.752 4.73835 24.752 4.69569 24.744C4.65569 24.736 4.61969 24.7227 4.58769 24.704C4.55569 24.6827 4.53169 24.66 4.51569 24.636L4.20369 24.208L5.96769 22.708H6.77969V27.76H7.81969Z" fill="white"/>
<rect x="0.5" y="38" width="11" height="11" fill="#FF9300"/>
<rect x="0.5" y="38" width="11" height="11" stroke="#FF9300"/>
<path d="M7.60369 45.58C7.71035 45.58 7.79435 45.6107 7.85569 45.672C7.91969 45.7307 7.95169 45.8093 7.95169 45.908V46.5H3.98369V46.172C3.98369 46.1053 3.99702 46.036 4.02369 45.964C4.05302 45.8893 4.09835 45.8227 4.15969 45.764L5.91569 44.004C6.06235 43.8547 6.19302 43.712 6.30769 43.576C6.42502 43.44 6.52235 43.3053 6.59969 43.172C6.67702 43.0387 6.73569 42.904 6.77569 42.768C6.81835 42.6293 6.83969 42.484 6.83969 42.332C6.83969 42.1933 6.81969 42.072 6.77969 41.968C6.73969 41.8613 6.68235 41.772 6.60769 41.7C6.53569 41.628 6.44769 41.5747 6.34369 41.54C6.24235 41.5027 6.12769 41.484 5.99969 41.484C5.88235 41.484 5.77302 41.5013 5.67169 41.536C5.57302 41.568 5.48502 41.6147 5.40769 41.676C5.33035 41.7347 5.26502 41.804 5.21169 41.884C5.15835 41.964 5.11835 42.052 5.09169 42.148C5.04635 42.2707 4.98769 42.352 4.91569 42.392C4.84369 42.432 4.73969 42.4413 4.60369 42.42L4.08369 42.328C4.12369 42.0507 4.20102 41.808 4.31569 41.6C4.43035 41.3893 4.57302 41.2147 4.74369 41.076C4.91702 40.9347 5.11435 40.8293 5.33569 40.76C5.55969 40.688 5.79969 40.652 6.05569 40.652C6.32235 40.652 6.56635 40.692 6.78769 40.772C7.00902 40.8493 7.19835 40.96 7.35569 41.104C7.51302 41.248 7.63569 41.4213 7.72369 41.624C7.81169 41.8267 7.85569 42.052 7.85569 42.3C7.85569 42.5133 7.82369 42.7107 7.75969 42.892C7.69835 43.0733 7.61435 43.2467 7.50769 43.412C7.40369 43.5773 7.28102 43.7373 7.13969 43.892C6.99835 44.0467 6.85035 44.204 6.69569 44.364L5.39169 45.696C5.51702 45.6587 5.64102 45.6307 5.76369 45.612C5.88902 45.5907 6.00769 45.58 6.11969 45.58H7.60369Z" fill="white"/>
<rect x="0.5" y="56" width="11" height="11" fill="#FF9300"/>
<rect x="0.5" y="56" width="11" height="11" stroke="#FF9300"/>
<path d="M4.11169 60.328C4.15169 60.0507 4.22902 59.808 4.34369 59.6C4.45835 59.3893 4.60102 59.2147 4.77169 59.076C4.94502 58.9347 5.14235 58.8293 5.36369 58.76C5.58769 58.688 5.82769 58.652 6.08369 58.652C6.35035 58.652 6.59035 58.6907 6.80369 58.768C7.01969 58.8427 7.20369 58.948 7.35569 59.084C7.50769 59.2173 7.62369 59.3747 7.70369 59.556C7.78635 59.7373 7.82769 59.9333 7.82769 60.144C7.82769 60.328 7.80635 60.4907 7.76369 60.632C7.72369 60.7707 7.66502 60.892 7.58769 60.996C7.51035 61.1 7.41435 61.188 7.29969 61.26C7.18502 61.332 7.05569 61.392 6.91169 61.44C7.25835 61.5493 7.51702 61.716 7.68769 61.94C7.85835 62.164 7.94369 62.4453 7.94369 62.784C7.94369 63.072 7.89035 63.3267 7.78369 63.548C7.67702 63.7693 7.53302 63.956 7.35169 64.108C7.17035 64.2573 6.95969 64.3707 6.71969 64.448C6.48235 64.5253 6.23035 64.564 5.96369 64.564C5.67302 64.564 5.41969 64.5307 5.20369 64.464C4.98769 64.3973 4.79969 64.2987 4.63969 64.168C4.47969 64.0373 4.34369 63.8773 4.23169 63.688C4.11969 63.4987 4.02369 63.28 3.94369 63.032L4.37969 62.852C4.49435 62.804 4.60102 62.792 4.69969 62.816C4.80102 62.8373 4.87435 62.8907 4.91969 62.976C4.96769 63.0693 5.01969 63.1613 5.07569 63.252C5.13435 63.3427 5.20369 63.424 5.28369 63.496C5.36369 63.5653 5.45702 63.6227 5.56369 63.668C5.67302 63.7107 5.80235 63.732 5.95169 63.732C6.11969 63.732 6.26635 63.7053 6.39169 63.652C6.51702 63.596 6.62102 63.524 6.70369 63.436C6.78902 63.348 6.85169 63.2507 6.89169 63.144C6.93435 63.0347 6.95569 62.9253 6.95569 62.816C6.95569 62.6773 6.94102 62.552 6.91169 62.44C6.88235 62.3253 6.82102 62.228 6.72769 62.148C6.63435 62.068 6.49969 62.0053 6.32369 61.96C6.15035 61.9147 5.91702 61.892 5.62369 61.892V61.188C5.86635 61.1853 6.06769 61.1627 6.22769 61.12C6.38769 61.0773 6.51435 61.0187 6.60769 60.944C6.70369 60.8667 6.77035 60.7747 6.80769 60.668C6.84502 60.5613 6.86369 60.444 6.86369 60.316C6.86369 60.044 6.78769 59.8373 6.63569 59.696C6.48369 59.5547 6.28102 59.484 6.02769 59.484C5.91035 59.484 5.80235 59.5013 5.70369 59.536C5.60502 59.568 5.51569 59.6147 5.43569 59.676C5.35835 59.7347 5.29302 59.804 5.23969 59.884C5.18635 59.964 5.14635 60.052 5.11969 60.148C5.07435 60.2707 5.01435 60.352 4.93969 60.392C4.86769 60.432 4.76502 60.4413 4.63169 60.42L4.11169 60.328Z" fill="white"/>
<rect x="0.5" y="74" width="11" height="11" fill="#FF9300"/>
<rect x="0.5" y="74" width="11" height="11" stroke="#FF9300"/>
<path d="M6.52769 80.32V78.428C6.52769 78.2493 6.53969 78.052 6.56369 77.836L4.76769 80.32H6.52769ZM8.11569 80.32V80.892C8.11569 80.9453 8.09835 80.992 8.06369 81.032C8.02902 81.0693 7.97969 81.088 7.91569 81.088H7.38769V82.5H6.52769V81.088H4.08769C4.02102 81.088 3.96235 81.068 3.91169 81.028C3.86102 80.9853 3.82902 80.9333 3.81569 80.872L3.71169 80.372L6.45169 76.712H7.38769V80.32H8.11569Z" fill="white"/>
<rect x="0.5" y="92" width="11" height="11" fill="#FF9300"/>
<rect x="0.5" y="92" width="11" height="11" stroke="#FF9300"/>
<path d="M5.30369 96.816C5.43169 96.7893 5.55435 96.7707 5.67169 96.76C5.78902 96.7467 5.90235 96.74 6.01169 96.74C6.31569 96.74 6.58369 96.7853 6.81569 96.876C7.04769 96.9667 7.24235 97.092 7.39969 97.252C7.55702 97.412 7.67569 97.6 7.75569 97.816C7.83569 98.0293 7.87569 98.26 7.87569 98.508C7.87569 98.8147 7.82102 99.0947 7.71169 99.348C7.60502 99.6013 7.45569 99.8187 7.26369 100C7.07169 100.179 6.84369 100.317 6.57969 100.416C6.31835 100.515 6.03302 100.564 5.72369 100.564C5.54235 100.564 5.37035 100.545 5.20769 100.508C5.04502 100.471 4.89169 100.421 4.74769 100.36C4.60635 100.296 4.47435 100.224 4.35169 100.144C4.23169 100.061 4.12369 99.9747 4.02769 99.884L4.33169 99.464C4.39569 99.3733 4.47969 99.328 4.58369 99.328C4.65035 99.328 4.71835 99.3493 4.78769 99.392C4.85702 99.4347 4.93569 99.4813 5.02369 99.532C5.11435 99.5827 5.21969 99.6293 5.33969 99.672C5.46235 99.7147 5.60902 99.736 5.77969 99.736C5.96102 99.736 6.12102 99.7067 6.25969 99.648C6.39835 99.5893 6.51302 99.508 6.60369 99.404C6.69702 99.2973 6.76635 99.172 6.81169 99.028C6.85969 98.8813 6.88369 98.7227 6.88369 98.552C6.88369 98.2373 6.79169 97.992 6.60769 97.816C6.42635 97.6373 6.15702 97.548 5.79969 97.548C5.52502 97.548 5.24369 97.5987 4.95569 97.7L4.33969 97.524L4.81969 94.716H7.67569V95.136C7.67569 95.2773 7.63169 95.392 7.54369 95.48C7.45569 95.568 7.30635 95.612 7.09569 95.612H5.50769L5.30369 96.816Z" fill="white"/>
<rect x="0.5" y="110" width="11" height="11" fill="#FF9300"/>
<rect x="0.5" y="110" width="11" height="11" stroke="#FF9300"/>
<path d="M5.76769 114.816L5.56769 115.064C5.67969 115.008 5.79969 114.965 5.92769 114.936C6.05835 114.904 6.19835 114.888 6.34769 114.888C6.56635 114.888 6.77835 114.924 6.98369 114.996C7.19169 115.068 7.37435 115.177 7.53169 115.324C7.68902 115.468 7.81569 115.648 7.91169 115.864C8.00769 116.08 8.05569 116.332 8.05569 116.62C8.05569 116.889 8.00635 117.143 7.90769 117.38C7.80902 117.615 7.67035 117.82 7.49169 117.996C7.31302 118.172 7.09702 118.311 6.84369 118.412C6.59302 118.513 6.31569 118.564 6.01169 118.564C5.70235 118.564 5.42502 118.515 5.17969 118.416C4.93435 118.317 4.72502 118.18 4.55169 118.004C4.37835 117.825 4.24502 117.612 4.15169 117.364C4.06102 117.113 4.01569 116.836 4.01569 116.532C4.01569 116.26 4.07035 115.981 4.17969 115.696C4.29169 115.408 4.46369 115.109 4.69569 114.8L6.07569 112.948C6.12369 112.884 6.19302 112.829 6.28369 112.784C6.37702 112.739 6.48369 112.716 6.60369 112.716H7.48369L5.76769 114.816ZM5.99169 117.756C6.14902 117.756 6.29302 117.729 6.42369 117.676C6.55702 117.623 6.67035 117.548 6.76369 117.452C6.85969 117.356 6.93435 117.244 6.98769 117.116C7.04102 116.985 7.06769 116.844 7.06769 116.692C7.06769 116.527 7.04235 116.379 6.99169 116.248C6.94102 116.115 6.86902 116.003 6.77569 115.912C6.68235 115.819 6.57035 115.748 6.43969 115.7C6.30902 115.652 6.16502 115.628 6.00769 115.628C5.85035 115.628 5.70769 115.655 5.57969 115.708C5.45169 115.761 5.34235 115.836 5.25169 115.932C5.16102 116.025 5.09035 116.137 5.03969 116.268C4.98902 116.396 4.96369 116.535 4.96369 116.684C4.96369 116.844 4.98502 116.991 5.02769 117.124C5.07302 117.255 5.13835 117.367 5.22369 117.46C5.31169 117.553 5.41969 117.627 5.54769 117.68C5.67569 117.731 5.82369 117.756 5.99169 117.756Z" fill="white"/>
<rect x="0.5" y="128" width="11" height="11" fill="#FF9300"/>
<rect x="0.5" y="128" width="11" height="11" stroke="#FF9300"/>
<path d="M8.04769 130.716V131.144C8.04769 131.272 8.03435 131.376 8.00769 131.456C7.98102 131.533 7.95435 131.599 7.92769 131.652L5.73569 136.164C5.69035 136.257 5.62635 136.337 5.54369 136.404C5.46102 136.468 5.35035 136.5 5.21169 136.5H4.49569L6.73169 132.08C6.78235 131.989 6.83169 131.907 6.87969 131.832C6.93035 131.755 6.98635 131.681 7.04769 131.612H4.27969C4.21835 131.612 4.16502 131.589 4.11969 131.544C4.07435 131.499 4.05169 131.445 4.05169 131.384V130.716H8.04769Z" fill="white"/>
<rect x="0.5" y="146" width="11" height="11" fill="#FF9300"/>
<rect x="0.5" y="146" width="11" height="11" stroke="#FF9300"/>
<path d="M5.99969 153.792C6.16235 153.792 6.30502 153.769 6.42769 153.724C6.55035 153.676 6.65302 153.611 6.73569 153.528C6.82102 153.445 6.88502 153.347 6.92769 153.232C6.97035 153.117 6.99169 152.993 6.99169 152.86C6.99169 152.543 6.90369 152.303 6.72769 152.14C6.55169 151.977 6.30902 151.896 5.99969 151.896C5.69035 151.896 5.44769 151.977 5.27169 152.14C5.09569 152.303 5.00769 152.543 5.00769 152.86C5.00769 152.993 5.02902 153.117 5.07169 153.232C5.11435 153.347 5.17702 153.445 5.25969 153.528C5.34502 153.611 5.44902 153.676 5.57169 153.724C5.69435 153.769 5.83702 153.792 5.99969 153.792ZM5.99969 149.396C5.85302 149.396 5.72635 149.419 5.61969 149.464C5.51302 149.509 5.42369 149.571 5.35169 149.648C5.28235 149.723 5.23035 149.809 5.19569 149.908C5.16369 150.007 5.14769 150.111 5.14769 150.22C5.14769 150.335 5.16102 150.447 5.18769 150.556C5.21702 150.663 5.26502 150.759 5.33169 150.844C5.39835 150.927 5.48635 150.993 5.59569 151.044C5.70502 151.095 5.83969 151.12 5.99969 151.12C6.15969 151.12 6.29435 151.095 6.40369 151.044C6.51302 150.993 6.60102 150.927 6.66769 150.844C6.73435 150.759 6.78102 150.663 6.80769 150.556C6.83702 150.447 6.85169 150.335 6.85169 150.22C6.85169 150.111 6.83435 150.007 6.79969 149.908C6.76502 149.809 6.71302 149.723 6.64369 149.648C6.57435 149.571 6.48635 149.509 6.37969 149.464C6.27302 149.419 6.14635 149.396 5.99969 149.396ZM6.97569 151.484C7.32769 151.599 7.58769 151.775 7.75569 152.012C7.92369 152.247 8.00769 152.535 8.00769 152.876C8.00769 153.132 7.95835 153.364 7.85969 153.572C7.76369 153.78 7.62769 153.957 7.45169 154.104C7.27569 154.251 7.06369 154.364 6.81569 154.444C6.57035 154.524 6.29835 154.564 5.99969 154.564C5.70102 154.564 5.42769 154.524 5.17969 154.444C4.93435 154.364 4.72369 154.251 4.54769 154.104C4.37169 153.957 4.23435 153.78 4.13569 153.572C4.03969 153.364 3.99169 153.132 3.99169 152.876C3.99169 152.535 4.07569 152.247 4.24369 152.012C4.41169 151.775 4.67169 151.599 5.02369 151.484C4.74369 151.367 4.53302 151.2 4.39169 150.984C4.25302 150.768 4.18369 150.508 4.18369 150.204C4.18369 149.985 4.22769 149.781 4.31569 149.592C4.40635 149.403 4.53169 149.239 4.69169 149.1C4.85169 148.959 5.04235 148.849 5.26369 148.772C5.48769 148.692 5.73302 148.652 5.99969 148.652C6.26635 148.652 6.51035 148.692 6.73169 148.772C6.95569 148.849 7.14769 148.959 7.30769 149.1C7.46769 149.239 7.59169 149.403 7.67969 149.592C7.77035 149.781 7.81569 149.985 7.81569 150.204C7.81569 150.508 7.74502 150.768 7.60369 150.984C7.46502 151.2 7.25569 151.367 6.97569 151.484Z" fill="white"/>
<rect x="0.5" y="164" width="11" height="11" fill="#FF9300"/>
<rect x="0.5" y="164" width="11" height="11" stroke="#FF9300"/>
<path d="M4.99969 168.452C4.99969 168.775 5.08235 169.021 5.24769 169.192C5.41569 169.36 5.65302 169.444 5.95969 169.444C6.11969 169.444 6.26235 169.419 6.38769 169.368C6.51302 169.317 6.61835 169.248 6.70369 169.16C6.78902 169.072 6.85302 168.968 6.89569 168.848C6.94102 168.728 6.96369 168.599 6.96369 168.46C6.96369 168.303 6.93969 168.163 6.89169 168.04C6.84369 167.915 6.77569 167.809 6.68769 167.724C6.59969 167.639 6.49435 167.573 6.37169 167.528C6.25169 167.483 6.11969 167.46 5.97569 167.46C5.82635 167.46 5.69169 167.485 5.57169 167.536C5.45169 167.584 5.34902 167.652 5.26369 167.74C5.17835 167.828 5.11302 167.933 5.06769 168.056C5.02235 168.176 4.99969 168.308 4.99969 168.452ZM6.31169 170.256C6.35702 170.2 6.39969 170.145 6.43969 170.092C6.47969 170.039 6.51835 169.985 6.55569 169.932C6.42235 170.017 6.27569 170.083 6.11569 170.128C5.95569 170.171 5.78769 170.192 5.61169 170.192C5.41169 170.192 5.21569 170.157 5.02369 170.088C4.83169 170.019 4.66102 169.915 4.51169 169.776C4.36235 169.635 4.24102 169.461 4.14769 169.256C4.05702 169.048 4.01169 168.805 4.01169 168.528C4.01169 168.269 4.05969 168.027 4.15569 167.8C4.25169 167.573 4.38635 167.375 4.55969 167.204C4.73302 167.033 4.94102 166.899 5.18369 166.8C5.42635 166.701 5.69435 166.652 5.98769 166.652C6.28369 166.652 6.54902 166.699 6.78369 166.792C7.02102 166.885 7.22235 167.016 7.38769 167.184C7.55569 167.352 7.68369 167.553 7.77169 167.788C7.86235 168.023 7.90769 168.28 7.90769 168.56C7.90769 168.739 7.89169 168.908 7.85969 169.068C7.83035 169.228 7.78769 169.383 7.73169 169.532C7.67569 169.679 7.60769 169.823 7.52769 169.964C7.44769 170.105 7.35835 170.245 7.25969 170.384L5.93569 172.272C5.89035 172.336 5.82235 172.391 5.73169 172.436C5.64102 172.479 5.53835 172.5 5.42369 172.5H4.51569L6.31169 170.256Z" fill="white"/>
<rect x="0.5" y="182" width="11" height="11" fill="#FF9300"/>
<rect x="0.5" y="182" width="11" height="11" stroke="#FF9300"/>
<path d="M5.55938 189.76V190.5H2.35938V189.76H3.53137V186.388C3.53137 186.255 3.53537 186.117 3.54338 185.976L2.71137 186.672C2.66337 186.709 2.61537 186.733 2.56737 186.744C2.52204 186.752 2.47804 186.752 2.43537 186.744C2.39537 186.736 2.35937 186.723 2.32737 186.704C2.29537 186.683 2.27137 186.66 2.25537 186.636L1.94337 186.208L3.70738 184.708H4.51938V189.76H5.55938ZM10.38 187.608C10.38 188.112 10.3253 188.551 10.216 188.924C10.1093 189.295 9.96 189.601 9.768 189.844C9.57867 190.087 9.35333 190.268 9.092 190.388C8.83333 190.505 8.55333 190.564 8.252 190.564C7.95067 190.564 7.67067 190.505 7.412 190.388C7.156 190.268 6.93333 190.087 6.744 189.844C6.55467 189.601 6.40667 189.295 6.3 188.924C6.19333 188.551 6.14 188.112 6.14 187.608C6.14 187.101 6.19333 186.663 6.3 186.292C6.40667 185.921 6.55467 185.615 6.744 185.372C6.93333 185.129 7.156 184.949 7.412 184.832C7.67067 184.712 7.95067 184.652 8.252 184.652C8.55333 184.652 8.83333 184.712 9.092 184.832C9.35333 184.949 9.57867 185.129 9.768 185.372C9.96 185.615 10.1093 185.921 10.216 186.292C10.3253 186.663 10.38 187.101 10.38 187.608ZM9.36 187.608C9.36 187.189 9.32933 186.843 9.268 186.568C9.20667 186.293 9.124 186.075 9.02 185.912C8.91867 185.749 8.80133 185.636 8.668 185.572C8.53467 185.505 8.396 185.472 8.252 185.472C8.11067 185.472 7.97333 185.505 7.84 185.572C7.70933 185.636 7.59333 185.749 7.492 185.912C7.39067 186.075 7.30933 186.293 7.248 186.568C7.18933 186.843 7.16 187.189 7.16 187.608C7.16 188.027 7.18933 188.373 7.248 188.648C7.30933 188.923 7.39067 189.141 7.492 189.304C7.59333 189.467 7.70933 189.581 7.84 189.648C7.97333 189.712 8.11067 189.744 8.252 189.744C8.396 189.744 8.53467 189.712 8.668 189.648C8.80133 189.581 8.91867 189.467 9.02 189.304C9.124 189.141 9.20667 188.923 9.268 188.648C9.32933 188.373 9.36 188.027 9.36 187.608Z" fill="white"/>
<rect x="0.5" y="200" width="11" height="11" fill="#FF9300"/>
<rect x="0.5" y="200" width="11" height="11" stroke="#FF9300"/>
<path d="M5.55938 207.76V208.5H2.35938V207.76H3.53137V204.388C3.53137 204.255 3.53537 204.117 3.54338 203.976L2.71137 204.672C2.66337 204.709 2.61537 204.733 2.56737 204.744C2.52204 204.752 2.47804 204.752 2.43537 204.744C2.39537 204.736 2.35937 204.723 2.32737 204.704C2.29537 204.683 2.27137 204.66 2.25537 204.636L1.94337 204.208L3.70738 202.708H4.51938V207.76H5.55938ZM10.08 207.76V208.5H6.88V207.76H8.052V204.388C8.052 204.255 8.056 204.117 8.064 203.976L7.232 204.672C7.184 204.709 7.136 204.733 7.088 204.744C7.04267 204.752 6.99867 204.752 6.956 204.744C6.916 204.736 6.88 204.723 6.848 204.704C6.816 204.683 6.792 204.66 6.776 204.636L6.464 204.208L8.228 202.708H9.04V207.76H10.08Z" fill="white"/>
<rect x="0.5" y="218" width="11" height="11" fill="#FF9300"/>
<rect x="0.5" y="218" width="11" height="11" stroke="#FF9300"/>
<path d="M5.55938 225.76V226.5H2.35938V225.76H3.53137V222.388C3.53137 222.255 3.53537 222.117 3.54338 221.976L2.71137 222.672C2.66337 222.709 2.61537 222.733 2.56737 222.744C2.52204 222.752 2.47804 222.752 2.43537 222.744C2.39537 222.736 2.35937 222.723 2.32737 222.704C2.29537 222.683 2.27137 222.66 2.25537 222.636L1.94337 222.208L3.70738 220.708H4.51938V225.76H5.55938ZM9.864 225.58C9.97067 225.58 10.0547 225.611 10.116 225.672C10.18 225.731 10.212 225.809 10.212 225.908V226.5H6.244V226.172C6.244 226.105 6.25733 226.036 6.284 225.964C6.31333 225.889 6.35867 225.823 6.42 225.764L8.176 224.004C8.32267 223.855 8.45333 223.712 8.568 223.576C8.68533 223.44 8.78267 223.305 8.86 223.172C8.93733 223.039 8.996 222.904 9.036 222.768C9.07867 222.629 9.1 222.484 9.1 222.332C9.1 222.193 9.08 222.072 9.04 221.968C9 221.861 8.94267 221.772 8.868 221.7C8.796 221.628 8.708 221.575 8.604 221.54C8.50267 221.503 8.388 221.484 8.26 221.484C8.14267 221.484 8.03333 221.501 7.932 221.536C7.83333 221.568 7.74533 221.615 7.668 221.676C7.59067 221.735 7.52533 221.804 7.472 221.884C7.41867 221.964 7.37867 222.052 7.352 222.148C7.30667 222.271 7.248 222.352 7.176 222.392C7.104 222.432 7 222.441 6.864 222.42L6.344 222.328C6.384 222.051 6.46133 221.808 6.576 221.6C6.69067 221.389 6.83333 221.215 7.004 221.076C7.17733 220.935 7.37467 220.829 7.596 220.76C7.82 220.688 8.06 220.652 8.316 220.652C8.58267 220.652 8.82667 220.692 9.048 220.772C9.26933 220.849 9.45867 220.96 9.616 221.104C9.77333 221.248 9.896 221.421 9.984 221.624C10.072 221.827 10.116 222.052 10.116 222.3C10.116 222.513 10.084 222.711 10.02 222.892C9.95867 223.073 9.87467 223.247 9.768 223.412C9.664 223.577 9.54133 223.737 9.4 223.892C9.25867 224.047 9.11067 224.204 8.956 224.364L7.652 225.696C7.77733 225.659 7.90133 225.631 8.024 225.612C8.14933 225.591 8.268 225.58 8.38 225.58H9.864Z" fill="white"/>
<rect x="0.5" y="236" width="11" height="11" fill="#FF9300"/>
<rect x="0.5" y="236" width="11" height="11" stroke="#FF9300"/>
<path d="M5.55938 243.76V244.5H2.35938V243.76H3.53137V240.388C3.53137 240.255 3.53537 240.117 3.54338 239.976L2.71137 240.672C2.66337 240.709 2.61537 240.733 2.56737 240.744C2.52204 240.752 2.47804 240.752 2.43537 240.744C2.39537 240.736 2.35937 240.723 2.32737 240.704C2.29537 240.683 2.27137 240.66 2.25537 240.636L1.94337 240.208L3.70738 238.708H4.51938V243.76H5.55938ZM6.372 240.328C6.412 240.051 6.48933 239.808 6.604 239.6C6.71867 239.389 6.86133 239.215 7.032 239.076C7.20533 238.935 7.40267 238.829 7.624 238.76C7.848 238.688 8.088 238.652 8.344 238.652C8.61067 238.652 8.85067 238.691 9.064 238.768C9.28 238.843 9.464 238.948 9.616 239.084C9.768 239.217 9.884 239.375 9.964 239.556C10.0467 239.737 10.088 239.933 10.088 240.144C10.088 240.328 10.0667 240.491 10.024 240.632C9.984 240.771 9.92533 240.892 9.848 240.996C9.77067 241.1 9.67467 241.188 9.56 241.26C9.44533 241.332 9.316 241.392 9.172 241.44C9.51867 241.549 9.77733 241.716 9.948 241.94C10.1187 242.164 10.204 242.445 10.204 242.784C10.204 243.072 10.1507 243.327 10.044 243.548C9.93733 243.769 9.79333 243.956 9.612 244.108C9.43067 244.257 9.22 244.371 8.98 244.448C8.74267 244.525 8.49067 244.564 8.224 244.564C7.93333 244.564 7.68 244.531 7.464 244.464C7.248 244.397 7.06 244.299 6.9 244.168C6.74 244.037 6.604 243.877 6.492 243.688C6.38 243.499 6.284 243.28 6.204 243.032L6.64 242.852C6.75467 242.804 6.86133 242.792 6.96 242.816C7.06133 242.837 7.13467 242.891 7.18 242.976C7.228 243.069 7.28 243.161 7.336 243.252C7.39467 243.343 7.464 243.424 7.544 243.496C7.624 243.565 7.71733 243.623 7.824 243.668C7.93333 243.711 8.06267 243.732 8.212 243.732C8.38 243.732 8.52667 243.705 8.652 243.652C8.77733 243.596 8.88133 243.524 8.964 243.436C9.04933 243.348 9.112 243.251 9.152 243.144C9.19467 243.035 9.216 242.925 9.216 242.816C9.216 242.677 9.20133 242.552 9.172 242.44C9.14267 242.325 9.08133 242.228 8.988 242.148C8.89467 242.068 8.76 242.005 8.584 241.96C8.41067 241.915 8.17733 241.892 7.884 241.892V241.188C8.12667 241.185 8.328 241.163 8.488 241.12C8.648 241.077 8.77467 241.019 8.868 240.944C8.964 240.867 9.03067 240.775 9.068 240.668C9.10533 240.561 9.124 240.444 9.124 240.316C9.124 240.044 9.048 239.837 8.896 239.696C8.744 239.555 8.54133 239.484 8.288 239.484C8.17067 239.484 8.06267 239.501 7.964 239.536C7.86533 239.568 7.776 239.615 7.696 239.676C7.61867 239.735 7.55333 239.804 7.5 239.884C7.44667 239.964 7.40667 240.052 7.38 240.148C7.33467 240.271 7.27467 240.352 7.2 240.392C7.128 240.432 7.02533 240.441 6.892 240.42L6.372 240.328Z" fill="white"/>
<rect x="0.5" y="254" width="11" height="11" fill="#FF9300"/>
<rect x="0.5" y="254" width="11" height="11" stroke="#FF9300"/>
<path d="M5.55938 261.76V262.5H2.35938V261.76H3.53137V258.388C3.53137 258.255 3.53537 258.117 3.54338 257.976L2.71137 258.672C2.66337 258.709 2.61537 258.733 2.56737 258.744C2.52204 258.752 2.47804 258.752 2.43537 258.744C2.39537 258.736 2.35937 258.723 2.32737 258.704C2.29537 258.683 2.27137 258.66 2.25537 258.636L1.94337 258.208L3.70738 256.708H4.51938V261.76H5.55938ZM8.788 260.32V258.428C8.788 258.249 8.8 258.052 8.824 257.836L7.028 260.32H8.788ZM10.376 260.32V260.892C10.376 260.945 10.3587 260.992 10.324 261.032C10.2893 261.069 10.24 261.088 10.176 261.088H9.648V262.5H8.788V261.088H6.348C6.28133 261.088 6.22267 261.068 6.172 261.028C6.12133 260.985 6.08933 260.933 6.076 260.872L5.972 260.372L8.712 256.712H9.648V260.32H10.376Z" fill="white"/>
<rect x="0.5" y="272" width="11" height="11" fill="#FF9300"/>
<rect x="0.5" y="272" width="11" height="11" stroke="#FF9300"/>
<path d="M5.55938 279.76V280.5H2.35938V279.76H3.53137V276.388C3.53137 276.255 3.53537 276.117 3.54338 275.976L2.71137 276.672C2.66337 276.709 2.61537 276.733 2.56737 276.744C2.52204 276.752 2.47804 276.752 2.43537 276.744C2.39537 276.736 2.35937 276.723 2.32737 276.704C2.29537 276.683 2.27137 276.66 2.25537 276.636L1.94337 276.208L3.70738 274.708H4.51938V279.76H5.55938ZM7.564 276.816C7.692 276.789 7.81467 276.771 7.932 276.76C8.04933 276.747 8.16267 276.74 8.272 276.74C8.576 276.74 8.844 276.785 9.076 276.876C9.308 276.967 9.50267 277.092 9.66 277.252C9.81733 277.412 9.936 277.6 10.016 277.816C10.096 278.029 10.136 278.26 10.136 278.508C10.136 278.815 10.0813 279.095 9.972 279.348C9.86533 279.601 9.716 279.819 9.524 280C9.332 280.179 9.104 280.317 8.84 280.416C8.57867 280.515 8.29333 280.564 7.984 280.564C7.80267 280.564 7.63067 280.545 7.468 280.508C7.30533 280.471 7.152 280.421 7.008 280.36C6.86667 280.296 6.73467 280.224 6.612 280.144C6.492 280.061 6.384 279.975 6.288 279.884L6.592 279.464C6.656 279.373 6.74 279.328 6.844 279.328C6.91067 279.328 6.97867 279.349 7.048 279.392C7.11733 279.435 7.196 279.481 7.284 279.532C7.37467 279.583 7.48 279.629 7.6 279.672C7.72267 279.715 7.86933 279.736 8.04 279.736C8.22133 279.736 8.38133 279.707 8.52 279.648C8.65867 279.589 8.77333 279.508 8.864 279.404C8.95733 279.297 9.02667 279.172 9.072 279.028C9.12 278.881 9.144 278.723 9.144 278.552C9.144 278.237 9.052 277.992 8.868 277.816C8.68667 277.637 8.41733 277.548 8.06 277.548C7.78533 277.548 7.504 277.599 7.216 277.7L6.6 277.524L7.08 274.716H9.936V275.136C9.936 275.277 9.892 275.392 9.804 275.48C9.716 275.568 9.56667 275.612 9.356 275.612H7.768L7.564 276.816Z" fill="white"/>
<rect x="0.5" y="290" width="11" height="11" fill="#FF9300"/>
<rect x="0.5" y="290" width="11" height="11" stroke="#FF9300"/>
<path d="M5.55938 297.76V298.5H2.35938V297.76H3.53137V294.388C3.53137 294.255 3.53537 294.117 3.54338 293.976L2.71137 294.672C2.66337 294.709 2.61537 294.733 2.56737 294.744C2.52204 294.752 2.47804 294.752 2.43537 294.744C2.39537 294.736 2.35937 294.723 2.32737 294.704C2.29537 294.683 2.27137 294.66 2.25537 294.636L1.94337 294.208L3.70738 292.708H4.51938V297.76H5.55938ZM8.028 294.816L7.828 295.064C7.94 295.008 8.06 294.965 8.188 294.936C8.31867 294.904 8.45867 294.888 8.608 294.888C8.82667 294.888 9.03867 294.924 9.244 294.996C9.452 295.068 9.63467 295.177 9.792 295.324C9.94933 295.468 10.076 295.648 10.172 295.864C10.268 296.08 10.316 296.332 10.316 296.62C10.316 296.889 10.2667 297.143 10.168 297.38C10.0693 297.615 9.93067 297.82 9.752 297.996C9.57333 298.172 9.35733 298.311 9.104 298.412C8.85333 298.513 8.576 298.564 8.272 298.564C7.96267 298.564 7.68533 298.515 7.44 298.416C7.19467 298.317 6.98533 298.18 6.812 298.004C6.63867 297.825 6.50533 297.612 6.412 297.364C6.32133 297.113 6.276 296.836 6.276 296.532C6.276 296.26 6.33067 295.981 6.44 295.696C6.552 295.408 6.724 295.109 6.956 294.8L8.336 292.948C8.384 292.884 8.45333 292.829 8.544 292.784C8.63733 292.739 8.744 292.716 8.864 292.716H9.744L8.028 294.816ZM8.252 297.756C8.40933 297.756 8.55333 297.729 8.684 297.676C8.81733 297.623 8.93067 297.548 9.024 297.452C9.12 297.356 9.19467 297.244 9.248 297.116C9.30133 296.985 9.328 296.844 9.328 296.692C9.328 296.527 9.30267 296.379 9.252 296.248C9.20133 296.115 9.12933 296.003 9.036 295.912C8.94267 295.819 8.83067 295.748 8.7 295.7C8.56933 295.652 8.42533 295.628 8.268 295.628C8.11067 295.628 7.968 295.655 7.84 295.708C7.712 295.761 7.60267 295.836 7.512 295.932C7.42133 296.025 7.35067 296.137 7.3 296.268C7.24933 296.396 7.224 296.535 7.224 296.684C7.224 296.844 7.24533 296.991 7.288 297.124C7.33333 297.255 7.39867 297.367 7.484 297.46C7.572 297.553 7.68 297.627 7.808 297.68C7.936 297.731 8.084 297.756 8.252 297.756Z" fill="white"/>
</svg>
