<svg width="28" height="306" viewBox="0 0 28 306" fill="none" xmlns="http://www.w3.org/2000/svg">
<path d="M2 4C2 2.89543 2.89543 2 4 2H24C25.1046 2 26 2.89543 26 4V9H2V4Z" fill="#F1BB72"/>
<path d="M2 4C2 2.89543 2.89543 2 4 2H24C25.1046 2 26 2.89543 26 4V9H2V4Z" stroke="#F1BB72"/>
<path d="M12.7035 5.9695C12.7035 6.3405 12.6417 6.68467 12.518 7.002C12.3967 7.317 12.224 7.59 12 7.821C11.776 8.052 11.5065 8.23283 11.1915 8.3635C10.8765 8.49183 10.5265 8.556 10.1415 8.556C9.75883 8.556 9.41 8.49183 9.095 8.3635C8.78 8.23283 8.50933 8.052 8.283 7.821C8.059 7.59 7.88516 7.317 7.7615 7.002C7.63783 6.68467 7.576 6.3405 7.576 5.9695C7.576 5.5985 7.63783 5.2555 7.7615 4.9405C7.88516 4.62317 8.059 4.349 8.283 4.118C8.50933 3.887 8.78 3.70733 9.095 3.579C9.41 3.44833 9.75883 3.383 10.1415 3.383C10.3982 3.383 10.6397 3.41333 10.866 3.474C11.0923 3.53233 11.3 3.61633 11.489 3.726C11.678 3.83333 11.8472 3.96517 11.9965 4.1215C12.1482 4.2755 12.2765 4.44817 12.3815 4.6395C12.4865 4.83083 12.5658 5.0385 12.6195 5.2625C12.6755 5.4865 12.7035 5.72217 12.7035 5.9695ZM11.741 5.9695C11.741 5.69183 11.7037 5.44333 11.629 5.224C11.5543 5.00233 11.4482 4.8145 11.3105 4.6605C11.1728 4.5065 11.0048 4.38867 10.8065 4.307C10.6105 4.22533 10.3888 4.1845 10.1415 4.1845C9.89416 4.1845 9.67133 4.22533 9.473 4.307C9.277 4.38867 9.109 4.5065 8.969 4.6605C8.83133 4.8145 8.72516 5.00233 8.6505 5.224C8.57583 5.44333 8.5385 5.69183 8.5385 5.9695C8.5385 6.24717 8.57583 6.49683 8.6505 6.7185C8.72516 6.93783 8.83133 7.1245 8.969 7.2785C9.109 7.43017 9.277 7.54683 9.473 7.6285C9.67133 7.71017 9.89416 7.751 10.1415 7.751C10.3888 7.751 10.6105 7.71017 10.8065 7.6285C11.0048 7.54683 11.1728 7.43017 11.3105 7.2785C11.4482 7.1245 11.5543 6.93783 11.629 6.7185C11.7037 6.49683 11.741 6.24717 11.741 5.9695ZM14.3703 4.188V5.686H16.2673V6.4385H14.3703V8.5H13.4253V3.439H16.6173V4.188H14.3703ZM18.2302 4.188V5.686H20.1272V6.4385H18.2302V8.5H17.2852V3.439H20.4772V4.188H18.2302Z" fill="black"/>
<rect x="2" y="61" width="24" height="7" fill="#F1BB72"/>
<rect x="2" y="61" width="24" height="7" stroke="#F1BB72"/>
<path d="M8.58739 63.3595C8.55939 63.4085 8.52905 63.4447 8.49639 63.468C8.46605 63.489 8.42755 63.4995 8.38089 63.4995C8.33189 63.4995 8.27822 63.482 8.21989 63.447C8.16389 63.4097 8.09622 63.3688 8.01689 63.3245C7.93755 63.2802 7.84422 63.2405 7.73689 63.2055C7.63189 63.1682 7.50705 63.1495 7.36239 63.1495C7.23172 63.1495 7.11739 63.1658 7.01939 63.1985C6.92139 63.2288 6.83855 63.272 6.77089 63.328C6.70555 63.384 6.65655 63.4517 6.62389 63.531C6.59122 63.608 6.57489 63.6932 6.57489 63.7865C6.57489 63.9055 6.60755 64.0047 6.67289 64.084C6.74055 64.1633 6.82922 64.231 6.93889 64.287C7.04855 64.343 7.17339 64.3932 7.31339 64.4375C7.45339 64.4818 7.59689 64.5297 7.74389 64.581C7.89089 64.63 8.03439 64.6883 8.17439 64.756C8.31439 64.8213 8.43922 64.9053 8.54889 65.008C8.65855 65.1083 8.74605 65.232 8.81139 65.379C8.87905 65.526 8.91289 65.7045 8.91289 65.9145C8.91289 66.1432 8.87322 66.3578 8.79389 66.5585C8.71689 66.7568 8.60255 66.9307 8.45089 67.08C8.30155 67.227 8.11839 67.3437 7.90139 67.43C7.68439 67.514 7.43589 67.556 7.15589 67.556C6.99489 67.556 6.83622 67.5397 6.67989 67.507C6.52355 67.4767 6.37305 67.4323 6.22839 67.374C6.08605 67.3157 5.95189 67.2457 5.82589 67.164C5.69989 67.0823 5.58789 66.9913 5.48989 66.891L5.76639 66.4395C5.78972 66.4068 5.82005 66.38 5.85739 66.359C5.89472 66.3357 5.93439 66.324 5.97639 66.324C6.03472 66.324 6.09772 66.3485 6.16539 66.3975C6.23305 66.4442 6.31355 66.4967 6.40689 66.555C6.50022 66.6133 6.60872 66.667 6.73239 66.716C6.85839 66.7627 7.00889 66.786 7.18389 66.786C7.45222 66.786 7.65989 66.723 7.80689 66.597C7.95389 66.4687 8.02739 66.2855 8.02739 66.0475C8.02739 65.9145 7.99355 65.806 7.92589 65.722C7.86055 65.638 7.77305 65.568 7.66339 65.512C7.55372 65.4537 7.42889 65.4047 7.28889 65.365C7.14889 65.3253 7.00655 65.2822 6.86189 65.2355C6.71722 65.1888 6.57489 65.1328 6.43489 65.0675C6.29489 65.0022 6.17005 64.917 6.06039 64.812C5.95072 64.707 5.86205 64.5763 5.79439 64.42C5.72905 64.2613 5.69639 64.0665 5.69639 63.8355C5.69639 63.6512 5.73255 63.4715 5.80489 63.2965C5.87955 63.1215 5.98689 62.9663 6.12689 62.831C6.26689 62.6957 6.43955 62.5872 6.64489 62.5055C6.85022 62.4238 7.08589 62.383 7.35189 62.383C7.65055 62.383 7.92589 62.4297 8.17789 62.523C8.42989 62.6163 8.64455 62.747 8.82189 62.915L8.58739 63.3595ZM14.4557 64.9695C14.4557 65.3405 14.3939 65.6847 14.2702 66.002C14.1489 66.317 13.9762 66.59 13.7522 66.821C13.5282 67.052 13.2587 67.2328 12.9437 67.3635C12.6287 67.4918 12.2787 67.556 11.8937 67.556C11.511 67.556 11.1622 67.4918 10.8472 67.3635C10.5322 67.2328 10.2615 67.052 10.0352 66.821C9.81118 66.59 9.63735 66.317 9.51368 66.002C9.39002 65.6847 9.32818 65.3405 9.32818 64.9695C9.32818 64.5985 9.39002 64.2555 9.51368 63.9405C9.63735 63.6232 9.81118 63.349 10.0352 63.118C10.2615 62.887 10.5322 62.7073 10.8472 62.579C11.1622 62.4483 11.511 62.383 11.8937 62.383C12.1504 62.383 12.3919 62.4133 12.6182 62.474C12.8445 62.5323 13.0522 62.6163 13.2412 62.726C13.4302 62.8333 13.5994 62.9652 13.7487 63.1215C13.9004 63.2755 14.0287 63.4482 14.1337 63.6395C14.2387 63.8308 14.318 64.0385 14.3717 64.2625C14.4277 64.4865 14.4557 64.7222 14.4557 64.9695ZM13.4932 64.9695C13.4932 64.6918 13.4559 64.4433 13.3812 64.224C13.3065 64.0023 13.2004 63.8145 13.0627 63.6605C12.925 63.5065 12.757 63.3887 12.5587 63.307C12.3627 63.2253 12.141 63.1845 11.8937 63.1845C11.6464 63.1845 11.4235 63.2253 11.2252 63.307C11.0292 63.3887 10.8612 63.5065 10.7212 63.6605C10.5835 63.8145 10.4774 64.0023 10.4027 64.224C10.328 64.4433 10.2907 64.6918 10.2907 64.9695C10.2907 65.2472 10.328 65.4968 10.4027 65.7185C10.4774 65.9378 10.5835 66.1245 10.7212 66.2785C10.8612 66.4302 11.0292 66.5468 11.2252 66.6285C11.4235 66.7102 11.6464 66.751 11.8937 66.751C12.141 66.751 12.3627 66.7102 12.5587 66.6285C12.757 66.5468 12.925 66.4302 13.0627 66.2785C13.2004 66.1245 13.3065 65.9378 13.3812 65.7185C13.4559 65.4968 13.4932 65.2472 13.4932 64.9695ZM16.1225 63.188V64.686H18.0195V65.4385H16.1225V67.5H15.1775V62.439H18.3695V63.188H16.1225ZM22.5723 63.2125H21.0463V67.5H20.1048V63.2125H18.5788V62.439H22.5723V63.2125Z" fill="black"/>
<rect x="2" y="120" width="24" height="7" fill="#F1BB72"/>
<rect x="2" y="120" width="24" height="7" stroke="#F1BB72"/>
<path d="M8.94893 121.439V126.5H8.00393V124.288H5.62743V126.5H4.68243V121.439H5.62743V123.616H8.00393V121.439H8.94893ZM12.645 124.589L12.029 122.905C11.9986 122.831 11.9671 122.742 11.9345 122.639C11.9018 122.537 11.8691 122.426 11.8365 122.307C11.8061 122.426 11.7746 122.538 11.742 122.643C11.7093 122.746 11.6778 122.835 11.6475 122.912L11.035 124.589H12.645ZM14.3075 126.5H13.5795C13.4978 126.5 13.4313 126.48 13.38 126.44C13.3286 126.398 13.2901 126.347 13.2645 126.286L12.8865 125.254H10.79L10.412 126.286C10.3933 126.34 10.3571 126.389 10.3035 126.433C10.2498 126.478 10.1833 126.5 10.104 126.5H9.36898L11.3605 121.439H12.3195L14.3075 126.5ZM16.2558 123.847C16.4332 123.847 16.5872 123.825 16.7178 123.78C16.8508 123.736 16.9593 123.675 17.0433 123.598C17.1297 123.519 17.1938 123.426 17.2358 123.318C17.2778 123.211 17.2988 123.093 17.2988 122.965C17.2988 122.708 17.2137 122.511 17.0433 122.373C16.8753 122.236 16.6175 122.167 16.2698 122.167H15.6678V123.847H16.2558ZM18.6778 126.5H17.8273C17.6663 126.5 17.5497 126.437 17.4773 126.311L16.4133 124.69C16.3737 124.63 16.3293 124.587 16.2803 124.561C16.2337 124.535 16.1637 124.523 16.0703 124.523H15.6678V126.5H14.7263V121.439H16.2698C16.6128 121.439 16.9068 121.475 17.1518 121.547C17.3992 121.617 17.601 121.717 17.7573 121.845C17.916 121.973 18.0327 122.127 18.1073 122.307C18.182 122.484 18.2193 122.68 18.2193 122.895C18.2193 123.065 18.1937 123.226 18.1423 123.378C18.0933 123.53 18.021 123.667 17.9253 123.791C17.832 123.915 17.7153 124.023 17.5753 124.116C17.4377 124.21 17.2802 124.283 17.1028 124.337C17.1635 124.372 17.2195 124.414 17.2708 124.463C17.3222 124.51 17.3688 124.566 17.4108 124.631L18.6778 126.5ZM23.6134 123.969C23.6134 124.34 23.5515 124.681 23.4279 124.991C23.3042 125.302 23.1304 125.569 22.9064 125.793C22.6824 126.017 22.4129 126.191 22.0979 126.314C21.7829 126.438 21.4329 126.5 21.0479 126.5H19.1194V121.439H21.0479C21.4329 121.439 21.7829 121.502 22.0979 121.628C22.4129 121.752 22.6824 121.925 22.9064 122.149C23.1304 122.371 23.3042 122.637 23.4279 122.947C23.5515 123.258 23.6134 123.598 23.6134 123.969ZM22.6474 123.969C22.6474 123.692 22.61 123.443 22.5354 123.224C22.463 123.002 22.3569 122.816 22.2169 122.664C22.0792 122.51 21.9112 122.392 21.7129 122.31C21.5169 122.229 21.2952 122.188 21.0479 122.188H20.0644V125.751H21.0479C21.2952 125.751 21.5169 125.71 21.7129 125.628C21.9112 125.547 22.0792 125.43 22.2169 125.278C22.3569 125.124 22.463 124.938 22.5354 124.718C22.61 124.497 22.6474 124.247 22.6474 123.969Z" fill="black"/>
<rect x="2" y="179" width="24" height="7" fill="#F1BB72"/>
<rect x="2" y="179" width="24" height="7" stroke="#F1BB72"/>
<path d="M7.52391 183.589L6.90791 181.905C6.87757 181.831 6.84607 181.742 6.81341 181.639C6.78074 181.537 6.74807 181.426 6.71541 181.307C6.68507 181.426 6.65357 181.538 6.62091 181.643C6.58824 181.746 6.55674 181.835 6.52641 181.912L5.91391 183.589H7.52391ZM9.18641 185.5H8.45841C8.37674 185.5 8.31024 185.48 8.25891 185.44C8.20757 185.398 8.16907 185.347 8.14341 185.286L7.76541 184.254H5.66891L5.29091 185.286C5.27224 185.34 5.23607 185.389 5.18241 185.433C5.12874 185.478 5.06224 185.5 4.98291 185.5H4.24791L6.23941 180.439H7.19841L9.18641 185.5ZM12.3003 181.359C12.2723 181.408 12.2419 181.445 12.2093 181.468C12.1789 181.489 12.1404 181.499 12.0938 181.499C12.0448 181.499 11.9911 181.482 11.9328 181.447C11.8768 181.41 11.8091 181.369 11.7298 181.324C11.6504 181.28 11.5571 181.24 11.4498 181.205C11.3448 181.168 11.2199 181.149 11.0753 181.149C10.9446 181.149 10.8303 181.166 10.7323 181.198C10.6343 181.229 10.5514 181.272 10.4838 181.328C10.4184 181.384 10.3694 181.452 10.3368 181.531C10.3041 181.608 10.2878 181.693 10.2878 181.786C10.2878 181.905 10.3204 182.005 10.3858 182.084C10.4534 182.163 10.5421 182.231 10.6518 182.287C10.7614 182.343 10.8863 182.393 11.0263 182.437C11.1663 182.482 11.3098 182.53 11.4568 182.581C11.6038 182.63 11.7473 182.688 11.8873 182.756C12.0273 182.821 12.1521 182.905 12.2618 183.008C12.3714 183.108 12.4589 183.232 12.5243 183.379C12.5919 183.526 12.6258 183.704 12.6258 183.914C12.6258 184.143 12.5861 184.358 12.5068 184.558C12.4298 184.757 12.3154 184.931 12.1638 185.08C12.0144 185.227 11.8313 185.344 11.6143 185.43C11.3973 185.514 11.1488 185.556 10.8688 185.556C10.7078 185.556 10.5491 185.54 10.3928 185.507C10.2364 185.477 10.0859 185.432 9.94126 185.374C9.79892 185.316 9.66476 185.246 9.53876 185.164C9.41276 185.082 9.30076 184.991 9.20276 184.891L9.47926 184.439C9.50259 184.407 9.53292 184.38 9.57026 184.359C9.60759 184.336 9.64726 184.324 9.68926 184.324C9.74759 184.324 9.81059 184.348 9.87826 184.397C9.94592 184.444 10.0264 184.497 10.1198 184.555C10.2131 184.613 10.3216 184.667 10.4453 184.716C10.5713 184.763 10.7218 184.786 10.8968 184.786C11.1651 184.786 11.3728 184.723 11.5198 184.597C11.6668 184.469 11.7403 184.285 11.7403 184.047C11.7403 183.914 11.7064 183.806 11.6388 183.722C11.5734 183.638 11.4859 183.568 11.3763 183.512C11.2666 183.454 11.1418 183.405 11.0018 183.365C10.8618 183.325 10.7194 183.282 10.5748 183.235C10.4301 183.189 10.2878 183.133 10.1478 183.067C10.0078 183.002 9.88292 182.917 9.77326 182.812C9.66359 182.707 9.57492 182.576 9.50726 182.42C9.44192 182.261 9.40926 182.066 9.40926 181.835C9.40926 181.651 9.44542 181.471 9.51776 181.296C9.59242 181.121 9.69976 180.966 9.83976 180.831C9.97976 180.696 10.1524 180.587 10.3578 180.505C10.5631 180.424 10.7988 180.383 11.0648 180.383C11.3634 180.383 11.6388 180.43 11.8908 180.523C12.1428 180.616 12.3574 180.747 12.5348 180.915L12.3003 181.359ZM15.3993 183.54V185.5H14.4613V183.54L12.6168 180.439H13.4463C13.528 180.439 13.5922 180.459 13.6388 180.498C13.6878 180.538 13.7287 180.588 13.7613 180.649L14.6853 182.339C14.739 182.44 14.7857 182.534 14.8253 182.623C14.8673 182.712 14.9047 182.8 14.9373 182.889C14.9677 182.8 15.0027 182.712 15.0423 182.623C15.082 182.534 15.1275 182.44 15.1788 182.339L16.0993 180.649C16.125 180.598 16.1635 180.55 16.2148 180.505C16.2662 180.461 16.3315 180.439 16.4108 180.439H17.2438L15.3993 183.54ZM23.1479 180.439V185.5H22.3184V182.231C22.3184 182.1 22.3254 181.959 22.3394 181.807L20.8099 184.681C20.7376 184.819 20.6267 184.887 20.4774 184.887H20.3444C20.1951 184.887 20.0842 184.819 20.0119 184.681L18.4649 181.797C18.4719 181.874 18.4777 181.95 18.4824 182.024C18.4871 182.099 18.4894 182.168 18.4894 182.231V185.5H17.6599V180.439H18.3704C18.4124 180.439 18.4486 180.44 18.4789 180.442C18.5092 180.445 18.5361 180.451 18.5594 180.46C18.5851 180.469 18.6072 180.484 18.6259 180.505C18.6469 180.526 18.6667 180.554 18.6854 180.589L20.2009 183.4C20.2406 183.475 20.2767 183.552 20.3094 183.631C20.3444 183.71 20.3782 183.792 20.4109 183.876C20.4436 183.79 20.4774 183.707 20.5124 183.627C20.5474 183.546 20.5847 183.468 20.6244 183.393L22.1189 180.589C22.1376 180.554 22.1574 180.526 22.1784 180.505C22.1994 180.484 22.2216 180.469 22.2449 180.46C22.2706 180.451 22.2986 180.445 22.3289 180.442C22.3592 180.44 22.3954 180.439 22.4374 180.439H23.1479Z" fill="black"/>
<rect x="2" y="238" width="24" height="7" fill="#F1BB72"/>
<rect x="2" y="238" width="24" height="7" stroke="#F1BB72"/>
<path d="M9.74608 240.359C9.71808 240.408 9.68774 240.445 9.65508 240.468C9.62474 240.489 9.58624 240.499 9.53958 240.499C9.49058 240.499 9.43691 240.482 9.37858 240.447C9.32258 240.41 9.25491 240.369 9.17558 240.324C9.09624 240.28 9.00291 240.24 8.89558 240.205C8.79058 240.168 8.66574 240.149 8.52108 240.149C8.39041 240.149 8.27608 240.166 8.17808 240.198C8.08008 240.229 7.99724 240.272 7.92958 240.328C7.86424 240.384 7.81524 240.452 7.78258 240.531C7.74991 240.608 7.73358 240.693 7.73358 240.786C7.73358 240.905 7.76624 241.005 7.83158 241.084C7.89924 241.163 7.98791 241.231 8.09758 241.287C8.20724 241.343 8.33208 241.393 8.47208 241.437C8.61208 241.482 8.75558 241.53 8.90258 241.581C9.04958 241.63 9.19308 241.688 9.33308 241.756C9.47308 241.821 9.59791 241.905 9.70758 242.008C9.81724 242.108 9.90474 242.232 9.97008 242.379C10.0377 242.526 10.0716 242.704 10.0716 242.914C10.0716 243.143 10.0319 243.358 9.95258 243.558C9.87558 243.757 9.76124 243.931 9.60958 244.08C9.46024 244.227 9.27708 244.344 9.06008 244.43C8.84308 244.514 8.59458 244.556 8.31458 244.556C8.15358 244.556 7.99491 244.54 7.83858 244.507C7.68224 244.477 7.53174 244.432 7.38708 244.374C7.24474 244.316 7.11058 244.246 6.98458 244.164C6.85858 244.082 6.74658 243.991 6.64858 243.891L6.92508 243.439C6.94841 243.407 6.97874 243.38 7.01608 243.359C7.05341 243.336 7.09308 243.324 7.13508 243.324C7.19341 243.324 7.25641 243.348 7.32408 243.397C7.39174 243.444 7.47224 243.497 7.56558 243.555C7.65891 243.613 7.76741 243.667 7.89108 243.716C8.01708 243.763 8.16758 243.786 8.34258 243.786C8.61091 243.786 8.81858 243.723 8.96558 243.597C9.11258 243.469 9.18608 243.285 9.18608 243.047C9.18608 242.914 9.15224 242.806 9.08458 242.722C9.01924 242.638 8.93174 242.568 8.82208 242.512C8.71241 242.454 8.58758 242.405 8.44758 242.365C8.30758 242.325 8.16524 242.282 8.02058 242.235C7.87591 242.189 7.73358 242.133 7.59358 242.067C7.45358 242.002 7.32874 241.917 7.21908 241.812C7.10941 241.707 7.02074 241.576 6.95308 241.42C6.88774 241.261 6.85508 241.066 6.85508 240.835C6.85508 240.651 6.89124 240.471 6.96358 240.296C7.03824 240.121 7.14558 239.966 7.28558 239.831C7.42558 239.696 7.59824 239.587 7.80358 239.505C8.00891 239.424 8.24458 239.383 8.51058 239.383C8.80924 239.383 9.08458 239.43 9.33658 239.523C9.58858 239.616 9.80324 239.747 9.98058 239.915L9.74608 240.359ZM11.7329 244.5H10.7879V239.439H11.7329V244.5ZM17.0275 239.439V244.5H16.5445C16.4698 244.5 16.4068 244.488 16.3555 244.465C16.3065 244.439 16.2587 244.397 16.212 244.339L13.5695 240.965C13.5835 241.119 13.5905 241.261 13.5905 241.392V244.5H12.761V239.439H13.2545C13.2942 239.439 13.328 239.441 13.356 239.446C13.3863 239.448 13.412 239.455 13.433 239.467C13.4563 239.476 13.4785 239.491 13.4995 239.512C13.5205 239.531 13.5438 239.557 13.5695 239.589L16.2225 242.977C16.2155 242.896 16.2097 242.815 16.205 242.736C16.2003 242.657 16.198 242.583 16.198 242.515V239.439H17.0275ZM18.9946 240.188V241.591H20.7656V242.316H18.9946V243.747H21.2416V244.5H18.0496V239.439H21.2416V240.188H18.9946Z" fill="black"/>
<path d="M2 297H26V302C26 303.105 25.1046 304 24 304H4C2.89543 304 2 303.105 2 302V297Z" fill="#F1BB72"/>
<path d="M2 297H26V302C26 303.105 25.1046 304 24 304H4C2.89543 304 2 303.105 2 302V297Z" stroke="#F1BB72"/>
<path d="M11.9347 300.969C11.9347 301.34 11.8729 301.681 11.7492 301.991C11.6256 302.302 11.4517 302.569 11.2277 302.793C11.0037 303.017 10.7342 303.191 10.4192 303.314C10.1042 303.438 9.75423 303.5 9.36923 303.5H7.44073V298.439H9.36923C9.75423 298.439 10.1042 298.502 10.4192 298.628C10.7342 298.752 11.0037 298.925 11.2277 299.149C11.4517 299.371 11.6256 299.637 11.7492 299.947C11.8729 300.258 11.9347 300.598 11.9347 300.969ZM10.9687 300.969C10.9687 300.692 10.9314 300.443 10.8567 300.224C10.7844 300.002 10.6782 299.816 10.5382 299.664C10.4006 299.51 10.2326 299.392 10.0342 299.31C9.83823 299.229 9.61656 299.188 9.36923 299.188H8.38573V302.751H9.36923C9.61656 302.751 9.83823 302.71 10.0342 302.628C10.2326 302.547 10.4006 302.43 10.5382 302.278C10.6782 302.124 10.7844 301.938 10.8567 301.718C10.9314 301.497 10.9687 301.247 10.9687 300.969ZM13.6059 303.5H12.6609V298.439H13.6059V303.5ZM18.806 300.962V303.01C18.5494 303.199 18.2752 303.338 17.9835 303.426C17.6942 303.513 17.3839 303.556 17.0525 303.556C16.6395 303.556 16.265 303.492 15.929 303.363C15.5954 303.235 15.3095 303.057 15.0715 302.828C14.8359 302.599 14.6539 302.326 14.5255 302.009C14.3972 301.692 14.333 301.345 14.333 300.969C14.333 300.589 14.3949 300.24 14.5185 299.923C14.6422 299.606 14.8172 299.333 15.0435 299.104C15.2722 298.875 15.5487 298.698 15.873 298.572C16.1974 298.446 16.5614 298.383 16.965 298.383C17.1704 298.383 17.3617 298.399 17.539 298.432C17.7187 298.465 17.8844 298.51 18.036 298.568C18.19 298.624 18.33 298.693 18.456 298.775C18.582 298.857 18.6975 298.946 18.8025 299.044L18.533 299.471C18.491 299.539 18.4362 299.581 18.3685 299.597C18.3009 299.611 18.2274 299.594 18.148 299.545C18.071 299.501 17.994 299.456 17.917 299.412C17.84 299.368 17.7537 299.329 17.658 299.296C17.5647 299.264 17.4585 299.237 17.3395 299.216C17.2229 299.195 17.0875 299.184 16.9335 299.184C16.6839 299.184 16.4575 299.226 16.2545 299.31C16.0539 299.394 15.8824 299.515 15.74 299.671C15.5977 299.827 15.488 300.015 15.411 300.234C15.334 300.454 15.2955 300.699 15.2955 300.969C15.2955 301.259 15.3364 301.518 15.418 301.746C15.502 301.973 15.6187 302.165 15.768 302.324C15.9197 302.48 16.1017 302.6 16.314 302.684C16.5264 302.766 16.7632 302.807 17.0245 302.807C17.2112 302.807 17.378 302.787 17.525 302.747C17.672 302.708 17.8155 302.654 17.9555 302.586V301.669H17.3185C17.2579 301.669 17.21 301.653 17.175 301.62C17.1424 301.585 17.126 301.543 17.126 301.494V300.962H18.806ZM20.5531 303.5H19.6081V298.439H20.5531V303.5Z" fill="black"/>
</svg>
