<?xml version="1.0" encoding="UTF-8" standalone="no"?>
<!DOCTYPE svg PUBLIC "-//W3C//DTD SVG 1.1//EN" "http://www.w3.org/Graphics/SVG/1.1/DTD/svg11.dtd">
<svg width="100%" height="100%" viewBox="0 0 51 30" version="1.1" xmlns="http://www.w3.org/2000/svg" xmlns:xlink="http://www.w3.org/1999/xlink" xml:space="preserve" xmlns:serif="http://www.serif.com/" style="fill-rule:evenodd;clip-rule:evenodd;stroke-linejoin:round;stroke-miterlimit:1.41421;">
    <g transform="matrix(1,0,0,1,-1995,-471)">
        <g id="bmp00152" transform="matrix(1,0,0,1,509.537,-133.524)">
            <rect x="1485.46" y="604.524" width="51" height="30" style="fill:none;"/>
            <clipPath id="_clip1">
                <rect x="1485.46" y="604.524" width="51" height="30"/>
            </clipPath>
            <g clip-path="url(#_clip1)">
                <g transform="matrix(1,0,0,0.567561,-883.537,500.762)">
                    <g id="B">
                        <g id="B1" serif:id="B">
                            <path d="M2420,213.655C2420,211.224 2418.88,209.25 2417.5,209.25L2371.5,209.25C2370.12,209.25 2369,211.224 2369,213.655L2369,231.274C2369,233.705 2370.12,235.679 2371.5,235.679L2417.5,235.679C2418.88,235.679 2420,233.705 2420,231.274L2420,213.655Z" style="fill:url(#_Linear2);"/>
                            <path d="M2417.56,209.251L2417.63,209.256L2417.69,209.263L2417.76,209.273L2417.82,209.285L2417.88,209.301L2417.94,209.319L2418,209.34L2418.06,209.363L2418.12,209.389L2418.18,209.417L2418.24,209.448L2418.3,209.482L2418.36,209.517L2418.42,209.556L2418.47,209.596L2418.53,209.639L2418.58,209.685L2418.64,209.732L2418.69,209.782L2418.74,209.834L2418.8,209.888L2418.85,209.944L2418.9,210.003L2418.95,210.063L2418.99,210.126L2419.04,210.19L2419.09,210.256L2419.14,210.325L2419.18,210.395L2419.22,210.467L2419.27,210.541L2419.31,210.616L2419.35,210.694L2419.39,210.773L2419.43,210.854L2419.47,210.936L2419.5,211.02L2419.54,211.106L2419.57,211.193L2419.61,211.281L2419.64,211.371L2419.67,211.463L2419.7,211.556L2419.73,211.65L2419.75,211.746L2419.78,211.843L2419.8,211.941L2419.83,212.04L2419.85,212.141L2419.87,212.243L2419.89,212.346L2419.91,212.45L2419.92,212.555L2419.94,212.661L2419.95,212.768L2419.96,212.876L2419.97,212.984L2419.98,213.094L2419.99,213.205L2419.99,213.316L2420,213.428L2420,213.541L2420,213.655L2420,231.274L2420,231.388L2420,231.501L2419.99,231.613L2419.99,231.724L2419.98,231.835L2419.97,231.944L2419.96,232.053L2419.95,232.161L2419.94,232.268L2419.92,232.374L2419.91,232.479L2419.89,232.583L2419.87,232.686L2419.85,232.788L2419.83,232.889L2419.8,232.988L2419.78,233.086L2419.75,233.183L2419.73,233.279L2419.7,233.373L2419.67,233.466L2419.64,233.557L2419.61,233.647L2419.57,233.736L2419.54,233.823L2419.5,233.909L2419.47,233.993L2419.43,234.075L2419.39,234.156L2419.35,234.235L2419.31,234.312L2419.27,234.388L2419.22,234.462L2419.18,234.534L2419.14,234.604L2419.09,234.672L2419.04,234.739L2418.99,234.803L2418.95,234.866L2418.9,234.926L2418.85,234.985L2418.8,235.041L2418.74,235.095L2418.69,235.147L2418.64,235.197L2418.58,235.244L2418.53,235.289L2418.47,235.332L2418.42,235.373L2418.36,235.411L2418.3,235.447L2418.24,235.481L2418.18,235.512L2418.12,235.54L2418.06,235.566L2418,235.589L2417.94,235.61L2417.88,235.628L2417.82,235.643L2417.76,235.656L2417.69,235.666L2417.63,235.673L2417.56,235.677L2417.5,235.679L2371.5,235.679L2371.44,235.677L2371.37,235.673L2371.31,235.666L2371.24,235.656L2371.18,235.643L2371.12,235.628L2371.06,235.61L2371,235.589L2370.94,235.566L2370.88,235.54L2370.82,235.512L2370.76,235.481L2370.7,235.447L2370.64,235.411L2370.58,235.373L2370.53,235.332L2370.47,235.289L2370.42,235.244L2370.36,235.197L2370.31,235.147L2370.26,235.095L2370.2,235.041L2370.15,234.985L2370.1,234.926L2370.05,234.866L2370.01,234.803L2369.96,234.739L2369.91,234.672L2369.86,234.604L2369.82,234.534L2369.78,234.462L2369.73,234.388L2369.69,234.312L2369.65,234.235L2369.61,234.156L2369.57,234.075L2369.53,233.993L2369.5,233.909L2369.46,233.823L2369.43,233.736L2369.39,233.647L2369.36,233.557L2369.33,233.466L2369.3,233.373L2369.27,233.279L2369.25,233.183L2369.22,233.086L2369.2,232.988L2369.17,232.889L2369.15,232.788L2369.13,232.686L2369.11,232.583L2369.1,232.479L2369.08,232.374L2369.06,232.268L2369.05,232.161L2369.04,232.053L2369.03,231.944L2369.02,231.835L2369.01,231.724L2369.01,231.613L2369,231.501L2369,231.388L2369,231.274L2369,213.655L2369,213.541L2369,213.428L2369.01,213.316L2369.01,213.205L2369.02,213.094L2369.03,212.984L2369.04,212.876L2369.05,212.768L2369.06,212.661L2369.08,212.555L2369.1,212.45L2369.11,212.346L2369.13,212.243L2369.15,212.141L2369.17,212.04L2369.2,211.941L2369.22,211.843L2369.25,211.746L2369.27,211.65L2369.3,211.556L2369.33,211.463L2369.36,211.371L2369.39,211.281L2369.43,211.193L2369.46,211.106L2369.5,211.02L2369.53,210.936L2369.57,210.854L2369.61,210.773L2369.65,210.694L2369.69,210.616L2369.73,210.541L2369.78,210.467L2369.82,210.395L2369.86,210.325L2369.91,210.256L2369.96,210.19L2370.01,210.126L2370.05,210.063L2370.1,210.003L2370.15,209.944L2370.2,209.888L2370.26,209.834L2370.31,209.782L2370.36,209.732L2370.42,209.685L2370.47,209.639L2370.53,209.596L2370.58,209.556L2370.64,209.517L2370.7,209.482L2370.76,209.448L2370.82,209.417L2370.88,209.389L2370.94,209.363L2371,209.34L2371.06,209.319L2371.12,209.301L2371.18,209.285L2371.24,209.273L2371.31,209.263L2371.37,209.256L2371.44,209.251L2371.5,209.25L2417.5,209.25L2417.56,209.251ZM2371.5,210.092L2371.45,210.094L2371.4,210.097L2371.34,210.103L2371.29,210.111L2371.24,210.121L2371.19,210.134L2371.14,210.148L2371.09,210.165L2371.04,210.184L2370.99,210.205L2370.95,210.228L2370.9,210.253L2370.85,210.28L2370.8,210.309L2370.76,210.339L2370.71,210.372L2370.67,210.407L2370.62,210.443L2370.58,210.482L2370.54,210.522L2370.49,210.564L2370.45,210.608L2370.41,210.653L2370.37,210.701L2370.33,210.75L2370.29,210.8L2370.25,210.852L2370.22,210.906L2370.18,210.961L2370.14,211.018L2370.11,211.077L2370.07,211.136L2370.04,211.198L2370,211.261L2369.97,211.324L2369.94,211.39L2369.91,211.457L2369.88,211.525L2369.85,211.594L2369.82,211.665L2369.8,211.737L2369.77,211.809L2369.75,211.883L2369.72,211.959L2369.7,212.034L2369.68,212.111L2369.66,212.19L2369.64,212.269L2369.62,212.35L2369.6,212.431L2369.58,212.513L2369.57,212.596L2369.55,212.68L2369.54,212.765L2369.53,212.85L2369.52,212.937L2369.51,213.024L2369.5,213.112L2369.49,213.201L2369.49,213.29L2369.48,213.38L2369.48,213.471L2369.48,213.562L2369.48,213.66L2369.48,231.269L2369.48,231.367L2369.48,231.457L2369.48,231.548L2369.49,231.639L2369.49,231.728L2369.5,231.817L2369.51,231.905L2369.52,231.992L2369.53,232.079L2369.54,232.164L2369.55,232.248L2369.57,232.333L2369.58,232.416L2369.6,232.498L2369.62,232.579L2369.64,232.659L2369.66,232.739L2369.68,232.818L2369.7,232.895L2369.72,232.97L2369.75,233.046L2369.77,233.12L2369.8,233.192L2369.82,233.264L2369.85,233.335L2369.88,233.404L2369.91,233.472L2369.94,233.539L2369.97,233.604L2370,233.668L2370.04,233.731L2370.07,233.792L2370.11,233.852L2370.14,233.911L2370.18,233.968L2370.22,234.023L2370.25,234.077L2370.29,234.129L2370.33,234.179L2370.37,234.228L2370.41,234.275L2370.45,234.321L2370.49,234.365L2370.54,234.407L2370.58,234.447L2370.62,234.485L2370.67,234.522L2370.71,234.557L2370.76,234.589L2370.8,234.62L2370.85,234.649L2370.9,234.676L2370.95,234.701L2370.99,234.724L2371.04,234.745L2371.09,234.764L2371.14,234.781L2371.19,234.795L2371.24,234.808L2371.29,234.818L2371.34,234.826L2371.4,234.832L2371.45,234.835L2371.5,234.836L2417.5,234.836L2417.55,234.835L2417.6,234.832L2417.66,234.826L2417.71,234.818L2417.76,234.808L2417.81,234.795L2417.86,234.781L2417.91,234.764L2417.96,234.745L2418.01,234.724L2418.05,234.701L2418.1,234.676L2418.15,234.649L2418.2,234.62L2418.24,234.589L2418.29,234.557L2418.33,234.522L2418.38,234.485L2418.42,234.447L2418.46,234.407L2418.51,234.365L2418.55,234.321L2418.59,234.275L2418.63,234.228L2418.67,234.179L2418.71,234.129L2418.75,234.077L2418.78,234.023L2418.82,233.967L2418.86,233.911L2418.89,233.853L2418.93,233.792L2418.96,233.731L2419,233.668L2419.03,233.604L2419.06,233.539L2419.09,233.472L2419.12,233.405L2419.15,233.334L2419.18,233.264L2419.2,233.193L2419.23,233.119L2419.25,233.046L2419.28,232.971L2419.3,232.895L2419.32,232.818L2419.34,232.738L2419.36,232.659L2419.38,232.579L2419.4,232.498L2419.41,232.417L2419.43,232.332L2419.45,232.248L2419.46,232.165L2419.47,232.079L2419.48,231.992L2419.49,231.905L2419.5,231.817L2419.51,231.728L2419.51,231.639L2419.52,231.548L2419.52,231.457L2419.52,231.367L2419.52,231.269L2419.52,213.66L2419.52,213.562L2419.52,213.471L2419.52,213.38L2419.51,213.29L2419.51,213.201L2419.5,213.112L2419.49,213.024L2419.48,212.937L2419.47,212.85L2419.46,212.764L2419.45,212.68L2419.43,212.597L2419.41,212.512L2419.4,212.431L2419.38,212.35L2419.36,212.27L2419.34,212.191L2419.32,212.111L2419.3,212.034L2419.28,211.958L2419.25,211.883L2419.23,211.81L2419.2,211.736L2419.18,211.665L2419.15,211.594L2419.12,211.524L2419.09,211.457L2419.06,211.39L2419.03,211.324L2419,211.261L2418.96,211.198L2418.93,211.136L2418.89,211.076L2418.86,211.018L2418.82,210.962L2418.78,210.906L2418.75,210.852L2418.71,210.8L2418.67,210.75L2418.63,210.701L2418.59,210.654L2418.55,210.608L2418.51,210.564L2418.46,210.522L2418.42,210.482L2418.38,210.443L2418.33,210.407L2418.29,210.372L2418.24,210.339L2418.2,210.308L2418.15,210.28L2418.1,210.253L2418.05,210.228L2418.01,210.205L2417.96,210.184L2417.91,210.165L2417.86,210.148L2417.81,210.134L2417.76,210.121L2417.71,210.111L2417.66,210.103L2417.6,210.097L2417.55,210.094L2417.5,210.092L2371.5,210.092Z" style="fill:rgb(51,51,51);"/>
                        </g>
                    </g>
                </g>
                <g transform="matrix(1,0,0,0.567561,-883.537,485.762)">
                    <g id="A">
                        <g id="A1" serif:id="A">
                            <path d="M2420,213.743C2420,211.263 2418.86,209.25 2417.45,209.25L2371.55,209.25C2370.14,209.25 2369,211.263 2369,213.743L2369,231.186C2369,233.666 2370.14,235.679 2371.55,235.679L2417.45,235.679C2418.86,235.679 2420,233.666 2420,231.186L2420,213.743Z" style="fill:url(#_Linear3);"/>
                            <path d="M2417.52,209.251L2417.58,209.256L2417.65,209.263L2417.71,209.273L2417.78,209.286L2417.84,209.302L2417.9,209.32L2417.96,209.341L2418.03,209.365L2418.09,209.392L2418.15,209.421L2418.21,209.452L2418.27,209.486L2418.33,209.523L2418.39,209.562L2418.44,209.603L2418.5,209.647L2418.55,209.693L2418.61,209.742L2418.66,209.793L2418.72,209.846L2418.77,209.901L2418.82,209.958L2418.88,210.018L2418.93,210.079L2418.97,210.143L2419.02,210.209L2419.07,210.276L2419.12,210.346L2419.16,210.418L2419.21,210.491L2419.25,210.567L2419.3,210.644L2419.34,210.723L2419.38,210.803L2419.42,210.886L2419.46,210.97L2419.49,211.055L2419.53,211.143L2419.56,211.232L2419.6,211.322L2419.63,211.414L2419.66,211.507L2419.69,211.602L2419.72,211.698L2419.75,211.796L2419.78,211.895L2419.8,211.995L2419.82,212.096L2419.85,212.199L2419.87,212.303L2419.89,212.407L2419.9,212.514L2419.92,212.621L2419.93,212.729L2419.95,212.838L2419.96,212.948L2419.97,213.059L2419.98,213.171L2419.99,213.284L2419.99,213.397L2420,213.512L2420,213.627L2420,213.743L2420,231.186L2420,231.302L2420,231.417L2419.99,231.531L2419.99,231.645L2419.98,231.758L2419.97,231.87L2419.96,231.981L2419.95,232.091L2419.93,232.2L2419.92,232.308L2419.9,232.415L2419.89,232.521L2419.87,232.626L2419.85,232.73L2419.82,232.833L2419.8,232.934L2419.78,233.034L2419.75,233.133L2419.72,233.231L2419.69,233.327L2419.66,233.422L2419.63,233.515L2419.6,233.607L2419.56,233.697L2419.53,233.786L2419.49,233.873L2419.46,233.959L2419.42,234.043L2419.38,234.126L2419.34,234.206L2419.3,234.285L2419.25,234.362L2419.21,234.438L2419.16,234.511L2419.12,234.583L2419.07,234.652L2419.02,234.72L2418.97,234.786L2418.93,234.849L2418.88,234.911L2418.82,234.971L2418.77,235.028L2418.72,235.083L2418.66,235.136L2418.61,235.187L2418.55,235.236L2418.5,235.282L2418.44,235.326L2418.39,235.367L2418.33,235.406L2418.27,235.443L2418.21,235.477L2418.15,235.508L2418.09,235.537L2418.03,235.564L2417.96,235.588L2417.9,235.609L2417.84,235.627L2417.78,235.643L2417.71,235.656L2417.65,235.666L2417.58,235.673L2417.52,235.677L2417.45,235.679L2371.55,235.679L2371.48,235.677L2371.42,235.673L2371.35,235.666L2371.29,235.656L2371.22,235.643L2371.16,235.627L2371.1,235.609L2371.04,235.588L2370.97,235.564L2370.91,235.537L2370.85,235.508L2370.79,235.477L2370.73,235.443L2370.67,235.406L2370.62,235.367L2370.56,235.326L2370.5,235.282L2370.45,235.236L2370.39,235.187L2370.34,235.136L2370.28,235.083L2370.23,235.028L2370.18,234.971L2370.13,234.911L2370.07,234.849L2370.03,234.786L2369.98,234.72L2369.93,234.652L2369.88,234.583L2369.84,234.511L2369.79,234.438L2369.75,234.362L2369.7,234.285L2369.66,234.206L2369.62,234.126L2369.58,234.043L2369.54,233.959L2369.51,233.873L2369.47,233.786L2369.44,233.697L2369.4,233.607L2369.37,233.515L2369.34,233.422L2369.31,233.327L2369.28,233.231L2369.25,233.133L2369.22,233.034L2369.2,232.934L2369.18,232.833L2369.16,232.73L2369.13,232.626L2369.12,232.521L2369.1,232.415L2369.08,232.308L2369.07,232.2L2369.05,232.091L2369.04,231.981L2369.03,231.87L2369.02,231.758L2369.01,231.645L2369.01,231.531L2369,231.417L2369,231.302L2369,231.186L2369,213.743L2369,213.627L2369,213.512L2369.01,213.397L2369.01,213.284L2369.02,213.171L2369.03,213.059L2369.04,212.948L2369.05,212.838L2369.07,212.729L2369.08,212.621L2369.1,212.514L2369.12,212.407L2369.13,212.303L2369.16,212.199L2369.18,212.096L2369.2,211.995L2369.22,211.895L2369.25,211.796L2369.28,211.698L2369.31,211.602L2369.34,211.507L2369.37,211.414L2369.4,211.322L2369.44,211.232L2369.47,211.143L2369.51,211.055L2369.54,210.97L2369.58,210.886L2369.62,210.803L2369.66,210.723L2369.7,210.644L2369.75,210.567L2369.79,210.491L2369.84,210.418L2369.88,210.346L2369.93,210.276L2369.98,210.209L2370.03,210.143L2370.07,210.079L2370.13,210.018L2370.18,209.958L2370.23,209.901L2370.28,209.846L2370.34,209.793L2370.39,209.742L2370.45,209.693L2370.5,209.647L2370.56,209.603L2370.62,209.562L2370.67,209.523L2370.73,209.486L2370.79,209.452L2370.85,209.421L2370.91,209.392L2370.97,209.365L2371.04,209.341L2371.1,209.32L2371.16,209.302L2371.22,209.286L2371.29,209.273L2371.35,209.263L2371.42,209.256L2371.48,209.251L2371.55,209.25L2417.45,209.25L2417.52,209.251ZM2371.55,210.092L2371.5,210.094L2371.44,210.097L2371.39,210.103L2371.34,210.111L2371.29,210.122L2371.23,210.135L2371.18,210.15L2371.13,210.167L2371.08,210.186L2371.03,210.208L2370.98,210.231L2370.93,210.257L2370.89,210.284L2370.84,210.314L2370.79,210.346L2370.74,210.379L2370.7,210.415L2370.65,210.452L2370.61,210.492L2370.56,210.533L2370.52,210.576L2370.48,210.621L2370.43,210.667L2370.39,210.716L2370.35,210.766L2370.31,210.818L2370.27,210.871L2370.23,210.926L2370.2,210.983L2370.16,211.042L2370.12,211.101L2370.09,211.162L2370.05,211.225L2370.02,211.289L2369.98,211.355L2369.95,211.422L2369.92,211.491L2369.89,211.56L2369.86,211.631L2369.83,211.704L2369.8,211.777L2369.78,211.852L2369.75,211.928L2369.73,212.004L2369.7,212.082L2369.68,212.162L2369.66,212.242L2369.64,212.322L2369.62,212.405L2369.6,212.489L2369.59,212.573L2369.57,212.658L2369.56,212.744L2369.54,212.83L2369.53,212.919L2369.52,213.007L2369.51,213.096L2369.5,213.186L2369.49,213.278L2369.49,213.369L2369.48,213.462L2369.48,213.555L2369.48,213.649L2369.48,213.748L2369.48,231.181L2369.48,231.28L2369.48,231.374L2369.48,231.467L2369.49,231.56L2369.49,231.651L2369.5,231.743L2369.51,231.833L2369.52,231.922L2369.53,232.01L2369.54,232.099L2369.56,232.185L2369.57,232.271L2369.59,232.356L2369.6,232.439L2369.62,232.524L2369.64,232.606L2369.66,232.687L2369.68,232.766L2369.7,232.847L2369.73,232.925L2369.75,233.001L2369.78,233.077L2369.8,233.152L2369.83,233.225L2369.86,233.298L2369.89,233.369L2369.92,233.438L2369.95,233.506L2369.98,233.574L2370.02,233.64L2370.05,233.704L2370.09,233.767L2370.12,233.828L2370.16,233.887L2370.2,233.946L2370.23,234.003L2370.27,234.057L2370.31,234.111L2370.35,234.163L2370.39,234.213L2370.43,234.261L2370.48,234.308L2370.52,234.353L2370.56,234.396L2370.61,234.437L2370.65,234.477L2370.7,234.514L2370.74,234.55L2370.79,234.583L2370.84,234.615L2370.89,234.645L2370.93,234.672L2370.98,234.698L2371.03,234.721L2371.08,234.743L2371.13,234.762L2371.18,234.779L2371.23,234.794L2371.29,234.807L2371.34,234.817L2371.39,234.826L2371.44,234.832L2371.5,234.835L2371.55,234.836L2417.45,234.836L2417.5,234.835L2417.56,234.832L2417.61,234.826L2417.66,234.817L2417.71,234.807L2417.77,234.794L2417.82,234.779L2417.87,234.762L2417.92,234.743L2417.97,234.721L2418.02,234.698L2418.07,234.672L2418.11,234.645L2418.16,234.615L2418.21,234.583L2418.26,234.55L2418.3,234.514L2418.35,234.477L2418.39,234.437L2418.44,234.396L2418.48,234.353L2418.52,234.308L2418.57,234.261L2418.61,234.213L2418.65,234.163L2418.69,234.111L2418.73,234.058L2418.77,234.003L2418.8,233.946L2418.84,233.887L2418.88,233.828L2418.91,233.767L2418.95,233.704L2418.98,233.64L2419.02,233.573L2419.05,233.506L2419.08,233.439L2419.11,233.369L2419.14,233.298L2419.17,233.225L2419.2,233.152L2419.22,233.077L2419.25,233.001L2419.27,232.924L2419.3,232.847L2419.32,232.767L2419.34,232.687L2419.36,232.606L2419.38,232.523L2419.4,232.439L2419.41,232.357L2419.43,232.271L2419.44,232.185L2419.46,232.099L2419.47,232.01L2419.48,231.922L2419.49,231.832L2419.5,231.743L2419.51,231.652L2419.51,231.56L2419.52,231.467L2419.52,231.374L2419.52,231.28L2419.52,231.181L2419.52,213.748L2419.52,213.649L2419.52,213.555L2419.52,213.462L2419.51,213.369L2419.51,213.276L2419.5,213.186L2419.49,213.097L2419.48,213.007L2419.47,212.919L2419.46,212.83L2419.44,212.744L2419.43,212.658L2419.41,212.572L2419.4,212.489L2419.38,212.406L2419.36,212.322L2419.34,212.242L2419.32,212.162L2419.3,212.082L2419.27,212.005L2419.25,211.928L2419.22,211.852L2419.2,211.777L2419.17,211.704L2419.14,211.631L2419.11,211.56L2419.08,211.49L2419.05,211.422L2419.02,211.356L2418.98,211.289L2418.95,211.225L2418.91,211.162L2418.88,211.101L2418.84,211.042L2418.8,210.983L2418.77,210.926L2418.73,210.871L2418.69,210.818L2418.65,210.766L2418.61,210.716L2418.57,210.667L2418.52,210.621L2418.48,210.576L2418.44,210.533L2418.39,210.492L2418.35,210.452L2418.3,210.415L2418.26,210.379L2418.21,210.346L2418.16,210.314L2418.11,210.284L2418.07,210.257L2418.02,210.231L2417.97,210.207L2417.92,210.186L2417.87,210.167L2417.82,210.15L2417.77,210.135L2417.71,210.122L2417.66,210.111L2417.61,210.103L2417.56,210.097L2417.5,210.094L2417.45,210.092L2371.55,210.092Z" style="fill:rgb(51,51,51);"/>
                        </g>
                    </g>
                </g>
                <g transform="matrix(0.897778,0,0,0.897778,-621.757,415.857)">
                    <text x="2362.01px" y="222.464px" style="font-family:'Lato-Regular', 'Lato', sans-serif;font-size:11.146px;">SPLIT</text>
                </g>
                <g transform="matrix(0.897778,0,0,0.897778,-621.967,430.808)">
                    <text x="2361.47px" y="222.464px" style="font-family:'Lato-Regular', 'Lato', sans-serif;font-size:11.146px;">DU<tspan x="2377.69px 2385.27px " y="222.464px 222.464px ">AL</tspan></text>
                </g>
            </g>
        </g>
    </g>
    <defs>
        <linearGradient id="_Linear2" x1="0" y1="0" x2="1" y2="0" gradientUnits="userSpaceOnUse" gradientTransform="matrix(7.65086e-16,25.8999,-12.4948,1.58591e-15,2394.5,209.308)"><stop offset="0" style="stop-color:rgb(240,158,50);stop-opacity:1"/><stop offset="1" style="stop-color:rgb(242,142,13);stop-opacity:1"/></linearGradient>
        <linearGradient id="_Linear3" x1="0" y1="0" x2="1" y2="0" gradientUnits="userSpaceOnUse" gradientTransform="matrix(1.6183e-15,26.4289,-26.4289,1.6183e-15,2394.5,209.25)"><stop offset="0" style="stop-color:rgb(204,204,204);stop-opacity:1"/><stop offset="1" style="stop-color:rgb(173,173,173);stop-opacity:1"/></linearGradient>
    </defs>
</svg>
