<?xml version="1.0" encoding="UTF-8" standalone="no"?>
<!DOCTYPE svg PUBLIC "-//W3C//DTD SVG 1.1//EN" "http://www.w3.org/Graphics/SVG/1.1/DTD/svg11.dtd">
<svg width="100%" height="100%" viewBox="0 0 51 54" version="1.1" xmlns="http://www.w3.org/2000/svg" xmlns:xlink="http://www.w3.org/1999/xlink" xml:space="preserve" xmlns:serif="http://www.serif.com/" style="fill-rule:evenodd;clip-rule:evenodd;stroke-linejoin:round;stroke-miterlimit:1.41421;">
    <g transform="matrix(1,0,0,1,-1904,-354)">
        <g id="bmp00113" transform="matrix(1,0,0,1,444.911,341.415)">
            <rect x="1459.09" y="12.585" width="51" height="54" style="fill:none;"/>
            <clipPath id="_clip1">
                <rect x="1459.09" y="12.585" width="51" height="54"/>
            </clipPath>
            <g clip-path="url(#_clip1)">
                <g transform="matrix(0.470588,0,0,0.945936,344.266,-185.352)">
                    <g id="A">
                        <g id="A1" serif:id="A">
                            <path d="M2420,211.364C2420,210.197 2418.1,209.25 2415.75,209.25L2373.25,209.25C2370.9,209.25 2369,210.197 2369,211.364L2369,233.565C2369,234.731 2370.9,235.679 2373.25,235.679L2415.75,235.679C2418.1,235.679 2420,234.731 2420,233.565L2420,211.364Z" style="fill:url(#_Linear2);"/>
                            <path d="M2415.86,209.251L2415.97,209.253L2416.08,209.256L2416.18,209.261L2416.29,209.267L2416.4,209.274L2416.5,209.283L2416.61,209.293L2416.71,209.304L2416.81,209.317L2416.91,209.33L2417.01,209.345L2417.11,209.361L2417.21,209.378L2417.31,209.397L2417.4,209.416L2417.5,209.437L2417.59,209.459L2417.68,209.481L2417.78,209.505L2417.87,209.53L2417.95,209.556L2418.04,209.583L2418.13,209.611L2418.21,209.64L2418.29,209.67L2418.37,209.701L2418.45,209.733L2418.53,209.766L2418.61,209.8L2418.68,209.834L2418.76,209.87L2418.83,209.906L2418.89,209.943L2418.96,209.981L2419.03,210.02L2419.09,210.059L2419.16,210.1L2419.22,210.141L2419.27,210.183L2419.33,210.225L2419.38,210.268L2419.44,210.312L2419.49,210.357L2419.53,210.402L2419.58,210.448L2419.62,210.495L2419.67,210.542L2419.7,210.589L2419.74,210.638L2419.78,210.686L2419.81,210.736L2419.84,210.786L2419.87,210.836L2419.89,210.887L2419.91,210.938L2419.93,210.99L2419.95,211.043L2419.97,211.095L2419.98,211.148L2419.99,211.202L2419.99,211.256L2420,211.31L2420,211.364L2420,233.565L2420,233.619L2419.99,233.673L2419.99,233.727L2419.98,233.781L2419.97,233.834L2419.95,233.886L2419.93,233.939L2419.91,233.99L2419.89,234.042L2419.87,234.093L2419.84,234.143L2419.81,234.193L2419.78,234.242L2419.74,234.291L2419.7,234.339L2419.67,234.387L2419.62,234.434L2419.58,234.481L2419.53,234.527L2419.49,234.572L2419.44,234.617L2419.38,234.661L2419.33,234.704L2419.27,234.746L2419.22,234.788L2419.16,234.829L2419.09,234.87L2419.03,234.909L2418.96,234.948L2418.89,234.986L2418.83,235.023L2418.76,235.059L2418.68,235.095L2418.61,235.129L2418.53,235.163L2418.45,235.196L2418.37,235.228L2418.29,235.259L2418.21,235.289L2418.13,235.318L2418.04,235.346L2417.95,235.373L2417.87,235.399L2417.78,235.424L2417.68,235.447L2417.59,235.47L2417.5,235.492L2417.4,235.513L2417.31,235.532L2417.21,235.55L2417.11,235.568L2417.01,235.584L2416.91,235.599L2416.81,235.612L2416.71,235.625L2416.61,235.636L2416.5,235.646L2416.4,235.654L2416.29,235.662L2416.18,235.668L2416.08,235.673L2415.97,235.676L2415.86,235.678L2415.75,235.679L2373.25,235.679L2373.14,235.678L2373.03,235.676L2372.92,235.673L2372.82,235.668L2372.71,235.662L2372.6,235.654L2372.5,235.646L2372.39,235.636L2372.29,235.625L2372.19,235.612L2372.09,235.599L2371.99,235.584L2371.89,235.568L2371.79,235.55L2371.69,235.532L2371.6,235.513L2371.5,235.492L2371.41,235.47L2371.32,235.447L2371.22,235.424L2371.14,235.399L2371.05,235.373L2370.96,235.346L2370.87,235.318L2370.79,235.289L2370.71,235.259L2370.63,235.228L2370.55,235.196L2370.47,235.163L2370.39,235.129L2370.32,235.095L2370.24,235.059L2370.17,235.023L2370.11,234.986L2370.04,234.948L2369.97,234.909L2369.91,234.87L2369.85,234.829L2369.78,234.788L2369.73,234.746L2369.67,234.704L2369.62,234.661L2369.56,234.617L2369.51,234.572L2369.47,234.527L2369.42,234.481L2369.38,234.434L2369.33,234.387L2369.3,234.339L2369.26,234.291L2369.22,234.242L2369.19,234.193L2369.16,234.143L2369.13,234.093L2369.11,234.042L2369.09,233.99L2369.07,233.939L2369.05,233.886L2369.03,233.834L2369.02,233.781L2369.01,233.727L2369.01,233.673L2369,233.619L2369,233.565L2369,211.364L2369,211.31L2369.01,211.256L2369.01,211.202L2369.02,211.148L2369.03,211.095L2369.05,211.043L2369.07,210.99L2369.09,210.938L2369.11,210.887L2369.13,210.836L2369.16,210.786L2369.19,210.736L2369.22,210.686L2369.26,210.638L2369.3,210.589L2369.33,210.542L2369.38,210.495L2369.42,210.448L2369.47,210.402L2369.51,210.357L2369.56,210.312L2369.62,210.268L2369.67,210.225L2369.73,210.183L2369.78,210.141L2369.85,210.1L2369.91,210.059L2369.97,210.02L2370.04,209.981L2370.11,209.943L2370.17,209.906L2370.24,209.87L2370.32,209.834L2370.39,209.8L2370.47,209.766L2370.55,209.733L2370.63,209.701L2370.71,209.67L2370.79,209.64L2370.87,209.611L2370.96,209.583L2371.05,209.556L2371.14,209.53L2371.22,209.505L2371.32,209.481L2371.41,209.459L2371.5,209.437L2371.6,209.416L2371.69,209.397L2371.79,209.378L2371.89,209.361L2371.99,209.345L2372.09,209.33L2372.19,209.317L2372.29,209.304L2372.39,209.293L2372.5,209.283L2372.6,209.274L2372.71,209.267L2372.82,209.261L2372.92,209.256L2373.03,209.253L2373.14,209.251L2373.25,209.25L2415.75,209.25L2415.86,209.251ZM2373.26,209.779L2373.17,209.779L2373.09,209.781L2373,209.783L2372.92,209.787L2372.84,209.791L2372.76,209.797L2372.68,209.803L2372.61,209.811L2372.53,209.819L2372.45,209.828L2372.38,209.839L2372.3,209.85L2372.23,209.862L2372.16,209.875L2372.08,209.888L2372.01,209.903L2371.94,209.919L2371.87,209.935L2371.8,209.952L2371.73,209.97L2371.66,209.988L2371.6,210.008L2371.53,210.028L2371.47,210.049L2371.41,210.071L2371.34,210.094L2371.28,210.117L2371.22,210.141L2371.16,210.166L2371.11,210.19L2371.05,210.216L2371,210.244L2370.94,210.271L2370.89,210.298L2370.84,210.327L2370.79,210.356L2370.74,210.386L2370.7,210.416L2370.65,210.447L2370.61,210.478L2370.56,210.51L2370.52,210.543L2370.49,210.576L2370.45,210.609L2370.41,210.643L2370.38,210.678L2370.34,210.712L2370.31,210.748L2370.28,210.784L2370.26,210.819L2370.23,210.856L2370.21,210.893L2370.18,210.931L2370.16,210.968L2370.14,211.006L2370.13,211.045L2370.11,211.083L2370.1,211.122L2370.09,211.162L2370.08,211.202L2370.07,211.242L2370.07,211.282L2370.06,211.323L2370.06,211.368L2370.06,233.561L2370.06,233.605L2370.07,233.647L2370.07,233.687L2370.08,233.727L2370.09,233.766L2370.1,233.807L2370.11,233.846L2370.13,233.884L2370.14,233.923L2370.16,233.961L2370.18,233.998L2370.21,234.036L2370.23,234.073L2370.26,234.11L2370.28,234.145L2370.31,234.181L2370.34,234.217L2370.38,234.251L2370.41,234.286L2370.45,234.319L2370.49,234.353L2370.52,234.386L2370.56,234.418L2370.61,234.45L2370.65,234.482L2370.7,234.512L2370.74,234.543L2370.79,234.573L2370.84,234.601L2370.89,234.63L2370.94,234.658L2371,234.685L2371.05,234.712L2371.11,234.738L2371.16,234.763L2371.22,234.788L2371.28,234.812L2371.34,234.835L2371.41,234.858L2371.47,234.879L2371.53,234.9L2371.6,234.921L2371.66,234.94L2371.73,234.959L2371.8,234.977L2371.87,234.994L2371.94,235.01L2372.01,235.026L2372.08,235.04L2372.16,235.054L2372.23,235.067L2372.3,235.079L2372.38,235.09L2372.45,235.1L2372.53,235.11L2372.61,235.118L2372.68,235.125L2372.76,235.132L2372.84,235.137L2372.92,235.142L2373,235.146L2373.09,235.148L2373.17,235.15L2373.26,235.15L2415.74,235.15L2415.83,235.15L2415.91,235.148L2416,235.146L2416.08,235.142L2416.16,235.137L2416.24,235.132L2416.32,235.125L2416.39,235.118L2416.47,235.11L2416.55,235.1L2416.62,235.09L2416.7,235.079L2416.77,235.067L2416.84,235.054L2416.92,235.04L2416.99,235.026L2417.06,235.01L2417.13,234.994L2417.2,234.977L2417.27,234.959L2417.34,234.94L2417.4,234.921L2417.47,234.9L2417.53,234.879L2417.59,234.858L2417.66,234.835L2417.72,234.812L2417.78,234.788L2417.84,234.763L2417.89,234.738L2417.95,234.712L2418,234.685L2418.06,234.658L2418.11,234.63L2418.16,234.601L2418.21,234.573L2418.26,234.543L2418.3,234.512L2418.35,234.482L2418.39,234.45L2418.44,234.418L2418.48,234.386L2418.51,234.353L2418.55,234.319L2418.59,234.286L2418.62,234.251L2418.66,234.217L2418.69,234.181L2418.72,234.145L2418.74,234.11L2418.77,234.073L2418.79,234.036L2418.82,233.998L2418.84,233.961L2418.86,233.923L2418.87,233.884L2418.89,233.846L2418.9,233.807L2418.91,233.766L2418.92,233.727L2418.93,233.687L2418.93,233.647L2418.94,233.605L2418.94,233.561L2418.94,211.368L2418.94,211.323L2418.93,211.282L2418.93,211.242L2418.92,211.202L2418.91,211.162L2418.9,211.122L2418.89,211.083L2418.87,211.045L2418.86,211.006L2418.84,210.968L2418.82,210.931L2418.79,210.893L2418.77,210.856L2418.74,210.819L2418.72,210.784L2418.69,210.748L2418.66,210.712L2418.62,210.678L2418.59,210.643L2418.55,210.609L2418.51,210.576L2418.48,210.543L2418.44,210.51L2418.39,210.478L2418.35,210.447L2418.3,210.416L2418.26,210.386L2418.21,210.356L2418.16,210.327L2418.11,210.298L2418.06,210.271L2418,210.244L2417.95,210.216L2417.89,210.19L2417.84,210.166L2417.78,210.141L2417.72,210.117L2417.66,210.094L2417.59,210.071L2417.53,210.049L2417.47,210.028L2417.4,210.008L2417.34,209.988L2417.27,209.97L2417.2,209.952L2417.13,209.935L2417.06,209.919L2416.99,209.903L2416.92,209.888L2416.84,209.875L2416.77,209.862L2416.7,209.85L2416.62,209.839L2416.55,209.828L2416.47,209.819L2416.39,209.811L2416.32,209.803L2416.24,209.797L2416.16,209.791L2416.08,209.787L2416,209.783L2415.91,209.781L2415.83,209.779L2415.74,209.779L2373.26,209.779Z" style="fill:rgb(51,51,51);"/>
                        </g>
                    </g>
                </g>
                <g transform="matrix(0.470588,0,0,0.945936,370.266,-185.352)">
                    <g id="B">
                        <g id="B1" serif:id="B">
                            <path d="M2420,211.364C2420,210.197 2418.1,209.25 2415.75,209.25L2373.25,209.25C2370.9,209.25 2369,210.197 2369,211.364L2369,233.565C2369,234.731 2370.9,235.679 2373.25,235.679L2415.75,235.679C2418.1,235.679 2420,234.731 2420,233.565L2420,211.364Z" style="fill:url(#_Linear3);"/>
                            <path d="M2415.86,209.251L2415.97,209.253L2416.08,209.256L2416.18,209.261L2416.29,209.267L2416.4,209.274L2416.5,209.283L2416.61,209.293L2416.71,209.304L2416.81,209.317L2416.91,209.33L2417.01,209.345L2417.11,209.361L2417.21,209.378L2417.31,209.397L2417.4,209.416L2417.5,209.437L2417.59,209.459L2417.68,209.481L2417.78,209.505L2417.87,209.53L2417.95,209.556L2418.04,209.583L2418.13,209.611L2418.21,209.64L2418.29,209.67L2418.37,209.701L2418.45,209.733L2418.53,209.766L2418.61,209.8L2418.68,209.834L2418.76,209.87L2418.83,209.906L2418.89,209.943L2418.96,209.981L2419.03,210.02L2419.09,210.059L2419.16,210.1L2419.22,210.141L2419.27,210.183L2419.33,210.225L2419.38,210.268L2419.44,210.312L2419.49,210.357L2419.53,210.402L2419.58,210.448L2419.62,210.495L2419.67,210.542L2419.7,210.589L2419.74,210.638L2419.78,210.686L2419.81,210.736L2419.84,210.786L2419.87,210.836L2419.89,210.887L2419.91,210.938L2419.93,210.99L2419.95,211.043L2419.97,211.095L2419.98,211.148L2419.99,211.202L2419.99,211.256L2420,211.31L2420,211.364L2420,233.565L2420,233.619L2419.99,233.673L2419.99,233.727L2419.98,233.781L2419.97,233.834L2419.95,233.886L2419.93,233.939L2419.91,233.99L2419.89,234.042L2419.87,234.093L2419.84,234.143L2419.81,234.193L2419.78,234.242L2419.74,234.291L2419.7,234.339L2419.67,234.387L2419.62,234.434L2419.58,234.481L2419.53,234.527L2419.49,234.572L2419.44,234.617L2419.38,234.661L2419.33,234.704L2419.27,234.746L2419.22,234.788L2419.16,234.829L2419.09,234.87L2419.03,234.909L2418.96,234.948L2418.89,234.986L2418.83,235.023L2418.76,235.059L2418.68,235.095L2418.61,235.129L2418.53,235.163L2418.45,235.196L2418.37,235.228L2418.29,235.259L2418.21,235.289L2418.13,235.318L2418.04,235.346L2417.95,235.373L2417.87,235.399L2417.78,235.424L2417.68,235.447L2417.59,235.47L2417.5,235.492L2417.4,235.513L2417.31,235.532L2417.21,235.55L2417.11,235.568L2417.01,235.584L2416.91,235.599L2416.81,235.612L2416.71,235.625L2416.61,235.636L2416.5,235.646L2416.4,235.654L2416.29,235.662L2416.18,235.668L2416.08,235.673L2415.97,235.676L2415.86,235.678L2415.75,235.679L2373.25,235.679L2373.14,235.678L2373.03,235.676L2372.92,235.673L2372.82,235.668L2372.71,235.662L2372.6,235.654L2372.5,235.646L2372.39,235.636L2372.29,235.625L2372.19,235.612L2372.09,235.599L2371.99,235.584L2371.89,235.568L2371.79,235.55L2371.69,235.532L2371.6,235.513L2371.5,235.492L2371.41,235.47L2371.32,235.447L2371.22,235.424L2371.14,235.399L2371.05,235.373L2370.96,235.346L2370.87,235.318L2370.79,235.289L2370.71,235.259L2370.63,235.228L2370.55,235.196L2370.47,235.163L2370.39,235.129L2370.32,235.095L2370.24,235.059L2370.17,235.023L2370.11,234.986L2370.04,234.948L2369.97,234.909L2369.91,234.87L2369.85,234.829L2369.78,234.788L2369.73,234.746L2369.67,234.704L2369.62,234.661L2369.56,234.617L2369.51,234.572L2369.47,234.527L2369.42,234.481L2369.38,234.434L2369.33,234.387L2369.3,234.339L2369.26,234.291L2369.22,234.242L2369.19,234.193L2369.16,234.143L2369.13,234.093L2369.11,234.042L2369.09,233.99L2369.07,233.939L2369.05,233.886L2369.03,233.834L2369.02,233.781L2369.01,233.727L2369.01,233.673L2369,233.619L2369,233.565L2369,211.364L2369,211.31L2369.01,211.256L2369.01,211.202L2369.02,211.148L2369.03,211.095L2369.05,211.043L2369.07,210.99L2369.09,210.938L2369.11,210.887L2369.13,210.836L2369.16,210.786L2369.19,210.736L2369.22,210.686L2369.26,210.638L2369.3,210.589L2369.33,210.542L2369.38,210.495L2369.42,210.448L2369.47,210.402L2369.51,210.357L2369.56,210.312L2369.62,210.268L2369.67,210.225L2369.73,210.183L2369.78,210.141L2369.85,210.1L2369.91,210.059L2369.97,210.02L2370.04,209.981L2370.11,209.943L2370.17,209.906L2370.24,209.87L2370.32,209.834L2370.39,209.8L2370.47,209.766L2370.55,209.733L2370.63,209.701L2370.71,209.67L2370.79,209.64L2370.87,209.611L2370.96,209.583L2371.05,209.556L2371.14,209.53L2371.22,209.505L2371.32,209.481L2371.41,209.459L2371.5,209.437L2371.6,209.416L2371.69,209.397L2371.79,209.378L2371.89,209.361L2371.99,209.345L2372.09,209.33L2372.19,209.317L2372.29,209.304L2372.39,209.293L2372.5,209.283L2372.6,209.274L2372.71,209.267L2372.82,209.261L2372.92,209.256L2373.03,209.253L2373.14,209.251L2373.25,209.25L2415.75,209.25L2415.86,209.251ZM2373.26,209.779L2373.17,209.779L2373.09,209.781L2373,209.783L2372.92,209.787L2372.84,209.791L2372.76,209.797L2372.68,209.803L2372.61,209.811L2372.53,209.819L2372.45,209.828L2372.38,209.839L2372.3,209.85L2372.23,209.862L2372.16,209.875L2372.08,209.888L2372.01,209.903L2371.94,209.919L2371.87,209.935L2371.8,209.952L2371.73,209.97L2371.66,209.988L2371.6,210.008L2371.53,210.028L2371.47,210.049L2371.41,210.071L2371.34,210.094L2371.28,210.117L2371.22,210.141L2371.16,210.166L2371.11,210.19L2371.05,210.216L2371,210.244L2370.94,210.271L2370.89,210.298L2370.84,210.327L2370.79,210.356L2370.74,210.386L2370.7,210.416L2370.65,210.447L2370.61,210.478L2370.56,210.51L2370.52,210.543L2370.49,210.576L2370.45,210.609L2370.41,210.643L2370.38,210.678L2370.34,210.712L2370.31,210.748L2370.28,210.784L2370.26,210.819L2370.23,210.856L2370.21,210.893L2370.18,210.931L2370.16,210.968L2370.14,211.006L2370.13,211.045L2370.11,211.083L2370.1,211.122L2370.09,211.162L2370.08,211.202L2370.07,211.242L2370.07,211.282L2370.06,211.323L2370.06,211.368L2370.06,233.561L2370.06,233.605L2370.07,233.647L2370.07,233.687L2370.08,233.727L2370.09,233.766L2370.1,233.807L2370.11,233.846L2370.13,233.884L2370.14,233.923L2370.16,233.961L2370.18,233.998L2370.21,234.036L2370.23,234.073L2370.26,234.11L2370.28,234.145L2370.31,234.181L2370.34,234.217L2370.38,234.251L2370.41,234.286L2370.45,234.319L2370.49,234.353L2370.52,234.386L2370.56,234.418L2370.61,234.45L2370.65,234.482L2370.7,234.512L2370.74,234.543L2370.79,234.573L2370.84,234.601L2370.89,234.63L2370.94,234.658L2371,234.685L2371.05,234.712L2371.11,234.738L2371.16,234.763L2371.22,234.788L2371.28,234.812L2371.34,234.835L2371.41,234.858L2371.47,234.879L2371.53,234.9L2371.6,234.921L2371.66,234.94L2371.73,234.959L2371.8,234.977L2371.87,234.994L2371.94,235.01L2372.01,235.026L2372.08,235.04L2372.16,235.054L2372.23,235.067L2372.3,235.079L2372.38,235.09L2372.45,235.1L2372.53,235.11L2372.61,235.118L2372.68,235.125L2372.76,235.132L2372.84,235.137L2372.92,235.142L2373,235.146L2373.09,235.148L2373.17,235.15L2373.26,235.15L2415.74,235.15L2415.83,235.15L2415.91,235.148L2416,235.146L2416.08,235.142L2416.16,235.137L2416.24,235.132L2416.32,235.125L2416.39,235.118L2416.47,235.11L2416.55,235.1L2416.62,235.09L2416.7,235.079L2416.77,235.067L2416.84,235.054L2416.92,235.04L2416.99,235.026L2417.06,235.01L2417.13,234.994L2417.2,234.977L2417.27,234.959L2417.34,234.94L2417.4,234.921L2417.47,234.9L2417.53,234.879L2417.59,234.858L2417.66,234.835L2417.72,234.812L2417.78,234.788L2417.84,234.763L2417.89,234.738L2417.95,234.712L2418,234.685L2418.06,234.658L2418.11,234.63L2418.16,234.601L2418.21,234.573L2418.26,234.543L2418.3,234.512L2418.35,234.482L2418.39,234.45L2418.44,234.418L2418.48,234.386L2418.51,234.353L2418.55,234.319L2418.59,234.286L2418.62,234.251L2418.66,234.217L2418.69,234.181L2418.72,234.145L2418.74,234.11L2418.77,234.073L2418.79,234.036L2418.82,233.998L2418.84,233.961L2418.86,233.923L2418.87,233.884L2418.89,233.846L2418.9,233.807L2418.91,233.766L2418.92,233.727L2418.93,233.687L2418.93,233.647L2418.94,233.605L2418.94,233.561L2418.94,211.368L2418.94,211.323L2418.93,211.282L2418.93,211.242L2418.92,211.202L2418.91,211.162L2418.9,211.122L2418.89,211.083L2418.87,211.045L2418.86,211.006L2418.84,210.968L2418.82,210.931L2418.79,210.893L2418.77,210.856L2418.74,210.819L2418.72,210.784L2418.69,210.748L2418.66,210.712L2418.62,210.678L2418.59,210.643L2418.55,210.609L2418.51,210.576L2418.48,210.543L2418.44,210.51L2418.39,210.478L2418.35,210.447L2418.3,210.416L2418.26,210.386L2418.21,210.356L2418.16,210.327L2418.11,210.298L2418.06,210.271L2418,210.244L2417.95,210.216L2417.89,210.19L2417.84,210.166L2417.78,210.141L2417.72,210.117L2417.66,210.094L2417.59,210.071L2417.53,210.049L2417.47,210.028L2417.4,210.008L2417.34,209.988L2417.27,209.97L2417.2,209.952L2417.13,209.935L2417.06,209.919L2416.99,209.903L2416.92,209.888L2416.84,209.875L2416.77,209.862L2416.7,209.85L2416.62,209.839L2416.55,209.828L2416.47,209.819L2416.39,209.811L2416.32,209.803L2416.24,209.797L2416.16,209.791L2416.08,209.787L2416,209.783L2415.91,209.781L2415.83,209.779L2415.74,209.779L2373.26,209.779Z" style="fill:rgb(51,51,51);"/>
                        </g>
                    </g>
                </g>
                <g transform="matrix(0.470588,0,0,0.945936,344.266,-158.352)">
                    <g id="B2" serif:id="B">
                        <g id="B3" serif:id="B">
                            <path d="M2420,211.364C2420,210.197 2418.1,209.25 2415.75,209.25L2373.25,209.25C2370.9,209.25 2369,210.197 2369,211.364L2369,233.565C2369,234.731 2370.9,235.679 2373.25,235.679L2415.75,235.679C2418.1,235.679 2420,234.731 2420,233.565L2420,211.364Z" style="fill:url(#_Linear4);"/>
                            <path d="M2415.86,209.251L2415.97,209.253L2416.08,209.256L2416.18,209.261L2416.29,209.267L2416.4,209.274L2416.5,209.283L2416.61,209.293L2416.71,209.304L2416.81,209.317L2416.91,209.33L2417.01,209.345L2417.11,209.361L2417.21,209.378L2417.31,209.397L2417.4,209.416L2417.5,209.437L2417.59,209.459L2417.68,209.481L2417.78,209.505L2417.87,209.53L2417.95,209.556L2418.04,209.583L2418.13,209.611L2418.21,209.64L2418.29,209.67L2418.37,209.701L2418.45,209.733L2418.53,209.766L2418.61,209.8L2418.68,209.834L2418.76,209.87L2418.83,209.906L2418.89,209.943L2418.96,209.981L2419.03,210.02L2419.09,210.059L2419.16,210.1L2419.22,210.141L2419.27,210.183L2419.33,210.225L2419.38,210.268L2419.44,210.312L2419.49,210.357L2419.53,210.402L2419.58,210.448L2419.62,210.495L2419.67,210.542L2419.7,210.589L2419.74,210.638L2419.78,210.686L2419.81,210.736L2419.84,210.786L2419.87,210.836L2419.89,210.887L2419.91,210.938L2419.93,210.99L2419.95,211.043L2419.97,211.095L2419.98,211.148L2419.99,211.202L2419.99,211.256L2420,211.31L2420,211.364L2420,233.565L2420,233.619L2419.99,233.673L2419.99,233.727L2419.98,233.781L2419.97,233.834L2419.95,233.886L2419.93,233.939L2419.91,233.99L2419.89,234.042L2419.87,234.093L2419.84,234.143L2419.81,234.193L2419.78,234.242L2419.74,234.291L2419.7,234.339L2419.67,234.387L2419.62,234.434L2419.58,234.481L2419.53,234.527L2419.49,234.572L2419.44,234.617L2419.38,234.661L2419.33,234.704L2419.27,234.746L2419.22,234.788L2419.16,234.829L2419.09,234.87L2419.03,234.909L2418.96,234.948L2418.89,234.986L2418.83,235.023L2418.76,235.059L2418.68,235.095L2418.61,235.129L2418.53,235.163L2418.45,235.196L2418.37,235.228L2418.29,235.259L2418.21,235.289L2418.13,235.318L2418.04,235.346L2417.95,235.373L2417.87,235.399L2417.78,235.424L2417.68,235.447L2417.59,235.47L2417.5,235.492L2417.4,235.513L2417.31,235.532L2417.21,235.55L2417.11,235.568L2417.01,235.584L2416.91,235.599L2416.81,235.612L2416.71,235.625L2416.61,235.636L2416.5,235.646L2416.4,235.654L2416.29,235.662L2416.18,235.668L2416.08,235.673L2415.97,235.676L2415.86,235.678L2415.75,235.679L2373.25,235.679L2373.14,235.678L2373.03,235.676L2372.92,235.673L2372.82,235.668L2372.71,235.662L2372.6,235.654L2372.5,235.646L2372.39,235.636L2372.29,235.625L2372.19,235.612L2372.09,235.599L2371.99,235.584L2371.89,235.568L2371.79,235.55L2371.69,235.532L2371.6,235.513L2371.5,235.492L2371.41,235.47L2371.32,235.447L2371.22,235.424L2371.14,235.399L2371.05,235.373L2370.96,235.346L2370.87,235.318L2370.79,235.289L2370.71,235.259L2370.63,235.228L2370.55,235.196L2370.47,235.163L2370.39,235.129L2370.32,235.095L2370.24,235.059L2370.17,235.023L2370.11,234.986L2370.04,234.948L2369.97,234.909L2369.91,234.87L2369.85,234.829L2369.78,234.788L2369.73,234.746L2369.67,234.704L2369.62,234.661L2369.56,234.617L2369.51,234.572L2369.47,234.527L2369.42,234.481L2369.38,234.434L2369.33,234.387L2369.3,234.339L2369.26,234.291L2369.22,234.242L2369.19,234.193L2369.16,234.143L2369.13,234.093L2369.11,234.042L2369.09,233.99L2369.07,233.939L2369.05,233.886L2369.03,233.834L2369.02,233.781L2369.01,233.727L2369.01,233.673L2369,233.619L2369,233.565L2369,211.364L2369,211.31L2369.01,211.256L2369.01,211.202L2369.02,211.148L2369.03,211.095L2369.05,211.043L2369.07,210.99L2369.09,210.938L2369.11,210.887L2369.13,210.836L2369.16,210.786L2369.19,210.736L2369.22,210.686L2369.26,210.638L2369.3,210.589L2369.33,210.542L2369.38,210.495L2369.42,210.448L2369.47,210.402L2369.51,210.357L2369.56,210.312L2369.62,210.268L2369.67,210.225L2369.73,210.183L2369.78,210.141L2369.85,210.1L2369.91,210.059L2369.97,210.02L2370.04,209.981L2370.11,209.943L2370.17,209.906L2370.24,209.87L2370.32,209.834L2370.39,209.8L2370.47,209.766L2370.55,209.733L2370.63,209.701L2370.71,209.67L2370.79,209.64L2370.87,209.611L2370.96,209.583L2371.05,209.556L2371.14,209.53L2371.22,209.505L2371.32,209.481L2371.41,209.459L2371.5,209.437L2371.6,209.416L2371.69,209.397L2371.79,209.378L2371.89,209.361L2371.99,209.345L2372.09,209.33L2372.19,209.317L2372.29,209.304L2372.39,209.293L2372.5,209.283L2372.6,209.274L2372.71,209.267L2372.82,209.261L2372.92,209.256L2373.03,209.253L2373.14,209.251L2373.25,209.25L2415.75,209.25L2415.86,209.251ZM2373.26,209.779L2373.17,209.779L2373.09,209.781L2373,209.783L2372.92,209.787L2372.84,209.791L2372.76,209.797L2372.68,209.803L2372.61,209.811L2372.53,209.819L2372.45,209.828L2372.38,209.839L2372.3,209.85L2372.23,209.862L2372.16,209.875L2372.08,209.888L2372.01,209.903L2371.94,209.919L2371.87,209.935L2371.8,209.952L2371.73,209.97L2371.66,209.988L2371.6,210.008L2371.53,210.028L2371.47,210.049L2371.41,210.071L2371.34,210.094L2371.28,210.117L2371.22,210.141L2371.16,210.166L2371.11,210.19L2371.05,210.216L2371,210.244L2370.94,210.271L2370.89,210.298L2370.84,210.327L2370.79,210.356L2370.74,210.386L2370.7,210.416L2370.65,210.447L2370.61,210.478L2370.56,210.51L2370.52,210.543L2370.49,210.576L2370.45,210.609L2370.41,210.643L2370.38,210.678L2370.34,210.712L2370.31,210.748L2370.28,210.784L2370.26,210.819L2370.23,210.856L2370.21,210.893L2370.18,210.931L2370.16,210.968L2370.14,211.006L2370.13,211.045L2370.11,211.083L2370.1,211.122L2370.09,211.162L2370.08,211.202L2370.07,211.242L2370.07,211.282L2370.06,211.323L2370.06,211.368L2370.06,233.561L2370.06,233.605L2370.07,233.647L2370.07,233.687L2370.08,233.727L2370.09,233.766L2370.1,233.807L2370.11,233.846L2370.13,233.884L2370.14,233.923L2370.16,233.961L2370.18,233.998L2370.21,234.036L2370.23,234.073L2370.26,234.11L2370.28,234.145L2370.31,234.181L2370.34,234.217L2370.38,234.251L2370.41,234.286L2370.45,234.319L2370.49,234.353L2370.52,234.386L2370.56,234.418L2370.61,234.45L2370.65,234.482L2370.7,234.512L2370.74,234.543L2370.79,234.573L2370.84,234.601L2370.89,234.63L2370.94,234.658L2371,234.685L2371.05,234.712L2371.11,234.738L2371.16,234.763L2371.22,234.788L2371.28,234.812L2371.34,234.835L2371.41,234.858L2371.47,234.879L2371.53,234.9L2371.6,234.921L2371.66,234.94L2371.73,234.959L2371.8,234.977L2371.87,234.994L2371.94,235.01L2372.01,235.026L2372.08,235.04L2372.16,235.054L2372.23,235.067L2372.3,235.079L2372.38,235.09L2372.45,235.1L2372.53,235.11L2372.61,235.118L2372.68,235.125L2372.76,235.132L2372.84,235.137L2372.92,235.142L2373,235.146L2373.09,235.148L2373.17,235.15L2373.26,235.15L2415.74,235.15L2415.83,235.15L2415.91,235.148L2416,235.146L2416.08,235.142L2416.16,235.137L2416.24,235.132L2416.32,235.125L2416.39,235.118L2416.47,235.11L2416.55,235.1L2416.62,235.09L2416.7,235.079L2416.77,235.067L2416.84,235.054L2416.92,235.04L2416.99,235.026L2417.06,235.01L2417.13,234.994L2417.2,234.977L2417.27,234.959L2417.34,234.94L2417.4,234.921L2417.47,234.9L2417.53,234.879L2417.59,234.858L2417.66,234.835L2417.72,234.812L2417.78,234.788L2417.84,234.763L2417.89,234.738L2417.95,234.712L2418,234.685L2418.06,234.658L2418.11,234.63L2418.16,234.601L2418.21,234.573L2418.26,234.543L2418.3,234.512L2418.35,234.482L2418.39,234.45L2418.44,234.418L2418.48,234.386L2418.51,234.353L2418.55,234.319L2418.59,234.286L2418.62,234.251L2418.66,234.217L2418.69,234.181L2418.72,234.145L2418.74,234.11L2418.77,234.073L2418.79,234.036L2418.82,233.998L2418.84,233.961L2418.86,233.923L2418.87,233.884L2418.89,233.846L2418.9,233.807L2418.91,233.766L2418.92,233.727L2418.93,233.687L2418.93,233.647L2418.94,233.605L2418.94,233.561L2418.94,211.368L2418.94,211.323L2418.93,211.282L2418.93,211.242L2418.92,211.202L2418.91,211.162L2418.9,211.122L2418.89,211.083L2418.87,211.045L2418.86,211.006L2418.84,210.968L2418.82,210.931L2418.79,210.893L2418.77,210.856L2418.74,210.819L2418.72,210.784L2418.69,210.748L2418.66,210.712L2418.62,210.678L2418.59,210.643L2418.55,210.609L2418.51,210.576L2418.48,210.543L2418.44,210.51L2418.39,210.478L2418.35,210.447L2418.3,210.416L2418.26,210.386L2418.21,210.356L2418.16,210.327L2418.11,210.298L2418.06,210.271L2418,210.244L2417.95,210.216L2417.89,210.19L2417.84,210.166L2417.78,210.141L2417.72,210.117L2417.66,210.094L2417.59,210.071L2417.53,210.049L2417.47,210.028L2417.4,210.008L2417.34,209.988L2417.27,209.97L2417.2,209.952L2417.13,209.935L2417.06,209.919L2416.99,209.903L2416.92,209.888L2416.84,209.875L2416.77,209.862L2416.7,209.85L2416.62,209.839L2416.55,209.828L2416.47,209.819L2416.39,209.811L2416.32,209.803L2416.24,209.797L2416.16,209.791L2416.08,209.787L2416,209.783L2415.91,209.781L2415.83,209.779L2415.74,209.779L2373.26,209.779Z" style="fill:rgb(51,51,51);"/>
                        </g>
                    </g>
                </g>
                <g transform="matrix(0.470588,0,0,0.945936,370.266,-158.352)">
                    <g id="A2" serif:id="A">
                        <g id="A3" serif:id="A">
                            <path d="M2420,211.364C2420,210.197 2418.1,209.25 2415.75,209.25L2373.25,209.25C2370.9,209.25 2369,210.197 2369,211.364L2369,233.565C2369,234.731 2370.9,235.679 2373.25,235.679L2415.75,235.679C2418.1,235.679 2420,234.731 2420,233.565L2420,211.364Z" style="fill:url(#_Linear5);"/>
                            <path d="M2415.86,209.251L2415.97,209.253L2416.08,209.256L2416.18,209.261L2416.29,209.267L2416.4,209.274L2416.5,209.283L2416.61,209.293L2416.71,209.304L2416.81,209.317L2416.91,209.33L2417.01,209.345L2417.11,209.361L2417.21,209.378L2417.31,209.397L2417.4,209.416L2417.5,209.437L2417.59,209.459L2417.68,209.481L2417.78,209.505L2417.87,209.53L2417.95,209.556L2418.04,209.583L2418.13,209.611L2418.21,209.64L2418.29,209.67L2418.37,209.701L2418.45,209.733L2418.53,209.766L2418.61,209.8L2418.68,209.834L2418.76,209.87L2418.83,209.906L2418.89,209.943L2418.96,209.981L2419.03,210.02L2419.09,210.059L2419.16,210.1L2419.22,210.141L2419.27,210.183L2419.33,210.225L2419.38,210.268L2419.44,210.312L2419.49,210.357L2419.53,210.402L2419.58,210.448L2419.62,210.495L2419.67,210.542L2419.7,210.589L2419.74,210.638L2419.78,210.686L2419.81,210.736L2419.84,210.786L2419.87,210.836L2419.89,210.887L2419.91,210.938L2419.93,210.99L2419.95,211.043L2419.97,211.095L2419.98,211.148L2419.99,211.202L2419.99,211.256L2420,211.31L2420,211.364L2420,233.565L2420,233.619L2419.99,233.673L2419.99,233.727L2419.98,233.781L2419.97,233.834L2419.95,233.886L2419.93,233.939L2419.91,233.99L2419.89,234.042L2419.87,234.093L2419.84,234.143L2419.81,234.193L2419.78,234.242L2419.74,234.291L2419.7,234.339L2419.67,234.387L2419.62,234.434L2419.58,234.481L2419.53,234.527L2419.49,234.572L2419.44,234.617L2419.38,234.661L2419.33,234.704L2419.27,234.746L2419.22,234.788L2419.16,234.829L2419.09,234.87L2419.03,234.909L2418.96,234.948L2418.89,234.986L2418.83,235.023L2418.76,235.059L2418.68,235.095L2418.61,235.129L2418.53,235.163L2418.45,235.196L2418.37,235.228L2418.29,235.259L2418.21,235.289L2418.13,235.318L2418.04,235.346L2417.95,235.373L2417.87,235.399L2417.78,235.424L2417.68,235.447L2417.59,235.47L2417.5,235.492L2417.4,235.513L2417.31,235.532L2417.21,235.55L2417.11,235.568L2417.01,235.584L2416.91,235.599L2416.81,235.612L2416.71,235.625L2416.61,235.636L2416.5,235.646L2416.4,235.654L2416.29,235.662L2416.18,235.668L2416.08,235.673L2415.97,235.676L2415.86,235.678L2415.75,235.679L2373.25,235.679L2373.14,235.678L2373.03,235.676L2372.92,235.673L2372.82,235.668L2372.71,235.662L2372.6,235.654L2372.5,235.646L2372.39,235.636L2372.29,235.625L2372.19,235.612L2372.09,235.599L2371.99,235.584L2371.89,235.568L2371.79,235.55L2371.69,235.532L2371.6,235.513L2371.5,235.492L2371.41,235.47L2371.32,235.447L2371.22,235.424L2371.14,235.399L2371.05,235.373L2370.96,235.346L2370.87,235.318L2370.79,235.289L2370.71,235.259L2370.63,235.228L2370.55,235.196L2370.47,235.163L2370.39,235.129L2370.32,235.095L2370.24,235.059L2370.17,235.023L2370.11,234.986L2370.04,234.948L2369.97,234.909L2369.91,234.87L2369.85,234.829L2369.78,234.788L2369.73,234.746L2369.67,234.704L2369.62,234.661L2369.56,234.617L2369.51,234.572L2369.47,234.527L2369.42,234.481L2369.38,234.434L2369.33,234.387L2369.3,234.339L2369.26,234.291L2369.22,234.242L2369.19,234.193L2369.16,234.143L2369.13,234.093L2369.11,234.042L2369.09,233.99L2369.07,233.939L2369.05,233.886L2369.03,233.834L2369.02,233.781L2369.01,233.727L2369.01,233.673L2369,233.619L2369,233.565L2369,211.364L2369,211.31L2369.01,211.256L2369.01,211.202L2369.02,211.148L2369.03,211.095L2369.05,211.043L2369.07,210.99L2369.09,210.938L2369.11,210.887L2369.13,210.836L2369.16,210.786L2369.19,210.736L2369.22,210.686L2369.26,210.638L2369.3,210.589L2369.33,210.542L2369.38,210.495L2369.42,210.448L2369.47,210.402L2369.51,210.357L2369.56,210.312L2369.62,210.268L2369.67,210.225L2369.73,210.183L2369.78,210.141L2369.85,210.1L2369.91,210.059L2369.97,210.02L2370.04,209.981L2370.11,209.943L2370.17,209.906L2370.24,209.87L2370.32,209.834L2370.39,209.8L2370.47,209.766L2370.55,209.733L2370.63,209.701L2370.71,209.67L2370.79,209.64L2370.87,209.611L2370.96,209.583L2371.05,209.556L2371.14,209.53L2371.22,209.505L2371.32,209.481L2371.41,209.459L2371.5,209.437L2371.6,209.416L2371.69,209.397L2371.79,209.378L2371.89,209.361L2371.99,209.345L2372.09,209.33L2372.19,209.317L2372.29,209.304L2372.39,209.293L2372.5,209.283L2372.6,209.274L2372.71,209.267L2372.82,209.261L2372.92,209.256L2373.03,209.253L2373.14,209.251L2373.25,209.25L2415.75,209.25L2415.86,209.251ZM2373.26,209.779L2373.17,209.779L2373.09,209.781L2373,209.783L2372.92,209.787L2372.84,209.791L2372.76,209.797L2372.68,209.803L2372.61,209.811L2372.53,209.819L2372.45,209.828L2372.38,209.839L2372.3,209.85L2372.23,209.862L2372.16,209.875L2372.08,209.888L2372.01,209.903L2371.94,209.919L2371.87,209.935L2371.8,209.952L2371.73,209.97L2371.66,209.988L2371.6,210.008L2371.53,210.028L2371.47,210.049L2371.41,210.071L2371.34,210.094L2371.28,210.117L2371.22,210.141L2371.16,210.166L2371.11,210.19L2371.05,210.216L2371,210.244L2370.94,210.271L2370.89,210.298L2370.84,210.327L2370.79,210.356L2370.74,210.386L2370.7,210.416L2370.65,210.447L2370.61,210.478L2370.56,210.51L2370.52,210.543L2370.49,210.576L2370.45,210.609L2370.41,210.643L2370.38,210.678L2370.34,210.712L2370.31,210.748L2370.28,210.784L2370.26,210.819L2370.23,210.856L2370.21,210.893L2370.18,210.931L2370.16,210.968L2370.14,211.006L2370.13,211.045L2370.11,211.083L2370.1,211.122L2370.09,211.162L2370.08,211.202L2370.07,211.242L2370.07,211.282L2370.06,211.323L2370.06,211.368L2370.06,233.561L2370.06,233.605L2370.07,233.647L2370.07,233.687L2370.08,233.727L2370.09,233.766L2370.1,233.807L2370.11,233.846L2370.13,233.884L2370.14,233.923L2370.16,233.961L2370.18,233.998L2370.21,234.036L2370.23,234.073L2370.26,234.11L2370.28,234.145L2370.31,234.181L2370.34,234.217L2370.38,234.251L2370.41,234.286L2370.45,234.319L2370.49,234.353L2370.52,234.386L2370.56,234.418L2370.61,234.45L2370.65,234.482L2370.7,234.512L2370.74,234.543L2370.79,234.573L2370.84,234.601L2370.89,234.63L2370.94,234.658L2371,234.685L2371.05,234.712L2371.11,234.738L2371.16,234.763L2371.22,234.788L2371.28,234.812L2371.34,234.835L2371.41,234.858L2371.47,234.879L2371.53,234.9L2371.6,234.921L2371.66,234.94L2371.73,234.959L2371.8,234.977L2371.87,234.994L2371.94,235.01L2372.01,235.026L2372.08,235.04L2372.16,235.054L2372.23,235.067L2372.3,235.079L2372.38,235.09L2372.45,235.1L2372.53,235.11L2372.61,235.118L2372.68,235.125L2372.76,235.132L2372.84,235.137L2372.92,235.142L2373,235.146L2373.09,235.148L2373.17,235.15L2373.26,235.15L2415.74,235.15L2415.83,235.15L2415.91,235.148L2416,235.146L2416.08,235.142L2416.16,235.137L2416.24,235.132L2416.32,235.125L2416.39,235.118L2416.47,235.11L2416.55,235.1L2416.62,235.09L2416.7,235.079L2416.77,235.067L2416.84,235.054L2416.92,235.04L2416.99,235.026L2417.06,235.01L2417.13,234.994L2417.2,234.977L2417.27,234.959L2417.34,234.94L2417.4,234.921L2417.47,234.9L2417.53,234.879L2417.59,234.858L2417.66,234.835L2417.72,234.812L2417.78,234.788L2417.84,234.763L2417.89,234.738L2417.95,234.712L2418,234.685L2418.06,234.658L2418.11,234.63L2418.16,234.601L2418.21,234.573L2418.26,234.543L2418.3,234.512L2418.35,234.482L2418.39,234.45L2418.44,234.418L2418.48,234.386L2418.51,234.353L2418.55,234.319L2418.59,234.286L2418.62,234.251L2418.66,234.217L2418.69,234.181L2418.72,234.145L2418.74,234.11L2418.77,234.073L2418.79,234.036L2418.82,233.998L2418.84,233.961L2418.86,233.923L2418.87,233.884L2418.89,233.846L2418.9,233.807L2418.91,233.766L2418.92,233.727L2418.93,233.687L2418.93,233.647L2418.94,233.605L2418.94,233.561L2418.94,211.368L2418.94,211.323L2418.93,211.282L2418.93,211.242L2418.92,211.202L2418.91,211.162L2418.9,211.122L2418.89,211.083L2418.87,211.045L2418.86,211.006L2418.84,210.968L2418.82,210.931L2418.79,210.893L2418.77,210.856L2418.74,210.819L2418.72,210.784L2418.69,210.748L2418.66,210.712L2418.62,210.678L2418.59,210.643L2418.55,210.609L2418.51,210.576L2418.48,210.543L2418.44,210.51L2418.39,210.478L2418.35,210.447L2418.3,210.416L2418.26,210.386L2418.21,210.356L2418.16,210.327L2418.11,210.298L2418.06,210.271L2418,210.244L2417.95,210.216L2417.89,210.19L2417.84,210.166L2417.78,210.141L2417.72,210.117L2417.66,210.094L2417.59,210.071L2417.53,210.049L2417.47,210.028L2417.4,210.008L2417.34,209.988L2417.27,209.97L2417.2,209.952L2417.13,209.935L2417.06,209.919L2416.99,209.903L2416.92,209.888L2416.84,209.875L2416.77,209.862L2416.7,209.85L2416.62,209.839L2416.55,209.828L2416.47,209.819L2416.39,209.811L2416.32,209.803L2416.24,209.797L2416.16,209.791L2416.08,209.787L2416,209.783L2415.91,209.781L2415.83,209.779L2415.74,209.779L2373.26,209.779Z" style="fill:rgb(51,51,51);"/>
                        </g>
                    </g>
                </g>
                <g transform="matrix(1.91099,0,0,1.91099,-3069.87,-393.643)">
                    <text x="2373.16px" y="222.464px" style="font-family:'Roboto-Regular', 'Roboto';font-size:9.419px;">A</text>
                </g>
                <g transform="matrix(1.91099,0,0,1.91099,-3044.11,-393.643)">
                    <text x="2373.3px" y="222.464px" style="font-family:'Roboto-Regular', 'Roboto';font-size:9.419px;">B</text>
                </g>
                <g transform="matrix(1.91099,0,0,1.91099,-3069.87,-366.643)">
                    <text x="2373.16px" y="222.464px" style="font-family:'Roboto-Regular', 'Roboto';font-size:9.419px;">A</text>
                </g>
                <g transform="matrix(1.91099,0,0,1.91099,-3044.11,-366.643)">
                    <text x="2373.3px" y="222.464px" style="font-family:'Roboto-Regular', 'Roboto';font-size:9.419px;">B</text>
                </g>
            </g>
        </g>
    </g>
    <defs>
        <linearGradient id="_Linear2" x1="0" y1="0" x2="1" y2="0" gradientUnits="userSpaceOnUse" gradientTransform="matrix(1.6183e-15,26.4289,-26.4289,1.6183e-15,2394.5,209.25)"><stop offset="0" style="stop-color:rgb(240,158,50);stop-opacity:1"/><stop offset="1" style="stop-color:rgb(242,142,13);stop-opacity:1"/></linearGradient>
        <linearGradient id="_Linear3" x1="0" y1="0" x2="1" y2="0" gradientUnits="userSpaceOnUse" gradientTransform="matrix(1.6183e-15,26.4289,-26.4289,1.6183e-15,2394.5,209.25)"><stop offset="0" style="stop-color:rgb(204,204,204);stop-opacity:1"/><stop offset="1" style="stop-color:rgb(173,173,173);stop-opacity:1"/></linearGradient>
        <linearGradient id="_Linear4" x1="0" y1="0" x2="1" y2="0" gradientUnits="userSpaceOnUse" gradientTransform="matrix(1.6183e-15,26.4289,-26.4289,1.6183e-15,2394.5,209.25)"><stop offset="0" style="stop-color:rgb(204,204,204);stop-opacity:1"/><stop offset="1" style="stop-color:rgb(173,173,173);stop-opacity:1"/></linearGradient>
        <linearGradient id="_Linear5" x1="0" y1="0" x2="1" y2="0" gradientUnits="userSpaceOnUse" gradientTransform="matrix(1.6183e-15,26.4289,-26.4289,1.6183e-15,2394.5,209.25)"><stop offset="0" style="stop-color:rgb(240,158,50);stop-opacity:1"/><stop offset="1" style="stop-color:rgb(242,142,13);stop-opacity:1"/></linearGradient>
    </defs>
</svg>
