<?xml version="1.0" encoding="UTF-8" standalone="no"?>
<!DOCTYPE svg PUBLIC "-//W3C//DTD SVG 1.1//EN" "http://www.w3.org/Graphics/SVG/1.1/DTD/svg11.dtd">
<svg width="100%" height="100%" viewBox="0 0 12 36" version="1.1" xmlns="http://www.w3.org/2000/svg" xmlns:xlink="http://www.w3.org/1999/xlink" xml:space="preserve" xmlns:serif="http://www.serif.com/" style="fill-rule:evenodd;clip-rule:evenodd;stroke-linejoin:round;stroke-miterlimit:1.41421;">
    <g transform="matrix(1,0,0,1,-2451,-495)">
        <g id="bmp00121" transform="matrix(1,0,0,1,848.324,475.59)">
            <rect x="1602.68" y="19.41" width="12" height="36" style="fill:none;"/>
            <clipPath id="_clip1">
                <rect x="1602.68" y="19.41" width="12" height="36"/>
            </clipPath>
            <g clip-path="url(#_clip1)">
                <g transform="matrix(0.196078,0,0,0.416212,1138.17,-47.6826)">
                    <g id="A">
                        <g id="A1" serif:id="A">
                            <path d="M2420,212.854C2420,210.865 2416.57,209.25 2412.35,209.25L2376.65,209.25C2372.43,209.25 2369,210.865 2369,212.854L2369,232.075C2369,234.064 2372.43,235.679 2376.65,235.679L2412.35,235.679C2416.57,235.679 2420,234.064 2420,232.075L2420,212.854Z" style="fill:url(#_Linear2);"/>
                            <path d="M2412.55,209.251L2412.74,209.255L2412.94,209.261L2413.13,209.269L2413.32,209.279L2413.51,209.292L2413.7,209.306L2413.89,209.323L2414.08,209.342L2414.26,209.364L2414.44,209.387L2414.62,209.412L2414.8,209.439L2414.98,209.469L2415.15,209.5L2415.33,209.533L2415.5,209.569L2415.66,209.606L2415.83,209.645L2415.99,209.685L2416.16,209.728L2416.32,209.772L2416.47,209.818L2416.63,209.866L2416.78,209.915L2416.93,209.966L2417.07,210.019L2417.22,210.073L2417.36,210.129L2417.49,210.187L2417.63,210.246L2417.76,210.306L2417.89,210.368L2418.01,210.431L2418.13,210.496L2418.25,210.562L2418.37,210.629L2418.48,210.698L2418.59,210.768L2418.69,210.84L2418.79,210.912L2418.89,210.986L2418.99,211.061L2419.08,211.137L2419.16,211.214L2419.24,211.292L2419.32,211.371L2419.4,211.452L2419.47,211.533L2419.53,211.615L2419.6,211.699L2419.66,211.783L2419.71,211.868L2419.76,211.954L2419.8,212.04L2419.84,212.128L2419.88,212.216L2419.91,212.305L2419.94,212.395L2419.96,212.486L2419.98,212.577L2419.99,212.669L2420,212.761L2420,212.854L2420,232.075L2420,232.168L2419.99,232.26L2419.98,232.352L2419.96,232.443L2419.94,232.534L2419.91,232.623L2419.88,232.713L2419.84,232.801L2419.8,232.888L2419.76,232.975L2419.71,233.061L2419.66,233.146L2419.6,233.23L2419.53,233.314L2419.47,233.396L2419.4,233.477L2419.32,233.557L2419.24,233.637L2419.16,233.715L2419.08,233.792L2418.99,233.868L2418.89,233.943L2418.79,234.017L2418.69,234.089L2418.59,234.161L2418.48,234.231L2418.37,234.299L2418.25,234.367L2418.13,234.433L2418.01,234.498L2417.89,234.561L2417.76,234.623L2417.63,234.683L2417.49,234.742L2417.36,234.8L2417.22,234.855L2417.07,234.91L2416.93,234.962L2416.78,235.014L2416.63,235.063L2416.47,235.111L2416.32,235.157L2416.16,235.201L2415.99,235.244L2415.83,235.284L2415.66,235.323L2415.5,235.36L2415.33,235.395L2415.15,235.429L2414.98,235.46L2414.8,235.489L2414.62,235.517L2414.44,235.542L2414.26,235.565L2414.08,235.587L2413.89,235.606L2413.7,235.623L2413.51,235.637L2413.32,235.65L2413.13,235.66L2412.94,235.668L2412.74,235.674L2412.55,235.678L2412.35,235.679L2376.65,235.679L2376.45,235.678L2376.26,235.674L2376.06,235.668L2375.87,235.66L2375.68,235.65L2375.49,235.637L2375.3,235.623L2375.11,235.606L2374.92,235.587L2374.74,235.565L2374.56,235.542L2374.38,235.517L2374.2,235.489L2374.02,235.46L2373.85,235.429L2373.67,235.395L2373.5,235.36L2373.34,235.323L2373.17,235.284L2373.01,235.244L2372.84,235.201L2372.68,235.157L2372.53,235.111L2372.37,235.063L2372.22,235.014L2372.07,234.962L2371.93,234.91L2371.78,234.855L2371.64,234.8L2371.51,234.742L2371.37,234.683L2371.24,234.623L2371.11,234.561L2370.99,234.498L2370.87,234.433L2370.75,234.367L2370.63,234.299L2370.52,234.231L2370.41,234.161L2370.31,234.089L2370.21,234.017L2370.11,233.943L2370.01,233.868L2369.92,233.792L2369.84,233.715L2369.76,233.637L2369.68,233.557L2369.6,233.477L2369.53,233.396L2369.47,233.314L2369.4,233.23L2369.34,233.146L2369.29,233.061L2369.24,232.975L2369.2,232.888L2369.16,232.801L2369.12,232.713L2369.09,232.623L2369.06,232.534L2369.04,232.443L2369.02,232.352L2369.01,232.26L2369,232.168L2369,232.075L2369,212.854L2369,212.761L2369.01,212.669L2369.02,212.577L2369.04,212.486L2369.06,212.395L2369.09,212.305L2369.12,212.216L2369.16,212.128L2369.2,212.04L2369.24,211.954L2369.29,211.868L2369.34,211.783L2369.4,211.699L2369.47,211.615L2369.53,211.533L2369.6,211.452L2369.68,211.371L2369.76,211.292L2369.84,211.214L2369.92,211.137L2370.01,211.061L2370.11,210.986L2370.21,210.912L2370.31,210.84L2370.41,210.768L2370.52,210.698L2370.63,210.629L2370.75,210.562L2370.87,210.496L2370.99,210.431L2371.11,210.368L2371.24,210.306L2371.37,210.246L2371.51,210.187L2371.64,210.129L2371.78,210.073L2371.93,210.019L2372.07,209.966L2372.22,209.915L2372.37,209.866L2372.53,209.818L2372.68,209.772L2372.84,209.728L2373.01,209.685L2373.17,209.645L2373.34,209.606L2373.5,209.569L2373.67,209.533L2373.85,209.5L2374.02,209.469L2374.2,209.439L2374.38,209.412L2374.56,209.387L2374.74,209.364L2374.92,209.342L2375.11,209.323L2375.3,209.306L2375.49,209.292L2375.68,209.279L2375.87,209.269L2376.06,209.261L2376.26,209.255L2376.45,209.251L2376.65,209.25L2412.35,209.25L2412.55,209.251ZM2376.67,210.451L2376.52,210.452L2376.39,210.455L2376.26,210.458L2376.13,210.464L2376,210.471L2375.87,210.479L2375.74,210.489L2375.62,210.5L2375.5,210.513L2375.37,210.527L2375.26,210.542L2375.14,210.559L2375.01,210.578L2374.9,210.597L2374.78,210.617L2374.67,210.64L2374.55,210.664L2374.44,210.687L2374.33,210.714L2374.22,210.741L2374.11,210.77L2374.01,210.799L2373.91,210.829L2373.8,210.862L2373.7,210.894L2373.6,210.928L2373.5,210.963L2373.41,211L2373.31,211.037L2373.22,211.076L2373.14,211.114L2373.05,211.155L2372.96,211.198L2372.88,211.239L2372.79,211.284L2372.71,211.327L2372.64,211.372L2372.56,211.418L2372.49,211.464L2372.42,211.512L2372.35,211.561L2372.28,211.611L2372.23,211.658L2372.16,211.71L2372.1,211.764L2372.05,211.814L2372,211.865L2371.95,211.918L2371.9,211.975L2371.86,212.029L2371.82,212.081L2371.78,212.141L2371.74,212.198L2371.71,212.252L2371.68,212.311L2371.66,212.367L2371.63,212.428L2371.61,212.49L2371.59,212.548L2371.58,212.607L2371.57,212.668L2371.56,212.729L2371.55,212.791L2371.55,212.863L2371.55,232.066L2371.55,232.138L2371.56,232.2L2371.57,232.261L2371.58,232.321L2371.59,232.381L2371.61,232.439L2371.63,232.501L2371.66,232.562L2371.68,232.618L2371.71,232.677L2371.74,232.731L2371.78,232.788L2371.82,232.848L2371.86,232.9L2371.9,232.954L2371.95,233.011L2372,233.063L2372.05,233.115L2372.1,233.165L2372.16,233.219L2372.23,233.271L2372.28,233.318L2372.35,233.368L2372.42,233.417L2372.49,233.465L2372.56,233.512L2372.64,233.557L2372.71,233.601L2372.79,233.645L2372.88,233.69L2372.96,233.731L2373.05,233.774L2373.14,233.815L2373.22,233.853L2373.31,233.891L2373.41,233.929L2373.5,233.965L2373.6,234.001L2373.7,234.035L2373.8,234.067L2373.91,234.1L2374.01,234.13L2374.11,234.159L2374.22,234.188L2374.33,234.215L2374.44,234.241L2374.55,234.266L2374.67,234.289L2374.78,234.312L2374.9,234.332L2375.01,234.351L2375.14,234.37L2375.26,234.387L2375.37,234.402L2375.5,234.416L2375.62,234.429L2375.74,234.44L2375.87,234.45L2376,234.458L2376.13,234.465L2376.25,234.47L2376.39,234.474L2376.52,234.477L2376.67,234.478L2412.33,234.478L2412.48,234.477L2412.62,234.474L2412.75,234.47L2412.87,234.465L2413,234.458L2413.13,234.45L2413.25,234.44L2413.38,234.428L2413.5,234.416L2413.63,234.402L2413.75,234.386L2413.87,234.37L2413.98,234.352L2414.1,234.332L2414.22,234.311L2414.33,234.289L2414.44,234.266L2414.56,234.241L2414.67,234.215L2414.78,234.188L2414.89,234.159L2414.99,234.131L2415.09,234.1L2415.2,234.067L2415.3,234.035L2415.4,234.001L2415.5,233.965L2415.59,233.929L2415.68,233.891L2415.78,233.853L2415.87,233.813L2415.95,233.774L2416.04,233.733L2416.12,233.69L2416.21,233.645L2416.29,233.601L2416.36,233.557L2416.44,233.512L2416.51,233.465L2416.58,233.417L2416.65,233.368L2416.71,233.318L2416.77,233.271L2416.84,233.219L2416.89,233.165L2416.95,233.115L2417,233.063L2417.05,233.011L2417.1,232.954L2417.14,232.9L2417.18,232.844L2417.22,232.788L2417.26,232.735L2417.29,232.677L2417.32,232.618L2417.35,232.558L2417.37,232.501L2417.39,232.444L2417.41,232.381L2417.42,232.321L2417.43,232.261L2417.44,232.2L2417.45,232.138L2417.45,232.066L2417.45,212.863L2417.45,212.791L2417.44,212.729L2417.43,212.668L2417.42,212.607L2417.41,212.548L2417.39,212.485L2417.37,212.428L2417.35,212.371L2417.32,212.311L2417.29,212.252L2417.26,212.194L2417.22,212.141L2417.18,212.085L2417.14,212.029L2417.1,211.975L2417.05,211.918L2417,211.865L2416.95,211.814L2416.89,211.764L2416.84,211.71L2416.77,211.658L2416.71,211.611L2416.65,211.561L2416.58,211.512L2416.51,211.464L2416.44,211.418L2416.36,211.372L2416.29,211.327L2416.21,211.284L2416.12,211.239L2416.04,211.195L2415.95,211.155L2415.87,211.116L2415.78,211.076L2415.68,211.037L2415.59,211L2415.49,210.963L2415.4,210.928L2415.3,210.894L2415.2,210.862L2415.09,210.829L2414.99,210.797L2414.89,210.77L2414.78,210.741L2414.67,210.714L2414.56,210.688L2414.44,210.663L2414.33,210.639L2414.22,210.618L2414.1,210.597L2413.98,210.577L2413.87,210.559L2413.75,210.543L2413.62,210.527L2413.5,210.513L2413.38,210.5L2413.25,210.489L2413.13,210.479L2413,210.471L2412.88,210.464L2412.74,210.458L2412.61,210.455L2412.48,210.452L2412.33,210.451L2376.67,210.451Z" style="fill:rgb(51,51,51);"/>
                        </g>
                    </g>
                </g>
                <g transform="matrix(0.772942,0,0,0.772942,-229.272,-124.221)">
                    <text x="2373.08px" y="222.464px" style="font-family:'Roboto-Regular', 'Roboto';font-size:10.268px;">R</text>
                </g>
                <g transform="matrix(0.196078,0,0,0.416212,1138.17,-65.6826)">
                    <g id="B">
                        <g id="B1" serif:id="B">
                            <path d="M2420,212.854C2420,210.865 2416.57,209.25 2412.35,209.25L2376.65,209.25C2372.43,209.25 2369,210.865 2369,212.854L2369,232.075C2369,234.064 2372.43,235.679 2376.65,235.679L2412.35,235.679C2416.57,235.679 2420,234.064 2420,232.075L2420,212.854Z" style="fill:url(#_Linear3);"/>
                            <path d="M2412.55,209.251L2412.74,209.255L2412.94,209.261L2413.13,209.269L2413.32,209.279L2413.51,209.292L2413.7,209.306L2413.89,209.323L2414.08,209.342L2414.26,209.364L2414.44,209.387L2414.62,209.412L2414.8,209.439L2414.98,209.469L2415.15,209.5L2415.33,209.533L2415.5,209.569L2415.66,209.606L2415.83,209.645L2415.99,209.685L2416.16,209.728L2416.32,209.772L2416.47,209.818L2416.63,209.866L2416.78,209.915L2416.93,209.966L2417.07,210.019L2417.22,210.073L2417.36,210.129L2417.49,210.187L2417.63,210.246L2417.76,210.306L2417.89,210.368L2418.01,210.431L2418.13,210.496L2418.25,210.562L2418.37,210.629L2418.48,210.698L2418.59,210.768L2418.69,210.84L2418.79,210.912L2418.89,210.986L2418.99,211.061L2419.08,211.137L2419.16,211.214L2419.24,211.292L2419.32,211.371L2419.4,211.452L2419.47,211.533L2419.53,211.615L2419.6,211.699L2419.66,211.783L2419.71,211.868L2419.76,211.954L2419.8,212.04L2419.84,212.128L2419.88,212.216L2419.91,212.305L2419.94,212.395L2419.96,212.486L2419.98,212.577L2419.99,212.669L2420,212.761L2420,212.854L2420,232.075L2420,232.168L2419.99,232.26L2419.98,232.352L2419.96,232.443L2419.94,232.534L2419.91,232.623L2419.88,232.713L2419.84,232.801L2419.8,232.888L2419.76,232.975L2419.71,233.061L2419.66,233.146L2419.6,233.23L2419.53,233.314L2419.47,233.396L2419.4,233.477L2419.32,233.557L2419.24,233.637L2419.16,233.715L2419.08,233.792L2418.99,233.868L2418.89,233.943L2418.79,234.017L2418.69,234.089L2418.59,234.161L2418.48,234.231L2418.37,234.299L2418.25,234.367L2418.13,234.433L2418.01,234.498L2417.89,234.561L2417.76,234.623L2417.63,234.683L2417.49,234.742L2417.36,234.8L2417.22,234.855L2417.07,234.91L2416.93,234.962L2416.78,235.014L2416.63,235.063L2416.47,235.111L2416.32,235.157L2416.16,235.201L2415.99,235.244L2415.83,235.284L2415.66,235.323L2415.5,235.36L2415.33,235.395L2415.15,235.429L2414.98,235.46L2414.8,235.489L2414.62,235.517L2414.44,235.542L2414.26,235.565L2414.08,235.587L2413.89,235.606L2413.7,235.623L2413.51,235.637L2413.32,235.65L2413.13,235.66L2412.94,235.668L2412.74,235.674L2412.55,235.678L2412.35,235.679L2376.65,235.679L2376.45,235.678L2376.26,235.674L2376.06,235.668L2375.87,235.66L2375.68,235.65L2375.49,235.637L2375.3,235.623L2375.11,235.606L2374.92,235.587L2374.74,235.565L2374.56,235.542L2374.38,235.517L2374.2,235.489L2374.02,235.46L2373.85,235.429L2373.67,235.395L2373.5,235.36L2373.34,235.323L2373.17,235.284L2373.01,235.244L2372.84,235.201L2372.68,235.157L2372.53,235.111L2372.37,235.063L2372.22,235.014L2372.07,234.962L2371.93,234.91L2371.78,234.855L2371.64,234.8L2371.51,234.742L2371.37,234.683L2371.24,234.623L2371.11,234.561L2370.99,234.498L2370.87,234.433L2370.75,234.367L2370.63,234.299L2370.52,234.231L2370.41,234.161L2370.31,234.089L2370.21,234.017L2370.11,233.943L2370.01,233.868L2369.92,233.792L2369.84,233.715L2369.76,233.637L2369.68,233.557L2369.6,233.477L2369.53,233.396L2369.47,233.314L2369.4,233.23L2369.34,233.146L2369.29,233.061L2369.24,232.975L2369.2,232.888L2369.16,232.801L2369.12,232.713L2369.09,232.623L2369.06,232.534L2369.04,232.443L2369.02,232.352L2369.01,232.26L2369,232.168L2369,232.075L2369,212.854L2369,212.761L2369.01,212.669L2369.02,212.577L2369.04,212.486L2369.06,212.395L2369.09,212.305L2369.12,212.216L2369.16,212.128L2369.2,212.04L2369.24,211.954L2369.29,211.868L2369.34,211.783L2369.4,211.699L2369.47,211.615L2369.53,211.533L2369.6,211.452L2369.68,211.371L2369.76,211.292L2369.84,211.214L2369.92,211.137L2370.01,211.061L2370.11,210.986L2370.21,210.912L2370.31,210.84L2370.41,210.768L2370.52,210.698L2370.63,210.629L2370.75,210.562L2370.87,210.496L2370.99,210.431L2371.11,210.368L2371.24,210.306L2371.37,210.246L2371.51,210.187L2371.64,210.129L2371.78,210.073L2371.93,210.019L2372.07,209.966L2372.22,209.915L2372.37,209.866L2372.53,209.818L2372.68,209.772L2372.84,209.728L2373.01,209.685L2373.17,209.645L2373.34,209.606L2373.5,209.569L2373.67,209.533L2373.85,209.5L2374.02,209.469L2374.2,209.439L2374.38,209.412L2374.56,209.387L2374.74,209.364L2374.92,209.342L2375.11,209.323L2375.3,209.306L2375.49,209.292L2375.68,209.279L2375.87,209.269L2376.06,209.261L2376.26,209.255L2376.45,209.251L2376.65,209.25L2412.35,209.25L2412.55,209.251ZM2376.67,210.451L2376.52,210.452L2376.39,210.455L2376.25,210.458L2376.13,210.464L2376,210.471L2375.87,210.479L2375.74,210.489L2375.62,210.5L2375.5,210.513L2375.37,210.527L2375.26,210.542L2375.14,210.559L2375.01,210.578L2374.9,210.596L2374.78,210.617L2374.67,210.64L2374.55,210.663L2374.44,210.687L2374.33,210.714L2374.22,210.741L2374.11,210.77L2374.01,210.799L2373.91,210.829L2373.8,210.862L2373.7,210.894L2373.6,210.928L2373.5,210.964L2373.41,211L2373.31,211.037L2373.22,211.076L2373.14,211.114L2373.05,211.155L2372.96,211.198L2372.88,211.239L2372.79,211.284L2372.71,211.328L2372.64,211.372L2372.56,211.417L2372.49,211.464L2372.42,211.512L2372.35,211.561L2372.28,211.611L2372.23,211.658L2372.16,211.71L2372.1,211.764L2372.05,211.814L2372,211.865L2371.95,211.918L2371.9,211.975L2371.86,212.029L2371.82,212.081L2371.78,212.141L2371.74,212.198L2371.71,212.252L2371.68,212.311L2371.66,212.367L2371.63,212.428L2371.61,212.49L2371.59,212.548L2371.58,212.607L2371.57,212.668L2371.56,212.729L2371.55,212.791L2371.55,212.862L2371.55,232.066L2371.55,232.138L2371.56,232.2L2371.57,232.261L2371.58,232.321L2371.59,232.381L2371.61,232.439L2371.63,232.501L2371.66,232.562L2371.68,232.618L2371.71,232.677L2371.74,232.731L2371.78,232.788L2371.82,232.848L2371.86,232.899L2371.9,232.954L2371.95,233.011L2372,233.063L2372.05,233.115L2372.1,233.165L2372.16,233.219L2372.23,233.27L2372.28,233.318L2372.35,233.368L2372.42,233.417L2372.49,233.465L2372.56,233.511L2372.64,233.557L2372.71,233.602L2372.79,233.645L2372.88,233.69L2372.96,233.731L2373.05,233.774L2373.14,233.815L2373.22,233.853L2373.31,233.891L2373.41,233.929L2373.5,233.965L2373.6,234.001L2373.7,234.034L2373.8,234.067L2373.91,234.1L2374.01,234.13L2374.11,234.159L2374.22,234.188L2374.33,234.215L2374.44,234.242L2374.55,234.265L2374.67,234.289L2374.78,234.312L2374.9,234.332L2375.01,234.351L2375.14,234.37L2375.26,234.387L2375.37,234.402L2375.5,234.416L2375.62,234.429L2375.74,234.44L2375.87,234.45L2376,234.458L2376.13,234.465L2376.26,234.47L2376.39,234.474L2376.52,234.477L2376.67,234.478L2412.33,234.478L2412.48,234.477L2412.61,234.474L2412.74,234.47L2412.88,234.465L2413,234.458L2413.13,234.45L2413.25,234.44L2413.38,234.428L2413.5,234.416L2413.62,234.402L2413.75,234.386L2413.87,234.37L2413.98,234.352L2414.1,234.332L2414.22,234.311L2414.33,234.289L2414.44,234.266L2414.56,234.241L2414.67,234.215L2414.78,234.188L2414.89,234.159L2414.99,234.131L2415.09,234.1L2415.2,234.067L2415.3,234.034L2415.4,234.001L2415.49,233.965L2415.59,233.929L2415.68,233.891L2415.78,233.853L2415.87,233.813L2415.95,233.774L2416.04,233.734L2416.12,233.69L2416.21,233.645L2416.29,233.602L2416.36,233.557L2416.44,233.511L2416.51,233.465L2416.58,233.417L2416.65,233.368L2416.71,233.318L2416.77,233.27L2416.84,233.219L2416.89,233.165L2416.95,233.115L2417,233.063L2417.05,233.011L2417.1,232.954L2417.14,232.899L2417.18,232.844L2417.22,232.788L2417.26,232.735L2417.29,232.677L2417.32,232.618L2417.35,232.558L2417.37,232.501L2417.39,232.444L2417.41,232.381L2417.42,232.321L2417.43,232.261L2417.44,232.2L2417.45,232.138L2417.45,232.066L2417.45,212.862L2417.45,212.791L2417.44,212.729L2417.43,212.668L2417.42,212.607L2417.41,212.548L2417.39,212.485L2417.37,212.428L2417.35,212.371L2417.32,212.311L2417.29,212.252L2417.26,212.194L2417.22,212.141L2417.18,212.085L2417.14,212.029L2417.1,211.975L2417.05,211.918L2417,211.865L2416.95,211.814L2416.89,211.764L2416.84,211.71L2416.77,211.658L2416.71,211.611L2416.65,211.561L2416.58,211.512L2416.51,211.464L2416.44,211.417L2416.36,211.372L2416.29,211.328L2416.21,211.284L2416.12,211.239L2416.04,211.196L2415.95,211.155L2415.87,211.116L2415.78,211.076L2415.68,211.037L2415.59,211L2415.5,210.964L2415.4,210.928L2415.3,210.894L2415.2,210.862L2415.09,210.829L2414.99,210.798L2414.89,210.77L2414.78,210.741L2414.67,210.714L2414.56,210.688L2414.44,210.663L2414.33,210.639L2414.22,210.618L2414.1,210.597L2413.98,210.577L2413.87,210.559L2413.75,210.543L2413.63,210.527L2413.5,210.513L2413.38,210.5L2413.25,210.489L2413.13,210.479L2413,210.471L2412.87,210.464L2412.75,210.458L2412.62,210.455L2412.48,210.452L2412.33,210.451L2376.67,210.451Z" style="fill:rgb(51,51,51);"/>
                        </g>
                    </g>
                </g>
                <g transform="matrix(0.772942,0,0,0.772942,-229.272,-142.221)">
                    <text x="2373.08px" y="222.464px" style="font-family:'Roboto-Regular', 'Roboto';font-size:10.268px;">R</text>
                </g>
            </g>
        </g>
    </g>
    <defs>
        <linearGradient id="_Linear2" x1="0" y1="0" x2="1" y2="0" gradientUnits="userSpaceOnUse" gradientTransform="matrix(1.6183e-15,26.4289,-26.4289,1.6183e-15,2394.5,209.25)"><stop offset="0" style="stop-color:rgb(240,158,50);stop-opacity:1"/><stop offset="1" style="stop-color:rgb(242,142,13);stop-opacity:1"/></linearGradient>
        <linearGradient id="_Linear3" x1="0" y1="0" x2="1" y2="0" gradientUnits="userSpaceOnUse" gradientTransform="matrix(1.6183e-15,26.4289,-26.4289,1.6183e-15,2394.5,209.25)"><stop offset="0" style="stop-color:rgb(204,204,204);stop-opacity:1"/><stop offset="1" style="stop-color:rgb(173,173,173);stop-opacity:1"/></linearGradient>
    </defs>
</svg>
