<?xml version="1.0" encoding="UTF-8" standalone="no"?>
<!DOCTYPE svg PUBLIC "-//W3C//DTD SVG 1.1//EN" "http://www.w3.org/Graphics/SVG/1.1/DTD/svg11.dtd">
<svg width="100%" height="100%" viewBox="0 0 135 36" version="1.1" xmlns="http://www.w3.org/2000/svg" xmlns:xlink="http://www.w3.org/1999/xlink" xml:space="preserve" xmlns:serif="http://www.serif.com/" style="fill-rule:evenodd;clip-rule:evenodd;stroke-linejoin:round;stroke-miterlimit:1.41421;">
    <g transform="matrix(1,0,0,1,-1995,-654)">
        <g id="bmp00161" transform="matrix(1,0,0,1,529.368,-220.158)">
            <rect x="1465.63" y="874.158" width="135" height="36" style="fill:none;"/>
            <clipPath id="_clip1">
                <rect x="1465.63" y="874.158" width="135" height="36"/>
            </clipPath>
            <g clip-path="url(#_clip1)">
                <g transform="matrix(2.64706,0,0,0.454049,-4805.25,779.148)">
                    <g id="A">
                        <g id="A1" serif:id="A">
                            <path d="M2420,213.655C2420,211.224 2419.66,209.25 2419.24,209.25L2369.76,209.25C2369.34,209.25 2369,211.224 2369,213.655L2369,231.274C2369,233.705 2369.34,235.679 2369.76,235.679L2419.24,235.679C2419.66,235.679 2420,233.705 2420,231.274L2420,213.655Z" style="fill:url(#_Linear2);"/>
                            <path d="M2419.26,209.251L2419.28,209.256L2419.3,209.263L2419.32,209.273L2419.34,209.285L2419.36,209.301L2419.38,209.319L2419.4,209.34L2419.41,209.363L2419.43,209.389L2419.45,209.417L2419.47,209.448L2419.49,209.482L2419.5,209.517L2419.52,209.556L2419.54,209.596L2419.55,209.639L2419.57,209.685L2419.59,209.732L2419.6,209.782L2419.62,209.834L2419.64,209.888L2419.65,209.944L2419.67,210.003L2419.68,210.063L2419.7,210.126L2419.71,210.19L2419.72,210.256L2419.74,210.325L2419.75,210.395L2419.77,210.467L2419.78,210.541L2419.79,210.616L2419.8,210.694L2419.82,210.773L2419.83,210.854L2419.84,210.936L2419.85,211.02L2419.86,211.106L2419.87,211.193L2419.88,211.281L2419.89,211.371L2419.9,211.463L2419.91,211.556L2419.92,211.65L2419.93,211.746L2419.93,211.843L2419.94,211.941L2419.95,212.04L2419.95,212.141L2419.96,212.243L2419.97,212.346L2419.97,212.45L2419.98,212.555L2419.98,212.661L2419.99,212.768L2419.99,212.876L2419.99,212.984L2419.99,213.094L2420,213.205L2420,213.316L2420,213.428L2420,213.541L2420,213.655L2420,231.274L2420,231.388L2420,231.501L2420,231.613L2420,231.724L2419.99,231.835L2419.99,231.944L2419.99,232.053L2419.99,232.161L2419.98,232.268L2419.98,232.374L2419.97,232.479L2419.97,232.583L2419.96,232.686L2419.95,232.788L2419.95,232.889L2419.94,232.988L2419.93,233.086L2419.93,233.183L2419.92,233.279L2419.91,233.373L2419.9,233.466L2419.89,233.557L2419.88,233.647L2419.87,233.736L2419.86,233.823L2419.85,233.909L2419.84,233.993L2419.83,234.075L2419.82,234.156L2419.8,234.235L2419.79,234.312L2419.78,234.388L2419.77,234.462L2419.75,234.534L2419.74,234.604L2419.72,234.672L2419.71,234.739L2419.7,234.803L2419.68,234.866L2419.67,234.926L2419.65,234.985L2419.64,235.041L2419.62,235.095L2419.6,235.147L2419.59,235.197L2419.57,235.244L2419.55,235.289L2419.54,235.332L2419.52,235.373L2419.5,235.411L2419.49,235.447L2419.47,235.481L2419.45,235.512L2419.43,235.54L2419.41,235.566L2419.4,235.589L2419.38,235.61L2419.36,235.628L2419.34,235.643L2419.32,235.656L2419.3,235.666L2419.28,235.673L2419.26,235.677L2419.24,235.679L2369.76,235.679L2369.74,235.677L2369.72,235.673L2369.7,235.666L2369.68,235.656L2369.66,235.643L2369.64,235.628L2369.62,235.61L2369.6,235.589L2369.59,235.566L2369.57,235.54L2369.55,235.512L2369.53,235.481L2369.51,235.447L2369.5,235.411L2369.48,235.373L2369.46,235.332L2369.45,235.289L2369.43,235.244L2369.41,235.197L2369.4,235.147L2369.38,235.095L2369.36,235.041L2369.35,234.985L2369.33,234.926L2369.32,234.866L2369.3,234.803L2369.29,234.739L2369.28,234.672L2369.26,234.604L2369.25,234.534L2369.23,234.462L2369.22,234.388L2369.21,234.312L2369.2,234.235L2369.18,234.156L2369.17,234.075L2369.16,233.993L2369.15,233.909L2369.14,233.823L2369.13,233.736L2369.12,233.647L2369.11,233.557L2369.1,233.466L2369.09,233.373L2369.08,233.279L2369.08,233.183L2369.07,233.086L2369.06,232.988L2369.05,232.889L2369.05,232.788L2369.04,232.686L2369.03,232.583L2369.03,232.479L2369.02,232.374L2369.02,232.268L2369.01,232.161L2369.01,232.053L2369.01,231.944L2369.01,231.835L2369,231.724L2369,231.613L2369,231.501L2369,231.388L2369,231.274L2369,213.655L2369,213.541L2369,213.428L2369,213.316L2369,213.205L2369.01,213.094L2369.01,212.984L2369.01,212.876L2369.01,212.768L2369.02,212.661L2369.02,212.555L2369.03,212.45L2369.03,212.346L2369.04,212.243L2369.05,212.141L2369.05,212.04L2369.06,211.941L2369.07,211.843L2369.08,211.746L2369.08,211.65L2369.09,211.556L2369.1,211.463L2369.11,211.371L2369.12,211.281L2369.13,211.193L2369.14,211.106L2369.15,211.02L2369.16,210.936L2369.17,210.854L2369.18,210.773L2369.2,210.694L2369.21,210.616L2369.22,210.541L2369.23,210.467L2369.25,210.395L2369.26,210.325L2369.28,210.256L2369.29,210.19L2369.3,210.126L2369.32,210.063L2369.33,210.003L2369.35,209.944L2369.36,209.888L2369.38,209.834L2369.4,209.782L2369.41,209.732L2369.43,209.685L2369.45,209.639L2369.46,209.596L2369.48,209.556L2369.5,209.517L2369.51,209.482L2369.53,209.448L2369.55,209.417L2369.57,209.389L2369.59,209.363L2369.6,209.34L2369.62,209.319L2369.64,209.301L2369.66,209.285L2369.68,209.273L2369.7,209.263L2369.72,209.256L2369.74,209.251L2369.76,209.25L2419.24,209.25L2419.26,209.251ZM2369.76,210.159L2369.74,210.16L2369.72,210.163L2369.71,210.169L2369.69,210.177L2369.68,210.187L2369.66,210.199L2369.65,210.214L2369.64,210.23L2369.62,210.248L2369.61,210.269L2369.59,210.292L2369.58,210.316L2369.56,210.342L2369.55,210.371L2369.54,210.401L2369.52,210.433L2369.51,210.467L2369.5,210.504L2369.48,210.541L2369.47,210.58L2369.46,210.622L2369.45,210.665L2369.43,210.709L2369.42,210.756L2369.41,210.804L2369.4,210.853L2369.39,210.904L2369.37,210.957L2369.36,211.012L2369.35,211.068L2369.34,211.125L2369.33,211.184L2369.32,211.243L2369.31,211.305L2369.3,211.368L2369.29,211.432L2369.28,211.498L2369.28,211.564L2369.27,211.632L2369.26,211.702L2369.25,211.772L2369.24,211.843L2369.24,211.916L2369.23,211.99L2369.22,212.066L2369.22,212.141L2369.21,212.217L2369.2,212.295L2369.2,212.372L2369.19,212.454L2369.19,212.536L2369.18,212.615L2369.18,212.698L2369.18,212.781L2369.17,212.863L2369.17,212.95L2369.16,213.037L2369.16,213.122L2369.16,213.208L2369.16,213.297L2369.16,213.386L2369.16,213.473L2369.16,213.564L2369.16,213.66L2369.16,231.268L2369.16,231.365L2369.16,231.456L2369.16,231.543L2369.16,231.631L2369.16,231.721L2369.16,231.807L2369.16,231.892L2369.17,231.979L2369.17,232.065L2369.18,232.148L2369.18,232.231L2369.18,232.314L2369.19,232.393L2369.19,232.474L2369.2,232.556L2369.2,232.634L2369.21,232.711L2369.22,232.788L2369.22,232.863L2369.23,232.939L2369.24,233.013L2369.24,233.086L2369.25,233.156L2369.26,233.227L2369.27,233.297L2369.28,233.364L2369.28,233.431L2369.29,233.497L2369.3,233.561L2369.31,233.624L2369.32,233.685L2369.33,233.745L2369.34,233.804L2369.35,233.861L2369.36,233.917L2369.37,233.972L2369.39,234.025L2369.4,234.076L2369.41,234.125L2369.42,234.173L2369.43,234.22L2369.45,234.264L2369.46,234.307L2369.47,234.348L2369.48,234.388L2369.5,234.425L2369.51,234.461L2369.52,234.496L2369.54,234.527L2369.55,234.558L2369.56,234.587L2369.58,234.613L2369.59,234.637L2369.61,234.66L2369.62,234.68L2369.64,234.699L2369.65,234.715L2369.66,234.73L2369.68,234.742L2369.69,234.752L2369.71,234.76L2369.72,234.765L2369.74,234.769L2369.76,234.77L2419.24,234.77L2419.26,234.769L2419.28,234.765L2419.29,234.76L2419.31,234.752L2419.32,234.742L2419.34,234.73L2419.35,234.715L2419.37,234.699L2419.38,234.68L2419.39,234.66L2419.41,234.637L2419.42,234.613L2419.44,234.586L2419.45,234.558L2419.46,234.528L2419.48,234.495L2419.49,234.461L2419.5,234.426L2419.52,234.388L2419.53,234.348L2419.54,234.307L2419.55,234.264L2419.57,234.219L2419.58,234.173L2419.59,234.125L2419.6,234.075L2419.61,234.025L2419.63,233.972L2419.64,233.917L2419.65,233.861L2419.66,233.804L2419.67,233.746L2419.68,233.685L2419.69,233.623L2419.7,233.56L2419.71,233.498L2419.72,233.432L2419.72,233.363L2419.73,233.296L2419.74,233.228L2419.75,233.158L2419.76,233.085L2419.76,233.012L2419.77,232.939L2419.78,232.865L2419.78,232.788L2419.79,232.711L2419.8,232.634L2419.8,232.555L2419.81,232.476L2419.81,232.395L2419.82,232.312L2419.82,232.231L2419.83,232.148L2419.83,232.064L2419.83,231.979L2419.84,231.894L2419.84,231.807L2419.84,231.719L2419.84,231.633L2419.84,231.545L2419.84,231.454L2419.84,231.363L2419.84,231.268L2419.84,213.66L2419.84,213.565L2419.84,213.475L2419.84,213.384L2419.84,213.296L2419.84,213.21L2419.84,213.122L2419.84,213.035L2419.83,212.95L2419.83,212.865L2419.83,212.781L2419.82,212.698L2419.82,212.616L2419.81,212.534L2419.81,212.453L2419.8,212.374L2419.8,212.295L2419.79,212.217L2419.78,212.141L2419.78,212.064L2419.77,211.99L2419.76,211.917L2419.76,211.844L2419.75,211.771L2419.74,211.701L2419.73,211.633L2419.72,211.566L2419.72,211.497L2419.71,211.431L2419.7,211.369L2419.69,211.306L2419.68,211.243L2419.67,211.183L2419.66,211.124L2419.65,211.068L2419.64,211.012L2419.63,210.957L2419.61,210.904L2419.6,210.854L2419.59,210.804L2419.58,210.756L2419.57,210.71L2419.55,210.665L2419.54,210.622L2419.53,210.58L2419.52,210.541L2419.5,210.503L2419.49,210.467L2419.48,210.434L2419.46,210.401L2419.45,210.371L2419.44,210.343L2419.42,210.316L2419.41,210.291L2419.39,210.269L2419.38,210.248L2419.37,210.23L2419.35,210.214L2419.34,210.199L2419.32,210.187L2419.31,210.177L2419.29,210.169L2419.28,210.163L2419.26,210.16L2419.24,210.159L2369.76,210.159Z" style="fill:rgb(51,51,51);"/>
                        </g>
                    </g>
                </g>
                <g transform="matrix(2.64706,0,0,0.454049,-4805.25,791.148)">
                    <g id="A2" serif:id="A">
                        <g id="A3" serif:id="A">
                            <path d="M2420,213.655C2420,211.224 2419.66,209.25 2419.24,209.25L2369.76,209.25C2369.34,209.25 2369,211.224 2369,213.655L2369,231.274C2369,233.705 2369.34,235.679 2369.76,235.679L2419.24,235.679C2419.66,235.679 2420,233.705 2420,231.274L2420,213.655Z" style="fill:url(#_Linear3);"/>
                            <path d="M2419.26,209.251L2419.28,209.256L2419.3,209.263L2419.32,209.273L2419.34,209.285L2419.36,209.301L2419.38,209.319L2419.4,209.34L2419.41,209.363L2419.43,209.389L2419.45,209.417L2419.47,209.448L2419.49,209.482L2419.5,209.517L2419.52,209.556L2419.54,209.596L2419.55,209.639L2419.57,209.685L2419.59,209.732L2419.6,209.782L2419.62,209.834L2419.64,209.888L2419.65,209.944L2419.67,210.003L2419.68,210.063L2419.7,210.126L2419.71,210.19L2419.72,210.256L2419.74,210.325L2419.75,210.395L2419.77,210.467L2419.78,210.541L2419.79,210.616L2419.8,210.694L2419.82,210.773L2419.83,210.854L2419.84,210.936L2419.85,211.02L2419.86,211.106L2419.87,211.193L2419.88,211.281L2419.89,211.371L2419.9,211.463L2419.91,211.556L2419.92,211.65L2419.93,211.746L2419.93,211.843L2419.94,211.941L2419.95,212.04L2419.95,212.141L2419.96,212.243L2419.97,212.346L2419.97,212.45L2419.98,212.555L2419.98,212.661L2419.99,212.768L2419.99,212.876L2419.99,212.984L2419.99,213.094L2420,213.205L2420,213.316L2420,213.428L2420,213.541L2420,213.655L2420,231.274L2420,231.388L2420,231.501L2420,231.613L2420,231.724L2419.99,231.835L2419.99,231.944L2419.99,232.053L2419.99,232.161L2419.98,232.268L2419.98,232.374L2419.97,232.479L2419.97,232.583L2419.96,232.686L2419.95,232.788L2419.95,232.889L2419.94,232.988L2419.93,233.086L2419.93,233.183L2419.92,233.279L2419.91,233.373L2419.9,233.466L2419.89,233.557L2419.88,233.647L2419.87,233.736L2419.86,233.823L2419.85,233.909L2419.84,233.993L2419.83,234.075L2419.82,234.156L2419.8,234.235L2419.79,234.312L2419.78,234.388L2419.77,234.462L2419.75,234.534L2419.74,234.604L2419.72,234.672L2419.71,234.739L2419.7,234.803L2419.68,234.866L2419.67,234.926L2419.65,234.985L2419.64,235.041L2419.62,235.095L2419.6,235.147L2419.59,235.197L2419.57,235.244L2419.55,235.289L2419.54,235.332L2419.52,235.373L2419.5,235.411L2419.49,235.447L2419.47,235.481L2419.45,235.512L2419.43,235.54L2419.41,235.566L2419.4,235.589L2419.38,235.61L2419.36,235.628L2419.34,235.643L2419.32,235.656L2419.3,235.666L2419.28,235.673L2419.26,235.677L2419.24,235.679L2369.76,235.679L2369.74,235.677L2369.72,235.673L2369.7,235.666L2369.68,235.656L2369.66,235.643L2369.64,235.628L2369.62,235.61L2369.6,235.589L2369.59,235.566L2369.57,235.54L2369.55,235.512L2369.53,235.481L2369.51,235.447L2369.5,235.411L2369.48,235.373L2369.46,235.332L2369.45,235.289L2369.43,235.244L2369.41,235.197L2369.4,235.147L2369.38,235.095L2369.36,235.041L2369.35,234.985L2369.33,234.926L2369.32,234.866L2369.3,234.803L2369.29,234.739L2369.28,234.672L2369.26,234.604L2369.25,234.534L2369.23,234.462L2369.22,234.388L2369.21,234.312L2369.2,234.235L2369.18,234.156L2369.17,234.075L2369.16,233.993L2369.15,233.909L2369.14,233.823L2369.13,233.736L2369.12,233.647L2369.11,233.557L2369.1,233.466L2369.09,233.373L2369.08,233.279L2369.08,233.183L2369.07,233.086L2369.06,232.988L2369.05,232.889L2369.05,232.788L2369.04,232.686L2369.03,232.583L2369.03,232.479L2369.02,232.374L2369.02,232.268L2369.01,232.161L2369.01,232.053L2369.01,231.944L2369.01,231.835L2369,231.724L2369,231.613L2369,231.501L2369,231.388L2369,231.274L2369,213.655L2369,213.541L2369,213.428L2369,213.316L2369,213.205L2369.01,213.094L2369.01,212.984L2369.01,212.876L2369.01,212.768L2369.02,212.661L2369.02,212.555L2369.03,212.45L2369.03,212.346L2369.04,212.243L2369.05,212.141L2369.05,212.04L2369.06,211.941L2369.07,211.843L2369.08,211.746L2369.08,211.65L2369.09,211.556L2369.1,211.463L2369.11,211.371L2369.12,211.281L2369.13,211.193L2369.14,211.106L2369.15,211.02L2369.16,210.936L2369.17,210.854L2369.18,210.773L2369.2,210.694L2369.21,210.616L2369.22,210.541L2369.23,210.467L2369.25,210.395L2369.26,210.325L2369.28,210.256L2369.29,210.19L2369.3,210.126L2369.32,210.063L2369.33,210.003L2369.35,209.944L2369.36,209.888L2369.38,209.834L2369.4,209.782L2369.41,209.732L2369.43,209.685L2369.45,209.639L2369.46,209.596L2369.48,209.556L2369.5,209.517L2369.51,209.482L2369.53,209.448L2369.55,209.417L2369.57,209.389L2369.59,209.363L2369.6,209.34L2369.62,209.319L2369.64,209.301L2369.66,209.285L2369.68,209.273L2369.7,209.263L2369.72,209.256L2369.74,209.251L2369.76,209.25L2419.24,209.25L2419.26,209.251ZM2369.76,210.159L2369.74,210.16L2369.72,210.164L2369.71,210.169L2369.69,210.177L2369.68,210.187L2369.66,210.199L2369.65,210.214L2369.64,210.23L2369.62,210.248L2369.61,210.269L2369.59,210.291L2369.58,210.316L2369.56,210.342L2369.55,210.371L2369.54,210.401L2369.52,210.433L2369.51,210.467L2369.5,210.504L2369.48,210.541L2369.47,210.581L2369.46,210.622L2369.45,210.665L2369.43,210.709L2369.42,210.756L2369.41,210.804L2369.4,210.853L2369.39,210.904L2369.37,210.957L2369.36,211.011L2369.35,211.068L2369.34,211.125L2369.33,211.184L2369.32,211.244L2369.31,211.305L2369.3,211.368L2369.29,211.432L2369.28,211.498L2369.28,211.564L2369.27,211.632L2369.26,211.702L2369.25,211.772L2369.24,211.843L2369.24,211.916L2369.23,211.99L2369.22,212.066L2369.22,212.141L2369.21,212.217L2369.2,212.295L2369.2,212.373L2369.19,212.454L2369.19,212.536L2369.18,212.615L2369.18,212.698L2369.18,212.781L2369.17,212.864L2369.17,212.95L2369.16,213.036L2369.16,213.122L2369.16,213.208L2369.16,213.297L2369.16,213.386L2369.16,213.473L2369.16,213.564L2369.16,213.66L2369.16,231.268L2369.16,231.365L2369.16,231.456L2369.16,231.543L2369.16,231.631L2369.16,231.721L2369.16,231.807L2369.16,231.892L2369.17,231.978L2369.17,232.066L2369.18,232.148L2369.18,232.231L2369.18,232.314L2369.19,232.393L2369.19,232.475L2369.2,232.556L2369.2,232.634L2369.21,232.711L2369.22,232.788L2369.22,232.863L2369.23,232.939L2369.24,233.013L2369.24,233.086L2369.25,233.156L2369.26,233.227L2369.27,233.297L2369.28,233.364L2369.28,233.431L2369.29,233.497L2369.3,233.561L2369.31,233.624L2369.32,233.685L2369.33,233.745L2369.34,233.804L2369.35,233.861L2369.36,233.917L2369.37,233.972L2369.39,234.024L2369.4,234.076L2369.41,234.125L2369.42,234.173L2369.43,234.22L2369.45,234.264L2369.46,234.307L2369.47,234.348L2369.48,234.388L2369.5,234.425L2369.51,234.461L2369.52,234.496L2369.54,234.527L2369.55,234.558L2369.56,234.587L2369.58,234.613L2369.59,234.637L2369.61,234.66L2369.62,234.68L2369.64,234.699L2369.65,234.715L2369.66,234.73L2369.68,234.742L2369.69,234.752L2369.71,234.76L2369.72,234.765L2369.74,234.769L2369.76,234.77L2419.24,234.77L2419.26,234.769L2419.28,234.765L2419.29,234.76L2419.31,234.752L2419.32,234.742L2419.34,234.73L2419.35,234.715L2419.37,234.699L2419.38,234.68L2419.39,234.66L2419.41,234.637L2419.42,234.613L2419.44,234.586L2419.45,234.558L2419.46,234.528L2419.48,234.495L2419.49,234.461L2419.5,234.426L2419.52,234.388L2419.53,234.348L2419.54,234.307L2419.55,234.264L2419.57,234.219L2419.58,234.173L2419.59,234.125L2419.6,234.075L2419.61,234.024L2419.63,233.972L2419.64,233.917L2419.65,233.861L2419.66,233.805L2419.67,233.746L2419.68,233.685L2419.69,233.623L2419.7,233.56L2419.71,233.498L2419.72,233.432L2419.72,233.363L2419.73,233.296L2419.74,233.228L2419.75,233.158L2419.76,233.085L2419.76,233.012L2419.77,232.939L2419.78,232.865L2419.78,232.788L2419.79,232.711L2419.8,232.634L2419.8,232.555L2419.81,232.476L2419.81,232.395L2419.82,232.312L2419.82,232.231L2419.83,232.148L2419.83,232.064L2419.83,231.978L2419.84,231.894L2419.84,231.807L2419.84,231.719L2419.84,231.633L2419.84,231.545L2419.84,231.454L2419.84,231.363L2419.84,231.268L2419.84,213.66L2419.84,213.565L2419.84,213.475L2419.84,213.384L2419.84,213.296L2419.84,213.21L2419.84,213.122L2419.84,213.035L2419.83,212.95L2419.83,212.865L2419.83,212.781L2419.82,212.698L2419.82,212.616L2419.81,212.534L2419.81,212.453L2419.8,212.374L2419.8,212.295L2419.79,212.217L2419.78,212.141L2419.78,212.064L2419.77,211.99L2419.76,211.917L2419.76,211.844L2419.75,211.771L2419.74,211.701L2419.73,211.633L2419.72,211.566L2419.72,211.497L2419.71,211.431L2419.7,211.369L2419.69,211.306L2419.68,211.244L2419.67,211.183L2419.66,211.124L2419.65,211.068L2419.64,211.011L2419.63,210.957L2419.61,210.904L2419.6,210.854L2419.59,210.804L2419.58,210.756L2419.57,210.71L2419.55,210.665L2419.54,210.622L2419.53,210.581L2419.52,210.541L2419.5,210.503L2419.49,210.467L2419.48,210.434L2419.46,210.401L2419.45,210.371L2419.44,210.343L2419.42,210.316L2419.41,210.291L2419.39,210.269L2419.38,210.248L2419.37,210.23L2419.35,210.214L2419.34,210.199L2419.32,210.187L2419.31,210.177L2419.29,210.169L2419.28,210.164L2419.26,210.16L2419.24,210.159L2369.76,210.159Z" style="fill:rgb(51,51,51);"/>
                        </g>
                    </g>
                </g>
                <g transform="matrix(2.64706,0,0,0.454049,-4805.25,803.148)">
                    <g id="A4" serif:id="A">
                        <g id="A5" serif:id="A">
                            <path d="M2420,213.655C2420,211.224 2419.66,209.25 2419.24,209.25L2369.76,209.25C2369.34,209.25 2369,211.224 2369,213.655L2369,231.274C2369,233.705 2369.34,235.679 2369.76,235.679L2419.24,235.679C2419.66,235.679 2420,233.705 2420,231.274L2420,213.655Z" style="fill:url(#_Linear4);"/>
                            <path d="M2419.26,209.251L2419.28,209.256L2419.3,209.263L2419.32,209.273L2419.34,209.285L2419.36,209.301L2419.38,209.319L2419.4,209.34L2419.41,209.363L2419.43,209.389L2419.45,209.417L2419.47,209.448L2419.49,209.482L2419.5,209.517L2419.52,209.556L2419.54,209.596L2419.55,209.639L2419.57,209.685L2419.59,209.732L2419.6,209.782L2419.62,209.834L2419.64,209.888L2419.65,209.944L2419.67,210.003L2419.68,210.063L2419.7,210.126L2419.71,210.19L2419.72,210.256L2419.74,210.325L2419.75,210.395L2419.77,210.467L2419.78,210.541L2419.79,210.616L2419.8,210.694L2419.82,210.773L2419.83,210.854L2419.84,210.936L2419.85,211.02L2419.86,211.106L2419.87,211.193L2419.88,211.281L2419.89,211.371L2419.9,211.463L2419.91,211.556L2419.92,211.65L2419.93,211.746L2419.93,211.843L2419.94,211.941L2419.95,212.04L2419.95,212.141L2419.96,212.243L2419.97,212.346L2419.97,212.45L2419.98,212.555L2419.98,212.661L2419.99,212.768L2419.99,212.876L2419.99,212.984L2419.99,213.094L2420,213.205L2420,213.316L2420,213.428L2420,213.541L2420,213.655L2420,231.274L2420,231.388L2420,231.501L2420,231.613L2420,231.724L2419.99,231.835L2419.99,231.944L2419.99,232.053L2419.99,232.161L2419.98,232.268L2419.98,232.374L2419.97,232.479L2419.97,232.583L2419.96,232.686L2419.95,232.788L2419.95,232.889L2419.94,232.988L2419.93,233.086L2419.93,233.183L2419.92,233.279L2419.91,233.373L2419.9,233.466L2419.89,233.557L2419.88,233.647L2419.87,233.736L2419.86,233.823L2419.85,233.909L2419.84,233.993L2419.83,234.075L2419.82,234.156L2419.8,234.235L2419.79,234.312L2419.78,234.388L2419.77,234.462L2419.75,234.534L2419.74,234.604L2419.72,234.672L2419.71,234.739L2419.7,234.803L2419.68,234.866L2419.67,234.926L2419.65,234.985L2419.64,235.041L2419.62,235.095L2419.6,235.147L2419.59,235.197L2419.57,235.244L2419.55,235.289L2419.54,235.332L2419.52,235.373L2419.5,235.411L2419.49,235.447L2419.47,235.481L2419.45,235.512L2419.43,235.54L2419.41,235.566L2419.4,235.589L2419.38,235.61L2419.36,235.628L2419.34,235.643L2419.32,235.656L2419.3,235.666L2419.28,235.673L2419.26,235.677L2419.24,235.679L2369.76,235.679L2369.74,235.677L2369.72,235.673L2369.7,235.666L2369.68,235.656L2369.66,235.643L2369.64,235.628L2369.62,235.61L2369.6,235.589L2369.59,235.566L2369.57,235.54L2369.55,235.512L2369.53,235.481L2369.51,235.447L2369.5,235.411L2369.48,235.373L2369.46,235.332L2369.45,235.289L2369.43,235.244L2369.41,235.197L2369.4,235.147L2369.38,235.095L2369.36,235.041L2369.35,234.985L2369.33,234.926L2369.32,234.866L2369.3,234.803L2369.29,234.739L2369.28,234.672L2369.26,234.604L2369.25,234.534L2369.23,234.462L2369.22,234.388L2369.21,234.312L2369.2,234.235L2369.18,234.156L2369.17,234.075L2369.16,233.993L2369.15,233.909L2369.14,233.823L2369.13,233.736L2369.12,233.647L2369.11,233.557L2369.1,233.466L2369.09,233.373L2369.08,233.279L2369.08,233.183L2369.07,233.086L2369.06,232.988L2369.05,232.889L2369.05,232.788L2369.04,232.686L2369.03,232.583L2369.03,232.479L2369.02,232.374L2369.02,232.268L2369.01,232.161L2369.01,232.053L2369.01,231.944L2369.01,231.835L2369,231.724L2369,231.613L2369,231.501L2369,231.388L2369,231.274L2369,213.655L2369,213.541L2369,213.428L2369,213.316L2369,213.205L2369.01,213.094L2369.01,212.984L2369.01,212.876L2369.01,212.768L2369.02,212.661L2369.02,212.555L2369.03,212.45L2369.03,212.346L2369.04,212.243L2369.05,212.141L2369.05,212.04L2369.06,211.941L2369.07,211.843L2369.08,211.746L2369.08,211.65L2369.09,211.556L2369.1,211.463L2369.11,211.371L2369.12,211.281L2369.13,211.193L2369.14,211.106L2369.15,211.02L2369.16,210.936L2369.17,210.854L2369.18,210.773L2369.2,210.694L2369.21,210.616L2369.22,210.541L2369.23,210.467L2369.25,210.395L2369.26,210.325L2369.28,210.256L2369.29,210.19L2369.3,210.126L2369.32,210.063L2369.33,210.003L2369.35,209.944L2369.36,209.888L2369.38,209.834L2369.4,209.782L2369.41,209.732L2369.43,209.685L2369.45,209.639L2369.46,209.596L2369.48,209.556L2369.5,209.517L2369.51,209.482L2369.53,209.448L2369.55,209.417L2369.57,209.389L2369.59,209.363L2369.6,209.34L2369.62,209.319L2369.64,209.301L2369.66,209.285L2369.68,209.273L2369.7,209.263L2369.72,209.256L2369.74,209.251L2369.76,209.25L2419.24,209.25L2419.26,209.251ZM2369.76,210.159L2369.74,210.16L2369.72,210.163L2369.71,210.169L2369.69,210.177L2369.68,210.187L2369.66,210.199L2369.65,210.214L2369.64,210.23L2369.62,210.248L2369.61,210.269L2369.59,210.292L2369.58,210.316L2369.56,210.342L2369.55,210.371L2369.54,210.401L2369.52,210.433L2369.51,210.467L2369.5,210.503L2369.48,210.541L2369.47,210.581L2369.46,210.622L2369.45,210.665L2369.43,210.709L2369.42,210.756L2369.41,210.804L2369.4,210.853L2369.39,210.904L2369.37,210.957L2369.36,211.012L2369.35,211.067L2369.34,211.125L2369.33,211.184L2369.32,211.243L2369.31,211.305L2369.3,211.368L2369.29,211.432L2369.28,211.498L2369.28,211.564L2369.27,211.632L2369.26,211.702L2369.25,211.772L2369.24,211.843L2369.24,211.916L2369.23,211.99L2369.22,212.066L2369.22,212.141L2369.21,212.217L2369.2,212.295L2369.2,212.372L2369.19,212.454L2369.19,212.536L2369.18,212.615L2369.18,212.698L2369.18,212.781L2369.17,212.863L2369.17,212.95L2369.16,213.037L2369.16,213.122L2369.16,213.208L2369.16,213.297L2369.16,213.386L2369.16,213.473L2369.16,213.564L2369.16,213.66L2369.16,231.269L2369.16,231.365L2369.16,231.456L2369.16,231.543L2369.16,231.631L2369.16,231.721L2369.16,231.807L2369.16,231.892L2369.17,231.979L2369.17,232.065L2369.18,232.148L2369.18,232.231L2369.18,232.314L2369.19,232.393L2369.19,232.474L2369.2,232.556L2369.2,232.634L2369.21,232.711L2369.22,232.788L2369.22,232.863L2369.23,232.939L2369.24,233.013L2369.24,233.086L2369.25,233.156L2369.26,233.227L2369.27,233.297L2369.28,233.365L2369.28,233.431L2369.29,233.497L2369.3,233.561L2369.31,233.624L2369.32,233.685L2369.33,233.745L2369.34,233.804L2369.35,233.861L2369.36,233.917L2369.37,233.972L2369.39,234.025L2369.4,234.075L2369.41,234.125L2369.42,234.173L2369.43,234.22L2369.45,234.264L2369.46,234.307L2369.47,234.348L2369.48,234.388L2369.5,234.425L2369.51,234.461L2369.52,234.496L2369.54,234.528L2369.55,234.558L2369.56,234.586L2369.58,234.613L2369.59,234.637L2369.61,234.66L2369.62,234.68L2369.64,234.699L2369.65,234.715L2369.66,234.73L2369.68,234.742L2369.69,234.752L2369.71,234.76L2369.72,234.765L2369.74,234.769L2369.76,234.77L2419.24,234.77L2419.26,234.769L2419.28,234.765L2419.29,234.76L2419.31,234.752L2419.32,234.742L2419.34,234.73L2419.35,234.715L2419.37,234.699L2419.38,234.68L2419.39,234.66L2419.41,234.638L2419.42,234.613L2419.44,234.586L2419.45,234.558L2419.46,234.528L2419.48,234.495L2419.49,234.461L2419.5,234.426L2419.52,234.388L2419.53,234.348L2419.54,234.307L2419.55,234.264L2419.57,234.219L2419.58,234.173L2419.59,234.125L2419.6,234.075L2419.61,234.025L2419.63,233.972L2419.64,233.917L2419.65,233.861L2419.66,233.804L2419.67,233.746L2419.68,233.685L2419.69,233.623L2419.7,233.56L2419.71,233.498L2419.72,233.432L2419.72,233.363L2419.73,233.296L2419.74,233.228L2419.75,233.158L2419.76,233.085L2419.76,233.012L2419.77,232.939L2419.78,232.865L2419.78,232.788L2419.79,232.711L2419.8,232.634L2419.8,232.555L2419.81,232.476L2419.81,232.395L2419.82,232.312L2419.82,232.23L2419.83,232.148L2419.83,232.064L2419.83,231.979L2419.84,231.894L2419.84,231.807L2419.84,231.719L2419.84,231.633L2419.84,231.545L2419.84,231.454L2419.84,231.363L2419.84,231.269L2419.84,213.66L2419.84,213.565L2419.84,213.475L2419.84,213.384L2419.84,213.296L2419.84,213.21L2419.84,213.122L2419.84,213.035L2419.83,212.95L2419.83,212.865L2419.83,212.781L2419.82,212.698L2419.82,212.616L2419.81,212.534L2419.81,212.453L2419.8,212.374L2419.8,212.295L2419.79,212.217L2419.78,212.141L2419.78,212.064L2419.77,211.99L2419.76,211.917L2419.76,211.844L2419.75,211.771L2419.74,211.701L2419.73,211.633L2419.72,211.566L2419.72,211.497L2419.71,211.431L2419.7,211.369L2419.69,211.306L2419.68,211.243L2419.67,211.183L2419.66,211.124L2419.65,211.067L2419.64,211.012L2419.63,210.957L2419.61,210.904L2419.6,210.854L2419.59,210.804L2419.58,210.756L2419.57,210.71L2419.55,210.665L2419.54,210.622L2419.53,210.581L2419.52,210.541L2419.5,210.503L2419.49,210.467L2419.48,210.434L2419.46,210.401L2419.45,210.371L2419.44,210.343L2419.42,210.316L2419.41,210.291L2419.39,210.269L2419.38,210.248L2419.37,210.23L2419.35,210.214L2419.34,210.199L2419.32,210.187L2419.31,210.177L2419.29,210.169L2419.28,210.163L2419.26,210.16L2419.24,210.159L2369.76,210.159Z" style="fill:rgb(51,51,51);"/>
                        </g>
                    </g>
                </g>
                <g transform="matrix(0.882353,0,0,0.454049,-624.662,779.148)">
                    <g id="B">
                        <g id="B1" serif:id="B">
                            <path d="M2420,213.655C2420,211.224 2418.98,209.25 2417.73,209.25L2371.27,209.25C2370.02,209.25 2369,211.224 2369,213.655L2369,231.274C2369,233.705 2370.02,235.679 2371.27,235.679L2417.73,235.679C2418.98,235.679 2420,233.705 2420,231.274L2420,213.655Z" style="fill:url(#_Linear5);"/>
                            <path d="M2417.79,209.251L2417.85,209.256L2417.91,209.263L2417.97,209.273L2418.02,209.285L2418.08,209.301L2418.13,209.319L2418.19,209.34L2418.24,209.363L2418.3,209.389L2418.35,209.417L2418.41,209.448L2418.46,209.482L2418.51,209.517L2418.56,209.556L2418.62,209.596L2418.67,209.639L2418.72,209.685L2418.76,209.732L2418.81,209.782L2418.86,209.834L2418.91,209.888L2418.95,209.944L2419,210.003L2419.05,210.063L2419.09,210.126L2419.13,210.19L2419.18,210.256L2419.22,210.325L2419.26,210.395L2419.3,210.467L2419.34,210.541L2419.37,210.616L2419.41,210.694L2419.45,210.773L2419.48,210.854L2419.52,210.936L2419.55,211.02L2419.58,211.106L2419.61,211.193L2419.64,211.281L2419.67,211.371L2419.7,211.463L2419.73,211.556L2419.75,211.65L2419.78,211.746L2419.8,211.843L2419.82,211.941L2419.84,212.04L2419.86,212.141L2419.88,212.243L2419.9,212.346L2419.91,212.45L2419.93,212.555L2419.94,212.661L2419.95,212.768L2419.97,212.876L2419.97,212.984L2419.98,213.094L2419.99,213.205L2419.99,213.316L2420,213.428L2420,213.541L2420,213.655L2420,231.274L2420,231.388L2420,231.501L2419.99,231.613L2419.99,231.724L2419.98,231.835L2419.97,231.944L2419.97,232.053L2419.95,232.161L2419.94,232.268L2419.93,232.374L2419.91,232.479L2419.9,232.583L2419.88,232.686L2419.86,232.788L2419.84,232.889L2419.82,232.988L2419.8,233.086L2419.78,233.183L2419.75,233.279L2419.73,233.373L2419.7,233.466L2419.67,233.557L2419.64,233.647L2419.61,233.736L2419.58,233.823L2419.55,233.909L2419.52,233.993L2419.48,234.075L2419.45,234.156L2419.41,234.235L2419.37,234.312L2419.34,234.388L2419.3,234.462L2419.26,234.534L2419.22,234.604L2419.18,234.672L2419.13,234.739L2419.09,234.803L2419.05,234.866L2419,234.926L2418.95,234.985L2418.91,235.041L2418.86,235.095L2418.81,235.147L2418.76,235.197L2418.72,235.244L2418.67,235.289L2418.62,235.332L2418.56,235.373L2418.51,235.411L2418.46,235.447L2418.41,235.481L2418.35,235.512L2418.3,235.54L2418.24,235.566L2418.19,235.589L2418.13,235.61L2418.08,235.628L2418.02,235.643L2417.97,235.656L2417.91,235.666L2417.85,235.673L2417.79,235.677L2417.73,235.679L2371.27,235.679L2371.21,235.677L2371.15,235.673L2371.09,235.666L2371.03,235.656L2370.98,235.643L2370.92,235.628L2370.87,235.61L2370.81,235.589L2370.76,235.566L2370.7,235.54L2370.65,235.512L2370.59,235.481L2370.54,235.447L2370.49,235.411L2370.44,235.373L2370.39,235.332L2370.33,235.289L2370.28,235.244L2370.24,235.197L2370.19,235.147L2370.14,235.095L2370.09,235.041L2370.05,234.985L2370,234.926L2369.95,234.866L2369.91,234.803L2369.87,234.739L2369.83,234.672L2369.78,234.604L2369.74,234.534L2369.7,234.462L2369.66,234.388L2369.63,234.312L2369.59,234.235L2369.55,234.156L2369.52,234.075L2369.48,233.993L2369.45,233.909L2369.42,233.823L2369.39,233.736L2369.36,233.647L2369.33,233.557L2369.3,233.466L2369.27,233.373L2369.25,233.279L2369.22,233.183L2369.2,233.086L2369.18,232.988L2369.16,232.889L2369.14,232.788L2369.12,232.686L2369.1,232.583L2369.09,232.479L2369.07,232.374L2369.06,232.268L2369.05,232.161L2369.03,232.053L2369.03,231.944L2369.02,231.835L2369.01,231.724L2369.01,231.613L2369,231.501L2369,231.388L2369,231.274L2369,213.655L2369,213.541L2369,213.428L2369.01,213.316L2369.01,213.205L2369.02,213.094L2369.03,212.984L2369.03,212.876L2369.05,212.768L2369.06,212.661L2369.07,212.555L2369.09,212.45L2369.1,212.346L2369.12,212.243L2369.14,212.141L2369.16,212.04L2369.18,211.941L2369.2,211.843L2369.22,211.746L2369.25,211.65L2369.27,211.556L2369.3,211.463L2369.33,211.371L2369.36,211.281L2369.39,211.193L2369.42,211.106L2369.45,211.02L2369.48,210.936L2369.52,210.854L2369.55,210.773L2369.59,210.694L2369.63,210.616L2369.66,210.541L2369.7,210.467L2369.74,210.395L2369.78,210.325L2369.83,210.256L2369.87,210.19L2369.91,210.126L2369.95,210.063L2370,210.003L2370.05,209.944L2370.09,209.888L2370.14,209.834L2370.19,209.782L2370.24,209.732L2370.28,209.685L2370.33,209.639L2370.39,209.596L2370.44,209.556L2370.49,209.517L2370.54,209.482L2370.59,209.448L2370.65,209.417L2370.7,209.389L2370.76,209.363L2370.81,209.34L2370.87,209.319L2370.92,209.301L2370.98,209.285L2371.03,209.273L2371.09,209.263L2371.15,209.256L2371.21,209.251L2371.27,209.25L2417.73,209.25L2417.79,209.251ZM2371.27,210.159L2371.22,210.16L2371.17,210.163L2371.13,210.169L2371.08,210.177L2371.04,210.187L2370.99,210.199L2370.95,210.213L2370.9,210.23L2370.86,210.249L2370.82,210.269L2370.78,210.291L2370.73,210.316L2370.69,210.342L2370.65,210.371L2370.61,210.401L2370.57,210.433L2370.53,210.468L2370.49,210.503L2370.45,210.541L2370.41,210.581L2370.37,210.622L2370.34,210.665L2370.3,210.709L2370.26,210.756L2370.23,210.804L2370.19,210.854L2370.16,210.905L2370.12,210.957L2370.09,211.012L2370.06,211.068L2370.03,211.125L2369.99,211.183L2369.97,211.243L2369.93,211.305L2369.91,211.368L2369.88,211.432L2369.85,211.497L2369.83,211.565L2369.8,211.633L2369.78,211.701L2369.75,211.772L2369.73,211.844L2369.71,211.917L2369.68,211.989L2369.66,212.064L2369.64,212.141L2369.63,212.218L2369.61,212.295L2369.59,212.374L2369.58,212.454L2369.56,212.533L2369.55,212.615L2369.54,212.698L2369.52,212.782L2369.51,212.865L2369.5,212.95L2369.5,213.035L2369.49,213.122L2369.48,213.209L2369.48,213.297L2369.47,213.385L2369.47,213.475L2369.47,213.564L2369.47,213.66L2369.47,231.269L2369.47,231.365L2369.47,231.454L2369.47,231.544L2369.48,231.632L2369.48,231.719L2369.49,231.807L2369.5,231.894L2369.5,231.979L2369.51,232.064L2369.52,232.147L2369.54,232.231L2369.55,232.314L2369.56,232.395L2369.58,232.474L2369.59,232.555L2369.61,232.634L2369.63,232.711L2369.64,232.788L2369.66,232.864L2369.68,232.939L2369.71,233.012L2369.73,233.085L2369.75,233.157L2369.78,233.228L2369.8,233.296L2369.83,233.364L2369.85,233.431L2369.88,233.497L2369.91,233.561L2369.93,233.624L2369.97,233.685L2369.99,233.746L2370.03,233.804L2370.06,233.861L2370.09,233.917L2370.12,233.972L2370.16,234.024L2370.19,234.075L2370.23,234.125L2370.26,234.173L2370.3,234.22L2370.34,234.264L2370.37,234.307L2370.41,234.348L2370.45,234.388L2370.49,234.426L2370.53,234.461L2370.57,234.495L2370.61,234.528L2370.65,234.558L2370.69,234.586L2370.73,234.613L2370.78,234.637L2370.82,234.66L2370.86,234.68L2370.9,234.699L2370.95,234.715L2370.99,234.73L2371.04,234.742L2371.08,234.752L2371.13,234.76L2371.17,234.765L2371.22,234.769L2371.27,234.77L2417.73,234.77L2417.78,234.769L2417.83,234.765L2417.87,234.76L2417.92,234.752L2417.96,234.742L2418.01,234.73L2418.05,234.715L2418.1,234.699L2418.14,234.68L2418.18,234.66L2418.23,234.637L2418.27,234.613L2418.31,234.586L2418.35,234.558L2418.39,234.528L2418.43,234.495L2418.47,234.461L2418.51,234.426L2418.55,234.388L2418.59,234.348L2418.63,234.307L2418.67,234.264L2418.7,234.22L2418.74,234.173L2418.77,234.125L2418.81,234.075L2418.84,234.025L2418.88,233.971L2418.91,233.917L2418.94,233.861L2418.97,233.804L2419.01,233.745L2419.03,233.685L2419.07,233.624L2419.09,233.561L2419.12,233.497L2419.15,233.43L2419.18,233.365L2419.2,233.297L2419.22,233.227L2419.25,233.157L2419.27,233.086L2419.29,233.012L2419.32,232.938L2419.34,232.864L2419.36,232.788L2419.37,232.711L2419.39,232.634L2419.41,232.555L2419.42,232.476L2419.44,232.394L2419.45,232.313L2419.46,232.231L2419.48,232.148L2419.49,232.064L2419.5,231.979L2419.5,231.894L2419.51,231.807L2419.52,231.721L2419.52,231.632L2419.53,231.544L2419.53,231.454L2419.53,231.364L2419.53,231.268L2419.53,213.661L2419.53,213.565L2419.53,213.475L2419.53,213.385L2419.52,213.297L2419.52,213.208L2419.51,213.122L2419.5,213.035L2419.5,212.95L2419.49,212.865L2419.48,212.781L2419.46,212.698L2419.45,212.616L2419.44,212.535L2419.42,212.453L2419.41,212.374L2419.39,212.295L2419.37,212.218L2419.36,212.141L2419.34,212.064L2419.32,211.99L2419.29,211.917L2419.27,211.843L2419.25,211.772L2419.22,211.702L2419.2,211.632L2419.18,211.564L2419.15,211.498L2419.12,211.432L2419.09,211.368L2419.07,211.305L2419.03,211.243L2419.01,211.184L2418.97,211.125L2418.94,211.067L2418.91,211.012L2418.88,210.957L2418.84,210.904L2418.81,210.854L2418.77,210.804L2418.74,210.756L2418.7,210.709L2418.67,210.665L2418.63,210.622L2418.59,210.58L2418.55,210.541L2418.51,210.504L2418.47,210.468L2418.43,210.433L2418.39,210.401L2418.35,210.371L2418.31,210.342L2418.27,210.316L2418.23,210.291L2418.18,210.269L2418.14,210.249L2418.1,210.23L2418.05,210.213L2418.01,210.199L2417.96,210.187L2417.92,210.177L2417.87,210.169L2417.83,210.163L2417.78,210.16L2417.73,210.159L2371.27,210.159Z" style="fill:rgb(51,51,51);"/>
                        </g>
                    </g>
                </g>
                <g transform="matrix(0.882353,0,0,0.454049,-579.662,791.148)">
                    <g id="B2" serif:id="B">
                        <g id="B3" serif:id="B">
                            <path d="M2420,213.655C2420,211.224 2418.98,209.25 2417.73,209.25L2371.27,209.25C2370.02,209.25 2369,211.224 2369,213.655L2369,231.274C2369,233.705 2370.02,235.679 2371.27,235.679L2417.73,235.679C2418.98,235.679 2420,233.705 2420,231.274L2420,213.655Z" style="fill:url(#_Linear6);"/>
                            <path d="M2417.79,209.251L2417.85,209.256L2417.91,209.263L2417.97,209.273L2418.02,209.285L2418.08,209.301L2418.13,209.319L2418.19,209.34L2418.24,209.363L2418.3,209.389L2418.35,209.417L2418.41,209.448L2418.46,209.482L2418.51,209.517L2418.56,209.556L2418.62,209.596L2418.67,209.639L2418.72,209.685L2418.76,209.732L2418.81,209.782L2418.86,209.834L2418.91,209.888L2418.95,209.944L2419,210.003L2419.05,210.063L2419.09,210.126L2419.13,210.19L2419.18,210.256L2419.22,210.325L2419.26,210.395L2419.3,210.467L2419.34,210.541L2419.37,210.616L2419.41,210.694L2419.45,210.773L2419.48,210.854L2419.52,210.936L2419.55,211.02L2419.58,211.106L2419.61,211.193L2419.64,211.281L2419.67,211.371L2419.7,211.463L2419.73,211.556L2419.75,211.65L2419.78,211.746L2419.8,211.843L2419.82,211.941L2419.84,212.04L2419.86,212.141L2419.88,212.243L2419.9,212.346L2419.91,212.45L2419.93,212.555L2419.94,212.661L2419.95,212.768L2419.97,212.876L2419.97,212.984L2419.98,213.094L2419.99,213.205L2419.99,213.316L2420,213.428L2420,213.541L2420,213.655L2420,231.274L2420,231.388L2420,231.501L2419.99,231.613L2419.99,231.724L2419.98,231.835L2419.97,231.944L2419.97,232.053L2419.95,232.161L2419.94,232.268L2419.93,232.374L2419.91,232.479L2419.9,232.583L2419.88,232.686L2419.86,232.788L2419.84,232.889L2419.82,232.988L2419.8,233.086L2419.78,233.183L2419.75,233.279L2419.73,233.373L2419.7,233.466L2419.67,233.557L2419.64,233.647L2419.61,233.736L2419.58,233.823L2419.55,233.909L2419.52,233.993L2419.48,234.075L2419.45,234.156L2419.41,234.235L2419.37,234.312L2419.34,234.388L2419.3,234.462L2419.26,234.534L2419.22,234.604L2419.18,234.672L2419.13,234.739L2419.09,234.803L2419.05,234.866L2419,234.926L2418.95,234.985L2418.91,235.041L2418.86,235.095L2418.81,235.147L2418.76,235.197L2418.72,235.244L2418.67,235.289L2418.62,235.332L2418.56,235.373L2418.51,235.411L2418.46,235.447L2418.41,235.481L2418.35,235.512L2418.3,235.54L2418.24,235.566L2418.19,235.589L2418.13,235.61L2418.08,235.628L2418.02,235.643L2417.97,235.656L2417.91,235.666L2417.85,235.673L2417.79,235.677L2417.73,235.679L2371.27,235.679L2371.21,235.677L2371.15,235.673L2371.09,235.666L2371.03,235.656L2370.98,235.643L2370.92,235.628L2370.87,235.61L2370.81,235.589L2370.76,235.566L2370.7,235.54L2370.65,235.512L2370.59,235.481L2370.54,235.447L2370.49,235.411L2370.44,235.373L2370.39,235.332L2370.33,235.289L2370.28,235.244L2370.24,235.197L2370.19,235.147L2370.14,235.095L2370.09,235.041L2370.05,234.985L2370,234.926L2369.95,234.866L2369.91,234.803L2369.87,234.739L2369.83,234.672L2369.78,234.604L2369.74,234.534L2369.7,234.462L2369.66,234.388L2369.63,234.312L2369.59,234.235L2369.55,234.156L2369.52,234.075L2369.48,233.993L2369.45,233.909L2369.42,233.823L2369.39,233.736L2369.36,233.647L2369.33,233.557L2369.3,233.466L2369.27,233.373L2369.25,233.279L2369.22,233.183L2369.2,233.086L2369.18,232.988L2369.16,232.889L2369.14,232.788L2369.12,232.686L2369.1,232.583L2369.09,232.479L2369.07,232.374L2369.06,232.268L2369.05,232.161L2369.03,232.053L2369.03,231.944L2369.02,231.835L2369.01,231.724L2369.01,231.613L2369,231.501L2369,231.388L2369,231.274L2369,213.655L2369,213.541L2369,213.428L2369.01,213.316L2369.01,213.205L2369.02,213.094L2369.03,212.984L2369.03,212.876L2369.05,212.768L2369.06,212.661L2369.07,212.555L2369.09,212.45L2369.1,212.346L2369.12,212.243L2369.14,212.141L2369.16,212.04L2369.18,211.941L2369.2,211.843L2369.22,211.746L2369.25,211.65L2369.27,211.556L2369.3,211.463L2369.33,211.371L2369.36,211.281L2369.39,211.193L2369.42,211.106L2369.45,211.02L2369.48,210.936L2369.52,210.854L2369.55,210.773L2369.59,210.694L2369.63,210.616L2369.66,210.541L2369.7,210.467L2369.74,210.395L2369.78,210.325L2369.83,210.256L2369.87,210.19L2369.91,210.126L2369.95,210.063L2370,210.003L2370.05,209.944L2370.09,209.888L2370.14,209.834L2370.19,209.782L2370.24,209.732L2370.28,209.685L2370.33,209.639L2370.39,209.596L2370.44,209.556L2370.49,209.517L2370.54,209.482L2370.59,209.448L2370.65,209.417L2370.7,209.389L2370.76,209.363L2370.81,209.34L2370.87,209.319L2370.92,209.301L2370.98,209.285L2371.03,209.273L2371.09,209.263L2371.15,209.256L2371.21,209.251L2371.27,209.25L2417.73,209.25L2417.79,209.251ZM2371.27,210.159L2371.22,210.16L2371.17,210.163L2371.13,210.169L2371.08,210.177L2371.04,210.187L2370.99,210.199L2370.95,210.214L2370.9,210.23L2370.86,210.248L2370.82,210.269L2370.78,210.291L2370.73,210.316L2370.69,210.343L2370.65,210.371L2370.61,210.401L2370.57,210.433L2370.53,210.467L2370.49,210.503L2370.45,210.541L2370.41,210.581L2370.37,210.622L2370.34,210.665L2370.3,210.709L2370.26,210.756L2370.23,210.804L2370.19,210.854L2370.16,210.905L2370.12,210.957L2370.09,211.012L2370.06,211.068L2370.03,211.125L2369.99,211.183L2369.97,211.244L2369.93,211.305L2369.91,211.368L2369.88,211.432L2369.85,211.498L2369.83,211.565L2369.8,211.633L2369.78,211.701L2369.75,211.772L2369.73,211.844L2369.71,211.917L2369.68,211.989L2369.66,212.065L2369.64,212.141L2369.63,212.217L2369.61,212.295L2369.59,212.374L2369.58,212.454L2369.56,212.534L2369.55,212.615L2369.54,212.698L2369.52,212.782L2369.51,212.865L2369.5,212.95L2369.5,213.035L2369.49,213.122L2369.48,213.209L2369.48,213.297L2369.47,213.385L2369.47,213.475L2369.47,213.564L2369.47,213.66L2369.47,231.269L2369.47,231.365L2369.47,231.454L2369.47,231.544L2369.48,231.632L2369.48,231.719L2369.49,231.807L2369.5,231.894L2369.5,231.979L2369.51,232.064L2369.52,232.147L2369.54,232.231L2369.55,232.314L2369.56,232.395L2369.58,232.475L2369.59,232.555L2369.61,232.634L2369.63,232.711L2369.64,232.788L2369.66,232.865L2369.68,232.939L2369.71,233.012L2369.73,233.085L2369.75,233.157L2369.78,233.228L2369.8,233.296L2369.83,233.364L2369.85,233.432L2369.88,233.497L2369.91,233.561L2369.93,233.624L2369.97,233.686L2369.99,233.746L2370.03,233.804L2370.06,233.861L2370.09,233.917L2370.12,233.972L2370.16,234.024L2370.19,234.075L2370.23,234.125L2370.26,234.173L2370.3,234.219L2370.34,234.264L2370.37,234.307L2370.41,234.348L2370.45,234.388L2370.49,234.426L2370.53,234.461L2370.57,234.495L2370.61,234.527L2370.65,234.558L2370.69,234.586L2370.73,234.613L2370.78,234.638L2370.82,234.66L2370.86,234.68L2370.9,234.699L2370.95,234.715L2370.99,234.73L2371.04,234.742L2371.08,234.752L2371.13,234.76L2371.17,234.765L2371.22,234.769L2371.27,234.77L2417.73,234.77L2417.78,234.769L2417.83,234.765L2417.87,234.76L2417.92,234.752L2417.96,234.742L2418.01,234.73L2418.05,234.715L2418.1,234.699L2418.14,234.68L2418.18,234.66L2418.23,234.637L2418.27,234.613L2418.31,234.587L2418.35,234.558L2418.39,234.527L2418.43,234.495L2418.47,234.461L2418.51,234.425L2418.55,234.388L2418.59,234.348L2418.63,234.307L2418.67,234.264L2418.7,234.219L2418.74,234.173L2418.77,234.125L2418.81,234.075L2418.84,234.025L2418.88,233.972L2418.91,233.917L2418.94,233.862L2418.97,233.804L2419.01,233.745L2419.03,233.686L2419.07,233.624L2419.09,233.561L2419.12,233.497L2419.15,233.431L2419.18,233.365L2419.2,233.297L2419.22,233.227L2419.25,233.157L2419.27,233.086L2419.29,233.012L2419.32,232.938L2419.34,232.865L2419.36,232.788L2419.37,232.711L2419.39,232.634L2419.41,232.555L2419.42,232.476L2419.44,232.394L2419.45,232.313L2419.46,232.231L2419.48,232.148L2419.49,232.064L2419.5,231.979L2419.5,231.894L2419.51,231.807L2419.52,231.721L2419.52,231.632L2419.53,231.544L2419.53,231.454L2419.53,231.364L2419.53,231.268L2419.53,213.661L2419.53,213.565L2419.53,213.475L2419.53,213.385L2419.52,213.297L2419.52,213.208L2419.51,213.122L2419.5,213.035L2419.5,212.95L2419.49,212.865L2419.48,212.781L2419.46,212.698L2419.45,212.616L2419.44,212.535L2419.42,212.453L2419.41,212.374L2419.39,212.295L2419.37,212.217L2419.36,212.141L2419.34,212.065L2419.32,211.99L2419.29,211.917L2419.27,211.843L2419.25,211.772L2419.22,211.702L2419.2,211.632L2419.18,211.564L2419.15,211.498L2419.12,211.432L2419.09,211.368L2419.07,211.305L2419.03,211.244L2419.01,211.183L2418.97,211.125L2418.94,211.067L2418.91,211.012L2418.88,210.957L2418.84,210.904L2418.81,210.854L2418.77,210.804L2418.74,210.756L2418.7,210.709L2418.67,210.665L2418.63,210.622L2418.59,210.58L2418.55,210.541L2418.51,210.503L2418.47,210.467L2418.43,210.433L2418.39,210.401L2418.35,210.371L2418.31,210.343L2418.27,210.316L2418.23,210.291L2418.18,210.269L2418.14,210.248L2418.1,210.23L2418.05,210.214L2418.01,210.199L2417.96,210.187L2417.92,210.177L2417.87,210.169L2417.83,210.163L2417.78,210.16L2417.73,210.159L2371.27,210.159Z" style="fill:rgb(51,51,51);"/>
                        </g>
                    </g>
                </g>
                <g transform="matrix(0.882353,0,0,0.454049,-534.662,803.148)">
                    <g id="B4" serif:id="B">
                        <g id="B5" serif:id="B">
                            <path d="M2420,213.655C2420,211.224 2418.98,209.25 2417.73,209.25L2371.27,209.25C2370.02,209.25 2369,211.224 2369,213.655L2369,231.274C2369,233.705 2370.02,235.679 2371.27,235.679L2417.73,235.679C2418.98,235.679 2420,233.705 2420,231.274L2420,213.655Z" style="fill:url(#_Linear7);"/>
                            <path d="M2417.79,209.251L2417.85,209.256L2417.91,209.263L2417.97,209.273L2418.02,209.285L2418.08,209.301L2418.13,209.319L2418.19,209.34L2418.24,209.363L2418.3,209.389L2418.35,209.417L2418.41,209.448L2418.46,209.482L2418.51,209.517L2418.56,209.556L2418.62,209.596L2418.67,209.639L2418.72,209.685L2418.76,209.732L2418.81,209.782L2418.86,209.834L2418.91,209.888L2418.95,209.944L2419,210.003L2419.05,210.063L2419.09,210.126L2419.13,210.19L2419.18,210.256L2419.22,210.325L2419.26,210.395L2419.3,210.467L2419.34,210.541L2419.37,210.616L2419.41,210.694L2419.45,210.773L2419.48,210.854L2419.52,210.936L2419.55,211.02L2419.58,211.106L2419.61,211.193L2419.64,211.281L2419.67,211.371L2419.7,211.463L2419.73,211.556L2419.75,211.65L2419.78,211.746L2419.8,211.843L2419.82,211.941L2419.84,212.04L2419.86,212.141L2419.88,212.243L2419.9,212.346L2419.91,212.45L2419.93,212.555L2419.94,212.661L2419.95,212.768L2419.97,212.876L2419.97,212.984L2419.98,213.094L2419.99,213.205L2419.99,213.316L2420,213.428L2420,213.541L2420,213.655L2420,231.274L2420,231.388L2420,231.501L2419.99,231.613L2419.99,231.724L2419.98,231.835L2419.97,231.944L2419.97,232.053L2419.95,232.161L2419.94,232.268L2419.93,232.374L2419.91,232.479L2419.9,232.583L2419.88,232.686L2419.86,232.788L2419.84,232.889L2419.82,232.988L2419.8,233.086L2419.78,233.183L2419.75,233.279L2419.73,233.373L2419.7,233.466L2419.67,233.557L2419.64,233.647L2419.61,233.736L2419.58,233.823L2419.55,233.909L2419.52,233.993L2419.48,234.075L2419.45,234.156L2419.41,234.235L2419.37,234.312L2419.34,234.388L2419.3,234.462L2419.26,234.534L2419.22,234.604L2419.18,234.672L2419.13,234.739L2419.09,234.803L2419.05,234.866L2419,234.926L2418.95,234.985L2418.91,235.041L2418.86,235.095L2418.81,235.147L2418.76,235.197L2418.72,235.244L2418.67,235.289L2418.62,235.332L2418.56,235.373L2418.51,235.411L2418.46,235.447L2418.41,235.481L2418.35,235.512L2418.3,235.54L2418.24,235.566L2418.19,235.589L2418.13,235.61L2418.08,235.628L2418.02,235.643L2417.97,235.656L2417.91,235.666L2417.85,235.673L2417.79,235.677L2417.73,235.679L2371.27,235.679L2371.21,235.677L2371.15,235.673L2371.09,235.666L2371.03,235.656L2370.98,235.643L2370.92,235.628L2370.87,235.61L2370.81,235.589L2370.76,235.566L2370.7,235.54L2370.65,235.512L2370.59,235.481L2370.54,235.447L2370.49,235.411L2370.44,235.373L2370.39,235.332L2370.33,235.289L2370.28,235.244L2370.24,235.197L2370.19,235.147L2370.14,235.095L2370.09,235.041L2370.05,234.985L2370,234.926L2369.95,234.866L2369.91,234.803L2369.87,234.739L2369.83,234.672L2369.78,234.604L2369.74,234.534L2369.7,234.462L2369.66,234.388L2369.63,234.312L2369.59,234.235L2369.55,234.156L2369.52,234.075L2369.48,233.993L2369.45,233.909L2369.42,233.823L2369.39,233.736L2369.36,233.647L2369.33,233.557L2369.3,233.466L2369.27,233.373L2369.25,233.279L2369.22,233.183L2369.2,233.086L2369.18,232.988L2369.16,232.889L2369.14,232.788L2369.12,232.686L2369.1,232.583L2369.09,232.479L2369.07,232.374L2369.06,232.268L2369.05,232.161L2369.03,232.053L2369.03,231.944L2369.02,231.835L2369.01,231.724L2369.01,231.613L2369,231.501L2369,231.388L2369,231.274L2369,213.655L2369,213.541L2369,213.428L2369.01,213.316L2369.01,213.205L2369.02,213.094L2369.03,212.984L2369.03,212.876L2369.05,212.768L2369.06,212.661L2369.07,212.555L2369.09,212.45L2369.1,212.346L2369.12,212.243L2369.14,212.141L2369.16,212.04L2369.18,211.941L2369.2,211.843L2369.22,211.746L2369.25,211.65L2369.27,211.556L2369.3,211.463L2369.33,211.371L2369.36,211.281L2369.39,211.193L2369.42,211.106L2369.45,211.02L2369.48,210.936L2369.52,210.854L2369.55,210.773L2369.59,210.694L2369.63,210.616L2369.66,210.541L2369.7,210.467L2369.74,210.395L2369.78,210.325L2369.83,210.256L2369.87,210.19L2369.91,210.126L2369.95,210.063L2370,210.003L2370.05,209.944L2370.09,209.888L2370.14,209.834L2370.19,209.782L2370.24,209.732L2370.28,209.685L2370.33,209.639L2370.39,209.596L2370.44,209.556L2370.49,209.517L2370.54,209.482L2370.59,209.448L2370.65,209.417L2370.7,209.389L2370.76,209.363L2370.81,209.34L2370.87,209.319L2370.92,209.301L2370.98,209.285L2371.03,209.273L2371.09,209.263L2371.15,209.256L2371.21,209.251L2371.27,209.25L2417.73,209.25L2417.79,209.251ZM2371.27,210.159L2371.22,210.16L2371.17,210.164L2371.13,210.169L2371.08,210.177L2371.04,210.187L2370.99,210.199L2370.95,210.214L2370.9,210.23L2370.86,210.248L2370.82,210.269L2370.77,210.291L2370.73,210.316L2370.69,210.342L2370.65,210.371L2370.61,210.401L2370.57,210.433L2370.53,210.467L2370.49,210.503L2370.45,210.541L2370.41,210.58L2370.37,210.622L2370.33,210.665L2370.3,210.709L2370.26,210.756L2370.23,210.803L2370.19,210.853L2370.16,210.905L2370.12,210.957L2370.09,211.011L2370.06,211.068L2370.03,211.125L2369.99,211.183L2369.97,211.244L2369.93,211.305L2369.91,211.368L2369.88,211.433L2369.85,211.497L2369.83,211.565L2369.8,211.633L2369.78,211.701L2369.75,211.772L2369.73,211.844L2369.71,211.917L2369.68,211.989L2369.66,212.064L2369.64,212.141L2369.63,212.217L2369.61,212.295L2369.59,212.374L2369.58,212.454L2369.56,212.533L2369.55,212.615L2369.54,212.698L2369.52,212.782L2369.51,212.865L2369.5,212.95L2369.5,213.035L2369.49,213.122L2369.48,213.209L2369.48,213.297L2369.47,213.385L2369.47,213.474L2369.47,213.564L2369.47,213.66L2369.47,231.269L2369.47,231.365L2369.47,231.454L2369.47,231.544L2369.48,231.632L2369.48,231.719L2369.49,231.807L2369.5,231.894L2369.5,231.979L2369.51,232.064L2369.52,232.147L2369.54,232.23L2369.55,232.314L2369.56,232.396L2369.58,232.474L2369.59,232.554L2369.61,232.634L2369.63,232.711L2369.64,232.788L2369.66,232.865L2369.68,232.94L2369.71,233.012L2369.73,233.085L2369.75,233.157L2369.78,233.227L2369.8,233.296L2369.83,233.364L2369.85,233.432L2369.88,233.496L2369.91,233.561L2369.93,233.624L2369.97,233.685L2369.99,233.746L2370.03,233.804L2370.06,233.861L2370.09,233.918L2370.12,233.972L2370.16,234.024L2370.19,234.076L2370.23,234.126L2370.26,234.173L2370.3,234.219L2370.33,234.264L2370.37,234.307L2370.41,234.348L2370.45,234.388L2370.49,234.426L2370.53,234.461L2370.57,234.496L2370.61,234.527L2370.65,234.558L2370.69,234.586L2370.73,234.613L2370.77,234.637L2370.82,234.66L2370.86,234.68L2370.9,234.699L2370.95,234.715L2370.99,234.73L2371.04,234.742L2371.08,234.752L2371.13,234.76L2371.17,234.765L2371.22,234.769L2371.27,234.77L2417.73,234.77L2417.78,234.769L2417.83,234.765L2417.87,234.76L2417.92,234.752L2417.96,234.742L2418.01,234.73L2418.05,234.715L2418.1,234.699L2418.14,234.68L2418.18,234.66L2418.23,234.637L2418.27,234.613L2418.31,234.587L2418.35,234.558L2418.39,234.527L2418.43,234.496L2418.47,234.461L2418.51,234.425L2418.55,234.388L2418.59,234.349L2418.63,234.307L2418.67,234.264L2418.7,234.219L2418.74,234.173L2418.77,234.125L2418.81,234.076L2418.84,234.024L2418.88,233.971L2418.91,233.918L2418.94,233.862L2418.97,233.804L2419.01,233.745L2419.03,233.685L2419.07,233.624L2419.09,233.561L2419.12,233.496L2419.15,233.431L2419.18,233.365L2419.2,233.297L2419.22,233.226L2419.25,233.157L2419.27,233.086L2419.29,233.012L2419.32,232.938L2419.34,232.865L2419.36,232.788L2419.37,232.711L2419.39,232.634L2419.41,232.554L2419.42,232.476L2419.44,232.394L2419.45,232.313L2419.46,232.23L2419.48,232.148L2419.49,232.064L2419.5,231.979L2419.5,231.894L2419.51,231.807L2419.52,231.721L2419.52,231.632L2419.53,231.544L2419.53,231.454L2419.53,231.364L2419.53,231.268L2419.53,213.661L2419.53,213.565L2419.53,213.474L2419.53,213.385L2419.52,213.297L2419.52,213.208L2419.51,213.122L2419.5,213.035L2419.5,212.95L2419.49,212.865L2419.48,212.781L2419.46,212.698L2419.45,212.616L2419.44,212.534L2419.42,212.453L2419.41,212.374L2419.39,212.295L2419.37,212.217L2419.36,212.141L2419.34,212.064L2419.32,211.99L2419.29,211.917L2419.27,211.843L2419.25,211.772L2419.22,211.702L2419.2,211.632L2419.18,211.564L2419.15,211.498L2419.12,211.433L2419.09,211.368L2419.07,211.305L2419.03,211.244L2419.01,211.184L2418.97,211.125L2418.94,211.067L2418.91,211.011L2418.88,210.958L2418.84,210.905L2418.81,210.853L2418.77,210.804L2418.74,210.756L2418.7,210.709L2418.67,210.665L2418.63,210.622L2418.59,210.58L2418.55,210.541L2418.51,210.503L2418.47,210.467L2418.43,210.433L2418.39,210.401L2418.35,210.371L2418.31,210.342L2418.27,210.316L2418.23,210.292L2418.18,210.269L2418.14,210.248L2418.1,210.23L2418.05,210.214L2418.01,210.199L2417.96,210.187L2417.92,210.177L2417.87,210.169L2417.83,210.164L2417.78,210.16L2417.73,210.159L2371.27,210.159Z" style="fill:rgb(51,51,51);"/>
                        </g>
                    </g>
                </g>
                <g transform="matrix(0.785036,0,0,0.785036,-377.132,708.705)">
                    <text x="2361.16px" y="222.464px" style="font-family:'Lato-Regular', 'Lato', sans-serif;font-size:11.146px;fill:rgb(26,26,26);">W<tspan x="2372.02px 2377.67px " y="222.464px 222.464px ">ar</tspan>m</text>
                </g>
                <g transform="matrix(0.785036,0,0,0.785036,-332.327,708.784)">
                    <text x="2357.53px" y="222.464px" style="font-family:'Lato-Regular', 'Lato', sans-serif;font-size:11.146px;fill:rgb(26,26,26);">Neutr<tspan x="2386.43px 2392.09px " y="222.464px 222.464px ">al</tspan></text>
                </g>
                <g transform="matrix(0.785036,0,0,0.785036,-377.132,720.766)">
                    <text x="2361.16px" y="222.464px" style="font-family:'Lato-Regular', 'Lato', sans-serif;font-size:11.146px;fill:rgb(26,26,26);">W<tspan x="2372.02px 2377.67px " y="222.464px 222.464px ">ar</tspan>m</text>
                </g>
                <g transform="matrix(0.785036,0,0,0.785036,-377.132,732.827)">
                    <text x="2361.16px" y="222.464px" style="font-family:'Lato-Regular', 'Lato', sans-serif;font-size:11.146px;fill:rgb(26,26,26);">W<tspan x="2372.02px 2377.67px " y="222.464px 222.464px ">ar</tspan>m</text>
                </g>
                <g transform="matrix(0.785036,0,0,0.785036,-287.508,707.917)">
                    <text x="2360.93px" y="222.464px" style="font-family:'Lato-Regular', 'Lato', sans-serif;font-size:11.146px;fill:rgb(26,26,26);">Bright</text>
                </g>
                <g transform="matrix(0.785036,0,0,0.785036,-287.508,720.024)">
                    <text x="2360.93px" y="222.464px" style="font-family:'Lato-Regular', 'Lato', sans-serif;font-size:11.146px;fill:rgb(26,26,26);">Bright</text>
                </g>
                <g transform="matrix(0.785036,0,0,0.785036,-287.508,732.131)">
                    <text x="2360.93px" y="222.464px" style="font-family:'Lato-Regular', 'Lato', sans-serif;font-size:11.146px;fill:rgb(26,26,26);">Bright</text>
                </g>
                <g transform="matrix(0.785036,0,0,0.785036,-332.327,721.017)">
                    <text x="2357.53px" y="222.464px" style="font-family:'Lato-Regular', 'Lato', sans-serif;font-size:11.146px;fill:rgb(26,26,26);">Neutr<tspan x="2386.43px 2392.09px " y="222.464px 222.464px ">al</tspan></text>
                </g>
                <g transform="matrix(0.785036,0,0,0.785036,-332.327,732.953)">
                    <text x="2357.53px" y="222.464px" style="font-family:'Lato-Regular', 'Lato', sans-serif;font-size:11.146px;fill:rgb(26,26,26);">Neutr<tspan x="2386.43px 2392.09px " y="222.464px 222.464px ">al</tspan></text>
                </g>
            </g>
        </g>
    </g>
    <defs>
        <linearGradient id="_Linear2" x1="0" y1="0" x2="1" y2="0" gradientUnits="userSpaceOnUse" gradientTransform="matrix(2.77587e-16,-26.4289,4.53333,1.6183e-15,2394.5,235.679)"><stop offset="0" style="stop-color:rgb(173,173,173);stop-opacity:1"/><stop offset="1" style="stop-color:rgb(204,204,204);stop-opacity:1"/></linearGradient>
        <linearGradient id="_Linear3" x1="0" y1="0" x2="1" y2="0" gradientUnits="userSpaceOnUse" gradientTransform="matrix(2.77587e-16,-26.4289,4.53333,1.6183e-15,2394.5,235.679)"><stop offset="0" style="stop-color:rgb(173,173,173);stop-opacity:1"/><stop offset="1" style="stop-color:rgb(204,204,204);stop-opacity:1"/></linearGradient>
        <linearGradient id="_Linear4" x1="0" y1="0" x2="1" y2="0" gradientUnits="userSpaceOnUse" gradientTransform="matrix(2.77587e-16,-26.4289,4.53333,1.6183e-15,2394.5,235.679)"><stop offset="0" style="stop-color:rgb(173,173,173);stop-opacity:1"/><stop offset="1" style="stop-color:rgb(204,204,204);stop-opacity:1"/></linearGradient>
        <linearGradient id="_Linear5" x1="0" y1="0" x2="1" y2="0" gradientUnits="userSpaceOnUse" gradientTransform="matrix(7.65086e-16,25.8999,-12.4948,1.58591e-15,2394.5,209.308)"><stop offset="0" style="stop-color:rgb(240,158,50);stop-opacity:1"/><stop offset="1" style="stop-color:rgb(242,142,13);stop-opacity:1"/></linearGradient>
        <linearGradient id="_Linear6" x1="0" y1="0" x2="1" y2="0" gradientUnits="userSpaceOnUse" gradientTransform="matrix(7.65086e-16,25.8999,-12.4948,1.58591e-15,2394.5,209.308)"><stop offset="0" style="stop-color:rgb(240,158,50);stop-opacity:1"/><stop offset="1" style="stop-color:rgb(242,142,13);stop-opacity:1"/></linearGradient>
        <linearGradient id="_Linear7" x1="0" y1="0" x2="1" y2="0" gradientUnits="userSpaceOnUse" gradientTransform="matrix(7.65086e-16,25.8999,-12.4948,1.58591e-15,2394.5,209.308)"><stop offset="0" style="stop-color:rgb(240,158,50);stop-opacity:1"/><stop offset="1" style="stop-color:rgb(242,142,13);stop-opacity:1"/></linearGradient>
    </defs>
</svg>
