<?xml version="1.0" encoding="UTF-8" standalone="no"?>
<!DOCTYPE svg PUBLIC "-//W3C//DTD SVG 1.1//EN" "http://www.w3.org/Graphics/SVG/1.1/DTD/svg11.dtd">
<svg width="100%" height="100%" viewBox="0 0 73 144" version="1.1" xmlns="http://www.w3.org/2000/svg" xmlns:xlink="http://www.w3.org/1999/xlink" xml:space="preserve" xmlns:serif="http://www.serif.com/" style="fill-rule:evenodd;clip-rule:evenodd;stroke-linejoin:round;stroke-miterlimit:1.41421;">
    <g transform="matrix(1,0,0,1,-2755,-354)">
        <g id="bmp00124" transform="matrix(1,0,0,1,1131.63,343.58)">
            <rect x="1623.37" y="10.42" width="73" height="144" style="fill:none;"/>
            <clipPath id="_clip1">
                <rect x="1623.37" y="10.42" width="73" height="144"/>
            </clipPath>
            <g clip-path="url(#_clip1)">
                <g id="_1" serif:id="1" transform="matrix(1,0,0,1,-1230.63,2.41976)">
                    <path d="M2927,24L2854,24L2854,8L2927,8L2927,24ZM2855,9L2855,23L2926,23L2926,9L2855,9Z" style="fill:rgb(46,134,254);"/>
                </g>
                <g id="Transparent-bg-of-2" serif:id="Transparent bg of 2" transform="matrix(1,0,0,1.06667,-1230.63,-0.246902)">
                    <rect x="2854" y="25" width="73" height="15" style="fill:rgb(28,81,153);fill-opacity:0.75;"/>
                </g>
                <g id="_2" serif:id="2" transform="matrix(1,0,0,1,-1230.63,18.4198)">
                    <path d="M2927,24L2854,24L2854,8L2927,8L2927,24ZM2855,9L2855,23L2926,23L2926,9L2855,9Z" style="fill:rgb(46,134,254);"/>
                </g>
                <g id="_3" serif:id="3" transform="matrix(1,0,0,0.875,-1230.63,36.4198)">
                    <rect x="2854" y="8" width="73" height="16" style="fill:rgb(46,134,254);"/>
                </g>
                <g id="_4" serif:id="4" transform="matrix(1,0,0,0.875,-1230.63,52.4198)">
                    <rect x="2854" y="8" width="73" height="16" style="fill:rgb(61,217,255);"/>
                </g>
                <g id="_4-Yellow" serif:id="4 Yellow" transform="matrix(1,0,0,0.875,-1230.63,84.4198)">
                    <rect x="2854" y="8" width="73" height="16" style="fill:rgb(255,222,66);"/>
                </g>
                <g id="_41" serif:id="4" transform="matrix(1,0,0,0.875,-1230.63,100.42)">
                    <path d="M2927,24L2854,24L2854,8L2927,8L2927,24ZM2855.5,9.714L2855.5,22.286L2925.5,22.286L2925.5,9.714L2855.5,9.714Z" style="fill:rgb(122,122,122);"/>
                </g>
                <g transform="matrix(6.88864e-17,1.125,-0.875,5.35783e-17,1791.87,-3143.96)">
                    <path d="M2907,129.716L2907,126.284L2910.33,126.284L2910.33,124L2915,128L2910.33,132L2910.33,129.716L2907,129.716Z" style="fill:rgb(46,134,254);"/>
                    <path d="M2910.33,126.284L2910.33,124L2915,128L2910.33,132L2910.33,129.716L2907,129.716L2907,126.284L2910.33,126.284ZM2907.89,128.573L2911.22,128.573L2911.22,129.865L2913.4,128L2911.22,126.135L2911.22,127.427L2907.89,127.427L2907.89,128.573Z" style="fill:rgb(18,52,99);"/>
                </g>
                <g transform="matrix(6.88864e-17,1.125,-0.875,5.35783e-17,1791.87,-3127.96)">
                    <path d="M2907,129.716L2907,126.284L2910.33,126.284L2910.33,124L2915,128L2910.33,132L2910.33,129.716L2907,129.716Z" style="fill:rgb(18,52,99);"/>
                    <path d="M2910.33,126.284L2910.33,124L2915,128L2910.33,132L2910.33,129.716L2907,129.716L2907,126.284L2910.33,126.284ZM2907.89,128.573L2911.22,128.573L2911.22,129.865L2913.4,128L2911.22,126.135L2911.22,127.427L2907.89,127.427L2907.89,128.573Z" style="fill:rgb(255,144,0);"/>
                </g>
            </g>
        </g>
    </g>
</svg>
