<?xml version="1.0" encoding="UTF-8" standalone="no"?>
<!DOCTYPE svg PUBLIC "-//W3C//DTD SVG 1.1//EN" "http://www.w3.org/Graphics/SVG/1.1/DTD/svg11.dtd">
<svg width="100%" height="100%" viewBox="0 0 34 30" version="1.1" xmlns="http://www.w3.org/2000/svg" xmlns:xlink="http://www.w3.org/1999/xlink" xml:space="preserve" xmlns:serif="http://www.serif.com/" style="fill-rule:evenodd;clip-rule:evenodd;stroke-linejoin:round;stroke-miterlimit:1.41421;">
    <g transform="matrix(1,0,0,1,-2252,-654)">
        <g id="bmp00162" transform="matrix(1,0,0,1,431.493,-205.524)">
            <rect x="1820.51" y="859.524" width="34" height="30" style="fill:none;"/>
            <clipPath id="_clip1">
                <rect x="1820.51" y="859.524" width="34" height="30"/>
            </clipPath>
            <g clip-path="url(#_clip1)">
                <g transform="matrix(0.666667,0,0,0.264862,241.173,804.102)">
                    <g id="B">
                        <g id="B1" serif:id="B">
                            <path d="M2420,214.913C2420,211.788 2418.99,209.25 2417.75,209.25L2371.25,209.25C2370.01,209.25 2369,211.788 2369,214.913L2369,230.016C2369,233.141 2370.01,235.679 2371.25,235.679L2417.75,235.679C2418.99,235.679 2420,233.141 2420,230.016L2420,214.913Z" style="fill:url(#_Linear2);"/>
                            <path d="M2417.81,209.252L2417.87,209.257L2417.92,209.267L2417.98,209.279L2418.04,209.296L2418.09,209.315L2418.15,209.339L2418.2,209.365L2418.26,209.395L2418.31,209.428L2418.37,209.465L2418.42,209.505L2418.47,209.548L2418.52,209.594L2418.58,209.643L2418.63,209.695L2418.68,209.751L2418.72,209.809L2418.77,209.87L2418.82,209.934L2418.87,210.001L2418.92,210.07L2418.96,210.143L2419.01,210.218L2419.05,210.295L2419.1,210.376L2419.14,210.459L2419.18,210.544L2419.22,210.632L2419.26,210.722L2419.3,210.815L2419.34,210.91L2419.38,211.007L2419.41,211.106L2419.45,211.208L2419.49,211.312L2419.52,211.418L2419.55,211.526L2419.59,211.636L2419.62,211.748L2419.64,211.862L2419.67,211.978L2419.7,212.095L2419.73,212.215L2419.75,212.336L2419.78,212.459L2419.8,212.584L2419.82,212.71L2419.84,212.838L2419.86,212.967L2419.88,213.098L2419.9,213.23L2419.91,213.364L2419.93,213.499L2419.94,213.635L2419.95,213.773L2419.97,213.911L2419.97,214.051L2419.98,214.192L2419.99,214.335L2419.99,214.478L2420,214.622L2420,214.767L2420,214.913L2420,230.016L2420,230.162L2420,230.307L2419.99,230.451L2419.99,230.594L2419.98,230.736L2419.97,230.878L2419.97,231.017L2419.95,231.156L2419.94,231.294L2419.93,231.43L2419.91,231.565L2419.9,231.699L2419.88,231.831L2419.86,231.962L2419.84,232.091L2419.82,232.219L2419.8,232.345L2419.78,232.47L2419.75,232.593L2419.73,232.714L2419.7,232.834L2419.67,232.951L2419.64,233.067L2419.62,233.181L2419.59,233.293L2419.55,233.403L2419.52,233.511L2419.49,233.617L2419.45,233.721L2419.41,233.823L2419.38,233.922L2419.34,234.019L2419.3,234.114L2419.26,234.207L2419.22,234.297L2419.18,234.385L2419.14,234.47L2419.1,234.553L2419.05,234.633L2419.01,234.711L2418.96,234.786L2418.92,234.858L2418.87,234.928L2418.82,234.995L2418.77,235.059L2418.72,235.12L2418.68,235.178L2418.63,235.234L2418.58,235.286L2418.52,235.335L2418.47,235.381L2418.42,235.424L2418.37,235.464L2418.31,235.5L2418.26,235.534L2418.2,235.564L2418.15,235.59L2418.09,235.614L2418.04,235.633L2417.98,235.65L2417.92,235.662L2417.87,235.671L2417.81,235.677L2417.75,235.679L2371.25,235.679L2371.19,235.677L2371.13,235.671L2371.08,235.662L2371.02,235.65L2370.96,235.633L2370.91,235.614L2370.85,235.59L2370.8,235.564L2370.74,235.534L2370.69,235.5L2370.63,235.464L2370.58,235.424L2370.53,235.381L2370.48,235.335L2370.43,235.286L2370.38,235.234L2370.32,235.178L2370.28,235.12L2370.23,235.059L2370.18,234.995L2370.13,234.928L2370.08,234.858L2370.04,234.786L2369.99,234.711L2369.95,234.633L2369.9,234.553L2369.86,234.47L2369.82,234.385L2369.78,234.297L2369.74,234.207L2369.7,234.114L2369.66,234.019L2369.62,233.922L2369.59,233.823L2369.55,233.721L2369.51,233.617L2369.48,233.511L2369.45,233.403L2369.41,233.293L2369.38,233.181L2369.36,233.067L2369.33,232.951L2369.3,232.834L2369.27,232.714L2369.25,232.593L2369.22,232.47L2369.2,232.345L2369.18,232.219L2369.16,232.091L2369.14,231.962L2369.12,231.831L2369.1,231.699L2369.09,231.565L2369.07,231.43L2369.06,231.294L2369.05,231.156L2369.03,231.017L2369.03,230.878L2369.02,230.736L2369.01,230.594L2369.01,230.451L2369,230.307L2369,230.162L2369,230.016L2369,214.913L2369,214.767L2369,214.622L2369.01,214.478L2369.01,214.335L2369.02,214.192L2369.03,214.051L2369.03,213.911L2369.05,213.773L2369.06,213.635L2369.07,213.499L2369.09,213.364L2369.1,213.23L2369.12,213.098L2369.14,212.967L2369.16,212.838L2369.18,212.71L2369.2,212.584L2369.22,212.459L2369.25,212.336L2369.27,212.215L2369.3,212.095L2369.33,211.978L2369.36,211.862L2369.38,211.748L2369.41,211.636L2369.45,211.526L2369.48,211.418L2369.51,211.312L2369.55,211.208L2369.59,211.106L2369.62,211.007L2369.66,210.91L2369.7,210.815L2369.74,210.722L2369.78,210.632L2369.82,210.544L2369.86,210.459L2369.9,210.376L2369.95,210.295L2369.99,210.218L2370.04,210.143L2370.08,210.07L2370.13,210.001L2370.18,209.934L2370.23,209.87L2370.28,209.809L2370.32,209.751L2370.38,209.695L2370.43,209.643L2370.48,209.594L2370.53,209.548L2370.58,209.505L2370.63,209.465L2370.69,209.428L2370.74,209.395L2370.8,209.365L2370.85,209.339L2370.91,209.315L2370.96,209.296L2371.02,209.279L2371.08,209.267L2371.13,209.257L2371.19,209.252L2371.25,209.25L2417.75,209.25L2417.81,209.252ZM2371.25,210.571L2371.2,210.573L2371.16,210.577L2371.12,210.584L2371.07,210.594L2371.03,210.606L2370.99,210.622L2370.94,210.64L2370.9,210.66L2370.86,210.683L2370.82,210.709L2370.78,210.736L2370.74,210.766L2370.7,210.8L2370.66,210.835L2370.62,210.873L2370.58,210.913L2370.54,210.954L2370.5,211L2370.47,211.046L2370.43,211.095L2370.39,211.146L2370.36,211.199L2370.32,211.256L2370.29,211.312L2370.25,211.371L2370.22,211.434L2370.18,211.498L2370.15,211.564L2370.12,211.63L2370.09,211.698L2370.06,211.771L2370.03,211.845L2370,211.919L2369.97,211.995L2369.95,212.073L2369.92,212.153L2369.89,212.236L2369.87,212.317L2369.84,212.402L2369.82,212.487L2369.8,212.573L2369.78,212.664L2369.75,212.754L2369.73,212.846L2369.71,212.939L2369.7,213.034L2369.68,213.13L2369.66,213.225L2369.64,213.321L2369.63,213.422L2369.62,213.521L2369.6,213.622L2369.59,213.728L2369.58,213.828L2369.57,213.929L2369.56,214.039L2369.55,214.147L2369.55,214.249L2369.54,214.356L2369.53,214.468L2369.53,214.581L2369.53,214.692L2369.53,214.8L2369.53,214.921L2369.53,230.008L2369.53,230.129L2369.53,230.237L2369.53,230.348L2369.53,230.461L2369.54,230.573L2369.55,230.68L2369.55,230.782L2369.56,230.889L2369.57,231L2369.58,231.101L2369.59,231.201L2369.6,231.306L2369.62,231.407L2369.63,231.507L2369.64,231.608L2369.66,231.704L2369.68,231.799L2369.7,231.895L2369.71,231.99L2369.73,232.083L2369.75,232.174L2369.78,232.265L2369.8,232.356L2369.82,232.442L2369.84,232.527L2369.87,232.612L2369.89,232.694L2369.92,232.776L2369.95,232.855L2369.97,232.933L2370,233.01L2370.03,233.084L2370.06,233.158L2370.09,233.23L2370.12,233.299L2370.15,233.365L2370.19,233.431L2370.22,233.495L2370.25,233.557L2370.29,233.617L2370.32,233.673L2370.36,233.729L2370.39,233.783L2370.43,233.834L2370.47,233.882L2370.5,233.929L2370.54,233.975L2370.58,234.016L2370.62,234.056L2370.66,234.094L2370.7,234.13L2370.74,234.163L2370.78,234.192L2370.82,234.22L2370.86,234.246L2370.9,234.269L2370.94,234.289L2370.99,234.307L2371.03,234.322L2371.07,234.335L2371.12,234.345L2371.16,234.352L2371.2,234.356L2371.25,234.357L2417.75,234.357L2417.8,234.356L2417.84,234.352L2417.88,234.345L2417.93,234.335L2417.97,234.322L2418.01,234.307L2418.06,234.289L2418.1,234.269L2418.14,234.246L2418.18,234.221L2418.22,234.192L2418.26,234.163L2418.3,234.13L2418.34,234.094L2418.38,234.056L2418.42,234.016L2418.46,233.975L2418.5,233.929L2418.53,233.882L2418.57,233.834L2418.61,233.783L2418.64,233.729L2418.68,233.673L2418.71,233.617L2418.75,233.556L2418.78,233.495L2418.81,233.433L2418.85,233.365L2418.88,233.299L2418.91,233.23L2418.94,233.156L2418.97,233.084L2419,233.012L2419.03,232.933L2419.05,232.855L2419.08,232.776L2419.11,232.694L2419.13,232.612L2419.16,232.527L2419.18,232.442L2419.2,232.353L2419.23,232.265L2419.25,232.174L2419.27,232.083L2419.29,231.99L2419.3,231.895L2419.32,231.802L2419.34,231.704L2419.36,231.608L2419.37,231.507L2419.38,231.407L2419.4,231.306L2419.41,231.201L2419.42,231.101L2419.43,230.996L2419.44,230.889L2419.45,230.785L2419.45,230.68L2419.46,230.569L2419.47,230.461L2419.47,230.352L2419.47,230.237L2419.47,230.129L2419.47,230.008L2419.47,214.921L2419.47,214.8L2419.47,214.692L2419.47,214.577L2419.47,214.468L2419.46,214.359L2419.45,214.249L2419.45,214.143L2419.44,214.039L2419.43,213.933L2419.42,213.828L2419.41,213.728L2419.4,213.622L2419.38,213.521L2419.37,213.422L2419.36,213.321L2419.34,213.225L2419.32,213.127L2419.3,213.034L2419.29,212.939L2419.27,212.846L2419.25,212.754L2419.23,212.664L2419.2,212.576L2419.18,212.487L2419.16,212.402L2419.13,212.317L2419.11,212.236L2419.08,212.153L2419.05,212.073L2419.03,211.995L2419,211.917L2418.97,211.845L2418.94,211.773L2418.91,211.698L2418.88,211.63L2418.85,211.564L2418.81,211.497L2418.78,211.434L2418.75,211.372L2418.71,211.312L2418.68,211.256L2418.64,211.199L2418.61,211.146L2418.57,211.095L2418.53,211.046L2418.5,211L2418.46,210.954L2418.42,210.913L2418.38,210.873L2418.34,210.835L2418.3,210.8L2418.26,210.766L2418.22,210.736L2418.18,210.708L2418.14,210.683L2418.1,210.66L2418.06,210.64L2418.01,210.622L2417.97,210.606L2417.93,210.594L2417.88,210.584L2417.84,210.577L2417.8,210.573L2417.75,210.571L2371.25,210.571Z" style="fill:rgb(51,51,51);"/>
                        </g>
                    </g>
                </g>
                <g transform="matrix(0.666667,0,0,0.264862,241.173,827.102)">
                    <g id="B2" serif:id="B">
                        <g id="B3" serif:id="B">
                            <path d="M2420,214.913C2420,211.788 2418.99,209.25 2417.75,209.25L2371.25,209.25C2370.01,209.25 2369,211.788 2369,214.913L2369,230.016C2369,233.141 2370.01,235.679 2371.25,235.679L2417.75,235.679C2418.99,235.679 2420,233.141 2420,230.016L2420,214.913Z" style="fill:url(#_Linear3);"/>
                            <path d="M2417.81,209.252L2417.87,209.257L2417.92,209.267L2417.98,209.279L2418.04,209.296L2418.09,209.315L2418.15,209.339L2418.2,209.365L2418.26,209.395L2418.31,209.428L2418.37,209.465L2418.42,209.505L2418.47,209.548L2418.52,209.594L2418.58,209.643L2418.63,209.695L2418.68,209.751L2418.72,209.809L2418.77,209.87L2418.82,209.934L2418.87,210.001L2418.92,210.07L2418.96,210.143L2419.01,210.218L2419.05,210.295L2419.1,210.376L2419.14,210.459L2419.18,210.544L2419.22,210.632L2419.26,210.722L2419.3,210.815L2419.34,210.91L2419.38,211.007L2419.41,211.106L2419.45,211.208L2419.49,211.312L2419.52,211.418L2419.55,211.526L2419.59,211.636L2419.62,211.748L2419.64,211.862L2419.67,211.978L2419.7,212.095L2419.73,212.215L2419.75,212.336L2419.78,212.459L2419.8,212.584L2419.82,212.71L2419.84,212.838L2419.86,212.967L2419.88,213.098L2419.9,213.23L2419.91,213.364L2419.93,213.499L2419.94,213.635L2419.95,213.773L2419.97,213.911L2419.97,214.051L2419.98,214.192L2419.99,214.335L2419.99,214.478L2420,214.622L2420,214.767L2420,214.913L2420,230.016L2420,230.162L2420,230.307L2419.99,230.451L2419.99,230.594L2419.98,230.736L2419.97,230.878L2419.97,231.017L2419.95,231.156L2419.94,231.294L2419.93,231.43L2419.91,231.565L2419.9,231.699L2419.88,231.831L2419.86,231.962L2419.84,232.091L2419.82,232.219L2419.8,232.345L2419.78,232.47L2419.75,232.593L2419.73,232.714L2419.7,232.834L2419.67,232.951L2419.64,233.067L2419.62,233.181L2419.59,233.293L2419.55,233.403L2419.52,233.511L2419.49,233.617L2419.45,233.721L2419.41,233.823L2419.38,233.922L2419.34,234.019L2419.3,234.114L2419.26,234.207L2419.22,234.297L2419.18,234.385L2419.14,234.47L2419.1,234.553L2419.05,234.633L2419.01,234.711L2418.96,234.786L2418.92,234.858L2418.87,234.928L2418.82,234.995L2418.77,235.059L2418.72,235.12L2418.68,235.178L2418.63,235.234L2418.58,235.286L2418.52,235.335L2418.47,235.381L2418.42,235.424L2418.37,235.464L2418.31,235.5L2418.26,235.534L2418.2,235.564L2418.15,235.59L2418.09,235.614L2418.04,235.633L2417.98,235.65L2417.92,235.662L2417.87,235.671L2417.81,235.677L2417.75,235.679L2371.25,235.679L2371.19,235.677L2371.13,235.671L2371.08,235.662L2371.02,235.65L2370.96,235.633L2370.91,235.614L2370.85,235.59L2370.8,235.564L2370.74,235.534L2370.69,235.5L2370.63,235.464L2370.58,235.424L2370.53,235.381L2370.48,235.335L2370.43,235.286L2370.38,235.234L2370.32,235.178L2370.28,235.12L2370.23,235.059L2370.18,234.995L2370.13,234.928L2370.08,234.858L2370.04,234.786L2369.99,234.711L2369.95,234.633L2369.9,234.553L2369.86,234.47L2369.82,234.385L2369.78,234.297L2369.74,234.207L2369.7,234.114L2369.66,234.019L2369.62,233.922L2369.59,233.823L2369.55,233.721L2369.51,233.617L2369.48,233.511L2369.45,233.403L2369.41,233.293L2369.38,233.181L2369.36,233.067L2369.33,232.951L2369.3,232.834L2369.27,232.714L2369.25,232.593L2369.22,232.47L2369.2,232.345L2369.18,232.219L2369.16,232.091L2369.14,231.962L2369.12,231.831L2369.1,231.699L2369.09,231.565L2369.07,231.43L2369.06,231.294L2369.05,231.156L2369.03,231.017L2369.03,230.878L2369.02,230.736L2369.01,230.594L2369.01,230.451L2369,230.307L2369,230.162L2369,230.016L2369,214.913L2369,214.767L2369,214.622L2369.01,214.478L2369.01,214.335L2369.02,214.192L2369.03,214.051L2369.03,213.911L2369.05,213.773L2369.06,213.635L2369.07,213.499L2369.09,213.364L2369.1,213.23L2369.12,213.098L2369.14,212.967L2369.16,212.838L2369.18,212.71L2369.2,212.584L2369.22,212.459L2369.25,212.336L2369.27,212.215L2369.3,212.095L2369.33,211.978L2369.36,211.862L2369.38,211.748L2369.41,211.636L2369.45,211.526L2369.48,211.418L2369.51,211.312L2369.55,211.208L2369.59,211.106L2369.62,211.007L2369.66,210.91L2369.7,210.815L2369.74,210.722L2369.78,210.632L2369.82,210.544L2369.86,210.459L2369.9,210.376L2369.95,210.295L2369.99,210.218L2370.04,210.143L2370.08,210.07L2370.13,210.001L2370.18,209.934L2370.23,209.87L2370.28,209.809L2370.32,209.751L2370.38,209.695L2370.43,209.643L2370.48,209.594L2370.53,209.548L2370.58,209.505L2370.63,209.465L2370.69,209.428L2370.74,209.395L2370.8,209.365L2370.85,209.339L2370.91,209.315L2370.96,209.296L2371.02,209.279L2371.08,209.267L2371.13,209.257L2371.19,209.252L2371.25,209.25L2417.75,209.25L2417.81,209.252ZM2371.25,210.571L2371.2,210.573L2371.16,210.577L2371.12,210.584L2371.07,210.594L2371.03,210.606L2370.99,210.622L2370.94,210.639L2370.9,210.66L2370.86,210.683L2370.82,210.708L2370.78,210.736L2370.74,210.766L2370.7,210.8L2370.66,210.835L2370.62,210.873L2370.58,210.913L2370.54,210.954L2370.5,210.999L2370.47,211.046L2370.43,211.095L2370.39,211.145L2370.36,211.2L2370.32,211.256L2370.29,211.312L2370.25,211.371L2370.22,211.434L2370.18,211.498L2370.15,211.564L2370.12,211.63L2370.09,211.698L2370.06,211.771L2370.03,211.845L2370,211.919L2369.97,211.995L2369.95,212.073L2369.92,212.153L2369.89,212.235L2369.87,212.317L2369.84,212.402L2369.82,212.487L2369.8,212.574L2369.78,212.664L2369.75,212.754L2369.73,212.846L2369.71,212.939L2369.7,213.034L2369.68,213.13L2369.66,213.225L2369.64,213.321L2369.63,213.422L2369.62,213.522L2369.6,213.622L2369.59,213.728L2369.58,213.828L2369.57,213.929L2369.56,214.039L2369.55,214.147L2369.55,214.249L2369.54,214.356L2369.53,214.468L2369.53,214.581L2369.53,214.692L2369.53,214.8L2369.53,214.921L2369.53,230.008L2369.53,230.129L2369.53,230.237L2369.53,230.348L2369.53,230.461L2369.54,230.573L2369.55,230.68L2369.55,230.782L2369.56,230.889L2369.57,231L2369.58,231.101L2369.59,231.201L2369.6,231.307L2369.62,231.408L2369.63,231.507L2369.64,231.608L2369.66,231.704L2369.68,231.799L2369.7,231.895L2369.71,231.99L2369.73,232.083L2369.75,232.174L2369.78,232.265L2369.8,232.356L2369.82,232.442L2369.84,232.527L2369.87,232.613L2369.89,232.694L2369.92,232.775L2369.95,232.855L2369.97,232.933L2370,233.01L2370.03,233.084L2370.06,233.158L2370.09,233.23L2370.12,233.299L2370.15,233.365L2370.19,233.431L2370.22,233.495L2370.25,233.557L2370.29,233.617L2370.32,233.673L2370.36,233.729L2370.39,233.783L2370.43,233.834L2370.47,233.882L2370.5,233.929L2370.54,233.975L2370.58,234.016L2370.62,234.056L2370.66,234.095L2370.7,234.129L2370.74,234.162L2370.78,234.193L2370.82,234.221L2370.86,234.246L2370.9,234.269L2370.95,234.29L2370.99,234.307L2371.03,234.322L2371.07,234.335L2371.12,234.345L2371.16,234.352L2371.2,234.356L2371.25,234.357L2417.75,234.357L2417.8,234.356L2417.84,234.352L2417.88,234.345L2417.93,234.335L2417.97,234.322L2418.01,234.307L2418.05,234.29L2418.1,234.269L2418.14,234.246L2418.18,234.221L2418.22,234.193L2418.26,234.162L2418.3,234.129L2418.34,234.095L2418.38,234.056L2418.42,234.016L2418.46,233.975L2418.5,233.929L2418.53,233.882L2418.57,233.834L2418.61,233.783L2418.64,233.729L2418.68,233.673L2418.71,233.617L2418.75,233.556L2418.78,233.495L2418.81,233.433L2418.85,233.365L2418.88,233.299L2418.91,233.23L2418.94,233.156L2418.97,233.084L2419,233.012L2419.03,232.933L2419.05,232.855L2419.08,232.775L2419.11,232.694L2419.13,232.613L2419.16,232.527L2419.18,232.442L2419.2,232.353L2419.23,232.265L2419.25,232.174L2419.27,232.083L2419.29,231.99L2419.3,231.895L2419.32,231.802L2419.34,231.704L2419.36,231.608L2419.37,231.507L2419.38,231.408L2419.4,231.307L2419.41,231.201L2419.42,231.101L2419.43,230.996L2419.44,230.889L2419.45,230.785L2419.45,230.68L2419.46,230.569L2419.47,230.461L2419.47,230.352L2419.47,230.237L2419.47,230.129L2419.47,230.008L2419.47,214.921L2419.47,214.8L2419.47,214.692L2419.47,214.577L2419.47,214.468L2419.46,214.36L2419.45,214.249L2419.45,214.143L2419.44,214.039L2419.43,213.933L2419.42,213.828L2419.41,213.728L2419.4,213.622L2419.38,213.522L2419.37,213.422L2419.36,213.321L2419.34,213.225L2419.32,213.127L2419.3,213.034L2419.29,212.939L2419.27,212.846L2419.25,212.754L2419.23,212.664L2419.2,212.576L2419.18,212.487L2419.16,212.402L2419.13,212.317L2419.11,212.235L2419.08,212.153L2419.05,212.073L2419.03,211.995L2419,211.917L2418.97,211.845L2418.94,211.773L2418.91,211.698L2418.88,211.63L2418.85,211.564L2418.81,211.497L2418.78,211.434L2418.75,211.372L2418.71,211.312L2418.68,211.256L2418.64,211.2L2418.61,211.145L2418.57,211.095L2418.53,211.046L2418.5,210.999L2418.46,210.954L2418.42,210.913L2418.38,210.873L2418.34,210.835L2418.3,210.8L2418.26,210.766L2418.22,210.736L2418.18,210.708L2418.14,210.683L2418.1,210.66L2418.06,210.639L2418.01,210.622L2417.97,210.606L2417.93,210.594L2417.88,210.584L2417.84,210.577L2417.8,210.573L2417.75,210.571L2371.25,210.571Z" style="fill:rgb(51,51,51);"/>
                        </g>
                    </g>
                </g>
                <g transform="matrix(0.666667,0,0,0.264862,241.173,812.126)">
                    <g id="A">
                        <g id="A1" serif:id="A">
                            <path d="M2420,214.913C2420,211.788 2418.99,209.25 2417.75,209.25L2371.25,209.25C2370.01,209.25 2369,211.788 2369,214.913L2369,230.016C2369,233.141 2370.01,235.679 2371.25,235.679L2417.75,235.679C2418.99,235.679 2420,233.141 2420,230.016L2420,214.913Z" style="fill:url(#_Linear4);"/>
                            <path d="M2417.81,209.252L2417.87,209.257L2417.92,209.267L2417.98,209.279L2418.04,209.296L2418.09,209.315L2418.15,209.339L2418.2,209.365L2418.26,209.395L2418.31,209.428L2418.37,209.465L2418.42,209.505L2418.47,209.548L2418.52,209.594L2418.58,209.643L2418.63,209.695L2418.68,209.751L2418.72,209.809L2418.77,209.87L2418.82,209.934L2418.87,210.001L2418.92,210.07L2418.96,210.143L2419.01,210.218L2419.05,210.295L2419.1,210.376L2419.14,210.459L2419.18,210.544L2419.22,210.632L2419.26,210.722L2419.3,210.815L2419.34,210.91L2419.38,211.007L2419.41,211.106L2419.45,211.208L2419.49,211.312L2419.52,211.418L2419.55,211.526L2419.59,211.636L2419.62,211.748L2419.64,211.862L2419.67,211.978L2419.7,212.095L2419.73,212.215L2419.75,212.336L2419.78,212.459L2419.8,212.584L2419.82,212.71L2419.84,212.838L2419.86,212.967L2419.88,213.098L2419.9,213.23L2419.91,213.364L2419.93,213.499L2419.94,213.635L2419.95,213.773L2419.97,213.911L2419.97,214.051L2419.98,214.192L2419.99,214.335L2419.99,214.478L2420,214.622L2420,214.767L2420,214.913L2420,230.016L2420,230.162L2420,230.307L2419.99,230.451L2419.99,230.594L2419.98,230.736L2419.97,230.878L2419.97,231.017L2419.95,231.156L2419.94,231.294L2419.93,231.43L2419.91,231.565L2419.9,231.699L2419.88,231.831L2419.86,231.962L2419.84,232.091L2419.82,232.219L2419.8,232.345L2419.78,232.47L2419.75,232.593L2419.73,232.714L2419.7,232.834L2419.67,232.951L2419.64,233.067L2419.62,233.181L2419.59,233.293L2419.55,233.403L2419.52,233.511L2419.49,233.617L2419.45,233.721L2419.41,233.823L2419.38,233.922L2419.34,234.019L2419.3,234.114L2419.26,234.207L2419.22,234.297L2419.18,234.385L2419.14,234.47L2419.1,234.553L2419.05,234.633L2419.01,234.711L2418.96,234.786L2418.92,234.858L2418.87,234.928L2418.82,234.995L2418.77,235.059L2418.72,235.12L2418.68,235.178L2418.63,235.234L2418.58,235.286L2418.52,235.335L2418.47,235.381L2418.42,235.424L2418.37,235.464L2418.31,235.5L2418.26,235.534L2418.2,235.564L2418.15,235.59L2418.09,235.614L2418.04,235.633L2417.98,235.65L2417.92,235.662L2417.87,235.671L2417.81,235.677L2417.75,235.679L2371.25,235.679L2371.19,235.677L2371.13,235.671L2371.08,235.662L2371.02,235.65L2370.96,235.633L2370.91,235.614L2370.85,235.59L2370.8,235.564L2370.74,235.534L2370.69,235.5L2370.63,235.464L2370.58,235.424L2370.53,235.381L2370.48,235.335L2370.43,235.286L2370.38,235.234L2370.32,235.178L2370.28,235.12L2370.23,235.059L2370.18,234.995L2370.13,234.928L2370.08,234.858L2370.04,234.786L2369.99,234.711L2369.95,234.633L2369.9,234.553L2369.86,234.47L2369.82,234.385L2369.78,234.297L2369.74,234.207L2369.7,234.114L2369.66,234.019L2369.62,233.922L2369.59,233.823L2369.55,233.721L2369.51,233.617L2369.48,233.511L2369.45,233.403L2369.41,233.293L2369.38,233.181L2369.36,233.067L2369.33,232.951L2369.3,232.834L2369.27,232.714L2369.25,232.593L2369.22,232.47L2369.2,232.345L2369.18,232.219L2369.16,232.091L2369.14,231.962L2369.12,231.831L2369.1,231.699L2369.09,231.565L2369.07,231.43L2369.06,231.294L2369.05,231.156L2369.03,231.017L2369.03,230.878L2369.02,230.736L2369.01,230.594L2369.01,230.451L2369,230.307L2369,230.162L2369,230.016L2369,214.913L2369,214.767L2369,214.622L2369.01,214.478L2369.01,214.335L2369.02,214.192L2369.03,214.051L2369.03,213.911L2369.05,213.773L2369.06,213.635L2369.07,213.499L2369.09,213.364L2369.1,213.23L2369.12,213.098L2369.14,212.967L2369.16,212.838L2369.18,212.71L2369.2,212.584L2369.22,212.459L2369.25,212.336L2369.27,212.215L2369.3,212.095L2369.33,211.978L2369.36,211.862L2369.38,211.748L2369.41,211.636L2369.45,211.526L2369.48,211.418L2369.51,211.312L2369.55,211.208L2369.59,211.106L2369.62,211.007L2369.66,210.91L2369.7,210.815L2369.74,210.722L2369.78,210.632L2369.82,210.544L2369.86,210.459L2369.9,210.376L2369.95,210.295L2369.99,210.218L2370.04,210.143L2370.08,210.07L2370.13,210.001L2370.18,209.934L2370.23,209.87L2370.28,209.809L2370.32,209.751L2370.38,209.695L2370.43,209.643L2370.48,209.594L2370.53,209.548L2370.58,209.505L2370.63,209.465L2370.69,209.428L2370.74,209.395L2370.8,209.365L2370.85,209.339L2370.91,209.315L2370.96,209.296L2371.02,209.279L2371.08,209.267L2371.13,209.257L2371.19,209.252L2371.25,209.25L2417.75,209.25L2417.81,209.252ZM2371.25,210.571L2371.2,210.573L2371.16,210.577L2371.12,210.584L2371.07,210.594L2371.03,210.606L2370.99,210.622L2370.94,210.64L2370.9,210.66L2370.86,210.683L2370.82,210.709L2370.78,210.736L2370.74,210.766L2370.7,210.8L2370.66,210.835L2370.62,210.873L2370.58,210.913L2370.54,210.954L2370.5,211L2370.47,211.046L2370.43,211.095L2370.39,211.146L2370.36,211.199L2370.32,211.256L2370.29,211.312L2370.25,211.371L2370.22,211.434L2370.18,211.498L2370.15,211.564L2370.12,211.63L2370.09,211.698L2370.06,211.771L2370.03,211.845L2370,211.919L2369.97,211.995L2369.95,212.073L2369.92,212.153L2369.89,212.236L2369.87,212.317L2369.84,212.402L2369.82,212.487L2369.8,212.574L2369.78,212.664L2369.75,212.754L2369.73,212.846L2369.71,212.939L2369.7,213.034L2369.68,213.13L2369.66,213.225L2369.64,213.322L2369.63,213.422L2369.62,213.521L2369.6,213.622L2369.59,213.728L2369.58,213.828L2369.57,213.929L2369.56,214.039L2369.55,214.147L2369.55,214.249L2369.54,214.356L2369.53,214.468L2369.53,214.581L2369.53,214.692L2369.53,214.8L2369.53,214.921L2369.53,230.008L2369.53,230.129L2369.53,230.237L2369.53,230.348L2369.53,230.461L2369.54,230.573L2369.55,230.68L2369.55,230.782L2369.56,230.889L2369.57,231L2369.58,231.101L2369.59,231.201L2369.6,231.307L2369.62,231.408L2369.63,231.507L2369.64,231.608L2369.66,231.704L2369.68,231.799L2369.7,231.895L2369.71,231.99L2369.73,232.083L2369.75,232.174L2369.78,232.265L2369.8,232.356L2369.82,232.442L2369.84,232.527L2369.87,232.612L2369.89,232.694L2369.92,232.776L2369.95,232.855L2369.97,232.933L2370,233.01L2370.03,233.084L2370.06,233.158L2370.09,233.23L2370.12,233.299L2370.15,233.365L2370.19,233.431L2370.22,233.495L2370.25,233.557L2370.29,233.617L2370.32,233.673L2370.36,233.729L2370.39,233.783L2370.43,233.834L2370.47,233.882L2370.5,233.929L2370.54,233.975L2370.58,234.016L2370.62,234.056L2370.66,234.094L2370.7,234.13L2370.74,234.163L2370.78,234.192L2370.82,234.22L2370.86,234.246L2370.9,234.269L2370.94,234.289L2370.99,234.307L2371.03,234.322L2371.07,234.335L2371.12,234.345L2371.16,234.352L2371.2,234.356L2371.25,234.357L2417.75,234.357L2417.8,234.356L2417.84,234.352L2417.88,234.345L2417.93,234.335L2417.97,234.322L2418.01,234.307L2418.06,234.289L2418.1,234.269L2418.14,234.246L2418.18,234.221L2418.22,234.192L2418.26,234.163L2418.3,234.13L2418.34,234.094L2418.38,234.056L2418.42,234.016L2418.46,233.975L2418.5,233.929L2418.53,233.882L2418.57,233.834L2418.61,233.783L2418.64,233.729L2418.68,233.673L2418.71,233.617L2418.75,233.556L2418.78,233.495L2418.81,233.433L2418.85,233.365L2418.88,233.299L2418.91,233.23L2418.94,233.156L2418.97,233.084L2419,233.012L2419.03,232.933L2419.05,232.855L2419.08,232.776L2419.11,232.694L2419.13,232.612L2419.16,232.527L2419.18,232.442L2419.2,232.353L2419.23,232.265L2419.25,232.174L2419.27,232.083L2419.29,231.99L2419.3,231.895L2419.32,231.802L2419.34,231.704L2419.36,231.608L2419.37,231.507L2419.38,231.408L2419.4,231.307L2419.41,231.201L2419.42,231.101L2419.43,230.996L2419.44,230.889L2419.45,230.785L2419.45,230.68L2419.46,230.569L2419.47,230.461L2419.47,230.352L2419.47,230.237L2419.47,230.129L2419.47,230.008L2419.47,214.921L2419.47,214.8L2419.47,214.692L2419.47,214.577L2419.47,214.468L2419.46,214.359L2419.45,214.249L2419.45,214.143L2419.44,214.039L2419.43,213.933L2419.42,213.828L2419.41,213.728L2419.4,213.622L2419.38,213.521L2419.37,213.422L2419.36,213.322L2419.34,213.225L2419.32,213.127L2419.3,213.034L2419.29,212.939L2419.27,212.846L2419.25,212.754L2419.23,212.664L2419.2,212.576L2419.18,212.487L2419.16,212.402L2419.13,212.317L2419.11,212.236L2419.08,212.153L2419.05,212.073L2419.03,211.995L2419,211.917L2418.97,211.845L2418.94,211.773L2418.91,211.698L2418.88,211.63L2418.85,211.564L2418.81,211.497L2418.78,211.434L2418.75,211.372L2418.71,211.312L2418.68,211.256L2418.64,211.199L2418.61,211.146L2418.57,211.095L2418.53,211.046L2418.5,211L2418.46,210.954L2418.42,210.913L2418.38,210.873L2418.34,210.835L2418.3,210.8L2418.26,210.766L2418.22,210.736L2418.18,210.708L2418.14,210.683L2418.1,210.66L2418.06,210.64L2418.01,210.622L2417.97,210.606L2417.93,210.594L2417.88,210.584L2417.84,210.577L2417.8,210.573L2417.75,210.571L2371.25,210.571Z" style="fill:rgb(51,51,51);"/>
                        </g>
                    </g>
                </g>
                <g transform="matrix(0.666667,0,0,0.264862,241.173,819.078)">
                    <g id="A2" serif:id="A">
                        <g id="A3" serif:id="A">
                            <path d="M2420,214.913C2420,211.788 2418.99,209.25 2417.75,209.25L2371.25,209.25C2370.01,209.25 2369,211.788 2369,214.913L2369,230.016C2369,233.141 2370.01,235.679 2371.25,235.679L2417.75,235.679C2418.99,235.679 2420,233.141 2420,230.016L2420,214.913Z" style="fill:url(#_Linear5);"/>
                            <path d="M2417.81,209.252L2417.87,209.257L2417.92,209.267L2417.98,209.279L2418.04,209.296L2418.09,209.315L2418.15,209.339L2418.2,209.365L2418.26,209.395L2418.31,209.428L2418.37,209.465L2418.42,209.505L2418.47,209.548L2418.52,209.594L2418.58,209.643L2418.63,209.695L2418.68,209.751L2418.72,209.809L2418.77,209.87L2418.82,209.934L2418.87,210.001L2418.92,210.07L2418.96,210.143L2419.01,210.218L2419.05,210.295L2419.1,210.376L2419.14,210.459L2419.18,210.544L2419.22,210.632L2419.26,210.722L2419.3,210.815L2419.34,210.91L2419.38,211.007L2419.41,211.106L2419.45,211.208L2419.49,211.312L2419.52,211.418L2419.55,211.526L2419.59,211.636L2419.62,211.748L2419.64,211.862L2419.67,211.978L2419.7,212.095L2419.73,212.215L2419.75,212.336L2419.78,212.459L2419.8,212.584L2419.82,212.71L2419.84,212.838L2419.86,212.967L2419.88,213.098L2419.9,213.23L2419.91,213.364L2419.93,213.499L2419.94,213.635L2419.95,213.773L2419.97,213.911L2419.97,214.051L2419.98,214.192L2419.99,214.335L2419.99,214.478L2420,214.622L2420,214.767L2420,214.913L2420,230.016L2420,230.162L2420,230.307L2419.99,230.451L2419.99,230.594L2419.98,230.736L2419.97,230.878L2419.97,231.017L2419.95,231.156L2419.94,231.294L2419.93,231.43L2419.91,231.565L2419.9,231.699L2419.88,231.831L2419.86,231.962L2419.84,232.091L2419.82,232.219L2419.8,232.345L2419.78,232.47L2419.75,232.593L2419.73,232.714L2419.7,232.834L2419.67,232.951L2419.64,233.067L2419.62,233.181L2419.59,233.293L2419.55,233.403L2419.52,233.511L2419.49,233.617L2419.45,233.721L2419.41,233.823L2419.38,233.922L2419.34,234.019L2419.3,234.114L2419.26,234.207L2419.22,234.297L2419.18,234.385L2419.14,234.47L2419.1,234.553L2419.05,234.633L2419.01,234.711L2418.96,234.786L2418.92,234.858L2418.87,234.928L2418.82,234.995L2418.77,235.059L2418.72,235.12L2418.68,235.178L2418.63,235.234L2418.58,235.286L2418.52,235.335L2418.47,235.381L2418.42,235.424L2418.37,235.464L2418.31,235.5L2418.26,235.534L2418.2,235.564L2418.15,235.59L2418.09,235.614L2418.04,235.633L2417.98,235.65L2417.92,235.662L2417.87,235.671L2417.81,235.677L2417.75,235.679L2371.25,235.679L2371.19,235.677L2371.13,235.671L2371.08,235.662L2371.02,235.65L2370.96,235.633L2370.91,235.614L2370.85,235.59L2370.8,235.564L2370.74,235.534L2370.69,235.5L2370.63,235.464L2370.58,235.424L2370.53,235.381L2370.48,235.335L2370.43,235.286L2370.38,235.234L2370.32,235.178L2370.28,235.12L2370.23,235.059L2370.18,234.995L2370.13,234.928L2370.08,234.858L2370.04,234.786L2369.99,234.711L2369.95,234.633L2369.9,234.553L2369.86,234.47L2369.82,234.385L2369.78,234.297L2369.74,234.207L2369.7,234.114L2369.66,234.019L2369.62,233.922L2369.59,233.823L2369.55,233.721L2369.51,233.617L2369.48,233.511L2369.45,233.403L2369.41,233.293L2369.38,233.181L2369.36,233.067L2369.33,232.951L2369.3,232.834L2369.27,232.714L2369.25,232.593L2369.22,232.47L2369.2,232.345L2369.18,232.219L2369.16,232.091L2369.14,231.962L2369.12,231.831L2369.1,231.699L2369.09,231.565L2369.07,231.43L2369.06,231.294L2369.05,231.156L2369.03,231.017L2369.03,230.878L2369.02,230.736L2369.01,230.594L2369.01,230.451L2369,230.307L2369,230.162L2369,230.016L2369,214.913L2369,214.767L2369,214.622L2369.01,214.478L2369.01,214.335L2369.02,214.192L2369.03,214.051L2369.03,213.911L2369.05,213.773L2369.06,213.635L2369.07,213.499L2369.09,213.364L2369.1,213.23L2369.12,213.098L2369.14,212.967L2369.16,212.838L2369.18,212.71L2369.2,212.584L2369.22,212.459L2369.25,212.336L2369.27,212.215L2369.3,212.095L2369.33,211.978L2369.36,211.862L2369.38,211.748L2369.41,211.636L2369.45,211.526L2369.48,211.418L2369.51,211.312L2369.55,211.208L2369.59,211.106L2369.62,211.007L2369.66,210.91L2369.7,210.815L2369.74,210.722L2369.78,210.632L2369.82,210.544L2369.86,210.459L2369.9,210.376L2369.95,210.295L2369.99,210.218L2370.04,210.143L2370.08,210.07L2370.13,210.001L2370.18,209.934L2370.23,209.87L2370.28,209.809L2370.32,209.751L2370.38,209.695L2370.43,209.643L2370.48,209.594L2370.53,209.548L2370.58,209.505L2370.63,209.465L2370.69,209.428L2370.74,209.395L2370.8,209.365L2370.85,209.339L2370.91,209.315L2370.96,209.296L2371.02,209.279L2371.08,209.267L2371.13,209.257L2371.19,209.252L2371.25,209.25L2417.75,209.25L2417.81,209.252ZM2371.25,210.571L2371.2,210.573L2371.16,210.577L2371.12,210.584L2371.07,210.594L2371.03,210.606L2370.99,210.622L2370.94,210.64L2370.9,210.66L2370.86,210.683L2370.82,210.708L2370.78,210.736L2370.74,210.766L2370.7,210.8L2370.66,210.835L2370.62,210.873L2370.58,210.913L2370.54,210.954L2370.5,210.999L2370.47,211.046L2370.43,211.095L2370.39,211.145L2370.36,211.2L2370.32,211.256L2370.29,211.312L2370.25,211.371L2370.22,211.434L2370.18,211.498L2370.15,211.564L2370.12,211.63L2370.09,211.698L2370.06,211.771L2370.03,211.845L2370,211.919L2369.97,211.995L2369.95,212.073L2369.92,212.153L2369.89,212.235L2369.87,212.317L2369.84,212.402L2369.82,212.487L2369.8,212.574L2369.78,212.664L2369.75,212.754L2369.73,212.846L2369.71,212.939L2369.7,213.034L2369.68,213.13L2369.66,213.225L2369.64,213.321L2369.63,213.422L2369.62,213.522L2369.6,213.622L2369.59,213.728L2369.58,213.828L2369.57,213.929L2369.56,214.039L2369.55,214.147L2369.55,214.249L2369.54,214.356L2369.53,214.468L2369.53,214.581L2369.53,214.692L2369.53,214.8L2369.53,214.921L2369.53,230.008L2369.53,230.129L2369.53,230.237L2369.53,230.348L2369.53,230.461L2369.54,230.573L2369.55,230.68L2369.55,230.782L2369.56,230.889L2369.57,231L2369.58,231.101L2369.59,231.201L2369.6,231.307L2369.62,231.408L2369.63,231.507L2369.64,231.608L2369.66,231.704L2369.68,231.799L2369.7,231.895L2369.71,231.99L2369.73,232.083L2369.75,232.174L2369.78,232.265L2369.8,232.356L2369.82,232.442L2369.84,232.527L2369.87,232.612L2369.89,232.694L2369.92,232.775L2369.95,232.855L2369.97,232.933L2370,233.01L2370.03,233.084L2370.06,233.158L2370.09,233.23L2370.12,233.299L2370.15,233.365L2370.19,233.431L2370.22,233.495L2370.25,233.557L2370.29,233.617L2370.32,233.673L2370.36,233.729L2370.39,233.783L2370.43,233.834L2370.47,233.882L2370.5,233.929L2370.54,233.975L2370.58,234.016L2370.62,234.056L2370.66,234.095L2370.7,234.129L2370.74,234.162L2370.78,234.193L2370.82,234.221L2370.86,234.246L2370.9,234.269L2370.95,234.29L2370.99,234.307L2371.03,234.322L2371.07,234.335L2371.12,234.345L2371.16,234.352L2371.2,234.356L2371.25,234.357L2417.75,234.357L2417.8,234.356L2417.84,234.352L2417.88,234.345L2417.93,234.335L2417.97,234.322L2418.01,234.307L2418.05,234.29L2418.1,234.269L2418.14,234.246L2418.18,234.221L2418.22,234.193L2418.26,234.162L2418.3,234.129L2418.34,234.095L2418.38,234.056L2418.42,234.016L2418.46,233.975L2418.5,233.929L2418.53,233.882L2418.57,233.834L2418.61,233.783L2418.64,233.729L2418.68,233.673L2418.71,233.617L2418.75,233.556L2418.78,233.495L2418.81,233.433L2418.85,233.365L2418.88,233.299L2418.91,233.23L2418.94,233.156L2418.97,233.084L2419,233.012L2419.03,232.933L2419.05,232.855L2419.08,232.775L2419.11,232.694L2419.13,232.612L2419.16,232.527L2419.18,232.442L2419.2,232.353L2419.23,232.265L2419.25,232.174L2419.27,232.083L2419.29,231.99L2419.3,231.895L2419.32,231.802L2419.34,231.704L2419.36,231.608L2419.37,231.507L2419.38,231.408L2419.4,231.307L2419.41,231.201L2419.42,231.101L2419.43,230.996L2419.44,230.889L2419.45,230.785L2419.45,230.68L2419.46,230.569L2419.47,230.461L2419.47,230.352L2419.47,230.237L2419.47,230.129L2419.47,230.008L2419.47,214.921L2419.47,214.8L2419.47,214.692L2419.47,214.577L2419.47,214.468L2419.46,214.36L2419.45,214.249L2419.45,214.143L2419.44,214.039L2419.43,213.933L2419.42,213.828L2419.41,213.728L2419.4,213.622L2419.38,213.522L2419.37,213.422L2419.36,213.321L2419.34,213.225L2419.32,213.127L2419.3,213.034L2419.29,212.939L2419.27,212.846L2419.25,212.754L2419.23,212.664L2419.2,212.576L2419.18,212.487L2419.16,212.402L2419.13,212.317L2419.11,212.235L2419.08,212.153L2419.05,212.073L2419.03,211.995L2419,211.917L2418.97,211.845L2418.94,211.773L2418.91,211.698L2418.88,211.63L2418.85,211.564L2418.81,211.497L2418.78,211.434L2418.75,211.372L2418.71,211.312L2418.68,211.256L2418.64,211.2L2418.61,211.145L2418.57,211.095L2418.53,211.046L2418.5,210.999L2418.46,210.954L2418.42,210.913L2418.38,210.873L2418.34,210.835L2418.3,210.8L2418.26,210.766L2418.22,210.736L2418.18,210.708L2418.14,210.683L2418.1,210.66L2418.06,210.64L2418.01,210.622L2417.97,210.606L2417.93,210.594L2417.88,210.584L2417.84,210.577L2417.8,210.573L2417.75,210.571L2371.25,210.571Z" style="fill:rgb(51,51,51);"/>
                        </g>
                    </g>
                </g>
                <g transform="matrix(0.628029,0,0,0.628029,344.959,725.798)">
                    <text x="2354.91px" y="222.464px" style="font-family:'Roboto-Regular', 'Roboto';font-size:11.146px;">D<tspan x="2362.61px 2366.04px 2374.02px 2377.29px 2383.9px 2391.56px " y="222.464px 222.464px 222.464px 222.464px 222.464px 222.464px ">IGITAL</tspan></text>
                </g>
                <g transform="matrix(0.628029,0,0,0.628029,344.959,740.774)">
                    <text x="2354.91px" y="222.464px" style="font-family:'Roboto-Regular', 'Roboto';font-size:11.146px;">D<tspan x="2362.61px 2366.04px 2374.02px 2377.29px 2383.9px 2391.56px " y="222.464px 222.464px 222.464px 222.464px 222.464px 222.464px ">IGITAL</tspan></text>
                </g>
                <g transform="matrix(0.628029,0,0,0.628029,345.372,733.823)">
                    <text x="2353.51px" y="222.464px" style="font-family:'Roboto-Regular', 'Roboto';font-size:11.146px;">A<tspan x="2361.18px 2369.61px 2377.28px 2383.31px 2391.37px " y="222.464px 222.464px 222.464px 222.464px 222.464px ">NALOG</tspan></text>
                </g>
                <g transform="matrix(0.628029,0,0,0.628029,345.372,748.798)">
                    <text x="2353.51px" y="222.464px" style="font-family:'Roboto-Regular', 'Roboto';font-size:11.146px;">A<tspan x="2361.18px 2369.61px 2377.28px 2383.31px 2391.37px " y="222.464px 222.464px 222.464px 222.464px 222.464px ">NALOG</tspan></text>
                </g>
            </g>
        </g>
    </g>
    <defs>
        <linearGradient id="_Linear2" x1="0" y1="0" x2="1" y2="0" gradientUnits="userSpaceOnUse" gradientTransform="matrix(3.2366e-15,26.4289,-52.8577,1.6183e-15,2395.03,209.25)"><stop offset="0" style="stop-color:rgb(240,158,50);stop-opacity:1"/><stop offset="1" style="stop-color:rgb(242,142,13);stop-opacity:1"/></linearGradient>
        <linearGradient id="_Linear3" x1="0" y1="0" x2="1" y2="0" gradientUnits="userSpaceOnUse" gradientTransform="matrix(3.2366e-15,26.4289,-52.8577,1.6183e-15,2395.03,209.25)"><stop offset="0" style="stop-color:rgb(240,158,50);stop-opacity:1"/><stop offset="1" style="stop-color:rgb(242,142,13);stop-opacity:1"/></linearGradient>
        <linearGradient id="_Linear4" x1="0" y1="0" x2="1" y2="0" gradientUnits="userSpaceOnUse" gradientTransform="matrix(1.6183e-15,26.4289,-26.4289,1.6183e-15,2394.5,209.25)"><stop offset="0" style="stop-color:rgb(204,204,204);stop-opacity:1"/><stop offset="1" style="stop-color:rgb(173,173,173);stop-opacity:1"/></linearGradient>
        <linearGradient id="_Linear5" x1="0" y1="0" x2="1" y2="0" gradientUnits="userSpaceOnUse" gradientTransform="matrix(1.6183e-15,26.4289,-26.4289,1.6183e-15,2394.5,209.25)"><stop offset="0" style="stop-color:rgb(204,204,204);stop-opacity:1"/><stop offset="1" style="stop-color:rgb(173,173,173);stop-opacity:1"/></linearGradient>
    </defs>
</svg>
