<?xml version="1.0" encoding="UTF-8" standalone="no"?>
<!DOCTYPE svg PUBLIC "-//W3C//DTD SVG 1.1//EN" "http://www.w3.org/Graphics/SVG/1.1/DTD/svg11.dtd">
<svg width="100%" height="100%" viewBox="0 0 96 126" version="1.1" xmlns="http://www.w3.org/2000/svg" xmlns:xlink="http://www.w3.org/1999/xlink" xml:space="preserve" xmlns:serif="http://www.serif.com/" style="fill-rule:evenodd;clip-rule:evenodd;stroke-linejoin:round;stroke-miterlimit:1.41421;">
    <g transform="matrix(1,0,0,1,-2451,-354)">
        <g id="bmp00118" transform="matrix(1,0,0,1,1009.73,100.221)">
            <rect x="1441.27" y="253.779" width="96" height="126" style="fill:none;"/>
            <g>
                <g id="B" transform="matrix(0.252137,0,0,0.434764,846.462,164.565)">
                    <path d="M2420,213.654C2420,211.223 2416.6,209.25 2412.41,209.25L2376.59,209.25C2372.4,209.25 2369,211.223 2369,213.654L2369,231.275C2369,233.706 2372.4,235.679 2376.59,235.679L2412.41,235.679C2416.6,235.679 2420,233.706 2420,231.275L2420,213.654Z" style="fill:url(#_Linear1);"/>
                </g>
                <g id="B1" serif:id="B" transform="matrix(0.252137,0,0,0.434764,859.321,182.554)">
                    <path d="M2420,213.654C2420,211.223 2416.6,209.25 2412.41,209.25L2376.59,209.25C2372.4,209.25 2369,211.223 2369,213.654L2369,231.275C2369,233.706 2372.4,235.679 2376.59,235.679L2412.41,235.679C2416.6,235.679 2420,233.706 2420,231.275L2420,213.654Z" style="fill:url(#_Linear2);"/>
                </g>
                <g id="B2" serif:id="B" transform="matrix(0.252137,0,0,0.434764,872.18,200.545)">
                    <path d="M2420,213.654C2420,211.223 2416.6,209.25 2412.41,209.25L2376.59,209.25C2372.4,209.25 2369,211.223 2369,213.654L2369,231.275C2369,233.706 2372.4,235.679 2376.59,235.679L2412.41,235.679C2416.6,235.679 2420,233.706 2420,231.275L2420,213.654Z" style="fill:url(#_Linear3);"/>
                </g>
                <g id="B3" serif:id="B" transform="matrix(0.252137,0,0,0.434764,885.039,218.553)">
                    <path d="M2420,213.654C2420,211.223 2416.6,209.25 2412.41,209.25L2376.59,209.25C2372.4,209.25 2369,211.223 2369,213.654L2369,231.275C2369,233.706 2372.4,235.679 2376.59,235.679L2412.41,235.679C2416.6,235.679 2420,233.706 2420,231.275L2420,213.654Z" style="fill:url(#_Linear4);"/>
                </g>
                <g id="B4" serif:id="B" transform="matrix(0.252137,0,0,0.434764,897.898,236.55)">
                    <path d="M2420,213.654C2420,211.223 2416.6,209.25 2412.41,209.25L2376.59,209.25C2372.4,209.25 2369,211.223 2369,213.654L2369,231.275C2369,233.706 2372.4,235.679 2376.59,235.679L2412.41,235.679C2416.6,235.679 2420,233.706 2420,231.275L2420,213.654Z" style="fill:url(#_Linear5);"/>
                </g>
                <g id="B5" serif:id="B" transform="matrix(0.252137,0,0,0.434764,910.757,254.591)">
                    <path d="M2420,213.654C2420,211.223 2416.6,209.25 2412.41,209.25L2376.59,209.25C2372.4,209.25 2369,211.223 2369,213.654L2369,231.275C2369,233.706 2372.4,235.679 2376.59,235.679L2412.41,235.679C2416.6,235.679 2420,233.706 2420,231.275L2420,213.654Z" style="fill:url(#_Linear6);"/>
                </g>
                <g id="B6" serif:id="B" transform="matrix(0.252137,0,0,0.434764,923.616,272.567)">
                    <path d="M2420,213.654C2420,211.223 2416.6,209.25 2412.41,209.25L2376.59,209.25C2372.4,209.25 2369,211.223 2369,213.654L2369,231.275C2369,233.706 2372.4,235.679 2376.59,235.679L2412.41,235.679C2416.6,235.679 2420,233.706 2420,231.275L2420,213.654Z" style="fill:url(#_Linear7);"/>
                </g>
                <g transform="matrix(1,0,0,1,-561.661,-166.845)">
                    <text x="2008.31px" y="431.328px" style="font-family:'Roboto-Regular', 'Roboto';font-size:9px;">-3</text>
                </g>
                <g transform="matrix(1,0,0,1,-561.661,-148.854)">
                    <text x="2008.31px" y="431.328px" style="font-family:'Roboto-Regular', 'Roboto';font-size:9px;fill:white;">-3</text>
                </g>
                <g transform="matrix(1,0,0,1,-561.661,-130.792)">
                    <text x="2008.31px" y="431.328px" style="font-family:'Roboto-Regular', 'Roboto';font-size:9px;fill:white;">-3</text>
                </g>
                <g transform="matrix(1,0,0,1,-561.661,-112.856)">
                    <text x="2008.31px" y="431.328px" style="font-family:'Roboto-Regular', 'Roboto';font-size:9px;fill:white;">-3</text>
                </g>
                <g transform="matrix(1,0,0,1,-561.661,-94.7205)">
                    <text x="2008.31px" y="431.328px" style="font-family:'Roboto-Regular', 'Roboto';font-size:9px;fill:white;">-3</text>
                </g>
                <g transform="matrix(1,0,0,1,-561.661,-76.8177)">
                    <text x="2008.31px" y="431.328px" style="font-family:'Roboto-Regular', 'Roboto';font-size:9px;fill:white;">-3</text>
                </g>
                <g transform="matrix(1,0,0,1,-561.661,-58.61)">
                    <text x="2008.31px" y="431.328px" style="font-family:'Roboto-Regular', 'Roboto';font-size:9px;fill:white;">-3</text>
                </g>
                <g transform="matrix(1,0,0,1,-548.929,-166.801)">
                    <text x="2008.31px" y="431.328px" style="font-family:'Roboto-Regular', 'Roboto';font-size:9px;fill:white;">-2</text>
                </g>
                <g transform="matrix(1,0,0,1,-548.929,-148.81)">
                    <text x="2008.31px" y="431.328px" style="font-family:'Roboto-Regular', 'Roboto';font-size:9px;">-2</text>
                </g>
                <g transform="matrix(1,0,0,1,-548.929,-130.748)">
                    <text x="2008.31px" y="431.328px" style="font-family:'Roboto-Regular', 'Roboto';font-size:9px;fill:white;">-2</text>
                </g>
                <g transform="matrix(1,0,0,1,-548.929,-112.812)">
                    <text x="2008.31px" y="431.328px" style="font-family:'Roboto-Regular', 'Roboto';font-size:9px;fill:white;">-2</text>
                </g>
                <g transform="matrix(1,0,0,1,-548.929,-94.6765)">
                    <text x="2008.31px" y="431.328px" style="font-family:'Roboto-Regular', 'Roboto';font-size:9px;fill:white;">-2</text>
                </g>
                <g transform="matrix(1,0,0,1,-548.929,-76.7737)">
                    <text x="2008.31px" y="431.328px" style="font-family:'Roboto-Regular', 'Roboto';font-size:9px;fill:white;">-2</text>
                </g>
                <g transform="matrix(1,0,0,1,-548.929,-58.566)">
                    <text x="2008.31px" y="431.328px" style="font-family:'Roboto-Regular', 'Roboto';font-size:9px;fill:white;">-2</text>
                </g>
                <g transform="matrix(1,0,0,1,-535.31,-166.832)">
                    <text x="2008.31px" y="431.328px" style="font-family:'Roboto-Regular', 'Roboto';font-size:9px;fill:white;">-1</text>
                </g>
                <g transform="matrix(1,0,0,1,-535.31,-148.841)">
                    <text x="2008.31px" y="431.328px" style="font-family:'Roboto-Regular', 'Roboto';font-size:9px;fill:white;">-1</text>
                </g>
                <g transform="matrix(1,0,0,1,-535.31,-130.779)">
                    <text x="2008.31px" y="431.328px" style="font-family:'Roboto-Regular', 'Roboto';font-size:9px;">-1</text>
                </g>
                <g transform="matrix(1,0,0,1,-535.31,-112.843)">
                    <text x="2008.31px" y="431.328px" style="font-family:'Roboto-Regular', 'Roboto';font-size:9px;fill:white;">-1</text>
                </g>
                <g transform="matrix(1,0,0,1,-535.31,-94.7075)">
                    <text x="2008.31px" y="431.328px" style="font-family:'Roboto-Regular', 'Roboto';font-size:9px;fill:white;">-1</text>
                </g>
                <g transform="matrix(1,0,0,1,-535.31,-76.8047)">
                    <text x="2008.31px" y="431.328px" style="font-family:'Roboto-Regular', 'Roboto';font-size:9px;fill:white;">-1</text>
                </g>
                <g transform="matrix(1,0,0,1,-535.31,-58.597)">
                    <text x="2008.31px" y="431.328px" style="font-family:'Roboto-Regular', 'Roboto';font-size:9px;fill:white;">-1</text>
                </g>
                <g transform="matrix(1,0,0,1,-523.292,-166.845)">
                    <text x="2009.55px" y="431.328px" style="font-family:'Roboto-Regular', 'Roboto';font-size:9px;fill:white;">0</text>
                </g>
                <g transform="matrix(1,0,0,1,-523.292,-148.854)">
                    <text x="2009.55px" y="431.328px" style="font-family:'Roboto-Regular', 'Roboto';font-size:9px;fill:white;">0</text>
                </g>
                <g transform="matrix(1,0,0,1,-523.292,-130.792)">
                    <text x="2009.55px" y="431.328px" style="font-family:'Roboto-Regular', 'Roboto';font-size:9px;fill:white;">0</text>
                </g>
                <g transform="matrix(1,0,0,1,-523.292,-112.856)">
                    <text x="2009.55px" y="431.328px" style="font-family:'Roboto-Regular', 'Roboto';font-size:9px;">0</text>
                </g>
                <g transform="matrix(1,0,0,1,-523.292,-94.7205)">
                    <text x="2009.55px" y="431.328px" style="font-family:'Roboto-Regular', 'Roboto';font-size:9px;fill:white;">0</text>
                </g>
                <g transform="matrix(1,0,0,1,-523.292,-76.8177)">
                    <text x="2009.55px" y="431.328px" style="font-family:'Roboto-Regular', 'Roboto';font-size:9px;fill:white;">0</text>
                </g>
                <g transform="matrix(1,0,0,1,-523.292,-58.61)">
                    <text x="2009.55px" y="431.328px" style="font-family:'Roboto-Regular', 'Roboto';font-size:9px;fill:white;">0</text>
                </g>
                <g transform="matrix(1,0,0,1,-509.682,-166.832)">
                    <text x="2007px" y="431.328px" style="font-family:'Roboto-Regular', 'Roboto';font-size:9px;fill:white;">+1</text>
                </g>
                <g transform="matrix(1,0,0,1,-509.682,-148.841)">
                    <text x="2007px" y="431.328px" style="font-family:'Roboto-Regular', 'Roboto';font-size:9px;fill:white;">+1</text>
                </g>
                <g transform="matrix(1,0,0,1,-509.682,-130.779)">
                    <text x="2007px" y="431.328px" style="font-family:'Roboto-Regular', 'Roboto';font-size:9px;fill:white;">+1</text>
                </g>
                <g transform="matrix(1,0,0,1,-509.682,-112.843)">
                    <text x="2007px" y="431.328px" style="font-family:'Roboto-Regular', 'Roboto';font-size:9px;fill:white;">+1</text>
                </g>
                <g transform="matrix(1,0,0,1,-509.682,-94.7075)">
                    <text x="2007px" y="431.328px" style="font-family:'Roboto-Regular', 'Roboto';font-size:9px;">+1</text>
                </g>
                <g transform="matrix(1,0,0,1,-509.682,-76.8047)">
                    <text x="2007px" y="431.328px" style="font-family:'Roboto-Regular', 'Roboto';font-size:9px;fill:white;">+1</text>
                </g>
                <g transform="matrix(1,0,0,1,-509.682,-58.597)">
                    <text x="2007px" y="431.328px" style="font-family:'Roboto-Regular', 'Roboto';font-size:9px;fill:white;">+1</text>
                </g>
                <g transform="matrix(1,0,0,1,-497.583,-166.803)">
                    <text x="2007px" y="431.328px" style="font-family:'Roboto-Regular', 'Roboto';font-size:9px;fill:white;">+2</text>
                </g>
                <g transform="matrix(1,0,0,1,-497.583,-148.813)">
                    <text x="2007px" y="431.328px" style="font-family:'Roboto-Regular', 'Roboto';font-size:9px;fill:white;">+2</text>
                </g>
                <g transform="matrix(1,0,0,1,-497.583,-130.75)">
                    <text x="2007px" y="431.328px" style="font-family:'Roboto-Regular', 'Roboto';font-size:9px;fill:white;">+2</text>
                </g>
                <g transform="matrix(1,0,0,1,-497.583,-112.814)">
                    <text x="2007px" y="431.328px" style="font-family:'Roboto-Regular', 'Roboto';font-size:9px;fill:white;">+2</text>
                </g>
                <g transform="matrix(1,0,0,1,-497.583,-94.6789)">
                    <text x="2007px" y="431.328px" style="font-family:'Roboto-Regular', 'Roboto';font-size:9px;fill:white;">+2</text>
                </g>
                <g transform="matrix(1,0,0,1,-497.583,-76.7761)">
                    <text x="2007px" y="431.328px" style="font-family:'Roboto-Regular', 'Roboto';font-size:9px;">+2</text>
                </g>
                <g transform="matrix(1,0,0,1,-497.583,-58.5684)">
                    <text x="2007px" y="431.328px" style="font-family:'Roboto-Regular', 'Roboto';font-size:9px;fill:white;">+2</text>
                </g>
                <g transform="matrix(1,0,0,1,-484.597,-166.847)">
                    <text x="2007px" y="431.328px" style="font-family:'Roboto-Regular', 'Roboto';font-size:9px;fill:white;">+3</text>
                </g>
                <g transform="matrix(1,0,0,1,-484.597,-148.857)">
                    <text x="2007px" y="431.328px" style="font-family:'Roboto-Regular', 'Roboto';font-size:9px;fill:white;">+3</text>
                </g>
                <g transform="matrix(1,0,0,1,-484.597,-130.794)">
                    <text x="2007px" y="431.328px" style="font-family:'Roboto-Regular', 'Roboto';font-size:9px;fill:white;">+3</text>
                </g>
                <g transform="matrix(1,0,0,1,-484.597,-112.858)">
                    <text x="2007px" y="431.328px" style="font-family:'Roboto-Regular', 'Roboto';font-size:9px;fill:white;">+3</text>
                </g>
                <g transform="matrix(1,0,0,1,-484.597,-94.7229)">
                    <text x="2007px" y="431.328px" style="font-family:'Roboto-Regular', 'Roboto';font-size:9px;fill:white;">+3</text>
                </g>
                <g transform="matrix(1,0,0,1,-484.597,-76.8201)">
                    <text x="2007px" y="431.328px" style="font-family:'Roboto-Regular', 'Roboto';font-size:9px;fill:white;">+3</text>
                </g>
                <g transform="matrix(1,0,0,1,-484.597,-58.6123)">
                    <text x="2007px" y="431.328px" style="font-family:'Roboto-Regular', 'Roboto';font-size:9px;">+3</text>
                </g>
            </g>
        </g>
    </g>
    <defs>
        <linearGradient id="_Linear1" x1="0" y1="0" x2="1" y2="0" gradientUnits="userSpaceOnUse" gradientTransform="matrix(7.8693e-16,-26.1538,12.8515,1.60146e-15,2394.82,235.404)"><stop offset="0" style="stop-color:rgb(242,142,13);stop-opacity:1"/><stop offset="1" style="stop-color:rgb(240,158,50);stop-opacity:1"/></linearGradient>
        <linearGradient id="_Linear2" x1="0" y1="0" x2="1" y2="0" gradientUnits="userSpaceOnUse" gradientTransform="matrix(7.8693e-16,-26.1538,12.8515,1.60146e-15,2394.82,235.404)"><stop offset="0" style="stop-color:rgb(242,142,13);stop-opacity:1"/><stop offset="1" style="stop-color:rgb(240,158,50);stop-opacity:1"/></linearGradient>
        <linearGradient id="_Linear3" x1="0" y1="0" x2="1" y2="0" gradientUnits="userSpaceOnUse" gradientTransform="matrix(7.8693e-16,-26.1538,12.8515,1.60146e-15,2394.82,235.404)"><stop offset="0" style="stop-color:rgb(242,142,13);stop-opacity:1"/><stop offset="1" style="stop-color:rgb(240,158,50);stop-opacity:1"/></linearGradient>
        <linearGradient id="_Linear4" x1="0" y1="0" x2="1" y2="0" gradientUnits="userSpaceOnUse" gradientTransform="matrix(7.8693e-16,-26.1538,12.8515,1.60146e-15,2394.82,235.404)"><stop offset="0" style="stop-color:rgb(242,142,13);stop-opacity:1"/><stop offset="1" style="stop-color:rgb(240,158,50);stop-opacity:1"/></linearGradient>
        <linearGradient id="_Linear5" x1="0" y1="0" x2="1" y2="0" gradientUnits="userSpaceOnUse" gradientTransform="matrix(7.8693e-16,-26.1538,12.8515,1.60146e-15,2394.82,235.404)"><stop offset="0" style="stop-color:rgb(242,142,13);stop-opacity:1"/><stop offset="1" style="stop-color:rgb(240,158,50);stop-opacity:1"/></linearGradient>
        <linearGradient id="_Linear6" x1="0" y1="0" x2="1" y2="0" gradientUnits="userSpaceOnUse" gradientTransform="matrix(7.8693e-16,-26.1538,12.8515,1.60146e-15,2394.82,235.404)"><stop offset="0" style="stop-color:rgb(242,142,13);stop-opacity:1"/><stop offset="1" style="stop-color:rgb(240,158,50);stop-opacity:1"/></linearGradient>
        <linearGradient id="_Linear7" x1="0" y1="0" x2="1" y2="0" gradientUnits="userSpaceOnUse" gradientTransform="matrix(7.8693e-16,-26.1538,12.8515,1.60146e-15,2394.82,235.404)"><stop offset="0" style="stop-color:rgb(242,142,13);stop-opacity:1"/><stop offset="1" style="stop-color:rgb(240,158,50);stop-opacity:1"/></linearGradient>
    </defs>
</svg>
