<?xml version="1.0" encoding="UTF-8" standalone="no"?>
<!DOCTYPE svg PUBLIC "-//W3C//DTD SVG 1.1//EN" "http://www.w3.org/Graphics/SVG/1.1/DTD/svg11.dtd">
<svg width="100%" height="100%" viewBox="0 0 119 51" version="1.1" xmlns="http://www.w3.org/2000/svg" xmlns:xlink="http://www.w3.org/1999/xlink" xml:space="preserve" xmlns:serif="http://www.serif.com/" style="fill-rule:evenodd;clip-rule:evenodd;stroke-linejoin:round;stroke-miterlimit:1.41421;">
    <g transform="matrix(1,0,0,1,-2755,-719)">
        <g id="bmp00137" transform="matrix(1,0,0,1,1016,599)">
            <rect x="1739" y="120" width="119" height="51" style="fill:none;"/>
            <clipPath id="_clip1">
                <rect x="1739" y="120" width="119" height="51"/>
            </clipPath>
            <g clip-path="url(#_clip1)">
                <g id="bmp001371" serif:id="bmp00137" transform="matrix(1,0,0,1,1798.5,145.5)">
                    <g transform="matrix(1,0,0,1,-59.5,-25.5)">
                        <clipPath id="_clip2">
                            <rect x="0" y="0" width="119" height="51"/>
                        </clipPath>
                        <g clip-path="url(#_clip2)">
                            <g id="Layer1">
                                <g transform="matrix(2.71429,0,0,2.2,-42.7143,-6.6)">
                                    <rect x="22" y="3" width="7" height="5" style="fill:rgb(235,235,235);fill-opacity:0;"/>
                                    <path d="M29,8L22,8L22,3L29,3L29,8ZM22.368,3.455L22.368,7.545L28.632,7.545L28.632,3.455L22.368,3.455Z"/>
                                </g>
                                <g transform="matrix(2.71429,0,0,2.2,-16.7143,-6.6)">
                                    <rect x="22" y="3" width="7" height="5" style="fill:rgb(235,235,235);fill-opacity:0;"/>
                                    <path d="M29,8L22,8L22,3L29,3L29,8ZM22.368,3.455L22.368,7.545L28.632,7.545L28.632,3.455L22.368,3.455Z"/>
                                </g>
                                <g transform="matrix(2.71429,0,0,2.2,28.2857,3.4)">
                                    <rect x="22" y="3" width="7" height="5" style="fill:rgb(235,235,235);fill-opacity:0;"/>
                                    <path d="M29,8L22,8L22,3L29,3L29,8ZM22.368,3.455L22.368,7.545L28.632,7.545L28.632,3.455L22.368,3.455Z"/>
                                </g>
                                <g transform="matrix(2.71429,0,0,2.2,28.2857,23.4)">
                                    <rect x="22" y="3" width="7" height="5" style="fill:rgb(235,235,235);fill-opacity:0;"/>
                                    <path d="M29,8L22,8L22,3L29,3L29,8ZM22.368,3.455L22.368,7.545L28.632,7.545L28.632,3.455L22.368,3.455Z"/>
                                </g>
                                <g transform="matrix(2.71429,0,0,2.2,-42.7143,13.4)">
                                    <rect x="22" y="3" width="7" height="5" style="fill:rgb(235,235,235);fill-opacity:0;"/>
                                    <path d="M29,8L22,8L22,3L29,3L29,8ZM22.368,3.455L22.368,7.545L28.632,7.545L28.632,3.455L22.368,3.455Z"/>
                                </g>
                                <g transform="matrix(2.71429,0,0,2.2,-16.7143,13.4)">
                                    <rect x="22" y="3" width="7" height="5" style="fill:rgb(235,235,235);fill-opacity:0;"/>
                                    <path d="M29,8L22,8L22,3L29,3L29,8ZM22.368,3.455L22.368,7.545L28.632,7.545L28.632,3.455L22.368,3.455Z"/>
                                </g>
                                <g transform="matrix(2.71429,0,0,2.2,-42.7143,33.4)">
                                    <rect x="22" y="3" width="7" height="5" style="fill:rgb(235,235,235);fill-opacity:0;"/>
                                    <path d="M29,8L22,8L22,3L29,3L29,8ZM22.368,3.455L22.368,7.545L28.632,7.545L28.632,3.455L22.368,3.455Z"/>
                                </g>
                                <g transform="matrix(2.71429,0,0,2.2,-16.7143,33.4)">
                                    <rect x="22" y="3" width="7" height="5" style="fill:rgb(235,235,235);fill-opacity:0;"/>
                                    <path d="M29,8L22,8L22,3L29,3L29,8ZM22.368,3.455L22.368,7.545L28.632,7.545L28.632,3.455L22.368,3.455Z"/>
                                </g>
                                <rect x="0" y="40" width="10" height="11" style="fill:rgb(127,127,127);"/>
                                <path d="M10,51L0,51L0,40L10,40L10,51ZM1,41L1,50L9,50L9,41L1,41Z"/>
                                <g transform="matrix(1,0,0,1,0,-40)">
                                    <rect x="0" y="40" width="10" height="11" style="fill:rgb(127,127,127);"/>
                                    <path d="M10,51L0,51L0,40L10,40L10,51ZM1,41L1,50L9,50L9,41L1,41Z"/>
                                </g>
                                <g transform="matrix(1,0,0,1,-5,-13)">
                                    <text x="7.833px" y="21.167px" style="font-family:'Lato-Regular', 'Lato', sans-serif;font-size:7px;fill:white;">A</text>
                                </g>
                                <g transform="matrix(1,0,0,1,-5,27)">
                                    <text x="7.833px" y="21.167px" style="font-family:'Lato-Regular', 'Lato', sans-serif;font-size:7px;fill:white;">B</text>
                                </g>
                                <g transform="matrix(1.16667,0,0,1,-11.3333,0)">
                                    <rect x="62" y="5" width="6" height="1" style="fill:rgb(127,127,127);"/>
                                    <rect x="62" y="5" width="6" height="1"/>
                                </g>
                                <rect x="64" y="5" width="1" height="9" style="fill:rgb(127,127,127);"/>
                                <rect x="64" y="5" width="1" height="9"/>
                                <rect x="19" y="13" width="46" height="1" style="fill:rgb(127,127,127);"/>
                                <rect x="19" y="13" width="46" height="1"/>
                                <rect x="67" y="5" width="1" height="18" style="fill:rgb(127,127,127);"/>
                                <rect x="67" y="5" width="1" height="18"/>
                                <rect x="35" y="26" width="7" height="1" style="fill:rgb(127,127,127);"/>
                                <rect x="35" y="26" width="7" height="1"/>
                                <rect x="63" y="26" width="9" height="1" style="fill:rgb(127,127,127);"/>
                                <rect x="63" y="26" width="9" height="1"/>
                                <rect x="61" y="24" width="11" height="1" style="fill:rgb(127,127,127);"/>
                                <rect x="61" y="24" width="11" height="1"/>
                                <rect x="70" y="23" width="1" height="5" style="fill:rgb(127,127,127);"/>
                                <rect x="70" y="23" width="1" height="5"/>
                                <rect x="67" y="22" width="3" height="1" style="fill:rgb(127,127,127);"/>
                                <rect x="67" y="22" width="3" height="1"/>
                                <rect x="67" y="28" width="3" height="1" style="fill:rgb(127,127,127);"/>
                                <rect x="67" y="28" width="3" height="1"/>
                                <rect x="67" y="28" width="1" height="18" style="fill:rgb(127,127,127);"/>
                                <rect x="67" y="28" width="1" height="18"/>
                                <rect x="61" y="45" width="7" height="1" style="fill:rgb(127,127,127);"/>
                                <rect x="61" y="45" width="7" height="1"/>
                                <rect x="64" y="37" width="1" height="9" style="fill:rgb(127,127,127);"/>
                                <rect x="64" y="37" width="1" height="9"/>
                                <rect x="19" y="37" width="46" height="1" style="fill:rgb(127,127,127);"/>
                                <rect x="19" y="37" width="46" height="1"/>
                                <rect x="80" y="25" width="3" height="1" style="fill:rgb(127,127,127);"/>
                                <rect x="80" y="25" width="3" height="1"/>
                                <rect x="82" y="15" width="1" height="11" style="fill:rgb(127,127,127);"/>
                                <rect x="82" y="15" width="1" height="11"/>
                                <rect x="82" y="15" width="7" height="1" style="fill:rgb(127,127,127);"/>
                                <rect x="82" y="15" width="7" height="1"/>
                                <rect x="106" y="15" width="4" height="1" style="fill:rgb(127,127,127);"/>
                                <rect x="106" y="15" width="4" height="1"/>
                                <rect x="109" y="15" width="1" height="11" style="fill:rgb(127,127,127);"/>
                                <rect x="109" y="15" width="1" height="11"/>
                                <rect x="85" y="25" width="25" height="1" style="fill:rgb(127,127,127);"/>
                                <rect x="85" y="25" width="25" height="1"/>
                                <rect x="85" y="35" width="4" height="1" style="fill:rgb(127,127,127);"/>
                                <rect x="85" y="35" width="4" height="1"/>
                                <rect x="85" y="25" width="1" height="11" style="fill:rgb(127,127,127);"/>
                                <rect x="85" y="25" width="1" height="11"/>
                                <rect x="106" y="35" width="7" height="1" style="fill:rgb(127,127,127);"/>
                                <rect x="106" y="35" width="7" height="1"/>
                                <rect x="112" y="25" width="1" height="11" style="fill:rgb(127,127,127);"/>
                                <rect x="112" y="25" width="1" height="11"/>
                                <circle cx="75.5" cy="25.5" r="4.5" style="fill:rgb(127,127,127);"/>
                                <path d="M75.616,21.001L75.731,21.006L75.846,21.013L75.96,21.023L76.073,21.036L76.185,21.052L76.296,21.07L76.406,21.091L76.516,21.115L76.624,21.142L76.731,21.171L76.838,21.202L76.943,21.237L77.047,21.273L77.149,21.312L77.251,21.354L77.351,21.398L77.45,21.444L77.548,21.493L77.644,21.543L77.739,21.597L77.833,21.652L77.925,21.709L78.015,21.769L78.104,21.831L78.192,21.894L78.278,21.96L78.362,22.028L78.444,22.098L78.525,22.17L78.604,22.243L78.681,22.319L78.757,22.396L78.83,22.475L78.902,22.556L78.972,22.638L79.04,22.722L79.106,22.808L79.169,22.896L79.231,22.985L79.291,23.075L79.348,23.167L79.403,23.261L79.457,23.356L79.507,23.452L79.556,23.55L79.602,23.649L79.646,23.749L79.688,23.851L79.727,23.953L79.763,24.057L79.798,24.162L79.829,24.269L79.858,24.376L79.885,24.484L79.909,24.594L79.93,24.704L79.948,24.815L79.964,24.927L79.977,25.04L79.987,25.154L79.994,25.269L79.999,25.384L80,25.5L79.999,25.616L79.994,25.731L79.987,25.846L79.977,25.96L79.964,26.073L79.948,26.185L79.93,26.296L79.909,26.406L79.885,26.516L79.858,26.624L79.829,26.731L79.798,26.838L79.763,26.943L79.727,27.047L79.688,27.149L79.646,27.251L79.602,27.351L79.556,27.45L79.507,27.548L79.457,27.644L79.403,27.739L79.348,27.833L79.291,27.925L79.231,28.015L79.169,28.104L79.106,28.192L79.04,28.278L78.972,28.362L78.902,28.444L78.83,28.525L78.757,28.604L78.681,28.681L78.604,28.757L78.525,28.83L78.444,28.902L78.362,28.972L78.278,29.04L78.192,29.106L78.104,29.169L78.015,29.231L77.925,29.291L77.833,29.348L77.739,29.403L77.644,29.457L77.548,29.507L77.45,29.556L77.351,29.602L77.251,29.646L77.149,29.688L77.047,29.727L76.943,29.763L76.838,29.798L76.731,29.829L76.624,29.858L76.516,29.885L76.406,29.909L76.296,29.93L76.185,29.948L76.073,29.964L75.96,29.977L75.846,29.987L75.731,29.994L75.616,29.999L75.5,30L75.384,29.999L75.269,29.994L75.154,29.987L75.04,29.977L74.927,29.964L74.815,29.948L74.704,29.93L74.594,29.909L74.484,29.885L74.376,29.858L74.269,29.829L74.162,29.798L74.057,29.763L73.953,29.727L73.851,29.688L73.749,29.646L73.649,29.602L73.55,29.556L73.452,29.507L73.356,29.457L73.261,29.403L73.167,29.348L73.075,29.291L72.985,29.231L72.896,29.169L72.808,29.106L72.722,29.04L72.638,28.972L72.556,28.902L72.475,28.83L72.396,28.757L72.319,28.681L72.243,28.604L72.17,28.525L72.098,28.444L72.028,28.362L71.96,28.278L71.894,28.192L71.831,28.104L71.769,28.015L71.709,27.925L71.652,27.833L71.597,27.739L71.543,27.644L71.493,27.548L71.444,27.45L71.398,27.351L71.354,27.251L71.312,27.149L71.273,27.047L71.237,26.943L71.202,26.838L71.171,26.731L71.142,26.624L71.115,26.516L71.091,26.406L71.07,26.296L71.052,26.185L71.036,26.073L71.023,25.96L71.013,25.846L71.006,25.731L71.001,25.616L71,25.5L71.001,25.384L71.006,25.269L71.013,25.154L71.023,25.04L71.036,24.927L71.052,24.815L71.07,24.704L71.091,24.594L71.115,24.484L71.142,24.376L71.171,24.269L71.202,24.162L71.237,24.057L71.273,23.953L71.312,23.851L71.354,23.749L71.398,23.649L71.444,23.55L71.493,23.452L71.543,23.356L71.597,23.261L71.652,23.167L71.709,23.075L71.769,22.985L71.831,22.896L71.894,22.808L71.96,22.722L72.028,22.638L72.098,22.556L72.17,22.475L72.243,22.396L72.319,22.319L72.396,22.243L72.475,22.17L72.556,22.098L72.638,22.028L72.722,21.96L72.808,21.894L72.896,21.831L72.985,21.769L73.075,21.709L73.167,21.652L73.261,21.597L73.356,21.543L73.452,21.493L73.55,21.444L73.649,21.398L73.749,21.354L73.851,21.312L73.953,21.273L74.057,21.237L74.162,21.202L74.269,21.171L74.376,21.142L74.484,21.115L74.594,21.091L74.704,21.07L74.815,21.052L74.927,21.036L75.04,21.023L75.154,21.013L75.269,21.006L75.384,21.001L75.5,21L75.616,21.001ZM75.409,22.001L75.319,22.005L75.23,22.01L75.141,22.018L75.053,22.028L74.966,22.04L74.88,22.055L74.794,22.071L74.71,22.09L74.625,22.11L74.542,22.133L74.46,22.157L74.378,22.184L74.298,22.212L74.218,22.243L74.139,22.275L74.061,22.309L73.984,22.345L73.908,22.383L73.833,22.422L73.76,22.463L73.687,22.507L73.615,22.551L73.545,22.598L73.475,22.646L73.408,22.695L73.34,22.747L73.275,22.799L73.21,22.854L73.148,22.909L73.086,22.967L73.026,23.026L72.967,23.086L72.91,23.147L72.854,23.211L72.799,23.275L72.747,23.34L72.695,23.407L72.646,23.475L72.598,23.545L72.551,23.616L72.506,23.687L72.463,23.76L72.422,23.833L72.382,23.908L72.345,23.984L72.309,24.06L72.275,24.139L72.242,24.218L72.212,24.297L72.184,24.378L72.157,24.46L72.133,24.542L72.11,24.625L72.09,24.709L72.071,24.794L72.055,24.88L72.041,24.966L72.028,25.054L72.018,25.142L72.01,25.23L72.005,25.318L72.001,25.409L72,25.5L72.001,25.591L72.005,25.682L72.01,25.77L72.018,25.858L72.028,25.946L72.041,26.034L72.055,26.12L72.071,26.206L72.09,26.291L72.11,26.375L72.133,26.458L72.157,26.54L72.184,26.622L72.212,26.703L72.242,26.782L72.275,26.861L72.309,26.94L72.345,27.016L72.382,27.092L72.422,27.167L72.463,27.24L72.506,27.313L72.551,27.384L72.598,27.455L72.646,27.525L72.695,27.593L72.747,27.66L72.799,27.725L72.854,27.789L72.91,27.853L72.967,27.914L73.026,27.974L73.086,28.033L73.148,28.091L73.21,28.146L73.275,28.201L73.34,28.253L73.407,28.305L73.475,28.354L73.545,28.402L73.615,28.449L73.687,28.493L73.76,28.537L73.833,28.578L73.908,28.617L73.984,28.655L74.061,28.691L74.139,28.725L74.218,28.757L74.298,28.788L74.378,28.816L74.46,28.843L74.542,28.867L74.625,28.89L74.71,28.91L74.794,28.929L74.88,28.945L74.966,28.96L75.053,28.972L75.141,28.982L75.23,28.99L75.319,28.995L75.409,28.999L75.5,29L75.591,28.999L75.681,28.995L75.77,28.99L75.859,28.982L75.947,28.972L76.034,28.96L76.12,28.945L76.206,28.929L76.29,28.91L76.375,28.89L76.458,28.867L76.54,28.843L76.622,28.816L76.702,28.788L76.782,28.757L76.861,28.725L76.939,28.691L77.016,28.655L77.092,28.617L77.167,28.578L77.24,28.537L77.313,28.493L77.385,28.449L77.455,28.402L77.525,28.354L77.593,28.305L77.66,28.253L77.725,28.201L77.79,28.146L77.852,28.091L77.914,28.033L77.974,27.974L78.033,27.914L78.09,27.853L78.146,27.789L78.201,27.725L78.253,27.66L78.305,27.593L78.354,27.525L78.402,27.455L78.449,27.384L78.494,27.313L78.537,27.24L78.578,27.167L78.618,27.092L78.655,27.016L78.691,26.94L78.725,26.861L78.758,26.782L78.788,26.703L78.816,26.622L78.843,26.54L78.867,26.458L78.89,26.375L78.91,26.291L78.929,26.206L78.945,26.12L78.959,26.034L78.972,25.946L78.982,25.858L78.99,25.77L78.995,25.682L78.999,25.591L79,25.5L78.999,25.409L78.995,25.318L78.99,25.23L78.982,25.142L78.972,25.054L78.959,24.966L78.945,24.88L78.929,24.794L78.91,24.709L78.89,24.625L78.867,24.542L78.843,24.46L78.816,24.378L78.788,24.297L78.758,24.218L78.725,24.139L78.691,24.06L78.655,23.984L78.618,23.908L78.578,23.833L78.537,23.76L78.494,23.687L78.449,23.616L78.402,23.545L78.354,23.475L78.305,23.407L78.253,23.34L78.201,23.275L78.146,23.211L78.09,23.147L78.033,23.086L77.974,23.026L77.914,22.967L77.852,22.909L77.79,22.854L77.725,22.799L77.66,22.747L77.592,22.695L77.525,22.646L77.455,22.598L77.385,22.551L77.313,22.507L77.24,22.463L77.167,22.422L77.092,22.383L77.016,22.345L76.939,22.309L76.861,22.275L76.782,22.243L76.702,22.212L76.622,22.184L76.54,22.157L76.458,22.133L76.375,22.11L76.29,22.09L76.206,22.071L76.12,22.055L76.034,22.04L75.947,22.028L75.859,22.018L75.77,22.01L75.681,22.005L75.591,22.001L75.5,22L75.409,22.001Z"/>
                                <g transform="matrix(1,0,0,1,0,1)">
                                    <rect x="75" y="23" width="1" height="3" style="fill:rgb(127,127,127);"/>
                                    <rect x="75" y="23" width="1" height="3" style="fill:white;"/>
                                </g>
                                <g transform="matrix(6.12323e-17,-1,1,6.12323e-17,51,101)">
                                    <rect x="75" y="23" width="1" height="3" style="fill:rgb(127,127,127);"/>
                                    <rect x="75" y="23" width="1" height="3" style="fill:white;"/>
                                </g>
                                <g>
                                    <g transform="matrix(5.10269e-17,0.833333,-0.8,4.89859e-17,18.4,-7.83333)">
                                        <path d="M16,3L19,8L13,8L16,3Z"/>
                                    </g>
                                    <rect x="9" y="5" width="4" height="1"/>
                                </g>
                                <g transform="matrix(1,0,0,1,0,40)">
                                    <g transform="matrix(5.10269e-17,0.833333,-0.8,4.89859e-17,18.4,-7.83333)">
                                        <path d="M16,3L19,8L13,8L16,3Z"/>
                                    </g>
                                    <rect x="9" y="5" width="4" height="1"/>
                                </g>
                                <g transform="matrix(1,0,0,1,27,40)">
                                    <g transform="matrix(5.10269e-17,0.833333,-0.6,3.67394e-17,16.8,-7.83333)">
                                        <path d="M16,3L19,8L13,8L16,3Z"/>
                                    </g>
                                    <rect x="9" y="5" width="4" height="1"/>
                                </g>
                                <g transform="matrix(1,0,0,1,104,20)">
                                    <g transform="matrix(5.10269e-17,0.833333,-0.6,3.67394e-17,16.8,-7.83333)">
                                        <path d="M16,3L19,8L13,8L16,3Z"/>
                                    </g>
                                    <rect x="9" y="5" width="4" height="1"/>
                                </g>
                                <g transform="matrix(1,0,0,1,27,0)">
                                    <g transform="matrix(5.10269e-17,0.833333,-0.6,3.67394e-17,16.8,-7.83333)">
                                        <path d="M16,3L19,8L13,8L16,3Z"/>
                                    </g>
                                    <rect x="9" y="5" width="4" height="1"/>
                                </g>
                                <g transform="matrix(6.12323e-17,1,-1,6.12323e-17,51,4)">
                                    <g transform="matrix(5.10269e-17,0.833333,-0.6,3.67394e-17,16.8,-7.83333)">
                                        <path d="M16,3L19,8L13,8L16,3Z"/>
                                    </g>
                                    <rect x="9" y="5" width="4" height="1"/>
                                </g>
                                <g transform="matrix(6.12323e-17,1,-1,6.12323e-17,25,4)">
                                    <g transform="matrix(5.10269e-17,0.833333,-0.6,3.67394e-17,16.8,-7.83333)">
                                        <path d="M16,3L19,8L13,8L16,3Z"/>
                                    </g>
                                    <rect x="9" y="5" width="4" height="1"/>
                                </g>
                                <g transform="matrix(6.12323e-17,-1,1,6.12323e-17,14,47)">
                                    <g transform="matrix(5.10269e-17,0.833333,-0.6,3.67394e-17,16.8,-7.83333)">
                                        <path d="M16,3L19,8L13,8L16,3Z"/>
                                    </g>
                                    <rect x="9" y="5" width="4" height="1"/>
                                </g>
                                <g transform="matrix(6.12323e-17,-1,1,6.12323e-17,40,47)">
                                    <g transform="matrix(5.10269e-17,0.833333,-0.6,3.67394e-17,16.8,-7.83333)">
                                        <path d="M16,3L19,8L13,8L16,3Z"/>
                                    </g>
                                    <rect x="9" y="5" width="4" height="1"/>
                                </g>
                            </g>
                        </g>
                    </g>
                </g>
            </g>
        </g>
    </g>
</svg>
