<?xml version="1.0" encoding="UTF-8" standalone="no"?>
<!DOCTYPE svg PUBLIC "-//W3C//DTD SVG 1.1//EN" "http://www.w3.org/Graphics/SVG/1.1/DTD/svg11.dtd">
<svg width="100%" height="100%" viewBox="0 0 41 144" version="1.1" xmlns="http://www.w3.org/2000/svg" xmlns:xlink="http://www.w3.org/1999/xlink" xml:space="preserve" xmlns:serif="http://www.serif.com/" style="fill-rule:evenodd;clip-rule:evenodd;stroke-linejoin:round;stroke-miterlimit:1.41421;">
    <g transform="matrix(1,0,0,1,-2320,-423)">
        <g id="bmp00119" transform="matrix(1,0,0,1,716.152,434.382)">
            <rect x="1603.85" y="-11.382" width="41" height="144" style="fill:none;"/>
            <clipPath id="_clip1">
                <rect x="1603.85" y="-11.382" width="41" height="144"/>
            </clipPath>
            <g clip-path="url(#_clip1)">
                <g transform="matrix(1,0,0,0.923818,-402.152,-412.243)">
                    <rect x="2006" y="435" width="41" height="14.072" style="fill:rgb(47,49,55);"/>
                </g>
                <g transform="matrix(1,0,0,0.923818,-402.152,-394.243)">
                    <rect x="2006" y="435" width="41" height="14.072" style="fill:rgb(47,49,55);"/>
                </g>
                <g transform="matrix(1,0,0,0.923818,-402.152,-376.243)">
                    <rect x="2006" y="435" width="41" height="14.072" style="fill:rgb(47,49,55);"/>
                </g>
                <g transform="matrix(1,0,0,0.923818,-402.152,-358.243)">
                    <rect x="2006" y="435" width="41" height="14.072" style="fill:rgb(47,49,55);"/>
                </g>
                <g transform="matrix(1,0,0,0.923818,-402.152,-340.243)">
                    <rect x="2006" y="435" width="41" height="14.072" style="fill:rgb(47,49,55);"/>
                </g>
                <g transform="matrix(1,0,0,0.923818,-402.152,-322.243)">
                    <rect x="2006" y="435" width="41" height="14.072" style="fill:rgb(47,49,55);"/>
                </g>
                <g transform="matrix(1,0,0,0.923818,-402.152,-304.243)">
                    <rect x="2006" y="435" width="41" height="14.072" style="fill:rgb(47,49,55);"/>
                </g>
                <g transform="matrix(1,0,0,0.923818,-402.152,-286.243)">
                    <rect x="2006" y="435" width="41" height="14.072" style="fill:rgb(47,49,55);"/>
                </g>
                <g transform="matrix(1,0,0,1,-373.879,-446.337)">
                    <text x="1979.32px" y="445px" style="font-family:'Lato-Regular', 'Lato', sans-serif;font-size:7px;fill:white;">C<tspan x="1983.98px 1987.43px 1992.05px 1995.62px 1999.19px 2001.2px " y="445px 445px 445px 445px 445px 445px ">LASSIC</tspan></text>
                </g>
                <g transform="matrix(1,0,0,1,-373.879,-428.337)">
                    <text x="1979.32px" y="445px" style="font-family:'Lato-Regular', 'Lato', sans-serif;font-size:7px;fill:white;">S<tspan x="1982.89px 1984.9px 1990.05px " y="445px 445px 445px ">INE</tspan></text>
                </g>
                <g transform="matrix(1,0,0,1,-373.879,-410.337)">
                    <text x="1979.32px" y="445px" style="font-family:'Lato-Regular', 'Lato', sans-serif;font-size:7px;fill:white;">W<tspan x="1986.2px 1987.86px 1991.39px 1996.01px 2000.4px 2003.86px " y="445px 445px 445px 445px 445px 445px ">-TABLE</tspan></text>
                </g>
                <g transform="matrix(1,0,0,1,-373.879,-392.337)">
                    <text x="1979.32px" y="445px" style="font-family:'Lato-Regular', 'Lato', sans-serif;font-size:7px;fill:white;">S<tspan x="1982.89px 1988.04px 1990.33px 1995.48px 2000.93px 2002.94px 2006.51px " y="445px 445px 445px 445px 445px 445px 445px ">H-NOISE</tspan></text>
                </g>
                <g transform="matrix(1,0,0,1,-373.879,-374.337)">
                    <text x="1979.32px" y="445px" style="font-family:'Lato-Regular', 'Lato', sans-serif;font-size:7px;fill:white;">A<tspan x="1983.74px " y="445px ">U</tspan>DI<tspan x="1995.85px 2001.3px 2002.51px 2004.52px " y="445px 445px 445px 445px ">O IN</tspan></text>
                </g>
                <g transform="matrix(1,0,0,1,-373.879,-356.337)">
                    <text x="1979.32px" y="445px" style="font-family:'Lato-Regular', 'Lato', sans-serif;font-size:7px;fill:white;">F<tspan x="1983.14px 1989.44px 1990.65px 1992.94px 1994.15px " y="445px 445px 445px 445px 445px ">M - 3</tspan></text>
                </g>
                <g transform="matrix(1,0,0,1,-373.879,-338.337)">
                    <text x="1979.32px" y="445px" style="font-family:'Lato-Regular', 'Lato', sans-serif;font-size:7px;fill:white;">F<tspan x="1983.14px 1989.44px 1990.65px 1992.94px 1994.15px " y="445px 445px 445px 445px 445px ">M - 2</tspan></text>
                </g>
                <g transform="matrix(1,0,0,1,-373.879,-320.337)">
                    <text x="1979.32px" y="445px" style="font-family:'Lato-Regular', 'Lato', sans-serif;font-size:7px;fill:white;">W<tspan x="1986.31px 1988.32px 1993.47px 1998.61px 2004.05px " y="445px 445px 445px 445px 445px ">INDOW</tspan></text>
                </g>
                <g transform="matrix(1.33333,0,0,-1.33333,-1080.65,586.118)">
                    <path d="M2041.5,441L2043,444L2040,444L2041.5,441Z" style="fill:rgb(123,123,123);"/>
                </g>
                <g transform="matrix(1.33333,0,0,-1.33333,-1080.65,604.118)">
                    <path d="M2041.5,441L2043,444L2040,444L2041.5,441Z" style="fill:rgb(123,123,123);"/>
                </g>
                <g transform="matrix(1.33333,0,0,-1.33333,-1080.65,622.118)">
                    <path d="M2041.5,441L2043,444L2040,444L2041.5,441Z" style="fill:rgb(123,123,123);"/>
                </g>
                <g transform="matrix(1.33333,0,0,-1.33333,-1080.65,640.118)">
                    <path d="M2041.5,441L2043,444L2040,444L2041.5,441Z" style="fill:rgb(123,123,123);"/>
                </g>
                <g transform="matrix(1.33333,0,0,-1.33333,-1080.65,658.118)">
                    <path d="M2041.5,441L2043,444L2040,444L2041.5,441Z" style="fill:rgb(123,123,123);"/>
                </g>
                <g transform="matrix(1.33333,0,0,-1.33333,-1080.65,676.118)">
                    <path d="M2041.5,441L2043,444L2040,444L2041.5,441Z" style="fill:rgb(123,123,123);"/>
                </g>
                <g transform="matrix(1.33333,0,0,-1.33333,-1080.65,694.118)">
                    <path d="M2041.5,441L2043,444L2040,444L2041.5,441Z" style="fill:rgb(123,123,123);"/>
                </g>
                <g transform="matrix(1.33333,0,0,-1.33333,-1080.65,712.118)">
                    <path d="M2041.5,441L2043,444L2040,444L2041.5,441Z" style="fill:rgb(123,123,123);"/>
                </g>
            </g>
        </g>
    </g>
</svg>
