<?xml version="1.0" encoding="UTF-8" standalone="no"?>
<!DOCTYPE svg PUBLIC "-//W3C//DTD SVG 1.1//EN" "http://www.w3.org/Graphics/SVG/1.1/DTD/svg11.dtd">
<svg width="100%" height="100%" viewBox="0 0 12 108" version="1.1" xmlns="http://www.w3.org/2000/svg" xmlns:xlink="http://www.w3.org/1999/xlink" xml:space="preserve" xmlns:serif="http://www.serif.com/" style="fill-rule:evenodd;clip-rule:evenodd;stroke-linejoin:round;stroke-miterlimit:1.41421;">
    <g transform="matrix(1,0,0,1,-2383,-423)">
        <g id="bmp00160" transform="matrix(1,0,0,1,754.511,-559.497)">
            <rect x="1628.49" y="982.497" width="12" height="108" style="fill:none;"/>
            <g id="B" transform="matrix(0.215686,0,0,0.416212,1117.53,915.367)">
                <path d="M2420,212.854C2420,210.865 2416.88,209.25 2413.05,209.25L2375.95,209.25C2372.12,209.25 2369,210.865 2369,212.854L2369,232.075C2369,234.064 2372.12,235.679 2375.95,235.679L2413.05,235.679C2416.88,235.679 2420,234.064 2420,232.075L2420,212.854Z" style="fill:url(#_Linear1);"/>
            </g>
            <g id="B1" serif:id="B" transform="matrix(0.215686,0,0,0.416212,1117.53,933.367)">
                <path d="M2420,212.854C2420,210.865 2416.88,209.25 2413.05,209.25L2375.95,209.25C2372.12,209.25 2369,210.865 2369,212.854L2369,232.075C2369,234.064 2372.12,235.679 2375.95,235.679L2413.05,235.679C2416.88,235.679 2420,234.064 2420,232.075L2420,212.854Z" style="fill:url(#_Linear2);"/>
            </g>
            <g id="B2" serif:id="B" transform="matrix(0.215686,0,0,0.416212,1117.53,951.367)">
                <path d="M2420,212.854C2420,210.865 2416.88,209.25 2413.05,209.25L2375.95,209.25C2372.12,209.25 2369,210.865 2369,212.854L2369,232.075C2369,234.064 2372.12,235.679 2375.95,235.679L2413.05,235.679C2416.88,235.679 2420,234.064 2420,232.075L2420,212.854Z" style="fill:url(#_Linear3);"/>
            </g>
            <g id="B3" serif:id="B" transform="matrix(0.215686,0,0,0.416212,1117.53,969.367)">
                <path d="M2420,212.854C2420,210.865 2416.88,209.25 2413.05,209.25L2375.95,209.25C2372.12,209.25 2369,210.865 2369,212.854L2369,232.075C2369,234.064 2372.12,235.679 2375.95,235.679L2413.05,235.679C2416.88,235.679 2420,234.064 2420,232.075L2420,212.854Z" style="fill:url(#_Linear4);"/>
            </g>
            <g id="B4" serif:id="B" transform="matrix(0.215686,0,0,0.416212,1117.53,987.367)">
                <path d="M2420,212.854C2420,210.865 2416.88,209.25 2413.05,209.25L2375.95,209.25C2372.12,209.25 2369,210.865 2369,212.854L2369,232.075C2369,234.064 2372.12,235.679 2375.95,235.679L2413.05,235.679C2416.88,235.679 2420,234.064 2420,232.075L2420,212.854Z" style="fill:url(#_Linear5);"/>
            </g>
            <g transform="matrix(0.933201,0,0,0.933201,-243.679,608.429)">
                <text x="2009.55px" y="431.328px" style="font-family:'Roboto-Regular', 'Roboto';font-size:9px;">1</text>
            </g>
            <g transform="matrix(0.933201,0,0,0.933201,-243.679,626.429)">
                <text x="2009.55px" y="431.328px" style="font-family:'Roboto-Regular', 'Roboto';font-size:9px;">2</text>
            </g>
            <g transform="matrix(0.933201,0,0,0.933201,-243.679,644.429)">
                <text x="2009.55px" y="431.328px" style="font-family:'Roboto-Regular', 'Roboto';font-size:9px;">3</text>
            </g>
            <g transform="matrix(0.933201,0,0,0.933201,-243.679,662.429)">
                <text x="2009.55px" y="431.328px" style="font-family:'Roboto-Regular', 'Roboto';font-size:9px;">4</text>
            </g>
            <g transform="matrix(0.933201,0,0,0.933201,-243.679,680.429)">
                <text x="2009.55px" y="431.328px" style="font-family:'Roboto-Regular', 'Roboto';font-size:9px;">5</text>
            </g>
        </g>
    </g>
    <defs>
        <linearGradient id="_Linear1" x1="0" y1="0" x2="1" y2="0" gradientUnits="userSpaceOnUse" gradientTransform="matrix(7.8693e-16,-26.1538,12.8515,1.60146e-15,2394.82,235.404)"><stop offset="0" style="stop-color:rgb(242,142,13);stop-opacity:1"/><stop offset="1" style="stop-color:rgb(240,158,50);stop-opacity:1"/></linearGradient>
        <linearGradient id="_Linear2" x1="0" y1="0" x2="1" y2="0" gradientUnits="userSpaceOnUse" gradientTransform="matrix(7.8693e-16,-26.1538,12.8515,1.60146e-15,2394.82,235.404)"><stop offset="0" style="stop-color:rgb(242,142,13);stop-opacity:1"/><stop offset="1" style="stop-color:rgb(240,158,50);stop-opacity:1"/></linearGradient>
        <linearGradient id="_Linear3" x1="0" y1="0" x2="1" y2="0" gradientUnits="userSpaceOnUse" gradientTransform="matrix(7.8693e-16,-26.1538,12.8515,1.60146e-15,2394.82,235.404)"><stop offset="0" style="stop-color:rgb(242,142,13);stop-opacity:1"/><stop offset="1" style="stop-color:rgb(240,158,50);stop-opacity:1"/></linearGradient>
        <linearGradient id="_Linear4" x1="0" y1="0" x2="1" y2="0" gradientUnits="userSpaceOnUse" gradientTransform="matrix(7.8693e-16,-26.1538,12.8515,1.60146e-15,2394.82,235.404)"><stop offset="0" style="stop-color:rgb(242,142,13);stop-opacity:1"/><stop offset="1" style="stop-color:rgb(240,158,50);stop-opacity:1"/></linearGradient>
        <linearGradient id="_Linear5" x1="0" y1="0" x2="1" y2="0" gradientUnits="userSpaceOnUse" gradientTransform="matrix(7.8693e-16,-26.1538,12.8515,1.60146e-15,2394.82,235.404)"><stop offset="0" style="stop-color:rgb(242,142,13);stop-opacity:1"/><stop offset="1" style="stop-color:rgb(240,158,50);stop-opacity:1"/></linearGradient>
    </defs>
</svg>
