<?xml version="1.0" encoding="UTF-8" standalone="no"?>
<!DOCTYPE svg PUBLIC "-//W3C//DTD SVG 1.1//EN" "http://www.w3.org/Graphics/SVG/1.1/DTD/svg11.dtd">
<svg width="100%" height="100%" viewBox="0 0 37 12" version="1.1" xmlns="http://www.w3.org/2000/svg" xmlns:xlink="http://www.w3.org/1999/xlink" xml:space="preserve" xmlns:serif="http://www.serif.com/" style="fill-rule:evenodd;clip-rule:evenodd;stroke-linejoin:round;stroke-miterlimit:1.41421;">
    <g transform="matrix(1,0,0,1,-2320,-636)">
        <g id="bmp00148" transform="matrix(1,0,0,1,841.489,88.3362)">
            <rect x="1478.51" y="547.664" width="37" height="12" style="fill:none;"/>
            <clipPath id="_clip1">
                <rect x="1478.51" y="547.664" width="37" height="12"/>
            </clipPath>
            <g clip-path="url(#_clip1)">
                <g transform="matrix(0.72549,0,0,0.454049,-240.175,452.654)">
                    <g id="_114-46-52-off" serif:id="114/46/52 off">
                        <g id="A">
                            <path d="M2420,213.743C2420,211.263 2418.74,209.25 2417.19,209.25L2371.81,209.25C2370.26,209.25 2369,211.263 2369,213.743L2369,231.186C2369,233.666 2370.26,235.679 2371.81,235.679L2417.19,235.679C2418.74,235.679 2420,233.666 2420,231.186L2420,213.743Z" style="fill:url(#_Linear2);"/>
                            <path d="M2417.26,209.251L2417.33,209.256L2417.4,209.263L2417.47,209.273L2417.55,209.286L2417.62,209.302L2417.69,209.32L2417.76,209.341L2417.82,209.365L2417.89,209.392L2417.96,209.421L2418.02,209.452L2418.09,209.486L2418.16,209.523L2418.22,209.562L2418.28,209.603L2418.35,209.647L2418.41,209.693L2418.47,209.742L2418.53,209.793L2418.59,209.846L2418.65,209.901L2418.7,209.958L2418.76,210.018L2418.82,210.079L2418.87,210.143L2418.92,210.209L2418.98,210.276L2419.03,210.346L2419.08,210.418L2419.13,210.491L2419.18,210.567L2419.22,210.644L2419.27,210.723L2419.31,210.803L2419.36,210.886L2419.4,210.97L2419.44,211.055L2419.48,211.143L2419.52,211.232L2419.56,211.322L2419.59,211.414L2419.63,211.507L2419.66,211.602L2419.69,211.698L2419.72,211.796L2419.75,211.895L2419.78,211.995L2419.8,212.096L2419.83,212.199L2419.85,212.303L2419.87,212.407L2419.89,212.514L2419.91,212.621L2419.93,212.729L2419.94,212.838L2419.96,212.948L2419.97,213.059L2419.98,213.171L2419.99,213.284L2419.99,213.397L2420,213.512L2420,213.627L2420,213.743L2420,231.186L2420,231.302L2420,231.417L2419.99,231.531L2419.99,231.645L2419.98,231.758L2419.97,231.87L2419.96,231.981L2419.94,232.091L2419.93,232.2L2419.91,232.308L2419.89,232.415L2419.87,232.521L2419.85,232.626L2419.83,232.73L2419.8,232.833L2419.78,232.934L2419.75,233.034L2419.72,233.133L2419.69,233.231L2419.66,233.327L2419.63,233.422L2419.59,233.515L2419.56,233.607L2419.52,233.697L2419.48,233.786L2419.44,233.873L2419.4,233.959L2419.36,234.043L2419.31,234.126L2419.27,234.206L2419.22,234.285L2419.18,234.362L2419.13,234.438L2419.08,234.511L2419.03,234.583L2418.98,234.652L2418.92,234.72L2418.87,234.786L2418.82,234.849L2418.76,234.911L2418.7,234.971L2418.65,235.028L2418.59,235.083L2418.53,235.136L2418.47,235.187L2418.41,235.236L2418.35,235.282L2418.28,235.326L2418.22,235.367L2418.16,235.406L2418.09,235.443L2418.02,235.477L2417.96,235.508L2417.89,235.537L2417.82,235.564L2417.76,235.588L2417.69,235.609L2417.62,235.627L2417.55,235.643L2417.47,235.656L2417.4,235.666L2417.33,235.673L2417.26,235.677L2417.19,235.679L2371.81,235.679L2371.74,235.677L2371.67,235.673L2371.6,235.666L2371.53,235.656L2371.45,235.643L2371.38,235.627L2371.31,235.609L2371.24,235.588L2371.18,235.564L2371.11,235.537L2371.04,235.508L2370.98,235.477L2370.91,235.443L2370.85,235.406L2370.78,235.367L2370.72,235.326L2370.66,235.282L2370.59,235.236L2370.53,235.187L2370.47,235.136L2370.41,235.083L2370.35,235.028L2370.3,234.971L2370.24,234.911L2370.18,234.849L2370.13,234.786L2370.08,234.72L2370.02,234.652L2369.97,234.583L2369.92,234.511L2369.87,234.438L2369.82,234.362L2369.78,234.285L2369.73,234.206L2369.69,234.126L2369.64,234.043L2369.6,233.959L2369.56,233.873L2369.52,233.786L2369.48,233.697L2369.44,233.607L2369.41,233.515L2369.37,233.422L2369.34,233.327L2369.31,233.231L2369.28,233.133L2369.25,233.034L2369.22,232.934L2369.2,232.833L2369.17,232.73L2369.15,232.626L2369.13,232.521L2369.11,232.415L2369.09,232.308L2369.07,232.2L2369.06,232.091L2369.04,231.981L2369.03,231.87L2369.02,231.758L2369.01,231.645L2369.01,231.531L2369,231.417L2369,231.302L2369,231.186L2369,213.743L2369,213.627L2369,213.512L2369.01,213.397L2369.01,213.284L2369.02,213.171L2369.03,213.059L2369.04,212.948L2369.06,212.838L2369.07,212.729L2369.09,212.621L2369.11,212.514L2369.13,212.407L2369.15,212.303L2369.17,212.199L2369.2,212.096L2369.22,211.995L2369.25,211.895L2369.28,211.796L2369.31,211.698L2369.34,211.602L2369.37,211.507L2369.41,211.414L2369.44,211.322L2369.48,211.232L2369.52,211.143L2369.56,211.055L2369.6,210.97L2369.64,210.886L2369.69,210.803L2369.73,210.723L2369.78,210.644L2369.82,210.567L2369.87,210.491L2369.92,210.418L2369.97,210.346L2370.02,210.276L2370.08,210.209L2370.13,210.143L2370.18,210.079L2370.24,210.018L2370.3,209.958L2370.35,209.901L2370.41,209.846L2370.47,209.793L2370.53,209.742L2370.59,209.693L2370.66,209.647L2370.72,209.603L2370.78,209.562L2370.85,209.523L2370.91,209.486L2370.98,209.452L2371.04,209.421L2371.11,209.392L2371.18,209.365L2371.24,209.341L2371.31,209.32L2371.38,209.302L2371.45,209.286L2371.53,209.273L2371.6,209.263L2371.67,209.256L2371.74,209.251L2371.81,209.25L2417.19,209.25L2417.26,209.251ZM2371.82,210.034L2371.75,210.035L2371.69,210.039L2371.63,210.045L2371.57,210.053L2371.52,210.064L2371.46,210.077L2371.4,210.092L2371.34,210.109L2371.29,210.129L2371.23,210.151L2371.18,210.175L2371.12,210.201L2371.07,210.229L2371.01,210.259L2370.96,210.291L2370.91,210.325L2370.86,210.361L2370.81,210.4L2370.76,210.439L2370.71,210.481L2370.66,210.525L2370.61,210.57L2370.56,210.618L2370.51,210.667L2370.47,210.718L2370.42,210.771L2370.38,210.825L2370.34,210.881L2370.29,210.939L2370.25,210.997L2370.21,211.059L2370.17,211.121L2370.13,211.184L2370.09,211.25L2370.06,211.316L2370.02,211.385L2369.99,211.454L2369.95,211.525L2369.92,211.597L2369.89,211.671L2369.86,211.746L2369.83,211.821L2369.8,211.897L2369.77,211.977L2369.74,212.056L2369.72,212.136L2369.7,212.218L2369.67,212.3L2369.65,212.384L2369.63,212.469L2369.61,212.554L2369.6,212.641L2369.58,212.728L2369.56,212.816L2369.55,212.904L2369.54,212.995L2369.53,213.087L2369.52,213.178L2369.51,213.27L2369.5,213.363L2369.5,213.457L2369.49,213.552L2369.49,213.648L2369.49,213.748L2369.49,231.181L2369.49,231.281L2369.49,231.377L2369.5,231.472L2369.5,231.566L2369.51,231.659L2369.52,231.751L2369.53,231.842L2369.54,231.934L2369.55,232.025L2369.56,232.112L2369.58,232.201L2369.6,232.288L2369.61,232.375L2369.63,232.459L2369.65,232.545L2369.67,232.629L2369.7,232.711L2369.72,232.793L2369.74,232.873L2369.77,232.952L2369.8,233.031L2369.83,233.108L2369.86,233.183L2369.89,233.258L2369.92,233.332L2369.95,233.404L2369.99,233.475L2370.02,233.544L2370.06,233.613L2370.09,233.679L2370.13,233.744L2370.17,233.808L2370.21,233.87L2370.25,233.931L2370.29,233.991L2370.34,234.048L2370.38,234.104L2370.42,234.158L2370.47,234.211L2370.51,234.262L2370.56,234.311L2370.61,234.359L2370.66,234.403L2370.71,234.447L2370.76,234.49L2370.81,234.529L2370.86,234.567L2370.91,234.603L2370.96,234.638L2371.01,234.67L2371.07,234.7L2371.12,234.728L2371.18,234.754L2371.23,234.778L2371.29,234.8L2371.34,234.82L2371.4,234.837L2371.46,234.852L2371.52,234.865L2371.57,234.876L2371.63,234.884L2371.69,234.89L2371.75,234.894L2371.82,234.895L2417.18,234.895L2417.25,234.894L2417.31,234.89L2417.37,234.884L2417.43,234.876L2417.48,234.865L2417.54,234.852L2417.6,234.837L2417.66,234.82L2417.71,234.8L2417.77,234.778L2417.82,234.754L2417.88,234.728L2417.93,234.7L2417.99,234.67L2418.04,234.638L2418.09,234.603L2418.14,234.567L2418.19,234.53L2418.24,234.49L2418.29,234.447L2418.34,234.403L2418.39,234.358L2418.44,234.311L2418.49,234.262L2418.53,234.211L2418.58,234.158L2418.62,234.104L2418.66,234.048L2418.71,233.991L2418.75,233.931L2418.79,233.87L2418.83,233.808L2418.87,233.744L2418.91,233.679L2418.94,233.613L2418.98,233.544L2419.01,233.475L2419.05,233.404L2419.08,233.332L2419.11,233.258L2419.14,233.183L2419.17,233.108L2419.2,233.031L2419.23,232.952L2419.26,232.873L2419.28,232.793L2419.3,232.711L2419.33,232.629L2419.35,232.545L2419.37,232.459L2419.39,232.375L2419.41,232.288L2419.42,232.201L2419.44,232.114L2419.45,232.025L2419.46,231.932L2419.47,231.842L2419.48,231.751L2419.49,231.659L2419.5,231.566L2419.5,231.472L2419.51,231.377L2419.51,231.283L2419.51,231.182L2419.51,213.746L2419.51,213.646L2419.51,213.552L2419.5,213.457L2419.5,213.363L2419.49,213.27L2419.48,213.178L2419.47,213.087L2419.46,212.997L2419.45,212.904L2419.44,212.815L2419.42,212.728L2419.41,212.641L2419.39,212.554L2419.37,212.469L2419.35,212.384L2419.33,212.3L2419.3,212.218L2419.28,212.136L2419.26,212.056L2419.23,211.977L2419.2,211.897L2419.17,211.821L2419.14,211.746L2419.11,211.671L2419.08,211.597L2419.05,211.525L2419.01,211.454L2418.98,211.385L2418.94,211.316L2418.91,211.25L2418.87,211.185L2418.83,211.121L2418.79,211.058L2418.75,210.997L2418.71,210.939L2418.66,210.881L2418.62,210.825L2418.58,210.771L2418.53,210.718L2418.49,210.667L2418.44,210.618L2418.39,210.571L2418.34,210.525L2418.29,210.481L2418.24,210.439L2418.19,210.399L2418.14,210.361L2418.09,210.325L2418.04,210.291L2417.99,210.259L2417.93,210.229L2417.88,210.201L2417.82,210.175L2417.77,210.151L2417.71,210.129L2417.66,210.109L2417.6,210.092L2417.54,210.077L2417.48,210.064L2417.43,210.053L2417.37,210.045L2417.31,210.039L2417.25,210.035L2417.18,210.034L2371.82,210.034Z" style="fill:rgb(51,51,51);"/>
                        </g>
                    </g>
                </g>
                <g transform="matrix(0.785036,0,0,0.785036,-368.253,382.22)">
                    <text x="2362.83px" y="222.464px" style="font-family:'Roboto-Regular', 'Roboto';font-size:11.464px;fill:rgb(26,26,26);">St<tspan x="2373.26px 2379.8px 2383.57px " y="222.464px 222.464px 222.464px ">ore</tspan></text>
                </g>
            </g>
        </g>
    </g>
    <defs>
        <linearGradient id="_Linear2" x1="0" y1="0" x2="1" y2="0" gradientUnits="userSpaceOnUse" gradientTransform="matrix(1.6183e-15,26.4289,-26.4289,1.6183e-15,2394.5,209.25)"><stop offset="0" style="stop-color:rgb(230,230,230);stop-opacity:1"/><stop offset="1" style="stop-color:rgb(193,193,193);stop-opacity:1"/></linearGradient>
    </defs>
</svg>
