<?xml version="1.0" encoding="UTF-8" standalone="no"?>
<!DOCTYPE svg PUBLIC "-//W3C//DTD SVG 1.1//EN" "http://www.w3.org/Graphics/SVG/1.1/DTD/svg11.dtd">
<svg width="100%" height="100%" viewBox="0 0 75 39" version="1.1" xmlns="http://www.w3.org/2000/svg" xmlns:xlink="http://www.w3.org/1999/xlink" xml:space="preserve" xmlns:serif="http://www.serif.com/" style="fill-rule:evenodd;clip-rule:evenodd;stroke-linejoin:round;stroke-miterlimit:1.41421;">
    <g transform="matrix(1,0,0,1,-2320,-354)">
        <g id="bmp00122" transform="matrix(1,0,0,1,718.106,280.612)">
            <rect x="1601.89" y="73.388" width="75" height="39" style="fill:none;"/>
            <g id="Elmt:-Button-Off" serif:id="Elmt: Button Off">
                <g transform="matrix(0.442595,0,0,0.416212,604.784,0.295351)">
                    <g id="_123g" serif:id="123g">
                        <path id="_123g1" serif:id="123g" d="M2420,213.654C2420,211.223 2418.14,209.25 2415.86,209.25L2373.14,209.25C2370.86,209.25 2369,211.223 2369,213.654L2369,231.275C2369,233.706 2370.86,235.679 2373.14,235.679L2415.86,235.679C2418.14,235.679 2420,233.706 2420,231.275L2420,213.654Z" style="fill:url(#_Linear1);"/>
                    </g>
                </g>
                <g transform="matrix(0.442595,0,0,0.416212,604.784,-12.7046)">
                    <g id="_123g2" serif:id="123g">
                        <path id="_123g3" serif:id="123g" d="M2420,213.654C2420,211.223 2418.14,209.25 2415.86,209.25L2373.14,209.25C2370.86,209.25 2369,211.223 2369,213.654L2369,231.275C2369,233.706 2370.86,235.679 2373.14,235.679L2415.86,235.679C2418.14,235.679 2420,233.706 2420,231.275L2420,213.654Z" style="fill:url(#_Linear2);"/>
                    </g>
                </g>
                <g transform="matrix(0.442595,0,0,0.416212,579.585,-12.7046)">
                    <g id="_123g4" serif:id="123g">
                        <path id="_123g5" serif:id="123g" d="M2420,213.654C2420,211.223 2418.14,209.25 2415.86,209.25L2373.14,209.25C2370.86,209.25 2369,211.223 2369,213.654L2369,231.275C2369,233.706 2370.86,235.679 2373.14,235.679L2415.86,235.679C2418.14,235.679 2420,233.706 2420,231.275L2420,213.654Z" style="fill:url(#_Linear3);"/>
                    </g>
                </g>
                <g transform="matrix(0.442595,0,0,0.416212,579.585,13.2954)">
                    <g id="_123g6" serif:id="123g">
                        <path id="_123g7" serif:id="123g" d="M2420,213.654C2420,211.223 2418.14,209.25 2415.86,209.25L2373.14,209.25C2370.86,209.25 2369,211.223 2369,213.654L2369,231.275C2369,233.706 2370.86,235.679 2373.14,235.679L2415.86,235.679C2418.14,235.679 2420,233.706 2420,231.275L2420,213.654Z" style="fill:url(#_Linear4);"/>
                    </g>
                </g>
                <g transform="matrix(0.442595,0,0,0.416212,554.387,13.2954)">
                    <g id="_123g8" serif:id="123g">
                        <path id="_123g9" serif:id="123g" d="M2420,213.654C2420,211.223 2418.14,209.25 2415.86,209.25L2373.14,209.25C2370.86,209.25 2369,211.223 2369,213.654L2369,231.275C2369,233.706 2370.86,235.679 2373.14,235.679L2415.86,235.679C2418.14,235.679 2420,233.706 2420,231.275L2420,213.654Z" style="fill:url(#_Linear5);"/>
                    </g>
                </g>
                <g transform="matrix(0.442595,0,0,0.416212,554.387,0.295351)">
                    <g id="_123g10" serif:id="123g">
                        <path id="_123g11" serif:id="123g" d="M2420,213.654C2420,211.223 2418.14,209.25 2415.86,209.25L2373.14,209.25C2370.86,209.25 2369,211.223 2369,213.654L2369,231.275C2369,233.706 2370.86,235.679 2373.14,235.679L2415.86,235.679C2418.14,235.679 2420,233.706 2420,231.275L2420,213.654Z" style="fill:url(#_Linear6);"/>
                    </g>
                </g>
            </g>
            <g id="Elmt:-Button-On" serif:id="Elmt: Button On">
                <g transform="matrix(0.442595,0,0,0.416212,554.387,-12.7046)">
                    <g id="_123b" serif:id="123b">
                        <path id="_123b1" serif:id="123b" d="M2420,213.654C2420,211.223 2418.14,209.25 2415.86,209.25L2373.14,209.25C2370.86,209.25 2369,211.223 2369,213.654L2369,231.275C2369,233.706 2370.86,235.679 2373.14,235.679L2415.86,235.679C2418.14,235.679 2420,233.706 2420,231.275L2420,213.654Z" style="fill:url(#_Linear7);"/>
                    </g>
                </g>
                <g transform="matrix(0.442595,0,0,0.416212,579.585,0.295351)">
                    <g id="_123b2" serif:id="123b">
                        <path id="_123b3" serif:id="123b" d="M2420,213.654C2420,211.223 2418.14,209.25 2415.86,209.25L2373.14,209.25C2370.86,209.25 2369,211.223 2369,213.654L2369,231.275C2369,233.706 2370.86,235.679 2373.14,235.679L2415.86,235.679C2418.14,235.679 2420,233.706 2420,231.275L2420,213.654Z" style="fill:url(#_Linear8);"/>
                    </g>
                </g>
                <g transform="matrix(0.442595,0,0,0.416212,604.784,13.2954)">
                    <g id="_123b4" serif:id="123b">
                        <path id="_123b5" serif:id="123b" d="M2420,213.654C2420,211.223 2418.14,209.25 2415.86,209.25L2373.14,209.25C2370.86,209.25 2369,211.223 2369,213.654L2369,231.275C2369,233.706 2370.86,235.679 2373.14,235.679L2415.86,235.679C2418.14,235.679 2420,233.706 2420,231.275L2420,213.654Z" style="fill:url(#_Linear9);"/>
                    </g>
                </g>
            </g>
            <g id="Text:-Off" serif:id="Text: Off">
                <g transform="matrix(1,0,0,1,-397.343,-335.039)">
                    <text x="2009.47px" y="431.328px" style="font-family:'Lato-Regular', 'Lato', sans-serif;font-size:9px;fill:rgb(77,77,77);">1</text>
                </g>
                <g transform="matrix(1,0,0,1,-397.343,-322.01)">
                    <text x="2009.47px" y="431.328px" style="font-family:'Lato-Regular', 'Lato', sans-serif;font-size:9px;fill:rgb(77,77,77);">1</text>
                </g>
                <g transform="matrix(1,0,0,1,-372.736,-347.981)">
                    <text x="2009.47px" y="431.328px" style="font-family:'Lato-Regular', 'Lato', sans-serif;font-size:9px;fill:rgb(77,77,77);">2</text>
                </g>
                <g transform="matrix(1,0,0,1,-372.736,-321.981)">
                    <text x="2009.47px" y="431.328px" style="font-family:'Lato-Regular', 'Lato', sans-serif;font-size:9px;fill:rgb(77,77,77);">2</text>
                </g>
                <g transform="matrix(1,0,0,1,-347.412,-348.025)">
                    <text x="2009.47px" y="431.328px" style="font-family:'Lato-Regular', 'Lato', sans-serif;font-size:9px;fill:rgb(77,77,77);">3</text>
                </g>
                <g transform="matrix(1,0,0,1,-347.412,-335.055)">
                    <text x="2009.47px" y="431.328px" style="font-family:'Lato-Regular', 'Lato', sans-serif;font-size:9px;fill:rgb(77,77,77);">3</text>
                </g>
            </g>
            <g id="Text:-On" serif:id="Text: On">
                <g transform="matrix(1,0,0,1,-397.343,-348.01)">
                    <text x="2009.47px" y="431.328px" style="font-family:'Lato-Regular', 'Lato', sans-serif;font-size:9px;">1</text>
                </g>
                <g transform="matrix(1,0,0,1,-372.736,-335.011)">
                    <text x="2009.47px" y="431.328px" style="font-family:'Lato-Regular', 'Lato', sans-serif;font-size:9px;">2</text>
                </g>
                <g transform="matrix(1,0,0,1,-347.412,-322.025)">
                    <text x="2009.47px" y="431.328px" style="font-family:'Lato-Regular', 'Lato', sans-serif;font-size:9px;">3</text>
                </g>
            </g>
        </g>
    </g>
    <defs>
        <linearGradient id="_Linear1" x1="0" y1="0" x2="1" y2="0" gradientUnits="userSpaceOnUse" gradientTransform="matrix(1.52183e-15,26.4289,-24.8534,1.6183e-15,2394.5,209.25)"><stop offset="0" style="stop-color:rgb(230,230,230);stop-opacity:1"/><stop offset="1" style="stop-color:rgb(193,193,193);stop-opacity:1"/></linearGradient>
        <linearGradient id="_Linear2" x1="0" y1="0" x2="1" y2="0" gradientUnits="userSpaceOnUse" gradientTransform="matrix(1.52183e-15,26.4289,-24.8534,1.6183e-15,2394.5,209.25)"><stop offset="0" style="stop-color:rgb(230,230,230);stop-opacity:1"/><stop offset="1" style="stop-color:rgb(193,193,193);stop-opacity:1"/></linearGradient>
        <linearGradient id="_Linear3" x1="0" y1="0" x2="1" y2="0" gradientUnits="userSpaceOnUse" gradientTransform="matrix(1.52183e-15,26.4289,-24.8534,1.6183e-15,2394.5,209.25)"><stop offset="0" style="stop-color:rgb(230,230,230);stop-opacity:1"/><stop offset="1" style="stop-color:rgb(193,193,193);stop-opacity:1"/></linearGradient>
        <linearGradient id="_Linear4" x1="0" y1="0" x2="1" y2="0" gradientUnits="userSpaceOnUse" gradientTransform="matrix(1.52183e-15,26.4289,-24.8534,1.6183e-15,2394.5,209.25)"><stop offset="0" style="stop-color:rgb(230,230,230);stop-opacity:1"/><stop offset="1" style="stop-color:rgb(193,193,193);stop-opacity:1"/></linearGradient>
        <linearGradient id="_Linear5" x1="0" y1="0" x2="1" y2="0" gradientUnits="userSpaceOnUse" gradientTransform="matrix(1.52183e-15,26.4289,-24.8534,1.6183e-15,2394.5,209.25)"><stop offset="0" style="stop-color:rgb(230,230,230);stop-opacity:1"/><stop offset="1" style="stop-color:rgb(193,193,193);stop-opacity:1"/></linearGradient>
        <linearGradient id="_Linear6" x1="0" y1="0" x2="1" y2="0" gradientUnits="userSpaceOnUse" gradientTransform="matrix(1.52183e-15,26.4289,-24.8534,1.6183e-15,2394.5,209.25)"><stop offset="0" style="stop-color:rgb(230,230,230);stop-opacity:1"/><stop offset="1" style="stop-color:rgb(193,193,193);stop-opacity:1"/></linearGradient>
        <linearGradient id="_Linear7" x1="0" y1="0" x2="1" y2="0" gradientUnits="userSpaceOnUse" gradientTransform="matrix(7.8693e-16,-26.1538,12.8515,1.60146e-15,2394.82,235.404)"><stop offset="0" style="stop-color:rgb(242,142,13);stop-opacity:1"/><stop offset="1" style="stop-color:rgb(240,158,50);stop-opacity:1"/></linearGradient>
        <linearGradient id="_Linear8" x1="0" y1="0" x2="1" y2="0" gradientUnits="userSpaceOnUse" gradientTransform="matrix(7.8693e-16,-26.1538,12.8515,1.60146e-15,2394.82,235.404)"><stop offset="0" style="stop-color:rgb(242,142,13);stop-opacity:1"/><stop offset="1" style="stop-color:rgb(240,158,50);stop-opacity:1"/></linearGradient>
        <linearGradient id="_Linear9" x1="0" y1="0" x2="1" y2="0" gradientUnits="userSpaceOnUse" gradientTransform="matrix(7.8693e-16,-26.1538,12.8515,1.60146e-15,2394.82,235.404)"><stop offset="0" style="stop-color:rgb(242,142,13);stop-opacity:1"/><stop offset="1" style="stop-color:rgb(240,158,50);stop-opacity:1"/></linearGradient>
    </defs>
</svg>
