<?xml version="1.0" encoding="UTF-8" standalone="no"?>
<!DOCTYPE svg PUBLIC "-//W3C//DTD SVG 1.1//EN" "http://www.w3.org/Graphics/SVG/1.1/DTD/svg11.dtd">
<svg width="904px" height="542px" version="1.1" xmlns="http://www.w3.org/2000/svg" xmlns:xlink="http://www.w3.org/1999/xlink" xml:space="preserve" xmlns:serif="http://www.serif.com/" style="fill-rule:evenodd;clip-rule:evenodd;stroke-linejoin:round;stroke-miterlimit:1.41421;">
    <rect id="Master-Layout" serif:id="Master Layout" x="0" y="0" width="904" height="542" style="fill:none;"/>
    <rect id="oscSelect" x="68" y="69" width="75" height="13" style="fill:rgb(211,212,212);"/>
    <rect id="oscDisplay" x="6" y="81" width="136" height="99" style="fill:rgb(211,212,212);"/>
    <rect id="patchName" x="156" y="11" width="435" height="28" style="fill:rgb(211,212,212);"/>
    <rect id="sceneSelect" x="7" y="15" width="51" height="27" style="fill:rgb(211,212,212);"/>
    <rect id="sceneMode" x="62" y="15" width="36" height="27" style="fill:rgb(211,212,212);"/>
    <rect id="splitKey" x="99" y="12" width="43" height="14" style="fill:rgb(211,212,212);"/>
    <rect id="polyLimit" x="99" y="28" width="43" height="14" style="fill:rgb(211,212,212);"/>
    <rect id="bendDepthDown" x="163" y="112" width="24" height="10" style="fill:rgb(211,212,212);"/>
    <rect id="bendDepthUp" x="188" y="112" width="24" height="10" style="fill:rgb(211,212,212);"/>
    <rect id="polymode" x="239" y="87" width="50" height="47" style="fill:rgb(211,212,212);"/>
    <rect id="patchCategoryButtons" x="157" y="41" width="37" height="12" style="fill:rgb(211,212,212);"/>
    <rect id="patchButtons" x="242" y="41" width="37" height="12" style="fill:rgb(211,212,212);"/>
    <rect id="patchStore" x="554" y="41" width="37" height="12" style="fill:rgb(211,212,212);"/>
    <rect id="fxSelect" x="767" y="71" width="119" height="51" style="fill:rgb(211,212,212);"/>
    <rect id="masterVu" x="763" y="14" width="123" height="13" style="fill:rgb(211,212,212);"/>
    <rect id="masterVolume" x="756" y="27" width="140" height="26" style="fill:rgb(211,212,212);"/>
    <rect id="f1Reso" x="306" y="234" width="140" height="26" style="fill:rgb(211,212,212);"/>
    <rect id="f2Reso" x="606" y="234" width="140" height="26" style="fill:rgb(211,212,212);"/>
    <rect id="f1Cutoff" x="306" y="213" width="140" height="26" style="fill:rgb(211,212,212);"/>
    <rect id="filterBalance" x="456" y="224" width="140" height="26" style="fill:rgb(211,212,212);"/>
    <rect id="f1Cutoff1" serif:id="f1Cutoff" x="6" y="213" width="140" height="26" style="fill:rgb(211,212,212);"/>
    <rect id="f2Cutoff" x="606" y="211" width="140" height="26" style="fill:rgb(211,212,212);"/>
    <rect id="sceneSendFx2" x="606" y="162" width="140" height="26" style="fill:rgb(211,212,212);"/>
    <rect id="sceneSendFx1" x="606" y="141" width="140" height="26" style="fill:rgb(211,212,212);"/>
    <rect id="sceneWidth" x="606" y="120" width="140" height="26" style="fill:rgb(211,212,212);"/>
    <rect id="scenePan" x="606" y="99" width="140" height="26" style="fill:rgb(211,212,212);"/>
    <rect id="sceneVolume" x="606" y="78" width="140" height="26" style="fill:rgb(211,212,212);"/>
    <rect id="filterFeedback" x="456" y="162" width="140" height="26" style="fill:rgb(211,212,212);"/>
    <rect id="filterConfiguration" x="456" y="89" width="134" height="52" style="fill:rgb(211,212,212);"/>
    <rect id="oscFmAmount" x="306" y="162" width="140" height="26" style="fill:rgb(211,212,212);"/>
    <rect id="oscFmRouting" x="309" y="89" width="134" height="52" style="fill:rgb(211,212,212);"/>
    <rect id="fxBypass" x="607" y="9" width="135" height="27" style="fill:rgb(211,212,212);"/>
    <rect id="character" x="607" y="39" width="135" height="12" style="fill:rgb(211,212,212);"/>
</svg>
