<?xml version="1.0" encoding="utf-8"?>
<svg width="124" height="18" viewBox="0 0 124 18" fill="none" xmlns="http://www.w3.org/2000/svg">
  <path d="M 5.861 2.667 L 118.113 2.667 L 118.113 1.667 L 5.861 1.667 L 5.861 2.667 Z M 121.036 5.167 L 121.036 13.167 L 122.205 13.167 L 122.205 5.167 L 121.036 5.167 Z M 118.113 15.667 L 5.861 15.667 L 5.861 16.667 L 118.113 16.667 L 118.113 15.667 Z M 2.938 13.167 L 2.938 5.167 L 1.769 5.167 L 1.769 13.167 L 2.938 13.167 Z M 5.861 15.667 C 4.247 15.667 2.938 14.548 2.938 13.167 L 1.769 13.167 C 1.769 15.1 3.601 16.667 5.861 16.667 L 5.861 15.667 Z M 121.036 13.167 C 121.036 14.548 119.727 15.667 118.113 15.667 L 118.113 16.667 C 120.373 16.667 122.205 15.1 122.205 13.167 L 121.036 13.167 Z M 118.113 2.667 C 119.727 2.667 121.036 3.787 121.036 5.167 L 122.205 5.167 C 122.205 3.234 120.373 1.667 118.113 1.667 L 118.113 2.667 Z M 5.861 1.667 C 3.601 1.667 1.769 3.234 1.769 5.167 L 2.938 5.167 C 2.938 3.787 4.247 2.667 5.861 2.667 L 5.861 1.667 Z" fill="#FF00FF" style=""/>
  <path d="M 115.526 10.409 L 113.026 7.409 L 118.026 7.409 L 115.526 10.409 Z" fill="#FF00FF"/>
</svg>