<?xml version="1.0" encoding="utf-8"?>
<svg width="56px" height="48px" viewBox="0 0 56 48" version="1.1" xmlns="http://www.w3.org/2000/svg">
  <title>bmp00153</title>
  <desc>Created with Sketch.</desc>
  <g id="bmp00153" stroke="none" stroke-width="1" fill="none" fill-rule="evenodd">
    <circle style="fill: rgb(216, 216, 216); stroke: rgb(0, 255, 0);" cx="11.677" cy="8.64" r="5.812" transform="matrix(1.278088, 0, 0, 1, -3.366783, 0.153893)"/>
    <circle style="fill: rgb(216, 216, 255); stroke: rgb(255, 255, 0);" cx="11.677" cy="8.64" r="5.812" transform="matrix(1.278088, 0, 0, 1, 25.650875, -0.609455)"/>
    <circle style="fill: rgb(216, 216, 216); stroke: rgb(0, 255, 255);" cx="11.677" cy="8.64" r="5.812" transform="matrix(1.278088, 0, 0, 1, -3.086323, 25.274239)"/>
    <circle style="fill: rgb(216, 216, 255); stroke: rgb(255, 0, 0);" cx="11.677" cy="8.64" r="5.812" transform="matrix(1.278088, 0, 0, 1, 25.931335, 24.510891)"/>
  </g>
  <path fill="#A78E81" d="M 3.383 5.544 C 2.568 5.544 2.161 5.85 2.568 6.157 C 3.383 6.77 4.198 6.77 4.606 6.463 L 3.383 5.544 Z M 6.643 3.091 C 6.643 2.478 7.05 2.171 7.459 2.478 C 8.273 3.091 8.273 3.704 7.866 4.011 L 6.643 3.091 Z M 4.198 6.77 C 4.198 6.77 8.628 12.398 11.941 13.209 C 13.674 13.632 14.89 13.442 16.016 12.595 C 17.141 11.749 17.262 10.862 16.83 9.53 C 16.109 7.305 8.273 3.705 8.273 3.705 L 4.198 6.77 Z" style=""/>
  <path fill="#A78E81" d="M 10.508 12.633 C 12.701 14.723 15.065 15.677 15.932 15.175 C 16.773 14.688 15.764 14.17 14.805 12.463 C 13.802 10.678 9.35 11.528 10.508 12.633 Z M 16.065 8.429 C 18.842 10.078 20.109 11.883 19.441 12.535 C 18.793 13.168 18.105 12.409 15.838 11.687 C 13.464 10.932 14.597 7.558 16.065 8.429 Z" style=""/>
  <path fill="#846659" d="M 10.964 10.571 C 11.326 10.069 10.49 9.26 9.666 9.279 C 9.059 9.293 7.792 10.033 6.617 8.988 C 6.509 9.069 6.459 9.182 6.456 9.311 C 7.056 9.926 7.737 10.575 8.451 11.169 C 9.309 11.356 10.479 11.244 10.964 10.571 Z M 11.607 7.819 C 11.582 8.438 12.658 9.067 13.325 8.794 C 14.212 8.432 14.365 7.563 14.125 6.919 C 13.324 6.384 12.442 5.865 11.611 5.405 C 11.455 5.413 11.321 5.449 11.221 5.525 C 12.609 6.408 11.626 7.362 11.607 7.819 Z" style=""/>
  <path fill="#CAB8AC" d="M 9.063 8.751 C 9.886 8.732 10.724 9.542 10.361 10.043 C 9.781 10.847 8.218 10.856 7.386 10.504 C 6.458 10.111 5.452 8.883 6.015 8.459 C 7.189 9.504 8.455 8.765 9.063 8.751 Z M 10.905 7.365 C 10.879 7.985 11.956 8.614 12.623 8.342 C 13.69 7.904 13.703 6.729 13.235 6.103 C 12.713 5.405 11.081 4.648 10.518 5.071 C 11.906 5.955 10.924 6.908 10.905 7.365 Z" style=""/>
  <path fill="#A78E81" d="M 16.423 11.676 C 18.223 13.03 20.948 15.629 20.498 15.968 C 20.048 16.307 16.594 14.257 14.793 12.902 C 12.993 11.547 12.713 10.788 13.163 10.45 C 13.613 10.111 14.622 10.321 16.423 11.676 Z M 8.681 3.398 C 9.806 4.244 9.486 5.244 7.866 6.463 C 6.245 7.682 4.916 7.924 3.79 7.077 C 2.665 6.23 2.578 4.923 4.198 3.705 C 5.819 2.485 7.555 2.551 8.681 3.398 Z" style=""/>
  <path fill="#CAB8AC" d="M 9.269 3.841 C 9.903 4.317 10.301 5.858 8.681 7.077 C 7.06 8.296 5.013 7.996 4.379 7.52 C 3.378 6.768 5.013 5.544 5.828 4.931 C 6.643 4.317 8.269 3.088 9.269 3.841 Z" style=""/>
  <path fill="#292F33" d="M 7.05 4.624 C 7.5 4.962 7.5 5.512 7.05 5.85 C 6.601 6.188 5.87 6.188 5.42 5.85 C 4.971 5.512 5.378 5.269 5.829 4.931 C 6.278 4.592 6.601 4.286 7.05 4.624 Z" style=""/>
  <circle fill="#292F33" cx="4.74" cy="9.457" r="1.112" transform="matrix(0.51825, 0, 0, 0.389935, 2.149854, 2.162705)" style=""/>
  <circle fill="#292F33" cx="9.457" cy="4.74" r="1.112" transform="matrix(0.51825, 0, 0, 0.389935, 2.149854, 2.162705)" style=""/>
  <path fill="#A78E81" d="M 7.671 6.219 C 7.45 6.219 7.247 6.179 7.084 6.098 C 6.986 6.05 6.96 5.95 7.024 5.876 C 7.089 5.802 7.221 5.782 7.32 5.831 C 7.554 5.947 8.014 5.904 8.367 5.732 C 8.509 5.662 8.836 5.469 8.773 5.187 C 8.754 5.099 8.832 5.017 8.948 5.002 C 9.065 4.988 9.175 5.046 9.194 5.134 C 9.265 5.46 9.043 5.784 8.598 6.001 C 8.304 6.145 7.973 6.219 7.671 6.219 Z" style=""/>
  <path fill="#A78E81" d="M 6.259 7.473 C 6.207 7.473 6.152 7.47 6.099 7.463 C 5.983 7.448 5.904 7.366 5.924 7.278 C 5.944 7.191 6.054 7.133 6.169 7.147 C 6.543 7.194 6.802 6.948 6.894 6.84 C 7.122 6.575 7.181 6.229 7.025 6.053 C 6.96 5.979 6.986 5.88 7.085 5.831 C 7.183 5.782 7.315 5.802 7.38 5.876 C 7.634 6.164 7.581 6.632 7.251 7.015 C 6.999 7.308 6.637 7.473 6.259 7.473 Z" style=""/>
  <path fill="#846659" d="M 15.435 13.434 C 14.905 12.796 14.657 12.044 14.969 11.808 C 15.287 11.57 16.044 11.518 17.139 12.151 C 16.44 11.65 15.192 11.1 14.969 10.184 C 15.033 11.028 14.752 11.988 12.832 11.761 C 13.91 12 15.435 13.434 15.435 13.434 Z" style=""/>
  <g fill="#67757F" transform="matrix(0.51825, 0, 0, 0.389935, 2.149854, 2.162705)" style="">
    <path d="M2.928 15.73c-.028 0-.057-.002-.086-.008-.264-.047-.44-.3-.393-.564.407-2.269 1.793-3.891 3.707-4.338.261-.06.523.102.584.363.061.262-.101.523-.363.584-1.524.356-2.634 1.689-2.971 3.564-.042.233-.246.399-.478.399z"/>
    <path d="M5.072 15.974c-.253 0-.466-.195-.484-.451-.079-1.078.493-2.498 1.586-3.008.244-.113.533-.009.646.235.113.243.009.533-.235.646-.671.313-1.08 1.335-1.028 2.056.02.268-.181.501-.449.52-.013.002-.024.002-.036.002zm6.208-9.209c-.037 0-.074-.004-.111-.013-.262-.061-.424-.323-.363-.584.448-1.914 2.07-3.299 4.338-3.707.264-.047.517.129.564.393.047.264-.128.517-.393.564-1.875.337-3.207 1.447-3.564 2.971-.05.225-.25.376-.471.376z"/>
    <path d="M12.944 6.877c-.069 0-.139-.015-.205-.046-.244-.113-.348-.403-.235-.646.51-1.093 1.919-1.664 3.008-1.586.268.019.469.253.449.52-.019.267-.248.468-.52.449-.712-.048-1.742.357-2.056 1.028-.083.177-.258.281-.441.281z"/>
  </g>
  <path fill="#31373D" d="M 47.116 5.442 C 46.707 4.641 46.136 3.957 45.308 3.431 C 45.089 3.292 44.381 3.274 44.381 3.274 C 44.381 3.274 44.023 2.813 43.7 2.717 C 41.936 2.19 39.236 2.964 38.41 3.336 C 37.584 3.708 37.439 3.506 36.383 3.327 C 36.243 3.303 36.086 3.289 35.918 3.285 C 35.663 3.039 35.86 2.425 35.353 2.425 C 34.845 2.425 34.626 3.022 34.354 3.327 C 34.24 3.344 34.123 3.369 34.005 3.398 C 33.9 3.422 33.796 3.453 33.69 3.486 C 33.528 3.103 33.298 2.718 33.07 2.757 C 32.866 2.791 32.834 3.383 32.857 3.864 C 32.719 3.951 31.87 5.991 31.325 7.398 C 31.279 7.519 30.37 7.872 30.278 7.975 C 29.966 8.324 29.739 8.632 29.947 8.911 C 30.267 9.343 31.291 9.307 31.93 9.199 C 32.57 9.091 33.882 8.336 34.522 8.336 C 36.268 8.336 36.513 10.135 36.73 11.475 C 36.926 12.688 36.902 14.191 37.398 14.16 C 37.894 14.129 38.92 13.02 38.92 11.309 C 39.427 11.309 42.84 11.693 42.978 11.879 C 43.116 12.065 43.486 14.16 43.993 14.16 C 44.5 14.16 46.529 10.169 46.529 6.748 C 47.037 7.888 46.868 9.127 46.868 9.529 C 46.868 9.932 47.037 10.739 47.544 10.739 C 48.051 10.739 48.051 9.593 48.051 9.028 C 48.051 8.463 47.75 6.68 47.116 5.442 Z" style=""/>
  <path fill="#99AAB5" d="M 46.337 5.487 C 46.118 4.58 45.66 3.856 45.306 3.435 C 44.852 3.147 44.325 2.903 43.7 2.717 C 43.833 3.343 43.232 6.653 39.174 9.064 C 38.697 9.348 39.608 10.576 40.933 10.953 C 43.423 11.66 45.224 11.44 46.056 9.932 C 46.337 8.905 46.529 7.8 46.529 6.748 C 46.539 6.771 46.546 6.794 46.555 6.817 L 46.555 6.816 C 46.506 6.282 46.415 5.812 46.337 5.487 Z" style=""/>
  <path fill="#E1E8ED" d="M 32.304 6.178 C 32.736 4.837 33.123 4.022 34.354 3.327 C 33.731 3.422 33.046 3.643 32.452 4.158 C 31.044 5.381 31.61 6.322 30.811 7.365 C 30.644 7.582 30.449 7.784 30.279 7.974 C 31.184 7.888 31.874 7.512 32.304 6.178 Z M 38.186 4.006 C 36.916 4.512 35.172 5.77 34.291 6.602 C 33.086 7.74 32.101 8.158 31.596 8.458 C 30.768 8.95 31.979 9.129 33.34 8.458 C 34.409 7.931 36.353 7.022 37.842 7.033 C 41.12 7.056 42.725 4.016 43.7 2.717 C 41.776 2.526 39.56 3.458 38.186 4.006 Z" style=""/>
  <circle fill="#E1E8ED" cx="7" cy="21" r="1" transform="matrix(0.507295, 0, 0, 0.570166, 29.788441, -6.366347)" style=""/>
  <path fill="#31373D" d="M 47.659 30.344 C 47.25 29.543 46.679 28.859 45.851 28.333 C 45.632 28.194 44.924 28.176 44.924 28.176 C 44.924 28.176 44.566 27.715 44.243 27.619 C 42.479 27.092 39.779 27.866 38.953 28.238 C 38.127 28.61 37.982 28.408 36.926 28.229 C 36.786 28.205 36.629 28.191 36.461 28.187 C 36.206 27.941 36.403 27.327 35.896 27.327 C 35.388 27.327 35.169 27.924 34.897 28.229 C 34.783 28.246 34.666 28.271 34.548 28.3 C 34.443 28.324 34.339 28.355 34.233 28.388 C 34.071 28.005 33.841 27.62 33.613 27.659 C 33.409 27.693 33.377 28.285 33.4 28.766 C 33.262 28.853 32.413 30.893 31.868 32.3 C 31.822 32.421 30.913 32.774 30.821 32.877 C 30.509 33.226 30.282 33.534 30.49 33.813 C 30.81 34.245 31.834 34.209 32.473 34.101 C 33.113 33.993 34.425 33.238 35.065 33.238 C 36.811 33.238 37.056 35.037 37.273 36.377 C 37.469 37.59 37.445 39.093 37.941 39.062 C 38.437 39.031 39.463 37.922 39.463 36.211 C 39.97 36.211 43.383 36.595 43.521 36.781 C 43.659 36.967 44.029 39.062 44.536 39.062 C 45.043 39.062 47.072 35.071 47.072 31.65 C 47.58 32.79 47.411 34.029 47.411 34.431 C 47.411 34.834 47.58 35.641 48.087 35.641 C 48.594 35.641 48.594 34.495 48.594 33.93 C 48.594 33.365 48.293 31.582 47.659 30.344 Z" style=""/>
  <path fill="#99AAB5" d="M 46.88 30.389 C 46.661 29.482 46.203 28.758 45.849 28.337 C 45.395 28.049 44.868 27.805 44.243 27.619 C 44.376 28.245 43.775 31.555 39.717 33.966 C 39.24 34.25 40.151 35.478 41.476 35.855 C 43.966 36.562 45.767 36.342 46.599 34.834 C 46.88 33.807 47.072 32.702 47.072 31.65 C 47.082 31.673 47.089 31.696 47.098 31.719 L 47.098 31.718 C 47.049 31.184 46.958 30.714 46.88 30.389 Z" style=""/>
  <path fill="#E1E8ED" d="M 32.847 31.08 C 33.279 29.739 33.666 28.924 34.897 28.229 C 34.274 28.324 33.589 28.545 32.995 29.06 C 31.587 30.283 32.153 31.224 31.354 32.267 C 31.187 32.484 30.992 32.686 30.822 32.876 C 31.727 32.79 32.417 32.414 32.847 31.08 Z M 38.729 28.908 C 37.459 29.414 35.715 30.672 34.834 31.504 C 33.629 32.642 32.644 33.06 32.139 33.36 C 31.311 33.852 32.522 34.031 33.883 33.36 C 34.952 32.833 36.896 31.924 38.385 31.935 C 41.663 31.958 43.268 28.918 44.243 27.619 C 42.319 27.428 40.103 28.36 38.729 28.908 Z" style=""/>
  <circle fill="#E1E8ED" cx="7" cy="21" r="1" transform="matrix(0.507295, 0, 0, 0.570166, 30.331854, 18.535872)" style=""/>
  <path fill="#A78E81" d="M 3.424 29.841 C 2.609 29.841 2.202 30.147 2.609 30.454 C 3.424 31.067 4.239 31.067 4.647 30.76 L 3.424 29.841 Z M 6.684 27.388 C 6.684 26.775 7.091 26.468 7.5 26.775 C 8.314 27.388 8.314 28.001 7.907 28.308 L 6.684 27.388 Z M 4.239 31.067 C 4.239 31.067 8.669 36.695 11.982 37.506 C 13.715 37.929 14.931 37.739 16.057 36.892 C 17.182 36.046 17.303 35.159 16.871 33.827 C 16.15 31.602 8.314 28.002 8.314 28.002 L 4.239 31.067 Z" style=""/>
  <path fill="#A78E81" d="M 10.549 36.93 C 12.742 39.02 15.106 39.974 15.973 39.472 C 16.814 38.985 15.805 38.467 14.846 36.76 C 13.843 34.975 9.391 35.825 10.549 36.93 Z M 16.106 32.726 C 18.883 34.375 20.15 36.18 19.482 36.832 C 18.834 37.465 18.146 36.706 15.879 35.984 C 13.505 35.229 14.638 31.855 16.106 32.726 Z" style=""/>
  <path fill="#846659" d="M 11.005 34.868 C 11.367 34.366 10.531 33.557 9.707 33.576 C 9.1 33.59 7.833 34.33 6.658 33.285 C 6.55 33.366 6.5 33.479 6.497 33.608 C 7.097 34.223 7.778 34.872 8.492 35.466 C 9.35 35.653 10.52 35.541 11.005 34.868 Z M 11.648 32.116 C 11.623 32.735 12.699 33.364 13.366 33.091 C 14.253 32.729 14.406 31.86 14.166 31.216 C 13.365 30.681 12.483 30.162 11.652 29.702 C 11.496 29.71 11.362 29.746 11.262 29.822 C 12.65 30.705 11.667 31.659 11.648 32.116 Z" style=""/>
  <path fill="#CAB8AC" d="M 9.104 33.048 C 9.927 33.029 10.765 33.839 10.402 34.34 C 9.822 35.144 8.259 35.153 7.427 34.801 C 6.499 34.408 5.493 33.18 6.056 32.756 C 7.23 33.801 8.496 33.062 9.104 33.048 Z M 10.946 31.662 C 10.92 32.282 11.997 32.911 12.664 32.639 C 13.731 32.201 13.744 31.026 13.276 30.4 C 12.754 29.702 11.122 28.945 10.559 29.368 C 11.947 30.252 10.965 31.205 10.946 31.662 Z" style=""/>
  <path fill="#A78E81" d="M 16.464 35.973 C 18.264 37.327 20.989 39.926 20.539 40.265 C 20.089 40.604 16.635 38.554 14.834 37.199 C 13.034 35.844 12.754 35.085 13.204 34.747 C 13.654 34.408 14.663 34.618 16.464 35.973 Z M 8.722 27.695 C 9.847 28.541 9.527 29.541 7.907 30.76 C 6.286 31.979 4.957 32.221 3.831 31.374 C 2.706 30.527 2.619 29.22 4.239 28.002 C 5.86 26.782 7.596 26.848 8.722 27.695 Z" style=""/>
  <path fill="#CAB8AC" d="M 9.31 28.138 C 9.944 28.614 10.342 30.155 8.722 31.374 C 7.101 32.593 5.054 32.293 4.42 31.817 C 3.419 31.065 5.054 29.841 5.869 29.228 C 6.684 28.614 8.31 27.385 9.31 28.138 Z" style=""/>
  <path fill="#292F33" d="M 7.091 28.921 C 7.541 29.259 7.541 29.809 7.091 30.147 C 6.642 30.485 5.911 30.485 5.461 30.147 C 5.012 29.809 5.419 29.566 5.87 29.228 C 6.319 28.889 6.642 28.583 7.091 28.921 Z" style=""/>
  <circle fill="#292F33" cx="4.74" cy="9.457" r="1.112" transform="matrix(0.51825, 0, 0, 0.389935, 2.190898, 26.459227)" style=""/>
  <circle fill="#292F33" cx="9.457" cy="4.74" r="1.112" transform="matrix(0.51825, 0, 0, 0.389935, 2.190898, 26.459227)" style=""/>
  <path fill="#A78E81" d="M 7.712 30.516 C 7.491 30.516 7.288 30.476 7.125 30.395 C 7.027 30.347 7.001 30.247 7.065 30.173 C 7.13 30.099 7.262 30.079 7.361 30.128 C 7.595 30.244 8.055 30.201 8.408 30.029 C 8.55 29.959 8.877 29.766 8.814 29.484 C 8.795 29.396 8.873 29.314 8.989 29.299 C 9.106 29.285 9.216 29.343 9.235 29.431 C 9.306 29.757 9.084 30.081 8.639 30.298 C 8.345 30.442 8.014 30.516 7.712 30.516 Z" style=""/>
  <path fill="#A78E81" d="M 6.3 31.77 C 6.248 31.77 6.193 31.767 6.14 31.76 C 6.024 31.745 5.945 31.663 5.965 31.575 C 5.985 31.488 6.095 31.43 6.21 31.444 C 6.584 31.491 6.843 31.245 6.935 31.137 C 7.163 30.872 7.222 30.526 7.066 30.35 C 7.001 30.276 7.027 30.177 7.126 30.128 C 7.224 30.079 7.356 30.099 7.421 30.173 C 7.675 30.461 7.622 30.929 7.292 31.312 C 7.04 31.605 6.678 31.77 6.3 31.77 Z" style=""/>
  <path fill="#846659" d="M 15.476 37.731 C 14.946 37.093 14.698 36.341 15.01 36.105 C 15.328 35.867 16.085 35.815 17.18 36.448 C 16.481 35.947 15.233 35.397 15.01 34.481 C 15.074 35.325 14.793 36.285 12.873 36.058 C 13.951 36.297 15.476 37.731 15.476 37.731 Z" style=""/>
  <g fill="#67757F" transform="matrix(0.51825, 0, 0, 0.389935, 2.190898, 26.459227)" style="">
    <path d="M2.928 15.73c-.028 0-.057-.002-.086-.008-.264-.047-.44-.3-.393-.564.407-2.269 1.793-3.891 3.707-4.338.261-.06.523.102.584.363.061.262-.101.523-.363.584-1.524.356-2.634 1.689-2.971 3.564-.042.233-.246.399-.478.399z"/>
    <path d="M5.072 15.974c-.253 0-.466-.195-.484-.451-.079-1.078.493-2.498 1.586-3.008.244-.113.533-.009.646.235.113.243.009.533-.235.646-.671.313-1.08 1.335-1.028 2.056.02.268-.181.501-.449.52-.013.002-.024.002-.036.002zm6.208-9.209c-.037 0-.074-.004-.111-.013-.262-.061-.424-.323-.363-.584.448-1.914 2.07-3.299 4.338-3.707.264-.047.517.129.564.393.047.264-.128.517-.393.564-1.875.337-3.207 1.447-3.564 2.971-.05.225-.25.376-.471.376z"/>
    <path d="M12.944 6.877c-.069 0-.139-.015-.205-.046-.244-.113-.348-.403-.235-.646.51-1.093 1.919-1.664 3.008-1.586.268.019.469.253.449.52-.019.267-.248.468-.52.449-.712-.048-1.742.357-2.056 1.028-.083.177-.258.281-.441.281z"/>
  </g>
</svg>