<?xml version="1.0" encoding="utf-8"?>
<svg width="40" height="84" viewBox="0 0 40 84" fill="none" xmlns="http://www.w3.org/2000/svg">
  <path d="M0.5 3.5C0.5 1.84315 1.84315 0.5 3.5 0.5H36.5C38.1569 0.5 39.5 1.84315 39.5 3.5V38.5C39.5 40.1569 38.1569 41.5 36.5 41.5H3.5C1.84315 41.5 0.5 40.1569 0.5 38.5V3.5Z" fill="#E3E3E3"/>
  <rect x="2.58063" y="2.38043" width="34.8387" height="16.7391" rx="1" fill="#00FFFF"/>
  <rect x="2.58063" y="2.38043" width="34.8387" height="16.7391" rx="1" stroke="#FF9300"/>
  <path opacity="0.5" d="M38 20.5H2V21.5H38V20.5Z" fill="#979797"/>
  <path d="M3.5 1H36.5V0H3.5V1ZM39 3.5V38.5H40V3.5H39ZM36.5 41H3.5V42H36.5V41ZM1 38.5V3.5H0V38.5H1ZM3.5 41C2.11929 41 1 39.8807 1 38.5H0C0 40.433 1.567 42 3.5 42V41ZM39 38.5C39 39.8807 37.8807 41 36.5 41V42C38.433 42 40 40.433 40 38.5H39ZM36.5 1C37.8807 1 39 2.11929 39 3.5H40C40 1.567 38.433 0 36.5 0V1ZM3.5 0C1.567 0 0 1.567 0 3.5H1C1 2.11929 2.11929 1 3.5 1V0Z" fill="#979797"/>
  <path d="M0.5 45.5C0.5 43.8431 1.84315 42.5 3.5 42.5H36.5C38.1569 42.5 39.5 43.8431 39.5 45.5V80.5C39.5 82.1569 38.1569 83.5 36.5 83.5H3.5C1.84315 83.5 0.5 82.1569 0.5 80.5V45.5Z" fill="#E3E3E3"/>
  <path opacity="0.5" d="M38 62.5H2V63.5H38V62.5Z" fill="#979797"/>
  <rect x="2.58063" y="64.8804" width="34.8387" height="16.7391" rx="1" fill="#FF9300"/>
  <rect x="2.58063" y="64.8804" width="34.8387" height="16.7391" rx="1" stroke="#00FFFF"/>
  <path d="M3.5 43H36.5V42H3.5V43ZM39 45.5V80.5H40V45.5H39ZM36.5 83H3.5V84H36.5V83ZM1 80.5V45.5H0V80.5H1ZM3.5 83C2.11929 83 1 81.8807 1 80.5H0C0 82.433 1.567 84 3.5 84V83ZM39 80.5C39 81.8807 37.8807 83 36.5 83V84C38.433 84 40 82.433 40 80.5H39ZM36.5 43C37.8807 43 39 44.1193 39 45.5H40C40 43.567 38.433 42 36.5 42V43ZM3.5 42C1.567 42 0 43.567 0 45.5H1C1 44.1193 2.11929 43 3.5 43V42Z" fill="#979797"/>
  <path fill="#77B255" d="M 21.785 6.231 C 20.538 6.231 20.538 6.592 19.291 6.592 C 18.043 6.592 18.043 6.231 16.796 6.231 C 15.133 6.231 13.054 6.953 13.054 9.481 C 13.054 13.453 15.549 16.702 17.212 16.702 C 18.459 16.702 18.459 16.341 19.291 16.341 C 20.122 16.341 20.122 16.702 21.369 16.702 C 23.032 16.702 25.526 13.453 25.526 9.481 C 25.526 6.953 23.448 6.231 21.785 6.231 Z" style=""/>
  <path fill="#3E721D" d="M 19.004 6.549 C 19.004 6.549 18.266 4.861 16.268 4.361 C 14.67 3.961 13.641 4.455 13.641 4.455 C 13.641 4.455 14.894 5.896 16.092 6.196 C 17.29 6.496 19.004 6.549 19.004 6.549 Z" style=""/>
  <path fill="#662113" d="M 19.291 7.315 C 19.061 7.315 18.875 7.152 18.875 6.953 C 18.875 5.711 19.373 4.565 20.243 3.81 C 20.406 3.669 20.669 3.669 20.832 3.81 C 20.994 3.951 20.994 4.179 20.832 4.32 C 20.116 4.941 19.706 5.901 19.706 6.953 C 19.706 7.152 19.52 7.315 19.291 7.315 Z" style=""/>
  <path fill="#77B255" d="M 21.587 47.541 C 20.34 47.541 20.34 47.902 19.093 47.902 C 17.845 47.902 17.845 47.541 16.598 47.541 C 14.935 47.541 12.856 48.263 12.856 50.791 C 12.856 54.763 15.351 58.012 17.014 58.012 C 18.261 58.012 18.261 57.651 19.093 57.651 C 19.924 57.651 19.924 58.012 21.171 58.012 C 22.834 58.012 25.328 54.763 25.328 50.791 C 25.328 48.263 23.25 47.541 21.587 47.541 Z" style=""/>
  <path fill="#3E721D" d="M 18.806 47.859 C 18.806 47.859 18.068 46.171 16.07 45.671 C 14.472 45.271 13.443 45.765 13.443 45.765 C 13.443 45.765 14.696 47.206 15.894 47.506 C 17.092 47.806 18.806 47.859 18.806 47.859 Z" style=""/>
  <path fill="#662113" d="M 19.093 48.625 C 18.863 48.625 18.677 48.462 18.677 48.263 C 18.677 47.021 19.175 45.875 20.045 45.12 C 20.208 44.979 20.471 44.979 20.634 45.12 C 20.796 45.261 20.796 45.489 20.634 45.63 C 19.918 46.251 19.508 47.211 19.508 48.263 C 19.508 48.462 19.322 48.625 19.093 48.625 Z" style=""/>
  <path fill="#31373D" d="M 23.94 33.072 C 24.059 32.547 24.125 32.012 24.125 31.488 C 24.125 29.587 23.279 28.39 22.028 27.816 C 22.195 27.355 22.293 26.853 22.293 26.353 C 22.293 25.63 22.095 25.212 21.768 24.968 C 22.204 24.747 22.773 24.282 22.976 24.048 C 23.288 23.692 23.351 23.185 23.117 22.917 C 22.884 22.65 22.442 22.722 22.13 23.079 C 21.886 23.358 21.353 24.235 21.243 24.733 C 20.89 24.644 20.473 24.632 20.024 24.632 C 19.575 24.632 19.157 24.644 18.806 24.732 C 18.695 24.234 18.162 23.358 17.918 23.078 C 17.607 22.722 17.165 22.649 16.931 22.917 C 16.698 23.185 16.761 23.691 17.073 24.048 C 17.276 24.282 17.845 24.747 18.28 24.968 C 17.952 25.211 17.755 25.63 17.755 26.353 C 17.755 26.853 17.854 27.355 18.02 27.816 C 16.769 28.39 15.923 29.587 15.923 31.488 C 15.923 32.012 15.99 32.547 16.108 33.072 L 16.108 33.082 L 16.111 33.081 C 16.593 35.193 17.962 37.124 19.626 37.396 L 19.625 37.43 C 19.625 38.188 19.804 38.801 20.024 38.801 C 20.245 38.801 20.423 38.188 20.423 37.43 C 20.423 37.419 20.423 37.408 20.422 37.396 C 22.085 37.125 23.456 35.194 23.938 33.081 L 23.94 33.083 L 23.94 33.072 Z" style=""/>
  <path d="M 18.678 31.031 L 21.371 31.031 C 20.788 30.38 20.328 29.715 20.132 29.203 L 19.917 29.203 C 19.721 29.715 19.261 30.38 18.678 31.031 Z M 16.532 32.86 C 16.388 32.945 16.246 33.019 16.108 33.083 C 16.236 33.64 16.427 34.183 16.667 34.688 L 23.381 34.688 C 23.621 34.183 23.812 33.64 23.94 33.083 C 23.801 33.019 23.661 32.945 23.516 32.86 L 16.532 32.86 Z M 17.965 36.516 C 18.571 37.08 19.273 37.43 20.024 37.43 C 20.776 37.43 21.478 37.08 22.084 36.516 L 17.965 36.516 Z" fill="#FFCC4D" style=""/>
  <path fill="#CCD6DD" d="M 20.024 28.52 C 20.024 29.73 16.89 32.443 15.237 32.443 C 13.585 32.443 12.843 31.327 12.843 30.117 C 12.843 28.907 13.585 28.063 15.237 28.063 C 16.89 28.063 20.024 27.311 20.024 28.52 Z M 20.024 28.52 C 20.024 29.73 23.158 32.443 24.811 32.443 C 26.464 32.443 27.205 31.327 27.205 30.117 C 27.205 28.907 26.464 28.063 24.811 28.063 C 23.158 28.063 20.024 27.311 20.024 28.52 Z" style=""/>
  <path fill="#99AAB5" d="M 13.641 31.031 C 13.421 31.031 13.242 30.827 13.242 30.574 C 13.242 30.322 13.42 30.118 13.64 30.117 C 13.66 30.117 15.615 30.085 19.064 28.329 C 19.266 28.225 19.501 28.329 19.591 28.56 C 19.68 28.79 19.59 29.061 19.389 29.164 C 15.762 31.01 13.726 31.031 13.641 31.031 Z M 26.407 31.031 C 26.322 31.031 24.286 31.01 20.66 29.164 C 20.458 29.062 20.368 28.791 20.457 28.56 C 20.547 28.33 20.784 28.226 20.984 28.329 C 24.433 30.085 26.389 30.117 26.408 30.117 C 26.628 30.119 26.805 30.323 26.805 30.575 C 26.805 30.827 26.627 31.031 26.407 31.031 Z" style=""/>
  <path fill="#31373D" d="M 23.52 75.186 C 23.632 74.709 23.694 74.222 23.694 73.746 C 23.694 72.017 22.899 70.929 21.726 70.406 C 21.882 69.988 21.975 69.531 21.975 69.077 C 21.975 68.42 21.789 68.039 21.483 67.817 C 21.891 67.617 22.424 67.193 22.615 66.981 C 22.908 66.657 22.968 66.196 22.748 65.952 C 22.529 65.709 22.114 65.775 21.822 66.1 C 21.593 66.354 21.093 67.151 20.99 67.604 C 20.66 67.523 20.268 67.512 19.847 67.512 C 19.425 67.512 19.033 67.523 18.704 67.604 C 18.601 67.151 18.1 66.354 17.871 66.1 C 17.579 65.775 17.165 65.709 16.945 65.952 C 16.726 66.196 16.786 66.657 17.078 66.981 C 17.269 67.193 17.803 67.617 18.211 67.817 C 17.904 68.039 17.718 68.42 17.718 69.077 C 17.718 69.531 17.811 69.988 17.967 70.406 C 16.794 70.929 15.999 72.017 15.999 73.746 C 15.999 74.222 16.062 74.709 16.174 75.186 L 16.174 75.196 L 16.176 75.194 C 16.628 77.114 17.914 78.871 19.473 79.117 L 19.472 79.149 C 19.472 79.837 19.64 80.395 19.847 80.395 C 20.053 80.395 20.221 79.837 20.221 79.149 C 20.221 79.137 20.22 79.128 20.22 79.117 C 21.779 78.871 23.065 77.114 23.517 75.195 L 23.52 75.196 L 23.52 75.186 Z" style=""/>
  <path d="M 18.583 73.33 L 21.11 73.33 C 20.563 72.738 20.132 72.133 19.948 71.668 L 19.745 71.668 C 19.562 72.133 19.131 72.738 18.583 73.33 Z M 16.571 74.993 C 16.436 75.07 16.304 75.138 16.174 75.196 C 16.294 75.702 16.472 76.196 16.698 76.655 L 22.996 76.655 C 23.221 76.196 23.4 75.702 23.52 75.196 C 23.389 75.138 23.257 75.07 23.122 74.993 L 16.571 74.993 Z M 17.915 78.317 C 18.484 78.83 19.142 79.149 19.847 79.149 C 20.551 79.149 21.21 78.83 21.778 78.317 L 17.915 78.317 Z" fill="#FFCC4D" style=""/>
  <path fill="#CCD6DD" d="M 19.847 71.047 C 19.847 72.147 16.906 74.614 15.357 74.614 C 13.806 74.614 13.111 73.599 13.111 72.499 C 13.111 71.399 13.806 70.631 15.357 70.631 C 16.906 70.631 19.847 69.948 19.847 71.047 Z M 19.847 71.047 C 19.847 72.147 22.786 74.614 24.337 74.614 C 25.886 74.614 26.582 73.599 26.582 72.499 C 26.582 71.399 25.886 70.631 24.337 70.631 C 22.786 70.631 19.847 69.948 19.847 71.047 Z" style=""/>
  <path fill="#99AAB5" d="M 13.86 73.33 C 13.653 73.33 13.486 73.144 13.486 72.915 C 13.486 72.686 13.652 72.5 13.859 72.499 C 13.877 72.499 15.711 72.47 18.946 70.873 C 19.135 70.778 19.357 70.874 19.441 71.083 C 19.524 71.293 19.439 71.539 19.251 71.632 C 15.85 73.311 13.94 73.33 13.86 73.33 Z M 25.833 73.33 C 25.754 73.33 23.844 73.311 20.443 71.632 C 20.254 71.539 20.169 71.294 20.253 71.083 C 20.337 70.875 20.559 70.78 20.747 70.873 C 23.983 72.47 25.816 72.499 25.834 72.499 C 26.04 72.501 26.207 72.687 26.207 72.916 C 26.206 73.145 26.04 73.33 25.833 73.33 Z" style=""/>
</svg>