<?xml version="1.0" encoding="utf-8"?>
<svg width="51px" height="54px" viewBox="0 0 51 54" version="1.1" xmlns="http://www.w3.org/2000/svg">
  <g id="bmp00113" stroke="none" stroke-width="1" fill="none" fill-rule="evenodd">
    <rect id="Rectangle" stroke="#979797" fill="#E3E3E3" x="0.5" y="0.5" width="50" height="26" rx="5"/>
    <rect id="Rectangle" stroke="#979797" fill="#E3E3E3" x="0.5" y="27.5" width="50" height="26" rx="5"/>
    <rect id="Rectangle" fill="#AAFFAA" x="4" y="4" width="18" height="19" rx="2"/>
    <rect id="Rectangle" fill="#AAFFAA" x="29" y="31" width="18" height="19" rx="2"/>
    <rect id="Rectangle" fill="#979797" x="25" y="2" width="1" height="23"/>
    <rect id="Rectangle" fill="#979797" x="25" y="29" width="1" height="23"/>
    <path d="M 15.177 15.585 L 15.177 13.545 L 12.237 13.525 L 11.607 15.895 C 11.467 16.428 11.33 16.868 11.197 17.215 C 11.07 17.555 10.9 17.905 10.687 18.265 C 10.234 18.972 9.57 19.325 8.697 19.325 L 8.697 19.155 C 9.397 19.155 9.944 18.918 10.337 18.445 C 10.724 17.978 11.034 17.335 11.267 16.515 L 11.407 16.215 L 11.387 16.205 C 11.067 16.912 10.56 17.265 9.867 17.265 C 9.414 17.265 9.037 17.112 8.737 16.805 C 8.437 16.498 8.287 16.112 8.287 15.645 C 8.287 14.125 9.557 13.365 12.097 13.365 L 13.497 8.065 L 13.067 8.055 C 13.027 8.055 12.987 8.055 12.947 8.055 C 12.434 8.055 12.02 8.175 11.707 8.415 C 11.387 8.648 11.227 8.962 11.227 9.355 C 11.227 9.542 11.257 9.695 11.317 9.815 L 11.197 9.905 C 11.097 9.792 11.047 9.598 11.047 9.325 C 11.047 9.045 11.144 8.782 11.337 8.535 C 11.537 8.288 11.79 8.125 12.097 8.045 C 12.184 8.025 12.29 8.005 12.417 7.985 L 12.417 7.955 L 12.097 7.975 C 11.204 7.862 10.477 7.605 9.917 7.205 C 9.357 6.812 9.077 6.242 9.077 5.495 L 9.237 5.475 C 9.237 5.908 9.347 6.282 9.567 6.595 C 9.78 6.908 10.074 7.152 10.447 7.325 C 11.154 7.665 11.994 7.852 12.967 7.885 L 15.377 7.995 L 15.377 15.585 C 15.377 16.145 15.274 16.565 15.067 16.845 C 14.86 17.118 14.51 17.255 14.017 17.255 C 13.764 17.255 13.554 17.225 13.387 17.165 L 13.417 17.025 C 13.617 17.072 13.804 17.095 13.977 17.095 C 14.444 17.095 14.76 16.975 14.927 16.735 C 15.094 16.495 15.177 16.112 15.177 15.585 Z M 12.277 13.365 L 12.947 13.365 L 15.177 13.375 L 15.177 8.155 L 13.677 8.085 L 12.277 13.365 Z M 8.487 15.645 C 8.487 16.052 8.617 16.395 8.877 16.675 C 9.137 16.955 9.467 17.095 9.867 17.095 C 10.514 17.095 10.99 16.755 11.297 16.075 C 11.464 15.695 11.61 15.248 11.737 14.735 L 12.057 13.525 C 9.677 13.545 8.487 14.252 8.487 15.645 Z M 15.737 15.585 L 15.737 8.615 C 15.737 8.055 15.84 7.638 16.047 7.365 C 16.254 7.085 16.604 6.945 17.097 6.945 C 17.35 6.945 17.56 6.975 17.727 7.035 L 17.697 7.175 C 17.49 7.128 17.304 7.105 17.137 7.105 C 16.67 7.105 16.354 7.225 16.187 7.465 C 16.02 7.712 15.937 8.095 15.937 8.615 L 15.937 15.585 C 15.937 16.112 16.02 16.495 16.187 16.735 C 16.354 16.975 16.67 17.095 17.137 17.095 C 17.304 17.095 17.49 17.072 17.697 17.025 L 17.727 17.165 C 17.56 17.225 17.35 17.255 17.097 17.255 C 16.604 17.255 16.254 17.118 16.047 16.845 C 15.84 16.565 15.737 16.145 15.737 15.585 Z" transform="matrix(1, 0, 0, 1, 0, 0)" style="fill: rgb(51, 51, 51); white-space: pre;"/>
    <path d="M 14.517 43.404 L 14.517 41.364 L 11.577 41.344 L 10.947 43.714 C 10.807 44.247 10.67 44.687 10.537 45.034 C 10.41 45.374 10.24 45.724 10.027 46.084 C 9.574 46.791 8.91 47.144 8.037 47.144 L 8.037 46.974 C 8.737 46.974 9.284 46.737 9.677 46.264 C 10.064 45.797 10.374 45.154 10.607 44.334 L 10.747 44.034 L 10.727 44.024 C 10.407 44.731 9.9 45.084 9.207 45.084 C 8.754 45.084 8.377 44.931 8.077 44.624 C 7.777 44.317 7.627 43.931 7.627 43.464 C 7.627 41.944 8.897 41.184 11.437 41.184 L 12.837 35.884 L 12.407 35.874 C 12.367 35.874 12.327 35.874 12.287 35.874 C 11.774 35.874 11.36 35.994 11.047 36.234 C 10.727 36.467 10.567 36.781 10.567 37.174 C 10.567 37.361 10.597 37.514 10.657 37.634 L 10.537 37.724 C 10.437 37.611 10.387 37.417 10.387 37.144 C 10.387 36.864 10.484 36.601 10.677 36.354 C 10.877 36.107 11.13 35.944 11.437 35.864 C 11.524 35.844 11.63 35.824 11.757 35.804 L 11.757 35.774 L 11.437 35.794 C 10.544 35.681 9.817 35.424 9.257 35.024 C 8.697 34.631 8.417 34.061 8.417 33.314 L 8.577 33.294 C 8.577 33.727 8.687 34.101 8.907 34.414 C 9.12 34.727 9.414 34.971 9.787 35.144 C 10.494 35.484 11.334 35.671 12.307 35.704 L 14.717 35.814 L 14.717 43.404 C 14.717 43.964 14.614 44.384 14.407 44.664 C 14.2 44.937 13.85 45.074 13.357 45.074 C 13.104 45.074 12.894 45.044 12.727 44.984 L 12.757 44.844 C 12.957 44.891 13.144 44.914 13.317 44.914 C 13.784 44.914 14.1 44.794 14.267 44.554 C 14.434 44.314 14.517 43.931 14.517 43.404 Z M 11.617 41.184 L 12.287 41.184 L 14.517 41.194 L 14.517 35.974 L 13.017 35.904 L 11.617 41.184 Z M 7.827 43.464 C 7.827 43.871 7.957 44.214 8.217 44.494 C 8.477 44.774 8.807 44.914 9.207 44.914 C 9.854 44.914 10.33 44.574 10.637 43.894 C 10.804 43.514 10.95 43.067 11.077 42.554 L 11.397 41.344 C 9.017 41.364 7.827 42.071 7.827 43.464 Z M 15.077 43.404 L 15.077 36.434 C 15.077 35.874 15.18 35.457 15.387 35.184 C 15.594 34.904 15.944 34.764 16.437 34.764 C 16.69 34.764 16.9 34.794 17.067 34.854 L 17.037 34.994 C 16.83 34.947 16.644 34.924 16.477 34.924 C 16.01 34.924 15.694 35.044 15.527 35.284 C 15.36 35.531 15.277 35.914 15.277 36.434 L 15.277 43.404 C 15.277 43.931 15.36 44.314 15.527 44.554 C 15.694 44.794 16.01 44.914 16.477 44.914 C 16.644 44.914 16.83 44.891 17.037 44.844 L 17.067 44.984 C 16.9 45.044 16.69 45.074 16.437 45.074 C 15.944 45.074 15.594 44.937 15.387 44.664 C 15.18 44.384 15.077 43.964 15.077 43.404 Z" transform="matrix(1, 0, 0, 1, 0, 0)" style="fill: rgb(51, 51, 51); white-space: pre;"/>
    <path d="M 38.457 35.402 C 39.264 35.402 39.86 35.535 40.247 35.802 C 40.64 36.075 40.837 36.572 40.837 37.292 C 40.837 37.745 40.71 38.162 40.457 38.542 C 40.204 38.922 39.87 39.199 39.457 39.372 L 39.137 39.442 L 39.157 39.472 C 39.284 39.452 39.407 39.442 39.527 39.442 C 40.154 39.489 40.644 39.692 40.997 40.052 C 41.357 40.412 41.537 40.945 41.537 41.652 C 41.537 42.359 41.264 43.022 40.717 43.642 C 40.17 44.262 39.494 44.679 38.687 44.892 C 38.347 44.892 37.947 44.825 37.487 44.692 C 37.027 44.552 36.64 44.395 36.327 44.222 L 36.327 35.512 C 37.387 35.439 38.097 35.402 38.457 35.402 Z M 35.957 35.542 L 35.957 43.182 C 35.957 43.742 35.857 44.162 35.657 44.442 C 35.45 44.715 35.1 44.852 34.607 44.852 C 34.354 44.852 34.144 44.822 33.977 44.762 L 33.997 44.622 C 34.204 44.669 34.39 44.692 34.557 44.692 C 35.024 44.692 35.344 44.572 35.517 44.332 C 35.684 44.092 35.767 43.709 35.767 43.182 L 35.767 35.722 C 35.24 35.762 34.857 35.832 34.617 35.932 C 34.064 36.165 33.787 36.542 33.787 37.062 C 33.787 37.289 33.834 37.492 33.927 37.672 L 33.817 37.752 C 33.677 37.592 33.607 37.369 33.607 37.082 C 33.607 36.462 33.917 36.042 34.537 35.822 C 34.644 35.782 34.744 35.749 34.837 35.722 L 34.837 35.692 L 34.517 35.752 C 33.624 35.732 32.874 35.552 32.267 35.212 C 31.667 34.872 31.33 34.332 31.257 33.592 L 31.427 33.562 C 31.574 34.909 32.73 35.582 34.897 35.582 C 35.197 35.582 35.55 35.569 35.957 35.542 Z M 40.637 37.232 C 40.637 36.619 40.464 36.189 40.117 35.942 C 39.764 35.695 39.277 35.572 38.657 35.572 C 38.037 35.572 37.324 35.602 36.517 35.662 L 36.517 44.122 C 37.344 44.522 38.054 44.722 38.647 44.722 C 39.407 44.509 40.044 44.109 40.557 43.522 C 41.077 42.935 41.337 42.292 41.337 41.592 C 41.337 40.899 41.134 40.385 40.727 40.052 C 40.32 39.725 39.764 39.562 39.057 39.562 C 38.384 39.562 37.98 39.655 37.847 39.842 C 37.787 39.935 37.757 40.065 37.757 40.232 C 37.757 40.399 37.814 40.535 37.927 40.642 C 38.047 40.749 38.2 40.812 38.387 40.832 L 38.357 40.972 C 38.13 40.952 37.94 40.875 37.787 40.742 C 37.634 40.609 37.557 40.442 37.557 40.242 C 37.557 39.842 37.757 39.599 38.157 39.512 C 37.924 39.499 37.734 39.429 37.587 39.302 C 37.434 39.175 37.357 39.005 37.357 38.792 C 37.357 38.572 37.437 38.395 37.597 38.262 C 37.75 38.129 37.937 38.052 38.157 38.032 L 38.187 38.172 C 38 38.192 37.85 38.255 37.737 38.362 C 37.617 38.469 37.557 38.619 37.557 38.812 C 37.557 39.012 37.644 39.162 37.817 39.262 C 37.99 39.369 38.207 39.422 38.467 39.422 C 39.1 39.422 39.62 39.212 40.027 38.792 C 40.434 38.372 40.637 37.852 40.637 37.232 Z" transform="matrix(1, 0, 0, 1, 0, 0)" style="fill: rgb(51, 51, 51); white-space: pre;"/>
    <path d="M 37.668 7.687 C 38.475 7.687 39.071 7.82 39.458 8.087 C 39.851 8.36 40.048 8.857 40.048 9.577 C 40.048 10.03 39.921 10.447 39.668 10.827 C 39.415 11.207 39.081 11.484 38.668 11.657 L 38.348 11.727 L 38.368 11.757 C 38.495 11.737 38.618 11.727 38.738 11.727 C 39.365 11.774 39.855 11.977 40.208 12.337 C 40.568 12.697 40.748 13.23 40.748 13.937 C 40.748 14.644 40.475 15.307 39.928 15.927 C 39.381 16.547 38.705 16.964 37.898 17.177 C 37.558 17.177 37.158 17.11 36.698 16.977 C 36.238 16.837 35.851 16.68 35.538 16.507 L 35.538 7.797 C 36.598 7.724 37.308 7.687 37.668 7.687 Z M 35.168 7.827 L 35.168 15.467 C 35.168 16.027 35.068 16.447 34.868 16.727 C 34.661 17 34.311 17.137 33.818 17.137 C 33.565 17.137 33.355 17.107 33.188 17.047 L 33.208 16.907 C 33.415 16.954 33.601 16.977 33.768 16.977 C 34.235 16.977 34.555 16.857 34.728 16.617 C 34.895 16.377 34.978 15.994 34.978 15.467 L 34.978 8.007 C 34.451 8.047 34.068 8.117 33.828 8.217 C 33.275 8.45 32.998 8.827 32.998 9.347 C 32.998 9.574 33.045 9.777 33.138 9.957 L 33.028 10.037 C 32.888 9.877 32.818 9.654 32.818 9.367 C 32.818 8.747 33.128 8.327 33.748 8.107 C 33.855 8.067 33.955 8.034 34.048 8.007 L 34.048 7.977 L 33.728 8.037 C 32.835 8.017 32.085 7.837 31.478 7.497 C 30.878 7.157 30.541 6.617 30.468 5.877 L 30.638 5.847 C 30.785 7.194 31.941 7.867 34.108 7.867 C 34.408 7.867 34.761 7.854 35.168 7.827 Z M 39.848 9.517 C 39.848 8.904 39.675 8.474 39.328 8.227 C 38.975 7.98 38.488 7.857 37.868 7.857 C 37.248 7.857 36.535 7.887 35.728 7.947 L 35.728 16.407 C 36.555 16.807 37.265 17.007 37.858 17.007 C 38.618 16.794 39.255 16.394 39.768 15.807 C 40.288 15.22 40.548 14.577 40.548 13.877 C 40.548 13.184 40.345 12.67 39.938 12.337 C 39.531 12.01 38.975 11.847 38.268 11.847 C 37.595 11.847 37.191 11.94 37.058 12.127 C 36.998 12.22 36.968 12.35 36.968 12.517 C 36.968 12.684 37.025 12.82 37.138 12.927 C 37.258 13.034 37.411 13.097 37.598 13.117 L 37.568 13.257 C 37.341 13.237 37.151 13.16 36.998 13.027 C 36.845 12.894 36.768 12.727 36.768 12.527 C 36.768 12.127 36.968 11.884 37.368 11.797 C 37.135 11.784 36.945 11.714 36.798 11.587 C 36.645 11.46 36.568 11.29 36.568 11.077 C 36.568 10.857 36.648 10.68 36.808 10.547 C 36.961 10.414 37.148 10.337 37.368 10.317 L 37.398 10.457 C 37.211 10.477 37.061 10.54 36.948 10.647 C 36.828 10.754 36.768 10.904 36.768 11.097 C 36.768 11.297 36.855 11.447 37.028 11.547 C 37.201 11.654 37.418 11.707 37.678 11.707 C 38.311 11.707 38.831 11.497 39.238 11.077 C 39.645 10.657 39.848 10.137 39.848 9.517 Z" transform="matrix(1, 0, 0, 1, 0, 0)" style="fill: rgb(51, 51, 51); white-space: pre;"/>
  </g>
</svg>