<?xml version="1.0" encoding="UTF-8"?>
<svg width="135px" height="36px" viewBox="0 0 135 36" version="1.1" xmlns="http://www.w3.org/2000/svg" xmlns:xlink="http://www.w3.org/1999/xlink">
    <g id="bmp00161" stroke="none" stroke-width="1" fill="none" fill-rule="evenodd">
        <rect id="Rectangle" stroke="#979797" fill="#D8D8D8" x="0.5" y="0.5" width="134" height="11" rx="5"></rect>
        <rect id="Rectangle" fill="#FF9A10" x="4" y="2" width="37" height="8" rx="2"></rect>
        <rect id="Rectangle" fill="#A2A5B8" x="42" y="2" width="1" height="8"></rect>
        <rect id="Rectangle" fill="#A2A5B8" x="92" y="2" width="1" height="8"></rect>
        <rect id="Rectangle" stroke="#979797" fill="#D8D8D8" x="0.5" y="12.5" width="134" height="11" rx="5"></rect>
        <rect id="Rectangle" fill="#A2A5B8" x="42" y="14" width="1" height="8"></rect>
        <rect id="Rectangle" fill="#A2A5B8" x="92" y="14" width="1" height="8"></rect>
        <rect id="Rectangle" stroke="#979797" fill="#D8D8D8" x="0.5" y="24.5" width="134" height="11" rx="5"></rect>
        <rect id="Rectangle" fill="#A2A5B8" x="42" y="26" width="1" height="8"></rect>
        <rect id="Rectangle" fill="#A2A5B8" x="92" y="26" width="1" height="8"></rect>
        <rect id="Rectangle" fill="#FF9A10" x="44" y="14" width="47" height="8" rx="2"></rect>
        <rect id="Rectangle" fill="#FF9A10" x="94" y="26" width="37" height="8" rx="2"></rect>
        <path d="M17.68,2.5515 L15.6685,9 L14.8855,9 L13.252,4.0815 C13.2369999,4.03349976 13.2227501,3.98250027 13.20925,3.9285 L13.1665,3.7575 C13.1514999,3.8175003 13.1365001,3.87449973 13.1215,3.9285 C13.1064999,3.98250027 13.0915001,4.03349976 13.0765,4.0815 L11.434,9 L10.651,9 L8.6395,2.5515 L9.364,2.5515 C9.44200039,2.5515 9.50724974,2.5709998 9.55975,2.61 C9.61225026,2.64900019 9.64599992,2.6984997 9.661,2.7585 L10.993,7.2405 C11.0140001,7.32150041 11.0342499,7.40849953 11.05375,7.5015 C11.0732501,7.59450047 11.0919999,7.69349948 11.11,7.7985 C11.1310001,7.69349948 11.1527499,7.59375047 11.17525,7.49925 C11.1977501,7.40474953 11.2224999,7.31850039 11.2495,7.2405 L12.766,2.7585 C12.7840001,2.70749974 12.8192497,2.66025022 12.87175,2.61675 C12.9242503,2.57324978 12.9879996,2.5515 13.063,2.5515 L13.315,2.5515 C13.3930004,2.5515 13.4559998,2.5709998 13.504,2.61 C13.5520002,2.64900019 13.5879999,2.6984997 13.612,2.7585 L15.124,7.2405 C15.1510001,7.31850039 15.1757499,7.40249955 15.19825,7.4925 C15.2207501,7.58250045 15.2424999,7.6769995 15.2635,7.776 C15.2785001,7.6769995 15.2949999,7.58250045 15.313,7.4925 C15.3310001,7.40249955 15.3504999,7.31850039 15.3715,7.2405 L16.708,2.7585 C16.7230001,2.70449973 16.7567497,2.65650021 16.80925,2.6145 C16.8617503,2.57249979 16.9254996,2.5515 17.0005,2.5515 L17.68,2.5515 Z M21.216,6.948 C20.8469982,6.96000006 20.5327513,6.98924977 20.27325,7.03575 C20.0137487,7.08225023 19.8022508,7.14299962 19.63875,7.218 C19.4752492,7.29300038 19.3567504,7.38149949 19.28325,7.4835 C19.2097496,7.58550051 19.173,7.69949937 19.173,7.8255 C19.173,7.9455006 19.1924998,8.04899956 19.2315,8.136 C19.2705002,8.22300043 19.3237497,8.29424972 19.39125,8.34975 C19.4587503,8.40525028 19.5382496,8.44574987 19.62975,8.47125 C19.7212505,8.49675013 19.8194995,8.5095 19.9245,8.5095 C20.0655007,8.5095 20.1944994,8.49525014 20.3115,8.46675 C20.4285006,8.43824986 20.5387495,8.39700027 20.64225,8.343 C20.7457505,8.28899973 20.8447495,8.22450037 20.93925,8.1495 C21.0337505,8.07449962 21.1259996,7.98900048 21.216,7.893 L21.216,6.948 Z M18.6285,5.085 C18.8805013,4.84199878 19.1519986,4.6605006 19.443,4.5405 C19.7340015,4.4204994 20.0564982,4.3605 20.4105,4.3605 C20.6655013,4.3605 20.891999,4.40249958 21.09,4.4865 C21.288001,4.57050042 21.4544993,4.68749925 21.5895,4.8375 C21.7245007,4.98750075 21.8264997,5.16899893 21.8955,5.382 C21.9645004,5.59500106 21.999,5.82899872 21.999,6.084 L21.999,9 L21.6435,9 C21.5654996,9 21.5055002,8.98725013 21.4635,8.96175 C21.4214998,8.93624987 21.3885001,8.88600038 21.3645,8.811 L21.2745,8.379 C21.1544994,8.49000055 21.0375006,8.58824957 20.9235,8.67375 C20.8094994,8.75925043 20.6895006,8.83124971 20.5635,8.88975 C20.4374994,8.94825029 20.3032507,8.99324984 20.16075,9.02475 C20.0182493,9.05625016 19.8600009,9.072 19.686,9.072 C19.5089991,9.072 19.3425008,9.04725025 19.1865,8.99775 C19.0304992,8.94824975 18.8947506,8.8740005 18.77925,8.775 C18.6637494,8.67599951 18.5722503,8.55075076 18.50475,8.39925 C18.4372497,8.24774924 18.4035,8.06850104 18.4035,7.8615 C18.4035,7.6814991 18.4529995,7.50825083 18.552,7.34175 C18.6510005,7.17524917 18.8114989,7.02750064 19.0335,6.8985 C19.2555011,6.76949936 19.5449982,6.66375041 19.902,6.58125 C20.2590018,6.49874959 20.6969974,6.45150006 21.216,6.4395 L21.216,6.084 C21.216,5.72999823 21.1395008,5.46225091 20.9865,5.28075 C20.8334992,5.09924909 20.6100015,5.0085 20.316,5.0085 C20.117999,5.0085 19.9522507,5.03324975 19.81875,5.08275 C19.6852493,5.13225025 19.5697505,5.18774969 19.47225,5.24925 C19.3747495,5.31075031 19.2907504,5.36624975 19.22025,5.41575 C19.1497497,5.46525025 19.0800004,5.49 19.011,5.49 C18.9569997,5.49 18.9105002,5.47575014 18.8715,5.44725 C18.8324998,5.41874986 18.7995001,5.38350021 18.7725,5.3415 L18.6285,5.085 Z M24.779,5.355 C24.9230007,5.04299844 25.099999,4.79925088 25.31,4.62375 C25.5200011,4.44824912 25.7764985,4.3605 26.0795,4.3605 C26.1755005,4.3605 26.2677496,4.37099989 26.35625,4.392 C26.4447505,4.41300011 26.5234997,4.44599977 26.5925,4.491 L26.534,5.0895 C26.5159999,5.16450037 26.4710004,5.202 26.399,5.202 C26.3569998,5.202 26.2955004,5.19300009 26.2145,5.175 C26.1334996,5.15699991 26.0420005,5.148 25.94,5.148 C25.7959993,5.148 25.6677506,5.16899979 25.55525,5.211 C25.4427495,5.25300021 25.3422505,5.31524959 25.25375,5.39775 C25.1652496,5.48025041 25.0857504,5.58224939 25.01525,5.70375 C24.9447497,5.82525061 24.8810003,5.96399922 24.824,6.12 L24.824,9 L24.0185,9 L24.0185,4.4415 L24.4775,4.4415 C24.5645005,4.4415 24.6244999,4.45799983 24.6575,4.491 C24.6905002,4.52400016 24.713,4.58099959 24.725,4.662 L24.779,5.355 Z M31.3005364,5.31393104 C31.3662405,5.151079 31.4503109,5.01027004 31.55275,4.8915 C31.6562506,4.7714994 31.7724994,4.67250039 31.9015,4.5945 C32.0305007,4.51649961 32.1677493,4.45950018 32.31325,4.4235 C32.4587508,4.38749982 32.6064993,4.3695 32.7565,4.3695 C32.9965012,4.3695 33.2102491,4.40774962 33.39775,4.48425 C33.585251,4.56075038 33.7442494,4.67249926 33.87475,4.8195 C34.0052507,4.96650073 34.1049997,5.14724893 34.174,5.36175 C34.2430004,5.57625107 34.2775,5.82149862 34.2775,6.0975 L34.2775,9 L33.472,9 L33.472,6.0975 C33.472,5.74049821 33.3940008,5.46975092 33.238,5.28525 C33.0819993,5.10074908 32.8570015,5.0085 32.563,5.0085 C32.4309994,5.0085 32.3057506,5.03174977 32.18725,5.07825 C32.0687494,5.12475023 31.9645005,5.19299955 31.8745,5.283 C31.7844996,5.37300045 31.7132503,5.48624932 31.66075,5.62275 C31.6082498,5.75925068 31.582,5.9174991 31.582,6.0975 L31.582,9 L30.7765,9 L30.7765,6.0975 C30.7765,5.73149817 30.7030008,5.4585009 30.556,5.2785 C30.4089993,5.0984991 30.1945014,5.0085 29.9125,5.0085 C29.714499,5.0085 29.5315009,5.06174947 29.3635,5.16825 C29.1954992,5.27475053 29.0410007,5.41949908 28.9,5.6025 L28.9,9 L28.0945,9 L28.0945,4.4415 L28.576,4.4415 C28.6900006,4.4415 28.7604999,4.49699945 28.7875,4.608 L28.846,5.076 C29.0140009,4.86899896 29.202999,4.69950066 29.413,4.5675 C29.6230011,4.43549934 29.8659987,4.3695 30.142,4.3695 C30.4480016,4.3695 30.6962491,4.45499914 30.88675,4.626 C31.0772491,4.7969992 31.214497,5.02799407 31.2984976,5.31899154 L31.3005364,5.31393104 Z" id="Warm" fill="#000000" fill-rule="nonzero"></path>
        <path d="M56.548,2.5515 L56.548,9 L56.1115,9 C56.0424997,9 55.9847502,8.98800012 55.93825,8.964 C55.8917498,8.93999988 55.8460002,8.89950028 55.801,8.8425 L52.0705,3.9825 C52.0765,4.05750037 52.081,4.13099964 52.084,4.203 C52.087,4.27500036 52.0885,4.34249968 52.0885,4.4055 L52.0885,9 L51.3235,9 L51.3235,2.5515 L51.7735,2.5515 C51.8125002,2.5515 51.8454999,2.55374998 51.8725,2.55825 C51.8995001,2.56275002 51.9234999,2.57024995 51.9445,2.58075 C51.9655001,2.59125005 51.9864999,2.6062499 52.0075,2.62575 C52.0285001,2.6452501 52.0509999,2.66999985 52.075,2.7 L55.8055,7.5555 C55.7995,7.47749961 55.79425,7.40175037 55.78975,7.32825 C55.78525,7.25474963 55.783,7.18500033 55.783,7.119 L55.783,2.5515 L56.548,2.5515 Z M61.6175,6.2235 C61.6175,6.03749907 61.5912503,5.86725077 61.53875,5.71275 C61.4862497,5.55824923 61.4097505,5.42475056 61.30925,5.31225 C61.2087495,5.19974944 61.0865007,5.11275031 60.9425,5.05125 C60.7984993,4.98974969 60.6350009,4.959 60.452,4.959 C60.0679981,4.959 59.7642511,5.07074888 59.54075,5.29425 C59.3172489,5.51775112 59.1785003,5.82749802 59.1245,6.2235 L61.6175,6.2235 Z M62.2655,8.361 C62.1664995,8.4810006 62.0480007,8.58524956 61.91,8.67375 C61.7719993,8.76225044 61.6242508,8.83499971 61.46675,8.892 C61.3092492,8.94900029 61.1465008,8.99174986 60.9785,9.02025 C60.8104991,9.04875014 60.6440008,9.063 60.479,9.063 C60.1639984,9.063 59.8737513,9.00975053 59.60825,8.90325 C59.3427487,8.79674947 59.113251,8.64075103 58.91975,8.43525 C58.726249,8.22974897 58.5755005,7.97550151 58.4675,7.6725 C58.3594994,7.36949849 58.3055,7.02150196 58.3055,6.6285 C58.3055,6.31049841 58.3542495,6.01350138 58.45175,5.7375 C58.5492505,5.46149862 58.6894991,5.22225101 58.8725,5.01975 C59.0555009,4.81724899 59.2789987,4.65825058 59.543,4.54275 C59.8070013,4.42724942 60.1039983,4.3695 60.434,4.3695 C60.7070014,4.3695 60.9597488,4.41524954 61.19225,4.50675 C61.4247512,4.59825046 61.6257491,4.73024914 61.79525,4.90275 C61.9647508,5.07525086 62.0974995,5.28824873 62.1935,5.54175 C62.2895005,5.79525127 62.3375,6.08399838 62.3375,6.408 C62.3375,6.53400063 62.3240001,6.61799979 62.297,6.66 C62.2699999,6.70200021 62.2190004,6.723 62.144,6.723 L59.0975,6.723 C59.1065,7.01100144 59.1462496,7.26149893 59.21675,7.4745 C59.2872503,7.68750107 59.3854994,7.86524929 59.5115,8.00775 C59.6375006,8.15025071 59.7874991,8.25674965 59.9615,8.32725 C60.1355009,8.39775035 60.3304989,8.433 60.5465,8.433 C60.747501,8.433 60.9207493,8.40975023 61.06625,8.36325 C61.2117507,8.31674977 61.3369995,8.26650027 61.442,8.2125 C61.5470005,8.15849973 61.6347496,8.10825023 61.70525,8.06175 C61.7757503,8.01524977 61.8364997,7.992 61.8875,7.992 C61.9535003,7.992 62.0044998,8.01749974 62.0405,8.0685 L62.2655,8.361 Z M67.767,4.4415 L67.767,9 L67.29,9 C67.1759994,9 67.1040001,8.94450055 67.074,8.8335 L67.011,8.343 C66.812999,8.56200109 66.5910012,8.73824933 66.345,8.87175 C66.0989987,9.00525067 65.8170016,9.072 65.499,9.072 C65.2499987,9.072 65.0302509,9.03075041 64.83975,8.94825 C64.649249,8.86574959 64.4895006,8.74950075 64.3605,8.5995 C64.2314993,8.44949925 64.1347503,8.26800106 64.07025,8.055 C64.0057497,7.84199893 63.9735,7.60650129 63.9735,7.3485 L63.9735,4.4415 L64.7745,4.4415 L64.7745,7.3485 C64.7745,7.69350172 64.8532492,7.96049905 65.01075,8.1495 C65.1682508,8.33850094 65.4089984,8.433 65.733,8.433 C65.9700012,8.433 66.1912489,8.37675056 66.39675,8.26425 C66.602251,8.15174944 66.7919991,7.99650099 66.966,7.7985 L66.966,4.4415 L67.767,4.4415 Z M71.1355,9.072 C70.7754982,9.072 70.4987509,8.97150101 70.30525,8.7705 C70.111749,8.569499 70.015,8.28000189 70.015,7.902 L70.015,5.112 L69.466,5.112 C69.4179997,5.112 69.3775001,5.09775014 69.3445,5.06925 C69.3114998,5.04074986 69.295,4.9965003 69.295,4.9365 L69.295,4.617 L70.042,4.5225 L70.2265,3.114 C70.2355,3.06899977 70.2557498,3.03225014 70.28725,3.00375 C70.3187501,2.97524986 70.3599997,2.961 70.411,2.961 L70.816,2.961 L70.816,4.5315 L72.1345,4.5315 L72.1345,5.112 L70.816,5.112 L70.816,7.848 C70.816,8.04000096 70.8624995,8.18249953 70.9555,8.2755 C71.0485004,8.36850047 71.1684992,8.415 71.3155,8.415 C71.3995004,8.415 71.4722497,8.40375011 71.53375,8.38125 C71.5952503,8.35874989 71.6484997,8.33400014 71.6935,8.307 C71.7385002,8.27999987 71.7767498,8.25525011 71.80825,8.23275 C71.8397501,8.21024989 71.8674998,8.199 71.8915,8.199 C71.9335002,8.199 71.9709998,8.22449974 72.004,8.2755 L72.238,8.658 C72.0999993,8.78700064 71.9335009,8.88824963 71.7385,8.96175 C71.543499,9.03525037 71.342501,9.072 71.1355,9.072 Z M74.423,5.355 C74.5670007,5.04299844 74.7439989,4.79925088 74.954,4.62375 C75.164001,4.44824912 75.4204984,4.3605 75.7235,4.3605 C75.8195004,4.3605 75.9117495,4.37099989 76.00025,4.392 C76.0887504,4.4130001 76.1674996,4.44599977 76.2365,4.491 L76.178,5.0895 C76.1599999,5.16450037 76.1150003,5.202 76.043,5.202 C76.0009997,5.202 75.9395004,5.19300009 75.8585,5.175 C75.7774995,5.15699991 75.6860005,5.148 75.584,5.148 C75.4399992,5.148 75.3117505,5.16899979 75.19925,5.211 C75.0867494,5.25300021 74.9862504,5.31524959 74.89775,5.39775 C74.8092495,5.48025041 74.7297503,5.58224939 74.65925,5.70375 C74.5887496,5.82525061 74.5250002,5.96399922 74.468,6.12 L74.468,9 L73.6625,9 L73.6625,4.4415 L74.1215,4.4415 C74.2085004,4.4415 74.2684998,4.45799983 74.3015,4.491 C74.3345001,4.52400016 74.3569999,4.58099959 74.369,4.662 L74.423,5.355 Z M80.0369999,6.948 C79.6679981,6.96000006 79.3537512,6.98924977 79.0942499,7.03575 C78.8347486,7.08225023 78.6232508,7.14299962 78.4597499,7.218 C78.2962491,7.29300037 78.1777503,7.38149949 78.1042499,7.4835 C78.0307496,7.58550051 77.9939999,7.69949937 77.9939999,7.8255 C77.9939999,7.9455006 78.0134997,8.04899956 78.0524999,8.136 C78.0915001,8.22300043 78.1447496,8.29424972 78.2122499,8.34975 C78.2797503,8.40525028 78.3592495,8.44574987 78.4507499,8.47125 C78.5422504,8.49675013 78.6404994,8.5095 78.7454999,8.5095 C78.8865006,8.5095 79.0154994,8.49525014 79.1324999,8.46675 C79.2495005,8.43824986 79.3597494,8.39700027 79.4632499,8.343 C79.5667505,8.28899973 79.6657495,8.22450037 79.7602499,8.1495 C79.8547504,8.07449962 79.9469995,7.98900048 80.0369999,7.893 L80.0369999,6.948 Z M77.4494999,5.085 C77.7015012,4.84199878 77.9729985,4.6605006 78.2639999,4.5405 C78.5550014,4.4204994 78.8774982,4.3605 79.2314999,4.3605 C79.4865012,4.3605 79.712999,4.40249958 79.9109999,4.4865 C80.1090009,4.57050042 80.2754993,4.68749925 80.4104999,4.8375 C80.5455006,4.98750075 80.6474996,5.16899893 80.7164999,5.382 C80.7855003,5.59500106 80.8199999,5.82899872 80.8199999,6.084 L80.8199999,9 L80.4644999,9 C80.3864996,9 80.3265002,8.98725013 80.2844999,8.96175 C80.2424997,8.93624987 80.2095001,8.88600037 80.1854999,8.811 L80.0954999,8.379 C79.9754993,8.49000055 79.8585005,8.58824957 79.7444999,8.67375 C79.6304994,8.75925043 79.5105006,8.83124971 79.3844999,8.88975 C79.2584993,8.94825029 79.1242507,8.99324984 78.9817499,9.02475 C78.8392492,9.05625016 78.6810008,9.072 78.5069999,9.072 C78.3299991,9.072 78.1635007,9.04725025 78.0074999,8.99775 C77.8514992,8.94824975 77.7157505,8.8740005 77.6002499,8.775 C77.4847494,8.67599951 77.3932503,8.55075076 77.3257499,8.39925 C77.2582496,8.24774924 77.2244999,8.06850104 77.2244999,7.8615 C77.2244999,7.6814991 77.2739994,7.50825083 77.3729999,7.34175 C77.4720004,7.17524917 77.6324988,7.02750064 77.8544999,6.8985 C78.0765011,6.76949935 78.3659982,6.66375041 78.7229999,6.58125 C79.0800017,6.49874959 79.5179973,6.45150006 80.0369999,6.4395 L80.0369999,6.084 C80.0369999,5.72999823 79.9605007,5.46225091 79.8074999,5.28075 C79.6544992,5.09924909 79.4310014,5.0085 79.1369999,5.0085 C78.938999,5.0085 78.7732506,5.03324975 78.6397499,5.08275 C78.5062493,5.13225025 78.3907504,5.18774969 78.2932499,5.24925 C78.1957495,5.31075031 78.1117503,5.36624975 78.0412499,5.41575 C77.9707496,5.46525025 77.9010003,5.49 77.8319999,5.49 C77.7779997,5.49 77.7315001,5.47575014 77.6924999,5.44725 C77.6534997,5.41874986 77.6205001,5.38350021 77.5934999,5.3415 L77.4494999,5.085 Z M83.5674999,2.3715 L83.5674999,9 L82.7664999,9 L82.7664999,2.3715 L83.5674999,2.3715 Z" id="Neutral" fill="#000000" fill-rule="nonzero"></path>
        <path d="M101.587,8.307 C101.836001,8.307 102.050499,8.27850028 102.2305,8.2215 C102.410501,8.16449971 102.558249,8.08425052 102.67375,7.98075 C102.789251,7.87724948 102.874,7.75425071 102.928,7.61175 C102.982,7.46924929 103.009,7.31250085 103.009,7.1415 C103.009,6.80849833 102.890501,6.54525097 102.6535,6.35175 C102.416499,6.15824903 102.061002,6.0615 101.587,6.0615 L100.192,6.0615 L100.192,8.307 L101.587,8.307 Z M100.192,3.24 L100.192,5.4405 L101.344,5.4405 C101.590001,5.4405 101.803749,5.41350027 101.98525,5.3595 C102.166751,5.30549973 102.316749,5.23050048 102.43525,5.1345 C102.553751,5.03849952 102.6415,4.92225068 102.6985,4.78575 C102.7555,4.64924932 102.784,4.50000081 102.784,4.338 C102.784,3.95699809 102.670001,3.67875088 102.442,3.50325 C102.213999,3.32774912 101.860002,3.24 101.38,3.24 L100.192,3.24 Z M101.38,2.5515 C101.776002,2.5515 102.117249,2.59049961 102.40375,2.6685 C102.690251,2.74650039 102.925749,2.85749928 103.11025,3.0015 C103.294751,3.14550072 103.4305,3.32174896 103.5175,3.53025 C103.6045,3.73875104 103.648,3.97349869 103.648,4.2345 C103.648,4.39350079 103.62325,4.54574927 103.57375,4.69125 C103.52425,4.83675073 103.45,4.97249937 103.351,5.0985 C103.252,5.22450063 103.126751,5.3377495 102.97525,5.43825 C102.823749,5.5387505 102.646001,5.62049968 102.442,5.6835 C102.916002,5.77350045 103.272249,5.94224876 103.51075,6.18975 C103.749251,6.43725124 103.8685,6.76199799 103.8685,7.164 C103.8685,7.43700137 103.818251,7.68599888 103.71775,7.911 C103.617249,8.13600112 103.470251,8.32949919 103.27675,8.4915 C103.083249,8.65350081 102.845501,8.77874956 102.5635,8.86725 C102.281499,8.95575044 101.960502,9 101.6005,9 L99.3235,9 L99.3235,2.5515 L101.38,2.5515 Z M106.3145,5.355 C106.458501,5.04299844 106.635499,4.79925088 106.8455,4.62375 C107.055501,4.44824912 107.311998,4.3605 107.615,4.3605 C107.711,4.3605 107.80325,4.37099989 107.89175,4.392 C107.98025,4.41300011 108.059,4.44599977 108.128,4.491 L108.0695,5.0895 C108.0515,5.16450037 108.0065,5.202 107.9345,5.202 C107.8925,5.202 107.831,5.19300009 107.75,5.175 C107.669,5.15699991 107.5775,5.148 107.4755,5.148 C107.331499,5.148 107.203251,5.16899979 107.09075,5.211 C106.978249,5.25300021 106.87775,5.31524959 106.78925,5.39775 C106.70075,5.48025041 106.62125,5.58224939 106.55075,5.70375 C106.48025,5.82525061 106.4165,5.96399922 106.3595,6.12 L106.3595,9 L105.554,9 L105.554,4.4415 L106.013,4.4415 C106.1,4.4415 106.16,4.45799983 106.193,4.491 C106.226,4.52400016 106.2485,4.58099959 106.2605,4.662 L106.3145,5.355 Z M110.376,4.4415 L110.376,9 L109.575,9 L109.575,4.4415 L110.376,4.4415 Z M110.547,3.0105 C110.547,3.08850039 110.53125,3.16124966 110.49975,3.22875 C110.46825,3.29625034 110.42625,3.35624974 110.37375,3.40875 C110.32125,3.46125026 110.25975,3.50249985 110.18925,3.5325 C110.11875,3.56250015 110.0445,3.5775 109.9665,3.5775 C109.8885,3.5775 109.81575,3.56250015 109.74825,3.5325 C109.68075,3.50249985 109.6215,3.46125026 109.5705,3.40875 C109.5195,3.35624974 109.479,3.29625034 109.449,3.22875 C109.419,3.16124966 109.404,3.08850039 109.404,3.0105 C109.404,2.93249961 109.419,2.85825035 109.449,2.78775 C109.479,2.71724965 109.5195,2.65575026 109.5705,2.60325 C109.6215,2.55074974 109.68075,2.50950015 109.74825,2.4795 C109.81575,2.44949985 109.8885,2.4345 109.9665,2.4345 C110.0445,2.4345 110.11875,2.44949985 110.18925,2.4795 C110.25975,2.50950015 110.32125,2.55074974 110.37375,2.60325 C110.42625,2.65575026 110.46825,2.71724965 110.49975,2.78775 C110.53125,2.85825035 110.547,2.93249961 110.547,3.0105 Z M113.9785,6.7725 C114.140501,6.7725 114.282999,6.75000022 114.406,6.705 C114.529001,6.65999977 114.6325,6.5970004 114.7165,6.516 C114.8005,6.43499959 114.8635,6.33825056 114.9055,6.22575 C114.9475,6.11324944 114.9685,5.98950067 114.9685,5.8545 C114.9685,5.5754986 114.883751,5.35350082 114.71425,5.1885 C114.544749,5.02349917 114.299502,4.941 113.9785,4.941 C113.654498,4.941 113.407751,5.02349917 113.23825,5.1885 C113.068749,5.35350082 112.984,5.5754986 112.984,5.8545 C112.984,5.98950067 113.00575,6.11324944 113.04925,6.22575 C113.09275,6.33825056 113.1565,6.43499959 113.2405,6.516 C113.3245,6.5970004 113.427999,6.65999977 113.551,6.705 C113.674001,6.75000022 113.816499,6.7725 113.9785,6.7725 Z M115.423,9.2475 C115.423,9.13649945 115.3915,9.04650035 115.3285,8.9775 C115.2655,8.90849965 115.18075,8.85450019 115.07425,8.8155 C114.967749,8.77649981 114.844001,8.74875008 114.703,8.73225 C114.561999,8.71574992 114.412751,8.70300004 114.25525,8.694 C114.097749,8.68499996 113.938001,8.67600005 113.776,8.667 C113.613999,8.65799996 113.458001,8.64300011 113.308,8.622 C113.139999,8.70000039 113.00275,8.79824941 112.89625,8.91675 C112.789749,9.03525059 112.7365,9.1739992 112.7365,9.333 C112.7365,9.43500051 112.76275,9.53024956 112.81525,9.61875 C112.86775,9.70725044 112.947999,9.78374968 113.056,9.84825 C113.164001,9.91275032 113.299749,9.96374981 113.46325,10.00125 C113.626751,10.0387502 113.819499,10.0575 114.0415,10.0575 C114.257501,10.0575 114.450999,10.0380002 114.622,9.999 C114.793001,9.95999981 114.937749,9.90450036 115.05625,9.8325 C115.174751,9.76049964 115.2655,9.67500049 115.3285,9.576 C115.3915,9.47699951 115.423,9.3675006 115.423,9.2475 Z M116.2375,4.6215 L116.2375,4.9185 C116.2375,5.0175005 116.174501,5.08049987 116.0485,5.1075 L115.531,5.175 C115.633,5.37300099 115.684,5.5919988 115.684,5.832 C115.684,6.05400111 115.64125,6.25574909 115.55575,6.43725 C115.47025,6.61875091 115.352501,6.77399936 115.2025,6.903 C115.052499,7.03200065 114.872501,7.13099966 114.6625,7.2 C114.452499,7.26900035 114.224501,7.3035 113.9785,7.3035 C113.765499,7.3035 113.564501,7.27800026 113.3755,7.227 C113.279499,7.2870003 113.206,7.35074966 113.155,7.41825 C113.104,7.48575034 113.0785,7.55399966 113.0785,7.623 C113.0785,7.73100054 113.12275,7.81274972 113.21125,7.86825 C113.29975,7.92375028 113.415999,7.96349988 113.56,7.9875 C113.704001,8.01150012 113.868249,8.02649997 114.05275,8.0325 C114.237251,8.03850003 114.426249,8.04824993 114.61975,8.06175 C114.813251,8.07525007 115.002249,8.09849984 115.18675,8.1315 C115.371251,8.16450016 115.535499,8.21849962 115.6795,8.2935 C115.823501,8.36850037 115.93975,8.47199934 116.02825,8.604 C116.11675,8.73600066 116.161,8.90699895 116.161,9.117 C116.161,9.31200098 116.11225,9.50099909 116.01475,9.684 C115.917249,9.86700092 115.777001,10.0297493 115.594,10.17225 C115.410999,10.3147507 115.186751,10.4287496 114.92125,10.51425 C114.655749,10.5997504 114.356502,10.6425 114.0235,10.6425 C113.690498,10.6425 113.399501,10.6095003 113.1505,10.5435 C112.901499,10.4774997 112.694501,10.3890006 112.5295,10.278 C112.364499,10.1669994 112.24075,10.0387507 112.15825,9.89325 C112.07575,9.74774927 112.0345,9.59550079 112.0345,9.4365 C112.0345,9.21149888 112.104999,9.02100078 112.246,8.865 C112.387001,8.70899922 112.580499,8.58450046 112.8265,8.4915 C112.691499,8.4314997 112.58425,8.3512505 112.50475,8.25075 C112.42525,8.1502495 112.3855,8.01450085 112.3855,7.8435 C112.3855,7.77749967 112.3975,7.70925035 112.4215,7.63875 C112.4455,7.56824965 112.48225,7.49775035 112.53175,7.42725 C112.58125,7.35674965 112.642,7.29000032 112.714,7.227 C112.786,7.16399969 112.869999,7.10850024 112.966,7.0605 C112.740999,6.93449937 112.565501,6.76725104 112.4395,6.55875 C112.313499,6.35024896 112.2505,6.10800138 112.2505,5.832 C112.2505,5.60999889 112.29325,5.40825091 112.37875,5.22675 C112.46425,5.04524909 112.583499,4.89075064 112.7365,4.76325 C112.889501,4.63574936 113.071749,4.53750034 113.28325,4.4685 C113.494751,4.39949965 113.726499,4.365 113.9785,4.365 C114.176501,4.365 114.360999,4.38674978 114.532,4.43025 C114.703001,4.47375022 114.858999,4.53749958 115,4.6215 L116.2375,4.6215 Z M118.5755,5.049 C118.770501,4.84199896 118.986499,4.67700061 119.2235,4.554 C119.460501,4.43099938 119.733498,4.3695 120.0425,4.3695 C120.291501,4.3695 120.511249,4.41074959 120.70175,4.49325 C120.892251,4.57575041 121.051249,4.69274924 121.17875,4.84425 C121.306251,4.99575076 121.403,5.17799893 121.469,5.391 C121.535,5.60400106 121.568,5.83949871 121.568,6.0975 L121.568,9 L120.7625,9 L120.7625,6.0975 C120.7625,5.75249827 120.683751,5.48475095 120.52625,5.29425 C120.368749,5.10374905 120.129502,5.0085 119.8085,5.0085 C119.571499,5.0085 119.350251,5.06549943 119.14475,5.1795 C118.939249,5.29350057 118.749501,5.44799902 118.5755,5.643 L118.5755,9 L117.77,9 L117.77,2.3715 L118.5755,2.3715 L118.5755,5.049 Z M124.8285,9.072 C124.468498,9.072 124.191751,8.97150101 123.99825,8.7705 C123.804749,8.569499 123.708,8.28000189 123.708,7.902 L123.708,5.112 L123.159,5.112 C123.111,5.112 123.0705,5.09775014 123.0375,5.06925 C123.0045,5.04074986 122.988,4.9965003 122.988,4.9365 L122.988,4.617 L123.735,4.5225 L123.9195,3.114 C123.9285,3.06899977 123.94875,3.03225014 123.98025,3.00375 C124.01175,2.97524986 124.053,2.961 124.104,2.961 L124.509,2.961 L124.509,4.5315 L125.8275,4.5315 L125.8275,5.112 L124.509,5.112 L124.509,7.848 C124.509,8.04000096 124.555499,8.18249953 124.6485,8.2755 C124.7415,8.36850047 124.861499,8.415 125.0085,8.415 C125.0925,8.415 125.16525,8.40375011 125.22675,8.38125 C125.28825,8.35874989 125.3415,8.33400014 125.3865,8.307 C125.4315,8.27999987 125.46975,8.25525011 125.50125,8.23275 C125.53275,8.21024989 125.5605,8.199 125.5845,8.199 C125.6265,8.199 125.664,8.22449974 125.697,8.2755 L125.931,8.658 C125.792999,8.78700064 125.626501,8.88824963 125.4315,8.96175 C125.236499,9.03525037 125.035501,9.072 124.8285,9.072 Z" id="Bright" fill="#000000" fill-rule="nonzero"></path>
        <path d="M17.68,14.5515 L15.6685,21 L14.8855,21 L13.252,16.0815 C13.2369999,16.0334998 13.2227501,15.9825003 13.20925,15.9285 L13.1665,15.7575 C13.1514999,15.8175003 13.1365001,15.8744997 13.1215,15.9285 C13.1064999,15.9825003 13.0915001,16.0334998 13.0765,16.0815 L11.434,21 L10.651,21 L8.6395,14.5515 L9.364,14.5515 C9.44200039,14.5515 9.50724974,14.5709998 9.55975,14.61 C9.61225026,14.6490002 9.64599992,14.6984997 9.661,14.7585 L10.993,19.2405 C11.0140001,19.3215004 11.0342499,19.4084995 11.05375,19.5015 C11.0732501,19.5945005 11.0919999,19.6934995 11.11,19.7985 C11.1310001,19.6934995 11.1527499,19.5937505 11.17525,19.49925 C11.1977501,19.4047495 11.2224999,19.3185004 11.2495,19.2405 L12.766,14.7585 C12.7840001,14.7074997 12.8192497,14.6602502 12.87175,14.61675 C12.9242503,14.5732498 12.9879996,14.5515 13.063,14.5515 L13.315,14.5515 C13.3930004,14.5515 13.4559998,14.5709998 13.504,14.61 C13.5520002,14.6490002 13.5879999,14.6984997 13.612,14.7585 L15.124,19.2405 C15.1510001,19.3185004 15.1757499,19.4024996 15.19825,19.4925 C15.2207501,19.5825005 15.2424999,19.6769995 15.2635,19.776 C15.2785001,19.6769995 15.2949999,19.5825005 15.313,19.4925 C15.3310001,19.4024996 15.3504999,19.3185004 15.3715,19.2405 L16.708,14.7585 C16.7230001,14.7044997 16.7567497,14.6565002 16.80925,14.6145 C16.8617503,14.5724998 16.9254996,14.5515 17.0005,14.5515 L17.68,14.5515 Z M21.216,18.948 C20.8469982,18.9600001 20.5327513,18.9892498 20.27325,19.03575 C20.0137487,19.0822502 19.8022508,19.1429996 19.63875,19.218 C19.4752492,19.2930004 19.3567504,19.3814995 19.28325,19.4835 C19.2097496,19.5855005 19.173,19.6994994 19.173,19.8255 C19.173,19.9455006 19.1924998,20.0489996 19.2315,20.136 C19.2705002,20.2230004 19.3237497,20.2942497 19.39125,20.34975 C19.4587503,20.4052503 19.5382496,20.4457499 19.62975,20.47125 C19.7212505,20.4967501 19.8194995,20.5095 19.9245,20.5095 C20.0655007,20.5095 20.1944994,20.4952501 20.3115,20.46675 C20.4285006,20.4382499 20.5387495,20.3970003 20.64225,20.343 C20.7457505,20.2889997 20.8447495,20.2245004 20.93925,20.1495 C21.0337505,20.0744996 21.1259996,19.9890005 21.216,19.893 L21.216,18.948 Z M18.6285,17.085 C18.8805013,16.8419988 19.1519986,16.6605006 19.443,16.5405 C19.7340015,16.4204994 20.0564982,16.3605 20.4105,16.3605 C20.6655013,16.3605 20.891999,16.4024996 21.09,16.4865 C21.288001,16.5705004 21.4544993,16.6874993 21.5895,16.8375 C21.7245007,16.9875008 21.8264997,17.1689989 21.8955,17.382 C21.9645004,17.5950011 21.999,17.8289987 21.999,18.084 L21.999,21 L21.6435,21 C21.5654996,21 21.5055002,20.9872501 21.4635,20.96175 C21.4214998,20.9362499 21.3885001,20.8860004 21.3645,20.811 L21.2745,20.379 C21.1544994,20.4900006 21.0375006,20.5882496 20.9235,20.67375 C20.8094994,20.7592504 20.6895006,20.8312497 20.5635,20.88975 C20.4374994,20.9482503 20.3032507,20.9932498 20.16075,21.02475 C20.0182493,21.0562502 19.8600009,21.072 19.686,21.072 C19.5089991,21.072 19.3425008,21.0472502 19.1865,20.99775 C19.0304992,20.9482498 18.8947506,20.8740005 18.77925,20.775 C18.6637494,20.6759995 18.5722503,20.5507508 18.50475,20.39925 C18.4372497,20.2477492 18.4035,20.068501 18.4035,19.8615 C18.4035,19.6814991 18.4529995,19.5082508 18.552,19.34175 C18.6510005,19.1752492 18.8114989,19.0275006 19.0335,18.8985 C19.2555011,18.7694994 19.5449982,18.6637504 19.902,18.58125 C20.2590018,18.4987496 20.6969974,18.4515001 21.216,18.4395 L21.216,18.084 C21.216,17.7299982 21.1395008,17.4622509 20.9865,17.28075 C20.8334992,17.0992491 20.6100015,17.0085 20.316,17.0085 C20.117999,17.0085 19.9522507,17.0332498 19.81875,17.08275 C19.6852493,17.1322502 19.5697505,17.1877497 19.47225,17.24925 C19.3747495,17.3107503 19.2907504,17.3662498 19.22025,17.41575 C19.1497497,17.4652502 19.0800004,17.49 19.011,17.49 C18.9569997,17.49 18.9105002,17.4757501 18.8715,17.44725 C18.8324998,17.4187499 18.7995001,17.3835002 18.7725,17.3415 L18.6285,17.085 Z M24.779,17.355 C24.9230007,17.0429984 25.099999,16.7992509 25.31,16.62375 C25.5200011,16.4482491 25.7764985,16.3605 26.0795,16.3605 C26.1755005,16.3605 26.2677496,16.3709999 26.35625,16.392 C26.4447505,16.4130001 26.5234997,16.4459998 26.5925,16.491 L26.534,17.0895 C26.5159999,17.1645004 26.4710004,17.202 26.399,17.202 C26.3569998,17.202 26.2955004,17.1930001 26.2145,17.175 C26.1334996,17.1569999 26.0420005,17.148 25.94,17.148 C25.7959993,17.148 25.6677506,17.1689998 25.55525,17.211 C25.4427495,17.2530002 25.3422505,17.3152496 25.25375,17.39775 C25.1652496,17.4802504 25.0857504,17.5822494 25.01525,17.70375 C24.9447497,17.8252506 24.8810003,17.9639992 24.824,18.12 L24.824,21 L24.0185,21 L24.0185,16.4415 L24.4775,16.4415 C24.5645005,16.4415 24.6244999,16.4579998 24.6575,16.491 C24.6905002,16.5240002 24.713,16.5809996 24.725,16.662 L24.779,17.355 Z M31.3005364,17.313931 C31.3662405,17.151079 31.4503109,17.01027 31.55275,16.8915 C31.6562506,16.7714994 31.7724994,16.6725004 31.9015,16.5945 C32.0305007,16.5164996 32.1677493,16.4595002 32.31325,16.4235 C32.4587508,16.3874998 32.6064993,16.3695 32.7565,16.3695 C32.9965012,16.3695 33.2102491,16.4077496 33.39775,16.48425 C33.585251,16.5607504 33.7442494,16.6724993 33.87475,16.8195 C34.0052507,16.9665007 34.1049997,17.1472489 34.174,17.36175 C34.2430004,17.5762511 34.2775,17.8214986 34.2775,18.0975 L34.2775,21 L33.472,21 L33.472,18.0975 C33.472,17.7404982 33.3940008,17.4697509 33.238,17.28525 C33.0819993,17.1007491 32.8570015,17.0085 32.563,17.0085 C32.4309994,17.0085 32.3057506,17.0317498 32.18725,17.07825 C32.0687494,17.1247502 31.9645005,17.1929996 31.8745,17.283 C31.7844996,17.3730004 31.7132503,17.4862493 31.66075,17.62275 C31.6082498,17.7592507 31.582,17.9174991 31.582,18.0975 L31.582,21 L30.7765,21 L30.7765,18.0975 C30.7765,17.7314982 30.7030008,17.4585009 30.556,17.2785 C30.4089993,17.0984991 30.1945014,17.0085 29.9125,17.0085 C29.714499,17.0085 29.5315009,17.0617495 29.3635,17.16825 C29.1954992,17.2747505 29.0410007,17.4194991 28.9,17.6025 L28.9,21 L28.0945,21 L28.0945,16.4415 L28.576,16.4415 C28.6900006,16.4415 28.7604999,16.4969994 28.7875,16.608 L28.846,17.076 C29.0140009,16.868999 29.202999,16.6995007 29.413,16.5675 C29.6230011,16.4354993 29.8659987,16.3695 30.142,16.3695 C30.4480016,16.3695 30.6962491,16.4549991 30.88675,16.626 C31.0772491,16.7969992 31.214497,17.0279941 31.2984976,17.3189915 L31.3005364,17.313931 Z" id="Warm" fill="#000000" fill-rule="nonzero"></path>
        <path d="M56.548,14.5515 L56.548,21 L56.1115,21 C56.0424997,21 55.9847502,20.9880001 55.93825,20.964 C55.8917498,20.9399999 55.8460002,20.8995003 55.801,20.8425 L52.0705,15.9825 C52.0765,16.0575004 52.081,16.1309996 52.084,16.203 C52.087,16.2750004 52.0885,16.3424997 52.0885,16.4055 L52.0885,21 L51.3235,21 L51.3235,14.5515 L51.7735,14.5515 C51.8125002,14.5515 51.8454999,14.55375 51.8725,14.55825 C51.8995001,14.56275 51.9234999,14.5702499 51.9445,14.58075 C51.9655001,14.5912501 51.9864999,14.6062499 52.0075,14.62575 C52.0285001,14.6452501 52.0509999,14.6699998 52.075,14.7 L55.8055,19.5555 C55.7995,19.4774996 55.79425,19.4017504 55.78975,19.32825 C55.78525,19.2547496 55.783,19.1850003 55.783,19.119 L55.783,14.5515 L56.548,14.5515 Z M61.6175,18.2235 C61.6175,18.0374991 61.5912503,17.8672508 61.53875,17.71275 C61.4862497,17.5582492 61.4097505,17.4247506 61.30925,17.31225 C61.2087495,17.1997494 61.0865007,17.1127503 60.9425,17.05125 C60.7984993,16.9897497 60.6350009,16.959 60.452,16.959 C60.0679981,16.959 59.7642511,17.0707489 59.54075,17.29425 C59.3172489,17.5177511 59.1785003,17.827498 59.1245,18.2235 L61.6175,18.2235 Z M62.2655,20.361 C62.1664995,20.4810006 62.0480007,20.5852496 61.91,20.67375 C61.7719993,20.7622504 61.6242508,20.8349997 61.46675,20.892 C61.3092492,20.9490003 61.1465008,20.9917499 60.9785,21.02025 C60.8104991,21.0487501 60.6440008,21.063 60.479,21.063 C60.1639984,21.063 59.8737513,21.0097505 59.60825,20.90325 C59.3427487,20.7967495 59.113251,20.640751 58.91975,20.43525 C58.726249,20.229749 58.5755005,19.9755015 58.4675,19.6725 C58.3594994,19.3694985 58.3055,19.021502 58.3055,18.6285 C58.3055,18.3104984 58.3542495,18.0135014 58.45175,17.7375 C58.5492505,17.4614986 58.6894991,17.222251 58.8725,17.01975 C59.0555009,16.817249 59.2789987,16.6582506 59.543,16.54275 C59.8070013,16.4272494 60.1039983,16.3695 60.434,16.3695 C60.7070014,16.3695 60.9597488,16.4152495 61.19225,16.50675 C61.4247512,16.5982505 61.6257491,16.7302491 61.79525,16.90275 C61.9647508,17.0752509 62.0974995,17.2882487 62.1935,17.54175 C62.2895005,17.7952513 62.3375,18.0839984 62.3375,18.408 C62.3375,18.5340006 62.3240001,18.6179998 62.297,18.66 C62.2699999,18.7020002 62.2190004,18.723 62.144,18.723 L59.0975,18.723 C59.1065,19.0110014 59.1462496,19.2614989 59.21675,19.4745 C59.2872503,19.6875011 59.3854994,19.8652493 59.5115,20.00775 C59.6375006,20.1502507 59.7874991,20.2567496 59.9615,20.32725 C60.1355009,20.3977504 60.3304989,20.433 60.5465,20.433 C60.747501,20.433 60.9207493,20.4097502 61.06625,20.36325 C61.2117507,20.3167498 61.3369995,20.2665003 61.442,20.2125 C61.5470005,20.1584997 61.6347496,20.1082502 61.70525,20.06175 C61.7757503,20.0152498 61.8364997,19.992 61.8875,19.992 C61.9535003,19.992 62.0044998,20.0174997 62.0405,20.0685 L62.2655,20.361 Z M67.767,16.4415 L67.767,21 L67.29,21 C67.1759994,21 67.1040001,20.9445006 67.074,20.8335 L67.011,20.343 C66.812999,20.5620011 66.5910012,20.7382493 66.345,20.87175 C66.0989987,21.0052507 65.8170016,21.072 65.499,21.072 C65.2499987,21.072 65.0302509,21.0307504 64.83975,20.94825 C64.649249,20.8657496 64.4895006,20.7495007 64.3605,20.5995 C64.2314993,20.4494992 64.1347503,20.2680011 64.07025,20.055 C64.0057497,19.8419989 63.9735,19.6065013 63.9735,19.3485 L63.9735,16.4415 L64.7745,16.4415 L64.7745,19.3485 C64.7745,19.6935017 64.8532492,19.9604991 65.01075,20.1495 C65.1682508,20.3385009 65.4089984,20.433 65.733,20.433 C65.9700012,20.433 66.1912489,20.3767506 66.39675,20.26425 C66.602251,20.1517494 66.7919991,19.996501 66.966,19.7985 L66.966,16.4415 L67.767,16.4415 Z M71.1355,21.072 C70.7754982,21.072 70.4987509,20.971501 70.30525,20.7705 C70.111749,20.569499 70.015,20.2800019 70.015,19.902 L70.015,17.112 L69.466,17.112 C69.4179997,17.112 69.3775001,17.0977501 69.3445,17.06925 C69.3114998,17.0407499 69.295,16.9965003 69.295,16.9365 L69.295,16.617 L70.042,16.5225 L70.2265,15.114 C70.2355,15.0689998 70.2557498,15.0322501 70.28725,15.00375 C70.3187501,14.9752499 70.3599997,14.961 70.411,14.961 L70.816,14.961 L70.816,16.5315 L72.1345,16.5315 L72.1345,17.112 L70.816,17.112 L70.816,19.848 C70.816,20.040001 70.8624995,20.1824995 70.9555,20.2755 C71.0485004,20.3685005 71.1684992,20.415 71.3155,20.415 C71.3995004,20.415 71.4722497,20.4037501 71.53375,20.38125 C71.5952503,20.3587499 71.6484997,20.3340001 71.6935,20.307 C71.7385002,20.2799999 71.7767498,20.2552501 71.80825,20.23275 C71.8397501,20.2102499 71.8674998,20.199 71.8915,20.199 C71.9335002,20.199 71.9709998,20.2244997 72.004,20.2755 L72.238,20.658 C72.0999993,20.7870006 71.9335009,20.8882496 71.7385,20.96175 C71.543499,21.0352504 71.342501,21.072 71.1355,21.072 Z M74.423,17.355 C74.5670007,17.0429984 74.7439989,16.7992509 74.954,16.62375 C75.164001,16.4482491 75.4204984,16.3605 75.7235,16.3605 C75.8195004,16.3605 75.9117495,16.3709999 76.00025,16.392 C76.0887504,16.4130001 76.1674996,16.4459998 76.2365,16.491 L76.178,17.0895 C76.1599999,17.1645004 76.1150003,17.202 76.043,17.202 C76.0009997,17.202 75.9395004,17.1930001 75.8585,17.175 C75.7774995,17.1569999 75.6860005,17.148 75.584,17.148 C75.4399992,17.148 75.3117505,17.1689998 75.19925,17.211 C75.0867494,17.2530002 74.9862504,17.3152496 74.89775,17.39775 C74.8092495,17.4802504 74.7297503,17.5822494 74.65925,17.70375 C74.5887496,17.8252506 74.5250002,17.9639992 74.468,18.12 L74.468,21 L73.6625,21 L73.6625,16.4415 L74.1215,16.4415 C74.2085004,16.4415 74.2684998,16.4579998 74.3015,16.491 C74.3345001,16.5240002 74.3569999,16.5809996 74.369,16.662 L74.423,17.355 Z M80.0369999,18.948 C79.6679981,18.9600001 79.3537512,18.9892498 79.0942499,19.03575 C78.8347486,19.0822502 78.6232508,19.1429996 78.4597499,19.218 C78.2962491,19.2930004 78.1777503,19.3814995 78.1042499,19.4835 C78.0307496,19.5855005 77.9939999,19.6994994 77.9939999,19.8255 C77.9939999,19.9455006 78.0134997,20.0489996 78.0524999,20.136 C78.0915001,20.2230004 78.1447496,20.2942497 78.2122499,20.34975 C78.2797503,20.4052503 78.3592495,20.4457499 78.4507499,20.47125 C78.5422504,20.4967501 78.6404994,20.5095 78.7454999,20.5095 C78.8865006,20.5095 79.0154994,20.4952501 79.1324999,20.46675 C79.2495005,20.4382499 79.3597494,20.3970003 79.4632499,20.343 C79.5667505,20.2889997 79.6657495,20.2245004 79.7602499,20.1495 C79.8547504,20.0744996 79.9469995,19.9890005 80.0369999,19.893 L80.0369999,18.948 Z M77.4494999,17.085 C77.7015012,16.8419988 77.9729985,16.6605006 78.2639999,16.5405 C78.5550014,16.4204994 78.8774982,16.3605 79.2314999,16.3605 C79.4865012,16.3605 79.712999,16.4024996 79.9109999,16.4865 C80.1090009,16.5705004 80.2754993,16.6874992 80.4104999,16.8375 C80.5455006,16.9875007 80.6474996,17.1689989 80.7164999,17.382 C80.7855003,17.5950011 80.8199999,17.8289987 80.8199999,18.084 L80.8199999,21 L80.4644999,21 C80.3864996,21 80.3265002,20.9872501 80.2844999,20.96175 C80.2424997,20.9362499 80.2095001,20.8860004 80.1854999,20.811 L80.0954999,20.379 C79.9754993,20.4900006 79.8585005,20.5882496 79.7444999,20.67375 C79.6304994,20.7592504 79.5105006,20.8312497 79.3844999,20.88975 C79.2584993,20.9482503 79.1242507,20.9932498 78.9817499,21.02475 C78.8392492,21.0562502 78.6810008,21.072 78.5069999,21.072 C78.3299991,21.072 78.1635007,21.0472502 78.0074999,20.99775 C77.8514992,20.9482498 77.7157505,20.8740005 77.6002499,20.775 C77.4847494,20.6759995 77.3932503,20.5507508 77.3257499,20.39925 C77.2582496,20.2477492 77.2244999,20.068501 77.2244999,19.8615 C77.2244999,19.6814991 77.2739994,19.5082508 77.3729999,19.34175 C77.4720004,19.1752492 77.6324988,19.0275006 77.8544999,18.8985 C78.0765011,18.7694994 78.3659982,18.6637504 78.7229999,18.58125 C79.0800017,18.4987496 79.5179973,18.4515001 80.0369999,18.4395 L80.0369999,18.084 C80.0369999,17.7299982 79.9605007,17.4622509 79.8074999,17.28075 C79.6544992,17.0992491 79.4310014,17.0085 79.1369999,17.0085 C78.938999,17.0085 78.7732506,17.0332498 78.6397499,17.08275 C78.5062493,17.1322502 78.3907504,17.1877497 78.2932499,17.24925 C78.1957495,17.3107503 78.1117503,17.3662498 78.0412499,17.41575 C77.9707496,17.4652502 77.9010003,17.49 77.8319999,17.49 C77.7779997,17.49 77.7315001,17.4757501 77.6924999,17.44725 C77.6534997,17.4187499 77.6205001,17.3835002 77.5934999,17.3415 L77.4494999,17.085 Z M83.5674999,14.3715 L83.5674999,21 L82.7664999,21 L82.7664999,14.3715 L83.5674999,14.3715 Z" id="Neutral" fill="#000000" fill-rule="nonzero"></path>
        <path d="M101.587,20.307 C101.836001,20.307 102.050499,20.2785003 102.2305,20.2215 C102.410501,20.1644997 102.558249,20.0842505 102.67375,19.98075 C102.789251,19.8772495 102.874,19.7542507 102.928,19.61175 C102.982,19.4692493 103.009,19.3125009 103.009,19.1415 C103.009,18.8084983 102.890501,18.545251 102.6535,18.35175 C102.416499,18.158249 102.061002,18.0615 101.587,18.0615 L100.192,18.0615 L100.192,20.307 L101.587,20.307 Z M100.192,15.24 L100.192,17.4405 L101.344,17.4405 C101.590001,17.4405 101.803749,17.4135003 101.98525,17.3595 C102.166751,17.3054997 102.316749,17.2305005 102.43525,17.1345 C102.553751,17.0384995 102.6415,16.9222507 102.6985,16.78575 C102.7555,16.6492493 102.784,16.5000008 102.784,16.338 C102.784,15.9569981 102.670001,15.6787509 102.442,15.50325 C102.213999,15.3277491 101.860002,15.24 101.38,15.24 L100.192,15.24 Z M101.38,14.5515 C101.776002,14.5515 102.117249,14.5904996 102.40375,14.6685 C102.690251,14.7465004 102.925749,14.8574993 103.11025,15.0015 C103.294751,15.1455007 103.4305,15.321749 103.5175,15.53025 C103.6045,15.738751 103.648,15.9734987 103.648,16.2345 C103.648,16.3935008 103.62325,16.5457493 103.57375,16.69125 C103.52425,16.8367507 103.45,16.9724994 103.351,17.0985 C103.252,17.2245006 103.126751,17.3377495 102.97525,17.43825 C102.823749,17.5387505 102.646001,17.6204997 102.442,17.6835 C102.916002,17.7735005 103.272249,17.9422488 103.51075,18.18975 C103.749251,18.4372512 103.8685,18.761998 103.8685,19.164 C103.8685,19.4370014 103.818251,19.6859989 103.71775,19.911 C103.617249,20.1360011 103.470251,20.3294992 103.27675,20.4915 C103.083249,20.6535008 102.845501,20.7787496 102.5635,20.86725 C102.281499,20.9557504 101.960502,21 101.6005,21 L99.3235,21 L99.3235,14.5515 L101.38,14.5515 Z M106.3145,17.355 C106.458501,17.0429984 106.635499,16.7992509 106.8455,16.62375 C107.055501,16.4482491 107.311998,16.3605 107.615,16.3605 C107.711,16.3605 107.80325,16.3709999 107.89175,16.392 C107.98025,16.4130001 108.059,16.4459998 108.128,16.491 L108.0695,17.0895 C108.0515,17.1645004 108.0065,17.202 107.9345,17.202 C107.8925,17.202 107.831,17.1930001 107.75,17.175 C107.669,17.1569999 107.5775,17.148 107.4755,17.148 C107.331499,17.148 107.203251,17.1689998 107.09075,17.211 C106.978249,17.2530002 106.87775,17.3152496 106.78925,17.39775 C106.70075,17.4802504 106.62125,17.5822494 106.55075,17.70375 C106.48025,17.8252506 106.4165,17.9639992 106.3595,18.12 L106.3595,21 L105.554,21 L105.554,16.4415 L106.013,16.4415 C106.1,16.4415 106.16,16.4579998 106.193,16.491 C106.226,16.5240002 106.2485,16.5809996 106.2605,16.662 L106.3145,17.355 Z M110.376,16.4415 L110.376,21 L109.575,21 L109.575,16.4415 L110.376,16.4415 Z M110.547,15.0105 C110.547,15.0885004 110.53125,15.1612497 110.49975,15.22875 C110.46825,15.2962503 110.42625,15.3562497 110.37375,15.40875 C110.32125,15.4612503 110.25975,15.5024998 110.18925,15.5325 C110.11875,15.5625001 110.0445,15.5775 109.9665,15.5775 C109.8885,15.5775 109.81575,15.5625001 109.74825,15.5325 C109.68075,15.5024998 109.6215,15.4612503 109.5705,15.40875 C109.5195,15.3562497 109.479,15.2962503 109.449,15.22875 C109.419,15.1612497 109.404,15.0885004 109.404,15.0105 C109.404,14.9324996 109.419,14.8582504 109.449,14.78775 C109.479,14.7172496 109.5195,14.6557503 109.5705,14.60325 C109.6215,14.5507497 109.68075,14.5095001 109.74825,14.4795 C109.81575,14.4494998 109.8885,14.4345 109.9665,14.4345 C110.0445,14.4345 110.11875,14.4494998 110.18925,14.4795 C110.25975,14.5095001 110.32125,14.5507497 110.37375,14.60325 C110.42625,14.6557503 110.46825,14.7172496 110.49975,14.78775 C110.53125,14.8582504 110.547,14.9324996 110.547,15.0105 Z M113.9785,18.7725 C114.140501,18.7725 114.282999,18.7500002 114.406,18.705 C114.529001,18.6599998 114.6325,18.5970004 114.7165,18.516 C114.8005,18.4349996 114.8635,18.3382506 114.9055,18.22575 C114.9475,18.1132494 114.9685,17.9895007 114.9685,17.8545 C114.9685,17.5754986 114.883751,17.3535008 114.71425,17.1885 C114.544749,17.0234992 114.299502,16.941 113.9785,16.941 C113.654498,16.941 113.407751,17.0234992 113.23825,17.1885 C113.068749,17.3535008 112.984,17.5754986 112.984,17.8545 C112.984,17.9895007 113.00575,18.1132494 113.04925,18.22575 C113.09275,18.3382506 113.1565,18.4349996 113.2405,18.516 C113.3245,18.5970004 113.427999,18.6599998 113.551,18.705 C113.674001,18.7500002 113.816499,18.7725 113.9785,18.7725 Z M115.423,21.2475 C115.423,21.1364994 115.3915,21.0465003 115.3285,20.9775 C115.2655,20.9084997 115.18075,20.8545002 115.07425,20.8155 C114.967749,20.7764998 114.844001,20.7487501 114.703,20.73225 C114.561999,20.7157499 114.412751,20.703 114.25525,20.694 C114.097749,20.685 113.938001,20.676 113.776,20.667 C113.613999,20.658 113.458001,20.6430001 113.308,20.622 C113.139999,20.7000004 113.00275,20.7982494 112.89625,20.91675 C112.789749,21.0352506 112.7365,21.1739992 112.7365,21.333 C112.7365,21.4350005 112.76275,21.5302496 112.81525,21.61875 C112.86775,21.7072504 112.947999,21.7837497 113.056,21.84825 C113.164001,21.9127503 113.299749,21.9637498 113.46325,22.00125 C113.626751,22.0387502 113.819499,22.0575 114.0415,22.0575 C114.257501,22.0575 114.450999,22.0380002 114.622,21.999 C114.793001,21.9599998 114.937749,21.9045004 115.05625,21.8325 C115.174751,21.7604996 115.2655,21.6750005 115.3285,21.576 C115.3915,21.4769995 115.423,21.3675006 115.423,21.2475 Z M116.2375,16.6215 L116.2375,16.9185 C116.2375,17.0175005 116.174501,17.0804999 116.0485,17.1075 L115.531,17.175 C115.633,17.373001 115.684,17.5919988 115.684,17.832 C115.684,18.0540011 115.64125,18.2557491 115.55575,18.43725 C115.47025,18.6187509 115.352501,18.7739994 115.2025,18.903 C115.052499,19.0320006 114.872501,19.1309997 114.6625,19.2 C114.452499,19.2690003 114.224501,19.3035 113.9785,19.3035 C113.765499,19.3035 113.564501,19.2780003 113.3755,19.227 C113.279499,19.2870003 113.206,19.3507497 113.155,19.41825 C113.104,19.4857503 113.0785,19.5539997 113.0785,19.623 C113.0785,19.7310005 113.12275,19.8127497 113.21125,19.86825 C113.29975,19.9237503 113.415999,19.9634999 113.56,19.9875 C113.704001,20.0115001 113.868249,20.0265 114.05275,20.0325 C114.237251,20.0385 114.426249,20.0482499 114.61975,20.06175 C114.813251,20.0752501 115.002249,20.0984998 115.18675,20.1315 C115.371251,20.1645002 115.535499,20.2184996 115.6795,20.2935 C115.823501,20.3685004 115.93975,20.4719993 116.02825,20.604 C116.11675,20.7360007 116.161,20.9069989 116.161,21.117 C116.161,21.312001 116.11225,21.5009991 116.01475,21.684 C115.917249,21.8670009 115.777001,22.0297493 115.594,22.17225 C115.410999,22.3147507 115.186751,22.4287496 114.92125,22.51425 C114.655749,22.5997504 114.356502,22.6425 114.0235,22.6425 C113.690498,22.6425 113.399501,22.6095003 113.1505,22.5435 C112.901499,22.4774997 112.694501,22.3890006 112.5295,22.278 C112.364499,22.1669994 112.24075,22.0387507 112.15825,21.89325 C112.07575,21.7477493 112.0345,21.5955008 112.0345,21.4365 C112.0345,21.2114989 112.104999,21.0210008 112.246,20.865 C112.387001,20.7089992 112.580499,20.5845005 112.8265,20.4915 C112.691499,20.4314997 112.58425,20.3512505 112.50475,20.25075 C112.42525,20.1502495 112.3855,20.0145009 112.3855,19.8435 C112.3855,19.7774997 112.3975,19.7092504 112.4215,19.63875 C112.4455,19.5682496 112.48225,19.4977504 112.53175,19.42725 C112.58125,19.3567496 112.642,19.2900003 112.714,19.227 C112.786,19.1639997 112.869999,19.1085002 112.966,19.0605 C112.740999,18.9344994 112.565501,18.767251 112.4395,18.55875 C112.313499,18.350249 112.2505,18.1080014 112.2505,17.832 C112.2505,17.6099989 112.29325,17.4082509 112.37875,17.22675 C112.46425,17.0452491 112.583499,16.8907506 112.7365,16.76325 C112.889501,16.6357494 113.071749,16.5375003 113.28325,16.4685 C113.494751,16.3994997 113.726499,16.365 113.9785,16.365 C114.176501,16.365 114.360999,16.3867498 114.532,16.43025 C114.703001,16.4737502 114.858999,16.5374996 115,16.6215 L116.2375,16.6215 Z M118.5755,17.049 C118.770501,16.841999 118.986499,16.6770006 119.2235,16.554 C119.460501,16.4309994 119.733498,16.3695 120.0425,16.3695 C120.291501,16.3695 120.511249,16.4107496 120.70175,16.49325 C120.892251,16.5757504 121.051249,16.6927492 121.17875,16.84425 C121.306251,16.9957508 121.403,17.1779989 121.469,17.391 C121.535,17.6040011 121.568,17.8394987 121.568,18.0975 L121.568,21 L120.7625,21 L120.7625,18.0975 C120.7625,17.7524983 120.683751,17.484751 120.52625,17.29425 C120.368749,17.103749 120.129502,17.0085 119.8085,17.0085 C119.571499,17.0085 119.350251,17.0654994 119.14475,17.1795 C118.939249,17.2935006 118.749501,17.447999 118.5755,17.643 L118.5755,21 L117.77,21 L117.77,14.3715 L118.5755,14.3715 L118.5755,17.049 Z M124.8285,21.072 C124.468498,21.072 124.191751,20.971501 123.99825,20.7705 C123.804749,20.569499 123.708,20.2800019 123.708,19.902 L123.708,17.112 L123.159,17.112 C123.111,17.112 123.0705,17.0977501 123.0375,17.06925 C123.0045,17.0407499 122.988,16.9965003 122.988,16.9365 L122.988,16.617 L123.735,16.5225 L123.9195,15.114 C123.9285,15.0689998 123.94875,15.0322501 123.98025,15.00375 C124.01175,14.9752499 124.053,14.961 124.104,14.961 L124.509,14.961 L124.509,16.5315 L125.8275,16.5315 L125.8275,17.112 L124.509,17.112 L124.509,19.848 C124.509,20.040001 124.555499,20.1824995 124.6485,20.2755 C124.7415,20.3685005 124.861499,20.415 125.0085,20.415 C125.0925,20.415 125.16525,20.4037501 125.22675,20.38125 C125.28825,20.3587499 125.3415,20.3340001 125.3865,20.307 C125.4315,20.2799999 125.46975,20.2552501 125.50125,20.23275 C125.53275,20.2102499 125.5605,20.199 125.5845,20.199 C125.6265,20.199 125.664,20.2244997 125.697,20.2755 L125.931,20.658 C125.792999,20.7870006 125.626501,20.8882496 125.4315,20.96175 C125.236499,21.0352504 125.035501,21.072 124.8285,21.072 Z" id="Bright" fill="#000000" fill-rule="nonzero"></path>
        <path d="M17.68,26.5515 L15.6685,33 L14.8855,33 L13.252,28.0815 C13.2369999,28.0334998 13.2227501,27.9825003 13.20925,27.9285 L13.1665,27.7575 C13.1514999,27.8175003 13.1365001,27.8744997 13.1215,27.9285 C13.1064999,27.9825003 13.0915001,28.0334998 13.0765,28.0815 L11.434,33 L10.651,33 L8.6395,26.5515 L9.364,26.5515 C9.44200039,26.5515 9.50724974,26.5709998 9.55975,26.61 C9.61225026,26.6490002 9.64599992,26.6984997 9.661,26.7585 L10.993,31.2405 C11.0140001,31.3215004 11.0342499,31.4084995 11.05375,31.5015 C11.0732501,31.5945005 11.0919999,31.6934995 11.11,31.7985 C11.1310001,31.6934995 11.1527499,31.5937505 11.17525,31.49925 C11.1977501,31.4047495 11.2224999,31.3185004 11.2495,31.2405 L12.766,26.7585 C12.7840001,26.7074997 12.8192497,26.6602502 12.87175,26.61675 C12.9242503,26.5732498 12.9879996,26.5515 13.063,26.5515 L13.315,26.5515 C13.3930004,26.5515 13.4559998,26.5709998 13.504,26.61 C13.5520002,26.6490002 13.5879999,26.6984997 13.612,26.7585 L15.124,31.2405 C15.1510001,31.3185004 15.1757499,31.4024995 15.19825,31.4925 C15.2207501,31.5825004 15.2424999,31.6769995 15.2635,31.776 C15.2785001,31.6769995 15.2949999,31.5825004 15.313,31.4925 C15.3310001,31.4024995 15.3504999,31.3185004 15.3715,31.2405 L16.708,26.7585 C16.7230001,26.7044997 16.7567497,26.6565002 16.80925,26.6145 C16.8617503,26.5724998 16.9254996,26.5515 17.0005,26.5515 L17.68,26.5515 Z M21.216,30.948 C20.8469982,30.9600001 20.5327513,30.9892498 20.27325,31.03575 C20.0137487,31.0822502 19.8022508,31.1429996 19.63875,31.218 C19.4752492,31.2930004 19.3567504,31.3814995 19.28325,31.4835 C19.2097496,31.5855005 19.173,31.6994994 19.173,31.8255 C19.173,31.9455006 19.1924998,32.0489996 19.2315,32.136 C19.2705002,32.2230004 19.3237497,32.2942497 19.39125,32.34975 C19.4587503,32.4052503 19.5382496,32.4457499 19.62975,32.47125 C19.7212505,32.4967501 19.8194995,32.5095 19.9245,32.5095 C20.0655007,32.5095 20.1944994,32.4952501 20.3115,32.46675 C20.4285006,32.4382499 20.5387495,32.3970003 20.64225,32.343 C20.7457505,32.2889997 20.8447495,32.2245004 20.93925,32.1495 C21.0337505,32.0744996 21.1259996,31.9890005 21.216,31.893 L21.216,30.948 Z M18.6285,29.085 C18.8805013,28.8419988 19.1519986,28.6605006 19.443,28.5405 C19.7340015,28.4204994 20.0564982,28.3605 20.4105,28.3605 C20.6655013,28.3605 20.891999,28.4024996 21.09,28.4865 C21.288001,28.5705004 21.4544993,28.6874992 21.5895,28.8375 C21.7245007,28.9875007 21.8264997,29.1689989 21.8955,29.382 C21.9645004,29.5950011 21.999,29.8289987 21.999,30.084 L21.999,33 L21.6435,33 C21.5654996,33 21.5055002,32.9872501 21.4635,32.96175 C21.4214998,32.9362499 21.3885001,32.8860004 21.3645,32.811 L21.2745,32.379 C21.1544994,32.4900006 21.0375006,32.5882496 20.9235,32.67375 C20.8094994,32.7592504 20.6895006,32.8312497 20.5635,32.88975 C20.4374994,32.9482503 20.3032507,32.9932498 20.16075,33.02475 C20.0182493,33.0562502 19.8600009,33.072 19.686,33.072 C19.5089991,33.072 19.3425008,33.0472502 19.1865,32.99775 C19.0304992,32.9482498 18.8947506,32.8740005 18.77925,32.775 C18.6637494,32.6759995 18.5722503,32.5507508 18.50475,32.39925 C18.4372497,32.2477492 18.4035,32.068501 18.4035,31.8615 C18.4035,31.6814991 18.4529995,31.5082508 18.552,31.34175 C18.6510005,31.1752492 18.8114989,31.0275006 19.0335,30.8985 C19.2555011,30.7694994 19.5449982,30.6637504 19.902,30.58125 C20.2590018,30.4987496 20.6969974,30.4515001 21.216,30.4395 L21.216,30.084 C21.216,29.7299982 21.1395008,29.4622509 20.9865,29.28075 C20.8334992,29.0992491 20.6100015,29.0085 20.316,29.0085 C20.117999,29.0085 19.9522507,29.0332498 19.81875,29.08275 C19.6852493,29.1322502 19.5697505,29.1877497 19.47225,29.24925 C19.3747495,29.3107503 19.2907504,29.3662498 19.22025,29.41575 C19.1497497,29.4652502 19.0800004,29.49 19.011,29.49 C18.9569997,29.49 18.9105002,29.4757501 18.8715,29.44725 C18.8324998,29.4187499 18.7995001,29.3835002 18.7725,29.3415 L18.6285,29.085 Z M24.779,29.355 C24.9230007,29.0429984 25.099999,28.7992509 25.31,28.62375 C25.5200011,28.4482491 25.7764985,28.3605 26.0795,28.3605 C26.1755005,28.3605 26.2677496,28.3709999 26.35625,28.392 C26.4447505,28.4130001 26.5234997,28.4459998 26.5925,28.491 L26.534,29.0895 C26.5159999,29.1645004 26.4710004,29.202 26.399,29.202 C26.3569998,29.202 26.2955004,29.1930001 26.2145,29.175 C26.1334996,29.1569999 26.0420005,29.148 25.94,29.148 C25.7959993,29.148 25.6677506,29.1689998 25.55525,29.211 C25.4427495,29.2530002 25.3422505,29.3152496 25.25375,29.39775 C25.1652496,29.4802504 25.0857504,29.5822494 25.01525,29.70375 C24.9447497,29.8252506 24.8810003,29.9639992 24.824,30.12 L24.824,33 L24.0185,33 L24.0185,28.4415 L24.4775,28.4415 C24.5645005,28.4415 24.6244999,28.4579998 24.6575,28.491 C24.6905002,28.5240002 24.713,28.5809996 24.725,28.662 L24.779,29.355 Z M31.3005364,29.313931 C31.3662405,29.151079 31.4503109,29.01027 31.55275,28.8915 C31.6562506,28.7714994 31.7724994,28.6725004 31.9015,28.5945 C32.0305007,28.5164996 32.1677493,28.4595002 32.31325,28.4235 C32.4587508,28.3874998 32.6064993,28.3695 32.7565,28.3695 C32.9965012,28.3695 33.2102491,28.4077496 33.39775,28.48425 C33.585251,28.5607504 33.7442494,28.6724993 33.87475,28.8195 C34.0052507,28.9665007 34.1049997,29.1472489 34.174,29.36175 C34.2430004,29.5762511 34.2775,29.8214986 34.2775,30.0975 L34.2775,33 L33.472,33 L33.472,30.0975 C33.472,29.7404982 33.3940008,29.4697509 33.238,29.28525 C33.0819993,29.1007491 32.8570015,29.0085 32.563,29.0085 C32.4309994,29.0085 32.3057506,29.0317498 32.18725,29.07825 C32.0687494,29.1247502 31.9645005,29.1929995 31.8745,29.283 C31.7844996,29.3730004 31.7132503,29.4862493 31.66075,29.62275 C31.6082498,29.7592507 31.582,29.9174991 31.582,30.0975 L31.582,33 L30.7765,33 L30.7765,30.0975 C30.7765,29.7314982 30.7030008,29.4585009 30.556,29.2785 C30.4089993,29.0984991 30.1945014,29.0085 29.9125,29.0085 C29.714499,29.0085 29.5315009,29.0617495 29.3635,29.16825 C29.1954992,29.2747505 29.0410007,29.4194991 28.9,29.6025 L28.9,33 L28.0945,33 L28.0945,28.4415 L28.576,28.4415 C28.6900006,28.4415 28.7604999,28.4969994 28.7875,28.608 L28.846,29.076 C29.0140009,28.868999 29.202999,28.6995007 29.413,28.5675 C29.6230011,28.4354993 29.8659987,28.3695 30.142,28.3695 C30.4480016,28.3695 30.6962491,28.4549991 30.88675,28.626 C31.0772491,28.7969992 31.214497,29.0279941 31.2984976,29.3189915 L31.3005364,29.313931 Z" id="Warm" fill="#000000" fill-rule="nonzero"></path>
        <path d="M56.548,26.5515 L56.548,33 L56.1115,33 C56.0424997,33 55.9847502,32.9880001 55.93825,32.964 C55.8917498,32.9399999 55.8460002,32.8995003 55.801,32.8425 L52.0705,27.9825 C52.0765,28.0575004 52.081,28.1309996 52.084,28.203 C52.087,28.2750004 52.0885,28.3424997 52.0885,28.4055 L52.0885,33 L51.3235,33 L51.3235,26.5515 L51.7735,26.5515 C51.8125002,26.5515 51.8454999,26.55375 51.8725,26.55825 C51.8995001,26.56275 51.9234999,26.5702499 51.9445,26.58075 C51.9655001,26.5912501 51.9864999,26.6062499 52.0075,26.62575 C52.0285001,26.6452501 52.0509999,26.6699998 52.075,26.7 L55.8055,31.5555 C55.7995,31.4774996 55.79425,31.4017504 55.78975,31.32825 C55.78525,31.2547496 55.783,31.1850003 55.783,31.119 L55.783,26.5515 L56.548,26.5515 Z M61.6175,30.2235 C61.6175,30.0374991 61.5912503,29.8672508 61.53875,29.71275 C61.4862497,29.5582492 61.4097505,29.4247506 61.30925,29.31225 C61.2087495,29.1997494 61.0865007,29.1127503 60.9425,29.05125 C60.7984993,28.9897497 60.6350009,28.959 60.452,28.959 C60.0679981,28.959 59.7642511,29.0707489 59.54075,29.29425 C59.3172489,29.5177511 59.1785003,29.827498 59.1245,30.2235 L61.6175,30.2235 Z M62.2655,32.361 C62.1664995,32.4810006 62.0480007,32.5852496 61.91,32.67375 C61.7719993,32.7622504 61.6242508,32.8349997 61.46675,32.892 C61.3092492,32.9490003 61.1465008,32.9917499 60.9785,33.02025 C60.8104991,33.0487501 60.6440008,33.063 60.479,33.063 C60.1639984,33.063 59.8737513,33.0097505 59.60825,32.90325 C59.3427487,32.7967495 59.113251,32.640751 58.91975,32.43525 C58.726249,32.229749 58.5755005,31.9755015 58.4675,31.6725 C58.3594994,31.3694985 58.3055,31.021502 58.3055,30.6285 C58.3055,30.3104984 58.3542495,30.0135014 58.45175,29.7375 C58.5492505,29.4614986 58.6894991,29.222251 58.8725,29.01975 C59.0555009,28.817249 59.2789987,28.6582506 59.543,28.54275 C59.8070013,28.4272494 60.1039983,28.3695 60.434,28.3695 C60.7070014,28.3695 60.9597488,28.4152495 61.19225,28.50675 C61.4247512,28.5982505 61.6257491,28.7302491 61.79525,28.90275 C61.9647508,29.0752509 62.0974995,29.2882487 62.1935,29.54175 C62.2895005,29.7952513 62.3375,30.0839984 62.3375,30.408 C62.3375,30.5340006 62.3240001,30.6179998 62.297,30.66 C62.2699999,30.7020002 62.2190004,30.723 62.144,30.723 L59.0975,30.723 C59.1065,31.0110014 59.1462496,31.2614989 59.21675,31.4745 C59.2872503,31.6875011 59.3854994,31.8652493 59.5115,32.00775 C59.6375006,32.1502507 59.7874991,32.2567496 59.9615,32.32725 C60.1355009,32.3977504 60.3304989,32.433 60.5465,32.433 C60.747501,32.433 60.9207493,32.4097502 61.06625,32.36325 C61.2117507,32.3167498 61.3369995,32.2665003 61.442,32.2125 C61.5470005,32.1584997 61.6347496,32.1082502 61.70525,32.06175 C61.7757503,32.0152498 61.8364997,31.992 61.8875,31.992 C61.9535003,31.992 62.0044998,32.0174997 62.0405,32.0685 L62.2655,32.361 Z M67.767,28.4415 L67.767,33 L67.29,33 C67.1759994,33 67.1040001,32.9445006 67.074,32.8335 L67.011,32.343 C66.812999,32.5620011 66.5910012,32.7382493 66.345,32.87175 C66.0989987,33.0052507 65.8170016,33.072 65.499,33.072 C65.2499987,33.072 65.0302509,33.0307504 64.83975,32.94825 C64.649249,32.8657496 64.4895006,32.7495007 64.3605,32.5995 C64.2314993,32.4494992 64.1347503,32.2680011 64.07025,32.055 C64.0057497,31.8419989 63.9735,31.6065013 63.9735,31.3485 L63.9735,28.4415 L64.7745,28.4415 L64.7745,31.3485 C64.7745,31.6935017 64.8532492,31.9604991 65.01075,32.1495 C65.1682508,32.3385009 65.4089984,32.433 65.733,32.433 C65.9700012,32.433 66.1912489,32.3767506 66.39675,32.26425 C66.602251,32.1517494 66.7919991,31.996501 66.966,31.7985 L66.966,28.4415 L67.767,28.4415 Z M71.1355,33.072 C70.7754982,33.072 70.4987509,32.971501 70.30525,32.7705 C70.111749,32.569499 70.015,32.2800019 70.015,31.902 L70.015,29.112 L69.466,29.112 C69.4179997,29.112 69.3775001,29.0977501 69.3445,29.06925 C69.3114998,29.0407499 69.295,28.9965003 69.295,28.9365 L69.295,28.617 L70.042,28.5225 L70.2265,27.114 C70.2355,27.0689998 70.2557498,27.0322501 70.28725,27.00375 C70.3187501,26.9752499 70.3599997,26.961 70.411,26.961 L70.816,26.961 L70.816,28.5315 L72.1345,28.5315 L72.1345,29.112 L70.816,29.112 L70.816,31.848 C70.816,32.040001 70.8624995,32.1824995 70.9555,32.2755 C71.0485004,32.3685005 71.1684992,32.415 71.3155,32.415 C71.3995004,32.415 71.4722497,32.4037501 71.53375,32.38125 C71.5952503,32.3587499 71.6484997,32.3340001 71.6935,32.307 C71.7385002,32.2799999 71.7767498,32.2552501 71.80825,32.23275 C71.8397501,32.2102499 71.8674998,32.199 71.8915,32.199 C71.9335002,32.199 71.9709998,32.2244997 72.004,32.2755 L72.238,32.658 C72.0999993,32.7870006 71.9335009,32.8882496 71.7385,32.96175 C71.543499,33.0352504 71.342501,33.072 71.1355,33.072 Z M74.423,29.355 C74.5670007,29.0429984 74.7439989,28.7992509 74.954,28.62375 C75.164001,28.4482491 75.4204984,28.3605 75.7235,28.3605 C75.8195004,28.3605 75.9117495,28.3709999 76.00025,28.392 C76.0887504,28.4130001 76.1674996,28.4459998 76.2365,28.491 L76.178,29.0895 C76.1599999,29.1645004 76.1150003,29.202 76.043,29.202 C76.0009997,29.202 75.9395004,29.1930001 75.8585,29.175 C75.7774995,29.1569999 75.6860005,29.148 75.584,29.148 C75.4399992,29.148 75.3117505,29.1689998 75.19925,29.211 C75.0867494,29.2530002 74.9862504,29.3152496 74.89775,29.39775 C74.8092495,29.4802504 74.7297503,29.5822494 74.65925,29.70375 C74.5887496,29.8252506 74.5250002,29.9639992 74.468,30.12 L74.468,33 L73.6625,33 L73.6625,28.4415 L74.1215,28.4415 C74.2085004,28.4415 74.2684998,28.4579998 74.3015,28.491 C74.3345001,28.5240002 74.3569999,28.5809996 74.369,28.662 L74.423,29.355 Z M80.0369999,30.948 C79.6679981,30.9600001 79.3537512,30.9892498 79.0942499,31.03575 C78.8347486,31.0822502 78.6232508,31.1429996 78.4597499,31.218 C78.2962491,31.2930004 78.1777503,31.3814995 78.1042499,31.4835 C78.0307496,31.5855005 77.9939999,31.6994994 77.9939999,31.8255 C77.9939999,31.9455006 78.0134997,32.0489996 78.0524999,32.136 C78.0915001,32.2230004 78.1447496,32.2942497 78.2122499,32.34975 C78.2797503,32.4052503 78.3592495,32.4457499 78.4507499,32.47125 C78.5422504,32.4967501 78.6404994,32.5095 78.7454999,32.5095 C78.8865006,32.5095 79.0154994,32.4952501 79.1324999,32.46675 C79.2495005,32.4382499 79.3597494,32.3970003 79.4632499,32.343 C79.5667505,32.2889997 79.6657495,32.2245004 79.7602499,32.1495 C79.8547504,32.0744996 79.9469995,31.9890005 80.0369999,31.893 L80.0369999,30.948 Z M77.4494999,29.085 C77.7015012,28.8419988 77.9729985,28.6605006 78.2639999,28.5405 C78.5550014,28.4204994 78.8774982,28.3605 79.2314999,28.3605 C79.4865012,28.3605 79.712999,28.4024996 79.9109999,28.4865 C80.1090009,28.5705004 80.2754993,28.6874992 80.4104999,28.8375 C80.5455006,28.9875007 80.6474996,29.1689989 80.7164999,29.382 C80.7855003,29.5950011 80.8199999,29.8289987 80.8199999,30.084 L80.8199999,33 L80.4644999,33 C80.3864996,33 80.3265002,32.9872501 80.2844999,32.96175 C80.2424997,32.9362499 80.2095001,32.8860004 80.1854999,32.811 L80.0954999,32.379 C79.9754993,32.4900006 79.8585005,32.5882496 79.7444999,32.67375 C79.6304994,32.7592504 79.5105006,32.8312497 79.3844999,32.88975 C79.2584993,32.9482503 79.1242507,32.9932498 78.9817499,33.02475 C78.8392492,33.0562502 78.6810008,33.072 78.5069999,33.072 C78.3299991,33.072 78.1635007,33.0472502 78.0074999,32.99775 C77.8514992,32.9482498 77.7157505,32.8740005 77.6002499,32.775 C77.4847494,32.6759995 77.3932503,32.5507508 77.3257499,32.39925 C77.2582496,32.2477492 77.2244999,32.068501 77.2244999,31.8615 C77.2244999,31.6814991 77.2739994,31.5082508 77.3729999,31.34175 C77.4720004,31.1752492 77.6324988,31.0275006 77.8544999,30.8985 C78.0765011,30.7694994 78.3659982,30.6637504 78.7229999,30.58125 C79.0800017,30.4987496 79.5179973,30.4515001 80.0369999,30.4395 L80.0369999,30.084 C80.0369999,29.7299982 79.9605007,29.4622509 79.8074999,29.28075 C79.6544992,29.0992491 79.4310014,29.0085 79.1369999,29.0085 C78.938999,29.0085 78.7732506,29.0332498 78.6397499,29.08275 C78.5062493,29.1322502 78.3907504,29.1877497 78.2932499,29.24925 C78.1957495,29.3107503 78.1117503,29.3662498 78.0412499,29.41575 C77.9707496,29.4652502 77.9010003,29.49 77.8319999,29.49 C77.7779997,29.49 77.7315001,29.4757501 77.6924999,29.44725 C77.6534997,29.4187499 77.6205001,29.3835002 77.5934999,29.3415 L77.4494999,29.085 Z M83.5674999,26.3715 L83.5674999,33 L82.7664999,33 L82.7664999,26.3715 L83.5674999,26.3715 Z" id="Neutral" fill="#000000" fill-rule="nonzero"></path>
        <path d="M101.587,32.307 C101.836001,32.307 102.050499,32.2785003 102.2305,32.2215 C102.410501,32.1644997 102.558249,32.0842505 102.67375,31.98075 C102.789251,31.8772495 102.874,31.7542507 102.928,31.61175 C102.982,31.4692493 103.009,31.3125009 103.009,31.1415 C103.009,30.8084983 102.890501,30.545251 102.6535,30.35175 C102.416499,30.158249 102.061002,30.0615 101.587,30.0615 L100.192,30.0615 L100.192,32.307 L101.587,32.307 Z M100.192,27.24 L100.192,29.4405 L101.344,29.4405 C101.590001,29.4405 101.803749,29.4135003 101.98525,29.3595 C102.166751,29.3054997 102.316749,29.2305005 102.43525,29.1345 C102.553751,29.0384995 102.6415,28.9222507 102.6985,28.78575 C102.7555,28.6492493 102.784,28.5000008 102.784,28.338 C102.784,27.9569981 102.670001,27.6787509 102.442,27.50325 C102.213999,27.3277491 101.860002,27.24 101.38,27.24 L100.192,27.24 Z M101.38,26.5515 C101.776002,26.5515 102.117249,26.5904996 102.40375,26.6685 C102.690251,26.7465004 102.925749,26.8574993 103.11025,27.0015 C103.294751,27.1455007 103.4305,27.321749 103.5175,27.53025 C103.6045,27.738751 103.648,27.9734987 103.648,28.2345 C103.648,28.3935008 103.62325,28.5457493 103.57375,28.69125 C103.52425,28.8367507 103.45,28.9724994 103.351,29.0985 C103.252,29.2245006 103.126751,29.3377495 102.97525,29.43825 C102.823749,29.5387505 102.646001,29.6204997 102.442,29.6835 C102.916002,29.7735005 103.272249,29.9422488 103.51075,30.18975 C103.749251,30.4372512 103.8685,30.761998 103.8685,31.164 C103.8685,31.4370014 103.818251,31.6859989 103.71775,31.911 C103.617249,32.1360011 103.470251,32.3294992 103.27675,32.4915 C103.083249,32.6535008 102.845501,32.7787496 102.5635,32.86725 C102.281499,32.9557504 101.960502,33 101.6005,33 L99.3235,33 L99.3235,26.5515 L101.38,26.5515 Z M106.3145,29.355 C106.458501,29.0429984 106.635499,28.7992509 106.8455,28.62375 C107.055501,28.4482491 107.311998,28.3605 107.615,28.3605 C107.711,28.3605 107.80325,28.3709999 107.89175,28.392 C107.98025,28.4130001 108.059,28.4459998 108.128,28.491 L108.0695,29.0895 C108.0515,29.1645004 108.0065,29.202 107.9345,29.202 C107.8925,29.202 107.831,29.1930001 107.75,29.175 C107.669,29.1569999 107.5775,29.148 107.4755,29.148 C107.331499,29.148 107.203251,29.1689998 107.09075,29.211 C106.978249,29.2530002 106.87775,29.3152496 106.78925,29.39775 C106.70075,29.4802504 106.62125,29.5822494 106.55075,29.70375 C106.48025,29.8252506 106.4165,29.9639992 106.3595,30.12 L106.3595,33 L105.554,33 L105.554,28.4415 L106.013,28.4415 C106.1,28.4415 106.16,28.4579998 106.193,28.491 C106.226,28.5240002 106.2485,28.5809996 106.2605,28.662 L106.3145,29.355 Z M110.376,28.4415 L110.376,33 L109.575,33 L109.575,28.4415 L110.376,28.4415 Z M110.547,27.0105 C110.547,27.0885004 110.53125,27.1612497 110.49975,27.22875 C110.46825,27.2962503 110.42625,27.3562497 110.37375,27.40875 C110.32125,27.4612503 110.25975,27.5024998 110.18925,27.5325 C110.11875,27.5625001 110.0445,27.5775 109.9665,27.5775 C109.8885,27.5775 109.81575,27.5625001 109.74825,27.5325 C109.68075,27.5024998 109.6215,27.4612503 109.5705,27.40875 C109.5195,27.3562497 109.479,27.2962503 109.449,27.22875 C109.419,27.1612497 109.404,27.0885004 109.404,27.0105 C109.404,26.9324996 109.419,26.8582504 109.449,26.78775 C109.479,26.7172496 109.5195,26.6557503 109.5705,26.60325 C109.6215,26.5507497 109.68075,26.5095001 109.74825,26.4795 C109.81575,26.4494998 109.8885,26.4345 109.9665,26.4345 C110.0445,26.4345 110.11875,26.4494998 110.18925,26.4795 C110.25975,26.5095001 110.32125,26.5507497 110.37375,26.60325 C110.42625,26.6557503 110.46825,26.7172496 110.49975,26.78775 C110.53125,26.8582504 110.547,26.9324996 110.547,27.0105 Z M113.9785,30.7725 C114.140501,30.7725 114.282999,30.7500002 114.406,30.705 C114.529001,30.6599998 114.6325,30.5970004 114.7165,30.516 C114.8005,30.4349996 114.8635,30.3382506 114.9055,30.22575 C114.9475,30.1132494 114.9685,29.9895007 114.9685,29.8545 C114.9685,29.5754986 114.883751,29.3535008 114.71425,29.1885 C114.544749,29.0234992 114.299502,28.941 113.9785,28.941 C113.654498,28.941 113.407751,29.0234992 113.23825,29.1885 C113.068749,29.3535008 112.984,29.5754986 112.984,29.8545 C112.984,29.9895007 113.00575,30.1132494 113.04925,30.22575 C113.09275,30.3382506 113.1565,30.4349996 113.2405,30.516 C113.3245,30.5970004 113.427999,30.6599998 113.551,30.705 C113.674001,30.7500002 113.816499,30.7725 113.9785,30.7725 Z M115.423,33.2475 C115.423,33.1364994 115.3915,33.0465003 115.3285,32.9775 C115.2655,32.9084997 115.18075,32.8545002 115.07425,32.8155 C114.967749,32.7764998 114.844001,32.7487501 114.703,32.73225 C114.561999,32.7157499 114.412751,32.703 114.25525,32.694 C114.097749,32.685 113.938001,32.676 113.776,32.667 C113.613999,32.658 113.458001,32.6430001 113.308,32.622 C113.139999,32.7000004 113.00275,32.7982494 112.89625,32.91675 C112.789749,33.0352506 112.7365,33.1739992 112.7365,33.333 C112.7365,33.4350005 112.76275,33.5302496 112.81525,33.61875 C112.86775,33.7072504 112.947999,33.7837497 113.056,33.84825 C113.164001,33.9127503 113.299749,33.9637498 113.46325,34.00125 C113.626751,34.0387502 113.819499,34.0575 114.0415,34.0575 C114.257501,34.0575 114.450999,34.0380002 114.622,33.999 C114.793001,33.9599998 114.937749,33.9045004 115.05625,33.8325 C115.174751,33.7604996 115.2655,33.6750005 115.3285,33.576 C115.3915,33.4769995 115.423,33.3675006 115.423,33.2475 Z M116.2375,28.6215 L116.2375,28.9185 C116.2375,29.0175005 116.174501,29.0804999 116.0485,29.1075 L115.531,29.175 C115.633,29.373001 115.684,29.5919988 115.684,29.832 C115.684,30.0540011 115.64125,30.2557491 115.55575,30.43725 C115.47025,30.6187509 115.352501,30.7739994 115.2025,30.903 C115.052499,31.0320006 114.872501,31.1309997 114.6625,31.2 C114.452499,31.2690003 114.224501,31.3035 113.9785,31.3035 C113.765499,31.3035 113.564501,31.2780003 113.3755,31.227 C113.279499,31.2870003 113.206,31.3507497 113.155,31.41825 C113.104,31.4857503 113.0785,31.5539997 113.0785,31.623 C113.0785,31.7310005 113.12275,31.8127497 113.21125,31.86825 C113.29975,31.9237503 113.415999,31.9634999 113.56,31.9875 C113.704001,32.0115001 113.868249,32.0265 114.05275,32.0325 C114.237251,32.0385 114.426249,32.0482499 114.61975,32.06175 C114.813251,32.0752501 115.002249,32.0984998 115.18675,32.1315 C115.371251,32.1645002 115.535499,32.2184996 115.6795,32.2935 C115.823501,32.3685004 115.93975,32.4719993 116.02825,32.604 C116.11675,32.7360007 116.161,32.906999 116.161,33.117 C116.161,33.312001 116.11225,33.5009991 116.01475,33.684 C115.917249,33.8670009 115.777001,34.0297493 115.594,34.17225 C115.410999,34.3147507 115.186751,34.4287496 114.92125,34.51425 C114.655749,34.5997504 114.356502,34.6425 114.0235,34.6425 C113.690498,34.6425 113.399501,34.6095003 113.1505,34.5435 C112.901499,34.4774997 112.694501,34.3890006 112.5295,34.278 C112.364499,34.1669994 112.24075,34.0387507 112.15825,33.89325 C112.07575,33.7477493 112.0345,33.5955008 112.0345,33.4365 C112.0345,33.2114989 112.104999,33.0210008 112.246,32.865 C112.387001,32.7089992 112.580499,32.5845005 112.8265,32.4915 C112.691499,32.4314997 112.58425,32.3512505 112.50475,32.25075 C112.42525,32.1502495 112.3855,32.0145009 112.3855,31.8435 C112.3855,31.7774997 112.3975,31.7092504 112.4215,31.63875 C112.4455,31.5682496 112.48225,31.4977504 112.53175,31.42725 C112.58125,31.3567496 112.642,31.2900003 112.714,31.227 C112.786,31.1639997 112.869999,31.1085002 112.966,31.0605 C112.740999,30.9344994 112.565501,30.767251 112.4395,30.55875 C112.313499,30.350249 112.2505,30.1080014 112.2505,29.832 C112.2505,29.6099989 112.29325,29.4082509 112.37875,29.22675 C112.46425,29.0452491 112.583499,28.8907506 112.7365,28.76325 C112.889501,28.6357494 113.071749,28.5375003 113.28325,28.4685 C113.494751,28.3994997 113.726499,28.365 113.9785,28.365 C114.176501,28.365 114.360999,28.3867498 114.532,28.43025 C114.703001,28.4737502 114.858999,28.5374996 115,28.6215 L116.2375,28.6215 Z M118.5755,29.049 C118.770501,28.841999 118.986499,28.6770006 119.2235,28.554 C119.460501,28.4309994 119.733498,28.3695 120.0425,28.3695 C120.291501,28.3695 120.511249,28.4107496 120.70175,28.49325 C120.892251,28.5757504 121.051249,28.6927492 121.17875,28.84425 C121.306251,28.9957508 121.403,29.1779989 121.469,29.391 C121.535,29.6040011 121.568,29.8394987 121.568,30.0975 L121.568,33 L120.7625,33 L120.7625,30.0975 C120.7625,29.7524983 120.683751,29.484751 120.52625,29.29425 C120.368749,29.103749 120.129502,29.0085 119.8085,29.0085 C119.571499,29.0085 119.350251,29.0654994 119.14475,29.1795 C118.939249,29.2935006 118.749501,29.447999 118.5755,29.643 L118.5755,33 L117.77,33 L117.77,26.3715 L118.5755,26.3715 L118.5755,29.049 Z M124.8285,33.072 C124.468498,33.072 124.191751,32.971501 123.99825,32.7705 C123.804749,32.569499 123.708,32.2800019 123.708,31.902 L123.708,29.112 L123.159,29.112 C123.111,29.112 123.0705,29.0977501 123.0375,29.06925 C123.0045,29.0407499 122.988,28.9965003 122.988,28.9365 L122.988,28.617 L123.735,28.5225 L123.9195,27.114 C123.9285,27.0689998 123.94875,27.0322501 123.98025,27.00375 C124.01175,26.9752499 124.053,26.961 124.104,26.961 L124.509,26.961 L124.509,28.5315 L125.8275,28.5315 L125.8275,29.112 L124.509,29.112 L124.509,31.848 C124.509,32.040001 124.555499,32.1824995 124.6485,32.2755 C124.7415,32.3685005 124.861499,32.415 125.0085,32.415 C125.0925,32.415 125.16525,32.4037501 125.22675,32.38125 C125.28825,32.3587499 125.3415,32.3340001 125.3865,32.307 C125.4315,32.2799999 125.46975,32.2552501 125.50125,32.23275 C125.53275,32.2102499 125.5605,32.199 125.5845,32.199 C125.6265,32.199 125.664,32.2244997 125.697,32.2755 L125.931,32.658 C125.792999,32.7870006 125.626501,32.8882496 125.4315,32.96175 C125.236499,33.0352504 125.035501,33.072 124.8285,33.072 Z" id="Bright" fill="#000000" fill-rule="nonzero"></path>
    </g>
</svg>