<?xml version="1.0" encoding="UTF-8"?>
<svg width="56px" height="48px" viewBox="0 0 56 48" version="1.1" xmlns="http://www.w3.org/2000/svg" xmlns:xlink="http://www.w3.org/1999/xlink">
    <!-- Generator: Sketch 55.2 (78181) - https://sketchapp.com -->
    <title>bmp00153</title>
    <desc>Created with Sketch.</desc>
    <defs>
        <linearGradient x1="49.9993125%" y1="0%" x2="49.9993125%" y2="100%" id="linearGradient-1">
            <stop stop-color="#D4D4D4" offset="0%"></stop>
            <stop stop-color="#A5A5A5" offset="28.7558066%"></stop>
            <stop stop-color="#A6A6A6" offset="72.9914485%"></stop>
            <stop stop-color="#5F5F5F" offset="100%"></stop>
        </linearGradient>
        <linearGradient x1="49.9993125%" y1="3.02513626%" x2="49.9993125%" y2="100%" id="linearGradient-2">
            <stop stop-color="#D0D8F1" offset="0%"></stop>
            <stop stop-color="#8E9FCE" offset="18.75%"></stop>
            <stop stop-color="#8D9ECD" offset="77.8296839%"></stop>
            <stop stop-color="#545E7D" offset="100%"></stop>
        </linearGradient>
    </defs>
    <g id="bmp00153" stroke="none" stroke-width="1" fill="none" fill-rule="evenodd">
        <g id="Group-2" transform="translate(2.000000, 2.000000)">
            <rect id="Rectangle" stroke="#262626" fill="url(#linearGradient-1)" x="0.5" y="0.5" width="18" height="13" rx="5"></rect>
            <rect id="Rectangle" fill-opacity="0.1" fill="#FFFFFF" x="8" y="3" width="1" height="8"></rect>
            <rect id="Rectangle" fill="#5D6266" x="9" y="2" width="1" height="10"></rect>
        </g>
        <g id="Group-2" transform="translate(2.000000, 26.000000)">
            <rect id="Rectangle" stroke="#262626" fill="url(#linearGradient-1)" x="0.5" y="0.5" width="18" height="13" rx="5"></rect>
            <rect id="Rectangle" fill="#5D6266" x="9" y="2" width="1" height="10"></rect>
        </g>
        <rect id="Rectangle" stroke="#262626" fill="url(#linearGradient-2)" x="30.5" y="2.5" width="18" height="13" rx="5"></rect>
        <rect id="Rectangle" fill="#394F8A" x="39" y="4" width="1" height="10"></rect>
        <rect id="Rectangle" stroke="#262626" fill="url(#linearGradient-2)" x="30.5" y="26.5" width="18" height="13" rx="5"></rect>
        <rect id="Rectangle" fill="#394F8A" x="39" y="28" width="1" height="10"></rect>
        <rect id="Rectangle" fill-opacity="0.1" fill="#FFFFFF" x="38" y="5" width="1" height="8"></rect>
        <rect id="Rectangle" fill-opacity="0.1" fill="#FFFFFF" x="38" y="29" width="1" height="8"></rect>
        <path d="M19,30 C13.6666667,30 10.3333333,30 9,30 C7,30 6,32 6,33 C6,33.6666667 6,35.3333333 6,38" id="Path-12" stroke-opacity="0.05" stroke="#000000" stroke-width="2" transform="translate(12.500000, 34.000000) rotate(-180.000000) translate(-12.500000, -34.000000) "></path>
        <path d="M17,28 C11.6666667,28 8.33333333,28 7,28 C5,28 4,30 4,31 C4,31.6666667 4,33 4,35" id="Path-12" stroke-opacity="0.15" stroke="#FFFFFF" stroke-width="2"></path>
        <path d="M47,30 C41.6666667,30 38.3333333,30 37,30 C35,30 34,32 34,33 C34,33.6666667 34,35.3333333 34,38" id="Path-12" stroke-opacity="0.05" stroke="#000000" stroke-width="2" transform="translate(40.500000, 34.000000) rotate(-180.000000) translate(-40.500000, -34.000000) "></path>
        <path d="M45,28 C39.6666667,28 36.3333333,28 35,28 C33,28 32,30 32,31 C32,31.6666667 32,33 32,35" id="Path-12" stroke-opacity="0.15" stroke="#FFFFFF" stroke-width="2"></path>
        <path d="M19,6 C13.6666667,6 10.3333333,6 9,6 C7,6 6,8 6,9 C6,9.66666667 6,11.3333333 6,14" id="Path-12" stroke-opacity="0.05" stroke="#000000" stroke-width="2" transform="translate(12.500000, 10.000000) rotate(-180.000000) translate(-12.500000, -10.000000) "></path>
        <path d="M17,4 C11.6666667,4 8.33333333,4 7,4 C5,4 4,6 4,7 C4,7.66666667 4,9 4,11" id="Path-12" stroke-opacity="0.15" stroke="#FFFFFF" stroke-width="2"></path>
        <path d="M47,6 C41.6666667,6 38.3333333,6 37,6 C35,6 34,8 34,9 C34,9.66666667 34,11.3333333 34,14" id="Path-12" stroke-opacity="0.05" stroke="#000000" stroke-width="2" transform="translate(40.500000, 10.000000) rotate(-180.000000) translate(-40.500000, -10.000000) "></path>
        <path d="M45,4 C39.6666667,4 36.3333333,4 35,4 C33,4 32,6 32,7 C32,7.66666667 32,9 32,11" id="Path-12" stroke-opacity="0.15" stroke="#FFFFFF" stroke-width="2"></path>
        <rect id="Rectangle" fill-opacity="0.1" fill="#FFFFFF" x="10" y="29" width="1" height="8"></rect>
    </g>
</svg>