<?xml version="1.0" encoding="utf-8"?>
<svg width="41px" height="144px" viewBox="0 0 41 144" version="1.1" xmlns:xlink="http://www.w3.org/1999/xlink" xmlns="http://www.w3.org/2000/svg">
  <desc>Created with Lunacy</desc>
  <defs>
    <path d="M0 0L41 0L41 144L0 144L0 0Z" id="path_1" />
    <rect width="41" height="144" id="artboard_1" />
    <clipPath id="clip_1">
      <use xlink:href="#artboard_1" clip-rule="evenodd" />
    </clipPath>
    <clipPath id="mask_1">
      <use xlink:href="#path_1" />
    </clipPath>
  </defs>
  <g id="Artboard" clip-path="url(#clip_1)">
    <g id="bmp00119">
      <path d="M0 0L41 0L41 144L0 144L0 0Z" id="Background" fill="none" stroke="none" />
      <g clip-path="url(#mask_1)">
        <g id="bmp00119" transform="translate(1.961487 4.882996)">
          <g id="Group-11" transform="translate(32.03851 1.117004)">
            <g id="Group-10">
              <path d="M2.5 0L5 3L0 3L2.5 0Z" transform="matrix(-1 8.742278E-08 -8.742278E-08 -1 5 3)" id="Triangle" fill="#FF9000" stroke="none" />
              <path d="M2.5 0L5 3L0 3L2.5 0Z" transform="matrix(-1 8.742278E-08 -8.742278E-08 -1 5 21)" id="Triangle#1" fill="#FF9000" stroke="none" />
              <path d="M2.5 0L5 3L0 3L2.5 0Z" transform="matrix(-1 8.742278E-08 -8.742278E-08 -1 5 39)" id="Triangle#2" fill="#FF9000" stroke="none" />
              <path d="M2.5 0L5 3L0 3L2.5 0Z" transform="matrix(-1 8.742278E-08 -8.742278E-08 -1 5 57)" id="Triangle#3" fill="#FF9000" stroke="none" />
              <path d="M2.5 0L5 3L0 3L2.5 0Z" transform="matrix(-1 8.742278E-08 -8.742278E-08 -1 5 75)" id="Triangle#4" fill="#FF9000" stroke="none" />
              <path d="M2.5 0L5 3L0 3L2.5 0Z" transform="matrix(-1 8.742278E-08 -8.742278E-08 -1 5 93)" id="Triangle#5" fill="#FF9000" stroke="none" />
              <path d="M2.5 0L5 3L0 3L2.5 0Z" transform="matrix(-1 8.742278E-08 -8.742278E-08 -1 5 111)" id="Triangle#6" fill="#FF9000" stroke="none" />
              <path d="M2.5 0L5 3L0 3L2.5 0Z" transform="matrix(-1 8.742278E-08 -8.742278E-08 -1 5 129)" id="Triangle#7" fill="#FF9000" stroke="none" />
            </g>
          </g>
          <g id="Group-22-Copy">
            <path d="M28.3222 4.97C28.0224 5.10533 27.6625 5.173 27.2425 5.173Q26.679 5.173 26.2292 4.9805C25.9294 4.85217 25.6733 4.67367 25.461 4.445C25.2486 4.21633 25.0859 3.94333 24.9727 3.626Q24.803 3.15 24.803 2.5865Q24.803 2.016 24.985 1.54175C25.1063 1.22558 25.2772 0.953167 25.4977 0.7245C25.7182 0.495833 25.9813 0.317917 26.287 0.19075C26.5926 0.0635833 26.931 0 27.302 0Q27.855 -5.58794e-09 28.2837 0.182C28.5696 0.303333 28.8128 0.462 29.0135 0.658L28.6985 1.0955C28.6798 1.1235 28.6559 1.148 28.6267 1.169C28.5976 1.19 28.5573 1.2005 28.506 1.2005C28.471 1.2005 28.4348 1.19058 28.3975 1.17075C28.3601 1.15092 28.3193 1.12642 28.275 1.09725C28.2306 1.06808 28.1793 1.036 28.121 1.001C28.0626 0.966 27.995 0.933917 27.918 0.90475C27.841 0.875583 27.7517 0.851083 27.6502 0.83125C27.5487 0.811417 27.4315 0.8015 27.2985 0.8015C27.0721 0.8015 26.8651 0.84175 26.6772 0.92225C26.4894 1.00275 26.3278 1.11942 26.1925 1.27225C26.0571 1.42508 25.9521 1.61175 25.8775 1.83225C25.8028 2.05275 25.7655 2.30417 25.7655 2.5865Q25.7655 3.0135 25.8862 3.346Q26.007 3.6785 26.2135 3.906C26.3511 4.05767 26.5133 4.17375 26.7 4.25425C26.8866 4.33475 27.0873 4.375 27.302 4.375Q27.4945 4.375 27.6502 4.354Q27.806 4.333 27.9372 4.2875C28.0247 4.25717 28.1076 4.21808 28.1857 4.17025C28.2639 4.12242 28.3415 4.0635 28.4185 3.9935C28.4418 3.9725 28.4663 3.95558 28.492 3.94275C28.5176 3.92992 28.5445 3.9235 28.5725 3.9235C28.6238 3.9235 28.6693 3.94333 28.709 3.983L29.08 4.3855C28.8746 4.63983 28.6221 4.83467 28.3222 4.97ZM2.4395 5.173Q3.0695 5.173 3.51925 4.97Q3.969 4.767 4.277 4.3855L3.906 3.983C3.86633 3.94333 3.82083 3.9235 3.7695 3.9235C3.7415 3.9235 3.71467 3.92992 3.689 3.94275C3.66333 3.95558 3.63883 3.9725 3.6155 3.9935C3.5385 4.0635 3.46092 4.12242 3.38275 4.17025C3.30458 4.21808 3.22175 4.25717 3.13425 4.2875C3.04675 4.31783 2.95108 4.34 2.84725 4.354C2.74342 4.368 2.62733 4.375 2.499 4.375C2.28433 4.375 2.08367 4.33475 1.897 4.25425C1.71033 4.17375 1.54817 4.05767 1.4105 3.906C1.27283 3.75433 1.16375 3.56767 1.08325 3.346Q0.9625 3.0135 0.9625 2.5865Q0.9625 2.163 1.0745 1.83225Q1.1865 1.5015 1.3895 1.27225Q1.5925 1.043 1.87425 0.92225Q2.156 0.8015 2.4955 0.8015C2.6285 0.8015 2.74575 0.811417 2.84725 0.83125C2.94875 0.851083 3.038 0.875583 3.115 0.90475C3.192 0.933917 3.25967 0.966 3.318 1.001C3.37633 1.036 3.42767 1.06808 3.472 1.09725C3.51633 1.12642 3.55717 1.15092 3.5945 1.17075Q3.6505 1.2005 3.703 1.2005C3.75433 1.2005 3.79458 1.19 3.82375 1.169C3.85292 1.148 3.87683 1.1235 3.8955 1.0955L4.2105 0.658Q3.9095 0.364 3.48075 0.182Q3.052 0 2.499 0Q1.9425 0 1.484 0.19075Q1.0255 0.3815 0.69475 0.7245Q0.364 1.0675 0.182 1.54175Q0 2.016 0 2.5865Q0 3.15 0.16975 3.626C0.282917 3.94333 0.445667 4.21633 0.658 4.445C0.870333 4.67367 1.12642 4.85217 1.42625 4.9805Q1.876 5.173 2.4395 5.173ZM15.646 5.173C15.926 5.173 16.1745 5.13042 16.3915 5.04525C16.6085 4.96008 16.7922 4.84342 16.9427 4.69525C17.0932 4.54708 17.2076 4.37325 17.2857 4.17375C17.3639 3.97425 17.403 3.76017 17.403 3.5315C17.403 3.3215 17.3697 3.143 17.3032 2.996C17.2367 2.849 17.1486 2.72475 17.039 2.62325C16.9293 2.52175 16.8045 2.43775 16.6645 2.37125C16.5245 2.30475 16.381 2.24642 16.234 2.19625C16.087 2.14608 15.9435 2.09883 15.8035 2.0545C15.6635 2.01017 15.5386 1.96 15.429 1.904C15.3193 1.848 15.2312 1.78033 15.1647 1.701Q15.065 1.582 15.065 1.4035C15.065 1.31017 15.0813 1.22442 15.114 1.14625Q15.163 1.029 15.2627 0.945C15.3292 0.889 15.4115 0.84525 15.5095 0.81375C15.6075 0.78225 15.7218 0.7665 15.8525 0.7665C15.9971 0.7665 16.1226 0.784583 16.2287 0.82075Q16.388 0.875 16.507 0.9415C16.5863 0.985833 16.6546 1.02608 16.7117 1.06225C16.7689 1.09842 16.822 1.1165 16.871 1.1165Q16.941 1.1165 16.9882 1.08325C17.0197 1.06108 17.0495 1.0255 17.0775 0.9765L17.312 0.532Q17.046 0.28 16.668 0.14Q16.29 0 15.842 0C15.576 0 15.3403 0.0408333 15.135 0.1225Q14.827 0.245 14.617 0.448C14.477 0.583333 14.3702 0.7385 14.2967 0.9135Q14.1865 1.176 14.1865 1.4525Q14.1865 1.799 14.2862 2.03525C14.3527 2.19275 14.4408 2.324 14.5505 2.429C14.6601 2.534 14.785 2.61917 14.925 2.6845C15.065 2.74983 15.2073 2.80583 15.352 2.8525C15.4966 2.89917 15.639 2.94233 15.779 2.982C15.919 3.02167 16.0438 3.07008 16.1535 3.12725C16.2631 3.18442 16.3512 3.255 16.4177 3.339Q16.5175 3.465 16.5175 3.6645C16.5175 3.9025 16.444 4.08508 16.297 4.21225Q16.0765 4.403 15.674 4.403C15.499 4.403 15.3491 4.37908 15.2242 4.33125C15.0994 4.28342 14.9903 4.23033 14.897 4.172C14.8036 4.11367 14.7231 4.06058 14.6555 4.01275C14.5878 3.96492 14.5248 3.941 14.4665 3.941C14.4245 3.941 14.3848 3.95208 14.3475 3.97425C14.3101 3.99642 14.2798 4.02383 14.2565 4.0565L13.98 4.508C14.078 4.60833 14.19 4.69933 14.316 4.781C14.442 4.86267 14.5767 4.93267 14.7202 4.991C14.8637 5.04933 15.0136 5.09425 15.17 5.12575C15.3263 5.15725 15.485 5.173 15.646 5.173ZM20.551 5.04525C20.334 5.13042 20.0855 5.173 19.8055 5.173C19.6445 5.173 19.4859 5.15725 19.3295 5.12575C19.1732 5.09425 19.0233 5.04933 18.8798 4.991C18.7363 4.93267 18.6015 4.86267 18.4755 4.781C18.3495 4.69933 18.2375 4.60833 18.1395 4.508L18.416 4.0565C18.4394 4.02383 18.4697 3.99642 18.507 3.97425C18.5444 3.95208 18.584 3.941 18.626 3.941Q18.7135 3.941 18.815 4.01275C18.8827 4.06058 18.9632 4.11367 19.0565 4.172Q19.1965 4.2595 19.3838 4.33125C19.5086 4.37908 19.6585 4.403 19.8335 4.403Q20.236 4.403 20.4565 4.21225C20.6035 4.08508 20.677 3.9025 20.677 3.6645Q20.677 3.465 20.5773 3.339C20.5108 3.255 20.4227 3.18442 20.313 3.12725C20.2034 3.07008 20.0785 3.02167 19.9385 2.982C19.7985 2.94233 19.6562 2.89917 19.5115 2.8525C19.3669 2.80583 19.2245 2.74983 19.0845 2.6845C18.9445 2.61917 18.8197 2.534 18.71 2.429C18.6004 2.324 18.5123 2.19275 18.4458 2.03525Q18.346 1.799 18.346 1.4525Q18.346 1.176 18.4563 0.9135C18.5298 0.7385 18.6365 0.583333 18.7765 0.448Q18.9865 0.245 19.2945 0.1225C19.4999 0.0408333 19.7355 0 20.0015 0Q20.4495 0 20.8275 0.14Q21.2055 0.28 21.4715 0.532L21.237 0.9765C21.209 1.0255 21.1793 1.06108 21.1478 1.08325Q21.1005 1.1165 21.0305 1.1165C20.9815 1.1165 20.9284 1.09842 20.8713 1.06225C20.8141 1.02608 20.7459 0.985833 20.6665 0.9415Q20.5475 0.875 20.3883 0.82075C20.2821 0.784583 20.1567 0.7665 20.012 0.7665C19.8814 0.7665 19.767 0.78225 19.669 0.81375C19.571 0.84525 19.4888 0.889 19.4223 0.945Q19.3225 1.029 19.2735 1.14625C19.2409 1.22442 19.2245 1.31017 19.2245 1.4035Q19.2245 1.582 19.3243 1.701C19.3908 1.78033 19.4789 1.848 19.5885 1.904C19.6982 1.96 19.823 2.01017 19.963 2.0545C20.103 2.09883 20.2465 2.14608 20.3935 2.19625C20.5405 2.24642 20.684 2.30475 20.824 2.37125C20.964 2.43775 21.0889 2.52175 21.1985 2.62325C21.3082 2.72475 21.3963 2.849 21.4628 2.996C21.5293 3.143 21.5625 3.3215 21.5625 3.5315C21.5625 3.76017 21.5234 3.97425 21.4453 4.17375C21.3671 4.37325 21.2528 4.54708 21.1023 4.69525C20.9518 4.84342 20.768 4.96008 20.551 5.04525ZM8.20901 4.34L8.20901 5.117L5.24451 5.117L5.24451 0.0559998L6.18601 0.0559998L6.18601 4.34L8.20901 4.34ZM23.7015 5.117L23.7015 0.0559998L22.7015 0.0559998L22.7015 5.117L23.7015 5.117ZM9.334 5.117C9.41333 5.117 9.47983 5.09483 9.5335 5.0505C9.58717 5.00617 9.62333 4.95717 9.642 4.9035L10.02 3.871L12.1165 3.871L12.4945 4.9035C12.5202 4.96417 12.5587 5.01492 12.61 5.05575C12.6613 5.09658 12.7278 5.117 12.8095 5.117L13.5375 5.117L11.5495 0.056L10.5905 0.056L8.599 5.117L9.334 5.117ZM10.265 3.20601L11.875 3.20601L11.259 1.52251Q11.2135 1.41051 11.1645 1.25651C11.1318 1.15384 11.0992 1.04301 11.0665 0.924011C11.0362 1.04301 11.0047 1.15443 10.972 1.25826C10.9393 1.36209 10.9078 1.45251 10.8775 1.52951L10.265 3.20601Z" transform="translate(1.307983 0)" id="CLASSIC" fill="#FF9000" fill-rule="evenodd" stroke="none" />
            <path d="M1.666 5.173Q2.086 5.173 2.4115 5.04525C2.6285 4.96008 2.81225 4.84342 2.96275 4.69525C3.11325 4.54708 3.22758 4.37325 3.30575 4.17375C3.38392 3.97425 3.423 3.76017 3.423 3.5315C3.423 3.3215 3.38975 3.143 3.32325 2.996C3.25675 2.849 3.16867 2.72475 3.059 2.62325C2.94933 2.52175 2.8245 2.43775 2.6845 2.37125C2.5445 2.30475 2.401 2.24642 2.254 2.19625C2.107 2.14608 1.9635 2.09883 1.8235 2.0545C1.6835 2.01017 1.55867 1.96 1.449 1.904Q1.2845 1.82 1.18475 1.701C1.11825 1.62167 1.085 1.5225 1.085 1.4035Q1.085 1.2635 1.134 1.14625Q1.183 1.029 1.28275 0.945C1.34925 0.889 1.4315 0.845251 1.5295 0.813751C1.6275 0.782251 1.74183 0.7665 1.8725 0.7665C2.01717 0.7665 2.14258 0.784584 2.24875 0.820751C2.35492 0.856916 2.44767 0.897167 2.527 0.9415C2.60633 0.985834 2.67458 1.02608 2.73175 1.06225C2.78892 1.09842 2.842 1.1165 2.891 1.1165C2.93767 1.1165 2.97675 1.10542 3.00825 1.08325C3.03975 1.06108 3.0695 1.0255 3.0975 0.976501L3.332 0.532001C3.15467 0.364 2.94 0.233334 2.688 0.140001Q2.31 0 1.862 0C1.596 0 1.36033 0.0408344 1.155 0.122501C0.949666 0.204166 0.776999 0.312668 0.637 0.448C0.497 0.583334 0.39025 0.738501 0.31675 0.9135C0.24325 1.0885 0.2065 1.26817 0.2065 1.4525C0.2065 1.6835 0.23975 1.87775 0.30625 2.03525C0.372749 2.19275 0.460834 2.324 0.570499 2.429C0.680166 2.534 0.804999 2.61917 0.945 2.6845C1.085 2.74983 1.22733 2.80583 1.372 2.8525C1.51667 2.89917 1.659 2.94233 1.799 2.982C1.939 3.02167 2.06383 3.07008 2.1735 3.12725C2.28317 3.18442 2.37125 3.255 2.43775 3.339C2.50425 3.423 2.5375 3.5315 2.5375 3.6645Q2.5375 4.0215 2.317 4.21225C2.17 4.33942 1.96233 4.403 1.694 4.403Q1.4315 4.403 1.24425 4.33125Q1.057 4.2595 0.917 4.172C0.823667 4.11367 0.743166 4.06058 0.6755 4.01275C0.607833 3.96492 0.544833 3.941 0.4865 3.941C0.4445 3.941 0.404833 3.95208 0.367499 3.97425C0.330167 3.99642 0.299833 4.02383 0.2765 4.0565L0 4.508C0.0979996 4.60833 0.21 4.69933 0.335999 4.781C0.462 4.86267 0.596749 4.93267 0.74025 4.991C0.88375 5.04933 1.03367 5.09425 1.19 5.12575Q1.4245 5.173 1.666 5.173ZM5.56201 0.0559998L5.56201 5.117L4.56201 5.117L4.56201 0.0559998L5.56201 0.0559998ZM7.78702 5.117L7.78702 2.009C7.78702 1.87833 7.78002 1.736 7.76602 1.582L10.4085 4.956C10.4552 5.01433 10.5036 5.05575 10.5538 5.08025C10.6039 5.10475 10.6664 5.117 10.741 5.117L11.224 5.117L11.224 0.0559998L10.3945 0.0559998L10.3945 3.1325C10.3945 3.20017 10.3969 3.27367 10.4015 3.353C10.4062 3.43233 10.412 3.51283 10.419 3.5945L7.76602 0.206501C7.74035 0.173834 7.71702 0.147583 7.69602 0.12775C7.67502 0.107918 7.65344 0.0927505 7.63127 0.0822506C7.6091 0.0717506 7.58344 0.0647507 7.55427 0.0612507C7.5251 0.0577507 7.49069 0.0559998 7.45102 0.0559998L6.95752 0.0559998L6.95752 5.117L7.78702 5.117ZM15.863 4.3645L15.863 5.117L12.671 5.117L12.671 0.0559998L15.863 0.0559998L15.863 0.805L13.616 0.805L13.616 2.2085L15.387 2.2085L15.387 2.933L13.616 2.933L13.616 4.3645L15.863 4.3645Z" transform="translate(8.199524 18)" id="SINE" fill="#FF9000" fill-rule="evenodd" stroke="none" />
            <path d="M3.5385 1.603L2.422 5.061L1.568 5.061L0 0L0.7875 0C0.869167 0 0.937417 0.019249 0.99225 0.0577507C1.04708 0.0962524 1.08383 0.148167 1.1025 0.213501L1.9635 3.241C1.98217 3.31567 2.00025 3.39675 2.01775 3.48425C2.03525 3.57175 2.05333 3.66333 2.072 3.759C2.09067 3.661 2.11108 3.56883 2.13325 3.4825C2.15542 3.39617 2.17933 3.31567 2.205 3.241L3.199 0.213501C3.21767 0.159836 3.25442 0.110836 3.30925 0.0665016C3.36408 0.0221672 3.43117 0 3.5105 0L3.787 0C3.86867 0 3.93517 0.0198326 3.9865 0.0595017C4.03783 0.0991669 4.07633 0.150501 4.102 0.213501L5.0925 3.241C5.1415 3.38567 5.18583 3.5525 5.2255 3.7415C5.25583 3.55717 5.28967 3.39034 5.327 3.241L6.188 0.213501C6.202 0.155167 6.23758 0.105 6.29475 0.0629997C6.35192 0.0209999 6.42017 0 6.4995 0L7.238 0L5.6665 5.061L4.816 5.061L3.71 1.603C3.67967 1.519 3.65167 1.41633 3.626 1.295C3.612 1.35333 3.598 1.40817 3.584 1.4595C3.57 1.51083 3.55483 1.55867 3.5385 1.603ZM10.4675 0.773502L10.4675 5.061L9.526 5.061L9.526 0.773502L8 0.773502L8 0L11.9935 0L11.9935 0.773502L10.4675 0.773502Z" transform="translate(10.03845 36.056)" id="W-TABLE" fill="#FF9000" fill-rule="evenodd" stroke="none" />
            <path d="M1.666 5.173Q2.086 5.173 2.4115 5.04525C2.6285 4.96008 2.81225 4.84342 2.96275 4.69525C3.11325 4.54708 3.22758 4.37325 3.30575 4.17375C3.38392 3.97425 3.423 3.76017 3.423 3.5315C3.423 3.3215 3.38975 3.143 3.32325 2.996C3.25675 2.849 3.16867 2.72475 3.059 2.62325Q2.8945 2.471 2.6845 2.37125C2.5445 2.30475 2.401 2.24642 2.254 2.19625C2.107 2.14608 1.9635 2.09883 1.8235 2.0545Q1.6135 1.988 1.449 1.904C1.33933 1.848 1.25125 1.78033 1.18475 1.701Q1.085 1.582 1.085 1.4035C1.085 1.31017 1.10133 1.22442 1.134 1.14625C1.16667 1.06808 1.21625 1.001 1.28275 0.945C1.34925 0.889 1.4315 0.845249 1.5295 0.813751C1.6275 0.782249 1.74183 0.766502 1.8725 0.766502C2.01717 0.766502 2.14258 0.784584 2.24875 0.820751C2.35492 0.856918 2.44767 0.897167 2.527 0.941502C2.60633 0.985832 2.67458 1.02608 2.73175 1.06225C2.78892 1.09842 2.842 1.1165 2.891 1.1165C2.93767 1.1165 2.97675 1.10542 3.00825 1.08325C3.03975 1.06108 3.0695 1.0255 3.0975 0.976501L3.332 0.532001C3.15467 0.364002 2.94 0.233334 2.688 0.139999C2.436 0.046669 2.16067 0 1.862 0C1.596 0 1.36033 0.0408325 1.155 0.122501C0.949667 0.204166 0.777 0.312668 0.637 0.448002Q0.427 0.650997 0.31675 0.913502C0.24325 1.0885 0.2065 1.26817 0.2065 1.4525C0.2065 1.6835 0.23975 1.87775 0.30625 2.03525C0.37275 2.19275 0.460833 2.324 0.5705 2.429Q0.735 2.5865 0.945 2.6845C1.085 2.74983 1.22733 2.80584 1.372 2.8525C1.51667 2.89917 1.659 2.94233 1.799 2.982C1.939 3.02167 2.06383 3.07008 2.1735 3.12725C2.28317 3.18442 2.37125 3.255 2.43775 3.339C2.50425 3.423 2.5375 3.5315 2.5375 3.6645Q2.5375 4.0215 2.317 4.21225C2.17 4.33942 1.96233 4.403 1.694 4.403C1.519 4.403 1.36908 4.37909 1.24425 4.33125C1.11942 4.28342 1.01033 4.23034 0.917 4.172C0.823667 4.11367 0.743167 4.06059 0.6755 4.01275C0.607833 3.96492 0.544833 3.941 0.4865 3.941C0.4445 3.941 0.404833 3.95208 0.3675 3.97425C0.330167 3.99642 0.299833 4.02383 0.2765 4.0565L0 4.508C0.0979999 4.60833 0.21 4.69933 0.336 4.781Q0.525 4.9035 0.74025 4.991C0.88375 5.04934 1.03367 5.09425 1.19 5.12575C1.34633 5.15725 1.505 5.173 1.666 5.173ZM18.8565 4.97875C18.5415 5.10825 18.1915 5.173 17.8065 5.173C17.4239 5.173 17.075 5.10825 16.76 4.97875C16.445 4.84925 16.1749 4.669 15.9498 4.438C15.7246 4.207 15.5502 3.93342 15.4265 3.61725C15.3029 3.30108 15.241 2.9575 15.241 2.5865C15.241 2.2155 15.3029 1.87192 15.4265 1.55575C15.5502 1.23958 15.7246 0.966 15.9498 0.735001C16.1749 0.504002 16.445 0.32375 16.76 0.194252C17.075 0.0647507 17.4239 0 17.8065 0C18.0632 0 18.3047 0.0297508 18.531 0.0892525C18.7574 0.14875 18.965 0.23275 19.154 0.341251C19.343 0.449749 19.5128 0.581585 19.6633 0.736752C19.8138 0.891918 19.9415 1.06517 20.0465 1.2565C20.1515 1.44783 20.2314 1.6555 20.2863 1.8795C20.3411 2.1035 20.3685 2.33917 20.3685 2.5865C20.3685 2.9575 20.3073 3.30108 20.1848 3.61725C20.0623 3.93342 19.889 4.207 19.665 4.438C19.441 4.669 19.1715 4.84925 18.8565 4.97875ZM24.177 5.173C24.457 5.173 24.7055 5.13042 24.9225 5.04525C25.1395 4.96008 25.3232 4.84342 25.4737 4.69525C25.6242 4.54708 25.7386 4.37325 25.8167 4.17375C25.8949 3.97425 25.934 3.76017 25.934 3.5315C25.934 3.3215 25.9007 3.143 25.8342 2.996C25.7677 2.849 25.6797 2.72475 25.57 2.62325C25.4603 2.52175 25.3355 2.43775 25.1955 2.37125C25.0555 2.30475 24.912 2.24642 24.765 2.19625C24.618 2.14608 24.4745 2.09883 24.3345 2.0545C24.1945 2.01017 24.0697 1.96 23.96 1.904C23.8503 1.848 23.7622 1.78033 23.6957 1.701C23.6292 1.62167 23.596 1.5225 23.596 1.4035C23.596 1.31017 23.6123 1.22442 23.645 1.14625C23.6777 1.06808 23.7272 1.001 23.7937 0.945C23.8602 0.889 23.9425 0.845249 24.0405 0.813751C24.1385 0.782249 24.2528 0.766502 24.3835 0.766502C24.5282 0.766502 24.6536 0.784584 24.7597 0.820751C24.8659 0.856918 24.9587 0.897167 25.038 0.941502C25.1173 0.985832 25.1856 1.02608 25.2427 1.06225C25.2999 1.09842 25.353 1.1165 25.402 1.1165C25.4487 1.1165 25.4877 1.10542 25.5192 1.08325C25.5507 1.06108 25.5805 1.0255 25.6085 0.976501L25.843 0.532001C25.6657 0.364002 25.451 0.233334 25.199 0.139999C24.947 0.046669 24.6717 0 24.373 0C24.107 0 23.8713 0.0408325 23.666 0.122501C23.4607 0.204166 23.288 0.312668 23.148 0.448002C23.008 0.583332 22.9012 0.738499 22.8277 0.913502C22.7542 1.0885 22.7175 1.26817 22.7175 1.4525C22.7175 1.6835 22.7507 1.87775 22.8172 2.03525C22.8837 2.19275 22.9718 2.324 23.0815 2.429C23.1912 2.534 23.316 2.61917 23.456 2.6845C23.596 2.74983 23.7383 2.80584 23.883 2.8525C24.0277 2.89917 24.17 2.94233 24.31 2.982C24.45 3.02167 24.5748 3.07008 24.6845 3.12725C24.7942 3.18442 24.8822 3.255 24.9487 3.339C25.0152 3.423 25.0485 3.5315 25.0485 3.6645Q25.0485 4.0215 24.828 4.21225C24.681 4.33942 24.4733 4.403 24.205 4.403C24.03 4.403 23.8801 4.37909 23.7552 4.33125C23.6304 4.28342 23.5213 4.23034 23.428 4.172C23.3347 4.11367 23.2542 4.06059 23.1865 4.01275C23.1188 3.96492 23.0558 3.941 22.9975 3.941C22.9555 3.941 22.9158 3.95208 22.8785 3.97425C22.8412 3.99642 22.8108 4.02383 22.7875 4.0565L22.511 4.508C22.609 4.60833 22.721 4.69933 22.847 4.781Q23.036 4.9035 23.2512 4.991C23.3947 5.04934 23.5447 5.09425 23.701 5.12575C23.8573 5.15725 24.016 5.173 24.177 5.173ZM5.00701 2.905L5.00701 5.117L4.06201 5.117L4.06201 0.0559998L5.00701 0.0559998L5.00701 2.233L7.38351 2.233L7.38351 0.0559998L8.32851 0.0559998L8.32851 5.117L7.38351 5.117L7.38351 2.905L5.00701 2.905ZM11.158 5.117L11.158 2.009C11.158 1.87833 11.151 1.736 11.137 1.582L13.7795 4.956C13.8262 5.01434 13.8746 5.05575 13.9247 5.08025C13.9749 5.10475 14.0373 5.117 14.112 5.117L14.595 5.117L14.595 0.0559998L13.7655 0.0559998L13.7655 3.1325C13.7655 3.20017 13.7678 3.27367 13.7725 3.353C13.7772 3.43233 13.783 3.51283 13.79 3.5945L11.137 0.206501C11.1113 0.173836 11.088 0.147583 11.067 0.12775C11.046 0.107918 11.0244 0.0927505 11.0022 0.0822487C10.9801 0.0717506 10.9544 0.0647507 10.9252 0.0612488C10.8961 0.0577507 10.8617 0.0559998 10.822 0.0559998L10.3285 0.0559998L10.3285 5.117L11.158 5.117ZM22.018 0.0559998L22.018 5.117L21.018 5.117L21.018 0.0559998L22.018 0.0559998ZM29.765 4.3645L29.765 5.117L26.573 5.117L26.573 0.0559998L29.765 0.0559998L29.765 0.805L27.518 0.805L27.518 2.2085L29.289 2.2085L29.289 2.933L27.518 2.933L27.518 4.3645L29.765 4.3645ZM17.8065 4.36801C17.5592 4.36801 17.3369 4.32718 17.1397 4.24551C16.9426 4.16385 16.7746 4.0466 16.6357 3.89376C16.4969 3.74093 16.3902 3.55426 16.3155 3.33376C16.2408 3.11326 16.2035 2.86418 16.2035 2.58651C16.2035 2.30885 16.2408 2.05976 16.3155 1.83926C16.3902 1.61876 16.4969 1.43151 16.6357 1.27751C16.7746 1.12351 16.9426 1.00568 17.1397 0.924011C17.3369 0.842346 17.5592 0.801514 17.8065 0.801514Q18.1775 0.801514 18.4732 0.924011C18.6704 1.00568 18.8378 1.12351 18.9755 1.27751C19.1132 1.43151 19.2193 1.61876 19.294 1.83926C19.3687 2.05976 19.406 2.30885 19.406 2.58651C19.406 2.86418 19.3687 3.11326 19.294 3.33376C19.2193 3.55426 19.1132 3.74093 18.9755 3.89376C18.8378 4.0466 18.6704 4.16385 18.4732 4.24551Q18.1775 4.36801 17.8065 4.36801Z" transform="translate(0.710022 53.944)" id="SH-NOISE" fill="#FF9000" fill-rule="evenodd" stroke="none" />
            <path d="M14.1153 5.0715C13.9064 5.13916 13.6853 5.173 13.452 5.173C13.1977 5.173 12.976 5.14383 12.787 5.08549C12.598 5.02716 12.4335 4.94083 12.2935 4.8265C12.1535 4.71217 12.0345 4.57217 11.9365 4.40649C11.8385 4.24083 11.7545 4.0495 11.6845 3.8325L12.066 3.675C12.1663 3.633 12.2603 3.62191 12.3478 3.64175C12.4353 3.66158 12.4988 3.70883 12.5385 3.78349C12.5805 3.86517 12.6266 3.94566 12.6768 4.02499C12.7269 4.10433 12.787 4.17491 12.857 4.23675C12.927 4.29858 13.0093 4.34875 13.1038 4.38725C13.1983 4.42574 13.3108 4.445 13.4415 4.445C13.5885 4.445 13.7168 4.42108 13.8265 4.37325C13.9362 4.32542 14.0278 4.263 14.1013 4.186C14.1748 4.10899 14.2296 4.02325 14.2658 3.92875C14.3019 3.83424 14.32 3.73917 14.32 3.64349C14.32 3.52216 14.3072 3.41191 14.2815 3.31274C14.2558 3.21358 14.2022 3.129 14.1205 3.059C14.0388 2.989 13.9216 2.93417 13.7688 2.89449C13.6159 2.85483 13.4112 2.835 13.1545 2.835L13.1545 2.21899C13.3668 2.21667 13.543 2.19683 13.683 2.1595C13.823 2.12216 13.9344 2.07024 14.0173 2.00375C14.1001 1.93725 14.1578 1.85733 14.1905 1.764C14.2232 1.67066 14.2395 1.56799 14.2395 1.45599Q14.2395 1.099 14.04 0.913498C13.907 0.789833 13.7297 0.727997 13.508 0.727997C13.4053 0.727997 13.3108 0.742577 13.2245 0.771744C13.1382 0.800911 13.0606 0.841743 12.9918 0.894249C12.9229 0.946747 12.8652 1.008 12.8185 1.078C12.7718 1.14799 12.7368 1.225 12.7135 1.309C12.6738 1.41633 12.6219 1.4875 12.5578 1.5225C12.4936 1.5575 12.4032 1.56567 12.2865 1.547L11.8315 1.4665C11.8665 1.22383 11.9342 1.01091 12.0345 0.827744C12.1348 0.644577 12.2603 0.491745 12.4108 0.369247C12.5613 0.24675 12.7339 0.154579 12.9288 0.0927505C13.1236 0.0309143 13.333 0 13.557 0C13.7903 0 14.0009 0.0332489 14.1888 0.0997467C14.3766 0.166245 14.537 0.258415 14.67 0.376244C14.803 0.49408 14.9051 0.632332 14.9763 0.791C15.0474 0.949661 15.083 1.12116 15.083 1.3055C15.083 1.4665 15.0649 1.60825 15.0288 1.73074C14.9926 1.85325 14.9407 1.96 14.873 2.05099C14.8053 2.142 14.7213 2.21899 14.621 2.282C14.5207 2.34499 14.4075 2.3975 14.2815 2.4395C14.5848 2.53516 14.8112 2.681 14.9605 2.877C15.1098 3.073 15.1845 3.31916 15.1845 3.61549C15.1845 3.8675 15.1378 4.09033 15.0445 4.284C14.9512 4.47766 14.8252 4.64041 14.6665 4.77225C14.5078 4.90408 14.3241 5.00383 14.1153 5.0715ZM0.945 3.0555L0.945 5.117L0 5.117L0 0.0559998L3.192 0.0559998L3.192 0.805L0.945 0.805L0.945 2.30299L2.842 2.30299L2.842 3.0555L0.945 3.0555ZM5.51151 5.117L5.51151 1.848C5.51151 1.785 5.50917 1.71616 5.50451 1.64149C5.49984 1.56683 5.49401 1.491 5.48701 1.41399L7.03401 4.298C7.10634 4.43566 7.21717 4.50449 7.36651 4.50449L7.49951 4.50449C7.64884 4.50449 7.75967 4.43566 7.83201 4.298L9.36151 1.4245Q9.34051 1.652 9.34051 1.848L9.34051 5.117L10.17 5.117L10.17 0.0559998L9.45951 0.0559998C9.41751 0.0559998 9.38134 0.0571671 9.35101 0.059494C9.32067 0.0618286 9.29326 0.0676651 9.26876 0.0769958C9.24426 0.0863266 9.22151 0.101494 9.20051 0.122498C9.17951 0.143494 9.15967 0.171494 9.14101 0.206497L7.64651 3.00999C7.60684 3.08466 7.56951 3.16225 7.53451 3.24274C7.49951 3.32325 7.46567 3.40666 7.43301 3.493C7.40034 3.409 7.36709 3.32733 7.33326 3.24799C7.29942 3.16866 7.26267 3.09167 7.22301 3.017L5.70751 0.206497Q5.67951 0.153992 5.64976 0.122498C5.62992 0.101494 5.60776 0.0863266 5.58326 0.0769958C5.55876 0.0676651 5.53134 0.0618286 5.50101 0.059494C5.47067 0.0571671 5.43451 0.0559998 5.39251 0.0559998L4.68201 0.0559998L4.68201 5.117L5.51151 5.117Z" transform="translate(8.60199 90)" id="FM3" fill="#FF9000" fill-rule="evenodd" stroke="none" />
            <path d="M15.1915 4.599L15.1915 5.117L11.7195 5.117L11.7195 4.82999C11.7195 4.77167 11.7317 4.71041 11.7562 4.64625C11.7807 4.58208 11.8198 4.52433 11.8735 4.473L13.41 2.933C13.5383 2.80233 13.6532 2.6775 13.7547 2.55849C13.8562 2.4395 13.9408 2.32166 14.0085 2.20499C14.0761 2.08833 14.1281 1.96992 14.1642 1.84975C14.2004 1.72958 14.2185 1.603 14.2185 1.46999C14.2185 1.34866 14.201 1.24191 14.166 1.14975Q14.1135 1.01149 14.0172 0.917C13.9531 0.853996 13.8761 0.806747 13.7862 0.775246C13.6964 0.743744 13.5955 0.727997 13.4835 0.727997C13.3808 0.727997 13.2857 0.742577 13.1982 0.771744C13.1107 0.800911 13.0331 0.841744 12.9655 0.894249C12.8978 0.946747 12.8406 1.008 12.794 1.078C12.7473 1.14799 12.7123 1.225 12.689 1.309C12.6493 1.41633 12.598 1.4875 12.535 1.5225C12.472 1.5575 12.381 1.56567 12.262 1.547L11.807 1.4665C11.842 1.22383 11.9096 1.01091 12.01 0.827744C12.1103 0.644577 12.2357 0.491745 12.3862 0.369247C12.5367 0.24675 12.7094 0.154579 12.9042 0.0927505C13.0991 0.0309143 13.3085 0 13.5325 0C13.7658 0 13.9793 0.0344162 14.173 0.103249C14.3666 0.172081 14.5323 0.269493 14.67 0.3955C14.8076 0.5215 14.915 0.673164 14.992 0.850494Q15.1075 1.1165 15.1075 1.44199Q15.1075 1.722 15.0252 1.96C14.9704 2.11866 14.8969 2.27033 14.8047 2.41499C14.7126 2.55966 14.6046 2.69966 14.481 2.835C14.3573 2.97033 14.2278 3.10799 14.0925 3.24799L12.9515 4.4135C13.0611 4.38083 13.1702 4.35574 13.2787 4.33825C13.3872 4.32075 13.4905 4.312 13.5885 4.312L14.887 4.312C14.9803 4.312 15.0544 4.33825 15.1092 4.39075C15.1641 4.44324 15.1915 4.51266 15.1915 4.599ZM0.945 3.0555L0.945 5.117L0 5.117L0 0.0559998L3.192 0.0559998L3.192 0.805L0.945 0.805L0.945 2.30299L2.842 2.30299L2.842 3.0555L0.945 3.0555ZM5.51151 5.117L5.51151 1.848C5.51151 1.785 5.50917 1.71616 5.50451 1.64149C5.49984 1.56683 5.49401 1.491 5.48701 1.41399L7.03401 4.298C7.10634 4.43566 7.21717 4.50449 7.36651 4.50449L7.49951 4.50449C7.64884 4.50449 7.75967 4.43566 7.83201 4.298L9.36151 1.4245Q9.34051 1.652 9.34051 1.848L9.34051 5.117L10.17 5.117L10.17 0.0559998L9.45951 0.0559998C9.41751 0.0559998 9.38134 0.0571671 9.35101 0.059494C9.32067 0.0618286 9.29326 0.0676651 9.26876 0.0769958C9.24426 0.0863266 9.22151 0.101494 9.20051 0.122498C9.17951 0.143494 9.15967 0.171494 9.14101 0.206497L7.64651 3.00999C7.60684 3.08466 7.56951 3.16225 7.53451 3.24274C7.49951 3.32325 7.46567 3.40666 7.43301 3.493C7.40034 3.409 7.36709 3.32733 7.33326 3.24799C7.29942 3.16866 7.26267 3.09167 7.22301 3.017L5.70751 0.206497Q5.67951 0.153992 5.64976 0.122498C5.62992 0.101494 5.60776 0.0863266 5.58326 0.0769958C5.55876 0.0676651 5.53134 0.0618286 5.50101 0.059494C5.47067 0.0571671 5.43451 0.0559998 5.39251 0.0559998L4.68201 0.0559998L4.68201 5.117L5.51151 5.117Z" transform="translate(8.60199 108)" id="FM2" fill="#FF9000" fill-rule="evenodd" stroke="none" />
            <path d="M22.448 4.97875C22.133 5.10825 21.783 5.173 21.398 5.173C21.0154 5.173 20.6665 5.10825 20.3515 4.97875C20.0365 4.84925 19.7664 4.669 19.5413 4.438C19.3161 4.20699 19.1417 3.93342 19.018 3.61724Q18.8325 3.143 18.8325 2.58649Q18.8325 2.02999 19.018 1.55575C19.1417 1.23959 19.3161 0.965996 19.5413 0.734993C19.7664 0.503998 20.0365 0.323746 20.3515 0.194244C20.6665 0.064743 21.0154 0 21.398 0C21.6547 0 21.8962 0.029747 22.1225 0.0892487C22.3489 0.14875 22.5565 0.23275 22.7455 0.341248C22.9345 0.449745 23.1043 0.581581 23.2548 0.736748C23.4053 0.891914 23.533 1.06516 23.638 1.25649C23.743 1.44782 23.8229 1.65549 23.8778 1.87949C23.9326 2.10349 23.96 2.33916 23.96 2.58649Q23.96 3.143 23.7763 3.61724C23.6538 3.93342 23.4805 4.20699 23.2565 4.438C23.0325 4.669 22.763 4.84925 22.448 4.97875ZM2.422 5.117L3.5385 1.659C3.55483 1.61466 3.57 1.56683 3.584 1.5155C3.598 1.46416 3.612 1.40932 3.626 1.35099C3.65167 1.47233 3.67967 1.57499 3.71 1.659L4.816 5.117L5.6665 5.117L7.238 0.0559998L6.4995 0.0559998C6.42017 0.0559998 6.35192 0.0769958 6.29475 0.118996C6.23758 0.160995 6.202 0.211166 6.188 0.269493L5.327 3.29699C5.28967 3.44633 5.25583 3.61317 5.2255 3.79749C5.18583 3.6085 5.1415 3.44166 5.0925 3.29699L4.102 0.269493C4.07633 0.206497 4.03783 0.155167 3.9865 0.115494C3.93517 0.0758286 3.86867 0.0559998 3.787 0.0559998L3.5105 0.0559998C3.43117 0.0559998 3.36408 0.0781631 3.30925 0.122498C3.25442 0.166832 3.21767 0.215828 3.199 0.269493L2.205 3.29699C2.17933 3.37167 2.15542 3.45217 2.13325 3.53849C2.11108 3.62482 2.09067 3.717 2.072 3.81499C2.05333 3.71932 2.03525 3.62775 2.01775 3.54025C2.00025 3.45275 1.98217 3.37167 1.9635 3.29699L1.1025 0.269493C1.08383 0.204163 1.04708 0.152245 0.99225 0.113747Q0.91 0.0559998 0.7875 0.0559998L0 0.0559998L1.568 5.117L2.422 5.117ZM8.48102 0.0559998L8.48102 5.117L7.48102 5.117L7.48102 0.0559998L8.48102 0.0559998ZM10.006 5.117L10.006 2.009Q10.006 1.813 9.98501 1.58199L12.6275 4.956C12.6742 5.01434 12.7226 5.05575 12.7728 5.08025C12.8229 5.10474 12.8853 5.117 12.96 5.117L13.443 5.117L13.443 0.0559998L12.6135 0.0559998L12.6135 3.1325C12.6135 3.20016 12.6158 3.27366 12.6205 3.35299C12.6252 3.43234 12.631 3.51283 12.638 3.59449L9.98501 0.206497C9.95935 0.173828 9.93601 0.147583 9.91501 0.127747C9.89401 0.10791 9.87243 0.0927505 9.85026 0.0822449C9.8281 0.0717468 9.80243 0.064743 9.77326 0.0612488C9.7441 0.0577469 9.70968 0.0559998 9.67001 0.0559998L9.17651 0.0559998L9.17651 5.117L10.006 5.117ZM17.1685 4.9315C16.8535 5.05517 16.5035 5.117 16.1185 5.117L14.19 5.117L14.19 0.0559998L16.1185 0.0559998Q16.696 0.0559997 17.1685 0.243248C17.4835 0.36808 17.753 0.541916 17.977 0.764748C18.201 0.987579 18.3748 1.25416 18.4985 1.56449Q18.684 2.02999 18.684 2.58649Q18.684 3.143 18.4985 3.6085C18.3748 3.91883 18.201 4.186 17.977 4.41C17.753 4.634 17.4835 4.80782 17.1685 4.9315ZM27.444 1.659L26.3275 5.117L25.4735 5.117L23.9055 0.0559998L24.693 0.0559998C24.7747 0.0559998 24.8429 0.0752487 24.8978 0.113747C24.9526 0.152245 24.9894 0.204163 25.008 0.269493L25.869 3.29699Q25.897 3.409 25.9233 3.54025C25.9408 3.62775 25.9589 3.71932 25.9775 3.81499C25.9962 3.717 26.0166 3.62482 26.0388 3.53849C26.0609 3.45217 26.0849 3.37167 26.1105 3.29699L27.1045 0.269493C27.1232 0.215828 27.1599 0.166832 27.2148 0.122498C27.2696 0.0781631 27.3367 0.0559998 27.416 0.0559998L27.6925 0.0559998C27.7742 0.0559998 27.8407 0.0758286 27.892 0.115494C27.9434 0.155167 27.9819 0.206497 28.0075 0.269493L28.998 3.29699C29.047 3.44166 29.0914 3.6085 29.131 3.79749C29.1614 3.61317 29.1952 3.44633 29.2325 3.29699L30.0935 0.269493C30.1075 0.211166 30.1431 0.160995 30.2003 0.118996C30.2574 0.0769958 30.3257 0.0559998 30.405 0.0559998L31.1435 0.0559998L29.572 5.117L28.7215 5.117L27.6155 1.659C27.5852 1.57499 27.5572 1.47233 27.5315 1.35099C27.5175 1.40932 27.5035 1.46416 27.4895 1.5155C27.4755 1.56683 27.4604 1.61466 27.444 1.659ZM21.398 4.36802C21.1507 4.36802 20.9284 4.32719 20.7312 4.24551C20.5341 4.16384 20.3661 4.04659 20.2272 3.89376C20.0884 3.74093 19.9816 3.55427 19.907 3.33376C19.8323 3.11326 19.795 2.86417 19.795 2.58651C19.795 2.30885 19.8323 2.05976 19.907 1.83926C19.9816 1.61877 20.0884 1.43151 20.2272 1.27752C20.3661 1.12351 20.5341 1.00568 20.7312 0.924011Q21.027 0.801514 21.398 0.801514Q21.769 0.801514 22.0647 0.924011C22.2619 1.00568 22.4293 1.12351 22.567 1.27752C22.7046 1.43151 22.8108 1.61877 22.8855 1.83926Q22.9975 2.17001 22.9975 2.58651Q22.9975 3.00301 22.8855 3.33376C22.8108 3.55427 22.7046 3.74093 22.567 3.89376C22.4293 4.04659 22.2619 4.16384 22.0647 4.24551C21.8676 4.32719 21.6453 4.36802 21.398 4.36802ZM16.1185 4.368L15.135 4.368L15.135 0.804993L16.1185 0.804993Q16.4895 0.804993 16.7853 0.92749C16.9824 1.00916 17.1504 1.1264 17.2893 1.27924C17.4281 1.43207 17.5343 1.61874 17.6078 1.83923Q17.718 2.16999 17.718 2.58649Q17.718 3.00298 17.6078 3.33374C17.5343 3.55424 17.4281 3.74091 17.2893 3.89374C17.1504 4.04657 16.9824 4.16382 16.7853 4.24548C16.5881 4.32716 16.3658 4.368 16.1185 4.368Z" transform="translate(0.09802246 126)" id="WINDOW" fill="#FF9000" fill-rule="evenodd" stroke="none" />
            <path d="M19.8785 5.173C20.2635 5.173 20.6135 5.10825 20.9285 4.97874C21.2435 4.84924 21.513 4.669 21.737 4.438Q22.073 4.09149 22.2567 3.61725C22.3792 3.30108 22.4405 2.9575 22.4405 2.58649C22.4405 2.33916 22.4131 2.1035 22.3582 1.87949C22.3034 1.65549 22.2235 1.44783 22.1185 1.2565C22.0135 1.06516 21.8857 0.891914 21.7352 0.736748C21.5847 0.581581 21.415 0.449745 21.226 0.341248C21.037 0.23275 20.8293 0.14875 20.603 0.0892487C20.3767 0.029747 20.1352 0 19.8785 0C19.4958 0 19.147 0.064743 18.832 0.194244C18.517 0.323746 18.2469 0.503998 18.0217 0.734993C17.7966 0.965996 17.6222 1.23958 17.4985 1.55575C17.3748 1.87191 17.313 2.2155 17.313 2.58649C17.313 2.9575 17.3748 3.30108 17.4985 3.61725C17.6222 3.93341 17.7966 4.20699 18.0217 4.438C18.2469 4.669 18.517 4.84924 18.832 4.97874Q19.3045 5.173 19.8785 5.173ZM0.735 5.117C0.814333 5.117 0.880833 5.09483 0.9345 5.0505C0.988167 5.00616 1.02433 4.95716 1.043 4.9035L1.421 3.87099L3.5175 3.87099L3.8955 4.9035C3.92117 4.96416 3.95967 5.01492 4.011 5.05575C4.06233 5.09658 4.12883 5.117 4.2105 5.117L4.9385 5.117L2.9505 0.0559998L1.9915 0.0559998L0 5.117L0.735 5.117ZM7.29452 5.173C7.61885 5.173 7.91052 5.12108 8.16952 5.01725C8.42852 4.91341 8.64844 4.76875 8.82927 4.58324C9.0101 4.39774 9.14894 4.17725 9.24577 3.92175C9.3426 3.66624 9.39102 3.388 9.39102 3.087L9.39102 0.0559998L8.44952 0.0559998L8.44952 3.087C8.44952 3.28066 8.42327 3.45567 8.37077 3.612C8.31827 3.76833 8.24302 3.90133 8.14502 4.01099C8.04702 4.12067 7.92627 4.20583 7.78277 4.26649Q7.56752 4.3575 7.29452 4.3575C7.11252 4.3575 6.94977 4.32716 6.80627 4.26649C6.66277 4.20583 6.54144 4.12008 6.44227 4.00925Q6.29352 3.843 6.21477 3.6085C6.16227 3.45216 6.13602 3.27716 6.13602 3.0835L6.13602 0.0559998L5.19452 0.0559998L5.19452 3.087C5.19452 3.388 5.24294 3.66624 5.33977 3.92175C5.4366 4.17725 5.57544 4.39774 5.75627 4.58324Q6.02752 4.8615 6.41602 5.01725C6.67502 5.12108 6.96785 5.173 7.29452 5.173ZM13.3535 4.9315C13.0385 5.05516 12.6885 5.117 12.3035 5.117L10.375 5.117L10.375 0.0559998L12.3035 0.0559998C12.6885 0.0559998 13.0385 0.118416 13.3535 0.243248C13.6685 0.36808 13.938 0.541916 14.162 0.764748C14.386 0.987579 14.5598 1.25417 14.6835 1.5645C14.8072 1.87483 14.869 2.2155 14.869 2.58649Q14.869 3.143 14.6835 3.6085C14.5598 3.91883 14.386 4.186 14.162 4.41C13.938 4.634 13.6685 4.80783 13.3535 4.9315ZM16.6185 0.0559998L16.6185 5.117L15.6185 5.117L15.6185 0.0559998L16.6185 0.0559998ZM25.811 5.117L25.811 0.0559998L24.811 0.0559998L24.811 5.117L25.811 5.117ZM27.636 2.009L27.636 5.117L26.8065 5.117L26.8065 0.0559998L27.3 0.0559998C27.3397 0.0559998 27.3741 0.0577469 27.4033 0.0612488C27.4324 0.064743 27.4581 0.0717468 27.4803 0.0822449C27.5024 0.0927505 27.524 0.10791 27.545 0.127747C27.566 0.147583 27.5894 0.173828 27.615 0.206497L30.268 3.5945C30.261 3.51283 30.2552 3.43233 30.2505 3.353C30.2459 3.27367 30.2435 3.20016 30.2435 3.1325L30.2435 0.0559998L31.073 0.0559998L31.073 5.117L30.59 5.117C30.5154 5.117 30.4529 5.10474 30.4028 5.08025C30.3526 5.05575 30.3042 5.01433 30.2575 4.95599L27.615 1.58199C27.629 1.736 27.636 1.87833 27.636 2.009ZM19.2118 4.24551Q19.5075 4.36801 19.8785 4.36801Q20.2495 4.36801 20.5453 4.24551C20.7424 4.16385 20.9098 4.04659 21.0475 3.89376C21.1852 3.74093 21.2913 3.55426 21.366 3.33376C21.4407 3.11326 21.478 2.86418 21.478 2.58651C21.478 2.30885 21.4407 2.05976 21.366 1.83926C21.2913 1.61876 21.1852 1.43151 21.0475 1.27751C20.9098 1.12351 20.7424 1.00568 20.5453 0.924011Q20.2495 0.801514 19.8785 0.801514Q19.5075 0.801514 19.2118 0.924011C19.0146 1.00568 18.8466 1.12351 18.7078 1.27751C18.5689 1.43151 18.4622 1.61876 18.3875 1.83926C18.3128 2.05976 18.2755 2.30885 18.2755 2.58651C18.2755 2.86418 18.3128 3.11326 18.3875 3.33376C18.4622 3.55426 18.5689 3.74093 18.7078 3.89376C18.8466 4.04659 19.0146 4.16385 19.2118 4.24551ZM12.3035 4.36799L11.32 4.36799L11.32 0.804993L12.3035 0.804993Q12.6745 0.804993 12.9703 0.92749C13.1674 1.00916 13.3354 1.1264 13.4743 1.27924C13.6131 1.43208 13.7193 1.61874 13.7928 1.83924C13.8663 2.05974 13.903 2.30882 13.903 2.58649C13.903 2.86416 13.8663 3.11324 13.7928 3.33374C13.7193 3.55424 13.6131 3.74091 13.4743 3.89374C13.3354 4.04657 13.1674 4.16383 12.9703 4.24549Q12.6745 4.36799 12.3035 4.36799ZM1.66602 3.20601L3.27602 3.20601L2.66002 1.52251C2.62968 1.44785 2.59818 1.35918 2.56552 1.25652C2.53285 1.15385 2.50018 1.04301 2.46752 0.924011C2.43718 1.04301 2.40568 1.15443 2.37302 1.25826C2.34035 1.3621 2.30885 1.45251 2.27852 1.52951L1.66602 3.20601Z" transform="translate(0 72)" id="AUDIOIN" fill="#FF9000" fill-rule="evenodd" stroke="none" />
          </g>
        </g>
      </g>
    </g>
  </g>
</svg>