<?xml version="1.0" encoding="UTF-8"?>
<svg width="37px" height="24px" viewBox="0 0 37 24" version="1.1" xmlns="http://www.w3.org/2000/svg" xmlns:xlink="http://www.w3.org/1999/xlink">
    <!-- Generator: Sketch 55.2 (78181) - https://sketchapp.com -->
    <title>bmp00149</title>
    <desc>Created with Sketch.</desc>
    <g id="bmp00149" stroke="none" stroke-width="1" fill="none" fill-rule="evenodd">
        <rect id="Rectangle" stroke="#979797" fill="#E3E3E3" x="0.5" y="12.5" width="36" height="11" rx="5"></rect>
        <rect id="Rectangle" fill="#A1A4B7" x="18" y="15" width="1" height="6"></rect>
        <rect id="Rectangle" stroke="#979797" fill="#E3E3E3" x="0.5" y="0.5" width="36" height="11" rx="5"></rect>
        <rect id="Rectangle" fill="#A1A4B7" x="18" y="3" width="1" height="6"></rect>
        <g id="Group-3" transform="translate(5.000000, 2.000000)" fill="#000000">
            <g id="Group-2" transform="translate(18.000000, 0.500000)">
                <path d="M4,4.5 L0,4.5 L0,2.5 L4,2.5 L4,0.5 L8.73684211,3.5 L4,6.5 L4,4.5 Z" id="Combined-Shape"></path>
            </g>
            <g id="Group-2" transform="translate(4.500000, 4.000000) scale(-1, 1) translate(-4.500000, -4.000000) translate(0.000000, 0.500000)">
                <path d="M4,4.5 L0,4.5 L0,2.5 L4,2.5 L4,0.5 L9,3.5 L4,6.5 L4,4.5 Z" id="Combined-Shape"></path>
            </g>
        </g>
        <g id="Group-3" transform="translate(5.000000, 14.000000)" fill="#000000">
            <g id="Group-2" transform="translate(18.000000, 0.500000)">
                <path d="M4,4.5 L0,4.5 L0,2.5 L4,2.5 L4,0.5 L8.73684211,3.5 L4,6.5 L4,4.5 Z" id="Combined-Shape"></path>
            </g>
            <g id="Group-2" transform="translate(4.500000, 4.000000) scale(-1, 1) translate(-4.500000, -4.000000) translate(0.000000, 0.500000)">
                <path d="M4,4.5 L0,4.5 L0,2.5 L4,2.5 L4,0.5 L9,3.5 L4,6.5 L4,4.5 Z" id="Combined-Shape"></path>
            </g>
        </g>
    </g>
</svg>