<?xml version="1.0" encoding="UTF-8"?>
<svg width="51px" height="54px" viewBox="0 0 51 54" version="1.1" xmlns="http://www.w3.org/2000/svg" xmlns:xlink="http://www.w3.org/1999/xlink">
    <g id="bmp00113" stroke="none" stroke-width="1" fill="none" fill-rule="evenodd">
        <rect id="Rectangle" stroke="#979797" fill="#E3E3E3" x="0.5" y="0.5" width="50" height="26" rx="5"></rect>
        <rect id="Rectangle" stroke="#979797" fill="#E3E3E3" x="0.5" y="27.5" width="50" height="26" rx="5"></rect>
        <rect id="Rectangle" fill="#FF9A10" x="4" y="4" width="18" height="19" rx="2"></rect>
        <rect id="Rectangle" fill="#FF9A10" x="29" y="31" width="18" height="19" rx="2"></rect>
        <path d="M15.08,15.01 L13.3925,10.6375 C13.3424997,10.5074994 13.2900003,10.3562509 13.235,10.18375 C13.1799997,10.0112491 13.1275003,9.82750098 13.0775,9.6325 C12.9724995,10.037502 12.8650006,10.3749987 12.755,10.645 L11.0675,15.01 L15.08,15.01 Z M18.11,19 L16.985,19 C16.8549993,19 16.7500004,18.9675003 16.67,18.9025 C16.5899996,18.8374997 16.5300002,18.7550005 16.49,18.655 L15.485,16.06 L10.6625,16.06 L9.6575,18.655 C9.62749985,18.7450004 9.57000042,18.8249997 9.485,18.895 C9.39999958,18.9650004 9.29500063,19 9.17,19 L8.045,19 L12.3425,8.2525 L13.8125,8.2525 L18.11,19 Z" id="A" fill="#000000" fill-rule="nonzero"></path>
        <path d="M38.145,17.845 C38.5600021,17.845 38.9174985,17.7975005 39.2175,17.7025 C39.5175015,17.6074995 39.763749,17.4737509 39.95625,17.30125 C40.148751,17.1287491 40.2899995,16.9237512 40.38,16.68625 C40.4700005,16.4487488 40.515,16.1875014 40.515,15.9025 C40.515,15.3474972 40.317502,14.9087516 39.9225,14.58625 C39.527498,14.2637484 38.9350039,14.1025 38.145,14.1025 L35.82,14.1025 L35.82,17.845 L38.145,17.845 Z M35.82,9.4 L35.82,13.0675 L37.74,13.0675 C38.150002,13.0675 38.5062485,13.0225004 38.80875,12.9325 C39.1112515,12.8424995 39.361249,12.7175008 39.55875,12.5575 C39.756251,12.3974992 39.9024995,12.2037511 39.9975,11.97625 C40.0925005,11.7487489 40.14,11.5000014 40.14,11.23 C40.14,10.5949968 39.9500019,10.1312515 39.57,9.83875 C39.1899981,9.54624854 38.600004,9.4 37.8,9.4 L35.82,9.4 Z M37.8,8.2525 C38.4600033,8.2525 39.0287476,8.31749935 39.50625,8.4475 C39.9837524,8.57750065 40.3762485,8.7624988 40.68375,9.0025 C40.9912515,9.2425012 41.2174993,9.53624826 41.3625,9.88375 C41.5075007,10.2312517 41.58,10.6224978 41.58,11.0575 C41.58,11.3225013 41.5387504,11.5762488 41.45625,11.81875 C41.3737496,12.0612512 41.2500008,12.2874989 41.085,12.4975 C40.9199992,12.7075011 40.7112513,12.8962492 40.45875,13.06375 C40.2062487,13.2312508 39.9100017,13.3674995 39.57,13.4725 C40.3600039,13.6225008 40.953748,13.9037479 41.35125,14.31625 C41.748752,14.7287521 41.9475,15.2699966 41.9475,15.94 C41.9475,16.3950023 41.8637508,16.8099981 41.69625,17.185 C41.5287492,17.5600019 41.2837516,17.8824987 40.96125,18.1525 C40.6387484,18.4225014 40.2425023,18.6312493 39.7725,18.77875 C39.3024976,18.9262507 38.767503,19 38.1675,19 L34.3725,19 L34.3725,8.2525 L37.8,8.2525 Z" id="B" fill="#000000" fill-rule="nonzero"></path>
        <path d="M15.08,42.01 L13.3925,37.6375 C13.3424997,37.5074994 13.2900003,37.3562509 13.235,37.18375 C13.1799997,37.0112491 13.1275003,36.827501 13.0775,36.6325 C12.9724995,37.037502 12.8650006,37.3749986 12.755,37.645 L11.0675,42.01 L15.08,42.01 Z M18.11,46 L16.985,46 C16.8549993,46 16.7500004,45.9675003 16.67,45.9025 C16.5899996,45.8374997 16.5300002,45.7550005 16.49,45.655 L15.485,43.06 L10.6625,43.06 L9.6575,45.655 C9.62749985,45.7450004 9.57000042,45.8249997 9.485,45.895 C9.39999958,45.9650003 9.29500063,46 9.17,46 L8.045,46 L12.3425,35.2525 L13.8125,35.2525 L18.11,46 Z" id="A" fill="#000000" fill-rule="nonzero"></path>
        <path d="M38.145,44.845 C38.5600021,44.845 38.9174985,44.7975005 39.2175,44.7025 C39.5175015,44.6074995 39.763749,44.4737509 39.95625,44.30125 C40.148751,44.1287491 40.2899995,43.9237512 40.38,43.68625 C40.4700005,43.4487488 40.515,43.1875014 40.515,42.9025 C40.515,42.3474972 40.317502,41.9087516 39.9225,41.58625 C39.527498,41.2637484 38.9350039,41.1025 38.145,41.1025 L35.82,41.1025 L35.82,44.845 L38.145,44.845 Z M35.82,36.4 L35.82,40.0675 L37.74,40.0675 C38.150002,40.0675 38.5062485,40.0225004 38.80875,39.9325 C39.1112515,39.8424995 39.361249,39.7175008 39.55875,39.5575 C39.756251,39.3974992 39.9024995,39.2037511 39.9975,38.97625 C40.0925005,38.7487489 40.14,38.5000014 40.14,38.23 C40.14,37.5949968 39.9500019,37.1312515 39.57,36.83875 C39.1899981,36.5462485 38.600004,36.4 37.8,36.4 L35.82,36.4 Z M37.8,35.2525 C38.4600033,35.2525 39.0287476,35.3174993 39.50625,35.4475 C39.9837524,35.5775006 40.3762485,35.7624988 40.68375,36.0025 C40.9912515,36.2425012 41.2174993,36.5362483 41.3625,36.88375 C41.5075007,37.2312517 41.58,37.6224978 41.58,38.0575 C41.58,38.3225013 41.5387504,38.5762488 41.45625,38.81875 C41.3737496,39.0612512 41.2500008,39.2874989 41.085,39.4975 C40.9199992,39.707501 40.7112513,39.8962492 40.45875,40.06375 C40.2062487,40.2312508 39.9100017,40.3674995 39.57,40.4725 C40.3600039,40.6225008 40.953748,40.9037479 41.35125,41.31625 C41.748752,41.7287521 41.9475,42.2699966 41.9475,42.94 C41.9475,43.3950023 41.8637508,43.8099981 41.69625,44.185 C41.5287492,44.5600019 41.2837516,44.8824987 40.96125,45.1525 C40.6387484,45.4225014 40.2425023,45.6312493 39.7725,45.77875 C39.3024976,45.9262507 38.767503,46 38.1675,46 L34.3725,46 L34.3725,35.2525 L37.8,35.2525 Z" id="B" fill="#000000" fill-rule="nonzero"></path>
        <rect id="Rectangle" fill="#979797" x="25" y="2" width="1" height="23"></rect>
        <rect id="Rectangle" fill="#979797" x="25" y="29" width="1" height="23"></rect>
    </g>
</svg>