<?xml version="1.0" encoding="UTF-8" standalone="no"?>
<!DOCTYPE svg PUBLIC "-//W3C//DTD SVG 1.1//EN" "http://www.w3.org/Graphics/SVG/1.1/DTD/svg11.dtd">
<svg width="100%" height="100%" viewBox="0 0 320 320" version="1.1" xmlns="http://www.w3.org/2000/svg" xmlns:xlink="http://www.w3.org/1999/xlink" xml:space="preserve" xmlns:serif="http://www.serif.com/" style="fill-rule:evenodd;clip-rule:evenodd;stroke-linejoin:round;stroke-miterlimit:1.41421;">
    <g transform="matrix(1,0,0,1,-1544,0)">
        <g id="Colors" transform="matrix(1,0,0,1,-1585,0)">
            <rect x="3129" y="0" width="320" height="320" style="fill:none;"/>
            <clipPath id="_clip1">
                <rect x="3129" y="0" width="320" height="320"/>
            </clipPath>
            <g clip-path="url(#_clip1)">
                <g transform="matrix(1.07517,0,0,1.02967,1468.93,-9.49423)">
                    <rect x="1544" y="9.221" width="297.627" height="310.779" style="fill:white;"/>
                    <path d="M1841.63,320L1544,320L1544,9.221L1841.63,9.221L1841.63,320ZM1544.47,319.514L1841.16,319.514L1841.16,9.706L1544.47,9.706L1544.47,319.514Z" style="fill:rgb(51,51,51);"/>
                </g>
                <g transform="matrix(2,0,0,1.13959,2146.03,-859.616)">
                    <rect x="491.485" y="782.402" width="26.784" height="28.08" style="fill:rgb(255,144,0);"/>
                </g>
                <g transform="matrix(1.99121,0,0,1.13959,2150.35,-795.616)">
                    <rect x="491.485" y="782.402" width="26.784" height="28.08" style="fill:rgb(102,102,102);"/>
                </g>
                <g transform="matrix(0.995607,0,0,1.13959,2639.67,-699.616)">
                    <rect x="491.485" y="782.402" width="26.784" height="28.08" style="fill:rgb(242,142,13);"/>
                </g>
                <g transform="matrix(1.99121,0,0,1.13959,2257.01,-795.616)">
                    <rect x="491.485" y="782.402" width="26.784" height="28.08" style="fill:rgb(39,110,191);"/>
                </g>
                <g transform="matrix(1.99121,0,0,1.13959,2363.68,-795.616)">
                    <rect x="491.485" y="782.402" width="26.784" height="28.08" style="fill:rgb(19,96,211);"/>
                </g>
                <g transform="matrix(2,0,0,1.13959,2199.6,-859.616)">
                    <rect x="491.485" y="782.402" width="26.784" height="28.08" style="fill:rgb(2,95,225);"/>
                </g>
                <g transform="matrix(1.99121,0,0,1.13959,2203.68,-795.616)">
                    <rect x="491.485" y="782.402" width="26.784" height="28.08" style="fill:rgb(128,128,128);"/>
                </g>
                <g transform="matrix(1.99121,0,0,1.13959,2310.35,-795.616)">
                    <rect x="491.485" y="782.402" width="26.784" height="28.08" style="fill:rgb(86,149,220);"/>
                </g>
                <g transform="matrix(1.99121,0,0,1.13959,2417.01,-795.616)">
                    <rect x="491.485" y="782.402" width="26.784" height="28.08" style="fill:rgb(67,136,239);"/>
                </g>
                <g transform="matrix(0.995607,0,0,1.13959,2666.34,-699.616)">
                    <rect x="491.485" y="782.402" width="26.784" height="28.08" style="fill:rgb(240,158,50);"/>
                </g>
                <g transform="matrix(2,0,0,1.13959,2253.17,-859.616)">
                    <rect x="491.485" y="782.402" width="26.784" height="28.08" style="fill:rgb(47,49,55);"/>
                </g>
                <g transform="matrix(1.99121,0,0,1.13959,2150.35,-763.616)">
                    <rect x="491.485" y="782.402" width="26.784" height="28.08" style="fill:rgb(202,202,202);"/>
                </g>
                <g transform="matrix(0.995607,0,0,1.13959,2639.67,-667.616)">
                    <rect x="491.485" y="782.402" width="26.784" height="28.08" style="fill:rgb(173,173,173);"/>
                </g>
                <g transform="matrix(1.99121,0,0,1.13959,2257.01,-763.616)">
                    <rect x="491.485" y="782.402" width="26.784" height="28.08" style="fill:rgb(60,142,225);"/>
                </g>
                <g transform="matrix(1.99121,0,0,1.13959,2363.68,-763.616)">
                    <rect x="491.485" y="782.402" width="26.784" height="28.08" style="fill:rgb(33,127,245);"/>
                </g>
                <g transform="matrix(2,0,0,1.13959,2306.74,-859.616)">
                    <rect x="491.485" y="782.402" width="26.784" height="28.08" style="fill:rgb(72,74,84);"/>
                </g>
                <g transform="matrix(1.99121,0,0,1.13959,2203.68,-763.616)">
                    <rect x="491.485" y="782.402" width="26.784" height="28.08" style="fill:rgb(254,254,254);"/>
                </g>
                <g transform="matrix(1.99121,0,0,1.13959,2310.35,-763.616)">
                    <rect x="491.485" y="782.402" width="26.784" height="28.08" style="fill:rgb(116,183,253);"/>
                </g>
                <g transform="matrix(1.99121,0,0,1.13959,2417.01,-763.616)">
                    <rect x="491.485" y="782.402" width="26.784" height="28.08" style="fill:rgb(94,170,255);"/>
                </g>
                <g transform="matrix(0.995607,0,0,1.13959,2666.34,-667.616)">
                    <rect x="491.485" y="782.402" width="26.784" height="28.08" style="fill:rgb(204,204,204);"/>
                </g>
                <g transform="matrix(2,0,0,1.13959,2360.3,-859.616)">
                    <rect x="491.485" y="782.402" width="26.784" height="28.08" style="fill:rgb(191,198,217);"/>
                </g>
                <g transform="matrix(2,0,0,1.13959,2412.46,-859.616)">
                    <rect x="491.485" y="782.402" width="26.784" height="28.08" style="fill:rgb(205,206,213);"/>
                </g>
                <g transform="matrix(1,0,0,1,2657.33,-717.714)">
                    <text x="496.67px" y="744.818px" style="font-family:'Roboto-Regular', 'Roboto';font-size:30px;fill:rgb(26,26,26);">Gener<tspan x="575.009px " y="744.818px ">a</tspan>l</text>
                </g>
                <g transform="matrix(2.37414,0,0,0.78732,1741.16,-366.997)">
                    <rect x="629.495" y="710" width="89.857" height="40.644" style="fill:url(#_Linear2);"/>
                </g>
                <g transform="matrix(2.37414,0,0,0.78732,1741.16,-334.997)">
                    <rect x="629.495" y="710" width="89.857" height="40.644" style="fill:url(#_Linear3);"/>
                </g>
                <g transform="matrix(1,0,0,1,2656.64,-653.714)">
                    <text x="496.67px" y="744.818px" style="font-family:'Roboto-Regular', 'Roboto';font-size:30px;fill:rgb(26,26,26);">F<tspan x="512.754px " y="744.818px ">a</tspan>ders</text>
                </g>
                <g transform="matrix(1,0,0,1,2656.64,-557.714)">
                    <text x="496.67px" y="744.818px" style="font-family:'Roboto-Regular', 'Roboto';font-size:30px;fill:rgb(26,26,26);">Gr<tspan x="526.67px " y="744.818px ">a</tspan>dients</text>
                </g>
                <g transform="matrix(1,0,0,1,2645.64,-707.75)">
                    <text x="547.257px" y="919.943px" style="font-family:'Roboto-Regular', 'Roboto';font-size:11.797px;fill:rgb(26,26,26);">Active</text>
                </g>
                <g transform="matrix(1,0,0,1,2640.97,-675.75)">
                    <text x="547.257px" y="919.943px" style="font-family:'Roboto-Regular', 'Roboto';font-size:11.797px;fill:rgb(26,26,26);">Inactive</text>
                </g>
                <g transform="matrix(1,0,0,1,2697.68,-611.75)">
                    <text x="547.257px" y="919.943px" style="font-family:'Roboto-Regular', 'Roboto';font-size:11.797px;fill:rgb(26,26,26);">= <tspan x="556.422px " y="919.943px ">T</tspan>EMP<tspan x="586.04px " y="919.943px ">.</tspan> Element -&gt; Disable on expor<tspan x="737.72px " y="919.943px ">t</tspan></text>
                </g>
                <g transform="matrix(0.692204,0,0,0.865582,2795.26,-571.549)">
                    <rect x="482.142" y="993.031" width="77.049" height="36.969" style="fill:rgb(255,0,255);"/>
                </g>
                <g transform="matrix(0.692204,0,0,0.865582,2848.59,-571.549)">
                    <rect x="482.142" y="993.031" width="77.049" height="36.969" style="fill:rgb(0,255,142);"/>
                </g>
            </g>
        </g>
    </g>
    <defs>
        <linearGradient id="_Linear2" x1="0" y1="0" x2="1" y2="0" gradientUnits="userSpaceOnUse" gradientTransform="matrix(89.8571,0,0,40.6442,629.495,730.322)"><stop offset="0" style="stop-color:rgb(242,142,13);stop-opacity:1"/><stop offset="1" style="stop-color:rgb(240,158,50);stop-opacity:1"/></linearGradient>
        <linearGradient id="_Linear3" x1="0" y1="0" x2="1" y2="0" gradientUnits="userSpaceOnUse" gradientTransform="matrix(89.8571,0,0,40.6442,629.495,730.322)"><stop offset="0" style="stop-color:rgb(173,173,173);stop-opacity:1"/><stop offset="1" style="stop-color:rgb(204,204,204);stop-opacity:1"/></linearGradient>
    </defs>
</svg>
