<?xml version="1.0" encoding="utf-8"?>
<svg viewBox="0 0 18 18" xmlns="http://www.w3.org/2000/svg">
  <rect x="1" y="1" width="16" height="16" style="fill: rgb(255, 140, 0); stroke: rgb(0,0,0)"/>
  <path d="M 8.454 12.802 L 1.954 12.802 L 1.954 12.062 L 2.914 11.902 L 2.914 5.182 L 1.954 5.012 L 1.954 4.272 L 8.274 4.272 L 8.274 6.322 L 7.354 6.322 L 7.224 5.162 L 4.064 5.162 L 4.064 7.942 L 7.214 7.942 L 7.214 8.842 L 4.064 8.842 L 4.064 11.932 L 7.404 11.932 L 7.534 10.762 L 8.454 10.762 L 8.454 12.802 ZM 11.976 12.802 L 9.386 12.802 L 9.386 12.062 L 10.086 11.932 L 11.976 9.592 L 10.126 7.342 L 9.496 7.202 L 9.496 6.462 L 11.986 6.462 L 11.986 7.202 L 11.346 7.272 L 12.656 8.892 L 13.916 7.272 L 13.236 7.202 L 13.236 6.462 L 15.676 6.462 L 15.676 7.202 L 15.036 7.342 L 13.316 9.582 L 15.296 11.932 L 15.946 12.062 L 15.946 12.802 L 13.266 12.802 L 13.266 12.062 L 14.026 12.002 L 12.636 10.302 L 11.286 12.002 L 11.976 12.062 L 11.976 12.802 Z" transform="matrix(1, 0, 0, 1, 0, 0)" style="fill: rgb(51, 51, 51); white-space: pre;"/>
</svg>