<?xml version="1.0" encoding="utf-8"?>
<svg width="32" height="24" viewBox="0 0 32 24" fill="none" xmlns="http://www.w3.org/2000/svg">
  <path d="M0.5 2.5C0.5 1.39543 1.39543 0.5 2.5 0.5H29.5C30.6046 0.5 31.5 1.39543 31.5 2.5V9.5C31.5 10.6046 30.6046 11.5 29.5 11.5H2.5C1.39543 11.5 0.5 10.6046 0.5 9.5V2.5Z" fill="#FFAAFF"/>
  <path d="M2.5 1H29.5V0H2.5V1ZM31 2.5V9.5H32V2.5H31ZM29.5 11H2.5V12H29.5V11ZM1 9.5V2.5H0V9.5H1ZM2.5 11C1.67157 11 1 10.3284 1 9.5H0C0 10.8807 1.11929 12 2.5 12V11ZM31 9.5C31 10.3284 30.3284 11 29.5 11V12C30.8807 12 32 10.8807 32 9.5H31ZM29.5 1C30.3284 1 31 1.67157 31 2.5H32C32 1.11929 30.8807 0 29.5 0V1ZM2.5 0C1.11929 0 0 1.11929 0 2.5H1C1 1.67157 1.67157 1 2.5 1V0Z" fill="black"/>
  <g opacity="0.75">
    <rect x="15.5" y="10" width="8" height="1" transform="rotate(-90 15.5 10)" fill="black"/>
  </g>
  <g clip-path="url(#clip1)">
    <path fill-rule="evenodd" clip-rule="evenodd" d="M24 9L28 6L24 3L24 5L20 5L20 7L24 7L24 9Z" fill="#FFFF00"/>
  </g>
  <path d="M0.5 14.5C0.5 13.3954 1.39543 12.5 2.5 12.5H29.5C30.6046 12.5 31.5 13.3954 31.5 14.5V21.5C31.5 22.6046 30.6046 23.5 29.5 23.5H2.5C1.39543 23.5 0.5 22.6046 0.5 21.5V14.5Z" fill="#AAAAFF"/>
  <path d="M2.5 13H29.5V12H2.5V13ZM31 14.5V21.5H32V14.5H31ZM29.5 23H2.5V24H29.5V23ZM1 21.5V14.5H0V21.5H1ZM2.5 23C1.67157 23 1 22.3284 1 21.5H0C0 22.8807 1.11929 24 2.5 24V23ZM31 21.5C31 22.3284 30.3284 23 29.5 23V24C30.8807 24 32 22.8807 32 21.5H31ZM29.5 13C30.3284 13 31 13.6716 31 14.5H32C32 13.1193 30.8807 12 29.5 12V13ZM2.5 12C1.11929 12 0 13.1193 0 14.5H1C1 13.6716 1.67157 13 2.5 13V12Z" fill="black"/>
  <g clip-path="url(#clip2)">
    <path fill-rule="evenodd" clip-rule="evenodd" d="M8 15L4 18L8 21L8 19L12 19L12 17L8 17L8 15Z" fill="#00FFFF"/>
  </g>
  <g opacity="0.75">
    <rect x="15.5" y="22" width="8" height="1" transform="rotate(-90 15.5 22)" fill="black"/>
  </g>
  <defs>
    <clipPath id="clip1">
      <path d="M18 10L28 10C29.1046 10 30 9.10457 30 8L30 4C30 2.89543 29.1046 2 28 2L18 2L18 10Z" fill="white"/>
    </clipPath>
    <clipPath id="clip2">
      <path d="M14 14L4 14C2.89543 14 2 14.8954 2 16L2 20C2 21.1046 2.89543 22 4 22L14 22L14 14Z" fill="white"/>
    </clipPath>
  </defs>
  <path d="M 3.893 9.342 C 3.88 9.335 3.856 9.325 3.823 9.312 C 3.783 9.299 3.743 9.292 3.703 9.292 C 3.63 9.279 3.573 9.242 3.533 9.182 C 3.486 9.122 3.463 9.052 3.463 8.972 C 3.463 8.932 3.466 8.899 3.473 8.872 C 3.486 8.852 3.503 8.805 3.523 8.732 C 3.536 8.659 3.543 8.592 3.543 8.532 C 3.563 8.492 3.576 8.452 3.583 8.412 C 3.596 8.379 3.613 8.325 3.633 8.252 C 3.68 7.985 3.79 7.542 3.963 6.922 C 4.136 6.295 4.246 5.962 4.293 5.922 L 4.293 5.822 C 4.293 5.802 4.296 5.765 4.303 5.712 C 4.316 5.659 4.346 5.602 4.393 5.542 C 4.413 5.469 4.43 5.399 4.443 5.332 C 4.463 5.259 4.476 5.205 4.483 5.172 C 4.503 5.139 4.543 5.049 4.603 4.902 C 4.656 4.749 4.693 4.649 4.713 4.602 C 4.753 4.489 4.806 4.355 4.873 4.202 C 4.933 4.049 4.976 3.949 5.003 3.902 L 5.003 3.862 C 5.016 3.849 5.046 3.785 5.093 3.672 C 5.146 3.559 5.19 3.465 5.223 3.392 C 5.27 3.292 5.383 3.042 5.563 2.642 C 5.576 2.602 5.603 2.549 5.643 2.482 C 5.683 2.422 5.703 2.379 5.703 2.352 C 5.73 2.312 5.773 2.292 5.833 2.292 C 5.886 2.292 5.94 2.312 5.993 2.352 C 6.053 2.392 6.096 2.442 6.123 2.502 L 6.213 2.642 L 5.893 3.292 C 5.8 3.445 5.72 3.595 5.653 3.742 C 5.593 3.882 5.563 3.965 5.563 3.992 C 5.536 4.052 5.49 4.175 5.423 4.362 C 5.35 4.549 5.293 4.709 5.253 4.842 C 5.22 4.929 5.183 5.022 5.143 5.122 C 5.103 5.222 5.073 5.292 5.053 5.332 C 5.006 5.439 4.983 5.499 4.983 5.512 C 4.983 5.492 5.343 5.482 6.063 5.482 C 6.176 5.482 6.38 5.479 6.673 5.472 C 6.96 5.465 7.14 5.455 7.213 5.442 L 7.683 5.392 L 7.993 4.472 C 8.053 4.259 8.183 3.849 8.383 3.242 C 8.476 2.989 8.55 2.822 8.603 2.742 C 8.656 2.669 8.723 2.632 8.803 2.632 C 8.83 2.632 8.873 2.645 8.933 2.672 C 8.986 2.699 9.023 2.735 9.043 2.782 C 9.11 2.842 9.143 2.909 9.143 2.982 C 9.143 3.069 9.093 3.185 8.993 3.332 C 8.926 3.459 8.826 3.695 8.693 4.042 C 8.64 4.209 8.606 4.302 8.593 4.322 C 8.593 4.449 8.563 4.542 8.503 4.602 C 8.476 4.629 8.433 4.715 8.373 4.862 C 8.313 5.009 8.283 5.095 8.283 5.122 C 8.283 5.169 8.276 5.219 8.263 5.272 C 8.243 5.332 8.22 5.372 8.193 5.392 L 8.133 5.612 C 7.92 6.372 7.753 6.899 7.633 7.192 C 7.633 7.225 7.62 7.282 7.593 7.362 C 7.56 7.435 7.543 7.489 7.543 7.522 C 7.536 7.562 7.51 7.645 7.463 7.772 C 7.423 7.899 7.403 7.975 7.403 8.002 C 7.39 8.062 7.366 8.165 7.333 8.312 C 7.24 8.719 7.193 8.942 7.193 8.982 C 7.186 8.995 7.17 9.002 7.143 9.002 C 7.116 9.002 7.08 8.992 7.033 8.972 C 6.98 8.952 6.94 8.935 6.913 8.922 C 6.773 8.849 6.703 8.759 6.703 8.652 C 6.703 8.585 6.73 8.499 6.783 8.392 C 6.803 8.365 6.86 8.172 6.953 7.812 L 7.033 7.472 C 7.073 7.379 7.153 7.095 7.273 6.622 C 7.38 6.255 7.44 6.065 7.453 6.052 L 7.453 5.962 C 7.433 5.935 7.213 5.922 6.793 5.922 C 6.32 5.922 5.883 5.945 5.483 5.992 L 5.063 5.992 L 4.833 5.992 C 4.8 6.059 4.706 6.335 4.553 6.822 C 4.4 7.309 4.316 7.615 4.303 7.742 C 4.256 7.942 4.19 8.219 4.103 8.572 C 4.01 8.919 3.94 9.175 3.893 9.342 ZM 9.75 4.652 C 9.71 4.605 9.673 4.532 9.64 4.432 C 9.613 4.332 9.613 4.282 9.64 4.282 C 9.693 4.275 9.75 4.222 9.81 4.122 C 9.877 4.022 9.907 3.939 9.9 3.872 C 9.9 3.852 9.907 3.832 9.92 3.812 C 9.94 3.785 9.963 3.772 9.99 3.772 C 10.037 3.739 10.077 3.722 10.11 3.722 C 10.217 3.722 10.31 3.795 10.39 3.942 C 10.43 4.015 10.45 4.082 10.45 4.142 C 10.45 4.195 10.433 4.252 10.4 4.312 C 10.373 4.372 10.32 4.445 10.24 4.532 C 10.14 4.672 10.043 4.742 9.95 4.742 C 9.89 4.742 9.823 4.712 9.75 4.652 Z M 8.88 8.302 C 8.793 8.222 8.75 8.102 8.75 7.942 C 8.75 7.862 8.767 7.792 8.8 7.732 C 8.8 7.699 8.807 7.662 8.82 7.622 C 8.827 7.575 8.83 7.549 8.83 7.542 C 8.83 7.502 8.857 7.402 8.91 7.242 C 9.017 7.002 9.16 6.579 9.34 5.972 C 9.34 5.945 9.35 5.919 9.37 5.892 C 9.397 5.872 9.433 5.859 9.48 5.852 C 9.527 5.845 9.56 5.842 9.58 5.842 C 9.62 5.842 9.653 5.855 9.68 5.882 C 9.707 5.909 9.743 5.955 9.79 6.022 C 9.823 6.062 9.84 6.119 9.84 6.192 C 9.84 6.305 9.803 6.442 9.73 6.602 C 9.65 6.775 9.597 6.925 9.57 7.052 C 9.497 7.212 9.44 7.362 9.4 7.502 C 9.387 7.535 9.37 7.609 9.35 7.722 C 9.323 7.829 9.29 7.915 9.25 7.982 C 9.21 8.149 9.177 8.265 9.15 8.332 C 9.117 8.399 9.083 8.432 9.05 8.432 C 9.01 8.432 8.953 8.389 8.88 8.302 ZM 11.333 7.062 C 11.22 7.089 11.13 7.055 11.063 6.962 C 10.996 6.875 10.963 6.742 10.963 6.562 C 10.963 6.409 10.993 6.229 11.053 6.022 C 11.133 5.855 11.173 5.732 11.173 5.652 C 11.206 5.545 11.256 5.415 11.323 5.262 C 11.383 5.102 11.436 4.979 11.483 4.892 C 11.503 4.892 11.526 4.872 11.553 4.832 C 11.58 4.785 11.593 4.742 11.593 4.702 C 11.593 4.649 11.606 4.595 11.633 4.542 C 11.653 4.482 11.673 4.439 11.693 4.412 C 11.693 4.399 11.706 4.369 11.733 4.322 C 11.76 4.275 11.773 4.242 11.773 4.222 C 11.773 4.215 11.78 4.199 11.793 4.172 C 11.806 4.145 11.813 4.122 11.813 4.102 C 11.92 3.922 12.076 3.582 12.283 3.082 C 12.483 2.582 12.586 2.295 12.593 2.222 C 12.613 2.115 12.67 2.072 12.763 2.092 C 12.79 2.072 12.836 2.062 12.903 2.062 L 13.033 2.202 C 13.073 2.242 13.096 2.285 13.103 2.332 C 13.116 2.379 13.123 2.445 13.123 2.532 C 13.116 2.625 13.086 2.725 13.033 2.832 C 12.986 2.932 12.93 3.039 12.863 3.152 C 12.796 3.265 12.753 3.349 12.733 3.402 L 12.613 3.612 C 12.52 3.779 12.473 3.879 12.473 3.912 C 12.473 3.939 12.456 3.982 12.423 4.042 C 12.396 4.102 12.373 4.155 12.353 4.202 C 12.3 4.289 12.24 4.402 12.173 4.542 C 12.106 4.675 12.073 4.752 12.073 4.772 C 12.066 4.785 12.06 4.809 12.053 4.842 C 12.046 4.869 12.03 4.895 12.003 4.922 C 11.983 4.922 11.97 4.935 11.963 4.962 C 11.956 4.989 11.953 5.009 11.953 5.022 C 11.953 5.049 11.94 5.109 11.913 5.202 C 11.88 5.289 11.836 5.385 11.783 5.492 C 11.583 6.079 11.473 6.495 11.453 6.742 C 11.44 6.882 11.43 6.965 11.423 6.992 C 11.416 7.012 11.386 7.035 11.333 7.062 Z M 10.853 8.502 C 10.74 8.542 10.653 8.562 10.593 8.562 C 10.513 8.562 10.423 8.525 10.323 8.452 C 10.236 8.372 10.193 8.289 10.193 8.202 C 10.193 8.069 10.296 7.935 10.503 7.802 C 10.623 7.729 10.71 7.692 10.763 7.692 C 10.79 7.692 10.86 7.712 10.973 7.752 C 11.14 7.852 11.223 7.965 11.223 8.092 C 11.223 8.159 11.19 8.229 11.123 8.302 C 11.063 8.375 10.973 8.442 10.853 8.502 Z" transform="matrix(1, 0, 0, 1, 0, 0)" style="fill: rgb(244, 51, 51); white-space: pre;"/>
  <path d="M 18.621 21.54 C 18.608 21.533 18.584 21.523 18.551 21.51 C 18.511 21.497 18.471 21.49 18.431 21.49 C 18.358 21.477 18.301 21.44 18.261 21.38 C 18.214 21.32 18.191 21.25 18.191 21.17 C 18.191 21.13 18.194 21.097 18.201 21.07 C 18.214 21.05 18.231 21.003 18.251 20.93 C 18.264 20.857 18.271 20.79 18.271 20.73 C 18.291 20.69 18.304 20.65 18.311 20.61 C 18.324 20.577 18.341 20.523 18.361 20.45 C 18.408 20.183 18.518 19.74 18.691 19.12 C 18.864 18.493 18.974 18.16 19.021 18.12 L 19.021 18.02 C 19.021 18 19.024 17.963 19.031 17.91 C 19.044 17.857 19.074 17.8 19.121 17.74 C 19.141 17.667 19.158 17.597 19.171 17.53 C 19.191 17.457 19.204 17.403 19.211 17.37 C 19.231 17.337 19.271 17.247 19.331 17.1 C 19.384 16.947 19.421 16.847 19.441 16.8 C 19.481 16.687 19.534 16.553 19.601 16.4 C 19.661 16.247 19.704 16.147 19.731 16.1 L 19.731 16.06 C 19.744 16.047 19.774 15.983 19.821 15.87 C 19.874 15.757 19.918 15.663 19.951 15.59 C 19.998 15.49 20.111 15.24 20.291 14.84 C 20.304 14.8 20.331 14.747 20.371 14.68 C 20.411 14.62 20.431 14.577 20.431 14.55 C 20.458 14.51 20.501 14.49 20.561 14.49 C 20.614 14.49 20.668 14.51 20.721 14.55 C 20.781 14.59 20.824 14.64 20.851 14.7 L 20.941 14.84 L 20.621 15.49 C 20.528 15.643 20.448 15.793 20.381 15.94 C 20.321 16.08 20.291 16.163 20.291 16.19 C 20.264 16.25 20.218 16.373 20.151 16.56 C 20.078 16.747 20.021 16.907 19.981 17.04 C 19.948 17.127 19.911 17.22 19.871 17.32 C 19.831 17.42 19.801 17.49 19.781 17.53 C 19.734 17.637 19.711 17.697 19.711 17.71 C 19.711 17.69 20.071 17.68 20.791 17.68 C 20.904 17.68 21.108 17.677 21.401 17.67 C 21.688 17.663 21.868 17.653 21.941 17.64 L 22.411 17.59 L 22.721 16.67 C 22.781 16.457 22.911 16.047 23.111 15.44 C 23.204 15.187 23.278 15.02 23.331 14.94 C 23.384 14.867 23.451 14.83 23.531 14.83 C 23.558 14.83 23.601 14.843 23.661 14.87 C 23.714 14.897 23.751 14.933 23.771 14.98 C 23.838 15.04 23.871 15.107 23.871 15.18 C 23.871 15.267 23.821 15.383 23.721 15.53 C 23.654 15.657 23.554 15.893 23.421 16.24 C 23.368 16.407 23.334 16.5 23.321 16.52 C 23.321 16.647 23.291 16.74 23.231 16.8 C 23.204 16.827 23.161 16.913 23.101 17.06 C 23.041 17.207 23.011 17.293 23.011 17.32 C 23.011 17.367 23.004 17.417 22.991 17.47 C 22.971 17.53 22.948 17.57 22.921 17.59 L 22.861 17.81 C 22.648 18.57 22.481 19.097 22.361 19.39 C 22.361 19.423 22.348 19.48 22.321 19.56 C 22.288 19.633 22.271 19.687 22.271 19.72 C 22.264 19.76 22.238 19.843 22.191 19.97 C 22.151 20.097 22.131 20.173 22.131 20.2 C 22.118 20.26 22.094 20.363 22.061 20.51 C 21.968 20.917 21.921 21.14 21.921 21.18 C 21.914 21.193 21.898 21.2 21.871 21.2 C 21.844 21.2 21.808 21.19 21.761 21.17 C 21.708 21.15 21.668 21.133 21.641 21.12 C 21.501 21.047 21.431 20.957 21.431 20.85 C 21.431 20.783 21.458 20.697 21.511 20.59 C 21.531 20.563 21.588 20.37 21.681 20.01 L 21.761 19.67 C 21.801 19.577 21.881 19.293 22.001 18.82 C 22.108 18.453 22.168 18.263 22.181 18.25 L 22.181 18.16 C 22.161 18.133 21.941 18.12 21.521 18.12 C 21.048 18.12 20.611 18.143 20.211 18.19 L 19.791 18.19 L 19.561 18.19 C 19.528 18.257 19.434 18.533 19.281 19.02 C 19.128 19.507 19.044 19.813 19.031 19.94 C 18.984 20.14 18.918 20.417 18.831 20.77 C 18.738 21.117 18.668 21.373 18.621 21.54 ZM 24.478 16.85 C 24.438 16.803 24.401 16.73 24.368 16.63 C 24.341 16.53 24.341 16.48 24.368 16.48 C 24.421 16.473 24.478 16.42 24.538 16.32 C 24.605 16.22 24.635 16.137 24.628 16.07 C 24.628 16.05 24.635 16.03 24.648 16.01 C 24.668 15.983 24.691 15.97 24.718 15.97 C 24.765 15.937 24.805 15.92 24.838 15.92 C 24.945 15.92 25.038 15.993 25.118 16.14 C 25.158 16.213 25.178 16.28 25.178 16.34 C 25.178 16.393 25.161 16.45 25.128 16.51 C 25.101 16.57 25.048 16.643 24.968 16.73 C 24.868 16.87 24.771 16.94 24.678 16.94 C 24.618 16.94 24.551 16.91 24.478 16.85 Z M 23.608 20.5 C 23.521 20.42 23.478 20.3 23.478 20.14 C 23.478 20.06 23.495 19.99 23.528 19.93 C 23.528 19.897 23.535 19.86 23.548 19.82 C 23.555 19.773 23.558 19.747 23.558 19.74 C 23.558 19.7 23.585 19.6 23.638 19.44 C 23.745 19.2 23.888 18.777 24.068 18.17 C 24.068 18.143 24.078 18.117 24.098 18.09 C 24.125 18.07 24.161 18.057 24.208 18.05 C 24.255 18.043 24.288 18.04 24.308 18.04 C 24.348 18.04 24.381 18.053 24.408 18.08 C 24.435 18.107 24.471 18.153 24.518 18.22 C 24.551 18.26 24.568 18.317 24.568 18.39 C 24.568 18.503 24.531 18.64 24.458 18.8 C 24.378 18.973 24.325 19.123 24.298 19.25 C 24.225 19.41 24.168 19.56 24.128 19.7 C 24.115 19.733 24.098 19.807 24.078 19.92 C 24.051 20.027 24.018 20.113 23.978 20.18 C 23.938 20.347 23.905 20.463 23.878 20.53 C 23.845 20.597 23.811 20.63 23.778 20.63 C 23.738 20.63 23.681 20.587 23.608 20.5 ZM 26.061 19.26 C 25.948 19.287 25.858 19.253 25.791 19.16 C 25.724 19.073 25.691 18.94 25.691 18.76 C 25.691 18.607 25.721 18.427 25.781 18.22 C 25.861 18.053 25.901 17.93 25.901 17.85 C 25.934 17.743 25.984 17.613 26.051 17.46 C 26.111 17.3 26.164 17.177 26.211 17.09 C 26.231 17.09 26.254 17.07 26.281 17.03 C 26.308 16.983 26.321 16.94 26.321 16.9 C 26.321 16.847 26.334 16.793 26.361 16.74 C 26.381 16.68 26.401 16.637 26.421 16.61 C 26.421 16.597 26.434 16.567 26.461 16.52 C 26.488 16.473 26.501 16.44 26.501 16.42 C 26.501 16.413 26.508 16.397 26.521 16.37 C 26.534 16.343 26.541 16.32 26.541 16.3 C 26.648 16.12 26.804 15.78 27.011 15.28 C 27.211 14.78 27.314 14.493 27.321 14.42 C 27.341 14.313 27.398 14.27 27.491 14.29 C 27.518 14.27 27.564 14.26 27.631 14.26 L 27.761 14.4 C 27.801 14.44 27.824 14.483 27.831 14.53 C 27.844 14.577 27.851 14.643 27.851 14.73 C 27.844 14.823 27.814 14.923 27.761 15.03 C 27.714 15.13 27.658 15.237 27.591 15.35 C 27.524 15.463 27.481 15.547 27.461 15.6 L 27.341 15.81 C 27.248 15.977 27.201 16.077 27.201 16.11 C 27.201 16.137 27.184 16.18 27.151 16.24 C 27.124 16.3 27.101 16.353 27.081 16.4 C 27.028 16.487 26.968 16.6 26.901 16.74 C 26.834 16.873 26.801 16.95 26.801 16.97 C 26.794 16.983 26.788 17.007 26.781 17.04 C 26.774 17.067 26.758 17.093 26.731 17.12 C 26.711 17.12 26.698 17.133 26.691 17.16 C 26.684 17.187 26.681 17.207 26.681 17.22 C 26.681 17.247 26.668 17.307 26.641 17.4 C 26.608 17.487 26.564 17.583 26.511 17.69 C 26.311 18.277 26.201 18.693 26.181 18.94 C 26.168 19.08 26.158 19.163 26.151 19.19 C 26.144 19.21 26.114 19.233 26.061 19.26 Z M 25.581 20.7 C 25.468 20.74 25.381 20.76 25.321 20.76 C 25.241 20.76 25.151 20.723 25.051 20.65 C 24.964 20.57 24.921 20.487 24.921 20.4 C 24.921 20.267 25.024 20.133 25.231 20 C 25.351 19.927 25.438 19.89 25.491 19.89 C 25.518 19.89 25.588 19.91 25.701 19.95 C 25.868 20.05 25.951 20.163 25.951 20.29 C 25.951 20.357 25.918 20.427 25.851 20.5 C 25.791 20.573 25.701 20.64 25.581 20.7 Z" transform="matrix(1, 0, 0, 1, 0, 0)" style="fill: rgb(244, 51, 51); white-space: pre;"/>
</svg>