<svg width="40" height="84" viewBox="0 0 40 84" fill="none" xmlns="http://www.w3.org/2000/svg">
<rect x="2.5" y="2.5" width="35" height="17" rx="1" fill="#804900"/>
<rect x="2.5" y="2.5" width="35" height="17" rx="1" stroke="#804900"/>
<path d="M21.8453 12.632L20.4373 8.784C20.368 8.61333 20.296 8.41067 20.2213 8.176C20.1466 7.94133 20.072 7.688 19.9973 7.416C19.928 7.688 19.856 7.944 19.7813 8.184C19.7066 8.41867 19.6346 8.624 19.5653 8.8L18.1653 12.632H21.8453ZM25.6453 17H23.9813C23.7946 17 23.6426 16.9547 23.5253 16.864C23.408 16.768 23.32 16.6507 23.2613 16.512L22.3973 14.152H17.6053L16.7413 16.512C16.6986 16.6347 16.616 16.7467 16.4933 16.848C16.3706 16.9493 16.2186 17 16.0373 17H14.3573L18.9093 5.432H21.1013L25.6453 17Z" fill="#FF9300"/>
<rect x="2.5" y="65" width="35" height="17" rx="1" fill="#804900"/>
<rect x="2.5" y="65" width="35" height="17" rx="1" stroke="#804900"/>
<path d="M20.3504 77.82C20.7504 77.82 21.0864 77.772 21.3584 77.676C21.6304 77.58 21.8464 77.452 22.0064 77.292C22.1717 77.132 22.289 76.9453 22.3584 76.732C22.433 76.5187 22.4704 76.292 22.4704 76.052C22.4704 75.8013 22.4304 75.5773 22.3504 75.38C22.2704 75.1773 22.145 75.0067 21.9744 74.868C21.8037 74.724 21.5824 74.6147 21.3104 74.54C21.0437 74.4653 20.721 74.428 20.3424 74.428H18.1744V77.82H20.3504ZM18.1744 69.596V72.94H19.8864C20.6224 72.94 21.177 72.8067 21.5504 72.54C21.929 72.2733 22.1184 71.8493 22.1184 71.268C22.1184 70.6653 21.9477 70.236 21.6064 69.98C21.265 69.724 20.7317 69.596 20.0064 69.596H18.1744ZM20.0064 67.932C20.7637 67.932 21.4117 68.004 21.9504 68.148C22.489 68.292 22.929 68.4973 23.2704 68.764C23.617 69.0307 23.8704 69.3533 24.0304 69.732C24.1904 70.1107 24.2704 70.5373 24.2704 71.012C24.2704 71.284 24.2304 71.5453 24.1504 71.796C24.0704 72.0413 23.945 72.2733 23.7744 72.492C23.609 72.7053 23.3957 72.9 23.1344 73.076C22.8784 73.252 22.5717 73.4013 22.2144 73.524C23.8037 73.8813 24.5984 74.74 24.5984 76.1C24.5984 76.5907 24.505 77.044 24.3184 77.46C24.1317 77.876 23.8597 78.236 23.5024 78.54C23.145 78.8387 22.705 79.0733 22.1824 79.244C21.6597 79.4147 21.0624 79.5 20.3904 79.5H16.0224V67.932H20.0064Z" fill="#FF9300"/>
</svg>
