<?xml version="1.0" encoding="utf-8"?>
<svg width="43px" height="14px" viewBox="0 0 43 14" version="1.1" xmlns:xlink="http://www.w3.org/1999/xlink" xmlns="http://www.w3.org/2000/svg">
  <desc>Created with Lunacy</desc>
  <defs>
    <linearGradient x1="0.5" y1="0.023572976" x2="0.5" y2="1" id="gradient_1">
      <stop offset="0" stop-color="#FFA72E" stop-opacity="0.4" />
      <stop offset="0.1631" stop-color="#FFA72E" stop-opacity="0.4" />
      <stop offset="0.188" stop-color="#FF9A10" stop-opacity="0.4" />
      <stop offset="1" stop-color="#FF9A10" stop-opacity="0.4" />
    </linearGradient>
    <linearGradient x1="0.5" y1="0.023572976" x2="0.5" y2="1" id="gradient_2">
      <stop offset="0" stop-color="#FFD75E" stop-opacity="0.8" />
      <stop offset="0.16311117" stop-color="#FFE79E" stop-opacity="0.8" />
      <stop offset="0.18797827" stop-color="#FFEA90" stop-opacity="0.8" />
      <stop offset="1" stop-color="#FFFA80" stop-opacity="0.8" />
    </linearGradient>
    <rect width="43" height="14" id="artboard_1" />
    <clipPath id="clip_1">
      <use xlink:href="#artboard_1" clip-rule="evenodd" />
    </clipPath>
  </defs>
  <g id="hover00125" clip-path="url(#clip_1)">
    <path d="M0 0L43 0L43 7L0 7L0 0Z" id="Off-BG" fill="url(#gradient_1)" fill-rule="evenodd" stroke="none" />
    <path d="M0 0L43 0L43 7L0 7L0 0Z" transform="translate(0 7)" id="On-BG" fill="url(#gradient_2)" fill-rule="evenodd" stroke="none" />
    <path d="M0.6755 2.254L0.931 2.254C1.01967 2.254 1.09083 2.24292 1.1445 2.22075C1.19817 2.19858 1.24717 2.16067 1.2915 2.107L2.961 0.217C3.00767 0.156333 3.05667 0.114333 3.108 0.091C3.15933 0.0676665 3.22233 0.056 3.297 0.056L3.871 0.056L1.96 2.2155C1.91333 2.2715 1.86842 2.31758 1.82525 2.35375C1.78208 2.38992 1.736 2.41967 1.687 2.443C1.75 2.464 1.80717 2.49492 1.8585 2.53575C1.90983 2.57658 1.96 2.62967 2.009 2.695L4.004 5.0715L3.416 5.0715C3.37167 5.0715 3.33375 5.06858 3.30225 5.06275C3.27075 5.05692 3.24333 5.04758 3.22 5.03475C3.19667 5.02192 3.17625 5.00675 3.15875 4.98925C3.14125 4.97175 3.12433 4.95133 3.108 4.928L1.379 2.9365C1.33233 2.87817 1.28217 2.83675 1.2285 2.81225C1.17483 2.78775 1.09317 2.7755 0.9835 2.7755L0.6755 2.7755L0.6755 5.0715L0 5.0715L0 0.056L0.6755 0.056L0.6755 2.254L0.6755 2.254ZM7.6315 4.5185L7.628 5.0715L4.5375 5.0715L4.5375 0.056L7.628 0.056L7.628 0.609L5.2165 0.609L5.2165 2.275L7.1695 2.275L7.1695 2.807L5.2165 2.807L5.2165 4.5185L7.6315 4.5185L7.6315 4.5185ZM10.363 3.073L10.363 5.0715L9.684 5.0715L9.684 3.073L7.8465 0.056L8.4415 0.056C8.50217 0.056 8.55 0.0705832 8.585 0.09975C8.62 0.128917 8.65033 0.166833 8.676 0.2135L9.824 2.163C9.866 2.24467 9.9045 2.32108 9.9395 2.39225C9.9745 2.46342 10.0048 2.53517 10.0305 2.6075C10.0562 2.53517 10.0853 2.46342 10.118 2.39225C10.1507 2.32108 10.1868 2.24467 10.2265 2.163L11.371 0.2135C11.392 0.173833 11.4212 0.137667 11.4585 0.105C11.4958 0.0723332 11.5437 0.056 11.602 0.056L12.2005 0.056L10.363 3.073L10.363 3.073ZM16.1395 0.6265L14.5155 0.6265L14.5155 5.0715L13.84 5.0715L13.84 0.6265L12.2125 0.6265L12.2125 0.056L16.1395 0.056L16.1395 0.6265L16.1395 0.6265ZM18.171 2.485C18.367 2.485 18.5403 2.46108 18.6908 2.41325C18.8413 2.36542 18.9673 2.29775 19.0688 2.21025C19.1703 2.12275 19.2467 2.01833 19.298 1.897C19.3493 1.77567 19.375 1.6415 19.375 1.4945C19.375 1.19583 19.277 0.970667 19.081 0.819C18.885 0.667333 18.591 0.5915 18.199 0.5915L17.457 0.5915L17.457 2.485L18.171 2.485L18.171 2.485ZM20.488 5.0715L19.886 5.0715C19.7623 5.0715 19.6713 5.02367 19.613 4.928L18.311 3.136C18.2713 3.08 18.2288 3.03975 18.1833 3.01525C18.1378 2.99075 18.0672 2.9785 17.9715 2.9785L17.457 2.9785L17.457 5.0715L16.7815 5.0715L16.7815 0.056L18.199 0.056C18.5163 0.056 18.7905 0.088083 19.0215 0.15225C19.2525 0.216417 19.4433 0.309166 19.5938 0.4305C19.7443 0.551834 19.8557 0.698249 19.928 0.86975C20.0003 1.04125 20.0365 1.23317 20.0365 1.4455C20.0365 1.62283 20.0085 1.7885 19.9525 1.9425C19.8965 2.0965 19.8154 2.23475 19.7093 2.35725C19.6031 2.47975 19.4736 2.58417 19.3208 2.6705C19.1679 2.75683 18.9947 2.82217 18.801 2.8665C18.8873 2.9155 18.962 2.98667 19.025 3.08L20.488 5.0715L20.488 5.0715ZM23.7305 3.2095L22.943 1.169C22.9197 1.10833 22.8952 1.03775 22.8695 0.95725C22.8438 0.87675 22.8193 0.791 22.796 0.7C22.747 0.889001 22.6968 1.0465 22.6455 1.1725L21.858 3.2095L23.7305 3.2095L23.7305 3.2095ZM25.1445 5.0715L24.6195 5.0715C24.5588 5.0715 24.5098 5.05633 24.4725 5.026C24.4352 4.99567 24.4072 4.95717 24.3885 4.9105L23.9195 3.6995L21.669 3.6995L21.2 4.9105C21.186 4.9525 21.1592 4.98983 21.1195 5.0225C21.0798 5.05517 21.0308 5.0715 20.9725 5.0715L20.4475 5.0715L22.453 0.056L23.139 0.056L25.1445 5.0715L25.1445 5.0715ZM29.0975 4.0355C29.1348 4.0355 29.1675 4.05067 29.1955 4.081L29.465 4.3715C29.2597 4.6095 29.0106 4.795 28.7178 4.928C28.4249 5.061 28.0708 5.1275 27.6555 5.1275C27.2962 5.1275 26.9695 5.06508 26.6755 4.94025C26.3815 4.81542 26.1307 4.64042 25.923 4.41525C25.7153 4.19008 25.5543 3.92 25.44 3.605C25.3257 3.29 25.2685 2.9435 25.2685 2.5655C25.2685 2.1875 25.328 1.841 25.447 1.526C25.566 1.211 25.7334 0.940334 25.9493 0.714C26.1651 0.487665 26.4235 0.312084 26.7245 0.18725C27.0255 0.062416 27.358 0 27.722 0C28.079 0 28.394 0.0571661 28.667 0.1715C28.94 0.285834 29.1803 0.440999 29.388 0.637L29.164 0.9485C29.15 0.971833 29.1319 0.991083 29.1098 1.00625C29.0876 1.02142 29.0578 1.029 29.0205 1.029C28.9785 1.029 28.9272 1.00625 28.8665 0.96075C28.8058 0.91525 28.7265 0.8645 28.6285 0.8085C28.5305 0.7525 28.408 0.70175 28.261 0.65625C28.114 0.61075 27.9332 0.588 27.7185 0.588C27.4595 0.588 27.2227 0.632916 27.008 0.72275C26.7933 0.812584 26.6084 0.942666 26.4533 1.113C26.2981 1.28333 26.1773 1.491 26.091 1.736C26.0047 1.981 25.9615 2.2575 25.9615 2.5655C25.9615 2.87817 26.0064 3.157 26.0963 3.402C26.1861 3.647 26.3086 3.85408 26.4638 4.02325C26.6189 4.19242 26.8021 4.32133 27.0133 4.41C27.2244 4.49867 27.4525 4.543 27.6975 4.543C27.8468 4.543 27.9816 4.53425 28.1017 4.51675C28.2219 4.49925 28.3328 4.47183 28.4342 4.4345C28.5358 4.39717 28.6302 4.34992 28.7178 4.29275C28.8053 4.23558 28.8922 4.16733 28.9785 4.088C29.0182 4.053 29.0578 4.0355 29.0975 4.0355L29.0975 4.0355ZM30.828 2.254L31.0835 2.254C31.1722 2.254 31.2433 2.24292 31.297 2.22075C31.3507 2.19858 31.3997 2.16067 31.444 2.107L33.1135 0.217C33.1602 0.156333 33.2092 0.114333 33.2605 0.091C33.3118 0.0676665 33.3748 0.056 33.4495 0.056L34.0235 0.056L32.1125 2.2155C32.0658 2.2715 32.0209 2.31758 31.9778 2.35375C31.9346 2.38992 31.8885 2.41967 31.8395 2.443C31.9025 2.464 31.9597 2.49492 32.011 2.53575C32.0623 2.57658 32.1125 2.62967 32.1615 2.695L34.1565 5.0715L33.5685 5.0715C33.5242 5.0715 33.4863 5.06858 33.4548 5.06275C33.4233 5.05692 33.3958 5.04758 33.3725 5.03475C33.3492 5.02192 33.3288 5.00675 33.3113 4.98925C33.2938 4.97175 33.2768 4.95133 33.2605 4.928L31.5315 2.9365C31.4848 2.87817 31.4347 2.83675 31.381 2.81225C31.3273 2.78775 31.2457 2.7755 31.136 2.7755L30.828 2.7755L30.828 5.0715L30.1525 5.0715L30.1525 0.056L30.828 0.056L30.828 2.254L30.828 2.254Z" transform="translate(4.6405 0.9285)" id="Keytrack-Off" fill="#FFFFFF" fill-rule="evenodd" stroke="none" />
    <path d="M0.6755 2.254L0.931 2.254C1.01967 2.254 1.09083 2.24292 1.1445 2.22075C1.19817 2.19858 1.24717 2.16067 1.2915 2.107L2.961 0.217C3.00767 0.156333 3.05667 0.114333 3.108 0.0909996C3.15933 0.0676665 3.22233 0.0559998 3.297 0.0559998L3.871 0.0559998L1.96 2.2155C1.91333 2.2715 1.86842 2.31758 1.82525 2.35375C1.78208 2.38992 1.736 2.41967 1.687 2.443C1.75 2.464 1.80717 2.49492 1.8585 2.53575C1.90983 2.57658 1.96 2.62967 2.009 2.695L4.004 5.0715L3.416 5.0715C3.37167 5.0715 3.33375 5.06858 3.30225 5.06275C3.27075 5.05692 3.24333 5.04758 3.22 5.03475C3.19667 5.02192 3.17625 5.00675 3.15875 4.98925C3.14125 4.97175 3.12433 4.95133 3.108 4.928L1.379 2.9365C1.33233 2.87817 1.28217 2.83675 1.2285 2.81225C1.17483 2.78775 1.09317 2.7755 0.9835 2.7755L0.6755 2.7755L0.6755 5.0715L0 5.0715L0 0.0559998L0.6755 0.0559998L0.6755 2.254L0.6755 2.254ZM7.6315 4.5185L7.628 5.0715L4.5375 5.0715L4.5375 0.0559998L7.628 0.0559998L7.628 0.609L5.2165 0.609L5.2165 2.275L7.1695 2.275L7.1695 2.807L5.2165 2.807L5.2165 4.5185L7.6315 4.5185L7.6315 4.5185ZM10.363 3.073L10.363 5.0715L9.684 5.0715L9.684 3.073L7.8465 0.0559998L8.4415 0.0559998C8.50217 0.0559998 8.55 0.0705829 8.585 0.0997496C8.62 0.128917 8.65033 0.166833 8.676 0.2135L9.824 2.163C9.866 2.24467 9.9045 2.32108 9.9395 2.39225C9.9745 2.46342 10.0048 2.53517 10.0305 2.6075C10.0562 2.53517 10.0853 2.46342 10.118 2.39225C10.1507 2.32108 10.1868 2.24467 10.2265 2.163L11.371 0.2135C11.392 0.173833 11.4212 0.137667 11.4585 0.105C11.4958 0.0723333 11.5437 0.0559998 11.602 0.0559998L12.2005 0.0559998L10.363 3.073L10.363 3.073ZM16.1395 0.6265L14.5155 0.6265L14.5155 5.0715L13.84 5.0715L13.84 0.6265L12.2125 0.6265L12.2125 0.0559998L16.1395 0.0559998L16.1395 0.6265L16.1395 0.6265ZM18.171 2.485C18.367 2.485 18.5403 2.46108 18.6908 2.41325C18.8413 2.36542 18.9673 2.29775 19.0688 2.21025C19.1703 2.12275 19.2467 2.01833 19.298 1.897C19.3493 1.77567 19.375 1.6415 19.375 1.4945C19.375 1.19583 19.277 0.970667 19.081 0.819C18.885 0.667333 18.591 0.5915 18.199 0.5915L17.457 0.5915L17.457 2.485L18.171 2.485L18.171 2.485ZM20.488 5.0715L19.886 5.0715C19.7623 5.0715 19.6713 5.02367 19.613 4.928L18.311 3.136C18.2713 3.08 18.2288 3.03975 18.1833 3.01525C18.1378 2.99075 18.0672 2.9785 17.9715 2.9785L17.457 2.9785L17.457 5.0715L16.7815 5.0715L16.7815 0.0559998L18.199 0.0559998C18.5163 0.0559998 18.7905 0.0880833 19.0215 0.15225C19.2525 0.216416 19.4433 0.309166 19.5938 0.4305C19.7443 0.551834 19.8557 0.698249 19.928 0.86975C20.0003 1.04125 20.0365 1.23317 20.0365 1.4455C20.0365 1.62283 20.0085 1.7885 19.9525 1.9425C19.8965 2.0965 19.8154 2.23475 19.7093 2.35725C19.6031 2.47975 19.4736 2.58417 19.3208 2.6705C19.1679 2.75683 18.9947 2.82217 18.801 2.8665C18.8873 2.9155 18.962 2.98667 19.025 3.08L20.488 5.0715L20.488 5.0715ZM23.7305 3.2095L22.943 1.169C22.9197 1.10833 22.8952 1.03775 22.8695 0.95725C22.8438 0.876749 22.8193 0.791 22.796 0.7C22.747 0.889001 22.6968 1.0465 22.6455 1.1725L21.858 3.2095L23.7305 3.2095L23.7305 3.2095ZM25.1445 5.0715L24.6195 5.0715C24.5588 5.0715 24.5098 5.05633 24.4725 5.026C24.4352 4.99567 24.4072 4.95717 24.3885 4.9105L23.9195 3.6995L21.669 3.6995L21.2 4.9105C21.186 4.9525 21.1592 4.98983 21.1195 5.0225C21.0798 5.05517 21.0308 5.0715 20.9725 5.0715L20.4475 5.0715L22.453 0.0559998L23.139 0.0559998L25.1445 5.0715L25.1445 5.0715ZM29.0975 4.0355C29.1348 4.0355 29.1675 4.05067 29.1955 4.081L29.465 4.3715C29.2597 4.6095 29.0106 4.795 28.7178 4.928C28.4249 5.061 28.0708 5.1275 27.6555 5.1275C27.2962 5.1275 26.9695 5.06508 26.6755 4.94025C26.3815 4.81542 26.1307 4.64042 25.923 4.41525C25.7153 4.19008 25.5543 3.92 25.44 3.605C25.3257 3.29 25.2685 2.9435 25.2685 2.5655C25.2685 2.1875 25.328 1.841 25.447 1.526C25.566 1.211 25.7334 0.940334 25.9493 0.714C26.1651 0.487665 26.4235 0.312084 26.7245 0.18725C27.0255 0.0624161 27.358 0 27.722 0C28.079 0 28.394 0.0571661 28.667 0.1715C28.94 0.285833 29.1803 0.440999 29.388 0.637L29.164 0.9485C29.15 0.971833 29.1319 0.991083 29.1098 1.00625C29.0876 1.02142 29.0578 1.029 29.0205 1.029C28.9785 1.029 28.9272 1.00625 28.8665 0.96075C28.8058 0.91525 28.7265 0.8645 28.6285 0.8085C28.5305 0.7525 28.408 0.70175 28.261 0.65625C28.114 0.610749 27.9332 0.588 27.7185 0.588C27.4595 0.588 27.2227 0.632916 27.008 0.72275C26.7933 0.812584 26.6084 0.942666 26.4533 1.113C26.2981 1.28333 26.1773 1.491 26.091 1.736C26.0047 1.981 25.9615 2.2575 25.9615 2.5655C25.9615 2.87817 26.0064 3.157 26.0963 3.402C26.1861 3.647 26.3086 3.85408 26.4638 4.02325C26.6189 4.19242 26.8021 4.32133 27.0133 4.41C27.2244 4.49867 27.4525 4.543 27.6975 4.543C27.8468 4.543 27.9816 4.53425 28.1017 4.51675C28.2219 4.49925 28.3328 4.47183 28.4342 4.4345C28.5358 4.39717 28.6302 4.34992 28.7178 4.29275C28.8053 4.23558 28.8922 4.16733 28.9785 4.088C29.0182 4.053 29.0578 4.0355 29.0975 4.0355L29.0975 4.0355ZM30.828 2.254L31.0835 2.254C31.1722 2.254 31.2433 2.24292 31.297 2.22075C31.3507 2.19858 31.3997 2.16067 31.444 2.107L33.1135 0.217C33.1602 0.156333 33.2092 0.114333 33.2605 0.0909996C33.3118 0.0676665 33.3748 0.0559998 33.4495 0.0559998L34.0235 0.0559998L32.1125 2.2155C32.0658 2.2715 32.0209 2.31758 31.9778 2.35375C31.9346 2.38992 31.8885 2.41967 31.8395 2.443C31.9025 2.464 31.9597 2.49492 32.011 2.53575C32.0623 2.57658 32.1125 2.62967 32.1615 2.695L34.1565 5.0715L33.5685 5.0715C33.5242 5.0715 33.4863 5.06858 33.4548 5.06275C33.4233 5.05692 33.3958 5.04758 33.3725 5.03475C33.3492 5.02192 33.3288 5.00675 33.3113 4.98925C33.2938 4.97175 33.2768 4.95133 33.2605 4.928L31.5315 2.9365C31.4848 2.87817 31.4347 2.83675 31.381 2.81225C31.3273 2.78775 31.2457 2.7755 31.136 2.7755L30.828 2.7755L30.828 5.0715L30.1525 5.0715L30.1525 0.0559998L30.828 0.0559998L30.828 2.254L30.828 2.254Z" transform="translate(4.6405 7.9285)" id="Keytrack-On" fill="#000000" fill-rule="evenodd" stroke="none" />
  </g>
</svg>