<svg width="34" height="36" viewBox="0 0 34 36" fill="none" xmlns="http://www.w3.org/2000/svg">
<path d="M1.5 2.5C1.5 1.94772 1.94772 1.5 2.5 1.5H31.5C32.0523 1.5 32.5 1.94772 32.5 2.5V8.5H1.5V2.5Z" fill="#F1BB72"/>
<path d="M1.5 2.5C1.5 1.94772 1.94772 1.5 2.5 1.5H31.5C32.0523 1.5 32.5 1.94772 32.5 2.5V8.5H1.5V2.5Z" stroke="#F1BB72"/>
<path d="M8.99115 5.4695C8.99115 5.8405 8.92932 6.18117 8.80565 6.4915C8.68199 6.80183 8.50815 7.069 8.28415 7.293C8.06015 7.517 7.79065 7.69083 7.47565 7.8145C7.16065 7.93817 6.81065 8 6.42565 8H4.49715V2.939H6.42565C6.81065 2.939 7.16065 3.002 7.47565 3.128C7.79065 3.25167 8.06015 3.4255 8.28415 3.6495C8.50815 3.87117 8.68199 4.13717 8.80565 4.4475C8.92932 4.75783 8.99115 5.0985 8.99115 5.4695ZM8.02515 5.4695C8.02515 5.19183 7.98782 4.94333 7.91315 4.724C7.84082 4.50233 7.73465 4.31567 7.59465 4.164C7.45699 4.01 7.28899 3.89217 7.09065 3.8105C6.89465 3.72883 6.67299 3.688 6.42565 3.688H5.44215V7.251H6.42565C6.67299 7.251 6.89465 7.21017 7.09065 7.1285C7.28899 7.04683 7.45699 6.93017 7.59465 6.7785C7.73465 6.6245 7.84082 6.43783 7.91315 6.2185C7.98782 5.99683 8.02515 5.74717 8.02515 5.4695ZM10.6623 8H9.71735V2.939H10.6623V8ZM15.8625 5.4625V7.51C15.6058 7.699 15.3316 7.83783 15.04 7.9265C14.7506 8.01283 14.4403 8.056 14.109 8.056C13.696 8.056 13.3215 7.99183 12.9855 7.8635C12.6518 7.73517 12.366 7.55667 12.128 7.328C11.8923 7.09933 11.7103 6.82633 11.582 6.509C11.4536 6.19167 11.3895 5.84517 11.3895 5.4695C11.3895 5.08917 11.4513 4.74033 11.575 4.423C11.6986 4.10567 11.8736 3.83267 12.1 3.604C12.3286 3.37533 12.6051 3.198 12.9295 3.072C13.2538 2.946 13.6178 2.883 14.0215 2.883C14.2268 2.883 14.4181 2.89933 14.5955 2.932C14.7751 2.96467 14.9408 3.01017 15.0925 3.0685C15.2465 3.1245 15.3865 3.19333 15.5125 3.275C15.6385 3.35667 15.754 3.4465 15.859 3.5445L15.5895 3.9715C15.5475 4.03917 15.4926 4.08117 15.425 4.0975C15.3573 4.1115 15.2838 4.094 15.2045 4.045C15.1275 4.00067 15.0505 3.95633 14.9735 3.912C14.8965 3.86767 14.8101 3.82917 14.7145 3.7965C14.6211 3.76383 14.515 3.737 14.396 3.716C14.2793 3.695 14.144 3.6845 13.99 3.6845C13.7403 3.6845 13.514 3.7265 13.311 3.8105C13.1103 3.8945 12.9388 4.01467 12.7965 4.171C12.6541 4.32733 12.5445 4.51517 12.4675 4.7345C12.3905 4.95383 12.352 5.19883 12.352 5.4695C12.352 5.75883 12.3928 6.01783 12.4745 6.2465C12.5585 6.47283 12.6751 6.66533 12.8245 6.824C12.9761 6.98033 13.1581 7.1005 13.3705 7.1845C13.5828 7.26617 13.8196 7.307 14.081 7.307C14.2676 7.307 14.4345 7.28717 14.5815 7.2475C14.7285 7.20783 14.872 7.15417 15.012 7.0865V6.1695H14.375C14.3143 6.1695 14.2665 6.15317 14.2315 6.1205C14.1988 6.0855 14.1825 6.0435 14.1825 5.9945V5.4625H15.8625ZM17.6096 8H16.6646V2.939H17.6096V8ZM22.1727 3.7125H20.6467V8H19.7052V3.7125H18.1792V2.939H22.1727V3.7125ZM24.9118 6.089L24.2958 4.4055C24.2654 4.33083 24.2339 4.24217 24.2013 4.1395C24.1686 4.03683 24.1359 3.926 24.1033 3.807C24.0729 3.926 24.0414 4.038 24.0088 4.143C23.9761 4.24567 23.9446 4.3355 23.9143 4.4125L23.3018 6.089H24.9118ZM26.5743 8H25.8463C25.7646 8 25.6981 7.98017 25.6468 7.9405C25.5954 7.8985 25.5569 7.84717 25.5313 7.7865L25.1533 6.754H23.0568L22.6788 7.7865C22.6601 7.84017 22.6239 7.88917 22.5703 7.9335C22.5166 7.97783 22.4501 8 22.3708 8H21.6358L23.6273 2.939H24.5863L26.5743 8ZM29.9576 7.223V8H26.9931V2.939H27.9346V7.223H29.9576Z" fill="black"/>
<path d="M1.5 27.5H32.5V33.5C32.5 34.0523 32.0523 34.5 31.5 34.5H2.5C1.94772 34.5 1.5 34.0523 1.5 33.5V27.5Z" fill="#F1BB72"/>
<path d="M1.5 27.5H32.5V33.5C32.5 34.0523 32.0523 34.5 31.5 34.5H2.5C1.94772 34.5 1.5 34.0523 1.5 33.5V27.5Z" stroke="#F1BB72"/>
<path d="M5.84717 32.089L5.23117 30.4055C5.20083 30.3308 5.16933 30.2422 5.13667 30.1395C5.104 30.0368 5.07133 29.926 5.03867 29.807C5.00833 29.926 4.97683 30.038 4.94417 30.143C4.9115 30.2457 4.88 30.3355 4.84967 30.4125L4.23717 32.089H5.84717ZM7.50967 34H6.78167C6.7 34 6.6335 33.9802 6.58217 33.9405C6.53083 33.8985 6.49233 33.8472 6.46667 33.7865L6.08867 32.754H3.99217L3.61417 33.7865C3.5955 33.8402 3.55933 33.8892 3.50567 33.9335C3.452 33.9778 3.3855 34 3.30617 34H2.57117L4.56267 28.939H5.52167L7.50967 34ZM12.195 28.939V34H11.712C11.6374 34 11.5744 33.9883 11.523 33.965C11.474 33.9393 11.4262 33.8973 11.3795 33.839L8.73702 30.465C8.75102 30.619 8.75802 30.7613 8.75802 30.892V34H7.92852V28.939H8.42202C8.46169 28.939 8.49552 28.9413 8.52352 28.946C8.55385 28.9483 8.57952 28.9553 8.60052 28.967C8.62385 28.9763 8.64602 28.9915 8.66702 29.0125C8.68802 29.0312 8.71135 29.0568 8.73702 29.0895L11.39 32.4775C11.383 32.3958 11.3772 32.3153 11.3725 32.236C11.3679 32.1567 11.3655 32.0832 11.3655 32.0155V28.939H12.195ZM15.8911 32.089L15.2751 30.4055C15.2447 30.3308 15.2132 30.2422 15.1806 30.1395C15.1479 30.0368 15.1152 29.926 15.0826 29.807C15.0522 29.926 15.0207 30.038 14.9881 30.143C14.9554 30.2457 14.9239 30.3355 14.8936 30.4125L14.2811 32.089H15.8911ZM17.5536 34H16.8256C16.7439 34 16.6774 33.9802 16.6261 33.9405C16.5747 33.8985 16.5362 33.8472 16.5106 33.7865L16.1326 32.754H14.0361L13.6581 33.7865C13.6394 33.8402 13.6032 33.8892 13.5496 33.9335C13.4959 33.9778 13.4294 34 13.3501 34H12.6151L14.6066 28.939H15.5656L17.5536 34ZM20.9369 33.223V34H17.9724V28.939H18.9139V33.223H20.9369ZM26.1529 31.4695C26.1529 31.8405 26.0911 32.1847 25.9674 32.502C25.8461 32.817 25.6734 33.09 25.4494 33.321C25.2254 33.552 24.9559 33.7328 24.6409 33.8635C24.3259 33.9918 23.9759 34.056 23.5909 34.056C23.2082 34.056 22.8594 33.9918 22.5444 33.8635C22.2294 33.7328 21.9587 33.552 21.7324 33.321C21.5084 33.09 21.3346 32.817 21.2109 32.502C21.0872 32.1847 21.0254 31.8405 21.0254 31.4695C21.0254 31.0985 21.0872 30.7555 21.2109 30.4405C21.3346 30.1232 21.5084 29.849 21.7324 29.618C21.9587 29.387 22.2294 29.2073 22.5444 29.079C22.8594 28.9483 23.2082 28.883 23.5909 28.883C23.8476 28.883 24.0891 28.9133 24.3154 28.974C24.5417 29.0323 24.7494 29.1163 24.9384 29.226C25.1274 29.3333 25.2966 29.4652 25.4459 29.6215C25.5976 29.7755 25.7259 29.9482 25.8309 30.1395C25.9359 30.3308 26.0152 30.5385 26.0689 30.7625C26.1249 30.9865 26.1529 31.2222 26.1529 31.4695ZM25.1904 31.4695C25.1904 31.1918 25.1531 30.9433 25.0784 30.724C25.0037 30.5023 24.8976 30.3145 24.7599 30.1605C24.6222 30.0065 24.4542 29.8887 24.2559 29.807C24.0599 29.7253 23.8382 29.6845 23.5909 29.6845C23.3436 29.6845 23.1207 29.7253 22.9224 29.807C22.7264 29.8887 22.5584 30.0065 22.4184 30.1605C22.2807 30.3145 22.1746 30.5023 22.0999 30.724C22.0252 30.9433 21.9879 31.1918 21.9879 31.4695C21.9879 31.7472 22.0252 31.9968 22.0999 32.2185C22.1746 32.4378 22.2807 32.6245 22.4184 32.7785C22.5584 32.9302 22.7264 33.0468 22.9224 33.1285C23.1207 33.2102 23.3436 33.251 23.5909 33.251C23.8382 33.251 24.0599 33.2102 24.2559 33.1285C24.4542 33.0468 24.6222 32.9302 24.7599 32.7785C24.8976 32.6245 25.0037 32.4378 25.0784 32.2185C25.1531 31.9968 25.1904 31.7472 25.1904 31.4695ZM31.0467 31.4625V33.51C30.7901 33.699 30.5159 33.8378 30.2242 33.9265C29.9349 34.0128 29.6246 34.056 29.2932 34.056C28.8802 34.056 28.5057 33.9918 28.1697 33.8635C27.8361 33.7352 27.5502 33.5567 27.3122 33.328C27.0766 33.0993 26.8946 32.8263 26.7662 32.509C26.6379 32.1917 26.5737 31.8452 26.5737 31.4695C26.5737 31.0892 26.6356 30.7403 26.7592 30.423C26.8829 30.1057 27.0579 29.8327 27.2842 29.604C27.5129 29.3753 27.7894 29.198 28.1137 29.072C28.4381 28.946 28.8021 28.883 29.2057 28.883C29.4111 28.883 29.6024 28.8993 29.7797 28.932C29.9594 28.9647 30.1251 29.0102 30.2767 29.0685C30.4307 29.1245 30.5707 29.1933 30.6967 29.275C30.8227 29.3567 30.9382 29.4465 31.0432 29.5445L30.7737 29.9715C30.7317 30.0392 30.6769 30.0812 30.6092 30.0975C30.5416 30.1115 30.4681 30.094 30.3887 30.045C30.3117 30.0007 30.2347 29.9563 30.1577 29.912C30.0807 29.8677 29.9944 29.8292 29.8987 29.7965C29.8054 29.7638 29.6992 29.737 29.5802 29.716C29.4636 29.695 29.3282 29.6845 29.1742 29.6845C28.9246 29.6845 28.6982 29.7265 28.4952 29.8105C28.2946 29.8945 28.1231 30.0147 27.9807 30.171C27.8384 30.3273 27.7287 30.5152 27.6517 30.7345C27.5747 30.9538 27.5362 31.1988 27.5362 31.4695C27.5362 31.7588 27.5771 32.0178 27.6587 32.2465C27.7427 32.4728 27.8594 32.6653 28.0087 32.824C28.1604 32.9803 28.3424 33.1005 28.5547 33.1845C28.7671 33.2662 29.0039 33.307 29.2652 33.307C29.4519 33.307 29.6187 33.2872 29.7657 33.2475C29.9127 33.2078 30.0562 33.1542 30.1962 33.0865V32.1695H29.5592C29.4986 32.1695 29.4507 32.1532 29.4157 32.1205C29.3831 32.0855 29.3667 32.0435 29.3667 31.9945V31.4625H31.0467Z" fill="black"/>
</svg>
