<svg width="22" height="30" viewBox="0 0 22 30" fill="none" xmlns="http://www.w3.org/2000/svg">
<path d="M1.5 6C1.5 4.89543 2.39543 4 3.5 4H14.5C15.6046 4 16.5 4.89543 16.5 6V10C16.5 11.1046 15.6046 12 14.5 12H3.5C2.39543 12 1.5 11.1046 1.5 10V6Z" fill="#E3E3E3"/>
<path d="M10.373 6.9365C10.338 6.9925 10.3007 7.0345 10.261 7.0625C10.2237 7.0905 10.1747 7.1045 10.114 7.1045C10.0603 7.1045 10.002 7.08817 9.93901 7.0555C9.87835 7.0205 9.80835 6.982 9.72901 6.94C9.65201 6.898 9.56335 6.86067 9.46301 6.828C9.36268 6.793 9.24835 6.7755 9.12001 6.7755C8.89835 6.7755 8.73268 6.82333 8.62301 6.919C8.51568 7.01233 8.46201 7.1395 8.46201 7.3005C8.46201 7.40317 8.49468 7.48833 8.56001 7.556C8.62535 7.62367 8.71051 7.682 8.81551 7.731C8.92285 7.78 9.04418 7.8255 9.17951 7.8675C9.31718 7.90717 9.45718 7.95267 9.59951 8.004C9.74185 8.053 9.88068 8.11133 10.016 8.179C10.1537 8.24667 10.275 8.333 10.38 8.438C10.4873 8.543 10.5737 8.67133 10.639 8.823C10.7043 8.97233 10.737 9.15317 10.737 9.3655C10.737 9.60117 10.6962 9.82167 10.6145 10.027C10.5328 10.2323 10.4138 10.412 10.2575 10.566C10.1035 10.7177 9.91218 10.8378 9.68351 10.9265C9.45718 11.0128 9.19935 11.056 8.91001 11.056C8.75135 11.056 8.58918 11.0397 8.42351 11.007C8.26018 10.9743 8.10151 10.9288 7.94751 10.8705C7.79351 10.8098 7.64885 10.7387 7.51351 10.657C7.37818 10.5753 7.26035 10.4843 7.16001 10.384L7.51001 9.831C7.53801 9.79133 7.57418 9.75867 7.61851 9.733C7.66518 9.705 7.71535 9.691 7.76901 9.691C7.83901 9.691 7.90901 9.71317 7.97901 9.7575C8.05135 9.80183 8.13185 9.85083 8.22051 9.9045C8.31151 9.95817 8.41535 10.0072 8.53201 10.0515C8.64868 10.0958 8.78635 10.118 8.94501 10.118C9.15968 10.118 9.32651 10.0713 9.44551 9.978C9.56451 9.88233 9.62401 9.73183 9.62401 9.5265C9.62401 9.4075 9.59135 9.31067 9.52601 9.236C9.46068 9.16133 9.37435 9.0995 9.26701 9.0505C9.16201 9.0015 9.04185 8.95833 8.90651 8.921C8.77118 8.88367 8.63235 8.84283 8.49001 8.7985C8.34768 8.75183 8.20885 8.69583 8.07351 8.6305C7.93818 8.56283 7.81685 8.47533 7.70951 8.368C7.60451 8.25833 7.51935 8.123 7.45401 7.962C7.38868 7.79867 7.35601 7.598 7.35601 7.36C7.35601 7.16867 7.39451 6.982 7.47151 6.8C7.54851 6.618 7.66168 6.45583 7.81101 6.3135C7.96035 6.17117 8.14351 6.058 8.36051 5.974C8.57751 5.88767 8.82601 5.8445 9.10601 5.8445C9.26235 5.8445 9.41401 5.85733 9.56101 5.883C9.71035 5.90633 9.85151 5.9425 9.98451 5.9915C10.1175 6.03817 10.2412 6.09533 10.3555 6.163C10.4722 6.22833 10.576 6.303 10.667 6.387L10.373 6.9365Z" fill="#393B45"/>
<path d="M3.5 4.5H14.5V3.5H3.5V4.5ZM16 6V10H17V6H16ZM14.5 11.5H3.5V12.5H14.5V11.5ZM2 10V6H1V10H2ZM3.5 11.5C2.67157 11.5 2 10.8284 2 10H1C1 11.3807 2.11929 12.5 3.5 12.5V11.5ZM16 10C16 10.8284 15.3284 11.5 14.5 11.5V12.5C15.8807 12.5 17 11.3807 17 10H16ZM14.5 4.5C15.3284 4.5 16 5.17157 16 6H17C17 4.61929 15.8807 3.5 14.5 3.5V4.5ZM3.5 3.5C2.11929 3.5 1 4.61929 1 6H2C2 5.17157 2.67157 4.5 3.5 4.5V3.5Z" fill="black"/>
<path d="M1.5 21C1.5 19.8954 2.39543 19 3.5 19H14.5C15.6046 19 16.5 19.8954 16.5 21V25C16.5 26.1046 15.6046 27 14.5 27H3.5C2.39543 27 1.5 26.1046 1.5 25V21Z" fill="#FF9000"/>
<path d="M10.373 21.9365C10.338 21.9925 10.3007 22.0345 10.261 22.0625C10.2237 22.0905 10.1747 22.1045 10.114 22.1045C10.0603 22.1045 10.002 22.0882 9.93901 22.0555C9.87835 22.0205 9.80835 21.982 9.72901 21.94C9.65201 21.898 9.56335 21.8607 9.46301 21.828C9.36268 21.793 9.24835 21.7755 9.12001 21.7755C8.89835 21.7755 8.73268 21.8233 8.62301 21.919C8.51568 22.0123 8.46201 22.1395 8.46201 22.3005C8.46201 22.4032 8.49468 22.4883 8.56001 22.556C8.62535 22.6237 8.71051 22.682 8.81551 22.731C8.92285 22.78 9.04418 22.8255 9.17951 22.8675C9.31718 22.9072 9.45718 22.9527 9.59951 23.004C9.74185 23.053 9.88068 23.1113 10.016 23.179C10.1537 23.2467 10.275 23.333 10.38 23.438C10.4873 23.543 10.5737 23.6713 10.639 23.823C10.7043 23.9723 10.737 24.1532 10.737 24.3655C10.737 24.6012 10.6962 24.8217 10.6145 25.027C10.5328 25.2323 10.4138 25.412 10.2575 25.566C10.1035 25.7177 9.91218 25.8378 9.68351 25.9265C9.45718 26.0128 9.19935 26.056 8.91001 26.056C8.75135 26.056 8.58918 26.0397 8.42351 26.007C8.26018 25.9743 8.10151 25.9288 7.94751 25.8705C7.79351 25.8098 7.64885 25.7387 7.51351 25.657C7.37818 25.5753 7.26035 25.4843 7.16001 25.384L7.51001 24.831C7.53801 24.7913 7.57418 24.7587 7.61851 24.733C7.66518 24.705 7.71535 24.691 7.76901 24.691C7.83901 24.691 7.90901 24.7132 7.97901 24.7575C8.05135 24.8018 8.13185 24.8508 8.22051 24.9045C8.31151 24.9582 8.41535 25.0072 8.53201 25.0515C8.64868 25.0958 8.78635 25.118 8.94501 25.118C9.15968 25.118 9.32651 25.0713 9.44551 24.978C9.56451 24.8823 9.62401 24.7318 9.62401 24.5265C9.62401 24.4075 9.59135 24.3107 9.52601 24.236C9.46068 24.1613 9.37435 24.0995 9.26701 24.0505C9.16201 24.0015 9.04185 23.9583 8.90651 23.921C8.77118 23.8837 8.63235 23.8428 8.49001 23.7985C8.34768 23.7518 8.20885 23.6958 8.07351 23.6305C7.93818 23.5628 7.81685 23.4753 7.70951 23.368C7.60451 23.2583 7.51935 23.123 7.45401 22.962C7.38868 22.7987 7.35601 22.598 7.35601 22.36C7.35601 22.1687 7.39451 21.982 7.47151 21.8C7.54851 21.618 7.66168 21.4558 7.81101 21.3135C7.96035 21.1712 8.14351 21.058 8.36051 20.974C8.57751 20.8877 8.82601 20.8445 9.10601 20.8445C9.26235 20.8445 9.41401 20.8573 9.56101 20.883C9.71035 20.9063 9.85151 20.9425 9.98451 20.9915C10.1175 21.0382 10.2412 21.0953 10.3555 21.163C10.4722 21.2283 10.576 21.303 10.667 21.387L10.373 21.9365Z" fill="#EEEEEE"/>
<path d="M3.5 19.5H14.5V18.5H3.5V19.5ZM16 21V25H17V21H16ZM14.5 26.5H3.5V27.5H14.5V26.5ZM2 25V21H1V25H2ZM3.5 26.5C2.67157 26.5 2 25.8284 2 25H1C1 26.3807 2.11929 27.5 3.5 27.5V26.5ZM16 25C16 25.8284 15.3284 26.5 14.5 26.5V27.5C15.8807 27.5 17 26.3807 17 25H16ZM14.5 19.5C15.3284 19.5 16 20.1716 16 21H17C17 19.6193 15.8807 18.5 14.5 18.5V19.5ZM3.5 18.5C2.11929 18.5 1 19.6193 1 21H2C2 20.1716 2.67157 19.5 3.5 19.5V18.5Z" fill="black"/>
</svg>
