<svg width="22" height="30" viewBox="0 0 22 30" fill="none" xmlns="http://www.w3.org/2000/svg">
<path d="M2 6C2 4.89543 2.89543 4 4 4H15C16.1046 4 17 4.89543 17 6V10C17 11.1046 16.1046 12 15 12H4C2.89543 12 2 11.1046 2 10V6Z" fill="#E3E3E3"/>
<path d="M10.873 6.9365C10.838 6.9925 10.8007 7.0345 10.761 7.0625C10.7237 7.0905 10.6747 7.1045 10.614 7.1045C10.5603 7.1045 10.502 7.08817 10.439 7.0555C10.3783 7.0205 10.3083 6.982 10.229 6.94C10.152 6.898 10.0633 6.86067 9.96301 6.828C9.86268 6.793 9.74835 6.7755 9.62001 6.7755C9.39835 6.7755 9.23268 6.82333 9.12301 6.919C9.01568 7.01233 8.96201 7.1395 8.96201 7.3005C8.96201 7.40317 8.99468 7.48833 9.06001 7.556C9.12535 7.62367 9.21051 7.682 9.31551 7.731C9.42285 7.78 9.54418 7.8255 9.67951 7.8675C9.81718 7.90717 9.95718 7.95267 10.0995 8.004C10.2418 8.053 10.3807 8.11133 10.516 8.179C10.6537 8.24667 10.775 8.333 10.88 8.438C10.9873 8.543 11.0737 8.67133 11.139 8.823C11.2043 8.97233 11.237 9.15317 11.237 9.3655C11.237 9.60117 11.1962 9.82167 11.1145 10.027C11.0328 10.2323 10.9138 10.412 10.7575 10.566C10.6035 10.7177 10.4122 10.8378 10.1835 10.9265C9.95718 11.0128 9.69935 11.056 9.41001 11.056C9.25135 11.056 9.08918 11.0397 8.92351 11.007C8.76018 10.9743 8.60151 10.9288 8.44751 10.8705C8.29351 10.8098 8.14885 10.7387 8.01351 10.657C7.87818 10.5753 7.76035 10.4843 7.66001 10.384L8.01001 9.831C8.03801 9.79133 8.07418 9.75867 8.11851 9.733C8.16518 9.705 8.21535 9.691 8.26901 9.691C8.33901 9.691 8.40901 9.71317 8.47901 9.7575C8.55135 9.80183 8.63185 9.85083 8.72051 9.9045C8.81151 9.95817 8.91535 10.0072 9.03201 10.0515C9.14868 10.0958 9.28635 10.118 9.44501 10.118C9.65968 10.118 9.82651 10.0713 9.94551 9.978C10.0645 9.88233 10.124 9.73183 10.124 9.5265C10.124 9.4075 10.0913 9.31067 10.026 9.236C9.96068 9.16133 9.87435 9.0995 9.76701 9.0505C9.66201 9.0015 9.54185 8.95833 9.40651 8.921C9.27118 8.88367 9.13235 8.84283 8.99001 8.7985C8.84768 8.75183 8.70885 8.69583 8.57351 8.6305C8.43818 8.56283 8.31685 8.47533 8.20951 8.368C8.10451 8.25833 8.01935 8.123 7.95401 7.962C7.88868 7.79867 7.85601 7.598 7.85601 7.36C7.85601 7.16867 7.89451 6.982 7.97151 6.8C8.04851 6.618 8.16168 6.45583 8.31101 6.3135C8.46035 6.17117 8.64351 6.058 8.86051 5.974C9.07751 5.88767 9.32601 5.8445 9.60601 5.8445C9.76235 5.8445 9.91401 5.85733 10.061 5.883C10.2103 5.90633 10.3515 5.9425 10.4845 5.9915C10.6175 6.03817 10.7412 6.09533 10.8555 6.163C10.9722 6.22833 11.076 6.303 11.167 6.387L10.873 6.9365Z" fill="#393B45"/>
<path d="M4 4.5H15V3.5H4V4.5ZM16.5 6V10H17.5V6H16.5ZM15 11.5H4V12.5H15V11.5ZM2.5 10V6H1.5V10H2.5ZM4 11.5C3.17157 11.5 2.5 10.8284 2.5 10H1.5C1.5 11.3807 2.61929 12.5 4 12.5V11.5ZM16.5 10C16.5 10.8284 15.8284 11.5 15 11.5V12.5C16.3807 12.5 17.5 11.3807 17.5 10H16.5ZM15 4.5C15.8284 4.5 16.5 5.17157 16.5 6H17.5C17.5 4.61929 16.3807 3.5 15 3.5V4.5ZM4 3.5C2.61929 3.5 1.5 4.61929 1.5 6H2.5C2.5 5.17157 3.17157 4.5 4 4.5V3.5Z" fill="#EEEEEE"/>
<path d="M2 21C2 19.8954 2.89543 19 4 19H15C16.1046 19 17 19.8954 17 21V25C17 26.1046 16.1046 27 15 27H4C2.89543 27 2 26.1046 2 25V21Z" fill="#FF9300"/>
<path d="M10.873 21.9365C10.838 21.9925 10.8007 22.0345 10.761 22.0625C10.7237 22.0905 10.6747 22.1045 10.614 22.1045C10.5603 22.1045 10.502 22.0882 10.439 22.0555C10.3783 22.0205 10.3083 21.982 10.229 21.94C10.152 21.898 10.0633 21.8607 9.96301 21.828C9.86268 21.793 9.74835 21.7755 9.62001 21.7755C9.39835 21.7755 9.23268 21.8233 9.12301 21.919C9.01568 22.0123 8.96201 22.1395 8.96201 22.3005C8.96201 22.4032 8.99468 22.4883 9.06001 22.556C9.12535 22.6237 9.21051 22.682 9.31551 22.731C9.42285 22.78 9.54418 22.8255 9.67951 22.8675C9.81718 22.9072 9.95718 22.9527 10.0995 23.004C10.2418 23.053 10.3807 23.1113 10.516 23.179C10.6537 23.2467 10.775 23.333 10.88 23.438C10.9873 23.543 11.0737 23.6713 11.139 23.823C11.2043 23.9723 11.237 24.1532 11.237 24.3655C11.237 24.6012 11.1962 24.8217 11.1145 25.027C11.0328 25.2323 10.9138 25.412 10.7575 25.566C10.6035 25.7177 10.4122 25.8378 10.1835 25.9265C9.95718 26.0128 9.69935 26.056 9.41001 26.056C9.25135 26.056 9.08918 26.0397 8.92351 26.007C8.76018 25.9743 8.60151 25.9288 8.44751 25.8705C8.29351 25.8098 8.14885 25.7387 8.01351 25.657C7.87818 25.5753 7.76035 25.4843 7.66001 25.384L8.01001 24.831C8.03801 24.7913 8.07418 24.7587 8.11851 24.733C8.16518 24.705 8.21535 24.691 8.26901 24.691C8.33901 24.691 8.40901 24.7132 8.47901 24.7575C8.55135 24.8018 8.63185 24.8508 8.72051 24.9045C8.81151 24.9582 8.91535 25.0072 9.03201 25.0515C9.14868 25.0958 9.28635 25.118 9.44501 25.118C9.65968 25.118 9.82651 25.0713 9.94551 24.978C10.0645 24.8823 10.124 24.7318 10.124 24.5265C10.124 24.4075 10.0913 24.3107 10.026 24.236C9.96068 24.1613 9.87435 24.0995 9.76701 24.0505C9.66201 24.0015 9.54185 23.9583 9.40651 23.921C9.27118 23.8837 9.13235 23.8428 8.99001 23.7985C8.84768 23.7518 8.70885 23.6958 8.57351 23.6305C8.43818 23.5628 8.31685 23.4753 8.20951 23.368C8.10451 23.2583 8.01935 23.123 7.95401 22.962C7.88868 22.7987 7.85601 22.598 7.85601 22.36C7.85601 22.1687 7.89451 21.982 7.97151 21.8C8.04851 21.618 8.16168 21.4558 8.31101 21.3135C8.46035 21.1712 8.64351 21.058 8.86051 20.974C9.07751 20.8877 9.32601 20.8445 9.60601 20.8445C9.76235 20.8445 9.91401 20.8573 10.061 20.883C10.2103 20.9063 10.3515 20.9425 10.4845 20.9915C10.6175 21.0382 10.7412 21.0953 10.8555 21.163C10.9722 21.2283 11.076 21.303 11.167 21.387L10.873 21.9365Z" fill="#EEEEEE"/>
<path d="M4 19.5H15V18.5H4V19.5ZM16.5 21V25H17.5V21H16.5ZM15 26.5H4V27.5H15V26.5ZM2.5 25V21H1.5V25H2.5ZM4 26.5C3.17157 26.5 2.5 25.8284 2.5 25H1.5C1.5 26.3807 2.61929 27.5 4 27.5V26.5ZM16.5 25C16.5 25.8284 15.8284 26.5 15 26.5V27.5C16.3807 27.5 17.5 26.3807 17.5 25H16.5ZM15 19.5C15.8284 19.5 16.5 20.1716 16.5 21H17.5C17.5 19.6193 16.3807 18.5 15 18.5V19.5ZM4 18.5C2.61929 18.5 1.5 19.6193 1.5 21H2.5C2.5 20.1716 3.17157 19.5 4 19.5V18.5Z" fill="#EEEEEE"/>
</svg>
