<?xml version="1.0" encoding="utf-8"?>
<svg width="32px" height="12px" viewBox="0 0 32 12" version="1.1" xmlns:xlink="http://www.w3.org/1999/xlink" xmlns="http://www.w3.org/2000/svg">
  <desc>Created with Lunacy</desc>
  <defs>
    <rect width="32" height="12" id="artboard_1" />
    <clipPath id="clip_1">
      <use xlink:href="#artboard_1" clip-rule="evenodd" />
    </clipPath>
  </defs>
  <g id="hover00306" clip-path="url(#clip_1)">
    <path d="M5.499 0L25.501 0Q25.636 0 25.7708 0.00662379Q25.9057 0.0132476 26.04 0.0264792Q26.1743 0.0397108 26.3079 0.0595184Q26.4414 0.0793259 26.5738 0.105662Q26.7062 0.131998 26.8371 0.164798Q26.9681 0.197599 27.0973 0.236785Q27.2265 0.275971 27.3536 0.321449Q27.4807 0.366927 27.6054 0.418586Q27.7301 0.470246 27.8521 0.527963Q27.9742 0.58568 28.0932 0.649315Q28.2123 0.71295 28.328 0.78235Q28.4438 0.85175 28.5561 0.926749Q28.6683 1.00175 28.7767 1.08216Q28.8852 1.16258 28.9895 1.24822Q29.0939 1.33385 29.1939 1.42451Q29.2939 1.51517 29.3894 1.61062Q29.4848 1.70607 29.5755 1.8061Q29.6661 1.90612 29.7518 2.01047Q29.8374 2.11482 29.9178 2.22325Q29.9982 2.33168 30.0732 2.44392Q30.1482 2.55616 30.2176 2.67195Q30.287 2.78774 30.3507 2.90679Q30.4143 3.02584 30.472 3.14787Q30.5298 3.26991 30.5814 3.39462Q30.6331 3.51934 30.6785 3.64644Q30.724 3.77354 30.7632 3.90272Q30.8024 4.0319 30.8352 4.16285Q30.868 4.2938 30.8943 4.4262Q30.9207 4.5586 30.9405 4.69213Q30.9603 4.82566 30.9735 4.96Q30.9868 5.09435 30.9934 5.22918Q31 5.36401 31 5.499L31 5.501Q31 5.63599 30.9934 5.77082Q30.9868 5.90565 30.9735 6.04Q30.9603 6.17434 30.9405 6.30787Q30.9207 6.4414 30.8943 6.5738Q30.868 6.7062 30.8352 6.83715Q30.8024 6.96809 30.7632 7.09728Q30.724 7.22646 30.6786 7.35356Q30.6331 7.48066 30.5814 7.60538Q30.5298 7.73009 30.472 7.85212Q30.4143 7.97416 30.3507 8.09321Q30.287 8.21226 30.2176 8.32805Q30.1482 8.44384 30.0732 8.55608Q29.9983 8.66832 29.9178 8.77675Q29.8374 8.88518 29.7518 8.98953Q29.6661 9.09388 29.5755 9.1939Q29.4848 9.29393 29.3894 9.38938Q29.2939 9.48483 29.1939 9.57549Q29.0939 9.66615 28.9895 9.75178Q28.8852 9.83742 28.7767 9.91784Q28.6683 9.99825 28.5561 10.0733Q28.4438 10.1482 28.328 10.2176Q28.2123 10.287 28.0932 10.3507Q27.9742 10.4143 27.8521 10.472Q27.7301 10.5298 27.6054 10.5814Q27.4807 10.6331 27.3536 10.6785Q27.2265 10.724 27.0973 10.7632Q26.9681 10.8024 26.8371 10.8352Q26.7062 10.868 26.5738 10.8943Q26.4414 10.9207 26.3079 10.9405Q26.1743 10.9603 26.04 10.9735Q25.9057 10.9868 25.7708 10.9934Q25.636 11 25.501 11L5.499 11Q5.36401 11 5.22918 10.9934Q5.09435 10.9868 4.96 10.9735Q4.82566 10.9603 4.69213 10.9405Q4.5586 10.9207 4.4262 10.8943Q4.2938 10.868 4.16285 10.8352Q4.0319 10.8024 3.90272 10.7632Q3.77354 10.724 3.64644 10.6785Q3.51934 10.6331 3.39462 10.5814Q3.26991 10.5298 3.14787 10.472Q3.02584 10.4143 2.90679 10.3507Q2.78774 10.287 2.67195 10.2176Q2.55616 10.1482 2.44392 10.0732Q2.33168 9.99825 2.22325 9.91784Q2.11482 9.83742 2.01047 9.75178Q1.90612 9.66615 1.8061 9.57549Q1.70607 9.48483 1.61062 9.38938Q1.51517 9.29393 1.42451 9.1939Q1.33385 9.09388 1.24822 8.98953Q1.16258 8.88518 1.08216 8.77675Q1.00175 8.66832 0.926749 8.55608Q0.85175 8.44384 0.78235 8.32805Q0.71295 8.21226 0.649315 8.09321Q0.58568 7.97416 0.527963 7.85212Q0.470246 7.73009 0.418586 7.60537Q0.366927 7.48066 0.321449 7.35356Q0.275971 7.22645 0.236785 7.09727Q0.197599 6.96809 0.164798 6.83715Q0.131998 6.7062 0.105662 6.5738Q0.0793259 6.4414 0.0595184 6.30787Q0.0397108 6.17434 0.0264792 6.04Q0.0132476 5.90565 0.00662379 5.77082Q0 5.63599 0 5.501L0 5.499Q0 5.36401 0.00662379 5.22918Q0.0132476 5.09435 0.0264792 4.96Q0.0397108 4.82566 0.0595184 4.69213Q0.0793259 4.5586 0.105662 4.4262Q0.131998 4.2938 0.164798 4.16285Q0.197599 4.0319 0.236785 3.90272Q0.275971 3.77354 0.321449 3.64644Q0.366927 3.51934 0.418586 3.39462Q0.470246 3.26991 0.527963 3.14787Q0.58568 3.02584 0.649315 2.90679Q0.71295 2.78774 0.78235 2.67195Q0.85175 2.55616 0.926749 2.44392Q1.00175 2.33168 1.08216 2.22325Q1.16258 2.11482 1.24822 2.01047Q1.33385 1.90612 1.42451 1.8061Q1.51517 1.70607 1.61062 1.61062Q1.70607 1.51517 1.8061 1.42451Q1.90612 1.33385 2.01047 1.24822Q2.11482 1.16258 2.22325 1.08216Q2.33168 1.00175 2.44392 0.926749Q2.55616 0.85175 2.67195 0.78235Q2.78774 0.71295 2.90679 0.649315Q3.02584 0.58568 3.14787 0.527963Q3.26991 0.470246 3.39462 0.418586Q3.51934 0.366927 3.64644 0.321449Q3.77354 0.275971 3.90272 0.236785Q4.0319 0.197599 4.16285 0.164798Q4.2938 0.131998 4.4262 0.105662Q4.5586 0.0793259 4.69213 0.0595184Q4.82566 0.0397108 4.96 0.0264792Q5.09435 0.0132476 5.22918 0.00662379Q5.36401 0 5.499 0Z" transform="translate(0.5 0.5)" id="Rectangle" fill="#FFCCAA" fill-rule="evenodd" stroke="#919192" stroke-width="1" />
  </g>
</svg>