<?xml version="1.0" encoding="utf-8"?>
<svg width="31px" height="24px" viewBox="0 0 31 24" version="1.1" xmlns:xlink="http://www.w3.org/1999/xlink" xmlns="http://www.w3.org/2000/svg">
  <desc>Created with Lunacy</desc>
  <defs>
    <rect width="31" height="24" id="artboard_1" />
    <clipPath id="clip_1">
      <use xlink:href="#artboard_1" clip-rule="evenodd" />
    </clipPath>
  </defs>
  <g id="hover00171" clip-path="url(#clip_1)">
    <g id="On" transform="translate(6.9 14.779999)">
      <path d="M6.70992 0L6.70992 6.45L5.94483 6.45L5.94483 1.7104C5.94483 1.64738 5.94708 1.57987 5.95158 1.50785C5.95608 1.43583 5.96133 1.36232 5.96733 1.2873L3.75321 5.32024C3.6842 5.45527 3.5792 5.52278 3.43819 5.52278L3.31218 5.52278C3.17117 5.52278 3.06617 5.45527 2.99716 5.32024L0.738041 1.26929C0.756041 1.42833 0.765041 1.57537 0.765041 1.7104L0.765041 6.45L0 6.45L0 0L0.643535 0C0.721539 0 0.781543 0.00750144 0.823545 0.0225053C0.865547 0.0375081 0.90605 0.0795177 0.945052 0.148534L3.17267 4.11846C3.20868 4.19047 3.24393 4.26549 3.27843 4.34351C3.31293 4.42153 3.34518 4.50104 3.37519 4.58206C3.40519 4.50104 3.43669 4.42078 3.46969 4.34126C3.50269 4.26174 3.53869 4.18597 3.5777 4.11396L5.76482 0.148534C5.80082 0.0795177 5.84057 0.0375081 5.88407 0.0225053C5.92758 0.00750144 5.98833 0 6.06633 0L6.70992 0L6.70992 0ZM10.0606 0C10.4686 0 10.8233 0.0472608 11.1249 0.141782C11.4263 0.236305 11.6761 0.370586 11.8741 0.544626C12.0721 0.718667 12.2199 0.928716 12.3174 1.17477C12.415 1.42083 12.4637 1.69539 12.4637 1.99846C12.4637 2.29853 12.4112 2.5731 12.3061 2.82216C12.2011 3.07121 12.0474 3.28576 11.8449 3.4658C11.6424 3.64585 11.3919 3.78613 11.0934 3.88665C10.7949 3.98718 10.4506 4.03744 10.0606 4.03744L9.02554 4.03744L9.02554 6.45L8.1569 6.45L8.1569 0L10.0606 0L10.0606 0ZM17.3355 6.45L17.34 5.73883L14.2348 5.73883L14.2348 3.53782L16.746 3.53782L16.746 2.85366L14.2348 2.85366L14.2348 0.711165L17.3355 0.711165L17.3355 0L13.3618 0L13.3618 6.45L17.3355 6.45L17.3355 6.45ZM10.0606 3.34428C10.3096 3.34428 10.5294 3.31127 10.7198 3.24526C10.9104 3.17924 11.0709 3.08697 11.2014 2.96844C11.3319 2.84992 11.4302 2.70813 11.4962 2.54309C11.5621 2.37806 11.5951 2.19651 11.5952 1.99847C11.5951 1.58737 11.4683 1.2663 11.2149 1.03524C10.9614 0.80419 10.5766 0.688663 10.0606 0.688663L9.02555 0.688663L9.02555 3.34428L10.0606 3.34428L10.0606 3.34428Z" id="Glow" fill="#000000" fill-rule="evenodd" stroke="#FFFFFF" stroke-width="1" />
      <path d="M6.70955 0L6.70955 6.4485L5.9445 6.4485L5.9445 1.71C5.9445 1.647 5.94675 1.5795 5.95125 1.5075C5.95575 1.4355 5.961 1.362 5.967 1.287L3.753 5.319C3.684 5.454 3.579 5.5215 3.438 5.5215L3.312 5.5215C3.171 5.5215 3.066 5.454 2.997 5.319L0.738 1.269C0.756 1.428 0.764999 1.575 0.764999 1.71L0.764999 6.4485L0 6.4485L0 0L0.643499 0C0.721499 0 0.7815 0.00749969 0.8235 0.0225C0.865499 0.0374994 0.906 0.0794992 0.945 0.148499L3.1725 4.1175C3.2085 4.1895 3.24375 4.2645 3.27825 4.3425C3.31275 4.4205 3.345 4.5 3.375 4.581C3.405 4.5 3.4365 4.41975 3.4695 4.34025C3.5025 4.26075 3.5385 4.185 3.5775 4.113L5.7645 0.148499C5.8005 0.0794992 5.84025 0.0374994 5.88375 0.0225C5.92725 0.00749969 5.988 0 6.066 0L6.70955 0L6.70955 0ZM10.06 0C10.468 0 10.8227 0.0472498 11.1242 0.141749C11.4257 0.23625 11.6754 0.3705 11.8734 0.544499C12.0714 0.7185 12.2192 0.9285 12.3167 1.1745C12.4143 1.4205 12.463 1.695 12.463 1.998C12.463 2.298 12.4105 2.5725 12.3054 2.8215C12.2004 3.0705 12.0467 3.285 11.8442 3.465C11.6418 3.645 11.3913 3.78525 11.0927 3.88575C10.7943 3.98625 10.45 4.0365 10.06 4.0365L9.02505 4.0365L9.02505 6.4485L8.15645 6.4485L8.15645 0L10.06 0L10.06 0ZM17.3345 6.4485L17.3391 5.7375L14.234 5.7375L14.234 3.537L16.745 3.537L16.745 2.853L14.234 2.853L14.234 0.710999L17.3345 0.710999L17.3345 0L13.3611 0L13.3611 6.4485L17.3345 6.4485L17.3345 6.4485ZM10.0601 3.3435C10.309 3.3435 10.5288 3.3105 10.7192 3.2445C10.9098 3.1785 11.0703 3.08625 11.2007 2.96775C11.3313 2.84925 11.4295 2.7075 11.4955 2.5425C11.5615 2.3775 11.5945 2.196 11.5946 1.998C11.5945 1.587 11.4677 1.266 11.2142 1.035C10.9608 0.804 10.576 0.6885 10.0601 0.6885L9.02505 0.6885L9.02505 3.3435L10.0601 3.3435L10.0601 3.3435Z" transform="translate(1.4305115E-06 0)" id="MPE" fill="#000000" fill-rule="evenodd" stroke="none" />
    </g>
    <g id="Off" transform="translate(6.9 2.7799988)">
      <path d="M6.70992 0L6.70992 6.45L5.94483 6.45L5.94483 1.7104C5.94483 1.64738 5.94708 1.57987 5.95158 1.50785C5.95608 1.43583 5.96133 1.36232 5.96733 1.2873L3.75321 5.32024C3.6842 5.45527 3.5792 5.52278 3.43819 5.52278L3.31218 5.52278C3.17117 5.52278 3.06617 5.45527 2.99716 5.32024L0.738041 1.26929C0.756041 1.42833 0.765041 1.57537 0.765041 1.7104L0.765041 6.45L0 6.45L0 0L0.643535 0C0.721539 0 0.781543 0.00750144 0.823545 0.0225053C0.865547 0.0375081 0.90605 0.0795177 0.945052 0.148534L3.17267 4.11846C3.20868 4.19047 3.24393 4.26549 3.27843 4.34351C3.31293 4.42153 3.34518 4.50104 3.37519 4.58206C3.40519 4.50104 3.43669 4.42078 3.46969 4.34126C3.50269 4.26174 3.53869 4.18597 3.5777 4.11396L5.76482 0.148534C5.80082 0.0795177 5.84057 0.0375081 5.88407 0.0225053C5.92758 0.00750144 5.98833 0 6.06633 0L6.70992 0L6.70992 0ZM10.0606 0C10.4686 0 10.8233 0.0472608 11.1249 0.141782C11.4263 0.236305 11.6761 0.370586 11.8741 0.544626C12.0721 0.718667 12.2199 0.928716 12.3174 1.17477C12.415 1.42083 12.4637 1.69539 12.4637 1.99846C12.4637 2.29853 12.4112 2.5731 12.3061 2.82216C12.2011 3.07121 12.0474 3.28576 11.8449 3.4658C11.6424 3.64585 11.3919 3.78613 11.0934 3.88665C10.7949 3.98718 10.4506 4.03744 10.0606 4.03744L9.02554 4.03744L9.02554 6.45L8.1569 6.45L8.1569 0L10.0606 0L10.0606 0ZM17.3355 6.45L17.34 5.73883L14.2348 5.73883L14.2348 3.53782L16.746 3.53782L16.746 2.85366L14.2348 2.85366L14.2348 0.711165L17.3355 0.711165L17.3355 0L13.3618 0L13.3618 6.45L17.3355 6.45L17.3355 6.45ZM10.0606 3.34428C10.3096 3.34428 10.5294 3.31127 10.7198 3.24526C10.9104 3.17924 11.0709 3.08697 11.2014 2.96844C11.3319 2.84992 11.4302 2.70813 11.4962 2.54309C11.5621 2.37806 11.5951 2.19651 11.5952 1.99847C11.5951 1.58737 11.4683 1.2663 11.2149 1.03524C10.9614 0.80419 10.5766 0.688663 10.0606 0.688663L9.02555 0.688663L9.02555 3.34428L10.0606 3.34428L10.0606 3.34428Z" id="Glow" fill="#000000" fill-rule="evenodd" stroke="#FFCCAA" stroke-width="1" />
      <path d="M6.70955 0L6.70955 6.4485L5.9445 6.4485L5.9445 1.71C5.9445 1.647 5.94675 1.5795 5.95125 1.5075C5.95575 1.4355 5.961 1.362 5.967 1.287L3.753 5.319C3.684 5.454 3.579 5.5215 3.438 5.5215L3.312 5.5215C3.171 5.5215 3.066 5.454 2.997 5.319L0.738 1.269C0.756 1.428 0.764999 1.575 0.764999 1.71L0.764999 6.4485L0 6.4485L0 0L0.643499 0C0.721499 0 0.7815 0.00749969 0.8235 0.0225C0.865499 0.0374994 0.906 0.0794992 0.945 0.148499L3.1725 4.1175C3.2085 4.1895 3.24375 4.2645 3.27825 4.3425C3.31275 4.4205 3.345 4.5 3.375 4.581C3.405 4.5 3.4365 4.41975 3.4695 4.34025C3.5025 4.26075 3.5385 4.185 3.5775 4.113L5.7645 0.148499C5.8005 0.0794992 5.84025 0.0374994 5.88375 0.0225C5.92725 0.00749969 5.988 0 6.066 0L6.70955 0L6.70955 0ZM10.06 0C10.468 0 10.8227 0.0472498 11.1242 0.141749C11.4257 0.23625 11.6754 0.3705 11.8734 0.544499C12.0714 0.7185 12.2192 0.9285 12.3167 1.1745C12.4143 1.4205 12.463 1.695 12.463 1.998C12.463 2.298 12.4105 2.5725 12.3054 2.8215C12.2004 3.0705 12.0467 3.285 11.8442 3.465C11.6418 3.645 11.3913 3.78525 11.0927 3.88575C10.7943 3.98625 10.45 4.0365 10.06 4.0365L9.02505 4.0365L9.02505 6.4485L8.15645 6.4485L8.15645 0L10.06 0L10.06 0ZM17.3345 6.4485L17.3391 5.7375L14.234 5.7375L14.234 3.537L16.745 3.537L16.745 2.853L14.234 2.853L14.234 0.710999L17.3345 0.710999L17.3345 0L13.3611 0L13.3611 6.4485L17.3345 6.4485L17.3345 6.4485ZM10.0601 3.3435C10.309 3.3435 10.5288 3.3105 10.7192 3.2445C10.9098 3.1785 11.0703 3.08625 11.2007 2.96775C11.3313 2.84925 11.4295 2.7075 11.4955 2.5425C11.5615 2.3775 11.5945 2.196 11.5946 1.998C11.5945 1.587 11.4677 1.266 11.2142 1.035C10.9608 0.804 10.576 0.6885 10.0601 0.6885L9.02505 0.6885L9.02505 3.3435L10.0601 3.3435L10.0601 3.3435Z" transform="translate(1.4305115E-06 0)" id="MPE" fill="#000000" fill-rule="evenodd" stroke="none" />
    </g>
  </g>
</svg>