<?xml version="1.0" encoding="utf-8"?>
<svg width="94px" height="36px" viewBox="0 0 94 36" version="1.1" xmlns:xlink="http://www.w3.org/1999/xlink" xmlns="http://www.w3.org/2000/svg">
  <desc>Created with Lunacy</desc>
  <defs>
    <rect width="94" height="36" id="artboard_1" />
    <clipPath id="clip_1">
      <use xlink:href="#artboard_1" clip-rule="evenodd" />
    </clipPath>
  </defs>
  <g id="hoverOn00302" clip-path="url(#clip_1)">
    <g id="Text-Row-3" transform="translate(66.31 24.5)">
      <g stroke="#FFFFFF" stroke-width="1" id="Draw">
        <path d="M6.2235 6.81625Q6.4575 6.22 6.4575 5.5Q6.4575 4.78 6.2235 4.18375Q5.9895 3.5875 5.56425 3.16Q5.139 2.7325 4.54275 2.49625Q3.9465 2.26 3.2175 2.26L0.7695 2.26L0.7695 8.74L3.2175 8.74Q3.9465 8.74 4.54275 8.50375Q5.139 8.2675 5.56425 7.84Q5.9895 7.4125 6.2235 6.81625ZM5.23125 4.4965Q5.382 4.942 5.382 5.5Q5.382 6.0625 5.23125 6.50575Q5.0805 6.949 4.79925 7.25725Q4.518 7.5655 4.1175 7.7275Q3.717 7.8895 3.2175 7.8895L1.827 7.8895L1.827 3.1105L3.2175 3.1105Q3.717 3.1105 4.1175 3.27475Q4.518 3.439 4.79925 3.745Q5.0805 4.051 5.23125 4.4965ZM9.1195 4.31425Q8.8135 4.564 8.5975 5.0005L8.539 4.402Q8.5165 4.2625 8.458 4.20625Q8.3995 4.15 8.2465 4.15L7.684 4.15L7.684 8.74L8.6515 8.74L8.6515 5.887Q8.7325 5.68 8.827 5.518Q8.9215 5.356 9.04525 5.2435Q9.169 5.131 9.32425 5.0725Q9.4795 5.014 9.682 5.014Q9.8215 5.014 9.9475 5.03875Q10.0735 5.0635 10.141 5.0635Q10.204 5.0635 10.2423 5.03425Q10.2805 5.005 10.2985 4.9285L10.366 4.1995Q10.2625 4.132 10.132 4.09825Q10.0015 4.0645 9.853 4.0645Q9.4255 4.0645 9.1195 4.31425ZM11.1425 4.789Q11.921 4.0645 12.9965 4.0645Q13.3925 4.0645 13.7008 4.19275Q14.009 4.321 14.2183 4.555Q14.4275 4.789 14.5378 5.11075Q14.648 5.4325 14.648 5.824L14.648 8.74L14.216 8.74Q14.0765 8.74 14.0045 8.69725Q13.9325 8.6545 13.883 8.524L13.7885 8.1505Q13.613 8.308 13.442 8.43175Q13.271 8.5555 13.0888 8.641Q12.9065 8.7265 12.6973 8.76925Q12.488 8.812 12.236 8.812Q11.957 8.812 11.7163 8.7355Q11.4755 8.659 11.3 8.50375Q11.1245 8.3485 11.0233 8.119Q10.922 7.8895 10.922 7.579Q10.922 7.3135 11.0638 7.0615Q11.2055 6.8095 11.5318 6.60925Q11.858 6.409 12.3913 6.2785Q12.9245 6.148 13.7075 6.13L13.7075 5.824Q13.7075 5.329 13.496 5.086Q13.2845 4.843 12.875 4.843Q12.596 4.843 12.407 4.91275Q12.218 4.9825 12.0785 5.0635Q11.939 5.1445 11.831 5.21425Q11.723 5.284 11.6015 5.284Q11.5025 5.284 11.4328 5.23225Q11.363 5.1805 11.318 5.104L11.1425 4.789ZM21.0045 8.74L22.476 4.15L21.747 4.15Q21.6435 4.15 21.5715 4.204Q21.4995 4.258 21.4725 4.339L20.694 7.012Q20.6445 7.201 20.6085 7.3765Q20.5725 7.552 20.541 7.723Q20.5005 7.5475 20.4533 7.372Q20.406 7.1965 20.352 7.012L19.515 4.3255Q19.4925 4.2445 19.4205 4.19275Q19.3485 4.141 19.245 4.141L18.822 4.141Q18.723 4.141 18.6533 4.19275Q18.5835 4.2445 18.561 4.3255L17.7015 7.012Q17.6475 7.1965 17.598 7.36975Q17.5485 7.543 17.5035 7.714Q17.4765 7.543 17.4428 7.36975Q17.409 7.1965 17.364 7.012L16.599 4.339Q16.5765 4.2625 16.5023 4.20625Q16.428 4.15 16.3155 4.15L15.5505 4.15L17.022 8.74L17.7555 8.74Q17.9175 8.74 17.967 8.5645L18.894 5.7115Q18.966 5.4685 19.0155 5.2255Q19.038 5.3425 19.0673 5.464Q19.0965 5.5855 19.1325 5.707L20.046 8.5645Q20.1 8.74 20.235 8.74L21.0045 8.74ZM13.7075 6.733Q13.19 6.751 12.8345 6.81625Q12.479 6.8815 12.2585 6.98275Q12.038 7.084 11.9413 7.2235Q11.8445 7.363 11.8445 7.5295Q11.8445 7.6915 11.8963 7.80625Q11.948 7.921 12.0403 7.99525Q12.1325 8.0695 12.2563 8.10325Q12.38 8.137 12.5285 8.137Q12.9065 8.137 13.1788 7.99525Q13.451 7.8535 13.7075 7.5835L13.7075 6.733Z" />
      </g>
      <g id="Draw">
        <path d="M6.2235 6.81625Q6.4575 6.22 6.4575 5.5Q6.4575 4.78 6.2235 4.18375Q5.9895 3.5875 5.56425 3.16Q5.139 2.7325 4.54275 2.49625Q3.9465 2.26 3.2175 2.26L0.7695 2.26L0.7695 8.74L3.2175 8.74Q3.9465 8.74 4.54275 8.50375Q5.139 8.2675 5.56425 7.84Q5.9895 7.4125 6.2235 6.81625ZM5.23125 4.4965Q5.382 4.942 5.382 5.5Q5.382 6.0625 5.23125 6.50575Q5.0805 6.949 4.79925 7.25725Q4.518 7.5655 4.1175 7.7275Q3.717 7.8895 3.2175 7.8895L1.827 7.8895L1.827 3.1105L3.2175 3.1105Q3.717 3.1105 4.1175 3.27475Q4.518 3.439 4.79925 3.745Q5.0805 4.051 5.23125 4.4965ZM9.1195 4.31425Q8.8135 4.564 8.5975 5.0005L8.539 4.402Q8.5165 4.2625 8.458 4.20625Q8.3995 4.15 8.2465 4.15L7.684 4.15L7.684 8.74L8.6515 8.74L8.6515 5.887Q8.7325 5.68 8.827 5.518Q8.9215 5.356 9.04525 5.2435Q9.169 5.131 9.32425 5.0725Q9.4795 5.014 9.682 5.014Q9.8215 5.014 9.9475 5.03875Q10.0735 5.0635 10.141 5.0635Q10.204 5.0635 10.2423 5.03425Q10.2805 5.005 10.2985 4.9285L10.366 4.1995Q10.2625 4.132 10.132 4.09825Q10.0015 4.0645 9.853 4.0645Q9.4255 4.0645 9.1195 4.31425ZM11.1425 4.789Q11.921 4.0645 12.9965 4.0645Q13.3925 4.0645 13.7008 4.19275Q14.009 4.321 14.2183 4.555Q14.4275 4.789 14.5378 5.11075Q14.648 5.4325 14.648 5.824L14.648 8.74L14.216 8.74Q14.0765 8.74 14.0045 8.69725Q13.9325 8.6545 13.883 8.524L13.7885 8.1505Q13.613 8.308 13.442 8.43175Q13.271 8.5555 13.0888 8.641Q12.9065 8.7265 12.6973 8.76925Q12.488 8.812 12.236 8.812Q11.957 8.812 11.7163 8.7355Q11.4755 8.659 11.3 8.50375Q11.1245 8.3485 11.0233 8.119Q10.922 7.8895 10.922 7.579Q10.922 7.3135 11.0638 7.0615Q11.2055 6.8095 11.5318 6.60925Q11.858 6.409 12.3913 6.2785Q12.9245 6.148 13.7075 6.13L13.7075 5.824Q13.7075 5.329 13.496 5.086Q13.2845 4.843 12.875 4.843Q12.596 4.843 12.407 4.91275Q12.218 4.9825 12.0785 5.0635Q11.939 5.1445 11.831 5.21425Q11.723 5.284 11.6015 5.284Q11.5025 5.284 11.4328 5.23225Q11.363 5.1805 11.318 5.104L11.1425 4.789ZM21.0045 8.74L22.476 4.15L21.747 4.15Q21.6435 4.15 21.5715 4.204Q21.4995 4.258 21.4725 4.339L20.694 7.012Q20.6445 7.201 20.6085 7.3765Q20.5725 7.552 20.541 7.723Q20.5005 7.5475 20.4533 7.372Q20.406 7.1965 20.352 7.012L19.515 4.3255Q19.4925 4.2445 19.4205 4.19275Q19.3485 4.141 19.245 4.141L18.822 4.141Q18.723 4.141 18.6533 4.19275Q18.5835 4.2445 18.561 4.3255L17.7015 7.012Q17.6475 7.1965 17.598 7.36975Q17.5485 7.543 17.5035 7.714Q17.4765 7.543 17.4428 7.36975Q17.409 7.1965 17.364 7.012L16.599 4.339Q16.5765 4.2625 16.5023 4.20625Q16.428 4.15 16.3155 4.15L15.5505 4.15L17.022 8.74L17.7555 8.74Q17.9175 8.74 17.967 8.5645L18.894 5.7115Q18.966 5.4685 19.0155 5.2255Q19.038 5.3425 19.0673 5.464Q19.0965 5.5855 19.1325 5.707L20.046 8.5645Q20.1 8.74 20.235 8.74L21.0045 8.74ZM13.7075 6.733Q13.19 6.751 12.8345 6.81625Q12.479 6.8815 12.2585 6.98275Q12.038 7.084 11.9413 7.2235Q11.8445 7.363 11.8445 7.5295Q11.8445 7.6915 11.8963 7.80625Q11.948 7.921 12.0403 7.99525Q12.1325 8.0695 12.2563 8.10325Q12.38 8.137 12.5285 8.137Q12.9065 8.137 13.1788 7.99525Q13.451 7.8535 13.7075 7.5835L13.7075 6.733Z" />
      </g>
    </g>
    <g id="Text-Row-2" transform="translate(36.809998 12.5)">
      <g stroke="#FFFFFF" stroke-width="1" id="Shift">
        <path d="M6.7165 4.6945Q7 4.4155 7.3375 4.24675Q7.675 4.078 8.125 4.078Q8.503 4.078 8.78875 4.204Q9.0745 4.33 9.27025 4.5595Q9.466 4.789 9.565 5.11075Q9.664 5.4325 9.664 5.8195L9.664 8.74L8.701 8.74L8.701 5.8195Q8.701 5.356 8.48725 5.0995Q8.2735 4.843 7.837 4.843Q7.513 4.843 7.23625 4.9915Q6.9595 5.14 6.7165 5.3965L6.7165 8.74L5.749 8.74L5.749 2.08L6.7165 2.08L6.7165 4.6945ZM12.1663 3.0115Q12.218 2.8945 12.218 2.764Q12.218 2.629 12.1663 2.512Q12.1145 2.395 12.0245 2.30725Q11.9345 2.2195 11.8153 2.16775Q11.696 2.116 11.561 2.116Q11.4305 2.116 11.3158 2.16775Q11.201 2.2195 11.1155 2.30725Q11.03 2.395 10.9782 2.512Q10.9265 2.629 10.9265 2.764Q10.9265 2.8945 10.9782 3.0115Q11.03 3.1285 11.1155 3.21625Q11.201 3.304 11.3158 3.35575Q11.4305 3.4075 11.561 3.4075Q11.696 3.4075 11.8153 3.35575Q11.9345 3.304 12.0245 3.21625Q12.1145 3.1285 12.1663 3.0115ZM13.836 8.74L13.836 4.9195L13.386 4.8565Q13.2735 4.834 13.2037 4.7755Q13.134 4.717 13.134 4.609L13.134 4.213L13.836 4.213L13.836 3.826Q13.836 3.4345 13.9508 3.124Q14.0655 2.8135 14.2793 2.5975Q14.493 2.3815 14.799 2.26675Q15.105 2.152 15.4875 2.152Q15.645 2.152 15.7867 2.1745Q15.9285 2.197 16.0635 2.242L16.0455 2.728Q16.0365 2.8495 15.9263 2.872Q15.816 2.8945 15.6495 2.8945Q15.447 2.8945 15.285 2.94175Q15.123 2.989 15.0083 3.1015Q14.8935 3.214 14.8328 3.3985Q14.772 3.583 14.772 3.8575L14.772 4.213L16.0275 4.213L16.0275 4.9105L14.8035 4.9105L14.8035 8.74L13.836 8.74ZM4.158 3.367Q4.1085 3.448 4.0545 3.48625Q4.0005 3.5245 3.9195 3.5245Q3.834 3.5245 3.72825 3.4525Q3.6225 3.3805 3.46725 3.29275Q3.312 3.205 3.1005 3.13075Q2.889 3.0565 2.5965 3.0565Q2.3265 3.0565 2.12175 3.124Q1.917 3.1915 1.7775 3.313Q1.638 3.4345 1.56825 3.59875Q1.4985 3.763 1.4985 3.9565Q1.4985 4.204 1.629 4.36825Q1.7595 4.5325 1.97325 4.6495Q2.187 4.7665 2.4615 4.85425Q2.736 4.942 3.02175 5.041Q3.3075 5.14 3.582 5.266Q3.8565 5.392 4.07025 5.5855Q4.284 5.779 4.4145 6.058Q4.545 6.337 4.545 6.7375Q4.545 7.1695 4.3965 7.5475Q4.248 7.9255 3.96675 8.20675Q3.6855 8.488 3.27375 8.65Q2.862 8.812 2.3355 8.812Q2.025 8.812 1.73025 8.75125Q1.4355 8.6905 1.16775 8.58025Q0.9 8.47 0.666 8.3125Q0.432 8.155 0.2475 7.9615L0.5535 7.4575Q0.594 7.3945 0.657 7.3585Q0.72 7.3225 0.7965 7.3225Q0.9 7.3225 1.026 7.41925Q1.152 7.516 1.32975 7.63075Q1.5075 7.7455 1.7595 7.84225Q2.0115 7.939 2.3625 7.939Q2.934 7.939 3.24675 7.66Q3.5595 7.381 3.5595 6.8905Q3.5595 6.616 3.429 6.44275Q3.2985 6.2695 3.08475 6.1525Q2.871 6.0355 2.5965 5.9545Q2.322 5.8735 2.0385 5.78125Q1.755 5.689 1.4805 5.56525Q1.206 5.4415 0.99225 5.24125Q0.7785 5.041 0.648 4.74625Q0.5175 4.4515 0.5175 4.0105Q0.5175 3.6595 0.65475 3.331Q0.792 3.0025 1.05525 2.74825Q1.3185 2.494 1.7055 2.341Q2.0925 2.188 2.5875 2.188Q3.1455 2.188 3.61125 2.3635Q4.077 2.539 4.4145 2.863L4.158 3.367ZM17.5577 8.49025Q17.866 8.812 18.4375 8.812Q18.7615 8.812 19.0675 8.70625Q19.3735 8.6005 19.5985 8.4025L19.3105 7.93Q19.261 7.84 19.18 7.84Q19.1395 7.84 19.0967 7.86925Q19.054 7.8985 18.9955 7.93225Q18.937 7.966 18.856 7.99525Q18.775 8.0245 18.6625 8.0245Q18.46 8.0245 18.3385 7.894Q18.217 7.7635 18.217 7.516L18.217 4.9105L19.4905 4.9105L19.4905 4.213L18.217 4.213L18.217 2.7055L17.722 2.7055Q17.632 2.7055 17.578 2.75275Q17.524 2.8 17.5015 2.8765L17.29 4.204L16.5475 4.312L16.5475 4.7035Q16.5475 4.807 16.606 4.85875Q16.6645 4.9105 16.7455 4.9105L17.2495 4.9105L17.2495 7.5835Q17.2495 8.1685 17.5577 8.49025ZM12.056 8.74L12.056 4.15L11.0885 4.15L11.0885 8.74L12.056 8.74Z" />
      </g>
      <g id="Shift">
        <path d="M6.7165 4.6945Q7 4.4155 7.3375 4.24675Q7.675 4.078 8.125 4.078Q8.503 4.078 8.78875 4.204Q9.0745 4.33 9.27025 4.5595Q9.466 4.789 9.565 5.11075Q9.664 5.4325 9.664 5.8195L9.664 8.74L8.701 8.74L8.701 5.8195Q8.701 5.356 8.48725 5.0995Q8.2735 4.843 7.837 4.843Q7.513 4.843 7.23625 4.9915Q6.9595 5.14 6.7165 5.3965L6.7165 8.74L5.749 8.74L5.749 2.08L6.7165 2.08L6.7165 4.6945ZM12.1663 3.0115Q12.218 2.8945 12.218 2.764Q12.218 2.629 12.1663 2.512Q12.1145 2.395 12.0245 2.30725Q11.9345 2.2195 11.8153 2.16775Q11.696 2.116 11.561 2.116Q11.4305 2.116 11.3158 2.16775Q11.201 2.2195 11.1155 2.30725Q11.03 2.395 10.9782 2.512Q10.9265 2.629 10.9265 2.764Q10.9265 2.8945 10.9782 3.0115Q11.03 3.1285 11.1155 3.21625Q11.201 3.304 11.3158 3.35575Q11.4305 3.4075 11.561 3.4075Q11.696 3.4075 11.8153 3.35575Q11.9345 3.304 12.0245 3.21625Q12.1145 3.1285 12.1663 3.0115ZM13.836 8.74L13.836 4.9195L13.386 4.8565Q13.2735 4.834 13.2037 4.7755Q13.134 4.717 13.134 4.609L13.134 4.213L13.836 4.213L13.836 3.826Q13.836 3.4345 13.9508 3.124Q14.0655 2.8135 14.2793 2.5975Q14.493 2.3815 14.799 2.26675Q15.105 2.152 15.4875 2.152Q15.645 2.152 15.7867 2.1745Q15.9285 2.197 16.0635 2.242L16.0455 2.728Q16.0365 2.8495 15.9263 2.872Q15.816 2.8945 15.6495 2.8945Q15.447 2.8945 15.285 2.94175Q15.123 2.989 15.0083 3.1015Q14.8935 3.214 14.8328 3.3985Q14.772 3.583 14.772 3.8575L14.772 4.213L16.0275 4.213L16.0275 4.9105L14.8035 4.9105L14.8035 8.74L13.836 8.74ZM4.158 3.367Q4.1085 3.448 4.0545 3.48625Q4.0005 3.5245 3.9195 3.5245Q3.834 3.5245 3.72825 3.4525Q3.6225 3.3805 3.46725 3.29275Q3.312 3.205 3.1005 3.13075Q2.889 3.0565 2.5965 3.0565Q2.3265 3.0565 2.12175 3.124Q1.917 3.1915 1.7775 3.313Q1.638 3.4345 1.56825 3.59875Q1.4985 3.763 1.4985 3.9565Q1.4985 4.204 1.629 4.36825Q1.7595 4.5325 1.97325 4.6495Q2.187 4.7665 2.4615 4.85425Q2.736 4.942 3.02175 5.041Q3.3075 5.14 3.582 5.266Q3.8565 5.392 4.07025 5.5855Q4.284 5.779 4.4145 6.058Q4.545 6.337 4.545 6.7375Q4.545 7.1695 4.3965 7.5475Q4.248 7.9255 3.96675 8.20675Q3.6855 8.488 3.27375 8.65Q2.862 8.812 2.3355 8.812Q2.025 8.812 1.73025 8.75125Q1.4355 8.6905 1.16775 8.58025Q0.9 8.47 0.666 8.3125Q0.432 8.155 0.2475 7.9615L0.5535 7.4575Q0.594 7.3945 0.657 7.3585Q0.72 7.3225 0.7965 7.3225Q0.9 7.3225 1.026 7.41925Q1.152 7.516 1.32975 7.63075Q1.5075 7.7455 1.7595 7.84225Q2.0115 7.939 2.3625 7.939Q2.934 7.939 3.24675 7.66Q3.5595 7.381 3.5595 6.8905Q3.5595 6.616 3.429 6.44275Q3.2985 6.2695 3.08475 6.1525Q2.871 6.0355 2.5965 5.9545Q2.322 5.8735 2.0385 5.78125Q1.755 5.689 1.4805 5.56525Q1.206 5.4415 0.99225 5.24125Q0.7785 5.041 0.648 4.74625Q0.5175 4.4515 0.5175 4.0105Q0.5175 3.6595 0.65475 3.331Q0.792 3.0025 1.05525 2.74825Q1.3185 2.494 1.7055 2.341Q2.0925 2.188 2.5875 2.188Q3.1455 2.188 3.61125 2.3635Q4.077 2.539 4.4145 2.863L4.158 3.367ZM17.5577 8.49025Q17.866 8.812 18.4375 8.812Q18.7615 8.812 19.0675 8.70625Q19.3735 8.6005 19.5985 8.4025L19.3105 7.93Q19.261 7.84 19.18 7.84Q19.1395 7.84 19.0967 7.86925Q19.054 7.8985 18.9955 7.93225Q18.937 7.966 18.856 7.99525Q18.775 8.0245 18.6625 8.0245Q18.46 8.0245 18.3385 7.894Q18.217 7.7635 18.217 7.516L18.217 4.9105L19.4905 4.9105L19.4905 4.213L18.217 4.213L18.217 2.7055L17.722 2.7055Q17.632 2.7055 17.578 2.75275Q17.524 2.8 17.5015 2.8765L17.29 4.204L16.5475 4.312L16.5475 4.7035Q16.5475 4.807 16.606 4.85875Q16.6645 4.9105 16.7455 4.9105L17.2495 4.9105L17.2495 7.5835Q17.2495 8.1685 17.5577 8.49025ZM12.056 8.74L12.056 4.15L11.0885 4.15L11.0885 8.74L12.056 8.74Z" />
      </g>
    </g>
    <g id="Text-Row-1" transform="translate(3.8099976 0.5)">
      <g stroke="#FFFFFF" stroke-width="1" id="Single">
        <path d="M19.4815 2.08L19.4815 8.74L18.514 8.74L18.514 2.08L19.4815 2.08ZM6.86725 3.0115Q6.919 2.8945 6.919 2.764Q6.919 2.629 6.86725 2.512Q6.8155 2.395 6.7255 2.30725Q6.6355 2.2195 6.51625 2.16775Q6.397 2.116 6.262 2.116Q6.1315 2.116 6.01675 2.16775Q5.902 2.2195 5.8165 2.30725Q5.731 2.395 5.67925 2.512Q5.6275 2.629 5.6275 2.764Q5.6275 2.8945 5.67925 3.0115Q5.731 3.1285 5.8165 3.21625Q5.902 3.304 6.01675 3.35575Q6.1315 3.4075 6.262 3.4075Q6.397 3.4075 6.51625 3.35575Q6.6355 3.304 6.7255 3.21625Q6.8155 3.1285 6.86725 3.0115ZM4.0545 3.48625Q4.1085 3.448 4.158 3.367L4.4145 2.863Q4.077 2.539 3.61125 2.3635Q3.1455 2.188 2.5875 2.188Q2.0925 2.188 1.7055 2.341Q1.3185 2.494 1.05525 2.74825Q0.792 3.0025 0.65475 3.331Q0.5175 3.6595 0.5175 4.0105Q0.5175 4.4515 0.648 4.74625Q0.7785 5.041 0.99225 5.24125Q1.206 5.4415 1.4805 5.56525Q1.755 5.689 2.0385 5.78125Q2.322 5.8735 2.5965 5.9545Q2.871 6.0355 3.08475 6.1525Q3.2985 6.2695 3.429 6.44275Q3.5595 6.616 3.5595 6.8905Q3.5595 7.381 3.24675 7.66Q2.934 7.939 2.3625 7.939Q2.0115 7.939 1.7595 7.84225Q1.5075 7.7455 1.32975 7.63075Q1.152 7.516 1.026 7.41925Q0.9 7.3225 0.7965 7.3225Q0.72 7.3225 0.657 7.3585Q0.594 7.3945 0.5535 7.4575L0.2475 7.9615Q0.432 8.155 0.666 8.3125Q0.9 8.47 1.16775 8.58025Q1.4355 8.6905 1.73025 8.75125Q2.025 8.812 2.3355 8.812Q2.862 8.812 3.27375 8.65Q3.6855 8.488 3.96675 8.20675Q4.248 7.9255 4.3965 7.5475Q4.545 7.1695 4.545 6.7375Q4.545 6.337 4.4145 6.058Q4.284 5.779 4.07025 5.5855Q3.8565 5.392 3.582 5.266Q3.3075 5.14 3.02175 5.041Q2.736 4.942 2.4615 4.85425Q2.187 4.7665 1.97325 4.6495Q1.7595 4.5325 1.629 4.36825Q1.4985 4.204 1.4985 3.9565Q1.4985 3.763 1.56825 3.59875Q1.638 3.4345 1.7775 3.313Q1.917 3.1915 2.12175 3.124Q2.3265 3.0565 2.5965 3.0565Q2.889 3.0565 3.1005 3.13075Q3.312 3.205 3.46725 3.29275Q3.6225 3.3805 3.72825 3.4525Q3.834 3.5245 3.9195 3.5245Q4.0005 3.5245 4.0545 3.48625ZM17.481 4.6765L17.481 4.3165L16.1985 4.3165Q15.7575 4.069 15.1635 4.069Q14.7765 4.069 14.4502 4.1725Q14.124 4.276 13.8855 4.4695Q13.647 4.663 13.5142 4.9375Q13.3815 5.212 13.3815 5.554Q13.3815 5.9725 13.5795 6.28525Q13.7775 6.598 14.1195 6.787Q13.8225 6.94 13.674 7.1605Q13.5255 7.381 13.5255 7.5835Q13.5255 7.84 13.6403 7.9975Q13.755 8.155 13.944 8.245Q13.593 8.3755 13.3883 8.605Q13.1835 8.8345 13.1835 9.1585Q13.1835 9.397 13.3073 9.6175Q13.431 9.838 13.6853 10.0068Q13.9395 10.1755 14.3197 10.2745Q14.7 10.3735 15.213 10.3735Q15.7305 10.3735 16.1355 10.2407Q16.5405 10.108 16.8218 9.8875Q17.103 9.667 17.2515 9.3835Q17.4 9.1 17.4 8.803Q17.4 8.479 17.2695 8.2765Q17.139 8.074 16.9253 7.95475Q16.7115 7.8355 16.437 7.78375Q16.1625 7.732 15.879 7.7095Q15.5955 7.687 15.321 7.678Q15.0465 7.669 14.8328 7.6375Q14.619 7.606 14.4885 7.534Q14.358 7.462 14.358 7.3135Q14.358 7.2235 14.421 7.138Q14.484 7.0525 14.6145 6.976Q14.745 7.003 14.8822 7.01875Q15.0195 7.0345 15.1635 7.0345Q15.5415 7.0345 15.8655 6.931Q16.1895 6.8275 16.4235 6.634Q16.6575 6.4405 16.7903 6.166Q16.923 5.8915 16.923 5.554Q16.923 5.2345 16.806 4.9735L17.265 4.897Q17.481 4.8565 17.481 4.6765ZM9.131 4.7575Q9.2795 4.6045 9.43925 4.48075Q9.599 4.357 9.779 4.267Q9.959 4.177 10.1615 4.1275Q10.364 4.078 10.6025 4.078Q10.9805 4.078 11.2663 4.204Q11.552 4.33 11.7478 4.5595Q11.9435 4.789 12.0425 5.11075Q12.1415 5.4325 12.1415 5.8195L12.1415 8.74L11.1785 8.74L11.1785 5.8195Q11.1785 5.356 10.9648 5.0995Q10.751 4.843 10.3145 4.843Q9.9905 4.843 9.71375 4.9915Q9.437 5.14 9.194 5.3965L9.194 8.74L8.2265 8.74L8.2265 4.15L8.8115 4.15Q9.0095 4.15 9.0635 4.3345L9.131 4.7575ZM21.752 7.19875Q21.6485 6.913 21.6305 6.5215L24.578 6.5215Q24.7085 6.5215 24.758 6.445Q24.8075 6.3685 24.8075 6.1435Q24.8075 5.653 24.6613 5.26825Q24.515 4.8835 24.254 4.618Q23.993 4.3525 23.633 4.21525Q23.273 4.078 22.85 4.078Q22.3415 4.078 21.9388 4.25575Q21.536 4.4335 21.2548 4.7395Q20.9735 5.0455 20.8228 5.4595Q20.672 5.8735 20.672 6.3505Q20.672 6.949 20.8408 7.408Q21.0095 7.867 21.3088 8.1775Q21.608 8.488 22.0153 8.64775Q22.4225 8.8075 22.8995 8.8075Q23.1425 8.8075 23.399 8.76925Q23.6555 8.731 23.8985 8.64325Q24.1415 8.5555 24.3575 8.416Q24.5735 8.2765 24.7445 8.074L24.47 7.7185Q24.407 7.6285 24.29 7.6285Q24.2 7.6285 24.092 7.69375Q23.984 7.759 23.831 7.83775Q23.678 7.9165 23.471 7.98175Q23.264 8.047 22.9805 8.047Q22.6835 8.047 22.4428 7.95475Q22.202 7.8625 22.0288 7.6735Q21.8555 7.4845 21.752 7.19875ZM6.757 8.74L6.757 4.15L5.7895 4.15L5.7895 8.74L6.757 8.74ZM15.8385 6.175Q15.6135 6.4045 15.1635 6.4045Q14.943 6.4045 14.7743 6.34375Q14.6055 6.283 14.493 6.17275Q14.3805 6.0625 14.322 5.9095Q14.2635 5.7565 14.2635 5.5765Q14.2635 5.1985 14.4908 4.978Q14.718 4.7575 15.1635 4.7575Q15.6135 4.7575 15.8385 4.978Q16.0635 5.1985 16.0635 5.5765Q16.0635 5.9455 15.8385 6.175ZM23.8693 5.47525Q23.939 5.6845 23.939 5.9275L21.6575 5.9275Q21.7385 5.383 22.04 5.0815Q22.3415 4.78 22.868 4.78Q23.129 4.78 23.3293 4.86775Q23.5295 4.9555 23.6645 5.11075Q23.7995 5.266 23.8693 5.47525ZM16.4212 8.71975Q16.509 8.812 16.509 8.965Q16.509 9.2755 16.1895 9.4735Q15.87 9.6715 15.231 9.6715Q14.9115 9.6715 14.6842 9.622Q14.457 9.5725 14.3108 9.487Q14.1645 9.4015 14.0947 9.2845Q14.025 9.1675 14.025 9.0325Q14.025 8.8255 14.1622 8.668Q14.2995 8.5105 14.5155 8.398Q14.7315 8.4295 14.9633 8.44075Q15.195 8.452 15.4177 8.46325Q15.6405 8.4745 15.8385 8.49925Q16.0365 8.524 16.185 8.57575Q16.3335 8.6275 16.4212 8.71975Z" />
      </g>
      <g id="Single">
        <path d="M19.4815 2.08L19.4815 8.74L18.514 8.74L18.514 2.08L19.4815 2.08ZM6.86725 3.0115Q6.919 2.8945 6.919 2.764Q6.919 2.629 6.86725 2.512Q6.8155 2.395 6.7255 2.30725Q6.6355 2.2195 6.51625 2.16775Q6.397 2.116 6.262 2.116Q6.1315 2.116 6.01675 2.16775Q5.902 2.2195 5.8165 2.30725Q5.731 2.395 5.67925 2.512Q5.6275 2.629 5.6275 2.764Q5.6275 2.8945 5.67925 3.0115Q5.731 3.1285 5.8165 3.21625Q5.902 3.304 6.01675 3.35575Q6.1315 3.4075 6.262 3.4075Q6.397 3.4075 6.51625 3.35575Q6.6355 3.304 6.7255 3.21625Q6.8155 3.1285 6.86725 3.0115ZM4.0545 3.48625Q4.1085 3.448 4.158 3.367L4.4145 2.863Q4.077 2.539 3.61125 2.3635Q3.1455 2.188 2.5875 2.188Q2.0925 2.188 1.7055 2.341Q1.3185 2.494 1.05525 2.74825Q0.792 3.0025 0.65475 3.331Q0.5175 3.6595 0.5175 4.0105Q0.5175 4.4515 0.648 4.74625Q0.7785 5.041 0.99225 5.24125Q1.206 5.4415 1.4805 5.56525Q1.755 5.689 2.0385 5.78125Q2.322 5.8735 2.5965 5.9545Q2.871 6.0355 3.08475 6.1525Q3.2985 6.2695 3.429 6.44275Q3.5595 6.616 3.5595 6.8905Q3.5595 7.381 3.24675 7.66Q2.934 7.939 2.3625 7.939Q2.0115 7.939 1.7595 7.84225Q1.5075 7.7455 1.32975 7.63075Q1.152 7.516 1.026 7.41925Q0.9 7.3225 0.7965 7.3225Q0.72 7.3225 0.657 7.3585Q0.594 7.3945 0.5535 7.4575L0.2475 7.9615Q0.432 8.155 0.666 8.3125Q0.9 8.47 1.16775 8.58025Q1.4355 8.6905 1.73025 8.75125Q2.025 8.812 2.3355 8.812Q2.862 8.812 3.27375 8.65Q3.6855 8.488 3.96675 8.20675Q4.248 7.9255 4.3965 7.5475Q4.545 7.1695 4.545 6.7375Q4.545 6.337 4.4145 6.058Q4.284 5.779 4.07025 5.5855Q3.8565 5.392 3.582 5.266Q3.3075 5.14 3.02175 5.041Q2.736 4.942 2.4615 4.85425Q2.187 4.7665 1.97325 4.6495Q1.7595 4.5325 1.629 4.36825Q1.4985 4.204 1.4985 3.9565Q1.4985 3.763 1.56825 3.59875Q1.638 3.4345 1.7775 3.313Q1.917 3.1915 2.12175 3.124Q2.3265 3.0565 2.5965 3.0565Q2.889 3.0565 3.1005 3.13075Q3.312 3.205 3.46725 3.29275Q3.6225 3.3805 3.72825 3.4525Q3.834 3.5245 3.9195 3.5245Q4.0005 3.5245 4.0545 3.48625ZM17.481 4.6765L17.481 4.3165L16.1985 4.3165Q15.7575 4.069 15.1635 4.069Q14.7765 4.069 14.4502 4.1725Q14.124 4.276 13.8855 4.4695Q13.647 4.663 13.5142 4.9375Q13.3815 5.212 13.3815 5.554Q13.3815 5.9725 13.5795 6.28525Q13.7775 6.598 14.1195 6.787Q13.8225 6.94 13.674 7.1605Q13.5255 7.381 13.5255 7.5835Q13.5255 7.84 13.6403 7.9975Q13.755 8.155 13.944 8.245Q13.593 8.3755 13.3883 8.605Q13.1835 8.8345 13.1835 9.1585Q13.1835 9.397 13.3073 9.6175Q13.431 9.838 13.6853 10.0068Q13.9395 10.1755 14.3197 10.2745Q14.7 10.3735 15.213 10.3735Q15.7305 10.3735 16.1355 10.2407Q16.5405 10.108 16.8218 9.8875Q17.103 9.667 17.2515 9.3835Q17.4 9.1 17.4 8.803Q17.4 8.479 17.2695 8.2765Q17.139 8.074 16.9253 7.95475Q16.7115 7.8355 16.437 7.78375Q16.1625 7.732 15.879 7.7095Q15.5955 7.687 15.321 7.678Q15.0465 7.669 14.8328 7.6375Q14.619 7.606 14.4885 7.534Q14.358 7.462 14.358 7.3135Q14.358 7.2235 14.421 7.138Q14.484 7.0525 14.6145 6.976Q14.745 7.003 14.8822 7.01875Q15.0195 7.0345 15.1635 7.0345Q15.5415 7.0345 15.8655 6.931Q16.1895 6.8275 16.4235 6.634Q16.6575 6.4405 16.7903 6.166Q16.923 5.8915 16.923 5.554Q16.923 5.2345 16.806 4.9735L17.265 4.897Q17.481 4.8565 17.481 4.6765ZM9.131 4.7575Q9.2795 4.6045 9.43925 4.48075Q9.599 4.357 9.779 4.267Q9.959 4.177 10.1615 4.1275Q10.364 4.078 10.6025 4.078Q10.9805 4.078 11.2663 4.204Q11.552 4.33 11.7478 4.5595Q11.9435 4.789 12.0425 5.11075Q12.1415 5.4325 12.1415 5.8195L12.1415 8.74L11.1785 8.74L11.1785 5.8195Q11.1785 5.356 10.9648 5.0995Q10.751 4.843 10.3145 4.843Q9.9905 4.843 9.71375 4.9915Q9.437 5.14 9.194 5.3965L9.194 8.74L8.2265 8.74L8.2265 4.15L8.8115 4.15Q9.0095 4.15 9.0635 4.3345L9.131 4.7575ZM21.752 7.19875Q21.6485 6.913 21.6305 6.5215L24.578 6.5215Q24.7085 6.5215 24.758 6.445Q24.8075 6.3685 24.8075 6.1435Q24.8075 5.653 24.6613 5.26825Q24.515 4.8835 24.254 4.618Q23.993 4.3525 23.633 4.21525Q23.273 4.078 22.85 4.078Q22.3415 4.078 21.9388 4.25575Q21.536 4.4335 21.2548 4.7395Q20.9735 5.0455 20.8228 5.4595Q20.672 5.8735 20.672 6.3505Q20.672 6.949 20.8408 7.408Q21.0095 7.867 21.3088 8.1775Q21.608 8.488 22.0153 8.64775Q22.4225 8.8075 22.8995 8.8075Q23.1425 8.8075 23.399 8.76925Q23.6555 8.731 23.8985 8.64325Q24.1415 8.5555 24.3575 8.416Q24.5735 8.2765 24.7445 8.074L24.47 7.7185Q24.407 7.6285 24.29 7.6285Q24.2 7.6285 24.092 7.69375Q23.984 7.759 23.831 7.83775Q23.678 7.9165 23.471 7.98175Q23.264 8.047 22.9805 8.047Q22.6835 8.047 22.4428 7.95475Q22.202 7.8625 22.0288 7.6735Q21.8555 7.4845 21.752 7.19875ZM6.757 8.74L6.757 4.15L5.7895 4.15L5.7895 8.74L6.757 8.74ZM15.8385 6.175Q15.6135 6.4045 15.1635 6.4045Q14.943 6.4045 14.7743 6.34375Q14.6055 6.283 14.493 6.17275Q14.3805 6.0625 14.322 5.9095Q14.2635 5.7565 14.2635 5.5765Q14.2635 5.1985 14.4908 4.978Q14.718 4.7575 15.1635 4.7575Q15.6135 4.7575 15.8385 4.978Q16.0635 5.1985 16.0635 5.5765Q16.0635 5.9455 15.8385 6.175ZM23.8693 5.47525Q23.939 5.6845 23.939 5.9275L21.6575 5.9275Q21.7385 5.383 22.04 5.0815Q22.3415 4.78 22.868 4.78Q23.129 4.78 23.3293 4.86775Q23.5295 4.9555 23.6645 5.11075Q23.7995 5.266 23.8693 5.47525ZM16.4212 8.71975Q16.509 8.812 16.509 8.965Q16.509 9.2755 16.1895 9.4735Q15.87 9.6715 15.231 9.6715Q14.9115 9.6715 14.6842 9.622Q14.457 9.5725 14.3108 9.487Q14.1645 9.4015 14.0947 9.2845Q14.025 9.1675 14.025 9.0325Q14.025 8.8255 14.1622 8.668Q14.2995 8.5105 14.5155 8.398Q14.7315 8.4295 14.9633 8.44075Q15.195 8.452 15.4177 8.46325Q15.6405 8.4745 15.8385 8.49925Q16.0365 8.524 16.185 8.57575Q16.3335 8.6275 16.4212 8.71975Z" />
      </g>
    </g>
  </g>
</svg>