<?xml version="1.0" encoding="utf-8"?>
<svg width="134px" height="416px" version="1.1" viewBox="0 0 134 416" xmlns="http://www.w3.org/2000/svg">
  <title>bmp00112</title>
  <desc>Created with Sketch.</desc>
  <g fill="none" fill-rule="evenodd">
    <g style="" transform="matrix(1, 0, 0, 1, 0, -1)">
      <rect x="33" width="16" height="7" fill="#FFBB45" y="149"/>
      <rect x="16" width="16" height="7" fill="#FFBB45" y="97"/>
      <rect x="67" width="16" height="7" fill="#FFBB45" y="253"/>
      <rect x="84" width="16" height="7" fill="#FFBB45" y="305"/>
      <rect x="118" width="16" height="7" fill="#FFBB45" y="409"/>
      <rect x="101" width="16" height="7" fill="#FFBB45" y="357"/>
      <rect x="50" width="16" height="7" fill="#FFBB45" y="201"/>
      <rect width="15" height="7" y="45" fill="#FFBB45"/>
    </g>
    <path d="M 5.283 46.895 C 5.25 46.948 5.217 46.987 5.183 47.012 C 5.149 47.036 5.106 47.049 5.052 47.049 C 5.001 47.049 4.945 47.03 4.886 46.994 C 4.826 46.958 4.757 46.919 4.678 46.877 C 4.598 46.835 4.507 46.796 4.405 46.76 C 4.302 46.724 4.182 46.706 4.044 46.706 C 3.801 46.706 3.619 46.76 3.498 46.868 C 3.377 46.977 3.316 47.119 3.316 47.294 C 3.316 47.406 3.349 47.498 3.416 47.572 C 3.482 47.645 3.57 47.709 3.678 47.763 C 3.787 47.816 3.91 47.864 4.047 47.906 C 4.185 47.948 4.326 47.994 4.471 48.044 C 4.616 48.094 4.757 48.153 4.895 48.221 C 5.032 48.289 5.155 48.374 5.264 48.477 C 5.372 48.579 5.46 48.705 5.526 48.853 C 5.593 49.001 5.626 49.181 5.626 49.394 C 5.626 49.625 5.586 49.841 5.505 50.043 C 5.425 50.245 5.309 50.421 5.157 50.571 C 5.005 50.722 4.818 50.84 4.595 50.927 C 4.372 51.013 4.12 51.056 3.838 51.056 C 3.677 51.056 3.516 51.04 3.356 51.007 C 3.196 50.974 3.042 50.929 2.894 50.871 C 2.746 50.812 2.607 50.742 2.476 50.661 C 2.345 50.579 2.231 50.488 2.133 50.388 L 2.441 49.891 C 2.467 49.853 2.501 49.822 2.543 49.798 C 2.585 49.773 2.629 49.761 2.676 49.761 C 2.739 49.761 2.805 49.784 2.875 49.831 C 2.945 49.878 3.026 49.929 3.117 49.985 C 3.208 50.041 3.313 50.092 3.433 50.139 C 3.553 50.186 3.698 50.209 3.866 50.209 C 4.111 50.209 4.3 50.153 4.434 50.041 C 4.568 49.929 4.636 49.762 4.636 49.541 C 4.636 49.412 4.602 49.308 4.536 49.229 C 4.469 49.15 4.382 49.083 4.275 49.03 C 4.168 48.976 4.045 48.93 3.908 48.891 C 3.77 48.853 3.629 48.81 3.484 48.764 C 3.339 48.717 3.198 48.661 3.061 48.596 C 2.923 48.53 2.8 48.444 2.693 48.337 C 2.586 48.229 2.499 48.096 2.432 47.938 C 2.366 47.779 2.333 47.582 2.333 47.346 C 2.333 47.157 2.37 46.974 2.445 46.797 C 2.519 46.619 2.629 46.462 2.774 46.324 C 2.918 46.186 3.096 46.076 3.307 45.992 C 3.518 45.908 3.761 45.866 4.034 45.866 C 4.339 45.866 4.622 45.913 4.882 46.007 C 5.142 46.102 5.362 46.233 5.542 46.401 L 5.283 46.895 Z M 11.904 50.29 L 11.904 51 L 9.055 51 L 9.055 50.29 L 10.063 50.29 L 10.063 47.511 C 10.063 47.45 10.064 47.388 10.067 47.325 C 10.069 47.262 10.072 47.198 10.077 47.133 L 9.412 47.686 C 9.365 47.721 9.32 47.743 9.276 47.752 C 9.231 47.761 9.189 47.762 9.15 47.754 C 9.11 47.746 9.075 47.732 9.045 47.712 C 9.014 47.692 8.991 47.672 8.974 47.651 L 8.67 47.241 L 10.231 45.918 L 11.025 45.918 L 11.025 50.29 L 11.904 50.29 Z" fill="#1E1E1E" fill-rule="nonzero"/>
    <path d="M 22.283 98.895 C 22.25 98.948 22.217 98.987 22.183 99.012 C 22.149 99.036 22.106 99.049 22.052 99.049 C 22.001 99.049 21.945 99.03 21.886 98.994 C 21.826 98.958 21.757 98.919 21.678 98.877 C 21.598 98.835 21.507 98.796 21.405 98.76 C 21.302 98.724 21.182 98.706 21.044 98.706 C 20.801 98.706 20.619 98.76 20.498 98.868 C 20.377 98.977 20.316 99.119 20.316 99.294 C 20.316 99.406 20.349 99.498 20.416 99.572 C 20.482 99.645 20.57 99.709 20.678 99.763 C 20.787 99.816 20.91 99.864 21.048 99.906 C 21.185 99.948 21.326 99.994 21.471 100.044 C 21.616 100.094 21.757 100.153 21.895 100.221 C 22.032 100.289 22.155 100.374 22.264 100.477 C 22.372 100.579 22.46 100.705 22.526 100.853 C 22.593 101.001 22.626 101.181 22.626 101.394 C 22.626 101.625 22.586 101.841 22.505 102.043 C 22.425 102.245 22.309 102.421 22.157 102.571 C 22.005 102.722 21.818 102.84 21.595 102.927 C 21.372 103.013 21.12 103.056 20.838 103.056 C 20.677 103.056 20.516 103.04 20.356 103.007 C 20.196 102.974 20.042 102.929 19.894 102.871 C 19.746 102.812 19.607 102.742 19.476 102.661 C 19.345 102.579 19.231 102.488 19.133 102.388 L 19.441 101.891 C 19.467 101.853 19.501 101.822 19.543 101.798 C 19.585 101.773 19.629 101.761 19.676 101.761 C 19.739 101.761 19.805 101.784 19.875 101.831 C 19.945 101.878 20.026 101.929 20.117 101.985 C 20.208 102.041 20.313 102.092 20.433 102.139 C 20.553 102.186 20.698 102.209 20.866 102.209 C 21.111 102.209 21.3 102.153 21.434 102.041 C 21.568 101.929 21.636 101.762 21.636 101.541 C 21.636 101.412 21.602 101.308 21.536 101.229 C 21.469 101.15 21.382 101.083 21.275 101.03 C 21.168 100.976 21.045 100.93 20.908 100.891 C 20.77 100.853 20.629 100.81 20.484 100.764 C 20.339 100.717 20.198 100.661 20.061 100.596 C 19.923 100.53 19.8 100.444 19.693 100.337 C 19.586 100.229 19.499 100.096 19.432 99.938 C 19.366 99.779 19.333 99.582 19.333 99.346 C 19.333 99.157 19.37 98.974 19.444 98.797 C 19.519 98.619 19.629 98.462 19.774 98.324 C 19.918 98.186 20.096 98.076 20.307 97.992 C 20.518 97.908 20.761 97.866 21.034 97.866 C 21.339 97.866 21.622 97.913 21.882 98.007 C 22.142 98.102 22.362 98.233 22.542 98.401 L 22.283 98.895 Z M 28.684 102.114 C 28.789 102.114 28.871 102.144 28.93 102.202 C 28.99 102.26 29.02 102.337 29.02 102.433 L 29.02 103 L 25.499 103 L 25.499 102.685 C 25.499 102.624 25.511 102.558 25.537 102.487 C 25.563 102.416 25.606 102.351 25.667 102.293 L 27.172 100.785 C 27.3 100.656 27.413 100.533 27.511 100.415 C 27.609 100.297 27.691 100.182 27.756 100.069 C 27.821 99.956 27.87 99.841 27.903 99.724 C 27.936 99.607 27.952 99.485 27.952 99.357 C 27.952 99.13 27.894 98.958 27.777 98.84 C 27.66 98.722 27.496 98.664 27.283 98.664 C 27.19 98.664 27.104 98.677 27.026 98.704 C 26.948 98.731 26.878 98.767 26.816 98.814 C 26.754 98.861 26.701 98.916 26.657 98.979 C 26.613 99.042 26.58 99.11 26.559 99.185 C 26.517 99.302 26.46 99.379 26.389 99.418 C 26.318 99.456 26.217 99.465 26.086 99.444 L 25.575 99.353 C 25.613 99.106 25.683 98.889 25.786 98.702 C 25.888 98.515 26.017 98.36 26.171 98.237 C 26.325 98.113 26.501 98.02 26.699 97.958 C 26.897 97.896 27.111 97.866 27.34 97.866 C 27.58 97.866 27.799 97.901 27.996 97.972 C 28.193 98.043 28.362 98.143 28.502 98.27 C 28.642 98.397 28.75 98.55 28.827 98.73 C 28.904 98.91 28.943 99.108 28.943 99.325 C 28.943 99.512 28.916 99.684 28.862 99.843 C 28.808 100.002 28.735 100.153 28.643 100.296 C 28.551 100.44 28.444 100.579 28.323 100.715 C 28.202 100.85 28.073 100.986 27.938 101.124 L 26.86 102.227 C 26.979 102.192 27.097 102.164 27.214 102.144 C 27.33 102.124 27.44 102.115 27.543 102.115 L 28.684 102.115 Z" fill="#1E1E1E" fill-rule="nonzero"/>
    <path d="M 39.283 150.895 C 39.25 150.948 39.217 150.987 39.183 151.012 C 39.149 151.036 39.106 151.049 39.052 151.049 C 39.001 151.049 38.945 151.03 38.886 150.994 C 38.826 150.958 38.757 150.919 38.678 150.877 C 38.598 150.835 38.507 150.796 38.405 150.76 C 38.302 150.724 38.182 150.706 38.044 150.706 C 37.801 150.706 37.619 150.76 37.498 150.868 C 37.377 150.977 37.316 151.119 37.316 151.294 C 37.316 151.406 37.349 151.498 37.416 151.572 C 37.482 151.645 37.57 151.709 37.678 151.763 C 37.787 151.816 37.91 151.864 38.048 151.906 C 38.185 151.948 38.326 151.994 38.471 152.044 C 38.616 152.094 38.757 152.153 38.894 152.221 C 39.032 152.289 39.155 152.374 39.264 152.477 C 39.372 152.579 39.46 152.705 39.526 152.853 C 39.593 153.001 39.626 153.181 39.626 153.394 C 39.626 153.625 39.586 153.841 39.505 154.043 C 39.425 154.245 39.309 154.421 39.157 154.571 C 39.005 154.722 38.818 154.84 38.595 154.927 C 38.372 155.013 38.12 155.056 37.837 155.056 C 37.676 155.056 37.516 155.04 37.356 155.007 C 37.196 154.974 37.042 154.929 36.894 154.871 C 36.746 154.812 36.607 154.742 36.476 154.661 C 36.345 154.579 36.231 154.488 36.133 154.388 L 36.441 153.891 C 36.467 153.853 36.5 153.822 36.542 153.798 C 36.584 153.773 36.629 153.761 36.675 153.761 C 36.738 153.761 36.805 153.784 36.875 153.831 C 36.945 153.878 37.025 153.929 37.116 153.985 C 37.207 154.041 37.313 154.092 37.433 154.139 C 37.553 154.186 37.697 154.209 37.865 154.209 C 38.11 154.209 38.3 154.153 38.434 154.041 C 38.568 153.929 38.635 153.762 38.635 153.541 C 38.635 153.412 38.602 153.308 38.536 153.229 C 38.469 153.15 38.382 153.083 38.275 153.03 C 38.168 152.976 38.045 152.93 37.907 152.891 C 37.77 152.853 37.629 152.81 37.484 152.764 C 37.339 152.717 37.198 152.661 37.061 152.596 C 36.923 152.53 36.8 152.444 36.693 152.337 C 36.586 152.229 36.499 152.096 36.432 151.938 C 36.366 151.779 36.332 151.582 36.332 151.346 C 36.332 151.157 36.37 150.974 36.445 150.797 C 36.519 150.619 36.629 150.462 36.774 150.324 C 36.918 150.186 37.096 150.076 37.307 149.992 C 37.518 149.908 37.76 149.866 38.034 149.866 C 38.339 149.866 38.622 149.913 38.882 150.007 C 39.142 150.102 39.362 150.233 39.542 150.401 L 39.283 150.895 Z M 42.604 151.353 C 42.641 151.106 42.711 150.889 42.814 150.702 C 42.916 150.515 43.045 150.36 43.199 150.237 C 43.353 150.113 43.528 150.02 43.725 149.958 C 43.922 149.896 44.135 149.866 44.364 149.866 C 44.607 149.866 44.824 149.9 45.017 149.969 C 45.209 150.038 45.372 150.132 45.505 150.251 C 45.638 150.37 45.74 150.508 45.811 150.667 C 45.882 150.826 45.918 150.996 45.918 151.178 C 45.918 151.339 45.901 151.481 45.867 151.603 C 45.833 151.726 45.783 151.833 45.717 151.924 C 45.65 152.015 45.569 152.092 45.472 152.155 C 45.375 152.218 45.264 152.27 45.138 152.312 C 45.721 152.503 46.013 152.892 46.013 153.478 C 46.013 153.737 45.965 153.965 45.869 154.162 C 45.773 154.359 45.645 154.524 45.484 154.657 C 45.323 154.79 45.136 154.89 44.922 154.956 C 44.709 155.023 44.485 155.056 44.252 155.056 C 44.005 155.056 43.787 155.028 43.598 154.972 C 43.409 154.916 43.242 154.832 43.099 154.72 C 42.955 154.608 42.832 154.467 42.729 154.298 C 42.627 154.129 42.537 153.931 42.46 153.705 L 42.887 153.53 C 42.999 153.483 43.103 153.471 43.2 153.492 C 43.297 153.513 43.366 153.564 43.408 153.646 C 43.455 153.734 43.505 153.816 43.557 153.891 C 43.61 153.965 43.669 154.03 43.734 154.085 C 43.799 154.14 43.873 154.182 43.956 154.213 C 44.039 154.243 44.134 154.258 44.241 154.258 C 44.377 154.258 44.495 154.236 44.595 154.192 C 44.695 154.147 44.779 154.089 44.847 154.018 C 44.915 153.947 44.965 153.867 44.999 153.777 C 45.033 153.687 45.05 153.598 45.05 153.509 C 45.05 153.392 45.039 153.287 45.018 153.192 C 44.997 153.098 44.949 153.017 44.873 152.951 C 44.797 152.884 44.685 152.833 44.537 152.797 C 44.389 152.761 44.188 152.743 43.933 152.743 L 43.933 152.064 C 44.146 152.064 44.32 152.046 44.455 152.011 C 44.59 151.976 44.697 151.927 44.774 151.864 C 44.851 151.801 44.904 151.725 44.933 151.637 C 44.962 151.548 44.977 151.451 44.977 151.346 C 44.977 151.124 44.919 150.955 44.803 150.839 C 44.688 150.722 44.524 150.664 44.311 150.664 C 44.218 150.664 44.132 150.677 44.054 150.704 C 43.976 150.731 43.906 150.767 43.844 150.814 C 43.782 150.861 43.729 150.916 43.685 150.979 C 43.641 151.041 43.608 151.11 43.587 151.185 C 43.543 151.302 43.485 151.379 43.415 151.418 C 43.345 151.456 43.244 151.465 43.111 151.444 L 42.604 151.353 Z" fill="#1E1E1E" fill-rule="nonzero"/>
    <path d="M 57.086 204.459 C 57.086 204.83 57.024 205.171 56.899 205.483 C 56.774 205.794 56.598 206.062 56.37 206.286 C 56.143 206.51 55.869 206.685 55.55 206.811 C 55.23 206.937 54.875 207 54.486 207 L 52.533 207 L 52.533 201.922 L 54.486 201.922 C 54.875 201.922 55.23 201.985 55.55 202.111 C 55.869 202.237 56.143 202.412 56.37 202.637 C 56.598 202.862 56.774 203.13 56.899 203.441 C 57.024 203.751 57.086 204.09 57.086 204.459 Z M 56.008 204.459 C 56.008 204.193 55.973 203.954 55.903 203.742 C 55.833 203.529 55.733 203.35 55.602 203.203 C 55.471 203.056 55.312 202.942 55.124 202.863 C 54.936 202.784 54.723 202.744 54.485 202.744 L 53.589 202.744 L 53.589 206.178 L 54.485 206.178 C 54.723 206.178 54.936 206.138 55.124 206.06 C 55.312 205.982 55.471 205.869 55.602 205.721 C 55.733 205.573 55.833 205.392 55.903 205.18 C 55.973 204.968 56.008 204.727 56.008 204.459 Z M 63.375 206.29 L 63.375 207 L 60.525 207 L 60.525 206.29 L 61.534 206.29 L 61.534 203.511 C 61.534 203.45 61.535 203.388 61.537 203.325 C 61.539 203.262 61.543 203.198 61.548 203.133 L 60.883 203.686 C 60.836 203.721 60.79 203.743 60.746 203.752 C 60.702 203.761 60.66 203.762 60.62 203.754 C 60.58 203.746 60.545 203.732 60.515 203.712 C 60.485 203.692 60.461 203.672 60.445 203.651 L 60.141 203.241 L 61.702 201.918 L 62.496 201.918 L 62.496 206.29 L 63.375 206.29 Z" fill="#1E1E1E" fill-rule="nonzero"/>
    <path d="M 74.086 256.459 C 74.086 256.83 74.024 257.171 73.899 257.483 C 73.774 257.794 73.598 258.062 73.37 258.286 C 73.143 258.51 72.869 258.685 72.55 258.811 C 72.23 258.937 71.875 259 71.486 259 L 69.533 259 L 69.533 253.922 L 71.486 253.922 C 71.875 253.922 72.23 253.985 72.55 254.111 C 72.869 254.237 73.143 254.412 73.37 254.637 C 73.598 254.862 73.774 255.13 73.899 255.441 C 74.024 255.751 74.086 256.09 74.086 256.459 Z M 73.008 256.459 C 73.008 256.193 72.973 255.954 72.903 255.742 C 72.833 255.529 72.733 255.35 72.602 255.203 C 72.471 255.056 72.312 254.942 72.124 254.863 C 71.936 254.784 71.723 254.744 71.485 254.744 L 70.589 254.744 L 70.589 258.178 L 71.485 258.178 C 71.723 258.178 71.936 258.138 72.124 258.06 C 72.312 257.982 72.471 257.869 72.602 257.721 C 72.733 257.573 72.833 257.392 72.903 257.18 C 72.973 256.968 73.008 256.727 73.008 256.459 Z M 80.154 258.115 C 80.259 258.115 80.341 258.144 80.401 258.202 C 80.46 258.26 80.49 258.337 80.49 258.433 L 80.49 259 L 76.969 259 L 76.969 258.685 C 76.969 258.624 76.982 258.558 77.008 258.487 C 77.033 258.416 77.076 258.351 77.137 258.293 L 78.642 256.784 C 78.77 256.656 78.884 256.533 78.982 256.415 C 79.08 256.297 79.161 256.182 79.227 256.069 C 79.292 255.956 79.341 255.841 79.374 255.724 C 79.406 255.607 79.423 255.485 79.423 255.357 C 79.423 255.13 79.364 254.958 79.248 254.84 C 79.131 254.722 78.966 254.664 78.754 254.664 C 78.661 254.664 78.575 254.677 78.497 254.704 C 78.419 254.731 78.349 254.767 78.287 254.814 C 78.225 254.861 78.172 254.916 78.128 254.979 C 78.083 255.042 78.051 255.11 78.03 255.185 C 77.988 255.302 77.931 255.379 77.86 255.418 C 77.789 255.456 77.688 255.465 77.557 255.444 L 77.046 255.353 C 77.083 255.106 77.153 254.889 77.256 254.702 C 77.359 254.515 77.487 254.36 77.641 254.237 C 77.795 254.113 77.971 254.02 78.17 253.958 C 78.368 253.896 78.581 253.866 78.81 253.866 C 79.05 253.866 79.269 253.901 79.466 253.972 C 79.663 254.043 79.832 254.143 79.972 254.27 C 80.112 254.397 80.221 254.55 80.298 254.73 C 80.375 254.91 80.413 255.108 80.413 255.325 C 80.413 255.512 80.386 255.684 80.333 255.843 C 80.279 256.002 80.206 256.153 80.114 256.296 C 80.022 256.44 79.915 256.579 79.794 256.715 C 79.672 256.85 79.544 256.986 79.409 257.124 L 78.331 258.227 C 78.45 258.192 78.567 258.164 78.684 258.144 C 78.801 258.124 78.91 258.115 79.013 258.115 L 80.154 258.115 Z" fill="#1E1E1E" fill-rule="nonzero"/>
    <path d="M 89.546 310.146 L 89.546 311 L 86.533 311 L 86.533 305.922 L 87.583 305.922 L 87.583 310.146 L 89.546 310.146 Z M 90.592 308.484 L 92.44 308.484 L 92.44 309.275 L 90.592 309.275 L 90.592 308.484 Z M 95.946 308.326 C 96.116 308.326 96.263 308.304 96.387 308.261 C 96.51 308.218 96.612 308.159 96.691 308.083 C 96.77 308.007 96.829 307.918 96.866 307.815 C 96.903 307.712 96.922 307.6 96.922 307.479 C 96.922 307.239 96.842 307.052 96.682 306.919 C 96.522 306.786 96.279 306.72 95.953 306.72 L 95.407 306.72 L 95.407 308.326 L 95.946 308.326 Z M 98.406 311 L 97.458 311 C 97.28 311 97.152 310.932 97.073 310.797 L 96.107 309.24 C 96.067 309.179 96.023 309.135 95.975 309.107 C 95.927 309.079 95.857 309.065 95.764 309.065 L 95.407 309.065 L 95.407 311 L 94.357 311 L 94.357 305.922 L 95.953 305.922 C 96.307 305.922 96.611 305.958 96.863 306.032 C 97.115 306.105 97.321 306.207 97.482 306.338 C 97.643 306.469 97.761 306.624 97.836 306.805 C 97.91 306.986 97.948 307.185 97.948 307.402 C 97.948 307.57 97.924 307.729 97.876 307.88 C 97.828 308.03 97.759 308.167 97.668 308.291 C 97.577 308.415 97.465 308.524 97.332 308.62 C 97.199 308.716 97.047 308.793 96.877 308.851 C 96.944 308.888 97.007 308.933 97.066 308.986 C 97.124 309.038 97.176 309.101 97.223 309.173 L 98.406 311 Z" fill="#1E1E1E" fill-rule="nonzero"/>
    <path d="M 103.12 360.326 C 103.29 360.326 103.437 360.304 103.561 360.261 C 103.685 360.218 103.786 360.159 103.866 360.083 C 103.945 360.007 104.003 359.918 104.041 359.815 C 104.078 359.712 104.097 359.6 104.097 359.479 C 104.097 359.239 104.017 359.052 103.857 358.919 C 103.697 358.786 103.454 358.72 103.127 358.72 L 102.581 358.72 L 102.581 360.326 L 103.12 360.326 Z M 105.581 363 L 104.632 363 C 104.455 363 104.326 362.932 104.247 362.797 L 103.281 361.24 C 103.241 361.179 103.198 361.135 103.15 361.107 C 103.102 361.079 103.031 361.065 102.938 361.065 L 102.581 361.065 L 102.581 363 L 101.531 363 L 101.531 357.922 L 103.127 357.922 C 103.482 357.922 103.785 357.958 104.037 358.032 C 104.289 358.105 104.496 358.207 104.657 358.338 C 104.818 358.469 104.935 358.624 105.01 358.805 C 105.085 358.986 105.122 359.185 105.122 359.402 C 105.122 359.57 105.098 359.729 105.05 359.88 C 105.002 360.03 104.933 360.167 104.842 360.291 C 104.751 360.415 104.639 360.524 104.506 360.62 C 104.373 360.716 104.221 360.793 104.051 360.851 C 104.119 360.888 104.182 360.933 104.24 360.986 C 104.298 361.038 104.351 361.101 104.398 361.173 L 105.581 363 Z M 106.835 363 L 105.778 363 L 105.778 357.922 L 106.835 357.922 L 106.835 363 Z M 111.949 357.922 L 111.949 363 L 111.407 363 C 111.325 363 111.256 362.987 111.2 362.96 C 111.144 362.933 111.089 362.887 111.036 362.822 L 108.505 359.602 C 108.512 359.683 108.517 359.764 108.521 359.843 C 108.524 359.922 108.526 359.996 108.526 360.064 L 108.526 363 L 107.599 363 L 107.599 357.922 L 108.152 357.922 C 108.196 357.922 108.234 357.923 108.265 357.927 C 108.297 357.93 108.325 357.938 108.351 357.951 C 108.377 357.964 108.401 357.981 108.425 358.002 C 108.448 358.023 108.474 358.051 108.502 358.086 L 111.05 361.32 C 111.04 361.231 111.033 361.146 111.029 361.063 C 111.024 360.98 111.021 360.901 111.021 360.827 L 111.021 357.922 L 111.949 357.922 Z M 115.184 360.414 L 116.927 360.414 L 116.927 362.51 C 116.668 362.699 116.392 362.837 116.099 362.925 C 115.806 363.012 115.497 363.056 115.17 363.056 C 114.752 363.056 114.374 362.991 114.036 362.862 C 113.698 362.732 113.408 362.552 113.168 362.321 C 112.928 362.09 112.742 361.816 112.612 361.499 C 112.481 361.181 112.416 360.835 112.416 360.459 C 112.416 360.079 112.478 359.73 112.603 359.413 C 112.728 359.095 112.906 358.822 113.137 358.594 C 113.368 358.365 113.647 358.186 113.975 358.058 C 114.303 357.93 114.67 357.866 115.076 357.866 C 115.286 357.866 115.482 357.882 115.664 357.916 C 115.846 357.95 116.014 357.997 116.168 358.056 C 116.322 358.116 116.463 358.186 116.591 358.268 C 116.719 358.35 116.836 358.44 116.941 358.538 L 116.637 359.007 C 116.59 359.081 116.529 359.127 116.455 359.143 C 116.38 359.159 116.298 359.141 116.21 359.087 C 116.126 359.036 116.043 358.99 115.963 358.949 C 115.882 358.908 115.797 358.872 115.706 358.842 C 115.615 358.812 115.515 358.788 115.408 358.772 C 115.301 358.756 115.177 358.748 115.037 358.748 C 114.801 358.748 114.588 358.788 114.397 358.87 C 114.205 358.952 114.042 359.067 113.908 359.217 C 113.774 359.366 113.671 359.546 113.599 359.756 C 113.526 359.966 113.49 360.2 113.49 360.459 C 113.49 360.739 113.53 360.989 113.609 361.21 C 113.688 361.43 113.8 361.616 113.945 361.768 C 114.09 361.92 114.263 362.035 114.465 362.115 C 114.667 362.194 114.891 362.234 115.139 362.234 C 115.307 362.234 115.456 362.217 115.588 362.183 C 115.72 362.149 115.849 362.103 115.975 362.045 L 115.975 361.191 L 115.401 361.191 C 115.333 361.191 115.28 361.172 115.242 361.136 C 115.203 361.1 115.184 361.054 115.184 360.998 L 115.184 360.414 Z" fill="#1E1E1E" fill-rule="nonzero"/>
    <path d="M 124 413 L 124 415 L 120 412.5 L 124 410 L 124 412 L 128 412 L 128 410 L 132 412.5 L 128 415 L 128 413 L 124 413 Z" fill="#1E1E1E"/>
  </g>
</svg>
