<?xml version="1.0" encoding="utf-8"?>
<svg width="75px" height="39px" viewBox="0 0 75 39" version="1.1" xmlns="http://www.w3.org/2000/svg">
  <g id="bmp00122" stroke="none" stroke-width="1" fill="none" fill-rule="evenodd">
    <rect id="Rectangle" fill="#FFBB45" x="1" y="1" width="24" height="11"/>
    <rect id="Rectangle" fill="#FFBB45" x="26" y="14" width="24" height="11"/>
    <rect id="Rectangle" fill="#FFBB45" x="50" y="27" width="24" height="11"/>
    <rect id="Rectangle" fill="#FFBB45" x="1" y="1" width="24" height="11"/>
    <rect id="Rectangle" fill="#FFBB45" x="26" y="14" width="24" height="11"/>
    <rect id="Rectangle" fill="#FFBB45" x="50" y="27" width="24" height="11"/>
    <path d="M39.9035,21.195 C39.9968338,21.195 40.0709164,21.2212497 40.12575,21.27375 C40.1805836,21.3262503 40.208,21.3956662 40.208,21.482 L40.208,22 L36.736,22 L36.736,21.713 C36.736,21.6546664 36.7482499,21.593417 36.77275,21.52925 C36.7972501,21.465083 36.8363331,21.4073336 36.89,21.356 L38.4265,19.816 C38.554834,19.6853327 38.6697495,19.5605006 38.77125,19.4415 C38.8727505,19.3224994 38.957333,19.2046672 39.025,19.088 C39.092667,18.9713328 39.1445832,18.8529173 39.18075,18.73275 C39.2169168,18.6125827 39.235,18.4860007 39.235,18.353 C39.235,18.2316661 39.2175002,18.1249171 39.1825,18.03275 C39.1474998,17.9405829 39.097917,17.8630003 39.03375,17.8 C38.969583,17.7369997 38.8925838,17.6897502 38.80275,17.65825 C38.7129162,17.6267498 38.6120006,17.611 38.5,17.611 C38.3973328,17.611 38.3022504,17.6255832 38.21475,17.65475 C38.1272496,17.6839168 38.049667,17.7247497 37.982,17.77725 C37.914333,17.8297503 37.8571669,17.8909996 37.8105,17.961 C37.7638331,18.0310003 37.7288334,18.1079996 37.7055,18.192 C37.6658331,18.2993339 37.6145003,18.3704998 37.5515,18.4055 C37.4884997,18.4405002 37.3975006,18.4486668 37.2785,18.43 L36.8235,18.3495 C36.8585002,18.1068321 36.9261662,17.8939176 37.0265,17.71075 C37.1268338,17.5275824 37.2522492,17.3747506 37.40275,17.25225 C37.5532508,17.1297494 37.7259157,17.0375836 37.92075,16.97575 C38.1155843,16.9139164 38.3249989,16.883 38.549,16.883 C38.7823345,16.883 38.9958324,16.9174163 39.1895,16.98625 C39.3831676,17.0550837 39.5488326,17.1524994 39.6865,17.2785 C39.8241674,17.4045006 39.9314996,17.5561658 40.0085,17.7335 C40.0855004,17.9108342 40.124,18.1079989 40.124,18.325 C40.124,18.5116676 40.0965836,18.6843325 40.04175,18.843 C39.9869164,19.0016675 39.9134171,19.1533326 39.82125,19.298 C39.7290829,19.4426674 39.6211673,19.582666 39.4975,19.718 C39.3738327,19.853334 39.244334,19.9909993 39.109,20.131 L37.968,21.2965 C38.0776672,21.2638332 38.1867495,21.2387501 38.29525,21.22125 C38.4037505,21.2037499 38.5069995,21.195 38.605,21.195 L39.9035,21.195 Z" id="2" fill="#000000" fill-rule="nonzero"/>
    <path d="M15.0925,8.3525 L15.0925,9 L12.2925,9 L12.2925,8.3525 L13.318,8.3525 L13.318,5.402 C13.318,5.28533275 13.3215,5.16516729 13.3285,5.0415 L12.6005,5.6505 C12.5584998,5.68316683 12.5170835,5.70358329 12.47625,5.71175 C12.4354165,5.71991671 12.3969168,5.72050003 12.36075,5.7135 C12.3245832,5.70649996 12.2925001,5.69425009 12.2645,5.67675 C12.2364999,5.65924991 12.2155001,5.6400001 12.2015,5.619 L11.9285,5.2445 L13.472,3.932 L14.1825,3.932 L14.1825,8.3525 L15.0925,8.3525 Z" id="1" fill="#101010" fill-rule="nonzero"/>
    <path d="M60.848,31.3495 C60.8830002,31.1068321 60.9506662,30.8939176 61.051,30.71075 C61.1513338,30.5275824 61.2767492,30.3747506 61.42725,30.25225 C61.5777508,30.1297494 61.7504157,30.0375836 61.94525,29.97575 C62.1400843,29.9139164 62.3494989,29.883 62.5735,29.883 C62.8068345,29.883 63.0174157,29.9162497 63.20525,29.98275 C63.3930843,30.0492503 63.5534993,30.1414161 63.6865,30.25925 C63.8195007,30.3770839 63.921583,30.5153325 63.99275,30.674 C64.063917,30.8326675 64.0995,31.0041657 64.0995,31.1885 C64.0995,31.3495008 64.0814168,31.4912494 64.04525,31.61375 C64.0090832,31.7362506 63.957167,31.8429995 63.8895,31.934 C63.821833,32.0250005 63.7378338,32.1019997 63.6375,32.165 C63.5371662,32.2280003 63.4240006,32.2804998 63.298,32.3225 C63.6013349,32.4181671 63.8276659,32.563999 63.977,32.76 C64.1263341,32.956001 64.201,33.2021652 64.201,33.4985 C64.201,33.7505013 64.1543338,33.9733324 64.061,34.167 C63.9676662,34.3606676 63.8416675,34.523416 63.683,34.65525 C63.5243325,34.787084 63.3405844,34.886833 63.13175,34.9545 C62.9229156,35.022167 62.7018345,35.056 62.4685,35.056 C62.2141654,35.056 61.9925009,35.0268336 61.8035,34.9685 C61.6144991,34.9101664 61.4500007,34.8238339 61.31,34.7095 C61.1699993,34.5951661 61.0510005,34.4551675 60.953,34.2895 C60.8549995,34.1238325 60.7710004,33.9325011 60.701,33.7155 L61.0825,33.558 C61.1828338,33.5159998 61.2767496,33.5049166 61.36425,33.52475 C61.4517504,33.5445834 61.5153331,33.591833 61.555,33.6665 C61.5970002,33.7481671 61.6430831,33.8286663 61.69325,33.908 C61.7434169,33.9873337 61.8034996,34.0579164 61.8735,34.11975 C61.9435004,34.1815836 62.0257495,34.2317498 62.12025,34.27025 C62.2147505,34.3087502 62.3273327,34.328 62.458,34.328 C62.6050007,34.328 62.7333328,34.3040836 62.843,34.25625 C62.9526672,34.2084164 63.0442496,34.1460004 63.11775,34.069 C63.1912504,33.9919996 63.2460832,33.9062505 63.28225,33.81175 C63.3184168,33.7172495 63.3365,33.6221671 63.3365,33.5265 C63.3365,33.4051661 63.3236668,33.2949172 63.298,33.19575 C63.2723332,33.0965828 63.2186671,33.0120004 63.137,32.942 C63.0553329,32.8719996 62.9380841,32.8171669 62.78525,32.7775 C62.6324159,32.7378331 62.427668,32.718 62.171,32.718 L62.171,32.102 C62.3833344,32.0996667 62.5594993,32.0798335 62.6995,32.0425 C62.8395007,32.0051665 62.9509163,31.9532503 63.03375,31.88675 C63.1165837,31.8202497 63.1743332,31.7403338 63.207,31.647 C63.2396668,31.5536662 63.256,31.4510006 63.256,31.339 C63.256,31.1009988 63.1895007,30.9201673 63.0565,30.7965 C62.9234993,30.6728327 62.7461678,30.611 62.5245,30.611 C62.4218328,30.611 62.3273338,30.6255832 62.241,30.65475 C62.1546662,30.6839168 62.0770837,30.7247497 62.00825,30.77725 C61.9394163,30.8297503 61.8816669,30.8909996 61.835,30.961 C61.7883331,31.0310003 61.7533334,31.1079996 61.73,31.192 C61.6903331,31.2993339 61.638417,31.3704998 61.57425,31.4055 C61.510083,31.4405002 61.4196673,31.4486668 61.303,31.43 L60.848,31.3495 Z" id="3" fill="#000000" fill-rule="nonzero"/>
  </g>
</svg>
