<?xml version="1.0" encoding="utf-8"?>
<svg width="31px" height="24px" viewBox="0 0 31 24" version="1.1" xmlns:xlink="http://www.w3.org/1999/xlink" xmlns="http://www.w3.org/2000/svg">
  <desc>Created with Lunacy</desc>
  <defs>
    <rect width="31" height="24" id="artboard_1" />
    <clipPath id="clip_1">
      <use xlink:href="#artboard_1" clip-rule="evenodd" />
    </clipPath>
  </defs>
  <g id="hover00173" clip-path="url(#clip_1)">
    <g id="On" transform="translate(6 14.779999)">
      <path d="M2.961 0.7335L5.049 0.7335L5.049 0L0 0L0 0.7335L2.0925 0.7335L2.0925 6.4485L2.961 6.4485L2.961 0.7335L2.961 0.7335ZM11.1875 2.5515C11.2865 2.4405 11.3915 2.34 11.5025 2.25C11.6135 2.16 11.7313 2.08275 11.8558 2.01825C11.9803 1.95375 12.1123 1.90425 12.2518 1.86975C12.3913 1.83525 12.542 1.818 12.704 1.818C12.953 1.818 13.1728 1.85925 13.3633 1.94175C13.5538 2.02425 13.7128 2.14125 13.8403 2.29275C13.9678 2.44425 14.0645 2.6265 14.1305 2.8395C14.1965 3.0525 14.2295 3.288 14.2295 3.546L14.2295 6.4485L13.424 6.4485L13.424 3.546C13.424 3.201 13.3453 2.93325 13.1878 2.74275C13.0303 2.55225 12.791 2.457 12.47 2.457C12.233 2.457 12.0118 2.514 11.8063 2.628C11.6008 2.742 11.411 2.8965 11.237 3.0915L11.237 6.4485L10.4315 6.4485L10.4315 1.89L10.913 1.89C11.027 1.89 11.0975 1.9455 11.1245 2.0565L11.1875 2.5515L11.1875 2.5515ZM18.597 6.12225C18.735 6.03375 18.8535 5.9295 18.9525 5.8095L18.7275 5.517C18.6915 5.466 18.6405 5.4405 18.5745 5.4405C18.5235 5.4405 18.4628 5.46375 18.3923 5.51025C18.3218 5.55675 18.234 5.607 18.129 5.661C18.024 5.715 17.8988 5.76525 17.7533 5.81175C17.6078 5.85825 17.4345 5.8815 17.2335 5.8815C17.0175 5.8815 16.8225 5.84625 16.6485 5.77575C16.4745 5.70525 16.3245 5.59875 16.1985 5.45625C16.0725 5.31375 15.9743 5.136 15.9038 4.923C15.8333 4.71 15.7935 4.4595 15.7845 4.1715L18.831 4.1715C18.906 4.1715 18.957 4.1505 18.984 4.1085C19.011 4.0665 19.0245 3.9825 19.0245 3.8565C19.0245 3.5325 18.9765 3.24375 18.8805 2.99025C18.7845 2.73675 18.6518 2.52375 18.4823 2.35125C18.3128 2.17875 18.1118 2.04675 17.8793 1.95525C17.6468 1.86375 17.394 1.818 17.121 1.818C16.791 1.818 16.494 1.87575 16.23 1.99125C15.966 2.10675 15.7425 2.26575 15.5595 2.46825C15.3765 2.67075 15.2363 2.91 15.1388 3.186C15.0413 3.462 14.9925 3.759 14.9925 4.077C14.9925 4.47 15.0465 4.818 15.1545 5.121C15.2625 5.424 15.4133 5.67825 15.6068 5.88375C15.8003 6.08925 16.0298 6.24525 16.2953 6.35175C16.5608 6.45825 16.851 6.5115 17.166 6.5115C17.331 6.5115 17.4975 6.49725 17.6655 6.46875C17.8335 6.44025 17.9963 6.3975 18.1538 6.3405C18.3113 6.2835 18.459 6.21075 18.597 6.12225L18.597 6.12225ZM9.3625 6.4485L9.3625 1.89L8.5615 1.89L8.5615 5.247C8.3875 5.445 8.19777 5.60025 7.9923 5.71275C7.78677 5.82525 7.5655 5.8815 7.3285 5.8815C7.0045 5.8815 6.76375 5.787 6.60625 5.598C6.44875 5.409 6.37 5.142 6.37 4.797L6.37 1.89L5.569 1.89L5.569 4.797C5.569 5.055 5.60125 5.2905 5.66575 5.5035C5.73025 5.7165 5.827 5.898 5.956 6.048C6.085 6.198 6.24475 6.31425 6.43525 6.39675C6.62575 6.47925 6.8455 6.5205 7.0945 6.5205C7.4125 6.5205 7.6945 6.45375 7.9405 6.32025C8.1865 6.18675 8.4085 6.0105 8.6065 5.7915L8.6695 6.282C8.6995 6.393 8.7715 6.4485 8.8855 6.4485L9.3625 6.4485L9.3625 6.4485ZM18.2258 3.16125C18.2783 3.31575 18.3045 3.486 18.3045 3.672L15.8115 3.672C15.8655 3.276 16.0043 2.96625 16.2278 2.74275C16.4513 2.51925 16.755 2.4075 17.139 2.4075C17.322 2.4075 17.4855 2.43825 17.6295 2.49975C17.7735 2.56125 17.8958 2.64825 17.9963 2.76075C18.0968 2.87325 18.1733 3.00675 18.2258 3.16125L18.2258 3.16125Z" id="Glow" fill="#000000" fill-rule="evenodd" stroke="#FFFFFF" stroke-width="1" />
      <path d="M2.961 0.7335L5.049 0.7335L5.049 0L0 0L0 0.7335L2.0925 0.7335L2.0925 6.4485L2.961 6.4485L2.961 0.7335L2.961 0.7335ZM11.1875 2.5515C11.2865 2.4405 11.3915 2.34 11.5025 2.25C11.6135 2.16 11.7313 2.08275 11.8558 2.01825C11.9803 1.95375 12.1123 1.90425 12.2518 1.86975C12.3913 1.83525 12.542 1.818 12.704 1.818C12.953 1.818 13.1728 1.85925 13.3633 1.94175C13.5538 2.02425 13.7128 2.14125 13.8403 2.29275C13.9678 2.44425 14.0645 2.6265 14.1305 2.8395C14.1965 3.0525 14.2295 3.288 14.2295 3.546L14.2295 6.4485L13.424 6.4485L13.424 3.546C13.424 3.201 13.3453 2.93325 13.1878 2.74275C13.0303 2.55225 12.791 2.457 12.47 2.457C12.233 2.457 12.0118 2.514 11.8063 2.628C11.6008 2.742 11.411 2.8965 11.237 3.0915L11.237 6.4485L10.4315 6.4485L10.4315 1.89L10.913 1.89C11.027 1.89 11.0975 1.9455 11.1245 2.0565L11.1875 2.5515L11.1875 2.5515ZM18.597 6.12225C18.735 6.03375 18.8535 5.9295 18.9525 5.8095L18.7275 5.517C18.6915 5.466 18.6405 5.4405 18.5745 5.4405C18.5235 5.4405 18.4628 5.46375 18.3923 5.51025C18.3218 5.55675 18.234 5.607 18.129 5.661C18.024 5.715 17.8988 5.76525 17.7533 5.81175C17.6078 5.85825 17.4345 5.8815 17.2335 5.8815C17.0175 5.8815 16.8225 5.84625 16.6485 5.77575C16.4745 5.70525 16.3245 5.59875 16.1985 5.45625C16.0725 5.31375 15.9743 5.136 15.9038 4.923C15.8333 4.71 15.7935 4.4595 15.7845 4.1715L18.831 4.1715C18.906 4.1715 18.957 4.1505 18.984 4.1085C19.011 4.0665 19.0245 3.9825 19.0245 3.8565C19.0245 3.5325 18.9765 3.24375 18.8805 2.99025C18.7845 2.73675 18.6518 2.52375 18.4823 2.35125C18.3128 2.17875 18.1118 2.04675 17.8793 1.95525C17.6468 1.86375 17.394 1.818 17.121 1.818C16.791 1.818 16.494 1.87575 16.23 1.99125C15.966 2.10675 15.7425 2.26575 15.5595 2.46825C15.3765 2.67075 15.2363 2.91 15.1388 3.186C15.0413 3.462 14.9925 3.759 14.9925 4.077C14.9925 4.47 15.0465 4.818 15.1545 5.121C15.2625 5.424 15.4133 5.67825 15.6068 5.88375C15.8003 6.08925 16.0298 6.24525 16.2953 6.35175C16.5608 6.45825 16.851 6.5115 17.166 6.5115C17.331 6.5115 17.4975 6.49725 17.6655 6.46875C17.8335 6.44025 17.9963 6.3975 18.1538 6.3405C18.3113 6.2835 18.459 6.21075 18.597 6.12225L18.597 6.12225ZM9.3625 6.4485L9.3625 1.89L8.5615 1.89L8.5615 5.247C8.3875 5.445 8.19777 5.60025 7.9923 5.71275C7.78677 5.82525 7.5655 5.8815 7.3285 5.8815C7.0045 5.8815 6.76375 5.787 6.60625 5.598C6.44875 5.409 6.37 5.142 6.37 4.797L6.37 1.89L5.569 1.89L5.569 4.797C5.569 5.055 5.60125 5.2905 5.66575 5.5035C5.73025 5.7165 5.827 5.898 5.956 6.048C6.085 6.198 6.24475 6.31425 6.43525 6.39675C6.62575 6.47925 6.8455 6.5205 7.0945 6.5205C7.4125 6.5205 7.6945 6.45375 7.9405 6.32025C8.1865 6.18675 8.4085 6.0105 8.6065 5.7915L8.6695 6.282C8.6995 6.393 8.7715 6.4485 8.8855 6.4485L9.3625 6.4485L9.3625 6.4485ZM18.2258 3.16125C18.2783 3.31575 18.3045 3.486 18.3045 3.672L15.8115 3.672C15.8655 3.276 16.0043 2.96625 16.2278 2.74275C16.4513 2.51925 16.755 2.4075 17.139 2.4075C17.322 2.4075 17.4855 2.43825 17.6295 2.49975C17.7735 2.56125 17.8958 2.64825 17.9963 2.76075C18.0968 2.87325 18.1733 3.00675 18.2258 3.16125L18.2258 3.16125Z" id="Tune" fill="#000000" fill-rule="evenodd" stroke="none" />
    </g>
    <g id="Off" transform="translate(6 2.7799988)">
      <path d="M2.961 0.7335L5.049 0.7335L5.049 0L0 0L0 0.7335L2.0925 0.7335L2.0925 6.4485L2.961 6.4485L2.961 0.7335L2.961 0.7335ZM11.1875 2.5515C11.2865 2.4405 11.3915 2.34 11.5025 2.25C11.6135 2.16 11.7313 2.08275 11.8558 2.01825C11.9803 1.95375 12.1123 1.90425 12.2518 1.86975C12.3913 1.83525 12.542 1.818 12.704 1.818C12.953 1.818 13.1728 1.85925 13.3633 1.94175C13.5538 2.02425 13.7128 2.14125 13.8403 2.29275C13.9678 2.44425 14.0645 2.6265 14.1305 2.8395C14.1965 3.0525 14.2295 3.288 14.2295 3.546L14.2295 6.4485L13.424 6.4485L13.424 3.546C13.424 3.201 13.3453 2.93325 13.1878 2.74275C13.0303 2.55225 12.791 2.457 12.47 2.457C12.233 2.457 12.0118 2.514 11.8063 2.628C11.6008 2.742 11.411 2.8965 11.237 3.0915L11.237 6.4485L10.4315 6.4485L10.4315 1.89L10.913 1.89C11.027 1.89 11.0975 1.9455 11.1245 2.0565L11.1875 2.5515L11.1875 2.5515ZM18.597 6.12225C18.735 6.03375 18.8535 5.9295 18.9525 5.8095L18.7275 5.517C18.6915 5.466 18.6405 5.4405 18.5745 5.4405C18.5235 5.4405 18.4628 5.46375 18.3923 5.51025C18.3218 5.55675 18.234 5.607 18.129 5.661C18.024 5.715 17.8988 5.76525 17.7533 5.81175C17.6078 5.85825 17.4345 5.8815 17.2335 5.8815C17.0175 5.8815 16.8225 5.84625 16.6485 5.77575C16.4745 5.70525 16.3245 5.59875 16.1985 5.45625C16.0725 5.31375 15.9743 5.136 15.9038 4.923C15.8333 4.71 15.7935 4.4595 15.7845 4.1715L18.831 4.1715C18.906 4.1715 18.957 4.1505 18.984 4.1085C19.011 4.0665 19.0245 3.9825 19.0245 3.8565C19.0245 3.5325 18.9765 3.24375 18.8805 2.99025C18.7845 2.73675 18.6518 2.52375 18.4823 2.35125C18.3128 2.17875 18.1118 2.04675 17.8793 1.95525C17.6468 1.86375 17.394 1.818 17.121 1.818C16.791 1.818 16.494 1.87575 16.23 1.99125C15.966 2.10675 15.7425 2.26575 15.5595 2.46825C15.3765 2.67075 15.2363 2.91 15.1388 3.186C15.0413 3.462 14.9925 3.759 14.9925 4.077C14.9925 4.47 15.0465 4.818 15.1545 5.121C15.2625 5.424 15.4133 5.67825 15.6068 5.88375C15.8003 6.08925 16.0298 6.24525 16.2953 6.35175C16.5608 6.45825 16.851 6.5115 17.166 6.5115C17.331 6.5115 17.4975 6.49725 17.6655 6.46875C17.8335 6.44025 17.9963 6.3975 18.1538 6.3405C18.3113 6.2835 18.459 6.21075 18.597 6.12225L18.597 6.12225ZM9.3625 6.4485L9.3625 1.89L8.5615 1.89L8.5615 5.247C8.3875 5.445 8.19777 5.60025 7.9923 5.71275C7.78677 5.82525 7.5655 5.8815 7.3285 5.8815C7.0045 5.8815 6.76375 5.787 6.60625 5.598C6.44875 5.409 6.37 5.142 6.37 4.797L6.37 1.89L5.569 1.89L5.569 4.797C5.569 5.055 5.60125 5.2905 5.66575 5.5035C5.73025 5.7165 5.827 5.898 5.956 6.048C6.085 6.198 6.24475 6.31425 6.43525 6.39675C6.62575 6.47925 6.8455 6.5205 7.0945 6.5205C7.4125 6.5205 7.6945 6.45375 7.9405 6.32025C8.1865 6.18675 8.4085 6.0105 8.6065 5.7915L8.6695 6.282C8.6995 6.393 8.7715 6.4485 8.8855 6.4485L9.3625 6.4485L9.3625 6.4485ZM18.2258 3.16125C18.2783 3.31575 18.3045 3.486 18.3045 3.672L15.8115 3.672C15.8655 3.276 16.0043 2.96625 16.2278 2.74275C16.4513 2.51925 16.755 2.4075 17.139 2.4075C17.322 2.4075 17.4855 2.43825 17.6295 2.49975C17.7735 2.56125 17.8958 2.64825 17.9963 2.76075C18.0968 2.87325 18.1733 3.00675 18.2258 3.16125L18.2258 3.16125Z" id="Glow" fill="#000000" fill-rule="evenodd" stroke="#FFCCAA" stroke-width="1" />
      <path d="M2.961 0.7335L5.049 0.7335L5.049 0L0 0L0 0.7335L2.0925 0.7335L2.0925 6.4485L2.961 6.4485L2.961 0.7335L2.961 0.7335ZM11.1875 2.5515C11.2865 2.4405 11.3915 2.34 11.5025 2.25C11.6135 2.16 11.7313 2.08275 11.8558 2.01825C11.9803 1.95375 12.1123 1.90425 12.2518 1.86975C12.3913 1.83525 12.542 1.818 12.704 1.818C12.953 1.818 13.1728 1.85925 13.3633 1.94175C13.5538 2.02425 13.7128 2.14125 13.8403 2.29275C13.9678 2.44425 14.0645 2.6265 14.1305 2.8395C14.1965 3.0525 14.2295 3.288 14.2295 3.546L14.2295 6.4485L13.424 6.4485L13.424 3.546C13.424 3.201 13.3453 2.93325 13.1878 2.74275C13.0303 2.55225 12.791 2.457 12.47 2.457C12.233 2.457 12.0118 2.514 11.8063 2.628C11.6008 2.742 11.411 2.8965 11.237 3.0915L11.237 6.4485L10.4315 6.4485L10.4315 1.89L10.913 1.89C11.027 1.89 11.0975 1.9455 11.1245 2.0565L11.1875 2.5515L11.1875 2.5515ZM18.597 6.12225C18.735 6.03375 18.8535 5.9295 18.9525 5.8095L18.7275 5.517C18.6915 5.466 18.6405 5.4405 18.5745 5.4405C18.5235 5.4405 18.4628 5.46375 18.3923 5.51025C18.3218 5.55675 18.234 5.607 18.129 5.661C18.024 5.715 17.8988 5.76525 17.7533 5.81175C17.6078 5.85825 17.4345 5.8815 17.2335 5.8815C17.0175 5.8815 16.8225 5.84625 16.6485 5.77575C16.4745 5.70525 16.3245 5.59875 16.1985 5.45625C16.0725 5.31375 15.9743 5.136 15.9038 4.923C15.8333 4.71 15.7935 4.4595 15.7845 4.1715L18.831 4.1715C18.906 4.1715 18.957 4.1505 18.984 4.1085C19.011 4.0665 19.0245 3.9825 19.0245 3.8565C19.0245 3.5325 18.9765 3.24375 18.8805 2.99025C18.7845 2.73675 18.6518 2.52375 18.4823 2.35125C18.3128 2.17875 18.1118 2.04675 17.8793 1.95525C17.6468 1.86375 17.394 1.818 17.121 1.818C16.791 1.818 16.494 1.87575 16.23 1.99125C15.966 2.10675 15.7425 2.26575 15.5595 2.46825C15.3765 2.67075 15.2363 2.91 15.1388 3.186C15.0413 3.462 14.9925 3.759 14.9925 4.077C14.9925 4.47 15.0465 4.818 15.1545 5.121C15.2625 5.424 15.4133 5.67825 15.6068 5.88375C15.8003 6.08925 16.0298 6.24525 16.2953 6.35175C16.5608 6.45825 16.851 6.5115 17.166 6.5115C17.331 6.5115 17.4975 6.49725 17.6655 6.46875C17.8335 6.44025 17.9963 6.3975 18.1538 6.3405C18.3113 6.2835 18.459 6.21075 18.597 6.12225L18.597 6.12225ZM9.3625 6.4485L9.3625 1.89L8.5615 1.89L8.5615 5.247C8.3875 5.445 8.19777 5.60025 7.9923 5.71275C7.78677 5.82525 7.5655 5.8815 7.3285 5.8815C7.0045 5.8815 6.76375 5.787 6.60625 5.598C6.44875 5.409 6.37 5.142 6.37 4.797L6.37 1.89L5.569 1.89L5.569 4.797C5.569 5.055 5.60125 5.2905 5.66575 5.5035C5.73025 5.7165 5.827 5.898 5.956 6.048C6.085 6.198 6.24475 6.31425 6.43525 6.39675C6.62575 6.47925 6.8455 6.5205 7.0945 6.5205C7.4125 6.5205 7.6945 6.45375 7.9405 6.32025C8.1865 6.18675 8.4085 6.0105 8.6065 5.7915L8.6695 6.282C8.6995 6.393 8.7715 6.4485 8.8855 6.4485L9.3625 6.4485L9.3625 6.4485ZM18.2258 3.16125C18.2783 3.31575 18.3045 3.486 18.3045 3.672L15.8115 3.672C15.8655 3.276 16.0043 2.96625 16.2278 2.74275C16.4513 2.51925 16.755 2.4075 17.139 2.4075C17.322 2.4075 17.4855 2.43825 17.6295 2.49975C17.7735 2.56125 17.8958 2.64825 17.9963 2.76075C18.0968 2.87325 18.1733 3.00675 18.2258 3.16125L18.2258 3.16125Z" id="Tune" fill="#000000" fill-rule="evenodd" stroke="none" />
    </g>
  </g>
</svg>