<svg width="18" height="288" viewBox="0 0 18 288" fill="none" xmlns="http://www.w3.org/2000/svg">
<path fill-rule="evenodd" clip-rule="evenodd" d="M3 9H13V8H3V9Z" fill="white"/>
<path fill-rule="evenodd" clip-rule="evenodd" d="M3 27H6.75V26H3V27Z" fill="white"/>
<path d="M6.5 26.5011C10.9192 26.3796 12.4969 29.9813 12.5 31.5152" stroke="white"/>
<path fill-rule="evenodd" clip-rule="evenodd" d="M3 45H9.55V44H3V45Z" fill="white"/>
<path d="M9.5 44.5018C12.6067 44.3951 12.5 47.517 12.5 49.5271" stroke="white"/>
<path d="M8.06519 68.9805L12 58.7451" stroke="white" stroke-linejoin="round"/>
<path d="M4 67.1754L7.88224 56.9199" stroke="white" stroke-linejoin="round"/>
<path d="M7.38843 58.9391L10.8977 60.8185" stroke="white" stroke-linejoin="round"/>
<path d="M6.55927 60.7733L10.0685 62.6527" stroke="white" stroke-linejoin="round"/>
<path d="M5.81763 62.9L9.32687 64.7794" stroke="white" stroke-linejoin="round"/>
<path d="M5.09448 64.9392L8.60373 66.8187" stroke="white" stroke-linejoin="round"/>
<path fill-rule="evenodd" clip-rule="evenodd" d="M13 81H9.25V80H13V81Z" fill="white"/>
<path d="M9.5 80.5011C5.08083 80.3796 3.50306 83.9813 3.5 85.5152" stroke="white"/>
<path fill-rule="evenodd" clip-rule="evenodd" d="M13 99H6.45V98H13V99Z" fill="white"/>
<path d="M6.5 98.5018C3.39328 98.3951 3.5 101.517 3.5 103.527" stroke="white"/>
<path d="M3.5 121.491C3.58115 116.131 7.946 116.506 7.946 116.506H7.95387C7.95387 116.506 12.5 116.559 12.5 121.5" stroke="white" stroke-linejoin="round"/>
<path d="M3.5 134.513C3.5 134.513 8.00491 134.03 8.00491 139H8.0018C8.0018 134.03 12.5 134.513 12.5 134.513" stroke="white" stroke-linejoin="round"/>
<path d="M9.5 152.514C9.5 152.514 11.5022 152.031 11.5022 157H11.5009C11.5009 152.031 13.2242 152.513 13.25 152.513" stroke="white" stroke-linejoin="round"/>
<path d="M5.75 152.514C5.75 152.514 7.75222 152.031 7.75222 157H7.75089C7.75089 152.031 9.75 152.514 9.75 152.514" stroke="white" stroke-linejoin="round"/>
<path d="M2.5 152.524C2.54376 152.524 4.00222 152.031 4.00222 157H4.00089C4.00089 152.031 6 152.513 6 152.513" stroke="white" stroke-linejoin="round"/>
<path d="M5.9969 167.551C5.9969 167.551 3.84536 167.169 3.84639 168.5C3.84845 169.558 6.00206 169.632 6 170.425C5.99691 171.918 3.5 171.42 3.5 171.42" stroke="white" stroke-linejoin="round"/>
<path d="M6 176L10 167" stroke="white" stroke-linejoin="round"/>
<path fill-rule="evenodd" clip-rule="evenodd" d="M10.5 173H11.5V171H12.5V176H11.5V174H10.5V176H9.5V171H10.5V173Z" fill="white"/>
<path d="M8.06519 194.98L12 184.745" stroke="white" stroke-linejoin="round"/>
<path d="M4 193.175L7.88224 182.92" stroke="white" stroke-linejoin="round"/>
<path d="M7.38843 184.939L10.8977 186.819" stroke="white" stroke-linejoin="round"/>
<path d="M6.55927 186.773L10.0685 188.653" stroke="white" stroke-linejoin="round"/>
<path d="M5.81763 188.9L9.32687 190.779" stroke="white" stroke-linejoin="round"/>
<path d="M5.09448 190.939L8.60373 192.819" stroke="white" stroke-linejoin="round"/>
<path d="M3.10004 206.523C3.10004 206.523 8.00549 206.04 8.00549 211.01H8.00222C8.00222 206.04 12.9 206.523 12.9 206.523" stroke="#FF9300" stroke-linejoin="round"/>
<path fill-rule="evenodd" clip-rule="evenodd" d="M13 207.01H9.25V206.01H13V207.01Z" fill="white"/>
<path d="M9.5 206.511C5.08083 206.389 3.50306 209.991 3.5 211.525" stroke="white"/>
<path fill-rule="evenodd" clip-rule="evenodd" d="M3 207.01H6.75V206.01H3V207.01Z" fill="#5DACF8"/>
<path d="M6.5 206.511C10.9192 206.389 12.4969 209.991 12.5 211.525" stroke="#5DACF8"/>
<path d="M14.066 203.946V200.974H13.572V202.056C13.508 201.995 13.4354 201.946 13.354 201.91C13.2727 201.874 13.1747 201.856 13.06 201.856C12.9254 201.856 12.804 201.883 12.696 201.937C12.588 201.991 12.4954 202.066 12.418 202.162C12.3407 202.258 12.2814 202.371 12.24 202.502C12.1987 202.633 12.178 202.774 12.178 202.926C12.178 203.094 12.1964 203.243 12.233 203.374C12.2697 203.505 12.3217 203.614 12.389 203.703C12.4564 203.792 12.5367 203.859 12.63 203.906C12.7234 203.953 12.826 203.976 12.938 203.976C13.0807 203.976 13.2057 203.947 13.313 203.888C13.4204 203.829 13.5154 203.753 13.598 203.658L13.64 203.856C13.6574 203.916 13.6987 203.946 13.764 203.946H14.066ZM5.08002 202.5C5.08002 202.712 5.04502 202.908 4.97502 203.089C4.90502 203.27 4.80602 203.426 4.67802 203.558C4.55002 203.69 4.39602 203.793 4.21602 203.867C4.03602 203.941 3.83602 203.978 3.61602 203.978C3.39736 203.978 3.19802 203.941 3.01802 203.867C2.83802 203.793 2.68369 203.69 2.55502 203.558C2.42636 203.426 2.32669 203.27 2.25602 203.089C2.18536 202.908 2.15002 202.712 2.15002 202.5C2.15002 202.288 2.18536 202.092 2.25602 201.911C2.32669 201.73 2.42636 201.574 2.55502 201.442C2.68369 201.31 2.83802 201.207 3.01802 201.133C3.19802 201.059 3.39736 201.022 3.61602 201.022C3.76269 201.022 3.90069 201.039 4.03002 201.073C4.15936 201.107 4.27802 201.155 4.38602 201.217C4.49402 201.279 4.59102 201.354 4.67702 201.443C4.76302 201.532 4.83602 201.631 4.89602 201.74C4.95602 201.849 5.00169 201.968 5.03302 202.096C5.06436 202.224 5.08002 202.359 5.08002 202.5ZM6.55002 201.054C6.73936 201.054 6.90136 201.072 7.03602 201.108C7.17069 201.144 7.28102 201.195 7.36702 201.262C7.45302 201.329 7.51602 201.409 7.55602 201.504C7.59602 201.599 7.61602 201.705 7.61602 201.824C7.61602 201.892 7.60602 201.957 7.58602 202.019C7.56602 202.081 7.53502 202.139 7.49302 202.193C7.45102 202.247 7.39769 202.296 7.33302 202.34C7.26836 202.384 7.19136 202.421 7.10202 202.452C7.49936 202.541 7.69802 202.756 7.69802 203.096C7.69802 203.219 7.67469 203.332 7.62802 203.436C7.58136 203.54 7.51336 203.63 7.42402 203.705C7.33469 203.78 7.22469 203.839 7.09402 203.882C6.96336 203.925 6.81402 203.946 6.64602 203.946H5.55402V201.054H6.55002ZM12.03 203.946H11.494C11.4567 203.946 11.427 203.937 11.405 203.918C11.383 203.899 11.3654 203.878 11.352 203.854L10.682 202.744C10.6714 202.777 10.6587 202.806 10.644 202.83L10.002 203.854C9.98602 203.877 9.96769 203.898 9.94702 203.917C9.92635 203.936 9.89935 203.946 9.86602 203.946H9.36402L10.324 202.458L9.40202 201.054H9.93802C9.97536 201.054 10.0024 201.059 10.019 201.069C10.0357 201.079 10.0514 201.095 10.066 201.118L10.724 202.178C10.7374 202.145 10.7534 202.111 10.772 202.078L11.376 201.128C11.3907 201.103 11.4067 201.084 11.424 201.072C11.4414 201.06 11.4634 201.054 11.49 201.054H12.004L11.074 202.436L12.03 203.946ZM6.09202 201.47V202.306H6.52002C6.70402 202.306 6.84302 202.273 6.93702 202.206C7.03102 202.139 7.07802 202.033 7.07802 201.888C7.07802 201.737 7.03536 201.63 6.95002 201.566C6.86469 201.502 6.73136 201.47 6.55002 201.47H6.09202ZM4.53002 202.5C4.53002 202.341 4.50869 202.199 4.46602 202.073C4.42336 201.947 4.36269 201.84 4.28402 201.752C4.20536 201.664 4.10969 201.597 3.99702 201.55C3.88436 201.503 3.75736 201.48 3.61602 201.48C3.47469 201.48 3.34769 201.503 3.23502 201.55C3.12236 201.597 3.02636 201.664 2.94702 201.752C2.86769 201.84 2.80669 201.947 2.76402 202.073C2.72136 202.199 2.70002 202.341 2.70002 202.5C2.70002 202.659 2.72136 202.801 2.76402 202.927C2.80669 203.053 2.86769 203.16 2.94702 203.247C3.02636 203.334 3.12236 203.401 3.23502 203.448C3.34769 203.495 3.47469 203.518 3.61602 203.518C3.75736 203.518 3.88436 203.495 3.99702 203.448C4.10969 203.401 4.20536 203.334 4.28402 203.247C4.36269 203.16 4.42336 203.053 4.46602 202.927C4.50869 202.801 4.53002 202.659 4.53002 202.5ZM13.389 202.274C13.455 202.302 13.516 202.35 13.572 202.418V203.338C13.508 203.417 13.44 203.477 13.368 203.52C13.296 203.563 13.2087 203.584 13.106 203.584C13.042 203.584 12.984 203.572 12.932 203.549C12.88 203.526 12.836 203.488 12.8 203.435C12.764 203.382 12.7364 203.314 12.717 203.231C12.6977 203.148 12.688 203.046 12.688 202.926C12.688 202.807 12.6994 202.704 12.722 202.617C12.7447 202.53 12.7774 202.458 12.82 202.401C12.8627 202.344 12.914 202.302 12.974 202.274C13.034 202.246 13.1014 202.232 13.176 202.232C13.252 202.232 13.323 202.246 13.389 202.274ZM9.13002 202.532H8.09402V202.944H9.13002V202.532ZM6.63602 203.526C6.73602 203.526 6.82002 203.514 6.88802 203.49C6.95602 203.466 7.01036 203.434 7.05102 203.394C7.09169 203.354 7.12102 203.307 7.13902 203.254C7.15702 203.201 7.16602 203.144 7.16602 203.084C7.16602 203.021 7.15602 202.965 7.13602 202.915C7.11602 202.865 7.08469 202.822 7.04202 202.787C6.99936 202.752 6.94436 202.725 6.87702 202.706C6.80969 202.687 6.72869 202.678 6.63402 202.678H6.09202V203.526H6.63602Z" fill="white"/>
<path fill-rule="evenodd" clip-rule="evenodd" d="M3 225.01H9.55V224.01H3V225.01Z" fill="#5DACF8"/>
<path d="M9.5 224.512C12.6067 224.405 12.5 227.527 12.5 229.537" stroke="#5DACF8"/>
<path d="M14.066 221.946V218.974H13.572V220.056C13.508 219.995 13.4354 219.946 13.354 219.91C13.2727 219.874 13.1747 219.856 13.06 219.856C12.9254 219.856 12.804 219.883 12.696 219.937C12.588 219.991 12.4954 220.066 12.418 220.162C12.3407 220.258 12.2814 220.371 12.24 220.502C12.1987 220.633 12.178 220.774 12.178 220.926C12.178 221.094 12.1964 221.243 12.233 221.374C12.2697 221.505 12.3217 221.614 12.389 221.703C12.4564 221.792 12.5367 221.859 12.63 221.906C12.7234 221.953 12.826 221.976 12.938 221.976C13.0807 221.976 13.2057 221.947 13.313 221.888C13.4204 221.829 13.5154 221.753 13.598 221.658L13.64 221.856C13.6574 221.916 13.6987 221.946 13.764 221.946H14.066ZM5.08002 220.5C5.08002 220.712 5.04502 220.908 4.97502 221.089C4.90502 221.27 4.80602 221.426 4.67802 221.558C4.55002 221.69 4.39602 221.793 4.21602 221.867C4.03602 221.941 3.83602 221.978 3.61602 221.978C3.39736 221.978 3.19802 221.941 3.01802 221.867C2.83802 221.793 2.68369 221.69 2.55502 221.558C2.42636 221.426 2.32669 221.27 2.25602 221.089C2.18536 220.908 2.15002 220.712 2.15002 220.5C2.15002 220.288 2.18536 220.092 2.25602 219.911C2.32669 219.73 2.42636 219.574 2.55502 219.442C2.68369 219.31 2.83802 219.207 3.01802 219.133C3.19802 219.059 3.39736 219.022 3.61602 219.022C3.76269 219.022 3.90069 219.039 4.03002 219.073C4.15936 219.107 4.27802 219.155 4.38602 219.217C4.49402 219.279 4.59102 219.354 4.67702 219.443C4.76302 219.532 4.83602 219.631 4.89602 219.74C4.95602 219.849 5.00169 219.968 5.03302 220.096C5.06436 220.224 5.08002 220.359 5.08002 220.5ZM6.55002 219.054C6.73936 219.054 6.90136 219.072 7.03602 219.108C7.17069 219.144 7.28102 219.195 7.36702 219.262C7.45302 219.329 7.51602 219.409 7.55602 219.504C7.59602 219.599 7.61602 219.705 7.61602 219.824C7.61602 219.892 7.60602 219.957 7.58602 220.019C7.56602 220.081 7.53502 220.139 7.49302 220.193C7.45102 220.247 7.39769 220.296 7.33302 220.34C7.26836 220.384 7.19136 220.421 7.10202 220.452C7.49936 220.541 7.69802 220.756 7.69802 221.096C7.69802 221.219 7.67469 221.332 7.62802 221.436C7.58136 221.54 7.51336 221.63 7.42402 221.705C7.33469 221.78 7.22469 221.839 7.09402 221.882C6.96336 221.925 6.81402 221.946 6.64602 221.946H5.55402V219.054H6.55002ZM12.03 221.946H11.494C11.4567 221.946 11.427 221.937 11.405 221.918C11.383 221.899 11.3654 221.878 11.352 221.854L10.682 220.744C10.6714 220.777 10.6587 220.806 10.644 220.83L10.002 221.854C9.98602 221.877 9.96769 221.898 9.94702 221.917C9.92635 221.936 9.89935 221.946 9.86602 221.946H9.36402L10.324 220.458L9.40202 219.054H9.93802C9.97536 219.054 10.0024 219.059 10.019 219.069C10.0357 219.079 10.0514 219.095 10.066 219.118L10.724 220.178C10.7374 220.145 10.7534 220.111 10.772 220.078L11.376 219.128C11.3907 219.103 11.4067 219.084 11.424 219.072C11.4414 219.06 11.4634 219.054 11.49 219.054H12.004L11.074 220.436L12.03 221.946ZM6.09202 219.47V220.306H6.52002C6.70402 220.306 6.84302 220.273 6.93702 220.206C7.03102 220.139 7.07802 220.033 7.07802 219.888C7.07802 219.737 7.03536 219.63 6.95002 219.566C6.86469 219.502 6.73136 219.47 6.55002 219.47H6.09202ZM4.53002 220.5C4.53002 220.341 4.50869 220.199 4.46602 220.073C4.42336 219.947 4.36269 219.84 4.28402 219.752C4.20536 219.664 4.10969 219.597 3.99702 219.55C3.88436 219.503 3.75736 219.48 3.61602 219.48C3.47469 219.48 3.34769 219.503 3.23502 219.55C3.12236 219.597 3.02636 219.664 2.94702 219.752C2.86769 219.84 2.80669 219.947 2.76402 220.073C2.72136 220.199 2.70002 220.341 2.70002 220.5C2.70002 220.659 2.72136 220.801 2.76402 220.927C2.80669 221.053 2.86769 221.16 2.94702 221.247C3.02636 221.334 3.12236 221.401 3.23502 221.448C3.34769 221.495 3.47469 221.518 3.61602 221.518C3.75736 221.518 3.88436 221.495 3.99702 221.448C4.10969 221.401 4.20536 221.334 4.28402 221.247C4.36269 221.16 4.42336 221.053 4.46602 220.927C4.50869 220.801 4.53002 220.659 4.53002 220.5ZM13.389 220.274C13.455 220.302 13.516 220.35 13.572 220.418V221.338C13.508 221.417 13.44 221.477 13.368 221.52C13.296 221.563 13.2087 221.584 13.106 221.584C13.042 221.584 12.984 221.572 12.932 221.549C12.88 221.526 12.836 221.488 12.8 221.435C12.764 221.382 12.7364 221.314 12.717 221.231C12.6977 221.148 12.688 221.046 12.688 220.926C12.688 220.807 12.6994 220.704 12.722 220.617C12.7447 220.53 12.7774 220.458 12.82 220.401C12.8627 220.344 12.914 220.302 12.974 220.274C13.034 220.246 13.1014 220.232 13.176 220.232C13.252 220.232 13.323 220.246 13.389 220.274ZM9.13002 220.532H8.09402V220.944H9.13002V220.532ZM6.63602 221.526C6.73602 221.526 6.82002 221.514 6.88802 221.49C6.95602 221.466 7.01036 221.434 7.05102 221.394C7.09169 221.354 7.12102 221.307 7.13902 221.254C7.15702 221.201 7.16602 221.144 7.16602 221.084C7.16602 221.021 7.15602 220.965 7.13602 220.915C7.11602 220.865 7.08469 220.822 7.04202 220.787C6.99936 220.752 6.94436 220.725 6.87702 220.706C6.80969 220.687 6.72869 220.678 6.63402 220.678H6.09202V221.526H6.63602Z" fill="white"/>
<path fill-rule="evenodd" clip-rule="evenodd" d="M2.5 243.01H6.25V242.01H2.5V243.01Z" fill="white"/>
<path d="M6 242.511C10.4192 242.39 11.9969 245.991 12 247.525" stroke="white"/>
<path d="M6.89325 237.634C6.87725 237.662 6.85992 237.683 6.84125 237.696C6.82392 237.708 6.80192 237.714 6.77525 237.714C6.74725 237.714 6.71658 237.704 6.68325 237.684C6.65125 237.663 6.61258 237.639 6.56725 237.614C6.52192 237.589 6.46858 237.566 6.40725 237.546C6.34725 237.525 6.27592 237.514 6.19325 237.514C6.11858 237.514 6.05325 237.523 5.99725 237.542C5.94125 237.559 5.89392 237.584 5.85525 237.616C5.81792 237.648 5.78992 237.687 5.77125 237.732C5.75258 237.776 5.74325 237.825 5.74325 237.878C5.74325 237.946 5.76192 238.003 5.79925 238.048C5.83792 238.093 5.88858 238.132 5.95125 238.164C6.01392 238.196 6.08525 238.225 6.16525 238.25C6.24525 238.275 6.32725 238.303 6.41125 238.332C6.49525 238.36 6.57725 238.393 6.65725 238.432C6.73725 238.469 6.80858 238.517 6.87125 238.576C6.93392 238.633 6.98392 238.704 7.02125 238.788C7.05992 238.872 7.07925 238.974 7.07925 239.094C7.07925 239.225 7.05658 239.347 7.01125 239.462C6.96725 239.575 6.90192 239.675 6.81525 239.76C6.72992 239.844 6.62525 239.911 6.50125 239.96C6.37725 240.008 6.23525 240.032 6.07525 240.032C5.98325 240.032 5.89258 240.023 5.80325 240.004C5.71392 239.987 5.62792 239.961 5.54525 239.928C5.46392 239.895 5.38725 239.855 5.31525 239.808C5.24325 239.761 5.17925 239.709 5.12325 239.652L5.28125 239.394C5.29458 239.375 5.31192 239.36 5.33325 239.348C5.35458 239.335 5.37725 239.328 5.40125 239.328C5.43458 239.328 5.47058 239.342 5.50925 239.37C5.54792 239.397 5.59392 239.427 5.64725 239.46C5.70058 239.493 5.76258 239.524 5.83325 239.552C5.90525 239.579 5.99125 239.592 6.09125 239.592C6.24458 239.592 6.36325 239.556 6.44725 239.484C6.53125 239.411 6.57325 239.306 6.57325 239.17C6.57325 239.094 6.55392 239.032 6.51525 238.984C6.47792 238.936 6.42792 238.896 6.36525 238.864C6.30258 238.831 6.23125 238.803 6.15125 238.78C6.07125 238.757 5.98992 238.733 5.90725 238.706C5.82458 238.679 5.74325 238.647 5.66325 238.61C5.58325 238.573 5.51192 238.524 5.44925 238.464C5.38658 238.404 5.33592 238.329 5.29725 238.24C5.25992 238.149 5.24125 238.038 5.24125 237.906C5.24125 237.801 5.26192 237.698 5.30325 237.598C5.34592 237.498 5.40725 237.409 5.48725 237.332C5.56725 237.255 5.66592 237.193 5.78325 237.146C5.90058 237.099 6.03525 237.076 6.18725 237.076C6.35792 237.076 6.51525 237.103 6.65925 237.156C6.80325 237.209 6.92592 237.284 7.02725 237.38L6.89325 237.634ZM8.08656 238.32H8.21256C8.26323 238.32 8.30523 238.313 8.33856 238.3C8.3719 238.285 8.40056 238.263 8.42456 238.232L9.22256 237.222C9.2559 237.179 9.29056 237.15 9.32656 237.134C9.3639 237.117 9.41056 237.108 9.46656 237.108H9.93056L8.95656 238.31C8.89923 238.383 8.8399 238.435 8.77856 238.466C8.82256 238.482 8.8619 238.505 8.89656 238.534C8.93256 238.562 8.96656 238.599 8.99856 238.646L10.0026 240H9.52856C9.46456 240 9.41656 239.991 9.38456 239.974C9.3539 239.955 9.3279 239.929 9.30656 239.894L8.48856 238.826C8.46323 238.79 8.4339 238.765 8.40056 238.75C8.36723 238.735 8.31923 238.728 8.25656 238.728H8.08656V240H7.54856V237.108H8.08656V238.32Z" fill="white"/>
<path fill-rule="evenodd" clip-rule="evenodd" d="M12.75 261H9V260H12.75V261Z" fill="white"/>
<path d="M9.25 260.501C4.83083 260.38 3.25306 263.981 3.25 265.515" stroke="white"/>
<path d="M7.14325 255.634C7.12725 255.662 7.10992 255.683 7.09125 255.696C7.07392 255.708 7.05192 255.714 7.02525 255.714C6.99725 255.714 6.96658 255.704 6.93325 255.684C6.90125 255.663 6.86258 255.639 6.81725 255.614C6.77192 255.589 6.71858 255.566 6.65725 255.546C6.59725 255.525 6.52592 255.514 6.44325 255.514C6.36858 255.514 6.30325 255.523 6.24725 255.542C6.19125 255.559 6.14392 255.584 6.10525 255.616C6.06792 255.648 6.03992 255.687 6.02125 255.732C6.00258 255.776 5.99325 255.825 5.99325 255.878C5.99325 255.946 6.01192 256.003 6.04925 256.048C6.08792 256.093 6.13858 256.132 6.20125 256.164C6.26392 256.196 6.33525 256.225 6.41525 256.25C6.49525 256.275 6.57725 256.303 6.66125 256.332C6.74525 256.36 6.82725 256.393 6.90725 256.432C6.98725 256.469 7.05858 256.517 7.12125 256.576C7.18392 256.633 7.23392 256.704 7.27125 256.788C7.30992 256.872 7.32925 256.974 7.32925 257.094C7.32925 257.225 7.30658 257.347 7.26125 257.462C7.21725 257.575 7.15192 257.675 7.06525 257.76C6.97992 257.844 6.87525 257.911 6.75125 257.96C6.62725 258.008 6.48525 258.032 6.32525 258.032C6.23325 258.032 6.14258 258.023 6.05325 258.004C5.96392 257.987 5.87792 257.961 5.79525 257.928C5.71392 257.895 5.63725 257.855 5.56525 257.808C5.49325 257.761 5.42925 257.709 5.37325 257.652L5.53125 257.394C5.54458 257.375 5.56192 257.36 5.58325 257.348C5.60458 257.335 5.62725 257.328 5.65125 257.328C5.68458 257.328 5.72058 257.342 5.75925 257.37C5.79792 257.397 5.84392 257.427 5.89725 257.46C5.95058 257.493 6.01258 257.524 6.08325 257.552C6.15525 257.579 6.24125 257.592 6.34125 257.592C6.49458 257.592 6.61325 257.556 6.69725 257.484C6.78125 257.411 6.82325 257.306 6.82325 257.17C6.82325 257.094 6.80392 257.032 6.76525 256.984C6.72792 256.936 6.67792 256.896 6.61525 256.864C6.55258 256.831 6.48125 256.803 6.40125 256.78C6.32125 256.757 6.23992 256.733 6.15725 256.706C6.07458 256.679 5.99325 256.647 5.91325 256.61C5.83325 256.573 5.76192 256.524 5.69925 256.464C5.63658 256.404 5.58592 256.329 5.54725 256.24C5.50992 256.149 5.49125 256.038 5.49125 255.906C5.49125 255.801 5.51192 255.698 5.55325 255.598C5.59592 255.498 5.65725 255.409 5.73725 255.332C5.81725 255.255 5.91592 255.193 6.03325 255.146C6.15058 255.099 6.28525 255.076 6.43725 255.076C6.60792 255.076 6.76525 255.103 6.90925 255.156C7.05325 255.209 7.17592 255.284 7.27725 255.38L7.14325 255.634ZM8.33656 256.32H8.46256C8.51323 256.32 8.55523 256.313 8.58856 256.3C8.6219 256.285 8.65056 256.263 8.67456 256.232L9.47256 255.222C9.5059 255.179 9.54056 255.15 9.57656 255.134C9.6139 255.117 9.66056 255.108 9.71656 255.108H10.1806L9.20656 256.31C9.14923 256.383 9.0899 256.435 9.02856 256.466C9.07256 256.482 9.1119 256.505 9.14656 256.534C9.18256 256.562 9.21656 256.599 9.24856 256.646L10.2526 258H9.77856C9.71456 258 9.66656 257.991 9.63456 257.974C9.6039 257.955 9.5779 257.929 9.55656 257.894L8.73856 256.826C8.71323 256.79 8.6839 256.765 8.65056 256.75C8.61723 256.735 8.56923 256.728 8.50656 256.728H8.33656V258H7.79856V255.108H8.33656V256.32Z" fill="white"/>
<path fill-rule="evenodd" clip-rule="evenodd" d="M12.75 279H9V278H12.75V279Z" fill="#FF9300"/>
<path d="M9.25 278.501C4.83083 278.38 3.25306 281.981 3.25 283.515" stroke="#FF9300"/>
<path d="M7.14325 273.634C7.12725 273.662 7.10992 273.683 7.09125 273.696C7.07392 273.708 7.05192 273.714 7.02525 273.714C6.99725 273.714 6.96658 273.704 6.93325 273.684C6.90125 273.663 6.86258 273.639 6.81725 273.614C6.77192 273.589 6.71858 273.566 6.65725 273.546C6.59725 273.525 6.52592 273.514 6.44325 273.514C6.36858 273.514 6.30325 273.523 6.24725 273.542C6.19125 273.559 6.14392 273.584 6.10525 273.616C6.06792 273.648 6.03992 273.687 6.02125 273.732C6.00258 273.776 5.99325 273.825 5.99325 273.878C5.99325 273.946 6.01192 274.003 6.04925 274.048C6.08792 274.093 6.13858 274.132 6.20125 274.164C6.26392 274.196 6.33525 274.225 6.41525 274.25C6.49525 274.275 6.57725 274.303 6.66125 274.332C6.74525 274.36 6.82725 274.393 6.90725 274.432C6.98725 274.469 7.05858 274.517 7.12125 274.576C7.18392 274.633 7.23392 274.704 7.27125 274.788C7.30992 274.872 7.32925 274.974 7.32925 275.094C7.32925 275.225 7.30658 275.347 7.26125 275.462C7.21725 275.575 7.15192 275.675 7.06525 275.76C6.97992 275.844 6.87525 275.911 6.75125 275.96C6.62725 276.008 6.48525 276.032 6.32525 276.032C6.23325 276.032 6.14258 276.023 6.05325 276.004C5.96392 275.987 5.87792 275.961 5.79525 275.928C5.71392 275.895 5.63725 275.855 5.56525 275.808C5.49325 275.761 5.42925 275.709 5.37325 275.652L5.53125 275.394C5.54458 275.375 5.56192 275.36 5.58325 275.348C5.60458 275.335 5.62725 275.328 5.65125 275.328C5.68458 275.328 5.72058 275.342 5.75925 275.37C5.79792 275.397 5.84392 275.427 5.89725 275.46C5.95058 275.493 6.01258 275.524 6.08325 275.552C6.15525 275.579 6.24125 275.592 6.34125 275.592C6.49458 275.592 6.61325 275.556 6.69725 275.484C6.78125 275.411 6.82325 275.306 6.82325 275.17C6.82325 275.094 6.80392 275.032 6.76525 274.984C6.72792 274.936 6.67792 274.896 6.61525 274.864C6.55258 274.831 6.48125 274.803 6.40125 274.78C6.32125 274.757 6.23992 274.733 6.15725 274.706C6.07458 274.679 5.99325 274.647 5.91325 274.61C5.83325 274.573 5.76192 274.524 5.69925 274.464C5.63658 274.404 5.58592 274.329 5.54725 274.24C5.50992 274.149 5.49125 274.038 5.49125 273.906C5.49125 273.801 5.51192 273.698 5.55325 273.598C5.59592 273.498 5.65725 273.409 5.73725 273.332C5.81725 273.255 5.91592 273.193 6.03325 273.146C6.15058 273.099 6.28525 273.076 6.43725 273.076C6.60792 273.076 6.76525 273.103 6.90925 273.156C7.05325 273.209 7.17592 273.284 7.27725 273.38L7.14325 273.634ZM8.33656 274.32H8.46256C8.51323 274.32 8.55523 274.313 8.58856 274.3C8.6219 274.285 8.65056 274.263 8.67456 274.232L9.47256 273.222C9.5059 273.179 9.54056 273.15 9.57656 273.134C9.6139 273.117 9.66056 273.108 9.71656 273.108H10.1806L9.20656 274.31C9.14923 274.383 9.0899 274.435 9.02856 274.466C9.07256 274.482 9.1119 274.505 9.14656 274.534C9.18256 274.562 9.21656 274.599 9.24856 274.646L10.2526 276H9.77856C9.71456 276 9.66656 275.991 9.63456 275.974C9.6039 275.955 9.5779 275.929 9.55656 275.894L8.73856 274.826C8.71323 274.79 8.6839 274.765 8.65056 274.75C8.61723 274.735 8.56923 274.728 8.50656 274.728H8.33656V276H7.79856V273.108H8.33656V274.32Z" fill="#FF9300"/>
</svg>
