<?xml version="1.0" encoding="utf-8"?>
<svg width="51px" height="117px" viewBox="0 0 51 117" version="1.1" xmlns="http://www.w3.org/2000/svg">
  <g id="bmp00146" stroke="#FFFFFF" stroke-width="1" fill="none" fill-rule="evenodd">
    <path d="M9.6965,5.2625 L9.6965,7.517 L12.347,7.517 L12.347,8.228 L9.6965,8.228 L9.6965,11 L8.8235,11 L8.8235,4.5515 L12.797,4.5515 L12.797,5.2625 L9.6965,5.2625 Z M14.2975,7.355 C14.4415007,7.04299844 14.618499,6.79925088 14.8285,6.62375 C15.038501,6.44824912 15.2949985,6.3605 15.598,6.3605 C15.6940005,6.3605 15.7862496,6.37099989 15.87475,6.392 C15.9632504,6.41300011 16.0419997,6.44599977 16.111,6.491 L16.0525,7.0895 C16.0344999,7.16450037 15.9895004,7.202 15.9175,7.202 C15.8754998,7.202 15.8140004,7.19300009 15.733,7.175 C15.6519996,7.15699991 15.5605005,7.148 15.4585,7.148 C15.3144993,7.148 15.1862506,7.16899979 15.07375,7.211 C14.9612494,7.25300021 14.8607504,7.31524959 14.77225,7.39775 C14.6837496,7.48025041 14.6042504,7.58224939 14.53375,7.70375 C14.4632496,7.82525061 14.3995003,7.96399922 14.3425,8.12 L14.3425,11 L13.537,11 L13.537,6.4415 L13.996,6.4415 C14.0830004,6.4415 14.1429998,6.45799983 14.176,6.491 C14.2090002,6.52400016 14.2314999,6.58099959 14.2435,6.662 L14.2975,7.355 Z M19.8795,8.2235 C19.8795,8.03749907 19.8532503,7.86725077 19.80075,7.71275 C19.7482497,7.55824923 19.6717505,7.42475056 19.57125,7.31225 C19.4707495,7.19974944 19.3485007,7.11275031 19.2045,7.05125 C19.0604993,6.98974969 18.8970009,6.959 18.714,6.959 C18.3299981,6.959 18.0262511,7.07074888 17.80275,7.29425 C17.5792489,7.51775112 17.4405003,7.82749802 17.3865,8.2235 L19.8795,8.2235 Z M20.5275,10.361 C20.4284995,10.4810006 20.3100007,10.5852496 20.172,10.67375 C20.0339993,10.7622504 19.8862508,10.8349997 19.72875,10.892 C19.5712492,10.9490003 19.4085008,10.9917499 19.2405,11.02025 C19.0724992,11.0487501 18.9060008,11.063 18.741,11.063 C18.4259984,11.063 18.1357513,11.0097505 17.87025,10.90325 C17.6047487,10.7967495 17.375251,10.640751 17.18175,10.43525 C16.988249,10.229749 16.8375005,9.97550151 16.7295,9.6725 C16.6214995,9.36949849 16.5675,9.02150197 16.5675,8.6285 C16.5675,8.31049841 16.6162495,8.01350138 16.71375,7.7375 C16.8112505,7.46149862 16.9514991,7.22225101 17.1345,7.01975 C17.3175009,6.81724899 17.5409987,6.65825058 17.805,6.54275 C18.0690013,6.42724942 18.3659984,6.3695 18.696,6.3695 C18.9690014,6.3695 19.2217488,6.41524954 19.45425,6.50675 C19.6867512,6.59825046 19.8877492,6.73024914 20.05725,6.90275 C20.2267508,7.07525086 20.3594995,7.28824873 20.4555,7.54175 C20.5515005,7.79525127 20.5995,8.08399838 20.5995,8.408 C20.5995,8.53400063 20.5860001,8.61799979 20.559,8.66 C20.5319999,8.70200021 20.4810004,8.723 20.406,8.723 L17.3595,8.723 C17.3685,9.01100144 17.4082496,9.26149894 17.47875,9.4745 C17.5492504,9.68750107 17.6474994,9.86524929 17.7735,10.00775 C17.8995006,10.1502507 18.0494991,10.2567496 18.2235,10.32725 C18.3975009,10.3977504 18.5924989,10.433 18.8085,10.433 C19.009501,10.433 19.1827493,10.4097502 19.32825,10.36325 C19.4737507,10.3167498 19.5989995,10.2665003 19.704,10.2125 C19.8090005,10.1584997 19.8967496,10.1082502 19.96725,10.06175 C20.0377504,10.0152498 20.0984997,9.992 20.1495,9.992 C20.2155003,9.992 20.2664998,10.0174997 20.3025,10.0685 L20.5275,10.361 Z M24.8315,8.2235 C24.8315,8.03749907 24.8052503,7.86725077 24.75275,7.71275 C24.7002497,7.55824923 24.6237505,7.42475056 24.52325,7.31225 C24.4227495,7.19974944 24.3005007,7.11275031 24.1565,7.05125 C24.0124993,6.98974969 23.8490009,6.959 23.666,6.959 C23.2819981,6.959 22.9782511,7.07074888 22.75475,7.29425 C22.5312489,7.51775112 22.3925003,7.82749802 22.3385,8.2235 L24.8315,8.2235 Z M25.4795,10.361 C25.3804995,10.4810006 25.2620007,10.5852496 25.124,10.67375 C24.9859993,10.7622504 24.8382508,10.8349997 24.68075,10.892 C24.5232492,10.9490003 24.3605008,10.9917499 24.1925,11.02025 C24.0244992,11.0487501 23.8580008,11.063 23.693,11.063 C23.3779984,11.063 23.0877513,11.0097505 22.82225,10.90325 C22.5567487,10.7967495 22.327251,10.640751 22.13375,10.43525 C21.940249,10.229749 21.7895005,9.97550151 21.6815,9.6725 C21.5734995,9.36949849 21.5195,9.02150197 21.5195,8.6285 C21.5195,8.31049841 21.5682495,8.01350138 21.66575,7.7375 C21.7632505,7.46149862 21.9034991,7.22225101 22.0865,7.01975 C22.2695009,6.81724899 22.4929987,6.65825058 22.757,6.54275 C23.0210013,6.42724942 23.3179984,6.3695 23.648,6.3695 C23.9210014,6.3695 24.1737488,6.41524954 24.40625,6.50675 C24.6387512,6.59825046 24.8397492,6.73024914 25.00925,6.90275 C25.1787508,7.07525086 25.3114995,7.28824873 25.4075,7.54175 C25.5035005,7.79525127 25.5515,8.08399838 25.5515,8.408 C25.5515,8.53400063 25.5380001,8.61799979 25.511,8.66 C25.4839999,8.70200021 25.4330004,8.723 25.358,8.723 L22.3115,8.723 C22.3205,9.01100144 22.3602496,9.26149894 22.43075,9.4745 C22.5012504,9.68750107 22.5994994,9.86524929 22.7255,10.00775 C22.8515006,10.1502507 23.0014991,10.2567496 23.1755,10.32725 C23.3495009,10.3977504 23.5444989,10.433 23.7605,10.433 C23.961501,10.433 24.1347493,10.4097502 24.28025,10.36325 C24.4257507,10.3167498 24.5509995,10.2665003 24.656,10.2125 C24.7610005,10.1584997 24.8487496,10.1082502 24.91925,10.06175 C24.9897504,10.0152498 25.0504997,9.992 25.1015,9.992 C25.1675003,9.992 25.2184998,10.0174997 25.2545,10.0685 L25.4795,10.361 Z M27.493,7.355 C27.6370007,7.04299844 27.813999,6.79925088 28.024,6.62375 C28.2340011,6.44824912 28.4904985,6.3605 28.7935,6.3605 C28.8895005,6.3605 28.9817496,6.37099989 29.07025,6.392 C29.1587504,6.41300011 29.2374997,6.44599977 29.3065,6.491 L29.248,7.0895 C29.2299999,7.16450037 29.1850004,7.202 29.113,7.202 C29.0709998,7.202 29.0095004,7.19300009 28.9285,7.175 C28.8474996,7.15699991 28.7560005,7.148 28.654,7.148 C28.5099993,7.148 28.3817506,7.16899979 28.26925,7.211 C28.1567494,7.25300021 28.0562504,7.31524959 27.96775,7.39775 C27.8792496,7.48025041 27.7997504,7.58224939 27.72925,7.70375 C27.6587496,7.82525061 27.5950003,7.96399922 27.538,8.12 L27.538,11 L26.7325,11 L26.7325,6.4415 L27.1915,6.4415 C27.2785004,6.4415 27.3384998,6.45799983 27.3715,6.491 C27.4045002,6.52400016 27.4269999,6.58099959 27.439,6.662 L27.493,7.355 Z M33.957,6.4415 L33.957,11 L33.48,11 C33.3659994,11 33.2940002,10.9445006 33.264,10.8335 L33.201,10.343 C33.002999,10.5620011 32.7810012,10.7382493 32.535,10.87175 C32.2889988,11.0052507 32.0070016,11.072 31.689,11.072 C31.4399988,11.072 31.220251,11.0307504 31.02975,10.94825 C30.839249,10.8657496 30.6795006,10.7495007 30.5505,10.5995 C30.4214994,10.4494992 30.3247503,10.2680011 30.26025,10.055 C30.1957497,9.84199893 30.1635,9.60650129 30.1635,9.3485 L30.1635,6.4415 L30.9645,6.4415 L30.9645,9.3485 C30.9645,9.69350173 31.0432492,9.96049905 31.20075,10.1495 C31.3582508,10.3385009 31.5989984,10.433 31.923,10.433 C32.1600012,10.433 32.381249,10.3767506 32.58675,10.26425 C32.792251,10.1517494 32.9819991,9.99650099 33.156,9.7985 L33.156,6.4415 L33.957,6.4415 Z M36.182,7.103 C36.2810005,6.99199944 36.3859994,6.89150045 36.497,6.8015 C36.6080006,6.71149955 36.7257494,6.63425032 36.85025,6.56975 C36.9747506,6.50524968 37.1067493,6.45575017 37.24625,6.42125 C37.3857507,6.38674983 37.5364992,6.3695 37.6985,6.3695 C37.9475012,6.3695 38.167249,6.41074959 38.35775,6.49325 C38.548251,6.57575041 38.7072494,6.69274924 38.83475,6.84425 C38.9622506,6.99575076 39.0589997,7.17799893 39.125,7.391 C39.1910003,7.60400106 39.224,7.83949871 39.224,8.0975 L39.224,11 L38.4185,11 L38.4185,8.0975 C38.4185,7.75249827 38.3397508,7.48475095 38.18225,7.29425 C38.0247492,7.10374905 37.7855016,7.0085 37.4645,7.0085 C37.2274988,7.0085 37.006251,7.06549943 36.80075,7.1795 C36.595249,7.29350057 36.4055009,7.44799902 36.2315,7.643 L36.2315,11 L35.426,11 L35.426,6.4415 L35.9075,6.4415 C36.0215006,6.4415 36.0919999,6.49699945 36.119,6.608 L36.182,7.103 Z" id="Freerun" fill="#000000" fill-rule="nonzero"/>
    <path d="M4.692,58.3775 L5.0205,58.3775 C5.13450057,58.3775 5.22599965,58.3632501 5.295,58.33475 C5.36400034,58.3062499 5.42699971,58.2575003 5.484,58.1885 L7.6305,55.7585 C7.6905003,55.6804996 7.75349967,55.6265001 7.8195,55.5965 C7.88550033,55.5664998 7.96649952,55.5515 8.0625,55.5515 L8.8005,55.5515 L6.3435,58.328 C6.2834997,58.4000004 6.22575028,58.4592498 6.17025,58.50575 C6.11474972,58.5522502 6.05550031,58.5904999 5.9925,58.6205 C6.0735004,58.6475001 6.14699967,58.6872497 6.213,58.73975 C6.27900033,58.7922503 6.34349968,58.8604996 6.4065,58.9445 L8.9715,62 L8.2155,62 C8.15849971,62 8.1097502,61.99625 8.06925,61.98875 C8.0287498,61.98125 7.99350015,61.9692501 7.9635,61.95275 C7.93349985,61.9362499 7.90725011,61.9167501 7.88475,61.89425 C7.86224989,61.8717499 7.8405001,61.8455001 7.8195,61.8155 L5.5965,59.255 C5.5364997,59.1799996 5.47200034,59.1267502 5.403,59.09525 C5.33399965,59.0637498 5.2290007,59.048 5.088,59.048 L4.692,59.048 L4.692,62 L3.8235,62 L3.8235,55.5515 L4.692,55.5515 L4.692,58.3775 Z M12.606,59.2235 C12.606,59.0374991 12.5797503,58.8672508 12.52725,58.71275 C12.4747497,58.5582492 12.3982505,58.4247506 12.29775,58.31225 C12.1972495,58.1997494 12.0750007,58.1127503 11.931,58.05125 C11.7869993,57.9897497 11.6235009,57.959 11.4405,57.959 C11.0564981,57.959 10.7527511,58.0707489 10.52925,58.29425 C10.3057489,58.5177511 10.1670003,58.827498 10.113,59.2235 L12.606,59.2235 Z M13.254,61.361 C13.1549995,61.4810006 13.0365007,61.5852496 12.8985,61.67375 C12.7604993,61.7622504 12.6127508,61.8349997 12.45525,61.892 C12.2977492,61.9490003 12.1350008,61.9917499 11.967,62.02025 C11.7989992,62.0487501 11.6325008,62.063 11.4675,62.063 C11.1524984,62.063 10.8622513,62.0097505 10.59675,61.90325 C10.3312487,61.7967495 10.101751,61.640751 9.90825,61.43525 C9.71474903,61.229749 9.56400054,60.9755015 9.456,60.6725 C9.34799946,60.3694985 9.294,60.021502 9.294,59.6285 C9.294,59.3104984 9.34274951,59.0135014 9.44025,58.7375 C9.53775049,58.4614986 9.67799908,58.222251 9.861,58.01975 C10.0440009,57.817249 10.2674987,57.6582506 10.5315,57.54275 C10.7955013,57.4272494 11.0924983,57.3695 11.4225,57.3695 C11.6955014,57.3695 11.9482488,57.4152495 12.18075,57.50675 C12.4132512,57.5982505 12.6142492,57.7302491 12.78375,57.90275 C12.9532508,58.0752509 13.0859995,58.2882487 13.182,58.54175 C13.2780005,58.7952513 13.326,59.0839984 13.326,59.408 C13.326,59.5340006 13.3125001,59.6179998 13.2855,59.66 C13.2584999,59.7020002 13.2075004,59.723 13.1325,59.723 L10.086,59.723 C10.095,60.0110014 10.1347496,60.2614989 10.20525,60.4745 C10.2757504,60.6875011 10.3739994,60.8652493 10.5,61.00775 C10.6260006,61.1502507 10.7759991,61.2567496 10.95,61.32725 C11.1240009,61.3977504 11.3189989,61.433 11.535,61.433 C11.736001,61.433 11.9092493,61.4097502 12.05475,61.36325 C12.2002507,61.3167498 12.3254995,61.2665003 12.4305,61.2125 C12.5355005,61.1584997 12.6232496,61.1082502 12.69375,61.06175 C12.7642504,61.0152498 12.8249997,60.992 12.876,60.992 C12.9420003,60.992 12.9929998,61.0174997 13.029,61.0685 L13.254,61.361 Z M18.423,57.4415 L15.8805,63.3455 C15.8534999,63.4055003 15.8197502,63.4534998 15.77925,63.4895 C15.7387498,63.5255002 15.6765004,63.5435 15.5925,63.5435 L14.9985,63.5435 L15.831,61.7345 L13.95,57.4415 L14.643,57.4415 C14.7120003,57.4415 14.7667498,57.4587498 14.80725,57.49325 C14.8477502,57.5277502 14.8754999,57.5659998 14.8905,57.608 L16.11,60.479 C16.1580002,60.6050006 16.1984998,60.7369993 16.2315,60.875 C16.2735002,60.7339993 16.3184998,60.6005006 16.3665,60.4745 L17.55,57.608 C17.5680001,57.5599998 17.5987498,57.5202502 17.64225,57.48875 C17.6857502,57.4572498 17.7344997,57.4415 17.7885,57.4415 L18.423,57.4415 Z M20.829,62.072 C20.4689982,62.072 20.192251,61.971501 19.99875,61.7705 C19.805249,61.569499 19.7085,61.2800019 19.7085,60.902 L19.7085,58.112 L19.1595,58.112 C19.1114998,58.112 19.0710002,58.0977501 19.038,58.06925 C19.0049998,58.0407499 18.9885,57.9965003 18.9885,57.9365 L18.9885,57.617 L19.7355,57.5225 L19.92,56.114 C19.929,56.0689998 19.9492498,56.0322501 19.98075,56.00375 C20.0122502,55.9752499 20.0534997,55.961 20.1045,55.961 L20.5095,55.961 L20.5095,57.5315 L21.828,57.5315 L21.828,58.112 L20.5095,58.112 L20.5095,60.848 C20.5095,61.040001 20.5559995,61.1824995 20.649,61.2755 C20.7420005,61.3685005 20.8619993,61.415 21.009,61.415 C21.0930004,61.415 21.1657497,61.4037501 21.22725,61.38125 C21.2887503,61.3587499 21.3419998,61.3340001 21.387,61.307 C21.4320002,61.2799999 21.4702498,61.2552501 21.50175,61.23275 C21.5332502,61.2102499 21.5609999,61.199 21.585,61.199 C21.6270002,61.199 21.6644998,61.2244997 21.6975,61.2755 L21.9315,61.658 C21.7934993,61.7870006 21.627001,61.8882496 21.432,61.96175 C21.236999,62.0352504 21.036001,62.072 20.829,62.072 Z M23.7165,58.355 C23.8605007,58.0429984 24.0374989,57.7992509 24.2475,57.62375 C24.4575011,57.4482491 24.7139985,57.3605 25.017,57.3605 C25.1130005,57.3605 25.2052496,57.3709999 25.29375,57.392 C25.3822504,57.4130001 25.4609997,57.4459998 25.53,57.491 L25.4715,58.0895 C25.4534999,58.1645004 25.4085004,58.202 25.3365,58.202 C25.2944998,58.202 25.2330004,58.1930001 25.152,58.175 C25.0709996,58.1569999 24.9795005,58.148 24.8775,58.148 C24.7334993,58.148 24.6052506,58.1689998 24.49275,58.211 C24.3802494,58.2530002 24.2797504,58.3152496 24.19125,58.39775 C24.1027496,58.4802504 24.0232504,58.5822494 23.95275,58.70375 C23.8822496,58.8252506 23.8185003,58.9639992 23.7615,59.12 L23.7615,62 L22.956,62 L22.956,57.4415 L23.415,57.4415 C23.5020004,57.4415 23.5619998,57.4579998 23.595,57.491 C23.6280002,57.5240002 23.6504999,57.5809996 23.6625,57.662 L23.7165,58.355 Z M27.378,57.4415 L27.378,62 L26.577,62 L26.577,57.4415 L27.378,57.4415 Z M27.549,56.0105 C27.549,56.0885004 27.5332502,56.1612497 27.50175,56.22875 C27.4702498,56.2962503 27.4282503,56.3562497 27.37575,56.40875 C27.3232497,56.4612503 27.2617504,56.5024998 27.19125,56.5325 C27.1207496,56.5625001 27.0465004,56.5775 26.9685,56.5775 C26.8904996,56.5775 26.8177503,56.5625001 26.75025,56.5325 C26.6827497,56.5024998 26.6235003,56.4612503 26.5725,56.40875 C26.5214997,56.3562497 26.4810001,56.2962503 26.451,56.22875 C26.4209998,56.1612497 26.406,56.0885004 26.406,56.0105 C26.406,55.9324996 26.4209998,55.8582504 26.451,55.78775 C26.4810001,55.7172496 26.5214997,55.6557503 26.5725,55.60325 C26.6235003,55.5507497 26.6827497,55.5095002 26.75025,55.4795 C26.8177503,55.4494999 26.8904996,55.4345 26.9685,55.4345 C27.0465004,55.4345 27.1207496,55.4494999 27.19125,55.4795 C27.2617504,55.5095002 27.3232497,55.5507497 27.37575,55.60325 C27.4282503,55.6557503 27.4702498,55.7172496 27.50175,55.78775 C27.5332502,55.8582504 27.549,55.9324996 27.549,56.0105 Z M30.5805,59.7725 C30.7425008,59.7725 30.8849994,59.7500002 31.008,59.705 C31.1310006,59.6599998 31.2344996,59.5970004 31.3185,59.516 C31.4025004,59.4349996 31.4654998,59.3382506 31.5075,59.22575 C31.5495002,59.1132494 31.5705,58.9895007 31.5705,58.8545 C31.5705,58.5754986 31.4857508,58.3535008 31.31625,58.1885 C31.1467492,58.0234992 30.9015016,57.941 30.5805,57.941 C30.2564984,57.941 30.0097508,58.0234992 29.84025,58.1885 C29.6707492,58.3535008 29.586,58.5754986 29.586,58.8545 C29.586,58.9895007 29.6077498,59.1132494 29.65125,59.22575 C29.6947502,59.3382506 29.7584996,59.4349996 29.8425,59.516 C29.9265004,59.5970004 30.0299994,59.6599998 30.153,59.705 C30.2760006,59.7500002 30.4184992,59.7725 30.5805,59.7725 Z M32.025,62.2475 C32.025,62.1364994 31.9935003,62.0465003 31.9305,61.9775 C31.8674997,61.9084997 31.7827505,61.8545002 31.67625,61.8155 C31.5697495,61.7764998 31.4460007,61.7487501 31.305,61.73225 C31.1639993,61.7157499 31.0147508,61.703 30.85725,61.694 C30.6997492,61.685 30.5400008,61.676 30.378,61.667 C30.2159992,61.658 30.0600008,61.6430001 29.91,61.622 C29.7419992,61.7000004 29.6047505,61.7982494 29.49825,61.91675 C29.3917495,62.0352506 29.3385,62.1739992 29.3385,62.333 C29.3385,62.4350005 29.3647497,62.5302496 29.41725,62.61875 C29.4697503,62.7072504 29.5499995,62.7837497 29.658,62.84825 C29.7660005,62.9127503 29.9017492,62.9637498 30.06525,63.00125 C30.2287508,63.0387502 30.4214989,63.0575 30.6435,63.0575 C30.8595011,63.0575 31.0529991,63.0380002 31.224,62.999 C31.3950009,62.9599998 31.5397494,62.9045004 31.65825,62.8325 C31.7767506,62.7604996 31.8674997,62.6750005 31.9305,62.576 C31.9935003,62.4769995 32.025,62.3675006 32.025,62.2475 Z M32.8395,57.6215 L32.8395,57.9185 C32.8395,58.0175005 32.7765006,58.0804999 32.6505,58.1075 L32.133,58.175 C32.2350005,58.373001 32.286,58.5919988 32.286,58.832 C32.286,59.0540011 32.2432504,59.2557491 32.15775,59.43725 C32.0722496,59.6187509 31.9545007,59.7739994 31.8045,59.903 C31.6544992,60.0320006 31.474501,60.1309997 31.2645,60.2 C31.0544989,60.2690003 30.8265012,60.3035 30.5805,60.3035 C30.3674989,60.3035 30.1665009,60.2780003 29.9775,60.227 C29.8814995,60.2870003 29.8080003,60.3507497 29.757,60.41825 C29.7059997,60.4857503 29.6805,60.5539997 29.6805,60.623 C29.6805,60.7310005 29.7247496,60.8127497 29.81325,60.86825 C29.9017504,60.9237503 30.0179993,60.9634999 30.162,60.9875 C30.3060007,61.0115001 30.4702491,61.0265 30.65475,61.0325 C30.8392509,61.0385 31.028249,61.0482499 31.22175,61.06175 C31.415251,61.0752501 31.6042491,61.0984998 31.78875,61.1315 C31.9732509,61.1645002 32.1374993,61.2184996 32.2815,61.2935 C32.4255007,61.3685004 32.5417496,61.4719993 32.63025,61.604 C32.7187504,61.7360007 32.763,61.906999 32.763,62.117 C32.763,62.312001 32.7142505,62.5009991 32.61675,62.684 C32.5192495,62.8670009 32.3790009,63.0297493 32.196,63.17225 C32.0129991,63.3147507 31.7887513,63.4287496 31.52325,63.51425 C31.2577487,63.5997504 30.9585017,63.6425 30.6255,63.6425 C30.2924983,63.6425 30.0015012,63.6095003 29.7525,63.5435 C29.5034988,63.4774997 29.2965008,63.3890006 29.1315,63.278 C28.9664992,63.1669994 28.8427504,63.0387507 28.76025,62.89325 C28.6777496,62.7477493 28.6365,62.5955008 28.6365,62.4365 C28.6365,62.2114989 28.7069993,62.0210008 28.848,61.865 C28.9890007,61.7089992 29.1824988,61.5845005 29.4285,61.4915 C29.2934993,61.4314997 29.1862504,61.3512505 29.10675,61.25075 C29.0272496,61.1502495 28.9875,61.0145009 28.9875,60.8435 C28.9875,60.7774997 28.9994999,60.7092504 29.0235,60.63875 C29.0475001,60.5682496 29.0842498,60.4977504 29.13375,60.42725 C29.1832502,60.3567496 29.2439996,60.2900003 29.316,60.227 C29.3880004,60.1639997 29.4719995,60.1085002 29.568,60.0605 C29.3429989,59.9344994 29.1675006,59.767251 29.0415,59.55875 C28.9154994,59.350249 28.8525,59.1080014 28.8525,58.832 C28.8525,58.6099989 28.8952496,58.4082509 28.98075,58.22675 C29.0662504,58.0452491 29.1854992,57.8907506 29.3385,57.76325 C29.4915008,57.6357494 29.6737489,57.5375003 29.88525,57.4685 C30.0967511,57.3994997 30.3284987,57.365 30.5805,57.365 C30.778501,57.365 30.9629991,57.3867498 31.134,57.43025 C31.3050009,57.4737502 31.4609993,57.5374996 31.602,57.6215 L32.8395,57.6215 Z M35.5425,59.7725 C35.7045008,59.7725 35.8469994,59.7500002 35.97,59.705 C36.0930006,59.6599998 36.1964996,59.5970004 36.2805,59.516 C36.3645004,59.4349996 36.4274998,59.3382506 36.4695,59.22575 C36.5115002,59.1132494 36.5325,58.9895007 36.5325,58.8545 C36.5325,58.5754986 36.4477508,58.3535008 36.27825,58.1885 C36.1087492,58.0234992 35.8635016,57.941 35.5425,57.941 C35.2184984,57.941 34.9717508,58.0234992 34.80225,58.1885 C34.6327492,58.3535008 34.548,58.5754986 34.548,58.8545 C34.548,58.9895007 34.5697498,59.1132494 34.61325,59.22575 C34.6567502,59.3382506 34.7204996,59.4349996 34.8045,59.516 C34.8885004,59.5970004 34.9919994,59.6599998 35.115,59.705 C35.2380006,59.7500002 35.3804992,59.7725 35.5425,59.7725 Z M36.987,62.2475 C36.987,62.1364994 36.9555003,62.0465003 36.8925,61.9775 C36.8294997,61.9084997 36.7447505,61.8545002 36.63825,61.8155 C36.5317495,61.7764998 36.4080007,61.7487501 36.267,61.73225 C36.1259993,61.7157499 35.9767508,61.703 35.81925,61.694 C35.6617492,61.685 35.5020008,61.676 35.34,61.667 C35.1779992,61.658 35.0220007,61.6430001 34.872,61.622 C34.7039992,61.7000004 34.5667505,61.7982494 34.46025,61.91675 C34.3537495,62.0352506 34.3005,62.1739992 34.3005,62.333 C34.3005,62.4350005 34.3267497,62.5302496 34.37925,62.61875 C34.4317503,62.7072504 34.5119995,62.7837497 34.62,62.84825 C34.7280005,62.9127503 34.8637492,62.9637498 35.02725,63.00125 C35.1907508,63.0387502 35.3834989,63.0575 35.6055,63.0575 C35.8215011,63.0575 36.0149991,63.0380002 36.186,62.999 C36.3570009,62.9599998 36.5017494,62.9045004 36.62025,62.8325 C36.7387506,62.7604996 36.8294997,62.6750005 36.8925,62.576 C36.9555003,62.4769995 36.987,62.3675006 36.987,62.2475 Z M37.8015,57.6215 L37.8015,57.9185 C37.8015,58.0175005 37.7385006,58.0804999 37.6125,58.1075 L37.095,58.175 C37.1970005,58.373001 37.248,58.5919988 37.248,58.832 C37.248,59.0540011 37.2052504,59.2557491 37.11975,59.43725 C37.0342496,59.6187509 36.9165007,59.7739994 36.7665,59.903 C36.6164992,60.0320006 36.436501,60.1309997 36.2265,60.2 C36.0164989,60.2690003 35.7885012,60.3035 35.5425,60.3035 C35.3294989,60.3035 35.1285009,60.2780003 34.9395,60.227 C34.8434995,60.2870003 34.7700003,60.3507497 34.719,60.41825 C34.6679997,60.4857503 34.6425,60.5539997 34.6425,60.623 C34.6425,60.7310005 34.6867496,60.8127497 34.77525,60.86825 C34.8637504,60.9237503 34.9799993,60.9634999 35.124,60.9875 C35.2680007,61.0115001 35.4322491,61.0265 35.61675,61.0325 C35.8012509,61.0385 35.990249,61.0482499 36.18375,61.06175 C36.377251,61.0752501 36.5662491,61.0984998 36.75075,61.1315 C36.9352509,61.1645002 37.0994993,61.2184996 37.2435,61.2935 C37.3875007,61.3685004 37.5037496,61.4719993 37.59225,61.604 C37.6807504,61.7360007 37.725,61.906999 37.725,62.117 C37.725,62.312001 37.6762505,62.5009991 37.57875,62.684 C37.4812495,62.8670009 37.3410009,63.0297493 37.158,63.17225 C36.9749991,63.3147507 36.7507513,63.4287496 36.48525,63.51425 C36.2197487,63.5997504 35.9205017,63.6425 35.5875,63.6425 C35.2544983,63.6425 34.9635012,63.6095003 34.7145,63.5435 C34.4654988,63.4774997 34.2585008,63.3890006 34.0935,63.278 C33.9284992,63.1669994 33.8047504,63.0387507 33.72225,62.89325 C33.6397496,62.7477493 33.5985,62.5955008 33.5985,62.4365 C33.5985,62.2114989 33.6689993,62.0210008 33.81,61.865 C33.9510007,61.7089992 34.1444988,61.5845005 34.3905,61.4915 C34.2554993,61.4314997 34.1482504,61.3512505 34.06875,61.25075 C33.9892496,61.1502495 33.9495,61.0145009 33.9495,60.8435 C33.9495,60.7774997 33.9614999,60.7092504 33.9855,60.63875 C34.0095001,60.5682496 34.0462498,60.4977504 34.09575,60.42725 C34.1452502,60.3567496 34.2059996,60.2900003 34.278,60.227 C34.3500004,60.1639997 34.4339995,60.1085002 34.53,60.0605 C34.3049989,59.9344994 34.1295006,59.767251 34.0035,59.55875 C33.8774994,59.350249 33.8145,59.1080014 33.8145,58.832 C33.8145,58.6099989 33.8572496,58.4082509 33.94275,58.22675 C34.0282504,58.0452491 34.1474992,57.8907506 34.3005,57.76325 C34.4535008,57.6357494 34.6357489,57.5375003 34.84725,57.4685 C35.0587511,57.3994997 35.2904987,57.365 35.5425,57.365 C35.740501,57.365 35.9249991,57.3867498 36.096,57.43025 C36.2670009,57.4737502 36.4229993,57.5374996 36.564,57.6215 L37.8015,57.6215 Z M41.913,59.2235 C41.913,59.0374991 41.8867503,58.8672508 41.83425,58.71275 C41.7817497,58.5582492 41.7052505,58.4247506 41.60475,58.31225 C41.5042495,58.1997494 41.3820007,58.1127503 41.238,58.05125 C41.0939993,57.9897497 40.9305009,57.959 40.7475,57.959 C40.3634981,57.959 40.0597511,58.0707489 39.83625,58.29425 C39.6127489,58.5177511 39.4740003,58.827498 39.42,59.2235 L41.913,59.2235 Z M42.561,61.361 C42.4619995,61.4810006 42.3435007,61.5852496 42.2055,61.67375 C42.0674993,61.7622504 41.9197508,61.8349997 41.76225,61.892 C41.6047492,61.9490003 41.4420008,61.9917499 41.274,62.02025 C41.1059992,62.0487501 40.9395008,62.063 40.7745,62.063 C40.4594984,62.063 40.1692513,62.0097505 39.90375,61.90325 C39.6382487,61.7967495 39.408751,61.640751 39.21525,61.43525 C39.021749,61.229749 38.8710005,60.9755015 38.763,60.6725 C38.6549995,60.3694985 38.601,60.021502 38.601,59.6285 C38.601,59.3104984 38.6497495,59.0135014 38.74725,58.7375 C38.8447505,58.4614986 38.9849991,58.222251 39.168,58.01975 C39.3510009,57.817249 39.5744987,57.6582506 39.8385,57.54275 C40.1025013,57.4272494 40.3994983,57.3695 40.7295,57.3695 C41.0025014,57.3695 41.2552488,57.4152495 41.48775,57.50675 C41.7202512,57.5982505 41.9212492,57.7302491 42.09075,57.90275 C42.2602508,58.0752509 42.3929995,58.2882487 42.489,58.54175 C42.5850005,58.7952513 42.633,59.0839984 42.633,59.408 C42.633,59.5340006 42.6195001,59.6179998 42.5925,59.66 C42.5654999,59.7020002 42.5145004,59.723 42.4395,59.723 L39.393,59.723 C39.402,60.0110014 39.4417496,60.2614989 39.51225,60.4745 C39.5827504,60.6875011 39.6809994,60.8652493 39.807,61.00775 C39.9330006,61.1502507 40.0829991,61.2567496 40.257,61.32725 C40.4310009,61.3977504 40.6259989,61.433 40.842,61.433 C41.043001,61.433 41.2162493,61.4097502 41.36175,61.36325 C41.5072507,61.3167498 41.6324995,61.2665003 41.7375,61.2125 C41.8425005,61.1584997 41.9302496,61.1082502 42.00075,61.06175 C42.0712504,61.0152498 42.1319997,60.992 42.183,60.992 C42.2490003,60.992 42.2999998,61.0174997 42.336,61.0685 L42.561,61.361 Z M44.6745,58.355 C44.8185007,58.0429984 44.9954989,57.7992509 45.2055,57.62375 C45.415501,57.4482491 45.6719985,57.3605 45.975,57.3605 C46.0710005,57.3605 46.1632496,57.3709999 46.25175,57.392 C46.3402504,57.4130001 46.4189997,57.4459998 46.488,57.491 L46.4295,58.0895 C46.4114999,58.1645004 46.3665004,58.202 46.2945,58.202 C46.2524998,58.202 46.1910004,58.1930001 46.11,58.175 C46.0289996,58.1569999 45.9375005,58.148 45.8355,58.148 C45.6914993,58.148 45.5632506,58.1689998 45.45075,58.211 C45.3382494,58.2530002 45.2377504,58.3152496 45.14925,58.39775 C45.0607496,58.4802504 44.9812504,58.5822494 44.91075,58.70375 C44.8402496,58.8252506 44.7765003,58.9639992 44.7195,59.12 L44.7195,62 L43.914,62 L43.914,57.4415 L44.373,57.4415 C44.4600004,57.4415 44.5199998,57.4579998 44.553,57.491 C44.5860002,57.5240002 44.6084999,57.5809996 44.6205,57.662 L44.6745,58.355 Z" id="Keytrigger" fill="#000000" fill-rule="nonzero"/>
    <path d="M9.61,109.6745 C9.86200126,109.6745 10.084749,109.64375 10.27825,109.58225 C10.471751,109.52075 10.6337493,109.433751 10.76425,109.32125 C10.8947507,109.208749 10.9929997,109.074501 11.059,108.9185 C11.1250003,108.762499 11.158,108.590001 11.158,108.401 C11.158,108.016998 11.0320013,107.727501 10.78,107.5325 C10.5279987,107.337499 10.1500025,107.24 9.646,107.24 L8.692,107.24 L8.692,109.6745 L9.61,109.6745 Z M12.589,113 L11.815,113 C11.6559992,113 11.5390004,112.938501 11.464,112.8155 L9.79,110.5115 C9.73899974,110.4395 9.68425029,110.38775 9.62575,110.35625 C9.56724971,110.32475 9.47650061,110.309 9.3535,110.309 L8.692,110.309 L8.692,113 L7.8235,113 L7.8235,106.5515 L9.646,106.5515 C10.054002,106.5515 10.4064985,106.59275 10.7035,106.67525 C11.0005015,106.75775 11.245749,106.876999 11.43925,107.033 C11.632751,107.189001 11.7759995,107.377249 11.869,107.59775 C11.9620005,107.818251 12.0085,108.064999 12.0085,108.338 C12.0085,108.566001 11.9725004,108.778999 11.9005,108.977 C11.8284996,109.175001 11.7242507,109.352749 11.58775,109.51025 C11.4512493,109.667751 11.284751,109.801999 11.08825,109.913 C10.891749,110.024001 10.6690012,110.108 10.42,110.165 C10.5310006,110.228 10.6269996,110.319499 10.708,110.4395 L12.589,113 Z M15.976,110.948 C15.6069982,110.96 15.2927513,110.98925 15.03325,111.03575 C14.7737487,111.08225 14.5622508,111.143 14.39875,111.218 C14.2352492,111.293 14.1167504,111.381499 14.04325,111.4835 C13.9697496,111.585501 13.933,111.699499 13.933,111.8255 C13.933,111.945501 13.9524998,112.049 13.9915,112.136 C14.0305002,112.223 14.0837497,112.29425 14.15125,112.34975 C14.2187503,112.40525 14.2982495,112.44575 14.38975,112.47125 C14.4812505,112.49675 14.5794995,112.5095 14.6845,112.5095 C14.8255007,112.5095 14.9544994,112.49525 15.0715,112.46675 C15.1885006,112.43825 15.2987495,112.397 15.40225,112.343 C15.5057505,112.289 15.6047495,112.2245 15.69925,112.1495 C15.7937505,112.0745 15.8859996,111.989 15.976,111.893 L15.976,110.948 Z M13.3885,109.085 C13.6405013,108.841999 13.9119985,108.660501 14.203,108.5405 C14.4940015,108.420499 14.8164982,108.3605 15.1705,108.3605 C15.4255013,108.3605 15.651999,108.4025 15.85,108.4865 C16.048001,108.5705 16.2144993,108.687499 16.3495,108.8375 C16.4845007,108.987501 16.5864997,109.168999 16.6555,109.382 C16.7245003,109.595001 16.759,109.828999 16.759,110.084 L16.759,113 L16.4035,113 C16.3254996,113 16.2655002,112.98725 16.2235,112.96175 C16.1814998,112.93625 16.1485001,112.886 16.1245,112.811 L16.0345,112.379 C15.9144994,112.490001 15.7975006,112.58825 15.6835,112.67375 C15.5694994,112.75925 15.4495006,112.83125 15.3235,112.88975 C15.1974994,112.94825 15.0632507,112.99325 14.92075,113.02475 C14.7782493,113.05625 14.6200009,113.072 14.446,113.072 C14.2689991,113.072 14.1025008,113.04725 13.9465,112.99775 C13.7904992,112.94825 13.6547506,112.874 13.53925,112.775 C13.4237494,112.676 13.3322503,112.550751 13.26475,112.39925 C13.1972497,112.247749 13.1635,112.068501 13.1635,111.8615 C13.1635,111.681499 13.2129995,111.508251 13.312,111.34175 C13.4110005,111.175249 13.5714989,111.027501 13.7935,110.8985 C14.0155011,110.769499 14.3049982,110.66375 14.662,110.58125 C15.0190018,110.49875 15.4569974,110.4515 15.976,110.4395 L15.976,110.084 C15.976,109.729998 15.8995008,109.462251 15.7465,109.28075 C15.5934992,109.099249 15.3700015,109.0085 15.076,109.0085 C14.877999,109.0085 14.7122507,109.03325 14.57875,109.08275 C14.4452493,109.13225 14.3297505,109.18775 14.23225,109.24925 C14.1347495,109.31075 14.0507504,109.36625 13.98025,109.41575 C13.9097496,109.46525 13.8400003,109.49 13.771,109.49 C13.7169997,109.49 13.6705002,109.47575 13.6315,109.44725 C13.5924998,109.41875 13.5595001,109.3835 13.5325,109.3415 L13.3885,109.085 Z M19.0345,109.103 C19.1335005,108.991999 19.2384994,108.8915 19.3495,108.8015 C19.4605006,108.7115 19.5782494,108.63425 19.70275,108.56975 C19.8272506,108.50525 19.9592493,108.45575 20.09875,108.42125 C20.2382507,108.38675 20.3889992,108.3695 20.551,108.3695 C20.8000012,108.3695 21.019749,108.41075 21.21025,108.49325 C21.400751,108.57575 21.5597494,108.692749 21.68725,108.84425 C21.8147506,108.995751 21.9114997,109.177999 21.9775,109.391 C22.0435003,109.604001 22.0765,109.839499 22.0765,110.0975 L22.0765,113 L21.271,113 L21.271,110.0975 C21.271,109.752498 21.1922508,109.484751 21.03475,109.29425 C20.8772492,109.103749 20.6380016,109.0085 20.317,109.0085 C20.0799988,109.0085 19.858751,109.065499 19.65325,109.1795 C19.447749,109.293501 19.2580009,109.447999 19.084,109.643 L19.084,113 L18.2785,113 L18.2785,108.4415 L18.76,108.4415 C18.8740006,108.4415 18.9444999,108.496999 18.9715,108.608 L19.0345,109.103 Z M26.5705,109.526 C26.4204993,109.324999 26.2585009,109.18475 26.0845,109.10525 C25.9104991,109.02575 25.7155011,108.986 25.4995,108.986 C25.0764979,108.986 24.7510011,109.137498 24.523,109.4405 C24.2949989,109.743502 24.181,110.175497 24.181,110.7365 C24.181,111.033501 24.2064997,111.287749 24.2575,111.49925 C24.3085003,111.710751 24.3834995,111.884749 24.4825,112.02125 C24.5815005,112.157751 24.7029993,112.2575 24.847,112.3205 C24.9910007,112.3835 25.1544991,112.415 25.3375,112.415 C25.6015013,112.415 25.831749,112.355001 26.02825,112.235 C26.224751,112.114999 26.4054992,111.945501 26.5705,111.7265 L26.5705,109.526 Z M27.3715,106.3715 L27.3715,113 L26.8945,113 C26.7804994,113 26.7085002,112.944501 26.6785,112.8335 L26.6065,112.28 C26.411499,112.514001 26.1895012,112.702999 25.9405,112.847 C25.6914988,112.991001 25.4035016,113.063 25.0765,113.063 C24.8154987,113.063 24.5785011,113.012751 24.3655,112.91225 C24.1524989,112.811749 23.9710007,112.664001 23.821,112.469 C23.6709993,112.273999 23.5555004,112.031001 23.4745,111.74 C23.3934996,111.448999 23.353,111.114502 23.353,110.7365 C23.353,110.400498 23.3979996,110.087751 23.488,109.79825 C23.5780004,109.508749 23.7069992,109.257501 23.875,109.0445 C24.0430008,108.831499 24.2492488,108.664251 24.49375,108.54275 C24.7382512,108.421249 25.0134985,108.3605 25.3195,108.3605 C25.5985014,108.3605 25.837749,108.40775 26.03725,108.50225 C26.236751,108.59675 26.4144992,108.727999 26.5705,108.896 L26.5705,106.3715 L27.3715,106.3715 Z M30.862,108.3695 C31.1950017,108.3695 31.4949987,108.424999 31.762,108.536 C32.0290013,108.647001 32.2569991,108.804499 32.446,109.0085 C32.6350009,109.212501 32.7797495,109.459249 32.88025,109.74875 C32.9807505,110.038251 33.031,110.361498 33.031,110.7185 C33.031,111.078502 32.9807505,111.402499 32.88025,111.6905 C32.7797495,111.978501 32.6350009,112.224499 32.446,112.4285 C32.2569991,112.632501 32.0290013,112.789249 31.762,112.89875 C31.4949987,113.008251 31.1950017,113.063 30.862,113.063 C30.5259983,113.063 30.2237513,113.008251 29.95525,112.89875 C29.6867487,112.789249 29.4580009,112.632501 29.269,112.4285 C29.0799991,112.224499 28.9352505,111.978501 28.83475,111.6905 C28.7342495,111.402499 28.684,111.078502 28.684,110.7185 C28.684,110.361498 28.7342495,110.038251 28.83475,109.74875 C28.9352505,109.459249 29.0799991,109.212501 29.269,109.0085 C29.4580009,108.804499 29.6867487,108.647001 29.95525,108.536 C30.2237513,108.424999 30.5259983,108.3695 30.862,108.3695 Z M30.862,112.4375 C31.3120022,112.4375 31.6479989,112.286752 31.87,111.98525 C32.0920011,111.683748 32.203,111.263003 32.203,110.723 C32.203,110.179997 32.0920011,109.757002 31.87,109.454 C31.6479989,109.150998 31.3120022,108.9995 30.862,108.9995 C30.6339989,108.9995 30.4352508,109.0385 30.26575,109.1165 C30.0962492,109.1945 29.9552506,109.306999 29.84275,109.454 C29.7302494,109.601001 29.6462503,109.781749 29.59075,109.99625 C29.5352497,110.210751 29.5075,110.452999 29.5075,110.723 C29.5075,111.263003 29.6192489,111.683748 29.84275,111.98525 C30.0662511,112.286752 30.4059977,112.4375 30.862,112.4375 Z M37.5495363,109.313931 C37.6152404,109.151079 37.6993108,109.01027 37.80175,108.8915 C37.9052505,108.771499 38.0214994,108.6725 38.1505,108.5945 C38.2795006,108.5165 38.4167493,108.4595 38.56225,108.4235 C38.7077507,108.3875 38.8554993,108.3695 39.0055,108.3695 C39.2455012,108.3695 39.4592491,108.40775 39.64675,108.48425 C39.8342509,108.56075 39.9932493,108.672499 40.12375,108.8195 C40.2542507,108.966501 40.3539997,109.147249 40.423,109.36175 C40.4920003,109.576251 40.5265,109.821499 40.5265,110.0975 L40.5265,113 L39.721,113 L39.721,110.0975 C39.721,109.740498 39.6430008,109.469751 39.487,109.28525 C39.3309992,109.100749 39.1060015,109.0085 38.812,109.0085 C38.6799993,109.0085 38.5547506,109.03175 38.43625,109.07825 C38.3177494,109.12475 38.2135004,109.193 38.1235,109.283 C38.0334996,109.373 37.9622503,109.486249 37.90975,109.62275 C37.8572497,109.759251 37.831,109.917499 37.831,110.0975 L37.831,113 L37.0255,113 L37.0255,110.0975 C37.0255,109.731498 36.9520007,109.458501 36.805,109.2785 C36.6579993,109.098499 36.4435014,109.0085 36.1615,109.0085 C35.963499,109.0085 35.7805008,109.061749 35.6125,109.16825 C35.4444992,109.274751 35.2900007,109.419499 35.149,109.6025 L35.149,113 L34.3435,113 L34.3435,108.4415 L34.825,108.4415 C34.9390006,108.4415 35.0094999,108.496999 35.0365,108.608 L35.095,109.076 C35.2630008,108.868999 35.451999,108.699501 35.662,108.5675 C35.8720011,108.435499 36.1149986,108.3695 36.391,108.3695 C36.6970015,108.3695 36.945249,108.454999 37.13575,108.626 C37.3262491,108.796999 37.4634969,109.027994 37.5474976,109.318992 L37.5495363,109.313931 Z" id="Random" fill="#000000" fill-rule="nonzero"/>
  </g>
  <g id="g-1" stroke="none" stroke-width="1" fill="none" fill-rule="evenodd" transform="">
    <path d="M9.6965,5.2625 L9.6965,7.517 L12.347,7.517 L12.347,8.228 L9.6965,8.228 L9.6965,11 L8.8235,11 L8.8235,4.5515 L12.797,4.5515 L12.797,5.2625 L9.6965,5.2625 Z M14.2975,7.355 C14.4415007,7.04299844 14.618499,6.79925088 14.8285,6.62375 C15.038501,6.44824912 15.2949985,6.3605 15.598,6.3605 C15.6940005,6.3605 15.7862496,6.37099989 15.87475,6.392 C15.9632504,6.41300011 16.0419997,6.44599977 16.111,6.491 L16.0525,7.0895 C16.0344999,7.16450037 15.9895004,7.202 15.9175,7.202 C15.8754998,7.202 15.8140004,7.19300009 15.733,7.175 C15.6519996,7.15699991 15.5605005,7.148 15.4585,7.148 C15.3144993,7.148 15.1862506,7.16899979 15.07375,7.211 C14.9612494,7.25300021 14.8607504,7.31524959 14.77225,7.39775 C14.6837496,7.48025041 14.6042504,7.58224939 14.53375,7.70375 C14.4632496,7.82525061 14.3995003,7.96399922 14.3425,8.12 L14.3425,11 L13.537,11 L13.537,6.4415 L13.996,6.4415 C14.0830004,6.4415 14.1429998,6.45799983 14.176,6.491 C14.2090002,6.52400016 14.2314999,6.58099959 14.2435,6.662 L14.2975,7.355 Z M19.8795,8.2235 C19.8795,8.03749907 19.8532503,7.86725077 19.80075,7.71275 C19.7482497,7.55824923 19.6717505,7.42475056 19.57125,7.31225 C19.4707495,7.19974944 19.3485007,7.11275031 19.2045,7.05125 C19.0604993,6.98974969 18.8970009,6.959 18.714,6.959 C18.3299981,6.959 18.0262511,7.07074888 17.80275,7.29425 C17.5792489,7.51775112 17.4405003,7.82749802 17.3865,8.2235 L19.8795,8.2235 Z M20.5275,10.361 C20.4284995,10.4810006 20.3100007,10.5852496 20.172,10.67375 C20.0339993,10.7622504 19.8862508,10.8349997 19.72875,10.892 C19.5712492,10.9490003 19.4085008,10.9917499 19.2405,11.02025 C19.0724992,11.0487501 18.9060008,11.063 18.741,11.063 C18.4259984,11.063 18.1357513,11.0097505 17.87025,10.90325 C17.6047487,10.7967495 17.375251,10.640751 17.18175,10.43525 C16.988249,10.229749 16.8375005,9.97550151 16.7295,9.6725 C16.6214995,9.36949849 16.5675,9.02150197 16.5675,8.6285 C16.5675,8.31049841 16.6162495,8.01350138 16.71375,7.7375 C16.8112505,7.46149862 16.9514991,7.22225101 17.1345,7.01975 C17.3175009,6.81724899 17.5409987,6.65825058 17.805,6.54275 C18.0690013,6.42724942 18.3659984,6.3695 18.696,6.3695 C18.9690014,6.3695 19.2217488,6.41524954 19.45425,6.50675 C19.6867512,6.59825046 19.8877492,6.73024914 20.05725,6.90275 C20.2267508,7.07525086 20.3594995,7.28824873 20.4555,7.54175 C20.5515005,7.79525127 20.5995,8.08399838 20.5995,8.408 C20.5995,8.53400063 20.5860001,8.61799979 20.559,8.66 C20.5319999,8.70200021 20.4810004,8.723 20.406,8.723 L17.3595,8.723 C17.3685,9.01100144 17.4082496,9.26149894 17.47875,9.4745 C17.5492504,9.68750107 17.6474994,9.86524929 17.7735,10.00775 C17.8995006,10.1502507 18.0494991,10.2567496 18.2235,10.32725 C18.3975009,10.3977504 18.5924989,10.433 18.8085,10.433 C19.009501,10.433 19.1827493,10.4097502 19.32825,10.36325 C19.4737507,10.3167498 19.5989995,10.2665003 19.704,10.2125 C19.8090005,10.1584997 19.8967496,10.1082502 19.96725,10.06175 C20.0377504,10.0152498 20.0984997,9.992 20.1495,9.992 C20.2155003,9.992 20.2664998,10.0174997 20.3025,10.0685 L20.5275,10.361 Z M24.8315,8.2235 C24.8315,8.03749907 24.8052503,7.86725077 24.75275,7.71275 C24.7002497,7.55824923 24.6237505,7.42475056 24.52325,7.31225 C24.4227495,7.19974944 24.3005007,7.11275031 24.1565,7.05125 C24.0124993,6.98974969 23.8490009,6.959 23.666,6.959 C23.2819981,6.959 22.9782511,7.07074888 22.75475,7.29425 C22.5312489,7.51775112 22.3925003,7.82749802 22.3385,8.2235 L24.8315,8.2235 Z M25.4795,10.361 C25.3804995,10.4810006 25.2620007,10.5852496 25.124,10.67375 C24.9859993,10.7622504 24.8382508,10.8349997 24.68075,10.892 C24.5232492,10.9490003 24.3605008,10.9917499 24.1925,11.02025 C24.0244992,11.0487501 23.8580008,11.063 23.693,11.063 C23.3779984,11.063 23.0877513,11.0097505 22.82225,10.90325 C22.5567487,10.7967495 22.327251,10.640751 22.13375,10.43525 C21.940249,10.229749 21.7895005,9.97550151 21.6815,9.6725 C21.5734995,9.36949849 21.5195,9.02150197 21.5195,8.6285 C21.5195,8.31049841 21.5682495,8.01350138 21.66575,7.7375 C21.7632505,7.46149862 21.9034991,7.22225101 22.0865,7.01975 C22.2695009,6.81724899 22.4929987,6.65825058 22.757,6.54275 C23.0210013,6.42724942 23.3179984,6.3695 23.648,6.3695 C23.9210014,6.3695 24.1737488,6.41524954 24.40625,6.50675 C24.6387512,6.59825046 24.8397492,6.73024914 25.00925,6.90275 C25.1787508,7.07525086 25.3114995,7.28824873 25.4075,7.54175 C25.5035005,7.79525127 25.5515,8.08399838 25.5515,8.408 C25.5515,8.53400063 25.5380001,8.61799979 25.511,8.66 C25.4839999,8.70200021 25.4330004,8.723 25.358,8.723 L22.3115,8.723 C22.3205,9.01100144 22.3602496,9.26149894 22.43075,9.4745 C22.5012504,9.68750107 22.5994994,9.86524929 22.7255,10.00775 C22.8515006,10.1502507 23.0014991,10.2567496 23.1755,10.32725 C23.3495009,10.3977504 23.5444989,10.433 23.7605,10.433 C23.961501,10.433 24.1347493,10.4097502 24.28025,10.36325 C24.4257507,10.3167498 24.5509995,10.2665003 24.656,10.2125 C24.7610005,10.1584997 24.8487496,10.1082502 24.91925,10.06175 C24.9897504,10.0152498 25.0504997,9.992 25.1015,9.992 C25.1675003,9.992 25.2184998,10.0174997 25.2545,10.0685 L25.4795,10.361 Z M27.493,7.355 C27.6370007,7.04299844 27.813999,6.79925088 28.024,6.62375 C28.2340011,6.44824912 28.4904985,6.3605 28.7935,6.3605 C28.8895005,6.3605 28.9817496,6.37099989 29.07025,6.392 C29.1587504,6.41300011 29.2374997,6.44599977 29.3065,6.491 L29.248,7.0895 C29.2299999,7.16450037 29.1850004,7.202 29.113,7.202 C29.0709998,7.202 29.0095004,7.19300009 28.9285,7.175 C28.8474996,7.15699991 28.7560005,7.148 28.654,7.148 C28.5099993,7.148 28.3817506,7.16899979 28.26925,7.211 C28.1567494,7.25300021 28.0562504,7.31524959 27.96775,7.39775 C27.8792496,7.48025041 27.7997504,7.58224939 27.72925,7.70375 C27.6587496,7.82525061 27.5950003,7.96399922 27.538,8.12 L27.538,11 L26.7325,11 L26.7325,6.4415 L27.1915,6.4415 C27.2785004,6.4415 27.3384998,6.45799983 27.3715,6.491 C27.4045002,6.52400016 27.4269999,6.58099959 27.439,6.662 L27.493,7.355 Z M33.957,6.4415 L33.957,11 L33.48,11 C33.3659994,11 33.2940002,10.9445006 33.264,10.8335 L33.201,10.343 C33.002999,10.5620011 32.7810012,10.7382493 32.535,10.87175 C32.2889988,11.0052507 32.0070016,11.072 31.689,11.072 C31.4399988,11.072 31.220251,11.0307504 31.02975,10.94825 C30.839249,10.8657496 30.6795006,10.7495007 30.5505,10.5995 C30.4214994,10.4494992 30.3247503,10.2680011 30.26025,10.055 C30.1957497,9.84199893 30.1635,9.60650129 30.1635,9.3485 L30.1635,6.4415 L30.9645,6.4415 L30.9645,9.3485 C30.9645,9.69350173 31.0432492,9.96049905 31.20075,10.1495 C31.3582508,10.3385009 31.5989984,10.433 31.923,10.433 C32.1600012,10.433 32.381249,10.3767506 32.58675,10.26425 C32.792251,10.1517494 32.9819991,9.99650099 33.156,9.7985 L33.156,6.4415 L33.957,6.4415 Z M36.182,7.103 C36.2810005,6.99199944 36.3859994,6.89150045 36.497,6.8015 C36.6080006,6.71149955 36.7257494,6.63425032 36.85025,6.56975 C36.9747506,6.50524968 37.1067493,6.45575017 37.24625,6.42125 C37.3857507,6.38674983 37.5364992,6.3695 37.6985,6.3695 C37.9475012,6.3695 38.167249,6.41074959 38.35775,6.49325 C38.548251,6.57575041 38.7072494,6.69274924 38.83475,6.84425 C38.9622506,6.99575076 39.0589997,7.17799893 39.125,7.391 C39.1910003,7.60400106 39.224,7.83949871 39.224,8.0975 L39.224,11 L38.4185,11 L38.4185,8.0975 C38.4185,7.75249827 38.3397508,7.48475095 38.18225,7.29425 C38.0247492,7.10374905 37.7855016,7.0085 37.4645,7.0085 C37.2274988,7.0085 37.006251,7.06549943 36.80075,7.1795 C36.595249,7.29350057 36.4055009,7.44799902 36.2315,7.643 L36.2315,11 L35.426,11 L35.426,6.4415 L35.9075,6.4415 C36.0215006,6.4415 36.0919999,6.49699945 36.119,6.608 L36.182,7.103 Z" id="path-1" fill="#000000" fill-rule="nonzero"/>
    <path d="M4.692,58.3775 L5.0205,58.3775 C5.13450057,58.3775 5.22599965,58.3632501 5.295,58.33475 C5.36400034,58.3062499 5.42699971,58.2575003 5.484,58.1885 L7.6305,55.7585 C7.6905003,55.6804996 7.75349967,55.6265001 7.8195,55.5965 C7.88550033,55.5664998 7.96649952,55.5515 8.0625,55.5515 L8.8005,55.5515 L6.3435,58.328 C6.2834997,58.4000004 6.22575028,58.4592498 6.17025,58.50575 C6.11474972,58.5522502 6.05550031,58.5904999 5.9925,58.6205 C6.0735004,58.6475001 6.14699967,58.6872497 6.213,58.73975 C6.27900033,58.7922503 6.34349968,58.8604996 6.4065,58.9445 L8.9715,62 L8.2155,62 C8.15849971,62 8.1097502,61.99625 8.06925,61.98875 C8.0287498,61.98125 7.99350015,61.9692501 7.9635,61.95275 C7.93349985,61.9362499 7.90725011,61.9167501 7.88475,61.89425 C7.86224989,61.8717499 7.8405001,61.8455001 7.8195,61.8155 L5.5965,59.255 C5.5364997,59.1799996 5.47200034,59.1267502 5.403,59.09525 C5.33399965,59.0637498 5.2290007,59.048 5.088,59.048 L4.692,59.048 L4.692,62 L3.8235,62 L3.8235,55.5515 L4.692,55.5515 L4.692,58.3775 Z M12.606,59.2235 C12.606,59.0374991 12.5797503,58.8672508 12.52725,58.71275 C12.4747497,58.5582492 12.3982505,58.4247506 12.29775,58.31225 C12.1972495,58.1997494 12.0750007,58.1127503 11.931,58.05125 C11.7869993,57.9897497 11.6235009,57.959 11.4405,57.959 C11.0564981,57.959 10.7527511,58.0707489 10.52925,58.29425 C10.3057489,58.5177511 10.1670003,58.827498 10.113,59.2235 L12.606,59.2235 Z M13.254,61.361 C13.1549995,61.4810006 13.0365007,61.5852496 12.8985,61.67375 C12.7604993,61.7622504 12.6127508,61.8349997 12.45525,61.892 C12.2977492,61.9490003 12.1350008,61.9917499 11.967,62.02025 C11.7989992,62.0487501 11.6325008,62.063 11.4675,62.063 C11.1524984,62.063 10.8622513,62.0097505 10.59675,61.90325 C10.3312487,61.7967495 10.101751,61.640751 9.90825,61.43525 C9.71474903,61.229749 9.56400054,60.9755015 9.456,60.6725 C9.34799946,60.3694985 9.294,60.021502 9.294,59.6285 C9.294,59.3104984 9.34274951,59.0135014 9.44025,58.7375 C9.53775049,58.4614986 9.67799908,58.222251 9.861,58.01975 C10.0440009,57.817249 10.2674987,57.6582506 10.5315,57.54275 C10.7955013,57.4272494 11.0924983,57.3695 11.4225,57.3695 C11.6955014,57.3695 11.9482488,57.4152495 12.18075,57.50675 C12.4132512,57.5982505 12.6142492,57.7302491 12.78375,57.90275 C12.9532508,58.0752509 13.0859995,58.2882487 13.182,58.54175 C13.2780005,58.7952513 13.326,59.0839984 13.326,59.408 C13.326,59.5340006 13.3125001,59.6179998 13.2855,59.66 C13.2584999,59.7020002 13.2075004,59.723 13.1325,59.723 L10.086,59.723 C10.095,60.0110014 10.1347496,60.2614989 10.20525,60.4745 C10.2757504,60.6875011 10.3739994,60.8652493 10.5,61.00775 C10.6260006,61.1502507 10.7759991,61.2567496 10.95,61.32725 C11.1240009,61.3977504 11.3189989,61.433 11.535,61.433 C11.736001,61.433 11.9092493,61.4097502 12.05475,61.36325 C12.2002507,61.3167498 12.3254995,61.2665003 12.4305,61.2125 C12.5355005,61.1584997 12.6232496,61.1082502 12.69375,61.06175 C12.7642504,61.0152498 12.8249997,60.992 12.876,60.992 C12.9420003,60.992 12.9929998,61.0174997 13.029,61.0685 L13.254,61.361 Z M18.423,57.4415 L15.8805,63.3455 C15.8534999,63.4055003 15.8197502,63.4534998 15.77925,63.4895 C15.7387498,63.5255002 15.6765004,63.5435 15.5925,63.5435 L14.9985,63.5435 L15.831,61.7345 L13.95,57.4415 L14.643,57.4415 C14.7120003,57.4415 14.7667498,57.4587498 14.80725,57.49325 C14.8477502,57.5277502 14.8754999,57.5659998 14.8905,57.608 L16.11,60.479 C16.1580002,60.6050006 16.1984998,60.7369993 16.2315,60.875 C16.2735002,60.7339993 16.3184998,60.6005006 16.3665,60.4745 L17.55,57.608 C17.5680001,57.5599998 17.5987498,57.5202502 17.64225,57.48875 C17.6857502,57.4572498 17.7344997,57.4415 17.7885,57.4415 L18.423,57.4415 Z M20.829,62.072 C20.4689982,62.072 20.192251,61.971501 19.99875,61.7705 C19.805249,61.569499 19.7085,61.2800019 19.7085,60.902 L19.7085,58.112 L19.1595,58.112 C19.1114998,58.112 19.0710002,58.0977501 19.038,58.06925 C19.0049998,58.0407499 18.9885,57.9965003 18.9885,57.9365 L18.9885,57.617 L19.7355,57.5225 L19.92,56.114 C19.929,56.0689998 19.9492498,56.0322501 19.98075,56.00375 C20.0122502,55.9752499 20.0534997,55.961 20.1045,55.961 L20.5095,55.961 L20.5095,57.5315 L21.828,57.5315 L21.828,58.112 L20.5095,58.112 L20.5095,60.848 C20.5095,61.040001 20.5559995,61.1824995 20.649,61.2755 C20.7420005,61.3685005 20.8619993,61.415 21.009,61.415 C21.0930004,61.415 21.1657497,61.4037501 21.22725,61.38125 C21.2887503,61.3587499 21.3419998,61.3340001 21.387,61.307 C21.4320002,61.2799999 21.4702498,61.2552501 21.50175,61.23275 C21.5332502,61.2102499 21.5609999,61.199 21.585,61.199 C21.6270002,61.199 21.6644998,61.2244997 21.6975,61.2755 L21.9315,61.658 C21.7934993,61.7870006 21.627001,61.8882496 21.432,61.96175 C21.236999,62.0352504 21.036001,62.072 20.829,62.072 Z M23.7165,58.355 C23.8605007,58.0429984 24.0374989,57.7992509 24.2475,57.62375 C24.4575011,57.4482491 24.7139985,57.3605 25.017,57.3605 C25.1130005,57.3605 25.2052496,57.3709999 25.29375,57.392 C25.3822504,57.4130001 25.4609997,57.4459998 25.53,57.491 L25.4715,58.0895 C25.4534999,58.1645004 25.4085004,58.202 25.3365,58.202 C25.2944998,58.202 25.2330004,58.1930001 25.152,58.175 C25.0709996,58.1569999 24.9795005,58.148 24.8775,58.148 C24.7334993,58.148 24.6052506,58.1689998 24.49275,58.211 C24.3802494,58.2530002 24.2797504,58.3152496 24.19125,58.39775 C24.1027496,58.4802504 24.0232504,58.5822494 23.95275,58.70375 C23.8822496,58.8252506 23.8185003,58.9639992 23.7615,59.12 L23.7615,62 L22.956,62 L22.956,57.4415 L23.415,57.4415 C23.5020004,57.4415 23.5619998,57.4579998 23.595,57.491 C23.6280002,57.5240002 23.6504999,57.5809996 23.6625,57.662 L23.7165,58.355 Z M27.378,57.4415 L27.378,62 L26.577,62 L26.577,57.4415 L27.378,57.4415 Z M27.549,56.0105 C27.549,56.0885004 27.5332502,56.1612497 27.50175,56.22875 C27.4702498,56.2962503 27.4282503,56.3562497 27.37575,56.40875 C27.3232497,56.4612503 27.2617504,56.5024998 27.19125,56.5325 C27.1207496,56.5625001 27.0465004,56.5775 26.9685,56.5775 C26.8904996,56.5775 26.8177503,56.5625001 26.75025,56.5325 C26.6827497,56.5024998 26.6235003,56.4612503 26.5725,56.40875 C26.5214997,56.3562497 26.4810001,56.2962503 26.451,56.22875 C26.4209998,56.1612497 26.406,56.0885004 26.406,56.0105 C26.406,55.9324996 26.4209998,55.8582504 26.451,55.78775 C26.4810001,55.7172496 26.5214997,55.6557503 26.5725,55.60325 C26.6235003,55.5507497 26.6827497,55.5095002 26.75025,55.4795 C26.8177503,55.4494999 26.8904996,55.4345 26.9685,55.4345 C27.0465004,55.4345 27.1207496,55.4494999 27.19125,55.4795 C27.2617504,55.5095002 27.3232497,55.5507497 27.37575,55.60325 C27.4282503,55.6557503 27.4702498,55.7172496 27.50175,55.78775 C27.5332502,55.8582504 27.549,55.9324996 27.549,56.0105 Z M30.5805,59.7725 C30.7425008,59.7725 30.8849994,59.7500002 31.008,59.705 C31.1310006,59.6599998 31.2344996,59.5970004 31.3185,59.516 C31.4025004,59.4349996 31.4654998,59.3382506 31.5075,59.22575 C31.5495002,59.1132494 31.5705,58.9895007 31.5705,58.8545 C31.5705,58.5754986 31.4857508,58.3535008 31.31625,58.1885 C31.1467492,58.0234992 30.9015016,57.941 30.5805,57.941 C30.2564984,57.941 30.0097508,58.0234992 29.84025,58.1885 C29.6707492,58.3535008 29.586,58.5754986 29.586,58.8545 C29.586,58.9895007 29.6077498,59.1132494 29.65125,59.22575 C29.6947502,59.3382506 29.7584996,59.4349996 29.8425,59.516 C29.9265004,59.5970004 30.0299994,59.6599998 30.153,59.705 C30.2760006,59.7500002 30.4184992,59.7725 30.5805,59.7725 Z M32.025,62.2475 C32.025,62.1364994 31.9935003,62.0465003 31.9305,61.9775 C31.8674997,61.9084997 31.7827505,61.8545002 31.67625,61.8155 C31.5697495,61.7764998 31.4460007,61.7487501 31.305,61.73225 C31.1639993,61.7157499 31.0147508,61.703 30.85725,61.694 C30.6997492,61.685 30.5400008,61.676 30.378,61.667 C30.2159992,61.658 30.0600008,61.6430001 29.91,61.622 C29.7419992,61.7000004 29.6047505,61.7982494 29.49825,61.91675 C29.3917495,62.0352506 29.3385,62.1739992 29.3385,62.333 C29.3385,62.4350005 29.3647497,62.5302496 29.41725,62.61875 C29.4697503,62.7072504 29.5499995,62.7837497 29.658,62.84825 C29.7660005,62.9127503 29.9017492,62.9637498 30.06525,63.00125 C30.2287508,63.0387502 30.4214989,63.0575 30.6435,63.0575 C30.8595011,63.0575 31.0529991,63.0380002 31.224,62.999 C31.3950009,62.9599998 31.5397494,62.9045004 31.65825,62.8325 C31.7767506,62.7604996 31.8674997,62.6750005 31.9305,62.576 C31.9935003,62.4769995 32.025,62.3675006 32.025,62.2475 Z M32.8395,57.6215 L32.8395,57.9185 C32.8395,58.0175005 32.7765006,58.0804999 32.6505,58.1075 L32.133,58.175 C32.2350005,58.373001 32.286,58.5919988 32.286,58.832 C32.286,59.0540011 32.2432504,59.2557491 32.15775,59.43725 C32.0722496,59.6187509 31.9545007,59.7739994 31.8045,59.903 C31.6544992,60.0320006 31.474501,60.1309997 31.2645,60.2 C31.0544989,60.2690003 30.8265012,60.3035 30.5805,60.3035 C30.3674989,60.3035 30.1665009,60.2780003 29.9775,60.227 C29.8814995,60.2870003 29.8080003,60.3507497 29.757,60.41825 C29.7059997,60.4857503 29.6805,60.5539997 29.6805,60.623 C29.6805,60.7310005 29.7247496,60.8127497 29.81325,60.86825 C29.9017504,60.9237503 30.0179993,60.9634999 30.162,60.9875 C30.3060007,61.0115001 30.4702491,61.0265 30.65475,61.0325 C30.8392509,61.0385 31.028249,61.0482499 31.22175,61.06175 C31.415251,61.0752501 31.6042491,61.0984998 31.78875,61.1315 C31.9732509,61.1645002 32.1374993,61.2184996 32.2815,61.2935 C32.4255007,61.3685004 32.5417496,61.4719993 32.63025,61.604 C32.7187504,61.7360007 32.763,61.906999 32.763,62.117 C32.763,62.312001 32.7142505,62.5009991 32.61675,62.684 C32.5192495,62.8670009 32.3790009,63.0297493 32.196,63.17225 C32.0129991,63.3147507 31.7887513,63.4287496 31.52325,63.51425 C31.2577487,63.5997504 30.9585017,63.6425 30.6255,63.6425 C30.2924983,63.6425 30.0015012,63.6095003 29.7525,63.5435 C29.5034988,63.4774997 29.2965008,63.3890006 29.1315,63.278 C28.9664992,63.1669994 28.8427504,63.0387507 28.76025,62.89325 C28.6777496,62.7477493 28.6365,62.5955008 28.6365,62.4365 C28.6365,62.2114989 28.7069993,62.0210008 28.848,61.865 C28.9890007,61.7089992 29.1824988,61.5845005 29.4285,61.4915 C29.2934993,61.4314997 29.1862504,61.3512505 29.10675,61.25075 C29.0272496,61.1502495 28.9875,61.0145009 28.9875,60.8435 C28.9875,60.7774997 28.9994999,60.7092504 29.0235,60.63875 C29.0475001,60.5682496 29.0842498,60.4977504 29.13375,60.42725 C29.1832502,60.3567496 29.2439996,60.2900003 29.316,60.227 C29.3880004,60.1639997 29.4719995,60.1085002 29.568,60.0605 C29.3429989,59.9344994 29.1675006,59.767251 29.0415,59.55875 C28.9154994,59.350249 28.8525,59.1080014 28.8525,58.832 C28.8525,58.6099989 28.8952496,58.4082509 28.98075,58.22675 C29.0662504,58.0452491 29.1854992,57.8907506 29.3385,57.76325 C29.4915008,57.6357494 29.6737489,57.5375003 29.88525,57.4685 C30.0967511,57.3994997 30.3284987,57.365 30.5805,57.365 C30.778501,57.365 30.9629991,57.3867498 31.134,57.43025 C31.3050009,57.4737502 31.4609993,57.5374996 31.602,57.6215 L32.8395,57.6215 Z M35.5425,59.7725 C35.7045008,59.7725 35.8469994,59.7500002 35.97,59.705 C36.0930006,59.6599998 36.1964996,59.5970004 36.2805,59.516 C36.3645004,59.4349996 36.4274998,59.3382506 36.4695,59.22575 C36.5115002,59.1132494 36.5325,58.9895007 36.5325,58.8545 C36.5325,58.5754986 36.4477508,58.3535008 36.27825,58.1885 C36.1087492,58.0234992 35.8635016,57.941 35.5425,57.941 C35.2184984,57.941 34.9717508,58.0234992 34.80225,58.1885 C34.6327492,58.3535008 34.548,58.5754986 34.548,58.8545 C34.548,58.9895007 34.5697498,59.1132494 34.61325,59.22575 C34.6567502,59.3382506 34.7204996,59.4349996 34.8045,59.516 C34.8885004,59.5970004 34.9919994,59.6599998 35.115,59.705 C35.2380006,59.7500002 35.3804992,59.7725 35.5425,59.7725 Z M36.987,62.2475 C36.987,62.1364994 36.9555003,62.0465003 36.8925,61.9775 C36.8294997,61.9084997 36.7447505,61.8545002 36.63825,61.8155 C36.5317495,61.7764998 36.4080007,61.7487501 36.267,61.73225 C36.1259993,61.7157499 35.9767508,61.703 35.81925,61.694 C35.6617492,61.685 35.5020008,61.676 35.34,61.667 C35.1779992,61.658 35.0220007,61.6430001 34.872,61.622 C34.7039992,61.7000004 34.5667505,61.7982494 34.46025,61.91675 C34.3537495,62.0352506 34.3005,62.1739992 34.3005,62.333 C34.3005,62.4350005 34.3267497,62.5302496 34.37925,62.61875 C34.4317503,62.7072504 34.5119995,62.7837497 34.62,62.84825 C34.7280005,62.9127503 34.8637492,62.9637498 35.02725,63.00125 C35.1907508,63.0387502 35.3834989,63.0575 35.6055,63.0575 C35.8215011,63.0575 36.0149991,63.0380002 36.186,62.999 C36.3570009,62.9599998 36.5017494,62.9045004 36.62025,62.8325 C36.7387506,62.7604996 36.8294997,62.6750005 36.8925,62.576 C36.9555003,62.4769995 36.987,62.3675006 36.987,62.2475 Z M37.8015,57.6215 L37.8015,57.9185 C37.8015,58.0175005 37.7385006,58.0804999 37.6125,58.1075 L37.095,58.175 C37.1970005,58.373001 37.248,58.5919988 37.248,58.832 C37.248,59.0540011 37.2052504,59.2557491 37.11975,59.43725 C37.0342496,59.6187509 36.9165007,59.7739994 36.7665,59.903 C36.6164992,60.0320006 36.436501,60.1309997 36.2265,60.2 C36.0164989,60.2690003 35.7885012,60.3035 35.5425,60.3035 C35.3294989,60.3035 35.1285009,60.2780003 34.9395,60.227 C34.8434995,60.2870003 34.7700003,60.3507497 34.719,60.41825 C34.6679997,60.4857503 34.6425,60.5539997 34.6425,60.623 C34.6425,60.7310005 34.6867496,60.8127497 34.77525,60.86825 C34.8637504,60.9237503 34.9799993,60.9634999 35.124,60.9875 C35.2680007,61.0115001 35.4322491,61.0265 35.61675,61.0325 C35.8012509,61.0385 35.990249,61.0482499 36.18375,61.06175 C36.377251,61.0752501 36.5662491,61.0984998 36.75075,61.1315 C36.9352509,61.1645002 37.0994993,61.2184996 37.2435,61.2935 C37.3875007,61.3685004 37.5037496,61.4719993 37.59225,61.604 C37.6807504,61.7360007 37.725,61.906999 37.725,62.117 C37.725,62.312001 37.6762505,62.5009991 37.57875,62.684 C37.4812495,62.8670009 37.3410009,63.0297493 37.158,63.17225 C36.9749991,63.3147507 36.7507513,63.4287496 36.48525,63.51425 C36.2197487,63.5997504 35.9205017,63.6425 35.5875,63.6425 C35.2544983,63.6425 34.9635012,63.6095003 34.7145,63.5435 C34.4654988,63.4774997 34.2585008,63.3890006 34.0935,63.278 C33.9284992,63.1669994 33.8047504,63.0387507 33.72225,62.89325 C33.6397496,62.7477493 33.5985,62.5955008 33.5985,62.4365 C33.5985,62.2114989 33.6689993,62.0210008 33.81,61.865 C33.9510007,61.7089992 34.1444988,61.5845005 34.3905,61.4915 C34.2554993,61.4314997 34.1482504,61.3512505 34.06875,61.25075 C33.9892496,61.1502495 33.9495,61.0145009 33.9495,60.8435 C33.9495,60.7774997 33.9614999,60.7092504 33.9855,60.63875 C34.0095001,60.5682496 34.0462498,60.4977504 34.09575,60.42725 C34.1452502,60.3567496 34.2059996,60.2900003 34.278,60.227 C34.3500004,60.1639997 34.4339995,60.1085002 34.53,60.0605 C34.3049989,59.9344994 34.1295006,59.767251 34.0035,59.55875 C33.8774994,59.350249 33.8145,59.1080014 33.8145,58.832 C33.8145,58.6099989 33.8572496,58.4082509 33.94275,58.22675 C34.0282504,58.0452491 34.1474992,57.8907506 34.3005,57.76325 C34.4535008,57.6357494 34.6357489,57.5375003 34.84725,57.4685 C35.0587511,57.3994997 35.2904987,57.365 35.5425,57.365 C35.740501,57.365 35.9249991,57.3867498 36.096,57.43025 C36.2670009,57.4737502 36.4229993,57.5374996 36.564,57.6215 L37.8015,57.6215 Z M41.913,59.2235 C41.913,59.0374991 41.8867503,58.8672508 41.83425,58.71275 C41.7817497,58.5582492 41.7052505,58.4247506 41.60475,58.31225 C41.5042495,58.1997494 41.3820007,58.1127503 41.238,58.05125 C41.0939993,57.9897497 40.9305009,57.959 40.7475,57.959 C40.3634981,57.959 40.0597511,58.0707489 39.83625,58.29425 C39.6127489,58.5177511 39.4740003,58.827498 39.42,59.2235 L41.913,59.2235 Z M42.561,61.361 C42.4619995,61.4810006 42.3435007,61.5852496 42.2055,61.67375 C42.0674993,61.7622504 41.9197508,61.8349997 41.76225,61.892 C41.6047492,61.9490003 41.4420008,61.9917499 41.274,62.02025 C41.1059992,62.0487501 40.9395008,62.063 40.7745,62.063 C40.4594984,62.063 40.1692513,62.0097505 39.90375,61.90325 C39.6382487,61.7967495 39.408751,61.640751 39.21525,61.43525 C39.021749,61.229749 38.8710005,60.9755015 38.763,60.6725 C38.6549995,60.3694985 38.601,60.021502 38.601,59.6285 C38.601,59.3104984 38.6497495,59.0135014 38.74725,58.7375 C38.8447505,58.4614986 38.9849991,58.222251 39.168,58.01975 C39.3510009,57.817249 39.5744987,57.6582506 39.8385,57.54275 C40.1025013,57.4272494 40.3994983,57.3695 40.7295,57.3695 C41.0025014,57.3695 41.2552488,57.4152495 41.48775,57.50675 C41.7202512,57.5982505 41.9212492,57.7302491 42.09075,57.90275 C42.2602508,58.0752509 42.3929995,58.2882487 42.489,58.54175 C42.5850005,58.7952513 42.633,59.0839984 42.633,59.408 C42.633,59.5340006 42.6195001,59.6179998 42.5925,59.66 C42.5654999,59.7020002 42.5145004,59.723 42.4395,59.723 L39.393,59.723 C39.402,60.0110014 39.4417496,60.2614989 39.51225,60.4745 C39.5827504,60.6875011 39.6809994,60.8652493 39.807,61.00775 C39.9330006,61.1502507 40.0829991,61.2567496 40.257,61.32725 C40.4310009,61.3977504 40.6259989,61.433 40.842,61.433 C41.043001,61.433 41.2162493,61.4097502 41.36175,61.36325 C41.5072507,61.3167498 41.6324995,61.2665003 41.7375,61.2125 C41.8425005,61.1584997 41.9302496,61.1082502 42.00075,61.06175 C42.0712504,61.0152498 42.1319997,60.992 42.183,60.992 C42.2490003,60.992 42.2999998,61.0174997 42.336,61.0685 L42.561,61.361 Z M44.6745,58.355 C44.8185007,58.0429984 44.9954989,57.7992509 45.2055,57.62375 C45.415501,57.4482491 45.6719985,57.3605 45.975,57.3605 C46.0710005,57.3605 46.1632496,57.3709999 46.25175,57.392 C46.3402504,57.4130001 46.4189997,57.4459998 46.488,57.491 L46.4295,58.0895 C46.4114999,58.1645004 46.3665004,58.202 46.2945,58.202 C46.2524998,58.202 46.1910004,58.1930001 46.11,58.175 C46.0289996,58.1569999 45.9375005,58.148 45.8355,58.148 C45.6914993,58.148 45.5632506,58.1689998 45.45075,58.211 C45.3382494,58.2530002 45.2377504,58.3152496 45.14925,58.39775 C45.0607496,58.4802504 44.9812504,58.5822494 44.91075,58.70375 C44.8402496,58.8252506 44.7765003,58.9639992 44.7195,59.12 L44.7195,62 L43.914,62 L43.914,57.4415 L44.373,57.4415 C44.4600004,57.4415 44.5199998,57.4579998 44.553,57.491 C44.5860002,57.5240002 44.6084999,57.5809996 44.6205,57.662 L44.6745,58.355 Z" id="path-2" fill="#000000" fill-rule="nonzero"/>
    <path d="M9.61,109.6745 C9.86200126,109.6745 10.084749,109.64375 10.27825,109.58225 C10.471751,109.52075 10.6337493,109.433751 10.76425,109.32125 C10.8947507,109.208749 10.9929997,109.074501 11.059,108.9185 C11.1250003,108.762499 11.158,108.590001 11.158,108.401 C11.158,108.016998 11.0320013,107.727501 10.78,107.5325 C10.5279987,107.337499 10.1500025,107.24 9.646,107.24 L8.692,107.24 L8.692,109.6745 L9.61,109.6745 Z M12.589,113 L11.815,113 C11.6559992,113 11.5390004,112.938501 11.464,112.8155 L9.79,110.5115 C9.73899974,110.4395 9.68425029,110.38775 9.62575,110.35625 C9.56724971,110.32475 9.47650061,110.309 9.3535,110.309 L8.692,110.309 L8.692,113 L7.8235,113 L7.8235,106.5515 L9.646,106.5515 C10.054002,106.5515 10.4064985,106.59275 10.7035,106.67525 C11.0005015,106.75775 11.245749,106.876999 11.43925,107.033 C11.632751,107.189001 11.7759995,107.377249 11.869,107.59775 C11.9620005,107.818251 12.0085,108.064999 12.0085,108.338 C12.0085,108.566001 11.9725004,108.778999 11.9005,108.977 C11.8284996,109.175001 11.7242507,109.352749 11.58775,109.51025 C11.4512493,109.667751 11.284751,109.801999 11.08825,109.913 C10.891749,110.024001 10.6690012,110.108 10.42,110.165 C10.5310006,110.228 10.6269996,110.319499 10.708,110.4395 L12.589,113 Z M15.976,110.948 C15.6069982,110.96 15.2927513,110.98925 15.03325,111.03575 C14.7737487,111.08225 14.5622508,111.143 14.39875,111.218 C14.2352492,111.293 14.1167504,111.381499 14.04325,111.4835 C13.9697496,111.585501 13.933,111.699499 13.933,111.8255 C13.933,111.945501 13.9524998,112.049 13.9915,112.136 C14.0305002,112.223 14.0837497,112.29425 14.15125,112.34975 C14.2187503,112.40525 14.2982495,112.44575 14.38975,112.47125 C14.4812505,112.49675 14.5794995,112.5095 14.6845,112.5095 C14.8255007,112.5095 14.9544994,112.49525 15.0715,112.46675 C15.1885006,112.43825 15.2987495,112.397 15.40225,112.343 C15.5057505,112.289 15.6047495,112.2245 15.69925,112.1495 C15.7937505,112.0745 15.8859996,111.989 15.976,111.893 L15.976,110.948 Z M13.3885,109.085 C13.6405013,108.841999 13.9119985,108.660501 14.203,108.5405 C14.4940015,108.420499 14.8164982,108.3605 15.1705,108.3605 C15.4255013,108.3605 15.651999,108.4025 15.85,108.4865 C16.048001,108.5705 16.2144993,108.687499 16.3495,108.8375 C16.4845007,108.987501 16.5864997,109.168999 16.6555,109.382 C16.7245003,109.595001 16.759,109.828999 16.759,110.084 L16.759,113 L16.4035,113 C16.3254996,113 16.2655002,112.98725 16.2235,112.96175 C16.1814998,112.93625 16.1485001,112.886 16.1245,112.811 L16.0345,112.379 C15.9144994,112.490001 15.7975006,112.58825 15.6835,112.67375 C15.5694994,112.75925 15.4495006,112.83125 15.3235,112.88975 C15.1974994,112.94825 15.0632507,112.99325 14.92075,113.02475 C14.7782493,113.05625 14.6200009,113.072 14.446,113.072 C14.2689991,113.072 14.1025008,113.04725 13.9465,112.99775 C13.7904992,112.94825 13.6547506,112.874 13.53925,112.775 C13.4237494,112.676 13.3322503,112.550751 13.26475,112.39925 C13.1972497,112.247749 13.1635,112.068501 13.1635,111.8615 C13.1635,111.681499 13.2129995,111.508251 13.312,111.34175 C13.4110005,111.175249 13.5714989,111.027501 13.7935,110.8985 C14.0155011,110.769499 14.3049982,110.66375 14.662,110.58125 C15.0190018,110.49875 15.4569974,110.4515 15.976,110.4395 L15.976,110.084 C15.976,109.729998 15.8995008,109.462251 15.7465,109.28075 C15.5934992,109.099249 15.3700015,109.0085 15.076,109.0085 C14.877999,109.0085 14.7122507,109.03325 14.57875,109.08275 C14.4452493,109.13225 14.3297505,109.18775 14.23225,109.24925 C14.1347495,109.31075 14.0507504,109.36625 13.98025,109.41575 C13.9097496,109.46525 13.8400003,109.49 13.771,109.49 C13.7169997,109.49 13.6705002,109.47575 13.6315,109.44725 C13.5924998,109.41875 13.5595001,109.3835 13.5325,109.3415 L13.3885,109.085 Z M19.0345,109.103 C19.1335005,108.991999 19.2384994,108.8915 19.3495,108.8015 C19.4605006,108.7115 19.5782494,108.63425 19.70275,108.56975 C19.8272506,108.50525 19.9592493,108.45575 20.09875,108.42125 C20.2382507,108.38675 20.3889992,108.3695 20.551,108.3695 C20.8000012,108.3695 21.019749,108.41075 21.21025,108.49325 C21.400751,108.57575 21.5597494,108.692749 21.68725,108.84425 C21.8147506,108.995751 21.9114997,109.177999 21.9775,109.391 C22.0435003,109.604001 22.0765,109.839499 22.0765,110.0975 L22.0765,113 L21.271,113 L21.271,110.0975 C21.271,109.752498 21.1922508,109.484751 21.03475,109.29425 C20.8772492,109.103749 20.6380016,109.0085 20.317,109.0085 C20.0799988,109.0085 19.858751,109.065499 19.65325,109.1795 C19.447749,109.293501 19.2580009,109.447999 19.084,109.643 L19.084,113 L18.2785,113 L18.2785,108.4415 L18.76,108.4415 C18.8740006,108.4415 18.9444999,108.496999 18.9715,108.608 L19.0345,109.103 Z M26.5705,109.526 C26.4204993,109.324999 26.2585009,109.18475 26.0845,109.10525 C25.9104991,109.02575 25.7155011,108.986 25.4995,108.986 C25.0764979,108.986 24.7510011,109.137498 24.523,109.4405 C24.2949989,109.743502 24.181,110.175497 24.181,110.7365 C24.181,111.033501 24.2064997,111.287749 24.2575,111.49925 C24.3085003,111.710751 24.3834995,111.884749 24.4825,112.02125 C24.5815005,112.157751 24.7029993,112.2575 24.847,112.3205 C24.9910007,112.3835 25.1544991,112.415 25.3375,112.415 C25.6015013,112.415 25.831749,112.355001 26.02825,112.235 C26.224751,112.114999 26.4054992,111.945501 26.5705,111.7265 L26.5705,109.526 Z M27.3715,106.3715 L27.3715,113 L26.8945,113 C26.7804994,113 26.7085002,112.944501 26.6785,112.8335 L26.6065,112.28 C26.411499,112.514001 26.1895012,112.702999 25.9405,112.847 C25.6914988,112.991001 25.4035016,113.063 25.0765,113.063 C24.8154987,113.063 24.5785011,113.012751 24.3655,112.91225 C24.1524989,112.811749 23.9710007,112.664001 23.821,112.469 C23.6709993,112.273999 23.5555004,112.031001 23.4745,111.74 C23.3934996,111.448999 23.353,111.114502 23.353,110.7365 C23.353,110.400498 23.3979996,110.087751 23.488,109.79825 C23.5780004,109.508749 23.7069992,109.257501 23.875,109.0445 C24.0430008,108.831499 24.2492488,108.664251 24.49375,108.54275 C24.7382512,108.421249 25.0134985,108.3605 25.3195,108.3605 C25.5985014,108.3605 25.837749,108.40775 26.03725,108.50225 C26.236751,108.59675 26.4144992,108.727999 26.5705,108.896 L26.5705,106.3715 L27.3715,106.3715 Z M30.862,108.3695 C31.1950017,108.3695 31.4949987,108.424999 31.762,108.536 C32.0290013,108.647001 32.2569991,108.804499 32.446,109.0085 C32.6350009,109.212501 32.7797495,109.459249 32.88025,109.74875 C32.9807505,110.038251 33.031,110.361498 33.031,110.7185 C33.031,111.078502 32.9807505,111.402499 32.88025,111.6905 C32.7797495,111.978501 32.6350009,112.224499 32.446,112.4285 C32.2569991,112.632501 32.0290013,112.789249 31.762,112.89875 C31.4949987,113.008251 31.1950017,113.063 30.862,113.063 C30.5259983,113.063 30.2237513,113.008251 29.95525,112.89875 C29.6867487,112.789249 29.4580009,112.632501 29.269,112.4285 C29.0799991,112.224499 28.9352505,111.978501 28.83475,111.6905 C28.7342495,111.402499 28.684,111.078502 28.684,110.7185 C28.684,110.361498 28.7342495,110.038251 28.83475,109.74875 C28.9352505,109.459249 29.0799991,109.212501 29.269,109.0085 C29.4580009,108.804499 29.6867487,108.647001 29.95525,108.536 C30.2237513,108.424999 30.5259983,108.3695 30.862,108.3695 Z M30.862,112.4375 C31.3120022,112.4375 31.6479989,112.286752 31.87,111.98525 C32.0920011,111.683748 32.203,111.263003 32.203,110.723 C32.203,110.179997 32.0920011,109.757002 31.87,109.454 C31.6479989,109.150998 31.3120022,108.9995 30.862,108.9995 C30.6339989,108.9995 30.4352508,109.0385 30.26575,109.1165 C30.0962492,109.1945 29.9552506,109.306999 29.84275,109.454 C29.7302494,109.601001 29.6462503,109.781749 29.59075,109.99625 C29.5352497,110.210751 29.5075,110.452999 29.5075,110.723 C29.5075,111.263003 29.6192489,111.683748 29.84275,111.98525 C30.0662511,112.286752 30.4059977,112.4375 30.862,112.4375 Z M37.5495363,109.313931 C37.6152404,109.151079 37.6993108,109.01027 37.80175,108.8915 C37.9052505,108.771499 38.0214994,108.6725 38.1505,108.5945 C38.2795006,108.5165 38.4167493,108.4595 38.56225,108.4235 C38.7077507,108.3875 38.8554993,108.3695 39.0055,108.3695 C39.2455012,108.3695 39.4592491,108.40775 39.64675,108.48425 C39.8342509,108.56075 39.9932493,108.672499 40.12375,108.8195 C40.2542507,108.966501 40.3539997,109.147249 40.423,109.36175 C40.4920003,109.576251 40.5265,109.821499 40.5265,110.0975 L40.5265,113 L39.721,113 L39.721,110.0975 C39.721,109.740498 39.6430008,109.469751 39.487,109.28525 C39.3309992,109.100749 39.1060015,109.0085 38.812,109.0085 C38.6799993,109.0085 38.5547506,109.03175 38.43625,109.07825 C38.3177494,109.12475 38.2135004,109.193 38.1235,109.283 C38.0334996,109.373 37.9622503,109.486249 37.90975,109.62275 C37.8572497,109.759251 37.831,109.917499 37.831,110.0975 L37.831,113 L37.0255,113 L37.0255,110.0975 C37.0255,109.731498 36.9520007,109.458501 36.805,109.2785 C36.6579993,109.098499 36.4435014,109.0085 36.1615,109.0085 C35.963499,109.0085 35.7805008,109.061749 35.6125,109.16825 C35.4444992,109.274751 35.2900007,109.419499 35.149,109.6025 L35.149,113 L34.3435,113 L34.3435,108.4415 L34.825,108.4415 C34.9390006,108.4415 35.0094999,108.496999 35.0365,108.608 L35.095,109.076 C35.2630008,108.868999 35.451999,108.699501 35.662,108.5675 C35.8720011,108.435499 36.1149986,108.3695 36.391,108.3695 C36.6970015,108.3695 36.945249,108.454999 37.13575,108.626 C37.3262491,108.796999 37.4634969,109.027994 37.5474976,109.318992 L37.5495363,109.313931 Z" id="path-3" fill="#000000" fill-rule="nonzero"/>
  </g>
</svg>