<svg width="96" height="126" viewBox="0 0 96 126" fill="none" xmlns="http://www.w3.org/2000/svg">
<rect x="4.5" y="2" width="11" height="11" fill="#FF9300"/>
<rect x="4.5" y="2" width="11" height="11" stroke="#FF9300"/>
<path d="M6.7035 7.672H8.7755V8.496H6.7035V7.672ZM9.54388 6.328C9.58388 6.05067 9.66121 5.808 9.77588 5.6C9.89054 5.38933 10.0332 5.21467 10.2039 5.076C10.3772 4.93467 10.5745 4.82933 10.7959 4.76C11.0199 4.688 11.2599 4.652 11.5159 4.652C11.7825 4.652 12.0225 4.69067 12.2359 4.768C12.4519 4.84267 12.6359 4.948 12.7879 5.084C12.9399 5.21733 13.0559 5.37467 13.1359 5.556C13.2185 5.73733 13.2599 5.93333 13.2599 6.144C13.2599 6.328 13.2385 6.49067 13.1959 6.632C13.1559 6.77067 13.0972 6.892 13.0199 6.996C12.9425 7.1 12.8465 7.188 12.7319 7.26C12.6172 7.332 12.4879 7.392 12.3439 7.44C12.6905 7.54933 12.9492 7.716 13.1199 7.94C13.2905 8.164 13.3759 8.44533 13.3759 8.784C13.3759 9.072 13.3225 9.32667 13.2159 9.548C13.1092 9.76933 12.9652 9.956 12.7839 10.108C12.6025 10.2573 12.3919 10.3707 12.1519 10.448C11.9145 10.5253 11.6625 10.564 11.3959 10.564C11.1052 10.564 10.8519 10.5307 10.6359 10.464C10.4199 10.3973 10.2319 10.2987 10.0719 10.168C9.91188 10.0373 9.77588 9.87733 9.66388 9.688C9.55188 9.49867 9.45588 9.28 9.37588 9.032L9.81188 8.852C9.92654 8.804 10.0332 8.792 10.1319 8.816C10.2332 8.83733 10.3065 8.89067 10.3519 8.976C10.3999 9.06933 10.4519 9.16133 10.5079 9.252C10.5665 9.34267 10.6359 9.424 10.7159 9.496C10.7959 9.56533 10.8892 9.62267 10.9959 9.668C11.1052 9.71067 11.2345 9.732 11.3839 9.732C11.5519 9.732 11.6985 9.70533 11.8239 9.652C11.9492 9.596 12.0532 9.524 12.1359 9.436C12.2212 9.348 12.2839 9.25067 12.3239 9.144C12.3665 9.03467 12.3879 8.92533 12.3879 8.816C12.3879 8.67733 12.3732 8.552 12.3439 8.44C12.3145 8.32533 12.2532 8.228 12.1599 8.148C12.0665 8.068 11.9319 8.00533 11.7559 7.96C11.5825 7.91467 11.3492 7.892 11.0559 7.892V7.188C11.2985 7.18533 11.4999 7.16267 11.6599 7.12C11.8199 7.07733 11.9465 7.01867 12.0399 6.944C12.1359 6.86667 12.2025 6.77467 12.2399 6.668C12.2772 6.56133 12.2959 6.444 12.2959 6.316C12.2959 6.044 12.2199 5.83733 12.0679 5.696C11.9159 5.55467 11.7132 5.484 11.4599 5.484C11.3425 5.484 11.2345 5.50133 11.1359 5.536C11.0372 5.568 10.9479 5.61467 10.8679 5.676C10.7905 5.73467 10.7252 5.804 10.6719 5.884C10.6185 5.964 10.5785 6.052 10.5519 6.148C10.5065 6.27067 10.4465 6.352 10.3719 6.392C10.2999 6.432 10.1972 6.44133 10.0639 6.42L9.54388 6.328Z" fill="white"/>
<rect x="17.5" y="20" width="11" height="11" fill="#FF9300"/>
<rect x="17.5" y="20" width="11" height="11" stroke="#FF9300"/>
<path d="M19.7035 25.672H21.7755V26.496H19.7035V25.672ZM26.0359 27.58C26.1425 27.58 26.2265 27.6107 26.2879 27.672C26.3519 27.7307 26.3839 27.8093 26.3839 27.908V28.5H22.4159V28.172C22.4159 28.1053 22.4292 28.036 22.4559 27.964C22.4852 27.8893 22.5305 27.8227 22.5919 27.764L24.3479 26.004C24.4945 25.8547 24.6252 25.712 24.7399 25.576C24.8572 25.44 24.9545 25.3053 25.0319 25.172C25.1092 25.0387 25.1679 24.904 25.2079 24.768C25.2505 24.6293 25.2719 24.484 25.2719 24.332C25.2719 24.1933 25.2519 24.072 25.2119 23.968C25.1719 23.8613 25.1145 23.772 25.0399 23.7C24.9679 23.628 24.8799 23.5747 24.7759 23.54C24.6745 23.5027 24.5599 23.484 24.4319 23.484C24.3145 23.484 24.2052 23.5013 24.1039 23.536C24.0052 23.568 23.9172 23.6147 23.8399 23.676C23.7625 23.7347 23.6972 23.804 23.6439 23.884C23.5905 23.964 23.5505 24.052 23.5239 24.148C23.4785 24.2707 23.4199 24.352 23.3479 24.392C23.2759 24.432 23.1719 24.4413 23.0359 24.42L22.5159 24.328C22.5559 24.0507 22.6332 23.808 22.7479 23.6C22.8625 23.3893 23.0052 23.2147 23.1759 23.076C23.3492 22.9347 23.5465 22.8293 23.7679 22.76C23.9919 22.688 24.2319 22.652 24.4879 22.652C24.7545 22.652 24.9985 22.692 25.2199 22.772C25.4412 22.8493 25.6305 22.96 25.7879 23.104C25.9452 23.248 26.0679 23.4213 26.1559 23.624C26.2439 23.8267 26.2879 24.052 26.2879 24.3C26.2879 24.5133 26.2559 24.7107 26.1919 24.892C26.1305 25.0733 26.0465 25.2467 25.9399 25.412C25.8359 25.5773 25.7132 25.7373 25.5719 25.892C25.4305 26.0467 25.2825 26.204 25.1279 26.364L23.8239 27.696C23.9492 27.6587 24.0732 27.6307 24.1959 27.612C24.3212 27.5907 24.4399 27.58 24.5519 27.58H26.0359Z" fill="white"/>
<rect x="30.5" y="38" width="11" height="11" fill="#FF9300"/>
<rect x="30.5" y="38" width="11" height="11" stroke="#FF9300"/>
<path d="M32.7035 43.672H34.7755V44.496H32.7035V43.672ZM39.2519 45.76V46.5H36.0519V45.76H37.2239V42.388C37.2239 42.2547 37.2279 42.1173 37.2359 41.976L36.4039 42.672C36.3559 42.7093 36.3079 42.7333 36.2599 42.744C36.2145 42.752 36.1705 42.752 36.1279 42.744C36.0879 42.736 36.0519 42.7227 36.0199 42.704C35.9879 42.6827 35.9639 42.66 35.9479 42.636L35.6359 42.208L37.3999 40.708H38.2119V45.76H39.2519Z" fill="white"/>
<rect x="43.5" y="56" width="11" height="11" fill="#FF9300"/>
<rect x="43.5" y="56" width="11" height="11" stroke="#FF9300"/>
<path d="M51.1197 61.608C51.1197 62.112 51.065 62.5507 50.9557 62.924C50.849 63.2947 50.6997 63.6013 50.5077 63.844C50.3184 64.0867 50.093 64.268 49.8317 64.388C49.573 64.5053 49.293 64.564 48.9917 64.564C48.6904 64.564 48.4104 64.5053 48.1517 64.388C47.8957 64.268 47.673 64.0867 47.4837 63.844C47.2944 63.6013 47.1464 63.2947 47.0397 62.924C46.933 62.5507 46.8797 62.112 46.8797 61.608C46.8797 61.1013 46.933 60.6627 47.0397 60.292C47.1464 59.9213 47.2944 59.6147 47.4837 59.372C47.673 59.1293 47.8957 58.9493 48.1517 58.832C48.4104 58.712 48.6904 58.652 48.9917 58.652C49.293 58.652 49.573 58.712 49.8317 58.832C50.093 58.9493 50.3184 59.1293 50.5077 59.372C50.6997 59.6147 50.849 59.9213 50.9557 60.292C51.065 60.6627 51.1197 61.1013 51.1197 61.608ZM50.0997 61.608C50.0997 61.1893 50.069 60.8427 50.0077 60.568C49.9464 60.2933 49.8637 60.0747 49.7597 59.912C49.6584 59.7493 49.541 59.636 49.4077 59.572C49.2744 59.5053 49.1357 59.472 48.9917 59.472C48.8504 59.472 48.713 59.5053 48.5797 59.572C48.449 59.636 48.333 59.7493 48.2317 59.912C48.1304 60.0747 48.049 60.2933 47.9877 60.568C47.929 60.8427 47.8997 61.1893 47.8997 61.608C47.8997 62.0267 47.929 62.3733 47.9877 62.648C48.049 62.9227 48.1304 63.1413 48.2317 63.304C48.333 63.4667 48.449 63.5813 48.5797 63.648C48.713 63.712 48.8504 63.744 48.9917 63.744C49.1357 63.744 49.2744 63.712 49.4077 63.648C49.541 63.5813 49.6584 63.4667 49.7597 63.304C49.8637 63.1413 49.9464 62.9227 50.0077 62.648C50.069 62.3733 50.0997 62.0267 50.0997 61.608Z" fill="white"/>
<rect x="56.5" y="74" width="11" height="11" fill="#FF9300"/>
<rect x="56.5" y="74" width="11" height="11" stroke="#FF9300"/>
<path d="M61.6914 80.18H60.1394V81.828H59.3354V80.18H57.7914V79.448H59.3354V77.808H60.1394V79.448H61.6914V80.18ZM66.08 81.76V82.5H62.88V81.76H64.052V78.388C64.052 78.2547 64.056 78.1173 64.064 77.976L63.232 78.672C63.184 78.7093 63.136 78.7333 63.088 78.744C63.0427 78.752 62.9987 78.752 62.956 78.744C62.916 78.736 62.88 78.7227 62.848 78.704C62.816 78.6827 62.792 78.66 62.776 78.636L62.464 78.208L64.228 76.708H65.04V81.76H66.08Z" fill="white"/>
<rect x="69.5" y="92" width="11" height="11" fill="#FF9300"/>
<rect x="69.5" y="92" width="11" height="11" stroke="#FF9300"/>
<path d="M74.6914 98.18H73.1394V99.828H72.3354V98.18H70.7914V97.448H72.3354V95.808H73.1394V97.448H74.6914V98.18ZM78.864 99.58C78.9707 99.58 79.0547 99.6107 79.116 99.672C79.18 99.7307 79.212 99.8093 79.212 99.908V100.5H75.244V100.172C75.244 100.105 75.2573 100.036 75.284 99.964C75.3133 99.8893 75.3587 99.8227 75.42 99.764L77.176 98.004C77.3227 97.8547 77.4533 97.712 77.568 97.576C77.6853 97.44 77.7827 97.3053 77.86 97.172C77.9373 97.0387 77.996 96.904 78.036 96.768C78.0787 96.6293 78.1 96.484 78.1 96.332C78.1 96.1933 78.08 96.072 78.04 95.968C78 95.8613 77.9427 95.772 77.868 95.7C77.796 95.628 77.708 95.5747 77.604 95.54C77.5027 95.5027 77.388 95.484 77.26 95.484C77.1427 95.484 77.0333 95.5013 76.932 95.536C76.8333 95.568 76.7453 95.6147 76.668 95.676C76.5907 95.7347 76.5253 95.804 76.472 95.884C76.4187 95.964 76.3787 96.052 76.352 96.148C76.3067 96.2707 76.248 96.352 76.176 96.392C76.104 96.432 76 96.4413 75.864 96.42L75.344 96.328C75.384 96.0507 75.4613 95.808 75.576 95.6C75.6907 95.3893 75.8333 95.2147 76.004 95.076C76.1773 94.9347 76.3747 94.8293 76.596 94.76C76.82 94.688 77.06 94.652 77.316 94.652C77.5827 94.652 77.8267 94.692 78.048 94.772C78.2693 94.8493 78.4587 94.96 78.616 95.104C78.7733 95.248 78.896 95.4213 78.984 95.624C79.072 95.8267 79.116 96.052 79.116 96.3C79.116 96.5133 79.084 96.7107 79.02 96.892C78.9587 97.0733 78.8747 97.2467 78.768 97.412C78.664 97.5773 78.5413 97.7373 78.4 97.892C78.2587 98.0467 78.1107 98.204 77.956 98.364L76.652 99.696C76.7773 99.6587 76.9013 99.6307 77.024 99.612C77.1493 99.5907 77.268 99.58 77.38 99.58H78.864Z" fill="white"/>
<rect x="82.5" y="110" width="11" height="11" fill="#FF9300"/>
<rect x="82.5" y="110" width="11" height="11" stroke="#FF9300"/>
<path d="M87.6914 116.18H86.1394V117.828H85.3354V116.18H83.7914V115.448H85.3354V113.808H86.1394V115.448H87.6914V116.18ZM88.372 114.328C88.412 114.051 88.4893 113.808 88.604 113.6C88.7187 113.389 88.8613 113.215 89.032 113.076C89.2053 112.935 89.4027 112.829 89.624 112.76C89.848 112.688 90.088 112.652 90.344 112.652C90.6107 112.652 90.8507 112.691 91.064 112.768C91.28 112.843 91.464 112.948 91.616 113.084C91.768 113.217 91.884 113.375 91.964 113.556C92.0467 113.737 92.088 113.933 92.088 114.144C92.088 114.328 92.0667 114.491 92.024 114.632C91.984 114.771 91.9253 114.892 91.848 114.996C91.7707 115.1 91.6747 115.188 91.56 115.26C91.4453 115.332 91.316 115.392 91.172 115.44C91.5187 115.549 91.7773 115.716 91.948 115.94C92.1187 116.164 92.204 116.445 92.204 116.784C92.204 117.072 92.1507 117.327 92.044 117.548C91.9373 117.769 91.7933 117.956 91.612 118.108C91.4307 118.257 91.22 118.371 90.98 118.448C90.7427 118.525 90.4907 118.564 90.224 118.564C89.9333 118.564 89.68 118.531 89.464 118.464C89.248 118.397 89.06 118.299 88.9 118.168C88.74 118.037 88.604 117.877 88.492 117.688C88.38 117.499 88.284 117.28 88.204 117.032L88.64 116.852C88.7547 116.804 88.8613 116.792 88.96 116.816C89.0613 116.837 89.1347 116.891 89.18 116.976C89.228 117.069 89.28 117.161 89.336 117.252C89.3947 117.343 89.464 117.424 89.544 117.496C89.624 117.565 89.7173 117.623 89.824 117.668C89.9333 117.711 90.0627 117.732 90.212 117.732C90.38 117.732 90.5267 117.705 90.652 117.652C90.7773 117.596 90.8813 117.524 90.964 117.436C91.0493 117.348 91.112 117.251 91.152 117.144C91.1947 117.035 91.216 116.925 91.216 116.816C91.216 116.677 91.2013 116.552 91.172 116.44C91.1427 116.325 91.0813 116.228 90.988 116.148C90.8947 116.068 90.76 116.005 90.584 115.96C90.4107 115.915 90.1773 115.892 89.884 115.892V115.188C90.1267 115.185 90.328 115.163 90.488 115.12C90.648 115.077 90.7747 115.019 90.868 114.944C90.964 114.867 91.0307 114.775 91.068 114.668C91.1053 114.561 91.124 114.444 91.124 114.316C91.124 114.044 91.048 113.837 90.896 113.696C90.744 113.555 90.5413 113.484 90.288 113.484C90.1707 113.484 90.0627 113.501 89.964 113.536C89.8653 113.568 89.776 113.615 89.696 113.676C89.6187 113.735 89.5533 113.804 89.5 113.884C89.4467 113.964 89.4067 114.052 89.38 114.148C89.3347 114.271 89.2747 114.352 89.2 114.392C89.128 114.432 89.0253 114.441 88.892 114.42L88.372 114.328Z" fill="white"/>
</svg>
