<svg width="76" height="39" viewBox="0 0 76 39" fill="none" xmlns="http://www.w3.org/2000/svg">
<rect width="24" height="11" transform="translate(1 1)" fill="#FF9300" fill-opacity="0.5"/>
<path d="M14.5922 8.3525V9H11.7922V8.3525H12.8177V5.402C12.8177 5.28533 12.8212 5.16517 12.8282 5.0415L12.1002 5.6505C12.0582 5.68317 12.0162 5.70417 11.9742 5.7135C11.9346 5.7205 11.8961 5.7205 11.8587 5.7135C11.8237 5.7065 11.7922 5.69483 11.7642 5.6785C11.7362 5.65983 11.7152 5.64 11.7012 5.619L11.4282 5.2445L12.9717 3.932H13.6822V8.3525H14.5922Z" fill="white"/>
<rect width="24" height="11" transform="translate(26 14)" fill="#FF9300" fill-opacity="0.5"/>
<path d="M39.4032 21.195C39.4966 21.195 39.5701 21.2218 39.6237 21.2755C39.6797 21.3268 39.7077 21.3957 39.7077 21.482V22H36.2357V21.713C36.2357 21.6547 36.2474 21.594 36.2707 21.531C36.2964 21.4657 36.3361 21.4073 36.3897 21.356L37.9262 19.816C38.0546 19.6853 38.1689 19.5605 38.2692 19.4415C38.3719 19.3225 38.4571 19.2047 38.5247 19.088C38.5924 18.9713 38.6437 18.8535 38.6787 18.7345C38.7161 18.6132 38.7347 18.486 38.7347 18.353C38.7347 18.2317 38.7172 18.1255 38.6822 18.0345C38.6472 17.9412 38.5971 17.863 38.5317 17.8C38.4687 17.737 38.3917 17.6903 38.3007 17.66C38.2121 17.6273 38.1117 17.611 37.9997 17.611C37.8971 17.611 37.8014 17.6262 37.7127 17.6565C37.6264 17.6845 37.5494 17.7253 37.4817 17.779C37.4141 17.8303 37.3569 17.891 37.3102 17.961C37.2636 18.031 37.2286 18.108 37.2052 18.192C37.1656 18.2993 37.1142 18.3705 37.0512 18.4055C36.9882 18.4405 36.8972 18.4487 36.7782 18.43L36.3232 18.3495C36.3582 18.1068 36.4259 17.8945 36.5262 17.7125C36.6266 17.5282 36.7514 17.3753 36.9007 17.254C37.0524 17.1303 37.2251 17.0382 37.4187 16.9775C37.6147 16.9145 37.8247 16.883 38.0487 16.883C38.2821 16.883 38.4956 16.918 38.6892 16.988C38.8829 17.0557 39.0486 17.1525 39.1862 17.2785C39.3239 17.4045 39.4312 17.5562 39.5082 17.7335C39.5852 17.9108 39.6237 18.108 39.6237 18.325C39.6237 18.5117 39.5957 18.6843 39.5397 18.843C39.4861 19.0017 39.4126 19.1533 39.3192 19.298C39.2282 19.4427 39.1209 19.5827 38.9972 19.718C38.8736 19.8533 38.7441 19.991 38.6087 20.131L37.4677 21.2965C37.5774 21.2638 37.6859 21.2393 37.7932 21.223C37.9029 21.2043 38.0067 21.195 38.1047 21.195H39.4032Z" fill="white"/>
<rect width="24" height="11" transform="translate(51 27)" fill="#FF9300" fill-opacity="0.5"/>
<path d="M61.3477 31.3495C61.3827 31.1068 61.4504 30.8945 61.5507 30.7125C61.6511 30.5282 61.7759 30.3753 61.9252 30.254C62.0769 30.1303 62.2496 30.0382 62.4432 29.9775C62.6392 29.9145 62.8492 29.883 63.0732 29.883C63.3066 29.883 63.5166 29.9168 63.7032 29.9845C63.8922 30.0498 64.0532 30.142 64.1862 30.261C64.3192 30.3777 64.4207 30.5153 64.4907 30.674C64.5631 30.8327 64.5992 31.0042 64.5992 31.1885C64.5992 31.3495 64.5806 31.4918 64.5432 31.6155C64.5082 31.7368 64.4569 31.843 64.3892 31.934C64.3216 32.025 64.2376 32.102 64.1372 32.165C64.0369 32.228 63.9237 32.2805 63.7977 32.3225C64.1011 32.4182 64.3274 32.564 64.4767 32.76C64.6261 32.956 64.7007 33.2022 64.7007 33.4985C64.7007 33.7505 64.6541 33.9733 64.5607 34.167C64.4674 34.3607 64.3414 34.524 64.1827 34.657C64.0241 34.7877 63.8397 34.8868 63.6297 34.9545C63.4221 35.0222 63.2016 35.056 62.9682 35.056C62.7139 35.056 62.4922 35.0268 62.3032 34.9685C62.1142 34.9102 61.9497 34.8238 61.8097 34.7095C61.6697 34.5952 61.5507 34.4552 61.4527 34.2895C61.3547 34.1238 61.2707 33.9325 61.2007 33.7155L61.5822 33.558C61.6826 33.516 61.7759 33.5055 61.8622 33.5265C61.9509 33.5452 62.0151 33.5918 62.0547 33.6665C62.0967 33.7482 62.1422 33.8287 62.1912 33.908C62.2426 33.9873 62.3032 34.0585 62.3732 34.1215C62.4432 34.1822 62.5249 34.2323 62.6182 34.272C62.7139 34.3093 62.8271 34.328 62.9577 34.328C63.1047 34.328 63.2331 34.3047 63.3427 34.258C63.4524 34.209 63.5434 34.146 63.6157 34.069C63.6904 33.992 63.7452 33.9068 63.7802 33.8135C63.8176 33.7178 63.8362 33.6222 63.8362 33.5265C63.8362 33.4052 63.8234 33.2955 63.7977 33.1975C63.7721 33.0972 63.7184 33.012 63.6367 32.942C63.5551 32.872 63.4372 32.8172 63.2832 32.7775C63.1316 32.7378 62.9274 32.718 62.6707 32.718V32.102C62.8831 32.0997 63.0592 32.0798 63.1992 32.0425C63.3392 32.0052 63.4501 31.9538 63.5317 31.8885C63.6157 31.8208 63.6741 31.7403 63.7067 31.647C63.7394 31.5537 63.7557 31.451 63.7557 31.339C63.7557 31.101 63.6892 30.9202 63.5562 30.7965C63.4232 30.6728 63.2459 30.611 63.0242 30.611C62.9216 30.611 62.8271 30.6262 62.7407 30.6565C62.6544 30.6845 62.5762 30.7253 62.5062 30.779C62.4386 30.8303 62.3814 30.891 62.3347 30.961C62.2881 31.031 62.2531 31.108 62.2297 31.192C62.1901 31.2993 62.1376 31.3705 62.0722 31.4055C62.0092 31.4405 61.9194 31.4487 61.8027 31.43L61.3477 31.3495Z" fill="white"/>
</svg>
