<svg width="11" height="11" viewBox="0 0 11 11" fill="none" xmlns="http://www.w3.org/2000/svg">
<path d="M0.5 3.5C0.5 1.84315 1.84315 0.5 3.5 0.5H7.5C9.15685 0.5 10.5 1.84315 10.5 3.5V7.5C10.5 9.15685 9.15685 10.5 7.5 10.5H3.5C1.84315 10.5 0.5 9.15685 0.5 7.5V3.5Z" fill="#E3E3E3"/>
<rect x="2.5" y="2.5" width="6" height="6" rx="1" fill="#F1BB72"/>
<rect x="2.5" y="2.5" width="6" height="6" rx="1" stroke="#F1BB72"/>
<path d="M3.5 1H7.5V0H3.5V1ZM10 3.5V7.5H11V3.5H10ZM7.5 10H3.5V11H7.5V10ZM1 7.5V3.5H0V7.5H1ZM3.5 10C2.11929 10 1 8.88071 1 7.5H0C0 9.433 1.567 11 3.5 11V10ZM10 7.5C10 8.88071 8.88071 10 7.5 10V11C9.433 11 11 9.433 11 7.5H10ZM7.5 1C8.88071 1 10 2.11929 10 3.5H11C11 1.567 9.433 0 7.5 0V1ZM3.5 0C1.567 0 0 1.567 0 3.5H1C1 2.11929 2.11929 1 3.5 1V0Z" fill="#979797"/>
<path fill-rule="evenodd" clip-rule="evenodd" d="M3 3L7.97903 3.01157L8 4L3.02097 3.98843L3 3ZM7.97903 5.01157L3 5L3.02098 5.98843L8 6L7.97903 5.01157ZM3 7L7.97903 7.01157L8 8L3.02098 7.98843L3 7Z" fill="black"/>
</svg>
