<svg width="134" height="208" viewBox="0 0 134 208" fill="none" xmlns="http://www.w3.org/2000/svg">
<rect x="100" y="201" width="32" height="7" fill="#FF9A11" fill-opacity="0.5"/>
<path d="M120 204.5L123 202L123 207L120 204.5Z" fill="#EEEEEE"/>
<path d="M112 204.5L109 207L109 202L112 204.5Z" fill="#EEEEEE"/>
<path d="M117.592 206.352V207H114.792V206.352H115.818V203.402C115.818 203.285 115.821 203.165 115.828 203.041L115.1 203.65C115.058 203.683 115.016 203.704 114.974 203.713C114.935 203.72 114.896 203.72 114.859 203.713C114.824 203.706 114.792 203.695 114.764 203.678C114.736 203.66 114.715 203.64 114.701 203.619L114.428 203.244L115.972 201.932H116.682V206.352H117.592Z" fill="#EEEEEE"/>
<path d="M106.403 206.195C106.497 206.195 106.57 206.222 106.624 206.275C106.68 206.327 106.708 206.396 106.708 206.482V207H103.236V206.713C103.236 206.655 103.247 206.594 103.271 206.531C103.296 206.466 103.336 206.407 103.39 206.356L104.926 204.816C105.055 204.685 105.169 204.56 105.269 204.441C105.372 204.322 105.457 204.205 105.525 204.088C105.592 203.971 105.644 203.853 105.679 203.734C105.716 203.613 105.735 203.486 105.735 203.353C105.735 203.232 105.717 203.125 105.682 203.034C105.647 202.941 105.597 202.863 105.532 202.8C105.469 202.737 105.392 202.69 105.301 202.66C105.212 202.627 105.112 202.611 105 202.611C104.897 202.611 104.801 202.626 104.713 202.656C104.626 202.684 104.549 202.725 104.482 202.779C104.414 202.83 104.357 202.891 104.31 202.961C104.264 203.031 104.229 203.108 104.205 203.192C104.166 203.299 104.114 203.37 104.051 203.405C103.988 203.44 103.897 203.449 103.778 203.43L103.323 203.349C103.358 203.107 103.426 202.894 103.526 202.712C103.627 202.528 103.751 202.375 103.901 202.254C104.052 202.13 104.225 202.038 104.419 201.977C104.615 201.914 104.825 201.883 105.049 201.883C105.282 201.883 105.496 201.918 105.689 201.988C105.883 202.056 106.049 202.152 106.186 202.278C106.324 202.404 106.431 202.556 106.508 202.733C106.585 202.911 106.624 203.108 106.624 203.325C106.624 203.512 106.596 203.684 106.54 203.843C106.486 204.002 106.413 204.153 106.319 204.298C106.228 204.443 106.121 204.583 105.997 204.718C105.874 204.853 105.744 204.991 105.609 205.131L104.468 206.296C104.577 206.264 104.686 206.239 104.793 206.223C104.903 206.204 105.007 206.195 105.105 206.195H106.403Z" fill="#EEEEEE"/>
<path d="M125.348 203.349C125.383 203.107 125.45 202.894 125.551 202.712C125.651 202.528 125.776 202.375 125.925 202.254C126.077 202.13 126.25 202.038 126.443 201.977C126.639 201.914 126.849 201.883 127.073 201.883C127.307 201.883 127.517 201.917 127.703 201.984C127.892 202.05 128.053 202.142 128.186 202.261C128.319 202.378 128.421 202.515 128.491 202.674C128.563 202.833 128.599 203.004 128.599 203.188C128.599 203.349 128.581 203.492 128.543 203.615C128.508 203.737 128.457 203.843 128.389 203.934C128.322 204.025 128.238 204.102 128.137 204.165C128.037 204.228 127.924 204.28 127.798 204.322C128.101 204.418 128.327 204.564 128.477 204.76C128.626 204.956 128.701 205.202 128.701 205.498C128.701 205.75 128.654 205.973 128.561 206.167C128.467 206.361 128.341 206.524 128.183 206.657C128.024 206.788 127.84 206.887 127.63 206.954C127.422 207.022 127.202 207.056 126.968 207.056C126.714 207.056 126.492 207.027 126.303 206.968C126.114 206.91 125.95 206.824 125.81 206.709C125.67 206.595 125.551 206.455 125.453 206.289C125.355 206.124 125.271 205.932 125.201 205.715L125.582 205.558C125.683 205.516 125.776 205.505 125.862 205.526C125.951 205.545 126.015 205.592 126.055 205.666C126.097 205.748 126.142 205.829 126.191 205.908C126.243 205.987 126.303 206.058 126.373 206.121C126.443 206.182 126.525 206.232 126.618 206.272C126.714 206.309 126.827 206.328 126.958 206.328C127.105 206.328 127.233 206.305 127.343 206.258C127.452 206.209 127.543 206.146 127.616 206.069C127.69 205.992 127.745 205.907 127.78 205.813C127.818 205.718 127.836 205.622 127.836 205.526C127.836 205.405 127.823 205.295 127.798 205.197C127.772 205.097 127.718 205.012 127.637 204.942C127.555 204.872 127.437 204.817 127.283 204.777C127.132 204.738 126.927 204.718 126.671 204.718V204.102C126.883 204.1 127.059 204.08 127.199 204.042C127.339 204.005 127.45 203.954 127.532 203.888C127.616 203.821 127.674 203.74 127.707 203.647C127.739 203.554 127.756 203.451 127.756 203.339C127.756 203.101 127.689 202.92 127.556 202.796C127.423 202.673 127.246 202.611 127.024 202.611C126.922 202.611 126.827 202.626 126.741 202.656C126.654 202.684 126.576 202.725 126.506 202.779C126.439 202.83 126.381 202.891 126.335 202.961C126.288 203.031 126.253 203.108 126.23 203.192C126.19 203.299 126.138 203.37 126.072 203.405C126.009 203.44 125.919 203.449 125.803 203.43L125.348 203.349Z" fill="#EEEEEE"/>
<rect x="67" y="149" width="32" height="7" fill="#FF9A11" fill-opacity="0.5"/>
<path d="M90 152.5L87 155L87 150L90 152.5Z" fill="#EEEEEE"/>
<path d="M79 152.5L76 155L76 150L79 152.5Z" fill="#EEEEEE"/>
<path d="M84.4032 154.195C84.4966 154.195 84.5701 154.222 84.6237 154.275C84.6797 154.327 84.7077 154.396 84.7077 154.482V155H81.2357V154.713C81.2357 154.655 81.2474 154.594 81.2707 154.531C81.2964 154.466 81.3361 154.407 81.3897 154.356L82.9262 152.816C83.0546 152.685 83.1689 152.56 83.2692 152.441C83.3719 152.322 83.4571 152.205 83.5247 152.088C83.5924 151.971 83.6437 151.853 83.6787 151.734C83.7161 151.613 83.7347 151.486 83.7347 151.353C83.7347 151.232 83.7172 151.125 83.6822 151.034C83.6472 150.941 83.5971 150.863 83.5317 150.8C83.4687 150.737 83.3917 150.69 83.3007 150.66C83.2121 150.627 83.1117 150.611 82.9997 150.611C82.8971 150.611 82.8014 150.626 82.7127 150.656C82.6264 150.684 82.5494 150.725 82.4817 150.779C82.4141 150.83 82.3569 150.891 82.3102 150.961C82.2636 151.031 82.2286 151.108 82.2052 151.192C82.1656 151.299 82.1142 151.37 82.0512 151.405C81.9882 151.44 81.8972 151.449 81.7782 151.43L81.3232 151.349C81.3582 151.107 81.4259 150.894 81.5262 150.712C81.6266 150.528 81.7514 150.375 81.9007 150.254C82.0524 150.13 82.2251 150.038 82.4187 149.977C82.6147 149.914 82.8247 149.883 83.0487 149.883C83.2821 149.883 83.4956 149.918 83.6892 149.988C83.8829 150.056 84.0486 150.152 84.1862 150.278C84.3239 150.404 84.4312 150.556 84.5082 150.733C84.5852 150.911 84.6237 151.108 84.6237 151.325C84.6237 151.512 84.5957 151.684 84.5397 151.843C84.4861 152.002 84.4126 152.153 84.3192 152.298C84.2282 152.443 84.1209 152.583 83.9972 152.718C83.8736 152.853 83.7441 152.991 83.6087 153.131L82.4677 154.296C82.5774 154.264 82.6859 154.239 82.7932 154.223C82.9029 154.204 83.0067 154.195 83.1047 154.195H84.4032Z" fill="#EEEEEE"/>
<path d="M70.3477 151.349C70.3827 151.107 70.4504 150.894 70.5507 150.712C70.6511 150.528 70.7759 150.375 70.9252 150.254C71.0769 150.13 71.2496 150.038 71.4432 149.977C71.6392 149.914 71.8492 149.883 72.0732 149.883C72.3066 149.883 72.5166 149.917 72.7032 149.984C72.8922 150.05 73.0532 150.142 73.1862 150.261C73.3192 150.378 73.4207 150.515 73.4907 150.674C73.5631 150.833 73.5992 151.004 73.5992 151.188C73.5992 151.349 73.5806 151.492 73.5432 151.615C73.5082 151.737 73.4569 151.843 73.3892 151.934C73.3216 152.025 73.2376 152.102 73.1372 152.165C73.0369 152.228 72.9237 152.28 72.7977 152.322C73.1011 152.418 73.3274 152.564 73.4767 152.76C73.6261 152.956 73.7007 153.202 73.7007 153.498C73.7007 153.75 73.6541 153.973 73.5607 154.167C73.4674 154.361 73.3414 154.524 73.1827 154.657C73.0241 154.788 72.8397 154.887 72.6297 154.954C72.4221 155.022 72.2016 155.056 71.9682 155.056C71.7139 155.056 71.4922 155.027 71.3032 154.968C71.1142 154.91 70.9497 154.824 70.8097 154.709C70.6697 154.595 70.5507 154.455 70.4527 154.289C70.3547 154.124 70.2707 153.932 70.2007 153.715L70.5822 153.558C70.6826 153.516 70.7759 153.505 70.8622 153.526C70.9509 153.545 71.0151 153.592 71.0547 153.666C71.0967 153.748 71.1422 153.829 71.1912 153.908C71.2426 153.987 71.3032 154.058 71.3732 154.121C71.4432 154.182 71.5249 154.232 71.6182 154.272C71.7139 154.309 71.8271 154.328 71.9577 154.328C72.1047 154.328 72.2331 154.305 72.3427 154.258C72.4524 154.209 72.5434 154.146 72.6157 154.069C72.6904 153.992 72.7452 153.907 72.7802 153.813C72.8176 153.718 72.8362 153.622 72.8362 153.526C72.8362 153.405 72.8234 153.295 72.7977 153.197C72.7721 153.097 72.7184 153.012 72.6367 152.942C72.5551 152.872 72.4372 152.817 72.2832 152.777C72.1316 152.738 71.9274 152.718 71.6707 152.718V152.102C71.8831 152.1 72.0592 152.08 72.1992 152.042C72.3392 152.005 72.4501 151.954 72.5317 151.888C72.6157 151.821 72.6741 151.74 72.7067 151.647C72.7394 151.554 72.7557 151.451 72.7557 151.339C72.7557 151.101 72.6892 150.92 72.5562 150.796C72.4232 150.673 72.2459 150.611 72.0242 150.611C71.9216 150.611 71.8271 150.626 71.7407 150.656C71.6544 150.684 71.5762 150.725 71.5062 150.779C71.4386 150.83 71.3814 150.891 71.3347 150.961C71.2881 151.031 71.2531 151.108 71.2297 151.192C71.1901 151.299 71.1376 151.37 71.0722 151.405C71.0092 151.44 70.9194 151.449 70.8027 151.43L70.3477 151.349Z" fill="#EEEEEE"/>
<path d="M95.5922 154.352V155H92.7922V154.352H93.8177V151.402C93.8177 151.285 93.8212 151.165 93.8282 151.041L93.1002 151.65C93.0582 151.683 93.0162 151.704 92.9742 151.713C92.9346 151.72 92.8961 151.72 92.8587 151.713C92.8237 151.706 92.7922 151.695 92.7642 151.678C92.7362 151.66 92.7152 151.64 92.7012 151.619L92.4282 151.244L93.9717 149.932H94.6822V154.352H95.5922Z" fill="#EEEEEE"/>
<rect x="34" y="97" width="32" height="7" fill="#FF9A11" fill-opacity="0.5"/>
<path d="M52 100.5L49 103L49 98L52 100.5Z" fill="#EEEEEE"/>
<path d="M46.4032 102.195C46.4966 102.195 46.5701 102.222 46.6237 102.275C46.6797 102.327 46.7077 102.396 46.7077 102.482V103H43.2357V102.713C43.2357 102.655 43.2474 102.594 43.2707 102.531C43.2964 102.466 43.3361 102.407 43.3897 102.356L44.9262 100.816C45.0546 100.685 45.1689 100.56 45.2692 100.441C45.3719 100.322 45.4571 100.205 45.5247 100.088C45.5924 99.9713 45.6437 99.8535 45.6787 99.7345C45.7161 99.6132 45.7347 99.486 45.7347 99.353C45.7347 99.2317 45.7172 99.1255 45.6822 99.0345C45.6472 98.9412 45.5971 98.863 45.5317 98.8C45.4687 98.737 45.3917 98.6903 45.3007 98.66C45.2121 98.6273 45.1117 98.611 44.9997 98.611C44.8971 98.611 44.8014 98.6262 44.7127 98.6565C44.6264 98.6845 44.5494 98.7253 44.4817 98.779C44.4141 98.8303 44.3569 98.891 44.3102 98.961C44.2636 99.031 44.2286 99.108 44.2052 99.192C44.1656 99.2993 44.1142 99.3705 44.0512 99.4055C43.9882 99.4405 43.8972 99.4487 43.7782 99.43L43.3232 99.3495C43.3582 99.1068 43.4259 98.8945 43.5262 98.7125C43.6266 98.5282 43.7514 98.3753 43.9007 98.254C44.0524 98.1303 44.2251 98.0382 44.4187 97.9775C44.6147 97.9145 44.8247 97.883 45.0487 97.883C45.2821 97.883 45.4956 97.918 45.6892 97.988C45.8829 98.0557 46.0486 98.1525 46.1862 98.2785C46.3239 98.4045 46.4312 98.5562 46.5082 98.7335C46.5852 98.9108 46.6237 99.108 46.6237 99.325C46.6237 99.5117 46.5957 99.6843 46.5397 99.843C46.4861 100.002 46.4126 100.153 46.3192 100.298C46.2282 100.443 46.1209 100.583 45.9972 100.718C45.8736 100.853 45.7441 100.991 45.6087 101.131L44.4677 102.296C44.5774 102.264 44.6859 102.239 44.7932 102.223C44.9029 102.204 45.0067 102.195 45.1047 102.195H46.4032Z" fill="#EEEEEE"/>
<path d="M57.5922 102.352V103H54.7922V102.352H55.8177V99.402C55.8177 99.2853 55.8212 99.1652 55.8282 99.0415L55.1002 99.6505C55.0582 99.6832 55.0162 99.7042 54.9742 99.7135C54.9346 99.7205 54.8961 99.7205 54.8587 99.7135C54.8237 99.7065 54.7922 99.6948 54.7642 99.6785C54.7362 99.6598 54.7152 99.64 54.7012 99.619L54.4282 99.2445L55.9717 97.932H56.6822V102.352H57.5922Z" fill="#EEEEEE"/>
<rect x="1" y="45" width="32" height="7" fill="#FF9A11" fill-opacity="0.5"/>
<path d="M10.3745 45.939V51H9.89147C9.81681 51 9.75381 50.9883 9.70247 50.965C9.65347 50.9393 9.60564 50.8973 9.55897 50.839L6.91647 47.465C6.93047 47.619 6.93747 47.7613 6.93747 47.892V51H6.10797V45.939H6.60147C6.64114 45.939 6.67497 45.9413 6.70297 45.946C6.73331 45.9483 6.75897 45.9553 6.77997 45.967C6.80331 45.9763 6.82547 45.9915 6.84647 46.0125C6.86747 46.0312 6.89081 46.0568 6.91647 46.0895L9.56947 49.4775C9.56247 49.3958 9.55664 49.3153 9.55197 49.236C9.54731 49.1567 9.54497 49.0832 9.54497 49.0155V45.939H10.3745ZM16.223 48.4695C16.223 48.8405 16.1612 49.1847 16.0375 49.502C15.9162 49.817 15.7435 50.09 15.5195 50.321C15.2955 50.552 15.026 50.7328 14.711 50.8635C14.396 50.9918 14.046 51.056 13.661 51.056C13.2784 51.056 12.9295 50.9918 12.6145 50.8635C12.2995 50.7328 12.0289 50.552 11.8025 50.321C11.5785 50.09 11.4047 49.817 11.281 49.502C11.1574 49.1847 11.0955 48.8405 11.0955 48.4695C11.0955 48.0985 11.1574 47.7555 11.281 47.4405C11.4047 47.1232 11.5785 46.849 11.8025 46.618C12.0289 46.387 12.2995 46.2073 12.6145 46.079C12.9295 45.9483 13.2784 45.883 13.661 45.883C13.9177 45.883 14.1592 45.9133 14.3855 45.974C14.6119 46.0323 14.8195 46.1163 15.0085 46.226C15.1975 46.3333 15.3667 46.4652 15.516 46.6215C15.6677 46.7755 15.796 46.9482 15.901 47.1395C16.006 47.3308 16.0854 47.5385 16.139 47.7625C16.195 47.9865 16.223 48.2222 16.223 48.4695ZM15.2605 48.4695C15.2605 48.1918 15.2232 47.9433 15.1485 47.724C15.0739 47.5023 14.9677 47.3145 14.83 47.1605C14.6924 47.0065 14.5244 46.8887 14.326 46.807C14.13 46.7253 13.9084 46.6845 13.661 46.6845C13.4137 46.6845 13.1909 46.7253 12.9925 46.807C12.7965 46.8887 12.6285 47.0065 12.4885 47.1605C12.3509 47.3145 12.2447 47.5023 12.17 47.724C12.0954 47.9433 12.058 48.1918 12.058 48.4695C12.058 48.7472 12.0954 48.9968 12.17 49.2185C12.2447 49.4378 12.3509 49.6245 12.4885 49.7785C12.6285 49.9302 12.7965 50.0468 12.9925 50.1285C13.1909 50.2102 13.4137 50.251 13.661 50.251C13.9084 50.251 14.13 50.2102 14.326 50.1285C14.5244 50.0468 14.6924 49.9302 14.83 49.7785C14.9677 49.6245 15.0739 49.4378 15.1485 49.2185C15.2232 48.9968 15.2605 48.7472 15.2605 48.4695ZM19.487 46.688V48.186H21.384V48.9385H19.487V51H18.542V45.939H21.734V46.688H19.487ZM27.8898 45.939V51H27.0603V47.731C27.0603 47.6003 27.0673 47.4592 27.0813 47.3075L25.5518 50.181C25.4795 50.3187 25.3687 50.3875 25.2193 50.3875H25.0863C24.937 50.3875 24.8262 50.3187 24.7538 50.181L23.2068 47.297C23.2138 47.374 23.2197 47.4498 23.2243 47.5245C23.229 47.5992 23.2313 47.668 23.2313 47.731V51H22.4018V45.939H23.1123C23.1543 45.939 23.1905 45.9402 23.2208 45.9425C23.2512 45.9448 23.278 45.9507 23.3013 45.96C23.327 45.9693 23.3492 45.9845 23.3678 46.0055C23.3888 46.0265 23.4087 46.0545 23.4273 46.0895L24.9428 48.9C24.9825 48.9747 25.0187 49.0517 25.0513 49.131C25.0863 49.2103 25.1202 49.292 25.1528 49.376C25.1855 49.2897 25.2193 49.2068 25.2543 49.1275C25.2893 49.0458 25.3267 48.9677 25.3663 48.893L26.8608 46.0895C26.8795 46.0545 26.8993 46.0265 26.9203 46.0055C26.9413 45.9845 26.9635 45.9693 26.9868 45.96C27.0125 45.9507 27.0405 45.9448 27.0708 45.9425C27.1012 45.9402 27.1373 45.939 27.1793 45.939H27.8898Z" fill="#EEEEEE"/>
</svg>
