<?xml version="1.0" encoding="utf-8"?>
<svg width="49px" height="28px" viewbox="0 0 49 28" version="1.1" xmlns:xlink="http://www.w3.org/1999/xlink" xmlns="http://www.w3.org/2000/svg">
  <defs>
    <rect width="49" height="28" id="artboard_1" />
    <clipPath id="clip_1">
      <use xlink:href="#artboard_1" clip-rule="evenodd" />
    </clipPath>
  </defs>
  <g id="hover00304" clip-path="url(#clip_1)">
    <path d="M0 2.78571C0 1.24721 1.34315 0 3 0L45 0C46.6569 0 48 1.24721 48 2.78571L48 10.2143C48 11.7528 46.6569 13 45 13L3 13C1.34315 13 0 11.7528 0 10.2143L0 2.78571L0 2.78571Z" transform="translate(0.5000305 0.5)" id="Shape" fill="#E3E3E3" fill-rule="evenodd" stroke="none" />
    <path d="M0 1.81818C0 0.813999 0.89543 0 2 0L43 0C44.1046 0 45 0.813999 45 1.81818L45 8.18182C45 9.186 44.1046 10 43 10L2 10C0.89543 10 0 9.186 0 8.18182L0 1.81818L0 1.81818Z" transform="translate(2.0000305 2)" id="Shape-Copy" fill="#FF9300" fill-opacity="0.49803922" fill-rule="evenodd" stroke="none" />
    <path d="M4.87597 0.16L4.87597 5.944L3.79597 5.944L3.79597 3.416L1.08 3.416L1.08 5.944L0 5.944L0 0.16L1.08 0.16L1.08 2.648L3.79597 2.648L3.79597 0.16L4.87597 0.16L4.87597 0.16ZM7.69906 1.776C8.00306 1.776 8.27906 1.82533 8.52706 1.924C8.77776 2.02267 8.99106 2.16267 9.16706 2.344C9.34576 2.52533 9.48306 2.74667 9.57905 3.008C9.67506 3.26933 9.72306 3.56133 9.72306 3.884C9.72306 4.20933 9.67506 4.50267 9.57905 4.764C9.48306 5.0253 9.34576 5.248 9.16706 5.432C8.99106 5.616 8.77776 5.7573 8.52706 5.856C8.27906 5.9547 8.00306 6.004 7.69906 6.004C7.39235 6.004 7.11376 5.9547 6.86306 5.856C6.61236 5.7573 6.39776 5.616 6.21906 5.432C6.04306 5.248 5.90576 5.0253 5.80706 4.764C5.71106 4.50267 5.66306 4.20933 5.66306 3.884C5.66306 3.56133 5.71106 3.26933 5.80706 3.008C5.90576 2.74667 6.04306 2.52533 6.21906 2.344C6.39776 2.16267 6.61236 2.02267 6.86306 1.924C7.11376 1.82533 7.39235 1.776 7.69906 1.776L7.69906 1.776ZM7.69908 5.244C8.04038 5.244 8.29238 5.1293 8.45508 4.9C8.62038 4.67067 8.70308 4.33467 8.70308 3.892C8.70308 3.44933 8.62038 3.112 8.45508 2.88C8.29238 2.648 8.04038 2.532 7.69908 2.532C7.35238 2.532 7.09508 2.64933 6.92708 2.884C6.76178 3.116 6.67908 3.452 6.67908 3.892C6.67908 4.332 6.76178 4.668 6.92708 4.9C7.09508 5.1293 7.35238 5.244 7.69908 5.244L7.69908 5.244ZM11.4088 2.552C11.5368 2.30667 11.6888 2.11467 11.8648 1.976C12.0408 1.83467 12.2488 1.764 12.4888 1.764C12.6782 1.764 12.8302 1.80533 12.9448 1.888L12.8808 2.628C12.8675 2.676 12.8475 2.71067 12.8208 2.732C12.7968 2.75067 12.7635 2.76 12.7208 2.76C12.6808 2.76 12.6208 2.75333 12.5408 2.74C12.4635 2.72667 12.3875 2.72 12.3128 2.72C12.2035 2.72 12.1062 2.736 12.0208 2.768C11.9355 2.8 11.8582 2.84667 11.7888 2.908C11.7222 2.96667 11.6622 3.03867 11.6088 3.124C11.5582 3.20933 11.5102 3.30667 11.4648 3.416L11.4648 5.944L10.4768 5.944L10.4768 1.84L11.0568 1.84C11.1582 1.84 11.2288 1.85867 11.2688 1.896C11.3088 1.93067 11.3355 1.99467 11.3488 2.088L11.4088 2.552L11.4088 2.552ZM14.4932 1.84L14.4932 5.944L13.4932 5.944L13.4932 1.84L14.4932 1.84L14.4932 1.84ZM14.6212 0.644C14.6212 0.72933 14.6039 0.80933 14.5692 0.884C14.5346 0.95867 14.4879 1.024 14.4292 1.08C14.3732 1.136 14.3066 1.18133 14.2292 1.216C14.1519 1.248 14.0692 1.264 13.9812 1.264C13.8959 1.264 13.8146 1.248 13.7372 1.216C13.6626 1.18133 13.5972 1.136 13.5412 1.08C13.4852 1.024 13.4399 0.95867 13.4052 0.884C13.3732 0.80933 13.3572 0.72933 13.3572 0.644C13.3572 0.556 13.3732 0.47333 13.4052 0.396C13.4399 0.31867 13.4852 0.252 13.5412 0.196C13.5972 0.14 13.6626 0.0959997 13.7372 0.0639997C13.8146 0.0293298 13.8959 0.0119996 13.9812 0.0119996C14.0692 0.0119996 14.1519 0.0293298 14.2292 0.0639997C14.3066 0.0959997 14.3732 0.14 14.4292 0.196C14.4879 0.252 14.5346 0.31867 14.5692 0.396C14.6039 0.47333 14.6212 0.556 14.6212 0.644L14.6212 0.644ZM18.4405 2.248C18.4405 2.31733 18.4285 2.38533 18.4045 2.452C18.3805 2.51867 18.3485 2.57333 18.3085 2.616L16.3605 5.184L18.3805 5.184L18.3805 5.944L15.2125 5.944L15.2125 5.532C15.2125 5.4867 15.2231 5.4333 15.2445 5.372C15.2658 5.308 15.2978 5.248 15.3405 5.192L17.3085 2.596L15.3285 2.596L15.3285 1.84L18.4405 1.84L18.4405 2.248L18.4405 2.248ZM20.9178 1.776C21.2218 1.776 21.4978 1.82533 21.7458 1.924C21.9965 2.02267 22.2098 2.16267 22.3858 2.344C22.5645 2.52533 22.7018 2.74667 22.7978 3.008C22.8938 3.26933 22.9418 3.56133 22.9418 3.884C22.9418 4.20933 22.8938 4.50267 22.7978 4.764C22.7018 5.0253 22.5645 5.248 22.3858 5.432C22.2098 5.616 21.9965 5.7573 21.7458 5.856C21.4978 5.9547 21.2218 6.004 20.9178 6.004C20.6112 6.004 20.3325 5.9547 20.0818 5.856C19.8312 5.7573 19.6165 5.616 19.4378 5.432C19.2618 5.248 19.1245 5.0253 19.0258 4.764C18.9298 4.50267 18.8818 4.20933 18.8818 3.884C18.8818 3.56133 18.9298 3.26933 19.0258 3.008C19.1245 2.74667 19.2618 2.52533 19.4378 2.344C19.6165 2.16267 19.8312 2.02267 20.0818 1.924C20.3325 1.82533 20.6112 1.776 20.9178 1.776L20.9178 1.776ZM20.9178 5.244C21.2592 5.244 21.5112 5.1293 21.6738 4.9C21.8392 4.67067 21.9218 4.33467 21.9218 3.892C21.9218 3.44933 21.8392 3.112 21.6738 2.88C21.5112 2.648 21.2592 2.532 20.9178 2.532C20.5712 2.532 20.3138 2.64933 20.1458 2.884C19.9805 3.116 19.8978 3.452 19.8978 3.892C19.8978 4.332 19.9805 4.668 20.1458 4.9C20.3138 5.1293 20.5712 5.244 20.9178 5.244L20.9178 5.244ZM24.6196 2.344C24.7023 2.26133 24.7889 2.18533 24.8796 2.116C24.9729 2.044 25.0703 1.984 25.1716 1.936C25.2756 1.88533 25.3863 1.84667 25.5036 1.82C25.6209 1.79067 25.7489 1.776 25.8876 1.776C26.1116 1.776 26.3103 1.81467 26.4836 1.892C26.6569 1.96667 26.8009 2.07333 26.9156 2.212C27.0329 2.348 27.1209 2.512 27.1796 2.704C27.2409 2.89333 27.2716 3.10267 27.2716 3.332L27.2716 5.944L26.2836 5.944L26.2836 3.332C26.2836 3.08133 26.2263 2.888 26.1116 2.752C25.9969 2.61333 25.8223 2.544 25.5876 2.544C25.4169 2.544 25.2569 2.58267 25.1076 2.66C24.9583 2.73733 24.8169 2.84267 24.6836 2.976L24.6836 5.944L23.6956 5.944L23.6956 1.84L24.2996 1.84C24.4276 1.84 24.5116 1.9 24.5516 2.02L24.6196 2.344L24.6196 2.344ZM29.5245 6.008C29.1672 6.008 28.8925 5.908 28.7005 5.708C28.5112 5.5053 28.4165 5.2267 28.4165 4.872L28.4165 2.58L27.9965 2.58C27.9432 2.58 27.8979 2.56267 27.8605 2.528C27.8232 2.49333 27.8045 2.44133 27.8045 2.372L27.8045 1.98L28.4645 1.872L28.6725 0.752C28.6859 0.69867 28.7112 0.65733 28.7485 0.628C28.7859 0.59867 28.8339 0.584 28.8925 0.584L29.4045 0.584L29.4045 1.876L30.5005 1.876L30.5005 2.58L29.4045 2.58L29.4045 4.804C29.4045 4.932 29.4352 5.032 29.4965 5.104C29.5605 5.176 29.6472 5.212 29.7565 5.212C29.8179 5.212 29.8685 5.2053 29.9085 5.192C29.9512 5.176 29.9872 5.16 30.0165 5.144C30.0485 5.128 30.0765 5.1133 30.1005 5.1C30.1245 5.084 30.1485 5.076 30.1725 5.076C30.2019 5.076 30.2259 5.084 30.2445 5.1C30.2632 5.1133 30.2832 5.1347 30.3045 5.164L30.6005 5.644C30.4565 5.764 30.2912 5.8547 30.1045 5.916C29.9179 5.9773 29.7245 6.008 29.5245 6.008L29.5245 6.008ZM33.3011 4.192C33.0158 4.20533 32.7758 4.23067 32.5811 4.268C32.3864 4.30267 32.2304 4.348 32.1131 4.404C31.9958 4.46 31.9118 4.52533 31.8611 4.6C31.8104 4.67467 31.7851 4.756 31.7851 4.844C31.7851 5.0173 31.8358 5.1413 31.9371 5.216C32.0411 5.2907 32.1758 5.328 32.3411 5.328C32.5438 5.328 32.7184 5.292 32.8651 5.22C33.0144 5.1453 33.1598 5.0333 33.3011 4.884L33.3011 4.192L33.3011 4.192ZM31.0371 2.412C31.5091 1.98 32.0771 1.764 32.7411 1.764C32.9811 1.764 33.1958 1.804 33.3851 1.884C33.5744 1.96133 33.7344 2.07067 33.8651 2.212C33.9958 2.35067 34.0944 2.51733 34.1611 2.712C34.2304 2.90667 34.2651 3.12 34.2651 3.352L34.2651 5.944L33.8171 5.944C33.7238 5.944 33.6518 5.9307 33.6011 5.904C33.5504 5.8747 33.5104 5.8173 33.4811 5.732L33.3931 5.436C33.2891 5.5293 33.1878 5.612 33.0891 5.684C32.9904 5.7533 32.8878 5.812 32.7811 5.86C32.6744 5.908 32.5598 5.944 32.4371 5.968C32.3171 5.9947 32.1838 6.008 32.0371 6.008C31.8638 6.008 31.7038 5.9853 31.5571 5.94C31.4104 5.892 31.2838 5.8213 31.1771 5.728C31.0704 5.6347 30.9878 5.5187 30.9291 5.38C30.8704 5.2413 30.8411 5.08 30.8411 4.896C30.8411 4.792 30.8584 4.68933 30.8931 4.588C30.9278 4.484 30.9838 4.38533 31.0611 4.292C31.1411 4.19867 31.2438 4.11067 31.3691 4.028C31.4944 3.94533 31.6478 3.87333 31.8291 3.812C32.0131 3.75067 32.2264 3.70133 32.4691 3.664C32.7118 3.624 32.9891 3.6 33.3011 3.592L33.3011 3.352C33.3011 3.07733 33.2424 2.87467 33.1251 2.744C33.0078 2.61067 32.8384 2.544 32.6171 2.544C32.4571 2.544 32.3238 2.56267 32.2171 2.6C32.1131 2.63733 32.0211 2.68 31.9411 2.728C31.8611 2.77333 31.7878 2.81467 31.7211 2.852C31.6571 2.88933 31.5851 2.908 31.5051 2.908C31.4358 2.908 31.3771 2.89067 31.3291 2.856C31.2811 2.81867 31.2424 2.776 31.2131 2.728L31.0371 2.412L31.0371 2.412ZM36.2076 0L36.2076 5.944L35.2076 5.944L35.2076 0L36.2076 0L36.2076 0Z" transform="translate(6.476074 4)" id="Shape" fill="#000000" fill-rule="evenodd" stroke="none" />
    <path d="M3.5 0.933333L45.5 0.933333L45.5 0L3.5 0L3.5 0.933333L3.5 0.933333ZM48 3.26667L48 10.7333L49 10.7333L49 3.26667L48 3.26667L48 3.26667ZM45.5 13.0667L3.5 13.0667L3.5 14L45.5 14L45.5 13.0667L45.5 13.0667ZM1 10.7333L1 3.26667L0 3.26667L0 10.7333L1 10.7333L1 10.7333ZM3.5 13.0667C2.11929 13.0667 1 12.022 1 10.7333L0 10.7333C0 12.5375 1.567 14 3.5 14L3.5 13.0667L3.5 13.0667ZM48 10.7333C48 12.022 46.8807 13.0667 45.5 13.0667L45.5 14C47.433 14 49 12.5375 49 10.7333L48 10.7333L48 10.7333ZM45.5 0.933333C46.8807 0.933333 48 1.978 48 3.26667L49 3.26667C49 1.46253 47.433 0 45.5 0L45.5 0.933333L45.5 0.933333ZM3.5 0C1.567 0 0 1.46253 0 3.26667L1 3.26667C1 1.978 2.11929 0.933333 3.5 0.933333L3.5 0L3.5 0Z" transform="translate(3.0517578E-05 0)" id="Shape" fill="#979797" fill-rule="evenodd" stroke="none" />
    <path d="M0 2.78571C0 1.24716 1.34315 0 3 0L45 0C46.6569 0 48 1.24716 48 2.78571L48 10.2143C48 11.7528 46.6569 13 45 13L3 13C1.34315 13 0 11.7528 0 10.2143L0 2.78571L0 2.78571Z" transform="translate(0.5000305 14.5)" id="Shape" fill="#E3E3E3" fill-rule="evenodd" stroke="none" />
    <path d="M0 1.81818C0 0.813999 0.89543 0 2 0L43 0C44.1046 0 45 0.813999 45 1.81818L45 8.18182C45 9.186 44.1046 10 43 10L2 10C0.89543 10 0 9.186 0 8.18182L0 1.81818L0 1.81818Z" transform="translate(2.0000305 16)" id="Shape" fill="#804900" fill-rule="evenodd" stroke="none" />
    <path d="M4.87597 0.16L4.87597 5.944L3.79597 5.944L3.79597 3.416L1.08 3.416L1.08 5.944L0 5.944L0 0.16L1.08 0.16L1.08 2.648L3.79597 2.648L3.79597 0.16L4.87597 0.16L4.87597 0.16ZM7.69906 1.776C8.00306 1.776 8.27906 1.8253 8.52706 1.924C8.77776 2.0227 8.99106 2.1627 9.16706 2.344C9.34576 2.5253 9.48306 2.7467 9.57905 3.008C9.67506 3.2693 9.72306 3.5613 9.72306 3.884C9.72306 4.2093 9.67506 4.5027 9.57905 4.764C9.48306 5.0253 9.34576 5.248 9.16706 5.432C8.99106 5.616 8.77776 5.7573 8.52706 5.856C8.27906 5.9547 8.00306 6.004 7.69906 6.004C7.39235 6.004 7.11376 5.9547 6.86306 5.856C6.61236 5.7573 6.39776 5.616 6.21906 5.432C6.04306 5.248 5.90576 5.0253 5.80706 4.764C5.71106 4.5027 5.66306 4.2093 5.66306 3.884C5.66306 3.5613 5.71106 3.2693 5.80706 3.008C5.90576 2.7467 6.04306 2.5253 6.21906 2.344C6.39776 2.1627 6.61236 2.0227 6.86306 1.924C7.11376 1.8253 7.39235 1.776 7.69906 1.776L7.69906 1.776ZM7.69908 5.244C8.04038 5.244 8.29238 5.1293 8.45508 4.9C8.62038 4.6707 8.70308 4.3347 8.70308 3.892C8.70308 3.4493 8.62038 3.112 8.45508 2.88C8.29238 2.648 8.04038 2.532 7.69908 2.532C7.35238 2.532 7.09508 2.6493 6.92708 2.884C6.76178 3.116 6.67908 3.452 6.67908 3.892C6.67908 4.332 6.76178 4.668 6.92708 4.9C7.09508 5.1293 7.35238 5.244 7.69908 5.244L7.69908 5.244ZM11.4088 2.552C11.5368 2.3067 11.6888 2.1147 11.8648 1.976C12.0408 1.8347 12.2488 1.764 12.4888 1.764C12.6782 1.764 12.8302 1.8053 12.9448 1.888L12.8808 2.628C12.8675 2.676 12.8475 2.7107 12.8208 2.732C12.7968 2.7507 12.7635 2.76 12.7208 2.76C12.6808 2.76 12.6208 2.7533 12.5408 2.74C12.4635 2.7267 12.3875 2.72 12.3128 2.72C12.2035 2.72 12.1062 2.736 12.0208 2.768C11.9355 2.8 11.8582 2.8467 11.7888 2.908C11.7222 2.9667 11.6622 3.0387 11.6088 3.124C11.5582 3.2093 11.5102 3.3067 11.4648 3.416L11.4648 5.944L10.4768 5.944L10.4768 1.84L11.0568 1.84C11.1582 1.84 11.2288 1.8587 11.2688 1.896C11.3088 1.9307 11.3355 1.9947 11.3488 2.088L11.4088 2.552L11.4088 2.552ZM14.4932 1.84L14.4932 5.944L13.4932 5.944L13.4932 1.84L14.4932 1.84L14.4932 1.84ZM14.6212 0.644001C14.6212 0.7293 14.6039 0.809299 14.5692 0.884001C14.5346 0.9587 14.4879 1.024 14.4292 1.08C14.3732 1.136 14.3066 1.1813 14.2292 1.216C14.1519 1.248 14.0692 1.264 13.9812 1.264C13.8959 1.264 13.8146 1.248 13.7372 1.216C13.6626 1.1813 13.5972 1.136 13.5412 1.08C13.4852 1.024 13.4399 0.9587 13.4052 0.884001C13.3732 0.809299 13.3572 0.7293 13.3572 0.644001C13.3572 0.556 13.3732 0.473301 13.4052 0.396C13.4399 0.318701 13.4852 0.252001 13.5412 0.196001C13.5972 0.139999 13.6626 0.0960007 13.7372 0.0640011C13.8146 0.0293007 13.8959 0.012001 13.9812 0.012001C14.0692 0.012001 14.1519 0.0293007 14.2292 0.0640011C14.3066 0.0960007 14.3732 0.139999 14.4292 0.196001C14.4879 0.252001 14.5346 0.318701 14.5692 0.396C14.6039 0.473301 14.6212 0.556 14.6212 0.644001L14.6212 0.644001ZM18.4405 2.248C18.4405 2.3173 18.4285 2.3853 18.4045 2.452C18.3805 2.5187 18.3485 2.5733 18.3085 2.616L16.3605 5.184L18.3805 5.184L18.3805 5.944L15.2125 5.944L15.2125 5.532C15.2125 5.4867 15.2231 5.4333 15.2445 5.372C15.2658 5.308 15.2978 5.248 15.3405 5.192L17.3085 2.596L15.3285 2.596L15.3285 1.84L18.4405 1.84L18.4405 2.248L18.4405 2.248ZM20.9178 1.776C21.2218 1.776 21.4978 1.8253 21.7458 1.924C21.9965 2.0227 22.2098 2.1627 22.3858 2.344C22.5645 2.5253 22.7018 2.7467 22.7978 3.008C22.8938 3.2693 22.9418 3.5613 22.9418 3.884C22.9418 4.2093 22.8938 4.5027 22.7978 4.764C22.7018 5.0253 22.5645 5.248 22.3858 5.432C22.2098 5.616 21.9965 5.7573 21.7458 5.856C21.4978 5.9547 21.2218 6.004 20.9178 6.004C20.6112 6.004 20.3325 5.9547 20.0818 5.856C19.8312 5.7573 19.6165 5.616 19.4378 5.432C19.2618 5.248 19.1245 5.0253 19.0258 4.764C18.9298 4.5027 18.8818 4.2093 18.8818 3.884C18.8818 3.5613 18.9298 3.2693 19.0258 3.008C19.1245 2.7467 19.2618 2.5253 19.4378 2.344C19.6165 2.1627 19.8312 2.0227 20.0818 1.924C20.3325 1.8253 20.6112 1.776 20.9178 1.776L20.9178 1.776ZM20.9178 5.244C21.2592 5.244 21.5112 5.1293 21.6738 4.9C21.8392 4.6707 21.9218 4.3347 21.9218 3.892C21.9218 3.4493 21.8392 3.112 21.6738 2.88C21.5112 2.648 21.2592 2.532 20.9178 2.532C20.5712 2.532 20.3138 2.6493 20.1458 2.884C19.9805 3.116 19.8978 3.452 19.8978 3.892C19.8978 4.332 19.9805 4.668 20.1458 4.9C20.3138 5.1293 20.5712 5.244 20.9178 5.244L20.9178 5.244ZM24.6196 2.344C24.7023 2.2613 24.7889 2.1853 24.8796 2.116C24.9729 2.044 25.0703 1.984 25.1716 1.936C25.2756 1.8853 25.3863 1.8467 25.5036 1.82C25.6209 1.7907 25.7489 1.776 25.8876 1.776C26.1116 1.776 26.3103 1.8147 26.4836 1.892C26.6569 1.9667 26.8009 2.0733 26.9156 2.212C27.0329 2.348 27.1209 2.512 27.1796 2.704C27.2409 2.8933 27.2716 3.1027 27.2716 3.332L27.2716 5.944L26.2836 5.944L26.2836 3.332C26.2836 3.0813 26.2263 2.888 26.1116 2.752C25.9969 2.6133 25.8223 2.544 25.5876 2.544C25.4169 2.544 25.2569 2.5827 25.1076 2.66C24.9583 2.7373 24.8169 2.8427 24.6836 2.976L24.6836 5.944L23.6956 5.944L23.6956 1.84L24.2996 1.84C24.4276 1.84 24.5116 1.9 24.5516 2.02L24.6196 2.344L24.6196 2.344ZM29.5245 6.008C29.1672 6.008 28.8925 5.908 28.7005 5.708C28.5112 5.5053 28.4165 5.2267 28.4165 4.872L28.4165 2.58L27.9965 2.58C27.9432 2.58 27.8979 2.5627 27.8605 2.528C27.8232 2.4933 27.8045 2.4413 27.8045 2.372L27.8045 1.98L28.4645 1.872L28.6725 0.752001C28.6859 0.6987 28.7112 0.657301 28.7485 0.628C28.7859 0.5987 28.8339 0.584 28.8925 0.584L29.4045 0.584L29.4045 1.876L30.5005 1.876L30.5005 2.58L29.4045 2.58L29.4045 4.804C29.4045 4.932 29.4352 5.032 29.4965 5.104C29.5605 5.176 29.6472 5.212 29.7565 5.212C29.8179 5.212 29.8685 5.2053 29.9085 5.192C29.9512 5.176 29.9872 5.16 30.0165 5.144C30.0485 5.128 30.0765 5.1133 30.1005 5.1C30.1245 5.084 30.1485 5.076 30.1725 5.076C30.2019 5.076 30.2259 5.084 30.2445 5.1C30.2632 5.1133 30.2832 5.1347 30.3045 5.164L30.6005 5.644C30.4565 5.764 30.2912 5.8547 30.1045 5.916C29.9179 5.9773 29.7245 6.008 29.5245 6.008L29.5245 6.008ZM33.3011 4.192C33.0158 4.2053 32.7758 4.2307 32.5811 4.268C32.3864 4.3027 32.2304 4.348 32.1131 4.404C31.9958 4.46 31.9118 4.5253 31.8611 4.6C31.8104 4.6747 31.7851 4.756 31.7851 4.844C31.7851 5.0173 31.8358 5.1413 31.9371 5.216C32.0411 5.2907 32.1758 5.328 32.3411 5.328C32.5438 5.328 32.7184 5.292 32.8651 5.22C33.0144 5.1453 33.1598 5.0333 33.3011 4.884L33.3011 4.192L33.3011 4.192ZM31.0371 2.412C31.5091 1.98 32.0771 1.764 32.7411 1.764C32.9811 1.764 33.1958 1.804 33.3851 1.884C33.5744 1.9613 33.7344 2.0707 33.8651 2.212C33.9958 2.3507 34.0944 2.5173 34.1611 2.712C34.2304 2.9067 34.2651 3.12 34.2651 3.352L34.2651 5.944L33.8171 5.944C33.7238 5.944 33.6518 5.9307 33.6011 5.904C33.5504 5.8747 33.5104 5.8173 33.4811 5.732L33.3931 5.436C33.2891 5.5293 33.1878 5.612 33.0891 5.684C32.9904 5.7533 32.8878 5.812 32.7811 5.86C32.6744 5.908 32.5598 5.944 32.4371 5.968C32.3171 5.9947 32.1838 6.008 32.0371 6.008C31.8638 6.008 31.7038 5.9853 31.5571 5.94C31.4104 5.892 31.2838 5.8213 31.1771 5.728C31.0704 5.6347 30.9878 5.5187 30.9291 5.38C30.8704 5.2413 30.8411 5.08 30.8411 4.896C30.8411 4.792 30.8584 4.6893 30.8931 4.588C30.9278 4.484 30.9838 4.3853 31.0611 4.292C31.1411 4.1987 31.2438 4.1107 31.3691 4.028C31.4944 3.9453 31.6478 3.8733 31.8291 3.812C32.0131 3.7507 32.2264 3.7013 32.4691 3.664C32.7118 3.624 32.9891 3.6 33.3011 3.592L33.3011 3.352C33.3011 3.0773 33.2424 2.8747 33.1251 2.744C33.0078 2.6107 32.8384 2.544 32.6171 2.544C32.4571 2.544 32.3238 2.5627 32.2171 2.6C32.1131 2.6373 32.0211 2.68 31.9411 2.728C31.8611 2.7733 31.7878 2.8147 31.7211 2.852C31.6571 2.8893 31.5851 2.908 31.5051 2.908C31.4358 2.908 31.3771 2.8907 31.3291 2.856C31.2811 2.8187 31.2424 2.776 31.2131 2.728L31.0371 2.412L31.0371 2.412ZM36.2076 0L36.2076 5.944L35.2076 5.944L35.2076 0L36.2076 0L36.2076 0Z" transform="translate(6.476074 18)" id="Shape" fill="#FF9300" fill-rule="evenodd" stroke="none" />
    <path d="M3.5 0.933333L45.5 0.933333L45.5 0L3.5 0L3.5 0.933333L3.5 0.933333ZM48 3.26667L48 10.7333L49 10.7333L49 3.26667L48 3.26667L48 3.26667ZM45.5 13.0667L3.5 13.0667L3.5 14L45.5 14L45.5 13.0667L45.5 13.0667ZM1 10.7333L1 3.26667L0 3.26667L0 10.7333L1 10.7333L1 10.7333ZM3.5 13.0667C2.11929 13.0667 1 12.022 1 10.7333L0 10.7333C0 12.5375 1.567 14 3.5 14L3.5 13.0667L3.5 13.0667ZM48 10.7333C48 12.022 46.8807 13.0667 45.5 13.0667L45.5 14C47.433 14 49 12.5375 49 10.7333L48 10.7333L48 10.7333ZM45.5 0.933333C46.8807 0.933333 48 1.97801 48 3.26667L49 3.26667C49 1.46253 47.433 0 45.5 0L45.5 0.933333L45.5 0.933333ZM3.5 0C1.567 0 0 1.46253 0 3.26667L1 3.26667C1 1.97801 2.11929 0.933333 3.5 0.933333L3.5 0L3.5 0Z" transform="translate(3.0517578E-05 13.999999)" id="Shape" fill="#979797" fill-rule="evenodd" stroke="none" />
  </g>
</svg>