<svg width="32" height="24" viewBox="0 0 32 24" fill="none" xmlns="http://www.w3.org/2000/svg">
<path d="M2.5 8C2.5 9.10457 3.39543 10 4.5 10L14.5 10L14.5 2L4.5 2C3.39543 2 2.5 2.89543 2.5 4L2.5 8Z" fill="#F1BB72"/>
<g clip-path="url(#clip0)">
<path fill-rule="evenodd" clip-rule="evenodd" d="M8.5 9L4.5 6L8.5 3L8.5 5L12.5 5L12.5 7L8.5 7L8.5 9Z" fill="black"/>
</g>
<path d="M29.5 20C29.5 21.1046 28.6046 22 27.5 22L17.5 22L17.5 14L27.5 14C28.6046 14 29.5 14.8954 29.5 16L29.5 20Z" fill="#F1BB72"/>
<g clip-path="url(#clip1)">
<path fill-rule="evenodd" clip-rule="evenodd" d="M23.5 21L27.5 18L23.5 15L23.5 17L19.5 17L19.5 19L23.5 19L23.5 21Z" fill="black"/>
</g>
<defs>
<clipPath id="clip0">
<path d="M14.5 10L4.5 10C3.39543 10 2.5 9.10457 2.5 8L2.5 4C2.5 2.89543 3.39543 2 4.5 2L14.5 2L14.5 10Z" fill="white"/>
</clipPath>
<clipPath id="clip1">
<path d="M17.5 22L27.5 22C28.6046 22 29.5 21.1046 29.5 20L29.5 16C29.5 14.8954 28.6046 14 27.5 14L17.5 14L17.5 22Z" fill="white"/>
</clipPath>
</defs>
</svg>
