<svg width="34" height="36" viewBox="0 0 34 36" fill="none" xmlns="http://www.w3.org/2000/svg">
<path d="M1.75 4C1.75 2.89543 2.64543 2 3.75 2H30.25C31.3546 2 32.25 2.89543 32.25 4V6.5C32.25 7.60457 31.3546 8.5 30.25 8.5H3.75C2.64543 8.5 1.75 7.60457 1.75 6.5V4Z" fill="#FF9300" fill-opacity="0.5"/>
<path d="M6.09717 6.089L5.48117 4.4055C5.45083 4.33083 5.41933 4.24217 5.38667 4.1395C5.354 4.03683 5.32133 3.926 5.28867 3.807C5.25833 3.926 5.22683 4.038 5.19417 4.143C5.1615 4.24567 5.13 4.3355 5.09967 4.4125L4.48717 6.089H6.09717ZM7.75967 8H7.03167C6.95 8 6.8835 7.98017 6.83217 7.9405C6.78083 7.8985 6.74233 7.84717 6.71667 7.7865L6.33867 6.754H4.24217L3.86417 7.7865C3.8455 7.84017 3.80933 7.88917 3.75567 7.9335C3.702 7.97783 3.6355 8 3.55617 8H2.82117L4.81267 2.939H5.77167L7.75967 8ZM12.445 2.939V8H11.962C11.8874 8 11.8244 7.98833 11.773 7.965C11.724 7.93933 11.6762 7.89733 11.6295 7.839L8.98702 4.465C9.00102 4.619 9.00802 4.76133 9.00802 4.892V8H8.17852V2.939H8.67202C8.71169 2.939 8.74552 2.94133 8.77352 2.946C8.80385 2.94833 8.82952 2.95533 8.85052 2.967C8.87385 2.97633 8.89602 2.9915 8.91702 3.0125C8.93802 3.03117 8.96135 3.05683 8.98702 3.0895L11.64 6.4775C11.633 6.39583 11.6272 6.31533 11.6225 6.236C11.6179 6.15667 11.6155 6.08317 11.6155 6.0155V2.939H12.445ZM16.1411 6.089L15.5251 4.4055C15.4947 4.33083 15.4632 4.24217 15.4306 4.1395C15.3979 4.03683 15.3652 3.926 15.3326 3.807C15.3022 3.926 15.2707 4.038 15.2381 4.143C15.2054 4.24567 15.1739 4.3355 15.1436 4.4125L14.5311 6.089H16.1411ZM17.8036 8H17.0756C16.9939 8 16.9274 7.98017 16.8761 7.9405C16.8247 7.8985 16.7862 7.84717 16.7606 7.7865L16.3826 6.754H14.2861L13.9081 7.7865C13.8894 7.84017 13.8532 7.88917 13.7996 7.9335C13.7459 7.97783 13.6794 8 13.6001 8H12.8651L14.8566 2.939H15.8156L17.8036 8ZM21.1869 7.223V8H18.2224V2.939H19.1639V7.223H21.1869ZM26.4029 5.4695C26.4029 5.8405 26.3411 6.18467 26.2174 6.502C26.0961 6.817 25.9234 7.09 25.6994 7.321C25.4754 7.552 25.2059 7.73283 24.8909 7.8635C24.5759 7.99183 24.2259 8.056 23.8409 8.056C23.4582 8.056 23.1094 7.99183 22.7944 7.8635C22.4794 7.73283 22.2087 7.552 21.9824 7.321C21.7584 7.09 21.5846 6.817 21.4609 6.502C21.3372 6.18467 21.2754 5.8405 21.2754 5.4695C21.2754 5.0985 21.3372 4.7555 21.4609 4.4405C21.5846 4.12317 21.7584 3.849 21.9824 3.618C22.2087 3.387 22.4794 3.20733 22.7944 3.079C23.1094 2.94833 23.4582 2.883 23.8409 2.883C24.0976 2.883 24.3391 2.91333 24.5654 2.974C24.7917 3.03233 24.9994 3.11633 25.1884 3.226C25.3774 3.33333 25.5466 3.46517 25.6959 3.6215C25.8476 3.7755 25.9759 3.94817 26.0809 4.1395C26.1859 4.33083 26.2652 4.5385 26.3189 4.7625C26.3749 4.9865 26.4029 5.22217 26.4029 5.4695ZM25.4404 5.4695C25.4404 5.19183 25.4031 4.94333 25.3284 4.724C25.2537 4.50233 25.1476 4.3145 25.0099 4.1605C24.8722 4.0065 24.7042 3.88867 24.5059 3.807C24.3099 3.72533 24.0882 3.6845 23.8409 3.6845C23.5936 3.6845 23.3707 3.72533 23.1724 3.807C22.9764 3.88867 22.8084 4.0065 22.6684 4.1605C22.5307 4.3145 22.4246 4.50233 22.3499 4.724C22.2752 4.94333 22.2379 5.19183 22.2379 5.4695C22.2379 5.74717 22.2752 5.99683 22.3499 6.2185C22.4246 6.43783 22.5307 6.6245 22.6684 6.7785C22.8084 6.93017 22.9764 7.04683 23.1724 7.1285C23.3707 7.21017 23.5936 7.251 23.8409 7.251C24.0882 7.251 24.3099 7.21017 24.5059 7.1285C24.7042 7.04683 24.8722 6.93017 25.0099 6.7785C25.1476 6.6245 25.2537 6.43783 25.3284 6.2185C25.4031 5.99683 25.4404 5.74717 25.4404 5.4695ZM31.2967 5.4625V7.51C31.0401 7.699 30.7659 7.83783 30.4742 7.9265C30.1849 8.01283 29.8746 8.056 29.5432 8.056C29.1302 8.056 28.7557 7.99183 28.4197 7.8635C28.0861 7.73517 27.8002 7.55667 27.5622 7.328C27.3266 7.09933 27.1446 6.82633 27.0162 6.509C26.8879 6.19167 26.8237 5.84517 26.8237 5.4695C26.8237 5.08917 26.8856 4.74033 27.0092 4.423C27.1329 4.10567 27.3079 3.83267 27.5342 3.604C27.7629 3.37533 28.0394 3.198 28.3637 3.072C28.6881 2.946 29.0521 2.883 29.4557 2.883C29.6611 2.883 29.8524 2.89933 30.0297 2.932C30.2094 2.96467 30.3751 3.01017 30.5267 3.0685C30.6807 3.1245 30.8207 3.19333 30.9467 3.275C31.0727 3.35667 31.1882 3.4465 31.2932 3.5445L31.0237 3.9715C30.9817 4.03917 30.9269 4.08117 30.8592 4.0975C30.7916 4.1115 30.7181 4.094 30.6387 4.045C30.5617 4.00067 30.4847 3.95633 30.4077 3.912C30.3307 3.86767 30.2444 3.82917 30.1487 3.7965C30.0554 3.76383 29.9492 3.737 29.8302 3.716C29.7136 3.695 29.5782 3.6845 29.4242 3.6845C29.1746 3.6845 28.9482 3.7265 28.7452 3.8105C28.5446 3.8945 28.3731 4.01467 28.2307 4.171C28.0884 4.32733 27.9787 4.51517 27.9017 4.7345C27.8247 4.95383 27.7862 5.19883 27.7862 5.4695C27.7862 5.75883 27.8271 6.01783 27.9087 6.2465C27.9927 6.47283 28.1094 6.66533 28.2587 6.824C28.4104 6.98033 28.5924 7.1005 28.8047 7.1845C29.0171 7.26617 29.2539 7.307 29.5152 7.307C29.7019 7.307 29.8687 7.28717 30.0157 7.2475C30.1627 7.20783 30.3062 7.15417 30.4462 7.0865V6.1695H29.8092C29.7486 6.1695 29.7007 6.15317 29.6657 6.1205C29.6331 6.0855 29.6167 6.0435 29.6167 5.9945V5.4625H31.2967Z" fill="black"/>
<path d="M1.75 29.5C1.75 28.3954 2.64543 27.5 3.75 27.5H30.25C31.3546 27.5 32.25 28.3954 32.25 29.5V32C32.25 33.1046 31.3546 34 30.25 34H3.75C2.64543 34 1.75 33.1046 1.75 32V29.5Z" fill="#FF9300" fill-opacity="0.5"/>
<path d="M9.24115 30.9695C9.24115 31.3405 9.17932 31.6812 9.05565 31.9915C8.93199 32.3018 8.75815 32.569 8.53415 32.793C8.31015 33.017 8.04065 33.1908 7.72565 33.3145C7.41065 33.4382 7.06065 33.5 6.67565 33.5H4.74715V28.439H6.67565C7.06065 28.439 7.41065 28.502 7.72565 28.628C8.04065 28.7517 8.31015 28.9255 8.53415 29.1495C8.75815 29.3712 8.93199 29.6372 9.05565 29.9475C9.17932 30.2578 9.24115 30.5985 9.24115 30.9695ZM8.27515 30.9695C8.27515 30.6918 8.23782 30.4433 8.16315 30.224C8.09082 30.0023 7.98465 29.8157 7.84465 29.664C7.70699 29.51 7.53899 29.3922 7.34065 29.3105C7.14465 29.2288 6.92299 29.188 6.67565 29.188H5.69215V32.751H6.67565C6.92299 32.751 7.14465 32.7102 7.34065 32.6285C7.53899 32.5468 7.70699 32.4302 7.84465 32.2785C7.98465 32.1245 8.09082 31.9378 8.16315 31.7185C8.23782 31.4968 8.27515 31.2472 8.27515 30.9695ZM10.9123 33.5H9.96735V28.439H10.9123V33.5ZM16.1125 30.9625V33.01C15.8558 33.199 15.5816 33.3378 15.29 33.4265C15.0006 33.5128 14.6903 33.556 14.359 33.556C13.946 33.556 13.5715 33.4918 13.2355 33.3635C12.9018 33.2352 12.616 33.0567 12.378 32.828C12.1423 32.5993 11.9603 32.3263 11.832 32.009C11.7036 31.6917 11.6395 31.3452 11.6395 30.9695C11.6395 30.5892 11.7013 30.2403 11.825 29.923C11.9486 29.6057 12.1236 29.3327 12.35 29.104C12.5786 28.8753 12.8551 28.698 13.1795 28.572C13.5038 28.446 13.8678 28.383 14.2715 28.383C14.4768 28.383 14.6681 28.3993 14.8455 28.432C15.0251 28.4647 15.1908 28.5102 15.3425 28.5685C15.4965 28.6245 15.6365 28.6933 15.7625 28.775C15.8885 28.8567 16.004 28.9465 16.109 29.0445L15.8395 29.4715C15.7975 29.5392 15.7426 29.5812 15.675 29.5975C15.6073 29.6115 15.5338 29.594 15.4545 29.545C15.3775 29.5007 15.3005 29.4563 15.2235 29.412C15.1465 29.3677 15.0601 29.3292 14.9645 29.2965C14.8711 29.2638 14.765 29.237 14.646 29.216C14.5293 29.195 14.394 29.1845 14.24 29.1845C13.9903 29.1845 13.764 29.2265 13.561 29.3105C13.3603 29.3945 13.1888 29.5147 13.0465 29.671C12.9041 29.8273 12.7945 30.0152 12.7175 30.2345C12.6405 30.4538 12.602 30.6988 12.602 30.9695C12.602 31.2588 12.6428 31.5178 12.7245 31.7465C12.8085 31.9728 12.9251 32.1653 13.0745 32.324C13.2261 32.4803 13.4081 32.6005 13.6205 32.6845C13.8328 32.7662 14.0696 32.807 14.331 32.807C14.5176 32.807 14.6845 32.7872 14.8315 32.7475C14.9785 32.7078 15.122 32.6542 15.262 32.5865V31.6695H14.625C14.5643 31.6695 14.5165 31.6532 14.4815 31.6205C14.4488 31.5855 14.4325 31.5435 14.4325 31.4945V30.9625H16.1125ZM17.8596 33.5H16.9146V28.439H17.8596V33.5ZM22.4227 29.2125H20.8967V33.5H19.9552V29.2125H18.4292V28.439H22.4227V29.2125ZM25.1618 31.589L24.5458 29.9055C24.5154 29.8308 24.4839 29.7422 24.4513 29.6395C24.4186 29.5368 24.3859 29.426 24.3533 29.307C24.3229 29.426 24.2914 29.538 24.2588 29.643C24.2261 29.7457 24.1946 29.8355 24.1643 29.9125L23.5518 31.589H25.1618ZM26.8243 33.5H26.0963C26.0146 33.5 25.9481 33.4802 25.8968 33.4405C25.8454 33.3985 25.8069 33.3472 25.7813 33.2865L25.4033 32.254H23.3068L22.9288 33.2865C22.9101 33.3402 22.8739 33.3892 22.8203 33.4335C22.7666 33.4778 22.7001 33.5 22.6208 33.5H21.8858L23.8773 28.439H24.8363L26.8243 33.5ZM30.2076 32.723V33.5H27.2431V28.439H28.1846V32.723H30.2076Z" fill="black"/>
</svg>
