<svg width="12" height="36" viewBox="0 0 12 36" fill="none" xmlns="http://www.w3.org/2000/svg">
<path d="M1.5 4C1.5 2.34315 2.84315 1 4.5 1H7.5C9.15685 1 10.5 2.34315 10.5 4V10C10.5 11.6569 9.15685 13 7.5 13H4.5C2.84315 13 1.5 11.6569 1.5 10V4Z" fill="#E3E3E3"/>
<path d="M3 4.5C3 3.39543 3.89543 2.5 5 2.5H7C8.10457 2.5 9 3.39543 9 4.5V9.5C9 10.6046 8.10457 11.5 7 11.5H5C3.89543 11.5 3 10.6046 3 9.5V4.5Z" fill="#F1BB72"/>
<path d="M4.5 1.5H7.5V0.5H4.5V1.5ZM10 4V10H11V4H10ZM7.5 12.5H4.5V13.5H7.5V12.5ZM2 10V4H1V10H2ZM4.5 12.5C3.11929 12.5 2 11.3807 2 10H1C1 11.933 2.567 13.5 4.5 13.5V12.5ZM10 10C10 11.3807 8.88071 12.5 7.5 12.5V13.5C9.433 13.5 11 11.933 11 10H10ZM7.5 1.5C8.88071 1.5 10 2.61929 10 4H11C11 2.067 9.433 0.5 7.5 0.5V1.5ZM4.5 0.5C2.567 0.5 1 2.067 1 4H2C2 2.61929 3.11929 1.5 4.5 1.5V0.5Z" fill="#979797"/>
<path fill-rule="evenodd" clip-rule="evenodd" d="M8.22361 6.55527L6.88941 7.88942C6.52089 8.25798 5.92382 8.25798 5.55527 7.88942L5.11058 7.44467L5.55527 7.00002L6.00001 7.44467C6.12285 7.56727 6.32216 7.56752 6.44476 7.44467L7.77886 6.11057C7.90141 5.98787 7.90141 5.7884 7.77886 5.66567L7.33416 5.22098C7.21156 5.09846 7.01202 5.09846 6.88941 5.22098L6.41311 5.69736C6.1923 5.56741 5.94134 5.51167 5.69289 5.52841L6.44476 4.77628C6.81327 4.40791 7.41062 4.40791 7.77886 4.77628L8.22361 5.22098C8.59213 5.58937 8.59213 6.1869 8.22361 6.55527ZM5.58659 8.30286L5.11056 8.77886C4.98772 8.90171 4.78841 8.90141 4.66586 8.77886L4.22113 8.33416C4.09829 8.21157 4.09829 8.01226 4.22113 7.88941L5.55526 6.55527C5.67782 6.43275 5.87746 6.43275 5.99998 6.55527L6.44473 7.00002L6.88938 6.55527L6.44473 6.11057C6.07616 5.7422 5.4791 5.7422 5.11057 6.11057L3.77641 7.44467C3.40786 7.81329 3.40786 8.41065 3.77641 8.77886L4.22113 9.22357C4.58938 9.5921 5.18672 9.5921 5.55526 9.22357L6.30708 8.47171C6.05863 8.48828 5.80833 8.43247 5.58659 8.30286Z" fill="black"/>
<path d="M1.5 22C1.5 20.3431 2.84315 19 4.5 19H7.5C9.15685 19 10.5 20.3431 10.5 22V28C10.5 29.6569 9.15685 31 7.5 31H4.5C2.84315 31 1.5 29.6569 1.5 28V22Z" fill="#E3E3E3"/>
<path d="M3 22.5C3 21.3954 3.89543 20.5 5 20.5H7C8.10457 20.5 9 21.3954 9 22.5V27.5C9 28.6046 8.10457 29.5 7 29.5H5C3.89543 29.5 3 28.6046 3 27.5V22.5Z" fill="#804900"/>
<path d="M4.5 19.5H7.5V18.5H4.5V19.5ZM10 22V28H11V22H10ZM7.5 30.5H4.5V31.5H7.5V30.5ZM2 28V22H1V28H2ZM4.5 30.5C3.11929 30.5 2 29.3807 2 28H1C1 29.933 2.567 31.5 4.5 31.5V30.5ZM10 28C10 29.3807 8.88071 30.5 7.5 30.5V31.5C9.433 31.5 11 29.933 11 28H10ZM7.5 19.5C8.88071 19.5 10 20.6193 10 22H11C11 20.067 9.433 18.5 7.5 18.5V19.5ZM4.5 18.5C2.567 18.5 1 20.067 1 22H2C2 20.6193 3.11929 19.5 4.5 19.5V18.5Z" fill="#979797"/>
<path fill-rule="evenodd" clip-rule="evenodd" d="M8.22361 24.5553L6.88941 25.8894C6.52089 26.258 5.92382 26.258 5.55527 25.8894L5.11058 25.4447L5.55527 25L6.00001 25.4447C6.12285 25.5673 6.32216 25.5675 6.44476 25.4447L7.77886 24.1106C7.90141 23.9879 7.90141 23.7884 7.77886 23.6657L7.33416 23.221C7.21156 23.0985 7.01202 23.0985 6.88941 23.221L6.41311 23.6974C6.1923 23.5674 5.94134 23.5117 5.69289 23.5284L6.44476 22.7763C6.81327 22.4079 7.41062 22.4079 7.77886 22.7763L8.22361 23.221C8.59213 23.5894 8.59213 24.1869 8.22361 24.5553ZM5.58659 26.3029L5.11056 26.7789C4.98772 26.9017 4.78841 26.9014 4.66586 26.7789L4.22113 26.3342C4.09829 26.2116 4.09829 26.0123 4.22113 25.8894L5.55526 24.5553C5.67782 24.4327 5.87746 24.4327 5.99998 24.5553L6.44473 25L6.88938 24.5553L6.44473 24.1106C6.07616 23.7422 5.4791 23.7422 5.11057 24.1106L3.77641 25.4447C3.40786 25.8133 3.40786 26.4106 3.77641 26.7789L4.22113 27.2236C4.58938 27.5921 5.18672 27.5921 5.55526 27.2236L6.30708 26.4717C6.05863 26.4883 5.80833 26.4325 5.58659 26.3029Z" fill="#FF9300"/>
</svg>
