<?xml version="1.0" encoding="utf-8"?>
<svg width="90px" height="28px" viewbox="0 0 90 28" version="1.1" xmlns:xlink="http://www.w3.org/1999/xlink" xmlns="http://www.w3.org/2000/svg">
  <defs>
    <rect width="90" height="28" id="artboard_1" />
    <clipPath id="clip_1">
      <use xlink:href="#artboard_1" clip-rule="evenodd" />
    </clipPath>
  </defs>
  <g id="hoverOn00307" clip-path="url(#clip_1)">
    <path d="M0 3C0 1.3431 1.3431 0 3 0L38 0C39.6569 0 41 1.3431 41 3L41 7C41 8.6569 39.6569 10 38 10L3 10C1.3431 10 0 8.6569 0 7L0 3L0 3Z" transform="translate(47 16)" id="Shape" fill="#804900" fill-rule="evenodd" stroke="none" />
    <path d="M3.388 4.96L3.388 5.848L0 5.848L0 0.0639954L1.076 0.0639954L1.076 4.96L3.388 4.96L3.388 4.96ZM5.2363 0.919996L5.2363 2.632L7.4043 2.632L7.4043 3.49199L5.2363 3.49199L5.2363 5.848L4.1563 5.848L4.1563 0.0639954L7.8043 0.0639954L7.8043 0.919996L5.2363 0.919996L5.2363 0.919996ZM14.1488 2.956C14.1488 3.38 14.0782 3.7733 13.9368 4.136C13.7982 4.496 13.6008 4.808 13.3448 5.072C13.0888 5.336 12.7808 5.5427 12.4208 5.692C12.0608 5.8387 11.6608 5.912 11.2208 5.912C10.7835 5.912 10.3848 5.8387 10.0248 5.692C9.6648 5.5427 9.3555 5.336 9.0968 5.072C8.8408 4.808 8.6422 4.496 8.5008 4.136C8.3595 3.7733 8.2888 3.38 8.2888 2.956C8.2888 2.532 8.3595 2.14 8.5008 1.78C8.6422 1.4173 8.8408 1.104 9.0968 0.84C9.3555 0.576 9.6648 0.370699 10.0248 0.223999C10.3848 0.0746994 10.7835 0 11.2208 0C11.5142 0 11.7902 0.0347004 12.0488 0.104C12.3075 0.1707 12.5448 0.266699 12.7608 0.392C12.9768 0.5147 13.1702 0.6653 13.3408 0.844C13.5142 1.02 13.6608 1.2173 13.7808 1.436C13.9008 1.6547 13.9915 1.892 14.0528 2.148C14.1168 2.404 14.1488 2.6733 14.1488 2.956L14.1488 2.956ZM13.0488 2.956C13.0488 2.6387 13.0062 2.3547 12.9208 2.104C12.8355 1.8507 12.7142 1.636 12.5568 1.46C12.3995 1.284 12.2075 1.1493 11.9808 1.056C11.7568 0.9627 11.5035 0.916 11.2208 0.916C10.9382 0.916 10.6835 0.9627 10.4568 1.056C10.2328 1.1493 10.0408 1.284 9.8808 1.46C9.7235 1.636 9.6022 1.8507 9.5168 2.104C9.4315 2.3547 9.3888 2.6387 9.3888 2.956C9.3888 3.2733 9.4315 3.5587 9.5168 3.812C9.6022 4.0627 9.7235 4.276 9.8808 4.452C10.0408 4.6253 10.2328 4.7587 10.4568 4.852C10.6835 4.9453 10.9382 4.992 11.2208 4.992C11.5035 4.992 11.7568 4.9453 11.9808 4.852C12.2075 4.7587 12.3995 4.6253 12.5568 4.452C12.7142 4.276 12.8355 4.0627 12.9208 3.812C13.0062 3.5587 13.0488 3.2733 13.0488 2.956L13.0488 2.956Z" transform="translate(60.5971 18)" id="Shape" fill="#FF9300" fill-rule="evenodd" stroke="none" />
    <path d="M0 3C0 1.34315 1.34315 0 3 0L39 0C40.6569 0 42 1.34315 42 3L42 7C42 8.6569 40.6569 10 39 10L3 10C1.34315 10 0 8.6569 0 7L0 3L0 3Z" transform="translate(2 2)" id="Shape" fill="#804900" fill-rule="evenodd" stroke="none" />
    <path d="M1.08 1.016L1.08 2.62L3.10397 2.62L3.10397 3.448L1.08 3.448L1.08 5.084L3.64797 5.084L3.64797 5.944L0 5.944L0 0.160004L3.64797 0.160004L3.64797 1.016L1.08 1.016L1.08 1.016ZM5.28367 2.344C5.36627 2.26133 5.45297 2.18533 5.54367 2.116C5.63697 2.044 5.73427 1.984 5.83567 1.936C5.93967 1.88533 6.05027 1.84667 6.16767 1.82C6.28497 1.79067 6.41297 1.776 6.55167 1.776C6.77567 1.776 6.97427 1.81467 7.14767 1.892C7.32097 1.96667 7.46497 2.07333 7.57967 2.212C7.69697 2.348 7.78497 2.512 7.84367 2.704C7.90497 2.89333 7.93567 3.10267 7.93567 3.332L7.93567 5.944L6.94767 5.944L6.94767 3.332C6.94767 3.08133 6.89027 2.888 6.77567 2.752C6.66097 2.61333 6.48627 2.544 6.25167 2.544C6.08097 2.544 5.92097 2.58267 5.77167 2.66C5.62227 2.73733 5.48097 2.84267 5.34767 2.976L5.34767 5.944L4.35967 5.944L4.35967 1.84L4.96367 1.84C5.09167 1.84 5.17567 1.9 5.21567 2.02L5.28367 2.344L5.28367 2.344ZM12.4815 1.84L10.8535 5.944L9.95747 5.944L8.32947 1.84L9.14547 1.84C9.22017 1.84 9.28147 1.85733 9.32947 1.892C9.38017 1.92667 9.41347 1.97067 9.42947 2.024L10.2215 4.216C10.2642 4.344 10.3015 4.46933 10.3335 4.592C10.3655 4.71467 10.3935 4.83733 10.4175 4.96C10.4442 4.83733 10.4735 4.71467 10.5055 4.592C10.5375 4.46933 10.5762 4.344 10.6215 4.216L11.4295 2.024C11.4482 1.97067 11.4815 1.92667 11.5295 1.892C11.5775 1.85733 11.6349 1.84 11.7015 1.84L12.4815 1.84L12.4815 1.84ZM15.5271 3.484C15.5271 3.34725 15.5084 3.21904 15.4711 3.09939C15.4364 2.97688 15.3831 2.87004 15.3111 2.77887C15.2391 2.68771 15.1471 2.61648 15.0351 2.5652C14.9258 2.51106 14.7978 2.484 14.6511 2.484C14.3658 2.484 14.1404 2.57089 13.9751 2.74468C13.8124 2.91848 13.7084 3.16491 13.6631 3.484L15.5271 3.484L15.5271 3.484ZM13.6431 4.016C13.6591 4.22667 13.6964 4.40933 13.7551 4.564C13.8138 4.716 13.8911 4.84267 13.9871 4.944C14.0831 5.0427 14.1964 5.1173 14.3271 5.168C14.4604 5.216 14.6071 5.24 14.7671 5.24C14.9271 5.24 15.0644 5.2213 15.1791 5.184C15.2964 5.1467 15.3978 5.1053 15.4831 5.06C15.5711 5.0147 15.6471 4.9733 15.7111 4.936C15.7778 4.89867 15.8418 4.88 15.9031 4.88C15.9858 4.88 16.0471 4.91067 16.0871 4.972L16.3711 5.332C16.2618 5.46 16.1391 5.568 16.0031 5.656C15.8671 5.7413 15.7244 5.8107 15.5751 5.864C15.4284 5.9147 15.2778 5.9507 15.1231 5.972C14.9711 5.9933 14.8231 6.004 14.6791 6.004C14.3938 6.004 14.1284 5.9573 13.8831 5.864C13.6378 5.768 13.4244 5.628 13.2431 5.444C13.0618 5.2573 12.9191 5.028 12.8151 4.756C12.7111 4.48133 12.6591 4.164 12.6591 3.804C12.6591 3.524 12.7044 3.26133 12.7951 3.016C12.8858 2.768 13.0151 2.55333 13.1831 2.372C13.3538 2.188 13.5604 2.04267 13.8031 1.936C14.0484 1.82933 14.3244 1.776 14.6311 1.776C14.8898 1.776 15.1284 1.81733 15.3471 1.9C15.5658 1.98267 15.7538 2.104 15.9111 2.264C16.0684 2.42133 16.1911 2.616 16.2791 2.848C16.3698 3.07733 16.4151 3.34 16.4151 3.636C16.4151 3.78533 16.3991 3.88667 16.3671 3.94C16.3351 3.99067 16.2738 4.016 16.1831 4.016L13.6431 4.016L13.6431 4.016ZM18.1685 0L18.1685 5.944L17.1685 5.944L17.1685 0L18.1685 0L18.1685 0ZM20.9569 1.776C21.2609 1.776 21.5369 1.82533 21.7849 1.924C22.0356 2.02267 22.2489 2.16267 22.4249 2.344C22.6036 2.52533 22.7409 2.74667 22.8369 3.008C22.9329 3.26933 22.9809 3.56133 22.9809 3.884C22.9809 4.20933 22.9329 4.50267 22.8369 4.764C22.7409 5.0253 22.6036 5.248 22.4249 5.432C22.2489 5.616 22.0356 5.7573 21.7849 5.856C21.5369 5.9547 21.2609 6.004 20.9569 6.004C20.6502 6.004 20.3716 5.9547 20.1209 5.856C19.8702 5.7573 19.6556 5.616 19.4769 5.432C19.3009 5.248 19.1636 5.0253 19.0649 4.764C18.9689 4.50267 18.9209 4.20933 18.9209 3.884C18.9209 3.56133 18.9689 3.26933 19.0649 3.008C19.1636 2.74667 19.3009 2.52533 19.4769 2.344C19.6556 2.16267 19.8702 2.02267 20.1209 1.924C20.3716 1.82533 20.6502 1.776 20.9569 1.776L20.9569 1.776ZM20.9569 5.244C21.2982 5.244 21.5502 5.1293 21.7129 4.9C21.8782 4.67067 21.9609 4.33467 21.9609 3.892C21.9609 3.44933 21.8782 3.112 21.7129 2.88C21.5502 2.648 21.2982 2.532 20.9569 2.532C20.6102 2.532 20.3529 2.64933 20.1849 2.884C20.0196 3.116 19.9369 3.452 19.9369 3.892C19.9369 4.332 20.0196 4.668 20.1849 4.9C20.3529 5.1293 20.6102 5.244 20.9569 5.244L20.9569 5.244ZM24.7227 4.88C24.8347 5.016 24.956 5.112 25.0867 5.168C25.22 5.224 25.364 5.252 25.5187 5.252C25.668 5.252 25.8027 5.224 25.9227 5.168C26.0427 5.112 26.144 5.0267 26.2267 4.912C26.312 4.79733 26.3773 4.65333 26.4227 4.48C26.468 4.304 26.4907 4.09733 26.4907 3.86C26.4907 3.62 26.4707 3.41733 26.4307 3.252C26.3933 3.084 26.3387 2.948 26.2667 2.844C26.1947 2.74 26.1067 2.664 26.0027 2.616C25.9013 2.568 25.7853 2.544 25.6547 2.544C25.4493 2.544 25.2747 2.588 25.1307 2.676C24.9867 2.76133 24.8507 2.88267 24.7227 3.04L24.7227 4.88L24.7227 4.88ZM24.6707 2.4C24.8387 2.21067 25.0293 2.05733 25.2427 1.94C25.456 1.82267 25.7067 1.764 25.9947 1.764C26.2187 1.764 26.4227 1.81067 26.6067 1.904C26.7933 1.99733 26.9533 2.13333 27.0867 2.312C27.2227 2.488 27.3267 2.70667 27.3987 2.968C27.4733 3.22667 27.5107 3.524 27.5107 3.86C27.5107 4.16667 27.4693 4.45067 27.3867 4.712C27.304 4.9733 27.1853 5.2 27.0307 5.392C26.8787 5.584 26.6933 5.7347 26.4747 5.844C26.2587 5.9507 26.016 6.004 25.7467 6.004C25.5173 6.004 25.3213 5.9693 25.1587 5.9C24.996 5.828 24.8507 5.7293 24.7227 5.604L24.7227 7.284L23.7347 7.284L23.7347 1.84L24.3387 1.84C24.4667 1.84 24.5507 1.9 24.5907 2.02L24.6707 2.4L24.6707 2.4ZM30.9255 3.484C30.9255 3.34725 30.9069 3.21904 30.8695 3.09939C30.8349 2.97688 30.7815 2.87004 30.7095 2.77887C30.6375 2.68771 30.5455 2.61648 30.4335 2.5652C30.3242 2.51106 30.1962 2.484 30.0495 2.484C29.7642 2.484 29.5389 2.57089 29.3735 2.74468C29.2109 2.91848 29.1069 3.16491 29.0615 3.484L30.9255 3.484L30.9255 3.484ZM29.0415 4.016C29.0575 4.22667 29.0949 4.40933 29.1535 4.564C29.2122 4.716 29.2895 4.84267 29.3855 4.944C29.4815 5.0427 29.5949 5.1173 29.7255 5.168C29.8589 5.216 30.0055 5.24 30.1655 5.24C30.3255 5.24 30.4629 5.2213 30.5775 5.184C30.6949 5.1467 30.7962 5.1053 30.8815 5.06C30.9695 5.0147 31.0455 4.9733 31.1095 4.936C31.1762 4.89867 31.2402 4.88 31.3015 4.88C31.3842 4.88 31.4455 4.91067 31.4855 4.972L31.7695 5.332C31.6602 5.46 31.5375 5.568 31.4015 5.656C31.2655 5.7413 31.1229 5.8107 30.9735 5.864C30.8269 5.9147 30.6762 5.9507 30.5215 5.972C30.3695 5.9933 30.2215 6.004 30.0775 6.004C29.7922 6.004 29.5269 5.9573 29.2815 5.864C29.0362 5.768 28.8229 5.628 28.6415 5.444C28.4602 5.2573 28.3175 5.028 28.2135 4.756C28.1095 4.48133 28.0575 4.164 28.0575 3.804C28.0575 3.524 28.1029 3.26133 28.1935 3.016C28.2842 2.768 28.4135 2.55333 28.5815 2.372C28.7522 2.188 28.9589 2.04267 29.2015 1.936C29.4469 1.82933 29.7229 1.776 30.0295 1.776C30.2882 1.776 30.5269 1.81733 30.7455 1.9C30.9642 1.98267 31.1522 2.104 31.3095 2.264C31.4669 2.42133 31.5895 2.616 31.6775 2.848C31.7682 3.07733 31.8135 3.34 31.8135 3.636C31.8135 3.78533 31.7975 3.88667 31.7655 3.94C31.7335 3.99067 31.6722 4.016 31.5815 4.016L29.0415 4.016L29.0415 4.016Z" transform="translate(7.2885303 4)" id="Shape" fill="#FF9300" fill-rule="evenodd" stroke="none" />
  </g>
</svg>