<svg width="134" height="416" viewBox="0 0 134 416" fill="none" xmlns="http://www.w3.org/2000/svg">
<rect x="2" y="44" width="14.5" height="6" fill="#2F1C04"/>
<rect x="2" y="44" width="14.5" height="6" stroke="#2F1C04"/>
<path d="M8.85983 45.3595C8.83183 45.4085 8.80149 45.4447 8.76883 45.468C8.73849 45.489 8.69999 45.4995 8.65333 45.4995C8.60433 45.4995 8.55066 45.482 8.49233 45.447C8.43633 45.4097 8.36866 45.3688 8.28933 45.3245C8.20999 45.2802 8.11666 45.2405 8.00933 45.2055C7.90433 45.1682 7.77949 45.1495 7.63483 45.1495C7.50416 45.1495 7.38983 45.1658 7.29183 45.1985C7.19383 45.2288 7.11099 45.272 7.04333 45.328C6.97799 45.384 6.92899 45.4517 6.89633 45.531C6.86366 45.608 6.84733 45.6932 6.84733 45.7865C6.84733 45.9055 6.87999 46.0047 6.94533 46.084C7.01299 46.1633 7.10166 46.231 7.21133 46.287C7.32099 46.343 7.44583 46.3932 7.58583 46.4375C7.72583 46.4818 7.86933 46.5297 8.01633 46.581C8.16333 46.63 8.30683 46.6883 8.44683 46.756C8.58683 46.8213 8.71166 46.9053 8.82133 47.008C8.93099 47.1083 9.0185 47.232 9.08383 47.379C9.15149 47.526 9.18533 47.7045 9.18533 47.9145C9.18533 48.1432 9.14566 48.3578 9.06633 48.5585C8.98933 48.7568 8.87499 48.9307 8.72333 49.08C8.57399 49.227 8.39083 49.3437 8.17383 49.43C7.95683 49.514 7.70833 49.556 7.42833 49.556C7.26733 49.556 7.10866 49.5397 6.95233 49.507C6.79599 49.4767 6.64549 49.4323 6.50083 49.374C6.35849 49.3157 6.22433 49.2457 6.09833 49.164C5.97233 49.0823 5.86033 48.9913 5.76233 48.891L6.03883 48.4395C6.06216 48.4068 6.09249 48.38 6.12983 48.359C6.16716 48.3357 6.20683 48.324 6.24883 48.324C6.30716 48.324 6.37016 48.3485 6.43783 48.3975C6.50549 48.4442 6.58599 48.4967 6.67933 48.555C6.77266 48.6133 6.88116 48.667 7.00483 48.716C7.13083 48.7627 7.28133 48.786 7.45633 48.786C7.72466 48.786 7.93233 48.723 8.07933 48.597C8.22633 48.4687 8.29983 48.2855 8.29983 48.0475C8.29983 47.9145 8.26599 47.806 8.19833 47.722C8.13299 47.638 8.04549 47.568 7.93583 47.512C7.82616 47.4537 7.70133 47.4047 7.56133 47.365C7.42133 47.3253 7.27899 47.2822 7.13433 47.2355C6.98966 47.1888 6.84733 47.1328 6.70733 47.0675C6.56733 47.0022 6.44249 46.917 6.33283 46.812C6.22316 46.707 6.13449 46.5763 6.06683 46.42C6.00149 46.2613 5.96883 46.0665 5.96883 45.8355C5.96883 45.6512 6.00499 45.4715 6.07733 45.2965C6.15199 45.1215 6.25933 44.9663 6.39933 44.831C6.53933 44.6957 6.71199 44.5872 6.91733 44.5055C7.12266 44.4238 7.35833 44.383 7.62433 44.383C7.92299 44.383 8.19833 44.4297 8.45033 44.523C8.70233 44.6163 8.91699 44.747 9.09433 44.915L8.85983 45.3595ZM12.9606 48.8525V49.5H10.1606V48.8525H11.1861V45.902C11.1861 45.7853 11.1896 45.6652 11.1966 45.5415L10.4686 46.1505C10.4266 46.1832 10.3846 46.2042 10.3426 46.2135C10.303 46.2205 10.2645 46.2205 10.2271 46.2135C10.1921 46.2065 10.1606 46.1948 10.1326 46.1785C10.1046 46.1598 10.0836 46.14 10.0696 46.119L9.79663 45.7445L11.3401 44.432H12.0506V48.8525H12.9606Z" fill="white"/>
<rect x="18.5" y="96" width="14.5" height="6" fill="#2F1C04"/>
<rect x="18.5" y="96" width="14.5" height="6" stroke="#2F1C04"/>
<path d="M25.3598 97.3595C25.3318 97.4085 25.3015 97.4447 25.2688 97.468C25.2385 97.489 25.2 97.4995 25.1533 97.4995C25.1043 97.4995 25.0507 97.482 24.9923 97.447C24.9363 97.4097 24.8687 97.3688 24.7893 97.3245C24.71 97.2802 24.6167 97.2405 24.5093 97.2055C24.4043 97.1682 24.2795 97.1495 24.1348 97.1495C24.0042 97.1495 23.8898 97.1658 23.7918 97.1985C23.6938 97.2288 23.611 97.272 23.5433 97.328C23.478 97.384 23.429 97.4517 23.3963 97.531C23.3637 97.608 23.3473 97.6932 23.3473 97.7865C23.3473 97.9055 23.38 98.0047 23.4453 98.084C23.513 98.1633 23.6017 98.231 23.7113 98.287C23.821 98.343 23.9458 98.3932 24.0858 98.4375C24.2258 98.4818 24.3693 98.5297 24.5163 98.581C24.6633 98.63 24.8068 98.6883 24.9468 98.756C25.0868 98.8213 25.2117 98.9053 25.3213 99.008C25.431 99.1083 25.5185 99.232 25.5838 99.379C25.6515 99.526 25.6853 99.7045 25.6853 99.9145C25.6853 100.143 25.6457 100.358 25.5663 100.558C25.4893 100.757 25.375 100.931 25.2233 101.08C25.074 101.227 24.8908 101.344 24.6738 101.43C24.4568 101.514 24.2083 101.556 23.9283 101.556C23.7673 101.556 23.6087 101.54 23.4523 101.507C23.296 101.477 23.1455 101.432 23.0008 101.374C22.8585 101.316 22.7243 101.246 22.5983 101.164C22.4723 101.082 22.3603 100.991 22.2623 100.891L22.5388 100.439C22.5622 100.407 22.5925 100.38 22.6298 100.359C22.6672 100.336 22.7068 100.324 22.7488 100.324C22.8072 100.324 22.8702 100.348 22.9378 100.397C23.0055 100.444 23.086 100.497 23.1793 100.555C23.2727 100.613 23.3812 100.667 23.5048 100.716C23.6308 100.763 23.7813 100.786 23.9563 100.786C24.2247 100.786 24.4323 100.723 24.5793 100.597C24.7263 100.469 24.7998 100.285 24.7998 100.047C24.7998 99.9145 24.766 99.806 24.6983 99.722C24.633 99.638 24.5455 99.568 24.4358 99.512C24.3262 99.4537 24.2013 99.4047 24.0613 99.365C23.9213 99.3253 23.779 99.2822 23.6343 99.2355C23.4897 99.1888 23.3473 99.1328 23.2073 99.0675C23.0673 99.0022 22.9425 98.917 22.8328 98.812C22.7232 98.707 22.6345 98.5763 22.5668 98.42C22.5015 98.2613 22.4688 98.0665 22.4688 97.8355C22.4688 97.6512 22.505 97.4715 22.5773 97.2965C22.652 97.1215 22.7593 96.9663 22.8993 96.831C23.0393 96.6957 23.212 96.5872 23.4173 96.5055C23.6227 96.4238 23.8583 96.383 24.1243 96.383C24.423 96.383 24.6983 96.4297 24.9503 96.523C25.2023 96.6163 25.417 96.747 25.5943 96.915L25.3598 97.3595ZM29.2716 100.695C29.365 100.695 29.4385 100.722 29.4921 100.775C29.5481 100.827 29.5761 100.896 29.5761 100.982V101.5H26.1041V101.213C26.1041 101.155 26.1158 101.094 26.1391 101.031C26.1648 100.966 26.2045 100.907 26.2581 100.856L27.7946 99.316C27.923 99.1853 28.0373 99.0605 28.1376 98.9415C28.2403 98.8225 28.3255 98.7047 28.3931 98.588C28.4608 98.4713 28.5121 98.3535 28.5471 98.2345C28.5845 98.1132 28.6031 97.986 28.6031 97.853C28.6031 97.7317 28.5856 97.6255 28.5506 97.5345C28.5156 97.4412 28.4655 97.363 28.4001 97.3C28.3371 97.237 28.2601 97.1903 28.1691 97.16C28.0805 97.1273 27.9801 97.111 27.8681 97.111C27.7655 97.111 27.6698 97.1262 27.5811 97.1565C27.4948 97.1845 27.4178 97.2253 27.3501 97.279C27.2825 97.3303 27.2253 97.391 27.1786 97.461C27.132 97.531 27.097 97.608 27.0736 97.692C27.034 97.7993 26.9826 97.8705 26.9196 97.9055C26.8566 97.9405 26.7656 97.9487 26.6466 97.93L26.1916 97.8495C26.2266 97.6068 26.2943 97.3945 26.3946 97.2125C26.495 97.0282 26.6198 96.8753 26.7691 96.754C26.9208 96.6303 27.0935 96.5382 27.2871 96.4775C27.4831 96.4145 27.6931 96.383 27.9171 96.383C28.1505 96.383 28.364 96.418 28.5576 96.488C28.7513 96.5557 28.917 96.6525 29.0546 96.7785C29.1923 96.9045 29.2996 97.0562 29.3766 97.2335C29.4536 97.4108 29.4921 97.608 29.4921 97.825C29.4921 98.0117 29.4641 98.1843 29.4081 98.343C29.3545 98.5017 29.281 98.6533 29.1876 98.798C29.0966 98.9427 28.9893 99.0827 28.8656 99.218C28.742 99.3533 28.6125 99.491 28.4771 99.631L27.3361 100.796C27.4458 100.764 27.5543 100.739 27.6616 100.723C27.7713 100.704 27.8751 100.695 27.9731 100.695H29.2716Z" fill="white"/>
<rect x="35" y="148" width="14.5" height="6" fill="#2F1C04"/>
<rect x="35" y="148" width="14.5" height="6" stroke="#2F1C04"/>
<path d="M41.8598 149.359C41.8318 149.408 41.8015 149.445 41.7688 149.468C41.7385 149.489 41.7 149.499 41.6533 149.499C41.6043 149.499 41.5507 149.482 41.4923 149.447C41.4363 149.41 41.3687 149.369 41.2893 149.324C41.21 149.28 41.1167 149.24 41.0093 149.205C40.9043 149.168 40.7795 149.149 40.6348 149.149C40.5042 149.149 40.3898 149.166 40.2918 149.198C40.1938 149.229 40.111 149.272 40.0433 149.328C39.978 149.384 39.929 149.452 39.8963 149.531C39.8637 149.608 39.8473 149.693 39.8473 149.786C39.8473 149.905 39.88 150.005 39.9453 150.084C40.013 150.163 40.1017 150.231 40.2113 150.287C40.321 150.343 40.4458 150.393 40.5858 150.437C40.7258 150.482 40.8693 150.53 41.0163 150.581C41.1633 150.63 41.3068 150.688 41.4468 150.756C41.5868 150.821 41.7117 150.905 41.8213 151.008C41.931 151.108 42.0185 151.232 42.0838 151.379C42.1515 151.526 42.1853 151.704 42.1853 151.914C42.1853 152.143 42.1457 152.358 42.0663 152.558C41.9893 152.757 41.875 152.931 41.7233 153.08C41.574 153.227 41.3908 153.344 41.1738 153.43C40.9568 153.514 40.7083 153.556 40.4283 153.556C40.2673 153.556 40.1087 153.54 39.9523 153.507C39.796 153.477 39.6455 153.432 39.5008 153.374C39.3585 153.316 39.2243 153.246 39.0983 153.164C38.9723 153.082 38.8603 152.991 38.7623 152.891L39.0388 152.439C39.0622 152.407 39.0925 152.38 39.1298 152.359C39.1672 152.336 39.2068 152.324 39.2488 152.324C39.3072 152.324 39.3702 152.348 39.4378 152.397C39.5055 152.444 39.586 152.497 39.6793 152.555C39.7727 152.613 39.8812 152.667 40.0048 152.716C40.1308 152.763 40.2813 152.786 40.4563 152.786C40.7247 152.786 40.9323 152.723 41.0793 152.597C41.2263 152.469 41.2998 152.285 41.2998 152.047C41.2998 151.914 41.266 151.806 41.1983 151.722C41.133 151.638 41.0455 151.568 40.9358 151.512C40.8262 151.454 40.7013 151.405 40.5613 151.365C40.4213 151.325 40.279 151.282 40.1343 151.235C39.9897 151.189 39.8473 151.133 39.7073 151.067C39.5673 151.002 39.4425 150.917 39.3328 150.812C39.2232 150.707 39.1345 150.576 39.0668 150.42C39.0015 150.261 38.9688 150.066 38.9688 149.835C38.9688 149.651 39.005 149.471 39.0773 149.296C39.152 149.121 39.2593 148.966 39.3993 148.831C39.5393 148.696 39.712 148.587 39.9173 148.505C40.1227 148.424 40.3583 148.383 40.6243 148.383C40.923 148.383 41.1983 148.43 41.4503 148.523C41.7023 148.616 41.917 148.747 42.0943 148.915L41.8598 149.359ZM42.7161 149.849C42.7511 149.607 42.8188 149.394 42.9191 149.212C43.0195 149.028 43.1443 148.875 43.2936 148.754C43.4453 148.63 43.618 148.538 43.8116 148.477C44.0076 148.414 44.2176 148.383 44.4416 148.383C44.675 148.383 44.885 148.417 45.0716 148.484C45.2606 148.55 45.4216 148.642 45.5546 148.761C45.6876 148.878 45.7891 149.015 45.8591 149.174C45.9315 149.333 45.9676 149.504 45.9676 149.688C45.9676 149.849 45.949 149.992 45.9116 150.115C45.8766 150.237 45.8253 150.343 45.7576 150.434C45.69 150.525 45.606 150.602 45.5056 150.665C45.4053 150.728 45.2921 150.78 45.1661 150.822C45.4695 150.918 45.6958 151.064 45.8451 151.26C45.9945 151.456 46.0691 151.702 46.0691 151.998C46.0691 152.25 46.0225 152.473 45.9291 152.667C45.8358 152.861 45.7098 153.024 45.5511 153.157C45.3925 153.288 45.2081 153.387 44.9981 153.454C44.7905 153.522 44.57 153.556 44.3366 153.556C44.0823 153.556 43.8606 153.527 43.6716 153.468C43.4826 153.41 43.3181 153.324 43.1781 153.209C43.0381 153.095 42.9191 152.955 42.8211 152.789C42.7231 152.624 42.6391 152.432 42.5691 152.215L42.9506 152.058C43.051 152.016 43.1443 152.005 43.2306 152.026C43.3193 152.045 43.3835 152.092 43.4231 152.166C43.4651 152.248 43.5106 152.329 43.5596 152.408C43.611 152.487 43.6716 152.558 43.7416 152.621C43.8116 152.682 43.8933 152.732 43.9866 152.772C44.0823 152.809 44.1955 152.828 44.3261 152.828C44.4731 152.828 44.6015 152.805 44.7111 152.758C44.8208 152.709 44.9118 152.646 44.9841 152.569C45.0588 152.492 45.1136 152.407 45.1486 152.313C45.186 152.218 45.2046 152.122 45.2046 152.026C45.2046 151.905 45.1918 151.795 45.1661 151.697C45.1405 151.597 45.0868 151.512 45.0051 151.442C44.9235 151.372 44.8056 151.317 44.6516 151.277C44.5 151.238 44.2958 151.218 44.0391 151.218V150.602C44.2515 150.6 44.4276 150.58 44.5676 150.542C44.7076 150.505 44.8185 150.454 44.9001 150.388C44.9841 150.321 45.0425 150.24 45.0751 150.147C45.1078 150.054 45.1241 149.951 45.1241 149.839C45.1241 149.601 45.0576 149.42 44.9246 149.296C44.7916 149.173 44.6143 149.111 44.3926 149.111C44.29 149.111 44.1955 149.126 44.1091 149.156C44.0228 149.184 43.9446 149.225 43.8746 149.279C43.807 149.33 43.7498 149.391 43.7031 149.461C43.6565 149.531 43.6215 149.608 43.5981 149.692C43.5585 149.799 43.506 149.87 43.4406 149.905C43.3776 149.94 43.2878 149.949 43.1711 149.93L42.7161 149.849Z" fill="white"/>
<rect x="51.5" y="200" width="14.5" height="6" fill="#2F1C04"/>
<rect x="51.5" y="200" width="14.5" height="6" stroke="#2F1C04"/>
<path d="M59.4171 202.969C59.4171 203.34 59.3553 203.681 59.2316 203.991C59.108 204.302 58.9341 204.569 58.7101 204.793C58.4861 205.017 58.2166 205.191 57.9016 205.314C57.5866 205.438 57.2366 205.5 56.8516 205.5H54.9231V200.439H56.8516C57.2366 200.439 57.5866 200.502 57.9016 200.628C58.2166 200.752 58.4861 200.925 58.7101 201.149C58.9341 201.371 59.108 201.637 59.2316 201.947C59.3553 202.258 59.4171 202.598 59.4171 202.969ZM58.4511 202.969C58.4511 202.692 58.4138 202.443 58.3391 202.224C58.2668 202.002 58.1606 201.816 58.0206 201.664C57.883 201.51 57.715 201.392 57.5166 201.31C57.3206 201.229 57.099 201.188 56.8516 201.188H55.8681V204.751H56.8516C57.099 204.751 57.3206 204.71 57.5166 204.628C57.715 204.547 57.883 204.43 58.0206 204.278C58.1606 204.124 58.2668 203.938 58.3391 203.718C58.4138 203.497 58.4511 203.247 58.4511 202.969ZM63.2023 204.852V205.5H60.4023V204.852H61.4278V201.902C61.4278 201.785 61.4313 201.665 61.4383 201.541L60.7103 202.15C60.6683 202.183 60.6263 202.204 60.5843 202.213C60.5447 202.22 60.5062 202.22 60.4688 202.213C60.4338 202.206 60.4023 202.195 60.3743 202.178C60.3463 202.16 60.3253 202.14 60.3113 202.119L60.0383 201.744L61.5818 200.432H62.2923V204.852H63.2023Z" fill="white"/>
<rect x="68" y="252" width="14.5" height="6" fill="#2F1C04"/>
<rect x="68" y="252" width="14.5" height="6" stroke="#2F1C04"/>
<path d="M75.9171 254.969C75.9171 255.34 75.8553 255.681 75.7316 255.991C75.608 256.302 75.4341 256.569 75.2101 256.793C74.9861 257.017 74.7166 257.191 74.4016 257.314C74.0866 257.438 73.7366 257.5 73.3516 257.5H71.4231V252.439H73.3516C73.7366 252.439 74.0866 252.502 74.4016 252.628C74.7166 252.752 74.9861 252.925 75.2101 253.149C75.4341 253.371 75.608 253.637 75.7316 253.947C75.8553 254.258 75.9171 254.598 75.9171 254.969ZM74.9511 254.969C74.9511 254.692 74.9138 254.443 74.8391 254.224C74.7668 254.002 74.6606 253.816 74.5206 253.664C74.383 253.51 74.215 253.392 74.0166 253.31C73.8206 253.229 73.599 253.188 73.3516 253.188H72.3681V256.751H73.3516C73.599 256.751 73.8206 256.71 74.0166 256.628C74.215 256.547 74.383 256.43 74.5206 256.278C74.6606 256.124 74.7668 255.938 74.8391 255.718C74.9138 255.497 74.9511 255.247 74.9511 254.969ZM79.5133 256.695C79.6067 256.695 79.6802 256.722 79.7338 256.775C79.7898 256.827 79.8178 256.896 79.8178 256.982V257.5H76.3458V257.213C76.3458 257.155 76.3575 257.094 76.3808 257.031C76.4065 256.966 76.4462 256.907 76.4998 256.856L78.0363 255.316C78.1647 255.185 78.279 255.06 78.3793 254.941C78.482 254.822 78.5672 254.705 78.6348 254.588C78.7025 254.471 78.7538 254.353 78.7888 254.234C78.8262 254.113 78.8448 253.986 78.8448 253.853C78.8448 253.732 78.8273 253.625 78.7923 253.534C78.7573 253.441 78.7072 253.363 78.6418 253.3C78.5788 253.237 78.5018 253.19 78.4108 253.16C78.3222 253.127 78.2218 253.111 78.1098 253.111C78.0072 253.111 77.9115 253.126 77.8228 253.156C77.7365 253.184 77.6595 253.225 77.5918 253.279C77.5242 253.33 77.467 253.391 77.4203 253.461C77.3737 253.531 77.3387 253.608 77.3153 253.692C77.2757 253.799 77.2243 253.87 77.1613 253.905C77.0983 253.94 77.0073 253.949 76.8883 253.93L76.4333 253.849C76.4683 253.607 76.536 253.394 76.6363 253.212C76.7367 253.028 76.8615 252.875 77.0108 252.754C77.1625 252.63 77.3352 252.538 77.5288 252.477C77.7248 252.414 77.9348 252.383 78.1588 252.383C78.3922 252.383 78.6057 252.418 78.7993 252.488C78.993 252.556 79.1587 252.652 79.2963 252.778C79.434 252.904 79.5413 253.056 79.6183 253.233C79.6953 253.411 79.7338 253.608 79.7338 253.825C79.7338 254.012 79.7058 254.184 79.6498 254.343C79.5962 254.502 79.5227 254.653 79.4293 254.798C79.3383 254.943 79.231 255.083 79.1073 255.218C78.9837 255.353 78.8542 255.491 78.7188 255.631L77.5778 256.796C77.6875 256.764 77.796 256.739 77.9033 256.723C78.013 256.704 78.1168 256.695 78.2148 256.695H79.5133Z" fill="white"/>
<rect x="84.5" y="304" width="14.5" height="6" fill="#2F1C04"/>
<rect x="84.5" y="304" width="14.5" height="6" stroke="#2F1C04"/>
<path d="M90.4924 308.723V309.5H87.5279V304.439H88.4694V308.723H90.4924ZM90.4303 307.025H92.2433V307.746H90.4303V307.025ZM94.6306 306.847C94.8079 306.847 94.9619 306.825 95.0926 306.78C95.2256 306.736 95.3341 306.675 95.4181 306.598C95.5044 306.519 95.5686 306.426 95.6106 306.318C95.6526 306.211 95.6736 306.093 95.6736 305.965C95.6736 305.708 95.5884 305.511 95.4181 305.373C95.2501 305.236 94.9922 305.167 94.6446 305.167H94.0426V306.847H94.6306ZM97.0526 309.5H96.2021C96.0411 309.5 95.9244 309.437 95.8521 309.311L94.7881 307.69C94.7484 307.63 94.7041 307.587 94.6551 307.561C94.6084 307.535 94.5384 307.523 94.4451 307.523H94.0426V309.5H93.1011V304.439H94.6446C94.9876 304.439 95.2816 304.475 95.5266 304.547C95.7739 304.617 95.9757 304.717 96.1321 304.845C96.2907 304.973 96.4074 305.127 96.4821 305.307C96.5567 305.484 96.5941 305.68 96.5941 305.895C96.5941 306.065 96.5684 306.226 96.5171 306.378C96.4681 306.53 96.3957 306.667 96.3001 306.791C96.2067 306.915 96.0901 307.023 95.9501 307.116C95.8124 307.21 95.6549 307.283 95.4776 307.337C95.5382 307.372 95.5942 307.414 95.6456 307.463C95.6969 307.51 95.7436 307.566 95.7856 307.631L97.0526 309.5Z" fill="white"/>
<rect x="101" y="356" width="18" height="6" fill="#2F1C04"/>
<rect x="101" y="356" width="18" height="6" stroke="#2F1C04"/>
<path d="M103.726 358.847C103.903 358.847 104.057 358.825 104.188 358.78C104.321 358.736 104.43 358.675 104.514 358.598C104.6 358.519 104.664 358.426 104.706 358.318C104.748 358.211 104.769 358.093 104.769 357.965C104.769 357.708 104.684 357.511 104.514 357.373C104.346 357.236 104.088 357.167 103.74 357.167H103.138V358.847H103.726ZM106.148 361.5H105.298C105.137 361.5 105.02 361.437 104.948 361.311L103.884 359.69C103.844 359.63 103.8 359.587 103.751 359.561C103.704 359.535 103.634 359.523 103.541 359.523H103.138V361.5H102.197V356.439H103.74C104.083 356.439 104.377 356.475 104.622 356.547C104.869 356.617 105.071 356.717 105.228 356.845C105.386 356.973 105.503 357.127 105.578 357.307C105.652 357.484 105.69 357.68 105.69 357.895C105.69 358.065 105.664 358.226 105.613 358.378C105.564 358.53 105.491 358.667 105.396 358.791C105.302 358.915 105.186 359.023 105.046 359.116C104.908 359.21 104.75 359.283 104.573 359.337C104.634 359.372 104.69 359.414 104.741 359.463C104.792 359.51 104.839 359.566 104.881 359.631L106.148 361.5ZM107.535 361.5H106.59V356.439H107.535V361.5ZM112.829 356.439V361.5H112.346C112.272 361.5 112.209 361.488 112.157 361.465C112.108 361.439 112.06 361.397 112.014 361.339L109.371 357.965C109.385 358.119 109.392 358.261 109.392 358.392V361.5H108.563V356.439H109.056C109.096 356.439 109.13 356.441 109.158 356.446C109.188 356.448 109.214 356.455 109.235 356.467C109.258 356.476 109.28 356.491 109.301 356.512C109.322 356.531 109.346 356.557 109.371 356.589L112.024 359.977C112.017 359.896 112.011 359.815 112.007 359.736C112.002 359.657 112 359.583 112 359.515V356.439H112.829ZM118.023 358.962V361.01C117.767 361.199 117.492 361.338 117.201 361.426C116.911 361.513 116.601 361.556 116.27 361.556C115.857 361.556 115.482 361.492 115.146 361.363C114.813 361.235 114.527 361.057 114.289 360.828C114.053 360.599 113.871 360.326 113.743 360.009C113.614 359.692 113.55 359.345 113.55 358.969C113.55 358.589 113.612 358.24 113.736 357.923C113.859 357.606 114.034 357.333 114.261 357.104C114.489 356.875 114.766 356.698 115.09 356.572C115.415 356.446 115.779 356.383 116.182 356.383C116.388 356.383 116.579 356.399 116.756 356.432C116.936 356.465 117.102 356.51 117.253 356.568C117.407 356.624 117.547 356.693 117.673 356.775C117.799 356.857 117.915 356.946 118.02 357.044L117.75 357.471C117.708 357.539 117.653 357.581 117.586 357.597C117.518 357.611 117.445 357.594 117.365 357.545C117.288 357.501 117.211 357.456 117.134 357.412C117.057 357.368 116.971 357.329 116.875 357.296C116.782 357.264 116.676 357.237 116.557 357.216C116.44 357.195 116.305 357.184 116.151 357.184C115.901 357.184 115.675 357.226 115.472 357.31C115.271 357.394 115.1 357.515 114.957 357.671C114.815 357.827 114.705 358.015 114.628 358.234C114.551 358.454 114.513 358.699 114.513 358.969C114.513 359.259 114.554 359.518 114.635 359.746C114.719 359.973 114.836 360.165 114.985 360.324C115.137 360.48 115.319 360.6 115.531 360.684C115.744 360.766 115.98 360.807 116.242 360.807C116.428 360.807 116.595 360.787 116.742 360.747C116.889 360.708 117.033 360.654 117.173 360.586V359.669H116.536C116.475 359.669 116.427 359.653 116.392 359.62C116.36 359.585 116.343 359.543 116.343 359.494V358.962H118.023Z" fill="white"/>
<rect x="121.5" y="408" width="10" height="6" fill="#2F1C04"/>
<rect x="121.5" y="408" width="10" height="6" stroke="#2F1C04"/>
<path fill-rule="evenodd" clip-rule="evenodd" d="M125 411.5V413.5L122 411L125 408.5V410.5H128V408.5L131 411L128 413.5V411.5H125Z" fill="white"/>
</svg>
