<svg width="45" height="18" viewBox="0 0 45 18" fill="none" xmlns="http://www.w3.org/2000/svg">
<rect x="0.5" y="0.5" width="44" height="8" fill="#2F1C04"/>
<rect x="0.5" y="0.5" width="44" height="8" stroke="#2F1C04"/>
<path d="M3.95641 4.64H4.20841C4.30974 4.64 4.39374 4.62667 4.46041 4.6C4.52707 4.57067 4.58441 4.52533 4.63241 4.464L6.22841 2.444C6.29507 2.35867 6.36441 2.3 6.43641 2.268C6.51107 2.23333 6.60441 2.216 6.71641 2.216H7.64441L5.69641 4.62C5.58174 4.76667 5.46307 4.87067 5.34041 4.932C5.42841 4.964 5.50707 5.00933 5.57641 5.068C5.64841 5.124 5.71641 5.19867 5.78041 5.292L7.78841 8H6.84041C6.71241 8 6.61641 7.98267 6.55241 7.948C6.49107 7.91067 6.43907 7.85733 6.39641 7.788L4.76041 5.652C4.70974 5.58 4.65107 5.52933 4.58441 5.5C4.51774 5.47067 4.42174 5.456 4.29641 5.456H3.95641V8H2.88041V2.216H3.95641V4.64ZM9.32478 3.072V4.676H11.3488V5.504H9.32478V7.14H11.8928V8H8.24478V2.216H11.8928V3.072H9.32478ZM15.2103 5.76V8H14.1383V5.76L12.0303 2.216H12.9783C13.0717 2.216 13.145 2.23867 13.1983 2.284C13.2543 2.32933 13.301 2.38667 13.3383 2.456L14.3943 4.388C14.4557 4.50267 14.509 4.61067 14.5543 4.712C14.6023 4.81333 14.645 4.91467 14.6823 5.016C14.717 4.91467 14.757 4.81333 14.8023 4.712C14.8477 4.61067 14.8997 4.50267 14.9583 4.388L16.0103 2.456C16.0397 2.39733 16.0837 2.34267 16.1423 2.292C16.201 2.24133 16.2757 2.216 16.3663 2.216H17.3183L15.2103 5.76ZM21.8338 3.1H20.0898V8H19.0138V3.1H17.2698V2.216H21.8338V3.1ZM24.2187 4.968C24.4214 4.968 24.5974 4.94267 24.7467 4.892C24.8987 4.84133 25.0227 4.772 25.1187 4.684C25.2174 4.59333 25.2907 4.48667 25.3387 4.364C25.3867 4.24133 25.4107 4.10667 25.4107 3.96C25.4107 3.66667 25.3134 3.44133 25.1187 3.284C24.9267 3.12667 24.6321 3.048 24.2347 3.048H23.5467V4.968H24.2187ZM26.9867 8H26.0147C25.8307 8 25.6974 7.928 25.6147 7.784L24.3987 5.932C24.3534 5.86267 24.3027 5.81333 24.2467 5.784C24.1934 5.75467 24.1134 5.74 24.0067 5.74H23.5467V8H22.4707V2.216H24.2347C24.6267 2.216 24.9627 2.25733 25.2427 2.34C25.5254 2.42 25.7561 2.53333 25.9347 2.68C26.1161 2.82667 26.2494 3.00267 26.3347 3.208C26.4201 3.41067 26.4627 3.63467 26.4627 3.88C26.4627 4.07467 26.4334 4.25867 26.3747 4.432C26.3187 4.60533 26.2361 4.76267 26.1267 4.904C26.0201 5.04533 25.8867 5.16933 25.7267 5.276C25.5694 5.38267 25.3894 5.46667 25.1867 5.528C25.2561 5.568 25.3201 5.616 25.3787 5.672C25.4374 5.72533 25.4907 5.78933 25.5387 5.864L26.9867 8ZM30.5473 5.816L29.8433 3.892C29.8087 3.80667 29.7727 3.70533 29.7353 3.588C29.698 3.47067 29.6607 3.344 29.6233 3.208C29.5887 3.344 29.5527 3.472 29.5153 3.592C29.478 3.70933 29.442 3.812 29.4073 3.9L28.7073 5.816H30.5473ZM32.4473 8H31.6153C31.522 8 31.446 7.97733 31.3873 7.932C31.3287 7.884 31.2847 7.82533 31.2553 7.756L30.8233 6.576H28.4273L27.9953 7.756C27.974 7.81733 27.9327 7.87333 27.8713 7.924C27.81 7.97467 27.734 8 27.6433 8H26.8033L29.0793 2.216H30.1753L32.4473 8ZM36.7262 6.636C36.7848 6.636 36.8368 6.65867 36.8822 6.704L37.3062 7.164C37.0715 7.45467 36.7822 7.67733 36.4382 7.832C36.0968 7.98667 35.6862 8.064 35.2062 8.064C34.7768 8.064 34.3902 7.99067 34.0462 7.844C33.7048 7.69733 33.4128 7.49333 33.1702 7.232C32.9275 6.97067 32.7408 6.65867 32.6102 6.296C32.4822 5.93333 32.4182 5.53733 32.4182 5.108C32.4182 4.67333 32.4875 4.276 32.6262 3.916C32.7648 3.55333 32.9595 3.24133 33.2102 2.98C33.4635 2.71867 33.7648 2.516 34.1142 2.372C34.4635 2.22533 34.8502 2.152 35.2742 2.152C35.6955 2.152 36.0688 2.22133 36.3942 2.36C36.7222 2.49867 37.0008 2.68 37.2302 2.904L36.8702 3.404C36.8488 3.436 36.8208 3.464 36.7862 3.488C36.7542 3.512 36.7088 3.524 36.6502 3.524C36.6102 3.524 36.5688 3.51333 36.5262 3.492C36.4835 3.468 36.4368 3.44 36.3862 3.408C36.3355 3.37333 36.2768 3.336 36.2102 3.296C36.1435 3.256 36.0662 3.22 35.9782 3.188C35.8902 3.15333 35.7875 3.12533 35.6702 3.104C35.5555 3.08 35.4222 3.068 35.2702 3.068C35.0115 3.068 34.7742 3.11467 34.5582 3.208C34.3448 3.29867 34.1608 3.432 34.0062 3.608C33.8515 3.78133 33.7315 3.99467 33.6462 4.248C33.5608 4.49867 33.5182 4.78533 33.5182 5.108C33.5182 5.43333 33.5635 5.72267 33.6542 5.976C33.7475 6.22933 33.8728 6.44267 34.0302 6.616C34.1875 6.78933 34.3728 6.92267 34.5862 7.016C34.7995 7.10667 35.0288 7.152 35.2742 7.152C35.4208 7.152 35.5528 7.144 35.6702 7.128C35.7902 7.112 35.8995 7.08667 35.9982 7.052C36.0995 7.01733 36.1942 6.97333 36.2822 6.92C36.3728 6.864 36.4622 6.796 36.5502 6.716C36.5768 6.692 36.6048 6.67333 36.6342 6.66C36.6635 6.644 36.6942 6.636 36.7262 6.636ZM38.9992 4.64H39.2512C39.3526 4.64 39.4366 4.62667 39.5032 4.6C39.5699 4.57067 39.6272 4.52533 39.6752 4.464L41.2712 2.444C41.3379 2.35867 41.4072 2.3 41.4792 2.268C41.5539 2.23333 41.6472 2.216 41.7592 2.216H42.6872L40.7392 4.62C40.6246 4.76667 40.5059 4.87067 40.3832 4.932C40.4712 4.964 40.5499 5.00933 40.6192 5.068C40.6912 5.124 40.7592 5.19867 40.8232 5.292L42.8312 8H41.8832C41.7552 8 41.6592 7.98267 41.5952 7.948C41.5339 7.91067 41.4819 7.85733 41.4392 7.788L39.8032 5.652C39.7526 5.58 39.6939 5.52933 39.6272 5.5C39.5606 5.47067 39.4646 5.456 39.3392 5.456H38.9992V8H37.9232V2.216H38.9992V4.64Z" fill="white"/>
<rect x="0.5" y="9.5" width="44" height="8" fill="#FF9300"/>
<rect x="0.5" y="9.5" width="44" height="8" stroke="#FF9300"/>
<path d="M3.95641 13.64H4.20841C4.30974 13.64 4.39374 13.6267 4.46041 13.6C4.52707 13.5707 4.58441 13.5253 4.63241 13.464L6.22841 11.444C6.29507 11.3587 6.36441 11.3 6.43641 11.268C6.51107 11.2333 6.60441 11.216 6.71641 11.216H7.64441L5.69641 13.62C5.58174 13.7667 5.46307 13.8707 5.34041 13.932C5.42841 13.964 5.50707 14.0093 5.57641 14.068C5.64841 14.124 5.71641 14.1987 5.78041 14.292L7.78841 17H6.84041C6.71241 17 6.61641 16.9827 6.55241 16.948C6.49107 16.9107 6.43907 16.8573 6.39641 16.788L4.76041 14.652C4.70974 14.58 4.65107 14.5293 4.58441 14.5C4.51774 14.4707 4.42174 14.456 4.29641 14.456H3.95641V17H2.88041V11.216H3.95641V13.64ZM9.32478 12.072V13.676H11.3488V14.504H9.32478V16.14H11.8928V17H8.24478V11.216H11.8928V12.072H9.32478ZM15.2103 14.76V17H14.1383V14.76L12.0303 11.216H12.9783C13.0717 11.216 13.145 11.2387 13.1983 11.284C13.2543 11.3293 13.301 11.3867 13.3383 11.456L14.3943 13.388C14.4557 13.5027 14.509 13.6107 14.5543 13.712C14.6023 13.8133 14.645 13.9147 14.6823 14.016C14.717 13.9147 14.757 13.8133 14.8023 13.712C14.8477 13.6107 14.8997 13.5027 14.9583 13.388L16.0103 11.456C16.0397 11.3973 16.0837 11.3427 16.1423 11.292C16.201 11.2413 16.2757 11.216 16.3663 11.216H17.3183L15.2103 14.76ZM21.8338 12.1H20.0898V17H19.0138V12.1H17.2698V11.216H21.8338V12.1ZM24.2187 13.968C24.4214 13.968 24.5974 13.9427 24.7467 13.892C24.8987 13.8413 25.0227 13.772 25.1187 13.684C25.2174 13.5933 25.2907 13.4867 25.3387 13.364C25.3867 13.2413 25.4107 13.1067 25.4107 12.96C25.4107 12.6667 25.3134 12.4413 25.1187 12.284C24.9267 12.1267 24.6321 12.048 24.2347 12.048H23.5467V13.968H24.2187ZM26.9867 17H26.0147C25.8307 17 25.6974 16.928 25.6147 16.784L24.3987 14.932C24.3534 14.8627 24.3027 14.8133 24.2467 14.784C24.1934 14.7547 24.1134 14.74 24.0067 14.74H23.5467V17H22.4707V11.216H24.2347C24.6267 11.216 24.9627 11.2573 25.2427 11.34C25.5254 11.42 25.7561 11.5333 25.9347 11.68C26.1161 11.8267 26.2494 12.0027 26.3347 12.208C26.4201 12.4107 26.4627 12.6347 26.4627 12.88C26.4627 13.0747 26.4334 13.2587 26.3747 13.432C26.3187 13.6053 26.2361 13.7627 26.1267 13.904C26.0201 14.0453 25.8867 14.1693 25.7267 14.276C25.5694 14.3827 25.3894 14.4667 25.1867 14.528C25.2561 14.568 25.3201 14.616 25.3787 14.672C25.4374 14.7253 25.4907 14.7893 25.5387 14.864L26.9867 17ZM30.5473 14.816L29.8433 12.892C29.8087 12.8067 29.7727 12.7053 29.7353 12.588C29.698 12.4707 29.6607 12.344 29.6233 12.208C29.5887 12.344 29.5527 12.472 29.5153 12.592C29.478 12.7093 29.442 12.812 29.4073 12.9L28.7073 14.816H30.5473ZM32.4473 17H31.6153C31.522 17 31.446 16.9773 31.3873 16.932C31.3287 16.884 31.2847 16.8253 31.2553 16.756L30.8233 15.576H28.4273L27.9953 16.756C27.974 16.8173 27.9327 16.8733 27.8713 16.924C27.81 16.9747 27.734 17 27.6433 17H26.8033L29.0793 11.216H30.1753L32.4473 17ZM36.7262 15.636C36.7848 15.636 36.8368 15.6587 36.8822 15.704L37.3062 16.164C37.0715 16.4547 36.7822 16.6773 36.4382 16.832C36.0968 16.9867 35.6862 17.064 35.2062 17.064C34.7768 17.064 34.3902 16.9907 34.0462 16.844C33.7048 16.6973 33.4128 16.4933 33.1702 16.232C32.9275 15.9707 32.7408 15.6587 32.6102 15.296C32.4822 14.9333 32.4182 14.5373 32.4182 14.108C32.4182 13.6733 32.4875 13.276 32.6262 12.916C32.7648 12.5533 32.9595 12.2413 33.2102 11.98C33.4635 11.7187 33.7648 11.516 34.1142 11.372C34.4635 11.2253 34.8502 11.152 35.2742 11.152C35.6955 11.152 36.0688 11.2213 36.3942 11.36C36.7222 11.4987 37.0008 11.68 37.2302 11.904L36.8702 12.404C36.8488 12.436 36.8208 12.464 36.7862 12.488C36.7542 12.512 36.7088 12.524 36.6502 12.524C36.6102 12.524 36.5688 12.5133 36.5262 12.492C36.4835 12.468 36.4368 12.44 36.3862 12.408C36.3355 12.3733 36.2768 12.336 36.2102 12.296C36.1435 12.256 36.0662 12.22 35.9782 12.188C35.8902 12.1533 35.7875 12.1253 35.6702 12.104C35.5555 12.08 35.4222 12.068 35.2702 12.068C35.0115 12.068 34.7742 12.1147 34.5582 12.208C34.3448 12.2987 34.1608 12.432 34.0062 12.608C33.8515 12.7813 33.7315 12.9947 33.6462 13.248C33.5608 13.4987 33.5182 13.7853 33.5182 14.108C33.5182 14.4333 33.5635 14.7227 33.6542 14.976C33.7475 15.2293 33.8728 15.4427 34.0302 15.616C34.1875 15.7893 34.3728 15.9227 34.5862 16.016C34.7995 16.1067 35.0288 16.152 35.2742 16.152C35.4208 16.152 35.5528 16.144 35.6702 16.128C35.7902 16.112 35.8995 16.0867 35.9982 16.052C36.0995 16.0173 36.1942 15.9733 36.2822 15.92C36.3728 15.864 36.4622 15.796 36.5502 15.716C36.5768 15.692 36.6048 15.6733 36.6342 15.66C36.6635 15.644 36.6942 15.636 36.7262 15.636ZM38.9992 13.64H39.2512C39.3526 13.64 39.4366 13.6267 39.5032 13.6C39.5699 13.5707 39.6272 13.5253 39.6752 13.464L41.2712 11.444C41.3379 11.3587 41.4072 11.3 41.4792 11.268C41.5539 11.2333 41.6472 11.216 41.7592 11.216H42.6872L40.7392 13.62C40.6246 13.7667 40.5059 13.8707 40.3832 13.932C40.4712 13.964 40.5499 14.0093 40.6192 14.068C40.6912 14.124 40.7592 14.1987 40.8232 14.292L42.8312 17H41.8832C41.7552 17 41.6592 16.9827 41.5952 16.948C41.5339 16.9107 41.4819 16.8573 41.4392 16.788L39.8032 14.652C39.7526 14.58 39.6939 14.5293 39.6272 14.5C39.5606 14.4707 39.4646 14.456 39.3392 14.456H38.9992V17H37.9232V11.216H38.9992V13.64Z" fill="white"/>
</svg>
