<?xml version="1.0" encoding="utf-8"?>
<svg width="37px" height="24px" viewBox="0 0 37 24" version="1.1" xmlns="http://www.w3.org/2000/svg">
  <title>bmp00149</title>
  <desc>Created with Sketch.</desc>
  <g id="bmp00149" stroke="#ffccaa" stroke-width="1" fill="none" fill-rule="evenodd">
    <g id="Group-3" transform="translate(5.000000, 2.000000)" fill="#000000">
      <g id="Group-2" transform="translate(4.500000, 4.000000) scale(-1, 1) translate(-4.500000, -4.000000) translate(0.000000, 0.500000)">
        <path d="M4,4.5 L0,4.5 L0,2.5 L4,2.5 L4,0.5 L9,3.5 L4,6.5 L4,4.5 Z" id="Combined-Shape"/>
      </g>
    </g>
    <g id="Group-3" transform="translate(5.000000, 14.000000)" fill="#000000">
      <g id="Group-2" transform="translate(18.000000, 0.500000)">
        <path d="M4,4.5 L0,4.5 L0,2.5 L4,2.5 L4,0.5 L8.73684211,3.5 L4,6.5 L4,4.5 Z" id="Combined-Shape"/>
      </g>
    </g>
  </g>
  <g id="g-1" stroke="none" stroke-width="1" fill="none" fill-rule="evenodd" transform="">
    <g id="g-2" transform="translate(5.000000, 2.000000)" fill="#000000">
      <g id="g-3" transform="translate(4.500000, 4.000000) scale(-1, 1) translate(-4.500000, -4.000000) translate(0.000000, 0.500000)">
        <path d="M4,4.5 L0,4.5 L0,2.5 L4,2.5 L4,0.5 L9,3.5 L4,6.5 L4,4.5 Z" id="path-1"/>
      </g>
    </g>
    <g id="g-2" transform="translate(5.000000, 14.000000)" fill="#000000">
      <g id="g-3" transform="translate(18.000000, 0.500000)">
        <path d="M4,4.5 L0,4.5 L0,2.5 L4,2.5 L4,0.5 L8.73684211,3.5 L4,6.5 L4,4.5 Z" id="path-1"/>
      </g>
    </g>
  </g>
</svg>