<?xml version="1.0" encoding="utf-8"?>
<svg width="28px" height="282px" viewBox="0 0 28 282" version="1.1" xmlns="http://www.w3.org/2000/svg">
  <title>bmp00120</title>
  <desc>Created with Sketch.</desc>
  <g id="bmp00120" stroke="#FFFFFF" stroke-width="1" fill="none" fill-rule="evenodd">
    <path d="M 12.084 3.5 C 12.084 3.859 12.023 4.191 11.902 4.496 C 11.78 4.802 11.609 5.066 11.387 5.29 C 11.164 5.513 10.897 5.687 10.585 5.812 C 10.273 5.937 9.926 6 9.544 6 C 9.164 6 8.818 5.937 8.506 5.812 C 8.194 5.687 7.926 5.513 7.703 5.29 C 7.479 5.066 7.307 4.802 7.184 4.496 C 7.061 4.191 7 3.859 7 3.5 C 7 3.141 7.061 2.809 7.184 2.504 C 7.307 2.198 7.479 1.934 7.703 1.71 C 7.926 1.487 8.194 1.313 8.506 1.188 C 8.818 1.063 9.164 1 9.544 1 C 9.798 1 10.038 1.029 10.262 1.086 C 10.487 1.144 10.692 1.225 10.88 1.33 C 11.067 1.435 11.236 1.562 11.385 1.712 C 11.534 1.862 11.661 2.03 11.765 2.214 C 11.869 2.399 11.948 2.6 12.003 2.817 C 12.057 3.033 12.084 3.261 12.084 3.5 Z M 11.13 3.5 C 11.13 3.232 11.093 2.991 11.019 2.778 C 10.945 2.565 10.839 2.384 10.703 2.235 C 10.566 2.086 10.4 1.972 10.205 1.893 C 10.009 1.814 9.789 1.775 9.544 1.775 C 9.299 1.775 9.078 1.814 8.883 1.893 C 8.687 1.972 8.521 2.086 8.383 2.235 C 8.245 2.384 8.139 2.565 8.065 2.778 C 7.991 2.991 7.954 3.232 7.954 3.5 C 7.954 3.768 7.991 4.009 8.065 4.222 C 8.139 4.435 8.245 4.616 8.383 4.764 C 8.521 4.911 8.687 5.025 8.883 5.104 C 9.078 5.182 9.299 5.222 9.544 5.222 C 9.789 5.222 10.009 5.182 10.205 5.104 C 10.4 5.025 10.566 4.911 10.703 4.764 C 10.839 4.616 10.945 4.435 11.019 4.222 C 11.093 4.009 11.13 3.768 11.13 3.5 Z M 13.844 1.778 L 13.844 3.226 L 15.725 3.226 L 15.725 3.953 L 13.844 3.953 L 13.844 5.946 L 12.907 5.946 L 12.907 1.054 L 16.072 1.054 L 16.072 1.778 L 13.844 1.778 Z M 17.772 1.778 L 17.772 3.226 L 19.653 3.226 L 19.653 3.953 L 17.772 3.953 L 17.772 5.946 L 16.835 5.946 L 16.835 1.054 L 20 1.054 L 20 1.778 L 17.772 1.778 Z" id="OFF" fill="#1E1E1E" fill-rule="nonzero"/>
    <path d="M 8.027 56.944 C 8 56.991 7.971 57.026 7.94 57.047 C 7.909 57.068 7.871 57.079 7.825 57.079 C 7.777 57.079 7.726 57.062 7.67 57.027 C 7.614 56.992 7.547 56.953 7.47 56.91 C 7.392 56.867 7.301 56.828 7.198 56.793 C 7.094 56.758 6.971 56.741 6.83 56.741 C 6.702 56.741 6.591 56.756 6.495 56.787 C 6.399 56.817 6.319 56.859 6.254 56.913 C 6.189 56.968 6.14 57.032 6.108 57.108 C 6.076 57.183 6.06 57.266 6.06 57.357 C 6.06 57.472 6.093 57.567 6.158 57.644 C 6.223 57.721 6.309 57.786 6.416 57.84 C 6.523 57.894 6.645 57.943 6.782 57.986 C 6.919 58.029 7.059 58.074 7.203 58.123 C 7.346 58.171 7.487 58.228 7.624 58.292 C 7.76 58.356 7.882 58.437 7.99 58.536 C 8.097 58.634 8.183 58.754 8.248 58.896 C 8.313 59.038 8.345 59.21 8.345 59.413 C 8.345 59.634 8.307 59.841 8.231 60.034 C 8.154 60.227 8.043 60.395 7.895 60.538 C 7.748 60.681 7.569 60.794 7.357 60.877 C 7.145 60.959 6.902 61 6.628 61 C 6.471 61 6.316 60.985 6.163 60.954 C 6.01 60.924 5.864 60.88 5.723 60.824 C 5.583 60.768 5.452 60.7 5.328 60.621 C 5.205 60.542 5.096 60.454 5 60.357 L 5.27 59.921 C 5.293 59.889 5.323 59.863 5.359 59.841 C 5.396 59.82 5.434 59.809 5.475 59.809 C 5.532 59.809 5.594 59.832 5.66 59.879 C 5.726 59.925 5.805 59.976 5.896 60.032 C 5.987 60.089 6.094 60.14 6.216 60.186 C 6.338 60.233 6.485 60.256 6.656 60.256 C 6.918 60.256 7.121 60.194 7.264 60.071 C 7.408 59.948 7.48 59.772 7.48 59.542 C 7.48 59.413 7.447 59.309 7.382 59.227 C 7.317 59.146 7.231 59.078 7.124 59.023 C 7.017 58.967 6.895 58.921 6.758 58.882 C 6.621 58.844 6.482 58.802 6.341 58.757 C 6.199 58.712 6.06 58.658 5.924 58.595 C 5.787 58.532 5.665 58.449 5.558 58.348 C 5.45 58.246 5.364 58.119 5.299 57.967 C 5.234 57.815 5.202 57.627 5.202 57.404 C 5.202 57.226 5.238 57.052 5.31 56.883 C 5.381 56.714 5.486 56.564 5.623 56.433 C 5.759 56.302 5.928 56.197 6.129 56.118 C 6.329 56.039 6.56 56 6.82 56 C 7.112 56 7.381 56.045 7.627 56.135 C 7.873 56.226 8.083 56.352 8.256 56.514 L 8.027 56.944 Z M 13.863 58.5 C 13.863 58.859 13.803 59.191 13.683 59.496 C 13.563 59.802 13.394 60.066 13.175 60.29 C 12.956 60.513 12.693 60.687 12.385 60.812 C 12.077 60.937 11.735 61 11.359 61 C 10.985 61 10.644 60.937 10.336 60.812 C 10.028 60.687 9.764 60.513 9.544 60.29 C 9.324 60.066 9.154 59.802 9.033 59.496 C 8.912 59.191 8.852 58.859 8.852 58.5 C 8.852 58.141 8.912 57.809 9.033 57.504 C 9.154 57.198 9.324 56.934 9.544 56.71 C 9.764 56.487 10.028 56.313 10.336 56.188 C 10.644 56.063 10.985 56 11.359 56 C 11.61 56 11.846 56.029 12.067 56.086 C 12.288 56.144 12.491 56.225 12.676 56.33 C 12.86 56.435 13.026 56.562 13.173 56.712 C 13.32 56.862 13.445 57.03 13.548 57.214 C 13.651 57.399 13.729 57.6 13.782 57.817 C 13.836 58.033 13.863 58.261 13.863 58.5 Z M 12.922 58.5 C 12.922 58.232 12.885 57.991 12.812 57.778 C 12.74 57.565 12.636 57.384 12.501 57.235 C 12.367 57.086 12.203 56.972 12.01 56.893 C 11.818 56.814 11.6 56.775 11.359 56.775 C 11.117 56.775 10.9 56.814 10.707 56.893 C 10.514 56.972 10.35 57.086 10.215 57.235 C 10.079 57.384 9.975 57.565 9.902 57.778 C 9.829 57.991 9.792 58.232 9.792 58.5 C 9.792 58.768 9.829 59.009 9.902 59.222 C 9.975 59.435 10.079 59.616 10.215 59.764 C 10.35 59.911 10.514 60.025 10.707 60.104 C 10.9 60.182 11.117 60.222 11.359 60.222 C 11.6 60.222 11.818 60.182 12.01 60.104 C 12.203 60.025 12.367 59.911 12.501 59.764 C 12.636 59.616 12.74 59.435 12.812 59.222 C 12.885 59.009 12.922 58.768 12.922 58.5 Z M 15.597 56.778 L 15.597 58.226 L 17.451 58.226 L 17.451 58.953 L 15.597 58.953 L 15.597 60.946 L 14.673 60.946 L 14.673 56.054 L 17.793 56.054 L 17.793 56.778 L 15.597 56.778 Z M 22 56.802 L 20.509 56.802 L 20.509 60.946 L 19.589 60.946 L 19.589 56.802 L 18.097 56.802 L 18.097 56.054 L 22 56.054 L 22 56.802 Z" id="SOFT" fill="#1E1E1E" fill-rule="nonzero"/>
    <path d="M 8.211 111 L 8.211 116 L 7.278 116 L 7.278 113.815 L 4.933 113.815 L 4.933 116 L 4 116 L 4 111 L 4.933 111 L 4.933 113.151 L 7.278 113.151 L 7.278 111 L 8.211 111 Z M 11.963 114.112 L 11.355 112.449 C 11.325 112.375 11.294 112.287 11.261 112.186 C 11.229 112.085 11.197 111.975 11.165 111.858 C 11.135 111.975 11.104 112.085 11.071 112.188 C 11.039 112.29 11.008 112.38 10.978 112.456 L 10.374 114.112 L 11.963 114.112 Z M 13.604 116 L 12.885 116 C 12.804 116 12.739 115.98 12.688 115.939 C 12.638 115.899 12.6 115.849 12.574 115.789 L 12.201 114.769 L 10.132 114.769 L 9.759 115.789 C 9.74 115.842 9.705 115.891 9.652 115.934 C 9.599 115.978 9.533 116 9.455 116 L 8.729 116 L 10.695 111 L 11.641 111 L 13.604 116 Z M 15.631 113.379 C 15.806 113.379 15.959 113.357 16.089 113.313 C 16.219 113.269 16.326 113.209 16.41 113.132 C 16.495 113.055 16.557 112.963 16.599 112.857 C 16.64 112.751 16.661 112.634 16.661 112.508 C 16.661 112.254 16.577 112.059 16.41 111.923 C 16.243 111.787 15.988 111.719 15.645 111.719 L 15.051 111.719 L 15.051 113.379 L 15.631 113.379 Z M 18.022 116 L 17.183 116 C 17.024 116 16.908 115.938 16.837 115.813 L 15.787 114.212 C 15.748 114.152 15.705 114.11 15.657 114.084 C 15.61 114.059 15.54 114.046 15.448 114.046 L 15.051 114.046 L 15.051 116 L 14.122 116 L 14.122 111 L 15.645 111 C 15.984 111 16.275 111.035 16.518 111.105 C 16.761 111.176 16.96 111.274 17.115 111.401 C 17.271 111.528 17.385 111.679 17.459 111.856 C 17.533 112.032 17.569 112.226 17.569 112.438 C 17.569 112.607 17.545 112.766 17.495 112.916 C 17.446 113.065 17.374 113.201 17.281 113.324 C 17.188 113.446 17.073 113.553 16.936 113.645 C 16.799 113.737 16.642 113.81 16.467 113.863 C 16.527 113.898 16.583 113.939 16.633 113.986 C 16.684 114.033 16.73 114.089 16.771 114.154 L 18.022 116 Z M 23 113.5 C 23 113.867 22.939 114.203 22.817 114.51 C 22.695 114.816 22.523 115.08 22.302 115.302 C 22.081 115.523 21.815 115.695 21.504 115.817 C 21.193 115.939 20.848 116 20.468 116 L 18.564 116 L 18.564 111 L 20.468 111 C 20.848 111 21.193 111.062 21.504 111.185 C 21.815 111.308 22.081 111.48 22.302 111.7 C 22.523 111.92 22.695 112.184 22.817 112.49 C 22.939 112.797 23 113.133 23 113.5 Z M 22.047 113.5 C 22.047 113.226 22.01 112.98 21.938 112.762 C 21.865 112.544 21.76 112.359 21.623 112.209 C 21.486 112.058 21.321 111.942 21.126 111.861 C 20.931 111.78 20.712 111.74 20.468 111.74 L 19.497 111.74 L 19.497 115.26 L 20.468 115.26 C 20.712 115.26 20.931 115.22 21.126 115.139 C 21.321 115.058 21.486 114.942 21.623 114.791 C 21.76 114.641 21.865 114.456 21.938 114.238 C 22.01 114.02 22.047 113.774 22.047 113.5 Z" id="HARD" fill="#1E1E1E" fill-rule="nonzero"/>
    <path d="M 7.24 169.099 L 6.631 167.472 C 6.601 167.399 6.57 167.314 6.537 167.214 C 6.505 167.115 6.473 167.008 6.44 166.893 C 6.41 167.008 6.379 167.116 6.347 167.216 C 6.315 167.317 6.283 167.404 6.253 167.478 L 5.648 169.099 L 7.24 169.099 Z M 8.884 170.946 L 8.164 170.946 C 8.083 170.946 8.018 170.926 7.967 170.887 C 7.916 170.847 7.878 170.798 7.853 170.74 L 7.479 169.742 L 5.405 169.742 L 5.032 170.74 C 5.013 170.791 4.977 170.839 4.924 170.882 C 4.871 170.924 4.805 170.946 4.727 170.946 L 4 170.946 L 5.97 166.054 L 6.918 166.054 L 8.884 170.946 Z M 12.069 166.944 C 12.041 166.991 12.012 167.026 11.98 167.047 C 11.949 167.068 11.911 167.079 11.864 167.079 C 11.816 167.079 11.763 167.062 11.707 167.027 C 11.65 166.992 11.583 166.953 11.504 166.91 C 11.426 166.867 11.334 166.828 11.229 166.793 C 11.124 166.758 11 166.741 10.857 166.741 C 10.728 166.741 10.615 166.756 10.518 166.787 C 10.421 166.817 10.34 166.859 10.274 166.913 C 10.208 166.968 10.159 167.032 10.127 167.108 C 10.094 167.183 10.078 167.266 10.078 167.357 C 10.078 167.472 10.111 167.567 10.177 167.644 C 10.243 167.721 10.33 167.786 10.438 167.84 C 10.547 167.894 10.67 167.943 10.809 167.986 C 10.947 168.029 11.089 168.074 11.234 168.123 C 11.38 168.171 11.522 168.228 11.66 168.292 C 11.799 168.356 11.922 168.437 12.031 168.536 C 12.139 168.634 12.226 168.754 12.292 168.896 C 12.358 169.038 12.391 169.21 12.391 169.413 C 12.391 169.634 12.352 169.841 12.275 170.034 C 12.197 170.227 12.084 170.395 11.935 170.538 C 11.787 170.681 11.605 170.794 11.39 170.877 C 11.176 170.959 10.93 171 10.653 171 C 10.494 171 10.337 170.985 10.182 170.954 C 10.028 170.924 9.879 170.88 9.737 170.824 C 9.595 170.768 9.462 170.7 9.338 170.621 C 9.213 170.542 9.102 170.454 9.005 170.357 L 9.279 169.921 C 9.302 169.889 9.332 169.863 9.369 169.841 C 9.406 169.82 9.445 169.809 9.486 169.809 C 9.544 169.809 9.606 169.832 9.673 169.879 C 9.74 169.925 9.82 169.976 9.912 170.032 C 10.004 170.089 10.112 170.14 10.236 170.186 C 10.359 170.233 10.508 170.256 10.681 170.256 C 10.946 170.256 11.151 170.194 11.297 170.071 C 11.442 169.948 11.515 169.772 11.515 169.542 C 11.515 169.413 11.482 169.309 11.416 169.227 C 11.35 169.146 11.263 169.078 11.155 169.023 C 11.046 168.967 10.923 168.921 10.784 168.882 C 10.646 168.844 10.505 168.802 10.362 168.757 C 10.219 168.712 10.078 168.658 9.94 168.595 C 9.801 168.532 9.678 168.449 9.57 168.348 C 9.461 168.246 9.374 168.119 9.308 167.967 C 9.242 167.815 9.21 167.627 9.21 167.404 C 9.21 167.226 9.246 167.052 9.319 166.883 C 9.391 166.714 9.497 166.564 9.635 166.433 C 9.774 166.302 9.944 166.197 10.148 166.118 C 10.351 166.039 10.584 166 10.847 166 C 11.142 166 11.414 166.045 11.664 166.135 C 11.913 166.226 12.125 166.352 12.301 166.514 L 12.069 166.944 Z M 15.236 169.051 L 15.236 170.946 L 14.308 170.946 L 14.308 169.051 L 12.484 166.054 L 13.304 166.054 C 13.385 166.054 13.449 166.073 13.497 166.112 C 13.544 166.15 13.584 166.198 13.616 166.257 L 14.53 167.891 C 14.583 167.988 14.63 168.079 14.67 168.165 C 14.71 168.251 14.747 168.336 14.779 168.422 C 14.809 168.336 14.844 168.251 14.883 168.165 C 14.922 168.079 14.967 167.988 15.018 167.891 L 15.928 166.257 C 15.954 166.207 15.992 166.161 16.042 166.118 C 16.093 166.076 16.158 166.054 16.236 166.054 L 17.06 166.054 L 15.236 169.051 Z M 23 166.054 L 23 170.946 L 22.18 170.946 L 22.18 167.786 C 22.18 167.66 22.187 167.523 22.2 167.377 L 20.688 170.154 C 20.616 170.287 20.507 170.354 20.359 170.354 L 20.227 170.354 C 20.08 170.354 19.97 170.287 19.899 170.154 L 18.369 167.367 C 18.375 167.441 18.381 167.514 18.386 167.587 C 18.39 167.659 18.393 167.725 18.393 167.786 L 18.393 170.946 L 17.572 170.946 L 17.572 166.054 L 18.275 166.054 C 18.317 166.054 18.352 166.055 18.382 166.058 C 18.412 166.06 18.44 166.065 18.464 166.074 C 18.488 166.083 18.51 166.098 18.53 166.118 C 18.549 166.139 18.568 166.166 18.587 166.2 L 20.085 168.916 C 20.125 168.988 20.161 169.063 20.194 169.139 C 20.228 169.216 20.261 169.295 20.293 169.376 C 20.325 169.293 20.359 169.212 20.394 169.134 C 20.428 169.056 20.465 168.982 20.504 168.909 L 21.982 166.2 C 22.001 166.166 22.02 166.139 22.041 166.118 C 22.062 166.098 22.084 166.083 22.109 166.074 C 22.133 166.065 22.16 166.06 22.19 166.058 C 22.22 166.055 22.256 166.054 22.297 166.054 L 23 166.054 Z" id="ASYM" fill="#1E1E1E" fill-rule="nonzero"/>
    <path d="M 9.118 221.944 C 9.089 221.991 9.06 222.026 9.028 222.047 C 8.996 222.068 8.957 222.079 8.91 222.079 C 8.86 222.079 8.807 222.062 8.75 222.027 C 8.692 221.992 8.623 221.953 8.543 221.91 C 8.464 221.867 8.37 221.828 8.263 221.793 C 8.157 221.758 8.03 221.741 7.885 221.741 C 7.753 221.741 7.638 221.756 7.539 221.787 C 7.441 221.817 7.358 221.859 7.291 221.913 C 7.224 221.968 7.174 222.032 7.141 222.108 C 7.109 222.183 7.092 222.266 7.092 222.357 C 7.092 222.472 7.126 222.567 7.192 222.644 C 7.259 222.721 7.348 222.786 7.458 222.84 C 7.569 222.894 7.694 222.943 7.835 222.986 C 7.976 223.029 8.121 223.074 8.269 223.123 C 8.417 223.171 8.561 223.228 8.702 223.292 C 8.843 223.356 8.969 223.437 9.079 223.536 C 9.189 223.634 9.278 223.754 9.345 223.896 C 9.412 224.038 9.445 224.21 9.445 224.413 C 9.445 224.634 9.406 224.841 9.327 225.034 C 9.249 225.227 9.134 225.395 8.982 225.538 C 8.831 225.681 8.646 225.794 8.427 225.877 C 8.209 225.959 7.959 226 7.677 226 C 7.515 226 7.355 225.985 7.198 225.954 C 7.04 225.924 6.89 225.88 6.745 225.824 C 6.601 225.768 6.465 225.7 6.338 225.621 C 6.211 225.542 6.099 225.454 6 225.357 L 6.278 224.921 C 6.302 224.889 6.332 224.863 6.37 224.841 C 6.407 224.82 6.447 224.809 6.49 224.809 C 6.548 224.809 6.612 224.832 6.68 224.879 C 6.748 224.925 6.829 224.976 6.923 225.032 C 7.017 225.089 7.127 225.14 7.252 225.186 C 7.378 225.233 7.529 225.256 7.705 225.256 C 7.975 225.256 8.184 225.194 8.332 225.071 C 8.48 224.948 8.554 224.772 8.554 224.542 C 8.554 224.413 8.521 224.309 8.454 224.227 C 8.387 224.146 8.298 224.078 8.188 224.023 C 8.077 223.967 7.952 223.921 7.811 223.882 C 7.67 223.844 7.527 223.802 7.381 223.757 C 7.235 223.712 7.092 223.658 6.951 223.595 C 6.81 223.532 6.685 223.449 6.574 223.348 C 6.464 223.246 6.375 223.119 6.308 222.967 C 6.241 222.815 6.208 222.627 6.208 222.404 C 6.208 222.226 6.245 222.052 6.319 221.883 C 6.393 221.714 6.5 221.564 6.641 221.433 C 6.782 221.302 6.956 221.197 7.163 221.118 C 7.369 221.039 7.606 221 7.874 221 C 8.175 221 8.452 221.045 8.705 221.135 C 8.959 221.226 9.175 221.352 9.354 221.514 L 9.118 221.944 Z M 11.221 225.946 L 10.27 225.946 L 10.27 221.054 L 11.221 221.054 L 11.221 225.946 Z M 16.653 221.054 L 16.653 225.946 L 16.167 225.946 C 16.092 225.946 16.029 225.934 15.978 225.91 C 15.928 225.887 15.879 225.847 15.832 225.79 L 13.172 222.529 C 13.186 222.678 13.194 222.816 13.194 222.942 L 13.194 225.946 L 12.359 225.946 L 12.359 221.054 L 12.855 221.054 C 12.895 221.054 12.93 221.056 12.959 221.059 C 12.989 221.063 13.014 221.069 13.037 221.079 C 13.059 221.09 13.081 221.104 13.102 221.123 C 13.123 221.143 13.147 221.168 13.172 221.2 L 15.843 224.474 C 15.836 224.395 15.83 224.318 15.825 224.241 C 15.82 224.164 15.818 224.093 15.818 224.028 L 15.818 221.054 L 16.653 221.054 Z M 18.738 221.778 L 18.738 223.135 L 20.521 223.135 L 20.521 223.835 L 18.738 223.835 L 18.738 225.219 L 21 225.219 L 21 225.946 L 17.787 225.946 L 17.787 221.054 L 21 221.054 L 21 221.778 L 18.738 221.778 Z" id="SINE" fill="#1E1E1E" fill-rule="nonzero"/>
    <path d="M 11.351 278.5 C 11.351 278.859 11.292 279.188 11.172 279.488 C 11.052 279.788 10.884 280.046 10.667 280.263 C 10.45 280.479 10.189 280.647 9.884 280.767 C 9.579 280.886 9.24 280.946 8.867 280.946 L 7 280.946 L 7 276.054 L 8.867 276.054 C 9.24 276.054 9.579 276.114 9.884 276.235 C 10.189 276.356 10.45 276.524 10.667 276.739 C 10.884 276.955 11.052 277.212 11.172 277.512 C 11.292 277.812 11.351 278.141 11.351 278.5 Z M 10.416 278.5 C 10.416 278.232 10.38 277.991 10.309 277.778 C 10.238 277.565 10.135 277.384 10.001 277.236 C 9.866 277.089 9.704 276.975 9.513 276.896 C 9.322 276.818 9.107 276.778 8.867 276.778 L 7.915 276.778 L 7.915 280.222 L 8.867 280.222 C 9.107 280.222 9.322 280.182 9.513 280.104 C 9.704 280.025 9.866 279.911 10.001 279.764 C 10.135 279.616 10.238 279.435 10.309 279.222 C 10.38 279.009 10.416 278.768 10.416 278.5 Z M 13.07 280.946 L 12.155 280.946 L 12.155 276.054 L 13.07 276.054 L 13.07 280.946 Z M 18.204 278.493 L 18.204 280.472 C 17.955 280.655 17.69 280.789 17.409 280.873 C 17.128 280.958 16.827 281 16.506 281 C 16.106 281 15.744 280.938 15.42 280.814 C 15.096 280.69 14.819 280.517 14.59 280.296 C 14.36 280.075 14.183 279.811 14.059 279.505 C 13.935 279.198 13.873 278.863 13.873 278.5 C 13.873 278.132 13.933 277.795 14.052 277.488 C 14.172 277.182 14.342 276.918 14.562 276.697 C 14.783 276.476 15.05 276.304 15.364 276.183 C 15.678 276.061 16.03 276 16.421 276 C 16.62 276 16.806 276.016 16.979 276.047 C 17.152 276.079 17.312 276.122 17.46 276.178 C 17.608 276.233 17.743 276.3 17.865 276.379 C 17.987 276.458 18.099 276.545 18.2 276.639 L 17.94 277.052 C 17.899 277.118 17.846 277.158 17.78 277.172 C 17.715 277.187 17.644 277.171 17.567 277.123 L 17.343 276.995 C 17.269 276.952 17.185 276.915 17.094 276.883 C 17.002 276.851 16.9 276.825 16.786 276.805 C 16.671 276.785 16.54 276.775 16.391 276.775 C 16.149 276.775 15.93 276.815 15.735 276.896 C 15.54 276.978 15.373 277.094 15.235 277.245 C 15.097 277.396 14.991 277.578 14.917 277.79 C 14.842 278.002 14.805 278.238 14.805 278.5 C 14.805 278.78 14.845 279.029 14.925 279.249 C 15.005 279.469 15.118 279.655 15.264 279.808 C 15.41 279.96 15.585 280.076 15.791 280.156 C 15.997 280.236 16.226 280.276 16.479 280.276 C 16.66 280.276 16.821 280.257 16.964 280.219 C 17.106 280.18 17.245 280.128 17.38 280.063 L 17.38 279.177 L 16.764 279.177 C 16.705 279.177 16.659 279.16 16.626 279.128 C 16.594 279.095 16.577 279.055 16.577 279.007 L 16.577 278.493 L 18.204 278.493 Z M 20 280.946 L 19.085 280.946 L 19.085 276.054 L 20 276.054 L 20 280.946 Z" id="DIGI" fill="#1E1E1E" fill-rule="nonzero"/>
  </g>
  <g id="g-1" stroke="none" stroke-width="1" fill="none" fill-rule="evenodd" transform="">
    <path d="M 12.084 3.5 C 12.084 3.859 12.023 4.191 11.902 4.496 C 11.78 4.802 11.609 5.066 11.387 5.29 C 11.164 5.513 10.897 5.687 10.585 5.812 C 10.273 5.937 9.926 6 9.544 6 C 9.164 6 8.818 5.937 8.506 5.812 C 8.194 5.687 7.926 5.513 7.703 5.29 C 7.479 5.066 7.307 4.802 7.184 4.496 C 7.061 4.191 7 3.859 7 3.5 C 7 3.141 7.061 2.809 7.184 2.504 C 7.307 2.198 7.479 1.934 7.703 1.71 C 7.926 1.487 8.194 1.313 8.506 1.188 C 8.818 1.063 9.164 1 9.544 1 C 9.798 1 10.038 1.029 10.262 1.086 C 10.487 1.144 10.692 1.225 10.88 1.33 C 11.067 1.435 11.236 1.562 11.385 1.712 C 11.534 1.862 11.661 2.03 11.765 2.214 C 11.869 2.399 11.948 2.6 12.003 2.817 C 12.057 3.033 12.084 3.261 12.084 3.5 Z M 11.13 3.5 C 11.13 3.232 11.093 2.991 11.019 2.778 C 10.945 2.565 10.839 2.384 10.703 2.235 C 10.566 2.086 10.4 1.972 10.205 1.893 C 10.009 1.814 9.789 1.775 9.544 1.775 C 9.299 1.775 9.078 1.814 8.883 1.893 C 8.687 1.972 8.521 2.086 8.383 2.235 C 8.245 2.384 8.139 2.565 8.065 2.778 C 7.991 2.991 7.954 3.232 7.954 3.5 C 7.954 3.768 7.991 4.009 8.065 4.222 C 8.139 4.435 8.245 4.616 8.383 4.764 C 8.521 4.911 8.687 5.025 8.883 5.104 C 9.078 5.182 9.299 5.222 9.544 5.222 C 9.789 5.222 10.009 5.182 10.205 5.104 C 10.4 5.025 10.566 4.911 10.703 4.764 C 10.839 4.616 10.945 4.435 11.019 4.222 C 11.093 4.009 11.13 3.768 11.13 3.5 Z M 13.844 1.778 L 13.844 3.226 L 15.725 3.226 L 15.725 3.953 L 13.844 3.953 L 13.844 5.946 L 12.907 5.946 L 12.907 1.054 L 16.072 1.054 L 16.072 1.778 L 13.844 1.778 Z M 17.772 1.778 L 17.772 3.226 L 19.653 3.226 L 19.653 3.953 L 17.772 3.953 L 17.772 5.946 L 16.835 5.946 L 16.835 1.054 L 20 1.054 L 20 1.778 L 17.772 1.778 Z" id="path-1" fill="#1E1E1E" fill-rule="nonzero"/>
    <path d="M 8.027 56.944 C 8 56.991 7.971 57.026 7.94 57.047 C 7.909 57.068 7.871 57.079 7.825 57.079 C 7.777 57.079 7.726 57.062 7.67 57.027 C 7.614 56.992 7.547 56.953 7.47 56.91 C 7.392 56.867 7.301 56.828 7.198 56.793 C 7.094 56.758 6.971 56.741 6.83 56.741 C 6.702 56.741 6.591 56.756 6.495 56.787 C 6.399 56.817 6.319 56.859 6.254 56.913 C 6.189 56.968 6.14 57.032 6.108 57.108 C 6.076 57.183 6.06 57.266 6.06 57.357 C 6.06 57.472 6.093 57.567 6.158 57.644 C 6.223 57.721 6.309 57.786 6.416 57.84 C 6.523 57.894 6.645 57.943 6.782 57.986 C 6.919 58.029 7.059 58.074 7.203 58.123 C 7.346 58.171 7.487 58.228 7.624 58.292 C 7.76 58.356 7.882 58.437 7.99 58.536 C 8.097 58.634 8.183 58.754 8.248 58.896 C 8.313 59.038 8.345 59.21 8.345 59.413 C 8.345 59.634 8.307 59.841 8.231 60.034 C 8.154 60.227 8.043 60.395 7.895 60.538 C 7.748 60.681 7.569 60.794 7.357 60.877 C 7.145 60.959 6.902 61 6.628 61 C 6.471 61 6.316 60.985 6.163 60.954 C 6.01 60.924 5.864 60.88 5.723 60.824 C 5.583 60.768 5.452 60.7 5.328 60.621 C 5.205 60.542 5.096 60.454 5 60.357 L 5.27 59.921 C 5.293 59.889 5.323 59.863 5.359 59.841 C 5.396 59.82 5.434 59.809 5.475 59.809 C 5.532 59.809 5.594 59.832 5.66 59.879 C 5.726 59.925 5.805 59.976 5.896 60.032 C 5.987 60.089 6.094 60.14 6.216 60.186 C 6.338 60.233 6.485 60.256 6.656 60.256 C 6.918 60.256 7.121 60.194 7.264 60.071 C 7.408 59.948 7.48 59.772 7.48 59.542 C 7.48 59.413 7.447 59.309 7.382 59.227 C 7.317 59.146 7.231 59.078 7.124 59.023 C 7.017 58.967 6.895 58.921 6.758 58.882 C 6.621 58.844 6.482 58.802 6.341 58.757 C 6.199 58.712 6.06 58.658 5.924 58.595 C 5.787 58.532 5.665 58.449 5.558 58.348 C 5.45 58.246 5.364 58.119 5.299 57.967 C 5.234 57.815 5.202 57.627 5.202 57.404 C 5.202 57.226 5.238 57.052 5.31 56.883 C 5.381 56.714 5.486 56.564 5.623 56.433 C 5.759 56.302 5.928 56.197 6.129 56.118 C 6.329 56.039 6.56 56 6.82 56 C 7.112 56 7.381 56.045 7.627 56.135 C 7.873 56.226 8.083 56.352 8.256 56.514 L 8.027 56.944 Z M 13.863 58.5 C 13.863 58.859 13.803 59.191 13.683 59.496 C 13.563 59.802 13.394 60.066 13.175 60.29 C 12.956 60.513 12.693 60.687 12.385 60.812 C 12.077 60.937 11.735 61 11.359 61 C 10.985 61 10.644 60.937 10.336 60.812 C 10.028 60.687 9.764 60.513 9.544 60.29 C 9.324 60.066 9.154 59.802 9.033 59.496 C 8.912 59.191 8.852 58.859 8.852 58.5 C 8.852 58.141 8.912 57.809 9.033 57.504 C 9.154 57.198 9.324 56.934 9.544 56.71 C 9.764 56.487 10.028 56.313 10.336 56.188 C 10.644 56.063 10.985 56 11.359 56 C 11.61 56 11.846 56.029 12.067 56.086 C 12.288 56.144 12.491 56.225 12.676 56.33 C 12.86 56.435 13.026 56.562 13.173 56.712 C 13.32 56.862 13.445 57.03 13.548 57.214 C 13.651 57.399 13.729 57.6 13.782 57.817 C 13.836 58.033 13.863 58.261 13.863 58.5 Z M 12.922 58.5 C 12.922 58.232 12.885 57.991 12.812 57.778 C 12.74 57.565 12.636 57.384 12.501 57.235 C 12.367 57.086 12.203 56.972 12.01 56.893 C 11.818 56.814 11.6 56.775 11.359 56.775 C 11.117 56.775 10.9 56.814 10.707 56.893 C 10.514 56.972 10.35 57.086 10.215 57.235 C 10.079 57.384 9.975 57.565 9.902 57.778 C 9.829 57.991 9.792 58.232 9.792 58.5 C 9.792 58.768 9.829 59.009 9.902 59.222 C 9.975 59.435 10.079 59.616 10.215 59.764 C 10.35 59.911 10.514 60.025 10.707 60.104 C 10.9 60.182 11.117 60.222 11.359 60.222 C 11.6 60.222 11.818 60.182 12.01 60.104 C 12.203 60.025 12.367 59.911 12.501 59.764 C 12.636 59.616 12.74 59.435 12.812 59.222 C 12.885 59.009 12.922 58.768 12.922 58.5 Z M 15.597 56.778 L 15.597 58.226 L 17.451 58.226 L 17.451 58.953 L 15.597 58.953 L 15.597 60.946 L 14.673 60.946 L 14.673 56.054 L 17.793 56.054 L 17.793 56.778 L 15.597 56.778 Z M 22 56.802 L 20.509 56.802 L 20.509 60.946 L 19.589 60.946 L 19.589 56.802 L 18.097 56.802 L 18.097 56.054 L 22 56.054 L 22 56.802 Z" id="path-2" fill="#1E1E1E" fill-rule="nonzero"/>
    <path d="M 8.211 111 L 8.211 116 L 7.278 116 L 7.278 113.815 L 4.933 113.815 L 4.933 116 L 4 116 L 4 111 L 4.933 111 L 4.933 113.151 L 7.278 113.151 L 7.278 111 L 8.211 111 Z M 11.963 114.112 L 11.355 112.449 C 11.325 112.375 11.294 112.287 11.261 112.186 C 11.229 112.085 11.197 111.975 11.165 111.858 C 11.135 111.975 11.104 112.085 11.071 112.188 C 11.039 112.29 11.008 112.38 10.978 112.456 L 10.374 114.112 L 11.963 114.112 Z M 13.604 116 L 12.885 116 C 12.804 116 12.739 115.98 12.688 115.939 C 12.638 115.899 12.6 115.849 12.574 115.789 L 12.201 114.769 L 10.132 114.769 L 9.759 115.789 C 9.74 115.842 9.705 115.891 9.652 115.934 C 9.599 115.978 9.533 116 9.455 116 L 8.729 116 L 10.695 111 L 11.641 111 L 13.604 116 Z M 15.631 113.379 C 15.806 113.379 15.959 113.357 16.089 113.313 C 16.219 113.269 16.326 113.209 16.41 113.132 C 16.495 113.055 16.557 112.963 16.599 112.857 C 16.64 112.751 16.661 112.634 16.661 112.508 C 16.661 112.254 16.577 112.059 16.41 111.923 C 16.243 111.787 15.988 111.719 15.645 111.719 L 15.051 111.719 L 15.051 113.379 L 15.631 113.379 Z M 18.022 116 L 17.183 116 C 17.024 116 16.908 115.938 16.837 115.813 L 15.787 114.212 C 15.748 114.152 15.705 114.11 15.657 114.084 C 15.61 114.059 15.54 114.046 15.448 114.046 L 15.051 114.046 L 15.051 116 L 14.122 116 L 14.122 111 L 15.645 111 C 15.984 111 16.275 111.035 16.518 111.105 C 16.761 111.176 16.96 111.274 17.115 111.401 C 17.271 111.528 17.385 111.679 17.459 111.856 C 17.533 112.032 17.569 112.226 17.569 112.438 C 17.569 112.607 17.545 112.766 17.495 112.916 C 17.446 113.065 17.374 113.201 17.281 113.324 C 17.188 113.446 17.073 113.553 16.936 113.645 C 16.799 113.737 16.642 113.81 16.467 113.863 C 16.527 113.898 16.583 113.939 16.633 113.986 C 16.684 114.033 16.73 114.089 16.771 114.154 L 18.022 116 Z M 23 113.5 C 23 113.867 22.939 114.203 22.817 114.51 C 22.695 114.816 22.523 115.08 22.302 115.302 C 22.081 115.523 21.815 115.695 21.504 115.817 C 21.193 115.939 20.848 116 20.468 116 L 18.564 116 L 18.564 111 L 20.468 111 C 20.848 111 21.193 111.062 21.504 111.185 C 21.815 111.308 22.081 111.48 22.302 111.7 C 22.523 111.92 22.695 112.184 22.817 112.49 C 22.939 112.797 23 113.133 23 113.5 Z M 22.047 113.5 C 22.047 113.226 22.01 112.98 21.938 112.762 C 21.865 112.544 21.76 112.359 21.623 112.209 C 21.486 112.058 21.321 111.942 21.126 111.861 C 20.931 111.78 20.712 111.74 20.468 111.74 L 19.497 111.74 L 19.497 115.26 L 20.468 115.26 C 20.712 115.26 20.931 115.22 21.126 115.139 C 21.321 115.058 21.486 114.942 21.623 114.791 C 21.76 114.641 21.865 114.456 21.938 114.238 C 22.01 114.02 22.047 113.774 22.047 113.5 Z" id="path-3" fill="#1E1E1E" fill-rule="nonzero"/>
    <path d="M 7.24 169.099 L 6.631 167.472 C 6.601 167.399 6.57 167.314 6.537 167.214 C 6.505 167.115 6.473 167.008 6.44 166.893 C 6.41 167.008 6.379 167.116 6.347 167.216 C 6.315 167.317 6.283 167.404 6.253 167.478 L 5.648 169.099 L 7.24 169.099 Z M 8.884 170.946 L 8.164 170.946 C 8.083 170.946 8.018 170.926 7.967 170.887 C 7.916 170.847 7.878 170.798 7.853 170.74 L 7.479 169.742 L 5.405 169.742 L 5.032 170.74 C 5.013 170.791 4.977 170.839 4.924 170.882 C 4.871 170.924 4.805 170.946 4.727 170.946 L 4 170.946 L 5.97 166.054 L 6.918 166.054 L 8.884 170.946 Z M 12.069 166.944 C 12.041 166.991 12.012 167.026 11.98 167.047 C 11.949 167.068 11.911 167.079 11.864 167.079 C 11.816 167.079 11.763 167.062 11.707 167.027 C 11.65 166.992 11.583 166.953 11.504 166.91 C 11.426 166.867 11.334 166.828 11.229 166.793 C 11.124 166.758 11 166.741 10.857 166.741 C 10.728 166.741 10.615 166.756 10.518 166.787 C 10.421 166.817 10.34 166.859 10.274 166.913 C 10.208 166.968 10.159 167.032 10.127 167.108 C 10.094 167.183 10.078 167.266 10.078 167.357 C 10.078 167.472 10.111 167.567 10.177 167.644 C 10.243 167.721 10.33 167.786 10.438 167.84 C 10.547 167.894 10.67 167.943 10.809 167.986 C 10.947 168.029 11.089 168.074 11.234 168.123 C 11.38 168.171 11.522 168.228 11.66 168.292 C 11.799 168.356 11.922 168.437 12.031 168.536 C 12.139 168.634 12.226 168.754 12.292 168.896 C 12.358 169.038 12.391 169.21 12.391 169.413 C 12.391 169.634 12.352 169.841 12.275 170.034 C 12.197 170.227 12.084 170.395 11.935 170.538 C 11.787 170.681 11.605 170.794 11.39 170.877 C 11.176 170.959 10.93 171 10.653 171 C 10.494 171 10.337 170.985 10.182 170.954 C 10.028 170.924 9.879 170.88 9.737 170.824 C 9.595 170.768 9.462 170.7 9.338 170.621 C 9.213 170.542 9.102 170.454 9.005 170.357 L 9.279 169.921 C 9.302 169.889 9.332 169.863 9.369 169.841 C 9.406 169.82 9.445 169.809 9.486 169.809 C 9.544 169.809 9.606 169.832 9.673 169.879 C 9.74 169.925 9.82 169.976 9.912 170.032 C 10.004 170.089 10.112 170.14 10.236 170.186 C 10.359 170.233 10.508 170.256 10.681 170.256 C 10.946 170.256 11.151 170.194 11.297 170.071 C 11.442 169.948 11.515 169.772 11.515 169.542 C 11.515 169.413 11.482 169.309 11.416 169.227 C 11.35 169.146 11.263 169.078 11.155 169.023 C 11.046 168.967 10.923 168.921 10.784 168.882 C 10.646 168.844 10.505 168.802 10.362 168.757 C 10.219 168.712 10.078 168.658 9.94 168.595 C 9.801 168.532 9.678 168.449 9.57 168.348 C 9.461 168.246 9.374 168.119 9.308 167.967 C 9.242 167.815 9.21 167.627 9.21 167.404 C 9.21 167.226 9.246 167.052 9.319 166.883 C 9.391 166.714 9.497 166.564 9.635 166.433 C 9.774 166.302 9.944 166.197 10.148 166.118 C 10.351 166.039 10.584 166 10.847 166 C 11.142 166 11.414 166.045 11.664 166.135 C 11.913 166.226 12.125 166.352 12.301 166.514 L 12.069 166.944 Z M 15.236 169.051 L 15.236 170.946 L 14.308 170.946 L 14.308 169.051 L 12.484 166.054 L 13.304 166.054 C 13.385 166.054 13.449 166.073 13.497 166.112 C 13.544 166.15 13.584 166.198 13.616 166.257 L 14.53 167.891 C 14.583 167.988 14.63 168.079 14.67 168.165 C 14.71 168.251 14.747 168.336 14.779 168.422 C 14.809 168.336 14.844 168.251 14.883 168.165 C 14.922 168.079 14.967 167.988 15.018 167.891 L 15.928 166.257 C 15.954 166.207 15.992 166.161 16.042 166.118 C 16.093 166.076 16.158 166.054 16.236 166.054 L 17.06 166.054 L 15.236 169.051 Z M 23 166.054 L 23 170.946 L 22.18 170.946 L 22.18 167.786 C 22.18 167.66 22.187 167.523 22.2 167.377 L 20.688 170.154 C 20.616 170.287 20.507 170.354 20.359 170.354 L 20.227 170.354 C 20.08 170.354 19.97 170.287 19.899 170.154 L 18.369 167.367 C 18.375 167.441 18.381 167.514 18.386 167.587 C 18.39 167.659 18.393 167.725 18.393 167.786 L 18.393 170.946 L 17.572 170.946 L 17.572 166.054 L 18.275 166.054 C 18.317 166.054 18.352 166.055 18.382 166.058 C 18.412 166.06 18.44 166.065 18.464 166.074 C 18.488 166.083 18.51 166.098 18.53 166.118 C 18.549 166.139 18.568 166.166 18.587 166.2 L 20.085 168.916 C 20.125 168.988 20.161 169.063 20.194 169.139 C 20.228 169.216 20.261 169.295 20.293 169.376 C 20.325 169.293 20.359 169.212 20.394 169.134 C 20.428 169.056 20.465 168.982 20.504 168.909 L 21.982 166.2 C 22.001 166.166 22.02 166.139 22.041 166.118 C 22.062 166.098 22.084 166.083 22.109 166.074 C 22.133 166.065 22.16 166.06 22.19 166.058 C 22.22 166.055 22.256 166.054 22.297 166.054 L 23 166.054 Z" id="path-4" fill="#1E1E1E" fill-rule="nonzero"/>
    <path d="M 9.118 221.944 C 9.089 221.991 9.06 222.026 9.028 222.047 C 8.996 222.068 8.957 222.079 8.91 222.079 C 8.86 222.079 8.807 222.062 8.75 222.027 C 8.692 221.992 8.623 221.953 8.543 221.91 C 8.464 221.867 8.37 221.828 8.263 221.793 C 8.157 221.758 8.03 221.741 7.885 221.741 C 7.753 221.741 7.638 221.756 7.539 221.787 C 7.441 221.817 7.358 221.859 7.291 221.913 C 7.224 221.968 7.174 222.032 7.141 222.108 C 7.109 222.183 7.092 222.266 7.092 222.357 C 7.092 222.472 7.126 222.567 7.192 222.644 C 7.259 222.721 7.348 222.786 7.458 222.84 C 7.569 222.894 7.694 222.943 7.835 222.986 C 7.976 223.029 8.121 223.074 8.269 223.123 C 8.417 223.171 8.561 223.228 8.702 223.292 C 8.843 223.356 8.969 223.437 9.079 223.536 C 9.189 223.634 9.278 223.754 9.345 223.896 C 9.412 224.038 9.445 224.21 9.445 224.413 C 9.445 224.634 9.406 224.841 9.327 225.034 C 9.249 225.227 9.134 225.395 8.982 225.538 C 8.831 225.681 8.646 225.794 8.427 225.877 C 8.209 225.959 7.959 226 7.677 226 C 7.515 226 7.355 225.985 7.198 225.954 C 7.04 225.924 6.89 225.88 6.745 225.824 C 6.601 225.768 6.465 225.7 6.338 225.621 C 6.211 225.542 6.099 225.454 6 225.357 L 6.278 224.921 C 6.302 224.889 6.332 224.863 6.37 224.841 C 6.407 224.82 6.447 224.809 6.49 224.809 C 6.548 224.809 6.612 224.832 6.68 224.879 C 6.748 224.925 6.829 224.976 6.923 225.032 C 7.017 225.089 7.127 225.14 7.252 225.186 C 7.378 225.233 7.529 225.256 7.705 225.256 C 7.975 225.256 8.184 225.194 8.332 225.071 C 8.48 224.948 8.554 224.772 8.554 224.542 C 8.554 224.413 8.521 224.309 8.454 224.227 C 8.387 224.146 8.298 224.078 8.188 224.023 C 8.077 223.967 7.952 223.921 7.811 223.882 C 7.67 223.844 7.527 223.802 7.381 223.757 C 7.235 223.712 7.092 223.658 6.951 223.595 C 6.81 223.532 6.685 223.449 6.574 223.348 C 6.464 223.246 6.375 223.119 6.308 222.967 C 6.241 222.815 6.208 222.627 6.208 222.404 C 6.208 222.226 6.245 222.052 6.319 221.883 C 6.393 221.714 6.5 221.564 6.641 221.433 C 6.782 221.302 6.956 221.197 7.163 221.118 C 7.369 221.039 7.606 221 7.874 221 C 8.175 221 8.452 221.045 8.705 221.135 C 8.959 221.226 9.175 221.352 9.354 221.514 L 9.118 221.944 Z M 11.221 225.946 L 10.27 225.946 L 10.27 221.054 L 11.221 221.054 L 11.221 225.946 Z M 16.653 221.054 L 16.653 225.946 L 16.167 225.946 C 16.092 225.946 16.029 225.934 15.978 225.91 C 15.928 225.887 15.879 225.847 15.832 225.79 L 13.172 222.529 C 13.186 222.678 13.194 222.816 13.194 222.942 L 13.194 225.946 L 12.359 225.946 L 12.359 221.054 L 12.855 221.054 C 12.895 221.054 12.93 221.056 12.959 221.059 C 12.989 221.063 13.014 221.069 13.037 221.079 C 13.059 221.09 13.081 221.104 13.102 221.123 C 13.123 221.143 13.147 221.168 13.172 221.2 L 15.843 224.474 C 15.836 224.395 15.83 224.318 15.825 224.241 C 15.82 224.164 15.818 224.093 15.818 224.028 L 15.818 221.054 L 16.653 221.054 Z M 18.738 221.778 L 18.738 223.135 L 20.521 223.135 L 20.521 223.835 L 18.738 223.835 L 18.738 225.219 L 21 225.219 L 21 225.946 L 17.787 225.946 L 17.787 221.054 L 21 221.054 L 21 221.778 L 18.738 221.778 Z" id="path-5" fill="#1E1E1E" fill-rule="nonzero"/>
    <path d="M 11.351 278.5 C 11.351 278.859 11.292 279.188 11.172 279.488 C 11.052 279.788 10.884 280.046 10.667 280.263 C 10.45 280.479 10.189 280.647 9.884 280.767 C 9.579 280.886 9.24 280.946 8.867 280.946 L 7 280.946 L 7 276.054 L 8.867 276.054 C 9.24 276.054 9.579 276.114 9.884 276.235 C 10.189 276.356 10.45 276.524 10.667 276.739 C 10.884 276.955 11.052 277.212 11.172 277.512 C 11.292 277.812 11.351 278.141 11.351 278.5 Z M 10.416 278.5 C 10.416 278.232 10.38 277.991 10.309 277.778 C 10.238 277.565 10.135 277.384 10.001 277.236 C 9.866 277.089 9.704 276.975 9.513 276.896 C 9.322 276.818 9.107 276.778 8.867 276.778 L 7.915 276.778 L 7.915 280.222 L 8.867 280.222 C 9.107 280.222 9.322 280.182 9.513 280.104 C 9.704 280.025 9.866 279.911 10.001 279.764 C 10.135 279.616 10.238 279.435 10.309 279.222 C 10.38 279.009 10.416 278.768 10.416 278.5 Z M 13.07 280.946 L 12.155 280.946 L 12.155 276.054 L 13.07 276.054 L 13.07 280.946 Z M 18.204 278.493 L 18.204 280.472 C 17.955 280.655 17.69 280.789 17.409 280.873 C 17.128 280.958 16.827 281 16.506 281 C 16.106 281 15.744 280.938 15.42 280.814 C 15.096 280.69 14.819 280.517 14.59 280.296 C 14.36 280.075 14.183 279.811 14.059 279.505 C 13.935 279.198 13.873 278.863 13.873 278.5 C 13.873 278.132 13.933 277.795 14.052 277.488 C 14.172 277.182 14.342 276.918 14.562 276.697 C 14.783 276.476 15.05 276.304 15.364 276.183 C 15.678 276.061 16.03 276 16.421 276 C 16.62 276 16.806 276.016 16.979 276.047 C 17.152 276.079 17.312 276.122 17.46 276.178 C 17.608 276.233 17.743 276.3 17.865 276.379 C 17.987 276.458 18.099 276.545 18.2 276.639 L 17.94 277.052 C 17.899 277.118 17.846 277.158 17.78 277.172 C 17.715 277.187 17.644 277.171 17.567 277.123 L 17.343 276.995 C 17.269 276.952 17.185 276.915 17.094 276.883 C 17.002 276.851 16.9 276.825 16.786 276.805 C 16.671 276.785 16.54 276.775 16.391 276.775 C 16.149 276.775 15.93 276.815 15.735 276.896 C 15.54 276.978 15.373 277.094 15.235 277.245 C 15.097 277.396 14.991 277.578 14.917 277.79 C 14.842 278.002 14.805 278.238 14.805 278.5 C 14.805 278.78 14.845 279.029 14.925 279.249 C 15.005 279.469 15.118 279.655 15.264 279.808 C 15.41 279.96 15.585 280.076 15.791 280.156 C 15.997 280.236 16.226 280.276 16.479 280.276 C 16.66 280.276 16.821 280.257 16.964 280.219 C 17.106 280.18 17.245 280.128 17.38 280.063 L 17.38 279.177 L 16.764 279.177 C 16.705 279.177 16.659 279.16 16.626 279.128 C 16.594 279.095 16.577 279.055 16.577 279.007 L 16.577 278.493 L 18.204 278.493 Z M 20 280.946 L 19.085 280.946 L 19.085 276.054 L 20 276.054 L 20 280.946 Z" id="path-6" fill="#1E1E1E" fill-rule="nonzero"/>
  </g>
</svg>