<?xml version="1.0" encoding="utf-8"?>
<svg width="22px" height="30px" viewBox="0 0 22 30" version="1.1" xmlns="http://www.w3.org/2000/svg">
  <desc>Created with Lunacy</desc>
  <defs>
    <rect width="11" height="30" id="artboard_1"/>
    <clipPath id="clip_1">
      <rect width="11" height="30" transform="matrix(1, 0, 0, 1, 0, 0)" clip-rule="evenodd"/>
    </clipPath>
    <clipPath id="clip-1">
      <rect width="11" height="30" transform="matrix(1, 0, 0, 1, 0, 0)" clip-rule="evenodd"/>
    </clipPath>
  </defs>
  <g id="bmp00170" clip-path="url(#clip_1)">
    <g id="F1-On" transform="translate(2.5 18.5)">
      <path d="M0.952002 4.0796L0.952002 2.492L2.3464 2.492L2.3464 1.7612L0.952002 1.7612L0.952002 0.728003L2.6264 0.728003L2.6264 0L0 0L0 4.0796L0.952002 4.0796L0.952002 4.0796Z" transform="translate(1.5359497 1.9204102)" id="F1#2-path" fill="#FF9000" fill-rule="evenodd" stroke="none"/>
      <path d="M2.66 4.0824L2.66 3.4552L1.988 3.4552L1.988 0L1.2712 0L0 1.0668L0.274402 1.4308C0.293066 1.45507 0.321533 1.47793 0.359802 1.4994C0.398068 1.52086 0.441467 1.5316 0.490002 1.5316C0.518002 1.5316 0.546936 1.52646 0.576801 1.5162C0.606668 1.50593 0.636536 1.48867 0.6664 1.4644L0.6664 1.4644L1.1284 1.0808C1.1228 1.19093 1.12 1.2964 1.12 1.3972L1.12 1.3972L1.12 3.4552L0.336002 3.4552L0.336002 4.0824L2.66 4.0824L2.66 4.0824Z" transform="translate(4.3688354 1.9176025)" id="F1#2-path-2" fill="#FF9000" fill-rule="evenodd" stroke="none"/>
      <path d="M0 0L8 0L8 8L0 8L0 0Z" id="Rectangle#118" fill="none" fill-rule="evenodd" stroke="#FF9000" stroke-width="1"/>
    </g>
    <g id="F1-Off" transform="translate(2.499878 3.5)">
      <path d="M0.952002 4.0796L0.952002 2.492L2.3464 2.492L2.3464 1.7612L0.952002 1.7612L0.952002 0.728003L2.6264 0.728003L2.6264 0L0 0L0 4.0796L0.952002 4.0796L0.952002 4.0796Z" transform="translate(1.5359497 1.9204102)" id="F1#2-path" fill="#FFCCAA" fill-opacity="0.4" fill-rule="evenodd" stroke="none"/>
      <path d="M2.66 4.0824L2.66 3.4552L1.988 3.4552L1.988 0L1.2712 0L0 1.0668L0.274402 1.4308C0.293066 1.45507 0.321533 1.47793 0.359802 1.4994C0.398068 1.52086 0.441467 1.5316 0.490002 1.5316C0.518002 1.5316 0.546936 1.52646 0.576801 1.5162C0.606668 1.50593 0.636536 1.48867 0.6664 1.4644L0.6664 1.4644L1.1284 1.0808C1.1228 1.19093 1.12 1.2964 1.12 1.3972L1.12 1.3972L1.12 3.4552L0.336002 3.4552L0.336002 4.0824L2.66 4.0824L2.66 4.0824Z" transform="translate(4.3688354 1.9176025)" id="F1#2-path-2" fill="#FFCCAA" fill-opacity="0.4" fill-rule="evenodd" stroke="none"/>
      <path d="M0 0L8 0L8 8L0 8L0 0Z" id="Rectangle#118" fill="none" fill-rule="evenodd" stroke="#FF9000" stroke-opacity="0.4" stroke-width="1"/>
    </g>
  </g>
  <g id="bmp00171" clip-path="url(#clip-1)" transform="matrix(1, 0, 0, 1, 11, -0)">
    <g id="F2-On" transform="translate(0.5 18.5)">
      <path d="M0.952002 4.0796L0.952002 2.492L2.3464 2.492L2.3464 1.7612L0.952002 1.7612L0.952002 0.728L2.6264 0.728L2.6264 0L0 0L0 4.0796L0.952002 4.0796L0.952002 4.0796Z" transform="translate(1.1359867 1.9204102)" id="F2-path" fill="#FF9000" fill-rule="evenodd" stroke="none"/>
      <path d="M2.8672 4.1244L2.8672 3.6204C2.8672 3.5364 2.84013 3.46873 2.786 3.4174C2.73187 3.36607 2.65813 3.3404 2.5648 3.3404L2.5648 3.3404L1.8032 3.3404C1.71547 3.3404 1.62167 3.34927 1.5218 3.367C1.42193 3.38473 1.32067 3.40853 1.218 3.4384L1.218 3.4384L2.016 2.6208C2.12427 2.51067 2.22646 2.40193 2.3226 2.2946C2.41873 2.18727 2.5032 2.0762 2.576 1.9614C2.6488 1.8466 2.7062 1.72573 2.7482 1.5988C2.7902 1.47187 2.8112 1.33373 2.8112 1.1844C2.8112 1.0108 2.78087 0.851667 2.7202 0.707C2.65953 0.562333 2.57227 0.437733 2.4584 0.3332C2.34453 0.228666 2.20687 0.147 2.0454 0.0882C1.88393 0.0293999 1.7024 0 1.5008 0C1.31413 0 1.1396 0.0247334 0.977197 0.0742001C0.814801 0.123667 0.670599 0.1988 0.544598 0.2996C0.418597 0.4004 0.313135 0.5264 0.228198 0.6776C0.143268 0.8288 0.0858643 1.00613 0.0559998 1.2096L0.0559998 1.2096L0.515198 1.2908C0.537598 1.29453 0.559534 1.29733 0.581 1.2992C0.602466 1.30107 0.622534 1.302 0.641199 1.302C0.719598 1.302 0.781665 1.28333 0.827399 1.246C0.873132 1.20867 0.910931 1.148 0.940796 1.064C0.959467 1.0136 0.984198 0.966933 1.015 0.924C1.0458 0.881067 1.08267 0.843734 1.1256 0.812C1.16853 0.780267 1.21707 0.755066 1.2712 0.7364C1.32533 0.717733 1.38506 0.7084 1.4504 0.7084C1.60906 0.7084 1.72713 0.7518 1.8046 0.8386C1.88207 0.9254 1.9208 1.05 1.9208 1.2124C1.9208 1.31133 1.90867 1.40513 1.8844 1.4938C1.86013 1.58247 1.82373 1.67113 1.7752 1.7598C1.72667 1.84847 1.66506 1.93853 1.5904 2.03C1.51573 2.12147 1.428 2.2176 1.3272 2.3184L1.3272 2.3184L0.151196 3.5028C0.0951965 3.5532 0.0559998 3.6092 0.0335999 3.6708C0.0112 3.7324 0 3.79027 0 3.8444L0 3.8444L0 4.1244L2.8672 4.1244L2.8672 4.1244Z" transform="translate(4.264038 1.8756104)" id="F2-path-2" fill="#FF9000" fill-rule="evenodd" stroke="none"/>
      <path d="M0 0L8 0L8 8L0 8L0 0Z" id="Rectangle#15" fill="none" fill-rule="evenodd" stroke="#FF9000" stroke-width="1"/>
    </g>
    <g id="F2-Off" transform="translate(0.49987793 3.5)">
      <path d="M0.952002 4.0796L0.952002 2.492L2.3464 2.492L2.3464 1.7612L0.952002 1.7612L0.952002 0.728L2.6264 0.728L2.6264 0L0 0L0 4.0796L0.952002 4.0796L0.952002 4.0796Z" transform="translate(1.1359867 1.9204102)" id="F2-path" fill="#FFCCAA" fill-opacity="0.4" fill-rule="evenodd" stroke="none"/>
      <path d="M2.8672 4.1244L2.8672 3.6204C2.8672 3.5364 2.84013 3.46873 2.786 3.4174C2.73187 3.36607 2.65813 3.3404 2.5648 3.3404L2.5648 3.3404L1.8032 3.3404C1.71547 3.3404 1.62167 3.34927 1.5218 3.367C1.42193 3.38473 1.32067 3.40853 1.218 3.4384L1.218 3.4384L2.016 2.6208C2.12427 2.51067 2.22646 2.40193 2.3226 2.2946C2.41873 2.18727 2.5032 2.0762 2.576 1.9614C2.6488 1.8466 2.7062 1.72573 2.7482 1.5988C2.7902 1.47187 2.8112 1.33373 2.8112 1.1844C2.8112 1.0108 2.78087 0.851667 2.7202 0.707C2.65953 0.562333 2.57227 0.437733 2.4584 0.3332C2.34453 0.228666 2.20687 0.147 2.0454 0.0882C1.88393 0.0293999 1.7024 0 1.5008 0C1.31413 0 1.1396 0.0247334 0.977197 0.0742001C0.814801 0.123667 0.670599 0.1988 0.544598 0.2996C0.418597 0.4004 0.313135 0.5264 0.228198 0.6776C0.143268 0.8288 0.0858643 1.00613 0.0559998 1.2096L0.0559998 1.2096L0.515198 1.2908C0.537598 1.29453 0.559534 1.29733 0.581 1.2992C0.602466 1.30107 0.622534 1.302 0.641199 1.302C0.719598 1.302 0.781665 1.28333 0.827399 1.246C0.873132 1.20867 0.910931 1.148 0.940796 1.064C0.959467 1.0136 0.984198 0.966933 1.015 0.924C1.0458 0.881067 1.08267 0.843734 1.1256 0.812C1.16853 0.780267 1.21707 0.755066 1.2712 0.7364C1.32533 0.717733 1.38506 0.7084 1.4504 0.7084C1.60906 0.7084 1.72713 0.7518 1.8046 0.8386C1.88207 0.9254 1.9208 1.05 1.9208 1.2124C1.9208 1.31133 1.90867 1.40513 1.8844 1.4938C1.86013 1.58247 1.82373 1.67113 1.7752 1.7598C1.72667 1.84847 1.66506 1.93853 1.5904 2.03C1.51573 2.12147 1.428 2.2176 1.3272 2.3184L1.3272 2.3184L0.151196 3.5028C0.0951965 3.5532 0.0559998 3.6092 0.0335999 3.6708C0.0112 3.7324 0 3.79027 0 3.8444L0 3.8444L0 4.1244L2.8672 4.1244L2.8672 4.1244Z" transform="translate(4.264038 1.8756104)" id="F2-path-2" fill="#FFCCAA" fill-opacity="0.4" fill-rule="evenodd" stroke="none"/>
      <path d="M0 0L8 0L8 8L0 8L0 0Z" id="Rectangle#15" fill="none" fill-rule="evenodd" stroke="#FF9000" stroke-opacity="0.4" stroke-width="1"/>
    </g>
  </g>
</svg>