<?xml version="1.0" encoding="utf-8"?>
<svg width="34px" height="30px" viewBox="0 0 34 30" version="1.1" xmlns="http://www.w3.org/2000/svg">
  <title>bmp00162</title>
  <desc>Created with Sketch.</desc>
  <g id="bmp00162" stroke="#FFFFFF" stroke-width="1" fill="none" fill-rule="evenodd">
    <path d="M8.1205,3.4485 C8.1205,3.81716851 8.0569173,4.15724844 7.92975,4.46875 C7.8025827,4.78025156 7.62350115,5.04974886 7.3925,5.27725 C7.16149885,5.50475114 6.88325163,5.6820827 6.55775,5.80925 C6.23224837,5.9364173 5.87116865,6 5.4745,6 L3.4935,6 L3.4935,0.9005 L5.4745,0.9005 C5.87116865,0.9005 6.23224837,0.964666025 6.55775,1.093 C6.88325163,1.22133398 7.16149885,1.39866554 7.3925,1.625 C7.62350115,1.85133446 7.8025827,2.12024844 7.92975,2.43175 C8.0569173,2.74325156 8.1205,3.08216484 8.1205,3.4485 Z M6.9095,3.4485 C6.9095,3.19649874 6.87683366,2.96900102 6.8115,2.766 C6.74616634,2.56299899 6.65225061,2.39091737 6.52975,2.24975 C6.40724939,2.10858263 6.25733422,2.00008371 6.08,1.92425 C5.90266578,1.84841629 5.70083446,1.8105 5.4745,1.8105 L4.6835,1.8105 L4.6835,5.09 L5.4745,5.09 C5.70083446,5.09 5.90266578,5.05208371 6.08,4.97625 C6.25733422,4.90041629 6.40724939,4.79191737 6.52975,4.65075 C6.65225061,4.50958263 6.74616634,4.33750102 6.8115,4.1345 C6.87683366,3.93149899 6.9095,3.70283461 6.9095,3.4485 Z M10.0105,6 L8.8205,6 L8.8205,0.9005 L10.0105,0.9005 L10.0105,6 Z M13.4475,3.3575 L15.2605,3.3575 L15.2605,5.51 C14.9991654,5.70133429 14.7209181,5.84016623 14.42575,5.9265 C14.1305819,6.01283376 13.8220016,6.056 13.5,6.056 C13.0799979,6.056 12.6979184,5.99008399 12.35375,5.85825 C12.0095816,5.72641601 11.7150012,5.54441783 11.47,5.31225 C11.2249988,5.08008217 11.0360007,4.80475159 10.903,4.48625 C10.7699993,4.16774841 10.7035,3.8218352 10.7035,3.4485 C10.7035,3.06816477 10.7664994,2.71875159 10.8925,2.40025 C11.0185006,2.08174841 11.1987488,1.80700116 11.43325,1.576 C11.6677512,1.34499885 11.9512483,1.16533398 12.28375,1.037 C12.6162517,0.908666025 12.9878313,0.8445 13.3985,0.8445 C13.6108344,0.8445 13.8103324,0.861999825 13.997,0.897 C14.1836676,0.932000175 14.3557492,0.97983303 14.51325,1.0405 C14.6707508,1.10116697 14.8148327,1.17349958 14.9455,1.2575 C15.0761673,1.34150042 15.1928328,1.43249951 15.2955,1.5305 L14.9525,2.052 C14.8988331,2.13366707 14.8294171,2.18383324 14.74425,2.2025 C14.6590829,2.22116676 14.5675005,2.20016697 14.4695,2.1395 C14.3761662,2.08349972 14.2880837,2.03508354 14.20525,1.99425 C14.1224163,1.95341646 14.0378338,1.9201668 13.9515,1.8945 C13.8651662,1.8688332 13.7741671,1.85016672 13.6785,1.8385 C13.5828329,1.82683328 13.4755006,1.821 13.3565,1.821 C13.1348322,1.821 12.9353342,1.86008294 12.758,1.93825 C12.5806658,2.01641706 12.429584,2.12666595 12.30475,2.269 C12.179916,2.41133405 12.083667,2.582249 12.016,2.78175 C11.948333,2.981251 11.9145,3.20349877 11.9145,3.4485 C11.9145,3.71916802 11.951833,3.95949895 12.0265,4.1695 C12.101167,4.37950105 12.2067493,4.55683261 12.34325,4.7015 C12.4797507,4.84616739 12.6430824,4.95641629 12.83325,5.03225 C13.0234176,5.10808371 13.2339988,5.146 13.465,5.146 C13.607334,5.146 13.7362494,5.13200014 13.85175,5.104 C13.9672506,5.07599986 14.0798328,5.0386669 14.1895,4.992 L14.1895,4.2185 L13.6855,4.2185 C13.610833,4.2185 13.5525002,4.19866686 13.5105,4.159 C13.4684998,4.11933313 13.4475,4.06916697 13.4475,4.0085 L13.4475,3.3575 Z M17.245,6 L16.055,6 L16.055,0.9005 L17.245,0.9005 L17.245,6 Z M21.8965,1.8385 L20.4615,1.8385 L20.4615,6 L19.2785,6 L19.2785,1.8385 L17.8435,1.8385 L17.8435,0.9005 L21.8965,0.9005 L21.8965,1.8385 Z M25.19,4.0505 L24.7175,2.654 C24.6824998,2.56533289 24.6451669,2.46091727 24.6055,2.34075 C24.5658331,2.22058273 24.5261669,2.0905007 24.4865,1.9505 C24.4514998,2.09283405 24.4141669,2.22466606 24.3745,2.346 C24.3348331,2.46733394 24.2975002,2.57233289 24.2625,2.661 L23.7935,4.0505 L25.19,4.0505 Z M27.0695,6 L26.1525,6 C26.0498328,6 25.9670003,5.97608357 25.904,5.92825 C25.8409997,5.88041643 25.7931668,5.81916704 25.7605,5.7445 L25.4595,4.8555 L23.5205,4.8555 L23.2195,5.7445 C23.1938332,5.80983366 23.1477503,5.86874974 23.08125,5.92125 C23.0147497,5.97375026 22.9325005,6 22.8345,6 L21.9105,6 L23.8845,0.9005 L25.0955,0.9005 L27.0695,6 Z M30.545,5.055 L30.545,6 L27.472,6 L27.472,0.9005 L28.655,0.9005 L28.655,5.055 L30.545,5.055 Z" id="DIGITAL" fill="#1E1E1E" fill-rule="nonzero"/>
    <path d="M5.1885,27.0505 L4.716,25.654 C4.68099982,25.5653329 4.64366687,25.4609173 4.604,25.34075 C4.56433314,25.2205827 4.52466687,25.0905007 4.485,24.9505 C4.44999982,25.092834 4.41266687,25.2246661 4.373,25.346 C4.33333314,25.4673339 4.29600017,25.5723329 4.261,25.661 L3.792,27.0505 L5.1885,27.0505 Z M7.068,29 L6.151,29 C6.04833282,29 5.96550031,28.9760836 5.9025,28.92825 C5.83949969,28.8804164 5.79166683,28.819167 5.759,28.7445 L5.458,27.8555 L3.519,27.8555 L3.218,28.7445 C3.1923332,28.8098337 3.14625033,28.8687497 3.07975,28.92125 C3.01324967,28.9737503 2.93100049,29 2.833,29 L1.909,29 L3.883,23.9005 L5.094,23.9005 L7.068,29 Z M11.9225,23.9005 L11.9225,29 L11.3065,29 C11.2154995,29 11.1390836,28.9854168 11.07725,28.95625 C11.0154164,28.9270832 10.954167,28.8763337 10.8935,28.804 L8.489,25.7625 C8.49833338,25.8535005 8.50474998,25.9415829 8.50825,26.02675 C8.51175002,26.1119171 8.5135,26.191833 8.5135,26.2665 L8.5135,29 L7.4705,29 L7.4705,23.9005 L8.0935,23.9005 C8.14483359,23.9005 8.18799983,23.9028333 8.223,23.9075 C8.25800018,23.9121667 8.28949986,23.9209166 8.3175,23.93375 C8.34550014,23.9465834 8.37233321,23.9646666 8.398,23.988 C8.4236668,24.0113335 8.45283317,24.0428331 8.4855,24.0825 L10.911,27.145 C10.8993333,27.0469995 10.8911667,26.9519171 10.8865,26.85975 C10.8818333,26.7675829 10.8795,26.6806671 10.8795,26.599 L10.8795,23.9005 L11.9225,23.9005 Z M15.6045,27.0505 L15.132,25.654 C15.0969998,25.5653329 15.0596669,25.4609173 15.02,25.34075 C14.9803331,25.2205827 14.9406669,25.0905007 14.901,24.9505 C14.8659998,25.092834 14.8286669,25.2246661 14.789,25.346 C14.7493331,25.4673339 14.7120002,25.5723329 14.677,25.661 L14.208,27.0505 L15.6045,27.0505 Z M17.484,29 L16.567,29 C16.4643328,29 16.3815003,28.9760836 16.3185,28.92825 C16.2554997,28.8804164 16.2076668,28.819167 16.175,28.7445 L15.874,27.8555 L13.935,27.8555 L13.634,28.7445 C13.6083332,28.8098337 13.5622503,28.8687497 13.49575,28.92125 C13.4292497,28.9737503 13.3470005,29 13.249,29 L12.325,29 L14.299,23.9005 L15.51,23.9005 L17.484,29 Z M20.9595,28.055 L20.9595,29 L17.8865,29 L17.8865,23.9005 L19.0695,23.9005 L19.0695,28.055 L20.9595,28.055 Z M26.5665,26.4485 C26.5665,26.8171685 26.5029173,27.1601651 26.37575,27.4775 C26.2485827,27.7948349 26.0695012,28.0707488 25.8385,28.30525 C25.6074988,28.5397512 25.3292516,28.7234993 25.00375,28.8565 C24.6782484,28.9895007 24.3171686,29.056 23.9205,29.056 C23.5238313,29.056 23.1621683,28.9895007 22.8355,28.8565 C22.5088317,28.7234993 22.2294178,28.5397512 21.99725,28.30525 C21.7650822,28.0707488 21.5854173,27.7948349 21.45825,27.4775 C21.3310827,27.1601651 21.2675,26.8171685 21.2675,26.4485 C21.2675,26.0798315 21.3310827,25.7368349 21.45825,25.4195 C21.5854173,25.1021651 21.7650822,24.8268345 21.99725,24.5935 C22.2294178,24.3601655 22.5088317,24.1770007 22.8355,24.044 C23.1621683,23.9109993 23.5238313,23.8445 23.9205,23.8445 C24.3171686,23.8445 24.6782484,23.9115827 25.00375,24.04575 C25.3292516,24.1799173 25.6074988,24.3636655 25.8385,24.597 C26.0695012,24.8303345 26.2485827,25.1056651 26.37575,25.423 C26.5029173,25.7403349 26.5665,26.0821648 26.5665,26.4485 Z M25.3555,26.4485 C25.3555,26.1964987 25.3228337,25.9695843 25.2575,25.76775 C25.1921663,25.5659157 25.0982506,25.3950007 24.97575,25.255 C24.8532494,25.1149993 24.7033342,25.007667 24.526,24.933 C24.3486658,24.858333 24.1468345,24.821 23.9205,24.821 C23.6918322,24.821 23.4882509,24.858333 23.30975,24.933 C23.1312491,25.007667 22.9807506,25.1149993 22.85825,25.255 C22.7357494,25.3950007 22.6418337,25.5659157 22.5765,25.76775 C22.5111663,25.9695843 22.4785,26.1964987 22.4785,26.4485 C22.4785,26.7028346 22.5111663,26.9309157 22.5765,27.13275 C22.6418337,27.3345843 22.7357494,27.5054993 22.85825,27.6455 C22.9807506,27.7855007 23.1312491,27.8922496 23.30975,27.96575 C23.4882509,28.0392504 23.6918322,28.076 23.9205,28.076 C24.1468345,28.076 24.3486658,28.0392504 24.526,27.96575 C24.7033342,27.8922496 24.8532494,27.7855007 24.97575,27.6455 C25.0982506,27.5054993 25.1921663,27.3345843 25.2575,27.13275 C25.3228337,26.9309157 25.3555,26.7028346 25.3555,26.4485 Z M29.713,26.3575 L31.526,26.3575 L31.526,28.51 C31.2646654,28.7013343 30.9864181,28.8401662 30.69125,28.9265 C30.3960819,29.0128338 30.0875016,29.056 29.7655,29.056 C29.3454979,29.056 28.9634184,28.990084 28.61925,28.85825 C28.2750816,28.726416 27.9805012,28.5444178 27.7355,28.31225 C27.4904988,28.0800822 27.3015007,27.8047516 27.1685,27.48625 C27.0354993,27.1677484 26.969,26.8218352 26.969,26.4485 C26.969,26.0681648 27.0319994,25.7187516 27.158,25.40025 C27.2840006,25.0817484 27.4642488,24.8070012 27.69875,24.576 C27.9332512,24.3449988 28.2167483,24.165334 28.54925,24.037 C28.8817517,23.908666 29.2533313,23.8445 29.664,23.8445 C29.8763344,23.8445 30.0758324,23.8619998 30.2625,23.897 C30.4491676,23.9320002 30.6212492,23.979833 30.77875,24.0405 C30.9362508,24.101167 31.0803327,24.1734996 31.211,24.2575 C31.3416673,24.3415004 31.4583328,24.4324995 31.561,24.5305 L31.218,25.052 C31.1643331,25.1336671 31.0949171,25.1838332 31.00975,25.2025 C30.9245829,25.2211668 30.8330005,25.200167 30.735,25.1395 C30.6416662,25.0834997 30.5535837,25.0350835 30.47075,24.99425 C30.3879163,24.9534165 30.3033338,24.9201668 30.217,24.8945 C30.1306662,24.8688332 30.0396671,24.8501667 29.944,24.8385 C29.8483329,24.8268333 29.7410006,24.821 29.622,24.821 C29.4003322,24.821 29.2008342,24.8600829 29.0235,24.93825 C28.8461658,25.0164171 28.695084,25.126666 28.57025,25.269 C28.445416,25.411334 28.349167,25.582249 28.2815,25.78175 C28.213833,25.981251 28.18,26.2034988 28.18,26.4485 C28.18,26.719168 28.217333,26.959499 28.292,27.1695 C28.366667,27.3795011 28.4722493,27.5568326 28.60875,27.7015 C28.7452507,27.8461674 28.9085824,27.9564163 29.09875,28.03225 C29.2889176,28.1080837 29.4994988,28.146 29.7305,28.146 C29.872834,28.146 30.0017494,28.1320001 30.11725,28.104 C30.2327506,28.0759999 30.3453328,28.0386669 30.455,27.992 L30.455,27.2185 L29.951,27.2185 C29.876333,27.2185 29.8180002,27.1986669 29.776,27.159 C29.7339998,27.1193331 29.713,27.069167 29.713,27.0085 L29.713,26.3575 Z" id="ANALOG" fill="#1E1E1E" fill-rule="nonzero"/>
  </g>
  <g id="g-1" stroke="none" stroke-width="1" fill="none" fill-rule="evenodd" transform="">
    <path d="M8.1205,3.4485 C8.1205,3.81716851 8.0569173,4.15724844 7.92975,4.46875 C7.8025827,4.78025156 7.62350115,5.04974886 7.3925,5.27725 C7.16149885,5.50475114 6.88325163,5.6820827 6.55775,5.80925 C6.23224837,5.9364173 5.87116865,6 5.4745,6 L3.4935,6 L3.4935,0.9005 L5.4745,0.9005 C5.87116865,0.9005 6.23224837,0.964666025 6.55775,1.093 C6.88325163,1.22133398 7.16149885,1.39866554 7.3925,1.625 C7.62350115,1.85133446 7.8025827,2.12024844 7.92975,2.43175 C8.0569173,2.74325156 8.1205,3.08216484 8.1205,3.4485 Z M6.9095,3.4485 C6.9095,3.19649874 6.87683366,2.96900102 6.8115,2.766 C6.74616634,2.56299899 6.65225061,2.39091737 6.52975,2.24975 C6.40724939,2.10858263 6.25733422,2.00008371 6.08,1.92425 C5.90266578,1.84841629 5.70083446,1.8105 5.4745,1.8105 L4.6835,1.8105 L4.6835,5.09 L5.4745,5.09 C5.70083446,5.09 5.90266578,5.05208371 6.08,4.97625 C6.25733422,4.90041629 6.40724939,4.79191737 6.52975,4.65075 C6.65225061,4.50958263 6.74616634,4.33750102 6.8115,4.1345 C6.87683366,3.93149899 6.9095,3.70283461 6.9095,3.4485 Z M10.0105,6 L8.8205,6 L8.8205,0.9005 L10.0105,0.9005 L10.0105,6 Z M13.4475,3.3575 L15.2605,3.3575 L15.2605,5.51 C14.9991654,5.70133429 14.7209181,5.84016623 14.42575,5.9265 C14.1305819,6.01283376 13.8220016,6.056 13.5,6.056 C13.0799979,6.056 12.6979184,5.99008399 12.35375,5.85825 C12.0095816,5.72641601 11.7150012,5.54441783 11.47,5.31225 C11.2249988,5.08008217 11.0360007,4.80475159 10.903,4.48625 C10.7699993,4.16774841 10.7035,3.8218352 10.7035,3.4485 C10.7035,3.06816477 10.7664994,2.71875159 10.8925,2.40025 C11.0185006,2.08174841 11.1987488,1.80700116 11.43325,1.576 C11.6677512,1.34499885 11.9512483,1.16533398 12.28375,1.037 C12.6162517,0.908666025 12.9878313,0.8445 13.3985,0.8445 C13.6108344,0.8445 13.8103324,0.861999825 13.997,0.897 C14.1836676,0.932000175 14.3557492,0.97983303 14.51325,1.0405 C14.6707508,1.10116697 14.8148327,1.17349958 14.9455,1.2575 C15.0761673,1.34150042 15.1928328,1.43249951 15.2955,1.5305 L14.9525,2.052 C14.8988331,2.13366707 14.8294171,2.18383324 14.74425,2.2025 C14.6590829,2.22116676 14.5675005,2.20016697 14.4695,2.1395 C14.3761662,2.08349972 14.2880837,2.03508354 14.20525,1.99425 C14.1224163,1.95341646 14.0378338,1.9201668 13.9515,1.8945 C13.8651662,1.8688332 13.7741671,1.85016672 13.6785,1.8385 C13.5828329,1.82683328 13.4755006,1.821 13.3565,1.821 C13.1348322,1.821 12.9353342,1.86008294 12.758,1.93825 C12.5806658,2.01641706 12.429584,2.12666595 12.30475,2.269 C12.179916,2.41133405 12.083667,2.582249 12.016,2.78175 C11.948333,2.981251 11.9145,3.20349877 11.9145,3.4485 C11.9145,3.71916802 11.951833,3.95949895 12.0265,4.1695 C12.101167,4.37950105 12.2067493,4.55683261 12.34325,4.7015 C12.4797507,4.84616739 12.6430824,4.95641629 12.83325,5.03225 C13.0234176,5.10808371 13.2339988,5.146 13.465,5.146 C13.607334,5.146 13.7362494,5.13200014 13.85175,5.104 C13.9672506,5.07599986 14.0798328,5.0386669 14.1895,4.992 L14.1895,4.2185 L13.6855,4.2185 C13.610833,4.2185 13.5525002,4.19866686 13.5105,4.159 C13.4684998,4.11933313 13.4475,4.06916697 13.4475,4.0085 L13.4475,3.3575 Z M17.245,6 L16.055,6 L16.055,0.9005 L17.245,0.9005 L17.245,6 Z M21.8965,1.8385 L20.4615,1.8385 L20.4615,6 L19.2785,6 L19.2785,1.8385 L17.8435,1.8385 L17.8435,0.9005 L21.8965,0.9005 L21.8965,1.8385 Z M25.19,4.0505 L24.7175,2.654 C24.6824998,2.56533289 24.6451669,2.46091727 24.6055,2.34075 C24.5658331,2.22058273 24.5261669,2.0905007 24.4865,1.9505 C24.4514998,2.09283405 24.4141669,2.22466606 24.3745,2.346 C24.3348331,2.46733394 24.2975002,2.57233289 24.2625,2.661 L23.7935,4.0505 L25.19,4.0505 Z M27.0695,6 L26.1525,6 C26.0498328,6 25.9670003,5.97608357 25.904,5.92825 C25.8409997,5.88041643 25.7931668,5.81916704 25.7605,5.7445 L25.4595,4.8555 L23.5205,4.8555 L23.2195,5.7445 C23.1938332,5.80983366 23.1477503,5.86874974 23.08125,5.92125 C23.0147497,5.97375026 22.9325005,6 22.8345,6 L21.9105,6 L23.8845,0.9005 L25.0955,0.9005 L27.0695,6 Z M30.545,5.055 L30.545,6 L27.472,6 L27.472,0.9005 L28.655,0.9005 L28.655,5.055 L30.545,5.055 Z" id="path-1" fill="#1E1E1E" fill-rule="nonzero"/>
    <path d="M5.1885,27.0505 L4.716,25.654 C4.68099982,25.5653329 4.64366687,25.4609173 4.604,25.34075 C4.56433314,25.2205827 4.52466687,25.0905007 4.485,24.9505 C4.44999982,25.092834 4.41266687,25.2246661 4.373,25.346 C4.33333314,25.4673339 4.29600017,25.5723329 4.261,25.661 L3.792,27.0505 L5.1885,27.0505 Z M7.068,29 L6.151,29 C6.04833282,29 5.96550031,28.9760836 5.9025,28.92825 C5.83949969,28.8804164 5.79166683,28.819167 5.759,28.7445 L5.458,27.8555 L3.519,27.8555 L3.218,28.7445 C3.1923332,28.8098337 3.14625033,28.8687497 3.07975,28.92125 C3.01324967,28.9737503 2.93100049,29 2.833,29 L1.909,29 L3.883,23.9005 L5.094,23.9005 L7.068,29 Z M11.9225,23.9005 L11.9225,29 L11.3065,29 C11.2154995,29 11.1390836,28.9854168 11.07725,28.95625 C11.0154164,28.9270832 10.954167,28.8763337 10.8935,28.804 L8.489,25.7625 C8.49833338,25.8535005 8.50474998,25.9415829 8.50825,26.02675 C8.51175002,26.1119171 8.5135,26.191833 8.5135,26.2665 L8.5135,29 L7.4705,29 L7.4705,23.9005 L8.0935,23.9005 C8.14483359,23.9005 8.18799983,23.9028333 8.223,23.9075 C8.25800018,23.9121667 8.28949986,23.9209166 8.3175,23.93375 C8.34550014,23.9465834 8.37233321,23.9646666 8.398,23.988 C8.4236668,24.0113335 8.45283317,24.0428331 8.4855,24.0825 L10.911,27.145 C10.8993333,27.0469995 10.8911667,26.9519171 10.8865,26.85975 C10.8818333,26.7675829 10.8795,26.6806671 10.8795,26.599 L10.8795,23.9005 L11.9225,23.9005 Z M15.6045,27.0505 L15.132,25.654 C15.0969998,25.5653329 15.0596669,25.4609173 15.02,25.34075 C14.9803331,25.2205827 14.9406669,25.0905007 14.901,24.9505 C14.8659998,25.092834 14.8286669,25.2246661 14.789,25.346 C14.7493331,25.4673339 14.7120002,25.5723329 14.677,25.661 L14.208,27.0505 L15.6045,27.0505 Z M17.484,29 L16.567,29 C16.4643328,29 16.3815003,28.9760836 16.3185,28.92825 C16.2554997,28.8804164 16.2076668,28.819167 16.175,28.7445 L15.874,27.8555 L13.935,27.8555 L13.634,28.7445 C13.6083332,28.8098337 13.5622503,28.8687497 13.49575,28.92125 C13.4292497,28.9737503 13.3470005,29 13.249,29 L12.325,29 L14.299,23.9005 L15.51,23.9005 L17.484,29 Z M20.9595,28.055 L20.9595,29 L17.8865,29 L17.8865,23.9005 L19.0695,23.9005 L19.0695,28.055 L20.9595,28.055 Z M26.5665,26.4485 C26.5665,26.8171685 26.5029173,27.1601651 26.37575,27.4775 C26.2485827,27.7948349 26.0695012,28.0707488 25.8385,28.30525 C25.6074988,28.5397512 25.3292516,28.7234993 25.00375,28.8565 C24.6782484,28.9895007 24.3171686,29.056 23.9205,29.056 C23.5238313,29.056 23.1621683,28.9895007 22.8355,28.8565 C22.5088317,28.7234993 22.2294178,28.5397512 21.99725,28.30525 C21.7650822,28.0707488 21.5854173,27.7948349 21.45825,27.4775 C21.3310827,27.1601651 21.2675,26.8171685 21.2675,26.4485 C21.2675,26.0798315 21.3310827,25.7368349 21.45825,25.4195 C21.5854173,25.1021651 21.7650822,24.8268345 21.99725,24.5935 C22.2294178,24.3601655 22.5088317,24.1770007 22.8355,24.044 C23.1621683,23.9109993 23.5238313,23.8445 23.9205,23.8445 C24.3171686,23.8445 24.6782484,23.9115827 25.00375,24.04575 C25.3292516,24.1799173 25.6074988,24.3636655 25.8385,24.597 C26.0695012,24.8303345 26.2485827,25.1056651 26.37575,25.423 C26.5029173,25.7403349 26.5665,26.0821648 26.5665,26.4485 Z M25.3555,26.4485 C25.3555,26.1964987 25.3228337,25.9695843 25.2575,25.76775 C25.1921663,25.5659157 25.0982506,25.3950007 24.97575,25.255 C24.8532494,25.1149993 24.7033342,25.007667 24.526,24.933 C24.3486658,24.858333 24.1468345,24.821 23.9205,24.821 C23.6918322,24.821 23.4882509,24.858333 23.30975,24.933 C23.1312491,25.007667 22.9807506,25.1149993 22.85825,25.255 C22.7357494,25.3950007 22.6418337,25.5659157 22.5765,25.76775 C22.5111663,25.9695843 22.4785,26.1964987 22.4785,26.4485 C22.4785,26.7028346 22.5111663,26.9309157 22.5765,27.13275 C22.6418337,27.3345843 22.7357494,27.5054993 22.85825,27.6455 C22.9807506,27.7855007 23.1312491,27.8922496 23.30975,27.96575 C23.4882509,28.0392504 23.6918322,28.076 23.9205,28.076 C24.1468345,28.076 24.3486658,28.0392504 24.526,27.96575 C24.7033342,27.8922496 24.8532494,27.7855007 24.97575,27.6455 C25.0982506,27.5054993 25.1921663,27.3345843 25.2575,27.13275 C25.3228337,26.9309157 25.3555,26.7028346 25.3555,26.4485 Z M29.713,26.3575 L31.526,26.3575 L31.526,28.51 C31.2646654,28.7013343 30.9864181,28.8401662 30.69125,28.9265 C30.3960819,29.0128338 30.0875016,29.056 29.7655,29.056 C29.3454979,29.056 28.9634184,28.990084 28.61925,28.85825 C28.2750816,28.726416 27.9805012,28.5444178 27.7355,28.31225 C27.4904988,28.0800822 27.3015007,27.8047516 27.1685,27.48625 C27.0354993,27.1677484 26.969,26.8218352 26.969,26.4485 C26.969,26.0681648 27.0319994,25.7187516 27.158,25.40025 C27.2840006,25.0817484 27.4642488,24.8070012 27.69875,24.576 C27.9332512,24.3449988 28.2167483,24.165334 28.54925,24.037 C28.8817517,23.908666 29.2533313,23.8445 29.664,23.8445 C29.8763344,23.8445 30.0758324,23.8619998 30.2625,23.897 C30.4491676,23.9320002 30.6212492,23.979833 30.77875,24.0405 C30.9362508,24.101167 31.0803327,24.1734996 31.211,24.2575 C31.3416673,24.3415004 31.4583328,24.4324995 31.561,24.5305 L31.218,25.052 C31.1643331,25.1336671 31.0949171,25.1838332 31.00975,25.2025 C30.9245829,25.2211668 30.8330005,25.200167 30.735,25.1395 C30.6416662,25.0834997 30.5535837,25.0350835 30.47075,24.99425 C30.3879163,24.9534165 30.3033338,24.9201668 30.217,24.8945 C30.1306662,24.8688332 30.0396671,24.8501667 29.944,24.8385 C29.8483329,24.8268333 29.7410006,24.821 29.622,24.821 C29.4003322,24.821 29.2008342,24.8600829 29.0235,24.93825 C28.8461658,25.0164171 28.695084,25.126666 28.57025,25.269 C28.445416,25.411334 28.349167,25.582249 28.2815,25.78175 C28.213833,25.981251 28.18,26.2034988 28.18,26.4485 C28.18,26.719168 28.217333,26.959499 28.292,27.1695 C28.366667,27.3795011 28.4722493,27.5568326 28.60875,27.7015 C28.7452507,27.8461674 28.9085824,27.9564163 29.09875,28.03225 C29.2889176,28.1080837 29.4994988,28.146 29.7305,28.146 C29.872834,28.146 30.0017494,28.1320001 30.11725,28.104 C30.2327506,28.0759999 30.3453328,28.0386669 30.455,27.992 L30.455,27.2185 L29.951,27.2185 C29.876333,27.2185 29.8180002,27.1986669 29.776,27.159 C29.7339998,27.1193331 29.713,27.069167 29.713,27.0085 L29.713,26.3575 Z" id="path-2" fill="#1E1E1E" fill-rule="nonzero"/>
  </g>
</svg>