<svg width="37" height="12" viewBox="0 0 37 12" fill="none" xmlns="http://www.w3.org/2000/svg">
<rect x="2.5" y="2.5" width="32" height="7" rx="1" fill="#F1BB72"/>
<rect x="2.5" y="2.5" width="32" height="7" rx="1" stroke="#F1BB72"/>
<path d="M13.0187 4.268C12.9867 4.324 12.952 4.36533 12.9147 4.392C12.88 4.416 12.836 4.428 12.7827 4.428C12.7267 4.428 12.6654 4.408 12.5987 4.368C12.5347 4.32533 12.4574 4.27867 12.3667 4.228C12.276 4.17733 12.1694 4.132 12.0467 4.092C11.9267 4.04933 11.784 4.028 11.6187 4.028C11.4694 4.028 11.3387 4.04667 11.2267 4.084C11.1147 4.11867 11.02 4.168 10.9427 4.232C10.868 4.296 10.812 4.37333 10.7747 4.464C10.7374 4.552 10.7187 4.64933 10.7187 4.756C10.7187 4.892 10.756 5.00533 10.8307 5.096C10.908 5.18667 11.0094 5.264 11.1347 5.328C11.26 5.392 11.4027 5.44933 11.5627 5.5C11.7227 5.55067 11.8867 5.60533 12.0547 5.664C12.2227 5.72 12.3867 5.78667 12.5467 5.864C12.7067 5.93867 12.8494 6.03467 12.9747 6.152C13.1 6.26667 13.2 6.408 13.2747 6.576C13.352 6.744 13.3907 6.948 13.3907 7.188C13.3907 7.44933 13.3454 7.69467 13.2547 7.924C13.1667 8.15067 13.036 8.34933 12.8627 8.52C12.692 8.688 12.4827 8.82133 12.2347 8.92C11.9867 9.016 11.7027 9.064 11.3827 9.064C11.1987 9.064 11.0174 9.04533 10.8387 9.008C10.66 8.97333 10.488 8.92267 10.3227 8.856C10.16 8.78933 10.0067 8.70933 9.86269 8.616C9.71869 8.52267 9.59069 8.41867 9.47869 8.304L9.79469 7.788C9.82135 7.75067 9.85602 7.72 9.89869 7.696C9.94135 7.66933 9.98669 7.656 10.0347 7.656C10.1014 7.656 10.1734 7.684 10.2507 7.74C10.328 7.79333 10.42 7.85333 10.5267 7.92C10.6334 7.98667 10.7574 8.048 10.8987 8.104C11.0427 8.15733 11.2147 8.184 11.4147 8.184C11.7214 8.184 11.9587 8.112 12.1267 7.968C12.2947 7.82133 12.3787 7.612 12.3787 7.34C12.3787 7.188 12.34 7.064 12.2627 6.968C12.188 6.872 12.088 6.792 11.9627 6.728C11.8374 6.66133 11.6947 6.60533 11.5347 6.56C11.3747 6.51467 11.212 6.46533 11.0467 6.412C10.8814 6.35867 10.7187 6.29467 10.5587 6.22C10.3987 6.14533 10.256 6.048 10.1307 5.928C10.0054 5.808 9.90402 5.65867 9.82669 5.48C9.75202 5.29867 9.71469 5.076 9.71469 4.812C9.71469 4.60133 9.75602 4.396 9.83869 4.196C9.92402 3.996 10.0467 3.81867 10.2067 3.664C10.3667 3.50933 10.564 3.38533 10.7987 3.292C11.0334 3.19867 11.3027 3.152 11.6067 3.152C11.948 3.152 12.2627 3.20533 12.5507 3.312C12.8387 3.41867 13.084 3.568 13.2867 3.76L13.0187 4.268ZM15.2416 9.064C14.8843 9.064 14.6096 8.964 14.4176 8.764C14.2283 8.56133 14.1336 8.28267 14.1336 7.928V5.636H13.7136C13.6603 5.636 13.615 5.61867 13.5776 5.584C13.5403 5.54933 13.5216 5.49733 13.5216 5.428V5.036L14.1816 4.928L14.3896 3.808C14.403 3.75467 14.4283 3.71333 14.4656 3.684C14.503 3.65467 14.551 3.64 14.6096 3.64H15.1216V4.932H16.2176V5.636H15.1216V7.86C15.1216 7.988 15.1523 8.088 15.2136 8.16C15.2776 8.232 15.3643 8.268 15.4736 8.268C15.535 8.268 15.5856 8.26133 15.6256 8.248C15.6683 8.232 15.7043 8.216 15.7336 8.2C15.7656 8.184 15.7936 8.16933 15.8176 8.156C15.8416 8.14 15.8656 8.132 15.8896 8.132C15.919 8.132 15.943 8.14 15.9616 8.156C15.9803 8.16933 16.0003 8.19067 16.0216 8.22L16.3176 8.7C16.1736 8.82 16.0083 8.91067 15.8216 8.972C15.635 9.03333 15.4416 9.064 15.2416 9.064ZM18.5149 4.832C18.8189 4.832 19.0949 4.88133 19.3429 4.98C19.5936 5.07867 19.8069 5.21867 19.9829 5.4C20.1616 5.58133 20.2989 5.80267 20.3949 6.064C20.4909 6.32533 20.5389 6.61733 20.5389 6.94C20.5389 7.26533 20.4909 7.55867 20.3949 7.82C20.2989 8.08133 20.1616 8.304 19.9829 8.488C19.8069 8.672 19.5936 8.81333 19.3429 8.912C19.0949 9.01067 18.8189 9.06 18.5149 9.06C18.2083 9.06 17.9296 9.01067 17.6789 8.912C17.4283 8.81333 17.2136 8.672 17.0349 8.488C16.8589 8.304 16.7216 8.08133 16.6229 7.82C16.5269 7.55867 16.4789 7.26533 16.4789 6.94C16.4789 6.61733 16.5269 6.32533 16.6229 6.064C16.7216 5.80267 16.8589 5.58133 17.0349 5.4C17.2136 5.21867 17.4283 5.07867 17.6789 4.98C17.9296 4.88133 18.2083 4.832 18.5149 4.832ZM18.5149 8.3C18.8563 8.3 19.1083 8.18533 19.2709 7.956C19.4363 7.72667 19.5189 7.39067 19.5189 6.948C19.5189 6.50533 19.4363 6.168 19.2709 5.936C19.1083 5.704 18.8563 5.588 18.5149 5.588C18.1683 5.588 17.9109 5.70533 17.7429 5.94C17.5776 6.172 17.4949 6.508 17.4949 6.948C17.4949 7.388 17.5776 7.724 17.7429 7.956C17.9109 8.18533 18.1683 8.3 18.5149 8.3ZM22.1047 5.608C22.2327 5.36267 22.3847 5.17067 22.5607 5.032C22.7367 4.89067 22.9447 4.82 23.1847 4.82C23.374 4.82 23.526 4.86133 23.6407 4.944L23.5767 5.684C23.5634 5.732 23.5434 5.76667 23.5167 5.788C23.4927 5.80667 23.4594 5.816 23.4167 5.816C23.3767 5.816 23.3167 5.80933 23.2367 5.796C23.1594 5.78267 23.0834 5.776 23.0087 5.776C22.8994 5.776 22.802 5.792 22.7167 5.824C22.6314 5.856 22.554 5.90267 22.4847 5.964C22.418 6.02267 22.358 6.09467 22.3047 6.18C22.254 6.26533 22.206 6.36267 22.1607 6.472V9H21.1727V4.896H21.7527C21.854 4.896 21.9247 4.91467 21.9647 4.952C22.0047 4.98667 22.0314 5.05067 22.0447 5.144L22.1047 5.608ZM26.5639 6.476C26.5639 6.348 26.5452 6.228 26.5079 6.116C26.4732 6.00133 26.4199 5.90133 26.3479 5.816C26.2759 5.73067 26.1839 5.664 26.0719 5.616C25.9625 5.56533 25.8345 5.54 25.6879 5.54C25.4025 5.54 25.1772 5.62133 25.0119 5.784C24.8492 5.94667 24.7452 6.17733 24.6999 6.476H26.5639ZM24.6799 7.072C24.6959 7.28267 24.7332 7.46533 24.7919 7.62C24.8505 7.772 24.9279 7.89867 25.0239 8C25.1199 8.09867 25.2332 8.17333 25.3639 8.224C25.4972 8.272 25.6439 8.296 25.8039 8.296C25.9639 8.296 26.1012 8.27733 26.2159 8.24C26.3332 8.20267 26.4345 8.16133 26.5199 8.116C26.6079 8.07067 26.6839 8.02933 26.7479 7.992C26.8145 7.95467 26.8785 7.936 26.9399 7.936C27.0225 7.936 27.0839 7.96667 27.1239 8.028L27.4079 8.388C27.2985 8.516 27.1759 8.624 27.0399 8.712C26.9039 8.79733 26.7612 8.86667 26.6119 8.92C26.4652 8.97067 26.3145 9.00667 26.1599 9.028C26.0079 9.04933 25.8599 9.06 25.7159 9.06C25.4305 9.06 25.1652 9.01333 24.9199 8.92C24.6745 8.824 24.4612 8.684 24.2799 8.5C24.0985 8.31333 23.9559 8.084 23.8519 7.812C23.7479 7.53733 23.6959 7.22 23.6959 6.86C23.6959 6.58 23.7412 6.31733 23.8319 6.072C23.9225 5.824 24.0519 5.60933 24.2199 5.428C24.3905 5.244 24.5972 5.09867 24.8399 4.992C25.0852 4.88533 25.3612 4.832 25.6679 4.832C25.9265 4.832 26.1652 4.87333 26.3839 4.956C26.6025 5.03867 26.7905 5.16 26.9479 5.32C27.1052 5.47733 27.2279 5.672 27.3159 5.904C27.4065 6.13333 27.4519 6.396 27.4519 6.692C27.4519 6.84133 27.4359 6.94267 27.4039 6.996C27.3719 7.04667 27.3105 7.072 27.2199 7.072H24.6799Z" fill="black"/>
</svg>
