<svg width="51" height="117" viewBox="0 0 51 117" fill="none" xmlns="http://www.w3.org/2000/svg">
<path d="M2 4C2 2.89543 2.89543 2 4 2H47C48.1046 2 49 2.89543 49 4V10C49 11.1046 48.1046 12 47 12H4C2.89543 12 2 11.1046 2 10V4Z" fill="#804900"/>
<path d="M13.4037 5.072V6.784H15.5717V7.644H13.4037V10H12.3237V4.216H15.9717V5.072H13.4037ZM17.3106 6.608C17.4386 6.36267 17.5906 6.17067 17.7666 6.032C17.9426 5.89067 18.1506 5.82 18.3906 5.82C18.58 5.82 18.732 5.86133 18.8466 5.944L18.7826 6.684C18.7693 6.732 18.7493 6.76667 18.7226 6.788C18.6986 6.80667 18.6653 6.816 18.6226 6.816C18.5826 6.816 18.5226 6.80933 18.4426 6.796C18.3653 6.78267 18.2893 6.776 18.2146 6.776C18.1053 6.776 18.008 6.792 17.9226 6.824C17.8373 6.856 17.76 6.90267 17.6906 6.964C17.624 7.02267 17.564 7.09467 17.5106 7.18C17.46 7.26533 17.412 7.36267 17.3666 7.472V10H16.3786V5.896H16.9586C17.06 5.896 17.1306 5.91467 17.1706 5.952C17.2106 5.98667 17.2373 6.05067 17.2506 6.144L17.3106 6.608ZM21.8898 7.476C21.8898 7.348 21.8711 7.228 21.8338 7.116C21.7991 7.00133 21.7458 6.90133 21.6738 6.816C21.6018 6.73067 21.5098 6.664 21.3978 6.616C21.2885 6.56533 21.1605 6.54 21.0138 6.54C20.7285 6.54 20.5031 6.62133 20.3378 6.784C20.1751 6.94667 20.0711 7.17733 20.0258 7.476H21.8898ZM20.0058 8.072C20.0218 8.28267 20.0591 8.46533 20.1178 8.62C20.1765 8.772 20.2538 8.89867 20.3498 9C20.4458 9.09867 20.5591 9.17333 20.6898 9.224C20.8231 9.272 20.9698 9.296 21.1298 9.296C21.2898 9.296 21.4271 9.27733 21.5418 9.24C21.6591 9.20267 21.7605 9.16133 21.8458 9.116C21.9338 9.07067 22.0098 9.02933 22.0738 8.992C22.1405 8.95467 22.2045 8.936 22.2658 8.936C22.3485 8.936 22.4098 8.96667 22.4498 9.028L22.7338 9.388C22.6245 9.516 22.5018 9.624 22.3658 9.712C22.2298 9.79733 22.0871 9.86667 21.9378 9.92C21.7911 9.97067 21.6405 10.0067 21.4858 10.028C21.3338 10.0493 21.1858 10.06 21.0418 10.06C20.7565 10.06 20.4911 10.0133 20.2458 9.92C20.0005 9.824 19.7871 9.684 19.6058 9.5C19.4245 9.31333 19.2818 9.084 19.1778 8.812C19.0738 8.53733 19.0218 8.22 19.0218 7.86C19.0218 7.58 19.0671 7.31733 19.1578 7.072C19.2485 6.824 19.3778 6.60933 19.5458 6.428C19.7165 6.244 19.9231 6.09867 20.1658 5.992C20.4111 5.88533 20.6871 5.832 20.9938 5.832C21.2525 5.832 21.4911 5.87333 21.7098 5.956C21.9285 6.03867 22.1165 6.16 22.2738 6.32C22.4311 6.47733 22.5538 6.672 22.6418 6.904C22.7325 7.13333 22.7778 7.396 22.7778 7.692C22.7778 7.84133 22.7618 7.94267 22.7298 7.996C22.6978 8.04667 22.6365 8.072 22.5458 8.072H20.0058ZM26.1633 7.476C26.1633 7.348 26.1446 7.228 26.1073 7.116C26.0726 7.00133 26.0193 6.90133 25.9473 6.816C25.8753 6.73067 25.7833 6.664 25.6713 6.616C25.5619 6.56533 25.4339 6.54 25.2873 6.54C25.0019 6.54 24.7766 6.62133 24.6113 6.784C24.4486 6.94667 24.3446 7.17733 24.2993 7.476H26.1633ZM24.2793 8.072C24.2953 8.28267 24.3326 8.46533 24.3913 8.62C24.4499 8.772 24.5273 8.89867 24.6233 9C24.7193 9.09867 24.8326 9.17333 24.9633 9.224C25.0966 9.272 25.2433 9.296 25.4033 9.296C25.5633 9.296 25.7006 9.27733 25.8153 9.24C25.9326 9.20267 26.0339 9.16133 26.1193 9.116C26.2073 9.07067 26.2833 9.02933 26.3473 8.992C26.4139 8.95467 26.4779 8.936 26.5393 8.936C26.6219 8.936 26.6833 8.96667 26.7233 9.028L27.0073 9.388C26.8979 9.516 26.7753 9.624 26.6393 9.712C26.5033 9.79733 26.3606 9.86667 26.2113 9.92C26.0646 9.97067 25.9139 10.0067 25.7593 10.028C25.6073 10.0493 25.4593 10.06 25.3153 10.06C25.0299 10.06 24.7646 10.0133 24.5193 9.92C24.2739 9.824 24.0606 9.684 23.8793 9.5C23.6979 9.31333 23.5553 9.084 23.4513 8.812C23.3473 8.53733 23.2952 8.22 23.2952 7.86C23.2952 7.58 23.3406 7.31733 23.4313 7.072C23.5219 6.824 23.6513 6.60933 23.8193 6.428C23.9899 6.244 24.1966 6.09867 24.4393 5.992C24.6846 5.88533 24.9606 5.832 25.2673 5.832C25.5259 5.832 25.7646 5.87333 25.9833 5.956C26.2019 6.03867 26.3899 6.16 26.5473 6.32C26.7046 6.47733 26.8273 6.672 26.9153 6.904C27.0059 7.13333 27.0512 7.396 27.0512 7.692C27.0512 7.84133 27.0353 7.94267 27.0033 7.996C26.9713 8.04667 26.9099 8.072 26.8193 8.072H24.2793ZM28.7247 6.608C28.8527 6.36267 29.0047 6.17067 29.1807 6.032C29.3567 5.89067 29.5647 5.82 29.8047 5.82C29.994 5.82 30.146 5.86133 30.2607 5.944L30.1967 6.684C30.1834 6.732 30.1634 6.76667 30.1367 6.788C30.1127 6.80667 30.0794 6.816 30.0367 6.816C29.9967 6.816 29.9367 6.80933 29.8567 6.796C29.7794 6.78267 29.7034 6.776 29.6287 6.776C29.5194 6.776 29.422 6.792 29.3367 6.824C29.2514 6.856 29.174 6.90267 29.1047 6.964C29.038 7.02267 28.978 7.09467 28.9247 7.18C28.874 7.26533 28.826 7.36267 28.7807 7.472V10H27.7927V5.896H28.3727C28.474 5.896 28.5447 5.91467 28.5847 5.952C28.6247 5.98667 28.6514 6.05067 28.6647 6.144L28.7247 6.608ZM34.3131 5.896V10H33.7091C33.5784 10 33.4957 9.94 33.4611 9.82L33.3931 9.492C33.2251 9.66267 33.0397 9.80133 32.8371 9.908C32.6344 10.012 32.3957 10.064 32.1211 10.064C31.8971 10.064 31.6984 10.0267 31.5251 9.952C31.3544 9.87467 31.2104 9.76667 31.0931 9.628C30.9757 9.48933 30.8864 9.32533 30.8251 9.136C30.7664 8.944 30.7371 8.73333 30.7371 8.504V5.896H31.7251V8.504C31.7251 8.75467 31.7824 8.94933 31.8971 9.088C32.0144 9.224 32.1891 9.292 32.4211 9.292C32.5917 9.292 32.7517 9.25467 32.9011 9.18C33.0504 9.10267 33.1917 8.99733 33.3251 8.864V5.896H34.3131ZM36.2167 6.4C36.2994 6.31733 36.386 6.24133 36.4767 6.172C36.57 6.1 36.6674 6.04 36.7687 5.992C36.8727 5.94133 36.9834 5.90267 37.1007 5.876C37.218 5.84667 37.346 5.832 37.4847 5.832C37.7087 5.832 37.9074 5.87067 38.0807 5.948C38.254 6.02267 38.398 6.12933 38.5127 6.268C38.63 6.404 38.718 6.568 38.7767 6.76C38.838 6.94933 38.8687 7.15867 38.8687 7.388V10H37.8807V7.388C37.8807 7.13733 37.8234 6.944 37.7087 6.808C37.594 6.66933 37.4194 6.6 37.1847 6.6C37.014 6.6 36.854 6.63867 36.7047 6.716C36.5554 6.79333 36.414 6.89867 36.2807 7.032V10H35.2927V5.896H35.8967C36.0247 5.896 36.1087 5.956 36.1487 6.076L36.2167 6.4Z" fill="#FF9300"/>
<path d="M2 55.5C2 54.3954 2.89543 53.5 4 53.5H47C48.1046 53.5 49 54.3954 49 55.5V61.5C49 62.6046 48.1046 63.5 47 63.5H4C2.89543 63.5 2 62.6046 2 61.5V55.5Z" fill="#804900"/>
<path d="M8.62625 58.14H8.87825C8.97958 58.14 9.06358 58.1267 9.13025 58.1C9.19692 58.0707 9.25425 58.0253 9.30225 57.964L10.8983 55.944C10.9649 55.8587 11.0343 55.8 11.1063 55.768C11.1809 55.7333 11.2743 55.716 11.3863 55.716H12.3143L10.3663 58.12C10.2516 58.2667 10.1329 58.3707 10.0103 58.432C10.0983 58.464 10.1769 58.5093 10.2463 58.568C10.3183 58.624 10.3863 58.6987 10.4503 58.792L12.4583 61.5H11.5103C11.3823 61.5 11.2863 61.4827 11.2222 61.448C11.1609 61.4107 11.1089 61.3573 11.0663 61.288L9.43025 59.152C9.37958 59.08 9.32092 59.0293 9.25425 59C9.18758 58.9707 9.09158 58.956 8.96625 58.956H8.62625V61.5H7.55025V55.716H8.62625V58.14ZM15.2258 58.976C15.2258 58.848 15.2071 58.728 15.1698 58.616C15.1351 58.5013 15.0818 58.4013 15.0098 58.316C14.9378 58.2307 14.8458 58.164 14.7338 58.116C14.6244 58.0653 14.4964 58.04 14.3498 58.04C14.0644 58.04 13.8391 58.1213 13.6738 58.284C13.5111 58.4467 13.4071 58.6773 13.3618 58.976H15.2258ZM13.3418 59.572C13.3578 59.7827 13.3951 59.9653 13.4538 60.12C13.5124 60.272 13.5898 60.3987 13.6858 60.5C13.7818 60.5987 13.8951 60.6733 14.0258 60.724C14.1591 60.772 14.3058 60.796 14.4658 60.796C14.6258 60.796 14.7631 60.7773 14.8778 60.74C14.9951 60.7027 15.0964 60.6613 15.1818 60.616C15.2698 60.5707 15.3458 60.5293 15.4098 60.492C15.4764 60.4547 15.5404 60.436 15.6018 60.436C15.6844 60.436 15.7458 60.4667 15.7858 60.528L16.0698 60.888C15.9604 61.016 15.8378 61.124 15.7018 61.212C15.5658 61.2973 15.4231 61.3667 15.2738 61.42C15.1271 61.4707 14.9764 61.5067 14.8218 61.528C14.6698 61.5493 14.5218 61.56 14.3778 61.56C14.0924 61.56 13.8271 61.5133 13.5818 61.42C13.3364 61.324 13.1231 61.184 12.9418 61C12.7604 60.8133 12.6178 60.584 12.5138 60.312C12.4098 60.0373 12.3577 59.72 12.3577 59.36C12.3577 59.08 12.4031 58.8173 12.4938 58.572C12.5844 58.324 12.7138 58.1093 12.8818 57.928C13.0524 57.744 13.2591 57.5987 13.5018 57.492C13.7471 57.3853 14.0231 57.332 14.3298 57.332C14.5884 57.332 14.8271 57.3733 15.0458 57.456C15.2644 57.5387 15.4524 57.66 15.6098 57.82C15.7671 57.9773 15.8898 58.172 15.9778 58.404C16.0684 58.6333 16.1137 58.896 16.1137 59.192C16.1137 59.3413 16.0978 59.4427 16.0658 59.496C16.0338 59.5467 15.9724 59.572 15.8818 59.572H13.3418ZM20.466 57.396L18.23 62.628C18.2007 62.6973 18.162 62.7493 18.114 62.784C18.0687 62.8213 17.998 62.84 17.902 62.84H17.166L17.934 61.192L16.274 57.396H17.142C17.2193 57.396 17.2793 57.4147 17.322 57.452C17.3673 57.4893 17.4007 57.532 17.422 57.58L18.294 59.708C18.3233 59.78 18.3473 59.852 18.366 59.924C18.3873 59.996 18.4073 60.0693 18.426 60.144C18.45 60.0693 18.474 59.996 18.498 59.924C18.522 59.8493 18.5487 59.776 18.578 59.704L19.402 57.58C19.4233 57.5267 19.458 57.4827 19.506 57.448C19.5567 57.4133 19.6127 57.396 19.674 57.396H20.466ZM22.3248 61.564C21.9674 61.564 21.6928 61.464 21.5008 61.264C21.3114 61.0613 21.2168 60.7827 21.2168 60.428V58.136H20.7968C20.7434 58.136 20.6981 58.1187 20.6608 58.084C20.6234 58.0493 20.6048 57.9973 20.6048 57.928V57.536L21.2648 57.428L21.4728 56.308C21.4861 56.2547 21.5114 56.2133 21.5488 56.184C21.5861 56.1547 21.6341 56.14 21.6928 56.14H22.2048V57.432H23.3008V58.136H22.2048V60.36C22.2048 60.488 22.2354 60.588 22.2968 60.66C22.3608 60.732 22.4474 60.768 22.5568 60.768C22.6181 60.768 22.6688 60.7613 22.7088 60.748C22.7514 60.732 22.7874 60.716 22.8168 60.7C22.8488 60.684 22.8768 60.6693 22.9008 60.656C22.9248 60.64 22.9488 60.632 22.9728 60.632C23.0021 60.632 23.0261 60.64 23.0448 60.656C23.0634 60.6693 23.0834 60.6907 23.1048 60.72L23.4008 61.2C23.2568 61.32 23.0914 61.4107 22.9048 61.472C22.7181 61.5333 22.5248 61.564 22.3248 61.564ZM24.8653 58.108C24.9933 57.8627 25.1453 57.6707 25.3213 57.532C25.4973 57.3907 25.7053 57.32 25.9453 57.32C26.1346 57.32 26.2866 57.3613 26.4013 57.444L26.3373 58.184C26.324 58.232 26.304 58.2667 26.2773 58.288C26.2533 58.3067 26.22 58.316 26.1773 58.316C26.1373 58.316 26.0773 58.3093 25.9973 58.296C25.92 58.2827 25.844 58.276 25.7693 58.276C25.66 58.276 25.5626 58.292 25.4773 58.324C25.392 58.356 25.3146 58.4027 25.2453 58.464C25.1786 58.5227 25.1186 58.5947 25.0653 58.68C25.0146 58.7653 24.9666 58.8627 24.9213 58.972V61.5H23.9333V57.396H24.5133C24.6146 57.396 24.6853 57.4147 24.7253 57.452C24.7653 57.4867 24.792 57.5507 24.8053 57.644L24.8653 58.108ZM27.9417 57.396V61.5H26.9497V57.396H27.9417ZM28.0777 56.2C28.0777 56.2853 28.0604 56.3653 28.0257 56.44C27.991 56.5147 27.9444 56.58 27.8857 56.636C27.8297 56.692 27.763 56.7373 27.6857 56.772C27.6084 56.804 27.5257 56.82 27.4377 56.82C27.3524 56.82 27.271 56.804 27.1937 56.772C27.119 56.7373 27.0537 56.692 26.9977 56.636C26.9417 56.58 26.8964 56.5147 26.8617 56.44C26.8297 56.3653 26.8137 56.2853 26.8137 56.2C26.8137 56.112 26.8297 56.0293 26.8617 55.952C26.8964 55.8747 26.9417 55.808 26.9977 55.752C27.0537 55.696 27.119 55.652 27.1937 55.62C27.271 55.5853 27.3524 55.568 27.4377 55.568C27.5257 55.568 27.6084 55.5853 27.6857 55.62C27.763 55.652 27.8297 55.696 27.8857 55.752C27.9444 55.808 27.991 55.8747 28.0257 55.952C28.0604 56.0293 28.0777 56.112 28.0777 56.2ZM30.4489 59.348C30.5716 59.348 30.6783 59.332 30.7689 59.3C30.8596 59.2653 30.9343 59.2187 30.9929 59.16C31.0543 59.1013 31.0996 59.0307 31.1289 58.948C31.1609 58.8653 31.1769 58.7747 31.1769 58.676C31.1769 58.4733 31.1156 58.3133 30.9929 58.196C30.8729 58.076 30.6916 58.016 30.4489 58.016C30.2063 58.016 30.0236 58.076 29.9009 58.196C29.7809 58.3133 29.7209 58.4733 29.7209 58.676C29.7209 58.772 29.7356 58.8613 29.7649 58.944C29.7969 59.0267 29.8423 59.0987 29.9009 59.16C29.9623 59.2187 30.0383 59.2653 30.1289 59.3C30.2223 59.332 30.3289 59.348 30.4489 59.348ZM31.5649 61.684C31.5649 61.604 31.5409 61.5387 31.4929 61.488C31.4449 61.4373 31.3796 61.3987 31.2969 61.372C31.2143 61.3427 31.1169 61.3213 31.0049 61.308C30.8956 61.2947 30.7783 61.2853 30.6529 61.28C30.5303 61.272 30.4023 61.2653 30.2689 61.26C30.1383 61.2547 30.0103 61.244 29.8849 61.228C29.7756 61.2893 29.6863 61.3613 29.6169 61.444C29.5503 61.5267 29.5169 61.6227 29.5169 61.732C29.5169 61.804 29.5343 61.8707 29.5689 61.932C29.6063 61.996 29.6636 62.0507 29.7409 62.096C29.8209 62.1413 29.9236 62.176 30.0489 62.2C30.1743 62.2267 30.3276 62.24 30.5089 62.24C30.6929 62.24 30.8516 62.2253 30.9849 62.196C31.1183 62.1693 31.2276 62.1307 31.3129 62.08C31.4009 62.032 31.4649 61.9733 31.5049 61.904C31.5449 61.8373 31.5649 61.764 31.5649 61.684ZM32.5489 57.536V57.904C32.5489 58.0213 32.4783 58.0933 32.3369 58.12L31.9689 58.188C32.0249 58.3293 32.0529 58.484 32.0529 58.652C32.0529 58.8547 32.0116 59.0387 31.9289 59.204C31.8489 59.3667 31.7369 59.5053 31.5929 59.62C31.4489 59.7347 31.2783 59.824 31.0809 59.888C30.8863 59.9493 30.6756 59.98 30.4489 59.98C30.3689 59.98 30.2916 59.976 30.2169 59.968C30.1423 59.96 30.0689 59.9493 29.9969 59.936C29.8689 60.0133 29.8049 60.1 29.8049 60.196C29.8049 60.2787 29.8423 60.34 29.9169 60.38C29.9943 60.4173 30.0956 60.444 30.2209 60.46C30.3463 60.476 30.4889 60.4867 30.6489 60.492C30.8089 60.4947 30.9729 60.5027 31.1409 60.516C31.3089 60.5293 31.4729 60.5533 31.6329 60.588C31.7929 60.62 31.9356 60.672 32.0609 60.744C32.1863 60.816 32.2863 60.9147 32.3609 61.04C32.4383 61.1627 32.4769 61.3213 32.4769 61.516C32.4769 61.6973 32.4316 61.8733 32.3409 62.044C32.2529 62.2147 32.1236 62.3667 31.9529 62.5C31.7849 62.6333 31.5769 62.74 31.3289 62.82C31.0836 62.9027 30.8036 62.944 30.4889 62.944C30.1796 62.944 29.9103 62.9133 29.6809 62.852C29.4516 62.7933 29.2609 62.7133 29.1089 62.612C28.9569 62.5133 28.8436 62.3987 28.7689 62.268C28.6943 62.1373 28.6569 62.0013 28.6569 61.86C28.6569 61.668 28.7143 61.508 28.8289 61.38C28.9463 61.2493 29.1063 61.1453 29.3089 61.068C29.1996 61.012 29.1129 60.9373 29.0489 60.844C28.9849 60.7507 28.9529 60.628 28.9529 60.476C28.9529 60.4147 28.9636 60.352 28.9849 60.288C29.0089 60.2213 29.0423 60.156 29.0849 60.092C29.1303 60.028 29.1863 59.968 29.2529 59.912C29.3196 59.8533 29.3983 59.8013 29.4889 59.756C29.2809 59.644 29.1169 59.4947 28.9969 59.308C28.8796 59.1213 28.8209 58.9027 28.8209 58.652C28.8209 58.4493 28.8609 58.2667 28.9409 58.104C29.0236 57.9387 29.1369 57.7987 29.2809 57.684C29.4276 57.5667 29.5996 57.4773 29.7969 57.416C29.9969 57.3547 30.2143 57.324 30.4489 57.324C30.6249 57.324 30.7903 57.3427 30.9449 57.38C31.0996 57.4147 31.2409 57.4667 31.3689 57.536H32.5489ZM34.6677 59.348C34.7904 59.348 34.897 59.332 34.9877 59.3C35.0784 59.2653 35.153 59.2187 35.2117 59.16C35.273 59.1013 35.3184 59.0307 35.3477 58.948C35.3797 58.8653 35.3957 58.7747 35.3957 58.676C35.3957 58.4733 35.3344 58.3133 35.2117 58.196C35.0917 58.076 34.9104 58.016 34.6677 58.016C34.425 58.016 34.2424 58.076 34.1197 58.196C33.9997 58.3133 33.9397 58.4733 33.9397 58.676C33.9397 58.772 33.9544 58.8613 33.9837 58.944C34.0157 59.0267 34.061 59.0987 34.1197 59.16C34.181 59.2187 34.257 59.2653 34.3477 59.3C34.441 59.332 34.5477 59.348 34.6677 59.348ZM35.7837 61.684C35.7837 61.604 35.7597 61.5387 35.7117 61.488C35.6637 61.4373 35.5984 61.3987 35.5157 61.372C35.433 61.3427 35.3357 61.3213 35.2237 61.308C35.1144 61.2947 34.997 61.2853 34.8717 61.28C34.749 61.272 34.621 61.2653 34.4877 61.26C34.357 61.2547 34.229 61.244 34.1037 61.228C33.9944 61.2893 33.905 61.3613 33.8357 61.444C33.769 61.5267 33.7357 61.6227 33.7357 61.732C33.7357 61.804 33.753 61.8707 33.7877 61.932C33.825 61.996 33.8824 62.0507 33.9597 62.096C34.0397 62.1413 34.1424 62.176 34.2677 62.2C34.393 62.2267 34.5464 62.24 34.7277 62.24C34.9117 62.24 35.0704 62.2253 35.2037 62.196C35.337 62.1693 35.4464 62.1307 35.5317 62.08C35.6197 62.032 35.6837 61.9733 35.7237 61.904C35.7637 61.8373 35.7837 61.764 35.7837 61.684ZM36.7677 57.536V57.904C36.7677 58.0213 36.697 58.0933 36.5557 58.12L36.1877 58.188C36.2437 58.3293 36.2717 58.484 36.2717 58.652C36.2717 58.8547 36.2304 59.0387 36.1477 59.204C36.0677 59.3667 35.9557 59.5053 35.8117 59.62C35.6677 59.7347 35.497 59.824 35.2997 59.888C35.105 59.9493 34.8944 59.98 34.6677 59.98C34.5877 59.98 34.5104 59.976 34.4357 59.968C34.361 59.96 34.2877 59.9493 34.2157 59.936C34.0877 60.0133 34.0237 60.1 34.0237 60.196C34.0237 60.2787 34.061 60.34 34.1357 60.38C34.213 60.4173 34.3144 60.444 34.4397 60.46C34.565 60.476 34.7077 60.4867 34.8677 60.492C35.0277 60.4947 35.1917 60.5027 35.3597 60.516C35.5277 60.5293 35.6917 60.5533 35.8517 60.588C36.0117 60.62 36.1544 60.672 36.2797 60.744C36.405 60.816 36.505 60.9147 36.5797 61.04C36.657 61.1627 36.6957 61.3213 36.6957 61.516C36.6957 61.6973 36.6504 61.8733 36.5597 62.044C36.4717 62.2147 36.3424 62.3667 36.1717 62.5C36.0037 62.6333 35.7957 62.74 35.5477 62.82C35.3024 62.9027 35.0224 62.944 34.7077 62.944C34.3984 62.944 34.129 62.9133 33.8997 62.852C33.6704 62.7933 33.4797 62.7133 33.3277 62.612C33.1757 62.5133 33.0624 62.3987 32.9877 62.268C32.913 62.1373 32.8757 62.0013 32.8757 61.86C32.8757 61.668 32.933 61.508 33.0477 61.38C33.165 61.2493 33.325 61.1453 33.5277 61.068C33.4184 61.012 33.3317 60.9373 33.2677 60.844C33.2037 60.7507 33.1717 60.628 33.1717 60.476C33.1717 60.4147 33.1824 60.352 33.2037 60.288C33.2277 60.2213 33.261 60.156 33.3037 60.092C33.349 60.028 33.405 59.968 33.4717 59.912C33.5384 59.8533 33.617 59.8013 33.7077 59.756C33.4997 59.644 33.3357 59.4947 33.2157 59.308C33.0984 59.1213 33.0397 58.9027 33.0397 58.652C33.0397 58.4493 33.0797 58.2667 33.1597 58.104C33.2424 57.9387 33.3557 57.7987 33.4997 57.684C33.6464 57.5667 33.8184 57.4773 34.0157 57.416C34.2157 57.3547 34.433 57.324 34.6677 57.324C34.8437 57.324 35.009 57.3427 35.1637 57.38C35.3184 57.4147 35.4597 57.4667 35.5877 57.536H36.7677ZM39.9679 58.976C39.9679 58.848 39.9493 58.728 39.9119 58.616C39.8773 58.5013 39.8239 58.4013 39.7519 58.316C39.6799 58.2307 39.5879 58.164 39.4759 58.116C39.3666 58.0653 39.2386 58.04 39.0919 58.04C38.8066 58.04 38.5813 58.1213 38.4159 58.284C38.2533 58.4467 38.1493 58.6773 38.1039 58.976H39.9679ZM38.0839 59.572C38.0999 59.7827 38.1373 59.9653 38.1959 60.12C38.2546 60.272 38.3319 60.3987 38.4279 60.5C38.5239 60.5987 38.6373 60.6733 38.7679 60.724C38.9013 60.772 39.0479 60.796 39.2079 60.796C39.3679 60.796 39.5053 60.7773 39.6199 60.74C39.7373 60.7027 39.8386 60.6613 39.9239 60.616C40.0119 60.5707 40.0879 60.5293 40.1519 60.492C40.2186 60.4547 40.2826 60.436 40.3439 60.436C40.4266 60.436 40.4879 60.4667 40.5279 60.528L40.8119 60.888C40.7026 61.016 40.5799 61.124 40.4439 61.212C40.3079 61.2973 40.1653 61.3667 40.0159 61.42C39.8693 61.4707 39.7186 61.5067 39.5639 61.528C39.4119 61.5493 39.2639 61.56 39.1199 61.56C38.8346 61.56 38.5693 61.5133 38.3239 61.42C38.0786 61.324 37.8653 61.184 37.6839 61C37.5026 60.8133 37.3599 60.584 37.2559 60.312C37.1519 60.0373 37.0999 59.72 37.0999 59.36C37.0999 59.08 37.1453 58.8173 37.2359 58.572C37.3266 58.324 37.4559 58.1093 37.6239 57.928C37.7946 57.744 38.0013 57.5987 38.2439 57.492C38.4893 57.3853 38.7653 57.332 39.0719 57.332C39.3306 57.332 39.5693 57.3733 39.7879 57.456C40.0066 57.5387 40.1946 57.66 40.3519 57.82C40.5093 57.9773 40.6319 58.172 40.7199 58.404C40.8106 58.6333 40.8559 58.896 40.8559 59.192C40.8559 59.3413 40.8399 59.4427 40.8079 59.496C40.7759 59.5467 40.7146 59.572 40.6239 59.572H38.0839ZM42.5294 58.108C42.6574 57.8627 42.8094 57.6707 42.9854 57.532C43.1614 57.3907 43.3694 57.32 43.6094 57.32C43.7987 57.32 43.9507 57.3613 44.0654 57.444L44.0014 58.184C43.988 58.232 43.968 58.2667 43.9414 58.288C43.9174 58.3067 43.884 58.316 43.8414 58.316C43.8014 58.316 43.7414 58.3093 43.6614 58.296C43.584 58.2827 43.508 58.276 43.4334 58.276C43.324 58.276 43.2267 58.292 43.1414 58.324C43.056 58.356 42.9787 58.4027 42.9094 58.464C42.8427 58.5227 42.7827 58.5947 42.7294 58.68C42.6787 58.7653 42.6307 58.8627 42.5854 58.972V61.5H41.5974V57.396H42.1774C42.2787 57.396 42.3494 57.4147 42.3894 57.452C42.4294 57.4867 42.456 57.5507 42.4694 57.644L42.5294 58.108Z" fill="#FF9300"/>
<path d="M2 107C2 105.895 2.89543 105 4 105H47C48.1046 105 49 105.895 49 107V113C49 114.105 48.1046 115 47 115H4C2.89543 115 2 114.105 2 113V107Z" fill="#804900"/>
<path d="M13.1459 109.968C13.3486 109.968 13.5246 109.943 13.6739 109.892C13.8259 109.841 13.9499 109.772 14.0459 109.684C14.1446 109.593 14.2179 109.487 14.2659 109.364C14.3139 109.241 14.3379 109.107 14.3379 108.96C14.3379 108.667 14.2406 108.441 14.0459 108.284C13.8539 108.127 13.5592 108.048 13.1619 108.048H12.4739V109.968H13.1459ZM15.9139 113H14.9419C14.7579 113 14.6246 112.928 14.5419 112.784L13.3259 110.932C13.2806 110.863 13.2299 110.813 13.1739 110.784C13.1206 110.755 13.0406 110.74 12.9339 110.74H12.4739V113H11.3979V107.216H13.1619C13.5539 107.216 13.8899 107.257 14.1699 107.34C14.4526 107.42 14.6832 107.533 14.8619 107.68C15.0432 107.827 15.1766 108.003 15.2619 108.208C15.3472 108.411 15.3899 108.635 15.3899 108.88C15.3899 109.075 15.3606 109.259 15.3019 109.432C15.2459 109.605 15.1632 109.763 15.0539 109.904C14.9472 110.045 14.8139 110.169 14.6539 110.276C14.4966 110.383 14.3166 110.467 14.1139 110.528C14.1832 110.568 14.2472 110.616 14.3059 110.672C14.3646 110.725 14.4179 110.789 14.4659 110.864L15.9139 113ZM18.488 111.248C18.2027 111.261 17.9627 111.287 17.768 111.324C17.5734 111.359 17.4174 111.404 17.3 111.46C17.1827 111.516 17.0987 111.581 17.048 111.656C16.9974 111.731 16.972 111.812 16.972 111.9C16.972 112.073 17.0227 112.197 17.124 112.272C17.228 112.347 17.3627 112.384 17.528 112.384C17.7307 112.384 17.9054 112.348 18.052 112.276C18.2014 112.201 18.3467 112.089 18.488 111.94V111.248ZM16.224 109.468C16.696 109.036 17.264 108.82 17.928 108.82C18.168 108.82 18.3827 108.86 18.572 108.94C18.7614 109.017 18.9214 109.127 19.052 109.268C19.1827 109.407 19.2814 109.573 19.348 109.768C19.4174 109.963 19.452 110.176 19.452 110.408V113H19.004C18.9107 113 18.8387 112.987 18.788 112.96C18.7374 112.931 18.6974 112.873 18.668 112.788L18.58 112.492C18.476 112.585 18.3747 112.668 18.276 112.74C18.1774 112.809 18.0747 112.868 17.968 112.916C17.8614 112.964 17.7467 113 17.624 113.024C17.504 113.051 17.3707 113.064 17.224 113.064C17.0507 113.064 16.8907 113.041 16.744 112.996C16.5974 112.948 16.4707 112.877 16.364 112.784C16.2574 112.691 16.1747 112.575 16.116 112.436C16.0574 112.297 16.028 112.136 16.028 111.952C16.028 111.848 16.0454 111.745 16.08 111.644C16.1147 111.54 16.1707 111.441 16.248 111.348C16.328 111.255 16.4307 111.167 16.556 111.084C16.6814 111.001 16.8347 110.929 17.016 110.868C17.2 110.807 17.4134 110.757 17.656 110.72C17.8987 110.68 18.176 110.656 18.488 110.648V110.408C18.488 110.133 18.4294 109.931 18.312 109.8C18.1947 109.667 18.0254 109.6 17.804 109.6C17.644 109.6 17.5107 109.619 17.404 109.656C17.3 109.693 17.208 109.736 17.128 109.784C17.048 109.829 16.9747 109.871 16.908 109.908C16.844 109.945 16.772 109.964 16.692 109.964C16.6227 109.964 16.564 109.947 16.516 109.912C16.468 109.875 16.4294 109.832 16.4 109.784L16.224 109.468ZM21.3065 109.4C21.3892 109.317 21.4759 109.241 21.5665 109.172C21.6599 109.1 21.7572 109.04 21.8585 108.992C21.9625 108.941 22.0732 108.903 22.1905 108.876C22.3079 108.847 22.4359 108.832 22.5745 108.832C22.7985 108.832 22.9972 108.871 23.1705 108.948C23.3439 109.023 23.4879 109.129 23.6025 109.268C23.7199 109.404 23.8079 109.568 23.8665 109.76C23.9279 109.949 23.9585 110.159 23.9585 110.388V113H22.9705V110.388C22.9705 110.137 22.9132 109.944 22.7985 109.808C22.6839 109.669 22.5092 109.6 22.2745 109.6C22.1039 109.6 21.9439 109.639 21.7945 109.716C21.6452 109.793 21.5039 109.899 21.3705 110.032V113H20.3825V108.896H20.9865C21.1145 108.896 21.1985 108.956 21.2385 109.076L21.3065 109.4ZM27.4742 109.944C27.3622 109.808 27.2395 109.712 27.1062 109.656C26.9755 109.6 26.8342 109.572 26.6822 109.572C26.5328 109.572 26.3982 109.6 26.2782 109.656C26.1582 109.712 26.0555 109.797 25.9702 109.912C25.8848 110.024 25.8195 110.168 25.7742 110.344C25.7288 110.517 25.7062 110.723 25.7062 110.96C25.7062 111.2 25.7248 111.404 25.7622 111.572C25.8022 111.737 25.8582 111.873 25.9302 111.98C26.0022 112.084 26.0902 112.16 26.1942 112.208C26.2982 112.253 26.4142 112.276 26.5422 112.276C26.7475 112.276 26.9222 112.233 27.0662 112.148C27.2102 112.063 27.3462 111.941 27.4742 111.784V109.944ZM28.4622 107.056V113H27.8582C27.7275 113 27.6448 112.94 27.6102 112.82L27.5262 112.424C27.3608 112.613 27.1702 112.767 26.9542 112.884C26.7408 113.001 26.4915 113.06 26.2062 113.06C25.9822 113.06 25.7768 113.013 25.5902 112.92C25.4035 112.827 25.2422 112.692 25.1062 112.516C24.9728 112.337 24.8688 112.117 24.7942 111.856C24.7222 111.595 24.6862 111.296 24.6862 110.96C24.6862 110.656 24.7275 110.373 24.8102 110.112C24.8928 109.851 25.0115 109.624 25.1662 109.432C25.3208 109.24 25.5062 109.091 25.7222 108.984C25.9382 108.875 26.1808 108.82 26.4502 108.82C26.6795 108.82 26.8755 108.856 27.0382 108.928C27.2008 109 27.3462 109.097 27.4742 109.22V107.056H28.4622ZM31.2532 108.832C31.5572 108.832 31.8332 108.881 32.0812 108.98C32.3319 109.079 32.5452 109.219 32.7212 109.4C32.8999 109.581 33.0372 109.803 33.1332 110.064C33.2292 110.325 33.2772 110.617 33.2772 110.94C33.2772 111.265 33.2292 111.559 33.1332 111.82C33.0372 112.081 32.8999 112.304 32.7212 112.488C32.5452 112.672 32.3319 112.813 32.0812 112.912C31.8332 113.011 31.5572 113.06 31.2532 113.06C30.9466 113.06 30.6679 113.011 30.4172 112.912C30.1666 112.813 29.9519 112.672 29.7732 112.488C29.5972 112.304 29.4599 112.081 29.3612 111.82C29.2652 111.559 29.2172 111.265 29.2172 110.94C29.2172 110.617 29.2652 110.325 29.3612 110.064C29.4599 109.803 29.5972 109.581 29.7732 109.4C29.9519 109.219 30.1666 109.079 30.4172 108.98C30.6679 108.881 30.9466 108.832 31.2532 108.832ZM31.2532 112.3C31.5946 112.3 31.8466 112.185 32.0092 111.956C32.1746 111.727 32.2572 111.391 32.2572 110.948C32.2572 110.505 32.1746 110.168 32.0092 109.936C31.8466 109.704 31.5946 109.588 31.2532 109.588C30.9066 109.588 30.6492 109.705 30.4812 109.94C30.3159 110.172 30.2332 110.508 30.2332 110.948C30.2332 111.388 30.3159 111.724 30.4812 111.956C30.6492 112.185 30.9066 112.3 31.2532 112.3ZM34.031 113V108.896H34.635C34.763 108.896 34.847 108.956 34.887 109.076L34.951 109.38C35.023 109.3 35.0976 109.227 35.175 109.16C35.255 109.093 35.339 109.036 35.427 108.988C35.5176 108.94 35.6136 108.903 35.715 108.876C35.819 108.847 35.9323 108.832 36.055 108.832C36.3136 108.832 36.5256 108.903 36.691 109.044C36.859 109.183 36.9843 109.368 37.067 109.6C37.131 109.464 37.211 109.348 37.307 109.252C37.403 109.153 37.5083 109.073 37.623 109.012C37.7376 108.951 37.859 108.905 37.987 108.876C38.1176 108.847 38.2483 108.832 38.379 108.832C38.6056 108.832 38.807 108.867 38.983 108.936C39.159 109.005 39.307 109.107 39.427 109.24C39.547 109.373 39.6376 109.536 39.699 109.728C39.763 109.92 39.795 110.14 39.795 110.388V113H38.807V110.388C38.807 110.127 38.7496 109.931 38.635 109.8C38.5203 109.667 38.3523 109.6 38.131 109.6C38.0296 109.6 37.935 109.617 37.847 109.652C37.7616 109.687 37.6856 109.737 37.619 109.804C37.555 109.868 37.5043 109.949 37.467 110.048C37.4296 110.147 37.411 110.26 37.411 110.388V113H36.419V110.388C36.419 110.113 36.363 109.913 36.251 109.788C36.1416 109.663 35.9803 109.6 35.767 109.6C35.623 109.6 35.4883 109.636 35.363 109.708C35.2403 109.777 35.1256 109.873 35.019 109.996V113H34.031Z" fill="#FF9300"/>
</svg>
