<svg width="50" height="282" viewBox="0 0 50 282" fill="none" xmlns="http://www.w3.org/2000/svg">
<rect width="50" height="7" transform="translate(0 55)" fill="#FF9300" fill-opacity="0.5"/>
<path d="M7.0515 55.939V61H6.222V57.731C6.222 57.6003 6.229 57.4592 6.243 57.3075L4.7135 60.181C4.64117 60.3187 4.53033 60.3875 4.381 60.3875H4.248C4.09867 60.3875 3.98783 60.3187 3.9155 60.181L2.3685 57.297C2.3755 57.374 2.38133 57.4498 2.386 57.5245C2.39067 57.5992 2.393 57.668 2.393 57.731V61H1.5635V55.939H2.274C2.316 55.939 2.35217 55.9402 2.3825 55.9425C2.41283 55.9448 2.43967 55.9507 2.463 55.96C2.48867 55.9693 2.51083 55.9845 2.5295 56.0055C2.5505 56.0265 2.57033 56.0545 2.589 56.0895L4.1045 58.9C4.14417 58.9747 4.18033 59.0517 4.213 59.131C4.248 59.2103 4.28183 59.292 4.3145 59.376C4.34717 59.2897 4.381 59.2068 4.416 59.1275C4.451 59.0458 4.48833 58.9677 4.528 58.893L6.0225 56.0895C6.04117 56.0545 6.061 56.0265 6.082 56.0055C6.103 55.9845 6.12517 55.9693 6.1485 55.96C6.17417 55.9507 6.20217 55.9448 6.2325 55.9425C6.26283 55.9402 6.299 55.939 6.341 55.939H7.0515ZM12.9022 58.4695C12.9022 58.8405 12.8404 59.1847 12.7167 59.502C12.5954 59.817 12.4227 60.09 12.1987 60.321C11.9747 60.552 11.7052 60.7328 11.3902 60.8635C11.0752 60.9918 10.7252 61.056 10.3402 61.056C9.95752 61.056 9.60869 60.9918 9.29369 60.8635C8.97869 60.7328 8.70802 60.552 8.48169 60.321C8.25769 60.09 8.08385 59.817 7.96019 59.502C7.83652 59.1847 7.77469 58.8405 7.77469 58.4695C7.77469 58.0985 7.83652 57.7555 7.96019 57.4405C8.08385 57.1232 8.25769 56.849 8.48169 56.618C8.70802 56.387 8.97869 56.2073 9.29369 56.079C9.60869 55.9483 9.95752 55.883 10.3402 55.883C10.5969 55.883 10.8384 55.9133 11.0647 55.974C11.291 56.0323 11.4987 56.1163 11.6877 56.226C11.8767 56.3333 12.0459 56.4652 12.1952 56.6215C12.3469 56.7755 12.4752 56.9482 12.5802 57.1395C12.6852 57.3308 12.7645 57.5385 12.8182 57.7625C12.8742 57.9865 12.9022 58.2222 12.9022 58.4695ZM11.9397 58.4695C11.9397 58.1918 11.9024 57.9433 11.8277 57.724C11.753 57.5023 11.6469 57.3145 11.5092 57.1605C11.3715 57.0065 11.2035 56.8887 11.0052 56.807C10.8092 56.7253 10.5875 56.6845 10.3402 56.6845C10.0929 56.6845 9.87002 56.7253 9.67169 56.807C9.47569 56.8887 9.30769 57.0065 9.16769 57.1605C9.03002 57.3145 8.92385 57.5023 8.84919 57.724C8.77452 57.9433 8.73719 58.1918 8.73719 58.4695C8.73719 58.7472 8.77452 58.9968 8.84919 59.2185C8.92385 59.4378 9.03002 59.6245 9.16769 59.7785C9.30769 59.9302 9.47569 60.0468 9.67169 60.1285C9.87002 60.2102 10.0929 60.251 10.3402 60.251C10.5875 60.251 10.8092 60.2102 11.0052 60.1285C11.2035 60.0468 11.3715 59.9302 11.5092 59.7785C11.6469 59.6245 11.753 59.4378 11.8277 59.2185C11.9024 58.9968 11.9397 58.7472 11.9397 58.4695ZM17.8905 55.939V61H17.4075C17.3328 61 17.2698 60.9883 17.2185 60.965C17.1695 60.9393 17.1217 60.8973 17.075 60.839L14.4325 57.465C14.4465 57.619 14.4535 57.7613 14.4535 57.892V61H13.624V55.939H14.1175C14.1572 55.939 14.191 55.9413 14.219 55.946C14.2493 55.9483 14.275 55.9553 14.296 55.967C14.3193 55.9763 14.3415 55.9915 14.3625 56.0125C14.3835 56.0312 14.4068 56.0568 14.4325 56.0895L17.0855 59.4775C17.0785 59.3958 17.0727 59.3153 17.068 59.236C17.0633 59.1567 17.061 59.0832 17.061 59.0155V55.939H17.8905ZM23.7391 58.4695C23.7391 58.8405 23.6772 59.1847 23.5536 59.502C23.4322 59.817 23.2596 60.09 23.0356 60.321C22.8116 60.552 22.5421 60.7328 22.2271 60.8635C21.9121 60.9918 21.5621 61.056 21.1771 61.056C20.7944 61.056 20.4456 60.9918 20.1306 60.8635C19.8156 60.7328 19.5449 60.552 19.3186 60.321C19.0946 60.09 18.9207 59.817 18.7971 59.502C18.6734 59.1847 18.6116 58.8405 18.6116 58.4695C18.6116 58.0985 18.6734 57.7555 18.7971 57.4405C18.9207 57.1232 19.0946 56.849 19.3186 56.618C19.5449 56.387 19.8156 56.2073 20.1306 56.079C20.4456 55.9483 20.7944 55.883 21.1771 55.883C21.4337 55.883 21.6752 55.9133 21.9016 55.974C22.1279 56.0323 22.3356 56.1163 22.5246 56.226C22.7136 56.3333 22.8827 56.4652 23.0321 56.6215C23.1837 56.7755 23.3121 56.9482 23.4171 57.1395C23.5221 57.3308 23.6014 57.5385 23.6551 57.7625C23.7111 57.9865 23.7391 58.2222 23.7391 58.4695ZM22.7766 58.4695C22.7766 58.1918 22.7392 57.9433 22.6646 57.724C22.5899 57.5023 22.4837 57.3145 22.3461 57.1605C22.2084 57.0065 22.0404 56.8887 21.8421 56.807C21.6461 56.7253 21.4244 56.6845 21.1771 56.6845C20.9297 56.6845 20.7069 56.7253 20.5086 56.807C20.3126 56.8887 20.1446 57.0065 20.0046 57.1605C19.8669 57.3145 19.7607 57.5023 19.6861 57.724C19.6114 57.9433 19.5741 58.1918 19.5741 58.4695C19.5741 58.7472 19.6114 58.9968 19.6861 59.2185C19.7607 59.4378 19.8669 59.6245 20.0046 59.7785C20.1446 59.9302 20.3126 60.0468 20.5086 60.1285C20.7069 60.2102 20.9297 60.251 21.1771 60.251C21.4244 60.251 21.6461 60.2102 21.8421 60.1285C22.0404 60.0468 22.2084 59.9302 22.3461 59.7785C22.4837 59.6245 22.5899 59.4378 22.6646 59.2185C22.7392 58.9968 22.7766 58.7472 22.7766 58.4695Z" fill="white"/>
<rect width="50" height="7" transform="translate(0 110)" fill="#FF9300" fill-opacity="0.5"/>
<path d="M7.0515 110.939V116H6.222V112.731C6.222 112.6 6.229 112.459 6.243 112.307L4.7135 115.181C4.64117 115.319 4.53033 115.387 4.381 115.387H4.248C4.09867 115.387 3.98783 115.319 3.9155 115.181L2.3685 112.297C2.3755 112.374 2.38133 112.45 2.386 112.524C2.39067 112.599 2.393 112.668 2.393 112.731V116H1.5635V110.939H2.274C2.316 110.939 2.35217 110.94 2.3825 110.942C2.41283 110.945 2.43967 110.951 2.463 110.96C2.48867 110.969 2.51083 110.984 2.5295 111.005C2.5505 111.026 2.57033 111.054 2.589 111.089L4.1045 113.9C4.14417 113.975 4.18033 114.052 4.213 114.131C4.248 114.21 4.28183 114.292 4.3145 114.376C4.34717 114.29 4.381 114.207 4.416 114.127C4.451 114.046 4.48833 113.968 4.528 113.893L6.0225 111.089C6.04117 111.054 6.061 111.026 6.082 111.005C6.103 110.984 6.12517 110.969 6.1485 110.96C6.17417 110.951 6.20217 110.945 6.2325 110.942C6.26283 110.94 6.299 110.939 6.341 110.939H7.0515ZM12.9022 113.469C12.9022 113.84 12.8404 114.185 12.7167 114.502C12.5954 114.817 12.4227 115.09 12.1987 115.321C11.9747 115.552 11.7052 115.733 11.3902 115.863C11.0752 115.992 10.7252 116.056 10.3402 116.056C9.95752 116.056 9.60869 115.992 9.29369 115.863C8.97869 115.733 8.70802 115.552 8.48169 115.321C8.25769 115.09 8.08385 114.817 7.96019 114.502C7.83652 114.185 7.77469 113.84 7.77469 113.469C7.77469 113.098 7.83652 112.755 7.96019 112.44C8.08385 112.123 8.25769 111.849 8.48169 111.618C8.70802 111.387 8.97869 111.207 9.29369 111.079C9.60869 110.948 9.95752 110.883 10.3402 110.883C10.5969 110.883 10.8384 110.913 11.0647 110.974C11.291 111.032 11.4987 111.116 11.6877 111.226C11.8767 111.333 12.0459 111.465 12.1952 111.621C12.3469 111.775 12.4752 111.948 12.5802 112.139C12.6852 112.331 12.7645 112.538 12.8182 112.762C12.8742 112.986 12.9022 113.222 12.9022 113.469ZM11.9397 113.469C11.9397 113.192 11.9024 112.943 11.8277 112.724C11.753 112.502 11.6469 112.314 11.5092 112.16C11.3715 112.006 11.2035 111.889 11.0052 111.807C10.8092 111.725 10.5875 111.684 10.3402 111.684C10.0929 111.684 9.87002 111.725 9.67169 111.807C9.47569 111.889 9.30769 112.006 9.16769 112.16C9.03002 112.314 8.92385 112.502 8.84919 112.724C8.77452 112.943 8.73719 113.192 8.73719 113.469C8.73719 113.747 8.77452 113.997 8.84919 114.218C8.92385 114.438 9.03002 114.624 9.16769 114.778C9.30769 114.93 9.47569 115.047 9.67169 115.128C9.87002 115.21 10.0929 115.251 10.3402 115.251C10.5875 115.251 10.8092 115.21 11.0052 115.128C11.2035 115.047 11.3715 114.93 11.5092 114.778C11.6469 114.624 11.753 114.438 11.8277 114.218C11.9024 113.997 11.9397 113.747 11.9397 113.469ZM17.8905 110.939V116H17.4075C17.3328 116 17.2698 115.988 17.2185 115.965C17.1695 115.939 17.1217 115.897 17.075 115.839L14.4325 112.465C14.4465 112.619 14.4535 112.761 14.4535 112.892V116H13.624V110.939H14.1175C14.1572 110.939 14.191 110.941 14.219 110.946C14.2493 110.948 14.275 110.955 14.296 110.967C14.3193 110.976 14.3415 110.991 14.3625 111.012C14.3835 111.031 14.4068 111.057 14.4325 111.089L17.0855 114.477C17.0785 114.396 17.0727 114.315 17.068 114.236C17.0633 114.157 17.061 114.083 17.061 114.015V110.939H17.8905ZM23.7391 113.469C23.7391 113.84 23.6772 114.185 23.5536 114.502C23.4322 114.817 23.2596 115.09 23.0356 115.321C22.8116 115.552 22.5421 115.733 22.2271 115.863C21.9121 115.992 21.5621 116.056 21.1771 116.056C20.7944 116.056 20.4456 115.992 20.1306 115.863C19.8156 115.733 19.5449 115.552 19.3186 115.321C19.0946 115.09 18.9207 114.817 18.7971 114.502C18.6734 114.185 18.6116 113.84 18.6116 113.469C18.6116 113.098 18.6734 112.755 18.7971 112.44C18.9207 112.123 19.0946 111.849 19.3186 111.618C19.5449 111.387 19.8156 111.207 20.1306 111.079C20.4456 110.948 20.7944 110.883 21.1771 110.883C21.4337 110.883 21.6752 110.913 21.9016 110.974C22.1279 111.032 22.3356 111.116 22.5246 111.226C22.7136 111.333 22.8827 111.465 23.0321 111.621C23.1837 111.775 23.3121 111.948 23.4171 112.139C23.5221 112.331 23.6014 112.538 23.6551 112.762C23.7111 112.986 23.7391 113.222 23.7391 113.469ZM22.7766 113.469C22.7766 113.192 22.7392 112.943 22.6646 112.724C22.5899 112.502 22.4837 112.314 22.3461 112.16C22.2084 112.006 22.0404 111.889 21.8421 111.807C21.6461 111.725 21.4244 111.684 21.1771 111.684C20.9297 111.684 20.7069 111.725 20.5086 111.807C20.3126 111.889 20.1446 112.006 20.0046 112.16C19.8669 112.314 19.7607 112.502 19.6861 112.724C19.6114 112.943 19.5741 113.192 19.5741 113.469C19.5741 113.747 19.6114 113.997 19.6861 114.218C19.7607 114.438 19.8669 114.624 20.0046 114.778C20.1446 114.93 20.3126 115.047 20.5086 115.128C20.7069 115.21 20.9297 115.251 21.1771 115.251C21.4244 115.251 21.6461 115.21 21.8421 115.128C22.0404 115.047 22.2084 114.93 22.3461 114.778C22.4837 114.624 22.5899 114.438 22.6646 114.218C22.7392 113.997 22.7766 113.747 22.7766 113.469ZM28.753 111.859C28.725 111.908 28.6947 111.945 28.662 111.968C28.6317 111.989 28.5932 111.999 28.5465 111.999C28.4975 111.999 28.4439 111.982 28.3855 111.947C28.3295 111.91 28.2619 111.869 28.1825 111.824C28.1032 111.78 28.0099 111.74 27.9025 111.705C27.7975 111.668 27.6727 111.649 27.528 111.649C27.3974 111.649 27.283 111.666 27.185 111.698C27.087 111.729 27.0042 111.772 26.9365 111.828C26.8712 111.884 26.8222 111.952 26.7895 112.031C26.7569 112.108 26.7405 112.193 26.7405 112.286C26.7405 112.405 26.7732 112.505 26.8385 112.584C26.9062 112.663 26.9949 112.731 27.1045 112.787C27.2142 112.843 27.339 112.893 27.479 112.937C27.619 112.982 27.7625 113.03 27.9095 113.081C28.0565 113.13 28.2 113.188 28.34 113.256C28.48 113.321 28.6049 113.405 28.7145 113.508C28.8242 113.608 28.9117 113.732 28.977 113.879C29.0447 114.026 29.0785 114.204 29.0785 114.414C29.0785 114.643 29.0389 114.858 28.9595 115.058C28.8825 115.257 28.7682 115.431 28.6165 115.58C28.4672 115.727 28.284 115.844 28.067 115.93C27.85 116.014 27.6015 116.056 27.3215 116.056C27.1605 116.056 27.0019 116.04 26.8455 116.007C26.6892 115.977 26.5387 115.932 26.394 115.874C26.2517 115.816 26.1175 115.746 25.9915 115.664C25.8655 115.582 25.7535 115.491 25.6555 115.391L25.932 114.939C25.9554 114.907 25.9857 114.88 26.023 114.859C26.0604 114.836 26.1 114.824 26.142 114.824C26.2004 114.824 26.2634 114.848 26.331 114.897C26.3987 114.944 26.4792 114.997 26.5725 115.055C26.6659 115.113 26.7744 115.167 26.898 115.216C27.024 115.263 27.1745 115.286 27.3495 115.286C27.6179 115.286 27.8255 115.223 27.9725 115.097C28.1195 114.969 28.193 114.785 28.193 114.547C28.193 114.414 28.1592 114.306 28.0915 114.222C28.0262 114.138 27.9387 114.068 27.829 114.012C27.7194 113.954 27.5945 113.905 27.4545 113.865C27.3145 113.825 27.1722 113.782 27.0275 113.735C26.8829 113.689 26.7405 113.633 26.6005 113.567C26.4605 113.502 26.3357 113.417 26.226 113.312C26.1164 113.207 26.0277 113.076 25.96 112.92C25.8947 112.761 25.862 112.566 25.862 112.335C25.862 112.151 25.8982 111.971 25.9705 111.796C26.0452 111.621 26.1525 111.466 26.2925 111.331C26.4325 111.196 26.6052 111.087 26.8105 111.005C27.0159 110.924 27.2515 110.883 27.5175 110.883C27.8162 110.883 28.0915 110.93 28.3435 111.023C28.5955 111.116 28.8102 111.247 28.9875 111.415L28.753 111.859ZM33.3298 111.712H31.8038V116H30.8623V111.712H29.3363V110.939H33.3298V111.712Z" fill="white"/>
<rect width="50" height="7" transform="translate(0 165)" fill="#FF9300" fill-opacity="0.5"/>
<path d="M7.0515 165.939V171H6.222V167.731C6.222 167.6 6.229 167.459 6.243 167.307L4.7135 170.181C4.64117 170.319 4.53033 170.387 4.381 170.387H4.248C4.09867 170.387 3.98783 170.319 3.9155 170.181L2.3685 167.297C2.3755 167.374 2.38133 167.45 2.386 167.524C2.39067 167.599 2.393 167.668 2.393 167.731V171H1.5635V165.939H2.274C2.316 165.939 2.35217 165.94 2.3825 165.942C2.41283 165.945 2.43967 165.951 2.463 165.96C2.48867 165.969 2.51083 165.984 2.5295 166.005C2.5505 166.026 2.57033 166.054 2.589 166.089L4.1045 168.9C4.14417 168.975 4.18033 169.052 4.213 169.131C4.248 169.21 4.28183 169.292 4.3145 169.376C4.34717 169.29 4.381 169.207 4.416 169.127C4.451 169.046 4.48833 168.968 4.528 168.893L6.0225 166.089C6.04117 166.054 6.061 166.026 6.082 166.005C6.103 165.984 6.12517 165.969 6.1485 165.96C6.17417 165.951 6.20217 165.945 6.2325 165.942C6.26283 165.94 6.299 165.939 6.341 165.939H7.0515ZM12.9022 168.469C12.9022 168.84 12.8404 169.185 12.7167 169.502C12.5954 169.817 12.4227 170.09 12.1987 170.321C11.9747 170.552 11.7052 170.733 11.3902 170.863C11.0752 170.992 10.7252 171.056 10.3402 171.056C9.95752 171.056 9.60869 170.992 9.29369 170.863C8.97869 170.733 8.70802 170.552 8.48169 170.321C8.25769 170.09 8.08385 169.817 7.96019 169.502C7.83652 169.185 7.77469 168.84 7.77469 168.469C7.77469 168.098 7.83652 167.755 7.96019 167.44C8.08385 167.123 8.25769 166.849 8.48169 166.618C8.70802 166.387 8.97869 166.207 9.29369 166.079C9.60869 165.948 9.95752 165.883 10.3402 165.883C10.5969 165.883 10.8384 165.913 11.0647 165.974C11.291 166.032 11.4987 166.116 11.6877 166.226C11.8767 166.333 12.0459 166.465 12.1952 166.621C12.3469 166.775 12.4752 166.948 12.5802 167.139C12.6852 167.331 12.7645 167.538 12.8182 167.762C12.8742 167.986 12.9022 168.222 12.9022 168.469ZM11.9397 168.469C11.9397 168.192 11.9024 167.943 11.8277 167.724C11.753 167.502 11.6469 167.314 11.5092 167.16C11.3715 167.006 11.2035 166.889 11.0052 166.807C10.8092 166.725 10.5875 166.684 10.3402 166.684C10.0929 166.684 9.87002 166.725 9.67169 166.807C9.47569 166.889 9.30769 167.006 9.16769 167.16C9.03002 167.314 8.92385 167.502 8.84919 167.724C8.77452 167.943 8.73719 168.192 8.73719 168.469C8.73719 168.747 8.77452 168.997 8.84919 169.218C8.92385 169.438 9.03002 169.624 9.16769 169.778C9.30769 169.93 9.47569 170.047 9.67169 170.128C9.87002 170.21 10.0929 170.251 10.3402 170.251C10.5875 170.251 10.8092 170.21 11.0052 170.128C11.2035 170.047 11.3715 169.93 11.5092 169.778C11.6469 169.624 11.753 169.438 11.8277 169.218C11.9024 168.997 11.9397 168.747 11.9397 168.469ZM17.8905 165.939V171H17.4075C17.3328 171 17.2698 170.988 17.2185 170.965C17.1695 170.939 17.1217 170.897 17.075 170.839L14.4325 167.465C14.4465 167.619 14.4535 167.761 14.4535 167.892V171H13.624V165.939H14.1175C14.1572 165.939 14.191 165.941 14.219 165.946C14.2493 165.948 14.275 165.955 14.296 165.967C14.3193 165.976 14.3415 165.991 14.3625 166.012C14.3835 166.031 14.4068 166.057 14.4325 166.089L17.0855 169.477C17.0785 169.396 17.0727 169.315 17.068 169.236C17.0633 169.157 17.061 169.083 17.061 169.015V165.939H17.8905ZM23.7391 168.469C23.7391 168.84 23.6772 169.185 23.5536 169.502C23.4322 169.817 23.2596 170.09 23.0356 170.321C22.8116 170.552 22.5421 170.733 22.2271 170.863C21.9121 170.992 21.5621 171.056 21.1771 171.056C20.7944 171.056 20.4456 170.992 20.1306 170.863C19.8156 170.733 19.5449 170.552 19.3186 170.321C19.0946 170.09 18.9207 169.817 18.7971 169.502C18.6734 169.185 18.6116 168.84 18.6116 168.469C18.6116 168.098 18.6734 167.755 18.7971 167.44C18.9207 167.123 19.0946 166.849 19.3186 166.618C19.5449 166.387 19.8156 166.207 20.1306 166.079C20.4456 165.948 20.7944 165.883 21.1771 165.883C21.4337 165.883 21.6752 165.913 21.9016 165.974C22.1279 166.032 22.3356 166.116 22.5246 166.226C22.7136 166.333 22.8827 166.465 23.0321 166.621C23.1837 166.775 23.3121 166.948 23.4171 167.139C23.5221 167.331 23.6014 167.538 23.6551 167.762C23.7111 167.986 23.7391 168.222 23.7391 168.469ZM22.7766 168.469C22.7766 168.192 22.7392 167.943 22.6646 167.724C22.5899 167.502 22.4837 167.314 22.3461 167.16C22.2084 167.006 22.0404 166.889 21.8421 166.807C21.6461 166.725 21.4244 166.684 21.1771 166.684C20.9297 166.684 20.7069 166.725 20.5086 166.807C20.3126 166.889 20.1446 167.006 20.0046 167.16C19.8669 167.314 19.7607 167.502 19.6861 167.724C19.6114 167.943 19.5741 168.192 19.5741 168.469C19.5741 168.747 19.6114 168.997 19.6861 169.218C19.7607 169.438 19.8669 169.624 20.0046 169.778C20.1446 169.93 20.3126 170.047 20.5086 170.128C20.7069 170.21 20.9297 170.251 21.1771 170.251C21.4244 170.251 21.6461 170.21 21.8421 170.128C22.0404 170.047 22.2084 169.93 22.3461 169.778C22.4837 169.624 22.5899 169.438 22.6646 169.218C22.7392 168.997 22.7766 168.747 22.7766 168.469ZM27.003 166.688V168.186H28.9V168.938H27.003V171H26.058V165.939H29.25V166.688H27.003ZM31.5629 168.483C31.7355 168.483 31.886 168.462 32.0144 168.42C32.1427 168.376 32.2489 168.314 32.3329 168.235C32.4192 168.153 32.4834 168.055 32.5254 167.941C32.5674 167.824 32.5884 167.695 32.5884 167.552C32.5884 167.417 32.5674 167.295 32.5254 167.185C32.4834 167.075 32.4204 166.982 32.3364 166.905C32.2524 166.828 32.1462 166.77 32.0179 166.73C31.8895 166.688 31.7379 166.667 31.5629 166.667H30.8594V168.483H31.5629ZM31.5629 165.939C31.9012 165.939 32.194 165.979 32.4414 166.058C32.6887 166.137 32.8929 166.248 33.0539 166.39C33.2149 166.533 33.3339 166.703 33.4109 166.901C33.4902 167.1 33.5299 167.317 33.5299 167.552C33.5299 167.797 33.489 168.023 33.4074 168.228C33.3257 168.431 33.2032 168.606 33.0399 168.753C32.8765 168.9 32.6712 169.014 32.4239 169.096C32.1789 169.178 31.8919 169.218 31.5629 169.218H30.8594V171H29.9179V165.939H31.5629Z" fill="white"/>
<rect width="50" height="7" transform="translate(0 220)" fill="#FF9300" fill-opacity="0.5"/>
<path d="M7.0515 220.939V226H6.222V222.731C6.222 222.6 6.229 222.459 6.243 222.307L4.7135 225.181C4.64117 225.319 4.53033 225.387 4.381 225.387H4.248C4.09867 225.387 3.98783 225.319 3.9155 225.181L2.3685 222.297C2.3755 222.374 2.38133 222.45 2.386 222.524C2.39067 222.599 2.393 222.668 2.393 222.731V226H1.5635V220.939H2.274C2.316 220.939 2.35217 220.94 2.3825 220.942C2.41283 220.945 2.43967 220.951 2.463 220.96C2.48867 220.969 2.51083 220.984 2.5295 221.005C2.5505 221.026 2.57033 221.054 2.589 221.089L4.1045 223.9C4.14417 223.975 4.18033 224.052 4.213 224.131C4.248 224.21 4.28183 224.292 4.3145 224.376C4.34717 224.29 4.381 224.207 4.416 224.127C4.451 224.046 4.48833 223.968 4.528 223.893L6.0225 221.089C6.04117 221.054 6.061 221.026 6.082 221.005C6.103 220.984 6.12517 220.969 6.1485 220.96C6.17417 220.951 6.20217 220.945 6.2325 220.942C6.26283 220.94 6.299 220.939 6.341 220.939H7.0515ZM12.9022 223.469C12.9022 223.84 12.8404 224.185 12.7167 224.502C12.5954 224.817 12.4227 225.09 12.1987 225.321C11.9747 225.552 11.7052 225.733 11.3902 225.863C11.0752 225.992 10.7252 226.056 10.3402 226.056C9.95752 226.056 9.60869 225.992 9.29369 225.863C8.97869 225.733 8.70802 225.552 8.48169 225.321C8.25769 225.09 8.08385 224.817 7.96019 224.502C7.83652 224.185 7.77469 223.84 7.77469 223.469C7.77469 223.098 7.83652 222.755 7.96019 222.44C8.08385 222.123 8.25769 221.849 8.48169 221.618C8.70802 221.387 8.97869 221.207 9.29369 221.079C9.60869 220.948 9.95752 220.883 10.3402 220.883C10.5969 220.883 10.8384 220.913 11.0647 220.974C11.291 221.032 11.4987 221.116 11.6877 221.226C11.8767 221.333 12.0459 221.465 12.1952 221.621C12.3469 221.775 12.4752 221.948 12.5802 222.139C12.6852 222.331 12.7645 222.538 12.8182 222.762C12.8742 222.986 12.9022 223.222 12.9022 223.469ZM11.9397 223.469C11.9397 223.192 11.9024 222.943 11.8277 222.724C11.753 222.502 11.6469 222.314 11.5092 222.16C11.3715 222.006 11.2035 221.889 11.0052 221.807C10.8092 221.725 10.5875 221.684 10.3402 221.684C10.0929 221.684 9.87002 221.725 9.67169 221.807C9.47569 221.889 9.30769 222.006 9.16769 222.16C9.03002 222.314 8.92385 222.502 8.84919 222.724C8.77452 222.943 8.73719 223.192 8.73719 223.469C8.73719 223.747 8.77452 223.997 8.84919 224.218C8.92385 224.438 9.03002 224.624 9.16769 224.778C9.30769 224.93 9.47569 225.047 9.67169 225.128C9.87002 225.21 10.0929 225.251 10.3402 225.251C10.5875 225.251 10.8092 225.21 11.0052 225.128C11.2035 225.047 11.3715 224.93 11.5092 224.778C11.6469 224.624 11.753 224.438 11.8277 224.218C11.9024 223.997 11.9397 223.747 11.9397 223.469ZM17.8905 220.939V226H17.4075C17.3328 226 17.2698 225.988 17.2185 225.965C17.1695 225.939 17.1217 225.897 17.075 225.839L14.4325 222.465C14.4465 222.619 14.4535 222.761 14.4535 222.892V226H13.624V220.939H14.1175C14.1572 220.939 14.191 220.941 14.219 220.946C14.2493 220.948 14.275 220.955 14.296 220.967C14.3193 220.976 14.3415 220.991 14.3625 221.012C14.3835 221.031 14.4068 221.057 14.4325 221.089L17.0855 224.477C17.0785 224.396 17.0727 224.315 17.068 224.236C17.0633 224.157 17.061 224.083 17.061 224.015V220.939H17.8905ZM23.7391 223.469C23.7391 223.84 23.6772 224.185 23.5536 224.502C23.4322 224.817 23.2596 225.09 23.0356 225.321C22.8116 225.552 22.5421 225.733 22.2271 225.863C21.9121 225.992 21.5621 226.056 21.1771 226.056C20.7944 226.056 20.4456 225.992 20.1306 225.863C19.8156 225.733 19.5449 225.552 19.3186 225.321C19.0946 225.09 18.9207 224.817 18.7971 224.502C18.6734 224.185 18.6116 223.84 18.6116 223.469C18.6116 223.098 18.6734 222.755 18.7971 222.44C18.9207 222.123 19.0946 221.849 19.3186 221.618C19.5449 221.387 19.8156 221.207 20.1306 221.079C20.4456 220.948 20.7944 220.883 21.1771 220.883C21.4337 220.883 21.6752 220.913 21.9016 220.974C22.1279 221.032 22.3356 221.116 22.5246 221.226C22.7136 221.333 22.8827 221.465 23.0321 221.621C23.1837 221.775 23.3121 221.948 23.4171 222.139C23.5221 222.331 23.6014 222.538 23.6551 222.762C23.7111 222.986 23.7391 223.222 23.7391 223.469ZM22.7766 223.469C22.7766 223.192 22.7392 222.943 22.6646 222.724C22.5899 222.502 22.4837 222.314 22.3461 222.16C22.2084 222.006 22.0404 221.889 21.8421 221.807C21.6461 221.725 21.4244 221.684 21.1771 221.684C20.9297 221.684 20.7069 221.725 20.5086 221.807C20.3126 221.889 20.1446 222.006 20.0046 222.16C19.8669 222.314 19.7607 222.502 19.6861 222.724C19.6114 222.943 19.5741 223.192 19.5741 223.469C19.5741 223.747 19.6114 223.997 19.6861 224.218C19.7607 224.438 19.8669 224.624 20.0046 224.778C20.1446 224.93 20.3126 225.047 20.5086 225.128C20.7069 225.21 20.9297 225.251 21.1771 225.251C21.4244 225.251 21.6461 225.21 21.8421 225.128C22.0404 225.047 22.2084 224.93 22.3461 224.778C22.4837 224.624 22.5899 224.438 22.6646 224.218C22.7392 223.997 22.7766 223.747 22.7766 223.469ZM28.753 221.859C28.725 221.908 28.6947 221.945 28.662 221.968C28.6317 221.989 28.5932 221.999 28.5465 221.999C28.4975 221.999 28.4439 221.982 28.3855 221.947C28.3295 221.91 28.2619 221.869 28.1825 221.824C28.1032 221.78 28.0099 221.74 27.9025 221.705C27.7975 221.668 27.6727 221.649 27.528 221.649C27.3974 221.649 27.283 221.666 27.185 221.698C27.087 221.729 27.0042 221.772 26.9365 221.828C26.8712 221.884 26.8222 221.952 26.7895 222.031C26.7569 222.108 26.7405 222.193 26.7405 222.286C26.7405 222.405 26.7732 222.505 26.8385 222.584C26.9062 222.663 26.9949 222.731 27.1045 222.787C27.2142 222.843 27.339 222.893 27.479 222.937C27.619 222.982 27.7625 223.03 27.9095 223.081C28.0565 223.13 28.2 223.188 28.34 223.256C28.48 223.321 28.6049 223.405 28.7145 223.508C28.8242 223.608 28.9117 223.732 28.977 223.879C29.0447 224.026 29.0785 224.204 29.0785 224.414C29.0785 224.643 29.0389 224.858 28.9595 225.058C28.8825 225.257 28.7682 225.431 28.6165 225.58C28.4672 225.727 28.284 225.844 28.067 225.93C27.85 226.014 27.6015 226.056 27.3215 226.056C27.1605 226.056 27.0019 226.04 26.8455 226.007C26.6892 225.977 26.5387 225.932 26.394 225.874C26.2517 225.816 26.1175 225.746 25.9915 225.664C25.8655 225.582 25.7535 225.491 25.6555 225.391L25.932 224.939C25.9554 224.907 25.9857 224.88 26.023 224.859C26.0604 224.836 26.1 224.824 26.142 224.824C26.2004 224.824 26.2634 224.848 26.331 224.897C26.3987 224.944 26.4792 224.997 26.5725 225.055C26.6659 225.113 26.7744 225.167 26.898 225.216C27.024 225.263 27.1745 225.286 27.3495 225.286C27.6179 225.286 27.8255 225.223 27.9725 225.097C28.1195 224.969 28.193 224.785 28.193 224.547C28.193 224.414 28.1592 224.306 28.0915 224.222C28.0262 224.138 27.9387 224.068 27.829 224.012C27.7194 223.954 27.5945 223.905 27.4545 223.865C27.3145 223.825 27.1722 223.782 27.0275 223.735C26.8829 223.689 26.7405 223.633 26.6005 223.567C26.4605 223.502 26.3357 223.417 26.226 223.312C26.1164 223.207 26.0277 223.076 25.96 222.92C25.8947 222.761 25.862 222.566 25.862 222.335C25.862 222.151 25.8982 221.971 25.9705 221.796C26.0452 221.621 26.1525 221.466 26.2925 221.331C26.4325 221.196 26.6052 221.087 26.8105 221.005C27.0159 220.924 27.2515 220.883 27.5175 220.883C27.8162 220.883 28.0915 220.93 28.3435 221.023C28.5955 221.116 28.8102 221.247 28.9875 221.415L28.753 221.859ZM33.3298 221.712H31.8038V226H30.8623V221.712H29.3363V220.939H33.3298V221.712ZM38.4468 223.97H37.0888V225.412H36.3853V223.97H35.0343V223.329H36.3853V221.894H37.0888V223.329H38.4468V223.97ZM41.77 221.688V223.186H43.667V223.938H41.77V226H40.825V220.939H44.017V221.688H41.77ZM46.3299 223.483C46.5025 223.483 46.653 223.462 46.7814 223.42C46.9097 223.376 47.0159 223.314 47.0999 223.235C47.1862 223.153 47.2504 223.055 47.2924 222.941C47.3344 222.824 47.3554 222.695 47.3554 222.552C47.3554 222.417 47.3344 222.295 47.2924 222.185C47.2504 222.075 47.1874 221.982 47.1034 221.905C47.0194 221.828 46.9132 221.77 46.7849 221.73C46.6565 221.688 46.5049 221.667 46.3299 221.667H45.6264V223.483H46.3299ZM46.3299 220.939C46.6682 220.939 46.961 220.979 47.2084 221.058C47.4557 221.137 47.6599 221.248 47.8209 221.39C47.9819 221.533 48.1009 221.703 48.1779 221.901C48.2572 222.1 48.2969 222.317 48.2969 222.552C48.2969 222.797 48.256 223.023 48.1744 223.228C48.0927 223.431 47.9702 223.606 47.8069 223.753C47.6435 223.9 47.4382 224.014 47.1909 224.096C46.9459 224.178 46.6589 224.218 46.3299 224.218H45.6264V226H44.6849V220.939H46.3299Z" fill="white"/>
<rect width="50" height="7" transform="translate(0 275)" fill="#FF9300" fill-opacity="0.5"/>
<path d="M4.528 280.223V281H1.5635V275.939H2.505V280.223H4.528ZM7.76922 279.089L7.15322 277.405C7.12289 277.331 7.09139 277.242 7.05872 277.139C7.02605 277.037 6.99339 276.926 6.96072 276.807C6.93039 276.926 6.89889 277.038 6.86622 277.143C6.83355 277.246 6.80205 277.335 6.77172 277.412L6.15922 279.089H7.76922ZM9.43172 281H8.70372C8.62205 281 8.55555 280.98 8.50422 280.94C8.45289 280.898 8.41439 280.847 8.38872 280.786L8.01072 279.754H5.91422L5.53622 280.786C5.51755 280.84 5.48139 280.889 5.42772 280.933C5.37405 280.978 5.30755 281 5.22822 281H4.49322L6.48472 275.939H7.44372L9.43172 281ZM12.8934 276.712H11.3674V281H10.4259V276.712H8.89988V275.939H12.8934V276.712ZM16.7553 279.806C16.8066 279.806 16.8521 279.826 16.8918 279.866L17.2628 280.268C17.0574 280.523 16.8043 280.718 16.5033 280.853C16.2046 280.988 15.8453 281.056 15.4253 281.056C15.0496 281.056 14.7113 280.992 14.4103 280.863C14.1116 280.735 13.8561 280.557 13.6438 280.328C13.4314 280.099 13.2681 279.826 13.1538 279.509C13.0418 279.192 12.9858 278.845 12.9858 278.469C12.9858 278.089 13.0464 277.741 13.1678 277.426C13.2891 277.109 13.4594 276.836 13.6788 276.607C13.9004 276.379 14.1641 276.201 14.4698 276.075C14.7754 275.947 15.1138 275.883 15.4848 275.883C15.8534 275.883 16.1801 275.944 16.4648 276.065C16.7518 276.186 16.9956 276.345 17.1963 276.541L16.8813 276.978C16.8626 277.006 16.8381 277.031 16.8078 277.052C16.7798 277.073 16.7401 277.083 16.6888 277.083C16.6538 277.083 16.6176 277.074 16.5803 277.055C16.5429 277.034 16.5021 277.01 16.4578 276.982C16.4134 276.952 16.3621 276.919 16.3038 276.884C16.2454 276.849 16.1778 276.817 16.1008 276.789C16.0238 276.759 15.9339 276.735 15.8313 276.716C15.7309 276.695 15.6143 276.684 15.4813 276.684C15.2549 276.684 15.0473 276.725 14.8583 276.807C14.6716 276.886 14.5106 277.003 14.3753 277.157C14.2399 277.309 14.1349 277.495 14.0603 277.717C13.9856 277.936 13.9483 278.187 13.9483 278.469C13.9483 278.754 13.9879 279.007 14.0673 279.229C14.1489 279.451 14.2586 279.637 14.3963 279.789C14.5339 279.941 14.6961 280.057 14.8828 280.139C15.0694 280.218 15.2701 280.258 15.4848 280.258C15.6131 280.258 15.7286 280.251 15.8313 280.237C15.9363 280.223 16.0319 280.201 16.1183 280.17C16.2069 280.14 16.2898 280.102 16.3668 280.055C16.4461 280.006 16.5243 279.946 16.6013 279.876C16.6246 279.855 16.6491 279.839 16.6748 279.827C16.7004 279.813 16.7273 279.806 16.7553 279.806ZM22.0692 275.939V281H21.1242V278.788H18.7477V281H17.8027V275.939H18.7477V278.116H21.1242V275.939H22.0692Z" fill="white"/>
<rect width="50" height="7" fill="#FF9300" fill-opacity="0.5"/>
<path d="M3.2085 3.4835C3.38117 3.4835 3.53167 3.4625 3.66 3.4205C3.78833 3.37617 3.8945 3.31433 3.9785 3.235C4.06483 3.15333 4.129 3.05533 4.171 2.941C4.213 2.82433 4.234 2.69483 4.234 2.5525C4.234 2.41717 4.213 2.29467 4.171 2.185C4.129 2.07533 4.066 1.982 3.982 1.905C3.898 1.828 3.79183 1.76967 3.6635 1.73C3.53517 1.688 3.3835 1.667 3.2085 1.667H2.505V3.4835H3.2085ZM3.2085 0.939C3.54683 0.939 3.83967 0.978666 4.087 1.058C4.33433 1.13733 4.5385 1.24817 4.6995 1.3905C4.8605 1.53283 4.9795 1.70317 5.0565 1.9015C5.13583 2.09983 5.1755 2.31683 5.1755 2.5525C5.1755 2.7975 5.13467 3.02267 5.053 3.228C4.97133 3.431 4.84883 3.606 4.6855 3.753C4.52217 3.9 4.31683 4.01433 4.0695 4.096C3.8245 4.17767 3.5375 4.2185 3.2085 4.2185H2.505V6H1.5635V0.939H3.2085ZM10.619 3.4695C10.619 3.8405 10.5572 4.18467 10.4335 4.502C10.3122 4.817 10.1395 5.09 9.91548 5.321C9.69148 5.552 9.42198 5.73283 9.10698 5.8635C8.79198 5.99183 8.44198 6.056 8.05698 6.056C7.67432 6.056 7.32548 5.99183 7.01048 5.8635C6.69548 5.73283 6.42482 5.552 6.19848 5.321C5.97448 5.09 5.80065 4.817 5.67698 4.502C5.55332 4.18467 5.49148 3.8405 5.49148 3.4695C5.49148 3.0985 5.55332 2.7555 5.67698 2.4405C5.80065 2.12317 5.97448 1.849 6.19848 1.618C6.42482 1.387 6.69548 1.20733 7.01048 1.079C7.32548 0.948333 7.67432 0.883 8.05698 0.883C8.31365 0.883 8.55515 0.913333 8.78148 0.974C9.00782 1.03233 9.21548 1.11633 9.40448 1.226C9.59348 1.33333 9.76265 1.46517 9.91198 1.6215C10.0637 1.7755 10.192 1.94817 10.297 2.1395C10.402 2.33083 10.4813 2.5385 10.535 2.7625C10.591 2.9865 10.619 3.22217 10.619 3.4695ZM9.65648 3.4695C9.65648 3.19183 9.61915 2.94333 9.54448 2.724C9.46982 2.50233 9.36365 2.3145 9.22598 2.1605C9.08832 2.0065 8.92032 1.88867 8.72198 1.807C8.52598 1.72533 8.30432 1.6845 8.05698 1.6845C7.80965 1.6845 7.58682 1.72533 7.38848 1.807C7.19248 1.88867 7.02448 2.0065 6.88448 2.1605C6.74682 2.3145 6.64065 2.50233 6.56598 2.724C6.49132 2.94333 6.45398 3.19183 6.45398 3.4695C6.45398 3.74717 6.49132 3.99683 6.56598 4.2185C6.64065 4.43783 6.74682 4.6245 6.88448 4.7785C7.02448 4.93017 7.19248 5.04683 7.38848 5.1285C7.58682 5.21017 7.80965 5.251 8.05698 5.251C8.30432 5.251 8.52598 5.21017 8.72198 5.1285C8.92032 5.04683 9.08832 4.93017 9.22598 4.7785C9.36365 4.6245 9.46982 4.43783 9.54448 4.2185C9.61915 3.99683 9.65648 3.74717 9.65648 3.4695ZM14.3053 5.223V6H11.3408V0.939H12.2823V5.223H14.3053ZM16.3829 4.04V6H15.4449V4.04L13.6004 0.939H14.4299C14.5116 0.939 14.5758 0.958833 14.6224 0.9985C14.6714 1.03817 14.7123 1.08833 14.7449 1.149L15.6689 2.8395C15.7226 2.93983 15.7693 3.03433 15.8089 3.123C15.8509 3.21167 15.8883 3.30033 15.9209 3.389C15.9513 3.30033 15.9863 3.21167 16.0259 3.123C16.0656 3.03433 16.1111 2.93983 16.1624 2.8395L17.0829 1.149C17.1086 1.09767 17.1471 1.04983 17.1984 1.0055C17.2498 0.961166 17.3151 0.939 17.3944 0.939H18.2274L16.3829 4.04Z" fill="white"/>
</svg>
