<svg width="96" height="126" viewBox="0 0 96 126" fill="none" xmlns="http://www.w3.org/2000/svg">
<rect width="12" height="11" transform="translate(4 2)" fill="#FF9300"/>
<path d="M7.11556 7.5255H8.92856V8.2465H7.11556V7.5255ZM9.60089 6.3495C9.63589 6.10683 9.70356 5.8945 9.80389 5.7125C9.90422 5.52817 10.0291 5.37533 10.1784 5.254C10.3301 5.13033 10.5027 5.03817 10.6964 4.9775C10.8924 4.9145 11.1024 4.883 11.3264 4.883C11.5597 4.883 11.7697 4.91683 11.9564 4.9845C12.1454 5.04983 12.3064 5.142 12.4394 5.261C12.5724 5.37767 12.6739 5.51533 12.7439 5.674C12.8162 5.83267 12.8524 6.00417 12.8524 6.1885C12.8524 6.3495 12.8337 6.49183 12.7964 6.6155C12.7614 6.73683 12.7101 6.843 12.6424 6.934C12.5747 7.025 12.4907 7.102 12.3904 7.165C12.2901 7.228 12.1769 7.2805 12.0509 7.3225C12.3542 7.41817 12.5806 7.564 12.7299 7.76C12.8792 7.956 12.9539 8.20217 12.9539 8.4985C12.9539 8.7505 12.9072 8.97333 12.8139 9.167C12.7206 9.36067 12.5946 9.524 12.4359 9.657C12.2772 9.78767 12.0929 9.88683 11.8829 9.9545C11.6752 10.0222 11.4547 10.056 11.2214 10.056C10.9671 10.056 10.7454 10.0268 10.5564 9.9685C10.3674 9.91017 10.2029 9.82383 10.0629 9.7095C9.92289 9.59517 9.80389 9.45517 9.70589 9.2895C9.60789 9.12383 9.52389 8.9325 9.45389 8.7155L9.83539 8.558C9.93572 8.516 10.0291 8.5055 10.1154 8.5265C10.2041 8.54517 10.2682 8.59183 10.3079 8.6665C10.3499 8.74817 10.3954 8.82867 10.4444 8.908C10.4957 8.98733 10.5564 9.0585 10.6264 9.1215C10.6964 9.18217 10.7781 9.23233 10.8714 9.272C10.9671 9.30933 11.0802 9.328 11.2109 9.328C11.3579 9.328 11.4862 9.30467 11.5959 9.258C11.7056 9.209 11.7966 9.146 11.8689 9.069C11.9436 8.992 11.9984 8.90683 12.0334 8.8135C12.0707 8.71783 12.0894 8.62217 12.0894 8.5265C12.0894 8.40517 12.0766 8.2955 12.0509 8.1975C12.0252 8.09717 11.9716 8.012 11.8899 7.942C11.8082 7.872 11.6904 7.81717 11.5364 7.7775C11.3847 7.73783 11.1806 7.718 10.9239 7.718V7.102C11.1362 7.09967 11.3124 7.07983 11.4524 7.0425C11.5924 7.00517 11.7032 6.95383 11.7849 6.8885C11.8689 6.82083 11.9272 6.74033 11.9599 6.647C11.9926 6.55367 12.0089 6.451 12.0089 6.339C12.0089 6.101 11.9424 5.92017 11.8094 5.7965C11.6764 5.67283 11.4991 5.611 11.2774 5.611C11.1747 5.611 11.0802 5.62617 10.9939 5.6565C10.9076 5.6845 10.8294 5.72533 10.7594 5.779C10.6917 5.83033 10.6346 5.891 10.5879 5.961C10.5412 6.031 10.5062 6.108 10.4829 6.192C10.4432 6.29933 10.3907 6.3705 10.3254 6.4055C10.2624 6.4405 10.1726 6.44867 10.0559 6.43L9.60089 6.3495Z" fill="white"/>
<rect width="12" height="11" transform="translate(17 20)" fill="#FF9300"/>
<path d="M20.1156 25.5255H21.9286V26.2465H20.1156V25.5255ZM25.6564 27.195C25.7497 27.195 25.8232 27.2218 25.8769 27.2755C25.9329 27.3268 25.9609 27.3957 25.9609 27.482V28H22.4889V27.713C22.4889 27.6547 22.5006 27.594 22.5239 27.531C22.5496 27.4657 22.5892 27.4073 22.6429 27.356L24.1794 25.816C24.3077 25.6853 24.4221 25.5605 24.5224 25.4415C24.6251 25.3225 24.7102 25.2047 24.7779 25.088C24.8456 24.9713 24.8969 24.8535 24.9319 24.7345C24.9692 24.6132 24.9879 24.486 24.9879 24.353C24.9879 24.2317 24.9704 24.1255 24.9354 24.0345C24.9004 23.9412 24.8502 23.863 24.7849 23.8C24.7219 23.737 24.6449 23.6903 24.5539 23.66C24.4652 23.6273 24.3649 23.611 24.2529 23.611C24.1502 23.611 24.0546 23.6262 23.9659 23.6565C23.8796 23.6845 23.8026 23.7253 23.7349 23.779C23.6672 23.8303 23.6101 23.891 23.5634 23.961C23.5167 24.031 23.4817 24.108 23.4584 24.192C23.4187 24.2993 23.3674 24.3705 23.3044 24.4055C23.2414 24.4405 23.1504 24.4487 23.0314 24.43L22.5764 24.3495C22.6114 24.1068 22.6791 23.8945 22.7794 23.7125C22.8797 23.5282 23.0046 23.3753 23.1539 23.254C23.3056 23.1303 23.4782 23.0382 23.6719 22.9775C23.8679 22.9145 24.0779 22.883 24.3019 22.883C24.5352 22.883 24.7487 22.918 24.9424 22.988C25.1361 23.0557 25.3017 23.1525 25.4394 23.2785C25.5771 23.4045 25.6844 23.5562 25.7614 23.7335C25.8384 23.9108 25.8769 24.108 25.8769 24.325C25.8769 24.5117 25.8489 24.6843 25.7929 24.843C25.7392 25.0017 25.6657 25.1533 25.5724 25.298C25.4814 25.4427 25.3741 25.5827 25.2504 25.718C25.1267 25.8533 24.9972 25.991 24.8619 26.131L23.7209 27.2965C23.8306 27.2638 23.9391 27.2393 24.0464 27.223C24.1561 27.2043 24.2599 27.195 24.3579 27.195H25.6564Z" fill="white"/>
<rect width="12" height="11" transform="translate(30 38)" fill="#FF9300"/>
<path d="M33.1156 43.5255H34.9286V44.2465H33.1156V43.5255ZM38.8454 45.3525V46H36.0454V45.3525H37.0709V42.402C37.0709 42.2853 37.0744 42.1652 37.0814 42.0415L36.3534 42.6505C36.3114 42.6832 36.2694 42.7042 36.2274 42.7135C36.1877 42.7205 36.1492 42.7205 36.1119 42.7135C36.0769 42.7065 36.0454 42.6948 36.0174 42.6785C35.9894 42.6598 35.9684 42.64 35.9544 42.619L35.6814 42.2445L37.2249 40.932H37.9354V45.3525H38.8454Z" fill="white"/>
<rect width="12" height="11" transform="translate(43 56)" fill="#FF9300"/>
<path d="M50.8547 61.4695C50.8547 61.9105 50.8069 62.2943 50.7112 62.621C50.6179 62.9453 50.4872 63.2137 50.3192 63.426C50.1536 63.6383 49.9564 63.797 49.7277 63.902C49.5014 64.0047 49.2564 64.056 48.9927 64.056C48.7291 64.056 48.4841 64.0047 48.2577 63.902C48.0337 63.797 47.8389 63.6383 47.6732 63.426C47.5076 63.2137 47.3781 62.9453 47.2847 62.621C47.1914 62.2943 47.1447 61.9105 47.1447 61.4695C47.1447 61.0262 47.1914 60.6423 47.2847 60.318C47.3781 59.9937 47.5076 59.7253 47.6732 59.513C47.8389 59.3007 48.0337 59.1432 48.2577 59.0405C48.4841 58.9355 48.7291 58.883 48.9927 58.883C49.2564 58.883 49.5014 58.9355 49.7277 59.0405C49.9564 59.1432 50.1536 59.3007 50.3192 59.513C50.4872 59.7253 50.6179 59.9937 50.7112 60.318C50.8069 60.6423 50.8547 61.0262 50.8547 61.4695ZM49.9622 61.4695C49.9622 61.1032 49.9354 60.7998 49.8817 60.5595C49.8281 60.3192 49.7557 60.1278 49.6647 59.9855C49.5761 59.8432 49.4734 59.744 49.3567 59.688C49.2401 59.6297 49.1187 59.6005 48.9927 59.6005C48.8691 59.6005 48.7489 59.6297 48.6322 59.688C48.5179 59.744 48.4164 59.8432 48.3277 59.9855C48.2391 60.1278 48.1679 60.3192 48.1142 60.5595C48.0629 60.7998 48.0372 61.1032 48.0372 61.4695C48.0372 61.8358 48.0629 62.1392 48.1142 62.3795C48.1679 62.6198 48.2391 62.8112 48.3277 62.9535C48.4164 63.0958 48.5179 63.1962 48.6322 63.2545C48.7489 63.3105 48.8691 63.3385 48.9927 63.3385C49.1187 63.3385 49.2401 63.3105 49.3567 63.2545C49.4734 63.1962 49.5761 63.0958 49.6647 62.9535C49.7557 62.8112 49.8281 62.6198 49.8817 62.3795C49.9354 62.1392 49.9622 61.8358 49.9622 61.4695Z" fill="white"/>
<rect width="12" height="11" transform="translate(56 74)" fill="#FF9300"/>
<path d="M63.5922 81.3525V82H60.7922V81.3525H61.8177V78.402C61.8177 78.2853 61.8212 78.1652 61.8282 78.0415L61.1002 78.6505C61.0582 78.6832 61.0162 78.7042 60.9742 78.7135C60.9346 78.7205 60.8961 78.7205 60.8587 78.7135C60.8237 78.7065 60.7922 78.6948 60.7642 78.6785C60.7362 78.6598 60.7152 78.64 60.7012 78.619L60.4282 78.2445L61.9717 76.932H62.6822V81.3525H63.5922Z" fill="white"/>
<rect width="12" height="11" transform="translate(69 92)" fill="#FF9300"/>
<path d="M76.4032 99.195C76.4966 99.195 76.5701 99.2218 76.6237 99.2755C76.6797 99.3268 76.7077 99.3957 76.7077 99.482V100H73.2357V99.713C73.2357 99.6547 73.2474 99.594 73.2707 99.531C73.2964 99.4657 73.3361 99.4073 73.3897 99.356L74.9262 97.816C75.0546 97.6853 75.1689 97.5605 75.2692 97.4415C75.3719 97.3225 75.4571 97.2047 75.5247 97.088C75.5924 96.9713 75.6437 96.8535 75.6787 96.7345C75.7161 96.6132 75.7347 96.486 75.7347 96.353C75.7347 96.2317 75.7172 96.1255 75.6822 96.0345C75.6472 95.9412 75.5971 95.863 75.5317 95.8C75.4687 95.737 75.3917 95.6903 75.3007 95.66C75.2121 95.6273 75.1117 95.611 74.9997 95.611C74.8971 95.611 74.8014 95.6262 74.7127 95.6565C74.6264 95.6845 74.5494 95.7253 74.4817 95.779C74.4141 95.8303 74.3569 95.891 74.3102 95.961C74.2636 96.031 74.2286 96.108 74.2052 96.192C74.1656 96.2993 74.1142 96.3705 74.0512 96.4055C73.9882 96.4405 73.8972 96.4487 73.7782 96.43L73.3232 96.3495C73.3582 96.1068 73.4259 95.8945 73.5262 95.7125C73.6266 95.5282 73.7514 95.3753 73.9007 95.254C74.0524 95.1303 74.2251 95.0382 74.4187 94.9775C74.6147 94.9145 74.8247 94.883 75.0487 94.883C75.2821 94.883 75.4956 94.918 75.6892 94.988C75.8829 95.0557 76.0486 95.1525 76.1862 95.2785C76.3239 95.4045 76.4312 95.5562 76.5082 95.7335C76.5852 95.9108 76.6237 96.108 76.6237 96.325C76.6237 96.5117 76.5957 96.6843 76.5397 96.843C76.4861 97.0017 76.4126 97.1533 76.3192 97.298C76.2282 97.4427 76.1209 97.5827 75.9972 97.718C75.8736 97.8533 75.7441 97.991 75.6087 98.131L74.4677 99.2965C74.5774 99.2638 74.6859 99.2393 74.7932 99.223C74.9029 99.2043 75.0067 99.195 75.1047 99.195H76.4032Z" fill="white"/>
<rect width="12" height="11" transform="translate(82 110)" fill="#FF9300"/>
<path d="M86.3477 114.349C86.3827 114.107 86.4504 113.894 86.5507 113.712C86.6511 113.528 86.7759 113.375 86.9252 113.254C87.0769 113.13 87.2496 113.038 87.4432 112.977C87.6392 112.914 87.8492 112.883 88.0732 112.883C88.3066 112.883 88.5166 112.917 88.7032 112.984C88.8922 113.05 89.0532 113.142 89.1862 113.261C89.3192 113.378 89.4207 113.515 89.4907 113.674C89.5631 113.833 89.5992 114.004 89.5992 114.188C89.5992 114.349 89.5806 114.492 89.5432 114.615C89.5082 114.737 89.4569 114.843 89.3892 114.934C89.3216 115.025 89.2376 115.102 89.1372 115.165C89.0369 115.228 88.9237 115.28 88.7977 115.322C89.1011 115.418 89.3274 115.564 89.4767 115.76C89.6261 115.956 89.7007 116.202 89.7007 116.498C89.7007 116.75 89.6541 116.973 89.5607 117.167C89.4674 117.361 89.3414 117.524 89.1827 117.657C89.0241 117.788 88.8397 117.887 88.6297 117.954C88.4221 118.022 88.2016 118.056 87.9682 118.056C87.7139 118.056 87.4922 118.027 87.3032 117.968C87.1142 117.91 86.9497 117.824 86.8097 117.709C86.6697 117.595 86.5507 117.455 86.4527 117.289C86.3547 117.124 86.2707 116.932 86.2007 116.715L86.5822 116.558C86.6826 116.516 86.7759 116.505 86.8622 116.526C86.9509 116.545 87.0151 116.592 87.0547 116.666C87.0967 116.748 87.1422 116.829 87.1912 116.908C87.2426 116.987 87.3032 117.058 87.3732 117.121C87.4432 117.182 87.5249 117.232 87.6182 117.272C87.7139 117.309 87.8271 117.328 87.9577 117.328C88.1047 117.328 88.2331 117.305 88.3427 117.258C88.4524 117.209 88.5434 117.146 88.6157 117.069C88.6904 116.992 88.7452 116.907 88.7802 116.813C88.8176 116.718 88.8362 116.622 88.8362 116.526C88.8362 116.405 88.8234 116.295 88.7977 116.197C88.7721 116.097 88.7184 116.012 88.6367 115.942C88.5551 115.872 88.4372 115.817 88.2832 115.777C88.1316 115.738 87.9274 115.718 87.6707 115.718V115.102C87.8831 115.1 88.0592 115.08 88.1992 115.042C88.3392 115.005 88.4501 114.954 88.5317 114.888C88.6157 114.821 88.6741 114.74 88.7067 114.647C88.7394 114.554 88.7557 114.451 88.7557 114.339C88.7557 114.101 88.6892 113.92 88.5562 113.796C88.4232 113.673 88.2459 113.611 88.0242 113.611C87.9216 113.611 87.8271 113.626 87.7407 113.656C87.6544 113.684 87.5762 113.725 87.5062 113.779C87.4386 113.83 87.3814 113.891 87.3347 113.961C87.2881 114.031 87.2531 114.108 87.2297 114.192C87.1901 114.299 87.1376 114.37 87.0722 114.405C87.0092 114.44 86.9194 114.449 86.8027 114.43L86.3477 114.349Z" fill="white"/>
</svg>
