<?xml version="1.0" encoding="utf-8"?>
<svg width="11px" height="22px" viewbox="0 0 11 22" version="1.1" xmlns:xlink="http://www.w3.org/1999/xlink" xmlns="http://www.w3.org/2000/svg">
  <defs>
    <path d="M0 0L11 0L11 22L0 22L0 0Z" id="path_1" />
    <rect width="11" height="22" id="artboard_1" />
    <clipPath id="clip_1">
      <use xlink:href="#artboard_1" clip-rule="evenodd" />
    </clipPath>
    <clipPath id="mask_1">
      <use xlink:href="#path_1" />
    </clipPath>
  </defs>
  <g id="hover00177" clip-path="url(#clip_1)">
    <path d="M0 0L11 0L11 22L0 22L0 0Z" id="Background" fill="none" fill-rule="evenodd" stroke="none" />
    <g clip-path="url(#mask_1)">
      <path d="M0 2.33333L0 1.16667C0 0.844501 0.113903 0.569515 0.341709 0.341709C0.569515 0.113903 0.844501 0 1.16667 0L5.83333 0C6.1555 0 6.43049 0.113903 6.65829 0.341709C6.8861 0.569515 7 0.844501 7 1.16667L7 5.83333C7 6.1555 6.8861 6.43049 6.65829 6.65829C6.43049 6.8861 6.1555 7 5.83333 7L1.16667 7C0.844501 7 0.569515 6.8861 0.341709 6.65829C0.113903 6.43049 0 6.1555 0 5.83333L0 2.33333Z" transform="translate(2 2)" id="Rectangle" fill="#FF9300" fill-opacity="0.49803922" fill-rule="evenodd" stroke="none" />
      <path d="M3.27509 0L0.400238 2.84901L2.12515 4.55842L4.99999 1.70941L3.27509 0L3.27509 0ZM1.62627 5L0 3.38824L0 5L1.62627 5L1.62627 5Z" transform="translate(3 3)" id="Shape" fill="#000000" fill-rule="evenodd" stroke="none" />
      <path d="M0 1.75L0 0.875C0 0.633375 0.0854272 0.427136 0.256282 0.256282C0.427136 0.0854272 0.633375 0 0.875 0L6.125 0C6.36662 0 6.57286 0.0854272 6.74372 0.256282C6.91457 0.427136 7 0.633375 7 0.875L7 6.125C7 6.36662 6.91457 6.57286 6.74372 6.74372C6.57286 6.91457 6.36662 7 6.125 7L0.875 7C0.633375 7 0.427136 6.91457 0.256282 6.74372C0.0854272 6.57286 0 6.36662 0 6.125L0 1.75Z" transform="translate(2 13)" id="Rectangle" fill="#804900" fill-rule="evenodd" stroke="none" />
      <path d="M3.27509 0L0.400238 2.849L2.12515 4.5584L4.99999 1.7094L3.27509 0L3.27509 0ZM1.62627 5.00001L0 3.38821L0 5.00001L1.62627 5.00001L1.62627 5.00001Z" transform="translate(3 14)" id="Shape" fill="#FF9300" fill-rule="evenodd" stroke="none" />
    </g>
  </g>
</svg>