<svg width="94" height="45" viewBox="0 0 94 45" fill="none" xmlns="http://www.w3.org/2000/svg">
<path d="M2 4.5C2 3.39543 2.89543 2.5 4 2.5H28C29.1046 2.5 30 3.39543 30 4.5V10.5C30 11.6046 29.1046 12.5 28 12.5H4C2.89543 12.5 2 11.6046 2 10.5V4.5Z" fill="#804900"/>
<path d="M9.02088 5.768C8.98888 5.824 8.95421 5.86533 8.91688 5.892C8.88221 5.916 8.83821 5.928 8.78488 5.928C8.72888 5.928 8.66754 5.908 8.60088 5.868C8.53688 5.82533 8.45954 5.77867 8.36888 5.728C8.27821 5.67733 8.17154 5.632 8.04888 5.592C7.92888 5.54933 7.78621 5.528 7.62088 5.528C7.47154 5.528 7.34088 5.54667 7.22888 5.584C7.11688 5.61867 7.02221 5.668 6.94488 5.732C6.87021 5.796 6.81421 5.87333 6.77688 5.964C6.73954 6.052 6.72088 6.14933 6.72088 6.256C6.72088 6.392 6.75821 6.50533 6.83288 6.596C6.91021 6.68667 7.01154 6.764 7.13688 6.828C7.26221 6.892 7.40488 6.94933 7.56488 7C7.72488 7.05067 7.88888 7.10533 8.05688 7.164C8.22488 7.22 8.38888 7.28667 8.54888 7.364C8.70888 7.43867 8.85154 7.53467 8.97688 7.652C9.10221 7.76667 9.20221 7.908 9.27688 8.076C9.35421 8.244 9.39288 8.448 9.39288 8.688C9.39288 8.94933 9.34754 9.19467 9.25688 9.424C9.16888 9.65067 9.03821 9.84933 8.86488 10.02C8.69421 10.188 8.48488 10.3213 8.23688 10.42C7.98888 10.516 7.70488 10.564 7.38488 10.564C7.20088 10.564 7.01954 10.5453 6.84088 10.508C6.66221 10.4733 6.49021 10.4227 6.32487 10.356C6.16221 10.2893 6.00888 10.2093 5.86488 10.116C5.72088 10.0227 5.59288 9.91867 5.48088 9.804L5.79688 9.288C5.82354 9.25067 5.85821 9.22 5.90088 9.196C5.94354 9.16933 5.98888 9.156 6.03688 9.156C6.10354 9.156 6.17554 9.184 6.25288 9.24C6.33021 9.29333 6.42221 9.35333 6.52888 9.42C6.63554 9.48667 6.75954 9.548 6.90088 9.604C7.04488 9.65733 7.21688 9.684 7.41688 9.684C7.72354 9.684 7.96088 9.612 8.12888 9.468C8.29688 9.32133 8.38088 9.112 8.38088 8.84C8.38088 8.688 8.34221 8.564 8.26488 8.468C8.19021 8.372 8.09021 8.292 7.96488 8.228C7.83954 8.16133 7.69688 8.10533 7.53688 8.06C7.37688 8.01467 7.21421 7.96533 7.04888 7.912C6.88354 7.85867 6.72088 7.79467 6.56088 7.72C6.40088 7.64533 6.25821 7.548 6.13288 7.428C6.00754 7.308 5.90621 7.15867 5.82888 6.98C5.75421 6.79867 5.71688 6.576 5.71688 6.312C5.71688 6.10133 5.75821 5.896 5.84088 5.696C5.92621 5.496 6.04888 5.31867 6.20888 5.164C6.36888 5.00933 6.56621 4.88533 6.80088 4.792C7.03554 4.69867 7.30488 4.652 7.60888 4.652C7.95021 4.652 8.26488 4.70533 8.55288 4.812C8.84088 4.91867 9.08621 5.068 9.28888 5.26L9.02088 5.768ZM11.1839 6.396V10.5H10.1919V6.396H11.1839ZM11.3199 5.2C11.3199 5.28533 11.3025 5.36533 11.2679 5.44C11.2332 5.51467 11.1865 5.58 11.1279 5.636C11.0719 5.692 11.0052 5.73733 10.9279 5.772C10.8505 5.804 10.7679 5.82 10.6799 5.82C10.5945 5.82 10.5132 5.804 10.4359 5.772C10.3612 5.73733 10.2959 5.692 10.2399 5.636C10.1839 5.58 10.1385 5.51467 10.1039 5.44C10.0719 5.36533 10.0559 5.28533 10.0559 5.2C10.0559 5.112 10.0719 5.02933 10.1039 4.952C10.1385 4.87467 10.1839 4.808 10.2399 4.752C10.2959 4.696 10.3612 4.652 10.4359 4.62C10.5132 4.58533 10.5945 4.568 10.6799 4.568C10.7679 4.568 10.8505 4.58533 10.9279 4.62C11.0052 4.652 11.0719 4.696 11.1279 4.752C11.1865 4.808 11.2332 4.87467 11.2679 4.952C11.3025 5.02933 11.3199 5.112 11.3199 5.2ZM13.1151 6.9C13.1978 6.81733 13.2845 6.74133 13.3751 6.672C13.4685 6.6 13.5658 6.54 13.6671 6.492C13.7711 6.44133 13.8818 6.40267 13.9991 6.376C14.1165 6.34667 14.2445 6.332 14.3831 6.332C14.6071 6.332 14.8058 6.37067 14.9791 6.448C15.1525 6.52267 15.2965 6.62933 15.4111 6.768C15.5285 6.904 15.6165 7.068 15.6751 7.26C15.7365 7.44933 15.7671 7.65867 15.7671 7.888V10.5H14.7791V7.888C14.7791 7.63733 14.7218 7.444 14.6071 7.308C14.4925 7.16933 14.3178 7.1 14.0831 7.1C13.9125 7.1 13.7525 7.13867 13.6031 7.216C13.4538 7.29333 13.3125 7.39867 13.1791 7.532V10.5H12.1911V6.396H12.7951C12.9231 6.396 13.0071 6.456 13.0471 6.576L13.1151 6.9ZM18.2068 8.348C18.3294 8.348 18.4361 8.332 18.5268 8.3C18.6174 8.26533 18.6921 8.21867 18.7508 8.16C18.8121 8.10133 18.8574 8.03067 18.8868 7.948C18.9188 7.86533 18.9348 7.77467 18.9348 7.676C18.9348 7.47333 18.8734 7.31333 18.7508 7.196C18.6308 7.076 18.4494 7.016 18.2068 7.016C17.9641 7.016 17.7814 7.076 17.6588 7.196C17.5388 7.31333 17.4788 7.47333 17.4788 7.676C17.4788 7.772 17.4934 7.86133 17.5228 7.944C17.5548 8.02667 17.6001 8.09867 17.6588 8.16C17.7201 8.21867 17.7961 8.26533 17.8868 8.3C17.9801 8.332 18.0868 8.348 18.2068 8.348ZM19.3228 10.684C19.3228 10.604 19.2988 10.5387 19.2508 10.488C19.2028 10.4373 19.1374 10.3987 19.0548 10.372C18.9721 10.3427 18.8748 10.3213 18.7628 10.308C18.6534 10.2947 18.5361 10.2853 18.4108 10.28C18.2881 10.272 18.1601 10.2653 18.0268 10.26C17.8961 10.2547 17.7681 10.244 17.6428 10.228C17.5334 10.2893 17.4441 10.3613 17.3748 10.444C17.3081 10.5267 17.2747 10.6227 17.2747 10.732C17.2747 10.804 17.2921 10.8707 17.3268 10.932C17.3641 10.996 17.4214 11.0507 17.4988 11.096C17.5788 11.1413 17.6814 11.176 17.8068 11.2C17.9321 11.2267 18.0854 11.24 18.2668 11.24C18.4508 11.24 18.6094 11.2253 18.7428 11.196C18.8761 11.1693 18.9854 11.1307 19.0708 11.08C19.1588 11.032 19.2228 10.9733 19.2628 10.904C19.3028 10.8373 19.3228 10.764 19.3228 10.684ZM20.3068 6.536V6.904C20.3068 7.02133 20.2361 7.09333 20.0948 7.12L19.7268 7.188C19.7828 7.32933 19.8108 7.484 19.8108 7.652C19.8108 7.85467 19.7694 8.03867 19.6868 8.204C19.6068 8.36667 19.4948 8.50533 19.3508 8.62C19.2068 8.73467 19.0361 8.824 18.8388 8.888C18.6441 8.94933 18.4334 8.98 18.2068 8.98C18.1268 8.98 18.0494 8.976 17.9748 8.968C17.9001 8.96 17.8268 8.94933 17.7548 8.936C17.6268 9.01333 17.5628 9.1 17.5628 9.196C17.5628 9.27867 17.6001 9.34 17.6748 9.38C17.7521 9.41733 17.8534 9.444 17.9788 9.46C18.1041 9.476 18.2468 9.48667 18.4068 9.492C18.5668 9.49467 18.7308 9.50267 18.8988 9.516C19.0668 9.52933 19.2308 9.55333 19.3908 9.588C19.5508 9.62 19.6934 9.672 19.8188 9.744C19.9441 9.816 20.0441 9.91467 20.1188 10.04C20.1961 10.1627 20.2348 10.3213 20.2348 10.516C20.2348 10.6973 20.1894 10.8733 20.0988 11.044C20.0108 11.2147 19.8814 11.3667 19.7108 11.5C19.5428 11.6333 19.3348 11.74 19.0868 11.82C18.8414 11.9027 18.5614 11.944 18.2468 11.944C17.9374 11.944 17.6681 11.9133 17.4388 11.852C17.2094 11.7933 17.0188 11.7133 16.8668 11.612C16.7148 11.5133 16.6014 11.3987 16.5268 11.268C16.4521 11.1373 16.4148 11.0013 16.4148 10.86C16.4148 10.668 16.4721 10.508 16.5868 10.38C16.7041 10.2493 16.8641 10.1453 17.0668 10.068C16.9574 10.012 16.8708 9.93733 16.8067 9.844C16.7428 9.75067 16.7108 9.628 16.7108 9.476C16.7108 9.41467 16.7214 9.352 16.7428 9.288C16.7668 9.22133 16.8001 9.156 16.8428 9.092C16.8881 9.028 16.9441 8.968 17.0108 8.912C17.0774 8.85333 17.1561 8.80133 17.2467 8.756C17.0388 8.644 16.8748 8.49467 16.7548 8.308C16.6374 8.12133 16.5788 7.90267 16.5788 7.652C16.5788 7.44933 16.6188 7.26667 16.6988 7.104C16.7814 6.93867 16.8948 6.79867 17.0388 6.684C17.1854 6.56667 17.3574 6.47733 17.5548 6.416C17.7548 6.35467 17.9721 6.324 18.2068 6.324C18.3828 6.324 18.5481 6.34267 18.7028 6.38C18.8574 6.41467 18.9988 6.46667 19.1268 6.536H20.3068ZM21.9333 4.556V10.5H20.9453V4.556H21.9333ZM25.5617 7.976C25.5617 7.848 25.543 7.728 25.5057 7.616C25.471 7.50133 25.4177 7.40133 25.3457 7.316C25.2737 7.23067 25.1817 7.164 25.0697 7.116C24.9604 7.06533 24.8324 7.04 24.6857 7.04C24.4004 7.04 24.175 7.12133 24.0097 7.284C23.847 7.44667 23.743 7.67733 23.6977 7.976H25.5617ZM23.6777 8.572C23.6937 8.78267 23.731 8.96533 23.7897 9.12C23.8484 9.272 23.9257 9.39867 24.0217 9.5C24.1177 9.59867 24.231 9.67333 24.3617 9.724C24.495 9.772 24.6417 9.796 24.8017 9.796C24.9617 9.796 25.099 9.77733 25.2137 9.74C25.331 9.70267 25.4324 9.66133 25.5177 9.616C25.6057 9.57067 25.6817 9.52933 25.7457 9.492C25.8124 9.45467 25.8764 9.436 25.9377 9.436C26.0204 9.436 26.0817 9.46667 26.1217 9.528L26.4057 9.888C26.2964 10.016 26.1737 10.124 26.0377 10.212C25.9017 10.2973 25.759 10.3667 25.6097 10.42C25.463 10.4707 25.3124 10.5067 25.1577 10.528C25.0057 10.5493 24.8577 10.56 24.7137 10.56C24.4284 10.56 24.163 10.5133 23.9177 10.42C23.6724 10.324 23.459 10.184 23.2777 10C23.0964 9.81333 22.9537 9.584 22.8497 9.312C22.7457 9.03733 22.6937 8.72 22.6937 8.36C22.6937 8.08 22.739 7.81733 22.8297 7.572C22.9204 7.324 23.0497 7.10933 23.2177 6.928C23.3884 6.744 23.595 6.59867 23.8377 6.492C24.083 6.38533 24.359 6.332 24.6657 6.332C24.9244 6.332 25.163 6.37333 25.3817 6.456C25.6004 6.53867 25.7884 6.66 25.9457 6.82C26.103 6.97733 26.2257 7.172 26.3137 7.404C26.4044 7.63333 26.4497 7.896 26.4497 8.192C26.4497 8.34133 26.4337 8.44267 26.4017 8.496C26.3697 8.54667 26.3084 8.572 26.2177 8.572H23.6777Z" fill="#FF9300"/>
<path d="M33 19.5C33 18.3954 33.8954 17.5 35 17.5H59C60.1046 17.5 61 18.3954 61 19.5V25.5C61 26.6046 60.1046 27.5 59 27.5H35C33.8954 27.5 33 26.6046 33 25.5V19.5Z" fill="#804900"/>
<path d="M42.4545 20.768C42.4225 20.824 42.3878 20.8653 42.3505 20.892C42.3158 20.916 42.2718 20.928 42.2185 20.928C42.1625 20.928 42.1011 20.908 42.0345 20.868C41.9705 20.8253 41.8931 20.7787 41.8025 20.728C41.7118 20.6773 41.6051 20.632 41.4825 20.592C41.3625 20.5493 41.2198 20.528 41.0545 20.528C40.9051 20.528 40.7745 20.5467 40.6625 20.584C40.5505 20.6187 40.4558 20.668 40.3785 20.732C40.3038 20.796 40.2478 20.8733 40.2105 20.964C40.1731 21.052 40.1545 21.1493 40.1545 21.256C40.1545 21.392 40.1918 21.5053 40.2665 21.596C40.3438 21.6867 40.4451 21.764 40.5705 21.828C40.6958 21.892 40.8385 21.9493 40.9985 22C41.1585 22.0507 41.3225 22.1053 41.4905 22.164C41.6585 22.22 41.8225 22.2867 41.9825 22.364C42.1425 22.4387 42.2851 22.5347 42.4105 22.652C42.5358 22.7667 42.6358 22.908 42.7105 23.076C42.7878 23.244 42.8265 23.448 42.8265 23.688C42.8265 23.9493 42.7811 24.1947 42.6905 24.424C42.6025 24.6507 42.4718 24.8493 42.2985 25.02C42.1278 25.188 41.9185 25.3213 41.6705 25.42C41.4225 25.516 41.1385 25.564 40.8185 25.564C40.6345 25.564 40.4531 25.5453 40.2745 25.508C40.0958 25.4733 39.9238 25.4227 39.7585 25.356C39.5958 25.2893 39.4425 25.2093 39.2985 25.116C39.1545 25.0227 39.0265 24.9187 38.9145 24.804L39.2305 24.288C39.2571 24.2507 39.2918 24.22 39.3345 24.196C39.3771 24.1693 39.4225 24.156 39.4705 24.156C39.5371 24.156 39.6091 24.184 39.6865 24.24C39.7638 24.2933 39.8558 24.3533 39.9625 24.42C40.0691 24.4867 40.1931 24.548 40.3345 24.604C40.4785 24.6573 40.6505 24.684 40.8505 24.684C41.1571 24.684 41.3945 24.612 41.5625 24.468C41.7305 24.3213 41.8145 24.112 41.8145 23.84C41.8145 23.688 41.7758 23.564 41.6985 23.468C41.6238 23.372 41.5238 23.292 41.3985 23.228C41.2731 23.1613 41.1305 23.1053 40.9705 23.06C40.8105 23.0147 40.6478 22.9653 40.4825 22.912C40.3171 22.8587 40.1545 22.7947 39.9945 22.72C39.8345 22.6453 39.6918 22.548 39.5665 22.428C39.4411 22.308 39.3398 22.1587 39.2625 21.98C39.1878 21.7987 39.1505 21.576 39.1505 21.312C39.1505 21.1013 39.1918 20.896 39.2745 20.696C39.3598 20.496 39.4825 20.3187 39.6425 20.164C39.8025 20.0093 39.9998 19.8853 40.2345 19.792C40.4691 19.6987 40.7385 19.652 41.0425 19.652C41.3838 19.652 41.6985 19.7053 41.9865 19.812C42.2745 19.9187 42.5198 20.068 42.7225 20.26L42.4545 20.768ZM44.5424 21.836C44.7024 21.6867 44.8784 21.5653 45.0704 21.472C45.2624 21.3787 45.4877 21.332 45.7464 21.332C45.9704 21.332 46.1691 21.3707 46.3424 21.448C46.5157 21.5227 46.6597 21.6293 46.7744 21.768C46.8917 21.904 46.9797 22.068 47.0384 22.26C47.0997 22.4493 47.1304 22.6587 47.1304 22.888V25.5H46.1424V22.888C46.1424 22.6373 46.0851 22.444 45.9704 22.308C45.8557 22.1693 45.6811 22.1 45.4464 22.1C45.2757 22.1 45.1157 22.1387 44.9664 22.216C44.8171 22.2933 44.6757 22.3987 44.5424 22.532V25.5H43.5544V19.556H44.5424V21.836ZM49.094 21.396V25.5H48.102V21.396H49.094ZM49.23 20.2C49.23 20.2853 49.2127 20.3653 49.178 20.44C49.1434 20.5147 49.0967 20.58 49.038 20.636C48.982 20.692 48.9154 20.7373 48.838 20.772C48.7607 20.804 48.678 20.82 48.59 20.82C48.5047 20.82 48.4234 20.804 48.346 20.772C48.2714 20.7373 48.206 20.692 48.15 20.636C48.094 20.58 48.0487 20.5147 48.014 20.44C47.982 20.3653 47.966 20.2853 47.966 20.2C47.966 20.112 47.982 20.0293 48.014 19.952C48.0487 19.8747 48.094 19.808 48.15 19.752C48.206 19.696 48.2714 19.652 48.346 19.62C48.4234 19.5853 48.5047 19.568 48.59 19.568C48.678 19.568 48.7607 19.5853 48.838 19.62C48.9154 19.652 48.982 19.696 49.038 19.752C49.0967 19.808 49.1434 19.8747 49.178 19.952C49.2127 20.0293 49.23 20.112 49.23 20.2ZM54.0333 22.136V24.36C54.0333 24.488 54.0653 24.588 54.1293 24.66C54.1933 24.732 54.2786 24.768 54.3853 24.768C54.4466 24.768 54.4973 24.7613 54.5373 24.748C54.5799 24.732 54.6159 24.716 54.6453 24.7C54.6773 24.684 54.7053 24.6693 54.7293 24.656C54.7533 24.64 54.7773 24.632 54.8013 24.632C54.8306 24.632 54.8546 24.64 54.8733 24.656C54.8919 24.6693 54.9119 24.6907 54.9333 24.72L55.2293 25.2C55.0853 25.32 54.9199 25.4107 54.7333 25.472C54.5493 25.5333 54.3573 25.564 54.1573 25.564C53.7999 25.564 53.5253 25.464 53.3333 25.264C53.1413 25.0613 53.0453 24.7827 53.0453 24.428V22.136H51.3773V25.5H50.3893V22.14L50.0333 22.084C49.9559 22.068 49.8933 22.0413 49.8453 22.004C49.7999 21.964 49.7773 21.908 49.7773 21.836V21.432H50.3893V21.128C50.3893 20.8933 50.4239 20.6827 50.4933 20.496C50.5653 20.3093 50.6666 20.1507 50.7973 20.02C50.9306 19.8893 51.0919 19.7893 51.2813 19.72C51.4706 19.6507 51.6839 19.616 51.9213 19.616C52.1106 19.616 52.2866 19.6413 52.4493 19.692L52.4293 20.188C52.4266 20.2253 52.4159 20.256 52.3973 20.28C52.3786 20.3013 52.3533 20.3187 52.3213 20.332C52.2919 20.3427 52.2573 20.3507 52.2173 20.356C52.1773 20.3587 52.1346 20.36 52.0893 20.36C51.9719 20.36 51.8666 20.3733 51.7733 20.4C51.6826 20.424 51.6053 20.468 51.5413 20.532C51.4773 20.5933 51.4279 20.676 51.3933 20.78C51.3613 20.8813 51.3453 21.008 51.3453 21.16V21.432H53.0893L53.3013 20.308C53.3146 20.2547 53.3399 20.2133 53.3773 20.184C53.4146 20.1547 53.4626 20.14 53.5213 20.14H54.0333V21.432H55.1293V22.136H54.0333Z" fill="#FF9300"/>
<path d="M64 34.5C64 33.3954 64.8954 32.5 66 32.5H90C91.1046 32.5 92 33.3954 92 34.5V40.5C92 41.6046 91.1046 42.5 90 42.5H66C64.8954 42.5 64 41.6046 64 40.5V34.5Z" fill="#804900"/>
<path d="M74.0847 37.608C74.0847 38.032 74.014 38.4213 73.8727 38.776C73.7314 39.1307 73.5327 39.436 73.2767 39.692C73.0207 39.948 72.7127 40.1467 72.3527 40.288C71.9927 40.4293 71.5927 40.5 71.1527 40.5H68.9487V34.716H71.1527C71.5927 34.716 71.9927 34.788 72.3527 34.932C72.7127 35.0733 73.0207 35.272 73.2767 35.528C73.5327 35.7813 73.7314 36.0853 73.8727 36.44C74.014 36.7947 74.0847 37.184 74.0847 37.608ZM72.9807 37.608C72.9807 37.2907 72.938 37.0067 72.8527 36.756C72.77 36.5027 72.6487 36.2893 72.4887 36.116C72.3314 35.94 72.1394 35.8053 71.9127 35.712C71.6887 35.6187 71.4354 35.572 71.1527 35.572H70.0287V39.644H71.1527C71.4354 39.644 71.6887 39.5973 71.9127 39.504C72.1394 39.4107 72.3314 39.2773 72.4887 39.104C72.6487 38.928 72.77 38.7147 72.8527 38.464C72.938 38.2107 72.9807 37.9253 72.9807 37.608ZM75.7403 37.108C75.8683 36.8627 76.0203 36.6707 76.1963 36.532C76.3723 36.3907 76.5803 36.32 76.8203 36.32C77.0096 36.32 77.1616 36.3613 77.2763 36.444L77.2123 37.184C77.199 37.232 77.179 37.2667 77.1523 37.288C77.1283 37.3067 77.095 37.316 77.0523 37.316C77.0123 37.316 76.9523 37.3093 76.8723 37.296C76.795 37.2827 76.719 37.276 76.6443 37.276C76.535 37.276 76.4376 37.292 76.3523 37.324C76.267 37.356 76.1896 37.4027 76.1203 37.464C76.0536 37.5227 75.9936 37.5947 75.9403 37.68C75.8896 37.7653 75.8416 37.8627 75.7963 37.972V40.5H74.8083V36.396H75.3883C75.4896 36.396 75.5603 36.4147 75.6003 36.452C75.6403 36.4867 75.667 36.5507 75.6803 36.644L75.7403 37.108ZM79.906 38.748C79.6207 38.7613 79.3807 38.7867 79.186 38.824C78.9913 38.8587 78.8353 38.904 78.718 38.96C78.6007 39.016 78.5167 39.0813 78.466 39.156C78.4153 39.2307 78.39 39.312 78.39 39.4C78.39 39.5733 78.4407 39.6973 78.542 39.772C78.646 39.8467 78.7807 39.884 78.946 39.884C79.1487 39.884 79.3233 39.848 79.47 39.776C79.6193 39.7013 79.7647 39.5893 79.906 39.44V38.748ZM77.642 36.968C78.114 36.536 78.682 36.32 79.346 36.32C79.586 36.32 79.8007 36.36 79.99 36.44C80.1793 36.5173 80.3393 36.6267 80.47 36.768C80.6007 36.9067 80.6993 37.0733 80.766 37.268C80.8353 37.4627 80.87 37.676 80.87 37.908V40.5H80.422C80.3287 40.5 80.2567 40.4867 80.206 40.46C80.1553 40.4307 80.1153 40.3733 80.086 40.288L79.998 39.992C79.894 40.0853 79.7927 40.168 79.694 40.24C79.5953 40.3093 79.4927 40.368 79.386 40.416C79.2793 40.464 79.1647 40.5 79.042 40.524C78.922 40.5507 78.7887 40.564 78.642 40.564C78.4687 40.564 78.3087 40.5413 78.162 40.496C78.0153 40.448 77.8887 40.3773 77.782 40.284C77.6753 40.1907 77.5927 40.0747 77.534 39.936C77.4753 39.7973 77.446 39.636 77.446 39.452C77.446 39.348 77.4633 39.2453 77.498 39.144C77.5327 39.04 77.5887 38.9413 77.666 38.848C77.746 38.7547 77.8487 38.6667 77.974 38.584C78.0993 38.5013 78.2527 38.4293 78.434 38.368C78.618 38.3067 78.8313 38.2573 79.074 38.22C79.3167 38.18 79.594 38.156 79.906 38.148V37.908C79.906 37.6333 79.8473 37.4307 79.73 37.3C79.6127 37.1667 79.4433 37.1 79.222 37.1C79.062 37.1 78.9287 37.1187 78.822 37.156C78.718 37.1933 78.626 37.236 78.546 37.284C78.466 37.3293 78.3927 37.3707 78.326 37.408C78.262 37.4453 78.19 37.464 78.11 37.464C78.0407 37.464 77.982 37.4467 77.934 37.412C77.886 37.3747 77.8473 37.332 77.818 37.284L77.642 36.968ZM87.6214 36.396L86.3174 40.5H85.5254C85.4348 40.5 85.3721 40.4413 85.3374 40.324L84.6014 37.952C84.5774 37.872 84.5548 37.7933 84.5334 37.716C84.5148 37.636 84.4988 37.556 84.4854 37.476C84.4694 37.556 84.4508 37.6373 84.4294 37.72C84.4108 37.8 84.3894 37.88 84.3654 37.96L83.6174 40.324C83.5854 40.4413 83.5148 40.5 83.4054 40.5H82.6454L81.3454 36.396H82.1334C82.2054 36.396 82.2668 36.4133 82.3174 36.448C82.3681 36.4827 82.4014 36.5267 82.4174 36.58L83.0054 38.772C83.0348 38.892 83.0601 39.0093 83.0814 39.124C83.1054 39.2387 83.1254 39.3533 83.1414 39.468C83.1708 39.3533 83.2014 39.2387 83.2334 39.124C83.2681 39.0093 83.3041 38.892 83.3414 38.772L84.0214 36.572C84.0374 36.5187 84.0681 36.4747 84.1134 36.44C84.1614 36.4053 84.2188 36.388 84.2854 36.388H84.7214C84.7908 36.388 84.8494 36.4053 84.8974 36.44C84.9481 36.4747 84.9814 36.5187 84.9974 36.572L85.6574 38.772C85.6921 38.892 85.7241 39.0107 85.7534 39.128C85.7854 39.2427 85.8161 39.3573 85.8454 39.472C85.8801 39.2453 85.9294 39.012 85.9934 38.772L86.5974 36.58C86.6161 36.5267 86.6494 36.4827 86.6974 36.448C86.7454 36.4133 86.8028 36.396 86.8694 36.396H87.6214Z" fill="#FF9300"/>
</svg>
