<svg width="45" height="144" viewBox="0 0 45 144" fill="none" xmlns="http://www.w3.org/2000/svg">
<rect width="45" height="11" transform="translate(0 2)" fill="#FF9300" fill-opacity="0.5"/>
<rect width="39" height="11" transform="translate(0 2)" fill="#FF9300" fill-opacity="0.5"/>
<path d="M10.0967 8.8065C10.148 8.8065 10.1935 8.82633 10.2332 8.866L10.6042 9.2685C10.3988 9.52283 10.1457 9.71767 9.84468 9.853C9.54601 9.98833 9.18668 10.056 8.76668 10.056C8.39101 10.056 8.05268 9.99183 7.75168 9.8635C7.45301 9.73517 7.19751 9.55667 6.98518 9.328C6.77284 9.09933 6.60951 8.82633 6.49518 8.509C6.38318 8.19167 6.32718 7.84517 6.32718 7.4695C6.32718 7.08917 6.38784 6.7415 6.50918 6.4265C6.63051 6.10917 6.80084 5.83617 7.02018 5.6075C7.24184 5.37883 7.50551 5.2015 7.81118 5.0755C8.11684 4.94717 8.45518 4.883 8.82618 4.883C9.19484 4.883 9.52151 4.94367 9.80618 5.065C10.0932 5.18633 10.337 5.345 10.5377 5.541L10.2227 5.9785C10.204 6.0065 10.1795 6.031 10.1492 6.052C10.1212 6.073 10.0815 6.0835 10.0302 6.0835C9.99518 6.0835 9.95901 6.07417 9.92168 6.0555C9.88434 6.0345 9.84351 6.01 9.79918 5.982C9.75484 5.95167 9.70351 5.919 9.64518 5.884C9.58684 5.849 9.51918 5.8175 9.44218 5.7895C9.36518 5.75917 9.27534 5.73467 9.17268 5.716C9.07234 5.695 8.95568 5.6845 8.82268 5.6845C8.59634 5.6845 8.38868 5.72533 8.19968 5.807C8.01301 5.88633 7.85201 6.003 7.71668 6.157C7.58134 6.30867 7.47634 6.49533 7.40168 6.717C7.32701 6.93633 7.28968 7.18717 7.28968 7.4695C7.28968 7.75417 7.32934 8.00733 7.40868 8.229C7.49034 8.45067 7.60001 8.63733 7.73768 8.789C7.87534 8.94067 8.03751 9.05733 8.22418 9.139C8.41084 9.21833 8.61151 9.258 8.82618 9.258C8.95451 9.258 9.07001 9.251 9.17268 9.237C9.27768 9.223 9.37334 9.20083 9.45968 9.1705C9.54834 9.14017 9.63118 9.10167 9.70818 9.055C9.78751 9.006 9.86568 8.9465 9.94268 8.8765C9.96601 8.8555 9.99051 8.83917 10.0162 8.8275C10.0418 8.8135 10.0687 8.8065 10.0967 8.8065ZM14.1086 9.223V10H11.1441V4.939H12.0856V9.223H14.1086ZM17.3498 8.089L16.7338 6.4055C16.7035 6.33083 16.672 6.24217 16.6393 6.1395C16.6067 6.03683 16.574 5.926 16.5413 5.807C16.511 5.926 16.4795 6.038 16.4468 6.143C16.4142 6.24567 16.3827 6.3355 16.3523 6.4125L15.7398 8.089H17.3498ZM19.0123 10H18.2843C18.2027 10 18.1362 9.98017 18.0848 9.9405C18.0335 9.8985 17.995 9.84717 17.9693 9.7865L17.5913 8.754H15.4948L15.1168 9.7865C15.0982 9.84017 15.062 9.88917 15.0083 9.9335C14.9547 9.97783 14.8882 10 14.8088 10H14.0738L16.0653 4.939H17.0243L19.0123 10ZM22.1262 5.8595C22.0982 5.9085 22.0678 5.94467 22.0352 5.968C22.0048 5.989 21.9663 5.9995 21.9197 5.9995C21.8707 5.9995 21.817 5.982 21.7587 5.947C21.7027 5.90967 21.635 5.86883 21.5557 5.8245C21.4763 5.78017 21.383 5.7405 21.2757 5.7055C21.1707 5.66817 21.0458 5.6495 20.9012 5.6495C20.7705 5.6495 20.6562 5.66583 20.5582 5.6985C20.4602 5.72883 20.3773 5.772 20.3097 5.828C20.2443 5.884 20.1953 5.95167 20.1627 6.031C20.13 6.108 20.1137 6.19317 20.1137 6.2865C20.1137 6.4055 20.1463 6.50467 20.2117 6.584C20.2793 6.66333 20.368 6.731 20.4777 6.787C20.5873 6.843 20.7122 6.89317 20.8522 6.9375C20.9922 6.98183 21.1357 7.02967 21.2827 7.081C21.4297 7.13 21.5732 7.18833 21.7132 7.256C21.8532 7.32133 21.978 7.40533 22.0877 7.508C22.1973 7.60833 22.2848 7.732 22.3502 7.879C22.4178 8.026 22.4517 8.2045 22.4517 8.4145C22.4517 8.64317 22.412 8.85783 22.3327 9.0585C22.2557 9.25683 22.1413 9.43067 21.9897 9.58C21.8403 9.727 21.6572 9.84367 21.4402 9.93C21.2232 10.014 20.9747 10.056 20.6947 10.056C20.5337 10.056 20.375 10.0397 20.2187 10.007C20.0623 9.97667 19.9118 9.93233 19.7672 9.874C19.6248 9.81567 19.4907 9.74567 19.3647 9.664C19.2387 9.58233 19.1267 9.49133 19.0287 9.391L19.3052 8.9395C19.3285 8.90683 19.3588 8.88 19.3962 8.859C19.4335 8.83567 19.4732 8.824 19.5152 8.824C19.5735 8.824 19.6365 8.8485 19.7042 8.8975C19.7718 8.94417 19.8523 8.99667 19.9457 9.055C20.039 9.11333 20.1475 9.167 20.2712 9.216C20.3972 9.26267 20.5477 9.286 20.7227 9.286C20.991 9.286 21.1987 9.223 21.3457 9.097C21.4927 8.96867 21.5662 8.7855 21.5662 8.5475C21.5662 8.4145 21.5323 8.306 21.4647 8.222C21.3993 8.138 21.3118 8.068 21.2022 8.012C21.0925 7.95367 20.9677 7.90467 20.8277 7.865C20.6877 7.82533 20.5453 7.78217 20.4007 7.7355C20.256 7.68883 20.1137 7.63283 19.9737 7.5675C19.8337 7.50217 19.7088 7.417 19.5992 7.312C19.4895 7.207 19.4008 7.07633 19.3332 6.92C19.2678 6.76133 19.2352 6.5665 19.2352 6.3355C19.2352 6.15117 19.2713 5.9715 19.3437 5.7965C19.4183 5.6215 19.5257 5.46633 19.6657 5.331C19.8057 5.19567 19.9783 5.08717 20.1837 5.0055C20.389 4.92383 20.6247 4.883 20.8907 4.883C21.1893 4.883 21.4647 4.92967 21.7167 5.023C21.9687 5.11633 22.1833 5.247 22.3607 5.415L22.1262 5.8595ZM25.863 5.8595C25.835 5.9085 25.8046 5.94467 25.772 5.968C25.7416 5.989 25.7031 5.9995 25.6565 5.9995C25.6075 5.9995 25.5538 5.982 25.4955 5.947C25.4395 5.90967 25.3718 5.86883 25.2925 5.8245C25.2131 5.78017 25.1198 5.7405 25.0125 5.7055C24.9075 5.66817 24.7826 5.6495 24.638 5.6495C24.5073 5.6495 24.393 5.66583 24.295 5.6985C24.197 5.72883 24.1141 5.772 24.0465 5.828C23.9811 5.884 23.9321 5.95167 23.8995 6.031C23.8668 6.108 23.8505 6.19317 23.8505 6.2865C23.8505 6.4055 23.8831 6.50467 23.9485 6.584C24.0161 6.66333 24.1048 6.731 24.2145 6.787C24.3241 6.843 24.449 6.89317 24.589 6.9375C24.729 6.98183 24.8725 7.02967 25.0195 7.081C25.1665 7.13 25.31 7.18833 25.45 7.256C25.59 7.32133 25.7148 7.40533 25.8245 7.508C25.9341 7.60833 26.0216 7.732 26.087 7.879C26.1546 8.026 26.1885 8.2045 26.1885 8.4145C26.1885 8.64317 26.1488 8.85783 26.0695 9.0585C25.9925 9.25683 25.8781 9.43067 25.7265 9.58C25.5771 9.727 25.394 9.84367 25.177 9.93C24.96 10.014 24.7115 10.056 24.4315 10.056C24.2705 10.056 24.1118 10.0397 23.9555 10.007C23.7991 9.97667 23.6486 9.93233 23.504 9.874C23.3616 9.81567 23.2275 9.74567 23.1015 9.664C22.9755 9.58233 22.8635 9.49133 22.7655 9.391L23.042 8.9395C23.0653 8.90683 23.0956 8.88 23.133 8.859C23.1703 8.83567 23.21 8.824 23.252 8.824C23.3103 8.824 23.3733 8.8485 23.441 8.8975C23.5086 8.94417 23.5891 8.99667 23.6825 9.055C23.7758 9.11333 23.8843 9.167 24.008 9.216C24.134 9.26267 24.2845 9.286 24.4595 9.286C24.7278 9.286 24.9355 9.223 25.0825 9.097C25.2295 8.96867 25.303 8.7855 25.303 8.5475C25.303 8.4145 25.2691 8.306 25.2015 8.222C25.1361 8.138 25.0486 8.068 24.939 8.012C24.8293 7.95367 24.7045 7.90467 24.5645 7.865C24.4245 7.82533 24.2821 7.78217 24.1375 7.7355C23.9928 7.68883 23.8505 7.63283 23.7105 7.5675C23.5705 7.50217 23.4456 7.417 23.336 7.312C23.2263 7.207 23.1376 7.07633 23.07 6.92C23.0046 6.76133 22.972 6.5665 22.972 6.3355C22.972 6.15117 23.0081 5.9715 23.0805 5.7965C23.1551 5.6215 23.2625 5.46633 23.4025 5.331C23.5425 5.19567 23.7151 5.08717 23.9205 5.0055C24.1258 4.92383 24.3615 4.883 24.6275 4.883C24.9261 4.883 25.2015 4.92967 25.4535 5.023C25.7055 5.11633 25.9201 5.247 26.0975 5.415L25.863 5.8595ZM27.8498 10H26.9048V4.939H27.8498V10ZM32.3534 8.8065C32.4047 8.8065 32.4502 8.82633 32.4899 8.866L32.8609 9.2685C32.6556 9.52283 32.4024 9.71767 32.1014 9.853C31.8027 9.98833 31.4434 10.056 31.0234 10.056C30.6477 10.056 30.3094 9.99183 30.0084 9.8635C29.7097 9.73517 29.4542 9.55667 29.2419 9.328C29.0296 9.09933 28.8662 8.82633 28.7519 8.509C28.6399 8.19167 28.5839 7.84517 28.5839 7.4695C28.5839 7.08917 28.6446 6.7415 28.7659 6.4265C28.8872 6.10917 29.0576 5.83617 29.2769 5.6075C29.4986 5.37883 29.7622 5.2015 30.0679 5.0755C30.3736 4.94717 30.7119 4.883 31.0829 4.883C31.4516 4.883 31.7782 4.94367 32.0629 5.065C32.3499 5.18633 32.5937 5.345 32.7944 5.541L32.4794 5.9785C32.4607 6.0065 32.4362 6.031 32.4059 6.052C32.3779 6.073 32.3382 6.0835 32.2869 6.0835C32.2519 6.0835 32.2157 6.07417 32.1784 6.0555C32.1411 6.0345 32.1002 6.01 32.0559 5.982C32.0116 5.95167 31.9602 5.919 31.9019 5.884C31.8436 5.849 31.7759 5.8175 31.6989 5.7895C31.6219 5.75917 31.5321 5.73467 31.4294 5.716C31.3291 5.695 31.2124 5.6845 31.0794 5.6845C30.8531 5.6845 30.6454 5.72533 30.4564 5.807C30.2697 5.88633 30.1087 6.003 29.9734 6.157C29.8381 6.30867 29.7331 6.49533 29.6584 6.717C29.5837 6.93633 29.5464 7.18717 29.5464 7.4695C29.5464 7.75417 29.5861 8.00733 29.6654 8.229C29.7471 8.45067 29.8567 8.63733 29.9944 8.789C30.1321 8.94067 30.2942 9.05733 30.4809 9.139C30.6676 9.21833 30.8682 9.258 31.0829 9.258C31.2112 9.258 31.3267 9.251 31.4294 9.237C31.5344 9.223 31.6301 9.20083 31.7164 9.1705C31.8051 9.14017 31.8879 9.10167 31.9649 9.055C32.0442 9.006 32.1224 8.9465 32.1994 8.8765C32.2227 8.8555 32.2472 8.83917 32.2729 8.8275C32.2986 8.8135 32.3254 8.8065 32.3534 8.8065Z" fill="white"/>
<rect width="6" height="11" transform="translate(39 2)" fill="#FF9300" fill-opacity="0.5"/>
<path d="M41.5 10L39 7L44 7L41.5 10Z" fill="white"/>
<rect width="45" height="11" transform="translate(0 20)" fill="#FF9300" fill-opacity="0.5"/>
<rect width="39" height="11" transform="translate(0 20)" fill="#FF9300" fill-opacity="0.5"/>
<path d="M15.2461 23.8595C15.2181 23.9085 15.1877 23.9447 15.1551 23.968C15.1247 23.989 15.0862 23.9995 15.0396 23.9995C14.9906 23.9995 14.9369 23.982 14.8786 23.947C14.8226 23.9097 14.7549 23.8688 14.6756 23.8245C14.5962 23.7802 14.5029 23.7405 14.3956 23.7055C14.2906 23.6682 14.1657 23.6495 14.0211 23.6495C13.8904 23.6495 13.7761 23.6658 13.6781 23.6985C13.5801 23.7288 13.4972 23.772 13.4296 23.828C13.3642 23.884 13.3152 23.9517 13.2826 24.031C13.2499 24.108 13.2336 24.1932 13.2336 24.2865C13.2336 24.4055 13.2662 24.5047 13.3316 24.584C13.3992 24.6633 13.4879 24.731 13.5976 24.787C13.7072 24.843 13.8321 24.8932 13.9721 24.9375C14.1121 24.9818 14.2556 25.0297 14.4026 25.081C14.5496 25.13 14.6931 25.1883 14.8331 25.256C14.9731 25.3213 15.0979 25.4053 15.2076 25.508C15.3172 25.6083 15.4047 25.732 15.4701 25.879C15.5377 26.026 15.5716 26.2045 15.5716 26.4145C15.5716 26.6432 15.5319 26.8578 15.4526 27.0585C15.3756 27.2568 15.2612 27.4307 15.1096 27.58C14.9602 27.727 14.7771 27.8437 14.5601 27.93C14.3431 28.014 14.0946 28.056 13.8146 28.056C13.6536 28.056 13.4949 28.0397 13.3386 28.007C13.1822 27.9767 13.0317 27.9323 12.8871 27.874C12.7447 27.8157 12.6106 27.7457 12.4846 27.664C12.3586 27.5823 12.2466 27.4913 12.1486 27.391L12.4251 26.9395C12.4484 26.9068 12.4787 26.88 12.5161 26.859C12.5534 26.8357 12.5931 26.824 12.6351 26.824C12.6934 26.824 12.7564 26.8485 12.8241 26.8975C12.8917 26.9442 12.9722 26.9967 13.0656 27.055C13.1589 27.1133 13.2674 27.167 13.3911 27.216C13.5171 27.2627 13.6676 27.286 13.8426 27.286C14.1109 27.286 14.3186 27.223 14.4656 27.097C14.6126 26.9687 14.6861 26.7855 14.6861 26.5475C14.6861 26.4145 14.6522 26.306 14.5846 26.222C14.5192 26.138 14.4317 26.068 14.3221 26.012C14.2124 25.9537 14.0876 25.9047 13.9476 25.865C13.8076 25.8253 13.6652 25.7822 13.5206 25.7355C13.3759 25.6888 13.2336 25.6328 13.0936 25.5675C12.9536 25.5022 12.8287 25.417 12.7191 25.312C12.6094 25.207 12.5207 25.0763 12.4531 24.92C12.3877 24.7613 12.3551 24.5665 12.3551 24.3355C12.3551 24.1512 12.3912 23.9715 12.4636 23.7965C12.5382 23.6215 12.6456 23.4663 12.7856 23.331C12.9256 23.1957 13.0982 23.0872 13.3036 23.0055C13.5089 22.9238 13.7446 22.883 14.0106 22.883C14.3092 22.883 14.5846 22.9297 14.8366 23.023C15.0886 23.1163 15.3032 23.247 15.4806 23.415L15.2461 23.8595ZM17.2329 28H16.2879V22.939H17.2329V28ZM22.5275 22.939V28H22.0445C21.9698 28 21.9068 27.9883 21.8555 27.965C21.8065 27.9393 21.7587 27.8973 21.712 27.839L19.0695 24.465C19.0835 24.619 19.0905 24.7613 19.0905 24.892V28H18.261V22.939H18.7545C18.7942 22.939 18.828 22.9413 18.856 22.946C18.8863 22.9483 18.912 22.9553 18.933 22.967C18.9563 22.9763 18.9785 22.9915 18.9995 23.0125C19.0205 23.0312 19.0438 23.0568 19.0695 23.0895L21.7225 26.4775C21.7155 26.3958 21.7097 26.3153 21.705 26.236C21.7003 26.1567 21.698 26.0832 21.698 26.0155V22.939H22.5275ZM24.4946 23.688V25.0915H26.2656V25.816H24.4946V27.2475H26.7416V28H23.5496V22.939H26.7416V23.688H24.4946Z" fill="white"/>
<rect width="6" height="11" transform="translate(39 20)" fill="#FF9300" fill-opacity="0.5"/>
<path d="M41.5 28L39 25L44 25L41.5 28Z" fill="white"/>
<rect width="45" height="11" transform="translate(0 38)" fill="#FF9300" fill-opacity="0.5"/>
<rect width="39" height="11" transform="translate(0 38)" fill="#FF9300" fill-opacity="0.5"/>
<path d="M21.0736 40.939L19.5021 46H18.6516L17.5456 42.542C17.5153 42.458 17.4873 42.3553 17.4616 42.234C17.4476 42.2923 17.4336 42.3472 17.4196 42.3985C17.4056 42.4498 17.3905 42.4977 17.3741 42.542L16.2576 46H15.4036L13.8356 40.939H14.6231C14.7048 40.939 14.7725 40.9588 14.8261 40.9985C14.8821 41.0358 14.9195 41.0872 14.9381 41.1525L15.7991 44.18C15.8178 44.2547 15.8353 44.3363 15.8516 44.425C15.8703 44.5113 15.889 44.6023 15.9076 44.698C15.9263 44.6 15.9461 44.5078 15.9671 44.4215C15.9905 44.3352 16.015 44.2547 16.0406 44.18L17.0346 41.1525C17.0533 41.0988 17.0895 41.0498 17.1431 41.0055C17.1991 40.9612 17.2668 40.939 17.3461 40.939H17.6226C17.7043 40.939 17.7708 40.9588 17.8221 40.9985C17.8735 41.0382 17.912 41.0895 17.9376 41.1525L18.9281 44.18C18.9771 44.3247 19.0215 44.4915 19.0611 44.6805C19.0915 44.4962 19.1253 44.3293 19.1626 44.18L20.0236 41.1525C20.0376 41.0942 20.0726 41.044 20.1286 41.002C20.187 40.96 20.2558 40.939 20.3351 40.939H21.0736ZM25.1251 41.7125H23.5991V46H22.6576V41.7125H21.1316V40.939H25.1251V41.7125Z" fill="white"/>
<rect width="6" height="11" transform="translate(39 38)" fill="#FF9300" fill-opacity="0.5"/>
<path d="M41.5 46L39 43L44 43L41.5 46Z" fill="white"/>
<rect width="45" height="11" transform="translate(0 56)" fill="#FF9300" fill-opacity="0.5"/>
<rect width="39" height="11" transform="translate(0 56)" fill="#FF9300" fill-opacity="0.5"/>
<path d="M4.68045 59.8595C4.65245 59.9085 4.62212 59.9447 4.58945 59.968C4.55912 59.989 4.52062 59.9995 4.47395 59.9995C4.42495 59.9995 4.37129 59.982 4.31295 59.947C4.25695 59.9097 4.18929 59.8688 4.10995 59.8245C4.03062 59.7802 3.93729 59.7405 3.82995 59.7055C3.72495 59.6682 3.60012 59.6495 3.45545 59.6495C3.32479 59.6495 3.21045 59.6658 3.11245 59.6985C3.01445 59.7288 2.93162 59.772 2.86395 59.828C2.79862 59.884 2.74962 59.9517 2.71695 60.031C2.68429 60.108 2.66795 60.1932 2.66795 60.2865C2.66795 60.4055 2.70062 60.5047 2.76595 60.584C2.83362 60.6633 2.92229 60.731 3.03195 60.787C3.14162 60.843 3.26645 60.8932 3.40645 60.9375C3.54645 60.9818 3.68995 61.0297 3.83695 61.081C3.98395 61.13 4.12745 61.1883 4.26745 61.256C4.40745 61.3213 4.53229 61.4053 4.64195 61.508C4.75162 61.6083 4.83912 61.732 4.90445 61.879C4.97212 62.026 5.00595 62.2045 5.00595 62.4145C5.00595 62.6432 4.96629 62.8578 4.88695 63.0585C4.80995 63.2568 4.69562 63.4307 4.54395 63.58C4.39462 63.727 4.21145 63.8437 3.99445 63.93C3.77745 64.014 3.52895 64.056 3.24895 64.056C3.08795 64.056 2.92929 64.0397 2.77295 64.007C2.61662 63.9767 2.46612 63.9323 2.32145 63.874C2.17912 63.8157 2.04495 63.7457 1.91895 63.664C1.79295 63.5823 1.68095 63.4913 1.58295 63.391L1.85945 62.9395C1.88279 62.9068 1.91312 62.88 1.95045 62.859C1.98779 62.8357 2.02745 62.824 2.06945 62.824C2.12779 62.824 2.19079 62.8485 2.25845 62.8975C2.32612 62.9442 2.40662 62.9967 2.49995 63.055C2.59329 63.1133 2.70179 63.167 2.82545 63.216C2.95145 63.2627 3.10195 63.286 3.27695 63.286C3.54529 63.286 3.75295 63.223 3.89995 63.097C4.04695 62.9687 4.12045 62.7855 4.12045 62.5475C4.12045 62.4145 4.08662 62.306 4.01895 62.222C3.95362 62.138 3.86612 62.068 3.75645 62.012C3.64679 61.9537 3.52195 61.9047 3.38195 61.865C3.24195 61.8253 3.09962 61.7822 2.95495 61.7355C2.81029 61.6888 2.66795 61.6328 2.52795 61.5675C2.38795 61.5022 2.26312 61.417 2.15345 61.312C2.04379 61.207 1.95512 61.0763 1.88745 60.92C1.82212 60.7613 1.78945 60.5665 1.78945 60.3355C1.78945 60.1512 1.82562 59.9715 1.89795 59.7965C1.97262 59.6215 2.07995 59.4663 2.21995 59.331C2.35995 59.1957 2.53262 59.0872 2.73795 59.0055C2.94329 58.9238 3.17895 58.883 3.44495 58.883C3.74362 58.883 4.01895 58.9297 4.27095 59.023C4.52295 59.1163 4.73762 59.247 4.91495 59.415L4.68045 59.8595ZM6.83175 61.634C6.64508 61.7553 6.50858 61.893 6.42225 62.047C6.33825 62.1987 6.29625 62.362 6.29625 62.537C6.29625 62.6653 6.31842 62.7808 6.36275 62.8835C6.40708 62.9862 6.46658 63.0737 6.54125 63.146C6.61825 63.216 6.70692 63.2708 6.80725 63.3105C6.90992 63.3478 7.01842 63.3665 7.13275 63.3665C7.33808 63.3665 7.52592 63.335 7.69625 63.272C7.86658 63.2067 8.02058 63.1168 8.15825 63.0025L6.83175 61.634ZM10.2023 64H9.35525C9.26658 64 9.19425 63.9895 9.13825 63.9685C9.08458 63.9475 9.02742 63.9032 8.96675 63.8355L8.61675 63.475C8.39508 63.657 8.14658 63.7993 7.87125 63.902C7.59592 64.0047 7.29842 64.056 6.97875 64.056C6.78508 64.056 6.59375 64.0233 6.40475 63.958C6.21808 63.8903 6.05125 63.7935 5.90425 63.6675C5.75725 63.5415 5.63825 63.3898 5.54725 63.2125C5.45858 63.0328 5.41425 62.831 5.41425 62.607C5.41425 62.4483 5.43992 62.299 5.49125 62.159C5.54258 62.0167 5.61375 61.8848 5.70475 61.7635C5.79575 61.6422 5.90425 61.5337 6.03025 61.438C6.15625 61.34 6.29392 61.256 6.44325 61.186C6.31725 61.011 6.22625 60.8407 6.17025 60.675C6.11425 60.507 6.08625 60.3402 6.08625 60.1745C6.08625 59.9995 6.11775 59.8338 6.18075 59.6775C6.24608 59.5188 6.33942 59.3812 6.46075 59.2645C6.58208 59.1478 6.73142 59.0557 6.90875 58.988C7.08608 58.918 7.28675 58.883 7.51075 58.883C7.71608 58.883 7.89925 58.9145 8.06025 58.9775C8.22358 59.0405 8.36242 59.1245 8.47675 59.2295C8.59342 59.3345 8.68442 59.4547 8.74975 59.59C8.81742 59.7253 8.85708 59.8653 8.86875 60.01L8.31925 60.1255C8.21658 60.1465 8.14192 60.1022 8.09525 59.9925C8.07425 59.9318 8.04625 59.8747 8.01125 59.821C7.97858 59.765 7.93892 59.7172 7.89225 59.6775C7.84558 59.6355 7.79075 59.6028 7.72775 59.5795C7.66475 59.5538 7.59242 59.541 7.51075 59.541C7.41275 59.541 7.32525 59.5585 7.24825 59.5935C7.17125 59.6262 7.10592 59.6717 7.05225 59.73C7.00092 59.786 6.96125 59.8525 6.93325 59.9295C6.90525 60.0042 6.89125 60.0835 6.89125 60.1675C6.89125 60.2375 6.89825 60.3052 6.91225 60.3705C6.92625 60.4358 6.94958 60.5012 6.98225 60.5665C7.01492 60.6318 7.05692 60.6995 7.10825 60.7695C7.16192 60.8372 7.22725 60.9107 7.30425 60.99L8.64825 62.3865C8.72525 62.2395 8.78708 62.0843 8.83375 61.921C8.88042 61.7577 8.91075 61.592 8.92475 61.424C8.93175 61.3703 8.95042 61.3272 8.98075 61.2945C9.01108 61.2618 9.05308 61.2455 9.10675 61.2455H9.64575C9.64342 61.5535 9.59908 61.8475 9.51275 62.1275C9.42642 62.4075 9.30275 62.6653 9.14175 62.901L10.2023 64ZM14.9492 58.939V64H14.0042V61.788H11.6277V64H10.6827V58.939H11.6277V61.116H14.0042V58.939H14.9492ZM21.8349 58.939V64H21.3519C21.2772 64 21.2142 63.9883 21.1629 63.965C21.1139 63.9393 21.066 63.8973 21.0194 63.839L18.3769 60.465C18.3909 60.619 18.3979 60.7613 18.3979 60.892V64H17.5684V58.939H18.0619C18.1015 58.939 18.1354 58.9413 18.1634 58.946C18.1937 58.9483 18.2194 58.9553 18.2404 58.967C18.2637 58.9763 18.2859 58.9915 18.3069 59.0125C18.3279 59.0312 18.3512 59.0568 18.3769 59.0895L21.0299 62.4775C21.0229 62.3958 21.017 62.3153 21.0124 62.236C21.0077 62.1567 21.0054 62.0832 21.0054 62.0155V58.939H21.8349ZM27.6834 61.4695C27.6834 61.8405 27.6216 62.1847 27.4979 62.502C27.3766 62.817 27.2039 63.09 26.9799 63.321C26.7559 63.552 26.4864 63.7328 26.1714 63.8635C25.8564 63.9918 25.5064 64.056 25.1214 64.056C24.7388 64.056 24.3899 63.9918 24.0749 63.8635C23.7599 63.7328 23.4893 63.552 23.2629 63.321C23.0389 63.09 22.8651 62.817 22.7414 62.502C22.6178 62.1847 22.5559 61.8405 22.5559 61.4695C22.5559 61.0985 22.6178 60.7555 22.7414 60.4405C22.8651 60.1232 23.0389 59.849 23.2629 59.618C23.4893 59.387 23.7599 59.2073 24.0749 59.079C24.3899 58.9483 24.7388 58.883 25.1214 58.883C25.3781 58.883 25.6196 58.9133 25.8459 58.974C26.0723 59.0323 26.2799 59.1163 26.4689 59.226C26.6579 59.3333 26.8271 59.4652 26.9764 59.6215C27.1281 59.7755 27.2564 59.9482 27.3614 60.1395C27.4664 60.3308 27.5458 60.5385 27.5994 60.7625C27.6554 60.9865 27.6834 61.2222 27.6834 61.4695ZM26.7209 61.4695C26.7209 61.1918 26.6836 60.9433 26.6089 60.724C26.5343 60.5023 26.4281 60.3145 26.2904 60.1605C26.1528 60.0065 25.9848 59.8887 25.7864 59.807C25.5904 59.7253 25.3688 59.6845 25.1214 59.6845C24.8741 59.6845 24.6513 59.7253 24.4529 59.807C24.2569 59.8887 24.0889 60.0065 23.9489 60.1605C23.8113 60.3145 23.7051 60.5023 23.6304 60.724C23.5558 60.9433 23.5184 61.1918 23.5184 61.4695C23.5184 61.7472 23.5558 61.9968 23.6304 62.2185C23.7051 62.4378 23.8113 62.6245 23.9489 62.7785C24.0889 62.9302 24.2569 63.0468 24.4529 63.1285C24.6513 63.2102 24.8741 63.251 25.1214 63.251C25.3688 63.251 25.5904 63.2102 25.7864 63.1285C25.9848 63.0468 26.1528 62.9302 26.2904 62.7785C26.4281 62.6245 26.5343 62.4378 26.6089 62.2185C26.6836 61.9968 26.7209 61.7472 26.7209 61.4695ZM29.3503 64H28.4053V58.939H29.3503V64ZM33.0734 59.8595C33.0454 59.9085 33.015 59.9447 32.9824 59.968C32.952 59.989 32.9135 59.9995 32.8669 59.9995C32.8179 59.9995 32.7642 59.982 32.7059 59.947C32.6499 59.9097 32.5822 59.8688 32.5029 59.8245C32.4235 59.7802 32.3302 59.7405 32.2229 59.7055C32.1179 59.6682 31.993 59.6495 31.8484 59.6495C31.7177 59.6495 31.6034 59.6658 31.5054 59.6985C31.4074 59.7288 31.3245 59.772 31.2569 59.828C31.1915 59.884 31.1425 59.9517 31.1099 60.031C31.0772 60.108 31.0609 60.1932 31.0609 60.2865C31.0609 60.4055 31.0935 60.5047 31.1589 60.584C31.2265 60.6633 31.3152 60.731 31.4249 60.787C31.5345 60.843 31.6594 60.8932 31.7994 60.9375C31.9394 60.9818 32.0829 61.0297 32.2299 61.081C32.3769 61.13 32.5204 61.1883 32.6604 61.256C32.8004 61.3213 32.9252 61.4053 33.0349 61.508C33.1445 61.6083 33.232 61.732 33.2974 61.879C33.365 62.026 33.3989 62.2045 33.3989 62.4145C33.3989 62.6432 33.3592 62.8578 33.2799 63.0585C33.2029 63.2568 33.0885 63.4307 32.9369 63.58C32.7875 63.727 32.6044 63.8437 32.3874 63.93C32.1704 64.014 31.9219 64.056 31.6419 64.056C31.4809 64.056 31.3222 64.0397 31.1659 64.007C31.0095 63.9767 30.859 63.9323 30.7144 63.874C30.572 63.8157 30.4379 63.7457 30.3119 63.664C30.1859 63.5823 30.0739 63.4913 29.9759 63.391L30.2524 62.9395C30.2757 62.9068 30.306 62.88 30.3434 62.859C30.3807 62.8357 30.4204 62.824 30.4624 62.824C30.5207 62.824 30.5837 62.8485 30.6514 62.8975C30.719 62.9442 30.7995 62.9967 30.8929 63.055C30.9862 63.1133 31.0947 63.167 31.2184 63.216C31.3444 63.2627 31.4949 63.286 31.6699 63.286C31.9382 63.286 32.1459 63.223 32.2929 63.097C32.4399 62.9687 32.5134 62.7855 32.5134 62.5475C32.5134 62.4145 32.4795 62.306 32.4119 62.222C32.3465 62.138 32.259 62.068 32.1494 62.012C32.0397 61.9537 31.9149 61.9047 31.7749 61.865C31.6349 61.8253 31.4925 61.7822 31.3479 61.7355C31.2032 61.6888 31.0609 61.6328 30.9209 61.5675C30.7809 61.5022 30.656 61.417 30.5464 61.312C30.4367 61.207 30.348 61.0763 30.2804 60.92C30.215 60.7613 30.1824 60.5665 30.1824 60.3355C30.1824 60.1512 30.2185 59.9715 30.2909 59.7965C30.3655 59.6215 30.4729 59.4663 30.6129 59.331C30.7529 59.1957 30.9255 59.0872 31.1309 59.0055C31.3362 58.9238 31.5719 58.883 31.8379 58.883C32.1365 58.883 32.4119 58.9297 32.6639 59.023C32.9159 59.1163 33.1305 59.247 33.3079 59.415L33.0734 59.8595ZM35.0602 59.688V61.0915H36.8312V61.816H35.0602V63.2475H37.3072V64H34.1152V58.939H37.3072V59.688H35.0602Z" fill="white"/>
<rect width="6" height="11" transform="translate(39 56)" fill="#FF9300" fill-opacity="0.5"/>
<path d="M41.5 64L39 61L44 61L41.5 64Z" fill="white"/>
<rect width="45" height="11" transform="translate(0 74)" fill="#FF9300" fill-opacity="0.5"/>
<rect width="39" height="11" transform="translate(0 74)" fill="#FF9300" fill-opacity="0.5"/>
<path d="M7.02346 80.089L6.40746 78.4055C6.37712 78.3308 6.34562 78.2422 6.31296 78.1395C6.28029 78.0368 6.24762 77.926 6.21496 77.807C6.18462 77.926 6.15312 78.038 6.12046 78.143C6.08779 78.2457 6.05629 78.3355 6.02596 78.4125L5.41346 80.089H7.02346ZM8.68596 82H7.95796C7.87629 82 7.80979 81.9802 7.75846 81.9405C7.70712 81.8985 7.66862 81.8472 7.64296 81.7865L7.26496 80.754H5.16846L4.79046 81.7865C4.77179 81.8402 4.73562 81.8892 4.68196 81.9335C4.62829 81.9778 4.56179 82 4.48246 82H3.74746L5.73896 76.939H6.69796L8.68596 82ZM11.0188 81.2405C11.2008 81.2405 11.3629 81.2102 11.5053 81.1495C11.6499 81.0888 11.7713 81.0037 11.8693 80.894C11.9673 80.7843 12.0419 80.6513 12.0933 80.495C12.1469 80.3387 12.1738 80.1637 12.1738 79.97V76.939H13.1153V79.97C13.1153 80.271 13.0663 80.5498 12.9683 80.8065C12.8726 81.0608 12.7338 81.2813 12.5518 81.468C12.3721 81.6523 12.1528 81.797 11.8938 81.902C11.6348 82.0047 11.3431 82.056 11.0188 82.056C10.6921 82.056 10.3993 82.0047 10.1403 81.902C9.88126 81.797 9.66076 81.6523 9.47876 81.468C9.2991 81.2813 9.16026 81.0608 9.06226 80.8065C8.9666 80.5498 8.91876 80.271 8.91876 79.97V76.939H9.86026V79.9665C9.86026 80.1602 9.88593 80.3352 9.93726 80.4915C9.99093 80.6478 10.0668 80.782 10.1648 80.894C10.2651 81.0037 10.3864 81.0888 10.5288 81.1495C10.6734 81.2102 10.8368 81.2405 11.0188 81.2405ZM18.5661 79.4695C18.5661 79.8405 18.5042 80.1812 18.3806 80.4915C18.2569 80.8018 18.0831 81.069 17.8591 81.293C17.6351 81.517 17.3656 81.6908 17.0506 81.8145C16.7356 81.9382 16.3856 82 16.0006 82H14.0721V76.939H16.0006C16.3856 76.939 16.7356 77.002 17.0506 77.128C17.3656 77.2517 17.6351 77.4255 17.8591 77.6495C18.0831 77.8712 18.2569 78.1372 18.3806 78.4475C18.5042 78.7578 18.5661 79.0985 18.5661 79.4695ZM17.6001 79.4695C17.6001 79.1918 17.5627 78.9433 17.4881 78.724C17.4157 78.5023 17.3096 78.3157 17.1696 78.164C17.0319 78.01 16.8639 77.8922 16.6656 77.8105C16.4696 77.7288 16.2479 77.688 16.0006 77.688H15.0171V81.251H16.0006C16.2479 81.251 16.4696 81.2102 16.6656 81.1285C16.8639 81.0468 17.0319 80.9302 17.1696 80.7785C17.3096 80.6245 17.4157 80.4378 17.4881 80.2185C17.5627 79.9968 17.6001 79.7472 17.6001 79.4695ZM20.2373 82H19.2923V76.939H20.2373V82ZM26.0919 79.4695C26.0919 79.8405 26.0301 80.1847 25.9064 80.502C25.7851 80.817 25.6124 81.09 25.3884 81.321C25.1644 81.552 24.8949 81.7328 24.5799 81.8635C24.2649 81.9918 23.9149 82.056 23.5299 82.056C23.1472 82.056 22.7984 81.9918 22.4834 81.8635C22.1684 81.7328 21.8977 81.552 21.6714 81.321C21.4474 81.09 21.2736 80.817 21.1499 80.502C21.0262 80.1847 20.9644 79.8405 20.9644 79.4695C20.9644 79.0985 21.0262 78.7555 21.1499 78.4405C21.2736 78.1232 21.4474 77.849 21.6714 77.618C21.8977 77.387 22.1684 77.2073 22.4834 77.079C22.7984 76.9483 23.1472 76.883 23.5299 76.883C23.7866 76.883 24.0281 76.9133 24.2544 76.974C24.4807 77.0323 24.6884 77.1163 24.8774 77.226C25.0664 77.3333 25.2356 77.4652 25.3849 77.6215C25.5366 77.7755 25.6649 77.9482 25.7699 78.1395C25.8749 78.3308 25.9542 78.5385 26.0079 78.7625C26.0639 78.9865 26.0919 79.2222 26.0919 79.4695ZM25.1294 79.4695C25.1294 79.1918 25.0921 78.9433 25.0174 78.724C24.9427 78.5023 24.8366 78.3145 24.6989 78.1605C24.5612 78.0065 24.3932 77.8887 24.1949 77.807C23.9989 77.7253 23.7772 77.6845 23.5299 77.6845C23.2826 77.6845 23.0597 77.7253 22.8614 77.807C22.6654 77.8887 22.4974 78.0065 22.3574 78.1605C22.2197 78.3145 22.1136 78.5023 22.0389 78.724C21.9642 78.9433 21.9269 79.1918 21.9269 79.4695C21.9269 79.7472 21.9642 79.9968 22.0389 80.2185C22.1136 80.4378 22.2197 80.6245 22.3574 80.7785C22.4974 80.9302 22.6654 81.0468 22.8614 81.1285C23.0597 81.2102 23.2826 81.251 23.5299 81.251C23.7772 81.251 23.9989 81.2102 24.1949 81.1285C24.3932 81.0468 24.5612 80.9302 24.6989 80.7785C24.8366 80.6245 24.9427 80.4378 25.0174 80.2185C25.0921 79.9968 25.1294 79.7472 25.1294 79.4695ZM29.3559 82H28.4109V76.939H29.3559V82ZM34.6505 76.939V82H34.1675C34.0928 82 34.0298 81.9883 33.9785 81.965C33.9295 81.9393 33.8817 81.8973 33.835 81.839L31.1925 78.465C31.2065 78.619 31.2135 78.7613 31.2135 78.892V82H30.384V76.939H30.8775C30.9172 76.939 30.951 76.9413 30.979 76.946C31.0093 76.9483 31.035 76.9553 31.056 76.967C31.0793 76.9763 31.1015 76.9915 31.1225 77.0125C31.1435 77.0312 31.1668 77.0568 31.1925 77.0895L33.8455 80.4775C33.8385 80.3958 33.8327 80.3153 33.828 80.236C33.8233 80.1567 33.821 80.0832 33.821 80.0155V76.939H34.6505Z" fill="white"/>
<rect width="6" height="11" transform="translate(39 74)" fill="#FF9300" fill-opacity="0.5"/>
<path d="M41.5 82L39 79L44 79L41.5 82Z" fill="white"/>
<rect width="45" height="11" transform="translate(0 92)" fill="#FF9300" fill-opacity="0.5"/>
<rect width="39" height="11" transform="translate(0 92)" fill="#FF9300" fill-opacity="0.5"/>
<path d="M13.7922 95.688V97.186H15.6892V97.9385H13.7922V100H12.8472V94.939H16.0392V95.688H13.7922ZM22.1951 94.939V100H21.3656V96.731C21.3656 96.6003 21.3726 96.4592 21.3866 96.3075L19.8571 99.181C19.7847 99.3187 19.6739 99.3875 19.5246 99.3875H19.3916C19.2422 99.3875 19.1314 99.3187 19.0591 99.181L17.5121 96.297C17.5191 96.374 17.5249 96.4498 17.5296 96.5245C17.5342 96.5992 17.5366 96.668 17.5366 96.731V100H16.7071V94.939H17.4176C17.4596 94.939 17.4957 94.9402 17.5261 94.9425C17.5564 94.9448 17.5832 94.9507 17.6066 94.96C17.6322 94.9693 17.6544 94.9845 17.6731 95.0055C17.6941 95.0265 17.7139 95.0545 17.7326 95.0895L19.2481 97.9C19.2877 97.9747 19.3239 98.0517 19.3566 98.131C19.3916 98.2103 19.4254 98.292 19.4581 98.376C19.4907 98.2897 19.5246 98.2068 19.5596 98.1275C19.5946 98.0458 19.6319 97.9677 19.6716 97.893L21.1661 95.0895C21.1847 95.0545 21.2046 95.0265 21.2256 95.0055C21.2466 94.9845 21.2687 94.9693 21.2921 94.96C21.3177 94.9507 21.3457 94.9448 21.3761 94.9425C21.4064 94.9402 21.4426 94.939 21.4846 94.939H22.1951ZM23.0337 96.3495C23.0687 96.1068 23.1364 95.8945 23.2367 95.7125C23.3371 95.5282 23.4619 95.3753 23.6112 95.254C23.7629 95.1303 23.9356 95.0382 24.1292 94.9775C24.3252 94.9145 24.5352 94.883 24.7592 94.883C24.9926 94.883 25.2026 94.9168 25.3892 94.9845C25.5782 95.0498 25.7392 95.142 25.8722 95.261C26.0052 95.3777 26.1067 95.5153 26.1767 95.674C26.2491 95.8327 26.2852 96.0042 26.2852 96.1885C26.2852 96.3495 26.2666 96.4918 26.2292 96.6155C26.1942 96.7368 26.1429 96.843 26.0752 96.934C26.0076 97.025 25.9236 97.102 25.8232 97.165C25.7229 97.228 25.6097 97.2805 25.4837 97.3225C25.7871 97.4182 26.0134 97.564 26.1627 97.76C26.3121 97.956 26.3867 98.2022 26.3867 98.4985C26.3867 98.7505 26.3401 98.9733 26.2467 99.167C26.1534 99.3607 26.0274 99.524 25.8687 99.657C25.7101 99.7877 25.5257 99.8868 25.3157 99.9545C25.1081 100.022 24.8876 100.056 24.6542 100.056C24.3999 100.056 24.1782 100.027 23.9892 99.9685C23.8002 99.9102 23.6357 99.8238 23.4957 99.7095C23.3557 99.5952 23.2367 99.4552 23.1387 99.2895C23.0407 99.1238 22.9567 98.9325 22.8867 98.7155L23.2682 98.558C23.3686 98.516 23.4619 98.5055 23.5482 98.5265C23.6369 98.5452 23.7011 98.5918 23.7407 98.6665C23.7827 98.7482 23.8282 98.8287 23.8772 98.908C23.9286 98.9873 23.9892 99.0585 24.0592 99.1215C24.1292 99.1822 24.2109 99.2323 24.3042 99.272C24.3999 99.3093 24.5131 99.328 24.6437 99.328C24.7907 99.328 24.9191 99.3047 25.0287 99.258C25.1384 99.209 25.2294 99.146 25.3017 99.069C25.3764 98.992 25.4312 98.9068 25.4662 98.8135C25.5036 98.7178 25.5222 98.6222 25.5222 98.5265C25.5222 98.4052 25.5094 98.2955 25.4837 98.1975C25.4581 98.0972 25.4044 98.012 25.3227 97.942C25.2411 97.872 25.1232 97.8172 24.9692 97.7775C24.8176 97.7378 24.6134 97.718 24.3567 97.718V97.102C24.5691 97.0997 24.7452 97.0798 24.8852 97.0425C25.0252 97.0052 25.1361 96.9538 25.2177 96.8885C25.3017 96.8208 25.3601 96.7403 25.3927 96.647C25.4254 96.5537 25.4417 96.451 25.4417 96.339C25.4417 96.101 25.3752 95.9202 25.2422 95.7965C25.1092 95.6728 24.9319 95.611 24.7102 95.611C24.6076 95.611 24.5131 95.6262 24.4267 95.6565C24.3404 95.6845 24.2622 95.7253 24.1922 95.779C24.1246 95.8303 24.0674 95.891 24.0207 95.961C23.9741 96.031 23.9391 96.108 23.9157 96.192C23.8761 96.2993 23.8236 96.3705 23.7582 96.4055C23.6952 96.4405 23.6054 96.4487 23.4887 96.43L23.0337 96.3495Z" fill="white"/>
<rect width="6" height="11" transform="translate(39 92)" fill="#FF9300" fill-opacity="0.5"/>
<path d="M41.5 100L39 97L44 97L41.5 100Z" fill="white"/>
<rect width="45" height="11" transform="translate(0 110)" fill="#FF9300" fill-opacity="0.5"/>
<rect width="39" height="11" transform="translate(0 110)" fill="#FF9300" fill-opacity="0.5"/>
<path d="M13.7922 113.688V115.186H15.6892V115.938H13.7922V118H12.8472V112.939H16.0392V113.688H13.7922ZM22.1951 112.939V118H21.3656V114.731C21.3656 114.6 21.3726 114.459 21.3866 114.307L19.8571 117.181C19.7847 117.319 19.6739 117.387 19.5246 117.387H19.3916C19.2422 117.387 19.1314 117.319 19.0591 117.181L17.5121 114.297C17.5191 114.374 17.5249 114.45 17.5296 114.524C17.5342 114.599 17.5366 114.668 17.5366 114.731V118H16.7071V112.939H17.4176C17.4596 112.939 17.4957 112.94 17.5261 112.942C17.5564 112.945 17.5832 112.951 17.6066 112.96C17.6322 112.969 17.6544 112.984 17.6731 113.005C17.6941 113.026 17.7139 113.054 17.7326 113.089L19.2481 115.9C19.2877 115.975 19.3239 116.052 19.3566 116.131C19.3916 116.21 19.4254 116.292 19.4581 116.376C19.4907 116.29 19.5246 116.207 19.5596 116.127C19.5946 116.046 19.6319 115.968 19.6716 115.893L21.1661 113.089C21.1847 113.054 21.2046 113.026 21.2256 113.005C21.2466 112.984 21.2687 112.969 21.2921 112.96C21.3177 112.951 21.3457 112.945 21.3761 112.942C21.4064 112.94 21.4426 112.939 21.4846 112.939H22.1951ZM26.0892 117.195C26.1826 117.195 26.2561 117.222 26.3097 117.275C26.3657 117.327 26.3937 117.396 26.3937 117.482V118H22.9217V117.713C22.9217 117.655 22.9334 117.594 22.9567 117.531C22.9824 117.466 23.0221 117.407 23.0757 117.356L24.6122 115.816C24.7406 115.685 24.8549 115.56 24.9552 115.441C25.0579 115.322 25.1431 115.205 25.2107 115.088C25.2784 114.971 25.3297 114.853 25.3647 114.734C25.4021 114.613 25.4207 114.486 25.4207 114.353C25.4207 114.232 25.4032 114.125 25.3682 114.034C25.3332 113.941 25.2831 113.863 25.2177 113.8C25.1547 113.737 25.0777 113.69 24.9867 113.66C24.8981 113.627 24.7977 113.611 24.6857 113.611C24.5831 113.611 24.4874 113.626 24.3987 113.656C24.3124 113.684 24.2354 113.725 24.1677 113.779C24.1001 113.83 24.0429 113.891 23.9962 113.961C23.9496 114.031 23.9146 114.108 23.8912 114.192C23.8516 114.299 23.8002 114.37 23.7372 114.405C23.6742 114.44 23.5832 114.449 23.4642 114.43L23.0092 114.349C23.0442 114.107 23.1119 113.894 23.2122 113.712C23.3126 113.528 23.4374 113.375 23.5867 113.254C23.7384 113.13 23.9111 113.038 24.1047 112.977C24.3007 112.914 24.5107 112.883 24.7347 112.883C24.9681 112.883 25.1816 112.918 25.3752 112.988C25.5689 113.056 25.7346 113.152 25.8722 113.278C26.0099 113.404 26.1172 113.556 26.1942 113.733C26.2712 113.911 26.3097 114.108 26.3097 114.325C26.3097 114.512 26.2817 114.684 26.2257 114.843C26.1721 115.002 26.0986 115.153 26.0052 115.298C25.9142 115.443 25.8069 115.583 25.6832 115.718C25.5596 115.853 25.4301 115.991 25.2947 116.131L24.1537 117.296C24.2634 117.264 24.3719 117.239 24.4792 117.223C24.5889 117.204 24.6927 117.195 24.7907 117.195H26.0892Z" fill="white"/>
<rect width="6" height="11" transform="translate(39 110)" fill="#FF9300" fill-opacity="0.5"/>
<path d="M41.5 118L39 115L44 115L41.5 118Z" fill="white"/>
<rect width="45" height="11" transform="translate(0 128)" fill="#FF9300" fill-opacity="0.5"/>
<rect width="39" height="11" transform="translate(0 128)" fill="#FF9300" fill-opacity="0.5"/>
<path d="M10.5307 130.939L8.9592 136H8.1087L7.0027 132.542C6.97237 132.458 6.94437 132.355 6.9187 132.234C6.9047 132.292 6.8907 132.347 6.8767 132.398C6.8627 132.45 6.84754 132.498 6.8312 132.542L5.7147 136H4.8607L3.2927 130.939H4.0802C4.16187 130.939 4.22954 130.959 4.2832 130.998C4.3392 131.036 4.37654 131.087 4.3952 131.152L5.2562 134.18C5.27487 134.255 5.29237 134.336 5.3087 134.425C5.32737 134.511 5.34604 134.602 5.3647 134.698C5.38337 134.6 5.4032 134.508 5.4242 134.421C5.44754 134.335 5.47204 134.255 5.4977 134.18L6.4917 131.152C6.51037 131.099 6.54654 131.05 6.6002 131.005C6.6562 130.961 6.72387 130.939 6.8032 130.939H7.0797C7.16137 130.939 7.22787 130.959 7.2792 130.998C7.33054 131.038 7.36904 131.089 7.3947 131.152L8.3852 134.18C8.4342 134.325 8.47854 134.491 8.5182 134.68C8.54854 134.496 8.58237 134.329 8.6197 134.18L9.4807 131.152C9.4947 131.094 9.5297 131.044 9.5857 131.002C9.64404 130.96 9.71287 130.939 9.7922 130.939H10.5307ZM11.9922 136H11.0472V130.939H11.9922V136ZM17.2868 130.939V136H16.8038C16.7291 136 16.6661 135.988 16.6148 135.965C16.5658 135.939 16.518 135.897 16.4713 135.839L13.8288 132.465C13.8428 132.619 13.8498 132.761 13.8498 132.892V136H13.0203V130.939H13.5138C13.5535 130.939 13.5873 130.941 13.6153 130.946C13.6456 130.948 13.6713 130.955 13.6923 130.967C13.7156 130.976 13.7378 130.991 13.7588 131.012C13.7798 131.031 13.8031 131.057 13.8288 131.089L16.4818 134.477C16.4748 134.396 16.469 134.315 16.4643 134.236C16.4596 134.157 16.4573 134.083 16.4573 134.015V130.939H17.2868ZM22.8029 133.469C22.8029 133.84 22.741 134.181 22.6174 134.491C22.4937 134.802 22.3199 135.069 22.0959 135.293C21.8719 135.517 21.6024 135.691 21.2874 135.814C20.9724 135.938 20.6224 136 20.2374 136H18.3089V130.939H20.2374C20.6224 130.939 20.9724 131.002 21.2874 131.128C21.6024 131.252 21.8719 131.425 22.0959 131.649C22.3199 131.871 22.4937 132.137 22.6174 132.447C22.741 132.758 22.8029 133.098 22.8029 133.469ZM21.8369 133.469C21.8369 133.192 21.7995 132.943 21.7249 132.724C21.6525 132.502 21.5464 132.316 21.4064 132.164C21.2687 132.01 21.1007 131.892 20.9024 131.81C20.7064 131.729 20.4847 131.688 20.2374 131.688H19.2539V135.251H20.2374C20.4847 135.251 20.7064 135.21 20.9024 135.128C21.1007 135.047 21.2687 134.93 21.4064 134.778C21.5464 134.624 21.6525 134.438 21.7249 134.218C21.7995 133.997 21.8369 133.747 21.8369 133.469ZM28.3555 133.469C28.3555 133.84 28.2937 134.185 28.17 134.502C28.0487 134.817 27.876 135.09 27.652 135.321C27.428 135.552 27.1585 135.733 26.8435 135.863C26.5285 135.992 26.1785 136.056 25.7935 136.056C25.4109 136.056 25.062 135.992 24.747 135.863C24.432 135.733 24.1614 135.552 23.935 135.321C23.711 135.09 23.5372 134.817 23.4135 134.502C23.2899 134.185 23.228 133.84 23.228 133.469C23.228 133.098 23.2899 132.755 23.4135 132.44C23.5372 132.123 23.711 131.849 23.935 131.618C24.1614 131.387 24.432 131.207 24.747 131.079C25.062 130.948 25.4109 130.883 25.7935 130.883C26.0502 130.883 26.2917 130.913 26.518 130.974C26.7444 131.032 26.952 131.116 27.141 131.226C27.33 131.333 27.4992 131.465 27.6485 131.621C27.8002 131.775 27.9285 131.948 28.0335 132.139C28.1385 132.331 28.2179 132.538 28.2715 132.762C28.3275 132.986 28.3555 133.222 28.3555 133.469ZM27.393 133.469C27.393 133.192 27.3557 132.943 27.281 132.724C27.2064 132.502 27.1002 132.314 26.9625 132.16C26.8249 132.006 26.6569 131.889 26.4585 131.807C26.2625 131.725 26.0409 131.684 25.7935 131.684C25.5462 131.684 25.3234 131.725 25.125 131.807C24.929 131.889 24.761 132.006 24.621 132.16C24.4834 132.314 24.3772 132.502 24.3025 132.724C24.2279 132.943 24.1905 133.192 24.1905 133.469C24.1905 133.747 24.2279 133.997 24.3025 134.218C24.3772 134.438 24.4834 134.624 24.621 134.778C24.761 134.93 24.929 135.047 25.125 135.128C25.3234 135.21 25.5462 135.251 25.7935 135.251C26.0409 135.251 26.2625 135.21 26.4585 135.128C26.6569 135.047 26.8249 134.93 26.9625 134.778C27.1002 134.624 27.2064 134.438 27.281 134.218C27.3557 133.997 27.393 133.747 27.393 133.469ZM35.7088 130.939L34.1373 136H33.2868L32.1808 132.542C32.1505 132.458 32.1225 132.355 32.0968 132.234C32.0828 132.292 32.0688 132.347 32.0548 132.398C32.0408 132.45 32.0257 132.498 32.0093 132.542L30.8928 136H30.0388L28.4708 130.939H29.2583C29.34 130.939 29.4077 130.959 29.4613 130.998C29.5173 131.036 29.5547 131.087 29.5733 131.152L30.4343 134.18C30.453 134.255 30.4705 134.336 30.4868 134.425C30.5055 134.511 30.5242 134.602 30.5428 134.698C30.5615 134.6 30.5813 134.508 30.6023 134.421C30.6257 134.335 30.6502 134.255 30.6758 134.18L31.6698 131.152C31.6885 131.099 31.7247 131.05 31.7783 131.005C31.8343 130.961 31.902 130.939 31.9813 130.939H32.2578C32.3395 130.939 32.406 130.959 32.4573 130.998C32.5087 131.038 32.5472 131.089 32.5728 131.152L33.5633 134.18C33.6123 134.325 33.6567 134.491 33.6963 134.68C33.7267 134.496 33.7605 134.329 33.7978 134.18L34.6588 131.152C34.6728 131.094 34.7078 131.044 34.7638 131.002C34.8222 130.96 34.891 130.939 34.9703 130.939H35.7088Z" fill="white"/>
<rect width="6" height="11" transform="translate(39 128)" fill="#FF9300" fill-opacity="0.5"/>
<path d="M41.5 136L39 133L44 133L41.5 136Z" fill="white"/>
</svg>
