<?xml version="1.0" encoding="utf-8"?>
<svg width="48px" height="56px" viewBox="0 0 48 56" version="1.1" xmlns="http://www.w3.org/2000/svg">
  <title>bmp00157</title>
  <desc>Created with Sketch.</desc>
  <defs>
    <linearGradient x1="100%" y1="50%" x2="0.551625845%" y2="50%" id="linearGradient-1">
      <stop stop-color="#656565" offset="0"/>
      <stop stop-color="#A2A2A2" offset="0.1539"/>
      <stop stop-color="#AEAEAE" offset="0.841"/>
      <stop stop-color="#D9D9D9" offset="1"/>
    </linearGradient>
    <linearGradient x1="99.2688978%" y1="50%" x2="0%" y2="50%" id="linearGradient-2">
      <stop stop-color="#606C8E" offset="0"/>
      <stop stop-color="#8E9FCE" offset="0.1573"/>
      <stop stop-color="#8E9FCE" offset="0.8423"/>
      <stop stop-color="#BFCAE8" offset="1"/>
    </linearGradient>
    <linearGradient x1="100%" y1="50%" x2="0%" y2="50%" id="linearGradient-3">
      <stop stop-color="#606C8E" offset="0.0073"/>
      <stop stop-color="#8E9FCE" offset="0.1573"/>
      <stop stop-color="#8E9FCE" offset="0.8423"/>
      <stop stop-color="#BFCAE8" offset="1"/>
    </linearGradient>
  </defs>
  <g id="bmp00157" stroke="none" stroke-width="1" fill="none" fill-rule="evenodd">
    <rect id="Rectangle" transform="translate(33.500000, 12.000000) rotate(-270.000000) translate(-33.500000, -12.000000) " x="23.5" y="4.5" width="20" height="15" rx="5"/>
    <rect id="Rectangle" transform="translate(9.500000, 12.000000) rotate(-270.000000) translate(-9.500000, -12.000000) " x="-0.5" y="4.5" width="20" height="15" rx="5"/>
    <rect id="Rectangle" transform="translate(33.500000, 40.000000) rotate(-270.000000) translate(-33.500000, -40.000000) " x="23.5" y="32.5" width="20" height="15" rx="5"/>
    <rect id="Rectangle" transform="translate(9.500000, 40.000000) rotate(-270.000000) translate(-9.500000, -40.000000) " x="-0.5" y="32.5" width="20" height="15" rx="5"/>
    <g id="Group-2" transform="translate(9.000000, 11.500000) rotate(-270.000000) translate(-9.000000, -11.500000) translate(-1.000000, 4.000000)" fill="url(#linearGradient-1)" stroke="#464646">
      <rect id="Rectangle" x="1" y="1" width="18" height="13" rx="5"/>
    </g>
    <g id="Group-2" transform="translate(9.000000, 39.500000) rotate(-270.000000) translate(-9.000000, -39.500000) translate(-1.000000, 32.000000)" fill="url(#linearGradient-1)" stroke="#464646">
      <rect id="Rectangle" x="1" y="1" width="18" height="13" rx="5"/>
    </g>
    <g id="Group-4" transform="translate(33.000000, 11.500000) rotate(-270.000000) translate(-33.000000, -11.500000) translate(23.500000, 4.500000)" fill="url(#linearGradient-2)" stroke="#141D39">
      <rect id="Rectangle" x="0.5" y="0.5" width="18" height="13" rx="5"/>
    </g>
    <g id="Group-4" transform="translate(33.000000, 39.500000) rotate(-270.000000) translate(-33.000000, -39.500000) translate(23.500000, 32.500000)" fill="url(#linearGradient-3)" stroke="#141D39">
      <rect id="Rectangle" x="0.5" y="0.5" width="18" height="13" rx="5"/>
    </g>
    <g id="Group" transform="translate(21.000000, 25.500000) scale(-1, 1) translate(-21.000000, -25.500000) translate(3.500000, 4.000000)">
      <path d="M35.5,4 C30.1666667,4 26.8333333,4 25.5,4 C23.5,4 22.5,6 22.5,7 C22.5,7.66666667 22.5,9.66666667 22.5,13" id="Path-12" stroke-opacity="0.05" stroke="#000000" stroke-width="2" transform="translate(29.000000, 8.500000) rotate(-90.000000) translate(-29.000000, -8.500000) "/>
      <path d="M37,2.5 C31.6666667,2.5 28.3333333,2.5 27,2.5 C25,2.5 24,4.5 24,5.5 C24,6.16666667 24,7.83333333 24,10.5" id="Path-12" stroke-opacity="0.15" stroke="#FFFFFF" stroke-width="2" transform="translate(30.500000, 6.500000) rotate(-270.000000) translate(-30.500000, -6.500000) "/>
      <path d="M35.5,32 C30.1666667,32 26.8333333,32 25.5,32 C23.5,32 22.5,34 22.5,35 C22.5,35.6666667 22.5,37.6666667 22.5,41" id="Path-12" stroke-opacity="0.05" stroke="#000000" stroke-width="2" transform="translate(29.000000, 36.500000) rotate(-90.000000) translate(-29.000000, -36.500000) "/>
      <path d="M37,30.5 C31.6666667,30.5 28.3333333,30.5 27,30.5 C25,30.5 24,32.5 24,33.5 C24,34.1666667 24,35.8333333 24,38.5" id="Path-12" stroke-opacity="0.15" stroke="#FFFFFF" stroke-width="2" transform="translate(30.500000, 34.500000) rotate(-270.000000) translate(-30.500000, -34.500000) "/>
      <path d="M11.5,32 C6.16666667,32 2.83333333,32 1.5,32 C-0.5,32 -1.5,34 -1.5,35 C-1.5,35.6666667 -1.5,37.6666667 -1.5,41" id="Path-12" stroke-opacity="0.05" stroke="#000000" stroke-width="2" transform="translate(5.000000, 36.500000) rotate(-90.000000) translate(-5.000000, -36.500000) "/>
      <path d="M13,30.5 C7.66666667,30.5 4.33333333,30.5 3,30.5 C1,30.5 -9.16600129e-13,32.5 -9.16600129e-13,33.5 C-9.16600129e-13,34.1666667 -9.16600129e-13,35.8333333 -9.16600129e-13,38.5" id="Path-12" stroke-opacity="0.15" stroke="#FFFFFF" stroke-width="2" transform="translate(6.500000, 34.500000) rotate(-270.000000) translate(-6.500000, -34.500000) "/>
      <path d="M11.5,4 C6.16666667,4 2.83333333,4 1.5,4 C-0.5,4 -1.5,6 -1.5,7 C-1.5,7.66666667 -1.5,9.66666667 -1.5,13" id="Path-12" stroke-opacity="0.05" stroke="#000000" stroke-width="2" transform="translate(5.000000, 8.500000) rotate(-90.000000) translate(-5.000000, -8.500000) "/>
      <path d="M13,2.5 C7.66666667,2.5 4.33333333,2.5 3,2.5 C1,2.5 -4.54747351e-13,4.5 -4.54747351e-13,5.5 C-4.54747351e-13,6.16666667 -4.54747351e-13,7.83333333 -4.54747351e-13,10.5" id="Path-12" stroke-opacity="0.15" stroke="#FFFFFF" stroke-width="2" transform="translate(6.500000, 6.500000) rotate(-270.000000) translate(-6.500000, -6.500000) "/>
      <rect id="Rectangle" fill-opacity="0.1" fill="#FFFFFF" transform="translate(29.500000, 8.500000) rotate(-270.000000) translate(-29.500000, -8.500000) " x="29" y="4.5" width="1" height="8"/>
    </g>
    <g id="Group" transform="translate(33.000000, 12.500000) scale(-1, 1) translate(-33.000000, -12.500000) translate(28.500000, 12.000000)" fill="#FFFFFF" fill-opacity="0.1">
      <rect id="Rectangle" transform="translate(4.500000, 0.500000) rotate(-270.000000) translate(-4.500000, -0.500000) " x="4" y="-3.5" width="1" height="8"/>
    </g>
    <g id="Group" transform="translate(9.000000, 40.500000) scale(-1, 1) translate(-9.000000, -40.500000) translate(4.500000, 40.000000)" fill="#FFFFFF" fill-opacity="0.1">
      <rect id="Rectangle" transform="translate(4.500000, 0.500000) rotate(-270.000000) translate(-4.500000, -0.500000) " x="4" y="-3.5" width="1" height="8"/>
    </g>
    <g id="Group" transform="translate(33.000000, 40.500000) scale(-1, 1) translate(-33.000000, -40.500000) translate(28.500000, 40.000000)" fill="#FFFFFF" fill-opacity="0.1">
      <rect id="Rectangle" transform="translate(4.500000, 0.500000) rotate(-270.000000) translate(-4.500000, -0.500000) " x="4" y="-3.5" width="1" height="8"/>
    </g>
    <rect id="Rectangle" fill="#CC7000" transform="translate(9.000000, 11.500000) rotate(-270.000000) translate(-9.000000, -11.500000) " x="8.5" y="6.5" width="1" height="10"/>
    <rect id="Rectangle" fill="#CC7000" transform="translate(9.000000, 39.500000) rotate(-270.000000) translate(-9.000000, -39.500000) " x="8.5" y="34.5" width="1" height="10"/>
    <rect id="Rectangle" fill="#CC7000" transform="translate(33.000000, 11.500000) rotate(-270.000000) translate(-33.000000, -11.500000) " x="32.5" y="6.5" width="1" height="10"/>
    <rect id="Rectangle" fill="#CC7000" transform="translate(33.000000, 39.500000) rotate(-270.000000) translate(-33.000000, -39.500000) " x="32.5" y="34.5" width="1" height="10"/>
  </g>
</svg>
