<?xml version="1.0" encoding="utf-8"?>
<svg width="18px" height="234px" viewBox="0 0 18 234" version="1.1" xmlns:xlink="http://www.w3.org/1999/xlink" xmlns="http://www.w3.org/2000/svg">
  <desc>Created with Lunacy</desc>
  <defs>
    <rect width="18" height="234" id="artboard_1" />
    <clipPath id="clip_1">
      <use xlink:href="#artboard_1" clip-rule="evenodd" />
    </clipPath>
  </defs>
  <g id="hover00169" clip-path="url(#clip_1)">
    <g id="OB-Xd-4-pole" transform="translate(3 218)">
      <path d="M0 1L6.55 1L6.55 0L0 0L0 1L0 1Z" transform="translate(1 6.0099945)" id="Shape-Copy" fill="#80C0FF" fill-rule="evenodd" stroke="none" />
      <path d="M0 0.00266558C3.10672 -0.104053 3 3.01782 3 5.02792" transform="translate(7.5 6.5091705)" id="Shape" fill="none" fill-rule="evenodd" stroke="#80C0FF" stroke-width="1" />
      <g id="OB-Xd" fill="#FFFFFF">
        <path d="M12.066 3.946L12.066 0.974L11.572 0.974L11.572 2.056Q11.476 1.964 11.354 1.91Q11.232 1.856 11.06 1.856Q10.858 1.856 10.696 1.937Q10.534 2.018 10.418 2.162Q10.302 2.306 10.24 2.502Q10.178 2.698 10.178 2.926Q10.178 3.178 10.233 3.374Q10.288 3.57 10.389 3.703Q10.49 3.836 10.63 3.906Q10.77 3.976 10.938 3.976Q11.152 3.976 11.313 3.888Q11.474 3.8 11.598 3.658L11.64 3.856Q11.666 3.946 11.764 3.946L12.066 3.946ZM3.08 2.5Q3.08 2.818 2.975 3.089Q2.87 3.36 2.678 3.558Q2.486 3.756 2.216 3.867Q1.946 3.978 1.616 3.978Q1.288 3.978 1.018 3.867Q0.748 3.756 0.555 3.558Q0.362 3.36 0.256 3.089Q0.15 2.818 0.15 2.5Q0.15 2.182 0.256 1.911Q0.362 1.64 0.555 1.442Q0.748 1.244 1.018 1.133Q1.288 1.022 1.616 1.022Q1.836 1.022 2.03 1.073Q2.224 1.124 2.386 1.217Q2.548 1.31 2.677 1.443Q2.806 1.576 2.896 1.74Q2.986 1.904 3.033 2.096Q3.08 2.288 3.08 2.5ZM4.55 1.054Q4.834 1.054 5.036 1.108Q5.238 1.162 5.367 1.262Q5.496 1.362 5.556 1.504Q5.616 1.646 5.616 1.824Q5.616 1.926 5.586 2.019Q5.556 2.112 5.493 2.193Q5.43 2.274 5.333 2.34Q5.236 2.406 5.102 2.452Q5.698 2.586 5.698 3.096Q5.698 3.28 5.628 3.436Q5.558 3.592 5.424 3.705Q5.29 3.818 5.094 3.882Q4.898 3.946 4.646 3.946L3.554 3.946L3.554 1.054L4.55 1.054ZM10.03 3.946L9.494 3.946C9.45667 3.946 9.427 3.93667 9.405 3.918Q9.372 3.89 9.352 3.854L8.682 2.744Q8.666 2.794 8.644 2.83L8.002 3.854Q7.978 3.888 7.947 3.917C7.92633 3.93633 7.89933 3.946 7.866 3.946L7.364 3.946L8.324 2.458L7.402 1.054L7.938 1.054Q7.994 1.054 8.019 1.069Q8.044 1.084 8.066 1.118L8.724 2.178Q8.744 2.128 8.772 2.078L9.376 1.128Q9.398 1.09 9.424 1.072Q9.45 1.054 9.49 1.054L10.004 1.054L9.074 2.436L10.03 3.946ZM4.092 1.47L4.092 2.306L4.52 2.306Q4.796 2.306 4.937 2.206Q5.078 2.106 5.078 1.888Q5.078 1.662 4.95 1.566Q4.822 1.47 4.55 1.47L4.092 1.47ZM2.53 2.5Q2.53 2.262 2.466 2.073Q2.402 1.884 2.284 1.752Q2.166 1.62 1.997 1.55Q1.828 1.48 1.616 1.48Q1.404 1.48 1.235 1.55Q1.066 1.62 0.947 1.752Q0.828 1.884 0.764 2.073Q0.7 2.262 0.7 2.5Q0.7 2.738 0.764 2.927Q0.828 3.116 0.947 3.247Q1.066 3.378 1.235 3.448Q1.404 3.518 1.616 3.518Q1.828 3.518 1.997 3.448Q2.166 3.378 2.284 3.247Q2.402 3.116 2.466 2.927Q2.53 2.738 2.53 2.5ZM11.389 2.274Q11.488 2.316 11.572 2.418L11.572 3.338Q11.476 3.456 11.368 3.52Q11.26 3.584 11.106 3.584Q11.01 3.584 10.932 3.549Q10.854 3.514 10.8 3.435Q10.746 3.356 10.717 3.231Q10.688 3.106 10.688 2.926Q10.688 2.748 10.722 2.617Q10.756 2.486 10.82 2.401Q10.884 2.316 10.974 2.274Q11.064 2.232 11.176 2.232Q11.29 2.232 11.389 2.274ZM7.13 2.532L6.094 2.532L6.094 2.944L7.13 2.944L7.13 2.532ZM4.636 3.526Q4.786 3.526 4.888 3.49Q4.99 3.454 5.051 3.394Q5.112 3.334 5.139 3.254Q5.166 3.174 5.166 3.084Q5.166 2.99 5.136 2.915Q5.106 2.84 5.042 2.787Q4.978 2.734 4.877 2.706Q4.776 2.678 4.634 2.678L4.092 2.678L4.092 3.526L4.636 3.526Z" />
      </g>
    </g>
    <g id="OB-Xd-2-pole" transform="translate(3 200)">
      <path d="M0 0.0127705C0 0.0127705 4.90545 -0.469813 4.90545 4.5L4.90218 4.5C4.90218 -0.469813 9.8 0.0127705 9.8 0.0127705" transform="translate(1.1000061 6.5099945)" id="Notch-Shape" fill="none" fill-rule="evenodd" stroke="#FFFFFF" stroke-width="1" stroke-linejoin="round" />
      <path d="M0 1L3.75 1L3.75 0L0 0L0 1L0 1Z" transform="matrix(-1 0 0 1 11 6.0099945)" id="HP-Shape-2" fill="#FFCC66" fill-rule="evenodd" stroke="none" />
      <path d="M0 0.00299889C4.41917 -0.118492 5.99694 3.48319 6 5.01712" transform="matrix(-1 0 0 1 7.5 6.5080566)" id="HP-Shape-1" fill="none" fill-rule="evenodd" stroke="#FFCC66" stroke-width="1" />
      <path d="M0 1L3.75 1L3.75 0L0 0L0 1L0 1Z" transform="translate(1 6.0099945)" id="LP-Shape-2" fill="#80C0FF" fill-rule="evenodd" stroke="none" />
      <path d="M0 0.00299889C4.41917 -0.118492 5.99694 3.48319 6 5.01712" transform="translate(4.5 6.508072)" id="LP-Shape-1" fill="none" fill-rule="evenodd" stroke="#80C0FF" stroke-width="1" />
      <g id="OB-Xd" fill="#FFFFFF">
        <path d="M12.066 3.946L12.066 0.974L11.572 0.974L11.572 2.056Q11.476 1.964 11.354 1.91Q11.232 1.856 11.06 1.856Q10.858 1.856 10.696 1.937Q10.534 2.018 10.418 2.162Q10.302 2.306 10.24 2.502Q10.178 2.698 10.178 2.926Q10.178 3.178 10.233 3.374Q10.288 3.57 10.389 3.703Q10.49 3.836 10.63 3.906Q10.77 3.976 10.938 3.976Q11.152 3.976 11.313 3.888Q11.474 3.8 11.598 3.658L11.64 3.856Q11.666 3.946 11.764 3.946L12.066 3.946ZM3.08 2.5Q3.08 2.818 2.975 3.089Q2.87 3.36 2.678 3.558Q2.486 3.756 2.216 3.867Q1.946 3.978 1.616 3.978Q1.288 3.978 1.018 3.867Q0.748 3.756 0.555 3.558Q0.362 3.36 0.256 3.089Q0.15 2.818 0.15 2.5Q0.15 2.182 0.256 1.911Q0.362 1.64 0.555 1.442Q0.748 1.244 1.018 1.133Q1.288 1.022 1.616 1.022Q1.836 1.022 2.03 1.073Q2.224 1.124 2.386 1.217Q2.548 1.31 2.677 1.443Q2.806 1.576 2.896 1.74Q2.986 1.904 3.033 2.096Q3.08 2.288 3.08 2.5ZM4.55 1.054Q4.834 1.054 5.036 1.108Q5.238 1.162 5.367 1.262Q5.496 1.362 5.556 1.504Q5.616 1.646 5.616 1.824Q5.616 1.926 5.586 2.019Q5.556 2.112 5.493 2.193Q5.43 2.274 5.333 2.34Q5.236 2.406 5.102 2.452Q5.698 2.586 5.698 3.096Q5.698 3.28 5.628 3.436Q5.558 3.592 5.424 3.705Q5.29 3.818 5.094 3.882Q4.898 3.946 4.646 3.946L3.554 3.946L3.554 1.054L4.55 1.054ZM10.03 3.946L9.494 3.946C9.45667 3.946 9.427 3.93667 9.405 3.918Q9.372 3.89 9.352 3.854L8.682 2.744Q8.666 2.794 8.644 2.83L8.002 3.854Q7.978 3.888 7.947 3.917C7.92633 3.93633 7.89933 3.946 7.866 3.946L7.364 3.946L8.324 2.458L7.402 1.054L7.938 1.054Q7.994 1.054 8.019 1.069Q8.044 1.084 8.066 1.118L8.724 2.178Q8.744 2.128 8.772 2.078L9.376 1.128Q9.398 1.09 9.424 1.072Q9.45 1.054 9.49 1.054L10.004 1.054L9.074 2.436L10.03 3.946ZM4.092 1.47L4.092 2.306L4.52 2.306Q4.796 2.306 4.937 2.206Q5.078 2.106 5.078 1.888Q5.078 1.662 4.95 1.566Q4.822 1.47 4.55 1.47L4.092 1.47ZM2.53 2.5Q2.53 2.262 2.466 2.073Q2.402 1.884 2.284 1.752Q2.166 1.62 1.997 1.55Q1.828 1.48 1.616 1.48Q1.404 1.48 1.235 1.55Q1.066 1.62 0.947 1.752Q0.828 1.884 0.764 2.073Q0.7 2.262 0.7 2.5Q0.7 2.738 0.764 2.927Q0.828 3.116 0.947 3.247Q1.066 3.378 1.235 3.448Q1.404 3.518 1.616 3.518Q1.828 3.518 1.997 3.448Q2.166 3.378 2.284 3.247Q2.402 3.116 2.466 2.927Q2.53 2.738 2.53 2.5ZM11.389 2.274Q11.488 2.316 11.572 2.418L11.572 3.338Q11.476 3.456 11.368 3.52Q11.26 3.584 11.106 3.584Q11.01 3.584 10.932 3.549Q10.854 3.514 10.8 3.435Q10.746 3.356 10.717 3.231Q10.688 3.106 10.688 2.926Q10.688 2.748 10.722 2.617Q10.756 2.486 10.82 2.401Q10.884 2.316 10.974 2.274Q11.064 2.232 11.176 2.232Q11.29 2.232 11.389 2.274ZM7.13 2.532L6.094 2.532L6.094 2.944L7.13 2.944L7.13 2.532ZM4.636 3.526Q4.786 3.526 4.888 3.49Q4.99 3.454 5.051 3.394Q5.112 3.334 5.139 3.254Q5.166 3.174 5.166 3.084Q5.166 2.99 5.136 2.915Q5.106 2.84 5.042 2.787Q4.978 2.734 4.877 2.706Q4.776 2.678 4.634 2.678L4.092 2.678L4.092 3.526L4.636 3.526Z" />
      </g>
    </g>
    <g id="Vintage-Ladder" transform="translate(5 182.92)">
      <path d="M0 10.2354L3.93477 0L0 10.2354L0 10.2354Z" transform="translate(4.065216 1.8251648)" id="Shape" fill="#000000" fill-rule="evenodd" stroke="none" />
      <path d="M0 10.2354L3.93477 0" transform="translate(4.065216 1.8251648)" id="Shape" fill="none" fill-rule="evenodd" stroke="#FFFFFF" stroke-width="1" stroke-linejoin="round" />
      <path d="M0 10.2555L3.88224 0L0 10.2555L0 10.2555Z" id="Shape" fill="#000000" fill-rule="evenodd" stroke="none" />
      <path d="M0 10.2555L3.88224 0" id="Shape" fill="none" fill-rule="evenodd" stroke="#FFFFFF" stroke-width="1" stroke-linejoin="round" />
      <path d="M0 0L3.50928 1.87944L0 0L0 0Z" transform="translate(3.3884277 2.0191495)" id="Shape" fill="#000000" fill-rule="evenodd" stroke="none" />
      <path d="M0 0L3.50928 1.87944" transform="translate(3.3884277 2.0191495)" id="Shape" fill="none" fill-rule="evenodd" stroke="#FFFFFF" stroke-width="1" stroke-linejoin="round" />
      <path d="M0 0L3.50924 1.87944L0 0L0 0Z" transform="translate(2.5592651 3.8533638)" id="Shape" fill="#000000" fill-rule="evenodd" stroke="none" />
      <path d="M0 0L3.50924 1.87944" transform="translate(2.5592651 3.8533638)" id="Shape" fill="none" fill-rule="evenodd" stroke="#FFFFFF" stroke-width="1" stroke-linejoin="round" />
      <path d="M0 0L3.50924 1.87945L0 0L0 0Z" transform="translate(1.8176575 5.9800415)" id="Shape" fill="#000000" fill-rule="evenodd" stroke="none" />
      <path d="M0 0L3.50924 1.87945" transform="translate(1.8176575 5.9800415)" id="Shape" fill="none" fill-rule="evenodd" stroke="#FFFFFF" stroke-width="1" stroke-linejoin="round" />
      <path d="M0 0L3.50925 1.87944L0 0L0 0Z" transform="translate(1.0944519 8.019303)" id="Shape" fill="#000000" fill-rule="evenodd" stroke="none" />
      <path d="M0 0L3.50925 1.87944" transform="translate(1.0944519 8.019303)" id="Shape" fill="none" fill-rule="evenodd" stroke="#FFFFFF" stroke-width="1" stroke-linejoin="round" />
    </g>
    <g id="S&amp;H" transform="translate(4.5599976 167)">
      <path d="M1 2.01009L2 2.01009L2 0L3 0L3 5.02522L2 5.02522L2 3.01513L1 3.01513L1 5.02522L0 5.02522L0 0L1 0L1 2.01009L1 2.01009Z" transform="translate(6 4.020233)" id="Shape" fill="#FFFFFF" fill-rule="evenodd" stroke="none" />
      <path d="M0 9.04539L4 0" transform="translate(2.5 0)" id="Shape" fill="none" fill-rule="evenodd" stroke="#FFFFFF" stroke-width="1" stroke-linejoin="round" />
      <path d="M2.497 0.0510527C2.497 0.0510527 0.345 -0.332878 0.346 1.00483C0.348 2.06816 2.502 2.14254 2.5 2.93954C2.497 4.44007 0 3.93956 0 3.93956" transform="translate(0 0.50268555)" id="Shape" fill="none" fill-rule="evenodd" stroke="#FFFFFF" stroke-width="1" stroke-linejoin="round" />
    </g>
    <g id="Comb" transform="matrix(1 0 0 -1 3.5 157)">
      <path d="M0 0.013574C0 0.013574 2.00222 -0.468922 2.00222 4.49998L2.00089 4.49998C2.00089 -0.468922 3.72421 0.0127139 3.75 0.0126894" transform="matrix(1 0 0 -1 7 4.5)" id="3" fill="none" fill-rule="evenodd" stroke="#FFFFFF" stroke-width="1" stroke-linejoin="round" />
      <path d="M0 0.0127682C0 0.0127682 2.00222 -0.469727 2.00222 4.49918L2.00089 4.49918C2.00089 -0.469727 4 0.0127682 4 0.0127682" transform="matrix(1 0 0 -1 3.25 4.499176)" id="2" fill="none" fill-rule="evenodd" stroke="#FFFFFF" stroke-width="1" stroke-linejoin="round" />
      <path d="M0 0.023137C0.0437622 0.0232394 1.50222 -0.469736 1.50222 4.49917L1.50089 4.49917C1.50089 -0.469736 3.5 0.0127603 3.5 0.0127603" transform="matrix(1 0 0 -1 0 4.4992676)" id="1" fill="none" fill-rule="evenodd" stroke="#FFFFFF" stroke-width="1" stroke-linejoin="round" />
    </g>
    <g id="Notch" transform="translate(4 134.5)">
      <path d="M0 0.0127705C0 0.0127705 5.00556 -0.469813 5.00556 4.5L5.00222 4.5C5.00222 -0.469813 10 0.0127705 10 0.0127705" id="Shape" fill="none" fill-rule="evenodd" stroke="#FFFFFF" stroke-width="1" stroke-linejoin="round" />
    </g>
    <g id="Bandpass" transform="translate(4.5 116.49487)">
      <path d="M0 4.99112C0.0811462 -0.3693 4.446 0.00564733 4.446 0.00564733L4.45387 0.00564733C4.45387 0.00564733 9 0.058958 9 5" id="Shape" fill="none" fill-rule="evenodd" stroke="#FFFFFF" stroke-width="1" stroke-linejoin="round" />
    </g>
    <g id="Highpass-24-dB/oct" transform="matrix(-1 0 0 1 14.000427 98)">
      <path d="M0 1L6.55 1L6.55 0L0 0L0 1L0 1Z" id="Shape-Copy" fill="#FFFFFF" fill-rule="evenodd" stroke="none" />
      <path d="M0 0.00266558C3.10672 -0.104053 3 3.01782 3 5.02792" transform="translate(6.5 0.49917603)" id="Shape" fill="none" fill-rule="evenodd" stroke="#FFFFFF" stroke-width="1" />
    </g>
    <g id="Highpass-12-dB/oct" transform="matrix(-1 0 0 1 14 80)">
      <path d="M0 1L3.75 1L3.75 0L0 0L0 1L0 1Z" id="Shape-Copy-2" fill="#FFFFFF" fill-rule="evenodd" stroke="none" />
      <path d="M0 0.00299889C4.41917 -0.118492 5.99694 3.48319 6 5.01712" transform="translate(3.5 0.49806976)" id="Shape" fill="none" fill-rule="evenodd" stroke="#FFFFFF" stroke-width="1" />
    </g>
    <g id="Legacy-Ladder" transform="translate(5 56.92)">
      <path d="M0 10.2354L3.93477 0L0 10.2354L0 10.2354Z" transform="translate(4.065216 1.8251648)" id="Shape" fill="#000000" fill-rule="evenodd" stroke="none" />
      <path d="M0 10.2354L3.93477 0" transform="translate(4.065216 1.8251648)" id="Shape" fill="none" fill-rule="evenodd" stroke="#FFFFFF" stroke-width="1" stroke-linejoin="round" />
      <path d="M0 10.2555L3.88224 0L0 10.2555L0 10.2555Z" id="Shape" fill="#000000" fill-rule="evenodd" stroke="none" />
      <path d="M0 10.2555L3.88224 0" id="Shape" fill="none" fill-rule="evenodd" stroke="#FFFFFF" stroke-width="1" stroke-linejoin="round" />
      <path d="M0 0L3.50928 1.87944L0 0L0 0Z" transform="translate(3.3884277 2.0191495)" id="Shape" fill="#000000" fill-rule="evenodd" stroke="none" />
      <path d="M0 0L3.50928 1.87944" transform="translate(3.3884277 2.0191495)" id="Shape" fill="none" fill-rule="evenodd" stroke="#FFFFFF" stroke-width="1" stroke-linejoin="round" />
      <path d="M0 0L3.50924 1.87944L0 0L0 0Z" transform="translate(2.5592651 3.8533638)" id="Shape" fill="#000000" fill-rule="evenodd" stroke="none" />
      <path d="M0 0L3.50924 1.87944" transform="translate(2.5592651 3.8533638)" id="Shape" fill="none" fill-rule="evenodd" stroke="#FFFFFF" stroke-width="1" stroke-linejoin="round" />
      <path d="M0 0L3.50924 1.87945L0 0L0 0Z" transform="translate(1.8176575 5.9800415)" id="Shape" fill="#000000" fill-rule="evenodd" stroke="none" />
      <path d="M0 0L3.50924 1.87945" transform="translate(1.8176575 5.9800415)" id="Shape" fill="none" fill-rule="evenodd" stroke="#FFFFFF" stroke-width="1" stroke-linejoin="round" />
      <path d="M0 0L3.50925 1.87944L0 0L0 0Z" transform="translate(1.0944519 8.019303)" id="Shape" fill="#000000" fill-rule="evenodd" stroke="none" />
      <path d="M0 0L3.50925 1.87944" transform="translate(1.0944519 8.019303)" id="Shape" fill="none" fill-rule="evenodd" stroke="#FFFFFF" stroke-width="1" stroke-linejoin="round" />
    </g>
    <g id="Lowpass-24-dB/oct" transform="translate(4 44.000046)">
      <path d="M0 1L6.55 1L6.55 0L0 0L0 1L0 1Z" id="Shape-Copy" fill="#FFFFFF" fill-rule="evenodd" stroke="none" />
      <path d="M0 0.00266558C3.10672 -0.104053 3 3.01782 3 5.02792" transform="translate(6.5 0.49917603)" id="Shape" fill="none" fill-rule="evenodd" stroke="#FFFFFF" stroke-width="1" />
    </g>
    <g id="Lowpass-12-dB/oct" transform="translate(4 26.010002)">
      <path d="M0 1L3.75 1L3.75 0L0 0L0 1L0 1Z" id="Shape-Copy-2" fill="#FFFFFF" fill-rule="evenodd" stroke="none" />
      <path d="M0 0.00299889C4.41917 -0.118492 5.99694 3.48319 6 5.01712" transform="translate(3.5 0.49806976)" id="Shape" fill="none" fill-rule="evenodd" stroke="#FFFFFF" stroke-width="1" />
    </g>
    <g id="Bypass" transform="translate(4 8.045456)">
      <path d="M0 1L10 1L10 0L0 0L0 1L0 1Z" id="Shape" fill="#FFFFFF" fill-rule="evenodd" stroke="none" />
    </g>
  </g>
</svg>