<?xml version="1.0" encoding="utf-8"?>
<svg width="94px" height="42px" viewbox="0 0 94 42" version="1.1" xmlns:xlink="http://www.w3.org/1999/xlink" xmlns="http://www.w3.org/2000/svg">
  <defs>
    <rect width="94" height="42" id="artboard_1" />
    <clipPath id="clip_1">
      <use xlink:href="#artboard_1" clip-rule="evenodd" />
    </clipPath>
  </defs>
  <g id="hoverOn00302" clip-path="url(#clip_1)">
    <path d="M0 3C0 1.34315 1.34315 0 3 0L25 0C26.6569 0 28 1.34315 28 3L28 7C28 8.6569 26.6569 10 25 10L3 10C1.34315 10 0 8.6569 0 7L0 3L0 3Z" transform="translate(2.0000458 2.0000362)" id="Shape" fill="#804900" fill-rule="evenodd" stroke="none" />
    <path d="M3.54 1.212C3.508 1.268 3.47333 1.30933 3.436 1.336C3.40133 1.36 3.35733 1.372 3.304 1.372C3.248 1.372 3.18666 1.352 3.12 1.312C3.056 1.26933 2.97866 1.22267 2.888 1.172C2.79733 1.12133 2.69066 1.076 2.568 1.036C2.448 0.993331 2.30533 0.972001 2.14 0.972001C1.99066 0.972001 1.86 0.990671 1.748 1.028C1.636 1.06267 1.54133 1.112 1.464 1.176C1.38933 1.24 1.33333 1.31733 1.296 1.408C1.25866 1.496 1.24 1.59333 1.24 1.7C1.24 1.836 1.27733 1.94933 1.352 2.04C1.42933 2.13067 1.53066 2.208 1.656 2.272C1.78133 2.336 1.924 2.39333 2.084 2.444C2.244 2.49467 2.408 2.54933 2.576 2.608C2.744 2.664 2.908 2.73067 3.068 2.808C3.228 2.88267 3.37066 2.97867 3.496 3.096C3.62133 3.21067 3.72133 3.352 3.796 3.52C3.87333 3.688 3.912 3.892 3.912 4.132C3.912 4.39333 3.86666 4.63867 3.776 4.868C3.688 5.09467 3.55733 5.29333 3.384 5.464C3.21333 5.632 3.004 5.7653 2.756 5.864C2.508 5.96 2.224 6.008 1.904 6.008C1.72 6.008 1.53866 5.9893 1.36 5.952C1.18133 5.9173 1.00933 5.8667 0.84399 5.8C0.68133 5.7333 0.528 5.6533 0.384 5.56C0.24 5.4667 0.112 5.36267 0 5.248L0.316 4.732C0.34266 4.69467 0.37733 4.664 0.42 4.64C0.46266 4.61333 0.508 4.6 0.556 4.6C0.62266 4.6 0.69466 4.628 0.772 4.684C0.84933 4.73733 0.94133 4.79733 1.048 4.864C1.15466 4.93067 1.27866 4.992 1.42 5.048C1.564 5.10133 1.736 5.128 1.936 5.128C2.24266 5.128 2.48 5.056 2.648 4.912C2.816 4.76533 2.9 4.556 2.9 4.284C2.9 4.132 2.86133 4.008 2.784 3.912C2.70933 3.816 2.60933 3.736 2.484 3.672C2.35866 3.60533 2.216 3.54933 2.056 3.504C1.896 3.45867 1.73333 3.40933 1.568 3.356C1.40266 3.30267 1.24 3.23867 1.08 3.164C0.92 3.08933 0.77733 2.992 0.652 2.872C0.52666 2.752 0.42533 2.60267 0.348 2.424C0.27333 2.24267 0.236 2.02 0.236 1.756C0.236 1.54533 0.27733 1.34 0.36 1.14C0.44533 0.940001 0.568 0.762671 0.728 0.608001C0.888 0.453331 1.08533 0.329331 1.32 0.236001C1.55466 0.142671 1.824 0.0960007 2.128 0.0960007C2.46933 0.0960007 2.784 0.149331 3.072 0.256001C3.36 0.362671 3.60533 0.512001 3.808 0.704001L3.54 1.212L3.54 1.212ZM5.71101 1.84L5.71101 5.944L4.71101 5.944L4.71101 1.84L5.71101 1.84L5.71101 1.84ZM5.83901 0.644001C5.83901 0.729331 5.82161 0.809331 5.78701 0.884001C5.75231 0.958671 5.70561 1.024 5.64701 1.08C5.59101 1.136 5.52431 1.18133 5.44701 1.216C5.36961 1.248 5.28701 1.264 5.19901 1.264C5.11361 1.264 5.03231 1.248 4.95501 1.216C4.88031 1.18133 4.81501 1.136 4.75901 1.08C4.70301 1.024 4.65761 0.958671 4.62301 0.884001C4.59101 0.809331 4.57501 0.729331 4.57501 0.644001C4.57501 0.556001 4.59101 0.473331 4.62301 0.396001C4.65761 0.318671 4.70301 0.252001 4.75901 0.196001C4.81501 0.140001 4.88031 0.0960011 4.95501 0.0640011C5.03231 0.0293312 5.11361 0.012001 5.19901 0.012001C5.28701 0.012001 5.36961 0.0293312 5.44701 0.0640011C5.52431 0.0960011 5.59101 0.140001 5.64701 0.196001C5.70561 0.252001 5.75231 0.318671 5.78701 0.396001C5.82161 0.473331 5.83901 0.556001 5.83901 0.644001L5.83901 0.644001ZM7.63422 2.344C7.71692 2.26133 7.80362 2.18533 7.89422 2.116C7.98762 2.044 8.08492 1.984 8.18622 1.936C8.29022 1.88533 8.40092 1.84667 8.51822 1.82C8.63562 1.79067 8.76362 1.776 8.90222 1.776C9.12622 1.776 9.32492 1.81467 9.49822 1.892C9.67162 1.96667 9.81562 2.07333 9.93022 2.212C10.0476 2.348 10.1356 2.512 10.1942 2.704C10.2556 2.89333 10.2862 3.10267 10.2862 3.332L10.2862 5.944L9.29822 5.944L9.29822 3.332C9.29822 3.08133 9.24092 2.888 9.12622 2.752C9.01162 2.61333 8.83692 2.544 8.60222 2.544C8.43162 2.544 8.27162 2.58267 8.12222 2.66C7.97292 2.73733 7.83162 2.84267 7.69822 2.976L7.69822 5.944L6.71022 5.944L6.71022 1.84L7.31422 1.84C7.44222 1.84 7.52622 1.9 7.56622 2.02L7.63422 2.344L7.63422 2.344ZM12.7259 3.792C12.8485 3.792 12.9552 3.776 13.0459 3.744C13.1365 3.70933 13.2112 3.66267 13.2699 3.604C13.3312 3.54533 13.3765 3.47467 13.4059 3.392C13.4379 3.30933 13.4539 3.21867 13.4539 3.12C13.4539 2.91733 13.3925 2.75733 13.2699 2.64C13.1499 2.52 12.9685 2.46 12.7259 2.46C12.4832 2.46 12.3005 2.52 12.1779 2.64C12.0579 2.75733 11.9979 2.91733 11.9979 3.12C11.9979 3.216 12.0125 3.30533 12.0419 3.388C12.0739 3.47067 12.1192 3.54267 12.1779 3.604C12.2392 3.66267 12.3152 3.70933 12.4059 3.744C12.4992 3.776 12.6059 3.792 12.7259 3.792L12.7259 3.792ZM13.8419 6.128C13.8419 6.048 13.8179 5.9827 13.7699 5.932C13.7219 5.8813 13.6565 5.8427 13.5739 5.816C13.4912 5.7867 13.3939 5.7653 13.2819 5.752C13.1725 5.7387 13.0552 5.7293 12.9299 5.724C12.8072 5.716 12.6792 5.7093 12.5459 5.704C12.4152 5.6987 12.2872 5.688 12.1619 5.672C12.0525 5.7333 11.9632 5.8053 11.8939 5.888C11.8272 5.9707 11.7938 6.0667 11.7938 6.176C11.7938 6.248 11.8112 6.3147 11.8459 6.376C11.8832 6.44 11.9405 6.4947 12.0179 6.54C12.0979 6.5853 12.2005 6.62 12.3259 6.644C12.4512 6.6707 12.6045 6.684 12.7859 6.684C12.9699 6.684 13.1285 6.6693 13.2619 6.64C13.3952 6.6133 13.5045 6.5747 13.5899 6.524C13.6779 6.476 13.7419 6.4173 13.7819 6.348C13.8219 6.2813 13.8419 6.208 13.8419 6.128L13.8419 6.128ZM14.8259 1.98L14.8259 2.348C14.8259 2.46533 14.7552 2.53733 14.6139 2.564L14.2459 2.632C14.3019 2.77333 14.3299 2.928 14.3299 3.096C14.3299 3.29867 14.2885 3.48267 14.2059 3.648C14.1259 3.81067 14.0139 3.94933 13.8699 4.064C13.7259 4.17867 13.5552 4.268 13.3579 4.332C13.1632 4.39333 12.9525 4.424 12.7259 4.424C12.6459 4.424 12.5685 4.42 12.4939 4.412C12.4192 4.404 12.3459 4.39333 12.2739 4.38C12.1459 4.45733 12.0819 4.544 12.0819 4.64C12.0819 4.72267 12.1192 4.784 12.1939 4.824C12.2712 4.86133 12.3725 4.888 12.4979 4.904C12.6232 4.92 12.7659 4.93067 12.9259 4.936C13.0859 4.93867 13.2499 4.94667 13.4179 4.96C13.5859 4.97333 13.7499 4.99733 13.9099 5.032C14.0699 5.064 14.2125 5.116 14.3379 5.188C14.4632 5.26 14.5632 5.35867 14.6379 5.484C14.7152 5.6067 14.7539 5.7653 14.7539 5.96C14.7539 6.1413 14.7085 6.3173 14.6179 6.488C14.5299 6.6587 14.4005 6.8107 14.2299 6.944C14.0619 7.0773 13.8539 7.184 13.6059 7.264C13.3605 7.3467 13.0805 7.388 12.7659 7.388C12.4565 7.388 12.1872 7.3573 11.9579 7.296C11.7285 7.2373 11.5379 7.1573 11.3859 7.056C11.2339 6.9573 11.1205 6.8427 11.0459 6.712C10.9712 6.5813 10.9339 6.4453 10.9339 6.304C10.9339 6.112 10.9912 5.952 11.1059 5.824C11.2232 5.6933 11.3832 5.5893 11.5859 5.512C11.4765 5.456 11.3899 5.38133 11.3258 5.288C11.2619 5.19467 11.2299 5.072 11.2299 4.92C11.2299 4.85867 11.2405 4.796 11.2619 4.732C11.2859 4.66533 11.3192 4.6 11.3619 4.536C11.4072 4.472 11.4632 4.412 11.5299 4.356C11.5965 4.29733 11.6752 4.24533 11.7658 4.2C11.5579 4.088 11.3939 3.93867 11.2739 3.752C11.1565 3.56533 11.0979 3.34667 11.0979 3.096C11.0979 2.89333 11.1379 2.71067 11.2179 2.548C11.3005 2.38267 11.4139 2.24267 11.5579 2.128C11.7045 2.01067 11.8765 1.92133 12.0739 1.86C12.2739 1.79867 12.4912 1.768 12.7259 1.768C12.9019 1.768 13.0672 1.78667 13.2219 1.824C13.3765 1.85867 13.5179 1.91067 13.6459 1.98L14.8259 1.98L14.8259 1.98ZM16.4644 0L16.4644 5.944L15.4644 5.944L15.4644 0L16.4644 0L16.4644 0ZM20.0808 3.484C20.0808 3.34725 20.0621 3.21904 20.0248 3.09939C19.9901 2.97688 19.9368 2.87004 19.8648 2.77887C19.7928 2.68771 19.7008 2.61648 19.5888 2.5652C19.4795 2.51106 19.3515 2.484 19.2048 2.484C18.9195 2.484 18.6941 2.57089 18.5288 2.74468C18.3661 2.91848 18.2621 3.16491 18.2168 3.484L20.0808 3.484L20.0808 3.484ZM18.1968 4.016C18.2128 4.22667 18.2501 4.40933 18.3088 4.564C18.3675 4.716 18.4448 4.84267 18.5408 4.944C18.6368 5.04267 18.7501 5.11733 18.8808 5.168C19.0141 5.216 19.1608 5.24 19.3208 5.24C19.4808 5.24 19.6181 5.22133 19.7328 5.184C19.8501 5.14667 19.9515 5.10533 20.0368 5.06C20.1248 5.01467 20.2008 4.97333 20.2648 4.936C20.3315 4.89867 20.3955 4.88 20.4568 4.88C20.5395 4.88 20.6008 4.91067 20.6408 4.972L20.9248 5.332C20.8155 5.46 20.6928 5.568 20.5568 5.656C20.4208 5.7413 20.2781 5.8107 20.1288 5.864C19.9821 5.9147 19.8315 5.9507 19.6768 5.972C19.5248 5.9933 19.3768 6.004 19.2328 6.004C18.9475 6.004 18.6821 5.9573 18.4368 5.864C18.1915 5.768 17.9781 5.628 17.7968 5.444C17.6155 5.25733 17.4728 5.028 17.3688 4.756C17.2648 4.48133 17.2128 4.164 17.2128 3.804C17.2128 3.524 17.2581 3.26133 17.3488 3.016C17.4395 2.768 17.5688 2.55333 17.7368 2.372C17.9075 2.188 18.1141 2.04267 18.3568 1.936C18.6021 1.82933 18.8781 1.776 19.1848 1.776C19.4435 1.776 19.6821 1.81733 19.9008 1.9C20.1195 1.98267 20.3075 2.104 20.4648 2.264C20.6221 2.42133 20.7448 2.616 20.8328 2.848C20.9235 3.07733 20.9688 3.34 20.9688 3.636C20.9688 3.78533 20.9528 3.88667 20.9208 3.94C20.8888 3.99067 20.8275 4.016 20.7368 4.016L18.1968 4.016L18.1968 4.016Z" transform="translate(5.4809265 4.000038)" id="Shape" fill="#FF9300" fill-rule="evenodd" stroke="none" />
    <path d="M0 3C0 1.3431 1.3431 0 3 0L25 0C26.6569 0 28 1.3431 28 3L28 7C28 8.6569 26.6569 10 25 10L3 10C1.3431 10 0 8.6569 0 7L0 3L0 3Z" transform="translate(33.000046 16.000036)" id="Shape" fill="#804900" fill-rule="evenodd" stroke="none" />
    <path d="M3.54 1.212C3.508 1.268 3.4733 1.3093 3.436 1.336C3.4013 1.36 3.3573 1.372 3.304 1.372C3.248 1.372 3.1866 1.352 3.12 1.312C3.056 1.2693 2.9786 1.2227 2.888 1.172C2.7973 1.1213 2.6906 1.076 2.568 1.036C2.448 0.993299 2.3053 0.972 2.14 0.972C1.9906 0.972 1.86 0.9907 1.748 1.028C1.636 1.0627 1.5413 1.112 1.464 1.176C1.3893 1.24 1.3333 1.3173 1.296 1.408C1.2586 1.496 1.24 1.5933 1.24 1.7C1.24 1.836 1.2773 1.9493 1.352 2.04C1.4293 2.1307 1.5306 2.208 1.656 2.272C1.7813 2.336 1.924 2.3933 2.084 2.444C2.244 2.4947 2.408 2.5493 2.576 2.608C2.744 2.664 2.908 2.7307 3.068 2.808C3.228 2.8827 3.3706 2.9787 3.496 3.096C3.6213 3.2107 3.7213 3.352 3.796 3.52C3.8733 3.688 3.912 3.892 3.912 4.132C3.912 4.3933 3.8666 4.6387 3.776 4.868C3.688 5.0947 3.5573 5.2933 3.384 5.464C3.2133 5.632 3.004 5.7653 2.756 5.864C2.508 5.96 2.224 6.008 1.904 6.008C1.72 6.008 1.5386 5.9893 1.36 5.952C1.1813 5.9173 1.0093 5.8667 0.843998 5.8C0.681297 5.7333 0.528 5.6533 0.383999 5.56C0.239998 5.4667 0.112 5.3627 0 5.248L0.315998 4.732C0.342598 4.6947 0.3773 4.664 0.419998 4.64C0.462601 4.6133 0.507999 4.6 0.556 4.6C0.622601 4.6 0.694599 4.628 0.771999 4.684C0.8493 4.7373 0.941299 4.7973 1.048 4.864C1.1546 4.9307 1.2786 4.992 1.42 5.048C1.564 5.1013 1.736 5.128 1.936 5.128C2.2426 5.128 2.48 5.056 2.648 4.912C2.816 4.7653 2.9 4.556 2.9 4.284C2.9 4.132 2.8613 4.008 2.784 3.912C2.7093 3.816 2.6093 3.736 2.484 3.672C2.3586 3.6053 2.216 3.5493 2.056 3.504C1.896 3.4587 1.7333 3.4093 1.568 3.356C1.4026 3.3027 1.24 3.2387 1.08 3.164C0.919998 3.0893 0.777298 2.992 0.652 2.872C0.5266 2.752 0.425301 2.6027 0.348 2.424C0.2733 2.2427 0.236 2.02 0.236 1.756C0.236 1.5453 0.277298 1.34 0.360001 1.14C0.445297 0.940001 0.567997 0.762701 0.728001 0.608C0.888 0.453301 1.0853 0.3293 1.32 0.236C1.5546 0.1427 1.824 0.0960007 2.128 0.0960007C2.4693 0.0960007 2.784 0.1493 3.072 0.256001C3.36 0.3627 3.6053 0.512001 3.808 0.704L3.54 1.212L3.54 1.212ZM5.62789 2.28C5.78789 2.1307 5.96389 2.0093 6.15589 1.916C6.34789 1.8227 6.57319 1.776 6.83189 1.776C7.05589 1.776 7.25459 1.8147 7.42789 1.892C7.60119 1.9667 7.74519 2.0733 7.85989 2.212C7.97719 2.348 8.06519 2.512 8.12389 2.704C8.18519 2.8933 8.21589 3.1027 8.21589 3.332L8.21589 5.944L7.22789 5.944L7.22789 3.332C7.22789 3.0813 7.17059 2.888 7.05589 2.752C6.94119 2.6133 6.76659 2.544 6.53189 2.544C6.36119 2.544 6.20119 2.5827 6.05189 2.66C5.90259 2.7373 5.76119 2.8427 5.62789 2.976L5.62789 5.944L4.63989 5.944L4.63989 0L5.62789 0L5.62789 2.28L5.62789 2.28ZM10.1875 1.84L10.1875 5.944L9.1875 5.944L9.1875 1.84L10.1875 1.84L10.1875 1.84ZM10.3155 0.644001C10.3155 0.7293 10.2982 0.809299 10.2635 0.884001C10.2289 0.9587 10.1822 1.024 10.1235 1.08C10.0675 1.136 10.0009 1.1813 9.9235 1.216C9.8462 1.248 9.7635 1.264 9.6755 1.264C9.5902 1.264 9.5089 1.248 9.4315 1.216C9.3569 1.1813 9.2915 1.136 9.2355 1.08C9.1795 1.024 9.1342 0.9587 9.0995 0.884001C9.0675 0.809299 9.0515 0.7293 9.0515 0.644001C9.0515 0.556 9.0675 0.473301 9.0995 0.396C9.1342 0.318701 9.1795 0.252001 9.2355 0.196001C9.2915 0.139999 9.3569 0.0960007 9.4315 0.0640011C9.5089 0.0293007 9.5902 0.012001 9.6755 0.012001C9.7635 0.012001 9.8462 0.0293007 9.9235 0.0640011C10.0009 0.0960007 10.0675 0.139999 10.1235 0.196001C10.1822 0.252001 10.2289 0.318701 10.2635 0.396C10.2982 0.473301 10.3155 0.556 10.3155 0.644001L10.3155 0.644001ZM15.1188 2.58L15.1188 4.804C15.1188 4.932 15.1508 5.032 15.2148 5.104C15.2788 5.176 15.3641 5.212 15.4708 5.212C15.5321 5.212 15.5828 5.2053 15.6228 5.192C15.6654 5.176 15.7014 5.16 15.7308 5.144C15.7628 5.128 15.7908 5.1133 15.8148 5.1C15.8388 5.084 15.8628 5.076 15.8868 5.076C15.9161 5.076 15.9401 5.084 15.9588 5.1C15.9774 5.1133 15.9974 5.1347 16.0188 5.164L16.3148 5.644C16.1708 5.764 16.0054 5.8547 15.8188 5.916C15.6348 5.9773 15.4428 6.008 15.2428 6.008C14.8854 6.008 14.6108 5.908 14.4188 5.708C14.2268 5.5053 14.1308 5.2267 14.1308 4.872L14.1308 2.58L12.4628 2.58L12.4628 5.944L11.4748 5.944L11.4748 2.584L11.1188 2.528C11.0414 2.512 10.9788 2.4853 10.9308 2.448C10.8854 2.408 10.8628 2.352 10.8628 2.28L10.8628 1.876L11.4748 1.876L11.4748 1.572C11.4748 1.3373 11.5094 1.1267 11.5788 0.939999C11.6508 0.753298 11.7521 0.594698 11.8828 0.463999C12.0161 0.333298 12.1774 0.233299 12.3668 0.163998C12.5561 0.094698 12.7694 0.0599976 13.0068 0.0599976C13.1961 0.0599976 13.3721 0.0852985 13.5348 0.135998L13.5148 0.631998C13.5121 0.669298 13.5014 0.699999 13.4828 0.723999C13.4641 0.745298 13.4388 0.762699 13.4068 0.775999C13.3774 0.786697 13.3428 0.794699 13.3028 0.799999C13.2628 0.802698 13.2201 0.803999 13.1748 0.803999C13.0574 0.803999 12.9521 0.817299 12.8588 0.843998C12.7681 0.867998 12.6908 0.911999 12.6268 0.975998C12.5628 1.0373 12.5134 1.12 12.4788 1.224C12.4468 1.3253 12.4308 1.452 12.4308 1.604L12.4308 1.876L14.1748 1.876L14.3868 0.751999C14.4001 0.698698 14.4254 0.657299 14.4628 0.627998C14.5001 0.598698 14.5481 0.583998 14.6068 0.583998L15.1188 0.583998L15.1188 1.876L16.2148 1.876L16.2148 2.58L15.1188 2.58L15.1188 2.58Z" transform="translate(38.91455 18.000038)" id="Shape" fill="#FF9300" fill-rule="evenodd" stroke="none" />
    <path d="M0 3C0 1.3431 1.3431 0 3 0L25 0C26.6569 0 28 1.3431 28 3L28 7C28 8.6569 26.6569 10 25 10L3 10C1.3431 10 0 8.6569 0 7L0 3L0 3Z" transform="translate(64.00006 30.000036)" id="Shape" fill="#804900" fill-rule="evenodd" stroke="none" />
    <path d="M5.136 2.892C5.136 3.316 5.0653 3.7053 4.924 4.06C4.7827 4.4147 4.584 4.72 4.328 4.976C4.072 5.232 3.764 5.4307 3.404 5.572C3.044 5.7133 2.644 5.784 2.204 5.784L0 5.784L0 0L2.204 0C2.644 0 3.044 0.0719986 3.404 0.216C3.764 0.3573 4.072 0.556 4.328 0.812C4.584 1.0653 4.7827 1.3693 4.924 1.724C5.0653 2.0787 5.136 2.468 5.136 2.892L5.136 2.892ZM4.03201 2.89201C4.03201 2.5747 3.98932 2.2907 3.90401 2.04C3.82131 1.78671 3.70001 1.5733 3.54002 1.40001C3.38271 1.224 3.19071 1.08931 2.96401 0.996006C2.74001 0.902702 2.48672 0.856003 2.20402 0.856003L1.08002 0.856003L1.08002 4.92801L2.20402 4.92801C2.48672 4.92801 2.74001 4.88131 2.96401 4.78801C3.19071 4.69471 3.38271 4.56131 3.54002 4.388C3.70001 4.21201 3.82131 3.9987 3.90401 3.748C3.98932 3.49471 4.03201 3.2093 4.03201 2.89201L4.03201 2.89201ZM6.7916 2.39201C6.91959 2.14671 7.07159 1.9547 7.24759 1.81601C7.42359 1.67471 7.63159 1.604 7.87159 1.604C8.06089 1.604 8.21289 1.64531 8.32759 1.728L8.2636 2.468C8.25029 2.516 8.23029 2.5507 8.20359 2.572C8.1796 2.59071 8.14629 2.60001 8.10359 2.60001C8.06359 2.60001 8.00359 2.5933 7.92359 2.58001C7.84629 2.5667 7.77029 2.56001 7.69559 2.56001C7.5863 2.56001 7.48889 2.576 7.40359 2.60801C7.31829 2.64 7.24089 2.6867 7.17159 2.748C7.10489 2.80671 7.04489 2.8787 6.99159 2.964C6.9409 3.0493 6.89289 3.14671 6.8476 3.256L6.8476 5.784L5.85959 5.784L5.85959 1.68L6.43959 1.68C6.54089 1.68 6.6116 1.6987 6.6516 1.736C6.69159 1.7707 6.71829 1.83471 6.73159 1.92801L6.7916 2.39201L6.7916 2.39201ZM10.9573 4.032C10.672 4.0453 10.432 4.0707 10.2373 4.108C10.0426 4.1427 9.88658 4.188 9.76929 4.244C9.65199 4.3 9.56799 4.3653 9.51729 4.43999C9.46658 4.5147 9.44128 4.596 9.44128 4.684C9.44128 4.8573 9.49198 4.9813 9.59328 5.056C9.69729 5.1307 9.83199 5.168 9.99728 5.168C10.2 5.168 10.3746 5.132 10.5213 5.06C10.6706 4.9853 10.816 4.87329 10.9573 4.724L10.9573 4.032L10.9573 4.032ZM8.69331 2.252C9.16531 1.82 9.73331 1.604 10.3973 1.604C10.6373 1.604 10.852 1.644 11.0413 1.724C11.2306 1.8013 11.3906 1.91071 11.5213 2.05201C11.652 2.1907 11.7506 2.3573 11.8173 2.55201C11.8866 2.7467 11.9213 2.96 11.9213 3.19201L11.9213 5.784L11.4733 5.784C11.38 5.784 11.308 5.7707 11.2573 5.744C11.2066 5.7147 11.1666 5.6573 11.1373 5.572L11.0493 5.276C10.9453 5.3693 10.844 5.452 10.7453 5.52401C10.6466 5.5933 10.544 5.652 10.4373 5.7C10.3306 5.748 10.216 5.784 10.0933 5.808C9.97331 5.83471 9.84001 5.848 9.69331 5.848C9.52001 5.848 9.36002 5.82531 9.21332 5.78C9.06661 5.73201 8.94002 5.6613 8.83331 5.568C8.72662 5.4747 8.64401 5.3587 8.58531 5.22001C8.52662 5.0813 8.49731 4.92001 8.49731 4.736C8.49731 4.632 8.51462 4.5293 8.54932 4.42801C8.58401 4.32401 8.64001 4.2253 8.71732 4.132C8.79732 4.0387 8.90002 3.9507 9.02531 3.868C9.15061 3.78531 9.30402 3.7133 9.48531 3.652C9.66931 3.59071 9.88261 3.54131 10.1253 3.50401C10.368 3.464 10.6453 3.44 10.9573 3.432L10.9573 3.19201C10.9573 2.9173 10.8986 2.7147 10.7813 2.584C10.664 2.4507 10.4946 2.384 10.2733 2.384C10.1133 2.384 9.98002 2.4027 9.87331 2.44C9.76932 2.4773 9.67731 2.52 9.59731 2.568C9.51732 2.6133 9.44402 2.65471 9.37731 2.69201C9.31332 2.72931 9.24132 2.748 9.16132 2.748C9.09202 2.748 9.03332 2.73071 8.98531 2.696C8.93732 2.6587 8.89861 2.616 8.86932 2.568L8.69331 2.252L8.69331 2.252ZM18.6727 1.68L17.3687 5.784L16.5767 5.784C16.4861 5.784 16.4234 5.7253 16.3887 5.608L15.6527 3.236C15.6287 3.156 15.6061 3.0773 15.5847 3C15.5661 2.92 15.5501 2.84 15.5367 2.76C15.5207 2.84 15.5021 2.9213 15.4807 3.004C15.4621 3.084 15.4407 3.164 15.4167 3.244L14.6687 5.608C14.6367 5.7253 14.5661 5.784 14.4567 5.784L13.6967 5.784L12.3967 1.68L13.1847 1.68C13.2567 1.68 13.3181 1.6973 13.3687 1.732C13.4194 1.7667 13.4527 1.8107 13.4687 1.864L14.0567 4.056C14.0861 4.17599 14.1114 4.2933 14.1327 4.408C14.1567 4.5227 14.1767 4.63729 14.1927 4.752C14.2221 4.63729 14.2527 4.5227 14.2847 4.408C14.3194 4.2933 14.3554 4.17599 14.3927 4.056L15.0727 1.856C15.0887 1.8027 15.1194 1.7587 15.1647 1.724C15.2127 1.6893 15.2701 1.672 15.3367 1.672L15.7727 1.672C15.8421 1.672 15.9007 1.6893 15.9487 1.724C15.9994 1.7587 16.0327 1.8027 16.0487 1.856L16.7087 4.056C16.7434 4.17599 16.7754 4.2947 16.8047 4.41199C16.8367 4.5267 16.8674 4.6413 16.8967 4.756C16.9314 4.5293 16.9807 4.296 17.0447 4.056L17.6487 1.864C17.6674 1.8107 17.7007 1.7667 17.7487 1.732C17.7967 1.6973 17.8541 1.68 17.9207 1.68L18.6727 1.68L18.6727 1.68Z" transform="translate(68.94873 32.00003)" id="Shape" fill="#FF9300" fill-rule="evenodd" stroke="none" />
  </g>
</svg>