<svg width="134" height="416" viewBox="0 0 134 416" fill="none" xmlns="http://www.w3.org/2000/svg">
<defs>
<clipPath id="clip0">
<path d="M0 45H15V52H0V45Z" fill="white"/>
</clipPath>
<clipPath id="clip1">
<path d="M16 97.0757H32V104.076H16V97.0757Z" fill="white"/>
</clipPath>
<clipPath id="clip2">
<path d="M33 148.971H49V155.971H33V148.971Z" fill="white"/>
</clipPath>
<clipPath id="clip3">
<path d="M50 201H66V208H50V201Z" fill="white"/>
</clipPath>
<clipPath id="clip4">
<path d="M67 253H83V260H67V253Z" fill="white"/>
</clipPath>
<clipPath id="clip5">
<path d="M84 305H100V312H84V305Z" fill="white"/>
</clipPath>
<clipPath id="clip6">
<path d="M101 357H117V364H101V357Z" fill="white"/>
</clipPath>
</defs>
<g clip-path="url(#clip0)">
<path d="M0 45H15V52H0V45Z" fill="#FF9300"/>
<path d="M6.85983 46.8595C6.83183 46.9085 6.80149 46.9447 6.76883 46.968C6.73849 46.989 6.69999 46.9995 6.65333 46.9995C6.60433 46.9995 6.55066 46.982 6.49233 46.947C6.43633 46.9097 6.36866 46.8688 6.28933 46.8245C6.20999 46.7802 6.11666 46.7405 6.00933 46.7055C5.90433 46.6682 5.77949 46.6495 5.63483 46.6495C5.50416 46.6495 5.38983 46.6658 5.29183 46.6985C5.19383 46.7288 5.11099 46.772 5.04333 46.828C4.97799 46.884 4.92899 46.9517 4.89633 47.031C4.86366 47.108 4.84733 47.1932 4.84733 47.2865C4.84733 47.4055 4.87999 47.5047 4.94533 47.584C5.01299 47.6633 5.10166 47.731 5.21133 47.787C5.32099 47.843 5.44583 47.8932 5.58583 47.9375C5.72583 47.9818 5.86933 48.0297 6.01633 48.081C6.16333 48.13 6.30683 48.1883 6.44683 48.256C6.58683 48.3213 6.71166 48.4053 6.82133 48.508C6.93099 48.6083 7.01849 48.732 7.08383 48.879C7.15149 49.026 7.18533 49.2045 7.18533 49.4145C7.18533 49.6432 7.14566 49.8578 7.06633 50.0585C6.98933 50.2568 6.87499 50.4307 6.72333 50.58C6.57399 50.727 6.39083 50.8437 6.17383 50.93C5.95683 51.014 5.70833 51.056 5.42833 51.056C5.26733 51.056 5.10866 51.0397 4.95233 51.007C4.79599 50.9767 4.64549 50.9323 4.50083 50.874C4.35849 50.8157 4.22433 50.7457 4.09833 50.664C3.97233 50.5823 3.86033 50.4913 3.76233 50.391L4.03883 49.9395C4.06216 49.9068 4.09249 49.88 4.12983 49.859C4.16716 49.8357 4.20683 49.824 4.24883 49.824C4.30716 49.824 4.37016 49.8485 4.43783 49.8975C4.50549 49.9442 4.58599 49.9967 4.67933 50.055C4.77266 50.1133 4.88116 50.167 5.00483 50.216C5.13083 50.2627 5.28133 50.286 5.45633 50.286C5.72466 50.286 5.93233 50.223 6.07933 50.097C6.22633 49.9687 6.29983 49.7855 6.29983 49.5475C6.29983 49.4145 6.26599 49.306 6.19833 49.222C6.13299 49.138 6.04549 49.068 5.93583 49.012C5.82616 48.9537 5.70133 48.9047 5.56133 48.865C5.42133 48.8253 5.27899 48.7822 5.13433 48.7355C4.98966 48.6888 4.84733 48.6328 4.70733 48.5675C4.56733 48.5022 4.44249 48.417 4.33283 48.312C4.22316 48.207 4.13449 48.0763 4.06683 47.92C4.00149 47.7613 3.96883 47.5665 3.96883 47.3355C3.96883 47.1512 4.00499 46.9715 4.07733 46.7965C4.15199 46.6215 4.25933 46.4663 4.39933 46.331C4.53933 46.1957 4.71199 46.0872 4.91733 46.0055C5.12266 45.9238 5.35833 45.883 5.62433 45.883C5.92299 45.883 6.19833 45.9297 6.45033 46.023C6.70233 46.1163 6.91699 46.247 7.09433 46.415L6.85983 46.8595ZM10.9606 50.3525V51H8.16063V50.3525H9.18613V47.402C9.18613 47.2853 9.18963 47.1652 9.19663 47.0415L8.46863 47.6505C8.42663 47.6832 8.38463 47.7042 8.34263 47.7135C8.30296 47.7205 8.26446 47.7205 8.22713 47.7135C8.19213 47.7065 8.16063 47.6948 8.13263 47.6785C8.10463 47.6598 8.08363 47.64 8.06963 47.619L7.79663 47.2445L9.34013 45.932H10.0506V50.3525H10.9606Z" fill="#EEEEEE"/>
</g>
<g clip-path="url(#clip1)">
<path d="M16 97.0757H32V104.076H16V97.0757Z" fill="#FF9300"/>
<path d="M23.3598 98.9352C23.3318 98.9842 23.3015 99.0204 23.2688 99.0437C23.2385 99.0647 23.2 99.0752 23.1533 99.0752C23.1043 99.0752 23.0507 99.0577 22.9923 99.0227C22.9363 98.9854 22.8687 98.9445 22.7893 98.9002C22.71 98.8559 22.6167 98.8162 22.5093 98.7812C22.4043 98.7439 22.2795 98.7252 22.1348 98.7252C22.0042 98.7252 21.8898 98.7415 21.7918 98.7742C21.6938 98.8045 21.611 98.8477 21.5433 98.9037C21.478 98.9597 21.429 99.0273 21.3963 99.1067C21.3637 99.1837 21.3473 99.2688 21.3473 99.3622C21.3473 99.4812 21.38 99.5804 21.4453 99.6597C21.513 99.739 21.6017 99.8067 21.7113 99.8627C21.821 99.9187 21.9458 99.9689 22.0858 100.013C22.2258 100.058 22.3693 100.105 22.5163 100.157C22.6633 100.206 22.8068 100.264 22.9468 100.332C23.0868 100.397 23.2117 100.481 23.3213 100.584C23.431 100.684 23.5185 100.808 23.5838 100.955C23.6515 101.102 23.6853 101.28 23.6853 101.49C23.6853 101.719 23.6457 101.934 23.5663 102.134C23.4893 102.333 23.375 102.506 23.2233 102.656C23.074 102.803 22.8908 102.919 22.6738 103.006C22.4568 103.09 22.2083 103.132 21.9283 103.132C21.7673 103.132 21.6087 103.115 21.4523 103.083C21.296 103.052 21.1455 103.008 21.0008 102.95C20.8585 102.891 20.7243 102.821 20.5983 102.74C20.4723 102.658 20.3603 102.567 20.2623 102.467L20.5388 102.015C20.5622 101.983 20.5925 101.956 20.6298 101.935C20.6672 101.911 20.7068 101.9 20.7488 101.9C20.8072 101.9 20.8702 101.924 20.9378 101.973C21.0055 102.02 21.086 102.072 21.1793 102.131C21.2727 102.189 21.3812 102.243 21.5048 102.292C21.6308 102.338 21.7813 102.362 21.9563 102.362C22.2247 102.362 22.4323 102.299 22.5793 102.173C22.7263 102.044 22.7998 101.861 22.7998 101.623C22.7998 101.49 22.766 101.382 22.6983 101.298C22.633 101.214 22.5455 101.144 22.4358 101.088C22.3262 101.029 22.2013 100.98 22.0613 100.941C21.9213 100.901 21.779 100.858 21.6343 100.811C21.4897 100.765 21.3473 100.709 21.2073 100.643C21.0673 100.578 20.9425 100.493 20.8328 100.388C20.7232 100.283 20.6345 100.152 20.5668 99.9957C20.5015 99.837 20.4688 99.6422 20.4688 99.4112C20.4688 99.2269 20.505 99.0472 20.5773 98.8722C20.652 98.6972 20.7593 98.542 20.8993 98.4067C21.0393 98.2713 21.212 98.1629 21.4173 98.0812C21.6227 97.9995 21.8583 97.9587 22.1243 97.9587C22.423 97.9587 22.6983 98.0054 22.9503 98.0987C23.2023 98.192 23.417 98.3227 23.5943 98.4907L23.3598 98.9352ZM27.2716 102.271C27.365 102.271 27.4385 102.298 27.4921 102.351C27.5481 102.403 27.5761 102.471 27.5761 102.558V103.076H24.1041V102.789C24.1041 102.73 24.1158 102.67 24.1391 102.607C24.1648 102.541 24.2045 102.483 24.2581 102.432L25.7946 100.892C25.923 100.761 26.0373 100.636 26.1376 100.517C26.2403 100.398 26.3255 100.28 26.3931 100.164C26.4608 100.047 26.5121 99.9292 26.5471 99.8102C26.5845 99.6889 26.6031 99.5617 26.6031 99.4287C26.6031 99.3073 26.5856 99.2012 26.5506 99.1102C26.5156 99.0169 26.4655 98.9387 26.4001 98.8757C26.3371 98.8127 26.2601 98.766 26.1691 98.7357C26.0805 98.703 25.9801 98.6867 25.8681 98.6867C25.7655 98.6867 25.6698 98.7019 25.5811 98.7322C25.4948 98.7602 25.4178 98.801 25.3501 98.8547C25.2825 98.906 25.2253 98.9667 25.1786 99.0367C25.132 99.1067 25.097 99.1837 25.0736 99.2677C25.034 99.375 24.9826 99.4462 24.9196 99.4812C24.8566 99.5162 24.7656 99.5243 24.6466 99.5057L24.1916 99.4252C24.2266 99.1825 24.2943 98.9702 24.3946 98.7882C24.495 98.6039 24.6198 98.451 24.7691 98.3297C24.9208 98.206 25.0935 98.1139 25.2871 98.0532C25.4831 97.9902 25.6931 97.9587 25.9171 97.9587C26.1505 97.9587 26.364 97.9937 26.5576 98.0637C26.7513 98.1313 26.917 98.2282 27.0546 98.3542C27.1923 98.4802 27.2996 98.6318 27.3766 98.8092C27.4536 98.9865 27.4921 99.1837 27.4921 99.4007C27.4921 99.5874 27.4641 99.76 27.4081 99.9187C27.3545 100.077 27.281 100.229 27.1876 100.374C27.0966 100.518 26.9893 100.658 26.8656 100.794C26.742 100.929 26.6125 101.067 26.4771 101.207L25.3361 102.372C25.4458 102.34 25.5543 102.315 25.6616 102.299C25.7713 102.28 25.8751 102.271 25.9731 102.271H27.2716Z" fill="#EEEEEE"/>
</g>
<g clip-path="url(#clip2)">
<path d="M33 148.971H49V155.971H33V148.971Z" fill="#FF9300"/>
<path d="M40.3598 150.83C40.3318 150.879 40.3015 150.916 40.2688 150.939C40.2385 150.96 40.2 150.97 40.1533 150.97C40.1043 150.97 40.0507 150.953 39.9923 150.918C39.9363 150.881 39.8687 150.84 39.7893 150.795C39.71 150.751 39.6167 150.711 39.5093 150.676C39.4043 150.639 39.2795 150.62 39.1348 150.62C39.0042 150.62 38.8898 150.637 38.7918 150.669C38.6938 150.7 38.611 150.743 38.5433 150.799C38.478 150.855 38.429 150.923 38.3963 151.002C38.3637 151.079 38.3473 151.164 38.3473 151.257C38.3473 151.376 38.38 151.476 38.4453 151.555C38.513 151.634 38.6017 151.702 38.7113 151.758C38.821 151.814 38.9458 151.864 39.0858 151.908C39.2258 151.953 39.3693 152.001 39.5163 152.052C39.6633 152.101 39.8068 152.159 39.9468 152.227C40.0868 152.292 40.2117 152.376 40.3213 152.479C40.431 152.579 40.5185 152.703 40.5838 152.85C40.6515 152.997 40.6853 153.175 40.6853 153.385C40.6853 153.614 40.6457 153.829 40.5663 154.029C40.4893 154.228 40.375 154.402 40.2233 154.551C40.074 154.698 39.8908 154.815 39.6738 154.901C39.4568 154.985 39.2083 155.027 38.9283 155.027C38.7673 155.027 38.6087 155.011 38.4523 154.978C38.296 154.948 38.1455 154.903 38.0008 154.845C37.8585 154.787 37.7243 154.717 37.5983 154.635C37.4723 154.553 37.3603 154.462 37.2623 154.362L37.5388 153.91C37.5622 153.878 37.5925 153.851 37.6298 153.83C37.6672 153.807 37.7068 153.795 37.7488 153.795C37.8072 153.795 37.8702 153.819 37.9378 153.868C38.0055 153.915 38.086 153.968 38.1793 154.026C38.2727 154.084 38.3812 154.138 38.5048 154.187C38.6308 154.234 38.7813 154.257 38.9563 154.257C39.2247 154.257 39.4323 154.194 39.5793 154.068C39.7263 153.94 39.7998 153.756 39.7998 153.518C39.7998 153.385 39.766 153.277 39.6983 153.193C39.633 153.109 39.5455 153.039 39.4358 152.983C39.3262 152.925 39.2013 152.876 39.0613 152.836C38.9213 152.796 38.779 152.753 38.6343 152.706C38.4897 152.66 38.3473 152.604 38.2073 152.538C38.0673 152.473 37.9425 152.388 37.8328 152.283C37.7232 152.178 37.6345 152.047 37.5668 151.891C37.5015 151.732 37.4688 151.537 37.4688 151.306C37.4688 151.122 37.505 150.942 37.5773 150.767C37.652 150.592 37.7593 150.437 37.8993 150.302C38.0393 150.167 38.212 150.058 38.4173 149.976C38.6227 149.895 38.8583 149.854 39.1243 149.854C39.423 149.854 39.6983 149.901 39.9503 149.994C40.2023 150.087 40.417 150.218 40.5943 150.386L40.3598 150.83ZM41.2161 151.32C41.2511 151.078 41.3188 150.865 41.4191 150.683C41.5195 150.499 41.6443 150.346 41.7936 150.225C41.9453 150.101 42.118 150.009 42.3116 149.948C42.5076 149.885 42.7176 149.854 42.9416 149.854C43.175 149.854 43.385 149.888 43.5716 149.955C43.7606 150.021 43.9216 150.113 44.0546 150.232C44.1876 150.349 44.2891 150.486 44.3591 150.645C44.4315 150.804 44.4676 150.975 44.4676 151.159C44.4676 151.32 44.449 151.463 44.4116 151.586C44.3766 151.708 44.3253 151.814 44.2576 151.905C44.19 151.996 44.106 152.073 44.0056 152.136C43.9053 152.199 43.7921 152.251 43.6661 152.293C43.9695 152.389 44.1958 152.535 44.3451 152.731C44.4945 152.927 44.5691 153.173 44.5691 153.469C44.5691 153.721 44.5225 153.944 44.4291 154.138C44.3358 154.332 44.2098 154.495 44.0511 154.628C43.8925 154.759 43.7081 154.858 43.4981 154.925C43.2905 154.993 43.07 155.027 42.8366 155.027C42.5823 155.027 42.3606 154.998 42.1716 154.939C41.9826 154.881 41.8181 154.795 41.6781 154.68C41.5381 154.566 41.4191 154.426 41.3211 154.26C41.2231 154.095 41.1391 153.903 41.0691 153.686L41.4506 153.529C41.551 153.487 41.6443 153.476 41.7306 153.497C41.8193 153.516 41.8835 153.563 41.9231 153.637C41.9651 153.719 42.0106 153.8 42.0596 153.879C42.111 153.958 42.1716 154.029 42.2416 154.092C42.3116 154.153 42.3933 154.203 42.4866 154.243C42.5823 154.28 42.6955 154.299 42.8261 154.299C42.9731 154.299 43.1015 154.276 43.2111 154.229C43.3208 154.18 43.4118 154.117 43.4841 154.04C43.5588 153.963 43.6136 153.878 43.6486 153.784C43.686 153.689 43.7046 153.593 43.7046 153.497C43.7046 153.376 43.6918 153.266 43.6661 153.168C43.6405 153.068 43.5868 152.983 43.5051 152.913C43.4235 152.843 43.3056 152.788 43.1516 152.748C43 152.709 42.7958 152.689 42.5391 152.689V152.073C42.7515 152.071 42.9276 152.051 43.0676 152.013C43.2076 151.976 43.3185 151.925 43.4001 151.859C43.4841 151.792 43.5425 151.711 43.5751 151.618C43.6078 151.525 43.6241 151.422 43.6241 151.31C43.6241 151.072 43.5576 150.891 43.4246 150.767C43.2916 150.644 43.1143 150.582 42.8926 150.582C42.79 150.582 42.6955 150.597 42.6091 150.627C42.5228 150.655 42.4446 150.696 42.3746 150.75C42.307 150.801 42.2498 150.862 42.2031 150.932C42.1565 151.002 42.1215 151.079 42.0981 151.163C42.0585 151.27 42.006 151.341 41.9406 151.376C41.8776 151.411 41.7878 151.42 41.6711 151.401L41.2161 151.32Z" fill="#EEEEEE"/>
</g>
<g clip-path="url(#clip3)">
<path d="M50 201H66V208H50V201Z" fill="#FF9300"/>
<path d="M58.4171 204.469C58.4171 204.84 58.3553 205.181 58.2316 205.491C58.108 205.802 57.9341 206.069 57.7101 206.293C57.4861 206.517 57.2166 206.691 56.9016 206.814C56.5866 206.938 56.2366 207 55.8516 207H53.9231V201.939H55.8516C56.2366 201.939 56.5866 202.002 56.9016 202.128C57.2166 202.252 57.4861 202.425 57.7101 202.649C57.9341 202.871 58.108 203.137 58.2316 203.447C58.3553 203.758 58.4171 204.098 58.4171 204.469ZM57.4511 204.469C57.4511 204.192 57.4138 203.943 57.3391 203.724C57.2668 203.502 57.1606 203.316 57.0206 203.164C56.883 203.01 56.715 202.892 56.5166 202.81C56.3206 202.729 56.099 202.688 55.8516 202.688H54.8681V206.251H55.8516C56.099 206.251 56.3206 206.21 56.5166 206.128C56.715 206.047 56.883 205.93 57.0206 205.778C57.1606 205.624 57.2668 205.438 57.3391 205.218C57.4138 204.997 57.4511 204.747 57.4511 204.469ZM62.2023 206.352V207H59.4023V206.352H60.4278V203.402C60.4278 203.285 60.4313 203.165 60.4383 203.041L59.7103 203.65C59.6683 203.683 59.6263 203.704 59.5843 203.713C59.5447 203.72 59.5062 203.72 59.4688 203.713C59.4338 203.706 59.4023 203.695 59.3743 203.678C59.3463 203.66 59.3253 203.64 59.3113 203.619L59.0383 203.244L60.5818 201.932H61.2923V206.352H62.2023Z" fill="#EEEEEE"/>
</g>
<g clip-path="url(#clip4)">
<path d="M67 253H83V260H67V253Z" fill="#FF9300"/>
<path d="M75.4171 256.469C75.4171 256.84 75.3553 257.181 75.2316 257.491C75.108 257.802 74.9341 258.069 74.7101 258.293C74.4861 258.517 74.2166 258.691 73.9016 258.814C73.5866 258.938 73.2366 259 72.8516 259H70.9231V253.939H72.8516C73.2366 253.939 73.5866 254.002 73.9016 254.128C74.2166 254.252 74.4861 254.425 74.7101 254.649C74.9341 254.871 75.108 255.137 75.2316 255.447C75.3553 255.758 75.4171 256.098 75.4171 256.469ZM74.4511 256.469C74.4511 256.192 74.4138 255.943 74.3391 255.724C74.2668 255.502 74.1606 255.316 74.0206 255.164C73.883 255.01 73.715 254.892 73.5166 254.81C73.3206 254.729 73.099 254.688 72.8516 254.688H71.8681V258.251H72.8516C73.099 258.251 73.3206 258.21 73.5166 258.128C73.715 258.047 73.883 257.93 74.0206 257.778C74.1606 257.624 74.2668 257.438 74.3391 257.218C74.4138 256.997 74.4511 256.747 74.4511 256.469ZM79.0133 258.195C79.1067 258.195 79.1802 258.222 79.2338 258.275C79.2898 258.327 79.3178 258.396 79.3178 258.482V259H75.8458V258.713C75.8458 258.655 75.8575 258.594 75.8808 258.531C75.9065 258.466 75.9462 258.407 75.9998 258.356L77.5363 256.816C77.6647 256.685 77.779 256.56 77.8793 256.441C77.982 256.322 78.0672 256.205 78.1348 256.088C78.2025 255.971 78.2538 255.853 78.2888 255.734C78.3262 255.613 78.3448 255.486 78.3448 255.353C78.3448 255.232 78.3273 255.125 78.2923 255.034C78.2573 254.941 78.2072 254.863 78.1418 254.8C78.0788 254.737 78.0018 254.69 77.9108 254.66C77.8222 254.627 77.7218 254.611 77.6098 254.611C77.5072 254.611 77.4115 254.626 77.3228 254.656C77.2365 254.684 77.1595 254.725 77.0918 254.779C77.0242 254.83 76.967 254.891 76.9203 254.961C76.8737 255.031 76.8387 255.108 76.8153 255.192C76.7757 255.299 76.7243 255.37 76.6613 255.405C76.5983 255.44 76.5073 255.449 76.3883 255.43L75.9333 255.349C75.9683 255.107 76.036 254.894 76.1363 254.712C76.2367 254.528 76.3615 254.375 76.5108 254.254C76.6625 254.13 76.8352 254.038 77.0288 253.977C77.2248 253.914 77.4348 253.883 77.6588 253.883C77.8922 253.883 78.1057 253.918 78.2993 253.988C78.493 254.056 78.6587 254.152 78.7963 254.278C78.934 254.404 79.0413 254.556 79.1183 254.733C79.1953 254.911 79.2338 255.108 79.2338 255.325C79.2338 255.512 79.2058 255.684 79.1498 255.843C79.0962 256.002 79.0227 256.153 78.9293 256.298C78.8383 256.443 78.731 256.583 78.6073 256.718C78.4837 256.853 78.3542 256.991 78.2188 257.131L77.0778 258.296C77.1875 258.264 77.296 258.239 77.4033 258.223C77.513 258.204 77.6168 258.195 77.7148 258.195H79.0133Z" fill="#EEEEEE"/>
</g>
<g clip-path="url(#clip5)">
<path d="M84 305H100V312H84V305Z" fill="#FF9300"/>
<path d="M90.4924 310.223V311H87.5279V305.939H88.4694V310.223H90.4924ZM90.4303 308.525H92.2433V309.246H90.4303V308.525ZM94.6306 308.347C94.8079 308.347 94.9619 308.325 95.0926 308.28C95.2256 308.236 95.3341 308.175 95.4181 308.098C95.5044 308.019 95.5686 307.926 95.6106 307.818C95.6526 307.711 95.6736 307.593 95.6736 307.465C95.6736 307.208 95.5884 307.011 95.4181 306.873C95.2501 306.736 94.9922 306.667 94.6446 306.667H94.0426V308.347H94.6306ZM97.0526 311H96.2021C96.0411 311 95.9244 310.937 95.8521 310.811L94.7881 309.19C94.7484 309.13 94.7041 309.087 94.6551 309.061C94.6084 309.035 94.5384 309.023 94.4451 309.023H94.0426V311H93.1011V305.939H94.6446C94.9876 305.939 95.2816 305.975 95.5266 306.047C95.7739 306.117 95.9757 306.217 96.1321 306.345C96.2907 306.473 96.4074 306.627 96.4821 306.807C96.5567 306.984 96.5941 307.18 96.5941 307.395C96.5941 307.565 96.5684 307.726 96.5171 307.878C96.4681 308.03 96.3957 308.167 96.3001 308.291C96.2067 308.415 96.0901 308.523 95.9501 308.616C95.8124 308.71 95.6549 308.783 95.4776 308.837C95.5382 308.872 95.5942 308.914 95.6456 308.963C95.6969 309.01 95.7436 309.066 95.7856 309.131L97.0526 311Z" fill="#EEEEEE"/>
</g>
<g clip-path="url(#clip6)">
<path d="M101 357H117V364H101V357Z" fill="#FF9300"/>
<path d="M102.726 360.347C102.903 360.347 103.057 360.325 103.188 360.28C103.321 360.236 103.43 360.175 103.514 360.098C103.6 360.019 103.664 359.926 103.706 359.818C103.748 359.711 103.769 359.593 103.769 359.465C103.769 359.208 103.684 359.011 103.514 358.873C103.346 358.736 103.088 358.667 102.74 358.667H102.138V360.347H102.726ZM105.148 363H104.298C104.137 363 104.02 362.937 103.948 362.811L102.884 361.19C102.844 361.13 102.8 361.087 102.751 361.061C102.704 361.035 102.634 361.023 102.541 361.023H102.138V363H101.197V357.939H102.74C103.083 357.939 103.377 357.975 103.622 358.047C103.869 358.117 104.071 358.217 104.228 358.345C104.386 358.473 104.503 358.627 104.578 358.807C104.652 358.984 104.69 359.18 104.69 359.395C104.69 359.565 104.664 359.726 104.613 359.878C104.564 360.03 104.491 360.167 104.396 360.291C104.302 360.415 104.186 360.523 104.046 360.616C103.908 360.71 103.75 360.783 103.573 360.837C103.634 360.872 103.69 360.914 103.741 360.963C103.792 361.01 103.839 361.066 103.881 361.131L105.148 363ZM106.535 363H105.59V357.939H106.535V363ZM111.829 357.939V363H111.346C111.272 363 111.209 362.988 111.157 362.965C111.108 362.939 111.06 362.897 111.014 362.839L108.371 359.465C108.385 359.619 108.392 359.761 108.392 359.892V363H107.563V357.939H108.056C108.096 357.939 108.13 357.941 108.158 357.946C108.188 357.948 108.214 357.955 108.235 357.967C108.258 357.976 108.28 357.991 108.301 358.012C108.322 358.031 108.346 358.057 108.371 358.089L111.024 361.477C111.017 361.396 111.011 361.315 111.007 361.236C111.002 361.157 111 361.083 111 361.015V357.939H111.829ZM117.023 360.462V362.51C116.767 362.699 116.492 362.838 116.201 362.926C115.911 363.013 115.601 363.056 115.27 363.056C114.857 363.056 114.482 362.992 114.146 362.863C113.813 362.735 113.527 362.557 113.289 362.328C113.053 362.099 112.871 361.826 112.743 361.509C112.614 361.192 112.55 360.845 112.55 360.469C112.55 360.089 112.612 359.74 112.736 359.423C112.859 359.106 113.034 358.833 113.261 358.604C113.489 358.375 113.766 358.198 114.09 358.072C114.415 357.946 114.779 357.883 115.182 357.883C115.388 357.883 115.579 357.899 115.756 357.932C115.936 357.965 116.102 358.01 116.253 358.068C116.407 358.124 116.547 358.193 116.673 358.275C116.799 358.357 116.915 358.446 117.02 358.544L116.75 358.971C116.708 359.039 116.653 359.081 116.586 359.097C116.518 359.111 116.445 359.094 116.365 359.045C116.288 359.001 116.211 358.956 116.134 358.912C116.057 358.868 115.971 358.829 115.875 358.796C115.782 358.764 115.676 358.737 115.557 358.716C115.44 358.695 115.305 358.684 115.151 358.684C114.901 358.684 114.675 358.726 114.472 358.81C114.271 358.894 114.1 359.015 113.957 359.171C113.815 359.327 113.705 359.515 113.628 359.734C113.551 359.954 113.513 360.199 113.513 360.469C113.513 360.759 113.554 361.018 113.635 361.246C113.719 361.473 113.836 361.665 113.985 361.824C114.137 361.98 114.319 362.1 114.531 362.184C114.744 362.266 114.98 362.307 115.242 362.307C115.428 362.307 115.595 362.287 115.742 362.247C115.889 362.208 116.033 362.154 116.173 362.086V361.169H115.536C115.475 361.169 115.427 361.153 115.392 361.12C115.36 361.085 115.343 361.043 115.343 360.994V360.462H117.023Z" fill="#EEEEEE"/>
</g>
<rect width="16" height="7" transform="translate(118 409)" fill="#FF9300"/>
<path fill-rule="evenodd" clip-rule="evenodd" d="M124 413V415L120 412.5L124 410V412H128V410L132 412.5L128 415V413H124Z" fill="#EEEEEE"/>
</svg>
