<svg width="94" height="45" viewBox="0 0 94 45" fill="none" xmlns="http://www.w3.org/2000/svg">
<path d="M2 4.5C2 3.39543 2.89543 2.5 4 2.5H28C29.1046 2.5 30 3.39543 30 4.5V10.5C30 11.6046 29.1046 12.5 28 12.5H4C2.89543 12.5 2 11.6046 2 10.5V4.5Z" fill="#FF9300" fill-opacity="0.5"/>
<path d="M16.2225 7.608C16.2225 8.032 16.1518 8.42533 16.0105 8.788C15.8718 9.148 15.6745 9.46 15.4185 9.724C15.1625 9.988 14.8545 10.1947 14.4945 10.344C14.1345 10.4907 13.7345 10.564 13.2945 10.564C12.8572 10.564 12.4585 10.4907 12.0985 10.344C11.7385 10.1947 11.4292 9.988 11.1705 9.724C10.9145 9.46 10.7158 9.148 10.5745 8.788C10.4332 8.42533 10.3625 8.032 10.3625 7.608C10.3625 7.184 10.4332 6.792 10.5745 6.432C10.7158 6.06933 10.9145 5.756 11.1705 5.492C11.4292 5.228 11.7385 5.02267 12.0985 4.876C12.4585 4.72667 12.8572 4.652 13.2945 4.652C13.5878 4.652 13.8638 4.68667 14.1225 4.756C14.3812 4.82267 14.6185 4.91867 14.8345 5.044C15.0505 5.16667 15.2438 5.31733 15.4145 5.496C15.5878 5.672 15.7345 5.86933 15.8545 6.088C15.9745 6.30667 16.0652 6.544 16.1265 6.8C16.1905 7.056 16.2225 7.32533 16.2225 7.608ZM15.1225 7.608C15.1225 7.29067 15.0798 7.00667 14.9945 6.756C14.9092 6.50267 14.7878 6.288 14.6305 6.112C14.4732 5.936 14.2812 5.80133 14.0545 5.708C13.8305 5.61467 13.5772 5.568 13.2945 5.568C13.0118 5.568 12.7572 5.61467 12.5305 5.708C12.3065 5.80133 12.1145 5.936 11.9545 6.112C11.7972 6.288 11.6758 6.50267 11.5905 6.756C11.5052 7.00667 11.4625 7.29067 11.4625 7.608C11.4625 7.92533 11.5052 8.21067 11.5905 8.464C11.6758 8.71467 11.7972 8.928 11.9545 9.104C12.1145 9.27733 12.3065 9.41067 12.5305 9.504C12.7572 9.59733 13.0118 9.644 13.2945 9.644C13.5772 9.644 13.8305 9.59733 14.0545 9.504C14.2812 9.41067 14.4732 9.27733 14.6305 9.104C14.7878 8.928 14.9092 8.71467 14.9945 8.464C15.0798 8.21067 15.1225 7.92533 15.1225 7.608ZM17.2526 10.5V7.14L16.8966 7.084C16.8192 7.068 16.7566 7.04133 16.7086 7.004C16.6632 6.964 16.6406 6.908 16.6406 6.836V6.432H17.2526V6.2C17.2526 5.96533 17.2872 5.75467 17.3566 5.568C17.4286 5.38133 17.5299 5.22267 17.6606 5.092C17.7939 4.96133 17.9552 4.86133 18.1446 4.792C18.3339 4.72267 18.5472 4.688 18.7846 4.688C18.9739 4.688 19.1499 4.71333 19.3126 4.764L19.2926 5.256C19.2899 5.29333 19.2792 5.324 19.2606 5.348C19.2419 5.372 19.2166 5.39067 19.1846 5.404C19.1552 5.41467 19.1206 5.42267 19.0806 5.428C19.0406 5.43067 18.9979 5.432 18.9526 5.432C18.8352 5.432 18.7299 5.44533 18.6366 5.472C18.5459 5.496 18.4686 5.54 18.4046 5.604C18.3406 5.66533 18.2912 5.748 18.2566 5.852C18.2246 5.95333 18.2086 6.08 18.2086 6.232V6.432H19.8446V6.068C19.8446 5.83333 19.8792 5.62267 19.9486 5.436C20.0206 5.24933 20.1219 5.09067 20.2526 4.96C20.3859 4.82933 20.5472 4.72933 20.7366 4.66C20.9259 4.59067 21.1392 4.556 21.3766 4.556C21.4699 4.556 21.5592 4.56267 21.6446 4.576C21.7326 4.58667 21.8192 4.604 21.9046 4.628L21.8806 5.124C21.8752 5.20133 21.8392 5.25067 21.7726 5.272C21.7086 5.29067 21.6326 5.3 21.5446 5.3C21.4272 5.3 21.3219 5.31333 21.2286 5.34C21.1379 5.364 21.0606 5.408 20.9966 5.472C20.9326 5.53333 20.8832 5.616 20.8486 5.72C20.8166 5.82133 20.8006 5.948 20.8006 6.1V6.432H21.8646V7.136H20.8326V10.5H19.8446V7.136H18.2406V10.5H17.2526Z" fill="black"/>
<path d="M33 19.5C33 18.3954 33.8954 17.5 35 17.5H59C60.1046 17.5 61 18.3954 61 19.5V25.5C61 26.6046 60.1046 27.5 59 27.5H35C33.8954 27.5 33 26.6046 33 25.5V19.5Z" fill="#FF9300" fill-opacity="0.5"/>
<path d="M47.7069 22.608C47.7069 23.032 47.6362 23.4253 47.4949 23.788C47.3562 24.148 47.1589 24.46 46.9029 24.724C46.6469 24.988 46.3389 25.1947 45.9789 25.344C45.6189 25.4907 45.2189 25.564 44.7789 25.564C44.3415 25.564 43.9429 25.4907 43.5829 25.344C43.2229 25.1947 42.9135 24.988 42.6549 24.724C42.3989 24.46 42.2002 24.148 42.0589 23.788C41.9175 23.4253 41.8469 23.032 41.8469 22.608C41.8469 22.184 41.9175 21.792 42.0589 21.432C42.2002 21.0693 42.3989 20.756 42.6549 20.492C42.9135 20.228 43.2229 20.0227 43.5829 19.876C43.9429 19.7267 44.3415 19.652 44.7789 19.652C45.0722 19.652 45.3482 19.6867 45.6069 19.756C45.8655 19.8227 46.1029 19.9187 46.3189 20.044C46.5349 20.1667 46.7282 20.3173 46.8989 20.496C47.0722 20.672 47.2189 20.8693 47.3389 21.088C47.4589 21.3067 47.5495 21.544 47.6109 21.8C47.6749 22.056 47.7069 22.3253 47.7069 22.608ZM46.6069 22.608C46.6069 22.2907 46.5642 22.0067 46.4789 21.756C46.3935 21.5027 46.2722 21.288 46.1149 21.112C45.9575 20.936 45.7655 20.8013 45.5389 20.708C45.3149 20.6147 45.0615 20.568 44.7789 20.568C44.4962 20.568 44.2415 20.6147 44.0149 20.708C43.7909 20.8013 43.5989 20.936 43.4389 21.112C43.2815 21.288 43.1602 21.5027 43.0749 21.756C42.9895 22.0067 42.9469 22.2907 42.9469 22.608C42.9469 22.9253 42.9895 23.2107 43.0749 23.464C43.1602 23.7147 43.2815 23.928 43.4389 24.104C43.5989 24.2773 43.7909 24.4107 44.0149 24.504C44.2415 24.5973 44.4962 24.644 44.7789 24.644C45.0615 24.644 45.3149 24.5973 45.5389 24.504C45.7655 24.4107 45.9575 24.2773 46.1149 24.104C46.2722 23.928 46.3935 23.7147 46.4789 23.464C46.5642 23.2107 46.6069 22.9253 46.6069 22.608ZM49.3495 21.9C49.4322 21.8173 49.5188 21.7413 49.6095 21.672C49.7028 21.6 49.8002 21.54 49.9015 21.492C50.0055 21.4413 50.1162 21.4027 50.2335 21.376C50.3508 21.3467 50.4788 21.332 50.6175 21.332C50.8415 21.332 51.0402 21.3707 51.2135 21.448C51.3868 21.5227 51.5308 21.6293 51.6455 21.768C51.7628 21.904 51.8508 22.068 51.9095 22.26C51.9708 22.4493 52.0015 22.6587 52.0015 22.888V25.5H51.0135V22.888C51.0135 22.6373 50.9562 22.444 50.8415 22.308C50.7268 22.1693 50.5522 22.1 50.3175 22.1C50.1468 22.1 49.9868 22.1387 49.8375 22.216C49.6882 22.2933 49.5468 22.3987 49.4135 22.532V25.5H48.4255V21.396H49.0295C49.1575 21.396 49.2415 21.456 49.2815 21.576L49.3495 21.9Z" fill="black"/>
<path d="M64 34.5C64 33.3954 64.8954 32.5 66 32.5H90C91.1046 32.5 92 33.3954 92 34.5V40.5C92 41.6046 91.1046 42.5 90 42.5H66C64.8954 42.5 64 41.6046 64 40.5V34.5Z" fill="#FF9300" fill-opacity="0.5"/>
<path d="M74.9042 37.6V39.94C74.6109 40.156 74.2975 40.3147 73.9642 40.416C73.6335 40.5147 73.2789 40.564 72.9002 40.564C72.4282 40.564 72.0002 40.4907 71.6162 40.344C71.2349 40.1973 70.9082 39.9933 70.6362 39.732C70.3669 39.4707 70.1589 39.1587 70.0122 38.796C69.8655 38.4333 69.7922 38.0373 69.7922 37.608C69.7922 37.1733 69.8629 36.7747 70.0042 36.412C70.1455 36.0493 70.3455 35.7373 70.6042 35.476C70.8655 35.2147 71.1815 35.012 71.5522 34.868C71.9229 34.724 72.3389 34.652 72.8002 34.652C73.0349 34.652 73.2535 34.6707 73.4562 34.708C73.6615 34.7453 73.8509 34.7973 74.0242 34.864C74.2002 34.928 74.3602 35.0067 74.5042 35.1C74.6482 35.1933 74.7802 35.296 74.9002 35.408L74.5922 35.896C74.5442 35.9733 74.4815 36.0213 74.4042 36.04C74.3269 36.056 74.2429 36.036 74.1522 35.98C74.0642 35.9293 73.9762 35.8787 73.8882 35.828C73.8002 35.7773 73.7015 35.7333 73.5922 35.696C73.4855 35.6587 73.3642 35.628 73.2282 35.604C73.0949 35.58 72.9402 35.568 72.7642 35.568C72.4789 35.568 72.2202 35.616 71.9882 35.712C71.7589 35.808 71.5629 35.9453 71.4002 36.124C71.2375 36.3027 71.1122 36.5173 71.0242 36.768C70.9362 37.0187 70.8922 37.2987 70.8922 37.608C70.8922 37.9387 70.9389 38.2347 71.0322 38.496C71.1282 38.7547 71.2615 38.9747 71.4322 39.156C71.6055 39.3347 71.8135 39.472 72.0562 39.568C72.2989 39.6613 72.5695 39.708 72.8682 39.708C73.0815 39.708 73.2722 39.6853 73.4402 39.64C73.6082 39.5947 73.7722 39.5333 73.9322 39.456V38.408H73.2042C73.1349 38.408 73.0802 38.3893 73.0402 38.352C73.0029 38.312 72.9842 38.264 72.9842 38.208V37.6H74.9042ZM77.9373 38.748C77.6519 38.7613 77.4119 38.7867 77.2173 38.824C77.0226 38.8587 76.8666 38.904 76.7493 38.96C76.6319 39.016 76.5479 39.0813 76.4973 39.156C76.4466 39.2307 76.4213 39.312 76.4213 39.4C76.4213 39.5733 76.4719 39.6973 76.5733 39.772C76.6773 39.8467 76.8119 39.884 76.9773 39.884C77.1799 39.884 77.3546 39.848 77.5013 39.776C77.6506 39.7013 77.7959 39.5893 77.9373 39.44V38.748ZM75.6733 36.968C76.1453 36.536 76.7133 36.32 77.3773 36.32C77.6173 36.32 77.8319 36.36 78.0213 36.44C78.2106 36.5173 78.3706 36.6267 78.5013 36.768C78.6319 36.9067 78.7306 37.0733 78.7973 37.268C78.8666 37.4627 78.9013 37.676 78.9013 37.908V40.5H78.4533C78.3599 40.5 78.2879 40.4867 78.2373 40.46C78.1866 40.4307 78.1466 40.3733 78.1173 40.288L78.0293 39.992C77.9253 40.0853 77.8239 40.168 77.7253 40.24C77.6266 40.3093 77.5239 40.368 77.4173 40.416C77.3106 40.464 77.1959 40.5 77.0733 40.524C76.9533 40.5507 76.8199 40.564 76.6733 40.564C76.4999 40.564 76.3399 40.5413 76.1933 40.496C76.0466 40.448 75.9199 40.3773 75.8133 40.284C75.7066 40.1907 75.6239 40.0747 75.5653 39.936C75.5066 39.7973 75.4773 39.636 75.4773 39.452C75.4773 39.348 75.4946 39.2453 75.5293 39.144C75.5639 39.04 75.6199 38.9413 75.6973 38.848C75.7773 38.7547 75.8799 38.6667 76.0053 38.584C76.1306 38.5013 76.2839 38.4293 76.4653 38.368C76.6493 38.3067 76.8626 38.2573 77.1053 38.22C77.3479 38.18 77.6253 38.156 77.9373 38.148V37.908C77.9373 37.6333 77.8786 37.4307 77.7613 37.3C77.6439 37.1667 77.4746 37.1 77.2533 37.1C77.0933 37.1 76.9599 37.1187 76.8533 37.156C76.7493 37.1933 76.6573 37.236 76.5773 37.284C76.4973 37.3293 76.4239 37.3707 76.3573 37.408C76.2933 37.4453 76.2213 37.464 76.1413 37.464C76.0719 37.464 76.0133 37.4467 75.9653 37.412C75.9173 37.3747 75.8786 37.332 75.8493 37.284L75.6733 36.968ZM81.1451 40.564C80.7877 40.564 80.5131 40.464 80.3211 40.264C80.1317 40.0613 80.0371 39.7827 80.0371 39.428V37.136H79.6171C79.5637 37.136 79.5184 37.1187 79.4811 37.084C79.4437 37.0493 79.4251 36.9973 79.4251 36.928V36.536L80.0851 36.428L80.2931 35.308C80.3064 35.2547 80.3317 35.2133 80.3691 35.184C80.4064 35.1547 80.4544 35.14 80.5131 35.14H81.0251V36.432H82.1211V37.136H81.0251V39.36C81.0251 39.488 81.0557 39.588 81.1171 39.66C81.1811 39.732 81.2677 39.768 81.3771 39.768C81.4384 39.768 81.4891 39.7613 81.5291 39.748C81.5717 39.732 81.6077 39.716 81.6371 39.7C81.6691 39.684 81.6971 39.6693 81.7211 39.656C81.7451 39.64 81.7691 39.632 81.7931 39.632C81.8224 39.632 81.8464 39.64 81.8651 39.656C81.8837 39.6693 81.9037 39.6907 81.9251 39.72L82.2211 40.2C82.0771 40.32 81.9117 40.4107 81.7251 40.472C81.5384 40.5333 81.3451 40.564 81.1451 40.564ZM85.3664 37.976C85.3664 37.848 85.3477 37.728 85.3104 37.616C85.2757 37.5013 85.2224 37.4013 85.1504 37.316C85.0784 37.2307 84.9864 37.164 84.8744 37.116C84.765 37.0653 84.637 37.04 84.4904 37.04C84.205 37.04 83.9797 37.1213 83.8144 37.284C83.6517 37.4467 83.5477 37.6773 83.5024 37.976H85.3664ZM83.4824 38.572C83.4984 38.7827 83.5357 38.9653 83.5944 39.12C83.653 39.272 83.7304 39.3987 83.8264 39.5C83.9224 39.5987 84.0357 39.6733 84.1664 39.724C84.2997 39.772 84.4464 39.796 84.6064 39.796C84.7664 39.796 84.9037 39.7773 85.0184 39.74C85.1357 39.7027 85.237 39.6613 85.3224 39.616C85.4104 39.5707 85.4864 39.5293 85.5504 39.492C85.617 39.4547 85.681 39.436 85.7424 39.436C85.825 39.436 85.8864 39.4667 85.9264 39.528L86.2104 39.888C86.101 40.016 85.9784 40.124 85.8424 40.212C85.7064 40.2973 85.5637 40.3667 85.4144 40.42C85.2677 40.4707 85.117 40.5067 84.9624 40.528C84.8104 40.5493 84.6624 40.56 84.5184 40.56C84.233 40.56 83.9677 40.5133 83.7224 40.42C83.477 40.324 83.2637 40.184 83.0824 40C82.901 39.8133 82.7584 39.584 82.6544 39.312C82.5504 39.0373 82.4984 38.72 82.4984 38.36C82.4984 38.08 82.5437 37.8173 82.6344 37.572C82.725 37.324 82.8544 37.1093 83.0224 36.928C83.193 36.744 83.3997 36.5987 83.6424 36.492C83.8877 36.3853 84.1637 36.332 84.4704 36.332C84.729 36.332 84.9677 36.3733 85.1864 36.456C85.405 36.5387 85.593 36.66 85.7504 36.82C85.9077 36.9773 86.0304 37.172 86.1184 37.404C86.209 37.6333 86.2544 37.896 86.2544 38.192C86.2544 38.3413 86.2384 38.4427 86.2064 38.496C86.1744 38.5467 86.113 38.572 86.0224 38.572H83.4824Z" fill="black"/>
</svg>
