<?xml version="1.0" encoding="utf-8"?>
<svg width="51px" height="760px" viewbox="0 0 51 760" version="1.1" xmlns:xlink="http://www.w3.org/1999/xlink" xmlns="http://www.w3.org/2000/svg">
  <defs>
    <rect width="51" height="760" id="artboard_1" />
    <clipPath id="clip_1">
      <use xlink:href="#artboard_1" clip-rule="evenodd" />
    </clipPath>
  </defs>
  <g id="hover00166" clip-path="url(#clip_1)">
    <g id="Group" transform="translate(2 2)">
      <path d="M0 2C0 0.89543 0.89543 0 2 0L20 0C21.1046 0 22 0.89543 22 2L22 10C22 11.1046 21.1046 12 20 12L2 12C0.89543 12 0 11.1046 0 10L0 2L0 2Z" id="Shape" fill="#FF9300" fill-opacity="0.5019608" fill-rule="evenodd" stroke="none" />
      <path d="M0 4.0154C0.55089 -0.470439 4.3 0.0154009 4.3 0.0154009M8.29999 4.03079C7.74909 -0.455047 3.8 0.0153933 3.8 0.0153933M8.29999 4C8.85089 8.4858 12.6951 8.0271 12.8 8.0154M16.6 4.00127C16.0491 8.48711 12.1 8.01671 12.1 8.01671" transform="translate(2.2000122 1.5)" id="Shape" fill="none" fill-rule="evenodd" stroke="#000000" stroke-width="1" stroke-linecap="round" />
    </g>
    <g id="Group" transform="translate(27 78)">
      <path d="M0 2C0 0.895401 0.895399 0 2 0L20 0C21.1046 0 22 0.895401 22 2L22 10C22 11.1046 21.1046 12 20 12L2 12C0.895399 12 0 11.1046 0 10L0 2L0 2Z" id="Shape" fill="#FF9300" fill-opacity="0.5019608" fill-rule="evenodd" stroke="none" />
      <path d="M16.3 4L12.3 8L4.3 0L0 4" transform="translate(2.199997 1.5154114)" id="Shape" fill="none" fill-rule="evenodd" stroke="#000000" stroke-width="1" stroke-linecap="round" />
    </g>
    <g id="Group" transform="translate(2 169)">
      <path d="M0 2C0 0.895004 0.89543 0 2 0L20 0C21.1046 0 22 0.895004 22 2L22 10C22 11.105 21.1046 12 20 12L2 12C0.89543 12 0 11.105 0 10L0 2L0 2Z" id="Shape" fill="#FF9300" fill-opacity="0.5019608" fill-rule="evenodd" stroke="none" />
      <path d="M8 8L16 8M0 8L0 0L0 8L0 8ZM8 0L8 8L8 0L8 0ZM16 0L16 8L16 0L16 0ZM0 0L8 0L0 0L0 0Z" transform="translate(2.5 1.5149994)" id="Shape" fill="none" fill-rule="evenodd" stroke="#000000" stroke-width="1" stroke-linecap="round" stroke-linejoin="round" />
    </g>
    <g id="Group" transform="translate(27 245)">
      <path d="M0 2C0 0.895004 0.895399 0 2 0L20 0C21.1046 0 22 0.895004 22 2L22 10C22 11.105 21.1046 12 20 12L2 12C0.895399 12 0 11.105 0 10L0 2L0 2Z" id="Shape" fill="#FF9300" fill-opacity="0.5019608" fill-rule="evenodd" stroke="none" />
      <path d="M8 0L16 8M0 8L0 0L0 8L0 8ZM8 0L8 8L8 0L8 0ZM0 0L8 8L0 0L0 0Z" transform="translate(2.5 1.5149994)" id="Shape" fill="none" fill-rule="evenodd" stroke="#000000" stroke-width="1" stroke-linecap="round" stroke-linejoin="round" />
    </g>
    <g id="Group" transform="translate(2 336)">
      <path d="M0 2C0 0.894989 0.89543 0 2 0L20 0C21.1046 0 22 0.894989 22 2L22 10C22 11.105 21.1046 12 20 12L2 12C0.89543 12 0 11.105 0 10L0 2L0 2Z" id="Shape" fill="#FF9300" fill-opacity="0.5019608" fill-rule="evenodd" stroke="none" />
      <path d="M0 4.07565C0.0432601 3.05365 0.74512 -0.503357 1 0.0756531C1.25488 0.65564 1.40018 6.00964 1.90018 7.00964C2.40018 8.00964 2.53032 3.50763 3 4.07565C3.46968 4.64465 3.31225 9.80264 3.77889 9.28363C4.24553 8.76465 4.44472 2.87762 5 2.07565C5.55528 1.27365 5.4648 6.34265 6 6.07565C6.5352 5.80963 6.6408 0.510651 7.1408 1.01065C7.6408 1.51065 7.5352 7.05963 8 8.07565C8.4648 9.09265 8.5062 4.79865 9 5.07565C9.4938 5.35364 9.5172 9.81265 10 9.07565C10.4828 8.33963 10.4312 2.88165 10.9312 2.13165C11.4312 1.38165 11.5221 6.34763 12 6.07565C12.4779 5.80365 12.3428 0.54364 12.8428 1.04364C13.3428 1.54364 13.4607 7.06763 14 8.07565C14.5393 9.08365 14.5148 5.35065 15 5.07565C15.4853 4.80063 15.4411 8.22662 15.9411 6.97662C16.441 5.72662 16.4853 0.800629 17 0.0756531C17.5147 -0.649353 18 4.07565 18 4.07565" transform="translate(1.5 1.4393616)" id="Shape" fill="none" fill-rule="evenodd" stroke="#000000" stroke-width="0.75" />
    </g>
    <g id="Group" transform="translate(27 412)">
      <path d="M0 2C0 0.894989 0.895399 0 2 0L20 0C21.1046 0 22 0.894989 22 2L22 10C22 11.105 21.1046 12 20 12L2 12C0.895399 12 0 11.105 0 10L0 2L0 2Z" id="Shape" fill="#FF9300" fill-opacity="0.5019608" fill-rule="evenodd" stroke="none" />
      <path d="M10 7L12 7M2 4L2 0L2 4L2 4ZM10 7L10 1L10 7L10 7ZM4 0L4 3L4 0L4 0ZM14 2L14 3.5L14 2L14 2ZM6 3L6 8L6 3L6 3ZM12 3.5L12 7L12 3.5L12 3.5ZM16 2L16 6L16 2L16 2ZM8 1L8 8L8 1L8 1ZM2 0L4 0L2 0L2 0ZM4 3L6 3L4 3L4 3ZM6 8L8 8L6 8L6 8ZM8 1L10 1L8 1L8 1ZM12 3.5L14 3.5L12 3.5L12 3.5ZM14 2L16 2L14 2L14 2ZM0 4L2 4L0 4L0 4ZM16 6L18 6L16 6L16 6Z" transform="translate(1.5 1.5150146)" id="Shape" fill="none" fill-rule="evenodd" stroke="#000000" stroke-width="1" stroke-linecap="round" stroke-linejoin="round" />
    </g>
    <g id="Group" transform="translate(2 503)">
      <path d="M0 2C0 0.894989 0.89543 0 2 0L20 0C21.1046 0 22 0.894989 22 2L22 10C22 11.105 21.1046 12 20 12L2 12C0.89543 12 0 11.105 0 10L0 2L0 2Z" id="Shape" fill="#FF9300" fill-opacity="0.5019608" fill-rule="evenodd" stroke="none" />
      <path d="M13 4L16 8M0 8L3 0L0 8L0 8ZM13 4L6 4L13 4L13 4ZM3 0L6 4L3 0L3 0Z" transform="translate(2.5 1.5150146)" id="Shape" fill="none" fill-rule="evenodd" stroke="#000000" stroke-width="1" stroke-linecap="round" stroke-linejoin="round" />
    </g>
    <g id="Group" transform="translate(27 579)">
      <path d="M0 2C0 0.89502 0.895399 0 2 0L20 0C21.1046 0 22 0.89502 22 2L22 10C22 11.105 21.1046 12 20 12L2 12C0.895399 12 0 11.105 0 10L0 2L0 2Z" id="Shape" fill="#FF9300" fill-opacity="0.5019608" fill-rule="evenodd" stroke="none" />
      <path d="M0 10L2 10L2 5L0 5L0 10L0 10ZM16.8 10L18.8 10L18.8 5L16.8 5L16.8 10L16.8 10ZM4.1 8L2.1 8L2.1 5L4.1 5L4.1 8L4.1 8ZM16.7 8L14.7 8L14.7 5L16.7 5L16.7 8L16.7 8ZM4.2 5.75L6.2 5.75L6.2 4.75L4.2 4.75L4.2 5.75L4.2 5.75ZM14.6 5.75L12.6 5.75L12.6 4.75L14.6 4.75L14.6 5.75L14.6 5.75ZM6.3 5L8.3 5L8.3 2L6.3 2L6.3 5L6.3 5ZM10.4 5L8.4 5L8.4 0L10.4 0L10.4 5L10.4 5ZM10.5 5L12.5 5L12.5 2L10.5 2L10.5 5L10.5 5Z" transform="translate(1.1000061 0.51501465)" id="Shape" fill="#000000" fill-rule="evenodd" stroke="none" />
    </g>
    <g id="Group" transform="translate(2 670)">
      <path d="M0 2C0 0.89502 0.89543 0 2 0L20 0C21.1046 0 22 0.89502 22 2L22 10C22 11.105 21.1046 12 20 12L2 12C0.89543 12 0 11.105 0 10L0 2L0 2Z" id="Shape" fill="#FF9300" fill-opacity="0.5019608" fill-rule="evenodd" stroke="none" />
      <path d="M0 8.00842C4.0763 8.20441 2.94979 -0.304565 6.99998 0.00842285C6.99998 0.00842285 7.70758 5.40442 11 5.50842C11 5.50842 11.4326 0.525391 16 1.00842" transform="translate(2.5000153 1.5065918)" id="Shape" fill="none" fill-rule="evenodd" stroke="#000000" stroke-width="1" stroke-linecap="round" stroke-linejoin="round" />
      <path d="M0 0.75C0 0.335999 0.33579 0 0.75 0C1.16421 0 1.5 0.335999 1.5 0.75C1.5 1.16498 1.16421 1.5 0.75 1.5C0.33579 1.5 0 1.16498 0 0.75L0 0.75Z" transform="translate(1.6500244 8.815002)" id="Shape" fill="#F1BB71" fill-rule="evenodd" stroke="none" />
      <path d="M0 0.75C0 0.335999 0.33579 0 0.75 0C1.16421 0 1.5 0.335999 1.5 0.75C1.5 1.16498 1.16421 1.5 0.75 1.5C0.33579 1.5 0 1.16498 0 0.75L0 0.75Z" transform="translate(1.6500244 8.815002)" id="Shape" fill="none" fill-rule="evenodd" stroke="#000000" stroke-width="0.4" />
      <path d="M0 0.75C0 0.335999 0.3358 0 0.75 0C1.1642 0 1.5 0.335999 1.5 0.75C1.5 1.16498 1.1642 1.5 0.75 1.5C0.3358 1.5 0 1.16498 0 0.75L0 0.75Z" transform="translate(8.649994 0.81500244)" id="Shape" fill="#F1BB71" fill-rule="evenodd" stroke="none" />
      <path d="M0 0.75C0 0.335999 0.3358 0 0.75 0C1.1642 0 1.5 0.335999 1.5 0.75C1.5 1.16498 1.1642 1.5 0.75 1.5C0.3358 1.5 0 1.16498 0 0.75L0 0.75Z" transform="translate(8.649994 0.81500244)" id="Shape" fill="none" fill-rule="evenodd" stroke="#000000" stroke-width="0.4" />
      <path d="M0 0.75C0 0.335999 0.3358 0 0.75 0C1.1642 0 1.5 0.335999 1.5 0.75C1.5 1.16504 1.1642 1.5 0.75 1.5C0.3358 1.5 0 1.16504 0 0.75L0 0.75Z" transform="translate(12.550003 6.11499)" id="Shape" fill="#F1BB71" fill-rule="evenodd" stroke="none" />
      <path d="M0 0.75C0 0.335999 0.3358 0 0.75 0C1.1642 0 1.5 0.335999 1.5 0.75C1.5 1.16504 1.1642 1.5 0.75 1.5C0.3358 1.5 0 1.16504 0 0.75L0 0.75Z" transform="translate(12.550003 6.11499)" id="Shape" fill="none" fill-rule="evenodd" stroke="#000000" stroke-width="0.4" />
      <path d="M0 0.75C0 0.335999 0.3358 0 0.75 0C1.1642 0 1.5 0.335999 1.5 0.75C1.5 1.16498 1.1642 1.5 0.75 1.5C0.3358 1.5 0 1.16498 0 0.75L0 0.75Z" transform="translate(17.850006 1.8150024)" id="Shape" fill="#F1BB71" fill-rule="evenodd" stroke="none" />
      <path d="M0 0.75C0 0.335999 0.3358 0 0.75 0C1.1642 0 1.5 0.335999 1.5 0.75C1.5 1.16498 1.1642 1.5 0.75 1.5C0.3358 1.5 0 1.16498 0 0.75L0 0.75Z" transform="translate(17.850006 1.8150024)" id="Shape" fill="none" fill-rule="evenodd" stroke="#000000" stroke-width="0.4" />
    </g>
    <g id="Group" transform="translate(27 746)">
      <path d="M0 2C0 0.89502 0.895399 0 2 0L20 0C21.1046 0 22 0.89502 22 2L22 10C22 11.105 21.1046 12 20 12L2 12C0.895399 12 0 11.105 0 10L0 2L0 2Z" id="Shape" fill="#FF9300" fill-opacity="0.5019608" fill-rule="evenodd" stroke="none" />
      <path d="M2.1885 3.12598L2.5312 1.77301L2.9443 1.77301L3.0469 1.42999L2.6221 1.42999C2.7432 0.935974 2.9033 0.575012 3.1025 0.346008C3.2236 0.203979 3.3418 0.132019 3.457 0.132019C3.4805 0.132019 3.4995 0.138977 3.5141 0.153015C3.5288 0.166992 3.5361 0.184021 3.5361 0.205994C3.5361 0.224976 3.52 0.262024 3.4878 0.317017C3.4556 0.372009 3.4394 0.422974 3.4394 0.471985C3.4394 0.541016 3.4648 0.598999 3.5156 0.64801C3.5664 0.697021 3.6309 0.721008 3.709 0.721008C3.793 0.721008 3.8633 0.690979 3.9199 0.632019C3.9766 0.572021 4.0049 0.492004 4.0049 0.390015C4.0049 0.275024 3.9624 0.180969 3.8774 0.109009C3.7925 0.0369873 3.6562 0 3.4687 0C3.1758 0 2.9101 0.0859985 2.6719 0.257996C2.4336 0.429993 2.207 0.713989 1.9922 1.11102C1.918 1.24799 1.8476 1.33502 1.7812 1.375C1.7148 1.414 1.6084 1.43201 1.4619 1.42999L1.3652 1.77301L1.7724 1.77301L1.1748 4.11401C1.0752 4.49902 1.0078 4.73602 0.972601 4.82599C0.9219 4.95697 0.8447 5.06799 0.741201 5.15997C0.700201 5.19702 0.6504 5.21503 0.591801 5.21503C0.5762 5.21503 0.5625 5.21002 0.5508 5.20099L0.5361 5.17999C0.5361 5.16998 0.5508 5.15002 0.580101 5.12C0.6094 5.09003 0.624001 5.04297 0.624001 4.98102C0.624001 4.91302 0.600601 4.85602 0.553701 4.81097C0.5068 4.76599 0.4394 4.74402 0.351601 4.74402C0.246101 4.74402 0.1611 4.77301 0.0967007 4.83197C0.0321999 4.89001 0 4.95898 0 5.03998C0 5.125 0.0391006 5.20001 0.117201 5.26398C0.195301 5.32703 0.3174 5.35901 0.4834 5.35901C0.747101 5.35901 0.9809 5.28998 1.185 5.15198C1.3891 5.01501 1.5674 4.802 1.7197 4.51501C1.8721 4.22803 2.0283 3.76501 2.1885 3.12598L2.1885 3.12598ZM17.1855 1.76697L17.6924 0L17.5166 0L16.5381 0.172974L16.5059 0.291016C16.6172 0.284973 16.7002 0.301025 16.7549 0.340027C16.794 0.367981 16.8135 0.404968 16.8135 0.452026C16.8135 0.505981 16.792 0.606995 16.749 0.752991L15.8525 3.862C16.2119 4.05103 16.5527 4.146 16.875 4.146C17.3086 4.146 17.6953 3.96301 18.0352 3.59802C18.418 3.18402 18.6094 2.71301 18.6094 2.18597C18.6094 1.96503 18.5513 1.771 18.4351 1.60199C18.3188 1.43298 18.1435 1.34802 17.9092 1.34802C17.7881 1.34802 17.6758 1.37598 17.5723 1.43201C17.4688 1.487 17.3398 1.599 17.1855 1.76697L17.1855 1.76697ZM12.6123 1.88397L14.0215 1.88397L14.0215 0.478027L14.4053 0.478027L14.4053 1.88397L15.8144 1.88397L15.8144 2.271L14.4053 2.271L14.4053 3.66602L14.0215 3.66602L14.0215 2.271L12.6123 2.271L12.6123 1.88397L12.6123 1.88397ZM9.2519 1.38898L8.6836 3.33698L8.625 3.57501C8.6191 3.604 8.6162 3.625 8.6162 3.63898C8.6162 3.66302 8.6245 3.68298 8.6411 3.70099C8.6577 3.71802 8.6748 3.72699 8.6924 3.72699C8.7334 3.72699 8.79 3.69598 8.8623 3.633C8.8916 3.60797 8.9619 3.51801 9.0732 3.36401L9.1758 3.41699C9.0371 3.66998 8.8892 3.85498 8.7319 3.97198C8.5747 4.08801 8.4053 4.146 8.2236 4.146C8.1123 4.146 8.0273 4.117 7.9687 4.06C7.9101 4.00201 7.8809 3.92902 7.8809 3.841C7.8809 3.76501 7.9121 3.62402 7.9746 3.41699L8.0449 3.17902C7.8184 3.56799 7.6006 3.84302 7.3916 4.005C7.2705 4.099 7.1416 4.146 7.0049 4.146C6.8252 4.146 6.6953 4.07202 6.6152 3.92499C6.5351 3.77698 6.4951 3.61102 6.4951 3.42499C6.4951 3.15002 6.5791 2.83398 6.7471 2.47803C6.915 2.12097 7.1357 1.83398 7.4092 1.61798C7.6338 1.43799 7.8447 1.34802 8.042 1.34802C8.1514 1.34802 8.2393 1.38 8.3057 1.44299C8.3721 1.50702 8.4209 1.62299 8.4521 1.79102L8.5576 1.42999L9.2519 1.38898L9.2519 1.38898ZM10.6728 1.34802L9.6504 1.52399L9.6299 1.63501C9.706 1.62 9.7705 1.612 9.8232 1.612C9.9248 1.612 10.0088 1.65601 10.0752 1.74402C10.1807 1.88 10.3271 2.29602 10.5146 2.992C10.3681 3.18903 10.2676 3.31799 10.2129 3.37799C10.123 3.47601 10.0488 3.53998 9.9902 3.56897C9.9453 3.59198 9.8945 3.604 9.8379 3.604C9.7949 3.604 9.7246 3.58099 9.6269 3.534C9.5605 3.50201 9.5009 3.487 9.4482 3.487C9.3486 3.487 9.2666 3.51898 9.2021 3.58398C9.1377 3.64801 9.1055 3.72998 9.1055 3.83002C9.1055 3.92297 9.1352 4 9.1948 4.05798C9.2544 4.117 9.3349 4.146 9.4365 4.146C9.5342 4.146 9.626 4.125 9.7119 4.08398C9.7978 4.04297 9.9057 3.95599 10.0356 3.82202C10.1655 3.68799 10.3447 3.47601 10.5732 3.185C10.6611 3.46198 10.7373 3.664 10.8018 3.78998C10.8662 3.91602 10.9399 4.00702 11.0229 4.06299C11.106 4.11798 11.21 4.146 11.335 4.146C11.4561 4.146 11.5791 4.10199 11.7041 4.01398C11.8682 3.901 12.0361 3.70599 12.208 3.42798L12.1025 3.367C11.9854 3.53101 11.8985 3.633 11.8418 3.67401C11.8047 3.70001 11.7607 3.71198 11.71 3.71198C11.6494 3.71198 11.5898 3.67401 11.5312 3.59802C11.4316 3.46899 11.2988 3.112 11.1328 2.526C11.2813 2.26398 11.4063 2.09302 11.5078 2.013C11.582 1.95502 11.6601 1.92499 11.7422 1.92499C11.7735 1.92499 11.8296 1.93701 11.9106 1.95898C11.9917 1.98102 12.0635 1.99298 12.126 1.99298C12.2119 1.99298 12.2837 1.96301 12.3413 1.90302C12.3989 1.84399 12.4277 1.76697 12.4277 1.67297C12.4277 1.57397 12.3989 1.495 12.3413 1.43597C12.2837 1.37701 12.2012 1.34802 12.0937 1.34802C11.998 1.34802 11.9077 1.37097 11.8227 1.41699C11.7378 1.46301 11.6299 1.56201 11.499 1.71399C11.4013 1.828 11.2568 2.026 11.0654 2.30902C10.9893 1.95898 10.8584 1.63898 10.6728 1.34802L10.6728 1.34802ZM6.3984 1.41602L3.1933 1.41602L3.1933 2.41602L6.3984 2.41602L6.3984 1.41602L6.3984 1.41602ZM8.3144 1.94598C8.3144 1.78802 8.29 1.67297 8.2412 1.60303C8.206 1.55402 8.1582 1.52997 8.0977 1.52997C8.0371 1.52997 7.9746 1.55902 7.9101 1.61798C7.7793 1.73901 7.6382 1.98401 7.4868 2.354C7.3354 2.72498 7.2598 3.04401 7.2598 3.31403C7.2598 3.41699 7.2768 3.492 7.311 3.53802C7.3452 3.58398 7.3828 3.60699 7.4238 3.60699C7.5117 3.60699 7.6006 3.55597 7.6904 3.45502C7.8193 3.31 7.9355 3.133 8.0391 2.92401C8.2227 2.55701 8.3144 2.23102 8.3144 1.94598L8.3144 1.94598ZM16.8164 3.979C16.7422 3.979 16.6592 3.95001 16.5674 3.89099L16.9658 2.51398C17.0459 2.23499 17.1201 2.052 17.1885 1.966C17.29 1.83301 17.4092 1.76697 17.5459 1.76697C17.6279 1.76697 17.7002 1.80298 17.7627 1.875C17.8252 1.948 17.8564 2.05298 17.8564 2.19202C17.8564 2.43597 17.8154 2.68097 17.7334 2.927C17.6513 3.17297 17.5493 3.383 17.4272 3.55701C17.3051 3.73102 17.1884 3.85101 17.0771 3.91699C17.0068 3.95898 16.9199 3.979 16.8164 3.979L16.8164 3.979ZM6.3984 2.37402L3.1933 2.37402L3.1933 3.37402L6.3984 3.37402L6.3984 2.37402L6.3984 2.37402Z" transform="translate(0.87109375 2.802002)" id="Shape" fill="#000000" fill-rule="evenodd" stroke="none" />
    </g>
  </g>
</svg>