<?xml version="1.0" encoding="utf-8"?>
<svg width="75px" height="39px" viewBox="0 0 75 39" version="1.1" xmlns:xlink="http://www.w3.org/1999/xlink" xmlns="http://www.w3.org/2000/svg">
  <desc>Created with Lunacy</desc>
  <defs>
    <rect width="75" height="39" id="artboard_1" />
    <clipPath id="clip_1">
      <use xlink:href="#artboard_1" clip-rule="evenodd" />
    </clipPath>
  </defs>
  <g id="hover00122" clip-path="url(#clip_1)">
    <path d="M0 0L23 0L23 11L0 11L0 0Z" transform="translate(51 27)" id="BG-3" fill="#FF9915" fill-opacity="0.4" fill-rule="evenodd" stroke="none" />
    <path d="M0 0L24 0L24 11L0 11L0 0Z" transform="translate(26 14)" id="BG-2" fill="#FF9915" fill-opacity="0.4" fill-rule="evenodd" stroke="none" />
    <path d="M0 0L24 0L24 11L0 11L0 0Z" transform="translate(1 1)" id="BG-1" fill="#FF9915" fill-opacity="0.4" fill-rule="evenodd" stroke="none" />
    <path d="M0.146999 1.4665C0.181999 1.22383 0.249664 1.01092 0.349998 0.827751C0.450333 0.644583 0.575748 0.491751 0.72625 0.369251C0.876751 0.24675 1.04942 0.154585 1.24425 0.0927505C1.43908 0.0309162 1.6485 0 1.8725 0C2.10583 0 2.31641 0.0332508 2.50425 0.0997505C2.69209 0.16625 2.8525 0.258417 2.9855 0.376251C3.1185 0.494085 3.22058 0.632334 3.29175 0.791C3.36292 0.949669 3.3985 1.12117 3.3985 1.3055C3.3985 1.4665 3.38041 1.60825 3.34425 1.73075C3.30809 1.85325 3.25617 1.96 3.1885 2.051C3.12083 2.142 3.03683 2.219 2.9365 2.282C2.83617 2.345 2.723 2.3975 2.597 2.4395C2.90033 2.53517 3.12667 2.681 3.276 2.877C3.42533 3.073 3.5 3.31916 3.5 3.6155C3.5 3.8675 3.45333 4.09033 3.36 4.284C3.26667 4.47767 3.14067 4.64042 2.982 4.77225C2.82333 4.90408 2.63958 5.00383 2.43075 5.0715C2.22192 5.13917 2.00084 5.173 1.7675 5.173C1.51316 5.173 1.2915 5.14383 1.1025 5.0855C0.913498 5.02717 0.749001 4.94083 0.609001 4.8265C0.468998 4.71217 0.349998 4.57217 0.251999 4.4065C0.153999 4.24083 0.0699997 4.0495 0 3.8325L0.3815 3.675C0.481834 3.633 0.575748 3.62192 0.66325 3.64175C0.750751 3.66158 0.814331 3.70883 0.854 3.7835C0.896 3.86517 0.942081 3.94567 0.992249 4.025C1.04242 4.10434 1.1025 4.17492 1.1725 4.23675C1.2425 4.29858 1.32475 4.34875 1.41925 4.38725C1.51375 4.42575 1.62633 4.445 1.757 4.445C1.904 4.445 2.03233 4.42109 2.142 4.37325C2.25167 4.32542 2.34325 4.263 2.41675 4.186C2.49025 4.109 2.54508 4.02325 2.58125 3.92875C2.61742 3.83425 2.6355 3.73917 2.6355 3.6435C2.6355 3.52217 2.62267 3.41192 2.597 3.31275C2.57133 3.21358 2.51767 3.129 2.436 3.059C2.35433 2.989 2.23708 2.93417 2.08425 2.8945C1.93142 2.85484 1.72667 2.835 1.47 2.835L1.47 2.219C1.68233 2.21667 1.8585 2.19683 1.9985 2.1595C2.1385 2.12217 2.24992 2.07025 2.33275 2.00375C2.41558 1.93725 2.47333 1.85733 2.506 1.764C2.53867 1.67067 2.555 1.568 2.555 1.456C2.555 1.218 2.4885 1.03717 2.3555 0.9135C2.2225 0.789833 2.04517 0.728001 1.8235 0.728001C1.72083 0.728001 1.62634 0.742584 1.54 0.771751C1.45367 0.800917 1.37608 0.841751 1.30725 0.894251C1.23841 0.946751 1.18067 1.008 1.134 1.078C1.08733 1.148 1.05233 1.225 1.029 1.309C0.989334 1.41633 0.937416 1.4875 0.873249 1.5225C0.809082 1.5575 0.718666 1.56567 0.602001 1.547L0.146999 1.4665L0.146999 1.4665Z" transform="translate(60.701 29.883)" id="3" fill="#FFFFFF" fill-rule="evenodd" stroke="none" />
    <path d="M3.1675 4.312C3.26083 4.312 3.33492 4.33825 3.38975 4.39075C3.44458 4.44325 3.472 4.51267 3.472 4.599L3.472 5.117L0 5.117L0 4.83C0 4.77167 0.012249 4.71042 0.0367508 4.64625C0.0612488 4.58208 0.100334 4.52433 0.153999 4.473L1.6905 2.933C1.81883 2.80233 1.93375 2.6775 2.03525 2.5585C2.13675 2.4395 2.22133 2.32167 2.289 2.205C2.35667 2.08833 2.40858 1.96992 2.44475 1.84975C2.48092 1.72958 2.499 1.603 2.499 1.47C2.499 1.34867 2.4815 1.24192 2.4465 1.14975C2.4115 1.05758 2.36192 0.980001 2.29775 0.917C2.23358 0.854 2.15658 0.806751 2.06675 0.775251C1.97692 0.74375 1.876 0.728001 1.764 0.728001C1.66133 0.728001 1.56625 0.742584 1.47875 0.771751C1.39125 0.800917 1.31367 0.841751 1.246 0.894251C1.17833 0.946751 1.12117 1.008 1.0745 1.078C1.02783 1.148 0.992832 1.225 0.969501 1.309C0.929832 1.41633 0.878502 1.4875 0.815498 1.5225C0.752499 1.5575 0.661499 1.56567 0.5425 1.547L0.0875015 1.4665C0.122501 1.22383 0.190166 1.01092 0.290501 0.827751C0.390835 0.644583 0.516251 0.491751 0.666748 0.369251C0.817249 0.24675 0.989914 0.154585 1.18475 0.0927505C1.37959 0.0309162 1.589 0 1.813 0C2.04633 0 2.25983 0.0344162 2.4535 0.103251C2.64717 0.172085 2.81283 0.269501 2.9505 0.3955C3.08817 0.521502 3.1955 0.673166 3.2725 0.8505C3.3495 1.02783 3.388 1.225 3.388 1.442C3.388 1.62867 3.36058 1.80133 3.30575 1.96C3.25092 2.11867 3.17742 2.27033 3.08525 2.415C2.99308 2.55967 2.88517 2.69967 2.7615 2.835C2.63783 2.97034 2.50834 3.108 2.373 3.248L1.232 4.4135C1.34167 4.38083 1.45075 4.35575 1.55925 4.33825C1.66775 4.32075 1.771 4.312 1.869 4.312L3.1675 4.312L3.1675 4.312Z" transform="translate(36.736 16.883)" id="2" fill="#FFFFFF" fill-rule="evenodd" stroke="none" />
    <path d="M3.164 4.4205L3.164 5.068L0.363999 5.068L0.363999 4.4205L1.3895 4.4205L1.3895 1.47C1.3895 1.35333 1.393 1.23317 1.4 1.1095L0.672 1.7185C0.629999 1.75117 0.588583 1.77158 0.54775 1.77975C0.506916 1.78792 0.468416 1.7885 0.43225 1.7815C0.396083 1.7745 0.364 1.76225 0.335999 1.74475C0.308 1.72725 0.287 1.708 0.273 1.687L0 1.3125L1.5435 0L2.254 0L2.254 4.4205L3.164 4.4205L3.164 4.4205Z" transform="translate(11.9285 3.932)" id="1" fill="#FFFFFF" fill-rule="evenodd" stroke="none" />
  </g>
</svg>