<svg width="18" height="288" viewBox="0 0 18 288" fill="none" xmlns="http://www.w3.org/2000/svg">
<path fill-rule="evenodd" clip-rule="evenodd" d="M3 9H15V8H3V9Z" fill="white"/>
<path d="M7.53782 27.0874C12.3895 27.1067 13.9887 30.6776 13.9916 32L15 31.9974C14.9956 30.0171 12.8547 25.8931 7.28155 26.0021H3V27.0894H7.24682C7.26152 27.089 7.27622 27.0897 7.29087 27.0894H7.53782V27.0874Z" fill="white"/>
<path fill-rule="evenodd" clip-rule="evenodd" d="M10 45H3V44H10C11.3139 44 12.5974 44.2883 13.5437 45.2492C14.4867 46.2067 15 47.736 15 50H14C14 47.864 13.5133 46.6433 12.8313 45.9508C12.1526 45.2617 11.1861 45 10 45Z" fill="white"/>
<path fill-rule="evenodd" clip-rule="evenodd" d="M9.06942 60.4795L9.42954 59.5282L12.5258 61.1864L12.1611 62.1352L9.06942 60.4795ZM8.71239 61.4226L8.27513 62.5777L11.3566 64.228L11.7994 63.076L8.71239 61.4226ZM7.51129 64.5955L7.91809 63.5209L10.9949 65.1687L10.5829 66.2405L7.51129 64.5955ZM7.15425 65.5387L6.46764 67.3524L5.53241 66.9984L9.41465 56.7429L10.3499 57.0969L9.78658 58.585L12.8875 60.2457L13.5333 58.5657L14.4667 58.9245L10.5319 69.1599L9.59854 68.8011L10.2213 67.1812L7.15425 65.5387Z" fill="white"/>
<path d="M10.4622 81.0874C5.61047 81.1067 4.01134 84.6776 4.0084 86L3 85.9974C3.0044 84.0171 5.14529 79.8931 10.7185 80.0021H15V81.0894H10.7532C10.7385 81.089 10.7238 81.0897 10.7091 81.0894H10.4622V81.0874Z" fill="white"/>
<path fill-rule="evenodd" clip-rule="evenodd" d="M8 99H15V98H8C6.68615 98 5.40257 98.2883 4.45626 99.2492C3.51326 100.207 3 101.736 3 104H4C4 101.864 4.48674 100.643 5.16874 99.9508C5.84743 99.2617 6.81385 99 8 99Z" fill="white"/>
<path fill-rule="evenodd" clip-rule="evenodd" d="M5.00577 118.855C4.25511 119.897 4 121.163 4 122H3C3 121.003 3.29489 119.519 4.19423 118.27C5.11193 116.996 6.63704 116 9 116C11.363 116 12.8881 116.996 13.8058 118.27C14.7051 119.519 15 121.003 15 122H14C14 121.163 13.7449 119.897 12.9942 118.855C12.2619 117.838 11.037 117 9 117C6.96296 117 5.73807 117.838 5.00577 118.855Z" fill="white"/>
<path fill-rule="evenodd" clip-rule="evenodd" d="M6.61327 135.697C6.00115 135.289 5.16251 135 4 135V134C5.33749 134 6.37385 134.336 7.16798 134.865C7.95897 135.393 8.48006 136.092 8.82221 136.776C8.88763 136.907 8.94669 137.038 9 137.167C9.05332 137.038 9.11237 136.907 9.17779 136.776C9.51994 136.092 10.041 135.393 10.832 134.865C11.6261 134.336 12.6625 134 14 134V135C12.8375 135 11.9989 135.289 11.3867 135.697C10.7715 136.107 10.3551 136.658 10.0722 137.224C9.78839 137.791 9.64399 138.365 9.57132 138.801C9.53519 139.018 9.51731 139.197 9.50849 139.321C9.50409 139.382 9.50197 139.43 9.50094 139.461C9.50043 139.476 9.5002 139.487 9.50009 139.494L9.5 139.499C9.49977 139.775 9.276 140 9 140C8.72412 140 8.50043 139.777 8.5 139.501C8.5 139.501 8.5 139.501 8.5 139.501L8.49991 139.494C8.4998 139.487 8.49957 139.476 8.49906 139.461C8.49803 139.43 8.49591 139.382 8.49151 139.321C8.48269 139.197 8.46481 139.018 8.42868 138.801C8.35601 138.365 8.21161 137.791 7.92779 137.224C7.64494 136.658 7.22853 136.107 6.61327 135.697Z" fill="white"/>
<path fill-rule="evenodd" clip-rule="evenodd" d="M3.92227 153.862C3.59018 153.154 3.22781 153 3 153V152C3.77219 152 4.40982 152.546 4.82773 153.438C4.88875 153.568 4.94627 153.707 5 153.857C5.05373 153.707 5.11125 153.568 5.17227 153.438C5.59018 152.546 6.22781 152 7 152C7.33749 152 7.68635 152.086 8.01172 152.303C8.33397 152.518 8.60506 152.842 8.82221 153.276C8.90504 153.442 8.98122 153.626 9.05022 153.83C9.19423 153.428 9.37873 153.048 9.61737 152.74C9.94229 152.321 10.3995 152 11 152C11.6005 152 12.0577 152.321 12.3826 152.74C12.65 153.085 12.8494 153.52 13 153.976C13.1506 153.52 13.35 153.085 13.6174 152.74C13.9423 152.321 14.3995 152 15 152V153C14.8005 153 14.6077 153.095 14.4076 153.353C14.2006 153.62 14.0224 154.02 13.8805 154.513C13.5979 155.495 13.5 156.694 13.5 157.5C13.5 157.776 13.2761 158 13 158C12.7239 158 12.5 157.776 12.5 157.5C12.5 156.694 12.4021 155.495 12.1195 154.513C11.9776 154.02 11.7994 153.62 11.5924 153.353C11.3923 153.095 11.1995 153 11 153C10.8005 153 10.6077 153.095 10.4076 153.353C10.2006 153.62 10.0224 154.02 9.88047 154.513C9.59789 155.495 9.5 156.694 9.5 157.5C9.5 157.776 9.27614 158 9 158C8.72386 158 8.5 157.776 8.5 157.5C8.5 155.526 8.25055 154.369 7.92779 153.724C7.76994 153.408 7.60353 153.232 7.45703 153.135C7.31365 153.039 7.16251 153 7 153C6.77219 153 6.40982 153.154 6.07773 153.862C5.74656 154.569 5.5 155.736 5.5 157.5C5.5 157.776 5.27614 158 5 158C4.72386 158 4.5 157.776 4.5 157.5C4.5 155.736 4.25344 154.569 3.92227 153.862Z" fill="white"/>
<path d="M5.08541 169.436C5.05041 169.492 5.01308 169.534 4.97341 169.562C4.93608 169.59 4.88708 169.604 4.82641 169.604C4.77275 169.604 4.71441 169.588 4.65141 169.555C4.59075 169.52 4.52075 169.482 4.44141 169.44C4.36441 169.398 4.27575 169.361 4.17541 169.328C4.07508 169.293 3.96075 169.275 3.83241 169.275C3.61075 169.275 3.44508 169.323 3.33541 169.419C3.22808 169.512 3.17441 169.639 3.17441 169.8C3.17441 169.903 3.20708 169.988 3.27241 170.056C3.33775 170.124 3.42291 170.182 3.52791 170.231C3.63525 170.28 3.75658 170.325 3.89191 170.367C4.02958 170.407 4.16958 170.453 4.31191 170.504C4.45425 170.553 4.59308 170.611 4.72841 170.679C4.86608 170.747 4.98741 170.833 5.09241 170.938C5.19975 171.043 5.28608 171.171 5.35141 171.323C5.41675 171.472 5.44941 171.653 5.44941 171.865C5.44941 172.101 5.40858 172.322 5.32691 172.527C5.24525 172.732 5.12625 172.912 4.96991 173.066C4.81591 173.218 4.62458 173.338 4.39591 173.426C4.16958 173.513 3.91175 173.556 3.62241 173.556C3.46375 173.556 3.30158 173.54 3.13591 173.507C2.97258 173.474 2.81391 173.429 2.65991 173.37C2.50591 173.31 2.36125 173.239 2.22591 173.157C2.09058 173.075 1.97275 172.984 1.87241 172.884L2.22241 172.331C2.25041 172.291 2.28658 172.259 2.33091 172.233C2.37758 172.205 2.42775 172.191 2.48141 172.191C2.55141 172.191 2.62141 172.213 2.69141 172.257C2.76375 172.302 2.84425 172.351 2.93291 172.404C3.02391 172.458 3.12775 172.507 3.24441 172.551C3.36108 172.596 3.49875 172.618 3.65741 172.618C3.87208 172.618 4.03891 172.571 4.15791 172.478C4.27691 172.382 4.33641 172.232 4.33641 172.026C4.33641 171.907 4.30375 171.811 4.23841 171.736C4.17308 171.661 4.08675 171.599 3.97941 171.55C3.87441 171.501 3.75425 171.458 3.61891 171.421C3.48358 171.384 3.34475 171.343 3.20241 171.298C3.06008 171.252 2.92125 171.196 2.78591 171.13C2.65058 171.063 2.52925 170.975 2.42191 170.868C2.31691 170.758 2.23175 170.623 2.16641 170.462C2.10108 170.299 2.06841 170.098 2.06841 169.86C2.06841 169.669 2.10691 169.482 2.18391 169.3C2.26091 169.118 2.37408 168.956 2.52341 168.813C2.67275 168.671 2.85591 168.558 3.07291 168.474C3.28991 168.388 3.53841 168.344 3.81841 168.344C3.97475 168.344 4.12641 168.357 4.27341 168.383C4.42275 168.406 4.56391 168.442 4.69691 168.491C4.82991 168.538 4.95358 168.595 5.06791 168.663C5.18458 168.728 5.28841 168.803 5.37941 168.887L5.08541 169.436ZM7.31639 171.239C7.18806 171.346 7.09706 171.462 7.04339 171.585C6.98972 171.707 6.96289 171.836 6.96289 171.974C6.96289 172.086 6.97922 172.187 7.01189 172.278C7.04689 172.369 7.09589 172.448 7.15889 172.513C7.22189 172.578 7.29656 172.63 7.38289 172.667C7.47156 172.702 7.56956 172.719 7.67689 172.719C7.83322 172.719 7.97906 172.7 8.11439 172.66C8.24972 172.618 8.37572 172.56 8.49239 172.485L7.31639 171.239ZM10.8059 173.5H9.73489C9.68122 173.5 9.63339 173.498 9.59139 173.493C9.54939 173.486 9.50972 173.475 9.47239 173.461C9.43739 173.447 9.40356 173.428 9.37089 173.402C9.33822 173.376 9.30322 173.344 9.26589 173.304L9.04539 173.073C8.82372 173.227 8.58106 173.346 8.31739 173.43C8.05606 173.514 7.77722 173.556 7.48089 173.556C7.27789 173.556 7.07839 173.521 6.88239 173.451C6.68872 173.381 6.51606 173.282 6.36439 173.153C6.21272 173.023 6.09022 172.865 5.99689 172.681C5.90356 172.497 5.85689 172.29 5.85689 172.061C5.85689 171.907 5.88022 171.762 5.92689 171.624C5.97589 171.486 6.04356 171.359 6.12989 171.242C6.21856 171.123 6.32239 171.016 6.44139 170.92C6.56039 170.822 6.69222 170.737 6.83689 170.665C6.72489 170.495 6.64439 170.328 6.59539 170.164C6.54639 170.001 6.52189 169.842 6.52189 169.688C6.52189 169.506 6.55456 169.335 6.61989 169.174C6.68756 169.011 6.78439 168.868 6.91039 168.747C7.03872 168.623 7.19506 168.525 7.37939 168.453C7.56606 168.381 7.77956 168.344 8.01989 168.344C8.24622 168.344 8.44572 168.378 8.61839 168.446C8.79106 168.511 8.93689 168.599 9.05589 168.708C9.17489 168.816 9.26822 168.941 9.33589 169.083C9.40356 169.225 9.44556 169.371 9.46189 169.52L8.76189 169.66C8.63822 169.688 8.54722 169.639 8.48889 169.513C8.43522 169.392 8.37222 169.3 8.29989 169.237C8.22989 169.174 8.13656 169.142 8.01989 169.142C7.93822 169.142 7.86706 169.158 7.80639 169.188C7.74572 169.218 7.69439 169.258 7.65239 169.307C7.61272 169.356 7.58239 169.413 7.56139 169.478C7.54039 169.544 7.52989 169.611 7.52989 169.681C7.52989 169.742 7.53456 169.8 7.54389 169.856C7.55556 169.91 7.57422 169.966 7.59989 170.024C7.62556 170.08 7.65939 170.139 7.70139 170.199C7.74572 170.26 7.80056 170.327 7.86589 170.399L9.12589 171.725C9.18889 171.588 9.24022 171.443 9.27989 171.291C9.31956 171.137 9.34522 170.98 9.35689 170.819C9.36389 170.754 9.38606 170.702 9.42339 170.665C9.46072 170.628 9.51089 170.609 9.57389 170.609H10.2599C10.2599 170.947 10.2144 171.265 10.1234 171.561C10.0324 171.857 9.90406 172.128 9.73839 172.373L10.8059 173.5ZM15.7297 168.4V173.5H14.5397V171.344H12.4677V173.5H11.2777V168.4H12.4677V170.532H14.5397V168.4H15.7297Z" fill="white"/>
<path fill-rule="evenodd" clip-rule="evenodd" d="M9.0914 186.479L9.45151 185.528L12.5478 187.186L12.1831 188.135L9.0914 186.479ZM8.73436 187.423L8.2971 188.578L11.3785 190.228L11.8214 189.076L8.73436 187.423ZM7.53326 190.595L7.94006 189.521L11.0169 191.169L10.6049 192.241L7.53326 190.595ZM7.17622 191.539L6.48961 193.352L5.55438 192.998L9.43662 182.743L10.3719 183.097L9.80855 184.585L12.9094 186.246L13.5553 184.566L14.4887 184.925L10.5539 195.16L9.62051 194.801L10.2432 193.181L7.17622 191.539Z" fill="white"/>
<path d="M6.76416 182.885L5.30416 186.5H4.69666L3.23666 182.885H3.77666C3.83499 182.885 3.88249 182.899 3.91916 182.927C3.95583 182.956 3.98333 182.992 4.00166 183.037L4.85416 185.242C4.88249 185.314 4.90916 185.393 4.93416 185.48C4.96083 185.565 4.98583 185.654 5.00916 185.747C5.02916 185.654 5.05083 185.565 5.07416 185.48C5.09749 185.393 5.12333 185.314 5.15166 185.242L5.99916 183.037C6.01249 182.999 6.03833 182.964 6.07666 182.932C6.11666 182.901 6.16499 182.885 6.22166 182.885H6.76416Z" fill="white"/>
<path fill-rule="evenodd" clip-rule="evenodd" d="M6.61327 207.697C6.00115 207.289 5.16251 207 4 207V206C5.33749 206 6.37385 206.336 7.16798 206.865C7.95897 207.393 8.48006 208.092 8.82221 208.776C8.88763 208.907 8.94669 209.038 9 209.167C9.05332 209.038 9.11237 208.907 9.17779 208.776C9.51994 208.092 10.041 207.393 10.832 206.865C11.6261 206.336 12.6625 206 14 206V207C12.8375 207 11.9989 207.289 11.3867 207.697C10.7715 208.107 10.3551 208.658 10.0722 209.224C9.78839 209.791 9.64399 210.365 9.57132 210.801C9.53519 211.018 9.51731 211.197 9.50849 211.321C9.50409 211.382 9.50197 211.43 9.50094 211.461C9.50043 211.476 9.5002 211.487 9.50009 211.494L9.5 211.499L9.5 211.5L9.5 211.5C9.5 211.501 9.5 211.501 9.5 211.501L9.5 211.501L9.5 211.5C9.49977 211.776 9.276 212 9 212C8.72412 212 8.50043 211.777 8.5 211.501L8.5 211.501C8.5 211.501 8.5 211.501 8.5 211.5L8.49991 211.494C8.4998 211.487 8.49957 211.476 8.49906 211.461C8.49803 211.43 8.49591 211.382 8.49151 211.321C8.48269 211.197 8.46481 211.018 8.42868 210.801C8.35601 210.365 8.21161 209.791 7.92779 209.224C7.64494 208.658 7.22853 208.107 6.61327 207.697Z" fill="white"/>
<path d="M10.4622 207.087C5.61047 207.107 4.01134 210.678 4.0084 212L3 211.997C3.0044 210.017 5.14529 205.893 10.7185 206.002H15V207.089H10.7532C10.7385 207.089 10.7238 207.09 10.7091 207.089H10.4622V207.087Z" fill="#FF9300"/>
<path d="M7.53782 207.087C12.3895 207.107 13.9887 210.678 13.9916 212L15 211.997C14.9956 210.017 12.8547 205.893 7.28155 206.002H3V207.089H7.24682C7.26152 207.089 7.27622 207.09 7.29087 207.089H7.53782V207.087Z" fill="#5DACF8"/>
<path d="M5.29629 203.192C5.29629 203.457 5.25212 203.703 5.16379 203.93C5.07712 204.155 4.95379 204.35 4.79379 204.515C4.63379 204.68 4.44129 204.809 4.21629 204.902C3.99129 204.994 3.74129 205.04 3.46629 205.04C3.19296 205.04 2.94379 204.994 2.71879 204.902C2.49379 204.809 2.30046 204.68 2.13879 204.515C1.97879 204.35 1.85462 204.155 1.76629 203.93C1.67796 203.703 1.63379 203.457 1.63379 203.192C1.63379 202.927 1.67796 202.682 1.76629 202.457C1.85462 202.231 1.97879 202.035 2.13879 201.87C2.30046 201.705 2.49379 201.577 2.71879 201.485C2.94379 201.392 3.19296 201.345 3.46629 201.345C3.64962 201.345 3.82212 201.367 3.98379 201.41C4.14546 201.452 4.29379 201.512 4.42879 201.59C4.56379 201.667 4.68462 201.761 4.79129 201.872C4.89962 201.982 4.99129 202.106 5.06629 202.242C5.14129 202.379 5.19796 202.527 5.23629 202.687C5.27629 202.847 5.29629 203.016 5.29629 203.192ZM4.60879 203.192C4.60879 202.994 4.58212 202.817 4.52879 202.66C4.47546 202.502 4.39962 202.367 4.30129 202.257C4.20296 202.147 4.08296 202.063 3.94129 202.005C3.80129 201.947 3.64296 201.917 3.46629 201.917C3.28962 201.917 3.13046 201.947 2.98879 202.005C2.84879 202.063 2.72879 202.147 2.62879 202.257C2.53046 202.367 2.45462 202.502 2.40129 202.66C2.34796 202.817 2.32129 202.994 2.32129 203.192C2.32129 203.391 2.34796 203.569 2.40129 203.727C2.45462 203.884 2.53046 204.017 2.62879 204.127C2.72879 204.236 2.84879 204.319 2.98879 204.377C3.13046 204.436 3.28962 204.465 3.46629 204.465C3.64296 204.465 3.80129 204.436 3.94129 204.377C4.08296 204.319 4.20296 204.236 4.30129 204.127C4.39962 204.017 4.47546 203.884 4.52879 203.727C4.58212 203.569 4.60879 203.391 4.60879 203.192ZM7.23938 204.475C7.36438 204.475 7.46938 204.46 7.55438 204.43C7.63938 204.4 7.70688 204.36 7.75688 204.31C7.80854 204.26 7.84521 204.202 7.86688 204.135C7.89021 204.068 7.90188 203.997 7.90188 203.922C7.90188 203.844 7.88938 203.774 7.86438 203.712C7.83938 203.649 7.80021 203.596 7.74688 203.552C7.69354 203.507 7.62438 203.473 7.53938 203.45C7.45604 203.427 7.35521 203.415 7.23688 203.415H6.55938V204.475H7.23938ZM6.55938 201.905V202.95H7.09438C7.32438 202.95 7.49771 202.908 7.61438 202.825C7.73271 202.742 7.79188 202.609 7.79188 202.427C7.79188 202.239 7.73854 202.105 7.63188 202.025C7.52521 201.945 7.35854 201.905 7.13188 201.905H6.55938ZM7.13188 201.385C7.36854 201.385 7.57104 201.407 7.73938 201.452C7.90771 201.497 8.04521 201.562 8.15188 201.645C8.26021 201.728 8.33938 201.829 8.38938 201.947C8.43938 202.066 8.46438 202.199 8.46438 202.347C8.46438 202.432 8.45188 202.514 8.42688 202.592C8.40188 202.669 8.36271 202.742 8.30937 202.81C8.25771 202.877 8.19104 202.937 8.10938 202.992C8.02938 203.047 7.93354 203.094 7.82188 203.132C8.31854 203.244 8.56688 203.512 8.56688 203.937C8.56688 204.091 8.53771 204.232 8.47938 204.362C8.42104 204.492 8.33604 204.605 8.22438 204.7C8.11271 204.793 7.97521 204.867 7.81188 204.92C7.64854 204.973 7.46188 205 7.25188 205H5.88688V201.385H7.13188ZM9.06039 203.232H10.3554V203.747H9.06039V203.232ZM13.8634 205H13.1934C13.1468 205 13.1093 204.988 13.0809 204.965C13.0543 204.942 13.0326 204.915 13.0159 204.885L12.1784 203.497C12.1651 203.539 12.1493 203.575 12.1309 203.605L11.3284 204.885C11.3084 204.913 11.2851 204.94 11.2584 204.965C11.2334 204.988 11.2001 205 11.1584 205H10.5309L11.7309 203.14L10.5784 201.385H11.2484C11.2951 201.385 11.3284 201.392 11.3484 201.405C11.3701 201.417 11.3901 201.437 11.4084 201.465L12.2309 202.79C12.2476 202.748 12.2676 202.707 12.2909 202.665L13.0459 201.477C13.0643 201.446 13.0843 201.422 13.1059 201.407C13.1276 201.392 13.1551 201.385 13.1884 201.385H13.8309L12.6684 203.112L13.8634 205ZM15.6318 203.09C15.5618 203.005 15.4851 202.945 15.4018 202.91C15.3201 202.875 15.2318 202.857 15.1368 202.857C15.0435 202.857 14.9593 202.875 14.8843 202.91C14.8093 202.945 14.7451 202.998 14.6918 203.07C14.6385 203.14 14.5976 203.23 14.5693 203.34C14.541 203.448 14.5268 203.577 14.5268 203.725C14.5268 203.875 14.5385 204.002 14.5618 204.107C14.5868 204.211 14.6218 204.296 14.6668 204.362C14.7118 204.427 14.7668 204.475 14.8318 204.505C14.8968 204.533 14.9693 204.547 15.0493 204.547C15.1776 204.547 15.2868 204.521 15.3768 204.467C15.4668 204.414 15.5518 204.338 15.6318 204.24V203.09ZM16.2493 201.285V205H15.8718C15.7901 205 15.7385 204.962 15.7168 204.887L15.6643 204.64C15.561 204.758 15.4418 204.854 15.3068 204.927C15.1735 205.001 15.0176 205.038 14.8393 205.038C14.6993 205.038 14.571 205.008 14.4543 204.95C14.3376 204.892 14.2368 204.807 14.1518 204.697C14.0685 204.586 14.0035 204.448 13.9568 204.285C13.9118 204.122 13.8893 203.935 13.8893 203.725C13.8893 203.535 13.9151 203.358 13.9668 203.195C14.0185 203.032 14.0926 202.89 14.1893 202.77C14.286 202.65 14.4018 202.557 14.5368 202.49C14.6718 202.422 14.8235 202.387 14.9918 202.387C15.1351 202.387 15.2576 202.41 15.3593 202.455C15.461 202.5 15.5518 202.561 15.6318 202.637V201.285H16.2493Z" fill="white"/>
<path fill-rule="evenodd" clip-rule="evenodd" d="M10 225H3V224H10C11.3139 224 12.5974 224.288 13.5437 225.249C14.4867 226.207 15 227.736 15 230H14C14 227.864 13.5133 226.643 12.8313 225.951C12.1526 225.262 11.1861 225 10 225Z" fill="white"/>
<path d="M5.29629 221.192C5.29629 221.457 5.25212 221.703 5.16379 221.93C5.07712 222.155 4.95379 222.35 4.79379 222.515C4.63379 222.68 4.44129 222.809 4.21629 222.902C3.99129 222.994 3.74129 223.04 3.46629 223.04C3.19296 223.04 2.94379 222.994 2.71879 222.902C2.49379 222.809 2.30046 222.68 2.13879 222.515C1.97879 222.35 1.85462 222.155 1.76629 221.93C1.67796 221.703 1.63379 221.457 1.63379 221.192C1.63379 220.927 1.67796 220.682 1.76629 220.457C1.85462 220.231 1.97879 220.035 2.13879 219.87C2.30046 219.705 2.49379 219.577 2.71879 219.485C2.94379 219.392 3.19296 219.345 3.46629 219.345C3.64962 219.345 3.82212 219.367 3.98379 219.41C4.14546 219.452 4.29379 219.512 4.42879 219.59C4.56379 219.667 4.68462 219.761 4.79129 219.872C4.89962 219.982 4.99129 220.106 5.06629 220.242C5.14129 220.379 5.19796 220.527 5.23629 220.687C5.27629 220.847 5.29629 221.016 5.29629 221.192ZM4.60879 221.192C4.60879 220.994 4.58212 220.817 4.52879 220.66C4.47546 220.502 4.39962 220.367 4.30129 220.257C4.20296 220.147 4.08296 220.063 3.94129 220.005C3.80129 219.947 3.64296 219.917 3.46629 219.917C3.28962 219.917 3.13046 219.947 2.98879 220.005C2.84879 220.063 2.72879 220.147 2.62879 220.257C2.53046 220.367 2.45462 220.502 2.40129 220.66C2.34796 220.817 2.32129 220.994 2.32129 221.192C2.32129 221.391 2.34796 221.569 2.40129 221.727C2.45462 221.884 2.53046 222.017 2.62879 222.127C2.72879 222.236 2.84879 222.319 2.98879 222.377C3.13046 222.436 3.28962 222.465 3.46629 222.465C3.64296 222.465 3.80129 222.436 3.94129 222.377C4.08296 222.319 4.20296 222.236 4.30129 222.127C4.39962 222.017 4.47546 221.884 4.52879 221.727C4.58212 221.569 4.60879 221.391 4.60879 221.192ZM7.23938 222.475C7.36438 222.475 7.46938 222.46 7.55438 222.43C7.63938 222.4 7.70688 222.36 7.75688 222.31C7.80854 222.26 7.84521 222.202 7.86688 222.135C7.89021 222.068 7.90188 221.997 7.90188 221.922C7.90188 221.844 7.88938 221.774 7.86438 221.712C7.83938 221.649 7.80021 221.596 7.74688 221.552C7.69354 221.507 7.62438 221.473 7.53938 221.45C7.45604 221.427 7.35521 221.415 7.23688 221.415H6.55938V222.475H7.23938ZM6.55938 219.905V220.95H7.09438C7.32438 220.95 7.49771 220.908 7.61438 220.825C7.73271 220.742 7.79188 220.609 7.79188 220.427C7.79188 220.239 7.73854 220.105 7.63188 220.025C7.52521 219.945 7.35854 219.905 7.13188 219.905H6.55938ZM7.13188 219.385C7.36854 219.385 7.57104 219.407 7.73938 219.452C7.90771 219.497 8.04521 219.562 8.15188 219.645C8.26021 219.728 8.33938 219.829 8.38938 219.947C8.43938 220.066 8.46438 220.199 8.46438 220.347C8.46438 220.432 8.45188 220.514 8.42688 220.592C8.40188 220.669 8.36271 220.742 8.30937 220.81C8.25771 220.877 8.19104 220.937 8.10938 220.992C8.02938 221.047 7.93354 221.094 7.82188 221.132C8.31854 221.244 8.56688 221.512 8.56688 221.937C8.56688 222.091 8.53771 222.232 8.47938 222.362C8.42104 222.492 8.33604 222.605 8.22438 222.7C8.11271 222.793 7.97521 222.867 7.81188 222.92C7.64854 222.973 7.46188 223 7.25188 223H5.88688V219.385H7.13188ZM9.06039 221.232H10.3554V221.747H9.06039V221.232ZM13.8634 223H13.1934C13.1468 223 13.1093 222.988 13.0809 222.965C13.0543 222.942 13.0326 222.915 13.0159 222.885L12.1784 221.497C12.1651 221.539 12.1493 221.575 12.1309 221.605L11.3284 222.885C11.3084 222.913 11.2851 222.94 11.2584 222.965C11.2334 222.988 11.2001 223 11.1584 223H10.5309L11.7309 221.14L10.5784 219.385H11.2484C11.2951 219.385 11.3284 219.392 11.3484 219.405C11.3701 219.417 11.3901 219.437 11.4084 219.465L12.2309 220.79C12.2476 220.748 12.2676 220.707 12.2909 220.665L13.0459 219.477C13.0643 219.446 13.0843 219.422 13.1059 219.407C13.1276 219.392 13.1551 219.385 13.1884 219.385H13.8309L12.6684 221.112L13.8634 223ZM15.6318 221.09C15.5618 221.005 15.4851 220.945 15.4018 220.91C15.3201 220.875 15.2318 220.857 15.1368 220.857C15.0435 220.857 14.9593 220.875 14.8843 220.91C14.8093 220.945 14.7451 220.998 14.6918 221.07C14.6385 221.14 14.5976 221.23 14.5693 221.34C14.541 221.448 14.5268 221.577 14.5268 221.725C14.5268 221.875 14.5385 222.002 14.5618 222.107C14.5868 222.211 14.6218 222.296 14.6668 222.362C14.7118 222.427 14.7668 222.475 14.8318 222.505C14.8968 222.533 14.9693 222.547 15.0493 222.547C15.1776 222.547 15.2868 222.521 15.3768 222.467C15.4668 222.414 15.5518 222.338 15.6318 222.24V221.09ZM16.2493 219.285V223H15.8718C15.7901 223 15.7385 222.962 15.7168 222.887L15.6643 222.64C15.561 222.758 15.4418 222.854 15.3068 222.927C15.1735 223.001 15.0176 223.038 14.8393 223.038C14.6993 223.038 14.571 223.008 14.4543 222.95C14.3376 222.892 14.2368 222.807 14.1518 222.697C14.0685 222.586 14.0035 222.448 13.9568 222.285C13.9118 222.122 13.8893 221.935 13.8893 221.725C13.8893 221.535 13.9151 221.358 13.9668 221.195C14.0185 221.032 14.0926 220.89 14.1893 220.77C14.286 220.65 14.4018 220.557 14.5368 220.49C14.6718 220.422 14.8235 220.387 14.9918 220.387C15.1351 220.387 15.2576 220.41 15.3593 220.455C15.461 220.5 15.5518 220.561 15.6318 220.637V219.285H16.2493Z" fill="white"/>
<path d="M7.53782 243.087C12.3895 243.107 13.9887 246.678 13.9916 248L15 247.997C14.9956 246.017 12.8547 241.893 7.28155 242.002H3V243.089H7.24682C7.26152 243.089 7.27622 243.09 7.29087 243.089H7.53782V243.087Z" fill="white"/>
<path d="M8.24156 238.042C8.22156 238.077 8.1999 238.103 8.17656 238.12C8.1549 238.135 8.1274 238.142 8.09406 238.142C8.05906 238.142 8.02073 238.13 7.97906 238.105C7.93906 238.078 7.89073 238.049 7.83406 238.017C7.7774 237.986 7.71073 237.957 7.63406 237.932C7.55906 237.906 7.4699 237.892 7.36656 237.892C7.27323 237.892 7.19156 237.904 7.12156 237.927C7.05156 237.949 6.9924 237.98 6.94406 238.02C6.8974 238.06 6.8624 238.108 6.83906 238.165C6.81573 238.22 6.80406 238.281 6.80406 238.347C6.80406 238.432 6.8274 238.503 6.87406 238.56C6.9224 238.617 6.98573 238.665 7.06406 238.705C7.1424 238.745 7.23156 238.781 7.33156 238.812C7.43156 238.844 7.53406 238.878 7.63906 238.915C7.74406 238.95 7.84656 238.992 7.94656 239.04C8.04656 239.087 8.13573 239.147 8.21406 239.22C8.2924 239.292 8.3549 239.38 8.40156 239.485C8.4499 239.59 8.47406 239.717 8.47406 239.867C8.47406 240.031 8.44573 240.184 8.38906 240.327C8.33406 240.469 8.2524 240.593 8.14406 240.7C8.0374 240.805 7.90656 240.888 7.75156 240.95C7.59656 241.01 7.41906 241.04 7.21906 241.04C7.10406 241.04 6.99073 241.028 6.87906 241.005C6.7674 240.983 6.6599 240.952 6.55656 240.91C6.4549 240.868 6.35906 240.818 6.26906 240.76C6.17906 240.702 6.09906 240.637 6.02906 240.565L6.22656 240.242C6.24323 240.219 6.2649 240.2 6.29156 240.185C6.31823 240.168 6.34656 240.16 6.37656 240.16C6.41823 240.16 6.46323 240.177 6.51156 240.212C6.5599 240.246 6.6174 240.283 6.68406 240.325C6.75073 240.367 6.82823 240.405 6.91656 240.44C7.00656 240.473 7.11406 240.49 7.23906 240.49C7.43073 240.49 7.57906 240.445 7.68406 240.355C7.78906 240.263 7.84156 240.132 7.84156 239.962C7.84156 239.867 7.8174 239.79 7.76906 239.73C7.7224 239.67 7.6599 239.62 7.58156 239.58C7.50323 239.538 7.41406 239.503 7.31406 239.475C7.21406 239.447 7.1124 239.416 7.00906 239.382C6.90573 239.349 6.80406 239.309 6.70406 239.262C6.60406 239.216 6.5149 239.155 6.43656 239.08C6.35823 239.005 6.2949 238.912 6.24656 238.8C6.1999 238.687 6.17656 238.547 6.17656 238.382C6.17656 238.251 6.2024 238.122 6.25406 237.997C6.3074 237.872 6.38406 237.762 6.48406 237.665C6.58406 237.568 6.7074 237.491 6.85406 237.432C7.00073 237.374 7.16906 237.345 7.35906 237.345C7.5724 237.345 7.76906 237.378 7.94906 237.445C8.12906 237.512 8.2824 237.605 8.40906 237.725L8.24156 238.042ZM9.7332 238.9H9.8907C9.95404 238.9 10.0065 238.892 10.0482 238.875C10.0899 238.857 10.1257 238.828 10.1557 238.79L11.1532 237.527C11.1949 237.474 11.2382 237.437 11.2832 237.417C11.3299 237.396 11.3882 237.385 11.4582 237.385H12.0382L10.8207 238.887C10.749 238.979 10.6749 239.044 10.5982 239.082C10.6532 239.102 10.7024 239.131 10.7457 239.167C10.7907 239.202 10.8332 239.249 10.8732 239.307L12.1282 241H11.5357C11.4557 241 11.3957 240.989 11.3557 240.967C11.3174 240.944 11.2849 240.911 11.2582 240.867L10.2357 239.532C10.204 239.487 10.1674 239.456 10.1257 239.438C10.084 239.419 10.024 239.41 9.9457 239.41H9.7332V241H9.0607V237.385H9.7332V238.9Z" fill="white"/>
<path d="M10.4622 261.087C5.61047 261.107 4.01134 264.678 4.0084 266L3 265.997C3.0044 264.017 5.14529 259.893 10.7185 260.002H15V261.089H10.7532C10.7385 261.089 10.7238 261.09 10.7091 261.089H10.4622V261.087Z" fill="white"/>
<path d="M8.24156 256.042C8.22156 256.077 8.1999 256.103 8.17656 256.12C8.1549 256.135 8.1274 256.142 8.09406 256.142C8.05906 256.142 8.02073 256.13 7.97906 256.105C7.93906 256.078 7.89073 256.049 7.83406 256.017C7.7774 255.986 7.71073 255.957 7.63406 255.932C7.55906 255.906 7.4699 255.892 7.36656 255.892C7.27323 255.892 7.19156 255.904 7.12156 255.927C7.05156 255.949 6.9924 255.98 6.94406 256.02C6.8974 256.06 6.8624 256.108 6.83906 256.165C6.81573 256.22 6.80406 256.281 6.80406 256.347C6.80406 256.432 6.8274 256.503 6.87406 256.56C6.9224 256.617 6.98573 256.665 7.06406 256.705C7.1424 256.745 7.23156 256.781 7.33156 256.812C7.43156 256.844 7.53406 256.878 7.63906 256.915C7.74406 256.95 7.84656 256.992 7.94656 257.04C8.04656 257.087 8.13573 257.147 8.21406 257.22C8.2924 257.292 8.3549 257.38 8.40156 257.485C8.4499 257.59 8.47406 257.717 8.47406 257.867C8.47406 258.031 8.44573 258.184 8.38906 258.327C8.33406 258.469 8.2524 258.593 8.14406 258.7C8.0374 258.805 7.90656 258.888 7.75156 258.95C7.59656 259.01 7.41906 259.04 7.21906 259.04C7.10406 259.04 6.99073 259.028 6.87906 259.005C6.7674 258.983 6.6599 258.952 6.55656 258.91C6.4549 258.868 6.35906 258.818 6.26906 258.76C6.17906 258.702 6.09906 258.637 6.02906 258.565L6.22656 258.242C6.24323 258.219 6.2649 258.2 6.29156 258.185C6.31823 258.168 6.34656 258.16 6.37656 258.16C6.41823 258.16 6.46323 258.177 6.51156 258.212C6.5599 258.246 6.6174 258.283 6.68406 258.325C6.75073 258.367 6.82823 258.405 6.91656 258.44C7.00656 258.473 7.11406 258.49 7.23906 258.49C7.43073 258.49 7.57906 258.445 7.68406 258.355C7.78906 258.263 7.84156 258.132 7.84156 257.962C7.84156 257.867 7.8174 257.79 7.76906 257.73C7.7224 257.67 7.6599 257.62 7.58156 257.58C7.50323 257.538 7.41406 257.503 7.31406 257.475C7.21406 257.447 7.1124 257.416 7.00906 257.382C6.90573 257.349 6.80406 257.309 6.70406 257.262C6.60406 257.216 6.5149 257.155 6.43656 257.08C6.35823 257.005 6.2949 256.912 6.24656 256.8C6.1999 256.687 6.17656 256.547 6.17656 256.382C6.17656 256.251 6.2024 256.122 6.25406 255.997C6.3074 255.872 6.38406 255.762 6.48406 255.665C6.58406 255.568 6.7074 255.491 6.85406 255.432C7.00073 255.374 7.16906 255.345 7.35906 255.345C7.5724 255.345 7.76906 255.378 7.94906 255.445C8.12906 255.512 8.2824 255.605 8.40906 255.725L8.24156 256.042ZM9.7332 256.9H9.8907C9.95404 256.9 10.0065 256.892 10.0482 256.875C10.0899 256.857 10.1257 256.828 10.1557 256.79L11.1532 255.527C11.1949 255.474 11.2382 255.437 11.2832 255.417C11.3299 255.396 11.3882 255.385 11.4582 255.385H12.0382L10.8207 256.887C10.749 256.979 10.6749 257.044 10.5982 257.082C10.6532 257.102 10.7024 257.131 10.7457 257.167C10.7907 257.202 10.8332 257.249 10.8732 257.307L12.1282 259H11.5357C11.4557 259 11.3957 258.989 11.3557 258.967C11.3174 258.944 11.2849 258.911 11.2582 258.867L10.2357 257.532C10.204 257.487 10.1674 257.456 10.1257 257.438C10.084 257.419 10.024 257.41 9.9457 257.41H9.7332V259H9.0607V255.385H9.7332V256.9Z" fill="white"/>
<path fill-rule="evenodd" clip-rule="evenodd" d="M9.0914 276.479L9.45151 275.528L12.5478 277.186L12.1831 278.135L9.0914 276.479ZM8.73436 277.423L8.2971 278.578L11.3785 280.228L11.8214 279.076L8.73436 277.423ZM7.53326 280.595L7.94006 279.521L11.0169 281.169L10.6049 282.241L7.53326 280.595ZM7.17622 281.539L6.48961 283.352L5.55438 282.998L9.43662 272.743L10.3719 273.097L9.80855 274.585L12.9094 276.246L13.5553 274.566L14.4887 274.925L10.5539 285.16L9.62051 284.801L10.2432 283.181L7.17622 281.539Z" fill="white"/>
<path d="M6.71064 274.692C6.71064 274.957 6.66648 275.201 6.57814 275.422C6.48981 275.644 6.36564 275.835 6.20564 275.995C6.04564 276.155 5.85314 276.279 5.62814 276.367C5.40314 276.456 5.15314 276.5 4.87814 276.5H3.50064V272.885H4.87814C5.15314 272.885 5.40314 272.93 5.62814 273.02C5.85314 273.108 6.04564 273.232 6.20564 273.392C6.36564 273.551 6.48981 273.741 6.57814 273.962C6.66648 274.184 6.71064 274.427 6.71064 274.692ZM6.02064 274.692C6.02064 274.494 5.99398 274.317 5.94064 274.16C5.88898 274.002 5.81314 273.868 5.71314 273.76C5.61481 273.65 5.49481 273.566 5.35314 273.507C5.21314 273.449 5.05481 273.42 4.87814 273.42H4.17564V275.965H4.87814C5.05481 275.965 5.21314 275.936 5.35314 275.877C5.49481 275.819 5.61481 275.736 5.71314 275.627C5.81314 275.517 5.88898 275.384 5.94064 275.227C5.99398 275.069 6.02064 274.891 6.02064 274.692Z" fill="white"/>
</svg>
