<?xml version="1.0" encoding="utf-8"?>
<svg width="134px" height="208px" version="1.1" viewBox="0 0 134 208" xmlns="http://www.w3.org/2000/svg">
  <title>bmp00151</title>
  <desc>Created with Sketch.</desc>
  <g>
    <rect id="Rectangle" y="45" width="32" height="7" fill="#2F1C04" x="1" fill-rule="evenodd"/>
    <rect x="100" y="201" width="32" height="7" fill="#2F1C04" fill-rule="evenodd"/>
    <rect x="67" y="149" width="32" height="7" fill="#2F1C04" fill-rule="evenodd"/>
    <rect x="34" y="97" width="32" height="7" fill="#2F1C04" fill-rule="evenodd"/>
    <polygon points="51.5 99 54 102 49 102" fill="#FFFFFF" fill-rule="evenodd" transform="matrix(0, 1, -1, 0, 152, 49)"/>
    <polygon points="78.5 151 81 154 76 154" fill="#FFFFFF" fill-rule="evenodd" transform="matrix(0, 1, -1, 0, 231, 74)"/>
    <polygon points="89.5 151 92 154 87 154" fill="#FFFFFF" fill-rule="evenodd" transform="matrix(0, 1, -1, 0, 242, 63)"/>
    <polygon points="111.5 203 114 206 109 206" fill="#FFFFFF" fill-rule="evenodd" transform="matrix(0, 1, -1, 0, 316, 93)"/>
    <polygon points="120.5 206 123 203 118 203" fill="#FFFFFF" fill-rule="evenodd" transform="matrix(0, 1, -1, 0, 325, 84)"/>
    <path id="NOFM" d="M 10.883 45.922 L 10.883 51 L 10.34 51 C 10.258 51 10.19 50.987 10.134 50.96 C 10.077 50.933 10.023 50.887 9.969 50.822 L 7.439 47.601 C 7.446 47.683 7.451 47.764 7.454 47.843 C 7.458 47.922 7.46 47.996 7.46 48.063 L 7.46 51 L 6.532 51 L 6.532 45.921 L 7.085 45.921 C 7.129 45.921 7.167 45.923 7.199 45.927 C 7.23 45.93 7.259 45.938 7.285 45.951 C 7.31 45.964 7.335 45.981 7.358 46.002 C 7.381 46.023 7.407 46.051 7.435 46.086 L 9.983 49.32 C 9.974 49.231 9.967 49.146 9.962 49.063 C 9.957 48.98 9.955 48.901 9.955 48.827 L 9.955 45.921 L 10.883 45.921 Z M 16.854 48.459 C 16.854 48.83 16.791 49.174 16.666 49.492 C 16.541 49.809 16.365 50.083 16.138 50.314 C 15.91 50.545 15.637 50.726 15.317 50.858 C 14.997 50.99 14.643 51.056 14.253 51.056 C 13.863 51.056 13.509 50.99 13.189 50.858 C 12.869 50.726 12.595 50.545 12.367 50.314 C 12.138 50.083 11.961 49.809 11.836 49.492 C 11.711 49.174 11.649 48.83 11.649 48.459 C 11.649 48.088 11.711 47.744 11.836 47.428 C 11.961 47.112 12.138 46.838 12.367 46.607 C 12.595 46.376 12.869 46.195 13.189 46.063 C 13.509 45.931 13.863 45.865 14.253 45.865 C 14.643 45.865 14.997 45.931 15.317 46.063 C 15.637 46.195 15.91 46.377 16.138 46.609 C 16.365 46.841 16.541 47.116 16.666 47.432 C 16.791 47.748 16.854 48.09 16.854 48.459 Z M 15.779 48.459 C 15.779 48.193 15.744 47.954 15.674 47.743 C 15.604 47.532 15.503 47.352 15.371 47.204 C 15.239 47.056 15.08 46.943 14.892 46.865 C 14.704 46.787 14.491 46.748 14.253 46.748 C 14.015 46.748 13.802 46.787 13.613 46.865 C 13.424 46.943 13.263 47.056 13.131 47.204 C 12.999 47.352 12.898 47.532 12.829 47.743 C 12.759 47.954 12.724 48.193 12.724 48.459 C 12.724 48.727 12.759 48.967 12.829 49.178 C 12.899 49.389 12.999 49.569 13.131 49.716 C 13.263 49.863 13.424 49.975 13.613 50.053 C 13.802 50.131 14.015 50.171 14.253 50.171 C 14.491 50.171 14.704 50.131 14.892 50.053 C 15.08 49.975 15.239 49.863 15.371 49.716 C 15.503 49.569 15.604 49.389 15.674 49.178 C 15.744 48.967 15.779 48.727 15.779 48.459 Z M 20.343 46.744 L 20.343 48.148 L 22.17 48.148 L 22.17 48.974 L 20.343 48.974 L 20.343 51 L 19.286 51 L 19.286 45.922 L 22.52 45.922 L 22.52 46.744 L 20.343 46.744 Z M 28.848 45.922 L 28.848 51 L 27.921 51 L 27.921 47.882 C 27.921 47.816 27.922 47.746 27.926 47.672 C 27.929 47.597 27.936 47.521 27.945 47.444 L 26.493 50.199 C 26.413 50.35 26.291 50.426 26.125 50.426 L 25.978 50.426 C 25.896 50.426 25.824 50.407 25.761 50.368 C 25.698 50.33 25.648 50.273 25.611 50.199 L 24.151 47.434 C 24.158 47.515 24.164 47.594 24.169 47.67 C 24.173 47.746 24.176 47.816 24.176 47.882 L 24.176 51 L 23.248 51 L 23.248 45.922 L 24.046 45.922 C 24.09 45.922 24.13 45.923 24.165 45.925 C 24.2 45.927 24.231 45.934 24.258 45.944 C 24.285 45.955 24.309 45.971 24.331 45.993 C 24.353 46.015 24.375 46.046 24.396 46.086 L 25.817 48.795 C 25.861 48.877 25.903 48.961 25.941 49.047 C 25.98 49.133 26.017 49.222 26.052 49.313 C 26.087 49.22 26.123 49.129 26.162 49.04 C 26.2 48.951 26.242 48.866 26.286 48.785 L 27.697 46.086 C 27.718 46.046 27.74 46.015 27.763 45.993 C 27.786 45.971 27.811 45.955 27.838 45.944 C 27.865 45.934 27.895 45.927 27.929 45.925 C 27.963 45.923 28.003 45.922 28.05 45.922 L 28.848 45.922 Z" fill="#FFFFFF" fill-rule="nonzero"/>
    <path d="M 47.434 102.195 C 47.527 102.195 47.601 102.221 47.656 102.274 C 47.711 102.326 47.739 102.396 47.739 102.482 L 47.739 103 L 44.267 103 L 44.267 102.713 C 44.267 102.655 44.279 102.593 44.303 102.529 C 44.328 102.465 44.367 102.407 44.421 102.356 L 45.957 100.816 C 46.085 100.685 46.2 100.561 46.302 100.442 C 46.403 100.323 46.488 100.205 46.555 100.088 C 46.623 99.971 46.675 99.853 46.711 99.733 C 46.747 99.613 46.765 99.486 46.765 99.353 C 46.765 99.232 46.748 99.125 46.713 99.033 C 46.678 98.941 46.628 98.863 46.564 98.8 C 46.5 98.737 46.423 98.69 46.333 98.658 C 46.243 98.627 46.142 98.611 46.03 98.611 C 45.928 98.611 45.833 98.626 45.745 98.655 C 45.658 98.684 45.58 98.725 45.512 98.777 C 45.445 98.83 45.388 98.891 45.341 98.961 C 45.294 99.031 45.259 99.108 45.236 99.192 C 45.196 99.299 45.145 99.371 45.082 99.406 C 45.019 99.441 44.928 99.449 44.809 99.43 L 44.354 99.35 C 44.389 99.107 44.457 98.894 44.557 98.711 C 44.657 98.528 44.783 98.375 44.933 98.252 C 45.084 98.13 45.256 98.038 45.451 97.976 C 45.646 97.914 45.855 97.883 46.079 97.883 C 46.313 97.883 46.526 97.917 46.72 97.986 C 46.914 98.055 47.079 98.153 47.217 98.279 C 47.355 98.404 47.462 98.556 47.539 98.733 C 47.616 98.911 47.654 99.108 47.654 99.325 C 47.654 99.512 47.627 99.684 47.572 99.843 C 47.517 100.002 47.444 100.153 47.352 100.298 C 47.26 100.443 47.152 100.583 47.028 100.718 C 46.904 100.853 46.775 100.991 46.639 101.131 L 45.498 102.297 C 45.608 102.264 45.717 102.239 45.826 102.221 C 45.934 102.204 46.037 102.195 46.135 102.195 L 47.434 102.195 Z" fill="#FFFFFF" fill-rule="nonzero"/>
    <path d="M 58.622 102.352 L 58.622 103 L 55.822 103 L 55.822 102.352 L 56.848 102.352 L 56.848 99.402 C 56.848 99.285 56.851 99.165 56.858 99.041 L 56.13 99.65 C 56.088 99.683 56.047 99.703 56.006 99.711 C 55.965 99.719 55.926 99.72 55.89 99.713 C 55.854 99.706 55.822 99.694 55.794 99.676 C 55.766 99.659 55.745 99.64 55.731 99.619 L 55.458 99.244 L 57.002 97.932 L 57.712 97.932 L 57.712 102.352 L 58.622 102.352 Z" fill="#FFFFFF" fill-rule="nonzero"/>
    <path d="M 85.426 154.114 C 85.531 154.114 85.613 154.143 85.673 154.202 C 85.732 154.26 85.762 154.337 85.762 154.433 L 85.762 155 L 82.241 155 L 82.241 154.685 C 82.241 154.624 82.254 154.558 82.28 154.487 C 82.305 154.416 82.348 154.351 82.409 154.293 L 83.914 152.784 C 84.042 152.656 84.156 152.533 84.254 152.415 C 84.352 152.297 84.433 152.181 84.499 152.068 C 84.564 151.955 84.613 151.84 84.646 151.724 C 84.678 151.607 84.695 151.484 84.695 151.356 C 84.695 151.13 84.636 150.958 84.52 150.84 C 84.403 150.722 84.238 150.663 84.026 150.663 C 83.933 150.663 83.847 150.676 83.769 150.703 C 83.691 150.73 83.621 150.767 83.559 150.814 C 83.497 150.86 83.444 150.915 83.4 150.978 C 83.355 151.041 83.323 151.11 83.302 151.185 C 83.26 151.301 83.203 151.379 83.132 151.417 C 83.061 151.456 82.96 151.465 82.829 151.444 L 82.318 151.353 C 82.355 151.105 82.425 150.888 82.528 150.702 C 82.631 150.515 82.759 150.36 82.913 150.236 C 83.067 150.112 83.243 150.02 83.442 149.958 C 83.64 149.896 83.853 149.865 84.082 149.865 C 84.322 149.865 84.541 149.901 84.738 149.972 C 84.935 150.043 85.104 150.142 85.244 150.269 C 85.384 150.396 85.493 150.55 85.57 150.73 C 85.647 150.909 85.685 151.108 85.685 151.325 C 85.685 151.511 85.658 151.684 85.605 151.843 C 85.551 152.001 85.478 152.152 85.386 152.296 C 85.294 152.439 85.187 152.579 85.066 152.714 C 84.944 152.849 84.816 152.986 84.681 153.124 L 83.603 154.226 C 83.722 154.191 83.839 154.164 83.956 154.144 C 84.073 154.124 84.182 154.114 84.285 154.114 L 85.426 154.114 Z" fill="#FFFFFF" fill-rule="nonzero"/>
    <path d="M 71.346 151.353 C 71.383 151.106 71.453 150.889 71.556 150.702 C 71.659 150.515 71.787 150.36 71.941 150.237 C 72.095 150.113 72.271 150.02 72.468 149.958 C 72.665 149.896 72.878 149.866 73.107 149.866 C 73.349 149.866 73.567 149.9 73.759 149.969 C 73.952 150.038 74.115 150.132 74.248 150.251 C 74.381 150.37 74.483 150.508 74.554 150.667 C 74.625 150.826 74.661 150.996 74.661 151.178 C 74.661 151.339 74.644 151.481 74.61 151.603 C 74.576 151.726 74.526 151.833 74.459 151.924 C 74.393 152.015 74.311 152.092 74.214 152.155 C 74.117 152.218 74.006 152.27 73.88 152.312 C 74.463 152.503 74.755 152.892 74.755 153.478 C 74.755 153.737 74.707 153.965 74.612 154.162 C 74.516 154.359 74.388 154.524 74.227 154.657 C 74.066 154.79 73.878 154.89 73.665 154.956 C 73.451 155.023 73.228 155.056 72.995 155.056 C 72.747 155.056 72.529 155.028 72.34 154.972 C 72.151 154.916 71.985 154.832 71.841 154.72 C 71.698 154.608 71.575 154.467 71.472 154.298 C 71.369 154.129 71.28 153.931 71.203 153.705 L 71.63 153.53 C 71.742 153.483 71.846 153.471 71.943 153.492 C 72.04 153.513 72.109 153.564 72.151 153.646 C 72.198 153.734 72.247 153.816 72.3 153.891 C 72.352 153.965 72.411 154.03 72.477 154.085 C 72.542 154.14 72.616 154.182 72.699 154.213 C 72.782 154.243 72.877 154.258 72.984 154.258 C 73.119 154.258 73.237 154.236 73.338 154.192 C 73.438 154.147 73.522 154.089 73.59 154.018 C 73.657 153.947 73.708 153.867 73.742 153.777 C 73.776 153.687 73.793 153.598 73.793 153.509 C 73.793 153.392 73.782 153.287 73.761 153.192 C 73.74 153.098 73.692 153.017 73.616 152.951 C 73.54 152.884 73.428 152.833 73.28 152.797 C 73.132 152.761 72.93 152.743 72.676 152.743 L 72.676 152.064 C 72.888 152.064 73.062 152.046 73.198 152.011 C 73.333 151.976 73.439 151.927 73.516 151.864 C 73.593 151.801 73.646 151.725 73.675 151.637 C 73.704 151.548 73.719 151.451 73.719 151.346 C 73.719 151.124 73.661 150.955 73.546 150.839 C 73.43 150.722 73.266 150.664 73.054 150.664 C 72.961 150.664 72.875 150.677 72.797 150.704 C 72.719 150.731 72.649 150.767 72.587 150.814 C 72.525 150.861 72.472 150.916 72.428 150.979 C 72.383 151.042 72.351 151.11 72.33 151.185 C 72.285 151.302 72.228 151.379 72.158 151.418 C 72.088 151.456 71.987 151.465 71.854 151.444 L 71.346 151.353 Z" fill="#FFFFFF" fill-rule="nonzero"/>
    <path d="M 95.647 154.29 L 95.647 155.001 L 92.798 155.001 L 92.798 154.29 L 93.806 154.29 L 93.806 151.511 C 93.806 151.45 93.807 151.389 93.81 151.326 C 93.812 151.263 93.815 151.198 93.82 151.133 L 93.155 151.686 C 93.108 151.721 93.063 151.743 93.018 151.753 C 92.974 151.762 92.932 151.762 92.892 151.754 C 92.853 151.746 92.818 151.732 92.787 151.712 C 92.757 151.692 92.734 151.672 92.717 151.651 L 92.413 151.242 L 93.974 149.919 L 94.768 149.919 L 94.768 154.29 L 95.647 154.29 Z" fill="#FFFFFF" fill-rule="nonzero"/>
    <path d="M 107.43 206.114 C 107.535 206.114 107.617 206.143 107.677 206.202 C 107.736 206.26 107.766 206.337 107.766 206.433 L 107.766 207 L 104.245 207 L 104.245 206.685 C 104.245 206.624 104.258 206.558 104.284 206.487 C 104.309 206.416 104.352 206.351 104.413 206.293 L 105.918 204.784 C 106.046 204.656 106.16 204.533 106.258 204.415 C 106.356 204.297 106.437 204.181 106.503 204.068 C 106.568 203.955 106.617 203.84 106.65 203.724 C 106.682 203.607 106.699 203.484 106.699 203.356 C 106.699 203.13 106.64 202.958 106.524 202.84 C 106.407 202.722 106.242 202.663 106.03 202.663 C 105.937 202.663 105.851 202.676 105.773 202.703 C 105.695 202.73 105.625 202.767 105.563 202.814 C 105.501 202.86 105.448 202.915 105.404 202.978 C 105.359 203.041 105.327 203.11 105.306 203.185 C 105.264 203.301 105.207 203.379 105.136 203.417 C 105.065 203.456 104.964 203.465 104.833 203.444 L 104.322 203.353 C 104.359 203.105 104.429 202.888 104.532 202.702 C 104.635 202.515 104.763 202.36 104.917 202.236 C 105.071 202.112 105.247 202.02 105.446 201.958 C 105.644 201.896 105.857 201.865 106.086 201.865 C 106.326 201.865 106.545 201.901 106.742 201.972 C 106.939 202.043 107.108 202.142 107.248 202.269 C 107.388 202.396 107.497 202.55 107.574 202.73 C 107.651 202.909 107.689 203.108 107.689 203.325 C 107.689 203.511 107.662 203.684 107.609 203.843 C 107.555 204.001 107.482 204.152 107.39 204.296 C 107.298 204.439 107.191 204.579 107.07 204.714 C 106.948 204.849 106.82 204.986 106.685 205.124 L 105.607 206.226 C 105.726 206.191 105.843 206.164 105.96 206.144 C 106.077 206.124 106.186 206.114 106.289 206.114 L 107.43 206.114 Z" fill="#FFFFFF" fill-rule="nonzero"/>
    <path d="M 124.35 203.353 C 124.387 203.106 124.457 202.889 124.56 202.702 C 124.663 202.515 124.791 202.36 124.945 202.237 C 125.099 202.113 125.275 202.02 125.472 201.958 C 125.669 201.896 125.882 201.866 126.111 201.866 C 126.353 201.866 126.571 201.9 126.763 201.969 C 126.956 202.038 127.119 202.132 127.252 202.251 C 127.384 202.37 127.487 202.508 127.558 202.667 C 127.629 202.826 127.665 202.996 127.665 203.178 C 127.665 203.339 127.648 203.481 127.614 203.603 C 127.58 203.726 127.53 203.833 127.463 203.924 C 127.397 204.015 127.315 204.092 127.218 204.155 C 127.121 204.218 127.01 204.27 126.884 204.312 C 127.467 204.503 127.759 204.892 127.759 205.478 C 127.759 205.737 127.711 205.965 127.616 206.162 C 127.52 206.359 127.392 206.524 127.231 206.657 C 127.07 206.79 126.882 206.89 126.669 206.956 C 126.455 207.023 126.232 207.056 125.999 207.056 C 125.751 207.056 125.533 207.028 125.344 206.972 C 125.155 206.916 124.989 206.832 124.845 206.72 C 124.702 206.608 124.579 206.467 124.476 206.298 C 124.373 206.129 124.284 205.931 124.207 205.705 L 124.634 205.53 C 124.746 205.483 124.85 205.471 124.947 205.492 C 125.044 205.513 125.113 205.564 125.155 205.646 C 125.202 205.734 125.251 205.816 125.304 205.891 C 125.356 205.965 125.415 206.03 125.481 206.085 C 125.546 206.14 125.62 206.182 125.703 206.213 C 125.786 206.243 125.881 206.258 125.988 206.258 C 126.123 206.258 126.241 206.236 126.342 206.192 C 126.442 206.147 126.526 206.089 126.594 206.018 C 126.661 205.947 126.712 205.867 126.746 205.777 C 126.78 205.687 126.797 205.598 126.797 205.509 C 126.797 205.392 126.786 205.287 126.765 205.192 C 126.744 205.098 126.696 205.017 126.62 204.951 C 126.544 204.884 126.432 204.833 126.284 204.797 C 126.136 204.761 125.934 204.743 125.68 204.743 L 125.68 204.064 C 125.892 204.064 126.066 204.046 126.202 204.011 C 126.337 203.976 126.443 203.927 126.52 203.864 C 126.597 203.801 126.65 203.725 126.679 203.637 C 126.708 203.548 126.723 203.451 126.723 203.346 C 126.723 203.124 126.665 202.955 126.55 202.839 C 126.434 202.722 126.27 202.664 126.058 202.664 C 125.965 202.664 125.879 202.677 125.801 202.704 C 125.723 202.731 125.653 202.767 125.591 202.814 C 125.529 202.861 125.476 202.916 125.432 202.979 C 125.387 203.042 125.355 203.11 125.334 203.185 C 125.289 203.302 125.232 203.379 125.162 203.418 C 125.092 203.456 124.991 203.465 124.858 203.444 L 124.35 203.353 Z" fill="#FFFFFF" fill-rule="nonzero"/>
    <path d="M 117.65 206.29 L 117.65 207.001 L 114.801 207.001 L 114.801 206.29 L 115.809 206.29 L 115.809 203.511 C 115.809 203.45 115.81 203.389 115.813 203.326 C 115.815 203.263 115.818 203.198 115.823 203.133 L 115.158 203.686 C 115.111 203.721 115.066 203.743 115.021 203.753 C 114.977 203.762 114.935 203.762 114.895 203.754 C 114.856 203.746 114.821 203.732 114.79 203.712 C 114.76 203.692 114.737 203.672 114.72 203.651 L 114.416 203.242 L 115.977 201.919 L 116.771 201.919 L 116.771 206.29 L 117.65 206.29 Z" fill="#FFFFFF" fill-rule="nonzero"/>
  </g>
</svg>
