<?xml version="1.0" encoding="utf-8"?>
<svg width="94px" height="42px" viewbox="0 0 94 42" version="1.1" xmlns:xlink="http://www.w3.org/1999/xlink" xmlns="http://www.w3.org/2000/svg">
  <defs>
    <rect width="94" height="42" id="artboard_1" />
    <clipPath id="clip_1">
      <use xlink:href="#artboard_1" clip-rule="evenodd" />
    </clipPath>
  </defs>
  <g id="hover00305" clip-path="url(#clip_1)">
    <path d="M0 3C0 1.34315 1.34315 0 3 0L25 0C26.6569 0 28 1.34315 28 3L28 7C28 8.6569 26.6569 10 25 10L3 10C1.34315 10 0 8.6569 0 7L0 3L0 3Z" transform="translate(2 2)" id="Shape" fill="#FF9300" fill-opacity="0.49803922" fill-rule="evenodd" stroke="none" />
    <path d="M5.86 3.052C5.86 3.476 5.7893 3.86933 5.648 4.232C5.5093 4.592 5.312 4.904 5.056 5.168C4.8 5.432 4.492 5.6387 4.132 5.788C3.772 5.9347 3.372 6.008 2.932 6.008C2.4947 6.008 2.096 5.9347 1.736 5.788C1.376 5.6387 1.0667 5.432 0.807999 5.168C0.552 4.904 0.3533 4.592 0.212 4.232C0.0706996 3.86933 0 3.476 0 3.052C0 2.628 0.0706996 2.236 0.212 1.876C0.3533 1.51333 0.552 1.2 0.807999 0.936C1.0667 0.672 1.376 0.46667 1.736 0.32C2.096 0.17067 2.4947 0.0959997 2.932 0.0959997C3.2253 0.0959997 3.5013 0.13067 3.76 0.2C4.0187 0.26667 4.256 0.36267 4.472 0.488C4.688 0.61067 4.8813 0.76133 5.052 0.94C5.2253 1.116 5.372 1.31333 5.492 1.532C5.612 1.75067 5.7027 1.988 5.764 2.244C5.828 2.5 5.86 2.76933 5.86 3.052L5.86 3.052ZM4.76 3.052C4.76 2.73467 4.7173 2.45067 4.632 2.2C4.5467 1.94667 4.4253 1.732 4.268 1.556C4.1107 1.38 3.91871 1.24533 3.692 1.152C3.468 1.05867 3.21471 1.012 2.93201 1.012C2.64931 1.012 2.39471 1.05867 2.16801 1.152C1.94401 1.24533 1.75201 1.38 1.59201 1.556C1.43471 1.732 1.31331 1.94667 1.22801 2.2C1.14271 2.45067 1.10001 2.73467 1.10001 3.052C1.10001 3.36933 1.14271 3.65467 1.22801 3.908C1.31331 4.15867 1.43471 4.372 1.59201 4.548C1.75201 4.72133 1.94401 4.85467 2.16801 4.948C2.39471 5.04133 2.64931 5.088 2.93201 5.088C3.21471 5.088 3.468 5.04133 3.692 4.948C3.91871 4.85467 4.1107 4.72133 4.268 4.548C4.4253 4.372 4.5467 4.15867 4.632 3.908C4.7173 3.65467 4.76 3.36933 4.76 3.052L4.76 3.052ZM6.89011 5.944L6.89011 2.584L6.53411 2.528C6.45671 2.512 6.39411 2.48533 6.34611 2.448C6.30071 2.408 6.27811 2.352 6.27811 2.28L6.27811 1.876L6.89011 1.876L6.89011 1.644C6.89011 1.40933 6.92471 1.19867 6.99411 1.012C7.06611 0.82533 7.16741 0.66667 7.29811 0.536C7.43141 0.40533 7.59271 0.30533 7.78211 0.236C7.97141 0.16667 8.1847 0.132 8.4221 0.132C8.6114 0.132 8.78741 0.15733 8.9501 0.208L8.93011 0.7C8.9274 0.73733 8.9167 0.768 8.8981 0.792C8.8794 0.816 8.8541 0.83467 8.82211 0.848C8.7927 0.85867 8.7581 0.86667 8.71811 0.872C8.6781 0.87467 8.6354 0.876 8.59011 0.876C8.4727 0.876 8.36741 0.88933 8.27411 0.916C8.18341 0.94 8.1061 0.984 8.04211 1.048C7.9781 1.10933 7.92871 1.192 7.8941 1.296C7.86211 1.39733 7.8461 1.524 7.8461 1.676L7.8461 1.876L9.48211 1.876L9.48211 1.512C9.48211 1.27733 9.5167 1.06667 9.58611 0.88C9.6581 0.69333 9.75941 0.53467 9.8901 0.404C10.0234 0.27333 10.1847 0.17333 10.3741 0.104C10.5634 0.0346699 10.7767 0 11.0141 0C11.1074 0 11.1967 0.00667 11.2821 0.02C11.3701 0.0306697 11.4567 0.0479999 11.5421 0.0719995L11.5181 0.568C11.5127 0.64533 11.4767 0.69467 11.4101 0.716C11.3461 0.73467 11.2701 0.744 11.1821 0.744C11.0647 0.744 10.9594 0.75733 10.8661 0.784C10.7754 0.808 10.6981 0.852 10.6341 0.916C10.5701 0.97733 10.5207 1.06 10.4861 1.164C10.4541 1.26533 10.4381 1.392 10.4381 1.544L10.4381 1.876L11.5021 1.876L11.5021 2.58L10.4701 2.58L10.4701 5.944L9.48211 5.944L9.48211 2.58L7.87811 2.58L7.87811 5.944L6.89011 5.944L6.89011 5.944Z" transform="translate(10.362488 4)" id="Shape" fill="#000000" fill-rule="evenodd" stroke="none" />
    <path d="M0 3C0 1.3431 1.3431 0 3 0L25 0C26.6569 0 28 1.3431 28 3L28 7C28 8.6569 26.6569 10 25 10L3 10C1.3431 10 0 8.6569 0 7L0 3L0 3Z" transform="translate(33 16)" id="Shape" fill="#FF9300" fill-opacity="0.49803922" fill-rule="evenodd" stroke="none" />
    <path d="M5.85999 2.956C5.85999 3.38 5.78929 3.7733 5.64799 4.136C5.50929 4.496 5.31199 4.808 5.05599 5.072C4.79999 5.336 4.49199 5.5427 4.13199 5.692C3.77199 5.8387 3.37199 5.912 2.93199 5.912C2.49459 5.912 2.096 5.8387 1.736 5.692C1.376 5.5427 1.0666 5.336 0.807997 5.072C0.551997 4.808 0.353298 4.496 0.211998 4.136C0.0705985 3.7733 0 3.38 0 2.956C0 2.532 0.0705985 2.14 0.211998 1.78C0.353298 1.4173 0.551997 1.104 0.807997 0.84C1.0666 0.576 1.376 0.370699 1.736 0.223999C2.096 0.0746994 2.49459 0 2.93199 0C3.2253 0 3.5013 0.0347004 3.75999 0.104C4.01859 0.1707 4.25599 0.266699 4.47199 0.392C4.68799 0.5147 4.88129 0.6653 5.05199 0.844C5.22529 1.02 5.37199 1.2173 5.49199 1.436C5.61199 1.6547 5.70259 1.892 5.76399 2.148C5.82799 2.404 5.85999 2.6733 5.85999 2.956L5.85999 2.956ZM4.76 2.956C4.76 2.6387 4.7173 2.3547 4.632 2.104C4.5466 1.8507 4.4253 1.636 4.268 1.46C4.1106 1.284 3.9186 1.1493 3.692 1.056C3.468 0.9627 3.2146 0.916 2.932 0.916C2.6493 0.916 2.39461 0.9627 2.16801 1.056C1.94401 1.1493 1.75201 1.284 1.59201 1.46C1.43461 1.636 1.3133 1.8507 1.22801 2.104C1.1426 2.3547 1.10001 2.6387 1.10001 2.956C1.10001 3.2733 1.1426 3.5587 1.22801 3.812C1.3133 4.0627 1.43461 4.276 1.59201 4.452C1.75201 4.6253 1.94401 4.7587 2.16801 4.852C2.39461 4.9453 2.6493 4.992 2.932 4.992C3.2146 4.992 3.468 4.9453 3.692 4.852C3.9186 4.7587 4.1106 4.6253 4.268 4.452C4.4253 4.276 4.5466 4.0627 4.632 3.812C4.7173 3.5587 4.76 3.2733 4.76 2.956L4.76 2.956ZM7.50261 2.248C7.58531 2.1653 7.67191 2.0893 7.76261 2.02C7.85591 1.948 7.95331 1.888 8.05461 1.84C8.15861 1.7893 8.26931 1.7507 8.38661 1.724C8.50391 1.6947 8.63191 1.68 8.77061 1.68C8.99461 1.68 9.19331 1.7187 9.36661 1.796C9.53991 1.8707 9.68391 1.9773 9.79861 2.116C9.91591 2.252 10.0039 2.416 10.0626 2.608C10.1239 2.7973 10.1546 3.0067 10.1546 3.236L10.1546 5.848L9.16661 5.848L9.16661 3.236C9.16661 2.9853 9.10931 2.792 8.99461 2.656C8.87991 2.5173 8.70531 2.448 8.47061 2.448C8.29991 2.448 8.13991 2.4867 7.99061 2.564C7.84131 2.6413 7.69991 2.7467 7.56661 2.88L7.56661 5.848L6.57861 5.848L6.57861 1.744L7.18261 1.744C7.31061 1.744 7.39461 1.804 7.43461 1.924L7.50261 2.248L7.50261 2.248Z" transform="translate(41.845398 18)" id="Shape" fill="#000000" fill-rule="evenodd" stroke="none" />
    <path d="M0 3C0 1.3431 1.3431 0 3 0L25 0C26.6569 0 28 1.3431 28 3L28 7C28 8.6569 26.6569 10 25 10L3 10C1.3431 10 0 8.6569 0 7L0 3L0 3Z" transform="translate(64 30)" id="Shape" fill="#FF9300" fill-opacity="0.49803922" fill-rule="evenodd" stroke="none" />
    <path d="M5.112 2.948L5.112 5.288C4.8187 5.504 4.5053 5.6627 4.172 5.764C3.8413 5.8627 3.4867 5.912 3.108 5.912C2.636 5.912 2.208 5.8387 1.82401 5.692C1.4427 5.5453 1.116 5.3413 0.844002 5.08C0.574699 4.8187 0.366699 4.5067 0.220001 4.144C0.0733032 3.7813 0 3.3853 0 2.956C0 2.5213 0.0707016 2.1227 0.212006 1.76C0.353302 1.3973 0.553299 1.0853 0.812004 0.824001C1.0733 0.562698 1.3893 0.360001 1.76 0.216C2.1307 0.0719986 2.5467 0 3.008 0C3.2427 0 3.4613 0.0186996 3.664 0.0559998C3.8693 0.0932999 4.0587 0.145298 4.232 0.211998C4.408 0.276001 4.568 0.354698 4.71201 0.447998C4.856 0.541298 4.988 0.644001 5.108 0.756001L4.8 1.244C4.752 1.3213 4.6893 1.3693 4.612 1.388C4.5347 1.404 4.4507 1.384 4.36 1.328C4.272 1.2773 4.184 1.2267 4.096 1.176C4.008 1.1253 3.9093 1.0813 3.8 1.044C3.6933 1.0067 3.572 0.975998 3.436 0.952C3.3027 0.928001 3.148 0.916 2.972 0.916C2.6867 0.916 2.428 0.964001 2.196 1.06C1.96671 1.156 1.7707 1.2933 1.608 1.472C1.4453 1.6507 1.32 1.8653 1.232 2.116C1.144 2.3667 1.1 2.6467 1.1 2.956C1.1 3.2867 1.14671 3.5827 1.24001 3.844C1.336 4.1027 1.4693 4.3227 1.64 4.504C1.8133 4.6827 2.0213 4.82 2.264 4.916C2.5067 5.0093 2.77731 5.056 3.076 5.056C3.2893 5.056 3.48 5.0333 3.648 4.988C3.816 4.9427 3.98 4.8813 4.14 4.804L4.14 3.756L3.412 3.756C3.3427 3.756 3.288 3.7373 3.248 3.7C3.2107 3.66 3.192 3.612 3.192 3.556L3.192 2.948L5.112 2.948L5.112 2.948ZM8.14512 4.096C7.85972 4.1093 7.61972 4.1347 7.42512 4.172C7.23042 4.2067 7.07442 4.252 6.95712 4.308C6.83971 4.364 6.75571 4.4293 6.70512 4.504C6.65442 4.5787 6.62912 4.66 6.62912 4.748C6.62912 4.9213 6.67972 5.0453 6.78112 5.12C6.88512 5.1947 7.01971 5.232 7.18512 5.232C7.38772 5.232 7.56242 5.196 7.70911 5.124C7.85841 5.0493 8.00372 4.9373 8.14512 4.788L8.14512 4.096L8.14512 4.096ZM5.88109 2.316C6.35309 1.884 6.92109 1.668 7.58508 1.668C7.82509 1.668 8.03969 1.708 8.22909 1.788C8.41839 1.8653 8.57838 1.9747 8.70908 2.116C8.83968 2.2547 8.93839 2.4213 9.00509 2.616C9.07439 2.8107 9.10909 3.024 9.10909 3.256L9.10909 5.848L8.66109 5.848C8.56769 5.848 8.49569 5.8347 8.44508 5.808C8.39439 5.7787 8.35439 5.7213 8.32509 5.636L8.23708 5.34C8.13309 5.4333 8.03168 5.516 7.93309 5.588C7.83439 5.6573 7.73169 5.716 7.62508 5.764C7.51839 5.812 7.40369 5.848 7.28109 5.872C7.16109 5.8987 7.02769 5.912 6.88109 5.912C6.70769 5.912 6.54768 5.8893 6.40108 5.844C6.25439 5.796 6.12769 5.7253 6.02109 5.632C5.91438 5.5387 5.83169 5.4227 5.77309 5.284C5.71439 5.1453 5.68509 4.984 5.68509 4.8C5.68509 4.696 5.70238 4.5933 5.73708 4.492C5.77169 4.388 5.82769 4.2893 5.90509 4.196C5.98508 4.1027 6.08768 4.0147 6.21309 3.932C6.33839 3.8493 6.49168 3.7773 6.67309 3.716C6.85709 3.6547 7.07039 3.6053 7.31309 3.568C7.55569 3.528 7.83308 3.504 8.14509 3.496L8.14509 3.256C8.14509 2.9813 8.08639 2.7787 7.96909 2.648C7.85168 2.5147 7.68239 2.448 7.46109 2.448C7.30109 2.448 7.16769 2.4667 7.06109 2.504C6.95708 2.5413 6.86509 2.584 6.78509 2.632C6.70509 2.6773 6.63168 2.7187 6.56509 2.756C6.50108 2.7933 6.42908 2.812 6.34908 2.812C6.27969 2.812 6.22108 2.7947 6.17309 2.76C6.12508 2.7227 6.08639 2.68 6.05708 2.632L5.88109 2.316L5.88109 2.316ZM11.3529 5.912C10.9955 5.912 10.7209 5.812 10.5289 5.612C10.3395 5.4093 10.2449 5.1307 10.2449 4.776L10.2449 2.484L9.82491 2.484C9.7715 2.484 9.7262 2.4667 9.6889 2.432C9.6515 2.3973 9.6329 2.3453 9.6329 2.276L9.6329 1.884L10.2929 1.776L10.5009 0.655998C10.5142 0.602699 10.5395 0.561298 10.5769 0.531998C10.6142 0.502701 10.6622 0.487999 10.7209 0.487999L11.2329 0.487999L11.2329 1.78L12.3289 1.78L12.3289 2.484L11.2329 2.484L11.2329 4.708C11.2329 4.836 11.2635 4.936 11.3249 5.008C11.3889 5.08 11.4755 5.116 11.5849 5.116C11.6462 5.116 11.6969 5.1093 11.7369 5.096C11.7795 5.08 11.8155 5.064 11.8449 5.048C11.8769 5.032 11.9049 5.0173 11.9289 5.004C11.9529 4.988 11.9769 4.98 12.0009 4.98C12.0302 4.98 12.0542 4.988 12.0729 5.004C12.0915 5.0173 12.1115 5.0387 12.1329 5.068L12.4289 5.548C12.2849 5.668 12.1195 5.7587 11.9329 5.82C11.7462 5.8813 11.5529 5.912 11.3529 5.912L11.3529 5.912ZM15.5742 3.388C15.5742 3.25125 15.5555 3.12304 15.5182 3.00338C15.4835 2.88084 15.4302 2.774 15.3582 2.68287C15.2862 2.59174 15.1942 2.52048 15.0822 2.4692C14.9728 2.41503 14.8448 2.388 14.6982 2.388C14.4128 2.388 14.1875 2.47486 14.0222 2.64868C13.8595 2.82251 13.7555 3.06887 13.7102 3.388L15.5742 3.388L15.5742 3.388ZM13.6902 3.92C13.7062 4.1307 13.7435 4.3133 13.8022 4.468C13.8608 4.62 13.9382 4.7467 14.0342 4.848C14.1302 4.9467 14.2435 5.0213 14.3742 5.072C14.5075 5.12 14.6542 5.144 14.8142 5.144C14.9742 5.144 15.1115 5.1253 15.2262 5.088C15.3435 5.0507 15.4448 5.0093 15.5302 4.964C15.6182 4.9187 15.6942 4.8773 15.7582 4.84C15.8248 4.8027 15.8888 4.784 15.9502 4.784C16.0328 4.784 16.0942 4.8147 16.1342 4.876L16.4182 5.236C16.3088 5.364 16.1862 5.472 16.0502 5.56C15.9142 5.6453 15.7715 5.7147 15.6222 5.768C15.4755 5.8187 15.3248 5.8547 15.1702 5.876C15.0182 5.8973 14.8702 5.908 14.7262 5.908C14.4408 5.908 14.1755 5.8613 13.9302 5.768C13.6848 5.672 13.4715 5.532 13.2902 5.348C13.1088 5.1613 12.9662 4.932 12.8622 4.66C12.7582 4.3853 12.7062 4.068 12.7062 3.708C12.7062 3.428 12.7515 3.1653 12.8422 2.92C12.9328 2.672 13.0622 2.4573 13.2302 2.276C13.4008 2.092 13.6075 1.9467 13.8502 1.84C14.0955 1.7333 14.3715 1.68 14.6782 1.68C14.9368 1.68 15.1755 1.7213 15.3942 1.804C15.6128 1.8867 15.8008 2.008 15.9582 2.168C16.1155 2.3253 16.2382 2.52 16.3262 2.752C16.4168 2.9813 16.4622 3.244 16.4622 3.54C16.4622 3.6893 16.4462 3.7907 16.4142 3.844C16.3822 3.8947 16.3208 3.92 16.2302 3.92L13.6902 3.92L13.6902 3.92Z" transform="translate(69.792206 32)" id="Shape" fill="#000000" fill-rule="evenodd" stroke="none" />
  </g>
</svg>