<svg width="22" height="30" viewBox="0 0 22 30" fill="none" xmlns="http://www.w3.org/2000/svg">
<path d="M4 6C4 4.89543 4.89543 4 6 4H16C17.1046 4 18 4.89543 18 6V9C18 10.1046 17.1046 11 16 11H6C4.89543 11 4 10.1046 4 9V6Z" fill="#E3E3E3"/>
<path d="M13.8666 4.9005V10H12.8236V7.067C12.8236 6.99933 12.8248 6.92583 12.8271 6.8465C12.8318 6.76717 12.8388 6.68667 12.8481 6.605L11.4936 9.2265C11.4516 9.30817 11.3945 9.37 11.3221 9.412C11.2521 9.454 11.1716 9.475 11.0806 9.475H10.9196C10.8286 9.475 10.747 9.454 10.6746 9.412C10.6046 9.37 10.5486 9.30817 10.5066 9.2265L9.15214 6.598C9.15914 6.682 9.16497 6.76483 9.16964 6.8465C9.1743 6.92583 9.17664 6.99933 9.17664 7.067V10H8.13364V4.9005H9.03664C9.08797 4.9005 9.1323 4.90167 9.16964 4.904C9.2093 4.90633 9.2443 4.91333 9.27464 4.925C9.30497 4.93667 9.3318 4.95533 9.35514 4.981C9.3808 5.00433 9.4053 5.03817 9.42864 5.0825L10.7411 7.669C10.7878 7.75767 10.8321 7.84983 10.8741 7.9455C10.9185 8.04117 10.9605 8.13917 11.0001 8.2395C11.0398 8.13683 11.0806 8.0365 11.1226 7.9385C11.167 7.8405 11.2136 7.74717 11.2626 7.6585L12.5716 5.0825C12.595 5.03817 12.6183 5.00433 12.6416 4.981C12.6673 4.95533 12.6953 4.93667 12.7256 4.925C12.756 4.91333 12.7898 4.90633 12.8271 4.904C12.8668 4.90167 12.9123 4.9005 12.9636 4.9005H13.8666Z" fill="#393B45"/>
<path d="M6 4.5H16V3.5H6V4.5ZM17.5 6V9H18.5V6H17.5ZM16 10.5H6V11.5H16V10.5ZM4.5 9V6H3.5V9H4.5ZM6 10.5C5.17157 10.5 4.5 9.82843 4.5 9H3.5C3.5 10.3807 4.61929 11.5 6 11.5V10.5ZM17.5 9C17.5 9.82843 16.8284 10.5 16 10.5V11.5C17.3807 11.5 18.5 10.3807 18.5 9H17.5ZM16 4.5C16.8284 4.5 17.5 5.17157 17.5 6H18.5C18.5 4.61929 17.3807 3.5 16 3.5V4.5ZM6 3.5C4.61929 3.5 3.5 4.61929 3.5 6H4.5C4.5 5.17157 5.17157 4.5 6 4.5V3.5Z" fill="#EEEEEE"/>
<path d="M4 21C4 19.8954 4.89543 19 6 19H16C17.1046 19 18 19.8954 18 21V24C18 25.1046 17.1046 26 16 26H6C4.89543 26 4 25.1046 4 24V21Z" fill="#4487F6"/>
<path d="M13.8666 19.9005V25H12.8236V22.067C12.8236 21.9993 12.8248 21.9258 12.8271 21.8465C12.8318 21.7672 12.8388 21.6867 12.8481 21.605L11.4936 24.2265C11.4516 24.3082 11.3945 24.37 11.3221 24.412C11.2521 24.454 11.1716 24.475 11.0806 24.475H10.9196C10.8286 24.475 10.747 24.454 10.6746 24.412C10.6046 24.37 10.5486 24.3082 10.5066 24.2265L9.15214 21.598C9.15914 21.682 9.16497 21.7648 9.16964 21.8465C9.1743 21.9258 9.17664 21.9993 9.17664 22.067V25H8.13364V19.9005H9.03664C9.08797 19.9005 9.1323 19.9017 9.16964 19.904C9.2093 19.9063 9.2443 19.9133 9.27464 19.925C9.30497 19.9367 9.3318 19.9553 9.35514 19.981C9.3808 20.0043 9.4053 20.0382 9.42864 20.0825L10.7411 22.669C10.7878 22.7577 10.8321 22.8498 10.8741 22.9455C10.9185 23.0412 10.9605 23.1392 11.0001 23.2395C11.0398 23.1368 11.0806 23.0365 11.1226 22.9385C11.167 22.8405 11.2136 22.7472 11.2626 22.6585L12.5716 20.0825C12.595 20.0382 12.6183 20.0043 12.6416 19.981C12.6673 19.9553 12.6953 19.9367 12.7256 19.925C12.756 19.9133 12.7898 19.9063 12.8271 19.904C12.8668 19.9017 12.9123 19.9005 12.9636 19.9005H13.8666Z" fill="#EEEEEE"/>
<path d="M6 19.5H16V18.5H6V19.5ZM17.5 21V24H18.5V21H17.5ZM16 25.5H6V26.5H16V25.5ZM4.5 24V21H3.5V24H4.5ZM6 25.5C5.17157 25.5 4.5 24.8284 4.5 24H3.5C3.5 25.3807 4.61929 26.5 6 26.5V25.5ZM17.5 24C17.5 24.8284 16.8284 25.5 16 25.5V26.5C17.3807 26.5 18.5 25.3807 18.5 24H17.5ZM16 19.5C16.8284 19.5 17.5 20.1716 17.5 21H18.5C18.5 19.6193 17.3807 18.5 16 18.5V19.5ZM6 18.5C4.61929 18.5 3.5 19.6193 3.5 21H4.5C4.5 20.1716 5.17157 19.5 6 19.5V18.5Z" fill="#EEEEEE"/>
</svg>
