<?xml version="1.0" encoding="utf-8"?>
<svg width="51px" height="30px" viewbox="0 0 51 30" version="1.1" xmlns:xlink="http://www.w3.org/1999/xlink" xmlns="http://www.w3.org/2000/svg">
  <defs>
    <rect width="51" height="30" id="artboard_1" />
    <clipPath id="clip_1">
      <use xlink:href="#artboard_1" clip-rule="evenodd" />
    </clipPath>
  </defs>
  <g id="hover00152" clip-path="url(#clip_1)">
    <path d="M0 3C0 1.34315 1.34315 0 3 0L47 0C48.6569 0 50 1.34315 50 3L50 11C50 12.6569 48.6569 14 47 14L3 14C1.34315 14 0 12.6569 0 11L0 3L0 3Z" transform="translate(0.5 0.5)" id="Shape" fill="#E3E3E3" fill-rule="evenodd" stroke="none" />
    <path d="M0 2C0 0.89543 0.89543 0 2 0L45 0C46.1046 0 47 0.89543 47 2L47 9C47 10.1046 46.1046 11 45 11L2 11C0.89543 11 0 10.1046 0 9L0 2L0 2Z" transform="translate(2 2)" id="Shape" fill="#FF9300" fill-opacity="0.49803922" fill-rule="evenodd" stroke="none" />
    <path d="M2.4 5.076C2.608 5.076 2.7933 5.0413 2.956 4.972C3.1213 4.90267 3.26 4.80533 3.372 4.68C3.484 4.55467 3.5693 4.40267 3.628 4.224C3.6893 4.04533 3.72 3.84533 3.72 3.624L3.72 0.160004L4.796 0.160004L4.796 3.624C4.796 3.968 4.74 4.28667 4.628 4.58C4.5186 4.87067 4.36 5.1227 4.152 5.336C3.9466 5.5467 3.696 5.712 3.4 5.832C3.104 5.9493 2.7706 6.008 2.4 6.008C2.0266 6.008 1.692 5.9493 1.396 5.832C1.1 5.712 0.848 5.5467 0.64 5.336C0.4346 5.1227 0.276 4.87067 0.164 4.58C0.0545998 4.28667 0 3.968 0 3.624L0 0.160004L1.076 0.160004L1.076 3.62C1.076 3.84133 1.1053 4.04133 1.164 4.22C1.2253 4.39867 1.312 4.552 1.424 4.68C1.5386 4.80533 1.6773 4.90267 1.84 4.972C2.0053 5.0413 2.192 5.076 2.4 5.076L2.4 5.076ZM6.6447 2.344C6.7273 2.26133 6.814 2.18533 6.9047 2.116C6.998 2.044 7.0953 1.984 7.1967 1.936C7.3007 1.88533 7.4113 1.84667 7.5287 1.82C7.646 1.79067 7.774 1.776 7.9127 1.776C8.1367 1.776 8.3353 1.81467 8.5087 1.892C8.682 1.96667 8.826 2.07333 8.9407 2.212C9.058 2.348 9.146 2.512 9.2047 2.704C9.266 2.89333 9.2967 3.10267 9.2967 3.332L9.2967 5.944L8.3087 5.944L8.3087 3.332C8.3087 3.08133 8.2513 2.888 8.1367 2.752C8.022 2.61333 7.8473 2.544 7.6127 2.544C7.442 2.544 7.282 2.58267 7.1327 2.66C6.9833 2.73733 6.842 2.84267 6.7087 2.976L6.7087 5.944L5.7207 5.944L5.7207 1.84L6.3247 1.84C6.4527 1.84 6.5367 1.9 6.5767 2.02L6.6447 2.344L6.6447 2.344ZM11.2683 1.84L11.2683 5.944L10.2683 5.944L10.2683 1.84L11.2683 1.84L11.2683 1.84ZM11.3963 0.643993C11.3963 0.729323 11.379 0.809324 11.3443 0.883994C11.3096 0.958663 11.263 1.02399 11.2043 1.07999C11.1483 1.13599 11.0816 1.18132 11.0043 1.21599C10.927 1.24799 10.8443 1.26399 10.7563 1.26399C10.671 1.26399 10.5896 1.24799 10.5123 1.21599C10.4376 1.18132 10.3723 1.13599 10.3163 1.07999C10.2603 1.02399 10.215 0.958663 10.1803 0.883994C10.1483 0.809324 10.1323 0.729323 10.1323 0.643993C10.1323 0.555994 10.1483 0.473323 10.1803 0.395994C10.215 0.318664 10.2603 0.251994 10.3163 0.195993C10.3723 0.139994 10.4376 0.0959935 10.5123 0.0639935C10.5896 0.0293236 10.671 0.0119934 10.7563 0.0119934C10.8443 0.0119934 10.927 0.0293236 11.0043 0.0639935C11.0816 0.0959935 11.1483 0.139994 11.2043 0.195993C11.263 0.251994 11.3096 0.318664 11.3443 0.395994C11.379 0.473323 11.3963 0.555994 11.3963 0.643993L11.3963 0.643993ZM13.2555 4.88001C13.3675 5.01601 13.4889 5.11201 13.6195 5.16801C13.7529 5.22401 13.8969 5.25201 14.0515 5.25201C14.2009 5.25201 14.3355 5.22401 14.4555 5.16801C14.5755 5.11201 14.6769 5.02671 14.7595 4.91201C14.8449 4.79734 14.9102 4.65334 14.9555 4.48001C15.0009 4.30401 15.0235 4.09734 15.0235 3.86001C15.0235 3.62001 15.0035 3.41734 14.9635 3.25201C14.9262 3.08401 14.8715 2.94801 14.7995 2.84401C14.7275 2.74001 14.6395 2.66401 14.5355 2.61601C14.4342 2.56801 14.3182 2.54401 14.1875 2.54401C13.9822 2.54401 13.8075 2.58801 13.6635 2.67601C13.5195 2.76134 13.3835 2.88268 13.2555 3.04001L13.2555 4.88001L13.2555 4.88001ZM13.2035 2.40001C13.3715 2.21068 13.5622 2.05734 13.7755 1.94001C13.9889 1.82268 14.2395 1.76401 14.5275 1.76401C14.7515 1.76401 14.9555 1.81068 15.1395 1.90401C15.3262 1.99734 15.4862 2.13334 15.6195 2.31201C15.7555 2.48801 15.8595 2.70668 15.9315 2.96801C16.0062 3.22668 16.0435 3.52401 16.0435 3.86001C16.0435 4.16668 16.0022 4.45068 15.9195 4.71201C15.8369 4.97331 15.7182 5.20001 15.5635 5.39201C15.4115 5.58401 15.2262 5.73471 15.0075 5.84401C14.7915 5.95071 14.5489 6.00401 14.2795 6.00401C14.0502 6.00401 13.8542 5.96931 13.6915 5.90001C13.5289 5.82801 13.3835 5.72931 13.2555 5.60401L13.2555 7.28401L12.2675 7.28401L12.2675 1.84001L12.8715 1.84001C12.9995 1.84001 13.0835 1.90001 13.1235 2.02001L13.2035 2.40001L13.2035 2.40001ZM18.6304 1.776C18.9344 1.776 19.2104 1.82533 19.4584 1.924C19.7091 2.02267 19.9224 2.16267 20.0984 2.344C20.2771 2.52533 20.4144 2.74667 20.5104 3.008C20.6064 3.26933 20.6544 3.56133 20.6544 3.884C20.6544 4.20933 20.6064 4.50267 20.5104 4.764C20.4144 5.0253 20.2771 5.248 20.0984 5.432C19.9224 5.616 19.7091 5.7573 19.4584 5.856C19.2104 5.9547 18.9344 6.004 18.6304 6.004C18.3238 6.004 18.0451 5.9547 17.7944 5.856C17.5438 5.7573 17.3291 5.616 17.1504 5.432C16.9744 5.248 16.8371 5.0253 16.7384 4.764C16.6424 4.50267 16.5944 4.20933 16.5944 3.884C16.5944 3.56133 16.6424 3.26933 16.7384 3.008C16.8371 2.74667 16.9744 2.52533 17.1504 2.344C17.3291 2.16267 17.5438 2.02267 17.7944 1.924C18.0451 1.82533 18.3238 1.776 18.6304 1.776L18.6304 1.776ZM18.6304 5.24401C18.9718 5.24401 19.2238 5.12931 19.3864 4.90001C19.5518 4.67068 19.6344 4.33468 19.6344 3.89201C19.6344 3.44934 19.5518 3.11201 19.3864 2.88001C19.2238 2.64801 18.9718 2.53201 18.6304 2.53201C18.2838 2.53201 18.0264 2.64934 17.8584 2.88401C17.6931 3.11601 17.6104 3.45201 17.6104 3.89201C17.6104 4.33201 17.6931 4.66801 17.8584 4.90001C18.0264 5.12931 18.2838 5.24401 18.6304 5.24401L18.6304 5.24401ZM22.4202 0L22.4202 5.944L21.4202 5.944L21.4202 0L22.4202 0L22.4202 0ZM25.5606 4.19199C25.2753 4.20532 25.0353 4.23066 24.8406 4.26799C24.646 4.30266 24.49 4.34799 24.3726 4.40399C24.2553 4.45999 24.1713 4.52532 24.1206 4.59999C24.07 4.67466 24.0446 4.75599 24.0446 4.84399C24.0446 5.01729 24.0953 5.14129 24.1966 5.21599C24.3006 5.29069 24.4353 5.32799 24.6006 5.32799C24.8033 5.32799 24.978 5.29199 25.1246 5.21999C25.274 5.14529 25.4193 5.03329 25.5606 4.88399L25.5606 4.19199L25.5606 4.19199ZM23.2965 2.41201C23.7685 1.98001 24.3365 1.76401 25.0005 1.76401C25.2405 1.76401 25.4552 1.80401 25.6445 1.88401C25.8339 1.96134 25.9939 2.07068 26.1245 2.21201C26.2552 2.35068 26.3539 2.51734 26.4205 2.71201C26.4899 2.90668 26.5245 3.12001 26.5245 3.35201L26.5245 5.94401L26.0765 5.94401C25.9832 5.94401 25.9112 5.93071 25.8605 5.90401C25.8099 5.87471 25.7699 5.81731 25.7405 5.73201L25.6525 5.43601C25.5485 5.52931 25.4472 5.61201 25.3485 5.68401C25.2499 5.75331 25.1472 5.81201 25.0405 5.86001C24.9339 5.90801 24.8192 5.94401 24.6965 5.96801C24.5765 5.99471 24.4432 6.00801 24.2965 6.00801C24.1232 6.00801 23.9632 5.98531 23.8165 5.94001C23.6699 5.89201 23.5432 5.82131 23.4365 5.72801C23.3299 5.63471 23.2472 5.51871 23.1885 5.38001C23.1299 5.24131 23.1005 5.08001 23.1005 4.89601C23.1005 4.79201 23.1179 4.68934 23.1525 4.58801C23.1872 4.48401 23.2432 4.38534 23.3205 4.29201C23.4005 4.19868 23.5032 4.11068 23.6285 4.02801C23.7539 3.94534 23.9072 3.87334 24.0885 3.81201C24.2725 3.75068 24.4859 3.70134 24.7285 3.66401C24.9712 3.62401 25.2485 3.60001 25.5605 3.59201L25.5605 3.35201C25.5605 3.07734 25.5019 2.87468 25.3845 2.74401C25.2672 2.61068 25.0979 2.54401 24.8765 2.54401C24.7165 2.54401 24.5832 2.56268 24.4765 2.60001C24.3725 2.63734 24.2805 2.68001 24.2005 2.72801C24.1205 2.77334 24.0472 2.81468 23.9805 2.85201C23.9165 2.88934 23.8445 2.90801 23.7645 2.90801C23.6952 2.90801 23.6365 2.89068 23.5885 2.85601C23.5405 2.81868 23.5019 2.77601 23.4725 2.72801L23.2965 2.41201L23.2965 2.41201ZM28.387 2.55201C28.515 2.30668 28.667 2.11468 28.843 1.97601C29.019 1.83468 29.227 1.76401 29.467 1.76401C29.6564 1.76401 29.8084 1.80534 29.923 1.88801L29.859 2.62801C29.8457 2.67601 29.8257 2.71068 29.799 2.73201C29.775 2.75068 29.7417 2.76001 29.699 2.76001C29.659 2.76001 29.599 2.75334 29.519 2.74001C29.4417 2.72668 29.3657 2.72001 29.291 2.72001C29.1817 2.72001 29.0844 2.73601 28.999 2.76801C28.9137 2.80001 28.8364 2.84668 28.767 2.90801C28.7004 2.96668 28.6404 3.03868 28.587 3.12401C28.5364 3.20934 28.4884 3.30668 28.443 3.41601L28.443 5.94401L27.455 5.94401L27.455 1.84001L28.035 1.84001C28.1364 1.84001 28.207 1.85868 28.247 1.89601C28.287 1.93068 28.3137 1.99468 28.327 2.08801L28.387 2.55201L28.387 2.55201Z" transform="translate(10.810303 5.0559998)" id="Shape" fill="#000000" fill-rule="evenodd" stroke="none" />
    <path d="M3.5 1L47.5 1L47.5 0L3.5 0L3.5 1L3.5 1ZM50 3.5L50 11.5L51 11.5L51 3.5L50 3.5L50 3.5ZM47.5 14L3.5 14L3.5 15L47.5 15L47.5 14L47.5 14ZM1 11.5L1 3.5L0 3.5L0 11.5L1 11.5L1 11.5ZM3.5 14C2.11929 14 1 12.8807 1 11.5L0 11.5C0 13.433 1.567 15 3.5 15L3.5 14L3.5 14ZM50 11.5C50 12.8807 48.8807 14 47.5 14L47.5 15C49.433 15 51 13.433 51 11.5L50 11.5L50 11.5ZM47.5 1C48.8807 1 50 2.11929 50 3.5L51 3.5C51 1.567 49.433 0 47.5 0L47.5 1L47.5 1ZM3.5 0C1.567 0 0 1.567 0 3.5L1 3.5C1 2.11929 2.11929 1 3.5 1L3.5 0L3.5 0Z" id="Shape" fill="#979797" fill-rule="evenodd" stroke="none" />
    <path d="M0 3C0 1.3431 1.34315 0 3 0L47 0C48.6569 0 50 1.3431 50 3L50 11C50 12.6569 48.6569 14 47 14L3 14C1.34315 14 0 12.6569 0 11L0 3L0 3Z" transform="translate(0.5 15.5)" id="Shape" fill="#E3E3E3" fill-rule="evenodd" stroke="none" />
    <path d="M0 2C0 0.895399 0.89543 0 2 0L45 0C46.1046 0 47 0.895399 47 2L47 9C47 10.1046 46.1046 11 45 11L2 11C0.89543 11 0 10.1046 0 9L0 2L0 2Z" transform="translate(2 17)" id="Shape" fill="#804900" fill-rule="evenodd" stroke="none" />
    <path d="M2.4 5.076C2.608 5.076 2.7933 5.0413 2.956 4.972C3.1213 4.9027 3.26 4.8053 3.372 4.68C3.484 4.5547 3.5693 4.4027 3.628 4.22401C3.6893 4.0453 3.72 3.8453 3.72 3.624L3.72 0.160004L4.796 0.160004L4.796 3.624C4.796 3.968 4.74 4.2867 4.628 4.58C4.5186 4.8707 4.36 5.1227 4.152 5.336C3.9466 5.5467 3.696 5.712 3.4 5.832C3.104 5.9493 2.7706 6.008 2.4 6.008C2.0266 6.008 1.692 5.9493 1.396 5.832C1.1 5.712 0.848 5.5467 0.64 5.336C0.4346 5.1227 0.276 4.8707 0.164 4.58C0.0545998 4.2867 0 3.968 0 3.624L0 0.160004L1.076 0.160004L1.076 3.62C1.076 3.84131 1.1053 4.0413 1.164 4.22C1.2253 4.3987 1.312 4.552 1.424 4.68C1.5386 4.8053 1.6773 4.9027 1.84 4.972C2.0053 5.0413 2.192 5.076 2.4 5.076L2.4 5.076ZM6.6447 2.344C6.7273 2.2613 6.814 2.1853 6.9047 2.116C6.998 2.044 7.0953 1.984 7.1967 1.936C7.3007 1.8853 7.4113 1.8467 7.5287 1.82C7.646 1.7907 7.774 1.776 7.9127 1.776C8.1367 1.776 8.3353 1.8147 8.5087 1.892C8.682 1.9667 8.826 2.0733 8.9407 2.212C9.058 2.348 9.146 2.512 9.2047 2.704C9.266 2.8933 9.2967 3.1027 9.2967 3.332L9.2967 5.944L8.3087 5.944L8.3087 3.332C8.3087 3.0813 8.2513 2.888 8.1367 2.752C8.022 2.6133 7.8473 2.544 7.6127 2.544C7.442 2.544 7.282 2.5827 7.1327 2.66C6.9833 2.7373 6.842 2.8427 6.7087 2.976L6.7087 5.944L5.7207 5.944L5.7207 1.84L6.3247 1.84C6.4527 1.84 6.5367 1.9 6.5767 2.02L6.6447 2.344L6.6447 2.344ZM11.2683 1.84L11.2683 5.944L10.2683 5.944L10.2683 1.84L11.2683 1.84L11.2683 1.84ZM11.3963 0.643993C11.3963 0.729292 11.379 0.809292 11.3443 0.883993C11.3096 0.958693 11.263 1.02399 11.2043 1.07999C11.1483 1.13599 11.0816 1.18129 11.0043 1.21599C10.927 1.24799 10.8443 1.26399 10.7563 1.26399C10.671 1.26399 10.5896 1.24799 10.5123 1.21599C10.4376 1.18129 10.3723 1.13599 10.3163 1.07999C10.2603 1.02399 10.215 0.958693 10.1803 0.883993C10.1483 0.809292 10.1323 0.729292 10.1323 0.643993C10.1323 0.555992 10.1483 0.473293 10.1803 0.395992C10.215 0.318693 10.2603 0.251993 10.3163 0.195993C10.3723 0.139992 10.4376 0.095993 10.5123 0.0639935C10.5896 0.0292931 10.671 0.0119934 10.7563 0.0119934C10.8443 0.0119934 10.927 0.0292931 11.0043 0.0639935C11.0816 0.095993 11.1483 0.139992 11.2043 0.195993C11.263 0.251993 11.3096 0.318693 11.3443 0.395992C11.379 0.473293 11.3963 0.555992 11.3963 0.643993L11.3963 0.643993ZM13.2555 4.88001C13.3675 5.01601 13.4889 5.11201 13.6195 5.16801C13.7529 5.22401 13.8969 5.25201 14.0515 5.25201C14.2009 5.25201 14.3355 5.22401 14.4555 5.16801C14.5755 5.11201 14.6769 5.02671 14.7595 4.91201C14.8449 4.79731 14.9102 4.65331 14.9555 4.48001C15.0009 4.30401 15.0235 4.09731 15.0235 3.86001C15.0235 3.62001 15.0035 3.41731 14.9635 3.25201C14.9262 3.08401 14.8715 2.94801 14.7995 2.84401C14.7275 2.74001 14.6395 2.66401 14.5355 2.61601C14.4342 2.56801 14.3182 2.54401 14.1875 2.54401C13.9822 2.54401 13.8075 2.58801 13.6635 2.67601C13.5195 2.76131 13.3835 2.88271 13.2555 3.04001L13.2555 4.88001L13.2555 4.88001ZM13.2035 2.40001C13.3715 2.21071 13.5622 2.05731 13.7755 1.94001C13.9889 1.82271 14.2395 1.76401 14.5275 1.76401C14.7515 1.76401 14.9555 1.81071 15.1395 1.90401C15.3262 1.99731 15.4862 2.13331 15.6195 2.31201C15.7555 2.48801 15.8595 2.70671 15.9315 2.96801C16.0062 3.22671 16.0435 3.52401 16.0435 3.86001C16.0435 4.16671 16.0022 4.45071 15.9195 4.71201C15.8369 4.97331 15.7182 5.20001 15.5635 5.39201C15.4115 5.58401 15.2262 5.73471 15.0075 5.84401C14.7915 5.95071 14.5489 6.00401 14.2795 6.00401C14.0502 6.00401 13.8542 5.96931 13.6915 5.90001C13.5289 5.82801 13.3835 5.72931 13.2555 5.60401L13.2555 7.28401L12.2675 7.28401L12.2675 1.84001L12.8715 1.84001C12.9995 1.84001 13.0835 1.90001 13.1235 2.02001L13.2035 2.40001L13.2035 2.40001ZM18.6304 1.776C18.9344 1.776 19.2104 1.8253 19.4584 1.924C19.7091 2.0227 19.9224 2.1627 20.0984 2.344C20.2771 2.5253 20.4144 2.7467 20.5104 3.008C20.6064 3.2693 20.6544 3.5613 20.6544 3.884C20.6544 4.2093 20.6064 4.5027 20.5104 4.764C20.4144 5.0253 20.2771 5.248 20.0984 5.432C19.9224 5.616 19.7091 5.7573 19.4584 5.856C19.2104 5.9547 18.9344 6.004 18.6304 6.004C18.3238 6.004 18.0451 5.9547 17.7944 5.856C17.5438 5.7573 17.3291 5.616 17.1504 5.432C16.9744 5.248 16.8371 5.0253 16.7384 4.764C16.6424 4.5027 16.5944 4.2093 16.5944 3.884C16.5944 3.5613 16.6424 3.2693 16.7384 3.008C16.8371 2.7467 16.9744 2.5253 17.1504 2.344C17.3291 2.1627 17.5438 2.0227 17.7944 1.924C18.0451 1.8253 18.3238 1.776 18.6304 1.776L18.6304 1.776ZM18.6304 5.24401C18.9718 5.24401 19.2238 5.12931 19.3864 4.90001C19.5518 4.67071 19.6344 4.33471 19.6344 3.89201C19.6344 3.44931 19.5518 3.11201 19.3864 2.88001C19.2238 2.64801 18.9718 2.53201 18.6304 2.53201C18.2838 2.53201 18.0264 2.64931 17.8584 2.88401C17.6931 3.11601 17.6104 3.45201 17.6104 3.89201C17.6104 4.33201 17.6931 4.66801 17.8584 4.90001C18.0264 5.12931 18.2838 5.24401 18.6304 5.24401L18.6304 5.24401ZM22.4202 0L22.4202 5.944L21.4202 5.944L21.4202 0L22.4202 0L22.4202 0ZM25.5605 4.19199C25.2752 4.20529 25.0352 4.23069 24.8405 4.26799C24.6459 4.30269 24.4899 4.34799 24.3725 4.40399C24.2552 4.45999 24.1712 4.52529 24.1205 4.59999C24.0699 4.67469 24.0445 4.75599 24.0445 4.84399C24.0445 5.01729 24.0952 5.14129 24.1965 5.21599C24.3005 5.29069 24.4352 5.32799 24.6005 5.32799C24.8032 5.32799 24.9779 5.29199 25.1245 5.21999C25.2739 5.14529 25.4192 5.03329 25.5605 4.88399L25.5605 4.19199L25.5605 4.19199ZM23.2965 2.41201C23.7685 1.98001 24.3365 1.76401 25.0005 1.76401C25.2405 1.76401 25.4552 1.80401 25.6445 1.88401C25.8339 1.96131 25.9939 2.07071 26.1245 2.21201C26.2552 2.35071 26.3539 2.51731 26.4205 2.71201C26.4899 2.90671 26.5245 3.12001 26.5245 3.35201L26.5245 5.94401L26.0765 5.94401C25.9832 5.94401 25.9112 5.93071 25.8605 5.90401C25.8099 5.87471 25.7699 5.81731 25.7405 5.73201L25.6525 5.43601C25.5485 5.52931 25.4472 5.61201 25.3485 5.68401C25.2499 5.75331 25.1472 5.81201 25.0405 5.86001C24.9339 5.90801 24.8192 5.94401 24.6965 5.96801C24.5765 5.99471 24.4432 6.00801 24.2965 6.00801C24.1232 6.00801 23.9632 5.98531 23.8165 5.94001C23.6699 5.89201 23.5432 5.82131 23.4365 5.72801C23.3299 5.63471 23.2472 5.51871 23.1885 5.38001C23.1299 5.24131 23.1005 5.08001 23.1005 4.89601C23.1005 4.79201 23.1179 4.68931 23.1525 4.58801C23.1872 4.48401 23.2432 4.38531 23.3205 4.29201C23.4005 4.19871 23.5032 4.11071 23.6285 4.02801C23.7539 3.94531 23.9072 3.87331 24.0885 3.81201C24.2725 3.75071 24.4859 3.70131 24.7285 3.66401C24.9712 3.62401 25.2485 3.60001 25.5605 3.59201L25.5605 3.35201C25.5605 3.07731 25.5019 2.87471 25.3845 2.74401C25.2672 2.61071 25.0979 2.54401 24.8765 2.54401C24.7165 2.54401 24.5832 2.56271 24.4765 2.60001C24.3725 2.63731 24.2805 2.68001 24.2005 2.72801C24.1205 2.77331 24.0472 2.81471 23.9805 2.85201C23.9165 2.88931 23.8445 2.90801 23.7645 2.90801C23.6952 2.90801 23.6365 2.89071 23.5885 2.85601C23.5405 2.81871 23.5019 2.77601 23.4725 2.72801L23.2965 2.41201L23.2965 2.41201ZM28.387 2.55201C28.515 2.30671 28.667 2.11471 28.843 1.97601C29.019 1.83471 29.227 1.76401 29.467 1.76401C29.6564 1.76401 29.8084 1.80531 29.923 1.88801L29.859 2.62801C29.8457 2.67601 29.8257 2.71071 29.799 2.73201C29.775 2.75071 29.7417 2.76001 29.699 2.76001C29.659 2.76001 29.599 2.75331 29.519 2.74001C29.4417 2.72671 29.3657 2.72001 29.291 2.72001C29.1817 2.72001 29.0844 2.73601 28.999 2.76801C28.9137 2.80001 28.8364 2.84671 28.767 2.90801C28.7004 2.96671 28.6404 3.03871 28.587 3.12401C28.5364 3.20931 28.4884 3.30671 28.443 3.41601L28.443 5.94401L27.455 5.94401L27.455 1.84001L28.035 1.84001C28.1364 1.84001 28.207 1.85871 28.247 1.89601C28.287 1.93071 28.3137 1.99471 28.327 2.08801L28.387 2.55201L28.387 2.55201Z" transform="translate(10.810303 20.056)" id="Shape" fill="#FF9300" fill-rule="evenodd" stroke="none" />
    <path d="M3.5 1L47.5 1L47.5 0L3.5 0L3.5 1L3.5 1ZM50 3.5L50 11.5L51 11.5L51 3.5L50 3.5L50 3.5ZM47.5 14L3.5 14L3.5 15L47.5 15L47.5 14L47.5 14ZM1 11.5L1 3.5L0 3.5L0 11.5L1 11.5L1 11.5ZM3.5 14C2.11929 14 1 12.8807 1 11.5L0 11.5C0 13.433 1.567 15 3.5 15L3.5 14L3.5 14ZM50 11.5C50 12.8807 48.8807 14 47.5 14L47.5 15C49.433 15 51 13.433 51 11.5L50 11.5L50 11.5ZM47.5 1C48.8807 1 50 2.1193 50 3.5L51 3.5C51 1.567 49.433 0 47.5 0L47.5 1L47.5 1ZM3.5 0C1.567 0 0 1.567 0 3.5L1 3.5C1 2.1193 2.11929 1 3.5 1L3.5 0L3.5 0Z" transform="translate(0 15)" id="Shape" fill="#979797" fill-rule="evenodd" stroke="none" />
  </g>
</svg>