<svg width="90" height="28" viewBox="0 0 90 28" fill="none" xmlns="http://www.w3.org/2000/svg">
<rect x="2.5" y="2.5" width="41" height="9" rx="1" fill="#804900"/>
<rect x="2.5" y="2.5" width="41" height="9" rx="1" stroke="#804900"/>
<path d="M8.78853 5.072V6.676H10.8125V7.504H8.78853V9.14H11.3565V10H7.70853V4.216H11.3565V5.072H8.78853ZM12.8722 6.4C12.9548 6.31733 13.0415 6.24133 13.1322 6.172C13.2255 6.1 13.3228 6.04 13.4242 5.992C13.5282 5.94133 13.6388 5.90267 13.7562 5.876C13.8735 5.84667 14.0015 5.832 14.1402 5.832C14.3642 5.832 14.5628 5.87067 14.7362 5.948C14.9095 6.02267 15.0535 6.12933 15.1682 6.268C15.2855 6.404 15.3735 6.568 15.4322 6.76C15.4935 6.94933 15.5242 7.15867 15.5242 7.388V10H14.5362V7.388C14.5362 7.13733 14.4788 6.944 14.3642 6.808C14.2495 6.66933 14.0748 6.6 13.8402 6.6C13.6695 6.6 13.5095 6.63867 13.3602 6.716C13.2108 6.79333 13.0695 6.89867 12.9362 7.032V10H11.9482V5.896H12.5522C12.6802 5.896 12.7642 5.956 12.8042 6.076L12.8722 6.4ZM19.95 5.896L18.322 10H17.426L15.798 5.896H16.614C16.6887 5.896 16.75 5.91333 16.798 5.948C16.8487 5.98267 16.882 6.02667 16.898 6.08L17.69 8.272C17.7327 8.4 17.77 8.52533 17.802 8.648C17.834 8.77067 17.862 8.89333 17.886 9.016C17.9127 8.89333 17.942 8.77067 17.974 8.648C18.006 8.52533 18.0447 8.4 18.09 8.272L18.898 6.08C18.9167 6.02667 18.95 5.98267 18.998 5.948C19.046 5.91333 19.1034 5.896 19.17 5.896H19.95ZM22.8756 7.476C22.8756 7.348 22.8569 7.228 22.8196 7.116C22.7849 7.00133 22.7316 6.90133 22.6596 6.816C22.5876 6.73067 22.4956 6.664 22.3836 6.616C22.2743 6.56533 22.1463 6.54 21.9996 6.54C21.7143 6.54 21.4889 6.62133 21.3236 6.784C21.1609 6.94667 21.0569 7.17733 21.0116 7.476H22.8756ZM20.9916 8.072C21.0076 8.28267 21.0449 8.46533 21.1036 8.62C21.1623 8.772 21.2396 8.89867 21.3356 9C21.4316 9.09867 21.5449 9.17333 21.6756 9.224C21.8089 9.272 21.9556 9.296 22.1156 9.296C22.2756 9.296 22.4129 9.27733 22.5276 9.24C22.6449 9.20267 22.7463 9.16133 22.8316 9.116C22.9196 9.07067 22.9956 9.02933 23.0596 8.992C23.1263 8.95467 23.1903 8.936 23.2516 8.936C23.3343 8.936 23.3956 8.96667 23.4356 9.028L23.7196 9.388C23.6103 9.516 23.4876 9.624 23.3516 9.712C23.2156 9.79733 23.0729 9.86667 22.9236 9.92C22.7769 9.97067 22.6263 10.0067 22.4716 10.028C22.3196 10.0493 22.1716 10.06 22.0276 10.06C21.7423 10.06 21.4769 10.0133 21.2316 9.92C20.9863 9.824 20.7729 9.684 20.5916 9.5C20.4103 9.31333 20.2676 9.084 20.1636 8.812C20.0596 8.53733 20.0076 8.22 20.0076 7.86C20.0076 7.58 20.0529 7.31733 20.1436 7.072C20.2343 6.824 20.3636 6.60933 20.5316 6.428C20.7023 6.244 20.9089 6.09867 21.1516 5.992C21.3969 5.88533 21.6729 5.832 21.9796 5.832C22.2383 5.832 22.4769 5.87333 22.6956 5.956C22.9143 6.03867 23.1023 6.16 23.2596 6.32C23.4169 6.47733 23.5396 6.672 23.6276 6.904C23.7183 7.13333 23.7636 7.396 23.7636 7.692C23.7636 7.84133 23.7476 7.94267 23.7156 7.996C23.6836 8.04667 23.6223 8.072 23.5316 8.072H20.9916ZM25.385 4.056V10H24.397V4.056H25.385ZM28.0654 5.832C28.3694 5.832 28.6454 5.88133 28.8934 5.98C29.1441 6.07867 29.3574 6.21867 29.5334 6.4C29.7121 6.58133 29.8494 6.80267 29.9454 7.064C30.0414 7.32533 30.0894 7.61733 30.0894 7.94C30.0894 8.26533 30.0414 8.55867 29.9454 8.82C29.8494 9.08133 29.7121 9.304 29.5334 9.488C29.3574 9.672 29.1441 9.81333 28.8934 9.912C28.6454 10.0107 28.3694 10.06 28.0654 10.06C27.7587 10.06 27.4801 10.0107 27.2294 9.912C26.9787 9.81333 26.7641 9.672 26.5854 9.488C26.4094 9.304 26.2721 9.08133 26.1734 8.82C26.0774 8.55867 26.0294 8.26533 26.0294 7.94C26.0294 7.61733 26.0774 7.32533 26.1734 7.064C26.2721 6.80267 26.4094 6.58133 26.5854 6.4C26.7641 6.21867 26.9787 6.07867 27.2294 5.98C27.4801 5.88133 27.7587 5.832 28.0654 5.832ZM28.0654 9.3C28.4067 9.3 28.6587 9.18533 28.8214 8.956C28.9867 8.72667 29.0694 8.39067 29.0694 7.948C29.0694 7.50533 28.9867 7.168 28.8214 6.936C28.6587 6.704 28.4067 6.588 28.0654 6.588C27.7187 6.588 27.4614 6.70533 27.2934 6.94C27.1281 7.172 27.0454 7.508 27.0454 7.948C27.0454 8.388 27.1281 8.724 27.2934 8.956C27.4614 9.18533 27.7187 9.3 28.0654 9.3ZM31.7112 8.936C31.8232 9.072 31.9445 9.168 32.0752 9.224C32.2085 9.28 32.3525 9.308 32.5072 9.308C32.6565 9.308 32.7912 9.28 32.9112 9.224C33.0312 9.168 33.1325 9.08267 33.2152 8.968C33.3005 8.85333 33.3658 8.70933 33.4112 8.536C33.4565 8.36 33.4792 8.15333 33.4792 7.916C33.4792 7.676 33.4592 7.47333 33.4192 7.308C33.3818 7.14 33.3272 7.004 33.2552 6.9C33.1832 6.796 33.0952 6.72 32.9912 6.672C32.8898 6.624 32.7738 6.6 32.6432 6.6C32.4378 6.6 32.2632 6.644 32.1192 6.732C31.9752 6.81733 31.8392 6.93867 31.7112 7.096V8.936ZM31.6592 6.456C31.8272 6.26667 32.0178 6.11333 32.2312 5.996C32.4445 5.87867 32.6952 5.82 32.9832 5.82C33.2072 5.82 33.4112 5.86667 33.5952 5.96C33.7818 6.05333 33.9418 6.18933 34.0752 6.368C34.2112 6.544 34.3152 6.76267 34.3872 7.024C34.4618 7.28267 34.4992 7.58 34.4992 7.916C34.4992 8.22267 34.4578 8.50667 34.3752 8.768C34.2925 9.02933 34.1738 9.256 34.0192 9.448C33.8672 9.64 33.6818 9.79067 33.4632 9.9C33.2472 10.0067 33.0045 10.06 32.7352 10.06C32.5058 10.06 32.3098 10.0253 32.1472 9.956C31.9845 9.884 31.8392 9.78533 31.7112 9.66V11.34H30.7232V5.896H31.3272C31.4552 5.896 31.5392 5.956 31.5792 6.076L31.6592 6.456ZM37.794 7.476C37.794 7.348 37.7754 7.228 37.738 7.116C37.7034 7.00133 37.65 6.90133 37.578 6.816C37.506 6.73067 37.414 6.664 37.302 6.616C37.1927 6.56533 37.0647 6.54 36.918 6.54C36.6327 6.54 36.4074 6.62133 36.242 6.784C36.0794 6.94667 35.9754 7.17733 35.93 7.476H37.794ZM35.91 8.072C35.926 8.28267 35.9634 8.46533 36.022 8.62C36.0807 8.772 36.158 8.89867 36.254 9C36.35 9.09867 36.4634 9.17333 36.594 9.224C36.7274 9.272 36.874 9.296 37.034 9.296C37.194 9.296 37.3314 9.27733 37.446 9.24C37.5634 9.20267 37.6647 9.16133 37.75 9.116C37.838 9.07067 37.914 9.02933 37.978 8.992C38.0447 8.95467 38.1087 8.936 38.17 8.936C38.2527 8.936 38.314 8.96667 38.354 9.028L38.638 9.388C38.5287 9.516 38.406 9.624 38.27 9.712C38.134 9.79733 37.9914 9.86667 37.842 9.92C37.6954 9.97067 37.5447 10.0067 37.39 10.028C37.238 10.0493 37.09 10.06 36.946 10.06C36.6607 10.06 36.3954 10.0133 36.15 9.92C35.9047 9.824 35.6914 9.684 35.51 9.5C35.3287 9.31333 35.186 9.084 35.082 8.812C34.978 8.53733 34.926 8.22 34.926 7.86C34.926 7.58 34.9714 7.31733 35.062 7.072C35.1527 6.824 35.282 6.60933 35.45 6.428C35.6207 6.244 35.8274 6.09867 36.07 5.992C36.3154 5.88533 36.5914 5.832 36.898 5.832C37.1567 5.832 37.3954 5.87333 37.614 5.956C37.8327 6.03867 38.0207 6.16 38.178 6.32C38.3354 6.47733 38.458 6.672 38.546 6.904C38.6367 7.13333 38.682 7.396 38.682 7.692C38.682 7.84133 38.666 7.94267 38.634 7.996C38.602 8.04667 38.5407 8.072 38.45 8.072H35.91Z" fill="#FF9300"/>
<rect x="46.5" y="16.5" width="41" height="9" rx="1" fill="#804900"/>
<rect x="46.5" y="16.5" width="41" height="9" rx="1" stroke="#804900"/>
<path d="M63.6051 23.112V24H60.2171V18.216H61.2931V23.112H63.6051ZM65.3334 19.072V20.784H67.5014V21.644H65.3334V24H64.2534V18.216H67.9014V19.072H65.3334ZM74.1259 21.108C74.1259 21.532 74.0553 21.9253 73.9139 22.288C73.7753 22.648 73.5779 22.96 73.3219 23.224C73.0659 23.488 72.7579 23.6947 72.3979 23.844C72.0379 23.9907 71.6379 24.064 71.1979 24.064C70.7606 24.064 70.3619 23.9907 70.0019 23.844C69.6419 23.6947 69.3326 23.488 69.0739 23.224C68.8179 22.96 68.6193 22.648 68.4779 22.288C68.3366 21.9253 68.2659 21.532 68.2659 21.108C68.2659 20.684 68.3366 20.292 68.4779 19.932C68.6193 19.5693 68.8179 19.256 69.0739 18.992C69.3326 18.728 69.6419 18.5227 70.0019 18.376C70.3619 18.2267 70.7606 18.152 71.1979 18.152C71.4913 18.152 71.7673 18.1867 72.0259 18.256C72.2846 18.3227 72.5219 18.4187 72.7379 18.544C72.9539 18.6667 73.1473 18.8173 73.3179 18.996C73.4913 19.172 73.6379 19.3693 73.7579 19.588C73.8779 19.8067 73.9686 20.044 74.0299 20.3C74.0939 20.556 74.1259 20.8253 74.1259 21.108ZM73.0259 21.108C73.0259 20.7907 72.9833 20.5067 72.8979 20.256C72.8126 20.0027 72.6913 19.788 72.5339 19.612C72.3766 19.436 72.1846 19.3013 71.9579 19.208C71.7339 19.1147 71.4806 19.068 71.1979 19.068C70.9153 19.068 70.6606 19.1147 70.4339 19.208C70.2099 19.3013 70.0179 19.436 69.8579 19.612C69.7006 19.788 69.5793 20.0027 69.4939 20.256C69.4086 20.5067 69.3659 20.7907 69.3659 21.108C69.3659 21.4253 69.4086 21.7107 69.4939 21.964C69.5793 22.2147 69.7006 22.428 69.8579 22.604C70.0179 22.7773 70.2099 22.9107 70.4339 23.004C70.6606 23.0973 70.9153 23.144 71.1979 23.144C71.4806 23.144 71.7339 23.0973 71.9579 23.004C72.1846 22.9107 72.3766 22.7773 72.5339 22.604C72.6913 22.428 72.8126 22.2147 72.8979 21.964C72.9833 21.7107 73.0259 21.4253 73.0259 21.108Z" fill="#FF9300"/>
</svg>
