<svg width="34" height="36" viewBox="0 0 34 36" fill="none" xmlns="http://www.w3.org/2000/svg">
<path d="M1.29126 4C1.29126 2.89543 2.18669 2 3.29126 2H29.7913C30.8958 2 31.7913 2.89543 31.7913 4V6.5C31.7913 7.60457 30.8958 8.5 29.7913 8.5H3.29126C2.18669 8.5 1.29126 7.60457 1.29126 6.5V4Z" fill="#804900"/>
<path d="M5.63843 6.089L5.02243 4.4055C4.99209 4.33083 4.96059 4.24217 4.92793 4.1395C4.89526 4.03683 4.86259 3.926 4.82993 3.807C4.79959 3.926 4.76809 4.038 4.73543 4.143C4.70276 4.24567 4.67126 4.3355 4.64093 4.4125L4.02843 6.089H5.63843ZM7.30093 8H6.57293C6.49126 8 6.42476 7.98017 6.37343 7.9405C6.32209 7.8985 6.28359 7.84717 6.25793 7.7865L5.87993 6.754H3.78343L3.40543 7.7865C3.38676 7.84017 3.35059 7.88917 3.29693 7.9335C3.24326 7.97783 3.17676 8 3.09743 8H2.36243L4.35393 2.939H5.31293L7.30093 8ZM11.9863 2.939V8H11.5033C11.4286 8 11.3656 7.98833 11.3143 7.965C11.2653 7.93933 11.2174 7.89733 11.1708 7.839L8.52828 4.465C8.54228 4.619 8.54928 4.76133 8.54928 4.892V8H7.71978V2.939H8.21328C8.25295 2.939 8.28678 2.94133 8.31478 2.946C8.34511 2.94833 8.37078 2.95533 8.39178 2.967C8.41511 2.97633 8.43728 2.9915 8.45828 3.0125C8.47928 3.03117 8.50261 3.05683 8.52828 3.0895L11.1813 6.4775C11.1743 6.39583 11.1684 6.31533 11.1638 6.236C11.1591 6.15667 11.1568 6.08317 11.1568 6.0155V2.939H11.9863ZM15.6823 6.089L15.0663 4.4055C15.036 4.33083 15.0045 4.24217 14.9718 4.1395C14.9392 4.03683 14.9065 3.926 14.8738 3.807C14.8435 3.926 14.812 4.038 14.7793 4.143C14.7467 4.24567 14.7152 4.3355 14.6848 4.4125L14.0723 6.089H15.6823ZM17.3448 8H16.6168C16.5352 8 16.4687 7.98017 16.4173 7.9405C16.366 7.8985 16.3275 7.84717 16.3018 7.7865L15.9238 6.754H13.8273L13.4493 7.7865C13.4307 7.84017 13.3945 7.88917 13.3408 7.9335C13.2872 7.97783 13.2207 8 13.1413 8H12.4063L14.3978 2.939H15.3568L17.3448 8ZM20.7282 7.223V8H17.7637V2.939H18.7052V7.223H20.7282ZM25.9442 5.4695C25.9442 5.8405 25.8823 6.18467 25.7587 6.502C25.6373 6.817 25.4647 7.09 25.2407 7.321C25.0167 7.552 24.7472 7.73283 24.4322 7.8635C24.1172 7.99183 23.7672 8.056 23.3822 8.056C22.9995 8.056 22.6507 7.99183 22.3357 7.8635C22.0207 7.73283 21.75 7.552 21.5237 7.321C21.2997 7.09 21.1258 6.817 21.0022 6.502C20.8785 6.18467 20.8167 5.8405 20.8167 5.4695C20.8167 5.0985 20.8785 4.7555 21.0022 4.4405C21.1258 4.12317 21.2997 3.849 21.5237 3.618C21.75 3.387 22.0207 3.20733 22.3357 3.079C22.6507 2.94833 22.9995 2.883 23.3822 2.883C23.6388 2.883 23.8803 2.91333 24.1067 2.974C24.333 3.03233 24.5407 3.11633 24.7297 3.226C24.9187 3.33333 25.0878 3.46517 25.2372 3.6215C25.3888 3.7755 25.5172 3.94817 25.6222 4.1395C25.7272 4.33083 25.8065 4.5385 25.8602 4.7625C25.9162 4.9865 25.9442 5.22217 25.9442 5.4695ZM24.9817 5.4695C24.9817 5.19183 24.9443 4.94333 24.8697 4.724C24.795 4.50233 24.6888 4.3145 24.5512 4.1605C24.4135 4.0065 24.2455 3.88867 24.0472 3.807C23.8512 3.72533 23.6295 3.6845 23.3822 3.6845C23.1348 3.6845 22.912 3.72533 22.7137 3.807C22.5177 3.88867 22.3497 4.0065 22.2097 4.1605C22.072 4.3145 21.9658 4.50233 21.8912 4.724C21.8165 4.94333 21.7792 5.19183 21.7792 5.4695C21.7792 5.74717 21.8165 5.99683 21.8912 6.2185C21.9658 6.43783 22.072 6.6245 22.2097 6.7785C22.3497 6.93017 22.5177 7.04683 22.7137 7.1285C22.912 7.21017 23.1348 7.251 23.3822 7.251C23.6295 7.251 23.8512 7.21017 24.0472 7.1285C24.2455 7.04683 24.4135 6.93017 24.5512 6.7785C24.6888 6.6245 24.795 6.43783 24.8697 6.2185C24.9443 5.99683 24.9817 5.74717 24.9817 5.4695ZM30.838 5.4625V7.51C30.5813 7.699 30.3072 7.83783 30.0155 7.9265C29.7262 8.01283 29.4158 8.056 29.0845 8.056C28.6715 8.056 28.297 7.99183 27.961 7.8635C27.6273 7.73517 27.3415 7.55667 27.1035 7.328C26.8678 7.09933 26.6858 6.82633 26.5575 6.509C26.4292 6.19167 26.365 5.84517 26.365 5.4695C26.365 5.08917 26.4268 4.74033 26.5505 4.423C26.6742 4.10567 26.8492 3.83267 27.0755 3.604C27.3042 3.37533 27.5807 3.198 27.905 3.072C28.2293 2.946 28.5933 2.883 28.997 2.883C29.2023 2.883 29.3937 2.89933 29.571 2.932C29.7507 2.96467 29.9163 3.01017 30.068 3.0685C30.222 3.1245 30.362 3.19333 30.488 3.275C30.614 3.35667 30.7295 3.4465 30.8345 3.5445L30.565 3.9715C30.523 4.03917 30.4682 4.08117 30.4005 4.0975C30.3328 4.1115 30.2593 4.094 30.18 4.045C30.103 4.00067 30.026 3.95633 29.949 3.912C29.872 3.86767 29.7857 3.82917 29.69 3.7965C29.5967 3.76383 29.4905 3.737 29.3715 3.716C29.2548 3.695 29.1195 3.6845 28.9655 3.6845C28.7158 3.6845 28.4895 3.7265 28.2865 3.8105C28.0858 3.8945 27.9143 4.01467 27.772 4.171C27.6297 4.32733 27.52 4.51517 27.443 4.7345C27.366 4.95383 27.3275 5.19883 27.3275 5.4695C27.3275 5.75883 27.3683 6.01783 27.45 6.2465C27.534 6.47283 27.6507 6.66533 27.8 6.824C27.9517 6.98033 28.1337 7.1005 28.346 7.1845C28.5583 7.26617 28.7952 7.307 29.0565 7.307C29.2432 7.307 29.41 7.28717 29.557 7.2475C29.704 7.20783 29.8475 7.15417 29.9875 7.0865V6.1695H29.3505C29.2898 6.1695 29.242 6.15317 29.207 6.1205C29.1743 6.0855 29.158 6.0435 29.158 5.9945V5.4625H30.838Z" fill="#FF9300"/>
<path d="M1.29126 29.5C1.29126 28.3954 2.18669 27.5 3.29126 27.5H29.7913C30.8958 27.5 31.7913 28.3954 31.7913 29.5V32C31.7913 33.1046 30.8958 34 29.7913 34H3.29126C2.18669 34 1.29126 33.1046 1.29126 32V29.5Z" fill="#804900"/>
<path d="M8.78241 30.9695C8.78241 31.3405 8.72058 31.6812 8.59691 31.9915C8.47325 32.3018 8.29941 32.569 8.07541 32.793C7.85141 33.017 7.58191 33.1908 7.26691 33.3145C6.95191 33.4382 6.60191 33.5 6.21691 33.5H4.28841V28.439H6.21691C6.60191 28.439 6.95191 28.502 7.26691 28.628C7.58191 28.7517 7.85141 28.9255 8.07541 29.1495C8.29941 29.3712 8.47325 29.6372 8.59691 29.9475C8.72058 30.2578 8.78241 30.5985 8.78241 30.9695ZM7.81641 30.9695C7.81641 30.6918 7.77908 30.4433 7.70441 30.224C7.63208 30.0023 7.52591 29.8157 7.38591 29.664C7.24825 29.51 7.08025 29.3922 6.88191 29.3105C6.68591 29.2288 6.46425 29.188 6.21691 29.188H5.23341V32.751H6.21691C6.46425 32.751 6.68591 32.7102 6.88191 32.6285C7.08025 32.5468 7.24825 32.4302 7.38591 32.2785C7.52591 32.1245 7.63208 31.9378 7.70441 31.7185C7.77908 31.4968 7.81641 31.2472 7.81641 30.9695ZM10.4536 33.5H9.50861V28.439H10.4536V33.5ZM15.6537 30.9625V33.01C15.3971 33.199 15.1229 33.3378 14.8312 33.4265C14.5419 33.5128 14.2316 33.556 13.9002 33.556C13.4872 33.556 13.1127 33.4918 12.7767 33.3635C12.4431 33.2352 12.1572 33.0567 11.9192 32.828C11.6836 32.5993 11.5016 32.3263 11.3732 32.009C11.2449 31.6917 11.1807 31.3452 11.1807 30.9695C11.1807 30.5892 11.2426 30.2403 11.3662 29.923C11.4899 29.6057 11.6649 29.3327 11.8912 29.104C12.1199 28.8753 12.3964 28.698 12.7207 28.572C13.0451 28.446 13.4091 28.383 13.8127 28.383C14.0181 28.383 14.2094 28.3993 14.3867 28.432C14.5664 28.4647 14.7321 28.5102 14.8837 28.5685C15.0377 28.6245 15.1777 28.6933 15.3037 28.775C15.4297 28.8567 15.5452 28.9465 15.6502 29.0445L15.3807 29.4715C15.3387 29.5392 15.2839 29.5812 15.2162 29.5975C15.1486 29.6115 15.0751 29.594 14.9957 29.545C14.9187 29.5007 14.8417 29.4563 14.7647 29.412C14.6877 29.3677 14.6014 29.3292 14.5057 29.2965C14.4124 29.2638 14.3062 29.237 14.1872 29.216C14.0706 29.195 13.9352 29.1845 13.7812 29.1845C13.5316 29.1845 13.3052 29.2265 13.1022 29.3105C12.9016 29.3945 12.7301 29.5147 12.5877 29.671C12.4454 29.8273 12.3357 30.0152 12.2587 30.2345C12.1817 30.4538 12.1432 30.6988 12.1432 30.9695C12.1432 31.2588 12.1841 31.5178 12.2657 31.7465C12.3497 31.9728 12.4664 32.1653 12.6157 32.324C12.7674 32.4803 12.9494 32.6005 13.1617 32.6845C13.3741 32.7662 13.6109 32.807 13.8722 32.807C14.0589 32.807 14.2257 32.7872 14.3727 32.7475C14.5197 32.7078 14.6632 32.6542 14.8032 32.5865V31.6695H14.1662C14.1056 31.6695 14.0577 31.6532 14.0227 31.6205C13.9901 31.5855 13.9737 31.5435 13.9737 31.4945V30.9625H15.6537ZM17.4008 33.5H16.4558V28.439H17.4008V33.5ZM21.964 29.2125H20.438V33.5H19.4965V29.2125H17.9705V28.439H21.964V29.2125ZM24.703 31.589L24.087 29.9055C24.0567 29.8308 24.0252 29.7422 23.9925 29.6395C23.9599 29.5368 23.9272 29.426 23.8945 29.307C23.8642 29.426 23.8327 29.538 23.8 29.643C23.7674 29.7457 23.7359 29.8355 23.7055 29.9125L23.093 31.589H24.703ZM26.3655 33.5H25.6375C25.5559 33.5 25.4894 33.4802 25.438 33.4405C25.3867 33.3985 25.3482 33.3472 25.3225 33.2865L24.9445 32.254H22.848L22.47 33.2865C22.4514 33.3402 22.4152 33.3892 22.3615 33.4335C22.3079 33.4778 22.2414 33.5 22.162 33.5H21.427L23.4185 28.439H24.3775L26.3655 33.5ZM29.7489 32.723V33.5H26.7844V28.439H27.7259V32.723H29.7489Z" fill="#FF9300"/>
</svg>
