<?xml version="1.0" encoding="utf-8"?>
<svg width="31px" height="24px" viewBox="0 0 31 24" version="1.1" xmlns:xlink="http://www.w3.org/1999/xlink" xmlns="http://www.w3.org/2000/svg">
  <desc>Created with Lunacy</desc>
  <defs>
    <rect width="31" height="24" id="artboard_1" />
    <clipPath id="clip_1">
      <use xlink:href="#artboard_1" clip-rule="evenodd" />
    </clipPath>
  </defs>
  <g id="hover00172" clip-path="url(#clip_1)">
    <g id="On" transform="translate(5 14.775749)">
      <path d="M4.797 0.612C4.857 0.519 4.887 0.423 4.887 0.324L4.887 0L0.171 0L0.171 0.711L3.744 0.711L0.0855002 5.85C0.0615001 5.889 0.0412502 5.9295 0.0247502 5.9715C0.00825024 6.0135 0 6.0585 0 6.1065L0 6.4485L4.833 6.4485L4.833 5.7375L1.1475 5.7375L4.797 0.612L4.797 0.612ZM8.4355 1.9845C8.1685 1.8735 7.8685 1.818 7.5355 1.818C7.1995 1.818 6.89725 1.8735 6.62875 1.9845C6.36025 2.0955 6.1315 2.253 5.9425 2.457C5.7535 2.661 5.60875 2.90775 5.50825 3.19725C5.40775 3.48675 5.3575 3.81 5.3575 4.167C5.3575 4.527 5.40775 4.851 5.50825 5.139C5.60875 5.427 5.7535 5.673 5.9425 5.877C6.1315 6.081 6.36025 6.23775 6.62875 6.34725C6.89725 6.45675 7.1995 6.5115 7.5355 6.5115C7.8685 6.5115 8.1685 6.45675 8.4355 6.34725C8.7025 6.23775 8.93052 6.081 9.11955 5.877C9.30855 5.673 9.45328 5.427 9.55375 5.139C9.65428 4.851 9.70455 4.527 9.70455 4.167C9.70455 3.81 9.65428 3.48675 9.55375 3.19725C9.45328 2.90775 9.30855 2.661 9.11955 2.457C8.93052 2.253 8.7025 2.0955 8.4355 1.9845L8.4355 1.9845ZM12.4386 1.818C12.7715 1.818 13.0715 1.8735 13.3386 1.9845C13.6056 2.0955 13.8336 2.253 14.0226 2.457C14.2115 2.661 14.3563 2.90775 14.4568 3.19725C14.5573 3.48675 14.6075 3.81 14.6075 4.167C14.6075 4.527 14.5572 4.851 14.4568 5.139C14.3563 5.427 14.2115 5.673 14.0226 5.877C13.8336 6.081 13.6056 6.23775 13.3386 6.34725C13.0716 6.45675 12.7716 6.5115 12.4386 6.5115C12.1026 6.5115 11.8003 6.45675 11.5317 6.34725C11.2633 6.23775 11.0346 6.081 10.8456 5.877C10.6566 5.673 10.5118 5.427 10.4113 5.139C10.3108 4.851 10.2606 4.527 10.2606 4.167C10.2606 3.81 10.3108 3.48675 10.4113 3.19725C10.5118 2.90775 10.6566 2.661 10.8456 2.457C11.0346 2.253 11.2633 2.0955 11.5317 1.9845C11.8003 1.8735 12.1026 1.818 12.4386 1.818L12.4386 1.818ZM15.42 1.89L15.42 6.4485L16.2255 6.4485L16.2255 3.051C16.3665 2.868 16.5211 2.72325 16.6891 2.61675C16.857 2.51025 17.04 2.457 17.2381 2.457C17.5201 2.457 17.7346 2.547 17.8816 2.727C18.0286 2.907 18.1021 3.18 18.1021 3.546L18.1021 6.4485L18.9076 6.4485L18.9076 3.546C18.9076 3.366 18.9338 3.20775 18.9863 3.07125C19.0388 2.93475 19.1101 2.8215 19.2001 2.7315C19.2901 2.6415 19.3943 2.57325 19.5128 2.52675C19.6313 2.48025 19.7566 2.457 19.8886 2.457C20.1826 2.457 20.4076 2.54925 20.5636 2.73375C20.7196 2.91825 20.7976 3.189 20.7976 3.546L20.7976 6.4485L21.6031 6.4485L21.6031 3.546C21.6031 3.27 21.5686 3.02475 21.4996 2.81025C21.4305 2.59575 21.3307 2.415 21.2003 2.268C21.0697 2.121 20.9107 2.00925 20.7233 1.93275C20.5357 1.85625 20.322 1.818 20.0821 1.818C19.9321 1.818 19.7843 1.836 19.6388 1.872C19.4932 1.908 19.356 1.965 19.2271 2.043C19.0981 2.121 18.9818 2.22 18.8783 2.34C18.7748 2.46 18.6901 2.6025 18.6241 2.7675C18.5401 2.4765 18.4028 2.2455 18.2123 2.0745C18.0218 1.9035 17.7736 1.818 17.4676 1.818C17.1916 1.818 16.9486 1.884 16.7386 2.016C16.5285 2.148 16.3395 2.3175 16.1716 2.5245L16.1131 2.0565C16.0861 1.9455 16.0156 1.89 15.9016 1.89L15.42 1.89L15.42 1.89ZM8.5435 5.43375C8.3215 5.73525 7.9855 5.886 7.5355 5.886C7.0795 5.886 6.73975 5.73525 6.51625 5.43375C6.29275 5.13225 6.181 4.7115 6.181 4.1715C6.181 3.9015 6.20875 3.65925 6.26425 3.44475C6.31975 3.23025 6.40375 3.0495 6.51625 2.9025C6.62875 2.7555 6.76975 2.643 6.93925 2.565C7.10875 2.487 7.3075 2.448 7.5355 2.448C7.9855 2.448 8.3215 2.5995 8.5435 2.9025C8.76553 3.2055 8.87655 3.6285 8.87655 4.1715C8.87655 4.7115 8.76553 5.13225 8.5435 5.43375L8.5435 5.43375ZM12.4385 5.886C12.8885 5.886 13.2245 5.73525 13.4465 5.43375C13.6685 5.13225 13.7795 4.7115 13.7795 4.1715C13.7795 3.6285 13.6685 3.2055 13.4465 2.9025C13.2245 2.5995 12.8885 2.448 12.4385 2.448C12.2105 2.448 12.0118 2.487 11.8422 2.565C11.6728 2.643 11.5318 2.7555 11.4192 2.9025C11.3068 3.0495 11.2228 3.23025 11.1672 3.44475C11.1118 3.65925 11.084 3.9015 11.084 4.1715C11.084 4.7115 11.1958 5.13225 11.4192 5.43375C11.6428 5.73525 11.9825 5.886 12.4385 5.886L12.4385 5.886Z" id="Glow" fill="#000000" fill-rule="evenodd" stroke="#FFFFFF" stroke-width="1" />
      <path d="M4.797 0.612C4.857 0.519 4.887 0.423 4.887 0.324L4.887 0L0.171 0L0.171 0.711L3.744 0.711L0.0855002 5.85C0.0615001 5.889 0.0412502 5.9295 0.0247502 5.9715C0.00825024 6.0135 0 6.0585 0 6.1065L0 6.4485L4.833 6.4485L4.833 5.7375L1.1475 5.7375L4.797 0.612L4.797 0.612ZM8.4355 1.9845C8.1685 1.8735 7.8685 1.818 7.5355 1.818C7.1995 1.818 6.89725 1.8735 6.62875 1.9845C6.36025 2.0955 6.1315 2.253 5.9425 2.457C5.7535 2.661 5.60875 2.90775 5.50825 3.19725C5.40775 3.48675 5.3575 3.81 5.3575 4.167C5.3575 4.527 5.40775 4.851 5.50825 5.139C5.60875 5.427 5.7535 5.673 5.9425 5.877C6.1315 6.081 6.36025 6.23775 6.62875 6.34725C6.89725 6.45675 7.1995 6.5115 7.5355 6.5115C7.8685 6.5115 8.1685 6.45675 8.4355 6.34725C8.7025 6.23775 8.93052 6.081 9.11955 5.877C9.30855 5.673 9.45328 5.427 9.55375 5.139C9.65428 4.851 9.70455 4.527 9.70455 4.167C9.70455 3.81 9.65428 3.48675 9.55375 3.19725C9.45328 2.90775 9.30855 2.661 9.11955 2.457C8.93052 2.253 8.7025 2.0955 8.4355 1.9845L8.4355 1.9845ZM12.4386 1.818C12.7715 1.818 13.0715 1.8735 13.3386 1.9845C13.6056 2.0955 13.8336 2.253 14.0226 2.457C14.2115 2.661 14.3563 2.90775 14.4568 3.19725C14.5573 3.48675 14.6075 3.81 14.6075 4.167C14.6075 4.527 14.5572 4.851 14.4568 5.139C14.3563 5.427 14.2115 5.673 14.0226 5.877C13.8336 6.081 13.6056 6.23775 13.3386 6.34725C13.0716 6.45675 12.7716 6.5115 12.4386 6.5115C12.1026 6.5115 11.8003 6.45675 11.5317 6.34725C11.2633 6.23775 11.0346 6.081 10.8456 5.877C10.6566 5.673 10.5118 5.427 10.4113 5.139C10.3108 4.851 10.2606 4.527 10.2606 4.167C10.2606 3.81 10.3108 3.48675 10.4113 3.19725C10.5118 2.90775 10.6566 2.661 10.8456 2.457C11.0346 2.253 11.2633 2.0955 11.5317 1.9845C11.8003 1.8735 12.1026 1.818 12.4386 1.818L12.4386 1.818ZM15.42 1.89L15.42 6.4485L16.2255 6.4485L16.2255 3.051C16.3665 2.868 16.5211 2.72325 16.6891 2.61675C16.857 2.51025 17.04 2.457 17.2381 2.457C17.5201 2.457 17.7346 2.547 17.8816 2.727C18.0286 2.907 18.1021 3.18 18.1021 3.546L18.1021 6.4485L18.9076 6.4485L18.9076 3.546C18.9076 3.366 18.9338 3.20775 18.9863 3.07125C19.0388 2.93475 19.1101 2.8215 19.2001 2.7315C19.2901 2.6415 19.3943 2.57325 19.5128 2.52675C19.6313 2.48025 19.7566 2.457 19.8886 2.457C20.1826 2.457 20.4076 2.54925 20.5636 2.73375C20.7196 2.91825 20.7976 3.189 20.7976 3.546L20.7976 6.4485L21.6031 6.4485L21.6031 3.546C21.6031 3.27 21.5686 3.02475 21.4996 2.81025C21.4305 2.59575 21.3307 2.415 21.2003 2.268C21.0697 2.121 20.9107 2.00925 20.7233 1.93275C20.5357 1.85625 20.322 1.818 20.0821 1.818C19.9321 1.818 19.7843 1.836 19.6388 1.872C19.4932 1.908 19.356 1.965 19.2271 2.043C19.0981 2.121 18.9818 2.22 18.8783 2.34C18.7748 2.46 18.6901 2.6025 18.6241 2.7675C18.5401 2.4765 18.4028 2.2455 18.2123 2.0745C18.0218 1.9035 17.7736 1.818 17.4676 1.818C17.1916 1.818 16.9486 1.884 16.7386 2.016C16.5285 2.148 16.3395 2.3175 16.1716 2.5245L16.1131 2.0565C16.0861 1.9455 16.0156 1.89 15.9016 1.89L15.42 1.89L15.42 1.89ZM8.5435 5.43375C8.3215 5.73525 7.9855 5.886 7.5355 5.886C7.0795 5.886 6.73975 5.73525 6.51625 5.43375C6.29275 5.13225 6.181 4.7115 6.181 4.1715C6.181 3.9015 6.20875 3.65925 6.26425 3.44475C6.31975 3.23025 6.40375 3.0495 6.51625 2.9025C6.62875 2.7555 6.76975 2.643 6.93925 2.565C7.10875 2.487 7.3075 2.448 7.5355 2.448C7.9855 2.448 8.3215 2.5995 8.5435 2.9025C8.76553 3.2055 8.87655 3.6285 8.87655 4.1715C8.87655 4.7115 8.76553 5.13225 8.5435 5.43375L8.5435 5.43375ZM12.4385 5.886C12.8885 5.886 13.2245 5.73525 13.4465 5.43375C13.6685 5.13225 13.7795 4.7115 13.7795 4.1715C13.7795 3.6285 13.6685 3.2055 13.4465 2.9025C13.2245 2.5995 12.8885 2.448 12.4385 2.448C12.2105 2.448 12.0118 2.487 11.8422 2.565C11.6728 2.643 11.5318 2.7555 11.4192 2.9025C11.3068 3.0495 11.2228 3.23025 11.1672 3.44475C11.1118 3.65925 11.084 3.9015 11.084 4.1715C11.084 4.7115 11.1958 5.13225 11.4192 5.43375C11.6428 5.73525 11.9825 5.886 12.4385 5.886L12.4385 5.886Z" id="Zoom" fill="#000000" fill-rule="evenodd" stroke="none" />
    </g>
    <g id="Off" transform="translate(5 2.7757492)">
      <path d="M4.797 0.612C4.857 0.519 4.887 0.423 4.887 0.324L4.887 0L0.171 0L0.171 0.711L3.744 0.711L0.0855002 5.85C0.0615001 5.889 0.0412502 5.9295 0.0247502 5.9715C0.00825024 6.0135 0 6.0585 0 6.1065L0 6.4485L4.833 6.4485L4.833 5.7375L1.1475 5.7375L4.797 0.612L4.797 0.612ZM8.4355 1.9845C8.1685 1.8735 7.8685 1.818 7.5355 1.818C7.1995 1.818 6.89725 1.8735 6.62875 1.9845C6.36025 2.0955 6.1315 2.253 5.9425 2.457C5.7535 2.661 5.60875 2.90775 5.50825 3.19725C5.40775 3.48675 5.3575 3.81 5.3575 4.167C5.3575 4.527 5.40775 4.851 5.50825 5.139C5.60875 5.427 5.7535 5.673 5.9425 5.877C6.1315 6.081 6.36025 6.23775 6.62875 6.34725C6.89725 6.45675 7.1995 6.5115 7.5355 6.5115C7.8685 6.5115 8.1685 6.45675 8.4355 6.34725C8.7025 6.23775 8.93052 6.081 9.11955 5.877C9.30855 5.673 9.45328 5.427 9.55375 5.139C9.65428 4.851 9.70455 4.527 9.70455 4.167C9.70455 3.81 9.65428 3.48675 9.55375 3.19725C9.45328 2.90775 9.30855 2.661 9.11955 2.457C8.93052 2.253 8.7025 2.0955 8.4355 1.9845L8.4355 1.9845ZM12.4386 1.818C12.7715 1.818 13.0715 1.8735 13.3386 1.9845C13.6056 2.0955 13.8336 2.253 14.0226 2.457C14.2116 2.661 14.3563 2.90775 14.4568 3.19725C14.5573 3.48675 14.6076 3.81 14.6076 4.167C14.6075 4.527 14.5572 4.851 14.4568 5.139C14.3563 5.427 14.2116 5.673 14.0226 5.877C13.8336 6.081 13.6056 6.23775 13.3386 6.34725C13.0716 6.45675 12.7716 6.5115 12.4386 6.5115C12.1026 6.5115 11.8003 6.45675 11.5318 6.34725C11.2633 6.23775 11.0346 6.081 10.8456 5.877C10.6566 5.673 10.5118 5.427 10.4113 5.139C10.3108 4.851 10.2606 4.527 10.2606 4.167C10.2606 3.81 10.3108 3.48675 10.4113 3.19725C10.5118 2.90775 10.6566 2.661 10.8456 2.457C11.0346 2.253 11.2633 2.0955 11.5318 1.9845C11.8003 1.8735 12.1026 1.818 12.4386 1.818L12.4386 1.818ZM15.42 1.89L15.42 6.4485L16.2255 6.4485L16.2255 3.051C16.3665 2.868 16.5211 2.72325 16.6891 2.61675C16.857 2.51025 17.04 2.457 17.2381 2.457C17.5201 2.457 17.7346 2.547 17.8816 2.727C18.0286 2.907 18.1021 3.18 18.1021 3.546L18.1021 6.4485L18.9076 6.4485L18.9076 3.546C18.9076 3.366 18.9338 3.20775 18.9863 3.07125C19.0388 2.93475 19.1101 2.8215 19.2001 2.7315C19.2901 2.6415 19.3943 2.57325 19.5128 2.52675C19.6313 2.48025 19.7566 2.457 19.8886 2.457C20.1826 2.457 20.4076 2.54925 20.5636 2.73375C20.7196 2.91825 20.7976 3.189 20.7976 3.546L20.7976 6.4485L21.6031 6.4485L21.6031 3.546C21.6031 3.27 21.5686 3.02475 21.4996 2.81025C21.4305 2.59575 21.3307 2.415 21.2003 2.268C21.0697 2.121 20.9107 2.00925 20.7233 1.93275C20.5357 1.85625 20.322 1.818 20.0821 1.818C19.9321 1.818 19.7843 1.836 19.6388 1.872C19.4932 1.908 19.356 1.965 19.2271 2.043C19.0981 2.121 18.9818 2.22 18.8783 2.34C18.7748 2.46 18.6901 2.6025 18.6241 2.7675C18.5401 2.4765 18.4028 2.2455 18.2123 2.0745C18.0218 1.9035 17.7736 1.818 17.4676 1.818C17.1916 1.818 16.9486 1.884 16.7386 2.016C16.5285 2.148 16.3395 2.3175 16.1716 2.5245L16.1131 2.0565C16.0861 1.9455 16.0156 1.89 15.9016 1.89L15.42 1.89L15.42 1.89ZM8.5435 5.43375C8.3215 5.73525 7.9855 5.886 7.5355 5.886C7.0795 5.886 6.73975 5.73525 6.51625 5.43375C6.29275 5.13225 6.181 4.7115 6.181 4.1715C6.181 3.9015 6.20875 3.65925 6.26425 3.44475C6.31975 3.23025 6.40375 3.0495 6.51625 2.9025C6.62875 2.7555 6.76975 2.643 6.93925 2.565C7.10875 2.487 7.3075 2.448 7.5355 2.448C7.9855 2.448 8.3215 2.5995 8.5435 2.9025C8.76553 3.2055 8.87655 3.6285 8.87655 4.1715C8.87655 4.7115 8.76553 5.13225 8.5435 5.43375L8.5435 5.43375ZM12.4386 5.886C12.8885 5.886 13.2246 5.73525 13.4466 5.43375C13.6686 5.13225 13.7796 4.7115 13.7796 4.1715C13.7796 3.6285 13.6686 3.2055 13.4466 2.9025C13.2246 2.5995 12.8885 2.448 12.4386 2.448C12.2105 2.448 12.0118 2.487 11.8422 2.565C11.6728 2.643 11.5318 2.7555 11.4192 2.9025C11.3068 3.0495 11.2228 3.23025 11.1672 3.44475C11.1118 3.65925 11.084 3.9015 11.084 4.1715C11.084 4.7115 11.1958 5.13225 11.4192 5.43375C11.6428 5.73525 11.9825 5.886 12.4386 5.886L12.4386 5.886Z" id="Glow" fill="#000000" fill-rule="evenodd" stroke="#FFCCAA" stroke-width="1" />
      <path d="M4.797 0.612C4.857 0.519 4.887 0.423 4.887 0.324L4.887 0L0.171 0L0.171 0.711L3.744 0.711L0.0855002 5.85C0.0615001 5.889 0.0412502 5.9295 0.0247502 5.9715C0.00825024 6.0135 0 6.0585 0 6.1065L0 6.4485L4.833 6.4485L4.833 5.7375L1.1475 5.7375L4.797 0.612L4.797 0.612ZM8.4355 1.9845C8.1685 1.8735 7.8685 1.818 7.5355 1.818C7.1995 1.818 6.89725 1.8735 6.62875 1.9845C6.36025 2.0955 6.1315 2.253 5.9425 2.457C5.7535 2.661 5.60875 2.90775 5.50825 3.19725C5.40775 3.48675 5.3575 3.81 5.3575 4.167C5.3575 4.527 5.40775 4.851 5.50825 5.139C5.60875 5.427 5.7535 5.673 5.9425 5.877C6.1315 6.081 6.36025 6.23775 6.62875 6.34725C6.89725 6.45675 7.1995 6.5115 7.5355 6.5115C7.8685 6.5115 8.1685 6.45675 8.4355 6.34725C8.7025 6.23775 8.93052 6.081 9.11955 5.877C9.30855 5.673 9.45328 5.427 9.55375 5.139C9.65428 4.851 9.70455 4.527 9.70455 4.167C9.70455 3.81 9.65428 3.48675 9.55375 3.19725C9.45328 2.90775 9.30855 2.661 9.11955 2.457C8.93052 2.253 8.7025 2.0955 8.4355 1.9845L8.4355 1.9845ZM12.4386 1.818C12.7715 1.818 13.0715 1.8735 13.3386 1.9845C13.6056 2.0955 13.8336 2.253 14.0226 2.457C14.2115 2.661 14.3563 2.90775 14.4568 3.19725C14.5573 3.48675 14.6075 3.81 14.6075 4.167C14.6075 4.527 14.5572 4.851 14.4568 5.139C14.3563 5.427 14.2115 5.673 14.0226 5.877C13.8336 6.081 13.6056 6.23775 13.3386 6.34725C13.0716 6.45675 12.7716 6.5115 12.4386 6.5115C12.1026 6.5115 11.8003 6.45675 11.5317 6.34725C11.2633 6.23775 11.0346 6.081 10.8456 5.877C10.6566 5.673 10.5118 5.427 10.4113 5.139C10.3108 4.851 10.2606 4.527 10.2606 4.167C10.2606 3.81 10.3108 3.48675 10.4113 3.19725C10.5118 2.90775 10.6566 2.661 10.8456 2.457C11.0346 2.253 11.2633 2.0955 11.5317 1.9845C11.8003 1.8735 12.1026 1.818 12.4386 1.818L12.4386 1.818ZM15.42 1.89L15.42 6.4485L16.2255 6.4485L16.2255 3.051C16.3665 2.868 16.5211 2.72325 16.6891 2.61675C16.857 2.51025 17.04 2.457 17.2381 2.457C17.5201 2.457 17.7346 2.547 17.8816 2.727C18.0286 2.907 18.1021 3.18 18.1021 3.546L18.1021 6.4485L18.9076 6.4485L18.9076 3.546C18.9076 3.366 18.9338 3.20775 18.9863 3.07125C19.0388 2.93475 19.1101 2.8215 19.2001 2.7315C19.2901 2.6415 19.3943 2.57325 19.5128 2.52675C19.6313 2.48025 19.7566 2.457 19.8886 2.457C20.1826 2.457 20.4076 2.54925 20.5636 2.73375C20.7196 2.91825 20.7976 3.189 20.7976 3.546L20.7976 6.4485L21.6031 6.4485L21.6031 3.546C21.6031 3.27 21.5686 3.02475 21.4996 2.81025C21.4305 2.59575 21.3307 2.415 21.2003 2.268C21.0697 2.121 20.9107 2.00925 20.7233 1.93275C20.5357 1.85625 20.322 1.818 20.0821 1.818C19.9321 1.818 19.7843 1.836 19.6388 1.872C19.4932 1.908 19.356 1.965 19.2271 2.043C19.0981 2.121 18.9818 2.22 18.8783 2.34C18.7748 2.46 18.6901 2.6025 18.6241 2.7675C18.5401 2.4765 18.4028 2.2455 18.2123 2.0745C18.0218 1.9035 17.7736 1.818 17.4676 1.818C17.1916 1.818 16.9486 1.884 16.7386 2.016C16.5285 2.148 16.3395 2.3175 16.1716 2.5245L16.1131 2.0565C16.0861 1.9455 16.0156 1.89 15.9016 1.89L15.42 1.89L15.42 1.89ZM8.5435 5.43375C8.3215 5.73525 7.9855 5.886 7.5355 5.886C7.0795 5.886 6.73975 5.73525 6.51625 5.43375C6.29275 5.13225 6.181 4.7115 6.181 4.1715C6.181 3.9015 6.20875 3.65925 6.26425 3.44475C6.31975 3.23025 6.40375 3.0495 6.51625 2.9025C6.62875 2.7555 6.76975 2.643 6.93925 2.565C7.10875 2.487 7.3075 2.448 7.5355 2.448C7.9855 2.448 8.3215 2.5995 8.5435 2.9025C8.76553 3.2055 8.87655 3.6285 8.87655 4.1715C8.87655 4.7115 8.76553 5.13225 8.5435 5.43375L8.5435 5.43375ZM12.4385 5.886C12.8885 5.886 13.2245 5.73525 13.4465 5.43375C13.6685 5.13225 13.7795 4.7115 13.7795 4.1715C13.7795 3.6285 13.6685 3.2055 13.4465 2.9025C13.2245 2.5995 12.8885 2.448 12.4385 2.448C12.2105 2.448 12.0118 2.487 11.8422 2.565C11.6728 2.643 11.5318 2.7555 11.4192 2.9025C11.3068 3.0495 11.2228 3.23025 11.1672 3.44475C11.1118 3.65925 11.084 3.9015 11.084 4.1715C11.084 4.7115 11.1958 5.13225 11.4192 5.43375C11.6428 5.73525 11.9825 5.886 12.4385 5.886L12.4385 5.886Z" id="Zoom" fill="#000000" fill-rule="evenodd" stroke="none" />
    </g>
  </g>
</svg>