<?xml version="1.0" encoding="utf-8"?>
<svg width="37px" height="12px" viewBox="0 0 37 12" version="1.1" xmlns="http://www.w3.org/2000/svg">
  <g id="bmp00148" stroke="none" stroke-width="1" fill="none" fill-rule="evenodd">
    <path d="M10.122,3.5595 C10.0949999,3.60450022 10.0657502,3.63824989 10.03425,3.66075 C10.0027498,3.68325011 9.96450023,3.6945 9.9195,3.6945 C9.86849975,3.6945 9.80850035,3.66900025 9.7395,3.618 C9.67049966,3.56699974 9.58425052,3.51075031 9.48075,3.44925 C9.37724948,3.38774969 9.25275073,3.33150025 9.10725,3.2805 C8.96174927,3.22949974 8.78550103,3.204 8.5785,3.204 C8.38349903,3.204 8.21175074,3.23024974 8.06325,3.28275 C7.91474926,3.33525026 7.7902505,3.40649955 7.68975,3.4965 C7.5892495,3.58650045 7.51350026,3.69224939 7.4625,3.81375 C7.41149975,3.93525061 7.386,4.06649929 7.386,4.2075 C7.386,4.3875009 7.43024956,4.53674941 7.51875,4.65525 C7.60725044,4.77375059 7.72424927,4.87499958 7.86975,4.959 C8.01525073,5.04300042 8.18024908,5.11574969 8.36475,5.17725 C8.54925092,5.23875031 8.73824903,5.30249967 8.93175,5.3685 C9.12525097,5.43450033 9.31424908,5.50874959 9.49875,5.59125 C9.68325092,5.67375041 9.84824927,5.77799937 9.99375,5.904 C10.1392507,6.03000063 10.2562496,6.18449908 10.34475,6.3675 C10.4332504,6.55050091 10.4775,6.77549866 10.4775,7.0425 C10.4775,7.32450141 10.4295005,7.58924876 10.3335,7.83675 C10.2374995,8.08425124 10.0972509,8.29949909 9.91275,8.4825 C9.72824908,8.66550091 9.50175134,8.80949947 9.23325,8.9145 C8.96474866,9.01950052 8.65950171,9.072 8.3175,9.072 C7.8974979,9.072 7.51650171,8.99625076 7.1745,8.84475 C6.83249829,8.69324924 6.54000122,8.48850129 6.297,8.2305 L6.549,7.8165 C6.57300012,7.78349983 6.60224983,7.75575011 6.63675,7.73325 C6.67125017,7.71074989 6.70949979,7.6995 6.7515,7.6995 C6.79050019,7.6995 6.83474975,7.71524984 6.88425,7.74675 C6.93375025,7.77825016 6.98999968,7.81799976 7.053,7.866 C7.11600031,7.91400024 7.18799959,7.96649971 7.269,8.0235 C7.35000041,8.08050028 7.44224948,8.13299976 7.54575,8.181 C7.64925052,8.22900024 7.76699934,8.26874984 7.899,8.30025 C8.03100066,8.33175016 8.17949918,8.3475 8.3445,8.3475 C8.55150104,8.3475 8.73599919,8.31900028 8.898,8.262 C9.06000081,8.20499971 9.19724944,8.12475052 9.30975,8.02125 C9.42225056,7.91774948 9.5084997,7.79400072 9.5685,7.65 C9.6285003,7.50599928 9.6585,7.34550088 9.6585,7.1685 C9.6585,6.97349902 9.61425044,6.81375062 9.52575,6.68925 C9.43724956,6.56474938 9.32100072,6.46050042 9.177,6.3765 C9.03299928,6.29249958 8.86800093,6.22125029 8.682,6.16275 C8.49599907,6.10424971 8.30700096,6.04425031 8.115,5.98275 C7.92299904,5.92124969 7.73400093,5.8500004 7.548,5.769 C7.36199907,5.68799959 7.19700072,5.58300064 7.053,5.454 C6.90899928,5.32499935 6.79275044,5.16375097 6.70425,4.97025 C6.61574956,4.77674903 6.5715,4.53750143 6.5715,4.2525 C6.5715,4.02449886 6.61574956,3.80400106 6.70425,3.591 C6.79275044,3.37799893 6.92174915,3.18900082 7.09125,3.024 C7.26075085,2.85899917 7.46924876,2.72700049 7.71675,2.628 C7.96425124,2.5289995 8.2484984,2.4795 8.5695,2.4795 C8.9295018,2.4795 9.25724852,2.53649943 9.55275,2.6505 C9.84825148,2.76450057 10.1084989,2.92949892 10.3335,3.1455 L10.122,3.5595 Z M13.484,9.072 C13.1239982,9.072 12.8472509,8.97150101 12.65375,8.7705 C12.460249,8.569499 12.3635,8.28000189 12.3635,7.902 L12.3635,5.112 L11.8145,5.112 C11.7664997,5.112 11.7260001,5.09775014 11.693,5.06925 C11.6599998,5.04074986 11.6435,4.9965003 11.6435,4.9365 L11.6435,4.617 L12.3905,4.5225 L12.575,3.114 C12.584,3.06899977 12.6042498,3.03225014 12.63575,3.00375 C12.6672501,2.97524986 12.7084997,2.961 12.7595,2.961 L13.1645,2.961 L13.1645,4.5315 L14.483,4.5315 L14.483,5.112 L13.1645,5.112 L13.1645,7.848 C13.1645,8.04000096 13.2109995,8.18249953 13.304,8.2755 C13.3970004,8.36850047 13.5169992,8.415 13.664,8.415 C13.7480004,8.415 13.8207497,8.40375011 13.88225,8.38125 C13.9437503,8.35874989 13.9969998,8.33400014 14.042,8.307 C14.0870002,8.27999987 14.1252498,8.25525011 14.15675,8.23275 C14.1882501,8.21024989 14.2159999,8.199 14.24,8.199 C14.2820002,8.199 14.3194998,8.22449974 14.3525,8.2755 L14.5865,8.658 C14.4484993,8.78700064 14.282001,8.88824963 14.087,8.96175 C13.891999,9.03525037 13.691001,9.072 13.484,9.072 Z M17.98,4.3695 C18.3130016,4.3695 18.6129986,4.42499944 18.88,4.536 C19.1470013,4.64700055 19.374999,4.80449898 19.564,5.0085 C19.7530009,5.21250102 19.8977495,5.45924855 19.99825,5.74875 C20.0987505,6.03825145 20.149,6.36149821 20.149,6.7185 C20.149,7.0785018 20.0987505,7.40249856 19.99825,7.6905 C19.8977495,7.97850144 19.7530009,8.22449898 19.564,8.4285 C19.374999,8.63250102 19.1470013,8.78924945 18.88,8.89875 C18.6129986,9.00825055 18.3130016,9.063 17.98,9.063 C17.6439983,9.063 17.3417513,9.00825055 17.07325,8.89875 C16.8047486,8.78924945 16.5760009,8.63250102 16.387,8.4285 C16.197999,8.22449898 16.0532505,7.97850144 15.95275,7.6905 C15.8522495,7.40249856 15.802,7.0785018 15.802,6.7185 C15.802,6.36149821 15.8522495,6.03825145 15.95275,5.74875 C16.0532505,5.45924855 16.197999,5.21250102 16.387,5.0085 C16.5760009,4.80449898 16.8047486,4.64700055 17.07325,4.536 C17.3417513,4.42499944 17.6439983,4.3695 17.98,4.3695 Z M17.98,8.4375 C18.4300022,8.4375 18.7659989,8.28675151 18.988,7.98525 C19.2100011,7.68374849 19.321,7.2630027 19.321,6.723 C19.321,6.17999729 19.2100011,5.75700152 18.988,5.454 C18.7659989,5.15099848 18.4300022,4.9995 17.98,4.9995 C17.7519988,4.9995 17.5532508,5.03849961 17.38375,5.1165 C17.2142491,5.19450039 17.0732505,5.30699926 16.96075,5.454 C16.8482494,5.60100073 16.7642502,5.78174893 16.70875,5.99625 C16.6532497,6.21075107 16.6255,6.45299865 16.6255,6.723 C16.6255,7.2630027 16.7372488,7.68374849 16.96075,7.98525 C17.1842511,8.28675151 17.5239977,8.4375 17.98,8.4375 Z M22.6919999,5.355 C22.8360007,5.04299844 23.0129989,4.79925088 23.2229999,4.62375 C23.433001,4.44824912 23.6894984,4.3605 23.9924999,4.3605 C24.0885004,4.3605 24.1807495,4.37099989 24.2692499,4.392 C24.3577504,4.41300011 24.4364996,4.44599977 24.5054999,4.491 L24.4469999,5.0895 C24.4289999,5.16450037 24.3840003,5.202 24.3119999,5.202 C24.2699997,5.202 24.2085003,5.19300009 24.1274999,5.175 C24.0464995,5.15699991 23.9550005,5.148 23.8529999,5.148 C23.7089992,5.148 23.5807505,5.16899979 23.4682499,5.211 C23.3557494,5.25300021 23.2552504,5.31524959 23.1667499,5.39775 C23.0782495,5.48025041 22.9987503,5.58224939 22.9282499,5.70375 C22.8577496,5.82525061 22.7940002,5.96399922 22.7369999,6.12 L22.7369999,9 L21.9314999,9 L21.9314999,4.4415 L22.3904999,4.4415 C22.4775004,4.4415 22.5374998,4.45799983 22.5704999,4.491 C22.6035001,4.52400016 22.6259999,4.58099959 22.6379999,4.662 L22.6919999,5.355 Z M28.8439999,6.2235 C28.8439999,6.03749907 28.8177502,5.86725077 28.7652499,5.71275 C28.7127497,5.55824923 28.6362504,5.42475056 28.5357499,5.31225 C28.4352494,5.19974944 28.3130006,5.11275031 28.1689999,5.05125 C28.0249992,4.98974969 27.8615008,4.959 27.6784999,4.959 C27.294498,4.959 26.990751,5.07074888 26.7672499,5.29425 C26.5437488,5.51775112 26.4050002,5.82749802 26.3509999,6.2235 L28.8439999,6.2235 Z M29.4919999,8.361 C29.3929994,8.4810006 29.2745006,8.58524956 29.1364999,8.67375 C28.9984992,8.76225044 28.8507507,8.83499972 28.6932499,8.892 C28.5357491,8.94900029 28.3730008,8.99174986 28.2049999,9.02025 C28.0369991,9.04875014 27.8705007,9.063 27.7054999,9.063 C27.3904983,9.063 27.1002513,9.00975053 26.8347499,8.90325 C26.5692486,8.79674947 26.3397509,8.64075103 26.1462499,8.43525 C25.952749,8.22974897 25.8020005,7.97550151 25.6939999,7.6725 C25.5859994,7.36949849 25.5319999,7.02150197 25.5319999,6.6285 C25.5319999,6.31049841 25.5807494,6.01350138 25.6782499,5.7375 C25.7757504,5.46149862 25.915999,5.22225101 26.0989999,5.01975 C26.2820008,4.81724899 26.5054986,4.65825058 26.7694999,4.54275 C27.0335012,4.42724942 27.3304983,4.3695 27.6604999,4.3695 C27.9335013,4.3695 28.1862488,4.41524954 28.4187499,4.50675 C28.6512511,4.59825046 28.8522491,4.73024914 29.0217499,4.90275 C29.1912508,5.07525086 29.3239994,5.28824873 29.4199999,5.54175 C29.5160004,5.79525127 29.5639999,6.08399838 29.5639999,6.408 C29.5639999,6.53400063 29.5505001,6.61799979 29.5234999,6.66 C29.4964998,6.70200021 29.4455003,6.723 29.3704999,6.723 L26.3239999,6.723 C26.333,7.01100144 26.3727496,7.26149894 26.4432499,7.4745 C26.5137503,7.68750107 26.6119993,7.86524929 26.7379999,8.00775 C26.8640006,8.15025071 27.0139991,8.25674965 27.1879999,8.32725 C27.3620008,8.39775035 27.5569988,8.433 27.7729999,8.433 C27.9740009,8.433 28.1472492,8.40975023 28.2927499,8.36325 C28.4382507,8.31674977 28.5634994,8.26650027 28.6684999,8.2125 C28.7735004,8.15849973 28.8612496,8.10825023 28.9317499,8.06175 C29.0022503,8.01524977 29.0629997,7.992 29.1139999,7.992 C29.1800003,7.992 29.2309997,8.01749975 29.2669999,8.0685 L29.4919999,8.361 Z" id="Store" fill="#252525" fill-rule="nonzero" stroke="#ffccaa" stroke-width="1"/>
    <path d="M10.122,3.5595 C10.0949999,3.60450022 10.0657502,3.63824989 10.03425,3.66075 C10.0027498,3.68325011 9.96450023,3.6945 9.9195,3.6945 C9.86849975,3.6945 9.80850035,3.66900025 9.7395,3.618 C9.67049966,3.56699974 9.58425052,3.51075031 9.48075,3.44925 C9.37724948,3.38774969 9.25275073,3.33150025 9.10725,3.2805 C8.96174927,3.22949974 8.78550103,3.204 8.5785,3.204 C8.38349903,3.204 8.21175074,3.23024974 8.06325,3.28275 C7.91474926,3.33525026 7.7902505,3.40649955 7.68975,3.4965 C7.5892495,3.58650045 7.51350026,3.69224939 7.4625,3.81375 C7.41149975,3.93525061 7.386,4.06649929 7.386,4.2075 C7.386,4.3875009 7.43024956,4.53674941 7.51875,4.65525 C7.60725044,4.77375059 7.72424927,4.87499958 7.86975,4.959 C8.01525073,5.04300042 8.18024908,5.11574969 8.36475,5.17725 C8.54925092,5.23875031 8.73824903,5.30249967 8.93175,5.3685 C9.12525097,5.43450033 9.31424908,5.50874959 9.49875,5.59125 C9.68325092,5.67375041 9.84824927,5.77799937 9.99375,5.904 C10.1392507,6.03000063 10.2562496,6.18449908 10.34475,6.3675 C10.4332504,6.55050091 10.4775,6.77549866 10.4775,7.0425 C10.4775,7.32450141 10.4295005,7.58924876 10.3335,7.83675 C10.2374995,8.08425124 10.0972509,8.29949909 9.91275,8.4825 C9.72824908,8.66550091 9.50175134,8.80949947 9.23325,8.9145 C8.96474866,9.01950052 8.65950171,9.072 8.3175,9.072 C7.8974979,9.072 7.51650171,8.99625076 7.1745,8.84475 C6.83249829,8.69324924 6.54000122,8.48850129 6.297,8.2305 L6.549,7.8165 C6.57300012,7.78349983 6.60224983,7.75575011 6.63675,7.73325 C6.67125017,7.71074989 6.70949979,7.6995 6.7515,7.6995 C6.79050019,7.6995 6.83474975,7.71524984 6.88425,7.74675 C6.93375025,7.77825016 6.98999968,7.81799976 7.053,7.866 C7.11600031,7.91400024 7.18799959,7.96649971 7.269,8.0235 C7.35000041,8.08050028 7.44224948,8.13299976 7.54575,8.181 C7.64925052,8.22900024 7.76699934,8.26874984 7.899,8.30025 C8.03100066,8.33175016 8.17949918,8.3475 8.3445,8.3475 C8.55150104,8.3475 8.73599919,8.31900028 8.898,8.262 C9.06000081,8.20499971 9.19724944,8.12475052 9.30975,8.02125 C9.42225056,7.91774948 9.5084997,7.79400072 9.5685,7.65 C9.6285003,7.50599928 9.6585,7.34550088 9.6585,7.1685 C9.6585,6.97349902 9.61425044,6.81375062 9.52575,6.68925 C9.43724956,6.56474938 9.32100072,6.46050042 9.177,6.3765 C9.03299928,6.29249958 8.86800093,6.22125029 8.682,6.16275 C8.49599907,6.10424971 8.30700096,6.04425031 8.115,5.98275 C7.92299904,5.92124969 7.73400093,5.8500004 7.548,5.769 C7.36199907,5.68799959 7.19700072,5.58300064 7.053,5.454 C6.90899928,5.32499935 6.79275044,5.16375097 6.70425,4.97025 C6.61574956,4.77674903 6.5715,4.53750143 6.5715,4.2525 C6.5715,4.02449886 6.61574956,3.80400106 6.70425,3.591 C6.79275044,3.37799893 6.92174915,3.18900082 7.09125,3.024 C7.26075085,2.85899917 7.46924876,2.72700049 7.71675,2.628 C7.96425124,2.5289995 8.2484984,2.4795 8.5695,2.4795 C8.9295018,2.4795 9.25724852,2.53649943 9.55275,2.6505 C9.84825148,2.76450057 10.1084989,2.92949892 10.3335,3.1455 L10.122,3.5595 Z M13.484,9.072 C13.1239982,9.072 12.8472509,8.97150101 12.65375,8.7705 C12.460249,8.569499 12.3635,8.28000189 12.3635,7.902 L12.3635,5.112 L11.8145,5.112 C11.7664997,5.112 11.7260001,5.09775014 11.693,5.06925 C11.6599998,5.04074986 11.6435,4.9965003 11.6435,4.9365 L11.6435,4.617 L12.3905,4.5225 L12.575,3.114 C12.584,3.06899977 12.6042498,3.03225014 12.63575,3.00375 C12.6672501,2.97524986 12.7084997,2.961 12.7595,2.961 L13.1645,2.961 L13.1645,4.5315 L14.483,4.5315 L14.483,5.112 L13.1645,5.112 L13.1645,7.848 C13.1645,8.04000096 13.2109995,8.18249953 13.304,8.2755 C13.3970004,8.36850047 13.5169992,8.415 13.664,8.415 C13.7480004,8.415 13.8207497,8.40375011 13.88225,8.38125 C13.9437503,8.35874989 13.9969998,8.33400014 14.042,8.307 C14.0870002,8.27999987 14.1252498,8.25525011 14.15675,8.23275 C14.1882501,8.21024989 14.2159999,8.199 14.24,8.199 C14.2820002,8.199 14.3194998,8.22449974 14.3525,8.2755 L14.5865,8.658 C14.4484993,8.78700064 14.282001,8.88824963 14.087,8.96175 C13.891999,9.03525037 13.691001,9.072 13.484,9.072 Z M17.98,4.3695 C18.3130016,4.3695 18.6129986,4.42499944 18.88,4.536 C19.1470013,4.64700055 19.374999,4.80449898 19.564,5.0085 C19.7530009,5.21250102 19.8977495,5.45924855 19.99825,5.74875 C20.0987505,6.03825145 20.149,6.36149821 20.149,6.7185 C20.149,7.0785018 20.0987505,7.40249856 19.99825,7.6905 C19.8977495,7.97850144 19.7530009,8.22449898 19.564,8.4285 C19.374999,8.63250102 19.1470013,8.78924945 18.88,8.89875 C18.6129986,9.00825055 18.3130016,9.063 17.98,9.063 C17.6439983,9.063 17.3417513,9.00825055 17.07325,8.89875 C16.8047486,8.78924945 16.5760009,8.63250102 16.387,8.4285 C16.197999,8.22449898 16.0532505,7.97850144 15.95275,7.6905 C15.8522495,7.40249856 15.802,7.0785018 15.802,6.7185 C15.802,6.36149821 15.8522495,6.03825145 15.95275,5.74875 C16.0532505,5.45924855 16.197999,5.21250102 16.387,5.0085 C16.5760009,4.80449898 16.8047486,4.64700055 17.07325,4.536 C17.3417513,4.42499944 17.6439983,4.3695 17.98,4.3695 Z M17.98,8.4375 C18.4300022,8.4375 18.7659989,8.28675151 18.988,7.98525 C19.2100011,7.68374849 19.321,7.2630027 19.321,6.723 C19.321,6.17999729 19.2100011,5.75700152 18.988,5.454 C18.7659989,5.15099848 18.4300022,4.9995 17.98,4.9995 C17.7519988,4.9995 17.5532508,5.03849961 17.38375,5.1165 C17.2142491,5.19450039 17.0732505,5.30699926 16.96075,5.454 C16.8482494,5.60100073 16.7642502,5.78174893 16.70875,5.99625 C16.6532497,6.21075107 16.6255,6.45299865 16.6255,6.723 C16.6255,7.2630027 16.7372488,7.68374849 16.96075,7.98525 C17.1842511,8.28675151 17.5239977,8.4375 17.98,8.4375 Z M22.6919999,5.355 C22.8360007,5.04299844 23.0129989,4.79925088 23.2229999,4.62375 C23.433001,4.44824912 23.6894984,4.3605 23.9924999,4.3605 C24.0885004,4.3605 24.1807495,4.37099989 24.2692499,4.392 C24.3577504,4.41300011 24.4364996,4.44599977 24.5054999,4.491 L24.4469999,5.0895 C24.4289999,5.16450037 24.3840003,5.202 24.3119999,5.202 C24.2699997,5.202 24.2085003,5.19300009 24.1274999,5.175 C24.0464995,5.15699991 23.9550005,5.148 23.8529999,5.148 C23.7089992,5.148 23.5807505,5.16899979 23.4682499,5.211 C23.3557494,5.25300021 23.2552504,5.31524959 23.1667499,5.39775 C23.0782495,5.48025041 22.9987503,5.58224939 22.9282499,5.70375 C22.8577496,5.82525061 22.7940002,5.96399922 22.7369999,6.12 L22.7369999,9 L21.9314999,9 L21.9314999,4.4415 L22.3904999,4.4415 C22.4775004,4.4415 22.5374998,4.45799983 22.5704999,4.491 C22.6035001,4.52400016 22.6259999,4.58099959 22.6379999,4.662 L22.6919999,5.355 Z M28.8439999,6.2235 C28.8439999,6.03749907 28.8177502,5.86725077 28.7652499,5.71275 C28.7127497,5.55824923 28.6362504,5.42475056 28.5357499,5.31225 C28.4352494,5.19974944 28.3130006,5.11275031 28.1689999,5.05125 C28.0249992,4.98974969 27.8615008,4.959 27.6784999,4.959 C27.294498,4.959 26.990751,5.07074888 26.7672499,5.29425 C26.5437488,5.51775112 26.4050002,5.82749802 26.3509999,6.2235 L28.8439999,6.2235 Z M29.4919999,8.361 C29.3929994,8.4810006 29.2745006,8.58524956 29.1364999,8.67375 C28.9984992,8.76225044 28.8507507,8.83499972 28.6932499,8.892 C28.5357491,8.94900029 28.3730008,8.99174986 28.2049999,9.02025 C28.0369991,9.04875014 27.8705007,9.063 27.7054999,9.063 C27.3904983,9.063 27.1002513,9.00975053 26.8347499,8.90325 C26.5692486,8.79674947 26.3397509,8.64075103 26.1462499,8.43525 C25.952749,8.22974897 25.8020005,7.97550151 25.6939999,7.6725 C25.5859994,7.36949849 25.5319999,7.02150197 25.5319999,6.6285 C25.5319999,6.31049841 25.5807494,6.01350138 25.6782499,5.7375 C25.7757504,5.46149862 25.915999,5.22225101 26.0989999,5.01975 C26.2820008,4.81724899 26.5054986,4.65825058 26.7694999,4.54275 C27.0335012,4.42724942 27.3304983,4.3695 27.6604999,4.3695 C27.9335013,4.3695 28.1862488,4.41524954 28.4187499,4.50675 C28.6512511,4.59825046 28.8522491,4.73024914 29.0217499,4.90275 C29.1912508,5.07525086 29.3239994,5.28824873 29.4199999,5.54175 C29.5160004,5.79525127 29.5639999,6.08399838 29.5639999,6.408 C29.5639999,6.53400063 29.5505001,6.61799979 29.5234999,6.66 C29.4964998,6.70200021 29.4455003,6.723 29.3704999,6.723 L26.3239999,6.723 C26.333,7.01100144 26.3727496,7.26149894 26.4432499,7.4745 C26.5137503,7.68750107 26.6119993,7.86524929 26.7379999,8.00775 C26.8640006,8.15025071 27.0139991,8.25674965 27.1879999,8.32725 C27.3620008,8.39775035 27.5569988,8.433 27.7729999,8.433 C27.9740009,8.433 28.1472492,8.40975023 28.2927499,8.36325 C28.4382507,8.31674977 28.5634994,8.26650027 28.6684999,8.2125 C28.7735004,8.15849973 28.8612496,8.10825023 28.9317499,8.06175 C29.0022503,8.01524977 29.0629997,7.992 29.1139999,7.992 C29.1800003,7.992 29.2309997,8.01749975 29.2669999,8.0685 L29.4919999,8.361 Z" id="path-1" fill="#252525" fill-rule="nonzero" transform=""/>
  </g>
</svg>