<svg width="22" height="30" viewBox="0 0 22 30" fill="none" xmlns="http://www.w3.org/2000/svg">
<path d="M2 6C2 4.89543 2.89543 4 4 4H15C16.1046 4 17 4.89543 17 6V10C17 11.1046 16.1046 12 15 12H4C2.89543 12 2 11.1046 2 10V6Z" fill="#E3E3E3"/>
<path d="M12.3666 5.9005V11H11.3236V8.067C11.3236 7.99933 11.3248 7.92583 11.3271 7.8465C11.3318 7.76717 11.3388 7.68667 11.3481 7.605L9.99364 10.2265C9.95164 10.3082 9.89447 10.37 9.82214 10.412C9.75214 10.454 9.67164 10.475 9.58064 10.475H9.41964C9.32864 10.475 9.24697 10.454 9.17464 10.412C9.10464 10.37 9.04864 10.3082 9.00664 10.2265L7.65214 7.598C7.65914 7.682 7.66497 7.76483 7.66964 7.8465C7.6743 7.92583 7.67664 7.99933 7.67664 8.067V11H6.63364V5.9005H7.53664C7.58797 5.9005 7.6323 5.90167 7.66964 5.904C7.7093 5.90633 7.7443 5.91333 7.77464 5.925C7.80497 5.93667 7.8318 5.95533 7.85514 5.981C7.8808 6.00433 7.9053 6.03817 7.92864 6.0825L9.24114 8.669C9.2878 8.75767 9.33214 8.84983 9.37414 8.9455C9.41847 9.04117 9.46047 9.13917 9.50014 9.2395C9.5398 9.13683 9.58064 9.0365 9.62264 8.9385C9.66697 8.8405 9.71364 8.74717 9.76264 8.6585L11.0716 6.0825C11.095 6.03817 11.1183 6.00433 11.1416 5.981C11.1673 5.95533 11.1953 5.93667 11.2256 5.925C11.256 5.91333 11.2898 5.90633 11.3271 5.904C11.3668 5.90167 11.4123 5.9005 11.4636 5.9005H12.3666Z" fill="#393B45"/>
<path d="M4 4.5H15V3.5H4V4.5ZM16.5 6V10H17.5V6H16.5ZM15 11.5H4V12.5H15V11.5ZM2.5 10V6H1.5V10H2.5ZM4 11.5C3.17157 11.5 2.5 10.8284 2.5 10H1.5C1.5 11.3807 2.61929 12.5 4 12.5V11.5ZM16.5 10C16.5 10.8284 15.8284 11.5 15 11.5V12.5C16.3807 12.5 17.5 11.3807 17.5 10H16.5ZM15 4.5C15.8284 4.5 16.5 5.17157 16.5 6H17.5C17.5 4.61929 16.3807 3.5 15 3.5V4.5ZM4 3.5C2.61929 3.5 1.5 4.61929 1.5 6H2.5C2.5 5.17157 3.17157 4.5 4 4.5V3.5Z" fill="black"/>
<path d="M2 21C2 19.8954 2.89543 19 4 19H15C16.1046 19 17 19.8954 17 21V25C17 26.1046 16.1046 27 15 27H4C2.89543 27 2 26.1046 2 25V21Z" fill="#4487F6"/>
<path d="M12.3666 20.9005V26H11.3236V23.067C11.3236 22.9993 11.3248 22.9258 11.3271 22.8465C11.3318 22.7672 11.3388 22.6867 11.3481 22.605L9.99364 25.2265C9.95164 25.3082 9.89447 25.37 9.82214 25.412C9.75214 25.454 9.67164 25.475 9.58064 25.475H9.41964C9.32864 25.475 9.24697 25.454 9.17464 25.412C9.10464 25.37 9.04864 25.3082 9.00664 25.2265L7.65214 22.598C7.65914 22.682 7.66497 22.7648 7.66964 22.8465C7.6743 22.9258 7.67664 22.9993 7.67664 23.067V26H6.63364V20.9005H7.53664C7.58797 20.9005 7.6323 20.9017 7.66964 20.904C7.7093 20.9063 7.7443 20.9133 7.77464 20.925C7.80497 20.9367 7.8318 20.9553 7.85514 20.981C7.8808 21.0043 7.9053 21.0382 7.92864 21.0825L9.24114 23.669C9.2878 23.7577 9.33214 23.8498 9.37414 23.9455C9.41847 24.0412 9.46047 24.1392 9.50014 24.2395C9.5398 24.1368 9.58064 24.0365 9.62264 23.9385C9.66697 23.8405 9.71364 23.7472 9.76264 23.6585L11.0716 21.0825C11.095 21.0382 11.1183 21.0043 11.1416 20.981C11.1673 20.9553 11.1953 20.9367 11.2256 20.925C11.256 20.9133 11.2898 20.9063 11.3271 20.904C11.3668 20.9017 11.4123 20.9005 11.4636 20.9005H12.3666Z" fill="#EEEEEE"/>
<path d="M4 19.5H15V18.5H4V19.5ZM16.5 21V25H17.5V21H16.5ZM15 26.5H4V27.5H15V26.5ZM2.5 25V21H1.5V25H2.5ZM4 26.5C3.17157 26.5 2.5 25.8284 2.5 25H1.5C1.5 26.3807 2.61929 27.5 4 27.5V26.5ZM16.5 25C16.5 25.8284 15.8284 26.5 15 26.5V27.5C16.3807 27.5 17.5 26.3807 17.5 25H16.5ZM15 19.5C15.8284 19.5 16.5 20.1716 16.5 21H17.5C17.5 19.6193 16.3807 18.5 15 18.5V19.5ZM4 18.5C2.61929 18.5 1.5 19.6193 1.5 21H2.5C2.5 20.1716 3.17157 19.5 4 19.5V18.5Z" fill="black"/>
</svg>
