<?xml version="1.0" encoding="utf-8"?>
<svg width="37px" height="12px" viewBox="0 0 37 12" version="1.1" xmlns="http://www.w3.org/2000/svg">
  <g id="bmp00164" stroke="none" stroke-width="1" fill="none" fill-rule="evenodd">
    <path d="M14.37,1.835 L14.37,9 L13.52,9 L13.52,3.735 C13.52,3.66499965 13.5225,3.5900004 13.5275,3.51 C13.5325,3.4299996 13.5383333,3.34833375 13.545,3.265 L11.085,7.745 C11.0083329,7.89500075 10.8916674,7.97 10.735,7.97 L10.595,7.97 C10.4383326,7.97 10.3216671,7.89500075 10.245,7.745 L7.735,3.245 C7.7550001,3.42166755 7.765,3.58499925 7.765,3.735 L7.765,9 L6.915,9 L6.915,1.835 L7.63,1.835 C7.7166671,1.835 7.7833331,1.84333325 7.83,1.86 C7.8766669,1.87666675 7.92166645,1.92333295 7.965,2 L10.44,6.41 C10.4800002,6.4900004 10.5191665,6.5733329 10.5575,6.66 C10.5958335,6.7466671 10.6316665,6.83499955 10.665,6.925 C10.6983335,6.83499955 10.7333331,6.74583378 10.77,6.6575 C10.8066668,6.56916623 10.8466665,6.4850004 10.89,6.405 L13.32,2 C13.3600002,1.92333295 13.4041664,1.87666675 13.4525,1.86 C13.5008336,1.84333325 13.5683329,1.835 13.655,1.835 L14.37,1.835 Z M19.245,5.915 C19.245,5.7083323 19.2158336,5.51916753 19.1575,5.3475 C19.0991664,5.17583247 19.0141672,5.02750063 18.9025,4.9025 C18.7908328,4.77749937 18.6550008,4.68083367 18.495,4.6125 C18.3349992,4.54416632 18.1533344,4.51 17.95,4.51 C17.5233312,4.51 17.1858346,4.63416543 16.9375,4.8825 C16.6891654,5.13083457 16.5350003,5.4749978 16.475,5.915 L19.245,5.915 Z M19.965,8.29 C19.8549995,8.423334 19.7233341,8.53916618 19.57,8.6375 C19.4166659,8.73583383 19.2525009,8.81666635 19.0775,8.88 C18.9024991,8.94333365 18.7216676,8.99083318 18.535,9.0225 C18.3483324,9.05416682 18.1633342,9.07 17.98,9.07 C17.6299982,9.07 17.3075015,9.01083393 17.0125,8.8925 C16.7174985,8.77416608 16.4625011,8.60083447 16.2475,8.3725 C16.0324989,8.14416553 15.8650006,7.86166835 15.745,7.525 C15.6249994,7.18833165 15.565,6.80166885 15.565,6.365 C15.565,6.0116649 15.6191661,5.6816682 15.7275,5.375 C15.8358339,5.0683318 15.9916657,4.80250113 16.195,4.5775 C16.3983343,4.35249888 16.6466652,4.17583398 16.94,4.0475 C17.2333348,3.91916603 17.5633315,3.855 17.93,3.855 C18.2333348,3.855 18.5141654,3.90583283 18.7725,4.0075 C19.0308346,4.10916718 19.2541657,4.25583238 19.4425,4.4475 C19.6308343,4.63916763 19.7783328,4.87583193 19.885,5.1575 C19.9916672,5.43916808 20.045,5.7599982 20.045,6.12 C20.045,6.2600007 20.0300001,6.3533331 20,6.4 C19.9699999,6.4466669 19.9133337,6.47 19.83,6.47 L16.445,6.47 C16.4550001,6.7900016 16.4991663,7.06833215 16.5775,7.305 C16.6558337,7.54166785 16.7649993,7.73916587 16.905,7.8975 C17.0450007,8.05583413 17.2116657,8.17416628 17.405,8.2525 C17.5983343,8.33083372 17.8149988,8.37 18.055,8.37 C18.2783345,8.37 18.4708325,8.34416692 18.6325,8.2925 C18.7941675,8.24083307 18.9333328,8.1850003 19.05,8.125 C19.1666672,8.0649997 19.2641663,8.00916693 19.3425,7.9575 C19.4208337,7.90583308 19.4883331,7.88 19.545,7.88 C19.6183337,7.88 19.6749998,7.90833305 19.715,7.965 L19.965,8.29 Z M21.995,4.67 C22.1050005,4.54666605 22.221666,4.4350005 22.345,4.335 C22.468334,4.2349995 22.599166,4.14916703 22.7375,4.0775 C22.875834,4.00583298 23.0224992,3.95083353 23.1775,3.9125 C23.3325008,3.87416647 23.4999991,3.855 23.68,3.855 C23.956668,3.855 24.2008323,3.90083288 24.4125,3.9925 C24.6241677,4.08416713 24.8008326,4.21416583 24.9425,4.3825 C25.0841674,4.55083418 25.1916663,4.75333215 25.265,4.99 C25.3383337,5.22666785 25.375,5.4883319 25.375,5.775 L25.375,9 L24.48,9 L24.48,5.775 C24.48,5.39166475 24.3925009,5.09416773 24.2175,4.8825 C24.0424991,4.67083228 23.7766684,4.565 23.42,4.565 C23.1566653,4.565 22.9108345,4.6283327 22.6825,4.755 C22.4541655,4.8816673 22.2433343,5.05333225 22.05,5.27 L22.05,9 L21.155,9 L21.155,3.935 L21.69,3.935 C21.8166673,3.935 21.8949998,3.99666605 21.925,4.12 L21.995,4.67 Z M30.92,3.935 L30.92,9 L30.39,9 C30.2633327,9 30.1833335,8.93833395 30.15,8.815 L30.08,8.27 C29.8599989,8.51333455 29.6133347,8.70916593 29.34,8.8575 C29.0666653,9.00583407 28.7533351,9.08 28.4,9.08 C28.1233319,9.08 27.8791677,9.03416712 27.6675,8.9425 C27.4558323,8.85083288 27.278334,8.7216675 27.135,8.555 C26.9916659,8.3883325 26.884167,8.18666785 26.8125,7.95 C26.740833,7.71333215 26.705,7.4516681 26.705,7.165 L26.705,3.935 L27.595,3.935 L27.595,7.165 C27.595,7.54833525 27.6824991,7.84499895 27.8575,8.055 C28.0325009,8.26500105 28.2999982,8.37 28.66,8.37 C28.9233346,8.37 29.1691655,8.30750062 29.3975,8.1825 C29.6258345,8.05749938 29.8366657,7.8850011 30.03,7.665 L30.03,3.935 L30.92,3.935 Z" id="Menu" fill="#252525" fill-rule="nonzero" style="stroke-width: 1; stroke: rgb(255, 204, 170);"/>
    <path d="M14.37,1.835 L14.37,9 L13.52,9 L13.52,3.735 C13.52,3.66499965 13.5225,3.5900004 13.5275,3.51 C13.5325,3.4299996 13.5383333,3.34833375 13.545,3.265 L11.085,7.745 C11.0083329,7.89500075 10.8916674,7.97 10.735,7.97 L10.595,7.97 C10.4383326,7.97 10.3216671,7.89500075 10.245,7.745 L7.735,3.245 C7.7550001,3.42166755 7.765,3.58499925 7.765,3.735 L7.765,9 L6.915,9 L6.915,1.835 L7.63,1.835 C7.7166671,1.835 7.7833331,1.84333325 7.83,1.86 C7.8766669,1.87666675 7.92166645,1.92333295 7.965,2 L10.44,6.41 C10.4800002,6.4900004 10.5191665,6.5733329 10.5575,6.66 C10.5958335,6.7466671 10.6316665,6.83499955 10.665,6.925 C10.6983335,6.83499955 10.7333331,6.74583378 10.77,6.6575 C10.8066668,6.56916623 10.8466665,6.4850004 10.89,6.405 L13.32,2 C13.3600002,1.92333295 13.4041664,1.87666675 13.4525,1.86 C13.5008336,1.84333325 13.5683329,1.835 13.655,1.835 L14.37,1.835 Z M19.245,5.915 C19.245,5.7083323 19.2158336,5.51916753 19.1575,5.3475 C19.0991664,5.17583247 19.0141672,5.02750063 18.9025,4.9025 C18.7908328,4.77749937 18.6550008,4.68083367 18.495,4.6125 C18.3349992,4.54416632 18.1533344,4.51 17.95,4.51 C17.5233312,4.51 17.1858346,4.63416543 16.9375,4.8825 C16.6891654,5.13083457 16.5350003,5.4749978 16.475,5.915 L19.245,5.915 Z M19.965,8.29 C19.8549995,8.423334 19.7233341,8.53916618 19.57,8.6375 C19.4166659,8.73583383 19.2525009,8.81666635 19.0775,8.88 C18.9024991,8.94333365 18.7216676,8.99083318 18.535,9.0225 C18.3483324,9.05416682 18.1633342,9.07 17.98,9.07 C17.6299982,9.07 17.3075015,9.01083393 17.0125,8.8925 C16.7174985,8.77416608 16.4625011,8.60083447 16.2475,8.3725 C16.0324989,8.14416553 15.8650006,7.86166835 15.745,7.525 C15.6249994,7.18833165 15.565,6.80166885 15.565,6.365 C15.565,6.0116649 15.6191661,5.6816682 15.7275,5.375 C15.8358339,5.0683318 15.9916657,4.80250113 16.195,4.5775 C16.3983343,4.35249888 16.6466652,4.17583398 16.94,4.0475 C17.2333348,3.91916603 17.5633315,3.855 17.93,3.855 C18.2333348,3.855 18.5141654,3.90583283 18.7725,4.0075 C19.0308346,4.10916718 19.2541657,4.25583238 19.4425,4.4475 C19.6308343,4.63916763 19.7783328,4.87583193 19.885,5.1575 C19.9916672,5.43916808 20.045,5.7599982 20.045,6.12 C20.045,6.2600007 20.0300001,6.3533331 20,6.4 C19.9699999,6.4466669 19.9133337,6.47 19.83,6.47 L16.445,6.47 C16.4550001,6.7900016 16.4991663,7.06833215 16.5775,7.305 C16.6558337,7.54166785 16.7649993,7.73916587 16.905,7.8975 C17.0450007,8.05583413 17.2116657,8.17416628 17.405,8.2525 C17.5983343,8.33083372 17.8149988,8.37 18.055,8.37 C18.2783345,8.37 18.4708325,8.34416692 18.6325,8.2925 C18.7941675,8.24083307 18.9333328,8.1850003 19.05,8.125 C19.1666672,8.0649997 19.2641663,8.00916693 19.3425,7.9575 C19.4208337,7.90583308 19.4883331,7.88 19.545,7.88 C19.6183337,7.88 19.6749998,7.90833305 19.715,7.965 L19.965,8.29 Z M21.995,4.67 C22.1050005,4.54666605 22.221666,4.4350005 22.345,4.335 C22.468334,4.2349995 22.599166,4.14916703 22.7375,4.0775 C22.875834,4.00583298 23.0224992,3.95083353 23.1775,3.9125 C23.3325008,3.87416647 23.4999991,3.855 23.68,3.855 C23.956668,3.855 24.2008323,3.90083288 24.4125,3.9925 C24.6241677,4.08416713 24.8008326,4.21416583 24.9425,4.3825 C25.0841674,4.55083418 25.1916663,4.75333215 25.265,4.99 C25.3383337,5.22666785 25.375,5.4883319 25.375,5.775 L25.375,9 L24.48,9 L24.48,5.775 C24.48,5.39166475 24.3925009,5.09416773 24.2175,4.8825 C24.0424991,4.67083228 23.7766684,4.565 23.42,4.565 C23.1566653,4.565 22.9108345,4.6283327 22.6825,4.755 C22.4541655,4.8816673 22.2433343,5.05333225 22.05,5.27 L22.05,9 L21.155,9 L21.155,3.935 L21.69,3.935 C21.8166673,3.935 21.8949998,3.99666605 21.925,4.12 L21.995,4.67 Z M30.92,3.935 L30.92,9 L30.39,9 C30.2633327,9 30.1833335,8.93833395 30.15,8.815 L30.08,8.27 C29.8599989,8.51333455 29.6133347,8.70916593 29.34,8.8575 C29.0666653,9.00583407 28.7533351,9.08 28.4,9.08 C28.1233319,9.08 27.8791677,9.03416712 27.6675,8.9425 C27.4558323,8.85083288 27.278334,8.7216675 27.135,8.555 C26.9916659,8.3883325 26.884167,8.18666785 26.8125,7.95 C26.740833,7.71333215 26.705,7.4516681 26.705,7.165 L26.705,3.935 L27.595,3.935 L27.595,7.165 C27.595,7.54833525 27.6824991,7.84499895 27.8575,8.055 C28.0325009,8.26500105 28.2999982,8.37 28.66,8.37 C28.9233346,8.37 29.1691655,8.30750062 29.3975,8.1825 C29.6258345,8.05749938 29.8366657,7.8850011 30.03,7.665 L30.03,3.935 L30.92,3.935 Z" id="path-1" fill="#252525" fill-rule="nonzero" transform=""/>
  </g>
</svg>