<?xml version="1.0" encoding="utf-8"?>
<svg width="49px" height="24px" viewBox="0 0 49 24" version="1.1" xmlns:xlink="http://www.w3.org/1999/xlink" xmlns="http://www.w3.org/2000/svg">
  <desc>Created with Lunacy</desc>
  <defs>
    <rect width="49" height="24" id="artboard_1" />
    <clipPath id="clip_1">
      <use xlink:href="#artboard_1" clip-rule="evenodd" />
    </clipPath>
  </defs>
  <g id="hover00303" clip-path="url(#clip_1)">
    <g id="On" transform="translate(9.32 12.5)">
      <g stroke="#FFFFFF" stroke-width="1" id="Vertical">
        <path d="M30.213 8.74L30.213 2.08L29.2455 2.08L29.2455 8.74L30.213 8.74ZM19.3275 2.764Q19.3275 2.8945 19.2758 3.0115Q19.224 3.1285 19.134 3.21625Q19.044 3.304 18.9248 3.35575Q18.8055 3.4075 18.6705 3.4075Q18.54 3.4075 18.4253 3.35575Q18.3105 3.304 18.225 3.21625Q18.1395 3.1285 18.0878 3.0115Q18.036 2.8945 18.036 2.764Q18.036 2.629 18.0878 2.512Q18.1395 2.395 18.225 2.30725Q18.3105 2.2195 18.4253 2.16775Q18.54 2.116 18.6705 2.116Q18.8055 2.116 18.9248 2.16775Q19.044 2.2195 19.134 2.30725Q19.224 2.395 19.2758 2.512Q19.3275 2.629 19.3275 2.764ZM3.564 8.74L6.192 2.26L5.346 2.26Q5.211 2.26 5.121 2.3365Q5.031 2.413 4.995 2.503L3.33 6.7285Q3.2625 6.904 3.20625 7.111Q3.15 7.318 3.1005 7.5475Q2.988 7.084 2.853 6.7285L1.1835 2.503Q1.1385 2.3995 1.053 2.32975Q0.9675 2.26 0.828 2.26L-0.0135 2.26L2.6145 8.74L3.564 8.74ZM15.4598 8.49025Q15.768 8.812 16.3395 8.812Q16.6635 8.812 16.9695 8.70625Q17.2755 8.6005 17.5005 8.4025L17.2125 7.93Q17.163 7.84 17.082 7.84Q17.0415 7.84 16.9988 7.86925Q16.956 7.8985 16.8975 7.93225Q16.839 7.966 16.758 7.99525Q16.677 8.0245 16.5645 8.0245Q16.362 8.0245 16.2405 7.894Q16.119 7.7635 16.119 7.516L16.119 4.9105L17.3925 4.9105L17.3925 4.213L16.119 4.213L16.119 2.7055L15.624 2.7055Q15.534 2.7055 15.48 2.75275Q15.426 2.8 15.4035 2.8765L15.192 4.204L14.4495 4.312L14.4495 4.7035Q14.4495 4.807 14.508 4.85875Q14.5665 4.9105 14.6475 4.9105L15.1515 4.9105L15.1515 7.5835Q15.1515 8.1685 15.4598 8.49025ZM12.4605 5.0005Q12.6765 4.564 12.9825 4.31425Q13.2885 4.0645 13.716 4.0645Q13.8645 4.0645 13.995 4.09825Q14.1255 4.132 14.229 4.1995L14.1615 4.9285Q14.1435 5.005 14.1053 5.03425Q14.067 5.0635 14.004 5.0635Q13.9365 5.0635 13.8105 5.03875Q13.6845 5.014 13.545 5.014Q13.3425 5.014 13.1873 5.0725Q13.032 5.131 12.9083 5.2435Q12.7845 5.356 12.69 5.518Q12.5955 5.68 12.5145 5.887L12.5145 8.74L11.547 8.74L11.547 4.15L12.1095 4.15Q12.2625 4.15 12.321 4.20625Q12.3795 4.2625 12.402 4.402L12.4605 5.0005ZM24.5925 4.789Q25.371 4.0645 26.4465 4.0645Q26.8425 4.0645 27.1508 4.19275Q27.459 4.321 27.6683 4.555Q27.8775 4.789 27.9878 5.11075Q28.098 5.4325 28.098 5.824L28.098 8.74L27.666 8.74Q27.5265 8.74 27.4545 8.69725Q27.3825 8.6545 27.333 8.524L27.2385 8.1505Q27.063 8.308 26.892 8.43175Q26.721 8.5555 26.5388 8.641Q26.3565 8.7265 26.1473 8.76925Q25.938 8.812 25.686 8.812Q25.407 8.812 25.1663 8.7355Q24.9255 8.659 24.75 8.50375Q24.5745 8.3485 24.4733 8.119Q24.372 7.8895 24.372 7.579Q24.372 7.3135 24.5138 7.0615Q24.6555 6.8095 24.9818 6.60925Q25.308 6.409 25.8413 6.2785Q26.3745 6.148 27.1575 6.13L27.1575 5.824Q27.1575 5.329 26.946 5.086Q26.7345 4.843 26.325 4.843Q26.046 4.843 25.857 4.91275Q25.668 4.9825 25.5285 5.0635Q25.389 5.1445 25.281 5.21425Q25.173 5.284 25.0515 5.284Q24.9525 5.284 24.8828 5.23225Q24.813 5.1805 24.768 5.104L24.5925 4.789ZM7.5915 7.19875Q7.488 6.913 7.47 6.5215L10.4175 6.5215Q10.548 6.5215 10.5975 6.445Q10.647 6.3685 10.647 6.1435Q10.647 5.653 10.5008 5.26825Q10.3545 4.8835 10.0935 4.618Q9.8325 4.3525 9.4725 4.21525Q9.1125 4.078 8.6895 4.078Q8.181 4.078 7.77825 4.25575Q7.3755 4.4335 7.09425 4.7395Q6.813 5.0455 6.66225 5.4595Q6.5115 5.8735 6.5115 6.3505Q6.5115 6.949 6.68025 7.408Q6.849 7.867 7.14825 8.1775Q7.4475 8.488 7.85475 8.64775Q8.262 8.8075 8.739 8.8075Q8.982 8.8075 9.2385 8.76925Q9.495 8.731 9.738 8.64325Q9.981 8.5555 10.197 8.416Q10.413 8.2765 10.584 8.074L10.3095 7.7185Q10.2465 7.6285 10.1295 7.6285Q10.0395 7.6285 9.9315 7.69375Q9.8235 7.759 9.6705 7.83775Q9.5175 7.9165 9.3105 7.98175Q9.1035 8.047 8.82 8.047Q8.523 8.047 8.28225 7.95475Q8.0415 7.8625 7.86825 7.6735Q7.695 7.4845 7.5915 7.19875ZM23.544 5.14Q23.5845 5.1085 23.6295 5.05L23.886 4.699Q23.589 4.402 23.2088 4.24Q22.8285 4.078 22.329 4.078Q21.7935 4.078 21.384 4.25575Q20.9745 4.4335 20.6978 4.7485Q20.421 5.0635 20.277 5.49775Q20.133 5.932 20.133 6.4405Q20.133 7.003 20.2928 7.44175Q20.4525 7.8805 20.7293 8.18425Q21.006 8.488 21.3773 8.64775Q21.7485 8.8075 22.176 8.8075Q22.4235 8.8075 22.6665 8.76925Q22.9095 8.731 23.1345 8.64325Q23.3595 8.5555 23.562 8.416Q23.7645 8.2765 23.931 8.074L23.6565 7.7185Q23.5935 7.6285 23.4765 7.6285Q23.382 7.6285 23.2988 7.696Q23.2155 7.7635 23.0985 7.8445Q22.9815 7.9255 22.806 7.993Q22.6305 8.0605 22.3515 8.0605Q22.068 8.0605 21.8408 7.9525Q21.6135 7.8445 21.4538 7.6375Q21.294 7.4305 21.2085 7.129Q21.123 6.8275 21.123 6.4405Q21.123 6.067 21.2018 5.76775Q21.2805 5.4685 21.4403 5.25925Q21.6 5.05 21.8363 4.9375Q22.0725 4.825 22.3875 4.825Q22.6305 4.825 22.7925 4.879Q22.9545 4.933 23.0693 4.99825Q23.184 5.0635 23.2673 5.1175Q23.3505 5.1715 23.427 5.1715Q23.5035 5.1715 23.544 5.14ZM19.1655 8.74L18.198 8.74L18.198 4.15L19.1655 4.15L19.1655 8.74ZM9.70875 5.47525Q9.7785 5.6845 9.7785 5.9275L7.497 5.9275Q7.578 5.383 7.8795 5.0815Q8.181 4.78 8.7075 4.78Q8.9685 4.78 9.16875 4.86775Q9.369 4.9555 9.504 5.11075Q9.639 5.266 9.70875 5.47525ZM27.1575 6.733Q26.64 6.751 26.2845 6.81625Q25.929 6.8815 25.7085 6.98275Q25.488 7.084 25.3913 7.2235Q25.2945 7.363 25.2945 7.5295Q25.2945 7.6915 25.3463 7.80625Q25.398 7.921 25.4903 7.99525Q25.5825 8.0695 25.7063 8.10325Q25.83 8.137 25.9785 8.137Q26.3565 8.137 26.6288 7.99525Q26.901 7.8535 27.1575 7.5835L27.1575 6.733Z" />
      </g>
      <g id="Vertical">
        <path d="M30.213 8.74L30.213 2.08L29.2455 2.08L29.2455 8.74L30.213 8.74ZM19.3275 2.764Q19.3275 2.8945 19.2758 3.0115Q19.224 3.1285 19.134 3.21625Q19.044 3.304 18.9248 3.35575Q18.8055 3.4075 18.6705 3.4075Q18.54 3.4075 18.4253 3.35575Q18.3105 3.304 18.225 3.21625Q18.1395 3.1285 18.0878 3.0115Q18.036 2.8945 18.036 2.764Q18.036 2.629 18.0878 2.512Q18.1395 2.395 18.225 2.30725Q18.3105 2.2195 18.4253 2.16775Q18.54 2.116 18.6705 2.116Q18.8055 2.116 18.9248 2.16775Q19.044 2.2195 19.134 2.30725Q19.224 2.395 19.2758 2.512Q19.3275 2.629 19.3275 2.764ZM3.564 8.74L6.192 2.26L5.346 2.26Q5.211 2.26 5.121 2.3365Q5.031 2.413 4.995 2.503L3.33 6.7285Q3.2625 6.904 3.20625 7.111Q3.15 7.318 3.1005 7.5475Q2.988 7.084 2.853 6.7285L1.1835 2.503Q1.1385 2.3995 1.053 2.32975Q0.9675 2.26 0.828 2.26L-0.0135 2.26L2.6145 8.74L3.564 8.74ZM15.4598 8.49025Q15.768 8.812 16.3395 8.812Q16.6635 8.812 16.9695 8.70625Q17.2755 8.6005 17.5005 8.4025L17.2125 7.93Q17.163 7.84 17.082 7.84Q17.0415 7.84 16.9988 7.86925Q16.956 7.8985 16.8975 7.93225Q16.839 7.966 16.758 7.99525Q16.677 8.0245 16.5645 8.0245Q16.362 8.0245 16.2405 7.894Q16.119 7.7635 16.119 7.516L16.119 4.9105L17.3925 4.9105L17.3925 4.213L16.119 4.213L16.119 2.7055L15.624 2.7055Q15.534 2.7055 15.48 2.75275Q15.426 2.8 15.4035 2.8765L15.192 4.204L14.4495 4.312L14.4495 4.7035Q14.4495 4.807 14.508 4.85875Q14.5665 4.9105 14.6475 4.9105L15.1515 4.9105L15.1515 7.5835Q15.1515 8.1685 15.4598 8.49025ZM12.4605 5.0005Q12.6765 4.564 12.9825 4.31425Q13.2885 4.0645 13.716 4.0645Q13.8645 4.0645 13.995 4.09825Q14.1255 4.132 14.229 4.1995L14.1615 4.9285Q14.1435 5.005 14.1053 5.03425Q14.067 5.0635 14.004 5.0635Q13.9365 5.0635 13.8105 5.03875Q13.6845 5.014 13.545 5.014Q13.3425 5.014 13.1873 5.0725Q13.032 5.131 12.9083 5.2435Q12.7845 5.356 12.69 5.518Q12.5955 5.68 12.5145 5.887L12.5145 8.74L11.547 8.74L11.547 4.15L12.1095 4.15Q12.2625 4.15 12.321 4.20625Q12.3795 4.2625 12.402 4.402L12.4605 5.0005ZM24.5925 4.789Q25.371 4.0645 26.4465 4.0645Q26.8425 4.0645 27.1508 4.19275Q27.459 4.321 27.6683 4.555Q27.8775 4.789 27.9878 5.11075Q28.098 5.4325 28.098 5.824L28.098 8.74L27.666 8.74Q27.5265 8.74 27.4545 8.69725Q27.3825 8.6545 27.333 8.524L27.2385 8.1505Q27.063 8.308 26.892 8.43175Q26.721 8.5555 26.5388 8.641Q26.3565 8.7265 26.1473 8.76925Q25.938 8.812 25.686 8.812Q25.407 8.812 25.1663 8.7355Q24.9255 8.659 24.75 8.50375Q24.5745 8.3485 24.4733 8.119Q24.372 7.8895 24.372 7.579Q24.372 7.3135 24.5138 7.0615Q24.6555 6.8095 24.9818 6.60925Q25.308 6.409 25.8413 6.2785Q26.3745 6.148 27.1575 6.13L27.1575 5.824Q27.1575 5.329 26.946 5.086Q26.7345 4.843 26.325 4.843Q26.046 4.843 25.857 4.91275Q25.668 4.9825 25.5285 5.0635Q25.389 5.1445 25.281 5.21425Q25.173 5.284 25.0515 5.284Q24.9525 5.284 24.8828 5.23225Q24.813 5.1805 24.768 5.104L24.5925 4.789ZM7.5915 7.19875Q7.488 6.913 7.47 6.5215L10.4175 6.5215Q10.548 6.5215 10.5975 6.445Q10.647 6.3685 10.647 6.1435Q10.647 5.653 10.5008 5.26825Q10.3545 4.8835 10.0935 4.618Q9.8325 4.3525 9.4725 4.21525Q9.1125 4.078 8.6895 4.078Q8.181 4.078 7.77825 4.25575Q7.3755 4.4335 7.09425 4.7395Q6.813 5.0455 6.66225 5.4595Q6.5115 5.8735 6.5115 6.3505Q6.5115 6.949 6.68025 7.408Q6.849 7.867 7.14825 8.1775Q7.4475 8.488 7.85475 8.64775Q8.262 8.8075 8.739 8.8075Q8.982 8.8075 9.2385 8.76925Q9.495 8.731 9.738 8.64325Q9.981 8.5555 10.197 8.416Q10.413 8.2765 10.584 8.074L10.3095 7.7185Q10.2465 7.6285 10.1295 7.6285Q10.0395 7.6285 9.9315 7.69375Q9.8235 7.759 9.6705 7.83775Q9.5175 7.9165 9.3105 7.98175Q9.1035 8.047 8.82 8.047Q8.523 8.047 8.28225 7.95475Q8.0415 7.8625 7.86825 7.6735Q7.695 7.4845 7.5915 7.19875ZM23.544 5.14Q23.5845 5.1085 23.6295 5.05L23.886 4.699Q23.589 4.402 23.2088 4.24Q22.8285 4.078 22.329 4.078Q21.7935 4.078 21.384 4.25575Q20.9745 4.4335 20.6978 4.7485Q20.421 5.0635 20.277 5.49775Q20.133 5.932 20.133 6.4405Q20.133 7.003 20.2928 7.44175Q20.4525 7.8805 20.7293 8.18425Q21.006 8.488 21.3773 8.64775Q21.7485 8.8075 22.176 8.8075Q22.4235 8.8075 22.6665 8.76925Q22.9095 8.731 23.1345 8.64325Q23.3595 8.5555 23.562 8.416Q23.7645 8.2765 23.931 8.074L23.6565 7.7185Q23.5935 7.6285 23.4765 7.6285Q23.382 7.6285 23.2988 7.696Q23.2155 7.7635 23.0985 7.8445Q22.9815 7.9255 22.806 7.993Q22.6305 8.0605 22.3515 8.0605Q22.068 8.0605 21.8408 7.9525Q21.6135 7.8445 21.4538 7.6375Q21.294 7.4305 21.2085 7.129Q21.123 6.8275 21.123 6.4405Q21.123 6.067 21.2018 5.76775Q21.2805 5.4685 21.4403 5.25925Q21.6 5.05 21.8363 4.9375Q22.0725 4.825 22.3875 4.825Q22.6305 4.825 22.7925 4.879Q22.9545 4.933 23.0693 4.99825Q23.184 5.0635 23.2673 5.1175Q23.3505 5.1715 23.427 5.1715Q23.5035 5.1715 23.544 5.14ZM19.1655 8.74L18.198 8.74L18.198 4.15L19.1655 4.15L19.1655 8.74ZM9.70875 5.47525Q9.7785 5.6845 9.7785 5.9275L7.497 5.9275Q7.578 5.383 7.8795 5.0815Q8.181 4.78 8.7075 4.78Q8.9685 4.78 9.16875 4.86775Q9.369 4.9555 9.504 5.11075Q9.639 5.266 9.70875 5.47525ZM27.1575 6.733Q26.64 6.751 26.2845 6.81625Q25.929 6.8815 25.7085 6.98275Q25.488 7.084 25.3913 7.2235Q25.2945 7.363 25.2945 7.5295Q25.2945 7.6915 25.3463 7.80625Q25.398 7.921 25.4903 7.99525Q25.5825 8.0695 25.7063 8.10325Q25.83 8.137 25.9785 8.137Q26.3565 8.137 26.6288 7.99525Q26.901 7.8535 27.1575 7.5835L27.1575 6.733Z" />
      </g>
    </g>
    <g id="Off" transform="translate(9.32 0.5)">
      <g stroke="#FFCCAA" stroke-width="1" id="Vertical">
        <path d="M30.213 8.74L30.213 2.08L29.2455 2.08L29.2455 8.74L30.213 8.74ZM19.3275 2.764Q19.3275 2.8945 19.2758 3.0115Q19.224 3.1285 19.134 3.21625Q19.044 3.304 18.9248 3.35575Q18.8055 3.4075 18.6705 3.4075Q18.54 3.4075 18.4253 3.35575Q18.3105 3.304 18.225 3.21625Q18.1395 3.1285 18.0878 3.0115Q18.036 2.8945 18.036 2.764Q18.036 2.629 18.0878 2.512Q18.1395 2.395 18.225 2.30725Q18.3105 2.2195 18.4253 2.16775Q18.54 2.116 18.6705 2.116Q18.8055 2.116 18.9248 2.16775Q19.044 2.2195 19.134 2.30725Q19.224 2.395 19.2758 2.512Q19.3275 2.629 19.3275 2.764ZM3.564 8.74L6.192 2.26L5.346 2.26Q5.211 2.26 5.121 2.3365Q5.031 2.413 4.995 2.503L3.33 6.7285Q3.2625 6.904 3.20625 7.111Q3.15 7.318 3.1005 7.5475Q2.988 7.084 2.853 6.7285L1.1835 2.503Q1.1385 2.3995 1.053 2.32975Q0.9675 2.26 0.828 2.26L-0.0135 2.26L2.6145 8.74L3.564 8.74ZM15.4598 8.49025Q15.768 8.812 16.3395 8.812Q16.6635 8.812 16.9695 8.70625Q17.2755 8.6005 17.5005 8.4025L17.2125 7.93Q17.163 7.84 17.082 7.84Q17.0415 7.84 16.9988 7.86925Q16.956 7.8985 16.8975 7.93225Q16.839 7.966 16.758 7.99525Q16.677 8.0245 16.5645 8.0245Q16.362 8.0245 16.2405 7.894Q16.119 7.7635 16.119 7.516L16.119 4.9105L17.3925 4.9105L17.3925 4.213L16.119 4.213L16.119 2.7055L15.624 2.7055Q15.534 2.7055 15.48 2.75275Q15.426 2.8 15.4035 2.8765L15.192 4.204L14.4495 4.312L14.4495 4.7035Q14.4495 4.807 14.508 4.85875Q14.5665 4.9105 14.6475 4.9105L15.1515 4.9105L15.1515 7.5835Q15.1515 8.1685 15.4598 8.49025ZM12.4605 5.0005Q12.6765 4.564 12.9825 4.31425Q13.2885 4.0645 13.716 4.0645Q13.8645 4.0645 13.995 4.09825Q14.1255 4.132 14.229 4.1995L14.1615 4.9285Q14.1435 5.005 14.1053 5.03425Q14.067 5.0635 14.004 5.0635Q13.9365 5.0635 13.8105 5.03875Q13.6845 5.014 13.545 5.014Q13.3425 5.014 13.1873 5.0725Q13.032 5.131 12.9083 5.2435Q12.7845 5.356 12.69 5.518Q12.5955 5.68 12.5145 5.887L12.5145 8.74L11.547 8.74L11.547 4.15L12.1095 4.15Q12.2625 4.15 12.321 4.20625Q12.3795 4.2625 12.402 4.402L12.4605 5.0005ZM24.5925 4.789Q25.371 4.0645 26.4465 4.0645Q26.8425 4.0645 27.1508 4.19275Q27.459 4.321 27.6683 4.555Q27.8775 4.789 27.9878 5.11075Q28.098 5.4325 28.098 5.824L28.098 8.74L27.666 8.74Q27.5265 8.74 27.4545 8.69725Q27.3825 8.6545 27.333 8.524L27.2385 8.1505Q27.063 8.308 26.892 8.43175Q26.721 8.5555 26.5388 8.641Q26.3565 8.7265 26.1473 8.76925Q25.938 8.812 25.686 8.812Q25.407 8.812 25.1663 8.7355Q24.9255 8.659 24.75 8.50375Q24.5745 8.3485 24.4733 8.119Q24.372 7.8895 24.372 7.579Q24.372 7.3135 24.5138 7.0615Q24.6555 6.8095 24.9818 6.60925Q25.308 6.409 25.8413 6.2785Q26.3745 6.148 27.1575 6.13L27.1575 5.824Q27.1575 5.329 26.946 5.086Q26.7345 4.843 26.325 4.843Q26.046 4.843 25.857 4.91275Q25.668 4.9825 25.5285 5.0635Q25.389 5.1445 25.281 5.21425Q25.173 5.284 25.0515 5.284Q24.9525 5.284 24.8828 5.23225Q24.813 5.1805 24.768 5.104L24.5925 4.789ZM7.5915 7.19875Q7.488 6.913 7.47 6.5215L10.4175 6.5215Q10.548 6.5215 10.5975 6.445Q10.647 6.3685 10.647 6.1435Q10.647 5.653 10.5008 5.26825Q10.3545 4.8835 10.0935 4.618Q9.8325 4.3525 9.4725 4.21525Q9.1125 4.078 8.6895 4.078Q8.181 4.078 7.77825 4.25575Q7.3755 4.4335 7.09425 4.7395Q6.813 5.0455 6.66225 5.4595Q6.5115 5.8735 6.5115 6.3505Q6.5115 6.949 6.68025 7.408Q6.849 7.867 7.14825 8.1775Q7.4475 8.488 7.85475 8.64775Q8.262 8.8075 8.739 8.8075Q8.982 8.8075 9.2385 8.76925Q9.495 8.731 9.738 8.64325Q9.981 8.5555 10.197 8.416Q10.413 8.2765 10.584 8.074L10.3095 7.7185Q10.2465 7.6285 10.1295 7.6285Q10.0395 7.6285 9.9315 7.69375Q9.8235 7.759 9.6705 7.83775Q9.5175 7.9165 9.3105 7.98175Q9.1035 8.047 8.82 8.047Q8.523 8.047 8.28225 7.95475Q8.0415 7.8625 7.86825 7.6735Q7.695 7.4845 7.5915 7.19875ZM23.544 5.14Q23.5845 5.1085 23.6295 5.05L23.886 4.699Q23.589 4.402 23.2088 4.24Q22.8285 4.078 22.329 4.078Q21.7935 4.078 21.384 4.25575Q20.9745 4.4335 20.6978 4.7485Q20.421 5.0635 20.277 5.49775Q20.133 5.932 20.133 6.4405Q20.133 7.003 20.2928 7.44175Q20.4525 7.8805 20.7293 8.18425Q21.006 8.488 21.3773 8.64775Q21.7485 8.8075 22.176 8.8075Q22.4235 8.8075 22.6665 8.76925Q22.9095 8.731 23.1345 8.64325Q23.3595 8.5555 23.562 8.416Q23.7645 8.2765 23.931 8.074L23.6565 7.7185Q23.5935 7.6285 23.4765 7.6285Q23.382 7.6285 23.2988 7.696Q23.2155 7.7635 23.0985 7.8445Q22.9815 7.9255 22.806 7.993Q22.6305 8.0605 22.3515 8.0605Q22.068 8.0605 21.8408 7.9525Q21.6135 7.8445 21.4538 7.6375Q21.294 7.4305 21.2085 7.129Q21.123 6.8275 21.123 6.4405Q21.123 6.067 21.2018 5.76775Q21.2805 5.4685 21.4403 5.25925Q21.6 5.05 21.8363 4.9375Q22.0725 4.825 22.3875 4.825Q22.6305 4.825 22.7925 4.879Q22.9545 4.933 23.0693 4.99825Q23.184 5.0635 23.2673 5.1175Q23.3505 5.1715 23.427 5.1715Q23.5035 5.1715 23.544 5.14ZM19.1655 8.74L18.198 8.74L18.198 4.15L19.1655 4.15L19.1655 8.74ZM9.70875 5.47525Q9.7785 5.6845 9.7785 5.9275L7.497 5.9275Q7.578 5.383 7.8795 5.0815Q8.181 4.78 8.7075 4.78Q8.9685 4.78 9.16875 4.86775Q9.369 4.9555 9.504 5.11075Q9.639 5.266 9.70875 5.47525ZM27.1575 6.733Q26.64 6.751 26.2845 6.81625Q25.929 6.8815 25.7085 6.98275Q25.488 7.084 25.3913 7.2235Q25.2945 7.363 25.2945 7.5295Q25.2945 7.6915 25.3463 7.80625Q25.398 7.921 25.4903 7.99525Q25.5825 8.0695 25.7063 8.10325Q25.83 8.137 25.9785 8.137Q26.3565 8.137 26.6288 7.99525Q26.901 7.8535 27.1575 7.5835L27.1575 6.733Z" />
      </g>
      <g id="Vertical">
        <path d="M30.213 8.74L30.213 2.08L29.2455 2.08L29.2455 8.74L30.213 8.74ZM19.3275 2.764Q19.3275 2.8945 19.2758 3.0115Q19.224 3.1285 19.134 3.21625Q19.044 3.304 18.9248 3.35575Q18.8055 3.4075 18.6705 3.4075Q18.54 3.4075 18.4253 3.35575Q18.3105 3.304 18.225 3.21625Q18.1395 3.1285 18.0878 3.0115Q18.036 2.8945 18.036 2.764Q18.036 2.629 18.0878 2.512Q18.1395 2.395 18.225 2.30725Q18.3105 2.2195 18.4253 2.16775Q18.54 2.116 18.6705 2.116Q18.8055 2.116 18.9248 2.16775Q19.044 2.2195 19.134 2.30725Q19.224 2.395 19.2758 2.512Q19.3275 2.629 19.3275 2.764ZM3.564 8.74L6.192 2.26L5.346 2.26Q5.211 2.26 5.121 2.3365Q5.031 2.413 4.995 2.503L3.33 6.7285Q3.2625 6.904 3.20625 7.111Q3.15 7.318 3.1005 7.5475Q2.988 7.084 2.853 6.7285L1.1835 2.503Q1.1385 2.3995 1.053 2.32975Q0.9675 2.26 0.828 2.26L-0.0135 2.26L2.6145 8.74L3.564 8.74ZM15.4598 8.49025Q15.768 8.812 16.3395 8.812Q16.6635 8.812 16.9695 8.70625Q17.2755 8.6005 17.5005 8.4025L17.2125 7.93Q17.163 7.84 17.082 7.84Q17.0415 7.84 16.9988 7.86925Q16.956 7.8985 16.8975 7.93225Q16.839 7.966 16.758 7.99525Q16.677 8.0245 16.5645 8.0245Q16.362 8.0245 16.2405 7.894Q16.119 7.7635 16.119 7.516L16.119 4.9105L17.3925 4.9105L17.3925 4.213L16.119 4.213L16.119 2.7055L15.624 2.7055Q15.534 2.7055 15.48 2.75275Q15.426 2.8 15.4035 2.8765L15.192 4.204L14.4495 4.312L14.4495 4.7035Q14.4495 4.807 14.508 4.85875Q14.5665 4.9105 14.6475 4.9105L15.1515 4.9105L15.1515 7.5835Q15.1515 8.1685 15.4598 8.49025ZM12.4605 5.0005Q12.6765 4.564 12.9825 4.31425Q13.2885 4.0645 13.716 4.0645Q13.8645 4.0645 13.995 4.09825Q14.1255 4.132 14.229 4.1995L14.1615 4.9285Q14.1435 5.005 14.1053 5.03425Q14.067 5.0635 14.004 5.0635Q13.9365 5.0635 13.8105 5.03875Q13.6845 5.014 13.545 5.014Q13.3425 5.014 13.1873 5.0725Q13.032 5.131 12.9083 5.2435Q12.7845 5.356 12.69 5.518Q12.5955 5.68 12.5145 5.887L12.5145 8.74L11.547 8.74L11.547 4.15L12.1095 4.15Q12.2625 4.15 12.321 4.20625Q12.3795 4.2625 12.402 4.402L12.4605 5.0005ZM24.5925 4.789Q25.371 4.0645 26.4465 4.0645Q26.8425 4.0645 27.1508 4.19275Q27.459 4.321 27.6683 4.555Q27.8775 4.789 27.9878 5.11075Q28.098 5.4325 28.098 5.824L28.098 8.74L27.666 8.74Q27.5265 8.74 27.4545 8.69725Q27.3825 8.6545 27.333 8.524L27.2385 8.1505Q27.063 8.308 26.892 8.43175Q26.721 8.5555 26.5388 8.641Q26.3565 8.7265 26.1473 8.76925Q25.938 8.812 25.686 8.812Q25.407 8.812 25.1663 8.7355Q24.9255 8.659 24.75 8.50375Q24.5745 8.3485 24.4733 8.119Q24.372 7.8895 24.372 7.579Q24.372 7.3135 24.5138 7.0615Q24.6555 6.8095 24.9818 6.60925Q25.308 6.409 25.8413 6.2785Q26.3745 6.148 27.1575 6.13L27.1575 5.824Q27.1575 5.329 26.946 5.086Q26.7345 4.843 26.325 4.843Q26.046 4.843 25.857 4.91275Q25.668 4.9825 25.5285 5.0635Q25.389 5.1445 25.281 5.21425Q25.173 5.284 25.0515 5.284Q24.9525 5.284 24.8828 5.23225Q24.813 5.1805 24.768 5.104L24.5925 4.789ZM7.5915 7.19875Q7.488 6.913 7.47 6.5215L10.4175 6.5215Q10.548 6.5215 10.5975 6.445Q10.647 6.3685 10.647 6.1435Q10.647 5.653 10.5008 5.26825Q10.3545 4.8835 10.0935 4.618Q9.8325 4.3525 9.4725 4.21525Q9.1125 4.078 8.6895 4.078Q8.181 4.078 7.77825 4.25575Q7.3755 4.4335 7.09425 4.7395Q6.813 5.0455 6.66225 5.4595Q6.5115 5.8735 6.5115 6.3505Q6.5115 6.949 6.68025 7.408Q6.849 7.867 7.14825 8.1775Q7.4475 8.488 7.85475 8.64775Q8.262 8.8075 8.739 8.8075Q8.982 8.8075 9.2385 8.76925Q9.495 8.731 9.738 8.64325Q9.981 8.5555 10.197 8.416Q10.413 8.2765 10.584 8.074L10.3095 7.7185Q10.2465 7.6285 10.1295 7.6285Q10.0395 7.6285 9.9315 7.69375Q9.8235 7.759 9.6705 7.83775Q9.5175 7.9165 9.3105 7.98175Q9.1035 8.047 8.82 8.047Q8.523 8.047 8.28225 7.95475Q8.0415 7.8625 7.86825 7.6735Q7.695 7.4845 7.5915 7.19875ZM23.544 5.14Q23.5845 5.1085 23.6295 5.05L23.886 4.699Q23.589 4.402 23.2088 4.24Q22.8285 4.078 22.329 4.078Q21.7935 4.078 21.384 4.25575Q20.9745 4.4335 20.6978 4.7485Q20.421 5.0635 20.277 5.49775Q20.133 5.932 20.133 6.4405Q20.133 7.003 20.2928 7.44175Q20.4525 7.8805 20.7293 8.18425Q21.006 8.488 21.3773 8.64775Q21.7485 8.8075 22.176 8.8075Q22.4235 8.8075 22.6665 8.76925Q22.9095 8.731 23.1345 8.64325Q23.3595 8.5555 23.562 8.416Q23.7645 8.2765 23.931 8.074L23.6565 7.7185Q23.5935 7.6285 23.4765 7.6285Q23.382 7.6285 23.2988 7.696Q23.2155 7.7635 23.0985 7.8445Q22.9815 7.9255 22.806 7.993Q22.6305 8.0605 22.3515 8.0605Q22.068 8.0605 21.8408 7.9525Q21.6135 7.8445 21.4538 7.6375Q21.294 7.4305 21.2085 7.129Q21.123 6.8275 21.123 6.4405Q21.123 6.067 21.2018 5.76775Q21.2805 5.4685 21.4403 5.25925Q21.6 5.05 21.8363 4.9375Q22.0725 4.825 22.3875 4.825Q22.6305 4.825 22.7925 4.879Q22.9545 4.933 23.0693 4.99825Q23.184 5.0635 23.2673 5.1175Q23.3505 5.1715 23.427 5.1715Q23.5035 5.1715 23.544 5.14ZM19.1655 8.74L18.198 8.74L18.198 4.15L19.1655 4.15L19.1655 8.74ZM9.70875 5.47525Q9.7785 5.6845 9.7785 5.9275L7.497 5.9275Q7.578 5.383 7.8795 5.0815Q8.181 4.78 8.7075 4.78Q8.9685 4.78 9.16875 4.86775Q9.369 4.9555 9.504 5.11075Q9.639 5.266 9.70875 5.47525ZM27.1575 6.733Q26.64 6.751 26.2845 6.81625Q25.929 6.8815 25.7085 6.98275Q25.488 7.084 25.3913 7.2235Q25.2945 7.363 25.2945 7.5295Q25.2945 7.6915 25.3463 7.80625Q25.398 7.921 25.4903 7.99525Q25.5825 8.0695 25.7063 8.10325Q25.83 8.137 25.9785 8.137Q26.3565 8.137 26.6288 7.99525Q26.901 7.8535 27.1575 7.5835L27.1575 6.733Z" />
      </g>
    </g>
  </g>
</svg>