<?xml version="1.0" encoding="utf-8"?>
<svg width="22px" height="30px" viewBox="0 0 22 30" version="1.1" xmlns="http://www.w3.org/2000/svg">
  <g id="bmp00132" stroke="none" stroke-width="1" fill="none" fill-rule="evenodd">
    <rect id="Rectangle" fill-opacity="0.54" fill="#FFFFFF" x="4" y="4" width="14" height="1"/>
    <rect id="Rectangle" fill-opacity="0.523299" fill="#FFFFFF" x="4" y="4" width="14" height="7"/>
    <rect id="Rectangle" fill-opacity="0.523299" fill="#FFFFFF" x="4" y="10" width="14" height="1"/>
    <polygon id="Path" fill="#FFB265" points="4 19 18 19 18 26 4 26"/>
    <rect id="Rectangle" fill-opacity="0.52" fill="#FFFFFF" x="4" y="19" width="14" height="1"/>
    <rect id="Rectangle" fill-opacity="0.52" fill="#FFFFFF" x="4" y="25" width="14" height="1"/>
    <path d="M12.16575,21.041125 C12.1342498,21.0928753 12.1021877,21.1305624 12.0695625,21.1541875 C12.0369373,21.1778126 11.9947503,21.189625 11.943,21.189625 C11.8934998,21.189625 11.8400628,21.1721877 11.7826875,21.1373125 C11.7253122,21.1024373 11.6583754,21.0647502 11.581875,21.02425 C11.5053746,20.9837498 11.4176255,20.9460627 11.318625,20.9111875 C11.2196245,20.8763123 11.1037507,20.858875 10.971,20.858875 C10.7369988,20.858875 10.5615006,20.911187 10.4445,21.0158125 C10.3274994,21.120438 10.269,21.2571242 10.269,21.425875 C10.269,21.5338755 10.3010622,21.6233121 10.3651875,21.6941875 C10.4293128,21.7650629 10.513687,21.8263747 10.6183125,21.878125 C10.722938,21.9298753 10.8416243,21.9759998 10.974375,22.0165 C11.1071257,22.0570002 11.2432493,22.1014373 11.38275,22.1498125 C11.5222507,22.1981877 11.6583743,22.2549997 11.791125,22.32025 C11.9238757,22.3855003 12.042562,22.4676245 12.1471875,22.566625 C12.251813,22.6656255 12.3361872,22.7865618 12.4003125,22.9294375 C12.4644378,23.0723132 12.4965,23.246124 12.4965,23.450875 C12.4965,23.6736261 12.4576879,23.8823115 12.3800625,24.0769375 C12.3024371,24.2715635 12.1905007,24.4414368 12.04425,24.5865625 C11.8979993,24.7316882 11.7174386,24.8458746 11.5025625,24.929125 C11.2876864,25.0123754 11.0441264,25.054 10.771875,25.054 C10.6166242,25.054 10.4619383,25.0382502 10.3078125,25.00675 C10.1536867,24.9752498 10.0051882,24.9313753 9.8623125,24.875125 C9.71943679,24.8188747 9.58500063,24.7513754 9.459,24.672625 C9.33299937,24.5938746 9.22275047,24.5061255 9.12825,24.409375 L9.42525,23.930125 C9.45000012,23.8941248 9.4826248,23.8643126 9.523125,23.8406875 C9.5636252,23.8170624 9.60637478,23.80525 9.651375,23.80525 C9.7121253,23.80525 9.77624966,23.8277498 9.84375,23.87275 C9.91125034,23.9177502 9.98887456,23.9672497 10.076625,24.02125 C10.1643754,24.0752503 10.2661869,24.1247498 10.3820625,24.16975 C10.4979381,24.2147502 10.6368742,24.23725 10.798875,24.23725 C11.0351262,24.23725 11.2179369,24.1832505 11.3473125,24.07525 C11.4766881,23.9672495 11.541375,23.8063761 11.541375,23.592625 C11.541375,23.4688744 11.5093128,23.3687504 11.4451875,23.29225 C11.3810622,23.2157496 11.2972505,23.1516253 11.19375,23.099875 C11.0902495,23.0481247 10.9721257,23.0036877 10.839375,22.9665625 C10.7066243,22.9294373 10.5705007,22.8883752 10.431,22.843375 C10.2914993,22.7983748 10.1553757,22.7443753 10.022625,22.681375 C9.88987434,22.6183747 9.77175052,22.5351255 9.66825,22.431625 C9.56474948,22.3281245 9.48093782,22.1998758 9.4168125,22.046875 C9.35268718,21.8938742 9.320625,21.7037511 9.320625,21.4765 C9.320625,21.2942491 9.35662464,21.1176259 9.428625,20.946625 C9.50062536,20.7756241 9.6063743,20.6237507 9.745875,20.491 C9.8853757,20.3582493 10.0569365,20.2513754 10.2605625,20.170375 C10.4641885,20.0893746 10.6976237,20.048875 10.960875,20.048875 C11.2556265,20.048875 11.5284362,20.094437 11.7793125,20.1855625 C12.0301888,20.276688 12.2422491,20.4032492 12.4155,20.56525 L12.16575,21.041125 Z" id="S" fill="#FFFFFF" fill-rule="nonzero"/>
    <path d="M12.16575,6.041125 C12.1342498,6.09287526 12.1021877,6.13056238 12.0695625,6.1541875 C12.0369373,6.17781262 11.9947503,6.189625 11.943,6.189625 C11.8934998,6.189625 11.8400628,6.17218767 11.7826875,6.1373125 C11.7253122,6.10243733 11.6583754,6.0647502 11.581875,6.02425 C11.5053746,5.9837498 11.4176255,5.94606267 11.318625,5.9111875 C11.2196245,5.87631233 11.1037507,5.858875 10.971,5.858875 C10.7369988,5.858875 10.5615006,5.91118698 10.4445,6.0158125 C10.3274994,6.12043802 10.269,6.25712416 10.269,6.425875 C10.269,6.53387554 10.3010622,6.62331215 10.3651875,6.6941875 C10.4293128,6.76506285 10.513687,6.82637474 10.6183125,6.878125 C10.722938,6.92987526 10.8416243,6.9759998 10.974375,7.0165 C11.1071257,7.0570002 11.2432493,7.10143726 11.38275,7.1498125 C11.5222507,7.19818774 11.6583743,7.25499967 11.791125,7.32025 C11.9238757,7.38550033 12.042562,7.4676245 12.1471875,7.566625 C12.251813,7.6656255 12.3361872,7.78656179 12.4003125,7.9294375 C12.4644378,8.07231321 12.4965,8.24612398 12.4965,8.450875 C12.4965,8.67362611 12.4576879,8.88231153 12.3800625,9.0769375 C12.3024371,9.27156347 12.1905007,9.44143677 12.04425,9.5865625 C11.8979993,9.73168823 11.7174386,9.84587458 11.5025625,9.929125 C11.2876864,10.0123754 11.0441264,10.054 10.771875,10.054 C10.6166242,10.054 10.4619383,10.0382502 10.3078125,10.00675 C10.1536867,9.97524984 10.0051882,9.93137528 9.8623125,9.875125 C9.71943679,9.81887472 9.58500063,9.75137539 9.459,9.672625 C9.33299937,9.59387461 9.22275047,9.50612548 9.12825,9.409375 L9.42525,8.930125 C9.45000012,8.89412482 9.4826248,8.86431262 9.523125,8.8406875 C9.5636252,8.81706238 9.60637478,8.80525 9.651375,8.80525 C9.7121253,8.80525 9.77624966,8.82774978 9.84375,8.87275 C9.91125034,8.91775022 9.98887456,8.96724973 10.076625,9.02125 C10.1643754,9.07525027 10.2661869,9.12474977 10.3820625,9.16975 C10.4979381,9.21475022 10.6368742,9.23725 10.798875,9.23725 C11.0351262,9.23725 11.2179369,9.18325054 11.3473125,9.07525 C11.4766881,8.96724946 11.541375,8.80637607 11.541375,8.592625 C11.541375,8.46887438 11.5093128,8.36875038 11.4451875,8.29225 C11.3810622,8.21574962 11.2972505,8.15162526 11.19375,8.099875 C11.0902495,8.04812474 10.9721257,8.00368769 10.839375,7.9665625 C10.7066243,7.92943731 10.5705007,7.88837523 10.431,7.843375 C10.2914993,7.79837477 10.1553757,7.74437532 10.022625,7.681375 C9.88987434,7.61837468 9.77175052,7.53512552 9.66825,7.431625 C9.56474948,7.32812448 9.48093782,7.19987576 9.4168125,7.046875 C9.35268718,6.89387424 9.320625,6.70375114 9.320625,6.4765 C9.320625,6.29424909 9.35662464,6.11762586 9.428625,5.946625 C9.50062536,5.77562415 9.6063743,5.62375066 9.745875,5.491 C9.8853757,5.35824934 10.0569365,5.25137541 10.2605625,5.170375 C10.4641885,5.08937459 10.6976237,5.048875 10.960875,5.048875 C11.2556265,5.048875 11.5284362,5.09443704 11.7793125,5.1855625 C12.0301888,5.27668796 12.2422491,5.40324919 12.4155,5.56525 L12.16575,6.041125 Z" id="S" fill="#525355" fill-rule="nonzero"/>
  </g>
</svg>