<svg width="129" height="180" viewBox="0 0 129 180" fill="none" xmlns="http://www.w3.org/2000/svg">
<g opacity="0.3">
<path d="M14 2H5C4.44772 2 4 2.44771 4 3V12C4 12.5523 4.44771 13 5 13H14C14.5523 13 15 12.5523 15 12V3C15 2.44772 14.5523 2 14 2Z" fill="#FF9A11"/>
<path fill-rule="evenodd" clip-rule="evenodd" d="M5 8H14V7H5V8Z" fill="#2F1C04"/>
</g>
<g opacity="0.3">
<path d="M26 20H17C16.4477 20 16 20.4477 16 21V30C16 30.5523 16.4477 31 17 31H26C26.5523 31 27 30.5523 27 30V21C27 20.4477 26.5523 20 26 20Z" fill="#FF9A11"/>
<path fill-rule="evenodd" clip-rule="evenodd" d="M17 26H20.75V25H17V26Z" fill="#FF9000"/>
<path d="M20.5 25.501C24.9192 25.3796 26.4969 28.9812 26.5 30.5152" stroke="#FF9000"/>
</g>
<g opacity="0.3">
<path d="M38 38H29C28.4477 38 28 38.4477 28 39V48C28 48.5523 28.4477 49 29 49H38C38.5523 49 39 48.5523 39 48V39C39 38.4477 38.5523 38 38 38Z" fill="#FF9A11"/>
<path fill-rule="evenodd" clip-rule="evenodd" d="M29 42H35.55V41H29V42Z" fill="#FF9000"/>
<path d="M35.5 41.5018C38.6067 41.3951 38.5 44.517 38.5 46.5271" stroke="#FF9000"/>
</g>
<g opacity="0.3">
<path d="M50 56H41C40.4477 56 40 56.4477 40 57V66C40 66.5523 40.4477 67 41 67H50C50.5523 67 51 66.5523 51 66V57C51 56.4477 50.5523 56 50 56Z" fill="#FF9A11"/>
<path d="M46.0652 67.9805L50 57.7451" stroke="#FF9000" stroke-linejoin="round"/>
<path d="M42 66.1754L45.8822 55.9199" stroke="#FF9000" stroke-linejoin="round"/>
<path d="M45.3884 57.9391L48.8977 59.8185" stroke="#FF9000" stroke-linejoin="round"/>
<path d="M44.5593 59.7733L48.0686 61.6528" stroke="#FF9000" stroke-linejoin="round"/>
<path d="M43.8176 61.8999L47.3269 63.7794" stroke="#FF9000" stroke-linejoin="round"/>
<path d="M43.0945 63.9392L46.6037 65.8186" stroke="#FF9000" stroke-linejoin="round"/>
</g>
<g opacity="0.3">
<path d="M62 74H53C52.4477 74 52 74.4477 52 75V84C52 84.5523 52.4477 85 53 85H62C62.5523 85 63 84.5523 63 84V75C63 74.4477 62.5523 74 62 74Z" fill="#FF9A11"/>
<path fill-rule="evenodd" clip-rule="evenodd" d="M62.5 80H58.75V79H62.5V80Z" fill="#FF9000"/>
<path d="M59 79.501C54.5808 79.3796 53.0031 82.9812 53 84.5152" stroke="#FF9000"/>
</g>
<g opacity="0.3">
<path d="M74 92H65C64.4477 92 64 92.4477 64 93V102C64 102.552 64.4477 103 65 103H74C74.5523 103 75 102.552 75 102V93C75 92.4477 74.5523 92 74 92Z" fill="#FF9A11"/>
<path fill-rule="evenodd" clip-rule="evenodd" d="M74.5005 98H67.9505V97H74.5005V98Z" fill="#FF9000"/>
<path d="M68.0005 97.5018C64.8938 97.3951 65.0005 100.517 65.0005 102.527" stroke="#FF9000"/>
</g>
<g opacity="0.3">
<path d="M86 110H77C76.4477 110 76 110.448 76 111V120C76 120.552 76.4477 121 77 121H86C86.5523 121 87 120.552 87 120V111C87 110.448 86.5523 110 86 110Z" fill="#FF9A11"/>
<path d="M77 119.991C77.0811 114.631 81.446 115.006 81.446 115.006H81.4539C81.4539 115.006 86 115.059 86 120" stroke="#FF9000" stroke-linejoin="round"/>
</g>
<g opacity="0.3">
<path d="M98 128H89C88.4477 128 88 128.448 88 129V138C88 138.552 88.4477 139 89 139H98C98.5523 139 99 138.552 99 138V129C99 128.448 98.5523 128 98 128Z" fill="#FF9A11"/>
<path d="M89 133.513C89 133.513 93.5049 133.03 93.5049 138H93.5018C93.5018 133.03 98 133.513 98 133.513" stroke="#2F1C04" stroke-linejoin="round"/>
</g>
<g opacity="0.3">
<path d="M110 146H101C100.448 146 100 146.448 100 147V156C100 156.552 100.448 157 101 157H110C110.552 157 111 156.552 111 156V147C111 146.448 110.552 146 110 146Z" fill="#FF9A11"/>
<path d="M107.5 151.514C107.5 151.514 109.502 151.031 109.502 156H109.501C109.501 151.031 111.224 151.513 111.25 151.513" stroke="#FF9000" stroke-linejoin="round"/>
<path d="M103.75 151.514C103.75 151.514 105.752 151.031 105.752 156H105.751C105.751 151.031 107.75 151.514 107.75 151.514" stroke="#FF9000" stroke-linejoin="round"/>
<path d="M100.5 151.524C100.544 151.524 102.002 151.031 102.002 156H102.001C102.001 151.031 104 151.513 104 151.513" stroke="#FF9000" stroke-linejoin="round"/>
</g>
<g opacity="0.3">
<path d="M122 164H113C112.448 164 112 164.448 112 165V174C112 174.552 112.448 175 113 175H122C122.552 175 123 174.552 123 174V165C123 164.448 122.552 164 122 164Z" fill="#FF9A11"/>
<path d="M115.497 165.551C115.497 165.551 113.345 165.169 113.346 166.5C113.348 167.558 115.502 167.632 115.5 168.425C115.497 169.918 113 169.42 113 169.42" stroke="#2F1C04" stroke-linejoin="round"/>
<path d="M115.5 174L119.5 165" stroke="#2F1C04" stroke-linejoin="round"/>
<path fill-rule="evenodd" clip-rule="evenodd" d="M120 171H121V169H122V174H121V172H120V174H119V169H120V171Z" fill="#2F1C04"/>
</g>
</svg>
